<?xml version="1.0" encoding="utf-8" standalone="no"?>
<!DOCTYPE svg PUBLIC "-//W3C//DTD SVG 1.1//EN"
  "http://www.w3.org/Graphics/SVG/1.1/DTD/svg11.dtd">
<svg height="166.711243pt" version="1.1" viewBox="0 0 94.724593 166.711243" width="94.724593pt" xmlns="http://www.w3.org/2000/svg" xmlns:xlink="http://www.w3.org/1999/xlink">
 <metadata>
  <rdf:RDF xmlns:cc="http://creativecommons.org/ns#" xmlns:dc="http://purl.org/dc/elements/1.1/" xmlns:rdf="http://www.w3.org/1999/02/22-rdf-syntax-ns#">
   <cc:Work>
    <dc:type rdf:resource="http://purl.org/dc/dcmitype/StillImage"/>
    <dc:date>2022-05-19T22:09:18.717042</dc:date>
    <dc:format>image/svg+xml</dc:format>
    <dc:creator>
     <cc:Agent>
      <dc:title>Matplotlib v3.4.3, https://matplotlib.org/</dc:title>
     </cc:Agent>
    </dc:creator>
   </cc:Work>
  </rdf:RDF>
 </metadata>
 <defs>
  <style type="text/css">*{stroke-linecap:butt;stroke-linejoin:round;}</style>
 </defs>
 <g id="figure_1">
  <g id="patch_1">
   <path d="M 0 166.711243 
L 94.724593 166.711243 
L 94.724593 0 
L 0 0 
z
" style="fill:none;"/>
  </g>
  <g id="axes_1">
   <g id="line2d_1">
    <path clip-path="url(#pb36e773946)" d="M 37.054625 110.600841 
" style="fill:none;stroke:#008000;stroke-linecap:square;stroke-width:0.001;"/>
   </g>
   <g id="line2d_2">
    <path clip-path="url(#pb36e773946)" d="M 37.054625 110.600841 
" style="fill:none;stroke:#4169e1;stroke-linecap:square;stroke-width:0.001;"/>
   </g>
   <g id="line2d_3">
    <path clip-path="url(#pb36e773946)" d="M 37.054625 110.600841 
" style="fill:none;stroke:#000000;stroke-linecap:square;stroke-width:0.001;"/>
   </g>
   <g id="line2d_4">
    <path clip-path="url(#pb36e773946)" d="M 37.054625 110.600841 
" style="fill:none;stroke:#ff0000;stroke-linecap:square;stroke-width:0.001;"/>
   </g>
   <g id="line2d_5">
    <path clip-path="url(#pb36e773946)" d="M 37.054625 110.600841 
" style="fill:none;stroke:#ffd700;stroke-linecap:square;stroke-width:0.001;"/>
   </g>
   <g id="line2d_6">
    <path clip-path="url(#pb36e773946)" d="M 37.054625 110.600841 
" style="fill:none;stroke:#000000;stroke-dasharray:0.001,0.00165;stroke-dashoffset:0;stroke-width:0.001;"/>
   </g>
   <g id="line2d_7">
    <path clip-path="url(#pb36e773946)" d="M 28.627945 85.700307 
L 30.29902 81.195719 
L 31.970094 76.691131 
L 33.641169 72.186542 
L 35.312244 67.681954 
" style="fill:none;stroke:#808080;stroke-linecap:square;stroke-width:0.43854;"/>
   </g>
   <g id="line2d_8">
    <path clip-path="url(#pb36e773946)" d="M 43.116431 150.849593 
L 43.611573 147.266706 
L 44.106716 143.683819 
L 44.601858 140.100932 
L 45.097001 136.518045 
L 45.592143 132.935158 
L 46.087286 129.352271 
L 46.582428 125.769384 
L 47.077571 122.186497 
L 47.572714 118.603609 
L 48.067856 115.020722 
L 48.562999 111.437835 
L 49.058141 107.854948 
L 49.553284 104.272061 
L 50.048426 100.689174 
L 50.543569 97.106287 
L 51.038711 93.5234 
L 51.533854 89.940513 
L 52.028996 86.357626 
L 52.524139 82.774739 
L 53.019281 79.191852 
L 53.514424 75.608965 
L 54.009566 72.026077 
L 54.504709 68.44319 
L 54.999851 64.860303 
L 55.494994 61.277416 
L 55.990136 57.694529 
L 56.485279 54.111642 
L 56.980422 50.528755 
L 57.475564 46.945868 
L 57.970707 43.362981 
L 58.465849 39.780094 
L 58.960992 36.197207 
" style="fill:none;stroke:#808080;stroke-linecap:square;stroke-width:0.43854;"/>
   </g>
   <g id="line2d_9">
    <path clip-path="url(#pb36e773946)" d="M 37.054625 110.600841 
L 36.276008 111.214134 
L 35.497391 111.827426 
L 34.450561 113.107529 
L 33.403731 114.387632 
L 32.893827 115.667735 
L 32.383923 116.947838 
L 32.11571 118.281459 
L 31.847497 119.615081 
L 31.793454 120.78887 
L 31.739412 121.962659 
L 32.599093 123.508908 
L 34.20937 124.522865 
L 35.873689 125.429786 
L 36.73287 126.683129 
L 37.592051 127.936473 
" style="fill:none;stroke:#4169e1;stroke-linecap:square;stroke-width:0.43854;"/>
   </g>
   <g id="line2d_10">
    <path clip-path="url(#pb36e773946)" d="M 40.336227 102.688793 
L 39.60815 103.870537 
L 38.880072 105.052282 
L 38.236062 106.226071 
L 37.592051 107.399861 
L 37.323338 109.000351 
L 37.054625 110.600841 
L 37.162211 111.747148 
L 37.269796 112.893455 
L 37.430924 113.934172 
L 37.592051 114.974888 
L 37.752679 116.468342 
L 37.913306 117.961795 
L 37.913306 118.962011 
L 37.913306 119.962227 
L 37.913306 120.962443 
L 37.913306 121.962659 
L 37.859764 122.975893 
L 37.806221 123.989127 
L 37.752679 125.002361 
L 37.699136 126.015596 
L 37.592051 127.936473 
L 37.967849 128.949707 
L 38.343647 129.962941 
L 39.095243 131.083212 
L 39.846839 132.203483 
L 40.598435 133.110404 
L 41.35003 134.017324 
L 42.557988 135.243908 
L 43.765946 136.470493 
" style="fill:none;stroke:#4169e1;stroke-linecap:square;stroke-width:0.43854;"/>
   </g>
   <g id="line2d_11">
    <path clip-path="url(#pb36e773946)" d="M 61.697161 68.353104 
L 61.200517 69.446616 
L 60.703873 70.540127 
L 60.20723 71.633639 
L 59.710586 72.727151 
L 59.321277 73.700608 
L 58.931969 74.674065 
L 58.54266 75.647521 
L 58.153351 76.620978 
L 57.858117 77.901804 
L 57.562883 79.182631 
L 57.187586 80.675361 
L 56.757245 81.796355 
L 55.791479 82.755347 
L 54.824713 83.503159 
L 54.181202 84.463598 
L 53.536691 85.797219 
" style="fill:none;stroke:#008000;stroke-linecap:square;stroke-width:0.43854;"/>
   </g>
   <g id="line2d_12">
    <path clip-path="url(#pb36e773946)" d="M 73.883822 63.498838 
L 72.568529 63.738948 
L 71.253236 63.979057 
L 69.937944 64.219167 
L 68.622651 64.459277 
L 67.280587 65.019051 
L 65.938523 65.578824 
L 64.488373 66.6463 
L 63.253394 67.553221 
L 61.697161 68.353104 
" style="fill:none;stroke:#008000;stroke-linecap:square;stroke-width:0.43854;"/>
   </g>
   <g id="line2d_13">
    <path clip-path="url(#pb36e773946)" d="M 52.355755 112.254127 
L 53.349043 113.134288 
L 54.34233 114.014449 
L 55.173989 114.547464 
L 56.005649 115.080479 
L 57.0795 115.587457 
L 58.153351 116.094436 
L 59.200181 116.707728 
L 60.247011 117.32102 
L 61.186756 118.01459 
L 62.126501 118.70816 
L 62.878097 119.508044 
L 63.629693 120.307927 
L 64.354267 121.214848 
L 65.078842 122.121768 
L 65.696331 122.895616 
L 66.313821 123.669463 
L 67.655885 124.735493 
L 69.159076 125.522358 
L 70.662268 126.309224 
" style="fill:none;stroke:#008000;stroke-linecap:square;stroke-width:0.43854;"/>
   </g>
   <g id="line2d_14">
    <path clip-path="url(#pb36e773946)" d="M 53.536691 85.797219 
L 53.187415 87.023804 
L 53.039798 88.41022 
L 52.892181 89.796637 
L 52.804861 90.936796 
L 52.717542 92.076956 
L 52.630223 93.217115 
L 52.542904 94.357275 
L 52.496117 95.750924 
L 52.449329 97.144573 
L 52.402542 98.538221 
L 52.355755 99.93187 
L 52.409298 101.532361 
L 52.46284 103.132851 
L 52.476351 104.466472 
L 52.489862 105.800094 
L 52.503372 107.133715 
L 52.516883 108.467337 
L 52.436319 110.360732 
L 52.355755 112.254127 
L 52.328734 113.880653 
L 52.301712 115.50718 
L 52.180867 116.520775 
L 52.060021 117.534371 
L 51.939175 118.547967 
L 51.818329 119.561562 
L 51.308425 121.295125 
L 50.798521 123.028689 
L 50.597111 124.495744 
L 50.395701 125.9628 
L 50.194292 127.429856 
L 49.992882 128.896912 
L 49.912318 130.310088 
L 49.831754 131.723264 
L 49.912318 133.163199 
L 49.992882 134.603134 
L 49.966361 135.909996 
L 49.93984 137.216858 
L 49.564042 138.123779 
L 49.188244 139.030699 
L 48.597276 139.830583 
L 48.006307 140.630466 
L 46.772329 142.124643 
L 45.75152 143.563855 
L 45.161052 144.470775 
L 44.570584 145.911433 
" style="fill:none;stroke:#008000;stroke-linecap:square;stroke-width:0.43854;"/>
   </g>
   <g id="line2d_15">
    <path clip-path="url(#pb36e773946)" d="M 62.878097 33.571911 
L 62.878097 35.19916 
L 62.635905 37.092556 
L 62.233586 38.826842 
L 61.951863 39.947113 
L 61.670139 41.067384 
L 61.455469 42.080618 
L 61.240799 43.093852 
L 61.066161 44.227864 
L 60.891522 45.361876 
L 60.703623 46.508725 
L 60.515724 47.655575 
L 60.327825 48.802424 
L 60.139926 49.949273 
L 59.952027 51.096123 
L 59.764128 52.242972 
L 59.576229 53.389821 
L 59.38833 54.536671 
L 59.603001 56.217439 
L 59.817671 57.898207 
L 60.354596 59.764843 
L 60.891522 61.631479 
L 61.186756 62.832027 
L 61.48199 64.032576 
L 61.643118 65.04581 
L 61.804246 66.059044 
L 61.750703 67.206074 
L 61.697161 68.353104 
" style="fill:none;stroke:#000000;stroke-linecap:square;stroke-width:0.43854;"/>
   </g>
   <g id="line2d_16">
    <path clip-path="url(#pb36e773946)" d="M 70.662268 126.309224 
L 70.528162 127.415753 
L 70.394055 128.522283 
L 69.937693 129.563 
L 69.481332 130.603716 
L 69.186098 131.563432 
L 68.890864 132.523147 
L 68.863842 133.5899 
L 68.836821 134.656652 
L 68.997948 135.963514 
L 69.159076 137.270377 
L 69.105534 138.496961 
L 69.051991 139.723546 
L 68.676193 140.683984 
L 68.300395 141.644423 
L 67.414693 142.764694 
L 66.528991 143.884965 
L 65.777395 144.765126 
L 65.0258 145.645288 
L 64.40831 146.631762 
L 63.790821 147.618237 
L 62.797533 148.125216 
L 61.804246 148.632194 
L 60.810958 148.711749 
L 59.817671 148.791303 
L 58.207394 148.498398 
L 56.597118 148.205493 
L 55.523266 147.752033 
L 54.449415 147.298573 
L 53.267978 146.871872 
L 52.086542 146.445171 
L 50.476265 146.338134 
L 49.456457 146.364893 
L 48.436648 146.391653 
L 46.986499 146.550762 
L 45.859605 146.657798 
L 44.570584 147.191536 
" style="fill:none;stroke:#008000;stroke-linecap:square;stroke-width:0.43854;"/>
   </g>
   <g id="line2d_17">
    <path clip-path="url(#pb36e773946)" d="M 32.54505 85.529627 
L 33.538338 86.703416 
L 34.531625 87.877206 
L 35.497891 89.157309 
L 36.464157 90.437412 
L 36.893498 91.477405 
L 37.322838 92.517398 
L 37.940327 93.744706 
L 38.557817 94.972014 
L 38.960636 96.118321 
L 39.363456 97.264627 
L 39.631668 98.972155 
L 39.899881 100.679682 
L 40.118054 101.684237 
L 40.336227 102.688793 
L 40.563532 103.737826 
L 40.790837 104.78686 
L 41.018142 105.835893 
L 41.245448 106.884927 
L 41.472753 107.93396 
L 41.700058 108.982994 
L 41.927363 110.032027 
L 42.154668 111.081061 
L 42.449902 112.654069 
L 42.745136 114.227077 
L 42.772158 115.227293 
L 42.799179 116.227509 
L 42.826201 117.227725 
L 42.853222 118.227941 
L 43.067892 119.934745 
L 43.282562 121.641549 
L 43.684881 123.268798 
L 44.0872 124.896048 
L 44.463499 126.761961 
L 44.463499 127.989268 
L 44.463499 129.216576 
L 43.927073 130.869862 
L 43.886791 132.27002 
L 43.84651 133.670177 
L 43.806228 135.070335 
L 43.765946 136.470493 
L 43.497483 137.630541 
L 43.22902 138.790589 
L 42.960557 139.950637 
L 42.692094 141.110685 
L 42.450403 142.444307 
L 42.208711 143.777928 
L 42.155169 144.817922 
L 42.101626 145.857915 
L 42.101626 147.351368 
L 42.101626 148.844822 
L 42.369839 149.912297 
" style="fill:none;stroke:#008000;stroke-linecap:square;stroke-width:0.43854;"/>
   </g>
   <g id="line2d_18">
    <path clip-path="url(#pb36e773946)" d="M 44.463499 72.994743 
L 44.27535 74.007977 
L 44.0872 75.021211 
L 43.818988 76.114723 
L 43.550775 77.208234 
L 43.174977 78.888279 
L 42.799179 80.568324 
L 42.530716 81.755493 
L 42.262254 82.942662 
L 41.993791 84.129831 
L 41.725328 85.317 
L 41.215424 86.276715 
L 40.70552 87.236431 
L 39.685211 88.756644 
L 38.664902 90.276856 
L 37.99387 91.397127 
L 37.322838 92.517398 
" style="fill:none;stroke:#008000;stroke-linecap:square;stroke-width:0.43854;"/>
   </g>
   <g id="line2d_19">
    <path clip-path="url(#pb36e773946)" d="M 56.488031 32.975976 
L 56.193798 34.29224 
L 56.046181 35.265697 
L 55.898564 36.239154 
L 55.952106 37.679812 
L 56.005649 39.12047 
L 55.683643 40.160825 
L 55.361638 41.20118 
L 55.039633 42.241535 
L 54.717628 43.28189 
L 54.153681 44.588752 
L 53.589734 45.895614 
L 52.999265 47.335549 
L 52.408797 48.775484 
L 52.167606 50.082346 
L 51.926415 51.389208 
L 51.711244 53.043217 
L 51.496074 54.697226 
L 51.308425 55.92381 
L 51.120776 57.150395 
L 50.892595 58.124213 
L 50.664414 59.098032 
L 50.436234 60.07185 
L 50.208053 61.045669 
L 49.537021 62.592641 
L 48.865989 64.139613 
L 48.087372 65.392956 
L 47.308754 66.6463 
L 46.691265 67.766571 
L 46.073775 68.886842 
L 45.402743 70.300741 
L 44.731711 71.71464 
L 44.463499 72.994743 
" style="fill:none;stroke:#000000;stroke-linecap:square;stroke-width:0.43854;"/>
   </g>
   <g id="line2d_20">
    <path clip-path="url(#pb36e773946)" d="M 40.946711 70.80772 
L 40.329221 71.393529 
L 39.524083 72.460282 
L 38.718945 73.527034 
L 38.074934 74.567751 
L 37.430924 75.608467 
L 36.893998 76.621701 
L 36.357072 77.634935 
L 35.994535 78.595013 
L 35.631997 79.55509 
L 35.26946 80.515167 
L 34.906923 81.475244 
L 34.531125 82.649034 
L 34.155327 83.822823 
L 33.350689 84.995889 
L 32.54505 85.529627 
L 31.364114 86.009846 
" style="fill:none;stroke:#008000;stroke-linecap:square;stroke-width:0.43854;"/>
   </g>
   <g id="line2d_21">
    <path clip-path="url(#pb36e773946)" d="M 37.403902 31.972144 
L 37.182477 33.42582 
L 36.961051 34.879496 
L 36.739626 36.333172 
L 36.5182 37.786849 
L 36.048327 38.933879 
L 35.578455 40.080909 
L 35.108583 41.227939 
L 34.63871 42.374969 
L 34.048242 43.521638 
L 33.457774 44.668306 
L 32.867306 45.814975 
L 32.276838 46.961643 
L 31.578784 48.482579 
L 30.880731 50.003515 
L 30.316784 51.630041 
L 29.752837 53.256568 
L 29.242932 54.150108 
L 28.733028 55.043649 
L 28.223124 55.93719 
L 27.71322 56.830731 
" style="fill:none;stroke:#000000;stroke-linecap:square;stroke-width:0.43854;"/>
   </g>
   <g id="line2d_22">
    <path clip-path="url(#pb36e773946)" d="M 31.68637 28.904236 
L 30.317284 29.637583 
L 28.948199 30.37093 
L 28.062246 30.931066 
L 27.176294 31.491201 
L 26.290342 32.051337 
L 25.404389 32.611472 
L 24.115868 33.945093 
L 22.827346 35.278715 
L 21.780517 36.772891 
L 20.733687 38.267068 
L 20.143219 39.307061 
L 19.552751 40.347055 
L 18.425857 41.841231 
L 18.103602 42.267932 
" style="fill:none;stroke:#000000;stroke-linecap:square;stroke-width:0.43854;"/>
   </g>
   <g id="line2d_23">
    <path clip-path="url(#pb36e773946)" d="M 15.633644 15.86165 
L 15.016154 16.981921 
L 14.398665 18.102192 
L 13.405377 19.222463 
L 12.41209 20.342734 
L 11.231154 21.409486 
L 10.050217 22.476239 
L 9.003387 23.56975 
L 7.956558 24.663262 
L 6.96327 26.317271 
L 5.969983 27.97128 
L 5.137823 29.224623 
L 4.305663 30.477967 
" style="fill:none;stroke:#4169e1;stroke-linecap:square;stroke-width:0.43854;"/>
   </g>
   <g id="line2d_24">
    <path clip-path="url(#pb36e773946)" d="M 88.915738 55.338001 
L 89.506707 56.377994 
L 90.097675 57.417987 
L 90.20476 58.751609 
L 90.311845 60.08523 
L 90.365388 61.658961 
L 90.41893 63.232692 
L 90.284824 64.272685 
L 90.150717 65.312679 
L 90.016611 66.352672 
L 89.882505 67.392665 
L 89.815452 68.473159 
L 89.748399 69.553653 
L 89.681345 70.634146 
L 89.614292 71.71464 
L 89.560249 73.367926 
L 89.506207 75.021211 
L 89.506207 76.354832 
L 89.25801 77.355049 
L 89.009813 78.355265 
L 88.761616 79.355481 
L 88.513419 80.355697 
L 88.265223 81.355913 
L 88.017026 82.356129 
L 87.768829 83.356345 
L 87.520632 84.356561 
L 86.822579 85.370157 
L 86.124526 86.383752 
L 85.426472 87.397348 
L 84.728419 88.410944 
L 83.574004 89.877638 
L 82.419589 91.344332 
L 81.695014 92.117456 
L 80.97044 92.890581 
L 80.111259 93.717947 
L 79.252077 94.545313 
" style="fill:none;stroke:#4169e1;stroke-linecap:square;stroke-width:0.43854;"/>
   </g>
   <g id="line2d_25">
    <path clip-path="url(#pb36e773946)" d="M 73.883822 66.485745 
L 72.850252 67.28599 
L 71.816683 68.086235 
L 70.783114 68.88648 
L 69.749544 69.686725 
L 68.890864 70.993588 
L 68.032183 72.30045 
L 67.709927 73.474239 
L 67.387672 74.648029 
L 67.441214 76.008409 
L 67.494757 77.36879 
L 67.709427 78.702411 
L 67.924097 80.036033 
L 67.951119 81.6358 
L 67.97814 83.235567 
L 67.871055 84.276283 
L 67.76397 85.317 
L 68.059204 86.970285 
L 68.354438 88.623571 
L 68.528827 89.663926 
L 68.703215 90.704281 
L 68.877603 91.744635 
L 69.051991 92.78499 
L 69.937693 94.011575 
L 70.823396 95.238159 
L 71.413864 96.732336 
L 71.467907 97.958921 
L 71.736119 99.878352 
" style="fill:none;stroke:#008000;stroke-linecap:square;stroke-width:0.43854;"/>
   </g>
   <g id="line2d_26">
    <path clip-path="url(#pb36e773946)" d="M 88.915738 55.338001 
L 87.734802 56.324475 
L 86.553866 57.31095 
L 85.399451 57.764411 
L 84.245036 58.217871 
L 83.064099 58.9382 
L 81.883163 59.658529 
L 80.218844 60.32534 
L 78.554525 60.99215 
L 77.467663 61.298797 
L 76.024519 61.705247 
L 74.581375 62.111698 
L 73.883822 63.498838 
L 73.883822 64.992291 
L 73.883822 66.485745 
L 73.964386 67.552859 
L 74.04495 68.619973 
L 74.125513 69.687087 
L 74.206077 70.754201 
L 74.420747 71.927629 
L 74.635418 73.101057 
L 74.850088 74.274484 
L 75.064758 75.447912 
L 75.359992 76.648099 
L 75.655226 77.848286 
L 75.95046 79.048473 
L 76.245694 80.24866 
L 76.78262 82.008982 
L 77.319545 83.769305 
L 77.856471 85.476109 
L 78.393397 87.182913 
L 78.635088 88.169749 
L 78.87678 89.156585 
L 79.118472 90.143422 
L 79.360163 91.130258 
L 79.30612 92.837785 
L 79.252077 94.545313 
L 78.983865 95.825416 
L 78.715652 97.105519 
L 78.125184 97.958921 
L 77.534716 98.812323 
L 76.192652 99.079191 
L 74.850588 99.34606 
L 73.293354 99.612206 
L 71.736119 99.878352 
L 70.340513 100.198739 
L 68.944906 100.519127 
L 68.354438 101.31901 
L 67.76397 102.118894 
L 68.032183 103.185646 
L 68.300395 104.252399 
L 68.998449 105.58602 
L 69.696502 106.919641 
L 70.28697 108.466613 
L 70.877438 110.013585 
L 71.038566 111.400725 
L 71.199694 112.787865 
L 70.877438 113.74758 
L 70.555183 114.707296 
L 69.481332 116.094436 
L 68.515566 117.694203 
L 68.622651 119.134861 
L 68.729736 120.57552 
L 69.427789 122.228805 
L 70.125843 123.882091 
L 70.394055 125.095657 
L 70.662268 126.309224 
" style="fill:none;stroke:#4169e1;stroke-linecap:square;stroke-width:0.43854;"/>
   </g>
   <g id="text_1">
    <g id="patch_2">
     <path d="M 32.681042 77.455621 
L 33.000295 76.860182 
L 31.259147 75.926641 
L 30.939894 76.522079 
z
" style="fill:#ffffff;"/>
    </g>
    <!--   -->
    <g style="fill:#808080;" transform="translate(32.306294 77.232001)rotate(-61.801375)scale(0.02 -0.02)">
     <defs>
      <path id="DejaVuSans-20" transform="scale(0.015625)"/>
     </defs>
     <use xlink:href="#DejaVuSans-20"/>
    </g>
   </g>
   <g id="text_2">
    <g id="patch_3">
     <path d="M 51.941224 94.048148 
L 52.073556 93.38561 
L 50.136198 92.998651 
L 50.003866 93.66119 
z
" style="fill:#ffffff;"/>
    </g>
    <!--   -->
    <g style="fill:#808080;" transform="translate(51.517648 93.94315)rotate(-78.704664)scale(0.02 -0.02)">
     <use xlink:href="#DejaVuSans-20"/>
    </g>
   </g>
   <g id="text_3">
    <g id="patch_4">
     <path d="M 30.252264 128.642184 
L 35.339837 111.139414 
L 33.442731 110.587977 
L 28.355158 128.090748 
z
" style="fill:#ffffff;"/>
    </g>
    <!-- Allen's Alley 17.4° -->
    <g style="fill:#4169e1;" transform="translate(29.839235 128.5013)rotate(-73.792308)scale(0.02 -0.02)">
     <defs>
      <path d="M 2188 4044 
L 1331 1722 
L 3047 1722 
L 2188 4044 
z
M 1831 4666 
L 2547 4666 
L 4325 0 
L 3669 0 
L 3244 1197 
L 1141 1197 
L 716 0 
L 50 0 
L 1831 4666 
z
" id="DejaVuSans-41" transform="scale(0.015625)"/>
      <path d="M 603 4863 
L 1178 4863 
L 1178 0 
L 603 0 
L 603 4863 
z
" id="DejaVuSans-6c" transform="scale(0.015625)"/>
      <path d="M 3597 1894 
L 3597 1613 
L 953 1613 
Q 991 1019 1311 708 
Q 1631 397 2203 397 
Q 2534 397 2845 478 
Q 3156 559 3463 722 
L 3463 178 
Q 3153 47 2828 -22 
Q 2503 -91 2169 -91 
Q 1331 -91 842 396 
Q 353 884 353 1716 
Q 353 2575 817 3079 
Q 1281 3584 2069 3584 
Q 2775 3584 3186 3129 
Q 3597 2675 3597 1894 
z
M 3022 2063 
Q 3016 2534 2758 2815 
Q 2500 3097 2075 3097 
Q 1594 3097 1305 2825 
Q 1016 2553 972 2059 
L 3022 2063 
z
" id="DejaVuSans-65" transform="scale(0.015625)"/>
      <path d="M 3513 2113 
L 3513 0 
L 2938 0 
L 2938 2094 
Q 2938 2591 2744 2837 
Q 2550 3084 2163 3084 
Q 1697 3084 1428 2787 
Q 1159 2491 1159 1978 
L 1159 0 
L 581 0 
L 581 3500 
L 1159 3500 
L 1159 2956 
Q 1366 3272 1645 3428 
Q 1925 3584 2291 3584 
Q 2894 3584 3203 3211 
Q 3513 2838 3513 2113 
z
" id="DejaVuSans-6e" transform="scale(0.015625)"/>
      <path d="M 1147 4666 
L 1147 2931 
L 616 2931 
L 616 4666 
L 1147 4666 
z
" id="DejaVuSans-27" transform="scale(0.015625)"/>
      <path d="M 2834 3397 
L 2834 2853 
Q 2591 2978 2328 3040 
Q 2066 3103 1784 3103 
Q 1356 3103 1142 2972 
Q 928 2841 928 2578 
Q 928 2378 1081 2264 
Q 1234 2150 1697 2047 
L 1894 2003 
Q 2506 1872 2764 1633 
Q 3022 1394 3022 966 
Q 3022 478 2636 193 
Q 2250 -91 1575 -91 
Q 1294 -91 989 -36 
Q 684 19 347 128 
L 347 722 
Q 666 556 975 473 
Q 1284 391 1588 391 
Q 1994 391 2212 530 
Q 2431 669 2431 922 
Q 2431 1156 2273 1281 
Q 2116 1406 1581 1522 
L 1381 1569 
Q 847 1681 609 1914 
Q 372 2147 372 2553 
Q 372 3047 722 3315 
Q 1072 3584 1716 3584 
Q 2034 3584 2315 3537 
Q 2597 3491 2834 3397 
z
" id="DejaVuSans-73" transform="scale(0.015625)"/>
      <path d="M 2059 -325 
Q 1816 -950 1584 -1140 
Q 1353 -1331 966 -1331 
L 506 -1331 
L 506 -850 
L 844 -850 
Q 1081 -850 1212 -737 
Q 1344 -625 1503 -206 
L 1606 56 
L 191 3500 
L 800 3500 
L 1894 763 
L 2988 3500 
L 3597 3500 
L 2059 -325 
z
" id="DejaVuSans-79" transform="scale(0.015625)"/>
      <path d="M 794 531 
L 1825 531 
L 1825 4091 
L 703 3866 
L 703 4441 
L 1819 4666 
L 2450 4666 
L 2450 531 
L 3481 531 
L 3481 0 
L 794 0 
L 794 531 
z
" id="DejaVuSans-31" transform="scale(0.015625)"/>
      <path d="M 525 4666 
L 3525 4666 
L 3525 4397 
L 1831 0 
L 1172 0 
L 2766 4134 
L 525 4134 
L 525 4666 
z
" id="DejaVuSans-37" transform="scale(0.015625)"/>
      <path d="M 684 794 
L 1344 794 
L 1344 0 
L 684 0 
L 684 794 
z
" id="DejaVuSans-2e" transform="scale(0.015625)"/>
      <path d="M 2419 4116 
L 825 1625 
L 2419 1625 
L 2419 4116 
z
M 2253 4666 
L 3047 4666 
L 3047 1625 
L 3713 1625 
L 3713 1100 
L 3047 1100 
L 3047 0 
L 2419 0 
L 2419 1100 
L 313 1100 
L 313 1709 
L 2253 4666 
z
" id="DejaVuSans-34" transform="scale(0.015625)"/>
      <path d="M 1600 4347 
Q 1350 4347 1178 4173 
Q 1006 4000 1006 3750 
Q 1006 3503 1178 3333 
Q 1350 3163 1600 3163 
Q 1850 3163 2022 3333 
Q 2194 3503 2194 3750 
Q 2194 3997 2020 4172 
Q 1847 4347 1600 4347 
z
M 1600 4750 
Q 1800 4750 1984 4673 
Q 2169 4597 2303 4453 
Q 2447 4313 2519 4134 
Q 2591 3956 2591 3750 
Q 2591 3338 2302 3052 
Q 2013 2766 1594 2766 
Q 1172 2766 890 3047 
Q 609 3328 609 3750 
Q 609 4169 896 4459 
Q 1184 4750 1600 4750 
z
" id="DejaVuSans-b0" transform="scale(0.015625)"/>
     </defs>
     <use xlink:href="#DejaVuSans-41"/>
     <use x="68.408203" xlink:href="#DejaVuSans-6c"/>
     <use x="96.191406" xlink:href="#DejaVuSans-6c"/>
     <use x="123.974609" xlink:href="#DejaVuSans-65"/>
     <use x="185.498047" xlink:href="#DejaVuSans-6e"/>
     <use x="248.876953" xlink:href="#DejaVuSans-27"/>
     <use x="276.367188" xlink:href="#DejaVuSans-73"/>
     <use x="328.466797" xlink:href="#DejaVuSans-20"/>
     <use x="360.253906" xlink:href="#DejaVuSans-41"/>
     <use x="428.662109" xlink:href="#DejaVuSans-6c"/>
     <use x="456.445312" xlink:href="#DejaVuSans-6c"/>
     <use x="484.228516" xlink:href="#DejaVuSans-65"/>
     <use x="545.751953" xlink:href="#DejaVuSans-79"/>
     <use x="604.931641" xlink:href="#DejaVuSans-20"/>
     <use x="636.71875" xlink:href="#DejaVuSans-31"/>
     <use x="700.341797" xlink:href="#DejaVuSans-37"/>
     <use x="763.964844" xlink:href="#DejaVuSans-2e"/>
     <use x="795.751953" xlink:href="#DejaVuSans-34"/>
     <use x="859.375" xlink:href="#DejaVuSans-b0"/>
    </g>
   </g>
   <g id="text_4">
    <g id="patch_5">
     <path d="M 38.901118 127.941386 
L 38.901118 109.982636 
L 36.925493 109.982636 
L 36.925493 127.941386 
z
" style="fill:#ffffff;"/>
    </g>
    <!-- Piker's Peak 17.5° -->
    <g style="fill:#4169e1;" transform="translate(38.465181 127.921386)rotate(-90)scale(0.02 -0.02)">
     <defs>
      <path d="M 1259 4147 
L 1259 2394 
L 2053 2394 
Q 2494 2394 2734 2622 
Q 2975 2850 2975 3272 
Q 2975 3691 2734 3919 
Q 2494 4147 2053 4147 
L 1259 4147 
z
M 628 4666 
L 2053 4666 
Q 2838 4666 3239 4311 
Q 3641 3956 3641 3272 
Q 3641 2581 3239 2228 
Q 2838 1875 2053 1875 
L 1259 1875 
L 1259 0 
L 628 0 
L 628 4666 
z
" id="DejaVuSans-50" transform="scale(0.015625)"/>
      <path d="M 603 3500 
L 1178 3500 
L 1178 0 
L 603 0 
L 603 3500 
z
M 603 4863 
L 1178 4863 
L 1178 4134 
L 603 4134 
L 603 4863 
z
" id="DejaVuSans-69" transform="scale(0.015625)"/>
      <path d="M 581 4863 
L 1159 4863 
L 1159 1991 
L 2875 3500 
L 3609 3500 
L 1753 1863 
L 3688 0 
L 2938 0 
L 1159 1709 
L 1159 0 
L 581 0 
L 581 4863 
z
" id="DejaVuSans-6b" transform="scale(0.015625)"/>
      <path d="M 2631 2963 
Q 2534 3019 2420 3045 
Q 2306 3072 2169 3072 
Q 1681 3072 1420 2755 
Q 1159 2438 1159 1844 
L 1159 0 
L 581 0 
L 581 3500 
L 1159 3500 
L 1159 2956 
Q 1341 3275 1631 3429 
Q 1922 3584 2338 3584 
Q 2397 3584 2469 3576 
Q 2541 3569 2628 3553 
L 2631 2963 
z
" id="DejaVuSans-72" transform="scale(0.015625)"/>
      <path d="M 2194 1759 
Q 1497 1759 1228 1600 
Q 959 1441 959 1056 
Q 959 750 1161 570 
Q 1363 391 1709 391 
Q 2188 391 2477 730 
Q 2766 1069 2766 1631 
L 2766 1759 
L 2194 1759 
z
M 3341 1997 
L 3341 0 
L 2766 0 
L 2766 531 
Q 2569 213 2275 61 
Q 1981 -91 1556 -91 
Q 1019 -91 701 211 
Q 384 513 384 1019 
Q 384 1609 779 1909 
Q 1175 2209 1959 2209 
L 2766 2209 
L 2766 2266 
Q 2766 2663 2505 2880 
Q 2244 3097 1772 3097 
Q 1472 3097 1187 3025 
Q 903 2953 641 2809 
L 641 3341 
Q 956 3463 1253 3523 
Q 1550 3584 1831 3584 
Q 2591 3584 2966 3190 
Q 3341 2797 3341 1997 
z
" id="DejaVuSans-61" transform="scale(0.015625)"/>
      <path d="M 691 4666 
L 3169 4666 
L 3169 4134 
L 1269 4134 
L 1269 2991 
Q 1406 3038 1543 3061 
Q 1681 3084 1819 3084 
Q 2600 3084 3056 2656 
Q 3513 2228 3513 1497 
Q 3513 744 3044 326 
Q 2575 -91 1722 -91 
Q 1428 -91 1123 -41 
Q 819 9 494 109 
L 494 744 
Q 775 591 1075 516 
Q 1375 441 1709 441 
Q 2250 441 2565 725 
Q 2881 1009 2881 1497 
Q 2881 1984 2565 2268 
Q 2250 2553 1709 2553 
Q 1456 2553 1204 2497 
Q 953 2441 691 2322 
L 691 4666 
z
" id="DejaVuSans-35" transform="scale(0.015625)"/>
     </defs>
     <use xlink:href="#DejaVuSans-50"/>
     <use x="58.052734" xlink:href="#DejaVuSans-69"/>
     <use x="85.835938" xlink:href="#DejaVuSans-6b"/>
     <use x="140.121094" xlink:href="#DejaVuSans-65"/>
     <use x="201.644531" xlink:href="#DejaVuSans-72"/>
     <use x="242.757812" xlink:href="#DejaVuSans-27"/>
     <use x="270.248047" xlink:href="#DejaVuSans-73"/>
     <use x="322.347656" xlink:href="#DejaVuSans-20"/>
     <use x="354.134766" xlink:href="#DejaVuSans-50"/>
     <use x="410.8125" xlink:href="#DejaVuSans-65"/>
     <use x="472.335938" xlink:href="#DejaVuSans-61"/>
     <use x="533.615234" xlink:href="#DejaVuSans-6b"/>
     <use x="591.525391" xlink:href="#DejaVuSans-20"/>
     <use x="623.3125" xlink:href="#DejaVuSans-31"/>
     <use x="686.935547" xlink:href="#DejaVuSans-37"/>
     <use x="750.558594" xlink:href="#DejaVuSans-2e"/>
     <use x="782.345703" xlink:href="#DejaVuSans-35"/>
     <use x="845.96875" xlink:href="#DejaVuSans-b0"/>
    </g>
   </g>
   <g id="text_5">
    <g id="patch_6">
     <path d="M 54.817419 84.366336 
L 63.199738 69.864278 
L 61.489284 68.87562 
L 53.106965 83.377679 
z
" style="fill:#ffffff;"/>
    </g>
    <!-- May's Way 12.4° -->
    <g style="fill:#008000;" transform="translate(54.450002 84.130865)rotate(-59.971705)scale(0.02 -0.02)">
     <defs>
      <path d="M 628 4666 
L 1569 4666 
L 2759 1491 
L 3956 4666 
L 4897 4666 
L 4897 0 
L 4281 0 
L 4281 4097 
L 3078 897 
L 2444 897 
L 1241 4097 
L 1241 0 
L 628 0 
L 628 4666 
z
" id="DejaVuSans-4d" transform="scale(0.015625)"/>
      <path d="M 213 4666 
L 850 4666 
L 1831 722 
L 2809 4666 
L 3519 4666 
L 4500 722 
L 5478 4666 
L 6119 4666 
L 4947 0 
L 4153 0 
L 3169 4050 
L 2175 0 
L 1381 0 
L 213 4666 
z
" id="DejaVuSans-57" transform="scale(0.015625)"/>
      <path d="M 1228 531 
L 3431 531 
L 3431 0 
L 469 0 
L 469 531 
Q 828 903 1448 1529 
Q 2069 2156 2228 2338 
Q 2531 2678 2651 2914 
Q 2772 3150 2772 3378 
Q 2772 3750 2511 3984 
Q 2250 4219 1831 4219 
Q 1534 4219 1204 4116 
Q 875 4013 500 3803 
L 500 4441 
Q 881 4594 1212 4672 
Q 1544 4750 1819 4750 
Q 2544 4750 2975 4387 
Q 3406 4025 3406 3419 
Q 3406 3131 3298 2873 
Q 3191 2616 2906 2266 
Q 2828 2175 2409 1742 
Q 1991 1309 1228 531 
z
" id="DejaVuSans-32" transform="scale(0.015625)"/>
     </defs>
     <use xlink:href="#DejaVuSans-4d"/>
     <use x="86.279297" xlink:href="#DejaVuSans-61"/>
     <use x="147.558594" xlink:href="#DejaVuSans-79"/>
     <use x="206.738281" xlink:href="#DejaVuSans-27"/>
     <use x="234.228516" xlink:href="#DejaVuSans-73"/>
     <use x="286.328125" xlink:href="#DejaVuSans-20"/>
     <use x="318.115234" xlink:href="#DejaVuSans-57"/>
     <use x="410.617188" xlink:href="#DejaVuSans-61"/>
     <use x="471.896484" xlink:href="#DejaVuSans-79"/>
     <use x="531.076172" xlink:href="#DejaVuSans-20"/>
     <use x="562.863281" xlink:href="#DejaVuSans-31"/>
     <use x="626.486328" xlink:href="#DejaVuSans-32"/>
     <use x="690.109375" xlink:href="#DejaVuSans-2e"/>
     <use x="721.896484" xlink:href="#DejaVuSans-34"/>
     <use x="785.519531" xlink:href="#DejaVuSans-b0"/>
    </g>
   </g>
   <g id="text_6">
    <g id="patch_7">
     <path d="M 60.17366 68.098168 
L 74.935306 63.838095 
L 74.387514 61.939933 
L 59.625868 66.200006 
z
" style="fill:#ffffff;"/>
    </g>
    <!-- Slingshot 16.3° -->
    <g style="fill:#008000;" transform="translate(60.072001 67.673778)rotate(-16.097643)scale(0.02 -0.02)">
     <defs>
      <path d="M 3425 4513 
L 3425 3897 
Q 3066 4069 2747 4153 
Q 2428 4238 2131 4238 
Q 1616 4238 1336 4038 
Q 1056 3838 1056 3469 
Q 1056 3159 1242 3001 
Q 1428 2844 1947 2747 
L 2328 2669 
Q 3034 2534 3370 2195 
Q 3706 1856 3706 1288 
Q 3706 609 3251 259 
Q 2797 -91 1919 -91 
Q 1588 -91 1214 -16 
Q 841 59 441 206 
L 441 856 
Q 825 641 1194 531 
Q 1563 422 1919 422 
Q 2459 422 2753 634 
Q 3047 847 3047 1241 
Q 3047 1584 2836 1778 
Q 2625 1972 2144 2069 
L 1759 2144 
Q 1053 2284 737 2584 
Q 422 2884 422 3419 
Q 422 4038 858 4394 
Q 1294 4750 2059 4750 
Q 2388 4750 2728 4690 
Q 3069 4631 3425 4513 
z
" id="DejaVuSans-53" transform="scale(0.015625)"/>
      <path d="M 2906 1791 
Q 2906 2416 2648 2759 
Q 2391 3103 1925 3103 
Q 1463 3103 1205 2759 
Q 947 2416 947 1791 
Q 947 1169 1205 825 
Q 1463 481 1925 481 
Q 2391 481 2648 825 
Q 2906 1169 2906 1791 
z
M 3481 434 
Q 3481 -459 3084 -895 
Q 2688 -1331 1869 -1331 
Q 1566 -1331 1297 -1286 
Q 1028 -1241 775 -1147 
L 775 -588 
Q 1028 -725 1275 -790 
Q 1522 -856 1778 -856 
Q 2344 -856 2625 -561 
Q 2906 -266 2906 331 
L 2906 616 
Q 2728 306 2450 153 
Q 2172 0 1784 0 
Q 1141 0 747 490 
Q 353 981 353 1791 
Q 353 2603 747 3093 
Q 1141 3584 1784 3584 
Q 2172 3584 2450 3431 
Q 2728 3278 2906 2969 
L 2906 3500 
L 3481 3500 
L 3481 434 
z
" id="DejaVuSans-67" transform="scale(0.015625)"/>
      <path d="M 3513 2113 
L 3513 0 
L 2938 0 
L 2938 2094 
Q 2938 2591 2744 2837 
Q 2550 3084 2163 3084 
Q 1697 3084 1428 2787 
Q 1159 2491 1159 1978 
L 1159 0 
L 581 0 
L 581 4863 
L 1159 4863 
L 1159 2956 
Q 1366 3272 1645 3428 
Q 1925 3584 2291 3584 
Q 2894 3584 3203 3211 
Q 3513 2838 3513 2113 
z
" id="DejaVuSans-68" transform="scale(0.015625)"/>
      <path d="M 1959 3097 
Q 1497 3097 1228 2736 
Q 959 2375 959 1747 
Q 959 1119 1226 758 
Q 1494 397 1959 397 
Q 2419 397 2687 759 
Q 2956 1122 2956 1747 
Q 2956 2369 2687 2733 
Q 2419 3097 1959 3097 
z
M 1959 3584 
Q 2709 3584 3137 3096 
Q 3566 2609 3566 1747 
Q 3566 888 3137 398 
Q 2709 -91 1959 -91 
Q 1206 -91 779 398 
Q 353 888 353 1747 
Q 353 2609 779 3096 
Q 1206 3584 1959 3584 
z
" id="DejaVuSans-6f" transform="scale(0.015625)"/>
      <path d="M 1172 4494 
L 1172 3500 
L 2356 3500 
L 2356 3053 
L 1172 3053 
L 1172 1153 
Q 1172 725 1289 603 
Q 1406 481 1766 481 
L 2356 481 
L 2356 0 
L 1766 0 
Q 1100 0 847 248 
Q 594 497 594 1153 
L 594 3053 
L 172 3053 
L 172 3500 
L 594 3500 
L 594 4494 
L 1172 4494 
z
" id="DejaVuSans-74" transform="scale(0.015625)"/>
      <path d="M 2113 2584 
Q 1688 2584 1439 2293 
Q 1191 2003 1191 1497 
Q 1191 994 1439 701 
Q 1688 409 2113 409 
Q 2538 409 2786 701 
Q 3034 994 3034 1497 
Q 3034 2003 2786 2293 
Q 2538 2584 2113 2584 
z
M 3366 4563 
L 3366 3988 
Q 3128 4100 2886 4159 
Q 2644 4219 2406 4219 
Q 1781 4219 1451 3797 
Q 1122 3375 1075 2522 
Q 1259 2794 1537 2939 
Q 1816 3084 2150 3084 
Q 2853 3084 3261 2657 
Q 3669 2231 3669 1497 
Q 3669 778 3244 343 
Q 2819 -91 2113 -91 
Q 1303 -91 875 529 
Q 447 1150 447 2328 
Q 447 3434 972 4092 
Q 1497 4750 2381 4750 
Q 2619 4750 2861 4703 
Q 3103 4656 3366 4563 
z
" id="DejaVuSans-36" transform="scale(0.015625)"/>
      <path d="M 2597 2516 
Q 3050 2419 3304 2112 
Q 3559 1806 3559 1356 
Q 3559 666 3084 287 
Q 2609 -91 1734 -91 
Q 1441 -91 1130 -33 
Q 819 25 488 141 
L 488 750 
Q 750 597 1062 519 
Q 1375 441 1716 441 
Q 2309 441 2620 675 
Q 2931 909 2931 1356 
Q 2931 1769 2642 2001 
Q 2353 2234 1838 2234 
L 1294 2234 
L 1294 2753 
L 1863 2753 
Q 2328 2753 2575 2939 
Q 2822 3125 2822 3475 
Q 2822 3834 2567 4026 
Q 2313 4219 1838 4219 
Q 1578 4219 1281 4162 
Q 984 4106 628 3988 
L 628 4550 
Q 988 4650 1302 4700 
Q 1616 4750 1894 4750 
Q 2613 4750 3031 4423 
Q 3450 4097 3450 3541 
Q 3450 3153 3228 2886 
Q 3006 2619 2597 2516 
z
" id="DejaVuSans-33" transform="scale(0.015625)"/>
     </defs>
     <use xlink:href="#DejaVuSans-53"/>
     <use x="63.476562" xlink:href="#DejaVuSans-6c"/>
     <use x="91.259766" xlink:href="#DejaVuSans-69"/>
     <use x="119.042969" xlink:href="#DejaVuSans-6e"/>
     <use x="182.421875" xlink:href="#DejaVuSans-67"/>
     <use x="245.898438" xlink:href="#DejaVuSans-73"/>
     <use x="297.998047" xlink:href="#DejaVuSans-68"/>
     <use x="361.376953" xlink:href="#DejaVuSans-6f"/>
     <use x="422.558594" xlink:href="#DejaVuSans-74"/>
     <use x="461.767578" xlink:href="#DejaVuSans-20"/>
     <use x="493.554688" xlink:href="#DejaVuSans-31"/>
     <use x="557.177734" xlink:href="#DejaVuSans-36"/>
     <use x="620.800781" xlink:href="#DejaVuSans-2e"/>
     <use x="652.587891" xlink:href="#DejaVuSans-33"/>
     <use x="716.210938" xlink:href="#DejaVuSans-b0"/>
    </g>
   </g>
   <g id="text_7">
    <g id="patch_8">
     <path d="M 51.564065 114.423609 
L 71.790452 124.752206 
L 72.688937 122.992712 
L 52.46255 112.664115 
z
" style="fill:#ffffff;"/>
    </g>
    <!-- Cross Over Road 13.5° -->
    <g style="fill:#008000;" transform="translate(51.780135 114.044458)rotate(-332.948888)scale(0.02 -0.02)">
     <defs>
      <path d="M 4122 4306 
L 4122 3641 
Q 3803 3938 3442 4084 
Q 3081 4231 2675 4231 
Q 1875 4231 1450 3742 
Q 1025 3253 1025 2328 
Q 1025 1406 1450 917 
Q 1875 428 2675 428 
Q 3081 428 3442 575 
Q 3803 722 4122 1019 
L 4122 359 
Q 3791 134 3420 21 
Q 3050 -91 2638 -91 
Q 1578 -91 968 557 
Q 359 1206 359 2328 
Q 359 3453 968 4101 
Q 1578 4750 2638 4750 
Q 3056 4750 3426 4639 
Q 3797 4528 4122 4306 
z
" id="DejaVuSans-43" transform="scale(0.015625)"/>
      <path d="M 2522 4238 
Q 1834 4238 1429 3725 
Q 1025 3213 1025 2328 
Q 1025 1447 1429 934 
Q 1834 422 2522 422 
Q 3209 422 3611 934 
Q 4013 1447 4013 2328 
Q 4013 3213 3611 3725 
Q 3209 4238 2522 4238 
z
M 2522 4750 
Q 3503 4750 4090 4092 
Q 4678 3434 4678 2328 
Q 4678 1225 4090 567 
Q 3503 -91 2522 -91 
Q 1538 -91 948 565 
Q 359 1222 359 2328 
Q 359 3434 948 4092 
Q 1538 4750 2522 4750 
z
" id="DejaVuSans-4f" transform="scale(0.015625)"/>
      <path d="M 191 3500 
L 800 3500 
L 1894 563 
L 2988 3500 
L 3597 3500 
L 2284 0 
L 1503 0 
L 191 3500 
z
" id="DejaVuSans-76" transform="scale(0.015625)"/>
      <path d="M 2841 2188 
Q 3044 2119 3236 1894 
Q 3428 1669 3622 1275 
L 4263 0 
L 3584 0 
L 2988 1197 
Q 2756 1666 2539 1819 
Q 2322 1972 1947 1972 
L 1259 1972 
L 1259 0 
L 628 0 
L 628 4666 
L 2053 4666 
Q 2853 4666 3247 4331 
Q 3641 3997 3641 3322 
Q 3641 2881 3436 2590 
Q 3231 2300 2841 2188 
z
M 1259 4147 
L 1259 2491 
L 2053 2491 
Q 2509 2491 2742 2702 
Q 2975 2913 2975 3322 
Q 2975 3731 2742 3939 
Q 2509 4147 2053 4147 
L 1259 4147 
z
" id="DejaVuSans-52" transform="scale(0.015625)"/>
      <path d="M 2906 2969 
L 2906 4863 
L 3481 4863 
L 3481 0 
L 2906 0 
L 2906 525 
Q 2725 213 2448 61 
Q 2172 -91 1784 -91 
Q 1150 -91 751 415 
Q 353 922 353 1747 
Q 353 2572 751 3078 
Q 1150 3584 1784 3584 
Q 2172 3584 2448 3432 
Q 2725 3281 2906 2969 
z
M 947 1747 
Q 947 1113 1208 752 
Q 1469 391 1925 391 
Q 2381 391 2643 752 
Q 2906 1113 2906 1747 
Q 2906 2381 2643 2742 
Q 2381 3103 1925 3103 
Q 1469 3103 1208 2742 
Q 947 2381 947 1747 
z
" id="DejaVuSans-64" transform="scale(0.015625)"/>
     </defs>
     <use xlink:href="#DejaVuSans-43"/>
     <use x="69.824219" xlink:href="#DejaVuSans-72"/>
     <use x="108.6875" xlink:href="#DejaVuSans-6f"/>
     <use x="169.869141" xlink:href="#DejaVuSans-73"/>
     <use x="221.96875" xlink:href="#DejaVuSans-73"/>
     <use x="274.068359" xlink:href="#DejaVuSans-20"/>
     <use x="305.855469" xlink:href="#DejaVuSans-4f"/>
     <use x="384.566406" xlink:href="#DejaVuSans-76"/>
     <use x="443.746094" xlink:href="#DejaVuSans-65"/>
     <use x="505.269531" xlink:href="#DejaVuSans-72"/>
     <use x="546.382812" xlink:href="#DejaVuSans-20"/>
     <use x="578.169922" xlink:href="#DejaVuSans-52"/>
     <use x="643.152344" xlink:href="#DejaVuSans-6f"/>
     <use x="704.333984" xlink:href="#DejaVuSans-61"/>
     <use x="765.613281" xlink:href="#DejaVuSans-64"/>
     <use x="829.089844" xlink:href="#DejaVuSans-20"/>
     <use x="860.876953" xlink:href="#DejaVuSans-31"/>
     <use x="924.5" xlink:href="#DejaVuSans-33"/>
     <use x="988.123047" xlink:href="#DejaVuSans-2e"/>
     <use x="1019.910156" xlink:href="#DejaVuSans-35"/>
     <use x="1083.533203" xlink:href="#DejaVuSans-b0"/>
    </g>
   </g>
   <g id="text_8">
    <g id="patch_9">
     <path d="M 52.971741 107.619038 
L 53.713073 92.34045 
L 51.73977 92.244703 
L 50.998437 107.523291 
z
" style="fill:#ffffff;"/>
    </g>
    <!-- Sunshine 15.0° -->
    <g style="fill:#008000;" transform="translate(52.537285 107.577934)rotate(-87.222129)scale(0.02 -0.02)">
     <defs>
      <path d="M 544 1381 
L 544 3500 
L 1119 3500 
L 1119 1403 
Q 1119 906 1312 657 
Q 1506 409 1894 409 
Q 2359 409 2629 706 
Q 2900 1003 2900 1516 
L 2900 3500 
L 3475 3500 
L 3475 0 
L 2900 0 
L 2900 538 
Q 2691 219 2414 64 
Q 2138 -91 1772 -91 
Q 1169 -91 856 284 
Q 544 659 544 1381 
z
M 1991 3584 
L 1991 3584 
z
" id="DejaVuSans-75" transform="scale(0.015625)"/>
      <path d="M 2034 4250 
Q 1547 4250 1301 3770 
Q 1056 3291 1056 2328 
Q 1056 1369 1301 889 
Q 1547 409 2034 409 
Q 2525 409 2770 889 
Q 3016 1369 3016 2328 
Q 3016 3291 2770 3770 
Q 2525 4250 2034 4250 
z
M 2034 4750 
Q 2819 4750 3233 4129 
Q 3647 3509 3647 2328 
Q 3647 1150 3233 529 
Q 2819 -91 2034 -91 
Q 1250 -91 836 529 
Q 422 1150 422 2328 
Q 422 3509 836 4129 
Q 1250 4750 2034 4750 
z
" id="DejaVuSans-30" transform="scale(0.015625)"/>
     </defs>
     <use xlink:href="#DejaVuSans-53"/>
     <use x="63.476562" xlink:href="#DejaVuSans-75"/>
     <use x="126.855469" xlink:href="#DejaVuSans-6e"/>
     <use x="190.234375" xlink:href="#DejaVuSans-73"/>
     <use x="242.333984" xlink:href="#DejaVuSans-68"/>
     <use x="305.712891" xlink:href="#DejaVuSans-69"/>
     <use x="333.496094" xlink:href="#DejaVuSans-6e"/>
     <use x="396.875" xlink:href="#DejaVuSans-65"/>
     <use x="458.398438" xlink:href="#DejaVuSans-20"/>
     <use x="490.185547" xlink:href="#DejaVuSans-31"/>
     <use x="553.808594" xlink:href="#DejaVuSans-35"/>
     <use x="617.431641" xlink:href="#DejaVuSans-2e"/>
     <use x="649.21875" xlink:href="#DejaVuSans-30"/>
     <use x="712.841797" xlink:href="#DejaVuSans-b0"/>
    </g>
   </g>
   <g id="text_9">
    <g id="patch_10">
     <path d="M 60.536308 51.155089 
L 63.524448 37.729864 
L 61.596013 37.300639 
L 58.607873 50.725864 
z
" style="fill:#ffffff;"/>
    </g>
    <!-- Cowlick 24.4° -->
    <g transform="translate(60.115129 51.040854)rotate(-77.451849)scale(0.02 -0.02)">
     <defs>
      <path d="M 269 3500 
L 844 3500 
L 1563 769 
L 2278 3500 
L 2956 3500 
L 3675 769 
L 4391 3500 
L 4966 3500 
L 4050 0 
L 3372 0 
L 2619 2869 
L 1863 0 
L 1184 0 
L 269 3500 
z
" id="DejaVuSans-77" transform="scale(0.015625)"/>
      <path d="M 3122 3366 
L 3122 2828 
Q 2878 2963 2633 3030 
Q 2388 3097 2138 3097 
Q 1578 3097 1268 2742 
Q 959 2388 959 1747 
Q 959 1106 1268 751 
Q 1578 397 2138 397 
Q 2388 397 2633 464 
Q 2878 531 3122 666 
L 3122 134 
Q 2881 22 2623 -34 
Q 2366 -91 2075 -91 
Q 1284 -91 818 406 
Q 353 903 353 1747 
Q 353 2603 823 3093 
Q 1294 3584 2113 3584 
Q 2378 3584 2631 3529 
Q 2884 3475 3122 3366 
z
" id="DejaVuSans-63" transform="scale(0.015625)"/>
     </defs>
     <use xlink:href="#DejaVuSans-43"/>
     <use x="69.824219" xlink:href="#DejaVuSans-6f"/>
     <use x="131.005859" xlink:href="#DejaVuSans-77"/>
     <use x="212.792969" xlink:href="#DejaVuSans-6c"/>
     <use x="240.576172" xlink:href="#DejaVuSans-69"/>
     <use x="268.359375" xlink:href="#DejaVuSans-63"/>
     <use x="323.339844" xlink:href="#DejaVuSans-6b"/>
     <use x="381.25" xlink:href="#DejaVuSans-20"/>
     <use x="413.037109" xlink:href="#DejaVuSans-32"/>
     <use x="476.660156" xlink:href="#DejaVuSans-34"/>
     <use x="540.283203" xlink:href="#DejaVuSans-2e"/>
     <use x="572.070312" xlink:href="#DejaVuSans-34"/>
     <use x="635.693359" xlink:href="#DejaVuSans-b0"/>
    </g>
   </g>
   <g id="text_10">
    <g id="patch_11">
     <path d="M 57.032684 153.508241 
L 77.326375 135.748395 
L 76.025298 134.261689 
L 55.731607 152.021536 
z
" style="fill:#ffffff;"/>
    </g>
    <!-- West Boundary Road 12.7° -->
    <g style="fill:#008000;" transform="translate(56.760641 153.167016)rotate(-41.190508)scale(0.02 -0.02)">
     <defs>
      <path d="M 1259 2228 
L 1259 519 
L 2272 519 
Q 2781 519 3026 730 
Q 3272 941 3272 1375 
Q 3272 1813 3026 2020 
Q 2781 2228 2272 2228 
L 1259 2228 
z
M 1259 4147 
L 1259 2741 
L 2194 2741 
Q 2656 2741 2882 2914 
Q 3109 3088 3109 3444 
Q 3109 3797 2882 3972 
Q 2656 4147 2194 4147 
L 1259 4147 
z
M 628 4666 
L 2241 4666 
Q 2963 4666 3353 4366 
Q 3744 4066 3744 3513 
Q 3744 3084 3544 2831 
Q 3344 2578 2956 2516 
Q 3422 2416 3680 2098 
Q 3938 1781 3938 1306 
Q 3938 681 3513 340 
Q 3088 0 2303 0 
L 628 0 
L 628 4666 
z
" id="DejaVuSans-42" transform="scale(0.015625)"/>
     </defs>
     <use xlink:href="#DejaVuSans-57"/>
     <use x="93.001953" xlink:href="#DejaVuSans-65"/>
     <use x="154.525391" xlink:href="#DejaVuSans-73"/>
     <use x="206.625" xlink:href="#DejaVuSans-74"/>
     <use x="245.833984" xlink:href="#DejaVuSans-20"/>
     <use x="277.621094" xlink:href="#DejaVuSans-42"/>
     <use x="346.224609" xlink:href="#DejaVuSans-6f"/>
     <use x="407.40625" xlink:href="#DejaVuSans-75"/>
     <use x="470.785156" xlink:href="#DejaVuSans-6e"/>
     <use x="534.164062" xlink:href="#DejaVuSans-64"/>
     <use x="597.640625" xlink:href="#DejaVuSans-61"/>
     <use x="658.919922" xlink:href="#DejaVuSans-72"/>
     <use x="700.033203" xlink:href="#DejaVuSans-79"/>
     <use x="759.212891" xlink:href="#DejaVuSans-20"/>
     <use x="791" xlink:href="#DejaVuSans-52"/>
     <use x="855.982422" xlink:href="#DejaVuSans-6f"/>
     <use x="917.164062" xlink:href="#DejaVuSans-61"/>
     <use x="978.443359" xlink:href="#DejaVuSans-64"/>
     <use x="1041.919922" xlink:href="#DejaVuSans-20"/>
     <use x="1073.707031" xlink:href="#DejaVuSans-31"/>
     <use x="1137.330078" xlink:href="#DejaVuSans-32"/>
     <use x="1200.953125" xlink:href="#DejaVuSans-2e"/>
     <use x="1232.740234" xlink:href="#DejaVuSans-37"/>
     <use x="1296.363281" xlink:href="#DejaVuSans-b0"/>
    </g>
   </g>
   <g id="text_11">
    <g id="patch_12">
     <path d="M 37.970737 99.410311 
L 42.180212 112.851902 
L 44.065547 112.261475 
L 39.856073 98.819885 
z
" style="fill:#ffffff;"/>
    </g>
    <!-- The Gut 13.7° -->
    <g style="fill:#008000;" transform="translate(38.392729 99.299115)rotate(-287.38888)scale(0.02 -0.02)">
     <defs>
      <path d="M -19 4666 
L 3928 4666 
L 3928 4134 
L 2272 4134 
L 2272 0 
L 1638 0 
L 1638 4134 
L -19 4134 
L -19 4666 
z
" id="DejaVuSans-54" transform="scale(0.015625)"/>
      <path d="M 3809 666 
L 3809 1919 
L 2778 1919 
L 2778 2438 
L 4434 2438 
L 4434 434 
Q 4069 175 3628 42 
Q 3188 -91 2688 -91 
Q 1594 -91 976 548 
Q 359 1188 359 2328 
Q 359 3472 976 4111 
Q 1594 4750 2688 4750 
Q 3144 4750 3555 4637 
Q 3966 4525 4313 4306 
L 4313 3634 
Q 3963 3931 3569 4081 
Q 3175 4231 2741 4231 
Q 1884 4231 1454 3753 
Q 1025 3275 1025 2328 
Q 1025 1384 1454 906 
Q 1884 428 2741 428 
Q 3075 428 3337 486 
Q 3600 544 3809 666 
z
" id="DejaVuSans-47" transform="scale(0.015625)"/>
     </defs>
     <use xlink:href="#DejaVuSans-54"/>
     <use x="61.083984" xlink:href="#DejaVuSans-68"/>
     <use x="124.462891" xlink:href="#DejaVuSans-65"/>
     <use x="185.986328" xlink:href="#DejaVuSans-20"/>
     <use x="217.773438" xlink:href="#DejaVuSans-47"/>
     <use x="295.263672" xlink:href="#DejaVuSans-75"/>
     <use x="358.642578" xlink:href="#DejaVuSans-74"/>
     <use x="397.851562" xlink:href="#DejaVuSans-20"/>
     <use x="429.638672" xlink:href="#DejaVuSans-31"/>
     <use x="493.261719" xlink:href="#DejaVuSans-33"/>
     <use x="556.884766" xlink:href="#DejaVuSans-2e"/>
     <use x="588.671875" xlink:href="#DejaVuSans-37"/>
     <use x="652.294922" xlink:href="#DejaVuSans-b0"/>
    </g>
   </g>
   <g id="text_12">
    <g id="patch_13">
     <path d="M 40.067129 92.838652 
L 46.335249 73.660426 
L 44.457378 73.046672 
L 38.189258 92.224898 
z
" style="fill:#ffffff;"/>
    </g>
    <!-- Roller Coaster 15.1° -->
    <g style="fill:#008000;" transform="translate(39.658975 92.684212)rotate(-71.900785)scale(0.02 -0.02)">
     <use xlink:href="#DejaVuSans-52"/>
     <use x="64.982422" xlink:href="#DejaVuSans-6f"/>
     <use x="126.164062" xlink:href="#DejaVuSans-6c"/>
     <use x="153.947266" xlink:href="#DejaVuSans-6c"/>
     <use x="181.730469" xlink:href="#DejaVuSans-65"/>
     <use x="243.253906" xlink:href="#DejaVuSans-72"/>
     <use x="284.367188" xlink:href="#DejaVuSans-20"/>
     <use x="316.154297" xlink:href="#DejaVuSans-43"/>
     <use x="385.978516" xlink:href="#DejaVuSans-6f"/>
     <use x="447.160156" xlink:href="#DejaVuSans-61"/>
     <use x="508.439453" xlink:href="#DejaVuSans-73"/>
     <use x="560.539062" xlink:href="#DejaVuSans-74"/>
     <use x="599.748047" xlink:href="#DejaVuSans-65"/>
     <use x="661.271484" xlink:href="#DejaVuSans-72"/>
     <use x="702.384766" xlink:href="#DejaVuSans-20"/>
     <use x="734.171875" xlink:href="#DejaVuSans-31"/>
     <use x="797.794922" xlink:href="#DejaVuSans-35"/>
     <use x="861.417969" xlink:href="#DejaVuSans-2e"/>
     <use x="893.205078" xlink:href="#DejaVuSans-31"/>
     <use x="956.828125" xlink:href="#DejaVuSans-b0"/>
    </g>
   </g>
   <g id="text_13">
    <g id="patch_14">
     <path d="M 50.914631 62.280261 
L 53.631253 49.993886 
L 51.702219 49.56736 
L 48.985597 61.853735 
z
" style="fill:#ffffff;"/>
    </g>
    <!-- Spring 25.5° -->
    <g transform="translate(50.493292 62.166616)rotate(-77.532016)scale(0.02 -0.02)">
     <defs>
      <path d="M 1159 525 
L 1159 -1331 
L 581 -1331 
L 581 3500 
L 1159 3500 
L 1159 2969 
Q 1341 3281 1617 3432 
Q 1894 3584 2278 3584 
Q 2916 3584 3314 3078 
Q 3713 2572 3713 1747 
Q 3713 922 3314 415 
Q 2916 -91 2278 -91 
Q 1894 -91 1617 61 
Q 1341 213 1159 525 
z
M 3116 1747 
Q 3116 2381 2855 2742 
Q 2594 3103 2138 3103 
Q 1681 3103 1420 2742 
Q 1159 2381 1159 1747 
Q 1159 1113 1420 752 
Q 1681 391 2138 391 
Q 2594 391 2855 752 
Q 3116 1113 3116 1747 
z
" id="DejaVuSans-70" transform="scale(0.015625)"/>
     </defs>
     <use xlink:href="#DejaVuSans-53"/>
     <use x="63.476562" xlink:href="#DejaVuSans-70"/>
     <use x="126.953125" xlink:href="#DejaVuSans-72"/>
     <use x="168.066406" xlink:href="#DejaVuSans-69"/>
     <use x="195.849609" xlink:href="#DejaVuSans-6e"/>
     <use x="259.228516" xlink:href="#DejaVuSans-67"/>
     <use x="322.705078" xlink:href="#DejaVuSans-20"/>
     <use x="354.492188" xlink:href="#DejaVuSans-32"/>
     <use x="418.115234" xlink:href="#DejaVuSans-35"/>
     <use x="481.738281" xlink:href="#DejaVuSans-2e"/>
     <use x="513.525391" xlink:href="#DejaVuSans-35"/>
     <use x="577.148438" xlink:href="#DejaVuSans-b0"/>
    </g>
   </g>
   <g id="text_14">
    <g id="patch_15">
     <path d="M 32.958772 86.219414 
L 40.764465 71.917056 
L 39.030298 70.970612 
L 31.224604 85.27297 
z
" style="fill:#ffffff;"/>
    </g>
    <!-- Bunny Hill 12.8° -->
    <g style="fill:#008000;" transform="translate(32.585695 85.993017)rotate(-61.375934)scale(0.02 -0.02)">
     <defs>
      <path d="M 628 4666 
L 1259 4666 
L 1259 2753 
L 3553 2753 
L 3553 4666 
L 4184 4666 
L 4184 0 
L 3553 0 
L 3553 2222 
L 1259 2222 
L 1259 0 
L 628 0 
L 628 4666 
z
" id="DejaVuSans-48" transform="scale(0.015625)"/>
      <path d="M 2034 2216 
Q 1584 2216 1326 1975 
Q 1069 1734 1069 1313 
Q 1069 891 1326 650 
Q 1584 409 2034 409 
Q 2484 409 2743 651 
Q 3003 894 3003 1313 
Q 3003 1734 2745 1975 
Q 2488 2216 2034 2216 
z
M 1403 2484 
Q 997 2584 770 2862 
Q 544 3141 544 3541 
Q 544 4100 942 4425 
Q 1341 4750 2034 4750 
Q 2731 4750 3128 4425 
Q 3525 4100 3525 3541 
Q 3525 3141 3298 2862 
Q 3072 2584 2669 2484 
Q 3125 2378 3379 2068 
Q 3634 1759 3634 1313 
Q 3634 634 3220 271 
Q 2806 -91 2034 -91 
Q 1263 -91 848 271 
Q 434 634 434 1313 
Q 434 1759 690 2068 
Q 947 2378 1403 2484 
z
M 1172 3481 
Q 1172 3119 1398 2916 
Q 1625 2713 2034 2713 
Q 2441 2713 2670 2916 
Q 2900 3119 2900 3481 
Q 2900 3844 2670 4047 
Q 2441 4250 2034 4250 
Q 1625 4250 1398 4047 
Q 1172 3844 1172 3481 
z
" id="DejaVuSans-38" transform="scale(0.015625)"/>
     </defs>
     <use xlink:href="#DejaVuSans-42"/>
     <use x="68.603516" xlink:href="#DejaVuSans-75"/>
     <use x="131.982422" xlink:href="#DejaVuSans-6e"/>
     <use x="195.361328" xlink:href="#DejaVuSans-6e"/>
     <use x="258.740234" xlink:href="#DejaVuSans-79"/>
     <use x="317.919922" xlink:href="#DejaVuSans-20"/>
     <use x="349.707031" xlink:href="#DejaVuSans-48"/>
     <use x="424.902344" xlink:href="#DejaVuSans-69"/>
     <use x="452.685547" xlink:href="#DejaVuSans-6c"/>
     <use x="480.46875" xlink:href="#DejaVuSans-6c"/>
     <use x="508.251953" xlink:href="#DejaVuSans-20"/>
     <use x="540.039062" xlink:href="#DejaVuSans-31"/>
     <use x="603.662109" xlink:href="#DejaVuSans-32"/>
     <use x="667.285156" xlink:href="#DejaVuSans-2e"/>
     <use x="699.072266" xlink:href="#DejaVuSans-38"/>
     <use x="762.695312" xlink:href="#DejaVuSans-b0"/>
    </g>
   </g>
   <g id="text_15">
    <g id="patch_16">
     <path d="M 31.070218 49.530845 
L 37.430198 40.985296 
L 35.84533 39.805767 
L 29.48535 48.351316 
z
" style="fill:#ffffff;"/>
    </g>
    <!-- Face 29.2° -->
    <g transform="translate(30.732445 49.254529)rotate(-53.341728)scale(0.02 -0.02)">
     <defs>
      <path d="M 628 4666 
L 3309 4666 
L 3309 4134 
L 1259 4134 
L 1259 2759 
L 3109 2759 
L 3109 2228 
L 1259 2228 
L 1259 0 
L 628 0 
L 628 4666 
z
" id="DejaVuSans-46" transform="scale(0.015625)"/>
      <path d="M 703 97 
L 703 672 
Q 941 559 1184 500 
Q 1428 441 1663 441 
Q 2288 441 2617 861 
Q 2947 1281 2994 2138 
Q 2813 1869 2534 1725 
Q 2256 1581 1919 1581 
Q 1219 1581 811 2004 
Q 403 2428 403 3163 
Q 403 3881 828 4315 
Q 1253 4750 1959 4750 
Q 2769 4750 3195 4129 
Q 3622 3509 3622 2328 
Q 3622 1225 3098 567 
Q 2575 -91 1691 -91 
Q 1453 -91 1209 -44 
Q 966 3 703 97 
z
M 1959 2075 
Q 2384 2075 2632 2365 
Q 2881 2656 2881 3163 
Q 2881 3666 2632 3958 
Q 2384 4250 1959 4250 
Q 1534 4250 1286 3958 
Q 1038 3666 1038 3163 
Q 1038 2656 1286 2365 
Q 1534 2075 1959 2075 
z
" id="DejaVuSans-39" transform="scale(0.015625)"/>
     </defs>
     <use xlink:href="#DejaVuSans-46"/>
     <use x="48.394531" xlink:href="#DejaVuSans-61"/>
     <use x="109.673828" xlink:href="#DejaVuSans-63"/>
     <use x="164.654297" xlink:href="#DejaVuSans-65"/>
     <use x="226.177734" xlink:href="#DejaVuSans-20"/>
     <use x="257.964844" xlink:href="#DejaVuSans-32"/>
     <use x="321.587891" xlink:href="#DejaVuSans-39"/>
     <use x="385.210938" xlink:href="#DejaVuSans-2e"/>
     <use x="416.998047" xlink:href="#DejaVuSans-32"/>
     <use x="480.621094" xlink:href="#DejaVuSans-b0"/>
    </g>
   </g>
   <g id="text_16">
    <g id="patch_17">
     <path d="M 17.403716 39.966754 
L 31.978275 29.529672 
L 30.82802 27.923432 
L 16.253461 38.360514 
z
" style="fill:#ffffff;"/>
    </g>
    <!-- Powder Puff 26.7° -->
    <g transform="translate(17.166164 39.60068)rotate(-35.607076)scale(0.02 -0.02)">
     <defs>
      <path d="M 2375 4863 
L 2375 4384 
L 1825 4384 
Q 1516 4384 1395 4259 
Q 1275 4134 1275 3809 
L 1275 3500 
L 2222 3500 
L 2222 3053 
L 1275 3053 
L 1275 0 
L 697 0 
L 697 3053 
L 147 3053 
L 147 3500 
L 697 3500 
L 697 3744 
Q 697 4328 969 4595 
Q 1241 4863 1831 4863 
L 2375 4863 
z
" id="DejaVuSans-66" transform="scale(0.015625)"/>
     </defs>
     <use xlink:href="#DejaVuSans-50"/>
     <use x="56.677734" xlink:href="#DejaVuSans-6f"/>
     <use x="117.859375" xlink:href="#DejaVuSans-77"/>
     <use x="199.646484" xlink:href="#DejaVuSans-64"/>
     <use x="263.123047" xlink:href="#DejaVuSans-65"/>
     <use x="324.646484" xlink:href="#DejaVuSans-72"/>
     <use x="365.759766" xlink:href="#DejaVuSans-20"/>
     <use x="397.546875" xlink:href="#DejaVuSans-50"/>
     <use x="456.099609" xlink:href="#DejaVuSans-75"/>
     <use x="519.478516" xlink:href="#DejaVuSans-66"/>
     <use x="554.683594" xlink:href="#DejaVuSans-66"/>
     <use x="589.888672" xlink:href="#DejaVuSans-20"/>
     <use x="621.675781" xlink:href="#DejaVuSans-32"/>
     <use x="685.298828" xlink:href="#DejaVuSans-36"/>
     <use x="748.921875" xlink:href="#DejaVuSans-2e"/>
     <use x="780.708984" xlink:href="#DejaVuSans-37"/>
     <use x="844.332031" xlink:href="#DejaVuSans-b0"/>
    </g>
   </g>
   <g id="text_17">
    <g id="patch_18">
     <path d="M 1.778027 28.811233 
L 19.369487 17.816571 
L 18.322408 16.141244 
L 0.730948 27.135906 
z
" style="fill:#ffffff;"/>
    </g>
    <!-- Granny's Knob 20.3° -->
    <g style="fill:#4169e1;" transform="translate(1.563941 28.430959)rotate(-32.005383)scale(0.02 -0.02)">
     <defs>
      <path d="M 628 4666 
L 1259 4666 
L 1259 2694 
L 3353 4666 
L 4166 4666 
L 1850 2491 
L 4331 0 
L 3500 0 
L 1259 2247 
L 1259 0 
L 628 0 
L 628 4666 
z
" id="DejaVuSans-4b" transform="scale(0.015625)"/>
      <path d="M 3116 1747 
Q 3116 2381 2855 2742 
Q 2594 3103 2138 3103 
Q 1681 3103 1420 2742 
Q 1159 2381 1159 1747 
Q 1159 1113 1420 752 
Q 1681 391 2138 391 
Q 2594 391 2855 752 
Q 3116 1113 3116 1747 
z
M 1159 2969 
Q 1341 3281 1617 3432 
Q 1894 3584 2278 3584 
Q 2916 3584 3314 3078 
Q 3713 2572 3713 1747 
Q 3713 922 3314 415 
Q 2916 -91 2278 -91 
Q 1894 -91 1617 61 
Q 1341 213 1159 525 
L 1159 0 
L 581 0 
L 581 4863 
L 1159 4863 
L 1159 2969 
z
" id="DejaVuSans-62" transform="scale(0.015625)"/>
     </defs>
     <use xlink:href="#DejaVuSans-47"/>
     <use x="77.490234" xlink:href="#DejaVuSans-72"/>
     <use x="118.603516" xlink:href="#DejaVuSans-61"/>
     <use x="179.882812" xlink:href="#DejaVuSans-6e"/>
     <use x="243.261719" xlink:href="#DejaVuSans-6e"/>
     <use x="306.640625" xlink:href="#DejaVuSans-79"/>
     <use x="365.820312" xlink:href="#DejaVuSans-27"/>
     <use x="393.310547" xlink:href="#DejaVuSans-73"/>
     <use x="445.410156" xlink:href="#DejaVuSans-20"/>
     <use x="477.197266" xlink:href="#DejaVuSans-4b"/>
     <use x="542.773438" xlink:href="#DejaVuSans-6e"/>
     <use x="606.152344" xlink:href="#DejaVuSans-6f"/>
     <use x="667.333984" xlink:href="#DejaVuSans-62"/>
     <use x="730.810547" xlink:href="#DejaVuSans-20"/>
     <use x="762.597656" xlink:href="#DejaVuSans-32"/>
     <use x="826.220703" xlink:href="#DejaVuSans-30"/>
     <use x="889.84375" xlink:href="#DejaVuSans-2e"/>
     <use x="921.630859" xlink:href="#DejaVuSans-33"/>
     <use x="985.253906" xlink:href="#DejaVuSans-b0"/>
    </g>
   </g>
   <g id="text_18">
    <g id="patch_19">
     <path d="M 90.09279 77.104428 
L 91.237627 64.340354 
L 89.269901 64.163865 
L 88.125064 76.927939 
z
" style="fill:#ffffff;"/>
    </g>
    <!-- Bonsai 23.8° -->
    <g style="fill:#4169e1;" transform="translate(89.660382 77.045564)rotate(-84.874735)scale(0.02 -0.02)">
     <use xlink:href="#DejaVuSans-42"/>
     <use x="68.603516" xlink:href="#DejaVuSans-6f"/>
     <use x="129.785156" xlink:href="#DejaVuSans-6e"/>
     <use x="193.164062" xlink:href="#DejaVuSans-73"/>
     <use x="245.263672" xlink:href="#DejaVuSans-61"/>
     <use x="306.542969" xlink:href="#DejaVuSans-69"/>
     <use x="334.326172" xlink:href="#DejaVuSans-20"/>
     <use x="366.113281" xlink:href="#DejaVuSans-32"/>
     <use x="429.736328" xlink:href="#DejaVuSans-33"/>
     <use x="493.359375" xlink:href="#DejaVuSans-2e"/>
     <use x="525.146484" xlink:href="#DejaVuSans-38"/>
     <use x="588.769531" xlink:href="#DejaVuSans-b0"/>
    </g>
   </g>
   <g id="text_19">
    <g id="patch_20">
     <path d="M 66.777215 74.517904 
L 67.204028 92.001445 
L 69.179065 91.95323 
L 68.752252 74.469689 
z
" style="fill:#ffffff;"/>
    </g>
    <!-- Clidd's Trail 16.0° -->
    <g style="fill:#008000;" transform="translate(67.213511 74.527259)rotate(-271.398444)scale(0.02 -0.02)">
     <use xlink:href="#DejaVuSans-43"/>
     <use x="69.824219" xlink:href="#DejaVuSans-6c"/>
     <use x="97.607422" xlink:href="#DejaVuSans-69"/>
     <use x="125.390625" xlink:href="#DejaVuSans-64"/>
     <use x="188.867188" xlink:href="#DejaVuSans-64"/>
     <use x="252.34375" xlink:href="#DejaVuSans-27"/>
     <use x="279.833984" xlink:href="#DejaVuSans-73"/>
     <use x="331.933594" xlink:href="#DejaVuSans-20"/>
     <use x="363.720703" xlink:href="#DejaVuSans-54"/>
     <use x="410.054688" xlink:href="#DejaVuSans-72"/>
     <use x="451.167969" xlink:href="#DejaVuSans-61"/>
     <use x="512.447266" xlink:href="#DejaVuSans-69"/>
     <use x="540.230469" xlink:href="#DejaVuSans-6c"/>
     <use x="568.013672" xlink:href="#DejaVuSans-20"/>
     <use x="599.800781" xlink:href="#DejaVuSans-31"/>
     <use x="663.423828" xlink:href="#DejaVuSans-36"/>
     <use x="727.046875" xlink:href="#DejaVuSans-2e"/>
     <use x="758.833984" xlink:href="#DejaVuSans-30"/>
     <use x="822.457031" xlink:href="#DejaVuSans-b0"/>
    </g>
   </g>
   <g id="text_20">
    <g id="patch_21">
     <path d="M 72.489677 72.263094 
L 77.549764 86.495661 
L 79.411243 85.833852 
L 74.351156 71.601284 
z
" style="fill:#ffffff;"/>
    </g>
    <!-- Easy Out 23.7° -->
    <g style="fill:#4169e1;" transform="translate(72.907127 72.135905)rotate(-289.571764)scale(0.02 -0.02)">
     <defs>
      <path d="M 628 4666 
L 3578 4666 
L 3578 4134 
L 1259 4134 
L 1259 2753 
L 3481 2753 
L 3481 2222 
L 1259 2222 
L 1259 531 
L 3634 531 
L 3634 0 
L 628 0 
L 628 4666 
z
" id="DejaVuSans-45" transform="scale(0.015625)"/>
     </defs>
     <use xlink:href="#DejaVuSans-45"/>
     <use x="63.183594" xlink:href="#DejaVuSans-61"/>
     <use x="124.462891" xlink:href="#DejaVuSans-73"/>
     <use x="176.5625" xlink:href="#DejaVuSans-79"/>
     <use x="235.742188" xlink:href="#DejaVuSans-20"/>
     <use x="267.529297" xlink:href="#DejaVuSans-4f"/>
     <use x="346.240234" xlink:href="#DejaVuSans-75"/>
     <use x="409.619141" xlink:href="#DejaVuSans-74"/>
     <use x="448.828125" xlink:href="#DejaVuSans-20"/>
     <use x="480.615234" xlink:href="#DejaVuSans-32"/>
     <use x="544.238281" xlink:href="#DejaVuSans-33"/>
     <use x="607.861328" xlink:href="#DejaVuSans-2e"/>
     <use x="639.648438" xlink:href="#DejaVuSans-37"/>
     <use x="703.271484" xlink:href="#DejaVuSans-b0"/>
    </g>
   </g>
   <g id="text_21">
    <!-- Bald Mountain -->
    <g transform="translate(25.79839 6.112253)scale(0.06 -0.06)">
     <use xlink:href="#DejaVuSans-42"/>
     <use x="68.603516" xlink:href="#DejaVuSans-61"/>
     <use x="129.882812" xlink:href="#DejaVuSans-6c"/>
     <use x="157.666016" xlink:href="#DejaVuSans-64"/>
     <use x="221.142578" xlink:href="#DejaVuSans-20"/>
     <use x="252.929688" xlink:href="#DejaVuSans-4d"/>
     <use x="339.208984" xlink:href="#DejaVuSans-6f"/>
     <use x="400.390625" xlink:href="#DejaVuSans-75"/>
     <use x="463.769531" xlink:href="#DejaVuSans-6e"/>
     <use x="527.148438" xlink:href="#DejaVuSans-74"/>
     <use x="566.357422" xlink:href="#DejaVuSans-61"/>
     <use x="627.636719" xlink:href="#DejaVuSans-69"/>
     <use x="655.419922" xlink:href="#DejaVuSans-6e"/>
    </g>
   </g>
   <g id="legend_1">
    <g id="line2d_27">
     <path d="M 5.361125 156.937768 
L 11.361125 156.937768 
" style="fill:none;stroke:#008000;stroke-linecap:square;stroke-width:0.43854;"/>
    </g>
    <g id="line2d_28"/>
    <g id="text_22">
     <!-- Easy -->
     <g transform="translate(13.761125 157.987768)scale(0.03 -0.03)">
      <use xlink:href="#DejaVuSans-45"/>
      <use x="63.183594" xlink:href="#DejaVuSans-61"/>
      <use x="124.462891" xlink:href="#DejaVuSans-73"/>
      <use x="176.5625" xlink:href="#DejaVuSans-79"/>
     </g>
    </g>
    <g id="line2d_29">
     <path d="M 5.361125 161.341206 
L 11.361125 161.341206 
" style="fill:none;stroke:#4169e1;stroke-linecap:square;stroke-width:0.43854;"/>
    </g>
    <g id="line2d_30"/>
    <g id="text_23">
     <!-- Intermediate -->
     <g transform="translate(13.761125 162.391206)scale(0.03 -0.03)">
      <defs>
       <path d="M 628 4666 
L 1259 4666 
L 1259 0 
L 628 0 
L 628 4666 
z
" id="DejaVuSans-49" transform="scale(0.015625)"/>
       <path d="M 3328 2828 
Q 3544 3216 3844 3400 
Q 4144 3584 4550 3584 
Q 5097 3584 5394 3201 
Q 5691 2819 5691 2113 
L 5691 0 
L 5113 0 
L 5113 2094 
Q 5113 2597 4934 2840 
Q 4756 3084 4391 3084 
Q 3944 3084 3684 2787 
Q 3425 2491 3425 1978 
L 3425 0 
L 2847 0 
L 2847 2094 
Q 2847 2600 2669 2842 
Q 2491 3084 2119 3084 
Q 1678 3084 1418 2786 
Q 1159 2488 1159 1978 
L 1159 0 
L 581 0 
L 581 3500 
L 1159 3500 
L 1159 2956 
Q 1356 3278 1631 3431 
Q 1906 3584 2284 3584 
Q 2666 3584 2933 3390 
Q 3200 3197 3328 2828 
z
" id="DejaVuSans-6d" transform="scale(0.015625)"/>
      </defs>
      <use xlink:href="#DejaVuSans-49"/>
      <use x="29.492188" xlink:href="#DejaVuSans-6e"/>
      <use x="92.871094" xlink:href="#DejaVuSans-74"/>
      <use x="132.080078" xlink:href="#DejaVuSans-65"/>
      <use x="193.603516" xlink:href="#DejaVuSans-72"/>
      <use x="232.966797" xlink:href="#DejaVuSans-6d"/>
      <use x="330.378906" xlink:href="#DejaVuSans-65"/>
      <use x="391.902344" xlink:href="#DejaVuSans-64"/>
      <use x="455.378906" xlink:href="#DejaVuSans-69"/>
      <use x="483.162109" xlink:href="#DejaVuSans-61"/>
      <use x="544.441406" xlink:href="#DejaVuSans-74"/>
      <use x="583.650391" xlink:href="#DejaVuSans-65"/>
     </g>
    </g>
    <g id="line2d_31">
     <path d="M 39.11675 156.937768 
L 45.11675 156.937768 
" style="fill:none;stroke:#000000;stroke-linecap:square;stroke-width:0.43854;"/>
    </g>
    <g id="line2d_32"/>
    <g id="text_24">
     <!-- Advanced -->
     <g transform="translate(47.51675 157.987768)scale(0.03 -0.03)">
      <use xlink:href="#DejaVuSans-41"/>
      <use x="66.658203" xlink:href="#DejaVuSans-64"/>
      <use x="130.134766" xlink:href="#DejaVuSans-76"/>
      <use x="189.314453" xlink:href="#DejaVuSans-61"/>
      <use x="250.59375" xlink:href="#DejaVuSans-6e"/>
      <use x="313.972656" xlink:href="#DejaVuSans-63"/>
      <use x="368.953125" xlink:href="#DejaVuSans-65"/>
      <use x="430.476562" xlink:href="#DejaVuSans-64"/>
     </g>
    </g>
    <g id="line2d_33">
     <path d="M 39.11675 161.341206 
L 45.11675 161.341206 
" style="fill:none;stroke:#ff0000;stroke-linecap:square;stroke-width:0.43854;"/>
    </g>
    <g id="line2d_34"/>
    <g id="text_25">
     <!-- Expert -->
     <g transform="translate(47.51675 162.391206)scale(0.03 -0.03)">
      <defs>
       <path d="M 3513 3500 
L 2247 1797 
L 3578 0 
L 2900 0 
L 1881 1375 
L 863 0 
L 184 0 
L 1544 1831 
L 300 3500 
L 978 3500 
L 1906 2253 
L 2834 3500 
L 3513 3500 
z
" id="DejaVuSans-78" transform="scale(0.015625)"/>
      </defs>
      <use xlink:href="#DejaVuSans-45"/>
      <use x="63.183594" xlink:href="#DejaVuSans-78"/>
      <use x="122.363281" xlink:href="#DejaVuSans-70"/>
      <use x="185.839844" xlink:href="#DejaVuSans-65"/>
      <use x="247.363281" xlink:href="#DejaVuSans-72"/>
      <use x="288.476562" xlink:href="#DejaVuSans-74"/>
     </g>
    </g>
    <g id="line2d_35">
     <path d="M 68.336281 156.937768 
L 74.336281 156.937768 
" style="fill:none;stroke:#ffd700;stroke-linecap:square;stroke-width:0.43854;"/>
    </g>
    <g id="line2d_36"/>
    <g id="text_26">
     <!-- Extreme -->
     <g transform="translate(76.736281 157.987768)scale(0.03 -0.03)">
      <use xlink:href="#DejaVuSans-45"/>
      <use x="63.183594" xlink:href="#DejaVuSans-78"/>
      <use x="122.363281" xlink:href="#DejaVuSans-74"/>
      <use x="161.572266" xlink:href="#DejaVuSans-72"/>
      <use x="200.435547" xlink:href="#DejaVuSans-65"/>
      <use x="261.958984" xlink:href="#DejaVuSans-6d"/>
      <use x="359.371094" xlink:href="#DejaVuSans-65"/>
     </g>
    </g>
    <g id="line2d_37">
     <path d="M 68.336281 161.341206 
L 74.336281 161.341206 
" style="fill:none;stroke:#000000;stroke-dasharray:0.43854,0.723591;stroke-dashoffset:0;stroke-width:0.43854;"/>
    </g>
    <g id="line2d_38"/>
    <g id="text_27">
     <!-- Gladed -->
     <g transform="translate(76.736281 162.391206)scale(0.03 -0.03)">
      <use xlink:href="#DejaVuSans-47"/>
      <use x="77.490234" xlink:href="#DejaVuSans-6c"/>
      <use x="105.273438" xlink:href="#DejaVuSans-61"/>
      <use x="166.552734" xlink:href="#DejaVuSans-64"/>
      <use x="230.029297" xlink:href="#DejaVuSans-65"/>
      <use x="291.552734" xlink:href="#DejaVuSans-64"/>
     </g>
    </g>
   </g>
  </g>
  <g id="text_28">
   <!-- Sources: USGS and OpenStreetMaps -->
   <g transform="translate(23.565897 166.168716)scale(0.026087 -0.026087)">
    <defs>
     <path d="M 750 794 
L 1409 794 
L 1409 0 
L 750 0 
L 750 794 
z
M 750 3309 
L 1409 3309 
L 1409 2516 
L 750 2516 
L 750 3309 
z
" id="DejaVuSans-3a" transform="scale(0.015625)"/>
     <path d="M 556 4666 
L 1191 4666 
L 1191 1831 
Q 1191 1081 1462 751 
Q 1734 422 2344 422 
Q 2950 422 3222 751 
Q 3494 1081 3494 1831 
L 3494 4666 
L 4128 4666 
L 4128 1753 
Q 4128 841 3676 375 
Q 3225 -91 2344 -91 
Q 1459 -91 1007 375 
Q 556 841 556 1753 
L 556 4666 
z
" id="DejaVuSans-55" transform="scale(0.015625)"/>
    </defs>
    <use xlink:href="#DejaVuSans-53"/>
    <use x="63.476562" xlink:href="#DejaVuSans-6f"/>
    <use x="124.658203" xlink:href="#DejaVuSans-75"/>
    <use x="188.037109" xlink:href="#DejaVuSans-72"/>
    <use x="226.900391" xlink:href="#DejaVuSans-63"/>
    <use x="281.880859" xlink:href="#DejaVuSans-65"/>
    <use x="343.404297" xlink:href="#DejaVuSans-73"/>
    <use x="395.503906" xlink:href="#DejaVuSans-3a"/>
    <use x="429.195312" xlink:href="#DejaVuSans-20"/>
    <use x="460.982422" xlink:href="#DejaVuSans-55"/>
    <use x="534.175781" xlink:href="#DejaVuSans-53"/>
    <use x="597.652344" xlink:href="#DejaVuSans-47"/>
    <use x="675.142578" xlink:href="#DejaVuSans-53"/>
    <use x="738.619141" xlink:href="#DejaVuSans-20"/>
    <use x="770.40625" xlink:href="#DejaVuSans-61"/>
    <use x="831.685547" xlink:href="#DejaVuSans-6e"/>
    <use x="895.064453" xlink:href="#DejaVuSans-64"/>
    <use x="958.541016" xlink:href="#DejaVuSans-20"/>
    <use x="990.328125" xlink:href="#DejaVuSans-4f"/>
    <use x="1069.039062" xlink:href="#DejaVuSans-70"/>
    <use x="1132.515625" xlink:href="#DejaVuSans-65"/>
    <use x="1194.039062" xlink:href="#DejaVuSans-6e"/>
    <use x="1257.417969" xlink:href="#DejaVuSans-53"/>
    <use x="1320.894531" xlink:href="#DejaVuSans-74"/>
    <use x="1360.103516" xlink:href="#DejaVuSans-72"/>
    <use x="1398.966797" xlink:href="#DejaVuSans-65"/>
    <use x="1460.490234" xlink:href="#DejaVuSans-65"/>
    <use x="1522.013672" xlink:href="#DejaVuSans-74"/>
    <use x="1561.222656" xlink:href="#DejaVuSans-4d"/>
    <use x="1647.501953" xlink:href="#DejaVuSans-61"/>
    <use x="1708.78125" xlink:href="#DejaVuSans-70"/>
    <use x="1772.257812" xlink:href="#DejaVuSans-73"/>
   </g>
  </g>
 </g>
 <defs>
  <clipPath id="pb36e773946">
   <rect height="148.486737" width="94.724593" x="0" y="9.112253"/>
  </clipPath>
 </defs>
</svg>
