<?xml version="1.0" encoding="utf-8" standalone="no"?>
<!DOCTYPE svg PUBLIC "-//W3C//DTD SVG 1.1//EN"
  "http://www.w3.org/Graphics/SVG/1.1/DTD/svg11.dtd">
<svg xmlns:xlink="http://www.w3.org/1999/xlink" width="66.479002pt" height="75.854718pt" viewBox="0 0 66.479002 75.854718" xmlns="http://www.w3.org/2000/svg" version="1.1">
 <metadata>
  <rdf:RDF xmlns:dc="http://purl.org/dc/elements/1.1/" xmlns:cc="http://creativecommons.org/ns#" xmlns:rdf="http://www.w3.org/1999/02/22-rdf-syntax-ns#">
   <cc:Work>
    <dc:type rdf:resource="http://purl.org/dc/dcmitype/StillImage"/>
    <dc:date>2022-05-17T17:44:32.038654</dc:date>
    <dc:format>image/svg+xml</dc:format>
    <dc:creator>
     <cc:Agent>
      <dc:title>Matplotlib v3.5.2, https://matplotlib.org/</dc:title>
     </cc:Agent>
    </dc:creator>
   </cc:Work>
  </rdf:RDF>
 </metadata>
 <defs>
  <style type="text/css">*{stroke-linejoin: round; stroke-linecap: butt}</style>
 </defs>
 <g id="figure_1">
  <g id="patch_1">
   <path d="M 0 75.854718 
L 66.479002 75.854718 
L 66.479002 0 
L 0 0 
L 0 75.854718 
z
" style="fill: none"/>
  </g>
  <g id="axes_1">
   <g id="line2d_1">
    <path d="M 25.811346 57.911029 
L 24.885556 53.388649 
L 23.959766 48.866269 
L 23.033976 44.343889 
L 22.108186 39.82151 
L 21.182396 35.29913 
L 20.256606 30.77675 
L 19.330816 26.254371 
L 18.405026 21.731991 
" clip-path="url(#pdb7392479a)" style="fill: none; stroke: #808080; stroke-width: 0.4; stroke-linecap: square"/>
   </g>
   <g id="line2d_2">
    <path d="M 45.063703 50.821709 
L 44.254364 45.950891 
L 43.615336 42.098022 
L 42.976308 38.245153 
L 42.271048 33.998825 
L 41.565788 29.752496 
L 40.856162 25.47792 
L 40.146535 21.203344 
L 39.581745 17.800934 
L 39.016955 14.398525 
" clip-path="url(#pdb7392479a)" style="fill: none; stroke: #808080; stroke-width: 0.4; stroke-linecap: square"/>
   </g>
   <g id="line2d_3">
    <path d="M 21.207142 62.267323 
L 20.144521 57.844443 
L 19.387586 54.69072 
L 18.630651 51.536997 
L 17.76527 47.932813 
L 16.899889 44.32863 
L 15.998845 40.576648 
L 15.097801 36.824666 
L 14.183656 33.0177 
L 13.269511 29.210734 
L 12.355367 25.403768 
L 11.441222 21.596803 
" clip-path="url(#pdb7392479a)" style="fill: none; stroke: #808080; stroke-width: 0.4; stroke-linecap: square"/>
   </g>
   <g id="line2d_4">
    <path d="M 33.107037 61.509663 
L 32.491299 57.930197 
L 31.875562 54.350731 
L 31.470893 51.997041 
L 31.015276 49.346743 
L 30.134611 44.225726 
L 29.296159 39.351881 
L 28.485365 34.635421 
L 27.58141 29.384259 
L 26.901624 25.427477 
L 26.179624 21.229574 
L 25.507116 17.321217 
" clip-path="url(#pdb7392479a)" style="fill: none; stroke: #808080; stroke-width: 0.4; stroke-linecap: square"/>
   </g>
   <g id="line2d_5">
    <path d="M 51.189055 47.470247 
L 51.750207 44.041607 
L 52.311358 40.612967 
L 52.872509 37.184327 
L 53.43366 33.755687 
" clip-path="url(#pdb7392479a)" style="fill: none; stroke: #808080; stroke-width: 0.4; stroke-linecap: square"/>
   </g>
   <g id="line2d_6">
    <path d="M 52.954752 29.136078 
L 50.507086 25.10363 
L 48.059419 21.071182 
L 45.839561 17.413529 
L 43.619703 13.755876 
" clip-path="url(#pdb7392479a)" style="fill: none; stroke: #808080; stroke-width: 0.4; stroke-linecap: square"/>
   </g>
   <g id="line2d_7">
    <path d="M 50.852802 47.408706 
L 51.483096 43.532633 
" clip-path="url(#pdb7392479a)" style="fill: none; stroke: #808080; stroke-width: 0.4; stroke-linecap: square"/>
   </g>
   <g id="line2d_8">
    <path d="M 14.565035 61.910184 
L 8.808688 62.19418 
L 3.052341 62.478177 
" clip-path="url(#pdb7392479a)" style="fill: none; stroke: #808080; stroke-width: 0.4; stroke-linecap: square"/>
   </g>
   <g id="line2d_9">
    <path d="M 55.20809 22.91035 
L 56.104768 17.429166 
" clip-path="url(#pdb7392479a)" style="fill: none; stroke: #808080; stroke-width: 0.4; stroke-linecap: square"/>
   </g>
   <g id="line2d_10">
    <path d="M 53.43366 33.755687 
L 54.320875 28.333018 
L 55.20809 22.91035 
" clip-path="url(#pdb7392479a)" style="fill: none; stroke: #808080; stroke-width: 0.4; stroke-linecap: square"/>
   </g>
   <g id="line2d_11">
    <path d="M 40.651644 46.519893 
L 39.81392 42.144934 
L 38.976197 37.769975 
L 38.138473 33.395017 
L 37.30075 29.020058 
" clip-path="url(#pdb7392479a)" style="fill: none; stroke: #808080; stroke-width: 0.4; stroke-linecap: square"/>
   </g>
   <g id="line2d_12">
    <path d="M 61.656596 38.665851 
L 61.659508 33.255541 
L 61.662419 27.84523 
L 61.66533 22.43492 
L 61.668242 17.02461 
" clip-path="url(#pdb7392479a)" style="fill: none; stroke: #808080; stroke-width: 0.4; stroke-linecap: square"/>
   </g>
   <g id="line2d_13">
    <path d="M 3.021773 65.174883 
L 4.48506 65.100479 
L 5.948346 65.026074 
L 7.411633 64.95167 
L 8.87492 64.877266 
L 10.338207 64.802862 
L 11.801494 64.728458 
L 13.264781 64.654054 
L 14.728067 64.57965 
" clip-path="url(#pdb7392479a)" style="fill: none; stroke: #008000; stroke-width: 0.4; stroke-linecap: square"/>
   </g>
   <g id="line2d_14">
    <path d="M 8.626005 21.121625 
L 7.433104 22.041714 
L 6.240203 22.961802 
L 5.269288 24.206241 
L 4.298373 25.450681 
L 4.00688 26.695625 
L 3.715387 27.940568 
L 3.423895 29.185512 
L 3.132402 30.430456 
L 3.139316 31.411329 
L 3.14623 32.392201 
L 3.153145 33.373074 
L 3.160059 34.353946 
L 3.166973 35.334819 
L 3.173888 36.315691 
L 3.180802 37.296564 
L 3.187716 38.277436 
L 3.368216 39.738783 
L 3.548716 41.200129 
L 3.729216 42.661475 
L 3.909716 44.122821 
L 4.603149 44.921088 
L 5.296582 45.719356 
L 5.990014 46.517623 
L 6.683447 47.31589 
L 7.37688 48.114158 
L 8.070312 48.912425 
L 8.763745 49.710692 
L 9.457178 50.508959 
L 10.63625 51.658944 
L 11.815322 52.808928 
L 12.994395 53.958912 
L 14.173467 55.108896 
L 15.352539 56.25888 
L 16.531611 57.408864 
L 17.710683 58.558848 
L 18.889756 59.708832 
" clip-path="url(#pdb7392479a)" style="fill: none; stroke: #008000; stroke-width: 0.4; stroke-linecap: square"/>
   </g>
   <g id="line2d_15">
    <path d="M 4.020345 54.40521 
L 5.733275 55.244084 
L 7.446205 56.082959 
L 9.159135 56.921833 
L 10.872065 57.760707 
L 12.584994 58.599581 
L 14.297924 59.438456 
L 16.010854 60.27733 
L 17.723784 61.116204 
" clip-path="url(#pdb7392479a)" style="fill: none; stroke: #008000; stroke-width: 0.4; stroke-linecap: square"/>
   </g>
   <g id="line2d_16">
    <path d="M 15.172039 20.526393 
L 14.776831 21.412558 
L 14.381624 22.298723 
L 13.986416 23.184888 
L 13.591209 24.071053 
L 13.196001 24.957218 
L 12.800794 25.843383 
L 12.405586 26.729548 
L 12.010379 27.615713 
L 11.63555 28.644002 
L 11.260722 29.672291 
L 10.885893 30.700581 
L 10.511065 31.72887 
L 10.330929 32.824754 
L 10.150793 33.920637 
L 9.970657 35.016521 
L 9.790521 36.112404 
L 10.306547 37.776029 
L 10.822573 39.439653 
L 11.16101 40.529231 
L 11.499447 41.618809 
L 11.837885 42.708387 
L 12.176322 43.797965 
L 12.634032 44.738294 
L 13.091741 45.678623 
L 13.54945 46.618951 
L 14.007159 47.55928 
L 14.464869 48.499608 
L 14.922578 49.439937 
L 15.380287 50.380266 
L 15.837996 51.320594 
L 16.295706 52.260923 
L 16.753415 53.201252 
L 17.211124 54.14158 
L 17.668834 55.081909 
L 18.126543 56.022237 
L 18.584252 56.962566 
L 19.041961 57.902895 
L 19.499671 58.843223 
" clip-path="url(#pdb7392479a)" style="fill: none; stroke: #008000; stroke-width: 0.4; stroke-linecap: square"/>
   </g>
   <g id="line2d_17">
    <path d="M 18.335155 30.483926 
L 18.6715 32.212433 
L 19.007845 33.940941 
L 19.34419 35.669448 
L 19.680535 37.397955 
L 20.016879 39.126462 
L 20.353224 40.85497 
L 20.689569 42.583477 
L 21.025914 44.311984 
L 21.362259 46.040491 
L 21.698604 47.768998 
L 22.034949 49.497506 
L 22.371294 51.226013 
L 22.707639 52.95452 
L 23.043984 54.683027 
L 23.380328 56.411535 
L 23.716673 58.140042 
" clip-path="url(#pdb7392479a)" style="fill: none; stroke: #4169e1; stroke-width: 0.4; stroke-linecap: square"/>
   </g>
   <g id="line2d_18">
    <path d="M 16.501043 19.329875 
L 17.313292 18.586843 
L 18.125542 17.843811 
L 18.683782 16.853607 
L 19.242022 15.863402 
L 19.885417 14.410631 
L 20.325021 12.825699 
L 21.137271 11.637252 
L 22.763226 10.778704 
L 23.964861 10.72927 
L 25.166495 10.679835 
L 26.774255 11.191332 
L 28.382015 11.702828 
L 29.836931 12.016586 
L 31.291848 12.330344 
L 32.596106 12.875133 
L 33.378697 13.836711 
L 34.161288 14.798289 
L 34.943879 15.759867 
L 35.72647 16.721445 
L 36.509061 17.683023 
L 37.291652 18.644601 
L 38.074243 19.606179 
L 38.856834 20.567757 
" clip-path="url(#pdb7392479a)" style="fill: none; stroke: #008000; stroke-width: 0.4; stroke-linecap: square"/>
   </g>
   <g id="line2d_19">
    <path d="M 22.661331 21.971093 
L 22.881315 23.180348 
L 23.1013 24.389603 
L 23.321284 25.598858 
L 23.541268 26.808113 
L 23.761252 28.017369 
L 23.981237 29.226624 
L 24.201221 30.435879 
L 24.421205 31.645134 
L 24.64119 32.854389 
L 24.861174 34.063644 
L 25.081158 35.272899 
L 25.301143 36.482155 
L 25.521127 37.69141 
L 25.741111 38.900665 
L 25.961095 40.10992 
L 26.18108 41.319175 
L 26.401064 42.52843 
L 26.621048 43.737686 
L 26.841033 44.946941 
L 27.061017 46.156196 
L 27.281001 47.365451 
L 27.500986 48.574706 
L 27.72097 49.783961 
L 27.940954 50.993216 
L 28.160938 52.202472 
L 28.380923 53.411727 
L 28.600907 54.620982 
L 28.820891 55.830237 
L 29.040876 57.039492 
L 29.26086 58.248747 
L 29.480844 59.458002 
L 29.700829 60.667258 
" clip-path="url(#pdb7392479a)" style="fill: none; stroke: #4169e1; stroke-width: 0.4; stroke-linecap: square"/>
   </g>
   <g id="line2d_20">
    <path d="M 26.6891 17.117426 
L 27.042367 18.167784 
L 27.395633 19.218143 
L 27.7489 20.268501 
L 28.102167 21.318859 
L 28.455434 22.369218 
L 28.8087 23.419576 
L 29.161967 24.469934 
L 29.515234 25.520293 
L 29.868501 26.570651 
L 30.221767 27.621009 
L 30.575034 28.671368 
L 30.928301 29.721726 
L 31.281568 30.772084 
L 31.634835 31.822443 
L 31.988101 32.872801 
L 32.341368 33.923159 
L 32.519048 35.39863 
L 32.696727 36.8741 
L 32.874407 38.34957 
L 33.052087 39.825041 
L 33.229766 41.300511 
L 33.407446 42.775982 
L 33.585125 44.251452 
L 33.762805 45.726922 
L 33.940485 47.202393 
L 34.118164 48.677863 
L 34.295844 50.153333 
L 34.473524 51.628804 
L 34.651203 53.104274 
L 34.828883 54.579744 
L 35.006563 56.055215 
L 35.184242 57.530685 
" clip-path="url(#pdb7392479a)" style="fill: none; stroke: #4169e1; stroke-width: 0.4; stroke-linecap: square"/>
   </g>
   <g id="line2d_21">
    <path d="M 30.277264 15.368048 
L 31.07241 16.482343 
L 31.867556 17.596638 
L 32.662702 18.710934 
L 33.457848 19.825229 
L 34.101061 20.927166 
L 34.744274 22.029103 
L 35.387487 23.13104 
L 36.0307 24.232976 
L 36.673913 25.334913 
L 37.317126 26.43685 
L 37.960339 27.538787 
L 38.603552 28.640723 
" clip-path="url(#pdb7392479a)" style="fill: none; stroke: #008000; stroke-width: 0.4; stroke-linecap: square"/>
   </g>
   <g id="line2d_22">
    <path d="M 38.603552 28.640723 
L 38.824628 29.906727 
L 39.045704 31.172731 
L 39.26678 32.438735 
L 39.487856 33.704739 
L 39.708932 34.970743 
L 39.930008 36.236747 
L 40.151084 37.502751 
L 40.37216 38.768755 
L 40.593236 40.034759 
L 40.814312 41.300763 
L 41.035388 42.566767 
L 41.256464 43.832771 
L 41.47754 45.098775 
L 41.698616 46.364779 
L 41.919692 47.630783 
L 42.140768 48.896787 
" clip-path="url(#pdb7392479a)" style="fill: none; stroke: #008000; stroke-width: 0.4; stroke-linecap: square"/>
   </g>
   <g id="line2d_23">
    <path d="M 40.91366 13.40378 
L 41.158071 14.512306 
L 41.402483 15.620832 
L 41.646895 16.729358 
L 41.891307 17.837884 
L 42.135719 18.94641 
L 42.380131 20.054936 
L 42.624543 21.163462 
L 42.868954 22.271988 
L 43.113366 23.380514 
L 43.357778 24.48904 
L 43.60219 25.597566 
L 43.846602 26.706092 
L 44.091014 27.814618 
L 44.335425 28.923143 
L 44.579837 30.031669 
L 44.824249 31.140195 
L 45.068661 32.248721 
L 45.313073 33.357247 
L 45.557485 34.465773 
L 45.801896 35.574299 
L 46.046308 36.682825 
L 46.29072 37.791351 
L 46.535132 38.899877 
L 46.779544 40.008403 
L 47.023956 41.116929 
L 47.268368 42.225455 
L 47.512779 43.33398 
L 47.757191 44.442506 
L 48.001603 45.551032 
L 48.246015 46.659558 
L 48.490427 47.768084 
L 48.734839 48.87661 
" clip-path="url(#pdb7392479a)" style="fill: none; stroke: #008000; stroke-width: 0.4; stroke-linecap: square"/>
   </g>
   <g id="line2d_24">
    <path d="M 44.657578 12.643094 
L 45.423884 13.779899 
L 46.19019 14.916705 
L 46.956496 16.053511 
L 47.722802 17.190317 
L 48.489108 18.327122 
L 49.255413 19.463928 
L 50.021719 20.600734 
L 50.788025 21.73754 
L 51.554331 22.874346 
L 52.320637 24.011151 
L 53.086943 25.147957 
L 53.853249 26.284763 
L 54.619555 27.421569 
L 55.385861 28.558374 
L 56.152167 29.69518 
L 56.918473 30.831986 
" clip-path="url(#pdb7392479a)" style="fill: none; stroke: #008000; stroke-width: 0.4; stroke-linecap: square"/>
   </g>
   <g id="line2d_25">
    <path d="M 39.091192 12.443338 
L 40.457315 12.376752 
L 41.823438 12.310167 
L 43.18956 12.243582 
L 44.555683 12.176996 
L 46.071191 12.164512 
L 47.586699 12.152027 
L 49.102207 12.139542 
L 50.617715 12.127057 
L 52.133223 12.114573 
L 53.648731 12.102088 
L 55.164239 12.089603 
L 56.679747 12.077118 
L 57.60117 12.676386 
L 58.010206 14.275443 
L 58.181973 15.741329 
" clip-path="url(#pdb7392479a)" style="fill: none; stroke: #008000; stroke-width: 0.4; stroke-linecap: square"/>
   </g>
   <g id="line2d_26">
    <path d="M 58.181973 15.741329 
L 58.024035 17.627661 
L 57.866098 19.513993 
L 57.70816 21.400325 
L 57.550223 23.286657 
L 57.392285 25.17299 
L 57.234348 27.059322 
L 57.07641 28.945654 
L 56.918473 30.831986 
" clip-path="url(#pdb7392479a)" style="fill: none; stroke: #008000; stroke-width: 0.4; stroke-linecap: square"/>
   </g>
   <g id="line2d_27">
    <path d="M 56.918473 30.831986 
L 56.694304 31.870931 
L 56.470134 32.909877 
L 56.245965 33.948822 
L 56.021796 34.987768 
L 55.797627 36.026713 
L 55.573457 37.065659 
L 55.349288 38.104605 
L 55.125119 39.14355 
L 54.900949 40.182496 
L 54.67678 41.221441 
L 54.452611 42.260387 
L 54.228442 43.299332 
L 54.004272 44.338278 
L 53.780103 45.377223 
L 53.555934 46.416169 
L 53.331764 47.455114 
" clip-path="url(#pdb7392479a)" style="fill: none; stroke: #008000; stroke-width: 0.4; stroke-linecap: square"/>
   </g>
   <g id="line2d_28">
    <path d="M 18.335155 30.483926 
L 17.396082 31.603392 
L 16.457009 32.722858 
L 15.517937 33.842324 
L 14.578864 34.96179 
L 13.639791 36.081255 
L 12.700718 37.200721 
L 11.761645 38.320187 
L 10.822573 39.439653 
" clip-path="url(#pdb7392479a)" style="fill: none; stroke: #008000; stroke-width: 0.4; stroke-linecap: square"/>
   </g>
   <g id="line2d_29">
    <path d="M 63.457229 18.892026 
L 63.425842 20.38471 
L 63.394454 21.877394 
L 63.363067 23.370078 
L 63.33168 24.862763 
L 63.300292 26.355447 
L 63.268905 27.848131 
L 63.237518 29.340815 
L 63.20613 30.833499 
L 63.174743 32.326183 
L 63.143356 33.818868 
L 63.111968 35.311552 
L 63.080581 36.804236 
L 63.049194 38.29692 
L 63.017806 39.789604 
L 62.986419 41.282288 
L 62.955031 42.774973 
" clip-path="url(#pdb7392479a)" style="fill: none; stroke: #008000; stroke-width: 0.4; stroke-linecap: square"/>
   </g>
   <g id="text_1">
    <g id="patch_2">
     <path d="M 19.403695 27.791826 
L 22.856641 52.128718 
L 24.812677 51.851193 
L 21.359731 27.514302 
z
" style="fill: #ffffff"/>
    </g>
    <!-- Kildow's Climb Rope Tow -->
    <g style="fill: #808080" transform="translate(19.83812 27.75039)rotate(-278.075293)scale(0.02 -0.02)">
     <defs>
      <path id="DejaVuSans-4b" d="M 628 4666 
L 1259 4666 
L 1259 2694 
L 3353 4666 
L 4166 4666 
L 1850 2491 
L 4331 0 
L 3500 0 
L 1259 2247 
L 1259 0 
L 628 0 
L 628 4666 
z
" transform="scale(0.015625)"/>
      <path id="DejaVuSans-69" d="M 603 3500 
L 1178 3500 
L 1178 0 
L 603 0 
L 603 3500 
z
M 603 4863 
L 1178 4863 
L 1178 4134 
L 603 4134 
L 603 4863 
z
" transform="scale(0.015625)"/>
      <path id="DejaVuSans-6c" d="M 603 4863 
L 1178 4863 
L 1178 0 
L 603 0 
L 603 4863 
z
" transform="scale(0.015625)"/>
      <path id="DejaVuSans-64" d="M 2906 2969 
L 2906 4863 
L 3481 4863 
L 3481 0 
L 2906 0 
L 2906 525 
Q 2725 213 2448 61 
Q 2172 -91 1784 -91 
Q 1150 -91 751 415 
Q 353 922 353 1747 
Q 353 2572 751 3078 
Q 1150 3584 1784 3584 
Q 2172 3584 2448 3432 
Q 2725 3281 2906 2969 
z
M 947 1747 
Q 947 1113 1208 752 
Q 1469 391 1925 391 
Q 2381 391 2643 752 
Q 2906 1113 2906 1747 
Q 2906 2381 2643 2742 
Q 2381 3103 1925 3103 
Q 1469 3103 1208 2742 
Q 947 2381 947 1747 
z
" transform="scale(0.015625)"/>
      <path id="DejaVuSans-6f" d="M 1959 3097 
Q 1497 3097 1228 2736 
Q 959 2375 959 1747 
Q 959 1119 1226 758 
Q 1494 397 1959 397 
Q 2419 397 2687 759 
Q 2956 1122 2956 1747 
Q 2956 2369 2687 2733 
Q 2419 3097 1959 3097 
z
M 1959 3584 
Q 2709 3584 3137 3096 
Q 3566 2609 3566 1747 
Q 3566 888 3137 398 
Q 2709 -91 1959 -91 
Q 1206 -91 779 398 
Q 353 888 353 1747 
Q 353 2609 779 3096 
Q 1206 3584 1959 3584 
z
" transform="scale(0.015625)"/>
      <path id="DejaVuSans-77" d="M 269 3500 
L 844 3500 
L 1563 769 
L 2278 3500 
L 2956 3500 
L 3675 769 
L 4391 3500 
L 4966 3500 
L 4050 0 
L 3372 0 
L 2619 2869 
L 1863 0 
L 1184 0 
L 269 3500 
z
" transform="scale(0.015625)"/>
      <path id="DejaVuSans-27" d="M 1147 4666 
L 1147 2931 
L 616 2931 
L 616 4666 
L 1147 4666 
z
" transform="scale(0.015625)"/>
      <path id="DejaVuSans-73" d="M 2834 3397 
L 2834 2853 
Q 2591 2978 2328 3040 
Q 2066 3103 1784 3103 
Q 1356 3103 1142 2972 
Q 928 2841 928 2578 
Q 928 2378 1081 2264 
Q 1234 2150 1697 2047 
L 1894 2003 
Q 2506 1872 2764 1633 
Q 3022 1394 3022 966 
Q 3022 478 2636 193 
Q 2250 -91 1575 -91 
Q 1294 -91 989 -36 
Q 684 19 347 128 
L 347 722 
Q 666 556 975 473 
Q 1284 391 1588 391 
Q 1994 391 2212 530 
Q 2431 669 2431 922 
Q 2431 1156 2273 1281 
Q 2116 1406 1581 1522 
L 1381 1569 
Q 847 1681 609 1914 
Q 372 2147 372 2553 
Q 372 3047 722 3315 
Q 1072 3584 1716 3584 
Q 2034 3584 2315 3537 
Q 2597 3491 2834 3397 
z
" transform="scale(0.015625)"/>
      <path id="DejaVuSans-20" transform="scale(0.015625)"/>
      <path id="DejaVuSans-43" d="M 4122 4306 
L 4122 3641 
Q 3803 3938 3442 4084 
Q 3081 4231 2675 4231 
Q 1875 4231 1450 3742 
Q 1025 3253 1025 2328 
Q 1025 1406 1450 917 
Q 1875 428 2675 428 
Q 3081 428 3442 575 
Q 3803 722 4122 1019 
L 4122 359 
Q 3791 134 3420 21 
Q 3050 -91 2638 -91 
Q 1578 -91 968 557 
Q 359 1206 359 2328 
Q 359 3453 968 4101 
Q 1578 4750 2638 4750 
Q 3056 4750 3426 4639 
Q 3797 4528 4122 4306 
z
" transform="scale(0.015625)"/>
      <path id="DejaVuSans-6d" d="M 3328 2828 
Q 3544 3216 3844 3400 
Q 4144 3584 4550 3584 
Q 5097 3584 5394 3201 
Q 5691 2819 5691 2113 
L 5691 0 
L 5113 0 
L 5113 2094 
Q 5113 2597 4934 2840 
Q 4756 3084 4391 3084 
Q 3944 3084 3684 2787 
Q 3425 2491 3425 1978 
L 3425 0 
L 2847 0 
L 2847 2094 
Q 2847 2600 2669 2842 
Q 2491 3084 2119 3084 
Q 1678 3084 1418 2786 
Q 1159 2488 1159 1978 
L 1159 0 
L 581 0 
L 581 3500 
L 1159 3500 
L 1159 2956 
Q 1356 3278 1631 3431 
Q 1906 3584 2284 3584 
Q 2666 3584 2933 3390 
Q 3200 3197 3328 2828 
z
" transform="scale(0.015625)"/>
      <path id="DejaVuSans-62" d="M 3116 1747 
Q 3116 2381 2855 2742 
Q 2594 3103 2138 3103 
Q 1681 3103 1420 2742 
Q 1159 2381 1159 1747 
Q 1159 1113 1420 752 
Q 1681 391 2138 391 
Q 2594 391 2855 752 
Q 3116 1113 3116 1747 
z
M 1159 2969 
Q 1341 3281 1617 3432 
Q 1894 3584 2278 3584 
Q 2916 3584 3314 3078 
Q 3713 2572 3713 1747 
Q 3713 922 3314 415 
Q 2916 -91 2278 -91 
Q 1894 -91 1617 61 
Q 1341 213 1159 525 
L 1159 0 
L 581 0 
L 581 4863 
L 1159 4863 
L 1159 2969 
z
" transform="scale(0.015625)"/>
      <path id="DejaVuSans-52" d="M 2841 2188 
Q 3044 2119 3236 1894 
Q 3428 1669 3622 1275 
L 4263 0 
L 3584 0 
L 2988 1197 
Q 2756 1666 2539 1819 
Q 2322 1972 1947 1972 
L 1259 1972 
L 1259 0 
L 628 0 
L 628 4666 
L 2053 4666 
Q 2853 4666 3247 4331 
Q 3641 3997 3641 3322 
Q 3641 2881 3436 2590 
Q 3231 2300 2841 2188 
z
M 1259 4147 
L 1259 2491 
L 2053 2491 
Q 2509 2491 2742 2702 
Q 2975 2913 2975 3322 
Q 2975 3731 2742 3939 
Q 2509 4147 2053 4147 
L 1259 4147 
z
" transform="scale(0.015625)"/>
      <path id="DejaVuSans-70" d="M 1159 525 
L 1159 -1331 
L 581 -1331 
L 581 3500 
L 1159 3500 
L 1159 2969 
Q 1341 3281 1617 3432 
Q 1894 3584 2278 3584 
Q 2916 3584 3314 3078 
Q 3713 2572 3713 1747 
Q 3713 922 3314 415 
Q 2916 -91 2278 -91 
Q 1894 -91 1617 61 
Q 1341 213 1159 525 
z
M 3116 1747 
Q 3116 2381 2855 2742 
Q 2594 3103 2138 3103 
Q 1681 3103 1420 2742 
Q 1159 2381 1159 1747 
Q 1159 1113 1420 752 
Q 1681 391 2138 391 
Q 2594 391 2855 752 
Q 3116 1113 3116 1747 
z
" transform="scale(0.015625)"/>
      <path id="DejaVuSans-65" d="M 3597 1894 
L 3597 1613 
L 953 1613 
Q 991 1019 1311 708 
Q 1631 397 2203 397 
Q 2534 397 2845 478 
Q 3156 559 3463 722 
L 3463 178 
Q 3153 47 2828 -22 
Q 2503 -91 2169 -91 
Q 1331 -91 842 396 
Q 353 884 353 1716 
Q 353 2575 817 3079 
Q 1281 3584 2069 3584 
Q 2775 3584 3186 3129 
Q 3597 2675 3597 1894 
z
M 3022 2063 
Q 3016 2534 2758 2815 
Q 2500 3097 2075 3097 
Q 1594 3097 1305 2825 
Q 1016 2553 972 2059 
L 3022 2063 
z
" transform="scale(0.015625)"/>
      <path id="DejaVuSans-54" d="M -19 4666 
L 3928 4666 
L 3928 4134 
L 2272 4134 
L 2272 0 
L 1638 0 
L 1638 4134 
L -19 4134 
L -19 4666 
z
" transform="scale(0.015625)"/>
     </defs>
     <use xlink:href="#DejaVuSans-4b"/>
     <use xlink:href="#DejaVuSans-69" x="65.576172"/>
     <use xlink:href="#DejaVuSans-6c" x="93.359375"/>
     <use xlink:href="#DejaVuSans-64" x="121.142578"/>
     <use xlink:href="#DejaVuSans-6f" x="184.619141"/>
     <use xlink:href="#DejaVuSans-77" x="245.800781"/>
     <use xlink:href="#DejaVuSans-27" x="327.587891"/>
     <use xlink:href="#DejaVuSans-73" x="355.078125"/>
     <use xlink:href="#DejaVuSans-20" x="407.177734"/>
     <use xlink:href="#DejaVuSans-43" x="438.964844"/>
     <use xlink:href="#DejaVuSans-6c" x="508.789062"/>
     <use xlink:href="#DejaVuSans-69" x="536.572266"/>
     <use xlink:href="#DejaVuSans-6d" x="564.355469"/>
     <use xlink:href="#DejaVuSans-62" x="661.767578"/>
     <use xlink:href="#DejaVuSans-20" x="725.244141"/>
     <use xlink:href="#DejaVuSans-52" x="757.03125"/>
     <use xlink:href="#DejaVuSans-6f" x="822.013672"/>
     <use xlink:href="#DejaVuSans-70" x="883.195312"/>
     <use xlink:href="#DejaVuSans-65" x="946.671875"/>
     <use xlink:href="#DejaVuSans-20" x="1008.195312"/>
     <use xlink:href="#DejaVuSans-54" x="1039.982422"/>
     <use xlink:href="#DejaVuSans-6f" x="1084.066406"/>
     <use xlink:href="#DejaVuSans-77" x="1145.248047"/>
    </g>
   </g>
   <g id="text_2">
    <g id="patch_3">
     <path d="M 41.349534 32.743216 
L 42.640382 43.972705 
L 44.603082 43.747089 
L 43.312235 32.517601 
z
" style="fill: #ffffff"/>
    </g>
    <!-- Triple Chair -->
    <g style="fill: #808080" transform="translate(41.784904 32.713301)rotate(-276.557457)scale(0.02 -0.02)">
     <defs>
      <path id="DejaVuSans-72" d="M 2631 2963 
Q 2534 3019 2420 3045 
Q 2306 3072 2169 3072 
Q 1681 3072 1420 2755 
Q 1159 2438 1159 1844 
L 1159 0 
L 581 0 
L 581 3500 
L 1159 3500 
L 1159 2956 
Q 1341 3275 1631 3429 
Q 1922 3584 2338 3584 
Q 2397 3584 2469 3576 
Q 2541 3569 2628 3553 
L 2631 2963 
z
" transform="scale(0.015625)"/>
      <path id="DejaVuSans-68" d="M 3513 2113 
L 3513 0 
L 2938 0 
L 2938 2094 
Q 2938 2591 2744 2837 
Q 2550 3084 2163 3084 
Q 1697 3084 1428 2787 
Q 1159 2491 1159 1978 
L 1159 0 
L 581 0 
L 581 4863 
L 1159 4863 
L 1159 2956 
Q 1366 3272 1645 3428 
Q 1925 3584 2291 3584 
Q 2894 3584 3203 3211 
Q 3513 2838 3513 2113 
z
" transform="scale(0.015625)"/>
      <path id="DejaVuSans-61" d="M 2194 1759 
Q 1497 1759 1228 1600 
Q 959 1441 959 1056 
Q 959 750 1161 570 
Q 1363 391 1709 391 
Q 2188 391 2477 730 
Q 2766 1069 2766 1631 
L 2766 1759 
L 2194 1759 
z
M 3341 1997 
L 3341 0 
L 2766 0 
L 2766 531 
Q 2569 213 2275 61 
Q 1981 -91 1556 -91 
Q 1019 -91 701 211 
Q 384 513 384 1019 
Q 384 1609 779 1909 
Q 1175 2209 1959 2209 
L 2766 2209 
L 2766 2266 
Q 2766 2663 2505 2880 
Q 2244 3097 1772 3097 
Q 1472 3097 1187 3025 
Q 903 2953 641 2809 
L 641 3341 
Q 956 3463 1253 3523 
Q 1550 3584 1831 3584 
Q 2591 3584 2966 3190 
Q 3341 2797 3341 1997 
z
" transform="scale(0.015625)"/>
     </defs>
     <use xlink:href="#DejaVuSans-54"/>
     <use xlink:href="#DejaVuSans-72" x="46.333984"/>
     <use xlink:href="#DejaVuSans-69" x="87.447266"/>
     <use xlink:href="#DejaVuSans-70" x="115.230469"/>
     <use xlink:href="#DejaVuSans-6c" x="178.707031"/>
     <use xlink:href="#DejaVuSans-65" x="206.490234"/>
     <use xlink:href="#DejaVuSans-20" x="268.013672"/>
     <use xlink:href="#DejaVuSans-43" x="299.800781"/>
     <use xlink:href="#DejaVuSans-68" x="369.625"/>
     <use xlink:href="#DejaVuSans-61" x="433.003906"/>
     <use xlink:href="#DejaVuSans-69" x="494.283203"/>
     <use xlink:href="#DejaVuSans-72" x="522.066406"/>
    </g>
   </g>
   <g id="text_3">
    <g id="patch_4">
     <path d="M 14.358998 35.077419 
L 17.491955 53.904146 
L 19.440781 53.579842 
L 16.307823 34.753115 
z
" style="fill: #ffffff"/>
    </g>
    <!-- Quad Chair - South -->
    <g style="fill: #808080" transform="translate(14.792305 35.025587)rotate(-279.448017)scale(0.02 -0.02)">
     <defs>
      <path id="DejaVuSans-51" d="M 2522 4238 
Q 1834 4238 1429 3725 
Q 1025 3213 1025 2328 
Q 1025 1447 1429 934 
Q 1834 422 2522 422 
Q 3209 422 3611 934 
Q 4013 1447 4013 2328 
Q 4013 3213 3611 3725 
Q 3209 4238 2522 4238 
z
M 3406 84 
L 4238 -825 
L 3475 -825 
L 2784 -78 
Q 2681 -84 2626 -87 
Q 2572 -91 2522 -91 
Q 1538 -91 948 567 
Q 359 1225 359 2328 
Q 359 3434 948 4092 
Q 1538 4750 2522 4750 
Q 3503 4750 4090 4092 
Q 4678 3434 4678 2328 
Q 4678 1516 4351 937 
Q 4025 359 3406 84 
z
" transform="scale(0.015625)"/>
      <path id="DejaVuSans-75" d="M 544 1381 
L 544 3500 
L 1119 3500 
L 1119 1403 
Q 1119 906 1312 657 
Q 1506 409 1894 409 
Q 2359 409 2629 706 
Q 2900 1003 2900 1516 
L 2900 3500 
L 3475 3500 
L 3475 0 
L 2900 0 
L 2900 538 
Q 2691 219 2414 64 
Q 2138 -91 1772 -91 
Q 1169 -91 856 284 
Q 544 659 544 1381 
z
M 1991 3584 
L 1991 3584 
z
" transform="scale(0.015625)"/>
      <path id="DejaVuSans-2d" d="M 313 2009 
L 1997 2009 
L 1997 1497 
L 313 1497 
L 313 2009 
z
" transform="scale(0.015625)"/>
      <path id="DejaVuSans-53" d="M 3425 4513 
L 3425 3897 
Q 3066 4069 2747 4153 
Q 2428 4238 2131 4238 
Q 1616 4238 1336 4038 
Q 1056 3838 1056 3469 
Q 1056 3159 1242 3001 
Q 1428 2844 1947 2747 
L 2328 2669 
Q 3034 2534 3370 2195 
Q 3706 1856 3706 1288 
Q 3706 609 3251 259 
Q 2797 -91 1919 -91 
Q 1588 -91 1214 -16 
Q 841 59 441 206 
L 441 856 
Q 825 641 1194 531 
Q 1563 422 1919 422 
Q 2459 422 2753 634 
Q 3047 847 3047 1241 
Q 3047 1584 2836 1778 
Q 2625 1972 2144 2069 
L 1759 2144 
Q 1053 2284 737 2584 
Q 422 2884 422 3419 
Q 422 4038 858 4394 
Q 1294 4750 2059 4750 
Q 2388 4750 2728 4690 
Q 3069 4631 3425 4513 
z
" transform="scale(0.015625)"/>
      <path id="DejaVuSans-74" d="M 1172 4494 
L 1172 3500 
L 2356 3500 
L 2356 3053 
L 1172 3053 
L 1172 1153 
Q 1172 725 1289 603 
Q 1406 481 1766 481 
L 2356 481 
L 2356 0 
L 1766 0 
Q 1100 0 847 248 
Q 594 497 594 1153 
L 594 3053 
L 172 3053 
L 172 3500 
L 594 3500 
L 594 4494 
L 1172 4494 
z
" transform="scale(0.015625)"/>
     </defs>
     <use xlink:href="#DejaVuSans-51"/>
     <use xlink:href="#DejaVuSans-75" x="78.710938"/>
     <use xlink:href="#DejaVuSans-61" x="142.089844"/>
     <use xlink:href="#DejaVuSans-64" x="203.369141"/>
     <use xlink:href="#DejaVuSans-20" x="266.845703"/>
     <use xlink:href="#DejaVuSans-43" x="298.632812"/>
     <use xlink:href="#DejaVuSans-68" x="368.457031"/>
     <use xlink:href="#DejaVuSans-61" x="431.835938"/>
     <use xlink:href="#DejaVuSans-69" x="493.115234"/>
     <use xlink:href="#DejaVuSans-72" x="520.898438"/>
     <use xlink:href="#DejaVuSans-20" x="562.011719"/>
     <use xlink:href="#DejaVuSans-2d" x="593.798828"/>
     <use xlink:href="#DejaVuSans-20" x="629.882812"/>
     <use xlink:href="#DejaVuSans-53" x="661.669922"/>
     <use xlink:href="#DejaVuSans-6f" x="725.146484"/>
     <use xlink:href="#DejaVuSans-75" x="786.328125"/>
     <use xlink:href="#DejaVuSans-74" x="849.707031"/>
     <use xlink:href="#DejaVuSans-68" x="888.916016"/>
    </g>
   </g>
   <g id="text_4">
    <g id="patch_5">
     <path d="M 27.969957 34.410588 
L 30.337525 54.27468 
L 32.299265 54.040863 
L 29.931697 34.176772 
z
" style="fill: #ffffff"/>
    </g>
    <!-- Quad Chair - Center -->
    <g style="fill: #808080" transform="translate(28.405197 34.378854)rotate(-276.796924)scale(0.02 -0.02)">
     <defs>
      <path id="DejaVuSans-6e" d="M 3513 2113 
L 3513 0 
L 2938 0 
L 2938 2094 
Q 2938 2591 2744 2837 
Q 2550 3084 2163 3084 
Q 1697 3084 1428 2787 
Q 1159 2491 1159 1978 
L 1159 0 
L 581 0 
L 581 3500 
L 1159 3500 
L 1159 2956 
Q 1366 3272 1645 3428 
Q 1925 3584 2291 3584 
Q 2894 3584 3203 3211 
Q 3513 2838 3513 2113 
z
" transform="scale(0.015625)"/>
     </defs>
     <use xlink:href="#DejaVuSans-51"/>
     <use xlink:href="#DejaVuSans-75" x="78.710938"/>
     <use xlink:href="#DejaVuSans-61" x="142.089844"/>
     <use xlink:href="#DejaVuSans-64" x="203.369141"/>
     <use xlink:href="#DejaVuSans-20" x="266.845703"/>
     <use xlink:href="#DejaVuSans-43" x="298.632812"/>
     <use xlink:href="#DejaVuSans-68" x="368.457031"/>
     <use xlink:href="#DejaVuSans-61" x="431.835938"/>
     <use xlink:href="#DejaVuSans-69" x="493.115234"/>
     <use xlink:href="#DejaVuSans-72" x="520.898438"/>
     <use xlink:href="#DejaVuSans-20" x="562.011719"/>
     <use xlink:href="#DejaVuSans-2d" x="593.798828"/>
     <use xlink:href="#DejaVuSans-20" x="629.882812"/>
     <use xlink:href="#DejaVuSans-43" x="661.669922"/>
     <use xlink:href="#DejaVuSans-65" x="731.494141"/>
     <use xlink:href="#DejaVuSans-6e" x="793.017578"/>
     <use xlink:href="#DejaVuSans-74" x="856.396484"/>
     <use xlink:href="#DejaVuSans-65" x="895.605469"/>
     <use xlink:href="#DejaVuSans-72" x="957.128906"/>
    </g>
   </g>
   <g id="text_5">
    <g id="patch_6">
     <path d="M 4.826303 44.732311 
L 12.395504 57.304614 
L 14.088053 56.285608 
L 6.518852 43.713305 
z
" style="fill: #ffffff"/>
    </g>
    <!-- Rail Yard 14.8° -->
    <g style="fill: #008000" transform="translate(5.210093 44.524593)rotate(-301.0502)scale(0.02 -0.02)">
     <defs>
      <path id="DejaVuSans-59" d="M -13 4666 
L 666 4666 
L 1959 2747 
L 3244 4666 
L 3922 4666 
L 2272 2222 
L 2272 0 
L 1638 0 
L 1638 2222 
L -13 4666 
z
" transform="scale(0.015625)"/>
      <path id="DejaVuSans-31" d="M 794 531 
L 1825 531 
L 1825 4091 
L 703 3866 
L 703 4441 
L 1819 4666 
L 2450 4666 
L 2450 531 
L 3481 531 
L 3481 0 
L 794 0 
L 794 531 
z
" transform="scale(0.015625)"/>
      <path id="DejaVuSans-34" d="M 2419 4116 
L 825 1625 
L 2419 1625 
L 2419 4116 
z
M 2253 4666 
L 3047 4666 
L 3047 1625 
L 3713 1625 
L 3713 1100 
L 3047 1100 
L 3047 0 
L 2419 0 
L 2419 1100 
L 313 1100 
L 313 1709 
L 2253 4666 
z
" transform="scale(0.015625)"/>
      <path id="DejaVuSans-2e" d="M 684 794 
L 1344 794 
L 1344 0 
L 684 0 
L 684 794 
z
" transform="scale(0.015625)"/>
      <path id="DejaVuSans-38" d="M 2034 2216 
Q 1584 2216 1326 1975 
Q 1069 1734 1069 1313 
Q 1069 891 1326 650 
Q 1584 409 2034 409 
Q 2484 409 2743 651 
Q 3003 894 3003 1313 
Q 3003 1734 2745 1975 
Q 2488 2216 2034 2216 
z
M 1403 2484 
Q 997 2584 770 2862 
Q 544 3141 544 3541 
Q 544 4100 942 4425 
Q 1341 4750 2034 4750 
Q 2731 4750 3128 4425 
Q 3525 4100 3525 3541 
Q 3525 3141 3298 2862 
Q 3072 2584 2669 2484 
Q 3125 2378 3379 2068 
Q 3634 1759 3634 1313 
Q 3634 634 3220 271 
Q 2806 -91 2034 -91 
Q 1263 -91 848 271 
Q 434 634 434 1313 
Q 434 1759 690 2068 
Q 947 2378 1403 2484 
z
M 1172 3481 
Q 1172 3119 1398 2916 
Q 1625 2713 2034 2713 
Q 2441 2713 2670 2916 
Q 2900 3119 2900 3481 
Q 2900 3844 2670 4047 
Q 2441 4250 2034 4250 
Q 1625 4250 1398 4047 
Q 1172 3844 1172 3481 
z
" transform="scale(0.015625)"/>
      <path id="DejaVuSans-b0" d="M 1600 4347 
Q 1350 4347 1178 4173 
Q 1006 4000 1006 3750 
Q 1006 3503 1178 3333 
Q 1350 3163 1600 3163 
Q 1850 3163 2022 3333 
Q 2194 3503 2194 3750 
Q 2194 3997 2020 4172 
Q 1847 4347 1600 4347 
z
M 1600 4750 
Q 1800 4750 1984 4673 
Q 2169 4597 2303 4453 
Q 2447 4313 2519 4134 
Q 2591 3956 2591 3750 
Q 2591 3338 2302 3052 
Q 2013 2766 1594 2766 
Q 1172 2766 890 3047 
Q 609 3328 609 3750 
Q 609 4169 896 4459 
Q 1184 4750 1600 4750 
z
" transform="scale(0.015625)"/>
     </defs>
     <use xlink:href="#DejaVuSans-52"/>
     <use xlink:href="#DejaVuSans-61" x="67.232422"/>
     <use xlink:href="#DejaVuSans-69" x="128.511719"/>
     <use xlink:href="#DejaVuSans-6c" x="156.294922"/>
     <use xlink:href="#DejaVuSans-20" x="184.078125"/>
     <use xlink:href="#DejaVuSans-59" x="215.865234"/>
     <use xlink:href="#DejaVuSans-61" x="263.199219"/>
     <use xlink:href="#DejaVuSans-72" x="324.478516"/>
     <use xlink:href="#DejaVuSans-64" x="363.841797"/>
     <use xlink:href="#DejaVuSans-20" x="427.318359"/>
     <use xlink:href="#DejaVuSans-31" x="459.105469"/>
     <use xlink:href="#DejaVuSans-34" x="522.728516"/>
     <use xlink:href="#DejaVuSans-2e" x="586.351562"/>
     <use xlink:href="#DejaVuSans-38" x="618.138672"/>
     <use xlink:href="#DejaVuSans-b0" x="681.761719"/>
    </g>
   </g>
   <g id="text_6">
    <g id="patch_7">
     <path d="M 9.449113 37.554872 
L 15.777816 56.314553 
L 17.649787 55.683031 
L 11.321084 36.92335 
z
" style="fill: #ffffff"/>
    </g>
    <!-- Warner's Way 15.7° -->
    <g style="fill: #008000" transform="translate(9.868571 37.434472)rotate(-288.642166)scale(0.02 -0.02)">
     <defs>
      <path id="DejaVuSans-57" d="M 213 4666 
L 850 4666 
L 1831 722 
L 2809 4666 
L 3519 4666 
L 4500 722 
L 5478 4666 
L 6119 4666 
L 4947 0 
L 4153 0 
L 3169 4050 
L 2175 0 
L 1381 0 
L 213 4666 
z
" transform="scale(0.015625)"/>
      <path id="DejaVuSans-79" d="M 2059 -325 
Q 1816 -950 1584 -1140 
Q 1353 -1331 966 -1331 
L 506 -1331 
L 506 -850 
L 844 -850 
Q 1081 -850 1212 -737 
Q 1344 -625 1503 -206 
L 1606 56 
L 191 3500 
L 800 3500 
L 1894 763 
L 2988 3500 
L 3597 3500 
L 2059 -325 
z
" transform="scale(0.015625)"/>
      <path id="DejaVuSans-35" d="M 691 4666 
L 3169 4666 
L 3169 4134 
L 1269 4134 
L 1269 2991 
Q 1406 3038 1543 3061 
Q 1681 3084 1819 3084 
Q 2600 3084 3056 2656 
Q 3513 2228 3513 1497 
Q 3513 744 3044 326 
Q 2575 -91 1722 -91 
Q 1428 -91 1123 -41 
Q 819 9 494 109 
L 494 744 
Q 775 591 1075 516 
Q 1375 441 1709 441 
Q 2250 441 2565 725 
Q 2881 1009 2881 1497 
Q 2881 1984 2565 2268 
Q 2250 2553 1709 2553 
Q 1456 2553 1204 2497 
Q 953 2441 691 2322 
L 691 4666 
z
" transform="scale(0.015625)"/>
      <path id="DejaVuSans-37" d="M 525 4666 
L 3525 4666 
L 3525 4397 
L 1831 0 
L 1172 0 
L 2766 4134 
L 525 4134 
L 525 4666 
z
" transform="scale(0.015625)"/>
     </defs>
     <use xlink:href="#DejaVuSans-57"/>
     <use xlink:href="#DejaVuSans-61" x="92.501953"/>
     <use xlink:href="#DejaVuSans-72" x="153.78125"/>
     <use xlink:href="#DejaVuSans-6e" x="193.144531"/>
     <use xlink:href="#DejaVuSans-65" x="256.523438"/>
     <use xlink:href="#DejaVuSans-72" x="318.046875"/>
     <use xlink:href="#DejaVuSans-27" x="359.160156"/>
     <use xlink:href="#DejaVuSans-73" x="386.650391"/>
     <use xlink:href="#DejaVuSans-20" x="438.75"/>
     <use xlink:href="#DejaVuSans-57" x="470.537109"/>
     <use xlink:href="#DejaVuSans-61" x="563.039062"/>
     <use xlink:href="#DejaVuSans-79" x="624.318359"/>
     <use xlink:href="#DejaVuSans-20" x="683.498047"/>
     <use xlink:href="#DejaVuSans-31" x="715.285156"/>
     <use xlink:href="#DejaVuSans-35" x="778.908203"/>
     <use xlink:href="#DejaVuSans-2e" x="842.53125"/>
     <use xlink:href="#DejaVuSans-37" x="874.318359"/>
     <use xlink:href="#DejaVuSans-b0" x="937.941406"/>
    </g>
   </g>
   <g id="text_7">
    <g id="patch_8">
     <path d="M 18.52902 33.18856 
L 21.564908 55.699456 
L 23.522808 55.435408 
L 20.48692 32.924512 
z
" style="fill: #ffffff"/>
    </g>
    <!-- Olympic Dreams 17.1° -->
    <g style="fill: #4169e1" transform="translate(18.96372 33.150117)rotate(-277.68074)scale(0.02 -0.02)">
     <defs>
      <path id="DejaVuSans-4f" d="M 2522 4238 
Q 1834 4238 1429 3725 
Q 1025 3213 1025 2328 
Q 1025 1447 1429 934 
Q 1834 422 2522 422 
Q 3209 422 3611 934 
Q 4013 1447 4013 2328 
Q 4013 3213 3611 3725 
Q 3209 4238 2522 4238 
z
M 2522 4750 
Q 3503 4750 4090 4092 
Q 4678 3434 4678 2328 
Q 4678 1225 4090 567 
Q 3503 -91 2522 -91 
Q 1538 -91 948 565 
Q 359 1222 359 2328 
Q 359 3434 948 4092 
Q 1538 4750 2522 4750 
z
" transform="scale(0.015625)"/>
      <path id="DejaVuSans-63" d="M 3122 3366 
L 3122 2828 
Q 2878 2963 2633 3030 
Q 2388 3097 2138 3097 
Q 1578 3097 1268 2742 
Q 959 2388 959 1747 
Q 959 1106 1268 751 
Q 1578 397 2138 397 
Q 2388 397 2633 464 
Q 2878 531 3122 666 
L 3122 134 
Q 2881 22 2623 -34 
Q 2366 -91 2075 -91 
Q 1284 -91 818 406 
Q 353 903 353 1747 
Q 353 2603 823 3093 
Q 1294 3584 2113 3584 
Q 2378 3584 2631 3529 
Q 2884 3475 3122 3366 
z
" transform="scale(0.015625)"/>
      <path id="DejaVuSans-44" d="M 1259 4147 
L 1259 519 
L 2022 519 
Q 2988 519 3436 956 
Q 3884 1394 3884 2338 
Q 3884 3275 3436 3711 
Q 2988 4147 2022 4147 
L 1259 4147 
z
M 628 4666 
L 1925 4666 
Q 3281 4666 3915 4102 
Q 4550 3538 4550 2338 
Q 4550 1131 3912 565 
Q 3275 0 1925 0 
L 628 0 
L 628 4666 
z
" transform="scale(0.015625)"/>
     </defs>
     <use xlink:href="#DejaVuSans-4f"/>
     <use xlink:href="#DejaVuSans-6c" x="78.710938"/>
     <use xlink:href="#DejaVuSans-79" x="106.494141"/>
     <use xlink:href="#DejaVuSans-6d" x="165.673828"/>
     <use xlink:href="#DejaVuSans-70" x="263.085938"/>
     <use xlink:href="#DejaVuSans-69" x="326.5625"/>
     <use xlink:href="#DejaVuSans-63" x="354.345703"/>
     <use xlink:href="#DejaVuSans-20" x="409.326172"/>
     <use xlink:href="#DejaVuSans-44" x="441.113281"/>
     <use xlink:href="#DejaVuSans-72" x="518.115234"/>
     <use xlink:href="#DejaVuSans-65" x="556.978516"/>
     <use xlink:href="#DejaVuSans-61" x="618.501953"/>
     <use xlink:href="#DejaVuSans-6d" x="679.78125"/>
     <use xlink:href="#DejaVuSans-73" x="777.193359"/>
     <use xlink:href="#DejaVuSans-20" x="829.292969"/>
     <use xlink:href="#DejaVuSans-31" x="861.080078"/>
     <use xlink:href="#DejaVuSans-37" x="924.703125"/>
     <use xlink:href="#DejaVuSans-2e" x="988.326172"/>
     <use xlink:href="#DejaVuSans-31" x="1020.113281"/>
     <use xlink:href="#DejaVuSans-b0" x="1083.736328"/>
    </g>
   </g>
   <g id="text_8">
    <g id="patch_9">
     <path d="M 18.328579 8.401415 
L 34.395743 15.776745 
L 35.219931 13.981249 
L 19.152767 6.605918 
z
" style="fill: #ffffff"/>
    </g>
    <!-- Mouse Pass 10.4° -->
    <g style="fill: #008000" transform="translate(18.528619 8.013568)rotate(-335.343399)scale(0.02 -0.02)">
     <defs>
      <path id="DejaVuSans-4d" d="M 628 4666 
L 1569 4666 
L 2759 1491 
L 3956 4666 
L 4897 4666 
L 4897 0 
L 4281 0 
L 4281 4097 
L 3078 897 
L 2444 897 
L 1241 4097 
L 1241 0 
L 628 0 
L 628 4666 
z
" transform="scale(0.015625)"/>
      <path id="DejaVuSans-50" d="M 1259 4147 
L 1259 2394 
L 2053 2394 
Q 2494 2394 2734 2622 
Q 2975 2850 2975 3272 
Q 2975 3691 2734 3919 
Q 2494 4147 2053 4147 
L 1259 4147 
z
M 628 4666 
L 2053 4666 
Q 2838 4666 3239 4311 
Q 3641 3956 3641 3272 
Q 3641 2581 3239 2228 
Q 2838 1875 2053 1875 
L 1259 1875 
L 1259 0 
L 628 0 
L 628 4666 
z
" transform="scale(0.015625)"/>
      <path id="DejaVuSans-30" d="M 2034 4250 
Q 1547 4250 1301 3770 
Q 1056 3291 1056 2328 
Q 1056 1369 1301 889 
Q 1547 409 2034 409 
Q 2525 409 2770 889 
Q 3016 1369 3016 2328 
Q 3016 3291 2770 3770 
Q 2525 4250 2034 4250 
z
M 2034 4750 
Q 2819 4750 3233 4129 
Q 3647 3509 3647 2328 
Q 3647 1150 3233 529 
Q 2819 -91 2034 -91 
Q 1250 -91 836 529 
Q 422 1150 422 2328 
Q 422 3509 836 4129 
Q 1250 4750 2034 4750 
z
" transform="scale(0.015625)"/>
     </defs>
     <use xlink:href="#DejaVuSans-4d"/>
     <use xlink:href="#DejaVuSans-6f" x="86.279297"/>
     <use xlink:href="#DejaVuSans-75" x="147.460938"/>
     <use xlink:href="#DejaVuSans-73" x="210.839844"/>
     <use xlink:href="#DejaVuSans-65" x="262.939453"/>
     <use xlink:href="#DejaVuSans-20" x="324.462891"/>
     <use xlink:href="#DejaVuSans-50" x="356.25"/>
     <use xlink:href="#DejaVuSans-61" x="412.052734"/>
     <use xlink:href="#DejaVuSans-73" x="473.332031"/>
     <use xlink:href="#DejaVuSans-73" x="525.431641"/>
     <use xlink:href="#DejaVuSans-20" x="577.53125"/>
     <use xlink:href="#DejaVuSans-31" x="609.318359"/>
     <use xlink:href="#DejaVuSans-30" x="672.941406"/>
     <use xlink:href="#DejaVuSans-2e" x="736.564453"/>
     <use xlink:href="#DejaVuSans-34" x="768.351562"/>
     <use xlink:href="#DejaVuSans-b0" x="831.974609"/>
    </g>
   </g>
   <g id="text_9">
    <g id="patch_10">
     <path d="M 22.808577 25.680496 
L 24.953664 42.693926 
L 26.913771 42.446792 
L 24.768684 25.433362 
z
" style="fill: #ffffff"/>
    </g>
    <!-- Crossroads 17.3° -->
    <g style="fill: #4169e1" transform="translate(23.243592 25.645807)rotate(-277.186047)scale(0.02 -0.02)">
     <defs>
      <path id="DejaVuSans-33" d="M 2597 2516 
Q 3050 2419 3304 2112 
Q 3559 1806 3559 1356 
Q 3559 666 3084 287 
Q 2609 -91 1734 -91 
Q 1441 -91 1130 -33 
Q 819 25 488 141 
L 488 750 
Q 750 597 1062 519 
Q 1375 441 1716 441 
Q 2309 441 2620 675 
Q 2931 909 2931 1356 
Q 2931 1769 2642 2001 
Q 2353 2234 1838 2234 
L 1294 2234 
L 1294 2753 
L 1863 2753 
Q 2328 2753 2575 2939 
Q 2822 3125 2822 3475 
Q 2822 3834 2567 4026 
Q 2313 4219 1838 4219 
Q 1578 4219 1281 4162 
Q 984 4106 628 3988 
L 628 4550 
Q 988 4650 1302 4700 
Q 1616 4750 1894 4750 
Q 2613 4750 3031 4423 
Q 3450 4097 3450 3541 
Q 3450 3153 3228 2886 
Q 3006 2619 2597 2516 
z
" transform="scale(0.015625)"/>
     </defs>
     <use xlink:href="#DejaVuSans-43"/>
     <use xlink:href="#DejaVuSans-72" x="69.824219"/>
     <use xlink:href="#DejaVuSans-6f" x="108.6875"/>
     <use xlink:href="#DejaVuSans-73" x="169.869141"/>
     <use xlink:href="#DejaVuSans-73" x="221.96875"/>
     <use xlink:href="#DejaVuSans-72" x="274.068359"/>
     <use xlink:href="#DejaVuSans-6f" x="312.931641"/>
     <use xlink:href="#DejaVuSans-61" x="374.113281"/>
     <use xlink:href="#DejaVuSans-64" x="435.392578"/>
     <use xlink:href="#DejaVuSans-73" x="498.869141"/>
     <use xlink:href="#DejaVuSans-20" x="550.96875"/>
     <use xlink:href="#DejaVuSans-31" x="582.755859"/>
     <use xlink:href="#DejaVuSans-37" x="646.378906"/>
     <use xlink:href="#DejaVuSans-2e" x="710.001953"/>
     <use xlink:href="#DejaVuSans-33" x="741.789062"/>
     <use xlink:href="#DejaVuSans-b0" x="805.412109"/>
    </g>
   </g>
   <g id="text_10">
    <g id="patch_11">
     <path d="M 27.603208 20.738743 
L 30.916283 34.951772 
L 32.840327 34.503275 
L 29.527252 20.290246 
z
" style="fill: #ffffff"/>
    </g>
    <!-- Milk Run 18.7° -->
    <g style="fill: #4169e1" transform="translate(28.032304 20.659257)rotate(-283.121409)scale(0.02 -0.02)">
     <defs>
      <path id="DejaVuSans-6b" d="M 581 4863 
L 1159 4863 
L 1159 1991 
L 2875 3500 
L 3609 3500 
L 1753 1863 
L 3688 0 
L 2938 0 
L 1159 1709 
L 1159 0 
L 581 0 
L 581 4863 
z
" transform="scale(0.015625)"/>
     </defs>
     <use xlink:href="#DejaVuSans-4d"/>
     <use xlink:href="#DejaVuSans-69" x="86.279297"/>
     <use xlink:href="#DejaVuSans-6c" x="114.0625"/>
     <use xlink:href="#DejaVuSans-6b" x="141.845703"/>
     <use xlink:href="#DejaVuSans-20" x="199.755859"/>
     <use xlink:href="#DejaVuSans-52" x="231.542969"/>
     <use xlink:href="#DejaVuSans-75" x="296.525391"/>
     <use xlink:href="#DejaVuSans-6e" x="359.904297"/>
     <use xlink:href="#DejaVuSans-20" x="423.283203"/>
     <use xlink:href="#DejaVuSans-31" x="455.070312"/>
     <use xlink:href="#DejaVuSans-38" x="518.693359"/>
     <use xlink:href="#DejaVuSans-2e" x="582.316406"/>
     <use xlink:href="#DejaVuSans-37" x="614.103516"/>
     <use xlink:href="#DejaVuSans-b0" x="677.726562"/>
    </g>
   </g>
   <g id="text_11">
    <g id="patch_12">
     <path d="M 41.415296 17.334887 
L 44.324953 36.37573 
L 46.277908 36.077297 
L 43.36825 17.036453 
z
" style="fill: #ffffff"/>
    </g>
    <!-- Teacher's Pet 11.8° -->
    <g style="fill: #008000" transform="translate(41.849252 17.288805)rotate(-278.688234)scale(0.02 -0.02)">
     <use xlink:href="#DejaVuSans-54"/>
     <use xlink:href="#DejaVuSans-65" x="44.083984"/>
     <use xlink:href="#DejaVuSans-61" x="105.607422"/>
     <use xlink:href="#DejaVuSans-63" x="166.886719"/>
     <use xlink:href="#DejaVuSans-68" x="221.867188"/>
     <use xlink:href="#DejaVuSans-65" x="285.246094"/>
     <use xlink:href="#DejaVuSans-72" x="346.769531"/>
     <use xlink:href="#DejaVuSans-27" x="387.882812"/>
     <use xlink:href="#DejaVuSans-73" x="415.373047"/>
     <use xlink:href="#DejaVuSans-20" x="467.472656"/>
     <use xlink:href="#DejaVuSans-50" x="499.259766"/>
     <use xlink:href="#DejaVuSans-65" x="555.9375"/>
     <use xlink:href="#DejaVuSans-74" x="617.460938"/>
     <use xlink:href="#DejaVuSans-20" x="656.669922"/>
     <use xlink:href="#DejaVuSans-31" x="688.457031"/>
     <use xlink:href="#DejaVuSans-31" x="752.080078"/>
     <use xlink:href="#DejaVuSans-2e" x="815.703125"/>
     <use xlink:href="#DejaVuSans-38" x="847.490234"/>
     <use xlink:href="#DejaVuSans-b0" x="911.113281"/>
    </g>
   </g>
   <g id="text_12">
    <!-- Buck Hill -->
    <g transform="translate(22.359423 5.455083)scale(0.05 -0.05)">
     <defs>
      <path id="DejaVuSans-42" d="M 1259 2228 
L 1259 519 
L 2272 519 
Q 2781 519 3026 730 
Q 3272 941 3272 1375 
Q 3272 1813 3026 2020 
Q 2781 2228 2272 2228 
L 1259 2228 
z
M 1259 4147 
L 1259 2741 
L 2194 2741 
Q 2656 2741 2882 2914 
Q 3109 3088 3109 3444 
Q 3109 3797 2882 3972 
Q 2656 4147 2194 4147 
L 1259 4147 
z
M 628 4666 
L 2241 4666 
Q 2963 4666 3353 4366 
Q 3744 4066 3744 3513 
Q 3744 3084 3544 2831 
Q 3344 2578 2956 2516 
Q 3422 2416 3680 2098 
Q 3938 1781 3938 1306 
Q 3938 681 3513 340 
Q 3088 0 2303 0 
L 628 0 
L 628 4666 
z
" transform="scale(0.015625)"/>
      <path id="DejaVuSans-48" d="M 628 4666 
L 1259 4666 
L 1259 2753 
L 3553 2753 
L 3553 4666 
L 4184 4666 
L 4184 0 
L 3553 0 
L 3553 2222 
L 1259 2222 
L 1259 0 
L 628 0 
L 628 4666 
z
" transform="scale(0.015625)"/>
     </defs>
     <use xlink:href="#DejaVuSans-42"/>
     <use xlink:href="#DejaVuSans-75" x="68.603516"/>
     <use xlink:href="#DejaVuSans-63" x="131.982422"/>
     <use xlink:href="#DejaVuSans-6b" x="186.962891"/>
     <use xlink:href="#DejaVuSans-20" x="244.873047"/>
     <use xlink:href="#DejaVuSans-48" x="276.660156"/>
     <use xlink:href="#DejaVuSans-69" x="351.855469"/>
     <use xlink:href="#DejaVuSans-6c" x="379.638672"/>
     <use xlink:href="#DejaVuSans-6c" x="407.421875"/>
    </g>
   </g>
  </g>
  <g id="text_13">
   <!-- Sources: USGS and OpenStreetMaps -->
   <g transform="translate(13.409168 75.402612)scale(0.021739 -0.021739)">
    <defs>
     <path id="DejaVuSans-3a" d="M 750 794 
L 1409 794 
L 1409 0 
L 750 0 
L 750 794 
z
M 750 3309 
L 1409 3309 
L 1409 2516 
L 750 2516 
L 750 3309 
z
" transform="scale(0.015625)"/>
     <path id="DejaVuSans-55" d="M 556 4666 
L 1191 4666 
L 1191 1831 
Q 1191 1081 1462 751 
Q 1734 422 2344 422 
Q 2950 422 3222 751 
Q 3494 1081 3494 1831 
L 3494 4666 
L 4128 4666 
L 4128 1753 
Q 4128 841 3676 375 
Q 3225 -91 2344 -91 
Q 1459 -91 1007 375 
Q 556 841 556 1753 
L 556 4666 
z
" transform="scale(0.015625)"/>
     <path id="DejaVuSans-47" d="M 3809 666 
L 3809 1919 
L 2778 1919 
L 2778 2438 
L 4434 2438 
L 4434 434 
Q 4069 175 3628 42 
Q 3188 -91 2688 -91 
Q 1594 -91 976 548 
Q 359 1188 359 2328 
Q 359 3472 976 4111 
Q 1594 4750 2688 4750 
Q 3144 4750 3555 4637 
Q 3966 4525 4313 4306 
L 4313 3634 
Q 3963 3931 3569 4081 
Q 3175 4231 2741 4231 
Q 1884 4231 1454 3753 
Q 1025 3275 1025 2328 
Q 1025 1384 1454 906 
Q 1884 428 2741 428 
Q 3075 428 3337 486 
Q 3600 544 3809 666 
z
" transform="scale(0.015625)"/>
    </defs>
    <use xlink:href="#DejaVuSans-53"/>
    <use xlink:href="#DejaVuSans-6f" x="63.476562"/>
    <use xlink:href="#DejaVuSans-75" x="124.658203"/>
    <use xlink:href="#DejaVuSans-72" x="188.037109"/>
    <use xlink:href="#DejaVuSans-63" x="226.900391"/>
    <use xlink:href="#DejaVuSans-65" x="281.880859"/>
    <use xlink:href="#DejaVuSans-73" x="343.404297"/>
    <use xlink:href="#DejaVuSans-3a" x="395.503906"/>
    <use xlink:href="#DejaVuSans-20" x="429.195312"/>
    <use xlink:href="#DejaVuSans-55" x="460.982422"/>
    <use xlink:href="#DejaVuSans-53" x="534.175781"/>
    <use xlink:href="#DejaVuSans-47" x="597.652344"/>
    <use xlink:href="#DejaVuSans-53" x="675.142578"/>
    <use xlink:href="#DejaVuSans-20" x="738.619141"/>
    <use xlink:href="#DejaVuSans-61" x="770.40625"/>
    <use xlink:href="#DejaVuSans-6e" x="831.685547"/>
    <use xlink:href="#DejaVuSans-64" x="895.064453"/>
    <use xlink:href="#DejaVuSans-20" x="958.541016"/>
    <use xlink:href="#DejaVuSans-4f" x="990.328125"/>
    <use xlink:href="#DejaVuSans-70" x="1069.039062"/>
    <use xlink:href="#DejaVuSans-65" x="1132.515625"/>
    <use xlink:href="#DejaVuSans-6e" x="1194.039062"/>
    <use xlink:href="#DejaVuSans-53" x="1257.417969"/>
    <use xlink:href="#DejaVuSans-74" x="1320.894531"/>
    <use xlink:href="#DejaVuSans-72" x="1360.103516"/>
    <use xlink:href="#DejaVuSans-65" x="1398.966797"/>
    <use xlink:href="#DejaVuSans-65" x="1460.490234"/>
    <use xlink:href="#DejaVuSans-74" x="1522.013672"/>
    <use xlink:href="#DejaVuSans-4d" x="1561.222656"/>
    <use xlink:href="#DejaVuSans-61" x="1647.501953"/>
    <use xlink:href="#DejaVuSans-70" x="1708.78125"/>
    <use xlink:href="#DejaVuSans-73" x="1772.257812"/>
   </g>
  </g>
 </g>
 <defs>
  <clipPath id="pdb7392479a">
   <rect x="0" y="7.955083" width="66.479002" height="59.944552"/>
  </clipPath>
 </defs>
</svg>
