<?xml version="1.0" encoding="utf-8" standalone="no"?>
<!DOCTYPE svg PUBLIC "-//W3C//DTD SVG 1.1//EN"
  "http://www.w3.org/Graphics/SVG/1.1/DTD/svg11.dtd">
<svg xmlns:xlink="http://www.w3.org/1999/xlink" width="96.269919pt" height="147.368637pt" viewBox="0 0 96.269919 147.368637" xmlns="http://www.w3.org/2000/svg" version="1.1">
 <metadata>
  <rdf:RDF xmlns:dc="http://purl.org/dc/elements/1.1/" xmlns:cc="http://creativecommons.org/ns#" xmlns:rdf="http://www.w3.org/1999/02/22-rdf-syntax-ns#">
   <cc:Work>
    <dc:type rdf:resource="http://purl.org/dc/dcmitype/StillImage"/>
    <dc:date>2022-05-17T14:50:48.720086</dc:date>
    <dc:format>image/svg+xml</dc:format>
    <dc:creator>
     <cc:Agent>
      <dc:title>Matplotlib v3.5.2, https://matplotlib.org/</dc:title>
     </cc:Agent>
    </dc:creator>
   </cc:Work>
  </rdf:RDF>
 </metadata>
 <defs>
  <style type="text/css">*{stroke-linejoin: round; stroke-linecap: butt}</style>
 </defs>
 <g id="figure_1">
  <g id="patch_1">
   <path d="M 0 147.368637 
L 96.269919 147.368637 
L 96.269919 0 
L 0 0 
L 0 147.368637 
z
" style="fill: none"/>
  </g>
  <g id="axes_1">
   <g id="line2d_1">
    <path d="M 47.10666 76.135555 
" clip-path="url(#pe8e7ca9d83)" style="fill: none; stroke: #008000; stroke-width: 1.5; stroke-linecap: square"/>
   </g>
   <g id="line2d_2">
    <path d="M 47.10666 76.135555 
" clip-path="url(#pe8e7ca9d83)" style="fill: none; stroke: #4169e1; stroke-width: 1.5; stroke-linecap: square"/>
   </g>
   <g id="line2d_3">
    <path d="M 47.10666 76.135555 
" clip-path="url(#pe8e7ca9d83)" style="fill: none; stroke: #000000; stroke-width: 1.5; stroke-linecap: square"/>
   </g>
   <g id="line2d_4">
    <path d="M 47.10666 76.135555 
" clip-path="url(#pe8e7ca9d83)" style="fill: none; stroke: #ff0000; stroke-width: 1.5; stroke-linecap: square"/>
   </g>
   <g id="line2d_5">
    <path d="M 47.10666 76.135555 
" clip-path="url(#pe8e7ca9d83)" style="fill: none; stroke: #ffd700; stroke-width: 1.5; stroke-linecap: square"/>
   </g>
   <g id="line2d_6">
    <path d="M 47.10666 76.135555 
" clip-path="url(#pe8e7ca9d83)" style="fill: none; stroke-dasharray: 1.5,2.475; stroke-dashoffset: 0; stroke: #000000; stroke-width: 1.5"/>
   </g>
   <g id="line2d_7">
    <path d="M 50.145671 16.015288 
L 51.887315 17.675431 
L 52.970888 18.707606 
L 54.138936 19.822068 
L 56.734715 22.294959 
L 59.666308 25.089412 
L 62.597901 27.883865 
L 65.529494 30.678319 
L 68.461086 33.472772 
L 70.869143 35.7681 
L 72.136267 36.976395 
L 76.839747 41.458781 
L 80.34285 44.797833 
L 84.17238 48.448704 
L 88.301222 52.382521 
L 90.42561 54.407895 
" clip-path="url(#pe8e7ca9d83)" style="fill: none; stroke: #808080; stroke-width: 0.445694; stroke-linecap: square"/>
   </g>
   <g id="line2d_8">
    <path d="M 82.312888 91.647064 
L 77.788787 87.314813 
L 74.217375 83.894197 
L 70.645963 80.473581 
L 66.776802 76.768214 
L 62.907642 73.062847 
L 59.038482 69.357481 
L 55.169322 65.652114 
L 52.371742 62.97351 
L 49.574162 60.294906 
L 45.637735 56.524938 
L 41.701307 52.75497 
L 37.585501 48.813214 
L 33.469695 44.871457 
" clip-path="url(#pe8e7ca9d83)" style="fill: none; stroke: #808080; stroke-width: 0.445694; stroke-linecap: square"/>
   </g>
   <g id="line2d_9">
    <path d="M 58.172875 122.362593 
L 55.798712 127.344465 
L 53.42455 132.326337 
" clip-path="url(#pe8e7ca9d83)" style="fill: none; stroke: #808080; stroke-width: 0.445694; stroke-linecap: square"/>
   </g>
   <g id="line2d_10">
    <path d="M 61.225444 118.620775 
L 60.656021 116.907219 
L 59.675694 113.956496 
L 58.575434 110.647037 
L 57.475175 107.337578 
L 56.377001 104.032451 
L 55.278827 100.727323 
L 54.180653 97.422195 
L 53.082478 94.117067 
L 51.659962 89.835342 
L 50.198338 85.437408 
L 48.736713 81.039473 
L 47.483147 77.26734 
L 47.10666 76.135555 
" clip-path="url(#pe8e7ca9d83)" style="fill: none; stroke: #808080; stroke-width: 0.445694; stroke-linecap: square"/>
   </g>
   <g id="line2d_11">
    <path d="M 79.546074 94.324946 
L 75.976747 91.001051 
L 72.407421 87.677157 
L 69.388746 84.865019 
L 66.370071 82.052882 
L 63.942199 79.791839 
L 61.514327 77.530797 
L 59.086456 75.269755 
L 56.658584 73.008712 
L 52.723721 69.344128 
L 48.788858 65.679543 
L 45.999882 63.08178 
L 43.210906 60.484018 
L 40.421929 57.886255 
L 37.632953 55.288492 
L 34.33426 52.216506 
" clip-path="url(#pe8e7ca9d83)" style="fill: none; stroke: #808080; stroke-width: 0.445694; stroke-linecap: square"/>
   </g>
   <g id="line2d_12">
    <path d="M 47.10666 76.135555 
L 46.3443 75.426746 
L 45.38066 76.0013 
L 45.38066 77.243881 
L 45.38066 78.486462 
L 45.38066 79.729043 
L 45.38066 80.971623 
L 45.581418 82.429301 
L 45.782176 83.886979 
L 45.982935 85.344656 
L 46.183693 86.802334 
L 46.384451 88.260011 
L 46.58521 89.717689 
L 46.785968 91.175366 
L 46.986726 92.633044 
L 47.854289 94.274059 
L 48.721852 95.915074 
L 49.589414 97.556089 
L 50.456977 99.197104 
L 51.32454 100.838119 
L 52.192102 102.479134 
L 53.059665 104.12015 
L 53.927228 105.761165 
L 54.674335 107.314481 
L 55.421443 108.867797 
L 56.168551 110.421113 
L 56.915659 111.97443 
L 57.662766 113.527746 
L 58.409874 115.081062 
L 59.156982 116.634378 
L 59.904089 118.187694 
L 60.354101 119.271118 
L 60.804112 120.354542 
" clip-path="url(#pe8e7ca9d83)" style="fill: none; stroke: #008000; stroke-width: 0.445694; stroke-linecap: square"/>
   </g>
   <g id="line2d_13">
    <path d="M 46.3443 75.426746 
L 45.34833 74.789396 
L 44.35236 74.152046 
L 44.031147 73.005103 
L 43.709933 71.858161 
L 43.998817 70.838256 
L 44.2877 69.818351 
L 45.412468 70.009628 
L 46.537236 70.200906 
L 47.790281 70.838256 
L 49.043326 71.475607 
L 50.039295 72.590789 
L 51.035265 73.705972 
L 51.29234 75.044192 
L 51.549415 76.382411 
L 51.437043 77.434076 
L 51.32467 78.48574 
L 51.212298 79.537404 
L 51.099925 80.589069 
L 51.324931 81.720131 
L 51.549936 82.851194 
L 51.774942 83.982256 
L 51.999948 85.113319 
L 52.690609 86.276502 
L 53.381269 87.439684 
L 54.07193 88.602867 
L 54.762591 89.76605 
L 55.405278 90.602437 
L 56.047966 91.438824 
L 56.690653 92.275211 
L 57.33334 93.111598 
L 57.976027 93.947985 
L 58.618715 94.784373 
L 59.261402 95.62076 
L 59.904089 96.457147 
L 60.62708 97.173895 
L 61.350071 97.890644 
L 62.073061 98.607393 
L 62.796052 99.324141 
L 63.768035 99.611057 
L 64.740018 99.897973 
L 65.712001 100.184889 
L 66.683984 100.471805 
L 67.655967 100.758721 
L 68.62795 101.045637 
L 69.599934 101.332553 
L 70.571917 101.619469 
L 71.825222 102.543375 
L 73.078528 103.46728 
L 74.331833 104.391186 
L 75.585138 105.315091 
L 76.420502 106.127479 
L 77.255865 106.939866 
L 78.091228 107.752253 
L 78.926591 108.564641 
" clip-path="url(#pe8e7ca9d83)" style="fill: none; stroke: #008000; stroke-width: 0.445694; stroke-linecap: square"/>
   </g>
   <g id="line2d_14">
    <path d="M 30.02291 46.606667 
L 30.380103 48.377246 
L 30.737296 50.147824 
L 31.09449 51.918402 
L 31.451683 53.688981 
L 32.188232 55.215951 
L 32.92478 56.742922 
L 33.661328 58.269892 
L 34.397877 59.796863 
L 35.178748 60.792588 
L 35.95962 61.788312 
L 36.740491 62.784037 
L 37.521363 63.779762 
L 38.213327 64.510225 
L 38.905292 65.240688 
L 39.597256 65.97115 
L 40.28922 66.701613 
L 41.28884 67.480798 
L 42.28846 68.259982 
L 43.28808 69.039167 
L 44.2877 69.818351 
" clip-path="url(#pe8e7ca9d83)" style="fill: none; stroke: #4169e1; stroke-width: 0.445694; stroke-linecap: square"/>
   </g>
   <g id="line2d_15">
    <path d="M 34.397877 54.308286 
L 35.663892 55.358778 
L 36.929908 56.409269 
L 38.195924 57.459761 
L 39.46194 58.510252 
L 40.727956 59.560744 
L 41.993971 60.611235 
L 43.259987 61.661726 
L 44.526003 62.712218 
L 45.792019 63.762709 
L 47.058034 64.813201 
L 48.32405 65.863692 
L 49.590066 66.914184 
L 50.856082 67.964675 
L 52.122098 69.015167 
L 53.388113 70.065658 
L 54.654129 71.11615 
L 55.920145 72.166641 
L 57.186161 73.217132 
L 58.452177 74.267624 
L 59.718192 75.318115 
L 60.984208 76.368607 
L 62.250224 77.419098 
L 63.51624 78.46959 
L 64.782256 79.520081 
L 66.048271 80.570573 
L 67.314287 81.621064 
L 68.580303 82.671556 
L 69.846319 83.722047 
L 71.112335 84.772538 
L 72.37835 85.82303 
L 73.644366 86.873521 
L 74.910382 87.924013 
" clip-path="url(#pe8e7ca9d83)" style="fill: none; stroke: #4169e1; stroke-width: 0.445694; stroke-linecap: square"/>
   </g>
   <g id="line2d_16">
    <path d="M 52.073994 15.469606 
L 53.348744 16.238866 
L 54.623494 17.008125 
L 55.898244 17.777385 
L 57.172994 18.546645 
L 58.447744 19.315904 
L 59.722494 20.085164 
L 60.997244 20.854424 
L 62.271995 21.623683 
L 63.546745 22.392943 
L 64.821495 23.162203 
L 66.096245 23.931462 
L 67.370995 24.700722 
L 68.645745 25.469982 
L 69.920495 26.239241 
L 71.195245 27.008501 
L 72.469995 27.777761 
L 73.751459 28.085428 
L 75.032923 28.393096 
L 76.314386 28.700764 
L 77.59585 29.008432 
L 78.877314 29.316099 
L 80.158778 29.623767 
L 81.440241 29.931435 
L 82.721705 30.239103 
L 84.016466 31.175279 
L 85.311227 32.111455 
L 86.605987 33.047631 
L 87.900748 33.983807 
L 88.548389 35.482267 
L 89.19603 36.980726 
L 89.843671 38.479186 
L 90.491313 39.977645 
L 90.814872 41.529157 
L 91.138432 43.080668 
L 91.461992 44.63218 
L 91.785552 46.183692 
L 91.79911 47.186995 
L 91.812667 48.190299 
L 91.826225 49.193603 
L 91.839783 50.196907 
L 91.85334 51.20021 
L 91.866898 52.203514 
L 91.880456 53.206818 
L 91.894013 54.210121 
" clip-path="url(#pe8e7ca9d83)" style="fill: none; stroke: #000000; stroke-width: 0.445694; stroke-linecap: square"/>
   </g>
   <g id="line2d_17">
    <path d="M 53.044934 15.0423 
L 54.110583 15.343291 
L 55.176231 15.644282 
L 56.24188 15.945273 
L 57.307528 16.246264 
L 58.373177 16.547255 
L 59.438825 16.848246 
L 60.504474 17.149238 
L 61.570123 17.450229 
L 62.635771 17.75122 
L 63.70142 18.052211 
L 64.767068 18.353202 
L 65.832717 18.654193 
L 66.898365 18.955184 
L 67.964014 19.256175 
L 69.029663 19.557166 
L 70.095311 19.858158 
L 71.606213 19.376355 
L 73.117115 18.894553 
L 74.628017 18.412751 
L 76.138918 17.930948 
L 77.91941 17.904242 
L 79.699902 17.877535 
L 81.480393 17.850828 
L 83.260885 17.824122 
L 85.149577 18.305563 
L 87.03827 18.787005 
L 87.982355 19.2421 
L 88.926441 19.697196 
L 89.870526 20.152292 
L 90.814612 20.607387 
L 91.785552 21.997576 
L 90.652962 22.47974 
L 89.520372 22.961903 
L 88.440971 23.764546 
L 87.361569 24.567189 
L 87.415278 26.386128 
L 87.468987 28.205067 
L 87.684868 29.543286 
L 87.900748 30.881506 
L 87.900748 32.432657 
L 87.900748 33.983807 
" clip-path="url(#pe8e7ca9d83)" style="fill: none; stroke: #4169e1; stroke-width: 0.445694; stroke-linecap: square"/>
   </g>
   <g id="line2d_18">
    <path d="M 49.807772 18.252872 
L 50.718289 19.443483 
L 51.628806 20.634094 
L 52.539323 21.824705 
L 53.44984 23.015316 
L 54.360357 24.205927 
L 55.270874 25.396538 
L 56.181392 26.587149 
L 57.091909 27.777761 
L 58.002426 28.968372 
L 58.912943 30.158983 
L 59.82346 31.349594 
L 60.733977 32.540205 
L 61.644494 33.730816 
L 62.555012 34.921427 
L 63.465529 36.112038 
L 64.376046 37.30265 
L 65.816161 38.45699 
L 67.256276 39.611331 
L 68.696391 40.765671 
L 70.136506 41.920012 
L 71.576621 43.074353 
L 73.016736 44.228693 
L 74.456851 45.383034 
L 75.896966 46.537374 
L 77.325739 47.682151 
L 78.24297 48.377787 
L 79.160201 49.073423 
L 80.077431 49.769059 
L 80.994662 50.464695 
L 81.911893 51.160331 
L 82.829124 51.855967 
L 83.746355 52.551603 
L 84.663586 53.247239 
L 85.877782 53.701973 
L 87.091979 54.156708 
L 88.306176 54.611443 
L 89.520372 55.066178 
" clip-path="url(#pe8e7ca9d83)" style="fill: none; stroke: #4169e1; stroke-width: 0.445694; stroke-linecap: square"/>
   </g>
   <g id="line2d_19">
    <path d="M 43.332404 39.763992 
L 45.045628 40.566454 
L 46.758852 41.368917 
L 48.472077 42.171379 
L 50.185301 42.973842 
L 51.898526 43.776304 
L 53.61175 44.578767 
L 55.324975 45.381229 
L 57.038199 46.183692 
L 58.535413 46.250639 
L 60.032627 46.317586 
L 61.529841 46.384533 
L 63.027054 46.45148 
L 64.524268 46.518427 
L 66.021482 46.585374 
L 67.518696 46.652321 
L 69.015909 46.719268 
L 70.736173 46.673795 
L 72.456437 46.628321 
L 74.176702 46.582848 
L 75.896966 46.537374 
" clip-path="url(#pe8e7ca9d83)" style="fill: none; stroke: #4169e1; stroke-width: 0.445694; stroke-linecap: square"/>
   </g>
   <g id="line2d_20">
    <path d="M 60.059482 26.706608 
L 61.410689 27.839294 
L 62.761897 28.971981 
L 64.113105 30.104667 
L 65.464312 31.237354 
L 66.81552 32.37004 
L 68.166728 33.502727 
L 69.517936 34.635414 
L 70.869143 35.7681 
" clip-path="url(#pe8e7ca9d83)" style="fill: none; stroke: #008000; stroke-width: 0.445694; stroke-linecap: square"/>
   </g>
   <g id="line2d_21">
    <path d="M 34.397877 59.796863 
L 33.987756 61.396735 
L 33.577635 62.996608 
L 33.167515 64.59648 
L 32.757394 66.196352 
L 33.26998 67.801638 
L 33.782565 69.406924 
L 34.295151 71.01221 
L 34.807736 72.617496 
L 35.302853 74.199323 
L 35.79797 75.781151 
L 36.293087 77.362978 
L 36.788204 78.944806 
L 37.254902 80.436047 
L 37.7216 81.927288 
L 37.694615 83.104366 
L 37.66763 84.281443 
L 37.640645 85.45852 
L 37.61366 86.635598 
L 37.586675 87.812675 
L 37.55969 88.989752 
L 37.532705 90.16683 
L 37.505719 91.343907 
L 37.586675 92.601285 
L 37.66763 93.858662 
L 37.748585 95.11604 
L 37.82954 96.373418 
L 37.910495 97.630796 
L 37.99145 98.888173 
L 38.072405 100.145551 
L 38.153361 101.402929 
L 38.369241 102.472999 
L 38.585121 103.543069 
L 38.801002 104.61314 
L 39.016882 105.68321 
L 39.772203 106.67316 
L 40.527523 107.663111 
L 41.282844 108.653061 
L 42.038164 109.643012 
L 42.955395 110.605894 
L 43.872626 111.568777 
L 44.789857 112.478247 
L 45.707088 113.387716 
L 47.21825 114.565696 
L 48.944772 114.940311 
L 50.671293 115.314926 
L 52.289874 115.475165 
L 53.908456 115.635405 
L 55.527037 115.795645 
L 57.145618 115.955885 
" clip-path="url(#pe8e7ca9d83)" style="fill: none; stroke: #000000; stroke-width: 0.445694; stroke-linecap: square"/>
   </g>
   <g id="line2d_22">
    <path d="M 32.757394 66.196352 
L 31.292119 65.888504 
L 29.826845 65.580656 
L 28.36157 65.272808 
L 26.896295 64.96496 
L 25.24069 64.617773 
L 23.585086 64.270587 
L 22.462143 64.176392 
L 21.3392 64.082197 
L 20.216257 63.988002 
L 19.093315 63.893807 
L 17.97689 63.800694 
L 16.860465 63.707582 
L 15.74404 63.614469 
L 14.627615 63.521357 
L 13.089859 64.109986 
L 11.552102 64.698615 
L 10.014346 65.287244 
L 8.476589 65.875873 
L 7.694414 66.838756 
L 6.912239 67.801638 
L 6.130064 68.764521 
L 5.347888 69.727404 
L 5.104893 71.011488 
L 4.861897 72.295573 
L 4.618901 73.579657 
L 4.375905 74.863742 
L 4.375905 76.495734 
L 4.375905 78.127727 
L 4.375905 79.759719 
L 4.375905 81.391712 
L 4.591786 82.702864 
L 4.807666 84.014016 
L 5.023546 85.325168 
L 5.239427 86.636319 
L 5.54969 87.853457 
L 5.859953 89.070594 
L 6.170215 90.287731 
L 6.480478 91.504869 
L 6.790741 92.722006 
L 7.101004 93.939143 
L 7.411267 95.156281 
L 7.72153 96.373418 
L 8.180145 97.510435 
L 8.63876 98.647453 
L 9.097376 99.78447 
L 9.555991 100.921487 
L 10.014607 102.058505 
L 10.473222 103.195522 
L 10.931837 104.33254 
L 11.390453 105.469557 
L 12.442739 106.459507 
L 13.495026 107.449458 
L 14.547312 108.439408 
L 15.599599 109.429358 
L 16.948069 110.552481 
L 18.296539 111.675604 
L 19.10609 112.478247 
L 19.915641 113.28089 
L 20.725193 114.083533 
L 21.534744 114.886176 
L 22.96456 115.314204 
L 24.394377 115.742232 
L 25.824193 116.17026 
L 27.254009 116.598288 
L 28.764651 117.293744 
L 30.275292 117.989199 
L 31.785933 118.684655 
L 33.296574 119.38011 
L 34.699535 119.29999 
L 36.102497 119.21987 
L 37.505459 119.13975 
L 38.90842 119.05963 
L 39.771681 119.594846 
L 40.634942 120.130062 
L 41.498203 120.665277 
L 42.361463 121.200493 
L 43.251839 122.029481 
L 44.142216 122.85847 
L 45.032592 123.687459 
L 45.922968 124.516448 
L 46.678288 125.533105 
L 47.433609 126.549762 
L 48.18893 127.566419 
L 48.94425 128.583076 
L 50.064325 129.518891 
L 51.1844 130.454706 
L 52.304475 131.390522 
L 53.42455 132.326337 
" clip-path="url(#pe8e7ca9d83)" style="fill: none; stroke: #008000; stroke-width: 0.445694; stroke-linecap: square"/>
   </g>
   <g id="line2d_23">
    <path d="M 26.896295 64.96496 
L 26.697101 66.543539 
L 26.497907 68.122118 
L 27.037608 69.888366 
L 27.577309 71.654613 
L 28.117009 73.473552 
L 28.65671 75.292491 
L 29.007386 76.469749 
L 29.358061 77.647007 
L 29.708736 78.824265 
L 30.059411 80.001523 
L 30.652822 81.713635 
L 31.246232 83.425748 
L 31.003497 84.575938 
L 30.760762 85.726128 
L 30.518027 86.876318 
L 30.275292 88.026509 
L 30.059411 89.096579 
L 29.843531 90.166649 
L 29.627651 91.23672 
L 29.41177 92.30679 
L 29.358061 94.018902 
L 29.304351 95.731015 
L 29.681881 96.747672 
L 30.059411 97.764329 
L 30.436941 98.780986 
L 30.814471 99.797643 
L 31.219377 100.760887 
L 31.624283 101.72413 
L 32.029189 102.687374 
L 32.434095 103.650618 
L 33.05436 104.586794 
L 33.674625 105.52297 
L 34.29489 106.459146 
L 34.915155 107.395323 
L 35.724706 108.171259 
L 36.534258 108.947195 
L 37.343809 109.723132 
L 38.153361 110.499068 
L 38.80048 111.943392 
L 39.4476 113.387716 
L 39.312805 114.805695 
L 39.17801 116.223673 
L 39.043215 117.641652 
L 38.90842 119.05963 
" clip-path="url(#pe8e7ca9d83)" style="fill: none; stroke: #000000; stroke-width: 0.445694; stroke-linecap: square"/>
   </g>
   <g id="line2d_24">
    <path d="M 19.093315 63.893807 
L 18.273856 64.763577 
L 17.454397 65.633347 
L 16.634938 66.503118 
L 15.815479 67.372888 
L 15.410573 68.52344 
L 15.005667 69.673991 
L 14.600761 70.824542 
L 14.195855 71.975093 
L 13.46765 73.125644 
L 12.739444 74.276195 
L 12.011239 75.426746 
L 11.283034 76.577298 
L 10.959214 78.28941 
L 10.635393 80.001523 
L 10.797303 81.01818 
L 10.959214 82.034837 
L 11.121124 83.051494 
L 11.283034 84.068151 
L 11.90356 85.673076 
L 12.524086 87.278001 
L 13.144611 88.882926 
L 13.765137 90.487851 
L 14.210195 91.477801 
L 14.655252 92.467752 
L 15.10031 93.457702 
L 15.545368 94.447652 
L 15.990425 95.437603 
L 16.435483 96.427553 
L 16.880541 97.417503 
L 17.325599 98.407454 
L 18.8365 99.450817 
L 20.347402 100.494181 
L 21.858304 101.537545 
L 23.369206 102.580908 
L 24.637112 103.329777 
L 25.905018 104.078646 
L 27.172924 104.827515 
L 28.44083 105.576383 
L 30.059411 106.031118 
L 31.677993 106.485853 
L 33.296574 106.940588 
L 34.915155 107.395323 
" clip-path="url(#pe8e7ca9d83)" style="fill: none; stroke: #4169e1; stroke-width: 0.445694; stroke-linecap: square"/>
   </g>
   <g id="line2d_25">
    <path d="M 32.757394 66.196352 
L 34.052416 66.517554 
L 35.347437 66.838756 
L 36.642459 67.159957 
L 37.93748 67.481159 
L 39.394412 68.337215 
L 40.851344 69.193271 
L 39.987822 69.995914 
L 39.124301 70.798557 
L 38.854711 71.814853 
L 38.585121 72.831149 
L 38.20707 74.650088 
L 37.829019 76.469027 
L 37.308611 77.706917 
L 36.788204 78.944806 
" clip-path="url(#pe8e7ca9d83)" style="fill: none; stroke: #000000; stroke-width: 0.445694; stroke-linecap: square"/>
   </g>
   <g id="text_1">
    <g id="patch_2">
     <path d="M 54.941515 23.810794 
L 69.133785 33.584073 
L 70.254287 31.956937 
L 56.062016 22.183658 
z
" style="fill: #ffffff"/>
    </g>
    <!-- South Peak Triple -->
    <g style="fill: #808080" transform="translate(55.205235 23.463097)rotate(-325.447383)scale(0.02 -0.02)">
     <defs>
      <path id="DejaVuSans-53" d="M 3425 4513 
L 3425 3897 
Q 3066 4069 2747 4153 
Q 2428 4238 2131 4238 
Q 1616 4238 1336 4038 
Q 1056 3838 1056 3469 
Q 1056 3159 1242 3001 
Q 1428 2844 1947 2747 
L 2328 2669 
Q 3034 2534 3370 2195 
Q 3706 1856 3706 1288 
Q 3706 609 3251 259 
Q 2797 -91 1919 -91 
Q 1588 -91 1214 -16 
Q 841 59 441 206 
L 441 856 
Q 825 641 1194 531 
Q 1563 422 1919 422 
Q 2459 422 2753 634 
Q 3047 847 3047 1241 
Q 3047 1584 2836 1778 
Q 2625 1972 2144 2069 
L 1759 2144 
Q 1053 2284 737 2584 
Q 422 2884 422 3419 
Q 422 4038 858 4394 
Q 1294 4750 2059 4750 
Q 2388 4750 2728 4690 
Q 3069 4631 3425 4513 
z
" transform="scale(0.015625)"/>
      <path id="DejaVuSans-6f" d="M 1959 3097 
Q 1497 3097 1228 2736 
Q 959 2375 959 1747 
Q 959 1119 1226 758 
Q 1494 397 1959 397 
Q 2419 397 2687 759 
Q 2956 1122 2956 1747 
Q 2956 2369 2687 2733 
Q 2419 3097 1959 3097 
z
M 1959 3584 
Q 2709 3584 3137 3096 
Q 3566 2609 3566 1747 
Q 3566 888 3137 398 
Q 2709 -91 1959 -91 
Q 1206 -91 779 398 
Q 353 888 353 1747 
Q 353 2609 779 3096 
Q 1206 3584 1959 3584 
z
" transform="scale(0.015625)"/>
      <path id="DejaVuSans-75" d="M 544 1381 
L 544 3500 
L 1119 3500 
L 1119 1403 
Q 1119 906 1312 657 
Q 1506 409 1894 409 
Q 2359 409 2629 706 
Q 2900 1003 2900 1516 
L 2900 3500 
L 3475 3500 
L 3475 0 
L 2900 0 
L 2900 538 
Q 2691 219 2414 64 
Q 2138 -91 1772 -91 
Q 1169 -91 856 284 
Q 544 659 544 1381 
z
M 1991 3584 
L 1991 3584 
z
" transform="scale(0.015625)"/>
      <path id="DejaVuSans-74" d="M 1172 4494 
L 1172 3500 
L 2356 3500 
L 2356 3053 
L 1172 3053 
L 1172 1153 
Q 1172 725 1289 603 
Q 1406 481 1766 481 
L 2356 481 
L 2356 0 
L 1766 0 
Q 1100 0 847 248 
Q 594 497 594 1153 
L 594 3053 
L 172 3053 
L 172 3500 
L 594 3500 
L 594 4494 
L 1172 4494 
z
" transform="scale(0.015625)"/>
      <path id="DejaVuSans-68" d="M 3513 2113 
L 3513 0 
L 2938 0 
L 2938 2094 
Q 2938 2591 2744 2837 
Q 2550 3084 2163 3084 
Q 1697 3084 1428 2787 
Q 1159 2491 1159 1978 
L 1159 0 
L 581 0 
L 581 4863 
L 1159 4863 
L 1159 2956 
Q 1366 3272 1645 3428 
Q 1925 3584 2291 3584 
Q 2894 3584 3203 3211 
Q 3513 2838 3513 2113 
z
" transform="scale(0.015625)"/>
      <path id="DejaVuSans-20" transform="scale(0.015625)"/>
      <path id="DejaVuSans-50" d="M 1259 4147 
L 1259 2394 
L 2053 2394 
Q 2494 2394 2734 2622 
Q 2975 2850 2975 3272 
Q 2975 3691 2734 3919 
Q 2494 4147 2053 4147 
L 1259 4147 
z
M 628 4666 
L 2053 4666 
Q 2838 4666 3239 4311 
Q 3641 3956 3641 3272 
Q 3641 2581 3239 2228 
Q 2838 1875 2053 1875 
L 1259 1875 
L 1259 0 
L 628 0 
L 628 4666 
z
" transform="scale(0.015625)"/>
      <path id="DejaVuSans-65" d="M 3597 1894 
L 3597 1613 
L 953 1613 
Q 991 1019 1311 708 
Q 1631 397 2203 397 
Q 2534 397 2845 478 
Q 3156 559 3463 722 
L 3463 178 
Q 3153 47 2828 -22 
Q 2503 -91 2169 -91 
Q 1331 -91 842 396 
Q 353 884 353 1716 
Q 353 2575 817 3079 
Q 1281 3584 2069 3584 
Q 2775 3584 3186 3129 
Q 3597 2675 3597 1894 
z
M 3022 2063 
Q 3016 2534 2758 2815 
Q 2500 3097 2075 3097 
Q 1594 3097 1305 2825 
Q 1016 2553 972 2059 
L 3022 2063 
z
" transform="scale(0.015625)"/>
      <path id="DejaVuSans-61" d="M 2194 1759 
Q 1497 1759 1228 1600 
Q 959 1441 959 1056 
Q 959 750 1161 570 
Q 1363 391 1709 391 
Q 2188 391 2477 730 
Q 2766 1069 2766 1631 
L 2766 1759 
L 2194 1759 
z
M 3341 1997 
L 3341 0 
L 2766 0 
L 2766 531 
Q 2569 213 2275 61 
Q 1981 -91 1556 -91 
Q 1019 -91 701 211 
Q 384 513 384 1019 
Q 384 1609 779 1909 
Q 1175 2209 1959 2209 
L 2766 2209 
L 2766 2266 
Q 2766 2663 2505 2880 
Q 2244 3097 1772 3097 
Q 1472 3097 1187 3025 
Q 903 2953 641 2809 
L 641 3341 
Q 956 3463 1253 3523 
Q 1550 3584 1831 3584 
Q 2591 3584 2966 3190 
Q 3341 2797 3341 1997 
z
" transform="scale(0.015625)"/>
      <path id="DejaVuSans-6b" d="M 581 4863 
L 1159 4863 
L 1159 1991 
L 2875 3500 
L 3609 3500 
L 1753 1863 
L 3688 0 
L 2938 0 
L 1159 1709 
L 1159 0 
L 581 0 
L 581 4863 
z
" transform="scale(0.015625)"/>
      <path id="DejaVuSans-54" d="M -19 4666 
L 3928 4666 
L 3928 4134 
L 2272 4134 
L 2272 0 
L 1638 0 
L 1638 4134 
L -19 4134 
L -19 4666 
z
" transform="scale(0.015625)"/>
      <path id="DejaVuSans-72" d="M 2631 2963 
Q 2534 3019 2420 3045 
Q 2306 3072 2169 3072 
Q 1681 3072 1420 2755 
Q 1159 2438 1159 1844 
L 1159 0 
L 581 0 
L 581 3500 
L 1159 3500 
L 1159 2956 
Q 1341 3275 1631 3429 
Q 1922 3584 2338 3584 
Q 2397 3584 2469 3576 
Q 2541 3569 2628 3553 
L 2631 2963 
z
" transform="scale(0.015625)"/>
      <path id="DejaVuSans-69" d="M 603 3500 
L 1178 3500 
L 1178 0 
L 603 0 
L 603 3500 
z
M 603 4863 
L 1178 4863 
L 1178 4134 
L 603 4134 
L 603 4863 
z
" transform="scale(0.015625)"/>
      <path id="DejaVuSans-70" d="M 1159 525 
L 1159 -1331 
L 581 -1331 
L 581 3500 
L 1159 3500 
L 1159 2969 
Q 1341 3281 1617 3432 
Q 1894 3584 2278 3584 
Q 2916 3584 3314 3078 
Q 3713 2572 3713 1747 
Q 3713 922 3314 415 
Q 2916 -91 2278 -91 
Q 1894 -91 1617 61 
Q 1341 213 1159 525 
z
M 3116 1747 
Q 3116 2381 2855 2742 
Q 2594 3103 2138 3103 
Q 1681 3103 1420 2742 
Q 1159 2381 1159 1747 
Q 1159 1113 1420 752 
Q 1681 391 2138 391 
Q 2594 391 2855 752 
Q 3116 1113 3116 1747 
z
" transform="scale(0.015625)"/>
      <path id="DejaVuSans-6c" d="M 603 4863 
L 1178 4863 
L 1178 0 
L 603 0 
L 603 4863 
z
" transform="scale(0.015625)"/>
     </defs>
     <use xlink:href="#DejaVuSans-53"/>
     <use xlink:href="#DejaVuSans-6f" x="63.476562"/>
     <use xlink:href="#DejaVuSans-75" x="124.658203"/>
     <use xlink:href="#DejaVuSans-74" x="188.037109"/>
     <use xlink:href="#DejaVuSans-68" x="227.246094"/>
     <use xlink:href="#DejaVuSans-20" x="290.625"/>
     <use xlink:href="#DejaVuSans-50" x="322.412109"/>
     <use xlink:href="#DejaVuSans-65" x="379.089844"/>
     <use xlink:href="#DejaVuSans-61" x="440.613281"/>
     <use xlink:href="#DejaVuSans-6b" x="501.892578"/>
     <use xlink:href="#DejaVuSans-20" x="559.802734"/>
     <use xlink:href="#DejaVuSans-54" x="591.589844"/>
     <use xlink:href="#DejaVuSans-72" x="637.923828"/>
     <use xlink:href="#DejaVuSans-69" x="679.037109"/>
     <use xlink:href="#DejaVuSans-70" x="706.820312"/>
     <use xlink:href="#DejaVuSans-6c" x="770.296875"/>
     <use xlink:href="#DejaVuSans-65" x="798.080078"/>
    </g>
   </g>
   <g id="text_2">
    <g id="patch_3">
     <path d="M 63.098129 76.452262 
L 77.06967 86.119533 
L 78.193796 84.494899 
L 64.222255 74.827628 
z
" style="fill: #ffffff"/>
    </g>
    <!-- North Peak Quad -->
    <g style="fill: #808080" transform="translate(63.362623 76.105154)rotate(-325.319639)scale(0.02 -0.02)">
     <defs>
      <path id="DejaVuSans-4e" d="M 628 4666 
L 1478 4666 
L 3547 763 
L 3547 4666 
L 4159 4666 
L 4159 0 
L 3309 0 
L 1241 3903 
L 1241 0 
L 628 0 
L 628 4666 
z
" transform="scale(0.015625)"/>
      <path id="DejaVuSans-51" d="M 2522 4238 
Q 1834 4238 1429 3725 
Q 1025 3213 1025 2328 
Q 1025 1447 1429 934 
Q 1834 422 2522 422 
Q 3209 422 3611 934 
Q 4013 1447 4013 2328 
Q 4013 3213 3611 3725 
Q 3209 4238 2522 4238 
z
M 3406 84 
L 4238 -825 
L 3475 -825 
L 2784 -78 
Q 2681 -84 2626 -87 
Q 2572 -91 2522 -91 
Q 1538 -91 948 567 
Q 359 1225 359 2328 
Q 359 3434 948 4092 
Q 1538 4750 2522 4750 
Q 3503 4750 4090 4092 
Q 4678 3434 4678 2328 
Q 4678 1516 4351 937 
Q 4025 359 3406 84 
z
" transform="scale(0.015625)"/>
      <path id="DejaVuSans-64" d="M 2906 2969 
L 2906 4863 
L 3481 4863 
L 3481 0 
L 2906 0 
L 2906 525 
Q 2725 213 2448 61 
Q 2172 -91 1784 -91 
Q 1150 -91 751 415 
Q 353 922 353 1747 
Q 353 2572 751 3078 
Q 1150 3584 1784 3584 
Q 2172 3584 2448 3432 
Q 2725 3281 2906 2969 
z
M 947 1747 
Q 947 1113 1208 752 
Q 1469 391 1925 391 
Q 2381 391 2643 752 
Q 2906 1113 2906 1747 
Q 2906 2381 2643 2742 
Q 2381 3103 1925 3103 
Q 1469 3103 1208 2742 
Q 947 2381 947 1747 
z
" transform="scale(0.015625)"/>
     </defs>
     <use xlink:href="#DejaVuSans-4e"/>
     <use xlink:href="#DejaVuSans-6f" x="74.804688"/>
     <use xlink:href="#DejaVuSans-72" x="135.986328"/>
     <use xlink:href="#DejaVuSans-74" x="177.099609"/>
     <use xlink:href="#DejaVuSans-68" x="216.308594"/>
     <use xlink:href="#DejaVuSans-20" x="279.6875"/>
     <use xlink:href="#DejaVuSans-50" x="311.474609"/>
     <use xlink:href="#DejaVuSans-65" x="368.152344"/>
     <use xlink:href="#DejaVuSans-61" x="429.675781"/>
     <use xlink:href="#DejaVuSans-6b" x="490.955078"/>
     <use xlink:href="#DejaVuSans-20" x="548.865234"/>
     <use xlink:href="#DejaVuSans-51" x="580.652344"/>
     <use xlink:href="#DejaVuSans-75" x="659.363281"/>
     <use xlink:href="#DejaVuSans-61" x="722.742188"/>
     <use xlink:href="#DejaVuSans-64" x="784.021484"/>
    </g>
   </g>
   <g id="text_3">
    <g id="patch_4">
     <path d="M 52.361744 97.666259 
L 58.59737 111.224157 
L 60.392257 110.398643 
L 54.156631 96.840744 
z
" style="fill: #ffffff"/>
    </g>
    <!-- Shelter Double -->
    <g style="fill: #808080" transform="translate(52.766157 97.502273)rotate(-294.698919)scale(0.02 -0.02)">
     <defs>
      <path id="DejaVuSans-44" d="M 1259 4147 
L 1259 519 
L 2022 519 
Q 2988 519 3436 956 
Q 3884 1394 3884 2338 
Q 3884 3275 3436 3711 
Q 2988 4147 2022 4147 
L 1259 4147 
z
M 628 4666 
L 1925 4666 
Q 3281 4666 3915 4102 
Q 4550 3538 4550 2338 
Q 4550 1131 3912 565 
Q 3275 0 1925 0 
L 628 0 
L 628 4666 
z
" transform="scale(0.015625)"/>
      <path id="DejaVuSans-62" d="M 3116 1747 
Q 3116 2381 2855 2742 
Q 2594 3103 2138 3103 
Q 1681 3103 1420 2742 
Q 1159 2381 1159 1747 
Q 1159 1113 1420 752 
Q 1681 391 2138 391 
Q 2594 391 2855 752 
Q 3116 1113 3116 1747 
z
M 1159 2969 
Q 1341 3281 1617 3432 
Q 1894 3584 2278 3584 
Q 2916 3584 3314 3078 
Q 3713 2572 3713 1747 
Q 3713 922 3314 415 
Q 2916 -91 2278 -91 
Q 1894 -91 1617 61 
Q 1341 213 1159 525 
L 1159 0 
L 581 0 
L 581 4863 
L 1159 4863 
L 1159 2969 
z
" transform="scale(0.015625)"/>
     </defs>
     <use xlink:href="#DejaVuSans-53"/>
     <use xlink:href="#DejaVuSans-68" x="63.476562"/>
     <use xlink:href="#DejaVuSans-65" x="126.855469"/>
     <use xlink:href="#DejaVuSans-6c" x="188.378906"/>
     <use xlink:href="#DejaVuSans-74" x="216.162109"/>
     <use xlink:href="#DejaVuSans-65" x="255.371094"/>
     <use xlink:href="#DejaVuSans-72" x="316.894531"/>
     <use xlink:href="#DejaVuSans-20" x="358.007812"/>
     <use xlink:href="#DejaVuSans-44" x="389.794922"/>
     <use xlink:href="#DejaVuSans-6f" x="466.796875"/>
     <use xlink:href="#DejaVuSans-75" x="527.978516"/>
     <use xlink:href="#DejaVuSans-62" x="591.357422"/>
     <use xlink:href="#DejaVuSans-6c" x="654.833984"/>
     <use xlink:href="#DejaVuSans-65" x="682.617188"/>
    </g>
   </g>
   <g id="text_4">
    <g id="patch_5">
     <path d="M 58.666596 78.059123 
L 72.970491 87.685652 
L 74.073547 86.04664 
L 59.769652 76.420111 
z
" style="fill: #ffffff"/>
    </g>
    <!-- Vista 1561' Triple -->
    <g style="fill: #808080" transform="translate(58.926586 77.708629)rotate(-326.059426)scale(0.02 -0.02)">
     <defs>
      <path id="DejaVuSans-56" d="M 1831 0 
L 50 4666 
L 709 4666 
L 2188 738 
L 3669 4666 
L 4325 4666 
L 2547 0 
L 1831 0 
z
" transform="scale(0.015625)"/>
      <path id="DejaVuSans-73" d="M 2834 3397 
L 2834 2853 
Q 2591 2978 2328 3040 
Q 2066 3103 1784 3103 
Q 1356 3103 1142 2972 
Q 928 2841 928 2578 
Q 928 2378 1081 2264 
Q 1234 2150 1697 2047 
L 1894 2003 
Q 2506 1872 2764 1633 
Q 3022 1394 3022 966 
Q 3022 478 2636 193 
Q 2250 -91 1575 -91 
Q 1294 -91 989 -36 
Q 684 19 347 128 
L 347 722 
Q 666 556 975 473 
Q 1284 391 1588 391 
Q 1994 391 2212 530 
Q 2431 669 2431 922 
Q 2431 1156 2273 1281 
Q 2116 1406 1581 1522 
L 1381 1569 
Q 847 1681 609 1914 
Q 372 2147 372 2553 
Q 372 3047 722 3315 
Q 1072 3584 1716 3584 
Q 2034 3584 2315 3537 
Q 2597 3491 2834 3397 
z
" transform="scale(0.015625)"/>
      <path id="DejaVuSans-31" d="M 794 531 
L 1825 531 
L 1825 4091 
L 703 3866 
L 703 4441 
L 1819 4666 
L 2450 4666 
L 2450 531 
L 3481 531 
L 3481 0 
L 794 0 
L 794 531 
z
" transform="scale(0.015625)"/>
      <path id="DejaVuSans-35" d="M 691 4666 
L 3169 4666 
L 3169 4134 
L 1269 4134 
L 1269 2991 
Q 1406 3038 1543 3061 
Q 1681 3084 1819 3084 
Q 2600 3084 3056 2656 
Q 3513 2228 3513 1497 
Q 3513 744 3044 326 
Q 2575 -91 1722 -91 
Q 1428 -91 1123 -41 
Q 819 9 494 109 
L 494 744 
Q 775 591 1075 516 
Q 1375 441 1709 441 
Q 2250 441 2565 725 
Q 2881 1009 2881 1497 
Q 2881 1984 2565 2268 
Q 2250 2553 1709 2553 
Q 1456 2553 1204 2497 
Q 953 2441 691 2322 
L 691 4666 
z
" transform="scale(0.015625)"/>
      <path id="DejaVuSans-36" d="M 2113 2584 
Q 1688 2584 1439 2293 
Q 1191 2003 1191 1497 
Q 1191 994 1439 701 
Q 1688 409 2113 409 
Q 2538 409 2786 701 
Q 3034 994 3034 1497 
Q 3034 2003 2786 2293 
Q 2538 2584 2113 2584 
z
M 3366 4563 
L 3366 3988 
Q 3128 4100 2886 4159 
Q 2644 4219 2406 4219 
Q 1781 4219 1451 3797 
Q 1122 3375 1075 2522 
Q 1259 2794 1537 2939 
Q 1816 3084 2150 3084 
Q 2853 3084 3261 2657 
Q 3669 2231 3669 1497 
Q 3669 778 3244 343 
Q 2819 -91 2113 -91 
Q 1303 -91 875 529 
Q 447 1150 447 2328 
Q 447 3434 972 4092 
Q 1497 4750 2381 4750 
Q 2619 4750 2861 4703 
Q 3103 4656 3366 4563 
z
" transform="scale(0.015625)"/>
      <path id="DejaVuSans-27" d="M 1147 4666 
L 1147 2931 
L 616 2931 
L 616 4666 
L 1147 4666 
z
" transform="scale(0.015625)"/>
     </defs>
     <use xlink:href="#DejaVuSans-56"/>
     <use xlink:href="#DejaVuSans-69" x="66.158203"/>
     <use xlink:href="#DejaVuSans-73" x="93.941406"/>
     <use xlink:href="#DejaVuSans-74" x="146.041016"/>
     <use xlink:href="#DejaVuSans-61" x="185.25"/>
     <use xlink:href="#DejaVuSans-20" x="246.529297"/>
     <use xlink:href="#DejaVuSans-31" x="278.316406"/>
     <use xlink:href="#DejaVuSans-35" x="341.939453"/>
     <use xlink:href="#DejaVuSans-36" x="405.5625"/>
     <use xlink:href="#DejaVuSans-31" x="469.185547"/>
     <use xlink:href="#DejaVuSans-27" x="532.808594"/>
     <use xlink:href="#DejaVuSans-20" x="560.298828"/>
     <use xlink:href="#DejaVuSans-54" x="592.085938"/>
     <use xlink:href="#DejaVuSans-72" x="638.419922"/>
     <use xlink:href="#DejaVuSans-69" x="679.533203"/>
     <use xlink:href="#DejaVuSans-70" x="707.316406"/>
     <use xlink:href="#DejaVuSans-6c" x="770.792969"/>
     <use xlink:href="#DejaVuSans-65" x="798.576172"/>
    </g>
   </g>
   <g id="text_5">
    <g id="patch_6">
     <path d="M 47.470953 97.700398 
L 55.318933 108.424595 
L 56.913251 107.257871 
L 49.065271 96.533674 
z
" style="fill: #ffffff"/>
    </g>
    <!-- Shelter 11.9° -->
    <g style="fill: #008000" transform="translate(47.834564 97.459091)rotate(-306.19671)scale(0.02 -0.02)">
     <defs>
      <path id="DejaVuSans-2e" d="M 684 794 
L 1344 794 
L 1344 0 
L 684 0 
L 684 794 
z
" transform="scale(0.015625)"/>
      <path id="DejaVuSans-39" d="M 703 97 
L 703 672 
Q 941 559 1184 500 
Q 1428 441 1663 441 
Q 2288 441 2617 861 
Q 2947 1281 2994 2138 
Q 2813 1869 2534 1725 
Q 2256 1581 1919 1581 
Q 1219 1581 811 2004 
Q 403 2428 403 3163 
Q 403 3881 828 4315 
Q 1253 4750 1959 4750 
Q 2769 4750 3195 4129 
Q 3622 3509 3622 2328 
Q 3622 1225 3098 567 
Q 2575 -91 1691 -91 
Q 1453 -91 1209 -44 
Q 966 3 703 97 
z
M 1959 2075 
Q 2384 2075 2632 2365 
Q 2881 2656 2881 3163 
Q 2881 3666 2632 3958 
Q 2384 4250 1959 4250 
Q 1534 4250 1286 3958 
Q 1038 3666 1038 3163 
Q 1038 2656 1286 2365 
Q 1534 2075 1959 2075 
z
" transform="scale(0.015625)"/>
      <path id="DejaVuSans-b0" d="M 1600 4347 
Q 1350 4347 1178 4173 
Q 1006 4000 1006 3750 
Q 1006 3503 1178 3333 
Q 1350 3163 1600 3163 
Q 1850 3163 2022 3333 
Q 2194 3503 2194 3750 
Q 2194 3997 2020 4172 
Q 1847 4347 1600 4347 
z
M 1600 4750 
Q 1800 4750 1984 4673 
Q 2169 4597 2303 4453 
Q 2447 4313 2519 4134 
Q 2591 3956 2591 3750 
Q 2591 3338 2302 3052 
Q 2013 2766 1594 2766 
Q 1172 2766 890 3047 
Q 609 3328 609 3750 
Q 609 4169 896 4459 
Q 1184 4750 1600 4750 
z
" transform="scale(0.015625)"/>
     </defs>
     <use xlink:href="#DejaVuSans-53"/>
     <use xlink:href="#DejaVuSans-68" x="63.476562"/>
     <use xlink:href="#DejaVuSans-65" x="126.855469"/>
     <use xlink:href="#DejaVuSans-6c" x="188.378906"/>
     <use xlink:href="#DejaVuSans-74" x="216.162109"/>
     <use xlink:href="#DejaVuSans-65" x="255.371094"/>
     <use xlink:href="#DejaVuSans-72" x="316.894531"/>
     <use xlink:href="#DejaVuSans-20" x="358.007812"/>
     <use xlink:href="#DejaVuSans-31" x="389.794922"/>
     <use xlink:href="#DejaVuSans-31" x="453.417969"/>
     <use xlink:href="#DejaVuSans-2e" x="517.041016"/>
     <use xlink:href="#DejaVuSans-39" x="548.828125"/>
     <use xlink:href="#DejaVuSans-b0" x="612.451172"/>
    </g>
   </g>
   <g id="text_6">
    <g id="patch_7">
     <path d="M 50.261476 87.818725 
L 63.051955 99.84385 
L 64.405204 98.404472 
L 51.614726 86.379346 
z
" style="fill: #ffffff"/>
    </g>
    <!-- Easy Street 12.3° -->
    <g style="fill: #008000" transform="translate(50.574653 87.514814)rotate(-316.766534)scale(0.02 -0.02)">
     <defs>
      <path id="DejaVuSans-45" d="M 628 4666 
L 3578 4666 
L 3578 4134 
L 1259 4134 
L 1259 2753 
L 3481 2753 
L 3481 2222 
L 1259 2222 
L 1259 531 
L 3634 531 
L 3634 0 
L 628 0 
L 628 4666 
z
" transform="scale(0.015625)"/>
      <path id="DejaVuSans-79" d="M 2059 -325 
Q 1816 -950 1584 -1140 
Q 1353 -1331 966 -1331 
L 506 -1331 
L 506 -850 
L 844 -850 
Q 1081 -850 1212 -737 
Q 1344 -625 1503 -206 
L 1606 56 
L 191 3500 
L 800 3500 
L 1894 763 
L 2988 3500 
L 3597 3500 
L 2059 -325 
z
" transform="scale(0.015625)"/>
      <path id="DejaVuSans-32" d="M 1228 531 
L 3431 531 
L 3431 0 
L 469 0 
L 469 531 
Q 828 903 1448 1529 
Q 2069 2156 2228 2338 
Q 2531 2678 2651 2914 
Q 2772 3150 2772 3378 
Q 2772 3750 2511 3984 
Q 2250 4219 1831 4219 
Q 1534 4219 1204 4116 
Q 875 4013 500 3803 
L 500 4441 
Q 881 4594 1212 4672 
Q 1544 4750 1819 4750 
Q 2544 4750 2975 4387 
Q 3406 4025 3406 3419 
Q 3406 3131 3298 2873 
Q 3191 2616 2906 2266 
Q 2828 2175 2409 1742 
Q 1991 1309 1228 531 
z
" transform="scale(0.015625)"/>
      <path id="DejaVuSans-33" d="M 2597 2516 
Q 3050 2419 3304 2112 
Q 3559 1806 3559 1356 
Q 3559 666 3084 287 
Q 2609 -91 1734 -91 
Q 1441 -91 1130 -33 
Q 819 25 488 141 
L 488 750 
Q 750 597 1062 519 
Q 1375 441 1716 441 
Q 2309 441 2620 675 
Q 2931 909 2931 1356 
Q 2931 1769 2642 2001 
Q 2353 2234 1838 2234 
L 1294 2234 
L 1294 2753 
L 1863 2753 
Q 2328 2753 2575 2939 
Q 2822 3125 2822 3475 
Q 2822 3834 2567 4026 
Q 2313 4219 1838 4219 
Q 1578 4219 1281 4162 
Q 984 4106 628 3988 
L 628 4550 
Q 988 4650 1302 4700 
Q 1616 4750 1894 4750 
Q 2613 4750 3031 4423 
Q 3450 4097 3450 3541 
Q 3450 3153 3228 2886 
Q 3006 2619 2597 2516 
z
" transform="scale(0.015625)"/>
     </defs>
     <use xlink:href="#DejaVuSans-45"/>
     <use xlink:href="#DejaVuSans-61" x="63.183594"/>
     <use xlink:href="#DejaVuSans-73" x="124.462891"/>
     <use xlink:href="#DejaVuSans-79" x="176.5625"/>
     <use xlink:href="#DejaVuSans-20" x="235.742188"/>
     <use xlink:href="#DejaVuSans-53" x="267.529297"/>
     <use xlink:href="#DejaVuSans-74" x="331.005859"/>
     <use xlink:href="#DejaVuSans-72" x="370.214844"/>
     <use xlink:href="#DejaVuSans-65" x="409.078125"/>
     <use xlink:href="#DejaVuSans-65" x="470.601562"/>
     <use xlink:href="#DejaVuSans-74" x="532.125"/>
     <use xlink:href="#DejaVuSans-20" x="571.333984"/>
     <use xlink:href="#DejaVuSans-31" x="603.121094"/>
     <use xlink:href="#DejaVuSans-32" x="666.744141"/>
     <use xlink:href="#DejaVuSans-2e" x="730.367188"/>
     <use xlink:href="#DejaVuSans-33" x="762.154297"/>
     <use xlink:href="#DejaVuSans-b0" x="825.777344"/>
    </g>
   </g>
   <g id="text_7">
    <g id="patch_8">
     <path d="M 26.865415 54.753779 
L 43.715269 70.275899 
L 45.053825 68.822846 
L 28.20397 53.300726 
z
" style="fill: #ffffff"/>
    </g>
    <!-- Smiling Irishmen 22.2° -->
    <g style="fill: #4169e1" transform="translate(27.175488 54.446702)rotate(-317.348667)scale(0.02 -0.02)">
     <defs>
      <path id="DejaVuSans-6d" d="M 3328 2828 
Q 3544 3216 3844 3400 
Q 4144 3584 4550 3584 
Q 5097 3584 5394 3201 
Q 5691 2819 5691 2113 
L 5691 0 
L 5113 0 
L 5113 2094 
Q 5113 2597 4934 2840 
Q 4756 3084 4391 3084 
Q 3944 3084 3684 2787 
Q 3425 2491 3425 1978 
L 3425 0 
L 2847 0 
L 2847 2094 
Q 2847 2600 2669 2842 
Q 2491 3084 2119 3084 
Q 1678 3084 1418 2786 
Q 1159 2488 1159 1978 
L 1159 0 
L 581 0 
L 581 3500 
L 1159 3500 
L 1159 2956 
Q 1356 3278 1631 3431 
Q 1906 3584 2284 3584 
Q 2666 3584 2933 3390 
Q 3200 3197 3328 2828 
z
" transform="scale(0.015625)"/>
      <path id="DejaVuSans-6e" d="M 3513 2113 
L 3513 0 
L 2938 0 
L 2938 2094 
Q 2938 2591 2744 2837 
Q 2550 3084 2163 3084 
Q 1697 3084 1428 2787 
Q 1159 2491 1159 1978 
L 1159 0 
L 581 0 
L 581 3500 
L 1159 3500 
L 1159 2956 
Q 1366 3272 1645 3428 
Q 1925 3584 2291 3584 
Q 2894 3584 3203 3211 
Q 3513 2838 3513 2113 
z
" transform="scale(0.015625)"/>
      <path id="DejaVuSans-67" d="M 2906 1791 
Q 2906 2416 2648 2759 
Q 2391 3103 1925 3103 
Q 1463 3103 1205 2759 
Q 947 2416 947 1791 
Q 947 1169 1205 825 
Q 1463 481 1925 481 
Q 2391 481 2648 825 
Q 2906 1169 2906 1791 
z
M 3481 434 
Q 3481 -459 3084 -895 
Q 2688 -1331 1869 -1331 
Q 1566 -1331 1297 -1286 
Q 1028 -1241 775 -1147 
L 775 -588 
Q 1028 -725 1275 -790 
Q 1522 -856 1778 -856 
Q 2344 -856 2625 -561 
Q 2906 -266 2906 331 
L 2906 616 
Q 2728 306 2450 153 
Q 2172 0 1784 0 
Q 1141 0 747 490 
Q 353 981 353 1791 
Q 353 2603 747 3093 
Q 1141 3584 1784 3584 
Q 2172 3584 2450 3431 
Q 2728 3278 2906 2969 
L 2906 3500 
L 3481 3500 
L 3481 434 
z
" transform="scale(0.015625)"/>
      <path id="DejaVuSans-49" d="M 628 4666 
L 1259 4666 
L 1259 0 
L 628 0 
L 628 4666 
z
" transform="scale(0.015625)"/>
     </defs>
     <use xlink:href="#DejaVuSans-53"/>
     <use xlink:href="#DejaVuSans-6d" x="63.476562"/>
     <use xlink:href="#DejaVuSans-69" x="160.888672"/>
     <use xlink:href="#DejaVuSans-6c" x="188.671875"/>
     <use xlink:href="#DejaVuSans-69" x="216.455078"/>
     <use xlink:href="#DejaVuSans-6e" x="244.238281"/>
     <use xlink:href="#DejaVuSans-67" x="307.617188"/>
     <use xlink:href="#DejaVuSans-20" x="371.09375"/>
     <use xlink:href="#DejaVuSans-49" x="402.880859"/>
     <use xlink:href="#DejaVuSans-72" x="432.373047"/>
     <use xlink:href="#DejaVuSans-69" x="473.486328"/>
     <use xlink:href="#DejaVuSans-73" x="501.269531"/>
     <use xlink:href="#DejaVuSans-68" x="553.369141"/>
     <use xlink:href="#DejaVuSans-6d" x="616.748047"/>
     <use xlink:href="#DejaVuSans-65" x="714.160156"/>
     <use xlink:href="#DejaVuSans-6e" x="775.683594"/>
     <use xlink:href="#DejaVuSans-20" x="839.0625"/>
     <use xlink:href="#DejaVuSans-32" x="870.849609"/>
     <use xlink:href="#DejaVuSans-32" x="934.472656"/>
     <use xlink:href="#DejaVuSans-2e" x="998.095703"/>
     <use xlink:href="#DejaVuSans-32" x="1029.882812"/>
     <use xlink:href="#DejaVuSans-b0" x="1093.505859"/>
    </g>
   </g>
   <g id="text_8">
    <g id="patch_9">
     <path d="M 37.00164 59.936651 
L 56.098671 71.384251 
L 57.114429 69.689751 
L 38.017398 58.242151 
z
" style="fill: #ffffff"/>
    </g>
    <!-- North Peak Face 19.1° -->
    <g style="fill: #4169e1" transform="translate(37.242929 59.573029)rotate(-329.059675)scale(0.02 -0.02)">
     <defs>
      <path id="DejaVuSans-46" d="M 628 4666 
L 3309 4666 
L 3309 4134 
L 1259 4134 
L 1259 2759 
L 3109 2759 
L 3109 2228 
L 1259 2228 
L 1259 0 
L 628 0 
L 628 4666 
z
" transform="scale(0.015625)"/>
      <path id="DejaVuSans-63" d="M 3122 3366 
L 3122 2828 
Q 2878 2963 2633 3030 
Q 2388 3097 2138 3097 
Q 1578 3097 1268 2742 
Q 959 2388 959 1747 
Q 959 1106 1268 751 
Q 1578 397 2138 397 
Q 2388 397 2633 464 
Q 2878 531 3122 666 
L 3122 134 
Q 2881 22 2623 -34 
Q 2366 -91 2075 -91 
Q 1284 -91 818 406 
Q 353 903 353 1747 
Q 353 2603 823 3093 
Q 1294 3584 2113 3584 
Q 2378 3584 2631 3529 
Q 2884 3475 3122 3366 
z
" transform="scale(0.015625)"/>
     </defs>
     <use xlink:href="#DejaVuSans-4e"/>
     <use xlink:href="#DejaVuSans-6f" x="74.804688"/>
     <use xlink:href="#DejaVuSans-72" x="135.986328"/>
     <use xlink:href="#DejaVuSans-74" x="177.099609"/>
     <use xlink:href="#DejaVuSans-68" x="216.308594"/>
     <use xlink:href="#DejaVuSans-20" x="279.6875"/>
     <use xlink:href="#DejaVuSans-50" x="311.474609"/>
     <use xlink:href="#DejaVuSans-65" x="368.152344"/>
     <use xlink:href="#DejaVuSans-61" x="429.675781"/>
     <use xlink:href="#DejaVuSans-6b" x="490.955078"/>
     <use xlink:href="#DejaVuSans-20" x="548.865234"/>
     <use xlink:href="#DejaVuSans-46" x="580.652344"/>
     <use xlink:href="#DejaVuSans-61" x="629.046875"/>
     <use xlink:href="#DejaVuSans-63" x="690.326172"/>
     <use xlink:href="#DejaVuSans-65" x="745.306641"/>
     <use xlink:href="#DejaVuSans-20" x="806.830078"/>
     <use xlink:href="#DejaVuSans-31" x="838.617188"/>
     <use xlink:href="#DejaVuSans-39" x="902.240234"/>
     <use xlink:href="#DejaVuSans-2e" x="965.863281"/>
     <use xlink:href="#DejaVuSans-31" x="997.650391"/>
     <use xlink:href="#DejaVuSans-b0" x="1061.273438"/>
    </g>
   </g>
   <g id="text_9">
    <g id="patch_10">
     <path d="M 55.150839 19.383248 
L 66.054129 24.136608 
L 66.84365 22.325599 
L 55.94036 17.57224 
z
" style="fill: #ffffff"/>
    </g>
    <!-- Bullet 26.3° -->
    <g transform="translate(55.343387 18.991627)rotate(-336.444896)scale(0.02 -0.02)">
     <defs>
      <path id="DejaVuSans-42" d="M 1259 2228 
L 1259 519 
L 2272 519 
Q 2781 519 3026 730 
Q 3272 941 3272 1375 
Q 3272 1813 3026 2020 
Q 2781 2228 2272 2228 
L 1259 2228 
z
M 1259 4147 
L 1259 2741 
L 2194 2741 
Q 2656 2741 2882 2914 
Q 3109 3088 3109 3444 
Q 3109 3797 2882 3972 
Q 2656 4147 2194 4147 
L 1259 4147 
z
M 628 4666 
L 2241 4666 
Q 2963 4666 3353 4366 
Q 3744 4066 3744 3513 
Q 3744 3084 3544 2831 
Q 3344 2578 2956 2516 
Q 3422 2416 3680 2098 
Q 3938 1781 3938 1306 
Q 3938 681 3513 340 
Q 3088 0 2303 0 
L 628 0 
L 628 4666 
z
" transform="scale(0.015625)"/>
     </defs>
     <use xlink:href="#DejaVuSans-42"/>
     <use xlink:href="#DejaVuSans-75" x="68.603516"/>
     <use xlink:href="#DejaVuSans-6c" x="131.982422"/>
     <use xlink:href="#DejaVuSans-6c" x="159.765625"/>
     <use xlink:href="#DejaVuSans-65" x="187.548828"/>
     <use xlink:href="#DejaVuSans-74" x="249.072266"/>
     <use xlink:href="#DejaVuSans-20" x="288.28125"/>
     <use xlink:href="#DejaVuSans-32" x="320.068359"/>
     <use xlink:href="#DejaVuSans-36" x="383.691406"/>
     <use xlink:href="#DejaVuSans-2e" x="447.314453"/>
     <use xlink:href="#DejaVuSans-33" x="479.101562"/>
     <use xlink:href="#DejaVuSans-b0" x="542.724609"/>
    </g>
   </g>
   <g id="text_10">
    <g id="patch_11">
     <path d="M 78.149277 16.990086 
L 99.053871 24.270034 
L 99.703604 22.404306 
L 78.79901 15.124358 
z
" style="fill: #ffffff"/>
    </g>
    <!-- Stagshead Bowl 22.2° -->
    <g style="fill: #4169e1" transform="translate(78.311533 16.584975)rotate(-340.799515)scale(0.02 -0.02)">
     <defs>
      <path id="DejaVuSans-77" d="M 269 3500 
L 844 3500 
L 1563 769 
L 2278 3500 
L 2956 3500 
L 3675 769 
L 4391 3500 
L 4966 3500 
L 4050 0 
L 3372 0 
L 2619 2869 
L 1863 0 
L 1184 0 
L 269 3500 
z
" transform="scale(0.015625)"/>
     </defs>
     <use xlink:href="#DejaVuSans-53"/>
     <use xlink:href="#DejaVuSans-74" x="63.476562"/>
     <use xlink:href="#DejaVuSans-61" x="102.685547"/>
     <use xlink:href="#DejaVuSans-67" x="163.964844"/>
     <use xlink:href="#DejaVuSans-73" x="227.441406"/>
     <use xlink:href="#DejaVuSans-68" x="279.541016"/>
     <use xlink:href="#DejaVuSans-65" x="342.919922"/>
     <use xlink:href="#DejaVuSans-61" x="404.443359"/>
     <use xlink:href="#DejaVuSans-64" x="465.722656"/>
     <use xlink:href="#DejaVuSans-20" x="529.199219"/>
     <use xlink:href="#DejaVuSans-42" x="560.986328"/>
     <use xlink:href="#DejaVuSans-6f" x="629.589844"/>
     <use xlink:href="#DejaVuSans-77" x="690.771484"/>
     <use xlink:href="#DejaVuSans-6c" x="772.558594"/>
     <use xlink:href="#DejaVuSans-20" x="800.341797"/>
     <use xlink:href="#DejaVuSans-32" x="832.128906"/>
     <use xlink:href="#DejaVuSans-32" x="895.751953"/>
     <use xlink:href="#DejaVuSans-2e" x="959.375"/>
     <use xlink:href="#DejaVuSans-32" x="991.162109"/>
     <use xlink:href="#DejaVuSans-b0" x="1054.785156"/>
    </g>
   </g>
   <g id="text_11">
    <g id="patch_12">
     <path d="M 50.254023 22.346659 
L 60.752083 32.263789 
L 62.10876 30.82764 
L 51.6107 20.91051 
z
" style="fill: #ffffff"/>
    </g>
    <!-- Olympia 19.8° -->
    <g style="fill: #4169e1" transform="translate(50.567924 22.043495)rotate(-316.629954)scale(0.02 -0.02)">
     <defs>
      <path id="DejaVuSans-4f" d="M 2522 4238 
Q 1834 4238 1429 3725 
Q 1025 3213 1025 2328 
Q 1025 1447 1429 934 
Q 1834 422 2522 422 
Q 3209 422 3611 934 
Q 4013 1447 4013 2328 
Q 4013 3213 3611 3725 
Q 3209 4238 2522 4238 
z
M 2522 4750 
Q 3503 4750 4090 4092 
Q 4678 3434 4678 2328 
Q 4678 1225 4090 567 
Q 3503 -91 2522 -91 
Q 1538 -91 948 565 
Q 359 1222 359 2328 
Q 359 3434 948 4092 
Q 1538 4750 2522 4750 
z
" transform="scale(0.015625)"/>
      <path id="DejaVuSans-38" d="M 2034 2216 
Q 1584 2216 1326 1975 
Q 1069 1734 1069 1313 
Q 1069 891 1326 650 
Q 1584 409 2034 409 
Q 2484 409 2743 651 
Q 3003 894 3003 1313 
Q 3003 1734 2745 1975 
Q 2488 2216 2034 2216 
z
M 1403 2484 
Q 997 2584 770 2862 
Q 544 3141 544 3541 
Q 544 4100 942 4425 
Q 1341 4750 2034 4750 
Q 2731 4750 3128 4425 
Q 3525 4100 3525 3541 
Q 3525 3141 3298 2862 
Q 3072 2584 2669 2484 
Q 3125 2378 3379 2068 
Q 3634 1759 3634 1313 
Q 3634 634 3220 271 
Q 2806 -91 2034 -91 
Q 1263 -91 848 271 
Q 434 634 434 1313 
Q 434 1759 690 2068 
Q 947 2378 1403 2484 
z
M 1172 3481 
Q 1172 3119 1398 2916 
Q 1625 2713 2034 2713 
Q 2441 2713 2670 2916 
Q 2900 3119 2900 3481 
Q 2900 3844 2670 4047 
Q 2441 4250 2034 4250 
Q 1625 4250 1398 4047 
Q 1172 3844 1172 3481 
z
" transform="scale(0.015625)"/>
     </defs>
     <use xlink:href="#DejaVuSans-4f"/>
     <use xlink:href="#DejaVuSans-6c" x="78.710938"/>
     <use xlink:href="#DejaVuSans-79" x="106.494141"/>
     <use xlink:href="#DejaVuSans-6d" x="165.673828"/>
     <use xlink:href="#DejaVuSans-70" x="263.085938"/>
     <use xlink:href="#DejaVuSans-69" x="326.5625"/>
     <use xlink:href="#DejaVuSans-61" x="354.345703"/>
     <use xlink:href="#DejaVuSans-20" x="415.625"/>
     <use xlink:href="#DejaVuSans-31" x="447.412109"/>
     <use xlink:href="#DejaVuSans-39" x="511.035156"/>
     <use xlink:href="#DejaVuSans-2e" x="574.658203"/>
     <use xlink:href="#DejaVuSans-38" x="606.445312"/>
     <use xlink:href="#DejaVuSans-b0" x="670.068359"/>
    </g>
   </g>
   <g id="text_12">
    <g id="patch_13">
     <path d="M 47.095893 43.416759 
L 59.494366 47.612164 
L 60.127608 45.740774 
L 47.729135 41.54537 
z
" style="fill: #ffffff"/>
    </g>
    <!-- Liberty 21.0° -->
    <g style="fill: #4169e1" transform="translate(47.254567 43.010233)rotate(-341.30517)scale(0.02 -0.02)">
     <defs>
      <path id="DejaVuSans-4c" d="M 628 4666 
L 1259 4666 
L 1259 531 
L 3531 531 
L 3531 0 
L 628 0 
L 628 4666 
z
" transform="scale(0.015625)"/>
      <path id="DejaVuSans-30" d="M 2034 4250 
Q 1547 4250 1301 3770 
Q 1056 3291 1056 2328 
Q 1056 1369 1301 889 
Q 1547 409 2034 409 
Q 2525 409 2770 889 
Q 3016 1369 3016 2328 
Q 3016 3291 2770 3770 
Q 2525 4250 2034 4250 
z
M 2034 4750 
Q 2819 4750 3233 4129 
Q 3647 3509 3647 2328 
Q 3647 1150 3233 529 
Q 2819 -91 2034 -91 
Q 1250 -91 836 529 
Q 422 1150 422 2328 
Q 422 3509 836 4129 
Q 1250 4750 2034 4750 
z
" transform="scale(0.015625)"/>
     </defs>
     <use xlink:href="#DejaVuSans-4c"/>
     <use xlink:href="#DejaVuSans-69" x="55.712891"/>
     <use xlink:href="#DejaVuSans-62" x="83.496094"/>
     <use xlink:href="#DejaVuSans-65" x="146.972656"/>
     <use xlink:href="#DejaVuSans-72" x="208.496094"/>
     <use xlink:href="#DejaVuSans-74" x="249.609375"/>
     <use xlink:href="#DejaVuSans-79" x="288.818359"/>
     <use xlink:href="#DejaVuSans-20" x="347.998047"/>
     <use xlink:href="#DejaVuSans-32" x="379.785156"/>
     <use xlink:href="#DejaVuSans-31" x="443.408203"/>
     <use xlink:href="#DejaVuSans-2e" x="507.03125"/>
     <use xlink:href="#DejaVuSans-30" x="538.818359"/>
     <use xlink:href="#DejaVuSans-b0" x="602.441406"/>
    </g>
   </g>
   <g id="text_13">
    <g id="patch_14">
     <path d="M 38.197538 100.686957 
L 38.788532 82.06352 
L 36.813901 82.000857 
L 36.222907 100.624294 
z
" style="fill: #ffffff"/>
    </g>
    <!-- Backcountry 26.4° -->
    <g transform="translate(37.762454 100.65314)rotate(-88.182393)scale(0.02 -0.02)">
     <defs>
      <path id="DejaVuSans-34" d="M 2419 4116 
L 825 1625 
L 2419 1625 
L 2419 4116 
z
M 2253 4666 
L 3047 4666 
L 3047 1625 
L 3713 1625 
L 3713 1100 
L 3047 1100 
L 3047 0 
L 2419 0 
L 2419 1100 
L 313 1100 
L 313 1709 
L 2253 4666 
z
" transform="scale(0.015625)"/>
     </defs>
     <use xlink:href="#DejaVuSans-42"/>
     <use xlink:href="#DejaVuSans-61" x="68.603516"/>
     <use xlink:href="#DejaVuSans-63" x="129.882812"/>
     <use xlink:href="#DejaVuSans-6b" x="184.863281"/>
     <use xlink:href="#DejaVuSans-63" x="242.773438"/>
     <use xlink:href="#DejaVuSans-6f" x="297.753906"/>
     <use xlink:href="#DejaVuSans-75" x="358.935547"/>
     <use xlink:href="#DejaVuSans-6e" x="422.314453"/>
     <use xlink:href="#DejaVuSans-74" x="485.693359"/>
     <use xlink:href="#DejaVuSans-72" x="524.902344"/>
     <use xlink:href="#DejaVuSans-79" x="566.015625"/>
     <use xlink:href="#DejaVuSans-20" x="625.195312"/>
     <use xlink:href="#DejaVuSans-32" x="656.982422"/>
     <use xlink:href="#DejaVuSans-36" x="720.605469"/>
     <use xlink:href="#DejaVuSans-2e" x="784.228516"/>
     <use xlink:href="#DejaVuSans-34" x="816.015625"/>
     <use xlink:href="#DejaVuSans-b0" x="879.638672"/>
    </g>
   </g>
   <g id="text_14">
    <g id="patch_15">
     <path d="M 2.776011 89.857557 
L 11.859303 106.126409 
L 13.584279 105.163313 
L 4.500987 88.894462 
z
" style="fill: #ffffff"/>
    </g>
    <!-- Backcountry 11.5° -->
    <g style="fill: #008000" transform="translate(3.166391 89.662505)rotate(-299.175675)scale(0.02 -0.02)">
     <use xlink:href="#DejaVuSans-42"/>
     <use xlink:href="#DejaVuSans-61" x="68.603516"/>
     <use xlink:href="#DejaVuSans-63" x="129.882812"/>
     <use xlink:href="#DejaVuSans-6b" x="184.863281"/>
     <use xlink:href="#DejaVuSans-63" x="242.773438"/>
     <use xlink:href="#DejaVuSans-6f" x="297.753906"/>
     <use xlink:href="#DejaVuSans-75" x="358.935547"/>
     <use xlink:href="#DejaVuSans-6e" x="422.314453"/>
     <use xlink:href="#DejaVuSans-74" x="485.693359"/>
     <use xlink:href="#DejaVuSans-72" x="524.902344"/>
     <use xlink:href="#DejaVuSans-79" x="566.015625"/>
     <use xlink:href="#DejaVuSans-20" x="625.195312"/>
     <use xlink:href="#DejaVuSans-31" x="656.982422"/>
     <use xlink:href="#DejaVuSans-31" x="720.605469"/>
     <use xlink:href="#DejaVuSans-2e" x="784.228516"/>
     <use xlink:href="#DejaVuSans-35" x="816.015625"/>
     <use xlink:href="#DejaVuSans-b0" x="879.638672"/>
    </g>
   </g>
   <g id="text_15">
    <g id="patch_16">
     <path d="M 26.085039 94.168472 
L 35.455935 110.273379 
L 37.163527 109.279789 
L 27.792632 93.174882 
z
" style="fill: #ffffff"/>
    </g>
    <!-- Backcountry 26.7° -->
    <g transform="translate(26.471892 93.966515)rotate(-300.193664)scale(0.02 -0.02)">
     <defs>
      <path id="DejaVuSans-37" d="M 525 4666 
L 3525 4666 
L 3525 4397 
L 1831 0 
L 1172 0 
L 2766 4134 
L 525 4134 
L 525 4666 
z
" transform="scale(0.015625)"/>
     </defs>
     <use xlink:href="#DejaVuSans-42"/>
     <use xlink:href="#DejaVuSans-61" x="68.603516"/>
     <use xlink:href="#DejaVuSans-63" x="129.882812"/>
     <use xlink:href="#DejaVuSans-6b" x="184.863281"/>
     <use xlink:href="#DejaVuSans-63" x="242.773438"/>
     <use xlink:href="#DejaVuSans-6f" x="297.753906"/>
     <use xlink:href="#DejaVuSans-75" x="358.935547"/>
     <use xlink:href="#DejaVuSans-6e" x="422.314453"/>
     <use xlink:href="#DejaVuSans-74" x="485.693359"/>
     <use xlink:href="#DejaVuSans-72" x="524.902344"/>
     <use xlink:href="#DejaVuSans-79" x="566.015625"/>
     <use xlink:href="#DejaVuSans-20" x="625.195312"/>
     <use xlink:href="#DejaVuSans-32" x="656.982422"/>
     <use xlink:href="#DejaVuSans-36" x="720.605469"/>
     <use xlink:href="#DejaVuSans-2e" x="784.228516"/>
     <use xlink:href="#DejaVuSans-37" x="816.015625"/>
     <use xlink:href="#DejaVuSans-b0" x="879.638672"/>
    </g>
   </g>
   <g id="text_16">
    <g id="patch_17">
     <path d="M 8.894194 85.079829 
L 18.73896 100.899509 
L 20.416311 99.855674 
L 10.571544 84.035994 
z
" style="fill: #ffffff"/>
    </g>
    <!-- Backcountry 17.1° -->
    <g style="fill: #4169e1" transform="translate(9.274882 84.866479)rotate(-301.894473)scale(0.02 -0.02)">
     <use xlink:href="#DejaVuSans-42"/>
     <use xlink:href="#DejaVuSans-61" x="68.603516"/>
     <use xlink:href="#DejaVuSans-63" x="129.882812"/>
     <use xlink:href="#DejaVuSans-6b" x="184.863281"/>
     <use xlink:href="#DejaVuSans-63" x="242.773438"/>
     <use xlink:href="#DejaVuSans-6f" x="297.753906"/>
     <use xlink:href="#DejaVuSans-75" x="358.935547"/>
     <use xlink:href="#DejaVuSans-6e" x="422.314453"/>
     <use xlink:href="#DejaVuSans-74" x="485.693359"/>
     <use xlink:href="#DejaVuSans-72" x="524.902344"/>
     <use xlink:href="#DejaVuSans-79" x="566.015625"/>
     <use xlink:href="#DejaVuSans-20" x="625.195312"/>
     <use xlink:href="#DejaVuSans-31" x="656.982422"/>
     <use xlink:href="#DejaVuSans-37" x="720.605469"/>
     <use xlink:href="#DejaVuSans-2e" x="784.228516"/>
     <use xlink:href="#DejaVuSans-31" x="816.015625"/>
     <use xlink:href="#DejaVuSans-b0" x="879.638672"/>
    </g>
   </g>
   <g id="text_17">
    <!-- Caberfae Peaks -->
    <g transform="translate(24.839491 6.178098)scale(0.06 -0.06)">
     <defs>
      <path id="DejaVuSans-43" d="M 4122 4306 
L 4122 3641 
Q 3803 3938 3442 4084 
Q 3081 4231 2675 4231 
Q 1875 4231 1450 3742 
Q 1025 3253 1025 2328 
Q 1025 1406 1450 917 
Q 1875 428 2675 428 
Q 3081 428 3442 575 
Q 3803 722 4122 1019 
L 4122 359 
Q 3791 134 3420 21 
Q 3050 -91 2638 -91 
Q 1578 -91 968 557 
Q 359 1206 359 2328 
Q 359 3453 968 4101 
Q 1578 4750 2638 4750 
Q 3056 4750 3426 4639 
Q 3797 4528 4122 4306 
z
" transform="scale(0.015625)"/>
      <path id="DejaVuSans-66" d="M 2375 4863 
L 2375 4384 
L 1825 4384 
Q 1516 4384 1395 4259 
Q 1275 4134 1275 3809 
L 1275 3500 
L 2222 3500 
L 2222 3053 
L 1275 3053 
L 1275 0 
L 697 0 
L 697 3053 
L 147 3053 
L 147 3500 
L 697 3500 
L 697 3744 
Q 697 4328 969 4595 
Q 1241 4863 1831 4863 
L 2375 4863 
z
" transform="scale(0.015625)"/>
     </defs>
     <use xlink:href="#DejaVuSans-43"/>
     <use xlink:href="#DejaVuSans-61" x="69.824219"/>
     <use xlink:href="#DejaVuSans-62" x="131.103516"/>
     <use xlink:href="#DejaVuSans-65" x="194.580078"/>
     <use xlink:href="#DejaVuSans-72" x="256.103516"/>
     <use xlink:href="#DejaVuSans-66" x="297.216797"/>
     <use xlink:href="#DejaVuSans-61" x="332.421875"/>
     <use xlink:href="#DejaVuSans-65" x="393.701172"/>
     <use xlink:href="#DejaVuSans-20" x="455.224609"/>
     <use xlink:href="#DejaVuSans-50" x="487.011719"/>
     <use xlink:href="#DejaVuSans-65" x="543.689453"/>
     <use xlink:href="#DejaVuSans-61" x="605.212891"/>
     <use xlink:href="#DejaVuSans-6b" x="666.492188"/>
     <use xlink:href="#DejaVuSans-73" x="724.402344"/>
    </g>
   </g>
   <g id="legend_1">
    <g id="line2d_26">
     <path d="M 6.133788 137.448072 
L 9.133788 137.448072 
L 12.133788 137.448072 
" style="fill: none; stroke: #008000; stroke-width: 0.445694; stroke-linecap: square"/>
    </g>
    <g id="text_18">
     <!-- Easy -->
     <g transform="translate(14.533788 138.498072)scale(0.03 -0.03)">
      <use xlink:href="#DejaVuSans-45"/>
      <use xlink:href="#DejaVuSans-61" x="63.183594"/>
      <use xlink:href="#DejaVuSans-73" x="124.462891"/>
      <use xlink:href="#DejaVuSans-79" x="176.5625"/>
     </g>
    </g>
    <g id="line2d_27">
     <path d="M 6.133788 141.851509 
L 9.133788 141.851509 
L 12.133788 141.851509 
" style="fill: none; stroke: #4169e1; stroke-width: 0.445694; stroke-linecap: square"/>
    </g>
    <g id="text_19">
     <!-- Intermediate -->
     <g transform="translate(14.533788 142.901509)scale(0.03 -0.03)">
      <use xlink:href="#DejaVuSans-49"/>
      <use xlink:href="#DejaVuSans-6e" x="29.492188"/>
      <use xlink:href="#DejaVuSans-74" x="92.871094"/>
      <use xlink:href="#DejaVuSans-65" x="132.080078"/>
      <use xlink:href="#DejaVuSans-72" x="193.603516"/>
      <use xlink:href="#DejaVuSans-6d" x="232.966797"/>
      <use xlink:href="#DejaVuSans-65" x="330.378906"/>
      <use xlink:href="#DejaVuSans-64" x="391.902344"/>
      <use xlink:href="#DejaVuSans-69" x="455.378906"/>
      <use xlink:href="#DejaVuSans-61" x="483.162109"/>
      <use xlink:href="#DejaVuSans-74" x="544.441406"/>
      <use xlink:href="#DejaVuSans-65" x="583.650391"/>
     </g>
    </g>
    <g id="line2d_28">
     <path d="M 39.889413 137.448072 
L 42.889413 137.448072 
L 45.889413 137.448072 
" style="fill: none; stroke: #000000; stroke-width: 0.445694; stroke-linecap: square"/>
    </g>
    <g id="text_20">
     <!-- Advanced -->
     <g transform="translate(48.289413 138.498072)scale(0.03 -0.03)">
      <defs>
       <path id="DejaVuSans-41" d="M 2188 4044 
L 1331 1722 
L 3047 1722 
L 2188 4044 
z
M 1831 4666 
L 2547 4666 
L 4325 0 
L 3669 0 
L 3244 1197 
L 1141 1197 
L 716 0 
L 50 0 
L 1831 4666 
z
" transform="scale(0.015625)"/>
       <path id="DejaVuSans-76" d="M 191 3500 
L 800 3500 
L 1894 563 
L 2988 3500 
L 3597 3500 
L 2284 0 
L 1503 0 
L 191 3500 
z
" transform="scale(0.015625)"/>
      </defs>
      <use xlink:href="#DejaVuSans-41"/>
      <use xlink:href="#DejaVuSans-64" x="66.658203"/>
      <use xlink:href="#DejaVuSans-76" x="130.134766"/>
      <use xlink:href="#DejaVuSans-61" x="189.314453"/>
      <use xlink:href="#DejaVuSans-6e" x="250.59375"/>
      <use xlink:href="#DejaVuSans-63" x="313.972656"/>
      <use xlink:href="#DejaVuSans-65" x="368.953125"/>
      <use xlink:href="#DejaVuSans-64" x="430.476562"/>
     </g>
    </g>
    <g id="line2d_29">
     <path d="M 39.889413 141.851509 
L 42.889413 141.851509 
L 45.889413 141.851509 
" style="fill: none; stroke: #ff0000; stroke-width: 0.445694; stroke-linecap: square"/>
    </g>
    <g id="text_21">
     <!-- Expert -->
     <g transform="translate(48.289413 142.901509)scale(0.03 -0.03)">
      <defs>
       <path id="DejaVuSans-78" d="M 3513 3500 
L 2247 1797 
L 3578 0 
L 2900 0 
L 1881 1375 
L 863 0 
L 184 0 
L 1544 1831 
L 300 3500 
L 978 3500 
L 1906 2253 
L 2834 3500 
L 3513 3500 
z
" transform="scale(0.015625)"/>
      </defs>
      <use xlink:href="#DejaVuSans-45"/>
      <use xlink:href="#DejaVuSans-78" x="63.183594"/>
      <use xlink:href="#DejaVuSans-70" x="122.363281"/>
      <use xlink:href="#DejaVuSans-65" x="185.839844"/>
      <use xlink:href="#DejaVuSans-72" x="247.363281"/>
      <use xlink:href="#DejaVuSans-74" x="288.476562"/>
     </g>
    </g>
    <g id="line2d_30">
     <path d="M 69.108944 137.448072 
L 72.108944 137.448072 
L 75.108944 137.448072 
" style="fill: none; stroke: #ffd700; stroke-width: 0.445694; stroke-linecap: square"/>
    </g>
    <g id="text_22">
     <!-- Extreme -->
     <g transform="translate(77.508944 138.498072)scale(0.03 -0.03)">
      <use xlink:href="#DejaVuSans-45"/>
      <use xlink:href="#DejaVuSans-78" x="63.183594"/>
      <use xlink:href="#DejaVuSans-74" x="122.363281"/>
      <use xlink:href="#DejaVuSans-72" x="161.572266"/>
      <use xlink:href="#DejaVuSans-65" x="200.435547"/>
      <use xlink:href="#DejaVuSans-6d" x="261.958984"/>
      <use xlink:href="#DejaVuSans-65" x="359.371094"/>
     </g>
    </g>
    <g id="line2d_31">
     <path d="M 69.108944 141.851509 
L 72.108944 141.851509 
L 75.108944 141.851509 
" style="fill: none; stroke-dasharray: 0.445694,0.735395; stroke-dashoffset: 0; stroke: #000000; stroke-width: 0.445694"/>
    </g>
    <g id="text_23">
     <!-- Gladed -->
     <g transform="translate(77.508944 142.901509)scale(0.03 -0.03)">
      <defs>
       <path id="DejaVuSans-47" d="M 3809 666 
L 3809 1919 
L 2778 1919 
L 2778 2438 
L 4434 2438 
L 4434 434 
Q 4069 175 3628 42 
Q 3188 -91 2688 -91 
Q 1594 -91 976 548 
Q 359 1188 359 2328 
Q 359 3472 976 4111 
Q 1594 4750 2688 4750 
Q 3144 4750 3555 4637 
Q 3966 4525 4313 4306 
L 4313 3634 
Q 3963 3931 3569 4081 
Q 3175 4231 2741 4231 
Q 1884 4231 1454 3753 
Q 1025 3275 1025 2328 
Q 1025 1384 1454 906 
Q 1884 428 2741 428 
Q 3075 428 3337 486 
Q 3600 544 3809 666 
z
" transform="scale(0.015625)"/>
      </defs>
      <use xlink:href="#DejaVuSans-47"/>
      <use xlink:href="#DejaVuSans-6c" x="77.490234"/>
      <use xlink:href="#DejaVuSans-61" x="105.273438"/>
      <use xlink:href="#DejaVuSans-64" x="166.552734"/>
      <use xlink:href="#DejaVuSans-65" x="230.029297"/>
      <use xlink:href="#DejaVuSans-64" x="291.552734"/>
     </g>
    </g>
   </g>
  </g>
  <g id="text_24">
   <!-- Sources: USGS and OpenStreetMaps -->
   <g transform="translate(24.33856 146.826109)scale(0.026087 -0.026087)">
    <defs>
     <path id="DejaVuSans-3a" d="M 750 794 
L 1409 794 
L 1409 0 
L 750 0 
L 750 794 
z
M 750 3309 
L 1409 3309 
L 1409 2516 
L 750 2516 
L 750 3309 
z
" transform="scale(0.015625)"/>
     <path id="DejaVuSans-55" d="M 556 4666 
L 1191 4666 
L 1191 1831 
Q 1191 1081 1462 751 
Q 1734 422 2344 422 
Q 2950 422 3222 751 
Q 3494 1081 3494 1831 
L 3494 4666 
L 4128 4666 
L 4128 1753 
Q 4128 841 3676 375 
Q 3225 -91 2344 -91 
Q 1459 -91 1007 375 
Q 556 841 556 1753 
L 556 4666 
z
" transform="scale(0.015625)"/>
     <path id="DejaVuSans-4d" d="M 628 4666 
L 1569 4666 
L 2759 1491 
L 3956 4666 
L 4897 4666 
L 4897 0 
L 4281 0 
L 4281 4097 
L 3078 897 
L 2444 897 
L 1241 4097 
L 1241 0 
L 628 0 
L 628 4666 
z
" transform="scale(0.015625)"/>
    </defs>
    <use xlink:href="#DejaVuSans-53"/>
    <use xlink:href="#DejaVuSans-6f" x="63.476562"/>
    <use xlink:href="#DejaVuSans-75" x="124.658203"/>
    <use xlink:href="#DejaVuSans-72" x="188.037109"/>
    <use xlink:href="#DejaVuSans-63" x="226.900391"/>
    <use xlink:href="#DejaVuSans-65" x="281.880859"/>
    <use xlink:href="#DejaVuSans-73" x="343.404297"/>
    <use xlink:href="#DejaVuSans-3a" x="395.503906"/>
    <use xlink:href="#DejaVuSans-20" x="429.195312"/>
    <use xlink:href="#DejaVuSans-55" x="460.982422"/>
    <use xlink:href="#DejaVuSans-53" x="534.175781"/>
    <use xlink:href="#DejaVuSans-47" x="597.652344"/>
    <use xlink:href="#DejaVuSans-53" x="675.142578"/>
    <use xlink:href="#DejaVuSans-20" x="738.619141"/>
    <use xlink:href="#DejaVuSans-61" x="770.40625"/>
    <use xlink:href="#DejaVuSans-6e" x="831.685547"/>
    <use xlink:href="#DejaVuSans-64" x="895.064453"/>
    <use xlink:href="#DejaVuSans-20" x="958.541016"/>
    <use xlink:href="#DejaVuSans-4f" x="990.328125"/>
    <use xlink:href="#DejaVuSans-70" x="1069.039062"/>
    <use xlink:href="#DejaVuSans-65" x="1132.515625"/>
    <use xlink:href="#DejaVuSans-6e" x="1194.039062"/>
    <use xlink:href="#DejaVuSans-53" x="1257.417969"/>
    <use xlink:href="#DejaVuSans-74" x="1320.894531"/>
    <use xlink:href="#DejaVuSans-72" x="1360.103516"/>
    <use xlink:href="#DejaVuSans-65" x="1398.966797"/>
    <use xlink:href="#DejaVuSans-65" x="1460.490234"/>
    <use xlink:href="#DejaVuSans-74" x="1522.013672"/>
    <use xlink:href="#DejaVuSans-4d" x="1561.222656"/>
    <use xlink:href="#DejaVuSans-61" x="1647.501953"/>
    <use xlink:href="#DejaVuSans-70" x="1708.78125"/>
    <use xlink:href="#DejaVuSans-73" x="1772.257812"/>
   </g>
  </g>
 </g>
 <defs>
  <clipPath id="pe8e7ca9d83">
   <rect x="0" y="9.178098" width="96.269919" height="129.012441"/>
  </clipPath>
 </defs>
</svg>
