<?xml version="1.0" encoding="utf-8" standalone="no"?>
<!DOCTYPE svg PUBLIC "-//W3C//DTD SVG 1.1//EN"
  "http://www.w3.org/Graphics/SVG/1.1/DTD/svg11.dtd">
<svg height="134.894141pt" version="1.1" viewBox="0 0 133.82746 134.894141" width="133.82746pt" xmlns="http://www.w3.org/2000/svg" xmlns:xlink="http://www.w3.org/1999/xlink">
 <metadata>
  <rdf:RDF xmlns:cc="http://creativecommons.org/ns#" xmlns:dc="http://purl.org/dc/elements/1.1/" xmlns:rdf="http://www.w3.org/1999/02/22-rdf-syntax-ns#">
   <cc:Work>
    <dc:type rdf:resource="http://purl.org/dc/dcmitype/StillImage"/>
    <dc:date>2022-05-22T19:37:13.813105</dc:date>
    <dc:format>image/svg+xml</dc:format>
    <dc:creator>
     <cc:Agent>
      <dc:title>Matplotlib v3.4.3, https://matplotlib.org/</dc:title>
     </cc:Agent>
    </dc:creator>
   </cc:Work>
  </rdf:RDF>
 </metadata>
 <defs>
  <style type="text/css">*{stroke-linecap:butt;stroke-linejoin:round;}</style>
 </defs>
 <g id="figure_1">
  <g id="patch_1">
   <path d="M 0 134.894141 
L 133.82746 134.894141 
L 133.82746 0 
L 0 0 
z
" style="fill:none;"/>
  </g>
  <g id="axes_1">
   <g id="line2d_1">
    <path clip-path="url(#pfa68d83a34)" d="M 82.540804 89.789573 
" style="fill:none;stroke:#008000;stroke-linecap:square;stroke-width:0.001;"/>
   </g>
   <g id="line2d_2">
    <path clip-path="url(#pfa68d83a34)" d="M 82.540804 89.789573 
" style="fill:none;stroke:#4169e1;stroke-linecap:square;stroke-width:0.001;"/>
   </g>
   <g id="line2d_3">
    <path clip-path="url(#pfa68d83a34)" d="M 82.540804 89.789573 
" style="fill:none;stroke:#000000;stroke-linecap:square;stroke-width:0.001;"/>
   </g>
   <g id="line2d_4">
    <path clip-path="url(#pfa68d83a34)" d="M 82.540804 89.789573 
" style="fill:none;stroke:#ff0000;stroke-linecap:square;stroke-width:0.001;"/>
   </g>
   <g id="line2d_5">
    <path clip-path="url(#pfa68d83a34)" d="M 82.540804 89.789573 
" style="fill:none;stroke:#ffd700;stroke-linecap:square;stroke-width:0.001;"/>
   </g>
   <g id="line2d_6">
    <path clip-path="url(#pfa68d83a34)" d="M 82.540804 89.789573 
" style="fill:none;stroke:#000000;stroke-dasharray:0.001,0.00165;stroke-dashoffset:0;stroke-width:0.001;"/>
   </g>
   <g id="line2d_7">
    <path clip-path="url(#pfa68d83a34)" d="M 15.262362 105.704086 
L 18.528828 105.03843 
L 21.795295 104.372774 
L 26.069796 103.503884 
L 30.344296 102.634994 
L 34.682118 101.753435 
L 40.469761 100.577319 
L 44.686763 99.720043 
L 48.903766 98.862767 
L 53.713944 97.884606 
L 58.524122 96.906445 
L 62.439806 96.110403 
L 66.35549 95.31436 
L 70.29592 94.513567 
L 74.236351 93.712774 
L 80.198671 92.500762 
L 83.81886 91.771233 
" style="fill:none;stroke:#808080;stroke-linecap:square;stroke-width:0.619572;"/>
   </g>
   <g id="line2d_8">
    <path clip-path="url(#pfa68d83a34)" d="M 6.711905 98.903941 
L 8.076572 94.367872 
L 9.441239 89.831803 
L 10.805906 85.295734 
L 12.170572 80.759665 
" style="fill:none;stroke:#808080;stroke-linecap:square;stroke-width:0.619572;"/>
   </g>
   <g id="line2d_9">
    <path clip-path="url(#pfa68d83a34)" d="M 101.714555 114.255735 
L 104.352184 108.926263 
L 105.786721 106.029787 
L 107.221259 103.133312 
L 109.090307 99.359501 
L 110.959355 95.58569 
L 112.785461 91.899507 
L 114.611567 88.213325 
L 116.406377 84.589959 
L 118.201187 80.966594 
L 119.869356 77.598722 
L 121.537525 74.230851 
L 123.015004 71.247276 
L 124.492483 68.2637 
L 126.118439 64.983457 
" style="fill:none;stroke:#808080;stroke-linecap:square;stroke-width:0.619572;"/>
   </g>
   <g id="line2d_10">
    <path clip-path="url(#pfa68d83a34)" d="M 94.858469 107.969745 
L 94.955997 102.245419 
L 95.022957 98.316939 
L 95.089916 94.38846 
L 95.160515 90.282612 
L 95.231114 86.176765 
L 95.303896 81.889327 
L 95.376678 77.60189 
L 95.460378 72.725338 
L 95.544078 67.848787 
L 95.635783 62.461776 
L 95.727489 57.074765 
L 95.804638 52.560867 
L 95.881787 48.046969 
L 95.979315 42.344814 
L 96.066654 37.191126 
L 96.153993 32.037438 
L 96.23842 27.115489 
L 96.322847 22.19354 
L 96.369428 19.448566 
" style="fill:none;stroke:#808080;stroke-linecap:square;stroke-width:0.619572;"/>
   </g>
   <g id="line2d_11">
    <path clip-path="url(#pfa68d83a34)" d="M 82.540804 89.789573 
L 76.034072 88.656743 
L 72.547803 82.086754 
L 70.223138 81.180913 
L 64.994462 81.690581 
L 61.160294 81.860822 
L 55.349361 80.275072 
L 51.631644 78.689322 
L 48.378278 75.743754 
L 42.452349 73.365656 
L 41.174293 72.799241 
L 38.617453 71.439424 
L 37.688024 70.986503 
L 36.293516 71.213491 
L 35.829166 72.572253 
L 37.455121 73.932071 
L 40.708487 75.290833 
L 42.800248 76.876583 
L 43.497502 79.142242 
L 43.730405 81.407901 
L 45.589263 83.446572 
L 51.398741 86.958027 
L 53.315825 88.3738 
L 56.511693 91.148863 
L 57.441122 92.055232 
L 57.905473 94.093903 
L 56.743868 95.226732 
L 55.349361 94.773812 
L 53.257599 92.508153 
L 46.517964 89.562585 
L 40.94139 89.336652 
L 35.131912 87.750902 
L 32.342897 86.165152 
L 31.645643 82.993651 
L 23.5115 78.689322 
L 22.582799 76.649595 
L 23.04715 71.213491 
L 23.057339 67.583791 
L 21.885545 58.753422 
L 19.560881 54.902013 
L 17.934925 53.996172 
L 17.469119 56.034843 
L 18.166373 58.753422 
L 17.353395 63.964121 
L 15.610261 72.572253 
L 13.751403 77.556492 
L 11.950406 85.994911 
L 10.73094 90.922402 
L 10.73094 90.922402 
" style="fill:none;stroke:#008000;stroke-linecap:square;stroke-width:0.619572;"/>
   </g>
   <g id="line2d_12">
    <path clip-path="url(#pfa68d83a34)" d="M 10.73094 90.922402 
L 10.149956 92.253319 
L 9.568971 93.584235 
L 8.987987 94.915151 
L 8.407003 96.246068 
L 7.826019 97.576984 
L 7.245035 98.9079 
L 6.664051 100.238817 
L 6.083066 101.569733 
" style="fill:none;stroke:#008000;stroke-linecap:square;stroke-width:0.619572;"/>
   </g>
   <g id="line2d_13">
    <path clip-path="url(#pfa68d83a34)" d="M 94.625566 19.165623 
L 94.625566 20.241705 
L 94.625566 21.317788 
L 94.625566 22.39387 
L 94.625566 23.469953 
L 94.625566 24.715748 
L 94.625566 25.961544 
L 94.625566 27.20734 
L 94.625566 28.453136 
L 94.335165 29.812426 
L 94.044763 31.171715 
L 93.754362 32.531005 
L 93.463961 33.890295 
L 93.92904 35.363079 
L 94.394118 36.835863 
L 96.252976 36.382415 
L 98.111835 35.928966 
L 98.693365 35.136091 
L 99.274895 34.343216 
L 100.90085 34.796136 
L 100.726537 35.758989 
L 100.552223 36.721841 
L 100.37791 37.684693 
L 100.203596 38.647546 
L 99.622794 39.893605 
L 99.041992 41.139665 
L 98.461189 42.385725 
L 97.880387 43.631784 
L 96.601967 44.198199 
L 95.323547 44.764614 
L 94.045127 45.331029 
L 92.766707 45.897444 
L 91.3722 46.350364 
L 89.977692 46.803285 
L 88.583185 47.256206 
L 87.188677 47.709126 
L 86.491423 49.068944 
L 87.42158 50.427706 
L 88.699636 50.597683 
L 89.977692 50.76766 
L 91.255748 50.937638 
L 92.533804 51.107615 
L 93.608798 51.107615 
L 94.683792 51.107615 
L 95.758785 51.107615 
L 96.833779 51.107615 
L 97.908772 51.107615 
L 98.983766 51.107615 
L 100.05876 51.107615 
L 101.133753 51.107615 
L 102.411809 50.824407 
L 103.689865 50.5412 
L 104.967921 50.257993 
L 106.245977 49.974785 
L 107.711084 48.954922 
L 109.17619 47.935059 
L 110.151472 47.255678 
L 111.126754 46.576297 
L 111.824008 45.330501 
L 112.521261 44.084705 
L 113.218515 42.838909 
L 113.915769 41.593114 
L 114.729474 40.686744 
L 115.54318 39.780375 
L 117.402038 39.780375 
L 118.099292 40.516767 
L 118.796546 41.253159 
L 119.4938 41.989551 
L 120.191053 42.725943 
L 121.29516 44.084969 
L 122.399266 45.443995 
L 123.503373 46.803021 
L 124.607479 48.162047 
L 124.898062 49.209888 
L 125.188645 50.257729 
L 125.479229 51.30557 
L 125.769812 52.353411 
L 126.060395 53.401251 
L 126.350978 54.449092 
L 126.641561 55.496933 
L 126.932144 56.544774 
L 126.932144 58.130524 
L 126.932144 59.716275 
L 126.932144 61.302025 
L 126.932144 62.887775 
" style="fill:none;stroke:#4169e1;stroke-linecap:square;stroke-width:0.619572;"/>
   </g>
   <g id="line2d_14">
    <path clip-path="url(#pfa68d83a34)" d="M 94.625566 19.165623 
L 94.422321 20.269947 
L 94.219077 21.374271 
L 94.015833 22.478595 
L 93.812588 23.582919 
L 93.609344 24.687243 
L 93.406099 25.791567 
L 93.202855 26.895891 
L 92.999611 28.000215 
L 92.912454 29.161286 
L 92.825297 30.322357 
L 92.73814 31.483428 
L 92.650984 32.644499 
L 92.563827 33.80557 
L 92.47667 34.966642 
L 92.389514 36.127713 
L 92.302357 37.288784 
L 92.128043 39.157741 
L 91.95373 41.026699 
L 91.779416 42.895656 
L 91.605103 44.764614 
L 91.517946 45.925553 
L 91.43079 47.086492 
L 91.343633 48.247431 
L 91.256476 49.40837 
L 91.169319 50.56931 
L 91.082163 51.730249 
L 90.995006 52.891188 
L 90.907849 54.052127 
L 90.733536 55.609636 
L 90.559222 57.167144 
L 90.384909 58.724653 
L 90.210595 60.282161 
L 90.036282 61.83967 
L 89.861968 63.397179 
L 89.687655 64.954687 
L 89.513342 66.512196 
L 89.222759 68.267923 
L 88.932175 70.023651 
L 88.641592 71.779378 
L 88.351009 73.535106 
L 88.060426 75.290833 
L 87.769843 77.04656 
L 87.47926 78.802288 
L 87.188677 80.558015 
L 86.76745 81.959667 
L 86.346223 83.36132 
L 85.924995 84.762972 
L 85.503768 86.164624 
L 85.082541 87.566276 
L 84.661314 88.967928 
L 84.240087 90.369581 
L 83.81886 91.771233 
" style="fill:none;stroke:#000000;stroke-linecap:square;stroke-width:0.619572;"/>
   </g>
   <g id="line2d_15">
    <path clip-path="url(#pfa68d83a34)" d="M 100.90085 34.796136 
L 102.295358 35.107585 
L 103.689865 35.419034 
L 104.880946 35.44754 
L 106.072028 35.476045 
L 107.263109 35.504551 
L 108.45419 35.533056 
L 110.372002 35.759517 
L 112.289814 35.985977 
L 113.56787 36.665358 
L 114.845926 37.344739 
L 115.194553 38.562557 
L 115.54318 39.780375 
" style="fill:none;stroke:#000000;stroke-linecap:square;stroke-width:0.619572;"/>
   </g>
   <g id="line2d_16">
    <path clip-path="url(#pfa68d83a34)" d="M 126.932144 62.887775 
L 127.106093 64.388537 
L 127.280043 65.889298 
L 127.45472 67.475048 
L 127.629398 69.060798 
L 127.658147 70.363341 
L 127.686896 71.665884 
L 127.715645 72.968427 
L 127.744394 74.27097 
L 127.221817 75.233822 
L 126.699241 76.196674 
L 125.536908 76.253685 
L 124.374576 76.310696 
L 123.328695 75.914259 
L 122.282815 75.517821 
L 121.062985 74.724946 
L 119.843154 73.932071 
L 119.1459 73.082185 
L 118.448647 72.232299 
L 118.56437 71.15648 
L 118.680094 70.080662 
L 118.73832 68.777855 
L 118.796546 67.475048 
L 118.477032 66.568943 
L 118.157518 65.662838 
L 117.838004 64.756733 
L 117.51849 63.850627 
" style="fill:none;stroke:#008000;stroke-linecap:square;stroke-width:0.619572;"/>
   </g>
   <g id="line2d_17">
    <path clip-path="url(#pfa68d83a34)" d="M 126.932144 62.887775 
L 125.915012 64.261054 
L 124.89788 65.634332 
L 123.880749 67.007611 
L 122.863617 68.38089 
L 121.817736 69.683696 
L 120.771856 70.986503 
L 119.610251 71.609401 
L 118.448647 72.232299 
L 117.083252 73.478359 
L 115.717857 74.724418 
L 114.352463 75.970478 
L 112.987068 77.216538 
L 112.173362 78.632311 
L 111.359657 80.048084 
L 110.545952 81.463857 
L 109.732246 82.879629 
L 109.093218 84.125689 
L 108.45419 85.371749 
L 107.815162 86.617809 
L 107.176134 87.863868 
L 106.449768 89.534607 
L 105.723401 91.205346 
L 104.997034 92.876085 
L 104.270667 94.546823 
L 103.707333 95.982656 
L 103.325226 96.954746 
L 102.943119 97.926836 
L 102.561013 98.898926 
L 102.178906 99.871017 
L 101.772417 101.173559 
L 101.365928 102.476102 
L 100.95944 103.778645 
L 100.552951 105.081188 
L 100.320412 106.100523 
L 100.087872 107.119859 
L 99.855333 108.139194 
L 99.622794 109.15853 
L 99.332393 110.574303 
L 99.041992 111.990076 
" style="fill:none;stroke:#008000;stroke-linecap:square;stroke-width:0.619572;"/>
   </g>
   <g id="line2d_18">
    <path clip-path="url(#pfa68d83a34)" d="M 127.744394 74.27097 
L 127.715645 75.970214 
L 127.686896 77.669458 
L 127.658147 79.368703 
L 127.629398 81.067947 
L 127.517313 82.540731 
L 127.405228 84.013515 
L 127.28441 85.598737 
L 127.163591 87.183959 
L 126.931416 88.430019 
L 126.699241 89.676079 
L 126.467065 90.922138 
L 126.23489 92.168198 
L 126.263639 93.13105 
L 126.292388 94.093903 
L 126.321137 95.056755 
L 126.349886 96.019607 
L 126.587884 97.127627 
L 126.825882 98.235646 
L 127.111188 99.562735 
L 127.396495 100.889824 
L 127.280407 102.135884 
L 127.164319 103.381944 
L 127.048232 104.628003 
L 126.932144 105.874063 
L 126.176664 106.553444 
L 125.421185 107.232825 
L 124.258852 107.402802 
L 123.09652 107.572779 
L 122.079752 107.516296 
L 121.062985 107.459813 
L 120.046217 107.40333 
L 119.029449 107.346847 
L 117.111637 107.233353 
L 115.193825 107.119859 
L 113.451418 107.619233 
L 112.347312 107.935961 
L 111.243205 108.252688 
L 109.441845 108.875586 
L 107.640485 109.498484 
L 106.420655 110.517819 
L 105.200824 111.537155 
L 104.329257 112.2168 
L 103.45769 112.896445 
L 102.586123 113.57609 
L 101.714555 114.255735 
" style="fill:none;stroke:#4169e1;stroke-linecap:square;stroke-width:0.619572;"/>
   </g>
   <g id="line2d_19">
    <path clip-path="url(#pfa68d83a34)" d="M 126.699241 76.196674 
L 125.827673 76.961308 
L 124.956106 77.725941 
L 124.084539 78.490575 
L 123.212972 79.255208 
L 122.457492 80.388038 
L 121.702013 81.520868 
L 121.062985 82.257259 
L 120.423957 82.993651 
L 119.436302 84.381183 
L 118.448647 85.768714 
L 117.460992 87.156246 
L 116.473337 88.543777 
L 115.833945 89.279905 
L 115.194553 90.016033 
L 114.555161 90.752161 
L 113.915769 91.488289 
L 113.218515 93.13105 
L 112.521261 94.773812 
L 112.027434 96.274573 
L 111.533607 97.775335 
L 111.039779 99.276096 
L 110.545952 100.776858 
L 109.906924 101.994412 
L 109.267896 103.211966 
L 108.628868 104.429521 
L 107.98984 105.647075 
L 107.205429 106.723157 
L 106.421019 107.79924 
L 105.636608 108.875322 
L 104.852197 109.951405 
L 104.067787 111.027487 
L 103.283376 112.10357 
L 102.498966 113.179652 
L 101.714555 114.255735 
" style="fill:none;stroke:#4169e1;stroke-linecap:square;stroke-width:0.619572;"/>
   </g>
   <g id="line2d_20">
    <path clip-path="url(#pfa68d83a34)" d="M 126.825882 98.235646 
L 125.948856 99.222781 
L 125.07183 100.209915 
L 124.026677 100.889824 
L 122.864345 101.116285 
L 121.702013 101.342745 
L 120.743471 101.654194 
L 119.784928 101.965643 
L 118.826386 102.277092 
L 117.867844 102.588541 
L 116.879462 103.211966 
L 115.891079 103.835392 
L 115.281164 104.781352 
L 114.671249 105.727312 
L 114.061334 106.673273 
L 113.451418 107.619233 
" style="fill:none;stroke:#4169e1;stroke-linecap:square;stroke-width:0.619572;"/>
   </g>
   <g id="line2d_21">
    <path clip-path="url(#pfa68d83a34)" d="M 127.405228 84.013515 
L 126.589703 85.061092 
L 125.774179 86.108669 
L 124.958654 87.156246 
L 124.143129 88.203823 
L 123.474624 89.393135 
L 122.806119 90.582448 
L 122.137614 91.771761 
L 121.469109 92.961073 
L 120.771856 94.207133 
L 120.074602 95.453193 
L 119.377348 96.699252 
L 118.680094 97.945312 
L 117.98284 99.417832 
L 117.285587 100.890352 
L 116.588333 102.362872 
L 115.891079 103.835392 
" style="fill:none;stroke:#4169e1;stroke-linecap:square;stroke-width:0.619572;"/>
   </g>
   <g id="line2d_22">
    <path clip-path="url(#pfa68d83a34)" d="M 115.54318 39.780375 
L 116.589061 41.11116 
L 117.634941 42.441944 
L 118.506145 44.141188 
L 119.377348 45.840433 
L 119.755088 46.775043 
L 120.132828 47.709654 
L 120.510567 48.644265 
L 120.888307 49.578876 
L 121.062621 50.824671 
L 121.236934 52.070467 
L 121.411248 53.316263 
L 121.585561 54.562059 
L 121.614674 55.609899 
L 121.643787 56.65774 
L 121.6729 57.705581 
L 121.702013 58.753422 
L 121.12121 60.282689 
L 120.540408 61.811956 
L 119.029449 62.831292 
L 117.51849 63.850627 
L 115.950033 64.81348 
L 114.381575 65.776332 
L 113.739636 66.490025 
L 112.754165 67.588015 
L 111.476109 68.550867 
L 110.198053 69.513719 
L 109.152172 69.853674 
L 108.106291 70.193628 
L 106.711784 70.986503 
L 105.200824 72.119333 
L 104.445345 72.74223 
L 103.689865 73.365128 
" style="fill:none;stroke:#008000;stroke-linecap:square;stroke-width:0.619572;"/>
   </g>
   <g id="line2d_23">
    <path clip-path="url(#pfa68d83a34)" d="M 83.81886 91.771233 
L 83.484789 92.766286 
L 83.150719 93.761339 
L 82.773707 94.886778 
L 82.263503 95.914031 
L 81.7533 96.941285 
L 81.029844 98.398233 
L 80.601521 99.541092 
L 80.173197 100.683951 
L 79.744874 101.82681 
L 79.316551 102.96967 
L 78.823087 104.288313 
L 77.951156 105.307648 
L 77.079225 106.326984 
L 75.71383 106.525202 
L 74.348435 106.723421 
L 72.983041 106.92164 
L 71.617646 107.119859 
L 70.310477 106.525202 
L 69.003308 105.930546 
L 67.696139 105.33589 
L 66.38897 104.741233 
L 65.227002 103.75014 
L 64.065033 102.759046 
L 62.903065 101.767952 
L 61.741097 100.776858 
L 60.463041 99.644028 
L 59.184985 98.511199 
L 58.273751 98.2272 
L 56.978591 97.823768 
L 55.683431 97.420336 
L 54.388271 97.016904 
L 53.093112 96.613472 
L 51.797952 96.21004 
L 50.502792 95.806608 
L 49.207632 95.403176 
L 47.912472 94.999744 
L 46.798904 95.066257 
L 45.685336 95.13277 
L 43.860321 95.241249 
L 42.035307 95.349728 
L 40.210292 95.458208 
L 38.385278 95.566687 
L 36.961657 95.734816 
L 35.538037 95.902946 
L 34.114416 96.071076 
L 32.690796 96.239205 
L 31.703141 96.355867 
L 30.715486 96.472528 
L 29.495474 96.812351 
L 28.275461 97.152173 
L 27.055449 97.491995 
L 25.835437 97.831818 
L 24.615425 98.17164 
L 23.395413 98.511463 
L 22.1754 98.851285 
L 20.955388 99.191108 
L 19.648219 100.068971 
L 18.34105 100.946835 
L 17.033881 101.824699 
L 15.726712 102.702563 
" style="fill:none;stroke:#4169e1;stroke-linecap:square;stroke-width:0.619572;"/>
   </g>
   <g id="line2d_24">
    <path clip-path="url(#pfa68d83a34)" d="M 83.150719 93.761339 
L 81.334802 93.871138 
L 79.518885 93.980937 
L 78.502117 94.207397 
L 77.48535 94.433857 
L 76.468582 94.660318 
L 75.451814 94.886778 
L 74.202871 95.283215 
L 72.953928 95.679653 
L 71.704984 96.076091 
L 70.456041 96.472528 
L 68.945446 96.585758 
L 67.434851 96.698988 
L 65.924256 96.812219 
L 64.41366 96.925449 
L 63.378697 97.145047 
L 62.343734 97.364645 
L 61.326238 97.580283 
L 60.308742 97.795922 
L 59.291247 98.011561 
L 58.273751 98.2272 
" style="fill:none;stroke:#4169e1;stroke-linecap:square;stroke-width:0.619572;"/>
   </g>
   <g id="line2d_25">
    <path clip-path="url(#pfa68d83a34)" d="M 81.7533 96.941285 
L 80.868996 97.839736 
L 79.984691 98.738187 
L 78.64841 99.814006 
L 77.312128 100.889824 
L 76.353222 101.116285 
L 75.394316 101.342745 
L 74.43541 101.569205 
L 73.476504 101.795666 
L 72.053247 101.795666 
L 70.629991 101.795666 
L 69.206734 101.795666 
L 67.783478 101.795666 
L 66.272882 101.540964 
L 64.762287 101.286262 
L 63.251692 101.03156 
L 61.741097 100.776858 
" style="fill:none;stroke:#000000;stroke-linecap:square;stroke-width:0.619572;"/>
   </g>
   <g id="line2d_26">
    <path clip-path="url(#pfa68d83a34)" d="M 76.034072 88.656743 
L 74.842991 89.308147 
L 73.651909 89.95955 
L 72.460828 90.610953 
L 71.269747 91.262357 
L 70.369067 91.743783 
L 69.468386 92.225209 
L 68.567706 92.706635 
L 67.667026 93.188061 
L 66.336203 94.232207 
L 65.00538 95.276353 
L 63.674557 96.320499 
L 62.343734 97.364645 
" style="fill:none;stroke:#000000;stroke-linecap:square;stroke-width:0.619572;"/>
   </g>
   <g id="line2d_27">
    <path clip-path="url(#pfa68d83a34)" d="M 86.491423 49.068944 
L 86.128422 50.293624 
L 85.76542 51.518305 
L 85.402419 52.742986 
L 85.039418 53.967666 
L 84.676416 55.192347 
L 84.313415 56.417027 
L 83.950413 57.641708 
L 83.587412 58.866388 
L 83.180559 60.055701 
L 82.773707 61.245014 
L 82.366854 62.434326 
L 81.960001 63.623639 
L 81.407948 64.78471 
L 80.855895 65.945781 
L 80.303842 67.106852 
L 79.751788 68.267923 
L 79.199735 69.428994 
L 78.647682 70.590066 
L 78.095629 71.751137 
L 77.543575 72.912208 
L 76.919104 74.059026 
L 76.294632 75.205844 
L 75.670161 76.352663 
L 75.045689 77.499481 
L 74.421217 78.646299 
L 73.796746 79.793118 
L 73.172274 80.939936 
L 72.547803 82.086754 
L 71.298496 83.531033 
L 70.049189 84.975311 
L 68.799882 86.41959 
L 67.550575 87.863868 
L 66.75179 88.642623 
L 65.953005 89.421377 
L 65.154219 90.200131 
L 64.355434 90.978886 
L 63.556649 91.75764 
L 62.757864 92.536394 
L 61.959079 93.315148 
L 61.160294 94.093903 
L 60.438659 95.127227 
L 59.717023 96.160551 
L 58.995387 97.193875 
L 58.273751 98.2272 
" style="fill:none;stroke:#000000;stroke-linecap:square;stroke-width:0.619572;"/>
   </g>
   <g id="line2d_28">
    <path clip-path="url(#pfa68d83a34)" d="M 86.491423 49.068944 
L 84.835627 49.762578 
L 83.179832 50.456211 
L 81.524036 51.149845 
L 79.86824 51.843479 
L 79.403525 53.032792 
L 78.938811 54.222104 
L 78.474096 55.411417 
L 78.009382 56.600729 
L 77.660755 58.413468 
L 77.312128 60.226206 
L 77.037011 61.216772 
L 76.761894 62.207338 
L 76.486777 63.197904 
L 76.21166 64.18847 
L 75.324809 65.548288 
L 74.437957 66.908106 
L 73.551106 68.267923 
L 72.664254 69.627741 
L 71.095069 70.080662 
L 69.525884 70.533582 
L 68.552786 70.972514 
L 67.579687 71.411446 
L 66.606589 71.850378 
L 65.63349 72.28931 
L 64.660392 72.728242 
L 63.687294 73.167174 
L 62.714195 73.606105 
L 61.741097 74.045037 
L 60.898642 74.554705 
L 60.056188 75.064373 
L 59.213734 75.57404 
L 58.371279 76.083708 
L 56.976772 76.876583 
L 55.582264 77.669458 
L 54.411198 78.522512 
L 53.240132 79.375565 
L 52.285957 80.110109 
L 51.331781 80.844654 
L 50.377606 81.579198 
L 49.423431 82.313743 
L 48.464889 82.59695 
L 47.506347 82.880157 
L 46.547805 83.163365 
L 45.589263 83.446572 
L 44.51427 83.673032 
L 43.439276 83.899493 
L 42.364282 84.125953 
L 41.289289 84.352413 
L 39.836919 84.380655 
L 38.38455 84.408897 
L 36.93218 84.437138 
L 35.479811 84.46538 
L 33.739588 84.534004 
L 31.999364 84.602628 
L 30.981141 84.568316 
L 29.962917 84.534004 
L 28.944694 84.499692 
L 27.926471 84.46538 
L 26.70664 84.777093 
L 25.48681 85.088805 
L 24.26698 85.400518 
L 23.04715 85.712231 
L 21.943407 86.193393 
L 20.839664 86.674556 
L 19.735922 87.155718 
L 18.632179 87.63688 
L 17.49896 88.288283 
L 16.36574 88.939687 
L 15.232521 89.59109 
L 14.099302 90.242494 
L 12.415121 90.582448 
L 10.73094 90.922402 
" style="fill:none;stroke:#000000;stroke-linecap:square;stroke-width:0.619572;"/>
   </g>
   <g id="line2d_29">
    <path clip-path="url(#pfa68d83a34)" d="M 35.829166 72.572253 
L 34.957234 74.158003 
L 34.085303 75.743754 
L 33.417162 76.45164 
L 32.749021 77.159527 
L 32.08088 77.867413 
L 31.41274 78.5753 
L 30.64707 79.233565 
L 29.881401 79.891831 
L 29.115732 80.550097 
L 28.350063 81.208363 
L 26.918437 82.270456 
L 25.48681 83.33255 
L 24.26698 84.522391 
L 23.04715 85.712231 
" style="fill:none;stroke:#ff0000;stroke-linecap:square;stroke-width:0.619572;"/>
   </g>
   <g id="line2d_30">
    <path clip-path="url(#pfa68d83a34)" d="M 35.829166 72.572253 
L 34.812398 72.827219 
L 33.79563 73.082185 
L 32.778862 73.337151 
L 31.762094 73.592117 
L 29.960734 74.271498 
L 28.159374 74.950879 
L 27.200832 75.262327 
L 26.24229 75.573776 
L 25.283748 75.885225 
L 24.325206 76.196674 
L 22.582799 76.649595 
L 21.07184 76.140191 
L 19.560881 75.630787 
L 18.573226 74.866154 
L 17.585571 74.10152 
L 16.597916 73.336887 
L 15.610261 72.572253 
" style="fill:none;stroke:#ff0000;stroke-linecap:square;stroke-width:0.619572;"/>
   </g>
   <g id="line2d_31">
    <path clip-path="url(#pfa68d83a34)" d="M 79.316551 102.96967 
L 78.728106 104.262183 
L 78.139662 105.554696 
L 77.551217 106.847209 
L 76.962773 108.139722 
L 76.178545 108.87585 
L 75.394316 109.611978 
L 74.610087 110.348106 
L 73.825859 111.084234 
L 72.51869 111.508913 
L 71.211521 111.933592 
L 69.904352 112.358271 
L 68.597183 112.782951 
L 66.999249 112.839698 
L 65.401315 112.896445 
L 63.803381 112.953192 
L 62.205447 113.009939 
L 61.159567 112.188822 
L 60.113686 111.367706 
L 59.067805 110.546589 
L 58.021924 109.725472 
L 57.17947 108.705873 
L 56.337016 107.686273 
L 55.494561 106.666674 
L 54.652107 105.647075 
L 54.071305 104.684222 
L 53.490503 103.72137 
L 52.9097 102.758518 
L 52.328898 101.795666 
L 51.16693 100.606353 
L 50.004961 99.41704 
L 48.842993 98.227728 
L 47.681025 97.038415 
L 46.68318 96.085592 
L 45.685336 95.13277 
" style="fill:none;stroke:#4169e1;stroke-linecap:square;stroke-width:0.619572;"/>
   </g>
   <g id="line2d_32">
    <path clip-path="url(#pfa68d83a34)" d="M 58.021924 109.725472 
L 56.830843 109.385518 
L 55.639762 109.045563 
L 54.448681 108.705609 
L 53.257599 108.365654 
L 51.754646 108.148696 
L 50.251693 107.931737 
L 48.617732 107.695775 
L 46.983771 107.459813 
L 45.981559 107.459813 
L 44.979348 107.459813 
L 43.977137 107.459813 
L 42.974925 107.459813 
L 41.972714 107.459813 
L 40.970503 107.459813 
L 39.968291 107.459813 
L 38.96608 107.459813 
L 37.426372 107.573043 
L 35.886664 107.686273 
L 34.346955 107.799504 
L 32.807247 107.912734 
L 31.151451 107.969481 
L 29.495656 108.026228 
L 27.83986 108.082975 
L 26.184064 108.139722 
L 24.976243 107.971328 
L 23.768421 107.802935 
L 22.5606 107.634541 
L 21.352779 107.466148 
L 20.491037 107.346847 
L 19.09653 106.893398 
L 17.702022 106.43995 
" style="fill:none;stroke:#000000;stroke-linecap:square;stroke-width:0.619572;"/>
   </g>
   <g id="line2d_33">
    <path clip-path="url(#pfa68d83a34)" d="M 62.205447 113.009939 
L 61.217792 113.094927 
L 60.230137 113.179916 
L 59.242482 113.264905 
L 58.254828 113.349893 
L 57.267173 113.434882 
L 56.279518 113.51987 
L 55.291863 113.604859 
L 54.304208 113.689848 
L 52.706274 114.001297 
L 51.10834 114.312746 
L 49.510406 114.624194 
L 47.912472 114.935643 
L 46.373128 115.133862 
L 44.833784 115.332081 
L 43.294439 115.5303 
L 41.755095 115.728519 
L 40.723771 115.700145 
L 39.692447 115.671771 
L 38.661122 115.643398 
L 37.629798 115.615024 
L 36.598474 115.586651 
L 35.567149 115.558277 
L 34.535825 115.529904 
L 33.504501 115.50153 
L 32.45862 114.963621 
L 31.41274 114.425712 
L 30.366859 113.887803 
L 29.320978 113.349893 
L 28.507637 112.613501 
L 27.694295 111.877109 
L 26.880954 111.140717 
L 26.067612 110.404325 
L 24.888904 109.669781 
L 23.710196 108.935237 
L 22.531487 108.200692 
L 21.352779 107.466148 
" style="fill:none;stroke:#000000;stroke-linecap:square;stroke-width:0.619572;"/>
   </g>
   <g id="line2d_34">
    <path clip-path="url(#pfa68d83a34)" d="M 50.251693 107.931737 
L 49.376487 107.389077 
L 48.50128 106.846417 
L 47.626074 106.303757 
L 46.750868 105.761097 
L 45.995752 104.939716 
L 45.240636 104.118336 
L 44.485521 103.296955 
L 43.730405 102.475574 
L 43.004038 101.710941 
L 42.277671 100.946307 
L 41.551305 100.181674 
L 40.824938 99.41704 
L 39.866396 98.992361 
L 38.907854 98.567682 
L 37.949312 98.143003 
L 36.99077 97.718324 
L 35.915776 97.348544 
L 34.840783 96.978765 
L 33.765789 96.608985 
L 32.690796 96.239205 
" style="fill:none;stroke:#000000;stroke-linecap:square;stroke-width:0.619572;"/>
   </g>
   <g id="line2d_35">
    <path clip-path="url(#pfa68d83a34)" d="M 103.689865 73.365128 
L 102.93475 74.10152 
L 102.179634 74.837912 
L 101.424518 75.574304 
L 100.669402 76.310696 
L 99.448844 77.556492 
L 98.228286 78.802288 
L 97.124544 80.076589 
L 96.020801 81.35089 
L 94.917059 82.625192 
L 93.813316 83.899493 
" style="fill:none;stroke:#008000;stroke-linecap:square;stroke-width:0.619572;"/>
   </g>
   <g id="line2d_36">
    <path clip-path="url(#pfa68d83a34)" d="M 117.51849 63.850627 
L 116.792123 64.954951 
L 116.065756 66.059275 
L 115.33939 67.163599 
L 114.613023 68.267923 
L 114.090083 69.145787 
L 113.567142 70.023651 
L 113.044202 70.901514 
L 112.521261 71.779378 
L 111.069256 72.798714 
L 109.61725 73.818049 
L 108.513144 74.327981 
L 107.409037 74.837912 
L 106.653558 75.602546 
L 105.898078 76.367179 
L 105.142599 77.131813 
L 104.387119 77.896446 
L 103.689865 78.802552 
L 102.992611 79.708657 
L 102.295358 80.614762 
L 101.598104 81.520868 
L 101.289507 82.517504 
L 100.988916 83.485899 
L 100.688326 84.454294 
L 100.387735 85.422689 
L 100.087145 86.391084 
L 99.796743 87.523914 
L 99.506342 88.656743 
L 99.215941 89.789573 
L 98.92554 90.922402 
L 98.693001 92.083473 
L 98.460462 93.244545 
L 98.227922 94.405616 
L 97.995383 95.566687 
L 97.763208 97.20892 
L 97.531033 98.851153 
L 97.298857 100.493387 
L 97.066682 102.13562 
L 97.037569 103.834864 
L 97.008456 105.534109 
L 96.979343 107.233353 
L 96.95023 108.932597 
" style="fill:none;stroke:#008000;stroke-linecap:square;stroke-width:0.619572;"/>
   </g>
   <g id="line2d_37">
    <path clip-path="url(#pfa68d83a34)" d="M 101.289507 82.517504 
L 99.817122 82.925027 
L 98.344738 83.33255 
L 97.211882 83.474286 
L 96.079027 83.616021 
L 94.946171 83.757757 
L 93.813316 83.899493 
L 93.261263 84.763236 
L 92.709209 85.626979 
L 92.157156 86.490722 
L 91.605103 87.354464 
L 91.05305 88.218207 
L 90.500997 89.08195 
L 89.948943 89.945693 
L 89.39689 90.809436 
L 88.525687 92.225209 
L 87.654483 93.640982 
L 86.840778 94.886778 
L 86.027073 96.132574 
L 85.213367 97.378369 
L 84.399662 98.624165 
L 83.128884 99.710541 
L 81.858106 100.796917 
L 80.587328 101.883294 
L 79.316551 102.96967 
" style="fill:none;stroke:#4169e1;stroke-linecap:square;stroke-width:0.619572;"/>
   </g>
   <g id="line2d_38">
    <path clip-path="url(#pfa68d83a34)" d="M 93.813316 83.899493 
L 93.638639 85.711703 
L 93.463961 87.523914 
L 93.522187 89.2514 
L 93.580413 90.978886 
L 93.638639 92.706371 
L 93.696864 94.433857 
L 93.696864 96.274309 
L 93.696864 98.114761 
L 93.696864 99.955213 
L 93.696864 101.795666 
L 93.696864 103.098472 
L 93.696864 104.401279 
L 93.696864 105.704086 
L 93.696864 107.006892 
L 93.696864 108.0257 
" style="fill:none;stroke:#4169e1;stroke-linecap:square;stroke-width:0.619572;"/>
   </g>
   <g id="line2d_39">
    <path clip-path="url(#pfa68d83a34)" d="M 83.81886 91.771233 
L 84.109261 93.555466 
L 84.399662 95.339699 
L 84.399662 96.981932 
L 84.399662 98.624165 
L 85.213367 100.040466 
L 86.027073 101.456767 
L 87.189405 101.683227 
L 88.351737 101.909687 
L 89.135966 102.504344 
L 89.920194 103.099 
L 90.704423 103.693656 
L 91.488651 104.288313 
L 92.592758 105.647603 
L 93.696864 107.006892 
L 95.323547 107.969745 
L 96.95023 108.932597 
L 97.996111 110.461336 
L 99.041992 111.990076 
L 100.378274 113.122905 
L 101.714555 114.255735 
" style="fill:none;stroke:#008000;stroke-linecap:square;stroke-width:0.619572;"/>
   </g>
   <g id="line2d_40">
    <path clip-path="url(#pfa68d83a34)" d="M 109.17619 47.935059 
L 110.384375 48.869933 
L 111.59256 49.804808 
L 111.679535 51.022626 
L 111.76651 52.240444 
L 111.853484 53.458262 
L 111.940459 54.676081 
L 112.114773 55.751899 
L 112.289086 56.827718 
L 112.4634 57.903536 
L 112.637713 58.979355 
L 112.870252 59.913965 
L 113.102792 60.848576 
L 113.335331 61.783187 
L 113.56787 62.717798 
L 113.653753 64.603911 
L 113.739636 66.490025 
" style="fill:none;stroke:#000000;stroke-linecap:square;stroke-width:0.619572;"/>
   </g>
   <g id="line2d_41">
    <path clip-path="url(#pfa68d83a34)" d="M 96.369428 19.448566 
L 97.415309 19.816762 
L 98.461189 20.184958 
L 99.50707 20.553154 
L 100.552951 20.92135 
L 101.831007 21.770708 
L 103.109063 22.620067 
L 104.213169 23.752896 
L 105.317276 24.885726 
L 105.956304 25.678601 
L 106.595332 26.471476 
L 107.23436 27.264351 
L 107.873388 28.057226 
L 109.500071 29.020078 
L 111.126754 29.982931 
L 112.347312 31.002266 
L 113.56787 32.021602 
L 114.32335 33.437374 
L 115.078829 34.853147 
L 115.659631 36.084954 
L 116.240434 37.316761 
L 116.821236 38.548568 
L 117.402038 39.780375 
" style="fill:none;stroke:#000000;stroke-linecap:square;stroke-width:0.619572;"/>
   </g>
   <g id="text_1">
    <g id="patch_2">
     <path d="M 22.063516 105.652581 
L 30.609232 103.257511 
L 30.076076 101.355186 
L 21.53036 103.750257 
z
" style="fill:#ffffff;"/>
    </g>
    <!-- Gateway -->
    <g style="fill:#808080;" transform="translate(21.965129 105.227421)rotate(-15.656358)scale(0.02 -0.02)">
     <defs>
      <path d="M 3809 666 
L 3809 1919 
L 2778 1919 
L 2778 2438 
L 4434 2438 
L 4434 434 
Q 4069 175 3628 42 
Q 3188 -91 2688 -91 
Q 1594 -91 976 548 
Q 359 1188 359 2328 
Q 359 3472 976 4111 
Q 1594 4750 2688 4750 
Q 3144 4750 3555 4637 
Q 3966 4525 4313 4306 
L 4313 3634 
Q 3963 3931 3569 4081 
Q 3175 4231 2741 4231 
Q 1884 4231 1454 3753 
Q 1025 3275 1025 2328 
Q 1025 1384 1454 906 
Q 1884 428 2741 428 
Q 3075 428 3337 486 
Q 3600 544 3809 666 
z
" id="DejaVuSans-47" transform="scale(0.015625)"/>
      <path d="M 2194 1759 
Q 1497 1759 1228 1600 
Q 959 1441 959 1056 
Q 959 750 1161 570 
Q 1363 391 1709 391 
Q 2188 391 2477 730 
Q 2766 1069 2766 1631 
L 2766 1759 
L 2194 1759 
z
M 3341 1997 
L 3341 0 
L 2766 0 
L 2766 531 
Q 2569 213 2275 61 
Q 1981 -91 1556 -91 
Q 1019 -91 701 211 
Q 384 513 384 1019 
Q 384 1609 779 1909 
Q 1175 2209 1959 2209 
L 2766 2209 
L 2766 2266 
Q 2766 2663 2505 2880 
Q 2244 3097 1772 3097 
Q 1472 3097 1187 3025 
Q 903 2953 641 2809 
L 641 3341 
Q 956 3463 1253 3523 
Q 1550 3584 1831 3584 
Q 2591 3584 2966 3190 
Q 3341 2797 3341 1997 
z
" id="DejaVuSans-61" transform="scale(0.015625)"/>
      <path d="M 1172 4494 
L 1172 3500 
L 2356 3500 
L 2356 3053 
L 1172 3053 
L 1172 1153 
Q 1172 725 1289 603 
Q 1406 481 1766 481 
L 2356 481 
L 2356 0 
L 1766 0 
Q 1100 0 847 248 
Q 594 497 594 1153 
L 594 3053 
L 172 3053 
L 172 3500 
L 594 3500 
L 594 4494 
L 1172 4494 
z
" id="DejaVuSans-74" transform="scale(0.015625)"/>
      <path d="M 3597 1894 
L 3597 1613 
L 953 1613 
Q 991 1019 1311 708 
Q 1631 397 2203 397 
Q 2534 397 2845 478 
Q 3156 559 3463 722 
L 3463 178 
Q 3153 47 2828 -22 
Q 2503 -91 2169 -91 
Q 1331 -91 842 396 
Q 353 884 353 1716 
Q 353 2575 817 3079 
Q 1281 3584 2069 3584 
Q 2775 3584 3186 3129 
Q 3597 2675 3597 1894 
z
M 3022 2063 
Q 3016 2534 2758 2815 
Q 2500 3097 2075 3097 
Q 1594 3097 1305 2825 
Q 1016 2553 972 2059 
L 3022 2063 
z
" id="DejaVuSans-65" transform="scale(0.015625)"/>
      <path d="M 269 3500 
L 844 3500 
L 1563 769 
L 2278 3500 
L 2956 3500 
L 3675 769 
L 4391 3500 
L 4966 3500 
L 4050 0 
L 3372 0 
L 2619 2869 
L 1863 0 
L 1184 0 
L 269 3500 
z
" id="DejaVuSans-77" transform="scale(0.015625)"/>
      <path d="M 2059 -325 
Q 1816 -950 1584 -1140 
Q 1353 -1331 966 -1331 
L 506 -1331 
L 506 -850 
L 844 -850 
Q 1081 -850 1212 -737 
Q 1344 -625 1503 -206 
L 1606 56 
L 191 3500 
L 800 3500 
L 1894 763 
L 2988 3500 
L 3597 3500 
L 2059 -325 
z
" id="DejaVuSans-79" transform="scale(0.015625)"/>
     </defs>
     <use xlink:href="#DejaVuSans-47"/>
     <use x="77.490234" xlink:href="#DejaVuSans-61"/>
     <use x="138.769531" xlink:href="#DejaVuSans-74"/>
     <use x="177.978516" xlink:href="#DejaVuSans-65"/>
     <use x="239.501953" xlink:href="#DejaVuSans-77"/>
     <use x="321.289062" xlink:href="#DejaVuSans-61"/>
     <use x="382.568359" xlink:href="#DejaVuSans-79"/>
    </g>
   </g>
   <g id="text_2">
    <g id="patch_3">
     <path d="M 8.990729 96.530054 
L 11.821957 83.554726 
L 9.891748 83.133552 
L 7.06052 96.108881 
z
" style="fill:#ffffff;"/>
    </g>
    <!-- Magic Carpet -->
    <g style="fill:#808080;" transform="translate(8.569077 96.417579)rotate(-77.690943)scale(0.02 -0.02)">
     <defs>
      <path d="M 628 4666 
L 1569 4666 
L 2759 1491 
L 3956 4666 
L 4897 4666 
L 4897 0 
L 4281 0 
L 4281 4097 
L 3078 897 
L 2444 897 
L 1241 4097 
L 1241 0 
L 628 0 
L 628 4666 
z
" id="DejaVuSans-4d" transform="scale(0.015625)"/>
      <path d="M 2906 1791 
Q 2906 2416 2648 2759 
Q 2391 3103 1925 3103 
Q 1463 3103 1205 2759 
Q 947 2416 947 1791 
Q 947 1169 1205 825 
Q 1463 481 1925 481 
Q 2391 481 2648 825 
Q 2906 1169 2906 1791 
z
M 3481 434 
Q 3481 -459 3084 -895 
Q 2688 -1331 1869 -1331 
Q 1566 -1331 1297 -1286 
Q 1028 -1241 775 -1147 
L 775 -588 
Q 1028 -725 1275 -790 
Q 1522 -856 1778 -856 
Q 2344 -856 2625 -561 
Q 2906 -266 2906 331 
L 2906 616 
Q 2728 306 2450 153 
Q 2172 0 1784 0 
Q 1141 0 747 490 
Q 353 981 353 1791 
Q 353 2603 747 3093 
Q 1141 3584 1784 3584 
Q 2172 3584 2450 3431 
Q 2728 3278 2906 2969 
L 2906 3500 
L 3481 3500 
L 3481 434 
z
" id="DejaVuSans-67" transform="scale(0.015625)"/>
      <path d="M 603 3500 
L 1178 3500 
L 1178 0 
L 603 0 
L 603 3500 
z
M 603 4863 
L 1178 4863 
L 1178 4134 
L 603 4134 
L 603 4863 
z
" id="DejaVuSans-69" transform="scale(0.015625)"/>
      <path d="M 3122 3366 
L 3122 2828 
Q 2878 2963 2633 3030 
Q 2388 3097 2138 3097 
Q 1578 3097 1268 2742 
Q 959 2388 959 1747 
Q 959 1106 1268 751 
Q 1578 397 2138 397 
Q 2388 397 2633 464 
Q 2878 531 3122 666 
L 3122 134 
Q 2881 22 2623 -34 
Q 2366 -91 2075 -91 
Q 1284 -91 818 406 
Q 353 903 353 1747 
Q 353 2603 823 3093 
Q 1294 3584 2113 3584 
Q 2378 3584 2631 3529 
Q 2884 3475 3122 3366 
z
" id="DejaVuSans-63" transform="scale(0.015625)"/>
      <path id="DejaVuSans-20" transform="scale(0.015625)"/>
      <path d="M 4122 4306 
L 4122 3641 
Q 3803 3938 3442 4084 
Q 3081 4231 2675 4231 
Q 1875 4231 1450 3742 
Q 1025 3253 1025 2328 
Q 1025 1406 1450 917 
Q 1875 428 2675 428 
Q 3081 428 3442 575 
Q 3803 722 4122 1019 
L 4122 359 
Q 3791 134 3420 21 
Q 3050 -91 2638 -91 
Q 1578 -91 968 557 
Q 359 1206 359 2328 
Q 359 3453 968 4101 
Q 1578 4750 2638 4750 
Q 3056 4750 3426 4639 
Q 3797 4528 4122 4306 
z
" id="DejaVuSans-43" transform="scale(0.015625)"/>
      <path d="M 2631 2963 
Q 2534 3019 2420 3045 
Q 2306 3072 2169 3072 
Q 1681 3072 1420 2755 
Q 1159 2438 1159 1844 
L 1159 0 
L 581 0 
L 581 3500 
L 1159 3500 
L 1159 2956 
Q 1341 3275 1631 3429 
Q 1922 3584 2338 3584 
Q 2397 3584 2469 3576 
Q 2541 3569 2628 3553 
L 2631 2963 
z
" id="DejaVuSans-72" transform="scale(0.015625)"/>
      <path d="M 1159 525 
L 1159 -1331 
L 581 -1331 
L 581 3500 
L 1159 3500 
L 1159 2969 
Q 1341 3281 1617 3432 
Q 1894 3584 2278 3584 
Q 2916 3584 3314 3078 
Q 3713 2572 3713 1747 
Q 3713 922 3314 415 
Q 2916 -91 2278 -91 
Q 1894 -91 1617 61 
Q 1341 213 1159 525 
z
M 3116 1747 
Q 3116 2381 2855 2742 
Q 2594 3103 2138 3103 
Q 1681 3103 1420 2742 
Q 1159 2381 1159 1747 
Q 1159 1113 1420 752 
Q 1681 391 2138 391 
Q 2594 391 2855 752 
Q 3116 1113 3116 1747 
z
" id="DejaVuSans-70" transform="scale(0.015625)"/>
     </defs>
     <use xlink:href="#DejaVuSans-4d"/>
     <use x="86.279297" xlink:href="#DejaVuSans-61"/>
     <use x="147.558594" xlink:href="#DejaVuSans-67"/>
     <use x="211.035156" xlink:href="#DejaVuSans-69"/>
     <use x="238.818359" xlink:href="#DejaVuSans-63"/>
     <use x="293.798828" xlink:href="#DejaVuSans-20"/>
     <use x="325.585938" xlink:href="#DejaVuSans-43"/>
     <use x="395.410156" xlink:href="#DejaVuSans-61"/>
     <use x="456.689453" xlink:href="#DejaVuSans-72"/>
     <use x="497.802734" xlink:href="#DejaVuSans-70"/>
     <use x="561.279297" xlink:href="#DejaVuSans-65"/>
     <use x="622.802734" xlink:href="#DejaVuSans-74"/>
    </g>
   </g>
   <g id="text_3">
    <g id="patch_4">
     <path d="M 114.700871 90.886113 
L 116.381518 86.208568 
L 114.522264 85.540536 
L 112.841616 90.218081 
z
" style="fill:#ffffff;"/>
    </g>
    <!-- Vista -->
    <g style="fill:#808080;" transform="translate(114.297374 90.719885)rotate(-70.236578)scale(0.02 -0.02)">
     <defs>
      <path d="M 1831 0 
L 50 4666 
L 709 4666 
L 2188 738 
L 3669 4666 
L 4325 4666 
L 2547 0 
L 1831 0 
z
" id="DejaVuSans-56" transform="scale(0.015625)"/>
      <path d="M 2834 3397 
L 2834 2853 
Q 2591 2978 2328 3040 
Q 2066 3103 1784 3103 
Q 1356 3103 1142 2972 
Q 928 2841 928 2578 
Q 928 2378 1081 2264 
Q 1234 2150 1697 2047 
L 1894 2003 
Q 2506 1872 2764 1633 
Q 3022 1394 3022 966 
Q 3022 478 2636 193 
Q 2250 -91 1575 -91 
Q 1294 -91 989 -36 
Q 684 19 347 128 
L 347 722 
Q 666 556 975 473 
Q 1284 391 1588 391 
Q 1994 391 2212 530 
Q 2431 669 2431 922 
Q 2431 1156 2273 1281 
Q 2116 1406 1581 1522 
L 1381 1569 
Q 847 1681 609 1914 
Q 372 2147 372 2553 
Q 372 3047 722 3315 
Q 1072 3584 1716 3584 
Q 2034 3584 2315 3537 
Q 2597 3491 2834 3397 
z
" id="DejaVuSans-73" transform="scale(0.015625)"/>
     </defs>
     <use xlink:href="#DejaVuSans-56"/>
     <use x="66.158203" xlink:href="#DejaVuSans-69"/>
     <use x="93.941406" xlink:href="#DejaVuSans-73"/>
     <use x="146.041016" xlink:href="#DejaVuSans-74"/>
     <use x="185.25" xlink:href="#DejaVuSans-61"/>
    </g>
   </g>
   <g id="text_4">
    <g id="patch_5">
     <path d="M 96.57529 66.380236 
L 96.671751 58.567707 
L 94.696276 58.543316 
L 94.599816 66.355845 
z
" style="fill:#ffffff;"/>
    </g>
    <!-- Summit -->
    <g style="fill:#808080;" transform="translate(96.139633 66.354856)rotate(-89.292611)scale(0.02 -0.02)">
     <defs>
      <path d="M 3425 4513 
L 3425 3897 
Q 3066 4069 2747 4153 
Q 2428 4238 2131 4238 
Q 1616 4238 1336 4038 
Q 1056 3838 1056 3469 
Q 1056 3159 1242 3001 
Q 1428 2844 1947 2747 
L 2328 2669 
Q 3034 2534 3370 2195 
Q 3706 1856 3706 1288 
Q 3706 609 3251 259 
Q 2797 -91 1919 -91 
Q 1588 -91 1214 -16 
Q 841 59 441 206 
L 441 856 
Q 825 641 1194 531 
Q 1563 422 1919 422 
Q 2459 422 2753 634 
Q 3047 847 3047 1241 
Q 3047 1584 2836 1778 
Q 2625 1972 2144 2069 
L 1759 2144 
Q 1053 2284 737 2584 
Q 422 2884 422 3419 
Q 422 4038 858 4394 
Q 1294 4750 2059 4750 
Q 2388 4750 2728 4690 
Q 3069 4631 3425 4513 
z
" id="DejaVuSans-53" transform="scale(0.015625)"/>
      <path d="M 544 1381 
L 544 3500 
L 1119 3500 
L 1119 1403 
Q 1119 906 1312 657 
Q 1506 409 1894 409 
Q 2359 409 2629 706 
Q 2900 1003 2900 1516 
L 2900 3500 
L 3475 3500 
L 3475 0 
L 2900 0 
L 2900 538 
Q 2691 219 2414 64 
Q 2138 -91 1772 -91 
Q 1169 -91 856 284 
Q 544 659 544 1381 
z
M 1991 3584 
L 1991 3584 
z
" id="DejaVuSans-75" transform="scale(0.015625)"/>
      <path d="M 3328 2828 
Q 3544 3216 3844 3400 
Q 4144 3584 4550 3584 
Q 5097 3584 5394 3201 
Q 5691 2819 5691 2113 
L 5691 0 
L 5113 0 
L 5113 2094 
Q 5113 2597 4934 2840 
Q 4756 3084 4391 3084 
Q 3944 3084 3684 2787 
Q 3425 2491 3425 1978 
L 3425 0 
L 2847 0 
L 2847 2094 
Q 2847 2600 2669 2842 
Q 2491 3084 2119 3084 
Q 1678 3084 1418 2786 
Q 1159 2488 1159 1978 
L 1159 0 
L 581 0 
L 581 3500 
L 1159 3500 
L 1159 2956 
Q 1356 3278 1631 3431 
Q 1906 3584 2284 3584 
Q 2666 3584 2933 3390 
Q 3200 3197 3328 2828 
z
" id="DejaVuSans-6d" transform="scale(0.015625)"/>
     </defs>
     <use xlink:href="#DejaVuSans-53"/>
     <use x="63.476562" xlink:href="#DejaVuSans-75"/>
     <use x="126.855469" xlink:href="#DejaVuSans-6d"/>
     <use x="224.267578" xlink:href="#DejaVuSans-6d"/>
     <use x="321.679688" xlink:href="#DejaVuSans-69"/>
     <use x="349.462891" xlink:href="#DejaVuSans-74"/>
    </g>
   </g>
   <g id="text_5">
    <g id="patch_6">
     <path d="M 13.442685 83.424863 
L 17.826067 67.219737 
L 15.918978 66.703882 
L 11.535596 82.909008 
z
" style="fill:#ffffff;"/>
    </g>
    <!-- Long Mozy 16.7° -->
    <g style="fill:#008000;" transform="translate(13.027093 83.29173)rotate(-74.864072)scale(0.02 -0.02)">
     <defs>
      <path d="M 628 4666 
L 1259 4666 
L 1259 531 
L 3531 531 
L 3531 0 
L 628 0 
L 628 4666 
z
" id="DejaVuSans-4c" transform="scale(0.015625)"/>
      <path d="M 1959 3097 
Q 1497 3097 1228 2736 
Q 959 2375 959 1747 
Q 959 1119 1226 758 
Q 1494 397 1959 397 
Q 2419 397 2687 759 
Q 2956 1122 2956 1747 
Q 2956 2369 2687 2733 
Q 2419 3097 1959 3097 
z
M 1959 3584 
Q 2709 3584 3137 3096 
Q 3566 2609 3566 1747 
Q 3566 888 3137 398 
Q 2709 -91 1959 -91 
Q 1206 -91 779 398 
Q 353 888 353 1747 
Q 353 2609 779 3096 
Q 1206 3584 1959 3584 
z
" id="DejaVuSans-6f" transform="scale(0.015625)"/>
      <path d="M 3513 2113 
L 3513 0 
L 2938 0 
L 2938 2094 
Q 2938 2591 2744 2837 
Q 2550 3084 2163 3084 
Q 1697 3084 1428 2787 
Q 1159 2491 1159 1978 
L 1159 0 
L 581 0 
L 581 3500 
L 1159 3500 
L 1159 2956 
Q 1366 3272 1645 3428 
Q 1925 3584 2291 3584 
Q 2894 3584 3203 3211 
Q 3513 2838 3513 2113 
z
" id="DejaVuSans-6e" transform="scale(0.015625)"/>
      <path d="M 353 3500 
L 3084 3500 
L 3084 2975 
L 922 459 
L 3084 459 
L 3084 0 
L 275 0 
L 275 525 
L 2438 3041 
L 353 3041 
L 353 3500 
z
" id="DejaVuSans-7a" transform="scale(0.015625)"/>
      <path d="M 794 531 
L 1825 531 
L 1825 4091 
L 703 3866 
L 703 4441 
L 1819 4666 
L 2450 4666 
L 2450 531 
L 3481 531 
L 3481 0 
L 794 0 
L 794 531 
z
" id="DejaVuSans-31" transform="scale(0.015625)"/>
      <path d="M 2113 2584 
Q 1688 2584 1439 2293 
Q 1191 2003 1191 1497 
Q 1191 994 1439 701 
Q 1688 409 2113 409 
Q 2538 409 2786 701 
Q 3034 994 3034 1497 
Q 3034 2003 2786 2293 
Q 2538 2584 2113 2584 
z
M 3366 4563 
L 3366 3988 
Q 3128 4100 2886 4159 
Q 2644 4219 2406 4219 
Q 1781 4219 1451 3797 
Q 1122 3375 1075 2522 
Q 1259 2794 1537 2939 
Q 1816 3084 2150 3084 
Q 2853 3084 3261 2657 
Q 3669 2231 3669 1497 
Q 3669 778 3244 343 
Q 2819 -91 2113 -91 
Q 1303 -91 875 529 
Q 447 1150 447 2328 
Q 447 3434 972 4092 
Q 1497 4750 2381 4750 
Q 2619 4750 2861 4703 
Q 3103 4656 3366 4563 
z
" id="DejaVuSans-36" transform="scale(0.015625)"/>
      <path d="M 684 794 
L 1344 794 
L 1344 0 
L 684 0 
L 684 794 
z
" id="DejaVuSans-2e" transform="scale(0.015625)"/>
      <path d="M 525 4666 
L 3525 4666 
L 3525 4397 
L 1831 0 
L 1172 0 
L 2766 4134 
L 525 4134 
L 525 4666 
z
" id="DejaVuSans-37" transform="scale(0.015625)"/>
      <path d="M 1600 4347 
Q 1350 4347 1178 4173 
Q 1006 4000 1006 3750 
Q 1006 3503 1178 3333 
Q 1350 3163 1600 3163 
Q 1850 3163 2022 3333 
Q 2194 3503 2194 3750 
Q 2194 3997 2020 4172 
Q 1847 4347 1600 4347 
z
M 1600 4750 
Q 1800 4750 1984 4673 
Q 2169 4597 2303 4453 
Q 2447 4313 2519 4134 
Q 2591 3956 2591 3750 
Q 2591 3338 2302 3052 
Q 2013 2766 1594 2766 
Q 1172 2766 890 3047 
Q 609 3328 609 3750 
Q 609 4169 896 4459 
Q 1184 4750 1600 4750 
z
" id="DejaVuSans-b0" transform="scale(0.015625)"/>
     </defs>
     <use xlink:href="#DejaVuSans-4c"/>
     <use x="53.962891" xlink:href="#DejaVuSans-6f"/>
     <use x="115.144531" xlink:href="#DejaVuSans-6e"/>
     <use x="178.523438" xlink:href="#DejaVuSans-67"/>
     <use x="242" xlink:href="#DejaVuSans-20"/>
     <use x="273.787109" xlink:href="#DejaVuSans-4d"/>
     <use x="360.066406" xlink:href="#DejaVuSans-6f"/>
     <use x="421.248047" xlink:href="#DejaVuSans-7a"/>
     <use x="473.738281" xlink:href="#DejaVuSans-79"/>
     <use x="532.917969" xlink:href="#DejaVuSans-20"/>
     <use x="564.705078" xlink:href="#DejaVuSans-31"/>
     <use x="628.328125" xlink:href="#DejaVuSans-36"/>
     <use x="691.951172" xlink:href="#DejaVuSans-2e"/>
     <use x="723.738281" xlink:href="#DejaVuSans-37"/>
     <use x="787.361328" xlink:href="#DejaVuSans-b0"/>
    </g>
   </g>
   <g id="text_6">
    <g id="patch_7">
     <path d="M 6.903495 104.267474 
L 11.793989 88.820987 
L 9.910511 88.224662 
L 5.020017 103.671148 
z
" style="fill:#ffffff;"/>
    </g>
    <!-- Base Camp 8.4° -->
    <g style="fill:#008000;" transform="translate(6.493927 104.116823)rotate(-72.431753)scale(0.02 -0.02)">
     <defs>
      <path d="M 1259 2228 
L 1259 519 
L 2272 519 
Q 2781 519 3026 730 
Q 3272 941 3272 1375 
Q 3272 1813 3026 2020 
Q 2781 2228 2272 2228 
L 1259 2228 
z
M 1259 4147 
L 1259 2741 
L 2194 2741 
Q 2656 2741 2882 2914 
Q 3109 3088 3109 3444 
Q 3109 3797 2882 3972 
Q 2656 4147 2194 4147 
L 1259 4147 
z
M 628 4666 
L 2241 4666 
Q 2963 4666 3353 4366 
Q 3744 4066 3744 3513 
Q 3744 3084 3544 2831 
Q 3344 2578 2956 2516 
Q 3422 2416 3680 2098 
Q 3938 1781 3938 1306 
Q 3938 681 3513 340 
Q 3088 0 2303 0 
L 628 0 
L 628 4666 
z
" id="DejaVuSans-42" transform="scale(0.015625)"/>
      <path d="M 2034 2216 
Q 1584 2216 1326 1975 
Q 1069 1734 1069 1313 
Q 1069 891 1326 650 
Q 1584 409 2034 409 
Q 2484 409 2743 651 
Q 3003 894 3003 1313 
Q 3003 1734 2745 1975 
Q 2488 2216 2034 2216 
z
M 1403 2484 
Q 997 2584 770 2862 
Q 544 3141 544 3541 
Q 544 4100 942 4425 
Q 1341 4750 2034 4750 
Q 2731 4750 3128 4425 
Q 3525 4100 3525 3541 
Q 3525 3141 3298 2862 
Q 3072 2584 2669 2484 
Q 3125 2378 3379 2068 
Q 3634 1759 3634 1313 
Q 3634 634 3220 271 
Q 2806 -91 2034 -91 
Q 1263 -91 848 271 
Q 434 634 434 1313 
Q 434 1759 690 2068 
Q 947 2378 1403 2484 
z
M 1172 3481 
Q 1172 3119 1398 2916 
Q 1625 2713 2034 2713 
Q 2441 2713 2670 2916 
Q 2900 3119 2900 3481 
Q 2900 3844 2670 4047 
Q 2441 4250 2034 4250 
Q 1625 4250 1398 4047 
Q 1172 3844 1172 3481 
z
" id="DejaVuSans-38" transform="scale(0.015625)"/>
      <path d="M 2419 4116 
L 825 1625 
L 2419 1625 
L 2419 4116 
z
M 2253 4666 
L 3047 4666 
L 3047 1625 
L 3713 1625 
L 3713 1100 
L 3047 1100 
L 3047 0 
L 2419 0 
L 2419 1100 
L 313 1100 
L 313 1709 
L 2253 4666 
z
" id="DejaVuSans-34" transform="scale(0.015625)"/>
     </defs>
     <use xlink:href="#DejaVuSans-42"/>
     <use x="68.603516" xlink:href="#DejaVuSans-61"/>
     <use x="129.882812" xlink:href="#DejaVuSans-73"/>
     <use x="181.982422" xlink:href="#DejaVuSans-65"/>
     <use x="243.505859" xlink:href="#DejaVuSans-20"/>
     <use x="275.292969" xlink:href="#DejaVuSans-43"/>
     <use x="345.117188" xlink:href="#DejaVuSans-61"/>
     <use x="406.396484" xlink:href="#DejaVuSans-6d"/>
     <use x="503.808594" xlink:href="#DejaVuSans-70"/>
     <use x="567.285156" xlink:href="#DejaVuSans-20"/>
     <use x="599.072266" xlink:href="#DejaVuSans-38"/>
     <use x="662.695312" xlink:href="#DejaVuSans-2e"/>
     <use x="694.482422" xlink:href="#DejaVuSans-34"/>
     <use x="758.105469" xlink:href="#DejaVuSans-b0"/>
    </g>
   </g>
   <g id="text_7">
    <g id="patch_8">
     <path d="M 88.858785 52.095427 
L 102.658785 52.095427 
L 102.658785 50.119802 
L 88.858785 50.119802 
z
" style="fill:#ffffff;"/>
    </g>
    <!-- To Vista 20.5° -->
    <g style="fill:#4169e1;" transform="translate(88.878785 51.65949)scale(0.02 -0.02)">
     <defs>
      <path d="M -19 4666 
L 3928 4666 
L 3928 4134 
L 2272 4134 
L 2272 0 
L 1638 0 
L 1638 4134 
L -19 4134 
L -19 4666 
z
" id="DejaVuSans-54" transform="scale(0.015625)"/>
      <path d="M 1228 531 
L 3431 531 
L 3431 0 
L 469 0 
L 469 531 
Q 828 903 1448 1529 
Q 2069 2156 2228 2338 
Q 2531 2678 2651 2914 
Q 2772 3150 2772 3378 
Q 2772 3750 2511 3984 
Q 2250 4219 1831 4219 
Q 1534 4219 1204 4116 
Q 875 4013 500 3803 
L 500 4441 
Q 881 4594 1212 4672 
Q 1544 4750 1819 4750 
Q 2544 4750 2975 4387 
Q 3406 4025 3406 3419 
Q 3406 3131 3298 2873 
Q 3191 2616 2906 2266 
Q 2828 2175 2409 1742 
Q 1991 1309 1228 531 
z
" id="DejaVuSans-32" transform="scale(0.015625)"/>
      <path d="M 2034 4250 
Q 1547 4250 1301 3770 
Q 1056 3291 1056 2328 
Q 1056 1369 1301 889 
Q 1547 409 2034 409 
Q 2525 409 2770 889 
Q 3016 1369 3016 2328 
Q 3016 3291 2770 3770 
Q 2525 4250 2034 4250 
z
M 2034 4750 
Q 2819 4750 3233 4129 
Q 3647 3509 3647 2328 
Q 3647 1150 3233 529 
Q 2819 -91 2034 -91 
Q 1250 -91 836 529 
Q 422 1150 422 2328 
Q 422 3509 836 4129 
Q 1250 4750 2034 4750 
z
" id="DejaVuSans-30" transform="scale(0.015625)"/>
      <path d="M 691 4666 
L 3169 4666 
L 3169 4134 
L 1269 4134 
L 1269 2991 
Q 1406 3038 1543 3061 
Q 1681 3084 1819 3084 
Q 2600 3084 3056 2656 
Q 3513 2228 3513 1497 
Q 3513 744 3044 326 
Q 2575 -91 1722 -91 
Q 1428 -91 1123 -41 
Q 819 9 494 109 
L 494 744 
Q 775 591 1075 516 
Q 1375 441 1709 441 
Q 2250 441 2565 725 
Q 2881 1009 2881 1497 
Q 2881 1984 2565 2268 
Q 2250 2553 1709 2553 
Q 1456 2553 1204 2497 
Q 953 2441 691 2322 
L 691 4666 
z
" id="DejaVuSans-35" transform="scale(0.015625)"/>
     </defs>
     <use xlink:href="#DejaVuSans-54"/>
     <use x="44.083984" xlink:href="#DejaVuSans-6f"/>
     <use x="105.265625" xlink:href="#DejaVuSans-20"/>
     <use x="137.052734" xlink:href="#DejaVuSans-56"/>
     <use x="203.210938" xlink:href="#DejaVuSans-69"/>
     <use x="230.994141" xlink:href="#DejaVuSans-73"/>
     <use x="283.09375" xlink:href="#DejaVuSans-74"/>
     <use x="322.302734" xlink:href="#DejaVuSans-61"/>
     <use x="383.582031" xlink:href="#DejaVuSans-20"/>
     <use x="415.369141" xlink:href="#DejaVuSans-32"/>
     <use x="478.992188" xlink:href="#DejaVuSans-30"/>
     <use x="542.615234" xlink:href="#DejaVuSans-2e"/>
     <use x="574.402344" xlink:href="#DejaVuSans-35"/>
     <use x="638.025391" xlink:href="#DejaVuSans-b0"/>
    </g>
   </g>
   <g id="text_8">
    <g id="patch_9">
     <path d="M 93.187807 34.056171 
L 94.76967 22.205657 
L 92.811414 21.944259 
L 91.229552 33.794773 
z
" style="fill:#ffffff;"/>
    </g>
    <!-- Gutsy 25.8° -->
    <g transform="translate(92.758349 33.978667)rotate(-82.396835)scale(0.02 -0.02)">
     <use xlink:href="#DejaVuSans-47"/>
     <use x="77.490234" xlink:href="#DejaVuSans-75"/>
     <use x="140.869141" xlink:href="#DejaVuSans-74"/>
     <use x="180.078125" xlink:href="#DejaVuSans-73"/>
     <use x="232.177734" xlink:href="#DejaVuSans-79"/>
     <use x="291.357422" xlink:href="#DejaVuSans-20"/>
     <use x="323.144531" xlink:href="#DejaVuSans-32"/>
     <use x="386.767578" xlink:href="#DejaVuSans-35"/>
     <use x="450.390625" xlink:href="#DejaVuSans-2e"/>
     <use x="482.177734" xlink:href="#DejaVuSans-38"/>
     <use x="545.800781" xlink:href="#DejaVuSans-b0"/>
    </g>
   </g>
   <g id="text_9">
    <g id="patch_10">
     <path d="M 97.592507 36.163001 
L 119.250719 36.877662 
L 119.315874 34.903112 
L 97.657661 34.18845 
z
" style="fill:#ffffff;"/>
    </g>
    <!-- Upper Chimney 29.5° -->
    <g transform="translate(97.626873 35.72796)rotate(-358.110083)scale(0.02 -0.02)">
     <defs>
      <path d="M 556 4666 
L 1191 4666 
L 1191 1831 
Q 1191 1081 1462 751 
Q 1734 422 2344 422 
Q 2950 422 3222 751 
Q 3494 1081 3494 1831 
L 3494 4666 
L 4128 4666 
L 4128 1753 
Q 4128 841 3676 375 
Q 3225 -91 2344 -91 
Q 1459 -91 1007 375 
Q 556 841 556 1753 
L 556 4666 
z
" id="DejaVuSans-55" transform="scale(0.015625)"/>
      <path d="M 3513 2113 
L 3513 0 
L 2938 0 
L 2938 2094 
Q 2938 2591 2744 2837 
Q 2550 3084 2163 3084 
Q 1697 3084 1428 2787 
Q 1159 2491 1159 1978 
L 1159 0 
L 581 0 
L 581 4863 
L 1159 4863 
L 1159 2956 
Q 1366 3272 1645 3428 
Q 1925 3584 2291 3584 
Q 2894 3584 3203 3211 
Q 3513 2838 3513 2113 
z
" id="DejaVuSans-68" transform="scale(0.015625)"/>
      <path d="M 703 97 
L 703 672 
Q 941 559 1184 500 
Q 1428 441 1663 441 
Q 2288 441 2617 861 
Q 2947 1281 2994 2138 
Q 2813 1869 2534 1725 
Q 2256 1581 1919 1581 
Q 1219 1581 811 2004 
Q 403 2428 403 3163 
Q 403 3881 828 4315 
Q 1253 4750 1959 4750 
Q 2769 4750 3195 4129 
Q 3622 3509 3622 2328 
Q 3622 1225 3098 567 
Q 2575 -91 1691 -91 
Q 1453 -91 1209 -44 
Q 966 3 703 97 
z
M 1959 2075 
Q 2384 2075 2632 2365 
Q 2881 2656 2881 3163 
Q 2881 3666 2632 3958 
Q 2384 4250 1959 4250 
Q 1534 4250 1286 3958 
Q 1038 3666 1038 3163 
Q 1038 2656 1286 2365 
Q 1534 2075 1959 2075 
z
" id="DejaVuSans-39" transform="scale(0.015625)"/>
     </defs>
     <use xlink:href="#DejaVuSans-55"/>
     <use x="73.193359" xlink:href="#DejaVuSans-70"/>
     <use x="136.669922" xlink:href="#DejaVuSans-70"/>
     <use x="200.146484" xlink:href="#DejaVuSans-65"/>
     <use x="261.669922" xlink:href="#DejaVuSans-72"/>
     <use x="302.783203" xlink:href="#DejaVuSans-20"/>
     <use x="334.570312" xlink:href="#DejaVuSans-43"/>
     <use x="404.394531" xlink:href="#DejaVuSans-68"/>
     <use x="467.773438" xlink:href="#DejaVuSans-69"/>
     <use x="495.556641" xlink:href="#DejaVuSans-6d"/>
     <use x="592.96875" xlink:href="#DejaVuSans-6e"/>
     <use x="656.347656" xlink:href="#DejaVuSans-65"/>
     <use x="717.871094" xlink:href="#DejaVuSans-79"/>
     <use x="777.050781" xlink:href="#DejaVuSans-20"/>
     <use x="808.837891" xlink:href="#DejaVuSans-32"/>
     <use x="872.460938" xlink:href="#DejaVuSans-39"/>
     <use x="936.083984" xlink:href="#DejaVuSans-2e"/>
     <use x="967.871094" xlink:href="#DejaVuSans-35"/>
     <use x="1031.494141" xlink:href="#DejaVuSans-b0"/>
    </g>
   </g>
   <g id="text_10">
    <g id="patch_11">
     <path d="M 126.400677 66.084826 
L 126.888769 72.194109 
L 128.858119 72.036771 
L 128.370027 65.927488 
z
" style="fill:#ffffff;"/>
    </g>
    <!--  10.9° -->
    <g style="fill:#008000;" transform="translate(126.836822 66.070044)rotate(-274.567857)scale(0.02 -0.02)">
     <use xlink:href="#DejaVuSans-20"/>
     <use x="31.787109" xlink:href="#DejaVuSans-31"/>
     <use x="95.410156" xlink:href="#DejaVuSans-30"/>
     <use x="159.033203" xlink:href="#DejaVuSans-2e"/>
     <use x="190.820312" xlink:href="#DejaVuSans-39"/>
     <use x="254.443359" xlink:href="#DejaVuSans-b0"/>
    </g>
   </g>
   <g id="text_11">
    <g id="patch_12">
     <path d="M 105.850779 94.732539 
L 111.631228 79.191821 
L 109.779546 78.503079 
L 103.999097 94.043796 
z
" style="fill:#ffffff;"/>
    </g>
    <!-- Sunscreen 17.0° -->
    <g style="fill:#008000;" transform="translate(105.449163 94.561817)rotate(-69.597059)scale(0.02 -0.02)">
     <use xlink:href="#DejaVuSans-53"/>
     <use x="63.476562" xlink:href="#DejaVuSans-75"/>
     <use x="126.855469" xlink:href="#DejaVuSans-6e"/>
     <use x="190.234375" xlink:href="#DejaVuSans-73"/>
     <use x="242.333984" xlink:href="#DejaVuSans-63"/>
     <use x="297.314453" xlink:href="#DejaVuSans-72"/>
     <use x="336.177734" xlink:href="#DejaVuSans-65"/>
     <use x="397.701172" xlink:href="#DejaVuSans-65"/>
     <use x="459.224609" xlink:href="#DejaVuSans-6e"/>
     <use x="522.603516" xlink:href="#DejaVuSans-20"/>
     <use x="554.390625" xlink:href="#DejaVuSans-31"/>
     <use x="618.013672" xlink:href="#DejaVuSans-37"/>
     <use x="681.636719" xlink:href="#DejaVuSans-2e"/>
     <use x="713.423828" xlink:href="#DejaVuSans-30"/>
     <use x="777.046875" xlink:href="#DejaVuSans-b0"/>
    </g>
   </g>
   <g id="text_12">
    <g id="patch_13">
     <path d="M 128.196023 88.167939 
L 128.811225 77.022405 
L 126.838603 76.913522 
L 126.223401 88.059056 
z
" style="fill:#ffffff;"/>
    </g>
    <!-- Edge 19.9° -->
    <g style="fill:#4169e1;" transform="translate(127.761851 88.123944)rotate(-86.840643)scale(0.02 -0.02)">
     <defs>
      <path d="M 628 4666 
L 3578 4666 
L 3578 4134 
L 1259 4134 
L 1259 2753 
L 3481 2753 
L 3481 2222 
L 1259 2222 
L 1259 531 
L 3634 531 
L 3634 0 
L 628 0 
L 628 4666 
z
" id="DejaVuSans-45" transform="scale(0.015625)"/>
      <path d="M 2906 2969 
L 2906 4863 
L 3481 4863 
L 3481 0 
L 2906 0 
L 2906 525 
Q 2725 213 2448 61 
Q 2172 -91 1784 -91 
Q 1150 -91 751 415 
Q 353 922 353 1747 
Q 353 2572 751 3078 
Q 1150 3584 1784 3584 
Q 2172 3584 2448 3432 
Q 2725 3281 2906 2969 
z
M 947 1747 
Q 947 1113 1208 752 
Q 1469 391 1925 391 
Q 2381 391 2643 752 
Q 2906 1113 2906 1747 
Q 2906 2381 2643 2742 
Q 2381 3103 1925 3103 
Q 1469 3103 1208 2742 
Q 947 2381 947 1747 
z
" id="DejaVuSans-64" transform="scale(0.015625)"/>
     </defs>
     <use xlink:href="#DejaVuSans-45"/>
     <use x="63.183594" xlink:href="#DejaVuSans-64"/>
     <use x="126.660156" xlink:href="#DejaVuSans-67"/>
     <use x="190.136719" xlink:href="#DejaVuSans-65"/>
     <use x="251.660156" xlink:href="#DejaVuSans-20"/>
     <use x="283.447266" xlink:href="#DejaVuSans-31"/>
     <use x="347.070312" xlink:href="#DejaVuSans-39"/>
     <use x="410.693359" xlink:href="#DejaVuSans-2e"/>
     <use x="442.480469" xlink:href="#DejaVuSans-39"/>
     <use x="506.103516" xlink:href="#DejaVuSans-b0"/>
    </g>
   </g>
   <g id="text_13">
    <g id="patch_14">
     <path d="M 116.224534 92.230133 
L 122.428244 80.213589 
L 120.672759 79.307295 
L 114.469049 91.32384 
z
" style="fill:#ffffff;"/>
    </g>
    <!-- Cheeky 20.4° -->
    <g style="fill:#4169e1;" transform="translate(115.846347 92.012381)rotate(-62.69432)scale(0.02 -0.02)">
     <defs>
      <path d="M 581 4863 
L 1159 4863 
L 1159 1991 
L 2875 3500 
L 3609 3500 
L 1753 1863 
L 3688 0 
L 2938 0 
L 1159 1709 
L 1159 0 
L 581 0 
L 581 4863 
z
" id="DejaVuSans-6b" transform="scale(0.015625)"/>
     </defs>
     <use xlink:href="#DejaVuSans-43"/>
     <use x="69.824219" xlink:href="#DejaVuSans-68"/>
     <use x="133.203125" xlink:href="#DejaVuSans-65"/>
     <use x="194.726562" xlink:href="#DejaVuSans-65"/>
     <use x="256.25" xlink:href="#DejaVuSans-6b"/>
     <use x="310.535156" xlink:href="#DejaVuSans-79"/>
     <use x="369.714844" xlink:href="#DejaVuSans-20"/>
     <use x="401.501953" xlink:href="#DejaVuSans-32"/>
     <use x="465.125" xlink:href="#DejaVuSans-30"/>
     <use x="528.748047" xlink:href="#DejaVuSans-2e"/>
     <use x="560.535156" xlink:href="#DejaVuSans-34"/>
     <use x="624.158203" xlink:href="#DejaVuSans-b0"/>
    </g>
   </g>
   <g id="text_14">
    <g id="patch_15">
     <path d="M 112.788658 106.064327 
L 125.671823 100.292826 
L 124.864114 98.489856 
L 111.98095 104.261357 
z
" style="fill:#ffffff;"/>
    </g>
    <!-- Wild Bill 21.1° -->
    <g style="fill:#4169e1;" transform="translate(112.628683 105.658311)rotate(-24.1318)scale(0.02 -0.02)">
     <defs>
      <path d="M 213 4666 
L 850 4666 
L 1831 722 
L 2809 4666 
L 3519 4666 
L 4500 722 
L 5478 4666 
L 6119 4666 
L 4947 0 
L 4153 0 
L 3169 4050 
L 2175 0 
L 1381 0 
L 213 4666 
z
" id="DejaVuSans-57" transform="scale(0.015625)"/>
      <path d="M 603 4863 
L 1178 4863 
L 1178 0 
L 603 0 
L 603 4863 
z
" id="DejaVuSans-6c" transform="scale(0.015625)"/>
     </defs>
     <use xlink:href="#DejaVuSans-57"/>
     <use x="96.626953" xlink:href="#DejaVuSans-69"/>
     <use x="124.410156" xlink:href="#DejaVuSans-6c"/>
     <use x="152.193359" xlink:href="#DejaVuSans-64"/>
     <use x="215.669922" xlink:href="#DejaVuSans-20"/>
     <use x="247.457031" xlink:href="#DejaVuSans-42"/>
     <use x="316.060547" xlink:href="#DejaVuSans-69"/>
     <use x="343.84375" xlink:href="#DejaVuSans-6c"/>
     <use x="371.626953" xlink:href="#DejaVuSans-6c"/>
     <use x="399.410156" xlink:href="#DejaVuSans-20"/>
     <use x="431.197266" xlink:href="#DejaVuSans-32"/>
     <use x="494.820312" xlink:href="#DejaVuSans-31"/>
     <use x="558.443359" xlink:href="#DejaVuSans-2e"/>
     <use x="590.230469" xlink:href="#DejaVuSans-31"/>
     <use x="653.853516" xlink:href="#DejaVuSans-b0"/>
    </g>
   </g>
   <g id="text_15">
    <g id="patch_16">
     <path d="M 119.496508 100.416328 
L 125.271148 86.251641 
L 123.441711 85.505818 
L 117.66707 99.670505 
z
" style="fill:#ffffff;"/>
    </g>
    <!-- Doubtfull 24.2° -->
    <g style="fill:#4169e1;" transform="translate(119.100378 100.233236)rotate(-67.820327)scale(0.02 -0.02)">
     <defs>
      <path d="M 1259 4147 
L 1259 519 
L 2022 519 
Q 2988 519 3436 956 
Q 3884 1394 3884 2338 
Q 3884 3275 3436 3711 
Q 2988 4147 2022 4147 
L 1259 4147 
z
M 628 4666 
L 1925 4666 
Q 3281 4666 3915 4102 
Q 4550 3538 4550 2338 
Q 4550 1131 3912 565 
Q 3275 0 1925 0 
L 628 0 
L 628 4666 
z
" id="DejaVuSans-44" transform="scale(0.015625)"/>
      <path d="M 3116 1747 
Q 3116 2381 2855 2742 
Q 2594 3103 2138 3103 
Q 1681 3103 1420 2742 
Q 1159 2381 1159 1747 
Q 1159 1113 1420 752 
Q 1681 391 2138 391 
Q 2594 391 2855 752 
Q 3116 1113 3116 1747 
z
M 1159 2969 
Q 1341 3281 1617 3432 
Q 1894 3584 2278 3584 
Q 2916 3584 3314 3078 
Q 3713 2572 3713 1747 
Q 3713 922 3314 415 
Q 2916 -91 2278 -91 
Q 1894 -91 1617 61 
Q 1341 213 1159 525 
L 1159 0 
L 581 0 
L 581 4863 
L 1159 4863 
L 1159 2969 
z
" id="DejaVuSans-62" transform="scale(0.015625)"/>
      <path d="M 2375 4863 
L 2375 4384 
L 1825 4384 
Q 1516 4384 1395 4259 
Q 1275 4134 1275 3809 
L 1275 3500 
L 2222 3500 
L 2222 3053 
L 1275 3053 
L 1275 0 
L 697 0 
L 697 3053 
L 147 3053 
L 147 3500 
L 697 3500 
L 697 3744 
Q 697 4328 969 4595 
Q 1241 4863 1831 4863 
L 2375 4863 
z
" id="DejaVuSans-66" transform="scale(0.015625)"/>
     </defs>
     <use xlink:href="#DejaVuSans-44"/>
     <use x="77.001953" xlink:href="#DejaVuSans-6f"/>
     <use x="138.183594" xlink:href="#DejaVuSans-75"/>
     <use x="201.5625" xlink:href="#DejaVuSans-62"/>
     <use x="265.039062" xlink:href="#DejaVuSans-74"/>
     <use x="304.248047" xlink:href="#DejaVuSans-66"/>
     <use x="339.453125" xlink:href="#DejaVuSans-75"/>
     <use x="402.832031" xlink:href="#DejaVuSans-6c"/>
     <use x="430.615234" xlink:href="#DejaVuSans-6c"/>
     <use x="458.398438" xlink:href="#DejaVuSans-20"/>
     <use x="490.185547" xlink:href="#DejaVuSans-32"/>
     <use x="553.808594" xlink:href="#DejaVuSans-34"/>
     <use x="617.431641" xlink:href="#DejaVuSans-2e"/>
     <use x="649.21875" xlink:href="#DejaVuSans-32"/>
     <use x="712.841797" xlink:href="#DejaVuSans-b0"/>
    </g>
   </g>
   <g id="text_16">
    <g id="patch_17">
     <path d="M 117.455922 41.735335 
L 121.669364 56.108939 
L 123.565213 55.553195 
L 119.35177 41.179591 
z
" style="fill:#ffffff;"/>
    </g>
    <!-- Chimney 16.2° -->
    <g style="fill:#008000;" transform="translate(117.879882 41.631898)rotate(-286.337841)scale(0.02 -0.02)">
     <use xlink:href="#DejaVuSans-43"/>
     <use x="69.824219" xlink:href="#DejaVuSans-68"/>
     <use x="133.203125" xlink:href="#DejaVuSans-69"/>
     <use x="160.986328" xlink:href="#DejaVuSans-6d"/>
     <use x="258.398438" xlink:href="#DejaVuSans-6e"/>
     <use x="321.777344" xlink:href="#DejaVuSans-65"/>
     <use x="383.300781" xlink:href="#DejaVuSans-79"/>
     <use x="442.480469" xlink:href="#DejaVuSans-20"/>
     <use x="474.267578" xlink:href="#DejaVuSans-31"/>
     <use x="537.890625" xlink:href="#DejaVuSans-36"/>
     <use x="601.513672" xlink:href="#DejaVuSans-2e"/>
     <use x="633.300781" xlink:href="#DejaVuSans-32"/>
     <use x="696.923828" xlink:href="#DejaVuSans-b0"/>
    </g>
   </g>
   <g id="text_17">
    <g id="patch_18">
     <path d="M 29.502156 97.950287 
L 44.738672 95.46929 
L 44.421158 93.519346 
L 29.184642 96.000343 
z
" style="fill:#ffffff;"/>
    </g>
    <!-- True Blue 20.8° -->
    <g style="fill:#4169e1;" transform="translate(29.451834 97.516802)rotate(-9.248435)scale(0.02 -0.02)">
     <use xlink:href="#DejaVuSans-54"/>
     <use x="46.333984" xlink:href="#DejaVuSans-72"/>
     <use x="87.447266" xlink:href="#DejaVuSans-75"/>
     <use x="150.826172" xlink:href="#DejaVuSans-65"/>
     <use x="212.349609" xlink:href="#DejaVuSans-20"/>
     <use x="244.136719" xlink:href="#DejaVuSans-42"/>
     <use x="312.740234" xlink:href="#DejaVuSans-6c"/>
     <use x="340.523438" xlink:href="#DejaVuSans-75"/>
     <use x="403.902344" xlink:href="#DejaVuSans-65"/>
     <use x="465.425781" xlink:href="#DejaVuSans-20"/>
     <use x="497.212891" xlink:href="#DejaVuSans-32"/>
     <use x="560.835938" xlink:href="#DejaVuSans-30"/>
     <use x="624.458984" xlink:href="#DejaVuSans-2e"/>
     <use x="656.246094" xlink:href="#DejaVuSans-38"/>
     <use x="719.869141" xlink:href="#DejaVuSans-b0"/>
    </g>
   </g>
   <g id="text_18">
    <g id="patch_19">
     <path d="M 64.294468 100.247384 
L 77.409704 94.507558 
L 76.617615 92.697672 
L 63.502379 98.437498 
z
" style="fill:#ffffff;"/>
    </g>
    <!-- Narrows 23.6° -->
    <g style="fill:#4169e1;" transform="translate(64.138009 99.84)rotate(-23.636384)scale(0.02 -0.02)">
     <defs>
      <path d="M 628 4666 
L 1478 4666 
L 3547 763 
L 3547 4666 
L 4159 4666 
L 4159 0 
L 3309 0 
L 1241 3903 
L 1241 0 
L 628 0 
L 628 4666 
z
" id="DejaVuSans-4e" transform="scale(0.015625)"/>
      <path d="M 2597 2516 
Q 3050 2419 3304 2112 
Q 3559 1806 3559 1356 
Q 3559 666 3084 287 
Q 2609 -91 1734 -91 
Q 1441 -91 1130 -33 
Q 819 25 488 141 
L 488 750 
Q 750 597 1062 519 
Q 1375 441 1716 441 
Q 2309 441 2620 675 
Q 2931 909 2931 1356 
Q 2931 1769 2642 2001 
Q 2353 2234 1838 2234 
L 1294 2234 
L 1294 2753 
L 1863 2753 
Q 2328 2753 2575 2939 
Q 2822 3125 2822 3475 
Q 2822 3834 2567 4026 
Q 2313 4219 1838 4219 
Q 1578 4219 1281 4162 
Q 984 4106 628 3988 
L 628 4550 
Q 988 4650 1302 4700 
Q 1616 4750 1894 4750 
Q 2613 4750 3031 4423 
Q 3450 4097 3450 3541 
Q 3450 3153 3228 2886 
Q 3006 2619 2597 2516 
z
" id="DejaVuSans-33" transform="scale(0.015625)"/>
     </defs>
     <use xlink:href="#DejaVuSans-4e"/>
     <use x="74.804688" xlink:href="#DejaVuSans-61"/>
     <use x="136.083984" xlink:href="#DejaVuSans-72"/>
     <use x="175.447266" xlink:href="#DejaVuSans-72"/>
     <use x="214.310547" xlink:href="#DejaVuSans-6f"/>
     <use x="275.492188" xlink:href="#DejaVuSans-77"/>
     <use x="357.279297" xlink:href="#DejaVuSans-73"/>
     <use x="409.378906" xlink:href="#DejaVuSans-20"/>
     <use x="441.166016" xlink:href="#DejaVuSans-32"/>
     <use x="504.789062" xlink:href="#DejaVuSans-33"/>
     <use x="568.412109" xlink:href="#DejaVuSans-2e"/>
     <use x="600.199219" xlink:href="#DejaVuSans-36"/>
     <use x="663.822266" xlink:href="#DejaVuSans-b0"/>
    </g>
   </g>
   <g id="text_19">
    <g id="patch_20">
     <path d="M 65.392034 105.466965 
L 82.17266 100.002912 
L 81.560974 98.124367 
L 64.780348 103.588419 
z
" style="fill:#ffffff;"/>
    </g>
    <!-- Think Twice 24.7° -->
    <g transform="translate(65.276078 105.046256)rotate(-18.036114)scale(0.02 -0.02)">
     <use xlink:href="#DejaVuSans-54"/>
     <use x="61.083984" xlink:href="#DejaVuSans-68"/>
     <use x="124.462891" xlink:href="#DejaVuSans-69"/>
     <use x="152.246094" xlink:href="#DejaVuSans-6e"/>
     <use x="215.625" xlink:href="#DejaVuSans-6b"/>
     <use x="273.535156" xlink:href="#DejaVuSans-20"/>
     <use x="305.322266" xlink:href="#DejaVuSans-54"/>
     <use x="349.90625" xlink:href="#DejaVuSans-77"/>
     <use x="431.693359" xlink:href="#DejaVuSans-69"/>
     <use x="459.476562" xlink:href="#DejaVuSans-63"/>
     <use x="514.457031" xlink:href="#DejaVuSans-65"/>
     <use x="575.980469" xlink:href="#DejaVuSans-20"/>
     <use x="607.767578" xlink:href="#DejaVuSans-32"/>
     <use x="671.390625" xlink:href="#DejaVuSans-34"/>
     <use x="735.013672" xlink:href="#DejaVuSans-2e"/>
     <use x="766.800781" xlink:href="#DejaVuSans-37"/>
     <use x="830.423828" xlink:href="#DejaVuSans-b0"/>
    </g>
   </g>
   <g id="text_20">
    <g id="patch_21">
     <path d="M 63.353746 97.9586 
L 76.755097 88.08221 
L 75.583026 86.491819 
L 62.181676 96.368208 
z
" style="fill:#ffffff;"/>
    </g>
    <!-- Soul Heart 28.6° -->
    <g transform="translate(63.11122 97.595802)rotate(-36.38909)scale(0.02 -0.02)">
     <defs>
      <path d="M 628 4666 
L 1259 4666 
L 1259 2753 
L 3553 2753 
L 3553 4666 
L 4184 4666 
L 4184 0 
L 3553 0 
L 3553 2222 
L 1259 2222 
L 1259 0 
L 628 0 
L 628 4666 
z
" id="DejaVuSans-48" transform="scale(0.015625)"/>
     </defs>
     <use xlink:href="#DejaVuSans-53"/>
     <use x="63.476562" xlink:href="#DejaVuSans-6f"/>
     <use x="124.658203" xlink:href="#DejaVuSans-75"/>
     <use x="188.037109" xlink:href="#DejaVuSans-6c"/>
     <use x="215.820312" xlink:href="#DejaVuSans-20"/>
     <use x="247.607422" xlink:href="#DejaVuSans-48"/>
     <use x="322.802734" xlink:href="#DejaVuSans-65"/>
     <use x="384.326172" xlink:href="#DejaVuSans-61"/>
     <use x="445.605469" xlink:href="#DejaVuSans-72"/>
     <use x="486.71875" xlink:href="#DejaVuSans-74"/>
     <use x="525.927734" xlink:href="#DejaVuSans-20"/>
     <use x="557.714844" xlink:href="#DejaVuSans-32"/>
     <use x="621.337891" xlink:href="#DejaVuSans-38"/>
     <use x="684.960938" xlink:href="#DejaVuSans-2e"/>
     <use x="716.748047" xlink:href="#DejaVuSans-36"/>
     <use x="780.371094" xlink:href="#DejaVuSans-b0"/>
    </g>
   </g>
   <g id="text_21">
    <g id="patch_22">
     <path d="M 78.168934 76.767439 
L 85.410545 55.768198 
L 83.542856 55.124124 
L 76.301245 76.123364 
z
" style="fill:#ffffff;"/>
    </g>
    <!-- Nightmare Alley 29.8° -->
    <g transform="translate(77.763333 76.606411)rotate(-70.97319)scale(0.02 -0.02)">
     <defs>
      <path d="M 2188 4044 
L 1331 1722 
L 3047 1722 
L 2188 4044 
z
M 1831 4666 
L 2547 4666 
L 4325 0 
L 3669 0 
L 3244 1197 
L 1141 1197 
L 716 0 
L 50 0 
L 1831 4666 
z
" id="DejaVuSans-41" transform="scale(0.015625)"/>
     </defs>
     <use xlink:href="#DejaVuSans-4e"/>
     <use x="74.804688" xlink:href="#DejaVuSans-69"/>
     <use x="102.587891" xlink:href="#DejaVuSans-67"/>
     <use x="166.064453" xlink:href="#DejaVuSans-68"/>
     <use x="229.443359" xlink:href="#DejaVuSans-74"/>
     <use x="268.652344" xlink:href="#DejaVuSans-6d"/>
     <use x="366.064453" xlink:href="#DejaVuSans-61"/>
     <use x="427.34375" xlink:href="#DejaVuSans-72"/>
     <use x="466.207031" xlink:href="#DejaVuSans-65"/>
     <use x="527.730469" xlink:href="#DejaVuSans-20"/>
     <use x="559.517578" xlink:href="#DejaVuSans-41"/>
     <use x="627.925781" xlink:href="#DejaVuSans-6c"/>
     <use x="655.708984" xlink:href="#DejaVuSans-6c"/>
     <use x="683.492188" xlink:href="#DejaVuSans-65"/>
     <use x="745.015625" xlink:href="#DejaVuSans-79"/>
     <use x="804.195312" xlink:href="#DejaVuSans-20"/>
     <use x="835.982422" xlink:href="#DejaVuSans-32"/>
     <use x="899.605469" xlink:href="#DejaVuSans-39"/>
     <use x="963.228516" xlink:href="#DejaVuSans-2e"/>
     <use x="995.015625" xlink:href="#DejaVuSans-38"/>
     <use x="1058.638672" xlink:href="#DejaVuSans-b0"/>
    </g>
   </g>
   <g id="text_22">
    <g id="patch_23">
     <path d="M 55.740191 78.940352 
L 68.785357 70.827371 
L 67.742002 69.149722 
L 54.696837 77.262703 
z
" style="fill:#ffffff;"/>
    </g>
    <!-- The Beaz 29.1° -->
    <g transform="translate(55.52695 78.559603)rotate(-31.878089)scale(0.02 -0.02)">
     <use xlink:href="#DejaVuSans-54"/>
     <use x="61.083984" xlink:href="#DejaVuSans-68"/>
     <use x="124.462891" xlink:href="#DejaVuSans-65"/>
     <use x="185.986328" xlink:href="#DejaVuSans-20"/>
     <use x="217.773438" xlink:href="#DejaVuSans-42"/>
     <use x="286.376953" xlink:href="#DejaVuSans-65"/>
     <use x="347.900391" xlink:href="#DejaVuSans-61"/>
     <use x="409.179688" xlink:href="#DejaVuSans-7a"/>
     <use x="461.669922" xlink:href="#DejaVuSans-20"/>
     <use x="493.457031" xlink:href="#DejaVuSans-32"/>
     <use x="557.080078" xlink:href="#DejaVuSans-39"/>
     <use x="620.703125" xlink:href="#DejaVuSans-2e"/>
     <use x="652.490234" xlink:href="#DejaVuSans-31"/>
     <use x="716.113281" xlink:href="#DejaVuSans-b0"/>
    </g>
   </g>
   <g id="text_23">
    <g id="patch_24">
     <path d="M 24.683122 87.834931 
L 38.121066 71.906113 
L 36.611019 70.6322 
L 23.173075 86.561018 
z
" style="fill:#ffffff;"/>
    </g>
    <!-- Risky Business 34.6° -->
    <g style="fill:#ff0000;" transform="translate(24.362814 87.538545)rotate(-49.848194)scale(0.02 -0.02)">
     <defs>
      <path d="M 2841 2188 
Q 3044 2119 3236 1894 
Q 3428 1669 3622 1275 
L 4263 0 
L 3584 0 
L 2988 1197 
Q 2756 1666 2539 1819 
Q 2322 1972 1947 1972 
L 1259 1972 
L 1259 0 
L 628 0 
L 628 4666 
L 2053 4666 
Q 2853 4666 3247 4331 
Q 3641 3997 3641 3322 
Q 3641 2881 3436 2590 
Q 3231 2300 2841 2188 
z
M 1259 4147 
L 1259 2491 
L 2053 2491 
Q 2509 2491 2742 2702 
Q 2975 2913 2975 3322 
Q 2975 3731 2742 3939 
Q 2509 4147 2053 4147 
L 1259 4147 
z
" id="DejaVuSans-52" transform="scale(0.015625)"/>
     </defs>
     <use xlink:href="#DejaVuSans-52"/>
     <use x="69.482422" xlink:href="#DejaVuSans-69"/>
     <use x="97.265625" xlink:href="#DejaVuSans-73"/>
     <use x="149.365234" xlink:href="#DejaVuSans-6b"/>
     <use x="203.650391" xlink:href="#DejaVuSans-79"/>
     <use x="262.830078" xlink:href="#DejaVuSans-20"/>
     <use x="294.617188" xlink:href="#DejaVuSans-42"/>
     <use x="363.220703" xlink:href="#DejaVuSans-75"/>
     <use x="426.599609" xlink:href="#DejaVuSans-73"/>
     <use x="478.699219" xlink:href="#DejaVuSans-69"/>
     <use x="506.482422" xlink:href="#DejaVuSans-6e"/>
     <use x="569.861328" xlink:href="#DejaVuSans-65"/>
     <use x="631.384766" xlink:href="#DejaVuSans-73"/>
     <use x="683.484375" xlink:href="#DejaVuSans-73"/>
     <use x="735.583984" xlink:href="#DejaVuSans-20"/>
     <use x="767.371094" xlink:href="#DejaVuSans-33"/>
     <use x="830.994141" xlink:href="#DejaVuSans-34"/>
     <use x="894.617188" xlink:href="#DejaVuSans-2e"/>
     <use x="926.404297" xlink:href="#DejaVuSans-36"/>
     <use x="990.027344" xlink:href="#DejaVuSans-b0"/>
    </g>
   </g>
   <g id="text_24">
    <g id="patch_25">
     <path d="M 18.717563 79.909203 
L 32.657641 73.664218 
L 31.849932 71.861248 
L 17.909854 78.106233 
z
" style="fill:#ffffff;"/>
    </g>
    <!-- Yard Sale 37.0° -->
    <g style="fill:#ff0000;" transform="translate(18.557588 79.503187)rotate(-24.1318)scale(0.02 -0.02)">
     <defs>
      <path d="M -13 4666 
L 666 4666 
L 1959 2747 
L 3244 4666 
L 3922 4666 
L 2272 2222 
L 2272 0 
L 1638 0 
L 1638 2222 
L -13 4666 
z
" id="DejaVuSans-59" transform="scale(0.015625)"/>
     </defs>
     <use xlink:href="#DejaVuSans-59"/>
     <use x="47.333984" xlink:href="#DejaVuSans-61"/>
     <use x="108.613281" xlink:href="#DejaVuSans-72"/>
     <use x="147.976562" xlink:href="#DejaVuSans-64"/>
     <use x="211.453125" xlink:href="#DejaVuSans-20"/>
     <use x="243.240234" xlink:href="#DejaVuSans-53"/>
     <use x="306.716797" xlink:href="#DejaVuSans-61"/>
     <use x="367.996094" xlink:href="#DejaVuSans-6c"/>
     <use x="395.779297" xlink:href="#DejaVuSans-65"/>
     <use x="457.302734" xlink:href="#DejaVuSans-20"/>
     <use x="489.089844" xlink:href="#DejaVuSans-33"/>
     <use x="552.712891" xlink:href="#DejaVuSans-37"/>
     <use x="616.335938" xlink:href="#DejaVuSans-2e"/>
     <use x="648.123047" xlink:href="#DejaVuSans-30"/>
     <use x="711.746094" xlink:href="#DejaVuSans-b0"/>
    </g>
   </g>
   <g id="text_25">
    <g id="patch_26">
     <path d="M 49.450293 96.951093 
L 55.720728 111.283515 
L 57.530712 110.491648 
L 51.260277 96.159225 
z
" style="fill:#ffffff;"/>
    </g>
    <!-- Side Step 23.1° -->
    <g style="fill:#4169e1;" transform="translate(49.857697 96.794684)rotate(-293.629378)scale(0.02 -0.02)">
     <use xlink:href="#DejaVuSans-53"/>
     <use x="63.476562" xlink:href="#DejaVuSans-69"/>
     <use x="91.259766" xlink:href="#DejaVuSans-64"/>
     <use x="154.736328" xlink:href="#DejaVuSans-65"/>
     <use x="216.259766" xlink:href="#DejaVuSans-20"/>
     <use x="248.046875" xlink:href="#DejaVuSans-53"/>
     <use x="311.523438" xlink:href="#DejaVuSans-74"/>
     <use x="350.732422" xlink:href="#DejaVuSans-65"/>
     <use x="412.255859" xlink:href="#DejaVuSans-70"/>
     <use x="475.732422" xlink:href="#DejaVuSans-20"/>
     <use x="507.519531" xlink:href="#DejaVuSans-32"/>
     <use x="571.142578" xlink:href="#DejaVuSans-33"/>
     <use x="634.765625" xlink:href="#DejaVuSans-2e"/>
     <use x="666.552734" xlink:href="#DejaVuSans-31"/>
     <use x="730.175781" xlink:href="#DejaVuSans-b0"/>
    </g>
   </g>
   <g id="text_26">
    <g id="patch_27">
     <path d="M 31.547799 108.447626 
L 46.384361 108.447626 
L 46.384361 106.472001 
L 31.547799 106.472001 
z
" style="fill:#ffffff;"/>
    </g>
    <!-- Downfall 29.6° -->
    <g transform="translate(31.567799 108.011688)scale(0.02 -0.02)">
     <use xlink:href="#DejaVuSans-44"/>
     <use x="77.001953" xlink:href="#DejaVuSans-6f"/>
     <use x="138.183594" xlink:href="#DejaVuSans-77"/>
     <use x="219.970703" xlink:href="#DejaVuSans-6e"/>
     <use x="283.349609" xlink:href="#DejaVuSans-66"/>
     <use x="318.554688" xlink:href="#DejaVuSans-61"/>
     <use x="379.833984" xlink:href="#DejaVuSans-6c"/>
     <use x="407.617188" xlink:href="#DejaVuSans-6c"/>
     <use x="435.400391" xlink:href="#DejaVuSans-20"/>
     <use x="467.1875" xlink:href="#DejaVuSans-32"/>
     <use x="530.810547" xlink:href="#DejaVuSans-39"/>
     <use x="594.433594" xlink:href="#DejaVuSans-2e"/>
     <use x="626.220703" xlink:href="#DejaVuSans-36"/>
     <use x="689.84375" xlink:href="#DejaVuSans-b0"/>
    </g>
   </g>
   <g id="text_27">
    <g id="patch_28">
     <path d="M 41.475917 117.806174 
L 58.057616 113.350149 
L 57.544895 111.442215 
L 40.963196 115.89824 
z
" style="fill:#ffffff;"/>
    </g>
    <!-- Reconsider 25.6° -->
    <g transform="translate(41.382096 117.379982)rotate(-15.041812)scale(0.02 -0.02)">
     <use xlink:href="#DejaVuSans-52"/>
     <use x="64.982422" xlink:href="#DejaVuSans-65"/>
     <use x="126.505859" xlink:href="#DejaVuSans-63"/>
     <use x="181.486328" xlink:href="#DejaVuSans-6f"/>
     <use x="242.667969" xlink:href="#DejaVuSans-6e"/>
     <use x="306.046875" xlink:href="#DejaVuSans-73"/>
     <use x="358.146484" xlink:href="#DejaVuSans-69"/>
     <use x="385.929688" xlink:href="#DejaVuSans-64"/>
     <use x="449.40625" xlink:href="#DejaVuSans-65"/>
     <use x="510.929688" xlink:href="#DejaVuSans-72"/>
     <use x="552.042969" xlink:href="#DejaVuSans-20"/>
     <use x="583.830078" xlink:href="#DejaVuSans-32"/>
     <use x="647.453125" xlink:href="#DejaVuSans-35"/>
     <use x="711.076172" xlink:href="#DejaVuSans-2e"/>
     <use x="742.863281" xlink:href="#DejaVuSans-36"/>
     <use x="806.486328" xlink:href="#DejaVuSans-b0"/>
    </g>
   </g>
   <g id="text_28">
    <g id="patch_29">
     <path d="M 37.499804 95.752762 
L 45.428673 107.260745 
L 47.055539 106.139852 
L 39.12667 94.63187 
z
" style="fill:#ffffff;"/>
    </g>
    <!-- Velocity 24.6° -->
    <g transform="translate(37.870132 95.521898)rotate(-304.566399)scale(0.02 -0.02)">
     <use xlink:href="#DejaVuSans-56"/>
     <use x="60.658203" xlink:href="#DejaVuSans-65"/>
     <use x="122.181641" xlink:href="#DejaVuSans-6c"/>
     <use x="149.964844" xlink:href="#DejaVuSans-6f"/>
     <use x="211.146484" xlink:href="#DejaVuSans-63"/>
     <use x="266.126953" xlink:href="#DejaVuSans-69"/>
     <use x="293.910156" xlink:href="#DejaVuSans-74"/>
     <use x="333.119141" xlink:href="#DejaVuSans-79"/>
     <use x="392.298828" xlink:href="#DejaVuSans-20"/>
     <use x="424.085938" xlink:href="#DejaVuSans-32"/>
     <use x="487.708984" xlink:href="#DejaVuSans-34"/>
     <use x="551.332031" xlink:href="#DejaVuSans-2e"/>
     <use x="583.119141" xlink:href="#DejaVuSans-36"/>
     <use x="646.742188" xlink:href="#DejaVuSans-b0"/>
    </g>
   </g>
   <g id="text_29">
    <g id="patch_30">
     <path d="M 96.284528 83.714905 
L 104.223601 72.542447 
L 102.613161 71.398079 
L 94.674088 82.570538 
z
" style="fill:#ffffff;"/>
    </g>
    <!-- Chimney 8.2° -->
    <g style="fill:#008000;" transform="translate(95.940756 83.446088)rotate(-54.602657)scale(0.02 -0.02)">
     <use xlink:href="#DejaVuSans-43"/>
     <use x="69.824219" xlink:href="#DejaVuSans-68"/>
     <use x="133.203125" xlink:href="#DejaVuSans-69"/>
     <use x="160.986328" xlink:href="#DejaVuSans-6d"/>
     <use x="258.398438" xlink:href="#DejaVuSans-6e"/>
     <use x="321.777344" xlink:href="#DejaVuSans-65"/>
     <use x="383.300781" xlink:href="#DejaVuSans-79"/>
     <use x="442.480469" xlink:href="#DejaVuSans-20"/>
     <use x="474.267578" xlink:href="#DejaVuSans-38"/>
     <use x="537.890625" xlink:href="#DejaVuSans-2e"/>
     <use x="569.677734" xlink:href="#DejaVuSans-32"/>
     <use x="633.300781" xlink:href="#DejaVuSans-b0"/>
    </g>
   </g>
   <g id="text_30">
    <g id="patch_31">
     <path d="M 99.68314 93.538868 
L 101.852684 81.870093 
L 99.910346 81.50896 
L 97.740803 93.177734 
z
" style="fill:#ffffff;"/>
    </g>
    <!-- Gulch 14.2° -->
    <g style="fill:#008000;" transform="translate(99.258204 93.439518)rotate(-79.467418)scale(0.02 -0.02)">
     <use xlink:href="#DejaVuSans-47"/>
     <use x="77.490234" xlink:href="#DejaVuSans-75"/>
     <use x="140.869141" xlink:href="#DejaVuSans-6c"/>
     <use x="168.652344" xlink:href="#DejaVuSans-63"/>
     <use x="223.632812" xlink:href="#DejaVuSans-68"/>
     <use x="287.011719" xlink:href="#DejaVuSans-20"/>
     <use x="318.798828" xlink:href="#DejaVuSans-31"/>
     <use x="382.421875" xlink:href="#DejaVuSans-34"/>
     <use x="446.044922" xlink:href="#DejaVuSans-2e"/>
     <use x="477.832031" xlink:href="#DejaVuSans-32"/>
     <use x="541.455078" xlink:href="#DejaVuSans-b0"/>
    </g>
   </g>
   <g id="text_31">
    <g id="patch_32">
     <path d="M 89.054693 94.550692 
L 93.739706 84.444096 
L 91.9473 83.613208 
L 87.262287 93.719805 
z
" style="fill:#ffffff;"/>
    </g>
    <!-- Exito 18.0° -->
    <g style="fill:#4169e1;" transform="translate(88.667595 94.349205)rotate(-65.129449)scale(0.02 -0.02)">
     <defs>
      <path d="M 3513 3500 
L 2247 1797 
L 3578 0 
L 2900 0 
L 1881 1375 
L 863 0 
L 184 0 
L 1544 1831 
L 300 3500 
L 978 3500 
L 1906 2253 
L 2834 3500 
L 3513 3500 
z
" id="DejaVuSans-78" transform="scale(0.015625)"/>
     </defs>
     <use xlink:href="#DejaVuSans-45"/>
     <use x="63.183594" xlink:href="#DejaVuSans-78"/>
     <use x="122.363281" xlink:href="#DejaVuSans-69"/>
     <use x="150.146484" xlink:href="#DejaVuSans-74"/>
     <use x="189.355469" xlink:href="#DejaVuSans-6f"/>
     <use x="250.537109" xlink:href="#DejaVuSans-20"/>
     <use x="282.324219" xlink:href="#DejaVuSans-31"/>
     <use x="345.947266" xlink:href="#DejaVuSans-38"/>
     <use x="409.570312" xlink:href="#DejaVuSans-2e"/>
     <use x="441.357422" xlink:href="#DejaVuSans-30"/>
     <use x="504.980469" xlink:href="#DejaVuSans-b0"/>
    </g>
   </g>
   <g id="text_32">
    <g id="patch_33">
     <path d="M 94.684677 105.60398 
L 94.684677 90.625543 
L 92.709052 90.625543 
L 92.709052 105.60398 
z
" style="fill:#ffffff;"/>
    </g>
    <!-- Chimney 17.8° -->
    <g style="fill:#4169e1;" transform="translate(94.248739 105.58398)rotate(-90)scale(0.02 -0.02)">
     <use xlink:href="#DejaVuSans-43"/>
     <use x="69.824219" xlink:href="#DejaVuSans-68"/>
     <use x="133.203125" xlink:href="#DejaVuSans-69"/>
     <use x="160.986328" xlink:href="#DejaVuSans-6d"/>
     <use x="258.398438" xlink:href="#DejaVuSans-6e"/>
     <use x="321.777344" xlink:href="#DejaVuSans-65"/>
     <use x="383.300781" xlink:href="#DejaVuSans-79"/>
     <use x="442.480469" xlink:href="#DejaVuSans-20"/>
     <use x="474.267578" xlink:href="#DejaVuSans-31"/>
     <use x="537.890625" xlink:href="#DejaVuSans-37"/>
     <use x="601.513672" xlink:href="#DejaVuSans-2e"/>
     <use x="633.300781" xlink:href="#DejaVuSans-38"/>
     <use x="696.923828" xlink:href="#DejaVuSans-b0"/>
    </g>
   </g>
   <g id="text_33">
    <g id="patch_34">
     <path d="M 84.261509 98.161607 
L 97.288111 111.780601 
L 98.715794 110.415019 
L 85.689192 96.796024 
z
" style="fill:#ffffff;"/>
    </g>
    <!-- Eazy Cheezy 16.4° -->
    <g style="fill:#008000;" transform="translate(84.590363 97.874733)rotate(-313.726393)scale(0.02 -0.02)">
     <use xlink:href="#DejaVuSans-45"/>
     <use x="63.183594" xlink:href="#DejaVuSans-61"/>
     <use x="124.462891" xlink:href="#DejaVuSans-7a"/>
     <use x="176.953125" xlink:href="#DejaVuSans-79"/>
     <use x="236.132812" xlink:href="#DejaVuSans-20"/>
     <use x="267.919922" xlink:href="#DejaVuSans-43"/>
     <use x="337.744141" xlink:href="#DejaVuSans-68"/>
     <use x="401.123047" xlink:href="#DejaVuSans-65"/>
     <use x="462.646484" xlink:href="#DejaVuSans-65"/>
     <use x="524.169922" xlink:href="#DejaVuSans-7a"/>
     <use x="576.660156" xlink:href="#DejaVuSans-79"/>
     <use x="635.839844" xlink:href="#DejaVuSans-20"/>
     <use x="667.626953" xlink:href="#DejaVuSans-31"/>
     <use x="731.25" xlink:href="#DejaVuSans-36"/>
     <use x="794.873047" xlink:href="#DejaVuSans-2e"/>
     <use x="826.660156" xlink:href="#DejaVuSans-34"/>
     <use x="890.283203" xlink:href="#DejaVuSans-b0"/>
    </g>
   </g>
   <g id="text_34">
    <g id="patch_35">
     <path d="M 110.337493 48.684372 
L 112.278557 65.201646 
L 114.240679 64.971063 
L 112.299616 48.453789 
z
" style="fill:#ffffff;"/>
    </g>
    <!-- Blue Moon 29.2° -->
    <g transform="translate(110.772786 48.653355)rotate(-276.702496)scale(0.02 -0.02)">
     <use xlink:href="#DejaVuSans-42"/>
     <use x="68.603516" xlink:href="#DejaVuSans-6c"/>
     <use x="96.386719" xlink:href="#DejaVuSans-75"/>
     <use x="159.765625" xlink:href="#DejaVuSans-65"/>
     <use x="221.289062" xlink:href="#DejaVuSans-20"/>
     <use x="253.076172" xlink:href="#DejaVuSans-4d"/>
     <use x="339.355469" xlink:href="#DejaVuSans-6f"/>
     <use x="400.537109" xlink:href="#DejaVuSans-6f"/>
     <use x="461.71875" xlink:href="#DejaVuSans-6e"/>
     <use x="525.097656" xlink:href="#DejaVuSans-20"/>
     <use x="556.884766" xlink:href="#DejaVuSans-32"/>
     <use x="620.507812" xlink:href="#DejaVuSans-39"/>
     <use x="684.130859" xlink:href="#DejaVuSans-2e"/>
     <use x="715.917969" xlink:href="#DejaVuSans-32"/>
     <use x="779.541016" xlink:href="#DejaVuSans-b0"/>
    </g>
   </g>
   <g id="text_35">
    <g id="patch_36">
     <path d="M 102.410382 24.509148 
L 115.340623 35.061613 
L 116.58976 33.531009 
L 103.659519 22.978543 
z
" style="fill:#ffffff;"/>
    </g>
    <!-- Black Hole 28.9° -->
    <g transform="translate(102.701509 24.184053)rotate(-320.781862)scale(0.02 -0.02)">
     <use xlink:href="#DejaVuSans-42"/>
     <use x="68.603516" xlink:href="#DejaVuSans-6c"/>
     <use x="96.386719" xlink:href="#DejaVuSans-61"/>
     <use x="157.666016" xlink:href="#DejaVuSans-63"/>
     <use x="212.646484" xlink:href="#DejaVuSans-6b"/>
     <use x="270.556641" xlink:href="#DejaVuSans-20"/>
     <use x="302.34375" xlink:href="#DejaVuSans-48"/>
     <use x="377.539062" xlink:href="#DejaVuSans-6f"/>
     <use x="438.720703" xlink:href="#DejaVuSans-6c"/>
     <use x="466.503906" xlink:href="#DejaVuSans-65"/>
     <use x="528.027344" xlink:href="#DejaVuSans-20"/>
     <use x="559.814453" xlink:href="#DejaVuSans-32"/>
     <use x="623.4375" xlink:href="#DejaVuSans-38"/>
     <use x="687.060547" xlink:href="#DejaVuSans-2e"/>
     <use x="718.847656" xlink:href="#DejaVuSans-39"/>
     <use x="782.470703" xlink:href="#DejaVuSans-b0"/>
    </g>
   </g>
   <g id="text_36">
    <!-- Cherry Peak -->
    <g transform="translate(39.753417 9.837478)scale(0.09 -0.09)">
     <defs>
      <path d="M 1259 4147 
L 1259 2394 
L 2053 2394 
Q 2494 2394 2734 2622 
Q 2975 2850 2975 3272 
Q 2975 3691 2734 3919 
Q 2494 4147 2053 4147 
L 1259 4147 
z
M 628 4666 
L 2053 4666 
Q 2838 4666 3239 4311 
Q 3641 3956 3641 3272 
Q 3641 2581 3239 2228 
Q 2838 1875 2053 1875 
L 1259 1875 
L 1259 0 
L 628 0 
L 628 4666 
z
" id="DejaVuSans-50" transform="scale(0.015625)"/>
     </defs>
     <use xlink:href="#DejaVuSans-43"/>
     <use x="69.824219" xlink:href="#DejaVuSans-68"/>
     <use x="133.203125" xlink:href="#DejaVuSans-65"/>
     <use x="194.726562" xlink:href="#DejaVuSans-72"/>
     <use x="234.089844" xlink:href="#DejaVuSans-72"/>
     <use x="275.203125" xlink:href="#DejaVuSans-79"/>
     <use x="334.382812" xlink:href="#DejaVuSans-20"/>
     <use x="366.169922" xlink:href="#DejaVuSans-50"/>
     <use x="422.847656" xlink:href="#DejaVuSans-65"/>
     <use x="484.371094" xlink:href="#DejaVuSans-61"/>
     <use x="545.650391" xlink:href="#DejaVuSans-6b"/>
    </g>
   </g>
   <g id="legend_1">
    <g id="line2d_42">
     <path d="M 3.911972 118.680354 
L 12.911972 118.680354 
" style="fill:none;stroke:#008000;stroke-linecap:square;stroke-width:0.619572;"/>
    </g>
    <g id="line2d_43"/>
    <g id="text_37">
     <!-- Easy -->
     <g transform="translate(16.511972 120.255354)scale(0.045 -0.045)">
      <use xlink:href="#DejaVuSans-45"/>
      <use x="63.183594" xlink:href="#DejaVuSans-61"/>
      <use x="124.462891" xlink:href="#DejaVuSans-73"/>
      <use x="176.5625" xlink:href="#DejaVuSans-79"/>
     </g>
    </g>
    <g id="line2d_44">
     <path d="M 3.911972 125.28551 
L 12.911972 125.28551 
" style="fill:none;stroke:#4169e1;stroke-linecap:square;stroke-width:0.619572;"/>
    </g>
    <g id="line2d_45"/>
    <g id="text_38">
     <!-- Intermediate -->
     <g transform="translate(16.511972 126.86051)scale(0.045 -0.045)">
      <defs>
       <path d="M 628 4666 
L 1259 4666 
L 1259 0 
L 628 0 
L 628 4666 
z
" id="DejaVuSans-49" transform="scale(0.015625)"/>
      </defs>
      <use xlink:href="#DejaVuSans-49"/>
      <use x="29.492188" xlink:href="#DejaVuSans-6e"/>
      <use x="92.871094" xlink:href="#DejaVuSans-74"/>
      <use x="132.080078" xlink:href="#DejaVuSans-65"/>
      <use x="193.603516" xlink:href="#DejaVuSans-72"/>
      <use x="232.966797" xlink:href="#DejaVuSans-6d"/>
      <use x="330.378906" xlink:href="#DejaVuSans-65"/>
      <use x="391.902344" xlink:href="#DejaVuSans-64"/>
      <use x="455.378906" xlink:href="#DejaVuSans-69"/>
      <use x="483.162109" xlink:href="#DejaVuSans-61"/>
      <use x="544.441406" xlink:href="#DejaVuSans-74"/>
      <use x="583.650391" xlink:href="#DejaVuSans-65"/>
     </g>
    </g>
    <g id="line2d_46">
     <path d="M 54.54541 118.680354 
L 63.54541 118.680354 
" style="fill:none;stroke:#000000;stroke-linecap:square;stroke-width:0.619572;"/>
    </g>
    <g id="line2d_47"/>
    <g id="text_39">
     <!-- Advanced -->
     <g transform="translate(67.14541 120.255354)scale(0.045 -0.045)">
      <defs>
       <path d="M 191 3500 
L 800 3500 
L 1894 563 
L 2988 3500 
L 3597 3500 
L 2284 0 
L 1503 0 
L 191 3500 
z
" id="DejaVuSans-76" transform="scale(0.015625)"/>
      </defs>
      <use xlink:href="#DejaVuSans-41"/>
      <use x="66.658203" xlink:href="#DejaVuSans-64"/>
      <use x="130.134766" xlink:href="#DejaVuSans-76"/>
      <use x="189.314453" xlink:href="#DejaVuSans-61"/>
      <use x="250.59375" xlink:href="#DejaVuSans-6e"/>
      <use x="313.972656" xlink:href="#DejaVuSans-63"/>
      <use x="368.953125" xlink:href="#DejaVuSans-65"/>
      <use x="430.476562" xlink:href="#DejaVuSans-64"/>
     </g>
    </g>
    <g id="line2d_48">
     <path d="M 54.54541 125.28551 
L 63.54541 125.28551 
" style="fill:none;stroke:#ff0000;stroke-linecap:square;stroke-width:0.619572;"/>
    </g>
    <g id="line2d_49"/>
    <g id="text_40">
     <!-- Expert -->
     <g transform="translate(67.14541 126.86051)scale(0.045 -0.045)">
      <use xlink:href="#DejaVuSans-45"/>
      <use x="63.183594" xlink:href="#DejaVuSans-78"/>
      <use x="122.363281" xlink:href="#DejaVuSans-70"/>
      <use x="185.839844" xlink:href="#DejaVuSans-65"/>
      <use x="247.363281" xlink:href="#DejaVuSans-72"/>
      <use x="288.476562" xlink:href="#DejaVuSans-74"/>
     </g>
    </g>
    <g id="line2d_50">
     <path d="M 98.374707 118.680354 
L 107.374707 118.680354 
" style="fill:none;stroke:#ffd700;stroke-linecap:square;stroke-width:0.619572;"/>
    </g>
    <g id="line2d_51"/>
    <g id="text_41">
     <!-- Extreme -->
     <g transform="translate(110.974707 120.255354)scale(0.045 -0.045)">
      <use xlink:href="#DejaVuSans-45"/>
      <use x="63.183594" xlink:href="#DejaVuSans-78"/>
      <use x="122.363281" xlink:href="#DejaVuSans-74"/>
      <use x="161.572266" xlink:href="#DejaVuSans-72"/>
      <use x="200.435547" xlink:href="#DejaVuSans-65"/>
      <use x="261.958984" xlink:href="#DejaVuSans-6d"/>
      <use x="359.371094" xlink:href="#DejaVuSans-65"/>
     </g>
    </g>
    <g id="line2d_52">
     <path d="M 98.374707 125.28551 
L 107.374707 125.28551 
" style="fill:none;stroke:#000000;stroke-dasharray:0.619572,1.022293;stroke-dashoffset:0;stroke-width:0.619572;"/>
    </g>
    <g id="line2d_53"/>
    <g id="text_42">
     <!-- Gladed -->
     <g transform="translate(110.974707 126.86051)scale(0.045 -0.045)">
      <use xlink:href="#DejaVuSans-47"/>
      <use x="77.490234" xlink:href="#DejaVuSans-6c"/>
      <use x="105.273438" xlink:href="#DejaVuSans-61"/>
      <use x="166.552734" xlink:href="#DejaVuSans-64"/>
      <use x="230.029297" xlink:href="#DejaVuSans-65"/>
      <use x="291.552734" xlink:href="#DejaVuSans-64"/>
     </g>
    </g>
   </g>
  </g>
  <g id="text_43">
   <!-- Sources: USGS and OpenStreetMaps -->
   <g transform="translate(31.219131 134.080351)scale(0.03913 -0.03913)">
    <defs>
     <path d="M 750 794 
L 1409 794 
L 1409 0 
L 750 0 
L 750 794 
z
M 750 3309 
L 1409 3309 
L 1409 2516 
L 750 2516 
L 750 3309 
z
" id="DejaVuSans-3a" transform="scale(0.015625)"/>
     <path d="M 2522 4238 
Q 1834 4238 1429 3725 
Q 1025 3213 1025 2328 
Q 1025 1447 1429 934 
Q 1834 422 2522 422 
Q 3209 422 3611 934 
Q 4013 1447 4013 2328 
Q 4013 3213 3611 3725 
Q 3209 4238 2522 4238 
z
M 2522 4750 
Q 3503 4750 4090 4092 
Q 4678 3434 4678 2328 
Q 4678 1225 4090 567 
Q 3503 -91 2522 -91 
Q 1538 -91 948 565 
Q 359 1222 359 2328 
Q 359 3434 948 4092 
Q 1538 4750 2522 4750 
z
" id="DejaVuSans-4f" transform="scale(0.015625)"/>
    </defs>
    <use xlink:href="#DejaVuSans-53"/>
    <use x="63.476562" xlink:href="#DejaVuSans-6f"/>
    <use x="124.658203" xlink:href="#DejaVuSans-75"/>
    <use x="188.037109" xlink:href="#DejaVuSans-72"/>
    <use x="226.900391" xlink:href="#DejaVuSans-63"/>
    <use x="281.880859" xlink:href="#DejaVuSans-65"/>
    <use x="343.404297" xlink:href="#DejaVuSans-73"/>
    <use x="395.503906" xlink:href="#DejaVuSans-3a"/>
    <use x="429.195312" xlink:href="#DejaVuSans-20"/>
    <use x="460.982422" xlink:href="#DejaVuSans-55"/>
    <use x="534.175781" xlink:href="#DejaVuSans-53"/>
    <use x="597.652344" xlink:href="#DejaVuSans-47"/>
    <use x="675.142578" xlink:href="#DejaVuSans-53"/>
    <use x="738.619141" xlink:href="#DejaVuSans-20"/>
    <use x="770.40625" xlink:href="#DejaVuSans-61"/>
    <use x="831.685547" xlink:href="#DejaVuSans-6e"/>
    <use x="895.064453" xlink:href="#DejaVuSans-64"/>
    <use x="958.541016" xlink:href="#DejaVuSans-20"/>
    <use x="990.328125" xlink:href="#DejaVuSans-4f"/>
    <use x="1069.039062" xlink:href="#DejaVuSans-70"/>
    <use x="1132.515625" xlink:href="#DejaVuSans-65"/>
    <use x="1194.039062" xlink:href="#DejaVuSans-6e"/>
    <use x="1257.417969" xlink:href="#DejaVuSans-53"/>
    <use x="1320.894531" xlink:href="#DejaVuSans-74"/>
    <use x="1360.103516" xlink:href="#DejaVuSans-72"/>
    <use x="1398.966797" xlink:href="#DejaVuSans-65"/>
    <use x="1460.490234" xlink:href="#DejaVuSans-65"/>
    <use x="1522.013672" xlink:href="#DejaVuSans-74"/>
    <use x="1561.222656" xlink:href="#DejaVuSans-4d"/>
    <use x="1647.501953" xlink:href="#DejaVuSans-61"/>
    <use x="1708.78125" xlink:href="#DejaVuSans-70"/>
    <use x="1772.257812" xlink:href="#DejaVuSans-73"/>
   </g>
  </g>
 </g>
 <defs>
  <clipPath id="pfa68d83a34">
   <rect height="106.219185" width="133.82746" x="0" y="14.337478"/>
  </clipPath>
 </defs>
</svg>
