<?xml version="1.0" encoding="utf-8" standalone="no"?>
<!DOCTYPE svg PUBLIC "-//W3C//DTD SVG 1.1//EN"
  "http://www.w3.org/Graphics/SVG/1.1/DTD/svg11.dtd">
<svg xmlns:xlink="http://www.w3.org/1999/xlink" width="101.72802pt" height="61.913734pt" viewBox="0 0 101.72802 61.913734" xmlns="http://www.w3.org/2000/svg" version="1.1">
 <metadata>
  <rdf:RDF xmlns:dc="http://purl.org/dc/elements/1.1/" xmlns:cc="http://creativecommons.org/ns#" xmlns:rdf="http://www.w3.org/1999/02/22-rdf-syntax-ns#">
   <cc:Work>
    <dc:type rdf:resource="http://purl.org/dc/dcmitype/StillImage"/>
    <dc:date>2022-05-17T22:15:30.160308</dc:date>
    <dc:format>image/svg+xml</dc:format>
    <dc:creator>
     <cc:Agent>
      <dc:title>Matplotlib v3.5.2, https://matplotlib.org/</dc:title>
     </cc:Agent>
    </dc:creator>
   </cc:Work>
  </rdf:RDF>
 </metadata>
 <defs>
  <style type="text/css">*{stroke-linejoin: round; stroke-linecap: butt}</style>
 </defs>
 <g id="figure_1">
  <g id="patch_1">
   <path d="M 0 61.913734 
L 101.72802 61.913734 
L 101.72802 0 
L 0 0 
L 0 61.913734 
z
" style="fill: none"/>
  </g>
  <g id="axes_1">
   <g id="line2d_1">
    <path d="M 8.017109 13.759931 
" clip-path="url(#pdf3b65074b)" style="fill: none; stroke: #008000; stroke-width: 0.001; stroke-linecap: square"/>
   </g>
   <g id="line2d_2">
    <path d="M 8.017109 13.759931 
" clip-path="url(#pdf3b65074b)" style="fill: none; stroke: #4169e1; stroke-width: 0.001; stroke-linecap: square"/>
   </g>
   <g id="line2d_3">
    <path d="M 8.017109 13.759931 
" clip-path="url(#pdf3b65074b)" style="fill: none; stroke: #000000; stroke-width: 0.001; stroke-linecap: square"/>
   </g>
   <g id="line2d_4">
    <path d="M 8.017109 13.759931 
" clip-path="url(#pdf3b65074b)" style="fill: none; stroke: #ff0000; stroke-width: 0.001; stroke-linecap: square"/>
   </g>
   <g id="line2d_5">
    <path d="M 8.017109 13.759931 
" clip-path="url(#pdf3b65074b)" style="fill: none; stroke: #ffd700; stroke-width: 0.001; stroke-linecap: square"/>
   </g>
   <g id="line2d_6">
    <path d="M 8.017109 13.759931 
" clip-path="url(#pdf3b65074b)" style="fill: none; stroke-dasharray: 0.001,0.00165; stroke-dashoffset: 0; stroke: #000000; stroke-width: 0.001"/>
   </g>
   <g id="line2d_7">
    <path d="M 82.821233 46.888408 
L 82.517004 41.708986 
L 82.32122 38.193843 
L 82.125435 34.6787 
L 81.860508 29.941652 
L 81.640706 26.013595 
" clip-path="url(#pdf3b65074b)" style="fill: none; stroke: #808080; stroke-width: 0.470963; stroke-linecap: square"/>
   </g>
   <g id="line2d_8">
    <path d="M 51.964477 42.018554 
L 51.963022 38.760138 
L 51.961566 33.689204 
L 51.96011 30.656184 
L 51.958655 27.623163 
L 51.955744 21.727338 
" clip-path="url(#pdf3b65074b)" style="fill: none; stroke: #808080; stroke-width: 0.470963; stroke-linecap: square"/>
   </g>
   <g id="line2d_9">
    <path d="M 31.534504 33.238413 
L 28.770235 30.754385 
L 24.21989 26.665466 
L 21.096076 23.858776 
L 17.972263 21.052086 
L 13.33749 16.886476 
L 10.739164 14.552089 
" clip-path="url(#pdf3b65074b)" style="fill: none; stroke: #808080; stroke-width: 0.470963; stroke-linecap: square"/>
   </g>
   <g id="line2d_10">
    <path d="M 66.903759 45.712797 
L 67.803347 40.589022 
L 68.702936 35.465247 
L 69.602524 30.341472 
L 70.502112 25.217696 
" clip-path="url(#pdf3b65074b)" style="fill: none; stroke: #808080; stroke-width: 0.470963; stroke-linecap: square"/>
   </g>
   <g id="line2d_11">
    <path d="M 45.69356 40.599778 
L 45.943203 37.100534 
L 46.192846 33.601291 
" clip-path="url(#pdf3b65074b)" style="fill: none; stroke: #808080; stroke-width: 0.470963; stroke-linecap: square"/>
   </g>
   <g id="line2d_12">
    <path d="M 41.680348 38.191505 
L 42.012235 33.099061 
" clip-path="url(#pdf3b65074b)" style="fill: none; stroke: #808080; stroke-width: 0.470963; stroke-linecap: square"/>
   </g>
   <g id="line2d_13">
    <path d="M 97.104019 46.703229 
L 96.819077 42.840874 
L 96.534134 38.978519 
L 96.249192 35.116164 
L 95.964249 31.253809 
" clip-path="url(#pdf3b65074b)" style="fill: none; stroke: #808080; stroke-width: 0.470963; stroke-linecap: square"/>
   </g>
   <g id="line2d_14">
    <path d="M 8.017109 13.759931 
L 6.9705 14.022736 
L 5.587638 14.61475 
L 4.624001 15.849282 
L 4.789944 17.505613 
L 5.675704 19.060936 
L 6.561464 20.616259 
L 7.572045 21.7575 
L 8.582627 22.89874 
L 9.593208 24.039981 
L 10.603789 25.181222 
L 12.043422 25.908847 
L 13.483054 26.636473 
L 14.493636 27.225915 
L 15.504217 27.815357 
L 16.514798 28.4048 
L 17.52538 28.994242 
L 18.99267 29.847191 
L 20.459959 30.700141 
L 21.414862 31.189277 
L 22.369765 31.678414 
L 23.324668 32.16755 
L 24.279571 32.656687 
L 25.400781 33.133431 
L 26.521992 33.610176 
L 27.643202 34.08692 
L 28.764412 34.563664 
L 30.314674 35.040175 
L 31.864936 35.516686 
" clip-path="url(#pdf3b65074b)" style="fill: none; stroke: #008000; stroke-width: 0.470963; stroke-linecap: square"/>
   </g>
   <g id="line2d_15">
    <path d="M 9.36358 15.125398 
L 10.28937 16.384246 
L 11.322878 17.505613 
L 12.153687 18.609209 
L 12.984496 19.712806 
L 13.815305 20.816403 
L 14.646115 21.92 
L 15.708462 22.703916 
L 16.77081 23.487832 
L 17.833158 24.271748 
L 18.895505 25.055664 
L 19.957853 25.83958 
L 21.020201 26.623496 
L 22.082548 27.407412 
L 23.144896 28.191329 
L 24.207244 28.975245 
L 25.269591 29.759161 
L 26.331939 30.543077 
L 27.394287 31.326993 
L 28.456635 32.110909 
L 29.518982 32.894825 
L 30.58133 33.678741 
L 31.643678 34.462657 
" clip-path="url(#pdf3b65074b)" style="fill: none; stroke: #4169e1; stroke-width: 0.470963; stroke-linecap: square"/>
   </g>
   <g id="line2d_16">
    <path d="M 11.549958 14.232233 
L 12.497583 14.716693 
L 13.445208 15.201153 
L 14.392832 15.685613 
L 15.340457 16.170074 
L 16.511887 17.049093 
L 17.683317 17.928113 
L 18.854747 18.807132 
L 20.026177 19.686152 
L 21.197607 20.565171 
L 22.369037 21.444191 
L 23.540468 22.32321 
L 24.711898 23.20223 
L 25.708468 24.272274 
L 26.705039 25.342319 
L 27.70161 26.412363 
L 28.698181 27.482408 
L 29.694751 28.552452 
L 30.691322 29.622497 
L 31.687893 30.692542 
L 32.684464 31.762586 
" clip-path="url(#pdf3b65074b)" style="fill: none; stroke: #008000; stroke-width: 0.470963; stroke-linecap: square"/>
   </g>
   <g id="line2d_17">
    <path d="M 12.238478 13.890866 
L 13.2305 14.269643 
L 14.222522 14.648419 
L 15.214544 15.027196 
L 16.206566 15.405973 
L 17.198588 15.78475 
L 18.190609 16.163527 
L 19.182631 16.542304 
L 20.174653 16.921081 
L 21.837727 17.267825 
L 23.500801 17.61457 
L 25.163875 17.961314 
L 26.826949 18.308059 
L 27.899759 18.433499 
L 28.97257 18.55894 
L 30.04538 18.68438 
L 31.11819 18.809821 
L 32.191 18.935262 
L 33.26381 19.060702 
L 34.33662 19.186143 
L 35.40943 19.311583 
L 36.724241 19.813346 
L 38.039053 20.315108 
L 39.353864 20.816871 
L 40.668675 21.318633 
L 41.655602 22.12482 
" clip-path="url(#pdf3b65074b)" style="fill: none; stroke: #008000; stroke-width: 0.470963; stroke-linecap: square"/>
   </g>
   <g id="line2d_18">
    <path d="M 41.655602 22.12482 
L 40.772025 22.813633 
L 39.888449 23.502445 
L 39.004873 24.191258 
L 38.121296 24.880071 
L 37.415309 26.134477 
L 36.709321 27.388883 
L 36.003333 28.643289 
L 35.297346 29.897695 
L 34.605915 31.477802 
L 33.914483 33.05791 
" clip-path="url(#pdf3b65074b)" style="fill: none; stroke: #008000; stroke-width: 0.470963; stroke-linecap: square"/>
   </g>
   <g id="line2d_19">
    <path d="M 55.474037 22.27259 
L 55.334204 23.517409 
L 55.194371 24.762229 
L 55.054538 26.007049 
L 54.914705 27.251868 
L 54.774872 28.496688 
L 54.63504 29.741508 
L 54.495207 30.986328 
L 54.355374 32.231147 
L 54.215541 33.475967 
L 54.075708 34.720787 
L 53.935875 35.965606 
L 53.796042 37.210426 
L 53.656209 38.455246 
L 53.516377 39.700066 
L 53.376544 40.944885 
L 53.236711 42.189705 
" clip-path="url(#pdf3b65074b)" style="fill: none; stroke: #008000; stroke-width: 0.470963; stroke-linecap: square"/>
   </g>
   <g id="line2d_20">
    <path d="M 79.580968 25.783524 
L 79.530385 27.064701 
L 79.479801 28.345879 
L 79.429217 29.627056 
L 79.378634 30.908234 
L 79.32805 32.189412 
L 79.277466 33.470589 
L 79.226883 34.751767 
L 79.176299 36.032945 
L 79.094055 37.497782 
L 79.011811 38.96262 
L 78.929567 40.427457 
L 78.847323 41.892295 
L 78.76508 43.357133 
L 78.682836 44.82197 
L 78.600592 46.286808 
L 78.518348 47.751646 
" clip-path="url(#pdf3b65074b)" style="fill: none; stroke: #4169e1; stroke-width: 0.470963; stroke-linecap: square"/>
   </g>
   <g id="line2d_21">
    <path d="M 84.776164 27.986976 
L 84.848674 29.247403 
L 84.921183 30.50783 
L 84.993692 31.768256 
L 85.066201 33.028683 
L 85.138711 34.28911 
L 85.21122 35.549536 
L 85.283729 36.809963 
L 85.356239 38.07039 
L 85.428748 39.330817 
L 85.501257 40.591243 
L 85.573767 41.85167 
L 85.646276 43.112097 
L 85.718785 44.372524 
L 85.791295 45.63295 
L 85.863804 46.893377 
L 85.936313 48.153804 
" clip-path="url(#pdf3b65074b)" style="fill: none; stroke: #4169e1; stroke-width: 0.470963; stroke-linecap: square"/>
   </g>
   <g id="line2d_22">
    <path d="M 41.655602 22.12482 
L 42.574114 22.875359 
L 43.492625 23.625898 
L 44.39931 24.66695 
L 45.305995 25.708002 
L 46.212679 26.749054 
L 47.119364 27.790106 
L 48.026049 28.831157 
L 48.932733 29.872209 
L 49.839418 30.913261 
L 50.746103 31.954313 
L 50.856732 32.957838 
L 50.967361 33.961363 
L 51.07799 34.964887 
L 51.188619 35.968412 
L 51.216276 37.46084 
L 51.243933 38.953267 
L 51.271591 40.445695 
L 51.299248 41.938122 
" clip-path="url(#pdf3b65074b)" style="fill: none; stroke: #008000; stroke-width: 0.470963; stroke-linecap: square"/>
   </g>
   <g id="line2d_23">
    <path d="M 50.031381 20.386187 
L 48.56118 20.475971 
L 47.090979 20.565756 
L 45.732135 20.955522 
L 44.37329 21.345288 
L 43.014446 21.735054 
L 41.655602 22.12482 
" clip-path="url(#pdf3b65074b)" style="fill: none; stroke: #008000; stroke-width: 0.470963; stroke-linecap: square"/>
   </g>
   <g id="line2d_24">
    <path d="M 64.512135 24.337625 
L 64.19726 25.483892 
L 63.882386 26.63016 
L 63.567512 27.776428 
L 63.252638 28.922695 
L 62.937764 30.068963 
L 62.62289 31.21523 
L 62.308016 32.361498 
L 61.993141 33.507766 
L 61.678267 34.654033 
L 61.363393 35.800301 
L 61.048519 36.946568 
L 60.733645 38.092836 
L 60.418771 39.239104 
L 60.103897 40.385371 
L 59.789022 41.531639 
L 59.474148 42.677906 
" clip-path="url(#pdf3b65074b)" style="fill: none; stroke: #008000; stroke-width: 0.470963; stroke-linecap: square"/>
   </g>
   <g id="line2d_25">
    <path d="M 76.564873 24.581725 
L 76.205146 25.921649 
L 75.84542 27.261572 
L 75.485694 28.601495 
L 75.125968 29.941418 
L 74.766242 31.281341 
L 74.406515 32.621264 
L 74.046789 33.961187 
L 73.687063 35.30111 
L 73.327337 36.641033 
L 72.967611 37.980956 
L 72.607884 39.32088 
L 72.248158 40.660803 
L 71.888432 42.000726 
L 71.528706 43.340649 
L 71.16898 44.680572 
L 70.809254 46.020495 
" clip-path="url(#pdf3b65074b)" style="fill: none; stroke: #008000; stroke-width: 0.470963; stroke-linecap: square"/>
   </g>
   <g id="line2d_26">
    <path d="M 92.224698 30.765608 
L 92.311855 31.777843 
L 92.399012 32.790077 
L 92.486168 33.802311 
L 92.573325 34.814546 
L 92.660482 35.82678 
L 92.747639 36.839014 
L 92.834795 37.851249 
L 92.921952 38.863483 
L 93.009109 39.875718 
L 93.096265 40.887952 
L 93.183422 41.900186 
L 93.270579 42.912421 
L 93.357736 43.924655 
L 93.444892 44.936889 
L 93.532049 45.949124 
L 93.619206 46.961358 
" clip-path="url(#pdf3b65074b)" style="fill: none; stroke: #008000; stroke-width: 0.470963; stroke-linecap: square"/>
   </g>
   <g id="text_1">
    <g id="patch_2">
     <path d="M 15.411505 17.607606 
L 25.17363 31.259115 
L 26.780647 30.109946 
L 17.018522 16.458437 
z
" style="fill: #ffffff"/>
    </g>
    <!-- South Park Quad -->
    <g style="fill: #808080" transform="translate(15.77774 17.370301)rotate(-305.568368)scale(0.02 -0.02)">
     <defs>
      <path id="DejaVuSans-53" d="M 3425 4513 
L 3425 3897 
Q 3066 4069 2747 4153 
Q 2428 4238 2131 4238 
Q 1616 4238 1336 4038 
Q 1056 3838 1056 3469 
Q 1056 3159 1242 3001 
Q 1428 2844 1947 2747 
L 2328 2669 
Q 3034 2534 3370 2195 
Q 3706 1856 3706 1288 
Q 3706 609 3251 259 
Q 2797 -91 1919 -91 
Q 1588 -91 1214 -16 
Q 841 59 441 206 
L 441 856 
Q 825 641 1194 531 
Q 1563 422 1919 422 
Q 2459 422 2753 634 
Q 3047 847 3047 1241 
Q 3047 1584 2836 1778 
Q 2625 1972 2144 2069 
L 1759 2144 
Q 1053 2284 737 2584 
Q 422 2884 422 3419 
Q 422 4038 858 4394 
Q 1294 4750 2059 4750 
Q 2388 4750 2728 4690 
Q 3069 4631 3425 4513 
z
" transform="scale(0.015625)"/>
      <path id="DejaVuSans-6f" d="M 1959 3097 
Q 1497 3097 1228 2736 
Q 959 2375 959 1747 
Q 959 1119 1226 758 
Q 1494 397 1959 397 
Q 2419 397 2687 759 
Q 2956 1122 2956 1747 
Q 2956 2369 2687 2733 
Q 2419 3097 1959 3097 
z
M 1959 3584 
Q 2709 3584 3137 3096 
Q 3566 2609 3566 1747 
Q 3566 888 3137 398 
Q 2709 -91 1959 -91 
Q 1206 -91 779 398 
Q 353 888 353 1747 
Q 353 2609 779 3096 
Q 1206 3584 1959 3584 
z
" transform="scale(0.015625)"/>
      <path id="DejaVuSans-75" d="M 544 1381 
L 544 3500 
L 1119 3500 
L 1119 1403 
Q 1119 906 1312 657 
Q 1506 409 1894 409 
Q 2359 409 2629 706 
Q 2900 1003 2900 1516 
L 2900 3500 
L 3475 3500 
L 3475 0 
L 2900 0 
L 2900 538 
Q 2691 219 2414 64 
Q 2138 -91 1772 -91 
Q 1169 -91 856 284 
Q 544 659 544 1381 
z
M 1991 3584 
L 1991 3584 
z
" transform="scale(0.015625)"/>
      <path id="DejaVuSans-74" d="M 1172 4494 
L 1172 3500 
L 2356 3500 
L 2356 3053 
L 1172 3053 
L 1172 1153 
Q 1172 725 1289 603 
Q 1406 481 1766 481 
L 2356 481 
L 2356 0 
L 1766 0 
Q 1100 0 847 248 
Q 594 497 594 1153 
L 594 3053 
L 172 3053 
L 172 3500 
L 594 3500 
L 594 4494 
L 1172 4494 
z
" transform="scale(0.015625)"/>
      <path id="DejaVuSans-68" d="M 3513 2113 
L 3513 0 
L 2938 0 
L 2938 2094 
Q 2938 2591 2744 2837 
Q 2550 3084 2163 3084 
Q 1697 3084 1428 2787 
Q 1159 2491 1159 1978 
L 1159 0 
L 581 0 
L 581 4863 
L 1159 4863 
L 1159 2956 
Q 1366 3272 1645 3428 
Q 1925 3584 2291 3584 
Q 2894 3584 3203 3211 
Q 3513 2838 3513 2113 
z
" transform="scale(0.015625)"/>
      <path id="DejaVuSans-20" transform="scale(0.015625)"/>
      <path id="DejaVuSans-50" d="M 1259 4147 
L 1259 2394 
L 2053 2394 
Q 2494 2394 2734 2622 
Q 2975 2850 2975 3272 
Q 2975 3691 2734 3919 
Q 2494 4147 2053 4147 
L 1259 4147 
z
M 628 4666 
L 2053 4666 
Q 2838 4666 3239 4311 
Q 3641 3956 3641 3272 
Q 3641 2581 3239 2228 
Q 2838 1875 2053 1875 
L 1259 1875 
L 1259 0 
L 628 0 
L 628 4666 
z
" transform="scale(0.015625)"/>
      <path id="DejaVuSans-61" d="M 2194 1759 
Q 1497 1759 1228 1600 
Q 959 1441 959 1056 
Q 959 750 1161 570 
Q 1363 391 1709 391 
Q 2188 391 2477 730 
Q 2766 1069 2766 1631 
L 2766 1759 
L 2194 1759 
z
M 3341 1997 
L 3341 0 
L 2766 0 
L 2766 531 
Q 2569 213 2275 61 
Q 1981 -91 1556 -91 
Q 1019 -91 701 211 
Q 384 513 384 1019 
Q 384 1609 779 1909 
Q 1175 2209 1959 2209 
L 2766 2209 
L 2766 2266 
Q 2766 2663 2505 2880 
Q 2244 3097 1772 3097 
Q 1472 3097 1187 3025 
Q 903 2953 641 2809 
L 641 3341 
Q 956 3463 1253 3523 
Q 1550 3584 1831 3584 
Q 2591 3584 2966 3190 
Q 3341 2797 3341 1997 
z
" transform="scale(0.015625)"/>
      <path id="DejaVuSans-72" d="M 2631 2963 
Q 2534 3019 2420 3045 
Q 2306 3072 2169 3072 
Q 1681 3072 1420 2755 
Q 1159 2438 1159 1844 
L 1159 0 
L 581 0 
L 581 3500 
L 1159 3500 
L 1159 2956 
Q 1341 3275 1631 3429 
Q 1922 3584 2338 3584 
Q 2397 3584 2469 3576 
Q 2541 3569 2628 3553 
L 2631 2963 
z
" transform="scale(0.015625)"/>
      <path id="DejaVuSans-6b" d="M 581 4863 
L 1159 4863 
L 1159 1991 
L 2875 3500 
L 3609 3500 
L 1753 1863 
L 3688 0 
L 2938 0 
L 1159 1709 
L 1159 0 
L 581 0 
L 581 4863 
z
" transform="scale(0.015625)"/>
      <path id="DejaVuSans-51" d="M 2522 4238 
Q 1834 4238 1429 3725 
Q 1025 3213 1025 2328 
Q 1025 1447 1429 934 
Q 1834 422 2522 422 
Q 3209 422 3611 934 
Q 4013 1447 4013 2328 
Q 4013 3213 3611 3725 
Q 3209 4238 2522 4238 
z
M 3406 84 
L 4238 -825 
L 3475 -825 
L 2784 -78 
Q 2681 -84 2626 -87 
Q 2572 -91 2522 -91 
Q 1538 -91 948 567 
Q 359 1225 359 2328 
Q 359 3434 948 4092 
Q 1538 4750 2522 4750 
Q 3503 4750 4090 4092 
Q 4678 3434 4678 2328 
Q 4678 1516 4351 937 
Q 4025 359 3406 84 
z
" transform="scale(0.015625)"/>
      <path id="DejaVuSans-64" d="M 2906 2969 
L 2906 4863 
L 3481 4863 
L 3481 0 
L 2906 0 
L 2906 525 
Q 2725 213 2448 61 
Q 2172 -91 1784 -91 
Q 1150 -91 751 415 
Q 353 922 353 1747 
Q 353 2572 751 3078 
Q 1150 3584 1784 3584 
Q 2172 3584 2448 3432 
Q 2725 3281 2906 2969 
z
M 947 1747 
Q 947 1113 1208 752 
Q 1469 391 1925 391 
Q 2381 391 2643 752 
Q 2906 1113 2906 1747 
Q 2906 2381 2643 2742 
Q 2381 3103 1925 3103 
Q 1469 3103 1208 2742 
Q 947 2381 947 1747 
z
" transform="scale(0.015625)"/>
     </defs>
     <use xlink:href="#DejaVuSans-53"/>
     <use xlink:href="#DejaVuSans-6f" x="63.476562"/>
     <use xlink:href="#DejaVuSans-75" x="124.658203"/>
     <use xlink:href="#DejaVuSans-74" x="188.037109"/>
     <use xlink:href="#DejaVuSans-68" x="227.246094"/>
     <use xlink:href="#DejaVuSans-20" x="290.625"/>
     <use xlink:href="#DejaVuSans-50" x="322.412109"/>
     <use xlink:href="#DejaVuSans-61" x="378.214844"/>
     <use xlink:href="#DejaVuSans-72" x="439.494141"/>
     <use xlink:href="#DejaVuSans-6b" x="480.607422"/>
     <use xlink:href="#DejaVuSans-20" x="538.517578"/>
     <use xlink:href="#DejaVuSans-51" x="570.304688"/>
     <use xlink:href="#DejaVuSans-75" x="649.015625"/>
     <use xlink:href="#DejaVuSans-61" x="712.394531"/>
     <use xlink:href="#DejaVuSans-64" x="773.673828"/>
    </g>
   </g>
   <g id="text_2">
    <g id="patch_3">
     <path d="M 13.038612 25.792304 
L 23.621254 35.367075 
L 24.946727 33.902079 
L 14.364085 24.327307 
z
" style="fill: #ffffff"/>
    </g>
    <!-- Big Foot 10.7째 -->
    <g style="fill: #008000" transform="translate(13.345919 25.482459)rotate(-317.862405)scale(0.02 -0.02)">
     <defs>
      <path id="DejaVuSans-42" d="M 1259 2228 
L 1259 519 
L 2272 519 
Q 2781 519 3026 730 
Q 3272 941 3272 1375 
Q 3272 1813 3026 2020 
Q 2781 2228 2272 2228 
L 1259 2228 
z
M 1259 4147 
L 1259 2741 
L 2194 2741 
Q 2656 2741 2882 2914 
Q 3109 3088 3109 3444 
Q 3109 3797 2882 3972 
Q 2656 4147 2194 4147 
L 1259 4147 
z
M 628 4666 
L 2241 4666 
Q 2963 4666 3353 4366 
Q 3744 4066 3744 3513 
Q 3744 3084 3544 2831 
Q 3344 2578 2956 2516 
Q 3422 2416 3680 2098 
Q 3938 1781 3938 1306 
Q 3938 681 3513 340 
Q 3088 0 2303 0 
L 628 0 
L 628 4666 
z
" transform="scale(0.015625)"/>
      <path id="DejaVuSans-69" d="M 603 3500 
L 1178 3500 
L 1178 0 
L 603 0 
L 603 3500 
z
M 603 4863 
L 1178 4863 
L 1178 4134 
L 603 4134 
L 603 4863 
z
" transform="scale(0.015625)"/>
      <path id="DejaVuSans-67" d="M 2906 1791 
Q 2906 2416 2648 2759 
Q 2391 3103 1925 3103 
Q 1463 3103 1205 2759 
Q 947 2416 947 1791 
Q 947 1169 1205 825 
Q 1463 481 1925 481 
Q 2391 481 2648 825 
Q 2906 1169 2906 1791 
z
M 3481 434 
Q 3481 -459 3084 -895 
Q 2688 -1331 1869 -1331 
Q 1566 -1331 1297 -1286 
Q 1028 -1241 775 -1147 
L 775 -588 
Q 1028 -725 1275 -790 
Q 1522 -856 1778 -856 
Q 2344 -856 2625 -561 
Q 2906 -266 2906 331 
L 2906 616 
Q 2728 306 2450 153 
Q 2172 0 1784 0 
Q 1141 0 747 490 
Q 353 981 353 1791 
Q 353 2603 747 3093 
Q 1141 3584 1784 3584 
Q 2172 3584 2450 3431 
Q 2728 3278 2906 2969 
L 2906 3500 
L 3481 3500 
L 3481 434 
z
" transform="scale(0.015625)"/>
      <path id="DejaVuSans-46" d="M 628 4666 
L 3309 4666 
L 3309 4134 
L 1259 4134 
L 1259 2759 
L 3109 2759 
L 3109 2228 
L 1259 2228 
L 1259 0 
L 628 0 
L 628 4666 
z
" transform="scale(0.015625)"/>
      <path id="DejaVuSans-31" d="M 794 531 
L 1825 531 
L 1825 4091 
L 703 3866 
L 703 4441 
L 1819 4666 
L 2450 4666 
L 2450 531 
L 3481 531 
L 3481 0 
L 794 0 
L 794 531 
z
" transform="scale(0.015625)"/>
      <path id="DejaVuSans-30" d="M 2034 4250 
Q 1547 4250 1301 3770 
Q 1056 3291 1056 2328 
Q 1056 1369 1301 889 
Q 1547 409 2034 409 
Q 2525 409 2770 889 
Q 3016 1369 3016 2328 
Q 3016 3291 2770 3770 
Q 2525 4250 2034 4250 
z
M 2034 4750 
Q 2819 4750 3233 4129 
Q 3647 3509 3647 2328 
Q 3647 1150 3233 529 
Q 2819 -91 2034 -91 
Q 1250 -91 836 529 
Q 422 1150 422 2328 
Q 422 3509 836 4129 
Q 1250 4750 2034 4750 
z
" transform="scale(0.015625)"/>
      <path id="DejaVuSans-2e" d="M 684 794 
L 1344 794 
L 1344 0 
L 684 0 
L 684 794 
z
" transform="scale(0.015625)"/>
      <path id="DejaVuSans-37" d="M 525 4666 
L 3525 4666 
L 3525 4397 
L 1831 0 
L 1172 0 
L 2766 4134 
L 525 4134 
L 525 4666 
z
" transform="scale(0.015625)"/>
      <path id="DejaVuSans-b0" d="M 1600 4347 
Q 1350 4347 1178 4173 
Q 1006 4000 1006 3750 
Q 1006 3503 1178 3333 
Q 1350 3163 1600 3163 
Q 1850 3163 2022 3333 
Q 2194 3503 2194 3750 
Q 2194 3997 2020 4172 
Q 1847 4347 1600 4347 
z
M 1600 4750 
Q 1800 4750 1984 4673 
Q 2169 4597 2303 4453 
Q 2447 4313 2519 4134 
Q 2591 3956 2591 3750 
Q 2591 3338 2302 3052 
Q 2013 2766 1594 2766 
Q 1172 2766 890 3047 
Q 609 3328 609 3750 
Q 609 4169 896 4459 
Q 1184 4750 1600 4750 
z
" transform="scale(0.015625)"/>
     </defs>
     <use xlink:href="#DejaVuSans-42"/>
     <use xlink:href="#DejaVuSans-69" x="68.603516"/>
     <use xlink:href="#DejaVuSans-67" x="96.386719"/>
     <use xlink:href="#DejaVuSans-20" x="159.863281"/>
     <use xlink:href="#DejaVuSans-46" x="191.650391"/>
     <use xlink:href="#DejaVuSans-6f" x="245.544922"/>
     <use xlink:href="#DejaVuSans-6f" x="306.726562"/>
     <use xlink:href="#DejaVuSans-74" x="367.908203"/>
     <use xlink:href="#DejaVuSans-20" x="407.117188"/>
     <use xlink:href="#DejaVuSans-31" x="438.904297"/>
     <use xlink:href="#DejaVuSans-30" x="502.527344"/>
     <use xlink:href="#DejaVuSans-2e" x="566.150391"/>
     <use xlink:href="#DejaVuSans-37" x="597.9375"/>
     <use xlink:href="#DejaVuSans-b0" x="661.560547"/>
    </g>
   </g>
   <g id="text_3">
    <g id="patch_4">
     <path d="M 16.168169 22.555233 
L 24.382255 31.989088 
L 25.872233 30.691759 
L 17.658146 21.257905 
z
" style="fill: #ffffff"/>
    </g>
    <!-- Gilboa 17.1째 -->
    <g style="fill: #4169e1" transform="translate(16.510077 22.284051)rotate(-311.046192)scale(0.02 -0.02)">
     <defs>
      <path id="DejaVuSans-47" d="M 3809 666 
L 3809 1919 
L 2778 1919 
L 2778 2438 
L 4434 2438 
L 4434 434 
Q 4069 175 3628 42 
Q 3188 -91 2688 -91 
Q 1594 -91 976 548 
Q 359 1188 359 2328 
Q 359 3472 976 4111 
Q 1594 4750 2688 4750 
Q 3144 4750 3555 4637 
Q 3966 4525 4313 4306 
L 4313 3634 
Q 3963 3931 3569 4081 
Q 3175 4231 2741 4231 
Q 1884 4231 1454 3753 
Q 1025 3275 1025 2328 
Q 1025 1384 1454 906 
Q 1884 428 2741 428 
Q 3075 428 3337 486 
Q 3600 544 3809 666 
z
" transform="scale(0.015625)"/>
      <path id="DejaVuSans-6c" d="M 603 4863 
L 1178 4863 
L 1178 0 
L 603 0 
L 603 4863 
z
" transform="scale(0.015625)"/>
      <path id="DejaVuSans-62" d="M 3116 1747 
Q 3116 2381 2855 2742 
Q 2594 3103 2138 3103 
Q 1681 3103 1420 2742 
Q 1159 2381 1159 1747 
Q 1159 1113 1420 752 
Q 1681 391 2138 391 
Q 2594 391 2855 752 
Q 3116 1113 3116 1747 
z
M 1159 2969 
Q 1341 3281 1617 3432 
Q 1894 3584 2278 3584 
Q 2916 3584 3314 3078 
Q 3713 2572 3713 1747 
Q 3713 922 3314 415 
Q 2916 -91 2278 -91 
Q 1894 -91 1617 61 
Q 1341 213 1159 525 
L 1159 0 
L 581 0 
L 581 4863 
L 1159 4863 
L 1159 2969 
z
" transform="scale(0.015625)"/>
     </defs>
     <use xlink:href="#DejaVuSans-47"/>
     <use xlink:href="#DejaVuSans-69" x="77.490234"/>
     <use xlink:href="#DejaVuSans-6c" x="105.273438"/>
     <use xlink:href="#DejaVuSans-62" x="133.056641"/>
     <use xlink:href="#DejaVuSans-6f" x="196.533203"/>
     <use xlink:href="#DejaVuSans-61" x="257.714844"/>
     <use xlink:href="#DejaVuSans-20" x="318.994141"/>
     <use xlink:href="#DejaVuSans-31" x="350.78125"/>
     <use xlink:href="#DejaVuSans-37" x="414.404297"/>
     <use xlink:href="#DejaVuSans-2e" x="478.027344"/>
     <use xlink:href="#DejaVuSans-31" x="509.814453"/>
     <use xlink:href="#DejaVuSans-b0" x="573.4375"/>
    </g>
   </g>
   <g id="text_4">
    <g id="patch_5">
     <path d="M 17.264309 17.490231 
L 23.630223 24.925042 
L 25.130906 23.640111 
L 18.764991 16.205301 
z
" style="fill: #ffffff"/>
    </g>
    <!-- Sitz 15.0째 -->
    <g style="fill: #008000" transform="translate(17.608454 17.221893)rotate(-310.571159)scale(0.02 -0.02)">
     <defs>
      <path id="DejaVuSans-7a" d="M 353 3500 
L 3084 3500 
L 3084 2975 
L 922 459 
L 3084 459 
L 3084 0 
L 275 0 
L 275 525 
L 2438 3041 
L 353 3041 
L 353 3500 
z
" transform="scale(0.015625)"/>
      <path id="DejaVuSans-35" d="M 691 4666 
L 3169 4666 
L 3169 4134 
L 1269 4134 
L 1269 2991 
Q 1406 3038 1543 3061 
Q 1681 3084 1819 3084 
Q 2600 3084 3056 2656 
Q 3513 2228 3513 1497 
Q 3513 744 3044 326 
Q 2575 -91 1722 -91 
Q 1428 -91 1123 -41 
Q 819 9 494 109 
L 494 744 
Q 775 591 1075 516 
Q 1375 441 1709 441 
Q 2250 441 2565 725 
Q 2881 1009 2881 1497 
Q 2881 1984 2565 2268 
Q 2250 2553 1709 2553 
Q 1456 2553 1204 2497 
Q 953 2441 691 2322 
L 691 4666 
z
" transform="scale(0.015625)"/>
     </defs>
     <use xlink:href="#DejaVuSans-53"/>
     <use xlink:href="#DejaVuSans-69" x="63.476562"/>
     <use xlink:href="#DejaVuSans-74" x="91.259766"/>
     <use xlink:href="#DejaVuSans-7a" x="130.46875"/>
     <use xlink:href="#DejaVuSans-20" x="182.958984"/>
     <use xlink:href="#DejaVuSans-31" x="214.746094"/>
     <use xlink:href="#DejaVuSans-35" x="278.369141"/>
     <use xlink:href="#DejaVuSans-2e" x="341.992188"/>
     <use xlink:href="#DejaVuSans-30" x="373.779297"/>
     <use xlink:href="#DejaVuSans-b0" x="437.402344"/>
    </g>
   </g>
   <g id="text_5">
    <g id="patch_6">
     <path d="M 16.405808 17.345777 
L 39.039981 21.464921 
L 39.393711 19.521221 
L 16.759537 15.402078 
z
" style="fill: #ffffff"/>
    </g>
    <!-- Upper Ridge Run 10.4째 -->
    <g style="fill: #008000" transform="translate(16.503538 16.920465)rotate(-349.685747)scale(0.02 -0.02)">
     <defs>
      <path id="DejaVuSans-55" d="M 556 4666 
L 1191 4666 
L 1191 1831 
Q 1191 1081 1462 751 
Q 1734 422 2344 422 
Q 2950 422 3222 751 
Q 3494 1081 3494 1831 
L 3494 4666 
L 4128 4666 
L 4128 1753 
Q 4128 841 3676 375 
Q 3225 -91 2344 -91 
Q 1459 -91 1007 375 
Q 556 841 556 1753 
L 556 4666 
z
" transform="scale(0.015625)"/>
      <path id="DejaVuSans-70" d="M 1159 525 
L 1159 -1331 
L 581 -1331 
L 581 3500 
L 1159 3500 
L 1159 2969 
Q 1341 3281 1617 3432 
Q 1894 3584 2278 3584 
Q 2916 3584 3314 3078 
Q 3713 2572 3713 1747 
Q 3713 922 3314 415 
Q 2916 -91 2278 -91 
Q 1894 -91 1617 61 
Q 1341 213 1159 525 
z
M 3116 1747 
Q 3116 2381 2855 2742 
Q 2594 3103 2138 3103 
Q 1681 3103 1420 2742 
Q 1159 2381 1159 1747 
Q 1159 1113 1420 752 
Q 1681 391 2138 391 
Q 2594 391 2855 752 
Q 3116 1113 3116 1747 
z
" transform="scale(0.015625)"/>
      <path id="DejaVuSans-65" d="M 3597 1894 
L 3597 1613 
L 953 1613 
Q 991 1019 1311 708 
Q 1631 397 2203 397 
Q 2534 397 2845 478 
Q 3156 559 3463 722 
L 3463 178 
Q 3153 47 2828 -22 
Q 2503 -91 2169 -91 
Q 1331 -91 842 396 
Q 353 884 353 1716 
Q 353 2575 817 3079 
Q 1281 3584 2069 3584 
Q 2775 3584 3186 3129 
Q 3597 2675 3597 1894 
z
M 3022 2063 
Q 3016 2534 2758 2815 
Q 2500 3097 2075 3097 
Q 1594 3097 1305 2825 
Q 1016 2553 972 2059 
L 3022 2063 
z
" transform="scale(0.015625)"/>
      <path id="DejaVuSans-52" d="M 2841 2188 
Q 3044 2119 3236 1894 
Q 3428 1669 3622 1275 
L 4263 0 
L 3584 0 
L 2988 1197 
Q 2756 1666 2539 1819 
Q 2322 1972 1947 1972 
L 1259 1972 
L 1259 0 
L 628 0 
L 628 4666 
L 2053 4666 
Q 2853 4666 3247 4331 
Q 3641 3997 3641 3322 
Q 3641 2881 3436 2590 
Q 3231 2300 2841 2188 
z
M 1259 4147 
L 1259 2491 
L 2053 2491 
Q 2509 2491 2742 2702 
Q 2975 2913 2975 3322 
Q 2975 3731 2742 3939 
Q 2509 4147 2053 4147 
L 1259 4147 
z
" transform="scale(0.015625)"/>
      <path id="DejaVuSans-6e" d="M 3513 2113 
L 3513 0 
L 2938 0 
L 2938 2094 
Q 2938 2591 2744 2837 
Q 2550 3084 2163 3084 
Q 1697 3084 1428 2787 
Q 1159 2491 1159 1978 
L 1159 0 
L 581 0 
L 581 3500 
L 1159 3500 
L 1159 2956 
Q 1366 3272 1645 3428 
Q 1925 3584 2291 3584 
Q 2894 3584 3203 3211 
Q 3513 2838 3513 2113 
z
" transform="scale(0.015625)"/>
      <path id="DejaVuSans-34" d="M 2419 4116 
L 825 1625 
L 2419 1625 
L 2419 4116 
z
M 2253 4666 
L 3047 4666 
L 3047 1625 
L 3713 1625 
L 3713 1100 
L 3047 1100 
L 3047 0 
L 2419 0 
L 2419 1100 
L 313 1100 
L 313 1709 
L 2253 4666 
z
" transform="scale(0.015625)"/>
     </defs>
     <use xlink:href="#DejaVuSans-55"/>
     <use xlink:href="#DejaVuSans-70" x="73.193359"/>
     <use xlink:href="#DejaVuSans-70" x="136.669922"/>
     <use xlink:href="#DejaVuSans-65" x="200.146484"/>
     <use xlink:href="#DejaVuSans-72" x="261.669922"/>
     <use xlink:href="#DejaVuSans-20" x="302.783203"/>
     <use xlink:href="#DejaVuSans-52" x="334.570312"/>
     <use xlink:href="#DejaVuSans-69" x="404.052734"/>
     <use xlink:href="#DejaVuSans-64" x="431.835938"/>
     <use xlink:href="#DejaVuSans-67" x="495.3125"/>
     <use xlink:href="#DejaVuSans-65" x="558.789062"/>
     <use xlink:href="#DejaVuSans-20" x="620.3125"/>
     <use xlink:href="#DejaVuSans-52" x="652.099609"/>
     <use xlink:href="#DejaVuSans-75" x="717.082031"/>
     <use xlink:href="#DejaVuSans-6e" x="780.460938"/>
     <use xlink:href="#DejaVuSans-20" x="843.839844"/>
     <use xlink:href="#DejaVuSans-31" x="875.626953"/>
     <use xlink:href="#DejaVuSans-30" x="939.25"/>
     <use xlink:href="#DejaVuSans-2e" x="1002.873047"/>
     <use xlink:href="#DejaVuSans-34" x="1034.660156"/>
     <use xlink:href="#DejaVuSans-b0" x="1098.283203"/>
    </g>
   </g>
   <g id="text_6">
    <!-- Hyland Hills -->
    <g transform="translate(30.118307 8.540237)scale(0.07 -0.07)">
     <defs>
      <path id="DejaVuSans-48" d="M 628 4666 
L 1259 4666 
L 1259 2753 
L 3553 2753 
L 3553 4666 
L 4184 4666 
L 4184 0 
L 3553 0 
L 3553 2222 
L 1259 2222 
L 1259 0 
L 628 0 
L 628 4666 
z
" transform="scale(0.015625)"/>
      <path id="DejaVuSans-79" d="M 2059 -325 
Q 1816 -950 1584 -1140 
Q 1353 -1331 966 -1331 
L 506 -1331 
L 506 -850 
L 844 -850 
Q 1081 -850 1212 -737 
Q 1344 -625 1503 -206 
L 1606 56 
L 191 3500 
L 800 3500 
L 1894 763 
L 2988 3500 
L 3597 3500 
L 2059 -325 
z
" transform="scale(0.015625)"/>
      <path id="DejaVuSans-73" d="M 2834 3397 
L 2834 2853 
Q 2591 2978 2328 3040 
Q 2066 3103 1784 3103 
Q 1356 3103 1142 2972 
Q 928 2841 928 2578 
Q 928 2378 1081 2264 
Q 1234 2150 1697 2047 
L 1894 2003 
Q 2506 1872 2764 1633 
Q 3022 1394 3022 966 
Q 3022 478 2636 193 
Q 2250 -91 1575 -91 
Q 1294 -91 989 -36 
Q 684 19 347 128 
L 347 722 
Q 666 556 975 473 
Q 1284 391 1588 391 
Q 1994 391 2212 530 
Q 2431 669 2431 922 
Q 2431 1156 2273 1281 
Q 2116 1406 1581 1522 
L 1381 1569 
Q 847 1681 609 1914 
Q 372 2147 372 2553 
Q 372 3047 722 3315 
Q 1072 3584 1716 3584 
Q 2034 3584 2315 3537 
Q 2597 3491 2834 3397 
z
" transform="scale(0.015625)"/>
     </defs>
     <use xlink:href="#DejaVuSans-48"/>
     <use xlink:href="#DejaVuSans-79" x="75.195312"/>
     <use xlink:href="#DejaVuSans-6c" x="134.375"/>
     <use xlink:href="#DejaVuSans-61" x="162.158203"/>
     <use xlink:href="#DejaVuSans-6e" x="223.4375"/>
     <use xlink:href="#DejaVuSans-64" x="286.816406"/>
     <use xlink:href="#DejaVuSans-20" x="350.292969"/>
     <use xlink:href="#DejaVuSans-48" x="382.080078"/>
     <use xlink:href="#DejaVuSans-69" x="457.275391"/>
     <use xlink:href="#DejaVuSans-6c" x="485.058594"/>
     <use xlink:href="#DejaVuSans-6c" x="512.841797"/>
     <use xlink:href="#DejaVuSans-73" x="540.625"/>
    </g>
   </g>
   <g id="legend_1">
    <g id="line2d_27">
     <path d="M 1.862643 46.99062 
L 5.362643 46.99062 
L 8.862643 46.99062 
" style="fill: none; stroke: #008000; stroke-width: 0.470963; stroke-linecap: square"/>
    </g>
    <g id="text_7">
     <!-- Easy -->
     <g transform="translate(11.662643 48.21562)scale(0.035 -0.035)">
      <defs>
       <path id="DejaVuSans-45" d="M 628 4666 
L 3578 4666 
L 3578 4134 
L 1259 4134 
L 1259 2753 
L 3481 2753 
L 3481 2222 
L 1259 2222 
L 1259 531 
L 3634 531 
L 3634 0 
L 628 0 
L 628 4666 
z
" transform="scale(0.015625)"/>
      </defs>
      <use xlink:href="#DejaVuSans-45"/>
      <use xlink:href="#DejaVuSans-61" x="63.183594"/>
      <use xlink:href="#DejaVuSans-73" x="124.462891"/>
      <use xlink:href="#DejaVuSans-79" x="176.5625"/>
     </g>
    </g>
    <g id="line2d_28">
     <path d="M 1.862643 52.127963 
L 5.362643 52.127963 
L 8.862643 52.127963 
" style="fill: none; stroke: #4169e1; stroke-width: 0.470963; stroke-linecap: square"/>
    </g>
    <g id="text_8">
     <!-- Intermediate -->
     <g transform="translate(11.662643 53.352963)scale(0.035 -0.035)">
      <defs>
       <path id="DejaVuSans-49" d="M 628 4666 
L 1259 4666 
L 1259 0 
L 628 0 
L 628 4666 
z
" transform="scale(0.015625)"/>
       <path id="DejaVuSans-6d" d="M 3328 2828 
Q 3544 3216 3844 3400 
Q 4144 3584 4550 3584 
Q 5097 3584 5394 3201 
Q 5691 2819 5691 2113 
L 5691 0 
L 5113 0 
L 5113 2094 
Q 5113 2597 4934 2840 
Q 4756 3084 4391 3084 
Q 3944 3084 3684 2787 
Q 3425 2491 3425 1978 
L 3425 0 
L 2847 0 
L 2847 2094 
Q 2847 2600 2669 2842 
Q 2491 3084 2119 3084 
Q 1678 3084 1418 2786 
Q 1159 2488 1159 1978 
L 1159 0 
L 581 0 
L 581 3500 
L 1159 3500 
L 1159 2956 
Q 1356 3278 1631 3431 
Q 1906 3584 2284 3584 
Q 2666 3584 2933 3390 
Q 3200 3197 3328 2828 
z
" transform="scale(0.015625)"/>
      </defs>
      <use xlink:href="#DejaVuSans-49"/>
      <use xlink:href="#DejaVuSans-6e" x="29.492188"/>
      <use xlink:href="#DejaVuSans-74" x="92.871094"/>
      <use xlink:href="#DejaVuSans-65" x="132.080078"/>
      <use xlink:href="#DejaVuSans-72" x="193.603516"/>
      <use xlink:href="#DejaVuSans-6d" x="232.966797"/>
      <use xlink:href="#DejaVuSans-65" x="330.378906"/>
      <use xlink:href="#DejaVuSans-64" x="391.902344"/>
      <use xlink:href="#DejaVuSans-69" x="455.378906"/>
      <use xlink:href="#DejaVuSans-61" x="483.162109"/>
      <use xlink:href="#DejaVuSans-74" x="544.441406"/>
      <use xlink:href="#DejaVuSans-65" x="583.650391"/>
     </g>
    </g>
    <g id="line2d_29">
     <path d="M 41.244205 46.99062 
L 44.744205 46.99062 
L 48.244205 46.99062 
" style="fill: none; stroke: #000000; stroke-width: 0.470963; stroke-linecap: square"/>
    </g>
    <g id="text_9">
     <!-- Advanced -->
     <g transform="translate(51.044205 48.21562)scale(0.035 -0.035)">
      <defs>
       <path id="DejaVuSans-41" d="M 2188 4044 
L 1331 1722 
L 3047 1722 
L 2188 4044 
z
M 1831 4666 
L 2547 4666 
L 4325 0 
L 3669 0 
L 3244 1197 
L 1141 1197 
L 716 0 
L 50 0 
L 1831 4666 
z
" transform="scale(0.015625)"/>
       <path id="DejaVuSans-76" d="M 191 3500 
L 800 3500 
L 1894 563 
L 2988 3500 
L 3597 3500 
L 2284 0 
L 1503 0 
L 191 3500 
z
" transform="scale(0.015625)"/>
       <path id="DejaVuSans-63" d="M 3122 3366 
L 3122 2828 
Q 2878 2963 2633 3030 
Q 2388 3097 2138 3097 
Q 1578 3097 1268 2742 
Q 959 2388 959 1747 
Q 959 1106 1268 751 
Q 1578 397 2138 397 
Q 2388 397 2633 464 
Q 2878 531 3122 666 
L 3122 134 
Q 2881 22 2623 -34 
Q 2366 -91 2075 -91 
Q 1284 -91 818 406 
Q 353 903 353 1747 
Q 353 2603 823 3093 
Q 1294 3584 2113 3584 
Q 2378 3584 2631 3529 
Q 2884 3475 3122 3366 
z
" transform="scale(0.015625)"/>
      </defs>
      <use xlink:href="#DejaVuSans-41"/>
      <use xlink:href="#DejaVuSans-64" x="66.658203"/>
      <use xlink:href="#DejaVuSans-76" x="130.134766"/>
      <use xlink:href="#DejaVuSans-61" x="189.314453"/>
      <use xlink:href="#DejaVuSans-6e" x="250.59375"/>
      <use xlink:href="#DejaVuSans-63" x="313.972656"/>
      <use xlink:href="#DejaVuSans-65" x="368.953125"/>
      <use xlink:href="#DejaVuSans-64" x="430.476562"/>
     </g>
    </g>
    <g id="line2d_30">
     <path d="M 41.244205 52.127963 
L 44.744205 52.127963 
L 48.244205 52.127963 
" style="fill: none; stroke: #ff0000; stroke-width: 0.470963; stroke-linecap: square"/>
    </g>
    <g id="text_10">
     <!-- Expert -->
     <g transform="translate(51.044205 53.352963)scale(0.035 -0.035)">
      <defs>
       <path id="DejaVuSans-78" d="M 3513 3500 
L 2247 1797 
L 3578 0 
L 2900 0 
L 1881 1375 
L 863 0 
L 184 0 
L 1544 1831 
L 300 3500 
L 978 3500 
L 1906 2253 
L 2834 3500 
L 3513 3500 
z
" transform="scale(0.015625)"/>
      </defs>
      <use xlink:href="#DejaVuSans-45"/>
      <use xlink:href="#DejaVuSans-78" x="63.183594"/>
      <use xlink:href="#DejaVuSans-70" x="122.363281"/>
      <use xlink:href="#DejaVuSans-65" x="185.839844"/>
      <use xlink:href="#DejaVuSans-72" x="247.363281"/>
      <use xlink:href="#DejaVuSans-74" x="288.476562"/>
     </g>
    </g>
    <g id="line2d_31">
     <path d="M 75.333658 46.99062 
L 78.833658 46.99062 
L 82.333658 46.99062 
" style="fill: none; stroke: #ffd700; stroke-width: 0.470963; stroke-linecap: square"/>
    </g>
    <g id="text_11">
     <!-- Extreme -->
     <g transform="translate(85.133658 48.21562)scale(0.035 -0.035)">
      <use xlink:href="#DejaVuSans-45"/>
      <use xlink:href="#DejaVuSans-78" x="63.183594"/>
      <use xlink:href="#DejaVuSans-74" x="122.363281"/>
      <use xlink:href="#DejaVuSans-72" x="161.572266"/>
      <use xlink:href="#DejaVuSans-65" x="200.435547"/>
      <use xlink:href="#DejaVuSans-6d" x="261.958984"/>
      <use xlink:href="#DejaVuSans-65" x="359.371094"/>
     </g>
    </g>
    <g id="line2d_32">
     <path d="M 75.333658 52.127963 
L 78.833658 52.127963 
L 82.333658 52.127963 
" style="fill: none; stroke-dasharray: 0.470963,0.777089; stroke-dashoffset: 0; stroke: #000000; stroke-width: 0.470963"/>
    </g>
    <g id="text_12">
     <!-- Gladed -->
     <g transform="translate(85.133658 53.352963)scale(0.035 -0.035)">
      <use xlink:href="#DejaVuSans-47"/>
      <use xlink:href="#DejaVuSans-6c" x="77.490234"/>
      <use xlink:href="#DejaVuSans-61" x="105.273438"/>
      <use xlink:href="#DejaVuSans-64" x="166.552734"/>
      <use xlink:href="#DejaVuSans-65" x="230.029297"/>
      <use xlink:href="#DejaVuSans-64" x="291.552734"/>
     </g>
    </g>
   </g>
  </g>
  <g id="text_13">
   <!-- Sources: USGS and OpenStreetMaps -->
   <g transform="translate(23.101544 61.280786)scale(0.030435 -0.030435)">
    <defs>
     <path id="DejaVuSans-3a" d="M 750 794 
L 1409 794 
L 1409 0 
L 750 0 
L 750 794 
z
M 750 3309 
L 1409 3309 
L 1409 2516 
L 750 2516 
L 750 3309 
z
" transform="scale(0.015625)"/>
     <path id="DejaVuSans-4f" d="M 2522 4238 
Q 1834 4238 1429 3725 
Q 1025 3213 1025 2328 
Q 1025 1447 1429 934 
Q 1834 422 2522 422 
Q 3209 422 3611 934 
Q 4013 1447 4013 2328 
Q 4013 3213 3611 3725 
Q 3209 4238 2522 4238 
z
M 2522 4750 
Q 3503 4750 4090 4092 
Q 4678 3434 4678 2328 
Q 4678 1225 4090 567 
Q 3503 -91 2522 -91 
Q 1538 -91 948 565 
Q 359 1222 359 2328 
Q 359 3434 948 4092 
Q 1538 4750 2522 4750 
z
" transform="scale(0.015625)"/>
     <path id="DejaVuSans-4d" d="M 628 4666 
L 1569 4666 
L 2759 1491 
L 3956 4666 
L 4897 4666 
L 4897 0 
L 4281 0 
L 4281 4097 
L 3078 897 
L 2444 897 
L 1241 4097 
L 1241 0 
L 628 0 
L 628 4666 
z
" transform="scale(0.015625)"/>
    </defs>
    <use xlink:href="#DejaVuSans-53"/>
    <use xlink:href="#DejaVuSans-6f" x="63.476562"/>
    <use xlink:href="#DejaVuSans-75" x="124.658203"/>
    <use xlink:href="#DejaVuSans-72" x="188.037109"/>
    <use xlink:href="#DejaVuSans-63" x="226.900391"/>
    <use xlink:href="#DejaVuSans-65" x="281.880859"/>
    <use xlink:href="#DejaVuSans-73" x="343.404297"/>
    <use xlink:href="#DejaVuSans-3a" x="395.503906"/>
    <use xlink:href="#DejaVuSans-20" x="429.195312"/>
    <use xlink:href="#DejaVuSans-55" x="460.982422"/>
    <use xlink:href="#DejaVuSans-53" x="534.175781"/>
    <use xlink:href="#DejaVuSans-47" x="597.652344"/>
    <use xlink:href="#DejaVuSans-53" x="675.142578"/>
    <use xlink:href="#DejaVuSans-20" x="738.619141"/>
    <use xlink:href="#DejaVuSans-61" x="770.40625"/>
    <use xlink:href="#DejaVuSans-6e" x="831.685547"/>
    <use xlink:href="#DejaVuSans-64" x="895.064453"/>
    <use xlink:href="#DejaVuSans-20" x="958.541016"/>
    <use xlink:href="#DejaVuSans-4f" x="990.328125"/>
    <use xlink:href="#DejaVuSans-70" x="1069.039062"/>
    <use xlink:href="#DejaVuSans-65" x="1132.515625"/>
    <use xlink:href="#DejaVuSans-6e" x="1194.039062"/>
    <use xlink:href="#DejaVuSans-53" x="1257.417969"/>
    <use xlink:href="#DejaVuSans-74" x="1320.894531"/>
    <use xlink:href="#DejaVuSans-72" x="1360.103516"/>
    <use xlink:href="#DejaVuSans-65" x="1398.966797"/>
    <use xlink:href="#DejaVuSans-65" x="1460.490234"/>
    <use xlink:href="#DejaVuSans-74" x="1522.013672"/>
    <use xlink:href="#DejaVuSans-4d" x="1561.222656"/>
    <use xlink:href="#DejaVuSans-61" x="1647.501953"/>
    <use xlink:href="#DejaVuSans-70" x="1708.78125"/>
    <use xlink:href="#DejaVuSans-73" x="1772.257812"/>
   </g>
  </g>
 </g>
 <defs>
  <clipPath id="pdf3b65074b">
   <rect x="0" y="12.040237" width="101.72802" height="37.83326"/>
  </clipPath>
 </defs>
</svg>
