<?xml version="1.0" encoding="utf-8" standalone="no"?>
<!DOCTYPE svg PUBLIC "-//W3C//DTD SVG 1.1//EN"
  "http://www.w3.org/Graphics/SVG/1.1/DTD/svg11.dtd">
<svg xmlns:xlink="http://www.w3.org/1999/xlink" width="91.309774pt" height="129.48313pt" viewBox="0 0 91.309774 129.48313" xmlns="http://www.w3.org/2000/svg" version="1.1">
 <metadata>
  <rdf:RDF xmlns:dc="http://purl.org/dc/elements/1.1/" xmlns:cc="http://creativecommons.org/ns#" xmlns:rdf="http://www.w3.org/1999/02/22-rdf-syntax-ns#">
   <cc:Work>
    <dc:type rdf:resource="http://purl.org/dc/dcmitype/StillImage"/>
    <dc:date>2022-05-17T14:54:05.754938</dc:date>
    <dc:format>image/svg+xml</dc:format>
    <dc:creator>
     <cc:Agent>
      <dc:title>Matplotlib v3.5.2, https://matplotlib.org/</dc:title>
     </cc:Agent>
    </dc:creator>
   </cc:Work>
  </rdf:RDF>
 </metadata>
 <defs>
  <style type="text/css">*{stroke-linejoin: round; stroke-linecap: butt}</style>
 </defs>
 <g id="figure_1">
  <g id="patch_1">
   <path d="M 0 129.48313 
L 91.309774 129.48313 
L 91.309774 0 
L 0 0 
L 0 129.48313 
z
" style="fill: none"/>
  </g>
  <g id="axes_1">
   <g id="line2d_1">
    <path d="M 47.318151 28.232892 
" clip-path="url(#pec51047684)" style="fill: none; stroke: #008000; stroke-width: 1.5; stroke-linecap: square"/>
   </g>
   <g id="line2d_2">
    <path d="M 47.318151 28.232892 
" clip-path="url(#pec51047684)" style="fill: none; stroke: #4169e1; stroke-width: 1.5; stroke-linecap: square"/>
   </g>
   <g id="line2d_3">
    <path d="M 47.318151 28.232892 
" clip-path="url(#pec51047684)" style="fill: none; stroke: #000000; stroke-width: 1.5; stroke-linecap: square"/>
   </g>
   <g id="line2d_4">
    <path d="M 47.318151 28.232892 
" clip-path="url(#pec51047684)" style="fill: none; stroke: #ff0000; stroke-width: 1.5; stroke-linecap: square"/>
   </g>
   <g id="line2d_5">
    <path d="M 47.318151 28.232892 
" clip-path="url(#pec51047684)" style="fill: none; stroke: #ffd700; stroke-width: 1.5; stroke-linecap: square"/>
   </g>
   <g id="line2d_6">
    <path d="M 47.318151 28.232892 
" clip-path="url(#pec51047684)" style="fill: none; stroke-dasharray: 1.5,2.475; stroke-dashoffset: 0; stroke: #000000; stroke-width: 1.5"/>
   </g>
   <g id="line2d_7">
    <path d="M 46.474495 101.598625 
L 46.466479 98.965567 
L 46.45646 95.972604 
L 46.444937 92.211606 
L 46.433414 88.450608 
L 46.415379 82.912404 
L 46.399348 77.734104 
L 46.386322 73.700298 
L 46.374298 69.667933 
L 46.365281 66.889473 
L 46.352255 62.702348 
L 46.33923 58.515224 
L 46.327206 54.801733 
L 46.315182 51.088243 
L 46.303159 47.209916 
L 46.299151 45.754464 
L 46.293139 43.836895 
L 46.277108 38.782401 
L 46.261076 33.727908 
L 46.251057 30.619776 
" clip-path="url(#pec51047684)" style="fill: none; stroke: #808080; stroke-width: 0.42273; stroke-linecap: square"/>
   </g>
   <g id="line2d_8">
    <path d="M 38.344542 101.650452 
L 37.901172 96.846451 
L 37.457802 92.042451 
" clip-path="url(#pec51047684)" style="fill: none; stroke: #808080; stroke-width: 0.42273; stroke-linecap: square"/>
   </g>
   <g id="line2d_9">
    <path d="M 23.344107 112.801721 
L 23.036504 108.880205 
L 22.686316 104.423873 
L 22.336129 99.96754 
L 22.019508 95.930136 
L 21.702887 91.892731 
L 21.243986 86.052927 
L 20.785086 80.213123 
L 20.521068 76.84802 
L 20.25705 73.482916 
L 19.976499 69.910508 
L 19.695949 66.3381 
L 19.264101 60.833007 
L 19.138855 59.233593 
L 18.849287 55.548175 
L 18.403412 49.873207 
L 18.284178 48.352972 
L 17.842311 42.726231 
L 17.400444 37.09949 
L 17.045748 32.574775 
L 16.784486 29.244223 
L 16.523223 25.91367 
L 16.26196 22.583117 
L 16.000698 19.252565 
L 15.690088 15.300818 
" clip-path="url(#pec51047684)" style="fill: none; stroke: #808080; stroke-width: 0.42273; stroke-linecap: square"/>
   </g>
   <g id="line2d_10">
    <path d="M 6.787619 115.181407 
L 6.727501 110.708518 
L 6.67089 106.489002 
L 6.614279 102.269487 
L 6.558169 98.064367 
L 6.51308 94.717259 
L 6.428915 88.411739 
L 6.34475 82.106219 
L 6.294652 78.381211 
L 6.244553 74.656204 
L 6.16139 68.444259 
L 6.109288 64.525623 
L 6.061194 60.929461 
L 5.976027 54.556279 
L 5.943964 52.172274 
L 5.882844 47.618047 
L 5.821724 43.063821 
L 5.794671 41.046918 
" clip-path="url(#pec51047684)" style="fill: none; stroke: #808080; stroke-width: 0.42273; stroke-linecap: square"/>
   </g>
   <g id="line2d_11">
    <path d="M 47.318151 28.232892 
L 48.472416 27.56635 
L 49.626681 26.899807 
L 50.901682 27.375601 
L 52.176684 27.851394 
L 53.355497 28.993729 
L 54.534311 30.136065 
L 54.868967 31.124002 
L 55.203624 32.111939 
L 55.538281 33.099875 
L 55.872937 34.087812 
L 56.283743 35.300329 
L 56.69455 36.512846 
L 57.105356 37.725363 
L 57.516162 38.93788 
L 58.129615 40.293639 
L 58.743069 41.649398 
L 59.356523 43.005156 
L 59.969977 44.360915 
L 60.932365 45.597546 
L 61.894754 46.834176 
L 62.303556 48.404438 
L 62.712358 49.9747 
L 63.12116 51.544961 
L 63.529962 53.115223 
L 63.830552 54.792016 
L 64.131142 56.468809 
L 64.431732 58.145603 
L 64.732322 59.822396 
L 64.756369 61.392298 
L 64.780416 62.962199 
L 64.804463 64.532101 
L 64.82851 66.102003 
L 64.66018 67.267732 
L 64.49185 68.433462 
L 64.32352 69.599191 
L 64.155189 70.76492 
L 63.986859 71.93065 
L 63.818529 73.096379 
L 63.650198 74.262109 
L 63.481868 75.427838 
L 63.103 76.563515 
L 62.724131 77.699193 
L 62.345263 78.83487 
L 61.966394 79.970548 
L 61.587526 81.106225 
L 61.208657 82.241903 
L 60.829789 83.37758 
L 60.45092 84.513257 
L 60.198425 85.619603 
L 59.94593 86.725948 
L 59.693434 87.832293 
L 59.440939 88.938638 
L 59.007839 90.496663 
L 58.574739 92.054688 
L 58.141639 93.612713 
L 57.708539 95.170738 
L 56.96483 96.486187 
L 56.221121 97.801637 
L 55.477411 99.117087 
L 54.733702 100.432536 
" clip-path="url(#pec51047684)" style="fill: none; stroke: #4169e1; stroke-width: 0.42273; stroke-linecap: square"/>
   </g>
   <g id="line2d_12">
    <path d="M 55.872937 34.087812 
L 56.788985 34.574763 
L 57.705032 35.061713 
L 58.62108 35.548663 
L 59.537127 36.035613 
L 60.836176 37.105968 
L 62.135226 38.176323 
L 63.145458 38.67587 
L 64.15569 39.175417 
L 65.165923 39.674964 
L 66.176155 40.174511 
L 67.354718 40.436161 
L 68.53328 40.697811 
L 69.711843 40.959461 
L 70.890405 41.221112 
L 72.189455 41.79192 
L 73.488504 42.362728 
L 74.306358 43.052664 
L 75.124213 43.7426 
L 75.942068 44.432536 
L 76.759923 45.122472 
L 77.435248 46.442601 
L 78.035426 47.613729 
L 78.635604 48.784857 
L 78.767863 49.843694 
L 78.900123 50.902532 
L 79.032382 51.96137 
L 79.164642 53.020208 
L 78.876075 54.173701 
L 78.587509 55.327193 
L 78.298943 56.480686 
L 78.010377 57.634179 
L 77.745858 59.180327 
L 77.481339 60.726475 
L 77.325032 62.09447 
L 77.168725 63.462466 
L 77.012418 64.830461 
L 76.856112 66.198457 
L 77.240867 67.684861 
L 77.625622 69.171265 
L 78.010377 70.657669 
L 78.395132 72.144073 
L 78.900123 73.571453 
L 79.405114 74.998832 
L 79.645585 76.069187 
L 79.886057 77.139542 
" clip-path="url(#pec51047684)" style="fill: none; stroke: #008000; stroke-width: 0.42273; stroke-linecap: square"/>
   </g>
   <g id="line2d_13">
    <path d="M 79.886057 77.139542 
L 79.405114 78.162389 
L 78.92417 79.185237 
L 77.72131 80.255592 
L 76.518449 81.325947 
L 75.460122 82.28941 
L 74.401796 83.252873 
L 73.343469 84.216337 
L 72.285142 85.1798 
L 71.141899 86.474015 
L 70.429501 87.2802 
L 69.717103 88.086385 
L 69.004705 88.892571 
L 68.292307 89.698756 
L 67.558868 90.448076 
L 66.825429 91.197397 
L 66.09199 91.946717 
L 65.358551 92.696037 
L 64.299973 93.766392 
L 63.241396 94.836747 
L 62.182819 95.907102 
L 61.124242 96.977457 
L 59.957452 97.737214 
L 58.790663 98.496972 
L 57.623873 99.256729 
L 56.457084 100.016487 
" clip-path="url(#pec51047684)" style="fill: none; stroke: #008000; stroke-width: 0.42273; stroke-linecap: square"/>
   </g>
   <g id="line2d_14">
    <path d="M 64.82851 66.102003 
L 65.430191 67.529382 
L 66.031872 68.956762 
L 67.065901 70.574171 
L 68.09993 72.19158 
L 68.893988 73.310162 
L 69.688046 74.428744 
L 70.096848 75.951139 
L 70.50565 77.473533 
L 70.673981 78.638903 
L 70.842311 79.804272 
L 71.010641 80.969642 
L 71.178972 82.135011 
L 71.169704 83.219762 
L 71.160435 84.304513 
L 71.151167 85.389264 
L 71.141899 86.474015 
" clip-path="url(#pec51047684)" style="fill: none; stroke: #008000; stroke-width: 0.42273; stroke-linecap: square"/>
   </g>
   <g id="line2d_15">
    <path d="M 79.886057 77.139542 
L 80.464192 78.995208 
L 80.464192 80.160937 
L 80.464192 81.326666 
L 80.464192 82.492396 
L 80.464192 83.658125 
L 80.115257 84.69285 
L 79.766322 85.727574 
L 79.417388 86.762298 
L 79.068453 87.797023 
L 78.430952 88.807633 
L 77.793451 89.818244 
L 77.15595 90.828855 
L 76.518449 91.839465 
L 75.65275 92.410633 
L 74.787052 92.981801 
L 73.921353 93.552969 
L 73.055654 94.124137 
L 71.948983 94.647437 
L 70.842311 95.170738 
L 69.73564 95.694039 
L 68.628968 96.217339 
L 66.812904 96.871285 
L 64.996841 97.525231 
L 63.180777 98.179176 
L 61.364714 98.833122 
L 60.137806 99.128963 
L 58.910899 99.424805 
L 57.683991 99.720646 
L 56.457084 100.016487 
L 54.733702 100.432536 
L 53.480994 100.734496 
L 52.228286 101.036455 
L 50.975577 101.338415 
L 49.722869 101.640374 
" clip-path="url(#pec51047684)" style="fill: none; stroke: #008000; stroke-width: 0.42273; stroke-linecap: square"/>
   </g>
   <g id="line2d_16">
    <path d="M 34.040096 92.030934 
L 34.148308 93.119105 
L 34.25652 94.207275 
L 34.364733 95.295445 
L 34.472945 96.383615 
L 34.581157 97.471785 
L 34.68937 98.559955 
L 34.797582 99.648125 
L 34.905794 100.736295 
" clip-path="url(#pec51047684)" style="fill: none; stroke: #008000; stroke-width: 0.42273; stroke-linecap: square"/>
   </g>
   <g id="line2d_17">
    <path d="M 47.318151 28.232892 
L 47.558622 27.043049 
L 47.799094 25.853206 
L 47.580666 24.547474 
L 47.362237 23.241742 
L 46.515576 22.288716 
L 46.282118 21.134143 
L 47.216952 20.641795 
L 48.527524 20.616601 
L 49.838095 20.591408 
L 51.148667 20.566215 
L 52.459239 20.541022 
L 53.76981 20.515828 
L 55.080382 20.490635 
L 56.390954 20.465442 
L 57.701525 20.440248 
L 59.322206 20.859177 
L 60.942886 21.278105 
L 61.819105 22.216735 
L 62.695325 23.155365 
L 63.425758 24.296261 
L 64.156191 25.437157 
L 65.57247 26.722735 
L 66.988749 28.008312 
L 67.908554 28.859845 
L 68.828359 29.711378 
L 69.215369 30.780293 
L 69.602378 31.849209 
L 69.989387 32.918124 
L 70.376397 33.987039 
L 70.960543 35.387786 
L 71.544689 36.788533 
L 72.030643 38.182081 
L 72.516596 39.57563 
L 73.00255 40.969179 
L 73.488504 42.362728 
" clip-path="url(#pec51047684)" style="fill: none; stroke: #008000; stroke-width: 0.42273; stroke-linecap: square"/>
   </g>
   <g id="line2d_18">
    <path d="M 77.435248 46.442601 
L 78.68971 46.70677 
L 79.944171 46.97094 
L 81.250735 47.588535 
L 82.557299 48.206131 
L 83.438027 49.049026 
L 84.318755 49.891922 
L 85.199484 50.734817 
L 86.080212 51.577712 
L 86.349991 52.757478 
L 86.619771 53.937244 
L 86.88955 55.117009 
L 87.159329 56.296775 
L 87.159329 57.420756 
L 87.159329 58.544736 
L 87.159329 59.668717 
L 87.159329 60.792697 
L 86.633798 61.94439 
L 86.108267 63.096084 
L 85.582736 64.247777 
L 85.057204 65.39947 
L 84.602813 67.113333 
L 84.148421 68.827197 
L 83.687892 70.098198 
L 83.227364 71.369199 
L 82.766835 72.640201 
L 82.306306 73.911202 
L 81.845778 75.182203 
L 81.385249 76.453205 
L 80.92472 77.724206 
L 80.464192 78.995208 
" clip-path="url(#pec51047684)" style="fill: none; stroke: #008000; stroke-width: 0.42273; stroke-linecap: square"/>
   </g>
   <g id="line2d_19">
    <path d="M 47.318151 28.232892 
L 45.684946 28.821695 
L 44.775662 29.917243 
L 43.866377 31.012792 
L 43.38343 32.249422 
L 42.900482 33.486053 
L 43.042761 35.058834 
L 43.18504 36.631614 
L 43.65371 38.331442 
L 44.12238 40.031269 
L 44.591049 41.731096 
L 45.059719 43.430923 
L 45.073997 45.13039 
L 45.088275 46.829857 
L 45.102553 48.529325 
L 45.116831 50.228792 
L 44.79019 52.068982 
L 44.463549 53.909171 
L 44.136908 55.749361 
L 43.810267 57.589551 
L 43.830807 59.050941 
L 43.851348 60.512332 
L 43.871888 61.973723 
L 43.892428 63.435113 
L 43.912969 64.896504 
L 43.933509 66.357895 
L 43.954049 67.819285 
L 43.97459 69.280676 
L 43.99513 70.742066 
L 44.01567 72.203457 
L 44.036211 73.664848 
L 44.056751 75.126238 
L 44.077291 76.587629 
L 44.097831 78.04902 
L 44.118372 79.51041 
L 44.138912 80.971801 
L 44.157386 82.284461 
L 44.17586 83.597121 
L 44.194333 84.909782 
L 44.212807 86.222442 
L 44.231281 87.535102 
L 44.249755 88.847763 
L 44.268228 90.160423 
L 44.286702 91.473083 
L 44.305176 92.785743 
L 44.32365 94.098404 
L 44.342123 95.411064 
L 44.360597 96.723724 
L 44.379071 98.036384 
L 44.397545 99.349045 
L 44.416018 100.661705 
L 44.434492 101.974365 
" clip-path="url(#pec51047684)" style="fill: none; stroke: #4169e1; stroke-width: 0.42273; stroke-linecap: square"/>
   </g>
   <g id="line2d_20">
    <path d="M 45.059719 43.430923 
L 46.366283 44.498399 
L 47.672847 45.565874 
L 48.496713 46.18383 
L 49.32058 46.801785 
L 50.144446 47.41974 
L 50.968313 48.037696 
L 51.905652 49.245534 
L 52.842992 50.453372 
L 53.077452 51.478739 
L 53.311912 52.504106 
L 53.546372 53.529472 
L 53.780832 54.554839 
L 54.015292 55.580206 
L 54.249752 56.605573 
L 54.484212 57.63094 
L 54.718672 58.656306 
L 54.881993 59.625528 
L 55.045313 60.59475 
L 55.208634 61.563972 
L 55.371954 62.533194 
L 55.535275 63.502415 
L 55.698595 64.471637 
L 55.861916 65.440859 
L 56.025236 66.410081 
L 56.259571 67.835841 
L 56.493906 69.261601 
L 56.728241 70.687361 
L 56.962575 72.113121 
L 57.19691 73.538881 
L 57.431245 74.964641 
L 57.66558 76.390402 
L 57.899915 77.816162 
L 58.092543 79.206471 
L 58.285171 80.596781 
L 58.477799 81.98709 
L 58.670427 83.3774 
L 58.863055 84.76771 
L 59.055683 86.158019 
L 59.248311 87.548329 
L 59.440939 88.938638 
" clip-path="url(#pec51047684)" style="fill: none; stroke: #4169e1; stroke-width: 0.42273; stroke-linecap: square"/>
   </g>
   <g id="line2d_21">
    <path d="M 45.116831 50.228792 
L 46.040143 51.493135 
L 46.963455 52.757478 
L 47.886766 54.021821 
L 48.810078 55.286164 
L 49.122441 56.508039 
L 49.434804 57.729913 
L 49.747167 58.951788 
L 50.05953 60.173662 
L 50.00342 61.182833 
L 49.94731 62.192004 
L 49.8912 63.201176 
L 49.835089 64.210347 
L 49.776975 65.254069 
L 49.718861 66.297791 
L 49.903474 67.309121 
L 50.088086 68.320452 
L 50.272698 69.331782 
L 50.45731 70.343113 
L 50.620631 71.59324 
L 50.783951 72.843367 
L 50.947272 74.093494 
L 51.110592 75.34362 
L 51.273913 76.593747 
L 51.437233 77.843874 
L 51.600554 79.094001 
L 51.763874 80.344128 
L 51.742582 81.397568 
L 51.721291 82.451007 
L 51.699999 83.504446 
L 51.678707 84.557886 
L 51.657415 85.611325 
L 51.636124 86.664764 
L 51.614832 87.718204 
L 51.59354 88.771643 
L 51.359706 90.380234 
L 51.125872 91.988826 
L 50.892038 93.597417 
L 50.658205 95.206009 
L 50.424371 96.8146 
L 50.190537 98.423191 
L 49.956703 100.031783 
L 49.722869 101.640374 
" clip-path="url(#pec51047684)" style="fill: none; stroke: #4169e1; stroke-width: 0.42273; stroke-linecap: square"/>
   </g>
   <g id="line2d_22">
    <path d="M 54.718672 58.656306 
L 53.965695 59.316731 
L 53.212717 59.977155 
L 52.45974 60.637579 
L 51.706762 61.298003 
L 50.770926 62.754175 
L 49.835089 64.210347 
" clip-path="url(#pec51047684)" style="fill: none; stroke: #008000; stroke-width: 0.42273; stroke-linecap: square"/>
   </g>
   <g id="line2d_23">
    <path d="M 48.810078 55.286164 
L 49.534249 56.789124 
L 50.25842 58.292084 
L 50.982591 59.795043 
L 51.706762 61.298003 
L 52.786381 62.576022 
L 53.865999 63.854042 
L 54.945618 65.132061 
L 56.025236 66.410081 
" clip-path="url(#pec51047684)" style="fill: none; stroke: #008000; stroke-width: 0.42273; stroke-linecap: square"/>
   </g>
   <g id="line2d_24">
    <path d="M 18.186988 15.392953 
L 19.607275 15.772292 
L 21.027562 16.151631 
L 22.447849 16.53097 
L 23.868136 16.910309 
L 25.231561 17.275612 
L 26.594986 17.640914 
L 27.958412 18.006217 
L 29.321837 18.37152 
L 29.875924 19.410923 
L 30.430012 20.450326 
L 30.984099 21.489729 
L 31.538186 22.529132 
L 31.934464 24.181811 
L 32.330741 25.834491 
L 32.721258 27.089477 
L 33.111774 28.344462 
L 33.50229 29.599448 
L 33.892807 30.854434 
L 34.015798 32.138212 
L 34.138789 33.42199 
L 34.261781 34.705768 
L 34.384772 35.989546 
L 34.151314 37.347104 
L 33.917856 38.704662 
L 34.385273 40.076617 
L 34.85269 41.448571 
L 35.319857 42.415993 
L 35.787023 43.383416 
L 36.25419 44.350838 
L 36.721357 45.31826 
L 37.970057 46.090974 
L 39.218757 46.863688 
L 40.467458 47.636402 
L 41.716158 48.409117 
L 43.416495 49.318954 
L 45.116831 50.228792 
" clip-path="url(#pec51047684)" style="fill: none; stroke: #4169e1; stroke-width: 0.42273; stroke-linecap: square"/>
   </g>
   <g id="line2d_25">
    <path d="M 18.186988 15.392953 
L 18.605559 16.274718 
L 19.02413 17.156483 
L 19.442702 18.038248 
L 19.861273 18.920013 
L 20.324181 20.215668 
L 20.78709 21.511323 
L 21.095194 23.035877 
L 21.403299 24.560431 
L 21.191383 25.627546 
L 20.979467 26.694662 
L 20.767551 27.761778 
L 20.555636 28.828893 
L 20.613499 30.562911 
L 20.671363 32.296929 
L 20.729226 34.030947 
L 20.78709 35.764965 
L 21.249497 37.289519 
L 21.711904 38.814073 
L 22.174312 40.338627 
L 22.636719 41.863181 
L 23.252928 43.464034 
L 23.869137 45.064888 
L 24.02344 46.89392 
L 24.177743 48.722953 
L 24.245877 49.719887 
L 24.31401 50.716822 
L 24.382144 51.713756 
L 24.450278 52.710691 
L 24.574772 54.533965 
L 24.699266 56.357239 
L 24.823761 58.180513 
L 24.948255 60.003787 
" clip-path="url(#pec51047684)" style="fill: none; stroke: #000000; stroke-width: 0.42273; stroke-linecap: square"/>
   </g>
   <g id="line2d_26">
    <path d="M 24.948255 60.003787 
L 25.719017 61.013678 
L 26.48978 62.023569 
L 27.260542 63.03346 
L 28.031305 64.043351 
L 28.425077 64.958227 
L 28.81885 65.873104 
L 29.212623 66.78798 
L 29.606395 67.702856 
L 29.656995 68.863907 
L 29.707594 70.024958 
L 29.942305 71.260868 
L 30.177015 72.496779 
L 30.411726 73.73269 
L 30.646436 74.9686 
L 30.956795 76.146207 
L 31.267154 77.323813 
L 31.577513 78.501419 
L 31.887872 79.679025 
L 32.231797 80.840076 
L 32.575722 82.001127 
L 32.919647 83.162177 
L 33.263572 84.323228 
L 33.532099 85.551221 
L 33.800626 86.779214 
L 33.565665 88.238985 
L 33.330704 89.698756 
L 32.659887 90.527975 
L 31.989071 91.357194 
L 31.452017 91.655195 
L 30.327811 92.551356 
L 29.203605 93.447517 
L 28.19713 94.82451 
L 27.190655 96.201503 
L 26.922629 97.727497 
L 26.654603 99.25349 
L 26.654603 100.281736 
L 26.654603 101.309982 
L 26.654603 102.338228 
L 26.654603 103.366474 
" clip-path="url(#pec51047684)" style="fill: none; stroke: #4169e1; stroke-width: 0.42273; stroke-linecap: square"/>
   </g>
   <g id="line2d_27">
    <path d="M 43.810267 57.589551 
L 42.864411 58.8305 
L 41.918555 60.071449 
L 40.761284 61.033473 
L 39.604013 61.995497 
L 38.446743 62.95752 
L 37.289472 63.919544 
L 35.712377 64.550096 
L 34.135282 65.180648 
L 32.761587 65.809761 
L 31.63688 66.324423 
L 30.512173 66.839086 
L 29.606395 67.702856 
" clip-path="url(#pec51047684)" style="fill: none; stroke: #008000; stroke-width: 0.42273; stroke-linecap: square"/>
   </g>
   <g id="line2d_28">
    <path d="M 28.031305 64.043351 
L 29.875924 64.578889 
L 31.720544 65.114426 
L 32.761587 65.809761 
L 33.968455 66.639699 
L 35.175323 67.469638 
L 36.232147 68.647604 
L 37.288971 69.825571 
L 38.345794 71.003537 
L 39.402618 72.181503 
L 39.994655 73.28029 
L 40.586692 74.379077 
L 41.178728 75.477865 
L 41.770765 76.576652 
L 42.362802 77.675439 
L 42.954839 78.774226 
L 43.546875 79.873014 
L 44.138912 80.971801 
" clip-path="url(#pec51047684)" style="fill: none; stroke: #008000; stroke-width: 0.42273; stroke-linecap: square"/>
   </g>
   <g id="line2d_29">
    <path d="M 24.948255 60.003787 
L 24.586044 61.215945 
L 24.223833 62.428102 
L 23.545502 63.954815 
L 22.867171 65.481528 
L 22.492937 66.731115 
L 22.118703 67.980702 
L 22.10693 69.646698 
L 22.095156 71.312694 
L 22.083383 72.978691 
L 22.07161 74.644687 
L 22.229545 75.807177 
L 22.38748 76.969667 
L 22.545415 78.132158 
L 22.70335 79.294648 
L 22.861285 80.457138 
L 23.01922 81.619628 
L 23.177155 82.782119 
L 23.33509 83.944609 
L 23.721097 85.332759 
L 24.107104 86.720909 
L 24.493112 88.109059 
L 24.879119 89.49721 
L 25.457003 91.173283 
L 26.034887 92.849356 
L 26.612771 94.52543 
L 27.190655 96.201503 
" clip-path="url(#pec51047684)" style="fill: none; stroke: #4169e1; stroke-width: 0.42273; stroke-linecap: square"/>
   </g>
   <g id="line2d_30">
    <path d="M 18.186988 15.392953 
L 16.92451 14.347792 
L 15.544302 14.324758 
L 14.164094 14.301724 
L 12.853772 14.533142 
L 11.543451 14.764561 
L 10.23313 14.995979 
L 8.922809 15.227397 
L 7.566147 15.96808 
L 6.209485 16.708763 
L 5.460515 17.749605 
L 4.711545 18.790448 
L 4.687999 20.664829 
L 4.664453 22.539209 
L 4.781432 23.649873 
L 4.898412 24.760537 
L 5.015392 25.871201 
L 5.132371 26.981865 
L 5.249351 28.09253 
L 5.36633 29.203194 
L 5.48331 30.313858 
L 5.600289 31.424522 
L 5.787657 33.206047 
L 5.975025 34.987573 
L 6.162392 36.769098 
L 6.34976 38.550623 
L 7.098229 39.290586 
L 7.471962 40.216259 
L 7.471962 41.211034 
L 7.471962 42.205809 
" clip-path="url(#pec51047684)" style="fill: none; stroke: #000000; stroke-width: 0.42273; stroke-linecap: square"/>
   </g>
   <g id="line2d_31">
    <path d="M 20.555636 28.828893 
L 20.026597 30.427587 
L 19.497559 32.026281 
L 18.842774 32.951235 
L 18.18799 33.876189 
L 16.760689 34.616871 
L 15.333388 35.357554 
L 14.350459 36.931055 
L 13.625537 38.203676 
L 12.900614 39.476297 
L 12.315466 40.286081 
L 11.730318 41.095865 
L 10.665729 41.373351 
L 9.60114 41.650837 
L 8.536551 41.928323 
L 7.471962 42.205809 
" clip-path="url(#pec51047684)" style="fill: none; stroke: #008000; stroke-width: 0.42273; stroke-linecap: square"/>
   </g>
   <g id="line2d_32">
    <path d="M 33.917856 38.704662 
L 33.516067 40.016153 
L 33.114279 41.327643 
L 32.318718 42.183495 
L 31.523157 43.039347 
L 30.58732 44.057156 
L 29.651484 45.074965 
L 28.785785 46.301518 
L 27.920087 47.528071 
L 27.335439 48.892828 
L 26.750792 50.257584 
L 25.600535 51.484137 
L 24.450278 52.710691 
" clip-path="url(#pec51047684)" style="fill: none; stroke: #008000; stroke-width: 0.42273; stroke-linecap: square"/>
   </g>
   <g id="line2d_33">
    <path d="M 7.471962 42.205809 
L 6.957452 43.825378 
L 6.442943 45.444946 
L 5.647382 46.324552 
L 4.851821 47.204158 
L 4.676476 48.221966 
L 4.501132 49.239775 
L 4.325788 50.257584 
L 4.150444 51.275393 
L 4.618362 52.617835 
L 5.086281 53.960278 
L 5.624336 55.012997 
L 6.162392 56.065717 
L 6.700448 57.118436 
L 7.238504 58.171156 
L 7.542601 59.535912 
L 7.846697 60.900669 
L 7.764787 61.87241 
L 7.682876 62.844151 
L 7.600965 63.815892 
L 7.519054 64.787633 
L 7.799855 66.106502 
L 8.080656 67.42537 
L 8.361457 68.744239 
L 8.642258 70.063107 
L 8.923059 71.381976 
L 9.20386 72.700845 
L 9.484661 74.019713 
L 9.765462 75.338582 
L 10.315291 76.582051 
L 10.86512 77.825519 
L 11.414949 79.068988 
L 11.964778 80.312457 
L 12.514607 81.555925 
L 13.064436 82.799394 
L 13.614265 84.042863 
L 14.164094 85.286331 
L 14.98295 86.709392 
L 15.801807 88.132453 
L 16.620664 89.555514 
L 17.439521 90.978575 
L 17.989099 92.655728 
L 18.538678 94.332881 
L 19.088256 96.010034 
L 19.637835 97.687187 
L 19.871794 99.376577 
L 20.105753 101.065967 
L 20.41035 102.685536 
L 20.714948 104.305104 
" clip-path="url(#pec51047684)" style="fill: none; stroke: #4169e1; stroke-width: 0.42273; stroke-linecap: square"/>
   </g>
   <g id="line2d_34">
    <path d="M 9.765462 75.338582 
L 9.823827 76.576292 
L 9.882191 77.814002 
L 9.940556 79.051713 
L 9.99892 80.289423 
L 9.636459 82.047914 
L 9.273998 83.806406 
L 8.911537 85.564897 
L 8.549076 87.323389 
L 8.29157 88.341198 
L 8.034065 89.359006 
L 7.77656 90.376815 
L 7.519054 91.394624 
L 7.133047 92.829202 
L 6.747039 94.26378 
L 6.361032 95.698357 
L 5.975025 97.132935 
L 5.928183 98.220205 
L 5.881341 99.307476 
L 5.834499 100.394746 
L 5.787657 101.482016 
L 5.787657 103.078551 
L 5.787657 104.675086 
L 5.927932 106.524993 
" clip-path="url(#pec51047684)" style="fill: none; stroke: #4169e1; stroke-width: 0.42273; stroke-linecap: square"/>
   </g>
   <g id="text_1">
    <g id="patch_2">
     <path d="M 45.445973 89.680354 
L 45.468296 94.751555 
L 47.443902 94.742859 
L 47.421579 89.671658 
z
" style="fill: #ffffff"/>
    </g>
    <!-- Lift 2 -->
    <g style="fill: #808080" transform="translate(45.881994 89.698435)rotate(-270.252209)scale(0.02 -0.02)">
     <defs>
      <path id="DejaVuSans-4c" d="M 628 4666 
L 1259 4666 
L 1259 531 
L 3531 531 
L 3531 0 
L 628 0 
L 628 4666 
z
" transform="scale(0.015625)"/>
      <path id="DejaVuSans-69" d="M 603 3500 
L 1178 3500 
L 1178 0 
L 603 0 
L 603 3500 
z
M 603 4863 
L 1178 4863 
L 1178 4134 
L 603 4134 
L 603 4863 
z
" transform="scale(0.015625)"/>
      <path id="DejaVuSans-66" d="M 2375 4863 
L 2375 4384 
L 1825 4384 
Q 1516 4384 1395 4259 
Q 1275 4134 1275 3809 
L 1275 3500 
L 2222 3500 
L 2222 3053 
L 1275 3053 
L 1275 0 
L 697 0 
L 697 3053 
L 147 3053 
L 147 3500 
L 697 3500 
L 697 3744 
Q 697 4328 969 4595 
Q 1241 4863 1831 4863 
L 2375 4863 
z
" transform="scale(0.015625)"/>
      <path id="DejaVuSans-74" d="M 1172 4494 
L 1172 3500 
L 2356 3500 
L 2356 3053 
L 1172 3053 
L 1172 1153 
Q 1172 725 1289 603 
Q 1406 481 1766 481 
L 2356 481 
L 2356 0 
L 1766 0 
Q 1100 0 847 248 
Q 594 497 594 1153 
L 594 3053 
L 172 3053 
L 172 3500 
L 594 3500 
L 594 4494 
L 1172 4494 
z
" transform="scale(0.015625)"/>
      <path id="DejaVuSans-20" transform="scale(0.015625)"/>
      <path id="DejaVuSans-32" d="M 1228 531 
L 3431 531 
L 3431 0 
L 469 0 
L 469 531 
Q 828 903 1448 1529 
Q 2069 2156 2228 2338 
Q 2531 2678 2651 2914 
Q 2772 3150 2772 3378 
Q 2772 3750 2511 3984 
Q 2250 4219 1831 4219 
Q 1534 4219 1204 4116 
Q 875 4013 500 3803 
L 500 4441 
Q 881 4594 1212 4672 
Q 1544 4750 1819 4750 
Q 2544 4750 2975 4387 
Q 3406 4025 3406 3419 
Q 3406 3131 3298 2873 
Q 3191 2616 2906 2266 
Q 2828 2175 2409 1742 
Q 1991 1309 1228 531 
z
" transform="scale(0.015625)"/>
     </defs>
     <use xlink:href="#DejaVuSans-4c"/>
     <use xlink:href="#DejaVuSans-69" x="55.712891"/>
     <use xlink:href="#DejaVuSans-66" x="83.496094"/>
     <use xlink:href="#DejaVuSans-74" x="116.951172"/>
     <use xlink:href="#DejaVuSans-20" x="156.160156"/>
     <use xlink:href="#DejaVuSans-32" x="187.947266"/>
    </g>
   </g>
   <g id="text_2">
    <g id="patch_3">
     <path d="M 17.998514 58.42397 
L 18.566494 63.463313 
L 20.529689 63.242043 
L 19.961708 58.2027 
z
" style="fill: #ffffff"/>
    </g>
    <!-- Lift 1 -->
    <g style="fill: #808080" transform="translate(18.433948 58.395019)rotate(-276.430623)scale(0.02 -0.02)">
     <defs>
      <path id="DejaVuSans-31" d="M 794 531 
L 1825 531 
L 1825 4091 
L 703 3866 
L 703 4441 
L 1819 4666 
L 2450 4666 
L 2450 531 
L 3481 531 
L 3481 0 
L 794 0 
L 794 531 
z
" transform="scale(0.015625)"/>
     </defs>
     <use xlink:href="#DejaVuSans-4c"/>
     <use xlink:href="#DejaVuSans-69" x="55.712891"/>
     <use xlink:href="#DejaVuSans-66" x="83.496094"/>
     <use xlink:href="#DejaVuSans-74" x="116.951172"/>
     <use xlink:href="#DejaVuSans-20" x="156.160156"/>
     <use xlink:href="#DejaVuSans-31" x="187.947266"/>
    </g>
   </g>
   <g id="text_3">
    <g id="patch_4">
     <path d="M 5.207937 72.140136 
L 5.305914 77.21044 
L 7.28117 77.172271 
L 7.183193 72.101967 
z
" style="fill: #ffffff"/>
    </g>
    <!-- Lift 3 -->
    <g style="fill: #808080" transform="translate(5.644179 72.15171)rotate(-271.107027)scale(0.02 -0.02)">
     <defs>
      <path id="DejaVuSans-33" d="M 2597 2516 
Q 3050 2419 3304 2112 
Q 3559 1806 3559 1356 
Q 3559 666 3084 287 
Q 2609 -91 1734 -91 
Q 1441 -91 1130 -33 
Q 819 25 488 141 
L 488 750 
Q 750 597 1062 519 
Q 1375 441 1716 441 
Q 2309 441 2620 675 
Q 2931 909 2931 1356 
Q 2931 1769 2642 2001 
Q 2353 2234 1838 2234 
L 1294 2234 
L 1294 2753 
L 1863 2753 
Q 2328 2753 2575 2939 
Q 2822 3125 2822 3475 
Q 2822 3834 2567 4026 
Q 2313 4219 1838 4219 
Q 1578 4219 1281 4162 
Q 984 4106 628 3988 
L 628 4550 
Q 988 4650 1302 4700 
Q 1616 4750 1894 4750 
Q 2613 4750 3031 4423 
Q 3450 4097 3450 3541 
Q 3450 3153 3228 2886 
Q 3006 2619 2597 2516 
z
" transform="scale(0.015625)"/>
     </defs>
     <use xlink:href="#DejaVuSans-4c"/>
     <use xlink:href="#DejaVuSans-69" x="55.712891"/>
     <use xlink:href="#DejaVuSans-66" x="83.496094"/>
     <use xlink:href="#DejaVuSans-74" x="116.951172"/>
     <use xlink:href="#DejaVuSans-20" x="156.160156"/>
     <use xlink:href="#DejaVuSans-33" x="187.947266"/>
    </g>
   </g>
   <g id="text_4">
    <g id="patch_5">
     <path d="M 53.128413 31.812547 
L 59.30596 44.502885 
L 61.082298 43.638179 
L 54.904751 30.947841 
z
" style="fill: #ffffff"/>
    </g>
    <!-- Contour 22.4° -->
    <g style="fill: #4169e1" transform="translate(53.52913 31.639725)rotate(-295.956418)scale(0.02 -0.02)">
     <defs>
      <path id="DejaVuSans-43" d="M 4122 4306 
L 4122 3641 
Q 3803 3938 3442 4084 
Q 3081 4231 2675 4231 
Q 1875 4231 1450 3742 
Q 1025 3253 1025 2328 
Q 1025 1406 1450 917 
Q 1875 428 2675 428 
Q 3081 428 3442 575 
Q 3803 722 4122 1019 
L 4122 359 
Q 3791 134 3420 21 
Q 3050 -91 2638 -91 
Q 1578 -91 968 557 
Q 359 1206 359 2328 
Q 359 3453 968 4101 
Q 1578 4750 2638 4750 
Q 3056 4750 3426 4639 
Q 3797 4528 4122 4306 
z
" transform="scale(0.015625)"/>
      <path id="DejaVuSans-6f" d="M 1959 3097 
Q 1497 3097 1228 2736 
Q 959 2375 959 1747 
Q 959 1119 1226 758 
Q 1494 397 1959 397 
Q 2419 397 2687 759 
Q 2956 1122 2956 1747 
Q 2956 2369 2687 2733 
Q 2419 3097 1959 3097 
z
M 1959 3584 
Q 2709 3584 3137 3096 
Q 3566 2609 3566 1747 
Q 3566 888 3137 398 
Q 2709 -91 1959 -91 
Q 1206 -91 779 398 
Q 353 888 353 1747 
Q 353 2609 779 3096 
Q 1206 3584 1959 3584 
z
" transform="scale(0.015625)"/>
      <path id="DejaVuSans-6e" d="M 3513 2113 
L 3513 0 
L 2938 0 
L 2938 2094 
Q 2938 2591 2744 2837 
Q 2550 3084 2163 3084 
Q 1697 3084 1428 2787 
Q 1159 2491 1159 1978 
L 1159 0 
L 581 0 
L 581 3500 
L 1159 3500 
L 1159 2956 
Q 1366 3272 1645 3428 
Q 1925 3584 2291 3584 
Q 2894 3584 3203 3211 
Q 3513 2838 3513 2113 
z
" transform="scale(0.015625)"/>
      <path id="DejaVuSans-75" d="M 544 1381 
L 544 3500 
L 1119 3500 
L 1119 1403 
Q 1119 906 1312 657 
Q 1506 409 1894 409 
Q 2359 409 2629 706 
Q 2900 1003 2900 1516 
L 2900 3500 
L 3475 3500 
L 3475 0 
L 2900 0 
L 2900 538 
Q 2691 219 2414 64 
Q 2138 -91 1772 -91 
Q 1169 -91 856 284 
Q 544 659 544 1381 
z
M 1991 3584 
L 1991 3584 
z
" transform="scale(0.015625)"/>
      <path id="DejaVuSans-72" d="M 2631 2963 
Q 2534 3019 2420 3045 
Q 2306 3072 2169 3072 
Q 1681 3072 1420 2755 
Q 1159 2438 1159 1844 
L 1159 0 
L 581 0 
L 581 3500 
L 1159 3500 
L 1159 2956 
Q 1341 3275 1631 3429 
Q 1922 3584 2338 3584 
Q 2397 3584 2469 3576 
Q 2541 3569 2628 3553 
L 2631 2963 
z
" transform="scale(0.015625)"/>
      <path id="DejaVuSans-2e" d="M 684 794 
L 1344 794 
L 1344 0 
L 684 0 
L 684 794 
z
" transform="scale(0.015625)"/>
      <path id="DejaVuSans-34" d="M 2419 4116 
L 825 1625 
L 2419 1625 
L 2419 4116 
z
M 2253 4666 
L 3047 4666 
L 3047 1625 
L 3713 1625 
L 3713 1100 
L 3047 1100 
L 3047 0 
L 2419 0 
L 2419 1100 
L 313 1100 
L 313 1709 
L 2253 4666 
z
" transform="scale(0.015625)"/>
      <path id="DejaVuSans-b0" d="M 1600 4347 
Q 1350 4347 1178 4173 
Q 1006 4000 1006 3750 
Q 1006 3503 1178 3333 
Q 1350 3163 1600 3163 
Q 1850 3163 2022 3333 
Q 2194 3503 2194 3750 
Q 2194 3997 2020 4172 
Q 1847 4347 1600 4347 
z
M 1600 4750 
Q 1800 4750 1984 4673 
Q 2169 4597 2303 4453 
Q 2447 4313 2519 4134 
Q 2591 3956 2591 3750 
Q 2591 3338 2302 3052 
Q 2013 2766 1594 2766 
Q 1172 2766 890 3047 
Q 609 3328 609 3750 
Q 609 4169 896 4459 
Q 1184 4750 1600 4750 
z
" transform="scale(0.015625)"/>
     </defs>
     <use xlink:href="#DejaVuSans-43"/>
     <use xlink:href="#DejaVuSans-6f" x="69.824219"/>
     <use xlink:href="#DejaVuSans-6e" x="131.005859"/>
     <use xlink:href="#DejaVuSans-74" x="194.384766"/>
     <use xlink:href="#DejaVuSans-6f" x="233.59375"/>
     <use xlink:href="#DejaVuSans-75" x="294.775391"/>
     <use xlink:href="#DejaVuSans-72" x="358.154297"/>
     <use xlink:href="#DejaVuSans-20" x="399.267578"/>
     <use xlink:href="#DejaVuSans-32" x="431.054688"/>
     <use xlink:href="#DejaVuSans-32" x="494.677734"/>
     <use xlink:href="#DejaVuSans-2e" x="558.300781"/>
     <use xlink:href="#DejaVuSans-34" x="590.087891"/>
     <use xlink:href="#DejaVuSans-b0" x="653.710938"/>
    </g>
   </g>
   <g id="text_5">
    <g id="patch_6">
     <path d="M 57.224319 37.682724 
L 68.423675 41.537102 
L 69.066597 39.669016 
L 57.867241 35.814638 
z
" style="fill: #ffffff"/>
    </g>
    <!-- Ridge 15.7° -->
    <g style="fill: #008000" transform="translate(57.385096 37.277024)rotate(-341.008552)scale(0.02 -0.02)">
     <defs>
      <path id="DejaVuSans-52" d="M 2841 2188 
Q 3044 2119 3236 1894 
Q 3428 1669 3622 1275 
L 4263 0 
L 3584 0 
L 2988 1197 
Q 2756 1666 2539 1819 
Q 2322 1972 1947 1972 
L 1259 1972 
L 1259 0 
L 628 0 
L 628 4666 
L 2053 4666 
Q 2853 4666 3247 4331 
Q 3641 3997 3641 3322 
Q 3641 2881 3436 2590 
Q 3231 2300 2841 2188 
z
M 1259 4147 
L 1259 2491 
L 2053 2491 
Q 2509 2491 2742 2702 
Q 2975 2913 2975 3322 
Q 2975 3731 2742 3939 
Q 2509 4147 2053 4147 
L 1259 4147 
z
" transform="scale(0.015625)"/>
      <path id="DejaVuSans-64" d="M 2906 2969 
L 2906 4863 
L 3481 4863 
L 3481 0 
L 2906 0 
L 2906 525 
Q 2725 213 2448 61 
Q 2172 -91 1784 -91 
Q 1150 -91 751 415 
Q 353 922 353 1747 
Q 353 2572 751 3078 
Q 1150 3584 1784 3584 
Q 2172 3584 2448 3432 
Q 2725 3281 2906 2969 
z
M 947 1747 
Q 947 1113 1208 752 
Q 1469 391 1925 391 
Q 2381 391 2643 752 
Q 2906 1113 2906 1747 
Q 2906 2381 2643 2742 
Q 2381 3103 1925 3103 
Q 1469 3103 1208 2742 
Q 947 2381 947 1747 
z
" transform="scale(0.015625)"/>
      <path id="DejaVuSans-67" d="M 2906 1791 
Q 2906 2416 2648 2759 
Q 2391 3103 1925 3103 
Q 1463 3103 1205 2759 
Q 947 2416 947 1791 
Q 947 1169 1205 825 
Q 1463 481 1925 481 
Q 2391 481 2648 825 
Q 2906 1169 2906 1791 
z
M 3481 434 
Q 3481 -459 3084 -895 
Q 2688 -1331 1869 -1331 
Q 1566 -1331 1297 -1286 
Q 1028 -1241 775 -1147 
L 775 -588 
Q 1028 -725 1275 -790 
Q 1522 -856 1778 -856 
Q 2344 -856 2625 -561 
Q 2906 -266 2906 331 
L 2906 616 
Q 2728 306 2450 153 
Q 2172 0 1784 0 
Q 1141 0 747 490 
Q 353 981 353 1791 
Q 353 2603 747 3093 
Q 1141 3584 1784 3584 
Q 2172 3584 2450 3431 
Q 2728 3278 2906 2969 
L 2906 3500 
L 3481 3500 
L 3481 434 
z
" transform="scale(0.015625)"/>
      <path id="DejaVuSans-65" d="M 3597 1894 
L 3597 1613 
L 953 1613 
Q 991 1019 1311 708 
Q 1631 397 2203 397 
Q 2534 397 2845 478 
Q 3156 559 3463 722 
L 3463 178 
Q 3153 47 2828 -22 
Q 2503 -91 2169 -91 
Q 1331 -91 842 396 
Q 353 884 353 1716 
Q 353 2575 817 3079 
Q 1281 3584 2069 3584 
Q 2775 3584 3186 3129 
Q 3597 2675 3597 1894 
z
M 3022 2063 
Q 3016 2534 2758 2815 
Q 2500 3097 2075 3097 
Q 1594 3097 1305 2825 
Q 1016 2553 972 2059 
L 3022 2063 
z
" transform="scale(0.015625)"/>
      <path id="DejaVuSans-35" d="M 691 4666 
L 3169 4666 
L 3169 4134 
L 1269 4134 
L 1269 2991 
Q 1406 3038 1543 3061 
Q 1681 3084 1819 3084 
Q 2600 3084 3056 2656 
Q 3513 2228 3513 1497 
Q 3513 744 3044 326 
Q 2575 -91 1722 -91 
Q 1428 -91 1123 -41 
Q 819 9 494 109 
L 494 744 
Q 775 591 1075 516 
Q 1375 441 1709 441 
Q 2250 441 2565 725 
Q 2881 1009 2881 1497 
Q 2881 1984 2565 2268 
Q 2250 2553 1709 2553 
Q 1456 2553 1204 2497 
Q 953 2441 691 2322 
L 691 4666 
z
" transform="scale(0.015625)"/>
      <path id="DejaVuSans-37" d="M 525 4666 
L 3525 4666 
L 3525 4397 
L 1831 0 
L 1172 0 
L 2766 4134 
L 525 4134 
L 525 4666 
z
" transform="scale(0.015625)"/>
     </defs>
     <use xlink:href="#DejaVuSans-52"/>
     <use xlink:href="#DejaVuSans-69" x="69.482422"/>
     <use xlink:href="#DejaVuSans-64" x="97.265625"/>
     <use xlink:href="#DejaVuSans-67" x="160.742188"/>
     <use xlink:href="#DejaVuSans-65" x="224.21875"/>
     <use xlink:href="#DejaVuSans-20" x="285.742188"/>
     <use xlink:href="#DejaVuSans-31" x="317.529297"/>
     <use xlink:href="#DejaVuSans-35" x="381.152344"/>
     <use xlink:href="#DejaVuSans-2e" x="444.775391"/>
     <use xlink:href="#DejaVuSans-37" x="476.5625"/>
     <use xlink:href="#DejaVuSans-b0" x="540.185547"/>
    </g>
   </g>
   <g id="text_6">
    <g id="patch_7">
     <path d="M 64.425187 93.266752 
L 77.65623 82.845678 
L 76.433815 81.293648 
L 63.202772 91.714722 
z
" style="fill: #ffffff"/>
    </g>
    <!-- New Ridge 11.2° -->
    <g style="fill: #008000" transform="translate(64.171163 92.91191)rotate(-38.224784)scale(0.02 -0.02)">
     <defs>
      <path id="DejaVuSans-4e" d="M 628 4666 
L 1478 4666 
L 3547 763 
L 3547 4666 
L 4159 4666 
L 4159 0 
L 3309 0 
L 1241 3903 
L 1241 0 
L 628 0 
L 628 4666 
z
" transform="scale(0.015625)"/>
      <path id="DejaVuSans-77" d="M 269 3500 
L 844 3500 
L 1563 769 
L 2278 3500 
L 2956 3500 
L 3675 769 
L 4391 3500 
L 4966 3500 
L 4050 0 
L 3372 0 
L 2619 2869 
L 1863 0 
L 1184 0 
L 269 3500 
z
" transform="scale(0.015625)"/>
     </defs>
     <use xlink:href="#DejaVuSans-4e"/>
     <use xlink:href="#DejaVuSans-65" x="74.804688"/>
     <use xlink:href="#DejaVuSans-77" x="136.328125"/>
     <use xlink:href="#DejaVuSans-20" x="218.115234"/>
     <use xlink:href="#DejaVuSans-52" x="249.902344"/>
     <use xlink:href="#DejaVuSans-69" x="319.384766"/>
     <use xlink:href="#DejaVuSans-64" x="347.167969"/>
     <use xlink:href="#DejaVuSans-67" x="410.644531"/>
     <use xlink:href="#DejaVuSans-65" x="474.121094"/>
     <use xlink:href="#DejaVuSans-20" x="535.644531"/>
     <use xlink:href="#DejaVuSans-31" x="567.431641"/>
     <use xlink:href="#DejaVuSans-31" x="631.054688"/>
     <use xlink:href="#DejaVuSans-2e" x="694.677734"/>
     <use xlink:href="#DejaVuSans-32" x="726.464844"/>
     <use xlink:href="#DejaVuSans-b0" x="790.087891"/>
    </g>
   </g>
   <g id="text_7">
    <g id="patch_8">
     <path d="M 61.271704 99.519523 
L 78.817182 93.745162 
L 78.199576 91.868554 
L 60.654097 97.642915 
z
" style="fill: #ffffff"/>
    </g>
    <!-- Lower Ridge 11.5° -->
    <g style="fill: #008000" transform="translate(61.154421 99.099182)rotate(-18.216799)scale(0.02 -0.02)">
     <use xlink:href="#DejaVuSans-4c"/>
     <use xlink:href="#DejaVuSans-6f" x="53.962891"/>
     <use xlink:href="#DejaVuSans-77" x="115.144531"/>
     <use xlink:href="#DejaVuSans-65" x="196.931641"/>
     <use xlink:href="#DejaVuSans-72" x="258.455078"/>
     <use xlink:href="#DejaVuSans-20" x="299.568359"/>
     <use xlink:href="#DejaVuSans-52" x="331.355469"/>
     <use xlink:href="#DejaVuSans-69" x="400.837891"/>
     <use xlink:href="#DejaVuSans-64" x="428.621094"/>
     <use xlink:href="#DejaVuSans-67" x="492.097656"/>
     <use xlink:href="#DejaVuSans-65" x="555.574219"/>
     <use xlink:href="#DejaVuSans-20" x="617.097656"/>
     <use xlink:href="#DejaVuSans-31" x="648.884766"/>
     <use xlink:href="#DejaVuSans-31" x="712.507812"/>
     <use xlink:href="#DejaVuSans-2e" x="776.130859"/>
     <use xlink:href="#DejaVuSans-35" x="807.917969"/>
     <use xlink:href="#DejaVuSans-b0" x="871.541016"/>
    </g>
   </g>
   <g id="text_8">
    <g id="patch_9">
     <path d="M 58.598967 24.036457 
L 76.148071 35.343968 
L 77.218142 33.683233 
L 59.669038 22.375722 
z
" style="fill: #ffffff"/>
    </g>
    <!-- Twin Hemlocks 14.5° -->
    <g style="fill: #008000" transform="translate(58.851899 23.680836)rotate(-327.204879)scale(0.02 -0.02)">
     <defs>
      <path id="DejaVuSans-54" d="M -19 4666 
L 3928 4666 
L 3928 4134 
L 2272 4134 
L 2272 0 
L 1638 0 
L 1638 4134 
L -19 4134 
L -19 4666 
z
" transform="scale(0.015625)"/>
      <path id="DejaVuSans-48" d="M 628 4666 
L 1259 4666 
L 1259 2753 
L 3553 2753 
L 3553 4666 
L 4184 4666 
L 4184 0 
L 3553 0 
L 3553 2222 
L 1259 2222 
L 1259 0 
L 628 0 
L 628 4666 
z
" transform="scale(0.015625)"/>
      <path id="DejaVuSans-6d" d="M 3328 2828 
Q 3544 3216 3844 3400 
Q 4144 3584 4550 3584 
Q 5097 3584 5394 3201 
Q 5691 2819 5691 2113 
L 5691 0 
L 5113 0 
L 5113 2094 
Q 5113 2597 4934 2840 
Q 4756 3084 4391 3084 
Q 3944 3084 3684 2787 
Q 3425 2491 3425 1978 
L 3425 0 
L 2847 0 
L 2847 2094 
Q 2847 2600 2669 2842 
Q 2491 3084 2119 3084 
Q 1678 3084 1418 2786 
Q 1159 2488 1159 1978 
L 1159 0 
L 581 0 
L 581 3500 
L 1159 3500 
L 1159 2956 
Q 1356 3278 1631 3431 
Q 1906 3584 2284 3584 
Q 2666 3584 2933 3390 
Q 3200 3197 3328 2828 
z
" transform="scale(0.015625)"/>
      <path id="DejaVuSans-6c" d="M 603 4863 
L 1178 4863 
L 1178 0 
L 603 0 
L 603 4863 
z
" transform="scale(0.015625)"/>
      <path id="DejaVuSans-63" d="M 3122 3366 
L 3122 2828 
Q 2878 2963 2633 3030 
Q 2388 3097 2138 3097 
Q 1578 3097 1268 2742 
Q 959 2388 959 1747 
Q 959 1106 1268 751 
Q 1578 397 2138 397 
Q 2388 397 2633 464 
Q 2878 531 3122 666 
L 3122 134 
Q 2881 22 2623 -34 
Q 2366 -91 2075 -91 
Q 1284 -91 818 406 
Q 353 903 353 1747 
Q 353 2603 823 3093 
Q 1294 3584 2113 3584 
Q 2378 3584 2631 3529 
Q 2884 3475 3122 3366 
z
" transform="scale(0.015625)"/>
      <path id="DejaVuSans-6b" d="M 581 4863 
L 1159 4863 
L 1159 1991 
L 2875 3500 
L 3609 3500 
L 1753 1863 
L 3688 0 
L 2938 0 
L 1159 1709 
L 1159 0 
L 581 0 
L 581 4863 
z
" transform="scale(0.015625)"/>
      <path id="DejaVuSans-73" d="M 2834 3397 
L 2834 2853 
Q 2591 2978 2328 3040 
Q 2066 3103 1784 3103 
Q 1356 3103 1142 2972 
Q 928 2841 928 2578 
Q 928 2378 1081 2264 
Q 1234 2150 1697 2047 
L 1894 2003 
Q 2506 1872 2764 1633 
Q 3022 1394 3022 966 
Q 3022 478 2636 193 
Q 2250 -91 1575 -91 
Q 1294 -91 989 -36 
Q 684 19 347 128 
L 347 722 
Q 666 556 975 473 
Q 1284 391 1588 391 
Q 1994 391 2212 530 
Q 2431 669 2431 922 
Q 2431 1156 2273 1281 
Q 2116 1406 1581 1522 
L 1381 1569 
Q 847 1681 609 1914 
Q 372 2147 372 2553 
Q 372 3047 722 3315 
Q 1072 3584 1716 3584 
Q 2034 3584 2315 3537 
Q 2597 3491 2834 3397 
z
" transform="scale(0.015625)"/>
     </defs>
     <use xlink:href="#DejaVuSans-54"/>
     <use xlink:href="#DejaVuSans-77" x="44.583984"/>
     <use xlink:href="#DejaVuSans-69" x="126.371094"/>
     <use xlink:href="#DejaVuSans-6e" x="154.154297"/>
     <use xlink:href="#DejaVuSans-20" x="217.533203"/>
     <use xlink:href="#DejaVuSans-48" x="249.320312"/>
     <use xlink:href="#DejaVuSans-65" x="324.515625"/>
     <use xlink:href="#DejaVuSans-6d" x="386.039062"/>
     <use xlink:href="#DejaVuSans-6c" x="483.451172"/>
     <use xlink:href="#DejaVuSans-6f" x="511.234375"/>
     <use xlink:href="#DejaVuSans-63" x="572.416016"/>
     <use xlink:href="#DejaVuSans-6b" x="627.396484"/>
     <use xlink:href="#DejaVuSans-73" x="685.306641"/>
     <use xlink:href="#DejaVuSans-20" x="737.40625"/>
     <use xlink:href="#DejaVuSans-31" x="769.193359"/>
     <use xlink:href="#DejaVuSans-34" x="832.816406"/>
     <use xlink:href="#DejaVuSans-2e" x="896.439453"/>
     <use xlink:href="#DejaVuSans-35" x="928.226562"/>
     <use xlink:href="#DejaVuSans-b0" x="991.849609"/>
    </g>
   </g>
   <g id="text_9">
    <g id="patch_10">
     <path d="M 82.877934 74.416295 
L 88.173901 60.513653 
L 86.327691 59.810372 
L 81.031725 73.713014 
z
" style="fill: #ffffff"/>
    </g>
    <!-- Whoopie 14.9° -->
    <g style="fill: #008000" transform="translate(82.477673 74.24242)rotate(-69.146543)scale(0.02 -0.02)">
     <defs>
      <path id="DejaVuSans-57" d="M 213 4666 
L 850 4666 
L 1831 722 
L 2809 4666 
L 3519 4666 
L 4500 722 
L 5478 4666 
L 6119 4666 
L 4947 0 
L 4153 0 
L 3169 4050 
L 2175 0 
L 1381 0 
L 213 4666 
z
" transform="scale(0.015625)"/>
      <path id="DejaVuSans-68" d="M 3513 2113 
L 3513 0 
L 2938 0 
L 2938 2094 
Q 2938 2591 2744 2837 
Q 2550 3084 2163 3084 
Q 1697 3084 1428 2787 
Q 1159 2491 1159 1978 
L 1159 0 
L 581 0 
L 581 4863 
L 1159 4863 
L 1159 2956 
Q 1366 3272 1645 3428 
Q 1925 3584 2291 3584 
Q 2894 3584 3203 3211 
Q 3513 2838 3513 2113 
z
" transform="scale(0.015625)"/>
      <path id="DejaVuSans-70" d="M 1159 525 
L 1159 -1331 
L 581 -1331 
L 581 3500 
L 1159 3500 
L 1159 2969 
Q 1341 3281 1617 3432 
Q 1894 3584 2278 3584 
Q 2916 3584 3314 3078 
Q 3713 2572 3713 1747 
Q 3713 922 3314 415 
Q 2916 -91 2278 -91 
Q 1894 -91 1617 61 
Q 1341 213 1159 525 
z
M 3116 1747 
Q 3116 2381 2855 2742 
Q 2594 3103 2138 3103 
Q 1681 3103 1420 2742 
Q 1159 2381 1159 1747 
Q 1159 1113 1420 752 
Q 1681 391 2138 391 
Q 2594 391 2855 752 
Q 3116 1113 3116 1747 
z
" transform="scale(0.015625)"/>
      <path id="DejaVuSans-39" d="M 703 97 
L 703 672 
Q 941 559 1184 500 
Q 1428 441 1663 441 
Q 2288 441 2617 861 
Q 2947 1281 2994 2138 
Q 2813 1869 2534 1725 
Q 2256 1581 1919 1581 
Q 1219 1581 811 2004 
Q 403 2428 403 3163 
Q 403 3881 828 4315 
Q 1253 4750 1959 4750 
Q 2769 4750 3195 4129 
Q 3622 3509 3622 2328 
Q 3622 1225 3098 567 
Q 2575 -91 1691 -91 
Q 1453 -91 1209 -44 
Q 966 3 703 97 
z
M 1959 2075 
Q 2384 2075 2632 2365 
Q 2881 2656 2881 3163 
Q 2881 3666 2632 3958 
Q 2384 4250 1959 4250 
Q 1534 4250 1286 3958 
Q 1038 3666 1038 3163 
Q 1038 2656 1286 2365 
Q 1534 2075 1959 2075 
z
" transform="scale(0.015625)"/>
     </defs>
     <use xlink:href="#DejaVuSans-57"/>
     <use xlink:href="#DejaVuSans-68" x="98.876953"/>
     <use xlink:href="#DejaVuSans-6f" x="162.255859"/>
     <use xlink:href="#DejaVuSans-6f" x="223.4375"/>
     <use xlink:href="#DejaVuSans-70" x="284.619141"/>
     <use xlink:href="#DejaVuSans-69" x="348.095703"/>
     <use xlink:href="#DejaVuSans-65" x="375.878906"/>
     <use xlink:href="#DejaVuSans-20" x="437.402344"/>
     <use xlink:href="#DejaVuSans-31" x="469.189453"/>
     <use xlink:href="#DejaVuSans-34" x="532.8125"/>
     <use xlink:href="#DejaVuSans-2e" x="596.435547"/>
     <use xlink:href="#DejaVuSans-39" x="628.222656"/>
     <use xlink:href="#DejaVuSans-b0" x="691.845703"/>
    </g>
   </g>
   <g id="text_10">
    <g id="patch_11">
     <path d="M 42.80652 59.920375 
L 43.126356 75.758084 
L 45.101578 75.718195 
L 44.781743 59.880487 
z
" style="fill: #ffffff"/>
    </g>
    <!-- Snowfield 19.2° -->
    <g style="fill: #4169e1" transform="translate(43.242773 59.93157)rotate(-271.156906)scale(0.02 -0.02)">
     <defs>
      <path id="DejaVuSans-53" d="M 3425 4513 
L 3425 3897 
Q 3066 4069 2747 4153 
Q 2428 4238 2131 4238 
Q 1616 4238 1336 4038 
Q 1056 3838 1056 3469 
Q 1056 3159 1242 3001 
Q 1428 2844 1947 2747 
L 2328 2669 
Q 3034 2534 3370 2195 
Q 3706 1856 3706 1288 
Q 3706 609 3251 259 
Q 2797 -91 1919 -91 
Q 1588 -91 1214 -16 
Q 841 59 441 206 
L 441 856 
Q 825 641 1194 531 
Q 1563 422 1919 422 
Q 2459 422 2753 634 
Q 3047 847 3047 1241 
Q 3047 1584 2836 1778 
Q 2625 1972 2144 2069 
L 1759 2144 
Q 1053 2284 737 2584 
Q 422 2884 422 3419 
Q 422 4038 858 4394 
Q 1294 4750 2059 4750 
Q 2388 4750 2728 4690 
Q 3069 4631 3425 4513 
z
" transform="scale(0.015625)"/>
     </defs>
     <use xlink:href="#DejaVuSans-53"/>
     <use xlink:href="#DejaVuSans-6e" x="63.476562"/>
     <use xlink:href="#DejaVuSans-6f" x="126.855469"/>
     <use xlink:href="#DejaVuSans-77" x="188.037109"/>
     <use xlink:href="#DejaVuSans-66" x="269.824219"/>
     <use xlink:href="#DejaVuSans-69" x="305.029297"/>
     <use xlink:href="#DejaVuSans-65" x="332.8125"/>
     <use xlink:href="#DejaVuSans-6c" x="394.335938"/>
     <use xlink:href="#DejaVuSans-64" x="422.119141"/>
     <use xlink:href="#DejaVuSans-20" x="485.595703"/>
     <use xlink:href="#DejaVuSans-31" x="517.382812"/>
     <use xlink:href="#DejaVuSans-39" x="581.005859"/>
     <use xlink:href="#DejaVuSans-2e" x="644.628906"/>
     <use xlink:href="#DejaVuSans-32" x="676.416016"/>
     <use xlink:href="#DejaVuSans-b0" x="740.039062"/>
    </g>
   </g>
   <g id="text_11">
    <g id="patch_12">
     <path d="M 51.512267 51.749738 
L 55.579232 64.12878 
L 57.456158 63.512142 
L 53.389193 51.133099 
z
" style="fill: #ffffff"/>
    </g>
    <!-- Shaker 20.8° -->
    <g style="fill: #4169e1" transform="translate(51.932668 51.632672)rotate(-288.187231)scale(0.02 -0.02)">
     <defs>
      <path id="DejaVuSans-61" d="M 2194 1759 
Q 1497 1759 1228 1600 
Q 959 1441 959 1056 
Q 959 750 1161 570 
Q 1363 391 1709 391 
Q 2188 391 2477 730 
Q 2766 1069 2766 1631 
L 2766 1759 
L 2194 1759 
z
M 3341 1997 
L 3341 0 
L 2766 0 
L 2766 531 
Q 2569 213 2275 61 
Q 1981 -91 1556 -91 
Q 1019 -91 701 211 
Q 384 513 384 1019 
Q 384 1609 779 1909 
Q 1175 2209 1959 2209 
L 2766 2209 
L 2766 2266 
Q 2766 2663 2505 2880 
Q 2244 3097 1772 3097 
Q 1472 3097 1187 3025 
Q 903 2953 641 2809 
L 641 3341 
Q 956 3463 1253 3523 
Q 1550 3584 1831 3584 
Q 2591 3584 2966 3190 
Q 3341 2797 3341 1997 
z
" transform="scale(0.015625)"/>
      <path id="DejaVuSans-30" d="M 2034 4250 
Q 1547 4250 1301 3770 
Q 1056 3291 1056 2328 
Q 1056 1369 1301 889 
Q 1547 409 2034 409 
Q 2525 409 2770 889 
Q 3016 1369 3016 2328 
Q 3016 3291 2770 3770 
Q 2525 4250 2034 4250 
z
M 2034 4750 
Q 2819 4750 3233 4129 
Q 3647 3509 3647 2328 
Q 3647 1150 3233 529 
Q 2819 -91 2034 -91 
Q 1250 -91 836 529 
Q 422 1150 422 2328 
Q 422 3509 836 4129 
Q 1250 4750 2034 4750 
z
" transform="scale(0.015625)"/>
      <path id="DejaVuSans-38" d="M 2034 2216 
Q 1584 2216 1326 1975 
Q 1069 1734 1069 1313 
Q 1069 891 1326 650 
Q 1584 409 2034 409 
Q 2484 409 2743 651 
Q 3003 894 3003 1313 
Q 3003 1734 2745 1975 
Q 2488 2216 2034 2216 
z
M 1403 2484 
Q 997 2584 770 2862 
Q 544 3141 544 3541 
Q 544 4100 942 4425 
Q 1341 4750 2034 4750 
Q 2731 4750 3128 4425 
Q 3525 4100 3525 3541 
Q 3525 3141 3298 2862 
Q 3072 2584 2669 2484 
Q 3125 2378 3379 2068 
Q 3634 1759 3634 1313 
Q 3634 634 3220 271 
Q 2806 -91 2034 -91 
Q 1263 -91 848 271 
Q 434 634 434 1313 
Q 434 1759 690 2068 
Q 947 2378 1403 2484 
z
M 1172 3481 
Q 1172 3119 1398 2916 
Q 1625 2713 2034 2713 
Q 2441 2713 2670 2916 
Q 2900 3119 2900 3481 
Q 2900 3844 2670 4047 
Q 2441 4250 2034 4250 
Q 1625 4250 1398 4047 
Q 1172 3844 1172 3481 
z
" transform="scale(0.015625)"/>
     </defs>
     <use xlink:href="#DejaVuSans-53"/>
     <use xlink:href="#DejaVuSans-68" x="63.476562"/>
     <use xlink:href="#DejaVuSans-61" x="126.855469"/>
     <use xlink:href="#DejaVuSans-6b" x="188.134766"/>
     <use xlink:href="#DejaVuSans-65" x="242.419922"/>
     <use xlink:href="#DejaVuSans-72" x="303.943359"/>
     <use xlink:href="#DejaVuSans-20" x="345.056641"/>
     <use xlink:href="#DejaVuSans-32" x="376.84375"/>
     <use xlink:href="#DejaVuSans-30" x="440.466797"/>
     <use xlink:href="#DejaVuSans-2e" x="504.089844"/>
     <use xlink:href="#DejaVuSans-38" x="535.876953"/>
     <use xlink:href="#DejaVuSans-b0" x="599.5"/>
    </g>
   </g>
   <g id="text_12">
    <g id="patch_13">
     <path d="M 48.699266 67.091735 
L 50.926923 78.959472 
L 52.868637 78.594998 
L 50.64098 66.727262 
z
" style="fill: #ffffff"/>
    </g>
    <!-- Chute 18.5° -->
    <g style="fill: #4169e1" transform="translate(49.131411 67.030968)rotate(-280.631108)scale(0.02 -0.02)">
     <use xlink:href="#DejaVuSans-43"/>
     <use xlink:href="#DejaVuSans-68" x="69.824219"/>
     <use xlink:href="#DejaVuSans-75" x="133.203125"/>
     <use xlink:href="#DejaVuSans-74" x="196.582031"/>
     <use xlink:href="#DejaVuSans-65" x="235.791016"/>
     <use xlink:href="#DejaVuSans-20" x="297.314453"/>
     <use xlink:href="#DejaVuSans-31" x="329.101562"/>
     <use xlink:href="#DejaVuSans-38" x="392.724609"/>
     <use xlink:href="#DejaVuSans-2e" x="456.347656"/>
     <use xlink:href="#DejaVuSans-35" x="488.134766"/>
     <use xlink:href="#DejaVuSans-b0" x="551.757812"/>
    </g>
   </g>
   <g id="text_13">
    <g id="patch_14">
     <path d="M 28.392658 20.972504 
L 37.58938 41.542722 
L 39.392955 40.736363 
L 30.196233 20.166146 
z
" style="fill: #ffffff"/>
    </g>
    <!-- Upper Snowfield 17.4° -->
    <g style="fill: #4169e1" transform="translate(28.798795 20.812833)rotate(-294.088902)scale(0.02 -0.02)">
     <defs>
      <path id="DejaVuSans-55" d="M 556 4666 
L 1191 4666 
L 1191 1831 
Q 1191 1081 1462 751 
Q 1734 422 2344 422 
Q 2950 422 3222 751 
Q 3494 1081 3494 1831 
L 3494 4666 
L 4128 4666 
L 4128 1753 
Q 4128 841 3676 375 
Q 3225 -91 2344 -91 
Q 1459 -91 1007 375 
Q 556 841 556 1753 
L 556 4666 
z
" transform="scale(0.015625)"/>
     </defs>
     <use xlink:href="#DejaVuSans-55"/>
     <use xlink:href="#DejaVuSans-70" x="73.193359"/>
     <use xlink:href="#DejaVuSans-70" x="136.669922"/>
     <use xlink:href="#DejaVuSans-65" x="200.146484"/>
     <use xlink:href="#DejaVuSans-72" x="261.669922"/>
     <use xlink:href="#DejaVuSans-20" x="302.783203"/>
     <use xlink:href="#DejaVuSans-53" x="334.570312"/>
     <use xlink:href="#DejaVuSans-6e" x="398.046875"/>
     <use xlink:href="#DejaVuSans-6f" x="461.425781"/>
     <use xlink:href="#DejaVuSans-77" x="522.607422"/>
     <use xlink:href="#DejaVuSans-66" x="604.394531"/>
     <use xlink:href="#DejaVuSans-69" x="639.599609"/>
     <use xlink:href="#DejaVuSans-65" x="667.382812"/>
     <use xlink:href="#DejaVuSans-6c" x="728.90625"/>
     <use xlink:href="#DejaVuSans-64" x="756.689453"/>
     <use xlink:href="#DejaVuSans-20" x="820.166016"/>
     <use xlink:href="#DejaVuSans-31" x="851.953125"/>
     <use xlink:href="#DejaVuSans-37" x="915.576172"/>
     <use xlink:href="#DejaVuSans-2e" x="979.199219"/>
     <use xlink:href="#DejaVuSans-34" x="1010.986328"/>
     <use xlink:href="#DejaVuSans-b0" x="1074.609375"/>
    </g>
   </g>
   <g id="text_14">
    <g id="patch_15">
     <path d="M 16.440059 28.725956 
L 24.247816 46.642348 
L 26.058935 45.853083 
L 18.251178 27.936691 
z
" style="fill: #ffffff"/>
    </g>
    <!-- Upper Rocket 27.2° -->
    <g transform="translate(16.847687 28.570133)rotate(-293.547018)scale(0.02 -0.02)">
     <use xlink:href="#DejaVuSans-55"/>
     <use xlink:href="#DejaVuSans-70" x="73.193359"/>
     <use xlink:href="#DejaVuSans-70" x="136.669922"/>
     <use xlink:href="#DejaVuSans-65" x="200.146484"/>
     <use xlink:href="#DejaVuSans-72" x="261.669922"/>
     <use xlink:href="#DejaVuSans-20" x="302.783203"/>
     <use xlink:href="#DejaVuSans-52" x="334.570312"/>
     <use xlink:href="#DejaVuSans-6f" x="399.552734"/>
     <use xlink:href="#DejaVuSans-63" x="460.734375"/>
     <use xlink:href="#DejaVuSans-6b" x="515.714844"/>
     <use xlink:href="#DejaVuSans-65" x="570"/>
     <use xlink:href="#DejaVuSans-74" x="631.523438"/>
     <use xlink:href="#DejaVuSans-20" x="670.732422"/>
     <use xlink:href="#DejaVuSans-32" x="702.519531"/>
     <use xlink:href="#DejaVuSans-37" x="766.142578"/>
     <use xlink:href="#DejaVuSans-2e" x="829.765625"/>
     <use xlink:href="#DejaVuSans-32" x="861.552734"/>
     <use xlink:href="#DejaVuSans-b0" x="925.175781"/>
    </g>
   </g>
   <g id="text_15">
    <g id="patch_16">
     <path d="M 27.500477 70.166041 
L 33.186233 85.18121 
L 35.033831 84.481584 
L 29.348075 69.466416 
z
" style="fill: #ffffff"/>
    </g>
    <!-- Exhibition 21.1° -->
    <g style="fill: #4169e1" transform="translate(27.915247 70.030367)rotate(-290.740047)scale(0.02 -0.02)">
     <defs>
      <path id="DejaVuSans-45" d="M 628 4666 
L 3578 4666 
L 3578 4134 
L 1259 4134 
L 1259 2753 
L 3481 2753 
L 3481 2222 
L 1259 2222 
L 1259 531 
L 3634 531 
L 3634 0 
L 628 0 
L 628 4666 
z
" transform="scale(0.015625)"/>
      <path id="DejaVuSans-78" d="M 3513 3500 
L 2247 1797 
L 3578 0 
L 2900 0 
L 1881 1375 
L 863 0 
L 184 0 
L 1544 1831 
L 300 3500 
L 978 3500 
L 1906 2253 
L 2834 3500 
L 3513 3500 
z
" transform="scale(0.015625)"/>
      <path id="DejaVuSans-62" d="M 3116 1747 
Q 3116 2381 2855 2742 
Q 2594 3103 2138 3103 
Q 1681 3103 1420 2742 
Q 1159 2381 1159 1747 
Q 1159 1113 1420 752 
Q 1681 391 2138 391 
Q 2594 391 2855 752 
Q 3116 1113 3116 1747 
z
M 1159 2969 
Q 1341 3281 1617 3432 
Q 1894 3584 2278 3584 
Q 2916 3584 3314 3078 
Q 3713 2572 3713 1747 
Q 3713 922 3314 415 
Q 2916 -91 2278 -91 
Q 1894 -91 1617 61 
Q 1341 213 1159 525 
L 1159 0 
L 581 0 
L 581 4863 
L 1159 4863 
L 1159 2969 
z
" transform="scale(0.015625)"/>
     </defs>
     <use xlink:href="#DejaVuSans-45"/>
     <use xlink:href="#DejaVuSans-78" x="63.183594"/>
     <use xlink:href="#DejaVuSans-68" x="122.363281"/>
     <use xlink:href="#DejaVuSans-69" x="185.742188"/>
     <use xlink:href="#DejaVuSans-62" x="213.525391"/>
     <use xlink:href="#DejaVuSans-69" x="277.001953"/>
     <use xlink:href="#DejaVuSans-74" x="304.785156"/>
     <use xlink:href="#DejaVuSans-69" x="343.994141"/>
     <use xlink:href="#DejaVuSans-6f" x="371.777344"/>
     <use xlink:href="#DejaVuSans-6e" x="432.958984"/>
     <use xlink:href="#DejaVuSans-20" x="496.337891"/>
     <use xlink:href="#DejaVuSans-32" x="528.125"/>
     <use xlink:href="#DejaVuSans-31" x="591.748047"/>
     <use xlink:href="#DejaVuSans-2e" x="655.371094"/>
     <use xlink:href="#DejaVuSans-31" x="687.158203"/>
     <use xlink:href="#DejaVuSans-b0" x="750.78125"/>
    </g>
   </g>
   <g id="text_16">
    <g id="patch_17">
     <path d="M 20.50269 73.176842 
L 22.964981 85.790955 
L 24.904009 85.412454 
L 22.441719 72.798341 
z
" style="fill: #ffffff"/>
    </g>
    <!-- Rocket 21.3° -->
    <g style="fill: #4169e1" transform="translate(20.934384 73.112952)rotate(-281.045316)scale(0.02 -0.02)">
     <use xlink:href="#DejaVuSans-52"/>
     <use xlink:href="#DejaVuSans-6f" x="64.982422"/>
     <use xlink:href="#DejaVuSans-63" x="126.164062"/>
     <use xlink:href="#DejaVuSans-6b" x="181.144531"/>
     <use xlink:href="#DejaVuSans-65" x="235.429688"/>
     <use xlink:href="#DejaVuSans-74" x="296.953125"/>
     <use xlink:href="#DejaVuSans-20" x="336.162109"/>
     <use xlink:href="#DejaVuSans-32" x="367.949219"/>
     <use xlink:href="#DejaVuSans-31" x="431.572266"/>
     <use xlink:href="#DejaVuSans-2e" x="495.195312"/>
     <use xlink:href="#DejaVuSans-33" x="526.982422"/>
     <use xlink:href="#DejaVuSans-b0" x="590.605469"/>
    </g>
   </g>
   <g id="text_17">
    <g id="patch_18">
     <path d="M 3.503124 23.830439 
L 5.51011 37.092879 
L 7.463495 36.797276 
L 5.456509 23.534836 
z
" style="fill: #ffffff"/>
    </g>
    <!-- Freefall 26.2° -->
    <g transform="translate(3.937147 23.784987)rotate(-278.605198)scale(0.02 -0.02)">
     <defs>
      <path id="DejaVuSans-46" d="M 628 4666 
L 3309 4666 
L 3309 4134 
L 1259 4134 
L 1259 2759 
L 3109 2759 
L 3109 2228 
L 1259 2228 
L 1259 0 
L 628 0 
L 628 4666 
z
" transform="scale(0.015625)"/>
      <path id="DejaVuSans-36" d="M 2113 2584 
Q 1688 2584 1439 2293 
Q 1191 2003 1191 1497 
Q 1191 994 1439 701 
Q 1688 409 2113 409 
Q 2538 409 2786 701 
Q 3034 994 3034 1497 
Q 3034 2003 2786 2293 
Q 2538 2584 2113 2584 
z
M 3366 4563 
L 3366 3988 
Q 3128 4100 2886 4159 
Q 2644 4219 2406 4219 
Q 1781 4219 1451 3797 
Q 1122 3375 1075 2522 
Q 1259 2794 1537 2939 
Q 1816 3084 2150 3084 
Q 2853 3084 3261 2657 
Q 3669 2231 3669 1497 
Q 3669 778 3244 343 
Q 2819 -91 2113 -91 
Q 1303 -91 875 529 
Q 447 1150 447 2328 
Q 447 3434 972 4092 
Q 1497 4750 2381 4750 
Q 2619 4750 2861 4703 
Q 3103 4656 3366 4563 
z
" transform="scale(0.015625)"/>
     </defs>
     <use xlink:href="#DejaVuSans-46"/>
     <use xlink:href="#DejaVuSans-72" x="50.269531"/>
     <use xlink:href="#DejaVuSans-65" x="89.132812"/>
     <use xlink:href="#DejaVuSans-65" x="150.65625"/>
     <use xlink:href="#DejaVuSans-66" x="212.179688"/>
     <use xlink:href="#DejaVuSans-61" x="247.384766"/>
     <use xlink:href="#DejaVuSans-6c" x="308.664062"/>
     <use xlink:href="#DejaVuSans-6c" x="336.447266"/>
     <use xlink:href="#DejaVuSans-20" x="364.230469"/>
     <use xlink:href="#DejaVuSans-32" x="396.017578"/>
     <use xlink:href="#DejaVuSans-36" x="459.640625"/>
     <use xlink:href="#DejaVuSans-2e" x="523.263672"/>
     <use xlink:href="#DejaVuSans-32" x="555.050781"/>
     <use xlink:href="#DejaVuSans-b0" x="618.673828"/>
    </g>
   </g>
   <g id="text_18">
    <g id="patch_19">
     <path d="M 4.304784 58.058095 
L 9.40572 74.732832 
L 11.294926 74.154908 
L 6.19399 57.480171 
z
" style="fill: #ffffff"/>
    </g>
    <!-- Cliffs Ridge 23.3° -->
    <g style="fill: #4169e1" transform="translate(4.727503 57.949696)rotate(-287.009293)scale(0.02 -0.02)">
     <use xlink:href="#DejaVuSans-43"/>
     <use xlink:href="#DejaVuSans-6c" x="69.824219"/>
     <use xlink:href="#DejaVuSans-69" x="97.607422"/>
     <use xlink:href="#DejaVuSans-66" x="125.390625"/>
     <use xlink:href="#DejaVuSans-66" x="160.595703"/>
     <use xlink:href="#DejaVuSans-73" x="195.800781"/>
     <use xlink:href="#DejaVuSans-20" x="247.900391"/>
     <use xlink:href="#DejaVuSans-52" x="279.6875"/>
     <use xlink:href="#DejaVuSans-69" x="349.169922"/>
     <use xlink:href="#DejaVuSans-64" x="376.953125"/>
     <use xlink:href="#DejaVuSans-67" x="440.429688"/>
     <use xlink:href="#DejaVuSans-65" x="503.90625"/>
     <use xlink:href="#DejaVuSans-20" x="565.429688"/>
     <use xlink:href="#DejaVuSans-32" x="597.216797"/>
     <use xlink:href="#DejaVuSans-33" x="660.839844"/>
     <use xlink:href="#DejaVuSans-2e" x="724.462891"/>
     <use xlink:href="#DejaVuSans-33" x="756.25"/>
     <use xlink:href="#DejaVuSans-b0" x="819.873047"/>
    </g>
   </g>
   <g id="text_19">
    <g id="patch_20">
     <path d="M 6.121793 97.820447 
L 11.288082 83.608128 
L 9.431326 82.933183 
L 4.265037 97.145502 
z
" style="fill: #ffffff"/>
    </g>
    <!-- Supreme 23.7° -->
    <g style="fill: #4169e1" transform="translate(5.718918 97.652719)rotate(-70.023401)scale(0.02 -0.02)">
     <use xlink:href="#DejaVuSans-53"/>
     <use xlink:href="#DejaVuSans-75" x="63.476562"/>
     <use xlink:href="#DejaVuSans-70" x="126.855469"/>
     <use xlink:href="#DejaVuSans-72" x="190.332031"/>
     <use xlink:href="#DejaVuSans-65" x="229.195312"/>
     <use xlink:href="#DejaVuSans-6d" x="290.71875"/>
     <use xlink:href="#DejaVuSans-65" x="388.130859"/>
     <use xlink:href="#DejaVuSans-20" x="449.654297"/>
     <use xlink:href="#DejaVuSans-32" x="481.441406"/>
     <use xlink:href="#DejaVuSans-33" x="545.064453"/>
     <use xlink:href="#DejaVuSans-2e" x="608.6875"/>
     <use xlink:href="#DejaVuSans-37" x="640.474609"/>
     <use xlink:href="#DejaVuSans-b0" x="704.097656"/>
    </g>
   </g>
   <g id="text_20">
    <!-- Marquette Mountain -->
    <g transform="translate(15.268168 6.25774)scale(0.06 -0.06)">
     <defs>
      <path id="DejaVuSans-4d" d="M 628 4666 
L 1569 4666 
L 2759 1491 
L 3956 4666 
L 4897 4666 
L 4897 0 
L 4281 0 
L 4281 4097 
L 3078 897 
L 2444 897 
L 1241 4097 
L 1241 0 
L 628 0 
L 628 4666 
z
" transform="scale(0.015625)"/>
      <path id="DejaVuSans-71" d="M 947 1747 
Q 947 1113 1208 752 
Q 1469 391 1925 391 
Q 2381 391 2643 752 
Q 2906 1113 2906 1747 
Q 2906 2381 2643 2742 
Q 2381 3103 1925 3103 
Q 1469 3103 1208 2742 
Q 947 2381 947 1747 
z
M 2906 525 
Q 2725 213 2448 61 
Q 2172 -91 1784 -91 
Q 1150 -91 751 415 
Q 353 922 353 1747 
Q 353 2572 751 3078 
Q 1150 3584 1784 3584 
Q 2172 3584 2448 3432 
Q 2725 3281 2906 2969 
L 2906 3500 
L 3481 3500 
L 3481 -1331 
L 2906 -1331 
L 2906 525 
z
" transform="scale(0.015625)"/>
     </defs>
     <use xlink:href="#DejaVuSans-4d"/>
     <use xlink:href="#DejaVuSans-61" x="86.279297"/>
     <use xlink:href="#DejaVuSans-72" x="147.558594"/>
     <use xlink:href="#DejaVuSans-71" x="186.921875"/>
     <use xlink:href="#DejaVuSans-75" x="250.398438"/>
     <use xlink:href="#DejaVuSans-65" x="313.777344"/>
     <use xlink:href="#DejaVuSans-74" x="375.300781"/>
     <use xlink:href="#DejaVuSans-74" x="414.509766"/>
     <use xlink:href="#DejaVuSans-65" x="453.71875"/>
     <use xlink:href="#DejaVuSans-20" x="515.242188"/>
     <use xlink:href="#DejaVuSans-4d" x="547.029297"/>
     <use xlink:href="#DejaVuSans-6f" x="633.308594"/>
     <use xlink:href="#DejaVuSans-75" x="694.490234"/>
     <use xlink:href="#DejaVuSans-6e" x="757.869141"/>
     <use xlink:href="#DejaVuSans-74" x="821.248047"/>
     <use xlink:href="#DejaVuSans-61" x="860.457031"/>
     <use xlink:href="#DejaVuSans-69" x="921.736328"/>
     <use xlink:href="#DejaVuSans-6e" x="949.519531"/>
    </g>
   </g>
   <g id="legend_1">
    <g id="line2d_35">
     <path d="M 3.653715 119.381973 
L 6.653715 119.381973 
L 9.653715 119.381973 
" style="fill: none; stroke: #008000; stroke-width: 0.42273; stroke-linecap: square"/>
    </g>
    <g id="text_21">
     <!-- Easy -->
     <g transform="translate(12.053715 120.431973)scale(0.03 -0.03)">
      <defs>
       <path id="DejaVuSans-79" d="M 2059 -325 
Q 1816 -950 1584 -1140 
Q 1353 -1331 966 -1331 
L 506 -1331 
L 506 -850 
L 844 -850 
Q 1081 -850 1212 -737 
Q 1344 -625 1503 -206 
L 1606 56 
L 191 3500 
L 800 3500 
L 1894 763 
L 2988 3500 
L 3597 3500 
L 2059 -325 
z
" transform="scale(0.015625)"/>
      </defs>
      <use xlink:href="#DejaVuSans-45"/>
      <use xlink:href="#DejaVuSans-61" x="63.183594"/>
      <use xlink:href="#DejaVuSans-73" x="124.462891"/>
      <use xlink:href="#DejaVuSans-79" x="176.5625"/>
     </g>
    </g>
    <g id="line2d_36">
     <path d="M 3.653715 123.785411 
L 6.653715 123.785411 
L 9.653715 123.785411 
" style="fill: none; stroke: #4169e1; stroke-width: 0.42273; stroke-linecap: square"/>
    </g>
    <g id="text_22">
     <!-- Intermediate -->
     <g transform="translate(12.053715 124.835411)scale(0.03 -0.03)">
      <defs>
       <path id="DejaVuSans-49" d="M 628 4666 
L 1259 4666 
L 1259 0 
L 628 0 
L 628 4666 
z
" transform="scale(0.015625)"/>
      </defs>
      <use xlink:href="#DejaVuSans-49"/>
      <use xlink:href="#DejaVuSans-6e" x="29.492188"/>
      <use xlink:href="#DejaVuSans-74" x="92.871094"/>
      <use xlink:href="#DejaVuSans-65" x="132.080078"/>
      <use xlink:href="#DejaVuSans-72" x="193.603516"/>
      <use xlink:href="#DejaVuSans-6d" x="232.966797"/>
      <use xlink:href="#DejaVuSans-65" x="330.378906"/>
      <use xlink:href="#DejaVuSans-64" x="391.902344"/>
      <use xlink:href="#DejaVuSans-69" x="455.378906"/>
      <use xlink:href="#DejaVuSans-61" x="483.162109"/>
      <use xlink:href="#DejaVuSans-74" x="544.441406"/>
      <use xlink:href="#DejaVuSans-65" x="583.650391"/>
     </g>
    </g>
    <g id="line2d_37">
     <path d="M 37.40934 119.381973 
L 40.40934 119.381973 
L 43.40934 119.381973 
" style="fill: none; stroke: #000000; stroke-width: 0.42273; stroke-linecap: square"/>
    </g>
    <g id="text_23">
     <!-- Advanced -->
     <g transform="translate(45.80934 120.431973)scale(0.03 -0.03)">
      <defs>
       <path id="DejaVuSans-41" d="M 2188 4044 
L 1331 1722 
L 3047 1722 
L 2188 4044 
z
M 1831 4666 
L 2547 4666 
L 4325 0 
L 3669 0 
L 3244 1197 
L 1141 1197 
L 716 0 
L 50 0 
L 1831 4666 
z
" transform="scale(0.015625)"/>
       <path id="DejaVuSans-76" d="M 191 3500 
L 800 3500 
L 1894 563 
L 2988 3500 
L 3597 3500 
L 2284 0 
L 1503 0 
L 191 3500 
z
" transform="scale(0.015625)"/>
      </defs>
      <use xlink:href="#DejaVuSans-41"/>
      <use xlink:href="#DejaVuSans-64" x="66.658203"/>
      <use xlink:href="#DejaVuSans-76" x="130.134766"/>
      <use xlink:href="#DejaVuSans-61" x="189.314453"/>
      <use xlink:href="#DejaVuSans-6e" x="250.59375"/>
      <use xlink:href="#DejaVuSans-63" x="313.972656"/>
      <use xlink:href="#DejaVuSans-65" x="368.953125"/>
      <use xlink:href="#DejaVuSans-64" x="430.476562"/>
     </g>
    </g>
    <g id="line2d_38">
     <path d="M 37.40934 123.785411 
L 40.40934 123.785411 
L 43.40934 123.785411 
" style="fill: none; stroke: #ff0000; stroke-width: 0.42273; stroke-linecap: square"/>
    </g>
    <g id="text_24">
     <!-- Expert -->
     <g transform="translate(45.80934 124.835411)scale(0.03 -0.03)">
      <use xlink:href="#DejaVuSans-45"/>
      <use xlink:href="#DejaVuSans-78" x="63.183594"/>
      <use xlink:href="#DejaVuSans-70" x="122.363281"/>
      <use xlink:href="#DejaVuSans-65" x="185.839844"/>
      <use xlink:href="#DejaVuSans-72" x="247.363281"/>
      <use xlink:href="#DejaVuSans-74" x="288.476562"/>
     </g>
    </g>
    <g id="line2d_39">
     <path d="M 66.628871 119.381973 
L 69.628871 119.381973 
L 72.628871 119.381973 
" style="fill: none; stroke: #ffd700; stroke-width: 0.42273; stroke-linecap: square"/>
    </g>
    <g id="text_25">
     <!-- Extreme -->
     <g transform="translate(75.028871 120.431973)scale(0.03 -0.03)">
      <use xlink:href="#DejaVuSans-45"/>
      <use xlink:href="#DejaVuSans-78" x="63.183594"/>
      <use xlink:href="#DejaVuSans-74" x="122.363281"/>
      <use xlink:href="#DejaVuSans-72" x="161.572266"/>
      <use xlink:href="#DejaVuSans-65" x="200.435547"/>
      <use xlink:href="#DejaVuSans-6d" x="261.958984"/>
      <use xlink:href="#DejaVuSans-65" x="359.371094"/>
     </g>
    </g>
    <g id="line2d_40">
     <path d="M 66.628871 123.785411 
L 69.628871 123.785411 
L 72.628871 123.785411 
" style="fill: none; stroke-dasharray: 0.42273,0.697505; stroke-dashoffset: 0; stroke: #000000; stroke-width: 0.42273"/>
    </g>
    <g id="text_26">
     <!-- Gladed -->
     <g transform="translate(75.028871 124.835411)scale(0.03 -0.03)">
      <defs>
       <path id="DejaVuSans-47" d="M 3809 666 
L 3809 1919 
L 2778 1919 
L 2778 2438 
L 4434 2438 
L 4434 434 
Q 4069 175 3628 42 
Q 3188 -91 2688 -91 
Q 1594 -91 976 548 
Q 359 1188 359 2328 
Q 359 3472 976 4111 
Q 1594 4750 2688 4750 
Q 3144 4750 3555 4637 
Q 3966 4525 4313 4306 
L 4313 3634 
Q 3963 3931 3569 4081 
Q 3175 4231 2741 4231 
Q 1884 4231 1454 3753 
Q 1025 3275 1025 2328 
Q 1025 1384 1454 906 
Q 1884 428 2741 428 
Q 3075 428 3337 486 
Q 3600 544 3809 666 
z
" transform="scale(0.015625)"/>
      </defs>
      <use xlink:href="#DejaVuSans-47"/>
      <use xlink:href="#DejaVuSans-6c" x="77.490234"/>
      <use xlink:href="#DejaVuSans-61" x="105.273438"/>
      <use xlink:href="#DejaVuSans-64" x="166.552734"/>
      <use xlink:href="#DejaVuSans-65" x="230.029297"/>
      <use xlink:href="#DejaVuSans-64" x="291.552734"/>
     </g>
    </g>
   </g>
  </g>
  <g id="text_27">
   <!-- Sources: USGS and OpenStreetMaps -->
   <g transform="translate(21.858487 128.940603)scale(0.026087 -0.026087)">
    <defs>
     <path id="DejaVuSans-3a" d="M 750 794 
L 1409 794 
L 1409 0 
L 750 0 
L 750 794 
z
M 750 3309 
L 1409 3309 
L 1409 2516 
L 750 2516 
L 750 3309 
z
" transform="scale(0.015625)"/>
     <path id="DejaVuSans-4f" d="M 2522 4238 
Q 1834 4238 1429 3725 
Q 1025 3213 1025 2328 
Q 1025 1447 1429 934 
Q 1834 422 2522 422 
Q 3209 422 3611 934 
Q 4013 1447 4013 2328 
Q 4013 3213 3611 3725 
Q 3209 4238 2522 4238 
z
M 2522 4750 
Q 3503 4750 4090 4092 
Q 4678 3434 4678 2328 
Q 4678 1225 4090 567 
Q 3503 -91 2522 -91 
Q 1538 -91 948 565 
Q 359 1222 359 2328 
Q 359 3434 948 4092 
Q 1538 4750 2522 4750 
z
" transform="scale(0.015625)"/>
    </defs>
    <use xlink:href="#DejaVuSans-53"/>
    <use xlink:href="#DejaVuSans-6f" x="63.476562"/>
    <use xlink:href="#DejaVuSans-75" x="124.658203"/>
    <use xlink:href="#DejaVuSans-72" x="188.037109"/>
    <use xlink:href="#DejaVuSans-63" x="226.900391"/>
    <use xlink:href="#DejaVuSans-65" x="281.880859"/>
    <use xlink:href="#DejaVuSans-73" x="343.404297"/>
    <use xlink:href="#DejaVuSans-3a" x="395.503906"/>
    <use xlink:href="#DejaVuSans-20" x="429.195312"/>
    <use xlink:href="#DejaVuSans-55" x="460.982422"/>
    <use xlink:href="#DejaVuSans-53" x="534.175781"/>
    <use xlink:href="#DejaVuSans-47" x="597.652344"/>
    <use xlink:href="#DejaVuSans-53" x="675.142578"/>
    <use xlink:href="#DejaVuSans-20" x="738.619141"/>
    <use xlink:href="#DejaVuSans-61" x="770.40625"/>
    <use xlink:href="#DejaVuSans-6e" x="831.685547"/>
    <use xlink:href="#DejaVuSans-64" x="895.064453"/>
    <use xlink:href="#DejaVuSans-20" x="958.541016"/>
    <use xlink:href="#DejaVuSans-4f" x="990.328125"/>
    <use xlink:href="#DejaVuSans-70" x="1069.039062"/>
    <use xlink:href="#DejaVuSans-65" x="1132.515625"/>
    <use xlink:href="#DejaVuSans-6e" x="1194.039062"/>
    <use xlink:href="#DejaVuSans-53" x="1257.417969"/>
    <use xlink:href="#DejaVuSans-74" x="1320.894531"/>
    <use xlink:href="#DejaVuSans-72" x="1360.103516"/>
    <use xlink:href="#DejaVuSans-65" x="1398.966797"/>
    <use xlink:href="#DejaVuSans-65" x="1460.490234"/>
    <use xlink:href="#DejaVuSans-74" x="1522.013672"/>
    <use xlink:href="#DejaVuSans-4d" x="1561.222656"/>
    <use xlink:href="#DejaVuSans-61" x="1647.501953"/>
    <use xlink:href="#DejaVuSans-70" x="1708.78125"/>
    <use xlink:href="#DejaVuSans-73" x="1772.257812"/>
   </g>
  </g>
 </g>
 <defs>
  <clipPath id="pec51047684">
   <rect x="0" y="9.25774" width="91.309774" height="110.967651"/>
  </clipPath>
 </defs>
</svg>
