<?xml version="1.0" encoding="utf-8" standalone="no"?>
<!DOCTYPE svg PUBLIC "-//W3C//DTD SVG 1.1//EN"
  "http://www.w3.org/Graphics/SVG/1.1/DTD/svg11.dtd">
<svg xmlns:xlink="http://www.w3.org/1999/xlink" width="82.742123pt" height="101.403301pt" viewBox="0 0 82.742123 101.403301" xmlns="http://www.w3.org/2000/svg" version="1.1">
 <metadata>
  <rdf:RDF xmlns:dc="http://purl.org/dc/elements/1.1/" xmlns:cc="http://creativecommons.org/ns#" xmlns:rdf="http://www.w3.org/1999/02/22-rdf-syntax-ns#">
   <cc:Work>
    <dc:type rdf:resource="http://purl.org/dc/dcmitype/StillImage"/>
    <dc:date>2022-05-17T14:54:44.275299</dc:date>
    <dc:format>image/svg+xml</dc:format>
    <dc:creator>
     <cc:Agent>
      <dc:title>Matplotlib v3.5.2, https://matplotlib.org/</dc:title>
     </cc:Agent>
    </dc:creator>
   </cc:Work>
  </rdf:RDF>
 </metadata>
 <defs>
  <style type="text/css">*{stroke-linejoin: round; stroke-linecap: butt}</style>
 </defs>
 <g id="figure_1">
  <g id="patch_1">
   <path d="M 0 101.403301 
L 82.742123 101.403301 
L 82.742123 0 
L 0 0 
L 0 101.403301 
z
" style="fill: none"/>
  </g>
  <g id="axes_1">
   <g id="line2d_1">
    <path d="M 39.390803 84.878996 
L 39.321972 78.814242 
L 39.253141 72.749487 
L 39.184309 66.684733 
L 39.115478 60.619979 
L 39.078091 57.321894 
L 39.040705 54.023809 
L 39.003318 50.725724 
L 38.965931 47.427639 
L 39.057046 44.359151 
L 39.178491 40.271128 
L 39.299936 36.183105 
L 39.421381 32.095082 
L 39.542826 28.007059 
L 39.664271 23.919036 
L 39.785716 19.831013 
L 39.907161 15.74299 
L 40.028606 11.654967 
" clip-path="url(#p81c045ba88)" style="fill: none; stroke: #808080; stroke-width: 0.4; stroke-linecap: square"/>
   </g>
   <g id="line2d_2">
    <path d="M 17.882789 89.748333 
L 17.539623 85.732711 
L 17.196458 81.717088 
L 16.67552 75.628979 
L 16.33582 71.656474 
L 15.996121 67.683968 
L 15.605913 63.121479 
L 15.215704 58.55899 
L 14.984946 55.85556 
L 14.506099 50.259702 
L 14.027252 44.663844 
L 13.653385 40.289633 
L 13.279517 35.915421 
L 12.794728 30.244828 
L 12.309939 24.574234 
L 11.976182 20.676464 
" clip-path="url(#p81c045ba88)" style="fill: none; stroke: #808080; stroke-width: 0.4; stroke-linecap: square"/>
   </g>
   <g id="line2d_3">
    <path d="M 46.503689 88.564055 
L 47.210819 85.810321 
L 48.577539 80.486819 
L 48.751845 79.805571 
L 48.947939 79.043839 
L 50.301785 73.769203 
L 51.2367 70.127619 
L 52.171616 66.486036 
L 53.106532 62.844453 
L 54.041448 59.20287 
L 55.563162 53.27573 
L 57.084876 47.348591 
L 58.197069 43.017137 
L 59.309262 38.685683 
L 60.421455 34.354229 
L 61.533648 30.022775 
L 61.831752 28.858619 
L 62.122923 27.726081 
L 62.734976 25.341715 
" clip-path="url(#p81c045ba88)" style="fill: none; stroke: #808080; stroke-width: 0.4; stroke-linecap: square"/>
   </g>
   <g id="line2d_4">
    <path d="M 64.017514 24.641784 
L 65.741512 23.87071 
L 67.465511 23.099635 
L 69.189509 22.328561 
L 70.913508 21.557487 
L 72.658552 20.777071 
L 73.720235 21.259261 
L 74.781919 21.741452 
L 75.12719 22.673496 
L 75.47246 23.605541 
L 75.81773 24.537585 
L 76.163 25.469629 
L 76.50827 26.401673 
L 76.85354 27.333717 
L 77.19881 28.265761 
L 77.54408 29.197805 
L 77.791922 31.018417 
L 78.039764 32.839029 
L 78.287606 34.659641 
L 78.535448 36.480253 
L 78.591156 37.694353 
L 78.646865 38.908454 
L 78.702574 40.122555 
L 78.758283 41.336655 
L 78.813991 42.550756 
L 78.8697 43.764857 
L 78.925409 44.978957 
L 78.981117 46.193058 
L 78.362379 47.363682 
L 77.743641 48.534306 
L 77.124903 49.704931 
L 76.506166 50.875555 
L 75.653451 51.917547 
L 75.018372 52.693293 
L 74.383293 53.469038 
L 73.748214 54.244783 
L 73.113134 55.020528 
L 72.345097 55.958322 
L 71.57706 56.896115 
L 69.910008 57.508734 
L 68.242956 58.121354 
L 66.575905 58.733973 
L 64.908853 59.346593 
L 63.81201 59.402645 
L 62.715168 59.458697 
L 61.618326 59.514749 
L 60.521483 59.570801 
L 59.424641 59.626853 
L 58.327799 59.682905 
L 57.230956 59.738957 
L 56.134114 59.795009 
L 55.561181 61.506751 
L 54.988248 63.218492 
L 54.457963 64.80259 
L 53.927678 66.386688 
L 53.397393 67.970785 
L 52.867108 69.554883 
L 52.336823 71.138981 
L 51.806538 72.723078 
L 51.276254 74.307176 
L 50.745969 75.891274 
L 50.215684 77.475371 
L 49.685399 79.059469 
L 49.155114 80.643567 
L 48.624829 82.227664 
L 48.094544 83.811762 
L 47.564259 85.39586 
L 47.033974 86.979957 
L 46.503689 88.564055 
" clip-path="url(#p81c045ba88)" style="fill: none; stroke: #4169e1; stroke-width: 0.4; stroke-linecap: square"/>
   </g>
   <g id="line2d_5">
    <path d="M 70.913508 21.557487 
L 71.308049 22.528695 
L 71.70259 23.499904 
L 72.097132 24.471113 
L 72.491673 25.442321 
L 72.886214 26.41353 
L 73.280756 27.384739 
L 73.675297 28.355947 
L 74.069839 29.327156 
L 74.232632 30.531016 
L 74.395425 31.734876 
L 74.558218 32.938737 
L 74.721011 34.142597 
L 74.883804 35.346458 
L 75.046598 36.550318 
L 75.209391 37.754178 
L 75.372184 38.958039 
L 75.816863 40.773979 
L 76.261542 42.58992 
L 76.706222 44.405861 
L 77.150901 46.221802 
L 76.776538 47.645739 
L 76.402176 49.069675 
L 76.027814 50.493611 
L 75.653451 51.917547 
" clip-path="url(#p81c045ba88)" style="fill: none; stroke: #4169e1; stroke-width: 0.4; stroke-linecap: square"/>
   </g>
   <g id="line2d_6">
    <path d="M 70.320272 27.441509 
L 70.678788 28.851971 
L 71.037305 30.262434 
L 71.395821 31.672896 
L 71.754337 33.083358 
L 72.112854 34.49382 
L 72.47137 35.904283 
L 72.829887 37.314745 
L 73.188403 38.725207 
L 73.301306 40.32197 
L 73.414209 41.918734 
L 73.527112 43.515497 
L 73.640015 45.11226 
L 73.243369 46.427326 
L 72.846723 47.742392 
L 72.450077 49.057458 
L 72.053431 50.372525 
L 72.318357 51.534526 
L 72.583283 52.696527 
L 72.848209 53.858528 
L 73.113134 55.020528 
" clip-path="url(#p81c045ba88)" style="fill: none; stroke-dasharray: 1.48,0.64; stroke-dashoffset: 0; stroke: #ff0000; stroke-width: 0.4"/>
   </g>
   <g id="line2d_7">
    <path d="M 66.019065 24.922044 
L 66.374115 26.414967 
L 66.729165 27.907891 
L 67.084215 29.400814 
L 67.439266 30.893737 
L 67.666309 31.848418 
L 67.893353 32.803098 
L 68.120397 33.757779 
L 68.347441 34.712459 
L 68.533632 35.861345 
L 68.719823 37.010232 
L 68.906014 38.159118 
L 69.092205 39.308004 
L 69.278395 40.45689 
L 69.464586 41.605777 
L 69.650777 42.754663 
L 69.836968 43.903549 
L 69.451959 44.938715 
L 69.06695 45.97388 
L 68.681941 47.009045 
L 68.296932 48.044211 
L 67.267683 49.177827 
L 66.238434 50.311442 
L 65.209184 51.445058 
L 64.179935 52.578674 
L 62.852583 53.041462 
L 61.52523 53.50425 
L 60.197878 53.967038 
L 58.870525 54.429827 
L 57.433983 55.594702 
L 55.997442 56.759578 
L 56.065778 58.277293 
L 56.134114 59.795009 
" clip-path="url(#p81c045ba88)" style="fill: none; stroke: #000000; stroke-width: 0.4; stroke-linecap: square"/>
   </g>
   <g id="line2d_8">
    <path d="M 67.439266 30.893737 
L 66.447156 32.111072 
L 65.455046 33.328406 
L 64.462936 34.54574 
L 63.470826 35.763075 
L 62.053596 36.994063 
L 60.636367 38.225051 
L 59.087418 38.943666 
L 57.538468 39.662282 
L 56.960088 40.549053 
L 56.381708 41.435824 
L 55.803328 42.322596 
L 55.224948 43.209367 
L 54.873859 44.272199 
L 54.522771 45.335031 
L 54.171682 46.397863 
L 53.820594 47.460695 
L 53.806728 49.163814 
L 53.792863 50.866932 
L 53.520262 51.818738 
L 53.247661 52.770544 
L 52.975059 53.72235 
L 52.702458 54.674156 
L 52.335028 55.95904 
L 52.998333 57.773903 
L 53.661638 59.588766 
L 54.324943 61.403629 
L 54.988248 63.218492 
" clip-path="url(#p81c045ba88)" style="fill: none; stroke: #000000; stroke-width: 0.4; stroke-linecap: square"/>
   </g>
   <g id="line2d_9">
    <path d="M 58.787333 24.01084 
L 57.706832 25.597542 
L 56.626331 27.184245 
L 56.094746 28.654173 
L 55.563162 30.1241 
L 55.031577 31.594028 
L 54.499992 33.063956 
L 53.959494 34.532805 
L 53.418996 36.001655 
L 52.878498 37.470505 
L 52.337999 38.939355 
" clip-path="url(#p81c045ba88)" style="fill: none; stroke-dasharray: 1.48,0.64; stroke-dashoffset: 0; stroke: #ff0000; stroke-width: 0.4"/>
   </g>
   <g id="line2d_10">
    <path d="M 53.856247 22.618163 
L 53.374676 23.928199 
L 52.893106 25.238235 
L 52.411535 26.54827 
L 51.929964 27.858306 
L 51.362478 29.363446 
L 50.794992 30.868586 
L 50.227506 32.373726 
L 49.66002 33.878865 
L 49.847697 35.253217 
L 50.035373 36.627569 
L 50.22305 38.001921 
L 50.410726 39.376273 
L 50.64396 41.031603 
L 50.877194 42.686933 
L 51.110427 44.342264 
L 51.343661 45.997594 
L 51.513511 47.082165 
L 51.68336 48.166735 
L 51.85321 49.251305 
L 52.02306 50.335875 
L 52.192909 51.420445 
L 52.362759 52.505016 
L 52.532608 53.589586 
L 52.702458 54.674156 
" clip-path="url(#p81c045ba88)" style="fill: none; stroke: #000000; stroke-width: 0.4; stroke-linecap: square"/>
   </g>
   <g id="line2d_11">
    <path d="M 42.251011 13.260354 
L 42.641963 15.072343 
L 43.032914 16.884331 
L 43.423865 18.69632 
L 43.814816 20.508308 
L 44.309014 22.270353 
L 44.803212 24.032398 
L 45.29741 25.794443 
L 45.791608 27.556488 
L 45.781457 28.573508 
L 45.771306 29.590528 
L 45.761154 30.607549 
L 45.751003 31.624569 
L 45.740852 32.641589 
L 45.7307 33.65861 
L 45.720549 34.67563 
L 45.710398 35.69265 
L 45.091907 37.070236 
L 44.473417 38.447822 
L 43.854927 39.825407 
L 43.236436 41.202993 
L 42.789529 42.6007 
L 42.342621 43.998406 
L 41.895714 45.396113 
L 41.448806 46.79382 
L 41.117277 48.635631 
L 40.785749 50.477442 
L 40.45422 52.319253 
L 40.122691 54.161065 
L 39.870888 55.775793 
L 39.619085 57.390522 
L 39.367281 59.005251 
L 39.115478 60.619979 
L 38.727746 62.306569 
L 38.340013 63.99316 
L 37.952281 65.67975 
L 37.564548 67.36634 
L 37.543379 68.443544 
L 37.522209 69.520749 
L 37.50104 70.597953 
L 37.479871 71.675158 
L 37.458702 72.752362 
L 37.437532 73.829566 
L 37.416363 74.906771 
L 37.395194 75.983975 
L 37.498193 76.780201 
L 37.672994 78.12473 
L 37.847796 79.469259 
L 37.847796 80.488256 
L 37.847796 81.507253 
L 37.847796 82.526249 
L 37.847796 83.545246 
" clip-path="url(#p81c045ba88)" style="fill: none; stroke: #4169e1; stroke-width: 0.4; stroke-linecap: square"/>
   </g>
   <g id="line2d_12">
    <path d="M 38.313273 11.686587 
L 37.129773 12.285912 
L 35.946272 12.885237 
L 34.762772 13.484562 
L 33.579272 14.083887 
L 32.28782 14.250965 
L 30.996369 14.418043 
L 29.704917 14.585122 
L 28.413466 14.7522 
L 28.358995 16.191227 
L 28.304525 17.630254 
L 28.250054 19.069281 
L 28.195583 20.508308 
L 28.13517 22.086388 
L 28.228266 23.642908 
L 28.321361 25.199429 
L 28.414456 26.75595 
L 28.507552 28.312471 
L 28.590001 29.695087 
L 28.67245 31.077703 
L 28.754898 32.460319 
L 28.837347 33.842935 
L 28.941832 35.596356 
L 29.046317 37.349777 
L 29.449895 38.964147 
L 29.853474 40.578516 
L 30.257052 42.192885 
L 30.660631 43.807255 
L 30.824043 45.103996 
L 30.987455 46.400738 
L 31.150868 47.697479 
L 31.31428 48.99422 
L 31.477692 50.290962 
L 31.641104 51.587703 
L 31.804516 52.884444 
L 31.967928 54.181186 
L 32.091726 55.160658 
L 32.215523 56.140131 
L 32.581591 57.489152 
L 32.947659 58.838172 
L 33.313727 60.187193 
L 33.679795 61.536214 
L 34.045863 62.885234 
L 34.411931 64.234255 
L 34.777999 65.583276 
L 35.144067 66.932296 
L 35.452074 68.067709 
L 35.760081 69.203121 
L 35.977345 70.150256 
L 36.194609 71.097391 
L 36.411873 72.044526 
L 36.629137 72.991661 
L 36.846401 73.938796 
L 37.063665 74.885931 
L 37.280929 75.833066 
L 37.498193 76.780201 
L 37.585594 78.471462 
L 37.672994 80.162723 
L 37.760395 81.853984 
L 37.847796 83.545246 
" clip-path="url(#p81c045ba88)" style="fill: none; stroke: #000000; stroke-width: 0.4; stroke-linecap: square"/>
   </g>
   <g id="line2d_13">
    <path d="M 39.057046 44.359151 
L 38.684045 45.34078 
L 38.311045 46.322408 
L 37.938044 47.304037 
L 37.565043 48.285666 
L 37.192043 49.267294 
L 36.819042 50.248923 
L 36.446041 51.230551 
L 36.073041 52.21218 
L 35.737303 53.946199 
L 35.401565 55.680217 
L 35.065827 57.414236 
L 34.73009 59.148255 
L 34.781837 60.12126 
L 34.833584 61.094265 
L 34.885331 62.06727 
L 34.937078 63.040276 
L 34.988825 64.013281 
L 35.040573 64.986286 
L 35.09232 65.959291 
L 35.144067 66.932296 
" clip-path="url(#p81c045ba88)" style="fill: none; stroke: #4169e1; stroke-width: 0.4; stroke-linecap: square"/>
   </g>
   <g id="line2d_14">
    <path d="M 36.70292 14.681775 
L 36.210703 15.899469 
L 35.718486 17.117163 
L 35.226268 18.334856 
L 34.734051 19.55255 
L 33.938778 20.487828 
L 33.143506 21.423106 
L 32.348233 22.358384 
L 31.552961 23.293661 
L 30.791608 24.548364 
L 30.030256 25.803066 
L 29.268904 27.057769 
L 28.507552 28.312471 
" clip-path="url(#p81c045ba88)" style="fill: none; stroke: #000000; stroke-width: 0.4; stroke-linecap: square"/>
   </g>
   <g id="line2d_15">
    <path d="M 29.046317 37.349777 
L 29.200011 38.683393 
L 29.353705 40.017008 
L 29.507399 41.350623 
L 29.661093 42.684239 
L 29.814787 44.017854 
L 29.968481 45.351469 
L 30.122176 46.685085 
L 30.27587 48.0187 
L 30.429564 49.352315 
L 30.583258 50.685931 
L 30.736952 52.019546 
L 30.890646 53.353161 
L 31.04434 54.686777 
L 31.198034 56.020392 
L 31.351728 57.354007 
L 31.505423 58.687623 
L 31.659117 60.021238 
L 31.812811 61.354853 
L 31.966505 62.688469 
L 32.120199 64.022084 
L 32.273893 65.355699 
L 32.427587 66.689314 
L 32.581281 68.02293 
L 32.734975 69.356545 
L 32.888669 70.69016 
L 33.042364 72.023776 
L 33.196058 73.357391 
L 33.349752 74.691006 
L 33.503446 76.024622 
L 33.65714 77.358237 
L 33.810834 78.691852 
L 33.964528 80.025468 
" clip-path="url(#p81c045ba88)" style="fill: none; stroke: #008000; stroke-width: 0.4; stroke-linecap: square"/>
   </g>
   <g id="line2d_16">
    <path d="M 26.071225 66.156192 
L 26.272024 67.851405 
L 26.472823 69.546619 
L 26.673621 71.241832 
L 26.87442 72.937046 
L 27.075219 74.63226 
L 27.276018 76.327473 
L 27.476817 78.022687 
L 27.677616 79.7179 
" clip-path="url(#p81c045ba88)" style="fill: none; stroke: #008000; stroke-width: 0.4; stroke-linecap: square"/>
   </g>
   <g id="line2d_17">
    <path d="M 25.886024 59.007406 
L 25.006817 59.846929 
L 24.12761 60.686451 
L 23.248403 61.525973 
L 22.369196 62.365496 
L 21.489989 63.205018 
L 20.610782 64.044541 
L 19.731575 64.884063 
L 18.852368 65.723585 
L 19.145272 66.698567 
L 19.438176 67.673548 
L 19.73108 68.648529 
L 20.023984 69.623511 
L 20.316888 70.598492 
L 20.609792 71.573473 
L 20.902696 72.548455 
L 21.1956 73.523436 
" clip-path="url(#p81c045ba88)" style="fill: none; stroke: #008000; stroke-width: 0.4; stroke-linecap: square"/>
   </g>
   <g id="line2d_18">
    <path d="M 12.832857 18.200116 
L 13.613027 17.494975 
L 14.393196 16.789833 
L 15.173366 16.084692 
L 15.953535 15.379551 
L 16.733704 14.674409 
L 17.513874 13.969268 
L 18.294043 13.264127 
L 19.074212 12.558986 
L 20.214384 13.552651 
L 21.354555 14.546316 
L 22.494726 15.539982 
L 23.634898 16.533647 
L 24.775069 17.527312 
L 25.91524 18.520978 
L 27.055412 19.514643 
L 28.195583 20.508308 
" clip-path="url(#p81c045ba88)" style="fill: none; stroke: #000000; stroke-width: 0.4; stroke-linecap: square"/>
   </g>
   <g id="line2d_19">
    <path d="M 14.397653 22.503185 
L 15.392982 23.448703 
L 16.38831 24.394221 
L 17.383639 25.339739 
L 18.378968 26.285257 
L 19.374297 27.230775 
L 20.369625 28.176293 
L 21.364954 29.121811 
L 22.360283 30.06733 
L 23.652972 30.309862 
L 24.945661 30.552395 
L 26.238351 30.794928 
L 27.53104 31.03746 
L 28.184194 32.440197 
L 28.837347 33.842935 
" clip-path="url(#p81c045ba88)" style="fill: none; stroke: #ff0000; stroke-width: 0.4; stroke-linecap: square"/>
   </g>
   <g id="line2d_20">
    <path d="M 10.163792 21.492811 
L 9.603239 22.548996 
L 9.042685 23.605181 
L 8.482132 24.661366 
L 7.921579 25.717551 
L 7.361025 26.773736 
L 6.800472 27.829921 
L 6.239919 28.886106 
L 5.679366 29.942291 
L 5.474605 31.137348 
L 5.269845 32.332405 
L 5.065084 33.527462 
L 4.860324 34.72252 
L 4.655563 35.917577 
L 4.450803 37.112634 
L 4.246043 38.307692 
L 4.041282 39.502749 
L 4.006248 41.167781 
L 3.971213 42.832812 
L 3.936178 44.497844 
L 3.901144 46.162876 
L 3.866109 47.827908 
L 3.831075 49.492939 
L 3.79604 51.157971 
L 3.761006 52.823003 
L 3.871061 54.260772 
L 3.981117 55.698542 
L 4.091172 57.136312 
L 4.201228 58.574081 
L 4.311284 60.011851 
L 4.421339 61.449621 
L 4.531395 62.88739 
L 4.641451 64.32516 
L 5.425458 65.35781 
L 6.209465 66.39046 
L 6.993472 67.423111 
L 7.777479 68.455761 
L 8.561486 69.488411 
L 9.345493 70.521061 
L 10.1295 71.553712 
L 10.913507 72.586362 
L 12.003664 73.955144 
L 13.093822 75.323927 
L 14.183979 76.692709 
L 15.274136 78.061492 
L 16.364294 79.430275 
L 17.454451 80.799057 
L 18.544608 82.16784 
L 19.634766 83.536622 
L 19.526815 84.863186 
L 19.445604 85.866373 
L 19.364393 86.86956 
" clip-path="url(#p81c045ba88)" style="fill: none; stroke: #000000; stroke-width: 0.4; stroke-linecap: square"/>
   </g>
   <g id="line2d_21">
    <path d="M 4.641451 64.32516 
L 4.860819 65.423923 
L 5.080188 66.522686 
L 5.299556 67.621448 
L 5.518924 68.720211 
L 6.08443 69.77981 
L 6.649935 70.839408 
L 7.21544 71.899006 
L 7.780945 72.958604 
L 8.368362 73.844837 
L 8.95578 74.731069 
L 9.543197 75.617302 
L 10.130614 76.503534 
L 10.718032 77.389766 
L 11.305449 78.275999 
L 11.892866 79.162231 
L 12.480283 80.048463 
L 13.227523 81.155131 
L 13.974762 82.261799 
L 14.722001 83.368466 
L 15.469241 84.475134 
" clip-path="url(#p81c045ba88)" style="fill: none; stroke: #4169e1; stroke-width: 0.4; stroke-linecap: square"/>
   </g>
   <g id="line2d_22">
    <path d="M 5.679366 29.942291 
L 6.916161 31.082643 
L 8.152955 32.222996 
L 9.38975 33.363349 
L 10.626545 34.503701 
L 11.86334 35.644054 
L 13.100135 36.784407 
L 14.33693 37.924759 
L 15.573725 39.065112 
L 16.81052 40.205465 
L 18.047315 41.345818 
L 19.28411 42.48617 
L 20.520905 43.626523 
L 21.7577 44.766876 
L 22.994495 45.907228 
L 24.23129 47.047581 
L 25.468085 48.187934 
L 26.280566 48.93709 
L 27.093046 49.686247 
L 27.905526 50.435403 
L 28.718007 51.18456 
L 29.530487 51.933716 
L 30.342968 52.682873 
L 31.155448 53.432029 
L 31.967928 54.181186 
" clip-path="url(#p81c045ba88)" style="fill: none; stroke: #000000; stroke-width: 0.4; stroke-linecap: square"/>
   </g>
   <g id="line2d_23">
    <path d="M 14.045079 24.065454 
L 14.888137 25.212005 
L 15.731195 26.358556 
L 16.574254 27.505107 
L 17.417312 28.651657 
L 18.526286 29.811503 
L 19.635261 30.971348 
L 20.744235 32.131193 
L 21.85321 33.291038 
L 22.122097 34.610056 
L 22.390984 35.929075 
L 22.659872 37.248093 
L 22.928759 38.567112 
L 23.099104 40.092373 
L 23.269449 41.617634 
L 23.439793 43.142895 
L 23.610138 44.668156 
L 24.074625 45.5481 
L 24.539112 46.428045 
L 25.003599 47.307989 
L 25.468085 48.187934 
" clip-path="url(#p81c045ba88)" style="fill: none; stroke: #4169e1; stroke-width: 0.4; stroke-linecap: square"/>
   </g>
   <g id="line2d_24">
    <path d="M 5.679366 29.942291 
L 6.259726 31.055605 
L 6.840087 32.16892 
L 7.420448 33.282235 
L 8.000809 34.39555 
L 8.58117 35.508865 
L 9.161531 36.622179 
L 9.741891 37.735494 
L 10.322252 38.848809 
L 10.991252 40.018176 
L 11.660251 41.187543 
L 12.329251 42.356909 
L 12.99825 43.526276 
L 13.66725 44.695643 
L 14.33625 45.86501 
L 15.005249 47.034377 
L 15.674249 48.203743 
L 16.125613 49.881351 
L 16.576977 51.558958 
L 17.028341 53.236566 
L 17.479706 54.914173 
L 17.461631 56.254571 
L 17.443557 57.594968 
L 17.425483 58.935365 
L 17.407408 60.275762 
L 17.389334 61.61616 
L 17.371259 62.956557 
L 17.353185 64.296954 
L 17.335111 65.637351 
L 17.844288 66.84732 
L 18.353466 68.057289 
L 18.862643 69.267257 
L 19.371821 70.477226 
L 19.880998 71.687194 
L 20.390176 72.897163 
L 20.899353 74.107131 
L 21.408531 75.3171 
L 21.580609 76.34975 
L 21.752687 77.382401 
L 21.924765 78.415051 
L 22.096842 79.447701 
L 22.26892 80.480351 
L 22.440998 81.513001 
L 22.613076 82.545652 
L 22.785154 83.578302 
L 21.155984 84.220744 
L 19.526815 84.863186 
" clip-path="url(#p81c045ba88)" style="fill: none; stroke: #000000; stroke-width: 0.4; stroke-linecap: square"/>
   </g>
   <g id="line2d_25">
    <path d="M 5.679366 29.942291 
L 5.810962 31.655469 
L 5.942558 33.368648 
L 6.074155 35.081827 
L 6.205751 36.795006 
L 6.337347 38.508185 
L 6.468943 40.221364 
L 6.60054 41.934543 
L 6.732136 43.647722 
L 7.460311 45.204602 
L 8.188485 46.761482 
L 8.91666 48.318363 
L 9.644834 49.875243 
L 10.315567 50.905378 
L 10.9863 51.935513 
L 11.657033 52.965648 
L 12.327765 53.995783 
L 12.443268 54.965554 
L 12.558771 55.935326 
L 12.674273 56.905097 
L 12.789776 57.874869 
L 12.905279 58.84464 
L 13.020781 59.814411 
L 13.136284 60.784183 
L 13.251787 61.753954 
L 13.399105 63.318739 
L 13.546424 64.883524 
L 13.693743 66.448309 
L 13.841061 68.013094 
L 14.760378 68.701887 
L 15.679696 69.390679 
L 16.599013 70.079472 
L 17.51833 70.768265 
L 18.437648 71.457058 
L 19.356965 72.145851 
L 20.276282 72.834643 
L 21.1956 73.523436 
" clip-path="url(#p81c045ba88)" style="fill: none; stroke: #000000; stroke-width: 0.4; stroke-linecap: square"/>
   </g>
   <g id="text_1">
    <g id="patch_2">
     <path d="M 39.933126 46.973354 
L 40.15476 41.830002 
L 38.180966 41.744949 
L 37.959332 46.888301 
z
" style="fill: #ffffff"/>
    </g>
    <!-- T-Bar -->
    <g style="fill: #808080" transform="translate(39.498453 46.934605)rotate(-87.532575)scale(0.02 -0.02)">
     <defs>
      <path id="DejaVuSans-54" d="M -19 4666 
L 3928 4666 
L 3928 4134 
L 2272 4134 
L 2272 0 
L 1638 0 
L 1638 4134 
L -19 4134 
L -19 4666 
z
" transform="scale(0.015625)"/>
      <path id="DejaVuSans-2d" d="M 313 2009 
L 1997 2009 
L 1997 1497 
L 313 1497 
L 313 2009 
z
" transform="scale(0.015625)"/>
      <path id="DejaVuSans-42" d="M 1259 2228 
L 1259 519 
L 2272 519 
Q 2781 519 3026 730 
Q 3272 941 3272 1375 
Q 3272 1813 3026 2020 
Q 2781 2228 2272 2228 
L 1259 2228 
z
M 1259 4147 
L 1259 2741 
L 2194 2741 
Q 2656 2741 2882 2914 
Q 3109 3088 3109 3444 
Q 3109 3797 2882 3972 
Q 2656 4147 2194 4147 
L 1259 4147 
z
M 628 4666 
L 2241 4666 
Q 2963 4666 3353 4366 
Q 3744 4066 3744 3513 
Q 3744 3084 3544 2831 
Q 3344 2578 2956 2516 
Q 3422 2416 3680 2098 
Q 3938 1781 3938 1306 
Q 3938 681 3513 340 
Q 3088 0 2303 0 
L 628 0 
L 628 4666 
z
" transform="scale(0.015625)"/>
      <path id="DejaVuSans-61" d="M 2194 1759 
Q 1497 1759 1228 1600 
Q 959 1441 959 1056 
Q 959 750 1161 570 
Q 1363 391 1709 391 
Q 2188 391 2477 730 
Q 2766 1069 2766 1631 
L 2766 1759 
L 2194 1759 
z
M 3341 1997 
L 3341 0 
L 2766 0 
L 2766 531 
Q 2569 213 2275 61 
Q 1981 -91 1556 -91 
Q 1019 -91 701 211 
Q 384 513 384 1019 
Q 384 1609 779 1909 
Q 1175 2209 1959 2209 
L 2766 2209 
L 2766 2266 
Q 2766 2663 2505 2880 
Q 2244 3097 1772 3097 
Q 1472 3097 1187 3025 
Q 903 2953 641 2809 
L 641 3341 
Q 956 3463 1253 3523 
Q 1550 3584 1831 3584 
Q 2591 3584 2966 3190 
Q 3341 2797 3341 1997 
z
" transform="scale(0.015625)"/>
      <path id="DejaVuSans-72" d="M 2631 2963 
Q 2534 3019 2420 3045 
Q 2306 3072 2169 3072 
Q 1681 3072 1420 2755 
Q 1159 2438 1159 1844 
L 1159 0 
L 581 0 
L 581 3500 
L 1159 3500 
L 1159 2956 
Q 1341 3275 1631 3429 
Q 1922 3584 2338 3584 
Q 2397 3584 2469 3576 
Q 2541 3569 2628 3553 
L 2631 2963 
z
" transform="scale(0.015625)"/>
     </defs>
     <use xlink:href="#DejaVuSans-54"/>
     <use xlink:href="#DejaVuSans-2d" x="51.958984"/>
     <use xlink:href="#DejaVuSans-42" x="84.417969"/>
     <use xlink:href="#DejaVuSans-61" x="153.021484"/>
     <use xlink:href="#DejaVuSans-72" x="214.300781"/>
    </g>
   </g>
   <g id="text_2">
    <g id="patch_3">
     <path d="M 14.954274 69.783564 
L 16.436198 81.717845 
L 18.396766 81.474394 
L 16.914841 69.540113 
z
" style="fill: #ffffff"/>
    </g>
    <!-- Husky Chair -->
    <g style="fill: #808080" transform="translate(15.389353 69.749692)rotate(-277.078399)scale(0.02 -0.02)">
     <defs>
      <path id="DejaVuSans-48" d="M 628 4666 
L 1259 4666 
L 1259 2753 
L 3553 2753 
L 3553 4666 
L 4184 4666 
L 4184 0 
L 3553 0 
L 3553 2222 
L 1259 2222 
L 1259 0 
L 628 0 
L 628 4666 
z
" transform="scale(0.015625)"/>
      <path id="DejaVuSans-75" d="M 544 1381 
L 544 3500 
L 1119 3500 
L 1119 1403 
Q 1119 906 1312 657 
Q 1506 409 1894 409 
Q 2359 409 2629 706 
Q 2900 1003 2900 1516 
L 2900 3500 
L 3475 3500 
L 3475 0 
L 2900 0 
L 2900 538 
Q 2691 219 2414 64 
Q 2138 -91 1772 -91 
Q 1169 -91 856 284 
Q 544 659 544 1381 
z
M 1991 3584 
L 1991 3584 
z
" transform="scale(0.015625)"/>
      <path id="DejaVuSans-73" d="M 2834 3397 
L 2834 2853 
Q 2591 2978 2328 3040 
Q 2066 3103 1784 3103 
Q 1356 3103 1142 2972 
Q 928 2841 928 2578 
Q 928 2378 1081 2264 
Q 1234 2150 1697 2047 
L 1894 2003 
Q 2506 1872 2764 1633 
Q 3022 1394 3022 966 
Q 3022 478 2636 193 
Q 2250 -91 1575 -91 
Q 1294 -91 989 -36 
Q 684 19 347 128 
L 347 722 
Q 666 556 975 473 
Q 1284 391 1588 391 
Q 1994 391 2212 530 
Q 2431 669 2431 922 
Q 2431 1156 2273 1281 
Q 2116 1406 1581 1522 
L 1381 1569 
Q 847 1681 609 1914 
Q 372 2147 372 2553 
Q 372 3047 722 3315 
Q 1072 3584 1716 3584 
Q 2034 3584 2315 3537 
Q 2597 3491 2834 3397 
z
" transform="scale(0.015625)"/>
      <path id="DejaVuSans-6b" d="M 581 4863 
L 1159 4863 
L 1159 1991 
L 2875 3500 
L 3609 3500 
L 1753 1863 
L 3688 0 
L 2938 0 
L 1159 1709 
L 1159 0 
L 581 0 
L 581 4863 
z
" transform="scale(0.015625)"/>
      <path id="DejaVuSans-79" d="M 2059 -325 
Q 1816 -950 1584 -1140 
Q 1353 -1331 966 -1331 
L 506 -1331 
L 506 -850 
L 844 -850 
Q 1081 -850 1212 -737 
Q 1344 -625 1503 -206 
L 1606 56 
L 191 3500 
L 800 3500 
L 1894 763 
L 2988 3500 
L 3597 3500 
L 2059 -325 
z
" transform="scale(0.015625)"/>
      <path id="DejaVuSans-20" transform="scale(0.015625)"/>
      <path id="DejaVuSans-43" d="M 4122 4306 
L 4122 3641 
Q 3803 3938 3442 4084 
Q 3081 4231 2675 4231 
Q 1875 4231 1450 3742 
Q 1025 3253 1025 2328 
Q 1025 1406 1450 917 
Q 1875 428 2675 428 
Q 3081 428 3442 575 
Q 3803 722 4122 1019 
L 4122 359 
Q 3791 134 3420 21 
Q 3050 -91 2638 -91 
Q 1578 -91 968 557 
Q 359 1206 359 2328 
Q 359 3453 968 4101 
Q 1578 4750 2638 4750 
Q 3056 4750 3426 4639 
Q 3797 4528 4122 4306 
z
" transform="scale(0.015625)"/>
      <path id="DejaVuSans-68" d="M 3513 2113 
L 3513 0 
L 2938 0 
L 2938 2094 
Q 2938 2591 2744 2837 
Q 2550 3084 2163 3084 
Q 1697 3084 1428 2787 
Q 1159 2491 1159 1978 
L 1159 0 
L 581 0 
L 581 4863 
L 1159 4863 
L 1159 2956 
Q 1366 3272 1645 3428 
Q 1925 3584 2291 3584 
Q 2894 3584 3203 3211 
Q 3513 2838 3513 2113 
z
" transform="scale(0.015625)"/>
      <path id="DejaVuSans-69" d="M 603 3500 
L 1178 3500 
L 1178 0 
L 603 0 
L 603 3500 
z
M 603 4863 
L 1178 4863 
L 1178 4134 
L 603 4134 
L 603 4863 
z
" transform="scale(0.015625)"/>
     </defs>
     <use xlink:href="#DejaVuSans-48"/>
     <use xlink:href="#DejaVuSans-75" x="75.195312"/>
     <use xlink:href="#DejaVuSans-73" x="138.574219"/>
     <use xlink:href="#DejaVuSans-6b" x="190.673828"/>
     <use xlink:href="#DejaVuSans-79" x="244.958984"/>
     <use xlink:href="#DejaVuSans-20" x="304.138672"/>
     <use xlink:href="#DejaVuSans-43" x="335.925781"/>
     <use xlink:href="#DejaVuSans-68" x="405.75"/>
     <use xlink:href="#DejaVuSans-61" x="469.128906"/>
     <use xlink:href="#DejaVuSans-69" x="530.408203"/>
     <use xlink:href="#DejaVuSans-72" x="558.191406"/>
    </g>
   </g>
   <g id="text_3">
    <g id="patch_4">
     <path d="M 47.41575 86.241748 
L 51.940013 74.057084 
L 50.08794 73.369394 
L 45.563676 85.554059 
z
" style="fill: #ffffff"/>
    </g>
    <!-- Copper Hoist -->
    <g style="fill: #808080" transform="translate(47.014037 86.071255)rotate(-69.629635)scale(0.02 -0.02)">
     <defs>
      <path id="DejaVuSans-6f" d="M 1959 3097 
Q 1497 3097 1228 2736 
Q 959 2375 959 1747 
Q 959 1119 1226 758 
Q 1494 397 1959 397 
Q 2419 397 2687 759 
Q 2956 1122 2956 1747 
Q 2956 2369 2687 2733 
Q 2419 3097 1959 3097 
z
M 1959 3584 
Q 2709 3584 3137 3096 
Q 3566 2609 3566 1747 
Q 3566 888 3137 398 
Q 2709 -91 1959 -91 
Q 1206 -91 779 398 
Q 353 888 353 1747 
Q 353 2609 779 3096 
Q 1206 3584 1959 3584 
z
" transform="scale(0.015625)"/>
      <path id="DejaVuSans-70" d="M 1159 525 
L 1159 -1331 
L 581 -1331 
L 581 3500 
L 1159 3500 
L 1159 2969 
Q 1341 3281 1617 3432 
Q 1894 3584 2278 3584 
Q 2916 3584 3314 3078 
Q 3713 2572 3713 1747 
Q 3713 922 3314 415 
Q 2916 -91 2278 -91 
Q 1894 -91 1617 61 
Q 1341 213 1159 525 
z
M 3116 1747 
Q 3116 2381 2855 2742 
Q 2594 3103 2138 3103 
Q 1681 3103 1420 2742 
Q 1159 2381 1159 1747 
Q 1159 1113 1420 752 
Q 1681 391 2138 391 
Q 2594 391 2855 752 
Q 3116 1113 3116 1747 
z
" transform="scale(0.015625)"/>
      <path id="DejaVuSans-65" d="M 3597 1894 
L 3597 1613 
L 953 1613 
Q 991 1019 1311 708 
Q 1631 397 2203 397 
Q 2534 397 2845 478 
Q 3156 559 3463 722 
L 3463 178 
Q 3153 47 2828 -22 
Q 2503 -91 2169 -91 
Q 1331 -91 842 396 
Q 353 884 353 1716 
Q 353 2575 817 3079 
Q 1281 3584 2069 3584 
Q 2775 3584 3186 3129 
Q 3597 2675 3597 1894 
z
M 3022 2063 
Q 3016 2534 2758 2815 
Q 2500 3097 2075 3097 
Q 1594 3097 1305 2825 
Q 1016 2553 972 2059 
L 3022 2063 
z
" transform="scale(0.015625)"/>
      <path id="DejaVuSans-74" d="M 1172 4494 
L 1172 3500 
L 2356 3500 
L 2356 3053 
L 1172 3053 
L 1172 1153 
Q 1172 725 1289 603 
Q 1406 481 1766 481 
L 2356 481 
L 2356 0 
L 1766 0 
Q 1100 0 847 248 
Q 594 497 594 1153 
L 594 3053 
L 172 3053 
L 172 3500 
L 594 3500 
L 594 4494 
L 1172 4494 
z
" transform="scale(0.015625)"/>
     </defs>
     <use xlink:href="#DejaVuSans-43"/>
     <use xlink:href="#DejaVuSans-6f" x="69.824219"/>
     <use xlink:href="#DejaVuSans-70" x="131.005859"/>
     <use xlink:href="#DejaVuSans-70" x="194.482422"/>
     <use xlink:href="#DejaVuSans-65" x="257.958984"/>
     <use xlink:href="#DejaVuSans-72" x="319.482422"/>
     <use xlink:href="#DejaVuSans-20" x="360.595703"/>
     <use xlink:href="#DejaVuSans-48" x="392.382812"/>
     <use xlink:href="#DejaVuSans-6f" x="467.578125"/>
     <use xlink:href="#DejaVuSans-69" x="528.759766"/>
     <use xlink:href="#DejaVuSans-73" x="556.542969"/>
     <use xlink:href="#DejaVuSans-74" x="608.642578"/>
    </g>
   </g>
   <g id="text_4">
    <g id="patch_5">
     <path d="M 76.88992 27.013158 
L 78.321134 48.50681 
L 80.292393 48.375549 
L 78.861179 26.881897 
z
" style="fill: #ffffff"/>
    </g>
    <!-- Deer Track Trail 23.0° -->
    <g style="fill: #4169e1" transform="translate(77.326223 27.00415)rotate(-273.809573)scale(0.02 -0.02)">
     <defs>
      <path id="DejaVuSans-44" d="M 1259 4147 
L 1259 519 
L 2022 519 
Q 2988 519 3436 956 
Q 3884 1394 3884 2338 
Q 3884 3275 3436 3711 
Q 2988 4147 2022 4147 
L 1259 4147 
z
M 628 4666 
L 1925 4666 
Q 3281 4666 3915 4102 
Q 4550 3538 4550 2338 
Q 4550 1131 3912 565 
Q 3275 0 1925 0 
L 628 0 
L 628 4666 
z
" transform="scale(0.015625)"/>
      <path id="DejaVuSans-63" d="M 3122 3366 
L 3122 2828 
Q 2878 2963 2633 3030 
Q 2388 3097 2138 3097 
Q 1578 3097 1268 2742 
Q 959 2388 959 1747 
Q 959 1106 1268 751 
Q 1578 397 2138 397 
Q 2388 397 2633 464 
Q 2878 531 3122 666 
L 3122 134 
Q 2881 22 2623 -34 
Q 2366 -91 2075 -91 
Q 1284 -91 818 406 
Q 353 903 353 1747 
Q 353 2603 823 3093 
Q 1294 3584 2113 3584 
Q 2378 3584 2631 3529 
Q 2884 3475 3122 3366 
z
" transform="scale(0.015625)"/>
      <path id="DejaVuSans-6c" d="M 603 4863 
L 1178 4863 
L 1178 0 
L 603 0 
L 603 4863 
z
" transform="scale(0.015625)"/>
      <path id="DejaVuSans-32" d="M 1228 531 
L 3431 531 
L 3431 0 
L 469 0 
L 469 531 
Q 828 903 1448 1529 
Q 2069 2156 2228 2338 
Q 2531 2678 2651 2914 
Q 2772 3150 2772 3378 
Q 2772 3750 2511 3984 
Q 2250 4219 1831 4219 
Q 1534 4219 1204 4116 
Q 875 4013 500 3803 
L 500 4441 
Q 881 4594 1212 4672 
Q 1544 4750 1819 4750 
Q 2544 4750 2975 4387 
Q 3406 4025 3406 3419 
Q 3406 3131 3298 2873 
Q 3191 2616 2906 2266 
Q 2828 2175 2409 1742 
Q 1991 1309 1228 531 
z
" transform="scale(0.015625)"/>
      <path id="DejaVuSans-33" d="M 2597 2516 
Q 3050 2419 3304 2112 
Q 3559 1806 3559 1356 
Q 3559 666 3084 287 
Q 2609 -91 1734 -91 
Q 1441 -91 1130 -33 
Q 819 25 488 141 
L 488 750 
Q 750 597 1062 519 
Q 1375 441 1716 441 
Q 2309 441 2620 675 
Q 2931 909 2931 1356 
Q 2931 1769 2642 2001 
Q 2353 2234 1838 2234 
L 1294 2234 
L 1294 2753 
L 1863 2753 
Q 2328 2753 2575 2939 
Q 2822 3125 2822 3475 
Q 2822 3834 2567 4026 
Q 2313 4219 1838 4219 
Q 1578 4219 1281 4162 
Q 984 4106 628 3988 
L 628 4550 
Q 988 4650 1302 4700 
Q 1616 4750 1894 4750 
Q 2613 4750 3031 4423 
Q 3450 4097 3450 3541 
Q 3450 3153 3228 2886 
Q 3006 2619 2597 2516 
z
" transform="scale(0.015625)"/>
      <path id="DejaVuSans-2e" d="M 684 794 
L 1344 794 
L 1344 0 
L 684 0 
L 684 794 
z
" transform="scale(0.015625)"/>
      <path id="DejaVuSans-30" d="M 2034 4250 
Q 1547 4250 1301 3770 
Q 1056 3291 1056 2328 
Q 1056 1369 1301 889 
Q 1547 409 2034 409 
Q 2525 409 2770 889 
Q 3016 1369 3016 2328 
Q 3016 3291 2770 3770 
Q 2525 4250 2034 4250 
z
M 2034 4750 
Q 2819 4750 3233 4129 
Q 3647 3509 3647 2328 
Q 3647 1150 3233 529 
Q 2819 -91 2034 -91 
Q 1250 -91 836 529 
Q 422 1150 422 2328 
Q 422 3509 836 4129 
Q 1250 4750 2034 4750 
z
" transform="scale(0.015625)"/>
      <path id="DejaVuSans-b0" d="M 1600 4347 
Q 1350 4347 1178 4173 
Q 1006 4000 1006 3750 
Q 1006 3503 1178 3333 
Q 1350 3163 1600 3163 
Q 1850 3163 2022 3333 
Q 2194 3503 2194 3750 
Q 2194 3997 2020 4172 
Q 1847 4347 1600 4347 
z
M 1600 4750 
Q 1800 4750 1984 4673 
Q 2169 4597 2303 4453 
Q 2447 4313 2519 4134 
Q 2591 3956 2591 3750 
Q 2591 3338 2302 3052 
Q 2013 2766 1594 2766 
Q 1172 2766 890 3047 
Q 609 3328 609 3750 
Q 609 4169 896 4459 
Q 1184 4750 1600 4750 
z
" transform="scale(0.015625)"/>
     </defs>
     <use xlink:href="#DejaVuSans-44"/>
     <use xlink:href="#DejaVuSans-65" x="77.001953"/>
     <use xlink:href="#DejaVuSans-65" x="138.525391"/>
     <use xlink:href="#DejaVuSans-72" x="200.048828"/>
     <use xlink:href="#DejaVuSans-20" x="241.162109"/>
     <use xlink:href="#DejaVuSans-54" x="272.949219"/>
     <use xlink:href="#DejaVuSans-72" x="319.283203"/>
     <use xlink:href="#DejaVuSans-61" x="360.396484"/>
     <use xlink:href="#DejaVuSans-63" x="421.675781"/>
     <use xlink:href="#DejaVuSans-6b" x="476.65625"/>
     <use xlink:href="#DejaVuSans-20" x="534.566406"/>
     <use xlink:href="#DejaVuSans-54" x="566.353516"/>
     <use xlink:href="#DejaVuSans-72" x="612.6875"/>
     <use xlink:href="#DejaVuSans-61" x="653.800781"/>
     <use xlink:href="#DejaVuSans-69" x="715.080078"/>
     <use xlink:href="#DejaVuSans-6c" x="742.863281"/>
     <use xlink:href="#DejaVuSans-20" x="770.646484"/>
     <use xlink:href="#DejaVuSans-32" x="802.433594"/>
     <use xlink:href="#DejaVuSans-33" x="866.056641"/>
     <use xlink:href="#DejaVuSans-2e" x="929.679688"/>
     <use xlink:href="#DejaVuSans-30" x="961.466797"/>
     <use xlink:href="#DejaVuSans-b0" x="1025.089844"/>
    </g>
   </g>
   <g id="text_5">
    <g id="patch_6">
     <path d="M 72.266666 27.514015 
L 75.88788 45.96706 
L 77.826529 45.58662 
L 74.205315 27.133576 
z
" style="fill: #ffffff"/>
    </g>
    <!-- Powderstash 22.2° -->
    <g style="fill: #4169e1" transform="translate(72.698296 27.449694)rotate(-281.102602)scale(0.02 -0.02)">
     <defs>
      <path id="DejaVuSans-50" d="M 1259 4147 
L 1259 2394 
L 2053 2394 
Q 2494 2394 2734 2622 
Q 2975 2850 2975 3272 
Q 2975 3691 2734 3919 
Q 2494 4147 2053 4147 
L 1259 4147 
z
M 628 4666 
L 2053 4666 
Q 2838 4666 3239 4311 
Q 3641 3956 3641 3272 
Q 3641 2581 3239 2228 
Q 2838 1875 2053 1875 
L 1259 1875 
L 1259 0 
L 628 0 
L 628 4666 
z
" transform="scale(0.015625)"/>
      <path id="DejaVuSans-77" d="M 269 3500 
L 844 3500 
L 1563 769 
L 2278 3500 
L 2956 3500 
L 3675 769 
L 4391 3500 
L 4966 3500 
L 4050 0 
L 3372 0 
L 2619 2869 
L 1863 0 
L 1184 0 
L 269 3500 
z
" transform="scale(0.015625)"/>
      <path id="DejaVuSans-64" d="M 2906 2969 
L 2906 4863 
L 3481 4863 
L 3481 0 
L 2906 0 
L 2906 525 
Q 2725 213 2448 61 
Q 2172 -91 1784 -91 
Q 1150 -91 751 415 
Q 353 922 353 1747 
Q 353 2572 751 3078 
Q 1150 3584 1784 3584 
Q 2172 3584 2448 3432 
Q 2725 3281 2906 2969 
z
M 947 1747 
Q 947 1113 1208 752 
Q 1469 391 1925 391 
Q 2381 391 2643 752 
Q 2906 1113 2906 1747 
Q 2906 2381 2643 2742 
Q 2381 3103 1925 3103 
Q 1469 3103 1208 2742 
Q 947 2381 947 1747 
z
" transform="scale(0.015625)"/>
     </defs>
     <use xlink:href="#DejaVuSans-50"/>
     <use xlink:href="#DejaVuSans-6f" x="56.677734"/>
     <use xlink:href="#DejaVuSans-77" x="117.859375"/>
     <use xlink:href="#DejaVuSans-64" x="199.646484"/>
     <use xlink:href="#DejaVuSans-65" x="263.123047"/>
     <use xlink:href="#DejaVuSans-72" x="324.646484"/>
     <use xlink:href="#DejaVuSans-73" x="365.759766"/>
     <use xlink:href="#DejaVuSans-74" x="417.859375"/>
     <use xlink:href="#DejaVuSans-61" x="457.068359"/>
     <use xlink:href="#DejaVuSans-73" x="518.347656"/>
     <use xlink:href="#DejaVuSans-68" x="570.447266"/>
     <use xlink:href="#DejaVuSans-20" x="633.826172"/>
     <use xlink:href="#DejaVuSans-32" x="665.613281"/>
     <use xlink:href="#DejaVuSans-32" x="729.236328"/>
     <use xlink:href="#DejaVuSans-2e" x="792.859375"/>
     <use xlink:href="#DejaVuSans-32" x="824.646484"/>
     <use xlink:href="#DejaVuSans-b0" x="888.269531"/>
    </g>
   </g>
   <g id="text_6">
    <g id="patch_7">
     <path d="M 71.141752 29.449627 
L 73.721361 54.589501 
L 75.686667 54.387841 
L 73.107057 29.247966 
z
" style="fill: #ffffff"/>
    </g>
    <!-- Powderstash Glade 23.1° -->
    <g style="fill: #ff0000" transform="translate(71.577454 29.425024)rotate(-275.858631)scale(0.02 -0.02)">
     <defs>
      <path id="DejaVuSans-47" d="M 3809 666 
L 3809 1919 
L 2778 1919 
L 2778 2438 
L 4434 2438 
L 4434 434 
Q 4069 175 3628 42 
Q 3188 -91 2688 -91 
Q 1594 -91 976 548 
Q 359 1188 359 2328 
Q 359 3472 976 4111 
Q 1594 4750 2688 4750 
Q 3144 4750 3555 4637 
Q 3966 4525 4313 4306 
L 4313 3634 
Q 3963 3931 3569 4081 
Q 3175 4231 2741 4231 
Q 1884 4231 1454 3753 
Q 1025 3275 1025 2328 
Q 1025 1384 1454 906 
Q 1884 428 2741 428 
Q 3075 428 3337 486 
Q 3600 544 3809 666 
z
" transform="scale(0.015625)"/>
      <path id="DejaVuSans-31" d="M 794 531 
L 1825 531 
L 1825 4091 
L 703 3866 
L 703 4441 
L 1819 4666 
L 2450 4666 
L 2450 531 
L 3481 531 
L 3481 0 
L 794 0 
L 794 531 
z
" transform="scale(0.015625)"/>
     </defs>
     <use xlink:href="#DejaVuSans-50"/>
     <use xlink:href="#DejaVuSans-6f" x="56.677734"/>
     <use xlink:href="#DejaVuSans-77" x="117.859375"/>
     <use xlink:href="#DejaVuSans-64" x="199.646484"/>
     <use xlink:href="#DejaVuSans-65" x="263.123047"/>
     <use xlink:href="#DejaVuSans-72" x="324.646484"/>
     <use xlink:href="#DejaVuSans-73" x="365.759766"/>
     <use xlink:href="#DejaVuSans-74" x="417.859375"/>
     <use xlink:href="#DejaVuSans-61" x="457.068359"/>
     <use xlink:href="#DejaVuSans-73" x="518.347656"/>
     <use xlink:href="#DejaVuSans-68" x="570.447266"/>
     <use xlink:href="#DejaVuSans-20" x="633.826172"/>
     <use xlink:href="#DejaVuSans-47" x="665.613281"/>
     <use xlink:href="#DejaVuSans-6c" x="743.103516"/>
     <use xlink:href="#DejaVuSans-61" x="770.886719"/>
     <use xlink:href="#DejaVuSans-64" x="832.166016"/>
     <use xlink:href="#DejaVuSans-65" x="895.642578"/>
     <use xlink:href="#DejaVuSans-20" x="957.166016"/>
     <use xlink:href="#DejaVuSans-32" x="988.953125"/>
     <use xlink:href="#DejaVuSans-33" x="1052.576172"/>
     <use xlink:href="#DejaVuSans-2e" x="1116.199219"/>
     <use xlink:href="#DejaVuSans-31" x="1147.986328"/>
     <use xlink:href="#DejaVuSans-b0" x="1211.609375"/>
    </g>
   </g>
   <g id="text_7">
    <g id="patch_8">
     <path d="M 65.127274 28.409896 
L 69.700077 41.659556 
L 71.567608 41.015022 
L 66.994805 27.765362 
z
" style="fill: #ffffff"/>
    </g>
    <!-- Lookout 24.7° -->
    <g transform="translate(65.545885 28.28658)rotate(-289.04089)scale(0.02 -0.02)">
     <defs>
      <path id="DejaVuSans-4c" d="M 628 4666 
L 1259 4666 
L 1259 531 
L 3531 531 
L 3531 0 
L 628 0 
L 628 4666 
z
" transform="scale(0.015625)"/>
      <path id="DejaVuSans-34" d="M 2419 4116 
L 825 1625 
L 2419 1625 
L 2419 4116 
z
M 2253 4666 
L 3047 4666 
L 3047 1625 
L 3713 1625 
L 3713 1100 
L 3047 1100 
L 3047 0 
L 2419 0 
L 2419 1100 
L 313 1100 
L 313 1709 
L 2253 4666 
z
" transform="scale(0.015625)"/>
      <path id="DejaVuSans-37" d="M 525 4666 
L 3525 4666 
L 3525 4397 
L 1831 0 
L 1172 0 
L 2766 4134 
L 525 4134 
L 525 4666 
z
" transform="scale(0.015625)"/>
     </defs>
     <use xlink:href="#DejaVuSans-4c"/>
     <use xlink:href="#DejaVuSans-6f" x="53.962891"/>
     <use xlink:href="#DejaVuSans-6f" x="115.144531"/>
     <use xlink:href="#DejaVuSans-6b" x="176.326172"/>
     <use xlink:href="#DejaVuSans-6f" x="230.611328"/>
     <use xlink:href="#DejaVuSans-75" x="291.792969"/>
     <use xlink:href="#DejaVuSans-74" x="355.171875"/>
     <use xlink:href="#DejaVuSans-20" x="394.380859"/>
     <use xlink:href="#DejaVuSans-32" x="426.167969"/>
     <use xlink:href="#DejaVuSans-34" x="489.791016"/>
     <use xlink:href="#DejaVuSans-2e" x="553.414062"/>
     <use xlink:href="#DejaVuSans-37" x="585.201172"/>
     <use xlink:href="#DejaVuSans-b0" x="648.824219"/>
    </g>
   </g>
   <g id="text_8">
    <g id="patch_9">
     <path d="M 54.692397 57.815349 
L 54.896546 40.535617 
L 52.921059 40.512278 
L 52.71691 57.79201 
z
" style="fill: #ffffff"/>
    </g>
    <!-- The Plunge 26.9° -->
    <g transform="translate(54.256727 57.7902)rotate(-89.323119)scale(0.02 -0.02)">
     <defs>
      <path id="DejaVuSans-6e" d="M 3513 2113 
L 3513 0 
L 2938 0 
L 2938 2094 
Q 2938 2591 2744 2837 
Q 2550 3084 2163 3084 
Q 1697 3084 1428 2787 
Q 1159 2491 1159 1978 
L 1159 0 
L 581 0 
L 581 3500 
L 1159 3500 
L 1159 2956 
Q 1366 3272 1645 3428 
Q 1925 3584 2291 3584 
Q 2894 3584 3203 3211 
Q 3513 2838 3513 2113 
z
" transform="scale(0.015625)"/>
      <path id="DejaVuSans-67" d="M 2906 1791 
Q 2906 2416 2648 2759 
Q 2391 3103 1925 3103 
Q 1463 3103 1205 2759 
Q 947 2416 947 1791 
Q 947 1169 1205 825 
Q 1463 481 1925 481 
Q 2391 481 2648 825 
Q 2906 1169 2906 1791 
z
M 3481 434 
Q 3481 -459 3084 -895 
Q 2688 -1331 1869 -1331 
Q 1566 -1331 1297 -1286 
Q 1028 -1241 775 -1147 
L 775 -588 
Q 1028 -725 1275 -790 
Q 1522 -856 1778 -856 
Q 2344 -856 2625 -561 
Q 2906 -266 2906 331 
L 2906 616 
Q 2728 306 2450 153 
Q 2172 0 1784 0 
Q 1141 0 747 490 
Q 353 981 353 1791 
Q 353 2603 747 3093 
Q 1141 3584 1784 3584 
Q 2172 3584 2450 3431 
Q 2728 3278 2906 2969 
L 2906 3500 
L 3481 3500 
L 3481 434 
z
" transform="scale(0.015625)"/>
      <path id="DejaVuSans-36" d="M 2113 2584 
Q 1688 2584 1439 2293 
Q 1191 2003 1191 1497 
Q 1191 994 1439 701 
Q 1688 409 2113 409 
Q 2538 409 2786 701 
Q 3034 994 3034 1497 
Q 3034 2003 2786 2293 
Q 2538 2584 2113 2584 
z
M 3366 4563 
L 3366 3988 
Q 3128 4100 2886 4159 
Q 2644 4219 2406 4219 
Q 1781 4219 1451 3797 
Q 1122 3375 1075 2522 
Q 1259 2794 1537 2939 
Q 1816 3084 2150 3084 
Q 2853 3084 3261 2657 
Q 3669 2231 3669 1497 
Q 3669 778 3244 343 
Q 2819 -91 2113 -91 
Q 1303 -91 875 529 
Q 447 1150 447 2328 
Q 447 3434 972 4092 
Q 1497 4750 2381 4750 
Q 2619 4750 2861 4703 
Q 3103 4656 3366 4563 
z
" transform="scale(0.015625)"/>
      <path id="DejaVuSans-39" d="M 703 97 
L 703 672 
Q 941 559 1184 500 
Q 1428 441 1663 441 
Q 2288 441 2617 861 
Q 2947 1281 2994 2138 
Q 2813 1869 2534 1725 
Q 2256 1581 1919 1581 
Q 1219 1581 811 2004 
Q 403 2428 403 3163 
Q 403 3881 828 4315 
Q 1253 4750 1959 4750 
Q 2769 4750 3195 4129 
Q 3622 3509 3622 2328 
Q 3622 1225 3098 567 
Q 2575 -91 1691 -91 
Q 1453 -91 1209 -44 
Q 966 3 703 97 
z
M 1959 2075 
Q 2384 2075 2632 2365 
Q 2881 2656 2881 3163 
Q 2881 3666 2632 3958 
Q 2384 4250 1959 4250 
Q 1534 4250 1286 3958 
Q 1038 3666 1038 3163 
Q 1038 2656 1286 2365 
Q 1534 2075 1959 2075 
z
" transform="scale(0.015625)"/>
     </defs>
     <use xlink:href="#DejaVuSans-54"/>
     <use xlink:href="#DejaVuSans-68" x="61.083984"/>
     <use xlink:href="#DejaVuSans-65" x="124.462891"/>
     <use xlink:href="#DejaVuSans-20" x="185.986328"/>
     <use xlink:href="#DejaVuSans-50" x="217.773438"/>
     <use xlink:href="#DejaVuSans-6c" x="278.076172"/>
     <use xlink:href="#DejaVuSans-75" x="305.859375"/>
     <use xlink:href="#DejaVuSans-6e" x="369.238281"/>
     <use xlink:href="#DejaVuSans-67" x="432.617188"/>
     <use xlink:href="#DejaVuSans-65" x="496.09375"/>
     <use xlink:href="#DejaVuSans-20" x="557.617188"/>
     <use xlink:href="#DejaVuSans-32" x="589.404297"/>
     <use xlink:href="#DejaVuSans-36" x="653.027344"/>
     <use xlink:href="#DejaVuSans-2e" x="716.650391"/>
     <use xlink:href="#DejaVuSans-39" x="748.4375"/>
     <use xlink:href="#DejaVuSans-b0" x="812.060547"/>
    </g>
   </g>
   <g id="text_9">
    <g id="patch_10">
     <path d="M 48.624998 36.603224 
L 51.193812 49.166413 
L 53.129389 48.770643 
L 50.560575 36.207454 
z
" style="fill: #ffffff"/>
    </g>
    <!-- Bonzal 26.0° -->
    <g transform="translate(49.056105 36.535489)rotate(-281.556061)scale(0.02 -0.02)">
     <defs>
      <path id="DejaVuSans-7a" d="M 353 3500 
L 3084 3500 
L 3084 2975 
L 922 459 
L 3084 459 
L 3084 0 
L 275 0 
L 275 525 
L 2438 3041 
L 353 3041 
L 353 3500 
z
" transform="scale(0.015625)"/>
     </defs>
     <use xlink:href="#DejaVuSans-42"/>
     <use xlink:href="#DejaVuSans-6f" x="68.603516"/>
     <use xlink:href="#DejaVuSans-6e" x="129.785156"/>
     <use xlink:href="#DejaVuSans-7a" x="193.164062"/>
     <use xlink:href="#DejaVuSans-61" x="245.654297"/>
     <use xlink:href="#DejaVuSans-6c" x="306.933594"/>
     <use xlink:href="#DejaVuSans-20" x="334.716797"/>
     <use xlink:href="#DejaVuSans-32" x="366.503906"/>
     <use xlink:href="#DejaVuSans-36" x="430.126953"/>
     <use xlink:href="#DejaVuSans-2e" x="493.75"/>
     <use xlink:href="#DejaVuSans-30" x="525.537109"/>
     <use xlink:href="#DejaVuSans-b0" x="589.160156"/>
    </g>
   </g>
   <g id="text_10">
    <g id="patch_11">
     <path d="M 38.742372 66.242051 
L 41.919091 52.204511 
L 39.992191 51.76845 
L 36.815472 65.80599 
z
" style="fill: #ffffff"/>
    </g>
    <!-- Wipeout 23.8° -->
    <g style="fill: #4169e1" transform="translate(38.3216 66.126324)rotate(-77.248646)scale(0.02 -0.02)">
     <defs>
      <path id="DejaVuSans-57" d="M 213 4666 
L 850 4666 
L 1831 722 
L 2809 4666 
L 3519 4666 
L 4500 722 
L 5478 4666 
L 6119 4666 
L 4947 0 
L 4153 0 
L 3169 4050 
L 2175 0 
L 1381 0 
L 213 4666 
z
" transform="scale(0.015625)"/>
      <path id="DejaVuSans-38" d="M 2034 2216 
Q 1584 2216 1326 1975 
Q 1069 1734 1069 1313 
Q 1069 891 1326 650 
Q 1584 409 2034 409 
Q 2484 409 2743 651 
Q 3003 894 3003 1313 
Q 3003 1734 2745 1975 
Q 2488 2216 2034 2216 
z
M 1403 2484 
Q 997 2584 770 2862 
Q 544 3141 544 3541 
Q 544 4100 942 4425 
Q 1341 4750 2034 4750 
Q 2731 4750 3128 4425 
Q 3525 4100 3525 3541 
Q 3525 3141 3298 2862 
Q 3072 2584 2669 2484 
Q 3125 2378 3379 2068 
Q 3634 1759 3634 1313 
Q 3634 634 3220 271 
Q 2806 -91 2034 -91 
Q 1263 -91 848 271 
Q 434 634 434 1313 
Q 434 1759 690 2068 
Q 947 2378 1403 2484 
z
M 1172 3481 
Q 1172 3119 1398 2916 
Q 1625 2713 2034 2713 
Q 2441 2713 2670 2916 
Q 2900 3119 2900 3481 
Q 2900 3844 2670 4047 
Q 2441 4250 2034 4250 
Q 1625 4250 1398 4047 
Q 1172 3844 1172 3481 
z
" transform="scale(0.015625)"/>
     </defs>
     <use xlink:href="#DejaVuSans-57"/>
     <use xlink:href="#DejaVuSans-69" x="96.626953"/>
     <use xlink:href="#DejaVuSans-70" x="124.410156"/>
     <use xlink:href="#DejaVuSans-65" x="187.886719"/>
     <use xlink:href="#DejaVuSans-6f" x="249.410156"/>
     <use xlink:href="#DejaVuSans-75" x="310.591797"/>
     <use xlink:href="#DejaVuSans-74" x="373.970703"/>
     <use xlink:href="#DejaVuSans-20" x="413.179688"/>
     <use xlink:href="#DejaVuSans-32" x="444.966797"/>
     <use xlink:href="#DejaVuSans-33" x="508.589844"/>
     <use xlink:href="#DejaVuSans-2e" x="572.212891"/>
     <use xlink:href="#DejaVuSans-38" x="604"/>
     <use xlink:href="#DejaVuSans-b0" x="667.623047"/>
    </g>
   </g>
   <g id="text_11">
    <g id="patch_12">
     <path d="M 31.242052 59.719466 
L 37.207853 74.86901 
L 39.046082 74.145126 
L 33.080281 58.995583 
z
" style="fill: #ffffff"/>
    </g>
    <!-- That Road 25.8° -->
    <g transform="translate(31.655 59.578345)rotate(-291.494228)scale(0.02 -0.02)">
     <defs>
      <path id="DejaVuSans-52" d="M 2841 2188 
Q 3044 2119 3236 1894 
Q 3428 1669 3622 1275 
L 4263 0 
L 3584 0 
L 2988 1197 
Q 2756 1666 2539 1819 
Q 2322 1972 1947 1972 
L 1259 1972 
L 1259 0 
L 628 0 
L 628 4666 
L 2053 4666 
Q 2853 4666 3247 4331 
Q 3641 3997 3641 3322 
Q 3641 2881 3436 2590 
Q 3231 2300 2841 2188 
z
M 1259 4147 
L 1259 2491 
L 2053 2491 
Q 2509 2491 2742 2702 
Q 2975 2913 2975 3322 
Q 2975 3731 2742 3939 
Q 2509 4147 2053 4147 
L 1259 4147 
z
" transform="scale(0.015625)"/>
      <path id="DejaVuSans-35" d="M 691 4666 
L 3169 4666 
L 3169 4134 
L 1269 4134 
L 1269 2991 
Q 1406 3038 1543 3061 
Q 1681 3084 1819 3084 
Q 2600 3084 3056 2656 
Q 3513 2228 3513 1497 
Q 3513 744 3044 326 
Q 2575 -91 1722 -91 
Q 1428 -91 1123 -41 
Q 819 9 494 109 
L 494 744 
Q 775 591 1075 516 
Q 1375 441 1709 441 
Q 2250 441 2565 725 
Q 2881 1009 2881 1497 
Q 2881 1984 2565 2268 
Q 2250 2553 1709 2553 
Q 1456 2553 1204 2497 
Q 953 2441 691 2322 
L 691 4666 
z
" transform="scale(0.015625)"/>
     </defs>
     <use xlink:href="#DejaVuSans-54"/>
     <use xlink:href="#DejaVuSans-68" x="61.083984"/>
     <use xlink:href="#DejaVuSans-61" x="124.462891"/>
     <use xlink:href="#DejaVuSans-74" x="185.742188"/>
     <use xlink:href="#DejaVuSans-20" x="224.951172"/>
     <use xlink:href="#DejaVuSans-52" x="256.738281"/>
     <use xlink:href="#DejaVuSans-6f" x="321.720703"/>
     <use xlink:href="#DejaVuSans-61" x="382.902344"/>
     <use xlink:href="#DejaVuSans-64" x="444.181641"/>
     <use xlink:href="#DejaVuSans-20" x="507.658203"/>
     <use xlink:href="#DejaVuSans-32" x="539.445312"/>
     <use xlink:href="#DejaVuSans-35" x="603.068359"/>
     <use xlink:href="#DejaVuSans-2e" x="666.691406"/>
     <use xlink:href="#DejaVuSans-38" x="698.478516"/>
     <use xlink:href="#DejaVuSans-b0" x="762.101562"/>
    </g>
   </g>
   <g id="text_12">
    <g id="patch_13">
     <path d="M 28.067885 43.29284 
L 32.379622 69.073831 
L 34.328183 68.747944 
L 30.016447 42.966953 
z
" style="fill: #ffffff"/>
    </g>
    <!-- Rythym Terrain Park 14.2° -->
    <g style="fill: #008000" transform="translate(28.50115 43.240656)rotate(-279.494549)scale(0.02 -0.02)">
     <defs>
      <path id="DejaVuSans-6d" d="M 3328 2828 
Q 3544 3216 3844 3400 
Q 4144 3584 4550 3584 
Q 5097 3584 5394 3201 
Q 5691 2819 5691 2113 
L 5691 0 
L 5113 0 
L 5113 2094 
Q 5113 2597 4934 2840 
Q 4756 3084 4391 3084 
Q 3944 3084 3684 2787 
Q 3425 2491 3425 1978 
L 3425 0 
L 2847 0 
L 2847 2094 
Q 2847 2600 2669 2842 
Q 2491 3084 2119 3084 
Q 1678 3084 1418 2786 
Q 1159 2488 1159 1978 
L 1159 0 
L 581 0 
L 581 3500 
L 1159 3500 
L 1159 2956 
Q 1356 3278 1631 3431 
Q 1906 3584 2284 3584 
Q 2666 3584 2933 3390 
Q 3200 3197 3328 2828 
z
" transform="scale(0.015625)"/>
     </defs>
     <use xlink:href="#DejaVuSans-52"/>
     <use xlink:href="#DejaVuSans-79" x="63.982422"/>
     <use xlink:href="#DejaVuSans-74" x="123.162109"/>
     <use xlink:href="#DejaVuSans-68" x="162.371094"/>
     <use xlink:href="#DejaVuSans-79" x="225.75"/>
     <use xlink:href="#DejaVuSans-6d" x="284.929688"/>
     <use xlink:href="#DejaVuSans-20" x="382.341797"/>
     <use xlink:href="#DejaVuSans-54" x="414.128906"/>
     <use xlink:href="#DejaVuSans-65" x="458.212891"/>
     <use xlink:href="#DejaVuSans-72" x="519.736328"/>
     <use xlink:href="#DejaVuSans-72" x="559.099609"/>
     <use xlink:href="#DejaVuSans-61" x="600.212891"/>
     <use xlink:href="#DejaVuSans-69" x="661.492188"/>
     <use xlink:href="#DejaVuSans-6e" x="689.275391"/>
     <use xlink:href="#DejaVuSans-20" x="752.654297"/>
     <use xlink:href="#DejaVuSans-50" x="784.441406"/>
     <use xlink:href="#DejaVuSans-61" x="840.244141"/>
     <use xlink:href="#DejaVuSans-72" x="901.523438"/>
     <use xlink:href="#DejaVuSans-6b" x="942.636719"/>
     <use xlink:href="#DejaVuSans-20" x="1000.546875"/>
     <use xlink:href="#DejaVuSans-31" x="1032.333984"/>
     <use xlink:href="#DejaVuSans-34" x="1095.957031"/>
     <use xlink:href="#DejaVuSans-2e" x="1159.580078"/>
     <use xlink:href="#DejaVuSans-32" x="1191.367188"/>
     <use xlink:href="#DejaVuSans-b0" x="1254.990234"/>
    </g>
   </g>
   <g id="text_13">
    <g id="patch_14">
     <path d="M 4.488496 61.363404 
L 5.00822 44.3429 
L 3.033515 44.282602 
L 2.513791 61.303106 
z
" style="fill: #ffffff"/>
    </g>
    <!-- Danny Boy 24.5° -->
    <g transform="translate(4.053372 61.330108)rotate(-88.251007)scale(0.02 -0.02)">
     <use xlink:href="#DejaVuSans-44"/>
     <use xlink:href="#DejaVuSans-61" x="77.001953"/>
     <use xlink:href="#DejaVuSans-6e" x="138.28125"/>
     <use xlink:href="#DejaVuSans-6e" x="201.660156"/>
     <use xlink:href="#DejaVuSans-79" x="265.039062"/>
     <use xlink:href="#DejaVuSans-20" x="324.21875"/>
     <use xlink:href="#DejaVuSans-42" x="356.005859"/>
     <use xlink:href="#DejaVuSans-6f" x="424.609375"/>
     <use xlink:href="#DejaVuSans-79" x="485.791016"/>
     <use xlink:href="#DejaVuSans-20" x="544.970703"/>
     <use xlink:href="#DejaVuSans-32" x="576.757812"/>
     <use xlink:href="#DejaVuSans-34" x="640.380859"/>
     <use xlink:href="#DejaVuSans-2e" x="704.003906"/>
     <use xlink:href="#DejaVuSans-35" x="735.791016"/>
     <use xlink:href="#DejaVuSans-b0" x="799.414062"/>
    </g>
   </g>
   <g id="text_14">
    <g id="patch_15">
     <path d="M 7.601868 35.170492 
L 22.486117 44.627253 
L 23.545582 42.959732 
L 8.661334 33.502971 
z
" style="fill: #ffffff"/>
    </g>
    <!-- Husky Bowl 24.3° -->
    <g transform="translate(7.852529 34.813266)rotate(-327.570018)scale(0.02 -0.02)">
     <use xlink:href="#DejaVuSans-48"/>
     <use xlink:href="#DejaVuSans-75" x="75.195312"/>
     <use xlink:href="#DejaVuSans-73" x="138.574219"/>
     <use xlink:href="#DejaVuSans-6b" x="190.673828"/>
     <use xlink:href="#DejaVuSans-79" x="244.958984"/>
     <use xlink:href="#DejaVuSans-20" x="304.138672"/>
     <use xlink:href="#DejaVuSans-42" x="335.925781"/>
     <use xlink:href="#DejaVuSans-6f" x="404.529297"/>
     <use xlink:href="#DejaVuSans-77" x="465.710938"/>
     <use xlink:href="#DejaVuSans-6c" x="547.498047"/>
     <use xlink:href="#DejaVuSans-20" x="575.28125"/>
     <use xlink:href="#DejaVuSans-32" x="607.068359"/>
     <use xlink:href="#DejaVuSans-34" x="670.691406"/>
     <use xlink:href="#DejaVuSans-2e" x="734.314453"/>
     <use xlink:href="#DejaVuSans-33" x="766.101562"/>
     <use xlink:href="#DejaVuSans-b0" x="829.724609"/>
    </g>
   </g>
   <g id="text_15">
    <g id="patch_16">
     <path d="M 19.113283 28.331625 
L 23.774221 44.086968 
L 25.668686 43.526524 
L 21.007748 27.771182 
z
" style="fill: #ffffff"/>
    </g>
    <!-- The Chute 23.0° -->
    <g style="fill: #4169e1" transform="translate(19.536986 28.227137)rotate(-286.479913)scale(0.02 -0.02)">
     <use xlink:href="#DejaVuSans-54"/>
     <use xlink:href="#DejaVuSans-68" x="61.083984"/>
     <use xlink:href="#DejaVuSans-65" x="124.462891"/>
     <use xlink:href="#DejaVuSans-20" x="185.986328"/>
     <use xlink:href="#DejaVuSans-43" x="217.773438"/>
     <use xlink:href="#DejaVuSans-68" x="287.597656"/>
     <use xlink:href="#DejaVuSans-75" x="350.976562"/>
     <use xlink:href="#DejaVuSans-74" x="414.355469"/>
     <use xlink:href="#DejaVuSans-65" x="453.564453"/>
     <use xlink:href="#DejaVuSans-20" x="515.087891"/>
     <use xlink:href="#DejaVuSans-32" x="546.875"/>
     <use xlink:href="#DejaVuSans-33" x="610.498047"/>
     <use xlink:href="#DejaVuSans-2e" x="674.121094"/>
     <use xlink:href="#DejaVuSans-30" x="705.908203"/>
     <use xlink:href="#DejaVuSans-b0" x="769.53125"/>
    </g>
   </g>
   <g id="text_16">
    <g id="patch_17">
     <path d="M 5.247244 35.373201 
L 17.891226 50.602601 
L 19.411257 49.340618 
L 6.767275 34.111218 
z
" style="fill: #ffffff"/>
    </g>
    <!-- Racer's Ridge 25.5° -->
    <g transform="translate(5.595427 35.110122)rotate(-309.700647)scale(0.02 -0.02)">
     <defs>
      <path id="DejaVuSans-27" d="M 1147 4666 
L 1147 2931 
L 616 2931 
L 616 4666 
L 1147 4666 
z
" transform="scale(0.015625)"/>
     </defs>
     <use xlink:href="#DejaVuSans-52"/>
     <use xlink:href="#DejaVuSans-61" x="67.232422"/>
     <use xlink:href="#DejaVuSans-63" x="128.511719"/>
     <use xlink:href="#DejaVuSans-65" x="183.492188"/>
     <use xlink:href="#DejaVuSans-72" x="245.015625"/>
     <use xlink:href="#DejaVuSans-27" x="286.128906"/>
     <use xlink:href="#DejaVuSans-73" x="313.619141"/>
     <use xlink:href="#DejaVuSans-20" x="365.71875"/>
     <use xlink:href="#DejaVuSans-52" x="397.505859"/>
     <use xlink:href="#DejaVuSans-69" x="466.988281"/>
     <use xlink:href="#DejaVuSans-64" x="494.771484"/>
     <use xlink:href="#DejaVuSans-67" x="558.248047"/>
     <use xlink:href="#DejaVuSans-65" x="621.724609"/>
     <use xlink:href="#DejaVuSans-20" x="683.248047"/>
     <use xlink:href="#DejaVuSans-32" x="715.035156"/>
     <use xlink:href="#DejaVuSans-35" x="778.658203"/>
     <use xlink:href="#DejaVuSans-2e" x="842.28125"/>
     <use xlink:href="#DejaVuSans-35" x="874.068359"/>
     <use xlink:href="#DejaVuSans-b0" x="937.691406"/>
    </g>
   </g>
   <g id="text_17">
    <g id="patch_18">
     <path d="M 9.442969 43.708292 
L 13.727812 68.498842 
L 15.674572 68.16236 
L 11.389729 43.37181 
z
" style="fill: #ffffff"/>
    </g>
    <!-- The Ripley Triangle 26.0° -->
    <g transform="translate(9.875944 43.653752)rotate(-279.80622)scale(0.02 -0.02)">
     <use xlink:href="#DejaVuSans-54"/>
     <use xlink:href="#DejaVuSans-68" x="61.083984"/>
     <use xlink:href="#DejaVuSans-65" x="124.462891"/>
     <use xlink:href="#DejaVuSans-20" x="185.986328"/>
     <use xlink:href="#DejaVuSans-52" x="217.773438"/>
     <use xlink:href="#DejaVuSans-69" x="287.255859"/>
     <use xlink:href="#DejaVuSans-70" x="315.039062"/>
     <use xlink:href="#DejaVuSans-6c" x="378.515625"/>
     <use xlink:href="#DejaVuSans-65" x="406.298828"/>
     <use xlink:href="#DejaVuSans-79" x="467.822266"/>
     <use xlink:href="#DejaVuSans-20" x="527.001953"/>
     <use xlink:href="#DejaVuSans-54" x="558.789062"/>
     <use xlink:href="#DejaVuSans-72" x="605.123047"/>
     <use xlink:href="#DejaVuSans-69" x="646.236328"/>
     <use xlink:href="#DejaVuSans-61" x="674.019531"/>
     <use xlink:href="#DejaVuSans-6e" x="735.298828"/>
     <use xlink:href="#DejaVuSans-67" x="798.677734"/>
     <use xlink:href="#DejaVuSans-6c" x="862.154297"/>
     <use xlink:href="#DejaVuSans-65" x="889.9375"/>
     <use xlink:href="#DejaVuSans-20" x="951.460938"/>
     <use xlink:href="#DejaVuSans-32" x="983.248047"/>
     <use xlink:href="#DejaVuSans-36" x="1046.871094"/>
     <use xlink:href="#DejaVuSans-2e" x="1110.494141"/>
     <use xlink:href="#DejaVuSans-30" x="1142.28125"/>
     <use xlink:href="#DejaVuSans-b0" x="1205.904297"/>
    </g>
   </g>
   <g id="text_18">
    <!-- Mont Ripley -->
    <g transform="translate(26.594108 5.250299)scale(0.05 -0.05)">
     <defs>
      <path id="DejaVuSans-4d" d="M 628 4666 
L 1569 4666 
L 2759 1491 
L 3956 4666 
L 4897 4666 
L 4897 0 
L 4281 0 
L 4281 4097 
L 3078 897 
L 2444 897 
L 1241 4097 
L 1241 0 
L 628 0 
L 628 4666 
z
" transform="scale(0.015625)"/>
     </defs>
     <use xlink:href="#DejaVuSans-4d"/>
     <use xlink:href="#DejaVuSans-6f" x="86.279297"/>
     <use xlink:href="#DejaVuSans-6e" x="147.460938"/>
     <use xlink:href="#DejaVuSans-74" x="210.839844"/>
     <use xlink:href="#DejaVuSans-20" x="250.048828"/>
     <use xlink:href="#DejaVuSans-52" x="281.835938"/>
     <use xlink:href="#DejaVuSans-69" x="351.318359"/>
     <use xlink:href="#DejaVuSans-70" x="379.101562"/>
     <use xlink:href="#DejaVuSans-6c" x="442.578125"/>
     <use xlink:href="#DejaVuSans-65" x="470.361328"/>
     <use xlink:href="#DejaVuSans-79" x="531.884766"/>
    </g>
   </g>
  </g>
  <g id="text_19">
   <!-- Sources: USGS and OpenStreetMaps -->
   <g transform="translate(21.540729 100.951195)scale(0.021739 -0.021739)">
    <defs>
     <path id="DejaVuSans-53" d="M 3425 4513 
L 3425 3897 
Q 3066 4069 2747 4153 
Q 2428 4238 2131 4238 
Q 1616 4238 1336 4038 
Q 1056 3838 1056 3469 
Q 1056 3159 1242 3001 
Q 1428 2844 1947 2747 
L 2328 2669 
Q 3034 2534 3370 2195 
Q 3706 1856 3706 1288 
Q 3706 609 3251 259 
Q 2797 -91 1919 -91 
Q 1588 -91 1214 -16 
Q 841 59 441 206 
L 441 856 
Q 825 641 1194 531 
Q 1563 422 1919 422 
Q 2459 422 2753 634 
Q 3047 847 3047 1241 
Q 3047 1584 2836 1778 
Q 2625 1972 2144 2069 
L 1759 2144 
Q 1053 2284 737 2584 
Q 422 2884 422 3419 
Q 422 4038 858 4394 
Q 1294 4750 2059 4750 
Q 2388 4750 2728 4690 
Q 3069 4631 3425 4513 
z
" transform="scale(0.015625)"/>
     <path id="DejaVuSans-3a" d="M 750 794 
L 1409 794 
L 1409 0 
L 750 0 
L 750 794 
z
M 750 3309 
L 1409 3309 
L 1409 2516 
L 750 2516 
L 750 3309 
z
" transform="scale(0.015625)"/>
     <path id="DejaVuSans-55" d="M 556 4666 
L 1191 4666 
L 1191 1831 
Q 1191 1081 1462 751 
Q 1734 422 2344 422 
Q 2950 422 3222 751 
Q 3494 1081 3494 1831 
L 3494 4666 
L 4128 4666 
L 4128 1753 
Q 4128 841 3676 375 
Q 3225 -91 2344 -91 
Q 1459 -91 1007 375 
Q 556 841 556 1753 
L 556 4666 
z
" transform="scale(0.015625)"/>
     <path id="DejaVuSans-4f" d="M 2522 4238 
Q 1834 4238 1429 3725 
Q 1025 3213 1025 2328 
Q 1025 1447 1429 934 
Q 1834 422 2522 422 
Q 3209 422 3611 934 
Q 4013 1447 4013 2328 
Q 4013 3213 3611 3725 
Q 3209 4238 2522 4238 
z
M 2522 4750 
Q 3503 4750 4090 4092 
Q 4678 3434 4678 2328 
Q 4678 1225 4090 567 
Q 3503 -91 2522 -91 
Q 1538 -91 948 565 
Q 359 1222 359 2328 
Q 359 3434 948 4092 
Q 1538 4750 2522 4750 
z
" transform="scale(0.015625)"/>
    </defs>
    <use xlink:href="#DejaVuSans-53"/>
    <use xlink:href="#DejaVuSans-6f" x="63.476562"/>
    <use xlink:href="#DejaVuSans-75" x="124.658203"/>
    <use xlink:href="#DejaVuSans-72" x="188.037109"/>
    <use xlink:href="#DejaVuSans-63" x="226.900391"/>
    <use xlink:href="#DejaVuSans-65" x="281.880859"/>
    <use xlink:href="#DejaVuSans-73" x="343.404297"/>
    <use xlink:href="#DejaVuSans-3a" x="395.503906"/>
    <use xlink:href="#DejaVuSans-20" x="429.195312"/>
    <use xlink:href="#DejaVuSans-55" x="460.982422"/>
    <use xlink:href="#DejaVuSans-53" x="534.175781"/>
    <use xlink:href="#DejaVuSans-47" x="597.652344"/>
    <use xlink:href="#DejaVuSans-53" x="675.142578"/>
    <use xlink:href="#DejaVuSans-20" x="738.619141"/>
    <use xlink:href="#DejaVuSans-61" x="770.40625"/>
    <use xlink:href="#DejaVuSans-6e" x="831.685547"/>
    <use xlink:href="#DejaVuSans-64" x="895.064453"/>
    <use xlink:href="#DejaVuSans-20" x="958.541016"/>
    <use xlink:href="#DejaVuSans-4f" x="990.328125"/>
    <use xlink:href="#DejaVuSans-70" x="1069.039062"/>
    <use xlink:href="#DejaVuSans-65" x="1132.515625"/>
    <use xlink:href="#DejaVuSans-6e" x="1194.039062"/>
    <use xlink:href="#DejaVuSans-53" x="1257.417969"/>
    <use xlink:href="#DejaVuSans-74" x="1320.894531"/>
    <use xlink:href="#DejaVuSans-72" x="1360.103516"/>
    <use xlink:href="#DejaVuSans-65" x="1398.966797"/>
    <use xlink:href="#DejaVuSans-65" x="1460.490234"/>
    <use xlink:href="#DejaVuSans-74" x="1522.013672"/>
    <use xlink:href="#DejaVuSans-4d" x="1561.222656"/>
    <use xlink:href="#DejaVuSans-61" x="1647.501953"/>
    <use xlink:href="#DejaVuSans-70" x="1708.78125"/>
    <use xlink:href="#DejaVuSans-73" x="1772.257812"/>
   </g>
  </g>
 </g>
 <defs>
  <clipPath id="p81c045ba88">
   <rect x="0" y="7.750299" width="82.742123" height="85.902702"/>
  </clipPath>
 </defs>
</svg>
