<?xml version="1.0" encoding="utf-8" standalone="no"?>
<!DOCTYPE svg PUBLIC "-//W3C//DTD SVG 1.1//EN"
  "http://www.w3.org/Graphics/SVG/1.1/DTD/svg11.dtd">
<svg xmlns:xlink="http://www.w3.org/1999/xlink" width="60.986854pt" height="108.269439pt" viewBox="0 0 60.986854 108.269439" xmlns="http://www.w3.org/2000/svg" version="1.1">
 <metadata>
  <rdf:RDF xmlns:dc="http://purl.org/dc/elements/1.1/" xmlns:cc="http://creativecommons.org/ns#" xmlns:rdf="http://www.w3.org/1999/02/22-rdf-syntax-ns#">
   <cc:Work>
    <dc:type rdf:resource="http://purl.org/dc/dcmitype/StillImage"/>
    <dc:date>2022-05-17T17:40:26.395321</dc:date>
    <dc:format>image/svg+xml</dc:format>
    <dc:creator>
     <cc:Agent>
      <dc:title>Matplotlib v3.5.2, https://matplotlib.org/</dc:title>
     </cc:Agent>
    </dc:creator>
   </cc:Work>
  </rdf:RDF>
 </metadata>
 <defs>
  <style type="text/css">*{stroke-linejoin: round; stroke-linecap: butt}</style>
 </defs>
 <g id="figure_1">
  <g id="patch_1">
   <path d="M 0 108.269439 
L 60.986854 108.269439 
L 60.986854 0 
L 0 0 
L 0 108.269439 
z
" style="fill: none"/>
  </g>
  <g id="axes_1">
   <g id="line2d_1">
    <path d="M 52.230569 21.577325 
L 49.410986 19.257462 
" clip-path="url(#p69bb0f6830)" style="fill: none; stroke: #808080; stroke-width: 0.4; stroke-linecap: square"/>
   </g>
   <g id="line2d_2">
    <path d="M 52.060259 21.708439 
L 48.087804 18.415269 
L 44.11535 15.122098 
" clip-path="url(#p69bb0f6830)" style="fill: none; stroke: #808080; stroke-width: 0.4; stroke-linecap: square"/>
   </g>
   <g id="line2d_3">
    <path d="M 49.640977 30.351358 
L 45.841745 28.014577 
L 42.21355 25.781946 
L 38.585356 23.549315 
L 34.218422 20.862545 
L 29.851488 18.175775 
L 27.001336 16.422131 
L 24.151183 14.668488 
" clip-path="url(#p69bb0f6830)" style="fill: none; stroke: #808080; stroke-width: 0.4; stroke-linecap: square"/>
   </g>
   <g id="line2d_4">
    <path d="M 58.128842 45.978189 
L 53.422742 43.267099 
L 49.341115 40.916043 
L 45.259487 38.564987 
L 40.880908 36.042638 
L 36.502328 33.520288 
L 32.20381 31.043934 
L 28.550141 28.939245 
L 24.896473 26.834555 
" clip-path="url(#p69bb0f6830)" style="fill: none; stroke: #808080; stroke-width: 0.4; stroke-linecap: square"/>
   </g>
   <g id="line2d_5">
    <path d="M 48.932078 60.871206 
L 45.924716 57.079487 
L 43.480689 53.996204 
L 40.789202 50.60417 
L 38.212711 47.354881 
L 35.63622 44.105591 
L 32.505128 40.15844 
L 29.47302 36.333942 
L 27.775739 34.193831 
L 26.529707 32.622583 
L 25.248739 31.007984 
" clip-path="url(#p69bb0f6830)" style="fill: none; stroke: #808080; stroke-width: 0.4; stroke-linecap: square"/>
   </g>
   <g id="line2d_6">
    <path d="M 39.359759 78.571533 
L 37.534381 73.739497 
L 35.709002 68.907461 
L 33.883624 64.075425 
L 32.058245 59.243389 
L 30.232867 54.411353 
L 28.407488 49.579317 
L 26.58211 44.747281 
L 24.756731 39.915245 
" clip-path="url(#p69bb0f6830)" style="fill: none; stroke: #808080; stroke-width: 0.4; stroke-linecap: square"/>
   </g>
   <g id="line2d_7">
    <path d="M 25.142477 94.038701 
L 25.069695 91.38471 
L 25.014381 89.415892 
L 24.873183 84.273915 
L 24.759643 80.148068 
L 24.599522 74.349466 
L 24.448135 68.873361 
L 24.349151 65.283071 
L 24.250167 61.69278 
L 24.092957 55.94599 
L 23.945937 50.630605 
L 23.793095 45.065681 
L 23.667181 40.51953 
L 23.541268 35.97338 
L 23.446651 32.524248 
" clip-path="url(#p69bb0f6830)" style="fill: none; stroke: #808080; stroke-width: 0.4; stroke-linecap: square"/>
   </g>
   <g id="line2d_8">
    <path d="M 16.536706 94.640343 
L 16.709928 91.692403 
L 16.951565 87.553868 
L 17.159722 83.985254 
L 17.477052 78.582107 
L 17.73179 74.213066 
L 18.066588 68.500111 
L 18.360629 63.473387 
L 18.574608 59.814368 
L 18.788588 56.155348 
L 19.073895 51.291459 
L 19.354834 46.504758 
L 19.667798 41.138619 
L 20.012785 35.243797 
L 20.187463 32.266251 
" clip-path="url(#p69bb0f6830)" style="fill: none; stroke: #808080; stroke-width: 0.4; stroke-linecap: square"/>
   </g>
   <g id="line2d_9">
    <path d="M 33.917103 73.427442 
L 31.970179 70.310323 
L 30.023254 67.193205 
L 28.076329 64.076086 
L 26.129404 60.958968 
" clip-path="url(#p69bb0f6830)" style="fill: none; stroke: #808080; stroke-width: 0.4; stroke-linecap: square"/>
   </g>
   <g id="line2d_10">
    <path d="M 51.016562 25.576288 
L 46.997163 23.028562 
L 42.977764 20.480835 
L 38.958365 17.933109 
L 34.938966 15.385383 
" clip-path="url(#p69bb0f6830)" style="fill: none; stroke: #808080; stroke-width: 0.4; stroke-linecap: square"/>
   </g>
   <g id="line2d_11">
    <path d="M 34.765744 15.624348 
L 38.793877 18.180797 
L 42.82201 20.737247 
L 46.850143 23.293697 
L 50.878275 25.850146 
" clip-path="url(#p69bb0f6830)" style="fill: none; stroke: #808080; stroke-width: 0.4; stroke-linecap: square"/>
   </g>
   <g id="line2d_12">
    <path d="M 5.45925 91.916565 
L 5.120085 88.651944 
L 4.780919 85.387323 
L 4.336948 79.580262 
L 3.894432 73.825012 
L 3.333281 67.733519 
L 2.77213 61.642027 
" clip-path="url(#p69bb0f6830)" style="fill: none; stroke: #808080; stroke-width: 0.4; stroke-linecap: square"/>
   </g>
   <g id="line2d_13">
    <path d="M 45.19835 14.625136 
L 46.284079 15.494027 
L 47.369808 16.362919 
L 48.455537 17.23181 
L 49.541266 18.100702 
L 50.626995 18.969593 
L 51.712724 19.838485 
L 52.798453 20.707376 
L 53.884182 21.576268 
" clip-path="url(#p69bb0f6830)" style="fill: none; stroke: #008000; stroke-width: 0.4; stroke-linecap: square"/>
   </g>
   <g id="line2d_14">
    <path d="M 31.612818 16.616158 
L 32.82628 17.333912 
L 34.039742 18.051666 
L 35.253203 18.76942 
L 36.466665 19.487175 
L 37.680127 20.204929 
L 38.893589 20.922683 
L 40.107051 21.640437 
L 41.320512 22.358191 
L 42.533974 23.075945 
L 43.747436 23.793699 
L 44.960898 24.511453 
L 46.17436 25.229207 
L 47.387821 25.946961 
L 48.601283 26.664715 
L 49.814745 27.38247 
L 51.028207 28.100224 
" clip-path="url(#p69bb0f6830)" style="fill: none; stroke: #008000; stroke-width: 0.4; stroke-linecap: square"/>
   </g>
   <g id="line2d_15">
    <path d="M 35.787607 12.829726 
L 36.819568 13.549661 
L 37.851529 14.269596 
L 38.88349 14.989531 
L 39.915451 15.709466 
L 40.947412 16.429401 
L 41.979374 17.149336 
L 43.011335 17.869271 
L 44.043296 18.589205 
L 45.075257 19.30914 
L 46.107218 20.029075 
L 47.139179 20.74901 
L 48.17114 21.468945 
L 49.203101 22.18888 
L 50.235062 22.908815 
L 51.267023 23.62875 
L 52.298985 24.348685 
" clip-path="url(#p69bb0f6830)" style="fill: none; stroke: #008000; stroke-width: 0.4; stroke-linecap: square"/>
   </g>
   <g id="line2d_16">
    <path d="M 21.956071 28.302181 
L 21.545579 26.594268 
L 21.135087 24.886356 
L 20.724596 23.178444 
L 20.314104 21.470531 
L 20.006235 19.576786 
L 19.698366 17.683042 
L 19.93782 16.668498 
L 20.177273 15.653954 
L 20.895634 14.909568 
L 21.613995 14.165181 
L 22.981573 13.28598 
L 24.349151 12.406779 
L 26.161429 12.169929 
L 27.973706 11.933079 
L 29.273233 11.933079 
L 30.57276 11.933079 
L 31.872287 11.933079 
L 33.171813 11.933079 
L 34.47971 12.381402 
L 35.787607 12.829726 
" clip-path="url(#p69bb0f6830)" style="fill: none; stroke: #008000; stroke-width: 0.4; stroke-linecap: square"/>
   </g>
   <g id="line2d_17">
    <path d="M 22.77851 16.289432 
L 23.727227 16.862657 
L 24.675943 17.435882 
L 25.62466 18.009107 
L 26.573376 18.582333 
L 27.522092 19.155558 
L 28.470809 19.728783 
L 29.419525 20.302008 
L 30.368242 20.875233 
L 31.316958 21.448459 
L 32.265675 22.021684 
L 33.214391 22.594909 
L 34.163107 23.168134 
L 35.111824 23.741359 
L 36.06054 24.314585 
L 37.009257 24.88781 
L 37.957973 25.461035 
L 39.411252 26.348827 
L 40.864532 27.236619 
L 42.317811 28.124411 
L 43.77109 29.012203 
L 45.224369 29.899995 
L 46.677649 30.787787 
L 48.130928 31.675579 
L 49.584207 32.563371 
" clip-path="url(#p69bb0f6830)" style="fill: none; stroke: #008000; stroke-width: 0.4; stroke-linecap: square"/>
   </g>
   <g id="line2d_18">
    <path d="M 29.622952 29.174509 
L 29.622952 29.174509 
L 30.913381 28.200674 
L 32.20381 27.226838 
L 33.494239 26.253003 
L 34.784668 25.279168 
L 35.660238 25.980202 
L 36.535808 26.681237 
L 37.411379 27.382271 
L 38.286949 28.083306 
L 39.162519 28.78434 
L 40.038089 29.485375 
L 40.91366 30.186409 
L 41.78923 30.887444 
L 42.498129 31.774046 
L 43.207028 32.660649 
L 43.915927 33.547251 
L 44.624826 34.433853 
L 45.003657 35.467694 
L 45.382489 36.501535 
L 45.76132 37.535376 
L 46.140152 38.569217 
" clip-path="url(#p69bb0f6830)" style="fill: none; stroke: #ff0000; stroke-width: 0.4; stroke-linecap: square"/>
   </g>
   <g id="line2d_19">
    <path d="M 24.196308 28.000831 
L 25.149937 28.635384 
L 26.103567 29.269936 
L 27.057196 29.904489 
L 28.010825 30.539041 
L 28.964454 31.173594 
L 29.918084 31.808146 
L 30.871713 32.442699 
L 31.825342 33.077251 
L 32.778971 33.711804 
L 33.7326 34.346356 
L 34.68623 34.980909 
L 35.639859 35.615461 
L 36.593488 36.250014 
L 37.547117 36.884566 
L 38.500747 37.519119 
L 39.454376 38.153671 
L 40.652917 38.854706 
L 41.851459 39.55574 
L 43.05 40.256775 
L 44.248542 40.957809 
L 45.447083 41.658844 
L 46.645625 42.359878 
L 47.844166 43.060913 
L 49.042707 43.761947 
L 50.18921 44.276224 
L 51.335712 44.790501 
L 52.482214 45.304778 
L 53.628716 45.819055 
L 54.775218 46.333332 
L 55.92172 46.847609 
L 57.068222 47.361886 
L 58.214725 47.876163 
" clip-path="url(#p69bb0f6830)" style="fill: none; stroke: #4169e1; stroke-width: 0.4; stroke-linecap: square"/>
   </g>
   <g id="line2d_20">
    <path d="M 26.19782 29.897748 
L 26.906537 30.696655 
L 27.615254 31.495562 
L 28.323971 32.294469 
L 29.032688 33.093376 
L 29.741405 33.892283 
L 30.450122 34.69119 
L 31.158839 35.490097 
L 31.867556 36.289004 
L 32.576273 37.087911 
L 33.28499 37.886818 
L 33.993707 38.685725 
L 34.702424 39.484632 
L 35.411141 40.283539 
L 36.119858 41.082446 
L 36.828575 41.881353 
L 37.537292 42.68026 
" clip-path="url(#p69bb0f6830)" style="fill: none; stroke: #008000; stroke-width: 0.4; stroke-linecap: square"/>
   </g>
   <g id="line2d_21">
    <path d="M 37.537292 42.68026 
L 38.454348 43.691764 
L 39.371404 44.703268 
L 40.28846 45.714772 
L 41.205516 46.726276 
L 42.122573 47.73778 
L 43.039629 48.749284 
L 43.956685 49.760788 
L 44.873741 50.772292 
" clip-path="url(#p69bb0f6830)" style="fill: none; stroke: #008000; stroke-width: 0.4; stroke-linecap: square"/>
   </g>
   <g id="line2d_22">
    <path d="M 44.873741 50.772292 
L 45.603383 51.906318 
L 46.333025 53.040344 
L 47.062667 54.174371 
L 47.792309 55.308397 
L 48.521951 56.442423 
L 49.251592 57.57645 
L 49.981234 58.710476 
L 50.710876 59.844503 
" clip-path="url(#p69bb0f6830)" style="fill: none; stroke: #008000; stroke-width: 0.4; stroke-linecap: square"/>
   </g>
   <g id="line2d_23">
    <path d="M 24.27928 30.979435 
L 25.134107 32.360621 
L 25.988935 33.741807 
L 26.843762 35.122992 
L 27.698589 36.504178 
L 28.480271 37.669133 
L 29.261952 38.834087 
L 30.043633 39.999041 
L 30.825314 41.163996 
L 31.606995 42.32895 
L 32.388677 43.493904 
L 33.170358 44.658859 
L 33.952039 45.823813 
L 34.723167 46.854746 
L 35.494294 47.885679 
L 36.265422 48.916612 
L 37.03655 49.947545 
L 37.807678 50.978478 
L 38.578806 52.009411 
L 39.349933 53.040344 
L 40.121061 54.071277 
L 41.247002 55.535202 
L 42.372943 56.999127 
L 43.498885 58.463052 
L 44.624826 59.926977 
L 45.500032 60.730841 
L 46.375239 61.534704 
L 47.250445 62.338567 
L 48.125651 63.142431 
" clip-path="url(#p69bb0f6830)" style="fill: none; stroke: #008000; stroke-width: 0.4; stroke-linecap: square"/>
   </g>
   <g id="line2d_24">
    <path d="M 26.152695 40.117202 
L 26.70584 40.925295 
L 27.258985 41.733388 
L 27.81213 42.541481 
L 28.365275 43.349574 
L 29.115659 44.957829 
L 29.866044 46.566085 
L 30.616429 48.17434 
L 31.366814 49.782596 
L 32.179792 51.514564 
L 32.992769 53.246531 
L 33.805747 54.978499 
L 34.618724 56.710466 
L 35.014842 57.875288 
L 35.410959 59.04011 
L 35.807076 60.204933 
L 36.203193 61.369755 
L 36.599311 62.534577 
L 36.995428 63.699399 
L 37.391545 64.864221 
L 37.787663 66.029043 
L 38.141748 67.431112 
L 38.495834 68.833181 
L 38.849919 70.23525 
L 39.204005 71.637319 
L 39.537712 73.121863 
L 39.871418 74.606406 
L 40.205125 76.09095 
L 40.538831 77.575494 
" clip-path="url(#p69bb0f6830)" style="fill: none; stroke: #4169e1; stroke-width: 0.4; stroke-linecap: square"/>
   </g>
   <g id="line2d_25">
    <path d="M 24.325861 42.569237 
L 24.59097 43.749259 
L 24.856079 44.92928 
L 25.121188 46.109302 
L 25.386298 47.289324 
L 25.651407 48.469346 
L 25.916516 49.649368 
L 26.181626 50.82939 
L 26.446735 52.009411 
L 27.155634 53.782616 
L 27.864533 55.555821 
L 28.573432 57.329026 
L 29.282331 59.102231 
L 29.866044 60.627747 
L 30.449758 62.153264 
L 31.033471 63.67878 
L 31.617185 65.204297 
L 32.284234 66.668222 
L 32.951283 68.132147 
L 33.618332 69.596072 
L 34.285382 71.059997 
L 34.796131 72.111548 
L 35.30688 73.1631 
L 35.81763 74.214652 
L 36.328379 75.266204 
L 36.839128 76.317755 
L 37.349878 77.369307 
L 37.860627 78.420859 
L 38.371376 79.47241 
" clip-path="url(#p69bb0f6830)" style="fill: none; stroke: #008000; stroke-width: 0.4; stroke-linecap: square"/>
   </g>
   <g id="line2d_26">
    <path d="M 25.363735 62.895007 
L 25.988935 64.647593 
L 26.614134 66.400179 
L 27.239333 68.152766 
L 27.864533 69.905352 
L 28.614918 70.998141 
L 29.365303 72.09093 
L 30.115687 73.183719 
L 30.866072 74.276508 
L 32.533513 75.101254 
L 34.200954 75.926001 
" clip-path="url(#p69bb0f6830)" style="fill: none; stroke: #008000; stroke-width: 0.4; stroke-linecap: square"/>
   </g>
   <g id="line2d_27">
    <path d="M 22.027398 31.638174 
L 22.006564 32.751582 
L 21.98573 33.86499 
L 21.964896 34.978397 
L 21.944062 36.091805 
L 21.923228 37.205213 
L 21.902394 38.318621 
L 21.88156 39.432028 
L 21.860726 40.545436 
L 21.839892 41.658844 
L 21.819059 42.772251 
L 21.798225 43.885659 
L 21.777391 44.999067 
L 21.756557 46.112474 
L 21.735723 47.225882 
L 21.714889 48.33929 
L 21.694055 49.452697 
L 21.694055 51.38041 
L 21.694055 53.308123 
L 21.694055 55.235835 
L 21.694055 57.163548 
L 21.694055 59.091261 
L 21.694055 61.018973 
L 21.694055 62.946686 
L 21.694055 64.874398 
L 21.657573 66.786713 
L 21.621091 68.699028 
L 21.584609 70.611343 
L 21.548127 72.523657 
L 21.511645 74.435972 
L 21.475162 76.348287 
L 21.43868 78.260601 
L 21.402198 80.172916 
L 21.365716 82.085231 
L 21.329234 83.997546 
L 21.292752 85.90986 
L 21.25627 87.822175 
L 21.219788 89.73449 
L 21.183306 91.646804 
L 21.146824 93.559119 
L 21.110342 95.471434 
" clip-path="url(#p69bb0f6830)" style="fill: none; stroke: #008000; stroke-width: 0.4; stroke-linecap: square"/>
   </g>
   <g id="line2d_28">
    <path d="M 20.526628 42.862128 
L 18.984372 43.480687 
L 17.442117 44.099247 
L 16.233204 44.841519 
L 15.024291 45.583791 
L 14.440578 46.532249 
L 13.856864 47.480708 
L 13.710936 48.470403 
L 13.565007 49.460099 
L 13.419079 50.449795 
L 13.273151 51.43949 
L 13.439822 52.67661 
L 13.606493 53.91373 
L 13.773164 55.150849 
L 13.939836 56.387969 
L 14.1691 57.91375 
L 14.398364 59.439531 
L 14.627628 60.965312 
L 14.856892 62.491093 
L 14.898742 64.078465 
L 14.940591 65.665838 
L 14.982441 67.25321 
L 15.024291 68.840583 
L 15.003548 70.201415 
L 14.982805 71.562246 
L 14.962062 72.923078 
L 14.941319 74.283909 
L 15.233176 75.417936 
L 15.525033 76.551962 
L 15.81689 77.685988 
L 16.108746 78.820015 
L 16.817281 80.139609 
L 17.525816 81.459203 
L 18.234352 82.778798 
L 18.942887 84.098392 
" clip-path="url(#p69bb0f6830)" style="fill: none; stroke: #008000; stroke-width: 0.4; stroke-linecap: square"/>
   </g>
   <g id="line2d_29">
    <path d="M 6.101189 61.436898 
L 6.299521 63.100004 
L 6.497852 64.763111 
L 6.696184 66.426217 
L 6.894515 68.089323 
L 7.092847 69.75243 
L 7.291179 71.415536 
L 7.48951 73.078643 
L 7.687842 74.741749 
L 7.772815 75.785107 
L 7.857788 76.828464 
L 7.942762 77.871821 
L 8.027735 78.915178 
L 8.112708 79.958535 
L 8.197681 81.001892 
L 8.282655 82.045249 
L 8.367628 83.088606 
L 8.459697 84.53112 
L 8.551767 85.973633 
L 8.643836 87.416146 
L 8.735906 88.858659 
L 9.287595 90.398715 
L 9.839285 91.93877 
L 10.731595 93.017285 
L 11.623905 94.095799 
L 13.067905 95.21608 
L 14.511904 96.33636 
" clip-path="url(#p69bb0f6830)" style="fill: none; stroke: #008000; stroke-width: 0.4; stroke-linecap: square"/>
   </g>
   <g id="text_1">
    <g id="patch_2">
     <path d="M 35.194039 21.971008 
L 40.699666 26.635053 
L 41.976673 25.127622 
L 36.471046 20.463577 
z
" style="fill: #ffffff"/>
    </g>
    <!-- Chair 1 -->
    <g style="fill: #808080" transform="translate(35.491081 21.651309)rotate(-319.730683)scale(0.02 -0.02)">
     <defs>
      <path id="DejaVuSans-43" d="M 4122 4306 
L 4122 3641 
Q 3803 3938 3442 4084 
Q 3081 4231 2675 4231 
Q 1875 4231 1450 3742 
Q 1025 3253 1025 2328 
Q 1025 1406 1450 917 
Q 1875 428 2675 428 
Q 3081 428 3442 575 
Q 3803 722 4122 1019 
L 4122 359 
Q 3791 134 3420 21 
Q 3050 -91 2638 -91 
Q 1578 -91 968 557 
Q 359 1206 359 2328 
Q 359 3453 968 4101 
Q 1578 4750 2638 4750 
Q 3056 4750 3426 4639 
Q 3797 4528 4122 4306 
z
" transform="scale(0.015625)"/>
      <path id="DejaVuSans-68" d="M 3513 2113 
L 3513 0 
L 2938 0 
L 2938 2094 
Q 2938 2591 2744 2837 
Q 2550 3084 2163 3084 
Q 1697 3084 1428 2787 
Q 1159 2491 1159 1978 
L 1159 0 
L 581 0 
L 581 4863 
L 1159 4863 
L 1159 2956 
Q 1366 3272 1645 3428 
Q 1925 3584 2291 3584 
Q 2894 3584 3203 3211 
Q 3513 2838 3513 2113 
z
" transform="scale(0.015625)"/>
      <path id="DejaVuSans-61" d="M 2194 1759 
Q 1497 1759 1228 1600 
Q 959 1441 959 1056 
Q 959 750 1161 570 
Q 1363 391 1709 391 
Q 2188 391 2477 730 
Q 2766 1069 2766 1631 
L 2766 1759 
L 2194 1759 
z
M 3341 1997 
L 3341 0 
L 2766 0 
L 2766 531 
Q 2569 213 2275 61 
Q 1981 -91 1556 -91 
Q 1019 -91 701 211 
Q 384 513 384 1019 
Q 384 1609 779 1909 
Q 1175 2209 1959 2209 
L 2766 2209 
L 2766 2266 
Q 2766 2663 2505 2880 
Q 2244 3097 1772 3097 
Q 1472 3097 1187 3025 
Q 903 2953 641 2809 
L 641 3341 
Q 956 3463 1253 3523 
Q 1550 3584 1831 3584 
Q 2591 3584 2966 3190 
Q 3341 2797 3341 1997 
z
" transform="scale(0.015625)"/>
      <path id="DejaVuSans-69" d="M 603 3500 
L 1178 3500 
L 1178 0 
L 603 0 
L 603 3500 
z
M 603 4863 
L 1178 4863 
L 1178 4134 
L 603 4134 
L 603 4863 
z
" transform="scale(0.015625)"/>
      <path id="DejaVuSans-72" d="M 2631 2963 
Q 2534 3019 2420 3045 
Q 2306 3072 2169 3072 
Q 1681 3072 1420 2755 
Q 1159 2438 1159 1844 
L 1159 0 
L 581 0 
L 581 3500 
L 1159 3500 
L 1159 2956 
Q 1341 3275 1631 3429 
Q 1922 3584 2338 3584 
Q 2397 3584 2469 3576 
Q 2541 3569 2628 3553 
L 2631 2963 
z
" transform="scale(0.015625)"/>
      <path id="DejaVuSans-20" transform="scale(0.015625)"/>
      <path id="DejaVuSans-31" d="M 794 531 
L 1825 531 
L 1825 4091 
L 703 3866 
L 703 4441 
L 1819 4666 
L 2450 4666 
L 2450 531 
L 3481 531 
L 3481 0 
L 794 0 
L 794 531 
z
" transform="scale(0.015625)"/>
     </defs>
     <use xlink:href="#DejaVuSans-43"/>
     <use xlink:href="#DejaVuSans-68" x="69.824219"/>
     <use xlink:href="#DejaVuSans-61" x="133.203125"/>
     <use xlink:href="#DejaVuSans-69" x="194.482422"/>
     <use xlink:href="#DejaVuSans-72" x="222.265625"/>
     <use xlink:href="#DejaVuSans-20" x="263.378906"/>
     <use xlink:href="#DejaVuSans-31" x="295.166016"/>
    </g>
   </g>
   <g id="text_2">
    <g id="patch_3">
     <path d="M 45.900464 39.448389 
L 51.554245 43.931692 
L 52.781765 42.383697 
L 47.127984 37.900394 
z
" style="fill: #ffffff"/>
    </g>
    <!-- Chair 2 -->
    <g style="fill: #808080" transform="translate(46.186997 39.119238)rotate(-321.586487)scale(0.02 -0.02)">
     <defs>
      <path id="DejaVuSans-32" d="M 1228 531 
L 3431 531 
L 3431 0 
L 469 0 
L 469 531 
Q 828 903 1448 1529 
Q 2069 2156 2228 2338 
Q 2531 2678 2651 2914 
Q 2772 3150 2772 3378 
Q 2772 3750 2511 3984 
Q 2250 4219 1831 4219 
Q 1534 4219 1204 4116 
Q 875 4013 500 3803 
L 500 4441 
Q 881 4594 1212 4672 
Q 1544 4750 1819 4750 
Q 2544 4750 2975 4387 
Q 3406 4025 3406 3419 
Q 3406 3131 3298 2873 
Q 3191 2616 2906 2266 
Q 2828 2175 2409 1742 
Q 1991 1309 1228 531 
z
" transform="scale(0.015625)"/>
     </defs>
     <use xlink:href="#DejaVuSans-43"/>
     <use xlink:href="#DejaVuSans-68" x="69.824219"/>
     <use xlink:href="#DejaVuSans-61" x="133.203125"/>
     <use xlink:href="#DejaVuSans-69" x="194.482422"/>
     <use xlink:href="#DejaVuSans-72" x="222.265625"/>
     <use xlink:href="#DejaVuSans-20" x="263.378906"/>
     <use xlink:href="#DejaVuSans-32" x="295.166016"/>
    </g>
   </g>
   <g id="text_3">
    <g id="patch_4">
     <path d="M 40.824397 51.362539 
L 44.424883 57.615677 
L 46.136981 56.62987 
L 42.536495 50.376732 
z
" style="fill: #ffffff"/>
    </g>
    <!-- Chair 3 -->
    <g style="fill: #808080" transform="translate(41.212165 51.162345)rotate(-299.932853)scale(0.02 -0.02)">
     <defs>
      <path id="DejaVuSans-33" d="M 2597 2516 
Q 3050 2419 3304 2112 
Q 3559 1806 3559 1356 
Q 3559 666 3084 287 
Q 2609 -91 1734 -91 
Q 1441 -91 1130 -33 
Q 819 25 488 141 
L 488 750 
Q 750 597 1062 519 
Q 1375 441 1716 441 
Q 2309 441 2620 675 
Q 2931 909 2931 1356 
Q 2931 1769 2642 2001 
Q 2353 2234 1838 2234 
L 1294 2234 
L 1294 2753 
L 1863 2753 
Q 2328 2753 2575 2939 
Q 2822 3125 2822 3475 
Q 2822 3834 2567 4026 
Q 2313 4219 1838 4219 
Q 1578 4219 1281 4162 
Q 984 4106 628 3988 
L 628 4550 
Q 988 4650 1302 4700 
Q 1616 4750 1894 4750 
Q 2613 4750 3031 4423 
Q 3450 4097 3450 3541 
Q 3450 3153 3228 2886 
Q 3006 2619 2597 2516 
z
" transform="scale(0.015625)"/>
     </defs>
     <use xlink:href="#DejaVuSans-43"/>
     <use xlink:href="#DejaVuSans-68" x="69.824219"/>
     <use xlink:href="#DejaVuSans-61" x="133.203125"/>
     <use xlink:href="#DejaVuSans-69" x="194.482422"/>
     <use xlink:href="#DejaVuSans-72" x="222.265625"/>
     <use xlink:href="#DejaVuSans-20" x="263.378906"/>
     <use xlink:href="#DejaVuSans-33" x="295.166016"/>
    </g>
   </g>
   <g id="text_4">
    <g id="patch_5">
     <path d="M 31.429492 58.864881 
L 34.432558 69.808767 
L 36.337755 69.28597 
L 33.33469 58.342084 
z
" style="fill: #ffffff"/>
    </g>
    <!-- Rope Tow 4 -->
    <g style="fill: #808080" transform="translate(31.855182 58.768809)rotate(-285.344593)scale(0.02 -0.02)">
     <defs>
      <path id="DejaVuSans-52" d="M 2841 2188 
Q 3044 2119 3236 1894 
Q 3428 1669 3622 1275 
L 4263 0 
L 3584 0 
L 2988 1197 
Q 2756 1666 2539 1819 
Q 2322 1972 1947 1972 
L 1259 1972 
L 1259 0 
L 628 0 
L 628 4666 
L 2053 4666 
Q 2853 4666 3247 4331 
Q 3641 3997 3641 3322 
Q 3641 2881 3436 2590 
Q 3231 2300 2841 2188 
z
M 1259 4147 
L 1259 2491 
L 2053 2491 
Q 2509 2491 2742 2702 
Q 2975 2913 2975 3322 
Q 2975 3731 2742 3939 
Q 2509 4147 2053 4147 
L 1259 4147 
z
" transform="scale(0.015625)"/>
      <path id="DejaVuSans-6f" d="M 1959 3097 
Q 1497 3097 1228 2736 
Q 959 2375 959 1747 
Q 959 1119 1226 758 
Q 1494 397 1959 397 
Q 2419 397 2687 759 
Q 2956 1122 2956 1747 
Q 2956 2369 2687 2733 
Q 2419 3097 1959 3097 
z
M 1959 3584 
Q 2709 3584 3137 3096 
Q 3566 2609 3566 1747 
Q 3566 888 3137 398 
Q 2709 -91 1959 -91 
Q 1206 -91 779 398 
Q 353 888 353 1747 
Q 353 2609 779 3096 
Q 1206 3584 1959 3584 
z
" transform="scale(0.015625)"/>
      <path id="DejaVuSans-70" d="M 1159 525 
L 1159 -1331 
L 581 -1331 
L 581 3500 
L 1159 3500 
L 1159 2969 
Q 1341 3281 1617 3432 
Q 1894 3584 2278 3584 
Q 2916 3584 3314 3078 
Q 3713 2572 3713 1747 
Q 3713 922 3314 415 
Q 2916 -91 2278 -91 
Q 1894 -91 1617 61 
Q 1341 213 1159 525 
z
M 3116 1747 
Q 3116 2381 2855 2742 
Q 2594 3103 2138 3103 
Q 1681 3103 1420 2742 
Q 1159 2381 1159 1747 
Q 1159 1113 1420 752 
Q 1681 391 2138 391 
Q 2594 391 2855 752 
Q 3116 1113 3116 1747 
z
" transform="scale(0.015625)"/>
      <path id="DejaVuSans-65" d="M 3597 1894 
L 3597 1613 
L 953 1613 
Q 991 1019 1311 708 
Q 1631 397 2203 397 
Q 2534 397 2845 478 
Q 3156 559 3463 722 
L 3463 178 
Q 3153 47 2828 -22 
Q 2503 -91 2169 -91 
Q 1331 -91 842 396 
Q 353 884 353 1716 
Q 353 2575 817 3079 
Q 1281 3584 2069 3584 
Q 2775 3584 3186 3129 
Q 3597 2675 3597 1894 
z
M 3022 2063 
Q 3016 2534 2758 2815 
Q 2500 3097 2075 3097 
Q 1594 3097 1305 2825 
Q 1016 2553 972 2059 
L 3022 2063 
z
" transform="scale(0.015625)"/>
      <path id="DejaVuSans-54" d="M -19 4666 
L 3928 4666 
L 3928 4134 
L 2272 4134 
L 2272 0 
L 1638 0 
L 1638 4134 
L -19 4134 
L -19 4666 
z
" transform="scale(0.015625)"/>
      <path id="DejaVuSans-77" d="M 269 3500 
L 844 3500 
L 1563 769 
L 2278 3500 
L 2956 3500 
L 3675 769 
L 4391 3500 
L 4966 3500 
L 4050 0 
L 3372 0 
L 2619 2869 
L 1863 0 
L 1184 0 
L 269 3500 
z
" transform="scale(0.015625)"/>
      <path id="DejaVuSans-34" d="M 2419 4116 
L 825 1625 
L 2419 1625 
L 2419 4116 
z
M 2253 4666 
L 3047 4666 
L 3047 1625 
L 3713 1625 
L 3713 1100 
L 3047 1100 
L 3047 0 
L 2419 0 
L 2419 1100 
L 313 1100 
L 313 1709 
L 2253 4666 
z
" transform="scale(0.015625)"/>
     </defs>
     <use xlink:href="#DejaVuSans-52"/>
     <use xlink:href="#DejaVuSans-6f" x="64.982422"/>
     <use xlink:href="#DejaVuSans-70" x="126.164062"/>
     <use xlink:href="#DejaVuSans-65" x="189.640625"/>
     <use xlink:href="#DejaVuSans-20" x="251.164062"/>
     <use xlink:href="#DejaVuSans-54" x="282.951172"/>
     <use xlink:href="#DejaVuSans-6f" x="327.035156"/>
     <use xlink:href="#DejaVuSans-77" x="388.216797"/>
     <use xlink:href="#DejaVuSans-20" x="470.003906"/>
     <use xlink:href="#DejaVuSans-34" x="501.791016"/>
    </g>
   </g>
   <g id="text_5">
    <g id="patch_6">
     <path d="M 23.813618 80.686519 
L 23.957516 87.900709 
L 25.932748 87.86131 
L 25.78885 80.64712 
z
" style="fill: #ffffff"/>
    </g>
    <!-- Chair 5 -->
    <g style="fill: #808080" transform="translate(24.249868 80.697822)rotate(-271.142701)scale(0.02 -0.02)">
     <defs>
      <path id="DejaVuSans-35" d="M 691 4666 
L 3169 4666 
L 3169 4134 
L 1269 4134 
L 1269 2991 
Q 1406 3038 1543 3061 
Q 1681 3084 1819 3084 
Q 2600 3084 3056 2656 
Q 3513 2228 3513 1497 
Q 3513 744 3044 326 
Q 2575 -91 1722 -91 
Q 1428 -91 1123 -41 
Q 819 9 494 109 
L 494 744 
Q 775 591 1075 516 
Q 1375 441 1709 441 
Q 2250 441 2565 725 
Q 2881 1009 2881 1497 
Q 2881 1984 2565 2268 
Q 2250 2553 1709 2553 
Q 1456 2553 1204 2497 
Q 953 2441 691 2322 
L 691 4666 
z
" transform="scale(0.015625)"/>
     </defs>
     <use xlink:href="#DejaVuSans-43"/>
     <use xlink:href="#DejaVuSans-68" x="69.824219"/>
     <use xlink:href="#DejaVuSans-61" x="133.203125"/>
     <use xlink:href="#DejaVuSans-69" x="194.482422"/>
     <use xlink:href="#DejaVuSans-72" x="222.265625"/>
     <use xlink:href="#DejaVuSans-20" x="263.378906"/>
     <use xlink:href="#DejaVuSans-35" x="295.166016"/>
    </g>
   </g>
   <g id="text_6">
    <g id="patch_7">
     <path d="M 17.993922 87.631649 
L 18.299376 80.422492 
L 16.325522 80.338859 
L 16.020067 87.548016 
z
" style="fill: #ffffff"/>
    </g>
    <!-- Chair 6 -->
    <g style="fill: #808080" transform="translate(17.559221 87.593212)rotate(-87.573808)scale(0.02 -0.02)">
     <defs>
      <path id="DejaVuSans-36" d="M 2113 2584 
Q 1688 2584 1439 2293 
Q 1191 2003 1191 1497 
Q 1191 994 1439 701 
Q 1688 409 2113 409 
Q 2538 409 2786 701 
Q 3034 994 3034 1497 
Q 3034 2003 2786 2293 
Q 2538 2584 2113 2584 
z
M 3366 4563 
L 3366 3988 
Q 3128 4100 2886 4159 
Q 2644 4219 2406 4219 
Q 1781 4219 1451 3797 
Q 1122 3375 1075 2522 
Q 1259 2794 1537 2939 
Q 1816 3084 2150 3084 
Q 2853 3084 3261 2657 
Q 3669 2231 3669 1497 
Q 3669 778 3244 343 
Q 2819 -91 2113 -91 
Q 1303 -91 875 529 
Q 447 1150 447 2328 
Q 447 3434 972 4092 
Q 1497 4750 2381 4750 
Q 2619 4750 2861 4703 
Q 3103 4656 3366 4563 
z
" transform="scale(0.015625)"/>
     </defs>
     <use xlink:href="#DejaVuSans-43"/>
     <use xlink:href="#DejaVuSans-68" x="69.824219"/>
     <use xlink:href="#DejaVuSans-61" x="133.203125"/>
     <use xlink:href="#DejaVuSans-69" x="194.482422"/>
     <use xlink:href="#DejaVuSans-72" x="222.265625"/>
     <use xlink:href="#DejaVuSans-20" x="263.378906"/>
     <use xlink:href="#DejaVuSans-36" x="295.166016"/>
    </g>
   </g>
   <g id="text_7">
    <g id="patch_8">
     <path d="M 3.15736 76.154462 
L 3.54395 83.11561 
L 5.516535 83.006062 
L 5.129946 76.044913 
z
" style="fill: #ffffff"/>
    </g>
    <!-- Rope 4 -->
    <g style="fill: #808080" transform="translate(3.593736 76.150258)rotate(-273.178675)scale(0.02 -0.02)">
     <use xlink:href="#DejaVuSans-52"/>
     <use xlink:href="#DejaVuSans-6f" x="64.982422"/>
     <use xlink:href="#DejaVuSans-70" x="126.164062"/>
     <use xlink:href="#DejaVuSans-65" x="189.640625"/>
     <use xlink:href="#DejaVuSans-20" x="251.164062"/>
     <use xlink:href="#DejaVuSans-34" x="282.951172"/>
    </g>
   </g>
   <g id="text_8">
    <g id="patch_9">
     <path d="M 19.433186 25.457742 
L 22.389669 8.213091 
L 20.442453 7.879254 
L 17.485971 25.123905 
z
" style="fill: #ffffff"/>
    </g>
    <!-- Cedar Bowl 11.9° -->
    <g style="fill: #008000" transform="translate(19.006897 25.364366)rotate(-80.271593)scale(0.02 -0.02)">
     <defs>
      <path id="DejaVuSans-64" d="M 2906 2969 
L 2906 4863 
L 3481 4863 
L 3481 0 
L 2906 0 
L 2906 525 
Q 2725 213 2448 61 
Q 2172 -91 1784 -91 
Q 1150 -91 751 415 
Q 353 922 353 1747 
Q 353 2572 751 3078 
Q 1150 3584 1784 3584 
Q 2172 3584 2448 3432 
Q 2725 3281 2906 2969 
z
M 947 1747 
Q 947 1113 1208 752 
Q 1469 391 1925 391 
Q 2381 391 2643 752 
Q 2906 1113 2906 1747 
Q 2906 2381 2643 2742 
Q 2381 3103 1925 3103 
Q 1469 3103 1208 2742 
Q 947 2381 947 1747 
z
" transform="scale(0.015625)"/>
      <path id="DejaVuSans-42" d="M 1259 2228 
L 1259 519 
L 2272 519 
Q 2781 519 3026 730 
Q 3272 941 3272 1375 
Q 3272 1813 3026 2020 
Q 2781 2228 2272 2228 
L 1259 2228 
z
M 1259 4147 
L 1259 2741 
L 2194 2741 
Q 2656 2741 2882 2914 
Q 3109 3088 3109 3444 
Q 3109 3797 2882 3972 
Q 2656 4147 2194 4147 
L 1259 4147 
z
M 628 4666 
L 2241 4666 
Q 2963 4666 3353 4366 
Q 3744 4066 3744 3513 
Q 3744 3084 3544 2831 
Q 3344 2578 2956 2516 
Q 3422 2416 3680 2098 
Q 3938 1781 3938 1306 
Q 3938 681 3513 340 
Q 3088 0 2303 0 
L 628 0 
L 628 4666 
z
" transform="scale(0.015625)"/>
      <path id="DejaVuSans-6c" d="M 603 4863 
L 1178 4863 
L 1178 0 
L 603 0 
L 603 4863 
z
" transform="scale(0.015625)"/>
      <path id="DejaVuSans-2e" d="M 684 794 
L 1344 794 
L 1344 0 
L 684 0 
L 684 794 
z
" transform="scale(0.015625)"/>
      <path id="DejaVuSans-39" d="M 703 97 
L 703 672 
Q 941 559 1184 500 
Q 1428 441 1663 441 
Q 2288 441 2617 861 
Q 2947 1281 2994 2138 
Q 2813 1869 2534 1725 
Q 2256 1581 1919 1581 
Q 1219 1581 811 2004 
Q 403 2428 403 3163 
Q 403 3881 828 4315 
Q 1253 4750 1959 4750 
Q 2769 4750 3195 4129 
Q 3622 3509 3622 2328 
Q 3622 1225 3098 567 
Q 2575 -91 1691 -91 
Q 1453 -91 1209 -44 
Q 966 3 703 97 
z
M 1959 2075 
Q 2384 2075 2632 2365 
Q 2881 2656 2881 3163 
Q 2881 3666 2632 3958 
Q 2384 4250 1959 4250 
Q 1534 4250 1286 3958 
Q 1038 3666 1038 3163 
Q 1038 2656 1286 2365 
Q 1534 2075 1959 2075 
z
" transform="scale(0.015625)"/>
      <path id="DejaVuSans-b0" d="M 1600 4347 
Q 1350 4347 1178 4173 
Q 1006 4000 1006 3750 
Q 1006 3503 1178 3333 
Q 1350 3163 1600 3163 
Q 1850 3163 2022 3333 
Q 2194 3503 2194 3750 
Q 2194 3997 2020 4172 
Q 1847 4347 1600 4347 
z
M 1600 4750 
Q 1800 4750 1984 4673 
Q 2169 4597 2303 4453 
Q 2447 4313 2519 4134 
Q 2591 3956 2591 3750 
Q 2591 3338 2302 3052 
Q 2013 2766 1594 2766 
Q 1172 2766 890 3047 
Q 609 3328 609 3750 
Q 609 4169 896 4459 
Q 1184 4750 1600 4750 
z
" transform="scale(0.015625)"/>
     </defs>
     <use xlink:href="#DejaVuSans-43"/>
     <use xlink:href="#DejaVuSans-65" x="69.824219"/>
     <use xlink:href="#DejaVuSans-64" x="131.347656"/>
     <use xlink:href="#DejaVuSans-61" x="194.824219"/>
     <use xlink:href="#DejaVuSans-72" x="256.103516"/>
     <use xlink:href="#DejaVuSans-20" x="297.216797"/>
     <use xlink:href="#DejaVuSans-42" x="329.003906"/>
     <use xlink:href="#DejaVuSans-6f" x="397.607422"/>
     <use xlink:href="#DejaVuSans-77" x="458.789062"/>
     <use xlink:href="#DejaVuSans-6c" x="540.576172"/>
     <use xlink:href="#DejaVuSans-20" x="568.359375"/>
     <use xlink:href="#DejaVuSans-31" x="600.146484"/>
     <use xlink:href="#DejaVuSans-31" x="663.769531"/>
     <use xlink:href="#DejaVuSans-2e" x="727.392578"/>
     <use xlink:href="#DejaVuSans-39" x="759.179688"/>
     <use xlink:href="#DejaVuSans-b0" x="822.802734"/>
    </g>
   </g>
   <g id="text_9">
    <g id="patch_10">
     <path d="M 25.614508 17.774124 
L 37.653453 27.788106 
L 38.916841 26.269244 
L 26.877896 16.255261 
z
" style="fill: #ffffff"/>
    </g>
    <!-- Landslide 11.9° -->
    <g style="fill: #008000" transform="translate(25.908661 17.451765)rotate(-320.24635)scale(0.02 -0.02)">
     <defs>
      <path id="DejaVuSans-4c" d="M 628 4666 
L 1259 4666 
L 1259 531 
L 3531 531 
L 3531 0 
L 628 0 
L 628 4666 
z
" transform="scale(0.015625)"/>
      <path id="DejaVuSans-6e" d="M 3513 2113 
L 3513 0 
L 2938 0 
L 2938 2094 
Q 2938 2591 2744 2837 
Q 2550 3084 2163 3084 
Q 1697 3084 1428 2787 
Q 1159 2491 1159 1978 
L 1159 0 
L 581 0 
L 581 3500 
L 1159 3500 
L 1159 2956 
Q 1366 3272 1645 3428 
Q 1925 3584 2291 3584 
Q 2894 3584 3203 3211 
Q 3513 2838 3513 2113 
z
" transform="scale(0.015625)"/>
      <path id="DejaVuSans-73" d="M 2834 3397 
L 2834 2853 
Q 2591 2978 2328 3040 
Q 2066 3103 1784 3103 
Q 1356 3103 1142 2972 
Q 928 2841 928 2578 
Q 928 2378 1081 2264 
Q 1234 2150 1697 2047 
L 1894 2003 
Q 2506 1872 2764 1633 
Q 3022 1394 3022 966 
Q 3022 478 2636 193 
Q 2250 -91 1575 -91 
Q 1294 -91 989 -36 
Q 684 19 347 128 
L 347 722 
Q 666 556 975 473 
Q 1284 391 1588 391 
Q 1994 391 2212 530 
Q 2431 669 2431 922 
Q 2431 1156 2273 1281 
Q 2116 1406 1581 1522 
L 1381 1569 
Q 847 1681 609 1914 
Q 372 2147 372 2553 
Q 372 3047 722 3315 
Q 1072 3584 1716 3584 
Q 2034 3584 2315 3537 
Q 2597 3491 2834 3397 
z
" transform="scale(0.015625)"/>
     </defs>
     <use xlink:href="#DejaVuSans-4c"/>
     <use xlink:href="#DejaVuSans-61" x="55.712891"/>
     <use xlink:href="#DejaVuSans-6e" x="116.992188"/>
     <use xlink:href="#DejaVuSans-64" x="180.371094"/>
     <use xlink:href="#DejaVuSans-73" x="243.847656"/>
     <use xlink:href="#DejaVuSans-6c" x="295.947266"/>
     <use xlink:href="#DejaVuSans-69" x="323.730469"/>
     <use xlink:href="#DejaVuSans-64" x="351.513672"/>
     <use xlink:href="#DejaVuSans-65" x="414.990234"/>
     <use xlink:href="#DejaVuSans-20" x="476.513672"/>
     <use xlink:href="#DejaVuSans-31" x="508.300781"/>
     <use xlink:href="#DejaVuSans-31" x="571.923828"/>
     <use xlink:href="#DejaVuSans-2e" x="635.546875"/>
     <use xlink:href="#DejaVuSans-39" x="667.333984"/>
     <use xlink:href="#DejaVuSans-b0" x="730.957031"/>
    </g>
   </g>
   <g id="text_10">
    <g id="patch_11">
     <path d="M 26.946944 29.709016 
L 37.276511 39.171381 
L 38.610999 37.714591 
L 28.281431 28.252226 
z
" style="fill: #ffffff"/>
    </g>
    <!-- Phase 1 18.3° -->
    <g style="fill: #4169e1" transform="translate(27.256157 29.401073)rotate(-317.508866)scale(0.02 -0.02)">
     <defs>
      <path id="DejaVuSans-50" d="M 1259 4147 
L 1259 2394 
L 2053 2394 
Q 2494 2394 2734 2622 
Q 2975 2850 2975 3272 
Q 2975 3691 2734 3919 
Q 2494 4147 2053 4147 
L 1259 4147 
z
M 628 4666 
L 2053 4666 
Q 2838 4666 3239 4311 
Q 3641 3956 3641 3272 
Q 3641 2581 3239 2228 
Q 2838 1875 2053 1875 
L 1259 1875 
L 1259 0 
L 628 0 
L 628 4666 
z
" transform="scale(0.015625)"/>
      <path id="DejaVuSans-38" d="M 2034 2216 
Q 1584 2216 1326 1975 
Q 1069 1734 1069 1313 
Q 1069 891 1326 650 
Q 1584 409 2034 409 
Q 2484 409 2743 651 
Q 3003 894 3003 1313 
Q 3003 1734 2745 1975 
Q 2488 2216 2034 2216 
z
M 1403 2484 
Q 997 2584 770 2862 
Q 544 3141 544 3541 
Q 544 4100 942 4425 
Q 1341 4750 2034 4750 
Q 2731 4750 3128 4425 
Q 3525 4100 3525 3541 
Q 3525 3141 3298 2862 
Q 3072 2584 2669 2484 
Q 3125 2378 3379 2068 
Q 3634 1759 3634 1313 
Q 3634 634 3220 271 
Q 2806 -91 2034 -91 
Q 1263 -91 848 271 
Q 434 634 434 1313 
Q 434 1759 690 2068 
Q 947 2378 1403 2484 
z
M 1172 3481 
Q 1172 3119 1398 2916 
Q 1625 2713 2034 2713 
Q 2441 2713 2670 2916 
Q 2900 3119 2900 3481 
Q 2900 3844 2670 4047 
Q 2441 4250 2034 4250 
Q 1625 4250 1398 4047 
Q 1172 3844 1172 3481 
z
" transform="scale(0.015625)"/>
     </defs>
     <use xlink:href="#DejaVuSans-50"/>
     <use xlink:href="#DejaVuSans-68" x="60.302734"/>
     <use xlink:href="#DejaVuSans-61" x="123.681641"/>
     <use xlink:href="#DejaVuSans-73" x="184.960938"/>
     <use xlink:href="#DejaVuSans-65" x="237.060547"/>
     <use xlink:href="#DejaVuSans-20" x="298.583984"/>
     <use xlink:href="#DejaVuSans-31" x="330.371094"/>
     <use xlink:href="#DejaVuSans-20" x="393.994141"/>
     <use xlink:href="#DejaVuSans-31" x="425.78125"/>
     <use xlink:href="#DejaVuSans-38" x="489.404297"/>
     <use xlink:href="#DejaVuSans-2e" x="553.027344"/>
     <use xlink:href="#DejaVuSans-33" x="584.814453"/>
     <use xlink:href="#DejaVuSans-b0" x="648.4375"/>
    </g>
   </g>
   <g id="text_11">
    <g id="patch_12">
     <path d="M 25.747679 33.439724 
L 32.563679 47.423948 
L 34.339587 46.558359 
L 27.523587 32.574135 
z
" style="fill: #ffffff"/>
    </g>
    <!-- Shaboom 16.8° -->
    <g style="fill: #008000" transform="translate(26.14831 33.266703)rotate(-295.9849)scale(0.02 -0.02)">
     <defs>
      <path id="DejaVuSans-53" d="M 3425 4513 
L 3425 3897 
Q 3066 4069 2747 4153 
Q 2428 4238 2131 4238 
Q 1616 4238 1336 4038 
Q 1056 3838 1056 3469 
Q 1056 3159 1242 3001 
Q 1428 2844 1947 2747 
L 2328 2669 
Q 3034 2534 3370 2195 
Q 3706 1856 3706 1288 
Q 3706 609 3251 259 
Q 2797 -91 1919 -91 
Q 1588 -91 1214 -16 
Q 841 59 441 206 
L 441 856 
Q 825 641 1194 531 
Q 1563 422 1919 422 
Q 2459 422 2753 634 
Q 3047 847 3047 1241 
Q 3047 1584 2836 1778 
Q 2625 1972 2144 2069 
L 1759 2144 
Q 1053 2284 737 2584 
Q 422 2884 422 3419 
Q 422 4038 858 4394 
Q 1294 4750 2059 4750 
Q 2388 4750 2728 4690 
Q 3069 4631 3425 4513 
z
" transform="scale(0.015625)"/>
      <path id="DejaVuSans-62" d="M 3116 1747 
Q 3116 2381 2855 2742 
Q 2594 3103 2138 3103 
Q 1681 3103 1420 2742 
Q 1159 2381 1159 1747 
Q 1159 1113 1420 752 
Q 1681 391 2138 391 
Q 2594 391 2855 752 
Q 3116 1113 3116 1747 
z
M 1159 2969 
Q 1341 3281 1617 3432 
Q 1894 3584 2278 3584 
Q 2916 3584 3314 3078 
Q 3713 2572 3713 1747 
Q 3713 922 3314 415 
Q 2916 -91 2278 -91 
Q 1894 -91 1617 61 
Q 1341 213 1159 525 
L 1159 0 
L 581 0 
L 581 4863 
L 1159 4863 
L 1159 2969 
z
" transform="scale(0.015625)"/>
      <path id="DejaVuSans-6d" d="M 3328 2828 
Q 3544 3216 3844 3400 
Q 4144 3584 4550 3584 
Q 5097 3584 5394 3201 
Q 5691 2819 5691 2113 
L 5691 0 
L 5113 0 
L 5113 2094 
Q 5113 2597 4934 2840 
Q 4756 3084 4391 3084 
Q 3944 3084 3684 2787 
Q 3425 2491 3425 1978 
L 3425 0 
L 2847 0 
L 2847 2094 
Q 2847 2600 2669 2842 
Q 2491 3084 2119 3084 
Q 1678 3084 1418 2786 
Q 1159 2488 1159 1978 
L 1159 0 
L 581 0 
L 581 3500 
L 1159 3500 
L 1159 2956 
Q 1356 3278 1631 3431 
Q 1906 3584 2284 3584 
Q 2666 3584 2933 3390 
Q 3200 3197 3328 2828 
z
" transform="scale(0.015625)"/>
     </defs>
     <use xlink:href="#DejaVuSans-53"/>
     <use xlink:href="#DejaVuSans-68" x="63.476562"/>
     <use xlink:href="#DejaVuSans-61" x="126.855469"/>
     <use xlink:href="#DejaVuSans-62" x="188.134766"/>
     <use xlink:href="#DejaVuSans-6f" x="251.611328"/>
     <use xlink:href="#DejaVuSans-6f" x="312.792969"/>
     <use xlink:href="#DejaVuSans-6d" x="373.974609"/>
     <use xlink:href="#DejaVuSans-20" x="471.386719"/>
     <use xlink:href="#DejaVuSans-31" x="503.173828"/>
     <use xlink:href="#DejaVuSans-36" x="566.796875"/>
     <use xlink:href="#DejaVuSans-2e" x="630.419922"/>
     <use xlink:href="#DejaVuSans-38" x="662.207031"/>
     <use xlink:href="#DejaVuSans-b0" x="725.830078"/>
    </g>
   </g>
   <g id="text_12">
    <g id="patch_13">
     <path d="M 30.195307 48.102865 
L 33.920314 59.027773 
L 35.790231 58.390198 
L 32.065224 47.465289 
z
" style="fill: #ffffff"/>
    </g>
    <!-- Crisis 17.0° -->
    <g style="fill: #4169e1" transform="translate(30.614374 47.981108)rotate(-288.827559)scale(0.02 -0.02)">
     <defs>
      <path id="DejaVuSans-37" d="M 525 4666 
L 3525 4666 
L 3525 4397 
L 1831 0 
L 1172 0 
L 2766 4134 
L 525 4134 
L 525 4666 
z
" transform="scale(0.015625)"/>
      <path id="DejaVuSans-30" d="M 2034 4250 
Q 1547 4250 1301 3770 
Q 1056 3291 1056 2328 
Q 1056 1369 1301 889 
Q 1547 409 2034 409 
Q 2525 409 2770 889 
Q 3016 1369 3016 2328 
Q 3016 3291 2770 3770 
Q 2525 4250 2034 4250 
z
M 2034 4750 
Q 2819 4750 3233 4129 
Q 3647 3509 3647 2328 
Q 3647 1150 3233 529 
Q 2819 -91 2034 -91 
Q 1250 -91 836 529 
Q 422 1150 422 2328 
Q 422 3509 836 4129 
Q 1250 4750 2034 4750 
z
" transform="scale(0.015625)"/>
     </defs>
     <use xlink:href="#DejaVuSans-43"/>
     <use xlink:href="#DejaVuSans-72" x="69.824219"/>
     <use xlink:href="#DejaVuSans-69" x="110.9375"/>
     <use xlink:href="#DejaVuSans-73" x="138.720703"/>
     <use xlink:href="#DejaVuSans-69" x="190.820312"/>
     <use xlink:href="#DejaVuSans-73" x="218.603516"/>
     <use xlink:href="#DejaVuSans-20" x="270.703125"/>
     <use xlink:href="#DejaVuSans-31" x="302.490234"/>
     <use xlink:href="#DejaVuSans-37" x="366.113281"/>
     <use xlink:href="#DejaVuSans-2e" x="429.736328"/>
     <use xlink:href="#DejaVuSans-30" x="461.523438"/>
     <use xlink:href="#DejaVuSans-b0" x="525.146484"/>
    </g>
   </g>
   <g id="text_13">
    <g id="patch_14">
     <path d="M 24.058602 46.659981 
L 28.35542 61.456211 
L 30.252665 60.905252 
L 25.955847 46.109022 
z
" style="fill: #ffffff"/>
    </g>
    <!-- Snowbird 13.8° -->
    <g style="fill: #008000" transform="translate(24.482822 46.557614)rotate(-286.193272)scale(0.02 -0.02)">
     <use xlink:href="#DejaVuSans-53"/>
     <use xlink:href="#DejaVuSans-6e" x="63.476562"/>
     <use xlink:href="#DejaVuSans-6f" x="126.855469"/>
     <use xlink:href="#DejaVuSans-77" x="188.037109"/>
     <use xlink:href="#DejaVuSans-62" x="269.824219"/>
     <use xlink:href="#DejaVuSans-69" x="333.300781"/>
     <use xlink:href="#DejaVuSans-72" x="361.083984"/>
     <use xlink:href="#DejaVuSans-64" x="400.447266"/>
     <use xlink:href="#DejaVuSans-20" x="463.923828"/>
     <use xlink:href="#DejaVuSans-31" x="495.710938"/>
     <use xlink:href="#DejaVuSans-33" x="559.333984"/>
     <use xlink:href="#DejaVuSans-2e" x="622.957031"/>
     <use xlink:href="#DejaVuSans-38" x="654.744141"/>
     <use xlink:href="#DejaVuSans-b0" x="718.367188"/>
    </g>
   </g>
   <g id="text_14">
    <g id="patch_15">
     <path d="M 22.669243 52.485166 
L 22.902649 35.313002 
L 20.927206 35.286152 
L 20.6938 52.458316 
z
" style="fill: #ffffff"/>
    </g>
    <!-- Quicksilver 12.0° -->
    <g style="fill: #008000" transform="translate(22.233617 52.459243)rotate(-89.221277)scale(0.02 -0.02)">
     <defs>
      <path id="DejaVuSans-51" d="M 2522 4238 
Q 1834 4238 1429 3725 
Q 1025 3213 1025 2328 
Q 1025 1447 1429 934 
Q 1834 422 2522 422 
Q 3209 422 3611 934 
Q 4013 1447 4013 2328 
Q 4013 3213 3611 3725 
Q 3209 4238 2522 4238 
z
M 3406 84 
L 4238 -825 
L 3475 -825 
L 2784 -78 
Q 2681 -84 2626 -87 
Q 2572 -91 2522 -91 
Q 1538 -91 948 567 
Q 359 1225 359 2328 
Q 359 3434 948 4092 
Q 1538 4750 2522 4750 
Q 3503 4750 4090 4092 
Q 4678 3434 4678 2328 
Q 4678 1516 4351 937 
Q 4025 359 3406 84 
z
" transform="scale(0.015625)"/>
      <path id="DejaVuSans-75" d="M 544 1381 
L 544 3500 
L 1119 3500 
L 1119 1403 
Q 1119 906 1312 657 
Q 1506 409 1894 409 
Q 2359 409 2629 706 
Q 2900 1003 2900 1516 
L 2900 3500 
L 3475 3500 
L 3475 0 
L 2900 0 
L 2900 538 
Q 2691 219 2414 64 
Q 2138 -91 1772 -91 
Q 1169 -91 856 284 
Q 544 659 544 1381 
z
M 1991 3584 
L 1991 3584 
z
" transform="scale(0.015625)"/>
      <path id="DejaVuSans-63" d="M 3122 3366 
L 3122 2828 
Q 2878 2963 2633 3030 
Q 2388 3097 2138 3097 
Q 1578 3097 1268 2742 
Q 959 2388 959 1747 
Q 959 1106 1268 751 
Q 1578 397 2138 397 
Q 2388 397 2633 464 
Q 2878 531 3122 666 
L 3122 134 
Q 2881 22 2623 -34 
Q 2366 -91 2075 -91 
Q 1284 -91 818 406 
Q 353 903 353 1747 
Q 353 2603 823 3093 
Q 1294 3584 2113 3584 
Q 2378 3584 2631 3529 
Q 2884 3475 3122 3366 
z
" transform="scale(0.015625)"/>
      <path id="DejaVuSans-6b" d="M 581 4863 
L 1159 4863 
L 1159 1991 
L 2875 3500 
L 3609 3500 
L 1753 1863 
L 3688 0 
L 2938 0 
L 1159 1709 
L 1159 0 
L 581 0 
L 581 4863 
z
" transform="scale(0.015625)"/>
      <path id="DejaVuSans-76" d="M 191 3500 
L 800 3500 
L 1894 563 
L 2988 3500 
L 3597 3500 
L 2284 0 
L 1503 0 
L 191 3500 
z
" transform="scale(0.015625)"/>
     </defs>
     <use xlink:href="#DejaVuSans-51"/>
     <use xlink:href="#DejaVuSans-75" x="78.710938"/>
     <use xlink:href="#DejaVuSans-69" x="142.089844"/>
     <use xlink:href="#DejaVuSans-63" x="169.873047"/>
     <use xlink:href="#DejaVuSans-6b" x="224.853516"/>
     <use xlink:href="#DejaVuSans-73" x="282.763672"/>
     <use xlink:href="#DejaVuSans-69" x="334.863281"/>
     <use xlink:href="#DejaVuSans-6c" x="362.646484"/>
     <use xlink:href="#DejaVuSans-76" x="390.429688"/>
     <use xlink:href="#DejaVuSans-65" x="449.609375"/>
     <use xlink:href="#DejaVuSans-72" x="511.132812"/>
     <use xlink:href="#DejaVuSans-20" x="552.246094"/>
     <use xlink:href="#DejaVuSans-31" x="584.033203"/>
     <use xlink:href="#DejaVuSans-32" x="647.65625"/>
     <use xlink:href="#DejaVuSans-2e" x="711.279297"/>
     <use xlink:href="#DejaVuSans-30" x="743.066406"/>
     <use xlink:href="#DejaVuSans-b0" x="806.689453"/>
    </g>
   </g>
   <g id="text_15">
    <g id="patch_16">
     <path d="M 13.730106 54.645831 
L 14.092114 73.548927 
L 16.067377 73.5111 
L 15.705369 54.608003 
z
" style="fill: #ffffff"/>
    </g>
    <!-- Mansion Run 11.8° -->
    <g style="fill: #008000" transform="translate(14.166347 54.65748)rotate(-271.097121)scale(0.02 -0.02)">
     <defs>
      <path id="DejaVuSans-4d" d="M 628 4666 
L 1569 4666 
L 2759 1491 
L 3956 4666 
L 4897 4666 
L 4897 0 
L 4281 0 
L 4281 4097 
L 3078 897 
L 2444 897 
L 1241 4097 
L 1241 0 
L 628 0 
L 628 4666 
z
" transform="scale(0.015625)"/>
     </defs>
     <use xlink:href="#DejaVuSans-4d"/>
     <use xlink:href="#DejaVuSans-61" x="86.279297"/>
     <use xlink:href="#DejaVuSans-6e" x="147.558594"/>
     <use xlink:href="#DejaVuSans-73" x="210.9375"/>
     <use xlink:href="#DejaVuSans-69" x="263.037109"/>
     <use xlink:href="#DejaVuSans-6f" x="290.820312"/>
     <use xlink:href="#DejaVuSans-6e" x="352.001953"/>
     <use xlink:href="#DejaVuSans-20" x="415.380859"/>
     <use xlink:href="#DejaVuSans-52" x="447.167969"/>
     <use xlink:href="#DejaVuSans-75" x="512.150391"/>
     <use xlink:href="#DejaVuSans-6e" x="575.529297"/>
     <use xlink:href="#DejaVuSans-20" x="638.908203"/>
     <use xlink:href="#DejaVuSans-31" x="670.695312"/>
     <use xlink:href="#DejaVuSans-31" x="734.318359"/>
     <use xlink:href="#DejaVuSans-2e" x="797.941406"/>
     <use xlink:href="#DejaVuSans-38" x="829.728516"/>
     <use xlink:href="#DejaVuSans-b0" x="893.351562"/>
    </g>
   </g>
   <g id="text_16">
    <g id="patch_17">
     <path d="M 5.982085 66.496478 
L 7.425345 83.157521 
L 9.393599 82.987021 
L 7.950339 66.325978 
z
" style="fill: #ffffff"/>
    </g>
    <!-- Timberline 13.9° -->
    <g style="fill: #008000" transform="translate(6.418122 66.478781)rotate(-274.950877)scale(0.02 -0.02)">
     <use xlink:href="#DejaVuSans-54"/>
     <use xlink:href="#DejaVuSans-69" x="57.958984"/>
     <use xlink:href="#DejaVuSans-6d" x="85.742188"/>
     <use xlink:href="#DejaVuSans-62" x="183.154297"/>
     <use xlink:href="#DejaVuSans-65" x="246.630859"/>
     <use xlink:href="#DejaVuSans-72" x="308.154297"/>
     <use xlink:href="#DejaVuSans-6c" x="349.267578"/>
     <use xlink:href="#DejaVuSans-69" x="377.050781"/>
     <use xlink:href="#DejaVuSans-6e" x="404.833984"/>
     <use xlink:href="#DejaVuSans-65" x="468.212891"/>
     <use xlink:href="#DejaVuSans-20" x="529.736328"/>
     <use xlink:href="#DejaVuSans-31" x="561.523438"/>
     <use xlink:href="#DejaVuSans-33" x="625.146484"/>
     <use xlink:href="#DejaVuSans-2e" x="688.769531"/>
     <use xlink:href="#DejaVuSans-39" x="720.556641"/>
     <use xlink:href="#DejaVuSans-b0" x="784.179688"/>
    </g>
   </g>
   <g id="text_17">
    <!-- Pine Knob -->
    <g transform="translate(18.089912 5.212915)scale(0.05 -0.05)">
     <defs>
      <path id="DejaVuSans-4b" d="M 628 4666 
L 1259 4666 
L 1259 2694 
L 3353 4666 
L 4166 4666 
L 1850 2491 
L 4331 0 
L 3500 0 
L 1259 2247 
L 1259 0 
L 628 0 
L 628 4666 
z
" transform="scale(0.015625)"/>
     </defs>
     <use xlink:href="#DejaVuSans-50"/>
     <use xlink:href="#DejaVuSans-69" x="58.052734"/>
     <use xlink:href="#DejaVuSans-6e" x="85.835938"/>
     <use xlink:href="#DejaVuSans-65" x="149.214844"/>
     <use xlink:href="#DejaVuSans-20" x="210.738281"/>
     <use xlink:href="#DejaVuSans-4b" x="242.525391"/>
     <use xlink:href="#DejaVuSans-6e" x="308.101562"/>
     <use xlink:href="#DejaVuSans-6f" x="371.480469"/>
     <use xlink:href="#DejaVuSans-62" x="432.662109"/>
    </g>
   </g>
  </g>
  <g id="text_18">
   <!-- Sources: USGS and OpenStreetMaps -->
   <g transform="translate(10.663094 107.817333)scale(0.021739 -0.021739)">
    <defs>
     <path id="DejaVuSans-3a" d="M 750 794 
L 1409 794 
L 1409 0 
L 750 0 
L 750 794 
z
M 750 3309 
L 1409 3309 
L 1409 2516 
L 750 2516 
L 750 3309 
z
" transform="scale(0.015625)"/>
     <path id="DejaVuSans-55" d="M 556 4666 
L 1191 4666 
L 1191 1831 
Q 1191 1081 1462 751 
Q 1734 422 2344 422 
Q 2950 422 3222 751 
Q 3494 1081 3494 1831 
L 3494 4666 
L 4128 4666 
L 4128 1753 
Q 4128 841 3676 375 
Q 3225 -91 2344 -91 
Q 1459 -91 1007 375 
Q 556 841 556 1753 
L 556 4666 
z
" transform="scale(0.015625)"/>
     <path id="DejaVuSans-47" d="M 3809 666 
L 3809 1919 
L 2778 1919 
L 2778 2438 
L 4434 2438 
L 4434 434 
Q 4069 175 3628 42 
Q 3188 -91 2688 -91 
Q 1594 -91 976 548 
Q 359 1188 359 2328 
Q 359 3472 976 4111 
Q 1594 4750 2688 4750 
Q 3144 4750 3555 4637 
Q 3966 4525 4313 4306 
L 4313 3634 
Q 3963 3931 3569 4081 
Q 3175 4231 2741 4231 
Q 1884 4231 1454 3753 
Q 1025 3275 1025 2328 
Q 1025 1384 1454 906 
Q 1884 428 2741 428 
Q 3075 428 3337 486 
Q 3600 544 3809 666 
z
" transform="scale(0.015625)"/>
     <path id="DejaVuSans-4f" d="M 2522 4238 
Q 1834 4238 1429 3725 
Q 1025 3213 1025 2328 
Q 1025 1447 1429 934 
Q 1834 422 2522 422 
Q 3209 422 3611 934 
Q 4013 1447 4013 2328 
Q 4013 3213 3611 3725 
Q 3209 4238 2522 4238 
z
M 2522 4750 
Q 3503 4750 4090 4092 
Q 4678 3434 4678 2328 
Q 4678 1225 4090 567 
Q 3503 -91 2522 -91 
Q 1538 -91 948 565 
Q 359 1222 359 2328 
Q 359 3434 948 4092 
Q 1538 4750 2522 4750 
z
" transform="scale(0.015625)"/>
     <path id="DejaVuSans-74" d="M 1172 4494 
L 1172 3500 
L 2356 3500 
L 2356 3053 
L 1172 3053 
L 1172 1153 
Q 1172 725 1289 603 
Q 1406 481 1766 481 
L 2356 481 
L 2356 0 
L 1766 0 
Q 1100 0 847 248 
Q 594 497 594 1153 
L 594 3053 
L 172 3053 
L 172 3500 
L 594 3500 
L 594 4494 
L 1172 4494 
z
" transform="scale(0.015625)"/>
    </defs>
    <use xlink:href="#DejaVuSans-53"/>
    <use xlink:href="#DejaVuSans-6f" x="63.476562"/>
    <use xlink:href="#DejaVuSans-75" x="124.658203"/>
    <use xlink:href="#DejaVuSans-72" x="188.037109"/>
    <use xlink:href="#DejaVuSans-63" x="226.900391"/>
    <use xlink:href="#DejaVuSans-65" x="281.880859"/>
    <use xlink:href="#DejaVuSans-73" x="343.404297"/>
    <use xlink:href="#DejaVuSans-3a" x="395.503906"/>
    <use xlink:href="#DejaVuSans-20" x="429.195312"/>
    <use xlink:href="#DejaVuSans-55" x="460.982422"/>
    <use xlink:href="#DejaVuSans-53" x="534.175781"/>
    <use xlink:href="#DejaVuSans-47" x="597.652344"/>
    <use xlink:href="#DejaVuSans-53" x="675.142578"/>
    <use xlink:href="#DejaVuSans-20" x="738.619141"/>
    <use xlink:href="#DejaVuSans-61" x="770.40625"/>
    <use xlink:href="#DejaVuSans-6e" x="831.685547"/>
    <use xlink:href="#DejaVuSans-64" x="895.064453"/>
    <use xlink:href="#DejaVuSans-20" x="958.541016"/>
    <use xlink:href="#DejaVuSans-4f" x="990.328125"/>
    <use xlink:href="#DejaVuSans-70" x="1069.039062"/>
    <use xlink:href="#DejaVuSans-65" x="1132.515625"/>
    <use xlink:href="#DejaVuSans-6e" x="1194.039062"/>
    <use xlink:href="#DejaVuSans-53" x="1257.417969"/>
    <use xlink:href="#DejaVuSans-74" x="1320.894531"/>
    <use xlink:href="#DejaVuSans-72" x="1360.103516"/>
    <use xlink:href="#DejaVuSans-65" x="1398.966797"/>
    <use xlink:href="#DejaVuSans-65" x="1460.490234"/>
    <use xlink:href="#DejaVuSans-74" x="1522.013672"/>
    <use xlink:href="#DejaVuSans-4d" x="1561.222656"/>
    <use xlink:href="#DejaVuSans-61" x="1647.501953"/>
    <use xlink:href="#DejaVuSans-70" x="1708.78125"/>
    <use xlink:href="#DejaVuSans-73" x="1772.257812"/>
   </g>
  </g>
 </g>
 <defs>
  <clipPath id="p69bb0f6830">
   <rect x="0" y="7.712915" width="60.986854" height="92.84361"/>
  </clipPath>
 </defs>
</svg>
