<?xml version="1.0" encoding="utf-8" standalone="no"?>
<!DOCTYPE svg PUBLIC "-//W3C//DTD SVG 1.1//EN"
  "http://www.w3.org/Graphics/SVG/1.1/DTD/svg11.dtd">
<svg height="96.430566pt" version="1.1" viewBox="0 0 56.071142 96.430566" width="56.071142pt" xmlns="http://www.w3.org/2000/svg" xmlns:xlink="http://www.w3.org/1999/xlink">
 <metadata>
  <rdf:RDF xmlns:cc="http://creativecommons.org/ns#" xmlns:dc="http://purl.org/dc/elements/1.1/" xmlns:rdf="http://www.w3.org/1999/02/22-rdf-syntax-ns#">
   <cc:Work>
    <dc:type rdf:resource="http://purl.org/dc/dcmitype/StillImage"/>
    <dc:date>2022-05-19T22:35:51.294146</dc:date>
    <dc:format>image/svg+xml</dc:format>
    <dc:creator>
     <cc:Agent>
      <dc:title>Matplotlib v3.4.3, https://matplotlib.org/</dc:title>
     </cc:Agent>
    </dc:creator>
   </cc:Work>
  </rdf:RDF>
 </metadata>
 <defs>
  <style type="text/css">*{stroke-linecap:butt;stroke-linejoin:round;}</style>
 </defs>
 <g id="figure_1">
  <g id="patch_1">
   <path d="M 0 96.430566 
L 56.071142 96.430566 
L 56.071142 0 
L 0 0 
z
" style="fill:none;"/>
  </g>
  <g id="axes_1">
   <g id="line2d_1">
    <path clip-path="url(#pa7f8e91c8a)" d="M 51.784414 74.118735 
L 51.996938 68.914812 
L 52.209462 63.710888 
L 52.421987 58.506965 
L 52.634511 53.303042 
" style="fill:none;stroke:#808080;stroke-linecap:square;stroke-width:0.4;"/>
   </g>
   <g id="line2d_2">
    <path clip-path="url(#pa7f8e91c8a)" d="M 48.432064 74.562409 
L 48.106728 69.482144 
L 47.781391 64.40188 
" style="fill:none;stroke:#808080;stroke-linecap:square;stroke-width:0.4;"/>
   </g>
   <g id="line2d_3">
    <path clip-path="url(#pa7f8e91c8a)" d="M 28.218982 84.7729 
L 28.013009 80.190645 
L 27.807035 75.608389 
L 27.601061 71.026134 
L 27.395087 66.443879 
L 27.189114 61.861623 
L 26.98314 57.279368 
L 26.777166 52.697112 
L 26.571193 48.114857 
L 26.365037 43.532602 
L 26.158881 38.950346 
L 25.952726 34.368091 
L 25.74657 29.785835 
L 25.540414 25.20358 
L 25.334258 20.621325 
L 25.128103 16.039069 
L 24.921947 11.456814 
" style="fill:none;stroke:#808080;stroke-linecap:square;stroke-width:0.4;"/>
   </g>
   <g id="line2d_4">
    <path clip-path="url(#pa7f8e91c8a)" d="M 26.467842 14.787365 
L 27.093041 15.543808 
L 27.718241 16.300252 
L 28.34344 17.056696 
L 28.968639 17.81314 
L 30.446119 18.901839 
L 31.923598 19.990538 
L 33.401077 21.079238 
L 34.878557 22.167937 
L 35.56089 23.76901 
L 36.243224 25.370083 
L 36.925557 26.971155 
L 37.607891 28.572228 
L 37.892105 29.776842 
L 38.17632 30.981456 
L 38.460534 32.18607 
L 38.744749 33.390685 
L 38.787327 34.819634 
L 38.829904 36.248583 
L 38.872482 37.677532 
L 38.915059 39.106481 
L 38.957637 40.535431 
L 39.000215 41.96438 
L 39.042792 43.393329 
L 39.08537 44.822278 
L 39.149327 46.02708 
L 39.213285 47.231881 
L 39.277242 48.436683 
L 39.341199 49.641484 
L 39.405157 50.846286 
L 39.469114 52.051087 
L 39.533072 53.255889 
L 39.597029 54.460691 
L 39.660986 55.665492 
L 39.724944 56.870294 
L 39.788901 58.075095 
L 39.852859 59.279897 
L 39.916816 60.484698 
L 39.980773 61.6895 
L 40.044731 62.894301 
L 40.108688 64.099103 
L 40.080303 65.303717 
L 40.051918 66.508331 
L 40.023533 67.712945 
L 39.995148 68.91756 
L 39.77389 70.479911 
L 39.552632 72.042262 
L 39.313906 73.737016 
L 38.546417 75.137985 
L 37.778929 76.538955 
L 37.01144 77.939925 
L 36.243951 79.340895 
L 35.391672 80.461571 
L 34.539392 81.582247 
" style="fill:none;stroke:#008000;stroke-linecap:square;stroke-width:0.4;"/>
   </g>
   <g id="line2d_5">
    <path clip-path="url(#pa7f8e91c8a)" d="M 26.467842 14.787365 
L 27.357241 15.299988 
L 28.982104 16.236299 
L 30.606967 17.172611 
L 32.231831 18.108922 
L 33.856694 19.045234 
L 34.851445 19.577592 
L 35.846197 20.109951 
L 36.840948 20.642309 
L 37.835699 21.174668 
L 38.83045 21.707026 
L 39.825201 22.239385 
L 40.819953 22.771743 
L 41.814704 23.304102 
L 43.036717 24.396798 
L 44.258731 25.489495 
L 45.480745 26.582191 
L 46.702759 27.674888 
L 47.953157 28.739605 
L 49.203556 29.804322 
L 50.453955 30.869039 
L 51.704354 31.933756 
L 52.158879 33.250787 
L 52.613404 34.567819 
L 53.067929 35.88485 
L 53.522454 37.201882 
L 53.423106 38.224505 
L 53.323758 39.247128 
L 53.224411 40.269751 
L 53.125063 41.292374 
L 53.025715 42.314997 
L 52.926367 43.33762 
L 52.82702 44.360243 
L 52.727672 45.382866 
L 52.287157 46.517532 
L 51.846643 47.652197 
L 51.406129 48.786863 
L 50.965614 49.921528 
L 50.5251 51.056194 
L 50.084585 52.19086 
L 49.644071 53.325525 
L 49.203556 54.460191 
L 48.691897 55.636951 
L 48.180238 56.81371 
L 47.668579 57.99047 
L 47.15692 59.16723 
L 46.645261 60.343989 
L 46.133601 61.520749 
L 45.621942 62.697509 
L 45.110283 63.874268 
L 44.556229 64.742879 
L 44.002174 65.611491 
L 43.448119 66.480102 
L 42.894064 67.348713 
L 42.340009 68.217324 
L 41.785955 69.085936 
L 41.2319 69.954547 
L 40.677845 70.823158 
L 39.552632 72.042262 
" style="fill:none;stroke:#008000;stroke-linecap:square;stroke-width:0.4;"/>
   </g>
   <g id="line2d_6">
    <path clip-path="url(#pa7f8e91c8a)" d="M 46.702759 27.674888 
L 46.873069 28.851772 
L 47.043379 30.028657 
L 47.21369 31.205541 
L 47.384 32.382426 
L 47.554675 33.839355 
L 47.725349 35.296283 
L 47.896023 36.753212 
L 48.066698 38.210141 
L 48.095083 39.61111 
L 48.123468 41.01208 
L 48.151853 42.41305 
L 48.180238 43.81402 
L 48.407682 45.550992 
L 48.635127 47.287965 
L 48.862571 49.024938 
L 49.090016 50.76191 
L 49.146786 52.611051 
L 49.203556 54.460191 
" style="fill:none;stroke:#008000;stroke-linecap:square;stroke-width:0.4;"/>
   </g>
   <g id="line2d_7">
    <path clip-path="url(#pa7f8e91c8a)" d="M 28.968639 17.81314 
L 28.883484 18.905836 
L 28.798329 19.998533 
L 28.713174 21.091229 
L 28.628018 22.183926 
L 28.599633 23.612875 
L 28.571248 25.041824 
L 28.542863 26.470773 
L 28.514478 27.899722 
L 28.486093 29.328672 
L 28.457708 30.757621 
L 28.429323 32.18657 
L 28.400938 33.615519 
L 28.57143 34.988385 
L 28.741923 36.36125 
L 28.912415 37.734116 
L 29.082907 39.106981 
L 29.2534 40.479846 
L 29.423892 41.852712 
L 29.594385 43.225577 
L 29.764877 44.598443 
L 29.935369 45.775202 
L 30.105862 46.951962 
L 30.276354 48.128722 
L 30.446847 49.305481 
L 30.617339 50.482241 
L 30.787831 51.659001 
L 30.958324 52.83576 
L 31.128816 54.01252 
L 31.213971 55.315312 
L 31.299126 56.618104 
L 31.384282 57.920896 
L 31.469437 59.223688 
L 31.554592 60.52648 
L 31.639747 61.829272 
L 31.724903 63.132064 
L 31.810058 64.434856 
L 31.994925 65.709669 
L 32.179792 66.984481 
L 32.364658 68.259294 
L 32.549525 69.534106 
L 32.734392 70.808919 
L 32.919259 72.083731 
L 33.104126 73.358544 
L 33.288993 74.633356 
L 33.089933 75.950388 
L 32.890874 77.267419 
L 32.691815 78.584451 
L 32.492755 79.901482 
L 31.924326 80.713885 
L 31.355897 81.526288 
L 30.787467 82.33869 
L 30.219038 83.151093 
" style="fill:none;stroke:#008000;stroke-linecap:square;stroke-width:0.4;"/>
   </g>
   <g id="line2d_8">
    <path clip-path="url(#pa7f8e91c8a)" d="M 23.351306 16.290259 
L 21.9699 17.653257 
L 20.777727 18.828393 
L 19.585554 20.003529 
L 18.603721 20.971317 
L 17.621889 21.939106 
L 16.791626 22.500817 
L 15.961362 23.062529 
L 15.131099 23.624241 
L 14.300836 24.185953 
L 13.470572 24.747665 
L 12.640309 25.309377 
L 11.810046 25.871089 
L 10.979782 26.432801 
L 10.091839 27.686879 
L 9.203896 28.940957 
L 8.315953 30.195034 
L 7.428009 31.449112 
L 6.334092 32.994976 
L 5.240175 34.540839 
L 4.903739 35.759443 
L 4.567304 36.978047 
L 4.230868 38.19665 
L 3.894432 39.415254 
L 3.557996 40.633858 
L 3.22156 41.852462 
L 2.885124 43.071066 
L 2.548688 44.28967 
L 2.59818 45.630934 
L 2.647672 46.972197 
L 2.697164 48.313461 
L 2.746656 49.654725 
L 2.796148 50.995988 
L 2.84564 52.337252 
L 2.895132 53.678516 
L 2.944624 55.019779 
L 3.203728 56.693549 
L 3.462833 58.367318 
L 3.721938 60.041087 
L 3.981043 61.714856 
L 4.240147 63.388625 
L 4.499252 65.062395 
L 4.758357 66.736164 
L 5.017462 68.409933 
L 5.837808 69.148327 
L 6.658155 69.886722 
L 7.478502 70.625116 
L 8.298849 71.363511 
L 9.119195 72.101905 
L 9.939542 72.8403 
L 10.759889 73.578694 
L 11.580236 74.317089 
L 12.400582 75.055484 
L 13.220929 75.793878 
L 14.041276 76.532273 
L 14.861623 77.270667 
L 15.68197 78.009062 
L 16.502316 78.747456 
L 17.322663 79.485851 
L 18.14301 80.224245 
L 19.217276 80.817934 
L 20.291541 81.411622 
L 21.365807 82.00531 
L 22.440073 82.598999 
L 23.514339 83.192687 
L 24.588604 83.786376 
L 25.66287 84.380064 
L 26.737136 84.973753 
" style="fill:none;stroke:#4169e1;stroke-linecap:square;stroke-width:0.4;"/>
   </g>
   <g id="line2d_9">
    <path clip-path="url(#pa7f8e91c8a)" d="M 19.585554 20.003529 
L 19.920898 20.962699 
L 20.256242 21.921868 
L 20.591586 22.881038 
L 20.92693 23.840208 
L 21.262274 24.799377 
L 21.597619 25.758547 
L 21.932963 26.717717 
L 22.268307 27.676886 
L 22.268307 28.853771 
L 22.268307 30.030655 
L 22.268307 31.20754 
L 22.268307 32.384424 
L 22.268307 33.561309 
L 22.268307 34.738194 
L 22.268307 35.915078 
L 22.268307 37.091963 
L 22.036495 38.211764 
L 21.804684 39.331566 
L 21.572873 40.451367 
L 21.341061 41.571169 
L 21.10925 42.69097 
L 20.877438 43.810772 
L 20.645627 44.930574 
L 20.413816 46.050375 
L 20.321018 47.604232 
L 20.228221 49.15809 
L 20.135423 50.711947 
L 20.042626 52.265805 
L 20.030981 53.545613 
L 20.019336 54.825422 
L 20.007691 56.105231 
L 19.996045 57.38504 
L 19.9844 58.664849 
L 19.972755 59.944658 
L 19.96111 61.224467 
L 19.949465 62.504276 
L 20.202747 63.595973 
L 20.456029 64.68767 
L 20.885808 66.541307 
L 21.315587 68.394944 
L 21.745366 70.248581 
L 22.175146 72.102218 
L 22.72356 73.909888 
L 23.271974 75.717559 
L 23.820388 77.52523 
L 24.368802 79.332901 
L 24.756004 80.607963 
L 25.143205 81.883025 
L 25.940171 83.428389 
L 26.737136 84.973753 
" style="fill:none;stroke:#008000;stroke-linecap:square;stroke-width:0.4;"/>
   </g>
   <g id="line2d_10">
    <path clip-path="url(#pa7f8e91c8a)" d="M 7.428009 31.449112 
L 7.777 32.471361 
L 8.125991 33.493609 
L 8.474982 34.515857 
L 8.823973 35.538105 
L 9.102001 36.657782 
L 9.380029 37.777459 
L 9.658057 38.897135 
L 9.936085 40.016812 
L 10.052173 41.707818 
L 10.16826 43.398825 
L 10.284348 45.089831 
L 10.400436 46.780838 
L 10.307638 47.969214 
L 10.214841 49.15759 
L 10.122044 50.345966 
L 10.029246 51.534342 
L 9.936449 52.722719 
L 9.843652 53.911095 
L 9.750854 55.099471 
L 9.658057 56.287847 
L 9.889504 57.979103 
L 10.120952 59.67036 
L 10.538358 60.927185 
L 10.955764 62.184011 
L 11.37317 63.440837 
L 11.790576 64.697663 
L 12.416504 66.297486 
L 13.042431 67.89731 
L 13.668358 69.497133 
L 14.294285 71.096957 
L 15.152024 72.125201 
L 16.009763 73.153445 
L 16.867501 74.181689 
L 17.72524 75.209932 
L 18.81479 75.918411 
L 19.90434 76.62689 
L 20.99389 77.335369 
L 22.08344 78.043848 
L 23.226121 78.688375 
L 24.368802 79.332901 
" style="fill:none;stroke:#4169e1;stroke-linecap:square;stroke-width:0.4;"/>
   </g>
   <g id="line2d_11">
    <path clip-path="url(#pa7f8e91c8a)" d="M 8.823973 35.538105 
L 9.890232 36.36075 
L 10.956492 37.183396 
L 12.022752 38.006041 
L 13.089011 38.828686 
L 13.483127 40.611125 
L 13.877243 42.393564 
L 14.271359 44.176003 
L 14.665475 45.958443 
L 14.804489 47.283968 
L 14.943503 48.609493 
L 15.082517 49.935019 
L 15.221531 51.260544 
L 15.499559 52.51737 
L 15.777587 53.774195 
L 16.055615 55.031021 
L 16.333643 56.287847 
L 16.843847 57.841704 
L 17.35405 59.395562 
L 18.129545 60.718589 
L 18.90504 62.041616 
L 19.680535 63.364643 
L 20.456029 64.68767 
" style="fill:none;stroke:#4169e1;stroke-linecap:square;stroke-width:0.4;"/>
   </g>
   <g id="line2d_12">
    <path clip-path="url(#pa7f8e91c8a)" d="M 46.653267 64.745627 
L 46.175815 66.289492 
L 46.09066 67.296002 
L 46.005505 68.302512 
L 45.92035 69.309022 
L 45.835194 70.315532 
L 45.90361 72.160675 
L 45.972025 74.005818 
L 46.379605 75.414782 
" style="fill:none;stroke:#008000;stroke-linecap:square;stroke-width:0.4;"/>
   </g>
   <g id="text_1">
    <g id="patch_2">
     <path d="M 53.18742 64.076251 
L 53.206354 63.400891 
L 51.231505 63.345526 
L 51.212571 64.020886 
z
" style="fill:#ffffff;"/>
    </g>
    <!--   -->
    <g style="fill:#808080;" transform="translate(52.752214 64.044042)rotate(-88.394125)scale(0.02 -0.02)">
     <defs>
      <path id="DejaVuSans-20" transform="scale(0.015625)"/>
     </defs>
     <use xlink:href="#DejaVuSans-20"/>
    </g>
   </g>
   <g id="text_2">
    <g id="patch_3">
     <path d="M 47.105032 69.188042 
L 47.134705 69.863015 
L 49.108424 69.776247 
L 49.078751 69.101274 
z
" style="fill:#ffffff;"/>
    </g>
    <!--   -->
    <g style="fill:#808080;" transform="translate(47.541427 69.188876)rotate(-272.517185)scale(0.02 -0.02)">
     <use xlink:href="#DejaVuSans-20"/>
    </g>
   </g>
   <g id="text_3">
    <g id="patch_4">
     <path d="M 25.573431 47.807672 
L 25.594269 48.482976 
L 27.568954 48.422042 
L 27.548116 47.746738 
z
" style="fill:#ffffff;"/>
    </g>
    <!--   -->
    <g style="fill:#808080;" transform="translate(26.009778 47.814217)rotate(-271.767432)scale(0.02 -0.02)">
     <use xlink:href="#DejaVuSans-20"/>
    </g>
   </g>
   <g id="text_4">
    <g id="patch_5">
     <path d="M 37.841421 37.261396 
L 38.482919 54.864711 
L 40.457233 54.792764 
L 39.815736 37.189448 
z
" style="fill:#ffffff;"/>
    </g>
    <!-- Main Street 14.2° -->
    <g style="fill:#008000;" transform="translate(38.277798 37.265507)rotate(-272.087041)scale(0.02 -0.02)">
     <defs>
      <path d="M 628 4666 
L 1569 4666 
L 2759 1491 
L 3956 4666 
L 4897 4666 
L 4897 0 
L 4281 0 
L 4281 4097 
L 3078 897 
L 2444 897 
L 1241 4097 
L 1241 0 
L 628 0 
L 628 4666 
z
" id="DejaVuSans-4d" transform="scale(0.015625)"/>
      <path d="M 2194 1759 
Q 1497 1759 1228 1600 
Q 959 1441 959 1056 
Q 959 750 1161 570 
Q 1363 391 1709 391 
Q 2188 391 2477 730 
Q 2766 1069 2766 1631 
L 2766 1759 
L 2194 1759 
z
M 3341 1997 
L 3341 0 
L 2766 0 
L 2766 531 
Q 2569 213 2275 61 
Q 1981 -91 1556 -91 
Q 1019 -91 701 211 
Q 384 513 384 1019 
Q 384 1609 779 1909 
Q 1175 2209 1959 2209 
L 2766 2209 
L 2766 2266 
Q 2766 2663 2505 2880 
Q 2244 3097 1772 3097 
Q 1472 3097 1187 3025 
Q 903 2953 641 2809 
L 641 3341 
Q 956 3463 1253 3523 
Q 1550 3584 1831 3584 
Q 2591 3584 2966 3190 
Q 3341 2797 3341 1997 
z
" id="DejaVuSans-61" transform="scale(0.015625)"/>
      <path d="M 603 3500 
L 1178 3500 
L 1178 0 
L 603 0 
L 603 3500 
z
M 603 4863 
L 1178 4863 
L 1178 4134 
L 603 4134 
L 603 4863 
z
" id="DejaVuSans-69" transform="scale(0.015625)"/>
      <path d="M 3513 2113 
L 3513 0 
L 2938 0 
L 2938 2094 
Q 2938 2591 2744 2837 
Q 2550 3084 2163 3084 
Q 1697 3084 1428 2787 
Q 1159 2491 1159 1978 
L 1159 0 
L 581 0 
L 581 3500 
L 1159 3500 
L 1159 2956 
Q 1366 3272 1645 3428 
Q 1925 3584 2291 3584 
Q 2894 3584 3203 3211 
Q 3513 2838 3513 2113 
z
" id="DejaVuSans-6e" transform="scale(0.015625)"/>
      <path d="M 3425 4513 
L 3425 3897 
Q 3066 4069 2747 4153 
Q 2428 4238 2131 4238 
Q 1616 4238 1336 4038 
Q 1056 3838 1056 3469 
Q 1056 3159 1242 3001 
Q 1428 2844 1947 2747 
L 2328 2669 
Q 3034 2534 3370 2195 
Q 3706 1856 3706 1288 
Q 3706 609 3251 259 
Q 2797 -91 1919 -91 
Q 1588 -91 1214 -16 
Q 841 59 441 206 
L 441 856 
Q 825 641 1194 531 
Q 1563 422 1919 422 
Q 2459 422 2753 634 
Q 3047 847 3047 1241 
Q 3047 1584 2836 1778 
Q 2625 1972 2144 2069 
L 1759 2144 
Q 1053 2284 737 2584 
Q 422 2884 422 3419 
Q 422 4038 858 4394 
Q 1294 4750 2059 4750 
Q 2388 4750 2728 4690 
Q 3069 4631 3425 4513 
z
" id="DejaVuSans-53" transform="scale(0.015625)"/>
      <path d="M 1172 4494 
L 1172 3500 
L 2356 3500 
L 2356 3053 
L 1172 3053 
L 1172 1153 
Q 1172 725 1289 603 
Q 1406 481 1766 481 
L 2356 481 
L 2356 0 
L 1766 0 
Q 1100 0 847 248 
Q 594 497 594 1153 
L 594 3053 
L 172 3053 
L 172 3500 
L 594 3500 
L 594 4494 
L 1172 4494 
z
" id="DejaVuSans-74" transform="scale(0.015625)"/>
      <path d="M 2631 2963 
Q 2534 3019 2420 3045 
Q 2306 3072 2169 3072 
Q 1681 3072 1420 2755 
Q 1159 2438 1159 1844 
L 1159 0 
L 581 0 
L 581 3500 
L 1159 3500 
L 1159 2956 
Q 1341 3275 1631 3429 
Q 1922 3584 2338 3584 
Q 2397 3584 2469 3576 
Q 2541 3569 2628 3553 
L 2631 2963 
z
" id="DejaVuSans-72" transform="scale(0.015625)"/>
      <path d="M 3597 1894 
L 3597 1613 
L 953 1613 
Q 991 1019 1311 708 
Q 1631 397 2203 397 
Q 2534 397 2845 478 
Q 3156 559 3463 722 
L 3463 178 
Q 3153 47 2828 -22 
Q 2503 -91 2169 -91 
Q 1331 -91 842 396 
Q 353 884 353 1716 
Q 353 2575 817 3079 
Q 1281 3584 2069 3584 
Q 2775 3584 3186 3129 
Q 3597 2675 3597 1894 
z
M 3022 2063 
Q 3016 2534 2758 2815 
Q 2500 3097 2075 3097 
Q 1594 3097 1305 2825 
Q 1016 2553 972 2059 
L 3022 2063 
z
" id="DejaVuSans-65" transform="scale(0.015625)"/>
      <path d="M 794 531 
L 1825 531 
L 1825 4091 
L 703 3866 
L 703 4441 
L 1819 4666 
L 2450 4666 
L 2450 531 
L 3481 531 
L 3481 0 
L 794 0 
L 794 531 
z
" id="DejaVuSans-31" transform="scale(0.015625)"/>
      <path d="M 2419 4116 
L 825 1625 
L 2419 1625 
L 2419 4116 
z
M 2253 4666 
L 3047 4666 
L 3047 1625 
L 3713 1625 
L 3713 1100 
L 3047 1100 
L 3047 0 
L 2419 0 
L 2419 1100 
L 313 1100 
L 313 1709 
L 2253 4666 
z
" id="DejaVuSans-34" transform="scale(0.015625)"/>
      <path d="M 684 794 
L 1344 794 
L 1344 0 
L 684 0 
L 684 794 
z
" id="DejaVuSans-2e" transform="scale(0.015625)"/>
      <path d="M 1228 531 
L 3431 531 
L 3431 0 
L 469 0 
L 469 531 
Q 828 903 1448 1529 
Q 2069 2156 2228 2338 
Q 2531 2678 2651 2914 
Q 2772 3150 2772 3378 
Q 2772 3750 2511 3984 
Q 2250 4219 1831 4219 
Q 1534 4219 1204 4116 
Q 875 4013 500 3803 
L 500 4441 
Q 881 4594 1212 4672 
Q 1544 4750 1819 4750 
Q 2544 4750 2975 4387 
Q 3406 4025 3406 3419 
Q 3406 3131 3298 2873 
Q 3191 2616 2906 2266 
Q 2828 2175 2409 1742 
Q 1991 1309 1228 531 
z
" id="DejaVuSans-32" transform="scale(0.015625)"/>
      <path d="M 1600 4347 
Q 1350 4347 1178 4173 
Q 1006 4000 1006 3750 
Q 1006 3503 1178 3333 
Q 1350 3163 1600 3163 
Q 1850 3163 2022 3333 
Q 2194 3503 2194 3750 
Q 2194 3997 2020 4172 
Q 1847 4347 1600 4347 
z
M 1600 4750 
Q 1800 4750 1984 4673 
Q 2169 4597 2303 4453 
Q 2447 4313 2519 4134 
Q 2591 3956 2591 3750 
Q 2591 3338 2302 3052 
Q 2013 2766 1594 2766 
Q 1172 2766 890 3047 
Q 609 3328 609 3750 
Q 609 4169 896 4459 
Q 1184 4750 1600 4750 
z
" id="DejaVuSans-b0" transform="scale(0.015625)"/>
     </defs>
     <use xlink:href="#DejaVuSans-4d"/>
     <use x="86.279297" xlink:href="#DejaVuSans-61"/>
     <use x="147.558594" xlink:href="#DejaVuSans-69"/>
     <use x="175.341797" xlink:href="#DejaVuSans-6e"/>
     <use x="238.720703" xlink:href="#DejaVuSans-20"/>
     <use x="270.507812" xlink:href="#DejaVuSans-53"/>
     <use x="333.984375" xlink:href="#DejaVuSans-74"/>
     <use x="373.193359" xlink:href="#DejaVuSans-72"/>
     <use x="412.056641" xlink:href="#DejaVuSans-65"/>
     <use x="473.580078" xlink:href="#DejaVuSans-65"/>
     <use x="535.103516" xlink:href="#DejaVuSans-74"/>
     <use x="574.3125" xlink:href="#DejaVuSans-20"/>
     <use x="606.099609" xlink:href="#DejaVuSans-31"/>
     <use x="669.722656" xlink:href="#DejaVuSans-34"/>
     <use x="733.345703" xlink:href="#DejaVuSans-2e"/>
     <use x="765.132812" xlink:href="#DejaVuSans-32"/>
     <use x="828.755859" xlink:href="#DejaVuSans-b0"/>
    </g>
   </g>
   <g id="text_5">
    <g id="patch_6">
     <path d="M 47.511715 64.644078 
L 52.804389 44.785074 
L 50.895397 44.276304 
L 45.602724 64.135308 
z
" style="fill:#ffffff;"/>
    </g>
    <!-- Diamond Flats 11.9° -->
    <g style="fill:#008000;" transform="translate(47.095631 64.512488)rotate(-75.076827)scale(0.02 -0.02)">
     <defs>
      <path d="M 1259 4147 
L 1259 519 
L 2022 519 
Q 2988 519 3436 956 
Q 3884 1394 3884 2338 
Q 3884 3275 3436 3711 
Q 2988 4147 2022 4147 
L 1259 4147 
z
M 628 4666 
L 1925 4666 
Q 3281 4666 3915 4102 
Q 4550 3538 4550 2338 
Q 4550 1131 3912 565 
Q 3275 0 1925 0 
L 628 0 
L 628 4666 
z
" id="DejaVuSans-44" transform="scale(0.015625)"/>
      <path d="M 3328 2828 
Q 3544 3216 3844 3400 
Q 4144 3584 4550 3584 
Q 5097 3584 5394 3201 
Q 5691 2819 5691 2113 
L 5691 0 
L 5113 0 
L 5113 2094 
Q 5113 2597 4934 2840 
Q 4756 3084 4391 3084 
Q 3944 3084 3684 2787 
Q 3425 2491 3425 1978 
L 3425 0 
L 2847 0 
L 2847 2094 
Q 2847 2600 2669 2842 
Q 2491 3084 2119 3084 
Q 1678 3084 1418 2786 
Q 1159 2488 1159 1978 
L 1159 0 
L 581 0 
L 581 3500 
L 1159 3500 
L 1159 2956 
Q 1356 3278 1631 3431 
Q 1906 3584 2284 3584 
Q 2666 3584 2933 3390 
Q 3200 3197 3328 2828 
z
" id="DejaVuSans-6d" transform="scale(0.015625)"/>
      <path d="M 1959 3097 
Q 1497 3097 1228 2736 
Q 959 2375 959 1747 
Q 959 1119 1226 758 
Q 1494 397 1959 397 
Q 2419 397 2687 759 
Q 2956 1122 2956 1747 
Q 2956 2369 2687 2733 
Q 2419 3097 1959 3097 
z
M 1959 3584 
Q 2709 3584 3137 3096 
Q 3566 2609 3566 1747 
Q 3566 888 3137 398 
Q 2709 -91 1959 -91 
Q 1206 -91 779 398 
Q 353 888 353 1747 
Q 353 2609 779 3096 
Q 1206 3584 1959 3584 
z
" id="DejaVuSans-6f" transform="scale(0.015625)"/>
      <path d="M 2906 2969 
L 2906 4863 
L 3481 4863 
L 3481 0 
L 2906 0 
L 2906 525 
Q 2725 213 2448 61 
Q 2172 -91 1784 -91 
Q 1150 -91 751 415 
Q 353 922 353 1747 
Q 353 2572 751 3078 
Q 1150 3584 1784 3584 
Q 2172 3584 2448 3432 
Q 2725 3281 2906 2969 
z
M 947 1747 
Q 947 1113 1208 752 
Q 1469 391 1925 391 
Q 2381 391 2643 752 
Q 2906 1113 2906 1747 
Q 2906 2381 2643 2742 
Q 2381 3103 1925 3103 
Q 1469 3103 1208 2742 
Q 947 2381 947 1747 
z
" id="DejaVuSans-64" transform="scale(0.015625)"/>
      <path d="M 628 4666 
L 3309 4666 
L 3309 4134 
L 1259 4134 
L 1259 2759 
L 3109 2759 
L 3109 2228 
L 1259 2228 
L 1259 0 
L 628 0 
L 628 4666 
z
" id="DejaVuSans-46" transform="scale(0.015625)"/>
      <path d="M 603 4863 
L 1178 4863 
L 1178 0 
L 603 0 
L 603 4863 
z
" id="DejaVuSans-6c" transform="scale(0.015625)"/>
      <path d="M 2834 3397 
L 2834 2853 
Q 2591 2978 2328 3040 
Q 2066 3103 1784 3103 
Q 1356 3103 1142 2972 
Q 928 2841 928 2578 
Q 928 2378 1081 2264 
Q 1234 2150 1697 2047 
L 1894 2003 
Q 2506 1872 2764 1633 
Q 3022 1394 3022 966 
Q 3022 478 2636 193 
Q 2250 -91 1575 -91 
Q 1294 -91 989 -36 
Q 684 19 347 128 
L 347 722 
Q 666 556 975 473 
Q 1284 391 1588 391 
Q 1994 391 2212 530 
Q 2431 669 2431 922 
Q 2431 1156 2273 1281 
Q 2116 1406 1581 1522 
L 1381 1569 
Q 847 1681 609 1914 
Q 372 2147 372 2553 
Q 372 3047 722 3315 
Q 1072 3584 1716 3584 
Q 2034 3584 2315 3537 
Q 2597 3491 2834 3397 
z
" id="DejaVuSans-73" transform="scale(0.015625)"/>
      <path d="M 703 97 
L 703 672 
Q 941 559 1184 500 
Q 1428 441 1663 441 
Q 2288 441 2617 861 
Q 2947 1281 2994 2138 
Q 2813 1869 2534 1725 
Q 2256 1581 1919 1581 
Q 1219 1581 811 2004 
Q 403 2428 403 3163 
Q 403 3881 828 4315 
Q 1253 4750 1959 4750 
Q 2769 4750 3195 4129 
Q 3622 3509 3622 2328 
Q 3622 1225 3098 567 
Q 2575 -91 1691 -91 
Q 1453 -91 1209 -44 
Q 966 3 703 97 
z
M 1959 2075 
Q 2384 2075 2632 2365 
Q 2881 2656 2881 3163 
Q 2881 3666 2632 3958 
Q 2384 4250 1959 4250 
Q 1534 4250 1286 3958 
Q 1038 3666 1038 3163 
Q 1038 2656 1286 2365 
Q 1534 2075 1959 2075 
z
" id="DejaVuSans-39" transform="scale(0.015625)"/>
     </defs>
     <use xlink:href="#DejaVuSans-44"/>
     <use x="77.001953" xlink:href="#DejaVuSans-69"/>
     <use x="104.785156" xlink:href="#DejaVuSans-61"/>
     <use x="166.064453" xlink:href="#DejaVuSans-6d"/>
     <use x="263.476562" xlink:href="#DejaVuSans-6f"/>
     <use x="324.658203" xlink:href="#DejaVuSans-6e"/>
     <use x="388.037109" xlink:href="#DejaVuSans-64"/>
     <use x="451.513672" xlink:href="#DejaVuSans-20"/>
     <use x="483.300781" xlink:href="#DejaVuSans-46"/>
     <use x="540.820312" xlink:href="#DejaVuSans-6c"/>
     <use x="568.603516" xlink:href="#DejaVuSans-61"/>
     <use x="629.882812" xlink:href="#DejaVuSans-74"/>
     <use x="669.091797" xlink:href="#DejaVuSans-73"/>
     <use x="721.191406" xlink:href="#DejaVuSans-20"/>
     <use x="752.978516" xlink:href="#DejaVuSans-31"/>
     <use x="816.601562" xlink:href="#DejaVuSans-31"/>
     <use x="880.224609" xlink:href="#DejaVuSans-2e"/>
     <use x="912.011719" xlink:href="#DejaVuSans-39"/>
     <use x="975.634766" xlink:href="#DejaVuSans-b0"/>
    </g>
   </g>
   <g id="text_6">
    <g id="patch_7">
     <path d="M 47.003265 32.14026 
L 47.211467 47.109437 
L 49.186901 47.081961 
L 48.978699 32.112784 
z
" style="fill:#ffffff;"/>
    </g>
    <!-- Half Pipe 13.6° -->
    <g style="fill:#008000;" transform="translate(47.439438 32.154195)rotate(-270.796859)scale(0.02 -0.02)">
     <defs>
      <path d="M 628 4666 
L 1259 4666 
L 1259 2753 
L 3553 2753 
L 3553 4666 
L 4184 4666 
L 4184 0 
L 3553 0 
L 3553 2222 
L 1259 2222 
L 1259 0 
L 628 0 
L 628 4666 
z
" id="DejaVuSans-48" transform="scale(0.015625)"/>
      <path d="M 2375 4863 
L 2375 4384 
L 1825 4384 
Q 1516 4384 1395 4259 
Q 1275 4134 1275 3809 
L 1275 3500 
L 2222 3500 
L 2222 3053 
L 1275 3053 
L 1275 0 
L 697 0 
L 697 3053 
L 147 3053 
L 147 3500 
L 697 3500 
L 697 3744 
Q 697 4328 969 4595 
Q 1241 4863 1831 4863 
L 2375 4863 
z
" id="DejaVuSans-66" transform="scale(0.015625)"/>
      <path d="M 1259 4147 
L 1259 2394 
L 2053 2394 
Q 2494 2394 2734 2622 
Q 2975 2850 2975 3272 
Q 2975 3691 2734 3919 
Q 2494 4147 2053 4147 
L 1259 4147 
z
M 628 4666 
L 2053 4666 
Q 2838 4666 3239 4311 
Q 3641 3956 3641 3272 
Q 3641 2581 3239 2228 
Q 2838 1875 2053 1875 
L 1259 1875 
L 1259 0 
L 628 0 
L 628 4666 
z
" id="DejaVuSans-50" transform="scale(0.015625)"/>
      <path d="M 1159 525 
L 1159 -1331 
L 581 -1331 
L 581 3500 
L 1159 3500 
L 1159 2969 
Q 1341 3281 1617 3432 
Q 1894 3584 2278 3584 
Q 2916 3584 3314 3078 
Q 3713 2572 3713 1747 
Q 3713 922 3314 415 
Q 2916 -91 2278 -91 
Q 1894 -91 1617 61 
Q 1341 213 1159 525 
z
M 3116 1747 
Q 3116 2381 2855 2742 
Q 2594 3103 2138 3103 
Q 1681 3103 1420 2742 
Q 1159 2381 1159 1747 
Q 1159 1113 1420 752 
Q 1681 391 2138 391 
Q 2594 391 2855 752 
Q 3116 1113 3116 1747 
z
" id="DejaVuSans-70" transform="scale(0.015625)"/>
      <path d="M 2597 2516 
Q 3050 2419 3304 2112 
Q 3559 1806 3559 1356 
Q 3559 666 3084 287 
Q 2609 -91 1734 -91 
Q 1441 -91 1130 -33 
Q 819 25 488 141 
L 488 750 
Q 750 597 1062 519 
Q 1375 441 1716 441 
Q 2309 441 2620 675 
Q 2931 909 2931 1356 
Q 2931 1769 2642 2001 
Q 2353 2234 1838 2234 
L 1294 2234 
L 1294 2753 
L 1863 2753 
Q 2328 2753 2575 2939 
Q 2822 3125 2822 3475 
Q 2822 3834 2567 4026 
Q 2313 4219 1838 4219 
Q 1578 4219 1281 4162 
Q 984 4106 628 3988 
L 628 4550 
Q 988 4650 1302 4700 
Q 1616 4750 1894 4750 
Q 2613 4750 3031 4423 
Q 3450 4097 3450 3541 
Q 3450 3153 3228 2886 
Q 3006 2619 2597 2516 
z
" id="DejaVuSans-33" transform="scale(0.015625)"/>
      <path d="M 2113 2584 
Q 1688 2584 1439 2293 
Q 1191 2003 1191 1497 
Q 1191 994 1439 701 
Q 1688 409 2113 409 
Q 2538 409 2786 701 
Q 3034 994 3034 1497 
Q 3034 2003 2786 2293 
Q 2538 2584 2113 2584 
z
M 3366 4563 
L 3366 3988 
Q 3128 4100 2886 4159 
Q 2644 4219 2406 4219 
Q 1781 4219 1451 3797 
Q 1122 3375 1075 2522 
Q 1259 2794 1537 2939 
Q 1816 3084 2150 3084 
Q 2853 3084 3261 2657 
Q 3669 2231 3669 1497 
Q 3669 778 3244 343 
Q 2819 -91 2113 -91 
Q 1303 -91 875 529 
Q 447 1150 447 2328 
Q 447 3434 972 4092 
Q 1497 4750 2381 4750 
Q 2619 4750 2861 4703 
Q 3103 4656 3366 4563 
z
" id="DejaVuSans-36" transform="scale(0.015625)"/>
     </defs>
     <use xlink:href="#DejaVuSans-48"/>
     <use x="75.195312" xlink:href="#DejaVuSans-61"/>
     <use x="136.474609" xlink:href="#DejaVuSans-6c"/>
     <use x="164.257812" xlink:href="#DejaVuSans-66"/>
     <use x="199.462891" xlink:href="#DejaVuSans-20"/>
     <use x="231.25" xlink:href="#DejaVuSans-50"/>
     <use x="289.302734" xlink:href="#DejaVuSans-69"/>
     <use x="317.085938" xlink:href="#DejaVuSans-70"/>
     <use x="380.5625" xlink:href="#DejaVuSans-65"/>
     <use x="442.085938" xlink:href="#DejaVuSans-20"/>
     <use x="473.873047" xlink:href="#DejaVuSans-31"/>
     <use x="537.496094" xlink:href="#DejaVuSans-33"/>
     <use x="601.119141" xlink:href="#DejaVuSans-2e"/>
     <use x="632.90625" xlink:href="#DejaVuSans-36"/>
     <use x="696.529297" xlink:href="#DejaVuSans-b0"/>
    </g>
   </g>
   <g id="text_7">
    <g id="patch_8">
     <path d="M 29.371478 36.846755 
L 29.576149 21.837526 
L 27.600708 21.810588 
L 27.396037 36.819817 
z
" style="fill:#ffffff;"/>
    </g>
    <!-- Jump Hill 16.8° -->
    <g style="fill:#008000;" transform="translate(28.935854 36.820813)rotate(-89.218742)scale(0.02 -0.02)">
     <defs>
      <path d="M 628 4666 
L 1259 4666 
L 1259 325 
Q 1259 -519 939 -900 
Q 619 -1281 -91 -1281 
L -331 -1281 
L -331 -750 
L -134 -750 
Q 284 -750 456 -515 
Q 628 -281 628 325 
L 628 4666 
z
" id="DejaVuSans-4a" transform="scale(0.015625)"/>
      <path d="M 544 1381 
L 544 3500 
L 1119 3500 
L 1119 1403 
Q 1119 906 1312 657 
Q 1506 409 1894 409 
Q 2359 409 2629 706 
Q 2900 1003 2900 1516 
L 2900 3500 
L 3475 3500 
L 3475 0 
L 2900 0 
L 2900 538 
Q 2691 219 2414 64 
Q 2138 -91 1772 -91 
Q 1169 -91 856 284 
Q 544 659 544 1381 
z
M 1991 3584 
L 1991 3584 
z
" id="DejaVuSans-75" transform="scale(0.015625)"/>
      <path d="M 2034 2216 
Q 1584 2216 1326 1975 
Q 1069 1734 1069 1313 
Q 1069 891 1326 650 
Q 1584 409 2034 409 
Q 2484 409 2743 651 
Q 3003 894 3003 1313 
Q 3003 1734 2745 1975 
Q 2488 2216 2034 2216 
z
M 1403 2484 
Q 997 2584 770 2862 
Q 544 3141 544 3541 
Q 544 4100 942 4425 
Q 1341 4750 2034 4750 
Q 2731 4750 3128 4425 
Q 3525 4100 3525 3541 
Q 3525 3141 3298 2862 
Q 3072 2584 2669 2484 
Q 3125 2378 3379 2068 
Q 3634 1759 3634 1313 
Q 3634 634 3220 271 
Q 2806 -91 2034 -91 
Q 1263 -91 848 271 
Q 434 634 434 1313 
Q 434 1759 690 2068 
Q 947 2378 1403 2484 
z
M 1172 3481 
Q 1172 3119 1398 2916 
Q 1625 2713 2034 2713 
Q 2441 2713 2670 2916 
Q 2900 3119 2900 3481 
Q 2900 3844 2670 4047 
Q 2441 4250 2034 4250 
Q 1625 4250 1398 4047 
Q 1172 3844 1172 3481 
z
" id="DejaVuSans-38" transform="scale(0.015625)"/>
     </defs>
     <use xlink:href="#DejaVuSans-4a"/>
     <use x="29.492188" xlink:href="#DejaVuSans-75"/>
     <use x="92.871094" xlink:href="#DejaVuSans-6d"/>
     <use x="190.283203" xlink:href="#DejaVuSans-70"/>
     <use x="253.759766" xlink:href="#DejaVuSans-20"/>
     <use x="285.546875" xlink:href="#DejaVuSans-48"/>
     <use x="360.742188" xlink:href="#DejaVuSans-69"/>
     <use x="388.525391" xlink:href="#DejaVuSans-6c"/>
     <use x="416.308594" xlink:href="#DejaVuSans-6c"/>
     <use x="444.091797" xlink:href="#DejaVuSans-20"/>
     <use x="475.878906" xlink:href="#DejaVuSans-31"/>
     <use x="539.501953" xlink:href="#DejaVuSans-36"/>
     <use x="603.125" xlink:href="#DejaVuSans-2e"/>
     <use x="634.912109" xlink:href="#DejaVuSans-38"/>
     <use x="698.535156" xlink:href="#DejaVuSans-b0"/>
    </g>
   </g>
   <g id="text_8">
    <g id="patch_9">
     <path d="M 1.754053 47.027834 
L 2.160202 63.061753 
L 4.135194 63.011725 
L 3.729045 46.977806 
z
" style="fill:#ffffff;"/>
    </g>
    <!-- Southside 17.3° -->
    <g style="fill:#4169e1;" transform="translate(2.190358 47.036788)rotate(-271.451026)scale(0.02 -0.02)">
     <defs>
      <path d="M 3513 2113 
L 3513 0 
L 2938 0 
L 2938 2094 
Q 2938 2591 2744 2837 
Q 2550 3084 2163 3084 
Q 1697 3084 1428 2787 
Q 1159 2491 1159 1978 
L 1159 0 
L 581 0 
L 581 4863 
L 1159 4863 
L 1159 2956 
Q 1366 3272 1645 3428 
Q 1925 3584 2291 3584 
Q 2894 3584 3203 3211 
Q 3513 2838 3513 2113 
z
" id="DejaVuSans-68" transform="scale(0.015625)"/>
      <path d="M 525 4666 
L 3525 4666 
L 3525 4397 
L 1831 0 
L 1172 0 
L 2766 4134 
L 525 4134 
L 525 4666 
z
" id="DejaVuSans-37" transform="scale(0.015625)"/>
     </defs>
     <use xlink:href="#DejaVuSans-53"/>
     <use x="63.476562" xlink:href="#DejaVuSans-6f"/>
     <use x="124.658203" xlink:href="#DejaVuSans-75"/>
     <use x="188.037109" xlink:href="#DejaVuSans-74"/>
     <use x="227.246094" xlink:href="#DejaVuSans-68"/>
     <use x="290.625" xlink:href="#DejaVuSans-73"/>
     <use x="342.724609" xlink:href="#DejaVuSans-69"/>
     <use x="370.507812" xlink:href="#DejaVuSans-64"/>
     <use x="433.984375" xlink:href="#DejaVuSans-65"/>
     <use x="495.507812" xlink:href="#DejaVuSans-20"/>
     <use x="527.294922" xlink:href="#DejaVuSans-31"/>
     <use x="590.917969" xlink:href="#DejaVuSans-37"/>
     <use x="654.541016" xlink:href="#DejaVuSans-2e"/>
     <use x="686.328125" xlink:href="#DejaVuSans-33"/>
     <use x="749.951172" xlink:href="#DejaVuSans-b0"/>
    </g>
   </g>
   <g id="text_9">
    <g id="patch_10">
     <path d="M 21.280494 31.069932 
L 21.280494 43.113994 
L 23.256119 43.113994 
L 23.256119 31.069932 
z
" style="fill:#ffffff;"/>
    </g>
    <!-- Abbot 16.2° -->
    <g style="fill:#008000;" transform="translate(21.716432 31.089932)rotate(-270)scale(0.02 -0.02)">
     <defs>
      <path d="M 2188 4044 
L 1331 1722 
L 3047 1722 
L 2188 4044 
z
M 1831 4666 
L 2547 4666 
L 4325 0 
L 3669 0 
L 3244 1197 
L 1141 1197 
L 716 0 
L 50 0 
L 1831 4666 
z
" id="DejaVuSans-41" transform="scale(0.015625)"/>
      <path d="M 3116 1747 
Q 3116 2381 2855 2742 
Q 2594 3103 2138 3103 
Q 1681 3103 1420 2742 
Q 1159 2381 1159 1747 
Q 1159 1113 1420 752 
Q 1681 391 2138 391 
Q 2594 391 2855 752 
Q 3116 1113 3116 1747 
z
M 1159 2969 
Q 1341 3281 1617 3432 
Q 1894 3584 2278 3584 
Q 2916 3584 3314 3078 
Q 3713 2572 3713 1747 
Q 3713 922 3314 415 
Q 2916 -91 2278 -91 
Q 1894 -91 1617 61 
Q 1341 213 1159 525 
L 1159 0 
L 581 0 
L 581 4863 
L 1159 4863 
L 1159 2969 
z
" id="DejaVuSans-62" transform="scale(0.015625)"/>
     </defs>
     <use xlink:href="#DejaVuSans-41"/>
     <use x="68.408203" xlink:href="#DejaVuSans-62"/>
     <use x="131.884766" xlink:href="#DejaVuSans-62"/>
     <use x="195.361328" xlink:href="#DejaVuSans-6f"/>
     <use x="256.542969" xlink:href="#DejaVuSans-74"/>
     <use x="295.751953" xlink:href="#DejaVuSans-20"/>
     <use x="327.539062" xlink:href="#DejaVuSans-31"/>
     <use x="391.162109" xlink:href="#DejaVuSans-36"/>
     <use x="454.785156" xlink:href="#DejaVuSans-2e"/>
     <use x="486.572266" xlink:href="#DejaVuSans-32"/>
     <use x="550.195312" xlink:href="#DejaVuSans-b0"/>
    </g>
   </g>
   <g id="text_10">
    <g id="patch_11">
     <path d="M 10.722952 57.59008 
L 11.493928 43.207604 
L 9.521135 43.101853 
L 8.75016 57.484328 
z
" style="fill:#ffffff;"/>
    </g>
    <!-- Soltman 17.5° -->
    <g style="fill:#4169e1;" transform="translate(10.28871 57.546774)rotate(-86.931584)scale(0.02 -0.02)">
     <defs>
      <path d="M 691 4666 
L 3169 4666 
L 3169 4134 
L 1269 4134 
L 1269 2991 
Q 1406 3038 1543 3061 
Q 1681 3084 1819 3084 
Q 2600 3084 3056 2656 
Q 3513 2228 3513 1497 
Q 3513 744 3044 326 
Q 2575 -91 1722 -91 
Q 1428 -91 1123 -41 
Q 819 9 494 109 
L 494 744 
Q 775 591 1075 516 
Q 1375 441 1709 441 
Q 2250 441 2565 725 
Q 2881 1009 2881 1497 
Q 2881 1984 2565 2268 
Q 2250 2553 1709 2553 
Q 1456 2553 1204 2497 
Q 953 2441 691 2322 
L 691 4666 
z
" id="DejaVuSans-35" transform="scale(0.015625)"/>
     </defs>
     <use xlink:href="#DejaVuSans-53"/>
     <use x="63.476562" xlink:href="#DejaVuSans-6f"/>
     <use x="124.658203" xlink:href="#DejaVuSans-6c"/>
     <use x="152.441406" xlink:href="#DejaVuSans-74"/>
     <use x="191.650391" xlink:href="#DejaVuSans-6d"/>
     <use x="289.0625" xlink:href="#DejaVuSans-61"/>
     <use x="350.341797" xlink:href="#DejaVuSans-6e"/>
     <use x="413.720703" xlink:href="#DejaVuSans-20"/>
     <use x="445.507812" xlink:href="#DejaVuSans-31"/>
     <use x="509.130859" xlink:href="#DejaVuSans-37"/>
     <use x="572.753906" xlink:href="#DejaVuSans-2e"/>
     <use x="604.541016" xlink:href="#DejaVuSans-35"/>
     <use x="668.164062" xlink:href="#DejaVuSans-b0"/>
    </g>
   </g>
   <g id="text_11">
    <g id="patch_12">
     <path d="M 13.556317 43.097688 
L 14.360164 54.263164 
L 16.330689 54.121298 
L 15.526842 42.955822 
z
" style="fill:#ffffff;"/>
    </g>
    <!-- Dixie 17.3° -->
    <g style="fill:#4169e1;" transform="translate(13.992565 43.086333)rotate(-274.117846)scale(0.02 -0.02)">
     <defs>
      <path d="M 3513 3500 
L 2247 1797 
L 3578 0 
L 2900 0 
L 1881 1375 
L 863 0 
L 184 0 
L 1544 1831 
L 300 3500 
L 978 3500 
L 1906 2253 
L 2834 3500 
L 3513 3500 
z
" id="DejaVuSans-78" transform="scale(0.015625)"/>
     </defs>
     <use xlink:href="#DejaVuSans-44"/>
     <use x="77.001953" xlink:href="#DejaVuSans-69"/>
     <use x="104.785156" xlink:href="#DejaVuSans-78"/>
     <use x="163.964844" xlink:href="#DejaVuSans-69"/>
     <use x="191.748047" xlink:href="#DejaVuSans-65"/>
     <use x="253.271484" xlink:href="#DejaVuSans-20"/>
     <use x="285.058594" xlink:href="#DejaVuSans-31"/>
     <use x="348.681641" xlink:href="#DejaVuSans-37"/>
     <use x="412.304688" xlink:href="#DejaVuSans-2e"/>
     <use x="444.091797" xlink:href="#DejaVuSans-33"/>
     <use x="507.714844" xlink:href="#DejaVuSans-b0"/>
    </g>
   </g>
   <g id="text_12">
    <g id="patch_13">
     <path d="M 46.434134 77.499466 
L 47.378866 61.233127 
L 45.406565 61.118578 
L 44.461833 77.384916 
z
" style="fill:#ffffff;"/>
    </g>
    <!-- Bunny Hill 11.1° -->
    <g style="fill:#008000;" transform="translate(46.00009 77.454223)rotate(-86.676057)scale(0.02 -0.02)">
     <defs>
      <path d="M 1259 2228 
L 1259 519 
L 2272 519 
Q 2781 519 3026 730 
Q 3272 941 3272 1375 
Q 3272 1813 3026 2020 
Q 2781 2228 2272 2228 
L 1259 2228 
z
M 1259 4147 
L 1259 2741 
L 2194 2741 
Q 2656 2741 2882 2914 
Q 3109 3088 3109 3444 
Q 3109 3797 2882 3972 
Q 2656 4147 2194 4147 
L 1259 4147 
z
M 628 4666 
L 2241 4666 
Q 2963 4666 3353 4366 
Q 3744 4066 3744 3513 
Q 3744 3084 3544 2831 
Q 3344 2578 2956 2516 
Q 3422 2416 3680 2098 
Q 3938 1781 3938 1306 
Q 3938 681 3513 340 
Q 3088 0 2303 0 
L 628 0 
L 628 4666 
z
" id="DejaVuSans-42" transform="scale(0.015625)"/>
      <path d="M 2059 -325 
Q 1816 -950 1584 -1140 
Q 1353 -1331 966 -1331 
L 506 -1331 
L 506 -850 
L 844 -850 
Q 1081 -850 1212 -737 
Q 1344 -625 1503 -206 
L 1606 56 
L 191 3500 
L 800 3500 
L 1894 763 
L 2988 3500 
L 3597 3500 
L 2059 -325 
z
" id="DejaVuSans-79" transform="scale(0.015625)"/>
     </defs>
     <use xlink:href="#DejaVuSans-42"/>
     <use x="68.603516" xlink:href="#DejaVuSans-75"/>
     <use x="131.982422" xlink:href="#DejaVuSans-6e"/>
     <use x="195.361328" xlink:href="#DejaVuSans-6e"/>
     <use x="258.740234" xlink:href="#DejaVuSans-79"/>
     <use x="317.919922" xlink:href="#DejaVuSans-20"/>
     <use x="349.707031" xlink:href="#DejaVuSans-48"/>
     <use x="424.902344" xlink:href="#DejaVuSans-69"/>
     <use x="452.685547" xlink:href="#DejaVuSans-6c"/>
     <use x="480.46875" xlink:href="#DejaVuSans-6c"/>
     <use x="508.251953" xlink:href="#DejaVuSans-20"/>
     <use x="540.039062" xlink:href="#DejaVuSans-31"/>
     <use x="603.662109" xlink:href="#DejaVuSans-31"/>
     <use x="667.285156" xlink:href="#DejaVuSans-2e"/>
     <use x="699.072266" xlink:href="#DejaVuSans-31"/>
     <use x="762.695312" xlink:href="#DejaVuSans-b0"/>
    </g>
   </g>
   <g id="text_13">
    <!-- Snowhaven -->
    <g transform="translate(13.571118 5.280967)scale(0.05 -0.05)">
     <defs>
      <path d="M 269 3500 
L 844 3500 
L 1563 769 
L 2278 3500 
L 2956 3500 
L 3675 769 
L 4391 3500 
L 4966 3500 
L 4050 0 
L 3372 0 
L 2619 2869 
L 1863 0 
L 1184 0 
L 269 3500 
z
" id="DejaVuSans-77" transform="scale(0.015625)"/>
      <path d="M 191 3500 
L 800 3500 
L 1894 563 
L 2988 3500 
L 3597 3500 
L 2284 0 
L 1503 0 
L 191 3500 
z
" id="DejaVuSans-76" transform="scale(0.015625)"/>
     </defs>
     <use xlink:href="#DejaVuSans-53"/>
     <use x="63.476562" xlink:href="#DejaVuSans-6e"/>
     <use x="126.855469" xlink:href="#DejaVuSans-6f"/>
     <use x="188.037109" xlink:href="#DejaVuSans-77"/>
     <use x="269.824219" xlink:href="#DejaVuSans-68"/>
     <use x="333.203125" xlink:href="#DejaVuSans-61"/>
     <use x="394.482422" xlink:href="#DejaVuSans-76"/>
     <use x="453.662109" xlink:href="#DejaVuSans-65"/>
     <use x="515.185547" xlink:href="#DejaVuSans-6e"/>
    </g>
   </g>
  </g>
  <g id="text_14">
   <!-- Sources: USGS and OpenStreetMaps -->
   <g transform="translate(8.205238 95.97846)scale(0.021739 -0.021739)">
    <defs>
     <path d="M 3122 3366 
L 3122 2828 
Q 2878 2963 2633 3030 
Q 2388 3097 2138 3097 
Q 1578 3097 1268 2742 
Q 959 2388 959 1747 
Q 959 1106 1268 751 
Q 1578 397 2138 397 
Q 2388 397 2633 464 
Q 2878 531 3122 666 
L 3122 134 
Q 2881 22 2623 -34 
Q 2366 -91 2075 -91 
Q 1284 -91 818 406 
Q 353 903 353 1747 
Q 353 2603 823 3093 
Q 1294 3584 2113 3584 
Q 2378 3584 2631 3529 
Q 2884 3475 3122 3366 
z
" id="DejaVuSans-63" transform="scale(0.015625)"/>
     <path d="M 750 794 
L 1409 794 
L 1409 0 
L 750 0 
L 750 794 
z
M 750 3309 
L 1409 3309 
L 1409 2516 
L 750 2516 
L 750 3309 
z
" id="DejaVuSans-3a" transform="scale(0.015625)"/>
     <path d="M 556 4666 
L 1191 4666 
L 1191 1831 
Q 1191 1081 1462 751 
Q 1734 422 2344 422 
Q 2950 422 3222 751 
Q 3494 1081 3494 1831 
L 3494 4666 
L 4128 4666 
L 4128 1753 
Q 4128 841 3676 375 
Q 3225 -91 2344 -91 
Q 1459 -91 1007 375 
Q 556 841 556 1753 
L 556 4666 
z
" id="DejaVuSans-55" transform="scale(0.015625)"/>
     <path d="M 3809 666 
L 3809 1919 
L 2778 1919 
L 2778 2438 
L 4434 2438 
L 4434 434 
Q 4069 175 3628 42 
Q 3188 -91 2688 -91 
Q 1594 -91 976 548 
Q 359 1188 359 2328 
Q 359 3472 976 4111 
Q 1594 4750 2688 4750 
Q 3144 4750 3555 4637 
Q 3966 4525 4313 4306 
L 4313 3634 
Q 3963 3931 3569 4081 
Q 3175 4231 2741 4231 
Q 1884 4231 1454 3753 
Q 1025 3275 1025 2328 
Q 1025 1384 1454 906 
Q 1884 428 2741 428 
Q 3075 428 3337 486 
Q 3600 544 3809 666 
z
" id="DejaVuSans-47" transform="scale(0.015625)"/>
     <path d="M 2522 4238 
Q 1834 4238 1429 3725 
Q 1025 3213 1025 2328 
Q 1025 1447 1429 934 
Q 1834 422 2522 422 
Q 3209 422 3611 934 
Q 4013 1447 4013 2328 
Q 4013 3213 3611 3725 
Q 3209 4238 2522 4238 
z
M 2522 4750 
Q 3503 4750 4090 4092 
Q 4678 3434 4678 2328 
Q 4678 1225 4090 567 
Q 3503 -91 2522 -91 
Q 1538 -91 948 565 
Q 359 1222 359 2328 
Q 359 3434 948 4092 
Q 1538 4750 2522 4750 
z
" id="DejaVuSans-4f" transform="scale(0.015625)"/>
    </defs>
    <use xlink:href="#DejaVuSans-53"/>
    <use x="63.476562" xlink:href="#DejaVuSans-6f"/>
    <use x="124.658203" xlink:href="#DejaVuSans-75"/>
    <use x="188.037109" xlink:href="#DejaVuSans-72"/>
    <use x="226.900391" xlink:href="#DejaVuSans-63"/>
    <use x="281.880859" xlink:href="#DejaVuSans-65"/>
    <use x="343.404297" xlink:href="#DejaVuSans-73"/>
    <use x="395.503906" xlink:href="#DejaVuSans-3a"/>
    <use x="429.195312" xlink:href="#DejaVuSans-20"/>
    <use x="460.982422" xlink:href="#DejaVuSans-55"/>
    <use x="534.175781" xlink:href="#DejaVuSans-53"/>
    <use x="597.652344" xlink:href="#DejaVuSans-47"/>
    <use x="675.142578" xlink:href="#DejaVuSans-53"/>
    <use x="738.619141" xlink:href="#DejaVuSans-20"/>
    <use x="770.40625" xlink:href="#DejaVuSans-61"/>
    <use x="831.685547" xlink:href="#DejaVuSans-6e"/>
    <use x="895.064453" xlink:href="#DejaVuSans-64"/>
    <use x="958.541016" xlink:href="#DejaVuSans-20"/>
    <use x="990.328125" xlink:href="#DejaVuSans-4f"/>
    <use x="1069.039062" xlink:href="#DejaVuSans-70"/>
    <use x="1132.515625" xlink:href="#DejaVuSans-65"/>
    <use x="1194.039062" xlink:href="#DejaVuSans-6e"/>
    <use x="1257.417969" xlink:href="#DejaVuSans-53"/>
    <use x="1320.894531" xlink:href="#DejaVuSans-74"/>
    <use x="1360.103516" xlink:href="#DejaVuSans-72"/>
    <use x="1398.966797" xlink:href="#DejaVuSans-65"/>
    <use x="1460.490234" xlink:href="#DejaVuSans-65"/>
    <use x="1522.013672" xlink:href="#DejaVuSans-74"/>
    <use x="1561.222656" xlink:href="#DejaVuSans-4d"/>
    <use x="1647.501953" xlink:href="#DejaVuSans-61"/>
    <use x="1708.78125" xlink:href="#DejaVuSans-70"/>
    <use x="1772.257812" xlink:href="#DejaVuSans-73"/>
   </g>
  </g>
 </g>
 <defs>
  <clipPath id="pa7f8e91c8a">
   <rect height="80.868633" width="56.071142" x="0" y="7.780967"/>
  </clipPath>
 </defs>
</svg>
