<?xml version="1.0" encoding="utf-8" standalone="no"?>
<!DOCTYPE svg PUBLIC "-//W3C//DTD SVG 1.1//EN"
  "http://www.w3.org/Graphics/SVG/1.1/DTD/svg11.dtd">
<svg height="127.495818pt" version="1.1" viewBox="0 0 106.512433 127.495818" width="106.512433pt" xmlns="http://www.w3.org/2000/svg" xmlns:xlink="http://www.w3.org/1999/xlink">
 <metadata>
  <rdf:RDF xmlns:cc="http://creativecommons.org/ns#" xmlns:dc="http://purl.org/dc/elements/1.1/" xmlns:rdf="http://www.w3.org/1999/02/22-rdf-syntax-ns#">
   <cc:Work>
    <dc:type rdf:resource="http://purl.org/dc/dcmitype/StillImage"/>
    <dc:date>2022-05-18T23:19:21.150811</dc:date>
    <dc:format>image/svg+xml</dc:format>
    <dc:creator>
     <cc:Agent>
      <dc:title>Matplotlib v3.4.3, https://matplotlib.org/</dc:title>
     </cc:Agent>
    </dc:creator>
   </cc:Work>
  </rdf:RDF>
 </metadata>
 <defs>
  <style type="text/css">*{stroke-linecap:butt;stroke-linejoin:round;}</style>
 </defs>
 <g id="figure_1">
  <g id="patch_1">
   <path d="M 0 127.495818 
L 106.512433 127.495818 
L 106.512433 0 
L 0 0 
z
" style="fill:none;"/>
  </g>
  <g id="axes_1">
   <g id="line2d_1">
    <path clip-path="url(#p75326832d9)" d="M 4.841474 95.173201 
" style="fill:none;stroke:#008000;stroke-linecap:square;stroke-width:0.001;"/>
   </g>
   <g id="line2d_2">
    <path clip-path="url(#p75326832d9)" d="M 4.841474 95.173201 
" style="fill:none;stroke:#4169e1;stroke-linecap:square;stroke-width:0.001;"/>
   </g>
   <g id="line2d_3">
    <path clip-path="url(#p75326832d9)" d="M 4.841474 95.173201 
" style="fill:none;stroke:#000000;stroke-linecap:square;stroke-width:0.001;"/>
   </g>
   <g id="line2d_4">
    <path clip-path="url(#p75326832d9)" d="M 4.841474 95.173201 
" style="fill:none;stroke:#ff0000;stroke-linecap:square;stroke-width:0.001;"/>
   </g>
   <g id="line2d_5">
    <path clip-path="url(#p75326832d9)" d="M 4.841474 95.173201 
" style="fill:none;stroke:#ffd700;stroke-linecap:square;stroke-width:0.001;"/>
   </g>
   <g id="line2d_6">
    <path clip-path="url(#p75326832d9)" d="M 4.841474 95.173201 
" style="fill:none;stroke:#000000;stroke-dasharray:0.001,0.00165;stroke-dashoffset:0;stroke-width:0.001;"/>
   </g>
   <g id="line2d_7">
    <path clip-path="url(#p75326832d9)" d="M 38.538193 109.046611 
L 34.709302 106.886912 
L 30.88041 104.727213 
L 27.051519 102.567513 
L 23.222628 100.407814 
L 19.393736 98.248115 
L 15.564845 96.088415 
L 11.735953 93.928716 
L 7.907062 91.769017 
" style="fill:none;stroke:#808080;stroke-linecap:square;stroke-width:0.493113;"/>
   </g>
   <g id="line2d_8">
    <path clip-path="url(#p75326832d9)" d="M 63.096375 92.765511 
L 59.113731 88.089035 
L 56.186429 84.652641 
L 53.259128 81.216247 
L 50.573463 78.062695 
L 47.887799 74.909144 
L 44.600225 71.048989 
L 41.312652 67.188833 
L 38.888276 64.342786 
L 36.463899 61.496738 
L 33.909243 58.497191 
" style="fill:none;stroke:#808080;stroke-linecap:square;stroke-width:0.493113;"/>
   </g>
   <g id="line2d_9">
    <path clip-path="url(#p75326832d9)" d="M 65.3337 82.469413 
L 60.562097 78.162345 
L 56.072889 74.110943 
L 52.848636 71.200979 
L 50.344199 68.940246 
L 47.839763 66.679514 
L 45.122074 64.226528 
L 42.404385 61.773542 
L 38.133524 57.920432 
L 34.855412 54.961147 
" style="fill:none;stroke:#808080;stroke-linecap:square;stroke-width:0.493113;"/>
   </g>
   <g id="line2d_10">
    <path clip-path="url(#p75326832d9)" d="M 69.703546 77.494996 
L 67.469859 74.86863 
L 65.236172 72.242265 
L 63.002486 69.615899 
L 60.768799 66.989534 
" style="fill:none;stroke:#808080;stroke-linecap:square;stroke-width:0.493113;"/>
   </g>
   <g id="line2d_11">
    <path clip-path="url(#p75326832d9)" d="M 72.831726 68.18734 
L 69.210082 63.432352 
L 65.789317 58.94209 
L 62.460258 54.572615 
L 58.872094 49.862923 
L 56.65078 46.94692 
L 54.429466 44.030917 
L 52.397386 41.364038 
L 50.365306 38.697158 
L 47.741143 35.25246 
L 45.116979 31.807761 
L 42.492816 28.363063 
L 39.868652 24.918365 
" style="fill:none;stroke:#808080;stroke-linecap:square;stroke-width:0.493113;"/>
   </g>
   <g id="line2d_12">
    <path clip-path="url(#p75326832d9)" d="M 76.507229 50.687296 
L 72.796427 46.154255 
L 69.085625 41.621214 
L 65.374822 37.088173 
L 61.66402 32.555132 
" style="fill:none;stroke:#808080;stroke-linecap:square;stroke-width:0.493113;"/>
   </g>
   <g id="line2d_13">
    <path clip-path="url(#p75326832d9)" d="M 101.670959 31.94717 
L 96.92956 31.277305 
L 92.188161 30.607439 
L 87.446763 29.937574 
L 82.705364 29.267708 
" style="fill:none;stroke:#808080;stroke-linecap:square;stroke-width:0.493113;"/>
   </g>
   <g id="line2d_14">
    <path clip-path="url(#p75326832d9)" d="M 91.712893 63.265264 
L 88.311052 63.899396 
L 84.685041 64.574798 
L 81.05903 65.250199 
" style="fill:none;stroke:#808080;stroke-linecap:square;stroke-width:0.493113;"/>
   </g>
   <g id="line2d_15">
    <path clip-path="url(#p75326832d9)" d="M 4.841474 95.173201 
L 5.80361 95.691233 
L 6.765746 96.209266 
L 7.727881 96.727298 
L 8.690017 97.24533 
L 9.652152 97.763362 
L 10.614288 98.281394 
L 11.576424 98.799426 
L 12.538559 99.317458 
L 13.500695 99.835491 
L 14.462831 100.353523 
L 15.424966 100.871555 
L 16.387102 101.389587 
L 17.349238 101.907619 
L 18.311373 102.425651 
L 19.273509 102.943684 
L 20.235645 103.461716 
L 21.19778 103.979748 
L 22.159916 104.49778 
L 23.122052 105.015812 
L 24.084187 105.533844 
L 25.046323 106.051877 
L 26.008459 106.569909 
L 26.970594 107.087941 
L 27.93273 107.605973 
L 28.894865 108.124005 
L 29.857001 108.642037 
L 30.819137 109.16007 
L 31.781272 109.678102 
L 32.743408 110.196134 
L 33.705544 110.714166 
L 34.667679 111.232198 
L 35.629815 111.75023 
" style="fill:none;stroke:#4169e1;stroke-linecap:square;stroke-width:0.493113;"/>
   </g>
   <g id="line2d_16">
    <path clip-path="url(#p75326832d9)" d="M 30.361837 55.97274 
L 28.962235 56.580198 
L 27.562632 57.187657 
L 26.16303 57.795116 
L 24.763427 58.402574 
L 23.719002 58.613449 
L 22.674577 58.824323 
L 21.630152 59.035197 
L 20.585727 59.246071 
L 19.431401 60.321077 
L 18.277075 61.396083 
L 17.836742 62.632641 
L 17.39641 63.869199 
L 17.380761 65.281654 
L 17.365113 66.694109 
L 17.349465 68.106563 
L 17.333817 69.519018 
L 17.537971 70.931221 
L 17.742125 72.343424 
L 17.946279 73.755627 
L 18.150434 75.16783 
L 19.019817 76.425023 
L 19.889201 77.682216 
L 20.758585 78.939409 
L 21.627969 80.196602 
L 22.394366 81.108545 
L 23.160763 82.020488 
L 24.188448 83.244464 
L 25.216133 84.46844 
L 26.675599 85.151894 
L 28.135064 85.835348 
L 29.59453 86.518802 
L 31.053996 87.202256 
L 32.513462 87.88571 
L 33.972927 88.569164 
L 35.432393 89.252618 
L 36.891859 89.936072 
L 38.375161 90.441365 
L 39.858463 90.946658 
L 41.228952 91.413198 
L 42.599442 91.879738 
L 44.465578 92.176673 
L 46.331715 92.473609 
L 47.497686 92.406169 
L 48.663658 92.33873 
L 49.829629 92.27129 
L 50.9956 92.203851 
L 52.586984 91.947429 
L 54.178367 91.691008 
L 55.769751 91.434587 
L 57.361135 91.178166 
" style="fill:none;stroke:#008000;stroke-linecap:square;stroke-width:0.493113;"/>
   </g>
   <g id="line2d_17">
    <path clip-path="url(#p75326832d9)" d="M 5.445567 88.856033 
L 6.467793 88.74808 
L 7.49002 88.640126 
L 8.512246 88.532173 
L 9.534473 88.424219 
L 10.556699 88.316266 
L 11.578926 88.208312 
L 12.601152 88.100359 
L 13.623379 87.992405 
L 15.17364 87.855513 
L 16.15802 87.768194 
L 17.1424 87.680875 
L 18.126779 87.593556 
L 19.111159 87.506237 
L 20.579177 87.870612 
L 22.047194 88.234986 
L 23.515212 88.599361 
L 24.98323 88.963735 
L 26.574613 89.611708 
L 28.165997 90.259681 
L 29.75738 90.907653 
L 31.348764 91.555626 
L 32.734538 92.406169 
L 34.120311 93.256712 
L 35.506085 94.107255 
L 36.891859 94.957797 
L 37.948293 96.415547 
L 39.004727 97.873297 
L 40.061161 99.331047 
L 41.117595 100.788797 
" style="fill:none;stroke:#008000;stroke-linecap:square;stroke-width:0.493113;"/>
   </g>
   <g id="line2d_18">
    <path clip-path="url(#p75326832d9)" d="M 13.623379 93.553647 
L 15.156536 94.039626 
L 16.689694 94.525606 
L 18.222852 95.011585 
L 19.75601 95.497565 
L 21.289167 95.983545 
L 22.822325 96.469524 
L 24.355483 96.955504 
L 25.888641 97.441483 
L 27.421799 97.927463 
L 28.954956 98.413442 
L 30.488114 98.899422 
L 32.021272 99.385401 
L 33.55443 99.871381 
L 35.087587 100.35736 
L 36.620745 100.84334 
L 38.153903 101.329319 
" style="fill:none;stroke:#008000;stroke-linecap:square;stroke-width:0.493113;"/>
   </g>
   <g id="line2d_19">
    <path clip-path="url(#p75326832d9)" d="M 20.317889 92.420261 
L 22.183843 92.993874 
L 24.049798 93.567487 
L 25.915752 94.1411 
L 27.781707 94.714713 
L 29.647661 95.288326 
L 31.513616 95.86194 
L 33.37957 96.435553 
L 35.245525 97.009166 
" style="fill:none;stroke:#008000;stroke-linecap:square;stroke-width:0.493113;"/>
   </g>
   <g id="line2d_20">
    <path clip-path="url(#p75326832d9)" d="M 31.733054 57.53794 
L 30.827643 58.726183 
L 29.922232 59.914427 
L 29.963354 60.947031 
L 30.004476 61.979635 
L 30.045598 63.01224 
L 30.08672 64.044844 
L 30.127842 65.077448 
L 30.168964 66.110053 
L 30.210086 67.142657 
L 30.251208 68.175261 
L 30.851661 69.598473 
L 31.452115 71.021686 
L 32.052568 72.444898 
L 32.653022 73.86811 
L 33.253475 75.291323 
L 33.853928 76.714535 
L 34.454382 78.137747 
L 35.054835 79.560959 
L 35.655289 80.984172 
L 36.255742 82.407384 
L 36.856196 83.830596 
L 37.456649 85.253809 
L 38.057103 86.677021 
L 38.657556 88.100233 
L 39.258009 89.523445 
L 39.858463 90.946658 
" style="fill:none;stroke:#008000;stroke-linecap:square;stroke-width:0.493113;"/>
   </g>
   <g id="line2d_21">
    <path clip-path="url(#p75326832d9)" d="M 41.830861 84.697936 
L 43.285232 85.426937 
L 44.739603 86.155938 
L 46.193974 86.884938 
L 47.648345 87.613939 
L 49.102716 88.34294 
L 50.557087 89.071941 
L 52.011458 89.800941 
L 53.465829 90.529942 
" style="fill:none;stroke:#008000;stroke-linecap:square;stroke-width:0.493113;"/>
   </g>
   <g id="line2d_22">
    <path clip-path="url(#p75326832d9)" d="M 42.379639 83.186084 
L 43.847293 83.647591 
L 45.314947 84.109099 
L 46.782601 84.570606 
L 48.250254 85.032114 
L 49.444247 85.40756 
L 50.63824 85.783007 
L 51.832232 86.158454 
L 53.026225 86.533901 
" style="fill:none;stroke:#4169e1;stroke-linecap:square;stroke-width:0.493113;"/>
   </g>
   <g id="line2d_23">
    <path clip-path="url(#p75326832d9)" d="M 33.434703 59.320557 
L 34.233852 60.299216 
L 35.033001 61.277875 
L 35.83215 62.256534 
L 36.631299 63.235193 
L 37.430447 64.213852 
L 38.229596 65.192511 
L 39.028745 66.17117 
L 39.827894 67.149829 
L 40.627043 68.128488 
L 41.426192 69.107146 
L 42.225341 70.085805 
L 43.02449 71.064464 
L 43.823639 72.043123 
L 44.622788 73.021782 
L 45.421937 74.000441 
L 46.221086 74.9791 
L 47.020235 75.957759 
L 47.819384 76.936418 
L 48.618533 77.915077 
L 49.417681 78.893736 
L 50.21683 79.872395 
L 51.015979 80.851054 
L 51.815128 81.829713 
L 52.614277 82.808372 
L 53.413426 83.787031 
L 54.212575 84.76569 
L 55.011724 85.744349 
L 55.810873 86.723008 
L 56.610022 87.701667 
L 57.409171 88.680326 
L 58.20832 89.658985 
L 59.007469 90.637644 
" style="fill:none;stroke:#4169e1;stroke-linecap:square;stroke-width:0.493113;"/>
   </g>
   <g id="line2d_24">
    <path clip-path="url(#p75326832d9)" d="M 39.471261 63.80176 
L 40.177795 64.518902 
L 40.884328 65.236044 
L 41.590862 65.953187 
L 42.297395 66.670329 
L 43.003929 67.387471 
L 43.710463 68.104613 
L 44.416996 68.821755 
L 45.12353 69.538898 
L 45.830063 70.25604 
L 46.536597 70.973182 
L 47.24313 71.690324 
L 47.949664 72.407466 
L 48.656197 73.124609 
L 49.362731 73.841751 
L 50.069264 74.558893 
L 50.775798 75.276035 
L 51.482332 75.993178 
L 52.188865 76.71032 
L 52.895399 77.427462 
L 53.601932 78.144604 
L 54.308466 78.861746 
L 55.014999 79.578889 
L 55.721533 80.296031 
L 56.428066 81.013173 
L 57.1346 81.730315 
L 57.841133 82.447458 
L 58.547667 83.1646 
L 59.2542 83.881742 
L 59.960734 84.598884 
L 60.667268 85.316026 
L 61.373801 86.033169 
L 62.080335 86.750311 
" style="fill:none;stroke:#4169e1;stroke-linecap:square;stroke-width:0.493113;"/>
   </g>
   <g id="line2d_25">
    <path clip-path="url(#p75326832d9)" d="M 35.849617 57.646648 
L 36.724232 58.446454 
L 37.598847 59.24626 
L 38.473462 60.046066 
L 39.348077 60.845872 
L 40.222692 61.645678 
L 41.097307 62.445484 
L 41.971922 63.24529 
L 42.846537 64.045096 
L 43.721152 64.844902 
L 44.595767 65.644707 
L 45.470382 66.444513 
L 46.344997 67.244319 
L 47.219613 68.044125 
L 48.094228 68.843931 
L 48.968843 69.643737 
L 49.843458 70.443543 
L 50.718073 71.243349 
L 51.592688 72.043155 
L 52.467303 72.842961 
L 53.341918 73.642767 
L 54.216533 74.442573 
L 55.091148 75.242379 
L 55.965763 76.042184 
L 56.840378 76.84199 
L 57.714993 77.641796 
L 58.589608 78.441602 
L 59.464223 79.241408 
L 60.338838 80.041214 
L 61.213453 80.84102 
L 62.088068 81.640826 
L 62.962683 82.440632 
L 63.837298 83.240438 
" style="fill:none;stroke:#008000;stroke-linecap:square;stroke-width:0.493113;"/>
   </g>
   <g id="line2d_26">
    <path clip-path="url(#p75326832d9)" d="M 36.233908 54.029073 
L 37.101654 54.569029 
L 37.9694 55.108986 
L 38.837146 55.648942 
L 39.704892 56.188898 
L 40.572638 56.728855 
L 41.440385 57.268811 
L 42.308131 57.808767 
L 43.175877 58.348724 
L 44.043623 58.88868 
L 44.911369 59.428636 
L 45.779116 59.968592 
L 46.646862 60.508549 
L 47.514608 61.048505 
L 48.382354 61.588461 
L 49.2501 62.128418 
L 50.117847 62.668374 
L 51.194842 63.778672 
L 52.271837 64.88897 
L 53.348832 65.999268 
L 54.425827 67.109566 
L 55.502822 68.219864 
L 56.579817 69.330162 
L 57.656812 70.44046 
L 58.733807 71.550759 
L 59.810803 72.661057 
L 60.887798 73.771355 
L 61.964793 74.881653 
L 63.041788 75.991951 
L 64.118783 77.102249 
L 65.195778 78.212547 
L 66.272773 79.322845 
L 67.349768 80.433143 
" style="fill:none;stroke:#008000;stroke-linecap:square;stroke-width:0.493113;"/>
   </g>
   <g id="line2d_27">
    <path clip-path="url(#p75326832d9)" d="M 33.599191 50.89666 
L 34.422358 49.681743 
L 35.245525 48.466825 
L 36.864202 47.791927 
L 38.482879 47.117029 
L 40.212184 47.332936 
L 41.94149 47.548843 
L 43.477923 47.801993 
L 45.014356 48.055142 
L 46.50712 48.81736 
L 47.999884 49.579577 
L 49.492647 50.341794 
L 50.985411 51.104011 
L 51.929396 51.873526 
L 52.873382 52.643041 
L 53.817368 53.412555 
L 54.761353 54.18207 
L 55.705339 54.951585 
L 56.649324 55.7211 
L 57.59331 56.490615 
L 58.537295 57.260129 
L 59.352093 58.124575 
L 60.16689 58.989021 
L 60.981687 59.853467 
L 61.796484 60.717913 
L 62.611281 61.582359 
L 63.426078 62.446805 
L 64.240875 63.311251 
L 65.055672 64.175697 
L 65.870469 65.040143 
L 66.685267 65.904589 
L 67.500064 66.769034 
L 68.314861 67.63348 
L 69.129658 68.497926 
L 69.944455 69.362372 
L 70.759252 70.226818 
L 71.574049 71.091264 
" style="fill:none;stroke:#008000;stroke-linecap:square;stroke-width:0.493113;"/>
   </g>
   <g id="line2d_28">
    <path clip-path="url(#p75326832d9)" d="M 38.373705 24.384888 
L 37.907171 25.4916 
L 37.440637 26.598312 
L 37.522881 27.705528 
L 37.605125 28.812743 
L 37.934828 30.324596 
L 38.264532 31.836448 
L 38.909564 32.872324 
L 39.554597 33.9082 
L 40.19963 34.944075 
L 40.844662 35.979951 
L 41.489695 37.015826 
L 42.134727 38.051702 
L 42.77976 39.087577 
L 43.424792 40.123453 
L 43.781789 41.399519 
L 44.138786 42.675585 
L 44.495783 43.951651 
L 44.85278 45.227717 
L 45.619359 45.962253 
L 46.385937 46.69679 
L 47.152516 47.431327 
L 47.919095 48.165864 
L 48.685674 48.900401 
L 49.452253 49.634938 
L 50.218832 50.369474 
L 50.985411 51.104011 
" style="fill:none;stroke:#008000;stroke-linecap:square;stroke-width:0.493113;"/>
   </g>
   <g id="line2d_29">
    <path clip-path="url(#p75326832d9)" d="M 40.897793 23.736664 
L 41.883901 25.051136 
L 42.87001 26.365608 
L 43.856118 27.680081 
L 44.842226 28.994553 
L 45.828335 30.309026 
L 46.814443 31.623498 
L 47.800551 32.93797 
L 48.786659 34.252443 
L 49.772768 35.566915 
L 50.758876 36.881388 
L 51.744984 38.19586 
L 52.731093 39.510333 
L 53.717201 40.824805 
L 54.703309 42.139277 
L 55.689418 43.45375 
L 56.675526 44.768222 
L 57.661634 46.082695 
L 58.647742 47.397167 
L 59.633851 48.711639 
L 60.619959 50.026112 
L 61.606067 51.340584 
L 62.592176 52.655057 
L 63.578284 53.969529 
L 64.564392 55.284001 
L 65.550501 56.598474 
L 66.536609 57.912946 
L 67.522717 59.227419 
L 68.508825 60.541891 
L 69.494934 61.856363 
L 70.481042 63.170836 
L 71.46715 64.485308 
L 72.453259 65.799781 
" style="fill:none;stroke:#008000;stroke-linecap:square;stroke-width:0.493113;"/>
   </g>
   <g id="line2d_30">
    <path clip-path="url(#p75326832d9)" d="M 41.886176 22.279165 
L 42.976818 23.26119 
L 44.067459 24.243215 
L 45.158101 25.225239 
L 46.248743 26.207264 
L 47.339385 27.189289 
L 48.430027 28.171313 
L 49.520668 29.153338 
L 50.61131 30.135363 
L 51.701952 31.117387 
L 52.792594 32.099412 
L 53.883235 33.081437 
L 54.973877 34.063461 
L 56.064519 35.045486 
L 57.155161 36.027511 
L 58.245803 37.009535 
L 59.336444 37.99156 
L 60.296806 39.253723 
L 61.257168 40.515885 
L 62.217529 41.778048 
L 63.177891 43.040211 
L 64.138252 44.302374 
L 65.098614 45.564537 
L 66.058975 46.826699 
L 67.019337 48.088862 
L 67.979699 49.351025 
L 68.94006 50.613188 
L 69.900422 51.87535 
L 70.860783 53.137513 
L 71.821145 54.399676 
L 72.781507 55.661839 
L 73.741868 56.924001 
L 74.70223 58.186164 
" style="fill:none;stroke:#008000;stroke-linecap:square;stroke-width:0.493113;"/>
   </g>
   <g id="line2d_31">
    <path clip-path="url(#p75326832d9)" d="M 64.330761 32.268262 
L 65.099069 33.199707 
L 65.867376 34.131152 
L 66.635684 35.062598 
L 67.403991 35.994043 
L 68.172299 36.925488 
L 68.940606 37.856933 
L 69.708914 38.788378 
L 70.477221 39.719823 
L 71.245528 40.651268 
L 72.013836 41.582713 
L 72.782143 42.514158 
L 73.550451 43.445603 
L 74.318758 44.377048 
L 75.087066 45.308493 
L 75.855373 46.239938 
L 76.623681 47.171383 
" style="fill:none;stroke:#008000;stroke-linecap:square;stroke-width:0.493113;"/>
   </g>
   <g id="line2d_32">
    <path clip-path="url(#p75326832d9)" d="M 67.294454 29.56867 
L 67.939213 30.334724 
L 68.583973 31.100779 
L 69.228733 31.866834 
L 69.873492 32.632889 
L 70.518252 33.398943 
L 71.163012 34.164998 
L 71.807771 34.931053 
L 72.452531 35.697107 
L 73.09729 36.463162 
L 73.74205 37.229217 
L 74.38681 37.995272 
L 75.031569 38.761326 
L 75.676329 39.527381 
L 76.321089 40.293436 
L 76.965848 41.059491 
L 77.610608 41.825545 
" style="fill:none;stroke:#008000;stroke-linecap:square;stroke-width:0.493113;"/>
   </g>
   <g id="line2d_33">
    <path clip-path="url(#p75326832d9)" d="M 40.239842 18.984696 
L 40.733305 17.689254 
L 41.226769 16.393812 
L 42.200959 16.231756 
L 43.175149 16.0697 
L 44.149339 15.907644 
L 45.12353 15.745587 
L 46.893594 15.917835 
L 48.663658 16.090082 
L 50.433721 16.26233 
L 52.203785 16.434577 
L 53.973849 16.606825 
L 55.743913 16.779072 
L 57.513977 16.95132 
L 59.284041 17.123567 
L 60.356305 17.435601 
L 61.42857 17.747634 
L 62.500834 18.059668 
L 63.573098 18.371701 
L 64.645362 18.683735 
L 65.717627 18.995768 
L 66.789891 19.307802 
L 67.862155 19.619835 
L 68.957528 20.178224 
L 70.052901 20.736613 
L 71.148273 21.295002 
L 72.243646 21.853391 
L 72.841188 22.721297 
L 73.43873 23.589203 
L 74.036272 24.457109 
L 74.633814 25.325015 
L 75.186232 26.939285 
L 75.738649 28.553554 
L 76.291066 30.167824 
L 76.843483 31.782094 
L 77.131519 32.922778 
L 77.419554 34.063461 
L 77.70759 35.204145 
L 77.995626 36.344829 
L 78.283661 37.485512 
L 78.571697 38.626196 
L 78.859733 39.766879 
L 79.147769 40.907563 
" style="fill:none;stroke:#008000;stroke-linecap:square;stroke-width:0.493113;"/>
   </g>
   <g id="line2d_34">
    <path clip-path="url(#p75326832d9)" d="M 63.300165 66.082624 
L 64.135523 67.047159 
L 64.970881 68.011695 
L 65.806239 68.976231 
L 66.641597 69.940767 
L 67.476955 70.905302 
L 68.312313 71.869838 
L 69.147672 72.834374 
L 69.98303 73.798909 
" style="fill:none;stroke:#008000;stroke-linecap:square;stroke-width:0.493113;"/>
   </g>
   <g id="line2d_35">
    <path clip-path="url(#p75326832d9)" d="M 15.17364 87.855513 
L 16.172031 87.126135 
L 17.170421 86.396757 
L 18.168811 85.667379 
L 19.167201 84.938 
L 20.165592 84.208622 
L 21.163982 83.479244 
L 22.162372 82.749866 
L 23.160763 82.020488 
" style="fill:none;stroke:#008000;stroke-linecap:square;stroke-width:0.493113;"/>
   </g>
   <g id="text_1">
    <g id="patch_2">
     <path d="M 22.336472 100.959737 
L 22.86001 101.386793 
L 24.108783 99.855891 
L 23.585245 99.428835 
z
" style="fill:#ffffff;"/>
    </g>
    <!--   -->
    <g style="fill:#808080;" transform="translate(22.627522 100.634573)rotate(-320.795507)scale(0.02 -0.02)">
     <defs>
      <path id="DejaVuSans-20" transform="scale(0.015625)"/>
     </defs>
     <use xlink:href="#DejaVuSans-20"/>
    </g>
   </g>
   <g id="text_2">
    <g id="patch_3">
     <path d="M 53.504198 82.045397 
L 57.166405 88.26259 
L 58.868661 87.259884 
L 55.206454 81.042692 
z
" style="fill:#ffffff;"/>
    </g>
    <!-- Chair 2 -->
    <g style="fill:#808080;" transform="translate(53.889965 81.841375)rotate(-300.500004)scale(0.02 -0.02)">
     <defs>
      <path d="M 4122 4306 
L 4122 3641 
Q 3803 3938 3442 4084 
Q 3081 4231 2675 4231 
Q 1875 4231 1450 3742 
Q 1025 3253 1025 2328 
Q 1025 1406 1450 917 
Q 1875 428 2675 428 
Q 3081 428 3442 575 
Q 3803 722 4122 1019 
L 4122 359 
Q 3791 134 3420 21 
Q 3050 -91 2638 -91 
Q 1578 -91 968 557 
Q 359 1206 359 2328 
Q 359 3453 968 4101 
Q 1578 4750 2638 4750 
Q 3056 4750 3426 4639 
Q 3797 4528 4122 4306 
z
" id="DejaVuSans-43" transform="scale(0.015625)"/>
      <path d="M 3513 2113 
L 3513 0 
L 2938 0 
L 2938 2094 
Q 2938 2591 2744 2837 
Q 2550 3084 2163 3084 
Q 1697 3084 1428 2787 
Q 1159 2491 1159 1978 
L 1159 0 
L 581 0 
L 581 4863 
L 1159 4863 
L 1159 2956 
Q 1366 3272 1645 3428 
Q 1925 3584 2291 3584 
Q 2894 3584 3203 3211 
Q 3513 2838 3513 2113 
z
" id="DejaVuSans-68" transform="scale(0.015625)"/>
      <path d="M 2194 1759 
Q 1497 1759 1228 1600 
Q 959 1441 959 1056 
Q 959 750 1161 570 
Q 1363 391 1709 391 
Q 2188 391 2477 730 
Q 2766 1069 2766 1631 
L 2766 1759 
L 2194 1759 
z
M 3341 1997 
L 3341 0 
L 2766 0 
L 2766 531 
Q 2569 213 2275 61 
Q 1981 -91 1556 -91 
Q 1019 -91 701 211 
Q 384 513 384 1019 
Q 384 1609 779 1909 
Q 1175 2209 1959 2209 
L 2766 2209 
L 2766 2266 
Q 2766 2663 2505 2880 
Q 2244 3097 1772 3097 
Q 1472 3097 1187 3025 
Q 903 2953 641 2809 
L 641 3341 
Q 956 3463 1253 3523 
Q 1550 3584 1831 3584 
Q 2591 3584 2966 3190 
Q 3341 2797 3341 1997 
z
" id="DejaVuSans-61" transform="scale(0.015625)"/>
      <path d="M 603 3500 
L 1178 3500 
L 1178 0 
L 603 0 
L 603 3500 
z
M 603 4863 
L 1178 4863 
L 1178 4134 
L 603 4134 
L 603 4863 
z
" id="DejaVuSans-69" transform="scale(0.015625)"/>
      <path d="M 2631 2963 
Q 2534 3019 2420 3045 
Q 2306 3072 2169 3072 
Q 1681 3072 1420 2755 
Q 1159 2438 1159 1844 
L 1159 0 
L 581 0 
L 581 3500 
L 1159 3500 
L 1159 2956 
Q 1341 3275 1631 3429 
Q 1922 3584 2338 3584 
Q 2397 3584 2469 3576 
Q 2541 3569 2628 3553 
L 2631 2963 
z
" id="DejaVuSans-72" transform="scale(0.015625)"/>
      <path d="M 1228 531 
L 3431 531 
L 3431 0 
L 469 0 
L 469 531 
Q 828 903 1448 1529 
Q 2069 2156 2228 2338 
Q 2531 2678 2651 2914 
Q 2772 3150 2772 3378 
Q 2772 3750 2511 3984 
Q 2250 4219 1831 4219 
Q 1534 4219 1204 4116 
Q 875 4013 500 3803 
L 500 4441 
Q 881 4594 1212 4672 
Q 1544 4750 1819 4750 
Q 2544 4750 2975 4387 
Q 3406 4025 3406 3419 
Q 3406 3131 3298 2873 
Q 3191 2616 2906 2266 
Q 2828 2175 2409 1742 
Q 1991 1309 1228 531 
z
" id="DejaVuSans-32" transform="scale(0.015625)"/>
     </defs>
     <use xlink:href="#DejaVuSans-43"/>
     <use x="69.824219" xlink:href="#DejaVuSans-68"/>
     <use x="133.203125" xlink:href="#DejaVuSans-61"/>
     <use x="194.482422" xlink:href="#DejaVuSans-69"/>
     <use x="222.265625" xlink:href="#DejaVuSans-72"/>
     <use x="263.378906" xlink:href="#DejaVuSans-20"/>
     <use x="295.166016" xlink:href="#DejaVuSans-32"/>
    </g>
   </g>
   <g id="text_3">
    <g id="patch_4">
     <path d="M 53.094497 71.847921 
L 57.483068 77.575547 
L 59.051281 76.373964 
L 54.66271 70.646339 
z
" style="fill:#ffffff;"/>
    </g>
    <!-- Chair 3 -->
    <g style="fill:#808080;" transform="translate(53.4527 71.598658)rotate(-307.459739)scale(0.02 -0.02)">
     <defs>
      <path d="M 2597 2516 
Q 3050 2419 3304 2112 
Q 3559 1806 3559 1356 
Q 3559 666 3084 287 
Q 2609 -91 1734 -91 
Q 1441 -91 1130 -33 
Q 819 25 488 141 
L 488 750 
Q 750 597 1062 519 
Q 1375 441 1716 441 
Q 2309 441 2620 675 
Q 2931 909 2931 1356 
Q 2931 1769 2642 2001 
Q 2353 2234 1838 2234 
L 1294 2234 
L 1294 2753 
L 1863 2753 
Q 2328 2753 2575 2939 
Q 2822 3125 2822 3475 
Q 2822 3834 2567 4026 
Q 2313 4219 1838 4219 
Q 1578 4219 1281 4162 
Q 984 4106 628 3988 
L 628 4550 
Q 988 4650 1302 4700 
Q 1616 4750 1894 4750 
Q 2613 4750 3031 4423 
Q 3450 4097 3450 3541 
Q 3450 3153 3228 2886 
Q 3006 2619 2597 2516 
z
" id="DejaVuSans-33" transform="scale(0.015625)"/>
     </defs>
     <use xlink:href="#DejaVuSans-43"/>
     <use x="69.824219" xlink:href="#DejaVuSans-68"/>
     <use x="133.203125" xlink:href="#DejaVuSans-61"/>
     <use x="194.482422" xlink:href="#DejaVuSans-69"/>
     <use x="222.265625" xlink:href="#DejaVuSans-72"/>
     <use x="263.378906" xlink:href="#DejaVuSans-20"/>
     <use x="295.166016" xlink:href="#DejaVuSans-33"/>
    </g>
   </g>
   <g id="text_4">
    <g id="patch_5">
     <path d="M 63.233849 56.210485 
L 66.596859 62.594481 
L 68.344786 61.673695 
L 64.981775 55.289699 
z
" style="fill:#ffffff;"/>
    </g>
    <!-- Chair 4 -->
    <g style="fill:#808080;" transform="translate(63.628864 56.025002)rotate(-297.77971)scale(0.02 -0.02)">
     <defs>
      <path d="M 2419 4116 
L 825 1625 
L 2419 1625 
L 2419 4116 
z
M 2253 4666 
L 3047 4666 
L 3047 1625 
L 3713 1625 
L 3713 1100 
L 3047 1100 
L 3047 0 
L 2419 0 
L 2419 1100 
L 313 1100 
L 313 1709 
L 2253 4666 
z
" id="DejaVuSans-34" transform="scale(0.015625)"/>
     </defs>
     <use xlink:href="#DejaVuSans-43"/>
     <use x="69.824219" xlink:href="#DejaVuSans-68"/>
     <use x="133.203125" xlink:href="#DejaVuSans-61"/>
     <use x="194.482422" xlink:href="#DejaVuSans-69"/>
     <use x="222.265625" xlink:href="#DejaVuSans-72"/>
     <use x="263.378906" xlink:href="#DejaVuSans-20"/>
     <use x="295.166016" xlink:href="#DejaVuSans-34"/>
    </g>
   </g>
   <g id="text_5">
    <g id="patch_6">
     <path d="M 8.339988 96.375732 
L 23.220463 107.962255 
L 24.434216 106.403442 
L 9.553741 94.816919 
z
" style="fill:#ffffff;"/>
    </g>
    <!-- Summit Park 19.4° -->
    <g style="fill:#4169e1;" transform="translate(8.623593 96.044055)rotate(-322.094273)scale(0.02 -0.02)">
     <defs>
      <path d="M 3425 4513 
L 3425 3897 
Q 3066 4069 2747 4153 
Q 2428 4238 2131 4238 
Q 1616 4238 1336 4038 
Q 1056 3838 1056 3469 
Q 1056 3159 1242 3001 
Q 1428 2844 1947 2747 
L 2328 2669 
Q 3034 2534 3370 2195 
Q 3706 1856 3706 1288 
Q 3706 609 3251 259 
Q 2797 -91 1919 -91 
Q 1588 -91 1214 -16 
Q 841 59 441 206 
L 441 856 
Q 825 641 1194 531 
Q 1563 422 1919 422 
Q 2459 422 2753 634 
Q 3047 847 3047 1241 
Q 3047 1584 2836 1778 
Q 2625 1972 2144 2069 
L 1759 2144 
Q 1053 2284 737 2584 
Q 422 2884 422 3419 
Q 422 4038 858 4394 
Q 1294 4750 2059 4750 
Q 2388 4750 2728 4690 
Q 3069 4631 3425 4513 
z
" id="DejaVuSans-53" transform="scale(0.015625)"/>
      <path d="M 544 1381 
L 544 3500 
L 1119 3500 
L 1119 1403 
Q 1119 906 1312 657 
Q 1506 409 1894 409 
Q 2359 409 2629 706 
Q 2900 1003 2900 1516 
L 2900 3500 
L 3475 3500 
L 3475 0 
L 2900 0 
L 2900 538 
Q 2691 219 2414 64 
Q 2138 -91 1772 -91 
Q 1169 -91 856 284 
Q 544 659 544 1381 
z
M 1991 3584 
L 1991 3584 
z
" id="DejaVuSans-75" transform="scale(0.015625)"/>
      <path d="M 3328 2828 
Q 3544 3216 3844 3400 
Q 4144 3584 4550 3584 
Q 5097 3584 5394 3201 
Q 5691 2819 5691 2113 
L 5691 0 
L 5113 0 
L 5113 2094 
Q 5113 2597 4934 2840 
Q 4756 3084 4391 3084 
Q 3944 3084 3684 2787 
Q 3425 2491 3425 1978 
L 3425 0 
L 2847 0 
L 2847 2094 
Q 2847 2600 2669 2842 
Q 2491 3084 2119 3084 
Q 1678 3084 1418 2786 
Q 1159 2488 1159 1978 
L 1159 0 
L 581 0 
L 581 3500 
L 1159 3500 
L 1159 2956 
Q 1356 3278 1631 3431 
Q 1906 3584 2284 3584 
Q 2666 3584 2933 3390 
Q 3200 3197 3328 2828 
z
" id="DejaVuSans-6d" transform="scale(0.015625)"/>
      <path d="M 1172 4494 
L 1172 3500 
L 2356 3500 
L 2356 3053 
L 1172 3053 
L 1172 1153 
Q 1172 725 1289 603 
Q 1406 481 1766 481 
L 2356 481 
L 2356 0 
L 1766 0 
Q 1100 0 847 248 
Q 594 497 594 1153 
L 594 3053 
L 172 3053 
L 172 3500 
L 594 3500 
L 594 4494 
L 1172 4494 
z
" id="DejaVuSans-74" transform="scale(0.015625)"/>
      <path d="M 1259 4147 
L 1259 2394 
L 2053 2394 
Q 2494 2394 2734 2622 
Q 2975 2850 2975 3272 
Q 2975 3691 2734 3919 
Q 2494 4147 2053 4147 
L 1259 4147 
z
M 628 4666 
L 2053 4666 
Q 2838 4666 3239 4311 
Q 3641 3956 3641 3272 
Q 3641 2581 3239 2228 
Q 2838 1875 2053 1875 
L 1259 1875 
L 1259 0 
L 628 0 
L 628 4666 
z
" id="DejaVuSans-50" transform="scale(0.015625)"/>
      <path d="M 581 4863 
L 1159 4863 
L 1159 1991 
L 2875 3500 
L 3609 3500 
L 1753 1863 
L 3688 0 
L 2938 0 
L 1159 1709 
L 1159 0 
L 581 0 
L 581 4863 
z
" id="DejaVuSans-6b" transform="scale(0.015625)"/>
      <path d="M 794 531 
L 1825 531 
L 1825 4091 
L 703 3866 
L 703 4441 
L 1819 4666 
L 2450 4666 
L 2450 531 
L 3481 531 
L 3481 0 
L 794 0 
L 794 531 
z
" id="DejaVuSans-31" transform="scale(0.015625)"/>
      <path d="M 703 97 
L 703 672 
Q 941 559 1184 500 
Q 1428 441 1663 441 
Q 2288 441 2617 861 
Q 2947 1281 2994 2138 
Q 2813 1869 2534 1725 
Q 2256 1581 1919 1581 
Q 1219 1581 811 2004 
Q 403 2428 403 3163 
Q 403 3881 828 4315 
Q 1253 4750 1959 4750 
Q 2769 4750 3195 4129 
Q 3622 3509 3622 2328 
Q 3622 1225 3098 567 
Q 2575 -91 1691 -91 
Q 1453 -91 1209 -44 
Q 966 3 703 97 
z
M 1959 2075 
Q 2384 2075 2632 2365 
Q 2881 2656 2881 3163 
Q 2881 3666 2632 3958 
Q 2384 4250 1959 4250 
Q 1534 4250 1286 3958 
Q 1038 3666 1038 3163 
Q 1038 2656 1286 2365 
Q 1534 2075 1959 2075 
z
" id="DejaVuSans-39" transform="scale(0.015625)"/>
      <path d="M 684 794 
L 1344 794 
L 1344 0 
L 684 0 
L 684 794 
z
" id="DejaVuSans-2e" transform="scale(0.015625)"/>
      <path d="M 1600 4347 
Q 1350 4347 1178 4173 
Q 1006 4000 1006 3750 
Q 1006 3503 1178 3333 
Q 1350 3163 1600 3163 
Q 1850 3163 2022 3333 
Q 2194 3503 2194 3750 
Q 2194 3997 2020 4172 
Q 1847 4347 1600 4347 
z
M 1600 4750 
Q 1800 4750 1984 4673 
Q 2169 4597 2303 4453 
Q 2447 4313 2519 4134 
Q 2591 3956 2591 3750 
Q 2591 3338 2302 3052 
Q 2013 2766 1594 2766 
Q 1172 2766 890 3047 
Q 609 3328 609 3750 
Q 609 4169 896 4459 
Q 1184 4750 1600 4750 
z
" id="DejaVuSans-b0" transform="scale(0.015625)"/>
     </defs>
     <use xlink:href="#DejaVuSans-53"/>
     <use x="63.476562" xlink:href="#DejaVuSans-75"/>
     <use x="126.855469" xlink:href="#DejaVuSans-6d"/>
     <use x="224.267578" xlink:href="#DejaVuSans-6d"/>
     <use x="321.679688" xlink:href="#DejaVuSans-69"/>
     <use x="349.462891" xlink:href="#DejaVuSans-74"/>
     <use x="388.671875" xlink:href="#DejaVuSans-20"/>
     <use x="420.458984" xlink:href="#DejaVuSans-50"/>
     <use x="476.261719" xlink:href="#DejaVuSans-61"/>
     <use x="537.541016" xlink:href="#DejaVuSans-72"/>
     <use x="578.654297" xlink:href="#DejaVuSans-6b"/>
     <use x="636.564453" xlink:href="#DejaVuSans-20"/>
     <use x="668.351562" xlink:href="#DejaVuSans-31"/>
     <use x="731.974609" xlink:href="#DejaVuSans-39"/>
     <use x="795.597656" xlink:href="#DejaVuSans-2e"/>
     <use x="827.384766" xlink:href="#DejaVuSans-34"/>
     <use x="891.007812" xlink:href="#DejaVuSans-b0"/>
    </g>
   </g>
   <g id="text_6">
    <g id="patch_7">
     <path d="M 15.699472 62.470573 
L 17.410643 79.588382 
L 19.37647 79.39187 
L 17.665299 62.27406 
z
" style="fill:#ffffff;"/>
    </g>
    <!-- Half Rabbit 12.5° -->
    <g style="fill:#008000;" transform="translate(16.135237 62.447111)rotate(-275.708571)scale(0.02 -0.02)">
     <defs>
      <path d="M 628 4666 
L 1259 4666 
L 1259 2753 
L 3553 2753 
L 3553 4666 
L 4184 4666 
L 4184 0 
L 3553 0 
L 3553 2222 
L 1259 2222 
L 1259 0 
L 628 0 
L 628 4666 
z
" id="DejaVuSans-48" transform="scale(0.015625)"/>
      <path d="M 603 4863 
L 1178 4863 
L 1178 0 
L 603 0 
L 603 4863 
z
" id="DejaVuSans-6c" transform="scale(0.015625)"/>
      <path d="M 2375 4863 
L 2375 4384 
L 1825 4384 
Q 1516 4384 1395 4259 
Q 1275 4134 1275 3809 
L 1275 3500 
L 2222 3500 
L 2222 3053 
L 1275 3053 
L 1275 0 
L 697 0 
L 697 3053 
L 147 3053 
L 147 3500 
L 697 3500 
L 697 3744 
Q 697 4328 969 4595 
Q 1241 4863 1831 4863 
L 2375 4863 
z
" id="DejaVuSans-66" transform="scale(0.015625)"/>
      <path d="M 2841 2188 
Q 3044 2119 3236 1894 
Q 3428 1669 3622 1275 
L 4263 0 
L 3584 0 
L 2988 1197 
Q 2756 1666 2539 1819 
Q 2322 1972 1947 1972 
L 1259 1972 
L 1259 0 
L 628 0 
L 628 4666 
L 2053 4666 
Q 2853 4666 3247 4331 
Q 3641 3997 3641 3322 
Q 3641 2881 3436 2590 
Q 3231 2300 2841 2188 
z
M 1259 4147 
L 1259 2491 
L 2053 2491 
Q 2509 2491 2742 2702 
Q 2975 2913 2975 3322 
Q 2975 3731 2742 3939 
Q 2509 4147 2053 4147 
L 1259 4147 
z
" id="DejaVuSans-52" transform="scale(0.015625)"/>
      <path d="M 3116 1747 
Q 3116 2381 2855 2742 
Q 2594 3103 2138 3103 
Q 1681 3103 1420 2742 
Q 1159 2381 1159 1747 
Q 1159 1113 1420 752 
Q 1681 391 2138 391 
Q 2594 391 2855 752 
Q 3116 1113 3116 1747 
z
M 1159 2969 
Q 1341 3281 1617 3432 
Q 1894 3584 2278 3584 
Q 2916 3584 3314 3078 
Q 3713 2572 3713 1747 
Q 3713 922 3314 415 
Q 2916 -91 2278 -91 
Q 1894 -91 1617 61 
Q 1341 213 1159 525 
L 1159 0 
L 581 0 
L 581 4863 
L 1159 4863 
L 1159 2969 
z
" id="DejaVuSans-62" transform="scale(0.015625)"/>
      <path d="M 691 4666 
L 3169 4666 
L 3169 4134 
L 1269 4134 
L 1269 2991 
Q 1406 3038 1543 3061 
Q 1681 3084 1819 3084 
Q 2600 3084 3056 2656 
Q 3513 2228 3513 1497 
Q 3513 744 3044 326 
Q 2575 -91 1722 -91 
Q 1428 -91 1123 -41 
Q 819 9 494 109 
L 494 744 
Q 775 591 1075 516 
Q 1375 441 1709 441 
Q 2250 441 2565 725 
Q 2881 1009 2881 1497 
Q 2881 1984 2565 2268 
Q 2250 2553 1709 2553 
Q 1456 2553 1204 2497 
Q 953 2441 691 2322 
L 691 4666 
z
" id="DejaVuSans-35" transform="scale(0.015625)"/>
     </defs>
     <use xlink:href="#DejaVuSans-48"/>
     <use x="75.195312" xlink:href="#DejaVuSans-61"/>
     <use x="136.474609" xlink:href="#DejaVuSans-6c"/>
     <use x="164.257812" xlink:href="#DejaVuSans-66"/>
     <use x="199.462891" xlink:href="#DejaVuSans-20"/>
     <use x="231.25" xlink:href="#DejaVuSans-52"/>
     <use x="298.482422" xlink:href="#DejaVuSans-61"/>
     <use x="359.761719" xlink:href="#DejaVuSans-62"/>
     <use x="423.238281" xlink:href="#DejaVuSans-62"/>
     <use x="486.714844" xlink:href="#DejaVuSans-69"/>
     <use x="514.498047" xlink:href="#DejaVuSans-74"/>
     <use x="553.707031" xlink:href="#DejaVuSans-20"/>
     <use x="585.494141" xlink:href="#DejaVuSans-31"/>
     <use x="649.117188" xlink:href="#DejaVuSans-32"/>
     <use x="712.740234" xlink:href="#DejaVuSans-2e"/>
     <use x="744.527344" xlink:href="#DejaVuSans-35"/>
     <use x="808.150391" xlink:href="#DejaVuSans-b0"/>
    </g>
   </g>
   <g id="text_7">
    <g id="patch_8">
     <path d="M 17.424894 87.300201 
L 31.874114 92.486733 
L 32.541566 90.62727 
L 18.092346 85.440738 
z
" style="fill:#ffffff;"/>
    </g>
    <!-- Trollcross 11.8° -->
    <g style="fill:#008000;" transform="translate(17.590997 86.896652)rotate(-340.254454)scale(0.02 -0.02)">
     <defs>
      <path d="M -19 4666 
L 3928 4666 
L 3928 4134 
L 2272 4134 
L 2272 0 
L 1638 0 
L 1638 4134 
L -19 4134 
L -19 4666 
z
" id="DejaVuSans-54" transform="scale(0.015625)"/>
      <path d="M 1959 3097 
Q 1497 3097 1228 2736 
Q 959 2375 959 1747 
Q 959 1119 1226 758 
Q 1494 397 1959 397 
Q 2419 397 2687 759 
Q 2956 1122 2956 1747 
Q 2956 2369 2687 2733 
Q 2419 3097 1959 3097 
z
M 1959 3584 
Q 2709 3584 3137 3096 
Q 3566 2609 3566 1747 
Q 3566 888 3137 398 
Q 2709 -91 1959 -91 
Q 1206 -91 779 398 
Q 353 888 353 1747 
Q 353 2609 779 3096 
Q 1206 3584 1959 3584 
z
" id="DejaVuSans-6f" transform="scale(0.015625)"/>
      <path d="M 3122 3366 
L 3122 2828 
Q 2878 2963 2633 3030 
Q 2388 3097 2138 3097 
Q 1578 3097 1268 2742 
Q 959 2388 959 1747 
Q 959 1106 1268 751 
Q 1578 397 2138 397 
Q 2388 397 2633 464 
Q 2878 531 3122 666 
L 3122 134 
Q 2881 22 2623 -34 
Q 2366 -91 2075 -91 
Q 1284 -91 818 406 
Q 353 903 353 1747 
Q 353 2603 823 3093 
Q 1294 3584 2113 3584 
Q 2378 3584 2631 3529 
Q 2884 3475 3122 3366 
z
" id="DejaVuSans-63" transform="scale(0.015625)"/>
      <path d="M 2834 3397 
L 2834 2853 
Q 2591 2978 2328 3040 
Q 2066 3103 1784 3103 
Q 1356 3103 1142 2972 
Q 928 2841 928 2578 
Q 928 2378 1081 2264 
Q 1234 2150 1697 2047 
L 1894 2003 
Q 2506 1872 2764 1633 
Q 3022 1394 3022 966 
Q 3022 478 2636 193 
Q 2250 -91 1575 -91 
Q 1294 -91 989 -36 
Q 684 19 347 128 
L 347 722 
Q 666 556 975 473 
Q 1284 391 1588 391 
Q 1994 391 2212 530 
Q 2431 669 2431 922 
Q 2431 1156 2273 1281 
Q 2116 1406 1581 1522 
L 1381 1569 
Q 847 1681 609 1914 
Q 372 2147 372 2553 
Q 372 3047 722 3315 
Q 1072 3584 1716 3584 
Q 2034 3584 2315 3537 
Q 2597 3491 2834 3397 
z
" id="DejaVuSans-73" transform="scale(0.015625)"/>
      <path d="M 2034 2216 
Q 1584 2216 1326 1975 
Q 1069 1734 1069 1313 
Q 1069 891 1326 650 
Q 1584 409 2034 409 
Q 2484 409 2743 651 
Q 3003 894 3003 1313 
Q 3003 1734 2745 1975 
Q 2488 2216 2034 2216 
z
M 1403 2484 
Q 997 2584 770 2862 
Q 544 3141 544 3541 
Q 544 4100 942 4425 
Q 1341 4750 2034 4750 
Q 2731 4750 3128 4425 
Q 3525 4100 3525 3541 
Q 3525 3141 3298 2862 
Q 3072 2584 2669 2484 
Q 3125 2378 3379 2068 
Q 3634 1759 3634 1313 
Q 3634 634 3220 271 
Q 2806 -91 2034 -91 
Q 1263 -91 848 271 
Q 434 634 434 1313 
Q 434 1759 690 2068 
Q 947 2378 1403 2484 
z
M 1172 3481 
Q 1172 3119 1398 2916 
Q 1625 2713 2034 2713 
Q 2441 2713 2670 2916 
Q 2900 3119 2900 3481 
Q 2900 3844 2670 4047 
Q 2441 4250 2034 4250 
Q 1625 4250 1398 4047 
Q 1172 3844 1172 3481 
z
" id="DejaVuSans-38" transform="scale(0.015625)"/>
     </defs>
     <use xlink:href="#DejaVuSans-54"/>
     <use x="46.333984" xlink:href="#DejaVuSans-72"/>
     <use x="85.197266" xlink:href="#DejaVuSans-6f"/>
     <use x="146.378906" xlink:href="#DejaVuSans-6c"/>
     <use x="174.162109" xlink:href="#DejaVuSans-6c"/>
     <use x="201.945312" xlink:href="#DejaVuSans-63"/>
     <use x="256.925781" xlink:href="#DejaVuSans-72"/>
     <use x="295.789062" xlink:href="#DejaVuSans-6f"/>
     <use x="356.970703" xlink:href="#DejaVuSans-73"/>
     <use x="409.070312" xlink:href="#DejaVuSans-73"/>
     <use x="461.169922" xlink:href="#DejaVuSans-20"/>
     <use x="492.957031" xlink:href="#DejaVuSans-31"/>
     <use x="556.580078" xlink:href="#DejaVuSans-31"/>
     <use x="620.203125" xlink:href="#DejaVuSans-2e"/>
     <use x="651.990234" xlink:href="#DejaVuSans-38"/>
     <use x="715.613281" xlink:href="#DejaVuSans-b0"/>
    </g>
   </g>
   <g id="text_8">
    <g id="patch_9">
     <path d="M 31.903679 72.286755 
L 36.309429 87.388464 
L 38.205992 86.835163 
L 33.800242 71.733455 
z
" style="fill:#ffffff;"/>
    </g>
    <!-- Lee's Run 15.5° -->
    <g style="fill:#008000;" transform="translate(32.327772 72.183865)rotate(-286.263998)scale(0.02 -0.02)">
     <defs>
      <path d="M 628 4666 
L 1259 4666 
L 1259 531 
L 3531 531 
L 3531 0 
L 628 0 
L 628 4666 
z
" id="DejaVuSans-4c" transform="scale(0.015625)"/>
      <path d="M 3597 1894 
L 3597 1613 
L 953 1613 
Q 991 1019 1311 708 
Q 1631 397 2203 397 
Q 2534 397 2845 478 
Q 3156 559 3463 722 
L 3463 178 
Q 3153 47 2828 -22 
Q 2503 -91 2169 -91 
Q 1331 -91 842 396 
Q 353 884 353 1716 
Q 353 2575 817 3079 
Q 1281 3584 2069 3584 
Q 2775 3584 3186 3129 
Q 3597 2675 3597 1894 
z
M 3022 2063 
Q 3016 2534 2758 2815 
Q 2500 3097 2075 3097 
Q 1594 3097 1305 2825 
Q 1016 2553 972 2059 
L 3022 2063 
z
" id="DejaVuSans-65" transform="scale(0.015625)"/>
      <path d="M 1147 4666 
L 1147 2931 
L 616 2931 
L 616 4666 
L 1147 4666 
z
" id="DejaVuSans-27" transform="scale(0.015625)"/>
      <path d="M 3513 2113 
L 3513 0 
L 2938 0 
L 2938 2094 
Q 2938 2591 2744 2837 
Q 2550 3084 2163 3084 
Q 1697 3084 1428 2787 
Q 1159 2491 1159 1978 
L 1159 0 
L 581 0 
L 581 3500 
L 1159 3500 
L 1159 2956 
Q 1366 3272 1645 3428 
Q 1925 3584 2291 3584 
Q 2894 3584 3203 3211 
Q 3513 2838 3513 2113 
z
" id="DejaVuSans-6e" transform="scale(0.015625)"/>
     </defs>
     <use xlink:href="#DejaVuSans-4c"/>
     <use x="53.962891" xlink:href="#DejaVuSans-65"/>
     <use x="115.486328" xlink:href="#DejaVuSans-65"/>
     <use x="177.009766" xlink:href="#DejaVuSans-27"/>
     <use x="204.5" xlink:href="#DejaVuSans-73"/>
     <use x="256.599609" xlink:href="#DejaVuSans-20"/>
     <use x="288.386719" xlink:href="#DejaVuSans-52"/>
     <use x="353.369141" xlink:href="#DejaVuSans-75"/>
     <use x="416.748047" xlink:href="#DejaVuSans-6e"/>
     <use x="480.126953" xlink:href="#DejaVuSans-20"/>
     <use x="511.914062" xlink:href="#DejaVuSans-31"/>
     <use x="575.537109" xlink:href="#DejaVuSans-35"/>
     <use x="639.160156" xlink:href="#DejaVuSans-2e"/>
     <use x="670.947266" xlink:href="#DejaVuSans-35"/>
     <use x="734.570312" xlink:href="#DejaVuSans-b0"/>
    </g>
   </g>
   <g id="text_9">
    <g id="patch_10">
     <path d="M 35.980773 61.472327 
L 45.151289 77.713348 
L 46.871611 76.741966 
L 37.701096 60.500945 
z
" style="fill:#ffffff;"/>
    </g>
    <!-- Storebakken 17.9° -->
    <g style="fill:#4169e1;" transform="translate(36.37021 61.275399)rotate(-299.451307)scale(0.02 -0.02)">
     <defs>
      <path d="M 525 4666 
L 3525 4666 
L 3525 4397 
L 1831 0 
L 1172 0 
L 2766 4134 
L 525 4134 
L 525 4666 
z
" id="DejaVuSans-37" transform="scale(0.015625)"/>
     </defs>
     <use xlink:href="#DejaVuSans-53"/>
     <use x="63.476562" xlink:href="#DejaVuSans-74"/>
     <use x="102.685547" xlink:href="#DejaVuSans-6f"/>
     <use x="163.867188" xlink:href="#DejaVuSans-72"/>
     <use x="202.730469" xlink:href="#DejaVuSans-65"/>
     <use x="264.253906" xlink:href="#DejaVuSans-62"/>
     <use x="327.730469" xlink:href="#DejaVuSans-61"/>
     <use x="389.009766" xlink:href="#DejaVuSans-6b"/>
     <use x="446.919922" xlink:href="#DejaVuSans-6b"/>
     <use x="501.205078" xlink:href="#DejaVuSans-65"/>
     <use x="562.728516" xlink:href="#DejaVuSans-6e"/>
     <use x="626.107422" xlink:href="#DejaVuSans-20"/>
     <use x="657.894531" xlink:href="#DejaVuSans-31"/>
     <use x="721.517578" xlink:href="#DejaVuSans-37"/>
     <use x="785.140625" xlink:href="#DejaVuSans-2e"/>
     <use x="816.927734" xlink:href="#DejaVuSans-39"/>
     <use x="880.550781" xlink:href="#DejaVuSans-b0"/>
    </g>
   </g>
   <g id="text_10">
    <g id="patch_11">
     <path d="M 41.650114 65.554934 
L 49.790338 77.503747 
L 51.423079 76.39143 
L 43.282855 64.442617 
z
" style="fill:#ffffff;"/>
    </g>
    <!-- Galende 17.4° -->
    <g style="fill:#4169e1;" transform="translate(42.021652 65.326021)rotate(-304.264959)scale(0.02 -0.02)">
     <defs>
      <path d="M 3809 666 
L 3809 1919 
L 2778 1919 
L 2778 2438 
L 4434 2438 
L 4434 434 
Q 4069 175 3628 42 
Q 3188 -91 2688 -91 
Q 1594 -91 976 548 
Q 359 1188 359 2328 
Q 359 3472 976 4111 
Q 1594 4750 2688 4750 
Q 3144 4750 3555 4637 
Q 3966 4525 4313 4306 
L 4313 3634 
Q 3963 3931 3569 4081 
Q 3175 4231 2741 4231 
Q 1884 4231 1454 3753 
Q 1025 3275 1025 2328 
Q 1025 1384 1454 906 
Q 1884 428 2741 428 
Q 3075 428 3337 486 
Q 3600 544 3809 666 
z
" id="DejaVuSans-47" transform="scale(0.015625)"/>
      <path d="M 2906 2969 
L 2906 4863 
L 3481 4863 
L 3481 0 
L 2906 0 
L 2906 525 
Q 2725 213 2448 61 
Q 2172 -91 1784 -91 
Q 1150 -91 751 415 
Q 353 922 353 1747 
Q 353 2572 751 3078 
Q 1150 3584 1784 3584 
Q 2172 3584 2448 3432 
Q 2725 3281 2906 2969 
z
M 947 1747 
Q 947 1113 1208 752 
Q 1469 391 1925 391 
Q 2381 391 2643 752 
Q 2906 1113 2906 1747 
Q 2906 2381 2643 2742 
Q 2381 3103 1925 3103 
Q 1469 3103 1208 2742 
Q 947 2381 947 1747 
z
" id="DejaVuSans-64" transform="scale(0.015625)"/>
     </defs>
     <use xlink:href="#DejaVuSans-47"/>
     <use x="77.490234" xlink:href="#DejaVuSans-61"/>
     <use x="138.769531" xlink:href="#DejaVuSans-6c"/>
     <use x="166.552734" xlink:href="#DejaVuSans-65"/>
     <use x="228.076172" xlink:href="#DejaVuSans-6e"/>
     <use x="291.455078" xlink:href="#DejaVuSans-64"/>
     <use x="354.931641" xlink:href="#DejaVuSans-65"/>
     <use x="416.455078" xlink:href="#DejaVuSans-20"/>
     <use x="448.242188" xlink:href="#DejaVuSans-31"/>
     <use x="511.865234" xlink:href="#DejaVuSans-37"/>
     <use x="575.488281" xlink:href="#DejaVuSans-2e"/>
     <use x="607.275391" xlink:href="#DejaVuSans-34"/>
     <use x="670.898438" xlink:href="#DejaVuSans-b0"/>
    </g>
   </g>
   <g id="text_11">
    <g id="patch_12">
     <path d="M 39.198528 60.144834 
L 48.417182 72.336164 
L 49.993007 71.144581 
L 40.774353 58.953251 
z
" style="fill:#ffffff;"/>
    </g>
    <!-- Jim's Run 16.1° -->
    <g style="fill:#008000;" transform="translate(39.558309 59.897854)rotate(-307.095285)scale(0.02 -0.02)">
     <defs>
      <path d="M 628 4666 
L 1259 4666 
L 1259 325 
Q 1259 -519 939 -900 
Q 619 -1281 -91 -1281 
L -331 -1281 
L -331 -750 
L -134 -750 
Q 284 -750 456 -515 
Q 628 -281 628 325 
L 628 4666 
z
" id="DejaVuSans-4a" transform="scale(0.015625)"/>
      <path d="M 2113 2584 
Q 1688 2584 1439 2293 
Q 1191 2003 1191 1497 
Q 1191 994 1439 701 
Q 1688 409 2113 409 
Q 2538 409 2786 701 
Q 3034 994 3034 1497 
Q 3034 2003 2786 2293 
Q 2538 2584 2113 2584 
z
M 3366 4563 
L 3366 3988 
Q 3128 4100 2886 4159 
Q 2644 4219 2406 4219 
Q 1781 4219 1451 3797 
Q 1122 3375 1075 2522 
Q 1259 2794 1537 2939 
Q 1816 3084 2150 3084 
Q 2853 3084 3261 2657 
Q 3669 2231 3669 1497 
Q 3669 778 3244 343 
Q 2819 -91 2113 -91 
Q 1303 -91 875 529 
Q 447 1150 447 2328 
Q 447 3434 972 4092 
Q 1497 4750 2381 4750 
Q 2619 4750 2861 4703 
Q 3103 4656 3366 4563 
z
" id="DejaVuSans-36" transform="scale(0.015625)"/>
     </defs>
     <use xlink:href="#DejaVuSans-4a"/>
     <use x="29.492188" xlink:href="#DejaVuSans-69"/>
     <use x="57.275391" xlink:href="#DejaVuSans-6d"/>
     <use x="154.6875" xlink:href="#DejaVuSans-27"/>
     <use x="182.177734" xlink:href="#DejaVuSans-73"/>
     <use x="234.277344" xlink:href="#DejaVuSans-20"/>
     <use x="266.064453" xlink:href="#DejaVuSans-52"/>
     <use x="331.046875" xlink:href="#DejaVuSans-75"/>
     <use x="394.425781" xlink:href="#DejaVuSans-6e"/>
     <use x="457.804688" xlink:href="#DejaVuSans-20"/>
     <use x="489.591797" xlink:href="#DejaVuSans-31"/>
     <use x="553.214844" xlink:href="#DejaVuSans-36"/>
     <use x="616.837891" xlink:href="#DejaVuSans-2e"/>
     <use x="648.625" xlink:href="#DejaVuSans-31"/>
     <use x="712.248047" xlink:href="#DejaVuSans-b0"/>
    </g>
   </g>
   <g id="text_12">
    <g id="patch_13">
     <path d="M 51.266102 62.686012 
L 62.406799 79.295418 
L 64.047522 78.194909 
L 52.906826 61.585503 
z
" style="fill:#ffffff;"/>
    </g>
    <!-- Nissenbakken 13.2° -->
    <g style="fill:#008000;" transform="translate(51.639282 62.459785)rotate(-303.851584)scale(0.02 -0.02)">
     <defs>
      <path d="M 628 4666 
L 1478 4666 
L 3547 763 
L 3547 4666 
L 4159 4666 
L 4159 0 
L 3309 0 
L 1241 3903 
L 1241 0 
L 628 0 
L 628 4666 
z
" id="DejaVuSans-4e" transform="scale(0.015625)"/>
     </defs>
     <use xlink:href="#DejaVuSans-4e"/>
     <use x="74.804688" xlink:href="#DejaVuSans-69"/>
     <use x="102.587891" xlink:href="#DejaVuSans-73"/>
     <use x="154.6875" xlink:href="#DejaVuSans-73"/>
     <use x="206.787109" xlink:href="#DejaVuSans-65"/>
     <use x="268.310547" xlink:href="#DejaVuSans-6e"/>
     <use x="331.689453" xlink:href="#DejaVuSans-62"/>
     <use x="395.166016" xlink:href="#DejaVuSans-61"/>
     <use x="456.445312" xlink:href="#DejaVuSans-6b"/>
     <use x="514.355469" xlink:href="#DejaVuSans-6b"/>
     <use x="568.640625" xlink:href="#DejaVuSans-65"/>
     <use x="630.164062" xlink:href="#DejaVuSans-6e"/>
     <use x="693.542969" xlink:href="#DejaVuSans-20"/>
     <use x="725.330078" xlink:href="#DejaVuSans-31"/>
     <use x="788.953125" xlink:href="#DejaVuSans-33"/>
     <use x="852.576172" xlink:href="#DejaVuSans-2e"/>
     <use x="884.363281" xlink:href="#DejaVuSans-32"/>
     <use x="947.986328" xlink:href="#DejaVuSans-b0"/>
    </g>
   </g>
   <g id="text_13">
    <g id="patch_14">
     <path d="M 52.374155 51.5216 
L 63.193842 64.276652 
L 64.700436 62.998658 
L 53.880749 50.243607 
z
" style="fill:#ffffff;"/>
    </g>
    <!-- Vosterdohl 12.3° -->
    <g style="fill:#008000;" transform="translate(52.719534 51.254853)rotate(-310.306837)scale(0.02 -0.02)">
     <defs>
      <path d="M 1831 0 
L 50 4666 
L 709 4666 
L 2188 738 
L 3669 4666 
L 4325 4666 
L 2547 0 
L 1831 0 
z
" id="DejaVuSans-56" transform="scale(0.015625)"/>
     </defs>
     <use xlink:href="#DejaVuSans-56"/>
     <use x="60.658203" xlink:href="#DejaVuSans-6f"/>
     <use x="121.839844" xlink:href="#DejaVuSans-73"/>
     <use x="173.939453" xlink:href="#DejaVuSans-74"/>
     <use x="213.148438" xlink:href="#DejaVuSans-65"/>
     <use x="274.671875" xlink:href="#DejaVuSans-72"/>
     <use x="314.035156" xlink:href="#DejaVuSans-64"/>
     <use x="377.511719" xlink:href="#DejaVuSans-6f"/>
     <use x="438.693359" xlink:href="#DejaVuSans-68"/>
     <use x="502.072266" xlink:href="#DejaVuSans-6c"/>
     <use x="529.855469" xlink:href="#DejaVuSans-20"/>
     <use x="561.642578" xlink:href="#DejaVuSans-31"/>
     <use x="625.265625" xlink:href="#DejaVuSans-32"/>
     <use x="688.888672" xlink:href="#DejaVuSans-2e"/>
     <use x="720.675781" xlink:href="#DejaVuSans-33"/>
     <use x="784.298828" xlink:href="#DejaVuSans-b0"/>
    </g>
   </g>
   <g id="text_14">
    <g id="patch_15">
     <path d="M 38.68781 32.08208 
L 45.057148 46.874396 
L 46.871709 46.093075 
L 40.502371 31.300759 
z
" style="fill:#ffffff;"/>
    </g>
    <!-- Lillebakken 9.7° -->
    <g style="fill:#008000;" transform="translate(39.096117 31.928045)rotate(-293.295949)scale(0.02 -0.02)">
     <use xlink:href="#DejaVuSans-4c"/>
     <use x="55.712891" xlink:href="#DejaVuSans-69"/>
     <use x="83.496094" xlink:href="#DejaVuSans-6c"/>
     <use x="111.279297" xlink:href="#DejaVuSans-6c"/>
     <use x="139.0625" xlink:href="#DejaVuSans-65"/>
     <use x="200.585938" xlink:href="#DejaVuSans-62"/>
     <use x="264.0625" xlink:href="#DejaVuSans-61"/>
     <use x="325.341797" xlink:href="#DejaVuSans-6b"/>
     <use x="383.251953" xlink:href="#DejaVuSans-6b"/>
     <use x="437.537109" xlink:href="#DejaVuSans-65"/>
     <use x="499.060547" xlink:href="#DejaVuSans-6e"/>
     <use x="562.439453" xlink:href="#DejaVuSans-20"/>
     <use x="594.226562" xlink:href="#DejaVuSans-39"/>
     <use x="657.849609" xlink:href="#DejaVuSans-2e"/>
     <use x="689.636719" xlink:href="#DejaVuSans-37"/>
     <use x="753.259766" xlink:href="#DejaVuSans-b0"/>
    </g>
   </g>
   <g id="text_15">
    <g id="patch_16">
     <path d="M 43.706431 26.604399 
L 52.113183 42.810219 
L 53.866888 41.900486 
L 45.460136 25.694667 
z
" style="fill:#ffffff;"/>
    </g>
    <!-- Logan's Run 12.6° -->
    <g style="fill:#008000;" transform="translate(44.10261 26.421413)rotate(-297.41798)scale(0.02 -0.02)">
     <defs>
      <path d="M 2906 1791 
Q 2906 2416 2648 2759 
Q 2391 3103 1925 3103 
Q 1463 3103 1205 2759 
Q 947 2416 947 1791 
Q 947 1169 1205 825 
Q 1463 481 1925 481 
Q 2391 481 2648 825 
Q 2906 1169 2906 1791 
z
M 3481 434 
Q 3481 -459 3084 -895 
Q 2688 -1331 1869 -1331 
Q 1566 -1331 1297 -1286 
Q 1028 -1241 775 -1147 
L 775 -588 
Q 1028 -725 1275 -790 
Q 1522 -856 1778 -856 
Q 2344 -856 2625 -561 
Q 2906 -266 2906 331 
L 2906 616 
Q 2728 306 2450 153 
Q 2172 0 1784 0 
Q 1141 0 747 490 
Q 353 981 353 1791 
Q 353 2603 747 3093 
Q 1141 3584 1784 3584 
Q 2172 3584 2450 3431 
Q 2728 3278 2906 2969 
L 2906 3500 
L 3481 3500 
L 3481 434 
z
" id="DejaVuSans-67" transform="scale(0.015625)"/>
     </defs>
     <use xlink:href="#DejaVuSans-4c"/>
     <use x="53.962891" xlink:href="#DejaVuSans-6f"/>
     <use x="115.144531" xlink:href="#DejaVuSans-67"/>
     <use x="178.621094" xlink:href="#DejaVuSans-61"/>
     <use x="239.900391" xlink:href="#DejaVuSans-6e"/>
     <use x="303.279297" xlink:href="#DejaVuSans-27"/>
     <use x="330.769531" xlink:href="#DejaVuSans-73"/>
     <use x="382.869141" xlink:href="#DejaVuSans-20"/>
     <use x="414.65625" xlink:href="#DejaVuSans-52"/>
     <use x="479.638672" xlink:href="#DejaVuSans-75"/>
     <use x="543.017578" xlink:href="#DejaVuSans-6e"/>
     <use x="606.396484" xlink:href="#DejaVuSans-20"/>
     <use x="638.183594" xlink:href="#DejaVuSans-31"/>
     <use x="701.806641" xlink:href="#DejaVuSans-32"/>
     <use x="765.429688" xlink:href="#DejaVuSans-2e"/>
     <use x="797.216797" xlink:href="#DejaVuSans-36"/>
     <use x="860.839844" xlink:href="#DejaVuSans-b0"/>
    </g>
   </g>
   <g id="text_16">
    <g id="patch_17">
     <path d="M 45.738363 24.973793 
L 56.098658 38.4643 
L 57.66554 37.260982 
L 47.305246 23.770475 
z
" style="fill:#ffffff;"/>
    </g>
    <!-- Julebakken 14.6° -->
    <g style="fill:#008000;" transform="translate(46.09629 24.724133)rotate(-307.523154)scale(0.02 -0.02)">
     <use xlink:href="#DejaVuSans-4a"/>
     <use x="29.492188" xlink:href="#DejaVuSans-75"/>
     <use x="92.871094" xlink:href="#DejaVuSans-6c"/>
     <use x="120.654297" xlink:href="#DejaVuSans-65"/>
     <use x="182.177734" xlink:href="#DejaVuSans-62"/>
     <use x="245.654297" xlink:href="#DejaVuSans-61"/>
     <use x="306.933594" xlink:href="#DejaVuSans-6b"/>
     <use x="364.84375" xlink:href="#DejaVuSans-6b"/>
     <use x="419.128906" xlink:href="#DejaVuSans-65"/>
     <use x="480.652344" xlink:href="#DejaVuSans-6e"/>
     <use x="544.03125" xlink:href="#DejaVuSans-20"/>
     <use x="575.818359" xlink:href="#DejaVuSans-31"/>
     <use x="639.441406" xlink:href="#DejaVuSans-34"/>
     <use x="703.064453" xlink:href="#DejaVuSans-2e"/>
     <use x="734.851562" xlink:href="#DejaVuSans-36"/>
     <use x="798.474609" xlink:href="#DejaVuSans-b0"/>
    </g>
   </g>
   <g id="text_17">
    <g id="patch_18">
     <path d="M 45.549256 16.418796 
L 62.123131 18.751201 
L 62.398443 16.794853 
L 45.824568 14.462449 
z
" style="fill:#ffffff;"/>
    </g>
    <!-- Bjorkedahl 11.4° -->
    <g style="fill:#008000;" transform="translate(45.62981 15.9899)rotate(-351.989496)scale(0.02 -0.02)">
     <defs>
      <path d="M 1259 2228 
L 1259 519 
L 2272 519 
Q 2781 519 3026 730 
Q 3272 941 3272 1375 
Q 3272 1813 3026 2020 
Q 2781 2228 2272 2228 
L 1259 2228 
z
M 1259 4147 
L 1259 2741 
L 2194 2741 
Q 2656 2741 2882 2914 
Q 3109 3088 3109 3444 
Q 3109 3797 2882 3972 
Q 2656 4147 2194 4147 
L 1259 4147 
z
M 628 4666 
L 2241 4666 
Q 2963 4666 3353 4366 
Q 3744 4066 3744 3513 
Q 3744 3084 3544 2831 
Q 3344 2578 2956 2516 
Q 3422 2416 3680 2098 
Q 3938 1781 3938 1306 
Q 3938 681 3513 340 
Q 3088 0 2303 0 
L 628 0 
L 628 4666 
z
" id="DejaVuSans-42" transform="scale(0.015625)"/>
      <path d="M 603 3500 
L 1178 3500 
L 1178 -63 
Q 1178 -731 923 -1031 
Q 669 -1331 103 -1331 
L -116 -1331 
L -116 -844 
L 38 -844 
Q 366 -844 484 -692 
Q 603 -541 603 -63 
L 603 3500 
z
M 603 4863 
L 1178 4863 
L 1178 4134 
L 603 4134 
L 603 4863 
z
" id="DejaVuSans-6a" transform="scale(0.015625)"/>
     </defs>
     <use xlink:href="#DejaVuSans-42"/>
     <use x="68.603516" xlink:href="#DejaVuSans-6a"/>
     <use x="96.386719" xlink:href="#DejaVuSans-6f"/>
     <use x="157.568359" xlink:href="#DejaVuSans-72"/>
     <use x="198.681641" xlink:href="#DejaVuSans-6b"/>
     <use x="252.966797" xlink:href="#DejaVuSans-65"/>
     <use x="314.490234" xlink:href="#DejaVuSans-64"/>
     <use x="377.966797" xlink:href="#DejaVuSans-61"/>
     <use x="439.246094" xlink:href="#DejaVuSans-68"/>
     <use x="502.625" xlink:href="#DejaVuSans-6c"/>
     <use x="530.408203" xlink:href="#DejaVuSans-20"/>
     <use x="562.195312" xlink:href="#DejaVuSans-31"/>
     <use x="625.818359" xlink:href="#DejaVuSans-31"/>
     <use x="689.441406" xlink:href="#DejaVuSans-2e"/>
     <use x="721.228516" xlink:href="#DejaVuSans-34"/>
     <use x="784.851562" xlink:href="#DejaVuSans-b0"/>
    </g>
   </g>
   <g id="text_18">
    <!-- Trollhaugen -->
    <g transform="translate(33.013638 7.445355)scale(0.07 -0.07)">
     <use xlink:href="#DejaVuSans-54"/>
     <use x="46.333984" xlink:href="#DejaVuSans-72"/>
     <use x="85.197266" xlink:href="#DejaVuSans-6f"/>
     <use x="146.378906" xlink:href="#DejaVuSans-6c"/>
     <use x="174.162109" xlink:href="#DejaVuSans-6c"/>
     <use x="201.945312" xlink:href="#DejaVuSans-68"/>
     <use x="265.324219" xlink:href="#DejaVuSans-61"/>
     <use x="326.603516" xlink:href="#DejaVuSans-75"/>
     <use x="389.982422" xlink:href="#DejaVuSans-67"/>
     <use x="453.458984" xlink:href="#DejaVuSans-65"/>
     <use x="514.982422" xlink:href="#DejaVuSans-6e"/>
    </g>
   </g>
   <g id="legend_1">
    <g id="line2d_36">
     <path d="M 4.254849 115.376294 
L 11.254849 115.376294 
" style="fill:none;stroke:#008000;stroke-linecap:square;stroke-width:0.493113;"/>
    </g>
    <g id="line2d_37"/>
    <g id="text_19">
     <!-- Easy -->
     <g transform="translate(14.054849 116.601294)scale(0.035 -0.035)">
      <defs>
       <path d="M 628 4666 
L 3578 4666 
L 3578 4134 
L 1259 4134 
L 1259 2753 
L 3481 2753 
L 3481 2222 
L 1259 2222 
L 1259 531 
L 3634 531 
L 3634 0 
L 628 0 
L 628 4666 
z
" id="DejaVuSans-45" transform="scale(0.015625)"/>
       <path d="M 2059 -325 
Q 1816 -950 1584 -1140 
Q 1353 -1331 966 -1331 
L 506 -1331 
L 506 -850 
L 844 -850 
Q 1081 -850 1212 -737 
Q 1344 -625 1503 -206 
L 1606 56 
L 191 3500 
L 800 3500 
L 1894 763 
L 2988 3500 
L 3597 3500 
L 2059 -325 
z
" id="DejaVuSans-79" transform="scale(0.015625)"/>
      </defs>
      <use xlink:href="#DejaVuSans-45"/>
      <use x="63.183594" xlink:href="#DejaVuSans-61"/>
      <use x="124.462891" xlink:href="#DejaVuSans-73"/>
      <use x="176.5625" xlink:href="#DejaVuSans-79"/>
     </g>
    </g>
    <g id="line2d_38">
     <path d="M 4.254849 120.513637 
L 11.254849 120.513637 
" style="fill:none;stroke:#4169e1;stroke-linecap:square;stroke-width:0.493113;"/>
    </g>
    <g id="line2d_39"/>
    <g id="text_20">
     <!-- Intermediate -->
     <g transform="translate(14.054849 121.738637)scale(0.035 -0.035)">
      <defs>
       <path d="M 628 4666 
L 1259 4666 
L 1259 0 
L 628 0 
L 628 4666 
z
" id="DejaVuSans-49" transform="scale(0.015625)"/>
      </defs>
      <use xlink:href="#DejaVuSans-49"/>
      <use x="29.492188" xlink:href="#DejaVuSans-6e"/>
      <use x="92.871094" xlink:href="#DejaVuSans-74"/>
      <use x="132.080078" xlink:href="#DejaVuSans-65"/>
      <use x="193.603516" xlink:href="#DejaVuSans-72"/>
      <use x="232.966797" xlink:href="#DejaVuSans-6d"/>
      <use x="330.378906" xlink:href="#DejaVuSans-65"/>
      <use x="391.902344" xlink:href="#DejaVuSans-64"/>
      <use x="455.378906" xlink:href="#DejaVuSans-69"/>
      <use x="483.162109" xlink:href="#DejaVuSans-61"/>
      <use x="544.441406" xlink:href="#DejaVuSans-74"/>
      <use x="583.650391" xlink:href="#DejaVuSans-65"/>
     </g>
    </g>
    <g id="line2d_40">
     <path d="M 43.636412 115.376294 
L 50.636412 115.376294 
" style="fill:none;stroke:#000000;stroke-linecap:square;stroke-width:0.493113;"/>
    </g>
    <g id="line2d_41"/>
    <g id="text_21">
     <!-- Advanced -->
     <g transform="translate(53.436412 116.601294)scale(0.035 -0.035)">
      <defs>
       <path d="M 2188 4044 
L 1331 1722 
L 3047 1722 
L 2188 4044 
z
M 1831 4666 
L 2547 4666 
L 4325 0 
L 3669 0 
L 3244 1197 
L 1141 1197 
L 716 0 
L 50 0 
L 1831 4666 
z
" id="DejaVuSans-41" transform="scale(0.015625)"/>
       <path d="M 191 3500 
L 800 3500 
L 1894 563 
L 2988 3500 
L 3597 3500 
L 2284 0 
L 1503 0 
L 191 3500 
z
" id="DejaVuSans-76" transform="scale(0.015625)"/>
      </defs>
      <use xlink:href="#DejaVuSans-41"/>
      <use x="66.658203" xlink:href="#DejaVuSans-64"/>
      <use x="130.134766" xlink:href="#DejaVuSans-76"/>
      <use x="189.314453" xlink:href="#DejaVuSans-61"/>
      <use x="250.59375" xlink:href="#DejaVuSans-6e"/>
      <use x="313.972656" xlink:href="#DejaVuSans-63"/>
      <use x="368.953125" xlink:href="#DejaVuSans-65"/>
      <use x="430.476562" xlink:href="#DejaVuSans-64"/>
     </g>
    </g>
    <g id="line2d_42">
     <path d="M 43.636412 120.513637 
L 50.636412 120.513637 
" style="fill:none;stroke:#ff0000;stroke-linecap:square;stroke-width:0.493113;"/>
    </g>
    <g id="line2d_43"/>
    <g id="text_22">
     <!-- Expert -->
     <g transform="translate(53.436412 121.738637)scale(0.035 -0.035)">
      <defs>
       <path d="M 3513 3500 
L 2247 1797 
L 3578 0 
L 2900 0 
L 1881 1375 
L 863 0 
L 184 0 
L 1544 1831 
L 300 3500 
L 978 3500 
L 1906 2253 
L 2834 3500 
L 3513 3500 
z
" id="DejaVuSans-78" transform="scale(0.015625)"/>
       <path d="M 1159 525 
L 1159 -1331 
L 581 -1331 
L 581 3500 
L 1159 3500 
L 1159 2969 
Q 1341 3281 1617 3432 
Q 1894 3584 2278 3584 
Q 2916 3584 3314 3078 
Q 3713 2572 3713 1747 
Q 3713 922 3314 415 
Q 2916 -91 2278 -91 
Q 1894 -91 1617 61 
Q 1341 213 1159 525 
z
M 3116 1747 
Q 3116 2381 2855 2742 
Q 2594 3103 2138 3103 
Q 1681 3103 1420 2742 
Q 1159 2381 1159 1747 
Q 1159 1113 1420 752 
Q 1681 391 2138 391 
Q 2594 391 2855 752 
Q 3116 1113 3116 1747 
z
" id="DejaVuSans-70" transform="scale(0.015625)"/>
      </defs>
      <use xlink:href="#DejaVuSans-45"/>
      <use x="63.183594" xlink:href="#DejaVuSans-78"/>
      <use x="122.363281" xlink:href="#DejaVuSans-70"/>
      <use x="185.839844" xlink:href="#DejaVuSans-65"/>
      <use x="247.363281" xlink:href="#DejaVuSans-72"/>
      <use x="288.476562" xlink:href="#DejaVuSans-74"/>
     </g>
    </g>
    <g id="line2d_44">
     <path d="M 77.725865 115.376294 
L 84.725865 115.376294 
" style="fill:none;stroke:#ffd700;stroke-linecap:square;stroke-width:0.493113;"/>
    </g>
    <g id="line2d_45"/>
    <g id="text_23">
     <!-- Extreme -->
     <g transform="translate(87.525865 116.601294)scale(0.035 -0.035)">
      <use xlink:href="#DejaVuSans-45"/>
      <use x="63.183594" xlink:href="#DejaVuSans-78"/>
      <use x="122.363281" xlink:href="#DejaVuSans-74"/>
      <use x="161.572266" xlink:href="#DejaVuSans-72"/>
      <use x="200.435547" xlink:href="#DejaVuSans-65"/>
      <use x="261.958984" xlink:href="#DejaVuSans-6d"/>
      <use x="359.371094" xlink:href="#DejaVuSans-65"/>
     </g>
    </g>
    <g id="line2d_46">
     <path d="M 77.725865 120.513637 
L 84.725865 120.513637 
" style="fill:none;stroke:#000000;stroke-dasharray:0.493113,0.813637;stroke-dashoffset:0;stroke-width:0.493113;"/>
    </g>
    <g id="line2d_47"/>
    <g id="text_24">
     <!-- Gladed -->
     <g transform="translate(87.525865 121.738637)scale(0.035 -0.035)">
      <use xlink:href="#DejaVuSans-47"/>
      <use x="77.490234" xlink:href="#DejaVuSans-6c"/>
      <use x="105.273438" xlink:href="#DejaVuSans-61"/>
      <use x="166.552734" xlink:href="#DejaVuSans-64"/>
      <use x="230.029297" xlink:href="#DejaVuSans-65"/>
      <use x="291.552734" xlink:href="#DejaVuSans-64"/>
     </g>
    </g>
   </g>
  </g>
  <g id="text_25">
   <!-- Sources: USGS and OpenStreetMaps -->
   <g transform="translate(25.49375 126.862869)scale(0.030435 -0.030435)">
    <defs>
     <path d="M 750 794 
L 1409 794 
L 1409 0 
L 750 0 
L 750 794 
z
M 750 3309 
L 1409 3309 
L 1409 2516 
L 750 2516 
L 750 3309 
z
" id="DejaVuSans-3a" transform="scale(0.015625)"/>
     <path d="M 556 4666 
L 1191 4666 
L 1191 1831 
Q 1191 1081 1462 751 
Q 1734 422 2344 422 
Q 2950 422 3222 751 
Q 3494 1081 3494 1831 
L 3494 4666 
L 4128 4666 
L 4128 1753 
Q 4128 841 3676 375 
Q 3225 -91 2344 -91 
Q 1459 -91 1007 375 
Q 556 841 556 1753 
L 556 4666 
z
" id="DejaVuSans-55" transform="scale(0.015625)"/>
     <path d="M 2522 4238 
Q 1834 4238 1429 3725 
Q 1025 3213 1025 2328 
Q 1025 1447 1429 934 
Q 1834 422 2522 422 
Q 3209 422 3611 934 
Q 4013 1447 4013 2328 
Q 4013 3213 3611 3725 
Q 3209 4238 2522 4238 
z
M 2522 4750 
Q 3503 4750 4090 4092 
Q 4678 3434 4678 2328 
Q 4678 1225 4090 567 
Q 3503 -91 2522 -91 
Q 1538 -91 948 565 
Q 359 1222 359 2328 
Q 359 3434 948 4092 
Q 1538 4750 2522 4750 
z
" id="DejaVuSans-4f" transform="scale(0.015625)"/>
     <path d="M 628 4666 
L 1569 4666 
L 2759 1491 
L 3956 4666 
L 4897 4666 
L 4897 0 
L 4281 0 
L 4281 4097 
L 3078 897 
L 2444 897 
L 1241 4097 
L 1241 0 
L 628 0 
L 628 4666 
z
" id="DejaVuSans-4d" transform="scale(0.015625)"/>
    </defs>
    <use xlink:href="#DejaVuSans-53"/>
    <use x="63.476562" xlink:href="#DejaVuSans-6f"/>
    <use x="124.658203" xlink:href="#DejaVuSans-75"/>
    <use x="188.037109" xlink:href="#DejaVuSans-72"/>
    <use x="226.900391" xlink:href="#DejaVuSans-63"/>
    <use x="281.880859" xlink:href="#DejaVuSans-65"/>
    <use x="343.404297" xlink:href="#DejaVuSans-73"/>
    <use x="395.503906" xlink:href="#DejaVuSans-3a"/>
    <use x="429.195312" xlink:href="#DejaVuSans-20"/>
    <use x="460.982422" xlink:href="#DejaVuSans-55"/>
    <use x="534.175781" xlink:href="#DejaVuSans-53"/>
    <use x="597.652344" xlink:href="#DejaVuSans-47"/>
    <use x="675.142578" xlink:href="#DejaVuSans-53"/>
    <use x="738.619141" xlink:href="#DejaVuSans-20"/>
    <use x="770.40625" xlink:href="#DejaVuSans-61"/>
    <use x="831.685547" xlink:href="#DejaVuSans-6e"/>
    <use x="895.064453" xlink:href="#DejaVuSans-64"/>
    <use x="958.541016" xlink:href="#DejaVuSans-20"/>
    <use x="990.328125" xlink:href="#DejaVuSans-4f"/>
    <use x="1069.039062" xlink:href="#DejaVuSans-70"/>
    <use x="1132.515625" xlink:href="#DejaVuSans-65"/>
    <use x="1194.039062" xlink:href="#DejaVuSans-6e"/>
    <use x="1257.417969" xlink:href="#DejaVuSans-53"/>
    <use x="1320.894531" xlink:href="#DejaVuSans-74"/>
    <use x="1360.103516" xlink:href="#DejaVuSans-72"/>
    <use x="1398.966797" xlink:href="#DejaVuSans-65"/>
    <use x="1460.490234" xlink:href="#DejaVuSans-65"/>
    <use x="1522.013672" xlink:href="#DejaVuSans-74"/>
    <use x="1561.222656" xlink:href="#DejaVuSans-4d"/>
    <use x="1647.501953" xlink:href="#DejaVuSans-61"/>
    <use x="1708.78125" xlink:href="#DejaVuSans-70"/>
    <use x="1772.257812" xlink:href="#DejaVuSans-73"/>
   </g>
  </g>
 </g>
 <defs>
  <clipPath id="p75326832d9">
   <rect height="105.605107" width="106.512433" x="0" y="10.945355"/>
  </clipPath>
 </defs>
</svg>
