<?xml version="1.0" encoding="utf-8" standalone="no"?>
<!DOCTYPE svg PUBLIC "-//W3C//DTD SVG 1.1//EN"
  "http://www.w3.org/Graphics/SVG/1.1/DTD/svg11.dtd">
<svg height="71.474525pt" version="1.1" viewBox="0 0 91.241458 71.474525" width="91.241458pt" xmlns="http://www.w3.org/2000/svg" xmlns:xlink="http://www.w3.org/1999/xlink">
 <metadata>
  <rdf:RDF xmlns:cc="http://creativecommons.org/ns#" xmlns:dc="http://purl.org/dc/elements/1.1/" xmlns:rdf="http://www.w3.org/1999/02/22-rdf-syntax-ns#">
   <cc:Work>
    <dc:type rdf:resource="http://purl.org/dc/dcmitype/StillImage"/>
    <dc:date>2022-05-19T21:10:05.210437</dc:date>
    <dc:format>image/svg+xml</dc:format>
    <dc:creator>
     <cc:Agent>
      <dc:title>Matplotlib v3.4.3, https://matplotlib.org/</dc:title>
     </cc:Agent>
    </dc:creator>
   </cc:Work>
  </rdf:RDF>
 </metadata>
 <defs>
  <style type="text/css">*{stroke-linecap:butt;stroke-linejoin:round;}</style>
 </defs>
 <g id="figure_1">
  <g id="patch_1">
   <path d="M 0 71.474525 
L 91.241458 71.474525 
L 91.241458 0 
L 0 0 
z
" style="fill:none;"/>
  </g>
  <g id="axes_1">
   <g id="line2d_1">
    <path clip-path="url(#p32bdca14a5)" d="M 39.472701 17.040886 
" style="fill:none;stroke:#008000;stroke-linecap:square;stroke-width:0.001;"/>
   </g>
   <g id="line2d_2">
    <path clip-path="url(#p32bdca14a5)" d="M 39.472701 17.040886 
" style="fill:none;stroke:#4169e1;stroke-linecap:square;stroke-width:0.001;"/>
   </g>
   <g id="line2d_3">
    <path clip-path="url(#p32bdca14a5)" d="M 39.472701 17.040886 
" style="fill:none;stroke:#000000;stroke-linecap:square;stroke-width:0.001;"/>
   </g>
   <g id="line2d_4">
    <path clip-path="url(#p32bdca14a5)" d="M 39.472701 17.040886 
" style="fill:none;stroke:#ff0000;stroke-linecap:square;stroke-width:0.001;"/>
   </g>
   <g id="line2d_5">
    <path clip-path="url(#p32bdca14a5)" d="M 39.472701 17.040886 
" style="fill:none;stroke:#ffd700;stroke-linecap:square;stroke-width:0.001;"/>
   </g>
   <g id="line2d_6">
    <path clip-path="url(#p32bdca14a5)" d="M 39.472701 17.040886 
" style="fill:none;stroke:#000000;stroke-dasharray:0.001,0.00165;stroke-dashoffset:0;stroke-width:0.001;"/>
   </g>
   <g id="line2d_7">
    <path clip-path="url(#p32bdca14a5)" d="M 23.688259 58.230536 
L 25.321013 53.056255 
L 26.953767 47.881974 
L 28.586521 42.707693 
L 30.219276 37.533412 
L 31.85203 32.359131 
L 33.484784 27.18485 
L 35.117538 22.010569 
L 36.750292 16.836288 
" style="fill:none;stroke:#808080;stroke-linecap:square;stroke-width:0.422414;"/>
   </g>
   <g id="line2d_8">
    <path clip-path="url(#p32bdca14a5)" d="M 43.685574 53.187956 
L 44.006593 48.123629 
L 44.327611 43.059302 
L 44.64863 37.994976 
L 44.969649 32.930649 
L 45.290668 27.866322 
L 45.611686 22.801995 
L 45.932705 17.737668 
L 46.253724 12.673341 
" style="fill:none;stroke:#808080;stroke-linecap:square;stroke-width:0.422414;"/>
   </g>
   <g id="line2d_9">
    <path clip-path="url(#p32bdca14a5)" d="M 49.459124 54.597874 
L 54.11363 52.823298 
L 58.768136 51.048722 
L 63.422643 49.274146 
L 68.077149 47.49957 
L 72.731655 45.724994 
L 77.386161 43.950418 
L 82.040667 42.175842 
L 86.695173 40.401266 
" style="fill:none;stroke:#808080;stroke-linecap:square;stroke-width:0.422414;"/>
   </g>
   <g id="line2d_10">
    <path clip-path="url(#p32bdca14a5)" d="M 22.365885 46.814793 
L 22.30365 42.542588 
L 22.241414 38.270383 
L 22.179178 33.998178 
L 22.116943 29.725973 
" style="fill:none;stroke:#808080;stroke-linecap:square;stroke-width:0.422414;"/>
   </g>
   <g id="line2d_11">
    <path clip-path="url(#p32bdca14a5)" d="M 27.550059 58.759429 
L 28.974563 53.701539 
" style="fill:none;stroke:#808080;stroke-linecap:square;stroke-width:0.422414;"/>
   </g>
   <g id="line2d_12">
    <path clip-path="url(#p32bdca14a5)" d="M 39.472701 17.040886 
L 39.460234 18.149257 
L 39.447767 19.257627 
L 39.4353 20.365998 
L 39.422833 21.474369 
L 39.410366 22.582739 
L 39.397899 23.69111 
L 39.385432 24.79948 
L 39.372965 25.907851 
L 39.360498 27.016222 
L 39.348031 28.124592 
L 39.335563 29.232963 
L 39.323096 30.341334 
L 39.310629 31.449704 
L 39.298162 32.558075 
L 39.285695 33.666445 
L 39.273228 34.774816 
L 39.260761 35.883187 
L 39.248294 36.991557 
L 39.235827 38.099928 
L 39.22336 39.208298 
L 39.210893 40.316669 
L 39.198426 41.42504 
L 39.185959 42.53341 
L 39.173492 43.641781 
L 39.161024 44.750152 
L 39.148557 45.858522 
L 39.13609 46.966893 
L 39.123623 48.075263 
L 39.111156 49.183634 
L 39.098689 50.292005 
L 39.086222 51.400375 
L 39.073755 52.508746 
" style="fill:none;stroke:#4169e1;stroke-linecap:square;stroke-width:0.422414;"/>
   </g>
   <g id="line2d_13">
    <path clip-path="url(#p32bdca14a5)" d="M 43.856855 13.781233 
L 43.895951 15.10799 
L 43.935048 16.434747 
L 43.974145 17.761503 
L 44.013242 19.08826 
L 44.068562 20.963047 
L 44.185586 22.549727 
L 44.302611 24.136407 
L 44.511792 25.2697 
L 44.720972 26.402993 
L 44.930153 27.536286 
L 45.139334 28.669578 
L 45.348515 29.802871 
L 45.557696 30.936164 
L 45.766876 32.069457 
L 45.976057 33.20275 
L 46.065953 35.074754 
L 46.155849 36.946758 
L 46.072336 38.815978 
L 45.988824 40.685198 
L 45.905311 42.554418 
L 45.821798 44.423638 
L 45.738418 45.531356 
L 45.655039 46.639075 
L 45.571659 47.746793 
L 45.488279 48.854511 
L 45.404899 49.962229 
L 45.321519 51.069948 
L 45.23814 52.177666 
L 45.15476 53.285384 
" style="fill:none;stroke:#4169e1;stroke-linecap:square;stroke-width:0.422414;"/>
   </g>
   <g id="line2d_14">
    <path clip-path="url(#p32bdca14a5)" d="M 34.56513 17.804998 
L 34.106741 19.029803 
L 33.648352 20.254608 
L 33.189962 21.479414 
L 32.731573 22.704219 
L 32.273184 23.929025 
L 31.814795 25.15383 
L 31.356405 26.378636 
L 30.898016 27.603441 
L 30.605987 28.542009 
L 30.313959 29.480577 
L 30.02193 30.419145 
L 29.729901 31.357713 
L 29.437873 32.296281 
L 29.145844 33.234849 
L 28.853815 34.173417 
L 28.561787 35.111985 
L 28.269758 36.050553 
L 27.977729 36.989122 
L 27.685701 37.92769 
L 27.393672 38.866258 
L 27.101643 39.804826 
L 26.809615 40.743394 
L 26.517586 41.681962 
L 26.225557 42.62053 
L 25.933529 43.559098 
L 25.6415 44.497666 
L 25.349471 45.436234 
L 25.057443 46.374802 
L 24.765414 47.31337 
L 24.473385 48.251938 
L 24.181357 49.190506 
L 23.889328 50.129074 
L 23.597299 51.067642 
L 23.305271 52.00621 
L 23.013242 52.944778 
L 22.721213 53.883346 
L 22.429185 54.821914 
L 22.137156 55.760483 
L 21.845127 56.699051 
L 21.553099 57.637619 
" style="fill:none;stroke:#4169e1;stroke-linecap:square;stroke-width:0.422414;"/>
   </g>
   <g id="line2d_15">
    <path clip-path="url(#p32bdca14a5)" d="M 32.68104 18.240639 
L 31.232998 18.383997 
L 29.784956 18.527354 
L 28.336914 18.670712 
L 26.888872 18.81407 
L 25.44083 18.957428 
L 23.992788 19.100786 
L 22.544746 19.244144 
L 21.096704 19.387502 
L 19.612624 20.424411 
L 18.899242 21.83285 
L 18.185859 23.24129 
L 17.472477 24.649729 
L 16.759094 26.058168 
L 16.045712 27.466607 
L 15.33233 28.875047 
L 14.618947 30.283486 
L 13.905565 31.691925 
L 13.192182 33.100364 
L 12.4788 34.508804 
L 11.765417 35.917243 
L 11.052035 37.325682 
L 10.338653 38.734121 
L 9.62527 40.142561 
L 8.911888 41.551 
L 8.198505 42.959439 
" style="fill:none;stroke:#008000;stroke-linecap:square;stroke-width:0.422414;"/>
   </g>
   <g id="line2d_16">
    <path clip-path="url(#p32bdca14a5)" d="M 8.198505 42.959439 
L 6.931452 43.987997 
L 5.664399 45.016555 
L 4.911188 45.922633 
L 4.157978 46.828711 
L 4.152658 47.944258 
L 4.147339 49.059805 
L 4.509582 50.009725 
L 4.871825 50.959645 
L 5.797115 51.982636 
L 6.722404 53.005627 
L 7.647694 54.028618 
L 8.572983 55.051609 
L 9.420611 55.624345 
L 10.268239 56.19708 
L 11.115866 56.769816 
L 11.963494 57.342552 
L 13.093842 57.82969 
L 14.22419 58.316829 
L 15.354538 58.803967 
L 16.484885 59.291106 
" style="fill:none;stroke:#008000;stroke-linecap:square;stroke-width:0.422414;"/>
   </g>
   <g id="line2d_17">
    <path clip-path="url(#p32bdca14a5)" d="M 8.198505 42.959439 
L 8.851248 43.880218 
L 9.503991 44.800997 
L 10.156733 45.721775 
L 10.809476 46.642554 
L 11.462218 47.563333 
L 12.114961 48.484112 
L 12.767703 49.404891 
L 13.420446 50.325669 
L 14.073189 51.246448 
L 14.725931 52.167227 
L 15.378674 53.088006 
L 16.031416 54.008785 
L 16.684159 54.929563 
L 17.336902 55.850342 
L 17.989644 56.771121 
L 18.642387 57.6919 
" style="fill:none;stroke:#008000;stroke-linecap:square;stroke-width:0.422414;"/>
   </g>
   <g id="line2d_18">
    <path clip-path="url(#p32bdca14a5)" d="M 30.898016 27.603441 
L 29.744529 27.710612 
L 28.591043 27.817782 
L 27.437556 27.924952 
L 26.28407 28.032123 
L 25.028187 28.298657 
L 23.772304 28.565192 
L 22.515889 29.077383 
L 21.259474 29.589574 
L 20.573819 31.150505 
L 19.888163 32.711436 
L 19.892352 34.238616 
L 19.896541 35.765795 
L 19.90073 37.292974 
L 19.904919 38.820153 
L 19.909108 40.347333 
L 19.913297 41.874512 
L 19.917486 43.401691 
L 19.921674 44.928871 
L 19.925863 46.45605 
L 19.930052 47.983229 
L 19.934241 49.510408 
L 19.93843 51.037588 
L 19.942619 52.564767 
L 19.946808 54.091946 
L 19.950997 55.619125 
L 19.955186 57.146305 
" style="fill:none;stroke:#008000;stroke-linecap:square;stroke-width:0.422414;"/>
   </g>
   <g id="line2d_19">
    <path clip-path="url(#p32bdca14a5)" d="M 48.261222 12.183419 
L 48.691818 13.090541 
L 49.122414 13.997662 
L 49.55301 14.904784 
L 49.983606 15.811905 
L 50.858628 17.138314 
L 51.73365 18.464722 
L 52.066637 18.968563 
L 52.462658 19.958498 
L 52.858678 20.948433 
L 53.254699 21.938368 
L 53.65072 22.928303 
L 53.491673 24.701487 
L 53.332626 26.474672 
L 53.028098 27.432247 
L 52.723569 28.389822 
L 52.41904 29.347397 
L 52.114511 30.304972 
L 52.106 31.613287 
L 52.097489 32.921602 
L 52.243769 34.230613 
L 52.390049 35.539623 
L 52.334729 36.786002 
L 52.279408 38.032381 
L 51.916633 39.867501 
L 51.553858 41.702622 
L 51.063686 42.804599 
L 50.573514 43.906576 
L 50.083342 45.008552 
L 49.59317 46.110529 
L 48.910706 47.42302 
L 48.228242 48.73551 
L 47.71174 49.871935 
L 47.195237 51.008359 
L 46.678735 52.144784 
L 46.162232 53.281208 
" style="fill:none;stroke:#4169e1;stroke-linecap:square;stroke-width:0.422414;"/>
   </g>
   <g id="line2d_20">
    <path clip-path="url(#p32bdca14a5)" d="M 87.094119 42.817473 
L 86.065104 43.744428 
L 85.036089 44.671383 
L 84.007073 45.598338 
L 82.978058 46.525293 
L 82.08761 47.357604 
L 81.197162 48.189915 
L 80.306713 49.022226 
L 79.416265 49.854537 
L 78.268896 50.419618 
L 77.121526 50.984698 
L 75.300736 51.479492 
L 73.479945 51.974285 
L 71.798253 51.993075 
L 70.116562 52.011865 
L 68.43487 52.030654 
L 66.753179 52.049444 
L 65.644906 51.727932 
L 64.536633 51.406421 
L 63.428361 51.08491 
L 62.320088 50.763398 
L 60.830955 50.658315 
L 59.341821 50.553233 
L 57.852688 50.44815 
L 56.363554 50.343067 
L 55.631621 50.668754 
L 53.88929 51.441565 
L 52.146958 52.214375 
L 50.404627 52.987186 
L 48.662296 53.759996 
" style="fill:none;stroke:#4169e1;stroke-linecap:square;stroke-width:0.422414;"/>
   </g>
   <g id="line2d_21">
    <path clip-path="url(#p32bdca14a5)" d="M 44.013242 19.08826 
L 45.943344 18.932375 
L 47.873446 18.776491 
L 49.803548 18.620607 
L 51.73365 18.464722 
L 53.362149 18.428187 
L 54.990647 18.391652 
L 56.619146 18.355116 
L 58.247645 18.318581 
L 59.76896 18.919849 
" style="fill:none;stroke:#008000;stroke-linecap:square;stroke-width:0.422414;"/>
   </g>
   <g id="line2d_22">
    <path clip-path="url(#p32bdca14a5)" d="M 59.76896 18.919849 
L 60.389188 20.630401 
L 60.801433 22.418895 
L 61.213677 24.20739 
L 61.585761 25.155918 
L 61.957845 26.104446 
L 62.329929 27.052975 
L 62.702013 28.001503 
L 62.888719 29.204735 
L 63.075426 30.407967 
L 62.976222 31.427478 
L 62.877017 32.44699 
L 62.777812 33.466501 
L 62.678608 34.486012 
L 62.396154 35.469336 
L 62.1137 36.45266 
L 61.831246 37.435984 
L 61.548792 38.419308 
L 61.009417 39.427337 
L 60.470041 40.435366 
L 59.930666 41.443394 
L 59.39129 42.451423 
L 58.304029 43.81054 
L 57.216767 45.169656 
L 55.924181 46.332525 
L 54.631596 47.495395 
L 53.793542 48.21114 
L 52.955489 48.926886 
L 52.117436 49.642632 
L 51.279383 50.358377 
L 50.44133 51.074123 
L 49.603277 51.789869 
L 48.765224 52.505614 
L 47.927171 53.22136 
" style="fill:none;stroke:#008000;stroke-linecap:square;stroke-width:0.422414;"/>
   </g>
   <g id="line2d_23">
    <path clip-path="url(#p32bdca14a5)" d="M 48.261222 12.183419 
L 49.44423 12.240658 
L 50.627239 12.297897 
L 51.810248 12.355135 
L 52.993256 12.412374 
L 54.176265 12.469613 
L 55.359274 12.526852 
L 56.542282 12.584091 
L 57.725291 12.641329 
L 59.113624 13.058181 
L 60.501957 13.475032 
" style="fill:none;stroke:#008000;stroke-linecap:square;stroke-width:0.422414;"/>
   </g>
   <g id="line2d_24">
    <path clip-path="url(#p32bdca14a5)" d="M 60.501957 13.475032 
L 61.538153 14.960805 
L 62.57435 16.446577 
L 62.865581 17.473743 
L 63.156811 18.50091 
L 63.448042 19.528076 
L 63.739273 20.555243 
L 64.030504 21.582409 
L 64.321734 22.609575 
L 64.612965 23.636742 
L 64.904196 24.663908 
L 65.419901 26.247456 
L 65.935605 27.831004 
L 66.45131 29.414552 
L 66.967014 30.998101 
L 67.131912 32.208292 
L 67.29681 33.418483 
L 67.461708 34.628674 
L 67.626605 35.838866 
L 67.839377 37.407452 
L 67.381918 39.041454 
L 66.793606 39.858454 
L 66.205293 40.675455 
L 65.524956 41.397812 
L 64.84462 42.120169 
L 64.164284 42.842526 
L 63.483947 43.564883 
L 62.5302 44.329342 
L 61.576452 45.093802 
L 60.622705 45.858261 
L 59.668957 46.622721 
L 58.659623 47.634229 
L 57.650289 48.645737 
L 56.640955 49.657246 
L 55.631621 50.668754 
" style="fill:none;stroke:#008000;stroke-linecap:square;stroke-width:0.422414;"/>
   </g>
   <g id="line2d_25">
    <path clip-path="url(#p32bdca14a5)" d="M 85.269605 38.800668 
L 83.784195 38.866084 
L 82.298785 38.931499 
L 80.813375 38.996915 
L 79.327965 39.062331 
L 77.750532 38.941242 
L 76.173098 38.820153 
L 74.595665 38.699065 
L 73.018231 38.577976 
L 71.723518 38.285345 
L 70.428804 37.992714 
L 69.13409 37.700083 
L 67.839377 37.407452 
" style="fill:none;stroke:#ff0000;stroke-linecap:square;stroke-width:0.422414;"/>
   </g>
   <g id="line2d_26">
    <path clip-path="url(#p32bdca14a5)" d="M 78.589649 29.231876 
L 77.219268 30.057749 
L 75.848888 30.883623 
L 74.478507 31.709497 
L 73.108127 32.535371 
L 71.737747 33.361244 
L 70.367366 34.187118 
L 68.996986 35.012992 
L 67.626605 35.838866 
" style="fill:none;stroke:#000000;stroke-linecap:square;stroke-width:0.422414;"/>
   </g>
   <g id="line2d_27">
    <path clip-path="url(#p32bdca14a5)" d="M 77.121526 50.984698 
L 76.552363 49.578956 
L 75.9832 48.173213 
L 75.156583 47.405622 
L 74.329966 46.638031 
L 72.517155 46.213524 
L 70.704343 45.789018 
L 69.596336 45.511001 
L 68.488329 45.232984 
L 67.380322 44.954967 
L 66.272316 44.67695 
L 64.878131 44.120916 
L 63.483947 43.564883 
" style="fill:none;stroke:#008000;stroke-linecap:square;stroke-width:0.422414;"/>
   </g>
   <g id="line2d_28">
    <path clip-path="url(#p32bdca14a5)" d="M 85.269605 38.800668 
L 84.344582 38.021942 
L 83.419558 37.243216 
L 82.546132 35.924463 
L 81.672706 34.605709 
L 80.901941 33.262251 
L 80.131177 31.918792 
L 79.360413 30.575334 
L 78.589649 29.231876 
L 77.928861 28.27691 
L 77.268073 27.321945 
L 76.607285 26.366979 
L 75.946497 25.412014 
L 75.285709 24.457048 
L 74.624921 23.502083 
L 73.964133 22.547117 
L 73.303345 21.592152 
L 71.93097 20.829432 
L 70.558594 20.066712 
L 69.186219 19.303992 
L 67.813844 18.541273 
L 66.503971 18.017599 
L 65.194097 17.493925 
L 63.884223 16.970251 
L 62.57435 16.446577 
" style="fill:none;stroke:#008000;stroke-linecap:square;stroke-width:0.422414;"/>
   </g>
   <g id="line2d_29">
    <path clip-path="url(#p32bdca14a5)" d="M 23.753154 31.858248 
L 23.751359 32.800774 
L 23.749564 33.7433 
L 23.747769 34.685826 
L 23.745973 35.628352 
L 23.744178 36.570878 
L 23.742383 37.513404 
L 23.740588 38.45593 
L 23.738792 39.398456 
L 23.736997 40.340983 
L 23.735202 41.283509 
L 23.733407 42.226035 
L 23.731611 43.168561 
L 23.729816 44.111087 
L 23.728021 45.053613 
L 23.726226 45.996139 
L 23.72443 46.938665 
" style="fill:none;stroke:#008000;stroke-linecap:square;stroke-width:0.422414;"/>
   </g>
   <g id="text_1">
    <g id="patch_2">
     <path d="M 31.003434 38.222604 
L 31.261248 37.598103 
L 29.435117 36.84422 
L 29.177303 37.468721 
z
" style="fill:#ffffff;"/>
    </g>
    <!--   -->
    <g style="fill:#808080;" transform="translate(30.608116 38.037767)rotate(-67.567658)scale(0.02 -0.02)">
     <defs>
      <path id="DejaVuSans-20" transform="scale(0.015625)"/>
     </defs>
     <use xlink:href="#DejaVuSans-20"/>
    </g>
   </g>
   <g id="text_2">
    <g id="patch_3">
     <path d="M 45.926163 33.348944 
L 45.982001 32.675631 
L 44.013135 32.512353 
L 43.957297 33.185667 
z
" style="fill:#ffffff;"/>
    </g>
    <!--   -->
    <g style="fill:#808080;" transform="translate(45.49337 33.292984)rotate(-85.259327)scale(0.02 -0.02)">
     <use xlink:href="#DejaVuSans-20"/>
    </g>
   </g>
   <g id="text_3">
    <g id="patch_4">
     <path d="M 68.029199 48.542447 
L 68.677842 48.353419 
L 68.125098 46.456693 
L 67.476455 46.645721 
z
" style="fill:#ffffff;"/>
    </g>
    <!--   -->
    <g style="fill:#808080;" transform="translate(67.926433 48.118323)rotate(-16.247192)scale(0.02 -0.02)">
     <use xlink:href="#DejaVuSans-20"/>
    </g>
   </g>
   <g id="text_4">
    <g id="patch_5">
     <path d="M 40.182453 38.816618 
L 40.464085 19.678377 
L 38.488674 19.649308 
L 38.207042 38.787548 
z
" style="fill:#ffffff;"/>
    </g>
    <!-- Bump Buster 19.7° -->
    <g style="fill:#4169e1;" transform="translate(39.746857 38.790206)rotate(-89.156914)scale(0.02 -0.02)">
     <defs>
      <path d="M 1259 2228 
L 1259 519 
L 2272 519 
Q 2781 519 3026 730 
Q 3272 941 3272 1375 
Q 3272 1813 3026 2020 
Q 2781 2228 2272 2228 
L 1259 2228 
z
M 1259 4147 
L 1259 2741 
L 2194 2741 
Q 2656 2741 2882 2914 
Q 3109 3088 3109 3444 
Q 3109 3797 2882 3972 
Q 2656 4147 2194 4147 
L 1259 4147 
z
M 628 4666 
L 2241 4666 
Q 2963 4666 3353 4366 
Q 3744 4066 3744 3513 
Q 3744 3084 3544 2831 
Q 3344 2578 2956 2516 
Q 3422 2416 3680 2098 
Q 3938 1781 3938 1306 
Q 3938 681 3513 340 
Q 3088 0 2303 0 
L 628 0 
L 628 4666 
z
" id="DejaVuSans-42" transform="scale(0.015625)"/>
      <path d="M 544 1381 
L 544 3500 
L 1119 3500 
L 1119 1403 
Q 1119 906 1312 657 
Q 1506 409 1894 409 
Q 2359 409 2629 706 
Q 2900 1003 2900 1516 
L 2900 3500 
L 3475 3500 
L 3475 0 
L 2900 0 
L 2900 538 
Q 2691 219 2414 64 
Q 2138 -91 1772 -91 
Q 1169 -91 856 284 
Q 544 659 544 1381 
z
M 1991 3584 
L 1991 3584 
z
" id="DejaVuSans-75" transform="scale(0.015625)"/>
      <path d="M 3328 2828 
Q 3544 3216 3844 3400 
Q 4144 3584 4550 3584 
Q 5097 3584 5394 3201 
Q 5691 2819 5691 2113 
L 5691 0 
L 5113 0 
L 5113 2094 
Q 5113 2597 4934 2840 
Q 4756 3084 4391 3084 
Q 3944 3084 3684 2787 
Q 3425 2491 3425 1978 
L 3425 0 
L 2847 0 
L 2847 2094 
Q 2847 2600 2669 2842 
Q 2491 3084 2119 3084 
Q 1678 3084 1418 2786 
Q 1159 2488 1159 1978 
L 1159 0 
L 581 0 
L 581 3500 
L 1159 3500 
L 1159 2956 
Q 1356 3278 1631 3431 
Q 1906 3584 2284 3584 
Q 2666 3584 2933 3390 
Q 3200 3197 3328 2828 
z
" id="DejaVuSans-6d" transform="scale(0.015625)"/>
      <path d="M 1159 525 
L 1159 -1331 
L 581 -1331 
L 581 3500 
L 1159 3500 
L 1159 2969 
Q 1341 3281 1617 3432 
Q 1894 3584 2278 3584 
Q 2916 3584 3314 3078 
Q 3713 2572 3713 1747 
Q 3713 922 3314 415 
Q 2916 -91 2278 -91 
Q 1894 -91 1617 61 
Q 1341 213 1159 525 
z
M 3116 1747 
Q 3116 2381 2855 2742 
Q 2594 3103 2138 3103 
Q 1681 3103 1420 2742 
Q 1159 2381 1159 1747 
Q 1159 1113 1420 752 
Q 1681 391 2138 391 
Q 2594 391 2855 752 
Q 3116 1113 3116 1747 
z
" id="DejaVuSans-70" transform="scale(0.015625)"/>
      <path d="M 2834 3397 
L 2834 2853 
Q 2591 2978 2328 3040 
Q 2066 3103 1784 3103 
Q 1356 3103 1142 2972 
Q 928 2841 928 2578 
Q 928 2378 1081 2264 
Q 1234 2150 1697 2047 
L 1894 2003 
Q 2506 1872 2764 1633 
Q 3022 1394 3022 966 
Q 3022 478 2636 193 
Q 2250 -91 1575 -91 
Q 1294 -91 989 -36 
Q 684 19 347 128 
L 347 722 
Q 666 556 975 473 
Q 1284 391 1588 391 
Q 1994 391 2212 530 
Q 2431 669 2431 922 
Q 2431 1156 2273 1281 
Q 2116 1406 1581 1522 
L 1381 1569 
Q 847 1681 609 1914 
Q 372 2147 372 2553 
Q 372 3047 722 3315 
Q 1072 3584 1716 3584 
Q 2034 3584 2315 3537 
Q 2597 3491 2834 3397 
z
" id="DejaVuSans-73" transform="scale(0.015625)"/>
      <path d="M 1172 4494 
L 1172 3500 
L 2356 3500 
L 2356 3053 
L 1172 3053 
L 1172 1153 
Q 1172 725 1289 603 
Q 1406 481 1766 481 
L 2356 481 
L 2356 0 
L 1766 0 
Q 1100 0 847 248 
Q 594 497 594 1153 
L 594 3053 
L 172 3053 
L 172 3500 
L 594 3500 
L 594 4494 
L 1172 4494 
z
" id="DejaVuSans-74" transform="scale(0.015625)"/>
      <path d="M 3597 1894 
L 3597 1613 
L 953 1613 
Q 991 1019 1311 708 
Q 1631 397 2203 397 
Q 2534 397 2845 478 
Q 3156 559 3463 722 
L 3463 178 
Q 3153 47 2828 -22 
Q 2503 -91 2169 -91 
Q 1331 -91 842 396 
Q 353 884 353 1716 
Q 353 2575 817 3079 
Q 1281 3584 2069 3584 
Q 2775 3584 3186 3129 
Q 3597 2675 3597 1894 
z
M 3022 2063 
Q 3016 2534 2758 2815 
Q 2500 3097 2075 3097 
Q 1594 3097 1305 2825 
Q 1016 2553 972 2059 
L 3022 2063 
z
" id="DejaVuSans-65" transform="scale(0.015625)"/>
      <path d="M 2631 2963 
Q 2534 3019 2420 3045 
Q 2306 3072 2169 3072 
Q 1681 3072 1420 2755 
Q 1159 2438 1159 1844 
L 1159 0 
L 581 0 
L 581 3500 
L 1159 3500 
L 1159 2956 
Q 1341 3275 1631 3429 
Q 1922 3584 2338 3584 
Q 2397 3584 2469 3576 
Q 2541 3569 2628 3553 
L 2631 2963 
z
" id="DejaVuSans-72" transform="scale(0.015625)"/>
      <path d="M 794 531 
L 1825 531 
L 1825 4091 
L 703 3866 
L 703 4441 
L 1819 4666 
L 2450 4666 
L 2450 531 
L 3481 531 
L 3481 0 
L 794 0 
L 794 531 
z
" id="DejaVuSans-31" transform="scale(0.015625)"/>
      <path d="M 703 97 
L 703 672 
Q 941 559 1184 500 
Q 1428 441 1663 441 
Q 2288 441 2617 861 
Q 2947 1281 2994 2138 
Q 2813 1869 2534 1725 
Q 2256 1581 1919 1581 
Q 1219 1581 811 2004 
Q 403 2428 403 3163 
Q 403 3881 828 4315 
Q 1253 4750 1959 4750 
Q 2769 4750 3195 4129 
Q 3622 3509 3622 2328 
Q 3622 1225 3098 567 
Q 2575 -91 1691 -91 
Q 1453 -91 1209 -44 
Q 966 3 703 97 
z
M 1959 2075 
Q 2384 2075 2632 2365 
Q 2881 2656 2881 3163 
Q 2881 3666 2632 3958 
Q 2384 4250 1959 4250 
Q 1534 4250 1286 3958 
Q 1038 3666 1038 3163 
Q 1038 2656 1286 2365 
Q 1534 2075 1959 2075 
z
" id="DejaVuSans-39" transform="scale(0.015625)"/>
      <path d="M 684 794 
L 1344 794 
L 1344 0 
L 684 0 
L 684 794 
z
" id="DejaVuSans-2e" transform="scale(0.015625)"/>
      <path d="M 525 4666 
L 3525 4666 
L 3525 4397 
L 1831 0 
L 1172 0 
L 2766 4134 
L 525 4134 
L 525 4666 
z
" id="DejaVuSans-37" transform="scale(0.015625)"/>
      <path d="M 1600 4347 
Q 1350 4347 1178 4173 
Q 1006 4000 1006 3750 
Q 1006 3503 1178 3333 
Q 1350 3163 1600 3163 
Q 1850 3163 2022 3333 
Q 2194 3503 2194 3750 
Q 2194 3997 2020 4172 
Q 1847 4347 1600 4347 
z
M 1600 4750 
Q 1800 4750 1984 4673 
Q 2169 4597 2303 4453 
Q 2447 4313 2519 4134 
Q 2591 3956 2591 3750 
Q 2591 3338 2302 3052 
Q 2013 2766 1594 2766 
Q 1172 2766 890 3047 
Q 609 3328 609 3750 
Q 609 4169 896 4459 
Q 1184 4750 1600 4750 
z
" id="DejaVuSans-b0" transform="scale(0.015625)"/>
     </defs>
     <use xlink:href="#DejaVuSans-42"/>
     <use x="68.603516" xlink:href="#DejaVuSans-75"/>
     <use x="131.982422" xlink:href="#DejaVuSans-6d"/>
     <use x="229.394531" xlink:href="#DejaVuSans-70"/>
     <use x="292.871094" xlink:href="#DejaVuSans-20"/>
     <use x="324.658203" xlink:href="#DejaVuSans-42"/>
     <use x="393.261719" xlink:href="#DejaVuSans-75"/>
     <use x="456.640625" xlink:href="#DejaVuSans-73"/>
     <use x="508.740234" xlink:href="#DejaVuSans-74"/>
     <use x="547.949219" xlink:href="#DejaVuSans-65"/>
     <use x="609.472656" xlink:href="#DejaVuSans-72"/>
     <use x="650.585938" xlink:href="#DejaVuSans-20"/>
     <use x="682.373047" xlink:href="#DejaVuSans-31"/>
     <use x="745.996094" xlink:href="#DejaVuSans-39"/>
     <use x="809.619141" xlink:href="#DejaVuSans-2e"/>
     <use x="841.40625" xlink:href="#DejaVuSans-37"/>
     <use x="905.029297" xlink:href="#DejaVuSans-b0"/>
    </g>
   </g>
   <g id="text_5">
    <g id="patch_6">
     <path d="M 42.433577 21.405874 
L 45.506304 34.130442 
L 47.42673 33.666697 
L 44.354002 20.942129 
z
" style="fill:#ffffff;"/>
    </g>
    <!-- Twister 21.9° -->
    <g style="fill:#4169e1;" transform="translate(42.862029 21.322986)rotate(-283.57588)scale(0.02 -0.02)">
     <defs>
      <path d="M -19 4666 
L 3928 4666 
L 3928 4134 
L 2272 4134 
L 2272 0 
L 1638 0 
L 1638 4134 
L -19 4134 
L -19 4666 
z
" id="DejaVuSans-54" transform="scale(0.015625)"/>
      <path d="M 269 3500 
L 844 3500 
L 1563 769 
L 2278 3500 
L 2956 3500 
L 3675 769 
L 4391 3500 
L 4966 3500 
L 4050 0 
L 3372 0 
L 2619 2869 
L 1863 0 
L 1184 0 
L 269 3500 
z
" id="DejaVuSans-77" transform="scale(0.015625)"/>
      <path d="M 603 3500 
L 1178 3500 
L 1178 0 
L 603 0 
L 603 3500 
z
M 603 4863 
L 1178 4863 
L 1178 4134 
L 603 4134 
L 603 4863 
z
" id="DejaVuSans-69" transform="scale(0.015625)"/>
      <path d="M 1228 531 
L 3431 531 
L 3431 0 
L 469 0 
L 469 531 
Q 828 903 1448 1529 
Q 2069 2156 2228 2338 
Q 2531 2678 2651 2914 
Q 2772 3150 2772 3378 
Q 2772 3750 2511 3984 
Q 2250 4219 1831 4219 
Q 1534 4219 1204 4116 
Q 875 4013 500 3803 
L 500 4441 
Q 881 4594 1212 4672 
Q 1544 4750 1819 4750 
Q 2544 4750 2975 4387 
Q 3406 4025 3406 3419 
Q 3406 3131 3298 2873 
Q 3191 2616 2906 2266 
Q 2828 2175 2409 1742 
Q 1991 1309 1228 531 
z
" id="DejaVuSans-32" transform="scale(0.015625)"/>
     </defs>
     <use xlink:href="#DejaVuSans-54"/>
     <use x="44.583984" xlink:href="#DejaVuSans-77"/>
     <use x="126.371094" xlink:href="#DejaVuSans-69"/>
     <use x="154.154297" xlink:href="#DejaVuSans-73"/>
     <use x="206.253906" xlink:href="#DejaVuSans-74"/>
     <use x="245.462891" xlink:href="#DejaVuSans-65"/>
     <use x="306.986328" xlink:href="#DejaVuSans-72"/>
     <use x="348.099609" xlink:href="#DejaVuSans-20"/>
     <use x="379.886719" xlink:href="#DejaVuSans-32"/>
     <use x="443.509766" xlink:href="#DejaVuSans-31"/>
     <use x="507.132812" xlink:href="#DejaVuSans-2e"/>
     <use x="538.919922" xlink:href="#DejaVuSans-39"/>
     <use x="602.542969" xlink:href="#DejaVuSans-b0"/>
    </g>
   </g>
   <g id="text_6">
    <g id="patch_7">
     <path d="M 29.761205 31.882919 
L 34.725957 21.743129 
L 32.951606 20.874352 
L 27.986854 31.014142 
z
" style="fill:#ffffff;"/>
    </g>
    <!-- Tobel 17.9° -->
    <g style="fill:#4169e1;" transform="translate(29.378475 31.673254)rotate(-63.912212)scale(0.02 -0.02)">
     <defs>
      <path d="M 1959 3097 
Q 1497 3097 1228 2736 
Q 959 2375 959 1747 
Q 959 1119 1226 758 
Q 1494 397 1959 397 
Q 2419 397 2687 759 
Q 2956 1122 2956 1747 
Q 2956 2369 2687 2733 
Q 2419 3097 1959 3097 
z
M 1959 3584 
Q 2709 3584 3137 3096 
Q 3566 2609 3566 1747 
Q 3566 888 3137 398 
Q 2709 -91 1959 -91 
Q 1206 -91 779 398 
Q 353 888 353 1747 
Q 353 2609 779 3096 
Q 1206 3584 1959 3584 
z
" id="DejaVuSans-6f" transform="scale(0.015625)"/>
      <path d="M 3116 1747 
Q 3116 2381 2855 2742 
Q 2594 3103 2138 3103 
Q 1681 3103 1420 2742 
Q 1159 2381 1159 1747 
Q 1159 1113 1420 752 
Q 1681 391 2138 391 
Q 2594 391 2855 752 
Q 3116 1113 3116 1747 
z
M 1159 2969 
Q 1341 3281 1617 3432 
Q 1894 3584 2278 3584 
Q 2916 3584 3314 3078 
Q 3713 2572 3713 1747 
Q 3713 922 3314 415 
Q 2916 -91 2278 -91 
Q 1894 -91 1617 61 
Q 1341 213 1159 525 
L 1159 0 
L 581 0 
L 581 4863 
L 1159 4863 
L 1159 2969 
z
" id="DejaVuSans-62" transform="scale(0.015625)"/>
      <path d="M 603 4863 
L 1178 4863 
L 1178 0 
L 603 0 
L 603 4863 
z
" id="DejaVuSans-6c" transform="scale(0.015625)"/>
     </defs>
     <use xlink:href="#DejaVuSans-54"/>
     <use x="44.083984" xlink:href="#DejaVuSans-6f"/>
     <use x="105.265625" xlink:href="#DejaVuSans-62"/>
     <use x="168.742188" xlink:href="#DejaVuSans-65"/>
     <use x="230.265625" xlink:href="#DejaVuSans-6c"/>
     <use x="258.048828" xlink:href="#DejaVuSans-20"/>
     <use x="289.835938" xlink:href="#DejaVuSans-31"/>
     <use x="353.458984" xlink:href="#DejaVuSans-37"/>
     <use x="417.082031" xlink:href="#DejaVuSans-2e"/>
     <use x="448.869141" xlink:href="#DejaVuSans-39"/>
     <use x="512.492188" xlink:href="#DejaVuSans-b0"/>
    </g>
   </g>
   <g id="text_7">
    <g id="patch_8">
     <path d="M 12.404058 35.082346 
L 19.907466 23.759046 
L 18.260602 22.667747 
L 10.757193 33.991048 
z
" style="fill:#ffffff;"/>
    </g>
    <!-- Sunrise 16.7° -->
    <g style="fill:#008000;" transform="translate(12.051711 34.82487)rotate(-56.469471)scale(0.02 -0.02)">
     <defs>
      <path d="M 3425 4513 
L 3425 3897 
Q 3066 4069 2747 4153 
Q 2428 4238 2131 4238 
Q 1616 4238 1336 4038 
Q 1056 3838 1056 3469 
Q 1056 3159 1242 3001 
Q 1428 2844 1947 2747 
L 2328 2669 
Q 3034 2534 3370 2195 
Q 3706 1856 3706 1288 
Q 3706 609 3251 259 
Q 2797 -91 1919 -91 
Q 1588 -91 1214 -16 
Q 841 59 441 206 
L 441 856 
Q 825 641 1194 531 
Q 1563 422 1919 422 
Q 2459 422 2753 634 
Q 3047 847 3047 1241 
Q 3047 1584 2836 1778 
Q 2625 1972 2144 2069 
L 1759 2144 
Q 1053 2284 737 2584 
Q 422 2884 422 3419 
Q 422 4038 858 4394 
Q 1294 4750 2059 4750 
Q 2388 4750 2728 4690 
Q 3069 4631 3425 4513 
z
" id="DejaVuSans-53" transform="scale(0.015625)"/>
      <path d="M 3513 2113 
L 3513 0 
L 2938 0 
L 2938 2094 
Q 2938 2591 2744 2837 
Q 2550 3084 2163 3084 
Q 1697 3084 1428 2787 
Q 1159 2491 1159 1978 
L 1159 0 
L 581 0 
L 581 3500 
L 1159 3500 
L 1159 2956 
Q 1366 3272 1645 3428 
Q 1925 3584 2291 3584 
Q 2894 3584 3203 3211 
Q 3513 2838 3513 2113 
z
" id="DejaVuSans-6e" transform="scale(0.015625)"/>
      <path d="M 2113 2584 
Q 1688 2584 1439 2293 
Q 1191 2003 1191 1497 
Q 1191 994 1439 701 
Q 1688 409 2113 409 
Q 2538 409 2786 701 
Q 3034 994 3034 1497 
Q 3034 2003 2786 2293 
Q 2538 2584 2113 2584 
z
M 3366 4563 
L 3366 3988 
Q 3128 4100 2886 4159 
Q 2644 4219 2406 4219 
Q 1781 4219 1451 3797 
Q 1122 3375 1075 2522 
Q 1259 2794 1537 2939 
Q 1816 3084 2150 3084 
Q 2853 3084 3261 2657 
Q 3669 2231 3669 1497 
Q 3669 778 3244 343 
Q 2819 -91 2113 -91 
Q 1303 -91 875 529 
Q 447 1150 447 2328 
Q 447 3434 972 4092 
Q 1497 4750 2381 4750 
Q 2619 4750 2861 4703 
Q 3103 4656 3366 4563 
z
" id="DejaVuSans-36" transform="scale(0.015625)"/>
     </defs>
     <use xlink:href="#DejaVuSans-53"/>
     <use x="63.476562" xlink:href="#DejaVuSans-75"/>
     <use x="126.855469" xlink:href="#DejaVuSans-6e"/>
     <use x="190.234375" xlink:href="#DejaVuSans-72"/>
     <use x="231.347656" xlink:href="#DejaVuSans-69"/>
     <use x="259.130859" xlink:href="#DejaVuSans-73"/>
     <use x="311.230469" xlink:href="#DejaVuSans-65"/>
     <use x="372.753906" xlink:href="#DejaVuSans-20"/>
     <use x="404.541016" xlink:href="#DejaVuSans-31"/>
     <use x="468.164062" xlink:href="#DejaVuSans-36"/>
     <use x="531.787109" xlink:href="#DejaVuSans-2e"/>
     <use x="563.574219" xlink:href="#DejaVuSans-37"/>
     <use x="627.197266" xlink:href="#DejaVuSans-b0"/>
    </g>
   </g>
   <g id="text_8">
    <g id="patch_9">
     <path d="M 18.902322 35.781535 
L 18.957037 51.028937 
L 20.932649 51.021847 
L 20.877934 35.774446 
z
" style="fill:#ffffff;"/>
    </g>
    <!-- Barnyard 14.8° -->
    <g style="fill:#008000;" transform="translate(19.338328 35.799971)rotate(-270.205606)scale(0.02 -0.02)">
     <defs>
      <path d="M 2194 1759 
Q 1497 1759 1228 1600 
Q 959 1441 959 1056 
Q 959 750 1161 570 
Q 1363 391 1709 391 
Q 2188 391 2477 730 
Q 2766 1069 2766 1631 
L 2766 1759 
L 2194 1759 
z
M 3341 1997 
L 3341 0 
L 2766 0 
L 2766 531 
Q 2569 213 2275 61 
Q 1981 -91 1556 -91 
Q 1019 -91 701 211 
Q 384 513 384 1019 
Q 384 1609 779 1909 
Q 1175 2209 1959 2209 
L 2766 2209 
L 2766 2266 
Q 2766 2663 2505 2880 
Q 2244 3097 1772 3097 
Q 1472 3097 1187 3025 
Q 903 2953 641 2809 
L 641 3341 
Q 956 3463 1253 3523 
Q 1550 3584 1831 3584 
Q 2591 3584 2966 3190 
Q 3341 2797 3341 1997 
z
" id="DejaVuSans-61" transform="scale(0.015625)"/>
      <path d="M 2059 -325 
Q 1816 -950 1584 -1140 
Q 1353 -1331 966 -1331 
L 506 -1331 
L 506 -850 
L 844 -850 
Q 1081 -850 1212 -737 
Q 1344 -625 1503 -206 
L 1606 56 
L 191 3500 
L 800 3500 
L 1894 763 
L 2988 3500 
L 3597 3500 
L 2059 -325 
z
" id="DejaVuSans-79" transform="scale(0.015625)"/>
      <path d="M 2906 2969 
L 2906 4863 
L 3481 4863 
L 3481 0 
L 2906 0 
L 2906 525 
Q 2725 213 2448 61 
Q 2172 -91 1784 -91 
Q 1150 -91 751 415 
Q 353 922 353 1747 
Q 353 2572 751 3078 
Q 1150 3584 1784 3584 
Q 2172 3584 2448 3432 
Q 2725 3281 2906 2969 
z
M 947 1747 
Q 947 1113 1208 752 
Q 1469 391 1925 391 
Q 2381 391 2643 752 
Q 2906 1113 2906 1747 
Q 2906 2381 2643 2742 
Q 2381 3103 1925 3103 
Q 1469 3103 1208 2742 
Q 947 2381 947 1747 
z
" id="DejaVuSans-64" transform="scale(0.015625)"/>
      <path d="M 2419 4116 
L 825 1625 
L 2419 1625 
L 2419 4116 
z
M 2253 4666 
L 3047 4666 
L 3047 1625 
L 3713 1625 
L 3713 1100 
L 3047 1100 
L 3047 0 
L 2419 0 
L 2419 1100 
L 313 1100 
L 313 1709 
L 2253 4666 
z
" id="DejaVuSans-34" transform="scale(0.015625)"/>
      <path d="M 2034 2216 
Q 1584 2216 1326 1975 
Q 1069 1734 1069 1313 
Q 1069 891 1326 650 
Q 1584 409 2034 409 
Q 2484 409 2743 651 
Q 3003 894 3003 1313 
Q 3003 1734 2745 1975 
Q 2488 2216 2034 2216 
z
M 1403 2484 
Q 997 2584 770 2862 
Q 544 3141 544 3541 
Q 544 4100 942 4425 
Q 1341 4750 2034 4750 
Q 2731 4750 3128 4425 
Q 3525 4100 3525 3541 
Q 3525 3141 3298 2862 
Q 3072 2584 2669 2484 
Q 3125 2378 3379 2068 
Q 3634 1759 3634 1313 
Q 3634 634 3220 271 
Q 2806 -91 2034 -91 
Q 1263 -91 848 271 
Q 434 634 434 1313 
Q 434 1759 690 2068 
Q 947 2378 1403 2484 
z
M 1172 3481 
Q 1172 3119 1398 2916 
Q 1625 2713 2034 2713 
Q 2441 2713 2670 2916 
Q 2900 3119 2900 3481 
Q 2900 3844 2670 4047 
Q 2441 4250 2034 4250 
Q 1625 4250 1398 4047 
Q 1172 3844 1172 3481 
z
" id="DejaVuSans-38" transform="scale(0.015625)"/>
     </defs>
     <use xlink:href="#DejaVuSans-42"/>
     <use x="68.603516" xlink:href="#DejaVuSans-61"/>
     <use x="129.882812" xlink:href="#DejaVuSans-72"/>
     <use x="169.246094" xlink:href="#DejaVuSans-6e"/>
     <use x="232.625" xlink:href="#DejaVuSans-79"/>
     <use x="291.804688" xlink:href="#DejaVuSans-61"/>
     <use x="353.083984" xlink:href="#DejaVuSans-72"/>
     <use x="392.447266" xlink:href="#DejaVuSans-64"/>
     <use x="455.923828" xlink:href="#DejaVuSans-20"/>
     <use x="487.710938" xlink:href="#DejaVuSans-31"/>
     <use x="551.333984" xlink:href="#DejaVuSans-34"/>
     <use x="614.957031" xlink:href="#DejaVuSans-2e"/>
     <use x="646.744141" xlink:href="#DejaVuSans-38"/>
     <use x="710.367188" xlink:href="#DejaVuSans-b0"/>
    </g>
   </g>
   <g id="text_9">
    <g id="patch_10">
     <path d="M 53.007697 41.736015 
L 53.179856 21.507372 
L 51.204302 21.490559 
L 51.032144 41.719202 
z
" style="fill:#ffffff;"/>
    </g>
    <!-- Sutter's Ridge 22.7° -->
    <g style="fill:#4169e1;" transform="translate(52.571946 41.712306)rotate(-89.512388)scale(0.02 -0.02)">
     <defs>
      <path d="M 1147 4666 
L 1147 2931 
L 616 2931 
L 616 4666 
L 1147 4666 
z
" id="DejaVuSans-27" transform="scale(0.015625)"/>
      <path d="M 2841 2188 
Q 3044 2119 3236 1894 
Q 3428 1669 3622 1275 
L 4263 0 
L 3584 0 
L 2988 1197 
Q 2756 1666 2539 1819 
Q 2322 1972 1947 1972 
L 1259 1972 
L 1259 0 
L 628 0 
L 628 4666 
L 2053 4666 
Q 2853 4666 3247 4331 
Q 3641 3997 3641 3322 
Q 3641 2881 3436 2590 
Q 3231 2300 2841 2188 
z
M 1259 4147 
L 1259 2491 
L 2053 2491 
Q 2509 2491 2742 2702 
Q 2975 2913 2975 3322 
Q 2975 3731 2742 3939 
Q 2509 4147 2053 4147 
L 1259 4147 
z
" id="DejaVuSans-52" transform="scale(0.015625)"/>
      <path d="M 2906 1791 
Q 2906 2416 2648 2759 
Q 2391 3103 1925 3103 
Q 1463 3103 1205 2759 
Q 947 2416 947 1791 
Q 947 1169 1205 825 
Q 1463 481 1925 481 
Q 2391 481 2648 825 
Q 2906 1169 2906 1791 
z
M 3481 434 
Q 3481 -459 3084 -895 
Q 2688 -1331 1869 -1331 
Q 1566 -1331 1297 -1286 
Q 1028 -1241 775 -1147 
L 775 -588 
Q 1028 -725 1275 -790 
Q 1522 -856 1778 -856 
Q 2344 -856 2625 -561 
Q 2906 -266 2906 331 
L 2906 616 
Q 2728 306 2450 153 
Q 2172 0 1784 0 
Q 1141 0 747 490 
Q 353 981 353 1791 
Q 353 2603 747 3093 
Q 1141 3584 1784 3584 
Q 2172 3584 2450 3431 
Q 2728 3278 2906 2969 
L 2906 3500 
L 3481 3500 
L 3481 434 
z
" id="DejaVuSans-67" transform="scale(0.015625)"/>
     </defs>
     <use xlink:href="#DejaVuSans-53"/>
     <use x="63.476562" xlink:href="#DejaVuSans-75"/>
     <use x="126.855469" xlink:href="#DejaVuSans-74"/>
     <use x="166.064453" xlink:href="#DejaVuSans-74"/>
     <use x="205.273438" xlink:href="#DejaVuSans-65"/>
     <use x="266.796875" xlink:href="#DejaVuSans-72"/>
     <use x="307.910156" xlink:href="#DejaVuSans-27"/>
     <use x="335.400391" xlink:href="#DejaVuSans-73"/>
     <use x="387.5" xlink:href="#DejaVuSans-20"/>
     <use x="419.287109" xlink:href="#DejaVuSans-52"/>
     <use x="488.769531" xlink:href="#DejaVuSans-69"/>
     <use x="516.552734" xlink:href="#DejaVuSans-64"/>
     <use x="580.029297" xlink:href="#DejaVuSans-67"/>
     <use x="643.505859" xlink:href="#DejaVuSans-65"/>
     <use x="705.029297" xlink:href="#DejaVuSans-20"/>
     <use x="736.816406" xlink:href="#DejaVuSans-32"/>
     <use x="800.439453" xlink:href="#DejaVuSans-32"/>
     <use x="864.0625" xlink:href="#DejaVuSans-2e"/>
     <use x="895.849609" xlink:href="#DejaVuSans-37"/>
     <use x="959.472656" xlink:href="#DejaVuSans-b0"/>
    </g>
   </g>
   <g id="text_10">
    <g id="patch_11">
     <path d="M 58.881248 51.23995 
L 71.980873 54.14469 
L 72.408564 52.215915 
L 59.308939 49.311175 
z
" style="fill:#ffffff;"/>
    </g>
    <!-- Yodeler 23.3° -->
    <g style="fill:#4169e1;" transform="translate(58.995147 50.81868)rotate(-347.497401)scale(0.02 -0.02)">
     <defs>
      <path d="M -13 4666 
L 666 4666 
L 1959 2747 
L 3244 4666 
L 3922 4666 
L 2272 2222 
L 2272 0 
L 1638 0 
L 1638 2222 
L -13 4666 
z
" id="DejaVuSans-59" transform="scale(0.015625)"/>
      <path d="M 2597 2516 
Q 3050 2419 3304 2112 
Q 3559 1806 3559 1356 
Q 3559 666 3084 287 
Q 2609 -91 1734 -91 
Q 1441 -91 1130 -33 
Q 819 25 488 141 
L 488 750 
Q 750 597 1062 519 
Q 1375 441 1716 441 
Q 2309 441 2620 675 
Q 2931 909 2931 1356 
Q 2931 1769 2642 2001 
Q 2353 2234 1838 2234 
L 1294 2234 
L 1294 2753 
L 1863 2753 
Q 2328 2753 2575 2939 
Q 2822 3125 2822 3475 
Q 2822 3834 2567 4026 
Q 2313 4219 1838 4219 
Q 1578 4219 1281 4162 
Q 984 4106 628 3988 
L 628 4550 
Q 988 4650 1302 4700 
Q 1616 4750 1894 4750 
Q 2613 4750 3031 4423 
Q 3450 4097 3450 3541 
Q 3450 3153 3228 2886 
Q 3006 2619 2597 2516 
z
" id="DejaVuSans-33" transform="scale(0.015625)"/>
     </defs>
     <use xlink:href="#DejaVuSans-59"/>
     <use x="47.833984" xlink:href="#DejaVuSans-6f"/>
     <use x="109.015625" xlink:href="#DejaVuSans-64"/>
     <use x="172.492188" xlink:href="#DejaVuSans-65"/>
     <use x="234.015625" xlink:href="#DejaVuSans-6c"/>
     <use x="261.798828" xlink:href="#DejaVuSans-65"/>
     <use x="323.322266" xlink:href="#DejaVuSans-72"/>
     <use x="364.435547" xlink:href="#DejaVuSans-20"/>
     <use x="396.222656" xlink:href="#DejaVuSans-32"/>
     <use x="459.845703" xlink:href="#DejaVuSans-33"/>
     <use x="523.46875" xlink:href="#DejaVuSans-2e"/>
     <use x="555.255859" xlink:href="#DejaVuSans-33"/>
     <use x="618.878906" xlink:href="#DejaVuSans-b0"/>
    </g>
   </g>
   <g id="text_11">
    <g id="patch_12">
     <path d="M 62.86962 40.567445 
L 64.645813 26.615048 
L 62.686004 26.365557 
L 60.909812 40.317954 
z
" style="fill:#ffffff;"/>
    </g>
    <!-- Nissi Sti 14.1° -->
    <g style="fill:#008000;" transform="translate(62.439699 40.492553)rotate(-82.745056)scale(0.02 -0.02)">
     <defs>
      <path d="M 628 4666 
L 1478 4666 
L 3547 763 
L 3547 4666 
L 4159 4666 
L 4159 0 
L 3309 0 
L 1241 3903 
L 1241 0 
L 628 0 
L 628 4666 
z
" id="DejaVuSans-4e" transform="scale(0.015625)"/>
     </defs>
     <use xlink:href="#DejaVuSans-4e"/>
     <use x="74.804688" xlink:href="#DejaVuSans-69"/>
     <use x="102.587891" xlink:href="#DejaVuSans-73"/>
     <use x="154.6875" xlink:href="#DejaVuSans-73"/>
     <use x="206.787109" xlink:href="#DejaVuSans-69"/>
     <use x="234.570312" xlink:href="#DejaVuSans-20"/>
     <use x="266.357422" xlink:href="#DejaVuSans-53"/>
     <use x="329.833984" xlink:href="#DejaVuSans-74"/>
     <use x="369.042969" xlink:href="#DejaVuSans-69"/>
     <use x="396.826172" xlink:href="#DejaVuSans-20"/>
     <use x="428.613281" xlink:href="#DejaVuSans-31"/>
     <use x="492.236328" xlink:href="#DejaVuSans-34"/>
     <use x="555.859375" xlink:href="#DejaVuSans-2e"/>
     <use x="587.646484" xlink:href="#DejaVuSans-31"/>
     <use x="651.269531" xlink:href="#DejaVuSans-b0"/>
    </g>
   </g>
   <g id="text_12">
    <g id="patch_13">
     <path d="M 60.480981 17.175532 
L 68.541285 36.093759 
L 70.35882 35.31938 
L 62.298516 16.401153 
z
" style="fill:#ffffff;"/>
    </g>
    <!-- Lower Sandy's 15.0° -->
    <g style="fill:#008000;" transform="translate(60.889874 17.023059)rotate(-293.076924)scale(0.02 -0.02)">
     <defs>
      <path d="M 628 4666 
L 1259 4666 
L 1259 531 
L 3531 531 
L 3531 0 
L 628 0 
L 628 4666 
z
" id="DejaVuSans-4c" transform="scale(0.015625)"/>
      <path d="M 691 4666 
L 3169 4666 
L 3169 4134 
L 1269 4134 
L 1269 2991 
Q 1406 3038 1543 3061 
Q 1681 3084 1819 3084 
Q 2600 3084 3056 2656 
Q 3513 2228 3513 1497 
Q 3513 744 3044 326 
Q 2575 -91 1722 -91 
Q 1428 -91 1123 -41 
Q 819 9 494 109 
L 494 744 
Q 775 591 1075 516 
Q 1375 441 1709 441 
Q 2250 441 2565 725 
Q 2881 1009 2881 1497 
Q 2881 1984 2565 2268 
Q 2250 2553 1709 2553 
Q 1456 2553 1204 2497 
Q 953 2441 691 2322 
L 691 4666 
z
" id="DejaVuSans-35" transform="scale(0.015625)"/>
      <path d="M 2034 4250 
Q 1547 4250 1301 3770 
Q 1056 3291 1056 2328 
Q 1056 1369 1301 889 
Q 1547 409 2034 409 
Q 2525 409 2770 889 
Q 3016 1369 3016 2328 
Q 3016 3291 2770 3770 
Q 2525 4250 2034 4250 
z
M 2034 4750 
Q 2819 4750 3233 4129 
Q 3647 3509 3647 2328 
Q 3647 1150 3233 529 
Q 2819 -91 2034 -91 
Q 1250 -91 836 529 
Q 422 1150 422 2328 
Q 422 3509 836 4129 
Q 1250 4750 2034 4750 
z
" id="DejaVuSans-30" transform="scale(0.015625)"/>
     </defs>
     <use xlink:href="#DejaVuSans-4c"/>
     <use x="53.962891" xlink:href="#DejaVuSans-6f"/>
     <use x="115.144531" xlink:href="#DejaVuSans-77"/>
     <use x="196.931641" xlink:href="#DejaVuSans-65"/>
     <use x="258.455078" xlink:href="#DejaVuSans-72"/>
     <use x="299.568359" xlink:href="#DejaVuSans-20"/>
     <use x="331.355469" xlink:href="#DejaVuSans-53"/>
     <use x="394.832031" xlink:href="#DejaVuSans-61"/>
     <use x="456.111328" xlink:href="#DejaVuSans-6e"/>
     <use x="519.490234" xlink:href="#DejaVuSans-64"/>
     <use x="582.966797" xlink:href="#DejaVuSans-79"/>
     <use x="642.146484" xlink:href="#DejaVuSans-27"/>
     <use x="669.636719" xlink:href="#DejaVuSans-73"/>
     <use x="721.736328" xlink:href="#DejaVuSans-20"/>
     <use x="753.523438" xlink:href="#DejaVuSans-31"/>
     <use x="817.146484" xlink:href="#DejaVuSans-35"/>
     <use x="880.769531" xlink:href="#DejaVuSans-2e"/>
     <use x="912.556641" xlink:href="#DejaVuSans-30"/>
     <use x="976.179688" xlink:href="#DejaVuSans-b0"/>
    </g>
   </g>
   <g id="text_13">
    <g id="patch_14">
     <path d="M 67.792451 17.876547 
L 82.635913 34.273359 
L 84.100542 32.947481 
L 69.257081 16.550668 
z
" style="fill:#ffffff;"/>
    </g>
    <!-- West Ridge Trail 11.3° -->
    <g style="fill:#008000;" transform="translate(68.129056 17.598808)rotate(-312.153443)scale(0.02 -0.02)">
     <defs>
      <path d="M 213 4666 
L 850 4666 
L 1831 722 
L 2809 4666 
L 3519 4666 
L 4500 722 
L 5478 4666 
L 6119 4666 
L 4947 0 
L 4153 0 
L 3169 4050 
L 2175 0 
L 1381 0 
L 213 4666 
z
" id="DejaVuSans-57" transform="scale(0.015625)"/>
     </defs>
     <use xlink:href="#DejaVuSans-57"/>
     <use x="93.001953" xlink:href="#DejaVuSans-65"/>
     <use x="154.525391" xlink:href="#DejaVuSans-73"/>
     <use x="206.625" xlink:href="#DejaVuSans-74"/>
     <use x="245.833984" xlink:href="#DejaVuSans-20"/>
     <use x="277.621094" xlink:href="#DejaVuSans-52"/>
     <use x="347.103516" xlink:href="#DejaVuSans-69"/>
     <use x="374.886719" xlink:href="#DejaVuSans-64"/>
     <use x="438.363281" xlink:href="#DejaVuSans-67"/>
     <use x="501.839844" xlink:href="#DejaVuSans-65"/>
     <use x="563.363281" xlink:href="#DejaVuSans-20"/>
     <use x="595.150391" xlink:href="#DejaVuSans-54"/>
     <use x="641.484375" xlink:href="#DejaVuSans-72"/>
     <use x="682.597656" xlink:href="#DejaVuSans-61"/>
     <use x="743.876953" xlink:href="#DejaVuSans-69"/>
     <use x="771.660156" xlink:href="#DejaVuSans-6c"/>
     <use x="799.443359" xlink:href="#DejaVuSans-20"/>
     <use x="831.230469" xlink:href="#DejaVuSans-31"/>
     <use x="894.853516" xlink:href="#DejaVuSans-31"/>
     <use x="958.476562" xlink:href="#DejaVuSans-2e"/>
     <use x="990.263672" xlink:href="#DejaVuSans-33"/>
     <use x="1053.886719" xlink:href="#DejaVuSans-b0"/>
    </g>
   </g>
   <g id="text_14">
    <!-- Tyrol Basin -->
    <g transform="translate(29.49901 6.828035)scale(0.06 -0.06)">
     <use xlink:href="#DejaVuSans-54"/>
     <use x="45.458984" xlink:href="#DejaVuSans-79"/>
     <use x="104.638672" xlink:href="#DejaVuSans-72"/>
     <use x="143.501953" xlink:href="#DejaVuSans-6f"/>
     <use x="204.683594" xlink:href="#DejaVuSans-6c"/>
     <use x="232.466797" xlink:href="#DejaVuSans-20"/>
     <use x="264.253906" xlink:href="#DejaVuSans-42"/>
     <use x="332.857422" xlink:href="#DejaVuSans-61"/>
     <use x="394.136719" xlink:href="#DejaVuSans-73"/>
     <use x="446.236328" xlink:href="#DejaVuSans-69"/>
     <use x="474.019531" xlink:href="#DejaVuSans-6e"/>
    </g>
   </g>
   <g id="legend_1">
    <g id="line2d_30">
     <path d="M 3.619557 59.994393 
L 9.619557 59.994393 
" style="fill:none;stroke:#008000;stroke-linecap:square;stroke-width:0.422414;"/>
    </g>
    <g id="line2d_31"/>
    <g id="text_15">
     <!-- Easy -->
     <g transform="translate(12.019557 61.044393)scale(0.03 -0.03)">
      <defs>
       <path d="M 628 4666 
L 3578 4666 
L 3578 4134 
L 1259 4134 
L 1259 2753 
L 3481 2753 
L 3481 2222 
L 1259 2222 
L 1259 531 
L 3634 531 
L 3634 0 
L 628 0 
L 628 4666 
z
" id="DejaVuSans-45" transform="scale(0.015625)"/>
      </defs>
      <use xlink:href="#DejaVuSans-45"/>
      <use x="63.183594" xlink:href="#DejaVuSans-61"/>
      <use x="124.462891" xlink:href="#DejaVuSans-73"/>
      <use x="176.5625" xlink:href="#DejaVuSans-79"/>
     </g>
    </g>
    <g id="line2d_32">
     <path d="M 3.619557 64.39783 
L 9.619557 64.39783 
" style="fill:none;stroke:#4169e1;stroke-linecap:square;stroke-width:0.422414;"/>
    </g>
    <g id="line2d_33"/>
    <g id="text_16">
     <!-- Intermediate -->
     <g transform="translate(12.019557 65.44783)scale(0.03 -0.03)">
      <defs>
       <path d="M 628 4666 
L 1259 4666 
L 1259 0 
L 628 0 
L 628 4666 
z
" id="DejaVuSans-49" transform="scale(0.015625)"/>
      </defs>
      <use xlink:href="#DejaVuSans-49"/>
      <use x="29.492188" xlink:href="#DejaVuSans-6e"/>
      <use x="92.871094" xlink:href="#DejaVuSans-74"/>
      <use x="132.080078" xlink:href="#DejaVuSans-65"/>
      <use x="193.603516" xlink:href="#DejaVuSans-72"/>
      <use x="232.966797" xlink:href="#DejaVuSans-6d"/>
      <use x="330.378906" xlink:href="#DejaVuSans-65"/>
      <use x="391.902344" xlink:href="#DejaVuSans-64"/>
      <use x="455.378906" xlink:href="#DejaVuSans-69"/>
      <use x="483.162109" xlink:href="#DejaVuSans-61"/>
      <use x="544.441406" xlink:href="#DejaVuSans-74"/>
      <use x="583.650391" xlink:href="#DejaVuSans-65"/>
     </g>
    </g>
    <g id="line2d_34">
     <path d="M 37.375182 59.994393 
L 43.375182 59.994393 
" style="fill:none;stroke:#000000;stroke-linecap:square;stroke-width:0.422414;"/>
    </g>
    <g id="line2d_35"/>
    <g id="text_17">
     <!-- Advanced -->
     <g transform="translate(45.775182 61.044393)scale(0.03 -0.03)">
      <defs>
       <path d="M 2188 4044 
L 1331 1722 
L 3047 1722 
L 2188 4044 
z
M 1831 4666 
L 2547 4666 
L 4325 0 
L 3669 0 
L 3244 1197 
L 1141 1197 
L 716 0 
L 50 0 
L 1831 4666 
z
" id="DejaVuSans-41" transform="scale(0.015625)"/>
       <path d="M 191 3500 
L 800 3500 
L 1894 563 
L 2988 3500 
L 3597 3500 
L 2284 0 
L 1503 0 
L 191 3500 
z
" id="DejaVuSans-76" transform="scale(0.015625)"/>
       <path d="M 3122 3366 
L 3122 2828 
Q 2878 2963 2633 3030 
Q 2388 3097 2138 3097 
Q 1578 3097 1268 2742 
Q 959 2388 959 1747 
Q 959 1106 1268 751 
Q 1578 397 2138 397 
Q 2388 397 2633 464 
Q 2878 531 3122 666 
L 3122 134 
Q 2881 22 2623 -34 
Q 2366 -91 2075 -91 
Q 1284 -91 818 406 
Q 353 903 353 1747 
Q 353 2603 823 3093 
Q 1294 3584 2113 3584 
Q 2378 3584 2631 3529 
Q 2884 3475 3122 3366 
z
" id="DejaVuSans-63" transform="scale(0.015625)"/>
      </defs>
      <use xlink:href="#DejaVuSans-41"/>
      <use x="66.658203" xlink:href="#DejaVuSans-64"/>
      <use x="130.134766" xlink:href="#DejaVuSans-76"/>
      <use x="189.314453" xlink:href="#DejaVuSans-61"/>
      <use x="250.59375" xlink:href="#DejaVuSans-6e"/>
      <use x="313.972656" xlink:href="#DejaVuSans-63"/>
      <use x="368.953125" xlink:href="#DejaVuSans-65"/>
      <use x="430.476562" xlink:href="#DejaVuSans-64"/>
     </g>
    </g>
    <g id="line2d_36">
     <path d="M 37.375182 64.39783 
L 43.375182 64.39783 
" style="fill:none;stroke:#ff0000;stroke-linecap:square;stroke-width:0.422414;"/>
    </g>
    <g id="line2d_37"/>
    <g id="text_18">
     <!-- Expert -->
     <g transform="translate(45.775182 65.44783)scale(0.03 -0.03)">
      <defs>
       <path d="M 3513 3500 
L 2247 1797 
L 3578 0 
L 2900 0 
L 1881 1375 
L 863 0 
L 184 0 
L 1544 1831 
L 300 3500 
L 978 3500 
L 1906 2253 
L 2834 3500 
L 3513 3500 
z
" id="DejaVuSans-78" transform="scale(0.015625)"/>
      </defs>
      <use xlink:href="#DejaVuSans-45"/>
      <use x="63.183594" xlink:href="#DejaVuSans-78"/>
      <use x="122.363281" xlink:href="#DejaVuSans-70"/>
      <use x="185.839844" xlink:href="#DejaVuSans-65"/>
      <use x="247.363281" xlink:href="#DejaVuSans-72"/>
      <use x="288.476562" xlink:href="#DejaVuSans-74"/>
     </g>
    </g>
    <g id="line2d_38">
     <path d="M 66.594714 59.994393 
L 72.594714 59.994393 
" style="fill:none;stroke:#ffd700;stroke-linecap:square;stroke-width:0.422414;"/>
    </g>
    <g id="line2d_39"/>
    <g id="text_19">
     <!-- Extreme -->
     <g transform="translate(74.994714 61.044393)scale(0.03 -0.03)">
      <use xlink:href="#DejaVuSans-45"/>
      <use x="63.183594" xlink:href="#DejaVuSans-78"/>
      <use x="122.363281" xlink:href="#DejaVuSans-74"/>
      <use x="161.572266" xlink:href="#DejaVuSans-72"/>
      <use x="200.435547" xlink:href="#DejaVuSans-65"/>
      <use x="261.958984" xlink:href="#DejaVuSans-6d"/>
      <use x="359.371094" xlink:href="#DejaVuSans-65"/>
     </g>
    </g>
    <g id="line2d_40">
     <path d="M 66.594714 64.39783 
L 72.594714 64.39783 
" style="fill:none;stroke:#000000;stroke-dasharray:0.422414,0.696983;stroke-dashoffset:0;stroke-width:0.422414;"/>
    </g>
    <g id="line2d_41"/>
    <g id="text_20">
     <!-- Gladed -->
     <g transform="translate(74.994714 65.44783)scale(0.03 -0.03)">
      <defs>
       <path d="M 3809 666 
L 3809 1919 
L 2778 1919 
L 2778 2438 
L 4434 2438 
L 4434 434 
Q 4069 175 3628 42 
Q 3188 -91 2688 -91 
Q 1594 -91 976 548 
Q 359 1188 359 2328 
Q 359 3472 976 4111 
Q 1594 4750 2688 4750 
Q 3144 4750 3555 4637 
Q 3966 4525 4313 4306 
L 4313 3634 
Q 3963 3931 3569 4081 
Q 3175 4231 2741 4231 
Q 1884 4231 1454 3753 
Q 1025 3275 1025 2328 
Q 1025 1384 1454 906 
Q 1884 428 2741 428 
Q 3075 428 3337 486 
Q 3600 544 3809 666 
z
" id="DejaVuSans-47" transform="scale(0.015625)"/>
      </defs>
      <use xlink:href="#DejaVuSans-47"/>
      <use x="77.490234" xlink:href="#DejaVuSans-6c"/>
      <use x="105.273438" xlink:href="#DejaVuSans-61"/>
      <use x="166.552734" xlink:href="#DejaVuSans-64"/>
      <use x="230.029297" xlink:href="#DejaVuSans-65"/>
      <use x="291.552734" xlink:href="#DejaVuSans-64"/>
     </g>
    </g>
   </g>
  </g>
  <g id="text_21">
   <!-- Sources: USGS and OpenStreetMaps -->
   <g transform="translate(21.82433 70.931998)scale(0.026087 -0.026087)">
    <defs>
     <path d="M 750 794 
L 1409 794 
L 1409 0 
L 750 0 
L 750 794 
z
M 750 3309 
L 1409 3309 
L 1409 2516 
L 750 2516 
L 750 3309 
z
" id="DejaVuSans-3a" transform="scale(0.015625)"/>
     <path d="M 556 4666 
L 1191 4666 
L 1191 1831 
Q 1191 1081 1462 751 
Q 1734 422 2344 422 
Q 2950 422 3222 751 
Q 3494 1081 3494 1831 
L 3494 4666 
L 4128 4666 
L 4128 1753 
Q 4128 841 3676 375 
Q 3225 -91 2344 -91 
Q 1459 -91 1007 375 
Q 556 841 556 1753 
L 556 4666 
z
" id="DejaVuSans-55" transform="scale(0.015625)"/>
     <path d="M 2522 4238 
Q 1834 4238 1429 3725 
Q 1025 3213 1025 2328 
Q 1025 1447 1429 934 
Q 1834 422 2522 422 
Q 3209 422 3611 934 
Q 4013 1447 4013 2328 
Q 4013 3213 3611 3725 
Q 3209 4238 2522 4238 
z
M 2522 4750 
Q 3503 4750 4090 4092 
Q 4678 3434 4678 2328 
Q 4678 1225 4090 567 
Q 3503 -91 2522 -91 
Q 1538 -91 948 565 
Q 359 1222 359 2328 
Q 359 3434 948 4092 
Q 1538 4750 2522 4750 
z
" id="DejaVuSans-4f" transform="scale(0.015625)"/>
     <path d="M 628 4666 
L 1569 4666 
L 2759 1491 
L 3956 4666 
L 4897 4666 
L 4897 0 
L 4281 0 
L 4281 4097 
L 3078 897 
L 2444 897 
L 1241 4097 
L 1241 0 
L 628 0 
L 628 4666 
z
" id="DejaVuSans-4d" transform="scale(0.015625)"/>
    </defs>
    <use xlink:href="#DejaVuSans-53"/>
    <use x="63.476562" xlink:href="#DejaVuSans-6f"/>
    <use x="124.658203" xlink:href="#DejaVuSans-75"/>
    <use x="188.037109" xlink:href="#DejaVuSans-72"/>
    <use x="226.900391" xlink:href="#DejaVuSans-63"/>
    <use x="281.880859" xlink:href="#DejaVuSans-65"/>
    <use x="343.404297" xlink:href="#DejaVuSans-73"/>
    <use x="395.503906" xlink:href="#DejaVuSans-3a"/>
    <use x="429.195312" xlink:href="#DejaVuSans-20"/>
    <use x="460.982422" xlink:href="#DejaVuSans-55"/>
    <use x="534.175781" xlink:href="#DejaVuSans-53"/>
    <use x="597.652344" xlink:href="#DejaVuSans-47"/>
    <use x="675.142578" xlink:href="#DejaVuSans-53"/>
    <use x="738.619141" xlink:href="#DejaVuSans-20"/>
    <use x="770.40625" xlink:href="#DejaVuSans-61"/>
    <use x="831.685547" xlink:href="#DejaVuSans-6e"/>
    <use x="895.064453" xlink:href="#DejaVuSans-64"/>
    <use x="958.541016" xlink:href="#DejaVuSans-20"/>
    <use x="990.328125" xlink:href="#DejaVuSans-4f"/>
    <use x="1069.039062" xlink:href="#DejaVuSans-70"/>
    <use x="1132.515625" xlink:href="#DejaVuSans-65"/>
    <use x="1194.039062" xlink:href="#DejaVuSans-6e"/>
    <use x="1257.417969" xlink:href="#DejaVuSans-53"/>
    <use x="1320.894531" xlink:href="#DejaVuSans-74"/>
    <use x="1360.103516" xlink:href="#DejaVuSans-72"/>
    <use x="1398.966797" xlink:href="#DejaVuSans-65"/>
    <use x="1460.490234" xlink:href="#DejaVuSans-65"/>
    <use x="1522.013672" xlink:href="#DejaVuSans-74"/>
    <use x="1561.222656" xlink:href="#DejaVuSans-4d"/>
    <use x="1647.501953" xlink:href="#DejaVuSans-61"/>
    <use x="1708.78125" xlink:href="#DejaVuSans-70"/>
    <use x="1772.257812" xlink:href="#DejaVuSans-73"/>
   </g>
  </g>
 </g>
 <defs>
  <clipPath id="p32bdca14a5">
   <rect height="51.818456" width="91.241458" x="0" y="9.828035"/>
  </clipPath>
 </defs>
</svg>
