<?xml version="1.0" encoding="utf-8" standalone="no"?>
<!DOCTYPE svg PUBLIC "-//W3C//DTD SVG 1.1//EN"
  "http://www.w3.org/Graphics/SVG/1.1/DTD/svg11.dtd">
<svg xmlns:xlink="http://www.w3.org/1999/xlink" width="122.463679pt" height="119.223239pt" viewBox="0 0 122.463679 119.223239" xmlns="http://www.w3.org/2000/svg" version="1.1">
 <metadata>
  <rdf:RDF xmlns:dc="http://purl.org/dc/elements/1.1/" xmlns:cc="http://creativecommons.org/ns#" xmlns:rdf="http://www.w3.org/1999/02/22-rdf-syntax-ns#">
   <cc:Work>
    <dc:type rdf:resource="http://purl.org/dc/dcmitype/StillImage"/>
    <dc:date>2022-05-17T17:49:02.129928</dc:date>
    <dc:format>image/svg+xml</dc:format>
    <dc:creator>
     <cc:Agent>
      <dc:title>Matplotlib v3.5.2, https://matplotlib.org/</dc:title>
     </cc:Agent>
    </dc:creator>
   </cc:Work>
  </rdf:RDF>
 </metadata>
 <defs>
  <style type="text/css">*{stroke-linejoin: round; stroke-linecap: butt}</style>
 </defs>
 <g id="figure_1">
  <g id="patch_1">
   <path d="M 0 119.223239 
L 122.463679 119.223239 
L 122.463679 0 
L 0 0 
L 0 119.223239 
z
" style="fill: none"/>
  </g>
  <g id="axes_1">
   <g id="line2d_1">
    <path d="M 60.518573 35.706028 
" clip-path="url(#paed2a940b5)" style="fill: none; stroke: #008000; stroke-width: 0.001; stroke-linecap: square"/>
   </g>
   <g id="line2d_2">
    <path d="M 60.518573 35.706028 
" clip-path="url(#paed2a940b5)" style="fill: none; stroke: #4169e1; stroke-width: 0.001; stroke-linecap: square"/>
   </g>
   <g id="line2d_3">
    <path d="M 60.518573 35.706028 
" clip-path="url(#paed2a940b5)" style="fill: none; stroke: #000000; stroke-width: 0.001; stroke-linecap: square"/>
   </g>
   <g id="line2d_4">
    <path d="M 60.518573 35.706028 
" clip-path="url(#paed2a940b5)" style="fill: none; stroke: #ff0000; stroke-width: 0.001; stroke-linecap: square"/>
   </g>
   <g id="line2d_5">
    <path d="M 60.518573 35.706028 
" clip-path="url(#paed2a940b5)" style="fill: none; stroke: #ffd700; stroke-width: 0.001; stroke-linecap: square"/>
   </g>
   <g id="line2d_6">
    <path d="M 60.518573 35.706028 
" clip-path="url(#paed2a940b5)" style="fill: none; stroke-dasharray: 0.001,0.00165; stroke-dashoffset: 0; stroke: #000000; stroke-width: 0.001"/>
   </g>
   <g id="line2d_7">
    <path d="M 97.489037 81.469723 
L 95.392909 78.768411 
L 93.29678 76.067099 
L 89.666403 71.386416 
L 87.087728 68.062604 
L 84.509053 64.738792 
L 81.930379 61.41498 
L 79.351704 58.091168 
L 77.074348 55.15617 
L 74.796992 52.221172 
L 71.737227 48.277346 
L 69.146907 44.938618 
L 66.556588 41.59989 
L 64.42334 38.850349 
L 62.290093 36.100809 
" clip-path="url(#paed2a940b5)" style="fill: none; stroke: #808080; stroke-width: 0.566961; stroke-linecap: square"/>
   </g>
   <g id="line2d_8">
    <path d="M 86.360634 86.928034 
L 83.273211 81.796883 
L 80.495841 77.181831 
L 78.800015 74.363677 
L 77.104189 71.545522 
L 75.418552 68.744271 
L 73.732916 65.943021 
L 72.438848 63.792115 
L 70.453348 60.493163 
L 68.467849 57.194211 
L 66.499817 53.9236 
L 64.531786 50.652989 
L 61.716569 45.974295 
" clip-path="url(#paed2a940b5)" style="fill: none; stroke: #808080; stroke-width: 0.566961; stroke-linecap: square"/>
   </g>
   <g id="line2d_9">
    <path d="M 67.93945 91.253713 
L 66.773479 85.980362 
L 66.041289 82.668483 
L 65.3091 79.356604 
L 64.567449 76.003457 
L 63.825798 72.65031 
L 63.094337 69.342408 
L 62.362875 66.034507 
L 61.5892 62.537668 
L 60.815525 59.040829 
L 59.812586 54.50533 
L 58.605856 49.047019 
" clip-path="url(#paed2a940b5)" style="fill: none; stroke: #808080; stroke-width: 0.566961; stroke-linecap: square"/>
   </g>
   <g id="line2d_10">
    <path d="M 54.024942 94.234951 
L 51.872772 91.50853 
L 49.720601 88.782109 
L 47.56843 86.055688 
L 45.41626 83.329268 
" clip-path="url(#paed2a940b5)" style="fill: none; stroke: #808080; stroke-width: 0.566961; stroke-linecap: square"/>
   </g>
   <g id="line2d_11">
    <path d="M 50.748286 100.096991 
L 47.05386 96.028864 
L 44.87476 93.629356 
L 42.69566 91.229847 
L 40.244354 88.530524 
L 37.793049 85.831201 
L 35.381773 83.176129 
L 32.970498 80.521057 
L 28.6516 75.765793 
L 26.187193 73.051057 
" clip-path="url(#paed2a940b5)" style="fill: none; stroke: #808080; stroke-width: 0.566961; stroke-linecap: square"/>
   </g>
   <g id="line2d_12">
    <path d="M 35.484396 95.712642 
L 32.097839 94.27423 
L 28.711281 92.835817 
L 22.837755 91.107535 
L 17.427124 89.706412 
L 11.507017 88.61654 
" clip-path="url(#paed2a940b5)" style="fill: none; stroke: #808080; stroke-width: 0.566961; stroke-linecap: square"/>
   </g>
   <g id="line2d_13">
    <path d="M 54.310249 93.980382 
L 52.14243 91.269126 
L 49.974611 88.55787 
L 47.806792 85.846614 
L 45.638973 83.135358 
" clip-path="url(#paed2a940b5)" style="fill: none; stroke: #808080; stroke-width: 0.566961; stroke-linecap: square"/>
   </g>
   <g id="line2d_14">
    <path d="M 58.333651 94.131532 
L 55.72368 90.730654 
" clip-path="url(#paed2a940b5)" style="fill: none; stroke: #808080; stroke-width: 0.566961; stroke-linecap: square"/>
   </g>
   <g id="line2d_15">
    <path d="M 5.566531 84.864635 
L 9.200548 82.751765 
L 12.834565 80.638894 
L 16.468582 78.526024 
L 20.102599 76.413153 
" clip-path="url(#paed2a940b5)" style="fill: none; stroke: #808080; stroke-width: 0.566961; stroke-linecap: square"/>
   </g>
   <g id="line2d_16">
    <path d="M 60.518573 35.706028 
L 59.4101 35.073584 
L 58.301627 34.44114 
L 57.661871 33.344804 
L 57.022115 32.248468 
L 57.122554 30.92491 
L 57.222994 29.601352 
L 58.548358 28.519932 
L 59.873723 27.438512 
L 61.004213 27.229189 
L 62.134703 27.019866 
L 63.265193 26.810543 
L 64.395683 26.60122 
L 65.526173 26.391897 
L 66.656663 26.182574 
L 67.787153 25.973251 
L 68.917643 25.763928 
L 70.186238 25.52875 
L 71.454832 25.293572 
L 72.533829 25.164796 
L 73.612825 25.03602 
L 74.691822 24.907244 
L 75.770818 24.778468 
L 76.772666 24.606933 
L 77.774513 24.435397 
L 78.776361 24.263862 
L 79.778208 24.092326 
L 81.451472 23.759696 
L 83.124735 23.427066 
L 84.797999 23.094437 
L 86.471263 22.761807 
L 88.012062 22.139804 
L 89.552862 21.517801 
L 90.763959 20.123143 
L 91.975055 18.728484 
L 92.954704 18.299397 
L 93.934353 17.870309 
L 94.914002 17.441222 
L 95.893651 17.012134 
L 96.939531 17.1516 
L 97.985412 17.291066 
L 99.031293 17.430532 
L 100.077173 17.569998 
L 101.111773 18.460242 
L 102.146372 19.350487 
L 103.180972 20.240732 
L 104.215571 21.130976 
L 104.821119 22.332471 
L 105.426668 23.533965 
L 106.032216 24.73546 
L 106.637764 25.936955 
L 107.108392 27.004328 
L 107.57902 28.071702 
L 108.049648 29.139076 
L 108.520277 30.20645 
L 108.990905 31.273823 
L 109.461533 32.341197 
L 109.932161 33.408571 
L 110.402789 34.475944 
L 110.873417 35.543318 
L 111.344045 36.610692 
L 111.814673 37.678066 
L 112.285301 38.745439 
L 112.75593 39.812813 
L 113.226558 40.880187 
L 113.697186 41.94756 
L 114.167814 43.014934 
L 114.629981 44.119971 
L 115.092148 45.225008 
L 115.554316 46.330045 
L 116.016483 47.435082 
L 116.236649 48.475482 
L 116.456815 49.515883 
L 116.676982 50.556283 
L 116.897148 51.596683 
L 116.192616 53.313033 
L 115.565233 54.203527 
L 114.93785 55.09402 
L 114.310467 55.984513 
L 113.683084 56.875006 
L 113.220735 57.743871 
L 112.758386 58.612736 
L 112.296037 59.481601 
L 111.833688 60.350465 
L 111.371339 61.21933 
L 110.908989 62.088195 
L 110.44664 62.95706 
L 109.984291 63.825925 
L 109.136742 65.263343 
L 108.289193 66.700761 
L 107.441644 68.138179 
L 106.594095 69.575597 
L 105.878645 70.380323 
L 105.163196 71.185048 
L 104.447747 71.989774 
L 103.732297 72.794499 
L 102.873467 74.392763 
L 102.014636 75.991027 
L 101.155806 77.589291 
L 100.296976 79.187554 
L 99.556053 80.408689 
L 99.113537 81.437902 
" clip-path="url(#paed2a940b5)" style="fill: none; stroke: #008000; stroke-width: 0.566961; stroke-linecap: square"/>
   </g>
   <g id="line2d_17">
    <path d="M 68.917643 25.763928 
L 70.018111 26.004077 
L 71.118578 26.244227 
L 72.358059 27.427077 
L 73.597541 28.609926 
L 74.267501 30.002347 
L 74.937462 31.394768 
L 75.607422 32.787189 
L 76.277383 34.179611 
L 77.074166 35.005219 
L 77.87095 35.830827 
L 78.667733 36.656435 
L 79.464517 37.482043 
L 80.2613 38.307651 
L 81.058084 39.133259 
L 81.854867 39.958867 
L 82.651651 40.784475 
L 83.726281 41.647125 
L 84.80091 42.509774 
L 85.87554 43.372424 
L 86.95017 44.235074 
L 87.987316 45.442784 
L 89.024463 46.650493 
L 90.06161 47.858203 
L 91.098757 49.065913 
" clip-path="url(#paed2a940b5)" style="fill: none; stroke: #008000; stroke-width: 0.566961; stroke-linecap: square"/>
   </g>
   <g id="line2d_18">
    <path d="M 91.098757 49.065913 
L 92.146821 49.974305 
L 93.194885 50.882698 
L 93.829546 51.431612 
L 94.828483 52.232608 
L 95.827419 53.033604 
L 96.826355 53.834601 
L 97.825291 54.635597 
L 99.064773 55.658347 
L 100.304254 56.681096 
L 100.898521 57.537531 
L 101.492788 58.393966 
L 102.087055 59.250401 
L 102.681322 60.106835 
L 103.516134 61.794844 
L 104.350946 63.482854 
L 104.357133 64.524248 
L 104.363319 65.565643 
L 104.369506 66.607038 
L 104.375692 67.648433 
L 104.211204 69.472179 
L 104.046716 71.295925 
L 103.732297 72.794499 
" clip-path="url(#paed2a940b5)" style="fill: none; stroke: #008000; stroke-width: 0.566961; stroke-linecap: square"/>
   </g>
   <g id="line2d_19">
    <path d="M 62.301738 39.576268 
L 63.627103 40.436432 
L 64.952467 41.296595 
L 66.052571 41.851227 
L 67.152674 42.405859 
L 68.252778 42.96049 
L 69.352881 43.515122 
L 71.199366 44.106547 
L 73.045852 44.697971 
L 74.892337 45.289396 
L 76.738822 45.880821 
L 77.690268 46.164227 
L 78.641714 46.447634 
L 79.593159 46.73104 
L 80.544605 47.014447 
L 81.496051 47.297854 
L 82.447497 47.58126 
L 83.398942 47.864667 
L 84.350388 48.148073 
L 85.684487 48.462306 
L 87.018585 48.77654 
L 88.352683 49.090773 
L 89.686782 49.405006 
L 91.440833 50.143852 
L 93.194885 50.882698 
" clip-path="url(#paed2a940b5)" style="fill: none; stroke: #4169e1; stroke-width: 0.566961; stroke-linecap: square"/>
   </g>
   <g id="line2d_20">
    <path d="M 58.256502 40.863033 
L 57.143661 41.059926 
L 56.030821 41.256819 
L 55.284803 42.242776 
L 54.538785 43.228732 
L 53.792767 44.214689 
L 53.046749 45.200645 
L 52.604233 46.58076 
L 52.161717 47.960876 
L 51.719201 49.340991 
L 51.276685 50.721106 
L 50.834169 52.101222 
L 50.391653 53.481337 
L 49.949137 54.861452 
L 49.506621 56.241568 
L 49.304287 57.245796 
L 49.101952 58.250025 
L 48.899618 59.254254 
L 48.697283 60.258483 
L 48.494948 61.262711 
L 48.292614 62.26694 
L 48.090279 63.271169 
L 47.887944 64.275398 
L 47.862471 65.557191 
L 47.836997 66.838984 
" clip-path="url(#paed2a940b5)" style="fill: none; stroke: #008000; stroke-width: 0.566961; stroke-linecap: square"/>
   </g>
   <g id="line2d_21">
    <path d="M 59.45013 37.222502 
L 58.519973 35.721939 
L 57.634213 34.603726 
L 56.748454 33.485513 
L 55.09193 33.428832 
L 53.697422 34.164694 
L 53.363352 35.070601 
L 53.029282 35.976508 
L 52.767265 36.967933 
L 52.477592 38.156252 
L 51.663887 38.637546 
L 50.966633 38.49634 
L 49.71769 38.269615 
L 49.339222 38.580865 
L 49.106319 39.402246 
L 49.397448 40.166947 
L 49.484787 40.873972 
L 49.164545 41.581991 
L 48.090279 42.29001 
L 46.637546 42.317853 
L 46.202308 42.317853 
L 45.35949 43.36596 
L 44.691349 44.639798 
L 44.037764 45.998658 
L 43.38418 47.357518 
L 43.13672 48.701959 
L 42.889261 50.0464 
L 42.860148 51.858213 
L 43.107607 53.160392 
L 43.355067 54.46257 
L 43.601799 55.439577 
L 43.84853 56.416584 
L 44.516671 57.803784 
L 45.184812 59.190985 
L 45.940292 60.535426 
L 46.695771 61.879866 
L 47.291858 63.077632 
L 47.887944 64.275398 
" clip-path="url(#paed2a940b5)" style="fill: none; stroke: #008000; stroke-width: 0.566961; stroke-linecap: square"/>
   </g>
   <g id="line2d_22">
    <path d="M 47.836997 66.838984 
L 47.892311 68.35496 
L 47.947626 69.870937 
L 48.383591 71.371003 
L 48.819557 72.871069 
L 49.836325 74.399972 
L 50.853093 75.928876 
L 51.637321 76.594136 
L 52.42155 77.259395 
L 53.205778 77.924655 
L 53.990007 78.589915 
L 55.210201 79.552502 
L 56.430395 80.51509 
L 57.650589 81.477678 
L 58.870784 82.440266 
L 59.78602 83.176377 
L 60.701257 83.912489 
L 61.616493 84.6486 
L 62.53173 85.384711 
L 63.040114 86.460413 
L 63.548498 87.536115 
L 64.056882 88.611817 
L 64.565266 89.687519 
L 64.899336 90.720709 
L 65.233407 91.7539 
L 65.567477 92.787091 
L 65.901547 93.820282 
L 66.831704 94.455709 
L 67.79243 94.357263 
L 68.32374 93.692003 
" clip-path="url(#paed2a940b5)" style="fill: none; stroke: #008000; stroke-width: 0.566961; stroke-linecap: square"/>
   </g>
   <g id="line2d_23">
    <path d="M 57.981385 48.06852 
L 57.525768 48.117246 
L 57.423873 49.497486 
L 57.588361 50.692766 
L 57.752849 51.888045 
L 58.081824 53.15716 
L 58.4108 54.426274 
L 58.739776 55.695389 
L 59.068751 56.964503 
L 59.365703 58.819076 
L 59.662654 60.673648 
L 59.959606 62.528221 
L 60.256557 64.382794 
L 60.724547 65.738422 
L 61.192537 67.09405 
L 61.660527 68.449678 
L 62.128516 69.805306 
L 62.419281 70.920535 
L 62.710046 72.035765 
L 63.000812 73.150995 
L 63.291577 74.266224 
L 63.72172 75.411784 
L 64.151863 76.557343 
L 64.89788 77.23553 
L 65.643898 77.913716 
L 66.30185 79.527642 
L 66.959801 81.141568 
L 67.155585 82.102664 
L 67.35137 83.06376 
L 67.547154 84.024857 
L 67.742938 84.985953 
L 68.090837 86.027348 
L 68.438736 87.068743 
L 68.786635 88.110137 
L 69.134534 89.151532 
L 69.450409 90.383605 
L 69.766284 91.615678 
L 69.792486 92.404244 
L 69.234974 92.799024 
L 68.881252 92.823884 
" clip-path="url(#paed2a940b5)" style="fill: none; stroke: #4169e1; stroke-width: 0.566961; stroke-linecap: square"/>
   </g>
   <g id="line2d_24">
    <path d="M 59.061473 48.121224 
L 60.231811 48.202766 
L 61.08773 49.195186 
L 61.935644 50.280583 
L 62.783557 51.365981 
L 63.85855 52.852373 
L 64.933544 54.338766 
L 66.008537 55.825159 
L 67.083531 57.311552 
L 67.729837 58.564258 
L 68.376143 59.816965 
L 69.02245 61.069672 
L 69.668756 62.322378 
L 69.941143 63.302617 
L 70.213531 64.282856 
L 70.485918 65.263094 
L 70.758306 66.243333 
L 71.030693 67.223572 
L 71.303081 68.20381 
L 71.575468 69.184049 
L 71.847856 70.164287 
L 72.152814 71.239989 
L 72.457771 72.315691 
L 72.762729 73.391393 
L 73.067686 74.467095 
L 73.372644 75.542797 
L 73.677601 76.618499 
L 73.982559 77.694201 
L 74.287517 78.769903 
L 74.425439 79.952006 
L 74.563361 81.13411 
L 74.701284 82.316214 
L 74.839206 83.498317 
L 74.607031 84.531508 
L 74.374855 85.564699 
L 73.532765 86.937481 
L 72.690674 88.310262 
L 72.007977 89.329531 
L 71.32528 90.3488 
" clip-path="url(#paed2a940b5)" style="fill: none; stroke: #4169e1; stroke-width: 0.566961; stroke-linecap: square"/>
   </g>
   <g id="line2d_25">
    <path d="M 60.943622 45.351795 
L 60.282759 45.78138 
L 60.128461 46.960749 
L 60.717997 47.765723 
L 61.307533 48.570697 
L 62.123058 49.626511 
L 62.938583 50.682324 
L 63.754108 51.738138 
L 64.569633 52.793952 
L 65.946672 52.871516 
L 67.323712 52.94908 
L 67.958737 53.84989 
L 68.593762 54.7507 
L 69.228787 55.65151 
L 69.863812 56.55232 
L 70.498837 57.453131 
L 71.133862 58.353941 
L 71.768887 59.254751 
L 72.403912 60.155561 
L 73.258376 61.782414 
L 73.86538 62.939658 
L 74.472383 64.096901 
L 75.079387 65.254145 
L 75.686391 66.411388 
L 76.154927 67.310209 
L 76.623462 68.209031 
L 77.091998 69.107852 
L 77.560534 70.006674 
L 78.029069 70.905495 
L 78.497605 71.804316 
L 78.96614 72.703138 
L 79.434676 73.601959 
L 80.291323 75.102522 
L 81.14797 76.603085 
L 81.90345 78.330374 
L 82.603979 79.137337 
L 83.304508 79.9443 
L 84.005037 80.751262 
L 84.705566 81.558225 
L 85.634995 82.676438 
L 86.564424 83.794651 
L 87.378129 84.912864 
L 88.191835 86.031077 
L 88.772637 87.389439 
L 88.220947 88.182978 
L 87.640145 87.870733 
L 87.349016 87.645003 
" clip-path="url(#paed2a940b5)" style="fill: none; stroke: #4169e1; stroke-width: 0.566961; stroke-linecap: square"/>
   </g>
   <g id="line2d_26">
    <path d="M 73.258376 61.782414 
L 74.556811 61.867934 
L 76.098338 62.575953 
L 77.639866 63.283972 
L 78.784731 64.4529 
L 79.929595 65.621827 
L 80.682164 66.293551 
L 81.434732 66.965274 
L 82.865631 67.607165 
L 84.296529 68.249056 
" clip-path="url(#paed2a940b5)" style="fill: none; stroke: #4169e1; stroke-width: 0.566961; stroke-linecap: square"/>
   </g>
   <g id="line2d_27">
    <path d="M 61.720936 45.182746 
L 62.316295 45.394555 
L 62.940766 46.484427 
L 63.725359 47.546456 
L 64.93136 47.942728 
L 66.137362 48.339 
L 67.727654 48.98984 
L 69.317946 49.640681 
L 70.256109 50.128936 
L 71.194272 50.617191 
L 72.132435 51.105445 
L 73.070598 51.5937 
L 74.636143 52.520489 
L 76.201689 53.447279 
L 77.763596 53.813718 
L 79.325503 54.180158 
L 81.023876 54.367107 
L 82.72225 54.554056 
L 84.420623 54.741005 
L 86.118997 54.927953 
L 87.101375 55.198806 
L 88.083753 55.469658 
L 89.066131 55.74051 
L 90.048509 56.011362 
L 91.030888 56.282214 
L 92.013266 56.553066 
L 92.995644 56.823918 
L 93.978022 57.094771 
L 94.763706 57.757793 
L 95.549391 58.420815 
L 96.335075 59.083837 
L 97.120759 59.746859 
L 98.021803 61.147484 
L 98.922847 62.548109 
L 99.028381 63.575334 
L 99.133916 64.602558 
L 99.23945 65.629783 
L 99.344984 66.657007 
L 99.344984 68.235383 
L 99.344984 69.813758 
L 99.344984 71.392134 
L 99.344984 72.97051 
L 99.30641 74.669954 
L 99.267835 76.369399 
L 99.172126 77.377979 
L 99.076418 78.386558 
L 98.980709 79.395137 
L 98.885 80.403717 
" clip-path="url(#paed2a940b5)" style="fill: none; stroke: #008000; stroke-width: 0.566961; stroke-linecap: square"/>
   </g>
   <g id="line2d_28">
    <path d="M 60.840271 45.824139 
L 60.782045 46.262674 
L 61.306077 46.955777 
L 61.886152 47.755779 
L 62.466226 48.555781 
L 64.035411 48.419547 
L 64.82437 49.857462 
L 66.253086 50.55852 
L 67.681801 51.259579 
L 68.82521 51.664303 
L 69.968619 52.069028 
L 71.213195 52.640813 
L 72.360971 53.353307 
L 73.508747 54.065801 
L 74.786075 55.230254 
L 76.063403 56.394707 
L 77.340731 57.55916 
L 78.618059 58.723612 
L 79.11589 59.486324 
L 79.78767 60.515289 
L 80.45945 61.544253 
L 81.13123 62.573218 
L 81.80301 63.602183 
L 82.42639 64.763901 
L 83.04977 65.925619 
L 83.67315 67.087338 
L 84.296529 68.249056 
L 84.849674 69.095546 
L 85.402819 69.942037 
L 85.955964 70.788528 
L 86.509109 71.635018 
L 87.059707 72.854412 
L 87.610304 74.073806 
L 88.160902 75.2932 
L 88.7115 76.512594 
L 89.464068 77.922666 
L 90.216636 79.332738 
L 91.102396 79.983827 
L 91.988156 80.634917 
L 92.873916 81.286006 
L 93.759675 81.937095 
L 95.096685 82.305026 
L 96.433695 82.672958 
L 97.362396 82.899683 
" clip-path="url(#paed2a940b5)" style="fill: none; stroke: #000000; stroke-width: 0.566961; stroke-linecap: square"/>
   </g>
   <g id="line2d_29">
    <path d="M 79.11589 59.486324 
L 79.789853 60.073025 
L 81.571563 60.334555 
L 82.750635 60.21274 
L 83.929707 60.090925 
L 85.654646 60.054132 
L 87.072444 60.184399 
L 88.567391 61.024675 
L 89.507737 62.145374 
L 90.3007 63.455135 
L 91.093662 64.764895 
L 91.886625 66.074656 
L 92.679587 67.384417 
L 93.47255 68.694178 
L 94.265512 70.003939 
L 95.058474 71.3137 
L 95.851437 72.623461 
L 96.598183 73.763053 
L 96.933709 75.098545 
L 97.269235 76.434036 
L 97.566186 77.76008 
L 97.863138 79.086125 
" clip-path="url(#paed2a940b5)" style="fill: none; stroke: #000000; stroke-width: 0.566961; stroke-linecap: square"/>
   </g>
   <g id="line2d_30">
    <path d="M 53.710523 91.849364 
L 54.622485 92.995917 
L 55.534446 94.142471 
" clip-path="url(#paed2a940b5)" style="fill: none; stroke: #008000; stroke-width: 0.566961; stroke-linecap: square"/>
   </g>
   <g id="line2d_31">
    <path d="M 47.470174 82.504903 
L 48.250218 83.67296 
L 49.030262 84.841018 
L 49.810305 86.009076 
L 50.590349 87.177133 
L 51.370392 88.345191 
L 52.150436 89.513248 
L 52.93048 90.681306 
L 53.710523 91.849364 
" clip-path="url(#paed2a940b5)" style="fill: none; stroke: #008000; stroke-width: 0.566961; stroke-linecap: square"/>
   </g>
   <g id="line2d_32">
    <path d="M 45.221203 85.139092 
L 46.221595 86.368554 
L 47.221987 87.598017 
L 48.222379 88.827479 
L 49.222771 90.056941 
L 50.223162 91.286404 
L 51.223554 92.515866 
L 52.223946 93.745329 
L 53.224338 94.974791 
" clip-path="url(#paed2a940b5)" style="fill: none; stroke: #008000; stroke-width: 0.566961; stroke-linecap: square"/>
   </g>
   <g id="line2d_33">
    <path d="M 29.450749 72.89394 
L 30.669669 74.31495 
L 31.88859 75.735961 
L 33.10751 77.156971 
L 34.326431 78.577982 
L 35.545351 79.998992 
L 36.764272 81.420002 
L 37.983192 82.841013 
L 39.202113 84.262023 
L 40.421033 85.683034 
L 41.639954 87.104044 
L 42.858874 88.525054 
L 44.077794 89.946065 
L 45.296715 91.367075 
L 46.515635 92.788086 
L 47.734556 94.209096 
L 48.953476 95.630106 
L 49.730063 96.412955 
L 50.506649 97.195803 
L 51.283236 97.978652 
L 52.059822 98.7615 
L 52.349495 99.430737 
L 52.276713 100.169583 
L 51.952104 100.4868 
" clip-path="url(#paed2a940b5)" style="fill: none; stroke: #4169e1; stroke-width: 0.566961; stroke-linecap: square"/>
   </g>
   <g id="line2d_34">
    <path d="M 25.008121 76.096931 
L 25.766603 76.862409 
L 26.525085 77.627886 
L 27.283567 78.393363 
L 28.042049 79.158841 
L 28.800531 79.924318 
L 29.559012 80.689796 
L 30.317494 81.455273 
L 31.075976 82.22075 
L 31.834458 82.986228 
L 32.59294 83.751705 
L 33.351422 84.517182 
L 34.109904 85.28266 
L 34.868385 86.048137 
L 35.626867 86.813614 
L 36.385349 87.579092 
L 37.143831 88.344569 
L 37.902313 89.110047 
L 38.660795 89.875524 
L 39.419277 90.641001 
L 40.177758 91.406479 
L 40.93624 92.171956 
L 41.694722 92.937433 
L 42.453204 93.702911 
L 43.211686 94.468388 
L 43.970168 95.233866 
L 44.72865 95.999343 
L 45.487131 96.76482 
L 46.245613 97.530298 
L 47.004095 98.295775 
L 47.762577 99.061252 
L 48.521059 99.82673 
L 49.279541 100.592207 
L 50.128182 101.401656 
L 50.976822 102.211105 
" clip-path="url(#paed2a940b5)" style="fill: none; stroke: #000000; stroke-width: 0.566961; stroke-linecap: square"/>
   </g>
   <g id="line2d_35">
    <path d="M 21.770767 77.364803 
L 20.677578 78.096191 
L 19.584389 78.827578 
L 18.4912 79.558966 
L 17.398011 80.290354 
L 16.304822 81.021742 
L 15.211633 81.753129 
L 14.118443 82.484517 
L 13.025254 83.215905 
L 12.215916 82.914599 
L 12.215916 83.982594 
L 11.095069 82.937471 
L 11.191142 84.353509 
L 10.166368 83.819511 
L 10.809763 85.306153 
L 9.40361 84.214292 
L 9.427628 85.224611 
L 9.451647 86.234931 
L 8.212893 85.027718 
L 7.592788 85.259415 
" clip-path="url(#paed2a940b5)" style="fill: none; stroke: #008000; stroke-width: 0.566961; stroke-linecap: square"/>
   </g>
   <g id="line2d_36">
    <path d="M 7.208498 92.277954 
L 8.834362 92.591255 
L 10.460226 92.904556 
L 12.08609 93.217857 
L 13.711955 93.531158 
L 15.337819 93.844459 
L 16.963683 94.15776 
L 18.589547 94.471061 
L 20.215411 94.784362 
L 21.841275 95.097663 
L 23.467139 95.410964 
L 25.093004 95.724265 
L 26.718868 96.037566 
L 28.344732 96.350867 
L 29.970596 96.664167 
L 31.59646 96.977468 
L 33.222324 97.290769 
" clip-path="url(#paed2a940b5)" style="fill: none; stroke: #4169e1; stroke-width: 0.566961; stroke-linecap: square"/>
   </g>
   <g id="text_1">
    <g id="patch_2">
     <path d="M 83.645334 63.67684 
L 88.784508 73.373531 
L 90.530122 72.448368 
L 85.390948 62.751678 
z
" style="fill: #ffffff"/>
    </g>
    <!-- Chair Lift 4 -->
    <g style="fill: #808080" transform="translate(84.039884 63.490367)rotate(-297.923255)scale(0.02 -0.02)">
     <defs>
      <path id="DejaVuSans-43" d="M 4122 4306 
L 4122 3641 
Q 3803 3938 3442 4084 
Q 3081 4231 2675 4231 
Q 1875 4231 1450 3742 
Q 1025 3253 1025 2328 
Q 1025 1406 1450 917 
Q 1875 428 2675 428 
Q 3081 428 3442 575 
Q 3803 722 4122 1019 
L 4122 359 
Q 3791 134 3420 21 
Q 3050 -91 2638 -91 
Q 1578 -91 968 557 
Q 359 1206 359 2328 
Q 359 3453 968 4101 
Q 1578 4750 2638 4750 
Q 3056 4750 3426 4639 
Q 3797 4528 4122 4306 
z
" transform="scale(0.015625)"/>
      <path id="DejaVuSans-68" d="M 3513 2113 
L 3513 0 
L 2938 0 
L 2938 2094 
Q 2938 2591 2744 2837 
Q 2550 3084 2163 3084 
Q 1697 3084 1428 2787 
Q 1159 2491 1159 1978 
L 1159 0 
L 581 0 
L 581 4863 
L 1159 4863 
L 1159 2956 
Q 1366 3272 1645 3428 
Q 1925 3584 2291 3584 
Q 2894 3584 3203 3211 
Q 3513 2838 3513 2113 
z
" transform="scale(0.015625)"/>
      <path id="DejaVuSans-61" d="M 2194 1759 
Q 1497 1759 1228 1600 
Q 959 1441 959 1056 
Q 959 750 1161 570 
Q 1363 391 1709 391 
Q 2188 391 2477 730 
Q 2766 1069 2766 1631 
L 2766 1759 
L 2194 1759 
z
M 3341 1997 
L 3341 0 
L 2766 0 
L 2766 531 
Q 2569 213 2275 61 
Q 1981 -91 1556 -91 
Q 1019 -91 701 211 
Q 384 513 384 1019 
Q 384 1609 779 1909 
Q 1175 2209 1959 2209 
L 2766 2209 
L 2766 2266 
Q 2766 2663 2505 2880 
Q 2244 3097 1772 3097 
Q 1472 3097 1187 3025 
Q 903 2953 641 2809 
L 641 3341 
Q 956 3463 1253 3523 
Q 1550 3584 1831 3584 
Q 2591 3584 2966 3190 
Q 3341 2797 3341 1997 
z
" transform="scale(0.015625)"/>
      <path id="DejaVuSans-69" d="M 603 3500 
L 1178 3500 
L 1178 0 
L 603 0 
L 603 3500 
z
M 603 4863 
L 1178 4863 
L 1178 4134 
L 603 4134 
L 603 4863 
z
" transform="scale(0.015625)"/>
      <path id="DejaVuSans-72" d="M 2631 2963 
Q 2534 3019 2420 3045 
Q 2306 3072 2169 3072 
Q 1681 3072 1420 2755 
Q 1159 2438 1159 1844 
L 1159 0 
L 581 0 
L 581 3500 
L 1159 3500 
L 1159 2956 
Q 1341 3275 1631 3429 
Q 1922 3584 2338 3584 
Q 2397 3584 2469 3576 
Q 2541 3569 2628 3553 
L 2631 2963 
z
" transform="scale(0.015625)"/>
      <path id="DejaVuSans-20" transform="scale(0.015625)"/>
      <path id="DejaVuSans-4c" d="M 628 4666 
L 1259 4666 
L 1259 531 
L 3531 531 
L 3531 0 
L 628 0 
L 628 4666 
z
" transform="scale(0.015625)"/>
      <path id="DejaVuSans-66" d="M 2375 4863 
L 2375 4384 
L 1825 4384 
Q 1516 4384 1395 4259 
Q 1275 4134 1275 3809 
L 1275 3500 
L 2222 3500 
L 2222 3053 
L 1275 3053 
L 1275 0 
L 697 0 
L 697 3053 
L 147 3053 
L 147 3500 
L 697 3500 
L 697 3744 
Q 697 4328 969 4595 
Q 1241 4863 1831 4863 
L 2375 4863 
z
" transform="scale(0.015625)"/>
      <path id="DejaVuSans-74" d="M 1172 4494 
L 1172 3500 
L 2356 3500 
L 2356 3053 
L 1172 3053 
L 1172 1153 
Q 1172 725 1289 603 
Q 1406 481 1766 481 
L 2356 481 
L 2356 0 
L 1766 0 
Q 1100 0 847 248 
Q 594 497 594 1153 
L 594 3053 
L 172 3053 
L 172 3500 
L 594 3500 
L 594 4494 
L 1172 4494 
z
" transform="scale(0.015625)"/>
      <path id="DejaVuSans-34" d="M 2419 4116 
L 825 1625 
L 2419 1625 
L 2419 4116 
z
M 2253 4666 
L 3047 4666 
L 3047 1625 
L 3713 1625 
L 3713 1100 
L 3047 1100 
L 3047 0 
L 2419 0 
L 2419 1100 
L 313 1100 
L 313 1709 
L 2253 4666 
z
" transform="scale(0.015625)"/>
     </defs>
     <use xlink:href="#DejaVuSans-43"/>
     <use xlink:href="#DejaVuSans-68" x="69.824219"/>
     <use xlink:href="#DejaVuSans-61" x="133.203125"/>
     <use xlink:href="#DejaVuSans-69" x="194.482422"/>
     <use xlink:href="#DejaVuSans-72" x="222.265625"/>
     <use xlink:href="#DejaVuSans-20" x="263.378906"/>
     <use xlink:href="#DejaVuSans-4c" x="295.166016"/>
     <use xlink:href="#DejaVuSans-69" x="350.878906"/>
     <use xlink:href="#DejaVuSans-66" x="378.662109"/>
     <use xlink:href="#DejaVuSans-74" x="412.117188"/>
     <use xlink:href="#DejaVuSans-20" x="451.326172"/>
     <use xlink:href="#DejaVuSans-34" x="483.113281"/>
    </g>
   </g>
   <g id="text_2">
    <g id="patch_3">
     <path d="M 75.800113 69.664146 
L 79.972659 79.814356 
L 81.799917 79.063207 
L 77.627371 68.912997 
z
" style="fill: #ffffff"/>
    </g>
    <!-- Chair Lift 3 -->
    <g style="fill: #808080" transform="translate(76.210917 69.516897)rotate(-292.346571)scale(0.02 -0.02)">
     <defs>
      <path id="DejaVuSans-33" d="M 2597 2516 
Q 3050 2419 3304 2112 
Q 3559 1806 3559 1356 
Q 3559 666 3084 287 
Q 2609 -91 1734 -91 
Q 1441 -91 1130 -33 
Q 819 25 488 141 
L 488 750 
Q 750 597 1062 519 
Q 1375 441 1716 441 
Q 2309 441 2620 675 
Q 2931 909 2931 1356 
Q 2931 1769 2642 2001 
Q 2353 2234 1838 2234 
L 1294 2234 
L 1294 2753 
L 1863 2753 
Q 2328 2753 2575 2939 
Q 2822 3125 2822 3475 
Q 2822 3834 2567 4026 
Q 2313 4219 1838 4219 
Q 1578 4219 1281 4162 
Q 984 4106 628 3988 
L 628 4550 
Q 988 4650 1302 4700 
Q 1616 4750 1894 4750 
Q 2613 4750 3031 4423 
Q 3450 4097 3450 3541 
Q 3450 3153 3228 2886 
Q 3006 2619 2597 2516 
z
" transform="scale(0.015625)"/>
     </defs>
     <use xlink:href="#DejaVuSans-43"/>
     <use xlink:href="#DejaVuSans-68" x="69.824219"/>
     <use xlink:href="#DejaVuSans-61" x="133.203125"/>
     <use xlink:href="#DejaVuSans-69" x="194.482422"/>
     <use xlink:href="#DejaVuSans-72" x="222.265625"/>
     <use xlink:href="#DejaVuSans-20" x="263.378906"/>
     <use xlink:href="#DejaVuSans-4c" x="295.166016"/>
     <use xlink:href="#DejaVuSans-69" x="350.878906"/>
     <use xlink:href="#DejaVuSans-66" x="378.662109"/>
     <use xlink:href="#DejaVuSans-74" x="412.117188"/>
     <use xlink:href="#DejaVuSans-20" x="451.326172"/>
     <use xlink:href="#DejaVuSans-33" x="483.113281"/>
    </g>
   </g>
   <g id="text_3">
    <g id="patch_4">
     <path d="M 63.512936 74.078461 
L 65.151793 84.929777 
L 67.105264 84.634747 
L 65.466408 73.783431 
z
" style="fill: #ffffff"/>
    </g>
    <!-- Chair Lift 2 -->
    <g style="fill: #808080" transform="translate(63.946972 74.033136)rotate(-278.588382)scale(0.02 -0.02)">
     <defs>
      <path id="DejaVuSans-32" d="M 1228 531 
L 3431 531 
L 3431 0 
L 469 0 
L 469 531 
Q 828 903 1448 1529 
Q 2069 2156 2228 2338 
Q 2531 2678 2651 2914 
Q 2772 3150 2772 3378 
Q 2772 3750 2511 3984 
Q 2250 4219 1831 4219 
Q 1534 4219 1204 4116 
Q 875 4013 500 3803 
L 500 4441 
Q 881 4594 1212 4672 
Q 1544 4750 1819 4750 
Q 2544 4750 2975 4387 
Q 3406 4025 3406 3419 
Q 3406 3131 3298 2873 
Q 3191 2616 2906 2266 
Q 2828 2175 2409 1742 
Q 1991 1309 1228 531 
z
" transform="scale(0.015625)"/>
     </defs>
     <use xlink:href="#DejaVuSans-43"/>
     <use xlink:href="#DejaVuSans-68" x="69.824219"/>
     <use xlink:href="#DejaVuSans-61" x="133.203125"/>
     <use xlink:href="#DejaVuSans-69" x="194.482422"/>
     <use xlink:href="#DejaVuSans-72" x="222.265625"/>
     <use xlink:href="#DejaVuSans-20" x="263.378906"/>
     <use xlink:href="#DejaVuSans-4c" x="295.166016"/>
     <use xlink:href="#DejaVuSans-69" x="350.878906"/>
     <use xlink:href="#DejaVuSans-66" x="378.662109"/>
     <use xlink:href="#DejaVuSans-74" x="412.117188"/>
     <use xlink:href="#DejaVuSans-20" x="451.326172"/>
     <use xlink:href="#DejaVuSans-32" x="483.113281"/>
    </g>
   </g>
   <g id="text_4">
    <g id="patch_5">
     <path d="M 38.963533 87.087839 
L 44.748991 96.413362 
L 46.427787 95.371855 
L 40.642329 86.046331 
z
" style="fill: #ffffff"/>
    </g>
    <!-- Chair Lift 1 -->
    <g style="fill: #808080" transform="translate(39.344517 86.875017)rotate(-301.815032)scale(0.02 -0.02)">
     <defs>
      <path id="DejaVuSans-31" d="M 794 531 
L 1825 531 
L 1825 4091 
L 703 3866 
L 703 4441 
L 1819 4666 
L 2450 4666 
L 2450 531 
L 3481 531 
L 3481 0 
L 794 0 
L 794 531 
z
" transform="scale(0.015625)"/>
     </defs>
     <use xlink:href="#DejaVuSans-43"/>
     <use xlink:href="#DejaVuSans-68" x="69.824219"/>
     <use xlink:href="#DejaVuSans-61" x="133.203125"/>
     <use xlink:href="#DejaVuSans-69" x="194.482422"/>
     <use xlink:href="#DejaVuSans-72" x="222.265625"/>
     <use xlink:href="#DejaVuSans-20" x="263.378906"/>
     <use xlink:href="#DejaVuSans-4c" x="295.166016"/>
     <use xlink:href="#DejaVuSans-69" x="350.878906"/>
     <use xlink:href="#DejaVuSans-66" x="378.662109"/>
     <use xlink:href="#DejaVuSans-74" x="412.117188"/>
     <use xlink:href="#DejaVuSans-20" x="451.326172"/>
     <use xlink:href="#DejaVuSans-31" x="483.113281"/>
    </g>
   </g>
   <g id="text_5">
    <g id="patch_6">
     <path d="M 62.13931 27.983543 
L 83.268348 24.292197 
L 82.928347 22.346049 
L 61.799309 26.037395 
z
" style="fill: #ffffff"/>
    </g>
    <!-- Northern Route 11.6° -->
    <g style="fill: #008000" transform="translate(62.083988 27.550668)rotate(-9.909839)scale(0.02 -0.02)">
     <defs>
      <path id="DejaVuSans-4e" d="M 628 4666 
L 1478 4666 
L 3547 763 
L 3547 4666 
L 4159 4666 
L 4159 0 
L 3309 0 
L 1241 3903 
L 1241 0 
L 628 0 
L 628 4666 
z
" transform="scale(0.015625)"/>
      <path id="DejaVuSans-6f" d="M 1959 3097 
Q 1497 3097 1228 2736 
Q 959 2375 959 1747 
Q 959 1119 1226 758 
Q 1494 397 1959 397 
Q 2419 397 2687 759 
Q 2956 1122 2956 1747 
Q 2956 2369 2687 2733 
Q 2419 3097 1959 3097 
z
M 1959 3584 
Q 2709 3584 3137 3096 
Q 3566 2609 3566 1747 
Q 3566 888 3137 398 
Q 2709 -91 1959 -91 
Q 1206 -91 779 398 
Q 353 888 353 1747 
Q 353 2609 779 3096 
Q 1206 3584 1959 3584 
z
" transform="scale(0.015625)"/>
      <path id="DejaVuSans-65" d="M 3597 1894 
L 3597 1613 
L 953 1613 
Q 991 1019 1311 708 
Q 1631 397 2203 397 
Q 2534 397 2845 478 
Q 3156 559 3463 722 
L 3463 178 
Q 3153 47 2828 -22 
Q 2503 -91 2169 -91 
Q 1331 -91 842 396 
Q 353 884 353 1716 
Q 353 2575 817 3079 
Q 1281 3584 2069 3584 
Q 2775 3584 3186 3129 
Q 3597 2675 3597 1894 
z
M 3022 2063 
Q 3016 2534 2758 2815 
Q 2500 3097 2075 3097 
Q 1594 3097 1305 2825 
Q 1016 2553 972 2059 
L 3022 2063 
z
" transform="scale(0.015625)"/>
      <path id="DejaVuSans-6e" d="M 3513 2113 
L 3513 0 
L 2938 0 
L 2938 2094 
Q 2938 2591 2744 2837 
Q 2550 3084 2163 3084 
Q 1697 3084 1428 2787 
Q 1159 2491 1159 1978 
L 1159 0 
L 581 0 
L 581 3500 
L 1159 3500 
L 1159 2956 
Q 1366 3272 1645 3428 
Q 1925 3584 2291 3584 
Q 2894 3584 3203 3211 
Q 3513 2838 3513 2113 
z
" transform="scale(0.015625)"/>
      <path id="DejaVuSans-52" d="M 2841 2188 
Q 3044 2119 3236 1894 
Q 3428 1669 3622 1275 
L 4263 0 
L 3584 0 
L 2988 1197 
Q 2756 1666 2539 1819 
Q 2322 1972 1947 1972 
L 1259 1972 
L 1259 0 
L 628 0 
L 628 4666 
L 2053 4666 
Q 2853 4666 3247 4331 
Q 3641 3997 3641 3322 
Q 3641 2881 3436 2590 
Q 3231 2300 2841 2188 
z
M 1259 4147 
L 1259 2491 
L 2053 2491 
Q 2509 2491 2742 2702 
Q 2975 2913 2975 3322 
Q 2975 3731 2742 3939 
Q 2509 4147 2053 4147 
L 1259 4147 
z
" transform="scale(0.015625)"/>
      <path id="DejaVuSans-75" d="M 544 1381 
L 544 3500 
L 1119 3500 
L 1119 1403 
Q 1119 906 1312 657 
Q 1506 409 1894 409 
Q 2359 409 2629 706 
Q 2900 1003 2900 1516 
L 2900 3500 
L 3475 3500 
L 3475 0 
L 2900 0 
L 2900 538 
Q 2691 219 2414 64 
Q 2138 -91 1772 -91 
Q 1169 -91 856 284 
Q 544 659 544 1381 
z
M 1991 3584 
L 1991 3584 
z
" transform="scale(0.015625)"/>
      <path id="DejaVuSans-2e" d="M 684 794 
L 1344 794 
L 1344 0 
L 684 0 
L 684 794 
z
" transform="scale(0.015625)"/>
      <path id="DejaVuSans-36" d="M 2113 2584 
Q 1688 2584 1439 2293 
Q 1191 2003 1191 1497 
Q 1191 994 1439 701 
Q 1688 409 2113 409 
Q 2538 409 2786 701 
Q 3034 994 3034 1497 
Q 3034 2003 2786 2293 
Q 2538 2584 2113 2584 
z
M 3366 4563 
L 3366 3988 
Q 3128 4100 2886 4159 
Q 2644 4219 2406 4219 
Q 1781 4219 1451 3797 
Q 1122 3375 1075 2522 
Q 1259 2794 1537 2939 
Q 1816 3084 2150 3084 
Q 2853 3084 3261 2657 
Q 3669 2231 3669 1497 
Q 3669 778 3244 343 
Q 2819 -91 2113 -91 
Q 1303 -91 875 529 
Q 447 1150 447 2328 
Q 447 3434 972 4092 
Q 1497 4750 2381 4750 
Q 2619 4750 2861 4703 
Q 3103 4656 3366 4563 
z
" transform="scale(0.015625)"/>
      <path id="DejaVuSans-b0" d="M 1600 4347 
Q 1350 4347 1178 4173 
Q 1006 4000 1006 3750 
Q 1006 3503 1178 3333 
Q 1350 3163 1600 3163 
Q 1850 3163 2022 3333 
Q 2194 3503 2194 3750 
Q 2194 3997 2020 4172 
Q 1847 4347 1600 4347 
z
M 1600 4750 
Q 1800 4750 1984 4673 
Q 2169 4597 2303 4453 
Q 2447 4313 2519 4134 
Q 2591 3956 2591 3750 
Q 2591 3338 2302 3052 
Q 2013 2766 1594 2766 
Q 1172 2766 890 3047 
Q 609 3328 609 3750 
Q 609 4169 896 4459 
Q 1184 4750 1600 4750 
z
" transform="scale(0.015625)"/>
     </defs>
     <use xlink:href="#DejaVuSans-4e"/>
     <use xlink:href="#DejaVuSans-6f" x="74.804688"/>
     <use xlink:href="#DejaVuSans-72" x="135.986328"/>
     <use xlink:href="#DejaVuSans-74" x="177.099609"/>
     <use xlink:href="#DejaVuSans-68" x="216.308594"/>
     <use xlink:href="#DejaVuSans-65" x="279.6875"/>
     <use xlink:href="#DejaVuSans-72" x="341.210938"/>
     <use xlink:href="#DejaVuSans-6e" x="380.574219"/>
     <use xlink:href="#DejaVuSans-20" x="443.953125"/>
     <use xlink:href="#DejaVuSans-52" x="475.740234"/>
     <use xlink:href="#DejaVuSans-6f" x="540.722656"/>
     <use xlink:href="#DejaVuSans-75" x="601.904297"/>
     <use xlink:href="#DejaVuSans-74" x="665.283203"/>
     <use xlink:href="#DejaVuSans-65" x="704.492188"/>
     <use xlink:href="#DejaVuSans-20" x="766.015625"/>
     <use xlink:href="#DejaVuSans-31" x="797.802734"/>
     <use xlink:href="#DejaVuSans-31" x="861.425781"/>
     <use xlink:href="#DejaVuSans-2e" x="925.048828"/>
     <use xlink:href="#DejaVuSans-36" x="956.835938"/>
     <use xlink:href="#DejaVuSans-b0" x="1020.458984"/>
    </g>
   </g>
   <g id="text_6">
    <g id="patch_7">
     <path d="M 71.742554 27.947053 
L 83.943498 46.453257 
L 85.592912 45.365816 
L 73.391968 26.859612 
z
" style="fill: #ffffff"/>
    </g>
    <!-- Upper Easy Rider 9.8° -->
    <g style="fill: #008000" transform="translate(72.117519 27.723798)rotate(-303.39644)scale(0.02 -0.02)">
     <defs>
      <path id="DejaVuSans-55" d="M 556 4666 
L 1191 4666 
L 1191 1831 
Q 1191 1081 1462 751 
Q 1734 422 2344 422 
Q 2950 422 3222 751 
Q 3494 1081 3494 1831 
L 3494 4666 
L 4128 4666 
L 4128 1753 
Q 4128 841 3676 375 
Q 3225 -91 2344 -91 
Q 1459 -91 1007 375 
Q 556 841 556 1753 
L 556 4666 
z
" transform="scale(0.015625)"/>
      <path id="DejaVuSans-70" d="M 1159 525 
L 1159 -1331 
L 581 -1331 
L 581 3500 
L 1159 3500 
L 1159 2969 
Q 1341 3281 1617 3432 
Q 1894 3584 2278 3584 
Q 2916 3584 3314 3078 
Q 3713 2572 3713 1747 
Q 3713 922 3314 415 
Q 2916 -91 2278 -91 
Q 1894 -91 1617 61 
Q 1341 213 1159 525 
z
M 3116 1747 
Q 3116 2381 2855 2742 
Q 2594 3103 2138 3103 
Q 1681 3103 1420 2742 
Q 1159 2381 1159 1747 
Q 1159 1113 1420 752 
Q 1681 391 2138 391 
Q 2594 391 2855 752 
Q 3116 1113 3116 1747 
z
" transform="scale(0.015625)"/>
      <path id="DejaVuSans-45" d="M 628 4666 
L 3578 4666 
L 3578 4134 
L 1259 4134 
L 1259 2753 
L 3481 2753 
L 3481 2222 
L 1259 2222 
L 1259 531 
L 3634 531 
L 3634 0 
L 628 0 
L 628 4666 
z
" transform="scale(0.015625)"/>
      <path id="DejaVuSans-73" d="M 2834 3397 
L 2834 2853 
Q 2591 2978 2328 3040 
Q 2066 3103 1784 3103 
Q 1356 3103 1142 2972 
Q 928 2841 928 2578 
Q 928 2378 1081 2264 
Q 1234 2150 1697 2047 
L 1894 2003 
Q 2506 1872 2764 1633 
Q 3022 1394 3022 966 
Q 3022 478 2636 193 
Q 2250 -91 1575 -91 
Q 1294 -91 989 -36 
Q 684 19 347 128 
L 347 722 
Q 666 556 975 473 
Q 1284 391 1588 391 
Q 1994 391 2212 530 
Q 2431 669 2431 922 
Q 2431 1156 2273 1281 
Q 2116 1406 1581 1522 
L 1381 1569 
Q 847 1681 609 1914 
Q 372 2147 372 2553 
Q 372 3047 722 3315 
Q 1072 3584 1716 3584 
Q 2034 3584 2315 3537 
Q 2597 3491 2834 3397 
z
" transform="scale(0.015625)"/>
      <path id="DejaVuSans-79" d="M 2059 -325 
Q 1816 -950 1584 -1140 
Q 1353 -1331 966 -1331 
L 506 -1331 
L 506 -850 
L 844 -850 
Q 1081 -850 1212 -737 
Q 1344 -625 1503 -206 
L 1606 56 
L 191 3500 
L 800 3500 
L 1894 763 
L 2988 3500 
L 3597 3500 
L 2059 -325 
z
" transform="scale(0.015625)"/>
      <path id="DejaVuSans-64" d="M 2906 2969 
L 2906 4863 
L 3481 4863 
L 3481 0 
L 2906 0 
L 2906 525 
Q 2725 213 2448 61 
Q 2172 -91 1784 -91 
Q 1150 -91 751 415 
Q 353 922 353 1747 
Q 353 2572 751 3078 
Q 1150 3584 1784 3584 
Q 2172 3584 2448 3432 
Q 2725 3281 2906 2969 
z
M 947 1747 
Q 947 1113 1208 752 
Q 1469 391 1925 391 
Q 2381 391 2643 752 
Q 2906 1113 2906 1747 
Q 2906 2381 2643 2742 
Q 2381 3103 1925 3103 
Q 1469 3103 1208 2742 
Q 947 2381 947 1747 
z
" transform="scale(0.015625)"/>
      <path id="DejaVuSans-39" d="M 703 97 
L 703 672 
Q 941 559 1184 500 
Q 1428 441 1663 441 
Q 2288 441 2617 861 
Q 2947 1281 2994 2138 
Q 2813 1869 2534 1725 
Q 2256 1581 1919 1581 
Q 1219 1581 811 2004 
Q 403 2428 403 3163 
Q 403 3881 828 4315 
Q 1253 4750 1959 4750 
Q 2769 4750 3195 4129 
Q 3622 3509 3622 2328 
Q 3622 1225 3098 567 
Q 2575 -91 1691 -91 
Q 1453 -91 1209 -44 
Q 966 3 703 97 
z
M 1959 2075 
Q 2384 2075 2632 2365 
Q 2881 2656 2881 3163 
Q 2881 3666 2632 3958 
Q 2384 4250 1959 4250 
Q 1534 4250 1286 3958 
Q 1038 3666 1038 3163 
Q 1038 2656 1286 2365 
Q 1534 2075 1959 2075 
z
" transform="scale(0.015625)"/>
      <path id="DejaVuSans-38" d="M 2034 2216 
Q 1584 2216 1326 1975 
Q 1069 1734 1069 1313 
Q 1069 891 1326 650 
Q 1584 409 2034 409 
Q 2484 409 2743 651 
Q 3003 894 3003 1313 
Q 3003 1734 2745 1975 
Q 2488 2216 2034 2216 
z
M 1403 2484 
Q 997 2584 770 2862 
Q 544 3141 544 3541 
Q 544 4100 942 4425 
Q 1341 4750 2034 4750 
Q 2731 4750 3128 4425 
Q 3525 4100 3525 3541 
Q 3525 3141 3298 2862 
Q 3072 2584 2669 2484 
Q 3125 2378 3379 2068 
Q 3634 1759 3634 1313 
Q 3634 634 3220 271 
Q 2806 -91 2034 -91 
Q 1263 -91 848 271 
Q 434 634 434 1313 
Q 434 1759 690 2068 
Q 947 2378 1403 2484 
z
M 1172 3481 
Q 1172 3119 1398 2916 
Q 1625 2713 2034 2713 
Q 2441 2713 2670 2916 
Q 2900 3119 2900 3481 
Q 2900 3844 2670 4047 
Q 2441 4250 2034 4250 
Q 1625 4250 1398 4047 
Q 1172 3844 1172 3481 
z
" transform="scale(0.015625)"/>
     </defs>
     <use xlink:href="#DejaVuSans-55"/>
     <use xlink:href="#DejaVuSans-70" x="73.193359"/>
     <use xlink:href="#DejaVuSans-70" x="136.669922"/>
     <use xlink:href="#DejaVuSans-65" x="200.146484"/>
     <use xlink:href="#DejaVuSans-72" x="261.669922"/>
     <use xlink:href="#DejaVuSans-20" x="302.783203"/>
     <use xlink:href="#DejaVuSans-45" x="334.570312"/>
     <use xlink:href="#DejaVuSans-61" x="397.753906"/>
     <use xlink:href="#DejaVuSans-73" x="459.033203"/>
     <use xlink:href="#DejaVuSans-79" x="511.132812"/>
     <use xlink:href="#DejaVuSans-20" x="570.3125"/>
     <use xlink:href="#DejaVuSans-52" x="602.099609"/>
     <use xlink:href="#DejaVuSans-69" x="671.582031"/>
     <use xlink:href="#DejaVuSans-64" x="699.365234"/>
     <use xlink:href="#DejaVuSans-65" x="762.841797"/>
     <use xlink:href="#DejaVuSans-72" x="824.365234"/>
     <use xlink:href="#DejaVuSans-20" x="865.478516"/>
     <use xlink:href="#DejaVuSans-39" x="897.265625"/>
     <use xlink:href="#DejaVuSans-2e" x="960.888672"/>
     <use xlink:href="#DejaVuSans-38" x="992.675781"/>
     <use xlink:href="#DejaVuSans-b0" x="1056.298828"/>
    </g>
   </g>
   <g id="text_7">
    <g id="patch_8">
     <path d="M 95.594156 48.2563 
L 105.606205 69.37786 
L 107.39142 68.531632 
L 97.379371 47.410072 
z
" style="fill: #ffffff"/>
    </g>
    <!-- Lower Easy Rider 12.1° -->
    <g style="fill: #008000" transform="translate(95.996645 48.087645)rotate(-295.361902)scale(0.02 -0.02)">
     <defs>
      <path id="DejaVuSans-77" d="M 269 3500 
L 844 3500 
L 1563 769 
L 2278 3500 
L 2956 3500 
L 3675 769 
L 4391 3500 
L 4966 3500 
L 4050 0 
L 3372 0 
L 2619 2869 
L 1863 0 
L 1184 0 
L 269 3500 
z
" transform="scale(0.015625)"/>
     </defs>
     <use xlink:href="#DejaVuSans-4c"/>
     <use xlink:href="#DejaVuSans-6f" x="53.962891"/>
     <use xlink:href="#DejaVuSans-77" x="115.144531"/>
     <use xlink:href="#DejaVuSans-65" x="196.931641"/>
     <use xlink:href="#DejaVuSans-72" x="258.455078"/>
     <use xlink:href="#DejaVuSans-20" x="299.568359"/>
     <use xlink:href="#DejaVuSans-45" x="331.355469"/>
     <use xlink:href="#DejaVuSans-61" x="394.539062"/>
     <use xlink:href="#DejaVuSans-73" x="455.818359"/>
     <use xlink:href="#DejaVuSans-79" x="507.917969"/>
     <use xlink:href="#DejaVuSans-20" x="567.097656"/>
     <use xlink:href="#DejaVuSans-52" x="598.884766"/>
     <use xlink:href="#DejaVuSans-69" x="668.367188"/>
     <use xlink:href="#DejaVuSans-64" x="696.150391"/>
     <use xlink:href="#DejaVuSans-65" x="759.626953"/>
     <use xlink:href="#DejaVuSans-72" x="821.150391"/>
     <use xlink:href="#DejaVuSans-20" x="862.263672"/>
     <use xlink:href="#DejaVuSans-31" x="894.050781"/>
     <use xlink:href="#DejaVuSans-32" x="957.673828"/>
     <use xlink:href="#DejaVuSans-2e" x="1021.296875"/>
     <use xlink:href="#DejaVuSans-31" x="1053.083984"/>
     <use xlink:href="#DejaVuSans-b0" x="1116.707031"/>
    </g>
   </g>
   <g id="text_8">
    <g id="patch_9">
     <path d="M 71.845796 44.43059 
L 86.550891 50.84245 
L 87.340523 49.031491 
L 72.635428 42.61963 
z
" style="fill: #ffffff"/>
    </g>
    <!-- Broadway 17.8° -->
    <g style="fill: #4169e1" transform="translate(72.038367 44.038981)rotate(-336.441362)scale(0.02 -0.02)">
     <defs>
      <path id="DejaVuSans-42" d="M 1259 2228 
L 1259 519 
L 2272 519 
Q 2781 519 3026 730 
Q 3272 941 3272 1375 
Q 3272 1813 3026 2020 
Q 2781 2228 2272 2228 
L 1259 2228 
z
M 1259 4147 
L 1259 2741 
L 2194 2741 
Q 2656 2741 2882 2914 
Q 3109 3088 3109 3444 
Q 3109 3797 2882 3972 
Q 2656 4147 2194 4147 
L 1259 4147 
z
M 628 4666 
L 2241 4666 
Q 2963 4666 3353 4366 
Q 3744 4066 3744 3513 
Q 3744 3084 3544 2831 
Q 3344 2578 2956 2516 
Q 3422 2416 3680 2098 
Q 3938 1781 3938 1306 
Q 3938 681 3513 340 
Q 3088 0 2303 0 
L 628 0 
L 628 4666 
z
" transform="scale(0.015625)"/>
      <path id="DejaVuSans-37" d="M 525 4666 
L 3525 4666 
L 3525 4397 
L 1831 0 
L 1172 0 
L 2766 4134 
L 525 4134 
L 525 4666 
z
" transform="scale(0.015625)"/>
     </defs>
     <use xlink:href="#DejaVuSans-42"/>
     <use xlink:href="#DejaVuSans-72" x="68.603516"/>
     <use xlink:href="#DejaVuSans-6f" x="107.466797"/>
     <use xlink:href="#DejaVuSans-61" x="168.648438"/>
     <use xlink:href="#DejaVuSans-64" x="229.927734"/>
     <use xlink:href="#DejaVuSans-77" x="293.404297"/>
     <use xlink:href="#DejaVuSans-61" x="375.191406"/>
     <use xlink:href="#DejaVuSans-79" x="436.470703"/>
     <use xlink:href="#DejaVuSans-20" x="495.650391"/>
     <use xlink:href="#DejaVuSans-31" x="527.4375"/>
     <use xlink:href="#DejaVuSans-37" x="591.060547"/>
     <use xlink:href="#DejaVuSans-2e" x="654.683594"/>
     <use xlink:href="#DejaVuSans-38" x="686.470703"/>
     <use xlink:href="#DejaVuSans-b0" x="750.09375"/>
    </g>
   </g>
   <g id="text_9">
    <g id="patch_10">
     <path d="M 48.892758 64.941019 
L 53.82042 42.444374 
L 51.890549 42.021655 
L 46.962886 64.5183 
z
" style="fill: #ffffff"/>
    </g>
    <!-- Uppser Sunshine 12.8° -->
    <g style="fill: #008000" transform="translate(48.471195 64.828206)rotate(-77.645062)scale(0.02 -0.02)">
     <defs>
      <path id="DejaVuSans-53" d="M 3425 4513 
L 3425 3897 
Q 3066 4069 2747 4153 
Q 2428 4238 2131 4238 
Q 1616 4238 1336 4038 
Q 1056 3838 1056 3469 
Q 1056 3159 1242 3001 
Q 1428 2844 1947 2747 
L 2328 2669 
Q 3034 2534 3370 2195 
Q 3706 1856 3706 1288 
Q 3706 609 3251 259 
Q 2797 -91 1919 -91 
Q 1588 -91 1214 -16 
Q 841 59 441 206 
L 441 856 
Q 825 641 1194 531 
Q 1563 422 1919 422 
Q 2459 422 2753 634 
Q 3047 847 3047 1241 
Q 3047 1584 2836 1778 
Q 2625 1972 2144 2069 
L 1759 2144 
Q 1053 2284 737 2584 
Q 422 2884 422 3419 
Q 422 4038 858 4394 
Q 1294 4750 2059 4750 
Q 2388 4750 2728 4690 
Q 3069 4631 3425 4513 
z
" transform="scale(0.015625)"/>
     </defs>
     <use xlink:href="#DejaVuSans-55"/>
     <use xlink:href="#DejaVuSans-70" x="73.193359"/>
     <use xlink:href="#DejaVuSans-70" x="136.669922"/>
     <use xlink:href="#DejaVuSans-73" x="200.146484"/>
     <use xlink:href="#DejaVuSans-65" x="252.246094"/>
     <use xlink:href="#DejaVuSans-72" x="313.769531"/>
     <use xlink:href="#DejaVuSans-20" x="354.882812"/>
     <use xlink:href="#DejaVuSans-53" x="386.669922"/>
     <use xlink:href="#DejaVuSans-75" x="450.146484"/>
     <use xlink:href="#DejaVuSans-6e" x="513.525391"/>
     <use xlink:href="#DejaVuSans-73" x="576.904297"/>
     <use xlink:href="#DejaVuSans-68" x="629.003906"/>
     <use xlink:href="#DejaVuSans-69" x="692.382812"/>
     <use xlink:href="#DejaVuSans-6e" x="720.166016"/>
     <use xlink:href="#DejaVuSans-65" x="783.544922"/>
     <use xlink:href="#DejaVuSans-20" x="845.068359"/>
     <use xlink:href="#DejaVuSans-31" x="876.855469"/>
     <use xlink:href="#DejaVuSans-32" x="940.478516"/>
     <use xlink:href="#DejaVuSans-2e" x="1004.101562"/>
     <use xlink:href="#DejaVuSans-38" x="1035.888672"/>
     <use xlink:href="#DejaVuSans-b0" x="1099.511719"/>
    </g>
   </g>
   <g id="text_10">
    <g id="patch_11">
     <path d="M 42.089539 54.829525 
L 49.152996 35.116477 
L 47.293158 34.450072 
L 40.229701 54.163119 
z
" style="fill: #ffffff"/>
    </g>
    <!-- Quarter Rabbit 11.3° -->
    <g style="fill: #008000" transform="translate(41.685897 54.66365)rotate(-70.286696)scale(0.02 -0.02)">
     <defs>
      <path id="DejaVuSans-51" d="M 2522 4238 
Q 1834 4238 1429 3725 
Q 1025 3213 1025 2328 
Q 1025 1447 1429 934 
Q 1834 422 2522 422 
Q 3209 422 3611 934 
Q 4013 1447 4013 2328 
Q 4013 3213 3611 3725 
Q 3209 4238 2522 4238 
z
M 3406 84 
L 4238 -825 
L 3475 -825 
L 2784 -78 
Q 2681 -84 2626 -87 
Q 2572 -91 2522 -91 
Q 1538 -91 948 567 
Q 359 1225 359 2328 
Q 359 3434 948 4092 
Q 1538 4750 2522 4750 
Q 3503 4750 4090 4092 
Q 4678 3434 4678 2328 
Q 4678 1516 4351 937 
Q 4025 359 3406 84 
z
" transform="scale(0.015625)"/>
      <path id="DejaVuSans-62" d="M 3116 1747 
Q 3116 2381 2855 2742 
Q 2594 3103 2138 3103 
Q 1681 3103 1420 2742 
Q 1159 2381 1159 1747 
Q 1159 1113 1420 752 
Q 1681 391 2138 391 
Q 2594 391 2855 752 
Q 3116 1113 3116 1747 
z
M 1159 2969 
Q 1341 3281 1617 3432 
Q 1894 3584 2278 3584 
Q 2916 3584 3314 3078 
Q 3713 2572 3713 1747 
Q 3713 922 3314 415 
Q 2916 -91 2278 -91 
Q 1894 -91 1617 61 
Q 1341 213 1159 525 
L 1159 0 
L 581 0 
L 581 4863 
L 1159 4863 
L 1159 2969 
z
" transform="scale(0.015625)"/>
     </defs>
     <use xlink:href="#DejaVuSans-51"/>
     <use xlink:href="#DejaVuSans-75" x="78.710938"/>
     <use xlink:href="#DejaVuSans-61" x="142.089844"/>
     <use xlink:href="#DejaVuSans-72" x="203.369141"/>
     <use xlink:href="#DejaVuSans-74" x="244.482422"/>
     <use xlink:href="#DejaVuSans-65" x="283.691406"/>
     <use xlink:href="#DejaVuSans-72" x="345.214844"/>
     <use xlink:href="#DejaVuSans-20" x="386.328125"/>
     <use xlink:href="#DejaVuSans-52" x="418.115234"/>
     <use xlink:href="#DejaVuSans-61" x="485.347656"/>
     <use xlink:href="#DejaVuSans-62" x="546.626953"/>
     <use xlink:href="#DejaVuSans-62" x="610.103516"/>
     <use xlink:href="#DejaVuSans-69" x="673.580078"/>
     <use xlink:href="#DejaVuSans-74" x="701.363281"/>
     <use xlink:href="#DejaVuSans-20" x="740.572266"/>
     <use xlink:href="#DejaVuSans-31" x="772.359375"/>
     <use xlink:href="#DejaVuSans-31" x="835.982422"/>
     <use xlink:href="#DejaVuSans-2e" x="899.605469"/>
     <use xlink:href="#DejaVuSans-33" x="931.392578"/>
     <use xlink:href="#DejaVuSans-b0" x="995.015625"/>
    </g>
   </g>
   <g id="text_11">
    <g id="patch_12">
     <path d="M 46.345233 70.67184 
L 60.096069 87.747124 
L 61.634781 86.507989 
L 47.883945 69.432705 
z
" style="fill: #ffffff"/>
    </g>
    <!-- Lower Sunshine 16.0° -->
    <g style="fill: #008000" transform="translate(46.697306 70.413992)rotate(-308.844717)scale(0.02 -0.02)">
     <defs>
      <path id="DejaVuSans-30" d="M 2034 4250 
Q 1547 4250 1301 3770 
Q 1056 3291 1056 2328 
Q 1056 1369 1301 889 
Q 1547 409 2034 409 
Q 2525 409 2770 889 
Q 3016 1369 3016 2328 
Q 3016 3291 2770 3770 
Q 2525 4250 2034 4250 
z
M 2034 4750 
Q 2819 4750 3233 4129 
Q 3647 3509 3647 2328 
Q 3647 1150 3233 529 
Q 2819 -91 2034 -91 
Q 1250 -91 836 529 
Q 422 1150 422 2328 
Q 422 3509 836 4129 
Q 1250 4750 2034 4750 
z
" transform="scale(0.015625)"/>
     </defs>
     <use xlink:href="#DejaVuSans-4c"/>
     <use xlink:href="#DejaVuSans-6f" x="53.962891"/>
     <use xlink:href="#DejaVuSans-77" x="115.144531"/>
     <use xlink:href="#DejaVuSans-65" x="196.931641"/>
     <use xlink:href="#DejaVuSans-72" x="258.455078"/>
     <use xlink:href="#DejaVuSans-20" x="299.568359"/>
     <use xlink:href="#DejaVuSans-53" x="331.355469"/>
     <use xlink:href="#DejaVuSans-75" x="394.832031"/>
     <use xlink:href="#DejaVuSans-6e" x="458.210938"/>
     <use xlink:href="#DejaVuSans-73" x="521.589844"/>
     <use xlink:href="#DejaVuSans-68" x="573.689453"/>
     <use xlink:href="#DejaVuSans-69" x="637.068359"/>
     <use xlink:href="#DejaVuSans-6e" x="664.851562"/>
     <use xlink:href="#DejaVuSans-65" x="728.230469"/>
     <use xlink:href="#DejaVuSans-20" x="789.753906"/>
     <use xlink:href="#DejaVuSans-31" x="821.541016"/>
     <use xlink:href="#DejaVuSans-36" x="885.164062"/>
     <use xlink:href="#DejaVuSans-2e" x="948.787109"/>
     <use xlink:href="#DejaVuSans-30" x="980.574219"/>
     <use xlink:href="#DejaVuSans-b0" x="1044.197266"/>
    </g>
   </g>
   <g id="text_12">
    <g id="patch_13">
     <path d="M 58.072926 54.364496 
L 59.882375 70.906766 
L 61.846286 70.691946 
L 60.036837 54.149677 
z
" style="fill: #ffffff"/>
    </g>
    <!-- Eago Alley 20.2° -->
    <g style="fill: #4169e1" transform="translate(58.508453 54.336976)rotate(-276.242389)scale(0.02 -0.02)">
     <defs>
      <path id="DejaVuSans-67" d="M 2906 1791 
Q 2906 2416 2648 2759 
Q 2391 3103 1925 3103 
Q 1463 3103 1205 2759 
Q 947 2416 947 1791 
Q 947 1169 1205 825 
Q 1463 481 1925 481 
Q 2391 481 2648 825 
Q 2906 1169 2906 1791 
z
M 3481 434 
Q 3481 -459 3084 -895 
Q 2688 -1331 1869 -1331 
Q 1566 -1331 1297 -1286 
Q 1028 -1241 775 -1147 
L 775 -588 
Q 1028 -725 1275 -790 
Q 1522 -856 1778 -856 
Q 2344 -856 2625 -561 
Q 2906 -266 2906 331 
L 2906 616 
Q 2728 306 2450 153 
Q 2172 0 1784 0 
Q 1141 0 747 490 
Q 353 981 353 1791 
Q 353 2603 747 3093 
Q 1141 3584 1784 3584 
Q 2172 3584 2450 3431 
Q 2728 3278 2906 2969 
L 2906 3500 
L 3481 3500 
L 3481 434 
z
" transform="scale(0.015625)"/>
      <path id="DejaVuSans-41" d="M 2188 4044 
L 1331 1722 
L 3047 1722 
L 2188 4044 
z
M 1831 4666 
L 2547 4666 
L 4325 0 
L 3669 0 
L 3244 1197 
L 1141 1197 
L 716 0 
L 50 0 
L 1831 4666 
z
" transform="scale(0.015625)"/>
      <path id="DejaVuSans-6c" d="M 603 4863 
L 1178 4863 
L 1178 0 
L 603 0 
L 603 4863 
z
" transform="scale(0.015625)"/>
     </defs>
     <use xlink:href="#DejaVuSans-45"/>
     <use xlink:href="#DejaVuSans-61" x="63.183594"/>
     <use xlink:href="#DejaVuSans-67" x="124.462891"/>
     <use xlink:href="#DejaVuSans-6f" x="187.939453"/>
     <use xlink:href="#DejaVuSans-20" x="249.121094"/>
     <use xlink:href="#DejaVuSans-41" x="280.908203"/>
     <use xlink:href="#DejaVuSans-6c" x="349.316406"/>
     <use xlink:href="#DejaVuSans-6c" x="377.099609"/>
     <use xlink:href="#DejaVuSans-65" x="404.882812"/>
     <use xlink:href="#DejaVuSans-79" x="466.40625"/>
     <use xlink:href="#DejaVuSans-20" x="525.585938"/>
     <use xlink:href="#DejaVuSans-32" x="557.373047"/>
     <use xlink:href="#DejaVuSans-30" x="620.996094"/>
     <use xlink:href="#DejaVuSans-2e" x="684.619141"/>
     <use xlink:href="#DejaVuSans-32" x="716.40625"/>
     <use xlink:href="#DejaVuSans-b0" x="780.029297"/>
    </g>
   </g>
   <g id="text_13">
    <g id="patch_14">
     <path d="M 69.577303 63.136707 
L 72.788739 79.718907 
L 74.728324 79.343272 
L 71.516888 62.761072 
z
" style="fill: #ffffff"/>
    </g>
    <!-- South Wild 20.8° -->
    <g style="fill: #4169e1" transform="translate(70.009091 63.073455)rotate(-280.96065)scale(0.02 -0.02)">
     <defs>
      <path id="DejaVuSans-57" d="M 213 4666 
L 850 4666 
L 1831 722 
L 2809 4666 
L 3519 4666 
L 4500 722 
L 5478 4666 
L 6119 4666 
L 4947 0 
L 4153 0 
L 3169 4050 
L 2175 0 
L 1381 0 
L 213 4666 
z
" transform="scale(0.015625)"/>
     </defs>
     <use xlink:href="#DejaVuSans-53"/>
     <use xlink:href="#DejaVuSans-6f" x="63.476562"/>
     <use xlink:href="#DejaVuSans-75" x="124.658203"/>
     <use xlink:href="#DejaVuSans-74" x="188.037109"/>
     <use xlink:href="#DejaVuSans-68" x="227.246094"/>
     <use xlink:href="#DejaVuSans-20" x="290.625"/>
     <use xlink:href="#DejaVuSans-57" x="322.412109"/>
     <use xlink:href="#DejaVuSans-69" x="419.039062"/>
     <use xlink:href="#DejaVuSans-6c" x="446.822266"/>
     <use xlink:href="#DejaVuSans-64" x="474.605469"/>
     <use xlink:href="#DejaVuSans-20" x="538.082031"/>
     <use xlink:href="#DejaVuSans-32" x="569.869141"/>
     <use xlink:href="#DejaVuSans-30" x="633.492188"/>
     <use xlink:href="#DejaVuSans-2e" x="697.115234"/>
     <use xlink:href="#DejaVuSans-38" x="728.902344"/>
     <use xlink:href="#DejaVuSans-b0" x="792.525391"/>
    </g>
   </g>
   <g id="text_14">
    <g id="patch_15">
     <path d="M 69.513433 54.269996 
L 75.143769 69.962042 
L 77.003319 69.294832 
L 71.372982 53.602786 
z
" style="fill: #ffffff"/>
    </g>
    <!-- North Wild 22.0° -->
    <g style="fill: #4169e1" transform="translate(69.930511 54.141596)rotate(-289.738086)scale(0.02 -0.02)">
     <use xlink:href="#DejaVuSans-4e"/>
     <use xlink:href="#DejaVuSans-6f" x="74.804688"/>
     <use xlink:href="#DejaVuSans-72" x="135.986328"/>
     <use xlink:href="#DejaVuSans-74" x="177.099609"/>
     <use xlink:href="#DejaVuSans-68" x="216.308594"/>
     <use xlink:href="#DejaVuSans-20" x="279.6875"/>
     <use xlink:href="#DejaVuSans-57" x="311.474609"/>
     <use xlink:href="#DejaVuSans-69" x="408.101562"/>
     <use xlink:href="#DejaVuSans-6c" x="435.884766"/>
     <use xlink:href="#DejaVuSans-64" x="463.667969"/>
     <use xlink:href="#DejaVuSans-20" x="527.144531"/>
     <use xlink:href="#DejaVuSans-32" x="558.931641"/>
     <use xlink:href="#DejaVuSans-32" x="622.554688"/>
     <use xlink:href="#DejaVuSans-2e" x="686.177734"/>
     <use xlink:href="#DejaVuSans-30" x="717.964844"/>
     <use xlink:href="#DejaVuSans-b0" x="781.587891"/>
    </g>
   </g>
   <g id="text_15">
    <g id="patch_16">
     <path d="M 79.863102 53.217089 
L 95.565003 59.55427 
L 96.304403 57.722227 
L 80.602503 51.385046 
z
" style="fill: #ffffff"/>
    </g>
    <!-- Moonshine 15.5° -->
    <g style="fill: #008000" transform="translate(80.044803 52.820319)rotate(-338.021329)scale(0.02 -0.02)">
     <defs>
      <path id="DejaVuSans-4d" d="M 628 4666 
L 1569 4666 
L 2759 1491 
L 3956 4666 
L 4897 4666 
L 4897 0 
L 4281 0 
L 4281 4097 
L 3078 897 
L 2444 897 
L 1241 4097 
L 1241 0 
L 628 0 
L 628 4666 
z
" transform="scale(0.015625)"/>
      <path id="DejaVuSans-35" d="M 691 4666 
L 3169 4666 
L 3169 4134 
L 1269 4134 
L 1269 2991 
Q 1406 3038 1543 3061 
Q 1681 3084 1819 3084 
Q 2600 3084 3056 2656 
Q 3513 2228 3513 1497 
Q 3513 744 3044 326 
Q 2575 -91 1722 -91 
Q 1428 -91 1123 -41 
Q 819 9 494 109 
L 494 744 
Q 775 591 1075 516 
Q 1375 441 1709 441 
Q 2250 441 2565 725 
Q 2881 1009 2881 1497 
Q 2881 1984 2565 2268 
Q 2250 2553 1709 2553 
Q 1456 2553 1204 2497 
Q 953 2441 691 2322 
L 691 4666 
z
" transform="scale(0.015625)"/>
     </defs>
     <use xlink:href="#DejaVuSans-4d"/>
     <use xlink:href="#DejaVuSans-6f" x="86.279297"/>
     <use xlink:href="#DejaVuSans-6f" x="147.460938"/>
     <use xlink:href="#DejaVuSans-6e" x="208.642578"/>
     <use xlink:href="#DejaVuSans-73" x="272.021484"/>
     <use xlink:href="#DejaVuSans-68" x="324.121094"/>
     <use xlink:href="#DejaVuSans-69" x="387.5"/>
     <use xlink:href="#DejaVuSans-6e" x="415.283203"/>
     <use xlink:href="#DejaVuSans-65" x="478.662109"/>
     <use xlink:href="#DejaVuSans-20" x="540.185547"/>
     <use xlink:href="#DejaVuSans-31" x="571.972656"/>
     <use xlink:href="#DejaVuSans-35" x="635.595703"/>
     <use xlink:href="#DejaVuSans-2e" x="699.21875"/>
     <use xlink:href="#DejaVuSans-35" x="731.005859"/>
     <use xlink:href="#DejaVuSans-b0" x="794.628906"/>
    </g>
   </g>
   <g id="text_16">
    <g id="patch_17">
     <path d="M 79.643917 60.043483 
L 83.35394 70.164286 
L 85.208863 69.484319 
L 81.49884 59.363516 
z
" style="fill: #ffffff"/>
    </g>
    <!-- Bear 24.5° -->
    <g transform="translate(80.060104 59.912221)rotate(-290.13162)scale(0.02 -0.02)">
     <use xlink:href="#DejaVuSans-42"/>
     <use xlink:href="#DejaVuSans-65" x="68.603516"/>
     <use xlink:href="#DejaVuSans-61" x="130.126953"/>
     <use xlink:href="#DejaVuSans-72" x="191.40625"/>
     <use xlink:href="#DejaVuSans-20" x="232.519531"/>
     <use xlink:href="#DejaVuSans-32" x="264.306641"/>
     <use xlink:href="#DejaVuSans-34" x="327.929688"/>
     <use xlink:href="#DejaVuSans-2e" x="391.552734"/>
     <use xlink:href="#DejaVuSans-35" x="423.339844"/>
     <use xlink:href="#DejaVuSans-b0" x="486.962891"/>
    </g>
   </g>
   <g id="text_17">
    <g id="patch_18">
     <path d="M 89.756173 62.293129 
L 95.363284 75.850294 
L 97.188926 75.095227 
L 91.581815 61.538062 
z
" style="fill: #ffffff"/>
    </g>
    <!-- The Wall 27.2° -->
    <g transform="translate(90.16666 62.144999)rotate(-292.469508)scale(0.02 -0.02)">
     <defs>
      <path id="DejaVuSans-54" d="M -19 4666 
L 3928 4666 
L 3928 4134 
L 2272 4134 
L 2272 0 
L 1638 0 
L 1638 4134 
L -19 4134 
L -19 4666 
z
" transform="scale(0.015625)"/>
     </defs>
     <use xlink:href="#DejaVuSans-54"/>
     <use xlink:href="#DejaVuSans-68" x="61.083984"/>
     <use xlink:href="#DejaVuSans-65" x="124.462891"/>
     <use xlink:href="#DejaVuSans-20" x="185.986328"/>
     <use xlink:href="#DejaVuSans-57" x="217.773438"/>
     <use xlink:href="#DejaVuSans-61" x="310.275391"/>
     <use xlink:href="#DejaVuSans-6c" x="371.554688"/>
     <use xlink:href="#DejaVuSans-6c" x="399.337891"/>
     <use xlink:href="#DejaVuSans-20" x="427.121094"/>
     <use xlink:href="#DejaVuSans-32" x="458.908203"/>
     <use xlink:href="#DejaVuSans-37" x="522.53125"/>
     <use xlink:href="#DejaVuSans-2e" x="586.154297"/>
     <use xlink:href="#DejaVuSans-32" x="617.941406"/>
     <use xlink:href="#DejaVuSans-b0" x="681.564453"/>
    </g>
   </g>
   <g id="text_18">
    <g id="patch_19">
     <path d="M 33.589197 76.63728 
L 43.110497 92.8856 
L 44.815028 91.886767 
L 35.293729 75.638447 
z
" style="fill: #ffffff"/>
    </g>
    <!-- Express Way 19.1° -->
    <g style="fill: #4169e1" transform="translate(33.975427 76.434135)rotate(-300.369736)scale(0.02 -0.02)">
     <defs>
      <path id="DejaVuSans-78" d="M 3513 3500 
L 2247 1797 
L 3578 0 
L 2900 0 
L 1881 1375 
L 863 0 
L 184 0 
L 1544 1831 
L 300 3500 
L 978 3500 
L 1906 2253 
L 2834 3500 
L 3513 3500 
z
" transform="scale(0.015625)"/>
     </defs>
     <use xlink:href="#DejaVuSans-45"/>
     <use xlink:href="#DejaVuSans-78" x="63.183594"/>
     <use xlink:href="#DejaVuSans-70" x="122.363281"/>
     <use xlink:href="#DejaVuSans-72" x="185.839844"/>
     <use xlink:href="#DejaVuSans-65" x="224.703125"/>
     <use xlink:href="#DejaVuSans-73" x="286.226562"/>
     <use xlink:href="#DejaVuSans-73" x="338.326172"/>
     <use xlink:href="#DejaVuSans-20" x="390.425781"/>
     <use xlink:href="#DejaVuSans-57" x="422.212891"/>
     <use xlink:href="#DejaVuSans-61" x="514.714844"/>
     <use xlink:href="#DejaVuSans-79" x="575.994141"/>
     <use xlink:href="#DejaVuSans-20" x="635.173828"/>
     <use xlink:href="#DejaVuSans-31" x="666.960938"/>
     <use xlink:href="#DejaVuSans-39" x="730.583984"/>
     <use xlink:href="#DejaVuSans-2e" x="794.207031"/>
     <use xlink:href="#DejaVuSans-31" x="825.994141"/>
     <use xlink:href="#DejaVuSans-b0" x="889.617188"/>
    </g>
   </g>
   <g id="text_19">
    <g id="patch_20">
     <path d="M 26.145442 77.053991 
L 32.853492 86.963994 
L 34.489546 85.856555 
L 27.781496 75.946552 
z
" style="fill: #ffffff"/>
    </g>
    <!-- Comp 26.2° -->
    <g transform="translate(26.517662 76.826188)rotate(-304.093947)scale(0.02 -0.02)">
     <defs>
      <path id="DejaVuSans-6d" d="M 3328 2828 
Q 3544 3216 3844 3400 
Q 4144 3584 4550 3584 
Q 5097 3584 5394 3201 
Q 5691 2819 5691 2113 
L 5691 0 
L 5113 0 
L 5113 2094 
Q 5113 2597 4934 2840 
Q 4756 3084 4391 3084 
Q 3944 3084 3684 2787 
Q 3425 2491 3425 1978 
L 3425 0 
L 2847 0 
L 2847 2094 
Q 2847 2600 2669 2842 
Q 2491 3084 2119 3084 
Q 1678 3084 1418 2786 
Q 1159 2488 1159 1978 
L 1159 0 
L 581 0 
L 581 3500 
L 1159 3500 
L 1159 2956 
Q 1356 3278 1631 3431 
Q 1906 3584 2284 3584 
Q 2666 3584 2933 3390 
Q 3200 3197 3328 2828 
z
" transform="scale(0.015625)"/>
     </defs>
     <use xlink:href="#DejaVuSans-43"/>
     <use xlink:href="#DejaVuSans-6f" x="69.824219"/>
     <use xlink:href="#DejaVuSans-6d" x="131.005859"/>
     <use xlink:href="#DejaVuSans-70" x="228.417969"/>
     <use xlink:href="#DejaVuSans-20" x="291.894531"/>
     <use xlink:href="#DejaVuSans-32" x="323.681641"/>
     <use xlink:href="#DejaVuSans-36" x="387.304688"/>
     <use xlink:href="#DejaVuSans-2e" x="450.927734"/>
     <use xlink:href="#DejaVuSans-32" x="482.714844"/>
     <use xlink:href="#DejaVuSans-b0" x="546.337891"/>
    </g>
   </g>
   <g id="text_20">
    <g id="patch_21">
     <path d="M 11.613231 93.384243 
L 28.281243 98.085907 
L 28.817592 96.184481 
L 12.14958 91.482816 
z
" style="fill: #ffffff"/>
    </g>
    <!-- Main Stage 21.3° -->
    <g style="fill: #4169e1" transform="translate(11.750829 92.970107)rotate(-344.247456)scale(0.02 -0.02)">
     <use xlink:href="#DejaVuSans-4d"/>
     <use xlink:href="#DejaVuSans-61" x="86.279297"/>
     <use xlink:href="#DejaVuSans-69" x="147.558594"/>
     <use xlink:href="#DejaVuSans-6e" x="175.341797"/>
     <use xlink:href="#DejaVuSans-20" x="238.720703"/>
     <use xlink:href="#DejaVuSans-53" x="270.507812"/>
     <use xlink:href="#DejaVuSans-74" x="333.984375"/>
     <use xlink:href="#DejaVuSans-61" x="373.193359"/>
     <use xlink:href="#DejaVuSans-67" x="434.472656"/>
     <use xlink:href="#DejaVuSans-65" x="497.949219"/>
     <use xlink:href="#DejaVuSans-20" x="559.472656"/>
     <use xlink:href="#DejaVuSans-32" x="591.259766"/>
     <use xlink:href="#DejaVuSans-31" x="654.882812"/>
     <use xlink:href="#DejaVuSans-2e" x="718.505859"/>
     <use xlink:href="#DejaVuSans-33" x="750.292969"/>
     <use xlink:href="#DejaVuSans-b0" x="813.916016"/>
    </g>
   </g>
   <g id="text_21">
    <!-- Wild Mountain -->
    <g transform="translate(32.699339 8.752186)scale(0.08 -0.08)">
     <use xlink:href="#DejaVuSans-57"/>
     <use xlink:href="#DejaVuSans-69" x="96.626953"/>
     <use xlink:href="#DejaVuSans-6c" x="124.410156"/>
     <use xlink:href="#DejaVuSans-64" x="152.193359"/>
     <use xlink:href="#DejaVuSans-20" x="215.669922"/>
     <use xlink:href="#DejaVuSans-4d" x="247.457031"/>
     <use xlink:href="#DejaVuSans-6f" x="333.736328"/>
     <use xlink:href="#DejaVuSans-75" x="394.917969"/>
     <use xlink:href="#DejaVuSans-6e" x="458.296875"/>
     <use xlink:href="#DejaVuSans-74" x="521.675781"/>
     <use xlink:href="#DejaVuSans-61" x="560.884766"/>
     <use xlink:href="#DejaVuSans-69" x="622.164062"/>
     <use xlink:href="#DejaVuSans-6e" x="649.947266"/>
    </g>
   </g>
   <g id="legend_1">
    <g id="line2d_37">
     <path d="M 5.230277 104.792152 
L 9.230277 104.792152 
L 13.230277 104.792152 
" style="fill: none; stroke: #008000; stroke-width: 0.566961; stroke-linecap: square"/>
    </g>
    <g id="text_22">
     <!-- Easy -->
     <g transform="translate(16.430277 106.192152)scale(0.04 -0.04)">
      <use xlink:href="#DejaVuSans-45"/>
      <use xlink:href="#DejaVuSans-61" x="63.183594"/>
      <use xlink:href="#DejaVuSans-73" x="124.462891"/>
      <use xlink:href="#DejaVuSans-79" x="176.5625"/>
     </g>
    </g>
    <g id="line2d_38">
     <path d="M 5.230277 110.663402 
L 9.230277 110.663402 
L 13.230277 110.663402 
" style="fill: none; stroke: #4169e1; stroke-width: 0.566961; stroke-linecap: square"/>
    </g>
    <g id="text_23">
     <!-- Intermediate -->
     <g transform="translate(16.430277 112.063402)scale(0.04 -0.04)">
      <defs>
       <path id="DejaVuSans-49" d="M 628 4666 
L 1259 4666 
L 1259 0 
L 628 0 
L 628 4666 
z
" transform="scale(0.015625)"/>
      </defs>
      <use xlink:href="#DejaVuSans-49"/>
      <use xlink:href="#DejaVuSans-6e" x="29.492188"/>
      <use xlink:href="#DejaVuSans-74" x="92.871094"/>
      <use xlink:href="#DejaVuSans-65" x="132.080078"/>
      <use xlink:href="#DejaVuSans-72" x="193.603516"/>
      <use xlink:href="#DejaVuSans-6d" x="232.966797"/>
      <use xlink:href="#DejaVuSans-65" x="330.378906"/>
      <use xlink:href="#DejaVuSans-64" x="391.902344"/>
      <use xlink:href="#DejaVuSans-69" x="455.378906"/>
      <use xlink:href="#DejaVuSans-61" x="483.162109"/>
      <use xlink:href="#DejaVuSans-74" x="544.441406"/>
      <use xlink:href="#DejaVuSans-65" x="583.650391"/>
     </g>
    </g>
    <g id="line2d_39">
     <path d="M 50.237777 104.792152 
L 54.237777 104.792152 
L 58.237777 104.792152 
" style="fill: none; stroke: #000000; stroke-width: 0.566961; stroke-linecap: square"/>
    </g>
    <g id="text_24">
     <!-- Advanced -->
     <g transform="translate(61.437777 106.192152)scale(0.04 -0.04)">
      <defs>
       <path id="DejaVuSans-76" d="M 191 3500 
L 800 3500 
L 1894 563 
L 2988 3500 
L 3597 3500 
L 2284 0 
L 1503 0 
L 191 3500 
z
" transform="scale(0.015625)"/>
       <path id="DejaVuSans-63" d="M 3122 3366 
L 3122 2828 
Q 2878 2963 2633 3030 
Q 2388 3097 2138 3097 
Q 1578 3097 1268 2742 
Q 959 2388 959 1747 
Q 959 1106 1268 751 
Q 1578 397 2138 397 
Q 2388 397 2633 464 
Q 2878 531 3122 666 
L 3122 134 
Q 2881 22 2623 -34 
Q 2366 -91 2075 -91 
Q 1284 -91 818 406 
Q 353 903 353 1747 
Q 353 2603 823 3093 
Q 1294 3584 2113 3584 
Q 2378 3584 2631 3529 
Q 2884 3475 3122 3366 
z
" transform="scale(0.015625)"/>
      </defs>
      <use xlink:href="#DejaVuSans-41"/>
      <use xlink:href="#DejaVuSans-64" x="66.658203"/>
      <use xlink:href="#DejaVuSans-76" x="130.134766"/>
      <use xlink:href="#DejaVuSans-61" x="189.314453"/>
      <use xlink:href="#DejaVuSans-6e" x="250.59375"/>
      <use xlink:href="#DejaVuSans-63" x="313.972656"/>
      <use xlink:href="#DejaVuSans-65" x="368.953125"/>
      <use xlink:href="#DejaVuSans-64" x="430.476562"/>
     </g>
    </g>
    <g id="line2d_40">
     <path d="M 50.237777 110.663402 
L 54.237777 110.663402 
L 58.237777 110.663402 
" style="fill: none; stroke: #ff0000; stroke-width: 0.566961; stroke-linecap: square"/>
    </g>
    <g id="text_25">
     <!-- Expert -->
     <g transform="translate(61.437777 112.063402)scale(0.04 -0.04)">
      <use xlink:href="#DejaVuSans-45"/>
      <use xlink:href="#DejaVuSans-78" x="63.183594"/>
      <use xlink:href="#DejaVuSans-70" x="122.363281"/>
      <use xlink:href="#DejaVuSans-65" x="185.839844"/>
      <use xlink:href="#DejaVuSans-72" x="247.363281"/>
      <use xlink:href="#DejaVuSans-74" x="288.476562"/>
     </g>
    </g>
    <g id="line2d_41">
     <path d="M 89.197152 104.792152 
L 93.197152 104.792152 
L 97.197152 104.792152 
" style="fill: none; stroke: #ffd700; stroke-width: 0.566961; stroke-linecap: square"/>
    </g>
    <g id="text_26">
     <!-- Extreme -->
     <g transform="translate(100.397152 106.192152)scale(0.04 -0.04)">
      <use xlink:href="#DejaVuSans-45"/>
      <use xlink:href="#DejaVuSans-78" x="63.183594"/>
      <use xlink:href="#DejaVuSans-74" x="122.363281"/>
      <use xlink:href="#DejaVuSans-72" x="161.572266"/>
      <use xlink:href="#DejaVuSans-65" x="200.435547"/>
      <use xlink:href="#DejaVuSans-6d" x="261.958984"/>
      <use xlink:href="#DejaVuSans-65" x="359.371094"/>
     </g>
    </g>
    <g id="line2d_42">
     <path d="M 89.197152 110.663402 
L 93.197152 110.663402 
L 97.197152 110.663402 
" style="fill: none; stroke-dasharray: 0.566961,0.935486; stroke-dashoffset: 0; stroke: #000000; stroke-width: 0.566961"/>
    </g>
    <g id="text_27">
     <!-- Gladed -->
     <g transform="translate(100.397152 112.063402)scale(0.04 -0.04)">
      <defs>
       <path id="DejaVuSans-47" d="M 3809 666 
L 3809 1919 
L 2778 1919 
L 2778 2438 
L 4434 2438 
L 4434 434 
Q 4069 175 3628 42 
Q 3188 -91 2688 -91 
Q 1594 -91 976 548 
Q 359 1188 359 2328 
Q 359 3472 976 4111 
Q 1594 4750 2688 4750 
Q 3144 4750 3555 4637 
Q 3966 4525 4313 4306 
L 4313 3634 
Q 3963 3931 3569 4081 
Q 3175 4231 2741 4231 
Q 1884 4231 1454 3753 
Q 1025 3275 1025 2328 
Q 1025 1384 1454 906 
Q 1884 428 2741 428 
Q 3075 428 3337 486 
Q 3600 544 3809 666 
z
" transform="scale(0.015625)"/>
      </defs>
      <use xlink:href="#DejaVuSans-47"/>
      <use xlink:href="#DejaVuSans-6c" x="77.490234"/>
      <use xlink:href="#DejaVuSans-61" x="105.273438"/>
      <use xlink:href="#DejaVuSans-64" x="166.552734"/>
      <use xlink:href="#DejaVuSans-65" x="230.029297"/>
      <use xlink:href="#DejaVuSans-64" x="291.552734"/>
     </g>
    </g>
   </g>
  </g>
  <g id="text_28">
   <!-- Sources: USGS and OpenStreetMaps -->
   <g transform="translate(29.503307 118.49987)scale(0.034783 -0.034783)">
    <defs>
     <path id="DejaVuSans-3a" d="M 750 794 
L 1409 794 
L 1409 0 
L 750 0 
L 750 794 
z
M 750 3309 
L 1409 3309 
L 1409 2516 
L 750 2516 
L 750 3309 
z
" transform="scale(0.015625)"/>
     <path id="DejaVuSans-4f" d="M 2522 4238 
Q 1834 4238 1429 3725 
Q 1025 3213 1025 2328 
Q 1025 1447 1429 934 
Q 1834 422 2522 422 
Q 3209 422 3611 934 
Q 4013 1447 4013 2328 
Q 4013 3213 3611 3725 
Q 3209 4238 2522 4238 
z
M 2522 4750 
Q 3503 4750 4090 4092 
Q 4678 3434 4678 2328 
Q 4678 1225 4090 567 
Q 3503 -91 2522 -91 
Q 1538 -91 948 565 
Q 359 1222 359 2328 
Q 359 3434 948 4092 
Q 1538 4750 2522 4750 
z
" transform="scale(0.015625)"/>
    </defs>
    <use xlink:href="#DejaVuSans-53"/>
    <use xlink:href="#DejaVuSans-6f" x="63.476562"/>
    <use xlink:href="#DejaVuSans-75" x="124.658203"/>
    <use xlink:href="#DejaVuSans-72" x="188.037109"/>
    <use xlink:href="#DejaVuSans-63" x="226.900391"/>
    <use xlink:href="#DejaVuSans-65" x="281.880859"/>
    <use xlink:href="#DejaVuSans-73" x="343.404297"/>
    <use xlink:href="#DejaVuSans-3a" x="395.503906"/>
    <use xlink:href="#DejaVuSans-20" x="429.195312"/>
    <use xlink:href="#DejaVuSans-55" x="460.982422"/>
    <use xlink:href="#DejaVuSans-53" x="534.175781"/>
    <use xlink:href="#DejaVuSans-47" x="597.652344"/>
    <use xlink:href="#DejaVuSans-53" x="675.142578"/>
    <use xlink:href="#DejaVuSans-20" x="738.619141"/>
    <use xlink:href="#DejaVuSans-61" x="770.40625"/>
    <use xlink:href="#DejaVuSans-6e" x="831.685547"/>
    <use xlink:href="#DejaVuSans-64" x="895.064453"/>
    <use xlink:href="#DejaVuSans-20" x="958.541016"/>
    <use xlink:href="#DejaVuSans-4f" x="990.328125"/>
    <use xlink:href="#DejaVuSans-70" x="1069.039062"/>
    <use xlink:href="#DejaVuSans-65" x="1132.515625"/>
    <use xlink:href="#DejaVuSans-6e" x="1194.039062"/>
    <use xlink:href="#DejaVuSans-53" x="1257.417969"/>
    <use xlink:href="#DejaVuSans-74" x="1320.894531"/>
    <use xlink:href="#DejaVuSans-72" x="1360.103516"/>
    <use xlink:href="#DejaVuSans-65" x="1398.966797"/>
    <use xlink:href="#DejaVuSans-65" x="1460.490234"/>
    <use xlink:href="#DejaVuSans-74" x="1522.013672"/>
    <use xlink:href="#DejaVuSans-4d" x="1561.222656"/>
    <use xlink:href="#DejaVuSans-61" x="1647.501953"/>
    <use xlink:href="#DejaVuSans-70" x="1708.78125"/>
    <use xlink:href="#DejaVuSans-73" x="1772.257812"/>
   </g>
  </g>
 </g>
 <defs>
  <clipPath id="paed2a940b5">
   <rect x="0" y="12.752186" width="122.463679" height="93.718868"/>
  </clipPath>
 </defs>
</svg>
