<?xml version="1.0" encoding="utf-8" standalone="no"?>
<!DOCTYPE svg PUBLIC "-//W3C//DTD SVG 1.1//EN"
  "http://www.w3.org/Graphics/SVG/1.1/DTD/svg11.dtd">
<svg xmlns:xlink="http://www.w3.org/1999/xlink" width="159.421798pt" height="224.808164pt" viewBox="0 0 159.421798 224.808164" xmlns="http://www.w3.org/2000/svg" version="1.1">
 <metadata>
  <rdf:RDF xmlns:dc="http://purl.org/dc/elements/1.1/" xmlns:cc="http://creativecommons.org/ns#" xmlns:rdf="http://www.w3.org/1999/02/22-rdf-syntax-ns#">
   <cc:Work>
    <dc:type rdf:resource="http://purl.org/dc/dcmitype/StillImage"/>
    <dc:date>2022-01-10T10:57:09.176140</dc:date>
    <dc:format>image/svg+xml</dc:format>
    <dc:creator>
     <cc:Agent>
      <dc:title>Matplotlib v3.5.1, https://matplotlib.org/</dc:title>
     </cc:Agent>
    </dc:creator>
   </cc:Work>
  </rdf:RDF>
 </metadata>
 <defs>
  <style type="text/css">*{stroke-linejoin: round; stroke-linecap: butt}</style>
 </defs>
 <g id="figure_1">
  <g id="patch_1">
   <path d="M 0 224.808164 
L 159.421798 224.808164 
L 159.421798 0 
L 0 0 
z
" style="fill: #ffffff"/>
  </g>
  <g id="axes_1">
   <g id="patch_2">
    <path d="M 7.97109 220.312001 
L 151.450708 220.312001 
L 151.450708 17.984653 
L 7.97109 17.984653 
z
" style="fill: #ffffff"/>
   </g>
   <g id="matplotlib.axis_1"/>
   <g id="matplotlib.axis_2"/>
   <g id="line2d_1">
    <path d="M 80.275776 101.874264 
L 78.892257 101.249356 
L 77.508737 100.624448 
L 76.125218 99.99954 
L 74.741698 99.374631 
L 73.670247 98.370455 
L 72.598796 97.366278 
L 71.527345 96.362102 
L 70.455894 95.357925 
L 69.607861 94.766588 
L 68.759829 94.17525 
L 67.911796 93.583913 
L 67.063763 92.992575 
L 66.21573 92.401238 
L 65.367697 91.809901 
L 64.519664 91.218563 
L 63.671631 90.627226 
L 62.600419 90.080431 
L 61.529207 89.533636 
L 60.457995 88.986841 
L 59.386783 88.440047 
L 58.315571 87.893252 
L 57.244359 87.346457 
L 56.173147 86.799663 
L 55.101935 86.252868 
L 54.164535 86.007392 
L 53.227134 85.761915 
L 52.289734 85.516439 
L 51.352334 85.270963 
L 50.414934 85.025486 
L 49.477534 84.78001 
L 48.540134 84.534534 
L 47.602734 84.289058 
L 46.531522 84.679625 
L 45.460309 85.070193 
L 44.389097 85.460761 
L 43.317885 85.851328 
L 42.246673 86.241896 
L 41.175461 86.632464 
L 40.104249 87.023031 
L 39.033037 87.413599 
L 38.396953 88.127756 
L 37.760868 88.841914 
L 37.124784 89.556071 
L 36.4887 90.270229 
L 35.852615 90.984386 
L 35.216531 91.698544 
L 34.580446 92.412701 
L 33.944362 93.126859 
L 33.408636 94.711073 
L 32.872911 96.295288 
L 32.337185 97.879502 
L 31.80146 99.463717 
L 31.38043 100.607417 
L 30.959401 101.751117 
" clip-path="url(#pab5e3e1612)" style="fill: none; stroke: #008000; stroke-width: 1.5; stroke-linecap: square"/>
   </g>
   <g id="line2d_2">
    <path d="M 72.01767 99.783376 
L 70.326145 99.309782 
L 68.634619 98.836188 
L 66.943093 98.362594 
L 65.251567 97.889 
L 63.881549 98.02443 
L 62.51153 98.159859 
L 61.141511 98.295289 
L 59.771492 98.430718 
L 58.401473 98.566148 
L 57.031455 98.701578 
L 55.661436 98.837007 
L 54.291417 98.972437 
L 53.175163 99.564265 
L 52.058909 100.156094 
L 50.942655 100.747923 
L 49.826401 101.339752 
L 48.710147 101.93158 
L 47.593892 102.523409 
L 46.477638 103.115238 
L 45.361384 103.707067 
L 44.803197 104.603489 
L 44.245011 105.499911 
L 43.686824 106.396334 
L 43.128637 107.292756 
L 42.57045 108.189178 
L 42.012264 109.085601 
L 41.454077 109.982023 
L 40.89589 110.878446 
" clip-path="url(#pab5e3e1612)" style="fill: none; stroke: #4169e1; stroke-width: 1.5; stroke-linecap: square"/>
   </g>
   <g id="line2d_3">
    <path d="M 74.58877 101.812691 
L 72.863553 101.812691 
L 71.138335 101.812691 
L 69.413117 101.812691 
L 67.6879 101.812691 
L 66.16567 102.489183 
L 64.64344 103.165676 
L 63.12121 103.842169 
L 61.59898 104.518661 
L 60.076751 105.195154 
L 58.554521 105.871647 
L 57.032291 106.548139 
L 55.510061 107.224632 
L 54.326065 108.019523 
L 53.142068 108.814414 
L 51.958072 109.609305 
L 50.774076 110.404197 
L 49.590079 111.199088 
L 48.406083 111.993979 
L 47.222087 112.78887 
L 46.03809 113.583761 
L 45.090893 114.69995 
L 44.143696 115.816138 
L 43.196499 116.932326 
L 42.249302 118.048515 
" clip-path="url(#pab5e3e1612)" style="fill: none; stroke: #4169e1; stroke-width: 1.5; stroke-linecap: square"/>
   </g>
   <g id="line2d_4">
    <path d="M 42.245479 88.616253 
L 41.84022 89.795325 
L 41.434961 90.974397 
L 41.029702 92.153469 
L 40.624443 93.332541 
L 40.312136 94.492945 
L 39.999828 95.653348 
L 39.687521 96.813752 
L 39.375213 97.974156 
L 38.727898 98.822105 
L 38.080583 99.670054 
L 37.433268 100.518004 
L 36.785953 101.365953 
L 36.116416 102.660312 
L 35.446878 103.954672 
L 34.799563 105.092804 
L 34.152248 106.230936 
L 33.504933 107.369068 
L 32.857618 108.5072 
" clip-path="url(#pab5e3e1612)" style="fill: none; stroke: #008000; stroke-width: 1.5; stroke-linecap: square"/>
   </g>
   <g id="line2d_5">
    <path d="M 73.833689 105.204488 
L 72.829383 105.505807 
L 71.825077 105.807125 
L 70.820771 106.108444 
L 69.816465 106.409762 
L 68.812159 106.71108 
L 67.807852 107.012399 
L 66.803546 107.313717 
L 65.79924 107.615036 
L 64.906524 108.228645 
L 64.013807 108.842253 
L 63.121091 109.455862 
L 62.228374 110.069471 
L 61.335658 110.68308 
L 60.442941 111.296689 
L 59.550225 111.910298 
L 58.657508 112.523906 
L 57.831697 113.68431 
L 57.005887 114.844714 
L 56.180076 116.005117 
L 55.354266 117.165521 
L 55.108745 118.225539 
L 54.863224 119.285558 
L 54.617703 120.345577 
L 54.372182 121.405595 
L 54.126661 122.465614 
L 53.88114 123.525633 
L 53.635619 124.585651 
L 53.390098 125.64567 
L 53.345654 127.40871 
L 53.301209 129.171751 
L 53.256764 130.934791 
L 53.21232 132.697832 
L 53.167397 134.30399 
L 53.122474 135.910148 
L 53.613755 137.338791 
L 54.105036 138.767433 
" clip-path="url(#pab5e3e1612)" style="fill: none; stroke: #4169e1; stroke-width: 1.5; stroke-linecap: square"/>
   </g>
   <g id="line2d_6">
    <path d="M 65.609992 113.819576 
L 64.561241 114.969499 
L 63.512491 116.119422 
L 62.46374 117.269344 
L 61.414989 118.419267 
L 61.516543 119.383486 
L 61.618096 120.347705 
L 61.71965 121.311925 
L 61.821204 122.276144 
L 62.142591 123.696598 
L 62.463979 125.117053 
L 62.785366 126.537507 
L 63.106754 127.957961 
L 62.988354 128.972619 
L 62.869954 129.987276 
L 62.751555 131.001933 
L 62.633155 132.01659 
L 62.514756 133.031247 
L 62.396356 134.045904 
L 62.277956 135.060561 
L 62.159557 136.075218 
L 62.142591 137.25904 
L 62.125626 138.442861 
L 62.10866 139.626682 
L 62.091695 140.810503 
L 62.074729 141.994325 
L 62.057764 143.178146 
L 62.040799 144.361967 
L 62.023833 145.545788 
L 62.475926 146.530969 
L 62.928019 147.516149 
L 63.380112 148.501329 
L 63.832205 149.48651 
L 64.395649 150.496582 
L 64.959093 151.506653 
L 65.522536 152.516725 
L 66.08598 153.526797 
L 66.241297 154.789387 
L 66.396615 156.051977 
L 66.551932 157.314566 
L 66.70725 158.577156 
" clip-path="url(#pab5e3e1612)" style="fill: none; stroke: #000000; stroke-width: 1.5; stroke-linecap: square"/>
   </g>
   <g id="line2d_7">
    <path d="M 29.453061 104.152494 
L 28.392841 105.507117 
L 27.33262 106.86174 
L 26.2724 108.216363 
L 25.21218 109.570986 
L 24.372988 110.689958 
L 23.533796 111.80893 
L 22.694604 112.927902 
L 21.855413 114.046875 
L 21.016221 115.165847 
L 20.177029 116.284819 
L 19.337837 117.403791 
L 18.498645 118.522764 
L 17.762441 119.788956 
L 17.026237 121.055149 
L 16.290032 122.321341 
L 15.553828 123.587534 
L 15.023359 125.118363 
L 14.492891 126.649191 
L 15.346897 127.65042 
L 16.200904 128.651649 
L 17.054911 129.652878 
L 17.908917 130.654107 
L 19.322544 131.713961 
L 20.736172 132.773816 
L 22.149799 133.833671 
L 23.563426 134.893526 
L 24.181828 135.835801 
L 24.80023 136.778077 
L 25.418632 137.720352 
L 26.037034 138.662627 
L 26.726046 139.222031 
L 27.415058 139.781435 
L 28.10407 140.34084 
L 28.793082 140.900244 
L 29.482093 141.459648 
L 30.171105 142.019052 
L 30.860117 142.578457 
L 31.549129 143.137861 
L 32.151521 144.109122 
L 32.753914 145.080382 
L 33.356306 146.051643 
L 33.958699 147.022904 
L 34.561091 147.994165 
L 35.163484 148.965425 
L 35.765876 149.936686 
L 36.368269 150.907947 
" clip-path="url(#pab5e3e1612)" style="fill: none; stroke: #008000; stroke-width: 1.5; stroke-linecap: square"/>
   </g>
   <g id="line2d_8">
    <path d="M 39.310219 152.807563 
L 40.223485 153.500923 
L 41.136751 154.194283 
L 42.050018 154.887643 
L 42.963284 155.581003 
L 43.87655 156.274363 
L 44.789816 156.967723 
L 45.703083 157.661083 
L 46.616349 158.354443 
L 47.969522 159.301303 
L 49.322694 160.248164 
L 50.675867 161.195024 
L 52.02904 162.141885 
L 52.53645 163.27494 
L 53.04386 164.407996 
L 53.55127 165.541051 
L 54.05868 166.674107 
L 54.56609 167.807163 
L 55.0735 168.940218 
L 55.58091 170.073274 
L 56.08832 171.20633 
L 56.409707 172.28862 
L 56.731095 173.37091 
L 57.052482 174.4532 
L 57.37387 175.53549 
L 57.695257 176.61778 
L 58.016645 177.70007 
L 58.338032 178.78236 
L 58.65942 179.86465 
L 59.471132 181.285104 
L 60.282845 182.705559 
L 61.094557 184.126013 
L 61.90627 185.546468 
L 62.904244 186.662492 
L 63.902218 187.778517 
L 64.900192 188.894541 
L 65.898166 190.010566 
L 66.896139 191.126591 
L 67.894113 192.242615 
L 68.892087 193.35864 
L 69.890061 194.474664 
L 70.464974 195.895119 
L 71.039888 197.315573 
L 71.614801 198.736028 
L 72.189714 200.156482 
L 72.933924 201.526335 
L 73.678133 202.896188 
L 74.422342 204.26604 
L 75.166551 205.635893 
L 75.91076 207.005745 
L 76.65497 208.375598 
L 77.399179 209.745451 
L 78.143388 211.115303 
" clip-path="url(#pab5e3e1612)" style="fill: none; stroke: #008000; stroke-width: 1.5; stroke-linecap: square"/>
   </g>
   <g id="line2d_9">
    <path d="M 34.591438 118.901377 
L 35.616772 120.080777 
L 36.642105 121.260176 
L 37.667439 122.439576 
L 38.692773 123.618976 
L 39.923364 124.66966 
L 41.153956 125.720344 
L 42.384547 126.771029 
L 43.615139 127.821713 
L 44.537963 128.975239 
L 45.460787 130.128764 
L 46.383612 131.28229 
L 47.306436 132.435816 
L 47.767967 133.474054 
L 48.229499 134.512293 
L 48.691031 135.550531 
L 49.152562 136.58877 
L 49.614094 137.627009 
L 50.075625 138.665247 
L 50.537157 139.703486 
L 50.998688 140.741724 
L 51.70371 141.843829 
L 52.408731 142.945934 
L 53.113753 144.048039 
L 53.818774 145.150144 
L 54.523796 146.252249 
L 55.228817 147.354354 
L 55.933839 148.456459 
L 56.63886 149.558564 
L 57.254036 150.417322 
L 57.869213 151.276079 
L 58.484389 152.134837 
L 59.099565 152.993594 
L 59.714742 153.852352 
L 60.329918 154.71111 
L 60.945094 155.569867 
L 61.56027 156.428625 
L 62.585724 157.479473 
L 63.611177 158.530321 
L 64.63663 159.581169 
L 65.662083 160.632017 
L 66.687536 161.682865 
L 67.712989 162.733713 
L 68.738443 163.784561 
L 69.763896 164.83541 
L 70.72531 165.732651 
L 71.686725 166.629892 
L 72.64814 167.527133 
L 73.609554 168.424374 
L 74.570969 169.321615 
L 75.532383 170.218857 
L 76.493798 171.116098 
L 77.455213 172.013339 
L 78.59572 172.830829 
L 79.736228 173.648319 
L 80.876735 174.465809 
L 82.017242 175.283299 
L 83.10542 175.846634 
L 84.193597 176.409968 
L 85.281775 176.973303 
L 86.369952 177.536637 
L 87.049526 178.168096 
L 87.729099 178.799555 
L 88.408672 179.431013 
L 89.088246 180.062472 
L 89.806051 180.908456 
L 90.523856 181.75444 
L 91.241661 182.600425 
L 91.959467 183.446409 
L 92.523388 184.881602 
L 93.08731 186.316795 
L 93.369271 187.803408 
L 93.651231 189.290022 
L 93.933192 190.776635 
L 94.215153 192.263249 
" clip-path="url(#pab5e3e1612)" style="fill: none; stroke: #008000; stroke-width: 1.5; stroke-linecap: square"/>
   </g>
   <g id="line2d_10">
    <path d="M 64.488839 161.372867 
L 64.693858 163.090383 
L 64.898877 164.807898 
L 65.103896 166.525413 
L 65.308915 168.242928 
L 65.590876 169.550061 
L 65.872837 170.857193 
L 66.154798 172.164326 
L 66.436758 173.471458 
L 67.116093 174.830011 
L 67.795427 176.188565 
L 68.474761 177.547118 
L 69.154096 178.905671 
L 70.038688 180.405058 
L 70.92328 181.904445 
L 71.807872 183.403831 
L 72.692465 184.903218 
L 73.743366 186.03087 
L 74.794267 187.158521 
L 75.845169 188.286173 
L 76.89607 189.413824 
L 77.819372 190.797924 
L 78.742674 192.182024 
L 79.229654 193.848118 
L 79.716634 195.514213 
L 80.203613 197.180308 
L 80.690593 198.846402 
L 81.043164 199.717769 
L 81.395734 200.589136 
L 81.748304 201.460503 
L 82.100875 202.33187 
L 82.453445 203.203238 
L 82.806016 204.074605 
L 83.158586 204.945972 
L 83.511157 205.817339 
L 84.331233 207.253187 
L 85.151308 208.689035 
" clip-path="url(#pab5e3e1612)" style="fill: none; stroke: #008000; stroke-width: 1.5; stroke-linecap: square"/>
   </g>
   <g id="line2d_11">
    <path d="M 35.390486 122.321996 
L 35.405301 123.3378 
L 35.420116 124.353603 
L 35.434931 125.369407 
L 35.449746 126.38521 
L 35.464561 127.401014 
L 35.479376 128.416817 
L 35.49419 129.43262 
L 35.509005 130.448424 
L 35.611993 131.508443 
L 35.71498 132.568461 
L 35.817967 133.62848 
L 35.920955 134.688499 
L 36.023942 135.748517 
L 36.12693 136.808536 
L 36.229917 137.868555 
L 36.332904 138.928573 
L 37.128129 140.165289 
L 37.923354 141.402005 
L 38.718579 142.63872 
L 39.513804 143.875436 
L 40.750609 144.523271 
L 41.987413 145.171105 
L 43.224217 145.81894 
L 44.461021 146.466775 
L 45.285637 146.878795 
L 46.110253 147.290815 
L 46.934869 147.702835 
L 47.759485 148.114856 
L 48.112891 149.822545 
L 48.466298 151.530235 
L 48.819705 153.237924 
L 49.173112 154.945614 
L 49.467498 155.799459 
L 49.761884 156.653304 
L 50.05627 157.507148 
L 50.350657 158.360993 
" clip-path="url(#pab5e3e1612)" style="fill: none; stroke: #4169e1; stroke-width: 1.5; stroke-linecap: square"/>
   </g>
   <g id="line2d_12">
    <path d="M 79.806479 111.335664 
L 79.828821 112.317569 
L 79.851162 113.299474 
L 79.873504 114.281379 
L 79.895846 115.263284 
L 79.918188 116.245189 
L 79.94053 117.227094 
L 79.962871 118.209 
L 79.985213 119.190905 
L 79.973983 120.641491 
L 79.962752 122.092077 
L 79.951521 123.542664 
L 79.940291 124.99325 
L 79.92906 126.443836 
L 79.917829 127.894423 
L 79.906599 129.345009 
L 79.895368 130.795595 
L 79.928881 132.50263 
L 79.962394 134.209664 
L 79.995906 135.916699 
L 80.029419 137.623733 
L 80.062932 139.330768 
L 80.096444 141.037802 
L 80.129957 142.744837 
L 80.16347 144.451871 
L 80.196983 146.158906 
L 80.230495 147.86594 
L 80.264008 149.572975 
L 80.297521 151.280009 
L 80.331033 152.987044 
L 80.364546 154.694079 
L 80.398059 156.401113 
L 80.431571 158.108148 
L 80.771896 159.034211 
L 81.11222 159.960273 
L 81.452544 160.886336 
L 81.792869 161.812399 
L 82.133193 162.738462 
L 82.473517 163.664525 
L 82.813841 164.590588 
L 83.154166 165.516651 
L 83.49449 166.442714 
L 83.834814 167.368777 
L 84.175139 168.29484 
L 84.515463 169.220903 
L 84.855787 170.146966 
L 85.196111 171.073029 
L 85.536436 171.999092 
L 85.87676 172.925155 
" clip-path="url(#pab5e3e1612)" style="fill: none; stroke: #000000; stroke-width: 1.5; stroke-linecap: square"/>
   </g>
   <g id="line2d_13">
    <path d="M 88.373308 104.641154 
L 88.878448 105.52513 
L 89.383588 106.409107 
L 89.888727 107.293084 
L 90.393867 108.17706 
L 90.899007 109.061037 
L 91.404147 109.945013 
L 91.909287 110.82899 
L 92.414427 111.712967 
L 93.317896 113.082492 
L 94.221366 114.452017 
L 95.124835 115.821542 
L 96.028304 117.191067 
L 96.931773 118.560592 
L 97.835243 119.930117 
L 98.738712 121.299643 
L 99.642181 122.669168 
L 100.254251 123.89311 
L 100.866321 125.117053 
L 101.478391 126.340995 
L 102.090461 127.564937 
L 102.702531 128.78888 
L 103.314601 130.012822 
L 103.926671 131.236765 
L 104.538741 132.460707 
L 104.6164 133.84972 
L 104.694058 135.238732 
L 104.771717 136.627745 
L 104.849376 138.016757 
L 104.927034 139.40577 
L 105.004693 140.794782 
L 105.082352 142.183795 
L 105.16001 143.572808 
L 104.732529 144.786924 
L 104.305048 146.001041 
L 103.877567 147.215158 
L 103.450086 148.429275 
L 103.022604 149.643392 
L 102.595123 150.857509 
L 102.167642 152.071625 
L 101.740161 153.285742 
L 100.865963 154.80085 
L 99.991765 156.315958 
L 99.117567 157.831066 
L 98.243369 159.346173 
L 97.369171 160.861281 
L 96.494973 162.376389 
L 95.620775 163.891497 
L 94.746577 165.406604 
" clip-path="url(#pab5e3e1612)" style="fill: none; stroke: #4169e1; stroke-width: 1.5; stroke-linecap: square"/>
   </g>
   <g id="line2d_14">
    <path d="M 85.503998 107.645168 
L 85.989783 108.70404 
L 86.475568 109.762912 
L 86.961353 110.821785 
L 87.447138 111.880657 
L 87.932923 112.939529 
L 88.418708 113.998402 
L 88.904493 115.057274 
L 89.390278 116.116146 
L 89.74482 116.927168 
L 90.099362 117.738189 
L 90.453904 118.549211 
L 90.808445 119.360233 
L 91.162987 120.171254 
L 91.517529 120.982276 
L 91.872071 121.793297 
L 92.226613 122.604319 
L 92.581154 123.41534 
L 92.935696 124.226362 
L 93.290238 125.037383 
L 93.64478 125.848405 
L 93.999321 126.659426 
L 94.353863 127.470448 
L 94.708405 128.281469 
L 95.062947 129.092491 
L 95.121251 130.306608 
L 95.179554 131.520725 
L 95.237858 132.734841 
L 95.296162 133.948958 
L 95.354466 135.163075 
L 95.412769 136.377192 
L 95.471073 137.591309 
L 95.529377 138.805426 
L 95.2283 140.505255 
L 94.927223 142.205084 
L 94.626147 143.904913 
L 94.32507 145.604742 
L 94.023993 147.304571 
L 93.722916 149.0044 
L 93.42184 150.704229 
L 93.120763 152.404058 
L 92.984681 153.355832 
L 92.848599 154.307605 
L 92.712517 155.259378 
L 92.576435 156.211151 
L 92.440353 157.162925 
L 92.304271 158.114698 
L 92.168189 159.066471 
L 92.032107 160.018245 
" clip-path="url(#pab5e3e1612)" style="fill: none; stroke: #000000; stroke-width: 1.5; stroke-linecap: square"/>
   </g>
   <g id="line2d_15">
    <path d="M 83.643057 109.033853 
L 83.863429 110.554119 
L 84.0838 112.074385 
L 84.304171 113.594651 
L 84.524543 115.114918 
L 84.744914 116.635184 
L 84.965286 118.15545 
L 85.185657 119.675716 
L 85.406029 121.195982 
L 85.6264 122.716249 
L 85.846772 124.236515 
L 86.067143 125.756781 
L 86.287515 127.277047 
L 86.507886 128.797313 
L 86.728258 130.31758 
L 86.948629 131.837846 
L 87.169001 133.358112 
L 87.314043 134.641172 
L 87.459086 135.924232 
L 87.604128 137.207292 
L 87.749171 138.490351 
L 87.894213 139.773411 
L 88.039256 141.056471 
L 88.184298 142.339531 
L 88.329341 143.622591 
" clip-path="url(#pab5e3e1612)" style="fill: none; stroke: #000000; stroke-width: 1.5; stroke-linecap: square"/>
   </g>
   <g id="line2d_16">
    <path d="M 89.091113 151.177823 
L 89.247326 152.605974 
L 89.40354 154.034126 
L 89.559753 155.462277 
L 89.715967 156.890428 
L 89.87218 158.318579 
L 90.028394 159.74673 
L 90.184607 161.174882 
L 90.340821 162.603033 
L 90.497034 164.031184 
L 90.653247 165.459335 
L 90.809461 166.887486 
L 90.965674 168.315638 
L 91.121888 169.743789 
L 91.278101 171.17194 
L 91.434315 172.600091 
L 91.590528 174.028242 
" clip-path="url(#pab5e3e1612)" style="fill: none; stroke: #008000; stroke-width: 1.5; stroke-linecap: square"/>
   </g>
   <g id="line2d_17">
    <path d="M 110.71416 132.057202 
L 110.697254 133.342473 
L 110.680349 134.627744 
L 110.663443 135.913014 
L 110.646537 137.198285 
L 110.629632 138.483555 
L 110.612726 139.768826 
L 110.59582 141.054096 
L 110.578915 142.339367 
L 110.562009 143.624638 
L 110.545103 144.909908 
L 110.528197 146.195179 
L 110.511292 147.480449 
L 110.494386 148.76572 
L 110.47748 150.05099 
L 110.460575 151.336261 
L 110.443669 152.621532 
L 110.409858 154.177252 
L 110.376046 155.732972 
L 110.342235 157.288692 
L 110.308423 158.844413 
L 110.274612 160.400133 
L 110.240801 161.955853 
L 110.206989 163.511573 
L 110.173178 165.067294 
" clip-path="url(#pab5e3e1612)" style="fill: none; stroke: #4169e1; stroke-width: 1.5; stroke-linecap: square"/>
   </g>
   <g id="line2d_18">
    <path d="M 127.260001 124.532102 
L 127.392499 125.489115 
L 127.524997 126.446129 
L 127.657494 127.403142 
L 127.789992 128.360156 
L 127.92249 129.31717 
L 128.054988 130.274183 
L 128.187485 131.231197 
L 128.319983 132.18821 
L 128.526077 133.14506 
L 128.732171 134.10191 
L 128.938266 135.05876 
L 129.14436 136.01561 
L 129.350454 136.97246 
L 129.556548 137.92931 
L 129.762642 138.886159 
L 129.968737 139.843009 
L 129.173751 141.286063 
L 128.378765 142.729116 
L 127.583778 144.172169 
L 126.788792 145.615223 
L 126.42069 146.807559 
L 126.052588 147.999896 
L 125.684486 149.192233 
L 125.316384 150.38457 
L 124.948281 151.576906 
L 124.580179 152.769243 
L 124.212077 153.96158 
L 123.843975 155.153917 
L 123.534774 156.449586 
L 123.225573 157.745255 
L 122.916372 159.040925 
L 122.607171 160.336594 
L 122.297969 161.632263 
L 121.988768 162.927933 
L 121.679567 164.223602 
L 121.370366 165.519271 
L 121.04647 166.976572 
L 120.722573 168.433872 
L 120.398677 169.891173 
L 120.07478 171.348473 
L 119.750884 172.805774 
L 119.426987 174.263074 
L 119.103091 175.720375 
L 118.779194 177.177675 
" clip-path="url(#pab5e3e1612)" style="fill: none; stroke: #008000; stroke-width: 1.5; stroke-linecap: square"/>
   </g>
   <g id="line2d_19">
    <path d="M 129.144838 121.704949 
L 130.205058 121.292928 
L 131.265278 120.880908 
L 132.325499 120.468888 
L 133.385719 120.056868 
L 134.4457 120.704702 
L 135.505682 121.352537 
L 136.565663 122.000372 
L 137.625645 122.648206 
L 137.934846 123.546266 
L 138.244047 124.444326 
L 138.553248 125.342386 
L 138.862449 126.240446 
L 139.17165 127.138506 
L 139.480851 128.036566 
L 139.790052 128.934626 
L 140.099253 129.832686 
L 140.45266 130.745485 
L 140.806067 131.658283 
L 141.159474 132.571081 
L 141.51288 133.48388 
L 142.160912 134.131714 
L 142.808944 134.779549 
L 143.456976 135.427384 
L 144.105008 136.075218 
L 144.516957 137.665001 
L 144.928907 139.254783 
L 143.948735 140.228173 
L 142.968563 141.201562 
L 142.065093 141.709055 
L 141.161624 142.216547 
L 140.258155 142.724039 
L 139.354686 143.231532 
L 138.451216 143.739024 
L 137.547747 144.246516 
L 136.644278 144.754009 
L 135.740808 145.261501 
L 134.79839 146.439263 
L 133.855972 147.617025 
L 133.679388 149.089228 
L 133.502804 150.56143 
L 133.326221 152.033633 
L 133.149637 153.505836 
L 133.090855 154.477588 
L 133.032073 155.44934 
L 132.973292 156.421092 
L 132.91451 157.392844 
L 132.531473 158.334791 
L 132.148437 159.276739 
L 131.7654 160.218687 
L 131.382364 161.160634 
L 130.027996 162.103237 
L 128.673629 163.04584 
L 128.20242 164.311705 
L 127.731211 165.57757 
L 127.260001 166.843435 
L 126.788792 168.1093 
L 126.229172 169.669933 
L 125.669551 171.230566 
L 125.109931 172.791199 
L 124.55031 174.351832 
L 123.51972 175.500118 
L 122.489129 176.648403 
L 121.458539 177.796688 
L 120.427948 178.944973 
L 119.544551 179.622285 
L 118.661153 180.299596 
L 117.777756 180.976908 
L 116.894358 181.654219 
L 116.069503 183.008187 
L 115.244649 184.362155 
" clip-path="url(#pab5e3e1612)" style="fill: none; stroke: #008000; stroke-width: 1.5; stroke-linecap: square"/>
   </g>
   <g id="line2d_20">
    <path d="M 96.899993 173.299838 
L 97.077593 174.342498 
L 97.255192 175.385158 
L 97.432791 176.427818 
L 97.610391 177.470478 
L 97.78799 178.513138 
L 97.96559 179.555798 
L 98.143189 180.598458 
L 98.320789 181.641119 
L 98.498388 182.683779 
L 98.675988 183.726439 
L 98.853587 184.769099 
L 99.031187 185.811759 
L 99.208786 186.854419 
L 99.386385 187.897079 
L 99.563985 188.939739 
L 99.741584 189.982399 
" clip-path="url(#pab5e3e1612)" style="fill: none; stroke: #008000; stroke-width: 1.5; stroke-linecap: square"/>
   </g>
   <g id="line2d_21">
    <path d="M 105.484982 167.557756 
L 105.496332 168.92155 
L 105.507682 170.285343 
L 105.519033 171.649137 
L 105.530383 173.01293 
L 105.541733 174.376724 
L 105.553083 175.740517 
L 105.564433 177.104311 
L 105.575783 178.468104 
L 105.587133 179.831898 
L 105.598483 181.195691 
L 105.609834 182.559485 
L 105.621184 183.923278 
L 105.632534 185.287072 
L 105.643884 186.650865 
L 105.655234 188.014659 
L 105.666584 189.378452 
" clip-path="url(#pab5e3e1612)" style="fill: none; stroke: #008000; stroke-width: 1.5; stroke-linecap: square"/>
   </g>
   <g id="line2d_22">
    <path d="M 84.420122 186.295834 
L 84.707817 187.399576 
L 84.995513 188.503319 
L 85.283209 189.607061 
L 85.570904 190.710804 
L 85.8586 191.814546 
L 86.146295 192.918289 
L 86.433991 194.022032 
L 86.721687 195.125774 
" clip-path="url(#pab5e3e1612)" style="fill: none; stroke: #008000; stroke-width: 1.5; stroke-linecap: square"/>
   </g>
   <g id="line2d_23">
    <path d="M 76.810048 115.043191 
L 71.56955 110.762125 
" clip-path="url(#pab5e3e1612)" style="fill: none; stroke-dasharray: 5.55,2.4; stroke-dashoffset: 0; stroke: #008000; stroke-width: 1.5"/>
   </g>
   <g id="line2d_24">
    <path d="M 75.486266 134.721906 
L 73.741932 135.287205 
L 72.987807 135.970576 
L 72.233681 136.653946 
L 71.479555 137.337317 
L 70.72543 138.020688 
L 70.75488 139.304812 
L 70.784331 140.588936 
L 70.760735 141.560852 
L 70.737138 142.532768 
L 70.713542 143.504683 
L 70.689946 144.476599 
L 70.666349 145.448515 
L 70.642753 146.420431 
L 70.760615 147.498381 
L 70.878477 148.576331 
L 71.014021 149.67205 
L 71.149566 150.767768 
L 71.28511 151.863486 
L 71.420654 152.959205 
L 71.532543 154.349364 
L 71.644431 155.739523 
L 71.761994 157.310145 
L 71.879557 158.880767 
L 71.907276 160.156622 
L 71.934994 161.432476 
L 71.847897 162.459907 
L 71.760799 163.487337 
L 72.109069 164.344457 
L 72.457338 165.201577 
L 72.207277 164.888959 
L 71.957216 164.576341 
L 71.957216 164.576341 
L 71.957216 164.576341 
L 71.957216 164.576341 
" clip-path="url(#pab5e3e1612)" style="fill: none; stroke-dasharray: 5.55,2.4; stroke-dashoffset: 0; stroke: #000000; stroke-width: 1.5"/>
   </g>
   <g id="line2d_25">
    <path d="M 44.762098 147.440164 
L 45.574528 147.819433 
L 45.290416 148.171189 
L 44.830438 148.685723 
L 44.444773 149.118868 
L 44.031867 149.430176 
L 43.618962 149.741484 
L 43.206057 150.052792 
L 42.826844 150.648223 
L 42.136517 151.040265 
L 41.216083 151.365165 
L 40.952282 151.412491 
L 40.688482 151.459818 
L 40.485374 151.487002 
L 40.282267 151.514186 
L 40.004727 151.405941 
L 39.727186 151.297696 
L 39.727186 151.297696 
L 39.727186 151.297696 
L 39.727186 151.297696 
" clip-path="url(#pab5e3e1612)" style="fill: none; stroke-dasharray: 5.55,2.4; stroke-dashoffset: 0; stroke: #008000; stroke-width: 1.5"/>
   </g>
   <g id="line2d_26">
    <path d="M 92.096146 149.152439 
L 91.811796 149.260521 
L 91.450145 148.426655 
L 91.281566 147.308338 
L 91.112987 146.19002 
L 90.944408 145.071703 
L 90.81197 144.195996 
L 90.665912 142.9854 
L 90.519854 141.774804 
L 90.373796 140.564208 
L 90.227738 139.353612 
L 90.217045 138.383252 
L 90.206352 137.412892 
L 90.195659 136.442532 
L 90.296854 135.080213 
L 90.368061 134.086844 
L 90.975471 133.361387 
L 90.680129 132.235701 
L 90.384787 131.110014 
L 90.089445 129.984328 
L 89.794103 128.858642 
L 89.671403 127.502627 
L 89.548702 126.146612 
L 89.249357 125.243885 
L 88.950013 124.341157 
L 88.650669 123.43843 
L 88.351324 122.535703 
L 88.05198 121.632976 
L 87.752636 120.730249 
L 87.437998 119.661715 
L 87.123361 118.593181 
L 86.803288 117.227913 
L 86.483215 115.862646 
L 86.179151 114.680298 
L 85.875087 113.497951 
L 85.571024 112.315604 
L 85.26696 111.133256 
L 85.101607 109.598497 
L 84.865763 108.312654 
L 85.247844 108.270076 
" clip-path="url(#pab5e3e1612)" style="fill: none; stroke-dasharray: 5.55,2.4; stroke-dashoffset: 0; stroke: #ff0000; stroke-width: 1.5"/>
   </g>
   <g id="line2d_27">
    <path d="M 134.296596 145.0794 
L 133.863141 146.107813 
L 133.409734 146.175446 
L 132.956326 146.243079 
L 132.577232 146.215731 
L 132.198138 146.188383 
L 131.690609 147.135571 
L 131.18308 148.082759 
L 130.831107 149.314562 
L 130.479133 150.546365 
L 130.025726 151.784554 
L 129.572319 153.022744 
L 128.956665 154.234077 
L 128.34101 155.44541 
L 127.711378 156.528191 
L 127.081745 157.610972 
L 126.885567 158.923673 
L 126.584371 160.063852 
L 126.242673 161.122806 
L 125.900974 162.18176 
L 125.559276 163.240714 
L 125.217578 164.299669 
L 124.706584 165.412664 
L 124.195589 166.525659 
L 124.023068 167.632103 
L 123.752457 168.951682 
L 123.481846 170.27126 
L 123.075751 171.442144 
L 122.628915 172.376067 
L 122.114456 173.390561 
L 121.599997 173.647828 
L 121.789484 173.607052 
L 121.789484 173.607052 
L 121.789484 173.607052 
L 121.789484 173.607052 
" clip-path="url(#pab5e3e1612)" style="fill: none; stroke-dasharray: 5.55,2.4; stroke-dashoffset: 0; stroke: #008000; stroke-width: 1.5"/>
   </g>
   <g id="line2d_28">
    <path d="M 138.113102 129.096421 
L 138.56424 128.645099 
L 138.677024 130.168231 
L 138.789808 131.691363 
L 138.943572 132.968363 
L 139.097337 134.245364 
L 139.297457 135.517288 
L 139.497578 136.789212 
L 139.892562 138.14318 
L 140.287546 139.497148 
L 140.821121 140.174132 
L 141.703084 140.153498 
L 142.010613 140.584187 
L 142.09305 140.358198 
" clip-path="url(#pab5e3e1612)" style="fill: none; stroke-dasharray: 5.55,2.4; stroke-dashoffset: 0; stroke: #008000; stroke-width: 1.5"/>
   </g>
   <g id="line2d_29">
    <path d="M 119.64706 124.287117 
L 118.519217 124.59433 
L 117.391374 124.901544 
L 116.340234 125.36302 
L 115.289093 125.824496 
L 114.237953 126.285972 
L 113.186813 126.747447 
L 112.571278 127.670399 
L 111.955743 128.59335 
L 112.520143 129.567395 
L 113.084542 130.54144 
L 114.212385 131.258709 
L 115.340229 131.975977 
L 116.57082 132.539967 
L 117.801412 133.103957 
L 118.519217 134.38587 
L 119.237022 135.667784 
L 119.237022 136.897949 
L 119.237022 138.128114 
L 119.26259 139.256093 
L 119.288158 140.384072 
L 119.313725 141.512051 
L 119.339293 142.64003 
L 119.0829 143.742135 
L 118.826507 144.84424 
L 118.570113 145.946345 
L 118.31372 147.04845 
L 117.980385 147.868888 
L 117.64705 148.689326 
L 117.313715 149.509764 
L 116.98038 150.330201 
L 116.929245 151.483399 
L 116.87811 152.636598 
L 116.826974 153.789796 
L 116.775839 154.942994 
L 116.545014 156.14794 
L 116.314188 157.352886 
L 116.083363 158.557833 
L 115.852537 159.762779 
L 115.519441 160.63431 
L 115.186345 161.505841 
L 114.853249 162.377372 
L 114.520153 163.248902 
L 114.212385 164.914997 
L 113.904618 166.581091 
L 113.596851 168.247186 
L 113.289083 169.91328 
L 113.212142 171.040932 
L 113.1352 172.168584 
L 113.058258 173.296235 
L 112.981316 174.423887 
L 112.571278 175.78244 
L 112.16124 177.140993 
L 111.751202 178.499546 
L 111.341164 179.858099 
L 111.315358 180.985751 
L 111.289551 182.113402 
L 111.263745 183.241054 
L 111.237938 184.368706 
L 111.109742 185.368297 
L 110.981545 186.367888 
L 110.853348 187.367479 
L 110.725152 188.36707 
L 110.596955 189.366662 
L 110.468759 190.366253 
L 110.340562 191.365844 
L 110.212365 192.365435 
L 110.032914 193.595928 
L 109.853463 194.826421 
L 109.674012 196.056914 
L 109.49456 197.287407 
L 109.443425 198.389512 
L 109.39229 199.491617 
L 109.341154 200.593722 
L 109.290019 201.695827 
" clip-path="url(#pab5e3e1612)" style="fill: none; stroke: #008000; stroke-width: 1.5; stroke-linecap: square"/>
   </g>
   <g id="line2d_30">
    <path d="M 98.393907 60.80587 
L 98.258542 59.664135 
L 98.123177 58.5224 
L 97.987812 57.380665 
L 97.852447 56.23893 
L 97.717082 55.097195 
L 97.581717 53.95546 
L 97.446352 52.813725 
L 97.310987 51.67199 
L 97.125084 50.640302 
L 96.939181 49.608614 
L 96.753278 48.576926 
L 96.567375 47.545238 
L 95.9246 46.124456 
L 95.281825 44.703674 
L 94.63905 43.282892 
L 93.996275 41.86211 
L 93.438088 40.779656 
L 92.879901 39.697202 
L 92.321715 38.614748 
L 91.763528 37.532295 
L 91.425175 36.416106 
L 91.086822 35.299918 
L 90.477978 34.420199 
L 89.869134 33.54048 
L 89.108078 32.999417 
L 88.347023 32.458354 
L 87.585968 31.917291 
L 86.824913 31.376228 
L 85.370186 30.496509 
L 83.91546 29.61679 
L 82.42728 29.346913 
L 81.513775 29.651179 
L 80.60027 29.955446 
L 79.686765 30.259712 
L 78.77326 30.563978 
L 77.352464 30.76704 
L 75.931668 30.970103 
L 75.035368 30.733306 
L 74.139067 30.496509 
L 73.242766 30.259712 
L 72.346465 30.022915 
L 71.449926 29.464821 
L 70.553386 28.906726 
L 69.656846 28.348632 
L 68.760306 27.790538 
L 67.779656 27.485944 
L 66.799006 27.181351 
L 65.648224 27.249475 
L 64.701027 27.756476 
L 63.75383 28.263477 
L 62.569953 29.151548 
L 61.386076 30.039618 
L 60.202199 30.927689 
L 59.018322 31.81576 
L 57.834445 32.70383 
L 56.650569 33.591901 
L 55.466692 34.479971 
L 54.282815 35.368042 
" clip-path="url(#pab5e3e1612)" style="fill: none; stroke: #008000; stroke-width: 1.5; stroke-linecap: square"/>
   </g>
   <g id="line2d_31">
    <path d="M 96.702143 56.814055 
L 95.232751 56.143867 
L 93.763359 55.473679 
L 92.293966 54.803491 
L 90.824574 54.133304 
L 89.355182 53.463116 
L 87.88579 52.792928 
L 86.416398 52.12274 
L 84.947006 51.452552 
L 83.477614 50.782364 
L 82.008222 50.112176 
L 80.53883 49.441988 
L 79.069438 48.7718 
L 77.600046 48.101612 
L 76.130654 47.431424 
L 74.661262 46.761237 
L 73.19187 46.091049 
L 71.722478 45.420861 
L 70.253086 44.750673 
L 68.783694 44.080485 
L 67.314302 43.410297 
L 65.84491 42.740109 
L 64.375518 42.069921 
L 62.906125 41.399733 
L 61.436733 40.729545 
L 59.967341 40.059357 
L 58.497949 39.38917 
L 57.028557 38.718982 
L 55.559165 38.048794 
L 54.089773 37.378606 
L 52.620381 36.708418 
L 51.150989 36.03823 
L 49.681597 35.368042 
" clip-path="url(#pab5e3e1612)" style="fill: none; stroke: #4169e1; stroke-width: 1.5; stroke-linecap: square"/>
   </g>
   <g id="line2d_32">
    <path d="M 104.143996 63.241309 
L 103.365975 63.680841 
L 102.587955 64.120373 
L 100.964052 63.91731 
L 99.729398 63.325481 
L 98.494744 62.733653 
L 97.26009 62.141824 
L 96.025437 61.549995 
L 94.562466 60.97487 
L 93.099496 60.399745 
L 91.636526 59.82462 
L 90.173556 59.249494 
L 88.710585 58.674369 
L 87.247615 58.099244 
L 85.784645 57.524119 
L 84.321675 56.948993 
L 83.17137 56.678462 
L 82.021066 56.40793 
L 80.465024 57.017118 
L 79.619142 57.964306 
L 78.77326 58.911494 
L 77.826063 59.621557 
L 76.878866 60.331621 
L 75.356755 60.737745 
L 73.834645 61.14387 
L 72.98924 61.752403 
L 72.143836 62.360935 
L 71.34885 63.130443 
L 70.553864 63.899952 
L 69.758878 64.66946 
L 68.963892 65.438968 
L 68.168906 66.208477 
L 67.37392 66.977985 
L 66.578934 67.747493 
L 65.783948 68.517002 
L 64.701505 69.193658 
L 63.619062 69.870315 
L 62.92563 71.240331 
L 62.232197 72.610347 
L 61.538765 73.980364 
L 60.845333 75.35038 
" clip-path="url(#pab5e3e1612)" style="fill: none; stroke: #008000; stroke-width: 1.5; stroke-linecap: square"/>
   </g>
   <g id="line2d_33">
    <path d="M 80.532886 55.663805 
L 79.382701 54.961929 
L 78.232516 54.260054 
L 77.082331 53.558178 
L 75.932146 52.856303 
L 74.781961 52.154427 
L 73.631776 51.452552 
L 72.481591 50.750676 
L 71.331407 50.048801 
L 70.532239 49.663965 
L 69.733071 49.279129 
L 68.933904 48.894293 
L 68.134736 48.509457 
L 67.335568 48.124621 
L 66.5364 47.739785 
L 65.737233 47.354949 
L 64.938065 46.970112 
L 64.138897 46.585276 
L 63.33973 46.20044 
L 62.540562 45.815604 
L 61.741394 45.430768 
L 60.942227 45.045932 
L 60.143059 44.661096 
L 59.343891 44.27626 
L 58.544724 43.891424 
L 57.572198 43.460244 
L 56.599672 43.029064 
L 55.627146 42.597883 
L 54.654621 42.166703 
L 53.682095 41.735523 
L 52.709569 41.304343 
L 51.737043 40.873163 
L 50.764518 40.441983 
" clip-path="url(#pab5e3e1612)" style="fill: none; stroke: #4169e1; stroke-width: 1.5; stroke-linecap: square"/>
   </g>
   <g id="line2d_34">
    <path d="M 72.887448 60.399745 
L 71.703451 60.1713 
L 70.519455 59.942854 
L 69.335459 59.714409 
L 68.151462 59.485964 
L 66.967466 59.257519 
L 65.78347 59.029073 
L 64.599473 58.800628 
L 63.415477 58.572183 
L 62.400657 58.301651 
L 61.385837 58.03112 
L 60.371017 57.760588 
L 59.356197 57.490057 
L 58.273755 56.8134 
L 57.191312 56.136744 
L 56.506362 55.434868 
L 55.821413 54.732993 
L 55.136463 54.031117 
L 54.451513 53.329242 
L 53.766564 52.627366 
L 53.081614 51.925491 
L 52.396664 51.223615 
L 51.711715 50.52174 
" clip-path="url(#pab5e3e1612)" style="fill: none; stroke: #4169e1; stroke-width: 1.5; stroke-linecap: square"/>
   </g>
   <g id="line2d_35">
    <path d="M 58.342094 75.282256 
L 58.342094 75.282256 
L 57.555591 73.726372 
L 56.769088 72.170488 
L 55.982584 70.614604 
L 55.196081 69.05872 
L 54.409578 67.502836 
L 53.623074 65.946952 
L 52.836571 64.391068 
L 52.050068 62.835184 
L 51.796303 61.955465 
L 51.542538 61.075746 
L 51.288774 60.196027 
L 51.035009 59.316308 
L 50.903945 58.314261 
L 50.772881 57.312213 
L 50.641817 56.310166 
L 50.510753 55.308118 
L 50.379689 54.30607 
L 50.248625 53.304023 
L 50.117561 52.301975 
L 49.986497 51.299928 
L 49.855433 50.29788 
L 49.724369 49.295832 
L 49.593305 48.293785 
L 49.462241 47.291737 
L 49.331177 46.28969 
L 49.200113 45.287642 
L 49.069049 44.285594 
L 48.937985 43.283547 
L 48.777291 42.412507 
L 48.616598 41.541468 
L 48.455904 40.670428 
L 48.29521 39.799388 
L 48.134516 38.928349 
L 47.973823 38.057309 
L 47.813129 37.18627 
L 47.652435 36.31523 
" clip-path="url(#pab5e3e1612)" style="fill: none; stroke: #008000; stroke-width: 1.5; stroke-linecap: square"/>
   </g>
   <g id="line2d_36">
    <path d="M 56.786053 76.770507 
L 55.49214 76.905937 
L 54.198227 77.041366 
L 52.904313 77.176796 
L 51.6104 77.312225 
L 50.316487 77.447655 
L 49.022573 77.583084 
L 47.72866 77.718514 
L 46.434747 77.853944 
L 45.284442 78.259741 
L 44.134138 78.665538 
L 42.983834 79.071336 
L 41.833529 79.477133 
L 40.598875 80.356524 
L 39.364222 81.235916 
L 38.129568 82.115307 
L 36.894914 82.994698 
L 36.150825 84.49998 
L 35.406735 86.005263 
L 34.662645 87.510545 
L 33.918555 89.015827 
L 33.816763 89.997077 
L 33.71497 90.978327 
" clip-path="url(#pab5e3e1612)" style="fill: none; stroke: #008000; stroke-width: 1.5; stroke-linecap: square"/>
   </g>
   <g id="line2d_37">
    <path d="M 79.990948 99.704771 
L 79.822249 98.487052 
L 79.653551 97.269332 
L 79.112091 96.423676 
L 78.57063 95.578019 
L 78.02917 94.732362 
L 77.48771 93.886705 
L 76.735078 93.134064 
L 75.982445 92.381423 
L 75.229813 91.628782 
L 74.477181 90.876141 
L 73.724549 90.1235 
L 72.971917 89.370859 
L 72.219284 88.618218 
L 71.466652 87.865577 
L 70.71402 87.112935 
L 69.961388 86.360294 
L 69.208756 85.607653 
L 68.456123 84.855012 
L 67.703491 84.102371 
L 66.950859 83.34973 
L 66.198227 82.597089 
L 65.445595 81.844448 
L 64.557657 81.024174 
L 63.669719 80.2039 
L 62.781782 79.383626 
L 61.893844 78.563352 
L 61.005907 77.743078 
L 60.117969 76.922804 
L 59.230032 76.10253 
L 58.342094 75.282256 
L 58.342094 75.282256 
" clip-path="url(#pab5e3e1612)" style="fill: none; stroke: #008000; stroke-width: 1.5; stroke-linecap: square"/>
   </g>
   <g id="patch_3">
    <path d="M 7.97109 220.312001 
L 7.97109 17.984653 
" style="fill: none; stroke: #000000; stroke-width: 0.8; stroke-linejoin: miter; stroke-linecap: square"/>
   </g>
   <g id="patch_4">
    <path d="M 151.450708 220.312001 
L 151.450708 17.984653 
" style="fill: none; stroke: #000000; stroke-width: 0.8; stroke-linejoin: miter; stroke-linecap: square"/>
   </g>
   <g id="patch_5">
    <path d="M 7.97109 220.312001 
L 151.450708 220.312001 
" style="fill: none; stroke: #000000; stroke-width: 0.8; stroke-linejoin: miter; stroke-linecap: square"/>
   </g>
   <g id="patch_6">
    <path d="M 7.97109 17.984653 
L 151.450708 17.984653 
" style="fill: none; stroke: #000000; stroke-width: 0.8; stroke-linejoin: miter; stroke-linecap: square"/>
   </g>
   <g id="text_1">
    <g id="patch_7">
     <path d="M 48.70046 84.655124 
L 55.508265 85.955774 
L 55.879008 84.015248 
L 49.071203 82.714598 
z
" style="fill: #ffffff"/>
    </g>
    <!-- Breeze -->
    <g style="fill: #008000" transform="translate(48.801913 84.230685)rotate(-349.183827)scale(0.02 -0.02)">
     <defs>
      <path id="DejaVuSans-42" d="M 1259 2228 
L 1259 519 
L 2272 519 
Q 2781 519 3026 730 
Q 3272 941 3272 1375 
Q 3272 1813 3026 2020 
Q 2781 2228 2272 2228 
L 1259 2228 
z
M 1259 4147 
L 1259 2741 
L 2194 2741 
Q 2656 2741 2882 2914 
Q 3109 3088 3109 3444 
Q 3109 3797 2882 3972 
Q 2656 4147 2194 4147 
L 1259 4147 
z
M 628 4666 
L 2241 4666 
Q 2963 4666 3353 4366 
Q 3744 4066 3744 3513 
Q 3744 3084 3544 2831 
Q 3344 2578 2956 2516 
Q 3422 2416 3680 2098 
Q 3938 1781 3938 1306 
Q 3938 681 3513 340 
Q 3088 0 2303 0 
L 628 0 
L 628 4666 
z
" transform="scale(0.015625)"/>
      <path id="DejaVuSans-72" d="M 2631 2963 
Q 2534 3019 2420 3045 
Q 2306 3072 2169 3072 
Q 1681 3072 1420 2755 
Q 1159 2438 1159 1844 
L 1159 0 
L 581 0 
L 581 3500 
L 1159 3500 
L 1159 2956 
Q 1341 3275 1631 3429 
Q 1922 3584 2338 3584 
Q 2397 3584 2469 3576 
Q 2541 3569 2628 3553 
L 2631 2963 
z
" transform="scale(0.015625)"/>
      <path id="DejaVuSans-65" d="M 3597 1894 
L 3597 1613 
L 953 1613 
Q 991 1019 1311 708 
Q 1631 397 2203 397 
Q 2534 397 2845 478 
Q 3156 559 3463 722 
L 3463 178 
Q 3153 47 2828 -22 
Q 2503 -91 2169 -91 
Q 1331 -91 842 396 
Q 353 884 353 1716 
Q 353 2575 817 3079 
Q 1281 3584 2069 3584 
Q 2775 3584 3186 3129 
Q 3597 2675 3597 1894 
z
M 3022 2063 
Q 3016 2534 2758 2815 
Q 2500 3097 2075 3097 
Q 1594 3097 1305 2825 
Q 1016 2553 972 2059 
L 3022 2063 
z
" transform="scale(0.015625)"/>
      <path id="DejaVuSans-7a" d="M 353 3500 
L 3084 3500 
L 3084 2975 
L 922 459 
L 3084 459 
L 3084 0 
L 275 0 
L 275 525 
L 2438 3041 
L 353 3041 
L 353 3500 
z
" transform="scale(0.015625)"/>
     </defs>
     <use xlink:href="#DejaVuSans-42"/>
     <use xlink:href="#DejaVuSans-72" x="68.603516"/>
     <use xlink:href="#DejaVuSans-65" x="107.466797"/>
     <use xlink:href="#DejaVuSans-65" x="168.990234"/>
     <use xlink:href="#DejaVuSans-7a" x="230.513672"/>
     <use xlink:href="#DejaVuSans-65" x="283.003906"/>
    </g>
   </g>
   <g id="text_2">
    <g id="patch_8">
     <path d="M 48.179265 100.5979 
L 56.651288 97.320806 
L 55.938552 95.478226 
L 47.46653 98.75532 
z
" style="fill: #ffffff"/>
    </g>
    <!-- Eastwind -->
    <g style="fill: #4169e1" transform="translate(48.040647 100.184105)rotate(-21.147151)scale(0.02 -0.02)">
     <defs>
      <path id="DejaVuSans-45" d="M 628 4666 
L 3578 4666 
L 3578 4134 
L 1259 4134 
L 1259 2753 
L 3481 2753 
L 3481 2222 
L 1259 2222 
L 1259 531 
L 3634 531 
L 3634 0 
L 628 0 
L 628 4666 
z
" transform="scale(0.015625)"/>
      <path id="DejaVuSans-61" d="M 2194 1759 
Q 1497 1759 1228 1600 
Q 959 1441 959 1056 
Q 959 750 1161 570 
Q 1363 391 1709 391 
Q 2188 391 2477 730 
Q 2766 1069 2766 1631 
L 2766 1759 
L 2194 1759 
z
M 3341 1997 
L 3341 0 
L 2766 0 
L 2766 531 
Q 2569 213 2275 61 
Q 1981 -91 1556 -91 
Q 1019 -91 701 211 
Q 384 513 384 1019 
Q 384 1609 779 1909 
Q 1175 2209 1959 2209 
L 2766 2209 
L 2766 2266 
Q 2766 2663 2505 2880 
Q 2244 3097 1772 3097 
Q 1472 3097 1187 3025 
Q 903 2953 641 2809 
L 641 3341 
Q 956 3463 1253 3523 
Q 1550 3584 1831 3584 
Q 2591 3584 2966 3190 
Q 3341 2797 3341 1997 
z
" transform="scale(0.015625)"/>
      <path id="DejaVuSans-73" d="M 2834 3397 
L 2834 2853 
Q 2591 2978 2328 3040 
Q 2066 3103 1784 3103 
Q 1356 3103 1142 2972 
Q 928 2841 928 2578 
Q 928 2378 1081 2264 
Q 1234 2150 1697 2047 
L 1894 2003 
Q 2506 1872 2764 1633 
Q 3022 1394 3022 966 
Q 3022 478 2636 193 
Q 2250 -91 1575 -91 
Q 1294 -91 989 -36 
Q 684 19 347 128 
L 347 722 
Q 666 556 975 473 
Q 1284 391 1588 391 
Q 1994 391 2212 530 
Q 2431 669 2431 922 
Q 2431 1156 2273 1281 
Q 2116 1406 1581 1522 
L 1381 1569 
Q 847 1681 609 1914 
Q 372 2147 372 2553 
Q 372 3047 722 3315 
Q 1072 3584 1716 3584 
Q 2034 3584 2315 3537 
Q 2597 3491 2834 3397 
z
" transform="scale(0.015625)"/>
      <path id="DejaVuSans-74" d="M 1172 4494 
L 1172 3500 
L 2356 3500 
L 2356 3053 
L 1172 3053 
L 1172 1153 
Q 1172 725 1289 603 
Q 1406 481 1766 481 
L 2356 481 
L 2356 0 
L 1766 0 
Q 1100 0 847 248 
Q 594 497 594 1153 
L 594 3053 
L 172 3053 
L 172 3500 
L 594 3500 
L 594 4494 
L 1172 4494 
z
" transform="scale(0.015625)"/>
      <path id="DejaVuSans-77" d="M 269 3500 
L 844 3500 
L 1563 769 
L 2278 3500 
L 2956 3500 
L 3675 769 
L 4391 3500 
L 4966 3500 
L 4050 0 
L 3372 0 
L 2619 2869 
L 1863 0 
L 1184 0 
L 269 3500 
z
" transform="scale(0.015625)"/>
      <path id="DejaVuSans-69" d="M 603 3500 
L 1178 3500 
L 1178 0 
L 603 0 
L 603 3500 
z
M 603 4863 
L 1178 4863 
L 1178 4134 
L 603 4134 
L 603 4863 
z
" transform="scale(0.015625)"/>
      <path id="DejaVuSans-6e" d="M 3513 2113 
L 3513 0 
L 2938 0 
L 2938 2094 
Q 2938 2591 2744 2837 
Q 2550 3084 2163 3084 
Q 1697 3084 1428 2787 
Q 1159 2491 1159 1978 
L 1159 0 
L 581 0 
L 581 3500 
L 1159 3500 
L 1159 2956 
Q 1366 3272 1645 3428 
Q 1925 3584 2291 3584 
Q 2894 3584 3203 3211 
Q 3513 2838 3513 2113 
z
" transform="scale(0.015625)"/>
      <path id="DejaVuSans-64" d="M 2906 2969 
L 2906 4863 
L 3481 4863 
L 3481 0 
L 2906 0 
L 2906 525 
Q 2725 213 2448 61 
Q 2172 -91 1784 -91 
Q 1150 -91 751 415 
Q 353 922 353 1747 
Q 353 2572 751 3078 
Q 1150 3584 1784 3584 
Q 2172 3584 2448 3432 
Q 2725 3281 2906 2969 
z
M 947 1747 
Q 947 1113 1208 752 
Q 1469 391 1925 391 
Q 2381 391 2643 752 
Q 2906 1113 2906 1747 
Q 2906 2381 2643 2742 
Q 2381 3103 1925 3103 
Q 1469 3103 1208 2742 
Q 947 2381 947 1747 
z
" transform="scale(0.015625)"/>
     </defs>
     <use xlink:href="#DejaVuSans-45"/>
     <use xlink:href="#DejaVuSans-61" x="63.183594"/>
     <use xlink:href="#DejaVuSans-73" x="124.462891"/>
     <use xlink:href="#DejaVuSans-74" x="176.5625"/>
     <use xlink:href="#DejaVuSans-77" x="215.771484"/>
     <use xlink:href="#DejaVuSans-69" x="297.558594"/>
     <use xlink:href="#DejaVuSans-6e" x="325.341797"/>
     <use xlink:href="#DejaVuSans-64" x="388.720703"/>
    </g>
   </g>
   <g id="text_3">
    <g id="patch_9">
     <path d="M 52.924294 107.667328 
L 58.964859 104.708609 
L 58.095828 102.934383 
L 52.055263 105.893102 
z
" style="fill: #ffffff"/>
    </g>
    <!-- Duster -->
    <g style="fill: #4169e1" transform="translate(52.750497 107.267033)rotate(-26.095995)scale(0.02 -0.02)">
     <defs>
      <path id="DejaVuSans-44" d="M 1259 4147 
L 1259 519 
L 2022 519 
Q 2988 519 3436 956 
Q 3884 1394 3884 2338 
Q 3884 3275 3436 3711 
Q 2988 4147 2022 4147 
L 1259 4147 
z
M 628 4666 
L 1925 4666 
Q 3281 4666 3915 4102 
Q 4550 3538 4550 2338 
Q 4550 1131 3912 565 
Q 3275 0 1925 0 
L 628 0 
L 628 4666 
z
" transform="scale(0.015625)"/>
      <path id="DejaVuSans-75" d="M 544 1381 
L 544 3500 
L 1119 3500 
L 1119 1403 
Q 1119 906 1312 657 
Q 1506 409 1894 409 
Q 2359 409 2629 706 
Q 2900 1003 2900 1516 
L 2900 3500 
L 3475 3500 
L 3475 0 
L 2900 0 
L 2900 538 
Q 2691 219 2414 64 
Q 2138 -91 1772 -91 
Q 1169 -91 856 284 
Q 544 659 544 1381 
z
M 1991 3584 
L 1991 3584 
z
" transform="scale(0.015625)"/>
     </defs>
     <use xlink:href="#DejaVuSans-44"/>
     <use xlink:href="#DejaVuSans-75" x="77.001953"/>
     <use xlink:href="#DejaVuSans-73" x="140.380859"/>
     <use xlink:href="#DejaVuSans-74" x="192.480469"/>
     <use xlink:href="#DejaVuSans-65" x="231.689453"/>
     <use xlink:href="#DejaVuSans-72" x="293.212891"/>
    </g>
   </g>
   <g id="text_4">
    <g id="patch_10">
     <path d="M 36.905075 99.266319 
L 41.915708 94.477641 
L 40.550722 93.049388 
L 35.540088 97.838066 
z
" style="fill: #ffffff"/>
    </g>
    <!-- Breeze -->
    <g style="fill: #008000" transform="translate(36.618338 98.937346)rotate(-43.702469)scale(0.02 -0.02)">
     <use xlink:href="#DejaVuSans-42"/>
     <use xlink:href="#DejaVuSans-72" x="68.603516"/>
     <use xlink:href="#DejaVuSans-65" x="107.466797"/>
     <use xlink:href="#DejaVuSans-65" x="168.990234"/>
     <use xlink:href="#DejaVuSans-7a" x="230.513672"/>
     <use xlink:href="#DejaVuSans-65" x="283.003906"/>
    </g>
   </g>
   <g id="text_5">
    <g id="patch_11">
     <path d="M 54.920823 115.288933 
L 60.505184 109.563994 
L 59.09095 108.184488 
L 53.50659 113.909427 
z
" style="fill: #ffffff"/>
    </g>
    <!-- Cyclone -->
    <g style="fill: #4169e1" transform="translate(54.622727 114.970217)rotate(-45.71217)scale(0.02 -0.02)">
     <defs>
      <path id="DejaVuSans-43" d="M 4122 4306 
L 4122 3641 
Q 3803 3938 3442 4084 
Q 3081 4231 2675 4231 
Q 1875 4231 1450 3742 
Q 1025 3253 1025 2328 
Q 1025 1406 1450 917 
Q 1875 428 2675 428 
Q 3081 428 3442 575 
Q 3803 722 4122 1019 
L 4122 359 
Q 3791 134 3420 21 
Q 3050 -91 2638 -91 
Q 1578 -91 968 557 
Q 359 1206 359 2328 
Q 359 3453 968 4101 
Q 1578 4750 2638 4750 
Q 3056 4750 3426 4639 
Q 3797 4528 4122 4306 
z
" transform="scale(0.015625)"/>
      <path id="DejaVuSans-79" d="M 2059 -325 
Q 1816 -950 1584 -1140 
Q 1353 -1331 966 -1331 
L 506 -1331 
L 506 -850 
L 844 -850 
Q 1081 -850 1212 -737 
Q 1344 -625 1503 -206 
L 1606 56 
L 191 3500 
L 800 3500 
L 1894 763 
L 2988 3500 
L 3597 3500 
L 2059 -325 
z
" transform="scale(0.015625)"/>
      <path id="DejaVuSans-63" d="M 3122 3366 
L 3122 2828 
Q 2878 2963 2633 3030 
Q 2388 3097 2138 3097 
Q 1578 3097 1268 2742 
Q 959 2388 959 1747 
Q 959 1106 1268 751 
Q 1578 397 2138 397 
Q 2388 397 2633 464 
Q 2878 531 3122 666 
L 3122 134 
Q 2881 22 2623 -34 
Q 2366 -91 2075 -91 
Q 1284 -91 818 406 
Q 353 903 353 1747 
Q 353 2603 823 3093 
Q 1294 3584 2113 3584 
Q 2378 3584 2631 3529 
Q 2884 3475 3122 3366 
z
" transform="scale(0.015625)"/>
      <path id="DejaVuSans-6c" d="M 603 4863 
L 1178 4863 
L 1178 0 
L 603 0 
L 603 4863 
z
" transform="scale(0.015625)"/>
      <path id="DejaVuSans-6f" d="M 1959 3097 
Q 1497 3097 1228 2736 
Q 959 2375 959 1747 
Q 959 1119 1226 758 
Q 1494 397 1959 397 
Q 2419 397 2687 759 
Q 2956 1122 2956 1747 
Q 2956 2369 2687 2733 
Q 2419 3097 1959 3097 
z
M 1959 3584 
Q 2709 3584 3137 3096 
Q 3566 2609 3566 1747 
Q 3566 888 3137 398 
Q 2709 -91 1959 -91 
Q 1206 -91 779 398 
Q 353 888 353 1747 
Q 353 2609 779 3096 
Q 1206 3584 1959 3584 
z
" transform="scale(0.015625)"/>
     </defs>
     <use xlink:href="#DejaVuSans-43"/>
     <use xlink:href="#DejaVuSans-79" x="69.824219"/>
     <use xlink:href="#DejaVuSans-63" x="129.003906"/>
     <use xlink:href="#DejaVuSans-6c" x="183.984375"/>
     <use xlink:href="#DejaVuSans-6f" x="211.767578"/>
     <use xlink:href="#DejaVuSans-6e" x="272.949219"/>
     <use xlink:href="#DejaVuSans-65" x="336.328125"/>
    </g>
   </g>
   <g id="text_6">
    <g id="patch_12">
     <path d="M 63.069416 136.511545 
L 63.224941 128.59401 
L 61.249697 128.55521 
L 61.094172 136.472745 
z
" style="fill: #ffffff"/>
    </g>
    <!-- Tornado -->
    <g transform="translate(62.633955 136.482987)rotate(-88.874678)scale(0.02 -0.02)">
     <defs>
      <path id="DejaVuSans-54" d="M -19 4666 
L 3928 4666 
L 3928 4134 
L 2272 4134 
L 2272 0 
L 1638 0 
L 1638 4134 
L -19 4134 
L -19 4666 
z
" transform="scale(0.015625)"/>
     </defs>
     <use xlink:href="#DejaVuSans-54"/>
     <use xlink:href="#DejaVuSans-6f" x="44.083984"/>
     <use xlink:href="#DejaVuSans-72" x="105.265625"/>
     <use xlink:href="#DejaVuSans-6e" x="144.628906"/>
     <use xlink:href="#DejaVuSans-61" x="208.007812"/>
     <use xlink:href="#DejaVuSans-64" x="269.287109"/>
     <use xlink:href="#DejaVuSans-6f" x="332.763672"/>
    </g>
   </g>
   <g id="text_7">
    <g id="patch_13">
     <path d="M 15.697249 128.709628 
L 21.999756 132.157043 
L 22.94784 130.423772 
L 16.645333 126.976356 
z
" style="fill: #ffffff"/>
    </g>
    <!-- Zephyr -->
    <g style="fill: #008000" transform="translate(15.923998 128.336765)rotate(-331.321728)scale(0.02 -0.02)">
     <defs>
      <path id="DejaVuSans-5a" d="M 359 4666 
L 4025 4666 
L 4025 4184 
L 1075 531 
L 4097 531 
L 4097 0 
L 288 0 
L 288 481 
L 3238 4134 
L 359 4134 
L 359 4666 
z
" transform="scale(0.015625)"/>
      <path id="DejaVuSans-70" d="M 1159 525 
L 1159 -1331 
L 581 -1331 
L 581 3500 
L 1159 3500 
L 1159 2969 
Q 1341 3281 1617 3432 
Q 1894 3584 2278 3584 
Q 2916 3584 3314 3078 
Q 3713 2572 3713 1747 
Q 3713 922 3314 415 
Q 2916 -91 2278 -91 
Q 1894 -91 1617 61 
Q 1341 213 1159 525 
z
M 3116 1747 
Q 3116 2381 2855 2742 
Q 2594 3103 2138 3103 
Q 1681 3103 1420 2742 
Q 1159 2381 1159 1747 
Q 1159 1113 1420 752 
Q 1681 391 2138 391 
Q 2594 391 2855 752 
Q 3116 1113 3116 1747 
z
" transform="scale(0.015625)"/>
      <path id="DejaVuSans-68" d="M 3513 2113 
L 3513 0 
L 2938 0 
L 2938 2094 
Q 2938 2591 2744 2837 
Q 2550 3084 2163 3084 
Q 1697 3084 1428 2787 
Q 1159 2491 1159 1978 
L 1159 0 
L 581 0 
L 581 4863 
L 1159 4863 
L 1159 2956 
Q 1366 3272 1645 3428 
Q 1925 3584 2291 3584 
Q 2894 3584 3203 3211 
Q 3513 2838 3513 2113 
z
" transform="scale(0.015625)"/>
     </defs>
     <use xlink:href="#DejaVuSans-5a"/>
     <use xlink:href="#DejaVuSans-65" x="68.505859"/>
     <use xlink:href="#DejaVuSans-70" x="130.029297"/>
     <use xlink:href="#DejaVuSans-68" x="193.505859"/>
     <use xlink:href="#DejaVuSans-79" x="256.884766"/>
     <use xlink:href="#DejaVuSans-72" x="316.064453"/>
    </g>
   </g>
   <g id="text_8">
    <g id="patch_14">
     <path d="M 56.155589 173.493039 
L 58.047842 178.142071 
L 59.8777 177.397281 
L 57.985447 172.748248 
z
" style="fill: #ffffff"/>
    </g>
    <!-- Blast -->
    <g style="fill: #008000" transform="translate(56.566902 173.347219)rotate(-292.147342)scale(0.02 -0.02)">
     <use xlink:href="#DejaVuSans-42"/>
     <use xlink:href="#DejaVuSans-6c" x="68.603516"/>
     <use xlink:href="#DejaVuSans-61" x="96.386719"/>
     <use xlink:href="#DejaVuSans-73" x="157.666016"/>
     <use xlink:href="#DejaVuSans-74" x="209.765625"/>
    </g>
   </g>
   <g id="text_9">
    <g id="patch_15">
     <path d="M 57.594254 151.344199 
L 66.394209 157.923404 
L 67.577194 156.341114 
L 58.777238 149.761909 
z
" style="fill: #ffffff"/>
    </g>
    <!-- Squall Line -->
    <g style="fill: #008000" transform="translate(57.871307 151.00703)rotate(-323.216715)scale(0.02 -0.02)">
     <defs>
      <path id="DejaVuSans-53" d="M 3425 4513 
L 3425 3897 
Q 3066 4069 2747 4153 
Q 2428 4238 2131 4238 
Q 1616 4238 1336 4038 
Q 1056 3838 1056 3469 
Q 1056 3159 1242 3001 
Q 1428 2844 1947 2747 
L 2328 2669 
Q 3034 2534 3370 2195 
Q 3706 1856 3706 1288 
Q 3706 609 3251 259 
Q 2797 -91 1919 -91 
Q 1588 -91 1214 -16 
Q 841 59 441 206 
L 441 856 
Q 825 641 1194 531 
Q 1563 422 1919 422 
Q 2459 422 2753 634 
Q 3047 847 3047 1241 
Q 3047 1584 2836 1778 
Q 2625 1972 2144 2069 
L 1759 2144 
Q 1053 2284 737 2584 
Q 422 2884 422 3419 
Q 422 4038 858 4394 
Q 1294 4750 2059 4750 
Q 2388 4750 2728 4690 
Q 3069 4631 3425 4513 
z
" transform="scale(0.015625)"/>
      <path id="DejaVuSans-71" d="M 947 1747 
Q 947 1113 1208 752 
Q 1469 391 1925 391 
Q 2381 391 2643 752 
Q 2906 1113 2906 1747 
Q 2906 2381 2643 2742 
Q 2381 3103 1925 3103 
Q 1469 3103 1208 2742 
Q 947 2381 947 1747 
z
M 2906 525 
Q 2725 213 2448 61 
Q 2172 -91 1784 -91 
Q 1150 -91 751 415 
Q 353 922 353 1747 
Q 353 2572 751 3078 
Q 1150 3584 1784 3584 
Q 2172 3584 2448 3432 
Q 2725 3281 2906 2969 
L 2906 3500 
L 3481 3500 
L 3481 -1331 
L 2906 -1331 
L 2906 525 
z
" transform="scale(0.015625)"/>
      <path id="DejaVuSans-20" transform="scale(0.015625)"/>
      <path id="DejaVuSans-4c" d="M 628 4666 
L 1259 4666 
L 1259 531 
L 3531 531 
L 3531 0 
L 628 0 
L 628 4666 
z
" transform="scale(0.015625)"/>
     </defs>
     <use xlink:href="#DejaVuSans-53"/>
     <use xlink:href="#DejaVuSans-71" x="63.476562"/>
     <use xlink:href="#DejaVuSans-75" x="126.953125"/>
     <use xlink:href="#DejaVuSans-61" x="190.332031"/>
     <use xlink:href="#DejaVuSans-6c" x="251.611328"/>
     <use xlink:href="#DejaVuSans-6c" x="279.394531"/>
     <use xlink:href="#DejaVuSans-20" x="307.177734"/>
     <use xlink:href="#DejaVuSans-4c" x="338.964844"/>
     <use xlink:href="#DejaVuSans-69" x="394.677734"/>
     <use xlink:href="#DejaVuSans-6e" x="422.460938"/>
     <use xlink:href="#DejaVuSans-65" x="485.839844"/>
    </g>
   </g>
   <g id="text_10">
    <g id="patch_16">
     <path d="M 68.458416 178.635806 
L 79.912286 187.602536 
L 81.130119 186.046908 
L 69.676248 177.080178 
z
" style="fill: #ffffff"/>
    </g>
    <!-- Lower Tornado -->
    <g style="fill: #008000" transform="translate(68.742889 178.304873)rotate(-321.944177)scale(0.02 -0.02)">
     <use xlink:href="#DejaVuSans-4c"/>
     <use xlink:href="#DejaVuSans-6f" x="53.962891"/>
     <use xlink:href="#DejaVuSans-77" x="115.144531"/>
     <use xlink:href="#DejaVuSans-65" x="196.931641"/>
     <use xlink:href="#DejaVuSans-72" x="258.455078"/>
     <use xlink:href="#DejaVuSans-20" x="299.568359"/>
     <use xlink:href="#DejaVuSans-54" x="331.355469"/>
     <use xlink:href="#DejaVuSans-6f" x="375.439453"/>
     <use xlink:href="#DejaVuSans-72" x="436.621094"/>
     <use xlink:href="#DejaVuSans-6e" x="475.984375"/>
     <use xlink:href="#DejaVuSans-61" x="539.363281"/>
     <use xlink:href="#DejaVuSans-64" x="600.642578"/>
     <use xlink:href="#DejaVuSans-6f" x="664.119141"/>
    </g>
   </g>
   <g id="text_11">
    <g id="patch_17">
     <path d="M 31.67996 129.360117 
L 42.684617 141.84617 
L 44.166749 140.539885 
L 33.162091 128.053832 
z
" style="fill: #ffffff"/>
    </g>
    <!-- Lower East Wind -->
    <g style="fill: #4169e1" transform="translate(32.020228 129.086879)rotate(-311.391531)scale(0.02 -0.02)">
     <defs>
      <path id="DejaVuSans-57" d="M 213 4666 
L 850 4666 
L 1831 722 
L 2809 4666 
L 3519 4666 
L 4500 722 
L 5478 4666 
L 6119 4666 
L 4947 0 
L 4153 0 
L 3169 4050 
L 2175 0 
L 1381 0 
L 213 4666 
z
" transform="scale(0.015625)"/>
     </defs>
     <use xlink:href="#DejaVuSans-4c"/>
     <use xlink:href="#DejaVuSans-6f" x="53.962891"/>
     <use xlink:href="#DejaVuSans-77" x="115.144531"/>
     <use xlink:href="#DejaVuSans-65" x="196.931641"/>
     <use xlink:href="#DejaVuSans-72" x="258.455078"/>
     <use xlink:href="#DejaVuSans-20" x="299.568359"/>
     <use xlink:href="#DejaVuSans-45" x="331.355469"/>
     <use xlink:href="#DejaVuSans-61" x="394.539062"/>
     <use xlink:href="#DejaVuSans-73" x="455.818359"/>
     <use xlink:href="#DejaVuSans-74" x="507.917969"/>
     <use xlink:href="#DejaVuSans-20" x="547.126953"/>
     <use xlink:href="#DejaVuSans-57" x="578.914062"/>
     <use xlink:href="#DejaVuSans-69" x="675.541016"/>
     <use xlink:href="#DejaVuSans-6e" x="703.324219"/>
     <use xlink:href="#DejaVuSans-64" x="766.703125"/>
    </g>
   </g>
   <g id="text_12">
    <g id="patch_18">
     <path d="M 79.044208 135.091886 
L 79.307821 144.88834 
L 81.282732 144.835197 
L 81.019118 135.038743 
z
" style="fill: #ffffff"/>
    </g>
    <!-- Hurricane -->
    <g transform="translate(79.480526 135.100152)rotate(-271.541403)scale(0.02 -0.02)">
     <defs>
      <path id="DejaVuSans-48" d="M 628 4666 
L 1259 4666 
L 1259 2753 
L 3553 2753 
L 3553 4666 
L 4184 4666 
L 4184 0 
L 3553 0 
L 3553 2222 
L 1259 2222 
L 1259 0 
L 628 0 
L 628 4666 
z
" transform="scale(0.015625)"/>
     </defs>
     <use xlink:href="#DejaVuSans-48"/>
     <use xlink:href="#DejaVuSans-75" x="75.195312"/>
     <use xlink:href="#DejaVuSans-72" x="138.574219"/>
     <use xlink:href="#DejaVuSans-72" x="177.9375"/>
     <use xlink:href="#DejaVuSans-69" x="219.050781"/>
     <use xlink:href="#DejaVuSans-63" x="246.833984"/>
     <use xlink:href="#DejaVuSans-61" x="301.814453"/>
     <use xlink:href="#DejaVuSans-6e" x="363.09375"/>
     <use xlink:href="#DejaVuSans-65" x="426.472656"/>
    </g>
   </g>
   <g id="text_13">
    <g id="patch_19">
     <path d="M 103.286326 125.91702 
L 103.821307 132.898114 
L 105.791156 132.747159 
L 105.256175 125.766065 
z
" style="fill: #ffffff"/>
    </g>
    <!-- Twister -->
    <g style="fill: #4169e1" transform="translate(103.722517 125.903652)rotate(-274.382175)scale(0.02 -0.02)">
     <use xlink:href="#DejaVuSans-54"/>
     <use xlink:href="#DejaVuSans-77" x="44.583984"/>
     <use xlink:href="#DejaVuSans-69" x="126.371094"/>
     <use xlink:href="#DejaVuSans-73" x="154.154297"/>
     <use xlink:href="#DejaVuSans-74" x="206.253906"/>
     <use xlink:href="#DejaVuSans-65" x="245.462891"/>
     <use xlink:href="#DejaVuSans-72" x="306.986328"/>
    </g>
   </g>
   <g id="text_14">
    <g id="patch_20">
     <path d="M 93.588223 114.669979 
L 94.566311 129.529699 
L 96.53767 129.399941 
L 95.559583 114.540221 
z
" style="fill: #ffffff"/>
    </g>
    <!-- F.I.S. Race Trail -->
    <g transform="translate(94.024533 114.661303)rotate(-273.765857)scale(0.02 -0.02)">
     <defs>
      <path id="DejaVuSans-46" d="M 628 4666 
L 3309 4666 
L 3309 4134 
L 1259 4134 
L 1259 2759 
L 3109 2759 
L 3109 2228 
L 1259 2228 
L 1259 0 
L 628 0 
L 628 4666 
z
" transform="scale(0.015625)"/>
      <path id="DejaVuSans-2e" d="M 684 794 
L 1344 794 
L 1344 0 
L 684 0 
L 684 794 
z
" transform="scale(0.015625)"/>
      <path id="DejaVuSans-49" d="M 628 4666 
L 1259 4666 
L 1259 0 
L 628 0 
L 628 4666 
z
" transform="scale(0.015625)"/>
      <path id="DejaVuSans-52" d="M 2841 2188 
Q 3044 2119 3236 1894 
Q 3428 1669 3622 1275 
L 4263 0 
L 3584 0 
L 2988 1197 
Q 2756 1666 2539 1819 
Q 2322 1972 1947 1972 
L 1259 1972 
L 1259 0 
L 628 0 
L 628 4666 
L 2053 4666 
Q 2853 4666 3247 4331 
Q 3641 3997 3641 3322 
Q 3641 2881 3436 2590 
Q 3231 2300 2841 2188 
z
M 1259 4147 
L 1259 2491 
L 2053 2491 
Q 2509 2491 2742 2702 
Q 2975 2913 2975 3322 
Q 2975 3731 2742 3939 
Q 2509 4147 2053 4147 
L 1259 4147 
z
" transform="scale(0.015625)"/>
     </defs>
     <use xlink:href="#DejaVuSans-46"/>
     <use xlink:href="#DejaVuSans-2e" x="41.394531"/>
     <use xlink:href="#DejaVuSans-49" x="73.181641"/>
     <use xlink:href="#DejaVuSans-2e" x="102.673828"/>
     <use xlink:href="#DejaVuSans-53" x="134.460938"/>
     <use xlink:href="#DejaVuSans-2e" x="197.9375"/>
     <use xlink:href="#DejaVuSans-20" x="229.724609"/>
     <use xlink:href="#DejaVuSans-52" x="261.511719"/>
     <use xlink:href="#DejaVuSans-61" x="328.744141"/>
     <use xlink:href="#DejaVuSans-63" x="390.023438"/>
     <use xlink:href="#DejaVuSans-65" x="445.003906"/>
     <use xlink:href="#DejaVuSans-20" x="506.527344"/>
     <use xlink:href="#DejaVuSans-54" x="538.314453"/>
     <use xlink:href="#DejaVuSans-72" x="584.648438"/>
     <use xlink:href="#DejaVuSans-61" x="625.761719"/>
     <use xlink:href="#DejaVuSans-69" x="687.041016"/>
     <use xlink:href="#DejaVuSans-6c" x="714.824219"/>
    </g>
   </g>
   <g id="text_15">
    <g id="patch_21">
     <path d="M 84.688946 121.377899 
L 85.948336 127.716499 
L 87.886084 127.331496 
L 86.626694 120.992896 
z
" style="fill: #ffffff"/>
    </g>
    <!-- Vortex -->
    <g transform="translate(85.120423 121.312562)rotate(-281.237514)scale(0.02 -0.02)">
     <defs>
      <path id="DejaVuSans-56" d="M 1831 0 
L 50 4666 
L 709 4666 
L 2188 738 
L 3669 4666 
L 4325 4666 
L 2547 0 
L 1831 0 
z
" transform="scale(0.015625)"/>
      <path id="DejaVuSans-78" d="M 3513 3500 
L 2247 1797 
L 3578 0 
L 2900 0 
L 1881 1375 
L 863 0 
L 184 0 
L 1544 1831 
L 300 3500 
L 978 3500 
L 1906 2253 
L 2834 3500 
L 3513 3500 
z
" transform="scale(0.015625)"/>
     </defs>
     <use xlink:href="#DejaVuSans-56"/>
     <use xlink:href="#DejaVuSans-6f" x="60.658203"/>
     <use xlink:href="#DejaVuSans-72" x="121.839844"/>
     <use xlink:href="#DejaVuSans-74" x="162.953125"/>
     <use xlink:href="#DejaVuSans-65" x="202.162109"/>
     <use xlink:href="#DejaVuSans-78" x="261.935547"/>
    </g>
   </g>
   <g id="text_16">
    <g id="patch_22">
     <path d="M 88.423835 150.500937 
L 90.304017 163.041715 
L 92.257806 162.748792 
L 90.377624 150.208015 
z
" style="fill: #ffffff"/>
    </g>
    <!-- Knight Slope -->
    <g style="fill: #008000" transform="translate(88.85792 150.456081)rotate(-278.526589)scale(0.02 -0.02)">
     <defs>
      <path id="DejaVuSans-4b" d="M 628 4666 
L 1259 4666 
L 1259 2694 
L 3353 4666 
L 4166 4666 
L 1850 2491 
L 4331 0 
L 3500 0 
L 1259 2247 
L 1259 0 
L 628 0 
L 628 4666 
z
" transform="scale(0.015625)"/>
      <path id="DejaVuSans-67" d="M 2906 1791 
Q 2906 2416 2648 2759 
Q 2391 3103 1925 3103 
Q 1463 3103 1205 2759 
Q 947 2416 947 1791 
Q 947 1169 1205 825 
Q 1463 481 1925 481 
Q 2391 481 2648 825 
Q 2906 1169 2906 1791 
z
M 3481 434 
Q 3481 -459 3084 -895 
Q 2688 -1331 1869 -1331 
Q 1566 -1331 1297 -1286 
Q 1028 -1241 775 -1147 
L 775 -588 
Q 1028 -725 1275 -790 
Q 1522 -856 1778 -856 
Q 2344 -856 2625 -561 
Q 2906 -266 2906 331 
L 2906 616 
Q 2728 306 2450 153 
Q 2172 0 1784 0 
Q 1141 0 747 490 
Q 353 981 353 1791 
Q 353 2603 747 3093 
Q 1141 3584 1784 3584 
Q 2172 3584 2450 3431 
Q 2728 3278 2906 2969 
L 2906 3500 
L 3481 3500 
L 3481 434 
z
" transform="scale(0.015625)"/>
     </defs>
     <use xlink:href="#DejaVuSans-4b"/>
     <use xlink:href="#DejaVuSans-6e" x="65.576172"/>
     <use xlink:href="#DejaVuSans-69" x="128.955078"/>
     <use xlink:href="#DejaVuSans-67" x="156.738281"/>
     <use xlink:href="#DejaVuSans-68" x="220.214844"/>
     <use xlink:href="#DejaVuSans-74" x="283.59375"/>
     <use xlink:href="#DejaVuSans-20" x="322.802734"/>
     <use xlink:href="#DejaVuSans-53" x="354.589844"/>
     <use xlink:href="#DejaVuSans-6c" x="418.066406"/>
     <use xlink:href="#DejaVuSans-6f" x="445.849609"/>
     <use xlink:href="#DejaVuSans-70" x="507.03125"/>
     <use xlink:href="#DejaVuSans-65" x="570.507812"/>
    </g>
   </g>
   <g id="text_17">
    <g id="patch_23">
     <path d="M 111.40451 147.916744 
L 111.593377 137.440947 
L 109.618073 137.405334 
L 109.429206 147.881132 
z
" style="fill: #ffffff"/>
    </g>
    <!-- Downdraft -->
    <g style="fill: #4169e1" transform="translate(110.969004 147.888889)rotate(-88.967131)scale(0.02 -0.02)">
     <defs>
      <path id="DejaVuSans-66" d="M 2375 4863 
L 2375 4384 
L 1825 4384 
Q 1516 4384 1395 4259 
Q 1275 4134 1275 3809 
L 1275 3500 
L 2222 3500 
L 2222 3053 
L 1275 3053 
L 1275 0 
L 697 0 
L 697 3053 
L 147 3053 
L 147 3500 
L 697 3500 
L 697 3744 
Q 697 4328 969 4595 
Q 1241 4863 1831 4863 
L 2375 4863 
z
" transform="scale(0.015625)"/>
     </defs>
     <use xlink:href="#DejaVuSans-44"/>
     <use xlink:href="#DejaVuSans-6f" x="77.001953"/>
     <use xlink:href="#DejaVuSans-77" x="138.183594"/>
     <use xlink:href="#DejaVuSans-6e" x="219.970703"/>
     <use xlink:href="#DejaVuSans-64" x="283.349609"/>
     <use xlink:href="#DejaVuSans-72" x="346.826172"/>
     <use xlink:href="#DejaVuSans-61" x="387.939453"/>
     <use xlink:href="#DejaVuSans-66" x="449.21875"/>
     <use xlink:href="#DejaVuSans-74" x="482.673828"/>
    </g>
   </g>
   <g id="text_18">
    <g id="patch_24">
     <path d="M 125.363553 148.442047 
L 128.561057 140.885725 
L 126.741623 140.11582 
L 123.544119 147.672142 
z
" style="fill: #ffffff"/>
    </g>
    <!-- Whisper -->
    <g style="fill: #008000" transform="translate(124.969874 148.253742)rotate(-67.064049)scale(0.02 -0.02)">
     <use xlink:href="#DejaVuSans-57"/>
     <use xlink:href="#DejaVuSans-68" x="98.876953"/>
     <use xlink:href="#DejaVuSans-69" x="162.255859"/>
     <use xlink:href="#DejaVuSans-73" x="190.039062"/>
     <use xlink:href="#DejaVuSans-70" x="242.138672"/>
     <use xlink:href="#DejaVuSans-65" x="305.615234"/>
     <use xlink:href="#DejaVuSans-72" x="367.138672"/>
    </g>
   </g>
   <g id="text_19">
    <g id="patch_25">
     <path d="M 135.574543 145.197679 
L 138.809228 143.043107 
L 137.714012 141.398845 
L 134.479327 143.553418 
z
" style="fill: #ffffff"/>
    </g>
    <!-- Puff -->
    <g style="fill: #008000" transform="translate(135.349521 144.823772)rotate(-33.666955)scale(0.02 -0.02)">
     <defs>
      <path id="DejaVuSans-50" d="M 1259 4147 
L 1259 2394 
L 2053 2394 
Q 2494 2394 2734 2622 
Q 2975 2850 2975 3272 
Q 2975 3691 2734 3919 
Q 2494 4147 2053 4147 
L 1259 4147 
z
M 628 4666 
L 2053 4666 
Q 2838 4666 3239 4311 
Q 3641 3956 3641 3272 
Q 3641 2581 3239 2228 
Q 2838 1875 2053 1875 
L 1259 1875 
L 1259 0 
L 628 0 
L 628 4666 
z
" transform="scale(0.015625)"/>
     </defs>
     <use xlink:href="#DejaVuSans-50"/>
     <use xlink:href="#DejaVuSans-75" x="58.552734"/>
     <use xlink:href="#DejaVuSans-66" x="121.931641"/>
     <use xlink:href="#DejaVuSans-66" x="157.136719"/>
    </g>
   </g>
   <g id="text_20">
    <g id="patch_26">
     <path d="M 96.550135 175.153321 
L 98.167555 182.081079 
L 100.091442 181.631911 
L 98.474022 174.704152 
z
" style="fill: #ffffff"/>
    </g>
    <!-- Bluster -->
    <g style="fill: #008000" transform="translate(96.979203 175.073684)rotate(-283.141418)scale(0.02 -0.02)">
     <use xlink:href="#DejaVuSans-42"/>
     <use xlink:href="#DejaVuSans-6c" x="68.603516"/>
     <use xlink:href="#DejaVuSans-75" x="96.386719"/>
     <use xlink:href="#DejaVuSans-73" x="159.765625"/>
     <use xlink:href="#DejaVuSans-74" x="211.865234"/>
     <use xlink:href="#DejaVuSans-65" x="251.074219"/>
     <use xlink:href="#DejaVuSans-72" x="312.597656"/>
    </g>
   </g>
   <g id="text_21">
    <g id="patch_27">
     <path d="M 104.470237 158.251237 
L 104.705833 178.904269 
L 106.681329 178.881734 
L 106.445734 158.228702 
z
" style="fill: #ffffff"/>
    </g>
    <!-- Tubing Park at Gusty -->
    <g style="fill: #008000" transform="translate(104.906375 158.266263)rotate(-270.653562)scale(0.02 -0.02)">
     <defs>
      <path id="DejaVuSans-62" d="M 3116 1747 
Q 3116 2381 2855 2742 
Q 2594 3103 2138 3103 
Q 1681 3103 1420 2742 
Q 1159 2381 1159 1747 
Q 1159 1113 1420 752 
Q 1681 391 2138 391 
Q 2594 391 2855 752 
Q 3116 1113 3116 1747 
z
M 1159 2969 
Q 1341 3281 1617 3432 
Q 1894 3584 2278 3584 
Q 2916 3584 3314 3078 
Q 3713 2572 3713 1747 
Q 3713 922 3314 415 
Q 2916 -91 2278 -91 
Q 1894 -91 1617 61 
Q 1341 213 1159 525 
L 1159 0 
L 581 0 
L 581 4863 
L 1159 4863 
L 1159 2969 
z
" transform="scale(0.015625)"/>
      <path id="DejaVuSans-6b" d="M 581 4863 
L 1159 4863 
L 1159 1991 
L 2875 3500 
L 3609 3500 
L 1753 1863 
L 3688 0 
L 2938 0 
L 1159 1709 
L 1159 0 
L 581 0 
L 581 4863 
z
" transform="scale(0.015625)"/>
      <path id="DejaVuSans-47" d="M 3809 666 
L 3809 1919 
L 2778 1919 
L 2778 2438 
L 4434 2438 
L 4434 434 
Q 4069 175 3628 42 
Q 3188 -91 2688 -91 
Q 1594 -91 976 548 
Q 359 1188 359 2328 
Q 359 3472 976 4111 
Q 1594 4750 2688 4750 
Q 3144 4750 3555 4637 
Q 3966 4525 4313 4306 
L 4313 3634 
Q 3963 3931 3569 4081 
Q 3175 4231 2741 4231 
Q 1884 4231 1454 3753 
Q 1025 3275 1025 2328 
Q 1025 1384 1454 906 
Q 1884 428 2741 428 
Q 3075 428 3337 486 
Q 3600 544 3809 666 
z
" transform="scale(0.015625)"/>
     </defs>
     <use xlink:href="#DejaVuSans-54"/>
     <use xlink:href="#DejaVuSans-75" x="45.958984"/>
     <use xlink:href="#DejaVuSans-62" x="109.337891"/>
     <use xlink:href="#DejaVuSans-69" x="172.814453"/>
     <use xlink:href="#DejaVuSans-6e" x="200.597656"/>
     <use xlink:href="#DejaVuSans-67" x="263.976562"/>
     <use xlink:href="#DejaVuSans-20" x="327.453125"/>
     <use xlink:href="#DejaVuSans-50" x="359.240234"/>
     <use xlink:href="#DejaVuSans-61" x="415.042969"/>
     <use xlink:href="#DejaVuSans-72" x="476.322266"/>
     <use xlink:href="#DejaVuSans-6b" x="517.435547"/>
     <use xlink:href="#DejaVuSans-20" x="575.345703"/>
     <use xlink:href="#DejaVuSans-61" x="607.132812"/>
     <use xlink:href="#DejaVuSans-74" x="668.412109"/>
     <use xlink:href="#DejaVuSans-20" x="707.621094"/>
     <use xlink:href="#DejaVuSans-47" x="739.408203"/>
     <use xlink:href="#DejaVuSans-75" x="816.898438"/>
     <use xlink:href="#DejaVuSans-73" x="880.277344"/>
     <use xlink:href="#DejaVuSans-74" x="932.376953"/>
     <use xlink:href="#DejaVuSans-79" x="971.585938"/>
    </g>
   </g>
   <g id="text_22">
    <g id="patch_28">
     <path d="M 82.061004 176.711274 
L 87.220351 191.152304 
L 89.080805 190.48762 
L 83.921457 176.046589 
z
" style="fill: #ffffff"/>
    </g>
    <!-- Beginners Area -->
    <g style="fill: #008000" transform="translate(82.478257 176.58344)rotate(-289.660286)scale(0.02 -0.02)">
     <defs>
      <path id="DejaVuSans-41" d="M 2188 4044 
L 1331 1722 
L 3047 1722 
L 2188 4044 
z
M 1831 4666 
L 2547 4666 
L 4325 0 
L 3669 0 
L 3244 1197 
L 1141 1197 
L 716 0 
L 50 0 
L 1831 4666 
z
" transform="scale(0.015625)"/>
     </defs>
     <use xlink:href="#DejaVuSans-42"/>
     <use xlink:href="#DejaVuSans-65" x="68.603516"/>
     <use xlink:href="#DejaVuSans-67" x="130.126953"/>
     <use xlink:href="#DejaVuSans-69" x="193.603516"/>
     <use xlink:href="#DejaVuSans-6e" x="221.386719"/>
     <use xlink:href="#DejaVuSans-6e" x="284.765625"/>
     <use xlink:href="#DejaVuSans-65" x="348.144531"/>
     <use xlink:href="#DejaVuSans-72" x="409.667969"/>
     <use xlink:href="#DejaVuSans-73" x="450.78125"/>
     <use xlink:href="#DejaVuSans-20" x="502.880859"/>
     <use xlink:href="#DejaVuSans-41" x="534.667969"/>
     <use xlink:href="#DejaVuSans-72" x="603.076172"/>
     <use xlink:href="#DejaVuSans-65" x="641.939453"/>
     <use xlink:href="#DejaVuSans-61" x="703.462891"/>
    </g>
   </g>
   <g id="text_23">
    <g id="patch_29">
     <path d="M 66.111112 111.198062 
L 77.027987 111.198062 
L 77.027987 109.222437 
L 66.111112 109.222437 
z
" style="fill: #ffffff"/>
    </g>
    <!-- Tree Skiing -->
    <g style="fill: #008000" transform="translate(66.131112 110.762125)scale(0.02 -0.02)">
     <use xlink:href="#DejaVuSans-54"/>
     <use xlink:href="#DejaVuSans-72" x="46.333984"/>
     <use xlink:href="#DejaVuSans-65" x="85.197266"/>
     <use xlink:href="#DejaVuSans-65" x="146.720703"/>
     <use xlink:href="#DejaVuSans-20" x="208.244141"/>
     <use xlink:href="#DejaVuSans-53" x="240.03125"/>
     <use xlink:href="#DejaVuSans-6b" x="303.507812"/>
     <use xlink:href="#DejaVuSans-69" x="361.417969"/>
     <use xlink:href="#DejaVuSans-69" x="389.201172"/>
     <use xlink:href="#DejaVuSans-6e" x="416.984375"/>
     <use xlink:href="#DejaVuSans-67" x="480.363281"/>
    </g>
   </g>
   <g id="text_24">
    <g id="patch_30">
     <path d="M 69.263166 140.443514 
L 71.088141 151.206768 
L 73.035966 150.876502 
L 71.21099 140.113249 
z
" style="fill: #ffffff"/>
    </g>
    <!-- Tree Skiing -->
    <g transform="translate(69.696312 140.390357)rotate(-279.623325)scale(0.02 -0.02)">
     <use xlink:href="#DejaVuSans-54"/>
     <use xlink:href="#DejaVuSans-72" x="46.333984"/>
     <use xlink:href="#DejaVuSans-65" x="85.197266"/>
     <use xlink:href="#DejaVuSans-65" x="146.720703"/>
     <use xlink:href="#DejaVuSans-20" x="208.244141"/>
     <use xlink:href="#DejaVuSans-53" x="240.03125"/>
     <use xlink:href="#DejaVuSans-6b" x="303.507812"/>
     <use xlink:href="#DejaVuSans-69" x="361.417969"/>
     <use xlink:href="#DejaVuSans-69" x="389.201172"/>
     <use xlink:href="#DejaVuSans-6e" x="416.984375"/>
     <use xlink:href="#DejaVuSans-67" x="480.363281"/>
    </g>
   </g>
   <g id="text_25">
    <g id="patch_31">
     <path d="M 35.932008 151.803529 
L 46.756556 150.386729 
L 46.500158 148.427812 
L 35.67561 149.844612 
z
" style="fill: #ffffff"/>
    </g>
    <!-- Tree Skiing -->
    <g style="fill: #008000" transform="translate(35.895262 151.368682)rotate(-7.456922)scale(0.02 -0.02)">
     <use xlink:href="#DejaVuSans-54"/>
     <use xlink:href="#DejaVuSans-72" x="46.333984"/>
     <use xlink:href="#DejaVuSans-65" x="85.197266"/>
     <use xlink:href="#DejaVuSans-65" x="146.720703"/>
     <use xlink:href="#DejaVuSans-20" x="208.244141"/>
     <use xlink:href="#DejaVuSans-53" x="240.03125"/>
     <use xlink:href="#DejaVuSans-6b" x="303.507812"/>
     <use xlink:href="#DejaVuSans-69" x="361.417969"/>
     <use xlink:href="#DejaVuSans-69" x="389.201172"/>
     <use xlink:href="#DejaVuSans-6e" x="416.984375"/>
     <use xlink:href="#DejaVuSans-67" x="480.363281"/>
    </g>
   </g>
   <g id="text_26">
    <g id="patch_32">
     <path d="M 88.141959 118.463022 
L 89.485644 129.296889 
L 91.446247 129.053722 
L 90.102563 118.219855 
z
" style="fill: #ffffff"/>
    </g>
    <!-- Tree Skiing -->
    <g style="fill: #ff0000" transform="translate(88.577044 118.429213)rotate(-277.070081)scale(0.02 -0.02)">
     <use xlink:href="#DejaVuSans-54"/>
     <use xlink:href="#DejaVuSans-72" x="46.333984"/>
     <use xlink:href="#DejaVuSans-65" x="85.197266"/>
     <use xlink:href="#DejaVuSans-65" x="146.720703"/>
     <use xlink:href="#DejaVuSans-20" x="208.244141"/>
     <use xlink:href="#DejaVuSans-53" x="240.03125"/>
     <use xlink:href="#DejaVuSans-6b" x="303.507812"/>
     <use xlink:href="#DejaVuSans-69" x="361.417969"/>
     <use xlink:href="#DejaVuSans-69" x="389.201172"/>
     <use xlink:href="#DejaVuSans-6e" x="416.984375"/>
     <use xlink:href="#DejaVuSans-67" x="480.363281"/>
    </g>
   </g>
   <g id="text_27">
    <g id="patch_33">
     <path d="M 125.279917 160.50617 
L 129.695623 150.522197 
L 127.888825 149.723088 
L 123.473119 159.70706 
z
" style="fill: #ffffff"/>
    </g>
    <!-- Tree Skiing -->
    <g style="fill: #008000" transform="translate(124.889322 160.311549)rotate(-66.141179)scale(0.02 -0.02)">
     <use xlink:href="#DejaVuSans-54"/>
     <use xlink:href="#DejaVuSans-72" x="46.333984"/>
     <use xlink:href="#DejaVuSans-65" x="85.197266"/>
     <use xlink:href="#DejaVuSans-65" x="146.720703"/>
     <use xlink:href="#DejaVuSans-20" x="208.244141"/>
     <use xlink:href="#DejaVuSans-53" x="240.03125"/>
     <use xlink:href="#DejaVuSans-6b" x="303.507812"/>
     <use xlink:href="#DejaVuSans-69" x="361.417969"/>
     <use xlink:href="#DejaVuSans-69" x="389.201172"/>
     <use xlink:href="#DejaVuSans-6e" x="416.984375"/>
     <use xlink:href="#DejaVuSans-67" x="480.363281"/>
    </g>
   </g>
   <g id="text_28">
    <g id="patch_34">
     <path d="M 136.553792 127.094574 
L 140.606949 137.231146 
L 142.441363 136.497646 
L 138.388206 126.361075 
z
" style="fill: #ffffff"/>
    </g>
    <!-- Tree Skiing -->
    <g style="fill: #008000" transform="translate(136.965996 126.951292)rotate(-291.79424)scale(0.02 -0.02)">
     <use xlink:href="#DejaVuSans-54"/>
     <use xlink:href="#DejaVuSans-72" x="46.333984"/>
     <use xlink:href="#DejaVuSans-65" x="85.197266"/>
     <use xlink:href="#DejaVuSans-65" x="146.720703"/>
     <use xlink:href="#DejaVuSans-20" x="208.244141"/>
     <use xlink:href="#DejaVuSans-53" x="240.03125"/>
     <use xlink:href="#DejaVuSans-6b" x="303.507812"/>
     <use xlink:href="#DejaVuSans-69" x="361.417969"/>
     <use xlink:href="#DejaVuSans-69" x="389.201172"/>
     <use xlink:href="#DejaVuSans-6e" x="416.984375"/>
     <use xlink:href="#DejaVuSans-67" x="480.363281"/>
    </g>
   </g>
   <g id="text_29">
    <g id="patch_35">
     <path d="M 114.230928 158.999491 
L 119.787308 144.072606 
L 117.935797 143.3834 
L 112.379418 158.310285 
z
" style="fill: #ffffff"/>
    </g>
    <!-- Turbulence Park -->
    <g style="fill: #008000" transform="translate(113.829354 158.828668)rotate(-69.582733)scale(0.02 -0.02)">
     <use xlink:href="#DejaVuSans-54"/>
     <use xlink:href="#DejaVuSans-75" x="45.958984"/>
     <use xlink:href="#DejaVuSans-72" x="109.337891"/>
     <use xlink:href="#DejaVuSans-62" x="150.451172"/>
     <use xlink:href="#DejaVuSans-75" x="213.927734"/>
     <use xlink:href="#DejaVuSans-6c" x="277.306641"/>
     <use xlink:href="#DejaVuSans-65" x="305.089844"/>
     <use xlink:href="#DejaVuSans-6e" x="366.613281"/>
     <use xlink:href="#DejaVuSans-63" x="429.992188"/>
     <use xlink:href="#DejaVuSans-65" x="484.972656"/>
     <use xlink:href="#DejaVuSans-20" x="546.496094"/>
     <use xlink:href="#DejaVuSans-50" x="578.283203"/>
     <use xlink:href="#DejaVuSans-61" x="634.085938"/>
     <use xlink:href="#DejaVuSans-72" x="695.365234"/>
     <use xlink:href="#DejaVuSans-6b" x="736.478516"/>
    </g>
   </g>
   <g id="text_30">
    <g id="patch_36">
     <path d="M 78.513409 27.183186 
L 91.685481 30.937162 
L 92.226964 29.037191 
L 79.054892 25.283214 
z
" style="fill: #ffffff"/>
    </g>
    <!-- Cascade Brok -->
    <g style="fill: #008000" transform="translate(78.652126 26.769423)rotate(-344.092706)scale(0.02 -0.02)">
     <use xlink:href="#DejaVuSans-43"/>
     <use xlink:href="#DejaVuSans-61" x="69.824219"/>
     <use xlink:href="#DejaVuSans-73" x="131.103516"/>
     <use xlink:href="#DejaVuSans-63" x="183.203125"/>
     <use xlink:href="#DejaVuSans-61" x="238.183594"/>
     <use xlink:href="#DejaVuSans-64" x="299.462891"/>
     <use xlink:href="#DejaVuSans-65" x="362.939453"/>
     <use xlink:href="#DejaVuSans-20" x="424.462891"/>
     <use xlink:href="#DejaVuSans-42" x="456.25"/>
     <use xlink:href="#DejaVuSans-72" x="524.853516"/>
     <use xlink:href="#DejaVuSans-6f" x="563.716797"/>
     <use xlink:href="#DejaVuSans-6b" x="624.898438"/>
    </g>
   </g>
   <g id="text_31">
    <g id="patch_37">
     <path d="M 69.129515 44.036287 
L 76.630448 46.532278 
L 77.254224 44.657712 
L 69.753291 42.161721 
z
" style="fill: #ffffff"/>
    </g>
    <!-- Blizzard -->
    <g style="fill: #4169e1" transform="translate(69.286134 43.628964)rotate(-341.594755)scale(0.02 -0.02)">
     <use xlink:href="#DejaVuSans-42"/>
     <use xlink:href="#DejaVuSans-6c" x="68.603516"/>
     <use xlink:href="#DejaVuSans-69" x="96.386719"/>
     <use xlink:href="#DejaVuSans-7a" x="124.169922"/>
     <use xlink:href="#DejaVuSans-7a" x="176.660156"/>
     <use xlink:href="#DejaVuSans-61" x="229.150391"/>
     <use xlink:href="#DejaVuSans-72" x="290.429688"/>
     <use xlink:href="#DejaVuSans-64" x="329.792969"/>
    </g>
   </g>
   <g id="text_32">
    <g id="patch_38">
     <path d="M 74.750955 59.354575 
L 83.743556 54.436321 
L 82.795564 52.702999 
L 73.802963 57.621253 
z
" style="fill: #ffffff"/>
    </g>
    <!-- Crosswind -->
    <g style="fill: #008000" transform="translate(74.55932 58.962507)rotate(-28.675233)scale(0.02 -0.02)">
     <use xlink:href="#DejaVuSans-43"/>
     <use xlink:href="#DejaVuSans-72" x="69.824219"/>
     <use xlink:href="#DejaVuSans-6f" x="108.6875"/>
     <use xlink:href="#DejaVuSans-73" x="169.869141"/>
     <use xlink:href="#DejaVuSans-73" x="221.96875"/>
     <use xlink:href="#DejaVuSans-77" x="274.068359"/>
     <use xlink:href="#DejaVuSans-69" x="355.855469"/>
     <use xlink:href="#DejaVuSans-6e" x="383.638672"/>
     <use xlink:href="#DejaVuSans-64" x="447.017578"/>
    </g>
   </g>
   <g id="text_33">
    <g id="patch_39">
     <path d="M 60.635545 44.618461 
L 68.585741 47.411549 
L 69.240586 45.547609 
L 61.29039 42.754521 
z
" style="fill: #ffffff"/>
    </g>
    <!-- Tempest -->
    <g style="fill: #4169e1" transform="translate(60.798911 44.213797)rotate(-340.642448)scale(0.02 -0.02)">
     <defs>
      <path id="DejaVuSans-6d" d="M 3328 2828 
Q 3544 3216 3844 3400 
Q 4144 3584 4550 3584 
Q 5097 3584 5394 3201 
Q 5691 2819 5691 2113 
L 5691 0 
L 5113 0 
L 5113 2094 
Q 5113 2597 4934 2840 
Q 4756 3084 4391 3084 
Q 3944 3084 3684 2787 
Q 3425 2491 3425 1978 
L 3425 0 
L 2847 0 
L 2847 2094 
Q 2847 2600 2669 2842 
Q 2491 3084 2119 3084 
Q 1678 3084 1418 2786 
Q 1159 2488 1159 1978 
L 1159 0 
L 581 0 
L 581 3500 
L 1159 3500 
L 1159 2956 
Q 1356 3278 1631 3431 
Q 1906 3584 2284 3584 
Q 2666 3584 2933 3390 
Q 3200 3197 3328 2828 
z
" transform="scale(0.015625)"/>
     </defs>
     <use xlink:href="#DejaVuSans-54"/>
     <use xlink:href="#DejaVuSans-65" x="44.083984"/>
     <use xlink:href="#DejaVuSans-6d" x="105.607422"/>
     <use xlink:href="#DejaVuSans-70" x="203.019531"/>
     <use xlink:href="#DejaVuSans-65" x="266.496094"/>
     <use xlink:href="#DejaVuSans-73" x="328.019531"/>
     <use xlink:href="#DejaVuSans-74" x="380.119141"/>
    </g>
   </g>
   <g id="text_34">
    <g id="patch_40">
     <path d="M 55.091319 54.926202 
L 65.032449 58.20178 
L 65.650715 56.32539 
L 55.709585 53.049812 
z
" style="fill: #ffffff"/>
    </g>
    <!-- Nor'easter -->
    <g style="fill: #4169e1" transform="translate(55.24674 54.51842)rotate(-341.763075)scale(0.02 -0.02)">
     <defs>
      <path id="DejaVuSans-4e" d="M 628 4666 
L 1478 4666 
L 3547 763 
L 3547 4666 
L 4159 4666 
L 4159 0 
L 3309 0 
L 1241 3903 
L 1241 0 
L 628 0 
L 628 4666 
z
" transform="scale(0.015625)"/>
      <path id="DejaVuSans-27" d="M 1147 4666 
L 1147 2931 
L 616 2931 
L 616 4666 
L 1147 4666 
z
" transform="scale(0.015625)"/>
     </defs>
     <use xlink:href="#DejaVuSans-4e"/>
     <use xlink:href="#DejaVuSans-6f" x="74.804688"/>
     <use xlink:href="#DejaVuSans-72" x="135.986328"/>
     <use xlink:href="#DejaVuSans-27" x="177.099609"/>
     <use xlink:href="#DejaVuSans-65" x="204.589844"/>
     <use xlink:href="#DejaVuSans-61" x="266.113281"/>
     <use xlink:href="#DejaVuSans-73" x="327.392578"/>
     <use xlink:href="#DejaVuSans-74" x="379.492188"/>
     <use xlink:href="#DejaVuSans-65" x="418.701172"/>
     <use xlink:href="#DejaVuSans-72" x="480.224609"/>
    </g>
   </g>
   <g id="text_35">
    <g id="patch_41">
     <path d="M 48.42344 44.228618 
L 50.129188 53.743176 
L 52.07381 53.394549 
L 50.368062 43.879991 
z
" style="fill: #ffffff"/>
    </g>
    <!-- Backdraft -->
    <g style="fill: #008000" transform="translate(48.856066 44.171376)rotate(-280.16388)scale(0.02 -0.02)">
     <use xlink:href="#DejaVuSans-42"/>
     <use xlink:href="#DejaVuSans-61" x="68.603516"/>
     <use xlink:href="#DejaVuSans-63" x="129.882812"/>
     <use xlink:href="#DejaVuSans-6b" x="184.863281"/>
     <use xlink:href="#DejaVuSans-64" x="242.773438"/>
     <use xlink:href="#DejaVuSans-72" x="306.25"/>
     <use xlink:href="#DejaVuSans-61" x="347.363281"/>
     <use xlink:href="#DejaVuSans-66" x="408.642578"/>
     <use xlink:href="#DejaVuSans-74" x="442.097656"/>
    </g>
   </g>
   <g id="text_36">
    <g id="patch_42">
     <path d="M 38.575775 79.513204 
L 48.114746 75.762986 
L 47.391892 73.924352 
L 37.852921 77.674569 
z
" style="fill: #ffffff"/>
    </g>
    <!-- Crosswind -->
    <g style="fill: #008000" transform="translate(38.434885 79.100177)rotate(-21.462121)scale(0.02 -0.02)">
     <use xlink:href="#DejaVuSans-43"/>
     <use xlink:href="#DejaVuSans-72" x="69.824219"/>
     <use xlink:href="#DejaVuSans-6f" x="108.6875"/>
     <use xlink:href="#DejaVuSans-73" x="169.869141"/>
     <use xlink:href="#DejaVuSans-73" x="221.96875"/>
     <use xlink:href="#DejaVuSans-77" x="274.068359"/>
     <use xlink:href="#DejaVuSans-69" x="355.855469"/>
     <use xlink:href="#DejaVuSans-6e" x="383.638672"/>
     <use xlink:href="#DejaVuSans-64" x="447.017578"/>
    </g>
   </g>
   <g id="text_37">
    <g id="patch_43">
     <path d="M 65.47475 81.106975 
L 73.28361 86.804177 
L 74.448025 85.208172 
L 66.639166 79.510971 
z
" style="fill: #ffffff"/>
    </g>
    <!-- Backdraft -->
    <g style="fill: #008000" transform="translate(65.747845 80.766592)rotate(-323.886193)scale(0.02 -0.02)">
     <use xlink:href="#DejaVuSans-42"/>
     <use xlink:href="#DejaVuSans-61" x="68.603516"/>
     <use xlink:href="#DejaVuSans-63" x="129.882812"/>
     <use xlink:href="#DejaVuSans-6b" x="184.863281"/>
     <use xlink:href="#DejaVuSans-64" x="242.773438"/>
     <use xlink:href="#DejaVuSans-72" x="306.25"/>
     <use xlink:href="#DejaVuSans-61" x="347.363281"/>
     <use xlink:href="#DejaVuSans-66" x="408.642578"/>
     <use xlink:href="#DejaVuSans-74" x="442.097656"/>
    </g>
   </g>
   <g id="text_38">
    <!-- Pat's Peak  -->
    <g transform="translate(47.502149 11.984653)scale(0.12 -0.12)">
     <use xlink:href="#DejaVuSans-50"/>
     <use xlink:href="#DejaVuSans-61" x="55.802734"/>
     <use xlink:href="#DejaVuSans-74" x="117.082031"/>
     <use xlink:href="#DejaVuSans-27" x="156.291016"/>
     <use xlink:href="#DejaVuSans-73" x="183.78125"/>
     <use xlink:href="#DejaVuSans-20" x="235.880859"/>
     <use xlink:href="#DejaVuSans-50" x="267.667969"/>
     <use xlink:href="#DejaVuSans-65" x="324.345703"/>
     <use xlink:href="#DejaVuSans-61" x="385.869141"/>
     <use xlink:href="#DejaVuSans-6b" x="447.148438"/>
     <use xlink:href="#DejaVuSans-20" x="505.058594"/>
    </g>
   </g>
  </g>
 </g>
 <defs>
  <clipPath id="pab5e3e1612">
   <rect x="7.97109" y="17.984653" width="143.479618" height="202.327348"/>
  </clipPath>
 </defs>
</svg>
