<?xml version="1.0" encoding="utf-8" standalone="no"?>
<!DOCTYPE svg PUBLIC "-//W3C//DTD SVG 1.1//EN"
  "http://www.w3.org/Graphics/SVG/1.1/DTD/svg11.dtd">
<svg height="285.84pt" version="1.1" viewBox="0 0 576 285.84" width="576pt" xmlns="http://www.w3.org/2000/svg" xmlns:xlink="http://www.w3.org/1999/xlink">
 <metadata>
  <rdf:RDF xmlns:cc="http://creativecommons.org/ns#" xmlns:dc="http://purl.org/dc/elements/1.1/" xmlns:rdf="http://www.w3.org/1999/02/22-rdf-syntax-ns#">
   <cc:Work>
    <dc:type rdf:resource="http://purl.org/dc/dcmitype/StillImage"/>
    <dc:date>2022-03-04T18:45:26.451849</dc:date>
    <dc:format>image/svg+xml</dc:format>
    <dc:creator>
     <cc:Agent>
      <dc:title>Matplotlib v3.4.3, https://matplotlib.org/</dc:title>
     </cc:Agent>
    </dc:creator>
   </cc:Work>
  </rdf:RDF>
 </metadata>
 <defs>
  <style type="text/css">*{stroke-linecap:butt;stroke-linejoin:round;}</style>
 </defs>
 <g id="figure_1">
  <g id="patch_1">
   <path d="M 0 285.84 
L 576 285.84 
L 576 0 
L 0 0 
z
" style="fill:#ffffff;"/>
  </g>
  <g id="axes_1">
   <g id="patch_2">
    <path d="M 124.9 243.88 
L 565.2 243.88 
L 565.2 32.64 
L 124.9 32.64 
z
" style="fill:#ffffff;"/>
   </g>
   <g id="patch_3">
    <path clip-path="url(#pbe571b17a9)" d="M 124.9 234.278182 
L 534.779273 234.278182 
L 534.779273 226.106422 
L 124.9 226.106422 
z
" style="fill:#ffd700;"/>
   </g>
   <g id="patch_4">
    <path clip-path="url(#pbe571b17a9)" d="M 124.9 224.063482 
L 520.369455 224.063482 
L 520.369455 215.891721 
L 124.9 215.891721 
z
" style="fill:#ffd700;"/>
   </g>
   <g id="patch_5">
    <path clip-path="url(#pbe571b17a9)" d="M 124.9 213.848781 
L 481.943273 213.848781 
L 481.943273 205.677021 
L 124.9 205.677021 
z
" style="fill:#ff0000;"/>
   </g>
   <g id="patch_6">
    <path clip-path="url(#pbe571b17a9)" d="M 124.9 203.634081 
L 474.738364 203.634081 
L 474.738364 195.462321 
L 124.9 195.462321 
z
" style="fill:#ff0000;"/>
   </g>
   <g id="patch_7">
    <path clip-path="url(#pbe571b17a9)" d="M 124.9 193.419381 
L 469.935091 193.419381 
L 469.935091 185.247621 
L 124.9 185.247621 
z
" style="fill:#ff0000;"/>
   </g>
   <g id="patch_8">
    <path clip-path="url(#pbe571b17a9)" d="M 124.9 183.204681 
L 457.926909 183.204681 
L 457.926909 175.032921 
L 124.9 175.032921 
z
" style="fill:#ff0000;"/>
   </g>
   <g id="patch_9">
    <path clip-path="url(#pbe571b17a9)" d="M 124.9 172.989981 
L 444.317636 172.989981 
L 444.317636 164.818221 
L 124.9 164.818221 
z
" style="fill:#ff0000;"/>
   </g>
   <g id="patch_10">
    <path clip-path="url(#pbe571b17a9)" d="M 124.9 162.77528 
L 439.514364 162.77528 
L 439.514364 154.60352 
L 124.9 154.60352 
z
" style="fill:#ff0000;"/>
   </g>
   <g id="patch_11">
    <path clip-path="url(#pbe571b17a9)" d="M 124.9 152.56058 
L 430.708364 152.56058 
L 430.708364 144.38882 
L 124.9 144.38882 
z
" style="fill:#ff0000;"/>
   </g>
   <g id="patch_12">
    <path clip-path="url(#pbe571b17a9)" d="M 124.9 142.34588 
L 430.708364 142.34588 
L 430.708364 134.17412 
L 124.9 134.17412 
z
" style="fill:#ff0000;"/>
   </g>
   <g id="patch_13">
    <path clip-path="url(#pbe571b17a9)" d="M 124.9 132.13118 
L 422.702909 132.13118 
L 422.702909 123.95942 
L 124.9 123.95942 
z
" style="fill:#ff0000;"/>
   </g>
   <g id="patch_14">
    <path clip-path="url(#pbe571b17a9)" d="M 124.9 121.91648 
L 420.301273 121.91648 
L 420.301273 113.74472 
L 124.9 113.74472 
z
" style="fill:#ff0000;"/>
   </g>
   <g id="patch_15">
    <path clip-path="url(#pbe571b17a9)" d="M 124.9 111.701779 
L 417.099091 111.701779 
L 417.099091 103.530019 
L 124.9 103.530019 
z
" style="fill:#ff0000;"/>
   </g>
   <g id="patch_16">
    <path clip-path="url(#pbe571b17a9)" d="M 124.9 101.487079 
L 416.298545 101.487079 
L 416.298545 93.315319 
L 124.9 93.315319 
z
" style="fill:#ff0000;"/>
   </g>
   <g id="patch_17">
    <path clip-path="url(#pbe571b17a9)" d="M 124.9 91.272379 
L 404.290364 91.272379 
L 404.290364 83.100619 
L 124.9 83.100619 
z
" style="fill:#ff0000;"/>
   </g>
   <g id="patch_18">
    <path clip-path="url(#pbe571b17a9)" d="M 124.9 81.057679 
L 393.082727 81.057679 
L 393.082727 72.885919 
L 124.9 72.885919 
z
" style="fill:#ff0000;"/>
   </g>
   <g id="patch_19">
    <path clip-path="url(#pbe571b17a9)" d="M 124.9 70.842979 
L 364.263091 70.842979 
L 364.263091 62.671219 
L 124.9 62.671219 
z
"/>
   </g>
   <g id="patch_20">
    <path clip-path="url(#pbe571b17a9)" d="M 124.9 60.628279 
L 323.435273 60.628279 
L 323.435273 52.456518 
L 124.9 52.456518 
z
"/>
   </g>
   <g id="patch_21">
    <path clip-path="url(#pbe571b17a9)" d="M 124.9 50.413578 
L 313.828727 50.413578 
L 313.828727 42.241818 
L 124.9 42.241818 
z
" style="fill:#4169e1;"/>
   </g>
   <g id="matplotlib.axis_1">
    <g id="xtick_1">
     <g id="line2d_1">
      <path clip-path="url(#pbe571b17a9)" d="M 124.9 243.88 
L 124.9 32.64 
" style="fill:none;stroke:#b0b0b0;stroke-linecap:square;stroke-width:0.8;"/>
     </g>
     <g id="line2d_2">
      <defs>
       <path d="M 0 0 
L 0 3.5 
" id="mdc37d72121" style="stroke:#000000;stroke-width:0.8;"/>
      </defs>
      <g>
       <use style="stroke:#000000;stroke-width:0.8;" x="124.9" xlink:href="#mdc37d72121" y="243.88"/>
      </g>
     </g>
     <g id="text_1">
      <!-- 0 -->
      <g transform="translate(121.71875 258.478438)scale(0.1 -0.1)">
       <defs>
        <path d="M 2034 4250 
Q 1547 4250 1301 3770 
Q 1056 3291 1056 2328 
Q 1056 1369 1301 889 
Q 1547 409 2034 409 
Q 2525 409 2770 889 
Q 3016 1369 3016 2328 
Q 3016 3291 2770 3770 
Q 2525 4250 2034 4250 
z
M 2034 4750 
Q 2819 4750 3233 4129 
Q 3647 3509 3647 2328 
Q 3647 1150 3233 529 
Q 2819 -91 2034 -91 
Q 1250 -91 836 529 
Q 422 1150 422 2328 
Q 422 3509 836 4129 
Q 1250 4750 2034 4750 
z
" id="DejaVuSans-30" transform="scale(0.015625)"/>
       </defs>
       <use xlink:href="#DejaVuSans-30"/>
      </g>
     </g>
    </g>
    <g id="xtick_2">
     <g id="line2d_3">
      <path clip-path="url(#pbe571b17a9)" d="M 204.954545 243.88 
L 204.954545 32.64 
" style="fill:none;stroke:#b0b0b0;stroke-linecap:square;stroke-width:0.8;"/>
     </g>
     <g id="line2d_4">
      <g>
       <use style="stroke:#000000;stroke-width:0.8;" x="204.954545" xlink:href="#mdc37d72121" y="243.88"/>
      </g>
     </g>
     <g id="text_2">
      <!-- 10 -->
      <g transform="translate(198.592045 258.478438)scale(0.1 -0.1)">
       <defs>
        <path d="M 794 531 
L 1825 531 
L 1825 4091 
L 703 3866 
L 703 4441 
L 1819 4666 
L 2450 4666 
L 2450 531 
L 3481 531 
L 3481 0 
L 794 0 
L 794 531 
z
" id="DejaVuSans-31" transform="scale(0.015625)"/>
       </defs>
       <use xlink:href="#DejaVuSans-31"/>
       <use x="63.623047" xlink:href="#DejaVuSans-30"/>
      </g>
     </g>
    </g>
    <g id="xtick_3">
     <g id="line2d_5">
      <path clip-path="url(#pbe571b17a9)" d="M 285.009091 243.88 
L 285.009091 32.64 
" style="fill:none;stroke:#b0b0b0;stroke-linecap:square;stroke-width:0.8;"/>
     </g>
     <g id="line2d_6">
      <g>
       <use style="stroke:#000000;stroke-width:0.8;" x="285.009091" xlink:href="#mdc37d72121" y="243.88"/>
      </g>
     </g>
     <g id="text_3">
      <!-- 20 -->
      <g transform="translate(278.646591 258.478438)scale(0.1 -0.1)">
       <defs>
        <path d="M 1228 531 
L 3431 531 
L 3431 0 
L 469 0 
L 469 531 
Q 828 903 1448 1529 
Q 2069 2156 2228 2338 
Q 2531 2678 2651 2914 
Q 2772 3150 2772 3378 
Q 2772 3750 2511 3984 
Q 2250 4219 1831 4219 
Q 1534 4219 1204 4116 
Q 875 4013 500 3803 
L 500 4441 
Q 881 4594 1212 4672 
Q 1544 4750 1819 4750 
Q 2544 4750 2975 4387 
Q 3406 4025 3406 3419 
Q 3406 3131 3298 2873 
Q 3191 2616 2906 2266 
Q 2828 2175 2409 1742 
Q 1991 1309 1228 531 
z
" id="DejaVuSans-32" transform="scale(0.015625)"/>
       </defs>
       <use xlink:href="#DejaVuSans-32"/>
       <use x="63.623047" xlink:href="#DejaVuSans-30"/>
      </g>
     </g>
    </g>
    <g id="xtick_4">
     <g id="line2d_7">
      <path clip-path="url(#pbe571b17a9)" d="M 365.063636 243.88 
L 365.063636 32.64 
" style="fill:none;stroke:#b0b0b0;stroke-linecap:square;stroke-width:0.8;"/>
     </g>
     <g id="line2d_8">
      <g>
       <use style="stroke:#000000;stroke-width:0.8;" x="365.063636" xlink:href="#mdc37d72121" y="243.88"/>
      </g>
     </g>
     <g id="text_4">
      <!-- 30 -->
      <g transform="translate(358.701136 258.478438)scale(0.1 -0.1)">
       <defs>
        <path d="M 2597 2516 
Q 3050 2419 3304 2112 
Q 3559 1806 3559 1356 
Q 3559 666 3084 287 
Q 2609 -91 1734 -91 
Q 1441 -91 1130 -33 
Q 819 25 488 141 
L 488 750 
Q 750 597 1062 519 
Q 1375 441 1716 441 
Q 2309 441 2620 675 
Q 2931 909 2931 1356 
Q 2931 1769 2642 2001 
Q 2353 2234 1838 2234 
L 1294 2234 
L 1294 2753 
L 1863 2753 
Q 2328 2753 2575 2939 
Q 2822 3125 2822 3475 
Q 2822 3834 2567 4026 
Q 2313 4219 1838 4219 
Q 1578 4219 1281 4162 
Q 984 4106 628 3988 
L 628 4550 
Q 988 4650 1302 4700 
Q 1616 4750 1894 4750 
Q 2613 4750 3031 4423 
Q 3450 4097 3450 3541 
Q 3450 3153 3228 2886 
Q 3006 2619 2597 2516 
z
" id="DejaVuSans-33" transform="scale(0.015625)"/>
       </defs>
       <use xlink:href="#DejaVuSans-33"/>
       <use x="63.623047" xlink:href="#DejaVuSans-30"/>
      </g>
     </g>
    </g>
    <g id="xtick_5">
     <g id="line2d_9">
      <path clip-path="url(#pbe571b17a9)" d="M 445.118182 243.88 
L 445.118182 32.64 
" style="fill:none;stroke:#b0b0b0;stroke-linecap:square;stroke-width:0.8;"/>
     </g>
     <g id="line2d_10">
      <g>
       <use style="stroke:#000000;stroke-width:0.8;" x="445.118182" xlink:href="#mdc37d72121" y="243.88"/>
      </g>
     </g>
     <g id="text_5">
      <!-- 40 -->
      <g transform="translate(438.755682 258.478438)scale(0.1 -0.1)">
       <defs>
        <path d="M 2419 4116 
L 825 1625 
L 2419 1625 
L 2419 4116 
z
M 2253 4666 
L 3047 4666 
L 3047 1625 
L 3713 1625 
L 3713 1100 
L 3047 1100 
L 3047 0 
L 2419 0 
L 2419 1100 
L 313 1100 
L 313 1709 
L 2253 4666 
z
" id="DejaVuSans-34" transform="scale(0.015625)"/>
       </defs>
       <use xlink:href="#DejaVuSans-34"/>
       <use x="63.623047" xlink:href="#DejaVuSans-30"/>
      </g>
     </g>
    </g>
    <g id="xtick_6">
     <g id="line2d_11">
      <path clip-path="url(#pbe571b17a9)" d="M 525.172727 243.88 
L 525.172727 32.64 
" style="fill:none;stroke:#b0b0b0;stroke-linecap:square;stroke-width:0.8;"/>
     </g>
     <g id="line2d_12">
      <g>
       <use style="stroke:#000000;stroke-width:0.8;" x="525.172727" xlink:href="#mdc37d72121" y="243.88"/>
      </g>
     </g>
     <g id="text_6">
      <!-- 50 -->
      <g transform="translate(518.810227 258.478438)scale(0.1 -0.1)">
       <defs>
        <path d="M 691 4666 
L 3169 4666 
L 3169 4134 
L 1269 4134 
L 1269 2991 
Q 1406 3038 1543 3061 
Q 1681 3084 1819 3084 
Q 2600 3084 3056 2656 
Q 3513 2228 3513 1497 
Q 3513 744 3044 326 
Q 2575 -91 1722 -91 
Q 1428 -91 1123 -41 
Q 819 9 494 109 
L 494 744 
Q 775 591 1075 516 
Q 1375 441 1709 441 
Q 2250 441 2565 725 
Q 2881 1009 2881 1497 
Q 2881 1984 2565 2268 
Q 2250 2553 1709 2553 
Q 1456 2553 1204 2497 
Q 953 2441 691 2322 
L 691 4666 
z
" id="DejaVuSans-35" transform="scale(0.015625)"/>
       </defs>
       <use xlink:href="#DejaVuSans-35"/>
       <use x="63.623047" xlink:href="#DejaVuSans-30"/>
      </g>
     </g>
    </g>
    <g id="text_7">
     <!-- Longer bar = more expert friendly -->
     <g transform="translate(259.251562 272.156563)scale(0.1 -0.1)">
      <defs>
       <path d="M 628 4666 
L 1259 4666 
L 1259 531 
L 3531 531 
L 3531 0 
L 628 0 
L 628 4666 
z
" id="DejaVuSans-4c" transform="scale(0.015625)"/>
       <path d="M 1959 3097 
Q 1497 3097 1228 2736 
Q 959 2375 959 1747 
Q 959 1119 1226 758 
Q 1494 397 1959 397 
Q 2419 397 2687 759 
Q 2956 1122 2956 1747 
Q 2956 2369 2687 2733 
Q 2419 3097 1959 3097 
z
M 1959 3584 
Q 2709 3584 3137 3096 
Q 3566 2609 3566 1747 
Q 3566 888 3137 398 
Q 2709 -91 1959 -91 
Q 1206 -91 779 398 
Q 353 888 353 1747 
Q 353 2609 779 3096 
Q 1206 3584 1959 3584 
z
" id="DejaVuSans-6f" transform="scale(0.015625)"/>
       <path d="M 3513 2113 
L 3513 0 
L 2938 0 
L 2938 2094 
Q 2938 2591 2744 2837 
Q 2550 3084 2163 3084 
Q 1697 3084 1428 2787 
Q 1159 2491 1159 1978 
L 1159 0 
L 581 0 
L 581 3500 
L 1159 3500 
L 1159 2956 
Q 1366 3272 1645 3428 
Q 1925 3584 2291 3584 
Q 2894 3584 3203 3211 
Q 3513 2838 3513 2113 
z
" id="DejaVuSans-6e" transform="scale(0.015625)"/>
       <path d="M 2906 1791 
Q 2906 2416 2648 2759 
Q 2391 3103 1925 3103 
Q 1463 3103 1205 2759 
Q 947 2416 947 1791 
Q 947 1169 1205 825 
Q 1463 481 1925 481 
Q 2391 481 2648 825 
Q 2906 1169 2906 1791 
z
M 3481 434 
Q 3481 -459 3084 -895 
Q 2688 -1331 1869 -1331 
Q 1566 -1331 1297 -1286 
Q 1028 -1241 775 -1147 
L 775 -588 
Q 1028 -725 1275 -790 
Q 1522 -856 1778 -856 
Q 2344 -856 2625 -561 
Q 2906 -266 2906 331 
L 2906 616 
Q 2728 306 2450 153 
Q 2172 0 1784 0 
Q 1141 0 747 490 
Q 353 981 353 1791 
Q 353 2603 747 3093 
Q 1141 3584 1784 3584 
Q 2172 3584 2450 3431 
Q 2728 3278 2906 2969 
L 2906 3500 
L 3481 3500 
L 3481 434 
z
" id="DejaVuSans-67" transform="scale(0.015625)"/>
       <path d="M 3597 1894 
L 3597 1613 
L 953 1613 
Q 991 1019 1311 708 
Q 1631 397 2203 397 
Q 2534 397 2845 478 
Q 3156 559 3463 722 
L 3463 178 
Q 3153 47 2828 -22 
Q 2503 -91 2169 -91 
Q 1331 -91 842 396 
Q 353 884 353 1716 
Q 353 2575 817 3079 
Q 1281 3584 2069 3584 
Q 2775 3584 3186 3129 
Q 3597 2675 3597 1894 
z
M 3022 2063 
Q 3016 2534 2758 2815 
Q 2500 3097 2075 3097 
Q 1594 3097 1305 2825 
Q 1016 2553 972 2059 
L 3022 2063 
z
" id="DejaVuSans-65" transform="scale(0.015625)"/>
       <path d="M 2631 2963 
Q 2534 3019 2420 3045 
Q 2306 3072 2169 3072 
Q 1681 3072 1420 2755 
Q 1159 2438 1159 1844 
L 1159 0 
L 581 0 
L 581 3500 
L 1159 3500 
L 1159 2956 
Q 1341 3275 1631 3429 
Q 1922 3584 2338 3584 
Q 2397 3584 2469 3576 
Q 2541 3569 2628 3553 
L 2631 2963 
z
" id="DejaVuSans-72" transform="scale(0.015625)"/>
       <path id="DejaVuSans-20" transform="scale(0.015625)"/>
       <path d="M 3116 1747 
Q 3116 2381 2855 2742 
Q 2594 3103 2138 3103 
Q 1681 3103 1420 2742 
Q 1159 2381 1159 1747 
Q 1159 1113 1420 752 
Q 1681 391 2138 391 
Q 2594 391 2855 752 
Q 3116 1113 3116 1747 
z
M 1159 2969 
Q 1341 3281 1617 3432 
Q 1894 3584 2278 3584 
Q 2916 3584 3314 3078 
Q 3713 2572 3713 1747 
Q 3713 922 3314 415 
Q 2916 -91 2278 -91 
Q 1894 -91 1617 61 
Q 1341 213 1159 525 
L 1159 0 
L 581 0 
L 581 4863 
L 1159 4863 
L 1159 2969 
z
" id="DejaVuSans-62" transform="scale(0.015625)"/>
       <path d="M 2194 1759 
Q 1497 1759 1228 1600 
Q 959 1441 959 1056 
Q 959 750 1161 570 
Q 1363 391 1709 391 
Q 2188 391 2477 730 
Q 2766 1069 2766 1631 
L 2766 1759 
L 2194 1759 
z
M 3341 1997 
L 3341 0 
L 2766 0 
L 2766 531 
Q 2569 213 2275 61 
Q 1981 -91 1556 -91 
Q 1019 -91 701 211 
Q 384 513 384 1019 
Q 384 1609 779 1909 
Q 1175 2209 1959 2209 
L 2766 2209 
L 2766 2266 
Q 2766 2663 2505 2880 
Q 2244 3097 1772 3097 
Q 1472 3097 1187 3025 
Q 903 2953 641 2809 
L 641 3341 
Q 956 3463 1253 3523 
Q 1550 3584 1831 3584 
Q 2591 3584 2966 3190 
Q 3341 2797 3341 1997 
z
" id="DejaVuSans-61" transform="scale(0.015625)"/>
       <path d="M 678 2906 
L 4684 2906 
L 4684 2381 
L 678 2381 
L 678 2906 
z
M 678 1631 
L 4684 1631 
L 4684 1100 
L 678 1100 
L 678 1631 
z
" id="DejaVuSans-3d" transform="scale(0.015625)"/>
       <path d="M 3328 2828 
Q 3544 3216 3844 3400 
Q 4144 3584 4550 3584 
Q 5097 3584 5394 3201 
Q 5691 2819 5691 2113 
L 5691 0 
L 5113 0 
L 5113 2094 
Q 5113 2597 4934 2840 
Q 4756 3084 4391 3084 
Q 3944 3084 3684 2787 
Q 3425 2491 3425 1978 
L 3425 0 
L 2847 0 
L 2847 2094 
Q 2847 2600 2669 2842 
Q 2491 3084 2119 3084 
Q 1678 3084 1418 2786 
Q 1159 2488 1159 1978 
L 1159 0 
L 581 0 
L 581 3500 
L 1159 3500 
L 1159 2956 
Q 1356 3278 1631 3431 
Q 1906 3584 2284 3584 
Q 2666 3584 2933 3390 
Q 3200 3197 3328 2828 
z
" id="DejaVuSans-6d" transform="scale(0.015625)"/>
       <path d="M 3513 3500 
L 2247 1797 
L 3578 0 
L 2900 0 
L 1881 1375 
L 863 0 
L 184 0 
L 1544 1831 
L 300 3500 
L 978 3500 
L 1906 2253 
L 2834 3500 
L 3513 3500 
z
" id="DejaVuSans-78" transform="scale(0.015625)"/>
       <path d="M 1159 525 
L 1159 -1331 
L 581 -1331 
L 581 3500 
L 1159 3500 
L 1159 2969 
Q 1341 3281 1617 3432 
Q 1894 3584 2278 3584 
Q 2916 3584 3314 3078 
Q 3713 2572 3713 1747 
Q 3713 922 3314 415 
Q 2916 -91 2278 -91 
Q 1894 -91 1617 61 
Q 1341 213 1159 525 
z
M 3116 1747 
Q 3116 2381 2855 2742 
Q 2594 3103 2138 3103 
Q 1681 3103 1420 2742 
Q 1159 2381 1159 1747 
Q 1159 1113 1420 752 
Q 1681 391 2138 391 
Q 2594 391 2855 752 
Q 3116 1113 3116 1747 
z
" id="DejaVuSans-70" transform="scale(0.015625)"/>
       <path d="M 1172 4494 
L 1172 3500 
L 2356 3500 
L 2356 3053 
L 1172 3053 
L 1172 1153 
Q 1172 725 1289 603 
Q 1406 481 1766 481 
L 2356 481 
L 2356 0 
L 1766 0 
Q 1100 0 847 248 
Q 594 497 594 1153 
L 594 3053 
L 172 3053 
L 172 3500 
L 594 3500 
L 594 4494 
L 1172 4494 
z
" id="DejaVuSans-74" transform="scale(0.015625)"/>
       <path d="M 2375 4863 
L 2375 4384 
L 1825 4384 
Q 1516 4384 1395 4259 
Q 1275 4134 1275 3809 
L 1275 3500 
L 2222 3500 
L 2222 3053 
L 1275 3053 
L 1275 0 
L 697 0 
L 697 3053 
L 147 3053 
L 147 3500 
L 697 3500 
L 697 3744 
Q 697 4328 969 4595 
Q 1241 4863 1831 4863 
L 2375 4863 
z
" id="DejaVuSans-66" transform="scale(0.015625)"/>
       <path d="M 603 3500 
L 1178 3500 
L 1178 0 
L 603 0 
L 603 3500 
z
M 603 4863 
L 1178 4863 
L 1178 4134 
L 603 4134 
L 603 4863 
z
" id="DejaVuSans-69" transform="scale(0.015625)"/>
       <path d="M 2906 2969 
L 2906 4863 
L 3481 4863 
L 3481 0 
L 2906 0 
L 2906 525 
Q 2725 213 2448 61 
Q 2172 -91 1784 -91 
Q 1150 -91 751 415 
Q 353 922 353 1747 
Q 353 2572 751 3078 
Q 1150 3584 1784 3584 
Q 2172 3584 2448 3432 
Q 2725 3281 2906 2969 
z
M 947 1747 
Q 947 1113 1208 752 
Q 1469 391 1925 391 
Q 2381 391 2643 752 
Q 2906 1113 2906 1747 
Q 2906 2381 2643 2742 
Q 2381 3103 1925 3103 
Q 1469 3103 1208 2742 
Q 947 2381 947 1747 
z
" id="DejaVuSans-64" transform="scale(0.015625)"/>
       <path d="M 603 4863 
L 1178 4863 
L 1178 0 
L 603 0 
L 603 4863 
z
" id="DejaVuSans-6c" transform="scale(0.015625)"/>
       <path d="M 2059 -325 
Q 1816 -950 1584 -1140 
Q 1353 -1331 966 -1331 
L 506 -1331 
L 506 -850 
L 844 -850 
Q 1081 -850 1212 -737 
Q 1344 -625 1503 -206 
L 1606 56 
L 191 3500 
L 800 3500 
L 1894 763 
L 2988 3500 
L 3597 3500 
L 2059 -325 
z
" id="DejaVuSans-79" transform="scale(0.015625)"/>
      </defs>
      <use xlink:href="#DejaVuSans-4c"/>
      <use x="53.962891" xlink:href="#DejaVuSans-6f"/>
      <use x="115.144531" xlink:href="#DejaVuSans-6e"/>
      <use x="178.523438" xlink:href="#DejaVuSans-67"/>
      <use x="242" xlink:href="#DejaVuSans-65"/>
      <use x="303.523438" xlink:href="#DejaVuSans-72"/>
      <use x="344.636719" xlink:href="#DejaVuSans-20"/>
      <use x="376.423828" xlink:href="#DejaVuSans-62"/>
      <use x="439.900391" xlink:href="#DejaVuSans-61"/>
      <use x="501.179688" xlink:href="#DejaVuSans-72"/>
      <use x="542.292969" xlink:href="#DejaVuSans-20"/>
      <use x="574.080078" xlink:href="#DejaVuSans-3d"/>
      <use x="657.869141" xlink:href="#DejaVuSans-20"/>
      <use x="689.65625" xlink:href="#DejaVuSans-6d"/>
      <use x="787.068359" xlink:href="#DejaVuSans-6f"/>
      <use x="848.25" xlink:href="#DejaVuSans-72"/>
      <use x="887.113281" xlink:href="#DejaVuSans-65"/>
      <use x="948.636719" xlink:href="#DejaVuSans-20"/>
      <use x="980.423828" xlink:href="#DejaVuSans-65"/>
      <use x="1040.197266" xlink:href="#DejaVuSans-78"/>
      <use x="1099.376953" xlink:href="#DejaVuSans-70"/>
      <use x="1162.853516" xlink:href="#DejaVuSans-65"/>
      <use x="1224.376953" xlink:href="#DejaVuSans-72"/>
      <use x="1265.490234" xlink:href="#DejaVuSans-74"/>
      <use x="1304.699219" xlink:href="#DejaVuSans-20"/>
      <use x="1336.486328" xlink:href="#DejaVuSans-66"/>
      <use x="1371.691406" xlink:href="#DejaVuSans-72"/>
      <use x="1412.804688" xlink:href="#DejaVuSans-69"/>
      <use x="1440.587891" xlink:href="#DejaVuSans-65"/>
      <use x="1502.111328" xlink:href="#DejaVuSans-6e"/>
      <use x="1565.490234" xlink:href="#DejaVuSans-64"/>
      <use x="1628.966797" xlink:href="#DejaVuSans-6c"/>
      <use x="1656.75" xlink:href="#DejaVuSans-79"/>
     </g>
    </g>
   </g>
   <g id="matplotlib.axis_2">
    <g id="ytick_1">
     <g id="line2d_13">
      <defs>
       <path d="M 0 0 
L -3.5 0 
" id="m37ac35b8a4" style="stroke:#000000;stroke-width:0.8;"/>
      </defs>
      <g>
       <use style="stroke:#000000;stroke-width:0.8;" x="124.9" xlink:href="#m37ac35b8a4" y="230.192302"/>
      </g>
     </g>
     <g id="text_8">
      <!-- Silverton -->
      <g transform="translate(73.435937 233.99152)scale(0.1 -0.1)">
       <defs>
        <path d="M 3425 4513 
L 3425 3897 
Q 3066 4069 2747 4153 
Q 2428 4238 2131 4238 
Q 1616 4238 1336 4038 
Q 1056 3838 1056 3469 
Q 1056 3159 1242 3001 
Q 1428 2844 1947 2747 
L 2328 2669 
Q 3034 2534 3370 2195 
Q 3706 1856 3706 1288 
Q 3706 609 3251 259 
Q 2797 -91 1919 -91 
Q 1588 -91 1214 -16 
Q 841 59 441 206 
L 441 856 
Q 825 641 1194 531 
Q 1563 422 1919 422 
Q 2459 422 2753 634 
Q 3047 847 3047 1241 
Q 3047 1584 2836 1778 
Q 2625 1972 2144 2069 
L 1759 2144 
Q 1053 2284 737 2584 
Q 422 2884 422 3419 
Q 422 4038 858 4394 
Q 1294 4750 2059 4750 
Q 2388 4750 2728 4690 
Q 3069 4631 3425 4513 
z
" id="DejaVuSans-53" transform="scale(0.015625)"/>
        <path d="M 191 3500 
L 800 3500 
L 1894 563 
L 2988 3500 
L 3597 3500 
L 2284 0 
L 1503 0 
L 191 3500 
z
" id="DejaVuSans-76" transform="scale(0.015625)"/>
       </defs>
       <use xlink:href="#DejaVuSans-53"/>
       <use x="63.476562" xlink:href="#DejaVuSans-69"/>
       <use x="91.259766" xlink:href="#DejaVuSans-6c"/>
       <use x="119.042969" xlink:href="#DejaVuSans-76"/>
       <use x="178.222656" xlink:href="#DejaVuSans-65"/>
       <use x="239.746094" xlink:href="#DejaVuSans-72"/>
       <use x="280.859375" xlink:href="#DejaVuSans-74"/>
       <use x="320.068359" xlink:href="#DejaVuSans-6f"/>
       <use x="381.25" xlink:href="#DejaVuSans-6e"/>
      </g>
     </g>
    </g>
    <g id="ytick_2">
     <g id="line2d_14">
      <g>
       <use style="stroke:#000000;stroke-width:0.8;" x="124.9" xlink:href="#m37ac35b8a4" y="219.977602"/>
      </g>
     </g>
     <g id="text_9">
      <!-- Crested Butte -->
      <g transform="translate(48.876562 223.77682)scale(0.1 -0.1)">
       <defs>
        <path d="M 4122 4306 
L 4122 3641 
Q 3803 3938 3442 4084 
Q 3081 4231 2675 4231 
Q 1875 4231 1450 3742 
Q 1025 3253 1025 2328 
Q 1025 1406 1450 917 
Q 1875 428 2675 428 
Q 3081 428 3442 575 
Q 3803 722 4122 1019 
L 4122 359 
Q 3791 134 3420 21 
Q 3050 -91 2638 -91 
Q 1578 -91 968 557 
Q 359 1206 359 2328 
Q 359 3453 968 4101 
Q 1578 4750 2638 4750 
Q 3056 4750 3426 4639 
Q 3797 4528 4122 4306 
z
" id="DejaVuSans-43" transform="scale(0.015625)"/>
        <path d="M 2834 3397 
L 2834 2853 
Q 2591 2978 2328 3040 
Q 2066 3103 1784 3103 
Q 1356 3103 1142 2972 
Q 928 2841 928 2578 
Q 928 2378 1081 2264 
Q 1234 2150 1697 2047 
L 1894 2003 
Q 2506 1872 2764 1633 
Q 3022 1394 3022 966 
Q 3022 478 2636 193 
Q 2250 -91 1575 -91 
Q 1294 -91 989 -36 
Q 684 19 347 128 
L 347 722 
Q 666 556 975 473 
Q 1284 391 1588 391 
Q 1994 391 2212 530 
Q 2431 669 2431 922 
Q 2431 1156 2273 1281 
Q 2116 1406 1581 1522 
L 1381 1569 
Q 847 1681 609 1914 
Q 372 2147 372 2553 
Q 372 3047 722 3315 
Q 1072 3584 1716 3584 
Q 2034 3584 2315 3537 
Q 2597 3491 2834 3397 
z
" id="DejaVuSans-73" transform="scale(0.015625)"/>
        <path d="M 1259 2228 
L 1259 519 
L 2272 519 
Q 2781 519 3026 730 
Q 3272 941 3272 1375 
Q 3272 1813 3026 2020 
Q 2781 2228 2272 2228 
L 1259 2228 
z
M 1259 4147 
L 1259 2741 
L 2194 2741 
Q 2656 2741 2882 2914 
Q 3109 3088 3109 3444 
Q 3109 3797 2882 3972 
Q 2656 4147 2194 4147 
L 1259 4147 
z
M 628 4666 
L 2241 4666 
Q 2963 4666 3353 4366 
Q 3744 4066 3744 3513 
Q 3744 3084 3544 2831 
Q 3344 2578 2956 2516 
Q 3422 2416 3680 2098 
Q 3938 1781 3938 1306 
Q 3938 681 3513 340 
Q 3088 0 2303 0 
L 628 0 
L 628 4666 
z
" id="DejaVuSans-42" transform="scale(0.015625)"/>
        <path d="M 544 1381 
L 544 3500 
L 1119 3500 
L 1119 1403 
Q 1119 906 1312 657 
Q 1506 409 1894 409 
Q 2359 409 2629 706 
Q 2900 1003 2900 1516 
L 2900 3500 
L 3475 3500 
L 3475 0 
L 2900 0 
L 2900 538 
Q 2691 219 2414 64 
Q 2138 -91 1772 -91 
Q 1169 -91 856 284 
Q 544 659 544 1381 
z
M 1991 3584 
L 1991 3584 
z
" id="DejaVuSans-75" transform="scale(0.015625)"/>
       </defs>
       <use xlink:href="#DejaVuSans-43"/>
       <use x="69.824219" xlink:href="#DejaVuSans-72"/>
       <use x="108.6875" xlink:href="#DejaVuSans-65"/>
       <use x="170.210938" xlink:href="#DejaVuSans-73"/>
       <use x="222.310547" xlink:href="#DejaVuSans-74"/>
       <use x="261.519531" xlink:href="#DejaVuSans-65"/>
       <use x="323.042969" xlink:href="#DejaVuSans-64"/>
       <use x="386.519531" xlink:href="#DejaVuSans-20"/>
       <use x="418.306641" xlink:href="#DejaVuSans-42"/>
       <use x="486.910156" xlink:href="#DejaVuSans-75"/>
       <use x="550.289062" xlink:href="#DejaVuSans-74"/>
       <use x="589.498047" xlink:href="#DejaVuSans-74"/>
       <use x="628.707031" xlink:href="#DejaVuSans-65"/>
      </g>
     </g>
    </g>
    <g id="ytick_3">
     <g id="line2d_15">
      <g>
       <use style="stroke:#000000;stroke-width:0.8;" x="124.9" xlink:href="#m37ac35b8a4" y="209.762901"/>
      </g>
     </g>
     <g id="text_10">
      <!-- Aspen Highlands -->
      <g transform="translate(34.046875 213.56212)scale(0.1 -0.1)">
       <defs>
        <path d="M 2188 4044 
L 1331 1722 
L 3047 1722 
L 2188 4044 
z
M 1831 4666 
L 2547 4666 
L 4325 0 
L 3669 0 
L 3244 1197 
L 1141 1197 
L 716 0 
L 50 0 
L 1831 4666 
z
" id="DejaVuSans-41" transform="scale(0.015625)"/>
        <path d="M 628 4666 
L 1259 4666 
L 1259 2753 
L 3553 2753 
L 3553 4666 
L 4184 4666 
L 4184 0 
L 3553 0 
L 3553 2222 
L 1259 2222 
L 1259 0 
L 628 0 
L 628 4666 
z
" id="DejaVuSans-48" transform="scale(0.015625)"/>
        <path d="M 3513 2113 
L 3513 0 
L 2938 0 
L 2938 2094 
Q 2938 2591 2744 2837 
Q 2550 3084 2163 3084 
Q 1697 3084 1428 2787 
Q 1159 2491 1159 1978 
L 1159 0 
L 581 0 
L 581 4863 
L 1159 4863 
L 1159 2956 
Q 1366 3272 1645 3428 
Q 1925 3584 2291 3584 
Q 2894 3584 3203 3211 
Q 3513 2838 3513 2113 
z
" id="DejaVuSans-68" transform="scale(0.015625)"/>
       </defs>
       <use xlink:href="#DejaVuSans-41"/>
       <use x="68.408203" xlink:href="#DejaVuSans-73"/>
       <use x="120.507812" xlink:href="#DejaVuSans-70"/>
       <use x="183.984375" xlink:href="#DejaVuSans-65"/>
       <use x="245.507812" xlink:href="#DejaVuSans-6e"/>
       <use x="308.886719" xlink:href="#DejaVuSans-20"/>
       <use x="340.673828" xlink:href="#DejaVuSans-48"/>
       <use x="415.869141" xlink:href="#DejaVuSans-69"/>
       <use x="443.652344" xlink:href="#DejaVuSans-67"/>
       <use x="507.128906" xlink:href="#DejaVuSans-68"/>
       <use x="570.507812" xlink:href="#DejaVuSans-6c"/>
       <use x="598.291016" xlink:href="#DejaVuSans-61"/>
       <use x="659.570312" xlink:href="#DejaVuSans-6e"/>
       <use x="722.949219" xlink:href="#DejaVuSans-64"/>
       <use x="786.425781" xlink:href="#DejaVuSans-73"/>
      </g>
     </g>
    </g>
    <g id="ytick_4">
     <g id="line2d_16">
      <g>
       <use style="stroke:#000000;stroke-width:0.8;" x="124.9" xlink:href="#m37ac35b8a4" y="199.548201"/>
      </g>
     </g>
     <g id="text_11">
      <!-- Arapahoe Basin -->
      <g transform="translate(39.242187 203.34742)scale(0.1 -0.1)">
       <use xlink:href="#DejaVuSans-41"/>
       <use x="68.408203" xlink:href="#DejaVuSans-72"/>
       <use x="109.521484" xlink:href="#DejaVuSans-61"/>
       <use x="170.800781" xlink:href="#DejaVuSans-70"/>
       <use x="234.277344" xlink:href="#DejaVuSans-61"/>
       <use x="295.556641" xlink:href="#DejaVuSans-68"/>
       <use x="358.935547" xlink:href="#DejaVuSans-6f"/>
       <use x="420.117188" xlink:href="#DejaVuSans-65"/>
       <use x="481.640625" xlink:href="#DejaVuSans-20"/>
       <use x="513.427734" xlink:href="#DejaVuSans-42"/>
       <use x="582.03125" xlink:href="#DejaVuSans-61"/>
       <use x="643.310547" xlink:href="#DejaVuSans-73"/>
       <use x="695.410156" xlink:href="#DejaVuSans-69"/>
       <use x="723.193359" xlink:href="#DejaVuSans-6e"/>
      </g>
     </g>
    </g>
    <g id="ytick_5">
     <g id="line2d_17">
      <g>
       <use style="stroke:#000000;stroke-width:0.8;" x="124.9" xlink:href="#m37ac35b8a4" y="189.333501"/>
      </g>
     </g>
     <g id="text_12">
      <!-- Telluride -->
      <g transform="translate(76.054687 193.13272)scale(0.1 -0.1)">
       <defs>
        <path d="M -19 4666 
L 3928 4666 
L 3928 4134 
L 2272 4134 
L 2272 0 
L 1638 0 
L 1638 4134 
L -19 4134 
L -19 4666 
z
" id="DejaVuSans-54" transform="scale(0.015625)"/>
       </defs>
       <use xlink:href="#DejaVuSans-54"/>
       <use x="44.083984" xlink:href="#DejaVuSans-65"/>
       <use x="105.607422" xlink:href="#DejaVuSans-6c"/>
       <use x="133.390625" xlink:href="#DejaVuSans-6c"/>
       <use x="161.173828" xlink:href="#DejaVuSans-75"/>
       <use x="224.552734" xlink:href="#DejaVuSans-72"/>
       <use x="265.666016" xlink:href="#DejaVuSans-69"/>
       <use x="293.449219" xlink:href="#DejaVuSans-64"/>
       <use x="356.925781" xlink:href="#DejaVuSans-65"/>
      </g>
     </g>
    </g>
    <g id="ytick_6">
     <g id="line2d_18">
      <g>
       <use style="stroke:#000000;stroke-width:0.8;" x="124.9" xlink:href="#m37ac35b8a4" y="179.118801"/>
      </g>
     </g>
     <g id="text_13">
      <!-- Breckenridge -->
      <g transform="translate(51.84375 182.91802)scale(0.1 -0.1)">
       <defs>
        <path d="M 3122 3366 
L 3122 2828 
Q 2878 2963 2633 3030 
Q 2388 3097 2138 3097 
Q 1578 3097 1268 2742 
Q 959 2388 959 1747 
Q 959 1106 1268 751 
Q 1578 397 2138 397 
Q 2388 397 2633 464 
Q 2878 531 3122 666 
L 3122 134 
Q 2881 22 2623 -34 
Q 2366 -91 2075 -91 
Q 1284 -91 818 406 
Q 353 903 353 1747 
Q 353 2603 823 3093 
Q 1294 3584 2113 3584 
Q 2378 3584 2631 3529 
Q 2884 3475 3122 3366 
z
" id="DejaVuSans-63" transform="scale(0.015625)"/>
        <path d="M 581 4863 
L 1159 4863 
L 1159 1991 
L 2875 3500 
L 3609 3500 
L 1753 1863 
L 3688 0 
L 2938 0 
L 1159 1709 
L 1159 0 
L 581 0 
L 581 4863 
z
" id="DejaVuSans-6b" transform="scale(0.015625)"/>
       </defs>
       <use xlink:href="#DejaVuSans-42"/>
       <use x="68.603516" xlink:href="#DejaVuSans-72"/>
       <use x="107.466797" xlink:href="#DejaVuSans-65"/>
       <use x="168.990234" xlink:href="#DejaVuSans-63"/>
       <use x="223.970703" xlink:href="#DejaVuSans-6b"/>
       <use x="278.255859" xlink:href="#DejaVuSans-65"/>
       <use x="339.779297" xlink:href="#DejaVuSans-6e"/>
       <use x="403.158203" xlink:href="#DejaVuSans-72"/>
       <use x="444.271484" xlink:href="#DejaVuSans-69"/>
       <use x="472.054688" xlink:href="#DejaVuSans-64"/>
       <use x="535.53125" xlink:href="#DejaVuSans-67"/>
       <use x="599.007812" xlink:href="#DejaVuSans-65"/>
      </g>
     </g>
    </g>
    <g id="ytick_7">
     <g id="line2d_19">
      <g>
       <use style="stroke:#000000;stroke-width:0.8;" x="124.9" xlink:href="#m37ac35b8a4" y="168.904101"/>
      </g>
     </g>
     <g id="text_14">
      <!-- Vail -->
      <g transform="translate(100.15 172.703319)scale(0.1 -0.1)">
       <defs>
        <path d="M 1831 0 
L 50 4666 
L 709 4666 
L 2188 738 
L 3669 4666 
L 4325 4666 
L 2547 0 
L 1831 0 
z
" id="DejaVuSans-56" transform="scale(0.015625)"/>
       </defs>
       <use xlink:href="#DejaVuSans-56"/>
       <use x="60.658203" xlink:href="#DejaVuSans-61"/>
       <use x="121.9375" xlink:href="#DejaVuSans-69"/>
       <use x="149.720703" xlink:href="#DejaVuSans-6c"/>
      </g>
     </g>
    </g>
    <g id="ytick_8">
     <g id="line2d_20">
      <g>
       <use style="stroke:#000000;stroke-width:0.8;" x="124.9" xlink:href="#m37ac35b8a4" y="158.6894"/>
      </g>
     </g>
     <g id="text_15">
      <!-- Aspen -->
      <g transform="translate(87.010937 162.488619)scale(0.1 -0.1)">
       <use xlink:href="#DejaVuSans-41"/>
       <use x="68.408203" xlink:href="#DejaVuSans-73"/>
       <use x="120.507812" xlink:href="#DejaVuSans-70"/>
       <use x="183.984375" xlink:href="#DejaVuSans-65"/>
       <use x="245.507812" xlink:href="#DejaVuSans-6e"/>
      </g>
     </g>
    </g>
    <g id="ytick_9">
     <g id="line2d_21">
      <g>
       <use style="stroke:#000000;stroke-width:0.8;" x="124.9" xlink:href="#m37ac35b8a4" y="148.4747"/>
      </g>
     </g>
     <g id="text_16">
      <!-- Loveland -->
      <g transform="translate(72.720312 152.273919)scale(0.1 -0.1)">
       <use xlink:href="#DejaVuSans-4c"/>
       <use x="53.962891" xlink:href="#DejaVuSans-6f"/>
       <use x="115.144531" xlink:href="#DejaVuSans-76"/>
       <use x="174.324219" xlink:href="#DejaVuSans-65"/>
       <use x="235.847656" xlink:href="#DejaVuSans-6c"/>
       <use x="263.630859" xlink:href="#DejaVuSans-61"/>
       <use x="324.910156" xlink:href="#DejaVuSans-6e"/>
       <use x="388.289062" xlink:href="#DejaVuSans-64"/>
      </g>
     </g>
    </g>
    <g id="ytick_10">
     <g id="line2d_22">
      <g>
       <use style="stroke:#000000;stroke-width:0.8;" x="124.9" xlink:href="#m37ac35b8a4" y="138.26"/>
      </g>
     </g>
     <g id="text_17">
      <!-- Copper Mountain, CO -->
      <g transform="translate(10.8625 142.059219)scale(0.1 -0.1)">
       <defs>
        <path d="M 628 4666 
L 1569 4666 
L 2759 1491 
L 3956 4666 
L 4897 4666 
L 4897 0 
L 4281 0 
L 4281 4097 
L 3078 897 
L 2444 897 
L 1241 4097 
L 1241 0 
L 628 0 
L 628 4666 
z
" id="DejaVuSans-4d" transform="scale(0.015625)"/>
        <path d="M 750 794 
L 1409 794 
L 1409 256 
L 897 -744 
L 494 -744 
L 750 256 
L 750 794 
z
" id="DejaVuSans-2c" transform="scale(0.015625)"/>
        <path d="M 2522 4238 
Q 1834 4238 1429 3725 
Q 1025 3213 1025 2328 
Q 1025 1447 1429 934 
Q 1834 422 2522 422 
Q 3209 422 3611 934 
Q 4013 1447 4013 2328 
Q 4013 3213 3611 3725 
Q 3209 4238 2522 4238 
z
M 2522 4750 
Q 3503 4750 4090 4092 
Q 4678 3434 4678 2328 
Q 4678 1225 4090 567 
Q 3503 -91 2522 -91 
Q 1538 -91 948 565 
Q 359 1222 359 2328 
Q 359 3434 948 4092 
Q 1538 4750 2522 4750 
z
" id="DejaVuSans-4f" transform="scale(0.015625)"/>
       </defs>
       <use xlink:href="#DejaVuSans-43"/>
       <use x="69.824219" xlink:href="#DejaVuSans-6f"/>
       <use x="131.005859" xlink:href="#DejaVuSans-70"/>
       <use x="194.482422" xlink:href="#DejaVuSans-70"/>
       <use x="257.958984" xlink:href="#DejaVuSans-65"/>
       <use x="319.482422" xlink:href="#DejaVuSans-72"/>
       <use x="360.595703" xlink:href="#DejaVuSans-20"/>
       <use x="392.382812" xlink:href="#DejaVuSans-4d"/>
       <use x="478.662109" xlink:href="#DejaVuSans-6f"/>
       <use x="539.84375" xlink:href="#DejaVuSans-75"/>
       <use x="603.222656" xlink:href="#DejaVuSans-6e"/>
       <use x="666.601562" xlink:href="#DejaVuSans-74"/>
       <use x="705.810547" xlink:href="#DejaVuSans-61"/>
       <use x="767.089844" xlink:href="#DejaVuSans-69"/>
       <use x="794.873047" xlink:href="#DejaVuSans-6e"/>
       <use x="858.251953" xlink:href="#DejaVuSans-2c"/>
       <use x="890.039062" xlink:href="#DejaVuSans-20"/>
       <use x="921.826172" xlink:href="#DejaVuSans-43"/>
       <use x="991.650391" xlink:href="#DejaVuSans-4f"/>
      </g>
     </g>
    </g>
    <g id="ytick_11">
     <g id="line2d_23">
      <g>
       <use style="stroke:#000000;stroke-width:0.8;" x="124.9" xlink:href="#m37ac35b8a4" y="128.0453"/>
      </g>
     </g>
     <g id="text_18">
      <!-- Snowmass -->
      <g transform="translate(64.629687 131.844519)scale(0.1 -0.1)">
       <defs>
        <path d="M 269 3500 
L 844 3500 
L 1563 769 
L 2278 3500 
L 2956 3500 
L 3675 769 
L 4391 3500 
L 4966 3500 
L 4050 0 
L 3372 0 
L 2619 2869 
L 1863 0 
L 1184 0 
L 269 3500 
z
" id="DejaVuSans-77" transform="scale(0.015625)"/>
       </defs>
       <use xlink:href="#DejaVuSans-53"/>
       <use x="63.476562" xlink:href="#DejaVuSans-6e"/>
       <use x="126.855469" xlink:href="#DejaVuSans-6f"/>
       <use x="188.037109" xlink:href="#DejaVuSans-77"/>
       <use x="269.824219" xlink:href="#DejaVuSans-6d"/>
       <use x="367.236328" xlink:href="#DejaVuSans-61"/>
       <use x="428.515625" xlink:href="#DejaVuSans-73"/>
       <use x="480.615234" xlink:href="#DejaVuSans-73"/>
      </g>
     </g>
    </g>
    <g id="ytick_12">
     <g id="line2d_24">
      <g>
       <use style="stroke:#000000;stroke-width:0.8;" x="124.9" xlink:href="#m37ac35b8a4" y="117.8306"/>
      </g>
     </g>
     <g id="text_19">
      <!-- Winter Park -->
      <g transform="translate(60.15 121.629818)scale(0.1 -0.1)">
       <defs>
        <path d="M 213 4666 
L 850 4666 
L 1831 722 
L 2809 4666 
L 3519 4666 
L 4500 722 
L 5478 4666 
L 6119 4666 
L 4947 0 
L 4153 0 
L 3169 4050 
L 2175 0 
L 1381 0 
L 213 4666 
z
" id="DejaVuSans-57" transform="scale(0.015625)"/>
        <path d="M 1259 4147 
L 1259 2394 
L 2053 2394 
Q 2494 2394 2734 2622 
Q 2975 2850 2975 3272 
Q 2975 3691 2734 3919 
Q 2494 4147 2053 4147 
L 1259 4147 
z
M 628 4666 
L 2053 4666 
Q 2838 4666 3239 4311 
Q 3641 3956 3641 3272 
Q 3641 2581 3239 2228 
Q 2838 1875 2053 1875 
L 1259 1875 
L 1259 0 
L 628 0 
L 628 4666 
z
" id="DejaVuSans-50" transform="scale(0.015625)"/>
       </defs>
       <use xlink:href="#DejaVuSans-57"/>
       <use x="96.626953" xlink:href="#DejaVuSans-69"/>
       <use x="124.410156" xlink:href="#DejaVuSans-6e"/>
       <use x="187.789062" xlink:href="#DejaVuSans-74"/>
       <use x="226.998047" xlink:href="#DejaVuSans-65"/>
       <use x="288.521484" xlink:href="#DejaVuSans-72"/>
       <use x="329.634766" xlink:href="#DejaVuSans-20"/>
       <use x="361.421875" xlink:href="#DejaVuSans-50"/>
       <use x="417.224609" xlink:href="#DejaVuSans-61"/>
       <use x="478.503906" xlink:href="#DejaVuSans-72"/>
       <use x="519.617188" xlink:href="#DejaVuSans-6b"/>
      </g>
     </g>
    </g>
    <g id="ytick_13">
     <g id="line2d_25">
      <g>
       <use style="stroke:#000000;stroke-width:0.8;" x="124.9" xlink:href="#m37ac35b8a4" y="107.615899"/>
      </g>
     </g>
     <g id="text_20">
      <!-- Steamboat Springs -->
      <g transform="translate(22.434375 111.415118)scale(0.1 -0.1)">
       <use xlink:href="#DejaVuSans-53"/>
       <use x="63.476562" xlink:href="#DejaVuSans-74"/>
       <use x="102.685547" xlink:href="#DejaVuSans-65"/>
       <use x="164.208984" xlink:href="#DejaVuSans-61"/>
       <use x="225.488281" xlink:href="#DejaVuSans-6d"/>
       <use x="322.900391" xlink:href="#DejaVuSans-62"/>
       <use x="386.376953" xlink:href="#DejaVuSans-6f"/>
       <use x="447.558594" xlink:href="#DejaVuSans-61"/>
       <use x="508.837891" xlink:href="#DejaVuSans-74"/>
       <use x="548.046875" xlink:href="#DejaVuSans-20"/>
       <use x="579.833984" xlink:href="#DejaVuSans-53"/>
       <use x="643.310547" xlink:href="#DejaVuSans-70"/>
       <use x="706.787109" xlink:href="#DejaVuSans-72"/>
       <use x="747.900391" xlink:href="#DejaVuSans-69"/>
       <use x="775.683594" xlink:href="#DejaVuSans-6e"/>
       <use x="839.0625" xlink:href="#DejaVuSans-67"/>
       <use x="902.539062" xlink:href="#DejaVuSans-73"/>
      </g>
     </g>
    </g>
    <g id="ytick_14">
     <g id="line2d_26">
      <g>
       <use style="stroke:#000000;stroke-width:0.8;" x="124.9" xlink:href="#m37ac35b8a4" y="97.401199"/>
      </g>
     </g>
     <g id="text_21">
      <!-- Purgatory -->
      <g transform="translate(69.226562 101.200418)scale(0.1 -0.1)">
       <use xlink:href="#DejaVuSans-50"/>
       <use x="58.552734" xlink:href="#DejaVuSans-75"/>
       <use x="121.931641" xlink:href="#DejaVuSans-72"/>
       <use x="161.294922" xlink:href="#DejaVuSans-67"/>
       <use x="224.771484" xlink:href="#DejaVuSans-61"/>
       <use x="286.050781" xlink:href="#DejaVuSans-74"/>
       <use x="325.259766" xlink:href="#DejaVuSans-6f"/>
       <use x="386.441406" xlink:href="#DejaVuSans-72"/>
       <use x="427.554688" xlink:href="#DejaVuSans-79"/>
      </g>
     </g>
    </g>
    <g id="ytick_15">
     <g id="line2d_27">
      <g>
       <use style="stroke:#000000;stroke-width:0.8;" x="124.9" xlink:href="#m37ac35b8a4" y="87.186499"/>
      </g>
     </g>
     <g id="text_22">
      <!-- Powder Mountain -->
      <g transform="translate(31.559375 90.985718)scale(0.1 -0.1)">
       <use xlink:href="#DejaVuSans-50"/>
       <use x="56.677734" xlink:href="#DejaVuSans-6f"/>
       <use x="117.859375" xlink:href="#DejaVuSans-77"/>
       <use x="199.646484" xlink:href="#DejaVuSans-64"/>
       <use x="263.123047" xlink:href="#DejaVuSans-65"/>
       <use x="324.646484" xlink:href="#DejaVuSans-72"/>
       <use x="365.759766" xlink:href="#DejaVuSans-20"/>
       <use x="397.546875" xlink:href="#DejaVuSans-4d"/>
       <use x="483.826172" xlink:href="#DejaVuSans-6f"/>
       <use x="545.007812" xlink:href="#DejaVuSans-75"/>
       <use x="608.386719" xlink:href="#DejaVuSans-6e"/>
       <use x="671.765625" xlink:href="#DejaVuSans-74"/>
       <use x="710.974609" xlink:href="#DejaVuSans-61"/>
       <use x="772.253906" xlink:href="#DejaVuSans-69"/>
       <use x="800.037109" xlink:href="#DejaVuSans-6e"/>
      </g>
     </g>
    </g>
    <g id="ytick_16">
     <g id="line2d_28">
      <g>
       <use style="stroke:#000000;stroke-width:0.8;" x="124.9" xlink:href="#m37ac35b8a4" y="76.971799"/>
      </g>
     </g>
     <g id="text_23">
      <!-- Beaver Creek -->
      <g transform="translate(50.43125 80.771018)scale(0.1 -0.1)">
       <use xlink:href="#DejaVuSans-42"/>
       <use x="68.603516" xlink:href="#DejaVuSans-65"/>
       <use x="130.126953" xlink:href="#DejaVuSans-61"/>
       <use x="191.40625" xlink:href="#DejaVuSans-76"/>
       <use x="250.585938" xlink:href="#DejaVuSans-65"/>
       <use x="312.109375" xlink:href="#DejaVuSans-72"/>
       <use x="353.222656" xlink:href="#DejaVuSans-20"/>
       <use x="385.009766" xlink:href="#DejaVuSans-43"/>
       <use x="454.833984" xlink:href="#DejaVuSans-72"/>
       <use x="493.697266" xlink:href="#DejaVuSans-65"/>
       <use x="555.220703" xlink:href="#DejaVuSans-65"/>
       <use x="616.744141" xlink:href="#DejaVuSans-6b"/>
      </g>
     </g>
    </g>
    <g id="ytick_17">
     <g id="line2d_29">
      <g>
       <use style="stroke:#000000;stroke-width:0.8;" x="124.9" xlink:href="#m37ac35b8a4" y="66.757099"/>
      </g>
     </g>
     <g id="text_24">
      <!-- Keystone -->
      <g transform="translate(72.03125 70.556317)scale(0.1 -0.1)">
       <defs>
        <path d="M 628 4666 
L 1259 4666 
L 1259 2694 
L 3353 4666 
L 4166 4666 
L 1850 2491 
L 4331 0 
L 3500 0 
L 1259 2247 
L 1259 0 
L 628 0 
L 628 4666 
z
" id="DejaVuSans-4b" transform="scale(0.015625)"/>
       </defs>
       <use xlink:href="#DejaVuSans-4b"/>
       <use x="60.576172" xlink:href="#DejaVuSans-65"/>
       <use x="122.099609" xlink:href="#DejaVuSans-79"/>
       <use x="181.279297" xlink:href="#DejaVuSans-73"/>
       <use x="233.378906" xlink:href="#DejaVuSans-74"/>
       <use x="272.587891" xlink:href="#DejaVuSans-6f"/>
       <use x="333.769531" xlink:href="#DejaVuSans-6e"/>
       <use x="397.148438" xlink:href="#DejaVuSans-65"/>
      </g>
     </g>
    </g>
    <g id="ytick_18">
     <g id="line2d_30">
      <g>
       <use style="stroke:#000000;stroke-width:0.8;" x="124.9" xlink:href="#m37ac35b8a4" y="56.542398"/>
      </g>
     </g>
     <g id="text_25">
      <!-- Wolf Creek -->
      <g transform="translate(64.039062 60.341617)scale(0.1 -0.1)">
       <use xlink:href="#DejaVuSans-57"/>
       <use x="93.001953" xlink:href="#DejaVuSans-6f"/>
       <use x="154.183594" xlink:href="#DejaVuSans-6c"/>
       <use x="181.966797" xlink:href="#DejaVuSans-66"/>
       <use x="217.171875" xlink:href="#DejaVuSans-20"/>
       <use x="248.958984" xlink:href="#DejaVuSans-43"/>
       <use x="318.783203" xlink:href="#DejaVuSans-72"/>
       <use x="357.646484" xlink:href="#DejaVuSans-65"/>
       <use x="419.169922" xlink:href="#DejaVuSans-65"/>
       <use x="480.693359" xlink:href="#DejaVuSans-6b"/>
      </g>
     </g>
    </g>
    <g id="ytick_19">
     <g id="line2d_31">
      <g>
       <use style="stroke:#000000;stroke-width:0.8;" x="124.9" xlink:href="#m37ac35b8a4" y="46.327698"/>
      </g>
     </g>
     <g id="text_26">
      <!-- Buttermilk -->
      <g transform="translate(65.684375 50.126917)scale(0.1 -0.1)">
       <use xlink:href="#DejaVuSans-42"/>
       <use x="68.603516" xlink:href="#DejaVuSans-75"/>
       <use x="131.982422" xlink:href="#DejaVuSans-74"/>
       <use x="171.191406" xlink:href="#DejaVuSans-74"/>
       <use x="210.400391" xlink:href="#DejaVuSans-65"/>
       <use x="271.923828" xlink:href="#DejaVuSans-72"/>
       <use x="311.287109" xlink:href="#DejaVuSans-6d"/>
       <use x="408.699219" xlink:href="#DejaVuSans-69"/>
       <use x="436.482422" xlink:href="#DejaVuSans-6c"/>
       <use x="464.265625" xlink:href="#DejaVuSans-6b"/>
      </g>
     </g>
    </g>
   </g>
   <g id="patch_22">
    <path d="M 124.9 243.88 
L 124.9 32.64 
" style="fill:none;stroke:#000000;stroke-linecap:square;stroke-linejoin:miter;stroke-width:0.8;"/>
   </g>
   <g id="patch_23">
    <path d="M 565.2 243.88 
L 565.2 32.64 
" style="fill:none;stroke:#000000;stroke-linecap:square;stroke-linejoin:miter;stroke-width:0.8;"/>
   </g>
   <g id="patch_24">
    <path d="M 124.9 243.88 
L 565.2 243.88 
" style="fill:none;stroke:#000000;stroke-linecap:square;stroke-linejoin:miter;stroke-width:0.8;"/>
   </g>
   <g id="patch_25">
    <path d="M 124.9 32.64 
L 565.2 32.64 
" style="fill:none;stroke:#000000;stroke-linecap:square;stroke-linejoin:miter;stroke-width:0.8;"/>
   </g>
   <g id="text_27">
    <!-- 51.2 -->
    <g transform="translate(536.10504 231.847927)scale(0.06 -0.06)">
     <defs>
      <path d="M 684 794 
L 1344 794 
L 1344 0 
L 684 0 
L 684 794 
z
" id="DejaVuSans-2e" transform="scale(0.015625)"/>
     </defs>
     <use xlink:href="#DejaVuSans-35"/>
     <use x="63.623047" xlink:href="#DejaVuSans-31"/>
     <use x="127.246094" xlink:href="#DejaVuSans-2e"/>
     <use x="159.033203" xlink:href="#DejaVuSans-32"/>
    </g>
   </g>
   <g id="text_28">
    <!-- 1 -->
    <g transform="translate(128.902727 232.123864)scale(0.07 -0.07)">
     <use xlink:href="#DejaVuSans-31"/>
    </g>
   </g>
   <g id="text_29">
    <!-- 49.4 -->
    <g transform="translate(521.695222 221.633227)scale(0.06 -0.06)">
     <defs>
      <path d="M 703 97 
L 703 672 
Q 941 559 1184 500 
Q 1428 441 1663 441 
Q 2288 441 2617 861 
Q 2947 1281 2994 2138 
Q 2813 1869 2534 1725 
Q 2256 1581 1919 1581 
Q 1219 1581 811 2004 
Q 403 2428 403 3163 
Q 403 3881 828 4315 
Q 1253 4750 1959 4750 
Q 2769 4750 3195 4129 
Q 3622 3509 3622 2328 
Q 3622 1225 3098 567 
Q 2575 -91 1691 -91 
Q 1453 -91 1209 -44 
Q 966 3 703 97 
z
M 1959 2075 
Q 2384 2075 2632 2365 
Q 2881 2656 2881 3163 
Q 2881 3666 2632 3958 
Q 2384 4250 1959 4250 
Q 1534 4250 1286 3958 
Q 1038 3666 1038 3163 
Q 1038 2656 1286 2365 
Q 1534 2075 1959 2075 
z
" id="DejaVuSans-39" transform="scale(0.015625)"/>
     </defs>
     <use xlink:href="#DejaVuSans-34"/>
     <use x="63.623047" xlink:href="#DejaVuSans-39"/>
     <use x="127.246094" xlink:href="#DejaVuSans-2e"/>
     <use x="159.033203" xlink:href="#DejaVuSans-34"/>
    </g>
   </g>
   <g id="text_30">
    <!-- 2 -->
    <g transform="translate(128.902727 221.909164)scale(0.07 -0.07)">
     <use xlink:href="#DejaVuSans-32"/>
    </g>
   </g>
   <g id="text_31">
    <!-- 44.6 -->
    <g transform="translate(483.26904 211.418526)scale(0.06 -0.06)">
     <defs>
      <path d="M 2113 2584 
Q 1688 2584 1439 2293 
Q 1191 2003 1191 1497 
Q 1191 994 1439 701 
Q 1688 409 2113 409 
Q 2538 409 2786 701 
Q 3034 994 3034 1497 
Q 3034 2003 2786 2293 
Q 2538 2584 2113 2584 
z
M 3366 4563 
L 3366 3988 
Q 3128 4100 2886 4159 
Q 2644 4219 2406 4219 
Q 1781 4219 1451 3797 
Q 1122 3375 1075 2522 
Q 1259 2794 1537 2939 
Q 1816 3084 2150 3084 
Q 2853 3084 3261 2657 
Q 3669 2231 3669 1497 
Q 3669 778 3244 343 
Q 2819 -91 2113 -91 
Q 1303 -91 875 529 
Q 447 1150 447 2328 
Q 447 3434 972 4092 
Q 1497 4750 2381 4750 
Q 2619 4750 2861 4703 
Q 3103 4656 3366 4563 
z
" id="DejaVuSans-36" transform="scale(0.015625)"/>
     </defs>
     <use xlink:href="#DejaVuSans-34"/>
     <use x="63.623047" xlink:href="#DejaVuSans-34"/>
     <use x="127.246094" xlink:href="#DejaVuSans-2e"/>
     <use x="159.033203" xlink:href="#DejaVuSans-36"/>
    </g>
   </g>
   <g id="text_32">
    <!-- 3 -->
    <g style="fill:#ffffff;" transform="translate(128.902727 211.694464)scale(0.07 -0.07)">
     <use xlink:href="#DejaVuSans-33"/>
    </g>
   </g>
   <g id="text_33">
    <!-- 43.7 -->
    <g transform="translate(476.064131 201.203826)scale(0.06 -0.06)">
     <defs>
      <path d="M 525 4666 
L 3525 4666 
L 3525 4397 
L 1831 0 
L 1172 0 
L 2766 4134 
L 525 4134 
L 525 4666 
z
" id="DejaVuSans-37" transform="scale(0.015625)"/>
     </defs>
     <use xlink:href="#DejaVuSans-34"/>
     <use x="63.623047" xlink:href="#DejaVuSans-33"/>
     <use x="127.246094" xlink:href="#DejaVuSans-2e"/>
     <use x="159.033203" xlink:href="#DejaVuSans-37"/>
    </g>
   </g>
   <g id="text_34">
    <!-- 4 -->
    <g style="fill:#ffffff;" transform="translate(128.902727 201.479764)scale(0.07 -0.07)">
     <use xlink:href="#DejaVuSans-34"/>
    </g>
   </g>
   <g id="text_35">
    <!-- 43.1 -->
    <g transform="translate(471.260858 190.989126)scale(0.06 -0.06)">
     <use xlink:href="#DejaVuSans-34"/>
     <use x="63.623047" xlink:href="#DejaVuSans-33"/>
     <use x="127.246094" xlink:href="#DejaVuSans-2e"/>
     <use x="159.033203" xlink:href="#DejaVuSans-31"/>
    </g>
   </g>
   <g id="text_36">
    <!-- 5 -->
    <g style="fill:#ffffff;" transform="translate(128.902727 191.265063)scale(0.07 -0.07)">
     <use xlink:href="#DejaVuSans-35"/>
    </g>
   </g>
   <g id="text_37">
    <!-- 41.6 -->
    <g transform="translate(459.252676 180.774426)scale(0.06 -0.06)">
     <use xlink:href="#DejaVuSans-34"/>
     <use x="63.623047" xlink:href="#DejaVuSans-31"/>
     <use x="127.246094" xlink:href="#DejaVuSans-2e"/>
     <use x="159.033203" xlink:href="#DejaVuSans-36"/>
    </g>
   </g>
   <g id="text_38">
    <!-- 6 -->
    <g style="fill:#ffffff;" transform="translate(128.902727 181.050363)scale(0.07 -0.07)">
     <use xlink:href="#DejaVuSans-36"/>
    </g>
   </g>
   <g id="text_39">
    <!-- 39.9 -->
    <g transform="translate(445.643403 170.559726)scale(0.06 -0.06)">
     <use xlink:href="#DejaVuSans-33"/>
     <use x="63.623047" xlink:href="#DejaVuSans-39"/>
     <use x="127.246094" xlink:href="#DejaVuSans-2e"/>
     <use x="159.033203" xlink:href="#DejaVuSans-39"/>
    </g>
   </g>
   <g id="text_40">
    <!-- 7 -->
    <g style="fill:#ffffff;" transform="translate(128.902727 170.835663)scale(0.07 -0.07)">
     <use xlink:href="#DejaVuSans-37"/>
    </g>
   </g>
   <g id="text_41">
    <!-- 39.3 -->
    <g transform="translate(440.840131 160.345025)scale(0.06 -0.06)">
     <use xlink:href="#DejaVuSans-33"/>
     <use x="63.623047" xlink:href="#DejaVuSans-39"/>
     <use x="127.246094" xlink:href="#DejaVuSans-2e"/>
     <use x="159.033203" xlink:href="#DejaVuSans-33"/>
    </g>
   </g>
   <g id="text_42">
    <!-- 8 -->
    <g style="fill:#ffffff;" transform="translate(128.902727 160.620963)scale(0.07 -0.07)">
     <defs>
      <path d="M 2034 2216 
Q 1584 2216 1326 1975 
Q 1069 1734 1069 1313 
Q 1069 891 1326 650 
Q 1584 409 2034 409 
Q 2484 409 2743 651 
Q 3003 894 3003 1313 
Q 3003 1734 2745 1975 
Q 2488 2216 2034 2216 
z
M 1403 2484 
Q 997 2584 770 2862 
Q 544 3141 544 3541 
Q 544 4100 942 4425 
Q 1341 4750 2034 4750 
Q 2731 4750 3128 4425 
Q 3525 4100 3525 3541 
Q 3525 3141 3298 2862 
Q 3072 2584 2669 2484 
Q 3125 2378 3379 2068 
Q 3634 1759 3634 1313 
Q 3634 634 3220 271 
Q 2806 -91 2034 -91 
Q 1263 -91 848 271 
Q 434 634 434 1313 
Q 434 1759 690 2068 
Q 947 2378 1403 2484 
z
M 1172 3481 
Q 1172 3119 1398 2916 
Q 1625 2713 2034 2713 
Q 2441 2713 2670 2916 
Q 2900 3119 2900 3481 
Q 2900 3844 2670 4047 
Q 2441 4250 2034 4250 
Q 1625 4250 1398 4047 
Q 1172 3844 1172 3481 
z
" id="DejaVuSans-38" transform="scale(0.015625)"/>
     </defs>
     <use xlink:href="#DejaVuSans-38"/>
    </g>
   </g>
   <g id="text_43">
    <!-- 38.2 -->
    <g transform="translate(432.034131 150.130325)scale(0.06 -0.06)">
     <use xlink:href="#DejaVuSans-33"/>
     <use x="63.623047" xlink:href="#DejaVuSans-38"/>
     <use x="127.246094" xlink:href="#DejaVuSans-2e"/>
     <use x="159.033203" xlink:href="#DejaVuSans-32"/>
    </g>
   </g>
   <g id="text_44">
    <!-- 9 -->
    <g style="fill:#ffffff;" transform="translate(128.902727 150.406263)scale(0.07 -0.07)">
     <use xlink:href="#DejaVuSans-39"/>
    </g>
   </g>
   <g id="text_45">
    <!-- 38.2 -->
    <g transform="translate(432.034131 139.915625)scale(0.06 -0.06)">
     <use xlink:href="#DejaVuSans-33"/>
     <use x="63.623047" xlink:href="#DejaVuSans-38"/>
     <use x="127.246094" xlink:href="#DejaVuSans-2e"/>
     <use x="159.033203" xlink:href="#DejaVuSans-32"/>
    </g>
   </g>
   <g id="text_46">
    <!-- 10 -->
    <g style="fill:#ffffff;" transform="translate(128.902727 140.191563)scale(0.07 -0.07)">
     <use xlink:href="#DejaVuSans-31"/>
     <use x="63.623047" xlink:href="#DejaVuSans-30"/>
    </g>
   </g>
   <g id="text_47">
    <!-- 37.2 -->
    <g transform="translate(424.028676 129.700925)scale(0.06 -0.06)">
     <use xlink:href="#DejaVuSans-33"/>
     <use x="63.623047" xlink:href="#DejaVuSans-37"/>
     <use x="127.246094" xlink:href="#DejaVuSans-2e"/>
     <use x="159.033203" xlink:href="#DejaVuSans-32"/>
    </g>
   </g>
   <g id="text_48">
    <!-- 11 -->
    <g style="fill:#ffffff;" transform="translate(128.902727 129.976862)scale(0.07 -0.07)">
     <use xlink:href="#DejaVuSans-31"/>
     <use x="63.623047" xlink:href="#DejaVuSans-31"/>
    </g>
   </g>
   <g id="text_49">
    <!-- 36.9 -->
    <g transform="translate(421.62704 119.486225)scale(0.06 -0.06)">
     <use xlink:href="#DejaVuSans-33"/>
     <use x="63.623047" xlink:href="#DejaVuSans-36"/>
     <use x="127.246094" xlink:href="#DejaVuSans-2e"/>
     <use x="159.033203" xlink:href="#DejaVuSans-39"/>
    </g>
   </g>
   <g id="text_50">
    <!-- 12 -->
    <g style="fill:#ffffff;" transform="translate(128.902727 119.762162)scale(0.07 -0.07)">
     <use xlink:href="#DejaVuSans-31"/>
     <use x="63.623047" xlink:href="#DejaVuSans-32"/>
    </g>
   </g>
   <g id="text_51">
    <!-- 36.5 -->
    <g transform="translate(418.424858 109.271524)scale(0.06 -0.06)">
     <use xlink:href="#DejaVuSans-33"/>
     <use x="63.623047" xlink:href="#DejaVuSans-36"/>
     <use x="127.246094" xlink:href="#DejaVuSans-2e"/>
     <use x="159.033203" xlink:href="#DejaVuSans-35"/>
    </g>
   </g>
   <g id="text_52">
    <!-- 13 -->
    <g style="fill:#ffffff;" transform="translate(128.902727 109.547462)scale(0.07 -0.07)">
     <use xlink:href="#DejaVuSans-31"/>
     <use x="63.623047" xlink:href="#DejaVuSans-33"/>
    </g>
   </g>
   <g id="text_53">
    <!-- 36.4 -->
    <g transform="translate(417.624312 99.056824)scale(0.06 -0.06)">
     <use xlink:href="#DejaVuSans-33"/>
     <use x="63.623047" xlink:href="#DejaVuSans-36"/>
     <use x="127.246094" xlink:href="#DejaVuSans-2e"/>
     <use x="159.033203" xlink:href="#DejaVuSans-34"/>
    </g>
   </g>
   <g id="text_54">
    <!-- 14 -->
    <g style="fill:#ffffff;" transform="translate(128.902727 99.332762)scale(0.07 -0.07)">
     <use xlink:href="#DejaVuSans-31"/>
     <use x="63.623047" xlink:href="#DejaVuSans-34"/>
    </g>
   </g>
   <g id="text_55">
    <!-- 34.9 -->
    <g transform="translate(405.616131 88.842124)scale(0.06 -0.06)">
     <use xlink:href="#DejaVuSans-33"/>
     <use x="63.623047" xlink:href="#DejaVuSans-34"/>
     <use x="127.246094" xlink:href="#DejaVuSans-2e"/>
     <use x="159.033203" xlink:href="#DejaVuSans-39"/>
    </g>
   </g>
   <g id="text_56">
    <!-- 15 -->
    <g style="fill:#ffffff;" transform="translate(128.902727 89.118062)scale(0.07 -0.07)">
     <use xlink:href="#DejaVuSans-31"/>
     <use x="63.623047" xlink:href="#DejaVuSans-35"/>
    </g>
   </g>
   <g id="text_57">
    <!-- 33.5 -->
    <g transform="translate(394.408494 78.627424)scale(0.06 -0.06)">
     <use xlink:href="#DejaVuSans-33"/>
     <use x="63.623047" xlink:href="#DejaVuSans-33"/>
     <use x="127.246094" xlink:href="#DejaVuSans-2e"/>
     <use x="159.033203" xlink:href="#DejaVuSans-35"/>
    </g>
   </g>
   <g id="text_58">
    <!-- 16 -->
    <g style="fill:#ffffff;" transform="translate(128.902727 78.903361)scale(0.07 -0.07)">
     <use xlink:href="#DejaVuSans-31"/>
     <use x="63.623047" xlink:href="#DejaVuSans-36"/>
    </g>
   </g>
   <g id="text_59">
    <!-- 29.9 -->
    <g transform="translate(365.588858 68.412724)scale(0.06 -0.06)">
     <use xlink:href="#DejaVuSans-32"/>
     <use x="63.623047" xlink:href="#DejaVuSans-39"/>
     <use x="127.246094" xlink:href="#DejaVuSans-2e"/>
     <use x="159.033203" xlink:href="#DejaVuSans-39"/>
    </g>
   </g>
   <g id="text_60">
    <!-- 17 -->
    <g style="fill:#ffffff;" transform="translate(128.902727 68.688661)scale(0.07 -0.07)">
     <use xlink:href="#DejaVuSans-31"/>
     <use x="63.623047" xlink:href="#DejaVuSans-37"/>
    </g>
   </g>
   <g id="text_61">
    <!-- 24.8 -->
    <g transform="translate(324.76104 58.198023)scale(0.06 -0.06)">
     <use xlink:href="#DejaVuSans-32"/>
     <use x="63.623047" xlink:href="#DejaVuSans-34"/>
     <use x="127.246094" xlink:href="#DejaVuSans-2e"/>
     <use x="159.033203" xlink:href="#DejaVuSans-38"/>
    </g>
   </g>
   <g id="text_62">
    <!-- 18 -->
    <g style="fill:#ffffff;" transform="translate(128.902727 58.473961)scale(0.07 -0.07)">
     <use xlink:href="#DejaVuSans-31"/>
     <use x="63.623047" xlink:href="#DejaVuSans-38"/>
    </g>
   </g>
   <g id="text_63">
    <!-- 23.6 -->
    <g transform="translate(315.154494 47.983323)scale(0.06 -0.06)">
     <use xlink:href="#DejaVuSans-32"/>
     <use x="63.623047" xlink:href="#DejaVuSans-33"/>
     <use x="127.246094" xlink:href="#DejaVuSans-2e"/>
     <use x="159.033203" xlink:href="#DejaVuSans-36"/>
    </g>
   </g>
   <g id="text_64">
    <!-- 19 -->
    <g style="fill:#ffffff;" transform="translate(128.902727 48.259261)scale(0.07 -0.07)">
     <use xlink:href="#DejaVuSans-31"/>
     <use x="63.623047" xlink:href="#DejaVuSans-39"/>
    </g>
   </g>
   <g id="text_65">
    <!-- CO Difficulty Comparison -->
    <g transform="translate(219.215625 26.64)scale(0.2 -0.2)">
     <defs>
      <path d="M 1259 4147 
L 1259 519 
L 2022 519 
Q 2988 519 3436 956 
Q 3884 1394 3884 2338 
Q 3884 3275 3436 3711 
Q 2988 4147 2022 4147 
L 1259 4147 
z
M 628 4666 
L 1925 4666 
Q 3281 4666 3915 4102 
Q 4550 3538 4550 2338 
Q 4550 1131 3912 565 
Q 3275 0 1925 0 
L 628 0 
L 628 4666 
z
" id="DejaVuSans-44" transform="scale(0.015625)"/>
     </defs>
     <use xlink:href="#DejaVuSans-43"/>
     <use x="69.824219" xlink:href="#DejaVuSans-4f"/>
     <use x="148.535156" xlink:href="#DejaVuSans-20"/>
     <use x="180.322266" xlink:href="#DejaVuSans-44"/>
     <use x="257.324219" xlink:href="#DejaVuSans-69"/>
     <use x="285.107422" xlink:href="#DejaVuSans-66"/>
     <use x="320.3125" xlink:href="#DejaVuSans-66"/>
     <use x="355.517578" xlink:href="#DejaVuSans-69"/>
     <use x="383.300781" xlink:href="#DejaVuSans-63"/>
     <use x="438.28125" xlink:href="#DejaVuSans-75"/>
     <use x="501.660156" xlink:href="#DejaVuSans-6c"/>
     <use x="529.443359" xlink:href="#DejaVuSans-74"/>
     <use x="568.652344" xlink:href="#DejaVuSans-79"/>
     <use x="627.832031" xlink:href="#DejaVuSans-20"/>
     <use x="659.619141" xlink:href="#DejaVuSans-43"/>
     <use x="729.443359" xlink:href="#DejaVuSans-6f"/>
     <use x="790.625" xlink:href="#DejaVuSans-6d"/>
     <use x="888.037109" xlink:href="#DejaVuSans-70"/>
     <use x="951.513672" xlink:href="#DejaVuSans-61"/>
     <use x="1012.792969" xlink:href="#DejaVuSans-72"/>
     <use x="1053.90625" xlink:href="#DejaVuSans-69"/>
     <use x="1081.689453" xlink:href="#DejaVuSans-73"/>
     <use x="1133.789062" xlink:href="#DejaVuSans-6f"/>
     <use x="1194.970703" xlink:href="#DejaVuSans-6e"/>
    </g>
   </g>
  </g>
 </g>
 <defs>
  <clipPath id="pbe571b17a9">
   <rect height="211.24" width="440.3" x="124.9" y="32.64"/>
  </clipPath>
 </defs>
</svg>
