<?xml version="1.0" encoding="utf-8" standalone="no"?>
<!DOCTYPE svg PUBLIC "-//W3C//DTD SVG 1.1//EN"
  "http://www.w3.org/Graphics/SVG/1.1/DTD/svg11.dtd">
<svg height="72pt" version="1.1" viewBox="0 0 103.090998 72" width="103.090998pt" xmlns="http://www.w3.org/2000/svg" xmlns:xlink="http://www.w3.org/1999/xlink">
 <metadata>
  <rdf:RDF xmlns:cc="http://creativecommons.org/ns#" xmlns:dc="http://purl.org/dc/elements/1.1/" xmlns:rdf="http://www.w3.org/1999/02/22-rdf-syntax-ns#">
   <cc:Work>
    <dc:type rdf:resource="http://purl.org/dc/dcmitype/StillImage"/>
    <dc:date>2022-05-18T23:15:44.872402</dc:date>
    <dc:format>image/svg+xml</dc:format>
    <dc:creator>
     <cc:Agent>
      <dc:title>Matplotlib v3.4.3, https://matplotlib.org/</dc:title>
     </cc:Agent>
    </dc:creator>
   </cc:Work>
  </rdf:RDF>
 </metadata>
 <defs>
  <style type="text/css">*{stroke-linecap:butt;stroke-linejoin:round;}</style>
 </defs>
 <g id="figure_1">
  <g id="patch_1">
   <path d="M 0 72 
L 103.090998 72 
L 103.090998 0 
L 0 0 
z
" style="fill:#ffffff;"/>
  </g>
  <g id="axes_1">
   <g id="line2d_1">
    <path clip-path="url(#p2fad28a592)" d="M 52.09851 66.06771 
L 48.022754 66.12661 
" style="fill:none;stroke:#808080;stroke-linecap:square;stroke-width:0.477273;"/>
   </g>
   <g id="line2d_2">
    <path clip-path="url(#p2fad28a592)" d="M 27.409902 63.95637 
L 27.463151 60.180727 
L 27.513488 56.576499 
L 27.563824 52.97227 
L 27.614161 49.368041 
L 27.664498 45.763813 
L 27.714835 42.159584 
L 27.765172 38.555355 
L 27.815509 34.951126 
L 27.865845 31.346898 
L 27.93407 26.446868 
L 28.002295 21.546839 
L 28.061368 17.326425 
L 28.120441 13.106012 
L 28.179514 8.885598 
L 28.238587 4.665184 
" style="fill:none;stroke:#808080;stroke-linecap:square;stroke-width:0.477273;"/>
   </g>
   <g id="line2d_3">
    <path clip-path="url(#p2fad28a592)" d="M 36.738435 62.459705 
L 36.777263 59.908881 
L 36.83273 56.298611 
L 36.888198 52.688342 
L 36.9775 46.871586 
L 37.066803 41.054831 
L 37.128372 37.060956 
L 37.189941 33.067081 
L 37.25151 29.073206 
L 37.313079 25.07933 
L 37.376867 20.926123 
L 37.440655 16.772916 
L 37.504442 12.619709 
L 37.56823 8.466502 
L 37.61926 5.11222 
" style="fill:none;stroke:#808080;stroke-linecap:square;stroke-width:0.477273;"/>
   </g>
   <g id="line2d_4">
    <path clip-path="url(#p2fad28a592)" d="M 46.323229 68.727273 
L 45.932182 62.814616 
L 45.541136 56.901959 
L 45.297356 53.214289 
L 45.053576 49.526618 
L 44.809796 45.838948 
L 44.566017 42.151277 
L 44.313362 38.332592 
L 44.060707 34.513907 
L 43.808052 30.695222 
L 43.555398 26.876536 
L 43.294145 22.927969 
L 43.032893 18.979402 
L 42.640183 13.025968 
L 42.383368 9.146117 
L 42.126553 5.266267 
" style="fill:none;stroke:#808080;stroke-linecap:square;stroke-width:0.477273;"/>
   </g>
   <g id="line2d_5">
    <path clip-path="url(#p2fad28a592)" d="M 55.440985 59.920963 
L 54.611191 55.089651 
L 53.781396 50.258338 
L 53.05172 46.01074 
L 52.322045 41.763141 
L 51.592369 37.515543 
L 50.862693 33.267945 
L 50.255601 29.73281 
L 49.648508 26.197676 
L 49.041416 22.662541 
L 48.434324 19.127407 
L 47.854688 15.753115 
L 47.275052 12.378823 
L 46.695416 9.004531 
L 46.11578 5.630239 
" style="fill:none;stroke:#808080;stroke-linecap:square;stroke-width:0.477273;"/>
   </g>
   <g id="line2d_6">
    <path clip-path="url(#p2fad28a592)" d="M 63.70676 59.005747 
L 62.944081 54.415321 
L 62.181402 49.824894 
L 61.153589 43.636615 
L 60.125775 37.448337 
L 59.501487 33.691194 
L 58.8772 29.934052 
L 58.252913 26.17691 
L 57.628625 22.419768 
L 56.946097 18.310735 
L 56.263569 14.201703 
L 55.581041 10.092671 
L 54.898512 5.983639 
" style="fill:none;stroke:#808080;stroke-linecap:square;stroke-width:0.477273;"/>
   </g>
   <g id="line2d_7">
    <path clip-path="url(#p2fad28a592)" d="M 88.680472 54.607879 
L 87.578609 48.985191 
L 86.476746 43.362504 
L 85.374883 37.739816 
L 84.27302 32.117129 
L 83.560816 28.48345 
L 82.848613 24.849771 
L 81.771433 19.352435 
L 80.694253 13.855099 
L 79.75075 9.041155 
L 78.807247 4.22721 
" style="fill:none;stroke:#808080;stroke-linecap:square;stroke-width:0.477273;"/>
   </g>
   <g id="line2d_8">
    <path clip-path="url(#p2fad28a592)" d="M 95.147988 53.446491 
L 94.329703 47.428682 
L 93.511418 41.410874 
L 92.693133 35.393065 
L 91.874848 29.375257 
L 91.056563 23.357449 
L 90.238278 17.33964 
L 89.419993 11.321832 
L 88.601708 5.304023 
" style="fill:none;stroke:#808080;stroke-linecap:square;stroke-width:0.477273;"/>
   </g>
   <g id="line2d_9">
    <path clip-path="url(#p2fad28a592)" d="M 75.405977 57.161723 
L 75.493893 53.382682 
L 75.581809 49.603641 
L 75.669725 45.8246 
L 75.757641 42.045559 
" style="fill:none;stroke:#808080;stroke-linecap:square;stroke-width:0.477273;"/>
   </g>
   <g id="line2d_10">
    <path clip-path="url(#p2fad28a592)" d="M 75.694408 57.170785 
L 75.782324 53.391744 
L 75.87024 49.612703 
L 75.958156 45.833662 
L 76.046072 42.054621 
" style="fill:none;stroke:#808080;stroke-linecap:square;stroke-width:0.477273;"/>
   </g>
   <g id="line2d_11">
    <path clip-path="url(#p2fad28a592)" d="M 70.611361 57.910811 
L 70.945276 51.641733 
" style="fill:none;stroke:#808080;stroke-linecap:square;stroke-width:0.477273;"/>
   </g>
   <g id="line2d_12">
    <path clip-path="url(#p2fad28a592)" d="M 70.97301 50.685741 
L 71.198208 46.261442 
L 71.423406 41.837144 
" style="fill:none;stroke:#808080;stroke-linecap:square;stroke-width:0.477273;"/>
   </g>
   <g id="line2d_13">
    <path clip-path="url(#p2fad28a592)" d="M 24.139535 61.814826 
L 23.398766 55.313546 
L 22.657997 48.812267 
L 21.917227 42.310987 
L 21.176458 35.809708 
" style="fill:none;stroke:#808080;stroke-linecap:square;stroke-width:0.477273;"/>
   </g>
   <g id="line2d_14">
    <path clip-path="url(#p2fad28a592)" d="M 50.740665 5.794857 
L 50.975708 7.086551 
L 51.210752 8.378246 
L 51.445796 9.669941 
L 51.68084 10.961635 
L 51.915883 12.25333 
L 52.150927 13.545025 
L 52.385971 14.836719 
L 52.621015 16.128414 
L 52.856058 17.420108 
L 53.091102 18.711803 
L 53.326146 20.003498 
L 53.56119 21.295192 
L 53.796234 22.586887 
L 54.031277 23.878582 
L 54.266321 25.170276 
L 54.501365 26.461971 
L 54.736409 27.753666 
L 54.971452 29.04536 
L 55.206496 30.337055 
L 55.44154 31.628749 
L 55.676584 32.920444 
L 55.911627 34.212139 
L 56.146671 35.503833 
L 56.381715 36.795528 
L 56.616759 38.087223 
L 56.851802 39.378917 
L 57.086846 40.670612 
L 57.32189 41.962306 
L 57.556934 43.254001 
L 57.791977 44.545696 
L 58.027021 45.83739 
L 58.262065 47.129085 
L 58.535104 48.629526 
L 58.808143 50.129966 
L 59.081182 51.630407 
L 59.354221 53.130847 
L 59.62726 54.631287 
L 59.900299 56.131728 
L 60.173338 57.632168 
L 60.446377 59.132609 
" style="fill:none;stroke:#4169e1;stroke-linecap:square;stroke-width:0.477273;"/>
   </g>
   <g id="line2d_15">
    <path clip-path="url(#p2fad28a592)" d="M 53.066974 59.132609 
L 52.88407 58.059099 
L 52.701165 56.98559 
L 52.518261 55.91208 
L 52.335357 54.83857 
L 52.152453 53.765061 
L 51.969548 52.691551 
L 51.786644 51.618041 
L 51.60374 50.544532 
L 51.420836 49.471022 
L 51.237931 48.397512 
L 51.055027 47.324003 
L 50.872123 46.250493 
L 50.689218 45.176983 
L 50.506314 44.103474 
L 50.32341 43.029964 
L 50.140506 41.956454 
L 49.949316 40.834428 
L 49.758126 39.712401 
L 49.566937 38.590374 
L 49.375747 37.468348 
L 49.184557 36.346321 
L 48.993367 35.224294 
L 48.802178 34.102267 
L 48.610988 32.980241 
L 48.419798 31.858214 
L 48.228608 30.736187 
L 48.037419 29.614161 
L 47.846229 28.492134 
L 47.655039 27.370107 
L 47.46385 26.248081 
L 47.27266 25.126054 
L 47.08147 24.004027 
L 46.89028 22.882001 
L 46.699091 21.759974 
L 46.507901 20.637947 
L 46.316711 19.515921 
L 46.125521 18.393894 
L 45.934332 17.271867 
L 45.743142 16.149841 
L 45.551952 15.027814 
L 45.360763 13.905787 
L 45.169573 12.783761 
L 44.978383 11.661734 
L 44.787193 10.539707 
L 44.596004 9.41768 
L 44.404814 8.295654 
L 44.213624 7.173627 
L 44.022434 6.0516 
" style="fill:none;stroke:#008000;stroke-linecap:square;stroke-width:0.477273;"/>
   </g>
   <g id="line2d_16">
    <path clip-path="url(#p2fad28a592)" d="M 39.855712 5.337249 
L 39.885872 7.326069 
L 39.916033 9.314889 
L 39.946193 11.303709 
L 39.976354 13.292528 
L 40.006514 15.281348 
L 40.036675 17.270168 
L 40.066835 19.258988 
L 40.096996 21.247808 
L 40.127156 23.236628 
L 40.157317 25.225448 
L 40.187477 27.214268 
L 40.217638 29.203088 
L 40.247798 31.191908 
L 40.277959 33.180727 
L 40.308119 35.169547 
L 40.33828 37.158367 
L 40.364072 38.84759 
L 40.389864 40.536813 
L 40.415657 42.226035 
L 40.441449 43.915258 
L 40.45698 44.940722 
L 40.472511 45.966187 
L 40.488042 46.991652 
L 40.503573 48.017116 
L 40.519104 49.042581 
L 40.534635 50.068045 
L 40.550166 51.09351 
L 40.565697 52.118975 
L 40.581227 53.144439 
L 40.596758 54.169904 
L 40.612289 55.195369 
L 40.62782 56.220833 
L 40.643351 57.246298 
L 40.658882 58.271762 
L 40.674413 59.297227 
L 40.689944 60.322692 
" style="fill:none;stroke:#008000;stroke-linecap:square;stroke-width:0.477273;"/>
   </g>
   <g id="line2d_17">
    <path clip-path="url(#p2fad28a592)" d="M 40.33828 37.158367 
L 41.563558 37.758128 
L 42.788836 38.357889 
L 44.014114 38.95765 
L 45.239393 39.557411 
L 46.464671 40.157172 
L 47.689949 40.756932 
L 48.915227 41.356693 
L 50.140506 41.956454 
" style="fill:none;stroke:#008000;stroke-linecap:square;stroke-width:0.477273;"/>
   </g>
   <g id="line2d_18">
    <path clip-path="url(#p2fad28a592)" d="M 32.833519 4.592692 
L 32.808767 6.169589 
L 32.784015 7.746487 
L 32.759262 9.323384 
L 32.73451 10.900281 
L 32.709757 12.477178 
L 32.685005 14.054076 
L 32.660253 15.630973 
L 32.6355 17.20787 
L 32.610748 18.784767 
L 32.585995 20.361665 
L 32.561243 21.938562 
L 32.536491 23.515459 
L 32.511738 25.092356 
L 32.486986 26.669254 
L 32.462234 28.246151 
L 32.437481 29.823048 
L 32.420148 30.931766 
L 32.402814 32.040483 
L 32.38548 33.149201 
L 32.368147 34.257918 
L 32.350813 35.366636 
L 32.333479 36.475353 
L 32.316146 37.584071 
L 32.298812 38.692789 
" style="fill:none;stroke:#008000;stroke-linecap:square;stroke-width:0.477273;"/>
   </g>
   <g id="line2d_19">
    <path clip-path="url(#p2fad28a592)" d="M 32.298812 38.692789 
L 33.316642 39.345597 
L 34.334471 39.998406 
L 35.352301 40.651214 
L 36.370131 41.304023 
L 37.38796 41.956832 
L 38.40579 42.60964 
L 39.42362 43.262449 
L 40.441449 43.915258 
" style="fill:none;stroke:#008000;stroke-linecap:square;stroke-width:0.477273;"/>
   </g>
   <g id="line2d_20">
    <path clip-path="url(#p2fad28a592)" d="M 32.298812 38.692789 
L 32.272742 40.184167 
L 32.246673 41.675546 
L 32.220603 43.166925 
L 32.194533 44.658304 
L 32.168463 46.149683 
L 32.142394 47.641062 
L 32.116324 49.132441 
L 32.090254 50.62382 
L 32.064184 52.115199 
L 32.038115 53.606578 
L 32.012045 55.097957 
L 31.985975 56.589336 
L 31.959905 58.080715 
L 31.933836 59.572094 
L 31.907766 61.063473 
L 31.881696 62.554852 
" style="fill:none;stroke:#008000;stroke-linecap:square;stroke-width:0.477273;"/>
   </g>
   <g id="line2d_21">
    <path clip-path="url(#p2fad28a592)" d="M 27.597382 5.723875 
L 26.996183 6.711111 
L 26.394984 7.698347 
L 25.793785 8.685583 
L 25.192587 9.67282 
L 24.591388 10.660056 
L 23.990189 11.647292 
L 23.38899 12.634528 
L 22.787791 13.621764 
L 22.186592 14.609001 
L 21.585393 15.596237 
L 20.984194 16.583473 
L 20.382995 17.570709 
L 19.781796 18.557946 
L 19.180597 19.545182 
L 18.579398 20.532418 
L 17.978199 21.519654 
" style="fill:none;stroke:#008000;stroke-linecap:square;stroke-width:0.477273;"/>
   </g>
   <g id="line2d_22">
    <path clip-path="url(#p2fad28a592)" d="M 17.978199 21.519654 
L 18.881904 22.038616 
L 19.785609 22.557579 
L 20.689314 23.076541 
L 21.59302 23.595503 
L 22.496725 24.114465 
L 23.40043 24.633427 
L 24.304135 25.152389 
L 25.20784 25.671351 
L 26.111545 26.190313 
L 27.01525 26.709275 
L 27.918955 27.228238 
L 28.822661 27.7472 
L 29.726366 28.266162 
L 30.630071 28.785124 
L 31.533776 29.304086 
L 32.437481 29.823048 
" style="fill:none;stroke:#008000;stroke-linecap:square;stroke-width:0.477273;"/>
   </g>
   <g id="line2d_23">
    <path clip-path="url(#p2fad28a592)" d="M 17.978199 21.519654 
L 17.779695 23.028118 
L 17.58119 24.536582 
L 17.382686 26.045046 
L 17.184181 27.553509 
L 16.985677 29.061973 
L 16.787172 30.570437 
L 16.588668 32.0789 
L 16.390163 33.587364 
L 16.191659 35.095828 
L 15.993154 36.604292 
L 15.79465 38.112755 
L 15.596145 39.621219 
L 15.39764 41.129683 
L 15.199136 42.638147 
L 15.000631 44.14661 
L 14.802127 45.655074 
" style="fill:none;stroke:#008000;stroke-linecap:square;stroke-width:0.477273;"/>
   </g>
   <g id="line2d_24">
    <path clip-path="url(#p2fad28a592)" d="M 14.802127 45.655074 
L 15.326157 46.827411 
L 15.850186 47.999748 
L 16.374216 49.172085 
L 16.898246 50.344423 
L 17.422276 51.51676 
L 17.946305 52.689097 
L 18.470335 53.861434 
L 18.994365 55.033771 
L 19.518394 56.206108 
L 20.042424 57.378445 
L 20.566454 58.550782 
L 21.090484 59.72312 
L 21.614513 60.895457 
L 22.138543 62.067794 
L 22.662573 63.240131 
L 23.186602 64.412468 
" style="fill:none;stroke:#008000;stroke-linecap:square;stroke-width:0.477273;"/>
   </g>
   <g id="line2d_25">
    <path clip-path="url(#p2fad28a592)" d="M 17.978199 21.519654 
L 16.272017 21.953853 
L 14.565835 22.388052 
L 13.33085 23.59286 
L 12.095865 24.797667 
L 10.86088 26.002475 
L 9.625895 27.207283 
L 8.39091 28.41209 
L 7.155925 29.616898 
L 5.92094 30.821706 
L 4.685954 32.026513 
L 4.700653 33.201871 
L 4.715352 34.377229 
L 4.730051 35.552586 
L 4.74475 36.727944 
L 4.908518 37.881025 
L 5.072286 39.034107 
L 5.236054 40.187188 
L 5.399822 41.340269 
L 5.56359 42.493351 
L 5.727358 43.646432 
L 5.891126 44.799513 
L 6.054894 45.952595 
L 6.682786 47.750556 
L 7.310679 49.548517 
L 8.21591 51.080673 
L 9.12114 52.612829 
" style="fill:none;stroke:#008000;stroke-linecap:square;stroke-width:0.477273;"/>
   </g>
   <g id="line2d_26">
    <path clip-path="url(#p2fad28a592)" d="M 9.12114 52.612829 
L 10.357235 54.161975 
L 11.593329 55.711121 
L 12.829423 57.260268 
L 14.065518 58.809414 
L 15.205653 59.509796 
L 16.345789 60.210177 
L 17.485925 60.910559 
L 18.62606 61.610941 
L 19.766196 62.311323 
L 20.906331 63.011704 
L 22.046467 63.712086 
L 23.186602 64.412468 
" style="fill:none;stroke:#008000;stroke-linecap:square;stroke-width:0.477273;"/>
   </g>
   <g id="line2d_27">
    <path clip-path="url(#p2fad28a592)" d="M 56.194235 3.311994 
L 57.267462 3.310767 
L 58.34069 3.30954 
L 59.413918 3.308313 
L 60.487146 3.307086 
L 61.560374 3.305859 
L 62.633602 3.304631 
L 63.706829 3.303404 
L 64.780057 3.302177 
L 65.853285 3.30095 
L 66.926513 3.299723 
L 67.999741 3.298496 
L 69.072969 3.297269 
L 70.146196 3.296042 
L 71.219424 3.294815 
L 72.292652 3.293588 
L 73.36588 3.292361 
L 74.821349 3.29085 
L 76.276817 3.28934 
L 77.323351 3.288207 
L 78.369885 3.287075 
L 79.416419 3.285942 
L 80.462954 3.284809 
L 81.509488 3.283677 
L 82.556022 3.282544 
L 83.602556 3.281411 
L 84.64909 3.280279 
L 86.33253 3.278391 
L 88.01597 3.276503 
L 89.699411 3.274615 
L 91.382851 3.272727 
" style="fill:none;stroke:#008000;stroke-linecap:square;stroke-width:0.477273;"/>
   </g>
   <g id="line2d_28">
    <path clip-path="url(#p2fad28a592)" d="M 73.36588 3.292361 
L 72.603478 4.678777 
L 71.841077 6.065193 
L 71.078675 7.451609 
L 70.316274 8.838025 
L 69.553872 10.224441 
L 68.791471 11.610857 
L 68.029069 12.997273 
L 67.266668 14.383689 
L 66.84872 15.497881 
L 66.430772 16.612074 
L 66.012824 17.726266 
L 65.594876 18.840458 
L 65.908267 20.40735 
L 66.221659 21.974242 
L 66.796303 23.41918 
L 67.370947 24.864119 
L 67.945591 26.309057 
L 68.520234 27.753996 
L 68.467818 29.755842 
L 68.415401 31.757688 
L 68.362984 33.759533 
L 68.310567 35.761379 
L 68.203237 37.204808 
L 68.095908 38.648236 
L 67.988578 40.091664 
L 67.881248 41.535093 
L 67.823562 42.306834 
L 67.781823 44.262239 
L 67.740083 46.217645 
L 67.698344 48.17305 
L 67.656605 50.128456 
L 67.614865 52.083861 
L 67.573126 54.039267 
L 67.531387 55.994672 
L 67.489647 57.950078 
" style="fill:none;stroke:#008000;stroke-linecap:square;stroke-width:0.477273;"/>
   </g>
   <g id="line2d_29">
    <path clip-path="url(#p2fad28a592)" d="M 76.276817 3.28934 
L 76.256849 4.614591 
L 76.236881 5.939841 
L 76.16921 6.915468 
L 76.052174 8.59072 
L 75.935137 10.265973 
L 75.818101 11.941226 
L 75.701064 13.616479 
L 75.388643 14.858665 
L 75.076222 16.100852 
L 74.763801 17.343038 
L 74.45138 18.585225 
L 74.138959 19.827411 
L 73.826538 21.069598 
L 73.514117 22.311784 
L 73.201696 23.553971 
L 72.031331 24.603977 
L 70.860965 25.653983 
L 69.6906 26.70399 
L 68.520234 27.753996 
" style="fill:none;stroke:#008000;stroke-linecap:square;stroke-width:0.477273;"/>
   </g>
   <g id="line2d_30">
    <path clip-path="url(#p2fad28a592)" d="M 76.16921 6.915468 
L 76.915249 7.954524 
L 77.661287 8.993581 
L 78.759268 9.879725 
L 79.857248 10.765868 
L 80.955228 11.652012 
L 82.053208 12.538155 
L 82.611767 13.999329 
L 83.170325 15.460503 
L 82.962044 16.859001 
L 82.753763 18.257499 
L 82.545483 19.655997 
L 82.337202 21.054495 
L 82.262737 22.363699 
L 82.188272 23.672903 
L 82.113807 24.982108 
L 82.039341 26.291312 
L 81.964876 27.600516 
L 81.890411 28.90972 
L 81.815946 30.218924 
L 81.741481 31.528129 
L 81.96446 33.237362 
L 82.18744 34.946596 
L 82.410419 36.655829 
L 82.633399 38.365063 
L 82.715907 39.469627 
L 82.798415 40.574191 
L 82.880923 41.678756 
L 82.963431 42.78332 
L 83.045939 43.887884 
L 83.128447 44.992449 
L 83.210955 46.097013 
L 83.293463 47.201577 
L 83.375971 48.306142 
L 83.458479 49.410706 
L 83.540987 50.51527 
L 83.623495 51.619835 
L 83.706003 52.724399 
L 83.788511 53.828963 
L 83.871019 54.933528 
L 83.953527 56.038092 
" style="fill:none;stroke:#008000;stroke-linecap:square;stroke-width:0.477273;"/>
   </g>
   <g id="line2d_31">
    <path clip-path="url(#p2fad28a592)" d="M 84.64909 3.280279 
L 84.861669 5.060683 
L 85.074249 6.841087 
L 85.286828 8.621492 
L 85.499407 10.401896 
L 85.711987 12.182301 
L 85.924566 13.962705 
L 86.137146 15.743109 
L 86.349725 17.523514 
L 86.562304 19.303918 
L 86.774884 21.084323 
L 86.987463 22.864727 
L 87.200043 24.645132 
L 87.412622 26.425536 
L 87.625201 28.20594 
L 87.837781 29.986345 
L 88.05036 31.766749 
L 88.303223 33.168834 
L 88.556086 34.570919 
L 88.808948 35.973004 
L 89.061811 37.375089 
L 89.314674 38.777174 
L 89.567537 40.179259 
L 89.820399 41.581344 
L 90.073262 42.983429 
L 90.326125 44.385514 
L 90.578987 45.787599 
L 90.83185 47.189684 
L 91.084713 48.591769 
L 91.337575 49.993854 
L 91.590438 51.395939 
L 91.843301 52.798024 
L 92.096164 54.200109 
" style="fill:none;stroke:#008000;stroke-linecap:square;stroke-width:0.477273;"/>
   </g>
   <g id="line2d_32">
    <path clip-path="url(#p2fad28a592)" d="M 91.382851 3.272727 
L 91.918113 4.218903 
L 92.453375 5.165079 
L 92.639364 6.645367 
L 92.825354 8.125655 
L 93.011344 9.605943 
L 93.197333 11.086231 
L 93.383323 12.566519 
L 93.569313 14.046807 
L 93.755302 15.527095 
L 93.941292 17.007383 
L 94.127281 18.487671 
L 94.313271 19.967959 
L 94.499261 21.448247 
L 94.68525 22.928535 
L 94.87124 24.408823 
L 95.05723 25.889111 
L 95.243219 27.369399 
L 95.429209 28.849687 
L 95.615199 30.329975 
L 95.801188 31.810263 
L 95.987178 33.290551 
L 96.173168 34.770839 
L 96.359157 36.251127 
L 96.545147 37.731415 
L 96.731136 39.211703 
L 96.917126 40.691991 
L 97.103116 42.172279 
L 97.289105 43.652567 
L 97.475095 45.132855 
L 97.661085 46.613143 
L 97.847074 48.093431 
L 98.033064 49.573719 
L 98.219054 51.054007 
L 98.405043 52.534295 
" style="fill:none;stroke:#008000;stroke-linecap:square;stroke-width:0.477273;"/>
   </g>
   <g id="line2d_33">
    <path clip-path="url(#p2fad28a592)" d="M 73.019762 51.107102 
L 72.927964 52.946973 
L 72.836165 54.786844 
L 72.744366 56.626715 
L 72.652567 58.466586 
" style="fill:none;stroke:#008000;stroke-linecap:square;stroke-width:0.477273;"/>
   </g>
   <g id="line2d_34">
    <path clip-path="url(#p2fad28a592)" d="M 67.881248 41.535093 
L 66.67885 42.234342 
L 65.476452 42.933591 
L 64.274054 43.63284 
L 63.071657 44.332089 
L 61.869259 45.031338 
L 60.666861 45.730587 
L 59.464463 46.429836 
L 58.262065 47.129085 
" style="fill:none;stroke:#008000;stroke-linecap:square;stroke-width:0.477273;"/>
   </g>
   <g id="line2d_35">
    <path clip-path="url(#p2fad28a592)" d="M 73.570001 41.675546 
L 73.501221 42.854491 
L 73.432441 44.033435 
L 73.363661 45.21238 
L 73.294881 46.391324 
L 73.226102 47.570269 
L 73.157322 48.749213 
L 73.088542 49.928158 
L 73.019762 51.107102 
" style="fill:none;stroke:#008000;stroke-linecap:square;stroke-width:0.477273;"/>
   </g>
   <g id="line2d_36">
    <path clip-path="url(#p2fad28a592)" d="M 78.913745 57.117926 
L 78.924145 55.203675 
L 78.934545 53.289424 
L 78.944945 51.375173 
L 78.955345 49.460922 
L 78.965746 47.546671 
L 78.976146 45.63242 
L 78.986546 43.718169 
L 78.996946 41.803918 
" style="fill:none;stroke:#008000;stroke-linecap:square;stroke-width:0.477273;"/>
   </g>
  </g>
 </g>
 <defs>
  <clipPath id="p2fad28a592">
   <rect height="72" width="103.090998" x="0" y="0"/>
  </clipPath>
 </defs>
</svg>
