<?xml version="1.0" encoding="utf-8" standalone="no"?>
<!DOCTYPE svg PUBLIC "-//W3C//DTD SVG 1.1//EN"
  "http://www.w3.org/Graphics/SVG/1.1/DTD/svg11.dtd">
<svg height="209.745992pt" version="1.1" viewBox="0 0 72 209.745992" width="72pt" xmlns="http://www.w3.org/2000/svg" xmlns:xlink="http://www.w3.org/1999/xlink">
 <metadata>
  <rdf:RDF xmlns:cc="http://creativecommons.org/ns#" xmlns:dc="http://purl.org/dc/elements/1.1/" xmlns:rdf="http://www.w3.org/1999/02/22-rdf-syntax-ns#">
   <cc:Work>
    <dc:type rdf:resource="http://purl.org/dc/dcmitype/StillImage"/>
    <dc:date>2022-05-19T20:56:20.187898</dc:date>
    <dc:format>image/svg+xml</dc:format>
    <dc:creator>
     <cc:Agent>
      <dc:title>Matplotlib v3.4.3, https://matplotlib.org/</dc:title>
     </cc:Agent>
    </dc:creator>
   </cc:Work>
  </rdf:RDF>
 </metadata>
 <defs>
  <style type="text/css">*{stroke-linecap:butt;stroke-linejoin:round;}</style>
 </defs>
 <g id="figure_1">
  <g id="patch_1">
   <path d="M 0 209.745992 
L 72 209.745992 
L 72 0 
L 0 0 
z
" style="fill:#ffffff;"/>
  </g>
  <g id="axes_1">
   <g id="line2d_1">
    <path clip-path="url(#p1be33cc655)" d="M 66.021867 29.169199 
L 65.917353 29.555961 
L 65.83225 29.873897 
L 65.737441 30.225941 
L 65.226072 32.128075 
L 64.682042 34.149284 
L 64.138012 36.170492 
L 63.593982 38.1917 
L 63.049952 40.212908 
L 62.541382 42.103166 
L 62.032812 43.993424 
L 61.524242 45.883681 
L 61.015672 47.773939 
L 60.544055 49.526546 
L 60.072438 51.279153 
L 59.600821 53.03176 
L 59.129204 54.784367 
L 58.313252 57.815114 
L 58.118409 58.538692 
L 58.071378 58.714714 
L 57.995979 58.994888 
L 57.915354 59.29577 
L 57.831744 59.605788 
L 57.732456 59.973059 
L 56.967268 62.816516 
L 56.20208 65.659972 
L 55.714786 67.47105 
L 55.227492 69.282128 
L 54.740198 71.093207 
L 54.252904 72.904285 
L 53.766916 74.710642 
L 53.280929 76.517 
L 52.794941 78.323358 
L 52.308953 80.129716 
L 51.800197 82.019973 
L 51.29144 83.910231 
L 50.782684 85.800489 
L 50.273927 87.690746 
L 49.782807 89.516061 
L 49.291687 91.341377 
L 48.800567 93.166692 
L 48.309447 94.992007 
L 47.818327 96.817322 
L 47.327207 98.642638 
L 46.836087 100.467953 
L 46.344967 102.293268 
L 45.552158 105.239049 
L 44.759348 108.18483 
L 43.966539 111.13061 
L 43.17373 114.076391 
L 42.722829 115.75256 
L 42.271928 117.428728 
L 41.821027 119.104897 
L 41.370126 120.781065 
L 40.919225 122.456625 
L 40.468324 124.132184 
L 40.017423 125.807744 
L 39.566522 127.483303 
L 39.115621 129.158862 
L 38.66472 130.834422 
L 38.213819 132.509981 
L 37.762918 134.185541 
L 36.893217 137.417586 
L 36.023516 140.649631 
L 35.315437 143.280521 
L 34.607358 145.911411 
L 33.875764 148.631531 
L 33.593577 149.679745 
" style="fill:none;stroke:#808080;stroke-linecap:square;stroke-width:0.4;"/>
   </g>
   <g id="line2d_2">
    <path clip-path="url(#p1be33cc655)" d="M 37.615106 179.04802 
L 38.538184 177.451335 
L 39.461262 175.854651 
L 40.620615 173.848365 
L 41.779968 171.842079 
L 42.990085 169.748391 
L 44.200201 167.654703 
L 45.501767 165.402656 
L 46.803333 163.150609 
L 48.198215 160.737767 
L 49.593096 158.324925 
L 50.946172 155.983649 
L 52.299249 153.642373 
L 53.533627 151.507268 
L 54.768006 149.372163 
L 55.828444 147.537331 
L 56.888883 145.702499 
L 58.035172 143.719053 
L 59.18146 141.735608 
L 60.710716 139.0901 
L 62.239972 136.444592 
L 63.179474 134.819281 
L 64.118975 133.19397 
" style="fill:none;stroke:#808080;stroke-linecap:square;stroke-width:0.4;"/>
   </g>
   <g id="line2d_3">
    <path clip-path="url(#p1be33cc655)" d="M 18.615304 200.212083 
L 18.422701 199.144988 
L 18.051678 197.088758 
L 17.636237 194.786767 
L 17.220796 192.484776 
L 16.706441 189.63462 
L 16.192085 186.784463 
L 15.700125 184.059471 
L 15.208165 181.334479 
L 14.86775 179.447572 
L 14.271277 176.14396 
L 13.805072 173.561187 
L 13.338867 170.978414 
L 13.127601 169.805339 
L 13.00741 169.14145 
" style="fill:none;stroke:#808080;stroke-linecap:square;stroke-width:0.4;"/>
   </g>
   <g id="line2d_4">
    <path clip-path="url(#p1be33cc655)" d="M 24.559881 148.7302 
L 24.067921 145.745134 
L 23.709216 143.566481 
L 23.350511 141.387827 
L 22.88468 138.56112 
L 22.418848 135.734413 
L 21.907105 132.629969 
L 21.395363 129.525524 
L 20.918333 126.630906 
L 20.441304 123.736287 
L 19.983311 120.95526 
L 19.525318 118.174233 
L 18.993046 114.943407 
L 18.460774 111.71258 
L 17.930368 108.49363 
L 17.399962 105.27468 
L 16.902777 102.258855 
L 16.405591 99.243031 
L 15.86996 95.992105 
L 15.334328 92.741178 
L 14.933444 90.306105 
L 14.834903 89.714086 
" style="fill:none;stroke:#808080;stroke-linecap:square;stroke-width:0.4;"/>
   </g>
   <g id="line2d_5">
    <path clip-path="url(#p1be33cc655)" d="M 34.038506 175.078083 
L 34.532332 173.300808 
L 35.026158 171.523534 
L 35.59613 169.47309 
L 36.166102 167.422646 
L 36.947713 164.611166 
L 37.729325 161.799686 
L 38.276714 159.829792 
L 38.824103 157.859898 
L 39.371493 155.890004 
L 39.918882 153.92011 
L 40.487547 151.874387 
L 41.056212 149.828663 
L 41.624878 147.78294 
L 42.193543 145.737216 
L 42.710138 143.878174 
L 43.226733 142.019131 
L 43.743328 140.160089 
L 44.259923 138.301046 
L 44.85509 136.160003 
L 45.450257 134.018959 
L 46.045424 131.877916 
L 46.640591 129.736873 
L 47.361174 127.144506 
L 48.081757 124.55214 
L 48.80234 121.959774 
L 49.522923 119.367407 
L 50.014696 117.597898 
L 50.506469 115.828389 
L 50.998243 114.05888 
L 51.490016 112.289372 
L 52.330603 109.264716 
L 53.17119 106.24006 
L 53.878895 103.693831 
L 54.586601 101.147602 
L 55.294306 98.601373 
L 56.002011 96.055144 
L 56.473069 94.360246 
L 56.944126 92.665349 
L 57.415183 90.970451 
L 57.88624 89.275554 
L 58.357297 87.580656 
L 58.828354 85.885759 
L 59.299411 84.190861 
L 59.770469 82.495964 
L 60.429837 80.124082 
L 61.089205 77.7522 
L 61.748573 75.380318 
L 62.407941 73.008436 
L 63.161184 70.298671 
L 63.914428 67.588906 
L 64.118975 66.851928 
L 64.445953 65.677635 
" style="fill:none;stroke:#808080;stroke-linecap:square;stroke-width:0.4;"/>
   </g>
   <g id="line2d_6">
    <path clip-path="url(#p1be33cc655)" d="M 20.615991 193.224799 
L 20.818672 190.979909 
L 21.021354 188.735019 
L 21.224035 186.490129 
L 21.426717 184.245238 
" style="fill:none;stroke:#808080;stroke-linecap:square;stroke-width:0.4;"/>
   </g>
   <g id="line2d_7">
    <path clip-path="url(#p1be33cc655)" d="M 22.874228 180.913001 
L 22.211314 178.007723 
" style="fill:none;stroke:#808080;stroke-linecap:square;stroke-width:0.4;"/>
   </g>
   <g id="line2d_8">
    <path clip-path="url(#p1be33cc655)" d="M 23.394556 180.196731 
L 23.014202 178.473664 
L 22.633847 176.750597 
L 22.244908 174.990681 
L 21.855968 173.230765 
L 21.427463 171.291172 
L 20.998958 169.35158 
L 20.550297 167.320931 
L 20.101635 165.290282 
L 19.61938 163.106147 
L 19.137125 160.922012 
L 18.649271 158.714123 
L 18.161417 156.506233 
L 17.569796 153.82814 
L 16.978176 151.150047 
L 16.41343 148.594986 
L 15.848684 146.039926 
L 15.269007 143.415431 
L 14.689331 140.790936 
L 14.022684 137.773589 
L 13.356037 134.756242 
L 12.660276 131.609467 
L 11.964515 128.462692 
" style="fill:none;stroke:#808080;stroke-linecap:square;stroke-width:0.4;"/>
   </g>
   <g id="line2d_9">
    <path clip-path="url(#p1be33cc655)" d="M 62.831967 133.228078 
L 62.564151 133.681343 
L 62.296335 134.134607 
L 62.028519 134.587871 
L 61.760704 135.041136 
L 61.492888 135.4944 
L 61.225072 135.947665 
L 60.957256 136.400929 
L 60.689441 136.854193 
L 60.421625 137.307458 
L 60.153809 137.760722 
L 59.885993 138.213987 
L 59.618177 138.667251 
L 59.350362 139.120515 
L 59.082546 139.57378 
L 58.81473 140.027044 
L 58.546914 140.480309 
L 58.252154 141.002798 
L 57.957393 141.525287 
L 57.662632 142.047777 
L 57.367872 142.570266 
L 57.073111 143.092755 
L 56.778351 143.615245 
L 56.48359 144.137734 
L 56.188829 144.660223 
L 55.894069 145.182713 
L 55.599308 145.705202 
L 55.304547 146.227691 
L 55.009787 146.750181 
L 54.715026 147.27267 
L 54.420265 147.795159 
L 54.125505 148.317649 
L 53.830744 148.840138 
L 53.535984 149.362627 
L 53.241223 149.885117 
L 52.946462 150.407606 
L 52.651702 150.930095 
L 52.356941 151.452585 
L 52.06218 151.975074 
L 51.76742 152.497563 
L 51.472659 153.020053 
L 51.177898 153.542542 
L 50.883138 154.065031 
L 50.588377 154.587521 
L 50.293616 155.11001 
L 49.998856 155.632499 
L 49.704095 156.154989 
L 49.409335 156.677478 
L 49.114574 157.199967 
L 48.819813 157.722457 
L 48.525053 158.244946 
L 48.230292 158.767435 
L 47.935531 159.289925 
L 47.640771 159.812414 
L 47.34601 160.334904 
L 47.051249 160.857393 
L 46.756489 161.379882 
L 46.461728 161.902372 
L 46.166968 162.424861 
L 45.872207 162.94735 
L 45.577446 163.46984 
L 45.282686 163.992329 
L 44.987925 164.514818 
L 44.693164 165.037308 
L 44.398404 165.559797 
L 44.103643 166.082286 
L 43.808882 166.604776 
L 43.514122 167.127265 
L 43.219361 167.649754 
L 42.9246 168.172244 
L 42.62984 168.694733 
L 42.335079 169.217222 
L 42.040319 169.739712 
L 41.745558 170.262201 
L 41.450797 170.78469 
L 41.156037 171.30718 
L 40.861276 171.829669 
L 40.566515 172.352158 
L 40.271755 172.874648 
L 39.976994 173.397137 
L 39.682233 173.919626 
L 38.961464 174.260707 
L 38.240694 174.601788 
L 37.519924 174.942869 
L 36.799155 175.28395 
" style="fill:none;stroke:#000000;stroke-linecap:square;stroke-width:0.4;"/>
   </g>
   <g id="line2d_10">
    <path clip-path="url(#p1be33cc655)" d="M 13.720341 147.680159 
L 14.196251 148.055348 
L 14.672161 148.430537 
L 15.422418 149.017074 
L 15.835993 149.478751 
L 16.51869 149.9788 
L 17.201386 150.478849 
L 18.038241 150.834852 
L 18.875095 151.190855 
L 19.379932 151.407228 
L 19.88477 151.623601 
L 20.389607 151.839974 
L 20.894445 152.056347 
L 21.442767 152.005946 
L 21.991089 151.955546 
L 22.539412 151.905145 
L 23.087734 151.854744 
L 23.890808 151.727296 
L 24.693882 151.599847 
L 25.496956 151.472399 
L 26.30003 151.34495 
L 26.932337 151.337641 
L 27.564643 151.330332 
L 28.19695 151.323024 
L 28.829256 151.315715 
L 29.480786 151.423977 
L 30.132315 151.53224 
L 30.783845 151.640503 
L 31.435374 151.748765 
" style="fill:none;stroke:#008000;stroke-linecap:square;stroke-width:0.4;"/>
   </g>
   <g id="line2d_11">
    <path clip-path="url(#p1be33cc655)" d="M 5.690721 120.028251 
L 5.251578 120.793399 
L 4.812435 121.558547 
L 4.373291 122.323695 
L 3.934148 123.088842 
L 3.768793 123.769024 
L 3.603438 124.449207 
L 3.438083 125.129389 
L 3.272727 125.809571 
L 3.272727 126.432957 
L 3.272727 127.056343 
L 3.272727 127.679729 
L 3.272727 128.303115 
L 3.376681 128.799053 
L 3.480634 129.29499 
L 3.584588 129.790928 
L 3.688542 130.286865 
L 4.264672 130.825286 
L 4.840803 131.363706 
L 5.416933 131.902127 
L 5.993064 132.440547 
L 6.454696 132.674317 
L 6.916328 132.908086 
L 7.37796 133.141856 
L 7.839593 133.375626 
L 8.301225 133.609396 
L 8.762857 133.843166 
L 9.224489 134.076935 
L 9.686122 134.310705 
L 10.147754 134.544475 
L 10.609386 134.778245 
L 11.071018 135.012014 
L 11.532651 135.245784 
L 11.994283 135.479554 
L 12.455915 135.713324 
L 12.917547 135.947094 
L 13.37918 136.180863 
L 14.031829 136.629217 
L 14.684478 137.077571 
L 15.337127 137.525925 
L 15.989777 137.974278 
L 16.642426 138.422632 
L 17.295075 138.870986 
L 17.947725 139.31934 
L 18.600374 139.767693 
L 19.137965 139.897959 
L 19.675556 140.028224 
L 20.213147 140.15849 
L 20.750738 140.288755 
L 21.28833 140.419021 
L 21.825921 140.549286 
L 22.363512 140.679552 
L 22.901103 140.809817 
L 23.542368 140.783018 
L 24.183633 140.756219 
L 24.824897 140.729419 
L 25.466162 140.70262 
L 25.905119 140.44011 
L 26.344075 140.177599 
L 26.785831 139.914784 
L 27.227587 139.65197 
L 27.669343 139.389155 
L 28.111099 139.12634 
L 28.511797 138.538584 
L 28.912494 137.950829 
L 29.313191 137.363074 
L 29.713888 136.775318 
L 30.254932 136.581633 
L 30.795976 136.387948 
L 31.33702 136.194263 
L 31.878063 136.000578 
L 32.652956 136.294151 
L 32.99953 136.717152 
L 33.346104 137.140153 
L 33.692679 137.563154 
L 34.039253 137.986155 
L 34.146752 138.491686 
L 34.254252 138.997216 
L 34.361751 139.502747 
L 34.469251 140.008277 
L 34.445922 140.592683 
L 34.422593 141.177088 
L 34.399264 141.761493 
L 34.375935 142.345899 
L 34.352606 142.930304 
L 34.329278 143.51471 
L 34.305949 144.099115 
L 34.28262 144.68352 
L 34.196489 145.308048 
L 34.110359 145.932576 
L 34.024229 146.557105 
L 33.938099 147.181633 
L 33.851968 147.806161 
L 33.765838 148.430689 
L 33.679708 149.055217 
L 33.593577 149.679745 
" style="fill:none;stroke:#008000;stroke-linecap:square;stroke-width:0.4;"/>
   </g>
   <g id="line2d_12">
    <path clip-path="url(#p1be33cc655)" d="M 60.71109 133.316394 
L 59.976509 133.256248 
L 59.241929 133.196102 
L 58.507349 133.135956 
L 57.772768 133.07581 
L 57.218287 132.888825 
L 56.663806 132.701839 
L 56.109324 132.514854 
L 55.554843 132.327868 
" style="fill:none;stroke:#008000;stroke-linecap:square;stroke-width:0.4;"/>
   </g>
   <g id="line2d_13">
    <path clip-path="url(#p1be33cc655)" d="M 17.127481 174.624324 
L 17.472282 175.1061 
L 17.817083 175.587877 
L 18.161884 176.069654 
L 18.506685 176.55143 
L 18.851486 177.033207 
L 19.196287 177.514983 
L 19.541088 177.99676 
L 19.88589 178.478537 
L 20.763056 178.908085 
L 21.640223 179.337634 
L 22.517389 179.767183 
L 23.394556 180.196731 
L 23.871025 180.430463 
L 24.347495 180.664195 
L 24.823964 180.897926 
L 25.300434 181.131658 
" style="fill:none;stroke:#008000;stroke-linecap:square;stroke-width:0.4;"/>
   </g>
   <g id="line2d_14">
    <path clip-path="url(#p1be33cc655)" d="M 51.6438 133.412627 
L 51.358254 133.897601 
L 51.072708 134.382576 
L 50.787163 134.86755 
L 50.501617 135.352524 
L 49.984462 135.872063 
L 49.467307 136.391603 
L 48.950152 136.911142 
L 48.432997 137.430681 
L 47.915842 137.95022 
L 47.398687 138.469759 
L 46.881532 138.989298 
L 46.364377 139.508837 
L 45.972358 139.867734 
L 45.580339 140.22663 
L 45.18832 140.585526 
L 44.796301 140.944422 
L 44.404283 141.303318 
L 44.012264 141.662214 
L 43.620245 142.021111 
L 43.228226 142.380007 
L 42.725255 142.772021 
L 42.222284 143.164036 
L 41.719313 143.55605 
L 41.216342 143.948065 
L 40.713371 144.340079 
L 40.2104 144.732094 
L 39.707429 145.124108 
L 39.204458 145.516123 
L 38.515042 146.167983 
L 37.825626 146.819843 
L 37.136211 147.471704 
L 36.446795 148.123564 
L 35.733491 148.512609 
L 35.020186 148.901654 
L 34.306882 149.2907 
L 33.593577 149.679745 
" style="fill:none;stroke:#4169e1;stroke-linecap:square;stroke-width:0.4;"/>
   </g>
   <g id="line2d_15">
    <path clip-path="url(#p1be33cc655)" d="M 13.00741 169.14145 
L 12.451996 169.872946 
L 11.896581 170.604443 
L 11.776391 171.379336 
L 11.6562 172.154229 
L 11.53601 172.929122 
L 11.415819 173.704015 
L 11.485993 174.495505 
L 11.556166 175.286995 
L 11.626339 176.078485 
L 11.696513 176.869975 
L 11.766686 177.661465 
L 11.836859 178.452956 
L 11.907033 179.244446 
L 11.977206 180.035936 
L 12.094084 180.608693 
L 12.210962 181.18145 
L 12.327839 181.754207 
L 12.444717 182.326963 
L 12.561595 182.89972 
L 12.678473 183.472477 
L 12.795351 184.045234 
L 12.912228 184.617991 
L 13.029106 185.190748 
L 13.145984 185.763505 
L 13.262862 186.336262 
L 13.37974 186.909019 
L 13.496617 187.481775 
L 13.613495 188.054532 
L 13.730373 188.627289 
L 13.847251 189.200046 
L 14.147727 189.891344 
L 14.448203 190.582641 
L 14.748679 191.273939 
L 15.049156 191.965237 
L 15.349632 192.656535 
L 15.650108 193.347832 
L 15.950584 194.03913 
L 16.25106 194.730428 
L 16.546591 195.415635 
L 16.842121 196.100842 
L 17.137652 196.786048 
L 17.433182 197.471255 
L 17.728713 198.156462 
L 18.024243 198.841669 
L 18.319774 199.526876 
L 18.615304 200.212083 
" style="fill:none;stroke:#008000;stroke-linecap:square;stroke-width:0.4;"/>
   </g>
   <g id="line2d_16">
    <path clip-path="url(#p1be33cc655)" d="M 13.00741 169.14145 
L 13.825228 169.131096 
L 14.643046 169.120741 
L 15.083869 169.735296 
L 15.524692 170.34985 
L 15.72504 170.88416 
L 15.925389 171.418469 
L 16.125738 171.952778 
L 16.326086 172.487087 
L 16.526435 173.021396 
L 16.726783 173.555705 
L 16.927132 174.090014 
L 17.127481 174.624324 
L 17.30786 175.288898 
L 17.488239 175.953473 
L 17.668618 176.618047 
L 17.848997 177.282622 
L 18.029376 177.947197 
L 18.209755 178.611771 
L 18.390134 179.276346 
L 18.570513 179.940921 
L 18.740814 180.859402 
L 18.911115 181.777884 
L 19.081416 182.696366 
L 19.251717 183.614848 
L 19.422018 184.53333 
L 19.592319 185.451812 
L 19.76262 186.370294 
L 19.932921 187.288775 
L 19.942905 187.836446 
L 19.95289 188.384117 
L 19.962875 188.931788 
L 19.97286 189.479458 
L 19.982844 190.027129 
L 19.992829 190.5748 
L 20.002814 191.12247 
L 20.012799 191.670141 
L 20.022784 192.217812 
L 20.032768 192.765482 
L 20.042753 193.313153 
L 20.052738 193.860824 
L 20.062723 194.408495 
L 20.072707 194.956165 
L 20.082692 195.503836 
L 20.092677 196.051507 
L 19.908005 196.571579 
L 19.723334 197.091651 
L 19.538662 197.611723 
L 19.353991 198.131795 
L 19.169319 198.651867 
L 18.984648 199.171939 
L 18.799976 199.692011 
L 18.615304 200.212083 
" style="fill:none;stroke:#008000;stroke-linecap:square;stroke-width:0.4;"/>
   </g>
   <g id="line2d_17">
    <path clip-path="url(#p1be33cc655)" d="M 8.270711 119.120124 
L 9.158702 118.865227 
L 10.046693 118.61033 
L 10.745813 119.224275 
L 11.444934 119.838221 
L 11.860375 120.650571 
L 12.275816 121.462922 
L 12.691257 122.275273 
L 13.106698 123.087624 
L 13.017022 123.623684 
L 12.927346 124.159745 
L 12.837669 124.695805 
L 12.747993 125.231865 
L 12.658317 125.767925 
L 12.56864 126.303986 
L 12.478964 126.840046 
L 12.389288 127.376106 
L 12.440425 127.990661 
L 12.491562 128.605215 
L 12.563228 129.464312 
L 12.634894 130.32341 
L 12.72793 131.055591 
L 12.820966 131.787773 
L 12.914001 132.519955 
L 13.007037 133.252137 
L 13.100073 133.984318 
L 13.193108 134.7165 
L 13.286144 135.448682 
L 13.37918 136.180863 
" style="fill:none;stroke:#4169e1;stroke-linecap:square;stroke-width:0.4;"/>
   </g>
   <g id="line2d_18">
    <path clip-path="url(#p1be33cc655)" d="M 56.641037 111.680299 
L 56.072931 112.311907 
L 55.504826 112.943516 
L 55.15088 113.471201 
L 54.796934 113.998887 
L 54.442988 114.526572 
L 54.089042 115.054258 
L 53.735096 115.581943 
L 53.38115 116.109629 
L 53.027204 116.637314 
L 52.673258 117.165 
L 52.315952 117.772854 
L 51.958647 118.380709 
L 51.601341 118.988564 
L 51.244036 119.596419 
L 50.88673 120.204273 
L 50.529425 120.812128 
L 50.17212 121.419983 
L 49.814814 122.027837 
L 49.414024 122.645666 
L 49.013233 123.263494 
L 48.612443 123.881322 
L 48.211652 124.499151 
L 47.810862 125.116979 
L 47.410071 125.734807 
L 47.009281 126.352635 
L 46.60849 126.970464 
L 46.074165 127.478126 
L 45.53984 127.985788 
L 45.005515 128.49345 
L 44.47119 129.001113 
L 43.900098 129.388483 
L 43.329007 129.775853 
L 42.757915 130.163224 
L 42.186824 130.550594 
L 41.615733 130.937964 
L 41.044641 131.325335 
L 40.47355 131.712705 
L 39.902458 132.100075 
L 39.060005 132.381315 
L 38.217552 132.662554 
L 37.375099 132.943793 
L 36.532645 133.225033 
" style="fill:none;stroke:#000000;stroke-linecap:square;stroke-width:0.4;"/>
   </g>
   <g id="line2d_19">
    <path clip-path="url(#p1be33cc655)" d="M 32.396152 73.657099 
L 32.225384 74.294037 
L 32.054617 74.930975 
L 31.883849 75.567912 
L 31.713081 76.20485 
L 31.639549 77.179976 
L 31.566016 78.155102 
L 31.492483 79.130227 
L 31.418951 80.105353 
L 31.452358 80.74998 
L 31.485765 81.394608 
L 31.519172 82.039235 
L 31.552579 82.683863 
L 31.585986 83.32849 
L 31.619393 83.973118 
L 31.6528 84.617745 
L 31.686207 85.262373 
L 31.639455 85.816705 
L 31.592704 86.371038 
L 31.545953 86.92537 
L 31.499202 87.479703 
L 31.452451 88.034035 
L 31.4057 88.588367 
L 31.358949 89.1427 
L 31.312198 89.697032 
L 31.145349 90.371733 
L 30.978501 91.046433 
L 30.811653 91.721134 
L 30.644805 92.395834 
L 30.421034 92.866724 
L 30.197263 93.337613 
L 29.973492 93.808502 
L 29.749721 94.279392 
L 29.525951 94.750281 
L 29.30218 95.221171 
L 29.078409 95.69206 
L 28.854638 96.16295 
L 28.514036 97.031183 
L 28.173434 97.899416 
L 27.832832 98.76765 
L 27.49223 99.635883 
L 27.114862 100.153519 
L 26.737494 100.671155 
L 26.360126 101.18879 
L 25.982757 101.706426 
L 25.605389 102.224062 
L 25.228021 102.741698 
L 24.850653 103.259334 
L 24.473284 103.776969 
L 24.009692 104.437813 
L 23.464356 105.221081 
L 22.91902 106.004349 
L 22.373683 106.787617 
L 21.828347 107.570884 
L 21.517046 107.98947 
L 21.205745 108.408055 
L 20.894445 108.82664 
L 20.583144 109.245225 
L 20.227891 109.723957 
L 19.872639 110.202688 
L 19.517386 110.681419 
L 19.162134 111.160151 
L 18.806881 111.638882 
L 18.451629 112.117613 
L 18.096376 112.596344 
L 17.741124 113.075076 
L 17.39399 113.491072 
L 17.046856 113.907069 
L 16.592596 114.453864 
L 16.138335 115.000659 
L 15.684075 115.547455 
L 15.229815 116.09425 
L 14.655364 116.555013 
L 14.080913 117.015777 
L 13.506462 117.476541 
L 12.932011 117.937304 
L 12.210682 118.105561 
L 11.489352 118.273817 
L 10.768023 118.442073 
L 10.046693 118.61033 
" style="fill:none;stroke:#008000;stroke-linecap:square;stroke-width:0.4;"/>
   </g>
   <g id="line2d_20">
    <path clip-path="url(#p1be33cc655)" d="M 65.385828 56.213252 
L 64.861021 56.595141 
L 64.336214 56.97703 
L 63.811407 57.358918 
L 63.2866 57.740807 
L 62.784002 58.162361 
L 62.281405 58.583916 
L 61.778807 59.005471 
L 61.276209 59.427025 
L 60.773611 59.84858 
L 60.271013 60.270134 
L 59.768416 60.691689 
L 59.265818 61.113243 
L 58.766486 61.513252 
L 58.267154 61.91326 
L 57.767823 62.313269 
L 57.268491 62.713278 
L 56.769159 63.113286 
L 56.269827 63.513295 
L 55.770495 63.913303 
L 55.271164 64.313312 
L 54.780324 64.623863 
L 54.289484 64.934414 
L 53.798644 65.244965 
L 53.307804 65.555516 
L 52.816964 65.866067 
L 52.326123 66.176618 
L 51.835283 66.487169 
L 51.344443 66.79772 
L 50.716523 67.345429 
L 50.088602 67.893138 
L 49.460681 68.440846 
L 48.832761 68.988555 
L 48.20484 69.536264 
L 47.57692 70.083973 
L 46.948999 70.631682 
L 46.321078 71.17939 
L 45.826879 71.894137 
L 45.332679 72.608884 
L 44.83848 73.323631 
L 44.344281 74.038378 
L 44.007225 74.778021 
L 43.670169 75.517664 
L 43.333113 76.257307 
L 42.996057 76.99695 
L 42.659001 77.736593 
L 42.321945 78.476235 
L 41.984889 79.215878 
L 41.647833 79.955521 
L 41.655485 80.663188 
L 41.663137 81.370854 
L 41.670789 82.078521 
L 41.678441 82.786187 
L 41.686093 83.493854 
L 41.693744 84.20152 
L 41.701396 84.909187 
L 41.709048 85.616853 
" style="fill:none;stroke:#ff0000;stroke-linecap:square;stroke-width:0.4;"/>
   </g>
   <g id="line2d_21">
    <path clip-path="url(#p1be33cc655)" d="M 44.028501 14.782289 
L 43.338898 14.659714 
L 42.649296 14.537138 
L 41.959694 14.414562 
L 41.270092 14.291986 
L 40.662234 14.425525 
L 40.054376 14.559064 
L 39.446518 14.692604 
L 38.83866 14.826143 
L 38.371149 15.100073 
L 37.903638 15.374004 
L 37.436127 15.647934 
L 36.968616 15.921865 
L 36.303649 16.569005 
L 35.638682 17.216145 
L 34.973715 17.863285 
L 34.308748 18.510424 
" style="fill:none;stroke:#ff0000;stroke-linecap:square;stroke-width:0.4;"/>
   </g>
   <g id="line2d_22">
    <path clip-path="url(#p1be33cc655)" d="M 13.37918 136.180863 
L 13.338867 137.07483 
L 13.298555 137.968797 
L 13.258243 138.862763 
L 13.21793 139.75673 
L 13.177618 140.650697 
L 13.137306 141.544663 
L 13.096993 142.43863 
L 13.056681 143.332597 
L 13.139638 143.876042 
L 13.222596 144.419487 
L 13.305554 144.962933 
L 13.388511 145.506378 
L 13.471469 146.049823 
L 13.554426 146.593268 
L 13.637384 147.136714 
L 13.720341 147.680159 
L 13.816923 148.364681 
L 13.913505 149.049202 
L 14.010086 149.733724 
L 14.106668 150.418246 
L 14.20325 151.102768 
L 14.299831 151.787289 
L 14.396413 152.471811 
L 14.492995 153.156333 
L 14.646452 153.841197 
L 14.79991 154.526062 
L 14.953367 155.210926 
L 15.106825 155.89579 
L 15.260282 156.580655 
L 15.41374 157.265519 
L 15.567197 157.950383 
L 15.720655 158.635248 
L 15.874112 159.320112 
L 16.02757 160.004976 
L 16.181027 160.689841 
L 16.334485 161.374705 
L 16.487942 162.059569 
L 16.6414 162.744434 
L 16.794857 163.429298 
L 16.948315 164.114162 
L 17.39231 164.680905 
L 17.836306 165.247647 
L 18.280301 165.814389 
L 18.724297 166.381132 
L 19.239026 166.593622 
L 19.753755 166.806112 
L 20.268483 167.018603 
L 20.783212 167.231093 
L 21.297941 167.443583 
L 21.81267 167.656073 
L 22.327399 167.868564 
L 22.842128 168.081054 
L 23.012149 168.619474 
L 23.18217 169.157895 
L 23.352191 169.696315 
L 23.522212 170.234736 
L 23.692233 170.773156 
L 23.862254 171.311576 
L 24.032275 171.849997 
L 24.202296 172.388417 
L 24.39014 173.063879 
L 24.577984 173.739341 
L 24.765829 174.414803 
L 24.953673 175.090264 
L 25.141517 175.765726 
L 25.329362 176.441188 
L 25.517206 177.11665 
L 25.70505 177.792112 
L 26.11116 178.17933 
L 26.517269 178.566548 
L 26.923379 178.953766 
L 27.329488 179.340984 
L 27.509027 180.087403 
L 27.688566 180.833821 
L 26.876348 181.324734 
L 26.088391 181.228196 
L 25.300434 181.131658 
" style="fill:none;stroke:#008000;stroke-linecap:square;stroke-width:0.4;"/>
   </g>
   <g id="line2d_23">
    <path clip-path="url(#p1be33cc655)" d="M 41.469414 63.634805 
L 41.088686 64.296106 
L 40.707958 64.957407 
L 40.327231 65.618707 
L 39.946503 66.280008 
L 39.372052 66.881163 
L 38.797602 67.482318 
L 38.049584 67.629105 
L 37.301566 67.775891 
L 36.627081 67.80939 
L 35.952596 67.842889 
L 35.278111 67.876388 
L 34.603625 67.909887 
L 33.829852 67.852482 
L 33.05608 67.795077 
L 32.282307 67.737672 
L 31.508534 67.680267 
" style="fill:none;stroke:#4169e1;stroke-linecap:square;stroke-width:0.4;"/>
   </g>
   <g id="line2d_24">
    <path clip-path="url(#p1be33cc655)" d="M 31.133032 36.551162 
L 30.416368 36.750938 
L 29.699704 36.950714 
L 29.189455 37.592981 
L 28.679205 38.235249 
L 28.362865 38.79255 
L 28.046525 39.349852 
L 27.730185 39.907154 
L 27.413845 40.464455 
L 27.378199 41.330709 
L 27.342552 42.196963 
L 27.306906 43.063217 
L 27.271259 43.929471 
L 27.243638 44.601887 
L 27.378199 45.444996 
L 27.51276 46.288105 
L 27.647321 47.131215 
L 27.781882 47.974324 
L 27.916443 48.817433 
L 28.051004 49.660542 
L 28.185565 50.503651 
L 28.320126 51.34676 
L 28.445263 52.003188 
L 28.570399 52.659617 
L 28.695535 53.316045 
L 28.820671 53.972473 
L 28.945807 54.628901 
L 29.070944 55.28533 
L 29.19608 55.941758 
L 29.321216 56.598186 
L 29.447565 57.24407 
L 29.573915 57.889954 
L 29.700264 58.535837 
L 29.826613 59.181721 
L 29.952963 59.827605 
L 30.079312 60.473488 
L 30.205661 61.119372 
L 30.332011 61.765256 
L 30.45836 62.411139 
L 30.584709 63.057023 
L 30.711059 63.702907 
L 30.837408 64.348791 
L 30.963757 64.994674 
L 31.090107 65.640558 
L 31.216456 66.286442 
L 31.342805 66.932325 
L 31.508534 67.680267 
L 31.619486 68.427371 
L 31.730438 69.174475 
L 31.84139 69.921579 
L 31.952343 70.668683 
L 32.063295 71.415787 
L 32.174247 72.162891 
L 32.285199 72.909995 
L 32.396152 73.657099 
L 32.810286 74.411892 
L 33.224421 75.166686 
L 33.638556 75.921479 
L 34.05269 76.676273 
L 34.593641 77.324174 
L 35.134591 77.972075 
L 35.675542 78.619977 
L 36.216492 79.267878 
L 36.757443 79.915779 
L 37.298393 80.56368 
L 37.839344 81.211582 
L 38.380294 81.859483 
L 38.796388 82.329154 
L 39.212483 82.798825 
L 39.628577 83.268497 
L 40.044671 83.738168 
L 40.460765 84.207839 
L 40.87686 84.677511 
L 41.292954 85.147182 
L 41.709048 85.616853 
" style="fill:none;stroke:#4169e1;stroke-linecap:square;stroke-width:0.4;"/>
   </g>
   <g id="line2d_25">
    <path clip-path="url(#p1be33cc655)" d="M 33.534602 15.532058 
L 33.728138 16.27665 
L 33.921675 17.021241 
L 34.115212 17.765833 
L 34.308748 18.510424 
L 34.288779 19.432104 
L 34.268809 20.353783 
L 34.24884 21.275463 
L 34.22887 22.197142 
L 34.068554 23.108924 
L 33.908238 24.020707 
L 33.747921 24.932489 
L 33.587605 25.844271 
L 33.427289 26.756053 
L 33.266973 27.667835 
L 33.106657 28.579617 
L 32.94634 29.491399 
L 32.715664 30.389781 
L 32.484988 31.288164 
L 32.315994 31.946039 
L 32.146999 32.603913 
L 31.978004 33.261788 
L 31.80901 33.919663 
L 31.640015 34.577538 
L 31.471021 35.235413 
L 31.302026 35.893288 
L 31.133032 36.551162 
" style="fill:none;stroke:#4169e1;stroke-linecap:square;stroke-width:0.4;"/>
   </g>
   <g id="line2d_26">
    <path clip-path="url(#p1be33cc655)" d="M 63.715105 76.765807 
L 63.748139 77.285346 
L 63.781173 77.804885 
L 63.814207 78.324424 
L 63.84724 78.843963 
L 63.826897 79.444357 
L 63.806555 80.04475 
L 63.786212 80.645144 
L 63.765869 81.245537 
L 63.745526 81.845931 
L 63.725183 82.446324 
L 63.704841 83.046718 
L 63.684498 83.647112 
L 63.537619 84.201368 
L 63.39074 84.755624 
L 63.243862 85.30988 
L 63.096983 85.864137 
L 62.682848 86.318353 
L 62.268714 86.772569 
L 61.854579 87.226785 
L 61.440444 87.681001 
L 61.046466 88.242109 
L 60.652488 88.803218 
L 60.258509 89.364326 
L 59.864531 89.925435 
L 59.664089 90.720275 
L 59.463647 91.515115 
L 59.263205 92.309955 
L 59.062763 93.104795 
L 59.013679 93.717065 
L 58.964595 94.329336 
L 58.915511 94.941606 
L 58.866427 95.553877 
L 58.817343 96.166147 
L 58.768259 96.778418 
L 58.719175 97.390688 
L 58.670091 98.002959 
L 58.684088 98.569701 
L 58.698086 99.136443 
L 58.712083 99.703186 
L 58.72608 100.269928 
L 58.795321 101.049237 
L 58.864561 101.828545 
L 58.933801 102.607854 
L 59.003041 103.387163 
L 58.729066 104.265598 
L 58.455092 105.144033 
L 58.181117 106.022469 
L 57.907143 106.900904 
L 57.666202 107.505409 
L 57.425261 108.109914 
L 57.18432 108.714418 
L 56.943379 109.318923 
L 56.867794 109.909267 
L 56.792208 110.499611 
L 56.716622 111.089955 
L 56.641037 111.680299 
" style="fill:none;stroke:#000000;stroke-linecap:square;stroke-width:0.4;"/>
   </g>
   <g id="line2d_27">
    <path clip-path="url(#p1be33cc655)" d="M 57.907143 106.900904 
L 58.459758 107.273048 
L 59.012373 107.645191 
L 59.564988 108.017335 
L 60.117603 108.389478 
L 60.605083 109.150819 
L 61.092564 109.91216 
L 61.580045 110.673501 
L 62.067525 111.434842 
L 62.381439 111.849012 
L 62.695353 112.263181 
L 63.009266 112.677351 
L 63.32318 113.091521 
L 63.637094 113.50569 
L 63.951007 113.91986 
L 64.264921 114.334029 
L 64.578835 114.748199 
L 64.877444 115.316007 
L 65.176054 115.883815 
L 65.474664 116.451623 
L 65.773274 117.019431 
L 66.071884 117.58724 
L 66.370494 118.155048 
L 66.669104 118.722856 
L 66.967714 119.290664 
L 67.308502 120.190721 
L 67.649291 121.090779 
L 67.99008 121.990836 
L 68.330868 122.890894 
L 68.028526 123.306586 
L 67.726183 123.722278 
L 67.42384 124.13797 
L 67.121498 124.553663 
L 66.432082 125.257446 
L 65.742667 125.96123 
L 65.053251 126.665014 
L 64.363835 127.368797 
" style="fill:none;stroke:#4169e1;stroke-linecap:square;stroke-width:0.4;"/>
   </g>
   <g id="line2d_28">
    <path clip-path="url(#p1be33cc655)" d="M 57.995979 58.994888 
L 57.373004 58.26735 
L 56.750029 57.539813 
L 56.249111 57.022101 
L 55.748193 56.504389 
L 55.247275 55.986677 
L 54.746357 55.468965 
L 54.118529 54.841163 
L 53.490702 54.213361 
L 52.862875 53.58556 
L 52.235047 52.957758 
L 51.494495 52.353558 
L 50.753942 51.749357 
L 50.240893 51.109526 
L 49.727844 50.469695 
L 49.214795 49.829864 
L 48.701746 49.190033 
L 48.139799 48.968026 
L 47.577853 48.746019 
L 47.015906 48.524012 
L 46.45396 48.302005 
L 45.726471 47.735263 
L 44.998983 47.16852 
L 44.578689 46.776582 
L 44.158396 46.384644 
L 43.738103 45.992705 
L 43.317809 45.600767 
L 42.760528 45.298514 
L 42.203248 44.996262 
L 41.645967 44.69401 
L 41.088686 44.391757 
L 40.361384 44.094073 
L 39.634083 43.796388 
L 38.906781 43.498704 
L 38.179479 43.20102 
L 37.659898 42.799641 
L 37.140317 42.398262 
L 36.620735 41.996883 
L 36.101154 41.595504 
L 35.595943 41.00044 
L 35.090733 40.405375 
L 34.585522 39.810311 
L 34.080312 39.215247 
L 33.541694 38.468828 
L 33.003076 37.722409 
L 32.483868 37.240633 
L 31.96466 36.758856 
L 31.133032 36.551162 
" style="fill:none;stroke:#008000;stroke-linecap:square;stroke-width:0.4;"/>
   </g>
   <g id="line2d_29">
    <path clip-path="url(#p1be33cc655)" d="M 64.118975 133.19397 
L 63.475471 133.211024 
L 62.831967 133.228078 
L 62.301747 133.250157 
L 61.771528 133.272236 
L 61.241309 133.294315 
L 60.71109 133.316394 
L 60.283331 133.794516 
L 59.855572 134.272638 
L 59.371264 134.86047 
L 58.886956 135.448301 
L 58.402649 136.036132 
L 57.918341 136.623964 
L 57.434033 137.211795 
L 56.949725 137.799627 
L 56.465417 138.387458 
L 55.981109 138.97529 
L 55.734009 139.456153 
L 55.486909 139.937016 
L 55.23981 140.417879 
L 54.99271 140.898742 
L 54.638671 141.266165 
L 54.284631 141.633588 
L 53.930592 142.001011 
L 53.576552 142.368434 
L 52.928756 142.762505 
L 52.280959 143.156575 
L 51.633162 143.550645 
L 50.985365 143.944715 
L 50.384226 144.646062 
L 49.783087 145.34741 
L 49.181948 146.048757 
L 48.580809 146.750105 
L 48.093235 147.544945 
L 47.605661 148.339785 
L 47.118087 149.134625 
L 46.630513 149.929465 
L 46.142939 150.724305 
L 45.655365 151.519145 
L 45.167791 152.313985 
L 44.680217 153.108825 
L 44.252831 153.930312 
L 43.825446 154.751799 
L 43.39806 155.573286 
L 42.970675 156.394773 
L 42.569791 156.902435 
L 42.168907 157.410098 
L 41.654552 157.931159 
L 41.140196 158.452221 
L 40.625841 158.973283 
L 40.111485 159.494345 
L 39.697537 160.349179 
L 39.283589 161.204012 
L 39.283589 161.785068 
L 39.283589 162.366123 
L 39.283589 162.947179 
L 39.283589 163.528234 
L 39.26362 164.229582 
L 39.24365 164.930929 
L 39.223681 165.632277 
L 39.203711 166.333624 
L 38.923018 166.827887 
L 38.642324 167.322149 
L 38.368536 167.762966 
L 38.094749 168.203782 
L 37.820961 168.644599 
L 37.547173 169.085415 
L 37.353449 169.659923 
L 37.159726 170.234431 
L 36.966003 170.808939 
L 36.77228 171.383447 
L 36.778999 172.358573 
L 36.785717 173.333698 
L 36.792436 174.308824 
L 36.799155 175.28395 
L 36.988026 175.93581 
L 37.176896 176.58767 
L 37.365767 177.23953 
L 37.554638 177.89139 
" style="fill:none;stroke:#4169e1;stroke-linecap:square;stroke-width:0.4;"/>
   </g>
   <g id="line2d_30">
    <path clip-path="url(#p1be33cc655)" d="M 56.641037 111.680299 
L 56.660073 112.554166 
L 56.679109 113.428033 
L 56.698146 114.301901 
L 56.717182 115.175768 
L 56.844651 115.700027 
L 56.97212 116.224287 
L 57.09959 116.748546 
L 57.227059 117.272806 
L 57.354528 117.797065 
L 57.481997 118.321325 
L 57.609466 118.845584 
L 57.736935 119.369844 
L 57.779487 120.106517 
L 57.822039 120.843191 
L 57.864591 121.579864 
L 57.907143 122.316538 
L 57.789005 122.935356 
L 57.670868 123.554174 
L 57.55273 124.172992 
L 57.434593 124.79181 
L 57.054425 125.235748 
L 56.674257 125.679686 
L 56.294089 126.123624 
L 55.913922 126.567562 
L 55.533754 127.0115 
L 55.153586 127.455438 
L 54.773418 127.899376 
L 54.393251 128.343314 
L 54.157069 128.794408 
L 53.920887 129.245503 
L 53.684705 129.696598 
L 53.448523 130.147692 
L 53.212342 130.598787 
L 52.97616 131.049881 
L 52.739978 131.500976 
L 52.503796 131.95207 
L 52.073798 132.682349 
L 51.6438 133.412627 
" style="fill:none;stroke:#000000;stroke-linecap:square;stroke-width:0.4;"/>
   </g>
   <g id="line2d_31">
    <path clip-path="url(#p1be33cc655)" d="M 64.363835 127.368797 
L 63.510744 127.586541 
L 62.657653 127.804284 
L 61.804562 128.022028 
L 60.951471 128.239771 
L 60.196734 128.80088 
L 59.441998 129.361988 
L 58.687261 129.923097 
L 57.932525 130.484205 
L 57.338104 130.945121 
L 56.743684 131.406037 
L 56.149263 131.866953 
L 55.554843 132.327868 
L 55.065963 132.463463 
L 54.577082 132.599058 
L 54.088202 132.734653 
L 53.599321 132.870248 
L 53.110441 133.005843 
L 52.621561 133.141438 
L 52.13268 133.277032 
L 51.6438 133.412627 
" style="fill:none;stroke:#008000;stroke-linecap:square;stroke-width:0.4;"/>
   </g>
   <g id="line2d_32">
    <path clip-path="url(#p1be33cc655)" d="M 57.995979 58.994888 
L 58.737278 59.621624 
L 59.001548 60.367434 
L 59.265818 61.113243 
L 59.5327 61.866819 
L 59.799583 62.620394 
L 60.066466 63.373969 
L 60.333348 64.127545 
L 60.635691 64.939896 
L 60.938033 65.752247 
L 61.240376 66.564598 
L 61.542718 67.376948 
L 61.60412 68.330909 
L 61.665522 69.284869 
L 61.726923 70.23883 
L 61.788325 71.19279 
L 61.901423 72.146903 
L 62.014522 73.101015 
L 62.420631 74.017365 
L 62.826741 74.933715 
L 63.048832 75.391738 
L 63.270923 75.849761 
L 63.493014 76.307784 
L 63.715105 76.765807 
" style="fill:none;stroke:#008000;stroke-linecap:square;stroke-width:0.4;"/>
   </g>
   <g id="line2d_33">
    <path clip-path="url(#p1be33cc655)" d="M 64.118975 133.19397 
L 64.604216 133.522869 
L 65.089458 133.851769 
L 65.373137 134.437088 
L 65.49594 135.38176 
L 65.618744 136.326432 
L 65.609039 136.97814 
L 65.599334 137.629848 
L 65.528601 138.168268 
L 65.457867 138.706688 
L 65.387134 139.245109 
L 65.316401 139.783529 
L 65.046159 140.502235 
L 64.775917 141.220941 
L 64.573609 141.758753 
L 64.371301 142.296564 
L 64.258202 142.938831 
L 64.145104 143.581098 
L 64.163767 144.223061 
L 64.204826 144.458163 
L 64.350398 145.296857 
L 64.49597 146.13555 
L 64.641543 146.974243 
L 64.787115 147.812937 
L 64.812683 148.382572 
L 64.838252 148.952207 
L 64.86382 149.521843 
L 64.889389 150.091478 
L 64.649008 150.986511 
L 64.408627 151.881543 
L 63.953993 152.656284 
L 63.713612 153.484623 
L 63.693643 154.413002 
L 63.673673 155.341382 
L 63.653704 156.269761 
L 63.633734 157.19814 
L 63.460167 158.119972 
L 63.2866 159.041804 
L 62.858841 159.816544 
L 62.298201 160.511497 
L 61.650218 161.132599 
L 61.002234 161.753701 
L 60.354251 162.374803 
L 59.706267 162.995905 
L 59.225505 163.797445 
L 58.784683 164.331754 
L 58.34386 164.866063 
L 57.903037 165.400372 
L 57.462214 165.934681 
L 56.774291 166.549236 
L 56.086369 167.16379 
L 55.398446 167.778345 
L 54.710524 168.392899 
L 54.249171 168.881909 
L 53.787819 169.370918 
L 53.326467 169.859927 
L 52.865114 170.348937 
L 52.403762 170.837946 
L 51.94241 171.326955 
L 51.481057 171.815965 
L 51.019705 172.304974 
L 50.481274 172.687472 
L 49.942843 173.06997 
L 49.404412 173.452467 
L 48.865981 173.834965 
L 48.124495 174.208175 
L 47.38301 174.581384 
L 46.641524 174.954593 
L 45.900038 175.327803 
L 44.922277 175.497886 
L 43.944517 175.66797 
L 42.966756 175.838054 
L 41.988995 176.008137 
L 41.294354 175.974638 
L 40.599712 175.941139 
L 39.992041 176.154924 
L 39.38437 176.368708 
L 38.796855 176.696085 
L 38.20934 177.023462 
L 37.881989 177.457426 
L 37.554638 177.89139 
L 37.584872 178.469705 
L 37.615106 179.04802 
" style="fill:none;stroke:#4169e1;stroke-linecap:square;stroke-width:0.4;"/>
   </g>
   <g id="line2d_34">
    <path clip-path="url(#p1be33cc655)" d="M 66.021867 29.169199 
L 65.570966 28.754725 
L 65.120065 28.340251 
L 64.675883 27.962778 
L 64.231701 27.585305 
L 63.787518 27.207833 
L 63.343336 26.83036 
L 62.605303 26.471387 
L 61.86727 26.112415 
L 61.129237 25.753443 
L 60.391204 25.39447 
L 59.653171 25.035498 
L 58.915138 24.676526 
L 58.177105 24.317553 
L 57.439072 23.958581 
L 56.918091 23.644604 
L 56.39711 23.330627 
L 55.876129 23.01665 
L 55.355148 22.702673 
L 54.834167 22.388696 
L 54.313186 22.074719 
L 53.792205 21.760742 
L 53.271224 21.446765 
L 52.523206 21.0061 
L 51.775188 20.565436 
L 51.059644 20.403118 
L 50.3441 20.2408 
L 49.628556 20.078482 
L 48.913012 19.916165 
L 48.355731 19.552396 
L 47.798451 19.188627 
L 47.24117 18.824858 
L 46.683889 18.46109 
L 46.003805 17.93211 
L 45.323721 17.40313 
L 44.907907 16.741981 
L 44.492093 16.080833 
L 44.260297 15.431561 
L 44.028501 14.782289 
L 43.83739 14.247371 
L 43.64628 13.712453 
L 43.45517 13.177535 
L 43.264059 12.642617 
L 42.907594 12.030194 
L 42.551128 11.417771 
L 41.903518 10.943303 
L 41.255908 10.468836 
L 40.594487 10.081465 
L 39.933066 9.694095 
L 39.011854 9.533909 
L 38.504217 9.654201 
L 37.996581 9.774493 
L 37.529069 10.138566 
L 37.061558 10.502639 
L 36.594047 10.866712 
L 36.126536 11.230786 
L 35.698964 11.805141 
L 35.271392 12.379497 
L 34.84382 12.953853 
L 34.416248 13.528208 
L 34.195836 14.029171 
L 33.975425 14.530133 
L 33.755013 15.031096 
L 33.534602 15.532058 
" style="fill:none;stroke:#4169e1;stroke-linecap:square;stroke-width:0.4;"/>
   </g>
   <g id="line2d_35">
    <path clip-path="url(#p1be33cc655)" d="M 59.003041 103.387163 
L 59.634228 103.566535 
L 60.265414 103.745907 
L 60.706237 104.09323 
L 61.14706 104.440554 
L 61.587883 104.787878 
L 62.028706 105.135202 
L 62.259195 105.619415 
L 62.489685 106.103628 
L 62.720175 106.587841 
L 62.950664 107.072054 
L 63.181154 107.556266 
L 63.411643 108.040479 
L 63.642133 108.524692 
L 63.872622 109.008905 
L 64.042923 109.483145 
L 64.213224 109.957384 
L 64.383525 110.431623 
L 64.553826 110.905863 
L 64.724127 111.380102 
L 64.894428 111.854341 
L 65.064729 112.328581 
L 65.23503 112.80282 
L 65.405331 113.277059 
L 65.575632 113.751299 
L 65.745933 114.225538 
L 65.916234 114.699777 
L 66.086535 115.174017 
L 66.256836 115.648256 
L 66.427137 116.122495 
L 66.597438 116.596735 
L 66.863667 117.119015 
L 67.129896 117.641295 
L 67.396126 118.163575 
L 67.662355 118.685855 
L 67.928585 119.208135 
L 68.194814 119.730415 
L 68.461043 120.252695 
L 68.727273 120.774975 
L 68.628172 121.303954 
L 68.52907 121.832934 
L 68.429969 122.361914 
L 68.330868 122.890894 
" style="fill:none;stroke:#000000;stroke-linecap:square;stroke-width:0.4;"/>
   </g>
   <g id="line2d_36">
    <path clip-path="url(#p1be33cc655)" d="M 33.534602 15.532058 
L 33.147342 15.957191 
L 32.760082 16.382324 
L 32.372823 16.807457 
L 31.985563 17.23259 
L 31.669037 17.77573 
L 31.35251 18.318871 
L 31.035984 18.862012 
L 30.719457 19.405152 
L 30.56362 19.924692 
L 30.407783 20.444231 
L 30.251946 20.96377 
L 30.096109 21.483309 
L 29.940272 22.002848 
L 29.784435 22.522387 
L 29.628598 23.041926 
L 29.472761 23.561466 
L 29.28165 24.388739 
L 29.09054 25.216012 
L 28.89943 26.043285 
L 28.708319 26.870558 
L 28.517209 27.697832 
L 28.326099 28.525105 
L 28.134988 29.352378 
L 27.943878 30.179651 
L 27.816969 30.830902 
L 27.69006 31.482154 
L 27.56315 32.133405 
L 27.436241 32.784656 
L 27.309332 33.435907 
L 27.182423 34.087158 
L 27.055513 34.738409 
L 26.928604 35.38966 
L 26.989259 36.02401 
L 27.049915 36.658359 
L 27.11057 37.292709 
L 27.171225 37.927058 
L 27.23188 38.561407 
L 27.292535 39.195757 
L 27.35319 39.830106 
L 27.413845 40.464455 
" style="fill:none;stroke:#4169e1;stroke-linecap:square;stroke-width:0.4;"/>
   </g>
   <g id="line2d_37">
    <path clip-path="url(#p1be33cc655)" d="M 64.363835 127.368797 
L 64.333228 128.096944 
L 64.30262 128.82509 
L 64.272013 129.553237 
L 64.241405 130.281384 
L 64.210798 131.00953 
L 64.18019 131.737677 
L 64.149583 132.465823 
L 64.118975 133.19397 
" style="fill:none;stroke:#008000;stroke-linecap:square;stroke-width:0.4;"/>
   </g>
   <g id="line2d_38">
    <path clip-path="url(#p1be33cc655)" d="M 59.003041 103.387163 
L 58.409181 103.415332 
L 57.81532 103.443502 
L 57.22146 103.471672 
L 56.627599 103.499841 
L 55.879581 104.074197 
L 55.131564 104.648553 
L 54.684022 105.236308 
L 54.23648 105.824063 
L 53.788939 106.411819 
L 53.341397 106.999574 
L 52.933981 107.300151 
L 52.526565 107.600729 
L 52.11915 107.901306 
L 51.711734 108.201884 
L 51.304318 108.502461 
L 50.896902 108.803039 
L 50.489486 109.103616 
L 50.08207 109.404193 
L 49.621278 109.711471 
L 49.160485 110.018748 
L 48.699693 110.326025 
L 48.2389 110.633303 
L 47.778108 110.94058 
L 47.317316 111.247857 
L 46.856523 111.555134 
L 46.395731 111.862412 
L 45.841343 112.006 
L 45.286955 112.149589 
L 44.732567 112.293178 
L 44.178179 112.436767 
L 43.623791 112.580356 
L 43.069403 112.723945 
L 42.515015 112.867534 
L 41.960627 113.011123 
L 41.139077 113.204808 
L 40.317526 113.398493 
L 39.495976 113.592178 
L 38.674425 113.785864 
L 37.846156 113.856516 
L 37.017887 113.927168 
L 36.189617 113.997821 
L 35.361348 114.068473 
" style="fill:none;stroke:#000000;stroke-linecap:square;stroke-width:0.4;"/>
   </g>
   <g id="line2d_39">
    <path clip-path="url(#p1be33cc655)" d="M 66.021867 29.169199 
L 66.963981 29.364103 
L 67.478337 30.045655 
L 67.605619 30.655033 
L 67.732902 31.26441 
L 67.70472 31.880639 
L 67.676539 32.496869 
L 67.648358 33.113098 
L 67.620176 33.729328 
L 67.567267 34.597561 
L 67.514357 35.465795 
L 67.461447 36.334028 
L 67.408537 37.202261 
L 67.355627 38.070495 
L 67.302717 38.938728 
L 67.249807 39.806961 
L 67.196897 40.675195 
L 67.150239 41.503381 
L 67.103581 42.331568 
L 67.056924 43.159755 
L 67.010266 43.987942 
L 67.063642 44.762683 
L 67.117019 45.537423 
L 67.170395 46.312164 
L 67.223772 47.086905 
L 67.123644 47.711433 
L 67.023517 48.335961 
L 66.923389 48.960489 
L 66.823261 49.585017 
L 66.723134 50.209545 
L 66.623006 50.834073 
L 66.522878 51.458601 
L 66.422751 52.083129 
L 66.293135 52.599395 
L 66.16352 53.11566 
L 66.033905 53.631925 
L 65.904289 54.148191 
L 65.774674 54.664456 
L 65.645059 55.180721 
L 65.515443 55.696987 
L 65.385828 56.213252 
L 65.31976 57.10128 
L 65.253693 57.989309 
L 65.237643 58.555899 
L 65.221592 59.122489 
L 65.205542 59.689079 
L 65.189492 60.255669 
L 65.079379 60.89687 
L 64.969267 61.538072 
L 64.859155 62.179273 
L 64.749042 62.820474 
L 65.032908 63.511772 
L 65.316774 64.20307 
L 65.60064 64.894368 
L 65.884506 65.585665 
L 66.113503 66.104443 
L 66.342499 66.623221 
L 66.571496 67.141999 
L 66.800492 67.660776 
L 66.805345 68.298323 
L 66.810197 68.93587 
L 66.81505 69.573417 
L 66.819902 70.210964 
L 66.734798 71.042197 
L 66.649694 71.873429 
L 66.56459 72.704661 
L 66.479487 73.535893 
L 66.133939 73.939632 
L 65.788391 74.343372 
L 65.442844 74.747111 
L 65.097296 75.15085 
L 64.751748 75.554589 
L 64.406201 75.958328 
L 64.060653 76.362067 
L 63.715105 76.765807 
" style="fill:none;stroke:#000000;stroke-linecap:square;stroke-width:0.4;"/>
   </g>
   <g id="line2d_40">
    <path clip-path="url(#p1be33cc655)" d="M 41.469414 63.634805 
L 41.518311 64.323057 
L 41.567208 65.01131 
L 41.616106 65.699562 
L 41.665003 66.387814 
L 41.494702 67.125934 
L 41.324401 67.864055 
L 41.1541 68.602175 
L 40.983799 69.340295 
L 40.813498 70.078415 
L 40.643197 70.816535 
L 40.472896 71.554655 
L 40.302596 72.292775 
L 40.132295 72.870557 
L 39.961994 73.448339 
L 39.791693 74.026121 
L 39.621392 74.603902 
L 39.451091 75.181684 
L 39.28079 75.759466 
L 39.110489 76.337248 
L 38.940188 76.915029 
L 38.870201 77.533086 
L 38.800214 78.151143 
L 38.730228 78.769199 
L 38.660241 79.387256 
L 38.590254 80.005313 
L 38.520268 80.623369 
L 38.450281 81.241426 
L 38.380294 81.859483 
" style="fill:none;stroke:#000000;stroke-linecap:square;stroke-width:0.4;"/>
   </g>
   <g id="line2d_41">
    <path clip-path="url(#p1be33cc655)" d="M 50.753942 51.749357 
L 50.216071 52.59673 
L 49.6782 53.444102 
L 49.140329 54.291475 
L 48.602458 55.138848 
L 48.161635 55.933688 
L 47.720812 56.728528 
L 47.279989 57.523368 
L 46.839166 58.318208 
L 46.461798 58.739001 
L 46.08443 59.159794 
L 45.707062 59.580588 
L 45.329693 60.001381 
L 44.952325 60.422174 
L 44.574957 60.842967 
L 44.197589 61.26376 
L 43.82022 61.684554 
L 43.232519 62.172116 
L 42.644817 62.659679 
L 42.057115 63.147242 
L 41.469414 63.634805 
" style="fill:none;stroke:#000000;stroke-linecap:square;stroke-width:0.4;"/>
   </g>
   <g id="line2d_42">
    <path clip-path="url(#p1be33cc655)" d="M 51.775188 20.565436 
L 50.970808 21.010364 
L 50.166427 21.455292 
L 49.746134 22.007873 
L 49.32584 22.560454 
L 48.905547 23.113036 
L 48.485254 23.665617 
L 47.871237 24.256113 
L 47.25722 24.846609 
L 46.643204 25.437105 
L 46.029187 26.027602 
L 45.316069 26.5377 
L 44.602951 27.047799 
L 43.889834 27.557897 
L 43.176716 28.067996 
L 42.482448 28.327765 
L 41.78818 28.587535 
L 41.093912 28.847304 
L 40.399644 29.107074 
L 39.601422 29.319488 
L 38.803201 29.531902 
L 38.004979 29.744316 
L 37.206757 29.956731 
L 36.616536 30.12316 
L 36.026315 30.289589 
L 35.436094 30.456018 
L 34.845873 30.622447 
L 34.255652 30.788876 
L 33.66543 30.955305 
L 33.075209 31.121735 
L 32.484988 31.288164 
" style="fill:none;stroke:#ff0000;stroke-linecap:square;stroke-width:0.4;"/>
   </g>
   <g id="line2d_43">
    <path clip-path="url(#p1be33cc655)" d="M 41.709048 85.616853 
L 41.775116 86.141113 
L 41.841183 86.665372 
L 41.907251 87.189632 
L 41.973318 87.713891 
L 42.039385 88.238151 
L 42.105453 88.76241 
L 42.17152 89.286669 
L 42.237588 89.810929 
L 42.145485 90.467433 
L 42.053383 91.123938 
L 41.96128 91.780442 
L 41.869178 92.436946 
L 41.777075 93.093451 
L 41.684973 93.749955 
L 41.59287 94.40646 
L 41.500768 95.062964 
L 41.408665 95.719468 
L 41.316563 96.375973 
L 41.22446 97.032477 
L 41.132358 97.688982 
L 41.040255 98.345486 
L 40.948153 99.00199 
L 40.85605 99.658495 
L 40.763948 100.314999 
L 40.367263 101.231273 
L 39.970579 102.147547 
L 39.573894 103.063821 
L 39.177209 103.980095 
L 38.780525 104.896369 
L 38.38384 105.812643 
L 37.987156 106.728917 
L 37.590471 107.645191 
L 37.311831 108.448101 
L 37.03319 109.251012 
L 36.75455 110.053922 
L 36.47591 110.856832 
L 36.197269 111.659743 
L 35.918629 112.462653 
L 35.639988 113.265563 
L 35.361348 114.068473 
L 35.299946 114.970586 
L 35.238545 115.872699 
L 35.177143 116.774812 
L 35.115741 117.676926 
L 35.05434 118.579039 
L 34.992938 119.481152 
L 34.931536 120.383265 
L 34.870135 121.285378 
L 34.926871 122.144932 
L 34.983607 123.004486 
L 35.040342 123.86404 
L 35.097078 124.723594 
L 35.300133 125.262014 
L 35.503188 125.800435 
L 35.706243 126.338855 
L 35.909297 126.877275 
L 36.112352 127.415696 
L 36.315407 127.954116 
L 36.518461 128.492537 
L 36.721516 129.030957 
L 36.697907 129.555217 
L 36.674299 130.079476 
L 36.65069 130.603735 
L 36.627081 131.127995 
L 36.603472 131.652254 
L 36.579863 132.176514 
L 36.556254 132.700773 
L 36.532645 133.225033 
L 36.220971 133.820173 
L 35.909297 134.415313 
L 35.597623 135.010454 
L 35.285949 135.605594 
L 34.974275 136.200734 
L 34.662601 136.795875 
L 34.350927 137.391015 
L 34.039253 137.986155 
" style="fill:none;stroke:#008000;stroke-linecap:square;stroke-width:0.4;"/>
   </g>
   <g id="line2d_44">
    <path clip-path="url(#p1be33cc655)" d="M 8.270711 119.120124 
L 7.979193 119.687475 
L 7.687675 120.254826 
L 7.769233 120.95724 
L 7.85079 121.659653 
L 7.932348 122.362066 
L 8.013906 123.064479 
L 8.128311 123.652539 
L 8.242716 124.240599 
L 8.357121 124.828659 
L 8.471526 125.416719 
L 8.796637 126.029598 
L 9.121749 126.642478 
L 9.44686 127.255357 
L 9.771972 127.868237 
L 10.320108 128.016851 
L 10.868244 128.165465 
L 11.416379 128.314078 
L 11.964515 128.462692 
L 12.491562 128.605215 
" style="fill:none;stroke:#4169e1;stroke-linecap:square;stroke-width:0.4;"/>
   </g>
   <g id="line2d_45">
    <path clip-path="url(#p1be33cc655)" d="M 13.895028 89.73784 
L 14.074567 90.685405 
L 14.254107 91.63297 
L 14.433646 92.580535 
L 14.613185 93.528101 
L 15.136499 94.115856 
L 15.757234 94.213917 
L 16.37797 94.311977 
L 17.064026 94.508099 
L 17.750082 94.70422 
L 18.305497 95.259695 
L 18.860911 95.815169 
L 18.877148 96.468552 
L 18.893385 97.121935 
L 18.909622 97.775318 
L 18.925859 98.428701 
L 18.697422 99.180297 
L 18.468986 99.931892 
L 18.56678 100.912195 
L 18.664575 101.892498 
L 18.860538 102.774435 
L 19.056501 103.656373 
L 19.252463 104.5712 
L 19.448426 105.486028 
L 19.546594 106.205038 
L 19.644762 106.924049 
L 19.644762 107.871462 
L 19.644762 108.818874 
L 19.644762 109.47241 
L 19.612102 110.174823 
L 19.579441 110.877236 
L 19.546781 111.579649 
L 19.51412 112.282063 
L 19.677422 112.984628 
L 19.840725 113.687194 
L 20.004027 114.389759 
L 20.167329 115.092325 
L 20.23265 115.680385 
L 20.297971 116.268445 
L 20.281734 116.889242 
L 20.265497 117.51004 
L 20.24926 118.130837 
L 20.233024 118.751635 
L 20.085958 119.633877 
L 19.938893 120.516119 
L 19.791827 121.398361 
L 19.644762 122.280603 
L 19.661186 122.884955 
L 19.677609 123.489308 
L 19.694033 124.09366 
L 19.710456 124.698013 
L 19.729119 125.47519 
L 19.752262 126.426257 
L 19.775404 127.377324 
L 19.840725 128.194091 
L 19.906046 129.010858 
L 19.971367 129.827624 
L 20.036688 130.644391 
L 20.11022 131.216234 
L 20.183753 131.788078 
L 20.257286 132.359921 
L 20.330818 132.931764 
L 20.404351 133.503607 
L 20.477884 134.075451 
L 20.551416 134.647294 
L 20.624949 135.219137 
L 20.788251 136.052197 
L 20.951554 136.885256 
L 21.114856 137.718315 
L 21.278158 138.551375 
L 21.441647 139.20491 
L 21.605136 139.858445 
L 21.474494 140.838748 
L 21.343852 141.819051 
L 21.311005 142.603232 
L 21.278158 143.387413 
L 21.63761 144.236765 
L 21.997062 145.086117 
L 22.258345 145.919329 
L 22.519629 146.752541 
L 22.780913 147.585752 
L 23.042196 148.418964 
" style="fill:none;stroke:#4169e1;stroke-linecap:square;stroke-width:0.4;"/>
   </g>
   <g id="line2d_46">
    <path clip-path="url(#p1be33cc655)" d="M 19.729119 125.47519 
L 19.348578 125.820077 
L 18.968037 126.164965 
L 18.587496 126.509852 
L 18.206955 126.85474 
L 17.896588 127.361184 
L 17.58622 127.867628 
L 17.275852 128.374072 
L 16.965485 128.880516 
L 16.872916 129.811788 
L 16.788558 130.652918 
L 16.704201 131.494048 
L 16.785945 132.261936 
L 16.86769 133.029825 
L 16.949434 133.797714 
L 17.031179 134.565602 
L 17.161821 135.169955 
L 17.292462 135.774307 
L 17.423104 136.37866 
L 17.553746 136.983012 
L 17.815403 137.679183 
L 18.07706 138.375353 
L 18.338717 139.071523 
L 18.600374 139.767693 
L 18.795963 140.401129 
L 18.991553 141.034565 
L 19.187516 141.6881 
L 19.383478 142.341635 
L 19.612102 143.044048 
L 19.840725 143.746462 
L 20.069348 144.448875 
L 20.297971 145.151288 
L 20.771828 145.919177 
L 21.245684 146.687065 
L 21.719541 147.454954 
L 22.193398 148.222843 
" style="fill:none;stroke:#008000;stroke-linecap:square;stroke-width:0.4;"/>
   </g>
   <g id="line2d_47">
    <path clip-path="url(#p1be33cc655)" d="M 12.491562 128.605215 
L 13.356411 128.57933 
L 14.22126 128.553444 
L 14.907316 128.618919 
L 15.593372 128.684395 
L 16.233144 129.248092 
L 16.872916 129.811788 
" style="fill:none;stroke:#008000;stroke-linecap:square;stroke-width:0.4;"/>
   </g>
   <g id="line2d_48">
    <path clip-path="url(#p1be33cc655)" d="M 17.750082 94.70422 
L 18.56678 94.932927 
L 19.383478 95.161634 
L 19.97174 95.88034 
L 20.330818 96.435814 
L 20.689897 96.991289 
L 20.984027 97.77547 
L 21.278158 98.559651 
L 21.441647 99.180297 
L 21.605136 99.800942 
L 21.997062 100.127709 
L 22.388987 100.454477 
L 22.781286 100.781245 
L 23.173585 101.108012 
L 23.434868 101.826718 
L 23.696152 102.545424 
L 23.852922 103.491619 
L 24.009692 104.437813 
L 23.931307 105.173726 
L 23.852922 105.909638 
L 23.774537 106.64555 
L 23.696152 107.381463 
L 23.611795 108.11037 
L 23.527437 108.839278 
L 23.44308 109.568186 
L 23.358723 110.297094 
L 22.988633 110.822115 
L 22.618543 111.347136 
L 22.248454 111.872157 
L 21.878364 112.397177 
L 21.580874 112.864032 
L 21.283384 113.330886 
L 21.00437 113.771246 
L 20.725357 114.211606 
L 20.446343 114.651965 
L 20.167329 115.092325 
" style="fill:none;stroke:#4169e1;stroke-linecap:square;stroke-width:0.4;"/>
   </g>
   <g id="line2d_49">
    <path clip-path="url(#p1be33cc655)" d="M 19.644762 108.818874 
L 20.113953 109.03205 
L 20.583144 109.245225 
L 20.898177 109.653 
L 21.213211 110.060774 
L 21.245684 110.616248 
L 21.278158 111.171723 
L 21.279465 111.711514 
L 21.280771 112.251305 
L 21.282077 112.791095 
L 21.283384 113.330886 
L 21.509581 114.17902 
L 21.735778 115.027154 
L 22.160551 115.909092 
L 22.585323 116.791029 
L 22.846607 117.281333 
L 23.10789 117.771636 
L 23.467342 118.424867 
L 23.826794 119.078098 
L 24.120925 119.99323 
L 24.415055 120.908362 
L 24.51285 121.529007 
L 24.610645 122.149652 
L 24.692389 122.786742 
L 24.774134 123.423832 
L 24.855878 124.060923 
L 24.937623 124.698013 
L 24.937623 125.253487 
L 24.937623 125.808962 
L 24.937623 126.364436 
L 24.937623 126.919911 
L 25.068265 127.851031 
L 25.198906 128.782151 
L 25.329548 129.713271 
L 25.46019 130.644391 
L 25.574595 131.199866 
L 25.689 131.75534 
L 25.803405 132.310814 
L 25.91781 132.866289 
L 25.934047 133.454501 
L 25.950284 134.042713 
L 25.96652 134.630925 
L 25.982757 135.219137 
L 25.803032 135.839935 
L 25.623306 136.460732 
L 25.44358 137.08153 
L 25.263854 137.702327 
L 25.206745 138.208771 
L 25.149636 138.715215 
L 25.092527 139.22166 
L 25.035417 139.728104 
L 24.978308 140.234548 
L 24.921199 140.740992 
L 24.86409 141.247436 
L 24.806981 141.75388 
L 24.708999 142.407263 
L 24.611018 143.060646 
L 24.513037 143.714029 
L 24.415055 144.367412 
L 24.447529 144.955471 
L 24.480003 145.543531 
L 24.610645 146.213359 
L 24.741287 146.883187 
L 24.871928 147.553015 
L 25.00257 148.222843 
" style="fill:none;stroke:#008000;stroke-linecap:square;stroke-width:0.4;"/>
   </g>
   <g id="line2d_50">
    <path clip-path="url(#p1be33cc655)" d="M 25.263854 137.702327 
L 25.533909 138.321145 
L 25.803965 138.939963 
L 26.07402 139.558781 
L 26.344075 140.177599 
L 26.457547 141.128971 
L 26.571019 142.080343 
L 26.571019 142.586787 
L 26.571019 143.093231 
L 26.571019 143.599675 
L 26.571019 144.106119 
L 26.325972 145.037239 
L 26.080925 145.96836 
L 25.835879 146.89948 
L 25.590832 147.8306 
" style="fill:none;stroke:#008000;stroke-linecap:square;stroke-width:0.4;"/>
   </g>
   <g id="line2d_51">
    <path clip-path="url(#p1be33cc655)" d="M 13.895028 89.73784 
L 13.649981 90.620082 
L 13.404935 91.502324 
L 13.159888 92.384566 
L 12.914841 93.266808 
L 12.881994 94.0181 
L 12.849147 94.769391 
L 12.849147 95.341158 
L 12.849147 95.912925 
L 12.849147 96.484692 
L 12.849147 97.05646 
L 12.849147 97.579196 
L 12.849147 98.101933 
L 12.849147 98.62467 
L 12.849147 99.147407 
L 12.849147 99.964478 
L 12.849147 100.781549 
L 12.685845 101.353316 
L 12.522542 101.925083 
L 12.35924 102.496851 
L 12.195938 103.068618 
L 12.228598 103.575062 
L 12.261259 104.081506 
L 12.293919 104.58795 
L 12.32658 105.094394 
L 12.604287 105.633423 
L 12.881994 106.172453 
L 13.159701 106.711482 
L 13.437409 107.250512 
L 13.731539 108.198229 
L 14.02567 109.145947 
L 14.221633 110.027884 
L 14.417596 110.909822 
L 14.727963 111.449003 
L 15.038331 111.988185 
L 15.348699 112.527367 
L 15.659066 113.066549 
L 16.352961 113.486809 
L 17.046856 113.907069 
L 17.826974 114.203383 
L 18.607093 114.499697 
L 19.387211 114.796011 
L 20.167329 115.092325 
" style="fill:none;stroke:#4169e1;stroke-linecap:square;stroke-width:0.4;"/>
   </g>
   <g id="line2d_52">
    <path clip-path="url(#p1be33cc655)" d="M 12.849147 97.05646 
L 12.09777 97.644519 
L 11.346393 98.232579 
L 11.166667 98.820791 
L 10.986941 99.409003 
L 10.807215 99.997216 
L 10.627489 100.585428 
L 10.627489 101.336871 
L 10.627489 102.088315 
L 10.627489 102.839759 
L 10.627489 103.591202 
L 10.709234 104.375383 
L 10.790978 105.159565 
L 10.872723 105.943746 
L 10.954467 106.727927 
L 11.134193 107.479371 
L 11.313919 108.230815 
L 11.493645 108.982258 
L 11.673371 109.733702 
L 12.049059 110.305469 
L 12.424748 110.877236 
L 12.800436 111.449003 
L 13.176125 112.02077 
L 13.79686 112.282215 
L 14.417596 112.54366 
L 15.038331 112.805104 
L 15.659066 113.066549 
" style="fill:none;stroke:#000000;stroke-dasharray:1.48,0.64;stroke-dashoffset:0;stroke-width:0.4;"/>
   </g>
   <g id="line2d_53">
    <path clip-path="url(#p1be33cc655)" d="M 15.136499 88.953963 
L 15.659253 88.398489 
L 16.182007 87.843014 
L 16.704761 87.28754 
L 17.227515 86.732066 
L 17.488798 86.225622 
L 17.750082 85.719177 
L 18.011366 85.212733 
L 18.27265 84.706289 
L 18.632101 84.118077 
L 18.991553 83.529865 
L 19.351005 82.941653 
L 19.710456 82.353441 
L 19.939079 81.798119 
L 20.167703 81.242797 
L 20.396326 80.687474 
L 20.624949 80.132152 
L 20.559628 79.184435 
L 20.494307 78.236717 
L 20.298344 77.681243 
L 20.102382 77.125769 
L 19.906419 76.570294 
L 19.710456 76.01482 
L 19.726693 75.492083 
L 19.74293 74.969346 
L 19.759167 74.446609 
L 19.775404 73.923873 
L 19.824488 73.107106 
L 19.873572 72.290339 
L 19.922656 71.473572 
L 19.97174 70.656806 
L 20.053298 69.839887 
L 20.134856 69.022968 
L 20.216413 68.206049 
L 20.297971 67.38913 
L 20.314395 66.735747 
L 20.330818 66.082364 
L 20.347242 65.428981 
L 20.363665 64.775598 
L 20.624949 63.926094 
L 20.886233 63.07659 
L 21.147516 62.227085 
L 21.4088 61.377581 
L 21.588526 60.81396 
L 21.768252 60.250339 
L 21.947978 59.686719 
L 22.127703 59.123098 
L 22.307429 58.559477 
L 22.487155 57.995856 
L 22.666881 57.432235 
L 22.846607 56.868615 
L 23.04257 55.986373 
L 23.238532 55.104131 
L 23.434495 54.221888 
L 23.630458 53.339646 
L 23.695779 52.441112 
L 23.7611 51.542577 
L 23.826421 50.644042 
L 23.891741 49.745508 
L 24.087891 48.977771 
L 24.28404 48.210035 
L 24.48019 47.442299 
L 24.676339 46.674562 
L 24.921386 46.13538 
L 25.166433 45.596199 
L 25.411479 45.057017 
L 25.656526 44.517835 
L 26.080925 44.093311 
L 26.505325 43.668788 
L 27.271259 43.929471 
" style="fill:none;stroke:#008000;stroke-linecap:square;stroke-width:0.4;"/>
   </g>
  </g>
 </g>
 <defs>
  <clipPath id="p1be33cc655">
   <rect height="209.745992" width="72" x="0" y="0"/>
  </clipPath>
 </defs>
</svg>
