<?xml version="1.0" encoding="utf-8" standalone="no"?>
<!DOCTYPE svg PUBLIC "-//W3C//DTD SVG 1.1//EN"
  "http://www.w3.org/Graphics/SVG/1.1/DTD/svg11.dtd">
<svg height="72pt" version="1.1" viewBox="0 0 45.640862 72" width="45.640862pt" xmlns="http://www.w3.org/2000/svg" xmlns:xlink="http://www.w3.org/1999/xlink">
 <metadata>
  <rdf:RDF xmlns:cc="http://creativecommons.org/ns#" xmlns:dc="http://purl.org/dc/elements/1.1/" xmlns:rdf="http://www.w3.org/1999/02/22-rdf-syntax-ns#">
   <cc:Work>
    <dc:type rdf:resource="http://purl.org/dc/dcmitype/StillImage"/>
    <dc:date>2022-05-19T22:09:19.023543</dc:date>
    <dc:format>image/svg+xml</dc:format>
    <dc:creator>
     <cc:Agent>
      <dc:title>Matplotlib v3.4.3, https://matplotlib.org/</dc:title>
     </cc:Agent>
    </dc:creator>
   </cc:Work>
  </rdf:RDF>
 </metadata>
 <defs>
  <style type="text/css">*{stroke-linecap:butt;stroke-linejoin:round;}</style>
 </defs>
 <g id="figure_1">
  <g id="patch_1">
   <path d="M 0 72 
L 45.640862 72 
L 45.640862 0 
L 0 0 
z
" style="fill:#ffffff;"/>
  </g>
  <g id="axes_1">
   <g id="line2d_1">
    <path clip-path="url(#pa23b15e116)" d="M 13.793715 37.136919 
L 14.598884 34.952681 
L 15.404053 32.768443 
L 16.209222 30.584205 
L 17.014391 28.399967 
" style="fill:none;stroke:#808080;stroke-linecap:square;stroke-width:0.4;"/>
   </g>
   <g id="line2d_2">
    <path clip-path="url(#pa23b15e116)" d="M 20.774658 68.727273 
L 21.013231 66.98996 
L 21.251804 65.252648 
L 21.490377 63.515335 
L 21.72895 61.778023 
L 21.967523 60.04071 
L 22.206096 58.303398 
L 22.444669 56.566085 
L 22.683242 54.828772 
L 22.921815 53.09146 
L 23.160388 51.354147 
L 23.398961 49.616835 
L 23.637534 47.879522 
L 23.876107 46.14221 
L 24.11468 44.404897 
L 24.353253 42.667585 
L 24.591826 40.930272 
L 24.8304 39.19296 
L 25.068973 37.455647 
L 25.307546 35.718335 
L 25.546119 33.981022 
L 25.784692 32.24371 
L 26.023265 30.506397 
L 26.261838 28.769085 
L 26.500411 27.031772 
L 26.738984 25.294459 
L 26.977557 23.557147 
L 27.21613 21.819834 
L 27.454703 20.082522 
L 27.693276 18.345209 
L 27.931849 16.607897 
L 28.170422 14.870584 
L 28.408995 13.133272 
" style="fill:none;stroke:#808080;stroke-linecap:square;stroke-width:0.4;"/>
   </g>
   <g id="line2d_3">
    <path clip-path="url(#pa23b15e116)" d="M 17.853917 49.210983 
L 17.478758 49.508364 
L 17.103599 49.805744 
L 16.599209 50.426456 
L 16.094818 51.047167 
L 15.849132 51.667878 
L 15.603447 52.28859 
L 15.474215 52.935252 
L 15.344982 53.581914 
L 15.318943 54.151075 
L 15.292904 54.720236 
L 15.707122 55.469999 
L 16.482996 55.961659 
L 17.28491 56.401417 
L 17.698887 57.009153 
L 18.112863 57.616889 
" style="fill:none;stroke:#4169e1;stroke-linecap:square;stroke-width:0.4;"/>
   </g>
   <g id="line2d_4">
    <path clip-path="url(#pa23b15e116)" d="M 19.435081 45.374496 
L 19.084274 45.947514 
L 18.733467 46.520533 
L 18.423165 47.089693 
L 18.112863 47.658854 
L 17.98339 48.434919 
L 17.853917 49.210983 
L 17.905755 49.766818 
L 17.957592 50.322653 
L 18.035228 50.827288 
L 18.112863 51.331923 
L 18.190258 52.056086 
L 18.267653 52.780249 
L 18.267653 53.265246 
L 18.267653 53.750243 
L 18.267653 54.235239 
L 18.267653 54.720236 
L 18.241854 55.211545 
L 18.216056 55.702853 
L 18.190258 56.194162 
L 18.16446 56.685471 
L 18.112863 57.616889 
L 18.293933 58.108198 
L 18.475003 58.599507 
L 18.837142 59.142717 
L 19.199281 59.685927 
L 19.56142 60.125685 
L 19.923559 60.565444 
L 20.505586 61.160204 
L 21.087612 61.754965 
" style="fill:none;stroke:#4169e1;stroke-linecap:square;stroke-width:0.4;"/>
   </g>
   <g id="line2d_5">
    <path clip-path="url(#pa23b15e116)" d="M 29.727355 28.725402 
L 29.488058 29.255637 
L 29.248762 29.785872 
L 29.009466 30.316107 
L 28.770169 30.846342 
L 28.58259 31.318363 
L 28.395011 31.790384 
L 28.207431 32.262405 
L 28.019852 32.734427 
L 27.8776 33.355489 
L 27.735348 33.976551 
L 27.55452 34.700364 
L 27.34717 35.243924 
L 26.881838 35.708932 
L 26.416024 36.07154 
L 26.105963 36.537249 
L 25.795421 37.183911 
" style="fill:none;stroke:#008000;stroke-linecap:square;stroke-width:0.4;"/>
   </g>
   <g id="line2d_6">
    <path clip-path="url(#pa23b15e116)" d="M 35.599216 26.371609 
L 34.965473 26.488036 
L 34.331729 26.604463 
L 33.697986 26.72089 
L 33.064243 26.837317 
L 32.4176 27.108747 
L 31.770957 27.380177 
L 31.072236 27.897787 
L 30.47719 28.337545 
L 29.727355 28.725402 
" style="fill:none;stroke:#008000;stroke-linecap:square;stroke-width:0.4;"/>
   </g>
   <g id="line2d_7">
    <path clip-path="url(#pa23b15e116)" d="M 25.226414 50.012648 
L 25.705006 50.439431 
L 26.183599 50.866214 
L 26.584315 51.124668 
L 26.985031 51.383123 
L 27.502441 51.628953 
L 28.019852 51.874782 
L 28.524243 52.172163 
L 29.028634 52.469543 
L 29.481428 52.805849 
L 29.934222 53.142156 
L 30.296362 53.530013 
L 30.658501 53.91787 
L 31.00762 54.357628 
L 31.35674 54.797386 
L 31.654263 55.172619 
L 31.951786 55.547851 
L 32.598428 56.06476 
L 33.322707 56.446304 
L 34.046985 56.827849 
" style="fill:none;stroke:#008000;stroke-linecap:square;stroke-width:0.4;"/>
   </g>
   <g id="line2d_8">
    <path clip-path="url(#pa23b15e116)" d="M 25.795421 37.183911 
L 25.62713 37.778671 
L 25.556004 38.450933 
L 25.484878 39.123195 
L 25.442805 39.676049 
L 25.400732 40.228903 
L 25.35866 40.781757 
L 25.316587 41.334611 
L 25.294044 42.01038 
L 25.2715 42.686149 
L 25.248957 43.361918 
L 25.226414 44.037687 
L 25.252212 44.813752 
L 25.27801 45.589816 
L 25.28452 46.236478 
L 25.29103 46.88314 
L 25.29754 47.529802 
L 25.30405 48.176464 
L 25.265232 49.094556 
L 25.226414 50.012648 
L 25.213394 50.801337 
L 25.200375 51.590027 
L 25.142148 52.081511 
L 25.083921 52.572995 
L 25.025694 53.064479 
L 24.967467 53.555963 
L 24.721782 54.396554 
L 24.476096 55.237144 
L 24.379052 55.948508 
L 24.282007 56.659871 
L 24.184962 57.371235 
L 24.087918 58.082598 
L 24.0491 58.767835 
L 24.010282 59.453073 
L 24.0491 60.151285 
L 24.087918 60.849498 
L 24.075139 61.483185 
L 24.062361 62.116871 
L 23.881291 62.55663 
L 23.700222 62.996388 
L 23.415477 63.384245 
L 23.130733 63.772102 
L 22.536169 64.496616 
L 22.044315 65.194478 
L 21.759812 65.634236 
L 21.475308 66.3328 
" style="fill:none;stroke:#008000;stroke-linecap:square;stroke-width:0.4;"/>
   </g>
   <g id="line2d_9">
    <path clip-path="url(#pa23b15e116)" d="M 30.296362 11.860287 
L 30.296362 12.649327 
L 30.179667 13.567419 
L 29.985819 14.40836 
L 29.850077 14.95157 
L 29.714335 15.494781 
L 29.610901 15.98609 
L 29.507467 16.477398 
L 29.423322 17.027272 
L 29.339176 17.577145 
L 29.248642 18.133243 
L 29.158107 18.68934 
L 29.067572 19.245438 
L 28.977037 19.801536 
L 28.886502 20.357634 
L 28.795968 20.913732 
L 28.705433 21.469829 
L 28.614898 22.025927 
L 28.718332 22.840918 
L 28.821766 23.655908 
L 29.080471 24.561025 
L 29.339176 25.466141 
L 29.481428 26.048278 
L 29.62368 26.630414 
L 29.701315 27.121723 
L 29.778951 27.613031 
L 29.753153 28.169217 
L 29.727355 28.725402 
" style="fill:none;stroke:#000000;stroke-linecap:square;stroke-width:0.4;"/>
   </g>
   <g id="line2d_10">
    <path clip-path="url(#pa23b15e116)" d="M 34.046985 56.827849 
L 33.982369 57.364396 
L 33.917753 57.900943 
L 33.697865 58.405578 
L 33.477978 58.910213 
L 33.335726 59.375571 
L 33.193475 59.84093 
L 33.180455 60.358189 
L 33.167435 60.875449 
L 33.245071 61.509135 
L 33.322707 62.142822 
L 33.296908 62.737583 
L 33.27111 63.332344 
L 33.090041 63.798053 
L 32.908971 64.263761 
L 32.482216 64.806972 
L 32.055461 65.350182 
L 31.693322 65.776965 
L 31.331183 66.203748 
L 31.03366 66.682081 
L 30.736136 67.160415 
L 30.257544 67.406245 
L 29.778951 67.652074 
L 29.300358 67.69065 
L 28.821766 67.729225 
L 28.045891 67.587198 
L 27.270017 67.44517 
L 26.752606 67.225291 
L 26.235196 67.005412 
L 25.665948 66.798508 
L 25.0967 66.591605 
L 24.320825 66.539703 
L 23.829454 66.552679 
L 23.338083 66.565654 
L 22.639361 66.642805 
L 22.096394 66.694706 
L 21.475308 66.953511 
" style="fill:none;stroke:#008000;stroke-linecap:square;stroke-width:0.4;"/>
   </g>
   <g id="line2d_11">
    <path clip-path="url(#pa23b15e116)" d="M 15.681082 37.054157 
L 16.159675 37.623318 
L 16.638268 38.192479 
L 17.103841 38.81319 
L 17.569414 39.433902 
L 17.776281 39.938186 
L 17.983149 40.44247 
L 18.280672 41.037582 
L 18.578195 41.632693 
L 18.772284 42.188528 
L 18.966374 42.744363 
L 19.095606 43.572329 
L 19.224838 44.400295 
L 19.329959 44.887395 
L 19.435081 45.374496 
L 19.544603 45.883164 
L 19.654125 46.391831 
L 19.763646 46.900499 
L 19.873168 47.409167 
L 19.98269 47.917835 
L 20.092212 48.426502 
L 20.201733 48.93517 
L 20.311255 49.443838 
L 20.453507 50.206577 
L 20.595759 50.969315 
L 20.608778 51.454312 
L 20.621798 51.939308 
L 20.634818 52.424305 
L 20.647837 52.909301 
L 20.751271 53.736917 
L 20.854705 54.564532 
L 21.048553 55.353572 
L 21.242401 56.142612 
L 21.423712 57.047377 
L 21.423712 57.642489 
L 21.423712 58.2376 
L 21.165248 59.039265 
L 21.145839 59.71819 
L 21.12643 60.397115 
L 21.107021 61.07604 
L 21.087612 61.754965 
L 20.958259 62.317463 
L 20.828907 62.879961 
L 20.699554 63.442459 
L 20.570202 64.004956 
L 20.453748 64.651618 
L 20.337295 65.29828 
L 20.311496 65.802565 
L 20.285698 66.306849 
L 20.285698 67.031012 
L 20.285698 67.755176 
L 20.41493 68.272786 
" style="fill:none;stroke:#008000;stroke-linecap:square;stroke-width:0.4;"/>
   </g>
   <g id="line2d_12">
    <path clip-path="url(#pa23b15e116)" d="M 21.423712 30.976095 
L 21.333057 31.467404 
L 21.242401 31.958713 
L 21.113169 32.488948 
L 20.983937 33.019182 
L 20.802868 33.833822 
L 20.621798 34.648462 
L 20.492445 35.224111 
L 20.363093 35.799759 
L 20.23374 36.375408 
L 20.104387 36.951056 
L 19.858702 37.416414 
L 19.613016 37.881773 
L 19.121404 38.618911 
L 18.629792 39.35605 
L 18.30647 39.89926 
L 17.983149 40.44247 
" style="fill:none;stroke:#008000;stroke-linecap:square;stroke-width:0.4;"/>
   </g>
   <g id="line2d_13">
    <path clip-path="url(#pa23b15e116)" d="M 27.217456 11.571323 
L 27.075686 12.209569 
L 27.00456 12.68159 
L 26.933434 13.153611 
L 26.959233 13.852175 
L 26.985031 14.550738 
L 26.82988 15.055198 
L 26.674729 15.559657 
L 26.519578 16.064117 
L 26.364428 16.568576 
L 26.092703 17.202263 
L 25.820978 17.83595 
L 25.536474 18.534163 
L 25.251971 19.232375 
L 25.135759 19.866062 
L 25.019546 20.499749 
L 24.915871 21.301764 
L 24.812196 22.103779 
L 24.721782 22.69854 
L 24.631368 23.293301 
L 24.521424 23.765497 
L 24.41148 24.237694 
L 24.301537 24.70989 
L 24.191593 25.182087 
L 23.868272 25.932201 
L 23.54495 26.682315 
L 23.169792 27.290051 
L 22.794633 27.897787 
L 22.49711 28.440997 
L 22.199587 28.984208 
L 21.876265 29.669796 
L 21.552944 30.355384 
L 21.423712 30.976095 
" style="fill:none;stroke:#000000;stroke-linecap:square;stroke-width:0.4;"/>
   </g>
   <g id="line2d_14">
    <path clip-path="url(#pa23b15e116)" d="M 19.729229 29.915625 
L 19.431706 30.19968 
L 19.043768 30.716939 
L 18.655831 31.234199 
L 18.345529 31.738834 
L 18.035228 32.243469 
L 17.776522 32.734777 
L 17.517817 33.226086 
L 17.343137 33.69162 
L 17.168457 34.157153 
L 16.993776 34.622687 
L 16.819096 35.088221 
L 16.638026 35.657381 
L 16.456957 36.226542 
L 16.069261 36.795352 
L 15.681082 37.054157 
L 15.112075 37.287012 
" style="fill:none;stroke:#008000;stroke-linecap:square;stroke-width:0.4;"/>
   </g>
   <g id="line2d_15">
    <path clip-path="url(#pa23b15e116)" d="M 18.022208 11.084573 
L 17.915519 11.789449 
L 17.80883 12.494325 
L 17.702142 13.1992 
L 17.595453 13.904076 
L 17.369056 14.460262 
L 17.142658 15.016447 
L 16.916261 15.572633 
L 16.689864 16.128818 
L 16.405361 16.684828 
L 16.120857 17.240838 
L 15.836354 17.796849 
L 15.55185 18.352859 
L 15.215509 19.090348 
L 14.879168 19.827837 
L 14.607443 20.616527 
L 14.335719 21.405216 
L 14.090033 21.838486 
L 13.844347 22.271757 
L 13.598662 22.705028 
L 13.352976 23.138298 
" style="fill:none;stroke:#000000;stroke-linecap:square;stroke-width:0.4;"/>
   </g>
   <g id="line2d_16">
    <path clip-path="url(#pa23b15e116)" d="M 15.267347 9.59697 
L 14.607685 9.952564 
L 13.948022 10.308158 
L 13.521147 10.579763 
L 13.094271 10.851368 
L 12.667395 11.122973 
L 12.240519 11.394578 
L 11.619675 12.04124 
L 10.998831 12.687903 
L 10.49444 13.412417 
L 9.990049 14.136931 
L 9.705546 14.641215 
L 9.421042 15.145499 
L 8.878075 15.870013 
L 8.722803 16.076917 
" style="fill:none;stroke:#000000;stroke-linecap:square;stroke-width:0.4;"/>
   </g>
   <g id="line2d_17">
    <path clip-path="url(#pa23b15e116)" d="M 7.532711 3.272727 
L 7.235188 3.815937 
L 6.937665 4.359148 
L 6.459072 4.902358 
L 5.980479 5.445568 
L 5.411472 5.962827 
L 4.842466 6.480087 
L 4.338075 7.010322 
L 3.833684 7.540557 
L 3.355091 8.342572 
L 2.876499 9.144587 
L 2.475542 9.752323 
L 2.074585 10.360059 
" style="fill:none;stroke:#4169e1;stroke-linecap:square;stroke-width:0.4;"/>
   </g>
   <g id="line2d_18">
    <path clip-path="url(#pa23b15e116)" d="M 42.841999 22.414486 
L 43.126744 22.91877 
L 43.411488 23.423054 
L 43.463084 24.069716 
L 43.514681 24.716378 
L 43.540479 25.479467 
L 43.566277 26.242557 
L 43.501661 26.746841 
L 43.437045 27.251125 
L 43.372429 27.755409 
L 43.307813 28.259694 
L 43.275505 28.783616 
L 43.243197 29.307539 
L 43.210889 29.831461 
L 43.178581 30.355384 
L 43.152542 31.157048 
L 43.126502 31.958713 
L 43.126502 32.605375 
L 43.006915 33.090371 
L 42.887327 33.575368 
L 42.767739 34.060364 
L 42.648151 34.545361 
L 42.528563 35.030358 
L 42.408975 35.515354 
L 42.289387 36.000351 
L 42.169799 36.485347 
L 41.833458 36.976831 
L 41.497117 37.468316 
L 41.160776 37.9598 
L 40.824436 38.451284 
L 40.268207 39.162472 
L 39.711979 39.87366 
L 39.362859 40.248542 
L 39.01374 40.623423 
L 38.599763 41.024606 
L 38.185787 41.425789 
" style="fill:none;stroke:#4169e1;stroke-linecap:square;stroke-width:0.4;"/>
   </g>
   <g id="line2d_19">
    <path clip-path="url(#pa23b15e116)" d="M 35.599216 27.819935 
L 35.101215 28.207968 
L 34.603213 28.596 
L 34.105212 28.984032 
L 33.60721 29.372064 
L 33.193475 30.005751 
L 32.779739 30.639438 
L 32.624468 31.208599 
L 32.469196 31.77776 
L 32.494995 32.437397 
L 32.520793 33.097034 
L 32.624227 33.743696 
L 32.727661 34.390359 
L 32.74068 35.166072 
L 32.7537 35.941786 
L 32.702103 36.446421 
L 32.650507 36.951056 
L 32.792759 37.752721 
L 32.93501 38.554385 
L 33.019035 39.058845 
L 33.10306 39.563304 
L 33.187085 40.067764 
L 33.27111 40.572223 
L 33.697865 41.166984 
L 34.124621 41.761745 
L 34.409124 42.486259 
L 34.435163 43.08102 
L 34.564395 44.011736 
" style="fill:none;stroke:#008000;stroke-linecap:square;stroke-width:0.4;"/>
   </g>
   <g id="line2d_20">
    <path clip-path="url(#pa23b15e116)" d="M 42.841999 22.414486 
L 42.272992 22.892819 
L 41.703985 23.371153 
L 41.147757 23.591032 
L 40.591529 23.810911 
L 40.022522 24.160193 
L 39.453515 24.509474 
L 38.651601 24.832805 
L 37.849687 25.156136 
L 37.326008 25.304827 
L 36.630662 25.501911 
L 35.935316 25.698996 
L 35.599216 26.371609 
L 35.599216 27.095772 
L 35.599216 27.819935 
L 35.638034 28.33737 
L 35.676852 28.854805 
L 35.71567 29.37224 
L 35.754488 29.889675 
L 35.857922 30.45866 
L 35.961356 31.027646 
L 36.064789 31.596631 
L 36.168223 32.165617 
L 36.310475 32.747577 
L 36.452727 33.329538 
L 36.594978 33.911499 
L 36.73723 34.49346 
L 36.995935 35.347026 
L 37.254641 36.200591 
L 37.513346 37.028207 
L 37.772051 37.855822 
L 37.888505 38.334331 
L 38.004958 38.81284 
L 38.121412 39.291349 
L 38.237865 39.769858 
L 38.211826 40.597823 
L 38.185787 41.425789 
L 38.056555 42.046501 
L 37.927323 42.667212 
L 37.642819 43.08102 
L 37.358316 43.494827 
L 36.711673 43.62423 
L 36.065031 43.753633 
L 35.314713 43.882684 
L 34.564395 44.011736 
L 33.891955 44.167089 
L 33.219514 44.322443 
L 32.93501 44.7103 
L 32.650507 45.098157 
L 32.779739 45.615416 
L 32.908971 46.132676 
L 33.245312 46.779338 
L 33.581653 47.426 
L 33.866156 48.176114 
L 34.15066 48.926228 
L 34.228296 49.59884 
L 34.305931 50.271453 
L 34.15066 50.736811 
L 33.995389 51.20217 
L 33.477978 51.874782 
L 33.012646 52.650496 
L 33.064243 53.34906 
L 33.115839 54.047623 
L 33.45218 54.849288 
L 33.788521 55.650952 
L 33.917753 56.239401 
L 34.046985 56.827849 
" style="fill:none;stroke:#4169e1;stroke-linecap:square;stroke-width:0.4;"/>
   </g>
  </g>
 </g>
 <defs>
  <clipPath id="pa23b15e116">
   <rect height="72" width="45.640862" x="0" y="0"/>
  </clipPath>
 </defs>
</svg>
