<?xml version="1.0" encoding="utf-8" standalone="no"?>
<!DOCTYPE svg PUBLIC "-//W3C//DTD SVG 1.1//EN"
  "http://www.w3.org/Graphics/SVG/1.1/DTD/svg11.dtd">
<svg height="73.492045pt" version="1.1" viewBox="0 0 72 73.492045" width="72pt" xmlns="http://www.w3.org/2000/svg" xmlns:xlink="http://www.w3.org/1999/xlink">
 <metadata>
  <rdf:RDF xmlns:cc="http://creativecommons.org/ns#" xmlns:dc="http://purl.org/dc/elements/1.1/" xmlns:rdf="http://www.w3.org/1999/02/22-rdf-syntax-ns#">
   <cc:Work>
    <dc:type rdf:resource="http://purl.org/dc/dcmitype/StillImage"/>
    <dc:date>2022-05-22T19:34:58.796436</dc:date>
    <dc:format>image/svg+xml</dc:format>
    <dc:creator>
     <cc:Agent>
      <dc:title>Matplotlib v3.4.3, https://matplotlib.org/</dc:title>
     </cc:Agent>
    </dc:creator>
   </cc:Work>
  </rdf:RDF>
 </metadata>
 <defs>
  <style type="text/css">*{stroke-linecap:butt;stroke-linejoin:round;}</style>
 </defs>
 <g id="figure_1">
  <g id="patch_1">
   <path d="M 0 73.492045 
L 72 73.492045 
L 72 0 
L 0 0 
z
" style="fill:#ffffff;"/>
  </g>
  <g id="axes_1">
   <g id="line2d_1">
    <path clip-path="url(#pce5e88b5e1)" d="M 11.599453 27.129231 
L 11.931724 28.047878 
L 12.207951 28.811476 
L 12.484177 29.575074 
L 12.774607 30.377891 
L 13.065037 31.180708 
L 13.355467 31.983525 
L 13.645896 32.786342 
L 13.760441 33.102605 
L 14.183917 34.27312 
L 14.601405 35.427309 
L 15.018892 36.581497 
L 15.330281 37.442143 
L 15.641669 38.30279 
L 15.953058 39.163436 
L 16.264447 40.024082 
L 16.667962 41.139794 
L 17.071477 42.255506 
L 17.337186 42.989989 
L 17.602895 43.724473 
L 17.868604 44.458957 
L 18.134313 45.19344 
L 18.395876 45.916449 
L 18.65744 46.639458 
L 18.919003 47.362468 
L 19.180566 48.085477 
L 19.501014 48.971355 
L 19.821462 49.857234 
L 20.073889 50.555182 
L 20.326316 51.25313 
L 20.602697 52.017013 
L 20.879077 52.780897 
L 21.155458 53.54478 
L 21.431838 54.308664 
L 21.837963 55.43134 
L 22.244089 56.554017 
L 22.628565 57.61698 
L 23.054805 58.795488 
L 23.481045 59.973995 
L 23.868898 61.045636 
" style="fill:none;stroke:#808080;stroke-linecap:square;stroke-width:0.4;"/>
   </g>
   <g id="line2d_2">
    <path clip-path="url(#pce5e88b5e1)" d="M 21.097418 62.580596 
L 20.70895 61.850451 
L 20.320482 61.120306 
L 19.819159 60.175627 
L 19.317835 59.230949 
L 18.964683 58.531973 
L 18.61153 57.832998 
L 18.094699 56.837398 
L 17.715443 56.088414 
L 17.336188 55.33943 
L 16.712797 54.139458 
L 16.089406 52.939485 
L 15.551232 51.918766 
L 15.013058 50.898048 
L 14.59342 50.096544 
L 14.173783 49.29504 
L 13.80351 48.578424 
L 13.433237 47.861809 
L 13.062964 47.145194 
L 12.692691 46.428578 
L 12.365718 45.795881 
L 12.038744 45.163184 
L 11.711771 44.530487 
L 11.384798 43.89779 
L 11.057824 43.264579 
L 10.730851 42.631368 
L 10.403878 41.998157 
L 10.076905 41.364946 
" style="fill:none;stroke:#808080;stroke-linecap:square;stroke-width:0.4;"/>
   </g>
   <g id="line2d_3">
    <path clip-path="url(#pce5e88b5e1)" d="M 21.153308 67.768679 
L 20.154039 67.169263 
L 19.154771 66.569848 
L 18.109132 65.941661 
L 17.063493 65.313473 
L 15.974861 64.659483 
L 14.935364 64.003665 
L 13.895867 63.347848 
L 13.047993 62.828811 
L 12.20012 62.309774 
L 11.318467 61.769958 
L 10.436813 61.230142 
L 9.55516 60.690325 
L 8.673507 60.150509 
" style="fill:none;stroke:#808080;stroke-linecap:square;stroke-width:0.4;"/>
   </g>
   <g id="line2d_4">
    <path clip-path="url(#pce5e88b5e1)" d="M 21.398672 66.45613 
L 21.374259 65.546617 
L 21.349845 64.637104 
" style="fill:none;stroke:#808080;stroke-linecap:square;stroke-width:0.4;"/>
   </g>
   <g id="line2d_5">
    <path clip-path="url(#pce5e88b5e1)" d="M 61.660841 39.638173 
L 61.270531 38.500711 
L 60.88022 37.363249 
L 60.48991 36.225787 
L 60.099599 35.088325 
L 59.836884 34.3229 
L 59.57417 33.557475 
L 59.311455 32.79205 
L 59.04874 32.026625 
L 58.624189 30.789775 
L 58.199638 29.552924 
L 57.813012 28.426023 
L 57.426387 27.299122 
L 57.187932 26.604257 
L 56.949477 25.909392 
L 56.711023 25.214527 
L 56.472568 24.519662 
L 56.19826 23.720384 
L 55.923953 22.921107 
L 55.649645 22.121829 
L 55.375338 21.322551 
L 55.102182 20.526642 
L 54.829026 19.730733 
L 54.55587 18.934823 
L 54.282714 18.138914 
L 53.952593 17.177223 
L 53.622472 16.215533 
L 53.325824 15.351004 
L 53.029176 14.486476 
L 52.74389 13.655515 
L 52.458604 12.824554 
L 52.041193 11.608255 
L 51.623782 10.391956 
L 51.20637 9.175656 
L 50.788959 7.959357 
L 50.660903 7.586463 
L 50.50613 7.134333 
" style="fill:none;stroke:#808080;stroke-linecap:square;stroke-width:0.4;"/>
   </g>
   <g id="line2d_6">
    <path clip-path="url(#pce5e88b5e1)" d="M 17.50693 26.747432 
L 17.777341 26.844023 
L 18.047752 26.940615 
L 18.318164 27.037206 
L 18.588575 27.133798 
L 18.858986 27.230389 
L 19.129398 27.326981 
L 19.399809 27.423572 
L 19.67022 27.520164 
L 19.940632 27.616755 
L 20.211043 27.713347 
L 20.481454 27.809938 
L 20.751865 27.90653 
L 21.022277 28.003121 
L 21.292688 28.099713 
L 21.563099 28.196304 
L 21.833511 28.292896 
L 22.03761 28.439496 
L 22.241709 28.586096 
L 22.445808 28.732695 
L 22.649908 28.879295 
L 22.854007 29.025895 
L 23.058106 29.172495 
L 23.262205 29.319095 
L 23.466304 29.465695 
L 23.506533 29.676989 
L 23.546762 29.888283 
L 23.586991 30.099576 
L 23.627219 30.31087 
L 23.667448 30.522164 
L 23.707677 30.733458 
L 23.747905 30.944752 
L 23.788134 31.156046 
L 23.828363 31.36734 
L 23.868591 31.578634 
L 23.90882 31.789928 
L 23.949049 32.001222 
L 23.989277 32.212516 
L 24.029506 32.42381 
L 24.069735 32.635103 
L 24.109964 32.846397 
L 24.259439 33.005927 
L 24.408915 33.165458 
L 24.558391 33.324988 
L 24.707866 33.484518 
L 24.857342 33.644048 
L 25.006818 33.803578 
L 25.156294 33.963108 
L 25.305769 34.122638 
L 25.455245 34.282168 
L 25.604721 34.441699 
L 25.754196 34.601229 
L 25.903672 34.760759 
L 26.053148 34.920289 
L 26.202623 35.079819 
L 26.352099 35.239349 
L 26.501575 35.398879 
L 26.70245 35.620891 
L 26.903324 35.842903 
L 27.104199 36.064915 
L 27.305074 36.286927 
L 27.505949 36.508939 
L 27.706824 36.730951 
L 27.907698 36.952963 
L 28.108573 37.174975 
" style="fill:none;stroke:#000000;stroke-linecap:square;stroke-width:0.4;"/>
   </g>
   <g id="line2d_7">
    <path clip-path="url(#pce5e88b5e1)" d="M 44.806246 41.722997 
L 44.987275 41.8656 
L 45.168304 42.008204 
L 45.394552 42.150694 
L 45.6208 42.293183 
L 45.847048 42.435673 
L 46.073296 42.578163 
L 46.299544 42.720652 
L 46.525792 42.863142 
L 46.75204 43.005631 
L 46.978288 43.148121 
L 47.238048 43.250393 
L 47.497807 43.352664 
L 47.757566 43.454936 
L 48.017325 43.557208 
L 48.277084 43.659479 
L 48.536843 43.761751 
L 48.796602 43.864023 
L 49.056362 43.966294 
L 49.306064 43.954534 
L 49.555765 43.942774 
L 49.805467 43.931014 
L 50.055169 43.919255 
L 50.304871 43.907495 
L 50.554573 43.895735 
L 50.804275 43.883975 
L 51.053977 43.872215 
L 51.369051 43.838705 
L 51.684125 43.805194 
L 51.999198 43.771684 
L 52.314272 43.738174 
L 52.629345 43.704664 
L 52.944419 43.671154 
L 53.259493 43.637643 
L 53.574566 43.604133 
L 53.861119 43.557208 
L 54.147672 43.510282 
L 54.434224 43.463356 
L 54.720777 43.416431 
L 55.00733 43.369505 
L 55.293882 43.322579 
L 55.580435 43.275654 
L 55.866988 43.228728 
L 56.053007 43.129824 
L 56.239026 43.030921 
L 56.425046 42.932017 
L 56.611065 42.833114 
L 56.797084 42.73421 
L 56.983104 42.635307 
L 57.169123 42.536403 
L 57.355142 42.4375 
L 57.707067 42.293298 
L 58.058991 42.149095 
L 58.410915 42.004893 
L 58.76284 41.860691 
L 58.973964 41.572401 
L 59.185087 41.28411 
L 59.396211 40.99582 
L 59.607335 40.70753 
L 59.818536 40.476213 
L 60.029736 40.244895 
L 60.240937 40.013578 
L 60.452138 39.782261 
L 60.754314 39.746239 
L 61.05649 39.710217 
L 61.358665 39.674195 
L 61.660841 39.638173 
" style="fill:none;stroke:#008000;stroke-linecap:square;stroke-width:0.4;"/>
   </g>
   <g id="line2d_8">
    <path clip-path="url(#pce5e88b5e1)" d="M 35.373384 46.024858 
L 35.346591 46.386933 
L 35.319797 46.749009 
L 35.293004 47.111084 
L 35.26621 47.47316 
L 35.239417 47.835235 
L 35.212623 48.19731 
L 35.18583 48.559386 
L 35.159036 48.921461 
L 35.242833 49.146071 
L 35.32663 49.37068 
L 35.410427 49.59529 
L 35.494224 49.819899 
L 35.578021 50.044509 
L 35.661818 50.269118 
L 35.745615 50.493728 
L 35.829412 50.718337 
L 35.976892 50.919512 
L 36.124371 51.120688 
L 36.271851 51.321863 
L 36.41933 51.523038 
L 36.56681 51.724213 
L 36.71429 51.925389 
L 36.861769 52.126564 
L 37.009249 52.327739 
L 37.139954 52.495347 
L 37.270659 52.662955 
L 37.401364 52.830563 
L 37.532068 52.998171 
L 37.662773 53.165779 
L 37.793478 53.333387 
L 37.924183 53.500995 
L 38.054888 53.668603 
L 38.199028 53.889872 
L 38.343168 54.111142 
L 38.487308 54.332412 
L 38.631448 54.553682 
L 38.775588 54.774952 
L 38.919728 54.996222 
L 39.063868 55.217492 
L 39.208008 55.438762 
L 39.387655 55.731904 
L 39.567303 56.025047 
L 39.74695 56.31819 
L 39.926597 56.611332 
" style="fill:none;stroke:#008000;stroke-linecap:square;stroke-width:0.4;"/>
   </g>
   <g id="line2d_9">
    <path clip-path="url(#pce5e88b5e1)" d="M 10.076905 41.364946 
L 9.977369 41.733786 
L 9.877834 42.102626 
L 9.778299 42.471467 
L 9.678763 42.840307 
L 9.579228 43.209147 
L 9.479693 43.577987 
L 9.380157 43.946828 
L 9.280622 44.315668 
L 9.091186 44.625765 
L 8.901751 44.935863 
L 8.712315 45.245961 
L 8.522879 45.556058 
L 8.333444 45.866156 
L 8.144008 46.176253 
L 7.954572 46.486351 
L 7.765136 46.796448 
L 7.62852 46.991743 
L 7.491904 47.187039 
L 7.355287 47.382334 
L 7.218671 47.577629 
L 7.082055 47.772924 
L 6.945438 47.96822 
L 6.808822 48.163515 
L 6.672206 48.35881 
L 6.535589 48.554105 
L 6.398973 48.749401 
L 6.262357 48.944696 
L 6.12574 49.139991 
L 5.989124 49.335286 
L 5.852508 49.530581 
L 5.715891 49.725877 
L 5.579275 49.921172 
L 5.466976 50.097172 
L 5.354677 50.273171 
L 5.242379 50.449171 
L 5.13008 50.625171 
L 5.017781 50.801171 
L 4.905483 50.977171 
L 4.793184 51.15317 
L 4.680885 51.32917 
L 4.568586 51.50517 
L 4.456288 51.68117 
L 4.343989 51.857169 
L 4.23169 52.033169 
L 4.119392 52.209169 
L 4.007093 52.385169 
L 3.894794 52.561168 
L 3.782495 52.737168 
L 3.718774 53.09088 
L 3.655053 53.444592 
L 3.591332 53.798305 
L 3.527611 54.152017 
L 3.46389 54.505729 
L 3.400169 54.859441 
L 3.336448 55.213153 
L 3.272727 55.566865 
L 3.447077 55.895402 
L 3.621427 56.223939 
L 3.795777 56.552475 
L 3.970127 56.881012 
L 4.144477 57.209549 
L 4.318827 57.538086 
L 4.493177 57.866622 
L 4.667527 58.195159 
L 4.865331 58.322578 
L 5.063135 58.449996 
L 5.260938 58.577415 
L 5.458742 58.704833 
L 5.656546 58.832252 
L 5.85435 58.95967 
L 6.052154 59.087089 
L 6.249958 59.214508 
L 6.588524 59.412258 
L 6.92709 59.610008 
L 7.265656 59.807758 
L 7.604222 60.005508 
L 7.871543 60.041758 
L 8.138864 60.078008 
L 8.406185 60.114259 
L 8.673507 60.150509 
" style="fill:none;stroke:#000000;stroke-linecap:square;stroke-width:0.4;"/>
   </g>
   <g id="line2d_10">
    <path clip-path="url(#pce5e88b5e1)" d="M 8.673507 60.150509 
L 8.828625 60.375033 
L 8.983743 60.599557 
L 9.138862 60.824081 
L 9.29398 61.048604 
L 9.449099 61.273128 
L 9.604217 61.497652 
L 9.759336 61.722176 
L 9.914454 61.9467 
L 10.097096 62.109684 
L 10.279737 62.272668 
L 10.462378 62.435652 
L 10.64502 62.598635 
L 10.827661 62.761619 
L 11.010302 62.924603 
L 11.192944 63.087587 
L 11.375585 63.250571 
L 11.567977 63.499014 
L 11.760368 63.747458 
L 11.952759 63.995901 
L 12.145151 64.244345 
L 12.299924 64.444264 
L 12.454697 64.644183 
L 12.390822 64.936812 
L 12.326948 65.229441 
L 12.255857 65.554952 
L 12.184765 65.880463 
L 11.931877 66.206431 
L 11.678989 66.532399 
L 11.426101 66.858366 
L 11.173213 67.184334 
L 10.903512 67.448477 
L 10.633811 67.712619 
L 10.36411 67.976761 
L 10.094409 68.240904 
L 10.375395 68.431917 
L 10.656382 68.622931 
L 10.948577 68.651018 
L 11.240773 68.679105 
L 11.532968 68.707192 
L 11.825164 68.735279 
L 12.108953 68.819596 
L 12.392742 68.903914 
L 12.67653 68.988232 
L 12.960319 69.07255 
L 13.244108 69.156867 
L 13.527897 69.241185 
L 13.811686 69.325503 
L 14.095475 69.409821 
L 14.323066 69.50253 
L 14.550658 69.59524 
L 14.77825 69.687949 
L 15.005841 69.780659 
L 15.233433 69.873369 
L 15.461024 69.966078 
L 15.688616 70.058788 
L 15.916207 70.151497 
L 16.191551 70.057375 
L 16.466895 69.963252 
L 16.742239 69.86913 
L 17.017583 69.775007 
L 17.292927 69.680885 
L 17.568271 69.586762 
L 17.843615 69.49264 
L 18.118959 69.398517 
L 18.394303 69.304395 
L 18.669647 69.210272 
L 18.94499 69.11615 
L 19.220334 69.022028 
L 19.495678 68.927905 
L 19.771022 68.833783 
L 20.046366 68.73966 
L 20.32171 68.645538 
L 20.52961 68.426323 
L 20.737509 68.207108 
L 20.945408 67.987893 
L 21.153308 67.768679 
" style="fill:none;stroke:#008000;stroke-linecap:square;stroke-width:0.4;"/>
   </g>
   <g id="line2d_11">
    <path clip-path="url(#pce5e88b5e1)" d="M 11.599453 27.129231 
L 11.968575 26.993363 
L 12.151907 26.910016 
L 12.510894 26.746747 
L 12.821208 26.779743 
L 13.131522 26.812739 
L 13.447363 26.782141 
L 13.763204 26.751542 
L 14.038049 26.836944 
L 14.356961 27.077167 
L 14.675874 27.31739 
L 15.019507 27.510345 
L 15.008605 27.735725 
L 14.997703 27.961105 
L 15.017357 28.227702 
L 15.037011 28.494299 
L 15.056664 28.760896 
L 15.076318 29.027494 
L 15.009756 29.297288 
L 14.943195 29.567082 
L 14.876633 29.836876 
L 14.810072 30.10667 
L 14.736908 30.315095 
L 14.663744 30.52352 
L 14.59058 30.731945 
L 14.517416 30.940371 
L 14.395501 31.287917 
L 14.273587 31.635464 
L 14.09179 31.952983 
L 13.909993 32.270502 
L 13.663707 32.425665 
L 13.417422 32.580828 
L 13.188487 32.72503 
L 12.959552 32.869232 
L 12.804855 33.033643 
L 12.650159 33.198054 
L 12.495463 33.362465 
L 12.340767 33.526876 
L 12.240656 33.75808 
L 12.140545 33.989283 
L 12.040433 34.220486 
L 11.940322 34.451689 
L 11.853147 34.726592 
L 11.765972 35.001495 
L 11.678797 35.276399 
L 11.591622 35.551302 
L 11.504447 35.826205 
L 11.417272 36.101109 
L 11.330098 36.376012 
L 11.242923 36.650915 
L 11.169183 37.012991 
L 11.095443 37.375066 
L 11.021703 37.737141 
L 10.947963 38.099217 
L 10.874223 38.461292 
L 10.800484 38.823368 
L 10.726744 39.185443 
L 10.653004 39.547519 
L 10.624138 39.90614 
L 10.595271 40.264762 
L 10.566405 40.623383 
L 10.537538 40.982005 
" style="fill:none;stroke:#4169e1;stroke-linecap:square;stroke-width:0.4;"/>
   </g>
   <g id="line2d_12">
    <path clip-path="url(#pce5e88b5e1)" d="M 32.097356 22.551981 
L 32.322529 22.694214 
L 32.547702 22.836446 
L 32.772875 22.978679 
L 32.998049 23.120912 
L 33.223222 23.263144 
L 33.448395 23.405377 
L 33.673568 23.54761 
L 33.898742 23.689843 
L 34.244754 23.746758 
L 34.590767 23.803674 
L 34.93678 23.86059 
L 35.282793 23.917506 
L 35.486662 24.031281 
L 35.690531 24.145056 
L 35.8944 24.25883 
L 36.098269 24.372605 
L 36.302137 24.48638 
L 36.506006 24.600155 
L 36.709875 24.713929 
L 36.913744 24.827704 
L 37.141259 24.898835 
L 37.368774 24.969965 
L 37.596288 25.041096 
L 37.823803 25.112227 
L 38.051318 25.183357 
L 38.278833 25.254488 
L 38.506348 25.325619 
L 38.733862 25.396749 
L 39.073733 25.626297 
L 39.413604 25.855844 
L 39.753476 26.085392 
L 40.093347 26.314939 
" style="fill:none;stroke:#008000;stroke-linecap:square;stroke-width:0.4;"/>
   </g>
   <g id="line2d_13">
    <path clip-path="url(#pce5e88b5e1)" d="M 11.599453 27.129231 
L 11.47324 27.358493 
L 11.518228 27.678524 
L 11.563217 27.998554 
L 11.645018 28.219025 
L 11.726818 28.439496 
L 11.808619 28.659966 
L 11.89042 28.880437 
L 11.972221 29.100908 
L 12.054022 29.321378 
L 12.135823 29.541849 
L 12.217624 29.76232 
L 12.301152 29.988727 
L 12.384681 30.215135 
L 12.468209 30.441543 
L 12.551737 30.667951 
L 12.635265 30.894358 
L 12.718794 31.120766 
L 12.802322 31.347174 
L 12.88585 31.573582 
L 13.018743 31.825393 
L 13.151636 32.077205 
L 13.284529 32.329016 
L 13.417422 32.580828 
" style="fill:none;stroke:#000000;stroke-linecap:square;stroke-width:0.4;"/>
   </g>
   <g id="line2d_14">
    <path clip-path="url(#pce5e88b5e1)" d="M 43.170995 40.037555 
L 42.949584 40.122586 
L 42.728173 40.207618 
L 42.506761 40.292649 
L 42.28535 40.37768 
L 42.063939 40.462712 
L 41.842527 40.547743 
L 41.621116 40.632774 
L 41.399704 40.717806 
L 41.156874 40.802038 
L 40.914043 40.88627 
L 40.671212 40.970502 
L 40.428381 41.054734 
L 40.18555 41.138966 
L 39.942719 41.223198 
L 39.699888 41.307431 
L 39.457058 41.391663 
L 39.202442 41.639935 
L 38.947827 41.888207 
L 38.693211 42.136479 
L 38.438596 42.384751 
L 38.183981 42.633023 
L 37.929365 42.881295 
L 37.67475 43.129568 
L 37.420134 43.37784 
L 37.169242 43.702095 
L 36.94476 43.99244 
L 36.720278 44.282786 
L 36.495796 44.573131 
L 36.271313 44.863476 
L 36.046831 45.153822 
L 35.822349 45.444167 
L 35.597867 45.734513 
L 35.373384 46.024858 
L 35.17439 46.356877 
L 35.006259 46.637632 
L 34.838128 46.918386 
L 34.669996 47.199141 
L 34.501865 47.479896 
L 34.333734 47.760651 
L 34.165602 48.041405 
L 33.997471 48.32216 
L 33.829339 48.602915 
L 33.722069 48.835916 
L 33.614799 49.068917 
L 33.507529 49.301919 
L 33.400259 49.53492 
L 33.292989 49.767921 
L 33.185719 50.000923 
L 33.078449 50.233924 
L 32.971178 50.466925 
L 32.863908 50.699927 
L 32.756638 50.932928 
L 32.649368 51.165929 
L 32.542098 51.398931 
L 32.434828 51.631932 
L 32.327558 51.864933 
L 32.220288 52.097935 
L 32.113017 52.330936 
L 31.962927 52.54467 
L 31.812838 52.758405 
L 31.662748 52.972139 
L 31.512658 53.185873 
L 31.385062 53.494315 
L 31.257467 53.802757 
L 31.129871 54.111199 
L 31.002275 54.419641 
L 30.846121 54.658066 
L 30.689966 54.896491 
L 30.533811 55.134915 
L 30.377656 55.37334 
L 30.221501 55.611764 
L 30.065346 55.850189 
L 29.909191 56.088614 
L 29.753036 56.327038 
L 29.528439 56.568431 
L 29.303841 56.809824 
L 29.079244 57.051218 
L 28.854647 57.292611 
L 28.630049 57.534004 
L 28.405452 57.775397 
L 28.180854 58.01679 
L 27.956257 58.258183 
L 27.775304 58.452679 
L 27.594352 58.647175 
L 27.4134 58.841671 
L 27.232447 59.036167 
L 27.051495 59.230663 
L 26.870543 59.425159 
L 26.68959 59.619655 
L 26.508638 59.814151 
L 26.286075 60.053347 
L 26.063512 60.292542 
L 25.840949 60.531737 
L 25.618386 60.770932 
L 25.3997 60.80527 
L 25.181014 60.839608 
L 24.962328 60.873946 
L 24.743642 60.908284 
L 24.524956 60.942622 
L 24.30627 60.97696 
L 24.087584 61.011298 
L 23.868898 61.045636 
" style="fill:none;stroke:#000000;stroke-linecap:square;stroke-width:0.4;"/>
   </g>
   <g id="line2d_15">
    <path clip-path="url(#pce5e88b5e1)" d="M 15.019507 27.510345 
L 17.50693 26.747432 
L 19.042299 24.394013 
L 19.276916 23.361363 
L 19.196535 22.61706 
L 21.743841 20.005436 
L 24.499353 19.837828 
L 26.202777 18.526878 
L 29.400498 18.981292 
L 30.144268 20.712404 
L 32.256159 22.829339 
L 35.694158 28.632536 
L 36.951516 30.403523 
L 38.800501 32.361956 
L 40.817981 36.343287 
L 43.027585 39.827132 
L 43.379547 40.156096 
L 44.839411 40.985887 
L 44.806246 41.722997 
L 44.806246 41.722997 
" style="fill:none;stroke:#4169e1;stroke-linecap:square;stroke-width:0.4;"/>
   </g>
   <g id="line2d_16">
    <path clip-path="url(#pce5e88b5e1)" d="M 12.351515 61.35756 
L 12.555422 61.253119 
L 12.759329 61.148678 
L 12.963237 61.044237 
L 13.167144 60.939796 
L 13.371051 60.835355 
L 13.574959 60.730914 
L 13.778866 60.626473 
L 13.982773 60.522032 
L 14.124955 60.346603 
L 14.267138 60.171175 
L 14.40932 59.995746 
L 14.551502 59.820317 
L 14.829994 59.754781 
L 15.108486 59.689245 
L 15.386977 59.623709 
L 15.665469 59.558172 
L 15.94396 59.492636 
L 16.222452 59.4271 
L 16.500944 59.361564 
L 16.779435 59.296028 
L 17.116312 59.216791 
L 17.453189 59.137554 
L 17.837588 59.09942 
L 18.221987 59.061286 
L 18.606386 59.023151 
L 18.990785 58.985017 
L 19.178724 58.985931 
L 19.456064 58.985931 
L 19.733404 58.985931 
L 20.010744 58.985931 
L 20.288084 58.985931 
L 20.565424 58.985931 
L 20.842764 58.985931 
L 21.120104 58.985931 
L 21.397444 58.985931 
L 21.747679 59.030915 
L 22.097915 59.0759 
L 22.44815 59.120885 
L 22.798385 59.165869 
L 22.973426 59.397415 
L 22.888209 59.615488 
L 22.802992 59.833561 
" style="fill:none;stroke:#008000;stroke-linecap:square;stroke-width:0.4;"/>
   </g>
   <g id="line2d_17">
    <path clip-path="url(#pce5e88b5e1)" d="M 36.951516 30.403523 
L 37.081415 30.701718 
L 37.211314 30.999913 
L 37.341212 31.298107 
L 37.471111 31.596302 
L 37.60101 31.894497 
L 37.730909 32.192692 
L 37.860808 32.490887 
L 37.990706 32.789082 
L 38.008671 33.017944 
L 38.026636 33.246807 
L 38.0446 33.475669 
L 38.062565 33.704532 
L 38.08053 33.933394 
L 38.098495 34.162257 
L 38.116459 34.391119 
L 38.134424 34.619982 
L 38.200871 34.997813 
L 38.267317 35.375645 
L 38.333763 35.753476 
L 38.40021 36.131308 
L 38.466656 36.509139 
L 38.533103 36.886971 
L 38.599549 37.264802 
L 38.665996 37.642634 
L 38.747605 38.046982 
L 38.829214 38.451331 
L 38.910823 38.855679 
L 38.992432 39.260027 
L 39.05051 39.526482 
L 39.108588 39.792936 
L 39.166666 40.059391 
L 39.224745 40.325845 
L 39.282823 40.592299 
L 39.340901 40.858754 
L 39.398979 41.125208 
L 39.457058 41.391663 
" style="fill:none;stroke:#4169e1;stroke-linecap:square;stroke-width:0.4;"/>
   </g>
   <g id="line2d_18">
    <path clip-path="url(#pce5e88b5e1)" d="M 22.195876 51.395391 
L 22.288041 51.615833 
L 22.380206 51.836275 
L 22.472372 52.056718 
L 22.564537 52.27716 
L 22.656702 52.497602 
L 22.748867 52.718044 
L 22.841032 52.938486 
L 22.933197 53.158928 
L 22.992984 53.417833 
L 23.05277 53.676737 
L 23.112557 53.935642 
L 23.172343 54.194547 
L 23.23213 54.453451 
L 23.291916 54.712356 
L 23.351703 54.971261 
L 23.411489 55.230165 
L 23.471275 55.48907 
L 23.531062 55.747974 
L 23.590848 56.006879 
L 23.650635 56.265784 
L 23.710421 56.524688 
L 23.770208 56.783593 
L 23.829994 57.042498 
L 23.889781 57.301402 
L 23.888475 57.535417 
L 23.88717 57.769431 
L 23.885865 58.003446 
L 23.88456 58.237461 
L 23.883255 58.471475 
L 23.88195 58.70549 
L 23.880645 58.939504 
L 23.87934 59.173519 
L 23.878034 59.407534 
L 23.876729 59.641548 
L 23.875424 59.875563 
L 23.874119 60.109577 
L 23.872814 60.343592 
L 23.871509 60.577607 
L 23.870204 60.811621 
L 23.868898 61.045636 
" style="fill:none;stroke:#000000;stroke-linecap:square;stroke-width:0.4;"/>
   </g>
   <g id="line2d_19">
    <path clip-path="url(#pce5e88b5e1)" d="M 13.909993 32.270502 
L 13.98689 32.479427 
L 14.063787 32.688352 
L 14.140684 32.897276 
L 14.217581 33.106201 
L 14.294478 33.315126 
L 14.371375 33.524051 
L 14.448273 33.732975 
L 14.52517 33.9419 
L 14.602067 34.150825 
L 14.678964 34.35975 
L 14.755861 34.568675 
L 14.832758 34.777599 
L 14.909655 34.986524 
L 14.986552 35.195449 
L 15.063449 35.404374 
L 15.140346 35.613299 
L 15.217243 35.822223 
L 15.29414 36.031148 
L 15.371037 36.240073 
L 15.447935 36.448998 
L 15.524832 36.657923 
L 15.601729 36.866847 
L 15.678626 37.075772 
L 15.755523 37.284697 
L 15.83242 37.493622 
L 15.909317 37.702547 
L 15.986214 37.911471 
L 16.063111 38.120396 
L 16.140008 38.329321 
L 16.216905 38.538246 
L 16.293802 38.747171 
L 16.370699 38.956095 
L 16.502249 39.232269 
L 16.633798 39.508442 
L 16.765348 39.784616 
L 16.896897 40.060789 
L 17.028446 40.336963 
L 17.159996 40.613136 
L 17.291545 40.88931 
L 17.423094 41.165483 
L 17.554644 41.441657 
L 17.686193 41.71783 
L 17.817743 41.994004 
L 17.949292 42.270177 
L 18.080841 42.546351 
L 18.212391 42.822524 
L 18.34394 43.098698 
L 18.475489 43.374871 
L 18.783653 43.464955 
L 19.091818 43.555038 
L 19.399982 43.645122 
L 19.708146 43.735205 
" style="fill:none;stroke:#000000;stroke-linecap:square;stroke-width:0.4;"/>
   </g>
   <g id="line2d_20">
    <path clip-path="url(#pce5e88b5e1)" d="M 8.673507 60.150509 
L 8.887701 60.294126 
L 9.101896 60.437743 
L 9.316091 60.58136 
L 9.530286 60.724977 
L 9.74448 60.868594 
L 9.958675 61.012211 
L 10.17287 61.155828 
L 10.387065 61.299445 
L 10.601259 61.443063 
L 10.815454 61.58668 
L 11.029649 61.730297 
L 11.243844 61.873914 
L 11.458039 62.017531 
L 11.672233 62.161148 
L 11.886428 62.304765 
L 12.100623 62.448382 
L 12.314818 62.591999 
L 12.529012 62.735616 
L 12.743207 62.879233 
L 12.957402 63.02285 
L 13.171597 63.166467 
L 13.385792 63.310084 
L 13.599986 63.453701 
L 13.814181 63.597319 
L 14.028376 63.740936 
L 14.242571 63.884553 
L 14.456765 64.02817 
L 14.67096 64.171787 
L 14.885155 64.315404 
L 15.09935 64.459021 
L 15.313545 64.602638 
L 15.527739 64.746255 
L 15.879337 64.935157 
L 16.230935 65.124058 
L 16.582533 65.312959 
L 16.934131 65.501861 
L 17.28573 65.690762 
L 17.637328 65.879664 
L 17.988926 66.068565 
L 18.340524 66.257467 
L 18.692122 66.446368 
L 19.04372 66.63527 
L 19.395318 66.824171 
L 19.746916 67.013073 
L 20.098514 67.201974 
L 20.450112 67.390876 
L 20.80171 67.579777 
L 21.153308 67.768679 
" style="fill:none;stroke:#4169e1;stroke-linecap:square;stroke-width:0.4;"/>
   </g>
   <g id="line2d_21">
    <path clip-path="url(#pce5e88b5e1)" d="M 12.145151 64.244345 
L 12.42821 64.156031 
L 12.71127 64.067717 
L 12.99433 63.979403 
L 13.277389 63.891089 
L 13.513195 63.920204 
L 13.749001 63.949318 
L 13.984808 63.978433 
L 14.220614 64.007547 
L 14.45642 64.036661 
L 14.692226 64.065776 
L 14.928032 64.09489 
L 15.163839 64.124005 
L 15.313583 63.964132 
L 15.463327 63.80426 
L 15.613072 63.644387 
L 15.762816 63.484514 
L 15.912561 63.324642 
L 16.062305 63.164769 
L 16.212049 63.004896 
L 16.361794 62.845024 
L 16.603166 62.710926 
L 16.844538 62.576828 
L 17.08591 62.44273 
L 17.327283 62.308633 
L 17.633758 62.40471 
L 17.940233 62.500788 
L 18.246708 62.596866 
L 18.553183 62.692943 
" style="fill:none;stroke:#4169e1;stroke-linecap:square;stroke-width:0.4;"/>
   </g>
   <g id="line2d_22">
    <path clip-path="url(#pce5e88b5e1)" d="M 8.673507 60.150509 
L 8.903382 60.22595 
L 9.133258 60.30139 
L 9.363133 60.376831 
L 9.593009 60.452272 
L 9.822884 60.527712 
L 10.05276 60.603153 
L 10.282635 60.678594 
L 10.512511 60.754035 
L 10.742386 60.829475 
L 10.972262 60.904916 
L 11.202137 60.980357 
L 11.432013 61.055797 
L 11.661888 61.131238 
L 11.891764 61.206679 
L 12.121639 61.28212 
L 12.351515 61.35756 
L 12.63373 61.45027 
L 12.992449 61.423467 
L 13.351167 61.396665 
L 13.709886 61.369863 
L 14.068605 61.34306 
L 14.427323 61.316258 
L 14.786042 61.289455 
L 15.144761 61.262653 
L 15.503479 61.23585 
L 15.78842 61.312947 
L 16.07336 61.390043 
L 16.358301 61.467139 
L 16.643241 61.544235 
L 16.928182 61.621332 
L 17.213122 61.698428 
L 17.498063 61.775524 
L 17.783003 61.85262 
L 17.975548 62.062701 
L 18.168093 62.272782 
L 18.360638 62.482863 
L 18.553183 62.692943 
L 18.811752 62.956686 
L 19.070321 63.220429 
L 19.167534 63.441699 
L 19.264747 63.662969 
L 19.36196 63.884239 
L 19.459173 64.105509 
L 19.556386 64.326778 
L 19.653599 64.548048 
L 19.750812 64.769318 
L 19.848025 64.990588 
L 19.945238 65.211858 
L 20.042451 65.433128 
L 20.139664 65.654398 
L 20.236877 65.875668 
L 20.33409 66.096938 
L 20.431303 66.318208 
L 20.528516 66.539477 
L 20.625729 66.760747 
L 20.757623 67.01273 
L 20.889518 67.264713 
L 21.021413 67.516696 
L 21.153308 67.768679 
" style="fill:none;stroke:#4169e1;stroke-linecap:square;stroke-width:0.4;"/>
   </g>
   <g id="line2d_23">
    <path clip-path="url(#pce5e88b5e1)" d="M 40.093347 26.314939 
L 40.27832 26.571496 
L 40.463293 26.828053 
L 40.648267 27.08461 
L 40.83324 27.341167 
L 41.018213 27.597724 
L 41.203186 27.854281 
L 41.38816 28.110838 
L 41.573133 28.367395 
L 41.758106 28.623951 
L 41.94308 28.880508 
L 42.128053 29.137065 
L 42.313026 29.393622 
L 42.498 29.650179 
L 42.682973 29.906736 
L 42.867946 30.163293 
L 43.05292 30.41985 
L 43.237893 30.676407 
L 43.422866 30.932964 
L 43.60784 31.189521 
L 43.792813 31.446077 
L 43.977786 31.702634 
L 44.162759 31.959191 
L 44.347733 32.215748 
L 44.532706 32.472305 
L 44.717679 32.728862 
L 44.902653 32.985419 
L 45.087626 33.241976 
L 45.272599 33.498533 
L 45.457573 33.75509 
L 45.642546 34.011647 
L 45.827519 34.268203 
L 46.012493 34.52476 
L 46.234336 34.625576 
L 46.456179 34.726392 
L 46.678022 34.827208 
L 46.899865 34.928024 
L 47.121709 35.02884 
L 47.343552 35.129656 
L 47.565395 35.230472 
L 47.787238 35.331288 
L 48.009082 35.432104 
L 48.230925 35.53292 
L 48.452768 35.633736 
L 48.674611 35.734552 
L 48.896454 35.835368 
L 49.118298 35.936184 
L 49.340141 36.037 
L 49.561984 36.137816 
L 49.783827 36.238632 
L 50.00567 36.339448 
L 50.227514 36.440263 
L 50.449357 36.541079 
L 50.6712 36.641895 
L 50.893043 36.742711 
L 51.114887 36.843527 
L 51.33673 36.944343 
L 51.558573 37.045159 
L 51.780416 37.145975 
L 52.002259 37.246791 
L 52.224103 37.347607 
L 52.445946 37.448423 
L 52.667789 37.549239 
L 52.889632 37.650055 
L 53.111476 37.750871 
L 53.378643 37.809849 
L 53.645811 37.868827 
L 53.912979 37.927805 
L 54.180146 37.986784 
L 54.447314 38.045762 
L 54.714482 38.10474 
L 54.981649 38.163718 
L 55.248817 38.222696 
L 55.515985 38.281675 
L 55.783152 38.340653 
L 56.05032 38.399631 
L 56.317488 38.458609 
L 56.584655 38.517587 
L 56.851823 38.576566 
L 57.118991 38.635544 
L 57.386158 38.694522 
L 57.653326 38.7535 
L 57.920494 38.812478 
L 58.187661 38.871456 
L 58.454829 38.930435 
L 58.721997 38.989413 
L 58.989164 39.048391 
L 59.256332 39.107369 
L 59.5235 39.166347 
L 59.790667 39.225326 
L 60.057835 39.284304 
L 60.325003 39.343282 
L 60.592171 39.40226 
L 60.859338 39.461238 
L 61.126506 39.520217 
L 61.393674 39.579195 
L 61.660841 39.638173 
" style="fill:none;stroke:#000000;stroke-linecap:square;stroke-width:0.4;"/>
   </g>
   <g id="line2d_24">
    <path clip-path="url(#pce5e88b5e1)" d="M 29.400498 18.981292 
L 29.697914 18.74438 
L 29.99533 18.507469 
L 30.246836 18.414759 
L 30.498342 18.322049 
L 30.749848 18.22934 
L 31.001354 18.13663 
L 31.229291 18.019288 
L 31.457228 17.901945 
L 31.685165 17.784602 
L 31.913102 17.66726 
L 32.141039 17.549917 
L 32.368976 17.432574 
L 32.596913 17.315231 
L 32.82485 17.197889 
L 33.200267 17.1275 
L 33.575684 17.057112 
L 33.9511 16.986723 
L 34.326517 16.916335 
L 34.701934 16.845946 
L 35.07735 16.775558 
L 35.452767 16.705169 
L 35.828184 16.634781 
L 36.012552 16.51073 
L 36.196921 16.38668 
L 36.38129 16.26263 
L 36.565658 16.138579 
L 36.750027 16.014529 
L 36.934396 15.890478 
L 37.118765 15.766428 
L 37.303133 15.642377 
L 37.497559 15.434523 
L 37.691985 15.226669 
L 37.886411 15.018814 
L 38.080837 14.81096 
L 38.275263 14.603105 
L 38.469689 14.395251 
L 38.664115 14.187397 
L 38.858541 13.979542 
L 39.133386 13.815245 
L 39.40823 13.650948 
L 39.683075 13.486651 
L 39.95792 13.322355 
L 40.232765 13.158058 
L 40.50761 12.993761 
L 40.782455 12.829464 
L 41.0573 12.665167 
L 41.268462 12.567947 
L 41.479624 12.470728 
L 41.690787 12.373509 
L 41.901949 12.276289 
L 42.113111 12.17907 
L 42.324273 12.08185 
L 42.535436 11.984631 
L 42.746598 11.887411 
L 43.001329 11.736558 
L 43.256059 11.585706 
L 43.51079 11.434853 
L 43.76552 11.284 
L 44.020251 11.133147 
L 44.274981 10.982294 
L 44.529712 10.831441 
L 44.784443 10.680588 
L 45.03925 10.439224 
L 45.294057 10.197859 
L 45.548865 9.956495 
L 45.803672 9.71513 
L 46.081357 9.634865 
L 46.359043 9.554601 
L 46.636728 9.474336 
L 46.914414 9.394072 
L 47.240005 9.299992 
L 47.565597 9.205912 
L 47.891188 9.111833 
L 48.216779 9.017753 
L 48.446329 8.784381 
L 48.675878 8.551008 
L 48.829653 8.394789 
L 48.983428 8.23857 
L 49.137203 8.082351 
L 49.290978 7.926132 
L 49.444753 7.769913 
L 49.598528 7.613694 
L 49.752303 7.457475 
L 49.906078 7.301256 
L 50.206104 7.217794 
L 50.50613 7.134333 
" style="fill:none;stroke:#008000;stroke-linecap:square;stroke-width:0.4;"/>
   </g>
   <g id="line2d_25">
    <path clip-path="url(#pce5e88b5e1)" d="M 27.630742 53.242504 
L 27.584986 53.630012 
L 27.53923 54.017519 
L 27.493473 54.405027 
L 27.447717 54.792535 
L 27.125811 54.996679 
L 26.803904 55.200822 
L 26.481998 55.404966 
L 26.160092 55.60911 
L 25.912885 55.76433 
L 25.665678 55.91955 
L 25.418471 56.07477 
L 25.171264 56.22999 
L 24.918376 56.365058 
L 24.665488 56.500127 
L 24.4126 56.635195 
L 24.159712 56.770263 
L 24.024746 57.035833 
L 23.889781 57.301402 
" style="fill:none;stroke:#008000;stroke-linecap:square;stroke-width:0.4;"/>
   </g>
   <g id="line2d_26">
    <path clip-path="url(#pce5e88b5e1)" d="M 44.806246 41.722997 
L 44.742947 41.956669 
L 44.679648 42.190341 
L 44.61635 42.424013 
L 44.553051 42.657685 
L 44.489752 42.891357 
L 44.426453 43.125029 
L 44.363154 43.358701 
L 44.299856 43.592373 
L 44.236557 43.826045 
L 44.173258 44.059718 
L 44.109959 44.29339 
L 44.046661 44.527062 
L 43.983362 44.760734 
L 43.920063 44.994406 
L 43.856764 45.228078 
L 43.793465 45.46175 
L 43.709668 45.666251 
L 43.625871 45.870751 
L 43.542074 46.075252 
L 43.458277 46.279752 
L 43.37448 46.484253 
L 43.290683 46.688753 
L 43.206886 46.893254 
L 43.123089 47.097754 
L 43.039293 47.302255 
L 42.955496 47.506755 
L 42.871699 47.711256 
L 42.787902 47.915757 
L 42.704105 48.120257 
L 42.620308 48.324758 
L 42.536511 48.529258 
L 42.452714 48.733759 
L 42.385691 49.025417 
L 42.318669 49.317075 
L 42.251647 49.608734 
L 42.184625 49.900392 
L 42.117602 50.192051 
L 42.05058 50.483709 
L 41.983558 50.775367 
L 41.916536 51.067026 
L 41.926593 51.449224 
L 41.93665 51.831423 
L 41.946707 52.213622 
L 41.956764 52.59582 
L 41.966822 52.978019 
L 41.976879 53.360218 
L 41.986936 53.742416 
L 41.996993 54.124615 
L 41.946707 54.339177 
L 41.896421 54.553739 
L 41.846135 54.768301 
L 41.79585 54.982864 
L 41.745564 55.197426 
L 41.695278 55.411988 
L 41.644992 55.62655 
L 41.594706 55.841112 
L 41.386192 55.93739 
L 41.177679 56.033667 
L 40.969165 56.129945 
L 40.760652 56.226222 
L 40.552138 56.3225 
L 40.343624 56.418777 
L 40.135111 56.515055 
L 39.926597 56.611332 
L 39.714859 56.709066 
L 39.503121 56.806799 
L 39.124326 56.766552 
L 38.745532 56.726306 
L 38.366737 56.686059 
L 37.987942 56.645813 
L 37.609148 56.605567 
L 37.230353 56.56532 
L 36.851559 56.525074 
L 36.472764 56.484827 
L 36.144294 56.313851 
L 35.815823 56.142875 
L 35.487353 55.971899 
L 35.158882 55.800923 
L 34.830412 55.629947 
L 34.501942 55.458971 
L 34.173471 55.287995 
L 33.845001 55.117018 
L 33.623743 55.026507 
L 33.402485 54.935995 
L 33.181227 54.845483 
L 32.95997 54.754972 
L 32.738712 54.66446 
L 32.517454 54.573948 
L 32.296196 54.483436 
L 32.074938 54.392925 
L 31.806773 54.399604 
L 31.538607 54.406283 
L 31.270441 54.412962 
L 31.002275 54.419641 
" style="fill:none;stroke:#4169e1;stroke-linecap:square;stroke-width:0.4;"/>
   </g>
   <g id="line2d_27">
    <path clip-path="url(#pce5e88b5e1)" d="M 19.708146 43.735205 
L 20.019861 43.924863 
L 20.331575 44.114521 
L 20.64329 44.304179 
L 20.955005 44.493837 
L 21.26672 44.683495 
L 21.578435 44.873153 
L 21.890149 45.062811 
L 22.201864 45.252468 
L 22.513579 45.442126 
L 22.825294 45.631784 
L 23.137009 45.821442 
L 23.448724 46.0111 
L 23.760438 46.200758 
L 24.072153 46.390416 
L 24.383868 46.580074 
L 24.695583 46.769731 
L 24.94444 46.975959 
L 25.193298 47.182186 
L 25.442155 47.388414 
L 25.691013 47.594641 
L 25.93987 47.800869 
L 26.188728 48.007096 
L 26.437585 48.213323 
L 26.686443 48.419551 
L 26.928237 48.552307 
L 27.170031 48.685063 
L 27.411826 48.81782 
L 27.65362 48.950576 
L 27.895415 49.083332 
L 28.137209 49.216088 
L 28.379004 49.348844 
L 28.620798 49.481601 
" style="fill:none;stroke:#4169e1;stroke-linecap:square;stroke-width:0.4;"/>
   </g>
   <g id="line2d_28">
    <path clip-path="url(#pce5e88b5e1)" d="M 54.610685 28.00472 
L 54.858698 28.323209 
L 55.106711 28.641698 
L 55.354724 28.960188 
L 55.602737 29.278677 
L 55.85075 29.597167 
L 56.098763 29.915656 
L 56.346776 30.234145 
L 56.594789 30.552635 
L 56.732212 30.773904 
L 56.869634 30.995174 
L 57.007057 31.216444 
L 57.144479 31.437714 
L 57.281902 31.658984 
L 57.419324 31.880254 
L 57.556746 32.101524 
L 57.694169 32.322794 
L 57.831591 32.544064 
L 57.969014 32.765334 
L 58.106436 32.986603 
L 58.243859 33.207873 
L 58.381281 33.429143 
L 58.518704 33.650413 
L 58.656126 33.871683 
L 58.793549 34.092953 
L 58.880685 34.310869 
L 58.967822 34.528785 
L 59.054958 34.746701 
L 59.142095 34.964617 
L 59.229231 35.182533 
L 59.316368 35.400449 
L 59.403505 35.618365 
L 59.490641 35.836281 
L 59.577778 36.054197 
L 59.664914 36.272113 
L 59.752051 36.490029 
L 59.839188 36.707945 
L 59.926324 36.925861 
L 60.013461 37.143777 
L 60.100597 37.361693 
L 60.187734 37.579609 
L 60.371872 37.83693 
L 60.556011 38.09425 
L 60.740149 38.351571 
L 60.924288 38.608891 
L 61.108426 38.866212 
L 61.292564 39.123532 
L 61.476703 39.380853 
L 61.660841 39.638173 
" style="fill:none;stroke:#008000;stroke-linecap:square;stroke-width:0.4;"/>
   </g>
   <g id="line2d_29">
    <path clip-path="url(#pce5e88b5e1)" d="M 14.997703 27.961105 
L 15.235045 28.231085 
L 15.472386 28.501064 
L 15.709728 28.771044 
L 15.94707 29.041023 
L 16.184411 29.311003 
L 16.421753 29.580982 
L 16.659095 29.850962 
L 16.896436 30.120941 
L 17.133778 30.390921 
L 17.37112 30.6609 
L 17.608461 30.93088 
L 17.845803 31.200859 
L 18.083144 31.470839 
L 18.320486 31.740819 
L 18.557828 32.010798 
L 18.795169 32.280778 
L 19.053297 32.57245 
L 19.311425 32.864123 
L 19.569553 33.155796 
L 19.82768 33.447468 
L 20.085808 33.739141 
L 20.343936 34.030814 
L 20.602063 34.322486 
L 20.860191 34.614159 
L 21.118319 34.905832 
L 21.376447 35.197504 
L 21.634574 35.489177 
L 21.892702 35.78085 
L 22.15083 36.072522 
L 22.408958 36.364195 
L 22.667085 36.655867 
L 22.925213 36.94754 
L 23.170107 37.22701 
L 23.415001 37.506481 
L 23.659895 37.785951 
L 23.90479 38.065421 
L 24.149684 38.344892 
L 24.394578 38.624362 
L 24.639472 38.903832 
L 24.884366 39.183302 
L 25.12926 39.462773 
L 25.374154 39.742243 
L 25.619048 40.021713 
L 25.863942 40.301183 
L 26.108836 40.580654 
L 26.353731 40.860124 
L 26.598625 41.139594 
L 26.843519 41.419065 
L 27.088413 41.698535 
L 27.333307 41.978005 
L 27.578201 42.257475 
L 27.823095 42.536946 
L 28.067989 42.816416 
L 28.312883 43.095886 
L 28.557778 43.375356 
L 28.802672 43.654827 
L 29.047566 43.934297 
L 29.29246 44.213767 
L 29.537354 44.493238 
L 29.782248 44.772708 
L 30.027142 45.052178 
L 30.272036 45.331648 
L 30.51693 45.611119 
L 30.761825 45.890589 
L 30.790326 46.118567 
L 30.818828 46.346544 
L 30.84733 46.574522 
L 30.875831 46.802499 
L 30.904333 47.030477 
L 30.932835 47.258455 
L 30.961337 47.486432 
L 30.989838 47.71441 
L 31.01834 47.942388 
L 31.046842 48.170365 
L 31.075344 48.398343 
L 31.103845 48.626321 
L 31.132347 48.854298 
L 31.160849 49.082276 
L 31.18935 49.310254 
L 31.217852 49.538231 
L 31.26476 49.816503 
L 31.311668 50.094774 
L 31.358576 50.373045 
L 31.405484 50.651317 
L 31.452392 50.929588 
L 31.499299 51.20786 
L 31.546207 51.486131 
L 31.593115 51.764403 
" style="fill:none;stroke:#ff0000;stroke-linecap:square;stroke-width:0.4;"/>
   </g>
   <g id="line2d_30">
    <path clip-path="url(#pce5e88b5e1)" d="M 12.151907 26.910016 
L 12.285644 27.173873 
L 12.419382 27.43773 
L 12.553119 27.701587 
L 12.686856 27.965444 
L 12.85161 28.159826 
L 13.016363 28.354207 
L 13.181117 28.548589 
L 13.34587 28.742971 
L 13.522446 29.028635 
L 13.699023 29.3143 
L 13.875599 29.599964 
L 14.052175 29.885628 
L 14.145838 30.081209 
L 14.2395 30.276789 
L 14.333162 30.47237 
L 14.426824 30.667951 
L 14.517416 30.940371 
" style="fill:none;stroke:#4169e1;stroke-linecap:square;stroke-width:0.4;"/>
   </g>
   <g id="line2d_31">
    <path clip-path="url(#pce5e88b5e1)" d="M 10.537538 40.982005 
L 10.651929 41.34017 
L 10.76632 41.698335 
L 10.789045 41.911499 
L 10.811769 42.124662 
L 10.860404 42.340394 
L 10.90904 42.556127 
L 10.957675 42.771859 
L 11.00631 42.987592 
L 11.054946 43.203324 
L 11.103581 43.419057 
L 11.152216 43.634789 
L 11.200851 43.850522 
L 11.328466 44.095754 
L 11.456081 44.340986 
L 11.583696 44.586218 
L 11.71131 44.831451 
L 11.838925 45.076683 
L 11.96654 45.321915 
L 12.094155 45.567147 
L 12.22177 45.812379 
L 12.349384 46.057612 
L 12.476999 46.302844 
L 12.604614 46.548076 
L 12.732229 46.793308 
L 12.859844 47.038541 
L 12.987458 47.283773 
L 13.115073 47.529005 
L 13.242688 47.774237 
L 13.381915 48.045187 
L 13.521141 48.316137 
L 13.660368 48.587087 
L 13.799594 48.858037 
L 13.938821 49.128987 
L 14.078048 49.399937 
L 14.217274 49.670887 
L 14.356501 49.941837 
L 14.495727 50.212788 
L 14.634954 50.483738 
L 14.774181 50.754688 
L 14.913407 51.025638 
L 15.052634 51.296588 
L 15.19186 51.567538 
L 15.331087 51.838488 
L 15.470314 52.109438 
L 15.615778 52.383485 
L 15.761242 52.657532 
L 15.906707 52.931579 
L 16.052171 53.205626 
L 16.197635 53.479673 
L 16.3431 53.75372 
L 16.488564 54.027767 
L 16.634028 54.301814 
L 16.779493 54.575861 
L 16.924957 54.849908 
L 17.070422 55.123955 
L 17.215886 55.398002 
L 17.36135 55.672048 
L 17.506815 55.946095 
L 17.652279 56.220142 
L 17.797743 56.494189 
L 17.915819 56.72642 
L 18.033895 56.958651 
L 18.151971 57.190881 
L 18.270047 57.423112 
L 18.360139 57.61835 
L 18.450231 57.813588 
L 18.540324 58.008826 
L 18.630416 58.204065 
L 18.720508 58.399303 
L 18.810601 58.594541 
L 18.900693 58.789779 
L 18.990785 58.985017 
" style="fill:none;stroke:#ff0000;stroke-linecap:square;stroke-width:0.4;"/>
   </g>
   <g id="line2d_32">
    <path clip-path="url(#pce5e88b5e1)" d="M 29.55005 29.348324 
L 29.614501 29.647574 
L 29.678951 29.946825 
L 29.743401 30.246076 
L 29.807852 30.545327 
L 29.872302 30.844578 
L 29.936752 31.143829 
L 30.001203 31.44308 
L 30.065653 31.742331 
L 30.18062 31.947874 
L 30.295586 32.153416 
L 30.410553 32.358958 
L 30.525519 32.564501 
L 30.640486 32.770043 
L 30.755452 32.975586 
L 30.870419 33.181128 
L 30.985386 33.38667 
L 31.100352 33.592213 
L 31.215319 33.797755 
L 31.330285 34.003298 
L 31.445252 34.20884 
L 31.560218 34.414382 
L 31.675185 34.619925 
L 31.790151 34.825467 
L 31.905118 35.031009 
L 31.941047 35.263854 
L 31.976977 35.496698 
L 32.012906 35.729542 
L 32.048836 35.962387 
L 32.084765 36.195231 
L 32.120695 36.428075 
L 32.156624 36.66092 
L 32.192554 36.893764 
L 32.228483 37.126608 
L 32.264412 37.359453 
L 32.300342 37.592297 
L 32.336271 37.825141 
L 32.372201 38.057986 
L 32.40813 38.29083 
L 32.44406 38.523674 
L 32.479989 38.756519 
L 32.517339 38.977874 
L 32.554689 39.19923 
L 32.592038 39.420585 
L 32.629388 39.641941 
L 32.666738 39.863296 
L 32.704087 40.084652 
L 32.741437 40.306007 
L 32.778787 40.527363 
L 33.00872 40.655281 
L 33.238653 40.783199 
L 33.468586 40.911117 
L 33.698519 41.039035 
L 33.928452 41.166953 
L 34.158386 41.294871 
L 34.388319 41.422789 
L 34.618252 41.550708 
L 34.848185 41.678626 
L 35.078118 41.806544 
L 35.308051 41.934462 
L 35.537984 42.06238 
L 35.767917 42.190298 
L 35.99785 42.318216 
L 36.227783 42.446134 
L 36.457717 42.574052 
L 36.635598 42.856063 
L 36.81348 43.138074 
L 36.991361 43.420084 
L 37.169242 43.702095 
" style="fill:none;stroke:#ff0000;stroke-linecap:square;stroke-width:0.4;"/>
   </g>
   <g id="line2d_33">
    <path clip-path="url(#pce5e88b5e1)" d="M 20.810596 50.818582 
L 20.959208 51.149089 
L 21.10782 51.479595 
L 21.256432 51.810101 
L 21.405044 52.140607 
L 21.553656 52.471113 
L 21.702268 52.80162 
L 21.85088 53.132126 
L 21.999492 53.462632 
L 22.148104 53.793138 
L 22.296716 54.123644 
L 22.445329 54.454151 
L 22.593941 54.784657 
L 22.742553 55.115163 
L 22.891165 55.445669 
L 23.039777 55.776176 
L 23.188389 56.106682 
L 23.23092 56.415366 
L 23.273452 56.724051 
L 23.315984 57.032736 
L 23.358516 57.34142 
L 23.401048 57.650105 
L 23.44358 57.95879 
L 23.486112 58.267474 
L 23.528644 58.576159 
L 23.571175 58.884843 
L 23.613707 59.193528 
L 23.656239 59.502213 
L 23.698771 59.810897 
L 23.741303 60.119582 
L 23.783835 60.428267 
L 23.826367 60.736951 
L 23.868898 61.045636 
" style="fill:none;stroke:#000000;stroke-linecap:square;stroke-width:0.4;"/>
   </g>
   <g id="line2d_34">
    <path clip-path="url(#pce5e88b5e1)" d="M 12.326948 65.229441 
L 12.574155 65.340818 
L 12.821361 65.452195 
L 13.068568 65.563572 
L 13.315775 65.674949 
L 13.562982 65.786326 
L 13.810189 65.897703 
L 14.057396 66.00908 
L 14.304603 66.120458 
L 14.55822 66.220018 
L 14.811837 66.319578 
L 15.065455 66.419138 
L 15.319072 66.518698 
L 15.57269 66.618258 
L 15.826307 66.717818 
L 16.079924 66.817378 
L 16.333542 66.916938 
L 16.565855 66.950134 
L 16.798168 66.98333 
L 17.030481 67.016526 
L 17.262794 67.049723 
L 17.495107 67.082919 
L 17.72742 67.116115 
L 17.959733 67.149311 
L 18.192046 67.182507 
L 18.509653 67.253581 
L 18.82726 67.324654 
L 19.144867 67.395728 
L 19.462474 67.466802 
L 19.673829 67.504536 
L 19.885183 67.542271 
L 20.096537 67.580005 
L 20.307891 67.61774 
L 20.519245 67.655475 
L 20.7306 67.693209 
L 20.941954 67.730944 
L 21.153308 67.768679 
" style="fill:none;stroke:#4169e1;stroke-linecap:square;stroke-width:0.4;"/>
   </g>
   <g id="line2d_35">
    <path clip-path="url(#pce5e88b5e1)" d="M 8.980903 52.0455 
L 8.927258 52.295256 
L 8.873614 52.545013 
L 8.819969 52.794769 
L 8.766324 53.044526 
L 8.71268 53.294282 
L 8.659035 53.544038 
L 8.60539 53.793795 
L 8.551746 54.043551 
L 8.498101 54.293308 
L 8.444456 54.543064 
L 8.390812 54.79282 
L 8.337167 55.042577 
L 8.283522 55.292333 
L 8.229878 55.54209 
L 8.176233 55.791846 
L 8.122588 56.041602 
L 8.022017 56.423801 
L 7.921445 56.806 
L 7.820873 57.188198 
L 7.720301 57.570397 
L 7.737076 57.825206 
L 7.753851 58.080014 
L 7.770626 58.334823 
L 7.7874 58.589631 
L 7.804175 58.84444 
L 7.82095 59.099249 
L 7.837725 59.354057 
L 7.854499 59.608866 
L 8.1361 59.809927 
L 8.417701 60.010988 
L 8.673507 60.150509 
" style="fill:none;stroke:#000000;stroke-linecap:square;stroke-width:0.4;"/>
   </g>
   <g id="line2d_36">
    <path clip-path="url(#pce5e88b5e1)" d="M 24.819033 52.394188 
L 24.781146 52.650881 
L 24.743258 52.907573 
L 24.705371 53.164266 
L 24.667484 53.420958 
L 24.629597 53.677651 
L 24.59171 53.934343 
L 24.553823 54.191036 
L 24.515936 54.447728 
L 24.444077 54.715068 
L 24.372218 54.982407 
L 24.300359 55.249746 
L 24.2285 55.517085 
L 24.156641 55.784425 
L 24.084782 56.051764 
L 24.012923 56.319103 
L 23.941064 56.586442 
L 23.915422 56.943922 
L 23.889781 57.301402 
" style="fill:none;stroke:#4169e1;stroke-linecap:square;stroke-width:0.4;"/>
   </g>
   <g id="line2d_37">
    <path clip-path="url(#pce5e88b5e1)" d="M 10.992338 48.370913 
L 10.834763 48.562012 
L 10.677187 48.753111 
L 10.519612 48.944211 
L 10.362037 49.13531 
L 10.204462 49.326409 
L 10.046887 49.517509 
L 9.889311 49.708608 
L 9.731736 49.899707 
L 9.637882 50.167931 
L 9.544028 50.436155 
L 9.450174 50.704379 
L 9.35632 50.972604 
L 9.262465 51.240828 
L 9.168611 51.509052 
L 9.074757 51.777276 
L 8.980903 52.0455 
L 9.138478 52.320403 
L 9.296053 52.595307 
L 9.453628 52.87021 
L 9.611204 53.145113 
L 9.768779 53.420016 
L 9.926354 53.69492 
L 10.083929 53.969823 
L 10.241504 54.244726 
L 10.502991 54.51963 
L 10.764477 54.794533 
L 11.025964 55.069436 
L 11.28745 55.34434 
L 11.548937 55.619243 
L 11.810424 55.894146 
L 12.07191 56.169049 
L 12.333397 56.443953 
L 12.611619 56.594806 
L 12.889842 56.745658 
L 13.168065 56.896511 
L 13.446288 57.047364 
L 13.724511 57.198217 
L 14.002734 57.34907 
L 14.280957 57.499923 
L 14.55918 57.650776 
L 14.743587 57.771487 
L 14.927994 57.892197 
L 15.112401 58.012908 
L 15.296808 58.133619 
L 15.481215 58.25433 
L 15.665622 58.375041 
L 15.85003 58.495752 
L 16.034437 58.616462 
L 16.220686 58.786354 
L 16.406936 58.956245 
L 16.593186 59.126137 
L 16.779435 59.296028 
" style="fill:none;stroke:#000000;stroke-linecap:square;stroke-width:0.4;"/>
   </g>
   <g id="line2d_38">
    <path clip-path="url(#pce5e88b5e1)" d="M 43.206311 21.956219 
L 43.435284 22.249619 
L 43.664258 22.543018 
L 43.893231 22.836418 
L 44.122204 23.129817 
L 44.351178 23.423217 
L 44.580151 23.716616 
L 44.809125 24.010016 
L 45.038098 24.303416 
L 45.390023 24.497883 
L 45.741947 24.69235 
L 46.093871 24.886818 
L 46.445796 25.081285 
L 46.79772 25.275753 
L 47.149644 25.47022 
L 47.501569 25.664688 
L 47.853493 25.859155 
L 48.193709 25.966436 
L 48.533926 26.073717 
L 48.874142 26.180998 
L 49.214359 26.28828 
L 49.554576 26.395561 
L 49.894792 26.502842 
L 50.235009 26.610123 
L 50.575225 26.717404 
L 50.915442 26.824685 
L 51.255658 26.931966 
L 51.595875 27.039247 
L 51.936091 27.146528 
L 52.276308 27.253809 
L 52.616524 27.36109 
L 52.956741 27.468371 
L 53.296957 27.575652 
L 53.625389 27.682919 
L 53.953821 27.790186 
L 54.282253 27.897453 
L 54.610685 28.00472 
" style="fill:none;stroke:#4169e1;stroke-linecap:square;stroke-width:0.4;"/>
   </g>
   <g id="line2d_39">
    <path clip-path="url(#pce5e88b5e1)" d="M 10.076905 41.364946 
L 10.164502 41.717688 
L 10.252099 42.070429 
L 10.339696 42.423171 
L 10.427293 42.775913 
L 10.514891 43.128654 
L 10.602488 43.481396 
L 10.690085 43.834138 
L 10.777682 44.186879 
L 10.757568 44.448396 
L 10.737454 44.709912 
L 10.717339 44.971428 
L 10.697225 45.232945 
L 10.734114 45.625191 
L 10.771003 46.017437 
L 10.807892 46.409683 
L 10.844781 46.801929 
L 10.88167 47.194175 
L 10.918559 47.586421 
L 10.955449 47.978667 
L 10.992338 48.370913 
L 11.099627 48.766527 
L 11.206916 49.162141 
L 11.314206 49.557755 
L 11.421495 49.953369 
L 11.528784 50.348983 
L 11.636074 50.744597 
L 11.743363 51.140212 
L 11.850652 51.535826 
L 12.041739 51.884486 
L 12.232825 52.233146 
L 12.423911 52.581805 
L 12.614997 52.930465 
L 12.806084 53.279125 
L 12.99717 53.627785 
L 13.188256 53.976445 
L 13.379343 54.325105 
L 13.553654 54.489388 
L 13.727966 54.65367 
L 13.902277 54.817953 
L 14.076589 54.982236 
L 14.2509 55.146518 
L 14.425212 55.310801 
L 14.599524 55.475083 
L 14.773835 55.639366 
L 14.948147 55.803649 
L 15.122458 55.967931 
L 15.29677 56.132214 
L 15.471081 56.296497 
L 15.645393 56.460779 
L 15.819704 56.625062 
L 15.994016 56.789344 
L 16.168328 56.953627 
L 16.328935 57.226618 
L 16.489543 57.499609 
L 16.650151 57.7726 
L 16.810758 58.045591 
L 16.971366 58.318581 
L 17.131974 58.591572 
L 17.292581 58.864563 
L 17.453189 59.137554 
" style="fill:none;stroke:#ff0000;stroke-linecap:square;stroke-width:0.4;"/>
   </g>
   <g id="line2d_40">
    <path clip-path="url(#pce5e88b5e1)" d="M 14.810072 30.10667 
L 14.990563 30.407291 
L 15.171055 30.707912 
L 15.351547 31.008533 
L 15.532039 31.309154 
L 15.71253 31.609775 
L 15.893022 31.910396 
L 16.073514 32.211017 
L 16.254005 32.511638 
L 16.434497 32.812259 
L 16.614989 33.11288 
L 16.795481 33.413501 
L 16.975972 33.714122 
L 17.156464 34.014744 
L 17.336956 34.315365 
L 17.517448 34.615986 
L 17.697939 34.916607 
L 17.84135 35.095589 
L 17.984761 35.274572 
L 18.128171 35.453554 
L 18.271582 35.632537 
L 18.414993 35.81152 
L 18.558403 35.990502 
L 18.701814 36.169485 
L 18.845225 36.348467 
L 18.988636 36.52745 
L 19.132046 36.706432 
L 19.275457 36.885415 
L 19.418868 37.064398 
L 19.562278 37.24338 
L 19.705689 37.422363 
L 19.8491 37.601345 
L 19.99251 37.780328 
L 20.135921 37.95931 
L 20.279332 38.138293 
L 20.422743 38.317276 
L 20.566153 38.496258 
L 20.709564 38.675241 
L 20.852975 38.854223 
L 20.996385 39.033206 
L 21.139796 39.212188 
L 21.283207 39.391171 
L 21.426617 39.570154 
L 21.570028 39.749136 
L 21.713439 39.928119 
L 21.856849 40.107101 
L 22.00026 40.286084 
L 22.143671 40.465066 
L 22.287082 40.644049 
L 22.396482 40.824273 
L 22.505883 41.004497 
L 22.615283 41.184722 
L 22.724684 41.364946 
L 22.834084 41.54517 
L 22.943485 41.725394 
L 23.052885 41.905619 
L 23.162286 42.085843 
L 23.271687 42.266067 
L 23.381087 42.446291 
L 23.490488 42.626515 
L 23.599888 42.80674 
L 23.709289 42.986964 
L 23.818689 43.167188 
L 23.92809 43.347412 
L 24.03749 43.527636 
L 24.149885 43.724302 
L 24.26228 43.920967 
L 24.374675 44.117632 
L 24.487069 44.314298 
L 24.599464 44.510963 
L 24.711859 44.707628 
L 24.824253 44.904294 
L 24.936648 45.100959 
L 25.124356 45.38257 
L 25.312065 45.664181 
L 25.499773 45.945792 
L 25.687481 46.227403 
L 25.87519 46.509014 
L 26.062898 46.790625 
L 26.250606 47.072236 
L 26.438315 47.353847 
L 26.711125 47.619817 
L 26.983935 47.885786 
L 27.256746 48.151755 
L 27.529556 48.417724 
L 27.802367 48.683693 
L 28.075177 48.949662 
L 28.347988 49.215632 
L 28.620798 49.481601 
" style="fill:none;stroke:#000000;stroke-linecap:square;stroke-width:0.4;"/>
   </g>
   <g id="line2d_41">
    <path clip-path="url(#pce5e88b5e1)" d="M 48.216779 9.017753 
L 48.152483 9.40332 
L 48.088186 9.788887 
L 48.023889 10.174453 
L 47.959592 10.56002 
L 47.895295 10.945587 
L 47.830999 11.331154 
L 47.766702 11.716721 
L 47.702405 12.102287 
L 47.633674 12.393874 
L 47.564944 12.685461 
L 47.496214 12.977048 
L 47.427483 13.268635 
L 47.358753 13.560223 
L 47.290022 13.85181 
L 47.221292 14.143397 
L 47.152562 14.434984 
L 47.083831 14.726571 
L 47.015101 15.018158 
L 46.94637 15.309745 
L 46.87764 15.601332 
L 46.808909 15.892919 
L 46.740179 16.184506 
L 46.671449 16.476093 
L 46.602718 16.76768 
L 46.426142 17.041484 
L 46.249565 17.315289 
L 46.072989 17.589093 
L 45.896413 17.862897 
L 45.719836 18.136702 
L 45.54326 18.410506 
L 45.366684 18.68431 
L 45.190107 18.958115 
L 45.013531 19.231919 
L 44.836955 19.505724 
L 44.660378 19.779528 
L 44.483802 20.053332 
L 44.307226 20.327137 
L 44.130649 20.600941 
L 43.954073 20.874745 
L 43.777497 21.14855 
L 43.6347 21.350467 
L 43.491904 21.552384 
L 43.349107 21.754302 
L 43.206311 21.956219 
L 43.078485 22.136872 
L 42.950659 22.317524 
L 42.822833 22.498176 
L 42.695007 22.678829 
L 42.567181 22.859481 
L 42.439355 23.040133 
L 42.311529 23.220786 
L 42.183703 23.401438 
L 42.055877 23.58209 
L 41.928052 23.762743 
L 41.800226 23.943395 
L 41.6724 24.124048 
L 41.544574 24.3047 
L 41.416748 24.485352 
L 41.288922 24.666005 
L 41.161096 24.846657 
L 41.027627 25.030192 
L 40.894159 25.213728 
L 40.76069 25.397263 
L 40.627221 25.580798 
L 40.493753 25.764333 
L 40.360284 25.947869 
L 40.226815 26.131404 
L 40.093347 26.314939 
L 39.923411 26.548626 
L 39.753476 26.782312 
L 39.58354 27.015998 
L 39.413604 27.249685 
L 39.243669 27.483371 
L 39.073733 27.717057 
L 38.903798 27.950744 
L 38.733862 28.18443 
L 38.511069 28.461817 
L 38.288276 28.739203 
L 38.065483 29.01659 
L 37.842689 29.293977 
L 37.619896 29.571363 
L 37.397103 29.84875 
L 37.174309 30.126136 
L 36.951516 30.403523 
" style="fill:none;stroke:#4169e1;stroke-linecap:square;stroke-width:0.4;"/>
   </g>
   <g id="line2d_42">
    <path clip-path="url(#pce5e88b5e1)" d="M 50.50613 7.134333 
L 50.629762 7.471525 
L 50.753395 7.808718 
L 50.877027 8.145911 
L 51.000659 8.483103 
L 51.124291 8.820296 
L 51.247923 9.157488 
L 51.371556 9.494681 
L 51.495188 9.831873 
L 51.61882 10.169066 
L 51.742452 10.506258 
L 51.866085 10.843451 
L 51.989717 11.180643 
L 52.113349 11.517836 
L 52.236981 11.855029 
L 52.360613 12.192221 
L 52.484246 12.529414 
L 52.607878 12.866606 
L 52.73151 13.203799 
L 52.855142 13.540991 
L 52.978775 13.878184 
L 53.102407 14.215376 
L 53.226039 14.552569 
L 53.349671 14.889761 
L 53.473303 15.226954 
L 53.596936 15.564147 
L 53.720568 15.901339 
L 53.8442 16.238532 
L 53.967832 16.575724 
L 54.091465 16.912917 
L 54.215097 17.250109 
L 54.338729 17.587302 
L 54.462361 17.924494 
L 54.574838 18.263771 
L 54.687314 18.603047 
L 54.79979 18.942323 
L 54.912266 19.281599 
L 55.024743 19.620876 
L 55.137219 19.960152 
L 55.249695 20.299428 
L 55.362171 20.638704 
L 55.474648 20.97798 
L 55.587124 21.317257 
L 55.6996 21.656533 
L 55.812076 21.995809 
L 55.924553 22.335085 
L 56.037029 22.674362 
L 56.149505 23.013638 
L 56.261981 23.352914 
L 56.374458 23.69219 
L 56.486934 24.031466 
L 56.59941 24.370743 
L 56.711886 24.710019 
L 56.824363 25.049295 
L 56.936839 25.388571 
L 57.049315 25.727848 
L 57.161791 26.067124 
L 57.274268 26.4064 
L 57.386744 26.745676 
L 57.49922 27.084953 
L 57.611696 27.424229 
L 57.724173 27.763505 
L 57.836649 28.102781 
L 57.949125 28.442057 
L 58.061601 28.781334 
L 58.174078 29.12061 
L 58.286554 29.459886 
L 58.39903 29.799162 
L 58.511506 30.138439 
L 58.623983 30.477715 
L 58.736459 30.816991 
L 58.848935 31.156267 
L 58.961411 31.495543 
L 59.073887 31.83482 
L 59.186364 32.174096 
L 59.29884 32.513372 
L 59.411316 32.852648 
L 59.523792 33.191925 
L 59.636269 33.531201 
L 59.748745 33.870477 
L 59.861221 34.209753 
L 59.973697 34.54903 
L 60.086174 34.888306 
L 60.19865 35.227582 
L 60.311126 35.566858 
L 60.423602 35.906134 
L 60.536079 36.245411 
L 60.648555 36.584687 
L 60.761031 36.923963 
L 60.873507 37.263239 
L 60.985984 37.602516 
L 61.09846 37.941792 
L 61.210936 38.281068 
L 61.323412 38.620344 
L 61.435889 38.95962 
L 61.548365 39.298897 
L 61.660841 39.638173 
" style="fill:none;stroke:#000000;stroke-linecap:square;stroke-width:0.4;"/>
   </g>
   <g id="line2d_43">
    <path clip-path="url(#pce5e88b5e1)" d="M 50.50613 7.134333 
L 52.745502 6.049077 
L 54.473109 4.582536 
L 56.956233 3.340547 
L 58.979338 3.524597 
L 61.5976 6.862127 
L 62.996948 10.412164 
L 63.419388 13.485253 
L 63.19813 17.702254 
L 63.761332 20.358463 
L 65.617917 23.014672 
L 68.681209 26.383672 
L 68.727273 27.993531 
L 65.347678 35.341107 
L 64.376355 36.933754 
L 63.853459 38.664266 
L 62.74978 39.722205 
L 61.660841 39.638173 
L 61.660841 39.638173 
" style="fill:none;stroke:#4169e1;stroke-linecap:square;stroke-width:0.4;"/>
   </g>
   <g id="line2d_44">
    <path clip-path="url(#pce5e88b5e1)" d="M 18.598632 25.170456 
L 18.840024 25.218138 
L 19.081415 25.26582 
L 19.322806 25.313502 
L 19.564198 25.361184 
L 19.805589 25.408866 
L 20.04698 25.456548 
L 20.288372 25.50423 
L 20.529763 25.551912 
L 20.771155 25.599594 
L 21.012546 25.647276 
L 21.253937 25.694958 
L 21.495329 25.74264 
L 21.73672 25.790322 
L 21.978111 25.838004 
L 22.219503 25.885687 
L 22.460894 25.933369 
L 22.674302 25.998419 
L 22.88771 26.06347 
L 23.101118 26.128521 
L 23.314526 26.193572 
L 23.527933 26.258623 
L 23.741341 26.323674 
L 23.954749 26.388724 
L 24.168157 26.453775 
L 24.381565 26.518826 
L 24.594973 26.583877 
L 24.808381 26.648928 
L 25.021788 26.713979 
L 25.235196 26.779029 
L 25.448604 26.84408 
L 25.662012 26.909131 
L 25.87542 26.974182 
L 26.249378 27.14493 
L 26.623336 27.315677 
L 26.997294 27.486425 
L 27.371252 27.657173 
L 27.74521 27.827921 
L 28.119168 27.998668 
L 28.493126 28.169416 
L 28.867084 28.340164 
L 29.037825 28.592204 
L 29.208567 28.844244 
L 29.379309 29.096284 
L 29.55005 29.348324 
L 29.468748 29.734518 
L 29.387446 30.120713 
L 29.306145 30.506908 
L 29.224843 30.893103 
L 29.143541 31.279297 
L 29.062239 31.665492 
L 28.980937 32.051687 
L 28.899635 32.437882 
L 28.852881 32.651316 
L 28.806126 32.864751 
L 28.759372 33.078186 
L 28.712618 33.29162 
L 28.665863 33.505055 
L 28.619109 33.71849 
L 28.572355 33.931924 
L 28.5256 34.145359 
L 28.478846 34.358794 
L 28.432092 34.572228 
L 28.385337 34.785663 
L 28.338583 34.999098 
L 28.291829 35.212532 
L 28.245074 35.425967 
L 28.19832 35.639402 
L 28.151566 35.852836 
L 28.140817 36.183371 
L 28.130069 36.513906 
L 28.119321 36.844441 
L 28.108573 37.174975 
L 28.101779 37.383715 
L 28.094984 37.592454 
L 28.08819 37.801193 
L 28.081396 38.009932 
L 28.074601 38.218672 
L 28.067807 38.427411 
L 28.061013 38.63615 
L 28.054218 38.84489 
L 28.230219 39.033406 
L 28.406219 39.221922 
L 28.58222 39.410438 
L 28.758221 39.598954 
L 28.934221 39.78747 
L 29.110222 39.975986 
L 29.286222 40.164502 
L 29.462223 40.353019 
L 29.638223 40.541535 
L 29.814224 40.730051 
L 29.990224 40.918567 
L 30.166225 41.107083 
L 30.342225 41.295599 
L 30.518226 41.484115 
L 30.694227 41.672631 
L 30.870227 41.861148 
L 31.111676 42.118325 
L 31.353125 42.375503 
L 31.594574 42.632681 
L 31.836023 42.889859 
L 32.077472 43.147036 
L 32.318921 43.404214 
L 32.56037 43.661392 
L 32.801819 43.918569 
L 32.950104 44.070964 
L 33.09839 44.223358 
L 33.246676 44.375752 
L 33.394962 44.528146 
L 33.543247 44.680541 
L 33.691533 44.832935 
L 33.839819 44.985329 
L 33.988105 45.137723 
L 34.13639 45.290117 
L 34.284676 45.442512 
L 34.432962 45.594906 
L 34.581248 45.7473 
L 34.729533 45.899694 
L 34.877819 46.052089 
L 35.026105 46.204483 
L 35.17439 46.356877 
" style="fill:none;stroke:#000000;stroke-linecap:square;stroke-width:0.4;"/>
   </g>
   <g id="line2d_45">
    <path clip-path="url(#pce5e88b5e1)" d="M 13.242688 47.774237 
L 13.574229 47.925889 
L 13.905771 48.077542 
L 14.237312 48.229194 
L 14.568853 48.380846 
L 14.900394 48.532498 
L 15.231936 48.68415 
L 15.563477 48.835802 
L 15.895018 48.987454 
L 16.226559 49.139106 
L 16.558101 49.290758 
L 16.889642 49.44241 
L 17.221183 49.594062 
L 17.552724 49.745714 
L 17.884266 49.897367 
L 18.215807 50.049019 
L 18.547348 50.200671 
L 18.830254 50.27791 
L 19.11316 50.355149 
L 19.396066 50.432388 
L 19.678972 50.509627 
L 19.961878 50.586866 
L 20.244784 50.664104 
L 20.52769 50.741343 
L 20.810596 50.818582 
L 21.156916 50.962785 
L 21.503236 51.106987 
L 21.849556 51.251189 
L 22.195876 51.395391 
L 22.379554 51.503828 
L 22.563232 51.612265 
L 22.746909 51.720702 
L 22.930587 51.82914 
L 23.114265 51.937577 
L 23.297943 52.046014 
L 23.48162 52.154451 
L 23.665298 52.262888 
L 23.953732 52.295713 
L 24.242165 52.328538 
L 24.530599 52.361363 
L 24.819033 52.394188 
L 25.133876 52.577096 
L 25.448719 52.760003 
L 25.763563 52.94291 
L 26.078406 53.125818 
L 26.486374 53.195236 
L 26.894342 53.264654 
L 27.262542 53.253579 
L 27.630742 53.242504 
L 27.754346 53.474449 
L 27.877949 53.706394 
L 28.001553 53.938339 
L 28.125156 54.170285 
L 28.248759 54.40223 
L 28.372363 54.634175 
L 28.495966 54.86612 
L 28.61957 55.098065 
L 28.690661 55.33041 
L 28.761752 55.562755 
L 28.832843 55.7951 
L 28.903934 56.027445 
L 28.975026 56.25979 
L 29.046117 56.492134 
L 29.117208 56.724479 
L 29.188299 56.956824 
" style="fill:none;stroke:#4169e1;stroke-linecap:square;stroke-width:0.4;"/>
   </g>
   <g id="line2d_46">
    <path clip-path="url(#pce5e88b5e1)" d="M 10.076905 41.364946 
L 10.307222 41.173475 
L 10.537538 40.982005 
L 10.682331 41.326469 
L 10.827124 41.670933 
L 11.023891 42.006977 
L 11.220659 42.34302 
L 11.417426 42.679064 
L 11.614193 43.015108 
L 11.810961 43.351151 
L 12.007728 43.687195 
L 12.204496 44.023239 
L 12.401263 44.359282 
L 12.637856 44.476775 
L 12.87445 44.594268 
L 13.111043 44.71176 
L 13.347636 44.829253 
L 13.584229 44.946745 
L 13.820822 45.064238 
L 14.057415 45.18173 
L 14.294008 45.299223 
L 14.530601 45.416715 
L 14.767194 45.534208 
L 15.003787 45.6517 
L 15.240381 45.769193 
L 15.476974 45.886686 
L 15.713567 46.004178 
L 15.95016 46.121671 
L 16.186753 46.239163 
L 16.423346 46.356656 
L 16.659939 46.474148 
L 16.896532 46.591641 
L 17.133125 46.709133 
L 17.369718 46.826626 
L 17.606312 46.944118 
L 17.842905 47.061611 
L 18.079498 47.179104 
L 18.316091 47.296596 
L 18.552684 47.414089 
L 18.789277 47.531581 
L 19.02587 47.649074 
L 19.262463 47.766566 
L 19.499056 47.884059 
L 19.735649 48.001551 
L 19.972243 48.119044 
L 20.178472 48.228095 
L 20.384702 48.337145 
L 20.590931 48.446196 
L 20.797161 48.555247 
L 21.003391 48.664298 
L 21.20962 48.773349 
L 21.41585 48.882399 
L 21.62208 48.99145 
L 21.828309 49.100501 
L 22.034539 49.209552 
L 22.240769 49.318603 
L 22.446998 49.427653 
L 22.653228 49.536704 
L 22.859458 49.645755 
L 23.065687 49.754806 
L 23.271917 49.863856 
L 23.584841 50.015594 
L 23.897765 50.167332 
L 24.210689 50.31907 
L 24.523613 50.470807 
L 24.793813 50.518218 
L 25.064013 50.565629 
L 25.334213 50.61304 
L 25.604414 50.660451 
L 25.874614 50.707862 
L 26.144814 50.755273 
L 26.415014 50.802684 
L 26.685214 50.850094 
L 26.846436 51.106073 
L 27.007658 51.362052 
L 27.16888 51.618031 
L 27.330102 51.87401 
L 27.405262 52.216134 
L 27.480422 52.558257 
L 27.555582 52.90038 
L 27.630742 53.242504 
" style="fill:none;stroke:#000000;stroke-linecap:square;stroke-width:0.4;"/>
   </g>
   <g id="line2d_47">
    <path clip-path="url(#pce5e88b5e1)" d="M 26.078406 53.125818 
L 26.055758 53.45915 
L 26.03311 53.792482 
L 26.010462 54.125814 
L 25.987815 54.459146 
L 25.864211 54.766732 
L 25.740608 55.074317 
L 25.617004 55.381903 
L 25.493401 55.689489 
L 25.332332 55.959739 
L 25.171264 56.22999 
" style="fill:none;stroke:#008000;stroke-linecap:square;stroke-width:0.4;"/>
   </g>
   <g id="line2d_48">
    <path clip-path="url(#pce5e88b5e1)" d="M 48.675878 8.551008 
L 48.898211 8.81027 
L 49.120543 9.069531 
L 49.342876 9.328793 
L 49.565208 9.588054 
L 49.787541 9.847315 
L 50.009874 10.106577 
L 50.232206 10.365838 
L 50.454539 10.6251 
L 50.70593 10.933542 
L 50.957321 11.241984 
L 51.208712 11.550426 
L 51.460103 11.858868 
L 51.711494 12.16731 
L 51.962885 12.475752 
L 52.214276 12.784194 
L 52.465667 13.092636 
L 52.693565 13.266951 
L 52.921464 13.441267 
L 53.149363 13.615583 
L 53.377261 13.789899 
L 53.60516 13.964214 
L 53.833059 14.13853 
L 54.060957 14.312846 
L 54.288856 14.487161 
L 54.441364 14.693346 
L 54.593872 14.899531 
L 54.746381 15.105715 
L 54.898889 15.3119 
L 55.051397 15.518084 
L 55.203905 15.724269 
L 55.356413 15.930454 
L 55.508922 16.136638 
L 55.66143 16.342823 
L 55.813938 16.549007 
L 55.966446 16.755192 
L 56.118954 16.961377 
L 56.271463 17.167561 
L 56.423971 17.373746 
L 56.576479 17.57993 
L 56.728987 17.786115 
L 56.782613 18.134775 
L 56.836238 18.483435 
L 56.889864 18.832095 
L 56.943489 19.180755 
L 56.997115 19.529415 
L 57.05074 19.878075 
L 57.104366 20.226735 
L 57.157991 20.575395 
L 57.171426 20.971009 
L 57.184861 21.366623 
L 57.198297 21.762237 
L 57.211732 22.157851 
L 57.03742 22.499803 
L 56.863109 22.841755 
L 56.688797 23.183708 
L 56.514485 23.52566 
L 56.340174 23.867612 
L 56.165862 24.209564 
L 55.991551 24.551516 
L 55.817239 24.893469 
L 55.699931 25.144909 
L 55.582623 25.39635 
L 55.465315 25.64779 
L 55.348007 25.89923 
L 55.230699 26.150671 
L 55.113391 26.402111 
L 54.996082 26.653552 
L 54.878774 26.904992 
L 54.811752 27.179924 
L 54.74473 27.454856 
L 54.677708 27.729788 
L 54.610685 28.00472 
" style="fill:none;stroke:#000000;stroke-linecap:square;stroke-width:0.4;"/>
   </g>
   <g id="line2d_49">
    <path clip-path="url(#pce5e88b5e1)" d="M 28.620798 49.481601 
L 28.91188 49.6429 
L 29.202963 49.8042 
L 29.494045 49.9655 
L 29.785127 50.1268 
L 30.076209 50.2881 
L 30.367292 50.4494 
L 30.658374 50.610699 
L 30.949456 50.771999 
L 31.110371 51.0201 
L 31.271286 51.268201 
L 31.4322 51.516302 
L 31.593115 51.764403 
L 31.573001 52.11977 
L 31.552887 52.475138 
L 31.532772 52.830506 
L 31.512658 53.185873 
" style="fill:none;stroke:#4169e1;stroke-linecap:square;stroke-width:0.4;"/>
   </g>
   <g id="line2d_50">
    <path clip-path="url(#pce5e88b5e1)" d="M 19.196535 22.61706 
L 19.599974 22.607413 
L 20.003412 22.597765 
L 20.406851 22.588117 
L 20.810289 22.578469 
L 21.11306 22.518157 
L 21.415831 22.457844 
L 21.718602 22.397532 
L 22.021373 22.337219 
L 22.324143 22.276906 
L 22.626914 22.216594 
L 22.929685 22.156281 
L 23.232456 22.095969 
L 23.535227 22.035656 
L 23.837998 21.975343 
L 24.140768 21.915031 
L 24.443539 21.854718 
L 24.74631 21.794406 
L 25.049081 21.734093 
L 25.351852 21.67378 
L 25.654623 21.613468 
L 25.887416 21.538669 
L 26.120208 21.463871 
L 26.353001 21.389072 
L 26.585794 21.314274 
L 26.818587 21.239475 
L 27.05138 21.164677 
L 27.284173 21.089878 
L 27.516966 21.01508 
L 27.749758 20.940281 
L 27.982551 20.865483 
L 28.215344 20.790685 
L 28.448137 20.715886 
L 28.68093 20.641088 
L 28.913723 20.566289 
L 29.146516 20.491491 
L 29.379309 20.416692 
L 29.761788 20.564548 
L 30.144268 20.712404 
" style="fill:none;stroke:#008000;stroke-linecap:square;stroke-width:0.4;"/>
   </g>
   <g id="line2d_51">
    <path clip-path="url(#pce5e88b5e1)" d="M 10.537538 40.982005 
L 10.813074 40.912187 
L 11.08861 40.84237 
L 11.364146 40.772552 
L 11.639682 40.702735 
L 11.859788 40.597523 
L 12.079894 40.492311 
L 12.300001 40.3871 
L 12.520107 40.281888 
L 12.740213 40.176676 
L 12.960319 40.071465 
L 13.180426 39.966253 
L 13.400532 39.861041 
L 13.614189 39.739645 
L 13.827847 39.61825 
L 14.041504 39.496854 
L 14.255161 39.375458 
L 14.468819 39.254062 
L 14.682476 39.132666 
L 14.896133 39.01127 
L 15.109791 38.889874 
L 15.362218 38.873719 
L 15.614646 38.857563 
L 15.867073 38.841407 
L 16.1195 38.825252 
L 16.370699 38.956095 
" style="fill:none;stroke:#4169e1;stroke-linecap:square;stroke-width:0.4;"/>
   </g>
  </g>
 </g>
 <defs>
  <clipPath id="pce5e88b5e1">
   <rect height="73.492045" width="72" x="0" y="0"/>
  </clipPath>
 </defs>
</svg>
