<?xml version="1.0" encoding="utf-8" standalone="no"?>
<!DOCTYPE svg PUBLIC "-//W3C//DTD SVG 1.1//EN"
  "http://www.w3.org/Graphics/SVG/1.1/DTD/svg11.dtd">
<svg xmlns:xlink="http://www.w3.org/1999/xlink" width="83.039268pt" height="72pt" viewBox="0 0 83.039268 72" xmlns="http://www.w3.org/2000/svg" version="1.1">
 <metadata>
  <rdf:RDF xmlns:dc="http://purl.org/dc/elements/1.1/" xmlns:cc="http://creativecommons.org/ns#" xmlns:rdf="http://www.w3.org/1999/02/22-rdf-syntax-ns#">
   <cc:Work>
    <dc:type rdf:resource="http://purl.org/dc/dcmitype/StillImage"/>
    <dc:date>2022-05-17T16:57:09.936152</dc:date>
    <dc:format>image/svg+xml</dc:format>
    <dc:creator>
     <cc:Agent>
      <dc:title>Matplotlib v3.5.2, https://matplotlib.org/</dc:title>
     </cc:Agent>
    </dc:creator>
   </cc:Work>
  </rdf:RDF>
 </metadata>
 <defs>
  <style type="text/css">*{stroke-linejoin: round; stroke-linecap: butt}</style>
 </defs>
 <g id="figure_1">
  <g id="patch_1">
   <path d="M 0 72 
L 83.039268 72 
L 83.039268 0 
L 0 0 
z
" style="fill: #ffffff"/>
  </g>
  <g id="axes_1">
   <g id="line2d_1">
    <path d="M 48.860871 54.40356 
L 48.155504 56.312575 
L 47.450137 58.221589 
" clip-path="url(#pea182624ab)" style="fill: none; stroke: #808080; stroke-width: 0.4; stroke-linecap: square"/>
   </g>
   <g id="line2d_2">
    <path d="M 46.259121 50.805238 
L 46.200936 53.115524 
L 46.14275 55.425811 
L 46.084565 57.736097 
L 46.02638 60.046383 
" clip-path="url(#pea182624ab)" style="fill: none; stroke: #808080; stroke-width: 0.4; stroke-linecap: square"/>
   </g>
   <g id="line2d_3">
    <path d="M 75.028772 25.880025 
L 74.456607 27.363662 
L 73.884441 28.847298 
L 73.312276 30.330935 
L 72.74011 31.814571 
L 72.167945 33.298207 
L 71.595779 34.781844 
L 71.023614 36.26548 
L 70.451448 37.749116 
L 69.879283 39.232753 
L 69.307117 40.716389 
L 68.734952 42.200025 
L 68.162786 43.683662 
L 67.590621 45.167298 
L 67.018455 46.650935 
L 66.44629 48.134571 
L 65.874124 49.618207 
" clip-path="url(#pea182624ab)" style="fill: none; stroke: #808080; stroke-width: 0.4; stroke-linecap: square"/>
   </g>
   <g id="line2d_4">
    <path d="M 56.145184 3.272727 
L 56.271217 5.802416 
L 56.371414 7.813045 
L 56.47161 9.823675 
L 56.502278 10.439466 
L 56.598484 12.365569 
L 56.655199 13.504387 
L 56.747623 15.357254 
L 56.870716 17.827743 
L 56.946336 19.348303 
L 57.021956 20.868862 
L 57.093585 22.305505 
L 57.165214 23.742149 
L 57.255538 25.55199 
L 57.345862 27.361831 
L 57.430514 29.059987 
L 57.515167 30.758144 
L 57.599819 32.4563 
L 57.684472 34.154456 
L 57.78971 36.267616 
L 57.894948 38.380776 
L 57.958805 39.660572 
L 58.059211 41.67883 
L 58.13021 43.104488 
L 58.201209 44.530146 
L 58.27914 46.092816 
L 58.35707 47.655486 
L 58.363792 47.787921 
L 58.399501 48.505633 
L 58.43143 49.150108 
L 58.499068 50.503751 
L 58.565446 51.831151 
L 58.644426 53.420979 
L 58.746934 55.477686 
L 58.849441 57.534393 
" clip-path="url(#pea182624ab)" style="fill: none; stroke: #808080; stroke-width: 0.4; stroke-linecap: square"/>
   </g>
   <g id="line2d_5">
    <path d="M 48.955396 5.254367 
L 49.098234 7.513694 
L 49.258297 10.045518 
L 49.418359 12.577343 
L 49.553635 14.717661 
L 49.688911 16.857978 
L 49.790788 18.466421 
L 49.892665 20.074863 
L 50.039284 22.394609 
L 50.159016 24.292638 
L 50.304794 26.597127 
L 50.450573 28.901615 
L 50.567417 30.750057 
L 50.68426 32.5985 
L 50.801104 34.446942 
L 50.917947 36.295385 
L 51.03479 38.143827 
L 51.151634 39.99227 
L 51.268477 41.840712 
L 51.385321 43.689154 
L 51.49581 45.436135 
L 51.6063 47.183115 
L 51.75838 49.587387 
L 51.91046 51.991659 
L 52.067582 54.475575 
L 52.181222 56.274126 
L 52.294862 58.072676 
" clip-path="url(#pea182624ab)" style="fill: none; stroke: #808080; stroke-width: 0.4; stroke-linecap: square"/>
   </g>
   <g id="line2d_6">
    <path d="M 45.271019 6.54698 
L 45.139734 8.277177 
L 45.00845 10.007374 
L 44.847652 12.126027 
L 44.686854 14.244679 
L 44.526057 16.363331 
L 44.365259 18.481983 
L 44.242376 20.100496 
L 44.119494 21.719008 
L 43.943467 24.041195 
L 43.825626 25.595016 
L 43.707785 27.148837 
L 43.506551 29.801195 
L 43.398582 31.222886 
L 43.290614 32.644577 
L 43.191047 33.958551 
L 43.046109 35.869396 
L 42.902851 37.75583 
L 42.762954 39.596491 
L 42.603732 41.69836 
L 42.494083 43.139275 
L 42.374981 44.710184 
L 42.255879 46.281093 
L 42.14371 47.756796 
L 42.024608 49.32801 
L 41.905506 50.899224 
L 41.756787 52.859504 
L 41.625292 54.589701 
L 41.510392 56.104158 
L 41.395491 57.618614 
L 41.271978 59.247502 
" clip-path="url(#pea182624ab)" style="fill: none; stroke: #808080; stroke-width: 0.4; stroke-linecap: square"/>
   </g>
   <g id="line2d_7">
    <path d="M 34.984591 9.767527 
L 35.119867 10.828226 
L 35.351348 12.642034 
L 35.582829 14.455842 
L 35.795406 16.121043 
L 36.007982 17.786243 
L 36.121832 18.67911 
L 36.403727 20.886561 
L 36.629747 22.6578 
L 36.855767 24.42904 
L 37.081787 26.20028 
L 37.307807 27.971519 
L 37.640535 30.579021 
L 37.973263 33.186523 
L 38.153491 34.597839 
L 38.333719 36.009154 
L 38.626117 38.299606 
L 38.850456 40.059097 
L 39.074796 41.818589 
L 39.282541 43.446256 
L 39.490286 45.073922 
L 39.749915 47.108048 
L 40.058697 49.526662 
" clip-path="url(#pea182624ab)" style="fill: none; stroke: #808080; stroke-width: 0.4; stroke-linecap: square"/>
   </g>
   <g id="line2d_8">
    <path d="M 23.179879 9.767527 
L 24.170082 12.203916 
L 25.160285 14.640305 
L 26.150487 17.076694 
L 27.14069 19.513083 
L 28.130893 21.949472 
L 29.121095 24.385861 
L 30.111298 26.82225 
L 31.101501 29.25864 
L 32.091703 31.695029 
L 33.081906 34.131418 
L 34.072109 36.567807 
L 35.062311 39.004196 
L 36.052514 41.440585 
L 37.042717 43.876974 
L 38.032919 46.313363 
L 39.023122 48.749752 
" clip-path="url(#pea182624ab)" style="fill: none; stroke: #808080; stroke-width: 0.4; stroke-linecap: square"/>
   </g>
   <g id="line2d_9">
    <path d="M 3.774512 37.973706 
L 4.886127 38.752448 
L 5.250784 39.007552 
L 5.966234 39.509218 
L 7.098434 40.302606 
L 8.269494 41.122848 
L 9.440555 41.94309 
L 10.825663 42.913465 
L 12.21077 43.88384 
L 13.36114 44.689739 
L 14.51151 45.495639 
L 15.66188 46.301538 
L 16.81225 47.107438 
L 18.169 48.057978 
L 19.52575 49.008519 
L 21.149901 50.146116 
L 22.774052 51.283713 
L 23.051745 51.478398 
L 24.495038 52.489358 
L 25.938331 53.500318 
L 26.741164 54.063013 
L 28.236971 55.110896 
L 29.732778 56.158779 
L 30.881362 56.963458 
L 32.029947 57.768137 
L 33.423247 58.74431 
L 34.816546 59.720483 
L 35.941605 60.508684 
L 37.066663 61.296885 
L 37.31789 61.473261 
L 38.091315 62.014596 
" clip-path="url(#pea182624ab)" style="fill: none; stroke: #808080; stroke-width: 0.4; stroke-linecap: square"/>
   </g>
   <g id="line2d_10">
    <path d="M 66.531178 49.504692 
L 67.221422 49.750032 
L 67.97132 50.016732 
L 68.721219 50.283433 
L 69.331221 50.031685 
L 69.941223 49.779936 
L 70.551225 49.528188 
L 71.161227 49.27644 
L 71.692142 48.748837 
L 72.223058 48.221233 
L 72.753974 47.69363 
L 73.28489 47.166027 
L 73.694919 46.519263 
L 74.104947 45.872498 
L 74.514976 45.225734 
L 74.925005 44.57897 
L 75.176021 44.182581 
L 75.427038 43.786192 
L 75.671123 43.283687 
L 75.915208 42.781182 
L 76.159292 42.278678 
L 76.403377 41.776173 
L 76.647462 41.273668 
L 76.891547 40.771163 
L 77.135631 40.268659 
L 77.379716 39.766154 
L 77.566508 39.374495 
L 77.7533 38.982835 
L 77.940092 38.591176 
L 78.126884 38.199517 
L 78.313676 37.807858 
L 78.500468 37.416198 
L 78.68726 37.024539 
L 78.874052 36.63288 
L 78.971728 36.168137 
L 79.069404 35.703395 
L 79.16708 35.238652 
L 79.264756 34.77391 
L 79.182309 34.321983 
L 79.099862 33.870057 
L 79.017415 33.418131 
L 78.934969 32.966205 
L 78.704695 32.508786 
L 78.474421 32.051367 
L 78.244148 31.593948 
L 78.013874 31.136529 
L 77.783601 30.67911 
L 77.553327 30.221691 
L 77.323053 29.764272 
L 77.09278 29.306853 
L 76.825589 28.72829 
L 76.58581 28.209688 
L 76.346032 27.691087 
L 76.106253 27.172486 
L 75.866475 26.653884 
" clip-path="url(#pea182624ab)" style="fill: none; stroke: #4169e1; stroke-width: 0.4; stroke-linecap: square"/>
   </g>
   <g id="line2d_11">
    <path d="M 67.221422 49.750032 
L 67.40031 49.205302 
L 67.579199 48.660572 
L 67.758088 48.115842 
L 67.936976 47.571113 
L 68.115865 47.026383 
L 68.294754 46.481653 
L 68.473642 45.936923 
L 68.652531 45.392193 
L 68.83142 44.847463 
L 69.010309 44.302734 
L 69.189197 43.758004 
L 69.368086 43.213274 
L 69.546975 42.668544 
L 69.725863 42.123814 
L 69.904752 41.579085 
L 70.083641 41.034355 
L 70.235826 40.570985 
L 70.388011 40.107616 
L 70.540197 39.644247 
L 70.692382 39.180877 
L 71.025741 38.502683 
L 71.359099 37.824488 
L 71.692457 37.146294 
L 72.025816 36.468099 
L 72.383383 36.026243 
L 72.740951 35.584387 
L 73.098518 35.14253 
L 73.456085 34.700674 
L 73.813653 34.258818 
L 74.17122 33.816961 
L 74.528787 33.375105 
L 74.886355 32.933249 
L 75.179592 32.489104 
L 75.47283 32.044959 
L 75.766068 31.600814 
L 76.059306 31.156669 
L 76.250877 30.549574 
L 76.442447 29.942479 
L 76.634018 29.335385 
L 76.825589 28.72829 
" clip-path="url(#pea182624ab)" style="fill: none; stroke: #000000; stroke-width: 0.4; stroke-linecap: square"/>
   </g>
   <g id="line2d_12">
    <path d="M 59.829141 55.817012 
L 59.756671 55.049943 
L 59.684202 54.282873 
L 59.611733 53.515804 
L 59.539264 52.748735 
L 59.466795 51.981666 
L 59.394325 51.214596 
L 59.321856 50.447527 
L 59.249387 49.680458 
L 59.050884 49.229752 
L 58.852382 48.779046 
L 58.604726 48.217266 
L 58.35707 47.655486 
L 57.98002 47.027489 
L 57.60297 46.399491 
L 57.377896 45.744946 
L 57.152821 45.090401 
L 56.927746 44.435855 
L 56.702671 43.78131 
L 56.809275 43.138818 
L 56.915878 42.496325 
L 57.022481 41.853833 
L 57.129085 41.211341 
L 57.421587 40.646815 
L 57.71409 40.082289 
L 58.006592 39.517762 
L 58.299095 38.953236 
L 58.660811 38.255664 
L 58.773296 37.621869 
L 58.88578 36.988074 
L 58.998265 36.354278 
L 59.11075 35.720483 
L 59.136587 35.134901 
L 59.162424 34.54932 
L 59.188261 33.963738 
L 59.214098 33.378156 
L 59.112851 32.814851 
L 58.985662 32.105989 
L 58.858473 31.397127 
L 58.731284 30.688264 
L 58.604096 29.979402 
L 58.486465 29.249027 
L 58.368833 28.518652 
L 58.251202 27.788277 
L 58.133571 27.057902 
L 58.08174 26.622683 
L 58.029908 26.187463 
L 57.978077 25.752244 
L 57.926246 25.317025 
L 57.874415 24.881805 
L 57.822583 24.446586 
L 57.770752 24.011367 
L 57.718921 23.576147 
L 57.456771 23.046408 
L 57.211321 22.550998 
L 56.965871 22.055588 
L 56.720421 21.560178 
L 56.474971 21.064768 
L 56.354399 20.644196 
L 56.233827 20.223624 
L 56.113255 19.803051 
L 55.992683 19.382479 
L 55.872111 18.961907 
L 55.751539 18.541335 
L 55.630967 18.120763 
L 55.510395 17.700191 
L 55.33941 17.104539 
L 55.114125 16.702505 
L 54.88884 16.30047 
L 54.663556 15.898436 
L 54.438271 15.496402 
L 54.125288 15.033948 
L 53.812305 14.571494 
L 53.499322 14.10904 
L 53.186339 13.646586 
L 52.965675 13.092893 
L 52.745012 12.539199 
L 52.524348 11.985505 
L 52.303685 11.431812 
L 52.418165 10.849282 
L 52.532645 10.266751 
L 52.647126 9.684221 
L 52.761606 9.101691 
L 53.034048 8.690197 
L 53.306491 8.278703 
L 53.578933 7.867209 
L 53.851375 7.455715 
L 54.269701 6.883408 
L 54.688027 6.3111 
L 55.106353 5.738792 
L 55.524679 5.166484 
" clip-path="url(#pea182624ab)" style="fill: none; stroke: #008000; stroke-width: 0.4; stroke-linecap: square"/>
   </g>
   <g id="line2d_13">
    <path d="M 58.299095 38.953236 
L 58.709544 38.783039 
L 59.119993 38.612842 
L 59.530441 38.442645 
L 59.94089 38.272448 
L 60.351339 38.10225 
L 60.761788 37.932053 
L 61.172237 37.761856 
L 61.582686 37.591659 
L 62.094487 37.312142 
L 62.606287 37.032626 
L 63.118088 36.753109 
L 63.629889 36.473592 
L 64.182966 36.171494 
L 64.736042 35.869396 
L 64.976871 35.41747 
L 65.2177 34.965544 
L 65.458529 34.513617 
L 65.699358 34.061691 
L 65.961507 33.56979 
L 66.524562 33.083687 
L 67.087616 32.597584 
L 67.65067 32.111481 
L 68.213725 31.625378 
L 68.757034 31.283001 
L 69.300343 30.940623 
L 69.843652 30.598245 
L 70.386961 30.255868 
L 70.601638 29.791736 
L 70.816315 29.327603 
L 71.030992 28.863471 
L 71.245669 28.399339 
L 71.604549 27.87021 
L 71.963429 27.341081 
L 72.32231 26.811952 
L 72.68119 26.282823 
L 73.273547 25.927324 
L 73.865904 25.571825 
" clip-path="url(#pea182624ab)" style="fill: none; stroke: #008000; stroke-width: 0.4; stroke-linecap: square"/>
   </g>
   <g id="line2d_14">
    <path d="M 75.427038 43.786192 
L 75.186524 43.0311 
L 74.94601 42.276008 
L 74.705497 41.520915 
L 74.464983 40.765823 
L 74.023656 40.312829 
L 73.582329 39.859835 
L 73.141002 39.40684 
L 72.699675 38.953846 
L 72.425762 38.542962 
L 72.151849 38.132079 
L 71.877937 37.721195 
L 71.604024 37.310312 
L 71.330111 36.899428 
L 71.056199 36.488544 
L 70.782286 36.077661 
L 70.508373 35.666777 
L 70.398724 35.124984 
L 70.289075 34.583191 
L 70.179426 34.041399 
L 70.069777 33.499606 
L 69.89207 32.743446 
L 69.714363 31.987285 
L 69.533715 31.471888 
L 69.353067 30.956491 
L 69.172419 30.441093 
L 68.991771 29.925696 
L 68.541622 29.61185 
L 68.091472 29.298004 
L 67.641323 28.984158 
L 67.191173 28.670312 
L 66.646289 28.320915 
L 66.101404 27.971519 
L 65.808272 27.548125 
L 65.515139 27.12473 
L 65.222006 26.701335 
L 64.928873 26.27794 
L 64.570991 26.059911 
L 64.213109 25.841882 
L 63.855226 25.623853 
L 63.497344 25.405823 
L 63.139461 25.187794 
L 62.781579 24.969765 
L 62.423696 24.751736 
L 62.065814 24.533706 
L 61.308668 24.237101 
L 60.551522 23.940496 
L 59.794376 23.643891 
L 59.037231 23.347285 
L 58.247001 23.196847 
L 57.456771 23.046408 
" clip-path="url(#pea182624ab)" style="fill: none; stroke: #008000; stroke-width: 0.4; stroke-linecap: square"/>
   </g>
   <g id="line2d_15">
    <path d="M 70.083641 41.034355 
L 69.714573 40.520483 
L 69.345505 40.006612 
L 68.976437 39.49274 
L 68.607369 38.978868 
L 68.149553 38.338055 
L 67.691736 37.697241 
L 67.23392 37.056427 
L 66.776103 36.415613 
L 66.506917 35.827133 
L 66.237731 35.238652 
L 65.968544 34.650172 
L 65.699358 34.061691 
L 65.683604 33.566891 
L 65.667849 33.072092 
L 65.652095 32.577292 
L 65.636341 32.082492 
L 65.788001 31.664132 
L 65.939662 31.245772 
L 66.091322 30.827413 
L 66.242982 30.409053 
L 66.308309 29.695613 
L 66.373637 28.982174 
L 66.237521 28.476847 
L 66.101404 27.971519 
" clip-path="url(#pea182624ab)" style="fill: none; stroke: #008000; stroke-width: 0.4; stroke-linecap: square"/>
   </g>
   <g id="line2d_16">
    <path d="M 63.55847 49.859275 
L 63.598486 49.270337 
L 63.638501 48.681399 
L 63.678517 48.09246 
L 63.718532 47.503522 
L 63.71097 46.823649 
L 63.703408 46.143776 
L 63.695846 45.463903 
L 63.688284 44.784031 
L 63.688284 44.242085 
L 63.688284 43.70014 
L 63.688284 43.158195 
L 63.688284 42.616249 
L 63.680985 41.848417 
L 63.673685 41.080585 
L 63.666386 40.312753 
L 63.659087 39.544921 
L 63.651787 38.777088 
L 63.644488 38.009256 
L 63.637188 37.241424 
L 63.629889 36.473592 
" clip-path="url(#pea182624ab)" style="fill: none; stroke: #4169e1; stroke-width: 0.4; stroke-linecap: square"/>
   </g>
   <g id="line2d_17">
    <path d="M 64.950719 49.903827 
L 64.254595 49.881551 
L 63.55847 49.859275 
L 62.91612 49.739352 
L 62.273769 49.619428 
L 61.826561 49.43588 
L 61.379352 49.252333 
L 60.932143 49.068786 
L 60.484935 48.885238 
L 59.668658 48.832142 
L 58.852382 48.779046 
" clip-path="url(#pea182624ab)" style="fill: none; stroke: #008000; stroke-width: 0.4; stroke-linecap: square"/>
   </g>
   <g id="line2d_18">
    <path d="M 53.23003 57.945734 
L 53.179223 57.136154 
L 53.128416 56.326573 
L 53.077609 55.516993 
L 53.026801 54.707413 
L 52.975994 53.897832 
L 52.925187 53.088252 
L 52.87438 52.278671 
L 52.823572 51.469091 
L 52.772765 50.65951 
L 52.721958 49.84993 
L 52.671151 49.04035 
L 52.620344 48.230769 
L 52.569536 47.421189 
L 52.518729 46.611608 
L 52.467922 45.802028 
L 52.417115 44.992448 
L 52.366307 44.182867 
L 52.3155 43.373287 
L 52.264693 42.563706 
L 52.213886 41.754126 
L 52.163079 40.944545 
L 52.112271 40.134965 
L 52.061464 39.325385 
L 52.010657 38.515804 
L 51.95985 37.706224 
L 51.909042 36.896643 
L 51.858235 36.087063 
L 51.807428 35.277483 
L 51.756621 34.467902 
L 51.705813 33.658322 
L 51.655006 32.848741 
L 51.604199 32.039161 
L 51.575684 31.585099 
L 51.547169 31.131036 
L 51.518654 30.676974 
L 51.490139 30.222912 
L 51.461624 29.768849 
L 51.433109 29.314787 
L 51.404594 28.860725 
L 51.376079 28.406662 
L 51.347563 27.9526 
L 51.319048 27.498538 
L 51.290533 27.044476 
L 51.262018 26.590413 
L 51.233503 26.136351 
L 51.204988 25.682289 
L 51.176473 25.228226 
L 51.147958 24.774164 
L 51.11708 24.282187 
L 51.086202 23.79021 
L 51.055323 23.298233 
L 51.024445 22.806256 
L 50.993567 22.314278 
L 50.962689 21.822301 
L 50.931811 21.330324 
L 50.900932 20.838347 
L 50.87075 20.357489 
L 50.840568 19.876631 
L 50.810385 19.395772 
L 50.780203 18.914914 
L 50.750021 18.434056 
L 50.719838 17.953198 
L 50.689656 17.472339 
L 50.659473 16.991481 
L 50.629291 16.510623 
L 50.599109 16.029765 
L 50.568926 15.548907 
L 50.538744 15.068048 
L 50.508562 14.58719 
L 50.478379 14.106332 
L 50.448197 13.625474 
L 50.418014 13.144615 
L 50.387832 12.663757 
L 50.35765 12.182899 
L 50.327467 11.702041 
L 50.297285 11.221182 
L 50.267102 10.740324 
L 50.23692 10.259466 
L 50.206738 9.778608 
L 50.176555 9.29775 
L 50.146373 8.816891 
L 50.116191 8.336033 
L 50.086008 7.855175 
L 50.055826 7.374317 
L 50.025643 6.893458 
L 49.995461 6.4126 
L 49.965279 5.931742 
L 49.935096 5.450884 
" clip-path="url(#pea182624ab)" style="fill: none; stroke: #4169e1; stroke-width: 0.4; stroke-linecap: square"/>
   </g>
   <g id="line2d_19">
    <path d="M 51.604199 32.039161 
L 52.09909 31.686103 
L 52.593982 31.333045 
L 52.667921 30.782403 
L 52.741861 30.231761 
L 52.8158 29.681119 
L 52.88974 29.130477 
L 53.029007 28.621182 
L 53.168274 28.111888 
L 53.307541 27.602594 
L 53.446808 27.093299 
L 53.446808 26.634355 
L 53.446808 26.17541 
L 53.446808 25.716465 
L 53.446808 25.257521 
L 53.446808 24.759669 
L 53.446808 24.261818 
L 53.446808 23.763967 
L 53.446808 23.266116 
L 53.704756 22.570375 
L 53.962705 21.874634 
L 54.220653 21.178894 
L 54.478601 20.483153 
L 54.73655 19.787413 
L 54.994498 19.091672 
L 55.252447 18.395931 
L 55.510395 17.700191 
" clip-path="url(#pea182624ab)" style="fill: none; stroke: #008000; stroke-width: 0.4; stroke-linecap: square"/>
   </g>
   <g id="line2d_20">
    <path d="M 48.462186 49.087247 
L 48.481721 48.511583 
L 48.501256 47.935919 
L 48.520791 47.360254 
L 48.540326 46.78459 
L 48.559862 46.208926 
L 48.579397 45.633261 
L 48.598932 45.057597 
L 48.618467 44.481933 
L 48.433198 43.696631 
L 48.247929 42.911329 
L 48.06266 42.126027 
L 47.87739 41.340725 
L 47.906378 40.748659 
L 47.935366 40.156592 
L 47.964354 39.564526 
L 47.993341 38.97246 
L 48.022329 38.380394 
L 48.051317 37.788328 
L 48.080304 37.196262 
L 48.109292 36.604196 
L 48.188536 35.964221 
L 48.267779 35.324247 
L 48.347023 34.684272 
L 48.426266 34.044298 
L 48.50551 33.404323 
L 48.584753 32.764348 
L 48.663997 32.124374 
L 48.74324 31.484399 
L 48.863182 30.883255 
L 48.983124 30.282111 
L 49.103066 29.680966 
L 49.223007 29.079822 
L 49.463626 28.541615 
L 49.704245 28.003408 
L 49.944864 27.4652 
L 50.185483 26.926993 
L 50.426102 26.388786 
L 50.66672 25.850579 
L 50.907339 25.312371 
L 51.147958 24.774164 
" clip-path="url(#pea182624ab)" style="fill: none; stroke: #008000; stroke-width: 0.4; stroke-linecap: square"/>
   </g>
   <g id="line2d_21">
    <path d="M 44.97148 49.396669 
L 44.836414 48.904768 
L 44.701348 48.412867 
L 44.566282 47.920966 
L 44.431216 47.429065 
L 44.336429 46.842568 
L 44.241641 46.256071 
L 44.146853 45.669574 
L 44.052066 45.083077 
L 43.957278 44.49658 
L 43.862491 43.910083 
L 43.767703 43.323586 
L 43.672915 42.737088 
L 43.958486 42.024717 
L 44.244057 41.312346 
L 44.529627 40.599975 
L 44.815198 39.887603 
L 44.835889 39.075143 
L 44.856579 38.262683 
L 44.87727 37.450223 
L 44.89796 36.637762 
L 44.998682 36.010909 
L 45.099404 35.384056 
L 45.200125 34.757203 
L 45.300847 34.13035 
L 45.401569 33.503497 
L 45.50229 32.876643 
L 45.603012 32.24979 
L 45.703734 31.622937 
L 45.657837 30.996923 
L 45.61194 30.370909 
L 45.566042 29.744895 
L 45.520145 29.118881 
L 45.601122 28.685874 
L 45.682098 28.252867 
L 45.763075 27.81986 
L 45.844051 27.386853 
L 45.925028 26.953846 
L 46.006004 26.520839 
L 46.086981 26.087832 
L 46.167957 25.654825 
L 46.552779 25.203051 
L 46.937601 24.751278 
L 47.322423 24.299504 
L 47.707245 23.84773 
L 48.290255 23.48445 
L 48.873265 23.12117 
L 49.456274 22.757889 
L 50.039284 22.394609 
L 50.254696 22.005544 
L 50.470108 21.616478 
L 50.68552 21.227413 
L 50.900932 20.838347 
" clip-path="url(#pea182624ab)" style="fill: none; stroke: #008000; stroke-width: 0.4; stroke-linecap: square"/>
   </g>
   <g id="line2d_22">
    <path d="M 48.190374 58.55054 
L 48.360466 58.048493 
L 48.530559 57.546446 
L 48.700651 57.044399 
L 48.870744 56.542352 
L 49.040837 56.040305 
L 49.210929 55.538258 
L 49.381022 55.036211 
L 49.551114 54.534164 
" clip-path="url(#pea182624ab)" style="fill: none; stroke: #008000; stroke-width: 0.4; stroke-linecap: square"/>
   </g>
   <g id="line2d_23">
    <path d="M 44.850488 59.229803 
L 44.551368 58.797406 
L 44.252249 58.36501 
L 43.95313 57.932613 
L 43.65401 57.500216 
L 43.758093 56.935232 
L 43.862175 56.370248 
L 43.966258 55.805264 
L 44.070341 55.24028 
L 44.241116 54.758754 
L 44.411891 54.277228 
L 44.582667 53.795702 
L 44.753442 53.314177 
L 44.910984 52.720509 
L 45.068525 52.12684 
L 45.226067 51.533172 
L 45.383609 50.939504 
" clip-path="url(#pea182624ab)" style="fill: none; stroke: #008000; stroke-width: 0.4; stroke-linecap: square"/>
   </g>
   <g id="line2d_24">
    <path d="M 42.349144 58.881322 
L 42.359673 58.444348 
L 42.370202 58.007374 
L 42.380731 57.570401 
L 42.39126 57.133427 
L 42.401789 56.696453 
L 42.412318 56.259479 
L 42.422847 55.822505 
L 42.433376 55.385531 
L 42.443906 54.948557 
L 42.454435 54.511583 
L 42.464964 54.074609 
L 42.475493 53.637635 
L 42.486022 53.200661 
L 42.496551 52.763687 
L 42.50708 52.326713 
L 42.517609 51.889739 
L 42.451756 51.268684 
L 42.385904 50.647629 
L 42.320051 50.026573 
L 42.254199 49.405518 
L 42.188346 48.784463 
L 42.122494 48.163408 
L 42.056642 47.542352 
L 41.990789 46.921297 
L 41.924937 46.300242 
L 41.859084 45.679186 
L 41.793232 45.058131 
L 41.727379 44.437076 
L 41.661527 43.81602 
L 41.595674 43.194965 
L 41.529822 42.57391 
L 41.463969 41.952854 
L 41.536885 41.172816 
L 41.609801 40.392778 
L 41.682716 39.61274 
L 41.755632 38.832702 
L 41.828547 38.052664 
L 41.901463 37.272626 
L 41.974378 36.492587 
L 42.047294 35.712549 
L 42.12021 34.932511 
L 42.193125 34.152473 
L 42.266041 33.372435 
L 42.338956 32.592397 
L 42.411872 31.812359 
L 42.484788 31.03232 
L 42.557703 30.252282 
L 42.630619 29.472244 
L 42.683185 28.711621 
L 42.735752 27.950998 
L 42.788318 27.190375 
L 42.840885 26.429752 
L 42.893451 25.669129 
L 42.946017 24.908506 
L 42.998584 24.147883 
L 43.05115 23.38726 
L 43.103717 22.626637 
L 43.156283 21.866014 
L 43.20885 21.105391 
L 43.261416 20.344768 
L 43.313983 19.584145 
L 43.366549 18.823522 
L 43.419115 18.062899 
L 43.471682 17.302276 
L 43.295918 16.828837 
L 43.120154 16.355397 
L 42.94439 15.881958 
L 42.768625 15.408519 
L 42.592861 14.935079 
L 42.417097 14.46164 
L 42.241333 13.988201 
L 42.065569 13.514762 
L 42.31438 13.148582 
L 42.563191 12.782403 
L 42.812002 12.416224 
L 43.060813 12.050045 
L 43.309624 11.683865 
L 43.558435 11.317686 
L 43.807246 10.951507 
L 44.056057 10.585327 
L 44.125323 10.106395 
L 44.194589 9.627463 
L 44.263854 9.148531 
L 44.33312 8.669599 
L 44.402386 8.190668 
L 44.471652 7.711736 
L 44.540918 7.232804 
L 44.610184 6.753872 
" clip-path="url(#pea182624ab)" style="fill: none; stroke: #4169e1; stroke-width: 0.4; stroke-linecap: square"/>
   </g>
   <g id="line2d_25">
    <path d="M 40.623746 47.487654 
L 40.430128 46.779021 
L 40.236509 46.070388 
L 40.04289 45.361755 
L 39.849271 44.653121 
L 39.655652 43.944488 
L 39.462033 43.235855 
L 39.268414 42.527222 
L 39.074796 41.818589 
L 38.884695 41.366662 
L 38.694595 40.914736 
L 38.504494 40.46281 
L 38.314394 40.010884 
L 38.124293 39.558957 
L 37.934193 39.107031 
L 37.744093 38.655105 
L 37.553992 38.203179 
L 37.298564 37.596236 
L 37.043137 36.989294 
L 36.891792 36.381132 
L 36.740446 35.772969 
L 36.589101 35.164806 
L 36.437756 34.556643 
L 36.286411 33.948481 
L 36.135066 33.340318 
L 35.983721 32.732155 
L 35.832376 32.123992 
L 35.46315 31.578614 
L 35.093925 31.033236 
L 34.724699 30.487858 
L 34.355474 29.942479 
L 33.986248 29.397101 
L 33.617023 28.851723 
L 33.247797 28.306345 
L 32.878572 27.760966 
L 32.762306 27.170426 
L 32.64604 26.579886 
L 32.529775 25.989345 
L 32.413509 25.398805 
L 32.297243 24.808264 
L 32.180977 24.217724 
L 32.064711 23.627184 
L 31.948445 23.036643 
L 32.13718 22.588226 
L 32.325915 22.139809 
L 32.514651 21.691392 
L 32.703386 21.242975 
L 32.938543 20.684094 
L 33.1737 20.125213 
L 33.408858 19.566332 
L 33.644015 19.007451 
L 33.90837 18.267463 
L 34.172725 17.527476 
L 34.43708 16.787489 
L 34.701436 16.047502 
L 34.654015 15.345124 
L 34.606595 14.642746 
L 34.559175 13.940369 
L 34.511755 13.237991 
L 34.464335 12.535613 
L 34.416915 11.833236 
L 34.369495 11.130858 
L 34.322075 10.428481 
" clip-path="url(#pea182624ab)" style="fill: none; stroke: #4169e1; stroke-width: 0.4; stroke-linecap: square"/>
   </g>
   <g id="line2d_26">
    <path d="M 37.553992 38.203179 
L 37.678713 37.619657 
L 37.803433 37.036135 
L 37.928154 36.452613 
L 38.052875 35.869091 
L 38.177595 35.285569 
L 38.302316 34.702047 
L 38.427036 34.118525 
L 38.551757 33.535003 
L 38.489265 32.775715 
L 38.426774 32.016427 
L 38.364282 31.257139 
L 38.301791 30.497851 
L 38.239299 29.738563 
L 38.176807 28.979275 
L 38.114316 28.219987 
L 38.051824 27.460699 
L 38.080392 26.857724 
L 38.108959 26.254749 
L 38.137527 25.651774 
L 38.166095 25.048798 
L 38.194662 24.445823 
L 38.22323 23.842848 
L 38.251797 23.239873 
L 38.280365 22.636898 
L 38.429032 21.899199 
L 38.577699 21.1615 
L 38.726366 20.423802 
L 38.875033 19.686103 
L 39.0237 18.948404 
L 39.172366 18.210706 
L 39.321033 17.473007 
L 39.4697 16.735308 
L 39.543692 16.329307 
L 39.617685 15.923306 
L 39.691677 15.517305 
L 39.765669 15.111303 
L 39.839661 14.705302 
L 39.913653 14.299301 
L 39.987645 13.893299 
L 40.061637 13.487298 
L 39.582605 13.068938 
L 39.103573 12.650579 
L 38.624541 12.232219 
L 38.145509 11.813859 
L 37.666477 11.395499 
L 37.187445 10.977139 
L 36.708413 10.558779 
L 36.229381 10.14042 
" clip-path="url(#pea182624ab)" style="fill: none; stroke: #4169e1; stroke-width: 0.4; stroke-linecap: square"/>
   </g>
   <g id="line2d_27">
    <path d="M 37.674984 47.988099 
L 36.937689 47.708735 
L 36.200393 47.429371 
L 35.463098 47.150006 
L 34.725802 46.870642 
L 34.462392 46.479441 
L 34.198982 46.088239 
L 33.876127 45.608849 
L 33.553271 45.12946 
L 33.337019 44.711863 
L 33.120766 44.294266 
L 32.904514 43.876669 
L 32.688262 43.459072 
L 32.125627 43.062378 
L 31.562993 42.665683 
L 31.000359 42.268989 
L 30.437725 41.872295 
L 30.092708 41.151532 
L 29.747692 40.430769 
L 29.402675 39.710006 
L 29.057659 38.989243 
L 28.930365 38.389777 
L 28.803071 37.790312 
L 28.675777 37.190846 
L 28.548483 36.59138 
L 28.257399 36.269981 
L 27.966314 35.948582 
L 27.675229 35.627184 
L 27.384145 35.305785 
L 27.09306 34.984387 
L 26.801975 34.662988 
L 26.510891 34.341589 
L 26.219806 34.020191 
L 25.757788 33.644247 
L 25.295771 33.268303 
L 24.833753 32.892359 
L 24.371736 32.516414 
L 24.190142 31.823268 
L 24.008549 31.130121 
L 23.826956 30.436974 
L 23.645363 29.743827 
L 23.725394 29.091418 
L 23.805425 28.439008 
L 23.885457 27.786599 
L 23.965488 27.134189 
L 23.940281 26.627947 
L 23.915074 26.121704 
L 23.889868 25.615461 
L 23.864661 25.109218 
L 23.379012 24.653172 
L 22.893363 24.197127 
L 22.407715 23.741081 
L 21.922066 23.285035 
L 21.436417 22.92679 
L 20.950768 22.568544 
L 20.465119 22.210299 
L 19.979471 21.852053 
L 19.844195 21.061106 
L 19.708919 20.270159 
L 19.839153 19.660165 
L 19.969388 19.050172 
L 20.099622 18.440178 
L 20.229857 17.830184 
L 20.527506 17.138258 
L 20.825155 16.446332 
L 21.122804 15.754406 
L 21.420453 15.062479 
L 21.517078 14.535181 
L 21.613704 14.007883 
L 21.728394 13.381106 
L 21.836468 12.965111 
L 21.944542 12.549116 
L 22.052615 12.133121 
L 22.160689 11.717127 
L 22.268763 11.301132 
L 22.376836 10.885137 
L 22.48491 10.469142 
L 22.592984 10.053147 
" clip-path="url(#pea182624ab)" style="fill: none; stroke: #4169e1; stroke-width: 0.4; stroke-linecap: square"/>
   </g>
   <g id="line2d_28">
    <path d="M 37.674984 47.988099 
L 37.487457 47.523786 
L 37.29993 47.059472 
L 37.112403 46.595159 
L 36.924875 46.130846 
L 36.737348 45.666532 
L 36.549821 45.202219 
L 36.362294 44.737905 
L 36.174766 44.273592 
L 35.987239 43.809278 
L 35.799712 43.344965 
L 35.612185 42.880652 
L 35.424657 42.416338 
L 35.23713 41.952025 
L 35.049603 41.487711 
L 34.862076 41.023398 
L 34.674548 40.559085 
L 34.487021 40.094771 
L 34.299494 39.630458 
L 34.111967 39.166144 
L 33.924439 38.701831 
L 33.736912 38.237517 
L 33.549385 37.773204 
L 33.361858 37.308891 
L 33.174331 36.844577 
L 32.986803 36.380264 
L 32.799276 35.91595 
L 32.611749 35.451637 
L 32.424222 34.987324 
L 32.236694 34.52301 
L 32.049167 34.058697 
L 31.86164 33.594383 
L 31.674113 33.13007 
L 31.486585 32.665757 
L 31.299058 32.201443 
L 31.111531 31.73713 
L 30.924004 31.272816 
L 30.736476 30.808503 
L 30.548949 30.344189 
L 30.361422 29.879876 
L 30.173895 29.415563 
L 29.986367 28.951249 
L 29.79884 28.486936 
L 29.611313 28.022622 
L 29.423786 27.558309 
L 29.236258 27.093996 
L 29.048731 26.629682 
L 28.861204 26.165369 
L 28.673677 25.701055 
L 28.486149 25.236742 
L 28.298622 24.772428 
L 28.111095 24.308115 
L 27.923568 23.843802 
L 27.73604 23.379488 
L 27.548513 22.915175 
L 27.360986 22.450861 
L 27.173459 21.986548 
L 26.985932 21.522235 
L 26.798404 21.057921 
L 26.610877 20.593608 
L 26.42335 20.129294 
L 26.235823 19.664981 
L 26.048295 19.200668 
L 25.860768 18.736354 
L 25.673241 18.272041 
L 25.080989 17.830947 
L 24.488737 17.389854 
L 23.896485 16.94876 
L 23.304232 16.507667 
L 22.8816 15.882721 
L 22.458968 15.257775 
L 22.036336 14.632829 
L 21.613704 14.007883 
" clip-path="url(#pea182624ab)" style="fill: none; stroke: #4169e1; stroke-width: 0.4; stroke-linecap: square"/>
   </g>
   <g id="line2d_29">
    <path d="M 32.703386 21.242975 
L 32.351752 20.683942 
L 32.000119 20.124908 
L 31.761338 19.694876 
L 31.522557 19.264844 
L 31.283777 18.834812 
L 31.044996 18.404781 
L 30.806215 17.974749 
L 30.567434 17.544717 
L 30.328653 17.114685 
L 30.089872 16.684654 
L 30.002489 16.273007 
L 29.915106 15.86136 
L 29.827723 15.449714 
L 29.74034 15.038067 
L 29.502819 14.626421 
L 29.265299 14.214774 
L 29.027778 13.803128 
L 28.790258 13.391481 
L 28.552737 12.979835 
L 28.315217 12.568188 
L 28.077696 12.156542 
L 27.840176 11.744895 
" clip-path="url(#pea182624ab)" style="fill: none; stroke: #4169e1; stroke-width: 0.4; stroke-linecap: square"/>
   </g>
   <g id="line2d_30">
    <path d="M 37.31789 61.473261 
L 36.958064 61.104183 
L 36.598239 60.735105 
L 36.238413 60.366027 
L 35.878588 59.996949 
L 35.518762 59.62787 
L 35.158937 59.258792 
L 34.799111 58.889714 
L 34.439286 58.520636 
L 33.853178 58.357686 
L 33.26707 58.194736 
L 32.680962 58.031786 
L 32.094854 57.868837 
L 31.508746 57.705887 
L 30.922638 57.542937 
L 30.33653 57.379987 
L 29.750422 57.217038 
L 29.255846 57.533935 
L 28.76127 57.850833 
L 28.266694 58.16773 
L 27.772118 58.484628 
L 27.449367 59.047324 
L 27.126616 59.610019 
L 26.803866 60.172715 
L 26.481115 60.73541 
L 25.959862 61.126306 
L 25.438609 61.517203 
L 24.917355 61.908099 
L 24.396102 62.298996 
L 23.985968 62.40412 
L 23.575834 62.509243 
L 23.165701 62.614367 
L 22.755567 62.719491 
L 22.345433 62.824615 
L 21.935299 62.929739 
L 21.525166 63.034863 
L 21.115032 63.139987 
L 20.311569 63.102912 
L 19.508106 63.065836 
L 18.704642 63.02876 
L 17.901179 62.991685 
L 17.542824 62.52679 
L 17.184469 62.061894 
L 16.826114 61.596999 
L 16.467759 61.132104 
L 15.804403 60.711303 
L 15.141047 60.290502 
L 14.606508 60.323153 
L 14.071969 60.355804 
L 13.537429 60.388455 
L 13.00289 60.421106 
L 12.468351 60.453757 
L 11.933811 60.486408 
L 11.399272 60.519059 
L 10.864733 60.55171 
L 10.717904 60.147235 
L 10.571075 59.742759 
L 10.424246 59.338284 
L 10.277417 58.933808 
L 9.731587 58.53391 
L 9.185758 58.134011 
L 8.639928 57.734113 
L 8.094098 57.334215 
L 7.907463 56.546472 
L 7.720829 55.758729 
L 7.534194 54.970985 
L 7.34756 54.183242 
L 7.303238 53.435321 
L 7.258916 52.6874 
L 7.067871 52.27972 
L 6.876825 51.872041 
L 6.685779 51.464361 
L 6.494734 51.056682 
L 6.198555 50.425022 
L 5.798819 49.820826 
L 5.399083 49.216631 
L 5.375347 48.535537 
L 5.351611 47.854444 
L 5.503061 47.425556 
L 5.654511 46.996669 
L 5.805961 46.567781 
L 5.957411 46.138894 
L 5.954365 45.67705 
L 5.95132 45.215207 
L 5.948274 44.753363 
L 5.945228 44.291519 
L 5.840095 43.879873 
L 5.734962 43.468226 
L 5.629829 43.05658 
L 5.524696 42.644933 
L 5.166446 42.191939 
L 4.808196 41.738945 
L 4.449946 41.28595 
L 4.091696 40.832956 
L 4.091696 40.063064 
L 4.091696 39.293172 
L 3.933104 38.633439 
L 3.774512 37.973706 
" clip-path="url(#pea182624ab)" style="fill: none; stroke: #008000; stroke-width: 0.4; stroke-linecap: square"/>
   </g>
   <g id="line2d_31">
    <path d="M 43.65401 57.500216 
L 43.216097 57.358932 
L 42.778183 57.217648 
L 42.340269 57.076364 
L 41.902356 56.935079 
L 41.464442 56.793795 
L 41.026528 56.652511 
L 40.588615 56.511227 
L 40.150701 56.369943 
L 39.546581 56.405493 
L 38.94246 56.441043 
L 38.33834 56.476592 
L 37.73422 56.512142 
L 37.343306 56.675016 
L 36.952393 56.837889 
L 36.561479 57.000763 
L 36.170565 57.163636 
L 35.779652 57.32651 
L 35.388738 57.489383 
L 34.997824 57.652257 
L 34.60691 57.81513 
L 34.118321 57.721907 
L 33.629731 57.628684 
L 33.141142 57.535461 
L 32.652552 57.442238 
L 32.167428 57.404552 
L 31.682305 57.366866 
L 31.197181 57.32918 
L 30.712057 57.291494 
L 30.23124 57.254266 
L 29.750422 57.217038 
" clip-path="url(#pea182624ab)" style="fill: none; stroke: #008000; stroke-width: 0.4; stroke-linecap: square"/>
   </g>
   <g id="line2d_32">
    <path d="M 27.772118 58.484628 
L 27.267354 58.486154 
L 26.76259 58.48768 
L 26.338172 58.438856 
L 25.913755 58.390032 
L 25.489337 58.341208 
L 25.064919 58.292384 
L 24.691755 58.615232 
L 24.318592 58.93808 
L 23.945428 59.260928 
L 23.572264 59.583776 
L 23.122114 59.619326 
L 22.671965 59.654876 
L 22.221815 59.690426 
L 21.771666 59.725976 
L 21.078692 59.608951 
L 20.385718 59.491926 
L 19.692745 59.374901 
L 18.999771 59.257877 
L 18.448059 59.042289 
L 17.896348 58.826701 
L 17.344637 58.611113 
L 16.792925 58.395524 
L 16.200778 58.158423 
L 15.608631 57.921322 
L 15.401306 57.359237 
L 15.193981 56.797152 
L 14.986656 56.235067 
L 14.779331 55.672982 
L 14.424022 55.285137 
L 14.068713 54.897292 
L 13.713403 54.509447 
L 13.358094 54.121602 
L 12.756915 53.831405 
L 12.155735 53.541208 
L 11.554556 53.251011 
L 10.953376 52.960814 
L 10.583258 52.713185 
L 10.21314 52.465556 
L 9.843022 52.217928 
L 9.472904 51.970299 
L 8.728361 51.741894 
L 7.983819 51.51349 
L 7.239276 51.285086 
L 6.494734 51.056682 
" clip-path="url(#pea182624ab)" style="fill: none; stroke: #4169e1; stroke-width: 0.4; stroke-linecap: square"/>
   </g>
   <g id="line2d_33">
    <path d="M 40.935049 52.441449 
L 40.462818 52.434374 
L 39.990586 52.427298 
L 39.518355 52.420223 
L 39.046123 52.413147 
L 38.573891 52.406071 
L 38.10166 52.398996 
L 37.629428 52.39192 
L 37.157197 52.384844 
L 36.684965 52.377769 
L 36.212734 52.370693 
L 35.740502 52.363617 
L 35.268271 52.356542 
L 34.796039 52.349466 
L 34.323808 52.34239 
L 33.851576 52.335315 
L 33.379345 52.328239 
L 32.907113 52.321163 
L 32.434882 52.314088 
L 31.96265 52.307012 
L 31.490419 52.299936 
L 31.018187 52.292861 
L 30.545956 52.285785 
L 30.073724 52.278709 
L 29.601493 52.271634 
L 29.129261 52.264558 
L 28.65703 52.257483 
L 28.184798 52.250407 
L 27.712567 52.243331 
L 27.240335 52.236256 
L 26.768104 52.22918 
L 26.295872 52.222104 
L 25.823641 52.215029 
" clip-path="url(#pea182624ab)" style="fill: none; stroke: #008000; stroke-width: 0.4; stroke-linecap: square"/>
   </g>
   <g id="line2d_34">
    <path d="M 25.823641 52.215029 
L 25.106064 52.204272 
L 24.388488 52.193516 
L 23.670911 52.182759 
L 22.953334 52.172003 
L 22.235758 52.161246 
L 21.518181 52.15049 
L 20.800605 52.139733 
L 20.083028 52.128976 
L 19.365451 52.11822 
L 18.647875 52.107463 
L 17.930298 52.096707 
L 17.212722 52.08595 
L 16.495145 52.075194 
L 15.777569 52.064437 
L 15.059992 52.053681 
L 14.342415 52.042924 
L 13.733726 52.033846 
L 13.125037 52.024768 
L 12.516348 52.01569 
L 11.90766 52.006612 
L 11.298971 51.997533 
L 10.690282 51.988455 
L 10.081593 51.979377 
L 9.472904 51.970299 
" clip-path="url(#pea182624ab)" style="fill: none; stroke: #4169e1; stroke-width: 0.4; stroke-linecap: square"/>
   </g>
   <g id="line2d_35">
    <path d="M 30.712057 57.291494 
L 30.115342 56.817597 
L 29.518626 56.3437 
L 28.92191 55.869803 
L 28.325194 55.395906 
L 27.728478 54.922009 
L 27.131763 54.448112 
L 26.535047 53.974215 
L 25.938331 53.500318 
L 25.835089 52.722645 
L 25.731846 51.944971 
L 25.628604 51.167298 
L 25.525362 50.389625 
L 25.1794 49.912676 
L 24.833438 49.435728 
L 24.487476 48.958779 
L 24.141515 48.481831 
L 23.712581 47.890451 
L 23.691995 47.138258 
L 23.67141 46.386065 
L 23.109721 46.307336 
L 22.548032 46.228608 
L 21.986343 46.149879 
L 21.424654 46.071151 
L 20.818328 45.92712 
L 20.212002 45.78309 
L 19.605676 45.639059 
L 18.999351 45.495029 
L 18.381052 45.087349 
L 17.762753 44.679669 
L 17.144454 44.27199 
L 16.526155 43.86431 
L 16.146899 43.702657 
L 15.767643 43.541004 
L 15.388388 43.379352 
L 15.009132 43.217699 
L 14.629877 43.056046 
L 14.250621 42.894393 
L 13.871365 42.73274 
L 13.49211 42.571087 
L 13.135015 42.360992 
L 12.77792 42.150896 
L 12.420826 41.940801 
L 12.063731 41.730706 
L 11.650866 41.487807 
L 11.238002 41.244908 
L 10.825137 41.002009 
L 10.412273 40.75911 
L 9.926519 40.532079 
L 9.440765 40.305048 
L 8.955011 40.078017 
L 8.469257 39.850985 
L 7.787417 39.532104 
L 7.105576 39.213223 
" clip-path="url(#pea182624ab)" style="fill: none; stroke: #4169e1; stroke-width: 0.4; stroke-linecap: square"/>
   </g>
   <g id="line2d_36">
    <path d="M 24.141515 48.481831 
L 23.683436 48.395931 
L 23.225357 48.310032 
L 22.767278 48.224132 
L 22.309199 48.138233 
L 21.85112 48.052333 
L 21.393041 47.966434 
L 20.934962 47.880534 
L 20.476882 47.794634 
L 20.018803 47.708735 
L 19.560724 47.622835 
L 19.102645 47.536936 
L 18.644566 47.451036 
L 18.186487 47.365137 
L 17.728408 47.279237 
L 17.270329 47.193338 
L 16.81225 47.107438 
L 16.090079 46.874914 
L 15.367907 46.64239 
L 14.645736 46.409866 
L 13.923564 46.177343 
L 13.360825 45.617699 
L 12.798086 45.058055 
L 12.798086 44.59911 
L 12.798086 44.140165 
L 12.798086 43.681221 
L 12.798086 43.222276 
L 12.614497 42.849383 
L 12.430908 42.476491 
L 12.24732 42.103598 
L 12.063731 41.730706 
" clip-path="url(#pea182624ab)" style="fill: none; stroke: #4169e1; stroke-width: 0.4; stroke-linecap: square"/>
   </g>
   <g id="line2d_37">
    <path d="M 14.342415 52.042924 
L 14.146013 51.31972 
L 13.949611 50.596516 
L 13.671681 50.242467 
L 13.393751 49.888417 
L 13.115821 49.534367 
L 12.837891 49.180318 
L 12.559961 48.826268 
L 12.282031 48.472219 
L 12.004101 48.118169 
L 11.726171 47.76412 
L 11.448241 47.41007 
L 11.170311 47.05602 
L 10.892381 46.701971 
L 10.614451 46.347921 
L 10.336522 45.993872 
L 10.058592 45.639822 
L 9.780662 45.285772 
L 9.502732 44.931723 
L 9.377013 44.303268 
L 9.251295 43.674812 
L 9.125577 43.046357 
L 8.999858 42.417902 
L 8.867208 41.776173 
L 8.734558 41.134444 
L 8.601908 40.492715 
L 8.469257 39.850985 
" clip-path="url(#pea182624ab)" style="fill: none; stroke: #008000; stroke-width: 0.4; stroke-linecap: square"/>
   </g>
   <g id="line2d_38">
    <path d="M 34.198982 46.088239 
L 33.508319 46.107769 
L 32.817656 46.127298 
L 32.246016 46.143471 
L 31.674375 46.159644 
L 31.102735 46.175817 
L 30.531094 46.19199 
L 29.959454 46.208163 
L 29.387814 46.224336 
L 28.816173 46.240509 
L 28.244533 46.256682 
L 27.672892 46.272854 
L 27.101252 46.289027 
L 26.529612 46.3052 
L 25.957971 46.321373 
L 25.386331 46.337546 
L 24.814691 46.353719 
L 24.24305 46.369892 
L 23.67141 46.386065 
" clip-path="url(#pea182624ab)" style="fill: none; stroke: #008000; stroke-width: 0.4; stroke-linecap: square"/>
   </g>
   <g id="line2d_39">
    <path d="M 36.959535 66.627845 
L 36.35657 67.152702 
L 35.753605 67.677559 
L 35.15064 68.202416 
L 34.547675 68.727273 
L 34.493612 68.021024 
L 34.439549 67.314774 
L 34.385486 66.608525 
L 34.331422 65.902276 
L 34.277359 65.196027 
L 34.223296 64.489777 
L 34.169233 63.783528 
L 34.11517 63.077279 
L 34.061107 62.37103 
L 34.007044 61.664781 
L 33.952981 60.958531 
L 33.898918 60.252282 
L 33.844855 59.546033 
L 33.790792 58.839784 
L 33.736728 58.133535 
L 33.682665 57.427285 
L 33.628602 56.721036 
L 33.574539 56.014787 
L 33.520476 55.308538 
L 33.466413 54.602289 
L 33.41235 53.896039 
L 33.358287 53.18979 
L 33.304224 52.483541 
L 33.250161 51.777292 
L 33.196098 51.071043 
L 33.142034 50.364793 
L 33.087971 49.658544 
L 33.033908 48.952295 
L 32.979845 48.246046 
L 32.925782 47.539797 
L 32.871719 46.833547 
L 32.817656 46.127298 
" clip-path="url(#pea182624ab)" style="fill: none; stroke: #008000; stroke-width: 0.4; stroke-linecap: square"/>
   </g>
  </g>
 </g>
 <defs>
  <clipPath id="pea182624ab">
   <rect x="0" y="0" width="83.039268" height="72"/>
  </clipPath>
 </defs>
</svg>
