<?xml version="1.0" encoding="utf-8" standalone="no"?>
<!DOCTYPE svg PUBLIC "-//W3C//DTD SVG 1.1//EN"
  "http://www.w3.org/Graphics/SVG/1.1/DTD/svg11.dtd">
<svg height="72pt" version="1.1" viewBox="0 0 82.587989 72" width="82.587989pt" xmlns="http://www.w3.org/2000/svg" xmlns:xlink="http://www.w3.org/1999/xlink">
 <metadata>
  <rdf:RDF xmlns:cc="http://creativecommons.org/ns#" xmlns:dc="http://purl.org/dc/elements/1.1/" xmlns:rdf="http://www.w3.org/1999/02/22-rdf-syntax-ns#">
   <cc:Work>
    <dc:type rdf:resource="http://purl.org/dc/dcmitype/StillImage"/>
    <dc:date>2022-05-22T19:36:24.450025</dc:date>
    <dc:format>image/svg+xml</dc:format>
    <dc:creator>
     <cc:Agent>
      <dc:title>Matplotlib v3.4.3, https://matplotlib.org/</dc:title>
     </cc:Agent>
    </dc:creator>
   </cc:Work>
  </rdf:RDF>
 </metadata>
 <defs>
  <style type="text/css">*{stroke-linecap:butt;stroke-linejoin:round;}</style>
 </defs>
 <g id="figure_1">
  <g id="patch_1">
   <path d="M 0 72 
L 82.587989 72 
L 82.587989 0 
L 0 0 
z
" style="fill:#ffffff;"/>
  </g>
  <g id="axes_1">
   <g id="line2d_1">
    <path clip-path="url(#p969e81a712)" d="M 51.960288 66.163158 
L 52.636733 65.305509 
L 53.123852 64.688403 
L 53.610972 64.071296 
L 54.141781 63.398838 
L 54.672591 62.72638 
L 55.259791 61.982672 
L 55.84699 61.238964 
L 56.363936 60.584171 
L 56.880881 59.929378 
L 57.424507 59.240727 
L 57.968132 58.552076 
L 58.556497 57.806748 
L 59.144861 57.061421 
L 59.748722 56.296368 
L 60.352582 55.531314 
L 61.025764 54.67867 
L 61.698947 53.826027 
L 62.378537 52.965139 
L 63.058127 52.104251 
L 63.747388 51.230998 
L 64.436648 50.357745 
L 65.120083 49.491999 
L 65.803518 48.626254 
L 66.535887 47.698385 
L 67.268255 46.770517 
L 67.968351 45.88372 
L 68.668446 44.996923 
L 69.383105 44.091431 
L 70.097765 43.185938 
L 70.901902 42.167535 
L 71.219502 41.766534 
" style="fill:none;stroke:#808080;stroke-linecap:square;stroke-width:0.4;"/>
   </g>
   <g id="line2d_2">
    <path clip-path="url(#p969e81a712)" d="M 42.095801 41.213905 
L 41.211041 40.308854 
L 40.595413 39.677468 
L 39.979786 39.046082 
L 39.3334 38.38334 
L 38.687015 37.720598 
L 37.984822 37.00059 
L 37.282629 36.280583 
L 36.541989 35.521124 
L 35.801348 34.761664 
L 35.097291 34.039596 
L 34.393234 33.317528 
L 33.752791 32.660675 
L 33.112347 32.003821 
L 32.487166 31.362866 
L 31.861985 30.721911 
L 31.219677 30.063144 
L 30.577369 29.404376 
L 29.998092 28.810381 
L 29.418815 28.216387 
L 28.684699 27.463404 
L 27.950583 26.710422 
L 27.136077 25.875296 
L 26.32157 25.040171 
L 25.849364 24.555921 
L 25.377158 24.071672 
L 24.904951 23.587423 
L 24.432745 23.103173 
L 23.697115 22.348719 
L 22.961484 21.594265 
L 22.257544 20.872344 
L 21.553603 20.150423 
L 21.0119 19.594924 
L 20.470197 19.039425 
L 19.928493 18.483925 
L 19.38679 17.928426 
L 18.587197 17.108463 
L 17.787603 16.2885 
L 17.068983 15.551417 
L 16.350362 14.814333 
L 15.62615 14.07092 
" style="fill:none;stroke:#808080;stroke-linecap:square;stroke-width:0.4;"/>
   </g>
   <g id="line2d_3">
    <path clip-path="url(#p969e81a712)" d="M 22.3871 43.162679 
L 21.666849 42.375397 
L 21.214682 41.879739 
L 20.762515 41.384081 
L 20.255822 40.828802 
L 19.749129 40.273524 
L 19.170551 39.639488 
L 18.591973 39.005452 
L 17.976812 38.331227 
L 17.361651 37.657003 
L 16.776199 37.015312 
L 16.190747 36.373621 
L 15.71388 35.851023 
L 15.237013 35.328425 
L 14.658552 34.694536 
L 14.08009 34.060647 
L 13.499415 33.424256 
L 12.91874 32.787865 
L 12.31989 32.131453 
L 11.721039 31.47504 
L 11.21423 30.919615 
L 10.707421 30.364189 
L 10.034472 29.626517 
L 9.361522 28.888845 
L 8.71805 28.183559 
L 8.074577 27.478273 
L 7.455337 26.799632 
L 6.836098 26.120991 
L 6.323697 25.559235 
" style="fill:none;stroke:#808080;stroke-linecap:square;stroke-width:0.4;"/>
   </g>
   <g id="line2d_4">
    <path clip-path="url(#p969e81a712)" d="M 52.948508 25.85925 
L 51.844246 25.803899 
L 50.768995 25.75002 
L 49.693745 25.696141 
L 48.912326 25.65713 
L 48.130908 25.618119 
L 47.129756 25.567921 
L 46.128604 25.517722 
L 45.243028 25.473411 
L 44.357452 25.429101 
L 43.178159 25.369922 
L 41.998867 25.310744 
L 40.911033 25.256276 
L 39.823199 25.201808 
L 38.698899 25.145426 
L 37.574598 25.089044 
L 36.597563 25.040171 
L 35.620528 24.991297 
L 35.229528 24.971865 
L 34.525937 24.936534 
L 33.822346 24.901204 
" style="fill:none;stroke:#808080;stroke-linecap:square;stroke-width:0.4;"/>
   </g>
   <g id="line2d_5">
    <path clip-path="url(#p969e81a712)" d="M 35.711171 10.710396 
L 34.625085 10.847891 
L 33.799277 10.952705 
L 32.97347 11.057518 
L 32.017756 11.17882 
L 31.062042 11.300122 
L 30.072075 11.425839 
L 29.082107 11.551557 
L 28.088295 11.67757 
L 27.094483 11.803582 
L 26.300133 11.904421 
L 25.505782 12.00526 
L 24.512203 12.13142 
L 23.518624 12.257579 
L 22.513511 12.395368 
L 21.508398 12.533158 
L 20.580646 12.629875 
L 19.652894 12.726592 
L 18.739239 12.841122 
L 17.825585 12.955652 
L 17.111741 13.045303 
L 16.397898 13.134955 
L 15.972411 13.188539 
" style="fill:none;stroke:#808080;stroke-linecap:square;stroke-width:0.4;"/>
   </g>
   <g id="line2d_6">
    <path clip-path="url(#p969e81a712)" d="M 46.27354 68.037738 
L 46.545236 66.965751 
L 46.846992 65.783355 
L 47.152708 64.584766 
L 47.320596 63.927029 
L 47.488484 63.269292 
L 47.65742 62.607139 
L 47.826357 61.944986 
L 48.003565 61.250593 
L 48.180774 60.556201 
L 48.398643 59.677648 
" style="fill:none;stroke:#808080;stroke-linecap:square;stroke-width:0.4;"/>
   </g>
   <g id="line2d_7">
    <path clip-path="url(#p969e81a712)" d="M 41.273722 42.444291 
L 40.378476 42.208754 
L 39.650768 42.017381 
L 38.92306 41.826007 
L 38.192206 41.63375 
L 37.461352 41.441493 
L 36.679351 41.235692 
L 35.897351 41.029892 
L 35.146691 40.832483 
L 34.396031 40.635073 
L 33.600165 40.42574 
L 32.8043 40.216406 
L 31.981871 40.000007 
L 31.159442 39.783607 
L 30.2981 39.55705 
L 29.436757 39.330493 
L 28.496306 39.083032 
L 27.555855 38.835571 
L 26.501459 38.558226 
L 25.447062 38.280881 
L 24.779705 38.105406 
L 24.332781 37.987638 
L 23.886323 37.870164 
" style="fill:none;stroke:#808080;stroke-linecap:square;stroke-width:0.4;"/>
   </g>
   <g id="line2d_8">
    <path clip-path="url(#p969e81a712)" d="M 55.081767 28.896499 
L 55.960469 28.816123 
L 56.8302 28.736629 
L 57.699931 28.657135 
L 58.741861 28.561743 
L 59.783791 28.46635 
L 60.972054 28.357709 
L 62.160318 28.249067 
L 63.287997 28.145873 
L 64.415677 28.042678 
L 65.400751 27.952585 
L 66.385824 27.862492 
L 67.149533 27.792641 
L 67.913242 27.722789 
L 68.676951 27.652938 
L 69.44066 27.583086 
L 70.210661 27.512646 
L 70.980661 27.442206 
L 71.750662 27.371766 
L 72.520662 27.301325 
L 73.366625 27.228603 
L 74.212589 27.155881 
L 75.058552 27.083159 
L 75.904516 27.010437 
L 76.735217 26.927558 
L 77.565918 26.844678 
L 78.137039 26.78756 
" style="fill:none;stroke:#808080;stroke-linecap:square;stroke-width:0.4;"/>
   </g>
   <g id="line2d_9">
    <path clip-path="url(#p969e81a712)" d="M 51.631969 68.727273 
L 52.465758 68.68782 
L 53.299546 68.648368 
L 54.133334 68.608915 
L 54.967123 68.569463 
" style="fill:none;stroke:#808080;stroke-linecap:square;stroke-width:0.4;"/>
   </g>
   <g id="line2d_10">
    <path clip-path="url(#p969e81a712)" d="M 71.752642 41.858099 
L 71.586502 42.040051 
L 71.420362 42.222003 
L 71.254222 42.403956 
L 71.088081 42.585908 
L 70.86561 42.901601 
L 70.643138 43.217294 
L 70.420666 43.532987 
L 70.198194 43.848681 
L 70.05687 43.988457 
L 69.915546 44.128234 
L 69.774222 44.26801 
L 69.632898 44.407786 
L 69.491574 44.547563 
L 69.35025 44.687339 
L 69.208926 44.827116 
L 69.067602 44.966892 
L 68.918006 45.170558 
L 68.76841 45.374224 
L 68.618814 45.57789 
L 68.469218 45.781556 
L 68.319622 45.985222 
L 68.170026 46.188888 
L 68.02043 46.392553 
L 67.870834 46.596219 
L 67.721237 46.799885 
L 67.571641 47.003551 
L 67.422045 47.207217 
L 67.272449 47.410883 
L 67.122853 47.614549 
L 66.973257 47.818215 
L 66.823661 48.02188 
L 66.674065 48.225546 
L 66.534255 48.376603 
L 66.394446 48.527659 
L 66.254637 48.678716 
L 66.114827 48.829772 
L 65.975018 48.980829 
L 65.835208 49.131885 
L 65.695399 49.282942 
L 65.555589 49.433998 
L 65.41578 49.585055 
L 65.275971 49.736111 
L 65.136161 49.887168 
L 64.996352 50.038224 
L 64.856542 50.189281 
L 64.716733 50.340337 
L 64.576924 50.491393 
L 64.437114 50.64245 
L 64.305402 50.809534 
L 64.17369 50.976618 
L 64.041978 51.143702 
L 63.910266 51.310786 
L 63.778553 51.47787 
L 63.646841 51.644954 
L 63.515129 51.812038 
L 63.383417 51.979122 
L 63.251705 52.146206 
L 63.119993 52.31329 
L 62.988281 52.480374 
L 62.856569 52.647458 
L 62.724856 52.814542 
L 62.593144 52.981626 
L 62.461432 53.148711 
L 62.32972 53.315795 
" style="fill:none;stroke:#4169e1;stroke-linecap:square;stroke-width:0.4;"/>
   </g>
   <g id="line2d_11">
    <path clip-path="url(#p969e81a712)" d="M 23.886323 37.870164 
L 23.584335 37.893128 
L 23.313687 38.013399 
L 23.043039 38.133671 
L 22.79045 38.302079 
L 22.586096 38.554693 
L 22.46586 38.831154 
L 22.50186 39.137794 
L 22.537861 39.444434 
L 22.634097 39.663925 
L 22.730332 39.883416 
L 22.826568 40.102907 
L 22.922803 40.322398 
L 23.074642 40.496769 
L 23.226481 40.67114 
L 23.37832 40.845511 
L 23.530159 41.019882 
L 23.681998 41.194253 
L 23.833836 41.368624 
L 23.985675 41.542994 
L 24.137514 41.717365 
L 24.357015 41.836091 
L 24.576516 41.954816 
L 24.796017 42.073542 
L 25.015517 42.192267 
L 25.235018 42.310992 
L 25.454519 42.429718 
L 25.67402 42.548443 
L 25.893521 42.667168 
L 26.197198 42.766388 
L 26.500876 42.865608 
L 26.804554 42.964828 
L 27.108231 43.064048 
L 27.339791 43.100115 
L 27.57135 43.136181 
L 27.802909 43.172248 
L 28.034469 43.208314 
L 28.290029 43.212841 
L 28.545589 43.217368 
L 28.801149 43.221895 
L 29.056709 43.226421 
L 29.312269 43.230948 
L 29.567829 43.235475 
L 29.823389 43.240002 
L 30.078949 43.244528 
L 30.373713 43.214497 
L 30.668478 43.184466 
L 30.903009 43.130293 
L 31.137539 43.076119 
L 31.372069 43.021946 
L 31.6066 42.967772 
L 31.845615 42.952757 
L 32.084631 42.937741 
L 32.323647 42.922726 
L 32.562663 42.90771 
L 32.801679 42.892695 
L 33.040695 42.877679 
L 33.279711 42.862664 
L 33.518726 42.847648 
L 33.798607 42.87779 
L 34.078488 42.907931 
L 34.358369 42.938073 
L 34.63825 42.968214 
L 34.918131 42.998355 
L 35.198012 43.028497 
L 35.477893 43.058638 
L 35.757774 43.088779 
L 36.008674 43.090914 
L 36.259574 43.093049 
L 36.510473 43.095183 
L 36.761373 43.097318 
L 37.07175 43.075972 
L 37.382127 43.054627 
L 37.743534 42.95261 
L 38.104942 42.850593 
L 38.283665 42.740185 
L 38.640761 42.684834 
L 38.997858 42.629482 
L 39.325303 42.618883 
L 39.652748 42.608284 
L 39.980194 42.597685 
L 40.307639 42.587086 
L 40.54916 42.551387 
L 40.790681 42.515689 
L 41.032201 42.47999 
L 41.273722 42.444291 
" style="fill:none;stroke:#4169e1;stroke-linecap:square;stroke-width:0.4;"/>
   </g>
   <g id="line2d_12">
    <path clip-path="url(#p969e81a712)" d="M 9.768601 33.661118 
L 9.898128 33.815229 
L 10.027656 33.96934 
L 10.157184 34.123451 
L 10.286711 34.277562 
L 10.416239 34.431673 
L 10.545766 34.585785 
L 10.675294 34.739896 
L 10.804822 34.894007 
L 10.934349 35.048118 
L 11.063877 35.202229 
L 11.193404 35.35634 
L 11.322932 35.510451 
L 11.45246 35.664562 
L 11.581987 35.818673 
L 11.711515 35.972784 
L 11.841043 36.126896 
L 11.959822 36.290741 
L 12.078602 36.454586 
L 12.197382 36.618432 
L 12.316162 36.782277 
L 12.434941 36.946123 
L 12.553721 37.109968 
L 12.672501 37.273813 
L 12.791281 37.437659 
L 13.013039 37.660112 
L 13.234797 37.882566 
L 13.456555 38.10502 
L 13.678313 38.327473 
L 13.900071 38.549927 
L 14.121829 38.772381 
L 14.343587 38.994834 
L 14.565346 39.217288 
L 14.787104 39.439741 
L 15.008862 39.662195 
L 15.23062 39.884649 
L 15.452378 40.107102 
L 15.674136 40.329556 
L 15.895894 40.55201 
L 16.117653 40.774463 
L 16.339411 40.996917 
L 16.585941 41.189321 
L 16.832472 41.381725 
L 17.051973 41.503505 
L 17.271473 41.625285 
L 17.490974 41.747065 
L 17.710475 41.868845 
L 17.929976 41.990625 
L 18.149477 42.112405 
L 18.368977 42.234185 
L 18.588478 42.355965 
L 18.78692 42.434097 
L 18.985362 42.512229 
L 19.183804 42.590361 
L 19.382246 42.668493 
L 19.580688 42.746625 
L 19.77913 42.824757 
L 19.977572 42.902889 
L 20.176014 42.981021 
L 20.422545 43.167537 
L 20.669075 43.354053 
L 20.855721 43.433031 
L 21.042367 43.51201 
L 21.229012 43.590988 
L 21.415658 43.669967 
" style="fill:none;stroke:#4169e1;stroke-linecap:square;stroke-width:0.4;"/>
   </g>
   <g id="line2d_13">
    <path clip-path="url(#p969e81a712)" d="M 67.463522 41.212433 
L 67.346752 41.461182 
L 67.229982 41.709931 
L 67.113212 41.95868 
L 66.996442 42.20743 
L 66.879672 42.456179 
L 66.762902 42.704928 
L 66.646132 42.953677 
L 66.529362 43.202426 
L 66.474079 43.410729 
L 66.418796 43.619032 
L 66.363513 43.827335 
L 66.30823 44.035638 
L 66.252947 44.243941 
L 66.197664 44.452244 
L 66.142381 44.660547 
L 66.087098 44.86885 
L 66.027563 45.185574 
L 65.968027 45.502297 
L 65.908492 45.819021 
L 65.848956 46.135745 
L 65.789421 46.452468 
L 65.729885 46.769192 
L 65.67035 47.085915 
L 65.610814 47.402639 
L 65.513006 47.708763 
L 65.415198 48.014888 
L 65.317389 48.321012 
L 65.219581 48.627137 
L 65.017702 48.909597 
L 64.815823 49.192057 
L 64.613944 49.474518 
L 64.412065 49.756978 
L 64.210186 50.039439 
L 64.008307 50.321899 
L 63.806428 50.604359 
L 63.604549 50.88682 
L 63.445195 51.190441 
L 63.285842 51.494063 
L 63.126488 51.797685 
L 62.967135 52.101307 
L 62.807781 52.404929 
L 62.648427 52.708551 
L 62.489074 53.012173 
L 62.32972 53.315795 
L 62.164337 53.571352 
L 61.998954 53.82691 
L 61.833571 54.082467 
L 61.668189 54.338025 
L 61.533637 54.498853 
L 61.399085 54.65968 
L 61.264532 54.820508 
L 61.12998 54.981335 
L 60.995428 55.142163 
L 60.860876 55.302991 
L 60.726324 55.463818 
L 60.591772 55.624646 
L 60.45722 55.785473 
L 60.322668 55.946301 
L 60.188116 56.107128 
L 60.053564 56.267956 
L 59.919012 56.428784 
L 59.78446 56.589611 
L 59.649908 56.750439 
L 59.515356 56.911266 
L 59.316885 57.22085 
L 59.118414 57.530434 
L 58.919943 57.840018 
L 58.721472 58.149602 
L 58.529846 58.377079 
L 58.338219 58.604556 
L 58.146593 58.832034 
L 57.954967 59.059511 
L 57.76334 59.286988 
L 57.571714 59.514465 
L 57.380088 59.741942 
L 57.188462 59.969419 
L 57.061381 60.123733 
L 56.9343 60.278046 
L 56.807219 60.43236 
L 56.680138 60.586674 
L 56.553057 60.740987 
L 56.425976 60.895301 
L 56.298895 61.049614 
L 56.171814 61.203928 
L 56.013203 61.423363 
L 55.854592 61.642799 
L 55.695981 61.862235 
L 55.537371 62.081671 
L 55.37876 62.301107 
L 55.220149 62.520542 
L 55.061538 62.739978 
L 54.902927 62.959414 
L 54.744316 63.17885 
L 54.585705 63.398286 
L 54.427094 63.617721 
L 54.268484 63.837157 
L 54.109873 64.056593 
L 53.951262 64.276029 
L 53.792651 64.495465 
L 53.63404 64.7149 
L 53.476172 64.905759 
L 53.318304 65.096618 
L 53.160436 65.287476 
L 53.002568 65.478335 
L 52.844699 65.669193 
L 52.686831 65.860052 
L 52.528963 66.05091 
L 52.371095 66.241769 
" style="fill:none;stroke:#008000;stroke-linecap:square;stroke-width:0.4;"/>
   </g>
   <g id="line2d_14">
    <path clip-path="url(#p969e81a712)" d="M 65.226338 42.174602 
L 65.136773 42.492245 
L 65.047207 42.809889 
L 64.957642 43.127533 
L 64.868077 43.445176 
L 64.778511 43.76282 
L 64.688946 44.080464 
L 64.59938 44.398107 
L 64.509815 44.715751 
L 64.367355 44.975099 
L 64.224895 45.234448 
L 64.082435 45.493796 
L 63.939975 45.753144 
L 63.797515 46.012492 
L 63.655055 46.271841 
L 63.512595 46.531189 
L 63.370135 46.790537 
L 63.227675 47.049886 
L 63.085215 47.309234 
L 62.942755 47.568582 
L 62.800295 47.82793 
L 62.657835 48.087279 
L 62.515375 48.346627 
L 62.372915 48.605975 
L 62.230455 48.865324 
L 62.14121 49.184182 
L 62.051965 49.50304 
L 61.96272 49.821898 
L 61.873475 50.140756 
L 61.855067 50.340889 
L 61.836659 50.541022 
L 61.818251 50.741155 
L 61.799842 50.941288 
L 61.721666 51.250871 
L 61.643489 51.560455 
L 61.565312 51.870039 
L 61.487135 52.179623 
L 61.351811 52.36901 
L 61.216488 52.558396 
L 61.081164 52.747782 
L 60.94584 52.937169 
L 60.837604 53.13859 
L 60.729368 53.340011 
L 60.621132 53.541432 
L 60.512897 53.742853 
L 60.404661 53.944273 
L 60.296425 54.145694 
L 60.188189 54.347115 
L 60.079953 54.548536 
L 59.937115 54.754447 
L 59.794276 54.960358 
L 59.651438 55.166269 
L 59.508599 55.372179 
L 59.36576 55.57809 
L 59.222922 55.784001 
L 59.080083 55.989912 
L 58.937244 56.195823 
L 58.748735 56.518729 
L 58.560225 56.841636 
L 58.371715 57.164542 
L 58.183206 57.487449 
L 57.994696 57.810355 
L 57.806186 58.133262 
L 57.617677 58.456168 
L 57.429167 58.779075 
" style="fill:none;stroke:#008000;stroke-linecap:square;stroke-width:0.4;"/>
   </g>
   <g id="line2d_15">
    <path clip-path="url(#p969e81a712)" d="M 6.323697 25.559235 
L 6.405107 25.758889 
L 6.486516 25.958544 
L 6.567926 26.158198 
L 6.649336 26.357853 
L 6.730746 26.557507 
L 6.812156 26.757161 
L 6.893566 26.956816 
L 6.974976 27.15647 
L 7.106804 27.34144 
L 7.238633 27.52641 
L 7.370461 27.711381 
L 7.50229 27.896351 
L 7.634119 28.081321 
L 7.765947 28.266291 
L 7.897776 28.451261 
L 8.029605 28.636231 
L 8.174191 28.921084 
L 8.318777 29.205936 
L 8.463363 29.490789 
L 8.60795 29.775641 
L 8.68049 30.018484 
L 8.753031 30.261326 
L 8.825572 30.504168 
L 8.898112 30.74701 
L 8.970653 30.989853 
L 9.043194 31.232695 
L 9.115735 31.475537 
L 9.188275 31.71838 
L 9.260816 31.961222 
L 9.333357 32.204064 
L 9.405897 32.446906 
L 9.478438 32.689749 
L 9.550979 32.932591 
L 9.623519 33.175433 
L 9.69606 33.418276 
L 9.768601 33.661118 
L 9.836117 33.862097 
L 9.903633 34.063076 
L 9.97115 34.264056 
L 10.038666 34.465035 
L 10.106182 34.666014 
L 10.173699 34.866994 
L 10.241215 35.067973 
L 10.308731 35.268952 
L 10.402287 35.638856 
L 10.495843 36.008759 
L 10.589399 36.378662 
L 10.682954 36.748566 
L 10.77651 37.118469 
L 10.870066 37.488373 
L 10.963622 37.858276 
L 11.057178 38.22818 
L 11.227279 38.508763 
L 11.397381 38.789347 
L 11.567482 39.06993 
L 11.737584 39.350513 
L 11.918302 39.519511 
L 12.09902 39.688509 
L 12.279738 39.857507 
L 12.460456 40.026504 
L 12.641175 40.195502 
L 12.821893 40.3645 
L 13.002611 40.533498 
L 13.183329 40.702496 
L 13.364048 40.871493 
L 13.544766 41.040491 
L 13.725484 41.209489 
L 13.906202 41.378487 
L 14.086921 41.547484 
L 14.267639 41.716482 
L 14.448357 41.88548 
L 14.629075 42.054478 
L 14.752399 42.252182 
L 14.875723 42.449885 
L 14.999046 42.647589 
L 15.12237 42.845293 
L 15.245693 43.042997 
L 15.369017 43.240701 
L 15.49234 43.438405 
L 15.615664 43.636108 
L 15.77726 43.797599 
L 15.938857 43.959089 
L 16.142978 44.044176 
L 16.3471 44.129264 
L 16.682992 44.133533 
L 17.018884 44.137802 
L 17.354777 44.142071 
L 17.690669 44.14634 
L 17.924558 44.101699 
L 18.158448 44.057057 
L 18.392337 44.012416 
L 18.626227 43.967774 
L 18.860116 43.923132 
L 19.094006 43.878491 
L 19.327895 43.833849 
L 19.561785 43.789207 
L 19.793519 43.774302 
L 20.025253 43.759397 
L 20.256987 43.744492 
L 20.488721 43.729587 
L 20.720455 43.714682 
L 20.95219 43.699777 
L 21.183924 43.684872 
L 21.415658 43.669967 
L 21.658518 43.543145 
L 21.901379 43.416323 
L 22.14424 43.289501 
L 22.3871 43.162679 
" style="fill:none;stroke:#4169e1;stroke-linecap:square;stroke-width:0.4;"/>
   </g>
   <g id="line2d_16">
    <path clip-path="url(#p969e81a712)" d="M 23.886323 37.870164 
L 23.692687 37.621966 
L 23.499051 37.373769 
L 23.499051 37.073165 
L 23.631288 36.802592 
L 23.763524 36.532019 
L 23.943529 36.439276 
L 24.123533 36.346534 
L 24.361209 36.351833 
L 24.598885 36.357133 
L 24.920796 36.46018 
L 25.242708 36.563228 
L 25.523783 36.667232 
L 25.804858 36.771236 
L 26.085933 36.875241 
L 26.367008 36.979245 
L 26.566004 37.075889 
L 26.764999 37.172532 
L 26.963995 37.269176 
L 27.16299 37.36582 
L 27.361986 37.462464 
L 27.560981 37.559108 
L 27.759976 37.655751 
L 27.958972 37.752395 
L 28.252339 37.913959 
L 28.545705 38.075522 
L 28.839072 38.237086 
L 29.132439 38.39865 
L 29.381824 38.53688 
L 29.631209 38.675111 
L 29.880594 38.813342 
L 30.129979 38.951573 
L 30.379364 39.089803 
L 30.628749 39.228034 
L 30.878134 39.366265 
L 31.127519 39.504496 
L 31.348331 39.658588 
L 31.569142 39.812681 
L 31.789954 39.966774 
L 32.010765 40.120866 
L 32.231577 40.274959 
L 32.452388 40.429052 
L 32.6732 40.583145 
L 32.894011 40.737237 
L 33.114823 40.89133 
L 33.335634 41.045423 
L 33.556446 41.199515 
L 33.777257 41.353608 
L 33.998069 41.507701 
L 34.21888 41.661793 
L 34.439692 41.815886 
L 34.660503 41.969979 
L 34.934821 42.249679 
L 35.209139 42.529379 
L 35.483457 42.809079 
L 35.757774 43.088779 
" style="fill:none;stroke:#008000;stroke-linecap:square;stroke-width:0.4;"/>
   </g>
   <g id="line2d_17">
    <path clip-path="url(#p969e81a712)" d="M 78.137039 26.78756 
L 78.376813 26.973929 
L 78.569284 27.214471 
L 78.71352 27.479156 
L 78.797872 27.77976 
L 78.833989 28.092435 
L 78.827931 28.399075 
L 78.821873 28.705715 
L 78.806843 28.943239 
L 78.791814 29.180763 
L 78.776784 29.418287 
L 78.761755 29.655812 
L 78.701636 29.956416 
L 78.63246 30.192431 
L 78.563283 30.428447 
L 78.494107 30.664462 
L 78.42493 30.900477 
L 78.355754 31.136493 
L 78.286577 31.372508 
L 78.217401 31.608524 
L 78.148224 31.844539 
L 78.032474 32.098588 
L 77.916723 32.352636 
L 77.800973 32.606685 
L 77.685222 32.860734 
L 77.569471 33.114783 
L 77.453721 33.368831 
L 77.33797 33.62288 
L 77.22222 33.876929 
L 77.09744 34.091856 
L 76.97266 34.306784 
L 76.84788 34.521711 
L 76.7231 34.736639 
L 76.59832 34.951566 
L 76.47354 35.166494 
L 76.34876 35.381421 
L 76.22398 35.596349 
L 75.981761 35.843221 
L 75.739541 36.090093 
L 75.497321 36.336965 
L 75.255101 36.583837 
L 75.000328 36.750627 
L 74.745554 36.917416 
L 74.490781 37.084206 
L 74.236007 37.250996 
L 73.981233 37.417785 
L 73.72646 37.584575 
L 73.471686 37.751365 
L 73.216913 37.918154 
L 72.980897 38.069082 
L 72.744881 38.22001 
L 72.508865 38.370937 
L 72.27285 38.521865 
L 72.036834 38.672793 
L 71.800818 38.82372 
L 71.564802 38.974648 
L 71.328787 39.125576 
L 70.999069 39.280956 
L 70.669352 39.436337 
L 70.339635 39.591718 
L 70.009918 39.747099 
L 69.744338 39.872301 
L 69.478758 39.997504 
L 69.213179 40.122707 
L 68.947599 40.247909 
L 68.762089 40.368475 
L 68.57658 40.48904 
L 68.39107 40.609606 
L 68.205561 40.730171 
L 68.020051 40.850737 
L 67.834541 40.971302 
L 67.649032 41.091868 
L 67.463522 41.212433 
" style="fill:none;stroke:#4169e1;stroke-linecap:square;stroke-width:0.4;"/>
   </g>
   <g id="line2d_18">
    <path clip-path="url(#p969e81a712)" d="M 71.121869 47.858697 
L 70.893746 47.947318 
L 70.69813 48.055739 
L 70.502513 48.164159 
L 70.306896 48.27258 
L 70.11128 48.381001 
L 69.928479 48.512828 
L 69.745678 48.644655 
L 69.562877 48.776482 
L 69.380076 48.908309 
L 69.135526 49.129346 
L 68.890976 49.350383 
L 68.646426 49.571419 
L 68.401876 49.792456 
L 68.189249 50.05611 
L 67.976623 50.319764 
L 67.886213 50.547867 
L 67.795802 50.77597 
L 67.705392 51.004073 
L 67.614982 51.232176 
L 67.508261 51.441104 
L 67.40154 51.650033 
L 67.294819 51.858962 
L 67.188098 52.06789 
L 67.081376 52.276819 
L 66.974655 52.485748 
L 66.867934 52.694676 
L 66.761213 52.903605 
L 66.5868 53.138111 
L 66.412388 53.372618 
L 66.25752 53.543971 
L 66.102652 53.715324 
L 65.947784 53.886677 
L 65.792916 54.05803 
L 65.638048 54.229384 
L 65.48318 54.400737 
L 65.328312 54.57209 
L 65.173444 54.743443 
L 65.00509 54.977949 
L 64.836736 55.212456 
L 64.686383 55.480011 
L 64.536029 55.747567 
L 64.385676 56.015122 
L 64.235323 56.282677 
L 64.128893 56.648422 
L 64.022463 57.014167 
L 63.916033 57.379911 
L 63.809603 57.745656 
L 63.663968 58.091086 
L 63.518333 58.436515 
L 63.372698 58.781945 
L 63.227064 59.127375 
L 63.081429 59.472804 
L 62.935794 59.818234 
L 62.790159 60.163664 
L 62.644524 60.509094 
L 62.578581 60.755598 
L 62.512637 61.002102 
L 62.446694 61.248606 
L 62.380751 61.49511 
" style="fill:none;stroke:#008000;stroke-linecap:square;stroke-width:0.4;"/>
   </g>
   <g id="line2d_19">
    <path clip-path="url(#p969e81a712)" d="M 75.255101 36.583837 
L 75.246596 36.813339 
L 75.238091 37.04284 
L 75.267859 37.372371 
L 75.297627 37.701902 
L 75.327394 38.031433 
L 75.357162 38.360964 
L 75.38693 38.690495 
L 75.416698 39.020026 
L 75.446465 39.349556 
L 75.476233 39.679087 
L 75.471981 40.00641 
L 75.467728 40.333733 
L 75.463475 40.661056 
L 75.459223 40.988379 
L 75.414571 41.200951 
L 75.36992 41.413523 
L 75.325268 41.626095 
L 75.280616 41.838667 
L 75.235965 42.051239 
L 75.191313 42.263811 
L 75.146661 42.476383 
L 75.10201 42.688955 
L 75.057358 42.901528 
L 75.012707 43.1141 
L 74.968055 43.326672 
L 74.923403 43.539244 
L 74.878752 43.751816 
L 74.8341 43.964388 
L 74.789448 44.17696 
L 74.744797 44.389532 
L 74.676756 44.585175 
L 74.608716 44.780818 
L 74.472693 45.061402 
L 74.33667 45.341985 
L 74.200647 45.622568 
L 74.064624 45.903152 
L 73.932795 46.068985 
L 73.800967 46.234817 
L 73.669138 46.40065 
L 73.537309 46.566483 
L 73.331061 46.691906 
L 73.124813 46.81733 
L 72.918565 46.942753 
L 72.712317 47.068177 
L 72.506069 47.1936 
L 72.299821 47.319023 
L 72.093573 47.444447 
L 71.887325 47.56987 
L 71.695961 47.642077 
L 71.504597 47.714284 
L 71.313233 47.786491 
L 71.121869 47.858697 
" style="fill:none;stroke:#008000;stroke-linecap:square;stroke-width:0.4;"/>
   </g>
   <g id="line2d_20">
    <path clip-path="url(#p969e81a712)" d="M 71.310378 41.790087 
L 71.53151 41.824093 
L 71.752642 41.858099 
L 71.922744 41.994195 
L 72.092845 42.130291 
L 72.262947 42.266387 
L 72.433048 42.402484 
L 72.509594 42.602248 
L 72.586139 42.802013 
L 72.662685 43.001778 
L 72.739231 43.201543 
L 72.734978 43.422653 
L 72.730726 43.643763 
L 72.726473 43.864874 
L 72.72222 44.085984 
L 72.67119 44.290018 
L 72.62016 44.494052 
L 72.486205 44.734263 
L 72.35225 44.974474 
L 72.218295 45.214685 
L 72.08434 45.454895 
L 71.950385 45.695106 
L 71.81643 45.935317 
L 71.682475 46.175528 
L 71.54852 46.415739 
L 71.476227 46.628311 
L 71.403934 46.840883 
L 71.331641 47.053455 
L 71.259348 47.266028 
L 71.190608 47.562363 
L 71.121869 47.858697 
L 71.045672 48.135674 
L 70.969476 48.412651 
L 70.89328 48.689628 
L 70.817084 48.966604 
L 70.760738 49.246139 
L 70.704392 49.525674 
L 70.648046 49.805208 
L 70.5917 50.084743 
L 70.535354 50.364277 
L 70.479007 50.643812 
L 70.422661 50.923346 
L 70.366315 51.202881 
L 70.309969 51.482415 
L 70.253623 51.76195 
L 70.197277 52.041484 
L 70.140931 52.321019 
L 70.084585 52.600553 
L 70.028239 52.880088 
L 69.971892 53.159623 
L 69.915546 53.439157 
L 69.77096 53.749477 
L 69.626374 54.059797 
L 69.481788 54.370117 
L 69.337201 54.680437 
L 69.224538 54.869602 
L 69.111875 55.058768 
L 68.999212 55.247934 
L 68.886549 55.437099 
L 68.773886 55.626265 
L 68.661223 55.815431 
L 68.54856 56.004596 
L 68.435897 56.193762 
L 68.295563 56.499886 
L 68.155229 56.806011 
L 68.014895 57.112135 
L 67.874562 57.41826 
L 67.736354 57.618061 
L 67.598147 57.817863 
L 67.459939 58.017664 
L 67.321732 58.217466 
L 67.183525 58.417268 
L 67.045317 58.617069 
L 66.90711 58.816871 
L 66.768902 59.016672 
L 66.564781 59.250516 
L 66.360659 59.484361 
L 66.156537 59.718205 
L 65.952415 59.952049 
L 65.684564 60.126346 
L 65.416712 60.300643 
L 65.148861 60.474941 
L 64.881009 60.649238 
L 64.568477 60.754972 
L 64.255944 60.860706 
L 63.943412 60.96644 
L 63.63088 61.072174 
L 63.318347 61.177908 
L 63.005815 61.283642 
L 62.693283 61.389376 
L 62.380751 61.49511 
L 62.083073 61.59341 
L 61.785395 61.69171 
L 61.487718 61.79001 
L 61.19004 61.88831 
L 60.892363 61.98661 
L 60.594685 62.084909 
L 60.297008 62.183209 
L 59.99933 62.281509 
L 59.803713 62.366523 
L 59.608097 62.451537 
L 59.41248 62.536552 
L 59.216863 62.621566 
L 58.981925 62.748038 
L 58.746987 62.87451 
L 58.512049 63.000983 
L 58.277111 63.127455 
L 58.042173 63.253927 
L 57.807235 63.3804 
L 57.572297 63.506872 
L 57.337359 63.633344 
L 57.102421 63.759816 
L 56.867482 63.886289 
L 56.632544 64.012761 
L 56.397606 64.139233 
L 56.162668 64.265706 
L 55.92773 64.392178 
L 55.692792 64.51865 
L 55.457854 64.645123 
L 55.253732 64.691936 
L 55.04961 64.738749 
L 54.845489 64.785562 
L 54.641367 64.832375 
L 54.389535 64.803006 
L 54.137704 64.773638 
L 53.885872 64.744269 
L 53.63404 64.7149 
" style="fill:none;stroke:#008000;stroke-linecap:square;stroke-width:0.4;"/>
   </g>
   <g id="line2d_21">
    <path clip-path="url(#p969e81a712)" d="M 71.219502 41.766534 
L 70.999535 41.561322 
L 70.792035 41.46512 
L 70.584534 41.368918 
L 70.377034 41.272716 
L 70.169533 41.176514 
L 69.950033 41.125358 
L 69.730532 41.074202 
L 69.511031 41.023047 
L 69.29153 40.971891 
L 69.051 40.968873 
L 68.810469 40.965855 
L 68.569939 40.962838 
L 68.329408 40.95982 
L 68.112937 41.022973 
L 67.896465 41.086126 
L 67.679994 41.14928 
L 67.463522 41.212433 
L 67.108697 41.353755 
L 66.753873 41.495077 
L 66.399048 41.6364 
L 66.044223 41.777722 
L 65.839752 41.876942 
L 65.635281 41.976162 
L 65.43081 42.075382 
L 65.226338 42.174602 
L 64.94369 42.418088 
L 64.661042 42.661574 
L 64.378394 42.905061 
L 64.095746 43.148547 
L 63.903333 43.280816 
L 63.710921 43.413084 
L 63.518508 43.545353 
L 63.326095 43.677622 
L 63.064506 43.829433 
L 62.802917 43.981244 
L 62.541327 44.133055 
L 62.279738 44.284866 
L 62.018149 44.436677 
L 61.75656 44.588487 
L 61.49497 44.740298 
L 61.233381 44.892109 
L 60.992792 45.072442 
L 60.752204 45.252775 
L 60.547849 45.505389 
L 60.385437 45.758002 
L 60.223025 46.010616 
L 60.117819 46.308202 
L 60.012612 46.605788 
L 59.907405 46.903374 
L 59.802199 47.20096 
L 59.603728 47.527142 
L 59.405257 47.853324 
L 59.206785 48.179506 
L 59.008314 48.505688 
L 58.809843 48.83187 
L 58.611372 49.158052 
L 58.412901 49.484234 
L 58.21443 49.810416 
L 58.068606 50.1193 
L 57.922781 50.428185 
L 57.776957 50.73707 
L 57.631133 51.045954 
L 57.485309 51.354839 
L 57.339485 51.663724 
L 57.193661 51.972608 
L 57.047837 52.281493 
L 56.902012 52.590377 
L 56.756188 52.899262 
L 56.610364 53.208147 
L 56.46454 53.517031 
L 56.318716 53.825916 
L 56.172892 54.134801 
L 56.027068 54.443685 
L 55.881244 54.75257 
L 55.733919 54.965989 
L 55.586595 55.179407 
L 55.439271 55.392826 
L 55.291947 55.606244 
L 55.144623 55.819663 
L 54.997298 56.033081 
L 54.849974 56.2465 
L 54.70265 56.459919 
L 54.546297 56.592187 
L 54.389943 56.724456 
L 54.233589 56.856725 
L 54.077236 56.988994 
L 53.920882 57.121262 
L 53.764529 57.253531 
L 53.608175 57.3858 
L 53.451822 57.518068 
L 53.187174 57.782606 
L 52.922527 58.047143 
L 52.657879 58.311681 
L 52.393231 58.576218 
L 52.203848 58.714449 
L 52.014464 58.85268 
L 51.825081 58.990911 
L 51.635697 59.129141 
L 51.437168 59.351724 
L 51.238639 59.574306 
L 51.118403 59.850768 
L 51.058284 60.175514 
L 51.076343 60.494078 
L 51.094402 60.812642 
L 51.190637 61.10721 
L 51.286873 61.401779 
L 51.298757 61.714454 
L 51.226755 62.015058 
L 51.091431 62.300647 
L 50.956107 62.586235 
L 50.820783 62.871824 
L 50.685459 63.157412 
L 50.709518 63.482012 
L 50.733577 63.806611 
L 50.757636 64.13121 
L 50.781695 64.45581 
L 50.847871 64.774521 
L 50.914048 65.093232 
L 51.052343 65.315667 
L 51.190637 65.538102 
L 51.328932 65.760537 
L 51.467227 65.982973 
L 51.713758 66.073066 
L 51.960288 66.163158 
" style="fill:none;stroke:#008000;stroke-linecap:square;stroke-width:0.4;"/>
   </g>
   <g id="line2d_22">
    <path clip-path="url(#p969e81a712)" d="M 8.029605 28.636231 
L 8.248814 28.753116 
L 8.468024 28.870002 
L 8.687233 28.986887 
L 8.906443 29.103772 
L 9.159032 29.302212 
L 9.411621 29.500652 
L 9.66421 29.699092 
L 9.916799 29.897532 
L 10.13327 30.156033 
L 10.349742 30.414535 
L 10.551184 30.754297 
L 10.752626 31.094059 
L 10.954068 31.433821 
L 11.15551 31.773584 
L 11.290834 31.956934 
L 11.426158 32.140285 
L 11.561482 32.323636 
L 11.696806 32.506987 
L 11.877218 32.681358 
L 12.057631 32.855729 
L 12.238043 33.0301 
L 12.418455 33.204471 
L 12.707104 33.432941 
L 12.995752 33.661412 
L 13.2844 33.889883 
L 13.573048 34.118354 
L 13.78952 34.358896 
L 13.969932 34.629469 
L 14.150345 34.900042 
L 14.330757 35.170615 
L 14.511169 35.441189 
L 14.733699 35.681731 
L 14.956229 35.922273 
L 15.124583 36.072575 
L 15.292937 36.222877 
L 15.461291 36.373179 
L 15.629645 36.523481 
L 15.837145 36.788092 
L 16.044646 37.052703 
L 16.252146 37.317314 
L 16.459647 37.581925 
L 16.648317 37.756278 
L 16.836987 37.93063 
L 17.025656 38.104983 
L 17.214326 38.279335 
L 17.402996 38.453688 
L 17.591666 38.628041 
L 17.780336 38.802393 
L 17.969006 38.976746 
L 18.157676 39.151098 
L 18.346346 39.325451 
L 18.535016 39.499803 
L 18.723686 39.674156 
L 18.912356 39.848508 
L 19.101025 40.022861 
L 19.289695 40.197214 
L 19.478365 40.371566 
L 19.670836 40.612108 
L 19.863307 40.85265 
L 20.055778 41.093192 
L 20.248249 41.333735 
L 20.458721 41.571259 
L 20.669192 41.808783 
L 20.879663 42.046308 
L 21.090135 42.283832 
L 21.171516 42.630366 
L 21.252896 42.976899 
L 21.334277 43.323433 
L 21.415658 43.669967 
" style="fill:none;stroke:#4169e1;stroke-linecap:square;stroke-width:0.4;"/>
   </g>
   <g id="line2d_23">
    <path clip-path="url(#p969e81a712)" d="M 60.223025 46.010616 
L 60.352174 46.179245 
L 60.481323 46.347875 
L 60.610472 46.516505 
L 60.739621 46.685135 
L 60.867197 46.995454 
L 60.994773 47.305774 
L 61.122349 47.616094 
L 61.249925 47.926414 
L 61.24142 48.172992 
L 61.232915 48.41957 
L 61.181885 48.657757 
L 61.130854 48.895943 
L 61.075571 49.112711 
L 61.020288 49.329479 
L 60.965005 49.546246 
L 60.909722 49.763014 
L 60.824672 49.958657 
L 60.739621 50.1543 
L 60.60354 50.394511 
L 60.467459 50.634721 
L 60.331377 50.874932 
L 60.195296 51.115143 
L 60.059215 51.355354 
L 59.923134 51.595565 
L 59.787053 51.835776 
L 59.650972 52.075987 
L 59.557416 52.280021 
L 59.46386 52.484055 
L 59.370304 52.688089 
L 59.276748 52.892122 
L 59.183193 53.096156 
L 59.089637 53.30019 
L 58.996081 53.504224 
L 58.902525 53.708258 
L 58.84299 53.914463 
L 58.783454 54.120669 
L 58.723919 54.326874 
L 58.664383 54.533079 
L 58.604848 54.739284 
L 58.545312 54.94549 
L 58.485777 55.151695 
L 58.426241 55.3579 
L 58.375211 55.685223 
L 58.32418 56.012546 
L 58.27315 56.339868 
L 58.222119 56.667191 
L 58.123 56.931177 
L 58.023881 57.195162 
L 57.924762 57.459147 
L 57.825643 57.723133 
L 57.726524 57.987118 
L 57.627405 58.251104 
L 57.528286 58.515089 
L 57.429167 58.779075 
L 57.368991 59.076661 
L 57.308814 59.374247 
L 57.248638 59.671833 
L 57.188462 59.969419 
" style="fill:none;stroke:#008000;stroke-linecap:square;stroke-width:0.4;"/>
   </g>
   <g id="line2d_24">
    <path clip-path="url(#p969e81a712)" d="M 6.323697 25.559235 
L 6.008718 25.621505 
L 5.693739 25.683775 
L 5.37876 25.746045 
L 5.063781 25.808315 
L 4.868164 25.901941 
L 4.672547 25.995567 
L 4.502446 26.140128 
L 4.332344 26.284689 
L 4.187758 26.437788 
L 4.043172 26.590887 
L 3.958121 26.794921 
L 3.873071 26.998955 
L 3.843303 27.224261 
L 3.813535 27.449566 
L 3.783767 27.674872 
L 3.753999 27.900178 
L 3.758252 28.244577 
L 3.762505 28.588977 
L 3.766757 28.933376 
L 3.77101 29.277775 
L 3.830545 29.494616 
L 3.890081 29.711457 
L 3.949616 29.928299 
L 4.009152 30.14514 
L 4.104834 30.3758 
L 4.200516 30.606461 
L 4.296198 30.837122 
L 4.39188 31.067782 
L 4.487562 31.298443 
L 4.583244 31.529104 
L 4.678926 31.759764 
L 4.774608 31.990425 
L 4.87029 32.221085 
L 4.965972 32.451746 
L 5.061654 32.682407 
L 5.157337 32.913067 
L 5.253019 33.143728 
L 5.348701 33.374388 
L 5.444383 33.605049 
L 5.540065 33.83571 
L 5.667641 34.048282 
L 5.795217 34.260854 
L 5.953609 34.450056 
L 6.112002 34.639259 
L 6.270394 34.828461 
L 6.428787 35.017664 
L 6.587179 35.206866 
L 6.745572 35.396068 
L 6.903964 35.585271 
L 7.062356 35.774473 
L 7.220749 35.963676 
L 7.379141 36.152878 
L 7.537534 36.342081 
L 7.695926 36.531283 
L 7.854319 36.720486 
L 8.012711 36.909688 
L 8.171103 37.09889 
L 8.329496 37.288093 
L 8.567638 37.509203 
L 8.80578 37.730313 
L 9.043922 37.951424 
L 9.282064 38.172534 
L 9.435155 38.342562 
L 9.588247 38.512591 
L 9.741338 38.682619 
L 9.894429 38.852647 
L 10.022005 39.031214 
L 10.149582 39.20978 
L 10.286711 39.461694 
L 10.423841 39.713608 
L 10.560971 39.965522 
L 10.6981 40.217437 
L 10.83523 40.469351 
L 10.97236 40.721265 
L 11.10949 40.973179 
L 11.246619 41.225093 
L 11.383749 41.477007 
L 11.520879 41.728921 
L 11.658009 41.980836 
L 11.795138 42.23275 
L 11.932268 42.484664 
L 12.069398 42.736578 
L 12.206528 42.988492 
L 12.343657 43.240406 
L 12.471233 43.410435 
L 12.59881 43.580463 
L 12.768911 43.729219 
L 12.939013 43.877975 
L 13.109114 44.026732 
L 13.279215 44.175488 
L 13.474832 44.281774 
L 13.670449 44.38806 
L 13.866065 44.494346 
L 14.061682 44.600632 
L 14.379283 44.672913 
L 14.696883 44.745193 
L 14.941375 44.720756 
L 15.185866 44.696319 
L 15.430358 44.671882 
L 15.67485 44.647445 
L 15.919342 44.623008 
L 16.163833 44.598571 
L 16.408325 44.574134 
L 16.652817 44.549697 
L 16.91228 44.448858 
L 17.171743 44.348019 
L 17.431206 44.24718 
L 17.690669 44.14634 
" style="fill:none;stroke:#ff0000;stroke-linecap:square;stroke-width:0.4;"/>
   </g>
   <g id="line2d_25">
    <path clip-path="url(#p969e81a712)" d="M 23.886323 37.870164 
L 23.941082 38.181661 
L 24.109552 38.43398 
L 24.338024 38.63242 
L 24.566496 38.83086 
L 24.770967 38.936116 
L 24.975439 39.041371 
L 25.17991 39.146627 
L 25.384381 39.251882 
L 25.606911 39.31798 
L 25.829441 39.384077 
L 26.051971 39.450175 
L 26.274501 39.516272 
L 26.575208 39.570446 
L 26.875915 39.62462 
L 27.107416 39.627637 
L 27.338917 39.630655 
L 27.570418 39.633673 
L 27.801919 39.636691 
L 28.03342 39.633673 
L 28.264921 39.630655 
L 28.496422 39.627637 
L 28.727924 39.62462 
L 29.006057 39.605077 
L 29.28419 39.585535 
L 29.562324 39.565993 
L 29.840457 39.546451 
L 30.11859 39.526908 
L 30.396724 39.507366 
L 30.674857 39.487824 
L 30.952991 39.468282 
L 31.127519 39.504496 
" style="fill:none;stroke:#4169e1;stroke-linecap:square;stroke-width:0.4;"/>
   </g>
   <g id="line2d_26">
    <path clip-path="url(#p969e81a712)" d="M 78.137039 26.78756 
L 77.76637 26.839379 
L 77.3957 26.891197 
L 77.02503 26.943015 
L 76.65436 26.994833 
L 76.283691 27.046651 
L 75.913021 27.098469 
L 75.542351 27.150287 
L 75.171682 27.202105 
L 74.894218 27.260732 
L 74.616755 27.319359 
L 74.339291 27.377985 
L 74.061828 27.436612 
L 73.784364 27.495239 
L 73.506901 27.553865 
L 73.229437 27.612492 
L 72.951974 27.671118 
L 72.594062 27.771222 
L 72.331774 27.707811 
L 72.069485 27.6444 
L 71.807197 27.580989 
L 71.544909 27.517578 
L 71.28262 27.454167 
L 71.020332 27.390756 
L 70.758044 27.327345 
L 70.495755 27.263934 
L 70.189311 27.18985 
L 69.882866 27.115766 
L 69.576421 27.041683 
L 69.269976 26.967599 
L 68.963532 26.893515 
L 68.657087 26.819431 
L 68.350642 26.745348 
L 68.044197 26.671264 
L 67.750423 26.477535 
L 67.456648 26.283806 
L 67.162874 26.090077 
L 66.869099 25.896347 
L 66.575324 25.702618 
L 66.28155 25.508889 
L 65.987775 25.31516 
L 65.694001 25.121431 
L 65.306554 25.083966 
L 64.919107 25.046501 
L 64.53166 25.009035 
L 64.144213 24.97157 
L 63.881663 25.046501 
L 63.619112 25.121431 
L 63.356562 25.196361 
L 63.094012 25.271291 
L 62.912784 25.415042 
L 62.731556 25.558793 
L 62.550328 25.702545 
L 62.3691 25.846296 
L 62.187872 25.990047 
L 62.006644 26.133798 
L 61.825416 26.277549 
L 61.644188 26.4213 
L 61.425444 26.50878 
L 61.206701 26.59626 
L 60.987957 26.68374 
L 60.769214 26.77122 
L 60.55047 26.8587 
L 60.331727 26.94618 
L 60.112983 27.03366 
L 59.89424 27.12114 
L 59.619223 27.214876 
L 59.344206 27.308612 
L 59.06919 27.402349 
L 58.794173 27.496085 
L 58.519156 27.589821 
L 58.244139 27.683558 
L 57.969122 27.777294 
L 57.694106 27.87103 
L 57.419147 27.917843 
L 57.159772 27.962007 
L 56.900396 28.00617 
L 56.64102 28.050333 
L 56.381645 28.094496 
L 56.122269 28.138659 
L 55.862894 28.182822 
L 55.603518 28.226986 
L 55.344142 28.271149 
" style="fill:none;stroke:#4169e1;stroke-linecap:square;stroke-width:0.4;"/>
   </g>
   <g id="line2d_27">
    <path clip-path="url(#p969e81a712)" d="M 63.094012 25.271291 
L 62.85651 25.196361 
L 62.619009 25.121431 
L 62.381508 25.046501 
L 62.144007 24.97157 
L 61.937759 25.009035 
L 61.731511 25.046501 
L 61.525263 25.083966 
L 61.319014 25.121431 
L 61.112766 25.158896 
L 60.906518 25.196361 
L 60.70027 25.233826 
L 60.494022 25.271291 
L 60.281541 25.37754 
L 60.06906 25.48379 
L 59.856579 25.590039 
L 59.644098 25.696288 
L 59.431616 25.802537 
L 59.219135 25.908787 
L 59.006654 26.015036 
L 58.794173 26.121285 
L 58.622295 26.345855 
L 58.450416 26.570425 
L 58.278538 26.794995 
L 58.10666 27.019564 
L 57.934782 27.244134 
L 57.762904 27.468704 
L 57.591025 27.693274 
L 57.419147 27.917843 
" style="fill:none;stroke:#4169e1;stroke-linecap:square;stroke-width:0.4;"/>
   </g>
   <g id="line2d_28">
    <path clip-path="url(#p969e81a712)" d="M 70.495755 27.263934 
L 70.158057 27.283587 
L 69.820359 27.303239 
L 69.482661 27.322892 
L 69.144963 27.342544 
L 68.807265 27.362197 
L 68.469567 27.38185 
L 68.131869 27.401502 
L 67.794171 27.421155 
L 67.400404 27.446144 
L 67.006637 27.471133 
L 66.612869 27.496122 
L 66.219102 27.521111 
L 65.825334 27.5461 
L 65.431567 27.571089 
L 65.037799 27.596078 
L 64.644032 27.621067 
L 64.328412 27.652312 
L 64.012793 27.683558 
L 63.697173 27.714803 
L 63.381553 27.746049 
L 63.065933 27.777294 
L 62.750313 27.80854 
L 62.434694 27.839785 
L 62.119074 27.87103 
L 61.803454 27.902276 
L 61.487834 27.933521 
L 61.172215 27.964767 
L 60.856595 27.996012 
L 60.540975 28.027258 
L 60.225355 28.058503 
L 59.909736 28.089749 
L 59.594116 28.120994 
L 59.31473 28.174468 
L 59.035344 28.227943 
L 58.755958 28.281417 
L 58.476572 28.334891 
L 58.197187 28.388365 
L 57.917801 28.44184 
L 57.638415 28.495314 
L 57.359029 28.548788 
L 57.121703 28.572047 
L 56.884376 28.595307 
L 56.64705 28.618566 
L 56.409723 28.641825 
L 56.172397 28.665084 
L 55.93507 28.688344 
L 55.697744 28.711603 
L 55.460417 28.734862 
" style="fill:none;stroke:#000000;stroke-linecap:square;stroke-width:0.4;"/>
   </g>
   <g id="line2d_29">
    <path clip-path="url(#p969e81a712)" d="M 70.009918 39.747099 
L 69.712823 39.601728 
L 69.415728 39.456358 
L 69.118633 39.310987 
L 68.821538 39.165617 
L 68.618115 39.066102 
L 68.414692 38.966588 
L 68.211269 38.867074 
L 68.007847 38.767559 
L 67.804424 38.668045 
L 67.601001 38.568531 
L 67.397579 38.469016 
L 67.194156 38.369502 
L 66.975412 38.194542 
L 66.756669 38.019582 
L 66.537925 37.844622 
L 66.319182 37.669663 
L 66.100438 37.494703 
L 65.881695 37.319743 
L 65.662951 37.144783 
L 65.444208 36.969823 
L 65.300437 36.826109 
L 65.156667 36.682395 
L 65.012896 36.53868 
L 64.869125 36.394966 
L 64.725355 36.251252 
L 64.581584 36.107537 
L 64.437813 35.963823 
L 64.294042 35.820109 
L 64.131543 35.657625 
L 63.969044 35.495141 
L 63.806544 35.332658 
L 63.644045 35.170174 
L 63.481546 35.00769 
L 63.319047 34.845206 
L 63.156547 34.682723 
L 62.994048 34.520239 
L 62.819053 34.251543 
L 62.644058 33.982847 
L 62.469063 33.714151 
L 62.294069 33.445454 
L 62.119074 33.176758 
L 61.944079 32.908062 
L 61.769084 32.639366 
L 61.59409 32.37067 
L 61.466018 32.216982 
L 61.337947 32.063294 
L 61.209876 31.909606 
L 61.081804 31.755918 
L 60.953733 31.60223 
L 60.825662 31.448543 
L 60.697591 31.294855 
L 60.569519 31.141167 
L 60.344193 30.870888 
L 60.194189 30.73965 
L 60.044186 30.608412 
L 59.894182 30.477173 
L 59.744178 30.345935 
L 59.594174 30.214697 
L 59.44417 30.083459 
L 59.294166 29.95222 
L 59.144162 29.820982 
L 58.921021 29.661958 
L 58.697879 29.502934 
L 58.474737 29.343909 
L 58.251596 29.184885 
L 58.028454 29.025861 
L 57.805312 28.866837 
L 57.582171 28.707812 
L 57.359029 28.548788 
" style="fill:none;stroke:#4169e1;stroke-linecap:square;stroke-width:0.4;"/>
   </g>
   <g id="line2d_30">
    <path clip-path="url(#p969e81a712)" d="M 67.194156 38.369502 
L 66.962888 38.344513 
L 66.73162 38.319524 
L 66.500352 38.294535 
L 66.269084 38.269546 
L 66.037815 38.244557 
L 65.806547 38.219568 
L 65.575279 38.194579 
L 65.344011 38.16959 
L 65.050266 38.119612 
L 64.75652 38.069634 
L 64.462775 38.019656 
L 64.16903 37.969678 
L 63.875284 37.9197 
L 63.581539 37.869722 
L 63.287793 37.819744 
L 62.994048 37.769766 
L 62.781567 37.663517 
L 62.569085 37.557267 
L 62.356604 37.451018 
L 62.144123 37.344769 
L 61.931642 37.23852 
L 61.719161 37.13227 
L 61.50668 37.026021 
L 61.294198 36.919772 
L 61.050435 36.751069 
L 60.806671 36.582365 
L 60.562908 36.413662 
L 60.319144 36.244958 
L 60.075381 36.076255 
L 59.831617 35.907552 
L 59.587853 35.738848 
L 59.34409 35.570145 
L 59.250359 35.351427 
L 59.156629 35.132709 
L 59.062898 34.913991 
L 58.969168 34.695272 
L 58.875437 34.476554 
L 58.781706 34.257836 
L 58.687976 34.039118 
L 58.594245 33.8204 
L 58.569225 33.539191 
L 58.544205 33.257982 
L 58.519185 32.976773 
L 58.494165 32.695564 
L 58.469145 32.414355 
L 58.444125 32.133145 
L 58.419105 31.851936 
L 58.394085 31.570727 
L 58.487845 31.352009 
L 58.581604 31.133291 
L 58.675364 30.914573 
L 58.769124 30.695855 
L 58.862883 30.477137 
L 58.956643 30.258418 
L 59.050403 30.0397 
L 59.144162 29.820982 
" style="fill:none;stroke:#4169e1;stroke-linecap:square;stroke-width:0.4;"/>
   </g>
   <g id="line2d_31">
    <path clip-path="url(#p969e81a712)" d="M 78.137039 26.78756 
L 78.031658 26.973009 
L 77.926277 27.158457 
L 77.820895 27.343906 
L 77.715514 27.529355 
L 77.610133 27.714803 
L 77.504751 27.900252 
L 77.39937 28.0857 
L 77.293989 28.271149 
L 77.187733 28.527369 
L 77.081478 28.783589 
L 76.975223 29.039809 
L 76.868968 29.296029 
L 76.762713 29.552249 
L 76.656458 29.808469 
L 76.550202 30.064689 
L 76.443947 30.320909 
L 76.422801 30.549748 
L 76.401655 30.778587 
L 76.380509 31.007426 
L 76.359363 31.236265 
L 76.338216 31.465104 
L 76.31707 31.693943 
L 76.295924 31.922781 
L 76.274778 32.15162 
L 76.338071 32.505147 
L 76.401364 32.858673 
L 76.464657 33.212199 
L 76.527949 33.565725 
L 76.591242 33.919252 
L 76.654535 34.272778 
L 76.717828 34.626304 
L 76.781121 34.979831 
" style="fill:none;stroke:#008000;stroke-linecap:square;stroke-width:0.4;"/>
   </g>
   <g id="line2d_32">
    <path clip-path="url(#p969e81a712)" d="M 75.171682 27.202105 
L 75.104923 27.399662 
L 75.038164 27.597219 
L 74.971405 27.794775 
L 74.904646 27.992332 
L 74.837887 28.189889 
L 74.771128 28.387445 
L 74.704369 28.585002 
L 74.63761 28.782558 
L 74.553549 28.969111 
L 74.469489 29.155664 
L 74.385428 29.342216 
L 74.301368 29.528769 
L 74.217307 29.715322 
L 74.133247 29.901874 
L 74.049187 30.088427 
L 73.965126 30.27498 
L 73.824996 30.643153 
L 73.684867 31.011327 
L 73.544737 31.379501 
L 73.404607 31.747674 
L 73.264477 32.115848 
L 73.124347 32.484022 
L 72.984218 32.852196 
L 72.844088 33.220369 
L 72.787844 33.439088 
L 72.731599 33.657806 
L 72.675355 33.876524 
L 72.619111 34.095242 
L 72.562867 34.31396 
L 72.506623 34.532678 
L 72.450379 34.751396 
L 72.394134 34.970115 
L 72.234752 35.207584 
L 72.075369 35.445053 
L 71.915986 35.682522 
L 71.756603 35.919991 
L 71.597221 36.15746 
L 71.437838 36.394929 
L 71.278455 36.632398 
L 71.119072 36.869867 
L 70.95969 37.107337 
L 70.800307 37.344806 
L 70.640924 37.582275 
L 70.481541 37.819744 
L 70.322159 38.057213 
L 70.162776 38.294682 
L 70.003393 38.532151 
L 69.844011 38.76962 
L 69.588392 38.868619 
L 69.332774 38.967619 
L 69.077156 39.066618 
L 68.821538 39.165617 
" style="fill:none;stroke:#008000;stroke-linecap:square;stroke-width:0.4;"/>
   </g>
   <g id="line2d_33">
    <path clip-path="url(#p969e81a712)" d="M 72.951974 27.671118 
L 72.832233 27.87736 
L 72.712492 28.083603 
L 72.592751 28.289845 
L 72.47301 28.496087 
L 72.353269 28.702329 
L 72.233528 28.908571 
L 72.113787 29.114813 
L 71.994046 29.321055 
L 71.794061 29.43978 
L 71.594075 29.558506 
L 71.394089 29.677231 
L 71.194103 29.795956 
L 70.994118 29.914682 
L 70.794132 30.033407 
L 70.594146 30.152132 
L 70.394161 30.270858 
L 70.167669 30.390393 
L 69.941178 30.509928 
L 69.604412 30.687611 
L 69.267646 30.865294 
L 68.93088 31.042977 
L 68.594114 31.220661 
L 68.212871 31.32691 
L 67.831629 31.433159 
L 67.450386 31.539408 
L 67.069143 31.645658 
L 66.6879 31.751907 
L 66.306657 31.858156 
L 65.925415 31.964405 
L 65.544172 32.070655 
L 65.297292 32.089405 
L 65.050411 32.108156 
L 64.803531 32.126907 
L 64.556651 32.145658 
L 64.309771 32.164409 
L 64.062891 32.18316 
L 63.816011 32.201911 
L 63.569131 32.220662 
L 63.32225 32.239413 
L 63.07537 32.258164 
L 62.82849 32.276915 
L 62.58161 32.295666 
L 62.33473 32.314417 
L 62.08785 32.333168 
L 61.84097 32.351919 
L 61.59409 32.37067 
" style="fill:none;stroke:#4169e1;stroke-linecap:square;stroke-width:0.4;"/>
   </g>
   <g id="line2d_34">
    <path clip-path="url(#p969e81a712)" d="M 69.941178 30.509928 
L 69.55443 30.45016 
L 69.167682 30.390393 
L 68.780935 30.330625 
L 68.394187 30.270858 
L 68.187939 30.189597 
L 67.981691 30.108337 
L 67.775443 30.027077 
L 67.569195 29.945817 
L 67.362947 29.864556 
L 67.156699 29.783296 
L 66.950451 29.702036 
L 66.744203 29.620776 
L 66.519197 29.602043 
L 66.294191 29.583311 
L 66.069185 29.564578 
L 65.844179 29.545845 
L 65.619174 29.527113 
L 65.394168 29.50838 
L 65.169162 29.489648 
L 64.944156 29.470915 
L 64.756637 29.583384 
L 64.569118 29.695853 
L 64.381598 29.808322 
L 64.194079 29.920791 
L 63.856585 29.977062 
L 63.519091 30.033333 
L 63.181596 30.089605 
L 62.844102 30.145876 
L 62.506608 30.202147 
L 62.169114 30.258418 
L 61.83162 30.31469 
L 61.494126 30.370961 
L 61.262974 30.563512 
L 61.031823 30.756064 
L 60.800671 30.948615 
L 60.569519 31.141167 
" style="fill:none;stroke:#008000;stroke-linecap:square;stroke-width:0.4;"/>
   </g>
   <g id="line2d_35">
    <path clip-path="url(#p969e81a712)" d="M 71.994046 29.321055 
L 71.800294 29.596007 
L 71.606541 29.87096 
L 71.412789 30.145913 
L 71.219036 30.420865 
L 71.025284 30.695818 
L 70.831531 30.970771 
L 70.637779 31.245723 
L 70.444026 31.520676 
L 70.270691 31.742191 
L 70.097357 31.963706 
L 69.924022 32.185221 
L 69.750688 32.406736 
L 69.577353 32.628252 
L 69.404019 32.849767 
L 69.230684 33.071282 
L 69.057349 33.292797 
L 68.761944 33.539964 
L 68.466538 33.78713 
L 68.171133 34.034297 
L 67.875727 34.281463 
L 67.580321 34.52863 
L 67.284916 34.775797 
L 66.98951 35.022963 
L 66.694104 35.27013 
L 66.394097 35.338877 
L 66.094089 35.407625 
L 65.794081 35.476372 
L 65.494073 35.545119 
L 65.194066 35.613867 
L 64.894058 35.682614 
L 64.59405 35.751361 
L 64.294042 35.820109 
" style="fill:none;stroke:#008000;stroke-linecap:square;stroke-width:0.4;"/>
   </g>
   <g id="line2d_36">
    <path clip-path="url(#p969e81a712)" d="M 6.644326 25.371394 
L 6.881828 25.433885 
L 7.119329 25.496376 
L 7.35683 25.558867 
L 7.594331 25.621358 
L 7.906864 25.671336 
L 8.219396 25.721314 
L 8.531928 25.771292 
L 8.844461 25.82127 
L 9.069437 25.708801 
L 9.294414 25.596332 
L 9.519391 25.483863 
L 9.744367 25.371394 
L 9.944353 25.308903 
L 10.144339 25.246413 
L 10.344324 25.183922 
L 10.54431 25.121431 
L 10.781811 25.121431 
L 11.019313 25.121431 
L 11.256814 25.121431 
L 11.494315 25.121431 
L 11.756807 25.283951 
L 12.0193 25.446472 
L 12.281792 25.608992 
L 12.544284 25.771513 
L 12.881807 25.871469 
L 13.21933 25.971425 
L 13.556854 26.071381 
L 13.894377 26.171337 
L 14.18186 26.296319 
L 14.469343 26.4213 
L 14.756826 26.546282 
L 15.044309 26.671264 
L 15.225566 26.821235 
L 15.406824 26.971206 
L 15.588081 27.121176 
L 15.769338 27.271147 
L 15.950595 27.421118 
L 16.131852 27.571089 
L 16.313109 27.72106 
L 16.494366 27.87103 
L 16.613117 28.033514 
L 16.731867 28.195998 
L 16.850618 28.358482 
L 16.969369 28.520965 
L 17.088119 28.683449 
L 17.20687 28.845933 
L 17.325621 29.008416 
L 17.444371 29.1709 
L 17.58185 29.408424 
L 17.71933 29.645949 
L 17.856809 29.883473 
L 17.994288 30.120997 
L 18.150525 30.244654 
L 18.306762 30.368311 
L 18.462999 30.491968 
L 18.619236 30.615625 
L 18.906778 30.843213 
L 19.194319 31.0708 
L 19.493103 31.298535 
L 19.791888 31.52627 
L 20.090672 31.754005 
L 20.389457 31.981739 
L 20.678163 32.178928 
L 20.96687 32.376117 
L 21.255576 32.573305 
L 21.544282 32.770494 
L 21.713044 32.920465 
L 21.881806 33.070435 
L 22.050567 33.220406 
L 22.219329 33.370377 
L 22.388091 33.520348 
L 22.556852 33.670319 
L 22.725614 33.820289 
L 22.894375 33.97026 
L 23.131818 34.262473 
L 23.369261 34.554686 
L 23.606704 34.846899 
L 23.844147 35.139112 
L 24.019259 35.354629 
L 24.19437 35.570145 
L 24.295499 35.766892 
L 24.396628 35.963639 
L 24.497756 36.160386 
L 24.598885 36.357133 
" style="fill:none;stroke:#4169e1;stroke-linecap:square;stroke-width:0.4;"/>
   </g>
   <g id="line2d_37">
    <path clip-path="url(#p969e81a712)" d="M 9.744367 25.371394 
L 10.044375 25.57138 
L 10.344383 25.771366 
L 10.64439 25.971351 
L 10.944398 26.171337 
L 11.138151 26.33382 
L 11.331903 26.496304 
L 11.525656 26.658788 
L 11.719408 26.821272 
L 11.913161 26.983755 
L 12.106913 27.146239 
L 12.300666 27.308723 
L 12.494419 27.471206 
L 12.631898 27.627434 
L 12.769377 27.783661 
L 12.906856 27.939888 
L 13.044336 28.096115 
L 13.181815 28.252343 
L 13.319294 28.40857 
L 13.456773 28.564797 
L 13.594253 28.721024 
L 13.769277 28.952256 
L 13.944301 29.183487 
L 14.119324 29.414718 
L 14.294348 29.645949 
L 14.469372 29.87718 
L 14.644396 30.108411 
L 14.81942 30.339642 
L 14.994444 30.570873 
L 15.231945 30.795848 
L 15.469447 31.020822 
L 15.706948 31.245797 
L 15.944449 31.470771 
L 16.18195 31.695746 
L 16.419452 31.920721 
L 16.656953 32.145695 
L 16.894454 32.37067 
L 17.119431 32.501871 
L 17.344407 32.633073 
L 17.569384 32.764274 
L 17.794361 32.895476 
L 18.019337 33.026677 
L 18.244314 33.157878 
L 18.469291 33.28908 
L 18.694267 33.420281 
L 18.938031 33.526531 
L 19.181794 33.63278 
L 19.425558 33.739029 
L 19.669322 33.845278 
L 19.913085 33.951528 
L 20.156849 34.057777 
L 20.400612 34.164026 
L 20.644376 34.270275 
L 20.844362 34.324578 
L 21.044347 34.37888 
L 21.244333 34.433182 
L 21.444319 34.487485 
L 21.644304 34.541787 
L 21.84429 34.596089 
L 22.044276 34.650392 
L 22.244262 34.704694 
L 22.444247 34.758996 
L 22.644233 34.813299 
L 22.844219 34.867601 
L 23.044205 34.921903 
L 23.24419 34.976205 
L 23.444176 35.030508 
L 23.644162 35.08481 
L 23.844147 35.139112 
" style="fill:none;stroke:#4169e1;stroke-linecap:square;stroke-width:0.4;"/>
   </g>
   <g id="line2d_38">
    <path clip-path="url(#p969e81a712)" d="M 23.886323 37.870164 
L 23.540295 37.769913 
L 23.194267 37.669663 
L 23.156751 37.357208 
L 23.119236 37.044754 
L 23.08172 36.732299 
L 23.044205 36.419845 
L 23.24419 36.099662 
L 23.444176 35.779479 
L 23.644162 35.459295 
L 23.844147 35.139112 
L 24.094173 35.059398 
L 24.344199 34.979683 
L 24.594225 34.899969 
L 24.844251 34.820254 
L 25.056761 34.795265 
L 25.269271 34.770276 
L 25.481782 34.745287 
L 25.694292 34.720298 
L 25.906802 34.695309 
L 26.119313 34.67032 
L 26.331823 34.645331 
L 26.544333 34.620342 
L 26.881798 34.545338 
L 27.219263 34.470335 
L 27.556728 34.395331 
L 27.894193 34.320327 
L 28.091732 34.199173 
L 28.289272 34.078018 
L 28.486811 33.956864 
L 28.68435 33.83571 
L 28.860597 33.727547 
L 29.036844 33.619384 
L 29.213091 33.511221 
L 29.389339 33.403058 
L 29.565586 33.294895 
L 29.741833 33.186732 
L 29.91808 33.078569 
L 30.094328 32.970406 
L 30.331829 32.832948 
L 30.56933 32.69549 
L 30.806831 32.558032 
L 31.044333 32.420574 
L 31.281834 32.283116 
L 31.519335 32.145658 
L 31.756836 32.0082 
L 31.994338 31.870743 
L 32.32557 31.739504 
L 32.656801 31.608266 
L 32.988033 31.477028 
L 33.319265 31.34579 
L 33.650497 31.214551 
L 33.981729 31.083313 
L 34.31296 30.952075 
L 34.644192 30.820837 
L 34.875519 30.783077 
L 35.106845 30.745317 
L 35.338171 30.707558 
L 35.569498 30.669798 
L 35.950711 30.607528 
L 36.331925 30.545258 
L 36.713139 30.482988 
L 37.094352 30.420718 
L 37.381836 30.408279 
L 37.669319 30.39584 
L 37.956802 30.3834 
L 38.244285 30.370961 
L 38.456766 30.439671 
L 38.669247 30.508382 
L 38.881728 30.577093 
L 39.09421 30.645803 
L 39.306691 30.714514 
L 39.519172 30.783224 
L 39.731653 30.851935 
L 39.944134 30.920645 
L 40.144178 30.920645 
L 40.344222 30.920645 
L 40.544266 30.920645 
L 40.74431 30.920645 
L 41.038056 30.839422 
L 41.331801 30.758198 
L 41.625547 30.676975 
L 41.919292 30.595752 
L 42.213037 30.514528 
L 42.506783 30.433305 
L 42.800528 30.352081 
L 43.094274 30.270858 
L 43.331775 30.014638 
L 43.569276 29.758418 
L 43.806778 29.502198 
L 44.044279 29.245977 
L 44.28178 28.989757 
L 44.519281 28.733537 
L 44.756783 28.477317 
L 44.994284 28.221097 
L 45.225523 27.958621 
L 45.456762 27.696144 
L 45.688001 27.433668 
L 45.91924 27.171191 
L 46.150479 26.908715 
L 46.381718 26.646238 
L 46.612957 26.383762 
L 46.844195 26.121285 
L 47.077794 26.081722 
L 47.311392 26.042159 
L 47.54499 26.002597 
L 47.778588 25.963034 
L 48.012187 25.923471 
L 48.245785 25.883908 
L 48.479383 25.844345 
L 48.712981 25.804782 
L 48.984751 25.821675 
L 49.25652 25.838567 
L 49.528289 25.85546 
L 49.800058 25.872352 
L 50.071827 25.889244 
L 50.343596 25.906137 
L 50.615365 25.923029 
L 50.887134 25.939922 
L 51.158904 25.956814 
L 51.430673 25.973707 
L 51.702442 25.990599 
L 51.974211 26.007491 
L 52.24598 26.024384 
L 52.517749 26.041276 
L 52.789518 26.058169 
L 53.061287 26.075061 
" style="fill:none;stroke:#008000;stroke-linecap:square;stroke-width:0.4;"/>
   </g>
   <g id="line2d_39">
    <path clip-path="url(#p969e81a712)" d="M 34.044177 25.271291 
L 34.303552 25.286914 
L 34.562928 25.302537 
L 34.822304 25.318159 
L 35.081679 25.333782 
L 35.341055 25.349405 
L 35.60043 25.365028 
L 35.859806 25.38065 
L 36.119182 25.396273 
L 36.378557 25.411896 
L 36.637933 25.427518 
L 36.897309 25.443141 
L 37.156684 25.458764 
L 37.41606 25.474387 
L 37.675435 25.490009 
L 37.934811 25.505632 
L 38.194187 25.521255 
L 38.447314 25.540006 
L 38.700442 25.558757 
L 38.95357 25.577508 
L 39.206698 25.596259 
L 39.459826 25.61501 
L 39.712954 25.63376 
L 39.966082 25.652511 
L 40.219209 25.671262 
L 40.472337 25.690013 
L 40.725465 25.708764 
L 40.978593 25.727515 
L 41.231721 25.746266 
L 41.484849 25.765017 
L 41.737977 25.783768 
L 41.991105 25.802519 
L 42.244232 25.82127 
L 42.53173 25.840021 
L 42.819228 25.858772 
L 43.106726 25.877523 
L 43.394223 25.896274 
L 43.681721 25.915025 
L 43.969219 25.933776 
L 44.256716 25.952527 
L 44.544214 25.971278 
L 44.831712 25.990029 
L 45.119209 26.008779 
L 45.406707 26.02753 
L 45.694205 26.046281 
L 45.981702 26.065032 
L 46.2692 26.083783 
L 46.556698 26.102534 
L 46.844195 26.121285 
" style="fill:none;stroke:#4169e1;stroke-linecap:square;stroke-width:0.4;"/>
   </g>
   <g id="line2d_40">
    <path clip-path="url(#p969e81a712)" d="M 33.544358 25.271291 
L 33.356839 25.371321 
L 33.169319 25.47135 
L 32.9818 25.57138 
L 32.794281 25.67141 
L 32.594295 25.846369 
L 32.394309 26.021329 
L 32.194323 26.196289 
L 31.994338 26.371249 
L 31.649707 26.479596 
L 31.298378 26.590004 
L 30.947049 26.700412 
L 30.595719 26.81082 
L 30.24439 26.921228 
L 29.919333 27.021184 
L 29.594276 27.12114 
L 29.39429 27.239902 
L 29.194304 27.358664 
L 28.994319 27.477426 
L 28.794333 27.596188 
L 28.594347 27.71495 
L 28.394362 27.833713 
L 28.194376 27.952475 
L 27.99439 28.071237 
L 27.775618 28.333677 
L 27.556845 28.596116 
L 27.338072 28.858556 
L 27.1193 29.120996 
L 26.900527 29.383435 
L 26.681754 29.645875 
L 26.462982 29.908315 
L 26.244209 30.170754 
L 26.095137 30.437868 
L 25.946066 30.704982 
L 25.796994 30.972095 
L 25.647922 31.239209 
L 25.497044 31.509561 
L 25.346167 31.779914 
L 25.195289 32.050266 
L 25.044411 32.320618 
L 24.965943 32.504889 
L 24.887475 32.68916 
L 24.809007 32.873431 
L 24.730539 33.057702 
L 24.652071 33.241973 
L 24.573603 33.426243 
L 24.495135 33.610514 
L 24.416667 33.794785 
L 24.273537 34.130867 
L 24.130407 34.466949 
L 23.987277 34.803031 
L 23.844147 35.139112 
" style="fill:none;stroke:#008000;stroke-linecap:square;stroke-width:0.4;"/>
   </g>
   <g id="line2d_41">
    <path clip-path="url(#p969e81a712)" d="M 24.416667 33.794785 
L 24.609021 33.924496 
L 24.801376 34.054207 
L 24.99373 34.183918 
L 25.186085 34.313629 
L 25.378439 34.44334 
L 25.570794 34.573051 
L 25.763148 34.702762 
L 25.955503 34.832473 
L 26.147857 34.962184 
L 26.340212 35.091895 
L 26.532566 35.221606 
L 26.724921 35.351316 
L 26.917275 35.481027 
L 27.10963 35.610738 
L 27.301984 35.740449 
L 27.494338 35.87016 
L 27.663085 35.976391 
L 27.831833 36.082622 
L 28.00058 36.188853 
L 28.169327 36.295084 
L 28.338074 36.401315 
L 28.506821 36.507545 
L 28.675568 36.613776 
L 28.844315 36.720007 
L 29.013062 36.826238 
L 29.181809 36.932469 
L 29.350556 37.0387 
L 29.519303 37.14493 
L 29.68805 37.251161 
L 29.856797 37.357392 
L 30.025544 37.463623 
L 30.194291 37.569854 
L 30.413035 37.657334 
L 30.631778 37.744814 
L 30.850522 37.832294 
L 31.069265 37.919773 
L 31.288009 38.007253 
L 31.506752 38.094733 
L 31.725496 38.182213 
L 31.944239 38.269693 
L 32.281763 38.382162 
L 32.619286 38.494631 
L 32.956809 38.6071 
L 33.294332 38.719569 
L 33.579544 38.780367 
L 33.864755 38.841165 
L 34.149966 38.901963 
L 34.435177 38.962761 
L 34.673814 39.013585 
L 34.912452 39.06441 
L 35.151089 39.115234 
L 35.389726 39.166058 
L 35.628363 39.216883 
L 35.867 39.267707 
L 36.105638 39.318532 
L 36.344275 39.369356 
L 36.625525 39.463093 
L 36.906775 39.556829 
L 37.188025 39.650565 
L 37.469275 39.744302 
L 37.750525 39.838038 
L 38.031775 39.931774 
L 38.313025 40.025511 
L 38.594274 40.119247 
L 38.869291 40.194251 
L 39.144308 40.269255 
L 39.419325 40.344259 
L 39.694342 40.419262 
L 40.040253 40.600773 
L 40.386165 40.782284 
L 40.613181 40.941492 
L 40.840196 41.1007 
L 41.067212 41.259909 
L 41.294227 41.419117 
" style="fill:none;stroke:#4169e1;stroke-linecap:square;stroke-width:0.4;"/>
   </g>
   <g id="line2d_42">
    <path clip-path="url(#p969e81a712)" d="M 25.647922 31.239209 
L 25.82248 31.34314 
L 25.997038 31.44707 
L 26.171596 31.551001 
L 26.346154 31.654932 
L 26.520711 31.758862 
L 26.695269 31.862793 
L 26.869827 31.966724 
L 27.044385 32.070655 
L 27.249381 32.291286 
L 27.454376 32.511918 
L 27.659372 32.73255 
L 27.864367 32.953182 
L 28.069363 33.173814 
L 28.274358 33.394446 
L 28.479354 33.615078 
L 28.68435 33.83571 
L 28.89185 34.040001 
L 29.099351 34.244293 
L 29.306851 34.448584 
L 29.514352 34.652876 
L 29.721852 34.857167 
L 29.929353 35.061459 
L 30.136853 35.26575 
L 30.344354 35.470042 
L 30.613079 35.732518 
L 30.881804 35.994995 
L 31.15053 36.257471 
L 31.419255 36.519948 
L 31.68798 36.782424 
L 31.956706 37.044901 
L 32.225431 37.307377 
L 32.494156 37.569854 
L 32.736784 37.743967 
L 32.979412 37.918081 
L 33.222039 38.092194 
L 33.464667 38.266307 
L 33.707294 38.440421 
L 33.949922 38.614534 
L 34.19255 38.788647 
L 34.435177 38.962761 
" style="fill:none;stroke:#000000;stroke-linecap:square;stroke-width:0.4;"/>
   </g>
   <g id="line2d_43">
    <path clip-path="url(#p969e81a712)" d="M 27.99439 28.071237 
L 28.150627 28.230592 
L 28.306864 28.389948 
L 28.463101 28.549303 
L 28.619338 28.708659 
L 28.775575 28.868014 
L 28.931812 29.02737 
L 29.088049 29.186725 
L 29.244286 29.346081 
L 29.400523 29.505436 
L 29.55676 29.664792 
L 29.712997 29.824147 
L 29.869234 29.983503 
L 30.025472 30.142858 
L 30.181709 30.302214 
L 30.337946 30.461569 
L 30.494183 30.620925 
L 30.664896 30.800264 
L 30.835609 30.979603 
L 31.006322 31.158942 
L 31.177035 31.338282 
L 31.347748 31.517621 
L 31.518461 31.69696 
L 31.689175 31.8763 
L 31.859888 32.055639 
L 32.057922 32.263721 
L 32.255956 32.471803 
L 32.45399 32.679886 
L 32.652025 32.887968 
L 32.850059 33.09605 
L 33.048093 33.304132 
L 33.246127 33.512214 
L 33.444161 33.720297 
L 33.614336 33.913142 
L 33.78451 34.105988 
L 33.954684 34.298834 
L 34.124859 34.49168 
L 34.295033 34.684526 
L 34.465207 34.877372 
L 34.635381 35.070218 
L 34.805556 35.263064 
L 34.97573 35.45591 
L 35.145904 35.648755 
L 35.316078 35.841601 
L 35.486253 36.034447 
L 35.656427 36.227293 
L 35.826601 36.420139 
L 35.996776 36.612985 
L 36.16695 36.805831 
L 36.36494 36.963604 
L 36.562931 37.121377 
L 36.760921 37.27915 
L 36.958912 37.436923 
L 37.156903 37.594696 
L 37.354893 37.752469 
L 37.552884 37.910242 
L 37.750874 38.068015 
L 37.948865 38.225788 
L 38.146855 38.383561 
L 38.344846 38.541333 
L 38.542836 38.699106 
L 38.740827 38.856879 
L 38.938817 39.014652 
L 39.136808 39.172425 
L 39.334798 39.330198 
L 39.604718 39.547555 
L 39.874638 39.764911 
L 40.144557 39.982268 
L 40.414477 40.199624 
L 40.684396 40.416981 
L 40.954316 40.634337 
L 41.224235 40.851693 
L 41.494155 41.06905 
" style="fill:none;stroke:#000000;stroke-linecap:square;stroke-width:0.4;"/>
   </g>
   <g id="line2d_44">
    <path clip-path="url(#p969e81a712)" d="M 15.144273 14.222252 
L 15.369279 14.465996 
L 15.594285 14.70974 
L 15.81929 14.953484 
L 16.044296 15.197228 
L 16.269302 15.440972 
L 16.494308 15.684716 
L 16.719314 15.92846 
L 16.944319 16.172204 
L 17.081813 16.325321 
L 17.219307 16.478439 
L 17.356801 16.631556 
L 17.494295 16.784673 
L 17.631789 16.937791 
L 17.769282 17.090908 
L 17.906776 17.244026 
L 18.04427 17.397143 
L 18.181764 17.550261 
L 18.319258 17.703378 
L 18.456752 17.856495 
L 18.594245 18.009613 
L 18.731739 18.16273 
L 18.869233 18.315848 
L 19.006727 18.468965 
L 19.144221 18.622083 
L 19.297356 18.797061 
L 19.450491 18.972039 
L 19.603626 19.147017 
L 19.756761 19.321995 
L 19.909896 19.496974 
L 20.063031 19.671952 
L 20.216166 19.84693 
L 20.369301 20.021908 
L 20.522436 20.196886 
L 20.675571 20.371865 
L 20.828706 20.546843 
L 20.981841 20.721821 
L 21.134976 20.896799 
L 21.288111 21.071777 
L 21.441246 21.246756 
L 21.594381 21.421734 
L 21.769376 21.581089 
L 21.94437 21.740445 
L 22.119365 21.8998 
L 22.29436 22.059156 
L 22.469355 22.218511 
L 22.64435 22.377867 
L 22.819344 22.537222 
L 22.994339 22.696578 
L 23.169334 22.855933 
L 23.344329 23.015289 
L 23.519324 23.174644 
L 23.694318 23.334 
L 23.869313 23.493355 
L 24.044308 23.652711 
L 24.219303 23.812066 
L 24.394298 23.971422 
L 24.649712 24.241295 
L 24.905126 24.511169 
L 25.160541 24.781043 
L 25.415955 25.050917 
L 25.671369 25.320791 
L 25.926784 25.590665 
L 26.182198 25.860538 
L 26.437612 26.130412 
L 26.589305 26.290651 
L 26.740999 26.45089 
L 26.892692 26.611128 
L 27.044385 26.771367 
L 27.163136 26.933851 
L 27.281886 27.096335 
L 27.400637 27.258818 
L 27.519388 27.421302 
L 27.638138 27.583786 
L 27.756889 27.746269 
L 27.87564 27.908753 
L 27.99439 28.071237 
" style="fill:none;stroke:#000000;stroke-linecap:square;stroke-width:0.4;"/>
   </g>
   <g id="line2d_45">
    <path clip-path="url(#p969e81a712)" d="M 14.294465 14.272304 
L 14.231958 14.509828 
L 14.169452 14.747352 
L 14.106945 14.984877 
L 14.044439 15.222401 
L 14.070362 15.447265 
L 14.096285 15.672129 
L 14.122208 15.896993 
L 14.148131 16.121858 
L 14.1712 16.322064 
L 14.194268 16.522271 
L 14.394312 16.747208 
L 14.594356 16.972146 
L 14.7944 17.197084 
L 14.994444 17.422022 
L 15.131923 17.584505 
L 15.269403 17.746989 
L 15.406882 17.909473 
L 15.544361 18.071957 
L 15.68184 18.23444 
L 15.81932 18.396924 
L 15.956799 18.559408 
L 16.094278 18.721891 
L 16.244282 18.859386 
L 16.394286 18.996881 
L 16.54429 19.134375 
L 16.694294 19.27187 
L 16.844297 19.409365 
L 16.994301 19.54686 
L 17.144305 19.684354 
L 17.294309 19.821849 
L 17.505683 20.029122 
L 17.717058 20.236394 
L 17.928432 20.443667 
L 18.139806 20.650939 
L 18.351181 20.858212 
L 18.562555 21.065484 
L 18.77393 21.272757 
L 18.985304 21.480029 
L 19.212553 21.70298 
L 19.439801 21.92593 
L 19.66705 22.148881 
L 19.894298 22.371831 
L 20.106809 22.490556 
L 20.319319 22.609282 
L 20.531829 22.728007 
L 20.74434 22.846732 
L 20.95685 22.965458 
L 21.16936 23.084183 
L 21.38187 23.202909 
L 21.594381 23.321634 
L 21.870737 23.47385 
L 22.142434 23.623563 
L 22.41413 23.773276 
L 22.685826 23.922989 
L 22.957523 24.072702 
L 23.229219 24.222416 
L 23.500915 24.372129 
L 23.772612 24.521842 
L 24.044308 24.671555 
L 24.343471 24.853912 
L 24.642634 25.036269 
L 24.941797 25.218627 
L 25.24096 25.400984 
L 25.540123 25.583341 
L 25.839286 25.765698 
L 26.138449 25.948055 
L 26.437612 26.130412 
" style="fill:none;stroke:#4169e1;stroke-linecap:square;stroke-width:0.4;"/>
   </g>
   <g id="line2d_46">
    <path clip-path="url(#p969e81a712)" d="M 18.985304 21.480029 
L 18.987576 21.802936 
L 18.989848 22.125842 
L 18.99212 22.448749 
L 18.994392 22.771655 
L 19.094384 23.121611 
L 19.194377 23.471568 
L 19.29437 23.821524 
L 19.394363 24.171481 
L 19.494356 24.521437 
L 19.594349 24.871394 
L 19.694342 25.22135 
L 19.794335 25.571306 
L 19.963096 25.790061 
L 20.131858 26.008816 
L 20.300619 26.227571 
L 20.469381 26.446326 
L 20.638143 26.665081 
L 20.806904 26.883836 
L 20.975666 27.102591 
L 21.144427 27.321346 
L 21.306927 27.461951 
L 21.469426 27.602555 
L 21.631925 27.74316 
L 21.794425 27.883764 
L 21.956924 28.024369 
L 22.119423 28.164973 
L 22.281923 28.305578 
L 22.444422 28.446182 
L 22.606921 28.586787 
L 22.769421 28.727391 
L 22.93192 28.867996 
L 23.094419 29.0086 
L 23.256919 29.149205 
L 23.419418 29.289809 
L 23.581917 29.430414 
L 23.744417 29.571018 
L 23.982355 29.779542 
L 24.220293 29.988066 
L 24.458231 30.19659 
L 24.696169 30.405114 
L 24.934108 30.613638 
L 25.172046 30.822161 
L 25.409984 31.030685 
L 25.647922 31.239209 
" style="fill:none;stroke:#4169e1;stroke-linecap:square;stroke-width:0.4;"/>
   </g>
   <g id="line2d_47">
    <path clip-path="url(#p969e81a712)" d="M 21.870737 23.47385 
L 21.954943 23.673541 
L 22.03915 23.873232 
L 22.123356 24.072923 
L 22.207562 24.272614 
L 22.291768 24.472306 
L 22.375974 24.671997 
L 22.46018 24.871688 
L 22.544386 25.071379 
L 22.800616 25.30261 
L 23.056846 25.533841 
L 23.313076 25.765072 
L 23.569305 25.996303 
L 23.825535 26.227534 
L 24.081765 26.458765 
L 24.337995 26.689997 
L 24.594225 26.921228 
L 24.76922 27.077455 
L 24.944215 27.233682 
L 25.119209 27.389909 
L 25.294204 27.546137 
L 25.469199 27.702364 
L 25.644194 27.858591 
L 25.819189 28.014818 
L 25.994183 28.171046 
L 26.212956 28.339786 
L 26.431729 28.508526 
L 26.650501 28.677266 
L 26.869274 28.846006 
L 27.088046 29.014746 
L 27.306819 29.183487 
L 27.525592 29.352227 
L 27.744364 29.520967 
L 28.001584 29.679384 
L 28.258805 29.837801 
L 28.516025 29.996218 
L 28.773245 30.154635 
L 29.030465 30.313052 
L 29.287686 30.471469 
L 29.544906 30.629886 
L 29.802126 30.788303 
L 30.059346 30.94672 
L 30.316566 31.105137 
L 30.573787 31.263554 
L 30.831007 31.421971 
L 31.088227 31.580388 
L 31.345447 31.738805 
L 31.602667 31.897222 
L 31.859888 32.055639 
" style="fill:none;stroke:#000000;stroke-linecap:square;stroke-width:0.4;"/>
   </g>
   <g id="line2d_48">
    <path clip-path="url(#p969e81a712)" d="M 13.894377 14.072392 
L 13.631885 14.134883 
L 13.369393 14.197373 
L 13.1069 14.259864 
L 12.844408 14.322355 
L 12.594382 14.509828 
L 12.344356 14.697301 
L 12.094331 14.884773 
L 11.844305 15.072246 
L 11.781798 15.297257 
L 11.719292 15.522269 
L 11.656785 15.74728 
L 11.594279 15.972292 
L 11.544297 16.284746 
L 11.494315 16.597201 
L 11.444333 16.909655 
L 11.394351 17.22211 
L 11.269338 17.497099 
L 11.144326 17.772089 
L 11.019313 18.047078 
L 10.8943 18.322067 
L 10.831793 18.647035 
L 10.769287 18.972002 
L 10.70678 19.29697 
L 10.644274 19.621937 
L 10.656798 19.909439 
L 10.669323 20.196942 
L 10.681848 20.484444 
L 10.694372 20.771946 
L 10.931873 20.946906 
L 11.169375 21.121866 
L 11.406876 21.296826 
L 11.644377 21.471785 
L 12.006891 21.496811 
L 12.369406 21.521837 
L 12.73192 21.546863 
L 13.094434 21.571889 
L 13.45689 21.609354 
L 13.819346 21.646819 
L 14.181802 21.684284 
L 14.544258 21.721749 
L 14.894306 21.721749 
L 15.244353 21.721749 
L 15.594401 21.721749 
L 15.944449 21.721749 
L 16.244399 21.909222 
L 16.544348 22.096694 
L 16.844297 22.284167 
L 17.144247 22.47164 
L 17.306746 22.634124 
L 17.469246 22.796607 
L 17.631745 22.959091 
L 17.794244 23.121575 
L 17.956744 23.284058 
L 18.119243 23.446542 
L 18.281742 23.609026 
L 18.444242 23.77151 
L 18.613003 23.996484 
L 18.781765 24.221459 
L 18.950526 24.446433 
L 19.119288 24.671408 
L 19.28805 24.896383 
L 19.456811 25.121357 
L 19.625573 25.346332 
L 19.794335 25.571306 
" style="fill:none;stroke:#008000;stroke-linecap:square;stroke-width:0.4;"/>
   </g>
   <g id="line2d_49">
    <path clip-path="url(#p969e81a712)" d="M 9.744367 25.371394 
L 9.819398 25.046427 
L 9.894429 24.72146 
L 9.96946 24.396492 
L 10.044491 24.071525 
L 10.214593 23.966711 
L 10.454483 23.819206 
L 10.694372 23.671701 
L 10.931873 23.60921 
L 11.169375 23.546719 
L 11.406876 23.484228 
L 11.644377 23.421737 
L 11.875616 23.509217 
L 12.106855 23.596697 
L 12.338094 23.684177 
L 12.569333 23.771657 
L 12.800572 23.859137 
L 13.031811 23.946617 
L 13.26305 24.034096 
L 13.494289 24.121576 
L 13.694304 24.215313 
L 13.894319 24.309049 
L 14.094333 24.402785 
L 14.294348 24.496522 
L 14.494363 24.590258 
L 14.694378 24.683994 
L 14.894393 24.777731 
L 15.094408 24.871467 
L 15.313151 25.015218 
L 15.531895 25.158969 
L 15.750638 25.302721 
L 15.969382 25.446472 
L 16.188125 25.590223 
L 16.406869 25.733974 
L 16.625612 25.877725 
L 16.844356 26.021476 
L 17.081857 26.17141 
L 17.319358 26.321344 
L 17.556859 26.471278 
L 17.794361 26.621212 
L 17.894383 26.883689 
L 17.994405 27.146165 
L 18.094427 27.408642 
L 18.194449 27.671118 
L 18.247547 28.039182 
L 18.300646 28.407245 
L 18.353744 28.775308 
L 18.406842 29.143372 
L 18.459941 29.511435 
L 18.513039 29.879498 
L 18.566138 30.247562 
L 18.619236 30.615625 
" style="fill:none;stroke:#000000;stroke-linecap:square;stroke-width:0.4;"/>
   </g>
   <g id="line2d_50">
    <path clip-path="url(#p969e81a712)" d="M 10.214593 23.966711 
L 10.349567 23.804816 
L 10.484542 23.642921 
L 10.619516 23.481026 
L 10.75449 23.319131 
L 10.889465 23.157236 
L 11.024439 22.995342 
L 11.159413 22.833447 
L 11.294388 22.671552 
L 11.663135 22.690321 
L 12.031882 22.709091 
L 12.40063 22.72786 
L 12.769377 22.746629 
L 13.138124 22.765399 
L 13.506872 22.784168 
L 13.875619 22.802937 
L 14.244366 22.821707 
L 14.441236 22.906077 
L 14.638105 22.990447 
L 14.834974 23.074817 
L 15.031843 23.159187 
L 15.228712 23.243557 
L 15.425581 23.327927 
L 15.62245 23.412297 
L 15.81932 23.496667 
L 16.016189 23.581037 
L 16.213058 23.665407 
L 16.409927 23.749778 
L 16.606796 23.834148 
L 16.803665 23.918518 
L 17.000534 24.002888 
L 17.197404 24.087258 
L 17.394273 24.171628 
L 17.50679 24.352844 
L 17.619308 24.53406 
L 17.731825 24.715277 
L 17.844343 24.896493 
L 17.95686 25.077709 
L 18.069378 25.258925 
L 18.181895 25.440142 
L 18.294412 25.621358 
L 18.438154 25.871322 
L 18.581896 26.121285 
L 18.725637 26.371249 
L 18.869379 26.621212 
L 19.01312 26.871176 
L 19.156862 27.12114 
L 19.300603 27.371103 
L 19.444345 27.621067 
L 19.656855 27.896056 
L 19.869366 28.171046 
L 20.081876 28.446035 
L 20.294386 28.721024 
L 20.428763 28.886636 
L 20.563141 29.052248 
L 20.697518 29.21786 
L 20.831895 29.383472 
L 20.966272 29.549084 
L 21.10065 29.714696 
L 21.235027 29.880308 
L 21.369404 30.04592 
L 21.503781 30.211532 
L 21.638159 30.377144 
L 21.772536 30.542756 
L 21.906913 30.708368 
L 22.04129 30.87398 
L 22.175668 31.039591 
L 22.310045 31.205203 
L 22.444422 31.370815 
L 22.690953 31.673812 
L 22.937483 31.976808 
L 23.184014 32.279804 
L 23.430545 32.5828 
L 23.677075 32.885796 
L 23.923606 33.188793 
L 24.170136 33.491789 
L 24.416667 33.794785 
" style="fill:none;stroke:#000000;stroke-linecap:square;stroke-width:0.4;"/>
   </g>
   <g id="line2d_51">
    <path clip-path="url(#p969e81a712)" d="M 14.148131 16.121858 
L 14.034711 16.321917 
L 13.92129 16.521976 
L 13.80787 16.722035 
L 13.694449 16.922095 
L 13.706916 17.197084 
L 13.719382 17.472073 
L 13.731848 17.747063 
L 13.744315 18.022052 
L 13.775568 18.253283 
L 13.806821 18.484514 
L 13.838074 18.715745 
L 13.869328 18.946976 
L 13.900581 19.178207 
L 13.931834 19.409438 
L 13.963087 19.64067 
L 13.994341 19.871901 
L 14.175598 20.009395 
L 14.356855 20.14689 
L 14.538112 20.284385 
L 14.719369 20.421879 
L 14.900626 20.559374 
L 15.081883 20.696869 
L 15.26314 20.834364 
L 15.444397 20.971858 
L 15.56941 21.159331 
L 15.694423 21.346804 
L 15.819436 21.534276 
L 15.944449 21.721749 
" style="fill:none;stroke:#000000;stroke-linecap:square;stroke-width:0.4;"/>
   </g>
   <g id="line2d_52">
    <path clip-path="url(#p969e81a712)" d="M 15.694423 13.672273 
L 16.015577 13.726704 
L 16.336731 13.781135 
L 16.657885 13.835567 
L 16.979039 13.889998 
L 17.300193 13.944429 
L 17.621347 13.99886 
L 17.9425 14.053291 
L 18.263654 14.107722 
L 18.535613 14.153799 
L 18.807571 14.199876 
L 19.07953 14.245953 
L 19.351488 14.29203 
L 19.623447 14.338107 
L 19.895405 14.384184 
L 20.167364 14.430261 
L 20.439322 14.476338 
L 20.788001 14.477846 
L 21.13668 14.479355 
L 21.485359 14.480864 
L 21.834037 14.482373 
L 22.182716 14.483882 
L 22.531395 14.485391 
L 22.880074 14.4869 
L 23.228753 14.488409 
L 23.435205 14.391397 
L 23.641657 14.294385 
L 23.848109 14.197373 
L 24.054561 14.100362 
L 24.240624 14.012919 
L 24.426687 13.925475 
L 24.66611 13.903173 
L 24.905534 13.880871 
L 25.144958 13.858568 
L 25.384381 13.836266 
L 25.67367 13.781982 
L 25.962959 13.727698 
L 26.252248 13.673414 
L 26.541537 13.61913 
L 26.830826 13.564846 
L 27.120115 13.510562 
L 27.409404 13.456278 
L 27.698693 13.401995 
L 27.96838 13.372 
L 28.238066 13.342006 
L 28.507753 13.312012 
L 28.777439 13.282018 
L 29.047126 13.252024 
L 29.316813 13.22203 
L 29.586499 13.192035 
L 29.856186 13.162041 
L 30.219807 13.121043 
L 30.583428 13.080045 
L 30.947049 13.039047 
L 31.31067 12.998049 
L 31.586211 12.915022 
L 31.861752 12.831995 
L 32.137293 12.748968 
L 32.412834 12.665942 
L 32.688375 12.582915 
L 32.963916 12.499888 
L 33.239457 12.416861 
L 33.514998 12.333834 
L 33.78116 12.188648 
L 34.047323 12.043461 
L 34.313485 11.898275 
L 34.579647 11.753089 
L 34.845809 11.607902 
L 35.111971 11.462716 
L 35.378133 11.317529 
L 35.644296 11.172343 
" style="fill:none;stroke:#4169e1;stroke-linecap:square;stroke-width:0.4;"/>
   </g>
   <g id="line2d_53">
    <path clip-path="url(#p969e81a712)" d="M 14.644454 13.522413 
L 14.756943 13.272376 
L 14.869431 13.022338 
L 14.981919 12.772301 
L 15.094408 12.522264 
L 15.3569 12.459773 
L 15.619392 12.397282 
L 15.881884 12.334791 
L 16.144377 12.2723 
L 16.445433 12.229315 
L 16.720158 12.190083 
L 16.994884 12.150852 
L 17.269609 12.11162 
L 17.544335 12.072388 
L 17.731825 11.959883 
L 17.919315 11.847377 
L 18.106806 11.734871 
L 18.294296 11.622366 
L 18.481786 11.50986 
L 18.669276 11.397354 
L 18.856767 11.284848 
L 19.044257 11.172343 
L 19.344265 11.0849 
L 19.644272 10.997457 
L 19.94428 10.910013 
L 20.244288 10.82257 
L 20.444303 10.722578 
L 20.644318 10.622585 
L 20.844332 10.522592 
L 21.044347 10.422599 
L 21.244362 10.322606 
L 21.444377 10.222614 
L 21.644392 10.122621 
L 21.844407 10.022628 
L 22.10352 9.773842 
L 22.351216 9.536023 
L 22.598912 9.298205 
L 22.846607 9.060386 
L 23.094303 8.822567 
L 23.356795 8.560091 
L 23.619287 8.297614 
L 23.881779 8.035138 
L 24.144272 7.772661 
L 24.405249 7.541246 
L 24.679509 7.298128 
L 24.953768 7.055009 
L 25.228028 6.811891 
L 25.502287 6.568773 
L 25.712817 6.382257 
L 25.923347 6.195741 
L 26.133876 6.009225 
L 26.344406 5.822709 
L 26.619364 5.772658 
L 26.894323 5.722606 
L 27.169282 5.672555 
L 27.44424 5.622503 
L 27.831745 5.672555 
L 28.21925 5.722606 
L 28.606755 5.772658 
L 28.994261 5.822709 
L 29.278656 5.97095 
L 29.563052 6.119192 
L 29.847448 6.267433 
L 30.131843 6.415674 
L 30.384956 6.629939 
L 30.63807 6.844204 
L 30.891183 7.058469 
L 31.144296 7.272734 
L 31.369273 7.497672 
L 31.59425 7.722609 
L 31.819226 7.947547 
L 32.044203 8.172485 
L 32.203353 8.32551 
L 32.362503 8.478536 
L 32.521652 8.631561 
L 32.680802 8.784587 
L 32.846651 8.944089 
L 33.0125 9.103592 
L 33.178349 9.263095 
L 33.344198 9.422597 
L 33.581757 9.52789 
L 33.819317 9.633182 
L 34.056876 9.738475 
L 34.294436 9.843767 
L 34.531995 9.949059 
L 34.769555 10.054352 
L 35.007114 10.159644 
L 35.244674 10.264937 
" style="fill:none;stroke:#4169e1;stroke-linecap:square;stroke-width:0.4;"/>
   </g>
   <g id="line2d_54">
    <path clip-path="url(#p969e81a712)" d="M 16.445433 12.229315 
L 16.651535 12.253457 
L 16.857638 12.2776 
L 17.06374 12.301742 
L 17.269842 12.325885 
L 17.475945 12.350028 
L 17.682047 12.37417 
L 17.88815 12.398313 
L 18.094252 12.422455 
L 18.364987 12.45094 
L 18.635722 12.479426 
L 18.906457 12.507911 
L 19.177192 12.536396 
L 19.447928 12.564881 
L 19.718663 12.593367 
L 19.989398 12.621852 
L 20.260133 12.650337 
L 20.545665 12.546848 
L 20.831196 12.443359 
L 21.116728 12.33987 
L 21.402259 12.236381 
L 21.687791 12.132892 
L 21.973323 12.029403 
L 22.258854 11.925914 
L 22.544386 11.822425 
L 22.75627 11.823989 
L 22.968154 11.825553 
L 23.180038 11.827117 
L 23.391922 11.828681 
L 23.603806 11.830245 
L 23.81569 11.831809 
L 24.027574 11.833374 
L 24.239459 11.834938 
L 24.451343 11.836502 
L 24.663227 11.838066 
L 24.875111 11.83963 
L 25.086995 11.841194 
L 25.298879 11.842758 
L 25.510763 11.844322 
L 25.722647 11.845886 
L 25.934531 11.847451 
L 26.157018 11.799018 
L 26.379504 11.750586 
L 26.60199 11.702154 
L 26.824477 11.653721 
L 27.046963 11.605289 
L 27.269449 11.556857 
L 27.491935 11.508425 
L 27.714422 11.459992 
L 27.936908 11.41156 
L 28.159394 11.363128 
L 28.381881 11.314695 
L 28.604367 11.266263 
L 28.826853 11.217831 
L 29.04934 11.169399 
L 29.271826 11.120966 
L 29.494312 11.072534 
L 29.731872 11.096897 
L 29.969431 11.121261 
L 30.206991 11.145624 
L 30.44455 11.169987 
L 30.68211 11.194351 
L 30.919669 11.218714 
L 31.157229 11.243077 
L 31.394788 11.267441 
L 31.644727 11.293055 
L 31.894665 11.31867 
L 32.144604 11.344285 
L 32.394542 11.369899 
L 32.644481 11.395514 
L 32.894419 11.421129 
L 33.144358 11.446743 
L 33.394296 11.472358 
L 33.683905 11.377113 
L 33.973515 11.281867 
L 34.263124 11.186622 
L 34.552734 11.091377 
L 34.842343 10.996132 
L 35.131952 10.900886 
L 35.421562 10.805641 
L 35.711171 10.710396 
" style="fill:none;stroke:#000000;stroke-linecap:square;stroke-width:0.4;"/>
   </g>
   <g id="line2d_55">
    <path clip-path="url(#p969e81a712)" d="M 20.260133 12.650337 
L 20.483158 12.684343 
L 20.706183 12.718348 
L 20.929208 12.752354 
L 21.152234 12.78636 
L 21.375259 12.820365 
L 21.598284 12.854371 
L 21.821309 12.888377 
L 22.044334 12.922382 
L 22.219329 13.022412 
L 22.394324 13.122442 
L 22.569319 13.222471 
L 22.744313 13.322501 
L 23.071875 13.516966 
L 23.399437 13.711431 
L 23.726999 13.905896 
L 24.054561 14.100362 
" style="fill:none;stroke:#4169e1;stroke-linecap:square;stroke-width:0.4;"/>
   </g>
   <g id="line2d_56">
    <path clip-path="url(#p969e81a712)" d="M 22.10352 9.773842 
L 22.351216 9.873504 
L 22.598912 9.973165 
L 22.846607 10.072827 
L 23.094303 10.172488 
L 23.444176 10.358342 
L 23.794049 10.544195 
L 24.143922 10.730048 
L 24.493795 10.915902 
L 24.673887 11.032345 
L 24.853979 11.148789 
L 25.034071 11.265233 
L 25.214163 11.381676 
L 25.394255 11.49812 
L 25.574347 11.614563 
L 25.754439 11.731007 
L 25.934531 11.847451 
" style="fill:none;stroke:#000000;stroke-linecap:square;stroke-width:0.4;"/>
   </g>
   <g id="line2d_57">
    <path clip-path="url(#p969e81a712)" d="M 25.502287 6.568773 
L 25.887812 6.644733 
L 26.273336 6.720694 
L 26.658861 6.796655 
L 27.044385 6.872615 
L 27.250633 6.953876 
L 27.456881 7.035136 
L 27.663129 7.116396 
L 27.869377 7.197656 
L 28.075625 7.278917 
L 28.281873 7.360177 
L 28.488121 7.441437 
L 28.694369 7.522697 
L 28.882937 7.624015 
L 29.071505 7.725333 
L 29.260073 7.826651 
L 29.448641 7.927968 
L 29.637209 8.029286 
L 29.825777 8.130604 
L 30.014345 8.231921 
L 30.202913 8.333239 
L 30.512649 8.389657 
L 30.822385 8.446076 
L 31.132121 8.502494 
L 31.441857 8.558913 
L 31.751594 8.615331 
L 32.06133 8.67175 
L 32.371066 8.728168 
L 32.680802 8.784587 
" style="fill:none;stroke:#4169e1;stroke-linecap:square;stroke-width:0.4;"/>
   </g>
   <g id="line2d_58">
    <path clip-path="url(#p969e81a712)" d="M 24.405249 7.541246 
L 24.765025 7.586587 
L 25.124802 7.631928 
L 25.484578 7.677269 
L 25.844354 7.722609 
L 26.156828 7.872617 
L 26.469302 8.022625 
L 26.781776 8.172632 
L 27.09425 8.32264 
L 27.369267 8.528882 
L 27.644284 8.735124 
L 27.919301 8.941366 
L 28.194318 9.147608 
L 28.469334 9.35385 
L 28.744351 9.560092 
L 29.019368 9.766334 
L 29.294385 9.972576 
L 29.556935 10.134434 
L 29.819486 10.296292 
L 30.082036 10.45815 
L 30.344587 10.620009 
L 30.607137 10.781867 
L 30.869687 10.943725 
L 31.132238 11.105583 
L 31.394788 11.267441 
" style="fill:none;stroke:#4169e1;stroke-linecap:square;stroke-width:0.4;"/>
   </g>
   <g id="line2d_59">
    <path clip-path="url(#p969e81a712)" d="M 23.094303 8.822567 
L 23.406777 8.922523 
L 23.719251 9.022479 
L 24.031725 9.122435 
L 24.344199 9.222391 
L 24.706713 9.334934 
L 25.069227 9.447476 
L 25.431742 9.560019 
L 25.794256 9.672561 
L 25.988008 9.741308 
L 26.181761 9.810056 
L 26.375514 9.878803 
L 26.569266 9.94755 
L 26.763019 10.016298 
L 26.956771 10.085045 
L 27.150524 10.153793 
L 27.344276 10.22254 
L 27.613031 10.328789 
L 27.881785 10.435038 
L 28.15054 10.541288 
L 28.419294 10.647537 
L 28.688049 10.753786 
L 28.956803 10.860035 
L 29.225558 10.966285 
L 29.494312 11.072534 
" style="fill:none;stroke:#000000;stroke-linecap:square;stroke-width:0.4;"/>
   </g>
   <g id="line2d_60">
    <path clip-path="url(#p969e81a712)" d="M 16.144377 12.2723 
L 16.031888 12.022337 
L 15.9194 11.772373 
L 15.806912 11.52241 
L 15.694423 11.272446 
L 15.456922 11.034958 
L 15.219421 10.797471 
L 14.981919 10.559983 
L 14.744418 10.322496 
L 14.506917 10.085008 
L 14.269416 9.847521 
L 14.031914 9.610033 
L 13.794413 9.372546 
L 13.496852 9.215031 
L 13.199291 9.057515 
L 12.954916 8.928154 
L 12.710541 8.798793 
L 12.466165 8.669431 
L 12.22179 8.54007 
L 11.977415 8.410709 
L 11.73304 8.281347 
L 11.488665 8.151986 
L 11.244289 8.022625 
L 11.069294 7.88513 
L 10.8943 7.747635 
L 10.719305 7.610141 
L 10.54431 7.472646 
L 10.54431 7.222682 
L 10.54431 6.972719 
L 10.919349 6.872615 
L 11.294388 6.772512 
L 11.456858 6.597552 
L 11.619328 6.422593 
L 11.781798 6.247633 
L 11.944268 6.072673 
L 12.056815 5.797684 
L 12.169362 5.522694 
L 12.281908 5.247705 
L 12.394455 4.972715 
L 12.481952 4.597696 
L 12.56945 4.222677 
L 12.656947 3.847658 
L 12.744444 3.472639 
L 12.944372 3.372683 
L 13.144299 3.272727 
L 13.431841 3.322705 
L 13.719382 3.372683 
L 14.006923 3.422661 
L 14.294465 3.472639 
L 14.633386 3.586948 
L 14.972308 3.701257 
L 15.311229 3.815566 
L 15.65015 3.929875 
L 15.880661 3.972714 
L 16.111172 4.015552 
L 16.341683 4.05839 
L 16.572193 4.101229 
L 16.802704 4.144067 
L 17.033215 4.186905 
L 17.263726 4.229743 
L 17.494236 4.272582 
L 17.821158 4.305262 
L 18.030318 4.326166 
L 18.239479 4.34707 
L 18.44864 4.367974 
L 18.6578 4.388878 
L 18.866961 4.409782 
L 19.076122 4.430686 
L 19.285283 4.45159 
L 19.494443 4.472494 
L 19.738178 4.347512 
L 19.981912 4.22253 
L 20.225647 4.097548 
L 20.469381 3.972566 
L 20.713115 3.847585 
L 20.95685 3.722603 
L 21.200584 3.597621 
L 21.444319 3.472639 
L 21.831824 3.435174 
L 22.219329 3.397709 
L 22.606834 3.360244 
L 22.994339 3.322779 
L 23.350591 3.328999 
L 23.706843 3.335218 
L 24.063095 3.341438 
L 24.419347 3.347657 
L 24.775599 3.353877 
L 25.13185 3.360097 
L 25.488102 3.366316 
L 25.844354 3.372536 
L 26.06936 3.428807 
L 26.294366 3.485079 
L 26.519372 3.54135 
L 26.744377 3.597621 
L 26.969383 3.653892 
L 27.194389 3.710164 
L 27.419395 3.766435 
L 27.644401 3.822706 
L 27.969399 4.035205 
L 28.294398 4.247703 
L 28.619397 4.460202 
L 28.944395 4.6727 
L 29.092826 4.890572 
L 29.241257 5.108444 
L 29.389688 5.326315 
L 29.538119 5.544187 
L 29.68655 5.762059 
L 29.834981 5.97993 
L 29.983412 6.197802 
L 30.131843 6.415674 
" style="fill:none;stroke:#4169e1;stroke-linecap:square;stroke-width:0.4;"/>
   </g>
   <g id="line2d_61">
    <path clip-path="url(#p969e81a712)" d="M 13.199291 9.057515 
L 13.50492 9.028147 
L 13.810549 8.998778 
L 14.116179 8.96941 
L 14.421808 8.940041 
L 14.727437 8.910673 
L 15.033066 8.881304 
L 15.338696 8.851936 
L 15.644325 8.822567 
L 15.925575 8.878802 
L 16.206825 8.935036 
L 16.488075 8.99127 
L 16.769325 9.047505 
L 17.050575 9.103739 
L 17.331825 9.159974 
L 17.613075 9.216208 
L 17.894324 9.272443 
L 18.14435 9.459989 
L 18.394376 9.647535 
L 18.644402 9.835082 
L 18.894428 10.022628 
L 19.231893 10.222614 
L 19.569358 10.422599 
L 19.906823 10.622585 
L 20.244288 10.82257 
" style="fill:none;stroke:#4169e1;stroke-linecap:square;stroke-width:0.4;"/>
   </g>
   <g id="line2d_62">
    <path clip-path="url(#p969e81a712)" d="M 17.494236 4.272582 
L 17.821158 4.305262 
L 17.98654 4.476174 
L 18.151923 4.647085 
L 18.317306 4.817997 
L 18.482689 4.988908 
L 18.648072 5.15982 
L 18.813455 5.330732 
L 18.978838 5.501643 
L 19.144221 5.672555 
L 19.300487 5.816306 
L 19.456753 5.960057 
L 19.613019 6.103808 
L 19.769285 6.247559 
L 19.925551 6.39131 
L 20.081818 6.535061 
L 20.238084 6.678813 
L 20.39435 6.822564 
L 20.644318 7.010036 
L 20.894285 7.197509 
L 21.144253 7.384982 
L 21.39422 7.572455 
L 21.606731 7.728719 
L 21.819241 7.884983 
L 22.031751 8.041247 
L 22.244262 8.197511 
L 22.456772 8.353775 
L 22.669282 8.510039 
L 22.881793 8.666303 
L 23.094303 8.822567 
" style="fill:none;stroke:#008000;stroke-linecap:square;stroke-width:0.4;"/>
   </g>
   <g id="line2d_63">
    <path clip-path="url(#p969e81a712)" d="M 18.263654 14.107722 
L 18.529991 14.378295 
L 18.796328 14.648868 
L 19.062665 14.919441 
L 19.329002 15.190015 
L 19.595339 15.460588 
L 19.861676 15.731161 
L 20.128013 16.001734 
L 20.39435 16.272307 
L 20.600598 16.441047 
L 20.806846 16.609787 
L 21.013094 16.778527 
L 21.219342 16.947268 
L 21.42559 17.116008 
L 21.631838 17.284748 
L 21.838086 17.453488 
L 22.044334 17.622228 
L 22.294331 17.778455 
L 22.544328 17.934683 
L 22.794324 18.09091 
L 23.044321 18.247137 
L 23.294318 18.403364 
L 23.544314 18.559592 
L 23.794311 18.715819 
L 24.044308 18.872046 
L 24.3068 19.084508 
L 24.569292 19.29697 
L 24.831784 19.509431 
L 25.094277 19.721893 
L 25.356769 19.934355 
L 25.619261 20.146816 
L 25.881753 20.359278 
L 26.144245 20.57174 
L 26.325503 20.765506 
L 26.50676 20.959272 
L 26.688017 21.153038 
L 26.869274 21.346804 
L 27.050531 21.54057 
L 27.231788 21.734336 
L 27.413045 21.928102 
L 27.594302 22.121867 
L 27.76618 22.315597 
L 27.938059 22.509326 
L 28.109937 22.703055 
L 28.281815 22.896784 
L 28.453693 23.090513 
L 28.625571 23.284242 
L 28.79745 23.477972 
L 28.969328 23.671701 
L 29.141206 23.86543 
L 29.313084 24.059159 
L 29.484962 24.252888 
L 29.656841 24.446617 
L 29.828719 24.640347 
L 30.000597 24.834076 
L 30.172475 25.027805 
L 30.344354 25.221534 
L 30.507523 25.378792 
L 30.670692 25.536049 
L 30.833861 25.693307 
L 30.99703 25.850565 
L 31.1602 26.007823 
L 31.323369 26.16508 
L 31.486538 26.322338 
L 31.649707 26.479596 
L 31.853596 26.697541 
L 32.057485 26.915486 
L 32.261374 27.133432 
L 32.465262 27.351377 
L 32.659277 27.558778 
L 32.853292 27.76618 
L 33.047307 27.973581 
L 33.241321 28.180982 
L 33.435336 28.388384 
L 33.629351 28.595785 
L 33.823365 28.803186 
L 34.01738 29.010588 
L 34.211395 29.217989 
L 34.405409 29.42539 
L 34.599424 29.632792 
L 34.793439 29.840193 
L 34.987454 30.047594 
L 35.181468 30.254996 
L 35.375483 30.462397 
L 35.569498 30.669798 
" style="fill:none;stroke:#000000;stroke-linecap:square;stroke-width:0.4;"/>
   </g>
   <g id="line2d_64">
    <path clip-path="url(#p969e81a712)" d="M 35.569498 30.669798 
L 35.66317 30.870005 
L 35.756842 31.070211 
L 35.850515 31.270418 
L 35.944187 31.470624 
L 36.075433 31.639364 
L 36.206679 31.808104 
L 36.337925 31.976845 
L 36.469171 32.145585 
L 36.600417 32.314325 
L 36.731663 32.483065 
L 36.86291 32.651805 
L 36.994156 32.820545 
L 37.156655 33.026751 
L 37.319154 33.232956 
L 37.481654 33.439161 
L 37.644153 33.645366 
L 37.806652 33.851572 
L 37.969152 34.057777 
L 38.131651 34.263982 
L 38.29415 34.470187 
L 38.438183 34.624501 
L 38.582216 34.778814 
L 38.726249 34.933128 
L 38.870282 35.087441 
L 39.014314 35.241755 
L 39.158347 35.396068 
L 39.30238 35.550382 
L 39.446413 35.704696 
L 39.694342 35.969969 
L 39.80683 36.138709 
L 39.919318 36.307449 
L 40.031807 36.47619 
L 40.144295 36.64493 
L 40.256783 36.81367 
L 40.369272 36.98241 
L 40.48176 37.15115 
L 40.594248 37.31989 
L 40.681746 37.538608 
L 40.769243 37.757327 
L 40.85674 37.976045 
L 40.944238 38.194763 
L 41.031735 38.413481 
L 41.119233 38.632199 
L 41.20673 38.850917 
L 41.294227 39.069636 
L 41.456698 39.394529 
L 41.619168 39.719423 
L 41.781638 40.044317 
L 41.944108 40.369211 
" style="fill:none;stroke:#4169e1;stroke-linecap:square;stroke-width:0.4;"/>
   </g>
   <g id="line2d_65">
    <path clip-path="url(#p969e81a712)" d="M 32.465262 27.351377 
L 32.822534 27.418799 
L 33.179805 27.486222 
L 33.537076 27.553644 
L 33.894348 27.621067 
L 34.054255 27.751863 
L 34.214162 27.88266 
L 34.374069 28.013457 
L 34.533976 28.144253 
L 34.693883 28.27505 
L 34.85379 28.405847 
L 35.013697 28.536643 
L 35.173604 28.66744 
L 35.304632 28.861408 
L 35.435659 29.055377 
L 35.566687 29.249345 
L 35.697715 29.443313 
L 35.828742 29.637282 
L 35.95977 29.83125 
L 36.090797 30.025218 
L 36.221825 30.219187 
L 36.352853 30.413155 
L 36.48388 30.607124 
L 36.614908 30.801092 
L 36.745936 30.99506 
L 36.876963 31.189029 
L 37.007991 31.382997 
L 37.139019 31.576965 
L 37.270046 31.770934 
L 37.526072 31.983359 
L 37.782098 32.195784 
L 38.038124 32.408208 
L 38.29415 32.620633 
L 38.450416 32.789337 
L 38.606683 32.95804 
L 38.762949 33.126743 
L 38.919215 33.295447 
L 39.075481 33.46415 
L 39.231747 33.632853 
L 39.388013 33.801557 
L 39.54428 33.97026 
L 39.532046 34.187065 
L 39.519813 34.403869 
L 39.50758 34.620673 
L 39.495346 34.837478 
L 39.483113 35.054282 
L 39.47088 35.271087 
L 39.458646 35.487891 
L 39.446413 35.704696 
" style="fill:none;stroke:#000000;stroke-linecap:square;stroke-width:0.4;"/>
   </g>
  </g>
 </g>
 <defs>
  <clipPath id="p969e81a712">
   <rect height="72" width="82.587989" x="0" y="0"/>
  </clipPath>
 </defs>
</svg>
