<?xml version="1.0" encoding="utf-8" standalone="no"?>
<!DOCTYPE svg PUBLIC "-//W3C//DTD SVG 1.1//EN"
  "http://www.w3.org/Graphics/SVG/1.1/DTD/svg11.dtd">
<svg height="72pt" version="1.1" viewBox="0 0 104.289009 72" width="104.289009pt" xmlns="http://www.w3.org/2000/svg" xmlns:xlink="http://www.w3.org/1999/xlink">
 <metadata>
  <rdf:RDF xmlns:cc="http://creativecommons.org/ns#" xmlns:dc="http://purl.org/dc/elements/1.1/" xmlns:rdf="http://www.w3.org/1999/02/22-rdf-syntax-ns#">
   <cc:Work>
    <dc:type rdf:resource="http://purl.org/dc/dcmitype/StillImage"/>
    <dc:date>2022-05-18T23:16:41.583273</dc:date>
    <dc:format>image/svg+xml</dc:format>
    <dc:creator>
     <cc:Agent>
      <dc:title>Matplotlib v3.4.3, https://matplotlib.org/</dc:title>
     </cc:Agent>
    </dc:creator>
   </cc:Work>
  </rdf:RDF>
 </metadata>
 <defs>
  <style type="text/css">*{stroke-linecap:butt;stroke-linejoin:round;}</style>
 </defs>
 <g id="figure_1">
  <g id="patch_1">
   <path d="M 0 72 
L 104.289009 72 
L 104.289009 0 
L 0 0 
z
" style="fill:#ffffff;"/>
  </g>
  <g id="axes_1">
   <g id="line2d_1">
    <path clip-path="url(#ped47f414ba)" d="M 41.87732 44.838589 
L 40.500957 42.296362 
L 39.124593 39.754134 
L 37.74823 37.211907 
L 36.371866 34.66968 
" style="fill:none;stroke:#808080;stroke-linecap:square;stroke-width:0.482819;"/>
   </g>
   <g id="line2d_2">
    <path clip-path="url(#ped47f414ba)" d="M 53.335917 51.429635 
L 53.781367 49.968558 
L 54.706964 46.935319 
L 55.516721 44.281235 
L 56.326478 41.627152 
L 57.01452 39.370737 
L 57.702562 37.114322 
L 58.274205 35.240919 
L 58.845847 33.367516 
L 59.609157 30.865403 
L 60.372466 28.363289 
L 61.020496 26.238788 
" style="fill:none;stroke:#808080;stroke-linecap:square;stroke-width:0.482819;"/>
   </g>
   <g id="line2d_3">
    <path clip-path="url(#ped47f414ba)" d="M 63.614853 58.638591 
L 63.70495 55.805923 
L 63.773503 53.644875 
L 63.842055 51.483827 
L 63.910607 49.32278 
L 63.97916 47.161732 
L 64.047712 45.000685 
L 64.116264 42.839637 
L 64.184817 40.678589 
L 64.253369 38.517542 
L 64.33843 35.840701 
L 64.423491 33.16386 
L 64.490644 31.045144 
L 64.557798 28.926429 
L 64.605364 27.427552 
" style="fill:none;stroke:#808080;stroke-linecap:square;stroke-width:0.482819;"/>
   </g>
   <g id="line2d_4">
    <path clip-path="url(#ped47f414ba)" d="M 66.867312 58.945618 
L 67.112982 56.360576 
L 67.426084 53.069682 
L 67.739187 49.778788 
L 67.975902 47.289403 
L 68.212618 44.800018 
L 68.499978 41.777965 
L 68.787338 38.755912 
L 69.074698 35.733859 
L 69.362059 32.711806 
L 69.581426 30.402163 
L 69.796876 28.137648 
L 70.012327 25.873133 
L 70.293531 22.914722 
L 70.574736 19.956312 
L 70.78459 17.748111 
L 70.994444 15.53991 
L 71.171841 13.674607 
L 71.349238 11.809304 
" style="fill:none;stroke:#808080;stroke-linecap:square;stroke-width:0.482819;"/>
   </g>
   <g id="line2d_5">
    <path clip-path="url(#ped47f414ba)" d="M 71.395126 63.159907 
L 71.63296 59.864384 
L 71.796647 57.593697 
L 71.960333 55.323011 
L 72.117094 53.150392 
L 72.273855 50.977773 
L 72.430616 48.805154 
L 72.587377 46.632535 
L 72.744138 44.459916 
L 72.900899 42.287298 
L 73.05766 40.114679 
L 73.214421 37.94206 
L 73.444422 34.754536 
L 73.673862 31.572413 
L 73.903303 28.390289 
L 74.131344 25.228223 
L 74.359386 22.066156 
L 74.603656 18.678834 
L 74.847926 15.291511 
L 75.027561 12.803669 
" style="fill:none;stroke:#808080;stroke-linecap:square;stroke-width:0.482819;"/>
   </g>
   <g id="line2d_6">
    <path clip-path="url(#ped47f414ba)" d="M 76.491504 56.731631 
L 76.65547 54.486981 
L 76.819436 52.24233 
L 76.983402 49.997679 
L 77.147368 47.753029 
L 77.368974 44.718247 
L 77.591419 41.674594 
L 77.813865 38.630941 
L 78.011408 35.924015 
L 78.097028 34.749136 
L 78.260994 32.504678 
L 78.42496 30.260221 
" style="fill:none;stroke:#808080;stroke-linecap:square;stroke-width:0.482819;"/>
   </g>
   <g id="line2d_7">
    <path clip-path="url(#ped47f414ba)" d="M 75.032598 61.573088 
L 77.790361 60.322609 
" style="fill:none;stroke:#808080;stroke-linecap:square;stroke-width:0.482819;"/>
   </g>
   <g id="line2d_8">
    <path clip-path="url(#ped47f414ba)" d="M 74.203254 63.384391 
L 75.927975 62.705924 
L 77.652697 62.027456 
L 79.441773 61.323532 
L 81.23085 60.619608 
L 83.138844 59.869012 
L 85.046838 59.118417 
L 86.739662 58.452292 
L 88.432485 57.786168 
L 89.918812 57.201428 
" style="fill:none;stroke:#808080;stroke-linecap:square;stroke-width:0.482819;"/>
   </g>
   <g id="line2d_9">
    <path clip-path="url(#ped47f414ba)" d="M 74.592184 67.775336 
L 77.114351 67.121168 
L 78.654401 66.721571 
L 81.080315 66.092089 
L 82.989708 65.596835 
" style="fill:none;stroke:#808080;stroke-linecap:square;stroke-width:0.482819;"/>
   </g>
   <g id="line2d_10">
    <path clip-path="url(#ped47f414ba)" d="M 85.227592 67.913421 
L 87.003098 65.594906 
L 88.778605 63.276392 
L 90.554111 60.957877 
L 92.329617 58.639363 
L 94.042586 56.402233 
L 95.424826 54.597101 
L 96.807065 52.791969 
L 98.556969 50.507012 
" style="fill:none;stroke:#808080;stroke-linecap:square;stroke-width:0.482819;"/>
   </g>
   <g id="line2d_11">
    <path clip-path="url(#ped47f414ba)" d="M 19.298692 40.054218 
L 20.429666 37.921231 
L 21.56064 35.788244 
L 22.870969 33.317373 
L 24.181298 30.846503 
L 25.441263 28.470517 
L 26.701227 26.094532 
L 27.940486 23.757889 
L 29.179745 21.421246 
L 30.72623 18.504878 
L 32.272715 15.58851 
L 33.291487 13.667278 
L 34.310259 11.746047 
L 35.795467 8.945393 
L 37.280675 6.144738 
L 38.646685 3.568183 
" style="fill:none;stroke:#808080;stroke-linecap:square;stroke-width:0.482819;"/>
   </g>
   <g id="line2d_12">
    <path clip-path="url(#ped47f414ba)" d="M 83.761971 65.545149 
L 83.879489 64.989724 
L 83.291898 64.694269 
L 82.33944 64.447413 
L 81.386982 64.200557 
L 80.829294 64.396354 
L 80.271607 64.592151 
L 79.713919 64.787948 
L 79.156232 64.983745 
L 78.598545 65.179542 
L 78.040857 65.37534 
L 77.48317 65.571137 
L 76.925482 65.766934 
L 76.367795 65.962731 
L 75.810107 66.158528 
L 75.25242 66.354325 
L 74.694733 66.550122 
L 74.137045 66.745919 
L 73.579358 66.941716 
L 73.02167 67.137513 
L 72.463983 67.33331 
" style="fill:none;stroke:#008000;stroke-linecap:square;stroke-width:0.482819;"/>
   </g>
   <g id="line2d_13">
    <path clip-path="url(#ped47f414ba)" d="M 77.796517 59.446272 
L 77.247748 59.731217 
L 76.69898 60.016161 
L 76.150211 60.301106 
L 75.601442 60.586051 
L 75.052674 60.870995 
L 74.503905 61.15594 
L 73.955137 61.440885 
L 73.406368 61.72583 
" style="fill:none;stroke:#008000;stroke-linecap:square;stroke-width:0.482819;"/>
   </g>
   <g id="line2d_14">
    <path clip-path="url(#ped47f414ba)" d="M 78.559267 60.774664 
L 77.977061 61.016023 
L 77.394856 61.257382 
L 76.812651 61.498742 
L 76.230445 61.740101 
L 75.64824 61.98146 
L 75.066035 62.222819 
L 74.483829 62.464179 
L 73.901624 62.705538 
" style="fill:none;stroke:#008000;stroke-linecap:square;stroke-width:0.482819;"/>
   </g>
   <g id="line2d_15">
    <path clip-path="url(#ped47f414ba)" d="M 90.823144 57.737568 
L 90.717937 58.051538 
L 90.177912 58.398678 
L 89.637887 58.745819 
L 89.082159 58.965892 
L 88.52643 59.185965 
L 87.970701 59.406037 
L 87.414972 59.62611 
L 86.859243 59.846183 
L 86.303515 60.066256 
L 85.747786 60.286328 
L 85.192057 60.506401 
L 84.636328 60.726474 
L 84.0806 60.946547 
L 83.524871 61.16662 
L 82.969142 61.386692 
L 82.413413 61.606765 
L 81.857684 61.826838 
L 81.301956 62.046911 
L 80.746227 62.266983 
L 80.190498 62.487056 
L 79.634769 62.707129 
L 79.079041 62.927202 
L 78.523312 63.147274 
L 77.967583 63.367347 
L 77.411854 63.58742 
L 76.856125 63.807493 
L 76.300397 64.027566 
L 75.744668 64.247638 
L 75.188939 64.467711 
L 74.63321 64.687784 
L 74.077482 64.907857 
L 73.521753 65.127929 
L 72.966024 65.348002 
L 72.410295 65.568075 
L 71.854566 65.788148 
" style="fill:none;stroke:#008000;stroke-linecap:square;stroke-width:0.482819;"/>
   </g>
   <g id="line2d_16">
    <path clip-path="url(#ped47f414ba)" d="M 76.644837 13.15081 
L 77.100361 13.543851 
L 77.555884 13.936891 
L 77.945094 14.462231 
L 78.334303 14.98757 
L 78.720994 15.341847 
L 79.107686 15.696123 
L 79.494377 16.0504 
L 79.881068 16.404676 
L 80.267759 16.758953 
L 80.654451 17.113229 
L 81.041142 17.467505 
L 81.427833 17.821782 
L 81.871465 18.209904 
L 82.315097 18.598027 
L 82.758728 18.98615 
L 83.20236 19.374272 
L 83.645992 19.762395 
L 84.089623 20.150518 
L 84.533255 20.53864 
L 84.976887 20.926763 
L 85.343152 21.449017 
L 85.709418 21.971271 
L 85.780208 22.657452 
L 85.850999 23.343634 
L 85.787204 23.93088 
L 85.723408 24.518127 
L 85.659612 25.105373 
L 85.595817 25.69262 
L 85.488721 26.332612 
L 85.381625 26.972605 
L 85.27453 27.612597 
L 85.167434 28.25259 
L 85.060339 28.892582 
L 84.953243 29.532575 
L 84.846148 30.172568 
L 84.739052 30.81256 
" style="fill:none;stroke:#008000;stroke-linecap:square;stroke-width:0.482819;"/>
   </g>
   <g id="line2d_17">
    <path clip-path="url(#ped47f414ba)" d="M 99.391909 50.462269 
L 99.5486 51.376407 
L 99.143721 52.21263 
L 98.738842 53.048854 
L 98.256982 53.731516 
L 97.775122 54.414177 
L 97.293262 55.096839 
L 96.811402 55.779501 
L 96.329542 56.462163 
L 95.847682 57.144825 
L 95.365822 57.827487 
L 94.883961 58.510149 
L 94.402101 59.192811 
L 93.920241 59.875473 
L 93.438381 60.558135 
L 92.956521 61.240797 
L 92.474661 61.923459 
L 91.992801 62.606121 
L 91.510941 63.288783 
L 91.029081 63.971444 
L 90.663235 64.405853 
L 90.297389 64.840261 
L 89.931543 65.274669 
L 89.565698 65.709077 
L 89.199852 66.143485 
L 88.834006 66.577893 
L 88.46816 67.012301 
L 88.102315 67.446709 
L 87.6058 67.76685 
L 87.109285 68.086991 
L 86.61277 68.407132 
L 86.116255 68.727273 
" style="fill:none;stroke:#008000;stroke-linecap:square;stroke-width:0.482819;"/>
   </g>
   <g id="line2d_18">
    <path clip-path="url(#ped47f414ba)" d="M 84.739052 30.81256 
L 84.818797 31.457856 
L 84.898541 32.103152 
L 85.215841 32.682877 
L 85.53314 33.262602 
L 86.13822 33.642336 
L 86.743299 34.022069 
L 87.348379 34.401803 
L 87.953458 34.781536 
L 88.508173 35.081813 
L 89.062887 35.382089 
L 89.617601 35.682366 
L 90.172316 35.982643 
L 90.319214 36.713953 
L 90.466112 37.445263 
L 90.337961 38.144558 
L 90.20981 38.843854 
L 90.398958 39.658092 
L 90.588107 40.47233 
L 90.879245 41.11049 
L 91.170382 41.748651 
L 91.46152 42.386811 
L 91.752658 43.024972 
L 92.087585 43.964373 
L 92.422512 44.903775 
L 92.757439 45.843176 
L 93.092367 46.782577 
L 93.345031 47.294996 
L 93.597695 47.807414 
L 93.85036 48.319832 
L 94.103024 48.832251 
L 94.110859 49.431261 
L 94.118693 50.030272 
L 94.126528 50.629283 
L 94.134362 51.228293 
L 93.853438 51.879761 
L 93.572513 52.531228 
L 93.027731 53.303809 
L 92.48295 54.07639 
L 92.052189 54.368374 
L 91.621429 54.660358 
L 91.190668 54.952342 
L 90.759908 55.244326 
L 90.185607 55.595902 
L 89.611306 55.947479 
L 89.037005 56.299055 
L 88.462704 56.650632 
L 88.0083 56.972508 
L 87.553896 57.294385 
L 87.099492 57.616262 
L 86.645087 57.938138 
L 86.22426 58.415842 
L 85.803432 58.893547 
L 85.382605 59.371251 
L 84.961777 59.848955 
L 84.127117 60.170253 
L 83.292457 60.491551 
L 82.457797 60.812849 
L 81.623137 61.134147 
L 80.788478 61.455445 
L 79.953818 61.776743 
L 79.119158 62.098042 
L 78.284498 62.41934 
L 77.449838 62.740638 
L 76.615178 63.061936 
L 75.780518 63.383234 
L 74.945858 63.704532 
L 74.111198 64.02583 
L 73.276538 64.347128 
L 72.441878 64.668426 
L 71.607218 64.989724 
" style="fill:none;stroke:#008000;stroke-linecap:square;stroke-width:0.482819;"/>
   </g>
   <g id="line2d_19">
    <path clip-path="url(#ped47f414ba)" d="M 75.652087 11.739876 
L 76.148462 12.445343 
L 76.644837 13.15081 
L 76.984661 14.013262 
L 77.324485 14.875714 
L 77.664309 15.738166 
L 78.004133 16.600618 
L 78.584169 16.944673 
L 79.164206 17.288728 
L 79.677789 17.593633 
L 80.191373 17.898538 
L 80.704956 18.203444 
L 81.218539 18.508349 
L 81.571373 19.30523 
L 81.924208 20.102111 
L 82.061383 20.850199 
L 82.198558 21.598287 
L 82.335732 22.346376 
L 82.472907 23.094464 
L 82.610082 23.842552 
L 82.747256 24.590641 
L 82.884431 25.338729 
L 83.021606 26.086817 
L 83.236286 26.677535 
L 83.450967 27.268253 
L 83.665648 27.858971 
L 83.880329 28.449689 
L 84.09501 29.040407 
L 84.30969 29.631124 
L 84.524371 30.221842 
L 84.739052 30.81256 
" style="fill:none;stroke:#008000;stroke-linecap:square;stroke-width:0.482819;"/>
   </g>
   <g id="line2d_20">
    <path clip-path="url(#ped47f414ba)" d="M 64.858868 26.452472 
L 65.380985 26.665578 
L 65.903103 26.878684 
L 66.42522 27.09179 
L 66.947337 27.304896 
L 67.436437 27.504694 
L 68.068238 27.762736 
L 68.700039 28.020777 
L 69.614723 28.112191 
L 70.529407 28.203604 
L 71.444092 28.295018 
L 72.358776 28.386432 
L 73.038284 28.575817 
L 73.717792 28.765201 
L 74.397299 28.954586 
L 75.076807 29.14397 
L 75.634739 29.14397 
L 76.192672 29.14397 
L 76.719266 29.14397 
L 77.24586 29.14397 
L 77.912356 29.294398 
L 78.578853 29.444826 
L 79.24535 29.595253 
L 79.911847 29.745681 
L 80.503915 29.889937 
L 81.227492 30.066207 
L 81.95107 30.242478 
L 82.808114 30.417591 
L 83.665158 30.592704 
L 84.202105 30.702632 
L 84.739052 30.81256 
" style="fill:none;stroke:#008000;stroke-linecap:square;stroke-width:0.482819;"/>
   </g>
   <g id="line2d_21">
    <path clip-path="url(#ped47f414ba)" d="M 79.164206 17.288728 
L 79.411415 18.039709 
L 79.658623 18.79069 
L 79.905831 19.541671 
L 80.153039 20.292653 
L 80.224949 21.253075 
L 80.296859 22.213498 
L 80.368769 23.173921 
L 80.440679 24.134343 
L 80.368769 24.820332 
L 80.296859 25.506321 
L 80.224949 26.19231 
L 80.153039 26.878298 
L 80.602547 27.719343 
L 81.052054 28.560388 
L 81.501562 29.401433 
L 81.95107 30.242478 
" style="fill:none;stroke:#008000;stroke-linecap:square;stroke-width:0.482819;"/>
   </g>
   <g id="line2d_22">
    <path clip-path="url(#ped47f414ba)" d="M 93.092367 46.782577 
L 92.462769 47.120316 
L 91.833172 47.458055 
L 91.203574 47.795794 
L 90.573977 48.133533 
L 89.944379 48.471272 
L 89.314782 48.809012 
L 88.685184 49.146751 
L 88.055587 49.48449 
L 87.42599 49.822229 
L 86.796392 50.159968 
L 86.166795 50.497707 
L 85.537197 50.835446 
L 84.9076 51.173185 
L 84.278002 51.510924 
L 83.648405 51.848663 
L 83.018808 52.186402 
L 82.523552 52.5212 
L 81.700084 53.077782 
L 80.876616 53.634364 
L 80.053149 54.190947 
L 79.229681 54.747529 
L 78.913501 55.308354 
L 78.548914 55.955579 
L 78.184327 56.602803 
L 77.527694 56.998062 
L 76.87106 57.39332 
L 76.214426 57.788578 
L 75.557793 58.183837 
L 74.901159 58.579095 
L 74.244525 58.974353 
L 73.587892 59.369612 
L 72.931258 59.76487 
" style="fill:none;stroke:#008000;stroke-linecap:square;stroke-width:0.482819;"/>
   </g>
   <g id="line2d_23">
    <path clip-path="url(#ped47f414ba)" d="M 35.87717 33.433087 
L 35.409195 34.028048 
L 34.941221 34.623008 
L 34.473246 35.217969 
L 34.005271 35.81293 
L 33.314851 36.20327 
L 32.624431 36.593611 
L 31.93401 36.983951 
L 31.24359 37.374292 
L 30.560585 37.711982 
L 29.87758 38.049673 
L 29.194574 38.387364 
L 28.511569 38.725055 
L 28.042545 39.021475 
L 27.573521 39.317894 
L 27.104497 39.614314 
L 26.635473 39.910733 
L 26.166449 40.207153 
L 25.697425 40.503573 
L 25.228401 40.799992 
L 24.759377 41.096412 
L 23.843713 41.193997 
L 22.928049 41.291582 
L 22.012386 41.389167 
L 21.096722 41.486752 
L 20.188613 41.081369 
L 19.280504 40.675986 
L 18.372396 40.270603 
L 17.464287 39.865219 
" style="fill:none;stroke:#008000;stroke-linecap:square;stroke-width:0.482819;"/>
   </g>
   <g id="line2d_24">
    <path clip-path="url(#ped47f414ba)" d="M 36.018192 4.497748 
L 35.539025 4.933314 
L 35.059858 5.368879 
L 34.580691 5.804444 
L 34.101524 6.240009 
L 33.622357 6.675574 
L 33.14319 7.11114 
L 32.664023 7.546705 
L 32.184856 7.98227 
L 31.67519 8.530945 
L 31.165525 9.079621 
L 30.655859 9.628296 
L 30.146193 10.176971 
L 29.866807 11.024959 
L 29.587421 11.872946 
L 29.308035 12.720934 
L 29.02865 13.568922 
L 28.664343 14.436002 
L 28.300036 15.303083 
L 27.873053 15.733344 
L 27.44607 16.163606 
L 27.019086 16.593868 
L 26.592103 17.024129 
L 25.943794 17.634519 
L 25.295484 18.244908 
L 24.647175 18.855297 
L 23.998865 19.465686 
L 23.56097 19.968654 
L 23.123074 20.471623 
L 22.685178 20.974591 
L 22.247283 21.47756 
L 21.952368 22.028163 
L 21.657452 22.578767 
L 21.362537 23.129371 
L 21.067622 23.679975 
L 20.896381 24.300007 
L 20.72514 24.920039 
L 20.553899 25.540071 
L 20.382658 26.160103 
L 20.211417 26.780135 
L 20.040176 27.400166 
L 19.868935 28.020198 
L 19.697694 28.64023 
L 19.487421 29.512325 
L 19.277147 30.38442 
L 19.066873 31.256515 
L 18.856599 32.128609 
L 18.765103 32.703513 
L 18.673606 33.278417 
L 18.58211 33.85332 
L 18.490613 34.428224 
L 18.253058 34.984035 
L 18.015504 35.539846 
" style="fill:none;stroke:#008000;stroke-linecap:square;stroke-width:0.482819;"/>
   </g>
   <g id="line2d_25">
    <path clip-path="url(#ped47f414ba)" d="M 36.522961 8.243011 
L 35.974123 8.896407 
L 35.425284 9.549803 
L 34.876446 10.203199 
L 34.327607 10.856596 
L 33.935599 11.614519 
L 33.543592 12.372443 
L 33.151584 13.130367 
L 32.759577 13.888291 
L 32.472077 14.711401 
L 32.184576 15.53451 
L 31.897076 16.357619 
L 31.609576 17.180729 
L 31.24373 17.768746 
L 30.877884 18.356764 
L 30.512039 18.944782 
L 30.146193 19.5328 
L 29.623516 20.029404 
L 29.100839 20.526008 
L 28.578163 21.022612 
L 28.055486 21.519216 
L 27.532809 22.120156 
L 27.010132 22.721095 
L 26.487456 23.322034 
L 25.964779 23.922973 
L 25.585782 24.497877 
L 25.206786 25.072781 
L 24.827789 25.647684 
L 24.448793 26.222588 
L 24.239778 26.967398 
L 24.030763 27.712207 
L 23.821748 28.457017 
L 23.612734 29.201827 
L 23.364406 29.907487 
L 23.116079 30.613147 
L 22.867751 31.318807 
L 22.619424 32.024467 
L 22.364661 32.527435 
L 22.109898 33.030404 
L 21.855135 33.533372 
L 21.600372 34.03634 
L 21.345609 34.539309 
L 21.090846 35.042277 
L 20.836083 35.545246 
L 20.58132 36.048214 
L 20.123978 36.610196 
L 19.666636 37.172179 
L 19.209294 37.734161 
L 18.751952 38.296143 
" style="fill:none;stroke:#4169e1;stroke-linecap:square;stroke-width:0.482819;"/>
   </g>
   <g id="line2d_26">
    <path clip-path="url(#ped47f414ba)" d="M 58.99974 25.413364 
L 58.717696 26.311495 
L 58.435652 27.209625 
L 58.153608 28.107755 
L 57.871564 29.005885 
L 57.58952 29.904016 
L 57.307476 30.802146 
L 57.025432 31.700276 
L 56.743388 32.598406 
L 56.428327 33.42383 
L 56.113266 34.249253 
L 55.745462 34.969763 
L 55.377658 35.690273 
L 55.009853 36.410783 
L 54.642049 37.131293 
L 54.356927 37.926631 
L 54.071805 38.721969 
L 53.786683 39.517307 
L 53.501561 40.312645 
L 53.280165 40.841746 
L 53.058769 41.370846 
L 52.837373 41.899946 
L 52.615977 42.429047 
L 52.394581 42.958147 
L 52.173185 43.487247 
L 51.951788 44.016348 
L 51.730392 44.545448 
L 51.82042 45.472217 
L 51.910447 46.398987 
L 52.000475 47.325756 
L 52.090502 48.252526 
L 52.18053 49.179295 
L 52.270557 50.106064 
L 52.360584 51.032834 
L 52.450612 51.959603 
" style="fill:none;stroke:#4169e1;stroke-linecap:square;stroke-width:0.482819;"/>
   </g>
   <g id="line2d_27">
    <path clip-path="url(#ped47f414ba)" d="M 62.215266 25.895504 
L 62.034091 26.489404 
L 61.852917 27.083304 
L 61.671743 27.677204 
L 61.490569 28.271104 
L 61.309395 28.865004 
L 61.128221 29.458904 
L 60.947047 30.052804 
L 60.765873 30.646704 
L 60.606419 31.203913 
L 60.446965 31.761122 
L 60.28751 32.318331 
L 60.128056 32.87554 
L 59.968602 33.43275 
L 59.809148 33.989959 
L 59.649694 34.547168 
L 59.490239 35.104377 
L 59.330785 35.661586 
L 59.171331 36.218795 
L 59.011877 36.776004 
L 58.852423 37.333213 
L 58.692969 37.890422 
L 58.533514 38.447632 
L 58.37406 39.004841 
L 58.214606 39.56205 
L 57.910597 40.533851 
L 57.606589 41.505652 
L 57.30258 42.477454 
L 56.998571 43.449255 
L 56.694562 44.421056 
L 56.390554 45.392857 
L 56.086545 46.364659 
L 55.782536 47.33646 
L 55.508607 48.034406 
L 55.234677 48.732351 
L 54.960747 49.430297 
L 54.686818 50.128243 
L 54.412888 50.826189 
L 54.138958 51.524134 
L 53.865029 52.22208 
L 53.591099 52.920026 
" style="fill:none;stroke:#4169e1;stroke-linecap:square;stroke-width:0.482819;"/>
   </g>
   <g id="line2d_28">
    <path clip-path="url(#ped47f414ba)" d="M 58.99974 25.413364 
L 57.998876 25.345479 
L 56.998011 25.277594 
L 56.441618 25.408929 
L 55.885225 25.540264 
L 55.328832 25.671598 
L 54.772438 25.802933 
L 54.247243 25.927133 
L 53.722048 26.051332 
L 52.709712 26.187488 
L 51.697375 26.323644 
L 50.685039 26.459801 
L 49.672702 26.595957 
L 48.989977 26.687757 
L 48.307251 26.779556 
L 47.596825 26.855927 
L 46.886399 26.932298 
L 45.975352 27.030269 
L 45.025412 27.132097 
L 44.075472 27.233925 
L 43.509146 27.265939 
L 42.94282 27.297953 
L 42.418324 27.32746 
L 41.893829 27.356967 
L 41.369333 27.386474 
L 40.844838 27.415981 
L 40.230664 27.393224 
L 39.616491 27.370467 
L 39.002318 27.34771 
L 38.388145 27.324953 
L 37.455273 27.154468 
L 36.522402 26.983983 
L 35.58953 26.813499 
L 34.656658 26.643014 
L 33.985545 26.415444 
L 33.314431 26.187874 
L 32.643318 25.960304 
L 31.972204 25.732734 
L 31.130269 25.505164 
L 30.288334 25.277594 
L 29.583224 25.141052 
L 28.878114 25.00451 
L 28.30927 24.981753 
L 27.740425 24.958996 
" style="fill:none;stroke:#008000;stroke-linecap:square;stroke-width:0.482819;"/>
   </g>
   <g id="line2d_29">
    <path clip-path="url(#ped47f414ba)" d="M 66.947337 27.304896 
L 66.880673 28.048645 
L 66.81401 28.792394 
L 66.747346 29.536143 
L 66.680682 30.279892 
L 66.614019 31.023641 
L 66.547355 31.76739 
L 66.480691 32.511139 
L 66.414028 33.254888 
L 66.342467 34.053505 
L 66.270907 34.852121 
L 66.199347 35.650738 
L 66.127786 36.449354 
L 66.056226 37.247971 
L 65.984666 38.046588 
L 65.913106 38.845204 
L 65.841545 39.643821 
L 65.814334 40.254475 
L 65.787123 40.865129 
L 65.759912 41.475784 
L 65.732701 42.086438 
L 65.70549 42.697092 
L 65.678279 43.307747 
L 65.651068 43.918401 
L 65.623857 44.529055 
L 65.596646 45.13971 
L 65.569434 45.750364 
L 65.542223 46.361018 
L 65.515012 46.971673 
L 65.487801 47.582327 
L 65.46059 48.192981 
L 65.433379 48.803636 
L 65.406168 49.41429 
L 65.378957 50.024944 
L 65.351746 50.635599 
L 65.324535 51.246253 
L 65.297324 51.856907 
L 65.270113 52.467562 
L 65.242901 53.078216 
L 65.21569 53.68887 
L 65.188479 54.299525 
L 65.161268 54.910179 
L 65.134057 55.520833 
L 65.106846 56.131488 
L 65.079635 56.742142 
L 65.052424 57.352796 
L 65.025213 57.963451 
L 64.998002 58.574105 
L 64.970791 59.184759 
" style="fill:none;stroke:#4169e1;stroke-linecap:square;stroke-width:0.482819;"/>
   </g>
   <g id="line2d_30">
    <path clip-path="url(#ped47f414ba)" d="M 54.772438 25.802933 
L 54.580002 26.321137 
L 54.387566 26.839341 
L 54.195129 27.357545 
L 54.002693 27.875749 
L 53.810257 28.393953 
L 53.617821 28.912157 
L 53.425384 29.430361 
L 53.232948 29.948565 
L 53.150405 30.481234 
L 53.067863 31.013902 
L 52.98532 31.54657 
L 52.902778 32.079238 
L 52.587577 32.522035 
L 52.272376 32.964833 
L 51.957175 33.40763 
L 51.641974 33.850427 
L 51.07159 34.368246 
L 50.501207 34.886064 
L 49.930823 35.403882 
L 49.360439 35.9217 
L 49.473061 36.522061 
L 49.585683 37.122422 
L 49.698305 37.722782 
L 49.810926 38.323143 
L 49.803372 38.88609 
L 49.795817 39.449036 
L 49.788262 40.011983 
L 49.780707 40.574929 
L 49.570573 41.370267 
L 49.360439 42.165605 
L 49.150305 42.960943 
L 48.940172 43.756281 
L 48.610001 44.686619 
L 48.65505 45.249565 
L 48.700098 45.812512 
L 48.745147 46.375458 
L 48.790196 46.938405 
L 48.762355 47.691315 
L 48.734514 48.444224 
L 48.706674 49.197134 
L 48.678833 49.950044 
" style="fill:none;stroke:#4169e1;stroke-linecap:square;stroke-width:0.482819;"/>
   </g>
   <g id="line2d_31">
    <path clip-path="url(#ped47f414ba)" d="M 49.672702 26.595957 
L 49.337355 27.301617 
L 49.002009 28.007277 
L 48.666662 28.712937 
L 48.331315 29.418597 
L 48.004502 30.242092 
L 47.677689 31.065587 
L 47.534009 31.588227 
L 47.390329 32.110866 
L 47.246648 32.633506 
L 47.102968 33.156146 
L 47.037494 34.070669 
L 46.972019 34.985192 
L 46.567141 35.53406 
L 46.162262 36.082928 
L 45.731082 36.618296 
L 45.299901 37.153664 
L 45.090607 37.741875 
L 44.881312 38.330086 
L 44.672298 39.166309 
L 44.463283 40.002533 
L 44.387456 41.039327 
L 44.311628 42.07612 
L 44.242796 43.020343 
L 44.173964 43.964566 
" style="fill:none;stroke:#4169e1;stroke-linecap:square;stroke-width:0.482819;"/>
   </g>
   <g id="line2d_32">
    <path clip-path="url(#ped47f414ba)" d="M 46.886399 26.932298 
L 46.487816 27.468245 
L 46.089233 28.004191 
L 45.69065 28.540138 
L 45.292067 29.076085 
L 44.914959 29.731024 
L 44.537851 30.385963 
L 44.160743 31.040902 
L 43.783635 31.69584 
L 43.406527 32.350779 
L 43.029419 33.005718 
L 42.652311 33.660657 
L 42.275204 34.315596 
L 42.332004 34.928782 
L 42.388805 35.541967 
L 42.445605 36.155153 
L 42.502406 36.768338 
L 42.559206 37.381524 
L 42.616007 37.994709 
L 42.672807 38.607895 
L 42.729608 39.22108 
" style="fill:none;stroke:#008000;stroke-linecap:square;stroke-width:0.482819;"/>
   </g>
   <g id="line2d_33">
    <path clip-path="url(#ped47f414ba)" d="M 42.94282 27.297953 
L 42.199656 27.865721 
L 41.849619 28.257218 
L 41.499583 28.648716 
L 40.989777 29.406833 
L 40.479971 30.16495 
L 39.970165 30.923067 
L 39.46036 31.681183 
L 39.758073 32.628492 
L 40.055786 33.5758 
L 40.353499 34.523109 
L 40.651212 35.470418 
L 40.911012 35.93925 
L 41.170811 36.408083 
L 41.430611 36.876916 
L 41.69041 37.345749 
L 41.950209 37.814582 
L 42.210009 38.283415 
L 42.469808 38.752248 
L 42.729608 39.22108 
L 43.125113 39.93484 
L 43.520618 40.6486 
L 43.916123 41.36236 
L 44.311628 42.07612 
" style="fill:none;stroke:#008000;stroke-linecap:square;stroke-width:0.482819;"/>
   </g>
   <g id="line2d_34">
    <path clip-path="url(#ped47f414ba)" d="M 38.238169 3.440126 
L 37.717871 3.55719 
L 37.197572 3.674253 
L 36.677274 3.791317 
L 36.156976 3.908381 
L 35.669135 4.125151 
L 35.181294 4.341921 
L 34.693453 4.558691 
L 34.205612 4.775461 
L 33.717771 4.992231 
L 33.22993 5.209001 
L 32.742089 5.425771 
L 32.254248 5.642541 
L 31.51724 6.015525 
L 30.780232 6.388508 
L 30.043225 6.761492 
L 29.306217 7.134475 
L 28.837822 7.685079 
L 28.369428 8.235683 
L 27.901033 8.786287 
L 27.432639 9.33689 
L 26.908003 10.082664 
L 26.383368 10.828439 
L 25.858733 11.574213 
L 25.334097 12.319987 
L 24.939571 12.78178 
L 24.545046 13.243574 
L 24.15052 13.705368 
L 23.755994 14.167161 
L 23.361468 14.628955 
L 22.966942 15.090748 
L 22.572417 15.552542 
L 22.177891 16.014336 
L 21.57519 16.799067 
L 20.972489 17.583798 
L 20.369787 18.368528 
L 19.767086 19.153259 
L 18.986709 19.500014 
L 18.206331 19.84677 
L 17.547249 20.349738 
L 16.888167 20.852706 
L 16.229085 21.355675 
L 15.570003 21.858643 
L 15.166244 22.515703 
L 14.762484 23.172764 
L 14.358725 23.829824 
L 13.954966 24.486884 
L 14.148311 25.431107 
L 14.341657 26.37533 
L 14.734084 26.847248 
L 15.126511 27.319167 
L 15.518939 27.791086 
L 15.911366 28.263004 
L 16.110448 29.019482 
L 16.309529 29.775959 
L 16.508611 30.532437 
L 16.707692 31.288914 
L 16.906774 32.045392 
L 17.105856 32.801869 
L 17.304937 33.558347 
L 17.504019 34.314825 
L 17.467924 34.974778 
L 17.431829 35.634731 
" style="fill:none;stroke:#4169e1;stroke-linecap:square;stroke-width:0.482819;"/>
   </g>
   <g id="line2d_35">
    <path clip-path="url(#ped47f414ba)" d="M 38.793303 3.630668 
L 39.139982 4.211936 
L 39.486662 4.793204 
L 39.729533 5.68632 
L 39.972404 6.579436 
L 40.215275 7.472552 
L 40.458146 8.365668 
L 40.527538 9.12012 
L 40.59693 9.874573 
L 40.666322 10.629025 
L 40.735713 11.383478 
L 40.685838 12.161748 
L 40.635963 12.940019 
L 40.586087 13.718289 
L 40.536212 14.496559 
L 40.486337 15.274829 
L 40.436461 16.0531 
L 40.386586 16.83137 
L 40.336711 17.60964 
L 40.42471 18.3288 
L 40.512708 19.04796 
L 40.600707 19.76712 
L 40.688706 20.48628 
L 41.034266 20.99407 
L 41.379826 21.501859 
L 41.725386 22.009649 
L 42.070945 22.517439 
L 42.578233 22.998808 
L 43.08552 23.480176 
L 43.592808 23.961545 
L 44.100095 24.442913 
L 44.568909 25.089752 
L 45.037724 25.736591 
L 45.506538 26.38343 
L 45.975352 27.030269 
" style="fill:none;stroke:#008000;stroke-linecap:square;stroke-width:0.482819;"/>
   </g>
   <g id="line2d_36">
    <path clip-path="url(#ped47f414ba)" d="M 66.414028 33.254888 
L 65.639386 33.712535 
L 64.864744 34.170183 
L 64.090103 34.62783 
L 63.315461 35.085477 
L 63.00026 35.723252 
L 62.685059 36.361026 
L 62.369858 36.998801 
L 62.054657 37.636576 
L 61.968337 38.150633 
L 61.882017 38.664691 
L 61.795697 39.178749 
L 61.709377 39.692806 
L 61.623057 40.206864 
L 61.536737 40.720921 
L 61.450417 41.234979 
L 61.364097 41.749037 
L 61.251545 42.315647 
L 61.138994 42.882258 
L 61.026442 43.448869 
L 60.91389 44.01548 
L 60.801338 44.582091 
L 60.688786 45.148702 
L 60.576235 45.715312 
L 60.463683 46.281923 
" style="fill:none;stroke:#4169e1;stroke-linecap:square;stroke-width:0.482819;"/>
   </g>
   <g id="line2d_37">
    <path clip-path="url(#ped47f414ba)" d="M 60.463683 46.281923 
L 59.760252 46.641407 
L 59.056821 47.00089 
L 58.721334 47.797193 
L 58.385847 48.593495 
L 58.05036 49.389797 
L 57.714873 50.1861 
L 57.362038 50.58454 
L 57.009204 50.98298 
L 56.667841 51.368692 
L 56.087804 51.675719 
L 55.507767 51.982746 
L 54.92773 52.289773 
L 54.347693 52.596799 
" style="fill:none;stroke:#008000;stroke-linecap:square;stroke-width:0.482819;"/>
   </g>
   <g id="line2d_38">
    <path clip-path="url(#ped47f414ba)" d="M 57.009204 50.98298 
L 57.698714 51.732226 
L 58.388225 52.481471 
L 59.077736 53.230717 
L 59.767247 53.979962 
L 60.456758 54.729208 
L 61.146269 55.478453 
L 61.835779 56.227699 
L 62.52529 56.976944 
" style="fill:none;stroke:#008000;stroke-linecap:square;stroke-width:0.482819;"/>
   </g>
   <g id="line2d_39">
    <path clip-path="url(#ped47f414ba)" d="M 72.358776 28.386432 
L 72.267629 28.94475 
L 72.176483 29.503068 
L 72.085336 30.061386 
L 71.994189 30.619704 
L 71.903043 31.178022 
L 71.811896 31.73634 
L 71.720749 32.294658 
L 71.629603 32.852976 
L 71.370643 33.453337 
L 71.111683 34.053698 
L 70.852723 34.654058 
L 70.593763 35.254419 
L 70.334803 35.854779 
L 70.075843 36.45514 
L 69.816883 37.055501 
L 69.557923 37.655861 
L 69.486642 38.560067 
L 69.415362 39.464272 
L 69.344081 40.368477 
L 69.272801 41.272682 
L 69.20152 42.176887 
L 69.13024 43.081093 
L 69.058959 43.985298 
L 68.987679 44.889503 
L 68.762575 45.707598 
L 68.537472 46.525693 
L 68.312368 47.343788 
L 68.087265 48.161883 
L 67.955896 49.054903 
L 67.824527 49.947922 
L 67.693159 50.840942 
L 67.56179 51.733962 
L 67.430421 52.626981 
L 67.299052 53.520001 
L 67.167684 54.41302 
L 67.036315 55.30604 
L 67.21651 56.311591 
L 67.396705 57.317142 
L 67.576899 58.322693 
L 67.757094 59.328244 
" style="fill:none;stroke:#4169e1;stroke-linecap:square;stroke-width:0.482819;"/>
   </g>
   <g id="line2d_40">
    <path clip-path="url(#ped47f414ba)" d="M 76.192672 29.14397 
L 76.207641 29.69766 
L 76.222611 30.251349 
L 76.23758 30.805039 
L 76.25255 31.358728 
L 76.26752 31.912418 
L 76.282489 32.466107 
L 76.297459 33.019797 
L 76.312428 33.573486 
L 76.18113 34.252628 
L 76.049831 34.931771 
L 75.918532 35.610913 
L 75.787233 36.290055 
L 75.655935 36.969198 
L 75.524636 37.64834 
L 75.393337 38.327482 
L 75.262038 39.006625 
L 75.173865 39.952149 
L 75.085691 40.897674 
L 74.997517 41.843198 
L 74.909343 42.788723 
L 74.82117 43.734248 
L 74.732996 44.679772 
L 74.644822 45.625297 
L 74.556649 46.570822 
L 74.468475 47.516346 
L 74.380301 48.461871 
L 74.292127 49.407395 
L 74.203954 50.35292 
L 74.11578 51.298445 
L 74.027606 52.243969 
L 73.939432 53.189494 
L 73.851259 54.135018 
L 73.603491 55.013092 
L 73.355723 55.891165 
L 73.107955 56.769238 
L 72.860188 57.647311 
" style="fill:none;stroke:#4169e1;stroke-linecap:square;stroke-width:0.482819;"/>
   </g>
   <g id="line2d_41">
    <path clip-path="url(#ped47f414ba)" d="M 80.503915 29.889937 
L 80.454215 30.684263 
L 80.404514 31.478588 
L 80.354814 32.272914 
L 80.305113 33.067239 
L 80.255413 33.861565 
L 80.205713 34.65589 
L 80.156012 35.450216 
L 80.106312 36.244541 
L 80.056611 37.038867 
L 80.006911 37.833192 
L 79.95721 38.627518 
L 79.90751 39.421844 
L 79.857809 40.216169 
L 79.808109 41.010495 
L 79.758408 41.80482 
L 79.708708 42.599146 
L 79.659008 43.393471 
L 79.609307 44.187797 
L 79.559607 44.982122 
L 79.509906 45.776448 
L 79.460206 46.570773 
L 79.410505 47.365099 
L 79.360805 48.159424 
L 79.311104 48.95375 
L 79.261404 49.748075 
L 79.211703 50.542401 
L 79.162003 51.336727 
L 79.112302 52.131052 
L 79.062602 52.925378 
L 79.012902 53.719703 
L 78.963201 54.514029 
L 78.913501 55.308354 
" style="fill:none;stroke:#008000;stroke-linecap:square;stroke-width:0.482819;"/>
   </g>
   <g id="line2d_42">
    <path clip-path="url(#ped47f414ba)" d="M 83.665158 30.592704 
L 83.629483 31.27797 
L 83.593808 31.963235 
L 83.558133 32.648501 
L 83.522457 33.333766 
L 83.486782 34.019032 
L 83.451107 34.704297 
L 83.415432 35.389563 
L 83.379757 36.074828 
L 83.344081 36.760094 
L 83.308406 37.445359 
L 83.272731 38.130625 
L 83.237056 38.81589 
L 83.201381 39.501156 
L 83.165705 40.186421 
L 83.13003 40.871686 
L 83.094355 41.556952 
L 83.05868 42.242217 
L 83.023005 42.927483 
L 82.987329 43.612748 
L 82.951654 44.298014 
L 82.915979 44.983279 
L 82.880304 45.668545 
L 82.844629 46.35381 
L 82.808953 47.039076 
L 82.773278 47.724341 
L 82.737603 48.409607 
L 82.701928 49.094872 
L 82.666253 49.780138 
L 82.630577 50.465403 
L 82.594902 51.150669 
L 82.559227 51.835934 
L 82.523552 52.5212 
" style="fill:none;stroke:#4169e1;stroke-linecap:square;stroke-width:0.482819;"/>
   </g>
   <g id="line2d_43">
    <path clip-path="url(#ped47f414ba)" d="M 69.69111 11.300164 
L 69.602202 12.300508 
L 69.513294 13.300852 
L 69.424385 14.301196 
L 69.335477 15.30154 
L 69.246569 16.301884 
L 69.157661 17.302228 
L 69.068753 18.302572 
L 68.979844 19.302916 
L 68.725781 20.303163 
L 68.471717 21.303411 
L 68.217654 22.303658 
L 67.963591 23.303906 
L 67.709527 24.304153 
L 67.455464 25.304401 
L 67.2014 26.304648 
L 66.947337 27.304896 
" style="fill:none;stroke:#008000;stroke-linecap:square;stroke-width:0.482819;"/>
   </g>
   <g id="line2d_44">
    <path clip-path="url(#ped47f414ba)" d="M 69.69111 11.300164 
L 69.396545 11.953078 
L 69.101979 12.605992 
L 68.807414 13.258906 
L 68.512849 13.91182 
L 68.218284 14.564734 
L 67.923718 15.217648 
L 67.629153 15.870562 
L 67.334588 16.523475 
L 67.040022 17.176389 
L 66.745457 17.829303 
L 66.450892 18.482217 
L 66.156327 19.135131 
L 65.861761 19.788045 
L 65.567196 20.440959 
L 65.272631 21.093873 
L 64.978065 21.746787 
" style="fill:none;stroke:#008000;stroke-linecap:square;stroke-width:0.482819;"/>
   </g>
   <g id="line2d_45">
    <path clip-path="url(#ped47f414ba)" d="M 27.740425 24.958996 
L 28.127116 25.482407 
L 28.513807 26.005818 
L 28.866502 26.403873 
L 29.219197 26.801927 
L 29.571892 27.199982 
L 29.924587 27.598037 
L 30.436491 28.16108 
L 30.948395 28.724123 
L 31.4603 29.287166 
L 31.972204 29.850209 
L 32.484108 30.413252 
L 32.996012 30.976295 
L 33.507917 31.539338 
L 34.019821 32.102381 
L 34.484158 32.435057 
L 34.948495 32.767734 
L 35.412833 33.10041 
L 35.87717 33.433087 
L 36.472876 33.859684 
L 37.068582 34.286282 
L 37.415506 34.797736 
L 37.76243 35.30919 
L 38.109354 35.820644 
L 38.456278 36.332098 
L 38.803202 36.843552 
L 39.150125 37.355006 
L 39.497049 37.86646 
L 39.843973 38.377914 
L 40.190897 38.889368 
L 40.537821 39.400822 
L 40.884745 39.912276 
L 41.231669 40.42373 
L 41.578593 40.935184 
L 41.925517 41.446638 
L 42.27244 41.958092 
L 42.619364 42.469546 
L 43.008014 42.843301 
L 43.396664 43.217056 
L 43.785314 43.590811 
L 44.173964 43.964566 
L 44.64026 44.684497 
L 45.106556 45.404429 
L 45.572852 46.12436 
L 46.039148 46.844291 
L 46.699069 47.620729 
L 47.35899 48.397168 
L 48.018912 49.173606 
L 48.678833 49.950044 
L 49.188779 50.538447 
L 49.698724 51.126851 
L 50.20867 51.715255 
L 50.718616 52.303658 
" style="fill:none;stroke:#008000;stroke-linecap:square;stroke-width:0.482819;"/>
   </g>
   <g id="line2d_46">
    <path clip-path="url(#ped47f414ba)" d="M 72.983302 12.582271 
L 72.884181 13.261895 
L 72.78506 13.94152 
L 72.685939 14.621144 
L 72.586818 15.300769 
L 72.487696 15.980393 
L 72.388575 16.660017 
L 72.289454 17.339642 
L 72.190333 18.019266 
L 71.897796 18.821354 
L 71.60526 19.623442 
L 71.312723 20.42553 
L 71.020186 21.227618 
L 70.614328 21.869443 
L 70.20847 22.511268 
L 69.802613 23.153092 
L 69.396755 23.794917 
L 69.151715 24.258639 
L 68.906675 24.722361 
L 68.661635 25.186084 
L 68.416596 25.649806 
L 68.171556 26.113528 
L 67.926516 26.57725 
L 67.681477 27.040972 
L 67.436437 27.504694 
" style="fill:none;stroke:#008000;stroke-linecap:square;stroke-width:0.482819;"/>
   </g>
   <g id="line2d_47">
    <path clip-path="url(#ped47f414ba)" d="M 74.191502 12.77127 
L 74.107281 13.488694 
L 74.023059 14.206118 
L 73.938838 14.923542 
L 73.854616 15.640966 
L 73.761126 16.437558 
L 73.667636 17.23415 
L 73.574146 18.030741 
L 73.480656 18.827333 
L 73.387166 19.623924 
L 73.293676 20.420516 
L 73.200186 21.217108 
L 73.106696 22.013699 
L 73.013206 22.810291 
L 72.919716 23.606882 
L 72.826226 24.403474 
L 72.732736 25.200066 
L 72.639246 25.996657 
L 72.545756 26.793249 
L 72.452266 27.58984 
L 72.358776 28.386432 
" style="fill:none;stroke:#008000;stroke-linecap:square;stroke-width:0.482819;"/>
   </g>
   <g id="line2d_48">
    <path clip-path="url(#ped47f414ba)" d="M 73.854616 15.640966 
L 74.024109 16.211917 
L 74.193601 16.782867 
L 74.363093 17.353817 
L 74.532585 17.924767 
L 74.702077 18.495717 
L 74.87157 19.066667 
L 75.041062 19.637617 
L 75.210554 20.208567 
L 75.295545 20.722914 
L 75.380536 21.237261 
L 75.465527 21.751608 
L 75.550518 22.265955 
L 75.635509 22.780302 
L 75.7205 23.294649 
L 75.805491 23.808995 
L 75.890482 24.323342 
L 75.928255 24.925921 
L 75.966029 25.528499 
L 76.003803 26.131078 
L 76.041577 26.733656 
L 76.07935 27.336235 
L 76.117124 27.938813 
L 76.154898 28.541392 
L 76.192672 29.14397 
" style="fill:none;stroke:#008000;stroke-linecap:square;stroke-width:0.482819;"/>
   </g>
   <g id="line2d_49">
    <path clip-path="url(#ped47f414ba)" d="M 26.114755 3.272727 
L 25.701972 3.715525 
L 25.289188 4.158322 
L 24.876405 4.601119 
L 24.463622 5.043917 
L 24.050839 5.486714 
L 23.638056 5.929511 
L 23.225273 6.372308 
L 22.81249 6.815106 
L 21.971954 7.295317 
L 21.131418 7.775529 
L 20.290882 8.25574 
L 19.450346 8.735951 
L 18.699768 9.291376 
L 17.94919 9.846802 
L 17.198611 10.402227 
L 16.448033 10.957652 
L 16.102823 11.43796 
L 15.757613 11.918268 
L 15.412403 12.398575 
L 15.067193 12.878883 
L 14.721983 13.359191 
L 14.376772 13.839499 
L 14.031562 14.319807 
L 13.686352 14.800114 
L 13.190957 15.56556 
L 12.695561 16.331005 
L 12.200165 17.09645 
L 11.704769 17.861896 
L 11.179435 18.312215 
L 10.6541 18.762533 
L 10.128765 19.212852 
L 9.60343 19.663171 
L 9.138113 20.533722 
L 8.672797 21.404274 
L 8.20748 22.274826 
L 7.742163 23.145378 
L 7.50209 23.760781 
L 7.262017 24.376185 
L 7.021944 24.991588 
L 6.781871 25.606992 
L 6.676804 26.447458 
L 6.571737 27.287924 
L 6.46667 28.128391 
L 6.361603 28.968857 
L 5.956304 29.539132 
L 5.551006 30.109407 
L 5.145708 30.679682 
L 4.74041 31.249957 
" style="fill:none;stroke:#4169e1;stroke-linecap:square;stroke-width:0.482819;"/>
   </g>
  </g>
 </g>
 <defs>
  <clipPath id="ped47f414ba">
   <rect height="72" width="104.289009" x="0" y="0"/>
  </clipPath>
 </defs>
</svg>
