<?xml version="1.0" encoding="utf-8" standalone="no"?>
<!DOCTYPE svg PUBLIC "-//W3C//DTD SVG 1.1//EN"
  "http://www.w3.org/Graphics/SVG/1.1/DTD/svg11.dtd">
<svg height="58.628761pt" version="1.1" viewBox="0 0 72 58.628761" width="72pt" xmlns="http://www.w3.org/2000/svg" xmlns:xlink="http://www.w3.org/1999/xlink">
 <metadata>
  <rdf:RDF xmlns:cc="http://creativecommons.org/ns#" xmlns:dc="http://purl.org/dc/elements/1.1/" xmlns:rdf="http://www.w3.org/1999/02/22-rdf-syntax-ns#">
   <cc:Work>
    <dc:type rdf:resource="http://purl.org/dc/dcmitype/StillImage"/>
    <dc:date>2022-05-22T19:37:14.471419</dc:date>
    <dc:format>image/svg+xml</dc:format>
    <dc:creator>
     <cc:Agent>
      <dc:title>Matplotlib v3.4.3, https://matplotlib.org/</dc:title>
     </cc:Agent>
    </dc:creator>
   </cc:Work>
  </rdf:RDF>
 </metadata>
 <defs>
  <style type="text/css">*{stroke-linecap:butt;stroke-linejoin:round;}</style>
 </defs>
 <g id="figure_1">
  <g id="patch_1">
   <path d="M 0 58.628761 
L 72 58.628761 
L 72 0 
L 0 0 
z
" style="fill:#ffffff;"/>
  </g>
  <g id="axes_1">
   <g id="line2d_1">
    <path clip-path="url(#pdf00557316)" d="M 8.211245 50.43073 
L 9.968624 50.063314 
L 11.726003 49.695898 
L 14.025711 49.216306 
L 16.325419 48.736713 
L 18.659193 48.250128 
L 21.772981 47.600959 
L 24.041755 47.127776 
L 26.310528 46.654594 
L 28.898434 46.114688 
L 31.486339 45.574782 
L 33.593001 45.135399 
L 35.699664 44.696015 
L 37.819639 44.254009 
L 39.939615 43.812003 
L 43.14738 43.143021 
L 45.095064 42.74035 
" style="fill:none;stroke:#808080;stroke-linecap:square;stroke-width:0.4;"/>
   </g>
   <g id="line2d_2">
    <path clip-path="url(#pdf00557316)" d="M 3.611046 46.677321 
L 4.345245 44.173591 
L 5.079445 41.669862 
L 5.813644 39.166132 
L 6.547843 36.662403 
" style="fill:none;stroke:#808080;stroke-linecap:square;stroke-width:0.4;"/>
   </g>
   <g id="line2d_3">
    <path clip-path="url(#pdf00557316)" d="M 54.723059 55.150899 
L 56.142119 52.209243 
L 56.913909 50.610504 
L 57.6857 49.011765 
L 58.691259 46.928772 
L 59.696818 44.845778 
L 60.679275 42.811152 
L 61.661731 40.776526 
L 62.62735 38.776572 
L 63.592969 36.776619 
L 64.490454 34.917688 
L 65.387939 33.058757 
L 66.182832 31.411942 
L 66.977725 29.765128 
L 67.852499 27.954564 
" style="fill:none;stroke:#808080;stroke-linecap:square;stroke-width:0.4;"/>
   </g>
   <g id="line2d_4">
    <path clip-path="url(#pdf00557316)" d="M 51.034442 51.681283 
L 51.086913 48.521683 
L 51.122938 46.353319 
L 51.158962 44.184955 
L 51.196945 41.91869 
L 51.234927 39.652426 
L 51.274085 37.285931 
L 51.313242 34.919436 
L 51.358273 32.227774 
L 51.403304 29.536112 
L 51.452642 26.562696 
L 51.50198 23.589281 
L 51.543487 21.097789 
L 51.584994 18.606297 
L 51.637464 15.458934 
L 51.684453 12.614304 
L 51.731442 9.769673 
L 51.776864 7.052953 
L 51.822287 4.336233 
L 51.847347 2.821117 
" style="fill:none;stroke:#808080;stroke-linecap:square;stroke-width:0.4;"/>
   </g>
   <g id="line2d_5">
    <path clip-path="url(#pdf00557316)" d="M 44.407462 41.646552 
L 40.9068 41.021275 
L 39.031166 37.394903 
L 37.780482 36.894915 
L 34.27982 37.207553 
L 32.904616 37.270197 
L 29.210909 36.14668 
L 27.778143 35.519655 
L 26.027813 33.893819 
L 22.152024 32.268566 
L 20.27639 31.268006 
L 19.526136 31.393295 
L 19.276312 32.143277 
L 20.151086 32.893843 
L 21.901417 33.643825 
L 23.026798 34.519096 
L 23.401925 35.76965 
L 23.527228 37.020203 
L 24.527305 38.145468 
L 28.277791 40.521287 
L 30.40364 42.396826 
L 30.903679 42.897106 
L 31.153502 44.022371 
L 30.528552 44.647648 
L 29.778298 44.397654 
L 28.652917 43.1471 
L 25.026952 41.521264 
L 22.026721 41.396558 
L 18.901185 40.521287 
L 17.400678 39.646016 
L 17.025551 37.895474 
L 12.649332 35.519655 
L 12.149685 34.393808 
L 12.40225 30.39157 
L 12.326187 28.780593 
L 11.774558 24.515833 
L 10.523875 22.390008 
L 9.649101 21.89002 
L 9.398494 23.015285 
L 9.773621 24.515833 
L 9.14867 28.392199 
L 8.148397 32.831053 
L 7.39834 34.894379 
L 5.992005 41.365236 
L 5.773312 42.271829 
L 5.773312 42.271829 
" style="fill:none;stroke:#008000;stroke-linecap:square;stroke-width:0.4;"/>
   </g>
   <g id="line2d_6">
    <path clip-path="url(#pdf00557316)" d="M 5.773312 42.271829 
L 5.460739 43.006442 
L 5.148166 43.741055 
L 4.835593 44.475667 
L 4.52302 45.21028 
L 4.210447 45.944893 
L 3.897873 46.679506 
L 3.5853 47.414119 
L 3.272727 48.148732 
" style="fill:none;stroke:#008000;stroke-linecap:square;stroke-width:0.4;"/>
   </g>
   <g id="line2d_7">
    <path clip-path="url(#pdf00557316)" d="M 50.909139 2.664944 
L 50.909139 3.258898 
L 50.909139 3.852853 
L 50.909139 4.446808 
L 50.909139 5.040762 
L 50.909139 5.728392 
L 50.909139 6.416022 
L 50.909139 7.103651 
L 50.909139 7.791281 
L 50.752901 8.541555 
L 50.596664 9.291829 
L 50.440426 10.042103 
L 50.284188 10.792377 
L 50.534403 11.605295 
L 50.784619 12.418213 
L 51.784696 12.167927 
L 52.784773 11.917642 
L 53.09764 11.480006 
L 53.410507 11.042371 
L 54.28528 11.292365 
L 54.191499 11.823821 
L 54.097717 12.355277 
L 54.003935 12.886733 
L 53.910154 13.418189 
L 53.597678 14.105965 
L 53.285203 14.79374 
L 52.972728 15.481515 
L 52.660253 16.169291 
L 51.972455 16.481929 
L 51.284657 16.794568 
L 50.596859 17.107206 
L 49.909062 17.419844 
L 49.158808 17.669839 
L 48.408554 17.919833 
L 47.6583 18.169827 
L 46.908047 18.419821 
L 46.53292 19.170386 
L 47.03335 19.920369 
L 47.720952 20.014189 
L 48.408554 20.10801 
L 49.096156 20.201831 
L 49.783758 20.295651 
L 50.362111 20.295651 
L 50.940465 20.295651 
L 51.518818 20.295651 
L 52.097171 20.295651 
L 52.675524 20.295651 
L 53.253877 20.295651 
L 53.832231 20.295651 
L 54.410584 20.295651 
L 55.098186 20.139332 
L 55.785788 19.983013 
L 56.47339 19.826694 
L 57.160992 19.670375 
L 57.949228 19.107451 
L 58.737465 18.544527 
L 59.262172 18.169536 
L 59.78688 17.794544 
L 60.162007 17.106915 
L 60.537134 16.419285 
L 60.91226 15.731655 
L 61.287387 15.044026 
L 61.725166 14.543746 
L 62.162944 14.043466 
L 63.163022 14.043466 
L 63.538148 14.449925 
L 63.913275 14.856384 
L 64.288402 15.262843 
L 64.663529 15.669302 
L 65.257545 16.419431 
L 65.851561 17.169559 
L 66.445577 17.919687 
L 67.039593 18.669815 
L 67.195929 19.248182 
L 67.352264 19.826548 
L 67.5086 20.404915 
L 67.664935 20.983281 
L 67.821271 21.561648 
L 67.977606 22.140014 
L 68.133942 22.71838 
L 68.290277 23.296747 
L 68.290277 24.172018 
L 68.290277 25.047289 
L 68.290277 25.92256 
L 68.290277 26.797831 
" style="fill:none;stroke:#4169e1;stroke-linecap:square;stroke-width:0.4;"/>
   </g>
   <g id="line2d_8">
    <path clip-path="url(#pdf00557316)" d="M 50.909139 2.664944 
L 50.799792 3.274487 
L 50.690445 3.884029 
L 50.581099 4.493572 
L 50.471752 5.103115 
L 50.362405 5.712658 
L 50.253058 6.322201 
L 50.143712 6.931744 
L 50.034365 7.541287 
L 49.987474 8.182152 
L 49.940583 8.823017 
L 49.893692 9.463882 
L 49.846801 10.104747 
L 49.799911 10.745612 
L 49.75302 11.386477 
L 49.706129 12.027342 
L 49.659238 12.668207 
L 49.565456 13.699797 
L 49.471675 14.731387 
L 49.377893 15.762977 
L 49.284111 16.794568 
L 49.23722 17.43536 
L 49.190329 18.076152 
L 49.143439 18.716944 
L 49.096548 19.357736 
L 49.049657 19.998528 
L 49.002766 20.639321 
L 48.955875 21.280113 
L 48.908984 21.920905 
L 48.815203 22.780588 
L 48.721421 23.64027 
L 48.627639 24.499953 
L 48.533857 25.359636 
L 48.440076 26.219319 
L 48.346294 27.079001 
L 48.252512 27.938684 
L 48.158731 28.798367 
L 48.002395 29.767459 
L 47.84606 30.73655 
L 47.689724 31.705642 
L 47.533389 32.674733 
L 47.377053 33.643825 
L 47.220718 34.612917 
L 47.064382 35.582008 
L 46.908047 36.5511 
L 46.681424 37.324756 
L 46.454801 38.098412 
L 46.228178 38.872068 
L 46.001555 39.645725 
L 45.774933 40.419381 
L 45.54831 41.193037 
L 45.321687 41.966693 
L 45.095064 42.74035 
" style="fill:none;stroke:#000000;stroke-linecap:square;stroke-width:0.4;"/>
   </g>
   <g id="line2d_9">
    <path clip-path="url(#pdf00557316)" d="M 54.28528 11.292365 
L 55.035534 11.464272 
L 55.785788 11.63618 
L 56.426597 11.651914 
L 57.067406 11.667648 
L 57.708215 11.683381 
L 58.349024 11.699115 
L 59.380819 11.824112 
L 60.412613 11.949109 
L 61.100215 12.324101 
L 61.787818 12.699092 
L 61.975381 13.371279 
L 62.162944 14.043466 
" style="fill:none;stroke:#000000;stroke-linecap:square;stroke-width:0.4;"/>
   </g>
   <g id="line2d_10">
    <path clip-path="url(#pdf00557316)" d="M 68.290277 26.797831 
L 68.383863 27.626191 
L 68.477449 28.454552 
L 68.571427 29.329823 
L 68.665404 30.205094 
L 68.680871 30.924046 
L 68.696338 31.642998 
L 68.711806 32.361949 
L 68.727273 33.080901 
L 68.446123 33.612357 
L 68.164974 34.143813 
L 67.539632 34.175281 
L 66.91429 34.206749 
L 66.3516 33.987931 
L 65.78891 33.769113 
L 65.132633 33.331478 
L 64.476357 32.893843 
L 64.10123 32.424739 
L 63.726103 31.955636 
L 63.788364 31.361827 
L 63.850624 30.768018 
L 63.881949 30.048921 
L 63.913275 29.329823 
L 63.741375 28.829689 
L 63.569474 28.329555 
L 63.397574 27.829421 
L 63.225673 27.329287 
" style="fill:none;stroke:#008000;stroke-linecap:square;stroke-width:0.4;"/>
   </g>
   <g id="line2d_11">
    <path clip-path="url(#pdf00557316)" d="M 68.290277 26.797831 
L 67.743054 27.555826 
L 67.195831 28.313821 
L 66.648608 29.071816 
L 66.101385 29.829811 
L 65.538694 30.548909 
L 64.976004 31.268006 
L 64.351054 31.611821 
L 63.726103 31.955636 
L 62.991513 32.643411 
L 62.256922 33.331187 
L 61.522331 34.018962 
L 60.78774 34.706737 
L 60.349962 35.488188 
L 59.912183 36.269638 
L 59.474405 37.051088 
L 59.036626 37.832539 
L 58.692825 38.520314 
L 58.349024 39.208089 
L 58.005223 39.895865 
L 57.661422 40.58364 
L 57.270632 41.505821 
L 56.879843 42.428002 
L 56.489053 43.350184 
L 56.098263 44.272365 
L 55.795186 45.064887 
L 55.58961 45.601442 
L 55.384034 46.137998 
L 55.178458 46.674553 
L 54.972882 47.211108 
L 54.754189 47.930059 
L 54.535496 48.649011 
L 54.316802 49.367963 
L 54.098109 50.086915 
L 53.973001 50.649547 
L 53.847894 51.21218 
L 53.722786 51.774812 
L 53.597678 52.337445 
L 53.441441 53.118895 
L 53.285203 53.900346 
" style="fill:none;stroke:#008000;stroke-linecap:square;stroke-width:0.4;"/>
   </g>
   <g id="line2d_12">
    <path clip-path="url(#pdf00557316)" d="M 68.727273 33.080901 
L 68.711806 34.018816 
L 68.696338 34.956731 
L 68.680871 35.894647 
L 68.665404 36.832562 
L 68.605102 37.64548 
L 68.5448 38.458398 
L 68.479799 39.333378 
L 68.414798 40.208357 
L 68.289886 40.896133 
L 68.164974 41.583908 
L 68.040062 42.271683 
L 67.91515 42.959459 
L 67.930618 43.490915 
L 67.946085 44.022371 
L 67.961552 44.553827 
L 67.977019 45.085283 
L 68.105063 45.696866 
L 68.233108 46.308448 
L 68.386604 47.040949 
L 68.540101 47.773449 
L 68.477645 48.461224 
L 68.415189 49.149 
L 68.352733 49.836775 
L 68.290277 50.52455 
L 67.883825 50.899542 
L 67.477372 51.274533 
L 66.85203 51.368353 
L 66.226688 51.462174 
L 65.679661 51.430998 
L 65.132633 51.399821 
L 64.585606 51.368645 
L 64.038579 51.337468 
L 63.006784 51.274824 
L 61.974989 51.21218 
L 61.037564 51.487815 
L 60.443548 51.662636 
L 59.849532 51.837457 
L 58.880389 52.181272 
L 57.911246 52.525086 
L 57.254969 53.087719 
L 56.598693 53.650352 
L 56.129785 54.025488 
L 55.660876 54.400625 
L 55.191968 54.775762 
L 54.723059 55.150899 
" style="fill:none;stroke:#4169e1;stroke-linecap:square;stroke-width:0.4;"/>
   </g>
   <g id="line2d_13">
    <path clip-path="url(#pdf00557316)" d="M 68.164974 34.143813 
L 67.696065 34.565861 
L 67.227157 34.987908 
L 66.758248 35.409955 
L 66.28934 35.832002 
L 65.882887 36.457279 
L 65.476434 37.082556 
L 65.132633 37.489015 
L 64.788832 37.895474 
L 64.257468 38.661336 
L 63.726103 39.427198 
L 63.194739 40.19306 
L 62.663375 40.958923 
L 62.319378 41.365236 
L 61.975381 41.771549 
L 61.631384 42.177863 
L 61.287387 42.584176 
L 60.91226 43.490915 
L 60.537134 44.397654 
L 60.271451 45.226014 
L 60.005769 46.054375 
L 59.740087 46.882735 
L 59.474405 47.711096 
L 59.130604 48.383138 
L 58.786803 49.055179 
L 58.443002 49.72722 
L 58.099201 50.399262 
L 57.677183 50.993217 
L 57.255165 51.587171 
L 56.833148 52.181126 
L 56.41113 52.775081 
L 55.989112 53.369035 
L 55.567094 53.96299 
L 55.145077 54.556945 
L 54.723059 55.150899 
" style="fill:none;stroke:#4169e1;stroke-linecap:square;stroke-width:0.4;"/>
   </g>
   <g id="line2d_14">
    <path clip-path="url(#pdf00557316)" d="M 68.233108 46.308448 
L 67.761262 46.853307 
L 67.289417 47.398166 
L 66.727118 47.773449 
L 66.101776 47.898446 
L 65.476434 48.023443 
L 64.960733 48.195351 
L 64.445031 48.367258 
L 63.92933 48.539165 
L 63.413628 48.711073 
L 62.881872 49.055179 
L 62.350116 49.399285 
L 62.021978 49.921417 
L 61.69384 50.44355 
L 61.365702 50.965682 
L 61.037564 51.487815 
" style="fill:none;stroke:#4169e1;stroke-linecap:square;stroke-width:0.4;"/>
   </g>
   <g id="line2d_15">
    <path clip-path="url(#pdf00557316)" d="M 68.5448 38.458398 
L 68.106042 39.036619 
L 67.667285 39.61484 
L 67.228527 40.19306 
L 66.78977 40.771281 
L 66.43011 41.427734 
L 66.07045 42.084188 
L 65.710791 42.740641 
L 65.351131 43.397094 
L 64.976004 44.084869 
L 64.600877 44.772645 
L 64.22575 45.46042 
L 63.850624 46.148195 
L 63.475497 46.960968 
L 63.10037 47.77374 
L 62.725243 48.586513 
L 62.350116 49.399285 
" style="fill:none;stroke:#4169e1;stroke-linecap:square;stroke-width:0.4;"/>
   </g>
   <g id="line2d_16">
    <path clip-path="url(#pdf00557316)" d="M 62.162944 14.043466 
L 62.725635 14.778006 
L 63.288325 15.512546 
L 63.757038 16.450461 
L 64.22575 17.388377 
L 64.428977 17.904245 
L 64.632203 18.420112 
L 64.83543 18.93598 
L 65.038656 19.451848 
L 65.132438 20.139478 
L 65.226219 20.827108 
L 65.320001 21.514737 
L 65.413783 22.202367 
L 65.429446 22.780733 
L 65.445109 23.3591 
L 65.460771 23.937466 
L 65.476434 24.515833 
L 65.163959 25.359927 
L 64.851484 26.204022 
L 64.038579 26.766654 
L 63.225673 27.329287 
L 62.381834 27.860743 
L 61.537994 28.392199 
L 61.192627 28.786129 
L 60.662437 29.392176 
L 59.974835 29.923632 
L 59.287233 30.455088 
L 58.724543 30.64273 
L 58.161852 30.830371 
L 57.411599 31.268006 
L 56.598693 31.893283 
L 56.192241 32.237098 
L 55.785788 32.580913 
" style="fill:none;stroke:#008000;stroke-linecap:square;stroke-width:0.4;"/>
   </g>
   <g id="line2d_17">
    <path clip-path="url(#pdf00557316)" d="M 45.095064 42.74035 
L 44.915332 43.289579 
L 44.7356 43.838809 
L 44.532765 44.460006 
L 44.258273 45.027009 
L 43.98378 45.594013 
L 43.594557 46.39819 
L 43.364116 47.029002 
L 43.133675 47.659815 
L 42.903235 48.290628 
L 42.672794 48.921441 
L 42.407308 49.649279 
L 41.938203 50.211912 
L 41.469099 50.774544 
L 40.734508 50.883953 
L 39.999917 50.993362 
L 39.265327 51.102771 
L 38.530736 51.21218 
L 37.827471 50.883953 
L 37.124206 50.555727 
L 36.420941 50.2275 
L 35.717676 49.899273 
L 35.09253 49.352229 
L 34.467384 48.805185 
L 33.842237 48.25814 
L 33.217091 47.711096 
L 32.529489 47.085819 
L 31.841887 46.460542 
L 31.351638 46.303786 
L 30.654834 46.081108 
L 29.95803 45.858429 
L 29.261226 45.635751 
L 28.564422 45.413073 
L 27.867618 45.190394 
L 27.170814 44.967716 
L 26.47401 44.745038 
L 25.777206 44.522359 
L 25.178099 44.559072 
L 24.578993 44.595784 
L 23.597124 44.65566 
L 22.615255 44.715537 
L 21.633386 44.775413 
L 20.651516 44.835289 
L 19.8856 44.92809 
L 19.119683 45.020891 
L 18.353767 45.113692 
L 17.58785 45.206492 
L 17.056485 45.270885 
L 16.525121 45.335277 
L 15.868747 45.522846 
L 15.212373 45.710414 
L 14.555999 45.897983 
L 13.899625 46.085551 
L 13.243251 46.27312 
L 12.586876 46.460688 
L 11.930502 46.648257 
L 11.274128 46.835825 
L 10.570863 47.320371 
L 9.867598 47.804917 
L 9.164333 48.289463 
L 8.461068 48.774008 
" style="fill:none;stroke:#4169e1;stroke-linecap:square;stroke-width:0.4;"/>
   </g>
   <g id="line2d_18">
    <path clip-path="url(#pdf00557316)" d="M 44.7356 43.838809 
L 43.758626 43.899413 
L 42.781651 43.960018 
L 42.234624 44.085015 
L 41.687597 44.210012 
L 41.140569 44.335009 
L 40.593542 44.460006 
L 39.921603 44.678824 
L 39.249664 44.897642 
L 38.577725 45.11646 
L 37.905785 45.335277 
L 37.093076 45.397776 
L 36.280366 45.460274 
L 35.467657 45.522773 
L 34.654947 45.585272 
L 34.09813 45.706481 
L 33.541314 45.82769 
L 32.993895 45.946714 
L 32.446476 46.065738 
L 31.899057 46.184762 
L 31.351638 46.303786 
" style="fill:none;stroke:#4169e1;stroke-linecap:square;stroke-width:0.4;"/>
   </g>
   <g id="line2d_19">
    <path clip-path="url(#pdf00557316)" d="M 43.98378 45.594013 
L 43.508019 46.089922 
L 43.032258 46.585831 
L 42.31333 47.17964 
L 41.594402 47.773449 
L 41.078505 47.898446 
L 40.562608 48.023443 
L 40.04671 48.14844 
L 39.530813 48.273437 
L 38.765092 48.273437 
L 37.999371 48.273437 
L 37.23365 48.273437 
L 36.46793 48.273437 
L 35.65522 48.132852 
L 34.84251 47.992267 
L 34.029801 47.851681 
L 33.217091 47.711096 
" style="fill:none;stroke:#000000;stroke-linecap:square;stroke-width:0.4;"/>
   </g>
   <g id="line2d_20">
    <path clip-path="url(#pdf00557316)" d="M 40.9068 41.021275 
L 40.265991 41.380824 
L 39.625182 41.740373 
L 38.984373 42.099922 
L 38.343564 42.45947 
L 37.858992 42.725198 
L 37.374421 42.990926 
L 36.889849 43.256654 
L 36.405278 43.522383 
L 35.689287 44.098709 
L 34.973296 44.675036 
L 34.257305 45.251363 
L 33.541314 45.82769 
" style="fill:none;stroke:#000000;stroke-linecap:square;stroke-width:0.4;"/>
   </g>
   <g id="line2d_21">
    <path clip-path="url(#pdf00557316)" d="M 46.53292 19.170386 
L 46.337623 19.846361 
L 46.142326 20.522336 
L 45.947029 21.198311 
L 45.751732 21.874286 
L 45.556435 22.550261 
L 45.361138 23.226236 
L 45.165841 23.902211 
L 44.970544 24.578186 
L 44.751655 25.234639 
L 44.532765 25.891092 
L 44.313876 26.547545 
L 44.094987 27.203999 
L 43.797979 27.844864 
L 43.500971 28.485729 
L 43.203963 29.126594 
L 42.906955 29.767459 
L 42.609947 30.408324 
L 42.312939 31.049189 
L 42.01593 31.690054 
L 41.718922 32.330919 
L 41.382953 32.963917 
L 41.046983 33.596915 
L 40.711014 34.229913 
L 40.375044 34.862911 
L 40.039075 35.495909 
L 39.703105 36.128907 
L 39.367136 36.761905 
L 39.031166 37.394903 
L 38.359031 38.192087 
L 37.686896 38.989271 
L 37.014761 39.786456 
L 36.342626 40.58364 
L 35.912875 41.013481 
L 35.483124 41.443323 
L 35.053372 41.873164 
L 34.623621 42.303005 
L 34.19387 42.732847 
L 33.764119 43.162688 
L 33.334367 43.59253 
L 32.904616 44.022371 
L 32.516372 44.592725 
L 32.128127 45.163079 
L 31.739882 45.733432 
L 31.351638 46.303786 
" style="fill:none;stroke:#000000;stroke-linecap:square;stroke-width:0.4;"/>
   </g>
   <g id="line2d_22">
    <path clip-path="url(#pdf00557316)" d="M 46.53292 19.170386 
L 45.642091 19.553245 
L 44.751263 19.936103 
L 43.860435 20.318961 
L 42.969606 20.701819 
L 42.719587 21.358272 
L 42.469568 22.014726 
L 42.219548 22.671179 
L 41.969529 23.327632 
L 41.781966 24.328191 
L 41.594402 25.328751 
L 41.446388 25.875504 
L 41.298373 26.422257 
L 41.150359 26.96901 
L 41.002344 27.515763 
L 40.525212 28.266328 
L 40.048081 29.016893 
L 39.570949 29.767459 
L 39.093818 30.518024 
L 38.249586 30.768018 
L 37.405355 31.018012 
L 36.881822 31.260285 
L 36.358289 31.502558 
L 35.834756 31.744831 
L 35.311223 31.987104 
L 34.78769 32.229377 
L 34.264157 32.47165 
L 33.740624 32.713922 
L 33.217091 32.956195 
L 32.763846 33.237512 
L 32.3106 33.518828 
L 31.857354 33.800144 
L 31.404109 34.081461 
L 30.653855 34.519096 
L 29.903601 34.956731 
L 29.27356 35.427583 
L 28.64352 35.898434 
L 28.130168 36.303874 
L 27.616815 36.709313 
L 27.103463 37.114752 
L 26.590111 37.520192 
L 26.07441 37.676511 
L 25.558708 37.83283 
L 25.043007 37.989149 
L 24.527305 38.145468 
L 23.948952 38.270465 
L 23.370599 38.395462 
L 22.792246 38.52046 
L 22.213892 38.645457 
L 21.432509 38.661045 
L 20.651125 38.676633 
L 19.869741 38.692221 
L 19.088357 38.70781 
L 18.152106 38.745687 
L 17.215856 38.783565 
L 16.668045 38.764626 
L 16.120235 38.745687 
L 15.572424 38.726748 
L 15.024614 38.70781 
L 14.368337 38.879863 
L 13.712061 39.051916 
L 13.055785 39.223969 
L 12.399509 39.396022 
L 11.805688 39.661604 
L 11.211868 39.927187 
L 10.618048 40.192769 
L 10.024227 40.458351 
L 9.414548 40.8179 
L 8.804869 41.177449 
L 8.19519 41.536998 
L 7.585511 41.896546 
L 6.679412 42.084188 
L 5.773312 42.271829 
" style="fill:none;stroke:#000000;stroke-linecap:square;stroke-width:0.4;"/>
   </g>
   <g id="line2d_23">
    <path clip-path="url(#pdf00557316)" d="M 19.276312 32.143277 
L 18.807208 33.018548 
L 18.338104 33.893819 
L 17.97864 34.284544 
L 17.619176 34.67527 
L 17.259712 35.065995 
L 16.900248 35.45672 
L 16.488313 35.820056 
L 16.076378 36.183393 
L 15.664444 36.546729 
L 15.252509 36.910066 
L 14.482285 37.496299 
L 13.712061 38.082533 
L 13.055785 38.739277 
L 12.399509 39.396022 
" style="fill:none;stroke:#ff0000;stroke-linecap:square;stroke-width:0.4;"/>
   </g>
   <g id="line2d_24">
    <path clip-path="url(#pdf00557316)" d="M 19.276312 32.143277 
L 18.729285 32.284008 
L 18.182258 32.424739 
L 17.63523 32.56547 
L 17.088203 32.706201 
L 16.11906 33.081192 
L 15.149917 33.456184 
L 14.634215 33.628091 
L 14.118514 33.799999 
L 13.602812 33.971906 
L 13.087111 34.143813 
L 12.149685 34.393808 
L 11.33678 34.112637 
L 10.523875 33.831466 
L 9.99251 33.409419 
L 9.461146 32.987372 
L 8.929781 32.565325 
L 8.398417 32.143277 
" style="fill:none;stroke:#ff0000;stroke-linecap:square;stroke-width:0.4;"/>
   </g>
   <g id="line2d_25">
    <path clip-path="url(#pdf00557316)" d="M 42.672794 48.921441 
L 42.356207 49.634857 
L 42.039621 50.348272 
L 41.723034 51.061688 
L 41.406447 51.775104 
L 40.984527 52.181417 
L 40.562608 52.587731 
L 40.140688 52.994044 
L 39.718768 53.400357 
L 39.015503 53.634763 
L 38.312238 53.869169 
L 37.608973 54.103575 
L 36.905708 54.337981 
L 36.04601 54.369303 
L 35.186311 54.400625 
L 34.326613 54.431948 
L 33.466915 54.46327 
L 32.904225 54.010046 
L 32.341534 53.556822 
L 31.778844 53.103599 
L 31.216154 52.650375 
L 30.762908 52.087597 
L 30.309662 51.524818 
L 29.856417 50.96204 
L 29.403171 50.399262 
L 29.090696 49.867806 
L 28.778221 49.33635 
L 28.465746 48.804893 
L 28.15327 48.273437 
L 27.528124 47.616984 
L 26.902978 46.960531 
L 26.277832 46.304078 
L 25.652686 45.647624 
L 25.115839 45.121704 
L 24.578993 44.595784 
" style="fill:none;stroke:#4169e1;stroke-linecap:square;stroke-width:0.4;"/>
   </g>
   <g id="line2d_26">
    <path clip-path="url(#pdf00557316)" d="M 31.216154 52.650375 
L 30.575345 52.462734 
L 29.934536 52.275092 
L 29.293726 52.087451 
L 28.652917 51.89981 
L 27.844319 51.780057 
L 27.035721 51.660305 
L 26.15664 51.530063 
L 25.277559 51.399821 
L 24.738363 51.399821 
L 24.199167 51.399821 
L 23.659971 51.399821 
L 23.120775 51.399821 
L 22.581579 51.399821 
L 22.042383 51.399821 
L 21.503188 51.399821 
L 20.963992 51.399821 
L 20.135619 51.46232 
L 19.307247 51.524818 
L 18.478874 51.587317 
L 17.650502 51.649815 
L 16.759673 51.681138 
L 15.868845 51.71246 
L 14.978016 51.743782 
L 14.087188 51.775104 
L 13.437373 51.682157 
L 12.787558 51.589211 
L 12.137742 51.496264 
L 11.487927 51.403318 
L 11.024305 51.337468 
L 10.274051 51.087183 
L 9.523797 50.836897 
" style="fill:none;stroke:#000000;stroke-linecap:square;stroke-width:0.4;"/>
   </g>
   <g id="line2d_27">
    <path clip-path="url(#pdf00557316)" d="M 33.466915 54.46327 
L 32.93555 54.51018 
L 32.404186 54.55709 
L 31.872821 54.604001 
L 31.341457 54.650911 
L 30.810093 54.697821 
L 30.278728 54.744732 
L 29.747364 54.791642 
L 29.215999 54.838552 
L 28.356301 55.01046 
L 27.496603 55.182367 
L 26.636904 55.354274 
L 25.777206 55.526182 
L 24.949029 55.635591 
L 24.120852 55.745 
L 23.292676 55.854409 
L 22.464499 55.963817 
L 21.90964 55.948156 
L 21.354781 55.932495 
L 20.799923 55.916834 
L 20.245064 55.901173 
L 19.690205 55.885512 
L 19.135346 55.869851 
L 18.580487 55.85419 
L 18.025628 55.838529 
L 17.462938 55.541624 
L 16.900248 55.24472 
L 16.337558 54.947815 
L 15.774867 54.650911 
L 15.337285 54.244452 
L 14.899702 53.837993 
L 14.462119 53.431534 
L 14.024536 53.025075 
L 13.390384 52.619635 
L 12.756232 52.214196 
L 12.122079 51.808757 
L 11.487927 51.403318 
" style="fill:none;stroke:#000000;stroke-linecap:square;stroke-width:0.4;"/>
   </g>
   <g id="line2d_28">
    <path clip-path="url(#pdf00557316)" d="M 27.035721 51.660305 
L 26.564855 51.360778 
L 26.093988 51.061251 
L 25.623122 50.761724 
L 25.152256 50.462197 
L 24.745999 50.008828 
L 24.339742 49.555459 
L 23.933485 49.102089 
L 23.527228 48.64872 
L 23.136438 48.226673 
L 22.745648 47.804625 
L 22.354859 47.382578 
L 21.964069 46.960531 
L 21.448367 46.726125 
L 20.932666 46.491719 
L 20.416964 46.257313 
L 19.901263 46.022907 
L 19.32291 45.818803 
L 18.744556 45.6147 
L 18.166203 45.410596 
L 17.58785 45.206492 
" style="fill:none;stroke:#000000;stroke-linecap:square;stroke-width:0.4;"/>
   </g>
   <g id="line2d_29">
    <path clip-path="url(#pdf00557316)" d="M 55.785788 32.580913 
L 55.379531 32.987372 
L 54.973274 33.393831 
L 54.567017 33.80029 
L 54.16076 34.206749 
L 53.504092 34.894379 
L 52.847425 35.582008 
L 52.253604 36.285372 
L 51.659784 36.988735 
L 51.065964 37.692099 
L 50.472143 38.395462 
" style="fill:none;stroke:#008000;stroke-linecap:square;stroke-width:0.4;"/>
   </g>
   <g id="line2d_30">
    <path clip-path="url(#pdf00557316)" d="M 63.225673 27.329287 
L 62.834883 27.93883 
L 62.444094 28.548373 
L 62.053304 29.157916 
L 61.662514 29.767459 
L 61.381169 30.252004 
L 61.099824 30.73655 
L 60.818479 31.221096 
L 60.537134 31.705642 
L 59.755946 32.268274 
L 58.974758 32.830907 
L 58.380742 33.112369 
L 57.786725 33.393831 
L 57.380273 33.815878 
L 56.97382 34.237925 
L 56.567367 34.659973 
L 56.160915 35.08202 
L 55.785788 35.582154 
L 55.410661 36.082288 
L 55.035534 36.582422 
L 54.660407 37.082556 
L 54.49438 37.63266 
L 54.332661 38.167175 
L 54.170941 38.701691 
L 54.009222 39.236206 
L 53.847502 39.770722 
L 53.691264 40.395999 
L 53.535027 41.021275 
L 53.378789 41.646552 
L 53.222552 42.271829 
L 53.097444 42.912694 
L 52.972336 43.553559 
L 52.847229 44.194424 
L 52.722121 44.835289 
L 52.59721 45.741736 
L 52.472298 46.648184 
L 52.347386 47.554631 
L 52.222474 48.461079 
L 52.206811 49.398994 
L 52.191148 50.336909 
L 52.175486 51.274824 
L 52.159823 52.212739 
" style="fill:none;stroke:#008000;stroke-linecap:square;stroke-width:0.4;"/>
   </g>
   <g id="line2d_31">
    <path clip-path="url(#pdf00557316)" d="M 54.49438 37.63266 
L 53.702228 37.857596 
L 52.910076 38.082533 
L 52.300593 38.160765 
L 51.69111 38.238998 
L 51.081627 38.31723 
L 50.472143 38.395462 
L 50.175135 38.872214 
L 49.878127 39.348966 
L 49.581119 39.825718 
L 49.284111 40.302469 
L 48.987103 40.779221 
L 48.690095 41.255973 
L 48.393087 41.732724 
L 48.096079 42.209476 
L 47.627366 42.990926 
L 47.158653 43.772377 
L 46.720875 44.460006 
L 46.283096 45.147636 
L 45.845318 45.835266 
L 45.407539 46.522895 
L 44.723853 47.122532 
L 44.040167 47.722168 
L 43.35648 48.321804 
L 42.672794 48.921441 
" style="fill:none;stroke:#4169e1;stroke-linecap:square;stroke-width:0.4;"/>
   </g>
   <g id="line2d_32">
    <path clip-path="url(#pdf00557316)" d="M 50.472143 38.395462 
L 50.378166 39.395731 
L 50.284188 40.395999 
L 50.315514 41.349502 
L 50.34684 42.303005 
L 50.378166 43.256509 
L 50.409492 44.210012 
L 50.409492 45.225868 
L 50.409492 46.241725 
L 50.409492 47.257581 
L 50.409492 48.273437 
L 50.409492 48.992535 
L 50.409492 49.711632 
L 50.409492 50.43073 
L 50.409492 51.149827 
L 50.409492 51.712168 
" style="fill:none;stroke:#4169e1;stroke-linecap:square;stroke-width:0.4;"/>
   </g>
   <g id="line2d_33">
    <path clip-path="url(#pdf00557316)" d="M 45.095064 42.74035 
L 45.251302 43.725175 
L 45.407539 44.710001 
L 45.407539 45.616448 
L 45.407539 46.522895 
L 45.845318 47.304637 
L 46.283096 48.086379 
L 46.908438 48.211376 
L 47.53378 48.336373 
L 47.9557 48.664599 
L 48.37762 48.992826 
L 48.79954 49.321053 
L 49.22146 49.649279 
L 49.815476 50.399553 
L 50.409492 51.149827 
L 51.284657 51.681283 
L 52.159823 52.212739 
L 52.722513 53.056543 
L 53.285203 53.900346 
L 54.004131 54.525622 
L 54.723059 55.150899 
" style="fill:none;stroke:#008000;stroke-linecap:square;stroke-width:0.4;"/>
   </g>
   <g id="line2d_34">
    <path clip-path="url(#pdf00557316)" d="M 58.737465 18.544527 
L 59.387476 19.06054 
L 60.037487 19.576554 
L 60.08428 20.248741 
L 60.131073 20.920928 
L 60.177865 21.593115 
L 60.224658 22.265302 
L 60.31844 22.859111 
L 60.412222 23.45292 
L 60.506004 24.046729 
L 60.599785 24.640538 
L 60.724893 25.156406 
L 60.85 25.672274 
L 60.975108 26.188142 
L 61.100215 26.70401 
L 61.146421 27.74507 
L 61.192627 28.786129 
" style="fill:none;stroke:#000000;stroke-linecap:square;stroke-width:0.4;"/>
   </g>
   <g id="line2d_35">
    <path clip-path="url(#pdf00557316)" d="M 51.847347 2.821117 
L 52.410038 3.024347 
L 52.972728 3.227576 
L 53.535418 3.430806 
L 54.098109 3.634035 
L 54.785711 4.102847 
L 55.473313 4.571659 
L 56.067329 5.196936 
L 56.661345 5.822213 
L 57.005146 6.259848 
L 57.348947 6.697484 
L 57.692748 7.135119 
L 58.036549 7.572755 
L 58.911714 8.104211 
L 59.78688 8.635667 
L 60.443548 9.198299 
L 61.100215 9.760932 
L 61.506668 10.542382 
L 61.913121 11.323833 
L 62.225596 12.003741 
L 62.538071 12.683649 
L 62.850546 13.363558 
L 63.163022 14.043466 
" style="fill:none;stroke:#000000;stroke-linecap:square;stroke-width:0.4;"/>
   </g>
  </g>
 </g>
 <defs>
  <clipPath id="pdf00557316">
   <rect height="58.628761" width="72" x="0" y="0"/>
  </clipPath>
 </defs>
</svg>
