<?xml version="1.0" encoding="utf-8" standalone="no"?>
<!DOCTYPE svg PUBLIC "-//W3C//DTD SVG 1.1//EN"
  "http://www.w3.org/Graphics/SVG/1.1/DTD/svg11.dtd">
<svg height="86.297113pt" version="1.1" viewBox="0 0 72 86.297113" width="72pt" xmlns="http://www.w3.org/2000/svg" xmlns:xlink="http://www.w3.org/1999/xlink">
 <metadata>
  <rdf:RDF xmlns:cc="http://creativecommons.org/ns#" xmlns:dc="http://purl.org/dc/elements/1.1/" xmlns:rdf="http://www.w3.org/1999/02/22-rdf-syntax-ns#">
   <cc:Work>
    <dc:type rdf:resource="http://purl.org/dc/dcmitype/StillImage"/>
    <dc:date>2022-05-19T22:09:49.610107</dc:date>
    <dc:format>image/svg+xml</dc:format>
    <dc:creator>
     <cc:Agent>
      <dc:title>Matplotlib v3.4.3, https://matplotlib.org/</dc:title>
     </cc:Agent>
    </dc:creator>
   </cc:Work>
  </rdf:RDF>
 </metadata>
 <defs>
  <style type="text/css">*{stroke-linecap:butt;stroke-linejoin:round;}</style>
 </defs>
 <g id="figure_1">
  <g id="patch_1">
   <path d="M 0 86.297113 
L 72 86.297113 
L 72 0 
L 0 0 
z
" style="fill:#ffffff;"/>
  </g>
  <g id="axes_1">
   <g id="line2d_1">
    <path clip-path="url(#p49158142d8)" d="M 61.669528 82.374517 
L 60.051833 80.135098 
L 58.434137 77.89568 
L 56.816441 75.656261 
L 55.198746 73.416843 
L 53.58105 71.177424 
L 51.963354 68.938006 
L 50.345659 66.698587 
L 48.727963 64.459169 
L 47.110267 62.21975 
L 45.492572 59.980332 
L 43.874876 57.740914 
L 42.25718 55.501495 
L 40.639485 53.262077 
L 39.021789 51.022658 
L 37.404094 48.78324 
L 35.786398 46.543821 
L 34.168702 44.304403 
L 32.551007 42.064984 
L 30.933311 39.825566 
L 29.315615 37.586147 
L 27.69792 35.346729 
L 26.080224 33.10731 
L 24.462528 30.867892 
L 22.844833 28.628473 
L 21.227137 26.389055 
L 19.609441 24.149636 
L 17.991746 21.910218 
L 16.37405 19.670799 
L 14.756355 17.431381 
L 13.138659 15.191962 
L 11.520963 12.952544 
L 9.903268 10.713126 
" style="fill:none;stroke:#808080;stroke-linecap:square;stroke-width:0.4;"/>
   </g>
   <g id="line2d_2">
    <path clip-path="url(#p49158142d8)" d="M 11.347005 10.277172 
L 12.194313 9.964164 
L 13.041621 9.651156 
L 13.888929 9.338148 
L 14.736237 9.02514 
L 15.575261 8.715621 
L 16.414286 8.406102 
L 17.132308 7.792401 
L 17.850331 7.1787 
L 18.568353 6.565 
L 19.286376 5.951299 
L 20.069189 5.561116 
L 20.852002 5.170934 
L 21.634815 4.780751 
L 22.417629 4.390569 
L 23.528537 4.273576 
L 24.639445 4.156582 
L 25.750354 4.039589 
L 26.861262 3.922596 
L 27.641117 4.594999 
L 28.420972 5.267402 
L 29.200826 5.939804 
L 29.980681 6.612207 
L 31.071768 7.742731 
L 31.384183 7.898722 
L 31.94511 8.546084 
L 32.506038 9.193446 
L 33.066965 9.840808 
L 33.627893 10.48817 
L 34.424315 11.407695 
L 34.89205 12.318908 
L 35.359785 13.230121 
L 35.827521 14.141333 
L 36.295256 15.052546 
L 36.762991 15.963758 
L 37.230727 16.874971 
L 37.698462 17.786183 
L 38.166197 18.697396 
L 38.760851 19.749924 
L 39.355505 20.802452 
L 39.95016 21.85498 
L 40.544814 22.907508 
L 40.798059 23.706756 
L 41.051305 24.506004 
L 41.304551 25.305252 
L 41.557796 26.1045 
L 41.908672 27.488508 
L 42.259547 28.872517 
L 42.610423 30.256526 
L 42.961298 31.640534 
L 43.477848 33.073187 
L 43.994399 34.50584 
L 44.510949 35.938494 
L 45.027499 37.371147 
L 45.397753 38.175115 
L 45.768006 38.979084 
L 46.13826 39.783053 
L 46.508513 40.587022 
L 46.878767 41.390991 
L 47.24902 42.194959 
L 47.619273 42.998928 
L 47.989527 43.802897 
L 48.379454 44.616718 
L 48.769382 45.430539 
L 49.159309 46.24436 
L 49.549236 47.058181 
L 49.939164 47.872001 
L 50.329091 48.685822 
L 50.719019 49.499643 
L 51.108946 50.313464 
L 51.644726 51.814466 
L 52.180507 53.315468 
L 52.716287 54.816469 
L 53.252067 56.317471 
L 53.681047 57.418644 
L 54.110026 58.519816 
L 54.539005 59.620989 
L 54.967984 60.722161 
L 55.172711 61.969678 
L 55.377438 63.217194 
L 55.582164 64.464711 
L 55.786891 65.712227 
L 56.283619 67.213024 
L 56.780348 68.71382 
L 57.277076 70.214617 
L 57.773805 71.715413 
L 58.158851 72.485413 
L 58.543896 73.255413 
L 58.928942 74.025413 
L 59.313988 74.795412 
L 59.699034 75.565412 
L 60.08408 76.335412 
L 60.469126 77.105411 
L 60.854172 77.875411 
L 61.185521 78.635662 
L 61.516871 79.395912 
" style="fill:none;stroke:#4169e1;stroke-linecap:square;stroke-width:0.4;"/>
   </g>
   <g id="line2d_3">
    <path clip-path="url(#p49158142d8)" d="M 31.384183 7.898722 
L 32.631477 8.083858 
L 33.878771 8.268995 
L 35.126066 8.454131 
L 36.37336 8.639268 
L 37.73781 8.902502 
L 39.10226 9.165737 
L 40.46671 9.428972 
L 41.83116 9.692206 
L 43.19561 9.955441 
L 44.56006 10.218675 
L 45.92451 10.48191 
L 47.288959 10.745145 
L 48.399868 11.193413 
L 49.510776 11.641682 
L 50.621685 12.08995 
L 51.732593 12.538219 
L 52.35624 13.395758 
L 52.979887 14.253298 
L 53.603534 15.110837 
L 54.227182 15.968376 
L 54.753495 17.215893 
L 55.279808 18.463409 
L 55.806121 19.710926 
L 56.332434 20.958443 
L 57.111993 21.738192 
L 57.891552 22.517941 
L 58.671111 23.29769 
L 59.45067 24.077439 
L 60.503 24.973976 
L 61.555331 25.870513 
L 62.607661 26.767051 
L 63.659992 27.663588 
L 64.166779 28.345842 
L 64.673566 29.028097 
L 65.180354 29.710352 
L 65.687141 30.392607 
L 65.940683 31.191855 
L 66.194224 31.991103 
L 66.447766 32.790351 
L 66.701307 33.589599 
L 66.330906 34.564132 
L 65.960504 35.538664 
L 65.590103 36.513197 
L 65.219701 37.487729 
L 65.375317 38.423264 
L 65.530933 39.358799 
L 66.115824 40.372534 
L 66.700715 41.38627 
L 67.285607 42.400005 
L 67.870498 43.413741 
L 67.831446 44.310278 
L 67.792394 45.206815 
L 67.753342 46.103352 
L 67.71429 46.999889 
L 67.772868 48.500686 
L 67.831446 50.001482 
L 67.890024 51.502279 
L 67.948601 53.003075 
L 67.948601 54.094806 
L 67.948601 55.186537 
L 67.948601 56.278268 
L 67.948601 57.369999 
L 68.065461 58.286035 
L 68.182321 59.202071 
L 68.299181 60.118107 
L 68.416041 61.034143 
L 68.571657 62.359655 
L 68.727273 63.685167 
L 68.416041 65.244255 
L 68.006883 66.024004 
L 67.597726 66.803753 
L 67.188568 67.583502 
L 66.779411 68.363251 
L 66.19452 69.181998 
L 65.609629 70.000745 
L 65.024738 70.819492 
L 64.439847 71.638239 
L 64.167075 72.690767 
L 63.894303 73.743295 
L 63.718866 74.532691 
L 63.543428 75.322087 
L 63.36799 76.111483 
L 63.192553 76.900879 
L 63.017115 77.690275 
L 62.841677 78.479671 
L 62.666239 79.269067 
L 62.490802 80.058463 
" style="fill:none;stroke:#4169e1;stroke-linecap:square;stroke-width:0.4;"/>
   </g>
   <g id="line2d_4">
    <path clip-path="url(#p49158142d8)" d="M 16.414286 8.406102 
L 17.789978 8.965617 
L 19.16567 9.525132 
L 20.031912 10.083825 
L 20.898154 10.642519 
L 22.24012 10.810825 
L 23.204288 10.824782 
L 24.168456 10.838739 
L 25.132624 10.852696 
L 26.096792 10.866653 
L 27.131075 10.44712 
L 28.165359 10.027587 
L 29.255262 9.943844 
L 30.345166 9.860102 
L 31.35164 10.055911 
L 32.358114 10.251721 
L 33.627893 10.48817 
" style="fill:none;stroke:#4169e1;stroke-linecap:square;stroke-width:0.4;"/>
   </g>
   <g id="line2d_5">
    <path clip-path="url(#p49158142d8)" d="M 14.736237 9.02514 
L 15.301898 10.420848 
L 15.867559 11.816556 
L 16.286775 12.585221 
L 16.705991 13.353887 
L 17.125208 14.122553 
L 17.544424 14.891218 
L 17.99855 15.548022 
L 18.452677 16.204826 
L 18.906803 16.861629 
L 19.360929 17.518433 
L 19.815056 18.175237 
L 20.269182 18.832041 
L 20.723308 19.488844 
L 21.177435 20.145648 
L 22.057878 20.984304 
L 22.938321 21.822961 
L 23.818764 22.661617 
L 24.699207 23.500273 
L 25.370189 24.226862 
L 26.041172 24.953451 
L 26.655944 25.903764 
L 27.270716 26.854077 
L 27.634017 27.608786 
L 27.997318 28.363494 
L 28.360619 29.118203 
L 28.72392 29.872911 
L 29.087221 30.851138 
L 29.450522 31.829365 
L 29.813823 32.807592 
L 30.177124 33.785819 
L 30.792487 34.959856 
" style="fill:none;stroke:#000000;stroke-linecap:square;stroke-width:0.4;"/>
   </g>
   <g id="line2d_6">
    <path clip-path="url(#p49158142d8)" d="M 30.792487 34.959856 
L 31.77056 36.217635 
L 32.748633 37.475414 
L 33.32169 38.048373 
L 33.894747 38.621331 
L 34.467804 39.19429 
L 35.040862 39.767249 
L 35.613919 40.340207 
L 36.186976 40.913166 
L 36.760033 41.486125 
L 37.33309 42.059083 
L 37.864137 42.799835 
L 38.395184 43.540586 
L 38.92623 44.281338 
L 39.457277 45.022089 
L 40.016134 46.210083 
L 40.57499 47.398076 
L 41.133846 48.58607 
L 41.692703 49.774064 
L 42.202744 50.766248 
L 42.712786 51.758432 
L 43.222828 52.750616 
L 43.732869 53.7428 
L 44.242911 54.734985 
L 44.752952 55.727169 
L 45.262994 56.719353 
L 45.773035 57.711537 
L 46.387955 58.557069 
L 47.002875 59.402601 
L 47.617794 60.248133 
L 48.232714 61.093666 
L 48.847633 61.939198 
L 49.462553 62.78473 
L 50.077473 63.630262 
L 50.692392 64.475794 
L 51.188381 65.132598 
L 51.68437 65.789402 
L 52.180359 66.446205 
L 52.676347 67.103009 
L 53.172336 67.759813 
L 53.668325 68.416617 
L 54.164314 69.07342 
L 54.660303 69.730224 
L 55.438678 70.226521 
L 56.217054 70.722819 
L 56.995429 71.219116 
L 57.773805 71.715413 
" style="fill:none;stroke:#008000;stroke-linecap:square;stroke-width:0.4;"/>
   </g>
   <g id="line2d_7">
    <path clip-path="url(#p49158142d8)" d="M 9.018091 12.328863 
L 8.908923 13.187634 
L 8.799755 14.046404 
L 8.690588 14.905175 
L 8.58142 15.763946 
L 8.144157 16.560321 
L 7.706894 17.356695 
L 7.269631 18.15307 
L 6.832368 18.949444 
L 6.442145 19.667618 
L 6.051921 20.385792 
L 5.661698 21.103966 
L 5.271475 21.822139 
L 4.740132 22.821713 
L 4.20879 23.821286 
L 4.364997 25.039246 
L 4.521205 26.257207 
L 4.615284 27.349964 
L 4.709364 28.442721 
L 4.396949 29.754686 
L 4.084534 31.066652 
L 3.881582 32.222011 
L 3.67863 33.377369 
L 3.475679 34.532728 
L 3.272727 35.688087 
L 3.397575 36.937246 
L 3.522423 38.186404 
L 4.053174 39.591554 
L 4.583925 40.996703 
L 5.302243 42.058673 
L 6.020561 43.120642 
L 6.73888 44.182612 
L 7.457198 45.244581 
L 8.362788 46.228145 
L 9.268378 47.211708 
L 10.173968 48.195272 
L 11.079558 49.178836 
L 11.235766 50.3344 
L 11.391974 51.489964 
L 11.548181 52.645528 
L 11.704389 53.801092 
L 11.548181 54.613065 
L 11.391974 55.425039 
L 11.235766 56.237013 
L 11.079558 57.048986 
L 10.923351 57.86096 
L 10.767143 58.672933 
L 10.610936 59.484907 
L 10.454728 60.296881 
L 10.431356 61.108752 
L 10.407984 61.920623 
L 10.384612 62.732494 
L 10.36124 63.544364 
L 10.337868 64.356235 
L 10.314496 65.168106 
L 10.291124 65.979977 
L 10.267752 66.791848 
L 10.36124 67.619421 
L 10.454728 68.446994 
L 10.548216 69.274566 
L 10.641704 70.102139 
L 11.891365 70.78932 
L 13.296642 71.101712 
L 14.701919 71.414105 
L 16.169915 71.913686 
L 17.637912 72.413267 
L 18.730774 72.803655 
L 19.823635 73.194043 
L 20.916497 73.58443 
L 22.009359 73.974818 
L 22.946013 74.006016 
L 23.882667 74.037214 
L 24.663705 73.444039 
L 25.444743 72.850863 
L 26.348262 72.965803 
L 27.251781 73.080744 
L 28.1553 73.195685 
L 29.058819 73.310625 
L 29.961155 72.83239 
L 30.863491 72.354155 
L 31.765827 71.87592 
L 32.668162 71.397685 
L 33.641502 71.048758 
L 34.614841 70.699831 
L 35.58818 70.350904 
L 36.561519 70.001977 
L 37.537817 69.570949 
L 38.514114 69.139922 
L 39.630644 68.118592 
L 40.747173 67.097262 
L 41.996539 66.40926 
L 43.245904 65.721258 
L 44.495269 65.033256 
L 45.744634 64.345255 
L 46.945776 63.819812 
L 48.146918 63.294369 
L 49.448648 62.650701 
" style="fill:none;stroke:#4169e1;stroke-linecap:square;stroke-width:0.4;"/>
   </g>
  </g>
 </g>
 <defs>
  <clipPath id="p49158142d8">
   <rect height="86.297113" width="72" x="0" y="0"/>
  </clipPath>
 </defs>
</svg>
