<?xml version="1.0" encoding="utf-8" standalone="no"?>
<!DOCTYPE svg PUBLIC "-//W3C//DTD SVG 1.1//EN"
  "http://www.w3.org/Graphics/SVG/1.1/DTD/svg11.dtd">
<svg height="72pt" version="1.1" viewBox="0 0 72.982759 72" width="72.982759pt" xmlns="http://www.w3.org/2000/svg" xmlns:xlink="http://www.w3.org/1999/xlink">
 <metadata>
  <rdf:RDF xmlns:cc="http://creativecommons.org/ns#" xmlns:dc="http://purl.org/dc/elements/1.1/" xmlns:rdf="http://www.w3.org/1999/02/22-rdf-syntax-ns#">
   <cc:Work>
    <dc:type rdf:resource="http://purl.org/dc/dcmitype/StillImage"/>
    <dc:date>2022-05-18T23:17:17.076652</dc:date>
    <dc:format>image/svg+xml</dc:format>
    <dc:creator>
     <cc:Agent>
      <dc:title>Matplotlib v3.4.3, https://matplotlib.org/</dc:title>
     </cc:Agent>
    </dc:creator>
   </cc:Work>
  </rdf:RDF>
 </metadata>
 <defs>
  <style type="text/css">*{stroke-linecap:butt;stroke-linejoin:round;}</style>
 </defs>
 <g id="figure_1">
  <g id="patch_1">
   <path d="M 0 72 
L 72.982759 72 
L 72.982759 0 
L 0 0 
z
" style="fill:#ffffff;"/>
  </g>
  <g id="axes_1">
   <g id="line2d_1">
    <path clip-path="url(#p1786cb55e2)" d="M 32.45288 62.282044 
L 31.334878 61.033472 
L 30.216877 59.784899 
L 28.640142 58.024033 
L 27.063408 56.263166 
L 25.486673 54.5023 
L 23.909938 52.741433 
L 22.440036 51.09947 
L 20.970133 49.457507 
L 19.774904 48.122814 
L 18.579674 46.78812 
L 16.544979 44.515669 
L 14.510283 42.243217 
L 13.397688 41.001378 
L 11.544735 38.931647 
" style="fill:none;stroke:#808080;stroke-linecap:square;stroke-width:0.4;"/>
   </g>
   <g id="line2d_2">
    <path clip-path="url(#p1786cb55e2)" d="M 30.874858 67.663346 
L 28.941588 67.611602 
L 27.008318 67.559859 
L 25.075049 67.508116 
L 23.141779 67.456373 
" style="fill:none;stroke:#808080;stroke-linecap:square;stroke-width:0.4;"/>
   </g>
   <g id="line2d_3">
    <path clip-path="url(#p1786cb55e2)" d="M 32.159414 64.83235 
L 29.342143 64.376584 
L 26.524872 63.920818 
" style="fill:none;stroke:#808080;stroke-linecap:square;stroke-width:0.4;"/>
   </g>
   <g id="line2d_4">
    <path clip-path="url(#p1786cb55e2)" d="M 34.288327 61.603002 
L 32.541949 59.697006 
L 30.542263 57.515283 
L 29.358425 56.223296 
L 28.174587 54.931308 
L 26.990749 53.639321 
L 25.806911 52.347334 
L 24.623073 51.055346 
L 23.439235 49.763359 
L 22.255397 48.471372 
L 21.071559 47.179385 
L 19.93927 45.943748 
L 18.806982 44.708111 
L 17.674693 43.472474 
L 16.542405 42.236838 
L 14.8766 40.418735 
L 13.210796 38.600632 
" style="fill:none;stroke:#808080;stroke-linecap:square;stroke-width:0.4;"/>
   </g>
   <g id="line2d_5">
    <path clip-path="url(#p1786cb55e2)" d="M 39.458987 62.462082 
L 39.37867 60.003922 
L 39.29269 57.358635 
L 39.211086 54.855111 
L 39.129482 52.351587 
L 39.045304 49.766903 
L 38.961125 47.18222 
L 38.880036 44.688619 
L 38.798947 42.195018 
L 38.734075 40.206091 
L 38.669204 38.217164 
L 38.583224 35.574713 
L 38.497501 32.944665 
L 38.411778 30.314618 
L 38.325025 27.64913 
L 38.238273 24.983642 
L 38.146887 22.184543 
L 38.0555 19.385444 
L 37.959995 16.452025 
L 37.86449 13.518606 
L 37.764609 10.451576 
" style="fill:none;stroke:#808080;stroke-linecap:square;stroke-width:0.4;"/>
   </g>
   <g id="line2d_6">
    <path clip-path="url(#p1786cb55e2)" d="M 9.29895 27.085979 
L 10.366496 25.686429 
L 11.434042 24.28688 
L 12.491805 22.900089 
L 13.549569 21.513298 
L 15.040581 19.559103 
L 16.091137 18.181881 
L 17.141692 16.804659 
L 18.192248 15.427437 
L 19.242804 14.050215 
L 20.250627 12.72899 
L 21.25845 11.407764 
L 22.249283 10.108866 
L 23.240116 8.809967 
L 24.711563 6.880581 
L 26.18301 4.951903 
L 26.698892 4.275696 
" style="fill:none;stroke:#808080;stroke-linecap:square;stroke-width:0.4;"/>
   </g>
   <g id="line2d_7">
    <path clip-path="url(#p1786cb55e2)" d="M 49.003831 60.603577 
L 49.168068 57.662716 
L 49.332306 54.721854 
L 49.426267 53.03878 
L 49.520227 51.355706 
L 49.609554 49.760878 
L 49.698881 48.166051 
L 49.792584 46.484394 
L 49.886287 44.802738 
L 50.007792 42.630583 
L 50.129297 40.458428 
L 50.304347 37.324061 
L 50.410921 35.415584 
L 50.517496 33.507108 
L 50.6511 31.116285 
L 50.784704 28.725461 
L 50.936585 26.010711 
L 51.058091 23.832531 
L 51.180883 21.635568 
L 51.303675 19.438605 
L 51.421576 17.328471 
L 51.539477 15.218338 
L 51.666388 12.945532 
L 51.793299 10.672726 
" style="fill:none;stroke:#808080;stroke-linecap:square;stroke-width:0.4;"/>
   </g>
   <g id="line2d_8">
    <path clip-path="url(#p1786cb55e2)" d="M 57.729029 60.00534 
L 57.698911 58.252447 
L 57.668792 56.499555 
L 57.63996 54.818962 
L 57.611128 53.138368 
L 57.569425 50.70856 
L 57.527722 48.278752 
L 57.485247 45.793303 
L 57.442772 43.307853 
L 57.402356 40.956723 
L 57.36194 38.605593 
L 57.312257 35.703717 
L 57.262573 32.80184 
L 57.207999 29.637703 
L 57.15394 26.481008 
L 57.09988 23.324313 
L 57.058435 20.903011 
L 57.016989 18.481709 
L 56.978633 16.246824 
L 56.940276 14.01194 
L 56.90192 11.777055 
L 56.863563 9.54217 
" style="fill:none;stroke:#808080;stroke-linecap:square;stroke-width:0.4;"/>
   </g>
   <g id="line2d_9">
    <path clip-path="url(#p1786cb55e2)" d="M 67.311972 58.713884 
L 67.282625 58.289306 
L 67.114784 55.878636 
L 67.011298 54.388004 
L 66.842942 51.963158 
L 66.674585 49.538311 
L 66.58809 48.293637 
L 66.450624 46.311799 
L 66.303377 44.194577 
L 66.139654 41.836005 
L 65.975931 39.477432 
L 65.863693 37.862049 
L 65.690703 35.374828 
L 65.584643 33.847338 
L 65.532643 33.095997 
" style="fill:none;stroke:#808080;stroke-linecap:square;stroke-width:0.4;"/>
   </g>
   <g id="line2d_10">
    <path clip-path="url(#p1786cb55e2)" d="M 66.176208 33.634694 
L 66.418189 34.118635 
L 66.660169 34.602577 
L 66.90215 35.086518 
L 67.14413 35.57046 
L 67.484576 36.180393 
L 67.825022 36.790326 
L 68.165468 37.400258 
L 68.505914 38.010191 
L 68.727687 38.569976 
L 68.949459 39.12976 
L 69.171232 39.689544 
L 69.393004 40.249329 
L 69.461093 41.025655 
L 69.529183 41.801982 
L 69.597272 42.578308 
L 69.665361 43.354634 
L 69.601037 44.287298 
L 69.536712 45.219962 
L 69.472388 46.152626 
L 69.408064 47.08529 
L 69.343739 48.017954 
L 69.279415 48.950617 
L 69.215091 49.883281 
L 69.150766 50.815945 
L 69.086442 51.748609 
L 69.022118 52.681273 
L 68.957793 53.613937 
L 68.893469 54.5466 
L 68.829145 55.479264 
L 68.76482 56.411928 
L 68.700496 57.344592 
L 68.636172 58.277256 
" style="fill:none;stroke:#4169e1;stroke-linecap:square;stroke-width:0.4;"/>
   </g>
   <g id="line2d_11">
    <path clip-path="url(#p1786cb55e2)" d="M 23.069185 68.152426 
L 23.550507 68.224282 
L 24.03183 68.296138 
L 24.513152 68.367994 
L 24.994474 68.439849 
L 25.475797 68.511705 
L 25.957119 68.583561 
L 26.438441 68.655417 
L 26.919764 68.727273 
L 27.401022 68.686693 
L 27.88228 68.646114 
L 28.363538 68.605534 
L 28.844796 68.564955 
L 29.326054 68.524375 
L 29.807312 68.483796 
L 30.28857 68.443216 
L 30.769828 68.402637 
" style="fill:none;stroke:#008000;stroke-linecap:square;stroke-width:0.4;"/>
   </g>
   <g id="line2d_12">
    <path clip-path="url(#p1786cb55e2)" d="M 23.769384 65.351909 
L 24.244431 65.411317 
L 24.719479 65.470724 
L 25.194527 65.530131 
L 25.669574 65.589539 
L 26.144622 65.648946 
L 26.619669 65.708353 
L 27.094717 65.767761 
L 27.569765 65.827168 
L 28.044812 65.886575 
L 28.51986 65.945983 
L 28.994907 66.00539 
L 29.469955 66.064797 
L 29.945003 66.124205 
L 30.42005 66.183612 
L 30.895098 66.243019 
L 31.370146 66.302427 
" style="fill:none;stroke:#008000;stroke-linecap:square;stroke-width:0.4;"/>
   </g>
   <g id="line2d_13">
    <path clip-path="url(#p1786cb55e2)" d="M 5.307816 53.643042 
L 5.904787 54.074354 
L 6.501759 54.505667 
L 7.09873 54.936979 
L 7.695701 55.368291 
L 8.154563 55.617084 
L 8.613424 55.865877 
L 9.072286 56.11467 
L 9.531148 56.363463 
L 9.99001 56.612256 
L 10.448872 56.861049 
L 10.907734 57.109842 
L 11.366596 57.358635 
L 11.969198 57.528617 
L 12.571801 57.698599 
L 13.174403 57.868581 
L 13.777005 58.038563 
L 14.379607 58.208545 
L 14.98221 58.378527 
L 15.584812 58.548509 
L 16.187414 58.718491 
L 16.790016 58.888473 
L 17.392618 59.058455 
L 17.995221 59.228437 
L 18.597823 59.398419 
L 19.200425 59.568401 
L 19.803027 59.738383 
L 20.40563 59.908365 
L 21.008232 60.078347 
L 21.610834 60.248329 
L 22.213436 60.418311 
L 22.816038 60.588293 
L 23.418641 60.758275 
L 24.021243 60.928257 
L 24.623845 61.098239 
L 25.226447 61.268221 
L 25.82905 61.438203 
L 26.431652 61.608185 
L 27.034254 61.778167 
L 27.636856 61.948149 
L 28.239459 62.118131 
L 28.842061 62.288113 
L 29.444663 62.458095 
L 30.047265 62.628077 
L 30.649867 62.798059 
" style="fill:none;stroke:#008000;stroke-linecap:square;stroke-width:0.4;"/>
   </g>
   <g id="line2d_14">
    <path clip-path="url(#p1786cb55e2)" d="M 26.050179 3.272727 
L 25.254217 3.670725 
L 24.458256 4.068723 
L 24.07675 4.422509 
L 23.695245 4.776295 
L 23.31374 5.130081 
L 22.932234 5.483867 
L 22.550729 5.837652 
L 22.169223 6.191438 
L 21.787718 6.545224 
L 21.406212 6.89901 
L 20.872729 7.562325 
L 20.339246 8.22564 
L 19.805763 8.888956 
L 19.272279 9.552271 
L 18.738796 10.215586 
L 18.205313 10.878901 
L 17.671829 11.542217 
L 17.138346 12.205532 
L 16.604863 12.868847 
L 16.071379 13.532162 
L 15.537896 14.195478 
L 15.004413 14.858793 
L 14.470929 15.522108 
L 13.937446 16.185423 
L 13.403963 16.848739 
L 12.870479 17.512054 
L 12.522182 17.921127 
L 12.173884 18.3302 
L 11.825587 18.739273 
L 11.477289 19.148346 
L 11.128992 19.55742 
L 10.780694 19.966493 
L 10.432397 20.375566 
L 10.0841 20.784639 
L 9.862971 21.475642 
L 9.641842 22.166646 
L 9.420713 22.857649 
L 9.199584 23.548652 
L 8.978455 24.239655 
L 8.757326 24.930658 
L 8.536197 25.621662 
L 8.315068 26.312665 
" style="fill:none;stroke:#008000;stroke-linecap:square;stroke-width:0.4;"/>
   </g>
   <g id="line2d_15">
    <path clip-path="url(#p1786cb55e2)" d="M 8.315068 26.312665 
L 8.049726 27.108661 
L 7.784384 27.904657 
L 7.519042 28.700653 
L 7.2537 29.496649 
L 6.988358 30.292645 
L 6.723016 31.088641 
L 6.457674 31.884637 
L 6.192332 32.680633 
L 6.03202 33.388205 
L 5.871708 34.095776 
L 5.711396 34.803348 
L 5.551084 35.51092 
L 5.390772 36.218491 
L 5.23046 36.926063 
L 5.070148 37.633635 
L 4.909836 38.341206 
L 4.771598 38.838792 
L 4.63336 39.336379 
L 4.495122 39.833965 
L 4.356885 40.331551 
L 4.218647 40.829137 
L 4.080409 41.326723 
L 3.942171 41.824309 
L 3.803933 42.321895 
L 3.743116 42.841543 
L 3.6823 43.361191 
L 3.621483 43.880839 
L 3.560666 44.400487 
L 3.499849 44.920135 
L 3.439032 45.439782 
L 3.378215 45.95943 
L 3.317398 46.479078 
L 3.350606 47.352512 
L 3.383814 48.225946 
L 3.417022 49.099379 
L 3.45023 49.972813 
L 3.638151 50.514523 
L 3.826072 51.056232 
L 4.013993 51.597942 
L 4.201914 52.139652 
L 4.754865 52.891347 
L 5.307816 53.643042 
" style="fill:none;stroke:#008000;stroke-linecap:square;stroke-width:0.4;"/>
   </g>
   <g id="line2d_16">
    <path clip-path="url(#p1786cb55e2)" d="M 13.387906 37.731628 
L 14.076906 38.114387 
L 14.765907 38.497145 
L 15.454908 38.879904 
L 16.143909 39.262662 
L 16.389493 39.53272 
L 16.957343 40.157205 
L 17.525193 40.781691 
L 18.093043 41.406176 
L 18.660892 42.030662 
L 19.228742 42.655148 
L 19.796592 43.279633 
L 20.364441 43.904119 
L 20.932291 44.528605 
L 21.500141 45.15309 
L 22.067991 45.777576 
L 22.63584 46.402061 
L 23.20369 47.026547 
L 23.77154 47.651033 
L 24.339389 48.275518 
L 24.907239 48.900004 
L 25.475089 49.524489 
L 26.042939 50.148975 
L 26.610788 50.773461 
L 27.178638 51.397946 
L 27.746488 52.022432 
L 28.314337 52.646918 
L 28.882187 53.271403 
L 29.450037 53.895889 
L 30.017886 54.520374 
L 30.585736 55.14486 
L 31.153586 55.769346 
L 31.721436 56.393831 
L 32.289285 57.018317 
L 32.857135 57.642803 
L 33.424985 58.267288 
L 33.992834 58.891774 
L 34.560684 59.516259 
" style="fill:none;stroke:#4169e1;stroke-linecap:square;stroke-width:0.4;"/>
   </g>
   <g id="line2d_17">
    <path clip-path="url(#p1786cb55e2)" d="M 27.386735 5.1447 
L 26.949239 5.822679 
L 26.511744 6.500658 
L 26.074248 7.178636 
L 25.636752 7.856615 
L 25.106326 8.594754 
L 24.5759 9.332894 
L 24.045473 10.071033 
L 23.515047 10.809172 
L 22.98462 11.547311 
L 22.454194 12.28545 
L 21.923768 13.02359 
L 21.393341 13.761729 
L 21.103544 14.302996 
L 20.813746 14.844262 
L 20.523949 15.385529 
L 20.234152 15.926795 
L 19.944354 16.468062 
L 19.654557 17.009329 
L 19.364759 17.550595 
L 19.074962 18.091862 
L 18.637467 18.824597 
L 18.199971 19.557331 
L 17.762475 20.290066 
L 17.32498 21.0228 
L 17.007831 21.820923 
L 16.690682 22.619045 
L 16.373533 23.417167 
L 16.056384 24.21529 
L 15.903216 24.6746 
L 15.750047 25.13391 
L 15.596879 25.593221 
L 15.44371 26.052531 
L 14.902407 26.440783 
L 14.361105 26.829035 
L 13.819802 27.217286 
L 13.2785 27.605538 
L 12.737197 27.99379 
L 12.195894 28.382042 
L 11.654592 28.770294 
L 11.113289 29.158546 
" style="fill:none;stroke:#008000;stroke-linecap:square;stroke-width:0.4;"/>
   </g>
   <g id="line2d_18">
    <path clip-path="url(#p1786cb55e2)" d="M 16.389493 39.53272 
L 16.966643 39.222969 
L 17.543792 38.913218 
L 17.937525 38.300804 
L 18.331258 37.68839 
L 18.724991 37.075977 
L 19.118725 36.463563 
L 19.468695 36.124574 
L 19.818666 35.785584 
L 20.168637 35.446595 
L 20.518607 35.107606 
L 21.393341 34.910556 
L 22.268075 34.713506 
L 22.847798 34.844813 
L 23.427522 34.976121 
L 24.007245 35.107428 
L 24.586969 35.238736 
L 25.177504 35.894741 
L 25.76804 36.550747 
" style="fill:none;stroke:#008000;stroke-linecap:square;stroke-width:0.4;"/>
   </g>
   <g id="line2d_19">
    <path clip-path="url(#p1786cb55e2)" d="M 40.291503 11.049814 
L 40.23133 11.563791 
L 40.171156 12.077769 
L 40.110983 12.591746 
L 40.05081 13.105723 
L 39.990636 13.619701 
L 39.930463 14.133678 
L 39.87029 14.647655 
L 39.810116 15.161633 
L 39.673423 15.74658 
L 39.53673 16.331527 
L 39.400037 16.916474 
L 39.263343 17.501422 
L 39.12665 18.086369 
L 38.989957 18.671316 
L 38.853264 19.256263 
L 38.71657 19.84121 
L 38.749392 20.371579 
L 38.782214 20.901948 
L 38.815036 21.432316 
L 38.847858 21.962685 
L 38.88068 22.493054 
L 38.913501 23.023422 
L 38.946323 23.553791 
L 38.979145 24.08416 
L 38.716699 24.70756 
L 38.454253 25.33096 
L 38.191807 25.95436 
L 37.929362 26.577761 
L 37.273183 27.168201 
L 36.617004 27.758642 
L 35.960824 28.349082 
L 35.304645 28.939523 
L 35.025724 29.355064 
L 34.746803 29.770605 
L 34.467882 30.186146 
L 34.188961 30.601687 
L 33.91004 31.017228 
L 33.631119 31.432769 
L 33.352198 31.84831 
L 33.073276 32.263851 
L 32.854593 33.171485 
L 32.635909 34.079119 
L 32.417226 34.986753 
L 32.198543 35.894387 
L 32.299711 36.632571 
L 32.400879 37.370754 
L 32.502048 38.108938 
L 32.603216 38.847121 
L 32.704385 39.585305 
L 32.805553 40.323488 
L 32.906722 41.061672 
L 33.00789 41.799855 
L 33.109059 42.538039 
L 33.210227 43.276222 
L 33.311395 44.014406 
L 33.412564 44.752589 
L 33.513732 45.490773 
L 33.614901 46.228956 
L 33.716069 46.96714 
L 33.817238 47.705323 
L 34.025013 48.582965 
L 34.232788 49.460608 
L 34.440563 50.33825 
L 34.648338 51.215892 
L 34.856113 52.093535 
L 35.063888 52.971177 
L 35.271663 53.848819 
L 35.479438 54.726462 
L 35.687213 55.604104 
L 35.894988 56.481746 
L 36.102763 57.359388 
L 36.310538 58.237031 
L 36.518313 59.114673 
L 36.726088 59.992315 
L 36.933863 60.869958 
L 37.141638 61.7476 
" style="fill:none;stroke:#008000;stroke-linecap:square;stroke-width:0.4;"/>
   </g>
   <g id="line2d_20">
    <path clip-path="url(#p1786cb55e2)" d="M 43.878478 11.356021 
L 43.84572 12.088666 
L 43.812963 12.821312 
L 43.780205 13.553958 
L 43.747448 14.286604 
L 43.71469 15.01925 
L 43.681933 15.751896 
L 43.649176 16.484542 
L 43.616418 17.217188 
L 43.583596 17.906065 
L 43.550774 18.594941 
L 43.517953 19.283818 
L 43.485131 19.972695 
L 43.452309 20.661572 
L 43.419487 21.350449 
L 43.386665 22.039325 
L 43.353843 22.728202 
L 42.992932 23.603053 
L 42.632021 24.477905 
L 42.271109 25.352756 
L 41.910198 26.227607 
L 41.631277 26.878297 
L 41.352356 27.528986 
L 41.073435 28.179676 
L 40.794514 28.830366 
L 40.515592 29.481055 
L 40.236671 30.131745 
L 39.95775 30.782434 
L 39.678829 31.433124 
L 39.383561 32.007261 
L 39.088294 32.581399 
L 38.793026 33.155537 
L 38.497758 33.729675 
L 38.202491 34.303813 
L 37.907223 34.87795 
L 37.611955 35.452088 
L 37.316688 36.026226 
L 37.294806 36.60568 
L 37.272925 37.185134 
L 37.251044 37.764588 
L 37.229163 38.344042 
L 37.36045 39.164314 
L 37.491737 39.984587 
L 37.623025 40.80486 
L 37.754312 41.625133 
L 37.910151 42.122719 
L 38.06599 42.620305 
L 38.22183 43.117891 
L 38.377669 43.615477 
L 38.533508 44.113063 
L 38.689348 44.61065 
L 38.845187 45.108236 
L 39.001026 45.605822 
L 39.156866 46.103408 
L 39.312705 46.600994 
L 39.468544 47.09858 
L 39.624383 47.596166 
L 39.780223 48.093752 
L 39.936062 48.591338 
L 40.091901 49.088924 
L 40.247741 49.586511 
L 40.335266 50.412188 
L 40.42279 51.237866 
L 40.510315 52.063543 
L 40.59784 52.889221 
L 40.685365 53.714898 
L 40.77289 54.540576 
L 40.860415 55.366253 
L 40.94794 56.191931 
L 41.154138 56.830925 
L 41.360336 57.469919 
L 41.53294 58.004629 
L 41.705544 58.539339 
L 41.878149 59.074049 
L 42.050753 59.608759 
L 42.223357 60.143469 
L 42.395961 60.67818 
L 42.568565 61.21289 
L 42.741169 61.7476 
" style="fill:none;stroke:#008000;stroke-linecap:square;stroke-width:0.4;"/>
   </g>
   <g id="line2d_21">
    <path clip-path="url(#p1786cb55e2)" d="M 35.217121 10.262323 
L 35.009249 10.776212 
L 34.801378 11.290101 
L 34.593506 11.80399 
L 34.385634 12.317879 
L 34.254476 13.039627 
L 34.123317 13.761374 
L 33.992159 14.483122 
L 33.861 15.20487 
L 33.784416 15.735239 
L 33.707832 16.265608 
L 33.631247 16.795976 
L 33.554663 17.326345 
L 33.478079 17.856714 
L 33.401495 18.387082 
L 33.32491 18.917451 
L 33.248326 19.44782 
L 33.078811 19.90713 
L 32.909296 20.36644 
L 32.739781 20.82575 
L 32.570266 21.285061 
L 32.400751 21.744371 
L 32.231236 22.203681 
L 32.061721 22.662991 
L 31.892206 23.122302 
L 31.580527 23.696351 
L 31.268848 24.2704 
L 30.95717 24.844449 
L 30.645491 25.418498 
L 30.333813 25.992548 
L 30.022134 26.566597 
L 29.710455 27.140646 
L 29.398777 27.714695 
L 29.174559 28.212281 
L 28.950341 28.709867 
L 28.726122 29.207454 
L 28.501904 29.70504 
L 28.277686 30.202626 
L 28.053468 30.700212 
L 27.82925 31.197798 
L 27.605032 31.695384 
L 27.266002 32.329594 
L 26.926972 32.963803 
L 26.587942 33.598013 
L 26.248912 34.232223 
L 26.128694 34.811854 
L 26.008476 35.391485 
L 25.888258 35.971116 
L 25.76804 36.550747 
L 25.899327 37.359856 
L 26.030614 38.168965 
L 26.517278 38.764987 
L 27.003942 39.36101 
L 27.490606 39.957032 
L 27.97727 40.553055 
L 28.463934 41.149077 
L 28.950598 41.745099 
L 29.437262 42.341122 
L 29.923926 42.937144 
L 30.41059 43.533166 
L 30.897254 44.129189 
L 31.383918 44.725211 
L 31.870582 45.321234 
L 32.357246 45.917256 
L 32.84391 46.513278 
L 33.330574 47.109301 
L 33.817238 47.705323 
L 34.288681 48.31561 
L 34.760125 48.925898 
L 35.231569 49.536185 
L 35.703012 50.146472 
L 36.174456 50.756759 
L 36.6459 51.367047 
L 37.117343 51.977334 
L 37.588787 52.587621 
L 38.060231 53.197908 
L 38.531674 53.808195 
L 39.003118 54.418483 
L 39.474561 55.02877 
L 39.946005 55.639057 
L 40.417449 56.249344 
L 40.888892 56.859632 
L 41.360336 57.469919 
" style="fill:none;stroke:#008000;stroke-linecap:square;stroke-width:0.4;"/>
   </g>
   <g id="line2d_22">
    <path clip-path="url(#p1786cb55e2)" d="M 49.915634 11.399967 
L 49.765265 11.935785 
L 49.614896 12.471602 
L 49.464527 13.00742 
L 49.314158 13.543238 
L 49.163789 14.079055 
L 49.01342 14.614873 
L 48.863051 15.150691 
L 48.712682 15.686508 
L 48.562313 16.222326 
L 48.411944 16.758143 
L 48.261575 17.293961 
L 48.111206 17.829779 
L 47.960837 18.365596 
L 47.810468 18.901414 
L 47.660099 19.437232 
L 47.50973 19.973049 
L 47.405826 20.522512 
L 47.301923 21.071974 
L 47.198019 21.621436 
L 47.094115 22.170899 
L 46.990212 22.720361 
L 46.886308 23.269823 
L 46.782405 23.819285 
L 46.678501 24.368748 
L 46.574597 24.91821 
L 46.470694 25.467672 
L 46.36679 26.017135 
L 46.262887 26.566597 
L 46.158983 27.116059 
L 46.055079 27.665521 
L 45.951176 28.214984 
L 45.847272 28.764446 
L 45.75978 29.346779 
L 45.672287 29.929113 
L 45.584794 30.511446 
L 45.497302 31.09378 
L 45.409809 31.676113 
L 45.322316 32.258447 
L 45.234824 32.84078 
L 45.147331 33.423114 
L 45.059838 34.005447 
L 44.972345 34.58778 
L 44.884853 35.170114 
L 44.79736 35.752447 
L 44.709867 36.334781 
L 44.622375 36.917114 
L 44.534882 37.499448 
L 44.447389 38.081781 
L 44.648503 38.659906 
L 44.849618 39.238031 
L 45.050732 39.816156 
L 45.251846 40.394281 
L 45.45296 40.972406 
L 45.654074 41.55053 
L 45.855188 42.128655 
L 46.056302 42.70678 
L 46.197372 43.112221 
L 46.216502 43.659025 
L 46.235632 44.205829 
L 46.254762 44.752633 
L 46.273892 45.299438 
L 46.293022 45.846242 
L 46.312152 46.393046 
L 46.331282 46.93985 
L 46.350412 47.486655 
L 46.369542 48.033459 
L 46.388671 48.580263 
L 46.407801 49.127067 
L 46.426931 49.673872 
L 46.446061 50.220676 
L 46.465191 50.76748 
L 46.484321 51.314284 
L 46.503451 51.861089 
L 46.522581 52.407893 
L 46.541711 52.954697 
L 46.560841 53.501501 
L 46.579971 54.048306 
L 46.599101 54.59511 
L 46.618231 55.141914 
L 46.637361 55.688718 
L 46.656491 56.235523 
L 46.675621 56.782327 
L 46.694751 57.329131 
L 46.713881 57.875935 
L 46.733011 58.422739 
L 46.752141 58.969544 
L 46.771271 59.516348 
L 46.790401 60.063152 
L 46.809531 60.609956 
" style="fill:none;stroke:#008000;stroke-linecap:square;stroke-width:0.4;"/>
   </g>
   <g id="line2d_23">
    <path clip-path="url(#p1786cb55e2)" d="M 49.959396 34.713506 
L 49.715453 35.213086 
L 49.471509 35.712665 
L 49.227566 36.212245 
L 48.983623 36.711825 
L 48.739679 37.211404 
L 48.495736 37.710984 
L 48.251793 38.210563 
L 48.007849 38.710143 
L 47.763906 39.209723 
L 47.519962 39.709302 
L 47.276019 40.208882 
L 47.032076 40.708462 
L 46.788132 41.208041 
L 46.544189 41.707621 
L 46.300246 42.207201 
L 46.056302 42.70678 
" style="fill:none;stroke:#4169e1;stroke-linecap:square;stroke-width:0.4;"/>
   </g>
   <g id="line2d_24">
    <path clip-path="url(#p1786cb55e2)" d="M 54.027758 11.312074 
L 53.962146 12.132214 
L 53.896535 12.952354 
L 53.830923 13.772494 
L 53.765312 14.592634 
L 53.6997 15.412774 
L 53.634089 16.232914 
L 53.568477 17.053054 
L 53.502866 17.873194 
L 53.437254 18.693333 
L 53.371643 19.513473 
L 53.306031 20.333613 
L 53.24042 21.153753 
L 53.174809 21.973893 
L 53.109197 22.794033 
L 53.043586 23.614173 
L 52.977974 24.434313 
L 53.038115 25.325555 
L 53.098256 26.216798 
L 53.158398 27.108041 
L 53.218539 27.999283 
L 53.27868 28.890526 
L 53.338821 29.781769 
L 53.398962 30.673011 
L 53.459103 31.564254 
L 53.519245 32.455496 
L 53.579386 33.346739 
L 53.639527 34.237982 
L 53.699668 35.129224 
L 53.759809 36.020467 
L 53.81995 36.91171 
L 53.880092 37.802952 
L 53.940233 38.694195 
L 53.712282 39.165555 
L 53.484331 39.636915 
L 53.25638 40.108275 
L 53.02843 40.579635 
L 52.775122 41.103447 
L 52.521815 41.627259 
L 52.268508 42.151071 
L 52.015201 42.674884 
L 52.026141 43.287297 
L 52.037082 43.899711 
L 52.048023 44.512125 
L 52.058963 45.124538 
L 52.069904 45.736952 
L 52.080844 46.349366 
L 52.091785 46.961779 
L 52.102726 47.574193 
L 52.113666 48.186607 
L 52.124607 48.79902 
L 52.135547 49.411434 
L 52.146488 50.023848 
L 52.157429 50.636261 
L 52.168369 51.248675 
L 52.17931 51.861089 
L 52.19025 52.473502 
L 52.157461 52.971088 
L 52.124671 53.468674 
L 52.091881 53.966261 
L 52.059092 54.463847 
L 52.026302 54.961433 
L 51.993513 55.459019 
L 51.960723 55.956605 
L 51.927933 56.454191 
L 51.895144 56.951777 
L 51.862354 57.449363 
L 51.829564 57.946949 
L 51.796775 58.444535 
L 51.763985 58.942122 
L 51.731195 59.439708 
L 51.698406 59.937294 
L 51.665616 60.43488 
" style="fill:none;stroke:#4169e1;stroke-linecap:square;stroke-width:0.4;"/>
   </g>
   <g id="line2d_25">
    <path clip-path="url(#p1786cb55e2)" d="M 53.02843 40.579635 
L 53.197108 41.03292 
L 53.365787 41.486206 
L 53.534465 41.939491 
L 53.703143 42.392776 
L 53.871822 42.846062 
L 54.0405 43.299347 
L 54.209179 43.752632 
L 54.377857 44.205918 
L 54.536432 44.856607 
L 54.695006 45.507297 
L 54.85358 46.157986 
L 55.012155 46.808676 
L 55.170729 47.459365 
L 55.329304 48.110055 
L 55.487878 48.760744 
L 55.646453 49.411434 
L 55.714799 50.023848 
L 55.783146 50.636261 
L 55.851493 51.248675 
L 55.919839 51.861089 
L 55.988186 52.473502 
L 56.056532 53.085916 
L 56.124879 53.69833 
L 56.193226 54.310743 
L 56.261572 54.923157 
L 56.329919 55.535571 
L 56.398265 56.147984 
L 56.466612 56.760398 
L 56.534959 57.372812 
L 56.603305 57.985225 
L 56.671652 58.597639 
L 56.739999 59.210053 
" style="fill:none;stroke:#4169e1;stroke-linecap:square;stroke-width:0.4;"/>
   </g>
   <g id="line2d_26">
    <path clip-path="url(#p1786cb55e2)" d="M 57.833544 10.000063 
L 57.921069 10.557721 
L 58.008594 11.115379 
L 58.096119 11.673037 
L 58.183644 12.230695 
L 58.271169 12.788353 
L 58.358694 13.346011 
L 58.446218 13.903668 
L 58.533743 14.461326 
L 58.582912 15.068247 
L 58.63208 15.675167 
L 58.681248 16.282088 
L 58.730417 16.889008 
L 58.779585 17.495928 
L 58.828754 18.102849 
L 58.877922 18.709769 
L 58.92709 19.316689 
L 58.943501 19.978277 
L 58.959912 20.639864 
L 58.976323 21.301452 
L 58.992734 21.963039 
L 59.009145 22.624627 
L 59.025556 23.286214 
L 59.041967 23.947802 
L 59.058378 24.609389 
L 59.10214 25.407689 
L 59.145903 26.205989 
L 59.189665 27.004288 
L 59.233427 27.802588 
L 59.364715 28.447784 
L 59.496002 29.09298 
L 59.627289 29.738177 
L 59.758577 30.383373 
L 59.579665 30.891237 
L 59.400754 31.399101 
L 59.216695 31.921495 
L 59.032635 32.44389 
L 58.848575 32.966284 
L 58.664516 33.488679 
L 58.40754 33.931598 
L 58.150565 34.374517 
L 57.893589 34.817436 
L 57.636614 35.260355 
L 57.379638 35.703274 
L 57.122662 36.146192 
L 56.865687 36.589111 
L 56.608711 37.03203 
L 56.357206 37.589688 
L 56.105701 38.147346 
L 55.854196 38.705004 
L 55.60269 39.262662 
L 55.635512 39.820497 
L 55.668334 40.378332 
L 55.701156 40.936168 
L 55.733978 41.494003 
L 56.089354 42.379752 
L 56.444731 43.265501 
L 56.800108 44.151251 
L 57.155484 45.037 
L 57.510861 45.922749 
L 57.866238 46.808499 
L 58.221614 47.694248 
L 58.576991 48.579997 
L 58.656407 49.201626 
L 58.735823 49.823254 
L 58.815239 50.444882 
L 58.894655 51.06651 
L 58.998397 51.879163 
L 59.10214 52.691816 
L 59.10214 53.506596 
L 59.10214 54.321375 
L 59.10214 55.136155 
L 59.10214 55.950934 
L 59.10214 56.765714 
L 59.10214 57.580493 
L 59.10214 58.395273 
L 59.10214 59.210053 
" style="fill:none;stroke:#4169e1;stroke-linecap:square;stroke-width:0.4;"/>
   </g>
   <g id="line2d_27">
    <path clip-path="url(#p1786cb55e2)" d="M 59.400754 31.399101 
L 59.98228 32.074599 
L 60.563805 32.750096 
L 61.145331 33.425594 
L 61.726856 34.101092 
L 61.86902 34.620563 
L 62.011183 35.140034 
L 62.153347 35.659504 
L 62.29551 36.178975 
L 62.437674 36.698446 
L 62.579837 37.217916 
L 62.722001 37.737387 
L 62.864165 38.256858 
L 62.951689 39.109913 
L 63.039214 39.962969 
L 63.126739 40.816024 
L 63.214264 41.669079 
L 63.061224 42.609496 
L 62.908184 43.549912 
L 62.755145 44.490329 
L 62.602105 45.430745 
L 62.302783 45.885714 
L 62.003461 46.340683 
L 61.704138 46.795651 
L 61.404816 47.25062 
L 61.105494 47.705589 
L 60.806172 48.160558 
L 60.50685 48.615527 
L 60.207528 49.070495 
L 59.879309 49.569499 
L 59.551091 50.068503 
L 59.222873 50.567506 
L 58.894655 51.06651 
" style="fill:none;stroke:#4169e1;stroke-linecap:square;stroke-width:0.4;"/>
   </g>
   <g id="line2d_28">
    <path clip-path="url(#p1786cb55e2)" d="M 60.207528 49.070495 
L 60.499352 49.657746 
L 60.791177 50.244997 
L 61.083001 50.832248 
L 61.374826 51.419499 
L 61.666651 52.006749 
L 61.958475 52.594 
L 62.2503 53.181251 
L 62.542125 53.768502 
L 62.833949 54.355753 
L 63.125774 54.943004 
L 63.417598 55.530254 
L 63.709423 56.117505 
L 64.001248 56.704756 
L 64.293072 57.292007 
L 64.584897 57.879258 
L 64.876721 58.466509 
" style="fill:none;stroke:#008000;stroke-linecap:square;stroke-width:0.4;"/>
   </g>
  </g>
 </g>
 <defs>
  <clipPath id="p1786cb55e2">
   <rect height="72" width="72.982759" x="0" y="0"/>
  </clipPath>
 </defs>
</svg>
