<?xml version="1.0" encoding="utf-8" standalone="no"?>
<!DOCTYPE svg PUBLIC "-//W3C//DTD SVG 1.1//EN"
  "http://www.w3.org/Graphics/SVG/1.1/DTD/svg11.dtd">
<svg height="51.297411pt" version="1.1" viewBox="0 0 72 51.297411" width="72pt" xmlns="http://www.w3.org/2000/svg" xmlns:xlink="http://www.w3.org/1999/xlink">
 <metadata>
  <rdf:RDF xmlns:cc="http://creativecommons.org/ns#" xmlns:dc="http://purl.org/dc/elements/1.1/" xmlns:rdf="http://www.w3.org/1999/02/22-rdf-syntax-ns#">
   <cc:Work>
    <dc:type rdf:resource="http://purl.org/dc/dcmitype/StillImage"/>
    <dc:date>2022-05-22T20:01:17.604220</dc:date>
    <dc:format>image/svg+xml</dc:format>
    <dc:creator>
     <cc:Agent>
      <dc:title>Matplotlib v3.4.3, https://matplotlib.org/</dc:title>
     </cc:Agent>
    </dc:creator>
   </cc:Work>
  </rdf:RDF>
 </metadata>
 <defs>
  <style type="text/css">*{stroke-linecap:butt;stroke-linejoin:round;}</style>
 </defs>
 <g id="figure_1">
  <g id="patch_1">
   <path d="M 0 51.297411 
L 72 51.297411 
L 72 0 
L 0 0 
z
" style="fill:#ffffff;"/>
  </g>
  <g id="axes_1">
   <g id="line2d_1">
    <path clip-path="url(#p9fbfa65dfb)" d="M 30.080645 24.681748 
L 29.545231 24.42854 
L 29.009817 24.175332 
L 28.146806 23.767565 
L 27.283796 23.359798 
L 26.500714 22.989841 
L 25.717633 22.619885 
L 25.242338 22.395349 
L 24.767042 22.170813 
L 24.291747 21.946277 
L 23.816451 21.72174 
L 23.129171 21.396942 
L 22.441891 21.072144 
L 21.630264 20.688659 
L 20.818636 20.305173 
L 19.993078 19.915146 
L 19.16752 19.52512 
L 18.37439 19.150415 
L 17.58126 18.77571 
L 16.869202 18.439264 
L 16.157144 18.102818 
L 15.530839 17.806871 
L 14.904534 17.510924 
L 14.287477 17.220263 
" style="fill:none;stroke:#808080;stroke-linecap:square;stroke-width:0.4;"/>
   </g>
   <g id="line2d_2">
    <path clip-path="url(#p9fbfa65dfb)" d="M 17.304704 6.51044 
L 16.370442 6.84823 
L 15.521704 7.155198 
L 14.672966 7.462166 
L 13.826626 7.768148 
L 12.980287 8.07413 
L 12.149362 8.374646 
L 11.318437 8.675163 
L 10.438755 8.993286 
L 9.559073 9.311409 
L 8.679391 9.629532 
L 7.799709 9.947655 
L 6.888284 10.277291 
L 5.976858 10.606927 
L 5.23123 10.876532 
L 4.485601 11.146137 
L 4.059006 11.300786 
" style="fill:none;stroke:#808080;stroke-linecap:square;stroke-width:0.4;"/>
   </g>
   <g id="line2d_3">
    <path clip-path="url(#p9fbfa65dfb)" d="M 48.342951 40.54587 
L 47.90037 40.203062 
L 47.118316 39.597728 
L 46.336262 38.992394 
L 45.696027 38.49682 
L 45.055791 38.001245 
L 44.632278 37.673401 
L 44.208766 37.345556 
L 43.627564 36.895409 
L 43.162145 36.535219 
L 42.696727 36.175029 
L 41.972337 35.615212 
" style="fill:none;stroke:#808080;stroke-linecap:square;stroke-width:0.4;"/>
   </g>
   <g id="line2d_4">
    <path clip-path="url(#p9fbfa65dfb)" d="M 48.693271 38.981105 
L 48.762239 38.244418 
L 48.848334 37.328264 
L 48.93443 36.412109 
L 48.990723 35.813137 
L 49.047016 35.214164 
L 49.129001 34.341735 
L 49.210986 33.469305 
L 49.304846 32.469106 
L 49.398706 31.468907 
L 49.447292 30.952187 
L 49.495878 30.435467 
L 49.544464 29.918747 
L 49.593049 29.402027 
L 49.682799 28.446269 
L 49.772548 27.490512 
L 49.864125 26.516028 
L 49.955701 25.541544 
L 50.040998 24.632827 
L 50.126294 23.724109 
L 50.186298 23.085534 
L 50.246302 22.446958 
L 50.306307 21.808383 
L 50.366311 21.169808 
L 50.417009 20.630419 
L 50.467707 20.09103 
L 50.518405 19.551641 
L 50.569104 19.012253 
L 50.620258 18.466592 
" style="fill:none;stroke:#808080;stroke-linecap:square;stroke-width:0.4;"/>
   </g>
   <g id="line2d_5">
    <path clip-path="url(#p9fbfa65dfb)" d="M 64.635336 41.352444 
L 64.480958 41.548129 
L 64.414959 41.774816 
L 64.398402 41.956748 
L 64.381845 42.138679 
L 64.365288 42.320611 
L 64.348731 42.502543 
L 64.396004 42.757722 
L 64.49643 42.949107 
L 64.596856 43.140491 
L 64.697281 43.331875 
L 64.797707 43.52326 
L 64.935871 43.780769 
L 65.074035 44.038278 
L 65.212199 44.295786 
L 65.350363 44.553295 
L 65.51576 44.801396 
L 65.681157 45.049497 
L 65.846554 45.297598 
L 66.011951 45.545699 
L 66.097019 45.763067 
L 66.182087 45.980435 
" style="fill:none;stroke:#4169e1;stroke-linecap:square;stroke-width:0.4;"/>
   </g>
   <g id="line2d_6">
    <path clip-path="url(#p9fbfa65dfb)" d="M 56.854307 29.468868 
L 56.721396 29.58696 
L 56.554457 29.633731 
L 56.360571 29.626921 
L 56.191863 29.571818 
L 56.023154 29.516714 
L 55.854446 29.46161 
L 55.685737 29.406507 
L 55.552141 29.29621 
L 55.418544 29.185913 
L 55.238132 29.002144 
L 55.057719 28.818376 
L 54.877307 28.634607 
L 54.696894 28.450839 
L 54.556561 28.360612 
L 54.416227 28.270386 
L 54.235815 28.210354 
L 54.068762 28.166898 
L 53.901709 28.123442 
L 53.631091 28.110092 
L 53.360472 28.096742 
L 53.18006 28.103372 
L 52.999647 28.110003 
L 52.829169 28.143423 
L 52.658691 28.176844 
L 52.481647 28.255378 
L 52.304603 28.333912 
L 52.127559 28.412445 
L 51.950515 28.490979 
L 51.716664 28.627977 
L 51.482813 28.764975 
L 51.375907 28.906967 
L 51.269001 29.04896 
L 51.162095 29.190953 
L 51.055189 29.332946 
L 50.948284 29.474938 
L 50.841378 29.616931 
L 50.734472 29.758924 
L 50.627566 29.900917 
L 50.413755 30.0613 
L 50.199943 30.221683 
L 49.986132 30.382066 
L 49.77232 30.542449 
L 49.642006 30.648534 
L 49.511693 30.75462 
L 49.381379 30.860706 
L 49.251065 30.966792 
L 49.120751 31.072877 
L 48.990438 31.178963 
L 48.860124 31.285049 
L 48.72981 31.391135 
L 48.581141 31.498072 
L 48.432472 31.605009 
L 48.283803 31.711946 
L 48.135134 31.818883 
L 47.901283 31.96251 
L 47.667432 32.106138 
L 47.440318 32.216435 
L 47.213204 32.326732 
" style="fill:none;stroke:#ff0000;stroke-linecap:square;stroke-width:0.4;"/>
   </g>
   <g id="line2d_7">
    <path clip-path="url(#p9fbfa65dfb)" d="M 8.17789 12.47418 
L 8.328386 12.338795 
L 8.478882 12.203411 
L 8.62915 12.113273 
L 8.779417 12.023136 
L 8.945585 11.977194 
L 9.111753 11.931252 
L 9.277921 11.88531 
L 9.444089 11.839368 
L 9.610256 11.793426 
L 9.776424 11.747484 
L 9.942592 11.701542 
L 10.10876 11.655599 
L 10.265765 11.572003 
L 10.422769 11.488407 
L 10.644916 11.296306 
L 10.867063 11.104204 
L 11.08921 10.912103 
L 11.311357 10.720002 
L 11.518432 10.620591 
L 11.725507 10.521181 
L 11.932581 10.42177 
L 12.139656 10.322359 
L 12.346731 10.222949 
L 12.553805 10.123538 
L 12.76088 10.024128 
L 12.967955 9.924717 
L 13.111599 9.759316 
L 13.255244 9.593916 
L 13.398889 9.428515 
L 13.542534 9.263115 
L 13.671106 9.166213 
L 13.799679 9.069311 
L 13.928251 8.972409 
L 14.056824 8.875507 
L 14.208804 8.77529 
L 14.360784 8.675073 
L 14.512765 8.574856 
L 14.664745 8.474639 
L 14.903049 8.395075 
L 15.141354 8.315511 
" style="fill:none;stroke:#008000;stroke-linecap:square;stroke-width:0.4;"/>
   </g>
   <g id="line2d_8">
    <path clip-path="url(#p9fbfa65dfb)" d="M 7.156162 4.707699 
L 7.194785 4.545367 
L 7.233408 4.383035 
L 7.272031 4.220703 
L 7.310654 4.058372 
L 7.349278 3.89604 
L 7.387901 3.733708 
L 7.426524 3.571376 
L 7.465147 3.409044 
L 7.635168 3.243644 
L 7.80519 3.078243 
L 8.017746 2.96481 
L 8.230301 2.851377 
L 8.442857 2.737944 
L 8.655412 2.624512 
L 8.821923 2.58791 
L 8.988433 2.551309 
L 9.154943 2.514707 
L 9.321454 2.478106 
L 9.487964 2.441505 
L 9.654475 2.404903 
L 9.820985 2.368302 
L 9.987495 2.3317 
L 10.251948 2.360014 
L 10.503912 2.441516 
L 10.755875 2.523018 
L 11.007839 2.60452 
L 11.259803 2.686022 
L 11.511766 2.767523 
L 11.76373 2.849025 
L 12.015694 2.930527 
L 12.267657 3.012029 
L 12.519621 3.093531 
L 12.771585 3.175033 
L 13.023548 3.256535 
L 13.275512 3.338037 
L 13.527476 3.419539 
L 13.779439 3.501041 
L 14.031403 3.582543 
L 14.283367 3.664044 
L 14.52738 3.826354 
L 14.771394 3.988663 
L 15.015407 4.150973 
L 15.259421 4.313282 
L 15.377545 4.443246 
L 15.49567 4.57321 
L 15.613794 4.703174 
L 15.731919 4.833138 
L 15.949213 4.932325 
L 16.166507 5.031511 
L 16.257798 5.222896 
L 16.349089 5.41428 
L 16.44038 5.605665 
L 16.531671 5.797049 
" style="fill:none;stroke:#4169e1;stroke-dasharray:1.48,0.64;stroke-dashoffset:0;stroke-width:0.4;"/>
   </g>
   <g id="line2d_9">
    <path clip-path="url(#p9fbfa65dfb)" d="M 14.287477 17.220263 
L 14.248655 17.464332 
L 14.209832 17.708401 
L 14.271263 17.954083 
L 14.332695 18.199765 
L 14.405916 18.341533 
L 14.479137 18.483302 
L 14.552358 18.625071 
L 14.625579 18.76684 
L 14.698801 18.908608 
L 14.772022 19.050377 
L 14.845243 19.192146 
L 14.918464 19.333915 
L 15.055372 19.532377 
L 15.19228 19.73084 
L 15.367097 19.905649 
L 15.541915 20.080457 
L 15.735573 20.2175 
L 15.929231 20.354542 
L 16.122889 20.491584 
L 16.316546 20.628627 
L 16.574034 20.789279 
L 16.831521 20.949931 
L 17.089009 21.110582 
L 17.346496 21.271234 
L 17.573153 21.379918 
L 17.799811 21.488602 
L 17.988901 21.603111 
L 18.137684 21.660857 
L 18.286468 21.718604 
L 18.435251 21.776351 
L 18.584034 21.834098 
L 18.732817 21.891845 
L 18.8816 21.949592 
L 19.030383 22.007339 
L 19.179167 22.065085 
L 19.333887 22.101709 
L 19.488608 22.138333 
L 19.643329 22.174957 
L 19.79805 22.211581 
L 19.952771 22.248204 
L 20.107491 22.284828 
L 20.262212 22.321452 
L 20.416933 22.358076 
L 20.569284 22.420683 
L 20.721636 22.483291 
L 20.873987 22.545898 
L 21.026339 22.608506 
L 21.17869 22.671114 
L 21.331042 22.733721 
L 21.483393 22.796329 
L 21.635744 22.858937 
L 21.93097 22.932184 
L 22.226196 23.005432 
L 22.521421 23.078679 
L 22.816647 23.151927 
L 23.050498 23.234582 
L 23.284349 23.317238 
L 23.5182 23.399893 
L 23.752051 23.482549 
L 23.995322 23.525109 
L 24.238594 23.567668 
L 24.481865 23.610228 
L 24.725136 23.652788 
L 24.922362 23.700029 
L 25.119589 23.74727 
L 25.316815 23.794512 
L 25.514041 23.841753 
L 25.711267 23.888994 
L 25.908493 23.936236 
L 26.10572 23.983477 
L 26.302946 24.030718 
L 26.480104 24.009483 
L 26.657262 23.988248 
L 26.83442 23.967013 
L 27.011578 23.945778 
L 27.19142 23.938431 
L 27.371261 23.931084 
L 27.551103 23.923737 
L 27.730944 23.916389 
L 27.910786 23.909042 
L 28.090627 23.901695 
L 28.270469 23.894348 
L 28.45031 23.887001 
L 28.714192 23.927097 
L 28.978074 23.967192 
L 29.241956 24.007288 
L 29.505837 24.047384 
L 29.726329 24.154276 
L 29.94682 24.261168 
L 30.013733 24.471458 
L 30.080645 24.681748 
" style="fill:none;stroke:#008000;stroke-linecap:square;stroke-width:0.4;"/>
   </g>
   <g id="line2d_10">
    <path clip-path="url(#p9fbfa65dfb)" d="M 4.059006 11.300786 
L 4.056265 11.471741 
L 4.149897 11.612054 
L 4.310213 11.618684 
L 4.462193 11.565238 
L 4.614174 11.511792 
L 4.766154 11.458346 
L 4.918134 11.4049 
L 5.081762 11.378199 
L 5.245389 11.351499 
L 5.495911 11.348184 
L 5.746433 11.344868 
L 5.956819 11.373272 
L 6.167205 11.401675 
L 6.377591 11.430078 
L 6.587977 11.458481 
L 6.735675 11.545526 
L 6.883374 11.632572 
L 7.031072 11.719618 
L 7.178771 11.806664 
L 7.377681 11.966689 
L 7.576592 12.126713 
L 7.726916 12.21358 
L 7.877241 12.300447 
L 8.027566 12.387313 
L 8.17789 12.47418 
L 8.307319 12.565236 
L 8.436748 12.656291 
L 8.566177 12.747346 
L 8.695605 12.838402 
L 8.825034 12.929457 
L 8.954463 13.020513 
L 9.083892 13.111568 
L 9.213321 13.202624 
L 9.384484 13.251903 
L 9.555647 13.301183 
L 9.726811 13.350463 
L 9.897974 13.399742 
L 10.069138 13.449022 
L 10.240301 13.498302 
L 10.411465 13.547582 
L 10.582628 13.596861 
L 10.78976 13.670378 
L 10.996892 13.743894 
L 11.204023 13.81741 
L 11.411155 13.890927 
L 11.585516 13.846127 
L 11.759876 13.801327 
L 11.934237 13.756528 
L 12.108598 13.711728 
L 12.285756 13.709353 
L 12.462914 13.706979 
L 12.640072 13.704605 
L 12.81723 13.70223 
L 13.048683 13.673917 
L 13.280137 13.645603 
L 13.506908 13.569981 
L 13.724088 13.466046 
L 13.894224 13.314802 
L 14.054768 13.144742 
L 14.174605 12.969889 
L 14.294443 12.795036 
L 14.41428 12.620182 
L 14.534117 12.445329 
L 14.55901 12.209055 
L 14.583902 11.972782 
L 14.583902 11.712898 
L 14.583902 11.453015 
L 14.583902 11.193132 
L 14.583902 10.933249 
L 14.614589 10.782049 
L 14.645276 10.63085 
L 14.675964 10.479651 
L 14.706651 10.328452 
L 14.737338 10.177253 
L 14.768025 10.026054 
L 14.798713 9.874855 
L 14.8294 9.723656 
L 14.817068 9.532271 
L 14.804736 9.340887 
L 14.902136 9.106943 
L 14.999536 8.872999 
L 15.070445 8.594255 
L 15.141354 8.315511 
L 15.231103 8.157189 
L 15.320852 7.998866 
L 15.410602 7.840544 
L 15.500351 7.682222 
L 15.689099 7.443977 
L 15.877847 7.205732 
L 16.005449 7.083877 
L 16.133051 6.962021 
L 16.260653 6.840166 
L 16.388255 6.718311 
L 16.596072 6.623873 
L 16.77323 6.595515 
L 16.950388 6.567157 
L 17.127546 6.538798 
L 17.304704 6.51044 
" style="fill:none;stroke:#008000;stroke-linecap:square;stroke-width:0.4;"/>
   </g>
   <g id="line2d_11">
    <path clip-path="url(#p9fbfa65dfb)" d="M 15.367668 12.138003 
L 15.457817 12.001005 
L 15.547967 11.864008 
L 15.638116 11.72701 
L 15.728265 11.590013 
L 15.891121 11.592521 
L 16.053978 11.59503 
L 16.216834 11.597539 
L 16.379691 11.600048 
L 16.542547 11.602557 
L 16.705404 11.605065 
L 16.86826 11.607574 
L 17.031117 11.610083 
L 17.313325 11.721993 
L 17.595534 11.833902 
L 17.877742 11.945812 
L 18.15995 12.057722 
L 18.347043 12.174649 
L 18.534135 12.291576 
L 18.721227 12.408504 
L 18.90832 12.525431 
L 19.11037 12.59393 
L 19.312421 12.662429 
L 19.514471 12.730927 
L 19.716522 12.799426 
L 19.863478 13.02665 
L 20.010434 13.253875 
L 20.179142 13.334066 
L 20.347851 13.414258 
L 20.516559 13.494449 
L 20.685268 13.574641 
L 20.805505 13.699945 
L 20.925742 13.82525 
L 21.045979 13.950555 
L 21.166215 14.07586 
L 21.278117 14.249616 
L 21.390018 14.423372 
L 21.50192 14.597127 
L 21.613821 14.770883 
L 21.725722 14.944639 
L 21.837624 15.118395 
L 21.949525 15.29215 
L 22.061427 15.465906 
L 22.275295 15.622884 
L 22.489164 15.779863 
L 22.763893 15.917442 
L 23.038622 16.055022 
L 23.313352 16.192602 
L 23.588081 16.330182 
L 23.714455 16.451858 
L 23.84083 16.573535 
L 23.967204 16.695211 
L 24.093578 16.816887 
L 24.219953 16.938563 
L 24.346327 17.060239 
L 24.472702 17.181915 
L 24.599076 17.303591 
L 24.816256 17.426521 
L 25.043027 17.426521 
L 25.269799 17.426521 
L 25.505934 17.502143 
L 25.644126 17.573017 
L 25.782319 17.64389 
L 25.920511 17.714763 
L 26.058704 17.785636 
L 26.196896 17.856509 
L 26.335089 17.927382 
L 26.473281 17.998256 
L 26.611474 18.069129 
L 26.849521 18.148245 
L 27.087569 18.227361 
L 27.325616 18.306478 
L 27.563663 18.385594 
L 27.801711 18.46471 
L 28.039758 18.543827 
L 28.277805 18.622943 
L 28.515853 18.702059 
L 28.659954 18.97377 
L 28.804056 19.24548 
L 28.948157 19.51719 
L 29.092259 19.788901 
L 29.199736 19.901124 
L 29.307212 20.013347 
L 29.414689 20.125571 
L 29.522166 20.237794 
L 29.629643 20.350017 
L 29.737119 20.462241 
L 29.844596 20.574464 
L 29.952073 20.686687 
L 30.04639 20.913553 
L 30.03577 21.102339 
L 30.025151 21.291125 
L 30.014532 21.479911 
L 30.003913 21.668697 
" style="fill:none;stroke:#4169e1;stroke-dasharray:1.48,0.64;stroke-dashoffset:0;stroke-width:0.4;"/>
   </g>
   <g id="line2d_12">
    <path clip-path="url(#p9fbfa65dfb)" d="M 10.422769 11.488407 
L 10.584769 11.478394 
L 10.746769 11.468381 
L 10.908769 11.458369 
L 11.070769 11.448356 
L 11.232769 11.438343 
L 11.39477 11.42833 
L 11.55677 11.418318 
L 11.71877 11.408305 
L 11.903321 11.409963 
L 12.087873 11.41162 
L 12.272425 11.413278 
L 12.456976 11.414935 
L 12.641528 11.416593 
L 12.82608 11.41825 
L 13.010631 11.419908 
L 13.195183 11.421566 
L 13.42892 11.338059 
L 13.662657 11.254552 
L 13.899819 11.204466 
L 14.136982 11.15438 
L 14.360442 11.043814 
L 14.583902 10.933249 
" style="fill:none;stroke:#008000;stroke-linecap:square;stroke-width:0.4;"/>
   </g>
   <g id="line2d_13">
    <path clip-path="url(#p9fbfa65dfb)" d="M 59.35222 31.307628 
L 59.61222 31.688112 
L 60.174581 32.905455 
L 60.820184 34.215399 
L 61.371469 35.247854 
L 62.25315 36.182466 
L 62.591765 36.603628 
L 63.051189 37.502714 
L 64.168633 40.484225 
L 64.635336 41.352444 
L 68.670637 45.935994 
L 68.727273 46.181676 
L 68.037481 46.200581 
L 66.396298 46.033837 
L 65.221334 45.832059 
L 63.373419 45.635254 
L 61.757643 45.044838 
L 59.91972 44.518531 
L 58.802077 43.857287 
L 57.892707 43.089778 
L 57.284785 42.408105 
L 55.66427 41.63961 
L 54.36964 41.168497 
L 53.572856 40.744153 
L 52.082798 39.678323 
L 51.372852 39.50459 
L 49.593849 39.23055 
L 48.825269 39.387707 
L 48.825269 39.387707 
" style="fill:none;stroke:#4169e1;stroke-linecap:square;stroke-width:0.4;"/>
   </g>
   <g id="line2d_14">
    <path clip-path="url(#p9fbfa65dfb)" d="M 14.269665 13.522852 
L 14.467205 13.389349 
L 14.664745 13.255846 
L 14.862285 13.122343 
L 15.059825 12.988839 
L 15.281915 12.884814 
L 15.504005 12.780789 
L 15.681106 12.759554 
L 15.858207 12.738319 
L 16.035309 12.717084 
L 16.21241 12.695849 
L 16.415545 12.601322 
L 16.61868 12.506794 
L 16.76518 12.322488 
L 16.911679 12.138182 
L 16.961293 11.975156 
L 17.010906 11.81213 
L 17.060519 11.649103 
L 17.110133 11.486077 
L 17.119496 11.249893 
L 17.005996 11.042022 
L 16.868417 10.935701 
L 16.730838 10.82938 
L 16.59326 10.723059 
L 16.455681 10.616738 
L 16.318102 10.510418 
L 16.180523 10.404097 
L 16.042945 10.297776 
L 15.905366 10.191455 
L 15.767787 10.085134 
L 15.630208 9.978813 
L 15.49263 9.872492 
L 15.355051 9.766171 
L 15.217472 9.65985 
L 15.079893 9.553529 
L 14.942315 9.447208 
L 14.804736 9.340887 
" style="fill:none;stroke:#008000;stroke-linecap:square;stroke-width:0.4;"/>
   </g>
   <g id="line2d_15">
    <path clip-path="url(#p9fbfa65dfb)" d="M 59.531948 31.468369 
L 59.412396 31.62481 
L 59.292844 31.781251 
L 59.063989 31.966699 
L 58.835133 32.152148 
L 58.606278 32.337596 
L 58.377422 32.523045 
L 58.148567 32.708493 
L 57.919711 32.893942 
L 57.690856 33.07939 
L 57.462 33.264839 
L 57.251557 33.458642 
L 57.041114 33.652446 
L 56.912485 33.751856 
L 56.783855 33.851267 
L 56.655226 33.950678 
L 56.526596 34.050088 
L 56.397967 34.149499 
L 56.269337 34.248909 
L 56.140708 34.34832 
L 56.012078 34.447731 
L 55.881793 34.574693 
L 55.751508 34.701656 
L 55.549343 34.836951 
L 55.347178 34.972246 
L 55.145014 35.107541 
L 54.942849 35.242836 
L 54.81088 35.358957 
L 54.67891 35.475078 
L 54.546941 35.591199 
L 54.414971 35.70732 
L 54.283002 35.823441 
L 54.151033 35.939562 
L 54.019063 36.055683 
L 53.887094 36.171803 
L 53.711705 36.27538 
L 53.536317 36.378957 
L 53.360929 36.482534 
L 53.185541 36.586111 
L 52.985089 36.729784 
L 52.784637 36.873457 
L 52.584185 37.01713 
L 52.383733 37.160802 
L 52.226728 37.301115 
L 52.069724 37.441428 
L 51.912719 37.581741 
L 51.755715 37.722053 
L 51.598653 37.820658 
L 51.441592 37.919262 
L 51.28453 38.017866 
L 51.127469 38.11647 
L 50.913657 38.281826 
L 50.699845 38.447182 
L 50.486034 38.612538 
L 50.272222 38.777893 
L 50.162776 38.886891 
L 50.05333 38.995889 
L 49.943883 39.104887 
L 49.834437 39.213884 
" style="fill:none;stroke:#ff0000;stroke-linecap:square;stroke-width:0.4;"/>
   </g>
   <g id="line2d_16">
    <path clip-path="url(#p9fbfa65dfb)" d="M 63.345273 38.37147 
L 63.165774 38.551028 
L 63.028638 38.74949 
L 62.891501 38.947953 
L 62.784025 39.060176 
L 62.676548 39.1724 
L 62.569071 39.284623 
L 62.461594 39.396846 
L 62.354118 39.50907 
L 62.246641 39.621293 
L 62.139164 39.733516 
L 62.031688 39.84574 
L 61.911165 39.987486 
L 61.790643 40.129232 
L 61.670121 40.270979 
L 61.549598 40.412725 
L 61.379577 40.582874 
L 61.209555 40.753024 
L 61.058374 40.970392 
L 60.933113 41.178308 
L 60.807852 41.386223 
L 60.682591 41.594139 
L 60.55733 41.802054 
L 60.456933 42.059563 
L 60.356535 42.317072 
L 60.256138 42.574581 
L 60.155741 42.83209 
L 60.055344 43.089599 
L 59.954946 43.347107 
L 59.854549 43.604616 
L 59.754152 43.862125 
L 59.593493 44.070085 
L 59.432835 44.278046 
L 59.293472 44.398512 
L 59.154109 44.518979 
L 59.014746 44.639445 
L 58.875383 44.759912 
L 58.740702 44.906407 
L 58.606021 45.052902 
L 58.47134 45.199397 
L 58.336658 45.345892 
L 58.194897 45.466403 
L 58.053137 45.586915 
L 57.911376 45.707426 
L 57.769615 45.827937 
L 57.637332 45.96498 
L 57.505048 46.102022 
L 57.372765 46.239064 
L 57.240481 46.376107 
L 57.046709 46.513104 
L 56.852937 46.650102 
L 56.673438 46.720975 
L 56.493939 46.791848 
" style="fill:none;stroke:#ff0000;stroke-linecap:square;stroke-width:0.4;"/>
   </g>
   <g id="line2d_17">
    <path clip-path="url(#p9fbfa65dfb)" d="M 14.383621 16.654174 
L 14.614047 16.821277 
L 14.844472 16.98838 
L 14.987261 17.066063 
L 15.130049 17.143745 
L 15.272838 17.221428 
L 15.415626 17.299111 
L 15.558415 17.376794 
L 15.701203 17.454476 
L 15.843991 17.532159 
L 15.98678 17.609842 
L 16.168819 17.686696 
L 16.350859 17.76355 
L 16.532899 17.840404 
L 16.714938 17.917258 
L 16.896978 17.994112 
L 17.079017 18.070966 
L 17.261057 18.147819 
L 17.443096 18.224673 
L 17.686939 18.361671 
L 17.930781 18.498669 
L 18.174623 18.635666 
L 18.418466 18.772664 
L 18.709067 18.873732 
L 18.999668 18.9748 
L 19.290269 19.075868 
L 19.58087 19.176936 
L 19.871471 19.278005 
L 20.162072 19.379073 
L 20.452673 19.480141 
L 20.743274 19.581209 
L 20.896111 19.659721 
L 21.048947 19.738232 
L 21.201784 19.816744 
L 21.354621 19.895255 
L 21.507458 19.973767 
L 21.660294 20.052278 
L 21.813131 20.13079 
L 21.965968 20.209301 
L 22.246521 20.327931 
L 22.527073 20.446561 
L 22.807626 20.56519 
L 23.088179 20.68382 
L 23.243528 20.703868 
L 23.398876 20.723916 
L 23.554225 20.743964 
L 23.709574 20.764012 
L 23.864923 20.78406 
L 24.020272 20.804107 
L 24.17562 20.824155 
L 24.330969 20.844203 
L 24.543068 20.91772 
L 24.755167 20.991236 
L 24.967266 21.064752 
L 25.179364 21.138269 
L 25.363088 21.275266 
L 25.546812 21.412264 
L 25.730536 21.549261 
L 25.91426 21.686259 
L 26.107175 21.803209 
L 26.300091 21.920158 
L 26.493007 22.037108 
L 26.685923 22.154058 
L 26.878838 22.271007 
L 27.071754 22.387957 
L 27.26467 22.504907 
L 27.457585 22.621856 
L 27.694748 22.711993 
L 27.93191 22.802131 
L 28.165761 22.945848 
L 28.399612 23.089566 
L 28.625071 23.199818 
L 28.850529 23.31007 
L 29.075988 23.420322 
L 29.301446 23.530574 
L 29.403642 23.788979 
L 29.505837 24.047384 
" style="fill:none;stroke:#008000;stroke-linecap:square;stroke-width:0.4;"/>
   </g>
   <g id="line2d_18">
    <path clip-path="url(#p9fbfa65dfb)" d="M 17.304704 6.51044 
L 17.434533 6.301405 
L 17.564361 6.092369 
L 17.739064 5.908063 
L 17.913767 5.723757 
L 18.140539 5.600916 
L 18.367311 5.478075 
L 18.594082 5.440264 
L 18.820854 5.402453 
L 19.052307 5.463918 
L 19.28376 5.525384 
L 19.496373 5.634068 
L 19.708985 5.742752 
L 19.949859 5.934092 
L 20.190732 6.125431 
L 20.431606 6.316771 
L 20.672479 6.50811 
L 20.899251 6.612225 
L 21.07167 6.659466 
L 21.24409 6.706708 
L 21.416509 6.753949 
L 21.588929 6.80119 
L 21.761348 6.848432 
L 21.933768 6.895673 
L 22.106187 6.942914 
L 22.278607 6.990156 
L 22.543288 7.141399 
L 22.647196 7.283146 
L 22.751104 7.424892 
L 22.855013 7.566638 
L 22.958921 7.708385 
L 23.043932 7.871411 
L 23.128943 8.034437 
L 23.213954 8.197463 
L 23.298964 8.36049 
L 23.497418 8.530549 
L 23.636196 8.618559 
L 23.774974 8.706568 
L 23.913751 8.794577 
L 24.052529 8.882586 
L 24.191307 8.970595 
L 24.330084 9.058604 
L 24.468862 9.146613 
L 24.60764 9.234622 
L 24.746417 9.322631 
L 24.885195 9.41064 
L 25.023973 9.498649 
L 25.162751 9.586658 
L 25.301528 9.674667 
L 25.440306 9.762676 
L 25.579084 9.850686 
L 25.717861 9.938695 
L 25.916201 10.019065 
L 26.11454 10.099436 
L 26.287645 10.187691 
L 26.46075 10.275947 
" style="fill:none;stroke:#008000;stroke-linecap:square;stroke-width:0.4;"/>
   </g>
   <g id="line2d_19">
    <path clip-path="url(#p9fbfa65dfb)" d="M 4.918134 11.4049 
L 5.002289 11.248818 
L 5.086443 11.092736 
L 5.170598 10.936653 
L 5.254752 10.780571 
L 5.389376 10.669513 
L 5.524 10.558454 
L 5.658625 10.447396 
L 5.793249 10.336337 
L 5.982168 10.109516 
L 6.171087 9.882695 
L 6.360007 9.655874 
L 6.548926 9.429053 
L 6.723686 9.268401 
L 6.898446 9.107749 
L 7.073207 8.947097 
L 7.247967 8.786446 
L 7.459352 8.631707 
L 7.670737 8.476969 
L 7.882122 8.322231 
L 8.093507 8.167492 
L 8.304893 8.012754 
L 8.516278 7.858016 
L 8.727663 7.703278 
L 8.939048 7.548539 
L 9.153944 7.42095 
L 9.368841 7.29336 
L 9.583737 7.165771 
L 9.798633 7.038181 
L 9.970425 6.959893 
L 10.142216 6.881606 
L 10.314008 6.803318 
L 10.485799 6.725031 
L 10.657591 6.646743 
L 10.829382 6.568456 
L 11.001174 6.490168 
L 11.172965 6.411881 
L 11.346583 6.376444 
L 11.520202 6.341007 
L 11.69382 6.305571 
L 11.867439 6.270134 
L 12.041057 6.234698 
L 12.214676 6.199261 
L 12.388294 6.163825 
L 12.561912 6.128388 
L 12.720144 6.058097 
L 12.878376 5.987806 
L 13.036608 5.917516 
L 13.19484 5.847225 
L 13.353072 5.776934 
L 13.511304 5.706643 
L 13.669536 5.636353 
L 13.827768 5.566062 
L 13.986 5.495771 
L 14.144232 5.42548 
L 14.302464 5.355189 
L 14.460696 5.284899 
L 14.618928 5.214608 
L 14.77716 5.144317 
L 14.935392 5.074026 
L 15.093624 5.003736 
" style="fill:none;stroke:#4169e1;stroke-linecap:square;stroke-width:0.4;"/>
   </g>
   <g id="line2d_20">
    <path clip-path="url(#p9fbfa65dfb)" d="M 12.561912 6.128388 
L 12.842922 6.239402 
L 13.123931 6.350415 
L 13.404941 6.461429 
L 13.68595 6.572443 
L 13.874927 6.572443 
L 14.063903 6.572443 
L 14.252879 6.572443 
L 14.441856 6.572443 
L 14.673309 6.629159 
L 14.904762 6.685876 
L 15.148033 6.81584 
L 15.391305 6.945804 
L 15.634576 7.075768 
L 15.877847 7.205732 
" style="fill:none;stroke:#008000;stroke-linecap:square;stroke-width:0.4;"/>
   </g>
   <g id="line2d_21">
    <path clip-path="url(#p9fbfa65dfb)" d="M 14.287477 17.220263 
L 14.335549 16.937219 
L 14.383621 16.654174 
L 14.422901 16.453426 
L 14.462181 16.252679 
L 14.50146 16.051931 
L 14.54074 15.851184 
L 14.832312 15.765213 
L 15.123883 15.679242 
L 15.415455 15.593272 
L 15.707026 15.507301 
L 15.870711 15.527371 
L 16.034395 15.547442 
L 16.198079 15.567512 
L 16.361764 15.587582 
L 16.516256 15.646886 
L 16.670749 15.706189 
L 16.825241 15.765493 
L 16.979733 15.824797 
L 17.134226 15.8841 
L 17.288718 15.943404 
L 17.443211 16.002708 
L 17.597703 16.062011 
L 17.752196 16.121315 
L 17.906688 16.180619 
L 18.06118 16.239922 
L 18.215673 16.299226 
L 18.370165 16.358529 
L 18.524658 16.417833 
L 18.67915 16.477137 
L 18.833642 16.53644 
L 19.080825 16.544796 
L 19.328007 16.553151 
L 19.575189 16.561506 
L 19.822371 16.569861 
L 20.069553 16.578216 
L 20.316735 16.586571 
L 20.563918 16.594926 
L 20.8111 16.603282 
L 21.068302 16.676798 
L 21.325504 16.750314 
L 21.582706 16.823831 
L 21.839907 16.897347 
L 21.986864 16.994204 
L 22.13382 17.091061 
L 22.280776 17.187918 
L 22.427732 17.284775 
L 22.584737 17.485254 
L 22.741741 17.685733 
L 22.898746 17.886211 
L 23.05575 18.08669 
L 23.267849 18.22035 
L 23.479948 18.35401 
L 23.692047 18.48767 
L 23.904145 18.62133 
L 24.116244 18.75499 
L 24.328343 18.88865 
L 24.540442 19.02231 
L 24.752541 19.15597 
L 24.926273 19.16932 
L 25.100006 19.182671 
L 25.273738 19.196021 
L 25.447471 19.209371 
L 25.609471 19.180968 
L 25.771471 19.152565 
L 25.933471 19.124162 
L 26.095471 19.095759 
L 26.257472 19.067356 
L 26.419472 19.038953 
L 26.581472 19.01055 
L 26.743472 18.982147 
L 26.977323 19.069059 
L 27.211174 19.15597 
L 27.339775 19.262885 
L 27.468376 19.369799 
L 27.596977 19.476714 
L 27.725578 19.583628 
L 27.854179 19.690543 
L 27.98278 19.797457 
L 28.111381 19.904372 
L 28.239982 20.011287 
L 28.473833 20.148284 
L 28.707684 20.285282 
L 28.941535 20.422279 
L 29.175386 20.559277 
L 29.278952 20.697954 
L 29.382518 20.836632 
L 29.486083 20.97531 
L 29.589649 21.113987 
L 29.693215 21.252665 
L 29.796781 21.391342 
L 29.900347 21.53002 
L 30.003913 21.668697 
L 30.027292 21.895899 
L 30.050672 22.123101 
L 30.074051 22.350303 
L 30.09743 22.577505 
L 30.12081 22.804707 
L 30.144189 23.031908 
L 30.167569 23.25911 
L 30.190948 23.486312 
L 30.129916 23.680026 
L 30.068884 23.87374 
L 30.007852 24.067454 
L 29.94682 24.261168 
" style="fill:none;stroke:#4169e1;stroke-dasharray:1.48,0.64;stroke-dashoffset:0;stroke-width:0.4;"/>
   </g>
   <g id="line2d_22">
    <path clip-path="url(#p9fbfa65dfb)" d="M 4.059006 11.300786 
L 4.148241 11.075757 
L 4.237477 10.850727 
L 4.326713 10.625698 
L 4.415948 10.400669 
L 4.541095 10.197458 
L 4.666242 9.994246 
L 4.791389 9.791035 
L 4.916536 9.587823 
L 5.037001 9.455529 
L 5.157466 9.323236 
L 5.277932 9.190942 
L 5.398397 9.058649 
L 5.53776 8.794017 
L 5.677123 8.529385 
L 5.816486 8.264753 
L 5.955848 8.000121 
L 6.055018 7.789876 
L 6.154188 7.57963 
L 6.253358 7.369385 
L 6.352527 7.15914 
L 6.4328 6.941772 
L 6.513072 6.724404 
L 6.550981 6.497538 
L 6.553151 6.209475 
L 6.55532 5.921413 
L 6.630425 5.769699 
L 6.705531 5.617985 
L 6.780636 5.46627 
L 6.855741 5.314556 
L 6.930846 5.162842 
L 7.005952 5.011128 
L 7.081057 4.859413 
L 7.156162 4.707699 
" style="fill:none;stroke:#4169e1;stroke-linecap:square;stroke-width:0.4;"/>
   </g>
   <g id="line2d_23">
    <path clip-path="url(#p9fbfa65dfb)" d="M 14.209832 17.708401 
L 14.101927 17.851402 
L 13.994022 17.994403 
L 13.927224 18.154786 
L 13.860425 18.315169 
L 13.796938 18.572454 
L 13.733451 18.829739 
L 13.669965 19.087023 
L 13.606478 19.344308 
L 13.593118 19.524762 
L 13.579758 19.705215 
L 13.593118 19.878948 
L 13.606478 20.052682 
L 13.653179 20.206434 
L 13.699881 20.360187 
L 13.773416 20.53392 
L 13.846951 20.707654 
L 13.940469 20.854642 
L 14.033987 21.001629 
L 14.127504 21.148617 
L 14.221022 21.295605 
L 14.341259 21.415937 
L 14.461496 21.536269 
L 14.60514 21.623136 
L 14.748785 21.710003 
L 14.89243 21.796869 
L 15.036075 21.883736 
L 15.233158 21.95891 
L 15.430242 22.034084 
L 15.627325 22.109258 
L 15.824409 22.184432 
L 16.021492 22.259606 
L 16.218576 22.33478 
L 16.415659 22.409954 
L 16.612743 22.485128 
L 16.786418 22.485128 
L 16.960094 22.485128 
L 17.113673 22.445077 
L 17.267251 22.405026 
L 17.394225 22.298044 
L 17.521199 22.191062 
L 17.638125 22.044074 
L 17.75505 21.897086 
L 17.871976 21.750098 
L 17.988901 21.603111 
" style="fill:none;stroke:#008000;stroke-linecap:square;stroke-width:0.4;"/>
   </g>
   <g id="line2d_24">
    <path clip-path="url(#p9fbfa65dfb)" d="M 49.042221 17.189083 
L 48.80757 17.320996 
L 48.57292 17.452908 
L 48.33827 17.584821 
L 48.103619 17.716734 
L 47.868969 17.848647 
L 47.634318 17.98056 
L 47.399668 18.112472 
L 47.165018 18.244385 
L 47.006757 18.348321 
L 46.848497 18.452256 
L 46.690236 18.556191 
L 46.531976 18.660127 
L 46.402033 18.76292 
L 46.27209 18.865713 
L 46.142148 18.968506 
L 46.012205 19.071299 
L 45.882262 19.174092 
L 45.75232 19.276885 
L 45.622377 19.379678 
L 45.492435 19.482471 
L 45.296379 19.683263 
L 45.100323 19.884055 
L 44.904267 20.084848 
L 44.708211 20.28564 
L 44.584206 20.389598 
L 44.460201 20.493556 
L 44.336196 20.597513 
L 44.212191 20.701471 
L 44.088186 20.805429 
L 43.964181 20.909387 
L 43.840176 21.013345 
L 43.716171 21.117302 
L 43.607496 21.238978 
L 43.49882 21.360654 
L 43.390144 21.482331 
L 43.281469 21.604007 
L 43.172793 21.725683 
L 43.064117 21.847359 
L 42.955442 21.969035 
L 42.846766 22.090711 
L 42.705062 22.284425 
L 42.563359 22.478139 
L 42.427022 22.610209 
L 42.290685 22.742278 
" style="fill:none;stroke:#000000;stroke-linecap:square;stroke-width:0.4;"/>
   </g>
   <g id="line2d_25">
    <path clip-path="url(#p9fbfa65dfb)" d="M 14.54074 15.851184 
L 14.465892 15.682558 
L 14.391043 15.513931 
L 14.316195 15.345305 
L 14.241347 15.176679 
L 14.212915 14.945154 
L 14.184483 14.713629 
L 14.205778 14.415935 
L 14.227074 14.118241 
L 14.248369 13.820546 
L 14.269665 13.522852 
L 14.335778 13.253471 
L 14.401891 12.984091 
L 14.468004 12.71471 
L 14.534117 12.445329 
" style="fill:none;stroke:#008000;stroke-linecap:square;stroke-width:0.4;"/>
   </g>
   <g id="line2d_26">
    <path clip-path="url(#p9fbfa65dfb)" d="M 41.972337 35.615212 
L 42.137334 35.6222 
L 42.302332 35.629189 
L 42.462762 35.699435 
L 42.623192 35.769681 
L 42.855387 35.888266 
L 43.087582 36.006851 
L 43.319778 36.125436 
L 43.551973 36.244021 
L 43.713145 36.341751 
L 43.874318 36.439482 
L 44.03549 36.537212 
L 44.196662 36.634943 
L 44.357834 36.732674 
L 44.519007 36.830404 
L 44.680179 36.928135 
L 44.841351 37.025866 
L 44.99503 37.096873 
L 45.148709 37.167881 
L 45.302388 37.238888 
L 45.456067 37.309896 
L 45.609746 37.380903 
L 45.763424 37.451911 
L 45.917103 37.522919 
L 46.070782 37.593926 
L 46.224461 37.664934 
L 46.37814 37.735941 
L 46.531819 37.806949 
L 46.685497 37.877956 
L 46.839176 37.948964 
L 46.992855 38.019972 
L 47.146534 38.090979 
L 47.300213 38.161987 
L 47.555816 38.305659 
L 47.81142 38.449332 
L 48.067023 38.593005 
L 48.322626 38.736678 
L 48.479631 38.933796 
L 48.636635 39.130915 
" style="fill:none;stroke:#4169e1;stroke-linecap:square;stroke-width:0.4;"/>
   </g>
   <g id="line2d_27">
    <path clip-path="url(#p9fbfa65dfb)" d="M 64.396004 42.757722 
L 64.187673 42.903052 
L 63.979343 43.048383 
L 63.771012 43.193713 
L 63.562681 43.339043 
L 63.40562 43.430928 
L 63.248558 43.522812 
L 63.091497 43.614696 
L 62.934435 43.70658 
L 62.754022 43.871936 
L 62.57361 44.037292 
L 62.393198 44.202648 
L 62.212785 44.368004 
L 62.089123 44.498371 
L 61.96546 44.628738 
L 61.861552 44.836788 
L 61.757643 45.044838 
L 61.624161 45.274929 
L 61.490679 45.505021 
L 61.357196 45.735112 
L 61.223714 45.965204 
L 61.056661 46.159007 
L 60.889608 46.352811 
L 60.682477 46.556605 
L 60.475345 46.760399 
L 60.268213 46.964193 
L 60.061081 47.167987 
L 59.902364 47.341765 
L 59.743647 47.515543 
L 59.58493 47.689321 
L 59.426212 47.863099 
L 59.297583 48.051885 
L 59.168953 48.240671 
L 59.040324 48.429457 
L 58.911694 48.618244 
L 58.784721 48.731856 
L 58.560918 48.848783 
L 58.337115 48.96571 
" style="fill:none;stroke:#ff0000;stroke-linecap:square;stroke-width:0.4;"/>
   </g>
   <g id="line2d_28">
    <path clip-path="url(#p9fbfa65dfb)" d="M 52.636082 22.143395 
L 52.406342 22.243388 
L 52.167752 22.430024 
L 51.929162 22.61666 
L 51.690572 22.803295 
L 51.451983 22.989931 
L 51.203916 23.167159 
L 50.955848 23.344386 
L 50.707781 23.521614 
L 50.459714 23.698842 
L 50.315613 23.827596 
L 50.171511 23.956351 
L 50.027409 24.085105 
L 49.883308 24.21386 
L 49.739206 24.342614 
L 49.595105 24.471368 
L 49.451003 24.600123 
L 49.306902 24.728877 
L 49.155121 24.851718 
L 49.003341 24.974559 
L 48.85156 25.0974 
L 48.699779 25.220241 
L 48.547999 25.343082 
L 48.396218 25.465922 
L 48.244438 25.588763 
L 48.092657 25.711604 
L 47.940648 25.873667 
L 47.78864 26.03573 
L 47.636631 26.197793 
L 47.484622 26.359856 
L 47.332613 26.521919 
L 47.180604 26.683982 
L 47.028595 26.846045 
L 46.876586 27.008108 
L 46.71627 27.228613 
L 46.555954 27.449117 
L 46.474084 27.634543 
L 46.392213 27.819969 
L 46.310342 28.005395 
L 46.228472 28.190821 
L 46.094875 28.421361 
L 45.961279 28.6519 
L 45.897792 28.815688 
L 45.834305 28.979476 
L 45.794169 29.188287 
L 45.754033 29.397099 
L 45.713897 29.60591 
L 45.673761 29.814722 
L 45.650467 30.021876 
L 45.627173 30.22903 
" style="fill:none;stroke:#ff0000;stroke-linecap:square;stroke-width:0.4;"/>
   </g>
   <g id="line2d_29">
    <path clip-path="url(#p9fbfa65dfb)" d="M 50.620258 18.466592 
L 50.796732 18.710392 
L 50.973205 18.954192 
L 51.149678 19.197992 
L 51.326151 19.441792 
L 51.444675 19.679679 
L 51.563199 19.917566 
L 51.681723 20.155452 
L 51.800247 20.393339 
L 51.918771 20.631225 
L 52.037295 20.869112 
L 52.15582 21.106998 
L 52.274344 21.344885 
L 52.364778 21.544513 
L 52.455213 21.74414 
L 52.545647 21.943768 
L 52.636082 22.143395 
L 52.752722 22.339842 
L 52.869362 22.536289 
L 52.986002 22.732736 
L 53.102642 22.929183 
L 53.190051 23.10697 
L 53.27746 23.284758 
L 53.364868 23.462546 
L 53.452277 23.640333 
L 53.539686 23.818121 
L 53.627094 23.995909 
L 53.714503 24.173697 
L 53.801912 24.351484 
L 53.88932 24.529272 
L 53.976729 24.70706 
L 54.064138 24.884848 
L 54.151546 25.062635 
L 54.238955 25.240423 
L 54.326364 25.418211 
L 54.413772 25.595998 
L 54.501181 25.773786 
L 54.605147 25.915533 
L 54.709112 26.057279 
L 54.813078 26.199025 
L 54.917043 26.340772 
L 55.096542 26.492015 
L 55.366647 26.629506 
L 55.636752 26.766996 
L 55.906857 26.904487 
L 56.176962 27.041977 
L 56.349609 27.166341 
L 56.522257 27.290705 
L 56.665445 27.501712 
L 56.808633 27.712719 
L 56.920306 27.975783 
L 56.929898 28.211967 
L 56.920449 28.369079 
L 56.911 28.526192 
L 56.901552 28.683305 
L 56.892103 28.840417 
L 56.882654 28.99753 
L 56.873205 29.154643 
L 56.863756 29.311755 
L 56.854307 29.468868 
L 56.906262 29.714639 
L 56.958216 29.960411 
L 57.055901 30.089344 
L 57.153587 30.218278 
L 57.251272 30.347211 
L 57.348957 30.476145 
L 57.566251 30.655702 
L 57.783546 30.83526 
L 57.944204 30.913211 
L 58.104863 30.991163 
L 58.265521 31.069114 
L 58.426179 31.147066 
L 58.600997 31.168346 
L 58.775814 31.189626 
L 58.950631 31.210905 
L 59.125449 31.232185 
L 59.35222 31.307628 
" style="fill:none;stroke:#008000;stroke-linecap:square;stroke-width:0.4;"/>
   </g>
   <g id="line2d_30">
    <path clip-path="url(#p9fbfa65dfb)" d="M 41.972108 15.555685 
L 41.750789 15.559022 
L 41.52947 15.56236 
L 41.308151 15.565697 
L 41.086831 15.569035 
L 40.865512 15.572373 
L 40.644193 15.57571 
L 40.422874 15.579048 
L 40.201554 15.582385 
L 40.034616 15.642596 
L 39.827484 15.802979 
L 39.620352 15.963362 
L 39.460036 16.040239 
L 39.299721 16.117115 
L 39.129356 16.137096 
L 38.958992 16.157076 
L 38.784432 16.156662 
L 38.609871 16.156247 
L 38.435311 16.155833 
L 38.260751 16.155419 
L 38.08619 16.155004 
L 37.91163 16.15459 
L 37.737069 16.154175 
L 37.562509 16.153761 
L 37.387948 16.153347 
L 37.213388 16.152932 
L 37.038827 16.152518 
L 36.864267 16.152103 
L 36.689706 16.151689 
L 36.515146 16.151275 
L 36.340586 16.15086 
L 36.166025 16.150446 
L 36.005709 16.210657 
L 35.892209 16.33753 
" style="fill:none;stroke:#008000;stroke-linecap:square;stroke-width:0.4;"/>
   </g>
   <g id="line2d_31">
    <path clip-path="url(#p9fbfa65dfb)" d="M 7.247967 8.786446 
L 7.421528 8.814177 
L 7.59509 8.841908 
L 7.768651 8.869639 
L 7.942212 8.89737 
L 8.112234 8.869011 
L 8.282255 8.840653 
L 8.452277 8.812295 
L 8.622299 8.783937 
L 8.780531 8.702424 
L 8.938763 8.620911 
L 9.096995 8.539397 
L 9.255227 8.457884 
L 9.413458 8.376371 
L 9.57169 8.294858 
L 9.729922 8.213345 
L 9.888154 8.131832 
L 10.054665 8.076303 
L 10.221175 8.020773 
L 10.387686 7.965244 
L 10.554196 7.909715 
L 10.720706 7.854186 
L 10.887217 7.798656 
L 11.053727 7.743127 
L 11.220238 7.687598 
L 11.369021 7.612021 
L 11.517804 7.536443 
L 11.666587 7.460866 
L 11.81537 7.385289 
L 12.051733 7.356797 
L 12.235914 7.354467 
L 12.420095 7.352137 
L 12.604275 7.349808 
L 12.788456 7.347478 
L 12.960875 7.375836 
L 13.133295 7.404195 
L 13.305714 7.432553 
L 13.478134 7.460911 
L 13.704905 7.519957 
L 13.931677 7.579003 
L 14.158448 7.638049 
L 14.38522 7.697095 
L 14.628662 7.881849 
" style="fill:none;stroke:#008000;stroke-linecap:square;stroke-width:0.4;"/>
   </g>
   <g id="line2d_32">
    <path clip-path="url(#p9fbfa65dfb)" d="M 7.178771 11.806664 
L 7.39792 11.711823 
L 7.61707 11.616982 
L 7.83622 11.522141 
L 8.05537 11.4273 
L 8.274519 11.332459 
L 8.493669 11.237618 
L 8.712819 11.142777 
L 8.931969 11.047936 
L 9.080752 10.955783 
L 9.229535 10.86363 
L 9.378318 10.771477 
L 9.527101 10.679324 
L 9.675884 10.587171 
L 9.824668 10.495018 
L 9.973451 10.402865 
L 10.122234 10.310712 
L 10.315892 10.168965 
L 10.50955 10.027219 
L 10.703208 9.885473 
L 10.896865 9.743726 
L 11.090523 9.60198 
L 11.284181 9.460233 
L 11.477839 9.318487 
L 11.671497 9.176741 
L 11.836837 9.084588 
L 12.002177 8.992435 
L 12.167517 8.900282 
L 12.332857 8.808129 
L 12.476345 8.750236 
L 12.619833 8.692344 
L 12.763321 8.634451 
L 12.906808 8.576559 
L 13.050296 8.518666 
L 13.193784 8.460774 
L 13.337272 8.402881 
L 13.48076 8.344989 
L 13.624248 8.287097 
L 13.767735 8.229204 
L 13.911223 8.171312 
L 14.054711 8.113419 
L 14.198199 8.055527 
L 14.341687 7.997634 
L 14.485175 7.939742 
L 14.628662 7.881849 
L 14.846585 7.831942 
L 15.064507 7.782036 
L 15.282429 7.732129 
L 15.500351 7.682222 
" style="fill:none;stroke:#008000;stroke-linecap:square;stroke-width:0.4;"/>
   </g>
   <g id="line2d_33">
    <path clip-path="url(#p9fbfa65dfb)" d="M 65.976782 42.869005 
L 65.835079 43.027237 
L 65.693375 43.18547 
L 65.466603 43.289405 
L 65.299379 43.347869 
L 65.132155 43.406333 
L 64.964931 43.464796 
L 64.797707 43.52326 
L 64.724629 43.615547 
L 64.610044 43.863603 
L 64.495459 44.11166 
L 64.380875 44.359716 
L 64.26629 44.607772 
L 64.223813 44.853453 
L 64.225012 45.085023 
L 64.226211 45.316593 
L 64.22741 45.548163 
L 64.228609 45.779733 
" style="fill:none;stroke:#000000;stroke-linecap:square;stroke-width:0.4;"/>
   </g>
   <g id="line2d_34">
    <path clip-path="url(#p9fbfa65dfb)" d="M 59.853036 32.34734 
L 59.810445 32.594859 
L 59.767854 32.842377 
L 59.725263 33.089896 
L 59.682672 33.337414 
L 59.634258 33.549586 
L 59.585843 33.761757 
L 59.537429 33.973929 
L 59.489014 34.1861 
L 59.397952 34.325607 
L 59.306889 34.465113 
L 59.215826 34.604619 
L 59.124764 34.744126 
L 59.033701 34.883632 
L 58.942638 35.023138 
L 58.851576 35.162645 
L 58.760513 35.302151 
L 58.586781 35.500121 
L 58.413048 35.698091 
L 58.239315 35.896061 
L 58.065583 36.094031 
L 57.89185 36.292001 
L 57.718118 36.489971 
L 57.544385 36.687941 
L 57.370652 36.885911 
L 57.241195 37.080521 
L 57.111738 37.275131 
L 56.98228 37.469741 
L 56.852823 37.664351 
L 56.723366 37.858961 
L 56.593908 38.053571 
L 56.464451 38.248181 
L 56.334994 38.442791 
L 56.211331 38.576474 
L 56.087669 38.710156 
L 55.888045 38.885569 
L 55.688421 39.060983 
L 55.488797 39.236396 
L 55.289172 39.41181 
L 55.089548 39.587223 
L 54.889924 39.762636 
L 54.6903 39.93805 
L 54.490676 40.113463 
L 54.321968 40.190339 
L 54.153259 40.267216 
L 53.984551 40.344092 
L 53.815842 40.420968 
L 53.55904 40.475624 
L 53.302238 40.53028 
" style="fill:none;stroke:#ff0000;stroke-linecap:square;stroke-width:0.4;"/>
   </g>
   <g id="line2d_35">
    <path clip-path="url(#p9fbfa65dfb)" d="M 41.972337 35.615212 
L 41.749219 35.700152 
L 41.526101 35.785092 
L 41.412601 36.00246 
L 41.40792 36.248232 
L 41.403238 36.494003 
L 41.441034 36.668812 
L 41.478829 36.84362 
L 41.516624 37.018429 
L 41.554419 37.193237 
L 41.719759 37.368091 
L 41.885099 37.542944 
L 42.050439 37.717797 
L 42.215779 37.892651 
L 42.478005 38.034397 
L 42.740231 38.176143 
L 43.002458 38.31789 
L 43.264684 38.459636 
L 43.402876 38.583687 
L 43.541069 38.707737 
L 43.679261 38.831787 
L 43.817454 38.955838 
L 43.955646 39.079888 
L 44.093839 39.203939 
L 44.232031 39.327989 
L 44.370224 39.45204 
L 44.606473 39.532366 
L 44.842721 39.612691 
L 45.07897 39.693017 
L 45.315219 39.773343 
L 45.516014 39.847756 
L 45.716808 39.922168 
L 45.917603 39.99658 
L 46.118397 40.070993 
L 46.319192 40.145405 
L 46.519986 40.219817 
L 46.720781 40.29423 
L 46.921575 40.368642 
L 47.18146 40.458421 
L 47.441346 40.548199 
L 47.625583 40.590714 
L 47.809821 40.633229 
L 47.994059 40.675744 
L 48.178296 40.718259 
L 48.342951 40.54587 
" style="fill:none;stroke:#4169e1;stroke-linecap:square;stroke-width:0.4;"/>
   </g>
   <g id="line2d_36">
    <path clip-path="url(#p9fbfa65dfb)" d="M 4.059006 11.300786 
L 3.840684 11.222565 
L 3.622362 11.144345 
L 3.442863 11.002599 
L 3.338955 10.766414 
L 3.322398 10.584483 
L 3.305841 10.402551 
L 3.289284 10.220619 
L 3.272727 10.038688 
L 3.301045 9.802414 
L 3.329363 9.56614 
L 3.397874 9.307556 
L 3.466385 9.048972 
L 3.508948 8.88608 
L 3.55151 8.723188 
L 3.594073 8.560296 
L 3.636635 8.397405 
L 3.679198 8.234513 
L 3.72176 8.071621 
L 3.764323 7.908729 
L 3.806885 7.745837 
L 3.96389 7.533666 
L 4.120894 7.321494 
L 4.277899 7.109323 
L 4.434903 6.897151 
L 4.547632 6.743443 
L 4.660362 6.589736 
L 4.773091 6.436028 
L 4.88582 6.28232 
L 4.998549 6.128612 
L 5.111278 5.974904 
L 5.224008 5.821196 
L 5.336737 5.667488 
L 5.598906 5.518798 
L 5.861075 5.370108 
L 6.123244 5.221417 
L 6.385413 5.072727 
L 6.5781 4.98147 
L 6.770787 4.890213 
L 6.963475 4.798956 
L 7.156162 4.707699 
L 7.310854 4.640365 
L 7.465547 4.573031 
L 7.620239 4.505697 
L 7.774931 4.438363 
L 7.929623 4.371029 
L 8.084316 4.303695 
L 8.239008 4.236361 
L 8.3937 4.169027 
L 8.646449 4.166697 
L 8.899197 4.164368 
L 9.151946 4.162038 
L 9.404695 4.159709 
L 9.63375 4.055728 
L 9.862805 3.951748 
L 10.091861 3.847768 
L 10.320916 3.743788 
L 10.554767 3.710726 
L 10.788618 3.677664 
L 11.022469 3.644601 
L 11.25632 3.611539 
L 11.43816 3.668211 
L 11.62 3.724882 
L 11.801839 3.781554 
L 11.983679 3.838226 
L 12.248246 3.828818 
L 12.512813 3.81941 
L 12.757683 3.936248 
L 13.002553 4.053085 
L 13.247423 4.169923 
L 13.492293 4.286761 
L 13.684352 4.378645 
L 13.876411 4.470529 
L 14.06847 4.562413 
L 14.26053 4.654298 
L 14.468803 4.741657 
L 14.677077 4.829017 
L 14.885351 4.916376 
L 15.093624 5.003736 
L 15.297844 5.093469 
L 15.502064 5.183203 
L 15.706284 5.272937 
L 15.910504 5.362671 
L 16.065796 5.471266 
L 16.221088 5.57986 
L 16.376379 5.688455 
L 16.531671 5.797049 
L 16.724929 5.975397 
L 16.918188 6.153745 
L 17.111446 6.332092 
L 17.304704 6.51044 
" style="fill:none;stroke:#008000;stroke-linecap:square;stroke-width:0.4;"/>
   </g>
   <g id="line2d_37">
    <path clip-path="url(#p9fbfa65dfb)" d="M 26.46075 10.275947 
L 27.434862 11.707186 
L 28.59464 13.525271 
L 29.218319 14.082849 
L 30.711118 14.999586 
L 32.038691 15.457842 
L 33.689408 15.90463 
L 36.102652 16.467897 
L 36.633727 16.678366 
L 37.35041 17.092674 
L 37.702842 17.44686 
L 38.431115 18.168584 
L 39.079172 18.841834 
L 39.760572 19.745714 
L 40.230557 20.091299 
L 41.809737 21.79342 
L 42.970628 24.256688 
L 43.33976 26.073586 
L 43.560309 26.658312 
L 43.974458 27.533699 
L 44.544755 29.282815 
L 44.847403 29.728796 
L 45.284389 30.156454 
L 45.780638 30.317016 
L 46.498634 30.913614 
L 47.065677 31.829097 
L 47.201728 32.542488 
L 47.235698 33.842128 
L 47.62781 34.771857 
L 48.414659 36.265032 
L 48.998031 37.244309 
L 49.10074 37.858603 
L 49.016871 38.945444 
L 48.794896 39.247753 
L 48.794896 39.247753 
" style="fill:none;stroke:#4169e1;stroke-linecap:square;stroke-width:0.4;"/>
   </g>
   <g id="line2d_38">
    <path clip-path="url(#p9fbfa65dfb)" d="M 36.315379 26.24275 
L 36.510864 26.308113 
L 36.706349 26.373475 
L 36.901834 26.438838 
L 37.097319 26.504201 
L 37.351209 26.649531 
L 37.6051 26.794862 
L 37.85899 26.940192 
L 38.112881 27.085522 
L 38.264861 27.291019 
L 38.416842 27.496515 
L 38.568822 27.702011 
L 38.720802 27.907508 
L 38.840011 28.0424 
L 38.959221 28.177292 
L 39.07843 28.312184 
L 39.197639 28.447076 
L 39.316848 28.581968 
L 39.436058 28.71686 
L 39.555267 28.851752 
L 39.674476 28.986644 
L 39.894967 29.117011 
L 40.115459 29.247378 
L 40.282512 29.257413 
L 40.449564 29.267448 
L 40.686784 29.172204 
L 40.924003 29.07696 
L 41.161223 28.981716 
L 41.398443 28.886471 
L 41.56207 28.866401 
L 41.725697 28.846331 
L 41.89275 28.853051 
L 42.059803 28.859771 
L 42.233478 28.903227 
L 42.407154 28.946682 
L 42.600926 29.013479 
L 42.794698 29.080275 
L 42.98847 29.147071 
L 43.182242 29.213868 
L 43.412782 29.312427 
L 43.643321 29.410987 
L 43.873861 29.509546 
L 44.104401 29.608105 
L 44.331515 29.738473 
L 44.558629 29.86884 
L 44.810521 29.925198 
L 45.062414 29.981556 
" style="fill:none;stroke:#ff0000;stroke-linecap:square;stroke-width:0.4;"/>
   </g>
   <g id="line2d_39">
    <path clip-path="url(#p9fbfa65dfb)" d="M 35.695354 26.268734 
L 35.85036 26.262238 
L 36.005367 26.255742 
L 36.160373 26.249246 
L 36.315379 26.24275 
" style="fill:none;stroke:#008000;stroke-linecap:square;stroke-width:0.4;"/>
   </g>
   <g id="line2d_40">
    <path clip-path="url(#p9fbfa65dfb)" d="M 30.080645 24.681748 
L 30.321633 24.685018 
L 30.56262 24.688289 
L 30.803608 24.691559 
L 31.044596 24.69483 
L 31.287924 24.763373 
L 31.531252 24.831917 
L 31.774581 24.90046 
L 32.017909 24.969004 
L 32.239885 25.11075 
L 32.461861 25.252497 
L 32.605962 25.361181 
L 32.750064 25.469865 
L 32.894166 25.578549 
L 33.038267 25.687233 
L 33.248482 25.798247 
L 33.458697 25.909261 
L 33.668911 26.020274 
L 33.879126 26.131288 
L 34.056284 26.162021 
L 34.233443 26.192753 
L 34.410601 26.223486 
L 34.587759 26.254219 
L 34.864658 26.257847 
L 35.141557 26.261476 
L 35.418455 26.265105 
L 35.695354 26.268734 
" style="fill:none;stroke:#008000;stroke-linecap:square;stroke-width:0.4;"/>
   </g>
   <g id="line2d_41">
    <path clip-path="url(#p9fbfa65dfb)" d="M 50.620258 18.466592 
L 50.506873 18.19403 
L 50.393487 17.921469 
L 50.224579 17.829921 
L 50.05567 17.738372 
L 49.886762 17.646824 
L 49.717854 17.555276 
L 49.548945 17.463728 
L 49.380037 17.372179 
L 49.211129 17.280631 
L 49.042221 17.189083 
L 48.831949 17.078024 
L 48.621677 16.966966 
L 48.411405 16.855907 
L 48.201133 16.744849 
L 48.019722 16.677224 
L 47.83831 16.609598 
L 47.656899 16.541973 
L 47.475487 16.474348 
L 47.294075 16.406723 
L 47.112664 16.339098 
L 46.931252 16.271472 
L 46.749841 16.203847 
L 46.540054 16.184919 
L 46.330268 16.165991 
L 46.120481 16.147064 
L 45.910695 16.128136 
L 45.700908 16.109208 
L 45.491121 16.09028 
L 45.281335 16.071352 
L 45.071548 16.052424 
L 44.806982 16.146907 
L 44.542415 16.241389 
L 44.277848 16.335872 
L 44.013281 16.430355 
L 43.869179 16.546117 
L 43.725078 16.66188 
L 43.580976 16.777642 
L 43.436875 16.893405 
L 43.305762 17.071797 
L 43.174649 17.25019 
L 43.043536 17.428582 
L 42.912423 17.606975 
L 42.78131 17.785367 
L 42.650197 17.96376 
L 42.519083 18.142152 
L 42.38797 18.320545 
L 42.265164 18.464666 
L 42.142358 18.608786 
L 42.019552 18.752907 
L 41.896746 18.897028 
L 41.780963 19.081289 
L 41.665179 19.26555 
L 41.549395 19.449812 
L 41.433612 19.634073 
L 41.30778 19.776626 
L 41.181948 19.919178 
" style="fill:none;stroke:#4169e1;stroke-linecap:square;stroke-width:0.4;"/>
   </g>
   <g id="line2d_42">
    <path clip-path="url(#p9fbfa65dfb)" d="M 57.783546 30.83526 
L 57.593428 30.864245 
L 57.403309 30.893231 
L 57.213191 30.922216 
L 57.023073 30.951201 
L 56.845972 30.947886 
L 56.668871 30.944571 
L 56.498507 30.917781 
L 56.328143 30.890991 
L 56.164401 30.835887 
L 56.00066 30.780783 
L 55.836918 30.72568 
L 55.673177 30.670576 
L 55.489453 30.643786 
L 55.305729 30.616995 
L 55.128628 30.616995 
L 54.951527 30.616995 
L 54.777852 30.640381 
L 54.604176 30.663766 
L 54.423764 30.710582 
L 54.243351 30.757398 
L 54.062939 30.804213 
L 53.882526 30.851029 
L 53.724666 30.820117 
L 53.566805 30.789206 
L 53.408944 30.758294 
L 53.251083 30.727382 
L 53.093222 30.69647 
L 52.935361 30.665558 
L 52.7775 30.634646 
L 52.619639 30.603735 
L 52.359069 30.60705 
L 52.098499 30.610365 
L 51.817832 30.653821 
L 51.537165 30.697277 
L 51.373423 30.757398 
L 51.209682 30.817519 
L 50.982568 30.944481 
L 50.755454 31.071444 
L 50.622228 31.15373 
L 50.489003 31.236016 
L 50.355777 31.318302 
L 50.222552 31.400587 
L 50.089326 31.482873 
L 49.956101 31.565159 
L 49.822875 31.647445 
L 49.68965 31.729731 
L 49.556425 31.812017 
L 49.423199 31.894303 
L 49.289974 31.976589 
L 49.156748 32.058875 
L 49.023523 32.141161 
L 48.890297 32.223446 
L 48.757072 32.305732 
L 48.623846 32.388018 
L 48.373324 32.501541 
L 48.122802 32.615063 
L 47.883927 32.758736 
L 47.645052 32.902409 
L 47.406177 33.046082 
L 47.167301 33.189754 
" style="fill:none;stroke:#ff0000;stroke-linecap:square;stroke-width:0.4;"/>
   </g>
   <g id="line2d_43">
    <path clip-path="url(#p9fbfa65dfb)" d="M 50.620258 18.466592 
L 50.810605 18.379725 
L 51.000952 18.292859 
L 51.191298 18.205992 
L 51.381645 18.119125 
L 51.441706 17.82506 
L 51.308109 17.557785 
L 51.174513 17.290509 
L 50.961158 17.080085 
L 50.747803 16.869661 
L 50.534448 16.659236 
L 50.321094 16.448812 
L 50.160264 16.389206 
L 49.999434 16.3296 
L 49.838604 16.269994 
L 49.677775 16.210388 
L 49.516945 16.150782 
L 49.356115 16.091176 
L 49.195286 16.03157 
L 49.034456 15.971964 
L 48.813194 15.943023 
L 48.591932 15.914083 
L 48.37067 15.885142 
L 48.149407 15.856201 
L 47.928145 15.827261 
L 47.706883 15.79832 
L 47.485621 15.769379 
L 47.264359 15.740439 
L 46.993797 15.746352 
L 46.723236 15.752266 
L 46.452674 15.758179 
L 46.182113 15.764093 
L 45.911551 15.770007 
L 45.640989 15.77592 
L 45.370428 15.781834 
L 45.099866 15.787747 
L 44.836156 15.722384 
L 44.572445 15.657022 
L 44.308735 15.591659 
L 44.045024 15.526296 
L 43.854621 15.509586 
L 43.664217 15.492875 
L 43.473814 15.476165 
L 43.28341 15.459455 
L 43.119497 15.471484 
L 42.955585 15.483512 
L 42.791672 15.495541 
L 42.627759 15.50757 
L 42.463846 15.519598 
L 42.299934 15.531627 
L 42.136021 15.543656 
L 41.972108 15.555685 
L 41.883101 15.716023 
L 41.794094 15.876361 
L 41.705087 16.036699 
L 41.616079 16.197038 
L 41.537577 16.466015 
L 41.459075 16.734993 
L 41.380573 17.00397 
L 41.30207 17.272948 
L 41.288711 17.478422 
L 41.275351 17.683896 
L 41.261991 17.88937 
L 41.248632 18.094844 
L 41.235272 18.300318 
L 41.221912 18.505792 
L 41.208553 18.711266 
L 41.195193 18.91674 
L 41.191882 19.167349 
L 41.18857 19.417959 
L 41.185259 19.668569 
L 41.181948 19.919178 
L 41.15186 20.188156 
L 41.121772 20.457134 
L 41.091684 20.726111 
L 41.061597 20.995089 
" style="fill:none;stroke:#000000;stroke-linecap:square;stroke-width:0.4;"/>
   </g>
  </g>
 </g>
 <defs>
  <clipPath id="p9fbfa65dfb">
   <rect height="51.297411" width="72" x="0" y="0"/>
  </clipPath>
 </defs>
</svg>
