<?xml version="1.0" encoding="utf-8" standalone="no"?>
<!DOCTYPE svg PUBLIC "-//W3C//DTD SVG 1.1//EN"
  "http://www.w3.org/Graphics/SVG/1.1/DTD/svg11.dtd">
<svg height="72pt" version="1.1" viewBox="0 0 28.529839 72" width="28.529839pt" xmlns="http://www.w3.org/2000/svg" xmlns:xlink="http://www.w3.org/1999/xlink">
 <metadata>
  <rdf:RDF xmlns:cc="http://creativecommons.org/ns#" xmlns:dc="http://purl.org/dc/elements/1.1/" xmlns:rdf="http://www.w3.org/1999/02/22-rdf-syntax-ns#">
   <cc:Work>
    <dc:type rdf:resource="http://purl.org/dc/dcmitype/StillImage"/>
    <dc:date>2022-05-18T23:23:32.403769</dc:date>
    <dc:format>image/svg+xml</dc:format>
    <dc:creator>
     <cc:Agent>
      <dc:title>Matplotlib v3.4.3, https://matplotlib.org/</dc:title>
     </cc:Agent>
    </dc:creator>
   </cc:Work>
  </rdf:RDF>
 </metadata>
 <defs>
  <style type="text/css">*{stroke-linecap:butt;stroke-linejoin:round;}</style>
 </defs>
 <g id="figure_1">
  <g id="patch_1">
   <path d="M 0 72 
L 28.529839 72 
L 28.529839 0 
L 0 0 
z
" style="fill:#ffffff;"/>
  </g>
  <g id="axes_1">
   <g id="line2d_1">
    <path clip-path="url(#pb827959ae3)" d="M 6.338774 67.307309 
L 6.415333 66.873858 
L 7.092517 63.05615 
L 7.7697 59.238442 
L 8.446884 55.420734 
L 9.124067 51.603026 
L 9.801251 47.785318 
L 10.478434 43.96761 
L 11.155617 40.149902 
L 11.832801 36.332193 
L 12.509984 32.514485 
L 13.187168 28.696777 
L 13.864351 24.879069 
L 14.541535 21.061361 
L 15.218718 17.243653 
L 15.895901 13.425945 
L 16.573085 9.608237 
L 17.250268 5.790529 
" style="fill:none;stroke:#808080;stroke-linecap:square;stroke-width:0.4;"/>
   </g>
   <g id="line2d_2">
    <path clip-path="url(#pb827959ae3)" d="M 4.669057 3.972643 
L 7.523162 4.094625 
L 10.377267 4.216607 
L 13.231371 4.338589 
L 16.085476 4.460571 
" style="fill:none;stroke:#808080;stroke-linecap:square;stroke-width:0.4;"/>
   </g>
   <g id="line2d_3">
    <path clip-path="url(#pb827959ae3)" d="M 17.250268 5.790529 
L 16.952235 4.734142 
L 16.694303 4.189368 
L 16.081831 3.851845 
L 15.097499 3.758286 
L 14.113168 3.664727 
L 13.128837 3.571168 
L 12.144506 3.47761 
L 10.974017 3.426389 
L 9.803529 3.375168 
L 8.633041 3.323948 
L 7.462552 3.272727 
L 6.894739 3.33431 
L 6.423536 3.542745 
L 6.206619 4.074492 
L 6.246721 4.618081 
L 6.860105 5.413924 
L 7.828942 6.12213 
L 8.559444 6.645438 
L 9.289945 7.168747 
L 10.020447 7.692055 
L 10.750948 8.215363 
L 11.481449 8.738672 
L 12.211951 9.26198 
L 12.942452 9.785288 
L 13.672953 10.308596 
L 14.351048 11.254844 
L 14.494141 12.216488 
L 14.370188 12.869032 
L 13.941822 13.293008 
L 13.219979 13.471836 
L 12.262079 13.555921 
L 11.304179 13.640005 
L 9.906064 13.454664 
L 8.507949 13.269322 
L 7.506756 13.328537 
L 6.505564 13.387751 
L 5.358089 13.7158 
L 4.344592 14.14925 
L 3.519759 14.585069 
L 3.135141 15.21748 
L 3.023492 16.123462 
L 2.911843 17.029444 
L 2.862171 17.940756 
L 2.812499 18.852067 
L 2.762826 19.763379 
L 2.713154 20.67469 
L 3.081367 21.733446 
L 3.547101 22.35283 
L 4.087572 22.808782 
L 4.60708 23.255259 
L 5.595057 23.855694 
L 6.291836 24.332963 
L 6.988615 24.810232 
L 7.685394 25.287501 
L 8.382173 25.76477 
L 9.371517 26.442629 
L 10.360861 27.120487 
L 11.350205 27.798345 
L 12.339549 28.476203 
L 13.328893 29.154061 
L 14.318237 29.83192 
L 15.307581 30.509778 
L 16.296925 31.187636 
L 17.09191 31.792512 
L 17.886894 32.397389 
L 18.681878 33.002265 
L 19.476862 33.607141 
L 20.452991 34.718006 
L 21.429119 35.82887 
L 21.988274 36.804133 
L 22.547429 37.779396 
L 22.751131 38.708472 
L 22.954832 39.637548 
L 23.158534 40.566624 
L 23.362236 41.4957 
L 23.517177 42.840165 
L 23.672118 44.184631 
L 23.827059 45.529097 
L 23.982 46.873562 
L 23.982 47.875768 
L 23.982 48.877974 
L 23.982 49.880179 
L 23.982 50.882385 
L 24.05537 52.080295 
L 24.128739 53.278205 
L 24.495356 54.353836 
L 24.861974 55.429468 
L 25.228592 56.5051 
L 25.59521 57.580732 
L 25.778633 58.423946 
L 25.962056 59.267161 
L 26.145478 60.110376 
L 26.328901 60.953591 
L 26.182163 62.175778 
L 25.913295 62.958594 
L 25.497688 63.544818 
L 24.519737 64.424746 
L 23.541786 65.304674 
L 22.979441 65.915767 
L 22.417096 66.526861 
L 21.854751 67.137955 
L 21.292406 67.749049 
L 20.534562 68.140457 
L 19.776719 68.531865 
L 18.676637 68.727273 
L 17.576556 68.678717 
L 16.097553 68.507587 
L 14.618549 68.336457 
L 13.139546 68.165327 
L 11.660543 67.994197 
L 10.337164 67.799973 
L 9.013786 67.60575 
L 7.922363 67.298426 
L 6.83094 66.991103 
L 6.415333 66.873858 
" style="fill:none;stroke:#008000;stroke-linecap:square;stroke-width:0.4;"/>
   </g>
   <g id="line2d_4">
    <path clip-path="url(#pb827959ae3)" d="M 3.547101 22.35283 
L 3.79045 23.139199 
L 4.033799 23.925567 
L 4.130409 24.858196 
L 4.227019 25.790825 
L 4.134852 26.843955 
L 4.042685 27.897085 
L 3.950518 28.950215 
L 3.858351 30.003346 
L 3.766183 31.056476 
L 3.674016 32.109606 
L 3.581849 33.162736 
L 3.489682 34.215867 
L 3.360603 35.313852 
L 3.231523 36.411837 
L 3.102443 37.509822 
L 2.973364 38.607807 
L 2.844284 39.705793 
L 2.715205 40.803778 
L 2.586125 41.901763 
L 2.457046 42.999748 
L 2.327966 44.097734 
L 2.198887 45.195719 
L 2.069807 46.293704 
L 1.940728 47.391689 
L 1.811648 48.489674 
L 1.682568 49.58766 
L 1.553489 50.685645 
L 1.424409 51.78363 
L 1.39251 52.817516 
L 1.36061 53.851401 
L 1.32871 54.885287 
L 1.296811 55.919172 
L 1.338508 56.977336 
L 1.380206 58.035499 
L 1.421903 59.093663 
L 1.4636 60.151826 
L 1.864624 61.657059 
L 2.265648 63.162292 
L 2.606746 63.914909 
L 2.947844 64.667525 
L 3.288942 65.420142 
L 3.63004 66.172758 
L 3.890706 66.614499 
L 4.175068 66.860831 
L 4.744704 67.036106 
L 5.505738 66.957943 
L 6.415333 66.873858 
" style="fill:none;stroke:#4169e1;stroke-linecap:square;stroke-width:0.4;"/>
   </g>
   <g id="line2d_5">
    <path clip-path="url(#pb827959ae3)" d="M 17.250268 5.790529 
L 17.578379 5.213779 
L 18.052316 4.880994 
L 18.48524 4.984027 
L 18.844338 5.257598 
L 19.506939 6.207399 
L 20.16954 7.1572 
L 20.561905 7.912777 
L 20.95427 8.668354 
L 21.077767 9.49795 
L 21.201265 10.327545 
L 20.956777 11.720863 
L 20.712289 13.11418 
L 20.467801 14.507498 
L 20.223313 15.900816 
L 20.021662 17.025595 
L 19.820011 18.150375 
L 19.61836 19.275155 
L 19.416709 20.399935 
L 19.026736 21.748398 
L 18.636763 23.09686 
L 18.24679 24.445323 
L 17.856817 25.793785 
L 17.466844 27.142248 
L 17.076871 28.490711 
L 16.686898 29.839173 
L 16.296925 31.187636 
L 15.989094 32.34676 
L 15.681263 33.505884 
L 15.373431 34.665009 
L 15.0656 35.824133 
L 14.732534 37.202277 
L 14.399467 38.580421 
L 14.066401 39.958565 
L 13.733335 41.336709 
L 13.400269 42.714852 
L 13.067202 44.092996 
L 12.734136 45.47114 
L 12.40107 46.849284 
L 12.068004 48.227428 
L 11.734937 49.605572 
L 11.401871 50.983716 
L 11.068805 52.36186 
L 10.735739 53.740004 
L 10.402672 55.118148 
L 10.069606 56.496292 
L 9.73654 57.874436 
L 9.536484 58.919424 
L 9.336427 59.964412 
L 9.136371 61.0094 
L 8.936315 62.054389 
L 8.736259 63.099377 
L 8.536203 64.144365 
L 8.336146 65.189353 
L 8.13609 66.234341 
L 7.440678 66.747139 
L 6.83094 66.991103 
" style="fill:none;stroke:#4169e1;stroke-linecap:square;stroke-width:0.4;"/>
   </g>
   <g id="line2d_6">
    <path clip-path="url(#pb827959ae3)" d="M 6.246721 4.618081 
L 6.050766 6.049888 
L 5.739061 6.875043 
L 5.427356 7.700197 
L 5.115652 8.525351 
L 4.803947 9.350506 
L 4.386745 10.817249 
L 3.969544 12.283993 
L 3.552342 13.750736 
L 3.135141 15.21748 
" style="fill:none;stroke:#4169e1;stroke-linecap:square;stroke-width:0.4;"/>
   </g>
   <g id="line2d_7">
    <path clip-path="url(#pb827959ae3)" d="M 20.95427 8.668354 
L 21.986223 9.730959 
L 23.018176 10.793563 
L 24.050129 11.856168 
L 25.082082 12.918772 
L 25.448699 13.750144 
L 25.815317 14.581516 
L 26.181935 15.412888 
L 26.548553 16.24426 
L 26.634112 17.05091 
L 26.719672 17.857559 
L 26.805231 18.664209 
L 26.89079 19.470859 
L 26.97635 20.277509 
L 27.061909 21.084159 
L 27.147468 21.890808 
L 27.233028 22.697458 
L 27.123088 23.821942 
L 27.013148 24.946426 
L 26.903208 26.070909 
L 26.793269 27.195393 
L 26.683329 28.319877 
L 26.573389 29.444361 
L 26.463449 30.568844 
L 26.35351 31.693328 
L 26.196062 32.524552 
L 26.038615 33.355776 
L 25.881167 34.186999 
L 25.72372 35.018223 
L 25.566272 35.849447 
L 25.408825 36.680671 
L 25.251378 37.511895 
L 25.09393 38.343119 
" style="fill:none;stroke:#000000;stroke-dasharray:1.48,0.64;stroke-dashoffset:0;stroke-width:0.4;"/>
   </g>
  </g>
 </g>
 <defs>
  <clipPath id="pb827959ae3">
   <rect height="72" width="28.529839" x="0" y="0"/>
  </clipPath>
 </defs>
</svg>
