<?xml version="1.0" encoding="utf-8" standalone="no"?>
<!DOCTYPE svg PUBLIC "-//W3C//DTD SVG 1.1//EN"
  "http://www.w3.org/Graphics/SVG/1.1/DTD/svg11.dtd">
<svg height="72pt" version="1.1" viewBox="0 0 99.265801 72" width="99.265801pt" xmlns="http://www.w3.org/2000/svg" xmlns:xlink="http://www.w3.org/1999/xlink">
 <metadata>
  <rdf:RDF xmlns:cc="http://creativecommons.org/ns#" xmlns:dc="http://purl.org/dc/elements/1.1/" xmlns:rdf="http://www.w3.org/1999/02/22-rdf-syntax-ns#">
   <cc:Work>
    <dc:type rdf:resource="http://purl.org/dc/dcmitype/StillImage"/>
    <dc:date>2022-05-19T21:13:16.390819</dc:date>
    <dc:format>image/svg+xml</dc:format>
    <dc:creator>
     <cc:Agent>
      <dc:title>Matplotlib v3.4.3, https://matplotlib.org/</dc:title>
     </cc:Agent>
    </dc:creator>
   </cc:Work>
  </rdf:RDF>
 </metadata>
 <defs>
  <style type="text/css">*{stroke-linecap:butt;stroke-linejoin:round;}</style>
 </defs>
 <g id="figure_1">
  <g id="patch_1">
   <path d="M 0 72 
L 99.265801 72 
L 99.265801 0 
L 0 0 
z
" style="fill:#ffffff;"/>
  </g>
  <g id="axes_1">
   <g id="line2d_1">
    <path clip-path="url(#p3a63d16072)" d="M 41.58395 63.822004 
L 42.465546 61.827979 
L 43.347142 59.833954 
L 44.399713 57.452797 
L 45.452283 55.07164 
L 46.504854 52.690484 
L 47.557425 50.309327 
L 48.226038 48.796938 
L 48.894652 47.28455 
L 49.563265 45.772161 
L 50.231879 44.259772 
L 50.933215 42.673027 
L 51.634551 41.086282 
L 52.335888 39.499538 
L 53.037224 37.912793 
L 53.634957 36.56063 
L 54.232689 35.208466 
L 54.830422 33.856303 
L 55.428154 32.50414 
L 56.078085 31.033967 
L 56.728016 29.563793 
L 57.377946 28.093619 
L 58.027877 26.623446 
L 58.620514 25.282796 
L 59.213151 23.942146 
L 59.722679 22.788906 
L 60.36559 21.334403 
L 61.0085 19.8799 
L 61.651411 18.425397 
L 62.294321 16.970894 
L 62.924777 15.544855 
L 63.555232 14.118815 
L 64.361418 12.29461 
" style="fill:none;stroke:#808080;stroke-linecap:square;stroke-width:0.459564;"/>
   </g>
   <g id="line2d_2">
    <path clip-path="url(#p3a63d16072)" d="M 30.322711 63.445266 
L 30.566378 61.464353 
L 30.844014 59.203286 
L 31.054053 57.494692 
L 31.264092 55.786099 
L 31.47413 54.077506 
L 31.684169 52.368913 
L 31.930554 50.364175 
L 32.176939 48.359436 
L 32.423323 46.354698 
L 32.669708 44.349959 
L 32.948024 42.086333 
L 33.226339 39.822707 
L 33.421545 38.233564 
L 33.61675 36.64442 
L 33.867211 34.605942 
L 34.117672 32.567463 
L 34.402102 30.255226 
L 34.571945 28.87364 
L 34.640335 28.315249 
L 34.705554 27.786281 
L 34.783908 27.147937 
L 35.017611 25.247297 
L 35.251315 23.346657 
L 35.473582 21.537643 
L 35.695849 19.728629 
L 35.918117 17.919615 
L 36.140384 16.110601 
L 36.288939 14.902993 
L 36.500676 13.179849 
L 36.712413 11.456704 
" style="fill:none;stroke:#808080;stroke-linecap:square;stroke-width:0.459564;"/>
   </g>
   <g id="line2d_3">
    <path clip-path="url(#p3a63d16072)" d="M 32.387996 24.089899 
L 32.112172 26.210249 
L 31.752106 28.975979 
L 31.39204 31.74171 
L 31.080662 34.134859 
L 30.769284 36.528009 
L 30.5503 38.210537 
L 30.331316 39.893066 
L 30.127392 41.460622 
L 29.923468 43.028178 
L 29.719544 44.595734 
L 29.515619 46.16329 
L 29.179331 48.747048 
L 28.843043 51.330805 
L 28.489771 54.043766 
L 28.136498 56.756727 
L 27.826932 59.137085 
L 27.517365 61.517442 
L 27.241541 63.634594 
L 27.103403 64.696368 
" style="fill:none;stroke:#808080;stroke-linecap:square;stroke-width:0.459564;"/>
   </g>
   <g id="line2d_4">
    <path clip-path="url(#p3a63d16072)" d="M 7.4841 39.298216 
L 8.069264 38.263306 
L 9.04031 36.547198 
L 9.787504 35.226216 
L 10.534698 33.905235 
L 11.281892 32.584253 
L 12.029086 31.263272 
L 12.937177 29.657178 
L 14.242473 27.349418 
L 14.992272 26.024119 
L 15.74207 24.69882 
L 16.816833 22.79834 
L 17.891597 20.89786 
L 18.96636 18.99738 
L 20.041124 17.0969 
L 21.340532 14.799694 
L 22.639941 12.502488 
L 23.559808 10.876246 
L 24.479675 9.250005 
L 25.191429 7.991227 
L 25.903182 6.732448 
L 26.763265 5.212064 
" style="fill:none;stroke:#808080;stroke-linecap:square;stroke-width:0.459564;"/>
   </g>
   <g id="line2d_5">
    <path clip-path="url(#p3a63d16072)" d="M 79.046682 68.394029 
L 79.346738 66.37378 
L 79.646793 64.35353 
L 80.065511 61.536311 
L 80.48423 58.719091 
L 80.854486 56.227439 
L 81.224743 53.735788 
L 81.448142 52.231874 
L 81.671542 50.72796 
L 81.894942 49.224047 
L 82.118341 47.720133 
L 82.345477 46.191594 
L 82.572613 44.663055 
L 82.799749 43.134515 
L 83.026885 41.605976 
L 83.286065 39.861724 
L 83.545245 38.117472 
L 83.804424 36.37322 
L 84.063604 34.628968 
L 84.276473 33.195733 
L 84.489343 31.762497 
L 84.702212 30.329262 
L 84.915081 28.896027 
L 85.303681 26.281248 
L 85.692281 23.666469 
L 85.954744 21.89935 
L 86.217207 20.132231 
L 86.479671 18.365113 
L 86.742134 16.597994 
L 86.831811 15.996749 
L 86.919676 15.404458 
L 87.062797 14.439266 
L 87.221769 13.370456 
" style="fill:none;stroke:#808080;stroke-linecap:square;stroke-width:0.459564;"/>
   </g>
   <g id="line2d_6">
    <path clip-path="url(#p3a63d16072)" d="M 29.754758 63.206047 
L 30.003634 61.031968 
L 30.252509 58.857889 
" style="fill:none;stroke:#808080;stroke-linecap:square;stroke-width:0.459564;"/>
   </g>
   <g id="line2d_7">
    <path clip-path="url(#p3a63d16072)" d="M 35.12314 57.957939 
L 35.620326 55.380418 
L 36.117512 52.802897 
L 36.614697 50.225377 
L 37.111883 47.647856 
" style="fill:none;stroke:#808080;stroke-linecap:square;stroke-width:0.459564;"/>
   </g>
   <g id="line2d_8">
    <path clip-path="url(#p3a63d16072)" d="M 65.58519 13.922451 
L 65.79421 14.553039 
L 66.003229 15.183628 
L 66.212249 15.814216 
L 66.421268 16.444805 
L 66.630288 17.075393 
L 66.839307 17.705981 
L 67.048327 18.33657 
L 67.257346 18.967158 
L 67.463535 19.517394 
L 67.669724 20.067629 
L 67.875913 20.617865 
L 68.082102 21.168101 
L 67.967968 21.638064 
L 67.853833 22.108027 
L 67.739699 22.57799 
L 67.625565 23.047953 
L 67.438314 23.47738 
L 67.251062 23.906807 
L 67.063811 24.336234 
L 66.876559 24.765661 
L 66.689308 25.195088 
L 66.502057 25.624515 
L 66.314805 26.053942 
L 66.127554 26.483368 
L 65.940303 26.912795 
L 65.753051 27.342222 
L 65.5658 27.771649 
L 65.378548 28.201076 
L 65.191297 28.630503 
L 65.004046 29.05993 
L 64.816794 29.489357 
L 64.629543 29.918784 
L 64.341999 30.578315 
L 64.054456 31.237846 
L 63.766913 31.897378 
L 63.479369 32.556909 
L 63.191826 33.21644 
L 62.904282 33.875972 
L 62.616739 34.535503 
L 62.329196 35.195034 
L 62.017535 35.564816 
L 61.705874 35.934599 
L 61.394213 36.304381 
L 61.082551 36.674163 
L 60.77089 37.043945 
L 60.459229 37.413727 
L 60.147568 37.783509 
L 59.835907 38.153291 
L 59.524246 38.523073 
L 59.212585 38.892855 
L 58.900924 39.262637 
L 58.589263 39.632419 
L 58.277602 40.002201 
L 57.965941 40.371983 
L 57.65428 40.741766 
L 57.342619 41.111548 
L 56.898368 41.364319 
L 56.454116 41.61709 
L 56.009865 41.869861 
L 55.565613 42.122632 
L 55.121362 42.375403 
L 54.67711 42.628174 
L 54.232859 42.880945 
L 53.788608 43.133716 
L 53.344356 43.386487 
L 52.900105 43.639258 
L 52.455853 43.892029 
L 52.011602 44.1448 
L 51.56735 44.397571 
L 51.123099 44.650342 
L 50.678847 44.903113 
L 50.234596 45.155884 
" style="fill:none;stroke:#4169e1;stroke-linecap:square;stroke-width:0.459564;"/>
   </g>
   <g id="line2d_9">
    <path clip-path="url(#p3a63d16072)" d="M 63.851438 15.999307 
L 63.857524 16.4518 
L 63.86361 16.904294 
L 63.869696 17.356787 
L 63.875782 17.80928 
L 63.881868 18.261774 
L 63.887954 18.714267 
L 63.89404 19.16676 
L 63.900126 19.619254 
L 63.906212 20.071747 
L 63.912298 20.52424 
L 63.918384 20.976734 
L 63.92447 21.429227 
L 63.930556 21.88172 
L 63.936642 22.334214 
L 63.942728 22.786707 
L 63.948814 23.2392 
L 63.687624 23.831371 
L 63.426435 24.423542 
L 63.165245 25.015713 
L 62.904056 25.607884 
L 62.642866 26.200055 
L 62.381677 26.792226 
L 62.120487 27.384397 
L 61.859298 27.976568 
L 61.598108 28.568739 
L 61.336919 29.160911 
L 61.075729 29.753082 
L 60.81454 30.345253 
L 60.55335 30.937424 
L 60.292161 31.529595 
L 60.030971 32.121766 
L 59.769782 32.713937 
L 59.471807 33.102747 
L 59.173833 33.491558 
L 58.875858 33.880369 
L 58.577884 34.26918 
L 58.279909 34.657991 
L 57.981935 35.046802 
L 57.68396 35.435613 
L 57.385986 35.824423 
L 57.088011 36.213234 
L 56.790036 36.602045 
L 56.492062 36.990856 
L 56.194087 37.379667 
L 55.896113 37.768478 
L 55.598138 38.157289 
L 55.300164 38.546099 
L 55.002189 38.93491 
L 54.704214 39.323721 
L 54.40624 39.712532 
L 54.108265 40.101343 
L 53.810291 40.490154 
L 53.512316 40.878965 
L 53.214342 41.267776 
L 52.916367 41.656586 
L 52.618393 42.045397 
L 52.320418 42.434208 
L 52.022443 42.823019 
L 51.724469 43.21183 
L 51.426494 43.600641 
L 51.12852 43.989452 
L 50.830545 44.378262 
L 50.532571 44.767073 
L 50.234596 45.155884 
" style="fill:none;stroke:#4169e1;stroke-linecap:square;stroke-width:0.459564;"/>
   </g>
   <g id="line2d_10">
    <path clip-path="url(#p3a63d16072)" d="M 50.234596 45.155884 
L 49.828333 45.79035 
L 49.422069 46.424816 
L 49.015806 47.059282 
L 48.609543 47.693748 
L 48.203279 48.328215 
L 47.797016 48.962681 
L 47.390753 49.597147 
L 46.984489 50.231613 
L 46.578226 50.866079 
L 46.171963 51.500545 
L 45.765699 52.135011 
L 45.359436 52.769477 
L 44.953173 53.403943 
L 44.546909 54.038409 
L 44.140646 54.672875 
L 43.734383 55.307342 
L 43.454992 55.75068 
L 43.175601 56.194019 
L 42.89621 56.637358 
L 42.616819 57.080696 
L 42.337428 57.524035 
L 42.058037 57.967374 
L 41.778646 58.410713 
L 41.499255 58.854051 
" style="fill:none;stroke:#008000;stroke-linecap:square;stroke-width:0.459564;"/>
   </g>
   <g id="line2d_11">
    <path clip-path="url(#p3a63d16072)" d="M 61.130334 14.979108 
L 60.872202 15.695806 
L 60.614069 16.412504 
L 60.355937 17.129201 
L 60.097805 17.845899 
L 59.839672 18.562596 
L 59.58154 19.279294 
L 59.323408 19.995992 
L 59.065275 20.712689 
L 58.807143 21.429387 
L 58.549011 22.146085 
L 58.290878 22.862782 
L 58.032746 23.57948 
L 57.774614 24.296177 
L 57.516481 25.012875 
L 57.258349 25.729573 
L 57.000217 26.44627 
L 56.788791 27.030946 
L 56.577365 27.615621 
L 56.36594 28.200297 
L 56.154514 28.784972 
L 55.943088 29.369647 
L 55.731663 29.954323 
L 55.520237 30.538998 
L 55.308811 31.123674 
L 55.097386 31.708349 
L 54.88596 32.293025 
L 54.674534 32.8777 
L 54.463109 33.462376 
L 54.251683 34.047051 
L 54.040258 34.631726 
L 53.828832 35.216402 
L 53.617406 35.801077 
L 53.405981 36.385753 
L 53.194555 36.970428 
L 52.983129 37.555104 
L 52.771704 38.139779 
L 52.560278 38.724454 
L 52.348852 39.30913 
L 52.137427 39.893805 
L 51.926001 40.478481 
L 51.714576 41.063156 
L 51.50315 41.647832 
L 51.291724 42.232507 
L 51.080299 42.817182 
L 50.868873 43.401858 
L 50.657447 43.986533 
L 50.446022 44.571209 
L 50.234596 45.155884 
" style="fill:none;stroke:#4169e1;stroke-linecap:square;stroke-width:0.459564;"/>
   </g>
   <g id="line2d_12">
    <path clip-path="url(#p3a63d16072)" d="M 57.583116 14.784663 
L 57.355343 15.308514 
L 57.12757 15.832365 
L 56.899797 16.356217 
L 56.672024 16.880068 
L 56.444251 17.403919 
L 56.216478 17.927771 
L 55.988705 18.451622 
L 55.760932 18.975473 
L 55.533159 19.499324 
L 55.305386 20.023176 
L 55.077613 20.547027 
L 54.84984 21.070878 
L 54.622067 21.59473 
L 54.394294 22.118581 
L 54.166521 22.642432 
L 53.938748 23.166283 
L 53.710975 23.690135 
L 53.483202 24.213986 
L 53.255429 24.737837 
L 53.027656 25.261688 
L 52.799883 25.78554 
L 52.57211 26.309391 
L 52.344337 26.833242 
L 52.116564 27.357094 
L 51.888791 27.880945 
L 51.661019 28.404796 
L 51.433246 28.928647 
L 51.205473 29.452499 
L 50.9777 29.97635 
L 50.749927 30.500201 
L 50.522154 31.024052 
L 50.294381 31.547904 
" style="fill:none;stroke:#4169e1;stroke-linecap:square;stroke-width:0.459564;"/>
   </g>
   <g id="line2d_13">
    <path clip-path="url(#p3a63d16072)" d="M 50.294381 31.547904 
L 50.153977 31.750664 
L 49.670266 32.448493 
L 49.181799 33.153038 
L 48.693332 33.857583 
L 48.395768 34.28691 
L 48.098204 34.716237 
L 47.800639 35.145564 
L 47.503075 35.574891 
L 47.205511 36.004218 
L 46.907947 36.433544 
L 46.610383 36.862871 
L 46.312819 37.292198 
L 46.015255 37.721525 
L 45.717691 38.150852 
L 45.420127 38.580179 
L 45.122562 39.009506 
L 44.824998 39.438833 
L 44.527434 39.86816 
L 44.22987 40.297487 
L 43.932306 40.726814 
L 43.634742 41.156141 
L 43.337178 41.585468 
L 43.039614 42.014795 
L 42.74205 42.444122 
L 42.444485 42.873449 
L 42.146921 43.302776 
L 41.849357 43.732103 
L 41.551793 44.16143 
L 41.254229 44.590757 
L 40.956665 45.020084 
L 40.659101 45.449411 
L 40.361537 45.878738 
L 40.063973 46.308065 
L 39.766408 46.737392 
L 39.468844 47.166719 
L 39.17128 47.596046 
L 38.949806 47.915858 
L 38.823414 48.565835 
L 38.697023 49.215811 
L 38.570632 49.865788 
L 38.444241 50.515765 
L 38.31785 51.165742 
L 38.191459 51.815719 
L 38.065068 52.465696 
L 37.938676 53.115673 
L 37.812285 53.76565 
L 37.685894 54.415627 
L 37.559503 55.065604 
L 37.433112 55.715581 
L 37.306721 56.365558 
L 37.18033 57.015535 
L 37.053938 57.665512 
L 36.927547 58.315489 
" style="fill:none;stroke:#008000;stroke-linecap:square;stroke-width:0.459564;"/>
   </g>
   <g id="line2d_14">
    <path clip-path="url(#p3a63d16072)" d="M 57.000217 26.44627 
L 56.52579 27.130867 
L 56.051363 27.815463 
L 55.576936 28.50006 
L 55.102509 29.184657 
L 54.628083 29.869253 
L 54.153656 30.55385 
L 53.679229 31.238446 
L 53.204802 31.923043 
L 52.730375 32.607639 
L 52.255949 33.292236 
L 51.781522 33.976832 
L 51.307095 34.661429 
L 50.832668 35.346025 
L 50.358241 36.030622 
L 49.883815 36.715218 
L 49.409388 37.399815 
L 49.131285 38.044415 
L 48.853182 38.689015 
L 48.575079 39.333615 
L 48.296976 39.978216 
L 48.018873 40.622816 
L 47.74077 41.267416 
L 47.462667 41.912016 
L 47.184564 42.556616 
L 46.906461 43.201216 
L 46.628358 43.845816 
L 46.350255 44.490416 
L 46.072152 45.135016 
L 45.794049 45.779617 
L 45.515946 46.424217 
L 45.237843 47.068817 
L 44.95974 47.713417 
L 44.681637 48.358017 
L 44.403534 49.002617 
L 44.125431 49.647217 
L 43.847328 50.291817 
L 43.569225 50.936417 
L 43.291122 51.581018 
L 43.013019 52.225618 
L 42.734916 52.870218 
L 42.456813 53.514818 
L 42.17871 54.159418 
L 41.900607 54.804018 
L 41.622504 55.448618 
L 41.344401 56.093218 
L 41.066298 56.737819 
L 40.788195 57.382419 
L 40.510092 58.027019 
" style="fill:none;stroke:#008000;stroke-linecap:square;stroke-width:0.459564;"/>
   </g>
   <g id="line2d_15">
    <path clip-path="url(#p3a63d16072)" d="M 56.359344 12.07394 
L 55.790938 12.677745 
L 55.222531 13.281549 
L 55.000491 13.80556 
L 54.77845 14.329571 
L 54.556409 14.853582 
L 54.334368 15.377593 
L 54.139049 16.025851 
L 53.94373 16.674109 
L 53.748411 17.322367 
L 53.553093 17.970625 
L 53.064625 18.459137 
L 52.576158 18.94765 
L 52.087691 19.436162 
L 51.599224 19.924674 
L 50.888716 20.359777 
L 50.178208 20.794881 
L 49.4677 21.229984 
L 48.757193 21.665088 
L 48.242117 22.242348 
L 47.727041 22.819608 
L 47.211965 23.396867 
L 46.696889 23.974127 
L 46.460469 24.380928 
L 46.188041 24.849611 
L 45.915614 25.318295 
L 45.643186 25.786979 
L 45.370759 26.255663 
L 45.098332 26.724346 
L 44.825904 27.19303 
L 44.553477 27.661714 
L 44.281049 28.130398 
L 43.908047 28.654329 
L 43.535044 29.17826 
L 43.162042 29.702192 
L 42.789039 30.226123 
L 42.416037 30.750054 
L 42.043034 31.273985 
L 41.670032 31.797916 
L 41.297029 32.321848 
L 40.924027 32.845779 
L 40.551024 33.36971 
L 40.178022 33.893641 
L 39.805019 34.417573 
L 39.432017 34.941504 
L 39.059014 35.465435 
L 38.686012 35.989366 
L 38.313009 36.513297 
" style="fill:none;stroke:#4169e1;stroke-linecap:square;stroke-width:0.459564;"/>
   </g>
   <g id="line2d_16">
    <path clip-path="url(#p3a63d16072)" d="M 46.460469 24.380928 
L 46.691313 24.841536 
L 46.922157 25.302145 
L 47.153002 25.762753 
L 47.383846 26.223362 
L 47.61469 26.68397 
L 47.845534 27.144579 
L 48.076379 27.605187 
L 48.307223 28.065796 
L 48.538067 28.526404 
L 48.768912 28.987013 
L 48.999756 29.447622 
L 49.2306 29.90823 
L 49.461445 30.368839 
L 49.692289 30.829447 
L 49.923133 31.290056 
L 50.153977 31.750664 
" style="fill:none;stroke:#008000;stroke-linecap:square;stroke-width:0.459564;"/>
   </g>
   <g id="line2d_17">
    <path clip-path="url(#p3a63d16072)" d="M 38.451601 28.565341 
L 38.442939 29.062089 
L 38.434277 29.558836 
L 38.425615 30.055583 
L 38.416953 30.55233 
L 38.408291 31.049078 
L 38.399629 31.545825 
L 38.390967 32.042572 
L 38.382305 32.539319 
L 38.373643 33.036067 
L 38.364981 33.532814 
L 38.356319 34.029561 
L 38.347657 34.526308 
L 38.338995 35.023056 
L 38.330333 35.519803 
L 38.321671 36.01655 
L 38.313009 36.513297 
L 38.368548 37.230155 
L 38.424086 37.947013 
L 38.479625 38.66387 
L 38.535163 39.380728 
L 38.590702 40.097585 
L 38.64624 40.814443 
L 38.701779 41.5313 
L 38.757317 42.248158 
L 38.809063 42.916644 
L 38.860808 43.58513 
L 38.912553 44.253616 
L 38.964299 44.922102 
L 39.016044 45.590588 
L 39.06779 46.259074 
L 39.119535 46.92756 
L 39.17128 47.596046 
" style="fill:none;stroke:#008000;stroke-linecap:square;stroke-width:0.459564;"/>
   </g>
   <g id="line2d_18">
    <path clip-path="url(#p3a63d16072)" d="M 44.178691 16.148339 
L 44.166009 16.883266 
L 44.153328 17.618193 
L 44.140646 18.35312 
L 44.127965 19.088047 
L 43.963331 19.848239 
L 43.798697 20.608431 
L 43.634063 21.368623 
L 43.469429 22.128815 
L 43.311022 22.540572 
L 43.152616 22.952329 
L 42.994209 23.364087 
L 42.835803 23.775844 
L 42.677396 24.187601 
L 42.51899 24.599359 
L 42.360583 25.011116 
L 42.202177 25.422873 
L 41.885364 25.777704 
L 41.568551 26.132535 
L 41.251738 26.487366 
L 40.934925 26.842197 
L 40.567499 27.082855 
L 40.200073 27.323513 
L 39.832647 27.564172 
L 39.465221 27.80483 
L 38.958411 28.185086 
L 38.451601 28.565341 
" style="fill:none;stroke:#4169e1;stroke-linecap:square;stroke-width:0.459564;"/>
   </g>
   <g id="line2d_19">
    <path clip-path="url(#p3a63d16072)" d="M 41.796819 15.438997 
L 41.638413 15.882416 
L 41.480006 16.325835 
L 41.3216 16.769253 
L 41.163193 17.212672 
L 41.004787 17.656091 
L 40.846381 18.099509 
L 40.687974 18.542928 
L 40.529568 18.986347 
L 40.313641 19.551134 
L 40.097715 20.115921 
L 39.881788 20.680708 
L 39.665862 21.245495 
L 39.438952 21.839066 
L 39.212042 22.432636 
L 39.116987 23.199224 
L 39.021932 23.965812 
L 38.926877 24.7324 
L 38.831822 25.498989 
L 38.736766 26.265577 
L 38.641711 27.032165 
L 38.546656 27.798753 
L 38.451601 28.565341 
" style="fill:none;stroke:#4169e1;stroke-linecap:square;stroke-width:0.459564;"/>
   </g>
   <g id="line2d_20">
    <path clip-path="url(#p3a63d16072)" d="M 38.451601 28.565341 
L 38.198196 29.287476 
L 37.944791 30.00961 
L 37.691386 30.731745 
L 37.437981 31.453879 
L 37.184576 32.176014 
L 36.931171 32.898148 
L 36.677766 33.620282 
L 36.42436 34.342417 
L 36.376833 34.779519 
L 36.329305 35.216622 
L 36.281778 35.653724 
L 36.23425 36.090826 
L 36.186722 36.527929 
L 36.139195 36.965031 
L 36.091667 37.402134 
L 36.04414 37.839236 
L 35.996612 38.276338 
L 35.949084 38.713441 
L 35.901557 39.150543 
L 35.854029 39.587646 
L 35.806502 40.024748 
L 35.758974 40.46185 
L 35.711446 40.898953 
L 35.663919 41.336055 
L 35.625931 41.842837 
L 35.587943 42.349618 
L 35.549955 42.856399 
L 35.511966 43.363181 
L 35.473978 43.869962 
L 35.43599 44.376743 
L 35.398002 44.883525 
L 35.360014 45.390306 
L 35.322026 45.897087 
L 35.284038 46.403869 
L 35.24605 46.91065 
L 35.208062 47.417431 
L 35.170073 47.924213 
L 35.132085 48.430994 
L 35.094097 48.937775 
L 35.056109 49.444557 
L 34.992701 50.065311 
L 34.929293 50.686065 
L 34.865885 51.306819 
L 34.802478 51.927573 
L 34.73907 52.548328 
L 34.675662 53.169082 
L 34.612254 53.789836 
L 34.548846 54.41059 
L 34.434825 54.88567 
L 34.320804 55.36075 
L 34.206783 55.83583 
L 34.092762 56.31091 
L 33.978741 56.78599 
L 33.86472 57.26107 
L 33.750699 57.73615 
L 33.636678 58.21123 
" style="fill:none;stroke:#008000;stroke-linecap:square;stroke-width:0.459564;"/>
   </g>
   <g id="line2d_21">
    <path clip-path="url(#p3a63d16072)" d="M 49.670266 32.448493 
L 49.072533 32.735924 
L 48.474801 33.023354 
L 47.877069 33.310785 
L 47.279336 33.598215 
L 46.681604 33.885646 
L 46.083871 34.173077 
L 45.486139 34.460507 
L 44.888406 34.747938 
L 44.505213 35.216702 
L 44.12202 35.685465 
L 43.738827 36.154229 
L 43.355634 36.622993 
L 42.972441 37.091757 
L 42.589248 37.56052 
L 42.206055 38.029284 
L 41.822862 38.498048 
L 41.439669 38.966812 
L 41.056476 39.435575 
L 40.673283 39.904339 
L 40.29009 40.373103 
L 39.906897 40.841867 
L 39.523704 41.31063 
L 39.14051 41.779394 
L 38.757317 42.248158 
" style="fill:none;stroke:#008000;stroke-linecap:square;stroke-width:0.459564;"/>
   </g>
   <g id="line2d_22">
    <path clip-path="url(#p3a63d16072)" d="M 41.796819 15.438997 
L 41.043398 15.667183 
L 40.289976 15.895368 
L 39.536555 16.123554 
L 38.783133 16.351739 
L 38.162189 16.625818 
L 37.541245 16.899896 
L 36.920301 17.173975 
L 36.299356 17.448053 
L 35.639575 17.704382 
L 34.979793 17.960711 
L 34.320012 18.21704 
L 33.66023 18.473369 
L 33.144758 18.741451 
L 32.629286 19.009533 
L 32.113814 19.277615 
L 31.598342 19.545697 
L 31.08287 19.813779 
L 30.567398 20.081861 
L 30.051925 20.349943 
L 29.536453 20.618025 
L 29.124076 20.832619 
L 28.711698 21.047212 
" style="fill:none;stroke:#008000;stroke-linecap:square;stroke-width:0.459564;"/>
   </g>
   <g id="line2d_23">
    <path clip-path="url(#p3a63d16072)" d="M 28.711698 21.047212 
L 28.330798 21.432025 
L 27.949898 21.816839 
L 27.568998 22.201652 
L 27.188097 22.586465 
L 26.807197 22.971278 
L 26.426297 23.356091 
L 26.045397 23.740905 
L 25.664497 24.125718 
L 25.357535 24.430418 
L 25.050573 24.735119 
L 24.74361 25.039819 
L 24.436648 25.34452 
L 24.129686 25.64922 
L 23.822724 25.95392 
L 23.515762 26.258621 
L 23.2088 26.563321 
L 22.901498 26.932544 
L 22.594197 27.301766 
L 22.286895 27.670989 
L 21.979593 28.040211 
L 21.672291 28.409433 
L 21.36499 28.778656 
L 21.057688 29.147878 
L 20.750386 29.517101 
L 20.220138 30.154325 
L 19.689889 30.79155 
L 19.159641 31.428774 
L 18.629393 32.065998 
" style="fill:none;stroke:#008000;stroke-linecap:square;stroke-width:0.459564;"/>
   </g>
   <g id="line2d_24">
    <path clip-path="url(#p3a63d16072)" d="M 18.629393 32.065998 
L 18.25823 32.331562 
L 17.887068 32.597125 
L 17.515905 32.862689 
L 17.144743 33.128252 
L 16.77358 33.393816 
L 16.402418 33.659379 
L 16.031255 33.924943 
L 15.660092 34.190506 
L 15.28893 34.45607 
L 14.917767 34.721633 
L 14.546605 34.987197 
L 14.175442 35.25276 
L 13.80428 35.518324 
L 13.433117 35.783887 
L 13.061955 36.049451 
L 12.690792 36.315014 
L 12.172829 36.720775 
L 11.654866 37.126536 
L 11.136903 37.532297 
L 10.61894 37.938058 
L 10.100977 38.343819 
L 9.583014 38.74958 
L 9.065051 39.15534 
L 8.547087 39.561101 
" style="fill:none;stroke:#008000;stroke-linecap:square;stroke-width:0.459564;"/>
   </g>
   <g id="line2d_25">
    <path clip-path="url(#p3a63d16072)" d="M 38.207028 11.528982 
L 38.128787 11.953531 
L 38.050546 12.378081 
L 37.972305 12.802631 
L 37.894064 13.227181 
L 37.741886 14.052774 
L 37.589707 14.878368 
L 37.437528 15.703961 
L 37.285349 16.529555 
L 37.156721 17.227543 
L 37.028094 17.925532 
L 36.899467 18.623521 
L 36.770839 19.321509 
L 36.645382 20.107446 
L 36.519925 20.893383 
L 36.394468 21.67932 
L 36.269011 22.465256 
L 36.228702 22.725583 
L 36.125324 23.389192 
L 36.021947 24.052801 
L 35.918569 24.71641 
L 35.815192 25.380019 
L 35.711814 26.043628 
L 35.608437 26.707237 
L 35.505059 27.370845 
L 35.401682 28.034454 
" style="fill:none;stroke:#4169e1;stroke-linecap:square;stroke-width:0.459564;"/>
   </g>
   <g id="line2d_26">
    <path clip-path="url(#p3a63d16072)" d="M 39.665862 21.245495 
L 39.236217 21.430506 
L 38.806572 21.615517 
L 38.376927 21.800528 
L 37.947282 21.985539 
L 37.517637 22.17055 
L 37.087992 22.355561 
L 36.658347 22.540572 
L 36.228702 22.725583 
" style="fill:none;stroke:#008000;stroke-linecap:square;stroke-width:0.459564;"/>
   </g>
   <g id="line2d_27">
    <path clip-path="url(#p3a63d16072)" d="M 35.401682 28.034454 
L 35.31192 28.676436 
L 35.222158 29.318418 
L 35.132397 29.960399 
L 35.042635 30.602381 
L 34.952873 31.244363 
L 34.863111 31.886344 
L 34.77335 32.528326 
L 34.683588 33.170308 
L 34.593826 33.812289 
L 34.504064 34.454271 
L 34.414302 35.096253 
L 34.324541 35.738234 
L 34.234779 36.380216 
L 34.145017 37.022198 
L 34.055255 37.664179 
L 33.965494 38.306161 
L 33.890961 38.869349 
L 33.816428 39.432537 
L 33.741896 39.995725 
L 33.667363 40.558913 
L 33.592831 41.122101 
L 33.518298 41.685289 
L 33.443766 42.248478 
L 33.369233 42.811666 
L 33.294701 43.374854 
L 33.220168 43.938042 
L 33.145635 44.50123 
L 33.071103 45.064418 
L 32.99657 45.627606 
L 32.922038 46.190794 
L 32.847505 46.753982 
L 32.772973 47.31717 
L 32.720449 47.802444 
L 32.667925 48.287718 
L 32.615401 48.772992 
L 32.562877 49.258266 
L 32.510354 49.74354 
L 32.45783 50.228814 
L 32.405306 50.714088 
L 32.352782 51.199363 
L 32.300258 51.684637 
L 32.247735 52.169911 
L 32.195211 52.655185 
L 32.142687 53.140459 
L 32.090163 53.625733 
L 32.037639 54.111007 
L 31.985116 54.596281 
L 31.932592 55.081555 
L 31.880068 55.566829 
L 31.827544 56.052103 
L 31.77502 56.537377 
L 31.722497 57.022651 
L 31.669973 57.507925 
L 31.617449 57.993199 
L 31.564925 58.478473 
L 31.512401 58.963747 
L 31.459878 59.449021 
L 31.407354 59.934295 
L 31.35483 60.419569 
L 31.302306 60.904843 
L 31.249782 61.390117 
L 31.197259 61.875391 
L 31.144735 62.360665 
L 31.092211 62.845939 
" style="fill:none;stroke:#008000;stroke-linecap:square;stroke-width:0.459564;"/>
   </g>
   <g id="line2d_28">
    <path clip-path="url(#p3a63d16072)" d="M 25.139117 5.487102 
L 24.498131 5.249802 
L 23.857146 5.012502 
L 23.21616 4.775202 
L 22.575174 4.537902 
L 21.980046 4.35481 
L 21.384918 4.171717 
L 20.78979 3.988625 
L 20.194661 3.805533 
L 19.643239 3.644348 
L 19.091817 3.483163 
L 18.713182 3.372508 
L 18.217808 3.347563 
L 17.722434 3.322618 
L 17.22706 3.297673 
L 16.731686 3.272727 
L 15.949278 3.564076 
L 15.16687 3.855424 
" style="fill:none;stroke:#008000;stroke-linecap:square;stroke-width:0.459564;"/>
   </g>
   <g id="line2d_29">
    <path clip-path="url(#p3a63d16072)" d="M 15.16687 3.855424 
L 14.927562 4.259106 
L 14.688254 4.662788 
L 14.448945 5.06647 
L 14.209637 5.470152 
L 13.970329 5.873834 
L 13.731021 6.277516 
L 13.491713 6.681199 
L 13.252405 7.084881 
L 12.994357 7.490721 
L 12.73631 7.896562 
L 12.478263 8.302403 
L 12.220215 8.708244 
L 11.962168 9.114085 
L 11.70412 9.519926 
L 11.446073 9.925766 
L 11.188025 10.331607 
L 10.954888 10.901831 
L 10.721751 11.472055 
L 10.488614 12.042279 
L 10.255477 12.612503 
L 10.143154 13.145149 
L 10.030832 13.677795 
L 9.918509 14.210441 
L 9.806187 14.743087 
L 9.939343 15.205055 
L 10.0725 15.667023 
L 10.205656 16.128991 
L 10.338813 16.590958 
L 10.688462 17.090504 
L 11.038111 17.59005 
L 10.959078 18.014599 
L 10.880044 18.439149 
L 10.801011 18.863699 
L 10.721978 19.288249 
" style="fill:none;stroke:#000000;stroke-linecap:square;stroke-width:0.459564;"/>
   </g>
   <g id="line2d_30">
    <path clip-path="url(#p3a63d16072)" d="M 6.027077 27.27842 
L 5.931399 27.894377 
L 5.835721 28.510334 
L 5.740043 29.126291 
L 5.644365 29.742248 
L 5.456972 30.225003 
L 5.26958 30.707759 
L 5.082187 31.190514 
L 4.894794 31.67327 
L 4.799116 32.206076 
L 4.703438 32.738882 
L 4.60776 33.271688 
L 4.512082 33.804494 
" style="fill:none;stroke:#008000;stroke-linecap:square;stroke-width:0.459564;"/>
   </g>
   <g id="line2d_31">
    <path clip-path="url(#p3a63d16072)" d="M 4.512082 33.804494 
L 4.770129 34.437081 
L 5.028177 35.069668 
L 5.286224 35.702255 
L 5.544272 36.334843 
L 5.708679 36.748919 
L 5.873087 37.162995 
L 6.037494 37.577071 
L 6.201902 37.991147 
L 6.366309 38.405223 
L 6.530717 38.819298 
L 6.695124 39.233374 
L 6.859532 39.64745 
" style="fill:none;stroke:#008000;stroke-linecap:square;stroke-width:0.459564;"/>
   </g>
   <g id="line2d_32">
    <path clip-path="url(#p3a63d16072)" d="M 19.091817 3.483163 
L 18.732883 4.253989 
L 18.37395 5.024815 
L 18.015016 5.79564 
L 17.656082 6.566466 
L 17.297148 7.337292 
L 16.938214 8.108118 
L 16.57928 8.878943 
L 16.220346 9.649769 
L 15.980246 10.22439 
L 15.740145 10.799012 
L 15.500044 11.373633 
L 15.259943 11.948254 
L 15.019843 12.522876 
L 14.779742 13.097497 
L 14.539641 13.672119 
L 14.299541 14.24674 
L 14.014262 14.929378 
L 13.728983 15.612015 
L 13.443704 16.294653 
L 13.158425 16.977291 
L 12.873146 17.659928 
L 12.587868 18.342566 
L 12.302589 19.025204 
L 12.01731 19.707842 
" style="fill:none;stroke:#4169e1;stroke-linecap:square;stroke-width:0.459564;"/>
   </g>
   <g id="line2d_33">
    <path clip-path="url(#p3a63d16072)" d="M 12.01731 19.707842 
L 11.744543 20.277266 
L 11.471776 20.84669 
L 11.199009 21.416115 
L 10.926242 21.985539 
L 10.62947 22.615248 
L 10.332699 23.244957 
L 10.035927 23.874666 
L 9.739155 24.504375 
L 9.450367 24.839217 
L 9.161578 25.17406 
L 8.872789 25.508903 
L 8.584 25.843745 
L 8.295211 26.178588 
L 8.006422 26.513431 
L 7.717633 26.848273 
L 7.428844 27.183116 
L 6.982725 27.822899 
L 6.536605 28.462682 
L 6.090485 29.102465 
L 5.644365 29.742248 
" style="fill:none;stroke:#008000;stroke-linecap:square;stroke-width:0.459564;"/>
   </g>
   <g id="line2d_34">
    <path clip-path="url(#p3a63d16072)" d="M 10.721978 19.288249 
L 10.480575 19.791792 
L 10.239172 20.295335 
L 9.997769 20.798879 
L 9.756366 21.302422 
L 9.514963 21.805965 
L 9.273561 22.309508 
L 9.032158 22.813052 
L 8.790755 23.316595 
L 8.341238 23.874346 
L 7.891722 24.432097 
L 7.442205 24.989849 
L 6.992689 25.5476 
L 6.751286 25.980305 
L 6.509883 26.41301 
L 6.26848 26.845715 
L 6.027077 27.27842 
" style="fill:none;stroke:#008000;stroke-linecap:square;stroke-width:0.459564;"/>
   </g>
   <g id="line2d_35">
    <path clip-path="url(#p3a63d16072)" d="M 25.139117 5.487102 
L 24.582147 5.811711 
L 24.025177 6.13632 
L 23.468206 6.460928 
L 22.911236 6.785537 
L 22.651292 7.198414 
L 22.391348 7.61129 
L 22.131404 8.024167 
L 21.87146 8.437044 
L 21.611516 8.84992 
L 21.351572 9.262797 
L 21.091628 9.675674 
L 20.831684 10.08855 
L 20.57174 10.501427 
L 20.311796 10.914304 
L 20.051852 11.327181 
L 19.791908 11.740057 
L 19.531964 12.152934 
L 19.27202 12.565811 
L 19.012076 12.978687 
L 18.752132 13.391564 
L 18.431583 13.949315 
L 18.111033 14.507067 
L 17.790484 15.064818 
L 17.469934 15.622569 
L 17.149385 16.18032 
L 16.828835 16.738072 
L 16.508286 17.295823 
L 16.187737 17.853574 
L 15.834209 18.468692 
L 15.480682 19.083809 
L 15.127155 19.698927 
L 14.773628 20.314044 
L 14.4201 20.929162 
L 14.066573 21.544279 
L 13.713046 22.159397 
L 13.359519 22.774514 
L 13.005992 23.389632 
L 12.652464 24.004749 
L 12.298937 24.619867 
L 11.94541 25.234984 
L 11.591883 25.850102 
L 11.238355 26.465219 
L 10.884828 27.080337 
L 10.531301 27.695454 
L 10.219612 28.235416 
L 9.907922 28.775378 
L 9.596233 29.315339 
L 9.284544 29.855301 
L 8.972854 30.395263 
L 8.661165 30.935225 
L 8.349476 31.475187 
L 8.037786 32.015148 
L 7.726097 32.55511 
L 7.414408 33.095072 
L 7.102718 33.635034 
L 6.791029 34.174996 
L 6.47934 34.714957 
L 6.16765 35.254919 
L 5.855961 35.794881 
L 5.544272 36.334843 
" style="fill:none;stroke:#4169e1;stroke-linecap:square;stroke-width:0.459564;"/>
   </g>
   <g id="line2d_36">
    <path clip-path="url(#p3a63d16072)" d="M 27.374698 5.905416 
L 27.112404 6.35599 
L 26.850111 6.806565 
L 26.587817 7.257139 
L 26.325524 7.707714 
L 26.06323 8.158288 
L 25.800937 8.608863 
L 25.538643 9.059437 
L 25.27635 9.510011 
L 25.014056 9.960586 
L 24.751763 10.41116 
L 24.489469 10.861735 
L 24.227176 11.312309 
L 23.964883 11.762884 
L 23.702589 12.213458 
L 23.440296 12.664033 
L 23.178002 13.114607 
L 22.915709 13.565182 
L 22.653415 14.015756 
L 22.391122 14.466331 
L 22.128828 14.916905 
L 21.866535 15.367479 
L 21.604241 15.818054 
L 21.341948 16.268628 
L 21.079654 16.719203 
L 20.817361 17.169777 
L 20.555067 17.620352 
L 20.292774 18.070926 
L 20.03048 18.521501 
L 19.768187 18.972075 
L 19.505893 19.42265 
L 19.2436 19.873224 
L 18.981306 20.323799 
" style="fill:none;stroke:#000000;stroke-linecap:square;stroke-width:0.459564;"/>
   </g>
   <g id="line2d_37">
    <path clip-path="url(#p3a63d16072)" d="M 18.981306 20.323799 
L 18.653907 20.886427 
L 18.326507 21.449055 
L 17.999107 22.011684 
L 17.671707 22.574312 
L 17.344308 23.136941 
L 17.016908 23.699569 
L 16.689508 24.262197 
L 16.362108 24.824826 
L 16.106566 25.282276 
L 15.851024 25.739727 
L 15.595482 26.197177 
L 15.339939 26.654628 
L 15.084397 27.112078 
L 14.828855 27.569528 
L 14.573313 28.026979 
L 14.31777 28.484429 
L 14.062228 28.94188 
L 13.806686 29.39933 
L 13.551144 29.85678 
L 13.295601 30.314231 
L 13.040059 30.771681 
L 12.784517 31.229132 
L 12.528975 31.686582 
L 12.273432 32.144032 
L 12.01789 32.601483 
L 11.762348 33.058933 
L 11.506806 33.516384 
L 11.251264 33.973834 
L 10.995721 34.431284 
L 10.740179 34.888735 
L 10.484637 35.346185 
L 10.229095 35.803636 
L 9.973552 36.261086 
L 9.71801 36.718537 
L 9.462468 37.175987 
L 9.206926 37.633437 
L 8.951383 38.090888 
L 8.695841 38.548338 
L 8.440299 39.005789 
L 8.184757 39.463239 
" style="fill:none;stroke:#008000;stroke-linecap:square;stroke-width:0.459564;"/>
   </g>
   <g id="line2d_38">
    <path clip-path="url(#p3a63d16072)" d="M 29.90286 10.708985 
L 29.674677 11.100754 
L 29.446493 11.492523 
L 29.21831 11.884292 
L 28.990127 12.276061 
L 28.761943 12.66783 
L 28.53376 13.0596 
L 28.305576 13.451369 
L 28.077393 13.843138 
L 27.849209 14.234907 
L 27.621026 14.626676 
L 27.392843 15.018445 
L 27.164659 15.410214 
L 26.936476 15.801983 
L 26.708292 16.193752 
L 26.480109 16.585522 
L 26.251925 16.977291 
L 26.023742 17.36906 
L 25.795558 17.760829 
L 25.567375 18.152598 
L 25.339192 18.544367 
L 25.111008 18.936136 
L 24.882825 19.327905 
L 24.654641 19.719675 
L 24.426458 20.111444 
L 24.198274 20.503213 
L 23.970091 20.894982 
L 23.741908 21.286751 
L 23.513724 21.67852 
L 23.285541 22.070289 
L 23.057357 22.462058 
L 22.829174 22.853827 
L 22.60099 23.245597 
L 22.358002 23.813902 
L 22.115014 24.382207 
L 21.858212 24.982333 
L 21.601411 25.582459 
L 21.344609 26.182586 
L 21.087807 26.782712 
L 21.003452 27.466309 
L 20.919096 28.149906 
L 20.834741 28.833503 
L 20.750386 29.517101 
" style="fill:none;stroke:#000000;stroke-linecap:square;stroke-width:0.459564;"/>
   </g>
   <g id="line2d_39">
    <path clip-path="url(#p3a63d16072)" d="M 32.304207 12.479461 
L 32.131223 12.988122 
L 31.958238 13.496782 
L 31.785253 14.005442 
L 31.612269 14.514102 
L 31.439284 15.022763 
L 31.2663 15.531423 
L 31.093315 16.040083 
L 30.92033 16.548743 
L 30.747346 17.057404 
L 30.574361 17.566064 
L 30.401376 18.074724 
L 30.228392 18.583384 
L 30.055407 19.092044 
L 29.882423 19.600705 
L 29.709438 20.109365 
L 29.536453 20.618025 
" style="fill:none;stroke:#4169e1;stroke-linecap:square;stroke-width:0.459564;"/>
   </g>
   <g id="line2d_40">
    <path clip-path="url(#p3a63d16072)" d="M 14.299541 14.24674 
L 14.535565 14.697594 
L 14.77159 15.148449 
L 15.007614 15.599303 
L 15.243639 16.050157 
L 15.479663 16.501011 
L 15.715688 16.951866 
L 15.951712 17.40272 
L 16.187737 17.853574 
L 16.713909 18.31906 
L 17.240081 18.784546 
L 17.766253 19.250031 
L 18.292425 19.715517 
L 18.824485 20.13495 
L 19.356545 20.554383 
L 19.888605 20.973815 
L 20.420665 21.393248 
L 20.844253 22.140488 
L 21.26784 22.887727 
L 21.691427 23.634967 
L 22.115014 24.382207 
" style="fill:none;stroke:#008000;stroke-linecap:square;stroke-width:0.459564;"/>
   </g>
   <g id="line2d_41">
    <path clip-path="url(#p3a63d16072)" d="M 20.750386 29.517101 
L 20.901886 29.947647 
L 21.053385 30.378193 
L 21.204885 30.808739 
L 21.356384 31.239286 
L 21.507884 31.669832 
L 21.659383 32.100378 
L 21.810883 32.530924 
L 21.962382 32.961471 
L 22.231866 33.449183 
L 22.501349 33.936896 
L 22.770833 34.424608 
L 23.040316 34.912321 
L 23.185249 35.444327 
L 23.330181 35.976334 
L 23.475113 36.50834 
L 23.620046 37.040347 
L 23.764978 37.572353 
L 23.90991 38.10436 
L 24.054842 38.636366 
L 24.199775 39.168373 
L 24.363503 39.993806 
L 24.527231 40.81924 
L 24.319231 41.488605 
L 24.11123 42.157971 
L 23.90323 42.827336 
L 23.695229 43.496702 
L 23.551882 43.95851 
L 23.408535 44.420318 
L 23.183437 44.928498 
L 22.958339 45.436679 
L 22.733241 45.944859 
L 22.508143 46.45304 
L 22.307503 47.163341 
L 22.106862 47.873642 
" style="fill:none;stroke:#008000;stroke-linecap:square;stroke-width:0.459564;"/>
   </g>
   <g id="line2d_42">
    <path clip-path="url(#p3a63d16072)" d="M 25.440305 18.492558 
L 25.468329 19.196703 
L 25.496353 19.900848 
L 25.524377 20.604993 
L 25.552401 21.309138 
L 25.580425 22.013283 
L 25.608449 22.717428 
L 25.636473 23.421573 
L 25.664497 24.125718 
" style="fill:none;stroke:#008000;stroke-linecap:square;stroke-width:0.459564;"/>
   </g>
   <g id="line2d_43">
    <path clip-path="url(#p3a63d16072)" d="M 23.695229 43.496702 
L 23.973148 43.965466 
L 24.251067 44.434229 
L 24.528986 44.902993 
L 24.806905 45.371757 
L 25.084824 45.840521 
L 25.362743 46.309284 
L 25.640662 46.778048 
L 25.918581 47.246812 
L 26.139829 47.750835 
L 26.361077 48.254858 
L 26.582326 48.758881 
L 26.803574 49.262904 
L 26.824068 49.758612 
L 26.844563 50.254319 
L 26.865057 50.750027 
L 26.885551 51.245735 
L 26.755339 51.892074 
L 26.625126 52.538413 
" style="fill:none;stroke:#008000;stroke-linecap:square;stroke-width:0.459564;"/>
   </g>
   <g id="line2d_44">
    <path clip-path="url(#p3a63d16072)" d="M 25.664497 24.125718 
L 25.684595 24.638456 
L 25.704693 25.151194 
L 25.724791 25.663931 
L 25.744889 26.176669 
L 25.764987 26.689407 
L 25.785085 27.202145 
L 25.805183 27.714883 
L 25.825281 28.227621 
L 25.864798 28.762106 
L 25.904314 29.296591 
L 25.943831 29.831076 
L 25.983348 30.365561 
L 26.022864 30.900046 
L 26.062381 31.434531 
L 26.101898 31.969016 
L 26.141414 32.503501 
L 26.116504 33.250261 
L 26.091594 33.99702 
L 26.068495 34.690372 
L 25.989575 35.128674 
L 25.910655 35.566975 
L 25.831735 36.005277 
L 25.752815 36.443579 
L 25.637322 37.085121 
L 25.521829 37.726662 
L 25.273179 38.499807 
L 25.02453 39.272951 
L 24.775881 40.046096 
L 24.527231 40.81924 
" style="fill:none;stroke:#008000;stroke-linecap:square;stroke-width:0.459564;"/>
   </g>
   <g id="line2d_45">
    <path clip-path="url(#p3a63d16072)" d="M 29.536453 20.618025 
L 29.375613 21.202001 
L 29.214772 21.785977 
L 29.053931 22.369953 
L 28.89309 22.953928 
L 28.732249 23.537904 
L 28.571408 24.12188 
L 28.410567 24.705856 
L 28.249726 25.289832 
L 28.095623 25.896514 
L 27.941519 26.503197 
L 27.787415 27.109879 
L 27.633311 27.716562 
L 27.479207 28.323244 
L 27.325104 28.929927 
L 27.171 29.536609 
L 27.016896 30.143292 
L 26.901233 30.625008 
L 26.785571 31.106724 
L 26.669908 31.58844 
L 26.554245 32.070156 
L 26.438582 32.551872 
L 26.32292 33.033588 
L 26.207257 33.515304 
L 26.091594 33.99702 
" style="fill:none;stroke:#008000;stroke-linecap:square;stroke-width:0.459564;"/>
   </g>
   <g id="line2d_46">
    <path clip-path="url(#p3a63d16072)" d="M 33.641661 24.469195 
L 33.574495 24.964444 
L 33.507329 25.459692 
L 33.440164 25.95494 
L 33.372998 26.450188 
L 33.305832 26.945436 
L 33.238667 27.440684 
L 33.171501 27.935932 
L 33.104335 28.431181 
L 33.03717 28.926429 
L 32.970004 29.421677 
L 32.902838 29.916925 
L 32.835673 30.412173 
L 32.768507 30.907421 
L 32.701342 31.402669 
L 32.634176 31.897917 
L 32.56701 32.393166 
L 32.499845 32.888414 
L 32.432679 33.383662 
L 32.365513 33.87891 
L 32.298348 34.374158 
L 32.231182 34.869406 
L 32.164016 35.364654 
L 32.096851 35.859903 
L 32.029685 36.355151 
L 31.962519 36.850399 
L 31.895354 37.345647 
L 31.828188 37.840895 
L 31.761023 38.336143 
L 31.693857 38.831391 
L 31.626691 39.32664 
L 31.559526 39.821888 
L 31.49236 40.317136 
L 31.425194 40.812384 
L 31.358029 41.307632 
L 31.290863 41.80288 
L 31.223697 42.298128 
L 31.156532 42.793376 
L 31.089366 43.288625 
L 31.0222 43.783873 
L 30.955035 44.279121 
L 30.887869 44.774369 
L 30.820704 45.269617 
L 30.753538 45.764865 
L 30.686372 46.260113 
L 30.619207 46.755362 
L 30.552041 47.25061 
L 30.484875 47.745858 
L 30.41771 48.241106 
L 30.350544 48.736354 
L 30.283378 49.231602 
L 30.216213 49.72685 
L 30.149047 50.222098 
L 30.081881 50.717347 
L 30.014716 51.212595 
L 29.94755 51.707843 
L 29.880385 52.203091 
L 29.813219 52.698339 
L 29.746053 53.193587 
L 29.678888 53.688835 
L 29.611722 54.184084 
L 29.544556 54.679332 
L 29.477391 55.17458 
L 29.410225 55.669828 
L 29.343059 56.165076 
" style="fill:none;stroke:#008000;stroke-linecap:square;stroke-width:0.459564;"/>
   </g>
   <g id="line2d_47">
    <path clip-path="url(#p3a63d16072)" d="M 29.343059 56.165076 
L 29.272093 56.700041 
L 29.201128 57.235006 
L 29.130162 57.76997 
L 29.059196 58.304935 
L 28.98823 58.8399 
L 28.917264 59.374864 
L 28.846298 59.909829 
L 28.775332 60.444794 
L 28.704367 60.979759 
L 28.633401 61.514723 
L 28.562435 62.049688 
L 28.491469 62.584653 
L 28.420503 63.119618 
L 28.349537 63.654582 
L 28.278571 64.189547 
L 28.207605 64.724512 
" style="fill:none;stroke:#008000;stroke-linecap:square;stroke-width:0.459564;"/>
   </g>
   <g id="line2d_48">
    <path clip-path="url(#p3a63d16072)" d="M 27.374698 5.905416 
L 27.63116 6.426549 
L 27.887622 6.947681 
L 28.144084 7.468814 
L 28.400547 7.989947 
L 28.589864 8.39323 
L 28.779182 8.796512 
L 28.9685 9.199794 
L 29.157818 9.603077 
L 29.238889 9.775775 
L 29.570875 10.24238 
L 29.90286 10.708985 
L 30.137922 11.03903 
L 30.641109 11.367797 
L 31.142711 11.695284 
L 31.644312 12.022771 
L 32.304207 12.479461 
L 32.703224 12.755459 
L 33.102241 13.031456 
L 33.407957 13.189443 
L 33.961078 13.474715 
L 34.514198 13.759987 
L 35.067319 14.045259 
L 35.620439 14.330531 
L 35.786658 14.41624 
L 36.36367 14.859499 
L 36.940682 15.302758 
L 37.14721 15.873941 
L 37.285349 16.529555 
" style="fill:none;stroke:#008000;stroke-linecap:square;stroke-width:0.459564;"/>
   </g>
   <g id="line2d_49">
    <path clip-path="url(#p3a63d16072)" d="M 32.762556 7.963083 
L 32.311963 8.168082 
L 31.861371 8.373081 
L 31.410779 8.578081 
L 30.960187 8.78308 
L 30.509594 8.988079 
L 30.059002 9.193078 
L 29.60841 9.398077 
L 29.157818 9.603077 
" style="fill:none;stroke:#008000;stroke-linecap:square;stroke-width:0.459564;"/>
   </g>
   <g id="line2d_50">
    <path clip-path="url(#p3a63d16072)" d="M 34.348205 9.642733 
L 33.884818 9.858366 
L 33.421431 10.073999 
L 32.958044 10.289632 
L 32.494657 10.505265 
L 32.03127 10.720898 
L 31.567883 10.936531 
L 31.104496 11.152164 
L 30.641109 11.367797 
" style="fill:none;stroke:#008000;stroke-linecap:square;stroke-width:0.459564;"/>
   </g>
   <g id="line2d_51">
    <path clip-path="url(#p3a63d16072)" d="M 35.786205 10.797892 
L 35.191643 11.39578 
L 34.597081 11.993668 
L 34.002519 12.591555 
L 33.407957 13.189443 
" style="fill:none;stroke:#4169e1;stroke-linecap:square;stroke-width:0.459564;"/>
   </g>
   <g id="line2d_52">
    <path clip-path="url(#p3a63d16072)" d="M 37.894064 13.227181 
L 37.325658 13.503018 
L 36.757252 13.778856 
L 36.188845 14.054693 
L 35.620439 14.330531 
L 35.496766 14.964197 
L 35.373092 15.597864 
L 35.249418 16.23153 
L 35.125745 16.865197 
L 35.002071 17.498863 
L 34.878397 18.13253 
L 34.754724 18.766196 
L 34.63105 19.399863 
L 34.507376 20.03353 
L 34.383703 20.667196 
L 34.260029 21.300863 
L 34.136355 21.934529 
L 34.012682 22.568196 
L 33.889008 23.201862 
L 33.765334 23.835529 
L 33.641661 24.469195 
" style="fill:none;stroke:#4169e1;stroke-linecap:square;stroke-width:0.459564;"/>
   </g>
   <g id="line2d_53">
    <path clip-path="url(#p3a63d16072)" d="M 25.752815 36.443579 
L 25.80456 36.932091 
L 25.856306 37.420603 
L 25.908051 37.909115 
L 25.959796 38.397627 
L 26.011542 38.886139 
L 26.063287 39.374651 
L 26.115032 39.863163 
L 26.166778 40.351675 
L 26.206577 40.908627 
L 26.246377 41.465579 
L 26.286177 42.022531 
L 26.325977 42.579482 
L 26.365776 43.136434 
L 26.405576 43.693386 
L 26.445376 44.250338 
L 26.485176 44.80729 
L 26.524976 45.364241 
L 26.564775 45.921193 
L 26.604575 46.478145 
L 26.644375 47.035097 
L 26.684175 47.592048 
L 26.723974 48.149 
L 26.763774 48.705952 
L 26.803574 49.262904 
" style="fill:none;stroke:#008000;stroke-linecap:square;stroke-width:0.459564;"/>
   </g>
   <g id="line2d_54">
    <path clip-path="url(#p3a63d16072)" d="M 22.106862 47.873642 
L 22.307503 48.343126 
L 22.508143 48.812609 
L 22.896969 49.272978 
L 23.285795 49.733346 
L 23.674622 50.193715 
L 24.063448 50.654084 
L 24.703867 51.125166 
L 25.344287 51.596249 
L 25.984706 52.067331 
L 26.625126 52.538413 
L 26.90095 52.741174 
L 27.206214 53.169162 
L 27.511478 53.597149 
L 27.816741 54.025137 
L 28.122005 54.453125 
L 28.427268 54.881113 
L 28.732532 55.309101 
L 29.037796 55.737088 
L 29.343059 56.165076 
" style="fill:none;stroke:#008000;stroke-linecap:square;stroke-width:0.459564;"/>
   </g>
   <g id="line2d_55">
    <path clip-path="url(#p3a63d16072)" d="M 65.58519 13.922451 
L 65.977413 14.200047 
L 66.369636 14.477644 
L 66.761859 14.75524 
L 67.154082 15.032837 
L 67.574839 15.362882 
L 67.995595 15.692928 
L 68.416352 16.022973 
L 68.837108 16.353019 
L 69.257865 16.683064 
L 69.678621 17.01311 
L 70.099378 17.343155 
L 70.520135 17.673201 
L 70.660311 18.131011 
L 70.800488 18.588821 
L 70.940665 19.046631 
L 71.080841 19.504441 
L 70.854045 20.048921 
L 70.627249 20.5934 
L 70.400452 21.137879 
L 70.173656 21.682358 
" style="fill:none;stroke:#4169e1;stroke-linecap:square;stroke-width:0.459564;"/>
   </g>
   <g id="line2d_56">
    <path clip-path="url(#p3a63d16072)" d="M 70.173656 21.682358 
L 70.133799 22.236591 
L 70.093943 22.790825 
L 70.059522 23.267983 
L 70.0251 23.745142 
L 70.148859 24.421544 
L 70.272617 25.097945 
L 70.396376 25.774346 
L 70.520135 26.450748 
L 70.503603 27.048955 
L 70.487072 27.647163 
L 70.470541 28.24537 
L 70.454009 28.843578 
L 70.301377 29.429312 
L 70.148746 30.015047 
L 69.996114 30.600782 
L 69.843482 31.186517 
L 69.699795 31.966217 
L 69.556108 32.745918 
L 69.412422 33.525618 
L 69.268735 34.305319 
L 69.048392 34.717236 
L 68.82805 35.129153 
L 68.607708 35.54107 
L 68.387365 35.952988 
" style="fill:none;stroke:#4169e1;stroke-linecap:square;stroke-width:0.459564;"/>
   </g>
   <g id="line2d_57">
    <path clip-path="url(#p3a63d16072)" d="M 68.082102 21.168101 
L 68.585062 21.573782 
L 69.088022 21.979463 
L 69.590983 22.385144 
L 70.093943 22.790825 
" style="fill:none;stroke:#008000;stroke-linecap:square;stroke-width:0.459564;"/>
   </g>
   <g id="line2d_58">
    <path clip-path="url(#p3a63d16072)" d="M 64.629543 29.918784 
L 64.852433 30.306395 
L 65.075323 30.694007 
L 65.298213 31.081619 
L 65.521103 31.46923 
L 65.743993 31.856842 
L 65.966883 32.244453 
L 66.189773 32.632065 
L 66.412663 33.019676 
L 66.635553 33.407288 
L 66.858443 33.7949 
L 67.081333 34.182511 
L 67.304223 34.570123 
L 67.527113 34.957734 
L 67.750003 35.345346 
L 67.972893 35.732957 
L 68.195783 36.120569 
" style="fill:none;stroke:#008000;stroke-linecap:square;stroke-width:0.459564;"/>
   </g>
   <g id="line2d_59">
    <path clip-path="url(#p3a63d16072)" d="M 86.709071 13.015466 
L 86.238834 13.15986 
L 85.768597 13.304255 
L 85.298359 13.44865 
L 84.828122 13.593045 
L 84.156338 13.799484 
L 83.484554 14.005922 
L 82.812771 14.21236 
L 82.140987 14.418799 
L 81.692659 14.705749 
L 81.244331 14.9927 
L 80.796004 15.279651 
L 80.347676 15.566602 
L 79.899348 15.853553 
L 79.451021 16.140504 
L 79.002693 16.427455 
L 78.554366 16.714406 
L 77.983015 17.08003 
L 77.411665 17.445655 
L 76.840315 17.811279 
L 76.268964 18.176904 
L 75.697614 18.542528 
L 75.126264 18.908153 
L 74.554914 19.273777 
L 73.983563 19.639402 
" style="fill:none;stroke:#4169e1;stroke-linecap:square;stroke-width:0.459564;"/>
   </g>
   <g id="line2d_60">
    <path clip-path="url(#p3a63d16072)" d="M 73.983563 19.639402 
L 73.979119 20.409468 
L 73.974675 21.179534 
L 73.970231 21.9496 
L 73.965787 22.719667 
L 73.961342 23.489733 
L 73.956898 24.259799 
L 73.952454 25.029865 
L 73.94801 25.799931 
L 73.943566 26.569997 
L 73.939121 27.340064 
L 73.934677 28.11013 
L 73.930233 28.880196 
L 73.925789 29.650262 
L 73.921344 30.420328 
L 73.9169 31.190394 
L 73.912456 31.960461 
L 73.939178 32.503181 
L 73.9659 33.045901 
L 73.992622 33.588621 
L 74.019344 34.131341 
L 73.879733 34.683496 
L 73.740122 35.23565 
L 73.600512 35.787805 
L 73.460901 36.33996 
L 73.443124 36.850699 
L 73.425348 37.361438 
L 73.407571 37.872177 
L 73.389794 38.382916 
L 73.485557 38.864592 
L 73.58132 39.346268 
L 73.677083 39.827944 
L 73.772845 40.30962 
L 73.868608 40.791296 
L 73.964371 41.272972 
L 74.060134 41.754649 
L 74.155897 42.236325 
L 74.25166 42.718001 
L 74.347423 43.199677 
L 74.443186 43.681353 
L 74.538948 44.163029 
L 74.634711 44.644705 
L 74.730474 45.126382 
L 74.826237 45.608058 
L 74.922 46.089734 
L 74.910111 46.763737 
L 74.898222 47.437739 
L 74.886333 48.111742 
L 74.874444 48.785745 
" style="fill:none;stroke:#4169e1;stroke-linecap:square;stroke-width:0.459564;"/>
   </g>
   <g id="line2d_61">
    <path clip-path="url(#p3a63d16072)" d="M 87.761642 13.786211 
L 87.649489 14.540487 
L 87.537337 15.294762 
L 87.425184 16.049038 
L 87.313031 16.803313 
L 87.200879 17.557589 
L 87.088726 18.311864 
L 86.976573 19.06614 
L 86.864421 19.820415 
L 86.752268 20.574691 
L 86.640115 21.328966 
L 86.527963 22.083242 
L 86.41581 22.837517 
L 86.303657 23.591793 
L 86.191505 24.346068 
L 86.079352 25.100344 
L 85.967199 25.854619 
L 85.87956 26.443392 
L 85.791922 27.032165 
L 85.704283 27.620938 
L 85.616644 28.209711 
L 85.526996 28.812496 
L 85.437347 29.415281 
L 85.347699 30.018065 
L 85.25805 30.62085 
L 85.168402 31.223635 
L 85.078753 31.82642 
L 84.989104 32.429204 
L 84.899456 33.031989 
L 84.809807 33.634774 
L 84.720159 34.237559 
L 84.63051 34.840343 
L 84.540862 35.443128 
L 84.451213 36.045913 
L 84.361565 36.648698 
L 84.271916 37.251482 
L 84.182267 37.854267 
L 84.092619 38.457052 
L 84.00297 39.059837 
L 83.913322 39.662621 
L 83.823673 40.265406 
L 83.734025 40.868191 
L 83.644376 41.470976 
L 83.554728 42.073761 
L 83.465079 42.676545 
L 83.375431 43.27933 
L 83.285782 43.882115 
L 83.196133 44.4849 
L 83.106485 45.087684 
L 83.016836 45.690469 
L 82.927188 46.293254 
L 82.837539 46.896039 
L 82.747891 47.498823 
L 82.678538 47.965109 
L 82.609186 48.431394 
L 82.539834 48.897679 
L 82.470481 49.363964 
L 82.401129 49.830249 
L 82.331777 50.296535 
L 82.262424 50.76282 
L 82.193072 51.229105 
L 82.113501 51.76413 
L 82.033929 52.299154 
L 81.954358 52.834179 
L 81.874787 53.369204 
L 81.795216 53.904228 
L 81.715644 54.439253 
L 81.636073 54.974278 
L 81.556502 55.509303 
L 81.476931 56.044327 
L 81.39736 56.579352 
L 81.317788 57.114377 
L 81.238217 57.649401 
L 81.158646 58.184426 
L 81.079075 58.719451 
L 80.999503 59.254475 
L 80.919932 59.7895 
L 80.840361 60.324525 
L 80.76079 60.859549 
L 80.681219 61.394574 
L 80.601647 61.929599 
L 80.522076 62.464624 
L 80.442505 62.999648 
L 80.362934 63.534673 
L 80.283362 64.069698 
L 80.203791 64.604722 
L 80.12422 65.139747 
L 80.044649 65.674772 
L 79.965078 66.209796 
L 79.885506 66.744821 
L 79.805935 67.279846 
L 79.726364 67.81487 
L 79.646793 68.349895 
" style="fill:none;stroke:#000000;stroke-linecap:square;stroke-width:0.459564;"/>
   </g>
   <g id="line2d_62">
    <path clip-path="url(#p3a63d16072)" d="M 84.828122 13.593045 
L 84.729783 14.015876 
L 84.631444 14.438707 
L 84.533106 14.861538 
L 84.434767 15.284368 
L 84.336428 15.707199 
L 84.238089 16.13003 
L 84.13975 16.552861 
L 84.041411 16.975692 
L 83.943073 17.398522 
L 83.844734 17.821353 
L 83.746395 18.244184 
L 83.648056 18.667015 
L 83.549717 19.089846 
L 83.451378 19.512677 
L 83.35304 19.935507 
L 83.254701 20.358338 
L 83.593763 21.045373 
L 83.932825 21.732408 
L 84.271888 22.419443 
L 84.61095 23.106479 
L 84.950012 23.793514 
L 85.289075 24.480549 
L 85.628137 25.167584 
L 85.967199 25.854619 
" style="fill:none;stroke:#000000;stroke-linecap:square;stroke-width:0.459564;"/>
   </g>
   <g id="line2d_63">
    <path clip-path="url(#p3a63d16072)" d="M 83.254701 20.358338 
L 83.114411 20.782048 
L 82.974121 21.205759 
L 82.833831 21.629469 
L 82.693541 22.053179 
L 82.553251 22.47689 
L 82.412961 22.9006 
L 82.272671 23.32431 
L 82.132381 23.74802 
L 81.992091 24.171731 
L 81.851802 24.595441 
L 81.711512 25.019151 
L 81.571222 25.442862 
L 81.430932 25.866572 
L 81.290642 26.290282 
L 81.150352 26.713993 
L 81.010062 27.137703 
L 80.830255 27.681063 
L 80.650449 28.224422 
L 80.470642 28.767782 
L 80.290836 29.311142 
" style="fill:none;stroke:#4169e1;stroke-linecap:square;stroke-width:0.459564;"/>
   </g>
   <g id="line2d_64">
    <path clip-path="url(#p3a63d16072)" d="M 78.554366 16.714406 
L 78.461631 17.197241 
L 78.368897 17.680077 
L 78.276163 18.162912 
L 78.183429 18.645747 
L 78.090695 19.128583 
L 77.997961 19.611418 
L 77.905227 20.094254 
L 77.812493 20.577089 
L 77.937045 21.114533 
L 78.061596 21.651976 
L 78.186147 22.189419 
L 78.310698 22.726862 
L 78.648119 23.278217 
L 78.985539 23.829572 
L 79.32296 24.380928 
L 79.66038 24.932283 
L 79.997801 25.483638 
L 80.335221 26.034993 
L 80.672642 26.586348 
L 81.010062 27.137703 
" style="fill:none;stroke:#000000;stroke-linecap:square;stroke-width:0.459564;"/>
   </g>
   <g id="line2d_65">
    <path clip-path="url(#p3a63d16072)" d="M 85.616644 28.209711 
L 84.950918 28.34739 
L 84.285192 28.485069 
L 83.619466 28.622748 
L 82.95374 28.760427 
L 82.288014 28.898105 
L 81.622288 29.035784 
L 80.956562 29.173463 
L 80.290836 29.311142 
L 79.892187 29.476724 
L 79.493538 29.642307 
L 79.094889 29.807889 
L 78.696241 29.973472 
L 78.297592 30.139054 
L 77.898943 30.304636 
L 77.500294 30.470219 
L 77.101646 30.635801 
L 76.702997 30.801384 
L 76.304348 30.966966 
L 75.9057 31.132549 
L 75.507051 31.298131 
L 75.108402 31.463713 
L 74.709753 31.629296 
L 74.311105 31.794878 
L 73.912456 31.960461 
L 73.200589 32.435221 
L 72.488723 32.909981 
L 71.776856 33.384741 
L 71.064989 33.859501 
L 70.638119 34.193225 
L 70.211248 34.526948 
L 69.784377 34.860671 
L 69.357506 35.194395 
L 68.872436 35.573691 
L 68.387365 35.952988 
L 68.195783 36.120569 
L 67.834811 36.436543 
L 67.473839 36.752517 
L 67.033381 37.074647 
L 66.592922 37.396777 
L 66.152464 37.718907 
L 65.712006 38.041037 
L 65.271548 38.363167 
L 64.831089 38.685297 
L 64.390631 39.007428 
L 63.950173 39.329558 
L 63.213962 39.704777 
L 62.477751 40.079996 
L 61.741541 40.455214 
L 61.00533 40.830433 
L 60.269119 41.205652 
L 59.532908 41.580871 
L 58.796698 41.95609 
L 58.060487 42.331309 
L 57.571369 42.507845 
L 57.08225 42.684381 
L 56.593132 42.860917 
L 56.104014 43.037453 
L 55.614896 43.213989 
L 55.125778 43.390525 
L 54.63666 43.56706 
L 54.147541 43.743596 
L 53.658423 43.920132 
L 53.169305 44.096668 
L 52.680187 44.273204 
L 52.191069 44.44974 
L 51.701951 44.626276 
L 51.212832 44.802812 
L 50.723714 44.979348 
L 50.234596 45.155884 
" style="fill:none;stroke:#008000;stroke-linecap:square;stroke-width:0.459564;"/>
   </g>
   <g id="line2d_66">
    <path clip-path="url(#p3a63d16072)" d="M 80.290836 29.311142 
L 80.353904 29.752162 
L 80.416972 30.193182 
L 80.48004 30.634202 
L 80.543108 31.075222 
L 80.642126 31.767454 
L 80.741145 32.459686 
L 80.840163 33.151918 
L 80.939181 33.844151 
L 81.038199 34.536383 
L 81.137217 35.228615 
L 81.236236 35.920847 
L 81.335254 36.613079 
L 81.255088 37.334573 
L 81.174922 38.056068 
L 81.094757 38.777563 
L 81.014591 39.499058 
L 80.934425 40.220553 
L 80.85426 40.942047 
L 80.774094 41.663542 
L 80.693928 42.385037 
L 80.49057 42.966934 
L 80.287212 43.548831 
L 80.083854 44.130728 
L 79.880496 44.712625 
L 79.677138 45.294522 
L 79.47378 45.876419 
L 79.270422 46.458317 
L 79.067063 47.040214 
" style="fill:none;stroke:#008000;stroke-linecap:square;stroke-width:0.459564;"/>
   </g>
   <g id="line2d_67">
    <path clip-path="url(#p3a63d16072)" d="M 80.543108 31.075222 
L 80.215652 31.687821 
L 79.888195 32.30042 
L 79.560739 32.913019 
L 79.233283 33.525618 
L 79.105561 34.104477 
L 78.97784 34.683336 
L 78.850118 35.262195 
L 78.722396 35.841054 
L 78.823396 36.583336 
L 78.924396 37.325619 
L 79.227168 38.026326 
L 79.529941 38.727033 
L 79.535829 39.160697 
L 79.541717 39.594362 
L 79.259665 40.027706 
L 78.977613 40.461051 
L 78.695561 40.894396 
L 78.413509 41.32774 
L 78.294733 41.755328 
L 78.175956 42.182916 
L 78.05718 42.610504 
L 77.938403 43.038092 
L 78.000792 43.569459 
L 78.063181 44.100826 
L 78.12557 44.632193 
L 78.187959 45.16356 
L 78.407735 45.632723 
L 78.627511 46.101887 
L 78.847287 46.57105 
L 79.067063 47.040214 
" style="fill:none;stroke:#008000;stroke-linecap:square;stroke-width:0.459564;"/>
   </g>
   <g id="line2d_68">
    <path clip-path="url(#p3a63d16072)" d="M 79.067063 47.040214 
L 78.82951 47.726049 
L 78.591957 48.411885 
L 78.354404 49.097721 
L 78.116851 49.783557 
L 78.119795 50.305969 
L 78.122739 50.828381 
L 78.125683 51.350793 
L 78.128627 51.873205 
L 78.192431 52.47589 
L 78.256235 53.078575 
L 78.320039 53.68126 
L 78.383844 54.283945 
L 78.447648 54.886629 
L 78.511452 55.489314 
L 78.575256 56.091999 
L 78.63906 56.694684 
L 78.704506 57.407224 
L 78.769952 58.119764 
L 78.565066 58.712055 
L 78.360179 59.304346 
L 78.155292 59.896637 
L 77.950405 60.488928 
L 77.745519 61.081219 
L 77.540632 61.67351 
L 77.335745 62.265801 
L 77.130859 62.858092 
" style="fill:none;stroke:#008000;stroke-linecap:square;stroke-width:0.459564;"/>
   </g>
   <g id="line2d_69">
    <path clip-path="url(#p3a63d16072)" d="M 69.357506 35.194395 
L 69.332256 35.810352 
L 69.307006 36.426309 
L 69.281756 37.042266 
L 69.256506 37.658223 
L 69.434728 38.168962 
L 69.612949 38.679701 
L 69.941792 39.311329 
L 70.270636 39.942956 
L 70.599479 40.574584 
L 70.928323 41.206212 
L 71.257166 41.83784 
L 71.58601 42.469467 
L 71.914853 43.101095 
L 72.243697 43.732723 
L 72.57254 44.364351 
L 72.901383 44.995978 
L 73.230227 45.627606 
L 73.55907 46.259234 
L 73.887914 46.890862 
L 74.216757 47.522489 
L 74.545601 48.154117 
L 74.874444 48.785745 
L 74.874784 49.35453 
L 74.875123 49.923315 
L 74.875463 50.492099 
L 74.875803 51.060884 
L 74.876143 51.629669 
L 74.876482 52.198454 
L 74.876822 52.767239 
L 74.877162 53.336023 
L 74.959422 53.793154 
L 75.041682 54.250284 
L 75.123943 54.707415 
L 75.206203 55.164546 
L 75.288464 55.621676 
L 75.370724 56.078807 
L 75.452984 56.535937 
L 75.535245 56.993068 
L 75.617505 57.450199 
L 75.699766 57.907329 
L 75.782026 58.36446 
L 75.864286 58.82159 
L 75.946547 59.278721 
L 76.028807 59.735852 
L 76.111068 60.192982 
L 76.193328 60.650113 
L 76.427711 61.202108 
L 76.662093 61.754102 
L 76.896476 62.306097 
L 77.130859 62.858092 
L 77.275734 63.534173 
L 77.42061 64.210255 
L 77.565486 64.886336 
L 77.710361 65.562418 
L 77.855237 66.238499 
L 78.000113 66.914581 
L 78.144988 67.590663 
L 78.289864 68.266744 
" style="fill:none;stroke:#008000;stroke-linecap:square;stroke-width:0.459564;"/>
   </g>
   <g id="line2d_70">
    <path clip-path="url(#p3a63d16072)" d="M 88.222708 14.020313 
L 88.164056 14.559675 
L 88.105403 15.099038 
L 88.046751 15.6384 
L 87.988099 16.177762 
L 88.191797 16.604311 
L 88.395494 17.030859 
L 88.599192 17.457408 
L 88.80289 17.883956 
L 89.006588 18.310505 
L 89.210286 18.737054 
L 89.413983 19.163602 
L 89.617681 19.590151 
L 89.463804 20.129513 
L 89.309927 20.668875 
L 89.156049 21.208237 
L 89.002172 21.747599 
L 88.848295 22.286962 
L 88.694417 22.826324 
L 88.54054 23.365686 
L 88.386663 23.905048 
L 88.492191 24.561621 
L 88.59772 25.218194 
L 88.703249 25.874767 
L 88.808778 26.53134 
L 88.914307 27.187913 
L 89.019836 27.844486 
L 89.125364 28.501059 
L 89.230893 29.157632 
L 89.31004 29.696995 
L 89.389186 30.236357 
L 89.468333 30.775719 
L 89.54748 31.315081 
L 89.626626 31.854443 
L 89.705773 32.393805 
L 89.78492 32.933167 
L 89.864066 33.47253 
L 89.650065 33.918027 
L 89.436063 34.363524 
L 89.222061 34.809022 
L 89.00806 35.254519 
L 88.794058 35.700017 
L 88.580057 36.145514 
L 88.366055 36.591012 
L 88.152054 37.036509 
L 87.982777 37.641792 
L 87.813501 38.247076 
L 87.644224 38.852359 
L 87.474948 39.457642 
L 87.305672 40.062926 
L 87.136395 40.668209 
L 86.967119 41.273492 
L 86.797842 41.878775 
L 86.628566 42.484059 
L 86.45929 43.089342 
L 86.290013 43.694625 
L 86.120737 44.299909 
L 85.95146 44.905192 
L 85.782184 45.510475 
L 85.612908 46.115758 
L 85.443631 46.721042 
" style="fill:none;stroke:#000000;stroke-linecap:square;stroke-width:0.459564;"/>
   </g>
   <g id="line2d_71">
    <path clip-path="url(#p3a63d16072)" d="M 92.162602 18.007084 
L 91.526372 18.402851 
L 90.890141 18.798617 
L 90.253911 19.194384 
L 89.617681 19.590151 
" style="fill:none;stroke:#008000;stroke-linecap:square;stroke-width:0.459564;"/>
   </g>
   <g id="line2d_72">
    <path clip-path="url(#p3a63d16072)" d="M 88.222708 14.020313 
L 88.715195 14.51866 
L 89.207681 15.017006 
L 89.700168 15.515352 
L 90.192655 16.013699 
L 90.685142 16.512045 
L 91.177628 17.010391 
L 91.670115 17.508738 
L 92.162602 18.007084 
L 92.643256 18.552203 
L 93.12391 19.097321 
L 93.604565 19.64244 
L 94.085219 20.187559 
L 94.168782 20.614107 
L 94.252344 21.040656 
L 94.335907 21.467205 
L 94.419469 21.893753 
L 94.503032 22.320302 
L 94.586594 22.746851 
L 94.670157 23.173399 
L 94.753719 23.599948 
L 94.675309 24.403834 
L 94.596898 25.20772 
L 94.518487 26.011606 
L 94.440077 26.815493 
L 94.361666 27.619379 
L 94.283256 28.423265 
L 94.204845 29.227151 
L 94.126434 30.031038 
L 94.048024 30.834924 
L 93.969613 31.63881 
L 93.891202 32.442696 
L 93.812792 33.246583 
L 93.734381 34.050469 
L 93.65597 34.854355 
L 93.57756 35.658241 
L 93.499149 36.462128 
L 93.28294 36.999251 
L 93.06673 37.536375 
L 92.850521 38.073498 
L 92.634311 38.610621 
L 92.418101 39.147745 
L 92.201892 39.684868 
L 91.985682 40.221992 
L 91.769473 40.759115 
L 91.553263 41.296239 
L 91.337054 41.833362 
L 91.120844 42.370486 
L 90.904635 42.907609 
L 90.688425 43.444733 
L 90.472216 43.981856 
L 90.256006 44.518979 
L 90.039797 45.056103 
L 89.538535 45.401979 
L 89.037273 45.747855 
L 88.536011 46.093731 
L 88.034749 46.439608 
L 87.38697 46.509966 
L 86.73919 46.580325 
L 86.091411 46.650683 
L 85.443631 46.721042 
L 84.769696 46.915487 
L 84.095761 47.109933 
L 83.421826 47.304378 
L 82.747891 47.498823 
" style="fill:none;stroke:#000000;stroke-linecap:square;stroke-width:0.459564;"/>
   </g>
   <g id="line2d_73">
    <path clip-path="url(#p3a63d16072)" d="M 82.193072 51.229105 
L 82.369595 51.989777 
L 82.546118 52.750448 
L 82.722641 53.51112 
L 82.899164 54.271792 
L 82.907939 55.017672 
L 82.916714 55.763553 
L 82.925489 56.509433 
L 82.934265 57.255314 
L 82.94304 58.001194 
L 82.951815 58.747074 
L 82.96059 59.492955 
L 82.969365 60.238835 
L 82.992804 61.046359 
L 83.016242 61.853883 
L 83.03968 62.661408 
L 83.063118 63.468932 
L 83.086557 64.276456 
L 83.109995 65.08398 
L 83.133433 65.891504 
L 83.156872 66.699028 
L 82.517811 67.206089 
L 81.87875 67.71315 
L 81.239689 68.220212 
L 80.600628 68.727273 
" style="fill:none;stroke:#008000;stroke-linecap:square;stroke-width:0.459564;"/>
   </g>
  </g>
 </g>
 <defs>
  <clipPath id="p3a63d16072">
   <rect height="72" width="99.265801" x="0" y="0"/>
  </clipPath>
 </defs>
</svg>
