<?xml version="1.0" encoding="utf-8" standalone="no"?>
<!DOCTYPE svg PUBLIC "-//W3C//DTD SVG 1.1//EN"
  "http://www.w3.org/Graphics/SVG/1.1/DTD/svg11.dtd">
<svg height="72pt" version="1.1" viewBox="0 0 62.459998 72" width="62.459998pt" xmlns="http://www.w3.org/2000/svg" xmlns:xlink="http://www.w3.org/1999/xlink">
 <metadata>
  <rdf:RDF xmlns:cc="http://creativecommons.org/ns#" xmlns:dc="http://purl.org/dc/elements/1.1/" xmlns:rdf="http://www.w3.org/1999/02/22-rdf-syntax-ns#">
   <cc:Work>
    <dc:type rdf:resource="http://purl.org/dc/dcmitype/StillImage"/>
    <dc:date>2022-05-18T23:25:55.617101</dc:date>
    <dc:format>image/svg+xml</dc:format>
    <dc:creator>
     <cc:Agent>
      <dc:title>Matplotlib v3.4.3, https://matplotlib.org/</dc:title>
     </cc:Agent>
    </dc:creator>
   </cc:Work>
  </rdf:RDF>
 </metadata>
 <defs>
  <style type="text/css">*{stroke-linecap:butt;stroke-linejoin:round;}</style>
 </defs>
 <g id="figure_1">
  <g id="patch_1">
   <path d="M 0 72 
L 62.459998 72 
L 62.459998 0 
L 0 0 
z
" style="fill:#ffffff;"/>
  </g>
  <g id="axes_1">
   <g id="line2d_1">
    <path clip-path="url(#p7246b68d6f)" d="M 14.146317 68.727273 
L 15.459654 66.615234 
L 17.119875 63.944614 
L 18.780095 61.273994 
L 20.440316 58.603374 
L 22.100537 55.932754 
L 23.760757 53.262134 
L 25.420978 50.591514 
L 27.081199 47.920894 
L 28.74142 45.250273 
L 30.733169 42.046333 
L 32.724919 38.842392 
L 34.716668 35.638451 
L 36.708418 32.43451 
L 38.700168 29.230569 
L 40.691917 26.026628 
L 42.683667 22.822687 
L 44.675416 19.618746 
L 46.208879 17.152283 
" style="fill:none;stroke:#808080;stroke-linecap:square;stroke-width:0.4;"/>
   </g>
   <g id="line2d_2">
    <path clip-path="url(#p7246b68d6f)" d="M 44.675416 19.618746 
L 45.297046 19.293339 
L 46.048937 19.293339 
L 46.734461 19.890782 
L 47.419985 20.488226 
L 47.928563 21.029967 
L 48.437141 21.571708 
L 48.945718 22.113449 
L 49.454296 22.65519 
L 49.962874 23.196931 
L 50.471452 23.738672 
L 50.98003 24.280413 
L 51.488608 24.822154 
L 52.130024 25.794749 
L 52.77144 26.767344 
L 53.445834 27.806782 
L 54.120228 28.84622 
L 54.794621 29.885658 
L 55.469015 30.925096 
L 55.911329 31.897691 
L 56.353642 32.870286 
L 56.740718 33.965168 
L 57.127793 35.06005 
L 57.293506 35.955438 
L 57.459219 36.850826 
L 57.538366 37.652945 
L 57.65791 38.863377 
L 57.790645 39.791928 
L 57.92338 40.720479 
L 58.166591 41.229317 
L 58.25563 41.582705 
L 58.144331 41.937129 
L 57.768385 41.958892 
L 57.459219 41.78168 
L 56.751848 40.985779 
L 56.154127 40.455179 
L 55.581964 40.087282 
L 54.906333 39.652024 
L 54.230703 39.216766 
L 53.113996 38.409983 
L 51.997289 37.603201 
L 51.256527 37.028038 
L 50.515766 36.452876 
L 49.940305 35.922275 
L 49.542924 35.436237 
L 49.077938 34.861074 
L 48.326047 33.755311 
L 47.928666 33.136623 
L 47.442245 32.870286 
L 46.977259 32.803961 
L 46.358103 32.937648 
L 45.672992 33.202948 
L 44.987468 33.600898 
L 44.301944 33.998849 
L 43.705048 34.330474 
L 42.930896 34.662099 
L 42.0574 34.916518 
L 41.183903 35.170937 
L 40.199931 35.436237 
L 39.215959 35.701537 
L 38.065862 35.922275 
L 37.446706 36.033163 
L 37.181236 36.275664 
L 37.336231 36.540964 
L 37.822652 36.740975 
L 39.14918 37.028038 
L 39.878811 37.094364 
L 41.051168 37.160689 
L 42.444476 37.094364 
L 43.240062 37.028038 
L 44.025344 36.917669 
L 44.810625 36.8073 
L 45.340741 36.829063 
L 45.805727 36.829063 
L 46.314408 37.138926 
L 46.645834 37.713052 
L 46.813195 38.236398 
L 47.10546 39.146813 
L 47.397725 40.057228 
L 47.673913 41.217917 
L 47.950101 42.378606 
L 48.127356 43.396281 
L 48.171876 44.059531 
L 47.994621 45.276182 
L 47.817778 46.425989 
L 47.640935 47.575796 
L 47.623622 47.87115 
L 47.577041 48.674305 
L 47.53046 49.47746 
L 47.452963 50.284242 
L 47.375465 51.091024 
L 46.778569 52.307675 
L 46.380363 52.937763 
L 45.982158 53.567851 
L 45.805727 54.209338 
L 45.606212 55.358627 
L 45.473477 56.176809 
L 45.340741 56.994991 
L 45.452041 57.989867 
L 45.457812 58.314238 
L 45.339917 58.459324 
L 45.175028 58.511141 
L 44.976338 58.511141 
L 44.766105 58.476942 
L 44.324204 58.344292 
L 43.505533 58.056192 
L 42.643166 57.879498 
L 41.780799 57.702804 
L 40.741178 56.906903 
L 40.188389 56.420347 
L 39.635601 55.93379 
L 39.105072 55.458633 
L 38.574543 54.983476 
L 37.778956 54.430077 
L 36.694815 53.932639 
L 35.434242 53.700501 
" style="fill:none;stroke:#4169e1;stroke-linecap:square;stroke-width:0.4;"/>
   </g>
   <g id="line2d_3">
    <path clip-path="url(#p7246b68d6f)" d="M 44.675416 19.618746 
L 44.67789 19.094364 
L 44.589674 18.762738 
L 44.213729 18.431113 
L 43.748743 18.431113 
L 43.329102 18.762738 
L 42.908637 19.691289 
L 42.471888 20.63124 
L 42.03514 21.57119 
L 41.598392 22.511141 
L 41.161643 23.451091 
L 40.498379 24.202948 
L 39.835116 24.954805 
L 38.817754 25.761587 
L 37.800392 26.568369 
L 37.131563 27.121251 
L 36.462734 27.674132 
L 35.793905 28.227014 
L 35.125077 28.779895 
L 34.284145 29.554033 
" style="fill:none;stroke:#4169e1;stroke-linecap:square;stroke-width:0.4;"/>
   </g>
   <g id="line2d_4">
    <path clip-path="url(#p7246b68d6f)" d="M 25.914407 6.633543 
L 25.306381 6.169267 
L 24.698355 5.704992 
L 23.880096 5.218435 
L 23.061837 4.731879 
L 21.911739 4.025102 
L 20.784727 3.604353 
L 19.457375 3.272727 
L 18.153107 3.383614 
L 16.914795 3.692441 
L 16.184751 4.024584 
L 15.454707 4.356728 
L 14.68138 5.328804 
L 14.183417 6.578617 
L 13.940207 7.927918 
L 13.376288 8.646612 
L 12.81237 9.365306 
L 12.358926 10.138926 
L 11.905483 10.912545 
L 11.397214 12.128678 
L 10.888946 13.34481 
L 10.601215 14.251598 
L 10.313485 15.158386 
L 10.037091 16.175543 
L 9.760696 17.1927 
L 9.484302 18.209857 
L 9.207908 19.227014 
L 8.843092 20.001151 
L 8.478276 20.775289 
L 8.113461 21.549427 
L 7.748645 22.323565 
L 7.21791 23.019978 
L 6.687175 23.716391 
L 6.156441 24.412804 
L 5.625706 25.109218 
L 5.083841 25.960562 
L 4.541976 26.811906 
L 4.000112 27.663251 
L 3.458247 28.514595 
L 2.971826 29.487708 
L 2.839091 30.636997 
L 2.971826 31.632391 
L 3.104561 32.627785 
L 3.380956 33.335339 
L 3.65735 34.042893 
L 3.933744 34.750446 
L 4.210138 35.458 
L 4.652452 36.226438 
L 5.094765 36.994876 
L 5.537078 37.763314 
L 5.979392 38.531752 
L 6.421705 39.30019 
L 6.864018 40.068628 
L 7.306332 40.837066 
L 7.748645 41.605504 
" style="fill:none;stroke:#ff0000;stroke-linecap:square;stroke-width:0.4;"/>
   </g>
   <g id="line2d_5">
    <path clip-path="url(#p7246b68d6f)" d="M 25.914407 6.633543 
L 25.162516 6.500892 
L 24.410624 6.368242 
L 23.084096 6.102942 
L 22.113728 6.009672 
L 21.713049 5.970292 
L 20.386521 6.059416 
L 19.258684 6.346479 
L 18.130847 6.633543 
L 16.892535 7.076055 
L 15.697918 7.297829 
L 14.581623 7.573493 
L 13.940207 7.927918 
L 13.829731 8.458518 
L 13.685866 9.486557 
L 13.542001 10.514595 
L 13.531077 11.50973 
L 13.520153 12.504865 
L 13.509229 13.5 
L 13.498306 14.495135 
L 13.420808 15.589758 
L 13.34331 16.68438 
L 13.265813 17.779003 
L 13.188315 18.873625 
L 12.956235 19.72497 
L 12.724154 20.576314 
L 12.492074 21.427658 
L 12.259993 22.279003 
L 12.025852 23.042259 
L 11.79171 23.805516 
L 11.557568 24.568772 
L 11.323427 25.332028 
L 11.242631 25.596292 
L 10.811448 26.591168 
L 10.380265 27.586044 
L 9.949081 28.58092 
L 9.517898 29.575796 
L 9.152876 30.493465 
L 8.787854 31.411135 
L 8.422833 32.328804 
L 8.057811 33.246474 
L 7.792752 34.396281 
L 7.527694 35.546088 
L 7.461327 36.651851 
L 7.394959 37.757614 
L 7.483381 38.719587 
L 7.571802 39.681559 
L 7.660223 40.643532 
L 7.748645 41.605504 
" style="fill:none;stroke:#000000;stroke-linecap:square;stroke-width:0.4;"/>
   </g>
   <g id="line2d_6">
    <path clip-path="url(#p7246b68d6f)" d="M 46.048937 19.293339 
L 46.424883 20.001151 
L 46.557618 21.085152 
L 46.711789 22.38989 
L 46.944282 23.639185 
L 47.176774 24.888479 
L 47.27612 26.126893 
L 47.375465 27.365306 
L 47.342487 28.691807 
L 47.30951 30.018308 
L 47.215111 30.809028 
L 47.120712 31.599747 
L 46.977259 32.803961 
" style="fill:none;stroke:#000000;stroke-linecap:square;stroke-width:0.4;"/>
   </g>
   <g id="line2d_7">
    <path clip-path="url(#p7246b68d6f)" d="M 34.284145 29.554033 
L 33.654271 30.250446 
L 33.024398 30.946859 
L 32.161619 31.897691 
L 31.29884 32.848523 
L 30.458733 33.799355 
L 29.618626 34.750187 
L 28.933103 35.446859 
L 28.247579 36.143532 
L 27.562055 36.840204 
L 26.876531 37.536876 
L 26.334666 38.045455 
L 25.792802 38.554033 
L 25.250937 39.062612 
L 24.709072 39.57119 
L 24.04045 40.151534 
L 23.371827 40.731879 
" style="fill:none;stroke:#000000;stroke-linecap:square;stroke-width:0.4;"/>
   </g>
   <g id="line2d_8">
    <path clip-path="url(#p7246b68d6f)" d="M 37.181236 36.275664 
L 35.898403 36.696413 
L 35.014601 37.227014 
L 34.48366 38.111002 
L 34.328871 38.807675 
L 34.174082 39.504347 
L 34.019293 40.201019 
L 33.864504 40.897691 
L 33.621294 42.180149 
L 33.378083 43.462606 
L 33.112613 44.148137 
L 32.847142 44.833669 
L 32.581672 45.519201 
L 32.316202 46.204733 
L 31.719305 47.398584 
L 31.122409 48.592435 
L 30.702356 49.344292 
L 30.282302 50.096148 
L 29.95335 51.056825 
L 29.751362 51.777074 
L 29.53577 52.857447 
L 29.320178 53.93782 
L 28.839528 55.018711 
L 28.004368 56.011515 
" style="fill:none;stroke:#000000;stroke-linecap:square;stroke-width:0.4;"/>
   </g>
   <g id="line2d_9">
    <path clip-path="url(#p7246b68d6f)" d="M 36.429344 35.015487 
L 36.650295 35.7233 
L 37.181236 36.275664 
" style="fill:none;stroke:#008000;stroke-linecap:square;stroke-width:0.4;"/>
   </g>
   <g id="line2d_10">
    <path clip-path="url(#p7246b68d6f)" d="M 42.908637 19.691289 
L 43.074349 20.476827 
L 43.2582 21.296563 
L 43.442051 22.116299 
L 43.478326 22.715297 
L 43.372798 23.428292 
L 42.676556 24.500892 
L 41.980314 25.573493 
L 41.526871 26.424837 
L 41.073428 27.276182 
L 40.675222 27.983994 
L 40.277017 28.691807 
L 39.547385 29.863895 
L 38.817754 31.035984 
L 38.242705 31.765559 
L 37.667657 32.495135 
L 37.358079 33.125223 
L 37.048501 33.755311 
L 36.738922 34.385399 
L 36.429344 35.015487 
L 35.898816 35.7233 
L 35.368287 36.431113 
L 35.014601 37.227014 
" style="fill:none;stroke:#ff0000;stroke-linecap:square;stroke-width:0.4;"/>
   </g>
   <g id="line2d_11">
    <path clip-path="url(#p7246b68d6f)" d="M 43.372798 23.428292 
L 43.848501 24.479129 
L 44.279684 25.27503 
L 44.710867 26.070931 
L 44.942948 26.745581 
L 45.175028 27.420231 
L 45.352284 28.370545 
L 45.528714 29.454545 
L 45.9937 30.427658 
L 46.557206 31.013703 
L 47.120712 31.599747 
" style="fill:none;stroke:#000000;stroke-linecap:square;stroke-width:0.4;"/>
   </g>
   <g id="line2d_12">
    <path clip-path="url(#p7246b68d6f)" d="M 44.213729 18.431113 
L 43.31756 18 
L 42.521973 17.779262 
L 41.836037 17.424837 
L 40.99593 16.894237 
L 40.496318 16.452761 
L 39.669403 15.722149 
L 38.961207 15.169785 
L 38.220445 14.650066 
L 37.479684 14.130347 
L 36.70141 13.611664 
L 35.923137 13.092982 
L 35.356745 12.714722 
L 34.759849 12.328171 
L 34.162952 11.94162 
L 33.698791 11.807934 
L 33.233806 11.807934 
L 32.9469 12.007945 
L 32.90238 12.449421 
L 33.195469 13.289884 
L 33.488559 14.130347 
L 33.566056 14.351085 
L 33.930872 15.291036 
L 34.295688 16.230986 
L 34.660503 17.170937 
L 35.025319 18.110887 
L 35.445785 19.304738 
L 35.622215 19.857102 
L 35.710431 20.344176 
L 35.754951 20.962865 
L 35.743821 22.190397 
L 35.732691 23.417928 
L 35.644475 24.301917 
L 35.51174 24.987967 
L 35.26853 25.982843 
L 34.870324 26.999482 
L 34.538898 27.950832 
L 34.389674 28.597501 
L 34.397918 29.09183 
L 34.284145 29.554033 
L 34.068966 29.542633 
L 33.852962 29.26697 
L 33.758976 28.962289 
L 33.643554 28.58092 
L 33.588316 28.083482 
L 33.609752 27.531119 
L 33.609752 26.866832 
L 33.566056 25.938281 
L 33.233806 24.987967 
L 32.548694 24.125741 
L 32.283224 23.882204 
L 31.564722 23.484254 
L 30.846221 23.086303 
L 30.252622 22.909091 
L 28.921973 22.511141 
L 27.971391 22.046865 
L 27.109024 21.383614 
L 26.423088 20.521389 
L 25.936667 19.702689 
L 25.494766 18.8187 
L 25.08543 18.188094 
L 24.676095 17.557487 
L 24.189674 16.983361 
L 23.282787 16.319074 
L 22.50946 16.010248 
L 22.08817 15.951177 
L 21.558054 15.877598 
L 20.806162 16.053774 
L 20.165571 16.6507 
L 19.756235 17.424837 
L 19.346899 18.198975 
L 18.838219 19.127526 
L 18.329538 20.056077 
L 17.986982 20.697565 
L 17.644426 21.339052 
L 17.068965 22.024066 
L 16.185163 22.754678 
L 15.676482 23.196154 
L 15.621245 23.428292 
L 15.676482 23.66043 
L 16.007908 23.738154 
L 16.406114 23.638667 
L 17.00301 23.218953 
L 17.489431 22.887328 
L 18.462273 22.179515 
L 19.015474 21.825091 
L 19.61237 21.626115 
L 20.231526 21.58259 
L 20.983417 21.825091 
L 22.044475 22.24584 
L 22.4872 22.577466 
L 22.796366 23.019978 
L 22.973621 23.638667 
L 23.039577 24.235592 
L 22.951361 25.054292 
L 22.752671 26.070931 
L 22.708151 26.624331 
L 22.752671 27.132132 
L 22.906841 27.751857 
L 23.282787 28.503195 
L 23.525998 29.189245 
L 23.568044 29.604813 
L 23.592777 29.852496 
L 23.525998 30.626634 
L 23.525998 31.666072 
L 23.548257 32.483735 
L 23.437782 32.948011 
L 23.216832 33.501411 
L 23.039577 33.987449 
L 23.006599 34.319074 
L 23.028859 34.816512 
L 23.128616 35.955438 
L 23.1618 36.712735 
L 23.194984 37.470033 
L 23.228168 38.22733 
L 23.261352 38.984628 
L 23.316589 39.858253 
L 23.371827 40.731879 
" style="fill:none;stroke:#4169e1;stroke-linecap:square;stroke-width:0.4;"/>
   </g>
   <g id="line2d_13">
    <path clip-path="url(#p7246b68d6f)" d="M 33.698791 11.807934 
L 32.891662 11.156083 
L 32.084533 10.504232 
L 31.24422 9.95135 
L 30.403908 9.398469 
L 29.563595 8.845587 
L 28.723282 8.292705 
L 28.021063 7.877915 
L 27.318844 7.463124 
L 26.616626 7.048333 
L 25.914407 6.633543 
" style="fill:none;stroke:#008000;stroke-linecap:square;stroke-width:0.4;"/>
   </g>
   <g id="line2d_14">
    <path clip-path="url(#p7246b68d6f)" d="M 16.892535 7.076055 
L 17.2017 8.22638 
L 17.710381 9.332143 
L 18.003471 10.006535 
L 18.29656 10.680926 
L 18.589649 11.355317 
L 18.882738 12.029708 
L 19.280532 13.002821 
L 19.678325 13.975934 
L 20.242244 15.014854 
L 20.806162 16.053774 
" style="fill:none;stroke:#000000;stroke-linecap:square;stroke-width:0.4;"/>
   </g>
   <g id="line2d_15">
    <path clip-path="url(#p7246b68d6f)" d="M 22.113728 6.009672 
L 21.933999 6.500892 
L 21.933999 7.40768 
L 21.933999 8.314468 
L 21.978313 9.088347 
L 22.022627 9.862226 
L 22.066941 10.636105 
L 22.111255 11.409983 
L 22.177622 12.726121 
L 22.24399 14.042259 
L 22.16608 14.996718 
L 22.08817 15.951177 
" style="fill:none;stroke:#000000;stroke-linecap:square;stroke-width:0.4;"/>
   </g>
   <g id="line2d_16">
    <path clip-path="url(#p7246b68d6f)" d="M 32.084533 10.504232 
L 31.199907 10.547757 
L 30.779441 10.85762 
L 30.381235 11.25557 
L 30.09433 11.918821 
L 29.939334 12.604353 
L 29.784339 13.289884 
L 29.408394 14.130347 
L 29.010188 14.793598 
L 28.413292 15.280672 
L 27.48497 15.943923 
L 26.622603 16.474524 
L 25.760236 17.005124 
L 24.676095 17.557487 
" style="fill:none;stroke:#000000;stroke-linecap:square;stroke-width:0.4;"/>
   </g>
   <g id="line2d_17">
    <path clip-path="url(#p7246b68d6f)" d="M 22.08817 15.951177 
L 21.978107 17.075076 
L 21.868044 18.198975 
L 21.764164 18.955495 
L 21.660285 19.712016 
L 21.558054 20.455064 
L 21.309278 21.333871 
L 21.060503 22.212678 
L 20.811727 23.091485 
L 20.562952 23.970292 
L 20.181441 24.87138 
L 19.79993 25.772468 
L 19.41842 26.673556 
L 19.036909 27.574644 
" style="fill:none;stroke:#4169e1;stroke-linecap:square;stroke-width:0.4;"/>
   </g>
   <g id="line2d_18">
    <path clip-path="url(#p7246b68d6f)" d="M 24.676095 17.557487 
L 23.615037 18.177212 
L 22.863146 18.641488 
L 22.155774 19.260176 
L 21.660285 19.712016 
" style="fill:none;stroke:#000000;stroke-linecap:square;stroke-width:0.4;"/>
   </g>
   <g id="line2d_19">
    <path clip-path="url(#p7246b68d6f)" d="M 20.806162 16.053774 
L 21.204368 16.717025 
L 21.580314 17.513962 
L 21.868044 18.198975 
" style="fill:none;stroke:#4169e1;stroke-linecap:square;stroke-width:0.4;"/>
   </g>
   <g id="line2d_20">
    <path clip-path="url(#p7246b68d6f)" d="M 15.676482 23.66043 
L 15.6872 24.788992 
L 15.697918 25.805631 
L 15.668959 26.702574 
L 15.640001 27.599516 
L 15.611042 28.496459 
L 15.582084 29.393402 
L 15.553125 30.290345 
L 15.524166 31.187288 
L 15.495208 32.084231 
L 15.466249 32.981173 
" style="fill:none;stroke:#000000;stroke-linecap:square;stroke-width:0.4;"/>
   </g>
   <g id="line2d_21">
    <path clip-path="url(#p7246b68d6f)" d="M 40.496318 16.452761 
L 39.81739 16.811849 
L 39.138462 17.170937 
L 38.3977 17.612931 
L 37.656939 18.054925 
L 37.09302 18.519719 
L 36.529102 18.984513 
L 35.754951 19.835857 
L 34.980799 20.687201 
L 34.17367 21.803846 
L 33.366541 22.920491 
L 32.824882 23.401347 
L 32.283224 23.882204 
" style="fill:none;stroke:#000000;stroke-linecap:square;stroke-width:0.4;"/>
   </g>
   <g id="line2d_22">
    <path clip-path="url(#p7246b68d6f)" d="M 35.923137 13.092982 
L 35.135794 13.256722 
L 34.273428 13.588347 
L 33.488559 14.130347 
L 32.836425 14.937648 
L 32.238704 16.131499 
L 32.017753 16.855634 
L 31.796803 17.579769 
L 31.575852 18.303904 
L 31.354902 19.028038 
L 31.067171 20.177846 
L 30.779441 21.327653 
L 30.516032 22.118372 
L 30.252622 22.909091 
" style="fill:none;stroke:#000000;stroke-linecap:square;stroke-width:0.4;"/>
   </g>
   <g id="line2d_23">
    <path clip-path="url(#p7246b68d6f)" d="M 32.283224 23.882204 
L 31.974058 24.20243 
L 31.465377 24.46773 
L 31.022652 24.534055 
L 30.160285 24.357879 
L 29.541129 24.401405 
L 28.988752 24.60038 
L 28.480071 24.822154 
L 28.015086 25.220105 
L 27.573185 25.618055 
L 27.086764 26.082331 
L 26.445348 27.077207 
L 25.803932 27.962232 
L 24.78657 28.801658 
L 24.177307 29.203236 
L 23.568044 29.604813 
" style="fill:none;stroke:#ff0000;stroke-linecap:square;stroke-width:0.4;"/>
   </g>
   <g id="line2d_24">
    <path clip-path="url(#p7246b68d6f)" d="M 30.252622 22.909091 
L 29.828859 23.340204 
L 29.297918 23.827278 
L 28.811497 24.401405 
L 28.480071 24.822154 
" style="fill:none;stroke:#ff0000;stroke-linecap:square;stroke-width:0.4;"/>
   </g>
   <g id="line2d_25">
    <path clip-path="url(#p7246b68d6f)" d="M 15.676482 23.196154 
L 15.133999 23.560942 
L 14.360672 23.959929 
L 13.376288 24.268755 
L 12.801652 24.512292 
L 11.939285 24.932005 
L 11.323427 25.332028 
" style="fill:none;stroke:#008000;stroke-linecap:square;stroke-width:0.4;"/>
   </g>
   <g id="line2d_26">
    <path clip-path="url(#p7246b68d6f)" d="M 19.036909 27.574644 
L 18.791019 28.329351 
L 18.545129 29.084058 
L 18.299239 29.838764 
L 18.053349 30.593471 
L 17.947821 30.882607 
L 17.55415 31.938108 
L 17.160478 32.993609 
L 16.797724 34.063101 
L 16.434969 35.132593 
L 16.242462 35.877195 
L 16.049955 36.621797 
L 15.967923 37.521331 
L 15.885891 38.420865 
L 15.841783 39.548909 
L 15.797675 40.676953 
" style="fill:none;stroke:#4169e1;stroke-linecap:square;stroke-width:0.4;"/>
   </g>
   <g id="line2d_27">
    <path clip-path="url(#p7246b68d6f)" d="M 15.466249 32.981173 
L 15.532617 33.815936 
L 15.598985 34.6507 
L 15.670711 35.593241 
L 15.742438 36.535782 
L 15.814164 37.478323 
L 15.885891 38.420865 
" style="fill:none;stroke:#008000;stroke-linecap:square;stroke-width:0.4;"/>
   </g>
   <g id="line2d_28">
    <path clip-path="url(#p7246b68d6f)" d="M 23.568044 29.604813 
L 22.785648 29.885658 
L 22.144232 29.996546 
L 20.9727 29.996546 
L 20.065813 30.172722 
L 19.114407 30.394496 
L 18.49525 30.593471 
L 17.947821 30.882607 
" style="fill:none;stroke:#000000;stroke-linecap:square;stroke-width:0.4;"/>
   </g>
   <g id="line2d_29">
    <path clip-path="url(#p7246b68d6f)" d="M 15.797675 40.676953 
L 15.797675 41.395388 
L 15.797675 42.113823 
L 15.797675 42.832259 
L 15.797675 43.550694 
L 15.797675 44.899476 
L 15.797675 46.248258 
L 15.93041 47.143906 
L 16.063146 48.039553 
L 16.195881 48.935201 
L 16.328616 49.830848 
L 16.328616 50.626749 
L 16.328616 51.42265 
L 16.328616 52.21855 
L 16.328616 53.014451 
L 16.239989 54.053889 
L 16.151361 55.093327 
L 16.096123 55.911509 
L 16.040886 56.729691 
L 15.985648 57.547873 
L 15.93041 58.366054 
L 15.90815 59.272842 
L 15.885891 60.17963 
L 15.797675 60.975531 
L 15.70946 61.771432 
L 15.626603 62.495308 
L 15.543747 63.219184 
L 15.112564 64.147734 
L 14.548645 64.75606 
L 14.227937 65.264897 
L 14.199906 65.57476 
L 14.305435 65.84006 
L 14.471148 66.160286 
L 14.890789 66.392423 
L 15.459654 66.615234 
" style="fill:none;stroke:#008000;stroke-linecap:square;stroke-width:0.4;"/>
   </g>
   <g id="line2d_30">
    <path clip-path="url(#p7246b68d6f)" d="M 23.371827 40.731879 
L 22.592317 41.870804 
L 21.812806 43.00973 
L 21.248888 44.048909 
L 20.684969 45.088088 
L 20.121051 46.127267 
L 19.557132 47.166446 
L 19.148003 48.106137 
L 18.738873 49.045829 
L 18.329744 49.98552 
L 17.920614 50.925212 
L 17.478301 51.96724 
L 17.035988 53.009269 
L 16.593674 54.051298 
L 16.151361 55.093327 
" style="fill:none;stroke:#4169e1;stroke-linecap:square;stroke-width:0.4;"/>
   </g>
   <g id="line2d_31">
    <path clip-path="url(#p7246b68d6f)" d="M 7.748645 41.605504 
L 8.190958 42.661005 
L 8.633271 43.716506 
L 8.998087 44.346854 
L 9.362903 44.977201 
L 9.727719 45.607548 
L 10.092534 46.237895 
L 10.601215 47.022914 
L 11.109896 47.807934 
L 11.618577 48.592953 
L 12.127258 49.377972 
L 12.602549 49.963757 
L 13.07784 50.549542 
L 13.553131 51.135327 
L 14.028422 51.721112 
L 14.603471 52.49525 
L 15.178519 53.269388 
L 15.66494 54.181358 
L 16.151361 55.093327 
" style="fill:none;stroke:#008000;stroke-linecap:square;stroke-width:0.4;"/>
   </g>
   <g id="line2d_32">
    <path clip-path="url(#p7246b68d6f)" d="M 47.623622 47.87115 
L 46.78805 48.221688 
L 45.952478 48.572226 
L 45.116905 48.922765 
L 44.281333 49.273303 
L 43.617863 49.549744 
L 42.954393 49.826185 
L 42.290923 50.102625 
L 41.627453 50.379066 
L 40.610916 50.922103 
L 39.836764 51.336116 
L 39.062613 51.75013 
L 38.558054 52.030975 
L 37.85934 52.421153 
L 37.160625 52.811331 
L 36.553835 53.124302 
L 35.434242 53.700501 
L 34.374834 54.005182 
L 33.289044 54.264264 
L 32.194596 54.518683 
L 31.100149 54.773102 
L 30.326204 55.082705 
L 29.552259 55.392308 
L 28.778313 55.701911 
L 28.004368 56.011515 
L 27.296791 56.34314 
L 26.589213 56.674765 
L 25.881635 57.006391 
L 25.174058 57.338016 
L 24.156696 57.890898 
L 23.139334 58.443779 
L 22.121972 58.863492 
L 21.10461 59.283206 
L 20.386109 59.570787 
L 19.667607 59.858368 
L 18.949106 60.14595 
L 18.230605 60.433531 
L 17.589188 60.875525 
L 16.947772 61.31752 
L 16.157132 62.091658 
L 15.543747 63.219184 
" style="fill:none;stroke:#4169e1;stroke-linecap:square;stroke-width:0.4;"/>
   </g>
   <g id="line2d_33">
    <path clip-path="url(#p7246b68d6f)" d="M 34.374834 54.005182 
L 33.842244 54.662214 
L 33.444039 55.171052 
L 32.714407 56.232253 
L 32.139359 57.127641 
L 31.56431 58.02303 
L 30.989674 58.852093 
L 30.415038 59.681156 
L 29.684582 60.411768 
L 28.888995 60.566181 
L 27.672942 60.587944 
L 26.32333 60.521619 
L 25.604829 60.41125 
L 24.886327 60.300881 
L 23.924615 60.179112 
L 22.962903 60.057344 
L 22.111255 60.035581 
L 21.259606 60.013818 
L 20.557593 60.074443 
L 19.85558 60.135068 
L 19.043092 60.2843 
L 18.230605 60.433531 
" style="fill:none;stroke:#008000;stroke-linecap:square;stroke-width:0.4;"/>
   </g>
   <g id="line2d_34">
    <path clip-path="url(#p7246b68d6f)" d="M 28.74142 45.250273 
L 28.535309 44.180782 
L 28.048888 43.252231 
L 27.606163 42.965168 
L 27.031526 42.943405 
L 26.301895 43.00973 
L 25.572263 43.252231 
L 24.88674 43.572975 
L 24.201216 43.893719 
L 23.515692 44.214463 
L 22.830168 44.535206 
L 22.011909 45.082388 
L 21.19365 45.62957 
L 20.375391 46.398008 
L 19.557132 47.166446 
" style="fill:none;stroke:#4169e1;stroke-linecap:square;stroke-width:0.4;"/>
   </g>
   <g id="line2d_35">
    <path clip-path="url(#p7246b68d6f)" d="M 46.977259 32.803961 
L 46.778569 33.810237 
L 46.269888 34.827912 
L 45.993287 35.568369 
L 45.716687 36.308826 
L 45.340741 36.829063 
L 45.119791 37.500605 
L 44.89884 38.172146 
L 44.67789 38.843687 
L 44.456939 39.515228 
L 44.158285 40.167597 
L 43.859631 40.819967 
L 43.560977 41.472336 
L 43.262322 42.124705 
L 42.875247 42.73303 
L 42.488171 43.341355 
L 42.068118 44.31395 
L 41.648064 45.286545 
" style="fill:none;stroke:#ff0000;stroke-dasharray:1.48,0.64;stroke-dashoffset:0;stroke-width:0.4;"/>
   </g>
   <g id="line2d_36">
    <path clip-path="url(#p7246b68d6f)" d="M 57.538366 37.652945 
L 57.260528 38.454027 
L 56.729588 38.973746 
L 56.198647 39.493465 
L 55.581964 40.087282 
L 55.083176 40.608555 
L 54.584389 41.129829 
L 53.909995 41.759917 
L 53.235601 42.390005 
L 52.671683 43.014653 
L 52.107764 43.6393 
L 51.543845 44.263947 
L 50.979927 44.888595 
L 50.316663 45.49692 
L 49.653399 46.105245 
L 48.638511 46.988197 
L 47.623622 47.87115 
" style="fill:none;stroke:#000000;stroke-linecap:square;stroke-width:0.4;"/>
   </g>
   <g id="line2d_37">
    <path clip-path="url(#p7246b68d6f)" d="M 58.144331 41.937129 
L 58.155461 42.691577 
L 58.166591 43.446025 
L 58.133613 44.333122 
L 58.426702 45.152859 
L 58.719791 45.972595 
L 59.361208 47.078358 
L 59.615136 47.741609 
L 59.620907 48.293972 
L 59.493943 48.670159 
L 58.719791 49.643272 
L 57.857425 50.527779 
L 56.995058 51.412286 
L 55.988826 52.340837 
L 54.982594 53.269388 
L 54.485043 53.82227 
L 53.987492 54.375151 
L 53.423574 54.994358 
L 52.859655 55.613564 
L 52.339844 56.144165 
L 51.820034 56.674765 
L 51.245397 57.39346 
L 50.670761 58.112154 
L 50.13982 58.576429 
L 49.144718 59.150556 
L 48.127356 59.394093 
L 47.066299 59.394093 
L 46.303278 59.161955 
L 45.540256 58.929817 
L 44.766105 58.476942 
" style="fill:none;stroke:#ff0000;stroke-dasharray:1.48,0.64;stroke-dashoffset:0;stroke-width:0.4;"/>
   </g>
   <g id="line2d_38">
    <path clip-path="url(#p7246b68d6f)" d="M 47.375465 51.091024 
L 46.138802 50.865104 
L 45.320543 50.821061 
L 44.502284 50.777017 
L 43.673307 50.766135 
L 42.84433 50.755254 
L 41.86077 50.728309 
L 40.610916 50.922103 
" style="fill:none;stroke:#4169e1;stroke-linecap:square;stroke-width:0.4;"/>
   </g>
   <g id="line2d_39">
    <path clip-path="url(#p7246b68d6f)" d="M 41.648064 45.286545 
L 41.427938 46.329092 
L 41.207812 47.371639 
L 40.953472 48.212102 
L 40.699131 49.052565 
L 40.091517 50.219471 
L 39.457521 51.146986 
L 38.558054 52.030975 
" style="fill:none;stroke:#008000;stroke-linecap:square;stroke-width:0.4;"/>
   </g>
   <g id="line2d_40">
    <path clip-path="url(#p7246b68d6f)" d="M 37.822652 36.740975 
L 37.624373 37.821867 
L 37.426095 38.902758 
L 37.271512 39.98624 
L 37.116929 41.069722 
L 37.094669 42.175485 
L 37.072409 43.281248 
L 37.061279 44.276124 
L 37.050149 45.271 
L 37.039019 46.265876 
L 37.027889 47.260752 
L 37.116517 48.476884 
L 37.205145 49.693016 
L 37.116517 50.467154 
L 37.027889 51.241292 
L 36.790862 52.182797 
L 36.553835 53.124302 
" style="fill:none;stroke:#000000;stroke-linecap:square;stroke-width:0.4;"/>
   </g>
   <g id="line2d_41">
    <path clip-path="url(#p7246b68d6f)" d="M 41.780799 57.702804 
L 40.930387 58.098163 
L 40.079975 58.493523 
L 38.974398 58.582129 
L 37.868821 58.670735 
L 36.917826 58.86971 
L 35.966832 59.068686 
L 35.126725 59.333986 
L 34.286619 59.599286 
L 33.335625 59.798261 
L 32.38463 59.997236 
L 31.034606 60.204502 
L 29.684582 60.411768 
" style="fill:none;stroke:#008000;stroke-linecap:square;stroke-width:0.4;"/>
   </g>
   <g id="line2d_42">
    <path clip-path="url(#p7246b68d6f)" d="M 28.74142 45.250273 
L 29.114892 45.182912 
L 29.389431 45.326962 
L 29.598015 45.602625 
L 29.77527 46.166388 
L 30.007763 47.213081 
L 30.146269 47.983073 
L 30.1743 48.753066 
L 30.063825 49.904946 
L 29.95335 51.056825 
" style="fill:none;stroke:#4169e1;stroke-linecap:square;stroke-width:0.4;"/>
   </g>
   <g id="line2d_43">
    <path clip-path="url(#p7246b68d6f)" d="M 58.133613 44.333122 
L 57.917609 44.842996 
L 57.569694 45.132132 
L 56.67435 45.784501 
L 55.779006 46.43687 
L 54.772774 47.056077 
L 53.766542 47.675284 
L 52.682812 48.382578 
L 51.599083 49.089873 
L 50.825344 49.631873 
L 50.051605 50.173873 
L 49.38257 50.403161 
L 48.713535 50.632449 
L 48.0445 50.861736 
L 47.375465 51.091024 
" style="fill:none;stroke:#ff0000;stroke-linecap:square;stroke-width:0.4;"/>
   </g>
  </g>
 </g>
 <defs>
  <clipPath id="p7246b68d6f">
   <rect height="72" width="62.459998" x="0" y="0"/>
  </clipPath>
 </defs>
</svg>
