<?xml version="1.0" encoding="utf-8" standalone="no"?>
<!DOCTYPE svg PUBLIC "-//W3C//DTD SVG 1.1//EN"
  "http://www.w3.org/Graphics/SVG/1.1/DTD/svg11.dtd">
<svg height="72pt" version="1.1" viewBox="0 0 77.779433 72" width="77.779433pt" xmlns="http://www.w3.org/2000/svg" xmlns:xlink="http://www.w3.org/1999/xlink">
 <metadata>
  <rdf:RDF xmlns:cc="http://creativecommons.org/ns#" xmlns:dc="http://purl.org/dc/elements/1.1/" xmlns:rdf="http://www.w3.org/1999/02/22-rdf-syntax-ns#">
   <cc:Work>
    <dc:type rdf:resource="http://purl.org/dc/dcmitype/StillImage"/>
    <dc:date>2022-05-22T19:41:22.031749</dc:date>
    <dc:format>image/svg+xml</dc:format>
    <dc:creator>
     <cc:Agent>
      <dc:title>Matplotlib v3.4.3, https://matplotlib.org/</dc:title>
     </cc:Agent>
    </dc:creator>
   </cc:Work>
  </rdf:RDF>
 </metadata>
 <defs>
  <style type="text/css">*{stroke-linecap:butt;stroke-linejoin:round;}</style>
 </defs>
 <g id="figure_1">
  <g id="patch_1">
   <path d="M 0 72 
L 77.779433 72 
L 77.779433 0 
L 0 0 
z
" style="fill:#ffffff;"/>
  </g>
  <g id="axes_1">
   <g id="line2d_1">
    <path clip-path="url(#p2180ab2b8e)" d="M 58.69754 65.584365 
L 56.369598 63.049178 
L 54.041657 60.513991 
L 51.995312 58.284868 
L 49.948968 56.055744 
L 48.241043 54.195367 
L 46.533119 52.334989 
L 44.638542 50.271385 
L 42.743965 48.207781 
L 41.189246 46.514391 
L 39.634528 44.821002 
L 38.07981 43.127612 
L 36.525091 41.434223 
L 33.769539 38.43235 
L 30.826256 35.226271 
L 27.882972 32.020192 
L 26.277545 30.270977 
L 24.495895 28.330777 
L 21.695028 25.278955 
L 20.334874 23.792219 
" style="fill:none;stroke:#808080;stroke-linecap:square;stroke-width:0.4;"/>
   </g>
   <g id="line2d_2">
    <path clip-path="url(#p2180ab2b8e)" d="M 31.143457 68.727273 
L 29.864582 65.771432 
L 28.916574 63.575118 
L 27.968566 61.378805 
L 27.221237 59.649178 
L 26.254528 57.409281 
L 25.287819 55.169384 
L 23.798555 51.719923 
L 22.309291 48.270462 
L 20.893033 44.989949 
L 19.476776 41.709435 
L 17.782518 37.784964 
L 16.08826 33.860492 
L 14.945687 31.213653 
L 13.803115 28.566814 
L 12.817705 26.274029 
" style="fill:none;stroke:#808080;stroke-linecap:square;stroke-width:0.4;"/>
   </g>
   <g id="line2d_3">
    <path clip-path="url(#p2180ab2b8e)" d="M 36.002177 12.724955 
L 33.870688 11.543426 
L 31.739199 10.361898 
L 29.60771 9.180369 
L 27.476221 7.998841 
L 25.344732 6.817313 
L 23.213243 5.635784 
L 21.081754 4.454256 
L 18.950265 3.272727 
" style="fill:none;stroke:#808080;stroke-linecap:square;stroke-width:0.4;"/>
   </g>
   <g id="line2d_4">
    <path clip-path="url(#p2180ab2b8e)" d="M 20.334874 23.792219 
L 20.153796 24.860259 
L 19.972718 25.928299 
L 19.79164 26.996339 
L 19.610562 28.064379 
L 19.629623 28.887813 
L 19.648683 29.711247 
L 19.667744 30.534681 
L 19.686805 31.358115 
L 20.046264 32.03929 
L 20.405723 32.720466 
L 20.765182 33.401641 
L 21.124641 34.082817 
L 21.768214 34.518162 
L 22.411788 34.953507 
L 23.055361 35.388852 
L 23.698935 35.824197 
L 24.73973 36.543079 
L 25.780524 37.261962 
L 26.821319 37.980844 
L 27.862113 38.699727 
L 28.306807 39.324342 
L 28.7515 39.948957 
L 29.196193 40.573572 
L 29.640886 41.198186 
L 29.887239 42.277 
L 30.133592 43.355813 
L 30.275469 44.273515 
L 30.417347 45.191216 
L 30.559224 46.108918 
L 30.701102 47.026619 
L 31.117383 47.660539 
L 31.533665 48.294458 
L 31.949947 48.928377 
L 32.366229 49.562296 
L 33.085506 49.742017 
L 33.804784 49.921737 
L 34.524061 50.101458 
L 35.243339 50.281179 
L 35.967202 50.323783 
L 36.691065 50.366387 
L 37.414928 50.408991 
L 38.138791 50.451595 
L 38.862653 50.494199 
L 39.586516 50.536803 
L 40.310379 50.579407 
L 41.034242 50.622011 
L 41.772311 50.688243 
L 42.510379 50.754476 
L 43.248448 50.820708 
L 43.986517 50.88694 
L 44.724585 50.953172 
L 45.462654 51.019404 
L 46.200723 51.085637 
L 46.938791 51.151869 
L 47.790416 51.880545 
L 48.64204 52.609222 
L 49.493665 53.337898 
L 50.345289 54.066575 
L 51.0313 54.922819 
L 51.717311 55.779063 
L 52.403322 56.635307 
L 53.089333 57.491551 
L 53.775344 58.347795 
L 54.461355 59.204038 
L 55.147366 60.060282 
L 55.833377 60.916526 
L 56.191397 61.500006 
L 56.549418 62.083486 
L 56.907438 62.666966 
L 57.265458 63.250446 
L 57.623479 63.833926 
L 57.981499 64.417406 
L 58.339519 65.000886 
L 58.69754 65.584365 
" style="fill:none;stroke:#4169e1;stroke-linecap:square;stroke-width:0.4;"/>
   </g>
   <g id="line2d_5">
    <path clip-path="url(#p2180ab2b8e)" d="M 12.817705 26.274029 
L 11.861066 26.655017 
L 10.904427 27.036005 
L 9.947788 27.416993 
L 8.991149 27.797982 
L 8.573248 28.59693 
L 8.155348 29.395879 
L 7.737448 30.194828 
L 7.319548 30.993777 
L 7.101786 31.787094 
L 6.884025 32.580411 
L 6.666264 33.373728 
L 6.448503 34.167046 
L 6.34151 35.237534 
L 6.234518 36.308023 
L 6.127525 37.378511 
L 6.020533 38.449 
L 6.020533 39.325566 
L 6.020533 40.202133 
L 6.020533 41.078699 
L 6.020533 41.955266 
L 5.856537 42.668027 
L 5.692542 43.380788 
L 5.528547 44.093549 
L 5.364551 44.806311 
L 5.200556 45.519072 
L 5.036561 46.231833 
L 4.872566 46.944594 
L 4.70857 47.657356 
L 4.122 48.707277 
L 3.535429 49.757198 
L 3.56384 50.561778 
L 3.592252 51.366358 
L 3.676407 52.659172 
L 3.760563 53.951985 
L 3.874388 54.654462 
L 3.988214 55.35694 
L 4.10204 56.059417 
L 4.215865 56.761895 
L 5.259537 57.283427 
L 6.303209 57.80496 
L 7.226581 57.952115 
L 8.149954 58.099271 
L 9.073326 58.246426 
L 9.996699 58.393582 
L 10.826385 59.10316 
L 11.656072 59.812738 
L 11.977229 60.702526 
L 12.298387 61.592315 
L 12.619544 62.482103 
L 12.940701 63.371892 
L 13.395644 64.127747 
L 13.850587 64.883602 
L 14.30553 65.639457 
L 14.760473 66.395312 
L 15.824465 66.970712 
L 16.888456 67.546112 
L 17.952447 68.121511 
L 19.016438 68.696911 
L 19.715576 68.683567 
L 20.414714 68.670222 
L 21.113852 68.656878 
L 21.812989 68.643534 
L 22.512127 68.630189 
L 23.211265 68.616845 
L 23.910403 68.603501 
L 24.60954 68.590156 
L 25.371435 68.606071 
L 26.13333 68.621987 
L 26.895224 68.637902 
L 27.657119 68.653817 
L 28.528704 68.672181 
L 29.400288 68.690545 
L 30.271873 68.708909 
L 31.143457 68.727273 
" style="fill:none;stroke:#4169e1;stroke-linecap:square;stroke-width:0.4;"/>
   </g>
   <g id="line2d_6">
    <path clip-path="url(#p2180ab2b8e)" d="M 18.950265 3.272727 
L 18.815041 4.195815 
L 18.679817 5.118904 
L 19.493679 5.998898 
L 20.307542 6.878893 
L 21.121404 7.758887 
L 21.935267 8.638882 
L 22.493516 9.074104 
L 23.051765 9.509327 
L 23.610014 9.944549 
L 24.168264 10.379772 
L 24.726513 10.814995 
L 25.284762 11.250217 
L 25.843011 11.68544 
L 26.401261 12.120663 
L 27.593643 12.641216 
L 28.786025 13.161769 
L 29.978407 13.682322 
L 31.17079 14.202875 
L 31.918299 14.401572 
L 32.665808 14.600269 
L 33.413317 14.798965 
L 34.160826 14.997662 
L 34.908335 15.196358 
L 35.655845 15.395055 
L 36.403354 15.593751 
L 37.150863 15.792448 
L 37.855845 16.07623 
L 38.560827 16.360013 
L 39.265809 16.643795 
L 39.97079 16.927577 
L 40.675772 17.211359 
L 41.380754 17.495142 
L 42.085736 17.778924 
L 42.790718 18.062706 
L 43.585519 18.611662 
L 44.380321 19.160618 
L 45.175123 19.709574 
L 45.969924 20.25853 
L 46.45256 20.788388 
L 46.935195 21.318245 
L 47.41783 21.848103 
L 47.900465 22.37796 
L 48.288336 23.059136 
L 48.676206 23.740311 
L 49.064076 24.421486 
L 49.451947 25.102662 
L 49.679059 26.030157 
L 49.906171 26.957653 
L 50.133282 27.885149 
L 50.360394 28.812644 
L 50.493101 29.474721 
L 50.625808 30.136798 
L 50.805627 30.997939 
L 50.985446 31.85908 
L 51.165266 32.720221 
L 51.345085 33.581362 
L 51.884363 34.168025 
L 52.423642 34.754688 
L 52.96292 35.341351 
L 53.502198 35.928014 
L 54.230827 36.514677 
L 54.959455 37.10134 
L 55.688083 37.688003 
L 56.416711 38.274666 
L 57.116928 38.624558 
L 57.817144 38.97445 
L 58.517361 39.324342 
L 59.217577 39.674234 
L 60.258552 39.806698 
L 61.299526 39.939163 
L 62.340501 40.071627 
L 63.381475 40.204091 
L 64.204688 40.03392 
L 65.027901 39.863749 
L 65.851114 39.693577 
L 66.674327 39.523406 
L 67.459599 39.608614 
L 68.24487 39.693822 
L 69.030141 39.77903 
L 69.815412 39.864238 
L 70.35487 40.270936 
L 70.894328 40.677633 
L 71.433787 41.084331 
L 71.973245 41.491028 
L 72.313823 42.266961 
L 72.654401 43.042894 
L 72.994978 43.818827 
L 73.335556 44.594759 
L 73.562668 45.493607 
L 73.78978 46.392455 
L 74.016892 47.291303 
L 74.244004 48.190151 
L 74.16848 49.382576 
L 74.092956 50.575 
L 73.955574 51.740001 
L 73.818192 52.905002 
L 73.68081 54.070003 
L 73.543428 55.235004 
L 73.406046 56.400005 
L 73.268664 57.565006 
L 73.131282 58.730007 
L 72.9939 59.895008 
L 72.265451 59.766094 
L 71.537003 59.63718 
L 70.808555 59.508266 
L 70.080106 59.379352 
L 69.351658 59.250438 
L 68.62321 59.121524 
L 67.894761 58.99261 
L 67.166313 58.863696 
L 66.276747 59.781397 
L 65.38718 60.699099 
L 64.497614 61.6168 
L 63.608047 62.534502 
L 62.994234 62.915735 
L 62.38042 63.296968 
L 61.766607 63.678201 
L 61.152794 64.059433 
L 60.53898 64.440666 
L 59.925167 64.821899 
L 59.311353 65.203132 
L 58.69754 65.584365 
" style="fill:none;stroke:#000000;stroke-linecap:square;stroke-width:0.4;"/>
   </g>
   <g id="line2d_7">
    <path clip-path="url(#p2180ab2b8e)" d="M 31.143457 68.727273 
L 31.685792 67.732198 
L 32.354721 67.304199 
L 33.023649 66.876199 
L 34.201286 66.534877 
L 35.378923 66.193555 
L 36.55656 65.852232 
L 37.734197 65.51091 
L 38.94528 65.229821 
L 40.156364 64.948732 
L 41.367447 64.667643 
L 42.578531 64.386554 
L 43.689275 64.326566 
L 44.80002 64.266577 
L 45.910764 64.206589 
L 47.021508 64.1466 
L 47.757509 64.006056 
L 48.49351 63.865512 
L 49.22951 63.724967 
L 49.965511 63.584423 
L 50.701512 63.443878 
L 51.437512 63.303334 
L 52.173513 63.162789 
L 52.909514 63.022245 
L 53.632208 63.249711 
L 54.354902 63.477178 
L 55.077596 63.704644 
L 55.80029 63.932111 
L 56.524602 64.345175 
L 57.248915 64.758238 
L 57.973227 65.171302 
L 58.69754 65.584365 
" style="fill:none;stroke:#008000;stroke-linecap:square;stroke-width:0.4;"/>
   </g>
   <g id="line2d_8">
    <path clip-path="url(#p2180ab2b8e)" d="M 12.817705 26.274029 
L 13.822176 26.154052 
L 14.826647 26.034075 
L 15.181251 26.696397 
L 15.535855 27.358719 
L 15.890458 28.021041 
L 16.245062 28.683363 
L 16.499327 29.600085 
L 16.753591 30.516807 
L 17.007856 31.433529 
L 17.262121 32.350251 
L 17.40256 33.601195 
L 17.542999 34.852139 
L 17.683437 36.103082 
L 17.823876 37.354026 
L 17.818302 38.359874 
L 17.812728 39.365722 
L 17.807153 40.37157 
L 17.801579 41.377417 
L 17.797263 42.225581 
L 18.024735 42.961358 
L 18.252206 43.697136 
L 18.479678 44.432913 
L 18.707149 45.16869 
L 19.001513 46.098757 
L 19.295878 47.028823 
L 19.590242 47.95889 
L 19.884606 48.888956 
L 20.178971 49.819022 
L 20.473335 50.749089 
L 20.767699 51.679155 
L 21.062064 52.609222 
L 21.379085 53.286725 
L 21.696107 53.964227 
L 22.013128 54.64173 
L 22.33015 55.319233 
L 22.647171 55.996735 
L 22.964193 56.674238 
L 23.281215 57.351741 
L 23.598236 58.029243 
L 23.89332 58.660224 
L 24.188403 59.291205 
L 24.483487 59.922186 
L 24.778571 60.553167 
L 25.413153 61.556322 
L 26.047736 62.559476 
L 26.682318 63.562631 
L 27.316901 64.565785 
L 27.807448 65.340984 
L 28.297995 66.116182 
L 29.009361 66.768955 
L 29.720726 67.421727 
L 30.432092 68.0745 
L 31.143457 68.727273 
" style="fill:none;stroke:#4169e1;stroke-linecap:square;stroke-width:0.4;"/>
   </g>
   <g id="line2d_9">
    <path clip-path="url(#p2180ab2b8e)" d="M 32.705728 51.696417 
L 32.381873 52.894473 
L 32.058019 54.092529 
L 31.734164 55.290585 
L 31.410309 56.488641 
L 31.154786 57.382837 
L 30.899262 58.277033 
L 30.643739 59.171228 
L 30.388216 60.065424 
L 29.726121 61.153542 
L 29.064026 62.24166 
L 28.627245 62.822691 
L 28.190463 63.403723 
L 27.753682 63.984754 
L 27.316901 64.565785 
" style="fill:none;stroke:#000000;stroke-linecap:square;stroke-width:0.4;"/>
   </g>
   <g id="line2d_10">
    <path clip-path="url(#p2180ab2b8e)" d="M 7.319548 30.993777 
L 8.062382 32.017254 
L 8.805215 33.040731 
L 9.548049 34.064208 
L 10.290883 35.087685 
L 10.926545 35.750252 
L 11.562206 36.412819 
L 12.197868 37.075386 
L 12.833529 37.737952 
L 13.454535 38.192885 
L 14.075541 38.647819 
L 14.696548 39.102752 
L 15.317554 39.557685 
L 15.93856 40.012618 
L 16.559566 40.467551 
L 17.180573 40.922484 
L 17.801579 41.377417 
" style="fill:none;stroke:#4169e1;stroke-linecap:square;stroke-width:0.4;"/>
   </g>
   <g id="line2d_11">
    <path clip-path="url(#p2180ab2b8e)" d="M 58.146573 29.093733 
L 58.89606 29.856689 
L 59.645548 30.619644 
L 60.13061 31.3422 
L 60.615673 32.064755 
L 61.100736 32.78731 
L 61.585799 33.509865 
L 62.070861 34.232421 
L 62.555924 34.954976 
L 63.040987 35.677531 
L 63.52605 36.400087 
L 63.981173 36.96202 
L 64.436295 37.523953 
L 64.891418 38.085886 
L 65.346541 38.647819 
L 66.010434 39.085612 
L 66.674327 39.523406 
" style="fill:none;stroke:#ff0000;stroke-linecap:square;stroke-width:0.4;"/>
   </g>
   <g id="line2d_12">
    <path clip-path="url(#p2180ab2b8e)" d="M 32.366229 49.562296 
L 32.535978 50.629357 
L 32.705728 51.696417 
L 33.267843 52.619506 
L 33.829959 53.542594 
L 34.606059 54.45246 
L 35.38216 55.362326 
L 36.15826 56.272193 
L 36.93436 57.182059 
L 37.636915 57.951381 
L 38.339469 58.720703 
L 39.042023 59.490024 
L 39.744578 60.259346 
L 40.440479 60.761291 
L 41.13638 61.263235 
L 41.832281 61.76518 
L 42.528182 62.267124 
L 43.50496 62.748501 
L 44.481739 63.229878 
L 45.116681 63.459059 
L 45.751624 63.688239 
L 46.386566 63.91742 
L 47.021508 64.1466 
" style="fill:none;stroke:#000000;stroke-linecap:square;stroke-width:0.4;"/>
   </g>
   <g id="line2d_13">
    <path clip-path="url(#p2180ab2b8e)" d="M 42.790718 18.062706 
L 43.978605 17.998066 
L 45.166491 17.933425 
L 45.828766 18.25467 
L 46.491041 18.575914 
L 47.153316 18.897159 
L 47.81559 19.218403 
L 48.665417 20.094725 
L 49.515243 20.971046 
L 50.36507 21.847368 
L 51.214896 22.72369 
L 51.796971 23.653879 
L 52.379047 24.584068 
L 52.961122 25.514256 
L 53.543197 26.444445 
L 54.372884 27.260779 
L 55.20257 28.077112 
L 55.938571 28.331267 
L 56.674572 28.585422 
L 57.410573 28.839578 
L 58.146573 29.093733 
" style="fill:none;stroke:#008000;stroke-linecap:square;stroke-width:0.4;"/>
   </g>
   <g id="line2d_14">
    <path clip-path="url(#p2180ab2b8e)" d="M 29.640886 41.198186 
L 29.196013 42.002522 
L 28.75114 42.806857 
L 28.306267 43.611193 
L 27.861394 44.415528 
L 27.426051 45.654964 
L 26.990709 46.8944 
L 26.555366 48.133836 
L 26.120023 49.373271 
L 25.930853 50.206009 
L 25.741683 51.038748 
L 25.552513 51.871486 
L 25.363343 52.704224 
L 25.142705 53.369851 
L 24.922066 54.035479 
L 24.701428 54.701106 
L 24.48079 55.366734 
L 24.260151 56.032361 
L 24.039513 56.697989 
L 23.818875 57.363616 
L 23.598236 58.029243 
" style="fill:none;stroke:#000000;stroke-linecap:square;stroke-width:0.4;"/>
   </g>
   <g id="line2d_15">
    <path clip-path="url(#p2180ab2b8e)" d="M 6.020533 41.955266 
L 6.254657 43.139365 
L 6.488782 44.323464 
L 6.722907 45.507564 
L 6.957032 46.691663 
L 7.398668 47.695552 
L 7.840305 48.699441 
L 8.596445 49.569152 
L 9.352586 50.438863 
L 10.108726 51.308573 
L 10.864867 52.178284 
L 11.353256 52.733606 
L 11.841645 53.288928 
L 12.330035 53.84425 
L 12.818424 54.399572 
L 13.474046 55.476672 
L 14.129667 56.553771 
L 14.785289 57.630871 
L 15.44091 58.70797 
L 16.290736 59.684926 
L 17.140563 60.661881 
L 17.990389 61.638837 
L 18.840215 62.615792 
L 19.850621 63.258036 
L 20.861026 63.90028 
L 21.871431 64.542524 
L 22.881836 65.184769 
L 23.62449 65.612768 
L 24.367144 66.040768 
L 25.109798 66.468767 
L 25.852452 66.896767 
L 26.754786 67.775292 
L 27.657119 68.653817 
" style="fill:none;stroke:#000000;stroke-linecap:square;stroke-width:0.4;"/>
   </g>
  </g>
 </g>
 <defs>
  <clipPath id="p2180ab2b8e">
   <rect height="72" width="77.779433" x="0" y="0"/>
  </clipPath>
 </defs>
</svg>
