<?xml version="1.0" encoding="utf-8" standalone="no"?>
<!DOCTYPE svg PUBLIC "-//W3C//DTD SVG 1.1//EN"
  "http://www.w3.org/Graphics/SVG/1.1/DTD/svg11.dtd">
<svg height="116.827636pt" version="1.1" viewBox="0 0 72 116.827636" width="72pt" xmlns="http://www.w3.org/2000/svg" xmlns:xlink="http://www.w3.org/1999/xlink">
 <metadata>
  <rdf:RDF xmlns:cc="http://creativecommons.org/ns#" xmlns:dc="http://purl.org/dc/elements/1.1/" xmlns:rdf="http://www.w3.org/1999/02/22-rdf-syntax-ns#">
   <cc:Work>
    <dc:type rdf:resource="http://purl.org/dc/dcmitype/StillImage"/>
    <dc:date>2022-05-19T20:53:15.957670</dc:date>
    <dc:format>image/svg+xml</dc:format>
    <dc:creator>
     <cc:Agent>
      <dc:title>Matplotlib v3.4.3, https://matplotlib.org/</dc:title>
     </cc:Agent>
    </dc:creator>
   </cc:Work>
  </rdf:RDF>
 </metadata>
 <defs>
  <style type="text/css">*{stroke-linecap:butt;stroke-linejoin:round;}</style>
 </defs>
 <g id="figure_1">
  <g id="patch_1">
   <path d="M 0 116.827636 
L 72 116.827636 
L 72 0 
L 0 0 
z
" style="fill:#ffffff;"/>
  </g>
  <g id="axes_1">
   <g id="line2d_1">
    <path clip-path="url(#p07a324eea7)" d="M 45.351564 108.501311 
L 45.332349 108.258413 
L 44.494871 97.054449 
L 43.657394 85.850485 
L 42.819917 74.64652 
L 41.982439 63.442556 
L 41.144962 52.238591 
L 40.307484 41.034627 
L 39.470007 29.830662 
L 38.632529 18.626698 
" style="fill:none;stroke:#808080;stroke-linecap:square;stroke-width:0.4;"/>
   </g>
   <g id="line2d_2">
    <path clip-path="url(#p07a324eea7)" d="M 38.632529 18.626698 
L 38.357107 17.389438 
L 37.405937 16.982079 
L 34.827852 17.118709 
L 32.454732 16.982079 
L 30.283376 16.913764 
L 29.194495 16.643035 
L 27.093596 15.828316 
L 26.007918 14.879497 
L 24.887011 13.282952 
L 24.038324 11.281578 
L 23.019901 8.498377 
L 21.799714 7.210514 
L 19.660383 5.988436 
L 17.252035 5.310347 
L 14.196764 5.512762 
L 10.465746 6.125066 
L 7.34322 8.025233 
" style="fill:none;stroke:#008000;stroke-linecap:square;stroke-width:0.4;"/>
   </g>
   <g id="line2d_3">
    <path clip-path="url(#p07a324eea7)" d="M 17.252035 5.310347 
L 16.249624 6.904362 
L 15.791654 8.498377 
L 15.420153 10.603489 
L 15.420153 13.452474 
L 15.420153 15.828316 
L 15.420153 18.204157 
L 15.623518 20.850728 
L 15.826882 23.497299 
L 15.996619 26.686594 
L 16.166357 29.875889 
L 16.063874 33.439651 
L 15.961391 37.003413 
L 15.996619 39.785349 
L 16.031848 42.567285 
L 16.081488 44.840654 
L 16.131128 47.114023 
L 16.521844 49.252027 
L 16.91256 51.390031 
L 18.065493 55.25868 
" style="fill:none;stroke:#008000;stroke-linecap:square;stroke-width:0.4;"/>
   </g>
   <g id="line2d_4">
    <path clip-path="url(#p07a324eea7)" d="M 34.827852 17.118709 
L 33.809428 19.35792 
L 32.861461 22.037384 
L 32.182512 25.260836 
L 31.843037 29.46853 
L 31.943919 33.099342 
L 32.044801 36.730154 
L 32.324827 39.364232 
L 32.604854 41.99831 
L 32.88488 44.632388 
L 33.164907 47.266466 
L 33.444933 49.900544 
L 33.72496 52.534622 
L 34.004986 55.168701 
L 34.285013 57.802779 
L 34.565039 60.436857 
L 34.845066 63.070935 
L 35.125092 65.705013 
L 35.405119 68.339091 
L 35.685145 70.973169 
L 35.965172 73.607248 
L 36.245198 76.241326 
L 36.525225 78.875404 
L 36.661335 82.166539 
L 36.797445 85.457674 
L 36.933555 88.748809 
L 37.069665 92.039944 
L 37.543649 95.704913 
L 38.017632 99.369882 
L 38.629327 101.881088 
L 39.241022 104.392295 
L 41.005649 106.563191 
L 43.100143 108.675894 
" style="fill:none;stroke:#4169e1;stroke-linecap:square;stroke-width:0.4;"/>
   </g>
   <g id="line2d_5">
    <path clip-path="url(#p07a324eea7)" d="M 38.357107 17.389438 
L 38.664555 16.506405 
L 39.055271 16.336883 
L 39.545268 16.372305 
L 40.05448 16.524116 
L 40.496437 16.913764 
L 41.242641 18.611517 
L 42.462828 21.936176 
L 43.10815 24.955949 
L 43.753472 27.975722 
L 44.294709 31.029652 
L 45.790319 33.812853 
L 47.823964 35.915435 
L 50.607015 38.835265 
L 52.807195 41.863894 
L 54.069016 44.128407 
L 55.402895 45.989357 
L 56.736774 47.850306 
L 58.219573 49.517696 
L 59.702373 51.185086 
L 60.643934 52.736088 
L 61.803272 54.646376 
L 63.026662 56.207499 
L 64.724035 59.398059 
L 66.962645 62.112945 
L 68.727273 63.605752 
" style="fill:none;stroke:#008000;stroke-linecap:square;stroke-width:0.4;"/>
   </g>
   <g id="line2d_6">
    <path clip-path="url(#p07a324eea7)" d="M 68.727273 63.605752 
L 66.690425 66.454738 
L 65.876967 68.220805 
L 64.722433 70.494174 
L 63.567899 72.767543 
L 61.871327 76.584956 
L 60.174755 80.402369 
L 58.478182 84.219782 
L 56.78161 88.037195 
L 55.763987 90.531322 
L 54.746364 93.02545 
L 53.728741 95.519577 
L 52.711117 98.013704 
L 52.065795 100.898113 
L 51.420473 103.782521 
L 50.879236 107.10718 
L 49.454083 109.548807 
L 47.349981 110.8392 
L 45.245879 111.517289 
L 43.686217 111.383189 
L 42.904785 110.97583 
L 42.395573 110.229426 
L 42.510867 109.45266 
L 43.100143 108.675894 
" style="fill:none;stroke:#4169e1;stroke-linecap:square;stroke-width:0.4;"/>
   </g>
   <g id="line2d_7">
    <path clip-path="url(#p07a324eea7)" d="M 56.736774 47.850306 
L 56.310829 49.894693 
L 55.494169 52.166797 
L 54.542999 54.036602 
L 53.697515 56.010144 
L 52.711117 58.312611 
L 51.711909 60.475917 
L 50.712701 62.639223 
L 49.735911 65.214948 
L 48.759121 67.790674 
L 48.179452 70.351219 
L 47.599783 72.911764 
L 47.42364 75.312907 
L 47.247498 77.71405 
L 47.314752 80.394778 
L 47.382007 83.075507 
L 47.897624 86.837888 
L 48.317163 89.170717 
L 48.736703 91.503545 
L 49.272336 95.404454 
L 49.807969 99.305363 
L 50.343602 103.206272 
L 50.879236 107.10718 
" style="fill:none;stroke:#000000;stroke-linecap:square;stroke-width:0.4;"/>
   </g>
   <g id="line2d_8">
    <path clip-path="url(#p07a324eea7)" d="M 60.643934 52.736088 
L 59.867306 55.252355 
L 59.090678 57.768621 
L 57.993791 60.903517 
L 56.896903 64.038414 
L 56.056223 66.898785 
L 55.215543 69.759156 
L 53.988951 73.878293 
L 53.354838 77.9949 
L 53.192307 80.354296 
L 53.029775 82.713691 
L 52.867244 85.073086 
L 52.704712 87.432481 
L 52.706314 90.077787 
L 52.707915 92.723093 
L 52.709516 95.368399 
L 52.711117 98.013704 
" style="fill:none;stroke:#000000;stroke-dasharray:1.48,0.64;stroke-dashoffset:0;stroke-width:0.4;"/>
   </g>
   <g id="line2d_9">
    <path clip-path="url(#p07a324eea7)" d="M 52.807195 41.863894 
L 52.512557 44.889992 
L 52.224324 46.719314 
L 52.52857 48.075492 
L 53.816011 51.425454 
L 53.979343 52.829705 
L 53.928102 54.41866 
L 53.697515 56.010144 
" style="fill:none;stroke:#4169e1;stroke-linecap:square;stroke-width:0.4;"/>
   </g>
   <g id="line2d_10">
    <path clip-path="url(#p07a324eea7)" d="M 7.34322 8.025233 
L 5.578592 11.418208 
L 4.223897 14.674553 
L 3.272727 17.796798 
L 3.544947 21.460502 
L 4.291151 24.379068 
L 5.037355 27.297633 
L 6.326397 30.351563 
L 7.61544 33.405494 
L 8.430499 37.341193 
L 9.245559 41.276892 
L 9.855652 44.467452 
L 10.465746 47.658012 
L 11.754788 49.625229 
L 13.043831 51.592446 
L 15.554662 53.425563 
L 18.065493 55.25868 
L 19.898976 58.447975 
L 21.732459 61.63727 
L 23.564341 64.283841 
L 25.396223 66.930412 
L 26.583583 70.425227 
L 27.770944 73.920041 
L 28.958304 77.414856 
L 30.145664 80.909671 
L 30.485139 83.692871 
L 30.824614 86.476072 
L 31.096834 89.869047 
L 31.369054 93.262022 
L 31.775783 95.773228 
L 32.182512 98.284434 
L 33.064826 100.931005 
L 33.947139 103.577576 
L 36.118496 106.699821 
L 38.289852 108.329259 
L 40.595717 108.870718 
L 43.100143 108.675894 
L 45.351564 108.501311 
" style="fill:none;stroke:#008000;stroke-linecap:square;stroke-width:0.4;"/>
   </g>
   <g id="line2d_11">
    <path clip-path="url(#p07a324eea7)" d="M 27.093596 15.828316 
L 24.05754 15.403245 
L 20.598742 15.403245 
L 17.610725 15.676505 
L 16.390538 16.693638 
L 15.420153 18.204157 
L 14.353691 21.037962 
L 13.370495 23.208858 
L 12.3873 25.379755 
L 11.029402 28.502 
L 10.010978 32.031605 
L 9.533792 35.497955 
L 9.389675 38.387423 
L 9.245559 41.276892 
" style="fill:none;stroke:#4169e1;stroke-linecap:square;stroke-width:0.4;"/>
   </g>
  </g>
 </g>
 <defs>
  <clipPath id="p07a324eea7">
   <rect height="116.827636" width="72" x="0" y="0"/>
  </clipPath>
 </defs>
</svg>
