<?xml version="1.0" encoding="utf-8" standalone="no"?>
<!DOCTYPE svg PUBLIC "-//W3C//DTD SVG 1.1//EN"
  "http://www.w3.org/Graphics/SVG/1.1/DTD/svg11.dtd">
<svg height="103.931136pt" version="1.1" viewBox="0 0 72 103.931136" width="72pt" xmlns="http://www.w3.org/2000/svg" xmlns:xlink="http://www.w3.org/1999/xlink">
 <metadata>
  <rdf:RDF xmlns:cc="http://creativecommons.org/ns#" xmlns:dc="http://purl.org/dc/elements/1.1/" xmlns:rdf="http://www.w3.org/1999/02/22-rdf-syntax-ns#">
   <cc:Work>
    <dc:type rdf:resource="http://purl.org/dc/dcmitype/StillImage"/>
    <dc:date>2022-05-19T22:55:56.556386</dc:date>
    <dc:format>image/svg+xml</dc:format>
    <dc:creator>
     <cc:Agent>
      <dc:title>Matplotlib v3.4.3, https://matplotlib.org/</dc:title>
     </cc:Agent>
    </dc:creator>
   </cc:Work>
  </rdf:RDF>
 </metadata>
 <defs>
  <style type="text/css">*{stroke-linecap:butt;stroke-linejoin:round;}</style>
 </defs>
 <g id="figure_1">
  <g id="patch_1">
   <path d="M 0 103.931136 
L 72 103.931136 
L 72 0 
L 0 0 
z
" style="fill:#ffffff;"/>
  </g>
  <g id="axes_1">
   <g id="line2d_1">
    <path clip-path="url(#p3dd9ccf4ef)" d="M 24.698098 94.969299 
L 27.449921 89.328977 
L 30.201745 83.688654 
L 32.953568 78.048332 
L 35.705391 72.40801 
L 38.457215 66.767688 
L 41.209038 61.127365 
L 43.960862 55.487043 
L 46.712685 49.846721 
L 49.464509 44.206398 
L 52.216332 38.566076 
L 54.968156 32.925754 
L 57.719979 27.285432 
L 60.471802 21.645109 
L 63.223626 16.004787 
L 65.975449 10.364465 
L 68.727273 4.724143 
" style="fill:none;stroke:#808080;stroke-linecap:square;stroke-width:0.4;"/>
   </g>
   <g id="line2d_2">
    <path clip-path="url(#p3dd9ccf4ef)" d="M 64.760978 18.671559 
L 64.487239 21.063938 
L 64.213501 23.456318 
L 64.247718 24.82381 
L 64.281935 26.191301 
L 64.316153 27.558792 
L 64.35037 28.926284 
L 64.384587 30.293775 
L 64.418805 31.661267 
L 64.453022 33.028758 
L 64.487239 34.39625 
L 64.487239 35.968375 
L 64.487239 37.540501 
L 64.487239 39.112626 
L 64.487239 40.684751 
L 64.487239 42.941052 
L 64.487239 45.197353 
L 64.025912 47.744024 
L 63.564585 50.290696 
L 63.103259 52.837367 
L 62.641932 55.384039 
L 62.180605 57.93071 
L 61.719278 60.477382 
L 61.257951 63.024053 
L 60.796624 65.570724 
L 60.42533 66.874815 
L 60.054036 68.178906 
L 59.682742 69.482997 
L 59.311448 70.787088 
L 58.940153 72.091179 
L 58.568859 73.39527 
L 58.197565 74.699361 
L 57.826271 76.003452 
L 57.235598 78.078314 
L 56.644925 80.153176 
L 56.054252 82.228038 
L 55.463578 84.3029 
L 54.574899 85.772794 
L 53.68622 87.242689 
L 52.797541 88.712583 
L 51.908862 90.182477 
L 51.020183 91.652372 
L 50.131503 93.122266 
L 49.242824 94.592161 
L 48.354145 96.062055 
L 46.781605 96.779906 
L 45.209065 97.497758 
L 43.636525 98.215609 
L 42.063986 98.93346 
L 40.354576 99.001844 
L 38.645167 99.070227 
L 36.935758 99.13861 
L 35.226349 99.206993 
L 33.859113 98.728655 
L 32.491877 98.250316 
L 31.124641 97.771978 
L 29.757405 97.293639 
" style="fill:none;stroke:#008000;stroke-linecap:square;stroke-width:0.4;"/>
   </g>
   <g id="line2d_3">
    <path clip-path="url(#p3dd9ccf4ef)" d="M 58.061181 17.713507 
L 57.052863 19.525317 
L 56.044545 21.337127 
L 55.036226 23.148938 
L 54.027908 24.960748 
L 53.019589 26.772558 
L 52.011271 28.584368 
L 51.002953 30.396178 
L 49.994634 32.207988 
L 49.5054 33.155044 
L 48.489801 35.121833 
L 47.474202 37.088622 
L 46.458604 39.055411 
L 45.443005 41.0222 
L 44.427406 42.988989 
L 43.411808 44.955778 
L 42.396209 46.922567 
L 41.38061 48.889356 
L 40.795033 50.083656 
L 40.209456 51.277956 
L 39.623879 52.472256 
L 39.038302 53.666556 
L 38.452725 54.860856 
L 37.867148 56.055156 
L 37.281571 57.249456 
L 36.695994 58.443756 
L 35.551535 60.77703 
L 34.407075 63.110305 
L 33.620805 64.819369 
L 32.834535 66.528432 
L 32.048266 68.237496 
L 31.261996 69.94656 
L 30.475726 71.655623 
L 29.689456 73.364687 
L 28.903186 75.07375 
L 28.116916 76.782814 
L 27.552937 78.577442 
L 26.988958 80.372071 
L 26.424979 82.166699 
L 25.861001 83.961328 
L 25.297022 85.755956 
L 24.733043 87.550585 
L 24.169064 89.345213 
L 23.605085 91.139842 
" style="fill:none;stroke:#008000;stroke-linecap:square;stroke-width:0.4;"/>
   </g>
   <g id="line2d_4">
    <path clip-path="url(#p3dd9ccf4ef)" d="M 36.695994 58.443756 
L 35.166651 59.028964 
L 33.637307 59.614173 
L 32.107964 60.199382 
L 30.57862 60.78459 
L 29.348011 61.246091 
L 28.117401 61.707591 
L 26.886792 62.169092 
L 25.656182 62.630592 
L 24.425573 63.092093 
L 23.194963 63.553593 
L 21.964354 64.015093 
L 20.733744 64.476594 
L 18.905424 64.942218 
L 17.077104 65.407842 
L 15.248783 65.873466 
L 13.420463 66.33909 
" style="fill:none;stroke:#4169e1;stroke-linecap:square;stroke-width:0.4;"/>
   </g>
   <g id="line2d_5">
    <path clip-path="url(#p3dd9ccf4ef)" d="M 58.061181 17.713507 
L 56.501261 18.244078 
L 54.94134 18.774649 
L 53.381419 19.30522 
L 51.821498 19.835791 
L 50.261578 20.366361 
L 48.701657 20.896932 
L 47.141736 21.427503 
L 45.581815 21.958074 
L 44.248311 22.392599 
L 42.914807 22.827124 
L 41.581303 23.261649 
L 40.247799 23.696175 
L 38.914295 24.1307 
L 37.580791 24.565225 
L 36.247287 24.99975 
L 34.913783 25.434275 
L 32.846427 26.093537 
L 30.779071 26.752799 
L 28.711715 27.412061 
L 26.644358 28.071323 
L 24.577002 28.730584 
L 22.509646 29.389846 
L 20.44229 30.049108 
L 18.374934 30.70837 
L 17.176358 31.352683 
L 15.977782 31.996997 
L 14.779205 32.641311 
L 13.580629 33.285625 
L 12.382053 33.929938 
L 11.183476 34.574252 
L 9.9849 35.218566 
L 8.786324 35.862879 
L 7.707872 37.361124 
L 6.62942 38.859368 
L 5.910129 40.597468 
L 5.190838 42.335569 
L 4.71131 43.713541 
L 4.231782 45.091514 
L 3.752255 47.129263 
L 3.272727 49.167013 
" style="fill:none;stroke:#4169e1;stroke-linecap:square;stroke-width:0.4;"/>
   </g>
   <g id="line2d_6">
    <path clip-path="url(#p3dd9ccf4ef)" d="M 49.5054 33.155044 
L 48.085988 33.838016 
L 46.666577 34.520989 
L 45.247165 35.203961 
L 43.827754 35.886934 
L 42.408343 36.569906 
L 40.988931 37.252879 
L 39.56952 37.935851 
L 38.150109 38.618824 
L 36.891591 39.487874 
L 35.633074 40.356925 
L 34.374557 41.225975 
L 33.11604 42.095025 
L 31.857522 42.964076 
L 30.599005 43.833126 
L 29.340488 44.702176 
L 28.081971 45.571227 
L 26.284227 47.129263 
L 24.486484 48.6873 
L 22.688741 50.245336 
L 20.890998 51.803373 
L 19.422809 52.942176 
L 17.95462 54.080979 
L 16.48643 55.219782 
L 15.018241 56.358585 
L 13.939789 57.167843 
L 12.861338 57.977101 
L 11.782886 58.786359 
L 10.704434 59.595617 
" style="fill:none;stroke:#000000;stroke-linecap:square;stroke-width:0.4;"/>
   </g>
   <g id="line2d_7">
    <path clip-path="url(#p3dd9ccf4ef)" d="M 3.272727 49.167013 
L 4.231297 50.785185 
L 5.189867 52.403358 
L 6.148437 54.02153 
L 7.107007 55.639702 
L 8.006364 56.628681 
L 8.90572 57.61766 
L 9.805077 58.606638 
L 10.704434 59.595617 
L 11.662519 61.992807 
L 12.620603 64.389998 
L 13.420463 66.33909 
L 13.669934 67.709502 
L 13.919405 69.079915 
L 14.168875 70.450327 
L 14.418346 71.820739 
L 14.867782 73.708664 
L 15.317218 75.596589 
L 15.766654 77.484515 
L 16.216089 79.37244 
L 17.025171 81.020508 
L 17.834252 82.668577 
L 18.643334 84.316645 
L 19.452415 85.964714 
L 20.490583 87.258496 
L 21.52875 88.552278 
L 22.566918 89.84606 
L 23.605085 91.139842 
L 24.127324 92.796158 
" style="fill:none;stroke:#008000;stroke-linecap:square;stroke-width:0.4;"/>
   </g>
   <g id="line2d_8">
    <path clip-path="url(#p3dd9ccf4ef)" d="M 57.826271 76.003452 
L 55.359713 76.009638 
L 52.893155 76.015823 
L 51.335176 75.296941 
L 49.777197 74.578058 
L 48.338614 74.218617 
L 46.900031 73.859176 
L 45.521632 73.978761 
L 44.143233 74.098345 
L 42.764834 74.21793 
L 41.386434 74.337515 
L 40.053173 74.457443 
L 38.719912 74.577371 
L 37.38665 74.697299 
L 36.053389 74.817228 
L 34.720127 74.937156 
L 33.386866 75.057084 
L 32.053604 75.177012 
L 30.720343 75.296941 
L 28.682836 74.338202 
L 26.645329 73.379463 
L 25.44651 72.121075 
L 24.247691 70.862688 
L 23.423564 69.469252 
L 22.599436 68.075816 
L 21.775309 66.68238 
L 20.951182 65.288945 
L 20.127054 63.895509 
L 19.302927 62.502073 
L 18.4788 61.108637 
L 17.654672 59.715201 
L 16.396155 58.426574 
L 15.137638 57.137947 
L 13.87912 55.849319 
L 12.620603 54.560692 
L 11.362571 54.021186 
L 10.104539 53.481681 
L 8.066062 53.841809 
L 7.107007 55.639702 
" style="fill:none;stroke:#008000;stroke-linecap:square;stroke-width:0.4;"/>
   </g>
  </g>
 </g>
 <defs>
  <clipPath id="p3dd9ccf4ef">
   <rect height="103.931136" width="72" x="0" y="0"/>
  </clipPath>
 </defs>
</svg>
