<?xml version="1.0" encoding="utf-8" standalone="no"?>
<!DOCTYPE svg PUBLIC "-//W3C//DTD SVG 1.1//EN"
  "http://www.w3.org/Graphics/SVG/1.1/DTD/svg11.dtd">
<svg height="58.79207pt" version="1.1" viewBox="0 0 72 58.79207" width="72pt" xmlns="http://www.w3.org/2000/svg" xmlns:xlink="http://www.w3.org/1999/xlink">
 <metadata>
  <rdf:RDF xmlns:cc="http://creativecommons.org/ns#" xmlns:dc="http://purl.org/dc/elements/1.1/" xmlns:rdf="http://www.w3.org/1999/02/22-rdf-syntax-ns#">
   <cc:Work>
    <dc:type rdf:resource="http://purl.org/dc/dcmitype/StillImage"/>
    <dc:date>2022-05-19T22:43:06.929770</dc:date>
    <dc:format>image/svg+xml</dc:format>
    <dc:creator>
     <cc:Agent>
      <dc:title>Matplotlib v3.4.3, https://matplotlib.org/</dc:title>
     </cc:Agent>
    </dc:creator>
   </cc:Work>
  </rdf:RDF>
 </metadata>
 <defs>
  <style type="text/css">*{stroke-linecap:butt;stroke-linejoin:round;}</style>
 </defs>
 <g id="figure_1">
  <g id="patch_1">
   <path d="M 0 58.79207 
L 72 58.79207 
L 72 0 
L 0 0 
z
" style="fill:#ffffff;"/>
  </g>
  <g id="axes_1">
   <g id="line2d_1">
    <path clip-path="url(#p081a1183cc)" d="M 53.802584 56.119703 
L 53.401773 55.486665 
L 52.588115 54.199696 
L 52.080581 53.397206 
L 51.573048 52.594716 
L 50.987679 51.668902 
L 50.402311 50.743087 
L 49.895179 49.940936 
L 49.388047 49.138785 
L 48.880915 48.336634 
L 48.373783 47.534483 
L 47.462229 46.09285 
L 46.550675 44.651217 
L 45.763497 43.406441 
L 44.976318 42.161666 
L 44.418935 41.280148 
L 43.861551 40.398629 
L 43.304167 39.517111 
L 42.746783 38.635593 
L 41.820183 37.170082 
L 40.893584 35.704571 
L 40.052443 34.374323 
L 39.211302 33.044075 
L 38.987024 32.689162 
L 38.723428 32.272382 
L 38.51239 31.938904 
L 38.096734 31.281446 
L 37.845174 30.882304 
" style="fill:none;stroke:#808080;stroke-linecap:square;stroke-width:0.4;"/>
   </g>
   <g id="line2d_2">
    <path clip-path="url(#p081a1183cc)" d="M 47.280881 54.195626 
L 46.021075 54.274586 
L 44.972708 54.370641 
L 43.51711 54.464796 
L 42.399333 54.436577 
L 41.711656 54.419211 
" style="fill:none;stroke:#808080;stroke-linecap:square;stroke-width:0.4;"/>
   </g>
   <g id="line2d_3">
    <path clip-path="url(#p081a1183cc)" d="M 3.355778 21.36123 
L 4.144561 21.523491 
L 4.833442 21.664588 
L 5.731154 21.848422 
L 6.628867 22.032255 
L 7.764096 22.264658 
L 8.899326 22.497062 
L 10.451615 22.814937 
L 12.003905 23.132813 
L 13.113858 23.360061 
L 14.223812 23.587309 
L 15.786132 23.907219 
L 16.728178 24.100143 
L 17.670224 24.293066 
L 19.160927 24.598324 
L 20.651631 24.903583 
L 21.947947 25.168954 
L 23.244264 25.434325 
L 24.210583 25.632268 
L 25.176902 25.830211 
L 26.725982 26.147408 
L 28.277469 26.465148 
L 29.828957 26.782888 
L 30.735897 26.968485 
L 31.642837 27.154082 
L 32.790704 27.389199 
L 33.938572 27.624316 
L 35.128166 27.867844 
L 36.31776 28.111372 
L 37.113364 28.274448 
L 37.688702 28.39221 
L 38.696948 28.597886 
" style="fill:none;stroke:#808080;stroke-linecap:square;stroke-width:0.4;"/>
   </g>
   <g id="line2d_4">
    <path clip-path="url(#p081a1183cc)" d="M 66.640167 19.448549 
L 66.217691 19.580692 
L 66.010264 19.645814 
L 64.732404 20.045227 
L 63.133975 20.577598 
L 62.098848 20.922336 
L 61.06372 21.267074 
L 60.009435 21.618189 
L 58.95515 21.969304 
L 57.900865 22.320419 
L 56.84658 22.671534 
L 55.970734 22.963361 
L 55.094888 23.255188 
L 54.219042 23.547015 
L 53.343196 23.838842 
L 52.432745 24.142201 
L 51.522295 24.445559 
L 50.611844 24.748918 
L 49.701393 25.052277 
L 49.16417 25.231362 
L 47.689716 25.722217 
L 46.013452 26.279823 
L 44.882435 26.656172 
L 43.74219 27.035778 
L 43.259933 27.19614 
L 42.723111 27.374954 
L 42.186289 27.553496 
L 41.336923 27.835962 
" style="fill:none;stroke:#808080;stroke-linecap:square;stroke-width:0.4;"/>
   </g>
   <g id="line2d_5">
    <path clip-path="url(#p081a1183cc)" d="M 62.08641 51.134089 
L 62.377941 51.27678 
L 62.669471 51.419472 
L 62.961002 51.562163 
L 63.252533 51.704854 
L 63.544064 51.847546 
L 63.835594 51.990237 
L 64.127125 52.132928 
L 64.418656 52.275619 
L 64.733708 52.304721 
L 65.04876 52.333822 
L 65.363811 52.362923 
L 65.678863 52.392025 
L 65.969943 52.770545 
L 66.261022 53.149065 
L 66.261022 53.45473 
L 66.261022 53.760396 
L 66.261022 54.066061 
L 66.261022 54.371726 
L 65.74747 54.459098 
L 65.233919 54.54647 
L 64.865004 54.531885 
L 64.49609 54.517301 
L 64.127175 54.502716 
L 63.758261 54.488132 
L 63.438896 54.588799 
L 63.119531 54.689466 
L 62.720124 54.821202 
L 62.320718 54.952938 
L 61.894631 55.003543 
L 61.468543 55.054148 
L 61.162418 55.054148 
L 60.856294 55.054148 
L 60.359894 54.953752 
L 59.863494 54.853356 
L 59.367095 54.75296 
L 58.870695 54.652564 
L 58.579616 54.597482 
L 58.288536 54.5424 
L 57.997457 54.487318 
L 57.706377 54.432235 
L 57.415348 54.403948 
L 57.124319 54.375661 
L 56.83329 54.347374 
L 56.54226 54.319086 
L 56.251231 54.290799 
L 55.960202 54.262512 
L 55.669173 54.234224 
L 55.378144 54.205937 
L 55.067204 54.172427 
L 54.756265 54.138916 
L 54.436097 54.138916 
L 54.11593 54.138916 
L 53.766675 54.197119 
L 53.41742 54.255321 
L 53.650925 54.687431 
L 53.884431 55.119541 
L 54.086842 55.533607 
L 54.289254 55.947673 
" style="fill:none;stroke:#008000;stroke-linecap:square;stroke-width:0.4;"/>
   </g>
   <g id="line2d_6">
    <path clip-path="url(#p081a1183cc)" d="M 37.583985 31.664579 
L 37.569441 32.028447 
L 37.554898 32.392315 
L 37.540354 32.756183 
L 37.52581 33.120051 
L 37.467534 33.396615 
L 37.409258 33.673179 
L 37.350981 33.949743 
L 37.292705 34.226307 
L 37.118078 34.517455 
L 36.94345 34.808604 
L 36.768823 35.099752 
L 36.594195 35.390901 
L 36.428996 35.856657 
L 36.263797 36.322414 
L 36.098598 36.78817 
L 35.933399 37.253926 
L 35.938514 37.661548 
L 35.94363 38.069169 
L 35.948745 38.476791 
L 35.953861 38.884413 
L 36.094285 39.233696 
L 36.234709 39.582979 
L 36.375133 39.932263 
L 36.515558 40.281546 
L 36.712051 40.499907 
L 36.908545 40.718269 
L 37.105038 40.93663 
L 37.301532 41.154992 
L 37.498026 41.373353 
L 37.694519 41.591715 
L 37.891013 41.810076 
L 38.087507 42.028437 
L 38.301052 42.203113 
L 38.514597 42.377789 
L 38.728142 42.552464 
L 38.941687 42.72714 
L 39.155232 42.901815 
L 39.368777 43.076491 
L 39.582323 43.251167 
L 39.795868 43.425842 
" style="fill:none;stroke:#000000;stroke-linecap:square;stroke-width:0.4;"/>
   </g>
   <g id="line2d_7">
    <path clip-path="url(#p081a1183cc)" d="M 55.862407 40.281546 
L 55.512951 40.514628 
L 55.294691 40.980384 
L 55.076432 41.44614 
L 54.858173 41.911897 
L 54.639913 42.377653 
L 54.450742 42.872578 
L 54.26157 43.367504 
L 54.072399 43.862429 
L 53.883227 44.357355 
L 53.766775 44.837696 
L 53.650324 45.318037 
L 53.533872 45.798377 
L 53.41742 46.278718 
L 53.199161 46.686272 
L 52.980901 47.093826 
L 52.762642 47.50138 
L 52.544382 47.908933 
L 52.466547 48.214599 
L 52.388712 48.520264 
L 52.310877 48.825929 
L 52.233042 49.131595 
L 52.06353 49.539148 
L 51.894018 49.946702 
L 51.724505 50.354256 
L 51.554993 50.76181 
L 51.512064 51.048074 
L 51.469134 51.334338 
L 51.403235 51.773436 
L 51.337336 52.212533 
L 51.271437 52.65163 
L 51.205538 53.090727 
L 51.425402 53.350943 
L 51.645266 53.611158 
L 51.86513 53.871374 
L 52.084995 54.13159 
" style="fill:none;stroke:#4169e1;stroke-linecap:square;stroke-width:0.4;"/>
   </g>
   <g id="line2d_8">
    <path clip-path="url(#p081a1183cc)" d="M 38.573374 29.510405 
L 40.116336 28.302057 
L 40.90201 27.472365 
L 41.251465 26.075232 
L 41.297605 23.778875 
L 42.372853 21.969575 
L 43.743293 20.440706 
L 44.427862 19.933163 
L 45.77784 20.85545 
L 47.003292 22.126275 
L 48.726849 24.982271 
L 49.141101 25.999663 
L 49.497678 27.268656 
L 51.427408 31.452391 
L 51.904951 33.415134 
L 52.174866 34.342983 
L 52.989728 36.613562 
L 58.803341 44.532064 
L 60.353525 47.421334 
L 62.08641 51.134089 
L 63.351432 53.207268 
L 63.545618 53.556619 
L 63.758261 54.488132 
L 63.758261 54.488132 
" style="fill:none;stroke:#008000;stroke-linecap:square;stroke-width:0.4;"/>
   </g>
   <g id="line2d_9">
    <path clip-path="url(#p081a1183cc)" d="M 36.245141 29.394 
L 35.924973 29.394 
L 35.604806 29.394 
L 35.284639 29.394 
L 34.964472 29.394 
L 34.658848 29.423101 
L 34.353225 29.452203 
L 34.047602 29.481304 
L 33.741978 29.510405 
L 33.422112 29.913143 
L 33.102246 30.31588 
L 32.782379 30.718617 
L 32.462513 31.121355 
L 32.26622 31.525178 
L 32.069927 31.929001 
L 31.873634 32.332823 
L 31.677341 32.736646 
L 31.625685 33.240119 
L 31.574029 33.743592 
L 31.522373 34.247064 
L 31.470717 34.750537 
L 31.574831 35.15999 
L 31.678946 35.569443 
L 31.795999 35.858692 
L 31.913053 36.147942 
L 32.030107 36.437191 
L 32.14716 36.72644 
L 32.416875 37.120223 
L 32.68659 37.514006 
L 32.956305 37.90779 
L 33.226019 38.301573 
L 33.4181 38.709873 
L 33.61018 39.118173 
L 33.80226 39.526473 
L 33.994341 39.934773 
L 34.086218 40.414639 
L 34.178096 40.894505 
L 34.194947 41.192505 
L 34.211798 41.490505 
L 34.228649 41.788504 
L 34.245499 42.086504 
L 34.274587 42.464957 
L 34.303675 42.843409 
L 34.332763 43.221862 
L 34.361851 43.600314 
L 34.512506 43.90598 
L 34.663161 44.211645 
L 34.813816 44.51731 
L 34.964472 44.822975 
L 35.211819 45.216012 
L 35.459166 45.609049 
L 35.706513 46.002086 
L 35.953861 46.395124 
L 36.215852 46.467911 
L 36.477844 46.540698 
L 36.739835 46.613485 
L 37.001827 46.686272 
L 37.457403 46.86088 
L 37.912979 47.035488 
L 38.189414 47.210163 
L 38.46585 47.384839 
L 38.742285 47.559514 
L 39.01872 47.73419 
L 39.353531 47.996237 
L 39.688343 48.258285 
L 40.023154 48.520332 
L 40.357966 48.782379 
L 40.712336 48.986156 
L 41.066707 49.189933 
L 41.421078 49.39371 
L 41.775448 49.597487 
L 42.134132 49.81578 
L 42.492816 50.034074 
L 42.851499 50.252367 
L 43.210183 50.470661 
L 43.608185 50.820012 
L 44.006188 51.169363 
L 44.40419 51.518714 
L 44.802192 51.868066 
L 45.071456 51.984505 
L 45.340719 52.100944 
L 45.609983 52.217383 
L 45.879246 52.333822 
L 46.14851 52.450261 
L 46.417773 52.5667 
L 46.687037 52.683139 
L 46.9563 52.799578 
L 47.324412 53.148929 
L 47.692524 53.498281 
" style="fill:none;stroke:#4169e1;stroke-linecap:square;stroke-width:0.4;"/>
   </g>
   <g id="line2d_10">
    <path clip-path="url(#p081a1183cc)" d="M 57.841586 42.95995 
L 57.49213 43.19276 
L 57.390272 43.469324 
L 57.288415 43.745888 
L 57.186557 44.022453 
L 57.084699 44.299017 
L 56.982841 44.575581 
L 56.880984 44.852145 
L 56.779126 45.128709 
L 56.677268 45.405273 
L 56.526613 45.871097 
L 56.375958 46.336921 
L 56.225303 46.802745 
L 56.074648 47.268569 
L 55.948767 47.545133 
L 55.822887 47.821697 
L 55.697007 48.098261 
L 55.571127 48.374825 
L 55.425687 48.796896 
L 55.280248 49.218966 
L 55.134808 49.641037 
L 54.989369 50.063107 
L 54.778933 50.495964 
L 54.568497 50.92882 
L 54.358062 51.361676 
L 54.147626 51.794532 
L 53.990251 52.151549 
L 53.832875 52.508565 
L 53.6755 52.865582 
L 53.518124 53.222598 
L 53.467772 53.73896 
L 53.41742 54.255321 
" style="fill:none;stroke:#000000;stroke-linecap:square;stroke-width:0.4;"/>
   </g>
   <g id="line2d_11">
    <path clip-path="url(#p081a1183cc)" d="M 37.23453 29.510405 
L 36.841643 29.772385 
L 36.448756 30.034364 
L 36.055869 30.296344 
L 35.662982 30.558323 
L 35.590162 30.95136 
L 35.517342 31.344397 
L 35.444522 31.737434 
L 35.371702 32.130471 
L 35.29166 32.399743 
L 35.211618 32.669015 
L 35.131576 32.938286 
L 35.051535 33.207558 
L 34.971493 33.47683 
L 34.891451 33.746101 
L 34.811409 34.015373 
L 34.731367 34.284645 
L 34.629459 34.692199 
L 34.527552 35.099752 
L 34.425644 35.507306 
L 34.323736 35.91486 
L 34.309192 36.322414 
L 34.294648 36.729967 
L 34.280104 37.137521 
L 34.26556 37.545075 
L 34.258288 37.828931 
L 34.251016 38.112788 
L 34.243744 38.396644 
L 34.236472 38.6805 
L 34.2292 38.964356 
L 34.221928 39.248213 
L 34.214656 39.532069 
L 34.207384 39.815925 
L 34.493348 40.194378 
L 34.779312 40.57283 
L 35.065276 40.951283 
L 35.35124 41.329735 
L 35.661979 41.504411 
L 35.972718 41.679086 
L 36.283456 41.853762 
L 36.594195 42.028437 
L 36.994404 42.203113 
L 37.394613 42.377789 
L 37.794822 42.552464 
L 38.195031 42.72714 
L 38.595241 42.901815 
L 38.99545 43.076491 
L 39.395659 43.251167 
L 39.795868 43.425842 
L 40.028771 43.585933 
L 40.261675 43.746024 
L 40.494579 43.906115 
L 40.727482 44.066206 
L 40.979243 44.357355 
L 41.231003 44.648503 
L 41.492995 44.808594 
L 41.754986 44.968685 
L 42.016978 45.128776 
L 42.278969 45.288867 
L 42.63334 45.579948 
L 42.987711 45.871029 
L 43.342081 46.16211 
L 43.696452 46.45319 
L 43.871079 46.671552 
L 44.045707 46.889913 
L 44.220335 47.108275 
L 44.394962 47.326636 
L 44.637194 47.617785 
L 44.879426 47.908933 
L 45.121658 48.200082 
L 45.363889 48.491231 
L 45.660084 48.898784 
L 45.956279 49.306338 
L 46.252474 49.713892 
L 46.548669 50.121445 
L 46.921997 50.485313 
L 47.295324 50.849181 
L 47.668652 51.213049 
L 48.04198 51.576917 
L 48.338075 51.853481 
L 48.634169 52.130045 
L 48.930264 52.406609 
L 49.226358 52.683173 
L 49.612425 52.974729 
L 49.998491 53.266284 
L 50.384557 53.55784 
L 50.770624 53.849396 
L 51.099216 53.919944 
L 51.427809 53.990493 
L 51.756402 54.061041 
L 52.084995 54.13159 
L 52.338862 54.404423 
L 52.592728 54.677256 
L 52.846595 54.950089 
L 53.100462 55.222922 
" style="fill:none;stroke:#4169e1;stroke-linecap:square;stroke-width:0.4;"/>
   </g>
   <g id="line2d_12">
    <path clip-path="url(#p081a1183cc)" d="M 52.772672 36.009286 
L 52.629439 36.253222 
L 52.486207 36.497157 
L 52.195127 36.671833 
L 51.904048 36.846508 
L 51.612969 37.021184 
L 51.321889 37.195859 
L 51.154584 37.494199 
L 50.987278 37.792538 
L 50.819973 38.090877 
L 50.652667 38.389216 
L 50.481651 38.651263 
L 50.310634 38.91331 
L 50.139617 39.175358 
L 49.968601 39.437405 
L 49.747934 39.820538 
L 49.527267 40.203671 
L 49.340503 40.592095 
L 49.153739 40.98052 
L 49.08463 41.253421 
L 49.015521 41.526321 
L 48.946413 41.799222 
L 48.877304 42.072123 
L 48.723038 42.523363 
L 48.568772 42.974603 
L 48.414506 43.425842 
L 48.26024 43.877082 
L 48.13797 44.302815 
L 48.015701 44.728549 
L 47.893431 45.154282 
L 47.771162 45.580016 
L 47.941276 45.980786 
L 48.093085 46.239577 
L 48.244893 46.498369 
L 48.396702 46.75716 
L 48.54851 47.015951 
L 48.700319 47.274742 
L 48.852128 47.533533 
L 49.003936 47.792325 
L 49.155745 48.051116 
L 49.307554 48.309907 
L 49.459362 48.568698 
L 49.611171 48.827489 
L 49.762979 49.086281 
L 49.914788 49.345072 
L 50.066597 49.603863 
L 50.218405 49.862654 
L 50.370214 50.121445 
L 50.644944 50.424669 
L 50.919674 50.727892 
L 51.194404 51.031115 
L 51.469134 51.334338 
" style="fill:none;stroke:#4169e1;stroke-linecap:square;stroke-width:0.4;"/>
   </g>
   <g id="line2d_13">
    <path clip-path="url(#p081a1183cc)" d="M 37.93304 31.548174 
L 38.088108 31.999413 
L 38.243177 32.450653 
L 38.398245 32.901893 
L 38.553314 33.353132 
L 38.863952 33.775203 
L 39.174591 34.197273 
L 39.485229 34.619344 
L 39.795868 35.041414 
L 39.952315 35.350726 
L 40.108763 35.660037 
L 40.265211 35.969349 
L 40.421658 36.27866 
L 40.578106 36.587971 
L 40.734554 36.897283 
L 40.891001 37.206594 
L 41.047449 37.515906 
L 41.203897 37.825217 
L 41.360344 38.134529 
L 41.516792 38.44384 
L 41.673239 38.753152 
L 41.829687 39.062463 
L 41.986135 39.371774 
L 42.142582 39.681086 
L 42.29903 39.990397 
L 42.54392 40.325198 
L 42.78881 40.659998 
L 43.0337 40.994799 
L 43.278589 41.329599 
L 43.523479 41.6644 
L 43.768369 41.999201 
L 44.013259 42.334001 
L 44.258149 42.668802 
L 44.454592 43.039962 
L 44.651036 43.411122 
L 44.847479 43.782282 
L 45.043923 44.153442 
L 45.240366 44.524602 
L 45.43681 44.895763 
L 45.633253 45.266923 
L 45.829697 45.638083 
L 46.040734 45.93649 
L 46.251772 46.234897 
L 46.462809 46.533304 
L 46.673847 46.831711 
L 46.884884 47.130118 
L 47.095922 47.428525 
L 47.30696 47.726932 
L 47.517997 48.025339 
L 47.721713 48.316453 
L 47.925428 48.607568 
L 48.129143 48.898682 
L 48.332859 49.189797 
L 48.536574 49.480912 
L 48.74029 49.772026 
L 48.944005 50.063141 
L 49.147721 50.354256 
L 49.404948 50.696315 
L 49.662175 51.038374 
L 49.919402 51.380432 
L 50.176629 51.722491 
L 50.433856 52.06455 
L 50.691083 52.406609 
L 50.948311 52.748668 
L 51.205538 53.090727 
" style="fill:none;stroke:#000000;stroke-linecap:square;stroke-width:0.4;"/>
   </g>
   <g id="line2d_14">
    <path clip-path="url(#p081a1183cc)" d="M 31.677341 32.736646 
L 31.445039 33.048688 
L 31.17412 33.230418 
L 30.903202 33.412149 
L 30.632284 33.593879 
L 30.361365 33.77561 
L 30.100377 33.917453 
L 29.839388 34.059296 
L 29.5784 34.20114 
L 29.317411 34.342983 
L 29.006672 34.430287 
L 28.695934 34.517591 
L 28.385195 34.604895 
L 28.074456 34.692199 
L 27.637837 34.91056 
L 27.201218 35.128922 
L 26.764599 35.347283 
L 26.32798 35.565644 
L 26.051444 35.711151 
L 25.774909 35.856657 
L 25.498373 36.002164 
L 25.221838 36.14767 
L 24.892142 36.366032 
L 24.562446 36.584393 
L 24.23275 36.802755 
L 23.903054 37.021116 
L 23.510167 37.108488 
L 23.11728 37.195859 
L 22.724393 37.283231 
L 22.331506 37.370603 
L 22.113146 37.545211 
L 21.894787 37.719818 
L 21.676427 37.894426 
L 21.458067 38.069034 
L 21.225164 38.30198 
L 20.99226 38.534926 
L 20.759356 38.767872 
L 20.526453 39.000818 
" style="fill:none;stroke:#008000;stroke-linecap:square;stroke-width:0.4;"/>
   </g>
   <g id="line2d_15">
    <path clip-path="url(#p081a1183cc)" d="M 41.297605 23.778875 
L 41.030698 22.152256 
L 40.29979 20.369208 
L 40.218043 15.580384 
L 39.628713 13.02588 
L 39.133717 11.141216 
L 38.981006 8.902078 
L 37.700337 6.980715 
L 35.335543 6.12918 
L 32.228205 4.418987 
L 29.404775 3.632845 
L 27.469027 3.399967 
L 24.718116 2.854165 
L 22.651473 2.701468 
L 20.817733 2.788772 
L 15.518222 4.99986 
L 14.104852 5.689676 
L 12.717661 6.296665 
L 12.448448 6.427722 
L 11.375206 7.883126 
L 10.185211 8.938574 
L 8.358492 10.255933 
L 7.608927 10.99788 
L 4.515983 15.398314 
L 3.379751 20.121813 
L 3.272727 20.660357 
L 3.272727 20.660357 
" style="fill:none;stroke:#4169e1;stroke-linecap:square;stroke-width:0.4;"/>
   </g>
   <g id="line2d_16">
    <path clip-path="url(#p081a1183cc)" d="M 39.363361 28.935977 
L 39.667079 29.135819 
L 39.970796 29.335662 
L 40.445932 29.335662 
L 40.921067 29.335662 
L 41.396203 29.335662 
L 41.871338 29.335662 
L 42.240052 29.224955 
L 42.735348 29.076531 
L 43.230645 28.928108 
L 43.667163 28.840736 
L 44.103682 28.753365 
L 44.38749 28.746106 
L 44.671297 28.738848 
L 44.955104 28.731589 
L 45.238912 28.724331 
L 45.522719 28.717073 
L 45.806527 28.709814 
L 46.090334 28.702556 
L 46.374141 28.695298 
L 46.723397 28.88449 
L 47.072652 29.073682 
L 47.421907 29.262875 
L 47.771162 29.452067 
L 48.057126 29.684945 
L 48.34309 29.917823 
L 48.629054 30.150701 
L 48.915018 30.38358 
L 49.118733 30.572806 
L 49.322449 30.762032 
L 49.526164 30.951258 
L 49.729879 31.140484 
L 49.933595 31.329711 
L 50.13731 31.518937 
L 50.341026 31.708163 
L 50.544741 31.897389 
L 50.722278 32.126808 
L 50.899814 32.356227 
L 51.07735 32.585645 
L 51.254887 32.815064 
L 51.432423 33.044482 
L 51.609959 33.273901 
L 51.787496 33.503319 
L 51.965032 33.732738 
" style="fill:none;stroke:#4169e1;stroke-linecap:square;stroke-width:0.4;"/>
   </g>
   <g id="line2d_17">
    <path clip-path="url(#p081a1183cc)" d="M 21.923874 25.784083 
L 21.758475 30.398164 
L 21.545331 32.283168 
L 21.327071 33.716932 
L 20.91954 35.842073 
L 20.788545 37.778157 
L 20.526453 39.335584 
L 20.630768 41.406253 
L 21.271504 42.728768 
L 22.278145 43.415803 
L 24.555425 43.198459 
L 25.886646 43.499579 
L 26.885564 44.137569 
L 27.972348 45.219676 
L 29.761152 47.469904 
L 31.024268 48.221518 
L 32.678365 49.018446 
L 34.097853 50.770085 
L 34.63949 51.84663 
L 36.164898 52.959941 
L 38.150798 53.298981 
L 43.443287 53.440214 
L 45.257769 53.52745 
L 46.267118 53.585585 
L 47.692524 53.498281 
L 49.209106 53.978825 
L 50.770624 53.849396 
L 50.770624 53.849396 
" style="fill:none;stroke:#008000;stroke-linecap:square;stroke-width:0.4;"/>
   </g>
   <g id="line2d_18">
    <path clip-path="url(#p081a1183cc)" d="M 52.174866 34.342983 
L 51.86493 34.342983 
L 51.554993 34.342983 
L 51.205738 34.313814 
L 50.856483 34.284645 
L 50.60392 34.473837 
L 50.351357 34.66303 
L 50.098794 34.852222 
L 49.846231 35.041414 
L 49.764083 35.361664 
L 49.681935 35.681914 
L 49.599786 36.002164 
L 49.517638 36.322414 
L 49.502994 36.671765 
L 49.48835 37.021116 
L 49.473706 37.370467 
L 49.459061 37.719818 
L 49.467587 38.0303 
L 49.476113 38.340782 
L 49.484639 38.651263 
L 49.493164 38.961745 
L 49.50169 39.272226 
L 49.510216 39.582708 
L 49.518742 39.89319 
L 49.527267 40.203671 
" style="fill:none;stroke:#008000;stroke-linecap:square;stroke-width:0.4;"/>
   </g>
   <g id="line2d_19">
    <path clip-path="url(#p081a1183cc)" d="M 57.841586 42.95995 
L 57.521419 42.988984 
L 57.201251 43.018017 
L 56.735444 43.018017 
L 56.415277 43.105389 
L 56.09511 43.19276 
L 55.774942 43.367504 
L 55.454775 43.542247 
L 55.061888 43.746024 
L 54.669001 43.949801 
L 54.276114 44.153578 
L 53.883227 44.357355 
" style="fill:none;stroke:#008000;stroke-linecap:square;stroke-width:0.4;"/>
   </g>
   <g id="line2d_20">
    <path clip-path="url(#p081a1183cc)" d="M 41.833624 55.186834 
L 42.177764 55.303307 
L 42.521903 55.41978 
L 42.866043 55.536253 
L 43.210183 55.652726 
L 43.646802 55.623557 
L 44.083421 55.594388 
L 44.52004 55.565218 
L 44.956659 55.536049 
L 45.412837 55.434161 
L 45.869015 55.332272 
L 46.325194 55.230384 
L 46.781372 55.128496 
" style="fill:none;stroke:#008000;stroke-linecap:square;stroke-width:0.4;"/>
   </g>
   <g id="line2d_21">
    <path clip-path="url(#p081a1183cc)" d="M 42.240052 29.224955 
L 42.403646 29.479608 
L 42.56724 29.734261 
L 42.730835 29.988914 
L 42.894429 30.243568 
L 43.061534 30.478956 
L 43.228639 30.714344 
L 43.395743 30.949732 
L 43.562848 31.18512 
L 43.785421 31.435974 
L 44.007993 31.686829 
L 44.230565 31.937683 
L 44.453138 32.188538 
L 44.642309 32.537889 
L 44.831481 32.88724 
L 45.020652 33.236591 
L 45.209824 33.585943 
L 45.490672 33.993496 
L 45.771521 34.40105 
L 45.931604 34.648513 
L 46.091688 34.895976 
L 46.251772 35.143438 
L 46.411855 35.390901 
L 46.571939 35.638364 
L 46.732023 35.885826 
L 46.892106 36.133289 
L 47.05219 36.380752 
L 47.319197 36.599046 
L 47.586203 36.817339 
L 47.85321 37.035633 
L 48.120217 37.253926 
L 48.296098 37.622644 
L 48.471979 37.991363 
L 48.647861 38.360081 
L 48.823742 38.728799 
L 48.999623 39.097517 
L 49.175505 39.466235 
L 49.351386 39.834953 
L 49.527267 40.203671 
" style="fill:none;stroke:#000000;stroke-linecap:square;stroke-width:0.4;"/>
   </g>
   <g id="line2d_22">
    <path clip-path="url(#p081a1183cc)" d="M 38.515199 30.499985 
L 38.786619 30.951224 
L 39.058039 31.402464 
L 39.329459 31.853704 
L 39.600879 32.304943 
L 39.778064 32.596058 
L 39.955249 32.887172 
L 40.132435 33.178287 
L 40.30962 33.469402 
L 40.486805 33.760516 
L 40.66399 34.051631 
L 40.841176 34.342746 
L 41.018361 34.63386 
L 41.219569 34.888615 
L 41.420777 35.14337 
L 41.621985 35.398125 
L 41.823193 35.65288 
L 42.0244 35.907635 
L 42.225608 36.16239 
L 42.426816 36.417145 
L 42.628024 36.671901 
L 42.79538 36.992116 
L 42.962735 37.312332 
L 43.130091 37.632548 
L 43.297446 37.952764 
L 43.464802 38.27298 
L 43.632158 38.593196 
L 43.799513 38.913412 
L 43.966869 39.233628 
L 44.250676 39.677575 
L 44.534484 40.121523 
L 44.818291 40.56547 
L 45.102098 41.009417 
L 45.385906 41.453365 
L 45.669713 41.897312 
L 45.953521 42.341259 
L 46.237328 42.785207 
L 46.450322 43.184654 
L 46.663315 43.584102 
L 46.876309 43.983549 
L 47.089302 44.382996 
L 47.302295 44.782444 
L 47.515289 45.181891 
L 47.728282 45.581339 
L 47.941276 45.980786 
" style="fill:none;stroke:#000000;stroke-linecap:square;stroke-width:0.4;"/>
   </g>
   <g id="line2d_23">
    <path clip-path="url(#p081a1183cc)" d="M 33.741978 29.510405 
L 33.479987 29.583192 
L 33.217995 29.655979 
L 32.956004 29.728767 
L 32.694012 29.801554 
L 32.450878 29.510405 
L 32.207743 29.219257 
L 31.781255 28.986311 
L 31.354766 28.753365 
L 30.830984 28.724331 
L 30.307201 28.695298 
L 29.957846 28.695298 
L 29.608491 28.695298 
L 29.259135 28.695298 
L 28.90978 28.695298 
L 28.444173 28.7535 
L 27.978566 28.811703 
L 27.541847 28.811703 
L 27.105128 28.811703 
L 26.755872 28.709814 
L 26.406617 28.607926 
L 26.057362 28.506037 
L 25.708107 28.404149 
L 25.460659 28.287676 
L 25.213212 28.171203 
L 24.965764 28.05473 
L 24.718317 27.938257 
L 24.281597 27.938257 
L 23.844878 27.938257 
L 23.367034 28.026239 
L 22.889191 28.114222 
L 22.411347 28.202204 
L 21.933504 28.290186 
" style="fill:none;stroke:#4169e1;stroke-linecap:square;stroke-width:0.4;"/>
   </g>
   <g id="line2d_24">
    <path clip-path="url(#p081a1183cc)" d="M 57.841586 42.95995 
L 58.074289 42.785207 
L 58.307092 42.537744 
L 58.539896 42.290281 
L 58.772699 42.042819 
L 59.005502 41.795356 
L 59.16047 41.387802 
L 59.315439 40.980248 
L 59.470407 40.572695 
L 59.625375 40.165141 
L 59.63049 39.81579 
L 59.635606 39.466438 
L 59.640721 39.117087 
L 59.645837 38.767736 
L 59.678836 38.374021 
L 59.711836 37.980305 
L 59.744836 37.58659 
L 59.777835 37.192875 
L 59.839672 36.925909 
L 59.901509 36.658944 
L 59.963346 36.391979 
L 60.025183 36.125013 
L 60.08702 35.858048 
L 60.148856 35.591083 
L 60.210693 35.324117 
L 60.27253 35.057152 
L 60.372733 34.762137 
L 60.472935 34.467122 
L 60.573138 34.172106 
L 60.673341 33.877091 
L 60.678456 33.484054 
L 60.683572 33.091017 
L 60.688687 32.69798 
L 60.693803 32.304943 
L 60.635527 31.999278 
L 60.577251 31.693612 
L 60.518975 31.387947 
L 60.460698 31.082282 
L 60.682569 30.698606 
L 60.904439 30.31493 
" style="fill:none;stroke:#008000;stroke-linecap:square;stroke-width:0.4;"/>
   </g>
   <g id="line2d_25">
    <path clip-path="url(#p081a1183cc)" d="M 30.190449 9.36797 
L 29.812106 9.193295 
L 29.433763 9.018619 
L 29.05542 8.843943 
L 28.677077 8.669268 
L 28.305955 8.523694 
L 27.934834 8.378119 
L 27.563713 8.232545 
L 27.192592 8.086971 
L 26.821471 7.941396 
L 26.450349 7.795822 
L 26.079228 7.650248 
L 25.708107 7.504674 
L 25.4243 7.453729 
L 25.140492 7.402785 
L 24.856685 7.351841 
L 24.572877 7.300897 
L 24.28907 7.249952 
L 24.005263 7.199008 
L 23.721455 7.148064 
L 23.437648 7.09712 
L 23.102886 7.031625 
L 22.768125 6.96613 
L 22.433364 6.900635 
L 22.098602 6.83514 
L 21.763841 6.769645 
L 21.42908 6.704151 
L 21.094318 6.638656 
L 20.759557 6.573161 
L 20.453883 6.500374 
L 20.14821 6.427587 
L 19.842537 6.354799 
L 19.536863 6.282012 
L 19.23119 6.209225 
L 18.925516 6.136438 
L 18.619843 6.063651 
L 18.314169 5.990864 
L 17.860448 5.926488 
L 17.406728 5.862113 
L 16.953007 5.797737 
L 16.499286 5.733361 
L 16.045565 5.668986 
L 15.591845 5.60461 
L 15.138124 5.540235 
L 14.684403 5.475859 
" style="fill:none;stroke:#4169e1;stroke-dasharray:1.48,0.64;stroke-dashoffset:0;stroke-width:0.4;"/>
   </g>
   <g id="line2d_26">
    <path clip-path="url(#p081a1183cc)" d="M 49.073898 25.683416 
L 49.441207 25.646378 
L 49.808517 25.60934 
L 50.300754 25.412821 
L 50.792991 25.216303 
L 51.285228 25.019784 
L 51.777465 24.823266 
L 52.269703 24.626747 
L 52.76194 24.430229 
L 53.254177 24.23371 
L 53.746414 24.037192 
L 54.060563 23.920753 
L 54.374712 23.804314 
L 54.688861 23.687874 
L 55.00301 23.571435 
L 55.317159 23.454996 
L 55.631308 23.338557 
L 55.945457 23.222118 
L 56.259607 23.105679 
L 56.573756 22.98924 
L 56.887905 22.872801 
L 57.202054 22.756362 
L 57.516203 22.639923 
L 57.830352 22.523484 
L 58.144501 22.407045 
L 58.45865 22.290605 
L 58.772799 22.174166 
L 59.263933 22.016212 
L 59.755067 21.858258 
L 60.2462 21.700304 
L 60.737334 21.54235 
L 61.228468 21.384395 
L 61.719602 21.226441 
L 62.210736 21.068487 
L 62.701869 20.910533 
L 63.113212 20.770385 
L 63.524555 20.630238 
L 63.935897 20.49009 
L 64.34724 20.349943 
L 64.758583 20.209795 
L 65.169926 20.069648 
L 65.581268 19.9295 
L 65.992611 19.789353 
" style="fill:none;stroke:#ff0000;stroke-linecap:square;stroke-width:0.4;"/>
   </g>
   <g id="line2d_27">
    <path clip-path="url(#p081a1183cc)" d="M 31.678946 35.569443 
L 31.656177 36.03425 
L 31.633408 36.499056 
L 31.610639 36.963863 
L 31.58787 37.42867 
L 31.422671 37.894494 
L 31.257472 38.360318 
L 31.092273 38.826142 
L 30.927074 39.291966 
L 30.900494 39.757723 
L 30.873914 40.223479 
L 30.847333 40.689235 
L 30.820753 41.154992 
L 30.794173 41.620748 
L 30.767592 42.086504 
L 30.741012 42.552261 
L 30.714432 43.018017 
L 30.709417 43.498426 
L 30.704401 43.978834 
L 30.699386 44.459243 
L 30.694371 44.939652 
L 30.728574 45.274419 
L 30.762778 45.609185 
L 30.796981 45.943952 
L 30.831184 46.278718 
L 31.062082 46.621184 
L 31.29298 46.96365 
L 31.523877 47.306116 
L 31.754775 47.648582 
L 31.985672 47.991048 
L 32.21657 48.333514 
L 32.447467 48.67598 
L 32.678365 49.018446 
" style="fill:none;stroke:#000000;stroke-dasharray:1.48,0.64;stroke-dashoffset:0;stroke-width:0.4;"/>
   </g>
   <g id="line2d_28">
    <path clip-path="url(#p081a1183cc)" d="M 35.953861 46.395124 
L 36.041124 46.657103 
L 36.128388 46.919082 
L 36.123373 47.341221 
L 36.118358 47.763359 
L 36.113342 48.185497 
L 36.108327 48.607636 
L 36.370319 49.073392 
L 36.63231 49.539148 
L 36.806938 49.801128 
L 36.981565 50.063107 
L 37.156193 50.325087 
L 37.330821 50.587066 
L 37.626915 51.009204 
L 37.92301 51.431343 
L 38.219104 51.853481 
L 38.515199 52.275619 
L 38.753519 52.546417 
L 38.991839 52.817215 
L 39.230159 53.088013 
L 39.468479 53.358812 
" style="fill:none;stroke:#000000;stroke-dasharray:1.48,0.64;stroke-dashoffset:0;stroke-width:0.4;"/>
   </g>
   <g id="line2d_29">
    <path clip-path="url(#p081a1183cc)" d="M 37.758513 27.938257 
L 37.394663 27.821818 
L 37.030814 27.705379 
L 36.666965 27.58894 
L 36.303116 27.472501 
L 35.939267 27.356062 
L 35.575417 27.239623 
L 35.211568 27.123183 
L 34.847719 27.006744 
L 34.545731 26.861187 
L 34.243744 26.71563 
L 33.941757 26.570072 
L 33.639769 26.424515 
L 33.337782 26.278958 
L 33.035795 26.1334 
L 32.733807 25.987843 
L 32.43182 25.842286 
L 32.129833 25.696728 
L 31.827845 25.551171 
L 31.525858 25.405614 
L 31.223871 25.260056 
L 30.921883 25.114499 
L 30.619896 24.968942 
L 30.317909 24.823384 
L 30.015921 24.677827 
L 29.592542 24.385152 
L 29.169163 24.092477 
L 28.745784 23.799802 
L 28.322405 23.507128 
L 27.899026 23.214453 
L 27.475647 22.921778 
L 27.052268 22.629103 
L 26.628889 22.336428 
L 26.295482 22.119627 
L 25.962074 21.902826 
L 25.628667 21.686024 
L 25.29526 21.469223 
L 24.961853 21.252422 
L 24.628445 21.035621 
L 24.295038 20.81882 
L 23.961631 20.602018 
L 23.714183 20.412792 
L 23.466736 20.223566 
L 23.219288 20.03434 
L 22.97184 19.845113 
L 22.724393 19.655887 
L 22.476945 19.466661 
L 22.229498 19.277435 
L 21.98205 19.088208 
L 21.539413 18.83827 
L 21.096776 18.588331 
L 20.654138 18.338392 
L 20.211501 18.088454 
L 19.768864 17.838515 
L 19.326227 17.588576 
L 18.883589 17.338637 
L 18.440952 17.088699 
L 18.068527 16.938376 
L 17.696102 16.788053 
L 17.323677 16.63773 
L 16.951252 16.487408 
L 16.578826 16.337085 
L 16.206401 16.186762 
L 15.833976 16.036439 
L 15.461551 15.886117 
L 15.119518 15.704149 
L 14.777484 15.522181 
L 14.435451 15.340213 
L 14.093418 15.158245 
L 13.751384 14.976277 
L 13.409351 14.79431 
L 13.067318 14.612342 
L 12.725284 14.430374 
L 12.433704 14.32255 
L 12.142123 14.214726 
L 11.850542 14.106902 
L 11.558961 13.999078 
L 11.26738 13.891254 
L 10.975799 13.78343 
L 10.684218 13.675606 
L 10.392637 13.567782 
L 9.871162 13.52586 
L 9.349686 13.483937 
L 8.828211 13.442015 
L 8.306736 13.400093 
L 8.029398 13.405147 
L 7.75206 13.410201 
L 7.474722 13.415254 
L 7.197384 13.420308 
L 6.920046 13.425362 
L 6.642708 13.430415 
L 6.36537 13.435469 
L 6.088033 13.440523 
L 5.802169 13.627205 
L 5.516305 13.813888 
" style="fill:none;stroke:#000000;stroke-linecap:square;stroke-width:0.4;"/>
   </g>
   <g id="line2d_30">
    <path clip-path="url(#p081a1183cc)" d="M 38.786418 26.793742 
L 38.709185 26.46352 
L 38.631951 26.133299 
L 38.465448 25.688978 
L 38.298945 25.244658 
L 38.113786 24.750682 
L 37.928627 24.256706 
L 37.78419 23.896162 
L 37.639754 23.535618 
L 37.495318 23.175074 
L 37.350881 22.81453 
L 37.008898 22.625304 
L 36.666915 22.436078 
L 36.324932 22.246852 
L 35.982948 22.057626 
L 35.640965 21.868399 
L 35.298982 21.679173 
L 34.956999 21.489947 
L 34.615016 21.300721 
L 34.302121 21.075101 
L 33.989225 20.849481 
L 33.67633 20.623861 
L 33.363435 20.398241 
L 33.050539 20.172622 
L 32.737644 19.947002 
L 32.424749 19.721382 
L 32.111853 19.495762 
L 31.76982 19.291985 
L 31.427787 19.088208 
L 31.085754 18.884432 
L 30.74372 18.680655 
L 30.401687 18.476878 
L 30.059654 18.273101 
L 29.71762 18.069324 
L 29.375587 17.865547 
L 29.084508 17.74185 
L 28.793428 17.618152 
L 28.502349 17.494455 
L 28.211269 17.370757 
L 27.92019 17.24706 
L 27.629111 17.123363 
L 27.338031 16.999665 
L 27.046952 16.875968 
L 26.806826 16.730393 
L 26.566701 16.584819 
L 26.326576 16.439245 
L 26.08645 16.29367 
L 25.846325 16.148096 
L 25.606199 16.002522 
L 25.366074 15.856948 
L 25.125948 15.711373 
L 24.732961 15.391123 
L 24.339974 15.070874 
L 23.946987 14.750624 
L 23.553999 14.430374 
L 23.292008 14.219339 
L 23.030016 14.008303 
L 22.768025 13.797268 
L 22.506033 13.586233 
L 22.244042 13.375198 
L 21.98205 13.164162 
L 21.720059 12.953127 
L 21.458067 12.742092 
L 21.123356 12.363639 
L 20.788645 11.985187 
L 20.453934 11.606735 
L 20.119222 11.228282 
L 19.748051 10.966642 
L 19.37688 10.705002 
L 19.005708 10.443361 
L 18.634537 10.181721 
L 18.263366 9.920081 
L 17.892194 9.65844 
L 17.521023 9.3968 
L 17.149852 9.13516 
L 16.698689 8.989586 
L 16.247526 8.844011 
L 15.796363 8.698437 
L 15.3452 8.552863 
L 15.083208 8.480076 
L 14.821217 8.407288 
L 14.559225 8.334501 
L 14.297234 8.261714 
L 13.831426 8.290748 
L 13.365619 8.319781 
L 13.161803 8.538142 
L 12.957988 8.756504 
L 12.754172 8.974865 
L 12.550356 9.193227 
" style="fill:none;stroke:#4169e1;stroke-linecap:square;stroke-width:0.4;"/>
   </g>
   <g id="line2d_31">
    <path clip-path="url(#p081a1183cc)" d="M 52.174866 34.342983 
L 52.660734 34.459388 
L 53.034062 34.386601 
L 53.40739 34.313814 
L 53.780718 34.241027 
L 54.154045 34.16824 
L 54.396678 34.022665 
L 54.639311 33.877091 
L 54.881944 33.731517 
L 55.124577 33.585943 
L 55.36721 33.440368 
L 55.609844 33.294794 
L 55.852477 33.14922 
L 56.09511 33.003645 
L 56.402488 32.884425 
L 56.709867 32.765205 
L 57.017245 32.645984 
L 57.324624 32.526764 
L 57.632003 32.407544 
L 57.939381 32.288323 
L 58.24676 32.169103 
L 58.554139 32.049883 
L 58.847926 31.833014 
L 59.141714 31.616145 
L 59.435501 31.399276 
L 59.729289 31.182407 
L 60.023076 30.965538 
L 60.316864 30.748668 
L 60.610652 30.531799 
L 60.904439 30.31493 
L 61.111264 30.02931 
L 61.318089 29.74369 
L 61.524914 29.45807 
L 61.731738 29.17245 
L 61.938563 28.88683 
L 62.145388 28.60121 
L 62.352213 28.31559 
L 62.559038 28.02997 
L 62.955034 27.692422 
L 63.351031 27.354875 
L 63.747027 27.017327 
L 64.143023 26.679779 
L 64.41003 26.213208 
L 64.677037 25.746638 
L 64.944043 25.280068 
L 65.21105 24.813497 
L 65.527355 24.66002 
L 65.843661 24.506543 
L 66.159967 24.353066 
L 66.476272 24.199589 
L 66.792578 24.046112 
L 67.108883 23.892635 
L 67.425189 23.739158 
L 67.741495 23.585681 
L 67.967277 23.376341 
L 68.193059 23.167002 
L 68.418841 22.957663 
L 68.644623 22.748323 
L 68.665285 22.450256 
L 68.685948 22.152188 
L 68.70661 21.85412 
L 68.727273 21.556052 
L 68.492664 21.26626 
L 68.258055 20.976468 
L 68.023446 20.686677 
L 67.788838 20.396885 
L 67.499263 20.21529 
L 67.209688 20.033695 
L 66.920113 19.8521 
L 66.630538 19.670506 
" style="fill:none;stroke:#000000;stroke-linecap:square;stroke-width:0.4;"/>
   </g>
   <g id="line2d_32">
    <path clip-path="url(#p081a1183cc)" d="M 38.298945 25.244658 
L 37.829126 25.161153 
L 37.359307 25.077648 
L 36.889487 24.994143 
L 36.419668 24.910637 
L 35.994684 24.788059 
L 35.5697 24.665481 
L 35.144716 24.542903 
L 34.719732 24.420325 
L 34.295049 24.175982 
L 33.870366 23.93164 
L 33.648997 23.754251 
L 33.427629 23.576862 
L 33.20626 23.399473 
L 32.984891 23.222084 
L 32.718637 23.140411 
L 32.452382 23.058737 
L 32.186128 22.977064 
L 31.919873 22.89539 
L 31.653619 22.813716 
L 31.387365 22.732043 
L 31.12111 22.650369 
L 30.854856 22.568696 
L 30.36297 22.350538 
L 29.871084 22.13238 
L 29.379198 21.914222 
L 28.887312 21.696064 
L 28.622462 21.522847 
L 28.357611 21.34963 
L 28.092761 21.176413 
L 27.827911 21.003196 
L 27.563061 20.829978 
L 27.298211 20.656761 
L 27.033361 20.483544 
L 26.768511 20.310327 
L 26.555868 20.070258 
L 26.343226 19.83019 
L 26.130583 19.590121 
L 25.917941 19.350052 
L 25.705299 19.109984 
L 25.492656 18.869915 
L 25.280014 18.629846 
L 25.067371 18.389777 
L 24.79535 17.953055 
L 24.523328 17.516332 
L 24.096488 17.261611 
L 23.669649 17.00689 
L 23.242809 16.752168 
L 22.81597 16.497447 
L 22.38913 16.242726 
L 21.962291 15.988005 
L 21.535451 15.733284 
L 21.108611 15.478563 
L 20.828265 15.276346 
L 20.547918 15.07413 
L 20.267571 14.871913 
L 19.987224 14.669696 
L 19.706877 14.46748 
L 19.42653 14.265263 
L 19.146183 14.063046 
L 18.865836 13.86083 
L 18.611467 13.601869 
L 18.357099 13.342908 
L 18.10273 13.083947 
L 17.848362 12.824987 
L 17.593993 12.566026 
L 17.339625 12.307065 
L 17.085256 12.048104 
L 16.830888 11.789143 
L 16.574664 11.56315 
L 16.31844 11.337158 
L 16.062216 11.111165 
L 15.805992 10.885172 
L 15.549768 10.659179 
L 15.293543 10.433186 
L 15.037319 10.207193 
L 14.781095 9.9812 
L 14.502253 9.882704 
L 14.223411 9.784207 
L 13.944568 9.68571 
L 13.665726 9.587213 
L 13.386883 9.488717 
L 13.108041 9.39022 
L 12.829198 9.291723 
L 12.550356 9.193227 
L 12.084549 9.193227 
L 11.618742 9.193227 
L 11.225754 9.255092 
L 10.832767 9.316958 
L 10.43978 9.378824 
L 10.046792 9.440689 
L 9.770257 9.51714 
L 9.493722 9.59359 
L 9.217186 9.67004 
L 8.940651 9.74649 
" style="fill:none;stroke:#4169e1;stroke-linecap:square;stroke-width:0.4;"/>
   </g>
   <g id="line2d_33">
    <path clip-path="url(#p081a1183cc)" d="M 44.427862 19.933163 
L 44.841611 19.838398 
L 45.255361 19.743632 
L 45.669111 19.648866 
L 46.082861 19.5541 
L 46.427101 19.394009 
L 46.771341 19.233918 
L 47.115581 19.073827 
L 47.459821 18.913736 
L 47.755916 18.913736 
L 48.05201 18.913736 
L 48.348105 18.913736 
L 48.6442 18.913736 
L 49.022593 18.891893 
L 49.400986 18.870051 
L 49.779379 18.848208 
L 50.157772 18.826365 
L 50.536165 18.804522 
L 50.914559 18.782679 
L 51.292952 18.760836 
L 51.671345 18.738993 
L 51.98419 18.731701 
L 52.297035 18.724408 
L 52.60988 18.717116 
L 52.922725 18.709824 
L 53.235571 18.702532 
L 53.548416 18.695239 
L 53.861261 18.687947 
L 54.174106 18.680655 
L 54.640214 18.782407 
L 55.106322 18.88416 
L 55.57243 18.985913 
L 56.038539 19.087666 
L 56.304994 19.153262 
L 56.571449 19.218859 
L 56.837904 19.284456 
L 57.104359 19.350052 
L 57.370814 19.415649 
L 57.637269 19.481245 
L 57.903724 19.546842 
L 58.170179 19.612439 
L 58.592254 19.64154 
L 59.014329 19.670641 
L 59.436404 19.699743 
L 59.858479 19.728844 
L 60.329602 19.729115 
L 60.800726 19.729387 
L 61.271849 19.729658 
L 61.742972 19.729929 
L 62.184607 19.642897 
L 62.626241 19.555864 
L 63.067875 19.468832 
L 63.509509 19.381799 
L 63.914031 19.277943 
L 64.318553 19.174088 
L 64.723076 19.070232 
L 65.127598 18.966376 
" style="fill:none;stroke:#ff0000;stroke-linecap:square;stroke-width:0.4;"/>
   </g>
   <g id="line2d_34">
    <path clip-path="url(#p081a1183cc)" d="M 20.971798 24.09553 
L 20.773198 23.702493 
L 20.574598 23.309456 
L 20.375998 22.916419 
L 20.177398 22.523382 
L 19.842587 22.174099 
L 19.507775 21.824815 
L 19.172964 21.475532 
L 18.838152 21.126249 
L 18.430621 20.8351 
L 18.02309 20.543951 
L 17.615559 20.252803 
L 17.208027 19.961654 
L 16.771408 19.743293 
L 16.334789 19.524931 
L 15.89817 19.30657 
L 15.461551 19.088208 
L 15.024832 19.030006 
L 14.588112 18.971803 
L 14.151393 18.913601 
L 13.714674 18.855398 
L 13.40905 18.811746 
L 13.103427 18.768094 
L 12.797804 18.724442 
L 12.49218 18.68079 
L 12.186557 18.637138 
L 11.880934 18.593487 
L 11.57531 18.549835 
L 11.269687 18.506183 
L 10.905788 18.549801 
L 10.541888 18.593419 
L 10.177989 18.637037 
L 9.814089 18.680655 
L 9.515688 18.717048 
L 9.217286 18.753442 
L 8.918885 18.789835 
L 8.620483 18.826229 
L 8.322082 18.862623 
L 8.02368 18.899016 
L 7.725279 18.93541 
L 7.426877 18.971803 
L 6.902894 19.04459 
L 6.378911 19.117378 
L 5.854928 19.190165 
L 5.330945 19.262952 
L 5.119908 19.45947 
L 4.90887 19.655989 
L 4.697833 19.852507 
L 4.486795 20.049026 
L 4.275758 20.245544 
L 4.06472 20.442063 
L 3.853682 20.638581 
L 3.642645 20.8351 
" style="fill:none;stroke:#ff0000;stroke-dasharray:1.48,0.64;stroke-dashoffset:0;stroke-width:0.4;"/>
   </g>
   <g id="line2d_35">
    <path clip-path="url(#p081a1183cc)" d="M 37.409458 28.578621 
L 37.037585 28.506919 
L 36.665711 28.435218 
L 36.293838 28.363516 
L 35.921964 28.291814 
L 35.550091 28.220112 
L 35.178217 28.14841 
L 34.806344 28.076709 
L 34.43447 28.005007 
L 33.970268 27.915532 
L 33.506066 27.826058 
L 33.041863 27.736583 
L 32.577661 27.647108 
L 32.228355 27.581614 
L 31.87905 27.516119 
L 31.529745 27.450624 
L 31.18044 27.385129 
L 30.831134 27.319634 
L 30.481829 27.254139 
L 30.132524 27.188644 
L 29.783218 27.12315 
L 29.433913 27.057655 
L 29.084608 26.99216 
L 28.735303 26.926665 
L 28.385997 26.86117 
L 28.036692 26.795675 
L 27.687387 26.73018 
L 27.338081 26.664686 
L 26.988776 26.599191 
L 26.619661 26.539767 
L 26.250546 26.480343 
L 25.776965 26.404131 
L 25.303384 26.327918 
L 24.829804 26.251705 
L 24.356223 26.175492 
L 23.882642 26.099279 
L 23.409061 26.023066 
L 22.935481 25.946854 
L 22.4619 25.870641 
L 22.192887 25.827362 
L 21.923874 25.784083 
L 21.647339 25.696745 
L 21.370804 25.609408 
L 21.094268 25.52207 
L 20.817733 25.434732 
L 20.541197 25.347394 
L 20.264662 25.260056 
L 19.988126 25.172719 
L 19.711591 25.085381 
L 19.37683 25.027144 
L 19.042068 24.968908 
L 18.707307 24.910671 
L 18.372546 24.852435 
L 18.037784 24.794198 
L 17.703023 24.735962 
L 17.368261 24.677725 
L 17.0335 24.619489 
L 16.676873 24.561286 
L 16.320245 24.503084 
L 15.963618 24.444881 
L 15.60699 24.386679 
L 15.250363 24.328476 
L 14.893736 24.270273 
L 14.537108 24.212071 
L 14.180481 24.153868 
L 13.70018 24.037395 
L 13.219879 23.920922 
L 12.739578 23.804449 
L 12.259277 23.687976 
L 11.778976 23.571503 
L 11.298675 23.45503 
L 10.818374 23.338557 
L 10.338072 23.222084 
L 10.010583 23.200275 
L 9.683094 23.178466 
L 9.355604 23.156657 
L 9.028115 23.134848 
L 8.700626 23.113039 
L 8.373136 23.09123 
L 8.045647 23.069421 
L 7.718157 23.047612 
L 7.376074 22.982083 
L 7.03399 22.916555 
L 6.691907 22.851026 
L 6.349824 22.785497 
L 6.00774 22.719968 
L 5.665657 22.654439 
L 5.323573 22.588911 
L 4.98149 22.523382 
L 4.603046 22.33419 
L 4.224603 22.144997 
L 3.84616 21.955805 
L 3.467716 21.766613 
" style="fill:none;stroke:#ff0000;stroke-linecap:square;stroke-width:0.4;"/>
   </g>
   <g id="line2d_36">
    <path clip-path="url(#p081a1183cc)" d="M 44.427862 19.933163 
L 44.895073 19.669013 
L 45.362285 19.404863 
L 45.829496 19.140713 
L 46.296707 18.876563 
L 46.588589 18.777727 
L 46.880471 18.678891 
L 47.172353 18.580055 
L 47.464235 18.481219 
L 47.756117 18.382383 
L 48.047998 18.283548 
L 48.33988 18.184712 
L 48.631762 18.085876 
L 48.934627 17.993484 
L 49.237492 17.901093 
L 49.540357 17.808701 
L 49.843222 17.71631 
L 50.146087 17.623918 
L 50.448952 17.531527 
L 50.751817 17.439135 
L 51.054682 17.346744 
L 51.460458 17.213448 
L 51.866234 17.080152 
L 52.27201 16.946855 
L 52.677785 16.813559 
L 53.083561 16.680263 
L 53.489337 16.546967 
L 53.895113 16.413671 
L 54.300889 16.280375 
L 54.690516 16.164648 
L 55.080143 16.048921 
L 55.46977 15.933194 
L 55.859397 15.817468 
L 56.249025 15.701741 
L 56.638652 15.586014 
L 57.028279 15.470287 
L 57.417906 15.35456 
L 57.774132 15.24616 
L 58.130358 15.137759 
L 58.486584 15.029358 
L 58.842811 14.920958 
L 59.199037 14.812557 
L 59.555263 14.704157 
L 59.911489 14.595756 
L 60.267715 14.487355 
L 60.595606 14.353517 
L 60.923497 14.219678 
L 61.251387 14.085839 
L 61.579278 13.952 
L 61.906466 14.066913 
L 62.233655 14.181826 
L 62.411392 14.389537 
L 62.589129 14.597248 
L 62.766866 14.80496 
L 62.944603 15.012671 
L 63.063462 15.286522 
L 63.182321 15.560372 
L 63.30118 15.834223 
L 63.420039 16.108073 
L 63.519138 16.416452 
L 63.618238 16.724831 
L 63.717337 17.03321 
L 63.816437 17.341588 
L 64.144227 17.747785 
L 64.472017 18.153982 
L 64.799807 18.560179 
L 65.127598 18.966376 
L 65.343851 19.172121 
L 65.560104 19.377865 
L 65.776358 19.583609 
L 65.992611 19.789353 
" style="fill:none;stroke:#ff0000;stroke-linecap:square;stroke-width:0.4;"/>
   </g>
   <g id="line2d_37">
    <path clip-path="url(#p081a1183cc)" d="M 51.427408 31.452391 
L 51.948984 31.330762 
L 52.470559 31.209134 
L 52.992135 31.087505 
L 53.513711 30.965877 
L 53.964774 30.776684 
L 54.415836 30.587492 
L 54.866899 30.3983 
L 55.317962 30.209107 
L 55.587175 30.078084 
L 55.856388 29.94706 
L 56.125602 29.816037 
L 56.394815 29.685013 
L 56.664028 29.553989 
L 56.933242 29.422966 
L 57.202455 29.291942 
L 57.471668 29.160918 
L 57.782407 28.913456 
L 58.093146 28.665993 
L 58.403885 28.41853 
L 58.714623 28.171067 
L 58.944919 27.894503 
L 59.175215 27.617939 
L 59.405511 27.341375 
L 59.635806 27.064811 
L 59.866102 26.788247 
L 60.096398 26.511683 
L 60.326694 26.235119 
L 60.556989 25.958555 
L 60.75594 25.74752 
L 60.954891 25.536485 
L 61.153843 25.32545 
L 61.352794 25.114414 
L 61.551745 24.903379 
L 61.750696 24.692344 
L 61.949647 24.481309 
L 62.148598 24.270273 
L 62.352363 24.066496 
L 62.556129 23.86272 
L 62.759895 23.658943 
L 62.96366 23.455166 
L 63.167426 23.251389 
L 63.371191 23.047612 
L 63.574957 22.843835 
L 63.778723 22.640058 
L 64.02607 22.261606 
L 64.273417 21.883153 
L 64.520764 21.504701 
L 64.768112 21.126249 
L 65.054076 20.820583 
L 65.34004 20.514918 
L 65.626003 20.209253 
L 65.911967 19.903587 
" style="fill:none;stroke:#ff0000;stroke-linecap:square;stroke-width:0.4;"/>
   </g>
  </g>
 </g>
 <defs>
  <clipPath id="p081a1183cc">
   <rect height="58.79207" width="72" x="0" y="0"/>
  </clipPath>
 </defs>
</svg>
