<?xml version="1.0" encoding="utf-8" standalone="no"?>
<!DOCTYPE svg PUBLIC "-//W3C//DTD SVG 1.1//EN"
  "http://www.w3.org/Graphics/SVG/1.1/DTD/svg11.dtd">
<svg height="48.132202pt" version="1.1" viewBox="0 0 72 48.132202" width="72pt" xmlns="http://www.w3.org/2000/svg" xmlns:xlink="http://www.w3.org/1999/xlink">
 <metadata>
  <rdf:RDF xmlns:cc="http://creativecommons.org/ns#" xmlns:dc="http://purl.org/dc/elements/1.1/" xmlns:rdf="http://www.w3.org/1999/02/22-rdf-syntax-ns#">
   <cc:Work>
    <dc:type rdf:resource="http://purl.org/dc/dcmitype/StillImage"/>
    <dc:date>2022-05-19T22:12:49.802091</dc:date>
    <dc:format>image/svg+xml</dc:format>
    <dc:creator>
     <cc:Agent>
      <dc:title>Matplotlib v3.4.3, https://matplotlib.org/</dc:title>
     </cc:Agent>
    </dc:creator>
   </cc:Work>
  </rdf:RDF>
 </metadata>
 <defs>
  <style type="text/css">*{stroke-linecap:butt;stroke-linejoin:round;}</style>
 </defs>
 <g id="figure_1">
  <g id="patch_1">
   <path d="M 0 48.132202 
L 72 48.132202 
L 72 0 
L 0 0 
z
" style="fill:#ffffff;"/>
  </g>
  <g id="axes_1">
   <g id="line2d_1">
    <path clip-path="url(#p3bedc8756a)" d="M 28.581861 30.556015 
L 28.280043 29.652328 
L 27.978224 28.74864 
L 27.697358 27.907411 
L 27.416491 27.066181 
L 27.231414 26.511867 
L 27.046337 25.957554 
L 26.861259 25.40324 
L 26.676182 24.848926 
L 26.473322 24.241539 
L 26.270462 23.634151 
L 26.11504 23.168644 
L 25.959618 22.703138 
L 25.804196 22.237632 
L 25.648774 21.772125 
L 25.485025 21.282071 
L 25.301505 20.732412 
L 25.117986 20.182752 
L 24.818638 19.286122 
L 24.584834 18.584521 
" style="fill:none;stroke:#808080;stroke-linecap:square;stroke-width:0.4;"/>
   </g>
   <g id="line2d_2">
    <path clip-path="url(#p3bedc8756a)" d="M 12.369832 37.039173 
L 12.638557 36.617432 
L 12.907282 36.195691 
L 13.348674 35.502799 
L 13.616325 35.082635 
L 13.883975 34.66247 
L 14.176016 34.20402 
L 14.468057 33.745571 
L 14.732054 33.331149 
L 14.996051 32.916728 
L 15.260049 32.502306 
L 15.524046 32.087884 
L 15.779555 31.686713 
L 16.046023 31.2685 
L 16.312492 30.850288 
L 16.723584 30.204764 
L 17.134676 29.559241 
L 17.555868 28.898029 
L 17.97706 28.236816 
L 18.411468 27.554959 
L 18.845876 26.873102 
L 19.260299 26.222474 
L 19.674722 25.571846 
L 19.950753 25.13847 
L 20.226785 24.705093 
L 20.55106 24.195971 
L 20.875335 23.68685 
L 21.19961 23.177728 
L 21.523885 22.668606 
L 21.843754 22.166466 
L 22.163624 21.664325 
L 22.519596 21.105433 
L 22.875567 20.54654 
L 23.210802 20.020302 
L 23.546037 19.494064 
L 23.878692 18.970679 
" style="fill:none;stroke:#808080;stroke-linecap:square;stroke-width:0.4;"/>
   </g>
   <g id="line2d_3">
    <path clip-path="url(#p3bedc8756a)" d="M 58.293312 45.487802 
L 57.789816 45.133398 
L 57.286319 44.778995 
L 56.782715 44.424666 
L 56.279111 44.070338 
L 55.763903 43.707677 
L 55.248695 43.345016 
L 54.781086 43.015911 
L 54.313477 42.686806 
L 53.845867 42.357701 
L 53.378258 42.028596 
L 52.897057 41.689957 
L 52.415856 41.351319 
L 51.934654 41.01268 
L 51.453453 40.674041 
L 50.787389 40.205307 
L 50.121326 39.736572 
L 49.672788 39.420905 
L 49.224251 39.105237 
L 48.775713 38.78957 
L 48.327176 38.473902 
L 47.639515 37.990004 
L 47.115819 37.621487 
L 46.592122 37.252971 
L 46.073583 36.887983 
L 45.555044 36.522994 
L 44.873616 36.043525 
L 44.192187 35.564056 
L 43.586078 35.137586 
L 42.97997 34.711115 
L 42.353017 34.269894 
L 41.726064 33.828673 
L 41.099111 33.387451 
L 40.472158 32.94623 
L 39.978546 32.598883 
L 39.484935 32.251536 
L 39.062185 31.954073 
L 38.639435 31.65661 
L 38.216685 31.359147 
L 37.793935 31.061684 
L 37.294414 30.709832 
L 36.794893 30.357981 
L 36.295372 30.00613 
L 35.795851 29.654279 
" style="fill:none;stroke:#808080;stroke-linecap:square;stroke-width:0.4;"/>
   </g>
   <g id="line2d_4">
    <path clip-path="url(#p3bedc8756a)" d="M 40.442932 29.487175 
L 40.252106 28.835871 
L 40.088787 28.277353 
L 39.911607 27.672218 
L 39.734427 27.067082 
L 39.595176 26.591441 
L 39.455924 26.1158 
L 39.314094 25.631151 
L 39.133369 25.013329 
L 38.862172 24.087121 
L 38.650717 23.364651 
L 38.469884 22.746378 
L 38.28905 22.128105 
" style="fill:none;stroke:#808080;stroke-linecap:square;stroke-width:0.4;"/>
   </g>
   <g id="line2d_5">
    <path clip-path="url(#p3bedc8756a)" d="M 59.979155 44.358755 
L 59.887181 43.628103 
L 59.795206 42.897451 
L 59.698074 42.125061 
L 59.600942 41.35267 
L 59.506711 40.603776 
L 59.41248 39.854882 
L 59.330605 39.20523 
L 59.260711 38.649527 
L 59.190817 38.093825 
L 59.120923 37.538122 
L 59.051028 36.98242 
L 58.962062 36.27549 
L 58.873096 35.56856 
L 58.806694 35.041346 
L 58.740292 34.514133 
L 58.665401 33.918643 
L 58.590511 33.323154 
L 58.51562 32.727665 
L 58.44073 32.132176 
L 58.365517 31.534397 
L 58.290304 30.936618 
L 58.227555 30.438268 
L 58.164806 29.939919 
L 58.102057 29.44157 
L 58.039308 28.94322 
L 57.972476 28.411578 
L 57.905644 27.879935 
L 57.832257 27.296607 
L 57.758871 26.713279 
L 57.685485 26.129951 
L 57.612099 25.546623 
L 57.523347 24.840969 
L 57.451465 24.26999 
L 57.379583 23.699011 
L 57.307701 23.128032 
L 57.235819 22.557053 
L 57.168772 22.024059 
L 57.101725 21.491065 
L 56.996212 20.651937 
L 56.8907 19.81281 
L 56.776591 18.90672 
L 56.662482 18.00063 
L 56.593931 17.4554 
L 56.52538 16.91017 
L 56.456829 16.36494 
L 56.388278 15.819709 
L 56.324776 15.315392 
L 56.261275 14.811075 
L 56.199278 14.318206 
L 56.137281 13.825336 
L 56.075285 13.332467 
L 56.013288 12.839598 
L 55.970094 12.49668 
L 55.889294 11.854835 
L 55.796245 11.11555 
L 55.692666 10.291286 
L 55.628842 9.785468 
L 55.533429 9.02659 
L 55.438017 8.267711 
L 55.322189 7.347358 
L 55.273838 6.962702 
L 55.230644 6.620385 
L 55.138454 5.886955 
" style="fill:none;stroke:#808080;stroke-linecap:square;stroke-width:0.4;"/>
   </g>
   <g id="line2d_6">
    <path clip-path="url(#p3bedc8756a)" d="M 53.977168 4.927116 
L 53.266621 4.386765 
L 52.556074 3.846414 
" style="fill:none;stroke:#808080;stroke-linecap:square;stroke-width:0.4;"/>
   </g>
   <g id="line2d_7">
    <path clip-path="url(#p3bedc8756a)" d="M 30.568126 27.631305 
L 29.989202 28.024782 
L 29.410277 28.418259 
L 28.831353 28.811736 
L 28.252429 29.205213 
" style="fill:none;stroke:#808080;stroke-linecap:square;stroke-width:0.4;"/>
   </g>
   <g id="line2d_8">
    <path clip-path="url(#p3bedc8756a)" d="M 26.415945 33.825895 
L 26.828165 33.462896 
L 27.240386 33.099897 
L 27.652606 32.736898 
L 28.064826 32.3739 
" style="fill:none;stroke:#808080;stroke-linecap:square;stroke-width:0.4;"/>
   </g>
   <g id="line2d_9">
    <path clip-path="url(#p3bedc8756a)" d="M 55.220759 6.272813 
L 55.428346 6.357791 
L 55.518387 6.44292 
L 55.551051 6.525497 
L 55.615949 6.648161 
L 55.748538 6.783436 
L 55.923677 6.838387 
L 56.161564 6.918561 
L 56.381616 7.048732 
L 56.477996 7.160135 
L 56.574376 7.271538 
L 56.714487 7.43549 
L 56.854597 7.599442 
L 57.055953 7.719553 
L 57.257309 7.839665 
L 57.413053 7.924794 
L 57.568797 8.009922 
L 57.724542 8.095051 
L 57.880286 8.18018 
L 58.076484 8.27702 
L 58.272683 8.37386 
L 58.43944 8.452889 
L 58.606198 8.531919 
L 58.772956 8.610948 
L 58.939713 8.689978 
L 59.106471 8.769007 
L 59.273229 8.848037 
L 59.439986 8.927066 
L 59.606744 9.006096 
L 59.85312 9.121252 
L 60.099496 9.236409 
L 60.249062 9.293912 
L 60.385735 9.346536 
L 60.522407 9.39916 
L 60.705067 9.437971 
L 60.887727 9.476782 
L 61.15527 9.516719 
L 61.322995 9.521748 
L 61.490719 9.526778 
L 61.75332 9.549299 
L 61.967247 9.626921 
L 62.181173 9.704543 
L 62.342935 9.791999 
L 62.504696 9.879455 
L 62.666458 9.966911 
L 62.828219 10.054367 
" style="fill:none;stroke:#008000;stroke-linecap:square;stroke-width:0.4;"/>
   </g>
   <g id="line2d_10">
    <path clip-path="url(#p3bedc8756a)" d="M 62.828219 10.054367 
L 61.882578 14.130757 
L 61.770645 16.753931 
L 61.966575 18.773509 
L 63.85184 27.764309 
L 64.08465 28.980005 
L 64.768926 31.064836 
L 65.639677 31.98594 
L 65.565108 33.429715 
L 65.095565 34.820736 
L 62.747258 38.383631 
L 62.131426 39.205155 
L 61.640151 40.334642 
L 60.987008 43.83537 
L 60.987008 43.83537 
" style="fill:none;stroke:#000000;stroke-linecap:square;stroke-width:0.4;"/>
   </g>
   <g id="line2d_11">
    <path clip-path="url(#p3bedc8756a)" d="M 66.809129 11.921347 
L 66.842566 12.194403 
L 66.876002 12.467459 
L 66.909438 12.740515 
L 66.942874 13.013572 
L 66.97631 13.286628 
L 67.009746 13.559684 
L 67.043182 13.83274 
L 67.076619 14.105796 
L 67.110055 14.378852 
L 67.143491 14.651909 
L 67.176927 14.924965 
L 67.210363 15.198021 
L 67.243799 15.471077 
L 67.277236 15.744133 
L 67.310672 16.017189 
L 67.344108 16.290245 
L 67.377544 16.563302 
L 67.41098 16.836358 
L 67.444416 17.109414 
L 67.477852 17.38247 
L 67.511289 17.655526 
L 67.544725 17.928582 
L 67.578161 18.201639 
L 67.611597 18.474695 
L 67.645033 18.747751 
L 67.678469 19.020807 
L 67.711906 19.293863 
L 67.745342 19.566919 
L 67.778778 19.839975 
L 67.812214 20.113032 
L 67.84565 20.386088 
L 67.879086 20.659144 
" style="fill:none;stroke:#000000;stroke-linecap:square;stroke-width:0.4;"/>
   </g>
   <g id="line2d_12">
    <path clip-path="url(#p3bedc8756a)" d="M 60.249062 9.293912 
L 59.26286 18.143863 
L 59.71172 19.158428 
L 59.943362 19.703659 
L 60.125417 24.237109 
L 60.067154 27.344952 
L 60.000188 28.237079 
L 60.078812 31.49947 
L 59.61851 33.140885 
L 59.641772 34.7619 
L 59.962206 38.312972 
L 60.16622 38.954385 
L 60.51596 39.461667 
L 60.617901 42.447109 
L 60.51596 43.613315 
L 60.51596 43.613315 
" style="fill:none;stroke:#000000;stroke-linecap:square;stroke-width:0.4;"/>
   </g>
   <g id="line2d_13">
    <path clip-path="url(#p3bedc8756a)" d="M 59.187056 17.933969 
L 58.995693 18.11909 
L 58.80433 18.304212 
L 58.735242 18.569132 
L 58.666153 18.834053 
L 58.643106 19.029834 
L 58.620059 19.225616 
L 58.597011 19.421397 
L 58.573964 19.617178 
L 58.591263 19.801437 
L 58.608562 19.985695 
L 58.625861 20.169953 
L 58.64316 20.354211 
L 58.671902 20.532727 
L 58.700644 20.711242 
L 58.729386 20.889758 
L 58.758128 21.068273 
L 58.827216 21.206476 
L 58.896305 21.344679 
L 58.965393 21.482882 
L 59.034482 21.621085 
L 59.092073 21.839913 
L 59.149665 22.058741 
L 59.074828 22.260303 
L 58.999991 22.461864 
L 58.925154 22.663426 
L 58.850317 22.864988 
L 58.694895 23.026237 
L 58.539473 23.187487 
L 58.384051 23.348736 
L 58.228629 23.509986 
L 58.096255 23.636666 
L 57.96388 23.763345 
L 57.831505 23.890025 
L 57.699131 24.016705 
L 57.548544 24.184673 
L 57.397957 24.352642 
L 57.24737 24.52061 
L 57.096783 24.688578 
" style="fill:none;stroke:#008000;stroke-linecap:square;stroke-width:0.4;"/>
   </g>
   <g id="line2d_14">
    <path clip-path="url(#p3bedc8756a)" d="M 56.854597 7.599442 
L 57.477602 11.275843 
L 57.742217 20.915694 
L 57.745118 21.598114 
L 57.612797 22.537572 
L 56.602554 27.224296 
L 56.54789 28.462362 
L 56.006787 30.633374 
L 56.192442 31.423791 
L 58.263147 35.39148 
L 58.372662 38.459301 
L 58.009867 41.204745 
L 59.335226 43.782521 
L 59.684965 44.065384 
L 59.684965 44.065384 
" style="fill:none;stroke:#ff0000;stroke-linecap:square;stroke-width:0.4;"/>
   </g>
   <g id="line2d_15">
    <path clip-path="url(#p3bedc8756a)" d="M 54.383532 10.222823 
L 53.853926 10.608868 
L 53.143594 11.453063 
L 52.345854 12.263401 
L 51.88539 13.397853 
L 51.626389 15.194568 
L 51.620641 15.401872 
L 52.794821 16.39234 
L 53.255339 18.327183 
L 54.084292 20.285147 
L 54.274312 21.212256 
L 54.193673 22.404361 
L 53.698558 23.498463 
L 51.781811 25.905531 
L 50.912646 26.498655 
L 49.720978 27.322168 
L 49.307522 27.859591 
L 49.235103 28.447761 
L 49.964238 30.211596 
L 50.21287 30.775819 
L 50.21287 30.775819 
" style="fill:none;stroke:#000000;stroke-linecap:square;stroke-width:0.4;"/>
   </g>
   <g id="line2d_16">
    <path clip-path="url(#p3bedc8756a)" d="M 68.727273 26.680173 
L 68.592319 26.910524 
L 68.457366 27.140875 
L 68.322413 27.371226 
L 68.187459 27.601577 
L 68.044555 27.72867 
L 67.90165 27.855763 
L 67.758746 27.982856 
L 67.615841 28.109948 
L 67.449084 28.260876 
L 67.282326 28.411803 
L 67.115568 28.56273 
L 66.94881 28.713658 
L 66.796182 28.834557 
L 66.643554 28.955457 
L 66.490925 29.076356 
L 66.338297 29.197256 
L 66.186797 29.317217 
L 66.02799 29.452267 
L 65.869183 29.587317 
L 65.710377 29.722367 
L 65.55157 29.857418 
L 65.480118 30.000388 
L 65.408666 30.143358 
L 65.337213 30.286328 
L 65.265761 30.429298 
L 65.265761 30.580225 
L 65.265761 30.731152 
L 65.265761 30.88208 
L 65.265761 31.033007 
L 65.238147 31.282463 
L 65.210533 31.531919 
" style="fill:none;stroke:#008000;stroke-linecap:square;stroke-width:0.4;"/>
   </g>
   <g id="line2d_17">
    <path clip-path="url(#p3bedc8756a)" d="M 56.959681 25.259857 
L 56.826527 25.333857 
L 56.693373 25.407857 
L 56.56022 25.481857 
L 56.427066 25.555857 
L 56.293912 25.629856 
L 56.160759 25.703856 
L 56.027605 25.777856 
L 55.894451 25.851856 
L 55.670962 25.957103 
L 55.447472 26.062351 
L 55.322511 26.137983 
L 55.19755 26.213616 
L 55.072589 26.289249 
L 54.947629 26.364881 
L 54.710923 26.443854 
L 54.474217 26.522828 
L 54.198078 26.568845 
L 53.92194 26.614863 
L 53.731221 26.660956 
L 53.540503 26.707048 
L 53.30369 26.812296 
L 53.145958 26.884663 
L 52.988226 26.95703 
L 52.810616 27.075415 
L 52.633006 27.193799 
L 52.53437 27.331927 
L 52.435733 27.470055 
L 52.343759 27.608258 
L 52.251784 27.746461 
L 52.232014 27.91747 
L 52.212244 28.088478 
L 52.238568 28.298973 
L 52.264893 28.509469 
L 52.370083 28.680552 
L 52.475274 28.851636 
L 52.606789 28.976551 
L 52.738304 29.101467 
L 52.830279 29.312112 
L 52.896036 29.45024 
L 52.961794 29.588368 
L 52.948631 29.759414 
L 52.935469 29.93046 
L 52.922307 30.101506 
L 52.909145 30.272552 
L 52.876266 30.473176 
L 52.843387 30.673799 
L 52.810508 30.874423 
L 52.77763 31.075046 
L 52.794069 31.262532 
L 52.810508 31.450018 
L 52.826948 31.637505 
L 52.843387 31.824991 
L 52.948685 32.081504 
L 53.053983 32.338016 
L 53.090139 32.555117 
L 53.126295 32.772219 
L 53.162451 32.98932 
L 53.198607 33.206421 
" style="fill:none;stroke:#000000;stroke-linecap:square;stroke-width:0.4;"/>
   </g>
   <g id="line2d_18">
    <path clip-path="url(#p3bedc8756a)" d="M 53.687276 6.471597 
L 53.893359 6.542087 
L 54.099442 6.612578 
L 54.359679 6.601768 
L 54.571242 6.558377 
L 54.782805 6.514987 
L 54.988888 6.406437 
L 55.040893 6.169067 
" style="fill:none;stroke:#008000;stroke-linecap:square;stroke-width:0.4;"/>
   </g>
   <g id="line2d_19">
    <path clip-path="url(#p3bedc8756a)" d="M 54.782805 6.514987 
L 54.751793 6.692714 
L 54.720781 6.870442 
L 54.689769 7.048169 
L 54.658757 7.225896 
L 54.627745 7.403623 
L 54.596734 7.58135 
L 54.565722 7.759078 
L 54.53471 7.936805 
L 54.503698 8.114532 
L 54.472686 8.292259 
L 54.441674 8.469986 
L 54.410662 8.647713 
L 54.37965 8.825441 
L 54.348639 9.003168 
L 54.317627 9.180895 
L 54.286615 9.358622 
L 54.310844 9.574672 
L 54.335073 9.790723 
L 54.359303 10.006773 
L 54.383532 10.222823 
L 54.404806 10.412674 
L 54.426081 10.602525 
L 54.447355 10.792376 
L 54.46863 10.982227 
L 54.489904 11.172078 
L 54.511179 11.361929 
L 54.532453 11.55178 
L 54.553728 11.74163 
L 54.572424 11.954021 
L 54.59112 12.166412 
L 54.609815 12.378802 
L 54.628511 12.591193 
L 54.647207 12.803583 
L 54.665903 13.015974 
L 54.684598 13.228364 
L 54.703294 13.440755 
L 54.768702 13.587704 
L 54.834111 13.734652 
L 54.899519 13.881601 
L 54.964928 14.02855 
L 55.030336 14.175498 
L 55.095744 14.322447 
L 55.161153 14.469396 
L 55.226561 14.616344 
L 55.421523 14.830067 
L 55.616486 15.04379 
L 55.811448 15.257513 
L 56.006411 15.471237 
L 56.073189 15.64491 
L 56.139968 15.818583 
L 56.206746 15.992257 
L 56.273524 16.16593 
L 56.305127 16.407767 
L 56.33673 16.649603 
L 56.368333 16.89144 
L 56.399936 17.133277 
L 56.431538 17.375113 
L 56.463141 17.61695 
L 56.494744 17.858786 
L 56.526347 18.100623 
L 56.55795 18.34246 
L 56.589553 18.584296 
L 56.621155 18.826133 
L 56.652758 19.067969 
L 56.684361 19.309806 
L 56.715964 19.551643 
L 56.747567 19.793479 
L 56.77917 20.035316 
L 56.810772 20.277152 
L 56.842375 20.518989 
L 56.873978 20.760826 
L 56.905581 21.002662 
L 56.937184 21.244499 
L 56.968787 21.486335 
L 57.000389 21.728172 
L 57.031992 21.970009 
L 57.063595 22.211845 
L 57.095198 22.453682 
L 57.126801 22.695518 
L 57.158404 22.937355 
L 57.190007 23.179192 
L 57.221609 23.421028 
L 57.253212 23.662865 
L 57.284815 23.904701 
" style="fill:none;stroke:#ff0000;stroke-linecap:square;stroke-width:0.4;"/>
   </g>
   <g id="line2d_20">
    <path clip-path="url(#p3bedc8756a)" d="M 54.169283 5.333092 
L 53.966262 5.17462 
L 53.763241 5.016148 
L 53.56022 4.857676 
L 53.357198 4.699205 
L 53.234387 4.595008 
L 53.111575 4.490811 
L 52.988763 4.386615 
L 52.865951 4.282418 
L 52.693928 4.158178 
L 52.521906 4.033938 
L 52.319476 3.887665 
L 52.117046 3.741392 
L 51.914615 3.595119 
L 51.712185 3.448846 
L 51.525255 3.378055 
L 51.338324 3.307265 
L 51.151393 3.236474 
L 50.964462 3.165684 
L 50.777531 3.094893 
L 50.5906 3.024102 
L 50.403669 2.953312 
L 50.216738 2.882521 
L 50.012428 2.803717 
L 49.808118 2.724913 
L 49.603807 2.646108 
L 49.399497 2.567304 
L 49.195186 2.4885 
L 48.990876 2.409695 
L 48.786566 2.330891 
L 48.582255 2.252087 
L 48.432689 2.236022 
L 48.283123 2.219957 
L 48.133557 2.203892 
L 47.98399 2.187827 
L 47.759695 2.19053 
L 47.535399 2.193232 
L 47.311104 2.195935 
L 47.086808 2.198637 
L 46.889159 2.236022 
L 46.691511 2.273407 
L 46.493862 2.310791 
L 46.296213 2.348176 
L 46.045164 2.431015 
L 45.794114 2.513854 
L 45.543064 2.596694 
L 45.292014 2.679533 
L 45.070351 2.740977 
L 44.848688 2.802422 
L 44.627025 2.863866 
L 44.405362 2.925311 
L 44.242472 3.002783 
L 44.079582 3.080254 
L 43.916693 3.157726 
L 43.753803 3.235198 
L 43.60691 3.311337 
L 43.460016 3.387477 
L 43.313123 3.463616 
L 43.166229 3.539755 
L 43.019336 3.615894 
L 42.872443 3.692034 
L 42.725549 3.768173 
L 42.578656 3.844312 
L 42.431762 3.920452 
L 42.284869 3.996591 
L 42.137975 4.07273 
L 41.991082 4.14887 
L 41.844188 4.225009 
L 41.697295 4.301148 
L 41.550402 4.377287 
L 41.403508 4.453427 
L 41.198513 4.555615 
L 40.993517 4.657804 
L 40.788522 4.759992 
L 40.583527 4.862181 
L 40.378531 4.964369 
L 40.173536 5.066557 
L 39.96854 5.168746 
L 39.763545 5.270934 
L 39.55855 5.373123 
L 39.353554 5.475311 
L 39.148559 5.5775 
L 38.943563 5.679688 
L 38.738568 5.781877 
L 38.533573 5.884065 
L 38.328577 5.986253 
L 38.123582 6.088442 
L 37.995398 6.238056 
L 37.867213 6.387669 
L 37.739029 6.537283 
L 37.610845 6.686896 
L 37.495984 6.817818 
L 37.381123 6.948739 
L 37.266263 7.07966 
L 37.151402 7.210582 
L 37.036595 7.312113 
L 36.921788 7.413645 
L 36.80698 7.515176 
L 36.692173 7.616708 
L 36.451707 7.744927 
L 36.211241 7.873146 
L 36.002955 7.923893 
L 35.794669 7.97464 
L 35.586383 8.025387 
L 35.378097 8.076134 
L 35.161752 8.121551 
L 34.945408 8.166968 
L 34.729064 8.212385 
L 34.512719 8.257802 
L 34.299007 8.327317 
L 34.085295 8.396831 
L 33.946474 8.50358 
L 33.946474 8.653269 
" style="fill:none;stroke:#4169e1;stroke-linecap:square;stroke-width:0.4;"/>
   </g>
   <g id="line2d_21">
    <path clip-path="url(#p3bedc8756a)" d="M 52.521906 4.033938 
L 52.365275 4.177443 
L 52.208644 4.320948 
L 52.052013 4.464453 
L 51.895382 4.607957 
L 51.738752 4.751462 
L 51.582121 4.894967 
L 51.42549 5.038472 
L 51.268859 5.181977 
L 51.112228 5.325482 
L 50.955598 5.468987 
L 50.798967 5.612491 
L 50.642336 5.755996 
L 50.485705 5.899501 
L 50.329074 6.043006 
L 50.172443 6.186511 
L 50.015813 6.330016 
L 49.859182 6.473521 
L 49.702551 6.617025 
L 49.54592 6.76053 
L 49.389289 6.904035 
L 49.232659 7.04754 
L 49.076028 7.191045 
L 48.919397 7.33455 
L 48.762766 7.478055 
L 48.606135 7.621559 
L 48.449504 7.765064 
L 48.292874 7.908569 
L 48.136243 8.052074 
L 47.979612 8.195579 
L 47.822981 8.339084 
L 47.66635 8.482589 
L 47.509719 8.626093 
" style="fill:none;stroke:#ff0000;stroke-linecap:square;stroke-width:0.4;"/>
   </g>
   <g id="line2d_22">
    <path clip-path="url(#p3bedc8756a)" d="M 33.946474 8.653269 
L 33.98365 8.898746 
L 34.194676 9.079213 
L 34.386308 9.193732 
L 34.577939 9.308251 
L 34.769571 9.422769 
L 34.961203 9.537288 
L 35.165298 9.621929 
L 35.369394 9.70657 
L 35.573489 9.791211 
L 35.777585 9.875852 
L 36.028903 9.972916 
L 36.280222 10.069981 
L 36.53154 10.167046 
L 36.782859 10.264111 
L 36.943975 10.380619 
L 37.105092 10.497127 
L 37.266209 10.613635 
L 37.427326 10.730143 
L 37.546269 10.846651 
L 37.665213 10.963159 
L 37.784157 11.079667 
L 37.903101 11.196175 
L 38.07652 11.240841 
L 38.24994 11.285508 
L 38.388761 11.359902 
L 38.527583 11.434296 
L 38.656519 11.682175 
L 38.696167 11.835843 
L 38.735815 11.98951 
L 38.592158 12.064842 
L 38.448502 12.140175 
L 38.304845 12.215507 
L 38.161188 12.290839 
L 38.015598 12.347142 
L 37.870007 12.403444 
L 37.730863 12.552457 
L 37.591719 12.70147 
L 37.523867 12.835619 
L 37.456014 12.969769 
L 37.388161 13.103918 
L 37.320308 13.238067 
L 37.220974 13.382126 
L 37.121639 13.526184 
L 37.022304 13.670243 
L 36.922969 13.814301 
L 36.760725 14.036207 
L 36.59848 14.258112 
L 36.469328 14.370717 
L 36.340177 14.483321 
L 36.245839 14.615819 
L 36.1515 14.748317 
L 36.057162 14.880814 
L 35.962823 15.013312 
L 35.876651 15.235218 
L 35.790478 15.457123 
L 35.770816 15.626274 
L 35.751153 15.795424 
L 35.73149 15.964575 
L 35.711827 16.133725 
L 35.692164 16.302876 
L 35.672502 16.472026 
L 35.652839 16.641177 
L 35.633176 16.810327 
L 35.583509 16.954048 
L 35.533841 17.097769 
L 35.484174 17.241489 
L 35.434507 17.38521 
L 35.384839 17.528931 
L 35.335172 17.672651 
L 35.285505 17.816372 
L 35.235837 17.960093 
L 35.117538 18.167285 
L 34.999239 18.374477 
" style="fill:none;stroke:#4169e1;stroke-linecap:square;stroke-width:0.4;"/>
   </g>
   <g id="line2d_23">
    <path clip-path="url(#p3bedc8756a)" d="M 38.735815 11.98951 
L 38.95087 12.017173 
L 39.165925 12.044836 
L 39.38098 12.0725 
L 39.596035 12.100163 
L 39.750651 12.18364 
L 39.905268 12.267117 
L 40.059884 12.350595 
L 40.2145 12.434072 
L 40.425526 12.605906 
L 40.636552 12.777741 
L 40.776448 12.834193 
L 40.916344 12.890645 
L 41.05624 12.947098 
L 41.196135 13.00355 
L 41.407161 13.062479 
L 41.618187 13.121409 
L 41.785106 13.180339 
L 41.952025 13.239268 
L 42.118944 13.298198 
L 42.285863 13.357127 
L 42.477226 13.558464 
L 42.668589 13.759801 
L 42.801178 14.010158 
L 42.933768 14.260515 
L 42.9804 14.420113 
L 43.027032 14.57971 
L 43.073664 14.739308 
L 43.120296 14.898906 
L 43.191426 15.144384 
L 43.262556 15.389861 
L 43.333686 15.635339 
L 43.404815 15.880816 
L 43.468639 16.062484 
L 43.532462 16.244153 
L 43.596286 16.425821 
L 43.660109 16.607489 
L 43.728822 16.811266 
L 43.797534 17.015042 
L 43.866246 17.218818 
L 43.934959 17.422595 
L 44.003725 17.68774 
L 44.072491 17.952886 
L 43.998782 18.17877 
L 43.925074 18.404655 
L 43.889509 18.619466 
L 43.853944 18.834278 
L 43.818379 19.049089 
L 43.782814 19.263901 
L 43.747249 19.478713 
L 43.711684 19.693524 
L 43.676119 19.908336 
L 43.640554 20.123147 
L 43.571788 20.378459 
L 43.503022 20.63377 
L 43.493191 20.783534 
L 43.483359 20.933298 
L 43.473528 21.083062 
L 43.463696 21.232826 
L 43.483359 21.473348 
L 43.503022 21.713871 
L 43.512853 21.883266 
L 43.522685 22.05266 
L 43.532516 22.222055 
L 43.542348 22.391449 
L 43.569317 22.54369 
L 43.596286 22.695931 
L 43.623255 22.848172 
L 43.650224 23.000414 
L 43.706688 23.167331 
L 43.763151 23.334248 
L 43.819614 23.501165 
L 43.876078 23.668082 
L 43.998782 23.815369 
L 44.121487 23.962655 
L 44.312957 24.114896 
L 44.504428 24.267137 
L 44.64427 24.330984 
L 44.784112 24.394831 
L 44.923954 24.458677 
L 45.063797 24.522524 
L 45.196386 24.591213 
L 45.328976 24.659901 
L 45.41257 24.832411 
L 45.495733 25.00357 
L 45.559557 25.190193 
L 45.62338 25.376816 
L 45.652821 25.573198 
L 45.682261 25.76958 
L 45.662706 26.054393 
L 45.554722 26.285157 
L 45.446738 26.515921 
L 45.319091 26.712303 
L 45.191444 26.908685 
L 45.095762 27.060889 
L 45.000081 27.213092 
L 44.904399 27.365296 
L 44.808718 27.517499 
L 44.743108 27.708805 
L 44.677498 27.90011 
L 44.611888 28.091415 
L 44.546278 28.282721 
L 44.480668 28.474026 
L 44.415059 28.665332 
L 44.349449 28.856637 
L 44.283839 29.047942 
L 44.218229 29.239248 
L 44.152619 29.430553 
L 44.08701 29.621859 
L 44.0214 29.813164 
L 43.95579 30.004469 
L 43.89018 30.195775 
L 43.82457 30.38708 
L 43.758961 30.578386 
" style="fill:none;stroke:#4169e1;stroke-linecap:square;stroke-width:0.4;"/>
   </g>
   <g id="line2d_24">
    <path clip-path="url(#p3bedc8756a)" d="M 44.072491 17.952886 
L 44.23162 18.105878 
L 44.390749 18.25887 
L 44.474181 18.386526 
L 44.557614 18.514181 
L 44.641047 18.641837 
L 44.724479 18.769493 
L 44.837298 18.975709 
L 44.950118 19.181925 
L 45.018884 19.427403 
L 45.08765 19.67288 
L 45.131811 19.903644 
L 45.175971 20.134408 
L 45.175971 20.375006 
L 45.175971 20.615604 
L 45.122033 20.787438 
L 45.068095 20.959272 
L 44.950118 21.20475 
L 44.915842 21.347157 
L 44.881567 21.489563 
L 44.861796 21.735041 
L 44.905957 21.897116 
L 44.950118 22.059191 
L 45.11709 22.245739 
L 45.284063 22.432287 
L 45.421488 22.633624 
L 45.558912 22.83496 
L 45.652176 23.011674 
L 45.74544 23.188388 
L 45.809156 23.335749 
L 45.872872 23.483111 
L 45.882757 23.689252 
L 45.843432 23.905302 
L 45.75511 24.170448 
L 45.627463 24.415925 
L 45.520016 24.624168 
L 45.41257 24.832411 
" style="fill:none;stroke:#4169e1;stroke-linecap:square;stroke-width:0.4;"/>
   </g>
   <g id="line2d_25">
    <path clip-path="url(#p3bedc8756a)" d="M 35.719778 30.405576 
L 38.963978 34.038642 
L 39.691663 34.572086 
L 40.958893 34.961247 
L 41.787094 34.98632 
L 42.320246 35.915043 
L 42.389227 36.065671 
L 43.242463 36.592734 
L 43.763205 36.937904 
L 44.227322 37.477654 
L 47.959922 39.774445 
L 49.252563 40.57782 
L 50.934538 41.500106 
L 52.102701 42.117066 
L 53.174109 42.609484 
L 54.642479 43.373617 
L 56.87555 44.87317 
L 58.472319 45.944375 
L 58.472319 45.944375 
" style="fill:none;stroke:#4169e1;stroke-linecap:square;stroke-width:0.4;"/>
   </g>
   <g id="line2d_26">
    <path clip-path="url(#p3bedc8756a)" d="M 35.515414 29.246802 
L 35.717361 29.240684 
L 35.919307 29.234565 
L 36.121254 29.228447 
L 36.3232 29.222329 
L 36.604712 29.203975 
L 36.886223 29.18562 
L 37.167734 29.167266 
L 37.449245 29.148911 
L 37.669511 29.142755 
L 37.889777 29.1366 
L 38.110044 29.130444 
L 38.33031 29.124288 
L 38.550576 29.173271 
L 38.770842 29.222254 
L 38.991109 29.271237 
L 39.211375 29.32022 
L 39.425571 29.405912 
L 39.639766 29.491604 
L 39.853962 29.577296 
L 40.068157 29.662987 
L 40.263926 29.77319 
L 40.459694 29.883392 
L 40.575952 30.030265 
L 40.692209 30.177139 
L 40.808467 30.324012 
L 40.924724 30.470886 
L 40.998164 30.599443 
L 41.071604 30.727999 
L 41.145044 30.856556 
L 41.218484 30.985113 
L 41.242982 31.266623 
L 41.26748 31.548134 
L 41.30412 31.82972 
L 41.340759 32.111306 
L 41.230626 32.319399 
L 41.120493 32.527492 
L 40.998111 32.747859 
L 40.875729 32.968225 
L 40.753347 33.188592 
L 40.630964 33.408959 
L 40.728849 33.665997 
L 40.826733 33.923035 
L 40.949115 34.094419 
L 41.071497 34.265803 
L 41.206128 34.473895 
L 41.340759 34.681988 
L 41.563926 34.834154 
L 41.787094 34.98632 
" style="fill:none;stroke:#4169e1;stroke-linecap:square;stroke-width:0.4;"/>
   </g>
   <g id="line2d_27">
    <path clip-path="url(#p3bedc8756a)" d="M 50.428194 9.353668 
L 50.239087 9.494048 
L 50.049981 9.634428 
L 49.860874 9.774808 
L 49.671767 9.915188 
L 49.51922 9.985378 
L 49.366672 10.055568 
L 49.214124 10.125758 
L 49.061576 10.195948 
L 48.909028 10.266138 
L 48.75648 10.336328 
L 48.603933 10.406518 
L 48.451385 10.476708 
L 48.182928 10.580492 
L 47.914472 10.684276 
L 47.646016 10.788059 
L 47.37756 10.891843 
L 47.121245 11.020024 
L 46.86493 11.148206 
L 46.608615 11.276387 
L 46.352301 11.404568 
L 46.120484 11.514432 
L 45.888667 11.624297 
L 45.65685 11.734161 
L 45.425033 11.844025 
L 45.357879 12.082071 
L 45.290725 12.320117 
L 45.22357 12.558162 
L 45.156416 12.796208 
L 45.07712 13.009856 
L 44.997824 13.223504 
L 44.918528 13.437152 
L 44.839232 13.6508 
L 44.802593 13.846093 
L 44.765954 14.041387 
L 44.729314 14.23668 
L 44.692675 14.431973 
L 44.674409 14.608988 
L 44.656143 14.786002 
L 44.637877 14.963016 
L 44.619611 15.14003 
L 44.595167 15.390312 
L 44.570722 15.640593 
L 44.546278 15.890875 
L 44.521834 16.141157 
L 44.479124 16.336488 
L 44.436414 16.531819 
L 44.393704 16.72715 
L 44.350993 16.922481 
L 44.281368 17.180083 
L 44.211742 17.437684 
L 44.142117 17.695285 
L 44.072491 17.952886 
" style="fill:none;stroke:#ff0000;stroke-linecap:square;stroke-width:0.4;"/>
   </g>
   <g id="line2d_28">
    <path clip-path="url(#p3bedc8756a)" d="M 38.735815 11.98951 
L 38.799746 12.197378 
L 38.863677 12.405245 
L 38.924438 12.59671 
L 38.985199 12.788175 
L 39.04596 12.97964 
L 39.106722 13.171105 
L 39.158404 13.374731 
L 39.210086 13.578357 
L 39.261768 13.781984 
L 39.31345 13.98561 
L 39.31345 14.192276 
L 39.31345 14.398943 
L 39.31345 14.605609 
L 39.31345 14.812276 
L 39.31345 15.073668 
L 39.31345 15.33506 
L 39.208608 15.449035 
L 39.103767 15.563009 
L 38.998926 15.676983 
L 38.894084 15.790958 
L 38.789243 15.904932 
L 38.684401 16.018907 
L 38.57956 16.132881 
L 38.474719 16.246855 
L 38.386612 16.398796 
L 38.298506 16.550737 
L 38.210399 16.702678 
L 38.122293 16.854618 
L 38.101018 17.079527 
L 38.079744 17.304435 
L 38.058469 17.529344 
L 38.037195 17.754252 
L 38.043265 18.039967 
L 38.049336 18.325682 
L 38.055407 18.611396 
L 38.061478 18.897111 
L 38.107089 19.12506 
L 38.1527 19.353009 
L 38.198311 19.580957 
L 38.243923 19.808906 
L 38.30925 19.973027 
L 38.374578 20.137148 
L 38.439906 20.301269 
L 38.505234 20.465389 
L 38.570561 20.62951 
L 38.635889 20.793631 
L 38.701217 20.957752 
L 38.766545 21.121873 
L 38.894138 21.340663 
L 39.021731 21.559453 
L 39.149324 21.778243 
L 39.276918 21.997034 
L 39.36806 22.153573 
L 39.459201 22.310111 
L 39.550343 22.46665 
L 39.641485 22.623189 
L 39.732627 22.779728 
L 39.823769 22.936267 
L 39.914911 23.092805 
L 40.006053 23.249344 
L 40.097222 23.387622 
L 40.18839 23.5259 
L 40.279559 23.664179 
L 40.370728 23.802457 
L 40.461897 23.940735 
L 40.553065 24.079013 
L 40.644234 24.217291 
L 40.735403 24.355569 
L 40.838659 24.528792 
L 40.941916 24.702015 
L 41.045172 24.875238 
L 41.148429 25.048461 
L 41.260872 25.236923 
L 41.373316 25.425386 
L 41.485759 25.613848 
L 41.598202 25.80231 
L 41.665034 26.027218 
L 41.731866 26.252127 
L 41.780432 26.489196 
L 41.828998 26.726266 
L 41.856343 26.917731 
L 41.883689 27.109196 
L 41.911034 27.300661 
L 41.938379 27.492126 
L 41.970291 27.686631 
L 42.002203 27.881136 
L 42.034114 28.075642 
L 42.066026 28.270147 
L 42.097938 28.464652 
L 42.12985 28.659157 
L 42.161761 28.853662 
L 42.193673 29.048168 
" style="fill:none;stroke:#4169e1;stroke-linecap:square;stroke-width:0.4;"/>
   </g>
   <g id="line2d_29">
    <path clip-path="url(#p3bedc8756a)" d="M 24.890843 18.410961 
L 25.602786 17.83863 
L 26.299419 16.798241 
L 27.104143 15.675201 
L 27.250486 15.013462 
L 27.129715 14.253045 
L 27.040642 13.600803 
L 27.346006 12.65275 
L 27.485902 12.44278 
L 27.931162 12.379121 
L 28.885506 12.824584 
L 29.725204 13.263591 
L 30.739987 13.526109 
L 32.537092 13.817154 
L 33.073359 14.004978 
L 33.440506 14.345343 
L 33.97484 15.182106 
L 34.534531 16.298728 
L 34.712678 17.125957 
L 34.922576 19.36258 
L 34.797883 20.098675 
L 34.191345 21.913744 
L 33.936588 23.896294 
L 33.160499 24.723485 
L 30.83857 26.867772 
L 30.450579 27.472307 
L 30.450579 27.472307 
" style="fill:none;stroke:#4169e1;stroke-linecap:square;stroke-width:0.4;"/>
   </g>
   <g id="line2d_30">
    <path clip-path="url(#p3bedc8756a)" d="M 34.154276 22.418324 
L 34.195509 22.564109 
L 34.236741 22.709894 
L 34.277974 22.855679 
L 34.319207 23.001464 
L 34.36044 23.14725 
L 34.401673 23.293035 
L 34.442905 23.43882 
L 34.484138 23.584605 
L 34.507911 23.756599 
L 34.531683 23.928592 
L 34.555456 24.100586 
L 34.579229 24.27258 
L 34.603001 24.444574 
L 34.626774 24.616567 
L 34.650547 24.788561 
L 34.674319 24.960555 
L 34.698092 25.132549 
L 34.721865 25.304542 
L 34.745637 25.476536 
L 34.76941 25.64853 
L 34.793182 25.820524 
L 34.816955 25.992517 
L 34.840728 26.164511 
L 34.8645 26.336505 
L 34.892423 26.568751 
L 34.920346 26.800998 
L 34.948269 27.033244 
L 34.976192 27.265491 
L 35.004114 27.497737 
L 35.032037 27.729984 
L 35.05996 27.96223 
L 35.087883 28.194477 
L 35.115805 28.426723 
L 35.143728 28.65897 
L 35.171651 28.891216 
L 35.199574 29.123462 
L 35.227497 29.355709 
L 35.255419 29.587955 
L 35.283342 29.820202 
L 35.311265 30.052448 
" style="fill:none;stroke:#008000;stroke-linecap:square;stroke-width:0.4;"/>
   </g>
   <g id="line2d_31">
    <path clip-path="url(#p3bedc8756a)" d="M 34.484138 23.584605 
L 41.01772 28.55802 
L 42.39159 29.054248 
L 43.339595 28.98601 
L 43.955481 28.753144 
L 45.354387 28.064306 
L 46.922092 28.448662 
L 47.282147 28.778067 
L 47.633498 29.362259 
L 48.022027 29.841203 
L 49.932219 30.578461 
L 50.475901 31.091636 
L 51.142394 31.75405 
L 52.734114 33.065666 
L 53.363108 33.421195 
L 53.624097 33.903517 
L 53.86091 34.280742 
L 54.001236 34.390418 
L 54.598211 34.416843 
L 54.818048 34.487258 
L 54.976209 34.89984 
L 55.396005 36.054635 
L 55.653985 36.369627 
L 56.474235 36.946537 
L 56.834397 37.298613 
L 56.951729 37.742725 
L 56.792493 39.133914 
L 56.85954 40.072584 
L 56.625091 40.550326 
L 56.800981 41.442903 
L 57.083674 42.050554 
L 57.970112 43.135272 
L 58.683345 43.808796 
L 59.364559 44.081298 
L 59.725151 44.273777 
L 59.725151 44.273777 
" style="fill:none;stroke:#008000;stroke-linecap:square;stroke-width:0.4;"/>
   </g>
   <g id="line2d_32">
    <path clip-path="url(#p3bedc8756a)" d="M 40.849726 28.487999 
L 41.003295 28.617888 
L 41.156864 28.747777 
L 41.310432 28.877666 
L 41.464001 29.007555 
L 41.617569 29.137444 
L 41.771138 29.267333 
L 41.924707 29.397222 
L 42.078275 29.527112 
L 42.243072 29.645196 
L 42.407869 29.76328 
L 42.572665 29.881365 
L 42.737462 29.999449 
L 42.902259 30.117534 
L 43.067056 30.235618 
L 43.231853 30.353702 
L 43.396649 30.471787 
L 43.577805 30.525086 
L 43.758961 30.578386 
L 43.904498 30.743351 
L 44.050034 30.908316 
L 44.195571 31.073282 
L 44.341108 31.238247 
L 44.4391 31.412033 
L 44.537092 31.585819 
L 44.635083 31.759605 
L 44.733075 31.933391 
L 44.875603 32.111606 
L 45.018132 32.289822 
L 45.16066 32.468037 
L 45.303188 32.646252 
L 45.472471 32.779951 
L 45.641754 32.91365 
L 45.811037 33.047349 
L 45.980319 33.181047 
L 46.243135 33.274622 
L 46.50595 33.368196 
L 46.768765 33.46177 
L 47.03158 33.555344 
L 47.28623 33.630264 
L 47.540879 33.705183 
L 47.740516 33.763888 
L 47.940152 33.822592 
L 48.185131 33.965187 
L 48.43011 34.107781 
L 48.675089 34.250376 
L 48.920068 34.392971 
L 49.084892 34.557861 
L 49.249716 34.722751 
L 49.414539 34.887641 
L 49.579363 35.052532 
L 49.679584 35.166149 
L 49.779805 35.279767 
L 49.880027 35.393385 
L 49.980248 35.507003 
L 50.080469 35.620621 
L 50.18069 35.734238 
L 50.280911 35.847856 
L 50.381132 35.961474 
L 50.485813 36.095154 
L 50.590493 36.228834 
L 50.695173 36.362514 
L 50.799853 36.496194 
L 50.904533 36.629875 
L 51.009214 36.763555 
L 51.113894 36.897235 
L 51.218574 37.030915 
L 51.329889 37.249255 
L 51.441204 37.467595 
L 51.552519 37.685934 
L 51.663834 37.904274 
L 51.770744 38.158272 
L 51.877654 38.41227 
L 51.984563 38.666268 
L 52.091473 38.920266 
L 52.198383 39.134139 
L 52.305293 39.348012 
L 52.412202 39.561885 
L 52.519112 39.775759 
L 52.621563 39.927249 
L 52.724014 40.078739 
L 52.826464 40.23023 
L 52.928915 40.38172 
L 53.140478 40.542144 
L 53.352041 40.702567 
L 53.563604 40.862991 
L 53.775167 41.023415 
L 53.98673 41.183838 
L 54.198293 41.344262 
L 54.409856 41.504686 
L 54.62142 41.665109 
L 54.795108 41.812133 
L 54.968796 41.959157 
L 55.142484 42.106181 
L 55.316172 42.253204 
L 55.472077 42.351245 
L 55.627983 42.449286 
L 55.783888 42.547327 
L 55.939794 42.645368 
L 56.046704 42.765667 
L 56.153613 42.885966 
L 56.260523 43.006265 
L 56.367433 43.126564 
L 56.456506 43.304854 
L 56.54558 43.483144 
L 56.643572 43.714809 
L 56.741563 43.946473 
L 56.901874 44.142555 
L 57.062185 44.338637 
L 57.267033 44.494594 
L 57.47188 44.650551 
L 57.676728 44.806508 
L 57.881576 44.962465 
L 58.033076 45.042639 
L 58.184576 45.122813 
" style="fill:none;stroke:#000000;stroke-linecap:square;stroke-width:0.4;"/>
   </g>
   <g id="line2d_33">
    <path clip-path="url(#p3bedc8756a)" d="M 47.540879 33.705183 
L 47.529329 33.854872 
L 47.517778 34.004561 
L 47.506227 34.154249 
L 47.494677 34.303938 
L 47.508054 34.48662 
L 47.521431 34.669302 
L 47.534808 34.851983 
L 47.548185 35.034665 
L 47.659554 35.248538 
L 47.770923 35.462412 
L 47.882292 35.676285 
L 47.993661 35.890158 
L 48.118407 36.03279 
L 48.243152 36.175422 
L 48.416841 36.349208 
L 48.590529 36.522994 
L 48.764217 36.69678 
L 48.937905 36.870566 
L 49.080433 37.057715 
L 49.222961 37.244863 
L 49.36549 37.432012 
L 49.508018 37.61916 
L 49.561473 37.761717 
L 49.614928 37.904274 
L 49.668383 38.046831 
L 49.721838 38.189388 
L 49.851043 38.381004 
L 49.980248 38.572619 
L 50.109453 38.764234 
L 50.238658 38.955849 
L 50.367809 39.098443 
L 50.49696 39.241038 
L 50.626111 39.383633 
L 50.755263 39.526227 
L 50.951246 39.637631 
L 51.147229 39.749034 
L 51.343212 39.860437 
L 51.539196 39.97184 
L 51.695101 40.047585 
L 51.851007 40.123331 
L 52.006912 40.199076 
L 52.162818 40.274821 
L 52.354342 40.301546 
L 52.545866 40.32827 
L 52.737391 40.354995 
L 52.928915 40.38172 
" style="fill:none;stroke:#4169e1;stroke-linecap:square;stroke-width:0.4;"/>
   </g>
   <g id="line2d_34">
    <path clip-path="url(#p3bedc8756a)" d="M 38.110903 22.24086 
L 38.068086 22.469906 
L 38.025268 22.698953 
L 37.98245 22.928 
L 37.939633 23.157046 
L 37.896815 23.386093 
L 37.853997 23.615139 
L 37.81118 23.844186 
L 37.768362 24.073233 
L 37.725545 24.302279 
L 37.682727 24.531326 
L 37.639909 24.760373 
L 37.597092 24.989419 
L 37.554274 25.218466 
L 37.511457 25.447512 
L 37.468639 25.676559 
L 37.425821 25.905606 
" style="fill:none;stroke:#4169e1;stroke-linecap:square;stroke-width:0.4;"/>
   </g>
   <g id="line2d_35">
    <path clip-path="url(#p3bedc8756a)" d="M 38.110903 22.24086 
L 38.150215 22.404586 
L 38.189528 22.568313 
L 38.22884 22.73204 
L 38.268152 22.895767 
L 38.307464 23.059493 
L 38.346776 23.22322 
L 38.386088 23.386947 
L 38.4254 23.550673 
L 38.464713 23.7144 
L 38.504025 23.878127 
L 38.543337 24.041854 
L 38.582649 24.20558 
L 38.621961 24.369307 
L 38.661273 24.533034 
L 38.700586 24.69676 
L 38.739898 24.860487 
L 38.77921 25.024214 
L 38.818522 25.187941 
L 38.857834 25.351667 
L 38.897146 25.515394 
L 38.936459 25.679121 
L 38.975771 25.842847 
L 39.015083 26.006574 
L 39.054395 26.170301 
L 39.093707 26.334028 
L 39.133019 26.497754 
L 39.172332 26.661481 
L 39.211644 26.825208 
L 39.250956 26.988934 
L 39.290268 27.152661 
L 39.32958 27.316388 
L 39.368892 27.480115 
" style="fill:none;stroke:#4169e1;stroke-linecap:square;stroke-width:0.4;"/>
   </g>
   <g id="line2d_36">
    <path clip-path="url(#p3bedc8756a)" d="M 37.855609 21.879175 
L 37.696158 21.751556 
L 37.536707 21.623938 
L 37.345236 21.485585 
L 37.153766 21.347232 
L 37.052765 21.198331 
L 36.951765 21.049431 
L 36.850765 20.90053 
L 36.749765 20.75163 
L 36.659348 20.634596 
L 36.568932 20.517563 
L 36.478515 20.400529 
L 36.388098 20.283496 
L 36.22854 20.177122 
L 36.068981 20.070749 
L 35.835069 20.049504 
L 35.601157 20.028259 
L 35.400338 20.045863 
L 35.19952 20.063467 
L 34.998702 20.081071 
L 34.797883 20.098675 
" style="fill:none;stroke:#008000;stroke-linecap:square;stroke-width:0.4;"/>
   </g>
   <g id="line2d_37">
    <path clip-path="url(#p3bedc8756a)" d="M 40.006053 23.249344 
L 40.033129 23.103559 
L 40.060206 22.957774 
L 40.087283 22.811989 
L 40.114359 22.666204 
L 40.141275 22.520982 
L 40.16819 22.37576 
L 40.195106 22.230538 
L 40.222021 22.085316 
L 40.286543 21.880976 
L 40.351065 21.676637 
L 40.415587 21.472297 
L 40.480109 21.267958 
L 40.544577 21.052809 
L 40.609045 20.837659 
L 40.7166 20.665525 
L 40.824154 20.49339 
L 40.969315 20.54181 
L 41.114476 20.59023 
L 41.259637 20.63865 
L 41.404798 20.68707 
L 41.539214 20.762365 
L 41.67363 20.837659 
L 41.808046 20.912954 
L 41.942462 20.988249 
L 42.098368 21.101191 
L 42.254273 21.214133 
L 42.410179 21.327075 
L 42.566084 21.440018 
L 42.668213 21.612115 
L 42.770341 21.784212 
L 42.872469 21.956308 
L 42.974598 22.128405 
L 43.143504 22.346407 
L 43.312411 22.564409 
L 43.481318 22.782411 
L 43.650224 23.000414 
" style="fill:none;stroke:#4169e1;stroke-linecap:square;stroke-width:0.4;"/>
   </g>
   <g id="line2d_38">
    <path clip-path="url(#p3bedc8756a)" d="M 40.480109 21.267958 
L 40.609153 21.483032 
L 40.738197 21.698107 
L 40.877985 21.848696 
L 41.017774 21.999286 
L 41.157562 22.149875 
L 41.297351 22.300465 
L 41.394053 22.526349 
L 41.490755 22.752234 
L 41.716609 22.913633 
L 41.942462 23.075033 
L 42.082251 23.182532 
L 42.222039 23.290032 
L 42.426296 23.333122 
L 42.630553 23.376212 
L 42.808001 23.424594 
L 42.98545 23.472976 
L 43.162899 23.521359 
L 43.340347 23.569741 
L 43.608213 23.618912 
L 43.876078 23.668082 
" style="fill:none;stroke:#4169e1;stroke-linecap:square;stroke-width:0.4;"/>
   </g>
   <g id="line2d_39">
    <path clip-path="url(#p3bedc8756a)" d="M 38.735815 11.98951 
L 38.50561 11.979226 
L 38.275404 11.968941 
L 38.045199 11.958657 
L 37.814994 11.948372 
L 37.669457 11.968341 
L 37.52392 11.988309 
L 37.378383 12.008278 
L 37.232847 12.028246 
L 37.08731 12.048215 
L 36.941773 12.068183 
L 36.796236 12.088152 
L 36.650699 12.10812 
L 36.502341 12.116697 
L 36.353984 12.125273 
L 36.205627 12.13385 
L 36.057269 12.142427 
L 35.908912 12.151004 
L 35.760554 12.15958 
L 35.612197 12.168157 
L 35.46384 12.176734 
L 35.258347 12.26235 
L 35.052855 12.347967 
L 34.847363 12.433584 
L 34.64187 12.519201 
L 34.425042 12.690435 
L 34.208214 12.861668 
L 34.054135 12.98726 
L 33.900056 13.112851 
L 33.745977 13.238443 
L 33.591898 13.364034 
L 33.462264 13.52427 
L 33.332629 13.684506 
L 33.202994 13.844742 
L 33.073359 14.004978 
" style="fill:none;stroke:#008000;stroke-linecap:square;stroke-width:0.4;"/>
   </g>
   <g id="line2d_40">
    <path clip-path="url(#p3bedc8756a)" d="M 27.040642 13.600803 
L 27.257147 13.665063 
L 27.473653 13.729322 
L 27.627786 13.752181 
L 27.781918 13.77504 
L 27.936051 13.797898 
L 28.090184 13.820757 
L 28.244263 13.894963 
L 28.398342 13.96917 
L 28.552421 14.043376 
L 28.7065 14.117582 
L 28.820662 14.243174 
L 28.934824 14.368765 
L 29.048987 14.494356 
L 29.163149 14.619948 
L 29.277258 14.85972 
L 29.391367 15.099492 
L 29.437032 15.293547 
L 29.482697 15.487602 
L 29.653967 15.636014 
L 29.825238 15.784427 
L 29.950789 15.870044 
L 30.076341 15.95566 
L 30.201893 16.041277 
L 30.327445 16.126894 
L 30.544273 16.263896 
L 30.761101 16.400898 
L 30.94376 16.549348 
L 31.12642 16.697798 
L 31.30908 16.846248 
L 31.49174 16.994698 
L 31.605849 17.222985 
L 31.719957 17.451271 
L 31.828371 17.696749 
L 31.936785 17.942226 
L 32.045199 18.187704 
L 32.153613 18.433181 
L 32.239249 18.581594 
L 32.324884 18.730006 
L 32.410519 18.878419 
L 32.496154 19.026831 
L 32.576041 19.175244 
L 32.655928 19.323656 
L 32.735815 19.472069 
L 32.815702 19.620481 
L 32.952696 19.837433 
L 33.089691 20.054384 
L 33.215243 20.191385 
L 33.340795 20.328387 
L 33.466347 20.465389 
L 33.591898 20.602391 
L 33.768702 20.815439 
L 33.945506 21.028486 
L 34.12231 21.241534 
L 34.299114 21.454581 
" style="fill:none;stroke:#000000;stroke-linecap:square;stroke-width:0.4;"/>
   </g>
   <g id="line2d_41">
    <path clip-path="url(#p3bedc8756a)" d="M 29.992425 13.359079 
L 30.105459 13.467198 
L 30.218493 13.575317 
L 30.331528 13.683436 
L 30.444562 13.791555 
L 30.557596 13.899674 
L 30.67063 14.007793 
L 30.783664 14.115912 
L 30.896699 14.224031 
L 31.073342 14.429271 
L 31.249984 14.634511 
L 31.426627 14.839751 
L 31.60327 15.044992 
L 31.762882 15.227411 
L 31.922495 15.40983 
L 32.082107 15.592249 
L 32.24172 15.774668 
L 32.389889 15.882956 
L 32.538059 15.991243 
L 32.686228 16.099531 
L 32.834397 16.207819 
L 32.993956 16.287656 
L 33.153515 16.367492 
L 33.313074 16.447329 
L 33.472632 16.527165 
L 33.655024 16.663979 
L 33.837415 16.800794 
L 34.019806 16.937608 
L 34.202197 17.074422 
L 34.347251 17.216604 
L 34.492304 17.358786 
L 34.637358 17.500967 
L 34.782411 17.643149 
" style="fill:none;stroke:#4169e1;stroke-linecap:square;stroke-width:0.4;"/>
   </g>
   <g id="line2d_42">
    <path clip-path="url(#p3bedc8756a)" d="M 29.482697 15.487602 
L 29.46572 15.679067 
L 29.448743 15.870532 
L 29.431767 16.061996 
L 29.41479 16.253461 
L 29.392011 16.447291 
L 29.369233 16.641121 
L 29.346454 16.83495 
L 29.323675 17.02878 
L 29.323675 17.257442 
L 29.323675 17.451178 
L 29.323675 17.644913 
L 29.323675 17.838649 
L 29.323675 18.032385 
L 29.323675 18.226121 
L 29.323675 18.419856 
L 29.323675 18.613592 
L 29.323675 18.807328 
L 29.323675 18.995452 
L 29.323675 19.183577 
L 29.323675 19.371701 
L 29.323675 19.559825 
L 29.363592 19.725128 
L 29.403508 19.890432 
L 29.443425 20.055735 
L 29.483341 20.221038 
L 29.625816 20.312247 
L 29.768291 20.403457 
L 29.910765 20.494667 
L 30.05324 20.585876 
L 30.247021 20.677086 
L 30.440801 20.768295 
L 30.634582 20.859505 
L 30.828362 20.950714 
L 31.044868 21.019103 
L 31.261374 21.087491 
L 31.426681 21.144506 
L 31.591988 21.201522 
L 31.757295 21.258537 
L 31.922602 21.315552 
L 32.065077 21.452366 
L 32.207552 21.589181 
L 32.350026 21.725995 
L 32.492501 21.862809 
L 32.595059 21.999624 
L 32.697617 22.136438 
L 32.800175 22.273252 
L 32.902734 22.410066 
L 33.016735 22.563997 
L 33.130736 22.717927 
L 33.244737 22.871857 
L 33.358739 23.025787 
L 33.467045 23.162601 
L 33.575352 23.299416 
L 33.683658 23.43623 
L 33.791965 23.573044 
L 33.864277 23.734669 
L 33.936588 23.896294 
" style="fill:none;stroke:#4169e1;stroke-linecap:square;stroke-width:0.4;"/>
   </g>
   <g id="line2d_43">
    <path clip-path="url(#p3bedc8756a)" d="M 24.787479 19.991625 
L 24.804563 20.208877 
L 24.821647 20.426128 
L 24.838731 20.643379 
L 24.855815 20.860631 
L 24.832768 21.039334 
L 24.80972 21.218037 
L 24.786673 21.39674 
L 24.763626 21.575443 
L 24.625341 21.771375 
L 24.487057 21.967306 
L 24.406364 22.174874 
L 24.325672 22.382441 
L 24.268026 22.65911 
L 24.210381 22.935779 
L 24.152736 23.212447 
L 24.095091 23.489116 
L 24.100839 23.708132 
L 24.106587 23.927147 
L 24.112336 24.146163 
L 24.118084 24.365178 
L 24.182264 24.50203 
L 24.246443 24.638882 
L 24.310622 24.775734 
L 24.374802 24.912585 
L 24.438981 25.049437 
L 24.503161 25.186289 
L 24.56734 25.323141 
L 24.63152 25.459993 
L 24.695699 25.596845 
L 24.759878 25.733696 
L 24.824058 25.870548 
L 24.888237 26.0074 
L 24.952417 26.144252 
L 25.016596 26.281104 
L 25.080775 26.417955 
L 25.144955 26.554807 
L 25.209134 26.691659 
L 25.273314 26.828511 
L 25.337493 26.965363 
L 25.401673 27.102214 
L 25.465852 27.239066 
L 25.530031 27.375918 
L 25.594211 27.51277 
L 25.65839 27.649622 
L 25.72257 27.786474 
L 25.786749 27.923325 
L 25.850929 28.060177 
L 25.915108 28.197029 
L 25.979287 28.333881 
L 26.043467 28.470733 
L 26.107646 28.607584 
L 26.171826 28.744436 
" style="fill:none;stroke:#000000;stroke-linecap:square;stroke-width:0.4;"/>
   </g>
   <g id="line2d_44">
    <path clip-path="url(#p3bedc8756a)" d="M 24.890843 18.410961 
L 24.921035 18.581706 
L 24.951228 18.752452 
L 24.981421 18.923198 
L 25.011613 19.093944 
L 25.041806 19.264689 
L 25.071998 19.435435 
L 25.102191 19.606181 
L 25.132384 19.776926 
L 25.195777 19.938326 
L 25.259171 20.099726 
L 25.322565 20.261125 
L 25.385958 20.422525 
L 25.466651 20.641559 
L 25.547344 20.860593 
L 25.628036 21.079627 
L 25.708729 21.298662 
L 25.789422 21.517696 
L 25.870115 21.73673 
L 25.950807 21.955764 
L 26.0315 22.174798 
L 26.123689 22.365025 
L 26.215879 22.555251 
L 26.308068 22.745477 
L 26.400258 22.935704 
L 26.512647 23.120168 
L 26.625037 23.304633 
L 26.737426 23.489098 
L 26.849816 23.673562 
L 26.962206 23.858027 
L 27.074595 24.042492 
L 27.186985 24.226956 
L 27.299374 24.411421 
L 27.434811 24.584344 
L 27.570248 24.757267 
L 27.705685 24.930189 
L 27.841122 25.103112 
L 27.976559 25.276035 
L 28.111996 25.448957 
L 28.247432 25.62188 
L 28.382869 25.794803 
L 28.492358 25.889907 
L 28.601846 25.98501 
L 28.711335 26.080114 
L 28.820823 26.175218 
L 28.930312 26.270322 
L 29.0398 26.365425 
L 29.149289 26.460529 
L 29.258777 26.555633 
L 29.368266 26.650737 
L 29.477754 26.74584 
L 29.587242 26.840944 
L 29.696731 26.936048 
L 29.806219 27.031152 
L 29.915708 27.126255 
L 30.025196 27.221359 
L 30.134685 27.316463 
" style="fill:none;stroke:#ff0000;stroke-linecap:square;stroke-width:0.4;"/>
   </g>
   <g id="line2d_45">
    <path clip-path="url(#p3bedc8756a)" d="M 24.890843 18.410961 
L 25.034358 18.467526 
L 25.177874 18.52409 
L 25.32139 18.580655 
L 25.464905 18.63722 
L 25.608421 18.693785 
L 25.751936 18.75035 
L 25.895452 18.806915 
L 26.038967 18.86348 
L 26.182483 18.920045 
L 26.325999 18.97661 
L 26.469514 19.033175 
L 26.61303 19.08974 
L 26.756545 19.146305 
L 26.900061 19.202869 
L 27.043576 19.259434 
L 27.187092 19.315999 
L 27.330608 19.372564 
L 27.474123 19.429129 
L 27.617639 19.485694 
L 27.761154 19.542259 
L 27.90467 19.598824 
L 28.048185 19.655389 
L 28.191701 19.711954 
L 28.335217 19.768519 
L 28.478732 19.825084 
L 28.622248 19.881648 
L 28.765763 19.938213 
L 28.909279 19.994778 
L 29.052795 20.051343 
L 29.19631 20.107908 
L 29.339826 20.164473 
L 29.483341 20.221038 
" style="fill:none;stroke:#ff0000;stroke-linecap:square;stroke-width:0.4;"/>
   </g>
   <g id="line2d_46">
    <path clip-path="url(#p3bedc8756a)" d="M 24.890843 18.410961 
L 25.167895 18.338866 
L 25.444947 18.266771 
L 25.721999 18.194676 
L 25.999051 18.122581 
L 26.276103 18.050486 
L 26.553155 17.978391 
L 26.830207 17.906296 
L 27.107259 17.834201 
L 27.384311 17.762106 
L 27.661363 17.690011 
L 27.938415 17.617916 
L 28.215467 17.545821 
L 28.492519 17.473727 
L 28.769571 17.401632 
L 29.046623 17.329537 
L 29.323675 17.257442 
" style="fill:none;stroke:#ff0000;stroke-linecap:square;stroke-width:0.4;"/>
   </g>
   <g id="line2d_47">
    <path clip-path="url(#p3bedc8756a)" d="M 24.078329 18.379882 
L 23.946438 18.491811 
L 23.814547 18.603739 
L 23.682655 18.715668 
L 23.550764 18.827597 
L 23.468836 18.96351 
L 23.386908 19.099424 
L 23.304979 19.235337 
L 23.223051 19.371251 
L 23.141123 19.507164 
L 23.059194 19.643077 
L 22.977266 19.778991 
L 22.895338 19.914904 
L 22.736464 20.138762 
L 22.57759 20.362619 
L 22.418716 20.586477 
L 22.259843 20.810334 
L 22.100969 21.034191 
L 21.942095 21.258049 
L 21.783221 21.481906 
L 21.624347 21.705764 
L 21.465474 21.929621 
L 21.3066 22.153479 
L 21.147726 22.377336 
L 20.988852 22.601194 
L 20.829979 22.825051 
L 20.671105 23.048908 
L 20.512231 23.272766 
L 20.353357 23.496623 
L 20.282906 23.693503 
L 20.212454 23.890382 
L 20.142002 24.087261 
L 20.071551 24.284141 
L 20.001099 24.48102 
L 19.930647 24.677899 
L 19.860196 24.874779 
L 19.789744 25.071658 
L 19.719293 25.268537 
L 19.648841 25.465416 
L 19.578389 25.662296 
L 19.507938 25.859175 
L 19.437486 26.056054 
L 19.367034 26.252934 
L 19.296583 26.449813 
L 19.226131 26.646692 
L 19.155679 26.843572 
L 19.085228 27.040451 
L 19.014776 27.23733 
L 18.944325 27.43421 
L 18.873873 27.631089 
L 18.803421 27.827968 
L 18.73297 28.024848 
L 18.662518 28.221727 
L 18.592066 28.418606 
L 18.521615 28.615486 
L 18.451163 28.812365 
L 18.380711 29.009244 
L 18.31026 29.206123 
L 18.239808 29.403003 
L 18.169357 29.599882 
L 18.098905 29.796761 
L 18.028957 29.981648 
L 17.959009 30.166535 
L 17.889061 30.351422 
L 17.819113 30.536309 
L 17.749165 30.721196 
L 17.679217 30.906083 
L 17.609269 31.09097 
L 17.539321 31.275857 
L 17.469373 31.460744 
L 17.399425 31.645631 
L 17.329477 31.830518 
L 17.259529 32.015405 
L 17.189581 32.200292 
L 17.119633 32.385179 
L 17.049685 32.570066 
L 16.979737 32.754953 
L 16.908795 32.953831 
L 16.837854 33.152709 
L 16.766912 33.351587 
L 16.69597 33.550465 
L 16.625028 33.749343 
L 16.554086 33.948221 
L 16.483144 34.147099 
L 16.412202 34.345977 
L 16.341261 34.544855 
L 16.270319 34.743733 
L 16.199377 34.942611 
L 16.128435 35.141489 
L 16.057493 35.340367 
L 15.986551 35.539245 
L 15.915609 35.738123 
L 15.844667 35.937001 
" style="fill:none;stroke:#000000;stroke-linecap:square;stroke-width:0.4;"/>
   </g>
   <g id="line2d_48">
    <path clip-path="url(#p3bedc8756a)" d="M 24.078329 18.379882 
L 23.875281 18.423516 
L 23.672233 18.46715 
L 23.469185 18.510784 
L 23.266137 18.554419 
L 23.063089 18.598053 
L 22.860041 18.641687 
L 22.656993 18.685321 
L 22.453946 18.728955 
L 22.1806 18.728955 
L 21.907255 18.728955 
L 21.698164 18.777225 
L 21.489072 18.825495 
L 21.207561 18.817462 
L 20.92605 18.80943 
L 20.741133 18.745095 
L 20.556217 18.680761 
L 20.351155 18.680761 
L 20.146092 18.680761 
L 19.94103 18.680761 
L 19.735967 18.680761 
L 19.484649 18.745095 
L 19.23333 18.80943 
L 18.982012 18.873765 
L 18.730693 18.938099 
L 18.479375 19.002434 
L 18.228056 19.066768 
L 17.976738 19.131103 
L 17.725419 19.195438 
L 17.583683 19.227605 
L 17.441947 19.259772 
L 17.300211 19.29194 
L 17.158475 19.324107 
L 17.016739 19.356274 
L 16.875003 19.388441 
L 16.733267 19.420609 
L 16.591531 19.452776 
L 16.449795 19.484943 
L 16.308059 19.517111 
L 16.166323 19.549278 
L 16.024587 19.581445 
L 15.882851 19.613613 
L 15.741115 19.64578 
L 15.599379 19.677947 
L 15.457644 19.710115 
L 15.240493 19.826773 
L 15.023343 19.943431 
L 14.806193 20.060089 
L 14.589042 20.176747 
L 14.404126 20.377783 
L 14.21921 20.57882 
L 14.170912 20.723591 
L 14.122615 20.868363 
L 14.074317 21.013134 
L 14.02602 21.157906 
L 13.984331 21.402858 
L 13.942641 21.64781 
" style="fill:none;stroke:#008000;stroke-linecap:square;stroke-width:0.4;"/>
   </g>
   <g id="line2d_49">
    <path clip-path="url(#p3bedc8756a)" d="M 25.295058 28.361281 
L 25.51425 28.45707 
L 25.733442 28.552859 
L 25.952634 28.648647 
L 26.171826 28.744436 
L 26.263424 28.927878 
L 26.355023 29.11132 
L 26.446621 29.294762 
L 26.53822 29.478204 
L 26.629818 29.661646 
L 26.721417 29.845087 
L 26.813015 30.028529 
L 26.904614 30.211971 
L 26.996212 30.395413 
L 27.087811 30.578855 
L 27.17941 30.762297 
L 27.271008 30.945739 
L 27.362607 31.12918 
L 27.454205 31.312622 
L 27.545804 31.496064 
L 27.637402 31.679506 
" style="fill:none;stroke:#008000;stroke-linecap:square;stroke-width:0.4;"/>
   </g>
   <g id="line2d_50">
    <path clip-path="url(#p3bedc8756a)" d="M 27.873571 32.135629 
L 27.669368 32.292036 
L 27.465165 32.448444 
L 27.260962 32.604851 
L 27.056759 32.761258 
L 26.852556 32.917666 
L 26.648353 33.074073 
L 26.44415 33.230481 
L 26.239947 33.386888 
" style="fill:none;stroke:#008000;stroke-linecap:square;stroke-width:0.4;"/>
   </g>
   <g id="line2d_51">
    <path clip-path="url(#p3bedc8756a)" d="M 27.637402 31.679506 
L 27.363386 31.753093 
L 27.089369 31.82668 
L 26.815352 31.900267 
L 26.541336 31.973854 
L 26.267319 32.047441 
L 25.993302 32.121028 
L 25.719286 32.194615 
L 25.445269 32.268202 
L 25.261213 32.452197 
L 25.077156 32.636193 
L 24.966808 32.805474 
L 24.85646 32.974756 
L 24.746112 33.144038 
L 24.635764 33.31332 
L 24.551149 33.467888 
L 24.466535 33.622457 
L 24.38192 33.777025 
L 24.297306 33.931593 
L 24.194264 34.078729 
L 24.091222 34.225866 
L 23.94402 34.255368 
L 23.796818 34.28487 
L 23.539267 34.225941 
L 23.281717 34.167011 
L 23.119794 34.056659 
L 22.957872 33.946307 
L 22.781229 33.850593 
L 22.604586 33.754879 
L 22.347949 33.881841 
L 22.091312 34.008802 
L 21.834675 34.135763 
L 21.578038 34.262725 
L 21.321401 34.389686 
L 21.064764 34.516648 
L 20.808127 34.643609 
L 20.551489 34.77057 
L 20.294852 34.897532 
L 20.038215 35.024493 
L 19.781578 35.151455 
L 19.524941 35.278416 
L 19.268304 35.405377 
L 19.011667 35.532339 
L 18.75503 35.6593 
L 18.498393 35.786262 
L 18.288979 35.786262 
L 18.079564 35.786262 
L 17.939024 35.786262 
L 17.791821 35.808332 
L 17.644619 35.830403 
L 17.497417 35.852473 
L 17.350214 35.874543 
L 17.196243 35.894512 
L 17.042271 35.91448 
L 16.798904 35.946085 
L 16.555537 35.977689 
L 16.377819 35.967517 
L 16.200102 35.957345 
L 16.022385 35.947173 
L 15.844667 35.937001 
L 15.699614 35.876345 
L 15.554561 35.815689 
L 15.429492 35.712618 
L 15.304424 35.609548 
L 15.157222 35.37413 
L 14.936526 35.226843 
L 14.774603 35.263702 
L 14.612681 35.300562 
L 14.505932 35.421987 
L 14.399183 35.543412 
L 14.292435 35.664837 
L 14.185686 35.786262 
L 14.068032 35.970257 
L 13.950377 36.154253 
L 13.832616 36.316178 
L 13.714854 36.478103 
L 13.604398 36.573816 
L 13.493943 36.66953 
L 13.324714 36.721028 
L 13.155485 36.772526 
L 12.942095 36.882953 
L 12.728705 36.99338 
L 12.537235 37.066948 
" style="fill:none;stroke:#4169e1;stroke-linecap:square;stroke-width:0.4;"/>
   </g>
   <g id="line2d_52">
    <path clip-path="url(#p3bedc8756a)" d="M 20.683864 26.529133 
L 20.678384 26.726604 
L 20.672905 26.924074 
L 20.667425 27.121545 
L 20.661945 27.319015 
L 20.643625 27.487584 
L 20.625306 27.656153 
L 20.606986 27.824721 
L 20.588666 27.99329 
L 20.53736 28.165537 
L 20.486054 28.337784 
L 20.434748 28.510032 
L 20.383442 28.682279 
L 20.332136 28.865523 
L 20.280831 29.048768 
L 20.229525 29.232013 
L 20.178219 29.415258 
L 20.136099 29.576507 
L 20.09398 29.737757 
L 20.051861 29.899006 
L 20.009742 30.060256 
L 19.967623 30.221505 
L 19.925503 30.382754 
L 19.883384 30.544004 
L 19.841265 30.705253 
L 19.749613 30.950806 
L 19.65796 31.196358 
L 19.566308 31.441911 
L 19.474656 31.687463 
L 19.383057 31.907342 
L 19.291459 32.127221 
L 19.19986 32.3471 
L 19.108262 32.566978 
L 19.007503 32.713571 
L 18.906745 32.860163 
L 18.805987 33.006755 
L 18.705228 33.153347 
L 18.60447 33.299939 
L 18.503711 33.446531 
L 18.402953 33.593123 
L 18.302195 33.739715 
L 18.199583 33.922922 
L 18.096971 34.10613 
L 17.994359 34.289337 
L 17.891747 34.472544 
L 17.785563 34.652786 
L 17.679378 34.833028 
L 17.573194 35.01327 
L 17.467009 35.193512 
L 17.360825 35.373754 
L 17.25464 35.553996 
L 17.148456 35.734238 
L 17.042271 35.91448 
" style="fill:none;stroke:#ff0000;stroke-linecap:square;stroke-width:0.4;"/>
   </g>
   <g id="line2d_53">
    <path clip-path="url(#p3bedc8756a)" d="M 24.752666 28.564419 
L 24.679145 28.842777 
L 24.605625 29.121135 
L 24.532104 29.399493 
L 24.458584 29.677851 
L 24.385063 29.956209 
L 24.311542 30.234567 
L 24.238022 30.512925 
L 24.164501 30.791283 
L 24.133691 30.936111 
L 24.10288 31.080939 
L 24.07207 31.225767 
L 24.04126 31.370595 
L 24.010449 31.515423 
L 23.979639 31.660251 
L 23.948828 31.805079 
L 23.918018 31.949907 
L 23.911893 32.116336 
L 23.905769 32.282765 
L 23.899645 32.449194 
L 23.89352 32.615624 
L 23.801062 32.775859 
L 23.708604 32.936095 
L 23.616146 33.096331 
L 23.523688 33.256567 
L 23.293912 33.381145 
L 23.064137 33.505723 
L 22.834362 33.630301 
L 22.604586 33.754879 
" style="fill:none;stroke:#008000;stroke-linecap:square;stroke-width:0.4;"/>
   </g>
   <g id="line2d_54">
    <path clip-path="url(#p3bedc8756a)" d="M 13.942641 21.64781 
L 13.823859 21.752907 
L 13.705076 21.858005 
L 13.586293 21.963102 
L 13.467511 22.0682 
L 13.348728 22.173297 
L 13.229945 22.278394 
L 13.111163 22.383492 
L 12.99238 22.488589 
L 12.83078 22.674987 
L 12.66918 22.861385 
L 12.495223 23.091323 
L 12.321266 23.321261 
L 12.14731 23.551199 
L 11.973353 23.781137 
L 11.917427 23.96761 
L 11.861501 24.154083 
L 11.805575 24.340555 
L 11.749649 24.527028 
L 11.782863 24.697563 
L 11.816078 24.868097 
L 11.849292 25.038632 
L 11.882507 25.209167 
L 11.915721 25.379701 
L 11.948936 25.550236 
L 11.98215 25.72077 
L 12.015365 25.891305 
L 12.048579 26.061839 
L 12.081794 26.232374 
L 12.115009 26.402909 
L 12.148223 26.573443 
L 12.181438 26.743978 
L 12.214652 26.914512 
L 12.247867 27.085047 
L 12.281081 27.255582 
L 12.314296 27.426116 
L 12.34751 27.596651 
L 12.380725 27.767185 
L 12.413939 27.93772 
L 12.447154 28.108255 
L 12.480369 28.278789 
L 12.513583 28.449324 
L 12.546798 28.619858 
L 12.580012 28.790393 
L 12.613227 28.960927 
L 12.646441 29.131462 
L 12.679656 29.301997 
L 12.71287 29.472531 
L 12.746085 29.643066 
L 12.779299 29.8136 
L 12.812514 29.984135 
L 12.862598 30.241248 
L 12.912681 30.498362 
L 12.962765 30.755475 
L 13.012849 31.012588 
L 13.062933 31.269701 
L 13.113016 31.526815 
L 13.1631 31.783928 
L 13.213184 32.041041 
L 13.263267 32.298154 
L 13.313351 32.555268 
L 13.363435 32.812381 
L 13.413519 33.069494 
L 13.463602 33.326607 
L 13.513686 33.583721 
L 13.56377 33.840834 
L 13.613853 34.097947 
L 13.589033 34.309193 
L 13.564213 34.520439 
L 13.439789 34.769069 
L 13.299974 35.005238 
L 13.160159 35.241407 
L 13.020343 35.477576 
L 12.880528 35.713744 
L 12.740713 35.949913 
L 12.600897 36.186082 
L 12.461082 36.422251 
L 12.321266 36.65842 
" style="fill:none;stroke:#000000;stroke-linecap:square;stroke-width:0.4;"/>
   </g>
   <g id="line2d_55">
    <path clip-path="url(#p3bedc8756a)" d="M 11.973353 23.781137 
L 11.821101 23.802907 
L 11.668848 23.824677 
L 11.516596 23.846447 
L 11.364344 23.868218 
L 11.212091 23.889988 
L 11.059839 23.911758 
L 10.907587 23.933528 
L 10.755334 23.955298 
L 10.631018 24.048497 
L 10.506702 24.141696 
L 10.382386 24.234895 
L 10.25807 24.328094 
L 10.077827 24.545608 
L 9.897585 24.763122 
L 9.717343 24.980636 
L 9.537101 25.19815 
L 9.400428 25.378392 
L 9.263755 25.558634 
L 9.127083 25.738876 
L 8.99041 25.919118 
L 8.903378 26.086936 
L 8.816346 26.254754 
L 8.729314 26.422572 
L 8.642282 26.59039 
L 8.604998 26.807904 
L 8.567714 27.025418 
L 8.53043 27.242932 
L 8.493146 27.460446 
L 8.511788 27.653112 
L 8.53043 27.845778 
L 8.549072 28.038445 
L 8.567714 28.231111 
L 8.642282 28.504551 
L 8.71685 28.777992 
L 8.791419 29.051433 
L 8.865987 29.324874 
L 8.990276 29.486461 
L 9.114565 29.648049 
L 9.238855 29.809636 
L 9.363144 29.971223 
L 9.487433 30.13281 
L 9.611722 30.294398 
L 9.736012 30.455985 
L 9.860301 30.617572 
L 9.965975 30.766735 
L 10.071649 30.915898 
L 10.177323 31.065062 
L 10.282997 31.214225 
L 10.370003 31.4162 
L 10.457008 31.618174 
L 10.544013 31.820149 
L 10.631018 32.022124 
L 10.718023 32.224098 
L 10.805029 32.426073 
L 10.892034 32.628048 
L 10.979039 32.830022 
L 11.010091 32.991609 
L 11.041143 33.153197 
L 11.072195 33.314784 
L 11.103248 33.476371 
L 11.177816 33.743619 
L 11.252384 34.010866 
L 11.326952 34.278114 
L 11.40152 34.545362 
L 11.501151 34.774268 
L 11.600781 35.003173 
L 11.700411 35.232079 
L 11.800041 35.460985 
L 11.899671 35.689891 
L 11.999302 35.918797 
L 12.098932 36.147703 
L 12.198562 36.376609 
L 12.259914 36.517514 
L 12.321266 36.65842 
" style="fill:none;stroke:#000000;stroke-linecap:square;stroke-width:0.4;"/>
   </g>
   <g id="line2d_56">
    <path clip-path="url(#p3bedc8756a)" d="M 14.589042 20.176747 
L 8.200997 21.705464 
L 5.808476 22.712297 
L 4.348003 24.508373 
L 3.919128 25.670488 
L 3.925414 26.944606 
L 3.944056 28.454818 
L 3.471719 29.175636 
L 3.272727 30.070615 
L 3.322583 30.592649 
L 3.77617 31.052563 
L 5.464108 32.213063 
L 8.64239 34.383737 
L 9.139547 34.470743 
L 9.934869 34.868461 
L 10.593734 35.42788 
L 12.198562 36.376609 
L 12.198562 36.376609 
" style="fill:none;stroke:#4169e1;stroke-linecap:square;stroke-width:0.4;"/>
   </g>
   <g id="line2d_57">
    <path clip-path="url(#p3bedc8756a)" d="M 8.567714 28.231111 
L 8.533546 28.426873 
L 8.499378 28.622636 
L 8.46521 28.818399 
L 8.431041 29.014161 
L 8.396873 29.209924 
L 8.362705 29.405686 
L 8.328537 29.601449 
L 8.294369 29.797212 
L 8.294369 29.996071 
L 8.294369 30.19493 
L 8.325421 30.424868 
L 8.356473 30.654807 
L 8.387525 30.884745 
L 8.418578 31.114683 
L 8.474316 31.329504 
L 8.530054 31.544325 
L 8.585792 31.759145 
L 8.64153 31.973966 
L 8.697268 32.188787 
L 8.753006 32.403608 
L 8.808744 32.618429 
L 8.864483 32.83325 
L 8.920221 33.048071 
L 8.975959 33.262892 
L 9.031697 33.477713 
L 9.087435 33.692534 
L 9.143173 33.907355 
L 9.198911 34.122176 
L 9.254649 34.336997 
L 9.310387 34.551818 
" style="fill:none;stroke:#4169e1;stroke-linecap:square;stroke-width:0.4;"/>
   </g>
   <g id="line2d_58">
    <path clip-path="url(#p3bedc8756a)" d="M 8.567714 28.231111 
L 8.685798 28.361619 
L 8.803882 28.492127 
L 8.921967 28.622636 
L 9.040051 28.753144 
L 9.201651 28.80284 
L 9.363251 28.852536 
L 9.53103 28.871191 
L 9.698808 28.889846 
L 9.866587 28.908501 
L 10.034365 28.927156 
L 10.208375 28.952004 
L 10.382386 28.976852 
L 10.556396 29.0017 
L 10.730407 29.026548 
L 10.923059 29.057626 
L 11.115711 29.088705 
L 11.308364 29.119784 
L 11.501016 29.150863 
L 11.700438 29.287339 
L 11.899859 29.423816 
L 12.128023 29.563896 
L 12.356187 29.703975 
L 12.58435 29.844055 
L 12.812514 29.984135 
" style="fill:none;stroke:#008000;stroke-linecap:square;stroke-width:0.4;"/>
   </g>
   <g id="line2d_59">
    <path clip-path="url(#p3bedc8756a)" d="M 10.755334 23.955298 
L 10.596447 23.92482 
L 10.43756 23.894342 
L 10.278673 23.863864 
L 10.119785 23.833385 
L 9.960898 23.802907 
L 9.802011 23.772429 
L 9.643124 23.741951 
L 9.484237 23.711472 
L 9.304384 23.868809 
L 9.124531 24.026145 
L 8.944678 24.183482 
L 8.764825 24.340818 
L 8.584973 24.498155 
L 8.40512 24.655491 
L 8.225267 24.812827 
L 8.045414 24.970164 
L 7.865561 25.1275 
L 7.685709 25.284837 
L 7.505856 25.442173 
L 7.326003 25.599509 
L 7.14615 25.756846 
L 6.966297 25.914182 
L 6.786445 26.071519 
L 6.606592 26.228855 
L 6.582839 26.424454 
L 6.559087 26.620052 
L 6.535334 26.81565 
L 6.511582 27.011249 
L 6.487829 27.206847 
L 6.464077 27.402446 
L 6.440324 27.598044 
L 6.416572 27.793643 
L 6.392819 27.989241 
L 6.369067 28.18484 
L 6.345314 28.380438 
L 6.321562 28.576036 
L 6.297809 28.771635 
L 6.274057 28.967233 
L 6.250304 29.162832 
L 6.226552 29.35843 
L 6.202799 29.554029 
L 6.179047 29.749627 
L 6.155294 29.945226 
L 6.131542 30.140824 
L 6.107789 30.336422 
L 6.084037 30.532021 
L 6.060284 30.727619 
L 6.036532 30.923218 
L 6.012779 31.118816 
L 5.989027 31.314415 
L 5.965274 31.510013 
L 5.941522 31.705611 
L 5.917769 31.90121 
L 5.894017 32.096808 
L 5.870264 32.292407 
L 5.846512 32.488005 
" style="fill:none;stroke:#ff0000;stroke-dasharray:1.48,0.64;stroke-dashoffset:0;stroke-width:0.4;"/>
   </g>
  </g>
 </g>
 <defs>
  <clipPath id="p3bedc8756a">
   <rect height="48.132202" width="72" x="0" y="0"/>
  </clipPath>
 </defs>
</svg>
