<?xml version="1.0" encoding="utf-8" standalone="no"?>
<!DOCTYPE svg PUBLIC "-//W3C//DTD SVG 1.1//EN"
  "http://www.w3.org/Graphics/SVG/1.1/DTD/svg11.dtd">
<svg height="68.954603pt" version="1.1" viewBox="0 0 72 68.954603" width="72pt" xmlns="http://www.w3.org/2000/svg" xmlns:xlink="http://www.w3.org/1999/xlink">
 <metadata>
  <rdf:RDF xmlns:cc="http://creativecommons.org/ns#" xmlns:dc="http://purl.org/dc/elements/1.1/" xmlns:rdf="http://www.w3.org/1999/02/22-rdf-syntax-ns#">
   <cc:Work>
    <dc:type rdf:resource="http://purl.org/dc/dcmitype/StillImage"/>
    <dc:date>2022-05-22T18:15:58.903344</dc:date>
    <dc:format>image/svg+xml</dc:format>
    <dc:creator>
     <cc:Agent>
      <dc:title>Matplotlib v3.4.3, https://matplotlib.org/</dc:title>
     </cc:Agent>
    </dc:creator>
   </cc:Work>
  </rdf:RDF>
 </metadata>
 <defs>
  <style type="text/css">*{stroke-linecap:butt;stroke-linejoin:round;}</style>
 </defs>
 <g id="figure_1">
  <g id="patch_1">
   <path d="M 0 68.954603 
L 72 68.954603 
L 72 0 
L 0 0 
z
" style="fill:#ffffff;"/>
  </g>
  <g id="axes_1">
   <g id="line2d_1">
    <path clip-path="url(#pd58dba3f00)" d="M 29.389262 56.894775 
L 29.752386 55.909302 
L 30.11551 54.923829 
L 30.639003 53.252497 
L 31.135404 51.884764 
L 31.631805 50.517032 
L 32.117718 49.137953 
L 32.603631 47.758873 
L 32.998873 46.661007 
L 33.394115 45.563141 
L 33.874784 44.199089 
L 34.531554 42.419043 
L 35.188324 40.638998 
L 35.716842 39.143845 
L 36.24536 37.648693 
L 36.822164 35.992387 
L 37.220683 34.865388 
L 37.619202 33.738388 
L 38.206493 31.909736 
L 38.649801 30.68813 
L 39.09311 29.466524 
L 39.589729 28.050032 
L 40.086348 26.633539 
L 40.492077 25.5093 
L 40.897806 24.385061 
L 41.250224 23.412698 
L 41.602643 22.440335 
L 41.955061 21.467972 
L 42.307479 20.49561 
L 42.675847 19.360177 
L 43.044215 18.224744 
L 43.706228 16.448225 
L 44.074815 15.342846 
L 44.443401 14.237467 
L 44.929314 12.828488 
L 45.415228 11.419508 
L 45.735528 10.445229 
L 46.151963 9.42587 
L 46.659288 7.997724 
" style="fill:none;stroke:#808080;stroke-linecap:square;stroke-width:0.4;"/>
   </g>
   <g id="line2d_2">
    <path clip-path="url(#pd58dba3f00)" d="M 47.233907 6.079832 
L 47.539023 5.945818 
L 47.844139 5.811805 
L 48.149255 5.677792 
L 48.454371 5.543779 
L 49.020032 5.454385 
L 49.585693 5.364992 
L 49.875952 5.558575 
L 50.166211 5.752159 
L 50.45647 5.945742 
L 50.746729 6.139325 
L 50.903056 6.548725 
L 51.059383 6.958124 
L 51.21571 7.367524 
L 51.372037 7.776924 
L 51.45386 8.260767 
L 51.535683 8.74461 
L 51.617506 9.228453 
L 51.699329 9.712296 
L 51.681632 10.173753 
L 51.663934 10.635209 
L 51.646237 11.096665 
L 51.628539 11.558122 
" style="fill:none;stroke:#008000;stroke-linecap:square;stroke-width:0.4;"/>
   </g>
   <g id="line2d_3">
    <path clip-path="url(#pd58dba3f00)" d="M 47.739921 8.074697 
L 47.896194 8.383625 
L 48.052466 8.692553 
L 48.208738 9.001482 
L 48.36501 9.31041 
L 48.521283 9.619338 
L 48.677555 9.928266 
L 48.833827 10.237194 
L 48.9901 10.546122 
L 49.319905 10.672622 
L 49.64971 10.799122 
L 49.979514 10.925622 
L 50.309319 11.052122 
L 50.639124 11.178622 
L 50.968929 11.305122 
L 51.298734 11.431622 
L 51.628539 11.558122 
" style="fill:none;stroke:#4169e1;stroke-linecap:square;stroke-width:0.4;"/>
   </g>
   <g id="line2d_4">
    <path clip-path="url(#pd58dba3f00)" d="M 50.893989 13.94 
L 51.247718 14.345797 
L 51.601447 14.751593 
L 51.955176 15.15739 
L 52.308906 15.563186 
L 52.662635 15.968982 
L 53.016364 16.374779 
L 53.370093 16.780575 
L 53.723822 17.186372 
L 53.895006 17.651623 
L 54.06619 18.116874 
L 54.237374 18.582126 
L 54.408558 19.047377 
L 54.579742 19.512629 
L 54.750926 19.97788 
L 54.92211 20.443131 
L 55.093294 20.908383 
L 55.247709 21.228466 
L 55.402125 21.548549 
L 55.55654 21.868632 
L 55.710955 22.188715 
L 55.86537 22.508799 
L 56.019785 22.828882 
L 56.1742 23.148965 
L 56.328615 23.469048 
L 56.483031 23.789131 
L 56.637446 24.109214 
L 56.791861 24.429297 
L 56.946276 24.749381 
L 57.100691 25.069464 
L 57.255106 25.389547 
L 57.409522 25.70963 
L 57.563937 26.029713 
L 57.869107 26.368426 
L 58.174278 26.707139 
L 58.479449 27.045852 
L 58.784619 27.384566 
L 59.08979 27.723279 
L 59.394961 28.061992 
L 59.700131 28.400705 
L 60.005302 28.739418 
L 60.174601 29.132105 
L 60.343901 29.524791 
L 60.513201 29.917477 
L 60.6825 30.310164 
L 60.8518 30.70285 
L 61.021099 31.095537 
L 61.190399 31.488223 
L 61.359698 31.88091 
L 61.528998 32.273596 
L 61.698297 32.666282 
L 61.867597 33.058969 
L 62.036896 33.451655 
L 62.206196 33.844342 
L 62.375495 34.237028 
L 62.544795 34.629715 
L 62.714094 35.022401 
" style="fill:none;stroke:#000000;stroke-linecap:square;stroke-width:0.4;"/>
   </g>
   <g id="line2d_5">
    <path clip-path="url(#pd58dba3f00)" d="M 49.549424 15.632799 
L 49.663338 15.930879 
L 49.777251 16.228959 
L 49.891164 16.527039 
L 50.005077 16.825119 
L 50.118991 17.123198 
L 50.232904 17.421278 
L 50.346817 17.719358 
L 50.46073 18.017438 
L 50.574644 18.315518 
L 50.688557 18.613598 
L 50.80247 18.911677 
L 50.916383 19.209757 
L 51.030297 19.507837 
L 51.14421 19.805917 
L 51.258123 20.103997 
L 51.372037 20.402076 
L 51.435288 20.867328 
L 51.49854 21.332579 
L 51.561792 21.797831 
L 51.625044 22.263082 
L 51.688295 22.728333 
L 51.751547 23.193585 
L 51.814799 23.658836 
L 51.878051 24.124088 
L 51.885479 24.697286 
L 51.892908 25.270484 
L 51.900336 25.843682 
L 51.907765 26.41688 
L 51.915193 26.990078 
L 51.922622 27.563275 
L 51.93005 28.136473 
L 51.937479 28.709671 
L 51.963533 29.022318 
L 51.989588 29.334964 
L 52.015642 29.647611 
L 52.041697 29.960257 
L 52.067751 30.272904 
L 52.093806 30.58555 
L 52.11986 30.898197 
L 52.145915 31.210843 
L 52.171969 31.52349 
L 52.198024 31.836136 
L 52.224078 32.148783 
L 52.250133 32.461429 
L 52.276187 32.774076 
L 52.302242 33.086722 
L 52.328296 33.399369 
L 52.354351 33.712015 
L 52.336667 34.025601 
L 52.318983 34.339186 
L 52.3013 34.652772 
L 52.283616 34.966358 
L 52.265932 35.279943 
L 52.248248 35.593529 
L 52.230565 35.907115 
L 52.212881 36.2207 
L 52.195197 36.534286 
L 52.177513 36.847872 
L 52.15983 37.161457 
L 52.142146 37.475043 
L 52.124462 37.788629 
L 52.106778 38.102214 
L 52.089095 38.4158 
L 52.071411 38.729385 
L 52.053727 39.042971 
L 52.036044 39.356557 
L 52.01836 39.670142 
L 52.000676 39.983728 
L 51.982992 40.297314 
L 51.965309 40.610899 
L 51.947625 40.924485 
L 51.929941 41.238071 
L 51.912257 41.551656 
L 51.894574 41.865242 
L 51.87689 42.178828 
L 51.859206 42.492413 
L 51.841523 42.805999 
L 51.823839 43.119585 
L 51.806155 43.43317 
L 51.788471 43.746756 
" style="fill:none;stroke:#ff0000;stroke-linecap:square;stroke-width:0.4;"/>
   </g>
   <g id="line2d_6">
    <path clip-path="url(#pd58dba3f00)" d="M 62.714094 35.022401 
L 62.609931 35.349921 
L 62.505768 35.677441 
L 62.401604 36.00496 
L 62.297441 36.33248 
L 62.193278 36.66 
L 62.089114 36.98752 
L 61.984951 37.31504 
L 61.880788 37.642559 
L 61.79891 37.932896 
L 61.717032 38.223232 
L 61.635155 38.513569 
L 61.553277 38.803905 
L 61.471399 39.094242 
L 61.389522 39.384578 
L 61.307644 39.674915 
L 61.225766 39.965251 
L 60.942936 40.207173 
L 60.660105 40.449094 
L 60.377275 40.691016 
L 60.094444 40.932937 
L 59.811614 41.174859 
L 59.528783 41.416781 
L 59.245953 41.658702 
L 58.963123 41.900624 
L 58.514707 42.016007 
L 58.066291 42.13139 
L 57.617875 42.246773 
L 57.16946 42.362157 
L 56.721044 42.47754 
L 56.272628 42.592923 
L 55.824213 42.708306 
L 55.375797 42.82369 
L 54.927381 42.939073 
L 54.478966 43.054456 
L 54.03055 43.169839 
L 53.582134 43.285223 
L 53.133718 43.400606 
L 52.685303 43.515989 
L 52.236887 43.631373 
L 51.788471 43.746756 
L 51.461015 43.834213 
L 51.133559 43.921671 
L 50.806103 44.009128 
L 50.478646 44.096586 
L 50.15119 44.184043 
L 49.823734 44.2715 
L 49.496278 44.358958 
L 49.168821 44.446415 
L 48.841365 44.533873 
L 48.513909 44.62133 
L 48.186453 44.708788 
L 47.858996 44.796245 
L 47.53154 44.883703 
L 47.204084 44.97116 
L 46.876627 45.058618 
L 46.549171 45.146075 
L 46.243946 45.265215 
L 45.938721 45.384355 
L 45.633495 45.503495 
L 45.32827 45.622635 
L 45.101263 45.868275 
L 44.874256 46.113914 
L 44.647248 46.359554 
L 44.420241 46.605194 
L 44.193234 46.850834 
L 43.966227 47.096474 
L 43.73922 47.342114 
L 43.512212 47.587753 
L 43.259205 47.826033 
L 43.006198 48.064313 
L 42.753191 48.302593 
L 42.500184 48.540873 
L 42.023666 48.65986 
L 41.547147 48.778846 
L 41.15278 48.674656 
L 40.758412 48.570466 
L 40.364044 48.466276 
L 39.969677 48.362086 
L 39.713556 48.520403 
L 39.457436 48.67872 
L 39.201315 48.837036 
L 38.945195 48.995353 
L 38.689074 49.153669 
L 38.432954 49.311986 
L 38.176833 49.470302 
L 37.920713 49.628619 
L 37.562777 49.849955 
L 37.204842 50.071292 
L 36.846907 50.292629 
L 36.488972 50.513965 
L 36.131037 50.735302 
L 35.773102 50.956638 
L 35.415167 51.177975 
L 35.057232 51.399311 
" style="fill:none;stroke:#4169e1;stroke-linecap:square;stroke-width:0.4;"/>
   </g>
   <g id="line2d_7">
    <path clip-path="url(#pd58dba3f00)" d="M 47.064362 17.706171 
L 46.979371 18.191567 
L 46.89438 18.676962 
L 46.809388 19.162358 
L 46.724397 19.647754 
L 46.639406 20.133149 
L 46.554415 20.618545 
L 46.469424 21.10394 
L 46.384433 21.589336 
L 46.299441 22.074731 
L 46.21445 22.560127 
L 46.129459 23.045522 
L 46.044468 23.530918 
L 45.959477 24.016313 
L 45.874486 24.501709 
L 45.789495 24.987105 
L 45.704503 25.4725 
L 45.650319 25.781007 
L 45.596134 26.089513 
L 45.52357 26.629208 
L 45.451005 27.168902 
L 45.37844 27.708597 
L 45.305875 28.248292 
L 45.233311 28.787986 
L 45.160746 29.327681 
L 45.088181 29.867376 
L 45.015616 30.40707 
L 44.943052 30.946765 
L 44.870487 31.48646 
L 44.797922 32.026154 
L 44.725357 32.565849 
L 44.652793 33.105544 
L 44.580228 33.645239 
L 44.507663 34.184933 
L 44.435098 34.724628 
L 44.269513 35.113577 
L 44.103928 35.502526 
L 43.938343 35.891475 
L 43.772757 36.280424 
L 43.607172 36.669373 
L 43.441587 37.058321 
L 43.276002 37.44727 
L 43.110416 37.836219 
L 42.944831 38.225168 
L 42.779246 38.614117 
L 42.61366 39.003066 
L 42.448075 39.392015 
L 42.28249 39.780964 
L 42.116905 40.169913 
L 41.951319 40.558862 
L 41.785734 40.947811 
L 41.664952 41.219086 
L 41.54417 41.490361 
L 41.423388 41.761637 
L 41.302606 42.032912 
L 41.181825 42.304187 
L 41.061043 42.575462 
L 40.940261 42.846738 
L 40.819479 43.118013 
L 40.698697 43.389288 
L 40.577915 43.660563 
L 40.457133 43.931839 
L 40.336351 44.203114 
L 40.215569 44.474389 
L 40.094787 44.745664 
L 39.974005 45.01694 
L 39.853223 45.288215 
L 39.732441 45.55949 
L 39.61166 45.830765 
L 39.490878 46.102041 
L 39.370096 46.373316 
L 39.249314 46.644591 
L 39.128532 46.915866 
L 39.00775 47.187142 
L 38.886968 47.458417 
L 38.766186 47.729692 
L 38.645404 48.000967 
L 38.524622 48.272243 
L 38.40384 48.543518 
L 38.283058 48.814793 
L 38.162276 49.086068 
L 38.041494 49.357344 
L 37.920713 49.628619 
" style="fill:none;stroke:#000000;stroke-linecap:square;stroke-width:0.4;"/>
   </g>
   <g id="line2d_8">
    <path clip-path="url(#pd58dba3f00)" d="M 45.704503 25.4725 
L 45.277909 25.743172 
L 44.851315 26.013843 
L 44.42472 26.284515 
L 43.998126 26.555186 
L 43.571531 26.825858 
L 43.144937 27.096529 
L 42.718343 27.367201 
L 42.291748 27.637872 
L 42.154518 27.992858 
L 42.017289 28.347843 
L 41.880059 28.702829 
L 41.742829 29.057815 
L 41.605599 29.4128 
L 41.468369 29.767786 
L 41.331139 30.122771 
L 41.19391 30.477757 
L 41.05668 30.832743 
L 40.91945 31.187728 
L 40.78222 31.542714 
L 40.64499 31.8977 
L 40.50776 32.252685 
L 40.370531 32.607671 
L 40.233301 32.962656 
L 40.096071 33.317642 
L 39.958841 33.672628 
L 39.821611 34.027613 
L 39.684381 34.382599 
L 39.547151 34.737585 
L 39.409922 35.09257 
L 39.272692 35.447556 
L 39.135462 35.802541 
L 38.998232 36.157527 
L 38.861002 36.512513 
L 38.723772 36.867498 
L 38.586543 37.222484 
L 38.449313 37.577469 
L 38.312083 37.932455 
L 38.174853 38.287441 
L 38.037623 38.642426 
L 37.900393 38.997412 
L 37.763163 39.352398 
L 37.625934 39.707383 
L 37.488704 40.062369 
L 37.351474 40.417354 
L 37.214244 40.77234 
L 37.077014 41.127326 
L 36.939784 41.482311 
L 36.802555 41.837297 
L 36.665325 42.192283 
L 36.528095 42.547268 
L 36.390865 42.902254 
L 36.253635 43.257239 
L 36.116405 43.612225 
L 35.979176 43.967211 
L 35.841946 44.322196 
L 35.704716 44.677182 
L 35.567486 45.032168 
L 35.430256 45.387153 
L 35.293026 45.742139 
L 35.155796 46.097124 
L 35.018567 46.45211 
L 34.881337 46.807096 
L 34.744107 47.162081 
L 34.606877 47.517067 
L 34.469647 47.872052 
L 34.332417 48.227038 
L 34.195188 48.582024 
L 34.057958 48.937009 
L 33.920728 49.291995 
L 33.783498 49.646981 
L 33.646268 50.001966 
L 33.509038 50.356952 
" style="fill:none;stroke:#000000;stroke-linecap:square;stroke-width:0.4;"/>
   </g>
   <g id="line2d_9">
    <path clip-path="url(#pd58dba3f00)" d="M 46.549171 45.146075 
L 46.45981 45.577861 
L 46.370449 46.009648 
L 46.281089 46.441434 
L 46.191728 46.873221 
L 46.102367 47.305007 
L 46.013006 47.736793 
L 45.923645 48.16858 
L 45.834284 48.600366 
L 45.573849 48.965069 
L 45.313413 49.329772 
L 45.052977 49.694476 
L 44.792542 50.059179 
L 44.308704 50.170882 
L 43.824866 50.282585 
L 43.341028 50.394288 
L 42.857191 50.505992 
L 42.566932 50.640005 
L 42.276673 50.774018 
L 41.986414 50.908032 
L 41.696155 51.042045 
L 41.190141 50.878285 
L 40.684127 50.714525 
L 40.244969 50.878285 
L 39.805812 51.042045 
L 39.366655 51.205805 
L 38.927497 51.369565 
L 38.443714 51.373283 
L 37.959931 51.377001 
L 37.476148 51.38072 
L 36.992365 51.384438 
L 36.508581 51.388156 
L 36.024798 51.391875 
L 35.541015 51.395593 
L 35.057232 51.399311 
" style="fill:none;stroke:#008000;stroke-linecap:square;stroke-width:0.4;"/>
   </g>
   <g id="line2d_10">
    <path clip-path="url(#pd58dba3f00)" d="M 51.628539 11.558122 
L 51.918211 11.709807 
L 52.207883 11.861492 
L 52.497555 12.013176 
L 52.787227 12.164861 
L 53.076898 12.316546 
L 53.36657 12.468231 
L 53.656242 12.619916 
L 53.945914 12.771601 
L 54.235586 12.923286 
L 54.525257 13.074971 
L 54.814929 13.226656 
L 55.104601 13.378341 
L 55.394273 13.530026 
L 55.683944 13.68171 
L 55.973616 13.833395 
L 56.263288 13.98508 
L 56.55296 14.136765 
L 56.842632 14.28845 
L 57.132303 14.440135 
L 57.421975 14.59182 
L 57.711647 14.743505 
L 58.001319 14.89519 
L 58.290991 15.046875 
L 58.580662 15.19856 
L 58.870334 15.350244 
L 59.160006 15.501929 
L 59.449678 15.653614 
L 59.73935 15.805299 
L 60.029021 15.956984 
L 60.318693 16.108669 
L 60.608365 16.260354 
L 60.898037 16.412039 
L 61.225493 16.456697 
L 61.552949 16.501355 
L 61.880405 16.546014 
L 62.207862 16.590672 
L 62.535318 16.63533 
L 62.862774 16.679989 
L 63.190231 16.724647 
L 63.517687 16.769305 
L 63.81166 16.814002 
L 64.105633 16.858699 
L 64.399606 16.903395 
L 64.69358 16.948092 
L 64.987553 16.992788 
L 65.281526 17.037485 
L 65.575499 17.082182 
L 65.869473 17.126878 
L 66.338344 17.372518 
L 66.807216 17.618158 
L 67.276087 17.863798 
L 67.744959 18.109438 
L 67.990537 18.526274 
L 68.236116 18.943111 
L 68.481694 19.359947 
L 68.727273 19.776783 
L 68.708701 20.134088 
L 68.69013 20.491393 
L 68.671559 20.848698 
L 68.652987 21.206003 
L 68.634416 21.563307 
L 68.615845 21.920612 
L 68.597273 22.277917 
L 68.578702 22.635222 
L 68.366607 23.111666 
L 68.154511 23.588111 
L 67.942416 24.064556 
L 67.73032 24.541001 
L 67.518224 25.017445 
L 67.306129 25.49389 
L 67.094033 25.970335 
L 66.881938 26.446779 
L 66.751693 26.714768 
L 66.621448 26.982756 
L 66.491203 27.250744 
L 66.360957 27.518732 
L 66.230712 27.78672 
L 66.100467 28.054709 
L 65.970222 28.322697 
L 65.839977 28.590685 
L 65.709732 28.858673 
L 65.579487 29.126661 
L 65.449242 29.394649 
L 65.318997 29.662638 
L 65.188751 29.930626 
L 65.058506 30.198614 
L 64.928261 30.466602 
L 64.798016 30.73459 
L 64.667771 31.002578 
L 64.537526 31.270567 
L 64.407281 31.538555 
L 64.277036 31.806543 
L 64.146791 32.074531 
L 64.016545 32.342519 
L 63.8863 32.610507 
L 63.756055 32.878496 
L 63.62581 33.146484 
L 63.495565 33.414472 
L 63.36532 33.68246 
L 63.235075 33.950448 
L 63.10483 34.218437 
L 62.974585 34.486425 
L 62.844339 34.754413 
L 62.714094 35.022401 
" style="fill:none;stroke:#4169e1;stroke-linecap:square;stroke-width:0.4;"/>
   </g>
   <g id="line2d_11">
    <path clip-path="url(#pd58dba3f00)" d="M 51.628539 11.558122 
L 51.610187 12.034988 
L 51.505969 12.384895 
L 51.401751 12.734801 
L 51.297533 13.084707 
L 51.193315 13.434614 
L 50.893989 13.94 
L 50.611923 14.416713 
L 50.329857 14.893426 
L 49.939641 15.263113 
L 49.549424 15.632799 
L 49.178872 15.983932 
L 48.808319 16.335066 
L 48.437766 16.686199 
L 48.067214 17.037332 
L 47.816501 17.204542 
L 47.565788 17.371752 
L 47.315075 17.538961 
L 47.064362 17.706171 
L 46.717406 17.937551 
L 46.370449 18.168931 
L 45.923864 18.347564 
L 45.477278 18.526198 
L 45.040442 18.381623 
L 44.603606 18.237049 
L 44.16677 18.092475 
L 43.729934 17.947901 
L 43.293098 17.803327 
L 42.856262 17.658753 
L 42.419426 17.514179 
L 41.98259 17.369605 
L 41.545754 17.225031 
L 41.108918 17.080457 
L 40.672082 16.935883 
L 40.235247 16.791309 
L 39.798411 16.646735 
L 39.361575 16.50216 
L 38.924739 16.357586 
L 38.487903 16.213012 
L 38.143924 16.099162 
L 37.799944 15.985312 
L 37.455965 15.871462 
L 37.111986 15.757613 
L 36.768006 15.643763 
L 36.424027 15.529913 
L 36.080048 15.416063 
L 35.736069 15.302213 
L 35.392089 15.188363 
L 35.04811 15.074513 
L 34.704131 14.960663 
L 34.360152 14.846813 
L 34.016172 14.732963 
L 33.672193 14.619113 
L 33.328214 14.505263 
L 32.984234 14.391413 
" style="fill:none;stroke:#008000;stroke-linecap:square;stroke-width:0.4;"/>
   </g>
   <g id="line2d_12">
    <path clip-path="url(#pd58dba3f00)" d="M 44.286528 7.717431 
L 43.839942 8.050547 
L 43.393356 8.383664 
L 42.94677 8.71678 
L 42.500184 9.049897 
L 42.053598 9.383013 
L 41.607012 9.71613 
L 41.160427 10.049246 
L 40.713841 10.382362 
L 40.267255 10.715479 
L 39.820669 11.048595 
L 39.374083 11.381712 
L 38.927497 11.714828 
L 38.480911 12.047945 
L 38.034325 12.381061 
L 37.58774 12.714178 
L 37.141154 13.047294 
" style="fill:none;stroke:#4169e1;stroke-linecap:square;stroke-width:0.4;"/>
   </g>
   <g id="line2d_13">
    <path clip-path="url(#pd58dba3f00)" d="M 46.24766 10.014363 
L 46.139475 10.314479 
L 46.031291 10.614595 
L 45.923106 10.914712 
L 45.814921 11.214828 
L 45.706736 11.514944 
L 45.598551 11.81506 
L 45.490366 12.115177 
L 45.382182 12.415293 
L 45.273997 12.715409 
L 45.165812 13.015525 
L 45.057627 13.315642 
L 44.949442 13.615758 
L 44.841257 13.915874 
L 44.733073 14.215991 
L 44.624888 14.516107 
L 44.516703 14.816223 
L 44.408518 15.116339 
L 44.300333 15.416456 
L 44.192148 15.716572 
L 44.083964 16.016688 
L 43.975779 16.316805 
L 43.867594 16.616921 
L 43.759409 16.917037 
L 43.651224 17.217153 
L 43.54304 17.51727 
L 43.434855 17.817386 
L 43.32667 18.117502 
L 43.218485 18.417618 
L 43.1103 18.717735 
L 43.002115 19.017851 
L 42.893931 19.317967 
L 42.785746 19.618084 
L 42.677561 19.9182 
L 42.569376 20.218316 
L 42.461191 20.518432 
L 42.353006 20.818549 
L 42.244822 21.118665 
L 42.136637 21.418781 
L 42.028452 21.718898 
L 41.920267 22.019014 
L 41.812082 22.31913 
L 41.703897 22.619246 
L 41.595713 22.919363 
L 41.487528 23.219479 
L 41.379343 23.519595 
L 41.271158 23.819711 
L 41.162973 24.119828 
L 41.054788 24.419944 
L 40.946604 24.72006 
L 40.838419 25.020177 
L 40.730234 25.320293 
L 40.622049 25.620409 
L 40.513864 25.920525 
L 40.405679 26.220642 
L 40.297495 26.520758 
L 40.18931 26.820874 
L 40.081125 27.120991 
L 39.97294 27.421107 
L 39.864755 27.721223 
L 39.756571 28.021339 
L 39.648386 28.321456 
L 39.540201 28.621572 
L 39.432016 28.921688 
L 39.323831 29.221804 
" style="fill:none;stroke:#ff0000;stroke-linecap:square;stroke-width:0.4;"/>
   </g>
   <g id="line2d_14">
    <path clip-path="url(#pd58dba3f00)" d="M 46.434247 7.145804 
L 46.331614 6.8115 
L 46.22898 6.477195 
L 46.126346 6.14289 
L 46.023712 5.808585 
L 45.921078 5.47428 
L 45.818444 5.139976 
L 45.71581 4.805671 
L 45.613176 4.471366 
L 45.273102 4.1371 
L 44.933029 3.802833 
L 44.592955 3.468567 
L 44.252881 3.1343 
L 43.707539 3.18122 
L 43.162198 3.22814 
L 42.616856 3.27506 
L 42.071514 3.32198 
L 41.804688 3.47447 
L 41.537862 3.62696 
L 41.271035 3.77945 
L 41.004209 3.93194 
L 40.737383 4.08443 
L 40.470556 4.236919 
L 40.20373 4.389409 
L 39.936904 4.541899 
L 39.600025 4.947121 
L 39.263147 5.352342 
L 38.926268 5.757564 
L 38.58939 6.162785 
L 38.252511 6.568006 
L 37.915633 6.973228 
L 37.578754 7.378449 
L 37.241876 7.783671 
L 36.904997 8.188892 
L 36.568119 8.594114 
L 36.23124 8.999335 
L 35.894362 9.404556 
L 35.557483 9.809778 
L 35.220605 10.214999 
L 34.883726 10.620221 
L 34.546848 11.025442 
L 34.351521 11.446188 
L 34.156195 11.866935 
L 33.960868 12.287681 
L 33.765541 12.708428 
L 33.570214 13.129174 
L 33.374888 13.549921 
L 33.179561 13.970667 
L 32.984234 14.391413 
L 32.847735 14.68543 
L 32.711236 14.979446 
L 32.574737 15.273463 
L 32.438237 15.567479 
L 32.301738 15.861496 
L 32.165239 16.155512 
L 32.028739 16.449529 
L 31.89224 16.743545 
L 31.346025 16.8559 
L 30.799809 16.968255 
L 30.253593 17.08061 
L 29.707378 17.192965 
L 29.161162 17.30532 
L 28.614947 17.417675 
L 28.068731 17.53003 
L 27.522515 17.642385 
L 27.217345 17.738371 
L 26.912174 17.834358 
L 26.607003 17.930345 
L 26.301833 18.026331 
L 25.996662 18.122318 
L 25.691491 18.218304 
L 25.386321 18.314291 
L 25.08115 18.410278 
L 24.775979 18.506264 
L 24.470809 18.602251 
L 24.165638 18.698237 
L 23.860467 18.794224 
L 23.555297 18.890211 
L 23.250126 18.986197 
L 22.944955 19.082184 
L 22.639785 19.178171 
L 22.458004 19.23521 
L 22.262732 19.523678 
L 22.06746 19.812146 
L 21.872188 20.100614 
L 21.676916 20.389081 
L 21.481644 20.677549 
L 21.286372 20.966017 
L 21.0911 21.254485 
L 20.895828 21.542952 
L 20.700556 21.83142 
L 20.505283 22.119888 
L 20.310011 22.408356 
L 20.114739 22.696823 
L 19.919467 22.985291 
L 19.724195 23.273759 
L 19.528923 23.562227 
L 19.333651 23.850694 
L 19.138379 24.139162 
L 18.943107 24.42763 
L 18.747835 24.716098 
L 18.552563 25.004565 
L 18.357291 25.293033 
L 18.162018 25.581501 
L 17.966746 25.869969 
L 17.771474 26.158436 
L 17.576202 26.446904 
L 17.38093 26.735372 
L 17.185658 27.02384 
L 16.990386 27.312307 
L 16.795114 27.600775 
L 16.599842 27.889243 
L 16.40457 28.177711 
L 16.209298 28.466178 
L 15.903526 28.873508 
L 15.597755 29.280838 
L 15.291983 29.688168 
L 14.986212 30.095497 
" style="fill:none;stroke:#4169e1;stroke-linecap:square;stroke-width:0.4;"/>
   </g>
   <g id="line2d_15">
    <path clip-path="url(#pd58dba3f00)" d="M 31.89224 16.743545 
L 31.734001 17.047337 
L 31.575763 17.351128 
L 31.417524 17.65492 
L 31.259286 17.958711 
L 31.101047 18.262503 
L 30.942808 18.566294 
L 30.78457 18.870086 
L 30.626331 19.173877 
L 30.468092 19.477669 
L 30.309854 19.78146 
L 30.151615 20.085252 
L 29.993376 20.389043 
L 29.835138 20.692835 
L 29.676899 20.996626 
L 29.51866 21.300418 
L 29.360422 21.604209 
L 29.253363 22.049489 
L 29.146305 22.494769 
L 29.049925 22.896061 
L 28.953546 23.297353 
L 28.857166 23.698645 
L 28.760786 24.099938 
L 28.664406 24.50123 
L 28.568027 24.902522 
L 28.471647 25.303814 
L 28.375267 25.705107 
L 28.278887 26.106399 
L 28.182508 26.507691 
L 28.086128 26.908983 
L 27.989748 27.310276 
L 27.893368 27.711568 
L 27.796989 28.11286 
L 27.700609 28.514152 
L 27.604229 28.915445 
" style="fill:none;stroke:#000000;stroke-linecap:square;stroke-width:0.4;"/>
   </g>
   <g id="line2d_16">
    <path clip-path="url(#pd58dba3f00)" d="M 25.562257 29.977431 
L 25.562257 30.319517 
L 25.562257 30.661604 
L 25.562257 31.00369 
L 25.562257 31.345777 
L 25.562257 31.687863 
L 25.562257 32.029949 
L 25.562257 32.372036 
L 25.562257 32.714122 
L 25.720495 33.117465 
L 25.878734 33.520809 
L 26.036973 33.924152 
L 26.195211 34.327495 
L 26.35345 34.730838 
L 26.511689 35.134181 
L 26.669927 35.537524 
L 26.828166 35.940867 
L 26.965976 36.221697 
L 27.103786 36.502527 
L 27.241597 36.783357 
L 27.379407 37.064186 
L 27.517217 37.345016 
L 27.655027 37.625846 
L 27.792837 37.906676 
L 27.930648 38.187506 
L 27.935564 38.500612 
L 27.940479 38.813719 
L 27.945395 39.126825 
L 27.950311 39.439932 
L 27.955227 39.753038 
L 27.960143 40.066145 
L 27.965059 40.379251 
L 27.969975 40.692358 
L 27.975273 41.032757 
L 27.980572 41.373157 
L 27.98587 41.713557 
L 27.991168 42.053957 
L 27.996467 42.394357 
L 28.001765 42.734756 
L 28.007063 43.075156 
L 28.012361 43.415556 
L 28.020036 43.811232 
L 28.02771 44.206909 
L 28.035384 44.602585 
L 28.043059 44.998262 
L 28.050733 45.393938 
L 28.058407 45.789615 
L 28.066082 46.185291 
L 28.073756 46.580967 
L 28.08143 46.976644 
L 28.089105 47.37232 
L 28.096779 47.767997 
L 28.104453 48.163673 
L 28.112128 48.55935 
L 28.119802 48.955026 
L 28.127476 49.350702 
L 28.135151 49.746379 
" style="fill:none;stroke:#000000;stroke-linecap:square;stroke-width:0.4;"/>
   </g>
   <g id="line2d_17">
    <path clip-path="url(#pd58dba3f00)" d="M 37.665084 32.902416 
L 37.530278 32.388596 
L 37.395472 31.874776 
L 37.218716 31.537903 
L 37.041961 31.20103 
L 36.823038 30.96528 
L 36.604114 30.72953 
L 36.385191 30.49378 
L 36.166268 30.258031 
L 35.901026 29.929591 
L 35.635783 29.601151 
L 35.370541 29.272711 
L 35.105299 28.944271 
L 34.781065 28.805275 
L 34.456832 28.666278 
L 34.132598 28.527282 
L 33.808365 28.388285 
L 33.38319 28.283022 
L 32.958016 28.177758 
L 32.532842 28.072495 
L 32.107668 27.967232 
L 31.619242 27.958799 
L 31.130816 27.950365 
L 30.64239 27.941932 
L 30.153964 27.933499 
L 29.589832 28.093579 
L 29.025701 28.253658 
L 28.670333 28.419105 
L 28.314965 28.584552 
L 27.959597 28.749998 
L 27.604229 28.915445 
L 27.093736 29.180941 
L 26.583243 29.446438 
L 26.07275 29.711934 
L 25.562257 29.977431 
L 25.089234 30.089671 
L 24.616211 30.201911 
L 24.143189 30.314151 
L 23.670166 30.42639 
L 23.371167 30.409524 
L 23.072169 30.392657 
L 22.773171 30.37579 
L 22.474172 30.358924 
L 22.124703 30.3337 
L 21.775235 30.308477 
L 21.425766 30.283254 
L 21.076297 30.258031 
L 20.663686 30.291687 
L 20.251075 30.325344 
L 19.838463 30.359 
L 19.425852 30.392657 
L 18.979485 30.636917 
L 18.533117 30.881177 
L 18.078447 31.015957 
L 17.623778 31.150737 
L 17.145948 31.122677 
L 16.668119 31.094617 
L 16.239012 30.904023 
L 15.809905 30.71343 
L 15.398058 30.404464 
L 14.986212 30.095497 
L 14.699121 29.880064 
L 14.41203 29.664631 
L 14.054477 29.267344 
L 13.696924 28.870058 
L 13.339372 28.472772 
L 12.981819 28.075485 
" style="fill:none;stroke:#008000;stroke-linecap:square;stroke-width:0.4;"/>
   </g>
   <g id="line2d_18">
    <path clip-path="url(#pd58dba3f00)" d="M 17.623778 31.150737 
L 17.718601 31.533993 
L 17.813424 31.91725 
L 17.908247 32.300506 
L 18.00307 32.683762 
L 18.201674 32.945962 
L 18.400278 33.208162 
L 18.598882 33.470362 
L 18.797486 33.732562 
L 19.242324 33.843805 
L 19.687162 33.955048 
L 20.132 34.066292 
L 20.576838 34.177535 
L 20.989995 34.455605 
L 21.403153 34.733675 
L 21.81631 35.011744 
L 22.229468 35.289814 
L 22.507491 35.623544 
L 22.785515 35.957274 
L 23.063539 36.291004 
L 23.341563 36.624733 
L 23.611721 36.958387 
L 23.881879 37.29204 
L 24.152037 37.625693 
L 24.422196 37.959346 
L 24.865668 38.300972 
L 25.30914 38.642599 
L 25.752613 38.984225 
L 26.196085 39.325852 
L 26.639558 39.667478 
L 27.08303 40.009105 
L 27.526503 40.350731 
L 27.969975 40.692358 
" style="fill:none;stroke:#4169e1;stroke-linecap:square;stroke-width:0.4;"/>
   </g>
   <g id="line2d_19">
    <path clip-path="url(#pd58dba3f00)" d="M 18.352648 35.130961 
L 18.527409 35.486502 
L 18.702171 35.842044 
L 18.876933 36.197585 
L 19.051694 36.553127 
L 19.226456 36.908668 
L 19.401218 37.26421 
L 19.57598 37.619751 
L 19.750741 37.975293 
L 19.925503 38.330834 
L 20.100265 38.686375 
L 20.275026 39.041917 
L 20.449788 39.397458 
L 20.62455 39.753 
L 20.799311 40.108541 
L 20.974073 40.464083 
L 21.148835 40.819624 
L 21.295821 41.359894 
L 21.442808 41.900164 
L 21.589795 42.440433 
L 21.736781 42.980703 
L 21.883768 43.520973 
L 22.030754 44.061242 
L 22.177741 44.601512 
L 22.324728 45.141782 
L 22.578936 45.666181 
L 22.833145 46.190581 
L 23.087354 46.714981 
L 23.341563 47.23938 
L 23.558055 47.503554 
L 23.774548 47.767728 
L 23.99104 48.031902 
L 24.207533 48.296076 
L 24.424025 48.56025 
L 24.640518 48.824424 
L 24.85701 49.088598 
L 25.073503 49.352772 
L 25.289996 49.616946 
L 25.506488 49.88112 
L 25.722981 50.145294 
L 25.939473 50.409468 
L 26.155966 50.673642 
L 26.372458 50.937816 
L 26.588951 51.201991 
L 26.805443 51.466165 
" style="fill:none;stroke:#4169e1;stroke-linecap:square;stroke-width:0.4;"/>
   </g>
   <g id="line2d_20">
    <path clip-path="url(#pd58dba3f00)" d="M 25.184713 44.665222 
L 25.284015 44.947278 
L 25.383317 45.229335 
L 25.482619 45.511391 
L 25.581921 45.793448 
L 25.681223 46.075504 
L 25.780525 46.357561 
L 25.879826 46.639617 
L 25.979128 46.921674 
L 26.07843 47.20373 
L 26.177732 47.485787 
L 26.277034 47.767843 
L 26.376336 48.0499 
L 26.475638 48.331956 
L 26.57494 48.614013 
L 26.674242 48.896069 
L 26.773544 49.178126 
" style="fill:none;stroke:#000000;stroke-linecap:square;stroke-width:0.4;"/>
   </g>
   <g id="line2d_21">
    <path clip-path="url(#pd58dba3f00)" d="M 14.984027 38.722025 
L 14.896632 39.143155 
L 14.809238 39.564285 
L 14.721843 39.985415 
L 14.634449 40.406544 
L 14.547054 40.827674 
L 14.45966 41.248804 
L 14.372265 41.669934 
L 14.284871 42.091063 
L 14.272909 42.496247 
L 14.260947 42.90143 
L 14.248984 43.306613 
L 14.237022 43.711796 
L 14.22506 44.116979 
L 14.213098 44.522162 
L 14.201136 44.927345 
L 14.189174 45.332528 
L 14.228938 45.920484 
L 14.268703 46.508441 
L 14.308467 47.096397 
L 14.348232 47.684353 
L 14.472332 48.23298 
L 14.596432 48.781606 
L 14.720532 49.330232 
L 14.844633 49.878859 
L 14.968733 50.427485 
L 15.092833 50.976111 
L 15.216933 51.524738 
L 15.341033 52.073364 
" style="fill:none;stroke:#4169e1;stroke-linecap:square;stroke-width:0.4;"/>
   </g>
   <g id="line2d_22">
    <path clip-path="url(#pd58dba3f00)" d="M 16.668119 31.094617 
L 16.541014 31.432295 
L 16.41391 31.769973 
L 16.286806 32.107651 
L 16.159701 32.445329 
L 16.032597 32.783007 
L 15.905493 33.120685 
L 15.778388 33.458364 
L 15.651284 33.796042 
L 15.46852 34.213185 
L 15.285756 34.630328 
L 15.102993 35.047471 
L 14.920229 35.464614 
L 14.737465 35.881757 
L 14.554701 36.2989 
L 14.371938 36.716043 
L 14.189174 37.133186 
L 13.942885 37.454956 
L 13.696597 37.776726 
L 13.450308 38.098496 
L 13.204019 38.420266 
L 12.957731 38.742035 
L 12.711442 39.063805 
L 12.465154 39.385575 
L 12.218865 39.707345 
L 11.885236 40.104631 
L 11.551608 40.501918 
L 11.217979 40.899204 
L 10.884351 41.296491 
L 10.781062 41.669895 
L 10.677772 42.0433 
L 10.574483 42.416705 
L 10.471193 42.79011 
L 10.367904 43.163514 
L 10.264615 43.536919 
L 10.161325 43.910324 
L 10.058036 44.283729 
L 9.843483 44.808128 
L 9.628929 45.332528 
L 9.414376 45.856928 
L 9.199822 46.381328 
L 9.186604 46.931104 
L 9.173385 47.48088 
L 9.160167 48.030657 
L 9.146948 48.580433 
" style="fill:none;stroke:#4169e1;stroke-linecap:square;stroke-width:0.4;"/>
   </g>
   <g id="line2d_23">
    <path clip-path="url(#pd58dba3f00)" d="M 12.981819 28.075485 
L 12.650157 28.441645 
L 12.4332 28.680385 
L 12.216243 28.919125 
L 12.11858 29.320704 
L 12.020916 29.722284 
L 12.020916 30.178144 
L 12.020916 30.634004 
L 12.020916 31.089863 
L 12.020916 31.545723 
L 11.955698 31.925606 
L 11.89048 32.305489 
L 11.825262 32.685372 
L 11.760044 33.065256 
L 11.602734 33.428885 
L 11.445424 33.792515 
L 11.288114 34.156145 
L 11.130803 34.519775 
L 10.859444 34.959304 
L 10.588084 35.398834 
L 10.316724 35.838364 
L 10.045364 36.277894 
L 9.953163 36.652333 
L 9.860961 37.026773 
L 9.76876 37.401213 
L 9.676559 37.775653 
L 9.535417 38.036166 
L 9.394275 38.296679 
L 9.253133 38.557192 
L 9.111991 38.817705 
L 8.721337 39.246425 
L 8.330684 39.675145 
L 7.94003 40.103865 
L 7.549377 40.532584 
L 7.386495 40.988444 
L 7.223614 41.444304 
L 7.060732 41.900164 
L 6.897851 42.356023 
L 6.729617 42.611055 
L 6.561382 42.866086 
L 6.393148 43.121118 
L 6.224913 43.376149 
L 6.056679 43.631181 
L 5.888445 43.886212 
L 5.72021 44.141244 
L 5.551976 44.396275 
L 5.277939 44.692055 
L 5.003903 44.987835 
L 4.729867 45.283615 
L 4.45583 45.579395 
L 4.181794 45.875175 
L 3.907758 46.170954 
L 3.633721 46.466734 
L 3.359685 46.762514 
L 3.272727 47.261767 
L 3.533381 47.478734 
L 3.794035 47.6957 
L 4.285138 47.80426 
L 4.77624 47.91282 
L 5.267343 48.02138 
L 5.758445 48.12994 
L 6.249548 48.2385 
L 6.74065 48.34706 
L 7.231753 48.45562 
L 7.722855 48.56418 
L 8.078878 48.568243 
L 8.434902 48.572306 
L 8.790925 48.57637 
L 9.146948 48.580433 
L 9.444308 48.648206 
L 9.741668 48.715979 
L 9.975011 48.916769 
L 10.208355 49.117559 
L 10.441698 49.318349 
L 10.675041 49.519139 
L 11.014186 49.662966 
L 11.353332 49.806792 
L 11.692477 49.950619 
L 12.031622 50.094445 
L 12.370768 50.238272 
L 12.709913 50.382098 
L 13.049058 50.525925 
L 13.388203 50.669752 
L 13.789781 50.973658 
L 14.191359 51.277565 
L 14.592936 51.581471 
L 14.994514 51.885378 
L 15.341033 52.073364 
L 15.682964 52.258782 
L 16.024895 52.444201 
L 16.366826 52.629619 
L 16.708757 52.815037 
L 17.050688 53.000455 
L 17.392619 53.185873 
L 17.73455 53.371292 
L 18.076481 53.55671 
L 18.483521 53.627243 
L 18.890561 53.697777 
L 19.297601 53.76831 
L 19.704641 53.838843 
L 20.17668 53.762866 
L 20.64872 53.68689 
L 21.120759 53.610913 
L 21.592799 53.534937 
L 22.168073 53.56752 
L 22.743347 53.600103 
L 23.318622 53.632687 
L 23.893896 53.66527 
L 24.306289 53.535013 
L 24.718681 53.404757 
L 25.131074 53.2745 
L 25.543467 53.144244 
" style="fill:none;stroke:#008000;stroke-linecap:square;stroke-width:0.4;"/>
   </g>
   <g id="line2d_24">
    <path clip-path="url(#pd58dba3f00)" d="M 38.487903 16.213012 
L 38.212392 16.336906 
L 37.936881 16.460799 
L 38.031704 16.745999 
L 38.459172 16.969252 
L 38.88664 17.192505 
L 39.314109 17.415758 
L 39.741577 17.639011 
L 39.983878 17.938318 
L 40.226179 18.237624 
L 40.468481 18.536931 
L 40.710782 18.836237 
L 40.948276 19.073751 
L 41.185771 19.311264 
L 41.423266 19.548777 
L 41.66076 19.78629 
L 41.7936 20.128223 
L 41.508694 20.261317 
L 41.033705 20.133053 
L 40.558715 20.00479 
L 40.083726 19.876527 
L 39.608737 19.748264 
L 39.133748 19.62 
L 38.658759 19.491737 
L 38.18377 19.363474 
L 37.708781 19.23521 
L 37.148364 19.216197 
L 36.587946 19.197184 
L 36.188991 19.197184 
L 36.265024 19.444357 
L 36.806433 19.65335 
L 37.347842 19.862343 
L 37.604344 20.13313 
L 37.860847 20.403916 
L 38.11735 20.674703 
L 38.373853 20.945489 
L 38.587259 21.215663 
L 38.800666 21.485836 
L 39.014072 21.756009 
L 39.227479 22.026182 
L 39.440885 22.296355 
L 39.654292 22.566528 
L 39.867698 22.836702 
L 40.081105 23.106875 
L 40.425657 23.491741 
L 40.77021 23.876608 
L 41.074561 24.157974 
L 41.378913 24.439341 
L 41.57992 24.657687 
L 41.780927 24.876034 
L 41.746407 25.186074 
L 41.585601 25.28942 
L 41.276907 25.137218 
L 40.968213 24.985015 
L 40.65952 24.832813 
L 40.350826 24.680611 
L 40.042132 24.528408 
L 39.733438 24.376206 
L 39.424745 24.224003 
L 39.116051 24.071801 
L 38.807357 23.919599 
L 38.498663 23.767396 
L 38.18997 23.615194 
L 37.881276 23.462991 
L 37.572582 23.310789 
L 37.263888 23.158586 
L 36.955195 23.006384 
L 36.646501 22.854182 
L 36.266717 22.827597 
L 35.886933 22.801013 
L 35.50715 22.774429 
L 35.127366 22.747845 
L 34.747582 22.721261 
L 34.367799 22.694677 
L 33.988015 22.668093 
L 33.608231 22.641508 
L 33.228447 22.614924 
L 32.848664 22.58834 
L 32.46888 22.561756 
L 32.089096 22.535172 
L 31.709313 22.508588 
L 31.329529 22.482004 
L 30.949745 22.455419 
L 30.569961 22.428835 
L 30.214047 22.445319 
L 29.858133 22.461802 
L 29.502219 22.478285 
L 29.146305 22.494769 
L 28.623249 22.433129 
L 28.100193 22.371489 
L 27.792947 22.239392 
L 27.4857 22.107295 
L 27.178454 21.975199 
L 26.871208 21.843102 
L 26.563962 21.711006 
L 26.256715 21.578909 
L 25.949469 21.446812 
L 25.642223 21.314716 
L 25.266918 21.047648 
L 24.891613 20.78058 
L 24.516308 20.513511 
L 24.141004 20.246443 
L 23.765699 19.979375 
L 23.390394 19.712307 
L 23.01509 19.445239 
L 22.639785 19.178171 
" style="fill:none;stroke:#4169e1;stroke-linecap:square;stroke-width:0.4;"/>
   </g>
   <g id="line2d_25">
    <path clip-path="url(#pd58dba3f00)" d="M 27.817909 57.526508 
L 27.629574 58.04487 
L 27.441238 58.563232 
L 27.252903 59.081594 
L 27.064568 59.599956 
L 26.876233 60.118318 
L 26.687898 60.636681 
L 26.499563 61.155043 
L 26.311228 61.673405 
L 26.122892 62.191767 
L 25.934557 62.710129 
L 25.746222 63.228492 
L 25.557887 63.746854 
L 25.369552 64.265216 
L 25.181217 64.783578 
L 24.992882 65.30194 
L 24.804546 65.820303 
" style="fill:none;stroke:#008000;stroke-linecap:square;stroke-width:0.4;"/>
   </g>
  </g>
 </g>
 <defs>
  <clipPath id="pd58dba3f00">
   <rect height="68.954603" width="72" x="0" y="0"/>
  </clipPath>
 </defs>
</svg>
