<?xml version="1.0" encoding="utf-8" standalone="no"?>
<!DOCTYPE svg PUBLIC "-//W3C//DTD SVG 1.1//EN"
  "http://www.w3.org/Graphics/SVG/1.1/DTD/svg11.dtd">
<svg height="36.591024pt" version="1.1" viewBox="0 0 72 36.591024" width="72pt" xmlns="http://www.w3.org/2000/svg" xmlns:xlink="http://www.w3.org/1999/xlink">
 <metadata>
  <rdf:RDF xmlns:cc="http://creativecommons.org/ns#" xmlns:dc="http://purl.org/dc/elements/1.1/" xmlns:rdf="http://www.w3.org/1999/02/22-rdf-syntax-ns#">
   <cc:Work>
    <dc:type rdf:resource="http://purl.org/dc/dcmitype/StillImage"/>
    <dc:date>2022-05-22T20:00:46.822384</dc:date>
    <dc:format>image/svg+xml</dc:format>
    <dc:creator>
     <cc:Agent>
      <dc:title>Matplotlib v3.4.3, https://matplotlib.org/</dc:title>
     </cc:Agent>
    </dc:creator>
   </cc:Work>
  </rdf:RDF>
 </metadata>
 <defs>
  <style type="text/css">*{stroke-linecap:butt;stroke-linejoin:round;}</style>
 </defs>
 <g id="figure_1">
  <g id="patch_1">
   <path d="M 0 36.591024 
L 72 36.591024 
L 72 0 
L 0 0 
z
" style="fill:#ffffff;"/>
  </g>
  <g id="axes_1">
   <g id="line2d_1">
    <path clip-path="url(#p1f6f2795ad)" d="M 66.489295 25.960964 
L 65.763805 25.165759 
L 65.038315 24.370554 
" style="fill:none;stroke:#808080;stroke-linecap:square;stroke-width:0.4;"/>
   </g>
   <g id="line2d_2">
    <path clip-path="url(#p1f6f2795ad)" d="M 68.287375 25.60748 
L 67.82014 24.067336 
L 67.558287 23.203488 
L 67.296435 22.33964 
L 66.952393 21.204192 
L 66.608352 20.068745 
L 66.192553 18.69602 
L 65.776754 17.323295 
L 65.351603 15.920302 
L 64.926452 14.517309 
L 64.528637 13.204308 
L 64.130822 11.891308 
L 63.710707 10.504395 
L 63.335193 9.263956 
" style="fill:none;stroke:#808080;stroke-linecap:square;stroke-width:0.4;"/>
   </g>
   <g id="line2d_3">
    <path clip-path="url(#p1f6f2795ad)" d="M 67.479875 26.534971 
L 67.028108 25.330475 
L 66.70295 24.462168 
L 66.377792 23.593861 
L 66.030693 22.667045 
L 65.683595 21.740229 
L 65.339553 20.821521 
L 64.995512 19.902813 
L 64.651291 18.983969 
L 64.307069 18.065126 
L 63.853143 16.852928 
L 63.399217 15.64073 
L 62.880907 14.255168 
" style="fill:none;stroke:#808080;stroke-linecap:square;stroke-width:0.4;"/>
   </g>
   <g id="line2d_4">
    <path clip-path="url(#p1f6f2795ad)" d="M 60.313096 25.960964 
L 59.978227 25.42263 
L 59.208135 24.183542 
L 58.66141 23.304155 
L 58.150653 22.482331 
L 57.527674 21.47998 
L 56.904695 20.47763 
L 56.140178 19.247731 
L 55.375662 18.017832 
L 54.542265 16.677402 
L 53.893748 15.634244 
L 53.456368 14.930518 
L 53.168258 14.467042 
L 52.702103 13.717172 
L 52.235947 12.967301 
L 51.769792 12.21743 
L 51.303636 11.467559 
L 50.616633 10.362109 
L 49.929629 9.256659 
L 49.248021 8.160128 
L 48.566412 7.063596 
L 47.836966 5.890449 
L 47.006087 4.553532 
L 46.193552 3.246342 
L 45.783868 2.586126 
" style="fill:none;stroke:#808080;stroke-linecap:square;stroke-width:0.4;"/>
   </g>
   <g id="line2d_5">
    <path clip-path="url(#p1f6f2795ad)" d="M 37.994109 21.895082 
L 37.049839 21.35918 
L 36.105568 20.823278 
L 35.161298 20.287376 
L 34.217028 19.751474 
L 32.991302 19.055416 
L 31.765575 18.359358 
L 30.539849 17.6633 
L 29.314123 16.967243 
L 28.088397 16.271185 
L 26.862671 15.575127 
L 25.636945 14.879069 
L 24.411219 14.183012 
L 23.237288 13.516377 
L 22.063357 12.849743 
L 20.889426 12.183108 
L 19.715495 11.516474 
L 18.48869 10.819842 
L 17.261885 10.12321 
L 16.03508 9.426578 
L 14.808274 8.729946 
L 13.84557 8.183234 
L 12.882866 7.636522 
L 11.920161 7.08981 
L 10.957457 6.543098 
L 9.730562 5.846466 
L 8.503667 5.149834 
L 7.276772 4.453202 
L 6.049877 3.75657 
L 4.713637 2.996632 
L 3.377396 2.236695 
" style="fill:none;stroke:#808080;stroke-linecap:square;stroke-width:0.4;"/>
   </g>
   <g id="line2d_6">
    <path clip-path="url(#p1f6f2795ad)" d="M 62.552872 10.031461 
L 62.64711 10.343124 
L 62.741349 10.654788 
L 62.835587 10.966451 
L 62.929825 11.278115 
L 63.089257 11.691324 
L 63.248688 12.104534 
L 63.40812 12.517743 
L 63.567551 12.930952 
L 63.677076 13.225252 
L 63.786601 13.519553 
L 63.908895 13.84858 
L 64.031189 14.177607 
L 64.107308 14.438565 
L 64.183427 14.699523 
L 64.259546 14.960482 
L 64.335665 15.22144 
L 64.411784 15.482398 
L 64.487903 15.743357 
L 64.564021 16.004315 
L 64.64014 16.265273 
L 64.734289 16.729154 
L 64.828437 17.193035 
L 64.922585 17.656916 
L 65.016733 18.120797 
L 65.118255 18.534006 
L 65.219777 18.947215 
L 65.321299 19.360425 
L 65.422821 19.773634 
L 65.640162 20.150563 
L 65.857504 20.527491 
L 66.074845 20.90442 
L 66.292186 21.281348 
L 66.422618 21.669154 
L 66.55305 22.05696 
L 66.683482 22.444766 
L 66.813914 22.832572 
L 66.944345 23.220378 
L 67.074777 23.608184 
L 67.205209 23.99599 
L 67.335641 24.383796 
L 67.41176 24.633843 
L 67.487879 24.88389 
L 67.563997 25.133937 
L 67.640116 25.383984 
L 67.716235 25.634031 
L 67.792354 25.884079 
L 67.868473 26.134126 
L 67.944592 26.384173 
" style="fill:none;stroke:#008000;stroke-linecap:square;stroke-width:0.4;"/>
   </g>
   <g id="line2d_7">
    <path clip-path="url(#p1f6f2795ad)" d="M 62.437053 14.293543 
L 62.480485 14.677701 
L 62.523917 15.061859 
L 62.56735 15.446016 
L 62.610782 15.830174 
L 62.654259 16.149134 
L 62.697736 16.468094 
L 62.741214 16.787055 
L 62.784691 17.106015 
L 62.828168 17.424975 
L 62.871645 17.743936 
L 62.915123 18.062896 
L 62.9586 18.381856 
L 62.902848 18.754056 
L 62.847097 19.126255 
L 62.791345 19.498454 
L 62.735594 19.870653 
L 62.697826 20.121443 
L 62.599002 20.39061 
L 62.500178 20.659778 
L 62.401354 20.928945 
L 62.302529 21.198112 
L 62.203705 21.467279 
L 62.104881 21.736446 
L 62.006057 22.005613 
L 61.907233 22.27478 
L 61.780802 22.618806 
L 61.654372 22.962832 
L 61.502943 23.307939 
L 61.39144 23.562006 
L 61.279937 23.816073 
L 61.168434 24.07014 
L 61.056931 24.324207 
L 60.945427 24.578274 
L 60.833924 24.83234 
L 60.722421 25.086407 
L 60.610918 25.340474 
" style="fill:none;stroke:#4169e1;stroke-linecap:square;stroke-width:0.4;"/>
   </g>
   <g id="line2d_8">
    <path clip-path="url(#p1f6f2795ad)" d="M 63.944504 9.016679 
L 64.234323 9.364623 
L 64.524141 9.712568 
L 64.813959 10.060512 
L 65.103778 10.408457 
L 65.266851 10.669381 
L 65.429925 10.930306 
L 65.592998 11.19123 
L 65.756072 11.452155 
L 65.919145 11.713079 
L 66.082219 11.974004 
L 66.245292 12.234928 
L 66.408366 12.495853 
L 66.553275 12.869167 
L 66.698184 13.242481 
L 66.843093 13.615795 
L 66.988002 13.989109 
L 67.132912 14.362423 
L 67.277821 14.735737 
L 67.42273 15.109051 
L 67.567639 15.482365 
L 67.665474 15.899155 
L 67.763309 16.315945 
L 67.861145 16.732735 
L 67.95898 17.149525 
L 68.056815 17.566315 
L 68.15465 17.983105 
L 68.252485 18.399895 
L 68.35032 18.816686 
L 68.357559 19.171859 
L 68.364797 19.527033 
L 68.372036 19.882206 
L 68.379275 20.23738 
L 68.386514 20.592553 
L 68.393752 20.947727 
L 68.400991 21.3029 
L 68.40823 21.658074 
L 68.44811 22.125637 
L 68.48799 22.5932 
L 68.527871 23.060763 
L 68.567751 23.528326 
L 68.607632 23.995889 
L 68.647512 24.463452 
L 68.687392 24.931015 
L 68.727273 25.398578 
" style="fill:none;stroke:#008000;stroke-linecap:square;stroke-width:0.4;"/>
   </g>
   <g id="line2d_9">
    <path clip-path="url(#p1f6f2795ad)" d="M 45.218079 2.521807 
L 44.464173 2.869886 
L 43.805405 3.76211 
L 43.681492 3.971688 
L 42.231951 4.46435 
L 42.29022 5.160239 
L 43.116153 5.450215 
L 44.638262 5.537235 
L 46.551441 6.69714 
L 46.580576 7.016032 
L 46.319443 7.276822 
L 43.391584 8.378623 
L 42.203176 8.059866 
L 41.348018 8.016356 
L 40.927723 8.030814 
L 40.086773 8.349707 
L 39.913043 8.871556 
L 40.318771 9.132615 
L 41.420495 9.335572 
L 42.014699 10.292385 
L 42.261085 11.10421 
L 42.34813 11.539175 
L 42.318995 12.00292 
L 42.608903 12.611789 
L 43.24663 13.133909 
L 44.058445 13.452801 
L 44.725306 13.452801 
L 45.94267 13.090264 
L 46.348577 13.017702 
L 46.986304 13.307678 
L 47.305347 13.626841 
L 47.826894 13.800611 
L 53.102795 13.742778 
L 53.508882 13.742778 
L 54.001655 13.452801 
L 55.247973 11.886984 
L 56.378471 11.626195 
L 58.103264 11.568159 
L 59.451284 11.394051 
L 62.408098 8.842639 
L 62.726961 8.726703 
L 63.712506 8.900607 
L 63.944504 9.016679 
L 63.85746 9.480425 
L 63.277643 9.915524 
L 62.552872 10.031461 
L 62.552872 10.031461 
" style="fill:none;stroke:#4169e1;stroke-linecap:square;stroke-width:0.4;"/>
   </g>
   <g id="line2d_10">
    <path clip-path="url(#p1f6f2795ad)" d="M 46.464397 2.608826 
L 46.747112 2.949542 
L 47.029826 3.290257 
L 47.312541 3.630972 
L 47.595255 3.971688 
L 47.834358 4.363074 
L 48.07346 4.754461 
L 48.312563 5.145848 
L 48.551665 5.537235 
L 48.7075 5.823563 
L 48.863335 6.10989 
L 49.019169 6.396218 
L 49.175004 6.682546 
L 49.330839 6.968874 
L 49.486674 7.255202 
L 49.642508 7.54153 
L 49.798343 7.827858 
L 49.979491 8.077938 
L 50.160639 8.328019 
L 50.341786 8.5781 
L 50.522934 8.828181 
L 50.704082 9.078262 
L 50.88523 9.328343 
L 51.066377 9.578423 
L 51.247525 9.828504 
L 51.468598 10.118447 
L 51.689671 10.408389 
L 51.910744 10.698331 
L 52.131818 10.988274 
L 52.352891 11.278216 
L 52.573964 11.568159 
L 52.795037 11.858101 
L 53.01611 12.148044 
L 53.231923 12.575846 
L 53.374314 12.858154 
L 53.516705 13.140462 
L 53.659097 13.42277 
L 53.801488 13.705078 
L 53.94388 13.987386 
L 54.086271 14.269694 
L 54.228663 14.552002 
L 54.371054 14.83431 
L 54.505217 15.100369 
L 54.639381 15.366428 
L 54.829926 15.627758 
L 55.02047 15.889088 
L 55.211015 16.150418 
L 55.401559 16.411748 
L 55.592104 16.673078 
L 55.782649 16.934408 
L 55.973193 17.195737 
L 56.163738 17.457067 
L 56.367591 17.736571 
L 56.571444 18.016076 
L 56.775297 18.29558 
L 56.97915 18.575084 
L 57.215105 18.898841 
L 57.45106 19.222598 
L 57.614134 19.450924 
L 57.777207 19.67925 
L 57.940281 19.907576 
L 58.103354 20.135902 
L 58.266428 20.364227 
L 58.429501 20.592553 
L 58.592575 20.820879 
L 58.755648 21.049205 
L 58.875199 21.302934 
L 58.994751 21.556663 
L 59.114302 21.810393 
L 59.233853 22.064122 
L 59.353404 22.317851 
L 59.472955 22.57158 
L 59.592507 22.825309 
L 59.712058 23.079038 
L 59.795416 23.332734 
L 59.878773 23.586429 
L 59.962131 23.840125 
L 60.045489 24.09382 
L 60.128846 24.347515 
L 60.212204 24.601211 
L 60.295561 24.854906 
L 60.378919 25.108602 
" style="fill:none;stroke:#000000;stroke-linecap:square;stroke-width:0.4;"/>
   </g>
   <g id="line2d_11">
    <path clip-path="url(#p1f6f2795ad)" d="M 43.929317 3.552533 
L 43.896406 3.860278 
L 43.863494 4.168023 
L 43.830583 4.475768 
L 43.797672 4.783513 
L 43.841104 5.044437 
L 43.884536 5.305362 
L 43.927969 5.566286 
L 43.971401 5.827211 
L 43.971401 6.247582 
L 43.971401 6.667953 
L 44.027872 6.794159 
L 44.160237 7.090486 
L 44.292602 7.386813 
L 44.424967 7.68314 
L 44.557332 7.979467 
L 44.769638 8.245999 
L 44.981944 8.512531 
L 45.194249 8.779063 
L 45.406555 9.045596 
L 45.862999 9.190584 
L 46.319443 9.335572 
L 46.674634 9.444279 
L 47.029826 9.552986 
L 47.385018 9.661694 
L 47.740209 9.770401 
L 47.950357 9.908126 
L 48.160505 10.045851 
L 48.370652 10.183576 
L 48.5808 10.321302 
L 48.790947 10.459027 
L 49.001095 10.596752 
L 49.211243 10.734477 
L 49.42139 10.872202 
L 49.769298 11.162179 
L 50.117206 11.452155 
L 50.465114 11.742131 
L 50.813022 12.032107 
L 51.015706 12.464301 
L 51.21839 12.896496 
L 51.421075 13.32869 
L 51.623759 13.760884 
" style="fill:none;stroke:#000000;stroke-linecap:square;stroke-width:0.4;"/>
   </g>
   <g id="line2d_12">
    <path clip-path="url(#p1f6f2795ad)" d="M 44.027872 6.794159 
L 43.854682 7.136968 
L 43.681492 7.479778 
L 43.572867 7.813264 
L 43.464241 8.14675 
L 43.406151 8.574418 
L 43.348062 9.002086 
L 43.464061 9.386243 
L 43.580061 9.770401 
L 43.732298 10.027745 
L 43.884536 10.285088 
L 44.036774 10.542432 
L 44.189012 10.799776 
L 44.333966 11.046242 
L 44.47892 11.292708 
L 44.623874 11.539175 
L 44.768829 11.785641 
L 45.029602 12.184257 
L 45.290376 12.582873 
L 45.479752 12.890956 
L 45.669127 13.199038 
L 45.864348 13.516175 
L 46.059568 13.833311 
L 46.254789 14.150447 
L 46.450009 14.467583 
L 46.580396 14.917006 
L 46.710783 15.366428 
L 46.949975 15.685321 
L 47.189168 16.004214 
L 47.522598 16.20717 
L 47.856029 16.410126 
L 48.232802 16.453636 
L 48.609575 16.497146 
L 48.97196 16.613083 
L 49.334346 16.729019 
L 49.563107 16.833875 
L 49.796724 16.941029 
L 50.030342 17.048182 
L 50.392547 17.236545 
L 50.754753 17.424908 
L 51.160661 17.468418 
L 51.566568 17.511928 
L 52.015908 17.540912 
L 52.465248 17.569896 
L 52.914588 17.59888 
L 53.363928 17.627864 
L 53.769656 17.511928 
L 54.175384 17.395991 
L 54.501531 17.424975 
L 54.827678 17.45396 
L 55.153824 17.482944 
L 55.479971 17.511928 
L 55.821855 17.484498 
L 56.163738 17.457067 
" style="fill:none;stroke:#000000;stroke-linecap:square;stroke-width:0.4;"/>
   </g>
   <g id="line2d_13">
    <path clip-path="url(#p1f6f2795ad)" d="M 45.406555 9.045596 
L 45.413749 9.422456 
L 45.420943 9.799317 
L 45.500703 10.06031 
L 45.580464 10.321302 
L 45.660225 10.582294 
L 45.739986 10.843286 
L 45.790702 11.118736 
L 45.841418 11.394187 
L 45.892134 11.669637 
L 45.94285 11.945087 
L 46.203713 12.285735 
L 46.464577 12.626383 
L 46.72544 12.96703 
L 46.986304 13.307678 
L 47.138542 13.648393 
L 47.29078 13.989109 
L 47.443017 14.329824 
L 47.595255 14.670539 
L 47.660449 15.105436 
L 47.725642 15.540333 
L 47.790836 15.97523 
L 47.856029 16.410126 
" style="fill:none;stroke:#ff0000;stroke-linecap:square;stroke-width:0.4;"/>
   </g>
   <g id="line2d_14">
    <path clip-path="url(#p1f6f2795ad)" d="M 47.740209 9.770401 
L 47.81988 10.009638 
L 47.899551 10.248875 
L 47.979222 10.488112 
L 48.058893 10.727349 
L 48.232802 11.031784 
L 48.406711 11.336218 
L 48.544471 11.568159 
L 48.682232 11.800099 
L 48.819992 12.03204 
L 48.957753 12.26398 
L 49.182378 12.49592 
L 49.407003 12.727861 
L 49.631628 12.959801 
L 49.856253 13.191742 
L 49.957685 13.481718 
L 50.059117 13.771694 
" style="fill:none;stroke:#000000;stroke-linecap:square;stroke-width:0.4;"/>
   </g>
   <g id="line2d_15">
    <path clip-path="url(#p1f6f2795ad)" d="M 47.740209 9.770401 
L 47.68221 10.089361 
L 47.62421 10.408322 
L 47.566211 10.727282 
L 47.508211 11.046242 
L 47.508211 11.307167 
L 47.508211 11.568091 
L 47.508211 11.829016 
L 47.508211 12.08994 
L 47.377734 12.394375 
L 47.247257 12.698809 
L 47.116781 13.003244 
L 46.986304 13.307678 
" style="fill:none;stroke:#4169e1;stroke-linecap:square;stroke-width:0.4;"/>
   </g>
   <g id="line2d_16">
    <path clip-path="url(#p1f6f2795ad)" d="M 48.754529 13.771694 
L 48.943005 14.047077 
L 49.131482 14.32246 
L 49.348913 14.713914 
L 49.566344 15.105368 
L 49.682344 15.569249 
L 49.798343 16.03313 
L 49.680725 16.433503 
L 49.563107 16.833875 
" style="fill:none;stroke:#4169e1;stroke-linecap:square;stroke-width:0.4;"/>
   </g>
   <g id="line2d_17">
    <path clip-path="url(#p1f6f2795ad)" d="M 45.246854 7.682734 
L 45.594852 7.929201 
L 45.94285 8.175667 
L 46.290668 8.262687 
L 46.638486 8.349707 
L 46.935588 8.422201 
L 47.23269 8.494695 
L 47.529792 8.567189 
L 47.826894 8.639683 
L 48.181996 8.74839 
L 48.537098 8.857097 
L 48.8922 8.965805 
L 49.247301 9.074512 
L 49.54809 9.349962 
L 49.848879 9.625413 
L 50.149668 9.900863 
L 50.450457 10.176314 
L 50.751246 10.451764 
L 51.052035 10.727214 
L 51.352824 11.002665 
L 51.653613 11.278115 
L 51.850901 11.440331 
L 52.04819 11.602548 
L 52.245479 11.764764 
L 52.442768 11.926981 
L 52.640056 12.089197 
L 52.837345 12.251413 
L 53.034634 12.41363 
L 53.231923 12.575846 
" style="fill:none;stroke:#000000;stroke-linecap:square;stroke-width:0.4;"/>
   </g>
   <g id="line2d_18">
    <path clip-path="url(#p1f6f2795ad)" d="M 46.928394 2.608826 
L 47.247257 2.913261 
L 47.566121 3.217695 
L 47.732836 3.435178 
L 47.899551 3.65266 
L 48.066266 3.870142 
L 48.232982 4.087624 
L 48.573606 4.261596 
L 48.91423 4.435568 
L 49.254855 4.609541 
L 49.595479 4.783513 
L 49.965058 5.008224 
L 50.334638 5.232935 
L 50.704217 5.457647 
L 51.073796 5.682358 
L 51.450659 5.885314 
L 51.827522 6.088271 
L 52.204385 6.291227 
L 52.581247 6.494183 
L 52.871066 6.718895 
L 53.160884 6.943606 
L 53.450703 7.168317 
L 53.740521 7.393028 
L 53.820282 7.84968 
L 53.900043 8.306332 
L 53.979804 8.762984 
L 54.059564 9.219635 
L 53.965326 9.502315 
L 53.871088 9.784994 
L 53.77685 10.067674 
L 53.682611 10.350353 
L 53.675418 10.647559 
L 53.668224 10.944764 
L 53.66103 11.241969 
L 53.653836 11.539175 
L 53.66103 11.785641 
L 53.668224 12.032107 
L 53.675418 12.278573 
L 53.682611 12.52504 
L 53.921804 12.80049 
L 54.160996 13.07594 
L 54.400189 13.351391 
L 54.639381 13.626841 
L 54.929289 13.757303 
L 55.219198 13.887766 
L 55.509106 14.018228 
L 55.799014 14.14869 
L 56.266429 14.275538 
L 56.733843 14.402386 
L 57.201257 14.529233 
L 57.668672 14.656081 
L 58.136086 14.782929 
L 58.6035 14.909776 
L 59.070914 15.036624 
L 59.538329 15.163472 
L 59.777476 15.304812 
L 60.016624 15.446151 
L 60.255771 15.587491 
L 60.494918 15.728831 
L 60.734066 15.870171 
L 60.973213 16.01151 
L 61.212361 16.15285 
L 61.451508 16.29419 
L 61.61094 16.685644 
L 61.770371 17.077099 
L 61.929803 17.468553 
L 62.089235 17.860007 
L 62.170029 18.111338 
L 62.250824 18.362669 
L 62.331619 18.613999 
L 62.412414 18.86533 
L 62.493209 19.116661 
L 62.574004 19.367992 
L 62.654799 19.619322 
L 62.735594 19.870653 
" style="fill:none;stroke:#000000;stroke-linecap:square;stroke-width:0.4;"/>
   </g>
   <g id="line2d_19">
    <path clip-path="url(#p1f6f2795ad)" d="M 54.371054 14.83431 
L 54.612045 14.887616 
L 54.853036 14.940923 
L 55.094026 14.994229 
L 55.335017 15.047535 
L 55.646687 15.279476 
L 55.958356 15.511416 
L 56.270026 15.743357 
L 56.581695 15.975297 
L 56.824439 16.1239 
L 57.067184 16.272502 
L 57.309928 16.421105 
L 57.552672 16.569708 
L 57.795417 16.71831 
L 58.038161 16.866913 
L 58.280905 17.015516 
L 58.523649 17.164118 
L 58.762842 17.417814 
L 59.002034 17.671509 
L 59.241227 17.925205 
L 59.480419 18.1789 
L 59.741283 18.468809 
L 60.002146 18.758717 
L 60.26301 19.048626 
L 60.523873 19.338535 
L 60.636186 19.581386 
L 60.748498 19.824238 
L 60.860811 20.06709 
L 60.973123 20.309941 
L 61.085436 20.552793 
L 61.197748 20.795645 
L 61.310061 21.038496 
L 61.422373 21.281348 
L 61.543588 21.529706 
L 61.664803 21.778064 
L 61.786018 22.026422 
L 61.907233 22.27478 
" style="fill:none;stroke:#000000;stroke-linecap:square;stroke-width:0.4;"/>
   </g>
   <g id="line2d_20">
    <path clip-path="url(#p1f6f2795ad)" d="M 56.97915 18.575084 
L 57.403582 18.768446 
L 57.828013 18.961809 
L 58.132399 19.179223 
L 58.436785 19.396638 
L 58.741171 19.614053 
L 59.045556 19.831467 
L 59.299136 20.077933 
L 59.552716 20.3244 
L 59.806296 20.570866 
L 60.059876 20.817332 
L 60.270114 21.128996 
L 60.480351 21.440659 
L 60.690589 21.752323 
L 60.900826 22.063987 
L 61.051355 22.374975 
L 61.201885 22.685963 
L 61.352414 22.996951 
L 61.502943 23.307939 
" style="fill:none;stroke:#4169e1;stroke-linecap:square;stroke-width:0.4;"/>
   </g>
   <g id="line2d_21">
    <path clip-path="url(#p1f6f2795ad)" d="M 47.68194 2.057791 
L 48.029848 2.130285 
L 48.377756 2.202779 
L 48.725664 2.275273 
L 49.073572 2.347767 
L 49.457629 2.463771 
L 49.841685 2.579775 
L 50.225742 2.695779 
L 50.609799 2.811783 
L 50.86711 2.935016 
L 51.124422 3.058249 
L 51.381734 3.181482 
L 51.639045 3.304715 
L 51.896357 3.427948 
L 52.153669 3.551182 
L 52.41098 3.674415 
L 52.668292 3.797648 
L 52.921872 4.036817 
L 53.175452 4.275987 
L 53.429032 4.515156 
L 53.682611 4.754326 
L 53.827566 5.087812 
L 53.97252 5.421298 
L 54.117474 5.754784 
L 54.262428 6.088271 
L 54.36386 6.341966 
L 54.465292 6.595661 
L 54.566724 6.849357 
L 54.668156 7.103052 
L 54.823991 7.302394 
L 54.979826 7.501736 
L 55.13566 7.701077 
L 55.291495 7.900419 
L 55.44733 8.099761 
L 55.603164 8.299103 
L 55.758999 8.498444 
L 55.914834 8.697786 
L 56.210587 8.820141 
L 56.50634 8.942496 
L 56.802094 9.064851 
L 57.097847 9.187206 
L 57.432537 9.325775 
L 57.767226 9.464345 
L 58.101916 9.602915 
L 58.436605 9.741484 
L 58.78811 9.890087 
L 59.139615 10.03869 
L 59.49112 10.187292 
L 59.842625 10.335895 
L 60.194129 10.484498 
L 60.545634 10.6331 
L 60.897139 10.781703 
L 61.248644 10.930306 
L 61.567507 11.241969 
L 61.886371 11.553633 
L 62.205234 11.865297 
L 62.524097 12.17696 
L 62.839723 12.512608 
L 63.155349 12.848256 
L 63.470975 13.183905 
L 63.786601 13.519553 
" style="fill:none;stroke:#000000;stroke-linecap:square;stroke-width:0.4;"/>
   </g>
   <g id="line2d_22">
    <path clip-path="url(#p1f6f2795ad)" d="M 56.378471 11.626195 
L 56.690141 11.814625 
L 57.00181 12.003056 
L 57.31348 12.191486 
L 57.625149 12.379916 
L 57.907774 12.611857 
L 58.190399 12.843797 
L 58.473023 13.075738 
L 58.755648 13.307678 
L 58.853483 13.539652 
L 58.951318 13.771627 
L 59.049153 14.003601 
L 59.146988 14.235575 
L 59.244823 14.467549 
L 59.342659 14.699523 
L 59.440494 14.931498 
L 59.538329 15.163472 
" style="fill:none;stroke:#4169e1;stroke-linecap:square;stroke-width:0.4;"/>
   </g>
   <g id="line2d_23">
    <path clip-path="url(#p1f6f2795ad)" d="M 59.451284 11.394051 
L 59.69767 11.655111 
L 59.944057 11.916171 
L 60.125249 12.169866 
L 60.306442 12.423562 
L 60.487635 12.677257 
L 60.668827 12.930952 
L 60.748498 13.300584 
L 60.828169 13.670216 
L 60.90784 14.039848 
L 60.987511 14.40948 
L 61.04551 14.663175 
L 61.10351 14.91687 
L 61.16151 15.170566 
L 61.219509 15.424261 
L 61.335509 15.859226 
L 61.451508 16.29419 
" style="fill:none;stroke:#4169e1;stroke-linecap:square;stroke-width:0.4;"/>
   </g>
   <g id="line2d_24">
    <path clip-path="url(#p1f6f2795ad)" d="M 57.097847 9.187206 
L 57.419408 8.942496 
L 57.740969 8.697786 
L 58.132309 8.596173 
L 58.523649 8.49456 
L 58.943945 8.443821 
L 59.36424 8.393081 
L 59.784535 8.342342 
L 60.20483 8.291603 
L 60.520097 8.345991 
L 60.835363 8.400378 
L 61.150629 8.454766 
L 61.465896 8.509153 
L 61.781162 8.56354 
L 62.096428 8.617928 
L 62.411695 8.672315 
L 62.726961 8.726703 
" style="fill:none;stroke:#4169e1;stroke-linecap:square;stroke-width:0.4;"/>
   </g>
   <g id="line2d_25">
    <path clip-path="url(#p1f6f2795ad)" d="M 3.678815 2.967986 
L 4.461495 3.605772 
L 4.635584 4.156808 
L 4.316541 4.73676 
L 3.504726 5.171589 
L 3.313732 5.657225 
L 3.475591 5.983414 
L 4.360063 6.084893 
L 4.635584 6.041518 
L 5.099582 5.722355 
L 5.563219 5.664522 
L 5.882262 5.925311 
L 5.766443 6.389327 
L 4.316541 7.346276 
L 3.548248 8.50591 
L 3.365707 9.067756 
L 3.272727 9.810668 
L 4.316541 10.187664 
L 6.085126 10.21658 
L 6.201305 10.709513 
L 6.027216 11.260279 
L 5.316833 12.188311 
L 4.374631 13.058104 
L 4.142812 13.232009 
L 4.026633 13.493068 
L 4.171587 13.753858 
L 4.520484 13.739535 
L 4.983402 13.377132 
L 5.563219 13.290112 
L 6.549123 13.406048 
L 7.259507 12.956626 
L 7.535028 12.739076 
L 8.056935 12.62314 
L 8.520572 12.767993 
L 8.549707 13.057969 
L 7.592937 13.783045 
L 7.012941 14.667296 
L 6.607033 15.841524 
L 6.896941 15.957461 
L 7.447983 15.928544 
L 7.767026 16.102584 
L 7.737892 16.711453 
L 7.303029 17.523278 
L 6.751987 17.842171 
L 6.099693 17.668131 
L 5.38949 17.668131 
L 5.128357 18.074044 
L 5.4474 18.392937 
L 6.114261 18.335103 
L 6.751987 18.595893 
L 7.12894 19.030992 
L 8.252964 19.385693 
L 8.491797 19.494738 
L 8.607617 19.784714 
L 8.172754 20.103607 
L 7.592937 19.915244 
L 7.303029 19.871734 
L 6.462079 20.538706 
L 5.244536 20.219814 
L 5.070447 20.42277 
L 5.925784 21.36499 
L 6.201305 21.524571 
L 6.926076 21.524571 
L 7.332164 21.350532 
L 7.767026 21.495385 
L 8.636751 22.48125 
L 9.245703 22.887162 
L 10.55029 22.945266 
L 11.074715 22.649074 
L 11.260674 21.698341 
L 11.275061 21.292428 
L 11.76073 20.524045 
L 14.522323 17.871087 
L 15.805419 17.67536 
L 16.870724 17.349238 
L 17.972448 15.986377 
L 18.610534 15.812608 
L 19.045397 15.957461 
L 19.653988 16.711453 
L 20.32085 16.914409 
L 22.582207 16.247437 
L 23.896686 14.794178 
L 24.58279 13.753858 
L 24.916311 12.550578 
L 24.916221 11.231362 
L 24.945176 10.564525 
L 25.017653 10.3036 
L 25.510425 10.245497 
L 26.336808 10.999354 
L 26.902147 11.492287 
L 27.858737 12.122978 
L 29.250459 13.521985 
L 30.178093 14.043834 
L 30.902864 14.130854 
L 30.902864 14.130854 
" style="fill:none;stroke:#4169e1;stroke-linecap:square;stroke-width:0.4;"/>
   </g>
   <g id="line2d_26">
    <path clip-path="url(#p1f6f2795ad)" d="M 36.797068 9.546635 
L 36.918643 9.984708 
L 36.882314 10.238876 
L 36.845986 10.493044 
L 36.809657 10.747213 
L 36.773329 11.001381 
L 36.914686 11.258725 
L 37.056043 11.516068 
L 37.197401 11.773412 
L 37.338758 12.030756 
L 37.621473 12.283438 
L 37.904187 12.53612 
L 38.194096 12.840554 
L 38.484004 13.144989 
L 38.665197 13.32619 
L 38.846389 13.507392 
L 39.027582 13.688593 
L 39.208775 13.869794 
L 39.455161 13.993027 
L 39.701547 14.11626 
L 39.947933 14.239494 
L 40.194319 14.362727 
L 40.614615 14.551225 
L 41.03491 14.739723 
L 41.36834 14.870253 
L 41.701771 15.000782 
L 41.977292 14.942814 
L 42.252813 14.884846 
L 42.528154 14.826743 
L 42.803495 14.768639 
L 43.252745 14.855659 
L 43.701995 14.942679 
L 44.078947 14.841201 
L 44.4559 14.739723 
L 44.716854 14.507715 
L 44.977807 14.275707 
L 45.150637 14.00654 
L 45.323467 13.737373 
L 45.496297 13.468206 
L 45.669127 13.199038 
" style="fill:none;stroke:#4169e1;stroke-linecap:square;stroke-width:0.4;"/>
   </g>
   <g id="line2d_27">
    <path clip-path="url(#p1f6f2795ad)" d="M 4.461495 3.605772 
L 4.851127 3.801499 
L 5.240759 3.997226 
L 5.630391 4.192953 
L 6.020023 4.38868 
L 6.409654 4.584408 
L 6.799286 4.780135 
L 7.188918 4.975862 
L 7.57855 5.171589 
L 7.835861 5.31656 
L 8.093173 5.461532 
L 8.350485 5.606503 
L 8.607796 5.751474 
L 8.865108 5.896445 
L 9.12242 6.041416 
L 9.379731 6.186388 
L 9.637043 6.331359 
L 9.894355 6.47633 
L 10.151666 6.621301 
L 10.408978 6.766272 
L 10.66629 6.911244 
L 10.923601 7.056215 
L 11.180913 7.201186 
L 11.438225 7.346157 
L 11.695536 7.491128 
L 11.963728 7.654223 
L 12.231921 7.817318 
L 12.500113 7.980413 
L 12.768305 8.143507 
L 13.036497 8.306602 
L 13.30469 8.469697 
L 13.572882 8.632792 
L 13.841074 8.795886 
L 14.109266 8.958981 
L 14.377458 9.122076 
L 14.645651 9.28517 
L 14.913843 9.448265 
L 15.182035 9.61136 
L 15.450227 9.774455 
L 15.718419 9.937549 
L 15.986612 10.100644 
L 16.287401 10.270985 
L 16.588189 10.441326 
L 16.888978 10.611666 
L 17.189767 10.782007 
L 17.490556 10.952348 
L 17.791345 11.122689 
L 18.092134 11.293029 
L 18.392923 11.46337 
L 18.693712 11.633711 
L 18.994501 11.804052 
L 19.29529 11.974392 
L 19.596079 12.144733 
L 19.896868 12.315074 
L 20.197656 12.485415 
L 20.498445 12.655755 
L 20.799234 12.826096 
L 21.21301 13.031789 
L 21.626786 13.237481 
L 22.040562 13.443174 
L 22.454338 13.648866 
L 22.868113 13.854559 
L 23.281889 14.060252 
L 23.695665 14.265944 
L 24.109441 14.471637 
" style="fill:none;stroke:#000000;stroke-linecap:square;stroke-width:0.4;"/>
   </g>
   <g id="line2d_28">
    <path clip-path="url(#p1f6f2795ad)" d="M 24.109441 14.471637 
L 24.39872 14.650136 
L 24.687999 14.828634 
L 24.977278 15.007133 
L 25.266557 15.185632 
L 25.555836 15.364131 
L 25.845114 15.54263 
L 26.134393 15.721129 
L 26.423672 15.899628 
L 26.724461 16.077214 
L 27.02525 16.254801 
L 27.326039 16.432388 
L 27.626828 16.609975 
L 27.927617 16.787562 
L 28.228406 16.965148 
L 28.529195 17.142735 
L 28.829984 17.320322 
L 29.130772 17.497909 
L 29.431561 17.675495 
L 29.73235 17.853082 
L 30.033139 18.030669 
L 30.333928 18.208256 
L 30.634717 18.385843 
L 30.935506 18.563429 
L 31.236295 18.741016 
L 31.59868 18.933095 
L 31.961066 19.125174 
L 32.323451 19.317253 
L 32.685837 19.509331 
L 33.048222 19.70141 
L 33.410608 19.893489 
L 33.772993 20.085568 
L 34.135378 20.277647 
L 34.497764 20.469726 
L 34.860149 20.661804 
L 35.222535 20.853883 
L 35.58492 21.045962 
L 35.947306 21.238041 
L 36.309691 21.43012 
L 36.672077 21.622199 
L 37.034462 21.814277 
" style="fill:none;stroke:#ff0000;stroke-linecap:square;stroke-width:0.4;"/>
   </g>
   <g id="line2d_29">
    <path clip-path="url(#p1f6f2795ad)" d="M 4.635584 4.156808 
L 4.892941 4.366993 
L 5.150298 4.577178 
L 5.407654 4.787364 
L 5.665011 4.997549 
L 6.012919 5.294755 
L 6.360827 5.59196 
L 6.708735 5.889165 
L 7.056643 6.186371 
L 7.404551 6.483576 
L 7.752459 6.780781 
L 8.100367 7.077987 
L 8.448275 7.375192 
L 8.716467 7.556393 
L 8.984659 7.737595 
L 9.252852 7.918796 
L 9.521044 8.099997 
L 9.789236 8.281199 
L 10.057428 8.4624 
L 10.32562 8.643601 
L 10.593813 8.824803 
L 10.977959 9.107516 
L 11.362106 9.390229 
L 11.746252 9.672943 
L 12.130399 9.955656 
L 12.514545 10.238369 
L 12.898692 10.521083 
L 13.282838 10.803796 
L 13.666985 11.086509 
L 14.000416 11.231463 
L 14.333846 11.376418 
L 14.667277 11.521372 
L 15.000707 11.666326 
L 15.334138 11.811281 
L 15.667569 11.956235 
L 16.000999 12.101189 
L 16.33443 12.246144 
L 16.631622 12.318773 
L 16.928814 12.391402 
L 17.226006 12.464031 
L 17.523198 12.53666 
L 17.82039 12.60929 
L 18.117582 12.681919 
L 18.414774 12.754548 
L 18.711966 12.827177 
L 19.067068 13.059253 
L 19.42217 13.291328 
L 19.777271 13.523404 
L 20.132373 13.755479 
L 20.248372 14.067278 
L 20.364372 14.379077 
L 20.480371 14.690875 
L 20.59637 15.002674 
L 20.795705 15.185598 
L 20.995039 15.368523 
L 21.194374 15.551447 
L 21.393708 15.734371 
L 21.593043 15.917295 
L 21.792377 16.100219 
L 21.991712 16.283143 
L 22.191046 16.466068 
L 22.390381 16.648992 
L 22.589715 16.831916 
L 22.78905 17.01484 
L 22.988384 17.197764 
L 23.187719 17.380689 
L 23.387053 17.563613 
L 23.586388 17.746537 
L 23.785722 17.929461 
L 23.981392 18.186737 
L 24.177062 18.444013 
L 24.372732 18.70129 
L 24.568403 18.958566 
L 24.648163 19.201384 
L 24.727924 19.444202 
L 24.807685 19.68702 
L 24.887446 19.929837 
L 25.209951 20.100161 
L 25.532456 20.270485 
L 25.854961 20.440809 
L 26.177466 20.611133 
L 26.499971 20.781457 
L 26.822476 20.951781 
L 27.144981 21.122104 
L 27.467486 21.292428 
L 27.699395 21.502816 
L 27.931304 21.713205 
L 28.163212 21.923593 
L 28.395121 22.133981 
L 28.62703 22.344369 
L 28.858938 22.554757 
L 29.090847 22.765145 
L 29.322756 22.975533 
L 29.634425 23.062418 
L 29.946095 23.149303 
L 30.257764 23.236188 
L 30.569434 23.323072 
L 30.881103 23.409957 
L 31.192773 23.496842 
L 31.504442 23.583727 
L 31.816112 23.670612 
L 32.102423 23.500288 
L 32.388735 23.329964 
L 32.675046 23.15964 
L 32.961358 22.989316 
L 33.106312 22.641372 
L 33.251266 22.293427 
L 33.45413 22.003451 
L 33.656994 21.713475 
L 33.917947 21.597538 
L 34.178901 21.481602 
" style="fill:none;stroke:#ff0000;stroke-linecap:square;stroke-width:0.4;"/>
   </g>
   <g id="line2d_30">
    <path clip-path="url(#p1f6f2795ad)" d="M 3.997498 1.663228 
L 4.222258 1.844531 
L 4.447018 2.025834 
L 4.671778 2.207136 
L 4.896538 2.388439 
L 5.121298 2.569742 
L 5.346058 2.751045 
L 5.570818 2.932347 
L 5.795577 3.11365 
L 6.215873 3.143242 
L 6.636168 3.172834 
L 6.872033 3.087807 
L 7.107898 3.002781 
L 7.343764 2.917754 
L 7.579629 2.832727 
L 7.815494 2.7477 
L 8.051359 2.662673 
L 8.287225 2.577647 
L 8.52309 2.49262 
L 8.993652 2.423234 
L 9.464213 2.353847 
L 9.934775 2.284461 
L 10.405336 2.215075 
L 10.657208 2.262267 
L 10.909079 2.309459 
L 11.16095 2.356651 
L 11.412822 2.403843 
L 11.664693 2.451035 
L 11.916564 2.498227 
L 12.168436 2.545419 
L 12.420307 2.592612 
L 12.672179 2.639804 
L 12.92405 2.686996 
L 13.175921 2.734188 
L 13.427793 2.78138 
L 13.679664 2.828572 
L 13.931535 2.875764 
L 14.183407 2.922956 
L 14.435278 2.970148 
L 14.70347 3.06791 
L 14.971663 3.165673 
L 15.239855 3.263435 
L 15.508047 3.361197 
L 15.776239 3.458959 
L 16.044431 3.556722 
L 16.312624 3.654484 
L 16.580816 3.752246 
L 16.964962 3.864433 
L 17.349109 3.97662 
L 17.733256 4.088806 
L 18.117402 4.200993 
L 18.501549 4.31318 
L 18.885695 4.425367 
L 19.269842 4.537553 
L 19.653988 4.64974 
L 20.030896 4.749546 
L 20.407804 4.849352 
L 20.784712 4.949158 
L 21.16162 5.048964 
L 21.538528 5.14877 
L 21.915435 5.248576 
L 22.292343 5.348382 
L 22.669251 5.448188 
L 23.046159 5.547994 
L 23.423067 5.6478 
L 23.799975 5.747606 
L 24.176882 5.847412 
L 24.55379 5.947218 
L 24.930698 6.047024 
L 25.307606 6.14683 
L 25.684514 6.246636 
L 25.872945 6.558029 
L 26.061377 6.869423 
L 26.249808 7.180816 
L 26.43824 7.492209 
L 26.626671 7.803603 
L 26.815102 8.114996 
L 27.003534 8.42639 
L 27.191965 8.737783 
L 27.402158 8.991512 
L 27.61235 9.245241 
L 27.822543 9.49897 
L 28.032736 9.7527 
L 28.242928 10.006429 
L 28.453121 10.260158 
L 28.663313 10.513887 
L 28.873506 10.767616 
L 29.032982 11.050296 
L 29.192459 11.332975 
L 29.351936 11.615655 
L 29.511412 11.898334 
L 29.670889 12.181014 
L 29.830365 12.463693 
L 29.989842 12.746373 
L 30.149318 13.029052 
L 30.453704 13.395103 
L 30.75809 13.761154 
L 31.062476 14.127206 
L 31.366862 14.493257 
L 31.671247 14.859308 
L 31.975633 15.225359 
L 32.280019 15.59141 
L 32.584405 15.957461 
L 32.852552 16.171599 
L 33.120699 16.385736 
L 33.388846 16.599874 
L 33.656994 16.814012 
L 33.925141 17.02815 
L 34.193288 17.242288 
L 34.461435 17.456426 
L 34.729583 17.670563 
L 34.971293 17.833253 
L 35.213003 17.995942 
L 35.454713 18.158631 
L 35.696424 18.321321 
L 35.938134 18.48401 
L 36.179844 18.646699 
L 36.421554 18.809389 
L 36.663264 18.972078 
L 36.896971 19.187736 
L 37.130679 19.403394 
L 37.364386 19.619052 
L 37.598093 19.83471 
L 37.793763 20.182655 
L 37.989433 20.530599 
" style="fill:none;stroke:#ff0000;stroke-linecap:square;stroke-width:0.4;"/>
   </g>
   <g id="line2d_31">
    <path clip-path="url(#p1f6f2795ad)" d="M 36.797068 9.546635 
L 36.533957 9.790669 
L 36.270845 10.034704 
L 36.007733 10.278738 
L 35.744622 10.522772 
L 35.722771 10.794641 
L 35.70092 11.066511 
L 35.679069 11.33838 
L 35.657218 11.61025 
L 35.697143 11.889281 
L 35.737068 12.168312 
L 35.776994 12.447343 
L 35.816919 12.726375 
L 35.921948 13.001487 
L 36.026977 13.2766 
L 36.132005 13.551712 
L 36.237034 13.826825 
L 36.360407 14.190308 
L 36.48378 14.553792 
L 36.549603 14.744858 
L 36.487737 15.184686 
L 36.42587 15.624515 
L 36.61066 15.950637 
L 36.79545 16.276759 
L 36.980239 16.602881 
L 37.165029 16.929003 
L 37.378773 17.078112 
L 37.592518 17.227221 
L 37.806262 17.376331 
L 38.020007 17.52544 
L 38.255602 17.640971 
L 38.491198 17.756502 
L 38.726793 17.872033 
L 38.962389 17.987564 
L 39.230536 18.285108 
L 39.498683 18.582651 
L 39.623135 18.850061 
L 39.747587 19.117472 
L 39.464513 19.461497 
L 39.23746 19.590068 
L 39.010407 19.718639 
L 38.783354 19.847209 
L 38.556301 19.97578 
" style="fill:none;stroke:#000000;stroke-linecap:square;stroke-width:0.4;"/>
   </g>
   <g id="line2d_32">
    <path clip-path="url(#p1f6f2795ad)" d="M 25.684514 6.246636 
L 25.985303 6.420608 
L 26.286092 6.59458 
L 26.586881 6.768553 
L 26.88767 6.942525 
L 27.177578 7.087581 
L 27.467486 7.232636 
L 27.757395 7.377692 
L 28.047303 7.522748 
L 28.424076 7.550853 
L 28.800849 7.578959 
L 29.047325 7.615578 
L 29.293801 7.652196 
L 29.540277 7.688815 
L 29.786753 7.725434 
L 30.076661 7.870151 
L 30.36657 8.014869 
L 30.766003 8.188098 
L 31.165436 8.361327 
L 31.596252 8.346734 
L 32.027069 8.332141 
L 32.457885 8.317547 
L 32.888701 8.302954 
" style="fill:none;stroke:#ff0000;stroke-linecap:square;stroke-width:0.4;"/>
   </g>
   <g id="line2d_33">
    <path clip-path="url(#p1f6f2795ad)" d="M 16.580816 3.752246 
L 16.810049 3.650684 
L 17.039283 3.549121 
L 17.268516 3.447558 
L 17.49775 3.345996 
L 17.726983 3.244433 
L 17.956217 3.14287 
L 18.185451 3.041308 
L 18.414684 2.939745 
L 18.643918 2.838183 
L 18.873151 2.73662 
L 19.102385 2.635057 
L 19.331618 2.533495 
L 19.560852 2.431932 
L 19.790085 2.33037 
L 20.019319 2.228807 
L 20.248552 2.127244 
L 20.545699 2.098226 
L 20.842846 2.069209 
L 21.139993 2.040191 
L 21.437141 2.011173 
L 21.734288 1.982155 
L 22.031435 1.953137 
L 22.328582 1.924119 
L 22.625729 1.895101 
L 22.879399 1.902364 
L 23.133068 1.909627 
L 23.386738 1.91689 
L 23.640408 1.924153 
L 23.894078 1.931416 
L 24.147748 1.938679 
L 24.401418 1.945942 
L 24.655087 1.953205 
L 24.952279 2.018436 
L 25.249471 2.083667 
L 25.546663 2.148898 
L 25.843856 2.214129 
L 26.141048 2.27936 
L 26.43824 2.344591 
L 26.735432 2.409823 
L 27.032624 2.475054 
L 27.366009 2.569303 
L 27.699395 2.663552 
L 28.032781 2.757801 
L 28.366166 2.85205 
L 28.699552 2.946299 
L 29.032937 3.040548 
L 29.366323 3.134797 
L 29.699709 3.229046 
L 29.979366 3.376027 
L 30.259023 3.523008 
L 30.53868 3.669989 
L 30.818338 3.816971 
L 31.097995 3.963952 
L 31.377652 4.110933 
L 31.657309 4.257914 
L 31.936967 4.404895 
L 32.264417 4.652206 
L 32.591868 4.899517 
L 32.919319 5.146828 
L 33.24677 5.394138 
L 33.574221 5.641449 
L 33.901671 5.88876 
L 34.229122 6.136071 
L 34.556573 6.383382 
" style="fill:none;stroke:#ff0000;stroke-linecap:square;stroke-width:0.4;"/>
   </g>
   <g id="line2d_34">
    <path clip-path="url(#p1f6f2795ad)" d="M 36.549603 14.744858 
L 36.804442 14.920384 
L 37.059281 15.09591 
L 37.341995 15.153878 
L 37.62471 15.211846 
L 37.907424 15.269814 
L 38.190139 15.327783 
L 38.443809 15.378589 
L 38.697479 15.429396 
L 38.951148 15.480203 
L 39.204818 15.531009 
L 39.51379 15.710116 
L 39.822762 15.889223 
L 40.131734 16.06833 
L 40.440705 16.247437 
L 40.766852 16.319931 
L 41.092999 16.392425 
L 41.419146 16.464919 
L 41.745293 16.537413 
L 42.14041 16.710372 
L 42.535527 16.883331 
L 42.896024 16.949069 
L 43.256521 17.014806 
L 43.617018 17.080544 
L 43.977516 17.146282 
L 44.281991 17.218709 
L 44.586467 17.291135 
L 45.02115 17.16074 
L 45.455832 17.030346 
L 45.745741 16.856306 
L 46.035649 16.682266 
L 46.267648 16.493903 
L 46.499646 16.30554 
L 46.88703 16.255815 
L 47.12928 16.294393 
L 47.37153 16.33297 
L 47.613779 16.371548 
L 47.856029 16.410126 
" style="fill:none;stroke:#008000;stroke-linecap:square;stroke-width:0.4;"/>
   </g>
   <g id="line2d_35">
    <path clip-path="url(#p1f6f2795ad)" d="M 40.086773 8.349707 
L 39.683922 8.28282 
L 39.281072 8.215934 
L 38.889732 8.187017 
L 38.498391 8.158101 
L 38.22305 8.085539 
L 37.947709 8.012978 
L 37.541802 8.056487 
L 37.135894 8.099997 
L 36.854978 8.089188 
L 36.69069 7.842856 
L 36.526403 7.596525 
L 36.362116 7.350194 
L 36.197828 7.103863 
" style="fill:none;stroke:#ff0000;stroke-linecap:square;stroke-width:0.4;"/>
   </g>
   <g id="line2d_36">
    <path clip-path="url(#p1f6f2795ad)" d="M 30.902864 14.130854 
L 31.323339 13.898981 
L 31.410294 13.601776 
L 31.497248 13.30457 
L 31.584203 13.007365 
L 31.671157 12.71016 
L 31.750918 12.318705 
L 31.830679 11.927251 
L 31.91044 11.535797 
L 31.990201 11.144342 
L 32.062678 10.767414 
L 32.135155 10.390485 
L 32.207632 10.013557 
L 32.280109 9.636628 
L 32.381541 9.346719 
L 32.482973 9.056811 
L 32.584405 8.766902 
L 32.685837 8.476994 
L 32.888701 8.302954 
L 33.207744 8.389974 
L 33.338131 8.665356 
L 33.468517 8.940739 
L 33.729651 9.230715 
L 34.004992 8.984249 
L 34.280333 8.737783 
L 34.288785 8.27147 
L 34.297238 7.805157 
L 34.361442 7.418702 
L 34.425647 7.032247 
L 34.49111 6.707814 
L 34.556573 6.383382 
" style="fill:none;stroke:#4169e1;stroke-linecap:square;stroke-width:0.4;"/>
   </g>
   <g id="line2d_37">
    <path clip-path="url(#p1f6f2795ad)" d="M 15.450317 17.784068 
L 15.167603 18.386451 
L 14.558651 19.067746 
L 14.239788 20.089959 
L 14.181698 20.474117 
L 13.573107 21.387285 
L 13.573107 21.793198 
L 14.051311 22.793521 
L 14.413697 23.547378 
L 15.037036 25.490192 
L 15.080558 26.214997 
L 14.689218 26.968719 
L 14.123789 27.563265 
L 13.217825 27.846012 
L 11.826103 28.911533 
L 10.238801 30.332227 
L 9.861848 30.796243 
L 9.832713 31.216479 
L 10.383755 31.897774 
L 10.064712 32.332874 
L 9.385262 32.276122 
L 9.06442 31.984794 
L 8.788899 31.085949 
L 8.648621 30.882452 
L 8.368784 30.839483 
L 7.853891 32.506778 
L 7.875652 32.767703 
L 8.194695 33.246042 
L 10.818617 34.898879 
L 11.079391 34.927796 
L 11.775387 34.739433 
L 12.268159 34.217584 
L 12.268159 33.318739 
L 13.181407 32.521237 
L 13.181407 32.27477 
L 13.32672 32.057491 
L 13.688926 31.955878 
L 14.007969 32.202344 
L 14.544264 33.173615 
L 15.12408 33.768026 
L 15.790941 34.217449 
L 16.385326 34.405947 
L 16.646279 34.42054 
L 16.994097 34.29001 
L 17.733615 33.565205 
L 19.139635 33.420082 
L 19.545363 33.448998 
L 20.06727 33.231719 
L 20.284881 32.767703 
L 20.14712 30.788811 
L 20.335597 30.121974 
L 20.763265 29.491485 
L 21.125471 29.201509 
L 22.336 29.070979 
L 22.604148 28.955043 
L 24.764073 26.156894 
L 25.706275 25.674974 
L 27.068952 25.526405 
L 28.344405 25.533702 
L 29.21431 25.678555 
L 29.736037 25.526405 
L 29.982423 25.403172 
L 30.917612 25.439385 
L 31.316146 25.490192 
L 33.026461 24.939156 
L 33.59189 24.315964 
L 33.765979 23.721418 
L 33.780367 22.532597 
L 34.178901 21.481602 
L 34.577794 21.358369 
L 36.403929 22.097768 
L 37.114313 22.445577 
L 37.114313 22.445577 
" style="fill:none;stroke:#4169e1;stroke-linecap:square;stroke-width:0.4;"/>
   </g>
   <g id="line2d_38">
    <path clip-path="url(#p1f6f2795ad)" d="M 11.074715 22.649074 
L 11.316066 22.880136 
L 11.488716 23.163626 
L 11.661366 23.447116 
L 11.83006 23.823167 
L 11.998753 24.199217 
L 12.027888 24.634181 
L 12.057023 25.069145 
L 12.064216 25.355473 
L 12.07141 25.641801 
L 12.078604 25.928129 
L 12.085798 26.214457 
L 11.962604 26.634828 
L 11.839411 27.055199 
L 11.730606 27.338013 
L 11.6218 27.620828 
L 11.397175 27.997689 
L 11.17255 28.37455 
L 10.955119 28.729791 
L 10.737688 29.085032 
L 10.658017 29.389467 
L 10.578346 29.693901 
L 10.542107 29.9403 
L 10.505869 30.186698 
L 10.46963 30.433097 
L 10.433392 30.679496 
L 10.462347 30.98393 
L 10.491302 31.288365 
L 10.437528 31.593069 
L 10.383755 31.897774 
L 10.404257 32.172887 
L 10.486086 32.474889 
L 10.567915 32.776891 
L 10.636256 33.202262 
L 10.650643 33.513858 
L 10.665031 33.825454 
L 10.570793 34.100972 
L 10.476554 34.37649 
L 10.32009 34.724839 
" style="fill:none;stroke:#4169e1;stroke-linecap:square;stroke-width:0.4;"/>
   </g>
   <g id="line2d_39">
    <path clip-path="url(#p1f6f2795ad)" d="M 5.665011 4.997549 
L 5.773636 5.46143 
L 5.882262 5.925311 
L 6.08099 6.353114 
L 6.279717 6.780916 
L 6.403 7.107106 
L 6.526283 7.433295 
L 6.649566 7.759485 
L 6.772849 8.085674 
L 6.917803 8.448077 
L 7.062758 8.81048 
L 7.207712 9.172882 
L 7.352666 9.535285 
L 7.570097 9.738241 
L 7.787528 9.941198 
L 8.00496 10.144154 
L 8.222391 10.34711 
L 8.461583 10.687826 
L 8.700776 11.028541 
L 8.939968 11.369256 
L 9.17916 11.709971 
L 9.382114 11.912928 
L 9.585068 12.115884 
L 9.788022 12.31884 
L 9.990976 12.521797 
L 10.179452 12.790018 
L 10.367929 13.058239 
L 10.556405 13.32646 
L 10.744881 13.594682 
L 10.904358 13.81213 
L 11.063835 14.029578 
L 11.223311 14.247027 
L 11.382788 14.464475 
L 11.542264 14.681923 
L 11.701741 14.899372 
L 11.861217 15.11682 
L 12.020694 15.334269 
L 12.194603 15.725723 
L 12.368512 16.117177 
L 12.477228 16.414383 
L 12.585943 16.711588 
L 12.694659 17.008793 
L 12.803375 17.305999 
L 13.066396 17.577733 
L 13.329418 17.849468 
L 13.59244 18.121202 
L 13.855461 18.392937 
" style="fill:none;stroke:#000000;stroke-linecap:square;stroke-width:0.4;"/>
   </g>
   <g id="line2d_40">
    <path clip-path="url(#p1f6f2795ad)" d="M 13.573107 21.387285 
L 13.826507 21.595579 
L 14.079907 21.803873 
L 14.333307 22.012167 
L 14.586707 22.22046 
L 14.90557 22.437875 
L 15.224433 22.655289 
L 15.601386 22.872839 
L 15.978339 23.090389 
L 16.290008 23.242606 
L 16.601678 23.394823 
L 16.913347 23.547041 
L 17.225017 23.699258 
L 17.500448 23.851475 
L 17.775879 24.003692 
L 18.051309 24.15591 
L 18.32674 24.308127 
L 18.63841 24.525541 
L 18.950079 24.742956 
L 19.261749 24.960371 
L 19.573418 25.177785 
L 19.848849 25.431548 
L 20.12428 25.685311 
L 20.399711 25.939074 
L 20.675142 26.192837 
L 20.928812 26.388497 
L 21.182482 26.584156 
L 21.436151 26.779816 
L 21.689821 26.975475 
L 22.030446 27.08425 
L 22.37107 27.193025 
L 22.711694 27.3018 
L 23.052319 27.410575 
L 23.328379 27.465165 
L 23.604439 27.519755 
" style="fill:none;stroke:#000000;stroke-linecap:square;stroke-width:0.4;"/>
   </g>
   <g id="line2d_41">
    <path clip-path="url(#p1f6f2795ad)" d="M 34.556573 6.383382 
L 34.827328 6.336156 
L 35.098083 6.28893 
L 35.368838 6.241704 
L 35.639593 6.194478 
L 35.779152 6.421824 
L 35.918711 6.649171 
L 36.058269 6.876517 
L 36.197828 7.103863 
L 36.40339 7.37884 
L 36.608951 7.653818 
L 36.731965 7.871503 
L 36.854978 8.089188 
L 36.729627 8.468886 
L 36.604275 8.848585 
L 36.700672 9.19761 
L 36.797068 9.546635 
" style="fill:none;stroke:#4169e1;stroke-linecap:square;stroke-width:0.4;"/>
   </g>
  </g>
 </g>
 <defs>
  <clipPath id="p1f6f2795ad">
   <rect height="36.591024" width="72" x="0" y="0"/>
  </clipPath>
 </defs>
</svg>
