<?xml version="1.0" encoding="utf-8" standalone="no"?>
<!DOCTYPE svg PUBLIC "-//W3C//DTD SVG 1.1//EN"
  "http://www.w3.org/Graphics/SVG/1.1/DTD/svg11.dtd">
<svg height="72pt" version="1.1" viewBox="0 0 117.63918 72" width="117.63918pt" xmlns="http://www.w3.org/2000/svg" xmlns:xlink="http://www.w3.org/1999/xlink">
 <metadata>
  <rdf:RDF xmlns:cc="http://creativecommons.org/ns#" xmlns:dc="http://purl.org/dc/elements/1.1/" xmlns:rdf="http://www.w3.org/1999/02/22-rdf-syntax-ns#">
   <cc:Work>
    <dc:type rdf:resource="http://purl.org/dc/dcmitype/StillImage"/>
    <dc:date>2022-05-22T20:11:17.012993</dc:date>
    <dc:format>image/svg+xml</dc:format>
    <dc:creator>
     <cc:Agent>
      <dc:title>Matplotlib v3.4.3, https://matplotlib.org/</dc:title>
     </cc:Agent>
    </dc:creator>
   </cc:Work>
  </rdf:RDF>
 </metadata>
 <defs>
  <style type="text/css">*{stroke-linecap:butt;stroke-linejoin:round;}</style>
 </defs>
 <g id="figure_1">
  <g id="patch_1">
   <path d="M 0 72 
L 117.63918 72 
L 117.63918 0 
L 0 0 
z
" style="fill:#ffffff;"/>
  </g>
  <g id="axes_1">
   <g id="line2d_1">
    <path clip-path="url(#pc95ff6bd57)" d="M 73.661409 52.315099 
L 74.668481 50.935984 
L 75.675553 49.55687 
L 76.779627 48.045086 
L 77.883702 46.533302 
L 78.568308 45.59588 
L 79.252914 44.658457 
L 79.937521 43.721035 
L 80.622127 42.783612 
L 81.306733 41.84619 
L 81.99134 40.908767 
L 82.675946 39.971345 
L 83.360553 39.033922 
L 83.944399 38.234347 
L 84.528246 37.434771 
L 85.112093 36.635195 
L 85.695939 35.835619 
L 86.670328 34.501375 
L 87.644717 33.167131 
L 88.632389 31.81455 
L 89.620061 30.46197 
L 90.357625 29.451957 
L 91.095189 28.441944 
L 91.668112 27.657307 
L 92.241035 26.87267 
L 92.813958 26.088033 
L 93.386881 25.303396 
L 93.959804 24.518759 
L 94.532727 23.734122 
L 95.10565 22.949485 
L 95.678574 22.164848 
L 96.693686 20.775163 
" style="fill:none;stroke:#808080;stroke-linecap:square;stroke-width:0.544626;"/>
   </g>
   <g id="line2d_2">
    <path clip-path="url(#pc95ff6bd57)" d="M 56.482805 44.282021 
L 57.394798 42.589893 
L 57.98013 41.507182 
L 58.565462 40.42447 
L 59.273314 39.115034 
L 59.981166 37.805598 
L 60.730266 36.419796 
L 61.479365 35.033994 
L 62.002477 34.067989 
L 62.525588 33.101983 
" style="fill:none;stroke:#808080;stroke-linecap:square;stroke-width:0.544626;"/>
   </g>
   <g id="line2d_3">
    <path clip-path="url(#pc95ff6bd57)" d="M 51.268471 42.188649 
L 51.482399 41.37667 
L 51.812381 40.12591 
L 52.142362 38.875151 
L 52.579832 37.217107 
L 53.017302 35.559063 
L 53.474522 33.825732 
L 53.931742 32.092401 
L 54.189977 31.113668 
L 54.448211 30.134934 
L 54.706446 29.156201 
L 54.964681 28.177468 
L 55.421726 26.445 
L 55.878771 24.712532 
L 56.200014 23.494778 
L 56.521256 22.277024 
L 56.831313 21.101551 
L 57.141369 19.926079 
L 57.502636 18.556672 
L 57.863903 17.187265 
L 58.152287 16.093983 
L 58.440671 15.000701 
L 58.873771 13.359052 
L 59.306872 11.717403 
L 59.655729 10.395024 
L 59.878397 9.550686 
L 60.268851 8.082909 
" style="fill:none;stroke:#808080;stroke-linecap:square;stroke-width:0.544626;"/>
   </g>
   <g id="line2d_4">
    <path clip-path="url(#pc95ff6bd57)" d="M 11.724894 25.284628 
L 12.709594 24.760638 
L 13.694295 24.236648 
L 15.149149 23.463066 
L 16.604003 22.689485 
L 18.24552 21.816672 
L 19.887037 20.943858 
L 21.569628 20.049041 
L 23.252218 19.154224 
L 24.131003 18.686969 
L 25.009788 18.219713 
L 25.888573 17.752458 
L 26.767358 17.285203 
L 27.64824 16.81687 
L 28.529122 16.348536 
L 29.410005 15.880202 
L 30.290887 15.411868 
L 31.220533 14.91754 
L 32.150178 14.423212 
L 33.079823 13.928883 
L 34.009469 13.434555 
L 35.420628 12.684056 
L 36.831788 11.933557 
L 38.246618 11.181333 
L 39.661448 10.429108 
L 40.539184 9.9625 
L 41.41692 9.495892 
L 42.186294 9.086451 
L 43.803692 8.226581 
L 43.900869 8.17567 
" style="fill:none;stroke:#808080;stroke-linecap:square;stroke-width:0.544626;"/>
   </g>
   <g id="line2d_5">
    <path clip-path="url(#pc95ff6bd57)" d="M 66.289612 49.593111 
L 66.405315 49.152606 
L 66.825133 47.567908 
L 67.219258 46.079745 
L 67.613383 44.591583 
L 68.007507 43.103421 
L 68.401632 41.615259 
L 68.889788 39.772341 
L 69.377944 37.929423 
L 69.788323 36.379672 
L 70.220375 34.747946 
L 70.635823 33.180074 
L 71.051271 31.612203 
L 71.493634 29.941431 
L 71.935998 28.27066 
L 72.207341 27.246301 
L 72.478684 26.221943 
L 72.750028 25.197584 
L 73.021371 24.173225 
L 73.30958 23.084905 
L 73.59779 21.996584 
L 73.885999 20.908264 
L 74.174208 19.819944 
L 74.448173 18.785662 
L 74.722138 17.75138 
L 74.996103 16.717098 
L 75.270068 15.682816 
L 75.54045 14.662448 
L 75.810832 13.64208 
" style="fill:none;stroke:#808080;stroke-linecap:square;stroke-width:0.544626;"/>
   </g>
   <g id="line2d_6">
    <path clip-path="url(#pc95ff6bd57)" d="M 57.343413 46.459525 
L 56.73868 45.676668 
L 56.133948 44.893811 
" style="fill:none;stroke:#808080;stroke-linecap:square;stroke-width:0.544626;"/>
   </g>
   <g id="line2d_7">
    <path clip-path="url(#pc95ff6bd57)" d="M 20.203386 6.13666 
L 19.8478 6.514175 
L 19.492213 6.891689 
L 19.136627 7.269204 
L 18.781041 7.646718 
L 18.425454 8.024233 
L 18.069868 8.401747 
L 17.714282 8.779262 
L 17.358695 9.156776 
L 17.140354 9.524583 
L 16.922012 9.89239 
L 16.70367 10.260197 
L 16.485329 10.628004 
L 16.266987 10.995811 
L 16.048645 11.363618 
L 15.830303 11.731425 
L 15.611962 12.099232 
L 15.417215 12.61454 
L 15.222468 13.129847 
L 15.027722 13.645154 
L 14.832975 14.160462 
L 14.638228 14.675769 
L 14.443482 15.191076 
L 14.248735 15.706384 
L 14.053988 16.221691 
L 13.908442 16.61312 
L 13.762895 17.004548 
L 13.617349 17.395977 
L 13.471802 17.787405 
L 13.326255 18.178834 
L 13.180709 18.570263 
L 13.035162 18.961691 
L 12.889616 19.35312 
L 12.8031 19.856616 
L 12.716585 20.360113 
L 12.63007 20.863609 
L 12.543555 21.367106 
L 12.476702 21.780107 
L 12.409849 22.193108 
L 12.342997 22.606109 
L 12.276144 23.019109 
L 12.134399 23.534471 
L 11.992654 24.049832 
L 11.706542 24.420875 
L 11.42043 24.791918 
" style="fill:none;stroke:#000000;stroke-linecap:square;stroke-width:0.544626;"/>
   </g>
   <g id="line2d_8">
    <path clip-path="url(#pc95ff6bd57)" d="M 60.268851 8.082909 
L 56.345254 10.459525 
L 53.607004 11.32824 
L 51.534571 11.270103 
L 48.190102 10.6691 
L 46.444591 9.991191 
L 45.390329 8.559225 
L 43.900869 8.17567 
L 43.320605 7.333921 
L 38.786683 5.920614 
L 35.598815 4.402143 
L 33.878036 4.050623 
L 32.827968 3.929387 
L 31.081234 3.272727 
L 28.741303 3.410574 
L 27.004619 3.88182 
L 23.978159 5.250795 
L 10.142626 8.629766 
L 9.148619 9.590379 
L 6.255908 13.704532 
L 5.488806 15.179751 
L 5.347235 16.155248 
L 6.944359 19.266939 
L 8.223474 21.038722 
L 10.830815 23.837345 
L 11.724894 25.284628 
L 11.724894 25.284628 
" style="fill:none;stroke:#4169e1;stroke-linecap:square;stroke-width:0.544626;"/>
   </g>
   <g id="line2d_9">
    <path clip-path="url(#pc95ff6bd57)" d="M 31.762869 3.529006 
L 31.505989 3.98569 
L 31.249109 4.442375 
L 30.992228 4.89906 
L 30.735348 5.355745 
L 30.478468 5.812429 
L 30.221588 6.269114 
L 29.964707 6.725799 
L 29.707827 7.182483 
L 29.507531 7.538641 
L 29.307235 7.894799 
L 29.146614 8.13986 
L 28.985993 8.384921 
L 28.813705 8.779963 
L 28.641417 9.175005 
L 28.46913 9.570047 
L 28.296842 9.965089 
L 28.124554 10.360131 
L 27.952267 10.755173 
L 27.779979 11.150215 
L 27.607692 11.545257 
L 27.379519 12.017312 
L 27.151346 12.489367 
L 26.923173 12.961422 
L 26.695 13.433477 
L 26.466827 13.905531 
L 26.238654 14.377586 
L 26.010481 14.849641 
L 25.782308 15.321696 
L 25.630513 15.78674 
L 25.478718 16.251784 
L 25.326923 16.716828 
L 25.175128 17.181872 
L 25.023333 17.646916 
L 24.871538 18.11196 
L 24.719743 18.577004 
L 24.567948 19.042048 
" style="fill:none;stroke:#000000;stroke-linecap:square;stroke-width:0.544626;"/>
   </g>
   <g id="line2d_10">
    <path clip-path="url(#pc95ff6bd57)" d="M 35.977122 4.496737 
L 35.650855 4.846747 
L 35.324588 5.196757 
L 34.998321 5.546767 
L 34.672053 5.896777 
L 34.345786 6.246787 
L 34.019519 6.596797 
L 33.693251 6.946806 
L 33.366984 7.296816 
L 33.099049 7.629245 
L 32.831114 7.961673 
L 32.540196 8.322577 
L 32.249277 8.683481 
L 31.958359 9.044385 
L 31.667441 9.405289 
L 31.361404 9.83242 
L 31.055367 10.25955 
L 30.899771 10.530444 
L 30.744174 10.801337 
L 30.588578 11.072231 
L 30.432982 11.343125 
L 30.277385 11.614018 
L 30.121789 11.884912 
L 29.966193 12.155806 
L 29.810596 12.426699 
L 29.657338 12.738985 
L 29.504079 13.05127 
L 29.35082 13.363555 
L 29.197562 13.675841 
L 29.044303 13.988126 
L 28.891044 14.300412 
L 28.737786 14.612697 
L 28.584527 14.924982 
L 28.431268 15.237268 
L 28.27801 15.549553 
L 28.124751 15.861839 
L 27.971492 16.174124 
L 27.818234 16.486409 
L 27.664975 16.798695 
L 27.511716 17.11098 
L 27.358458 17.423266 
" style="fill:none;stroke:#000000;stroke-linecap:square;stroke-width:0.544626;"/>
   </g>
   <g id="line2d_11">
    <path clip-path="url(#pc95ff6bd57)" d="M 22.798144 5.533931 
L 22.620089 5.860913 
L 22.442033 6.187894 
L 22.263978 6.514876 
L 22.085923 6.841857 
L 21.907867 7.168839 
L 21.729812 7.49582 
L 21.551756 7.822802 
L 21.373701 8.149783 
L 21.054993 8.59428 
L 20.736285 9.038776 
L 20.417577 9.483273 
L 20.098869 9.927769 
L 19.854966 10.191382 
L 19.611063 10.454995 
L 19.36716 10.718608 
L 19.123257 10.982221 
L 19.044606 11.265465 
L 18.965956 11.548708 
L 18.887306 11.831952 
L 18.808656 12.115196 
L 18.730005 12.473187 
L 18.651355 12.831179 
L 18.572705 13.189171 
L 18.494055 13.547162 
L 18.238354 14.038848 
L 17.982654 14.530534 
L 17.726953 15.022219 
L 17.471253 15.513905 
L 17.215552 16.005591 
L 16.959851 16.497277 
L 16.704151 16.988962 
L 16.44845 17.480648 
L 16.220277 17.960631 
L 15.992104 18.440613 
L 15.763931 18.920596 
L 15.535758 19.400579 
L 15.453132 19.75458 
L 15.370505 20.10858 
L 15.287879 20.462581 
L 15.205253 20.816582 
L 15.122626 21.170583 
L 15.04 21.524583 
L 14.957373 21.878584 
L 14.874747 22.232585 
L 14.800685 22.551908 
L 14.726622 22.871232 
L 14.65256 23.190555 
L 14.578498 23.509878 
L 14.504436 23.829202 
L 14.430373 24.148525 
L 14.356311 24.467848 
L 14.282249 24.787172 
" style="fill:none;stroke:#4169e1;stroke-linecap:square;stroke-width:0.544626;"/>
   </g>
   <g id="line2d_12">
    <path clip-path="url(#pc95ff6bd57)" d="M 41.077152 6.686753 
L 40.884764 7.006076 
L 40.692377 7.3254 
L 40.49999 7.644723 
L 40.307603 7.964046 
L 40.115216 8.28337 
L 39.922829 8.602693 
L 39.730441 8.922016 
L 39.538054 9.24134 
L 39.179977 9.514229 
L 38.8219 9.787118 
L 38.463824 10.060007 
L 38.105747 10.332896 
L 37.74767 10.605785 
L 37.389593 10.878674 
L 37.031516 11.151563 
L 36.673439 11.424452 
L 36.429798 11.630899 
L 36.186157 11.837345 
L 35.759611 12.079656 
L 35.333065 12.321966 
L 34.906518 12.564276 
L 34.479972 12.806587 
L 34.053426 13.048897 
L 33.626879 13.291208 
L 33.200333 13.533518 
L 32.773787 13.775828 
L 32.435329 14.003793 
L 32.096871 14.231758 
L 31.758413 14.459723 
L 31.419955 14.687688 
L 31.081496 14.915652 
L 30.743038 15.143617 
L 30.40458 15.371582 
L 30.066122 15.599547 
L 29.727664 15.827512 
L 29.389206 16.055477 
L 29.050748 16.283441 
L 28.71229 16.511406 
L 28.373832 16.739371 
L 28.035374 16.967336 
L 27.696916 17.195301 
L 27.358458 17.423266 
L 27.009644 17.625613 
L 26.66083 17.827961 
L 26.312017 18.030309 
L 25.963203 18.232657 
L 25.614389 18.435005 
L 25.265576 18.637352 
L 24.916762 18.8397 
L 24.567948 19.042048 
L 24.299795 19.197557 
L 24.031641 19.353066 
L 23.763488 19.508575 
L 23.495334 19.664084 
L 23.227181 19.819593 
L 22.959027 19.975102 
L 22.690874 20.130611 
L 22.42272 20.28612 
L 22.154567 20.441629 
L 21.886413 20.597138 
L 21.61826 20.752647 
L 21.350106 20.908156 
L 21.081953 21.063665 
L 20.813799 21.219174 
L 20.545646 21.374683 
L 20.277492 21.530192 
L 19.81481 21.781563 
L 19.352129 22.032934 
L 18.889447 22.284304 
L 18.426765 22.535675 
L 17.964084 22.787046 
L 17.501402 23.038417 
L 17.03872 23.289787 
L 16.576038 23.541158 
L 16.289315 23.69691 
L 16.002591 23.852661 
L 15.715867 24.008413 
L 15.429144 24.164165 
L 15.14242 24.319917 
L 14.855696 24.475668 
L 14.568972 24.63142 
L 14.282249 24.787172 
L 13.865228 24.983911 
L 13.448207 25.18065 
L 13.031186 25.377389 
L 12.614165 25.574128 
L 12.169529 25.429378 
L 11.724894 25.284628 
" style="fill:none;stroke:#000000;stroke-linecap:square;stroke-width:0.544626;"/>
   </g>
   <g id="line2d_13">
    <path clip-path="url(#pc95ff6bd57)" d="M 26.029094 4.353929 
L 25.864497 4.764341 
L 25.6999 5.174753 
L 25.535302 5.585165 
L 25.370705 5.995578 
L 25.206107 6.40599 
L 25.04151 6.816402 
L 24.876913 7.226814 
L 24.712315 7.637227 
L 24.485125 8.075844 
L 24.257935 8.514462 
L 24.030746 8.95308 
L 23.803556 9.391698 
L 23.576366 9.830316 
L 23.349176 10.268934 
L 23.121986 10.707552 
L 22.894796 11.14617 
L 22.667606 11.584788 
L 22.440416 12.023406 
L 22.213227 12.462024 
L 21.986037 12.900642 
L 21.758847 13.33926 
L 21.531657 13.777878 
L 21.304467 14.216496 
L 21.077277 14.655114 
L 20.928781 14.964891 
L 20.780285 15.274669 
L 20.631789 15.584446 
L 20.483293 15.894224 
L 20.334797 16.204002 
L 20.186301 16.513779 
L 20.037806 16.823557 
L 19.88931 17.133335 
L 19.740814 17.443112 
L 19.592318 17.75289 
L 19.443822 18.062667 
L 19.295326 18.372445 
L 19.14683 18.682223 
L 18.998334 18.992 
L 18.849838 19.301778 
L 18.701342 19.611556 
L 18.496764 19.85543 
L 18.292186 20.099304 
L 18.087608 20.343179 
L 17.88303 20.587053 
L 17.678452 20.830927 
L 17.473874 21.074802 
L 17.269296 21.318676 
L 17.064718 21.562551 
L 16.942548 22.057202 
L 16.820378 22.551854 
L 16.698208 23.046506 
L 16.576038 23.541158 
" style="fill:none;stroke:#4169e1;stroke-linecap:square;stroke-width:0.544626;"/>
   </g>
   <g id="line2d_14">
    <path clip-path="url(#pc95ff6bd57)" d="M 60.330723 32.386215 
L 59.879445 32.302299 
L 59.428168 32.218383 
L 59.144503 32.293455 
L 58.860838 32.368526 
L 58.577173 32.443598 
L 58.293508 32.518669 
L 58.034748 32.766211 
L 57.775989 33.013752 
L 57.51723 33.261294 
L 57.258471 33.508836 
L 57.02619 33.832905 
L 56.79391 34.156974 
L 56.56163 34.481043 
L 56.32935 34.805113 
L 56.097069 35.129182 
L 55.864789 35.453251 
L 55.632509 35.77732 
L 55.400228 36.10139 
L 55.010823 36.412893 
L 54.621417 36.724396 
L 54.232011 37.0359 
L 53.842605 37.347403 
L 53.546356 37.574074 
L 53.250107 37.800744 
L 52.953857 38.027415 
L 52.657608 38.254085 
L 52.361359 38.480756 
L 52.06511 38.707426 
L 51.768861 38.934097 
L 51.472612 39.160767 
L 51.141582 39.344347 
L 50.810552 39.527927 
L 50.479522 39.711507 
L 50.148492 39.895087 
L 49.898209 40.223201 
L 49.647927 40.551315 
L 49.65352 40.862818 
L 49.659113 41.174322 
L 50.061452 41.427904 
L 50.463792 41.681486 
L 50.866131 41.935068 
L 51.268471 42.188649 
" style="fill:none;stroke:#4169e1;stroke-linecap:square;stroke-width:0.544626;"/>
   </g>
   <g id="line2d_15">
    <path clip-path="url(#pc95ff6bd57)" d="M 62.525588 33.101983 
L 62.79361 33.266256 
L 63.061633 33.430528 
L 63.329655 33.594801 
L 63.597678 33.759074 
L 63.999318 34.047711 
L 64.400958 34.336347 
L 64.881074 34.624769 
L 65.36119 34.91319 
L 65.740808 35.233753 
L 66.120427 35.554317 
L 66.500045 35.874881 
L 66.879663 36.195445 
L 67.219957 36.370504 
L 67.56025 36.545562 
L 67.900543 36.720621 
L 68.240836 36.89568 
L 68.469621 37.140957 
L 68.698406 37.386233 
L 69.078024 37.793194 
L 69.457643 38.200155 
L 69.837261 38.607115 
L 70.216879 39.014076 
L 70.52982 39.364949 
L 70.84276 39.715821 
L 71.155701 40.066694 
L 71.468641 40.417567 
L 71.608289 40.722437 
L 71.747937 41.027307 
L 71.887584 41.332177 
L 72.027232 41.637047 
L 72.16688 41.941917 
L 72.306528 42.246787 
L 72.446176 42.551657 
L 72.585823 42.856527 
L 72.640879 43.320654 
L 72.695934 43.784781 
L 72.750989 44.248908 
L 72.806044 44.713035 
L 72.780483 45.023783 
L 72.754921 45.334532 
L 72.72936 45.64528 
L 72.703799 45.956029 
L 72.678237 46.266777 
L 72.652676 46.577525 
L 72.627115 46.888274 
L 72.601554 47.199022 
L 72.468897 47.69389 
L 72.33624 48.188757 
L 72.256978 48.484081 
L 72.177716 48.779406 
L 72.098454 49.07473 
L 72.019192 49.370054 
L 72.070402 49.657289 
L 72.121612 49.944523 
L 72.172823 50.231758 
L 72.224033 50.518993 
L 72.381333 50.833624 
L 72.538633 51.148255 
L 72.695934 51.462887 
L 72.853234 51.777518 
L 73.257322 52.046308 
L 73.661409 52.315099 
" style="fill:none;stroke:#4169e1;stroke-linecap:square;stroke-width:0.544626;"/>
   </g>
   <g id="line2d_16">
    <path clip-path="url(#pc95ff6bd57)" d="M 76.966465 15.474859 
L 76.596722 15.888615 
L 76.226979 16.302371 
L 75.857235 16.716127 
L 75.487492 17.129883 
L 75.186742 17.503029 
L 74.885993 17.876175 
L 74.585243 18.249321 
L 74.284493 18.622468 
L 73.983744 18.995614 
L 73.682994 19.36876 
L 73.382244 19.741906 
L 73.081495 20.115052 
" style="fill:none;stroke:#000000;stroke-linecap:square;stroke-width:0.544626;"/>
   </g>
   <g id="line2d_17">
    <path clip-path="url(#pc95ff6bd57)" d="M 96.693686 20.775163 
L 96.190674 20.50195 
L 95.687662 20.228738 
L 95.18465 19.955525 
L 94.681638 19.682313 
L 94.378923 19.318389 
L 94.076207 18.954465 
L 93.817579 18.6435 
L 93.55895 18.332536 
L 93.300322 18.021572 
L 93.041694 17.710608 
L 92.783066 17.399644 
L 92.524438 17.08868 
L 92.26581 16.777716 
L 92.007182 16.466752 
L 91.487566 16.686573 
L 90.96795 16.906394 
L 90.884581 17.242922 
L 90.801212 17.579449 
L 90.717843 17.915976 
L 90.634473 18.252503 
L 90.329136 18.629155 
L 90.023798 19.005807 
L 89.572346 18.935265 
L 89.120894 18.864724 
L 88.636409 18.580833 
L 88.151923 18.296942 
" style="fill:none;stroke:#4169e1;stroke-linecap:square;stroke-width:0.544626;"/>
   </g>
   <g id="line2d_18">
    <path clip-path="url(#pc95ff6bd57)" d="M 68.698406 37.386233 
L 68.610973 37.825498 
L 68.52354 38.264764 
L 68.436107 38.704029 
L 68.348675 39.143294 
L 68.261242 39.582559 
L 68.173809 40.021824 
L 68.086376 40.461089 
L 67.998943 40.900354 
L 67.877298 41.337516 
L 67.755652 41.774678 
L 67.634006 42.21184 
L 67.512361 42.649001 
L 67.319056 42.905064 
L 67.125751 43.161127 
L 66.932446 43.417189 
L 66.739142 43.673252 
L 66.545837 43.929315 
L 66.352532 44.185378 
L 66.159228 44.44144 
L 65.965923 44.697503 
" style="fill:none;stroke:#008000;stroke-linecap:square;stroke-width:0.544626;"/>
   </g>
   <g id="line2d_19">
    <path clip-path="url(#pc95ff6bd57)" d="M 74.145195 13.54932 
L 74.115308 13.865137 
L 74.085421 14.180955 
L 74.055534 14.496773 
L 74.025647 14.812591 
L 73.887921 15.194204 
L 73.750196 15.575817 
L 73.612471 15.957431 
L 73.474746 16.339044 
L 73.444072 16.631564 
L 73.413398 16.924084 
L 73.382725 17.216603 
L 73.352051 17.509123 
L 73.321378 17.801643 
L 73.290704 18.094163 
L 73.260031 18.386683 
L 73.229357 18.679203 
L 73.192391 19.038165 
L 73.155426 19.397127 
L 73.11846 19.75609 
L 73.081495 20.115052 
L 73.002801 20.52417 
L 72.924107 20.933288 
L 72.845413 21.342406 
L 72.766719 21.751524 
L 72.688025 22.160641 
L 72.609331 22.569759 
L 72.530637 22.978877 
L 72.451943 23.387995 
L 72.318194 23.917055 
L 72.184445 24.446114 
L 72.050696 24.975174 
L 71.916947 25.504234 
L 71.783198 26.033293 
L 71.649449 26.562353 
L 71.5157 27.091412 
L 71.381951 27.620472 
L 71.236404 28.063027 
L 71.090858 28.505582 
L 70.945311 28.948137 
L 70.799765 29.390692 
L 70.654218 29.833246 
L 70.508671 30.275801 
L 70.363125 30.718356 
L 70.217578 31.160911 
L 70.083829 31.607349 
L 69.95008 32.053787 
L 69.816331 32.500225 
L 69.682582 32.946663 
L 69.548833 33.3931 
L 69.415084 33.839538 
L 69.281335 34.285976 
L 69.147586 34.732414 
L 69.091438 35.064142 
L 69.035291 35.395869 
L 68.979143 35.727596 
L 68.922996 36.059324 
L 68.866848 36.391051 
L 68.810701 36.722779 
L 68.754553 37.054506 
L 68.698406 37.386233 
" style="fill:none;stroke:#000000;stroke-linecap:square;stroke-width:0.544626;"/>
   </g>
   <g id="line2d_20">
    <path clip-path="url(#pc95ff6bd57)" d="M 98.107642 58.946842 
L 97.761406 58.542578 
L 97.41517 58.138314 
L 97.068934 57.73405 
L 96.722699 57.329786 
L 96.406001 57.14297 
L 96.089302 56.956154 
L 95.772604 56.769339 
L 95.455906 56.582523 
L 95.139208 56.395707 
L 94.82251 56.208891 
L 94.505812 56.022076 
L 94.189113 55.83526 
L 93.903089 55.772215 
L 93.617064 55.70917 
L 93.33104 55.646125 
L 93.045015 55.58308 
L 92.75899 55.520035 
L 92.472966 55.45699 
L 92.186941 55.393945 
L 91.900917 55.3309 
L 91.473759 55.236738 
L 91.046601 55.142575 
L 90.619443 55.048412 
L 90.192285 54.954249 
L 89.893304 54.94047 
L 89.594324 54.92669 
L 89.295344 54.912911 
L 88.996364 54.899132 
L 88.697384 54.885352 
L 88.398404 54.871573 
L 88.099424 54.857794 
L 87.800444 54.844015 
L 87.501464 54.830235 
L 87.202484 54.816456 
L 86.903504 54.802677 
L 86.604524 54.788897 
L 86.305544 54.775118 
L 86.006564 54.761339 
L 85.707584 54.74756 
L 85.408604 54.73378 
L 84.999798 54.661999 
L 84.590991 54.590217 
L 84.182185 54.518435 
L 83.773379 54.446654 
L 83.364572 54.374872 
L 82.955766 54.30309 
L 82.54696 54.231309 
L 82.138154 54.159527 
" style="fill:none;stroke:#008000;stroke-linecap:square;stroke-width:0.544626;"/>
   </g>
   <g id="line2d_21">
    <path clip-path="url(#pc95ff6bd57)" d="M 86.947352 22.217484 
L 87.156867 22.604706 
L 87.366383 22.991928 
L 87.575898 23.37915 
L 87.785413 23.766372 
L 87.994929 24.153594 
L 88.204444 24.540817 
L 88.41396 24.928039 
L 88.623475 25.315261 
L 88.818528 25.724378 
L 89.01358 26.133496 
L 89.208633 26.542614 
L 89.403685 26.951732 
L 89.367506 27.285509 
L 89.331327 27.619286 
L 89.295148 27.953062 
L 89.258969 28.286839 
L 89.22279 28.620616 
L 89.186611 28.954393 
L 89.150431 29.288169 
L 89.114252 29.621946 
L 88.958481 29.914035 
L 88.80271 30.206123 
L 88.646939 30.498211 
L 88.491168 30.7903 
L 88.335397 31.082388 
L 88.179626 31.374476 
L 88.023855 31.666565 
L 87.868083 31.958653 
L 87.548196 32.286821 
L 87.228308 32.614989 
L 86.90842 32.943157 
L 86.588532 33.271325 
L 86.268644 33.599493 
L 85.948756 33.927661 
L 85.628868 34.255829 
L 85.30898 34.583997 
L 85.022475 34.912219 
L 84.73597 35.240441 
L 84.449465 35.568663 
L 84.162959 35.896885 
L 83.876454 36.225107 
L 83.589949 36.553328 
L 83.303444 36.88155 
L 83.016939 37.209772 
L 82.552378 37.540745 
L 82.087817 37.871717 
L 81.623257 38.202689 
L 81.158696 38.533662 
L 80.694136 38.864634 
L 80.229575 39.195606 
L 79.765015 39.526579 
L 79.300454 39.857551 
L 79.10243 40.103583 
L 78.904407 40.349614 
L 78.706383 40.595646 
L 78.508359 40.841678 
L 78.310335 41.087709 
L 78.112312 41.333741 
L 77.914288 41.579772 
L 77.716264 41.825804 
L 77.491587 42.178025 
L 77.266909 42.530246 
L 77.042232 42.882467 
L 76.817554 43.234688 
L 76.592877 43.586909 
L 76.368199 43.93913 
L 76.143522 44.291351 
L 75.918845 44.643572 
L 75.706839 44.920344 
L 75.494833 45.197117 
L 75.282827 45.473889 
L 75.070821 45.750661 
L 74.858815 46.027433 
L 74.646809 46.304205 
L 74.434803 46.580977 
L 74.222797 46.857749 
L 73.751157 47.190501 
L 73.279518 47.523253 
L 72.807879 47.856005 
L 72.33624 48.188757 
" style="fill:none;stroke:#000000;stroke-linecap:square;stroke-width:0.544626;"/>
   </g>
   <g id="line2d_22">
    <path clip-path="url(#pc95ff6bd57)" d="M 46.444591 9.991191 
L 44.318676 13.893181 
L 39.849597 23.927625 
L 38.441321 27.884301 
L 37.800059 30.417531 
L 37.595569 30.991785 
L 36.730067 31.479318 
L 30.774018 32.496234 
L 26.969489 33.82131 
L 23.571756 34.652543 
L 20.382315 34.869668 
L 18.162675 34.616355 
L 16.126509 33.715066 
L 15.220109 31.884013 
L 14.474505 31.049598 
L 12.89451 30.192748 
L 12.047534 28.996351 
L 11.641262 26.382872 
L 11.724894 25.284628 
L 11.724894 25.284628 
" style="fill:none;stroke:#4169e1;stroke-linecap:square;stroke-width:0.544626;"/>
   </g>
   <g id="line2d_23">
    <path clip-path="url(#pc95ff6bd57)" d="M 43.900869 8.17567 
L 43.501937 8.588347 
L 43.103006 9.001025 
L 42.704075 9.413702 
L 42.305143 9.826379 
L 41.94711 10.241322 
L 41.589077 10.656264 
L 41.231044 11.071206 
L 40.873011 11.486149 
L 40.63505 11.793014 
L 40.397089 12.09988 
L 40.159129 12.406745 
L 39.921168 12.71361 
L 39.744467 13.029428 
L 39.567767 13.345246 
L 39.351391 13.753609 
L 39.135016 14.161972 
L 38.881937 14.512413 
L 38.628858 14.862854 
L 38.375779 15.213296 
L 38.1227 15.563737 
L 37.669238 15.908677 
L 37.215776 16.253618 
L 36.762314 16.598558 
L 36.308852 16.943499 
L 35.950032 17.241088 
L 35.591212 17.538677 
L 35.232392 17.836267 
L 34.873573 18.133856 
L 34.518598 18.498427 
L 34.163623 18.862998 
L 33.857062 19.267586 
L 33.550501 19.672174 
L 33.24394 20.076761 
L 32.937379 20.481349 
L 32.639732 20.957017 
L 32.342085 21.432686 
L 32.044437 21.908354 
L 31.74679 22.384022 
L 31.493711 22.823557 
L 31.240632 23.263092 
L 30.987553 23.702626 
L 30.734474 24.142161 
L 30.414543 24.434142 
L 30.094611 24.726122 
L 29.77468 25.018103 
L 29.454748 25.310083 
L 29.10423 25.51599 
L 28.753712 25.721898 
L 28.403195 25.927805 
L 28.052677 26.133712 
L 27.762021 26.260233 
L 27.471364 26.386755 
L 27.180708 26.513276 
L 26.890052 26.639797 
L 26.599396 26.766319 
L 26.30874 26.89284 
L 26.018083 27.019361 
L 25.727427 27.145882 
L 25.440878 27.429665 
L 25.154329 27.713449 
L 24.86778 27.997232 
L 24.581231 28.281015 
L 24.130653 28.625955 
L 23.680075 28.970895 
L 23.123756 29.076599 
L 22.567437 29.182304 
L 22.253098 29.129452 
L 21.938759 29.076599 
L 21.624421 29.023747 
L 21.310082 28.970895 
L 20.809342 28.728855 
L 20.308603 28.486814 
L 19.807863 28.244773 
L 19.307123 28.002732 
L 18.734025 28.01395 
L 18.160928 28.025168 
L 17.713146 28.119654 
L 17.265364 28.214141 
L 16.817582 28.308627 
L 16.3698 28.403114 
L 15.949721 28.297517 
L 15.529641 28.191921 
L 15.109562 28.086325 
L 14.689482 27.980729 
L 14.294483 27.71086 
L 13.899484 27.440991 
L 13.504486 27.171122 
L 13.109487 26.901253 
L 12.763338 26.497097 
L 12.41719 26.09294 
L 12.071042 25.688784 
L 11.724894 25.284628 
" style="fill:none;stroke:#4169e1;stroke-linecap:square;stroke-width:0.544626;"/>
   </g>
   <g id="line2d_24">
    <path clip-path="url(#pc95ff6bd57)" d="M 102.263169 29.436856 
L 102.019659 29.620059 
L 101.776149 29.803261 
L 101.53264 29.986463 
L 101.28913 30.169666 
L 101.04562 30.352868 
L 100.80211 30.536071 
L 100.558601 30.719273 
L 100.315091 30.902475 
L 100.065289 31.37453 
L 99.815487 31.846585 
L 99.565685 32.31864 
L 99.315884 32.790695 
L 99.066082 33.26275 
L 98.81628 33.734805 
L 98.566478 34.20686 
L 98.316676 34.678915 
L 98.001988 35.036799 
L 97.6873 35.394682 
L 97.372612 35.752566 
L 97.057923 36.11045 
L 96.916309 36.490068 
L 96.774695 36.869686 
L 96.633081 37.249303 
L 96.491467 37.628921 
L 96.349853 38.008539 
L 96.208239 38.388157 
L 96.066625 38.767775 
L 95.925011 39.147392 
L 95.759758 39.55651 
L 95.594505 39.965628 
L 95.429252 40.374746 
L 95.264 40.783864 
L 95.059422 41.008054 
L 94.854844 41.232243 
L 94.650266 41.456433 
L 94.445688 41.680623 
L 94.24111 41.904812 
L 94.036532 42.129002 
L 93.831954 42.353192 
L 93.627376 42.577381 
L 93.426774 42.840941 
L 93.226173 43.1045 
L 93.025571 43.368059 
L 92.824969 43.631618 
L 92.624367 43.895177 
L 92.423766 44.158736 
L 92.223164 44.422295 
L 92.022562 44.685854 
L 91.823228 44.99822 
L 91.623893 45.310587 
L 91.424559 45.622953 
L 91.225224 45.935319 
L 91.025889 46.247685 
L 90.826555 46.560052 
L 90.62722 46.872418 
L 90.427886 47.184784 
L 90.19814 47.392525 
L 89.968394 47.600266 
L 89.738648 47.808007 
L 89.508902 48.015748 
L 89.084016 48.220253 
L 88.65913 48.424758 
L 88.100539 48.440506 
L 87.541947 48.456253 
L 86.983356 48.472001 
L 86.424765 48.487749 
L 85.992014 48.531001 
L 85.559263 48.574254 
L 85.126512 48.617506 
L 84.693761 48.660758 
L 84.35941 48.794506 
L 84.025059 48.928254 
L 83.690709 49.062002 
L 83.356358 49.19575 
L 83.022007 49.329498 
L 82.687656 49.463246 
L 82.353306 49.596994 
L 82.018955 49.730742 
L 81.629461 49.9785 
L 81.239968 50.226257 
L 80.850475 50.474014 
L 80.460982 50.721772 
L 80.256404 50.946015 
L 80.051826 51.170259 
L 79.847248 51.394503 
L 79.64267 51.618746 
L 79.497167 52.027864 
L 79.351664 52.436982 
L 79.206161 52.8461 
L 79.060658 53.255218 
" style="fill:none;stroke:#ff0000;stroke-linecap:square;stroke-width:0.544626;"/>
   </g>
   <g id="line2d_25">
    <path clip-path="url(#pc95ff6bd57)" d="M 75.810832 13.64208 
L 76.211423 13.809481 
L 76.612015 13.976882 
L 76.901972 14.104158 
L 77.191929 14.231434 
L 77.475332 14.355259 
L 77.758735 14.479084 
L 78.042138 14.602909 
L 78.325541 14.726733 
L 78.872946 14.799 
L 79.420352 14.871268 
L 79.967757 14.943535 
L 80.515163 15.015802 
L 80.960541 15.000539 
L 81.40592 14.985277 
L 81.851299 14.970015 
L 82.296677 14.954752 
L 82.742056 14.93949 
L 83.187435 14.924227 
L 83.632813 14.908965 
L 84.078192 14.893703 
L 84.403629 15.027235 
L 84.729066 15.160767 
L 85.054503 15.2943 
L 85.37994 15.427832 
L 85.76218 15.834361 
L 86.14442 16.24089 
L 86.52666 16.647419 
L 86.9089 17.053949 
L 87.219656 17.364697 
L 87.530412 17.675445 
L 87.841168 17.986194 
L 88.151923 18.296942 
" style="fill:none;stroke:#008000;stroke-linecap:square;stroke-width:0.544626;"/>
   </g>
   <g id="line2d_26">
    <path clip-path="url(#pc95ff6bd57)" d="M 75.810832 13.64208 
L 75.394422 13.61889 
L 74.978013 13.5957 
L 74.561604 13.57251 
L 74.145195 13.54932 
L 73.749322 13.370593 
L 73.35345 13.191867 
L 72.957577 13.013141 
L 72.561704 12.834415 
L 72.142498 12.666043 
L 71.723293 12.497672 
L 71.304087 12.329301 
L 70.884882 12.160929 
L 70.604231 12.04816 
L 70.323581 11.935391 
L 70.042931 11.822622 
L 69.762281 11.709853 
L 69.481631 11.597084 
L 69.200981 11.484315 
L 68.920331 11.371546 
L 68.63968 11.258777 
L 68.241273 11.098819 
L 67.842866 10.938861 
L 67.444459 10.778902 
L 67.046052 10.618944 
L 66.58289 10.589714 
L 66.119728 10.560483 
L 65.656565 10.531253 
L 65.193403 10.502022 
L 64.730241 10.472792 
L 64.267078 10.443562 
L 63.803916 10.414331 
L 63.340754 10.385101 
L 62.951348 10.504719 
L 62.561942 10.624337 
L 62.172536 10.743955 
L 61.78313 10.863573 
L 61.41627 10.877056 
L 61.049411 10.890539 
L 60.682551 10.904021 
L 60.315692 10.917504 
L 59.883203 10.953638 
L 59.450714 10.989771 
L 59.018225 11.025905 
L 58.585737 11.062038 
L 58.025922 10.913837 
L 57.466107 10.765635 
L 57.09549 10.717745 
L 56.724873 10.669855 
L 56.354256 10.621964 
L 55.983638 10.574074 
" style="fill:none;stroke:#008000;stroke-linecap:square;stroke-width:0.544626;"/>
   </g>
   <g id="line2d_27">
    <path clip-path="url(#pc95ff6bd57)" d="M 80.515163 15.015802 
L 80.632264 15.482032 
L 80.749366 15.948263 
L 80.866467 16.414493 
L 80.983568 16.880723 
L 81.10067 17.346954 
L 81.217771 17.813184 
L 81.334873 18.279415 
L 81.451974 18.745645 
L 81.55103 19.158916 
L 81.650085 19.572186 
L 81.749141 19.985457 
L 81.848196 20.398727 
L 81.947252 20.811998 
L 82.046308 21.225268 
L 82.145363 21.638539 
L 82.244419 22.051809 
L 82.300086 22.591439 
L 82.355752 23.131069 
L 82.411419 23.670699 
L 82.467086 24.21033 
L 82.38363 24.524637 
L 82.300173 24.838945 
L 82.216716 25.153253 
L 82.13326 25.467561 
L 82.049803 25.781869 
L 81.966347 26.096176 
L 81.88289 26.410484 
L 81.799433 26.724792 
L 81.728124 27.103169 
L 81.665903 27.440883 
L 81.603682 27.778597 
L 81.541461 28.11631 
L 81.47924 28.454024 
L 81.376383 28.729394 
L 81.273526 29.004764 
L 81.170669 29.280134 
L 81.067812 29.555504 
L 80.807348 29.851151 
L 80.546885 30.146799 
L 80.286422 30.442447 
L 80.025958 30.738095 
L 79.765495 31.033743 
L 79.505032 31.32939 
L 79.244569 31.625038 
L 78.984105 31.920686 
L 78.644336 32.308987 
L 78.494857 32.613803 
L 78.345378 32.918619 
L 78.195899 33.223435 
L 78.04642 33.528251 
L 77.896941 33.833067 
L 77.747462 34.137883 
L 77.597983 34.442699 
L 77.448504 34.747515 
L 77.255723 35.042623 
L 77.062943 35.337732 
L 76.870163 35.63284 
L 76.677382 35.927949 
L 76.211511 36.053715 
L 75.745639 36.179481 
L 75.279768 36.305247 
L 74.813897 36.431014 
" style="fill:none;stroke:#000000;stroke-linecap:square;stroke-width:0.544626;"/>
   </g>
   <g id="line2d_28">
    <path clip-path="url(#pc95ff6bd57)" d="M 57.608027 9.770723 
L 57.537067 10.268179 
L 57.466107 10.765635 
L 57.339568 11.114728 
L 57.213028 11.463822 
L 57.086489 11.812915 
L 56.95995 12.162008 
L 56.83341 12.511101 
L 56.706871 12.860194 
L 56.580331 13.209287 
L 56.453792 13.55838 
L 56.348051 13.881101 
L 56.24231 14.203822 
L 56.136569 14.526543 
L 56.030828 14.849264 
L 55.936273 15.299908 
L 55.841718 15.750553 
L 55.787493 16.042587 
L 55.733268 16.334622 
L 55.679043 16.626656 
L 55.624819 16.918691 
L 55.570594 17.210725 
L 55.516369 17.502759 
L 55.462144 17.794794 
L 55.407919 18.086828 
L 55.163054 18.515253 
L 54.91819 18.943678 
L 54.673326 19.372103 
L 54.428461 19.800529 
L 54.278327 20.312222 
L 54.128192 20.823916 
L 54.136582 21.330217 
L 54.144971 21.836518 
L 54.153361 22.342819 
L 54.16175 22.84912 
L 54.178397 23.195409 
L 54.195045 23.541697 
L 54.211693 23.887986 
L 54.22834 24.234275 
L 54.244988 24.580563 
L 54.261636 24.926852 
L 54.278283 25.273141 
L 54.294931 25.619429 
L 54.19487 25.983785 
L 54.09481 26.34814 
L 53.994749 26.712496 
L 53.894689 27.076851 
L 53.59975 27.574739 
L 53.304812 28.072627 
L 53.009874 28.570514 
L 52.714936 29.068402 
L 52.510489 29.329858 
L 52.306042 29.591314 
L 52.101595 29.852769 
L 51.897148 30.114225 
L 51.692701 30.375681 
L 51.488254 30.637137 
L 51.283808 30.898592 
L 51.079361 31.160048 
L 50.901349 31.58006 
L 50.723338 32.000072 
L 50.545326 32.420084 
L 50.367314 32.840096 
L 50.283202 33.136175 
L 50.19909 33.432254 
L 50.114978 33.728333 
L 50.030866 34.024413 
L 49.946754 34.320492 
L 49.862642 34.616571 
L 49.77853 34.91265 
L 49.694418 35.20873 
L 49.642858 35.57891 
L 49.591299 35.949089 
L 49.539739 36.319269 
L 49.48818 36.689449 
L 49.532748 37.065022 
L 49.577317 37.440595 
L 49.621885 37.816168 
L 49.666453 38.191741 
L 49.786963 38.617578 
L 49.907473 39.043414 
L 50.027982 39.469251 
L 50.148492 39.895087 
" style="fill:none;stroke:#4169e1;stroke-linecap:square;stroke-width:0.544626;"/>
   </g>
   <g id="line2d_29">
    <path clip-path="url(#pc95ff6bd57)" d="M 51.429966 14.269402 
L 51.354374 14.64368 
L 51.278783 15.017959 
L 51.203191 15.392238 
L 51.1276 15.766516 
L 51.016528 16.058281 
L 50.905456 16.350046 
L 50.794385 16.641811 
L 50.683313 16.933575 
L 50.572242 17.22534 
L 50.46117 17.517105 
L 50.350099 17.80887 
L 50.239027 18.100635 
L 50.077707 18.376004 
L 49.916386 18.651374 
L 49.755066 18.926744 
L 49.593746 19.202114 
L 49.432425 19.477484 
L 49.271105 19.752854 
L 49.109785 20.028224 
L 48.948464 20.303594 
L 48.67581 20.74302 
L 48.403156 21.182447 
L 48.314107 21.463426 
L 48.225057 21.744405 
L 48.136008 22.025383 
L 48.046958 22.306362 
L 48.038656 22.754202 
L 48.030354 23.202042 
L 48.022052 23.649882 
L 48.01375 24.097722 
L 47.972022 24.424542 
L 47.930294 24.751362 
L 47.888565 25.078181 
L 47.846837 25.405001 
L 47.805109 25.731821 
L 47.763381 26.058641 
L 47.721652 26.38546 
L 47.679924 26.71228 
L 47.551986 27.240692 
L 47.424049 27.769105 
L 47.296111 28.297517 
L 47.168173 28.82593 
L 46.962285 29.215525 
L 46.756396 29.60512 
L 46.54806 29.848239 
L 46.339724 30.091359 
L 46.020405 30.370396 
L 45.701085 30.649433 
L 45.381765 30.92847 
L 45.062445 31.207507 
" style="fill:none;stroke:#000000;stroke-linecap:square;stroke-width:0.544626;"/>
   </g>
   <g id="line2d_30">
    <path clip-path="url(#pc95ff6bd57)" d="M 62.525588 33.101983 
L 62.045647 32.844194 
L 61.565706 32.586406 
L 61.25696 32.536358 
L 60.948214 32.486311 
L 60.639468 32.436263 
L 60.330723 32.386215 
L 59.952328 32.736549 
L 59.573933 33.086882 
L 59.44735 33.392885 
L 59.320767 33.698887 
L 59.194183 34.00489 
L 59.0676 34.310892 
L 58.941017 34.616895 
L 58.814434 34.922897 
L 58.687851 35.2289 
L 58.561268 35.534902 
L 58.424984 35.881191 
L 58.288701 36.227479 
L 58.152418 36.573768 
L 58.016134 36.920057 
L 57.879851 37.266345 
L 57.743568 37.612634 
L 57.607284 37.958923 
L 57.471001 38.305211 
L 57.386146 38.707103 
L 57.301291 39.108994 
L 57.216437 39.510885 
L 57.131582 39.912776 
L 57.046727 40.314667 
L 56.961872 40.716559 
L 56.877017 41.11845 
L 56.792162 41.520341 
L 56.753493 41.865551 
L 56.714823 42.210761 
L 56.676153 42.555971 
L 56.637484 42.901181 
L 56.598814 43.246391 
L 56.560144 43.591601 
L 56.521475 43.936811 
L 56.482805 44.282021 
" style="fill:none;stroke:#008000;stroke-linecap:square;stroke-width:0.544626;"/>
   </g>
   <g id="line2d_31">
    <path clip-path="url(#pc95ff6bd57)" d="M 61.78313 10.863573 
L 61.947771 11.111439 
L 62.112412 11.359304 
L 62.277053 11.607169 
L 62.441694 11.855034 
L 62.569632 12.238805 
L 62.69757 12.622575 
L 62.666983 12.97032 
L 62.636397 13.318065 
L 62.605811 13.66581 
L 62.575225 14.013555 
L 62.498759 14.316753 
L 62.422294 14.619951 
L 62.345828 14.923149 
L 62.269363 15.226347 
L 62.192897 15.529545 
L 62.116432 15.832743 
L 62.039967 16.135941 
L 61.963501 16.439139 
L 61.80655 16.912542 
L 61.649599 17.385946 
L 61.492648 17.859349 
L 61.335698 18.332752 
L 61.23922 18.62689 
L 61.142742 18.921028 
L 61.046265 19.215165 
L 60.949787 19.509303 
L 60.844003 19.829705 
L 60.738218 20.150107 
L 60.632434 20.470509 
L 60.526649 20.790911 
L 60.420865 21.111313 
L 60.31508 21.431715 
L 60.209296 21.752117 
L 60.103511 22.072519 
L 60.084198 22.37356 
L 60.064885 22.6746 
L 60.045572 22.975641 
L 60.026259 23.276682 
L 60.006946 23.577723 
L 59.987633 23.878764 
L 59.96832 24.179805 
L 59.949007 24.480846 
L 60.000217 24.771855 
L 60.051427 25.062865 
L 60.102637 25.353875 
L 60.153847 25.644885 
L 60.256092 26.113003 
L 60.358338 26.581121 
L 60.460583 27.049239 
L 60.562828 27.517357 
L 60.579083 28.032071 
L 60.595337 28.546785 
L 60.461806 28.84157 
L 60.328276 29.136355 
L 60.194745 29.43114 
L 60.061215 29.725924 
L 59.840251 30.075018 
L 59.619288 30.424111 
L 59.398324 30.773204 
L 59.177361 31.122297 
L 58.956398 31.47139 
L 58.735434 31.820483 
L 58.514471 32.169576 
L 58.293508 32.518669 
" style="fill:none;stroke:#000000;stroke-linecap:square;stroke-width:0.544626;"/>
   </g>
   <g id="line2d_32">
    <path clip-path="url(#pc95ff6bd57)" d="M 50.085572 11.047801 
L 50.826194 13.199633 
L 51.429966 14.269402 
L 52.783449 15.268629 
L 52.862099 15.512395 
L 52.736259 15.7169 
L 52.062488 15.782695 
L 49.108561 15.841803 
L 48.77089 15.866612 
L 47.269982 15.327737 
L 44.621654 14.327431 
L 42.219153 13.941288 
L 39.921693 13.496036 
L 37.571362 12.403617 
L 36.023526 10.579898 
L 34.896294 9.154188 
L 33.860208 8.390961 
L 32.130603 7.759973 
L 30.138393 7.276431 
L 29.078975 7.130278 
L 27.375236 7.062542 
L 27.320007 7.353767 
L 27.433263 7.618243 
L 29.223167 8.589426 
L 31.055367 10.25955 
L 32.338239 12.276125 
L 33.050898 15.044439 
L 33.738563 17.940137 
L 34.163623 18.862998 
L 35.034325 19.804897 
L 42.094011 24.957593 
L 43.927435 26.822299 
L 44.690517 28.120517 
L 46.186269 29.791504 
L 48.474903 34.054182 
L 48.950911 34.583242 
L 49.95368 35.342397 
L 54.506587 37.576069 
L 55.17057 37.804735 
L 56.153872 38.670214 
L 56.366403 38.93771 
L 56.527548 40.054937 
L 56.669643 41.047261 
L 56.792162 41.520341 
L 56.792162 41.520341 
" style="fill:none;stroke:#008000;stroke-linecap:square;stroke-width:0.544626;"/>
   </g>
   <g id="line2d_33">
    <path clip-path="url(#pc95ff6bd57)" d="M 106.733647 63.118054 
L 106.684534 63.476154 
L 106.635422 63.834253 
L 106.529156 64.109623 
L 106.422891 64.384993 
L 106.316626 64.660363 
L 106.210361 64.935733 
L 105.982232 65.191364 
L 105.754102 65.446995 
L 105.525973 65.702626 
L 105.297844 65.958258 
L 105.069714 66.213889 
L 104.841585 66.46952 
L 104.613456 66.725151 
L 104.385326 66.980783 
L 103.987968 67.31127 
L 103.59061 67.641757 
L 103.193251 67.972244 
L 102.795893 68.302731 
L 102.284142 68.382548 
L 101.772392 68.462365 
L 101.347681 68.528592 
L 100.922969 68.594819 
L 100.498258 68.661046 
L 100.073547 68.727273 
L 99.747061 68.67221 
L 99.420576 68.617146 
L 99.09409 68.562083 
L 98.767604 68.50702 
L 98.441118 68.451957 
L 98.114633 68.396894 
L 97.788147 68.34183 
L 97.461661 68.286767 
L 96.983817 68.009348 
L 96.662662 67.823072 
L 96.341507 67.636795 
L 96.020352 67.450519 
L 95.699197 67.264242 
L 95.407929 66.8301 
L 95.116661 66.395959 
L 94.825394 65.961817 
L 94.534126 65.527675 
L 94.242858 65.093534 
L 93.95159 64.659392 
L 93.660322 64.22525 
L 93.369054 63.791109 
L 93.101818 63.392885 
L 92.834582 62.994661 
L 92.567346 62.596437 
L 92.30011 62.198213 
L 92.054372 61.890107 
L 91.808634 61.582002 
L 91.562895 61.273896 
L 91.317157 60.96579 
L 91.071419 60.657684 
L 90.825681 60.349578 
L 90.579943 60.041473 
L 90.334204 59.733367 
" style="fill:none;stroke:#4169e1;stroke-linecap:square;stroke-width:0.544626;"/>
   </g>
   <g id="line2d_34">
    <path clip-path="url(#pc95ff6bd57)" d="M 110.443839 43.420425 
L 110.030926 43.65977 
L 109.618012 43.899114 
L 109.205099 44.138458 
L 108.792185 44.377802 
L 108.445075 44.79803 
L 108.272395 45.122908 
L 108.099714 45.447786 
L 108.005333 45.817535 
L 107.910953 46.187283 
L 107.816573 46.557032 
L 107.722193 46.92678 
L 107.686713 47.430169 
L 107.651233 47.933557 
L 107.615753 48.436946 
L 107.580273 48.940335 
L 107.245922 49.329822 
L 106.911571 49.719309 
L 106.57722 50.108796 
L 106.24287 50.498283 
L 106.091424 50.818847 
L 105.939979 51.139411 
L 105.788534 51.459974 
L 105.637088 51.780538 
L 105.485643 52.101102 
L 105.334198 52.421666 
L 105.182752 52.742229 
L 105.031307 53.062793 
L 104.889649 53.613425 
L 104.747991 54.164057 
L 104.606334 54.714689 
L 104.464676 55.265321 
L 104.361906 55.803333 
L 104.259137 56.341345 
L 104.184681 56.654466 
L 104.110226 56.967588 
L 104.03577 57.280709 
L 103.961314 57.59383 
L 103.709546 57.774714 
L 103.457778 57.955597 
L 103.20601 58.13648 
L 102.954242 58.317364 
L 102.614735 58.361479 
L 102.275229 58.405594 
L 101.935722 58.44971 
L 101.596215 58.493825 
L 101.023729 58.568141 
L 100.451243 58.642458 
L 99.878757 58.716774 
L 99.306271 58.791091 
L 99.006613 58.830029 
L 98.706956 58.868967 
L 98.407299 58.907904 
L 98.107642 58.946842 
" style="fill:none;stroke:#4169e1;stroke-linecap:square;stroke-width:0.544626;"/>
   </g>
   <g id="line2d_35">
    <path clip-path="url(#pc95ff6bd57)" d="M 53.607004 11.32824 
L 53.613645 11.773168 
L 53.620287 12.218096 
L 53.626928 12.663023 
L 53.63357 13.107951 
L 53.688625 13.43833 
L 53.74368 13.768709 
L 53.798735 14.099089 
L 53.853791 14.429468 
L 53.881406 14.933072 
L 53.909021 15.436676 
L 53.936635 15.940281 
L 53.96425 16.443885 
L 53.83439 16.790012 
L 53.70453 17.136139 
L 53.57467 17.482266 
L 53.44481 17.828393 
L 53.273702 18.125389 
L 53.102594 18.422385 
L 52.931486 18.719381 
L 52.760378 19.016377 
L 52.58927 19.313373 
L 52.418162 19.610369 
L 52.247054 19.907365 
L 52.075946 20.204361 
L 51.997209 20.530857 
L 51.918471 20.857353 
L 51.839734 21.18385 
L 51.760996 21.510346 
L 51.776726 22.002085 
L 51.792456 22.493825 
L 51.808186 22.985565 
L 51.823916 23.477304 
L 51.782625 23.809679 
L 51.741333 24.142053 
L 51.700042 24.474428 
L 51.658751 24.806802 
L 51.617459 25.139177 
L 51.576168 25.471552 
L 51.534877 25.803926 
L 51.493585 26.136301 
L 51.381465 26.437234 
L 51.269345 26.738167 
L 51.157224 27.0391 
L 51.045104 27.340033 
L 50.932984 27.640966 
L 50.820864 27.941899 
L 50.708744 28.242832 
L 50.596623 28.543765 
L 50.331091 28.891887 
L 50.06556 29.240009 
L 49.800028 29.588132 
L 49.534496 29.936254 
L 49.268964 30.284376 
L 49.003432 30.632499 
L 48.7379 30.980621 
L 48.472369 31.328743 
L 48.222348 31.600338 
L 47.972328 31.871933 
L 47.722308 32.143527 
L 47.472287 32.415122 
L 47.066103 32.728783 
L 46.659918 33.042443 
L 46.253734 33.356104 
L 45.847549 33.669765 
" style="fill:none;stroke:#000000;stroke-linecap:square;stroke-width:0.544626;"/>
   </g>
   <g id="line2d_36">
    <path clip-path="url(#pc95ff6bd57)" d="M 96.693686 20.775163 
L 96.472678 21.268521 
L 96.251671 21.761878 
L 96.030664 22.255236 
L 95.809657 22.748593 
L 95.526342 23.25209 
L 95.243026 23.755586 
L 95.053567 24.023082 
L 94.864107 24.290578 
L 94.620816 24.636597 
L 94.377524 24.982616 
L 94.062399 25.317634 
L 93.747274 25.652651 
L 93.432149 25.987668 
L 93.117024 26.322685 
L 92.883345 26.614719 
L 92.649667 26.906754 
L 92.415988 27.198788 
L 92.18231 27.490823 
L 91.948631 27.782857 
L 91.714953 28.074892 
L 91.481274 28.366926 
L 91.247596 28.658961 
L 90.980928 28.779334 
L 90.71426 28.899707 
L 90.447592 29.02008 
L 90.180924 29.140453 
L 89.914256 29.260827 
L 89.647588 29.3812 
L 89.38092 29.501573 
L 89.114252 29.621946 
" style="fill:none;stroke:#ff0000;stroke-linecap:square;stroke-width:0.544626;"/>
   </g>
   <g id="line2d_37">
    <path clip-path="url(#pc95ff6bd57)" d="M 60.268851 8.082909 
L 60.250849 8.59374 
L 60.232847 9.104572 
L 60.253558 9.557805 
L 60.274269 10.011038 
L 60.294981 10.464271 
L 60.315692 10.917504 
L 60.243858 11.272691 
L 60.172024 11.627879 
L 60.10019 11.983066 
L 60.028356 12.338253 
L 59.949531 12.630827 
L 59.870706 12.923401 
L 59.791881 13.215974 
L 59.713056 13.508548 
L 59.634231 13.801122 
L 59.555406 14.093696 
L 59.476581 14.386269 
L 59.397756 14.678843 
L 59.293414 15.101551 
L 59.189071 15.52426 
L 59.084729 15.946968 
L 58.980386 16.369677 
L 58.876043 16.792385 
L 58.771701 17.215093 
L 58.667358 17.637802 
L 58.563016 18.06051 
L 58.45745 18.400273 
L 58.351883 18.740036 
L 58.266002 19.035482 
L 58.18012 19.330927 
L 58.094238 19.626373 
L 58.008357 19.921819 
L 57.922475 20.217264 
L 57.836593 20.51271 
L 57.750712 20.808155 
L 57.66483 21.103601 
L 57.578949 21.399046 
L 57.493067 21.694492 
L 57.407185 21.989937 
L 57.321304 22.285383 
L 57.235422 22.580829 
L 57.14954 22.876274 
L 57.063659 23.17172 
L 56.977777 23.467165 
L 56.891895 23.762611 
L 56.806014 24.058056 
L 56.720132 24.353502 
L 56.63425 24.648947 
L 56.548369 24.944393 
L 56.462487 25.239839 
L 56.376605 25.535284 
L 56.290724 25.83073 
L 56.204842 26.126175 
L 56.11896 26.421621 
L 56.033079 26.717066 
L 55.947197 27.012512 
L 55.861315 27.307957 
L 55.775434 27.603403 
L 55.689552 27.898849 
L 55.60367 28.194294 
L 55.517374 28.510921 
L 55.431077 28.827548 
L 55.34478 29.144175 
L 55.258483 29.460801 
L 55.172187 29.777428 
L 55.08589 30.094055 
L 54.999593 30.410682 
L 54.913296 30.727309 
L 54.827 31.043935 
L 54.740703 31.360562 
L 54.654406 31.677189 
L 54.568109 31.993816 
L 54.481813 32.310443 
L 54.395516 32.62707 
L 54.309219 32.943696 
L 54.222922 33.260323 
L 54.175383 33.771208 
L 54.127843 34.282093 
L 54.080303 34.792978 
L 54.032764 35.303863 
L 53.985224 35.814748 
L 53.937684 36.325633 
L 53.890144 36.836518 
L 53.842605 37.347403 
" style="fill:none;stroke:#4169e1;stroke-linecap:square;stroke-width:0.544626;"/>
   </g>
   <g id="line2d_38">
    <path clip-path="url(#pc95ff6bd57)" d="M 40.081615 23.314218 
L 40.24595 23.58495 
L 40.410285 23.855682 
L 40.57462 24.126413 
L 40.738956 24.397145 
L 40.903291 24.667877 
L 41.067626 24.938609 
L 41.231961 25.209341 
L 41.396297 25.480073 
L 41.699187 25.822317 
L 42.002078 26.16456 
L 42.304969 26.506804 
L 42.607859 26.849048 
L 42.91075 27.20704 
L 43.213641 27.565031 
L 43.516531 27.923023 
L 43.819422 28.281015 
L 43.9748 28.646826 
L 44.130178 29.012638 
L 44.285556 29.378449 
L 44.440934 29.744261 
L 44.596311 30.110072 
L 44.751689 30.475884 
L 44.907067 30.841696 
L 45.062445 31.207507 
L 45.173691 31.667967 
L 45.284938 32.128427 
L 45.396184 32.588887 
L 45.50743 33.049347 
L 45.67749 33.359556 
L 45.847549 33.669765 
L 46.042601 34.024844 
L 45.979594 34.422205 
L 45.916586 34.819566 
L 45.853579 35.216927 
L 45.790571 35.614288 
L 45.822031 36.007658 
L 45.853491 36.401028 
L 45.884951 36.794398 
L 45.916412 37.187769 
L 46.128854 37.581031 
L 46.341297 37.974293 
L 46.55374 38.367555 
L 46.766183 38.760818 
L 47.1278 39.062506 
L 47.489416 39.364194 
L 47.851032 39.665882 
L 48.212648 39.96757 
L 48.574264 40.269258 
L 48.93588 40.570946 
L 49.297497 40.872634 
L 49.659113 41.174322 
" style="fill:none;stroke:#008000;stroke-linecap:square;stroke-width:0.544626;"/>
   </g>
   <g id="line2d_39">
    <path clip-path="url(#pc95ff6bd57)" d="M 64.400958 34.336347 
L 64.423811 34.873766 
L 64.446663 35.411185 
L 64.469515 35.948604 
L 64.492367 36.486023 
L 64.51522 37.023442 
L 64.538072 37.560861 
L 64.560924 38.09828 
L 64.583776 38.635698 
L 64.730983 39.076743 
L 64.87819 39.517788 
L 65.025397 39.958833 
L 65.172604 40.399878 
L 65.319811 40.840923 
L 65.467018 41.281967 
L 65.614225 41.723012 
L 65.761432 42.164057 
L 65.925724 42.572204 
L 66.090015 42.980351 
L 66.058992 43.409639 
L 66.027969 43.838927 
L 65.996946 44.268215 
L 65.965923 44.697503 
L 65.855812 45.023891 
L 65.745702 45.35028 
L 65.635592 45.676668 
L 65.525482 46.003056 
L 65.407419 46.50267 
L 65.289356 47.002283 
L 65.171294 47.501897 
L 65.053231 48.00151 
L 65.076826 48.536502 
L 65.100421 49.071494 
L 65.320642 49.606055 
L 65.805127 49.599583 
L 66.289612 49.593111 
" style="fill:none;stroke:#008000;stroke-linecap:square;stroke-width:0.544626;"/>
   </g>
   <g id="line2d_40">
    <path clip-path="url(#pc95ff6bd57)" d="M 72.561704 12.834415 
L 72.334798 13.183562 
L 72.107892 13.532709 
L 71.880987 13.881856 
L 71.654081 14.231003 
L 71.427175 14.58015 
L 71.200269 14.929297 
L 70.973363 15.278444 
L 70.746457 15.627591 
L 70.5057 16.009851 
L 70.264943 16.392112 
L 70.024186 16.774372 
L 69.783429 17.156633 
L 69.542672 17.538893 
L 69.301915 17.921153 
L 69.061158 18.303414 
L 68.820401 18.685674 
L 68.618882 19.005591 
L 68.417362 19.325507 
L 68.236423 19.59694 
L 68.055484 19.868373 
L 67.874545 20.139806 
L 67.693606 20.411239 
L 67.512667 20.682672 
L 67.331727 20.954105 
L 67.150788 21.225538 
L 66.969849 21.496971 
L 66.808529 21.917846 
L 66.647208 22.33872 
L 66.485888 22.759595 
L 66.324568 23.18047 
L 66.306871 23.518777 
L 66.289175 23.857084 
L 66.271479 24.195391 
L 66.253783 24.533698 
L 66.236086 24.872005 
L 66.21839 25.210312 
L 66.200694 25.548618 
L 66.182997 25.886925 
L 66.094341 26.178798 
L 66.005685 26.470671 
L 65.917029 26.762543 
L 65.828372 27.054416 
L 65.739716 27.346289 
L 65.65106 27.638161 
L 65.562404 27.930034 
L 65.473747 28.221907 
L 65.359704 28.566793 
L 65.245662 28.91168 
L 65.131619 29.256566 
L 65.017576 29.601453 
L 64.903533 29.946339 
L 64.78949 30.291225 
L 64.675448 30.636112 
L 64.561405 30.980998 
L 64.541349 31.400417 
L 64.521293 31.819836 
L 64.501237 32.239254 
L 64.481182 32.658673 
L 64.461126 33.078092 
L 64.44107 33.49751 
L 64.421014 33.916929 
L 64.400958 34.336347 
" style="fill:none;stroke:#000000;stroke-linecap:square;stroke-width:0.544626;"/>
   </g>
   <g id="line2d_41">
    <path clip-path="url(#pc95ff6bd57)" d="M 106.373604 61.727938 
L 105.932463 61.782084 
L 105.491323 61.836231 
L 105.058572 61.930501 
L 104.625821 62.024772 
L 104.198969 61.889083 
L 103.772117 61.753393 
L 103.345265 61.617704 
L 102.918413 61.482014 
L 102.491561 61.346325 
L 102.064708 61.210635 
L 101.637856 61.074946 
L 101.211004 60.939256 
L 100.856991 60.970752 
L 100.502977 61.002247 
L 100.148964 61.033743 
L 99.794951 61.065238 
L 99.307145 61.332734 
L 98.819339 61.60023 
L 98.45344 61.631726 
L 98.087542 61.663221 
L 97.721644 61.694717 
L 97.355746 61.726212 
L 97.098079 61.873712 
L 96.840412 62.021213 
L 96.582745 62.168713 
L 96.325078 62.316213 
L 96.067411 62.463714 
L 95.809745 62.611214 
L 95.552078 62.758714 
L 95.294411 62.906215 
L 94.813072 63.127438 
L 94.331732 63.348662 
L 93.850393 63.569885 
L 93.369054 63.791109 
" style="fill:none;stroke:#000000;stroke-linecap:square;stroke-width:0.544626;"/>
   </g>
   <g id="line2d_42">
    <path clip-path="url(#pc95ff6bd57)" d="M 70.884882 12.160929 
L 70.651334 12.477232 
L 70.417787 12.793536 
L 70.184239 13.109839 
L 69.950692 13.426142 
L 69.717145 13.742445 
L 69.483597 14.058748 
L 69.25005 14.375052 
L 69.016502 14.691355 
L 68.760802 14.996225 
L 68.505101 15.301095 
L 68.249401 15.605965 
L 67.9937 15.910835 
L 67.737999 16.215705 
L 67.482299 16.520575 
L 67.226598 16.825444 
L 66.970898 17.130314 
L 66.699991 17.583116 
L 66.429085 18.035918 
L 66.152586 18.49929 
L 65.871324 18.74516 
L 65.590062 18.99103 
L 65.3088 19.236899 
L 65.027538 19.482769 
L 64.746277 19.728639 
L 64.465015 19.974509 
L 64.183753 20.220379 
L 63.902491 20.466248 
L 63.599513 20.725871 
L 63.296535 20.985493 
L 62.993557 21.245115 
L 62.690579 21.504737 
L 62.529346 21.866612 
L 62.368113 22.228486 
L 62.20688 22.590361 
L 62.045647 22.952235 
L 62.022052 23.495209 
L 61.998457 24.038183 
L 62.155757 24.56131 
L 62.313058 25.084437 
L 62.470358 25.607565 
L 62.627658 26.130692 
L 62.737856 26.409945 
L 62.848054 26.689198 
L 62.958251 26.968451 
L 63.068449 27.247703 
L 63.123504 27.743434 
L 63.178559 28.239164 
L 63.072294 28.616787 
L 62.966029 28.994409 
L 62.859764 29.372032 
L 62.753499 29.749654 
L 62.450652 30.079224 
L 62.147805 30.408794 
L 61.844958 30.738364 
L 61.542111 31.067935 
L 61.239264 31.397505 
L 60.936417 31.727075 
L 60.63357 32.056645 
L 60.330723 32.386215 
" style="fill:none;stroke:#000000;stroke-linecap:square;stroke-width:0.544626;"/>
   </g>
   <g id="line2d_43">
    <path clip-path="url(#pc95ff6bd57)" d="M 99.071019 24.624085 
L 98.748816 24.758912 
L 98.426612 24.893739 
L 98.104408 25.028565 
L 97.782204 25.163392 
L 97.342637 25.447175 
L 96.90307 25.730958 
L 96.463503 26.014741 
L 96.023935 26.298524 
L 95.71519 26.596113 
L 95.406444 26.893703 
L 95.097698 27.191292 
L 94.788952 27.488881 
L 94.619286 27.771208 
L 94.44962 28.053535 
L 94.279954 28.335862 
L 94.110288 28.618189 
L 93.940622 28.900516 
L 93.770956 29.182843 
L 93.60129 29.46517 
L 93.431624 29.747497 
L 93.103391 30.153594 
L 92.775157 30.559692 
L 92.446924 30.96579 
L 92.11869 31.371888 
L 91.962875 31.711219 
L 91.807061 32.050551 
L 91.651246 32.389883 
L 91.495431 32.729214 
L 91.314623 33.243389 
L 91.133815 33.757564 
L 90.953007 34.271739 
L 90.772199 34.785913 
L 90.58571 35.174699 
L 90.399222 35.563485 
L 90.212734 35.952271 
L 90.026245 36.341057 
L 89.839757 36.729843 
L 89.653268 37.118629 
L 89.46678 37.507415 
L 89.280292 37.896201 
L 89.027125 38.257753 
L 88.773959 38.619304 
L 88.520793 38.980855 
L 88.267627 39.342406 
L 88.01446 39.703957 
L 87.761294 40.065508 
L 87.508128 40.427059 
L 87.254961 40.78861 
L 86.971296 41.011128 
L 86.687631 41.233646 
L 86.403966 41.456163 
L 86.120301 41.678681 
L 85.814308 41.798299 
L 85.508315 41.917918 
L 85.202322 42.037536 
L 84.896329 42.157154 
L 84.590336 42.276772 
L 84.284343 42.39639 
L 83.97835 42.516008 
L 83.672357 42.635627 
L 83.156849 42.861488 
L 82.64134 43.08735 
L 82.125832 43.313211 
L 81.610323 43.539073 
L 81.402599 43.836123 
L 81.194875 44.133173 
L 80.987151 44.430223 
L 80.779427 44.727273 
L 80.701476 45.033167 
L 80.623525 45.339062 
L 80.545574 45.644957 
L 80.467623 45.950851 
" style="fill:none;stroke:#ff0000;stroke-linecap:square;stroke-width:0.544626;"/>
   </g>
   <g id="line2d_44">
    <path clip-path="url(#pc95ff6bd57)" d="M 108.410819 38.746148 
L 108.215941 38.992396 
L 108.021063 39.238643 
L 107.826186 39.48489 
L 107.631308 39.731138 
L 107.43643 39.977385 
L 107.241552 40.223632 
L 107.046675 40.46988 
L 106.851797 40.716127 
L 106.611826 41.156633 
L 106.371856 41.597138 
L 106.131885 42.037644 
L 105.891915 42.478149 
L 105.74047 43.036709 
L 105.589024 43.595268 
L 105.437579 44.153828 
L 105.286134 44.712388 
L 105.134688 45.270948 
L 104.983243 45.829507 
L 104.831797 46.388067 
L 104.680352 46.946627 
L 104.538694 47.489385 
L 104.397037 48.032143 
L 104.255379 48.574901 
L 104.113721 49.117659 
L 103.755775 49.47565 
L 103.397829 49.833642 
L 103.039884 50.191634 
L 102.681938 50.549625 
L 102.353442 50.689252 
L 102.024946 50.828878 
L 101.696451 50.968505 
L 101.367955 51.108131 
L 101.039459 51.247757 
L 100.710963 51.387384 
L 100.382468 51.52701 
L 100.053972 51.666637 
L 99.758072 51.813328 
L 99.462173 51.960019 
L 99.166273 52.106711 
L 98.870374 52.253402 
L 98.524619 52.465242 
L 98.178864 52.677081 
L 97.833109 52.888921 
L 97.487354 53.10076 
L 97.141599 53.3126 
L 96.795843 53.52444 
L 96.450088 53.736279 
L 96.104333 53.948119 
L 95.864931 54.184011 
L 95.625528 54.419904 
L 95.386126 54.655797 
L 95.146723 54.891689 
L 94.907321 55.127582 
L 94.667918 55.363475 
L 94.428516 55.599367 
L 94.189113 55.83526 
L 93.833964 56.150107 
L 93.478815 56.464954 
L 93.123665 56.779801 
L 92.768516 57.094648 
L 92.493153 57.570532 
L 92.21779 58.046416 
L 91.942426 58.5223 
L 91.667063 58.998184 
L 91.588763 59.359735 
L 91.510462 59.721286 
" style="fill:none;stroke:#000000;stroke-linecap:square;stroke-width:0.544626;"/>
   </g>
   <g id="line2d_45">
    <path clip-path="url(#pc95ff6bd57)" d="M 103.763815 31.171266 
L 103.506891 31.450842 
L 103.249967 31.730419 
L 102.993043 32.009995 
L 102.736119 32.289572 
L 102.541372 32.580635 
L 102.346626 32.871699 
L 102.151879 33.162763 
L 101.957132 33.453826 
L 101.762386 33.74489 
L 101.567639 34.035954 
L 101.372892 34.327017 
L 101.178146 34.618081 
L 100.890985 35.121578 
L 100.603824 35.625074 
L 100.316664 36.128571 
L 100.029503 36.632067 
L 99.750207 36.946806 
L 99.470912 37.261546 
L 99.191616 37.576285 
L 98.912321 37.891024 
L 98.778528 38.21752 
L 98.644735 38.544016 
L 98.510942 38.870513 
L 98.37715 39.197009 
L 98.298499 39.712262 
L 98.219849 40.227515 
L 98.141199 40.742769 
L 98.062549 41.258022 
L 97.916958 41.584518 
L 97.771368 41.911014 
L 97.625778 42.237511 
L 97.480188 42.564007 
L 97.167466 42.87276 
L 96.854744 43.181513 
L 96.542022 43.490266 
L 96.2293 43.799018 
L 95.916578 44.107771 
L 95.603856 44.416524 
L 95.291134 44.725277 
L 94.978412 45.03403 
L 94.742374 45.458896 
L 94.506336 45.883761 
L 94.270298 46.308627 
L 94.03426 46.733493 
L 93.751731 47.237313 
L 93.469202 47.741133 
L 93.186673 48.244953 
L 92.904144 48.748773 
L 92.644117 49.082927 
L 92.384091 49.417082 
L 92.124065 49.751236 
L 91.864038 50.08539 
L 91.604012 50.419544 
L 91.343986 50.753699 
L 91.083959 51.087853 
L 90.823933 51.422007 
L 90.45419 51.681629 
L 90.084446 51.941252 
L 89.714703 52.200874 
L 89.34496 52.460496 
L 88.888614 52.578496 
L 88.432268 52.696496 
L 87.975922 52.814497 
L 87.519576 52.932497 
L 87.157654 52.971812 
L 86.795732 53.011128 
L 86.433809 53.050443 
L 86.071887 53.089759 
L 85.709965 53.129074 
L 85.348043 53.168389 
L 84.986121 53.207705 
L 84.624199 53.24702 
L 84.278051 53.321768 
L 83.931903 53.396516 
L 83.585754 53.471264 
L 83.239606 53.546012 
L 82.964243 53.699391 
L 82.68888 53.852769 
L 82.413517 54.006148 
L 82.138154 54.159527 
" style="fill:none;stroke:#000000;stroke-linecap:square;stroke-width:0.544626;"/>
   </g>
   <g id="line2d_46">
    <path clip-path="url(#pc95ff6bd57)" d="M 88.151923 18.296942 
L 88.029972 18.639186 
L 87.90802 18.98143 
L 87.786069 19.323674 
L 87.664117 19.665918 
L 87.542166 20.008162 
L 87.420214 20.350405 
L 87.298263 20.692649 
L 87.176311 21.034893 
L 87.119071 21.330541 
L 87.061831 21.626189 
L 87.004592 21.921837 
L 86.947352 22.217484 
L 86.865206 22.640948 
L 86.78306 23.064411 
L 86.63948 23.412533 
L 86.495899 23.760656 
L 86.352319 24.108778 
L 86.208739 24.4569 
L 86.065158 24.805023 
L 85.921578 25.153145 
L 85.777998 25.501267 
L 85.634418 25.84939 
L 85.503618 26.127699 
L 85.372818 26.406008 
L 85.242019 26.684317 
L 85.111219 26.962626 
L 84.980419 27.240935 
L 84.84962 27.519244 
L 84.71882 27.797553 
L 84.58802 28.075862 
L 84.457221 28.354172 
L 84.326421 28.632481 
L 84.195621 28.91079 
L 84.064822 29.189099 
L 83.934022 29.467408 
L 83.803222 29.745717 
L 83.672423 30.024026 
L 83.541623 30.302335 
L 83.285922 30.674079 
L 83.030222 31.045823 
L 82.774521 31.417567 
L 82.518821 31.789311 
L 82.26312 32.161055 
L 82.007419 32.532799 
L 81.751719 32.904543 
L 81.496018 33.276287 
L 81.192647 33.666151 
L 80.889276 34.056016 
L 80.585904 34.445881 
L 80.282533 34.835745 
L 79.979162 35.22561 
L 79.67579 35.615474 
L 79.372419 36.005339 
L 79.069048 36.395204 
L 78.640229 36.784583 
L 78.211411 37.173962 
L 77.782592 37.563342 
L 77.353774 37.952721 
L 77.113803 38.231974 
L 76.873833 38.511227 
L 76.633862 38.790479 
L 76.393892 39.069732 
L 76.189314 39.317598 
L 75.984736 39.565463 
L 75.780158 39.813328 
L 75.57558 40.061193 
L 75.395209 40.591224 
L 75.214838 41.121254 
L 75.06112 41.481619 
L 74.907403 41.841983 
L 74.753685 42.202348 
L 74.599968 42.562712 
L 74.308875 42.979704 
L 74.017782 43.396696 
L 73.726688 43.813688 
L 73.435595 44.230679 
L 73.12082 44.471857 
L 72.806044 44.713035 
L 72.602952 45.207579 
L 72.399859 45.702123 
L 72.196767 46.196667 
L 71.993675 46.691211 
L 71.604181 46.966581 
L 71.214688 47.241951 
L 70.825195 47.517321 
L 70.435702 47.792691 
L 70.156406 47.95788 
L 69.87711 48.12307 
L 69.597815 48.288259 
L 69.318519 48.453449 
L 69.039223 48.618638 
L 68.759928 48.783828 
L 68.480632 48.949018 
L 68.201337 49.114207 
L 67.925886 49.183238 
L 67.516818 49.285707 
L 67.107749 49.388175 
L 66.698681 49.490643 
L 66.289612 49.593111 
" style="fill:none;stroke:#4169e1;stroke-linecap:square;stroke-width:0.544626;"/>
   </g>
   <g id="line2d_47">
    <path clip-path="url(#pc95ff6bd57)" d="M 98.107642 58.946842 
L 97.594274 59.023532 
L 97.080907 59.100221 
L 96.567539 59.17691 
L 96.054172 59.2536 
L 95.540805 59.330289 
L 95.027437 59.406979 
L 94.51407 59.483668 
L 94.000702 59.560357 
L 93.465619 59.599727 
L 92.930535 59.639096 
L 92.395452 59.678465 
L 91.860368 59.717835 
L 91.510462 59.721286 
L 91.216398 59.724307 
L 90.922333 59.727327 
L 90.628269 59.730347 
L 90.334204 59.733367 
L 89.840456 59.461556 
L 89.346707 59.189746 
L 89.05072 59.026768 
L 88.754733 58.863789 
L 88.458747 58.700811 
L 88.16276 58.537832 
L 87.875577 58.324456 
L 87.588395 58.111079 
L 87.301212 57.897703 
L 87.01403 57.684326 
L 86.726847 57.470949 
L 86.439665 57.257573 
L 86.152482 57.044196 
L 85.8653 56.83082 
L 85.578117 56.617443 
L 85.290935 56.404066 
L 85.003752 56.19069 
L 84.71657 55.977313 
L 84.429387 55.763937 
L 84.142205 55.55056 
L 83.855022 55.337183 
L 83.56784 55.123807 
L 83.210418 54.882737 
L 82.852997 54.641667 
L 82.495575 54.400597 
L 82.138154 54.159527 
L 81.753467 54.046488 
L 81.36878 53.93345 
L 80.984093 53.820411 
L 80.599406 53.707372 
L 80.214719 53.594334 
L 79.830032 53.481295 
L 79.445345 53.368256 
L 79.060658 53.255218 
L 78.578445 53.157388 
L 78.096232 53.059557 
L 77.614019 52.961727 
L 77.131806 52.863897 
L 76.679392 52.771999 
L 76.226979 52.680101 
L 75.774565 52.588204 
L 75.322152 52.496306 
L 74.906966 52.451004 
L 74.49178 52.405702 
L 74.076595 52.360401 
L 73.661409 52.315099 
" style="fill:none;stroke:#008000;stroke-linecap:square;stroke-width:0.544626;"/>
   </g>
   <g id="line2d_48">
    <path clip-path="url(#pc95ff6bd57)" d="M 100.296914 26.235102 
L 99.946134 26.473259 
L 99.595354 26.711417 
L 99.244574 26.949575 
L 98.893794 27.187733 
L 98.543626 27.411976 
L 98.193458 27.63622 
L 97.843289 27.860463 
L 97.493121 28.084707 
L 97.241441 28.375717 
L 96.98976 28.666727 
L 96.879475 28.997214 
L 96.76919 29.327701 
L 96.812535 29.898071 
L 96.85588 30.468442 
L 96.899225 31.038812 
L 96.94257 31.609183 
L 96.8599 31.971057 
L 96.77723 32.332932 
L 96.694559 32.694806 
L 96.611889 33.056681 
L 96.430994 33.391051 
L 96.250098 33.725421 
L 96.069203 34.059791 
L 95.888307 34.394161 
L 95.662101 34.636094 
L 95.435894 34.878027 
L 95.209687 35.11996 
L 94.98348 35.361893 
L 94.757274 35.603825 
L 94.531067 35.845758 
L 94.30486 36.087691 
L 94.078654 36.329624 
L 93.700958 36.67176 
L 93.323262 37.013896 
L 92.945566 37.356032 
L 92.56787 37.698168 
L 92.386888 37.93816 
L 92.205905 38.178151 
L 92.024922 38.418142 
L 91.843939 38.658134 
L 91.718055 38.964945 
L 91.592171 39.271757 
L 91.466287 39.578568 
L 91.340403 39.885379 
L 91.214519 40.192191 
L 91.088635 40.499002 
L 90.962751 40.805814 
L 90.836867 41.112625 
L 90.573301 41.439121 
L 90.309735 41.765617 
L 90.04617 42.092114 
L 89.782604 42.41861 
L 89.46595 42.583799 
L 89.149295 42.748989 
L 88.832641 42.914178 
L 88.515986 43.079368 
L 88.199332 43.244557 
L 87.882677 43.409747 
L 87.566023 43.574937 
L 87.249368 43.740126 
L 86.922795 43.968253 
L 86.596222 44.196379 
L 86.269649 44.424506 
L 85.943076 44.652633 
L 85.539251 44.798138 
L 85.135426 44.943642 
L 84.731601 45.089147 
L 84.327775 45.234652 
L 83.845256 45.324177 
L 83.362737 45.413702 
L 82.880218 45.503227 
L 82.397699 45.592752 
L 81.91518 45.682277 
L 81.432661 45.771801 
L 80.950142 45.861326 
L 80.467623 45.950851 
L 80.227565 46.173045 
L 79.987507 46.39524 
L 79.747449 46.617434 
L 79.507391 46.839628 
L 79.243826 47.126755 
L 78.98026 47.413882 
L 78.716695 47.701009 
L 78.453129 47.988135 
L 78.185631 48.23201 
L 77.918133 48.475884 
L 77.650635 48.719758 
L 77.383137 48.963633 
L 77.115639 49.207507 
L 76.84814 49.451382 
L 76.580642 49.695256 
L 76.313144 49.93913 
L 75.966909 50.32851 
L 75.620673 50.717889 
L 75.274437 51.107268 
L 74.928202 51.496647 
L 74.541592 51.74516 
L 74.1015 52.030129 
L 73.661409 52.315099 
" style="fill:none;stroke:#ff0000;stroke-linecap:square;stroke-width:0.544626;"/>
   </g>
   <g id="line2d_49">
    <path clip-path="url(#pc95ff6bd57)" d="M 48.771938 10.895069 
L 48.687389 11.286875 
L 48.60284 11.678681 
L 48.518292 12.070487 
L 48.433743 12.462293 
L 48.349194 12.8541 
L 48.264645 13.245906 
L 48.180096 13.637712 
L 48.095547 14.029518 
L 48.071602 14.429791 
L 48.047657 14.830065 
L 48.023713 15.230338 
L 47.999768 15.630611 
L 47.979756 15.969188 
L 47.959744 16.307764 
L 47.939732 16.646341 
L 47.91972 16.984917 
L 47.707364 17.456918 
L 47.495009 17.928919 
L 47.192118 18.389164 
L 46.889227 18.849408 
L 46.586337 19.309652 
L 46.283446 19.769896 
L 45.909683 20.202635 
L 45.535919 20.635375 
L 45.162156 21.068114 
L 44.788393 21.500854 
L 44.418649 21.850972 
L 44.048906 22.201089 
L 43.679163 22.551207 
L 43.309419 22.901325 
L 43.159809 23.294587 
L 43.010199 23.687849 
L 42.922111 24.136445 
L 42.834022 24.58504 
L 42.745934 25.033635 
L 42.657846 25.48223 
L 42.645349 25.823934 
L 42.632853 26.165639 
L 42.620356 26.507344 
L 42.607859 26.849048 
" style="fill:none;stroke:#000000;stroke-linecap:square;stroke-width:0.544626;"/>
   </g>
   <g id="line2d_50">
    <path clip-path="url(#pc95ff6bd57)" d="M 62.525588 33.101983 
L 62.58274 33.453826 
L 62.639893 33.80567 
L 62.576973 34.212792 
L 62.514053 34.619915 
L 62.451132 35.027037 
L 62.388212 35.43416 
L 62.325292 35.841282 
L 62.262372 36.248405 
L 62.199452 36.655527 
L 62.136532 37.062649 
L 62.089604 37.363259 
L 62.042676 37.663868 
L 61.995748 37.964478 
L 61.94882 38.265087 
L 61.901892 38.565697 
L 61.854964 38.866306 
L 61.808036 39.166915 
L 61.761108 39.467525 
L 61.71418 39.768134 
L 61.667252 40.068744 
L 61.620324 40.369353 
L 61.573396 40.669962 
L 61.526468 40.970572 
L 61.47954 41.271181 
L 61.432612 41.571791 
L 61.385684 41.8724 
L 61.243764 42.350765 
L 61.101844 42.82913 
L 60.959924 43.307495 
L 60.818004 43.785859 
L 60.673375 44.100167 
L 60.528746 44.414475 
L 60.384117 44.728783 
L 60.239488 45.043091 
L 59.84449 45.382422 
L 59.449491 45.721754 
L 59.121257 45.796825 
L 58.793024 45.871897 
L 58.46479 45.946968 
L 58.136557 46.02204 
L 57.89178 45.813436 
L 57.647003 45.604832 
L 57.402226 45.396228 
L 57.157449 45.187625 
L 56.820127 44.734823 
L 56.482805 44.282021 
" style="fill:none;stroke:#4169e1;stroke-linecap:square;stroke-width:0.544626;"/>
   </g>
   <g id="line2d_51">
    <path clip-path="url(#pc95ff6bd57)" d="M 68.63968 11.258777 
L 68.356627 11.52417 
L 68.073574 11.789563 
L 67.79052 12.054955 
L 67.507467 12.320348 
L 67.224414 12.585741 
L 66.94136 12.851133 
L 66.658307 13.116526 
L 66.375253 13.381919 
L 66.13135 13.641541 
L 65.887447 13.901163 
L 65.643544 14.160785 
L 65.399641 14.420407 
L 65.234432 14.73903 
L 65.069223 15.057652 
L 64.904014 15.376274 
L 64.738805 15.694896 
L 64.573596 16.013519 
L 64.408386 16.332141 
L 64.243177 16.650763 
L 64.077968 16.969385 
L 63.849795 17.252629 
L 63.621622 17.535873 
L 63.393449 17.819117 
L 63.165276 18.10236 
L 62.88834 18.278228 
L 62.611404 18.454096 
L 62.334468 18.629964 
L 62.057532 18.805832 
L 61.780596 18.9817 
L 61.503659 19.157567 
L 61.226723 19.333435 
L 60.949787 19.509303 
" style="fill:none;stroke:#000000;stroke-linecap:square;stroke-width:0.544626;"/>
   </g>
   <g id="line2d_52">
    <path clip-path="url(#pc95ff6bd57)" d="M 97.563033 20.385137 
L 97.686863 20.81011 
L 97.810693 21.235084 
L 97.934524 21.660057 
L 98.058354 22.085031 
L 98.132111 22.387905 
L 98.205867 22.69078 
L 98.474326 23.064411 
L 98.742786 23.438043 
L 98.824844 23.734553 
L 98.906902 24.031064 
L 98.988961 24.327575 
L 99.071019 24.624085 
L 99.275685 24.962986 
L 99.48035 25.301886 
L 99.700221 25.60778 
L 99.920092 25.913675 
L 100.296914 26.235102 
L 100.433503 26.528377 
L 100.570092 26.821651 
L 100.706681 27.114926 
L 100.843271 27.408201 
L 101.020758 27.661783 
L 101.198245 27.915365 
L 101.375733 28.168947 
L 101.55322 28.422529 
L 101.730707 28.676111 
L 101.908194 28.929692 
L 102.085682 29.183274 
L 102.263169 29.436856 
L 102.418372 29.658188 
L 102.754733 30.036457 
L 103.091094 30.414727 
L 103.427454 30.792996 
L 103.763815 31.171266 
L 104.237115 31.278696 
L 104.710414 31.386125 
L 104.941646 31.901487 
L 105.172877 32.416848 
L 105.353074 32.719722 
L 105.53327 33.022597 
L 105.713466 33.325471 
L 105.893663 33.628346 
L 106.035932 33.900588 
L 106.178202 34.17283 
L 106.320471 34.445072 
L 106.462741 34.717314 
L 106.60501 34.989555 
L 106.74728 35.261797 
L 106.889549 35.534039 
L 107.031819 35.806281 
L 107.23762 36.160174 
L 107.443421 36.514067 
L 107.649223 36.86796 
L 107.855024 37.221853 
L 108.043086 37.75253 
L 108.231147 38.283208 
L 108.410819 38.746148 
L 108.609717 39.25849 
L 108.808614 39.770831 
L 109.007512 40.283172 
L 109.206409 40.795513 
L 109.361088 41.123627 
L 109.515767 41.451741 
L 109.670446 41.779855 
L 109.825124 42.107969 
L 109.979803 42.436083 
L 110.134482 42.764197 
L 110.289161 43.092311 
L 110.443839 43.420425 
L 110.603237 43.861039 
L 110.762635 44.301652 
L 110.922033 44.742265 
L 111.08143 45.182879 
L 111.240828 45.623492 
L 111.400226 46.064106 
L 111.559624 46.504719 
L 111.719022 46.945332 
L 111.784651 47.432865 
L 111.85028 47.920398 
L 111.915909 48.407931 
L 111.981538 48.895464 
L 111.915909 49.181351 
L 111.85028 49.467237 
L 111.784651 49.753123 
L 111.719022 50.03901 
L 111.653392 50.324896 
L 111.587763 50.610783 
L 111.522134 50.896669 
L 111.456505 51.182555 
L 111.268968 51.726392 
L 111.08143 52.270228 
" style="fill:none;stroke:#4169e1;stroke-linecap:square;stroke-width:0.544626;"/>
   </g>
   <g id="line2d_53">
    <path clip-path="url(#pc95ff6bd57)" d="M 105.172877 32.416848 
L 105.03738 32.695076 
L 104.901884 32.973304 
L 104.766387 33.251533 
L 104.63089 33.529761 
L 104.495393 33.807989 
L 104.359896 34.086217 
L 104.224399 34.364445 
L 104.088903 34.642674 
L 104.045601 34.935733 
L 104.0023 35.228792 
L 103.958999 35.521851 
L 103.915697 35.81491 
L 103.872396 36.107969 
L 103.829095 36.401028 
L 103.785793 36.694087 
L 103.742492 36.987147 
L 103.581215 37.27821 
L 103.419939 37.569274 
L 103.258662 37.860338 
L 103.097386 38.151401 
L 102.936109 38.442465 
L 102.774832 38.733529 
L 102.613556 39.024592 
L 102.452279 39.315656 
L 102.342169 39.705035 
L 102.232059 40.094415 
L 102.121948 40.483794 
L 102.011838 40.873173 
L 102.035433 41.32166 
L 102.059028 41.770148 
L 102.082623 42.218635 
L 102.106218 42.667122 
L 102.019616 43.001384 
L 101.933013 43.335646 
L 101.84641 43.669908 
L 101.759808 44.004171 
L 101.397929 44.303162 
L 101.036051 44.602154 
L 100.674173 44.901145 
L 100.312294 45.200137 
L 100.062492 45.430259 
L 99.812691 45.660381 
L 99.562889 45.890503 
L 99.313087 46.120625 
L 99.063285 46.350747 
L 98.813483 46.580869 
L 98.563682 46.810991 
L 98.31388 47.041113 
L 98.093572 47.367501 
L 97.873264 47.69389 
L 97.652956 48.020278 
L 97.432648 48.346666 
L 97.187434 48.687292 
L 96.94222 49.027918 
L 96.697006 49.368544 
L 96.451792 49.70917 
L 96.163321 49.981358 
L 95.87485 50.253546 
L 95.586378 50.525734 
L 95.297907 50.797922 
L 95.009435 51.07011 
L 94.720964 51.342298 
L 94.432492 51.614486 
L 94.144021 51.886674 
L 93.829245 52.346918 
L 93.514469 52.807162 
L 93.199694 53.267406 
L 92.884918 53.72765 
L 92.638918 54.128463 
L 92.392917 54.529275 
L 92.146917 54.930088 
L 91.900917 55.3309 
L 91.611921 55.71672 
L 91.322925 56.10254 
L 91.033929 56.48836 
L 90.744933 56.87418 
L 90.570155 57.163626 
L 90.395377 57.453071 
L 90.220599 57.742517 
L 90.04582 58.031963 
L 89.871042 58.321409 
L 89.696264 58.610854 
L 89.521486 58.9003 
L 89.346707 59.189746 
" style="fill:none;stroke:#000000;stroke-linecap:square;stroke-width:0.544626;"/>
   </g>
   <g id="line2d_54">
    <path clip-path="url(#pc95ff6bd57)" d="M 76.612015 13.976882 
L 76.672838 14.291837 
L 76.733661 14.606792 
L 76.850063 15.040825 
L 76.966465 15.474859 
L 77.053854 15.800708 
L 77.141244 16.126557 
L 77.228633 16.452406 
L 77.316022 16.778255 
L 77.418267 17.057616 
L 77.520512 17.336977 
L 77.622758 17.616337 
L 77.725003 17.895698 
L 78.134159 18.28896 
L 78.543315 18.682223 
L 78.67702 19.122944 
L 78.810725 19.563665 
L 78.69275 20.05918 
L 78.574775 20.554695 
L 78.448891 20.828123 
L 78.323007 21.101551 
L 78.197123 21.37498 
L 78.071239 21.648408 
L 77.945355 21.921837 
L 77.819471 22.195265 
L 77.693587 22.468693 
L 77.567703 22.742122 
L 77.473322 23.245618 
L 77.378942 23.749115 
L 77.441862 24.221116 
L 77.528377 24.516116 
L 77.614893 24.811117 
L 77.701408 25.106118 
L 77.787923 25.401118 
L 77.795788 25.715857 
L 77.803653 26.030597 
L 77.583433 26.471102 
L 77.363212 26.911608 
L 77.107511 27.218473 
L 76.851811 27.525338 
L 76.59611 27.832204 
L 76.34041 28.139069 
L 76.183109 28.674061 
L 76.163447 29.028062 
L 76.143784 29.382063 
L 76.124122 29.736063 
L 76.104459 30.090064 
L 75.836874 30.577813 
L 75.569288 31.065562 
L 75.301703 31.55331 
L 75.034117 32.041059 
L 74.939737 32.351808 
L 74.845357 32.662556 
L 74.750976 32.973304 
L 74.656596 33.284053 
L 74.680191 33.68918 
L 74.703786 34.094307 
L 74.727381 34.499434 
L 74.750976 34.904561 
L 74.766706 35.286174 
L 74.782436 35.667787 
L 74.798166 36.0494 
L 74.813897 36.431014 
L 74.684124 36.950258 
L 74.554351 37.469502 
L 74.424578 37.988746 
L 74.294805 38.507991 
L 74.167304 38.959282 
L 74.039804 39.410574 
L 73.912303 39.861866 
L 73.784802 40.313157 
L 73.657302 40.764449 
L 73.529801 41.215741 
L 73.4023 41.667032 
L 73.274799 42.118324 
L 72.930311 42.487425 
L 72.585823 42.856527 
L 72.340391 43.083898 
L 72.094959 43.31127 
L 71.849526 43.538641 
L 71.604094 43.766013 
L 71.358662 43.993385 
L 71.113229 44.220756 
L 70.867797 44.448128 
L 70.622365 44.675499 
L 70.272284 44.883995 
L 69.922203 45.092491 
L 69.572122 45.300987 
L 69.222041 45.509483 
L 68.915218 45.643231 
L 68.608395 45.776979 
L 68.301572 45.910727 
L 67.994749 46.044475 
L 67.790083 46.437953 
L 67.585418 46.831431 
L 67.569688 47.279702 
L 67.553958 47.727974 
L 67.64694 48.09179 
L 67.739922 48.455606 
L 67.832904 48.819422 
L 67.925886 49.183238 
" style="fill:none;stroke:#000000;stroke-linecap:square;stroke-width:0.544626;"/>
   </g>
   <g id="line2d_55">
    <path clip-path="url(#pc95ff6bd57)" d="M 111.08143 52.270228 
L 111.991239 54.240531 
L 112.291945 55.526777 
L 112.118914 56.99218 
L 111.829132 57.586388 
L 111.0269 58.525644 
L 110.133259 59.293509 
L 108.146554 61.703345 
L 107.363548 62.924767 
L 107.020283 63.114171 
L 106.733647 63.118054 
L 106.484064 62.910961 
L 106.387586 62.60032 
L 106.446224 60.766247 
L 106.420619 59.99094 
L 106.178202 58.291693 
L 106.08522 57.956676 
L 105.153826 57.103061 
L 103.442223 55.92554 
L 101.734902 54.987039 
L 100.094171 53.690546 
L 99.180605 52.691966 
L 97.980053 51.182016 
L 96.941521 49.97494 
L 95.853527 49.508548 
L 94.730139 49.204811 
L 92.904144 48.748773 
L 89.578638 46.877595 
L 87.323081 46.171859 
L 84.327775 45.234652 
L 80.857553 43.004512 
L 80.104783 42.469952 
L 77.305623 41.661639 
L 75.499027 41.053517 
L 74.898577 41.281104 
L 72.979948 42.14928 
L 70.271235 42.366621 
L 69.418492 42.282704 
L 66.090015 42.980351 
L 64.436613 43.731929 
L 63.547691 44.246643 
L 62.644437 45.679041 
L 62.238252 47.234832 
L 61.961404 47.376346 
L 61.089959 47.136894 
L 60.344355 46.625631 
L 58.36604 45.844284 
L 57.541262 45.245007 
L 57.541262 45.245007 
" style="fill:none;stroke:#008000;stroke-linecap:square;stroke-width:0.544626;"/>
   </g>
   <g id="line2d_56">
    <path clip-path="url(#pc95ff6bd57)" d="M 109.509125 49.739371 
L 109.248531 50.213745 
L 108.987937 50.688119 
L 109.075938 50.985061 
L 109.163938 51.282003 
L 109.251939 51.578945 
L 109.33994 51.875888 
L 109.241474 52.367924 
L 109.143009 52.85996 
L 109.044543 53.351996 
L 108.946077 53.844033 
L 108.847612 54.336069 
L 108.749146 54.828105 
L 108.65068 55.320141 
L 108.552215 55.812178 
L 108.453749 56.304214 
L 108.355283 56.79625 
L 108.256817 57.288286 
L 108.158352 57.780323 
L 108.059886 58.272359 
L 107.96142 58.764395 
L 107.862955 59.256431 
L 107.764489 59.748467 
L 107.860005 60.237187 
L 107.955522 60.725906 
L 108.051038 61.214626 
L 108.146554 61.703345 
" style="fill:none;stroke:#008000;stroke-linecap:square;stroke-width:0.544626;"/>
   </g>
   <g id="line2d_57">
    <path clip-path="url(#pc95ff6bd57)" d="M 81.728124 27.103169 
L 81.167086 27.188488 
L 80.606047 27.273806 
L 80.045009 27.359124 
L 79.483971 27.444442 
L 79.214638 27.868769 
L 78.945305 28.293095 
L 78.875918 28.803279 
L 78.806531 29.313463 
L 78.737144 29.823647 
L 78.667757 30.333831 
L 78.746844 30.730545 
L 78.825931 31.127258 
L 78.905018 31.523972 
L 78.984105 31.920686 
" style="fill:none;stroke:#4169e1;stroke-linecap:square;stroke-width:0.544626;"/>
   </g>
   <g id="line2d_58">
    <path clip-path="url(#pc95ff6bd57)" d="M 74.935193 14.334118 
L 75.157074 14.818631 
L 75.378955 15.303144 
L 75.600836 15.787657 
L 75.822717 16.27217 
" style="fill:none;stroke:#4169e1;stroke-linecap:square;stroke-width:0.544626;"/>
   </g>
   <g id="line2d_59">
    <path clip-path="url(#pc95ff6bd57)" d="M 79.364772 41.75893 
L 78.910087 42.095268 
L 78.455401 42.431607 
L 78.000716 42.767945 
L 77.54603 43.104284 
L 77.091344 43.440622 
L 76.636659 43.776961 
L 76.181973 44.113299 
L 75.727288 44.449638 
L 75.272602 44.785976 
L 74.817916 45.122315 
L 74.363231 45.458653 
L 73.908545 45.794992 
L 73.45386 46.13133 
L 72.999174 46.467669 
L 72.544488 46.804007 
L 72.089803 47.140346 
" style="fill:none;stroke:#008000;stroke-linecap:square;stroke-width:0.544626;"/>
   </g>
  </g>
 </g>
 <defs>
  <clipPath id="pc95ff6bd57">
   <rect height="72" width="117.63918" x="0" y="0"/>
  </clipPath>
 </defs>
</svg>
