<?xml version="1.0" encoding="utf-8" standalone="no"?>
<!DOCTYPE svg PUBLIC "-//W3C//DTD SVG 1.1//EN"
  "http://www.w3.org/Graphics/SVG/1.1/DTD/svg11.dtd">
<svg height="78.728257pt" version="1.1" viewBox="0 0 72 78.728257" width="72pt" xmlns="http://www.w3.org/2000/svg" xmlns:xlink="http://www.w3.org/1999/xlink">
 <metadata>
  <rdf:RDF xmlns:cc="http://creativecommons.org/ns#" xmlns:dc="http://purl.org/dc/elements/1.1/" xmlns:rdf="http://www.w3.org/1999/02/22-rdf-syntax-ns#">
   <cc:Work>
    <dc:type rdf:resource="http://purl.org/dc/dcmitype/StillImage"/>
    <dc:date>2022-05-19T22:13:53.597366</dc:date>
    <dc:format>image/svg+xml</dc:format>
    <dc:creator>
     <cc:Agent>
      <dc:title>Matplotlib v3.4.3, https://matplotlib.org/</dc:title>
     </cc:Agent>
    </dc:creator>
   </cc:Work>
  </rdf:RDF>
 </metadata>
 <defs>
  <style type="text/css">*{stroke-linecap:butt;stroke-linejoin:round;}</style>
 </defs>
 <g id="figure_1">
  <g id="patch_1">
   <path d="M 0 78.728257 
L 72 78.728257 
L 72 0 
L 0 0 
z
" style="fill:#ffffff;"/>
  </g>
  <g id="axes_1">
   <g id="line2d_1">
    <path clip-path="url(#pd897808367)" d="M 15.520312 60.190522 
L 16.381367 59.08546 
L 17.242422 57.980397 
L 18.103477 56.875334 
L 18.964532 55.770271 
L 19.825587 54.665208 
L 20.686642 53.560145 
L 21.547697 52.455082 
L 22.408752 51.350019 
L 23.647057 49.749535 
L 24.885361 48.14905 
L 25.728771 47.048402 
L 26.572181 45.947755 
L 27.41559 44.847108 
L 28.259 43.74646 
L 29.10241 42.645813 
L 29.945819 41.545166 
L 30.789229 40.444518 
L 31.632639 39.343871 
L 32.476049 38.243224 
L 33.319458 37.142576 
L 34.162868 36.041929 
L 35.006278 34.941282 
L 35.849687 33.840635 
L 36.693097 32.739987 
L 37.536507 31.63934 
L 38.379917 30.538693 
L 39.223326 29.438045 
L 40.066736 28.337398 
L 40.910146 27.236751 
L 41.753555 26.136103 
L 42.596965 25.035456 
L 43.440375 23.934809 
L 44.283784 22.834161 
L 45.127194 21.733514 
L 45.970604 20.632867 
L 46.814014 19.53222 
L 47.657423 18.431572 
L 48.500833 17.330925 
L 49.344243 16.230278 
L 50.187652 15.12963 
L 51.031062 14.028983 
L 51.874472 12.928336 
" style="fill:none;stroke:#808080;stroke-linecap:square;stroke-width:0.4;"/>
   </g>
   <g id="line2d_2">
    <path clip-path="url(#pd897808367)" d="M 19.73967 60.272221 
L 20.455657 59.419442 
L 21.171645 58.566662 
L 21.887632 57.713883 
L 22.60362 56.861104 
L 23.319607 56.008324 
L 24.035595 55.155545 
L 24.751582 54.302766 
L 25.46757 53.449986 
L 26.183557 52.597207 
L 26.899545 51.744428 
L 27.615532 50.891648 
L 28.33152 50.038869 
L 29.047507 49.18609 
L 29.763494 48.33331 
L 30.479482 47.480531 
L 31.195469 46.627752 
L 31.911457 45.774972 
L 32.627444 44.922193 
L 33.343432 44.069414 
L 34.059419 43.216635 
L 34.775407 42.363855 
L 35.491394 41.511076 
L 36.207382 40.658297 
L 36.923369 39.805517 
L 37.639357 38.952738 
L 38.355344 38.099959 
L 39.071332 37.247179 
L 39.787319 36.3944 
L 40.503307 35.541621 
L 41.219294 34.688841 
L 41.935282 33.836062 
L 42.651269 32.983283 
" style="fill:none;stroke:#808080;stroke-linecap:square;stroke-width:0.4;"/>
   </g>
   <g id="line2d_3">
    <path clip-path="url(#pd897808367)" d="M 3.272727 75.149699 
L 4.151 73.878917 
L 5.029273 72.608134 
L 5.907545 71.337352 
L 6.785818 70.066569 
L 7.664091 68.795787 
L 8.542363 67.525004 
L 9.420636 66.254222 
L 10.298909 64.983439 
L 11.177181 63.712657 
L 12.055454 62.441874 
L 12.933727 61.171092 
L 13.811999 59.900309 
L 14.690272 58.629526 
L 15.568544 57.358744 
L 16.446817 56.087961 
L 17.32509 54.817179 
" style="fill:none;stroke:#808080;stroke-linecap:square;stroke-width:0.4;"/>
   </g>
   <g id="line2d_4">
    <path clip-path="url(#pd897808367)" d="M 17.32509 54.817179 
L 17.188603 55.26493 
L 17.052115 55.71268 
L 16.915628 56.160431 
L 16.779141 56.608182 
L 16.550522 56.960255 
L 16.321903 57.312328 
L 16.093285 57.664401 
L 15.864666 58.016475 
L 15.636047 58.368548 
L 15.407428 58.720621 
L 15.178809 59.072694 
L 14.95019 59.424767 
L 14.60635 59.873941 
L 14.262509 60.323115 
L 13.918669 60.772289 
L 13.574828 61.221462 
L 13.230988 61.670636 
L 12.887148 62.11981 
L 12.543307 62.568984 
L 12.199467 63.018157 
L 12.080311 63.354075 
L 11.961156 63.689993 
L 11.842 64.025911 
L 11.722845 64.361828 
L 11.546905 64.857878 
L 11.370966 65.353928 
L 11.195026 65.849978 
L 11.019086 66.346028 
L 10.89212 66.782227 
L 10.765154 67.218426 
L 10.638188 67.654625 
L 10.511222 68.090824 
L 10.384256 68.527023 
L 10.25729 68.963222 
L 10.130324 69.399422 
L 10.003357 69.835621 
L 9.786141 70.276591 
L 9.568925 70.717562 
L 9.351708 71.158532 
L 9.134492 71.599502 
L 8.894356 71.823252 
L 8.654221 72.047002 
L 8.414086 72.270752 
L 8.173951 72.494502 
L 7.933815 72.718251 
L 7.69368 72.942001 
L 7.453545 73.165751 
L 7.213409 73.389501 
L 6.733025 73.659373 
L 6.25264 73.929246 
L 5.772255 74.199119 
L 5.291871 74.468991 
L 4.787085 74.639168 
L 4.282299 74.809345 
L 3.777513 74.979522 
L 3.272727 75.149699 
" style="fill:none;stroke:#008000;stroke-linecap:square;stroke-width:0.4;"/>
   </g>
   <g id="line2d_5">
    <path clip-path="url(#pd897808367)" d="M 39.189489 28.712867 
L 38.683278 28.695289 
L 38.177067 28.67771 
L 37.670856 28.660132 
L 37.164645 28.642553 
L 36.658434 28.624975 
L 36.152223 28.607396 
L 35.646011 28.589818 
L 35.1398 28.572239 
" style="fill:none;stroke:#000000;stroke-linecap:square;stroke-width:0.4;"/>
   </g>
   <g id="line2d_6">
    <path clip-path="url(#pd897808367)" d="M 11.722845 64.361828 
L 11.427636 64.505177 
L 11.132427 64.648526 
L 10.837218 64.791875 
L 10.542008 64.935224 
L 10.246799 65.078573 
L 9.95159 65.221921 
L 9.656381 65.36527 
L 9.361172 65.508619 
L 8.887401 65.788369 
L 8.41363 66.068119 
L 7.939858 66.347869 
L 7.466087 66.627619 
L 7.084448 66.940183 
L 6.702808 67.252746 
L 6.321169 67.565309 
L 5.939529 67.877873 
L 5.766782 68.169132 
L 5.594035 68.460392 
L 5.421288 68.751652 
L 5.248541 69.042912 
L 5.075795 69.334172 
L 4.903048 69.625431 
L 4.730301 69.916691 
L 4.557554 70.207951 
L 4.42597 70.645615 
L 4.294386 71.083279 
L 4.162801 71.520943 
L 4.031217 71.958607 
L 3.899633 72.396271 
L 3.768049 72.833935 
L 3.636465 73.271599 
L 3.504881 73.709263 
L 3.446842 74.069372 
L 3.388804 74.429481 
L 3.330766 74.78959 
L 3.272727 75.149699 
" style="fill:none;stroke:#008000;stroke-linecap:square;stroke-width:0.4;"/>
   </g>
   <g id="line2d_7">
    <path clip-path="url(#pd897808367)" d="M 37.62918 25.582212 
L 37.379581 25.832329 
L 37.129981 26.082447 
L 36.880382 26.332565 
L 36.630783 26.582682 
L 36.44441 26.831377 
L 36.258037 27.080071 
L 36.071664 27.328766 
L 35.885291 27.577461 
L 35.698919 27.826155 
L 35.512546 28.07485 
L 35.326173 28.323544 
L 35.1398 28.572239 
L 34.817111 28.955535 
L 34.494422 29.338831 
L 34.171733 29.722127 
L 33.849044 30.105423 
L 33.529662 30.4097 
L 33.21028 30.713976 
L 32.890898 31.018252 
L 32.571515 31.322528 
L 32.252133 31.626805 
L 31.932751 31.931081 
L 31.613369 32.235357 
L 31.293986 32.539634 
L 31.023578 32.754259 
L 30.753169 32.968885 
L 30.48276 33.183511 
L 30.212351 33.398136 
L 29.941943 33.612762 
L 29.671534 33.827388 
L 29.401125 34.042014 
L 29.130716 34.256639 
" style="fill:none;stroke:#ff0000;stroke-linecap:square;stroke-width:0.4;"/>
   </g>
   <g id="line2d_8">
    <path clip-path="url(#pd897808367)" d="M 60.084682 12.838267 
L 60.132116 13.35742 
L 60.17955 13.876573 
L 60.149334 14.300216 
L 60.119117 14.723859 
L 60.088901 15.147502 
L 60.058685 15.571145 
L 59.949392 15.860312 
L 59.8401 16.149479 
L 59.730807 16.438646 
L 59.621515 16.727813 
L 59.512223 17.01698 
L 59.40293 17.306148 
L 59.293638 17.595315 
L 59.184346 17.884482 
L 59.049911 18.187084 
L 58.915476 18.489686 
L 58.781042 18.792288 
L 58.646607 19.09489 
" style="fill:none;stroke:#000000;stroke-linecap:square;stroke-width:0.4;"/>
   </g>
   <g id="line2d_9">
    <path clip-path="url(#pd897808367)" d="M 47.043032 23.236731 
L 46.982143 23.657821 
L 46.921254 24.078911 
L 46.860364 24.500001 
L 46.799475 24.921091 
L 46.738586 25.342181 
L 46.677697 25.763271 
L 46.616808 26.184361 
L 46.555919 26.605451 
L 46.507801 26.974977 
L 46.459683 27.344503 
L 46.411565 27.714029 
L 46.363446 28.083555 
L 46.315328 28.453082 
L 46.26721 28.822608 
L 46.219091 29.192134 
L 46.170973 29.56166 
L 46.0846 30.075289 
L 45.998226 30.588917 
L 45.911853 31.102546 
L 45.825479 31.616174 
L 45.739106 32.129802 
L 45.652732 32.643431 
L 45.566359 33.157059 
L 45.479986 33.670688 
L 45.328447 34.123042 
L 45.176909 34.575397 
L 45.02537 35.027752 
L 44.873832 35.480106 
" style="fill:none;stroke:#000000;stroke-linecap:square;stroke-width:0.4;"/>
   </g>
   <g id="line2d_10">
    <path clip-path="url(#pd897808367)" d="M 53.054396 19.7535 
L 53.095958 20.123319 
L 53.13752 20.493138 
L 53.179082 20.862958 
L 53.220643 21.232777 
L 53.262205 21.602596 
L 53.303767 21.972415 
L 53.345329 22.342234 
L 53.386891 22.712053 
L 53.26249 23.248325 
L 53.13809 23.784596 
L 53.013689 24.320867 
L 52.889289 24.857138 
L 52.764888 25.39341 
L 52.640488 25.929681 
L 52.516087 26.465952 
L 52.391686 27.002224 
L 52.23992 27.451983 
L 52.088154 27.901743 
L 51.936387 28.351503 
L 51.784621 28.801262 
" style="fill:none;stroke:#000000;stroke-linecap:square;stroke-width:0.4;"/>
   </g>
   <g id="line2d_11">
    <path clip-path="url(#pd897808367)" d="M 55.96521 12.71371 
L 56.072963 13.237634 
L 56.180716 13.761559 
L 56.288469 14.285483 
L 56.396222 14.809408 
L 56.503975 15.333332 
L 56.611728 15.857257 
L 56.719481 16.381181 
L 56.827234 16.905106 
L 56.862924 17.218925 
L 56.898613 17.532743 
L 56.934303 17.846562 
L 56.969993 18.160381 
L 57.005682 18.4742 
L 57.041372 18.788019 
L 57.077061 19.101838 
L 57.112751 19.415657 
L 56.907051 19.839216 
L 56.696106 20.27416 
L 56.485161 20.709103 
L 56.256884 21.084698 
L 56.028607 21.460293 
L 55.800331 21.835888 
L 55.572054 22.211483 
L 55.394518 22.652872 
L 55.216982 23.094261 
L 55.039446 23.53565 
L 54.86191 23.977039 
" style="fill:none;stroke:#ff0000;stroke-linecap:square;stroke-width:0.4;"/>
   </g>
   <g id="line2d_12">
    <path clip-path="url(#pd897808367)" d="M 47.61589 34.301841 
L 47.972102 34.787721 
L 48.328314 35.2736 
L 48.684526 35.75948 
L 49.040738 36.245359 
L 49.39695 36.731238 
L 49.753163 37.217118 
L 50.109375 37.702997 
L 50.465587 38.188877 
L 50.630324 38.51837 
L 50.79506 38.847863 
L 50.959797 39.177356 
L 51.124534 39.506849 
L 51.28927 39.836343 
L 51.454007 40.165836 
L 51.618744 40.495329 
L 51.78348 40.824822 
L 51.948217 41.154315 
L 52.112954 41.483808 
L 52.27769 41.813301 
L 52.442427 42.142795 
L 52.607164 42.472288 
L 52.771901 42.801781 
L 52.936637 43.131274 
L 53.101374 43.460767 
L 53.308157 43.909627 
L 53.51494 44.358487 
L 53.721724 44.807347 
L 53.928507 45.256206 
L 54.13529 45.705066 
L 54.342073 46.153926 
L 54.548856 46.602786 
L 54.755639 47.051646 
L 54.962423 47.500506 
L 55.169206 47.949366 
L 55.375989 48.398225 
L 55.582772 48.847085 
L 55.789555 49.295945 
L 55.996339 49.744805 
L 56.203122 50.193665 
L 56.409905 50.642525 
L 56.655342 51.072864 
L 56.90078 51.503204 
L 57.146217 51.933544 
L 57.391655 52.363883 
L 57.637092 52.794223 
L 57.88253 53.224562 
L 58.127967 53.654902 
L 58.373404 54.085242 
L 58.65818 54.348041 
L 58.942956 54.61084 
L 59.227732 54.873639 
L 59.512508 55.136439 
L 59.797284 55.399238 
L 60.08206 55.662037 
L 60.366835 55.924837 
L 60.651611 56.187636 
" style="fill:none;stroke:#ff0000;stroke-linecap:square;stroke-width:0.4;"/>
   </g>
   <g id="line2d_13">
    <path clip-path="url(#pd897808367)" d="M 32.288735 50.854472 
L 32.15088 51.288202 
L 32.013024 51.721931 
L 31.875169 52.155661 
L 31.737313 52.589391 
L 31.599458 53.023121 
L 31.461602 53.45685 
L 31.323747 53.89058 
L 31.185891 54.32431 
L 30.6648 54.489046 
L 30.143709 54.653782 
L 29.622617 54.818518 
L 29.101526 54.983254 
L 28.580435 55.14799 
L 28.059343 55.312726 
L 27.538252 55.477463 
L 27.017161 55.642199 
L 26.616821 55.732686 
L 26.216482 55.823174 
L 25.816142 55.913662 
L 25.415803 56.004149 
L 25.114493 56.072266 
L 24.813184 56.140383 
L 24.511874 56.2085 
L 24.210565 56.276617 
L 23.909256 56.344734 
L 23.607946 56.412851 
L 23.306637 56.480967 
L 23.005327 56.549084 
L 22.704018 56.617201 
L 22.402709 56.685318 
L 22.101399 56.753435 
L 21.80009 56.821552 
L 21.498781 56.889669 
L 21.197471 56.957786 
L 20.896162 57.025902 
L 20.594852 57.094019 
" style="fill:none;stroke:#000000;stroke-linecap:square;stroke-width:0.4;"/>
   </g>
   <g id="line2d_14">
    <path clip-path="url(#pd897808367)" d="M 44.580561 6.163441 
L 44.218363 6.659825 
L 43.856165 7.15621 
L 43.493966 7.652595 
L 43.131768 8.14898 
L 42.769569 8.645364 
L 42.407371 9.141749 
L 42.045173 9.638134 
L 41.682974 10.134518 
" style="fill:none;stroke:#ff0000;stroke-linecap:square;stroke-width:0.4;"/>
   </g>
   <g id="line2d_15">
    <path clip-path="url(#pd897808367)" d="M 40.975111 29.042005 
L 40.9051 28.671516 
L 40.835089 28.301027 
L 40.540222 28.029983 
L 40.245355 27.758938 
L 40.06474 27.643757 
L 39.760523 27.449388 
L 39.456306 27.25502 
L 38.995192 26.917344 
L 38.534077 26.579669 
L 38.307853 26.330305 
L 38.081629 26.08094 
L 37.855404 25.831576 
L 37.62918 25.582212 
L 37.302614 25.221935 
L 36.976049 24.861659 
L 36.688137 24.572617 
L 36.400226 24.283576 
L 36.112314 23.994534 
L 35.824402 23.705492 
L 35.472523 23.320439 
L 35.120644 22.935385 
L 34.840144 22.445529 
L 34.559644 21.955674 
L 34.417114 21.523074 
L 34.274583 21.090474 
L 34.036957 20.719483 
L 33.646993 20.438896 
L 33.25703 20.158309 
L 33.028981 19.901495 
L 32.800932 19.64468 
L 32.382235 19.464207 
L 32.062967 19.38117 
" style="fill:none;stroke:#008000;stroke-linecap:square;stroke-width:0.4;"/>
   </g>
   <g id="line2d_16">
    <path clip-path="url(#pd897808367)" d="M 46.778039 18.930154 
L 46.553411 19.207309 
L 46.328783 19.484465 
L 46.104155 19.76162 
L 45.879527 20.038775 
L 45.654899 20.31593 
L 45.430271 20.593085 
L 45.205643 20.87024 
L 44.981015 21.147395 
L 44.750743 21.434846 
L 44.520471 21.722297 
L 44.290198 22.009749 
L 44.059926 22.2972 
L 43.829654 22.584651 
L 43.599382 22.872102 
L 43.36911 23.159553 
L 43.138837 23.447004 
L 42.876581 23.806778 
L 42.614325 24.166553 
L 42.352069 24.526327 
L 42.089813 24.886101 
L 41.827557 25.245876 
L 41.565301 25.60565 
L 41.303045 25.965424 
L 41.040789 26.325198 
L 40.796777 26.654838 
L 40.552765 26.984478 
L 40.308753 27.314117 
L 40.06474 27.643757 
L 39.845928 27.911035 
L 39.627115 28.178312 
L 39.408302 28.44559 
L 39.189489 28.712867 
L 38.975466 28.974202 
L 38.761442 29.235536 
L 38.547418 29.496871 
L 38.333395 29.758205 
L 38.119371 30.01954 
L 37.905347 30.280874 
L 37.691323 30.542208 
L 37.4773 30.803543 
L 37.17046 31.189601 
L 36.863621 31.57566 
L 36.556781 31.961718 
L 36.249941 32.347776 
L 35.943102 32.733835 
L 35.636262 33.119893 
L 35.329423 33.505952 
L 35.022583 33.89201 
L 34.867852 34.166319 
L 34.713121 34.440628 
L 34.55839 34.714937 
L 34.403659 34.989246 
L 34.164892 35.275274 
L 33.926125 35.561302 
L 33.687358 35.84733 
L 33.448591 36.133359 
L 33.209824 36.419387 
L 32.971057 36.705415 
L 32.73229 36.991443 
L 32.493523 37.277471 
L 32.136855 37.762471 
L 31.780186 38.247472 
L 31.571237 38.522116 
L 31.362287 38.79676 
L 31.153337 39.071404 
L 30.944388 39.346047 
L 30.735438 39.620691 
L 30.526488 39.895335 
L 30.317539 40.169979 
L 30.108589 40.444623 
L 29.800495 40.849767 
L 29.492402 41.25491 
L 29.275413 41.558726 
L 29.058425 41.862542 
L 28.841436 42.166358 
L 28.624448 42.470174 
L 28.40746 42.77399 
L 28.190471 43.077806 
L 27.973483 43.381622 
L 27.756495 43.685438 
L 27.414422 44.121888 
L 27.072348 44.558338 
L 26.730275 44.994788 
L 26.388202 45.431239 
L 26.046129 45.867689 
L 25.704056 46.304139 
L 25.361983 46.740589 
L 25.01991 47.17704 
L 24.764951 47.504168 
L 24.509993 47.831296 
L 24.250474 48.189355 
L 23.990954 48.547413 
L 23.731435 48.905471 
L 23.471915 49.26353 
L 23.212396 49.621588 
L 22.952876 49.979646 
L 22.693357 50.337704 
L 22.433837 50.695763 
" style="fill:none;stroke:#ff0000;stroke-linecap:square;stroke-width:0.4;"/>
   </g>
   <g id="line2d_17">
    <path clip-path="url(#pd897808367)" d="M 32.062967 19.38117 
L 32.001166 19.763922 
L 31.939364 20.146674 
L 31.877563 20.529426 
L 31.815762 20.912177 
L 31.753961 21.294929 
L 31.69216 21.677681 
L 31.630358 22.060433 
L 31.568557 22.443185 
L 31.404533 22.792664 
L 31.240509 23.142142 
L 31.076485 23.49162 
L 30.912461 23.841098 
L 30.748437 24.190577 
L 30.584413 24.540055 
L 30.420389 24.889533 
L 30.256365 25.239012 
L 30.134131 25.587862 
L 30.011897 25.936712 
L 29.889662 26.285563 
L 29.767428 26.634413 
L 29.645194 26.983264 
L 29.52296 27.332114 
L 29.400726 27.680965 
L 29.278492 28.029815 
L 29.249929 28.384525 
L 29.221366 28.739235 
L 29.192803 29.093945 
L 29.164239 29.448655 
L 29.135676 29.803365 
L 29.107113 30.158075 
L 29.07855 30.512785 
L 29.049987 30.867495 
L 29.060078 31.291138 
L 29.070169 31.714781 
L 29.08026 32.138424 
L 29.090352 32.562067 
L 29.100443 32.98571 
L 29.110534 33.409353 
L 29.120625 33.832996 
L 29.130716 34.256639 
L 29.090352 34.633155 
L 29.049987 35.009671 
L 29.009622 35.386187 
L 28.969258 35.762702 
L 28.700274 36.129173 
L 28.431291 36.495644 
L 28.162307 36.862115 
L 27.893324 37.228586 
L 27.69304 37.490757 
L 27.492756 37.752929 
L 27.292472 38.0151 
L 27.092189 38.277272 
L 26.891905 38.539443 
L 26.691621 38.801615 
L 26.491337 39.063786 
L 26.291054 39.325958 
L 26.099379 39.863945 
L 25.907704 40.401932 
L 25.716029 40.93992 
L 25.524354 41.477907 
L 25.423556 42.072983 
L 25.322759 42.668058 
L 25.221961 43.263134 
L 25.121164 43.85821 
L 24.975326 44.438971 
L 24.829489 45.019733 
L 24.683652 45.600495 
L 24.537815 46.181257 
L 24.498362 46.67446 
L 24.45891 47.167664 
" style="fill:none;stroke:#000000;stroke-linecap:square;stroke-width:0.4;"/>
   </g>
   <g id="line2d_18">
    <path clip-path="url(#pd897808367)" d="M 51.874472 12.928336 
L 52.309133 13.106465 
L 52.446988 13.409067 
L 52.584844 13.711669 
L 52.722699 14.014271 
L 52.860555 14.316874 
L 52.952173 14.672421 
L 53.043792 15.027968 
L 53.13541 15.383515 
L 53.227029 15.739062 
L 53.318647 16.094609 
L 53.410266 16.450156 
L 53.501885 16.805703 
L 53.593503 17.16125 
L 53.685122 17.516797 
L 53.77674 17.872344 
L 53.868359 18.227891 
L 53.959977 18.583438 
L 54.051596 18.938985 
L 54.143215 19.294532 
L 54.234833 19.65008 
L 54.326452 20.005627 
L 54.398287 20.442161 
L 54.470122 20.878695 
L 54.541958 21.315228 
L 54.613793 21.751762 
L 54.675822 22.308082 
L 54.737852 22.864401 
L 54.799881 23.42072 
L 54.86191 23.977039 
L 54.738194 24.567846 
L 54.614477 25.158652 
L 54.490761 25.749459 
L 54.367044 26.340266 
L 54.044241 26.64789 
L 53.721438 26.955515 
L 53.398636 27.263139 
L 53.075833 27.570764 
L 52.75303 27.878389 
L 52.430227 28.186013 
L 52.107424 28.493638 
L 51.784621 28.801262 
L 51.524075 29.085365 
L 51.263529 29.369468 
L 51.002984 29.653571 
L 50.742438 29.937674 
L 50.481892 30.221777 
L 50.221347 30.505879 
L 49.960801 30.789982 
L 49.700255 31.074085 
L 49.43971 31.477555 
L 49.179164 31.881024 
L 48.918618 32.284494 
L 48.658073 32.687963 
L 48.397527 33.091433 
L 48.136981 33.494902 
L 47.876436 33.898372 
L 47.61589 34.301841 
L 47.367089 34.631313 
L 47.118288 34.960786 
L 46.869486 35.290258 
L 46.620685 35.61973 
L 46.034144 35.594283 
" style="fill:none;stroke:#000000;stroke-linecap:square;stroke-width:0.4;"/>
   </g>
   <g id="line2d_19">
    <path clip-path="url(#pd897808367)" d="M 42.005435 10.326376 
L 41.682974 10.134518 
L 41.325622 9.922069 
L 40.96827 9.70962 
L 40.39906 9.514079 
L 39.82985 9.318539 
L 39.497127 9.260907 
L 39.164404 9.203274 
L 38.831681 9.145641 
L 38.498958 9.088009 
L 38.166235 9.030376 
L 37.833512 8.972744 
L 37.500789 8.915111 
L 37.168066 8.857479 
L 36.699425 8.626446 
L 36.230785 8.395414 
L 35.762145 8.164382 
L 35.293505 7.933349 
L 34.85987 7.792135 
L 34.426236 7.650921 
L 33.992601 7.509706 
L 33.558966 7.368492 
L 33.122025 7.294495 
L 32.685084 7.220497 
" style="fill:none;stroke:#4169e1;stroke-dasharray:1.48,0.64;stroke-dashoffset:0;stroke-width:0.4;"/>
   </g>
   <g id="line2d_20">
    <path clip-path="url(#pd897808367)" d="M 63.182952 12.913603 
L 63.177251 13.223739 
L 63.17155 13.533875 
L 63.165848 13.844011 
L 63.160147 14.154146 
L 63.154446 14.464282 
L 63.148745 14.774418 
L 63.143044 15.084554 
L 63.137342 15.39469 
L 62.98512 15.760742 
L 62.832897 16.126794 
L 62.680675 16.492847 
L 62.528452 16.858899 
L 62.209868 17.082398 
L 61.891284 17.305896 
L 61.5727 17.529395 
L 61.254116 17.752894 
L 60.928177 17.920643 
L 60.602239 18.088393 
L 60.2763 18.256143 
L 59.950361 18.423892 
L 59.624423 18.591642 
L 59.298484 18.759391 
L 58.972545 18.927141 
L 58.646607 19.09489 
L 58.211718 19.280972 
L 57.776829 19.467053 
L 57.34194 19.653135 
L 56.907051 19.839216 
" style="fill:none;stroke:#000000;stroke-linecap:square;stroke-width:0.4;"/>
   </g>
   <g id="line2d_21">
    <path clip-path="url(#pd897808367)" d="M 51.359994 12.881125 
L 50.997054 12.956796 
L 50.634115 13.032468 
L 50.271175 13.108139 
L 49.908236 13.183811 
L 49.424088 13.156857 
L 48.939941 13.129903 
L 48.651003 12.982076 
L 48.362065 12.834249 
L 48.119878 12.55182 
L 47.87769 12.269391 
L 47.76549 11.831602 
L 47.65329 11.393812 
L 47.54109 10.956023 
L 47.42889 10.518233 
L 47.348275 10.047547 
L 47.26766 9.57686 
L 47.187044 9.106173 
L 47.106429 8.635487 
L 46.857628 8.171497 
L 46.608827 7.707507 
L 46.360026 7.243517 
L 46.111224 6.779527 
L 45.728559 6.625505 
L 45.345893 6.471484 
L 44.963227 6.317462 
L 44.580561 6.163441 
L 44.243049 6.027667 
L 43.905537 5.891894 
L 43.465118 5.767463 
L 43.024699 5.643032 
L 42.58428 5.518601 
L 42.143861 5.39417 
L 41.703442 5.269739 
L 41.263023 5.145308 
L 40.822603 5.020877 
L 40.382184 4.896446 
L 39.925061 4.748535 
L 39.467937 4.600624 
L 39.010813 4.452713 
L 38.55369 4.304802 
L 38.089725 4.214022 
L 37.625759 4.123241 
L 37.161794 4.03246 
L 36.697829 3.94168 
L 36.233864 3.850899 
L 35.769899 3.760118 
L 35.305934 3.669338 
L 34.841969 3.578557 
L 34.378117 3.766815 
L 33.914266 3.955073 
L 33.450415 4.143331 
L 32.986564 4.331589 
L 32.948879 4.692702 
L 32.911194 5.053816 
L 32.873509 5.414929 
L 32.835824 5.776043 
L 32.798139 6.137157 
L 32.760454 6.49827 
L 32.722769 6.859384 
L 32.685084 7.220497 
" style="fill:none;stroke:#ff0000;stroke-dasharray:1.48,0.64;stroke-dashoffset:0;stroke-width:0.4;"/>
   </g>
   <g id="line2d_22">
    <path clip-path="url(#pd897808367)" d="M 51.874472 12.928336 
L 51.628635 12.814159 
L 51.359994 12.881125 
L 50.149511 13.741971 
L 48.804936 14.158834 
L 48.629795 14.387523 
L 48.845073 14.562304 
L 49.921006 14.629604 
L 50.149511 14.777599 
L 50.055555 15.05986 
L 49.060351 15.880444 
L 47.97119 16.566258 
L 47.91737 16.848854 
L 48.105282 17.090936 
L 49.443586 17.026983 
L 51.359994 17.090936 
L 51.588499 17.265717 
L 51.547906 17.547978 
L 50.896029 17.988363 
L 49.060351 19.027255 
L 48.535838 19.269337 
L 47.9981 19.24255 
L 47.769139 19.417331 
L 47.876778 19.686534 
L 48.145875 19.740107 
L 50.28406 19.309851 
L 52.704569 19.336637 
L 53.202172 19.498025 
L 53.054396 19.7535 
L 52.069339 20.513647 
L 51.131033 21.058331 
L 49.584863 22.335705 
L 48.266741 22.941077 
L 47.715319 23.035164 
L 47.163897 22.981256 
L 47.043032 23.236731 
L 47.17758 23.478813 
L 47.648273 23.774802 
L 49.501169 23.918946 
L 50.059204 23.888644 
L 51.531487 23.364301 
L 51.699787 23.559172 
L 51.51826 23.794557 
L 49.978475 24.776277 
L 47.571192 26.215374 
L 46.555919 26.605451 
L 46.64349 27.150218 
L 46.939041 27.432479 
L 47.993197 27.543559 
L 49.017021 27.493084 
L 49.252368 27.613957 
L 47.650553 30.56347 
L 47.132427 32.085103 
L 46.918517 32.551018 
L 46.818404 33.430615 
L 46.823193 33.739663 
L 46.56641 34.899847 
L 46.205181 35.489481 
L 46.034144 35.594283 
L 45.434832 35.622744 
L 44.873832 35.480106 
L 44.312832 35.016535 
L 43.171676 33.825379 
L 42.362788 32.366443 
L 41.731435 30.846401 
L 41.146604 29.118011 
L 40.975111 29.042005 
L 40.823231 29.174932 
L 40.670894 29.574384 
L 40.889821 31.818746 
L 40.718328 31.733029 
L 40.499743 31.212537 
L 40.157328 30.192479 
L 39.967136 30.240025 
L 39.901002 30.430208 
L 40.395411 34.728749 
L 40.214797 35.09974 
L 40.015026 35.052194 
L 38.892798 33.012245 
L 38.122678 31.766512 
L 37.61869 31.001092 
L 37.485509 31.16248 
L 37.3962 31.88071 
L 37.2716 36.949338 
L 37.200448 37.381938 
L 37.228727 38.618128 
L 37.038534 38.656299 
L 36.867497 38.551832 
L 36.572858 38.057289 
L 35.500459 34.797807 
L 34.908559 33.739663 
L 34.727944 33.673031 
L 34.566486 33.815669 
L 34.423271 34.607038 
L 34.279885 36.194423 
L 33.615523 39.122381 
L 33.634679 39.968496 
L 33.967174 40.729563 
L 33.958052 41.119304 
L 33.758281 41.195311 
L 33.577666 41.12868 
L 33.026017 40.406118 
L 32.759884 39.987581 
L 32.379498 36.868309 
L 32.160572 36.535489 
L 31.961257 36.763842 
L 31.780186 38.247472 
L 31.010066 39.95912 
L 30.924548 40.358572 
L 31.04815 40.929121 
L 31.532982 41.556927 
L 31.666162 41.965753 
L 31.54256 43.962676 
L 31.342789 43.991137 
L 31.162174 43.88667 
L 30.325692 43.021136 
L 30.078487 42.051135 
L 29.23197 40.900661 
L 29.023077 40.016041 
L 28.870741 39.883114 
L 28.65227 40.206224 
L 28.190927 41.999069 
L 27.881921 42.921524 
L 27.756495 43.685438 
L 27.715446 45.512937 
L 27.748741 46.083486 
L 27.967668 46.88239 
L 27.591957 48.601237 
L 27.511114 48.898398 
L 27.3305 48.99349 
L 25.751946 47.700043 
L 25.01991 47.17704 
L 24.45891 47.167664 
L 24.421054 47.576491 
L 24.805772 48.974404 
L 25.195735 50.300999 
L 25.71409 51.77023 
L 25.761524 52.169682 
L 25.618766 52.321695 
L 25.428573 52.321695 
L 24.344886 51.46587 
L 23.123001 50.943034 
L 21.986862 50.652904 
L 21.539886 50.610046 
L 21.012182 51.14728 
L 20.1066 52.240917 
L 17.974116 54.708694 
L 17.32509 54.817179 
L 17.32509 54.817179 
" style="fill:none;stroke:#000000;stroke-linecap:square;stroke-width:0.4;"/>
   </g>
   <g id="line2d_23">
    <path clip-path="url(#pd897808367)" d="M 44.695498 14.622238 
L 44.333357 14.950957 
L 43.971215 15.279676 
L 43.609074 15.608395 
L 43.246932 15.937114 
L 42.702352 16.132152 
L 42.157772 16.32719 
L 41.801332 16.495274 
L 41.444891 16.663359 
L 41.283547 17.060132 
L 41.122202 17.456905 
L 40.960858 17.853678 
L 40.799513 18.25045 
L 40.73566 18.590051 
L 40.671806 18.929652 
L 40.607953 19.269253 
L 40.544099 19.608854 
L 40.285264 19.891199 
L 40.026428 20.173544 
L 39.767593 20.455889 
L 39.508758 20.738234 
L 39.07843 20.782012 
L 38.648102 20.825791 
L 38.217774 20.86957 
L 37.787446 20.913349 
L 37.390755 20.946916 
L 36.994064 20.980483 
L 36.597374 21.014049 
L 36.200683 21.047616 
L 35.719158 21.058331 
L 35.237633 21.069045 
L 34.756108 21.07976 
L 34.274583 21.090474 
" style="fill:none;stroke:#ff0000;stroke-dasharray:1.48,0.64;stroke-dashoffset:0;stroke-width:0.4;"/>
   </g>
   <g id="line2d_24">
    <path clip-path="url(#pd897808367)" d="M 27.511114 48.898398 
L 27.268926 49.203176 
L 27.026739 49.507955 
L 26.784551 49.812734 
L 26.542363 50.117512 
L 26.300175 50.422291 
L 26.057988 50.727069 
L 25.8158 51.031848 
L 25.573612 51.336626 
L 25.279885 51.654547 
L 24.986159 51.972467 
L 24.764524 52.23376 
L 24.542889 52.495053 
L 24.321254 52.756345 
L 24.099619 53.017638 
L 23.877984 53.27893 
L 23.65635 53.540223 
L 23.434715 53.801515 
L 23.21308 54.062808 
L 22.991445 54.324101 
L 22.76981 54.585393 
L 22.548175 54.846686 
L 22.32654 55.107978 
L 22.104906 55.369271 
L 21.883271 55.630563 
L 21.661636 55.891856 
L 21.440001 56.153148 
L 21.228714 56.388366 
L 21.017427 56.623584 
L 20.80614 56.858802 
L 20.594852 57.094019 
L 20.3249 57.352047 
L 20.054947 57.610075 
L 19.784994 57.868103 
L 19.515042 58.126131 
L 19.245089 58.384159 
L 18.975136 58.642187 
L 18.705184 58.900215 
L 18.435231 59.158243 
" style="fill:none;stroke:#000000;stroke-linecap:square;stroke-width:0.4;"/>
   </g>
   <g id="line2d_25">
    <path clip-path="url(#pd897808367)" d="M 54.367044 26.340266 
L 54.650395 26.742145 
L 54.933746 27.144024 
L 55.217096 27.545903 
L 55.500447 27.947782 
L 55.84155 28.290103 
L 56.182654 28.632425 
L 56.523758 28.974746 
L 56.864862 29.317067 
L 57.205966 29.659389 
L 57.54707 30.00171 
L 57.888174 30.344031 
L 58.229278 30.686352 
L 58.408809 31.059604 
L 58.58834 31.432855 
L 58.767872 31.806106 
L 58.947403 32.179357 
L 59.126934 32.552608 
L 59.306466 32.925859 
L 59.485997 33.299111 
L 59.665529 33.672362 
L 59.737649 33.976408 
L 59.809769 34.280454 
L 59.88189 34.5845 
L 59.95401 34.888546 
L 60.026131 35.192592 
L 60.098251 35.496638 
L 60.170371 35.800685 
L 60.242492 36.104731 
L 60.314612 36.408777 
L 60.386733 36.712823 
L 60.458853 37.016869 
L 60.530973 37.320915 
L 60.603094 37.624961 
L 60.675214 37.929007 
L 60.747335 38.233053 
L 60.819455 38.537099 
L 60.886045 39.080946 
L 60.952636 39.624793 
L 61.019226 40.16864 
L 61.085816 40.712487 
L 61.152406 41.256333 
L 61.218996 41.80018 
L 61.285587 42.344027 
L 61.352177 42.887874 
" style="fill:none;stroke:#ff0000;stroke-linecap:square;stroke-width:0.4;"/>
   </g>
   <g id="line2d_26">
    <path clip-path="url(#pd897808367)" d="M 60.651611 56.187636 
L 60.195286 56.58692 
L 59.73896 56.986204 
L 59.310913 57.252561 
L 58.882865 57.518918 
L 58.630871 57.809215 
L 58.378878 58.099512 
L 58.126884 58.389809 
L 57.87489 58.680107 
L 57.622896 58.970404 
L 57.370902 59.260701 
L 57.118908 59.550998 
L 56.866915 59.841295 
L 56.536472 60.019341 
L 56.206029 60.197386 
L 55.875587 60.375432 
L 55.545144 60.553478 
L 55.214702 60.731523 
L 54.884259 60.909569 
L 54.553816 61.087614 
L 54.223374 61.26566 
L 53.816877 61.339364 
L 53.41038 61.413069 
L 53.003883 61.486773 
L 52.597386 61.560477 
L 52.190889 61.634182 
L 51.784393 61.707886 
L 51.377896 61.78159 
L 50.971399 61.855295 
L 50.419464 61.966918 
L 49.867529 62.078542 
L 49.315594 62.190166 
L 48.763659 62.30179 
L 48.211724 62.413414 
L 47.659789 62.525037 
L 47.107854 62.636661 
L 46.555919 62.748285 
L 45.980781 62.691364 
L 45.405642 62.634443 
L 44.875884 62.48695 
L 44.346127 62.339458 
L 44.03849 62.324349 
L 43.730852 62.30924 
L 43.423214 62.294131 
L 43.115576 62.279021 
L 42.807939 62.263912 
L 42.500301 62.248803 
L 42.192663 62.233694 
L 41.885025 62.218585 
L 41.474994 62.097544 
L 41.064962 61.976503 
L 40.553905 61.996593 
L 40.042848 62.016682 
L 39.716738 61.999857 
L 39.390628 61.983032 
L 39.064519 61.966207 
L 38.738409 61.949382 
L 38.334991 62.077119 
L 37.931573 62.204857 
L 37.655862 62.366244 
L 37.380151 62.527632 
L 37.10444 62.68902 
L 36.828729 62.850408 
L 36.536257 63.055575 
L 36.243784 63.260741 
L 35.951312 63.465908 
L 35.658839 63.671075 
L 35.255421 63.744905 
L 34.852003 63.818735 
L 34.28724 63.828863 
L 33.722477 63.838992 
L 33.157715 63.849121 
L 32.592952 63.859249 
L 32.145862 63.876074 
L 31.698773 63.892899 
L 31.251683 63.909725 
L 30.804594 63.92655 
L 30.313719 63.869378 
L 29.822844 63.812206 
L 29.331969 63.755033 
L 28.841094 63.697861 
L 28.518405 63.563427 
L 28.195716 63.428993 
L 27.930154 63.267605 
L 27.664591 63.106218 
L 27.399028 62.94483 
L 27.133466 62.783442 
L 26.878051 62.5951 
L 26.622636 62.406759 
L 26.367222 62.218417 
L 26.111807 62.030076 
L 25.674752 61.801471 
L 25.237696 61.572866 
L 24.800641 61.344261 
L 24.363586 61.115656 
L 23.976986 60.898812 
L 23.590386 60.681968 
L 23.203787 60.465124 
L 22.817187 60.248281 
L 22.430588 60.031437 
L 22.043988 59.814593 
L 21.657388 59.597749 
L 21.270789 59.380905 
L 20.908647 59.166949 
L 20.546506 58.952993 
L 20.185049 59.0814 
L 19.823592 59.209807 
L 19.585965 59.590173 
L 19.433856 59.899221 
L 19.281748 60.208268 
" style="fill:none;stroke:#008000;stroke-linecap:square;stroke-width:0.4;"/>
   </g>
   <g id="line2d_27">
    <path clip-path="url(#pd897808367)" d="M 66.825346 12.980234 
L 66.814058 13.535968 
L 66.80277 14.091701 
L 66.791481 14.647434 
L 66.780193 15.203167 
L 66.780193 15.583115 
L 66.780193 15.963063 
L 66.780193 16.343011 
L 66.780193 16.722958 
L 66.665712 17.307905 
L 66.551232 17.892853 
L 66.245304 18.334995 
L 65.939377 18.777137 
L 65.63345 19.21928 
L 65.327522 19.661422 
L 65.021595 20.103564 
L 64.715668 20.545707 
L 64.40974 20.987849 
L 64.103813 21.429991 
L 63.781922 21.877909 
L 63.460031 22.325828 
L 63.138141 22.773746 
L 62.81625 23.221664 
L 62.687972 23.5878 
L 62.559695 23.953936 
L 62.431418 24.320072 
L 62.30314 24.686208 
L 62.260267 25.156978 
L 62.217394 25.627749 
L 62.174521 26.098519 
L 62.131647 26.569289 
L 62.174521 27.06852 
L 62.217394 27.567751 
L 62.260267 28.066981 
L 62.30314 28.566212 
L 62.421953 29.127303 
L 62.540767 29.688393 
L 62.65958 30.249484 
L 62.778394 30.810574 
L 62.764141 31.13628 
L 62.749888 31.461985 
L 62.735635 31.78769 
L 62.721381 32.113396 
L 62.707128 32.439101 
L 62.692875 32.764806 
L 62.678622 33.090512 
L 62.664369 33.416217 
L 62.540767 33.991538 
L 62.417164 34.566859 
L 62.293562 35.14218 
L 62.16996 35.7175 
L 62.118848 36.165649 
L 62.067737 36.613797 
L 62.016625 37.061945 
L 61.965514 37.510094 
L 61.914403 37.958242 
L 61.863291 38.40639 
L 61.81218 38.854539 
L 61.761068 39.302687 
L 61.709957 39.750835 
L 61.658845 40.198984 
L 61.607734 40.647132 
L 61.556623 41.09528 
L 61.505511 41.543429 
L 61.4544 41.991577 
L 61.403288 42.439725 
L 61.352177 42.887874 
L 61.325039 43.357702 
L 61.297901 43.827531 
L 61.270764 44.297359 
L 61.243626 44.767188 
L 61.216488 45.237017 
L 61.18935 45.706845 
L 61.162212 46.176674 
L 61.135075 46.646502 
L 61.107937 47.116331 
L 61.080799 47.586159 
L 61.053661 48.055988 
L 61.026523 48.525816 
L 60.999386 48.995645 
L 60.972248 49.465474 
L 60.94511 49.935302 
L 60.917972 50.405131 
L 60.901325 50.766537 
L 60.884677 51.127944 
L 60.868029 51.48935 
L 60.851382 51.850757 
L 60.834734 52.212164 
L 60.818087 52.57357 
L 60.801439 52.934977 
L 60.784792 53.296383 
L 60.768144 53.65779 
L 60.751497 54.019196 
L 60.734849 54.380603 
L 60.718201 54.74201 
L 60.701554 55.103416 
L 60.684906 55.464823 
L 60.668259 55.826229 
L 60.651611 56.187636 
" style="fill:none;stroke:#000000;stroke-linecap:square;stroke-width:0.4;"/>
   </g>
   <g id="line2d_28">
    <path clip-path="url(#pd897808367)" d="M 52.309133 13.106465 
L 52.681194 13.046363 
L 53.053256 12.986261 
L 53.425317 12.926159 
L 53.797379 12.866057 
L 54.339337 12.827971 
L 54.881294 12.789884 
L 55.423252 12.751797 
L 55.96521 12.71371 
" style="fill:none;stroke:#008000;stroke-linecap:square;stroke-width:0.4;"/>
   </g>
   <g id="line2d_29">
    <path clip-path="url(#pd897808367)" d="M 55.96521 12.71371 
L 56.301639 12.732753 
L 56.638068 12.751797 
L 56.974497 12.77084 
L 57.310925 12.789884 
L 57.647354 12.808927 
L 57.983783 12.827971 
L 58.320212 12.847014 
L 58.656641 12.866057 
L 59.013651 12.85911 
L 59.370662 12.852162 
L 59.727672 12.845214 
L 60.084682 12.838267 
L 60.462217 12.830984 
L 60.839751 12.823702 
L 61.217286 12.816419 
L 61.594821 12.809136 
L 61.991854 12.835253 
L 62.388886 12.86137 
L 62.785919 12.887487 
L 63.182952 12.913603 
L 63.638251 12.921932 
L 64.093551 12.930261 
L 64.54885 12.93859 
L 65.004149 12.946919 
L 65.459449 12.955248 
L 65.914748 12.963577 
L 66.370047 12.971905 
L 66.825346 12.980234 
L 67.300828 12.982578 
L 67.77631 12.984922 
L 68.251791 12.987266 
L 68.727273 12.98961 
" style="fill:none;stroke:#008000;stroke-linecap:square;stroke-width:0.4;"/>
   </g>
   <g id="line2d_30">
    <path clip-path="url(#pd897808367)" d="M 47.769139 19.417331 
L 47.273589 19.173743 
L 46.778039 18.930154 
L 46.483172 18.682883 
L 46.188305 18.435611 
L 45.955467 17.874604 
L 45.722629 17.313598 
L 45.570407 16.947461 
L 45.418184 16.581325 
L 45.265962 16.215189 
L 45.113739 15.849053 
L 45.009179 15.54235 
L 44.904619 15.235646 
L 44.800058 14.928942 
L 44.695498 14.622238 
L 44.400631 14.31319 
L 44.105764 14.004143 
L 43.835526 13.826181 
L 43.565288 13.648219 
L 43.252634 13.375835 
L 42.939979 13.103452 
L 42.711474 12.726768 
L 42.714895 12.343556 
L 42.718315 11.960344 
L 42.73177 11.620659 
L 42.745225 11.280975 
L 42.536789 10.790115 
L 42.271112 10.558245 
L 42.005435 10.326376 
" style="fill:none;stroke:#008000;stroke-linecap:square;stroke-width:0.4;"/>
   </g>
   <g id="line2d_31">
    <path clip-path="url(#pd897808367)" d="M 42.005435 10.326376 
L 41.643151 10.566595 
L 41.280867 10.806814 
L 40.918583 11.047033 
L 40.5563 11.287253 
L 40.194016 11.527472 
L 39.831732 11.767691 
L 39.469448 12.00791 
L 39.107164 12.24813 
L 38.74488 12.488349 
L 38.382596 12.728568 
L 38.020312 12.968787 
L 37.658028 13.209007 
L 37.295744 13.449226 
L 36.93346 13.689445 
L 36.571177 13.929664 
L 36.208893 14.169883 
L 35.902224 14.409998 
L 35.595556 14.650113 
L 35.288887 14.890227 
L 34.982219 15.130342 
L 34.67555 15.370456 
L 34.368881 15.610571 
L 34.062213 15.850686 
L 33.755544 16.0908 
L 33.498762 16.547842 
L 33.241979 17.004885 
L 33.02328 17.394124 
L 32.804581 17.783363 
L 32.619178 18.182815 
L 32.433774 18.582266 
L 32.24837 18.981718 
L 32.062967 19.38117 
" style="fill:none;stroke:#ff0000;stroke-linecap:square;stroke-width:0.4;"/>
   </g>
   <g id="line2d_32">
    <path clip-path="url(#pd897808367)" d="M 45.69572 35.656227 
L 45.908033 36.127081 
L 46.120346 36.597934 
L 46.33266 37.068788 
L 46.544973 37.539642 
L 46.637675 37.889121 
L 46.730377 38.238599 
L 46.823079 38.588077 
L 46.91578 38.937556 
L 47.008482 39.287034 
L 47.101184 39.636512 
L 47.193886 39.98599 
L 47.286588 40.335469 
L 47.329347 40.689718 
L 47.372106 41.043968 
L 47.414865 41.398217 
L 47.457624 41.752467 
L 47.500383 42.106717 
L 47.543142 42.460966 
L 47.585902 42.815216 
L 47.628661 43.169465 
L 47.642971 43.68774 
L 47.657281 44.206014 
L 47.671591 44.724288 
L 47.685901 45.242562 
L 47.700211 45.760836 
L 47.714521 46.279111 
L 47.728831 46.797385 
L 47.743141 47.315659 
L 47.728831 47.707954 
L 47.714521 48.100248 
L 47.700211 48.492543 
L 47.685901 48.884837 
L 47.671591 49.277132 
L 47.657281 49.669427 
L 47.642971 50.061721 
L 47.628661 50.454016 
L 47.50979 50.763063 
L 47.39092 51.072111 
L 47.272049 51.381159 
L 47.153179 51.690206 
L 47.034309 51.999254 
L 46.915438 52.308301 
L 46.796568 52.617349 
L 46.677697 52.926397 
L 46.611221 53.473257 
L 46.544745 54.020117 
L 46.478269 54.566977 
L 46.411793 55.113838 
L 46.316696 55.696315 
L 46.2216 56.278793 
L 46.126504 56.861271 
L 46.031407 57.443749 
L 45.936311 58.026226 
L 45.841215 58.608704 
L 45.746118 59.191182 
L 45.651022 59.77366 
L 45.48791 60.094385 
L 45.324798 60.415109 
L 45.161687 60.735834 
L 44.998575 61.056559 
L 44.835463 61.377284 
L 44.672351 61.698008 
L 44.509239 62.018733 
L 44.346127 62.339458 
" style="fill:none;stroke:#ff0000;stroke-linecap:square;stroke-width:0.4;"/>
   </g>
   <g id="line2d_33">
    <path clip-path="url(#pd897808367)" d="M 45.434832 35.622744 
L 45.319439 35.977788 
L 45.204047 36.332833 
L 45.088654 36.687878 
L 44.973261 37.042923 
L 44.857869 37.397968 
L 44.742476 37.753013 
L 44.627083 38.108057 
L 44.511691 38.463102 
L 44.449889 38.888629 
L 44.388088 39.314155 
L 44.326287 39.739681 
L 44.264486 40.165208 
L 44.202685 40.590734 
L 44.140883 41.016261 
L 44.079082 41.441787 
L 44.017281 41.867314 
L 43.931706 42.257222 
L 43.84613 42.647131 
L 43.760555 43.03704 
L 43.67498 43.426949 
L 43.589405 43.816858 
L 43.503829 44.206767 
L 43.418254 44.596676 
L 43.332679 44.986585 
L 43.014095 45.405038 
L 42.695511 45.823491 
L 42.376927 46.241945 
L 42.058342 46.660398 
L 41.763589 47.188173 
L 41.468837 47.715948 
L 41.174084 48.243723 
L 40.879331 48.771498 
L 40.755728 49.208952 
L 40.632126 49.646407 
L 40.508523 50.083862 
L 40.384921 50.521316 
L 40.318331 50.963543 
L 40.25174 51.405769 
L 40.18515 51.847995 
L 40.11856 52.290221 
L 40.087659 52.634928 
L 40.056759 52.979635 
L 40.025858 53.324342 
L 39.994958 53.669048 
L 39.964057 54.013755 
L 39.933156 54.358462 
L 39.902256 54.703169 
L 39.871355 55.047876 
L 39.935551 55.651741 
L 39.999747 56.255606 
L 40.063942 56.859471 
L 40.128138 57.463336 
L 40.192334 58.067201 
L 40.256529 58.671066 
L 40.320725 59.274931 
L 40.384921 59.878796 
L 40.554931 60.403223 
L 40.724942 60.92765 
L 40.894952 61.452076 
L 41.064962 61.976503 
" style="fill:none;stroke:#000000;stroke-linecap:square;stroke-width:0.4;"/>
   </g>
   <g id="line2d_34">
    <path clip-path="url(#pd897808367)" d="M 44.560037 35.261463 
L 44.248979 35.710887 
L 43.93792 36.160312 
L 43.626862 36.609737 
L 43.315803 37.059162 
L 42.887927 37.48473 
L 42.46005 37.910299 
L 42.032174 38.335867 
L 41.604297 38.761435 
L 41.176421 39.187003 
L 40.748545 39.612572 
L 40.320668 40.03814 
L 39.892792 40.463708 
L 39.552001 40.891223 
L 39.211211 41.318737 
L 38.870421 41.746252 
L 38.52963 42.173766 
L 38.18884 42.601281 
L 37.84805 43.028795 
L 37.50726 43.45631 
L 37.166469 43.883824 
L 36.825679 44.311339 
L 36.484889 44.738853 
L 36.144098 45.166368 
L 35.803308 45.593882 
L 35.462518 46.021397 
L 35.121727 46.448911 
L 34.780937 46.876425 
L 34.440147 47.30394 
L 34.17122 47.747756 
L 33.902294 48.191573 
L 33.633367 48.635389 
L 33.364441 49.079206 
L 33.095514 49.523022 
L 32.826588 49.966839 
L 32.557661 50.410655 
L 32.288735 50.854472 
" style="fill:none;stroke:#000000;stroke-linecap:square;stroke-width:0.4;"/>
   </g>
   <g id="line2d_35">
    <path clip-path="url(#pd897808367)" d="M 38.079804 40.44998 
L 37.832029 40.777109 
L 37.584255 41.104237 
L 37.33648 41.431366 
L 37.088705 41.758494 
L 36.84093 42.085622 
L 36.593155 42.412751 
L 36.34538 42.739879 
L 36.097605 43.067008 
L 35.815167 43.421718 
L 35.532728 43.776428 
L 35.25029 44.131138 
L 34.967851 44.485848 
L 34.685413 44.840558 
L 34.402975 45.195268 
L 34.120536 45.549978 
L 33.838098 45.904688 
L 33.330576 46.163594 
L 32.823053 46.422501 
L 32.315531 46.681408 
L 31.808008 46.940315 
L 31.246096 46.929684 
L 30.684184 46.919053 
L 30.122272 46.908423 
L 29.56036 46.897792 
L 29.162187 46.893941 
L 28.764014 46.890091 
L 28.365841 46.88624 
L 27.967668 46.88239 
L 27.599198 46.919221 
L 27.230728 46.956052 
L 26.862259 46.992883 
L 26.493789 47.029715 
L 26.125319 47.066546 
L 25.756849 47.103377 
L 25.38838 47.140208 
L 25.01991 47.17704 
" style="fill:none;stroke:#000000;stroke-linecap:square;stroke-width:0.4;"/>
   </g>
   <g id="line2d_36">
    <path clip-path="url(#pd897808367)" d="M 31.185891 54.32431 
L 31.116337 54.840366 
L 31.046782 55.356422 
L 30.977227 55.872478 
L 30.907672 56.388534 
L 30.739543 56.815567 
L 30.571414 57.2426 
L 30.403285 57.669633 
L 30.235156 58.096666 
L 30.067027 58.523699 
L 29.898898 58.950733 
L 29.730769 59.377766 
L 29.562641 59.804799 
L 29.310533 59.98636 
L 29.058425 60.167921 
L 28.806317 60.349483 
L 28.554209 60.531044 
L 28.302101 60.712605 
L 28.049993 60.894167 
L 27.797885 61.075728 
L 27.545778 61.257289 
L 27.187285 61.450486 
L 26.828792 61.643682 
L 26.4703 61.836879 
L 26.111807 62.030076 
" style="fill:none;stroke:#000000;stroke-linecap:square;stroke-width:0.4;"/>
   </g>
   <g id="line2d_37">
    <path clip-path="url(#pd897808367)" d="M 32.288735 50.854472 
L 31.924085 51.046538 
L 31.559435 51.238605 
L 31.194785 51.430672 
L 30.830135 51.622738 
L 30.465485 51.814805 
L 30.100836 52.006871 
L 29.736186 52.198938 
L 29.371536 52.391004 
L 29.079063 52.617935 
L 28.786591 52.844866 
L 28.494118 53.071796 
L 28.201646 53.298727 
L 27.909173 53.525658 
L 27.616701 53.752588 
L 27.324228 53.979519 
L 27.031756 54.20645 
L 26.627767 54.655875 
L 26.223779 55.1053 
L 25.819791 55.554724 
L 25.415803 56.004149 
" style="fill:none;stroke:#ff0000;stroke-linecap:square;stroke-width:0.4;"/>
   </g>
   <g id="line2d_38">
    <path clip-path="url(#pd897808367)" d="M 43.571218 34.281751 
L 43.193854 34.758005 
L 42.81649 35.234258 
L 42.439127 35.710511 
L 42.061763 36.186764 
L 41.6844 36.663017 
L 41.307036 37.13927 
L 40.929672 37.615523 
L 40.552309 38.091776 
L 40.243246 38.386552 
L 39.934183 38.681327 
L 39.62512 38.976103 
L 39.316057 39.270878 
L 39.006993 39.565654 
L 38.69793 39.860429 
L 38.388867 40.155205 
L 38.079804 40.44998 
L 37.63796 40.713659 
L 37.196116 40.977337 
L 36.754271 41.241015 
L 36.312427 41.504693 
L 35.979476 41.703331 
L 35.646524 41.901968 
L 35.313573 42.100606 
L 34.980622 42.299244 
L 34.647671 42.497881 
L 34.31472 42.696519 
L 33.981769 42.895156 
L 33.648818 43.093794 
L 33.393289 43.331544 
L 33.13776 43.569294 
L 32.882232 43.807044 
L 32.626703 44.044793 
L 32.371175 44.282543 
L 32.115646 44.520293 
L 31.860117 44.758043 
L 31.604589 44.995793 
L 31.34906 45.233543 
L 31.093532 45.471293 
L 30.838003 45.709042 
L 30.582474 45.946792 
L 30.326946 46.184542 
L 30.071417 46.422292 
L 29.815889 46.660042 
L 29.56036 46.897792 
L 29.304204 47.147868 
L 29.048049 47.397943 
L 28.791893 47.648019 
L 28.535737 47.898095 
L 28.279581 48.148171 
L 28.023426 48.398246 
L 27.76727 48.648322 
L 27.511114 48.898398 
" style="fill:none;stroke:#ff0000;stroke-linecap:square;stroke-width:0.4;"/>
   </g>
   <g id="line2d_39">
    <path clip-path="url(#pd897808367)" d="M 47.87769 12.269391 
L 47.431969 12.360465 
L 46.986247 12.451539 
L 46.540526 12.542612 
L 46.094805 12.633686 
L 45.700452 12.692407 
L 45.306098 12.751127 
L 44.911745 12.809848 
L 44.517392 12.868569 
L 44.123039 12.927289 
L 43.728685 12.98601 
L 43.334332 13.044731 
L 42.939979 13.103452 
" style="fill:none;stroke:#ff0000;stroke-linecap:square;stroke-width:0.4;"/>
   </g>
   <g id="line2d_40">
    <path clip-path="url(#pd897808367)" d="M 37.393834 39.452523 
L 36.840816 39.426239 
L 36.287797 39.399955 
L 35.931471 39.480649 
L 35.575145 39.561343 
L 35.218819 39.642037 
L 34.862493 39.722731 
L 34.555539 39.784172 
L 34.248586 39.845613 
L 33.941632 39.907054 
L 33.634679 39.968496 
L 33.197281 39.978038 
L 32.759884 39.987581 
L 32.30105 40.080329 
L 31.842216 40.173076 
L 31.383382 40.265824 
L 30.924548 40.358572 
L 30.516568 40.401597 
L 30.108589 40.444623 
" style="fill:none;stroke:#000000;stroke-linecap:square;stroke-width:0.4;"/>
   </g>
   <g id="line2d_41">
    <path clip-path="url(#pd897808367)" d="M 42.536789 32.739192 
L 42.301784 33.029071 
L 42.06678 33.318949 
L 41.831776 33.608828 
L 41.596772 33.898707 
L 41.334088 34.24582 
L 41.071405 34.592934 
L 40.808721 34.940047 
L 40.546037 35.287161 
L 40.283354 35.634274 
L 40.02067 35.981388 
L 39.757986 36.328501 
L 39.495303 36.675615 
L 39.232619 37.022728 
L 38.969936 37.369842 
L 38.707252 37.716956 
L 38.444568 38.064069 
L 38.181885 38.411183 
L 37.919201 38.758296 
L 37.656517 39.10541 
L 37.393834 39.452523 
L 37.123482 39.965566 
L 36.85313 40.478608 
L 36.582779 40.991651 
L 36.312427 41.504693 
" style="fill:none;stroke:#000000;stroke-linecap:square;stroke-width:0.4;"/>
   </g>
   <g id="line2d_42">
    <path clip-path="url(#pd897808367)" d="M 43.138837 23.447004 
L 42.836787 23.539082 
L 42.534736 23.63116 
L 42.232686 23.723238 
L 41.930635 23.815317 
L 41.628585 23.907395 
L 41.326534 23.999473 
L 41.024484 24.091551 
L 40.722433 24.183629 
L 40.434978 24.314757 
L 40.147522 24.445884 
L 39.860067 24.577012 
L 39.572611 24.708139 
L 39.285156 24.839267 
L 38.997701 24.970395 
L 38.710245 25.101522 
L 38.42279 25.23265 
L 38.025985 25.407431 
L 37.62918 25.582212 
" style="fill:none;stroke:#ff0000;stroke-linecap:square;stroke-width:0.4;"/>
   </g>
   <g id="line2d_43">
    <path clip-path="url(#pd897808367)" d="M 32.685084 7.220497 
L 32.710397 7.542143 
L 32.735711 7.863789 
L 32.761024 8.185434 
L 32.786337 8.50708 
L 32.811651 8.828725 
L 32.836964 9.150371 
L 32.862278 9.472016 
L 32.887591 9.793662 
L 32.998537 10.143308 
L 33.109482 10.492953 
L 33.220428 10.842599 
L 33.331374 11.192245 
L 33.351556 11.622668 
L 33.371738 12.053091 
L 33.391921 12.483515 
L 33.412103 12.913938 
L 33.410393 13.226627 
L 33.408682 13.539316 
L 33.406972 13.852005 
L 33.405262 14.164694 
L 33.403551 14.477383 
L 33.401841 14.790071 
L 33.40013 15.10276 
L 33.39842 15.415449 
L 33.35931 15.812808 
L 33.320199 16.210167 
L 33.281089 16.607526 
L 33.241979 17.004885 
" style="fill:none;stroke:#ff0000;stroke-linecap:square;stroke-width:0.4;"/>
   </g>
   <g id="line2d_44">
    <path clip-path="url(#pd897808367)" d="M 47.106429 8.635487 
L 46.820827 8.770151 
L 46.535224 8.904815 
L 46.249622 9.03948 
L 45.964019 9.174144 
L 45.678416 9.308808 
L 45.392814 9.443472 
L 45.107211 9.578137 
L 44.821609 9.712801 
L 44.536006 9.847465 
L 44.250404 9.982129 
L 43.964801 10.116793 
L 43.679199 10.251458 
L 43.393596 10.386122 
L 43.107994 10.520786 
L 42.822391 10.65545 
L 42.536789 10.790115 
" style="fill:none;stroke:#ff0000;stroke-linecap:square;stroke-width:0.4;"/>
   </g>
   <g id="line2d_45">
    <path clip-path="url(#pd897808367)" d="M 53.797379 12.866057 
L 53.937059 13.316236 
L 54.076738 13.766414 
L 54.216418 14.216592 
L 54.356098 14.66677 
L 54.386999 15.108996 
L 54.417899 15.551223 
L 54.4488 15.993449 
L 54.4797 16.435675 
L 54.510601 16.808926 
L 54.541502 17.182177 
L 54.572402 17.555428 
L 54.603303 17.928679 
L 54.643668 18.380364 
L 54.684032 18.832049 
L 54.724397 19.283734 
L 54.764761 19.735419 
L 54.727019 20.239505 
L 54.689277 20.743591 
L 54.651535 21.247677 
L 54.613793 21.751762 
" style="fill:none;stroke:#ff0000;stroke-linecap:square;stroke-width:0.4;"/>
   </g>
  </g>
 </g>
 <defs>
  <clipPath id="pd897808367">
   <rect height="78.728257" width="72" x="0" y="0"/>
  </clipPath>
 </defs>
</svg>
