<?xml version="1.0" encoding="utf-8" standalone="no"?>
<!DOCTYPE svg PUBLIC "-//W3C//DTD SVG 1.1//EN"
  "http://www.w3.org/Graphics/SVG/1.1/DTD/svg11.dtd">
<svg height="46.970748pt" version="1.1" viewBox="0 0 72 46.970748" width="72pt" xmlns="http://www.w3.org/2000/svg" xmlns:xlink="http://www.w3.org/1999/xlink">
 <metadata>
  <rdf:RDF xmlns:cc="http://creativecommons.org/ns#" xmlns:dc="http://purl.org/dc/elements/1.1/" xmlns:rdf="http://www.w3.org/1999/02/22-rdf-syntax-ns#">
   <cc:Work>
    <dc:type rdf:resource="http://purl.org/dc/dcmitype/StillImage"/>
    <dc:date>2022-05-22T19:41:48.773025</dc:date>
    <dc:format>image/svg+xml</dc:format>
    <dc:creator>
     <cc:Agent>
      <dc:title>Matplotlib v3.4.3, https://matplotlib.org/</dc:title>
     </cc:Agent>
    </dc:creator>
   </cc:Work>
  </rdf:RDF>
 </metadata>
 <defs>
  <style type="text/css">*{stroke-linecap:butt;stroke-linejoin:round;}</style>
 </defs>
 <g id="figure_1">
  <g id="patch_1">
   <path d="M 0 46.970748 
L 72 46.970748 
L 72 0 
L 0 0 
z
" style="fill:#ffffff;"/>
  </g>
  <g id="axes_1">
   <g id="line2d_1">
    <path clip-path="url(#p565edd9072)" d="M 4.784934 39.723737 
L 5.9533 38.750568 
L 7.121665 37.7774 
L 8.290031 36.804231 
L 9.458397 35.831062 
L 10.626763 34.857893 
L 11.795128 33.884724 
L 12.963494 32.911555 
L 14.13186 31.938386 
L 15.300225 30.965217 
L 16.468591 29.992048 
L 17.636957 29.018879 
L 18.805323 28.045711 
L 19.973688 27.072542 
L 21.142054 26.099373 
L 22.31042 25.126204 
L 23.478785 24.153035 
L 24.647151 23.179866 
L 25.815517 22.206697 
L 26.983883 21.233528 
L 28.152248 20.260359 
L 29.320614 19.287191 
L 30.48898 18.314022 
L 31.657345 17.340853 
L 32.825711 16.367684 
L 33.994077 15.394515 
L 35.162443 14.421346 
L 36.330808 13.448177 
L 37.499174 12.475008 
L 38.66754 11.501839 
L 39.835906 10.528671 
L 41.004271 9.555502 
L 42.172637 8.582333 
" style="fill:none;stroke:#808080;stroke-linecap:square;stroke-width:0.4;"/>
   </g>
   <g id="line2d_2">
    <path clip-path="url(#p565edd9072)" d="M 42.172637 8.582333 
L 44.565545 7.14378 
L 46.09399 6.013631 
L 47.128824 4.888201 
L 47.821236 3.812299 
L 49.074471 3.350864 
L 50.534968 3.506859 
L 53.525959 2.4893 
L 54.741883 2.233779 
L 56.17211 2.196808 
L 57.013031 2.382131 
L 65.453032 11.114493 
L 67.580926 12.968461 
L 68.210592 13.87776 
L 68.689016 19.06594 
L 68.367824 22.328666 
L 67.450915 24.253418 
L 66.079019 26.367783 
L 65.624663 27.651237 
L 65.605955 28.230994 
L 65.719255 30.317514 
L 65.458602 31.821623 
L 64.820213 33.075516 
L 64.275155 33.608397 
L 61.845198 35.65662 
L 61.876728 36.002618 
L 62.295034 36.587757 
L 64.212934 38.604937 
L 64.688205 39.031117 
L 64.885166 39.266358 
L 64.994472 40.41199 
L 64.648056 41.03878 
L 64.648056 41.03878 
" style="fill:none;stroke:#008000;stroke-linecap:square;stroke-width:0.4;"/>
   </g>
   <g id="line2d_3">
    <path clip-path="url(#p565edd9072)" d="M 68.612501 17.553641 
L 68.22746 17.742122 
L 67.842419 17.930604 
L 67.457379 18.119086 
L 67.072338 18.307567 
L 66.687297 18.496049 
L 66.302256 18.684531 
L 65.917215 18.873012 
L 65.532174 19.061494 
L 65.226327 19.206102 
L 64.92048 19.35071 
L 64.614634 19.495318 
L 64.308787 19.639926 
L 64.002941 19.784534 
L 63.697094 19.929142 
L 63.391247 20.07375 
L 63.085401 20.218358 
L 62.614964 20.36823 
L 62.144528 20.518103 
L 61.674092 20.667976 
L 61.203655 20.817849 
L 60.733219 20.967722 
L 60.262783 21.117594 
L 59.792347 21.267467 
L 59.32191 21.41734 
L 58.839703 21.574505 
L 58.357495 21.731671 
L 57.875287 21.888837 
L 57.39308 22.046002 
L 57.099214 22.141784 
L 56.805349 22.237565 
L 56.511484 22.333346 
L 56.217619 22.429127 
" style="fill:none;stroke:#4169e1;stroke-linecap:square;stroke-width:0.4;"/>
   </g>
   <g id="line2d_4">
    <path clip-path="url(#p565edd9072)" d="M 65.577998 27.932965 
L 65.149498 28.019152 
L 64.720997 28.10534 
L 64.292496 28.191527 
L 63.863996 28.277715 
L 63.380474 28.396623 
L 62.896953 28.51553 
L 62.413431 28.634438 
L 61.92991 28.753346 
L 61.446388 28.872253 
L 60.962867 28.991161 
L 60.479345 29.110069 
L 59.995824 29.228976 
L 59.649539 29.340338 
L 59.303255 29.451699 
L 58.95697 29.56306 
L 58.610685 29.674422 
L 58.264401 29.785783 
L 57.918116 29.897145 
L 57.571832 30.008506 
L 57.225547 30.119867 
L 56.879262 30.231229 
L 56.532978 30.34259 
L 56.186693 30.453951 
L 55.840409 30.565313 
L 55.494124 30.676674 
L 55.147839 30.788035 
L 54.801555 30.899397 
L 54.45527 31.010758 
L 54.103967 31.108372 
L 53.752664 31.205987 
L 53.40136 31.303601 
L 53.050057 31.401215 
L 52.698754 31.49883 
L 52.347451 31.596444 
L 51.996147 31.694058 
L 51.644844 31.791672 
" style="fill:none;stroke:#000000;stroke-linecap:square;stroke-width:0.4;"/>
   </g>
   <g id="line2d_5">
    <path clip-path="url(#p565edd9072)" d="M 59.995824 29.228976 
L 59.761236 29.020098 
L 59.526649 28.81122 
L 59.247498 28.446502 
L 59.247498 28.081785 
L 59.376143 27.716755 
L 59.483767 27.244712 
L 59.376143 26.901522 
L 59.118853 26.429479 
L 58.947117 26.17193 
L 58.77538 25.914381 
L 58.453768 25.570879 
L 58.281822 25.335014 
L 58.088854 25.077309 
L 57.766822 24.669848 
L 57.659618 24.369401 
L 57.488092 23.854303 
L 57.359447 23.468058 
L 57.316565 23.060286 
L 57.316565 22.523973 
L 57.39308 22.046002 
" style="fill:none;stroke:#008000;stroke-linecap:square;stroke-width:0.4;"/>
   </g>
   <g id="line2d_6">
    <path clip-path="url(#p565edd9072)" d="M 61.99234 7.684422 
L 62.005793 7.992201 
L 62.019247 8.299981 
L 62.0327 8.60776 
L 62.046153 8.915539 
L 62.046153 9.389298 
L 62.046153 9.863057 
L 61.936847 10.348983 
L 61.827541 10.834909 
L 61.827541 11.150801 
L 61.827541 11.466692 
L 61.888289 11.843265 
L 61.949038 12.219838 
L 62.021979 12.645083 
L 62.09492 13.070327 
L 62.264975 13.544241 
L 62.43503 14.018156 
L 62.629468 14.491915 
L 62.823907 14.965673 
L 62.98177 15.366582 
L 63.139633 15.767491 
L 63.561617 16.075894 
L 63.983602 16.384297 
L 64.405586 16.692701 
L 64.82757 17.001104 
L 65.039035 17.496078 
L 65.250501 17.991052 
L 65.355182 18.343602 
L 65.459864 18.696152 
L 65.532174 19.061494 
" style="fill:none;stroke:#008000;stroke-linecap:square;stroke-width:0.4;"/>
   </g>
   <g id="line2d_7">
    <path clip-path="url(#p565edd9072)" d="M 65.532174 19.061494 
L 65.596076 19.375669 
L 65.659978 19.689844 
L 65.72388 20.00402 
L 65.787782 20.318195 
L 65.883845 20.820813 
L 65.979908 21.323431 
L 65.987265 21.76677 
L 65.994622 22.21011 
L 65.809853 22.631454 
L 65.625084 23.052798 
L 65.477311 23.370561 
L 65.329537 23.688324 
L 65.159482 24.028239 
L 64.989427 24.368153 
L 64.886007 24.737707 
L 64.782587 25.10726 
L 64.679166 25.565575 
L 64.597817 25.986763 
L 64.516469 26.407952 
L 64.43512 26.770017 
L 64.353771 27.132083 
L 64.235636 27.420363 
L 64.117502 27.708643 
L 63.990749 27.993179 
L 63.863996 28.277715 
" style="fill:none;stroke:#008000;stroke-linecap:square;stroke-width:0.4;"/>
   </g>
   <g id="line2d_8">
    <path clip-path="url(#p565edd9072)" d="M 48.214737 40.809155 
L 47.849403 41.136746 
L 47.560373 41.240951 
L 47.271342 41.345156 
L 46.973904 41.403654 
L 46.676465 41.462152 
L 46.379027 41.520651 
L 46.081588 41.579149 
L 45.747995 41.599741 
L 45.414401 41.620332 
L 45.101618 41.610036 
L 44.788834 41.599741 
L 44.252394 41.599741 
L 43.729407 41.558246 
L 43.344313 41.551382 
L 42.931893 41.579149 
L 42.519053 41.668379 
L 41.987658 41.82375 
L 41.53614 41.907052 
L 41.136752 41.929827 
L 40.834059 41.97101 
L 40.565838 42.019369 
L 40.201345 42.067415 
L 39.726705 42.088007 
L 39.410558 42.088007 
L 39.038917 42.03996 
L 38.688297 41.991602 
L 38.385604 41.936691 
L 38.034984 41.881781 
L 37.533017 41.805967 
L 37.23726 41.757764 
L 36.941503 41.709561 
L 36.563136 41.586013 
L 36.184979 41.489608 
L 35.806823 41.393202 
L 35.486892 41.279794 
L 35.166962 41.166385 
L 34.899162 41.058124 
L 34.631363 40.949863 
L 34.300712 40.886997 
L 33.970061 40.82413 
L 33.550074 40.744261 
L 33.107384 40.660179 
L 32.664695 40.576097 
L 32.416234 40.528987 
L 32.012958 40.489442 
L 31.609682 40.449897 
L 31.206406 40.410352 
L 30.803129 40.370807 
L 30.367797 40.319953 
L 29.932465 40.269098 
L 29.446474 40.167389 
L 29.152609 40.009209 
L 28.903727 39.873493 
L 28.654846 39.737777 
L 28.417736 39.737777 
L 28.225609 39.749009 
L 27.99943 39.861949 
L 27.739198 40.009209 
L 27.422631 40.17862 
L 27.106064 40.370807 
L 26.733162 40.54053 
L 26.348909 40.75518 
L 26.020991 40.958911 
L 25.614036 41.162329 
L 25.173029 41.309277 
L 24.765233 41.395386 
L 24.285548 41.395386 
L 23.811748 41.48992 
L 23.295803 41.48992 
L 22.779858 41.48992 
L 22.263912 41.48992 
L 21.747967 41.48992 
L 21.523049 41.48992 
L 21.1224 41.437817 
L 20.691062 41.358883 
L 20.15809 41.272384 
L 19.625118 41.185884 
L 19.092146 41.099385 
L 18.559174 41.012885 
L 18.109758 40.939879 
L 17.660342 40.866873 
L 17.168465 40.794179 
L 16.749318 40.769844 
L 16.287711 40.806347 
L 15.841343 40.845814 
L 15.394975 40.885281 
L 14.948607 40.924748 
L 14.502239 40.964214 
L 13.980093 41.030981 
L 13.566621 41.098527 
L 13.15315 41.166073 
L 12.739679 41.233619 
L 12.326208 41.301165 
" style="fill:none;stroke:#4169e1;stroke-linecap:square;stroke-width:0.4;"/>
   </g>
   <g id="line2d_9">
    <path clip-path="url(#p565edd9072)" d="M 50.534968 3.506859 
L 50.765772 3.698539 
L 50.996575 3.890219 
L 51.227379 4.081898 
L 51.458183 4.273578 
L 51.688987 4.465257 
L 51.919791 4.656937 
L 52.150595 4.848617 
L 52.381399 5.040296 
L 52.616144 5.274212 
L 52.850889 5.508127 
L 53.085634 5.742043 
L 53.320379 5.975958 
L 53.555125 6.209873 
L 53.78987 6.443789 
L 54.024615 6.677704 
L 54.25936 6.91162 
L 54.638358 7.308083 
L 55.017355 7.704545 
L 55.396353 8.101008 
L 55.77535 8.497471 
L 55.891803 8.7597 
L 56.008256 9.021928 
L 56.186089 9.470884 
L 56.363921 9.919839 
L 56.541754 10.368795 
L 56.719586 10.81775 
L 56.769089 11.289949 
L 56.818592 11.762147 
L 56.868095 12.234346 
L 56.917598 12.706545 
L 56.856219 12.993577 
L 56.794839 13.280609 
L 56.73346 13.567641 
L 56.67208 13.854673 
L 56.579065 14.290524 
L 56.48605 14.726376 
L 56.393035 15.162228 
L 56.300019 15.59808 
L 56.215412 15.997428 
L 56.130805 16.396777 
L 56.046198 16.796126 
L 55.961591 17.195475 
L 56.198806 17.62766 
L 56.436021 18.059846 
L 56.673236 18.492032 
L 56.910451 18.924218 
L 56.843396 19.20111 
L 56.776341 19.478002 
L 56.709286 19.754895 
L 56.642231 20.031787 
L 56.65684 20.334964 
L 56.67145 20.638142 
L 56.686059 20.941319 
L 56.700668 21.244497 
L 56.579906 21.540654 
L 56.459144 21.836812 
L 56.338382 22.13297 
L 56.217619 22.429127 
" style="fill:none;stroke:#4169e1;stroke-linecap:square;stroke-width:0.4;"/>
   </g>
   <g id="line2d_10">
    <path clip-path="url(#p565edd9072)" d="M 65.458602 31.821623 
L 64.990899 31.914285 
L 64.523195 32.006946 
L 64.055491 32.099608 
L 63.587788 32.192269 
L 63.101376 32.313907 
L 62.614964 32.435544 
L 62.128553 32.557182 
L 61.642141 32.678819 
L 61.155729 32.800457 
L 60.669317 32.922094 
L 60.182905 33.043732 
L 59.696494 33.16537 
L 59.362585 33.222035 
L 59.028676 33.2787 
L 58.694767 33.335366 
L 58.360858 33.392031 
L 58.026949 33.448697 
L 57.69304 33.505362 
L 57.359132 33.562028 
L 57.025223 33.618693 
L 56.691314 33.675358 
L 56.357405 33.732024 
L 56.023496 33.788689 
L 55.689587 33.845355 
L 55.355678 33.90202 
L 55.02177 33.958685 
L 54.687861 34.015351 
L 54.353952 34.072016 
L 53.861392 34.152432 
L 53.368831 34.232848 
L 52.876271 34.313263 
L 52.383711 34.393679 
L 51.891151 34.474095 
L 51.39859 34.554511 
L 50.90603 34.634926 
L 50.41347 34.715342 
" style="fill:none;stroke:#4169e1;stroke-linecap:square;stroke-width:0.4;"/>
   </g>
   <g id="line2d_11">
    <path clip-path="url(#p565edd9072)" d="M 64.648056 41.03878 
L 64.194646 41.100633 
L 63.741237 41.162485 
L 63.287827 41.224337 
L 62.834417 41.286189 
L 62.311272 41.214899 
L 61.788127 41.143609 
L 61.264982 41.072319 
L 60.741838 41.001029 
L 60.218693 40.929739 
L 59.695548 40.858449 
L 59.172403 40.787159 
L 58.649258 40.715869 
L 58.083809 40.686698 
L 57.518361 40.657527 
L 56.952913 40.628356 
L 56.387464 40.599185 
L 55.822016 40.570013 
L 55.256567 40.540842 
L 54.691119 40.511671 
L 54.12567 40.4825 
L 53.756237 40.502916 
L 53.386804 40.523332 
L 53.01737 40.543748 
L 52.647937 40.564164 
L 52.278504 40.58458 
L 51.90907 40.604996 
L 51.539637 40.625411 
L 51.170204 40.645827 
L 50.800771 40.666243 
L 50.431337 40.686659 
L 50.061904 40.707075 
L 49.692471 40.727491 
L 49.323037 40.747907 
L 48.953604 40.768323 
L 48.584171 40.788739 
L 48.214737 40.809155 
" style="fill:none;stroke:#008000;stroke-linecap:square;stroke-width:0.4;"/>
   </g>
   <g id="line2d_12">
    <path clip-path="url(#p565edd9072)" d="M 62.026393 36.28965 
L 61.493001 36.38079 
L 60.959609 36.471931 
L 60.426216 36.563071 
L 59.892824 36.654212 
L 59.359432 36.745352 
L 58.826039 36.836492 
L 58.292647 36.927633 
L 57.759255 37.018773 
L 57.311205 36.913476 
L 56.863156 36.808179 
L 56.415106 36.702882 
L 55.967056 36.597585 
L 55.683807 36.780958 
L 55.400557 36.964331 
L 55.117307 37.147704 
L 54.834057 37.331077 
L 54.351324 37.376783 
L 53.868591 37.42249 
L 53.385858 37.468197 
L 52.903125 37.513903 
L 52.420391 37.55961 
L 51.937658 37.605317 
L 51.454925 37.651024 
L 50.972192 37.69673 
L 50.551259 37.693064 
L 50.130325 37.689398 
L 49.709392 37.685733 
L 49.288459 37.682067 
" style="fill:none;stroke:#4169e1;stroke-linecap:square;stroke-width:0.4;"/>
   </g>
   <g id="line2d_13">
    <path clip-path="url(#p565edd9072)" d="M 56.217619 22.429127 
L 54.719917 23.337802 
L 54.381278 23.62499 
L 54.007956 24.243044 
L 53.295996 26.771967 
L 53.0221 28.46842 
L 52.212815 30.864746 
L 51.254496 32.605267 
L 50.768925 33.795904 
L 48.787122 39.213164 
L 47.861595 41.689282 
L 47.255367 42.283937 
L 43.454881 43.817218 
L 42.386046 44.096294 
L 39.419965 44.492991 
L 37.518303 44.82612 
L 36.183088 44.752646 
L 32.783145 43.947475 
L 29.936038 43.094959 
L 28.221432 42.833159 
L 23.005617 42.446719 
L 21.145733 42.481428 
L 19.910049 42.493127 
L 17.470528 42.047136 
L 15.520283 41.74388 
L 10.245111 40.912872 
L 4.784934 39.723737 
L 4.784934 39.723737 
" style="fill:none;stroke:#008000;stroke-linecap:square;stroke-width:0.4;"/>
   </g>
   <g id="line2d_14">
    <path clip-path="url(#p565edd9072)" d="M 61.368035 7.013017 
L 61.221523 7.401368 
L 61.075011 7.789719 
L 60.928499 8.17807 
L 60.781986 8.566421 
L 60.673101 8.846823 
L 60.564215 9.127225 
L 60.45533 9.407628 
L 60.346444 9.68803 
L 60.137291 9.968432 
L 59.928138 10.248834 
L 59.718985 10.529236 
L 59.509833 10.809638 
L 59.267047 11.094252 
L 59.024262 11.378866 
L 58.781476 11.66348 
L 58.538691 11.948094 
L 58.312721 12.16992 
L 58.086752 12.391746 
L 57.860783 12.613571 
L 57.634814 12.835397 
L 57.394131 13.090216 
L 57.153447 13.345035 
L 56.912764 13.599854 
L 56.67208 13.854673 
" style="fill:none;stroke:#008000;stroke-linecap:square;stroke-width:0.4;"/>
   </g>
   <g id="line2d_15">
    <path clip-path="url(#p565edd9072)" d="M 42.65022 8.31558 
L 42.278159 9.186972 
L 40.254527 9.47143 
L 37.461495 10.018233 
L 28.148254 11.200875 
L 25.890192 11.765111 
L 22.121867 13.193602 
L 14.912925 14.162686 
L 9.897933 14.233118 
L 7.991384 14.876444 
L 5.901117 16.542165 
L 5.261361 18.398903 
L 4.950364 21.189274 
L 5.43068 23.506121 
L 4.091261 26.39516 
L 3.341464 28.935861 
L 3.272727 29.24832 
L 3.582568 29.895702 
L 4.473832 30.308778 
L 6.420005 30.471988 
L 8.67791 31.219168 
L 9.645689 31.302158 
L 10.178766 31.586694 
L 10.18339 31.95578 
L 10.18339 31.95578 
" style="fill:none;stroke:#000000;stroke-linecap:square;stroke-width:0.4;"/>
   </g>
  </g>
 </g>
 <defs>
  <clipPath id="p565edd9072">
   <rect height="46.970748" width="72" x="0" y="0"/>
  </clipPath>
 </defs>
</svg>
