<?xml version="1.0" encoding="utf-8" standalone="no"?>
<!DOCTYPE svg PUBLIC "-//W3C//DTD SVG 1.1//EN"
  "http://www.w3.org/Graphics/SVG/1.1/DTD/svg11.dtd">
<svg height="72pt" version="1.1" viewBox="0 0 84.910171 72" width="84.910171pt" xmlns="http://www.w3.org/2000/svg" xmlns:xlink="http://www.w3.org/1999/xlink">
 <metadata>
  <rdf:RDF xmlns:cc="http://creativecommons.org/ns#" xmlns:dc="http://purl.org/dc/elements/1.1/" xmlns:rdf="http://www.w3.org/1999/02/22-rdf-syntax-ns#">
   <cc:Work>
    <dc:type rdf:resource="http://purl.org/dc/dcmitype/StillImage"/>
    <dc:date>2022-05-19T22:14:19.843113</dc:date>
    <dc:format>image/svg+xml</dc:format>
    <dc:creator>
     <cc:Agent>
      <dc:title>Matplotlib v3.4.3, https://matplotlib.org/</dc:title>
     </cc:Agent>
    </dc:creator>
   </cc:Work>
  </rdf:RDF>
 </metadata>
 <defs>
  <style type="text/css">*{stroke-linecap:butt;stroke-linejoin:round;}</style>
 </defs>
 <g id="figure_1">
  <g id="patch_1">
   <path d="M 0 72 
L 84.910171 72 
L 84.910171 0 
L 0 0 
z
" style="fill:#ffffff;"/>
  </g>
  <g id="axes_1">
   <g id="line2d_1">
    <path clip-path="url(#pe73ee419d7)" d="M 19.500927 63.359736 
L 20.462157 61.288371 
L 21.423388 59.217007 
L 22.427588 57.053549 
L 23.431788 54.890091 
L 24.234675 53.160371 
L 25.037563 51.430651 
L 26.019634 49.314547 
L 27.001704 47.198443 
L 28.046941 44.946088 
L 29.092177 42.693733 
L 30.117217 40.484955 
L 31.142257 38.276177 
L 32.234116 35.923304 
L 33.325974 33.570431 
L 34.375937 31.30849 
L 35.425899 29.046548 
L 36.00513 27.798354 
L 36.584361 26.550161 
L 37.163591 25.301968 
L 37.742822 24.053774 
L 38.373079 22.695766 
L 39.003336 21.337759 
L 39.633593 19.979751 
L 40.26385 18.621744 
L 40.867465 17.320967 
L 41.471081 16.020191 
L 42.074697 14.719414 
L 42.678313 13.418638 
L 43.311792 12.053513 
L 43.945272 10.688387 
L 44.578752 9.323262 
L 45.212232 7.958137 
L 45.87998 6.518931 
L 46.547728 5.079724 
L 46.876015 4.380167 
" style="fill:none;stroke:#808080;stroke-linecap:square;stroke-width:0.4;"/>
   </g>
   <g id="line2d_2">
    <path clip-path="url(#pe73ee419d7)" d="M 19.209593 65.821552 
L 20.865857 64.49797 
L 22.522121 63.174388 
L 24.192135 61.840639 
L 25.86215 60.506889 
L 27.094196 59.522627 
L 28.326243 58.538366 
L 29.55829 57.554105 
L 30.790336 56.569843 
L 31.926561 55.662277 
L 33.062785 54.754712 
L 34.199009 53.847146 
L 35.335234 52.93958 
L 36.366075 52.116118 
L 37.396916 51.292657 
L 38.427757 50.469195 
L 39.458599 49.645733 
L 40.714171 48.642733 
L 41.969744 47.639734 
L 43.225316 46.636734 
L 44.480889 45.633734 
L 46.439229 44.069317 
L 48.39757 42.504899 
L 50.01688 41.21124 
L 51.636191 39.917581 
L 52.780579 39.004205 
L 53.924968 38.090829 
L 55.069356 37.177453 
L 56.213745 36.264077 
" style="fill:none;stroke:#808080;stroke-linecap:square;stroke-width:0.4;"/>
   </g>
   <g id="line2d_3">
    <path clip-path="url(#pe73ee419d7)" d="M 15.263692 63.650831 
L 13.517621 63.172645 
L 11.77155 62.694459 
L 10.02548 62.216273 
L 8.279409 61.738087 
" style="fill:none;stroke:#808080;stroke-linecap:square;stroke-width:0.4;"/>
   </g>
   <g id="line2d_4">
    <path clip-path="url(#pe73ee419d7)" d="M 59.2908 18.666483 
L 59.229568 19.247511 
L 59.168336 19.828539 
L 59.107105 20.409567 
L 59.045873 20.990595 
L 59.028685 21.477206 
L 59.011497 21.963816 
L 58.994309 22.450427 
L 58.977121 22.937038 
L 59.072192 23.393872 
L 59.167262 23.850705 
L 59.262332 24.307538 
L 59.357403 24.764371 
L 59.452473 25.221205 
L 59.547543 25.678038 
L 59.642613 26.134871 
L 59.737684 26.591704 
L 60.102926 27.213404 
L 60.640046 27.672416 
L 61.105192 27.930974 
L 61.570338 28.189531 
L 62.035484 28.448089 
L 62.500631 28.706646 
L 62.830423 29.011686 
L 63.160214 29.316726 
L 63.490006 29.621765 
L 63.819798 29.926805 
L 64.323832 30.29692 
L 64.827866 30.667035 
L 65.331899 31.037149 
L 65.835933 31.407264 
L 66.228675 31.695454 
L 66.621418 31.983644 
L 67.05004 32.386006 
L 67.478662 32.788368 
L 67.907284 33.19073 
L 68.335906 33.593092 
L 68.66892 33.81824 
L 69.001935 34.043388 
L 69.33495 34.268537 
L 69.667964 34.493685 
L 70.082621 34.721738 
L 70.497278 34.949792 
L 70.911935 35.177845 
L 71.326592 35.405899 
L 71.804629 35.604901 
L 72.282666 35.803903 
L 72.760703 36.002905 
L 73.23874 36.201907 
L 73.836018 36.387836 
L 74.433296 36.573765 
L 74.860843 36.872995 
L 75.288391 37.172224 
L 75.715939 37.471453 
L 76.143487 37.770683 
L 76.813813 38.107679 
L 77.484139 38.444675 
L 78.094308 38.534735 
L 78.704476 38.624794 
L 79.291012 38.80927 
L 79.877547 38.993747 
L 80.464083 39.178223 
L 81.050618 39.362699 
" style="fill:none;stroke:#008000;stroke-linecap:square;stroke-width:0.4;"/>
   </g>
   <g id="line2d_5">
    <path clip-path="url(#pe73ee419d7)" d="M 58.977121 22.937038 
L 58.416583 23.033925 
L 57.856044 23.130811 
L 57.295505 23.227698 
L 56.734966 23.324584 
L 56.200961 23.579946 
L 55.666956 23.835308 
L 55.132951 24.090669 
L 54.598946 24.346031 
L 54.149162 24.711716 
L 53.699377 25.0774 
L 53.249593 25.443085 
L 52.799808 25.808769 
L 52.350023 26.174454 
L 51.900239 26.540138 
L 51.450454 26.905823 
L 51.00067 27.271507 
L 50.759771 27.62223 
L 50.518873 27.972953 
L 50.277974 28.323676 
L 50.037076 28.674399 
L 49.796178 29.025122 
L 49.555279 29.375845 
L 49.314381 29.726568 
L 49.073482 30.077291 
L 48.638415 30.561578 
L 48.203347 31.045865 
L 47.76828 31.530152 
L 47.333212 32.014439 
L 46.985051 32.293041 
L 46.63689 32.571644 
L 46.288728 32.850247 
L 45.940567 33.12885 
L 45.406562 33.314489 
L 44.872557 33.500127 
L 44.338552 33.685766 
L 43.804547 33.871404 
L 43.200931 33.975844 
L 42.597315 34.080284 
L 41.993699 34.184723 
L 41.390083 34.289163 
L 40.722658 34.527094 
L 40.055232 34.765025 
L 39.387806 35.002956 
L 38.720381 35.240887 
L 38.116765 35.63555 
L 37.513149 36.030213 
L 36.909533 36.424877 
L 36.305917 36.81954 
L 35.818427 37.272161 
L 35.330937 37.724782 
L 34.843446 38.177402 
L 34.355956 38.630023 
L 34.076492 38.91066 
L 33.797028 39.191296 
L 33.517565 39.471933 
L 33.238101 39.752569 
L 32.958637 40.033206 
L 32.679174 40.313842 
L 32.39971 40.594479 
L 32.120246 40.875115 
L 31.708167 41.40327 
L 31.296089 41.931424 
L 30.88401 42.459579 
L 30.471931 42.987733 
L 30.239895 43.695716 
L 30.007859 44.403698 
L 29.932877 44.975575 
L 29.857895 45.547452 
L 29.782913 46.119329 
L 29.707931 46.691205 
" style="fill:none;stroke:#4169e1;stroke-linecap:square;stroke-width:0.4;"/>
   </g>
   <g id="line2d_6">
    <path clip-path="url(#pe73ee419d7)" d="M 56.213745 36.264077 
L 56.667074 36.610951 
L 57.120404 36.957825 
L 57.095696 37.565289 
L 57.070989 38.172754 
L 56.800065 38.574826 
L 56.529142 38.976897 
L 56.200854 39.231242 
L 55.872566 39.485587 
L 55.544278 39.739932 
L 55.21599 39.994277 
L 54.694769 40.2447 
L 54.173547 40.495123 
L 53.652325 40.745546 
L 53.131104 40.995969 
L 52.76178 41.455562 
L 52.392456 41.915155 
L 52.023132 42.374749 
L 51.653808 42.834342 
L 51.41291 43.226463 
L 51.172011 43.618584 
L 50.931113 44.010705 
L 50.690214 44.402827 
L 50.449316 44.794948 
L 50.208417 45.187069 
L 49.967519 45.57919 
L 49.72662 45.971312 
L 49.488676 46.336924 
L 49.250732 46.702535 
L 49.012788 47.068147 
L 48.774843 47.433759 
L 48.327959 47.898001 
L 47.881075 48.362242 
L 47.434191 48.826483 
L 46.987307 49.290725 
L 46.592631 49.725915 
L 46.197955 50.161105 
L 45.803279 50.596294 
L 45.408603 51.031484 
L 44.851287 51.298467 
L 44.293971 51.565449 
L 43.757119 51.6351 
L 43.220267 51.704751 
L 42.683415 51.774401 
L 42.146564 51.844052 
L 41.609712 51.913703 
L 41.07286 51.983354 
L 40.536008 52.053004 
L 39.999157 52.122655 
L 39.494264 52.140086 
L 38.98937 52.157517 
L 38.484477 52.174948 
L 37.979584 52.192378 
L 37.544302 52.087939 
L 37.10902 51.983499 
L 36.673737 51.879059 
L 36.238455 51.774619 
L 35.803173 51.670179 
L 35.36789 51.56574 
L 34.932608 51.4613 
L 34.497326 51.35686 
L 34.125853 50.880998 
L 33.754381 50.405136 
L 33.557043 50.033714 
L 33.359705 49.662292 
L 33.162367 49.29087 
L 32.965029 48.919448 
L 32.651566 48.675706 
L 32.338102 48.431965 
L 32.024639 48.188224 
L 31.711175 47.944483 
L 31.210364 47.631163 
L 30.709553 47.317844 
L 30.208742 47.004525 
L 29.707931 46.691205 
" style="fill:none;stroke:#008000;stroke-linecap:square;stroke-width:0.4;"/>
   </g>
   <g id="line2d_7">
    <path clip-path="url(#pe73ee419d7)" d="M 16.755597 57.470437 
L 16.737657 57.886598 
L 16.719718 58.302759 
L 16.701778 58.71892 
L 16.683838 59.135082 
L 16.556648 59.569981 
L 16.429458 60.004881 
L 16.302268 60.43978 
L 16.175078 60.87468 
L 15.921986 61.495508 
L 15.668895 62.116336 
" style="fill:none;stroke:#008000;stroke-linecap:square;stroke-width:0.4;"/>
   </g>
   <g id="line2d_8">
    <path clip-path="url(#pe73ee419d7)" d="M 46.876015 4.380167 
L 46.750759 3.995526 
L 46.625503 3.610886 
L 46.156489 3.526346 
L 45.687476 3.441806 
L 45.218462 3.357267 
L 44.749449 3.272727 
L 44.053019 3.394598 
L 43.356588 3.516469 
L 42.660158 3.638339 
L 41.963728 3.76021 
L 41.441378 3.88208 
L 40.919029 4.003951 
L 40.396679 4.125822 
L 39.87433 4.247692 
L 39.35198 4.369563 
L 38.829631 4.491433 
L 38.307281 4.613304 
L 37.784932 4.735175 
L 37.35545 4.868666 
L 36.925969 5.002157 
L 36.496488 5.135648 
L 36.067006 5.269139 
L 35.637525 5.402631 
L 35.208043 5.536122 
L 34.778562 5.669613 
L 34.349081 5.803104 
L 33.838279 6.116423 
L 33.327478 6.429743 
L 32.816676 6.743062 
L 32.305875 7.056382 
L 32.056329 7.375656 
L 31.806783 7.694931 
L 31.557237 8.014206 
L 31.307691 8.333481 
L 31.058144 9.047347 
L 30.808598 9.761212 
L 30.559052 10.475078 
L 30.309506 11.188943 
L 30.05996 11.902809 
L 29.810414 12.616674 
L 29.560868 13.33054 
L 29.311322 14.044405 
L 29.153731 14.61265 
L 28.99614 15.180896 
L 28.838548 15.749141 
L 28.680957 16.317387 
L 28.369105 16.891878 
L 28.057253 17.466369 
L 27.745401 18.040861 
L 27.433549 18.615352 
L 27.014918 18.927219 
L 26.596286 19.239086 
L 26.177654 19.550953 
L 25.759023 19.862819 
L 25.168083 20.182966 
L 24.577143 20.503112 
L 23.986203 20.823259 
L 23.395264 21.143405 
L 22.73858 21.323959 
L 22.081897 21.504514 
L 21.425214 21.685068 
L 20.768531 21.865623 
L 20.243227 21.988801 
L 19.717923 22.111979 
L 19.19262 22.235157 
L 18.667316 22.358334 
L 18.014768 22.64558 
L 17.362221 22.932826 
L 16.709673 23.220072 
L 16.057126 23.507317 
L 15.404578 23.794563 
L 14.752031 24.081809 
L 14.099484 24.369054 
L 13.446936 24.6563 
L 12.81496 25.033823 
L 12.182985 25.411346 
L 11.551009 25.788869 
L 10.919033 26.166392 
L 10.680981 26.732749 
L 10.44293 27.299106 
L 10.204878 27.865463 
L 9.966826 28.43182 
L 9.946308 28.874999 
L 9.92579 29.318178 
L 9.905272 29.761357 
L 9.884754 30.204536 
L 9.864236 30.647715 
L 9.843718 31.090895 
L 9.8232 31.534074 
L 9.802682 31.977253 
L 9.966826 32.699471 
L 10.13097 33.421688 
L 10.295114 34.143906 
L 10.459258 34.866124 
L 10.812253 35.292889 
L 11.165249 35.719654 
L 11.518244 36.146419 
L 11.87124 36.573184 
L 12.388379 36.827674 
L 12.905519 37.082165 
L 13.422658 37.336655 
L 13.939798 37.591145 
L 14.448665 37.779834 
L 14.957533 37.968523 
L 15.466401 38.157212 
L 15.975269 38.3459 
" style="fill:none;stroke:#008000;stroke-linecap:square;stroke-width:0.4;"/>
   </g>
   <g id="line2d_9">
    <path clip-path="url(#pe73ee419d7)" d="M 56.213745 36.264077 
L 55.649554 35.903549 
L 55.085362 35.543021 
L 54.609366 35.588196 
L 54.13337 35.633371 
L 53.657374 35.678546 
L 53.181378 35.723721 
L 52.725793 36.298213 
L 52.270207 36.872704 
L 51.814622 37.447195 
L 51.359037 38.021687 
L 51.075867 38.378729 
L 50.792697 38.73577 
L 50.509527 39.092812 
L 50.226357 39.449854 
L 49.696971 39.80675 
L 49.167586 40.163647 
L 48.6382 40.520543 
L 48.108814 40.877439 
L 47.579428 41.029378 
L 47.050042 41.181317 
L 46.520657 41.333256 
L 45.991271 41.485195 
L 45.523385 41.431813 
L 45.0555 41.378431 
L 44.587614 41.325049 
L 44.119729 41.271667 
L 43.651843 41.218285 
L 43.183958 41.164903 
L 42.716072 41.111521 
L 42.248187 41.058139 
L 41.526405 40.877294 
L 40.804622 40.696449 
L 40.08284 40.515604 
L 39.361058 40.334759 
L 38.722637 40.311518 
L 38.084215 40.288277 
L 37.445794 40.265036 
L 36.807373 40.241795 
L 36.470706 40.462295 
L 36.134039 40.682795 
L 35.797372 40.903295 
L 35.460705 41.123795 
L 34.996418 41.55332 
L 34.532131 41.982845 
L 34.067844 42.41237 
L 33.603558 42.841895 
L 33.339456 43.134951 
L 33.075353 43.428007 
L 32.811251 43.721063 
L 32.547149 44.014119 
L 32.283047 44.307175 
L 32.018945 44.600231 
L 31.754843 44.893287 
L 31.490741 45.186343 
L 31.045039 45.562559 
L 30.599336 45.938774 
L 30.153634 46.31499 
L 29.707931 46.691205 
L 29.539061 47.306877 
L 29.37019 47.922549 
L 29.201319 48.538221 
L 29.032449 49.153893 
L 28.863578 49.769564 
L 28.694708 50.385236 
L 28.525837 51.000908 
L 28.356966 51.61658 
L 28.188633 52.196881 
L 28.020299 52.777183 
L 27.851966 53.357485 
L 27.683632 53.937786 
L 27.573308 54.343925 
L 27.462983 54.750064 
L 27.352659 55.156202 
L 27.242334 55.562341 
L 26.981186 56.055633 
L 26.720038 56.548926 
L 26.458891 57.042219 
L 26.197743 57.535512 
L 25.634733 57.999753 
L 25.071724 58.463994 
L 24.508714 58.928236 
L 23.945705 59.392477 
L 23.527825 59.827667 
L 23.109945 60.262857 
L 22.692066 60.698047 
L 22.274186 61.133237 
L 21.927529 61.411549 
L 21.580871 61.689862 
L 21.234214 61.968174 
L 20.887556 62.246487 
L 20.540899 62.524799 
L 20.194241 62.803111 
L 19.847584 63.081424 
L 19.500927 63.359736 
L 19.428093 63.97519 
L 19.35526 64.590644 
L 19.282426 65.206098 
L 19.209593 65.821552 
" style="fill:none;stroke:#008000;stroke-linecap:square;stroke-width:0.4;"/>
   </g>
   <g id="line2d_10">
    <path clip-path="url(#pe73ee419d7)" d="M 10.459258 34.866124 
L 10.40039 35.264201 
L 10.341521 35.662277 
L 10.282653 36.060354 
L 10.223784 36.458431 
L 10.164916 36.856508 
L 10.106048 37.254585 
L 10.047179 37.652661 
L 9.988311 38.050738 
L 9.77357 38.433781 
L 9.558829 38.816824 
L 9.344089 39.199866 
L 9.129348 39.582909 
L 8.914607 39.965952 
L 8.699867 40.348994 
L 8.485126 40.732037 
L 8.270385 41.11508 
L 7.980179 41.411041 
L 7.689973 41.707002 
L 7.399767 42.002963 
L 7.109561 42.298924 
L 6.819355 42.594886 
L 6.529149 42.890847 
L 6.238943 43.186808 
L 5.948736 43.482769 
L 5.69919 43.883242 
L 5.449644 44.283716 
L 5.200098 44.68419 
L 4.950552 45.084663 
L 4.701006 45.485137 
L 4.45146 45.88561 
L 4.201914 46.286084 
L 3.952368 46.686557 
L 3.929164 47.220377 
L 3.90596 47.754196 
L 3.882757 48.288016 
L 3.859553 48.821835 
L 4.027833 49.187447 
L 4.196113 49.553059 
L 4.364393 49.918671 
L 4.532672 50.284282 
L 4.700952 50.649894 
L 4.869232 51.015506 
L 5.037512 51.381118 
L 5.205792 51.74673 
L 5.548233 52.089101 
L 5.890674 52.431471 
L 6.233115 52.773842 
L 6.575556 53.116213 
L 6.917997 53.458584 
L 7.260438 53.800954 
L 7.602879 54.143325 
L 7.94532 54.485696 
L 8.287761 54.828067 
L 8.630202 55.170437 
L 8.972643 55.512808 
L 9.315084 55.855179 
L 9.657525 56.19755 
L 9.999966 56.53992 
L 10.342407 56.882291 
L 10.684849 57.224662 
L 11.134633 57.61061 
L 11.584418 57.996557 
L 12.034202 58.382505 
L 12.483987 58.768453 
L 12.933771 59.154401 
L 13.383556 59.540349 
L 13.83334 59.926297 
L 14.283125 60.312244 
L 14.629568 60.763267 
L 14.97601 61.21429 
L 15.322453 61.665313 
L 15.668895 62.116336 
L 15.970972 62.509692 
L 16.414204 63.010248 
L 16.857435 63.510803 
" style="fill:none;stroke:#008000;stroke-linecap:square;stroke-width:0.4;"/>
   </g>
   <g id="line2d_11">
    <path clip-path="url(#pe73ee419d7)" d="M 41.963728 3.76021 
L 41.747644 4.459332 
L 41.531561 5.158454 
L 41.315477 5.857576 
L 41.099394 6.556697 
L 40.88331 7.255819 
L 40.667227 7.954941 
L 40.451143 8.654063 
L 40.23506 9.353185 
L 40.00109 9.804571 
L 39.767121 10.255957 
L 39.533151 10.707343 
L 39.299181 11.15873 
L 39.065212 11.610116 
L 38.831242 12.061502 
L 38.597273 12.512888 
L 38.363303 12.964274 
L 38.022715 13.510077 
L 37.682127 14.05588 
L 37.341539 14.601684 
L 37.000951 15.147487 
L 36.660363 15.69329 
L 36.319775 16.239093 
L 35.979187 16.784896 
L 35.638599 17.330699 
L 35.322557 18.003748 
L 35.006516 18.676796 
L 34.690474 19.349844 
L 34.374433 20.022893 
L 34.058391 20.695941 
L 33.74235 21.368989 
L 33.426308 22.042037 
L 33.110266 22.715086 
L 32.905086 23.207507 
L 32.699906 23.699928 
L 32.494726 24.192349 
L 32.289546 24.684771 
L 32.084367 25.177192 
L 31.879187 25.669613 
L 31.674007 26.162034 
L 31.468827 26.654455 
L 31.099449 27.315157 
L 30.730071 27.975858 
L 30.360694 28.63656 
L 29.991316 29.297261 
L 29.621938 29.957963 
L 29.252561 30.618664 
L 28.883183 31.279366 
L 28.513805 31.940067 
L 28.144482 32.584354 
L 27.775158 33.228642 
L 27.405834 33.872929 
L 27.03651 34.517217 
L 26.667186 35.161504 
L 26.297862 35.805791 
L 25.928538 36.450079 
L 25.559214 37.094366 
L 25.070811 37.66479 
L 24.582407 38.235215 
L 24.094004 38.805639 
L 23.6056 39.376063 
L 23.117197 39.946487 
L 22.628793 40.516912 
L 22.14039 41.087336 
L 21.651986 41.65776 
L 21.282662 42.330736 
L 20.913338 43.003711 
L 20.544014 43.676687 
L 20.17469 44.349663 
L 19.965375 45.018498 
L 19.756059 45.687334 
L 19.546743 46.35617 
L 19.337427 47.025006 
L 19.128111 47.693842 
L 18.918796 48.362678 
L 18.70948 49.031514 
L 18.500164 49.700349 
L 18.36062 50.291255 
L 18.221076 50.88216 
L 18.081532 51.473066 
L 17.941989 52.063971 
L 17.802445 52.654877 
L 17.662901 53.245782 
L 17.523357 53.836688 
L 17.383813 54.427593 
L 17.226759 55.188304 
L 17.069705 55.949015 
L 16.912651 56.709726 
L 16.755597 57.470437 
" style="fill:none;stroke:#008000;stroke-linecap:square;stroke-width:0.4;"/>
   </g>
   <g id="line2d_12">
    <path clip-path="url(#pe73ee419d7)" d="M 8.279409 61.738087 
L 8.357614 62.219759 
L 8.747563 62.543973 
L 9.137512 62.868187 
L 9.753052 63.179908 
L 10.368592 63.49163 
L 10.856942 63.622942 
L 11.345292 63.754254 
L 11.971144 63.791149 
L 12.596997 63.828045 
L 13.222849 63.86494 
L 13.848702 63.901835 
L 14.556197 63.776333 
L 15.263692 63.650831 
" style="fill:none;stroke:#008000;stroke-linecap:square;stroke-width:0.4;"/>
   </g>
   <g id="line2d_13">
    <path clip-path="url(#pe73ee419d7)" d="M 46.876015 4.380167 
L 47.259519 4.270643 
L 47.643023 4.161119 
L 48.012347 4.333684 
L 48.381671 4.50625 
L 48.574605 4.926841 
L 48.767538 5.347433 
L 48.960472 5.768025 
L 49.153406 6.188616 
L 49.346339 6.609208 
L 49.539273 7.029799 
L 49.732206 7.450391 
L 49.92514 7.870983 
L 50.310792 8.453754 
L 50.696445 9.036525 
L 51.283303 9.438741 
L 51.87016 9.840958 
L 52.457018 10.243175 
L 53.043876 10.645391 
L 53.466589 11.080436 
L 53.889303 11.515481 
L 54.312017 11.950525 
L 54.73473 12.38557 
L 55.044595 12.769267 
L 55.35446 13.152963 
L 55.664324 13.536659 
L 55.974189 13.920356 
L 56.284054 14.304052 
L 56.593919 14.687748 
L 56.903783 15.071445 
L 57.213648 15.455141 
L 57.473292 15.856559 
L 57.732936 16.257976 
L 57.99258 16.659394 
L 58.252224 17.060812 
L 58.511868 17.46223 
L 58.771512 17.863647 
L 59.031156 18.265065 
L 59.2908 18.666483 
" style="fill:none;stroke:#008000;stroke-linecap:square;stroke-width:0.4;"/>
   </g>
   <g id="line2d_14">
    <path clip-path="url(#pe73ee419d7)" d="M 65.835933 31.407264 
L 65.451274 31.950634 
L 65.066616 32.494005 
L 64.681957 33.037375 
L 64.297298 33.580745 
L 63.912639 34.124115 
L 63.527981 34.667485 
L 63.143322 35.210855 
L 62.758663 35.754225 
L 62.374005 36.297595 
L 61.989346 36.840965 
L 61.604687 37.384335 
L 61.220028 37.927706 
L 60.83537 38.471076 
L 60.450711 39.014446 
L 60.066052 39.557816 
L 59.681394 40.101186 
L 59.331352 40.553426 
L 58.981311 41.005665 
L 58.63127 41.457905 
L 58.281228 41.910144 
L 57.931187 42.362384 
L 57.581146 42.814623 
L 57.231104 43.266863 
L 56.881063 43.719102 
L 56.531022 44.171342 
L 56.18098 44.623581 
L 55.830939 45.075821 
L 55.480898 45.52806 
L 55.130857 45.9803 
L 54.780815 46.432539 
L 54.430774 46.884779 
L 54.080733 47.337018 
L 53.730691 47.789258 
L 53.38065 48.241497 
L 53.030609 48.693737 
L 52.680567 49.145976 
L 52.330526 49.598216 
L 51.980485 50.050455 
L 51.630443 50.502695 
L 51.280402 50.954934 
L 50.930361 51.407174 
L 50.580319 51.859413 
L 50.230278 52.311653 
L 49.880237 52.763892 
L 49.530196 53.216132 
L 49.180154 53.668371 
L 48.830113 54.120611 
L 48.480072 54.57285 
L 48.056875 55.126533 
L 47.633677 55.680217 
L 47.21048 56.2339 
L 46.787283 56.787583 
L 46.364086 57.341267 
L 45.940889 57.89495 
L 45.517692 58.448633 
L 45.094495 59.002317 
L 44.671298 59.556 
L 44.248101 60.109684 
L 43.824904 60.663367 
L 43.401706 61.21705 
L 42.978509 61.770734 
L 42.555312 62.324417 
L 42.132115 62.8781 
L 41.708918 63.431784 
L 41.29034 63.874963 
L 40.871762 64.318142 
L 40.453184 64.761321 
L 40.034607 65.2045 
L 39.616029 65.647679 
L 39.197451 66.090858 
L 38.778873 66.534037 
L 38.360295 66.977216 
L 37.785684 67.403981 
L 37.211073 67.830747 
L 36.636461 68.257512 
L 36.06185 68.684277 
L 35.4317 68.695026 
L 34.801551 68.705775 
L 34.171401 68.716524 
L 33.541252 68.727273 
L 32.917333 68.471984 
L 32.293414 68.216694 
L 31.669495 67.961405 
L 31.045576 67.706116 
L 30.421657 67.450827 
L 29.797738 67.195538 
L 29.173819 66.940249 
L 28.5499 66.684959 
L 28.152324 66.5283 
L 27.754747 66.37164 
L 27.357171 66.21498 
L 26.959594 66.058321 
L 26.562018 65.901661 
L 26.164441 65.745001 
L 25.766865 65.588342 
L 25.369288 65.431682 
L 24.800478 65.356148 
L 24.231667 65.280615 
L 23.662857 65.205081 
L 23.094047 65.129547 
L 22.60849 65.216048 
L 22.122933 65.302549 
L 21.637376 65.389049 
L 21.15182 65.47555 
L 20.666263 65.56205 
L 20.180706 65.648551 
L 19.695149 65.735051 
L 19.209593 65.821552 
" style="fill:none;stroke:#008000;stroke-linecap:square;stroke-width:0.4;"/>
   </g>
   <g id="line2d_15">
    <path clip-path="url(#pe73ee419d7)" d="M 37.784932 4.735175 
L 37.325157 5.197382 
L 36.865382 5.65959 
L 36.586831 6.031012 
L 36.308281 6.402435 
L 36.02973 6.773857 
L 35.751179 7.145279 
L 35.553734 7.748676 
L 35.356289 8.352074 
L 34.984816 8.967383 
L 34.613344 9.582691 
L 34.311697 10.023691 
L 34.096956 10.592518 
L 33.882216 11.161344 
L 33.667475 11.730171 
L 33.452734 12.298997 
L 33.38597 12.719734 
L 33.319206 13.140471 
L 33.252442 13.561208 
L 33.185678 13.981945 
L 33.118914 14.402681 
L 33.05215 14.823418 
L 32.985386 15.244155 
L 32.918622 15.664892 
L 32.698188 16.163995 
L 32.477753 16.663098 
L 31.897234 17.162201 
L 31.316714 17.661304 
L 30.748011 17.893425 
L 30.179308 18.125546 
L 30.19091 18.764095 
L 30.202512 19.402645 
L 30.469568 20.040904 
L 30.736624 20.679164 
L 30.376754 21.306093 
L 30.016883 21.933022 
L 29.686017 22.310254 
L 29.355151 22.687487 
L 29.024285 23.064719 
L 28.693419 23.441952 
L 28.356859 23.685693 
L 28.020299 23.929434 
L 27.68374 24.173175 
L 27.34718 24.416917 
L 27.358782 25.008984 
L 27.370384 25.601052 
L 27.370384 26.332275 
L 27.370384 27.063499 
L 27.091726 27.73662 
L 26.813068 28.409741 
L 26.755059 28.920465 
L 26.69705 29.431188 
L 26.511314 29.872188 
L 26.325577 30.313189 
L 26.139841 30.754189 
L 25.954105 31.195189 
L 25.84378 31.601473 
L 25.733456 32.007757 
L 25.623131 32.414041 
L 25.512807 32.820324 
L 25.437395 33.249849 
L 25.361983 33.679374 
L 25.286572 34.108899 
L 25.21116 34.538424 
L 25.298174 35.17741 
L 25.385187 35.816395 
L 25.472201 36.455381 
L 25.559214 37.094366 
L 25.40259 37.615984 
L 25.245965 38.137602 
L 25.089341 38.65922 
L 24.932717 39.180838 
L 24.95012 39.621983 
L 24.967522 40.063129 
L 24.984925 40.504274 
L 25.002328 40.94542 
L 25.342969 41.488245 
L 25.683611 42.03107 
L 26.024253 42.573896 
L 26.364895 43.116721 
L 26.60864 43.441661 
L 26.852385 43.766601 
L 27.09613 44.091541 
L 27.339875 44.416481 
L 27.734551 44.799524 
L 28.129227 45.182566 
L 28.523903 45.565609 
L 28.918579 45.948652 
L 29.313255 46.319929 
L 29.707931 46.691205 
" style="fill:none;stroke:#4169e1;stroke-linecap:square;stroke-width:0.4;"/>
   </g>
   <g id="line2d_16">
    <path clip-path="url(#pe73ee419d7)" d="M 18.667316 22.358334 
L 18.310131 22.921205 
L 17.952946 23.484076 
L 17.595761 24.046947 
L 17.238576 24.609818 
L 17.05864 24.989955 
L 16.878705 25.370093 
L 16.69877 25.750231 
L 16.518835 26.130368 
L 16.338899 26.510506 
L 16.158964 26.890643 
L 15.979029 27.270781 
L 15.799093 27.650918 
L 15.755587 28.060035 
L 15.71208 28.469151 
L 15.668573 28.878267 
L 15.625066 29.287384 
L 15.58156 29.6965 
L 15.538053 30.105616 
L 15.494546 30.514733 
L 15.451039 30.923849 
L 15.491646 31.544823 
L 15.532252 32.165796 
L 15.572858 32.78677 
L 15.613465 33.407744 
L 15.654071 34.028717 
L 15.694677 34.649691 
L 15.735283 35.270665 
L 15.77589 35.891638 
L 15.825735 36.505204 
L 15.875579 37.118769 
L 15.925424 37.732335 
L 15.975269 38.3459 
L 15.985206 38.871876 
L 15.995142 39.397852 
L 16.005079 39.923827 
L 16.015016 40.449803 
L 16.024952 40.975778 
L 16.034889 41.501754 
L 16.044826 42.02773 
L 16.054763 42.553705 
L 16.046008 42.959989 
L 16.037252 43.366273 
L 16.028497 43.772557 
L 16.019742 44.17884 
L 16.010987 44.585124 
L 16.002232 44.991408 
L 15.993477 45.397692 
L 15.984722 45.803976 
L 15.868704 46.320364 
L 15.752686 46.836753 
L 15.636668 47.353142 
L 15.52065 47.86953 
L 15.509048 48.351202 
L 15.497447 48.832875 
L 15.485845 49.314547 
L 15.474243 49.796219 
L 15.538053 50.431718 
L 15.601863 51.067218 
L 15.665673 51.702717 
L 15.729483 52.338216 
L 15.793292 52.973716 
L 15.857102 53.609215 
L 15.920912 54.244714 
L 15.984722 54.880214 
L 16.177441 55.52777 
L 16.37016 56.175325 
L 16.562878 56.822881 
L 16.755597 57.470437 
L 17.083885 57.946444 
L 17.412173 58.422451 
L 17.740461 58.898458 
L 18.068749 59.374465 
L 18.286175 59.857735 
L 18.503602 60.341005 
L 18.721028 60.824275 
L 18.938454 61.307545 
L 19.079072 61.820593 
L 19.21969 62.333641 
L 19.360308 62.846689 
L 19.500927 63.359736 
" style="fill:none;stroke:#008000;stroke-linecap:square;stroke-width:0.4;"/>
   </g>
  </g>
 </g>
 <defs>
  <clipPath id="pe73ee419d7">
   <rect height="72" width="84.910171" x="0" y="0"/>
  </clipPath>
 </defs>
</svg>
