<?xml version="1.0" encoding="utf-8" standalone="no"?>
<!DOCTYPE svg PUBLIC "-//W3C//DTD SVG 1.1//EN"
  "http://www.w3.org/Graphics/SVG/1.1/DTD/svg11.dtd">
<svg height="72pt" version="1.1" viewBox="0 0 105.441947 72" width="105.441947pt" xmlns="http://www.w3.org/2000/svg" xmlns:xlink="http://www.w3.org/1999/xlink">
 <metadata>
  <rdf:RDF xmlns:cc="http://creativecommons.org/ns#" xmlns:dc="http://purl.org/dc/elements/1.1/" xmlns:rdf="http://www.w3.org/1999/02/22-rdf-syntax-ns#">
   <cc:Work>
    <dc:type rdf:resource="http://purl.org/dc/dcmitype/StillImage"/>
    <dc:date>2022-05-18T23:29:29.668332</dc:date>
    <dc:format>image/svg+xml</dc:format>
    <dc:creator>
     <cc:Agent>
      <dc:title>Matplotlib v3.4.3, https://matplotlib.org/</dc:title>
     </cc:Agent>
    </dc:creator>
   </cc:Work>
  </rdf:RDF>
 </metadata>
 <defs>
  <style type="text/css">*{stroke-linecap:butt;stroke-linejoin:round;}</style>
 </defs>
 <g id="figure_1">
  <g id="patch_1">
   <path d="M 0 72 
L 105.441947 72 
L 105.441947 0 
L 0 0 
z
" style="fill:#ffffff;"/>
  </g>
  <g id="axes_1">
   <g id="line2d_1">
    <path clip-path="url(#pb36d1c8e96)" d="M 40.598426 66.927215 
L 40.125902 66.185843 
L 39.653378 65.444472 
L 39.146253 64.648084 
L 38.639129 63.851696 
L 37.920038 62.722494 
L 37.200947 61.593293 
L 36.282226 60.150651 
L 35.363504 58.708008 
L 34.516542 57.378112 
L 33.669579 56.048215 
L 32.788166 54.664077 
L 31.906753 53.279938 
L 31.422721 52.519873 
L 30.938689 51.759807 
L 30.454656 50.999742 
L 29.970624 50.239676 
L 29.21618 49.055071 
L 28.461737 47.870465 
L 27.725496 46.714336 
L 26.989255 45.558208 
L 26.31695 44.502427 
L 25.644645 43.446646 
L 25.057037 42.523758 
L 24.531333 41.698311 
L 24.00563 40.872865 
L 23.479926 40.047419 
L 22.954223 39.221972 
L 22.07958 37.848295 
L 21.204936 36.474617 
L 20.441767 35.276257 
L 19.678598 34.077897 
L 18.972295 32.968649 
L 18.265991 31.859401 
L 17.496052 30.650387 
L 16.726114 29.441372 
L 16.038013 28.360601 
L 15.349912 27.27983 
L 14.865955 26.519862 
L 14.381998 25.759893 
L 13.898041 24.999925 
L 13.414083 24.239956 
L 12.704921 23.126252 
L 11.995759 22.012549 
L 11.554376 21.319414 
L 10.751792 20.059063 
L 9.949209 18.798713 
L 9.428244 17.980531 
L 8.907279 17.162349 
L 8.386314 16.344167 
L 7.86535 15.525986 
L 7.71762 15.293907 
L 6.947681 14.080437 
" style="fill:none;stroke:#808080;stroke-linecap:square;stroke-width:0.488157;"/>
   </g>
   <g id="line2d_2">
    <path clip-path="url(#pb36d1c8e96)" d="M 45.120274 66.760614 
L 45.13622 65.50995 
" style="fill:none;stroke:#808080;stroke-linecap:square;stroke-width:0.488157;"/>
   </g>
   <g id="line2d_3">
    <path clip-path="url(#pb36d1c8e96)" d="M 45.445218 67.191838 
L 45.42506 66.258876 
L 45.404901 65.325915 
L 45.384893 64.392953 
L 45.364885 63.459991 
L 45.331939 61.919326 
L 45.298993 60.378661 
L 45.265897 58.835864 
L 45.232801 57.293068 
L 45.203165 55.910673 
L 45.173528 54.528278 
L 45.155175 53.63193 
L 45.136822 52.735581 
" style="fill:none;stroke:#808080;stroke-linecap:square;stroke-width:0.488157;"/>
   </g>
   <g id="line2d_4">
    <path clip-path="url(#pb36d1c8e96)" d="M 69.41712 68.727273 
L 70.101761 67.186801 
L 70.786401 65.64633 
L 71.306012 64.478965 
L 71.91062 63.12001 
L 72.515228 61.761056 
L 73.053719 60.550685 
L 73.59221 59.340314 
L 74.130701 58.129944 
L 74.669191 56.919573 
L 75.235964 55.645856 
L 75.802737 54.372139 
L 76.36951 53.098421 
L 76.936283 51.824704 
L 77.092136 51.473681 
L 77.60919 50.311741 
L 78.126243 49.1498 
L 78.820512 47.589375 
L 79.51478 46.028951 
L 80.004906 44.927064 
L 80.495031 43.825177 
L 80.951458 42.799423 
L 81.407885 41.773669 
L 81.915085 40.633619 
L 82.422284 39.49357 
L 82.929484 38.35352 
L 83.436684 37.21347 
L 84.029407 35.881249 
L 84.622131 34.549028 
L 84.987919 33.726875 
L 85.353708 32.904721 
L 85.719497 32.082568 
L 86.085285 31.260415 
L 86.574658 30.160078 
L 87.064031 29.059741 
L 87.704293 27.62078 
L 88.344554 26.181818 
L 88.933968 24.856765 
L 89.523382 23.531711 
L 90.150932 22.12113 
L 90.778481 20.710548 
L 91.406031 19.299967 
L 92.033581 17.889385 
L 92.387409 17.094353 
L 92.91725 15.903258 
L 93.447091 14.712162 
L 93.976931 13.521067 
L 94.506772 12.329972 
L 94.87053 11.512274 
L 95.234287 10.694577 
L 95.676573 9.700399 
L 96.118859 8.706222 
L 96.561145 7.712044 
L 97.003431 6.717866 
L 97.615411 5.342058 
L 98.22739 3.966249 
" style="fill:none;stroke:#808080;stroke-linecap:square;stroke-width:0.488157;"/>
   </g>
   <g id="line2d_5">
    <path clip-path="url(#pb36d1c8e96)" d="M 92.331748 27.738175 
L 92.310085 28.036118 
L 92.199588 28.408354 
L 92.089092 28.780589 
L 91.978596 29.152825 
L 91.8681 29.52506 
L 91.740152 29.795495 
L 91.612205 30.06593 
L 91.484258 30.336365 
L 91.356311 30.6068 
L 91.09455 31.025431 
L 90.832789 31.444063 
L 90.611721 31.749368 
L 90.390654 32.054672 
L 90.169586 32.359977 
L 89.948518 32.665282 
L 89.771152 32.967681 
L 89.593787 33.27008 
L 89.416421 33.572479 
L 89.239055 33.874878 
L 88.983161 34.258833 
L 88.727267 34.642789 
L 88.648739 34.9016 
L 88.57021 35.160412 
L 88.491682 35.419224 
L 88.413154 35.678035 
L 88.410258 35.954233 
L 88.407362 36.230431 
L 88.404466 36.50663 
L 88.40157 36.782828 
L 88.398674 37.059026 
L 88.395778 37.335224 
L 88.392882 37.611422 
L 88.389986 37.88762 
L 88.3259 38.213459 
L 88.261814 38.539299 
L 88.145676 38.887997 
L 87.994411 39.22236 
L 87.843146 39.556723 
L 87.691882 39.891086 
L 87.540617 40.225449 
L 87.243954 40.609404 
L 86.947292 40.99336 
L 86.796102 41.269606 
L 86.644912 41.545853 
L 86.493723 41.822099 
L 86.342533 42.098346 
L 86.185476 42.34844 
L 86.02842 42.598534 
L 85.853912 42.842623 
L 85.63307 43.063465 
L 85.23757 43.281595 
L 84.84207 43.499726 
L 84.44657 43.717856 
L 84.05107 43.935986 
L 83.783292 44.133582 
L 83.53319 44.404016 
L 83.283087 44.674451 
L 83.032985 44.944886 
L 82.782883 45.215321 
L 82.573512 45.410156 
L 82.36414 45.604992 
L 82.154769 45.799827 
L 81.945398 45.994662 
L 81.736027 46.189497 
L 81.526655 46.384332 
L 81.317284 46.579167 
L 81.107913 46.774003 
L 80.828701 46.890235 
L 80.537905 46.959975 
L 80.24711 47.029715 
L 79.726897 47.060323 
L 79.206685 47.090931 
L 78.932588 47.169194 
L 78.630208 47.180817 
L 78.327829 47.192441 
L 78.042826 47.300053 
L 77.757822 47.407665 
L 77.472818 47.515277 
L 77.187815 47.622889 
L 76.879568 47.715875 
L 76.571322 47.808862 
L 76.236824 47.872887 
L 75.902327 47.936911 
L 75.567829 48.000936 
L 75.233332 48.064961 
L 74.994888 48.233499 
L 74.756445 48.402036 
L 74.448199 48.710247 
L 74.139952 49.018457 
L 73.831706 49.413842 
L 73.52346 49.809228 
L 73.302016 50.270284 
" style="fill:none;stroke:#000000;stroke-linecap:square;stroke-width:0.488157;"/>
   </g>
   <g id="line2d_6">
    <path clip-path="url(#pb36d1c8e96)" d="M 21.988414 9.431127 
L 23.533106 10.302485 
L 24.076034 10.977023 
L 24.322902 11.338894 
L 24.799789 13.016908 
L 25.387924 13.658416 
L 27.11126 15.105998 
L 28.114677 15.920208 
L 28.419012 16.224544 
L 28.978339 17.408956 
L 29.397909 19.555776 
L 29.757717 20.330903 
L 31.734051 23.199285 
L 33.617528 25.255443 
L 34.966425 26.06142 
L 36.208511 26.629121 
L 36.56219 26.851319 
L 37.236826 27.801134 
L 37.812475 28.940119 
L 38.53653 30.108161 
L 38.680273 31.987548 
L 38.473685 34.140179 
L 37.845421 37.641982 
L 37.911313 38.053058 
L 38.219709 38.871434 
L 38.610395 40.750627 
L 38.598059 41.66751 
L 38.390268 42.860009 
L 38.482899 45.05182 
L 38.88186 46.4131 
L 39.527537 47.827653 
L 41.26727 50.474079 
L 41.26727 50.474079 
" style="fill:none;stroke:#4169e1;stroke-linecap:square;stroke-width:0.488157;"/>
   </g>
   <g id="line2d_7">
    <path clip-path="url(#pb36d1c8e96)" d="M 45.136822 52.735581 
L 45.539317 52.717468 
L 45.941812 52.699355 
L 46.344308 52.681242 
L 46.746803 52.663129 
L 47.037598 52.732869 
L 47.328394 52.802609 
L 47.686134 52.921844 
L 48.043874 53.04108 
L 48.401615 53.160315 
L 48.759355 53.279551 
L 49.002198 53.387114 
L 49.245042 53.494678 
L 49.487886 53.602242 
L 49.730729 53.709806 
L 49.973573 53.817369 
L 50.216416 53.924933 
L 50.45926 54.032497 
L 50.702104 54.14006 
L 50.957847 54.326033 
L 51.085719 54.593756 
L 51.021783 55.047257 
L 50.957847 55.500759 
L 50.963714 55.803158 
L 50.969581 56.105557 
L 51.126638 56.547435 
L 51.283695 56.989313 
L 51.481369 57.204537 
L 51.679044 57.419762 
L 51.94513 57.618956 
L 52.211217 57.81815 
L 52.477303 58.017343 
L 52.743389 58.216537 
L 53.009475 58.415731 
L 53.275561 58.614925 
L 53.541647 58.814119 
L 53.807734 59.013313 
L 54.040385 59.149935 
L 54.273037 59.286557 
L 54.505688 59.423179 
L 54.738339 59.559801 
L 54.970991 59.696423 
L 55.203642 59.833045 
L 55.436294 59.969666 
L 55.668945 60.106288 
L 55.872638 60.362194 
L 56.07633 60.6181 
L 56.407744 60.955369 
L 56.739157 61.292638 
L 57.123073 61.565978 
L 57.50699 61.839319 
L 57.989743 62.016671 
L 58.472497 62.194023 
L 58.955251 62.371374 
L 59.438004 62.548726 
L 59.903307 62.542915 
L 60.36861 62.537103 
L 60.663806 62.486203 
L 60.959002 62.435302 
L 61.254198 62.384402 
L 61.549394 62.333502 
L 61.844589 62.282602 
L 62.139785 62.231701 
L 62.434981 62.180801 
L 62.730177 62.129901 
L 63.114018 62.129901 
L 63.497859 62.129901 
L 63.8817 62.129901 
L 64.265541 62.129901 
L 64.725052 62.252042 
L 65.184563 62.374183 
L 65.644074 62.496325 
L 66.103586 62.618466 
L 66.557154 62.83369 
L 67.010723 63.048915 
L 67.191098 63.275569 
L 67.371472 63.502222 
L 67.499344 63.781568 
L 67.619092 64.237976 
L 67.720487 64.618832 
L 67.842642 64.903796 
L 67.964797 65.18876 
L 68.130504 65.45038 
L 68.296211 65.712001 
L 68.461918 65.973622 
L 68.627625 66.235242 
L 68.694532 66.495458 
L 68.761439 66.755674 
L 68.828346 67.015891 
L 68.895253 67.276107 
L 68.96216 67.536323 
L 69.029067 67.796539 
L 69.095974 68.056755 
L 69.162881 68.316971 
L 69.41712 68.727273 
" style="fill:none;stroke:#008000;stroke-linecap:square;stroke-width:0.488157;"/>
   </g>
   <g id="line2d_8">
    <path clip-path="url(#pb36d1c8e96)" d="M 43.688109 53.07963 
L 43.709923 53.370987 
L 43.731736 53.662344 
L 43.858254 53.902219 
L 43.984772 54.142095 
L 44.11129 54.38197 
L 44.237808 54.621845 
L 44.364326 54.861721 
L 44.490843 55.101596 
L 44.617361 55.341471 
L 44.743879 55.581347 
L 44.866034 56.029037 
L 44.98819 56.476727 
L 44.999811 56.898361 
L 45.011432 57.319995 
L 45.023053 57.74163 
L 45.034675 58.163264 
L 45.046296 58.584898 
L 45.057917 59.006533 
L 45.069539 59.428167 
L 45.08116 59.849801 
L 45.145171 60.300397 
L 45.209182 60.750993 
L 45.273193 61.201589 
L 45.337204 61.652184 
L 45.286507 62.150823 
L 45.23581 62.649461 
" style="fill:none;stroke:#008000;stroke-linecap:square;stroke-width:0.488157;"/>
   </g>
   <g id="line2d_9">
    <path clip-path="url(#pb36d1c8e96)" d="M 59.397085 49.92701 
L 59.230025 50.196767 
L 59.062964 50.466524 
L 58.895903 50.736281 
L 58.728842 51.006038 
L 58.630155 51.392705 
L 58.531469 51.779373 
L 58.502697 52.098044 
L 58.473926 52.416716 
L 58.445155 52.735387 
L 58.416384 53.054059 
L 58.387613 53.372731 
L 58.358842 53.691402 
L 58.33007 54.010074 
L 58.301299 54.328745 
L 58.299231 54.591915 
L 58.297162 54.855086 
L 58.295094 55.118256 
L 58.293025 55.381426 
L 58.290957 55.644597 
L 58.288888 55.907767 
L 58.28682 56.170938 
L 58.284751 56.434108 
L 58.301224 56.77128 
L 58.317697 57.108452 
L 58.33417 57.445624 
L 58.350643 57.782795 
L 58.416459 58.276203 
L 58.482276 58.769612 
L 58.548092 59.26302 
L 58.613908 59.756428 
L 58.708458 60.171669 
L 58.803008 60.586911 
L 58.897558 61.002152 
L 58.992108 61.417394 
L 59.103582 61.700227 
L 59.215056 61.98306 
L 59.32653 62.265893 
L 59.438004 62.548726 
" style="fill:none;stroke:#008000;stroke-linecap:square;stroke-width:0.488157;"/>
   </g>
   <g id="line2d_10">
    <path clip-path="url(#pb36d1c8e96)" d="M 11.075082 37.139856 
L 11.156018 37.331253 
L 11.306154 37.553354 
L 11.456291 37.775456 
L 11.606427 37.997557 
L 11.756564 38.219658 
L 12.044501 38.565063 
L 12.332438 38.910468 
L 12.570882 39.144871 
L 12.809325 39.379274 
L 13.019185 39.630143 
L 13.229045 39.881012 
L 13.413068 40.126699 
L 13.59709 40.372386 
L 13.781113 40.618073 
L 13.965136 40.86376 
L 14.149158 41.109447 
L 14.333181 41.355134 
L 14.517203 41.600821 
L 14.701226 41.846508 
L 14.88822 42.070498 
L 15.075213 42.294489 
L 15.262207 42.518479 
L 15.449201 42.742469 
L 15.636194 42.966459 
L 15.823188 43.19045 
L 16.010182 43.41444 
L 16.197176 43.63843 
L 16.52874 44.022192 
L 16.860304 44.405954 
L 17.09288 44.615173 
L 17.325607 44.905948 
L 17.558333 45.196724 
L 17.80836 45.475876 
L 18.058387 45.755029 
L 18.384084 46.092297 
L 18.709781 46.429566 
L 18.948225 46.633167 
L 19.186668 46.836768 
L 19.425111 47.040369 
L 19.663555 47.24397 
L 20.012569 47.476436 
L 20.25688 47.69166 
L 20.50119 47.906885 
L 20.739633 48.145356 
L 20.978077 48.383826 
L 21.156947 48.606267 
L 21.335817 48.828707 
L 21.514687 49.051148 
L 21.693557 49.273588 
L 21.872427 49.496029 
L 22.051297 49.718469 
L 22.230167 49.94091 
L 22.409037 50.16335 
L 22.560227 50.430685 
L 22.711417 50.698021 
L 22.894649 50.933586 
L 23.077882 51.169151 
L 23.261115 51.404716 
L 23.444348 51.640281 
L 23.81653 51.948492 
L 24.188712 52.256702 
L 24.508692 52.576536 
L 24.828673 52.89637 
L 25.15437 53.259791 
L 25.480067 53.623212 
L 25.805764 53.986633 
L 26.131461 54.350054 
L 26.364037 54.588525 
L 26.596613 54.826996 
L 26.803089 55.074184 
L 27.009564 55.321373 
L 27.216039 55.568561 
L 27.422515 55.81575 
L 27.637791 56.048215 
L 27.853067 56.280681 
L 28.085718 56.507528 
L 28.31837 56.734376 
L 28.551021 56.961223 
L 28.783673 57.188071 
L 29.062884 57.32755 
L 29.365264 57.653196 
L 29.667643 57.978841 
L 29.946855 58.321922 
L 30.226067 58.665002 
L 30.38884 58.920714 
L 30.517013 59.211684 
L 30.668052 59.479019 
L 30.848426 59.897651 
L 31.028801 60.316282 
L 31.17984 60.572382 
L 31.366081 60.804847 
L 31.592941 61.01426 
L 31.819801 61.223673 
L 32.064111 61.386399 
L 32.319855 61.549124 
L 32.587483 61.653928 
L 32.855111 61.758731 
L 33.075953 61.921457 
" style="fill:none;stroke:#ff0000;stroke-linecap:square;stroke-width:0.488157;"/>
   </g>
   <g id="line2d_11">
    <path clip-path="url(#pb36d1c8e96)" d="M 58.043149 14.380705 
L 58.328077 14.692984 
L 58.525752 15.054855 
L 58.575095 15.474456 
L 58.624439 15.894056 
L 58.591493 16.305326 
L 58.558547 16.716597 
L 58.447524 17.1114 
L 58.336502 17.506204 
L 58.225479 17.901008 
L 58.114456 18.295812 
L 58.114456 18.715219 
L 58.114456 19.134626 
L 58.204869 19.537566 
L 58.295282 19.940506 
L 58.451586 20.327174 
L 58.607891 20.713841 
L 58.788867 20.968779 
L 58.969843 21.223716 
L 59.150819 21.478653 
L 59.331796 21.73359 
L 59.562115 22.202396 
L 59.792435 22.671201 
L 59.743092 23.082665 
L 59.66084 23.331452 
L 59.578588 23.580238 
L 59.496337 23.829025 
L 59.414085 24.077811 
L 59.331833 24.326598 
L 59.249582 24.575384 
L 59.16733 24.824171 
L 59.085078 25.072958 
L 59.010913 25.467762 
L 58.936747 25.862566 
L 58.755921 26.241097 
L 58.505067 26.442567 
L 58.254212 26.644037 
L 58.003358 26.845507 
L 57.752504 27.046977 
L 57.456443 27.359644 
L 57.209575 27.721515 
L 56.962707 28.083386 
L 56.861952 28.389756 
L 56.761196 28.696127 
L 56.660441 29.002497 
L 56.559685 29.308867 
L 56.45893 29.615237 
L 56.358174 29.921607 
L 56.257419 30.227978 
L 56.156663 30.534348 
L 55.96542 30.838636 
L 55.774176 31.142923 
L 55.582933 31.447211 
L 55.391689 31.751499 
L 55.200446 32.055786 
L 55.009202 32.360074 
L 54.817958 32.664362 
L 54.626715 32.968649 
L 54.454013 33.330521 
L 54.281311 33.692392 
L 54.182624 34.087196 
L 54.166076 34.49866 
L 54.248515 34.893077 
L 54.396546 35.115178 
L 54.544576 35.33728 
L 54.692607 35.559381 
L 54.840637 35.781482 
L 54.988667 36.003584 
L 55.136698 36.225685 
L 55.284728 36.447787 
L 55.432759 36.669888 
L 55.720696 36.978292 
L 56.008633 37.286697 
L 56.29657 37.595101 
L 56.584507 37.903505 
L 56.929912 38.133646 
L 57.316536 38.306349 
L 57.70316 38.479051 
L 58.089784 38.651754 
L 58.476408 38.824456 
L 58.859873 39.06099 
L 59.243338 39.297524 
" style="fill:none;stroke:#ff0000;stroke-linecap:square;stroke-width:0.488157;"/>
   </g>
   <g id="line2d_12">
    <path clip-path="url(#pb36d1c8e96)" d="M 87.675409 27.28293 
L 87.412068 27.444663 
L 87.148727 27.606396 
L 86.885387 27.768129 
L 86.622046 27.929862 
L 86.358705 28.091595 
L 86.095364 28.253328 
L 85.832024 28.415061 
L 85.568683 28.576794 
L 85.305342 28.738527 
L 85.042002 28.90026 
L 84.778661 29.061993 
L 84.51532 29.223727 
L 84.25198 29.38546 
L 83.988639 29.547193 
L 83.725298 29.708926 
L 83.461957 29.870659 
L 83.182746 29.928775 
L 82.903534 29.986892 
L 82.531276 29.963645 
L 82.159019 29.940398 
L 81.786762 29.917152 
L 81.414504 29.893905 
L 80.913848 30.028929 
L 80.413193 30.163953 
" style="fill:none;stroke:#4169e1;stroke-linecap:square;stroke-width:0.488157;"/>
   </g>
   <g id="line2d_13">
    <path clip-path="url(#pb36d1c8e96)" d="M 39.488198 23.153955 
L 39.862035 23.370535 
L 40.235871 23.587115 
L 40.433546 23.813963 
L 40.631221 24.040811 
L 40.785382 24.312698 
L 40.939543 24.584586 
L 41.093703 24.856474 
L 41.247864 25.128362 
L 41.402025 25.40025 
L 41.556185 25.672137 
L 41.710346 25.944025 
L 41.864507 26.215913 
L 42.044806 26.458743 
L 42.225105 26.701572 
L 42.405405 26.944402 
L 42.585704 27.187232 
L 42.766003 27.430061 
L 42.946302 27.672891 
L 43.126602 27.91572 
L 43.306901 28.15855 
L 43.644182 28.519065 
L 43.981462 28.879581 
L 44.336269 29.164545 
L 44.691076 29.449509 
L 45.045882 29.734473 
L 45.400689 30.019437 
L 45.508402 30.059343 
L 45.87908 30.196498 
L 46.249758 30.333653 
L 46.61329 30.41211 
L 46.976822 30.490567 
L 47.340354 30.569024 
L 47.703886 30.647481 
L 48.041317 30.688163 
L 48.378748 30.728844 
L 48.80915 30.757902 
L 49.239551 30.78696 
L 49.576869 30.932348 
L 49.914188 31.077736 
L 50.251506 31.223124 
L 50.588824 31.368512 
L 50.926142 31.5139 
L 51.263461 31.659287 
L 51.600779 31.804675 
L 51.938097 31.950063 
" style="fill:none;stroke:#008000;stroke-linecap:square;stroke-width:0.488157;"/>
   </g>
   <g id="line2d_14">
    <path clip-path="url(#pb36d1c8e96)" d="M 45.136822 52.735581 
L 44.774644 52.821593 
L 44.412466 52.907606 
L 44.050287 52.993618 
L 43.688109 53.07963 
L 43.426348 53.18424 
L 43.164587 53.288849 
L 42.908693 53.422711 
L 42.652799 53.556572 
L 42.370654 53.774605 
L 42.088508 53.992639 
L 41.806363 54.210672 
L 41.524218 54.428705 
L 41.326543 54.649741 
L 41.128868 54.870777 
L 40.966095 55.126489 
L 40.86139 55.405835 
L 40.855523 55.786691 
L 40.849656 56.167547 
L 40.843789 56.548403 
L 40.837922 56.929259 
L 40.907725 57.219841 
L 41.074936 57.60801 
L 41.242147 57.996179 
L 41.409359 58.384348 
L 41.57657 58.772517 
L 41.743781 59.160686 
L 41.910992 59.548855 
L 42.078203 59.937024 
L 42.245415 60.325193 
L 42.341394 60.604346 
L 42.437373 60.883498 
L 42.533352 61.162651 
L 42.629331 61.441803 
L 42.72531 61.720955 
L 42.821289 62.000108 
L 42.917268 62.27926 
L 43.013247 62.558412 
L 43.08305 62.843183 
L 43.152853 63.127953 
L 43.269292 63.418922 
L 43.356545 63.721321 
L 43.443799 64.02372 
L 43.531053 64.326119 
L 43.618306 64.628518 
L 43.734595 64.925105 
L 43.850883 65.221692 
L 44.087972 65.599062 
L 44.325061 65.976431 
" style="fill:none;stroke:#008000;stroke-linecap:square;stroke-width:0.488157;"/>
   </g>
   <g id="line2d_15">
    <path clip-path="url(#pb36d1c8e96)" d="M 11.19814 10.033987 
L 11.619967 10.226159 
L 12.041793 10.41833 
L 12.341314 10.482258 
L 12.640835 10.546186 
L 12.940356 10.610114 
L 13.239877 10.674042 
L 13.55399 10.761411 
L 13.868103 10.848779 
L 14.298505 11.005693 
L 14.728906 11.162607 
L 15.022635 11.296372 
L 15.316365 11.430137 
L 15.610094 11.563901 
L 15.903823 11.697666 
L 16.130682 11.872209 
L 16.357542 12.046751 
L 16.534908 12.296846 
L 16.712273 12.54694 
L 16.889639 12.797034 
L 17.067005 13.047128 
L 17.224061 13.401929 
L 17.381118 13.756729 
L 17.538175 14.11153 
L 17.695231 14.46633 
L 17.846421 14.733859 
L 17.997611 15.001388 
L 18.166251 15.251483 
L 18.334891 15.501577 
L 18.556034 15.699172 
L 18.823512 15.809787 
L 19.09099 15.920402 
L 19.390586 15.946554 
L 19.690182 15.972707 
L 19.989778 15.998859 
L 20.289374 16.025012 
L 20.609204 16.106375 
L 20.929034 16.187737 
L 21.248864 16.2691 
L 21.568694 16.350463 
L 22.02828 16.507571 
L 22.487867 16.664679 
L 22.720443 16.839028 
L 22.905105 17.086217 
L 23.089767 17.333405 
L 23.274429 17.580593 
L 23.459091 17.827782 
L 23.643753 18.07497 
L 23.828414 18.322158 
L 24.013076 18.569347 
L 24.197738 18.816535 
L 24.389696 19.049194 
L 24.581655 19.281854 
L 24.773613 19.514513 
L 24.965571 19.747172 
L 25.252982 20.001819 
L 25.540392 20.256465 
L 25.827803 20.511112 
L 26.115214 20.765759 
" style="fill:none;stroke:#000000;stroke-linecap:square;stroke-width:0.488157;"/>
   </g>
   <g id="line2d_16">
    <path clip-path="url(#pb36d1c8e96)" d="M 32.349039 48.292777 
L 32.196872 48.651549 
L 32.044705 49.010321 
L 31.892537 49.369093 
L 31.74037 49.727865 
L 31.60806 50.081164 
L 31.47575 50.434463 
L 31.34344 50.787762 
L 31.211131 51.141061 
L 31.078821 51.494361 
L 30.946511 51.84766 
L 30.814202 52.200959 
L 30.681892 52.554258 
L 30.606222 52.839222 
L 30.530552 53.124186 
L 30.530552 53.426585 
L 30.530552 53.728984 
L 30.600355 54.019566 
L 30.739961 54.298718 
L 30.879567 54.577871 
L 31.187813 54.915139 
L 31.496059 55.252408 
L 31.804306 55.589677 
L 32.112552 55.926946 
L 32.321961 56.351583 
L 32.53137 56.77622 
L 32.537237 57.235533 
L 32.543104 57.694846 
L 32.461567 58.125101 
L 32.38003 58.555356 
L 32.374313 58.863566 
L 32.368596 59.171777 
L 32.484884 59.642907 
L 32.601173 60.114037 
L 32.740778 60.457118 
L 32.880384 60.800198 
L 32.929277 61.080513 
L 32.978169 61.360827 
L 33.027061 61.641142 
L 33.075953 61.921457 
L 33.146809 62.268024 
L 33.217665 62.614592 
L 33.334104 62.89355 
L 33.543513 63.114392 
L 33.831375 63.210381 
L 34.119237 63.30637 
L 34.407099 63.402359 
L 34.694961 63.498348 
L 35.077372 63.681511 
L 35.459784 63.864675 
L 35.842196 64.047838 
L 36.224608 64.231002 
L 36.60702 64.414165 
L 36.989432 64.597329 
L 37.371844 64.780492 
L 37.754256 64.963656 
L 38.027751 65.126382 
L 38.301246 65.289107 
L 38.522239 65.515955 
L 38.743231 65.742803 
L 38.970091 66.143999 
L 39.196951 66.545196 
L 39.412076 66.742986 
L 39.627202 66.940775 
L 39.918148 67.010515 
L 40.258287 66.968865 
L 40.598426 66.927215 
" style="fill:none;stroke:#4169e1;stroke-linecap:square;stroke-width:0.488157;"/>
   </g>
   <g id="line2d_17">
    <path clip-path="url(#pb36d1c8e96)" d="M 14.173191 30.960922 
L 14.483393 30.976032 
L 14.793594 30.991143 
L 15.16871 31.090037 
L 15.543826 31.188932 
L 15.918942 31.287827 
L 16.294057 31.386721 
L 16.663456 31.505957 
L 17.032855 31.625192 
L 17.402255 31.744428 
L 17.771654 31.863663 
L 18.141429 32.127899 
" style="fill:none;stroke:#000000;stroke-linecap:square;stroke-width:0.488157;"/>
   </g>
   <g id="line2d_18">
    <path clip-path="url(#pb36d1c8e96)" d="M 84.650112 10.091716 
L 84.821761 10.290329 
L 84.99341 10.488942 
L 85.165059 10.687554 
L 85.336709 10.886167 
L 85.508358 11.08478 
L 85.680007 11.283393 
L 85.851656 11.482005 
L 86.023305 11.680618 
L 86.087241 11.977205 
L 86.151177 12.273793 
L 86.023305 12.576385 
L 85.810963 12.777081 
L 85.59862 12.977776 
L 85.386278 13.178471 
L 85.173935 13.379166 
L 84.982052 13.681565 
L 84.790169 13.983964 
L 84.598287 14.286363 
L 84.406404 14.588762 
L 84.336601 14.879538 
L 84.266798 15.170313 
L 84.266798 15.478524 
L 84.266798 15.786734 
L 84.15051 16.048452 
L 84.034221 16.310169 
L 83.842263 16.537017 
L 83.650305 16.763865 
L 83.405995 16.955842 
L 83.161684 17.14782 
L 82.917374 17.339798 
L 82.673064 17.531776 
L 82.626578 17.822551 
L 82.580093 18.113327 
L 82.588819 18.587266 
L 82.597544 19.061205 
L 82.606269 19.535144 
L 82.614995 20.009083 
L 82.553917 20.29119 
L 82.49284 20.573297 
L 82.431762 20.855403 
L 82.370684 21.13751 
L 82.309607 21.419616 
L 82.248529 21.701723 
L 82.187452 21.98383 
L 82.126374 22.265936 
L 82.044987 22.568335 
L 81.963601 22.870734 
L 81.847162 23.155698 
L 81.730724 23.440662 
L 81.422477 23.777931 
L 81.114231 24.1152 
L 80.971767 24.446754 
L 80.829303 24.778308 
L 80.686838 25.109861 
L 80.544374 25.441415 
L 80.590709 25.743621 
L 80.695413 26.022773 
L 80.800118 26.301925 
L 80.800118 26.651011 
L 80.654795 27.092889 
L 80.509473 27.534768 
L 80.265162 27.953593 
L 80.020852 28.372418 
L 80.061621 28.669006 
L 80.102389 28.965593 
L 80.207093 29.244745 
L 80.311798 29.523898 
L 80.362495 29.843925 
L 80.413193 30.163953 
L 80.368212 30.460346 
L 80.323231 30.75674 
L 80.206943 31.053327 
L 80.090655 31.349914 
L 79.936532 31.602914 
L 79.782409 31.855914 
L 79.628286 32.108914 
L 79.474162 32.361914 
L 79.258962 32.818419 
L 79.043761 33.274923 
L 78.82856 33.731427 
L 78.613359 34.187931 
L 78.566799 34.615377 
L 78.520239 35.042823 
L 78.473678 35.470269 
L 78.427118 35.897715 
L 78.427118 36.200308 
L 78.427118 36.5029 
L 78.369049 36.793676 
L 78.31098 37.084452 
L 78.113155 37.293671 
L 77.91533 37.50289 
L 77.612875 37.72102 
L 77.310421 37.93915 
L 77.007967 38.15728 
L 76.705512 38.37541 
L 76.583959 38.785518 
L 76.462405 39.195626 
L 76.512651 39.465867 
L 76.562897 39.736109 
" style="fill:none;stroke:#000000;stroke-linecap:square;stroke-width:0.488157;"/>
   </g>
   <g id="line2d_19">
    <path clip-path="url(#pb36d1c8e96)" d="M 75.161723 32.328982 
L 75.011286 32.62615 
L 74.860849 32.923319 
L 74.710411 33.220487 
L 74.559974 33.517656 
L 74.284372 33.945295 
L 74.008771 34.372935 
L 73.73317 34.800575 
L 73.457568 35.228214 
L 73.175874 35.460583 
L 72.89418 35.692952 
L 72.612486 35.92532 
L 72.330792 36.157689 
L 72.049098 36.390058 
L 71.767404 36.622426 
L 71.48571 36.854795 
L 71.204016 37.087164 
L 71.039512 37.292751 
L 70.875009 37.498337 
L 70.710506 37.703924 
L 70.546002 37.909511 
L 70.381499 38.115097 
L 70.216996 38.320684 
L 70.052493 38.526271 
L 69.887989 38.731857 
L 69.768692 39.032029 
L 69.649395 39.3322 
L 69.530099 39.632371 
L 69.410802 39.932542 
L 69.328663 40.393211 
L 69.328663 40.833249 
L 69.328663 41.273287 
L 69.328663 41.713325 
L 69.328663 42.153363 
L 69.234038 42.490535 
L 69.139413 42.827706 
L 69.044788 43.164878 
L 68.950162 43.50205 
L 68.806194 43.793988 
L 68.662225 44.085926 
L 68.518257 44.377864 
L 68.374288 44.669802 
L 68.341493 45.097539 
L 68.477187 45.393642 
L 68.612882 45.689745 
L 68.748576 45.985848 
L 68.884271 46.281951 
L 68.999506 46.709493 
L 69.114741 47.137036 
L 69.130988 47.581045 
L 69.06111 47.897683 
L 68.991232 48.21432 
L 68.921354 48.530958 
L 68.851475 48.847595 
L 68.884271 49.308264 
L 69.036438 49.694835 
L 69.188606 50.081406 
L 69.340773 50.467977 
L 69.492941 50.854548 
L 69.558757 51.181452 
L 69.624573 51.508357 
L 69.69039 51.835262 
L 69.756206 52.162166 
L 69.822022 52.489071 
L 69.887839 52.815976 
L 69.953655 53.14288 
L 70.019472 53.469785 
L 70.163403 53.751456 
L 70.307334 54.033126 
L 70.451265 54.314797 
L 70.595196 54.596468 
L 70.739127 54.878139 
L 70.883058 55.159809 
L 71.026989 55.44148 
L 71.17092 55.723151 
L 71.218383 56.070493 
L 71.265846 56.417835 
L 71.313309 56.765178 
L 71.360772 57.11252 
" style="fill:none;stroke:#ff0000;stroke-linecap:square;stroke-width:0.488157;"/>
   </g>
   <g id="line2d_20">
    <path clip-path="url(#pb36d1c8e96)" d="M 48.759355 53.279551 
L 48.493081 53.619725 
L 48.340913 53.997966 
L 48.188746 54.376207 
L 48.036578 54.754448 
L 47.884411 55.132688 
L 47.777487 55.428743 
L 47.670564 55.724797 
L 47.563641 56.020852 
L 47.456717 56.316906 
L 47.349794 56.612961 
L 47.24287 56.909016 
L 47.135947 57.20507 
L 47.029024 57.501125 
L 46.9221 57.858879 
L 46.815177 58.216634 
L 46.708253 58.574389 
L 46.60133 58.932144 
L 46.494407 59.289899 
L 46.387483 59.647653 
L 46.28056 60.005408 
L 46.173636 60.363163 
L 46.056408 60.64895 
L 45.93918 60.934737 
L 45.821951 61.220525 
L 45.704723 61.506312 
L 45.587495 61.792099 
L 45.470266 62.077887 
L 45.353038 62.363674 
L 45.23581 62.649461 
L 45.128849 63.068868 
L 45.021888 63.488274 
L 44.880627 63.873877 
L 44.739366 64.259479 
L 44.598105 64.645081 
L 44.456845 65.030683 
L 44.390953 65.503557 
L 44.325061 65.976431 
L 44.382829 66.396031 
L 44.629547 66.733106 
L 45.037383 66.962472 
L 45.445218 67.191838 
" style="fill:none;stroke:#008000;stroke-linecap:square;stroke-width:0.488157;"/>
   </g>
   <g id="line2d_21">
    <path clip-path="url(#pb36d1c8e96)" d="M 26.115214 20.765759 
L 26.482582 21.059053 
L 26.84995 21.352347 
L 27.134954 21.666417 
L 27.419957 21.980488 
L 27.704961 22.294559 
L 27.989965 22.608629 
L 28.274968 22.9227 
L 28.559972 23.23677 
L 28.844976 23.550841 
L 29.12998 23.864912 
L 29.211517 24.167117 
L 29.199783 24.481333 
L 29.095078 24.760291 
L 28.920571 25.004574 
L 28.746063 25.248857 
L 28.618191 25.533821 
L 28.49032 25.818785 
L 28.437967 26.182302 
L 28.385615 26.54582 
L 28.333263 26.909338 
L 28.280911 27.272856 
L 28.275044 27.563632 
L 28.269177 27.854408 
L 28.368089 28.145183 
L 28.467002 28.435959 
L 28.565914 28.726735 
L 28.664827 29.01751 
L 28.784049 29.302474 
L 28.90327 29.587438 
L 29.022492 29.872402 
L 29.141714 30.157366 
L 29.246418 30.445236 
L 29.351123 30.733106 
L 29.455827 31.020976 
L 29.560531 31.308846 
L 29.775657 31.716048 
L 29.990782 32.12325 
L 30.149268 32.384967 
L 30.307754 32.646685 
L 30.46624 32.908402 
L 30.624726 33.17012 
L 30.783212 33.431837 
L 30.941697 33.693554 
L 31.100183 33.955272 
L 31.258669 34.216989 
L 31.456494 34.455267 
L 31.654319 34.693544 
L 31.895696 34.830214 
L 32.137073 34.966884 
L 32.37845 35.103555 
L 32.619827 35.240225 
L 32.869929 35.408956 
L 33.120031 35.577688 
L 33.370133 35.746419 
L 33.620236 35.91515 
L 33.852812 36.159239 
L 34.085388 36.403328 
L 34.283364 36.659427 
L 34.411236 36.938386 
L 34.446137 37.339679 
L 34.481039 37.740973 
L 34.51594 38.142267 
L 34.550841 38.54356 
L 34.556633 38.860488 
L 34.562425 39.177416 
L 34.568217 39.494344 
L 34.574009 39.811272 
L 34.629295 40.113671 
L 34.68458 40.41607 
L 34.739866 40.718469 
L 34.795152 41.020868 
L 34.844571 41.512339 
L 34.893989 42.00381 
L 34.943408 42.495281 
L 34.992827 42.986752 
L 35.074364 43.30058 
L 35.219686 43.579732 
L 35.365009 43.858885 
L 35.457979 44.173101 
L 35.510331 44.620791 
L 35.562684 45.06848 
L 35.55125 45.382696 
L 35.318524 45.789705 
L 35.085797 46.196713 
L 35.015994 46.476059 
L 35.027728 46.766641 
L 35.167334 47.057417 
L 35.30694 47.348192 
L 35.481447 47.598287 
L 35.655955 47.848381 
L 35.999102 48.197273 
L 36.34225 48.546165 
L 36.516758 48.874716 
L 36.691265 49.203267 
L 36.865772 49.531819 
L 37.04028 49.86037 
L 37.174019 50.290819 
L 37.307758 50.721267 
L 37.424046 51.023666 
L 37.540334 51.326065 
L 37.656622 51.628464 
L 37.77291 51.930863 
L 37.807812 52.221445 
L 37.761326 52.611018 
L 37.714841 53.000592 
L 37.668356 53.390165 
L 37.621871 53.779739 
L 37.610212 54.099573 
L 37.598553 54.419407 
L 37.586894 54.73924 
L 37.575235 55.059074 
L 37.575235 55.37329 
L 37.675126 55.830472 
L 37.775016 56.287655 
" style="fill:none;stroke:#4169e1;stroke-linecap:square;stroke-width:0.488157;"/>
   </g>
   <g id="line2d_22">
    <path clip-path="url(#pb36d1c8e96)" d="M 40.954661 30.225556 
L 41.184981 30.628496 
L 41.415301 31.031437 
L 41.596277 31.409774 
L 41.777253 31.788112 
L 41.87594 32.215849 
L 41.91716 32.57772 
L 41.95838 32.939591 
L 42.057067 33.367328 
L 42.221345 33.745472 
L 42.439328 33.979875 
L 42.657312 34.214277 
L 42.875296 34.44868 
L 43.09328 34.683083 
L 43.356545 35.012215 
L 43.619811 35.341348 
L 43.808911 35.719685 
L 43.99801 36.098023 
L 44.0803 36.525566 
L 44.162589 36.953109 
L 44.187261 37.380845 
L 44.211932 37.808582 
L 44.162589 38.236318 
L 43.948667 38.647395 
L 43.718498 39.025926 
L 43.463506 39.363001 
L 43.208515 39.700076 
L 42.941188 40.11958 
L 42.67386 40.539083 
L 42.406533 40.958587 
L 42.139206 41.37809 
L 41.95838 41.739961 
L 41.839083 42.048366 
L 41.719786 42.35677 
L 41.600489 42.665174 
L 41.481192 42.973579 
L 41.349409 43.43386 
L 41.234325 43.939667 
L 41.11924 44.445473 
L 41.004155 44.951279 
L 40.889071 45.457085 
L 40.847851 45.876492 
L 40.806631 46.295898 
L 40.897194 46.707169 
L 40.987758 47.118439 
L 41.111116 47.513243 
L 41.234475 47.908047 
L 41.25501 48.228753 
L 41.275544 48.549458 
L 41.296079 48.870164 
L 41.316614 49.190869 
L 41.316614 49.618606 
L 41.316614 50.046342 
L 41.26727 50.474079 
L 41.08667 50.840212 
L 40.90607 51.206345 
L 40.72547 51.572479 
L 40.54487 51.938612 
L 40.36427 52.304745 
L 40.18367 52.670878 
L 40.00307 53.037012 
L 39.822469 53.403145 
L 39.659546 53.647427 
L 39.496622 53.89171 
L 39.316323 54.121366 
L 39.136024 54.351023 
L 38.955724 54.58068 
L 38.775425 54.810336 
L 38.525323 55.179666 
L 38.275221 55.548995 
L 38.025118 55.918325 
L 37.775016 56.287655 
L 37.664595 56.55499 
L 37.554174 56.822325 
L 37.420285 57.252774 
L 37.286395 57.683223 
L 37.210876 57.973998 
L 37.135356 58.264774 
L 37.09188 58.588095 
L 37.048403 58.911416 
" style="fill:none;stroke:#008000;stroke-linecap:square;stroke-width:0.488157;"/>
   </g>
   <g id="line2d_23">
    <path clip-path="url(#pb36d1c8e96)" d="M 56.601958 43.077801 
L 56.797602 43.522294 
L 56.993246 43.966788 
L 57.18889 44.411281 
L 57.384534 44.855775 
L 57.544524 45.120398 
L 57.704514 45.385021 
L 57.864504 45.649644 
L 58.024494 45.914268 
L 58.204718 46.175985 
L 58.384942 46.437702 
L 58.745541 46.751725 
L 59.106139 47.065747 
L 59.304115 47.286589 
L 59.455154 47.554312 
L 59.513524 47.833271 
L 59.461172 48.147293 
L 59.40882 48.461315 
L 59.405886 48.827739 
L 59.402953 49.194163 
L 59.400019 49.560586 
L 59.397085 49.92701 
L 59.469822 50.223597 
L 59.542558 50.520185 
L 59.615295 50.816772 
L 59.688031 51.113359 
L 59.868255 51.566861 
L 60.048479 52.020362 
L 60.211328 52.273362 
L 60.374176 52.526362 
L 60.537025 52.779362 
L 60.699873 53.032362 
L 60.996536 53.369631 
L 61.293199 53.7069 
L 61.528784 53.919121 
L 61.764369 54.131343 
L 61.999954 54.343565 
L 62.235539 54.555786 
L 62.587412 54.852374 
L 62.939285 55.148961 
L 63.291158 55.445548 
L 63.643031 55.742135 
L 63.846573 55.95736 
L 64.050115 56.172584 
L 64.231881 56.570924 
L 64.413647 56.969263 
L 64.595413 57.367602 
L 64.777179 57.765942 
L 64.958945 58.164281 
L 65.140711 58.56262 
L 65.322477 58.96096 
L 65.504243 59.359299 
L 65.736894 59.775025 
L 65.969546 60.190751 
L 66.202197 60.606477 
L 66.434849 61.022203 
L 66.600631 61.266485 
L 66.766413 61.510768 
L 66.932195 61.75505 
L 67.097977 61.999333 
L 67.295652 62.214363 
L 67.493326 62.429394 
L 67.720186 62.632995 
L 67.947046 62.836596 
L 68.152242 63.178514 
L 68.357439 63.520432 
" style="fill:none;stroke:#008000;stroke-linecap:square;stroke-width:0.488157;"/>
   </g>
   <g id="line2d_24">
    <path clip-path="url(#pb36d1c8e96)" d="M 77.498317 31.518065 
L 77.457925 31.83354 
L 77.417532 32.149015 
L 77.37714 32.46449 
L 77.336748 32.779965 
L 77.235992 33.030834 
L 77.135237 33.281703 
L 77.034481 33.532572 
L 76.933726 33.783441 
L 76.83297 34.03431 
L 76.732215 34.285179 
L 76.631459 34.536048 
L 76.530704 34.786917 
L 76.316782 35.148789 
L 76.049455 35.490126 
L 75.782127 35.831462 
L 75.5148 36.172799 
L 75.247473 36.514136 
L 74.996618 36.783457 
L 74.745764 37.052778 
L 74.49491 37.322099 
L 74.244055 37.59142 
L 73.993201 37.860741 
L 73.742346 38.130062 
L 73.491492 38.399383 
L 73.240638 38.668704 
L 73.055524 39.005973 
L 72.870411 39.343242 
L 72.685298 39.680511 
L 72.500185 40.017779 
L 72.245193 40.363184 
L 71.990202 40.708589 
L 71.825698 40.996459 
L 71.661195 41.284329 
L 71.496692 41.572199 
L 71.332188 41.860069 
L 71.151212 42.279475 
L 70.970236 42.698882 
L 70.871549 43.093686 
L 70.859213 43.486359 
L 70.846877 43.879032 
L 70.834541 44.271705 
L 70.822206 44.664378 
L 70.80987 45.057051 
L 70.797534 45.449724 
L 70.785198 45.842397 
L 70.772862 46.23507 
L 70.776999 46.58464 
L 70.781136 46.93421 
L 70.785273 47.28378 
L 70.78941 47.63335 
L 70.829502 47.893445 
L 70.869593 48.15354 
L 70.909685 48.413635 
L 70.949777 48.67373 
L 70.989868 48.933825 
L 71.02996 49.19392 
L 71.070051 49.454015 
L 71.110143 49.71411 
L 71.150234 49.974205 
L 71.190326 50.234301 
L 71.230418 50.494396 
L 71.270509 50.754491 
L 71.310601 51.014586 
L 71.350692 51.274681 
L 71.390784 51.534776 
L 71.430875 51.794871 
L 71.47202 52.255346 
L 71.513165 52.715822 
L 71.554309 53.176297 
L 71.595454 53.636773 
L 71.709485 53.909435 
L 71.823517 54.182098 
L 71.937549 54.454761 
L 72.05158 54.727423 
" style="fill:none;stroke:#ff0000;stroke-dasharray:1.806182,0.781051;stroke-dashoffset:0;stroke-width:0.488157;"/>
   </g>
   <g id="line2d_25">
    <path clip-path="url(#pb36d1c8e96)" d="M 82.673064 17.531776 
L 82.454365 17.839696 
L 82.235667 18.147616 
L 82.016968 18.455536 
L 81.79827 18.763456 
L 81.579572 19.071376 
L 81.360873 19.379296 
L 81.142175 19.687215 
L 80.923476 19.995135 
L 80.670441 20.291723 
L 80.417405 20.58831 
L 80.164369 20.884897 
L 79.911334 21.181485 
L 79.658298 21.478072 
L 79.405262 21.774659 
L 79.152226 22.071246 
L 78.899191 22.367834 
L 78.637505 22.734257 
L 78.375819 23.100681 
L 78.114133 23.467105 
L 77.852447 23.833529 
L 77.701182 24.083623 
L 77.549917 24.333717 
L 77.398653 24.583811 
L 77.247388 24.833906 
L 77.107782 25.136304 
L 76.968176 25.438703 
L 76.82857 25.741102 
L 76.688964 26.043501 
L 76.520324 26.485476 
L 76.351683 26.927451 
L 76.183043 27.369426 
L 76.014403 27.811402 
L 75.928616 28.14436 
L 75.842829 28.477318 
L 75.757042 28.810277 
L 75.671255 29.143235 
L 75.585468 29.476194 
L 75.499681 29.809152 
L 75.413894 30.142111 
L 75.328107 30.475069 
L 75.286511 30.938547 
L 75.244915 31.402025 
L 75.203319 31.865504 
L 75.161723 32.328982 
" style="fill:none;stroke:#ff0000;stroke-dasharray:1.806182,0.781051;stroke-dashoffset:0;stroke-width:0.488157;"/>
   </g>
   <g id="line2d_26">
    <path clip-path="url(#pb36d1c8e96)" d="M 6.947681 14.080437 
L 7.464133 12.721095 
L 7.981788 12.156785 
L 9.52317 10.801511 
L 10.921862 10.147411 
L 11.582056 9.801328 
L 12.187116 9.382309 
L 13.210692 7.975118 
L 13.734214 7.649278 
L 14.722889 7.567915 
L 16.258554 7.928624 
L 19.211114 9.279734 
L 20.56633 9.422409 
L 22.88709 9.352524 
L 26.042515 9.185198 
L 28.001097 9.032497 
L 31.457246 8.663216 
L 32.701966 8.907692 
L 33.876882 9.22152 
L 34.796054 9.25639 
L 35.074965 9.116911 
L 36.017305 7.942185 
L 36.843207 7.581476 
L 37.145586 7.593099 
L 38.936995 8.442373 
L 40.018941 9.524113 
L 40.263251 10.38501 
L 40.178893 11.25879 
L 39.460517 13.583736 
L 38.390305 15.491503 
L 38.436941 17.236157 
L 38.669517 17.974816 
L 38.931278 18.783118 
L 39.229934 20.306591 
L 39.581318 23.456354 
L 39.686023 24.07568 
L 39.793473 25.417588 
L 40.546976 28.93174 
L 40.954661 30.225556 
L 40.954661 30.225556 
" style="fill:none;stroke:#4169e1;stroke-linecap:square;stroke-width:0.488157;"/>
   </g>
   <g id="line2d_27">
    <path clip-path="url(#pb36d1c8e96)" d="M 63.626784 10.728284 
L 63.771655 11.165513 
L 63.916526 11.602742 
L 63.951428 11.916958 
L 63.893209 12.387895 
L 63.834989 12.858831 
L 63.695383 13.295091 
L 63.555777 13.731352 
L 63.372545 14.121022 
L 63.189312 14.510692 
L 63.006079 14.900363 
L 62.822846 15.290033 
L 62.744393 15.726293 
L 62.66594 16.162554 
L 62.587487 16.598814 
L 62.509034 17.035074 
L 62.392595 17.325656 
L 62.299475 17.767728 
L 62.206354 18.2098 
L 62.066748 18.709988 
L 61.927142 19.210177 
L 61.787536 19.710365 
L 61.64793 20.210554 
L 61.55496 20.495518 
L 61.461989 20.780482 
L 61.345626 21.059634 
L 61.229263 21.338786 
L 61.112899 21.617939 
L 60.996536 21.897091 
L 60.781411 22.286664 
L 60.566285 22.676238 
L 60.391778 22.909091 
L 60.067435 22.995878 
L 59.743092 23.082665 
" style="fill:none;stroke:#ff0000;stroke-dasharray:1.806182,0.781051;stroke-dashoffset:0;stroke-width:0.488157;"/>
   </g>
   <g id="line2d_28">
    <path clip-path="url(#pb36d1c8e96)" d="M 26.240378 41.861618 
L 26.362533 42.140771 
L 26.484688 42.419923 
L 26.693796 42.629142 
L 27.135932 42.844366 
L 27.578067 43.059591 
L 27.973567 43.303873 
L 28.369067 43.548156 
L 28.668588 43.777812 
L 28.968109 44.007469 
L 29.26763 44.237126 
L 29.567151 44.466782 
L 29.759109 44.713971 
L 29.951067 44.961159 
L 30.143025 45.208347 
L 30.334983 45.455536 
L 30.532658 45.868356 
L 30.730333 46.281176 
L 30.921012 46.497708 
L 31.111692 46.71424 
L 31.302371 46.930772 
L 31.493051 47.147304 
L 31.68373 47.363835 
L 31.874409 47.580367 
L 32.065089 47.796899 
L 32.255768 48.013431 
L 32.349039 48.292777 
L 32.488608 48.5312 
L 32.628176 48.769622 
L 32.767744 49.008045 
L 32.907313 49.246467 
L 33.046881 49.48489 
L 33.186449 49.723312 
L 33.326018 49.961735 
L 33.465586 50.200157 
L 33.640093 50.618789 
L 33.814601 51.03742 
L 33.884404 51.32839 
L 33.890271 51.831387 
L 33.896138 52.334384 
L 33.902005 52.837382 
L 33.907872 53.340379 
L 34.105547 53.741576 
L 34.303221 54.142773 
L 34.477729 54.619714 
L 34.640653 55.026723 
L 34.803576 55.433731 
L 34.963491 55.715789 
L 35.123406 55.997848 
L 35.283321 56.279906 
L 35.443236 56.561964 
L 35.649712 56.910856 
L 35.856187 57.259748 
L 36.062662 57.60864 
L 36.269138 57.957532 
L 36.463954 58.196003 
L 36.658771 58.434474 
L 36.853587 58.672945 
L 37.048403 58.911416 
L 37.240362 59.187565 
L 37.43232 59.463715 
L 37.624278 59.739865 
L 37.816236 60.016014 
L 38.05908 60.405636 
L 38.301923 60.795258 
L 38.544767 61.18488 
L 38.78761 61.574502 
L 39.030454 61.964124 
L 39.273298 62.353746 
L 39.516141 62.743368 
L 39.758985 63.13299 
L 40.04978 63.525469 
L 40.340576 63.917948 
L 40.631371 64.310428 
L 40.922167 64.702907 
L 40.99197 65.144979 
L 41.061773 65.587051 
L 41.096674 65.889256 
L 41.021004 66.162597 
L 40.945334 66.435937 
L 40.77188 66.681576 
L 40.598426 66.927215 
" style="fill:none;stroke:#4169e1;stroke-linecap:square;stroke-width:0.488157;"/>
   </g>
   <g id="line2d_29">
    <path clip-path="url(#pb36d1c8e96)" d="M 6.947681 14.080437 
L 7.164462 14.316584 
L 7.381242 14.55273 
L 7.532469 14.776623 
L 7.683696 15.000517 
L 7.834924 15.22441 
L 7.986151 15.448303 
L 8.137378 15.672197 
L 8.288605 15.89609 
L 8.439833 16.119983 
L 8.59106 16.343877 
L 8.754435 16.65848 
L 8.867789 16.905572 
L 8.981144 17.152663 
L 9.094499 17.399755 
L 9.207853 17.646846 
L 9.321208 17.893938 
L 9.434562 18.141029 
L 9.547917 18.388121 
L 9.661272 18.635212 
L 9.927358 18.978389 
L 10.193444 19.321567 
L 10.45953 19.664744 
L 10.725616 20.007921 
L 10.991702 20.351098 
L 11.257789 20.694276 
L 11.523875 21.037453 
L 11.789961 21.38063 
L 11.931015 21.617624 
L 12.072069 21.854618 
L 12.213123 22.091611 
L 12.354177 22.328605 
L 12.49523 22.565599 
L 12.636284 22.802593 
L 12.777338 23.039586 
L 12.918392 23.27658 
L 13.059446 23.513574 
L 13.2005 23.750568 
L 13.341554 23.987561 
L 13.482608 24.224555 
L 13.623661 24.461549 
L 13.764715 24.698543 
L 13.905769 24.935537 
L 14.046823 25.17253 
L 14.324531 25.591259 
L 14.602238 26.009987 
L 14.879946 26.428716 
L 15.157653 26.847444 
L 15.43536 27.266173 
L 15.713068 27.684902 
L 15.990775 28.10363 
L 16.268483 28.522359 
L 16.460441 28.859627 
L 16.652399 29.196896 
L 16.844357 29.534165 
L 17.036316 29.871434 
L 17.174455 30.153492 
L 17.312594 30.43555 
L 17.450733 30.717608 
L 17.588872 30.999666 
L 17.727011 31.281725 
L 17.86515 31.563783 
L 18.00329 31.845841 
L 18.141429 32.127899 
L 18.350838 32.436207 
L 18.560247 32.744514 
L 18.769655 33.052821 
L 18.979064 33.361129 
L 19.275652 33.72455 
L 19.572239 34.087971 
L 19.868826 34.451392 
L 20.165414 34.814813 
L 20.384977 35.14196 
L 20.604541 35.469107 
L 20.824104 35.796254 
L 21.043667 36.1234 
L 21.263231 36.450547 
L 21.482794 36.777694 
L 21.702358 37.104841 
L 21.921921 37.431988 
L 22.084694 37.699323 
L 22.125914 37.983125 
L 22.167134 38.266926 
L 22.398808 38.548597 
L 22.683811 38.67655 
L 22.968815 38.804503 
L 23.253819 38.932456 
L 23.538822 39.060409 
L 23.916872 39.304498 
L 24.294921 39.548586 
L 24.538103 39.837715 
L 24.781285 40.126844 
L 25.024467 40.415973 
L 25.267649 40.705102 
L 25.510831 40.994231 
L 25.754013 41.28336 
L 25.997196 41.572489 
L 26.240378 41.861618 
" style="fill:none;stroke:#000000;stroke-linecap:square;stroke-width:0.488157;"/>
   </g>
   <g id="line2d_30">
    <path clip-path="url(#pb36d1c8e96)" d="M 17.325757 35.515309 
L 17.611287 35.647815 
L 17.896818 35.78032 
L 18.182348 35.912825 
L 18.467878 36.045331 
L 18.680183 36.213965 
L 18.892488 36.3826 
L 19.104792 36.551234 
L 19.317097 36.719868 
L 19.529402 36.888503 
L 19.741707 37.057137 
L 19.954012 37.225771 
L 20.166316 37.394406 
L 20.451245 37.568949 
L 20.736173 37.743492 
L 21.093914 37.87435 
L 21.451654 38.005209 
L 21.809394 38.136068 
L 22.167134 38.266926 
" style="fill:none;stroke:#4169e1;stroke-linecap:square;stroke-width:0.488157;"/>
   </g>
   <g id="line2d_31">
    <path clip-path="url(#pb36d1c8e96)" d="M 7.244645 30.105062 
L 7.663914 30.289484 
L 8.083183 30.473907 
L 8.502452 30.658329 
L 8.921721 30.842752 
L 9.304133 31.077155 
L 9.686545 31.311558 
L 10.068957 31.54596 
L 10.451369 31.780363 
L 10.733101 32.033266 
L 11.014832 32.286169 
L 11.296564 32.539073 
L 11.578296 32.791976 
L 11.860027 33.044879 
L 12.141759 33.297782 
L 12.423491 33.550685 
L 12.705222 33.803588 
L 12.919107 33.97014 
L 13.132991 34.136692 
L 13.346875 34.303244 
L 13.56076 34.469796 
L 13.774644 34.636347 
L 13.988529 34.802899 
L 14.202413 34.969451 
L 14.416297 35.136003 
L 14.749403 35.339556 
L 15.08251 35.543108 
L 15.415616 35.746661 
L 15.748722 35.950214 
L 16.081828 36.153766 
L 16.414934 36.357319 
L 16.74804 36.560872 
L 17.081146 36.764424 
L 17.410152 36.797357 
L 17.739159 36.830289 
" style="fill:none;stroke:#000000;stroke-linecap:square;stroke-width:0.488157;"/>
   </g>
   <g id="line2d_32">
    <path clip-path="url(#pb36d1c8e96)" d="M 7.190788 27.239149 
L 7.599226 27.424153 
L 8.007663 27.609157 
L 8.416101 27.79416 
L 8.824539 27.979164 
L 9.229629 28.258801 
L 9.634719 28.538438 
L 10.03981 28.818074 
L 10.4449 29.097711 
L 10.84999 29.377348 
L 11.255081 29.656984 
L 11.660171 29.936621 
L 12.065261 30.216258 
L 12.46016 30.429932 
L 12.855058 30.643607 
L 13.233258 30.841202 
L 13.703224 30.901062 
L 14.173191 30.960922 
" style="fill:none;stroke:#ff0000;stroke-dasharray:1.806182,0.781051;stroke-dashoffset:0;stroke-width:0.488157;"/>
   </g>
   <g id="line2d_33">
    <path clip-path="url(#pb36d1c8e96)" d="M 98.22739 3.966249 
L 99.247356 4.572016 
L 99.741693 5.112886 
L 100.489141 6.244024 
L 100.649132 6.502836 
L 100.637397 6.817052 
L 100.078974 7.514836 
L 98.898341 8.445473 
L 98.287565 9.085141 
L 98.081165 9.759969 
L 97.84558 10.911545 
L 97.880481 11.92955 
L 97.729141 12.505096 
L 97.322058 12.912298 
L 95.332974 14.151146 
L 93.89058 16.099401 
L 93.838153 17.000883 
L 94.059221 18.344436 
L 94.239595 19.054037 
L 94.099989 21.461993 
L 94.251028 21.717705 
L 94.693013 22.113284 
L 95.146733 22.904054 
L 95.065496 23.799821 
L 94.367467 25.3555 
L 93.425127 26.777705 
L 92.674895 27.395095 
L 91.814092 28.116125 
L 90.738014 28.936147 
L 90.284294 29.413089 
L 88.522672 30.310794 
L 86.581428 32.482409 
L 83.661437 34.357437 
L 82.863517 35.377186 
L 81.053755 37.795409 
L 80.066886 38.535424 
L 78.81645 38.84809 
L 77.582863 39.094891 
L 76.562897 39.736109 
L 74.763365 41.983275 
L 74.0187 42.425154 
L 73.495479 42.681059 
L 73.274336 43.274428 
L 73.192949 43.879226 
L 73.216267 44.798046 
L 73.315104 45.821475 
L 73.237478 46.751047 
L 72.956311 49.036667 
L 73.162109 49.867344 
L 73.351359 50.698021 
L 73.203329 51.503901 
L 72.594659 52.638721 
L 72.125595 54.299881 
L 71.738971 56.372504 
L 71.114054 57.474391 
L 69.101803 60.100864 
L 68.892394 60.659169 
L 68.624917 63.002615 
L 68.357439 63.520432 
L 67.619092 64.237976 
L 67.619092 64.237976 
" style="fill:none;stroke:#4169e1;stroke-linecap:square;stroke-width:0.488157;"/>
   </g>
   <g id="line2d_34">
    <path clip-path="url(#pb36d1c8e96)" d="M 5.288056 18.088918 
L 5.541392 18.319059 
L 5.838055 18.473164 
L 6.134718 18.627269 
L 6.43138 18.781375 
L 6.728043 18.93548 
L 7.107521 19.044545 
L 7.487 19.15361 
L 7.866478 19.262675 
L 8.245956 19.37174 
L 8.625435 19.480805 
L 9.004913 19.589871 
L 9.384391 19.698936 
L 9.76387 19.808001 
L 10.136202 20.063906 
L 10.508535 20.319812 
L 10.700493 20.54666 
L 10.892451 20.773508 
L 11.066959 21.227009 
L 11.241466 21.680511 
L 11.241466 22.044029 
L 11.241466 22.407547 
L 11.241466 22.771064 
L 11.241466 23.134582 
L 11.241466 23.4981 
L 11.241466 23.861618 
L 11.241466 24.225136 
L 11.241466 24.588654 
L 11.317061 24.987042 
L 11.392656 25.38543 
L 11.468251 25.783818 
L 11.543845 26.182206 
L 11.638358 26.43661 
L 11.73287 26.691015 
L 11.827382 26.945419 
L 11.921895 27.199823 
L 12.016407 27.454228 
L 12.110919 27.708632 
L 12.205432 27.963037 
L 12.299944 28.217441 
L 12.503486 28.563524 
L 12.707027 28.909607 
L 12.910569 29.255691 
L 13.114111 29.601774 
L 13.378881 29.941561 
L 13.643651 30.281348 
L 13.908421 30.621135 
L 14.173191 30.960922 
L 14.491516 31.363669 
L 14.809842 31.766415 
L 15.128167 32.169162 
L 15.446493 32.571908 
L 15.697422 32.831688 
L 15.948352 33.091469 
L 16.137602 33.367037 
L 16.326853 33.642606 
L 16.516103 33.918174 
L 16.705353 34.193743 
L 16.860454 34.524134 
L 17.015555 34.854526 
L 17.170656 35.184918 
L 17.325757 35.515309 
L 17.429108 35.844054 
L 17.532458 36.172799 
L 17.635809 36.501544 
L 17.739159 36.830289 
L 17.974218 37.236232 
L 18.209276 37.642175 
L 18.444335 38.048118 
L 18.679393 38.454061 
L 18.92611 38.799466 
L 19.172828 39.144871 
L 19.368171 39.32169 
L 19.563514 39.498509 
L 19.758857 39.675329 
L 19.9542 39.852148 
L 20.149543 40.028967 
L 20.344886 40.205786 
L 20.540229 40.382605 
L 20.735572 40.559424 
L 21.076425 40.751208 
L 21.417279 40.942992 
L 21.758132 41.134776 
L 22.098986 41.32656 
L 22.43984 41.518344 
L 22.780693 41.710128 
L 23.121547 41.901912 
L 23.4624 42.093697 
L 23.770647 42.180871 
L 24.078893 42.268046 
L 24.561646 42.297104 
L 25.0444 42.326162 
L 25.329479 42.256422 
L 25.614558 42.186683 
L 25.927468 42.024151 
L 26.240378 41.861618 
" style="fill:none;stroke:#000000;stroke-linecap:square;stroke-width:0.488157;"/>
   </g>
   <g id="line2d_35">
    <path clip-path="url(#pb36d1c8e96)" d="M 80.413193 30.163953 
L 80.048833 30.333217 
L 79.684474 30.502481 
L 79.320114 30.671745 
L 78.955755 30.841009 
L 78.591396 31.010273 
L 78.227036 31.179537 
L 77.862677 31.348801 
L 77.498317 31.518065 
L 77.206243 31.619429 
L 76.914169 31.720794 
L 76.622095 31.822158 
L 76.33002 31.923523 
L 76.037946 32.024888 
L 75.745872 32.126252 
L 75.453798 32.227617 
L 75.161723 32.328982 
L 74.708004 32.398721 
L 74.254285 32.468461 
L 73.800566 32.509143 
L 73.346846 32.549824 
L 72.974589 32.549824 
L 72.602332 32.549824 
L 72.230074 32.549824 
L 71.857817 32.549824 
L 71.488493 32.51786 
L 71.119169 32.485896 
L 70.749845 32.453932 
L 70.380521 32.421968 
L 70.095593 32.363852 
L 69.810664 32.305735 
L 69.519869 32.294112 
L 69.229073 32.282489 
L 68.949861 32.352228 
L 68.67065 32.421968 
L 68.394371 32.567356 
L 68.118093 32.712744 
L 67.841815 32.858131 
L 67.565536 33.003519 
L 67.228256 33.015143 
L 66.949044 32.968649 
L 66.669832 32.922156 
L 66.367302 32.951215 
L 66.064773 32.980273 
L 65.785862 33.050012 
L 65.529817 33.154622 
L 65.308674 33.340982 
L 65.145901 33.602699 
L 64.983128 33.864417 
L 64.692332 34.224932 
L 64.401537 34.585447 
L 64.006037 34.771613 
L 63.610537 34.95778 
L 63.354492 35.108882 
L 63.081147 35.196057 
L 62.807803 35.283231 
L 62.551758 35.411087 
L 62.319182 35.568195 
L 62.086606 35.725303 
L 61.86268 35.902655 
L 61.638753 36.080007 
L 61.414827 36.257359 
L 61.190901 36.434711 
L 60.923423 36.585813 
L 60.667379 36.714057 
L 60.315506 36.812854 
L 59.963633 36.911652 
L 59.61176 37.01045 
L 59.259887 37.109248 
L 59.029416 37.282822 
L 58.922606 37.447098 
L 58.856714 37.63617 
L 58.856714 38.063906 
L 58.996621 38.475177 
L 59.136528 38.886447 
L 59.243338 39.297524 
L 59.276435 39.733396 
L 59.243338 39.947265 
L 59.103432 40.185929 
L 58.988497 40.358729 
L 58.840467 40.498596 
L 58.57314 40.700066 
L 58.305812 40.901536 
L 58.009451 41.180882 
L 57.770631 41.546143 
L 57.531812 41.911405 
L 57.292992 42.276666 
L 57.054173 42.641928 
L 56.914567 42.806591 
L 56.601958 43.077801 
L 56.231732 43.279271 
L 55.861505 43.480741 
L 55.647583 43.563266 
L 55.425538 43.612471 
L 54.994986 43.636493 
" style="fill:none;stroke:#4169e1;stroke-linecap:square;stroke-width:0.488157;"/>
   </g>
   <g id="line2d_36">
    <path clip-path="url(#pb36d1c8e96)" d="M 6.947681 14.080437 
L 5.715524 15.925439 
L 4.985376 17.70535 
L 4.99711 17.995932 
L 5.288056 18.088918 
L 6.462822 17.158475 
L 6.73045 17.018802 
L 7.928533 16.983932 
L 9.190703 16.547865 
L 10.013746 16.428533 
L 11.17407 16.402381 
L 12.767804 15.774336 
L 13.058449 15.797583 
L 13.69841 16.890946 
L 14.58238 17.228408 
L 15.29771 16.984126 
L 16.112028 16.559489 
L 16.804191 16.233843 
L 17.10672 16.146669 
L 17.734646 16.274525 
L 19.331389 16.224544 
L 20.126601 16.377391 
L 21.710105 16.851427 
L 21.710105 17.467848 
L 21.048105 19.426612 
L 19.399763 21.900869 
L 17.936834 23.623922 
L 16.541076 24.752155 
L 16.482706 24.972997 
L 16.73875 25.112864 
L 17.611287 24.972997 
L 19.437447 24.182227 
L 19.867849 24.065994 
L 20.60078 23.600676 
L 21.413743 23.382739 
L 22.884044 22.568432 
L 24.346371 21.49231 
L 25.124433 20.632478 
L 25.641637 20.545304 
L 26.115214 20.765759 
L 26.378178 21.587137 
L 26.370055 22.014873 
L 25.567922 24.799229 
L 25.386946 25.967175 
L 25.267649 26.267443 
L 24.461756 26.811993 
L 23.334829 27.410399 
L 22.923533 28.167074 
L 22.256193 28.610889 
L 20.665769 29.464619 
L 20.069435 30.221294 
L 19.909068 30.509164 
L 19.999331 30.928764 
L 20.205129 30.969833 
L 22.348486 30.363195 
L 24.793696 29.240387 
L 25.42087 28.997751 
L 26.710043 28.749013 
L 27.470956 28.839674 
L 28.334767 29.415414 
L 28.433454 29.818354 
L 28.202984 30.139156 
L 26.993768 30.542097 
L 25.974705 31.426241 
L 24.21534 33.749734 
L 24.020523 33.973675 
L 23.938986 34.241011 
L 23.985622 34.53198 
L 24.183296 34.752822 
L 24.764887 34.822562 
L 26.533129 34.357244 
L 27.137887 34.368867 
L 27.393932 34.53198 
L 27.324129 34.834185 
L 27.149621 35.067038 
L 25.160538 36.241764 
L 25.055833 36.520723 
L 25.206873 36.776822 
L 25.474651 36.893055 
L 26.591198 36.532346 
L 28.05706 36.648579 
L 30.115946 37.637332 
L 30.220651 37.905055 
L 30.057878 38.137521 
L 28.94103 38.265377 
L 28.033592 38.951537 
L 27.835014 39.616776 
L 26.497325 41.117341 
L 26.240378 41.861618 
L 26.240378 41.861618 
" style="fill:none;stroke:#4169e1;stroke-linecap:square;stroke-width:0.488157;"/>
   </g>
   <g id="line2d_37">
    <path clip-path="url(#pb36d1c8e96)" d="M 40.263251 10.38501 
L 40.524599 10.667117 
L 40.785946 10.949224 
L 41.047293 11.23133 
L 41.308641 11.513437 
L 41.569988 11.795543 
L 41.831336 12.07765 
L 42.092683 12.359757 
L 42.35403 12.641863 
L 42.560506 12.961745 
L 42.766981 13.281628 
L 42.973456 13.60151 
L 43.179932 13.921392 
L 43.386407 14.241274 
L 43.592882 14.561157 
L 43.799358 14.881039 
L 44.005833 15.200921 
L 44.229759 15.497557 
L 44.453685 15.794193 
L 44.677611 16.090828 
L 44.901538 16.387464 
L 45.125464 16.6841 
L 45.34939 16.980735 
L 45.573316 17.277371 
L 45.797242 17.574007 
L 46.037171 17.975301 
L 46.2771 18.376594 
L 46.517029 18.777888 
L 46.756957 19.179181 
L 46.996886 19.580475 
L 47.236815 19.981769 
L 47.476744 20.383062 
L 47.716673 20.784356 
L 47.956602 21.18565 
L 48.196531 21.586943 
L 48.43646 21.988237 
L 48.676388 22.38953 
L 48.916317 22.790824 
L 49.156246 23.192118 
L 49.396175 23.593411 
L 49.636104 23.994705 
L 49.894518 24.338512 
L 50.152932 24.682319 
L 50.411346 25.026125 
L 50.66976 25.369932 
L 50.928173 25.713739 
L 51.186587 26.057546 
L 51.445001 26.401353 
L 51.703415 26.74516 
" style="fill:none;stroke:#ff0000;stroke-dasharray:1.806182,0.781051;stroke-dashoffset:0;stroke-width:0.488157;"/>
   </g>
   <g id="line2d_38">
    <path clip-path="url(#pb36d1c8e96)" d="M 98.22739 3.966249 
L 97.676639 4.841095 
L 97.244808 5.760399 
L 96.446963 7.695384 
L 95.165236 10.549286 
L 92.826612 15.644543 
L 91.622586 17.87195 
L 90.994359 18.84908 
L 90.866337 19.48313 
L 90.69198 20.361269 
L 90.447669 21.803717 
L 89.009187 23.71749 
L 88.768788 23.886608 
L 88.338236 24.817052 
L 87.977637 26.108204 
L 87.302926 28.399539 
L 85.22042 32.964581 
L 83.696941 35.669124 
L 82.792511 37.291637 
L 82.583102 37.928398 
L 81.765926 41.391651 
L 80.032586 44.153922 
L 79.823177 44.718039 
L 79.735923 45.456698 
L 79.625502 46.206787 
L 79.003143 47.748033 
L 78.607643 48.797615 
L 77.42701 51.004488 
L 75.670503 54.208638 
L 75.123813 55.964915 
L 74.181473 58.313979 
L 74.088503 58.96527 
L 72.8322 61.183863 
L 70.729536 65.752973 
L 70.162387 67.129653 
L 70.040232 67.594778 
L 69.162881 68.316971 
L 69.162881 68.316971 
" style="fill:none;stroke:#ff0000;stroke-dasharray:1.806182,0.781051;stroke-dashoffset:0;stroke-width:0.488157;"/>
   </g>
   <g id="line2d_39">
    <path clip-path="url(#pb36d1c8e96)" d="M 98.22739 3.966249 
L 97.14048 3.478459 
L 96.585215 3.272727 
L 95.968422 3.289387 
L 94.849769 4.226998 
L 94.787939 4.745203 
L 94.870229 5.579948 
L 94.95658 6.10222 
L 94.430199 6.978228 
L 94.167084 7.286632 
L 93.273486 7.545008 
L 91.049419 7.796894 
L 88.709365 9.022375 
L 87.450806 9.696719 
L 86.679626 9.91882 
L 83.63528 10.079367 
L 77.864181 10.095784 
L 77.56812 10.190514 
L 75.06755 11.600611 
L 73.985754 12.054113 
L 73.331427 12.135573 
L 71.915133 12.304401 
L 70.280631 12.903387 
L 69.047646 12.822024 
L 67.445262 11.987279 
L 64.65634 11.085991 
L 63.626784 10.728284 
L 62.114587 10.89101 
L 61.294553 11.46675 
L 60.392981 11.86814 
L 59.078459 12.088983 
L 58.566671 12.391575 
L 58.287459 12.903387 
L 58.043149 14.380705 
L 57.499317 15.078586 
L 56.426247 16.136982 
L 55.905659 17.323622 
L 55.466607 18.829902 
L 55.097283 19.48129 
L 54.262656 20.871143 
L 54.018346 21.790157 
L 54.117334 23.35465 
L 54.064982 23.651431 
L 51.784952 26.477824 
L 51.697623 27.143547 
L 51.77036 29.621243 
L 51.937044 31.383234 
L 51.90109 32.863265 
L 51.784952 33.130988 
L 51.814099 34.283726 
L 52.304412 37.466858 
L 52.642445 39.985234 
L 53.201772 41.152986 
L 54.513661 42.760679 
L 54.994986 43.636493 
L 55.077125 44.047957 
L 54.929094 44.88677 
L 54.378042 46.029919 
L 54.040912 46.811197 
L 53.536044 49.238525 
L 52.553086 50.738896 
L 52.070482 51.111035 
L 49.988128 52.099788 
L 49.181783 52.258252 
L 49.181783 52.258252 
" style="fill:none;stroke:#000000;stroke-linecap:square;stroke-width:0.488157;"/>
   </g>
   <g id="line2d_40">
    <path clip-path="url(#pb36d1c8e96)" d="M 73.712409 12.112229 
L 73.441998 12.452791 
L 73.171587 12.793353 
L 72.901175 13.133915 
L 72.630764 13.474477 
L 72.334139 13.704231 
L 72.037514 13.933984 
L 71.740889 14.163738 
L 71.444264 14.393491 
L 71.147639 14.623244 
L 70.851014 14.852998 
L 70.554389 15.082751 
L 70.257764 15.312505 
L 69.998937 15.588751 
L 69.740109 15.864998 
L 69.481282 16.141244 
L 69.222454 16.417491 
L 68.963627 16.693737 
L 68.704799 16.969984 
L 68.445971 17.246231 
L 68.187144 17.522477 
L 68.030125 17.763854 
L 67.873106 18.00523 
L 67.716087 18.246607 
L 67.559068 18.487984 
L 67.402049 18.729361 
L 67.245029 18.970737 
L 67.08801 19.212114 
L 66.930991 19.453491 
L 66.724516 19.659949 
L 66.518041 19.866408 
L 66.311565 20.072866 
L 66.10509 20.279325 
L 65.898615 20.485783 
L 65.692139 20.692241 
L 65.485664 20.8987 
L 65.279188 21.105158 
L 65.08723 21.326194 
L 64.895272 21.54723 
L 64.703314 21.768266 
L 64.511356 21.989302 
L 64.272837 22.355629 
L 64.034319 22.721956 
L 63.7958 23.088283 
L 63.557282 23.45461 
L 63.35374 23.669834 
L 63.150198 23.885059 
L 62.946656 24.100283 
L 62.743114 24.315507 
L 62.443594 24.516154 
L 62.144073 24.716801 
L 61.844552 24.917448 
L 61.545031 25.118095 
L 61.24551 25.318741 
L 60.945989 25.519388 
L 60.646468 25.720035 
L 60.346947 25.920682 
L 60.091053 26.025291 
L 59.835159 26.129901 
L 59.56535 26.1577 
L 59.29554 26.185499 
L 59.025731 26.213298 
L 58.755921 26.241097 
" style="fill:none;stroke:#ff0000;stroke-dasharray:1.806182,0.781051;stroke-dashoffset:0;stroke-width:0.488157;"/>
   </g>
   <g id="line2d_41">
    <path clip-path="url(#pb36d1c8e96)" d="M 89.486675 8.545433 
L 89.4092 8.977238 
L 89.331725 9.409042 
L 89.331499 9.747909 
L 89.331273 10.086776 
L 89.331048 10.425643 
L 89.330822 10.76451 
L 89.330596 11.103377 
L 89.330371 11.442244 
L 89.330145 11.781111 
L 89.329919 12.119978 
L 89.231157 12.531151 
L 89.132395 12.942325 
L 89.033633 13.353498 
L 88.934871 13.764672 
L 88.813543 14.007308 
L 88.692215 14.249943 
L 88.570887 14.492579 
L 88.44956 14.735215 
L 88.328232 14.977851 
L 88.206904 15.220487 
L 88.085576 15.463123 
L 87.964249 15.705759 
L 87.822386 15.934011 
L 87.680524 16.162263 
L 87.538661 16.390515 
L 87.396799 16.618767 
L 87.254936 16.847019 
L 87.113074 17.075271 
L 86.971211 17.303524 
L 86.829349 17.531776 
L 86.699784 17.801145 
L 86.57022 18.070515 
L 86.440656 18.339884 
L 86.311092 18.609253 
L 86.181528 18.878623 
L 86.051963 19.147992 
L 85.922399 19.417362 
L 85.792835 19.686731 
L 85.644804 20.106331 
L 85.496774 20.525932 
L 85.422759 20.900104 
L 85.348744 21.274277 
L 85.274728 21.64845 
L 85.200713 22.022622 
L 85.167767 22.483292 
L 85.134822 22.943961 
L 85.101876 23.40463 
L 85.06893 23.865299 
L 84.941434 24.272404 
L 84.813939 24.67951 
L 84.686443 25.086615 
L 84.558947 25.49372 
L 84.386245 25.872058 
L 84.213543 26.250396 
L 84.040841 26.513566 
L 83.868138 26.776736 
L 83.695436 27.039907 
L 83.522734 27.303077 
L 83.222461 27.595015 
L 82.922188 27.886953 
L 82.621915 28.178891 
L 82.321642 28.470829 
L 82.094857 28.826598 
L 81.868073 29.182367 
L 81.641289 29.538136 
L 81.414504 29.893905 
" style="fill:none;stroke:#000000;stroke-dasharray:1.806182,0.781051;stroke-dashoffset:0;stroke-width:0.488157;"/>
   </g>
   <g id="line2d_42">
    <path clip-path="url(#pb36d1c8e96)" d="M 47.703886 30.647481 
L 47.887119 30.852487 
L 48.070351 31.057492 
L 48.253584 31.262498 
L 48.436817 31.467503 
L 48.62005 31.672509 
L 48.803282 31.877514 
L 48.986515 32.08252 
L 49.169748 32.287525 
L 49.466411 32.671287 
L 49.763073 33.055049 
L 49.821142 33.357642 
L 49.786241 33.665852 
L 49.751339 33.974063 
L 49.623317 34.416135 
L 49.495295 34.858207 
L 49.315071 35.259404 
L 49.134847 35.6606 
L 49.123112 35.95157 
L 49.169748 36.242152 
L 49.29762 36.503869 
L 49.425492 36.765586 
L 49.565098 37.184218 
L 49.704703 37.60285 
L 49.86176 37.870379 
L 50.018817 38.137908 
L 50.076886 38.417254 
L 50.0304 38.731276 
L 49.983915 39.045298 
L 49.844309 39.397096 
L 49.704703 39.748894 
L 49.565098 40.100692 
L 49.425492 40.45249 
L 49.320787 40.906185 
L 49.216083 41.35988 
L 49.227817 41.662086 
L 49.320938 41.964484 
L 49.414058 42.266883 
L 49.460544 42.581099 
L 49.507029 42.895315 
L 49.464681 43.156355 
L 49.422332 43.417394 
L 49.379984 43.678433 
L 49.337636 43.939473 
L 49.166965 44.262261 
L 48.996294 44.585049 
L 48.825622 44.907837 
L 48.654951 45.230625 
L 48.48428 45.553413 
L 48.313609 45.876201 
L 48.142937 46.198989 
L 47.972266 46.521778 
L 47.824236 46.932854 
L 47.774892 47.245423 
L 47.725549 47.557993 
L 47.676205 47.870562 
L 47.626862 48.183131 
L 47.659657 48.610868 
L 47.807688 48.989012 
L 48.038007 49.363184 
L 48.268327 49.737357 
L 48.498647 50.11153 
L 48.728966 50.485702 
L 48.836003 50.74587 
L 48.943039 51.006038 
L 49.050075 51.266205 
L 49.157111 51.526373 
L 49.169447 51.892312 
L 49.181783 52.258252 
L 49.076176 52.513577 
L 48.970569 52.768901 
L 48.864962 53.024226 
L 48.759355 53.279551 
" style="fill:none;stroke:#4169e1;stroke-linecap:square;stroke-width:0.488157;"/>
   </g>
   <g id="line2d_43">
    <path clip-path="url(#pb36d1c8e96)" d="M 4.99711 17.995932 
L 4.833885 18.819054 
L 4.792816 19.230324 
L 5.076541 20.394201 
L 6.248599 23.573167 
L 6.876675 25.982673 
L 6.899842 26.715714 
L 7.392224 27.811208 
L 7.640295 28.662613 
L 7.570492 29.279034 
L 7.081872 30.663366 
L 7.105039 31.558746 
L 7.337615 32.093804 
L 8.517195 33.751477 
L 9.395223 35.340766 
L 9.890839 36.037776 
L 10.626929 36.761518 
L 11.387691 37.316724 
L 12.486938 38.064149 
L 14.410731 39.323482 
L 15.75143 40.094493 
L 16.401169 40.635363 
L 17.884181 41.916926 
L 24.196535 46.994264 
L 25.304657 48.283673 
L 26.113183 49.305649 
L 27.167373 50.755217 
L 30.530552 53.728984 
L 30.530552 53.728984 
" style="fill:none;stroke:#000000;stroke-linecap:square;stroke-width:0.488157;"/>
   </g>
   <g id="line2d_44">
    <path clip-path="url(#pb36d1c8e96)" d="M 13.69841 16.890946 
L 13.571742 17.349871 
L 13.445073 17.808797 
L 13.445073 18.302399 
L 13.47817 18.746408 
L 13.560309 19.157872 
L 13.683667 19.601881 
L 13.807026 20.04589 
L 13.971604 20.457354 
L 14.185376 20.827362 
L 14.399148 21.19737 
L 14.662413 21.592174 
L 14.90913 21.9215 
L 15.135388 22.151738 
L 15.361646 22.381975 
L 15.587904 22.612213 
L 15.814162 22.842451 
L 16.045309 23.264666 
L 16.276456 23.686882 
L 16.507603 24.109097 
L 16.73875 24.531313 
L 17.041129 24.804654 
L 17.343509 25.077994 
L 17.689515 25.343005 
L 17.960904 25.655477 
L 18.232293 25.96795 
L 18.409132 26.313355 
L 18.585971 26.65876 
L 18.762811 27.004165 
L 18.93965 27.34957 
L 19.211189 27.711441 
L 19.482729 28.073313 
L 19.626622 28.488748 
L 19.770516 28.904183 
L 19.914409 29.319619 
L 20.058302 29.735054 
L 20.229801 29.933424 
L 20.420255 30.310794 
L 20.732864 30.573867 
L 21.152434 30.664335 
L 21.572004 30.754803 
L 21.917408 31.017876 
L 22.180673 31.346815 
L 22.365711 31.795086 
L 22.550749 32.243357 
L 22.735788 32.691628 
L 22.920826 33.139899 
L 23.056595 33.579937 
L 23.192365 34.019975 
L 23.328135 34.460013 
L 23.463905 34.900051 
L 23.574927 35.381157 
L 23.68595 35.862264 
L 23.796973 36.343371 
L 23.907996 36.824478 
L 24.019019 37.305585 
L 24.130042 37.786691 
L 24.241064 38.267798 
L 24.352087 38.748905 
L 24.323504 39.148746 
L 24.294921 39.548586 
" style="fill:none;stroke:#ff0000;stroke-dasharray:1.806182,0.781051;stroke-dashoffset:0;stroke-width:0.488157;"/>
   </g>
  </g>
 </g>
 <defs>
  <clipPath id="pb36d1c8e96">
   <rect height="72" width="105.441947" x="0" y="0"/>
  </clipPath>
 </defs>
</svg>
