<?xml version="1.0" encoding="utf-8" standalone="no"?>
<!DOCTYPE svg PUBLIC "-//W3C//DTD SVG 1.1//EN"
  "http://www.w3.org/Graphics/SVG/1.1/DTD/svg11.dtd">
<svg height="72pt" version="1.1" viewBox="0 0 89.905323 72" width="89.905323pt" xmlns="http://www.w3.org/2000/svg" xmlns:xlink="http://www.w3.org/1999/xlink">
 <metadata>
  <rdf:RDF xmlns:cc="http://creativecommons.org/ns#" xmlns:dc="http://purl.org/dc/elements/1.1/" xmlns:rdf="http://www.w3.org/1999/02/22-rdf-syntax-ns#">
   <cc:Work>
    <dc:type rdf:resource="http://purl.org/dc/dcmitype/StillImage"/>
    <dc:date>2022-05-22T18:17:40.961965</dc:date>
    <dc:format>image/svg+xml</dc:format>
    <dc:creator>
     <cc:Agent>
      <dc:title>Matplotlib v3.4.3, https://matplotlib.org/</dc:title>
     </cc:Agent>
    </dc:creator>
   </cc:Work>
  </rdf:RDF>
 </metadata>
 <defs>
  <style type="text/css">*{stroke-linecap:butt;stroke-linejoin:round;}</style>
 </defs>
 <g id="figure_1">
  <g id="patch_1">
   <path d="M 0 72 
L 89.905323 72 
L 89.905323 0 
L 0 0 
z
" style="fill:#ffffff;"/>
  </g>
  <g id="axes_1">
   <g id="line2d_1">
    <path clip-path="url(#p61dca3fda3)" d="M 7.431971 39.004796 
L 8.118059 38.715115 
L 8.804147 38.425433 
L 9.490235 38.135752 
L 10.176323 37.84607 
" style="fill:none;stroke:#808080;stroke-linecap:square;stroke-width:0.416228;"/>
   </g>
   <g id="line2d_2">
    <path clip-path="url(#p61dca3fda3)" d="M 5.077605 40.15257 
L 5.933396 40.625216 
L 6.789187 41.097861 
L 7.656163 41.576264 
L 8.523139 42.054667 
L 9.588375 42.642736 
L 10.627281 43.215921 
L 11.543747 43.721705 
L 12.460214 44.227489 
L 13.069344 44.563649 
L 13.736081 44.931543 
L 14.402818 45.299437 
L 15.047186 45.655115 
L 15.691553 46.010793 
L 16.505673 46.459989 
L 17.319793 46.909185 
L 18.01761 47.293929 
L 18.715428 47.678673 
" style="fill:none;stroke:#808080;stroke-linecap:square;stroke-width:0.416228;"/>
   </g>
   <g id="line2d_3">
    <path clip-path="url(#p61dca3fda3)" d="M 6.200645 38.119885 
L 6.69278 38.030579 
L 7.854225 37.820233 
L 8.832059 37.643167 
L 9.809894 37.4661 
L 11.011328 37.248593 
L 12.212761 37.031087 
L 13.436762 36.809367 
L 14.660763 36.587648 
L 15.345317 36.463799 
L 16.05808 36.334756 
L 16.770844 36.205712 
L 17.595951 36.056307 
L 18.421058 35.906903 
L 19.521431 35.707651 
L 20.621805 35.508398 
L 21.836996 35.288364 
L 23.052188 35.068329 
L 24.127718 34.87357 
L 25.203247 34.678811 
L 26.076855 34.52063 
L 26.950462 34.36245 
L 27.82407 34.204269 
L 28.697678 34.046089 
L 29.431722 33.913184 
L 30.165766 33.780278 
L 30.899811 33.647373 
L 31.633855 33.514468 
L 32.297623 33.39427 
L 32.96139 33.274073 
L 33.625158 33.153875 
L 34.288926 33.033678 
L 35.169264 32.874164 
L 36.049603 32.714649 
L 37.158588 32.513852 
L 38.267573 32.313055 
L 39.465047 32.09625 
L 40.662521 31.879445 
L 41.837625 31.666572 
L 42.726971 31.505654 
L 43.616317 31.344735 
" style="fill:none;stroke:#808080;stroke-linecap:square;stroke-width:0.416228;"/>
   </g>
   <g id="line2d_4">
    <path clip-path="url(#p61dca3fda3)" d="M 13.18634 36.196725 
L 13.715691 35.978516 
L 14.33947 35.721833 
L 14.998586 35.450686 
L 15.657701 35.17954 
L 16.63222 34.778648 
L 17.60674 34.377755 
L 18.581259 33.976863 
L 19.555778 33.575971 
L 20.303135 33.268597 
L 21.050492 32.961223 
L 21.797849 32.653848 
L 22.545207 32.346474 
L 23.409114 31.991077 
L 24.273022 31.63568 
L 24.861465 31.3936 
L 25.449908 31.15152 
L 26.038351 30.90944 
L 26.626794 30.66736 
L 27.530294 30.295815 
L 28.221578 30.011329 
L 28.912863 29.726843 
L 29.699763 29.403181 
L 30.486663 29.079518 
L 31.108859 28.823537 
L 31.731054 28.567555 
L 32.522904 28.242067 
L 33.314753 27.916579 
" style="fill:none;stroke:#808080;stroke-linecap:square;stroke-width:0.416228;"/>
   </g>
   <g id="line2d_5">
    <path clip-path="url(#p61dca3fda3)" d="M 34.876082 30.306487 
L 35.279925 29.362881 
L 35.51649 28.810478 
L 35.719204 28.337551 
L 36.079 27.497854 
L 36.438797 26.658157 
L 36.7008 26.046357 
L 36.962803 25.434558 
L 37.213423 24.849859 
L 37.561243 24.037964 
L 37.909063 23.22607 
L 38.270146 22.383002 
L 38.657162 21.479555 
L 39.149297 20.330378 
L 39.499294 19.513709 
L 39.761 18.902611 
L 40.051906 18.223552 
L 40.342812 17.544492 
L 40.633717 16.865433 
L 40.924623 16.186373 
L 41.3835 15.114987 
L 41.652431 14.487461 
L 41.921363 13.859934 
L 42.225433 13.149702 
L 42.351139 12.856229 
L 42.530691 12.437223 
L 42.995507 11.352076 
L 43.460322 10.266928 
L 43.58682 9.97149 
L 43.692334 9.725478 
L 43.961761 9.100058 
" style="fill:none;stroke:#808080;stroke-linecap:square;stroke-width:0.416228;"/>
   </g>
   <g id="line2d_6">
    <path clip-path="url(#p61dca3fda3)" d="M 43.992247 68.351796 
L 43.426273 67.264402 
L 42.874255 66.203126 
L 42.322237 65.141849 
L 42.020839 64.562346 
L 41.719442 63.982843 
L 41.418044 63.403339 
L 41.116646 62.823836 
L 40.806835 62.228184 
L 40.497024 61.632533 
L 40.187213 61.036881 
L 39.877402 60.44123 
L 39.509489 59.733946 
L 39.141576 59.026663 
L 38.98578 58.727011 
L 38.661369 58.103276 
L 38.336958 57.479541 
L 38.012548 56.855806 
L 37.688137 56.232071 
L 37.10197 55.123896 
L 36.759248 54.463652 
L 36.416526 53.803408 
L 36.073804 53.143165 
L 35.731081 52.482921 
L 35.299424 51.651228 
L 34.867768 50.819534 
L 34.489857 50.091539 
L 34.111947 49.363544 
L 33.734037 48.635549 
L 33.356127 47.907554 
L 32.842019 46.917188 
L 32.327911 45.926823 
L 32.233285 45.744561 
L 31.901896 45.103133 
" style="fill:none;stroke:#808080;stroke-linecap:square;stroke-width:0.416228;"/>
   </g>
   <g id="line2d_7">
    <path clip-path="url(#p61dca3fda3)" d="M 56.607792 43.962942 
L 56.936212 43.490297 
L 57.399641 42.826964 
L 57.812442 42.236157 
L 58.225243 41.64535 
L 58.638044 41.054542 
L 59.050845 40.463735 
L 59.413661 39.944401 
L 59.776476 39.425066 
L 60.139292 38.905732 
L 60.502107 38.386397 
L 60.884224 37.839471 
L 61.266341 37.292544 
L 61.648457 36.745618 
L 62.030574 36.198691 
L 62.464804 35.577203 
L 62.899035 34.955714 
L 63.459961 34.152666 
L 64.020887 33.349618 
L 64.397016 32.811256 
L 64.773144 32.272895 
L 65.203267 31.657234 
L 65.633389 31.041573 
L 66.063512 30.425912 
L 66.493635 29.810251 
L 67.074258 28.97912 
L 67.654882 28.147988 
L 67.878975 27.827274 
L 68.304446 27.218212 
L 68.729916 26.609151 
L 69.155387 26.00009 
L 69.580857 25.391028 
L 70.06542 24.697365 
L 70.549982 24.003702 
L 71.034544 23.310039 
L 71.519106 22.616376 
L 72.10557 21.776819 
L 72.692033 20.937263 
L 72.833576 20.73478 
L 73.246724 20.143341 
" style="fill:none;stroke:#808080;stroke-linecap:square;stroke-width:0.416228;"/>
   </g>
   <g id="line2d_8">
    <path clip-path="url(#p61dca3fda3)" d="M 34.876082 30.306487 
L 34.608734 30.230732 
L 34.341386 30.154977 
L 34.074038 30.079221 
L 33.806689 30.003466 
L 33.534194 30.090946 
L 33.261699 30.178426 
L 33.104864 30.304381 
L 32.948028 30.430336 
L 32.791192 30.55629 
L 32.634357 30.682245 
L 32.525279 30.980281 
L 32.416202 31.278317 
L 32.307125 31.576354 
L 32.198048 31.87439 
L 31.885366 32.012561 
L 31.572685 32.150732 
L 31.260003 32.288903 
L 30.947322 32.427074 
L 30.77648 32.550641 
L 30.605639 32.674209 
L 30.434797 32.797776 
L 30.263956 32.921344 
L 30.140328 33.161247 
L 30.016701 33.401151 
L 29.893073 33.641054 
L 29.769446 33.880958 
L 29.645818 34.120861 
L 29.522191 34.360765 
L 29.398563 34.600668 
L 29.274936 34.840572 
L 29.056781 35.087777 
L 28.838627 35.334982 
L 28.620472 35.582187 
L 28.402318 35.829393 
L 28.236896 36.029312 
L 28.071473 36.229232 
L 27.906051 36.429151 
L 27.740629 36.629071 
L 27.575207 36.82899 
L 27.409784 37.02891 
L 27.244362 37.22883 
L 27.07894 37.428749 
L 26.918986 37.715903 
L 26.759033 38.003057 
L 26.599079 38.290211 
L 26.439126 38.577365 
L 26.231884 38.802735 
L 26.024642 39.028106 
L 25.8174 39.253476 
L 25.610158 39.478846 
L 25.402917 39.704217 
L 25.195675 39.929587 
L 24.988433 40.154957 
L 24.781191 40.380327 
L 24.535767 40.47876 
L 24.290344 40.577193 
L 24.04492 40.675626 
L 23.799496 40.774058 
" style="fill:none;stroke:#4169e1;stroke-linecap:square;stroke-width:0.416228;"/>
   </g>
   <g id="line2d_9">
    <path clip-path="url(#p61dca3fda3)" d="M 18.715428 47.678673 
L 18.868254 47.542749 
L 19.021081 47.406825 
L 18.937541 47.232285 
L 18.854001 47.057746 
L 18.644903 46.943306 
L 18.435806 46.828866 
L 18.226708 46.714425 
L 18.01761 46.599985 
L 17.789483 46.434573 
L 17.561357 46.269161 
L 17.33323 46.103749 
L 17.105103 45.938337 
L 16.876976 45.772925 
L 16.648849 45.607513 
L 16.420722 45.442101 
L 16.192596 45.276689 
L 16.026901 45.181293 
L 15.861207 45.085897 
L 15.695512 44.990501 
L 15.529818 44.895105 
L 15.364123 44.799708 
L 15.198429 44.704312 
L 15.032734 44.608916 
L 14.86704 44.51352 
L 14.701345 44.418123 
L 14.535651 44.322727 
L 14.369957 44.227331 
L 14.204262 44.131935 
L 14.038568 44.036539 
L 13.872873 43.941142 
L 13.707179 43.845746 
L 13.541484 43.75035 
L 13.376928 43.557557 
L 13.212372 43.364763 
L 13.047816 43.17197 
L 12.883259 42.979176 
L 12.788139 42.806954 
L 12.693018 42.634732 
L 12.597897 42.46251 
L 12.502776 42.290288 
L 12.585029 42.038449 
L 12.667283 41.78661 
L 12.749536 41.534771 
L 12.831789 41.282932 
L 13.109332 41.049277 
L 13.386876 40.815622 
L 13.641505 40.601134 
L 13.896134 40.386646 
L 14.150763 40.172158 
L 14.405392 39.95767 
L 14.619933 39.870471 
L 14.834475 39.783272 
L 15.049017 39.696072 
L 15.263558 39.608873 
L 15.42173 39.456169 
L 15.579902 39.303465 
L 15.738074 39.150761 
L 15.896246 38.998056 
L 16.045312 38.663582 
L 16.194377 38.329107 
L 16.181609 38.138279 
L 16.16884 37.947452 
L 16.156072 37.756624 
L 16.143303 37.565797 
L 15.974243 37.355802 
L 15.805183 37.145808 
L 15.636124 36.935813 
L 15.467064 36.725819 
L 15.181973 36.659682 
L 14.896883 36.593545 
L 14.611792 36.527409 
L 14.326702 36.461272 
L 14.041611 36.395135 
L 13.756521 36.328998 
L 13.47143 36.262862 
L 13.18634 36.196725 
L 12.955961 36.302881 
L 12.725582 36.409036 
L 12.495204 36.515192 
L 12.264825 36.621348 
L 12.034447 36.727504 
L 11.804068 36.833659 
L 11.573689 36.939815 
L 11.343311 37.045971 
L 11.144037 37.12887 
L 10.944763 37.211769 
L 10.745489 37.294668 
L 10.546215 37.377567 
L 10.346941 37.460466 
L 10.147668 37.543365 
L 9.948394 37.626264 
L 9.74912 37.709163 
L 9.549846 37.792062 
L 9.350572 37.874961 
L 9.151298 37.95786 
L 8.952025 38.040759 
L 8.752751 38.123658 
L 8.553477 38.206557 
L 8.354203 38.289456 
L 8.154929 38.372356 
L 7.812801 38.444249 
L 7.470673 38.516143 
L 7.128544 38.588037 
L 6.786416 38.659931 
L 6.601618 38.489604 
L 6.41682 38.319278 
L 6.200645 38.119885 
" style="fill:none;stroke:#008000;stroke-linecap:square;stroke-width:0.416228;"/>
   </g>
   <g id="line2d_10">
    <path clip-path="url(#p61dca3fda3)" d="M 19.201425 48.317573 
L 19.198951 48.552632 
L 19.196476 48.787691 
L 19.374543 48.958931 
L 19.55261 49.13017 
L 19.730677 49.301409 
L 19.908744 49.472648 
L 20.071766 49.586808 
L 20.234788 49.700967 
L 20.39781 49.815127 
L 20.560832 49.929286 
L 20.723854 50.043446 
L 20.886876 50.157606 
L 21.049898 50.271765 
L 21.21292 50.385925 
L 21.403409 50.548247 
L 21.593899 50.71057 
L 21.784388 50.872893 
L 21.974877 51.035216 
L 22.14943 51.343081 
L 22.323984 51.650947 
L 22.498537 51.958812 
L 22.67309 52.266678 
L 22.984485 52.372974 
L 23.29588 52.47927 
L 23.620043 52.534314 
L 23.944206 52.589358 
L 24.272626 52.556991 
L 24.601045 52.524625 
L 24.929465 52.492259 
L 25.257884 52.459893 
L 25.520976 52.504826 
L 25.784068 52.54976 
" style="fill:none;stroke:#008000;stroke-linecap:square;stroke-width:0.416228;"/>
   </g>
   <g id="line2d_11">
    <path clip-path="url(#p61dca3fda3)" d="M 23.799496 40.774058 
L 23.468651 40.80495 
L 23.137807 40.835842 
L 22.806962 40.866734 
L 22.476118 40.897626 
L 22.286123 40.775814 
L 22.096129 40.654001 
L 21.906135 40.532189 
L 21.71614 40.410377 
L 21.542082 40.298745 
L 21.368024 40.187113 
L 21.193965 40.075481 
L 21.019907 39.963849 
L 20.856737 39.859238 
L 20.693566 39.754626 
L 20.530396 39.650015 
L 20.367225 39.545404 
L 20.061819 39.402248 
L 19.756412 39.259093 
L 19.451006 39.115937 
L 19.1456 38.972781 
L 18.97164 38.891269 
L 18.797681 38.809756 
L 18.623721 38.728244 
L 18.449762 38.646732 
L 18.161455 38.511615 
L 17.873147 38.376498 
L 17.58484 38.241381 
L 17.296533 38.106264 
L 17.008225 37.971147 
L 16.719918 37.83603 
L 16.43161 37.700914 
L 16.143303 37.565797 
" style="fill:none;stroke:#008000;stroke-linecap:square;stroke-width:0.416228;"/>
   </g>
   <g id="line2d_12">
    <path clip-path="url(#p61dca3fda3)" d="M 18.449366 35.241324 
L 18.332618 35.391395 
L 18.21587 35.541466 
L 18.099121 35.691538 
L 17.982373 35.841609 
L 17.865625 35.99168 
L 17.748876 36.141752 
L 17.632128 36.291823 
L 17.51538 36.441894 
L 17.366265 36.606393 
L 17.21715 36.770893 
L 17.068035 36.935392 
L 16.918919 37.099891 
L 16.725015 37.216368 
L 16.531111 37.332844 
L 16.337207 37.44932 
L 16.143303 37.565797 
" style="fill:none;stroke:#ff0000;stroke-linecap:square;stroke-width:0.416228;"/>
   </g>
   <g id="line2d_13">
    <path clip-path="url(#p61dca3fda3)" d="M 25.663311 34.865285 
L 25.463369 34.988923 
L 25.263427 35.112561 
L 25.063485 35.236198 
L 24.863543 35.359836 
L 24.649002 35.596089 
L 24.43446 35.832341 
L 24.219918 36.068594 
L 24.005377 36.304847 
L 23.830873 36.412091 
L 23.656369 36.519335 
L 23.481865 36.626578 
L 23.307362 36.733822 
L 23.132858 36.841066 
L 22.958354 36.94831 
L 22.78385 37.055554 
L 22.609346 37.162798 
L 22.413017 37.28275 
L 22.216688 37.402702 
L 22.020359 37.522653 
L 21.82403 37.642605 
L 21.627701 37.762557 
L 21.431372 37.882509 
L 21.235043 38.00246 
L 21.038713 38.122412 
L 20.802074 38.228708 
L 20.565435 38.335004 
L 20.328796 38.441301 
L 20.092157 38.547597 
L 19.855517 38.653893 
L 19.618878 38.760189 
L 19.382239 38.866485 
L 19.1456 38.972781 
" style="fill:none;stroke:#000000;stroke-linecap:square;stroke-width:0.416228;"/>
   </g>
   <g id="line2d_14">
    <path clip-path="url(#p61dca3fda3)" d="M 22.636665 35.013285 
L 22.48755 35.203341 
L 22.338435 35.393396 
L 22.18932 35.583451 
L 22.040205 35.773506 
L 21.834522 35.97655 
L 21.628839 36.179594 
L 21.423156 36.382638 
L 21.217473 36.585682 
L 20.96809 36.745056 
L 20.718707 36.90443 
L 20.469324 37.063804 
L 20.219941 37.223178 
L 19.996293 37.318311 
L 19.772645 37.413444 
L 19.548997 37.508577 
L 19.325349 37.60371 
L 19.106453 37.864465 
L 18.887556 38.125221 
L 18.668659 38.385976 
L 18.449762 38.646732 
" style="fill:none;stroke:#000000;stroke-linecap:square;stroke-width:0.416228;"/>
   </g>
   <g id="line2d_15">
    <path clip-path="url(#p61dca3fda3)" d="M 30.947322 32.427074 
L 30.611479 32.323305 
L 30.275635 32.219537 
L 30.090541 32.304349 
L 29.905446 32.389161 
L 29.720351 32.473973 
L 29.535256 32.558786 
L 29.211291 32.733606 
L 28.887326 32.908425 
L 28.56336 33.083245 
L 28.239395 33.258065 
L 28.072315 33.38402 
L 27.905235 33.509975 
L 27.738154 33.635929 
L 27.571074 33.761884 
L 27.436089 33.968789 
L 27.301103 34.175694 
L 27.166118 34.3826 
L 27.031132 34.589505 
L 26.896146 34.79641 
L 26.761161 35.003316 
L 26.626175 35.210221 
L 26.49119 35.417127 
L 26.369072 35.567479 
L 26.246954 35.717831 
L 26.124836 35.868183 
L 26.002718 36.018535 
L 25.8806 36.168887 
L 25.758482 36.319239 
L 25.636364 36.469592 
L 25.514246 36.619944 
L 25.402422 36.784443 
L 25.290598 36.948942 
L 25.178774 37.113441 
L 25.06695 37.277941 
L 24.955126 37.44244 
L 24.843302 37.606939 
L 24.731478 37.771438 
L 24.619654 37.935938 
L 24.474399 38.094013 
L 24.329144 38.252088 
L 24.183889 38.410163 
L 24.038634 38.568238 
L 23.89338 38.726313 
L 23.748125 38.884388 
L 23.60287 39.042463 
L 23.457615 39.200539 
L 23.239931 39.351768 
L 23.022246 39.502998 
L 22.804562 39.654228 
L 22.586878 39.805458 
L 22.369193 39.956687 
L 22.151509 40.107917 
L 21.933825 40.259147 
L 21.71614 40.410377 
" style="fill:none;stroke:#4169e1;stroke-linecap:square;stroke-width:0.416228;"/>
   </g>
   <g id="line2d_16">
    <path clip-path="url(#p61dca3fda3)" d="M 49.413643 35.839503 
L 49.275565 36.164008 
L 49.137486 36.488513 
L 49.173465 36.750673 
L 49.209445 37.012832 
L 49.245425 37.274992 
L 49.281404 37.537152 
L 49.397089 37.691365 
L 49.512773 37.845579 
L 49.628457 37.999792 
L 49.744141 38.154006 
L 49.859826 38.30822 
L 49.97551 38.462433 
L 50.091194 38.616647 
L 50.206878 38.770861 
L 50.346986 38.964918 
L 50.487094 39.158975 
L 50.627202 39.353032 
L 50.76731 39.547089 
L 50.907418 39.741146 
L 51.047525 39.935204 
L 51.187633 40.129261 
L 51.327741 40.323318 
L 51.540402 40.545634 
L 51.753063 40.76795 
L 51.965724 40.990266 
L 52.178385 41.212583 
L 52.391046 41.434899 
L 52.603707 41.657215 
L 52.816368 41.879531 
L 53.029029 42.101847 
L 53.189923 42.259045 
L 53.350817 42.416242 
L 53.511711 42.57344 
L 53.672605 42.730637 
L 53.833499 42.887835 
L 53.994393 43.045032 
L 54.155286 43.20223 
L 54.31618 43.359427 
L 54.469799 43.646722 
L 54.623418 43.934016 
" style="fill:none;stroke:#000000;stroke-dasharray:1.540045,0.665965;stroke-dashoffset:0;stroke-width:0.416228;"/>
   </g>
   <g id="line2d_17">
    <path clip-path="url(#p61dca3fda3)" d="M 35.315756 32.296205 
L 35.208114 32.545025 
L 35.100472 32.793845 
L 34.99283 33.042665 
L 34.885188 33.291485 
L 34.777546 33.540305 
L 34.669904 33.789125 
L 34.562262 34.037945 
L 34.45462 34.286765 
L 34.390332 34.613165 
L 34.326044 34.939566 
L 34.261755 35.265967 
L 34.197467 35.592368 
L 34.084332 35.952258 
L 33.971196 36.312148 
L 33.827228 36.582031 
L 33.68326 36.851914 
L 33.539292 37.121796 
L 33.395324 37.391679 
L 33.24366 37.520196 
L 33.091996 37.648713 
L 32.940332 37.777231 
L 32.788668 37.905748 
L 32.637004 38.034265 
L 32.48534 38.162782 
L 32.333677 38.291299 
L 32.182013 38.419817 
L 31.857948 38.46145 
L 31.533884 38.503084 
L 31.20982 38.544718 
L 30.885755 38.586352 
" style="fill:none;stroke:#4169e1;stroke-linecap:square;stroke-width:0.416228;"/>
   </g>
   <g id="line2d_18">
    <path clip-path="url(#p61dca3fda3)" d="M 23.852946 46.752759 
L 23.700317 47.019553 
L 23.547688 47.286346 
L 23.516806 47.528075 
L 23.485924 47.769804 
L 23.455042 48.011533 
L 23.424159 48.253262 
L 23.469592 48.445915 
L 23.515024 48.638568 
L 23.560456 48.831221 
L 23.605889 49.023874 
L 23.651321 49.216527 
L 23.696754 49.40918 
L 23.742186 49.601833 
L 23.787618 49.794486 
L 23.892142 49.9844 
L 23.996666 50.174315 
L 24.101191 50.36423 
L 24.205715 50.554145 
L 24.310239 50.74406 
L 24.414763 50.933974 
L 24.519287 51.123889 
L 24.623811 51.313804 
L 24.851072 51.495504 
L 25.078333 51.677205 
L 25.305593 51.858905 
L 25.532854 52.040606 
L 25.658461 52.295183 
L 25.784068 52.54976 
L 26.101996 52.68779 
L 26.419923 52.825821 
L 26.567207 53.034762 
L 26.714491 53.243704 
L 26.861775 53.452645 
L 27.009059 53.661587 
L 27.03905 53.912372 
L 27.069042 54.163158 
L 27.099033 54.413944 
L 27.129024 54.66473 
L 27.159016 54.915516 
L 27.189007 55.166302 
L 27.218998 55.417087 
L 27.248989 55.667873 
L 27.27809 55.911498 
L 27.30719 56.155122 
L 27.481694 56.391375 
L 27.656198 56.627628 
L 27.830702 56.86388 
L 28.005206 57.100133 
L 28.151549 57.260034 
L 28.297893 57.419934 
L 28.444237 57.579835 
L 28.59058 57.739735 
L 28.736924 57.899636 
L 28.883267 58.059536 
L 29.029611 58.219437 
L 29.175955 58.379337 
L 29.452261 58.563776 
L 29.728567 58.748214 
L 30.004873 58.932653 
L 30.281178 59.117092 
L 30.557484 59.30153 
L 30.83379 59.485969 
L 31.110096 59.670407 
L 31.386402 59.854846 
L 31.669092 60.058381 
L 31.951782 60.261916 
L 32.234473 60.465452 
L 32.517163 60.668987 
L 32.799853 60.872522 
L 33.082543 61.076058 
L 33.365233 61.279593 
L 33.647924 61.483128 
L 33.904235 61.670305 
L 34.160547 61.857482 
L 34.416859 62.044658 
L 34.673171 62.231835 
L 34.964076 62.333638 
L 35.254982 62.43544 
L 35.593102 62.480585 
L 35.931221 62.525729 
L 36.269341 62.570873 
L 36.60746 62.616018 
" style="fill:none;stroke:#4169e1;stroke-linecap:square;stroke-width:0.416228;"/>
   </g>
   <g id="line2d_19">
    <path clip-path="url(#p61dca3fda3)" d="M 31.901896 45.103133 
L 31.939707 45.404891 
L 31.977518 45.706648 
L 32.144746 46.0301 
L 32.311975 46.353552 
L 32.479204 46.677004 
L 32.646432 47.000456 
L 32.736604 47.167974 
L 32.826776 47.335492 
L 32.916948 47.503011 
L 33.00712 47.670529 
L 33.166182 47.965967 
L 33.325245 48.261406 
L 33.484308 48.556845 
L 33.643371 48.852283 
L 33.802433 49.147722 
L 33.961496 49.443161 
L 34.120559 49.738599 
L 34.279621 50.034038 
" style="fill:none;stroke:#000000;stroke-linecap:square;stroke-width:0.416228;"/>
   </g>
   <g id="line2d_20">
    <path clip-path="url(#p61dca3fda3)" d="M 25.353104 45.01467 
L 25.409919 44.779962 
L 25.466735 44.545254 
L 25.52355 44.310546 
L 25.580365 44.075838 
L 25.47495 43.865071 
L 25.369535 43.654304 
L 25.26412 43.443537 
L 25.158705 43.232771 
L 25.081599 43.042575 
L 25.004493 42.852379 
L 24.927386 42.662184 
L 24.85028 42.471988 
L 24.634303 42.346033 
L 24.418326 42.220079 
L 24.202349 42.094124 
L 23.986372 41.96817 
L 23.739563 41.857661 
L 23.492753 41.747152 
L 23.245944 41.636644 
L 22.999134 41.526135 
L 22.86838 41.369008 
L 22.737626 41.21188 
L 22.606872 41.054753 
L 22.476118 40.897626 
" style="fill:none;stroke:#000000;stroke-linecap:square;stroke-width:0.416228;"/>
   </g>
   <g id="line2d_21">
    <path clip-path="url(#p61dca3fda3)" d="M 35.565783 31.099566 
L 35.393457 31.26919 
L 35.22113 31.438815 
L 35.048804 31.608439 
L 34.876478 31.778064 
L 34.704152 31.947688 
L 34.531825 32.117313 
L 34.359499 32.286937 
L 34.187173 32.456562 
L 34.007225 32.549097 
L 33.827278 32.641632 
L 33.64733 32.734167 
L 33.467382 32.826702 
L 33.287434 33.065763 
L 33.107487 33.304824 
L 32.927539 33.543885 
L 32.747591 33.782946 
L 32.548342 34.033557 
L 32.349093 34.284167 
L 32.149844 34.534777 
L 31.950595 34.785388 
L 31.751346 35.035998 
L 31.552097 35.286608 
L 31.352847 35.537219 
L 31.153598 35.787829 
L 31.004483 35.948467 
L 30.855368 36.109104 
L 30.706253 36.269742 
L 30.557138 36.43038 
L 30.408023 36.591018 
L 30.258908 36.751655 
L 30.109793 36.912293 
L 29.960677 37.072931 
L 29.853976 37.265724 
L 29.747274 37.458518 
L 29.640572 37.651311 
L 29.533871 37.844104 
L 29.427169 38.036898 
L 29.320467 38.229691 
L 29.213766 38.422485 
L 29.107064 38.615278 
L 29.039113 38.818884 
L 28.971163 39.022489 
L 28.903212 39.226095 
L 28.835262 39.4297 
L 28.67808 39.66504 
L 28.520897 39.90038 
L 28.353817 40.018612 
L 28.186737 40.136843 
L 28.019657 40.255075 
L 27.852577 40.373306 
L 27.613042 40.469668 
L 27.373508 40.56603 
L 27.133973 40.662391 
L 26.894439 40.758753 
L 26.654905 40.855114 
L 26.41537 40.951476 
L 26.175836 41.047838 
L 25.936301 41.144199 
" style="fill:none;stroke:#4169e1;stroke-linecap:square;stroke-width:0.416228;"/>
   </g>
   <g id="line2d_22">
    <path clip-path="url(#p61dca3fda3)" d="M 22.609346 37.162798 
L 22.576584 37.434577 
L 22.543821 37.706355 
L 22.511058 37.978133 
L 22.478295 38.249911 
L 22.36516 38.499223 
L 22.252024 38.748534 
L 22.138889 38.997846 
L 22.025754 39.247157 
L 21.774292 39.42633 
L 21.52283 39.605503 
L 21.271369 39.784676 
L 21.019907 39.963849 
" style="fill:none;stroke:#000000;stroke-linecap:square;stroke-width:0.416228;"/>
   </g>
   <g id="line2d_23">
    <path clip-path="url(#p61dca3fda3)" d="M 38.060306 41.28911 
L 38.140283 41.47748 
L 38.22026 41.665851 
L 38.300236 41.854221 
L 38.380213 42.042591 
L 38.46019 42.230961 
L 38.540167 42.419331 
L 38.620143 42.607702 
L 38.70012 42.796072 
L 38.692845 42.992341 
L 38.68557 43.188609 
L 38.678295 43.384878 
L 38.67102 43.581147 
L 38.663745 43.777415 
L 38.65647 43.973684 
L 38.649194 44.169953 
L 38.641919 44.366222 
L 38.561918 44.662468 
L 38.481916 44.958714 
L 38.401915 45.25496 
L 38.321913 45.551206 
L 38.241912 45.847452 
L 38.16191 46.143698 
L 38.081909 46.439944 
L 38.001907 46.73619 
L 37.932818 46.997858 
L 37.863729 47.259526 
L 37.794641 47.521195 
L 37.725552 47.782863 
L 37.717633 48.047129 
L 37.709715 48.311395 
L 37.702786 48.542733 
L 37.695857 48.774071 
L 37.688929 49.005409 
L 37.682 49.236747 
L 37.712907 49.47665 
L 37.743814 49.716554 
L 37.774721 49.956457 
L 37.805627 50.196361 
L 37.836534 50.436264 
L 37.867441 50.676168 
L 37.898348 50.916071 
L 37.929255 51.155975 
L 38.036501 51.319526 
L 38.143747 51.483078 
L 38.250993 51.646629 
L 38.358239 51.81018 
L 38.465485 51.973732 
L 38.572731 52.137283 
L 38.679978 52.300835 
L 38.787224 52.464386 
L 38.883582 52.664306 
L 38.97994 52.864225 
L 39.076298 53.064145 
L 39.172656 53.264064 
L 39.269014 53.463984 
L 39.365373 53.663903 
L 39.461731 53.863823 
L 39.558089 54.063743 
L 39.578974 54.275914 
L 39.599859 54.488085 
L 39.620744 54.700256 
L 39.641629 54.912427 
L 39.662514 55.124598 
L 39.683399 55.336769 
L 39.704284 55.54894 
L 39.725169 55.761111 
L 39.722596 55.978266 
L 39.720022 56.195422 
L 39.717449 56.412578 
L 39.714875 56.629734 
L 39.712302 56.84689 
L 39.709728 57.064046 
L 39.707155 57.281201 
L 39.704581 57.498357 
L 39.694336 57.837606 
L 39.684092 58.176855 
L 39.673847 58.516104 
L 39.663603 58.855353 
L 39.607035 59.117478 
L 39.550467 59.379602 
L 39.4939 59.641727 
L 39.437332 59.903851 
L 39.380764 60.165976 
L 39.324196 60.428101 
L 39.267629 60.690225 
L 39.211061 60.95235 
L 39.194358 61.150233 
L 39.177655 61.348117 
L 39.160952 61.546 
L 39.144249 61.743884 
L 39.127546 61.941767 
L 39.110843 62.139651 
L 39.094139 62.337534 
L 39.077436 62.535418 
L 39.077981 62.766335 
L 39.078525 62.997251 
L 39.07907 63.228168 
L 39.079614 63.459085 
" style="fill:none;stroke:#ff0000;stroke-linecap:square;stroke-width:0.416228;"/>
   </g>
   <g id="line2d_24">
    <path clip-path="url(#p61dca3fda3)" d="M 34.876082 30.306487 
L 35.048507 30.504757 
L 35.220932 30.703027 
L 35.393358 30.901296 
L 35.565783 31.099566 
L 35.503276 31.398726 
L 35.440769 31.697885 
L 35.378263 31.997045 
L 35.315756 32.296205 
L 35.171046 32.453613 
L 35.026335 32.611021 
L 34.881625 32.768429 
L 34.736914 32.925837 
L 34.592204 33.083245 
L 34.447494 33.240654 
L 34.302783 33.398062 
L 34.158073 33.55547 
L 33.961743 33.846275 
L 33.765414 34.13708 
L 33.569085 34.427884 
L 33.372756 34.718689 
L 33.176427 35.009494 
L 32.980098 35.300299 
L 32.783769 35.591104 
L 32.58744 35.881909 
L 32.471087 36.060029 
L 32.354735 36.238148 
L 32.238382 36.416268 
L 32.12203 36.594388 
L 32.005678 36.772507 
L 31.889325 36.950627 
L 31.772973 37.128747 
L 31.656621 37.306867 
L 31.463904 37.626738 
L 31.271188 37.946609 
L 31.078472 38.266481 
L 30.885755 38.586352 
L 30.616725 38.728104 
L 30.347694 38.869855 
L 30.078663 39.011607 
L 29.809632 39.153358 
L 29.56604 39.222444 
L 29.322447 39.291529 
L 29.078854 39.360615 
L 28.835262 39.4297 
" style="fill:none;stroke:#000000;stroke-linecap:square;stroke-width:0.416228;"/>
   </g>
   <g id="line2d_25">
    <path clip-path="url(#p61dca3fda3)" d="M 33.222503 44.255853 
L 32.858846 44.183117 
L 32.495189 44.110381 
L 32.302473 43.99587 
L 32.109756 43.88136 
L 31.91704 43.766849 
L 31.724324 43.652338 
L 31.554348 43.449716 
L 31.384373 43.247093 
L 31.214398 43.044471 
L 31.044422 42.841848 
L 30.874447 42.639225 
L 30.704471 42.436603 
L 30.534496 42.23398 
L 30.364521 42.031358 
L 30.122759 41.904069 
L 29.880998 41.77678 
L 29.639236 41.649492 
L 29.397475 41.522203 
L 29.181151 41.465896 
L 28.964828 41.409588 
L 28.748505 41.353281 
L 28.532181 41.296973 
L 28.207696 41.277877 
L 27.883211 41.25878 
L 27.558726 41.239683 
L 27.234241 41.220586 
L 26.909756 41.20149 
L 26.585271 41.182393 
L 26.260786 41.163296 
L 25.936301 41.144199 
L 25.669201 41.097932 
L 25.4021 41.051664 
L 25.134999 41.005396 
L 24.867899 40.959129 
L 24.600798 40.912861 
L 24.333697 40.866594 
L 24.066597 40.820326 
L 23.799496 40.774058 
" style="fill:none;stroke:#4169e1;stroke-linecap:square;stroke-width:0.416228;"/>
   </g>
   <g id="line2d_26">
    <path clip-path="url(#p61dca3fda3)" d="M 55.869393 43.717211 
L 54.881561 43.846817 
L 54.623418 43.934016 
L 54.478113 44.231982 
L 54.7514 45.364731 
L 54.749322 46.853017 
L 54.451191 47.449231 
L 53.149489 47.961755 
L 51.393415 48.354363 
L 50.79057 48.557266 
L 49.344554 49.44288 
L 47.89453 49.717818 
L 46.97163 50.19594 
L 45.261977 51.437372 
L 45.210507 51.755839 
L 45.632167 52.30094 
L 45.311765 52.810235 
L 44.535555 53.42386 
L 44.090783 53.78368 
L 43.59464 54.491771 
L 42.959676 56.199494 
L 42.890191 56.816209 
L 43.198814 57.155458 
L 44.64874 57.870113 
L 45.096011 58.544714 
L 45.643649 60.409214 
L 45.66681 61.226445 
L 45.203974 62.336586 
L 44.216736 62.92269 
L 43.422412 64.114975 
L 43.067713 65.603051 
L 43.011839 66.565122 
L 42.999664 67.277882 
L 42.999664 67.277882 
" style="fill:none;stroke:#000000;stroke-linecap:square;stroke-width:0.416228;"/>
   </g>
   <g id="line2d_27">
    <path clip-path="url(#p61dca3fda3)" d="M 18.715428 47.678673 
L 18.41205 47.641884 
L 18.108673 47.605094 
L 17.857805 47.55328 
L 17.606937 47.501466 
L 17.35607 47.449652 
L 17.105202 47.397838 
L 16.854334 47.346024 
L 16.603466 47.29421 
L 16.352599 47.242396 
L 16.101731 47.190581 
L 15.896296 47.124269 
L 15.69086 47.057957 
L 15.485425 46.991645 
L 15.279989 46.925333 
L 15.074554 46.85902 
L 14.869119 46.792708 
L 14.663683 46.726396 
L 14.458248 46.660084 
L 14.144416 46.512329 
L 13.830583 46.364575 
L 13.516751 46.21682 
L 13.202919 46.069066 
L 12.889087 45.921312 
L 12.575255 45.773557 
L 12.261423 45.625803 
L 11.947591 45.478048 
L 11.633758 45.330294 
L 11.319926 45.182539 
L 11.006094 45.034785 
L 10.692262 44.887031 
L 10.37843 44.739276 
L 10.064598 44.591522 
L 9.750765 44.443767 
L 9.436933 44.296013 
L 9.21529 44.205812 
L 8.993646 44.115611 
L 8.772003 44.025411 
L 8.550359 43.93521 
L 8.328715 43.845009 
L 8.107072 43.754808 
L 7.885428 43.664607 
L 7.663785 43.574407 
L 7.442141 43.484206 
L 7.220498 43.394005 
L 6.998854 43.303804 
L 6.777211 43.213604 
L 6.555567 43.123403 
L 6.333923 43.033202 
L 6.11228 42.943001 
L 5.890636 42.852801 
L 5.612351 42.628554 
L 5.334065 42.404307 
L 5.05578 42.18006 
L 4.777494 41.955813 
L 4.604772 41.757684 
L 4.43205 41.559554 
L 4.259328 41.361425 
L 4.086606 41.163296 
L 4.230227 40.9361 
L 4.373849 40.708905 
L 4.517471 40.481709 
L 4.661092 40.254513 
L 4.869349 40.203542 
L 5.077605 40.15257 
" style="fill:none;stroke:#4169e1;stroke-linecap:square;stroke-width:0.416228;"/>
   </g>
   <g id="line2d_28">
    <path clip-path="url(#p61dca3fda3)" d="M 43.470814 31.811483 
L 43.647941 31.908582 
L 43.825068 32.005681 
L 44.002195 32.102779 
L 44.179321 32.199878 
L 44.482699 32.312985 
L 44.786076 32.426091 
L 45.089453 32.539197 
L 45.39283 32.652304 
L 45.595915 32.7487 
L 45.799 32.845097 
L 46.002084 32.941494 
L 46.205169 33.037891 
L 46.408254 33.134287 
L 46.611338 33.230684 
L 46.814423 33.327081 
L 47.017507 33.423477 
L 47.202627 33.568704 
L 47.387746 33.713931 
L 47.572866 33.859158 
L 47.757985 34.004385 
L 47.943105 34.149612 
L 48.128224 34.294839 
L 48.313344 34.440066 
L 48.498463 34.585293 
L 48.612861 34.742069 
L 48.727258 34.898845 
L 48.841656 35.055621 
L 48.956053 35.212398 
L 49.070451 35.369174 
L 49.184848 35.52595 
L 49.299246 35.682726 
L 49.413643 35.839503 
L 49.507477 36.052832 
L 49.601312 36.266162 
L 49.695146 36.479491 
L 49.78898 36.69282 
L 49.882814 36.90615 
L 49.976648 37.119479 
L 50.070482 37.332809 
L 50.164316 37.546138 
L 50.290295 37.691365 
L 50.416273 37.836592 
L 50.542251 37.981819 
L 50.66823 38.127046 
L 50.794208 38.272273 
L 50.920186 38.4175 
L 51.046164 38.562727 
L 51.172143 38.707954 
L 51.421526 38.849354 
L 51.670909 38.990755 
L 51.920292 39.132155 
L 52.169675 39.273556 
L 52.493591 39.402038 
L 52.817506 39.53052 
L 53.141422 39.659002 
L 53.465338 39.787484 
L 53.52443 40.057718 
L 53.583522 40.327952 
L 53.642613 40.598185 
L 53.701705 40.868419 
L 53.804547 41.040641 
L 53.907388 41.212863 
L 54.01023 41.385086 
L 54.113071 41.557308 
L 54.215912 41.72953 
L 54.318754 41.901752 
L 54.421595 42.073974 
L 54.524437 42.246197 
L 54.651776 42.484696 
L 54.779115 42.723195 
L 54.906454 42.961694 
L 55.033794 43.200194 
L 55.251255 43.366448 
L 55.468717 43.532703 
L 55.669055 43.624957 
L 55.869393 43.717211 
L 56.053993 43.778644 
L 56.238592 43.840077 
L 56.423192 43.90151 
L 56.607792 43.962942 
" style="fill:none;stroke:#000000;stroke-linecap:square;stroke-width:0.416228;"/>
   </g>
   <g id="line2d_29">
    <path clip-path="url(#p61dca3fda3)" d="M 23.524724 46.126778 
L 23.688835 46.439768 
L 23.852946 46.752759 
L 24.063825 46.999894 
L 24.274705 47.247029 
L 24.485584 47.494164 
L 24.696463 47.741299 
L 24.896479 47.885789 
L 25.096496 48.030279 
L 25.296512 48.174768 
L 25.496528 48.319258 
L 25.696544 48.463748 
L 25.89656 48.608238 
L 26.096577 48.752727 
L 26.296593 48.897217 
L 26.497673 48.966864 
L 26.698753 49.036511 
L 26.899833 49.106158 
L 27.100914 49.175806 
L 27.301994 49.245453 
L 27.503074 49.3151 
L 27.704154 49.384747 
L 27.905235 49.454394 
L 28.050786 49.657333 
L 28.196338 49.860271 
L 28.34189 50.06321 
L 28.487442 50.266148 
L 28.632994 50.469087 
L 28.778545 50.672025 
L 28.924097 50.874964 
L 29.069649 51.077903 
L 29.167863 51.308925 
L 29.266077 51.539947 
L 29.364291 51.770969 
L 29.462505 52.001991 
L 29.560719 52.233013 
L 29.658933 52.464035 
L 29.757147 52.695057 
L 29.855361 52.926079 
L 29.968497 53.094335 
L 30.081632 53.26259 
L 30.194768 53.430845 
L 30.307903 53.599101 
L 30.421039 53.767356 
L 30.534174 53.935612 
L 30.64731 54.103867 
L 30.760445 54.272122 
L 30.902186 54.494579 
L 31.043927 54.717036 
L 31.185668 54.939492 
L 31.327409 55.161949 
L 31.46915 55.384405 
L 31.610891 55.606862 
L 31.752632 55.829318 
L 31.894373 56.051775 
L 31.999937 56.217468 
L 32.1055 56.383161 
L 32.211064 56.548853 
L 32.316627 56.714546 
L 32.487493 57.001665 
L 32.65836 57.288784 
L 32.829226 57.575903 
L 33.000092 57.863022 
L 33.170958 58.150141 
L 33.341824 58.43726 
L 33.512691 58.724379 
L 33.683557 59.011497 
L 33.832647 59.1787 
L 33.981738 59.345902 
L 34.130828 59.513104 
L 34.279918 59.680307 
L 34.429009 59.847509 
L 34.578099 60.014711 
L 34.72719 60.181913 
L 34.87628 60.349116 
L 35.016239 60.585368 
L 35.156199 60.821621 
L 35.296158 61.057874 
L 35.436117 61.294126 
L 35.576077 61.530379 
L 35.716036 61.766631 
L 35.855995 62.002884 
L 35.995955 62.239137 
L 36.301708 62.427577 
L 36.60746 62.616018 
L 36.958299 62.668674 
L 37.309138 62.721331 
L 37.659977 62.773987 
L 38.010815 62.826644 
L 38.278015 62.984754 
L 38.545215 63.142864 
L 38.812414 63.300975 
L 39.079614 63.459085 
L 39.211432 63.668061 
L 39.34325 63.877038 
L 39.475068 64.086014 
L 39.606887 64.294991 
L 39.738705 64.503967 
L 39.870523 64.712944 
L 40.002341 64.92192 
L 40.134159 65.130897 
L 40.307748 65.306243 
L 40.481336 65.48159 
L 40.654924 65.656936 
L 40.828512 65.832283 
L 41.0021 66.007629 
L 41.175689 66.182976 
L 41.349277 66.358322 
L 41.522865 66.533669 
L 41.707465 66.626695 
L 41.892065 66.719722 
L 42.076665 66.812749 
L 42.261264 66.905775 
L 42.445864 66.998802 
L 42.630464 67.091829 
L 42.815064 67.184855 
L 42.999664 67.277882 
L 43.177335 67.565879 
L 43.355006 67.853875 
L 43.479624 68.06724 
L 43.604241 68.280604 
L 43.728858 68.493969 
L 43.853475 68.707333 
L 43.985516 68.727273 
L 44.13181 68.660153 
L 43.992247 68.351796 
" style="fill:none;stroke:#4169e1;stroke-linecap:square;stroke-width:0.416228;"/>
   </g>
   <g id="line2d_30">
    <path clip-path="url(#p61dca3fda3)" d="M 25.663311 34.865285 
L 25.464706 34.867813 
L 25.2661 34.87034 
L 25.067494 34.872868 
L 24.868888 34.875395 
L 24.589861 34.892632 
L 24.310833 34.909868 
L 24.031805 34.927104 
L 23.752777 34.94434 
L 23.473749 34.961577 
L 23.194721 34.978813 
L 22.915693 34.996049 
L 22.636665 35.013285 
L 22.446696 35.005106 
L 22.256726 34.996927 
L 22.066756 34.988747 
L 21.876787 34.980568 
L 21.686817 34.972389 
L 21.496848 34.96421 
L 21.306878 34.95603 
L 21.116908 34.947851 
L 20.784233 34.956978 
L 20.451557 34.966105 
L 20.118881 34.975232 
L 19.786206 34.984359 
L 19.451996 35.0486 
L 19.117786 35.112842 
L 18.783576 35.177083 
L 18.449366 35.241324 
L 18.194836 35.278605 
L 17.940306 35.315885 
L 17.685776 35.353166 
L 17.431246 35.390447 
L 17.176716 35.427728 
L 16.922186 35.465009 
L 16.667656 35.50229 
L 16.413126 35.539571 
L 16.091635 35.605075 
L 15.770144 35.67058 
L 15.448653 35.736085 
L 15.127162 35.80159 
L 14.88456 35.850982 
L 14.641957 35.900374 
L 14.399354 35.949766 
L 14.156751 35.999157 
L 13.914148 36.048549 
L 13.671545 36.097941 
L 13.428943 36.147333 
L 13.18634 36.196725 
" style="fill:none;stroke:#ff0000;stroke-linecap:square;stroke-width:0.416228;"/>
   </g>
   <g id="line2d_31">
    <path clip-path="url(#p61dca3fda3)" d="M 21.368123 46.85386 
L 21.130518 46.7159 
L 20.892914 46.577939 
L 20.65531 46.439979 
L 20.417706 46.302019 
L 20.279627 46.105715 
L 20.141548 45.909411 
L 20.025146 45.578587 
L 19.908744 45.247763 
L 19.712415 45.076945 
L 19.516086 44.906127 
L 19.319757 44.735309 
L 19.123428 44.564491 
L 18.830741 44.399079 
L 18.538053 44.233667 
L 18.245366 44.068255 
L 17.952679 43.902843 
L 17.605453 43.75386 
L 17.258227 43.604877 
L 16.911001 43.455894 
L 16.563775 43.306911 
L 16.272919 43.226943 
L 15.982063 43.146976 
L 15.691207 43.067008 
L 15.40035 42.98704 
L 15.236735 42.850694 
L 15.073119 42.714349 
L 14.909503 42.578003 
L 14.745887 42.441658 
L 14.518676 42.225415 
L 14.291464 42.009172 
L 14.064253 41.792928 
L 13.837042 41.576685 
L 13.7245 41.38642 
L 13.611959 41.196154 
L 13.499417 41.005888 
L 13.386876 40.815622 
" style="fill:none;stroke:#4169e1;stroke-dasharray:1.540045,0.665965;stroke-dashoffset:0;stroke-width:0.416228;"/>
   </g>
   <g id="line2d_32">
    <path clip-path="url(#p61dca3fda3)" d="M 43.470814 31.811483 
L 43.344885 31.991709 
L 43.218957 32.171935 
L 43.093028 32.352161 
L 42.967099 32.532387 
L 42.84117 32.712613 
L 42.715242 32.892839 
L 42.589313 33.073065 
L 42.463384 33.253291 
L 42.244834 33.5052 
L 42.026283 33.75711 
L 41.807733 34.009019 
L 41.589182 34.260928 
L 41.352667 34.463972 
L 41.116151 34.667016 
L 40.879636 34.870059 
L 40.64312 35.073103 
L 40.478614 35.391851 
L 40.314107 35.710599 
L 40.251106 35.948361 
L 40.188104 36.186124 
L 40.125103 36.423886 
L 40.062101 36.661648 
L 39.999099 36.89941 
L 39.936098 37.137172 
L 39.873096 37.374934 
L 39.810095 37.612696 
L 39.717548 37.844034 
L 39.625 38.075372 
L 39.532453 38.30671 
L 39.439905 38.538048 
L 39.347358 38.769386 
L 39.254811 39.000724 
L 39.162263 39.232062 
L 39.069716 39.4634 
L 38.981029 39.633025 
L 38.892342 39.802649 
L 38.803654 39.972274 
L 38.714967 40.141898 
L 38.62628 40.311523 
L 38.537593 40.481147 
L 38.448906 40.650772 
L 38.360219 40.820396 
L 38.210262 41.054753 
L 38.060306 41.28911 
L 37.755865 41.504265 
L 37.451423 41.71942 
L 37.146982 41.934575 
L 36.842541 42.14973 
L 36.538099 42.364885 
L 36.233658 42.580039 
L 35.929217 42.795194 
L 35.624775 43.010349 
L 35.403676 43.146589 
L 35.182577 43.28283 
L 34.961478 43.41907 
L 34.740379 43.55531 
L 34.51928 43.69155 
L 34.29818 43.82779 
L 34.077081 43.96403 
L 33.855982 44.100271 
L 33.539242 44.178062 
L 33.222503 44.255853 
" style="fill:none;stroke:#000000;stroke-linecap:square;stroke-width:0.416228;"/>
   </g>
   <g id="line2d_33">
    <path clip-path="url(#p61dca3fda3)" d="M 33.314753 27.916579 
L 33.112089 27.839069 
L 32.909425 27.761558 
L 32.706761 27.684048 
L 32.504097 27.606537 
L 32.180429 27.591091 
L 31.856761 27.575646 
L 31.651078 27.693877 
L 31.445395 27.812109 
L 31.239712 27.93034 
L 31.034029 28.048572 
L 30.882291 28.205559 
L 30.730553 28.362546 
L 30.578815 28.519533 
L 30.427077 28.67652 
L 30.288181 28.865346 
L 30.149286 29.054173 
L 30.010391 29.242999 
L 29.871495 29.431826 
L 29.7326 29.620652 
L 29.593705 29.809479 
L 29.454809 29.998306 
L 29.315914 30.187132 
L 29.190208 30.388386 
L 29.064502 30.589639 
L 28.938796 30.790893 
L 28.81309 30.992146 
L 28.687384 31.1934 
L 28.561678 31.394653 
L 28.435972 31.595907 
L 28.310266 31.797161 
L 28.121211 31.957166 
L 27.932157 32.117172 
L 27.743103 32.277178 
L 27.554049 32.437184 
L 27.350445 32.713456 
L 27.146841 32.989727 
L 26.943237 33.265999 
L 26.739632 33.542271 
L 26.605092 33.707647 
L 26.470552 33.873024 
L 26.336012 34.038401 
L 26.201472 34.203778 
L 26.066932 34.369155 
L 25.932392 34.534532 
L 25.797851 34.699908 
L 25.663311 34.865285 
" style="fill:none;stroke:#4169e1;stroke-linecap:square;stroke-width:0.416228;"/>
   </g>
   <g id="line2d_34">
    <path clip-path="url(#p61dca3fda3)" d="M 36.912718 31.989813 
L 36.981758 32.237019 
L 37.050797 32.484224 
L 37.119836 32.731429 
L 37.188876 32.978634 
L 37.171604 33.186733 
L 37.154331 33.394832 
L 37.137059 33.602931 
L 37.119787 33.81103 
L 37.102515 34.019129 
L 37.085243 34.227228 
L 37.06797 34.435327 
L 37.050698 34.643425 
L 37.087074 34.917872 
L 37.123449 35.192318 
L 37.159825 35.466764 
L 37.1962 35.74121 
L 37.105336 36.106577 
L 37.014471 36.471944 
L 36.923606 36.83731 
L 36.832742 37.202677 
L 36.696395 37.338987 
L 36.560048 37.475298 
L 36.423702 37.611608 
L 36.287355 37.747918 
L 36.151009 37.884229 
L 36.014662 38.020539 
L 35.878316 38.15685 
L 35.741969 38.29316 
L 35.590157 38.554863 
L 35.438344 38.816567 
L 35.286532 39.07827 
L 35.13472 39.339973 
L 34.982907 39.601677 
L 34.831095 39.86338 
L 34.679283 40.125083 
L 34.52747 40.386787 
L 34.505694 40.62676 
L 34.483919 40.866734 
L 34.516632 41.119345 
L 34.549345 41.371956 
L 34.582058 41.624568 
L 34.614772 41.877179 
L 34.440738 42.174513 
L 34.266704 42.471848 
L 34.092671 42.769182 
L 33.918637 43.066516 
L 33.744604 43.363851 
L 33.57057 43.661185 
L 33.396536 43.958519 
L 33.222503 44.255853 
L 33.046019 44.378719 
L 32.869536 44.501584 
L 32.627626 44.651971 
L 32.385716 44.802359 
L 32.143806 44.952746 
L 31.901896 45.103133 
L 31.604458 45.108258 
L 31.307019 45.113384 
L 31.009581 45.118509 
L 30.712142 45.123634 
L 30.438558 45.078209 
L 30.164975 45.032784 
L 29.891391 44.987359 
L 29.617807 44.941934 
L 29.344223 44.896509 
L 29.070639 44.851084 
L 28.797055 44.805659 
L 28.523471 44.760233 
L 28.23989 44.734818 
L 27.956309 44.709402 
L 27.634521 44.732992 
L 27.312733 44.756583 
L 26.990946 44.780173 
L 26.669158 44.803763 
L 26.340144 44.85649 
L 26.011131 44.909217 
L 25.682118 44.961943 
L 25.353104 45.01467 
L 25.033098 45.181908 
L 24.713092 45.349145 
L 24.428026 45.592067 
L 24.225214 45.765062 
L 24.022402 45.938056 
L 23.773563 46.032417 
L 23.524724 46.126778 
L 23.304491 46.210466 
L 23.084258 46.294155 
L 22.789789 46.497621 
L 22.49532 46.701086 
L 22.284391 46.752057 
L 22.073462 46.803029 
L 21.720793 46.828444 
L 21.368123 46.85386 
L 21.073654 46.975602 
L 20.779185 47.097344 
L 20.484716 47.219086 
L 20.190247 47.340828 
L 19.942992 47.497253 
L 19.695737 47.653679 
L 19.553996 47.862058 
L 19.412255 48.070438 
L 19.201425 48.317573 
L 18.975946 48.172101 
L 18.845687 47.925387 
L 18.715428 47.678673 
" style="fill:none;stroke:#008000;stroke-linecap:square;stroke-width:0.416228;"/>
   </g>
   <g id="line2d_35">
    <path clip-path="url(#p61dca3fda3)" d="M 43.616317 31.344735 
L 43.543565 31.578109 
L 43.470814 31.811483 
L 43.157044 31.852485 
L 42.965515 31.829386 
L 42.773987 31.806288 
L 42.582458 31.783189 
L 42.39093 31.76009 
L 42.112001 31.666291 
L 41.833072 31.572492 
L 41.554143 31.478693 
L 41.275214 31.384894 
L 41.063766 31.327042 
L 40.852317 31.26919 
L 40.640869 31.211338 
L 40.42942 31.153486 
L 40.217972 31.095634 
L 40.006523 31.037782 
L 39.795075 30.97993 
L 39.583626 30.922078 
L 39.352456 30.957393 
L 39.121285 30.992708 
L 38.890115 31.028023 
L 38.658944 31.063338 
L 38.427774 31.098653 
L 38.196603 31.133968 
L 37.965433 31.169283 
L 37.734262 31.204598 
L 37.461569 31.400902 
L 37.188876 31.597206 
L 37.050797 31.79351 
L 36.912718 31.989813 
" style="fill:none;stroke:#4169e1;stroke-linecap:square;stroke-width:0.416228;"/>
   </g>
   <g id="line2d_36">
    <path clip-path="url(#p61dca3fda3)" d="M 31.901896 45.103133 
L 32.162018 45.121458 
L 32.422141 45.139782 
L 32.682263 45.158107 
L 32.942386 45.176431 
L 33.127778 45.310811 
L 33.313169 45.445191 
L 33.444072 45.594244 
L 33.574975 45.743297 
L 33.705877 45.89235 
L 33.83678 46.041404 
L 33.960358 46.33944 
L 34.083936 46.637476 
L 34.207514 46.935513 
L 34.331092 47.233549 
L 34.381968 47.50287 
L 34.418344 47.695453 
L 34.454719 47.888036 
L 34.491095 48.080618 
L 34.52747 48.273201 
L 34.520245 48.640253 
L 34.513019 49.007304 
L 34.45467 49.263988 
L 34.39632 49.520671 
L 34.337971 49.777355 
L 34.279621 50.034038 
L 34.196279 50.400247 
L 34.112937 50.766456 
L 34.058399 50.970939 
L 34.00386 51.175423 
L 33.949321 51.379906 
L 33.894783 51.584389 
L 33.840244 51.788872 
L 33.785705 51.993355 
L 33.731167 52.197838 
L 33.676628 52.402321 
L 33.502124 52.705764 
L 33.327621 53.009206 
L 33.153117 53.312649 
L 32.978613 53.616091 
L 32.843083 53.920552 
L 32.707553 54.225012 
L 32.572023 54.529473 
L 32.436493 54.833933 
L 32.300963 55.138394 
L 32.165433 55.442854 
L 32.029903 55.747315 
L 31.894373 56.051775 
" style="fill:none;stroke:#000000;stroke-linecap:square;stroke-width:0.416228;"/>
   </g>
   <g id="line2d_37">
    <path clip-path="url(#p61dca3fda3)" d="M 17.947136 14.491533 
L 17.976137 14.774404 
L 18.005139 15.057275 
L 18.03414 15.340146 
L 18.063142 15.623018 
L 18.18187 15.852741 
L 18.300597 16.082464 
L 18.419325 16.312187 
L 18.538053 16.541911 
L 18.574231 16.913736 
L 18.610409 17.285562 
L 18.646586 17.657388 
L 18.682764 18.029214 
L 18.700828 18.40097 
L 18.718892 18.772725 
L 18.736956 19.144481 
L 18.75502 19.516236 
L 18.7958 19.866859 
L 18.83658 20.217482 
L 18.875579 20.553291 
L 18.914578 20.889099 
L 18.953576 21.224908 
L 18.992575 21.560717 
L 19.04303 21.74742 
L 19.093486 21.934122 
L 19.143942 22.120825 
L 19.194397 22.307528 
L 19.244853 22.494231 
L 19.295309 22.680933 
L 19.345764 22.867636 
L 19.39622 23.054339 
L 19.446676 23.241042 
L 19.497131 23.427744 
L 19.547587 23.614447 
L 19.598043 23.80115 
L 19.648498 23.987853 
L 19.698954 24.174555 
L 19.74941 24.361258 
L 19.799865 24.547961 
" style="fill:none;stroke:#008000;stroke-linecap:square;stroke-width:0.416228;"/>
   </g>
   <g id="line2d_38">
    <path clip-path="url(#p61dca3fda3)" d="M 12.941856 29.272171 
L 13.135364 29.447412 
L 13.328873 29.622653 
L 13.664815 29.695671 
L 14.000757 29.768688 
L 14.312943 29.754084 
L 14.62513 29.739481 
L 14.937317 29.724877 
L 15.249503 29.710274 
L 15.56169 29.695671 
L 15.873876 29.681067 
L 16.186063 29.666464 
L 16.498249 29.65186 
L 16.713682 29.662813 
L 16.929114 29.673765 
L 17.144547 29.684718 
L 17.359979 29.695671 
L 17.575412 29.706623 
L 17.790844 29.717576 
L 18.006277 29.728528 
L 18.221709 29.739481 
L 18.486435 29.836229 
L 18.75116 29.932976 
L 19.015885 30.029724 
L 19.28061 30.126472 
L 19.424727 30.42514 
L 19.568843 30.723808 
L 19.309488 30.876302 
L 19.050132 31.028795 
L 18.790777 31.181289 
L 18.531422 31.333782 
L 18.272066 31.486276 
L 18.012711 31.638769 
L 17.753355 31.791263 
L 17.494 31.943757 
L 17.229349 32.105096 
L 16.964698 32.266436 
L 16.700047 32.427776 
L 16.435396 32.589116 
L 16.170746 32.750456 
L 15.906095 32.911796 
L 15.641444 33.073135 
L 15.376793 33.234475 
L 15.139263 33.455177 
L 14.901733 33.675878 
L 14.664203 33.896579 
L 14.426673 34.117281 
L 14.189143 34.337982 
L 13.951613 34.558683 
L 13.714083 34.779385 
L 13.476553 35.000086 
L 13.403999 35.299246 
L 13.331446 35.598406 
L 13.258893 35.897565 
L 13.18634 36.196725 
L 12.982587 36.137679 
L 12.778834 36.078634 
L 12.575082 36.019588 
L 12.371329 35.960543 
L 12.185442 36.035385 
L 11.999556 36.110228 
L 11.813669 36.18507 
L 11.627782 36.259913 
L 11.441896 36.334756 
L 11.256009 36.409598 
L 11.070123 36.484441 
L 10.884236 36.559283 
L 10.667665 36.64213 
L 10.451094 36.724976 
L 10.214158 36.815651 
L 9.977222 36.906325 
L 9.740286 36.997 
L 9.50335 37.087675 
L 9.266414 37.178349 
L 9.029477 37.269024 
L 8.792541 37.359699 
L 8.555605 37.450373 
L 8.288257 37.558987 
L 8.020909 37.6676 
L 7.753561 37.776213 
L 7.486213 37.884826 
L 7.218864 37.993439 
L 6.951516 38.102052 
L 6.684168 38.210665 
L 6.41682 38.319278 
" style="fill:none;stroke:#008000;stroke-linecap:square;stroke-width:0.416228;"/>
   </g>
   <g id="line2d_39">
    <path clip-path="url(#p61dca3fda3)" d="M 23.753965 31.066427 
L 23.519008 31.140147 
L 23.284052 31.213866 
L 23.049095 31.287585 
L 22.814138 31.361304 
L 22.579182 31.435024 
L 22.344225 31.508743 
L 22.109269 31.582462 
L 21.874312 31.656181 
L 21.554158 31.772307 
L 21.234003 31.888432 
L 20.913849 32.004557 
L 20.593694 32.120683 
L 20.371679 32.213639 
L 20.149665 32.306596 
L 19.92765 32.399552 
L 19.705635 32.492509 
L 19.429354 32.653848 
L 19.153073 32.815188 
L 18.876792 32.976528 
L 18.60051 33.137868 
L 18.324229 33.299208 
L 18.047948 33.460548 
L 17.771667 33.621887 
L 17.495386 33.783227 
L 17.299156 33.904548 
L 17.102925 34.025869 
L 16.906695 34.14719 
L 16.710465 34.26851 
L 16.514235 34.389831 
L 16.318005 34.511152 
L 16.121775 34.632473 
L 15.925544 34.753794 
L 15.725949 35.015743 
L 15.526353 35.277692 
L 15.326758 35.539641 
L 15.127162 35.80159 
" style="fill:none;stroke:#008000;stroke-linecap:square;stroke-width:0.416228;"/>
   </g>
   <g id="line2d_40">
    <path clip-path="url(#p61dca3fda3)" d="M 38.918077 4.962513 
L 38.854234 4.751816 
L 38.790391 4.54112 
L 38.726548 4.330423 
L 38.662705 4.119726 
L 38.534822 3.871468 
L 38.406938 3.62321 
L 38.229861 3.535589 
L 38.052783 3.447968 
L 37.875706 3.360348 
L 37.698629 3.272727 
L 37.470428 3.329316 
L 37.242227 3.385904 
L 37.014026 3.442492 
L 36.785825 3.49908 
L 36.581923 3.511858 
L 36.378022 3.524636 
L 36.172933 3.537414 
L 35.967844 3.550192 
L 35.708613 3.674322 
L 35.449381 3.798451 
L 35.390982 4.072265 
L 35.332583 4.346079 
L 35.34847 4.624598 
L 35.364356 4.903116 
L 35.380243 5.181634 
L 35.396129 5.460153 
" style="fill:none;stroke:#4169e1;stroke-linecap:square;stroke-width:0.416228;"/>
   </g>
   <g id="line2d_41">
    <path clip-path="url(#p61dca3fda3)" d="M 44.27276 12.499568 
L 44.053714 12.724026 
L 43.834669 12.948484 
L 43.615624 13.172941 
L 43.396578 13.397399 
L 43.182284 13.62972 
L 42.96799 13.86204 
L 42.753696 14.094361 
L 42.539402 14.326682 
L 42.202668 14.498694 
L 41.865934 14.670705 
" style="fill:none;stroke:#4169e1;stroke-linecap:square;stroke-width:0.416228;"/>
   </g>
   <g id="line2d_42">
    <path clip-path="url(#p61dca3fda3)" d="M 44.750839 14.228952 
L 44.554312 14.387624 
L 44.357784 14.546295 
L 44.161257 14.704967 
L 43.96473 14.863639 
L 43.729749 14.997879 
L 43.494768 15.132118 
L 43.259786 15.266357 
L 43.024805 15.400596 
L 42.887964 15.540031 
L 42.751122 15.679466 
L 42.614281 15.8189 
L 42.477439 15.958335 
L 42.242508 16.159694 
L 42.007576 16.361053 
L 41.772644 16.562412 
L 41.537712 16.76377 
L 41.404385 16.907418 
L 41.271057 17.051065 
L 41.137729 17.194712 
L 41.004402 17.338359 
L 40.871074 17.482006 
L 40.737746 17.625654 
L 40.604419 17.769301 
L 40.471091 17.912948 
" style="fill:none;stroke:#000000;stroke-linecap:square;stroke-width:0.416228;"/>
   </g>
   <g id="line2d_43">
    <path clip-path="url(#p61dca3fda3)" d="M 44.11439 17.260568 
L 43.85011 17.507071 
L 43.58583 17.753574 
L 43.321551 18.000077 
L 43.057271 18.24658 
L 42.806849 18.35758 
L 42.556426 18.468581 
L 42.306004 18.579581 
L 42.055582 18.690581 
L 41.781899 18.742184 
L 41.508216 18.793788 
L 41.234533 18.845391 
L 40.96085 18.896995 
L 40.689741 19.010593 
L 40.418631 19.12419 
L 40.147522 19.237788 
L 39.876412 19.351386 
" style="fill:none;stroke:#000000;stroke-linecap:square;stroke-width:0.416228;"/>
   </g>
   <g id="line2d_44">
    <path clip-path="url(#p61dca3fda3)" d="M 43.420928 9.089948 
L 43.325411 8.917866 
L 43.229894 8.745784 
L 43.134377 8.573703 
L 43.03886 8.401621 
L 42.922657 8.096985 
L 42.806453 7.792349 
L 42.690249 7.487713 
L 42.574045 7.183077 
L 42.385585 6.992039 
L 42.197125 6.801001 
L 42.008665 6.609962 
L 41.820204 6.418924 
L 41.494903 6.24593 
L 41.169601 6.072935 
L 40.8443 5.899941 
L 40.518998 5.726946 
L 40.318883 5.631392 
L 40.118768 5.535838 
L 39.918653 5.440284 
L 39.718537 5.34473 
L 39.518422 5.249175 
L 39.318307 5.153621 
L 39.118192 5.058067 
L 38.918077 4.962513 
L 38.644394 4.92123 
L 38.370711 4.879947 
L 38.097028 4.838664 
L 37.823345 4.797382 
L 37.589675 4.833539 
L 37.356006 4.869697 
L 37.122336 4.905854 
L 36.888666 4.942012 
L 36.654996 4.978169 
L 36.421326 5.014327 
L 36.187657 5.050484 
L 35.953987 5.086642 
L 35.675058 5.273397 
L 35.396129 5.460153 
L 35.096711 5.660669 
L 34.797293 5.861185 
L 34.679827 6.041903 
L 34.562361 6.22262 
L 34.444895 6.403338 
L 34.327429 6.584055 
L 34.209963 6.764773 
L 34.092498 6.94549 
L 33.975032 7.126208 
L 33.857566 7.306925 
L 33.693604 7.439901 
L 33.529641 7.572876 
L 33.365679 7.705852 
L 33.201717 7.838827 
L 33.037754 7.971803 
L 32.873792 8.104778 
L 32.70983 8.237754 
L 32.545867 8.370729 
L 32.298019 8.608245 
L 32.05017 8.845762 
L 31.802321 9.083278 
L 31.554472 9.320795 
L 31.294993 9.426669 
L 31.035514 9.532544 
L 30.776035 9.638419 
L 30.516556 9.744294 
L 30.257077 9.850169 
L 29.997597 9.956044 
L 29.738118 10.061919 
L 29.478639 10.167794 
L 29.216562 10.206514 
L 28.954484 10.245234 
L 28.692407 10.283954 
L 28.43033 10.322674 
L 28.168252 10.361394 
L 27.906175 10.400115 
L 27.644098 10.438835 
L 27.38202 10.477555 
L 27.152235 10.458177 
L 26.922451 10.4388 
L 26.692666 10.419422 
L 26.462881 10.400044 
L 26.233096 10.380667 
L 26.003312 10.361289 
L 25.773527 10.341911 
L 25.543742 10.322534 
L 25.332021 10.424512 
L 25.120301 10.52649 
L 24.90858 10.628469 
L 24.696859 10.730447 
L 24.485138 10.832425 
L 24.273418 10.934404 
L 24.061697 11.036382 
L 23.849976 11.13836 
L 23.649861 11.168058 
L 23.449746 11.197757 
L 23.249631 11.227455 
L 23.049516 11.257153 
L 22.849401 11.286852 
L 22.649285 11.31655 
L 22.44917 11.346248 
L 22.249055 11.375947 
L 21.983142 11.577306 
L 21.717229 11.778664 
L 21.451316 11.980023 
L 21.185403 12.181382 
L 20.816204 12.225333 
L 20.447004 12.269284 
L 20.077804 12.313234 
L 19.708605 12.357185 
L 19.457786 12.562054 
L 19.206968 12.766924 
L 19.101108 12.930861 
L 18.995247 13.094799 
L 18.889387 13.258736 
L 18.783527 13.422674 
L 18.677666 13.586611 
L 18.571806 13.750549 
L 18.465946 13.914486 
L 18.360085 14.078424 
L 18.15361 14.284978 
L 17.947136 14.491533 
" style="fill:none;stroke:#000000;stroke-linecap:square;stroke-width:0.416228;"/>
   </g>
   <g id="line2d_45">
    <path clip-path="url(#p61dca3fda3)" d="M 44.651462 18.716418 
L 44.480595 18.901628 
L 44.309729 19.086839 
L 44.138863 19.27205 
L 43.967997 19.457261 
L 43.79713 19.642472 
L 43.626264 19.827683 
L 43.455398 20.012893 
L 43.284532 20.198104 
L 43.03406 20.464055 
L 42.783588 20.730006 
L 42.533116 20.995957 
L 42.282644 21.261908 
L 42.078694 21.558751 
L 41.874743 21.855594 
L 41.670792 22.152437 
L 41.466842 22.449279 
L 41.335147 22.795268 
L 41.203453 23.141257 
L 41.071758 23.487246 
L 40.940064 23.833235 
L 40.903936 24.091393 
L 40.867808 24.349551 
L 40.83168 24.607709 
L 40.795551 24.865866 
L 40.695976 25.159269 
L 40.596401 25.452672 
L 40.496826 25.746074 
L 40.397251 26.039477 
" style="fill:none;stroke:#000000;stroke-linecap:square;stroke-width:0.416228;"/>
   </g>
   <g id="line2d_46">
    <path clip-path="url(#p61dca3fda3)" d="M 42.317486 24.488986 
L 42.306722 24.706036 
L 42.295957 24.923087 
L 42.285193 25.140137 
L 42.274429 25.357188 
L 42.263665 25.574238 
L 42.252901 25.791289 
L 42.242136 26.008339 
L 42.231372 26.22539 
L 42.293334 26.571238 
L 42.355297 26.917087 
L 42.257157 27.263006 
L 42.159017 27.608924 
L 42.060877 27.954843 
L 41.962737 28.300762 
L 41.818151 28.438898 
L 41.673564 28.577034 
L 41.528977 28.71517 
L 41.38439 28.853305 
L 41.239804 28.991441 
L 41.095217 29.129577 
L 40.95063 29.267713 
L 40.806043 29.405849 
L 40.602068 29.497471 
L 40.398093 29.589094 
L 40.194117 29.680716 
L 39.990142 29.772339 
L 39.786166 29.863961 
L 39.582191 29.955584 
L 39.378215 30.047206 
L 39.17424 30.138829 
L 38.983775 30.15445 
L 38.793311 30.170071 
L 38.602846 30.185693 
L 38.412382 30.201314 
L 38.221917 30.216936 
L 38.031453 30.232557 
L 37.840988 30.248179 
L 37.650524 30.2638 
" style="fill:none;stroke:#ff0000;stroke-linecap:square;stroke-width:0.416228;"/>
   </g>
   <g id="line2d_47">
    <path clip-path="url(#p61dca3fda3)" d="M 43.283542 10.018389 
L 43.034258 10.239547 
L 42.784974 10.460705 
L 42.53569 10.681862 
L 42.286406 10.90302 
L 42.086291 11.074716 
L 41.886175 11.246411 
L 41.68606 11.418107 
L 41.485945 11.589803 
L 41.28583 11.761498 
L 41.085715 11.933194 
L 40.8856 12.10489 
L 40.685484 12.276585 
L 40.534439 12.408262 
L 40.383394 12.539938 
L 40.232349 12.671615 
L 40.081303 12.803292 
L 39.930258 12.934968 
L 39.779213 13.066645 
L 39.628168 13.198322 
L 39.477122 13.329998 
L 39.25637 13.457778 
L 39.035617 13.585558 
L 38.814864 13.713338 
L 38.594111 13.841118 
L 38.373359 13.968898 
L 38.152606 14.096678 
L 37.931853 14.224458 
L 37.7111 14.352238 
L 37.489061 14.465836 
L 37.267021 14.579434 
L 37.044982 14.693032 
L 36.822942 14.80663 
L 36.600903 14.920228 
L 36.378863 15.033825 
L 36.156824 15.147423 
L 35.934784 15.261021 
L 35.754045 15.375918 
L 35.573305 15.490815 
L 35.392566 15.605711 
L 35.211826 15.720608 
L 35.031086 15.835505 
L 34.850347 15.950401 
L 34.669607 16.065298 
L 34.488868 16.180195 
L 34.26423 16.362211 
L 34.039592 16.544227 
L 33.814954 16.726244 
L 33.590317 16.90826 
L 33.365679 17.090276 
L 33.141041 17.272293 
L 32.916403 17.454309 
L 32.691766 17.636325 
L 32.553637 17.804124 
L 32.415509 17.971923 
L 32.277381 18.139723 
L 32.139253 18.307522 
L 32.001125 18.475321 
L 31.862996 18.64312 
L 31.724868 18.810919 
L 31.58674 18.978718 
L 31.456357 19.169756 
L 31.325974 19.360794 
L 31.195591 19.551832 
L 31.065208 19.74287 
L 30.934825 19.933909 
L 30.804442 20.124947 
L 30.674059 20.315985 
L 30.543676 20.507023 
L 30.331956 20.698061 
L 30.120235 20.889099 
L 29.908514 21.080138 
L 29.696794 21.271176 
L 29.436028 21.433849 
L 29.175262 21.596523 
L 28.914496 21.759197 
L 28.65373 21.921871 
L 28.488481 22.247148 
L 28.323232 22.572426 
L 28.157983 22.897703 
L 27.992734 23.22298 
L 27.855051 23.383337 
L 27.717368 23.543694 
L 27.579686 23.704051 
L 27.442003 23.864408 
L 27.250177 24.152194 
L 27.058352 24.43998 
L 26.866526 24.727766 
L 26.674701 25.015552 
L 26.616302 25.278413 
L 26.557903 25.541275 
L 26.26581 25.727469 
L 25.973716 25.913663 
L 25.674298 26.066999 
L 25.37488 26.220335 
L 25.272633 26.391925 
L 25.170385 26.563515 
L 25.068138 26.735106 
L 24.96589 26.906696 
L 24.894673 27.123922 
L 24.823456 27.341148 
L 24.752239 27.558374 
L 24.681022 27.7756 
L 24.510626 27.976959 
L 24.34023 28.178318 
L 24.169834 28.379677 
L 23.999438 28.581036 
L 23.723181 28.808231 
L 23.446925 29.035427 
L 23.170669 29.262623 
L 22.894412 29.489818 
L 22.638793 29.616264 
L 22.383175 29.74271 
L 22.127556 29.869157 
L 21.871937 29.995603 
L 21.636411 30.073956 
L 21.400885 30.152309 
L 21.16536 30.230662 
L 20.929834 30.309015 
L 20.674463 30.393967 
L 20.419091 30.47892 
" style="fill:none;stroke:#ff0000;stroke-linecap:square;stroke-width:0.416228;"/>
   </g>
   <g id="line2d_48">
    <path clip-path="url(#p61dca3fda3)" d="M 43.961761 9.100058 
L 44.068463 8.73076 
L 43.933452 8.571807 
L 43.737865 8.634433 
L 43.420928 9.089948 
L 43.283542 10.018389 
L 44.680908 13.912099 
L 44.750839 14.228952 
L 45.45947 14.988084 
L 46.596788 16.903697 
L 47.505682 17.660196 
L 50.1805 18.971978 
L 50.71485 19.413451 
L 52.173659 19.756877 
L 54.991826 19.32569 
L 55.829652 19.232733 
L 56.426063 19.372168 
L 57.052267 20.331571 
L 57.71846 21.160246 
L 57.795962 21.377051 
L 57.186535 22.962085 
L 55.748438 27.229657 
L 55.554793 27.80923 
L 55.399826 30.887535 
L 55.399826 30.887535 
" style="fill:none;stroke:#000000;stroke-linecap:square;stroke-width:0.416228;"/>
   </g>
   <g id="line2d_49">
    <path clip-path="url(#p61dca3fda3)" d="M 17.960399 26.420009 
L 18.013503 26.660474 
L 18.066606 26.900939 
L 18.119709 27.141404 
L 18.172813 27.381869 
L 18.278673 27.626477 
L 18.384534 27.871084 
L 18.490394 28.115692 
L 18.596254 28.360299 
L 18.74235 28.548318 
L 18.888447 28.736337 
L 19.034543 28.924357 
L 19.180639 29.112376 
L 19.205632 29.3659 
L 19.230624 29.619424 
L 19.255617 29.872948 
L 19.28061 30.126472 
" style="fill:none;stroke:#ff0000;stroke-linecap:square;stroke-width:0.416228;"/>
   </g>
   <g id="line2d_50">
    <path clip-path="url(#p61dca3fda3)" d="M 62.182015 21.050158 
L 62.339445 21.362166 
L 62.496874 21.674174 
L 62.654304 21.986182 
L 62.811733 22.29819 
L 62.797134 22.626767 
L 62.782534 22.955344 
L 62.767934 23.283922 
L 62.753335 23.612499 
L 62.679 23.826917 
L 62.604665 24.041334 
L 62.484848 24.386832 
L 62.365031 24.732329 
L 62.245215 25.077827 
L 62.125398 25.423324 
L 61.953765 25.563882 
L 61.782131 25.70444 
L 61.610498 25.844998 
L 61.438865 25.985556 
L 61.267231 26.126115 
L 61.095598 26.266673 
L 60.923965 26.407231 
L 60.752331 26.547789 
L 60.602622 26.865413 
L 60.452913 27.183038 
L 60.303204 27.500662 
L 60.153495 27.818287 
L 60.127958 28.194325 
L 60.102421 28.570364 
L 60.076884 28.946402 
L 60.051347 29.322441 
L 60.013004 29.594429 
L 59.974661 29.866418 
L 59.936318 30.138407 
L 59.897975 30.410396 
L 59.859633 30.682385 
L 59.82129 30.954374 
L 59.782947 31.226363 
L 59.744604 31.498352 
L 59.706261 31.770341 
L 59.667919 32.04233 
L 59.629576 32.314319 
L 59.591233 32.586307 
L 59.55289 32.858296 
L 59.514547 33.130285 
L 59.476204 33.402274 
L 59.437862 33.674263 
L 59.335614 33.999154 
L 59.233366 34.324046 
L 59.131119 34.648937 
L 59.028871 34.973828 
L 58.926624 35.298719 
L 58.824376 35.623611 
L 58.722129 35.948502 
L 58.619881 36.273393 
L 58.448273 36.60197 
L 58.276664 36.930547 
L 58.105055 37.259125 
L 57.933447 37.587702 
L 57.761838 37.916279 
L 57.59023 38.244856 
L 57.418621 38.573434 
L 57.247013 38.902011 
L 57.146596 39.119202 
L 57.04618 39.336393 
L 56.945763 39.553584 
L 56.845347 39.770774 
L 56.744931 39.987965 
L 56.644514 40.205156 
L 56.544098 40.422347 
L 56.443681 40.639538 
L 56.430913 40.845812 
L 56.418144 41.052085 
L 56.405376 41.258359 
L 56.392607 41.464632 
L 56.379839 41.670906 
L 56.36707 41.877179 
L 56.354301 42.083453 
L 56.341533 42.289726 
L 56.223498 42.646597 
L 56.105463 43.003469 
L 55.987428 43.36034 
L 55.869393 43.717211 
" style="fill:none;stroke:#ff0000;stroke-linecap:square;stroke-width:0.416228;"/>
   </g>
   <g id="line2d_51">
    <path clip-path="url(#p61dca3fda3)" d="M 19.525489 24.802679 
L 19.768934 24.962193 
L 20.012378 25.121707 
L 20.255822 25.281222 
L 20.499266 25.440736 
L 20.71653 25.506452 
L 20.933793 25.572167 
L 21.151057 25.637882 
L 21.368321 25.703598 
L 21.419593 26.075985 
L 21.295421 26.344323 
L 21.171249 26.612662 
L 21.047077 26.881 
L 20.922905 27.149338 
L 20.866288 27.514423 
L 20.809671 27.879509 
L 20.753054 28.244595 
L 20.696437 28.609681 
L 20.696437 28.952861 
L 20.696437 29.296042 
L 20.6563 29.489538 
L 20.616163 29.683033 
L 20.576026 29.876528 
L 20.535889 30.070024 
L 20.47749 30.274472 
L 20.419091 30.47892 
L 20.206529 30.540142 
L 19.993967 30.601364 
L 19.781405 30.662586 
L 19.568843 30.723808 
" style="fill:none;stroke:#ff0000;stroke-dasharray:1.540045,0.665965;stroke-dashoffset:0;stroke-width:0.416228;"/>
   </g>
   <g id="line2d_52">
    <path clip-path="url(#p61dca3fda3)" d="M 73.246724 20.143341 
L 72.545937 19.474392 
L 71.502873 19.319371 
L 70.976096 19.319371 
L 69.933032 18.802915 
L 69.272036 18.648175 
L 65.693471 19.118012 
L 64.926664 19.267838 
L 64.097895 19.205913 
L 62.915317 19.737675 
L 62.404129 20.124806 
L 62.060071 21.927768 
L 62.128763 23.302738 
L 61.193985 24.733874 
L 58.951914 26.197868 
L 57.474867 27.712834 
L 56.782284 28.656861 
L 55.284587 31.207793 
L 54.452131 33.705085 
L 54.210419 35.081248 
L 53.556797 37.888476 
L 53.465338 39.787484 
L 53.465338 39.787484 
" style="fill:none;stroke:#000000;stroke-linecap:square;stroke-width:0.416228;"/>
   </g>
   <g id="line2d_53">
    <path clip-path="url(#p61dca3fda3)" d="M 43.283542 10.018389 
L 41.518411 10.043524 
L 40.362806 9.994237 
L 38.398426 10.55675 
L 35.506443 10.061778 
L 33.676381 10.254712 
L 31.318402 10.69938 
L 29.354838 11.339719 
L 27.954206 11.966297 
L 26.741389 13.080897 
L 24.890862 17.896379 
L 24.125095 20.175392 
L 22.483727 22.129619 
L 18.514496 25.782232 
L 17.303164 27.142878 
L 12.941856 29.272171 
L 12.941856 29.272171 
" style="fill:none;stroke:#000000;stroke-linecap:square;stroke-width:0.416228;"/>
   </g>
   <g id="line2d_54">
    <path clip-path="url(#p61dca3fda3)" d="M 8.759902 31.565191 
L 8.858413 31.734148 
L 8.956924 31.903106 
L 9.055435 32.072063 
L 9.153946 32.241021 
L 9.252457 32.409978 
L 9.350968 32.578936 
L 9.449479 32.747893 
L 9.54799 32.916851 
L 9.646105 33.119508 
L 9.74422 33.322166 
L 9.842335 33.524824 
L 9.940451 33.727481 
L 10.038566 33.930139 
L 10.136681 34.132797 
L 10.234796 34.335455 
L 10.332911 34.538112 
L 10.3923 34.752319 
L 10.451688 34.966526 
L 10.511077 35.180733 
L 10.570466 35.394941 
L 10.540623 35.727449 
L 10.51078 36.059958 
L 10.480937 36.392467 
L 10.451094 36.724976 
" style="fill:none;stroke:#ff0000;stroke-dasharray:1.540045,0.665965;stroke-dashoffset:0;stroke-width:0.416228;"/>
   </g>
   <g id="line2d_55">
    <path clip-path="url(#p61dca3fda3)" d="M 12.277099 29.596817 
L 12.314378 29.783028 
L 12.351656 29.969239 
L 12.388935 30.15545 
L 12.426214 30.341662 
L 12.463493 30.527873 
L 12.500772 30.714084 
L 12.53805 30.900296 
L 12.575329 31.086507 
L 12.612608 31.272718 
L 12.649887 31.45893 
L 12.687165 31.645141 
L 12.724444 31.831352 
L 12.761723 32.017564 
L 12.799002 32.203775 
L 12.836281 32.389986 
L 12.873559 32.576197 
L 12.948933 32.879184 
L 13.024308 33.18217 
L 13.099682 33.485156 
L 13.175056 33.788142 
L 13.25043 34.091128 
L 13.325804 34.394114 
L 13.401178 34.6971 
L 13.476553 35.000086 
" style="fill:none;stroke:#ff0000;stroke-linecap:square;stroke-width:0.416228;"/>
   </g>
   <g id="line2d_56">
    <path clip-path="url(#p61dca3fda3)" d="M 12.941856 29.272171 
L 12.609478 29.434494 
L 12.277099 29.596817 
L 11.964417 29.749731 
L 11.651736 29.902646 
L 11.3832 30.088489 
L 11.114664 30.274332 
L 10.846128 30.460174 
L 10.577592 30.646017 
L 10.350381 30.760914 
L 10.12317 30.87581 
L 9.895958 30.990707 
L 9.668747 31.105604 
L 9.441536 31.220501 
L 9.214325 31.335397 
L 8.987113 31.450294 
L 8.759902 31.565191 
L 8.439748 31.616794 
L 8.119593 31.668398 
L 7.799438 31.720001 
L 7.479284 31.771605 
L 7.288201 31.874882 
L 7.097118 31.978159 
L 6.906034 32.081436 
L 6.714951 32.184713 
L 6.536785 32.49967 
L 6.358619 32.814627 
L 6.180453 33.129583 
L 6.002287 33.44454 
L 5.931293 33.759462 
L 5.860299 34.074383 
L 5.789304 34.389305 
L 5.71831 34.704226 
L 5.647316 35.019148 
L 5.576322 35.334069 
L 5.505327 35.648991 
L 5.434333 35.963913 
L 5.381081 36.30583 
L 5.327829 36.647746 
L 5.274577 36.989663 
L 5.221326 37.33158 
L 5.201925 37.606237 
L 5.182525 37.880894 
L 5.295759 38.1182 
L 5.408994 38.355505 
" style="fill:none;stroke:#ff0000;stroke-dasharray:1.540045,0.665965;stroke-dashoffset:0;stroke-width:0.416228;"/>
   </g>
   <g id="line2d_57">
    <path clip-path="url(#p61dca3fda3)" d="M 17.947136 14.491533 
L 17.762511 14.543171 
L 17.577887 14.59481 
L 17.393262 14.646448 
L 17.208637 14.698087 
L 17.024013 14.749726 
L 16.839388 14.801364 
L 16.654763 14.853003 
L 16.470139 14.904641 
L 16.289399 15.144755 
L 16.10866 15.384869 
L 15.92792 15.624984 
L 15.74718 15.865098 
L 15.656811 16.143932 
L 15.566441 16.422766 
L 15.476071 16.7016 
L 15.385701 16.980435 
L 15.295331 17.259269 
L 15.204962 17.538103 
L 15.114592 17.816938 
L 15.024222 18.095772 
L 14.982947 18.297131 
L 14.941672 18.49849 
L 14.994602 18.719226 
L 15.047532 18.939963 
L 15.100462 19.160699 
L 15.153392 19.381435 
L 15.206323 19.602172 
L 15.259253 19.822908 
L 15.312183 20.043645 
L 15.365113 20.264381 
L 15.530362 20.459281 
L 15.695611 20.654181 
L 15.86086 20.84908 
L 16.026109 21.04398 
L 16.191358 21.23888 
L 16.356607 21.433779 
L 16.521856 21.628679 
L 16.687106 21.823579 
L 16.865272 22.130812 
L 17.043438 22.438046 
L 17.221604 22.74528 
L 17.39977 23.052513 
L 17.479796 23.302948 
L 17.559822 23.553383 
L 17.639849 23.803818 
L 17.719875 24.054253 
L 17.748283 24.325329 
L 17.77669 24.596405 
L 17.805098 24.867481 
L 17.833505 25.138557 
L 17.805098 25.337319 
L 17.77669 25.53608 
L 17.748283 25.734841 
L 17.719875 25.933602 
L 17.840137 26.176805 
L 17.960399 26.420009 
" style="fill:none;stroke:#4169e1;stroke-linecap:square;stroke-width:0.416228;"/>
   </g>
   <g id="line2d_58">
    <path clip-path="url(#p61dca3fda3)" d="M 31.034029 28.048572 
L 30.844381 28.176668 
L 30.654733 28.304764 
L 30.465085 28.43286 
L 30.275438 28.560956 
L 30.08579 28.689052 
L 29.896142 28.817148 
L 29.706494 28.945244 
L 29.516846 29.07334 
L 29.329648 29.165629 
L 29.14245 29.257919 
L 28.955252 29.350208 
L 28.768053 29.442498 
L 28.580855 29.534787 
L 28.393657 29.627077 
L 28.206459 29.719366 
L 28.019261 29.811656 
L 27.832063 29.903945 
L 27.644865 29.996234 
L 27.457667 30.088524 
L 27.270468 30.180813 
L 27.08327 30.273103 
L 26.896072 30.365392 
L 26.708874 30.457682 
L 26.521676 30.549971 
L 26.284171 30.59645 
L 26.046665 30.642928 
L 25.80916 30.689406 
L 25.571655 30.735884 
L 25.344443 30.777202 
L 25.117232 30.81852 
L 24.890021 30.859838 
L 24.66281 30.901156 
L 24.435598 30.942474 
L 24.208387 30.983792 
L 23.981176 31.025109 
L 23.753965 31.066427 
L 23.472512 31.050911 
L 23.191059 31.035395 
L 22.909606 31.019879 
L 22.628153 31.004363 
L 22.415863 30.917444 
L 22.203573 30.830526 
L 21.991283 30.743607 
L 21.778993 30.656689 
L 21.566704 30.56977 
L 21.354414 30.482852 
L 21.142124 30.395933 
L 20.929834 30.309015 
" style="fill:none;stroke:#000000;stroke-linecap:square;stroke-width:0.416228;"/>
   </g>
   <g id="line2d_59">
    <path clip-path="url(#p61dca3fda3)" d="M 27.38202 10.477555 
L 27.232682 10.624151 
L 27.083345 10.770747 
L 26.934007 10.917343 
L 26.784669 11.063939 
L 26.635331 11.210535 
L 26.485993 11.357131 
L 26.336655 11.503727 
L 26.187318 11.650323 
L 25.905865 11.800078 
L 25.624412 11.949833 
L 25.342959 12.099589 
L 25.061506 12.249344 
L 24.79297 12.388709 
L 24.524434 12.528073 
L 24.255898 12.667438 
L 23.987362 12.806802 
L 23.820826 12.950098 
L 23.654291 13.093394 
L 23.487755 13.236691 
L 23.321219 13.379987 
L 23.154683 13.523283 
L 22.988147 13.666579 
L 22.821612 13.809875 
L 22.655076 13.953172 
L 22.465304 14.080987 
L 22.275532 14.208802 
L 22.085761 14.336617 
L 21.895989 14.464432 
L 21.706218 14.592247 
L 21.516446 14.720062 
L 21.326674 14.847877 
L 21.136903 14.975693 
L 20.896774 15.076372 
L 20.656646 15.177051 
L 20.416518 15.277731 
L 20.176389 15.37841 
L 20.124771 15.572046 
L 20.073152 15.765682 
L 20.021533 15.959318 
L 19.969915 16.152954 
L 19.876971 16.509193 
L 19.784028 16.865433 
L 19.691085 17.221672 
L 19.598142 17.577912 
L 19.55266 17.95395 
L 19.507178 18.329988 
L 19.461696 18.706027 
L 19.416214 19.082065 
L 19.271306 19.365919 
L 19.126397 19.649774 
L 18.981489 19.933628 
L 18.83658 20.217482 
" style="fill:none;stroke:#ff0000;stroke-dasharray:1.540045,0.665965;stroke-dashoffset:0;stroke-width:0.416228;"/>
   </g>
   <g id="line2d_60">
    <path clip-path="url(#p61dca3fda3)" d="M 37.156806 10.322815 
L 36.966688 10.571248 
L 36.77657 10.819682 
L 36.586452 11.068116 
L 36.396334 11.31655 
L 36.206216 11.564984 
L 36.016098 11.813418 
L 35.825979 12.061852 
L 35.635861 12.310285 
L 35.442328 12.596878 
L 35.248796 12.88347 
L 35.055263 13.170062 
L 34.86173 13.456655 
L 34.668197 13.743247 
L 34.474664 14.02984 
L 34.281131 14.316432 
L 34.087598 14.603024 
L 34.000358 14.792606 
L 33.913119 14.982187 
L 33.825879 15.171768 
L 33.73864 15.36135 
L 33.6514 15.550931 
L 33.564161 15.740512 
L 33.476921 15.930093 
L 33.389682 16.119675 
L 33.302442 16.309256 
L 33.215203 16.498837 
L 33.127963 16.688419 
L 33.040724 16.878 
L 32.953484 17.067581 
L 32.866245 17.257163 
L 32.779005 17.446744 
L 32.691766 17.636325 
" style="fill:none;stroke:#ff0000;stroke-dasharray:1.540045,0.665965;stroke-dashoffset:0;stroke-width:0.416228;"/>
   </g>
   <g id="line2d_61">
    <path clip-path="url(#p61dca3fda3)" d="M 43.519315 10.638754 
L 43.415979 10.890751 
L 43.312642 11.142748 
L 43.209306 11.394745 
L 43.10597 11.646742 
L 43.002633 11.898739 
L 42.899297 12.150736 
L 42.795961 12.402733 
L 42.692624 12.65473 
L 42.589288 12.906727 
L 42.485952 13.158724 
L 42.382615 13.410721 
L 42.279279 13.662718 
L 42.175943 13.914715 
L 42.072606 14.166712 
L 41.96927 14.418709 
L 41.865934 14.670705 
L 41.655995 14.913488 
L 41.446056 15.15627 
L 41.236117 15.399052 
L 41.026178 15.641834 
L 40.894632 15.937694 
L 40.763086 16.233553 
L 40.726586 16.443478 
L 40.690087 16.653402 
L 40.653588 16.863326 
L 40.617088 17.073251 
L 40.580589 17.283175 
L 40.54409 17.493099 
L 40.50759 17.703024 
L 40.471091 17.912948 
L 40.396756 18.092753 
L 40.322421 18.272558 
L 40.248087 18.452362 
L 40.173752 18.632167 
L 40.099417 18.811972 
L 40.025082 18.991777 
L 39.950747 19.171581 
L 39.876412 19.351386 
L 39.767261 19.61337 
L 39.658109 19.875354 
L 39.548958 20.137339 
L 39.439806 20.399323 
L 39.330655 20.661307 
L 39.221503 20.923291 
L 39.112352 21.185275 
L 39.003201 21.447259 
L 38.919673 21.65764 
L 38.836145 21.868021 
L 38.752617 22.078401 
L 38.66909 22.288782 
L 38.585562 22.499163 
L 38.502034 22.709543 
L 38.418506 22.919924 
L 38.334979 23.130305 
L 38.251451 23.340685 
L 38.167923 23.551066 
L 38.084396 23.761447 
L 38.000868 23.971828 
L 37.91734 24.182208 
L 37.833812 24.392589 
L 37.750285 24.60297 
L 37.666757 24.81335 
L 37.572725 25.000457 
L 37.478693 25.187563 
L 37.384661 25.37467 
L 37.290628 25.561776 
L 37.196596 25.748883 
L 37.102564 25.935989 
L 37.008532 26.123096 
L 36.9145 26.310202 
L 36.881638 26.560286 
L 36.848777 26.81037 
L 36.815915 27.060453 
L 36.783053 27.310537 
L 36.695455 27.480302 
L 36.607856 27.650067 
L 36.520258 27.819832 
L 36.43266 27.989597 
L 36.292057 28.321825 
L 36.151454 28.654053 
L 36.010852 28.986281 
L 35.870249 29.318509 
L 35.621707 29.565503 
L 35.373165 29.812498 
L 35.124624 30.059493 
L 34.876082 30.306487 
" style="fill:none;stroke:#000000;stroke-linecap:square;stroke-width:0.416228;"/>
   </g>
   <g id="line2d_62">
    <path clip-path="url(#p61dca3fda3)" d="M 44.750839 14.228952 
L 44.744058 14.473068 
L 44.737278 14.717184 
L 44.730498 14.9613 
L 44.723718 15.205416 
L 44.664379 15.502329 
L 44.605039 15.799242 
L 44.5457 16.096155 
L 44.486361 16.393068 
L 44.393368 16.609943 
L 44.300375 16.826818 
L 44.207383 17.043693 
L 44.11439 17.260568 
L 44.217677 17.456731 
L 44.320963 17.652895 
L 44.42425 17.849058 
L 44.527537 18.045221 
L 44.589499 18.38082 
L 44.651462 18.716418 
L 44.571435 18.946211 
L 44.491409 19.176005 
L 44.411383 19.405798 
L 44.331357 19.635591 
L 44.261624 19.911863 
L 44.191892 20.188135 
L 44.12216 20.464406 
L 44.052428 20.740678 
L 44.078262 21.076276 
L 44.104096 21.411874 
L 43.982745 21.659711 
L 43.861394 21.907548 
L 43.740043 22.155385 
L 43.618692 22.403222 
L 43.45864 22.638141 
L 43.298587 22.87306 
L 43.138535 23.107978 
L 42.978482 23.342897 
L 42.813233 23.629419 
L 42.647984 23.915941 
L 42.482735 24.202463 
L 42.317486 24.488986 
L 42.158695 24.629684 
L 41.999905 24.770382 
L 41.841114 24.911081 
L 41.682324 25.051779 
L 41.523533 25.192478 
L 41.364743 25.333176 
L 41.205952 25.473875 
L 41.047162 25.614573 
L 40.884684 25.720799 
L 40.722206 25.827025 
L 40.559729 25.933251 
L 40.397251 26.039477 
L 40.226954 26.150758 
L 40.056657 26.262039 
L 39.88636 26.37332 
L 39.716063 26.484601 
L 39.537897 26.711796 
L 39.359731 26.938992 
L 39.181565 27.166188 
L 39.003398 27.393383 
L 38.869131 27.687629 
L 38.734863 27.981874 
L 38.600595 28.276119 
L 38.466327 28.570364 
L 38.339829 28.844038 
L 38.213331 29.117712 
L 38.086833 29.391386 
L 37.960335 29.66506 
L 37.805429 29.96443 
L 37.650524 30.2638 
L 37.391688 30.329375 
L 37.132852 30.39495 
L 36.874017 30.460525 
L 36.615181 30.5261 
L 36.352831 30.669467 
L 36.090482 30.812833 
L 35.828132 30.956199 
L 35.565783 31.099566 
" style="fill:none;stroke:#ff0000;stroke-linecap:square;stroke-width:0.416228;"/>
   </g>
   <g id="line2d_63">
    <path clip-path="url(#p61dca3fda3)" d="M 39.876412 19.351386 
L 39.641382 19.559485 
L 39.406351 19.767584 
L 39.17132 19.975683 
L 38.936289 20.183782 
L 38.797518 20.442993 
L 38.658746 20.702204 
L 38.519974 20.961414 
L 38.381203 21.220625 
L 38.238818 21.461652 
L 38.096434 21.702679 
L 37.95405 21.943706 
L 37.811665 22.184733 
L 37.577971 22.403784 
L 37.344276 22.622836 
L 37.110582 22.841887 
L 36.876887 23.060939 
L 36.736037 23.189701 
L 36.595187 23.318464 
L 36.454337 23.447227 
L 36.313486 23.57599 
L 36.172636 23.704753 
L 36.031786 23.833516 
L 35.890936 23.962279 
L 35.750086 24.091042 
L 35.523666 24.283941 
L 35.297247 24.476839 
L 35.070827 24.669738 
L 34.844408 24.862637 
L 34.617989 25.055536 
L 34.391569 25.248434 
L 34.16515 25.441333 
L 33.93873 25.634232 
L 33.757991 25.809824 
L 33.577251 25.985416 
L 33.396512 26.161008 
L 33.215772 26.336601 
L 33.02652 26.461783 
L 32.837268 26.586965 
L 32.648016 26.712147 
L 32.458764 26.83733 
L 32.269512 26.962512 
L 32.08026 27.087694 
L 31.891008 27.212877 
L 31.701756 27.338059 
L 31.534824 27.515687 
L 31.367893 27.693315 
L 31.200961 27.870944 
L 31.034029 28.048572 
" style="fill:none;stroke:#ff0000;stroke-linecap:square;stroke-width:0.416228;"/>
   </g>
   <g id="line2d_64">
    <path clip-path="url(#p61dca3fda3)" d="M 24.565808 19.021405 
L 24.766146 19.164771 
L 24.966484 19.308137 
L 25.041314 19.499808 
L 25.116143 19.691478 
L 25.190973 19.883148 
L 25.265803 20.074818 
L 25.346176 20.436253 
L 25.426548 20.797687 
L 25.583532 21.078804 
L 25.740517 21.35992 
L 25.897501 21.641036 
L 26.054485 21.922152 
L 26.227949 22.168585 
L 26.401414 22.415018 
L 26.574878 22.66145 
L 26.748343 22.907883 
L 26.921758 23.147015 
L 27.095173 23.386146 
L 27.268588 23.625277 
L 27.442003 23.864408 
" style="fill:none;stroke:#ff0000;stroke-dasharray:1.540045,0.665965;stroke-dashoffset:0;stroke-width:0.416228;"/>
   </g>
   <g id="line2d_65">
    <path clip-path="url(#p61dca3fda3)" d="M 37.823345 4.797382 
L 37.635231 4.598901 
L 37.447118 4.400421 
L 37.259004 4.201941 
L 37.07089 4.003461 
L 36.897673 3.883755 
L 36.724456 3.764048 
L 36.551239 3.644342 
L 36.378022 3.524636 
" style="fill:none;stroke:#008000;stroke-linecap:square;stroke-width:0.416228;"/>
   </g>
   <g id="line2d_66">
    <path clip-path="url(#p61dca3fda3)" d="M 55.565125 27.60401 
L 55.37518 27.394858 
L 55.185235 27.185706 
L 54.99529 26.976554 
L 54.805345 26.767402 
L 54.536314 26.632882 
L 54.267284 26.498362 
L 54.075854 26.581138 
L 53.884424 26.663914 
L 53.692995 26.74669 
L 53.501565 26.829466 
L 53.310136 26.912243 
L 53.118706 26.995019 
L 52.927277 27.077795 
L 52.735847 27.160571 
L 52.601332 27.367476 
L 52.466816 27.574382 
L 52.332301 27.781287 
L 52.197785 27.988192 
L 51.921009 28.12524 
L 51.644233 28.262288 
L 51.367457 28.399335 
L 51.090681 28.536383 
L 50.813905 28.67343 
L 50.537129 28.810478 
L 50.260353 28.947526 
L 49.983577 29.084573 
L 49.802491 29.20614 
L 49.621405 29.327706 
L 49.440319 29.449273 
L 49.259233 29.570839 
L 49.078147 29.692406 
L 48.897061 29.813972 
L 48.715975 29.935539 
L 48.534889 30.057106 
L 48.289155 30.154099 
L 48.043422 30.251092 
L 47.797689 30.348086 
L 47.551956 30.445079 
L 47.306223 30.542073 
L 47.06049 30.639066 
L 46.814757 30.73606 
L 46.569024 30.833053 
L 46.323291 30.930047 
L 46.077557 31.02704 
L 45.831824 31.124034 
L 45.586091 31.221027 
L 45.340358 31.318021 
L 45.094625 31.415014 
L 44.848892 31.512007 
L 44.603159 31.609001 
L 44.334128 31.59861 
L 44.065097 31.588219 
L 43.767956 31.699851 
L 43.470814 31.811483 
" style="fill:none;stroke:#008000;stroke-linecap:square;stroke-width:0.416228;"/>
   </g>
   <g id="line2d_67">
    <path clip-path="url(#p61dca3fda3)" d="M 71.195042 19.319371 
L 71.153618 19.598451 
L 71.112195 19.877531 
L 71.070771 20.156611 
L 71.029348 20.435691 
L 71.034544 20.642596 
L 71.039741 20.849502 
L 71.044937 21.056407 
L 71.050134 21.263312 
L 70.786299 21.382316 
L 70.522465 21.50132 
L 70.258631 21.620324 
L 69.994796 21.739328 
L 69.816309 21.822104 
L 69.637821 21.90488 
L 69.459333 21.987657 
L 69.280845 22.070433 
L 69.102358 22.153209 
L 68.92387 22.235985 
L 68.745382 22.318761 
L 68.566894 22.401537 
L 68.330824 22.478627 
L 68.094754 22.555716 
L 67.848712 22.636035 
L 67.602669 22.716354 
L 67.356627 22.796673 
L 67.110584 22.876991 
L 66.864542 22.95731 
L 66.6185 23.037629 
L 66.372457 23.117948 
L 66.126415 23.198267 
L 65.934342 23.260963 
L 65.742269 23.32366 
L 65.550196 23.386356 
L 65.358123 23.449053 
L 65.133485 23.497356 
L 64.908847 23.54566 
L 64.68421 23.593964 
L 64.459572 23.642267 
L 64.227708 23.692151 
L 63.995845 23.742034 
L 63.763982 23.791917 
L 63.532118 23.841801 
L 63.300255 23.891684 
L 63.068392 23.941568 
L 62.836528 23.991451 
L 62.604665 24.041334 
" style="fill:none;stroke:#4169e1;stroke-linecap:square;stroke-width:0.416228;"/>
   </g>
   <g id="line2d_68">
    <path clip-path="url(#p61dca3fda3)" d="M 68.094754 22.555716 
L 68.064763 22.813768 
L 68.034771 23.071821 
L 68.00478 23.329873 
L 67.974789 23.587926 
L 67.944798 23.845978 
L 67.914806 24.104031 
L 67.884815 24.362083 
L 67.854824 24.620136 
L 67.850691 24.919576 
L 67.846559 25.219017 
L 67.842426 25.518457 
L 67.838294 25.817898 
L 67.834161 26.117338 
L 67.830029 26.416779 
L 67.825896 26.71622 
L 67.821764 27.01566 
L 67.806249 27.3131 
L 67.790733 27.610539 
L 67.775218 27.907979 
L 67.759703 28.205418 
L 67.744188 28.502858 
L 67.728672 28.800298 
L 67.713157 29.097737 
L 67.697642 29.395177 
L 67.658841 29.581318 
L 67.62004 29.767459 
L 67.58124 29.9536 
L 67.542439 30.139741 
L 67.503639 30.325882 
L 67.464838 30.512023 
L 67.426037 30.698165 
L 67.387237 30.884306 
L 67.348436 31.070447 
L 67.309635 31.256588 
L 67.270835 31.442729 
L 67.232034 31.62887 
L 67.193234 31.815011 
L 67.154433 32.001152 
L 67.115632 32.187293 
L 67.076832 32.373434 
L 66.996645 32.590678 
L 66.916458 32.807922 
L 66.83627 33.025165 
L 66.756083 33.242409 
L 66.675896 33.459652 
L 66.595709 33.676896 
L 66.515522 33.89414 
L 66.435335 34.111383 
L 66.355148 34.328627 
L 66.274961 34.54587 
L 66.194774 34.763114 
L 66.114586 34.980358 
L 66.034399 35.197601 
L 65.954212 35.414845 
L 65.874025 35.632088 
L 65.793838 35.849332 
L 65.724007 36.027803 
L 65.654176 36.206273 
L 65.584344 36.384744 
L 65.514513 36.563215 
L 65.444682 36.741686 
L 65.374851 36.920157 
L 65.305019 37.098627 
L 65.235188 37.277098 
L 64.967939 37.404036 
L 64.7944 37.486426 
L 64.620862 37.568816 
L 64.447323 37.651206 
L 64.273784 37.733596 
L 64.100246 37.815986 
L 63.926707 37.898376 
L 63.753168 37.980766 
L 63.579629 38.063156 
L 63.370136 38.130697 
L 63.160642 38.198238 
L 62.951148 38.265779 
L 62.741655 38.333319 
L 62.519046 38.405213 
L 62.296438 38.477107 
L 62.105033 38.614155 
L 61.913628 38.751202 
L 61.722223 38.88825 
L 61.530818 39.025297 
L 61.339413 39.162345 
L 61.148009 39.299393 
L 60.956604 39.43644 
L 60.765199 39.573488 
L 60.516855 39.821746 
L 60.268511 40.070004 
L 60.020168 40.318263 
L 59.771824 40.566521 
L 59.616622 40.773426 
L 59.461419 40.980332 
L 59.306217 41.187237 
L 59.151014 41.394142 
L 59.057873 41.580336 
L 58.964732 41.76653 
L 58.87159 41.952724 
L 58.778449 42.138917 
L 58.63359 42.299274 
L 58.488731 42.459631 
L 58.343872 42.619988 
L 58.199013 42.780345 
L 58.015354 42.850168 
L 57.831694 42.91999 
L 57.648035 42.989813 
L 57.464375 43.059636 
L 57.280716 43.129458 
L 57.097056 43.199281 
L 56.913396 43.269104 
L 56.729737 43.338926 
L 56.514651 43.433498 
L 56.299565 43.528069 
L 56.084479 43.62264 
L 55.869393 43.717211 
" style="fill:none;stroke:#ff0000;stroke-linecap:square;stroke-width:0.416228;"/>
   </g>
   <g id="line2d_69">
    <path clip-path="url(#p61dca3fda3)" d="M 73.246724 20.143341 
L 73.884756 19.84369 
L 74.767668 20.441588 
L 75.892094 21.839305 
L 76.590604 22.506429 
L 77.017906 22.862388 
L 78.285261 23.033276 
L 78.904685 23.303791 
L 79.787646 23.980182 
L 80.891435 25.169169 
L 82.628752 25.795712 
L 83.718238 27.151795 
L 84.579869 28.280331 
L 85.27046 28.963674 
L 85.694174 29.892712 
L 85.818717 31.462686 
L 84.850483 33.399045 
L 81.859767 33.342035 
L 80.093844 33.569792 
L 75.999662 34.730344 
L 75.145182 34.844223 
L 72.581669 35.057798 
L 71.762847 35.271373 
L 69.975693 35.791059 
L 67.362343 36.097169 
L 65.235188 37.277098 
L 65.235188 37.277098 
" style="fill:none;stroke:#ff0000;stroke-linecap:square;stroke-width:0.416228;"/>
   </g>
   <g id="line2d_70">
    <path clip-path="url(#p61dca3fda3)" d="M 75.892094 21.839305 
L 75.683912 22.045509 
L 75.47573 22.251712 
L 75.267548 22.457915 
L 75.059366 22.664118 
L 74.851183 22.870322 
L 74.643001 23.076525 
L 74.434819 23.282728 
L 74.226637 23.488931 
L 74.094906 23.64734 
L 73.963174 23.805749 
L 73.831442 23.964157 
L 73.699711 24.122566 
L 73.567979 24.280974 
L 73.436248 24.439383 
L 73.304516 24.597792 
L 73.172785 24.7562 
L 73.041053 24.914609 
L 72.909322 25.073018 
L 72.77759 25.231426 
L 72.645858 25.389835 
L 72.514127 25.548243 
L 72.382395 25.706652 
L 72.250664 25.865061 
L 72.118932 26.023469 
L 71.997878 26.194322 
L 71.876824 26.365175 
L 71.75577 26.536029 
L 71.634716 26.706882 
L 71.513662 26.877735 
L 71.392608 27.048588 
L 71.271554 27.219441 
L 71.150501 27.390294 
L 71.040137 27.657263 
L 70.929773 27.924232 
L 70.819409 28.191201 
L 70.709045 28.45817 
L 70.598681 28.725139 
L 70.488317 28.992108 
L 70.377953 29.259077 
L 70.267589 29.526046 
L 70.192833 29.825065 
L 70.118077 30.124085 
L 70.043322 30.423104 
L 69.968566 30.722123 
L 69.893811 31.021143 
L 69.819055 31.320162 
L 69.7443 31.619181 
L 69.669544 31.918201 
L 69.687336 32.146028 
L 69.705128 32.373856 
L 69.72292 32.601683 
L 69.740712 32.829511 
L 69.758504 33.057338 
L 69.776296 33.285166 
L 69.794087 33.512994 
L 69.811879 33.740821 
L 69.662368 34.004245 
L 69.512857 34.267668 
L 69.363346 34.531091 
L 69.213835 34.794515 
L 69.000135 34.965263 
L 68.786434 35.13601 
L 68.494489 35.342495 
L 68.202545 35.548979 
L 67.9106 35.755463 
L 67.618655 35.961947 
" style="fill:none;stroke:#ff0000;stroke-linecap:square;stroke-width:0.416228;"/>
   </g>
   <g id="line2d_71">
    <path clip-path="url(#p61dca3fda3)" d="M 66.126415 23.198267 
L 66.223961 23.490897 
L 66.321507 23.783528 
L 66.419052 24.076158 
L 66.516598 24.368788 
L 66.614144 24.661418 
L 66.71169 24.954049 
L 66.809236 25.246679 
L 66.906782 25.539309 
L 66.885402 25.84542 
L 66.864022 26.15153 
L 66.842642 26.45764 
L 66.821262 26.763751 
L 66.764299 26.963109 
L 66.707335 27.162467 
L 66.650371 27.361825 
L 66.593408 27.561182 
L 66.536444 27.76054 
L 66.47948 27.959898 
L 66.422517 28.159256 
L 66.365553 28.358614 
L 66.276544 28.525922 
L 66.187536 28.693229 
L 66.098527 28.860537 
L 66.009518 29.027844 
L 65.920509 29.195152 
L 65.8315 29.36246 
L 65.742491 29.529767 
L 65.653483 29.697075 
L 65.525302 30.024529 
L 65.397121 30.351982 
L 65.393558 30.686598 
L 65.389995 31.021213 
L 65.386431 31.355828 
L 65.382868 31.690443 
L 65.379305 32.025058 
L 65.375742 32.359673 
L 65.372178 32.694289 
L 65.368615 33.028904 
L 65.34726 33.338595 
L 65.325904 33.648286 
L 65.304549 33.957977 
L 65.283194 34.267668 
L 65.261839 34.577359 
L 65.240484 34.88705 
L 65.219129 35.196741 
L 65.197773 35.506432 
L 65.169044 35.743633 
L 65.140315 35.980833 
L 65.111586 36.218033 
L 65.082856 36.455234 
L 65.054127 36.692434 
L 65.025398 36.929635 
L 64.996668 37.166835 
L 64.967939 37.404036 
" style="fill:none;stroke:#ff0000;stroke-linecap:square;stroke-width:0.416228;"/>
   </g>
   <g id="line2d_72">
    <path clip-path="url(#p61dca3fda3)" d="M 64.459572 23.642267 
L 64.452148 23.897196 
L 64.444725 24.152124 
L 64.437301 24.407052 
L 64.429878 24.66198 
L 64.422454 24.916908 
L 64.41503 25.171836 
L 64.407607 25.426765 
L 64.400183 25.681693 
L 64.243545 26.023399 
L 64.086908 26.365105 
L 63.93027 26.706812 
L 63.773632 27.048518 
L 63.688187 27.262128 
L 63.602741 27.475738 
L 63.517296 27.689349 
L 63.43185 27.902959 
L 63.346405 28.116569 
L 63.260959 28.33018 
L 63.175514 28.54379 
L 63.090069 28.7574 
L 63.033105 28.953177 
L 62.976141 29.148955 
L 62.919178 29.344732 
L 62.862214 29.540509 
L 62.80525 29.736286 
L 62.748287 29.932064 
L 62.691323 30.127841 
L 62.634359 30.323618 
L 62.627233 30.537193 
L 62.620106 30.750768 
L 62.612979 30.964344 
L 62.605853 31.177919 
L 62.609416 31.430635 
L 62.612979 31.683352 
L 62.616543 31.936069 
L 62.620106 32.188785 
L 62.623669 32.441502 
L 62.627233 32.694218 
L 62.630796 32.946935 
L 62.634359 33.199652 
L 62.620106 33.534267 
L 62.605853 33.868882 
L 62.591599 34.203497 
L 62.577346 34.538112 
L 62.580909 34.741016 
L 62.584473 34.943919 
L 62.588036 35.146823 
L 62.591599 35.349726 
L 62.595163 35.552629 
L 62.598726 35.755533 
L 62.602289 35.958436 
L 62.605853 36.16134 
L 62.548889 36.46745 
L 62.491925 36.773561 
L 62.434962 37.079671 
L 62.377998 37.385781 
L 62.468912 37.622666 
L 62.559826 37.85955 
L 62.650741 38.096435 
L 62.741655 38.333319 
" style="fill:none;stroke:#ff0000;stroke-linecap:square;stroke-width:0.416228;"/>
   </g>
  </g>
 </g>
 <defs>
  <clipPath id="p61dca3fda3">
   <rect height="72" width="89.905323" x="0" y="0"/>
  </clipPath>
 </defs>
</svg>
