<?xml version="1.0" encoding="utf-8" standalone="no"?>
<!DOCTYPE svg PUBLIC "-//W3C//DTD SVG 1.1//EN"
  "http://www.w3.org/Graphics/SVG/1.1/DTD/svg11.dtd">
<svg height="99.893058pt" version="1.1" viewBox="0 0 72 99.893058" width="72pt" xmlns="http://www.w3.org/2000/svg" xmlns:xlink="http://www.w3.org/1999/xlink">
 <metadata>
  <rdf:RDF xmlns:cc="http://creativecommons.org/ns#" xmlns:dc="http://purl.org/dc/elements/1.1/" xmlns:rdf="http://www.w3.org/1999/02/22-rdf-syntax-ns#">
   <cc:Work>
    <dc:type rdf:resource="http://purl.org/dc/dcmitype/StillImage"/>
    <dc:date>2022-05-22T20:05:16.613673</dc:date>
    <dc:format>image/svg+xml</dc:format>
    <dc:creator>
     <cc:Agent>
      <dc:title>Matplotlib v3.4.3, https://matplotlib.org/</dc:title>
     </cc:Agent>
    </dc:creator>
   </cc:Work>
  </rdf:RDF>
 </metadata>
 <defs>
  <style type="text/css">*{stroke-linecap:butt;stroke-linejoin:round;}</style>
 </defs>
 <g id="figure_1">
  <g id="patch_1">
   <path d="M 0 99.893058 
L 72 99.893058 
L 72 0 
L 0 0 
z
" style="fill:#ffffff;"/>
  </g>
  <g id="axes_1">
   <g id="line2d_1">
    <path clip-path="url(#pc95be775d6)" d="M 64.648831 86.278713 
L 63.796447 84.553842 
L 63.18928 83.32576 
L 62.582113 82.097679 
L 61.872211 80.661444 
L 61.162308 79.225209 
L 60.27143 77.422715 
L 60.180942 77.240096 
L 60.107452 77.090978 
L 59.203576 75.261928 
L 58.342443 73.520307 
L 57.481311 71.778686 
L 56.942385 70.687875 
L 56.674422 70.145738 
" style="fill:none;stroke:#808080;stroke-linecap:square;stroke-width:0.4;"/>
   </g>
   <g id="line2d_2">
    <path clip-path="url(#pc95be775d6)" d="M 64.274382 86.886626 
L 63.802446 86.104673 
L 63.659966 85.869352 
L 63.113541 84.963611 
L 62.138674 83.349456 
L 61.51276 82.312572 
L 60.469402 80.584433 
L 59.76 79.409462 
L 58.906116 77.995493 
L 58.287451 76.970866 
L 57.668786 75.946239 
L 56.654924 74.267125 
L 55.641063 72.588011 
L 54.71494 71.054134 
L 53.788816 69.520258 
L 53.582845 69.179124 
L 52.674219 67.67405 
L 51.765593 66.168975 
L 51.27466 65.355974 
L 50.123568 63.449505 
L 48.972475 61.543037 
L 48.088596 60.078817 
L 47.537172 59.165722 
L 47.284706 58.747374 
L 46.677789 57.742254 
L 46.070872 56.737135 
L 45.463955 55.732016 
L 44.857038 54.726897 
L 44.740554 54.534064 
L 43.880172 53.109167 
L 43.01979 51.684269 
L 42.159407 50.259371 
L 41.299025 48.834474 
L 40.526631 47.554915 
L 39.606007 46.030129 
L 38.685383 44.505342 
L 37.764759 42.980556 
L 36.844135 41.455769 
L 35.808526 39.740703 
L 34.772918 38.025638 
L 34.552448 37.660808 
L 34.063015 36.849849 
L 33.364361 35.693058 
L 32.665706 34.536267 
L 32.030543 33.484064 
L 31.39538 32.43186 
L 30.456008 30.876126 
L 29.623622 29.4977 
L 28.76499 28.075764 
L 27.906357 26.653829 
L 27.047725 25.231893 
L 26.189092 23.809957 
L 25.313212 22.359424 
L 24.437332 20.90889 
L 23.736928 19.748626 
L 22.924289 18.40268 
L 22.11165 17.056733 
L 21.170029 15.497322 
L 20.228408 13.937912 
L 19.079565 12.035324 
L 18.295672 10.737382 
L 17.626014 9.62839 
L 16.956355 8.519399 
L 16.018984 6.967342 
L 15.102609 5.450011 
L 14.830646 4.999388 
L 14.553684 4.540594 
" style="fill:none;stroke:#808080;stroke-linecap:square;stroke-width:0.4;"/>
   </g>
   <g id="line2d_3">
    <path clip-path="url(#pc95be775d6)" d="M 25.291715 57.306032 
L 25.076744 56.683003 
L 24.484325 54.965078 
L 24.107689 53.873398 
L 23.731053 52.781719 
L 23.354417 51.69004 
L 22.977782 50.59836 
L 22.601146 49.506681 
L 22.22451 48.415002 
L 21.847874 47.323322 
L 21.471238 46.231643 
L 20.812578 44.322723 
L 20.153918 42.413804 
L 19.574122 40.732953 
L 18.994326 39.052103 
L 18.414531 37.371253 
L 17.834735 35.690403 
L 17.448538 34.570994 
L 17.062341 33.451584 
L 16.676144 32.332175 
L 16.289946 31.212766 
L 15.629287 29.297922 
L 14.968627 27.383079 
L 14.573806 26.238749 
L 14.178985 25.094418 
L 13.784164 23.950088 
L 13.389343 22.805757 
L 12.931906 21.479829 
L 12.474468 20.153901 
L 11.88005 18.430869 
L 11.285631 16.707837 
L 10.594726 14.705156 
L 9.90382 12.702476 
L 9.237911 10.772516 
L 8.572002 8.842557 
L 8.29504 8.038952 
L 7.827604 6.684221 
" style="fill:none;stroke:#808080;stroke-linecap:square;stroke-width:0.4;"/>
   </g>
   <g id="line2d_4">
    <path clip-path="url(#pc95be775d6)" d="M 67.843894 81.68219 
L 66.791038 79.821683 
" style="fill:none;stroke:#808080;stroke-linecap:square;stroke-width:0.4;"/>
   </g>
   <g id="line2d_5">
    <path clip-path="url(#pc95be775d6)" d="M 56.674422 70.145738 
L 57.032123 69.927576 
L 57.389824 69.709413 
L 57.751024 69.700221 
L 58.112225 69.691029 
L 58.58791 69.812264 
L 59.063595 69.9335 
L 59.53928 70.054735 
L 60.014965 70.17597 
L 60.498274 70.459499 
L 60.981582 70.743029 
L 61.464891 71.026558 
L 61.9482 71.310087 
L 62.229537 71.581768 
L 62.510873 71.85345 
L 62.79221 72.125131 
L 63.073546 72.396813 
L 63.288767 72.668086 
L 63.503987 72.939358 
L 63.749266 73.24832 
L 63.994545 73.557281 
L 64.239824 73.866242 
L 64.485103 74.175203 
L 64.730382 74.484164 
L 64.975661 74.793125 
L 65.22094 75.102086 
L 65.466219 75.411047 
L 65.691563 75.795793 
L 65.916907 76.180539 
L 66.142251 76.565284 
L 66.367596 76.95003 
L 66.581941 77.315983 
L 66.796287 77.681936 
L 67.010633 78.047889 
L 67.224978 78.413842 
L 67.364147 78.745834 
L 67.503315 79.077827 
L 67.642484 79.40982 
L 67.781652 79.741812 
L 67.920821 80.073805 
L 68.059989 80.405798 
L 68.199157 80.73779 
L 68.338326 81.069783 
L 68.221842 81.554724 
L 68.105358 82.039665 
L 67.769154 82.550651 
L 67.43295 83.061637 
L 67.096746 83.572623 
L 66.760542 84.083609 
L 66.499702 84.354779 
L 66.238863 84.62595 
L 65.978024 84.897121 
L 65.717185 85.168292 
L 65.450096 85.445897 
L 65.183008 85.723502 
L 64.915919 86.001108 
L 64.648831 86.278713 
" style="fill:none;stroke:#008000;stroke-linecap:square;stroke-width:0.4;"/>
   </g>
   <g id="line2d_6">
    <path clip-path="url(#pc95be775d6)" d="M 27.125464 66.655959 
L 27.634957 66.673271 
L 28.14445 66.690583 
L 28.653942 66.707895 
L 29.163435 66.725207 
L 29.672928 66.742519 
L 30.182421 66.759831 
L 30.691914 66.777143 
L 31.201406 66.794455 
" style="fill:none;stroke:#008000;stroke-linecap:square;stroke-width:0.4;"/>
   </g>
   <g id="line2d_7">
    <path clip-path="url(#pc95be775d6)" d="M 32.552222 42.571093 
L 32.205019 43.077993 
L 31.857817 43.584894 
L 31.510614 44.091794 
L 31.163412 44.598694 
L 31.003309 45.13838 
L 30.843205 45.678066 
L 30.683102 46.217752 
L 30.522999 46.757438 
L 30.678478 47.214803 
L 30.833957 47.672167 
L 30.989435 48.129532 
L 31.144914 48.586896 
L 31.455997 48.911586 
L 31.767079 49.236276 
L 32.078162 49.560966 
L 32.389244 49.885656 
L 32.945168 50.065007 
L 33.468596 50.233327 
L 33.813862 50.189868 
L 34.159127 50.146409 
L 34.504392 50.10295 
L 34.849657 50.059491 
L 35.194923 50.016033 
L 35.540188 49.972574 
L 35.885453 49.929115 
L 36.230718 49.885656 
L 36.646911 50.041209 
L 37.063105 50.196762 
L 37.479298 50.352315 
L 37.895491 50.507868 
L 38.351178 50.964773 
L 38.806866 51.421678 
L 39.262554 51.878582 
L 39.718241 52.335487 
L 40.173929 52.792392 
L 40.629617 53.249297 
L 41.085304 53.706202 
L 41.540992 54.163107 
L 41.978057 54.580638 
L 42.415122 54.99817 
L 42.852188 55.415701 
L 43.289253 55.833233 
L 43.726318 56.250764 
L 44.163383 56.668296 
L 44.600448 57.085827 
L 45.037514 57.503359 
L 45.305852 57.862264 
L 45.57419 58.22117 
L 45.842528 58.580075 
L 46.110867 58.938981 
L 46.182107 59.598778 
L 46.253347 60.258576 
L 46.233975 60.640258 
L 46.214603 61.02194 
L 46.19523 61.403621 
L 46.175858 61.785303 
L 46.519561 62.355528 
L 46.863264 62.925752 
L 47.206967 63.495977 
L 47.55067 64.066202 
L 47.744768 64.37026 
L 47.938867 64.674319 
L 48.132965 64.978377 
L 48.327064 65.282436 
L 48.363309 65.796384 
L 48.399554 66.310331 
L 48.430549 66.744205 
L 48.17346 67.180784 
L 47.91637 67.617364 
L 47.65928 68.053944 
L 47.40219 68.490524 
L 47.1451 68.927104 
L 46.88801 69.363683 
L 46.630921 69.800263 
L 46.373831 70.236843 
L 46.300841 70.696659 
L 46.227851 71.156475 
L 46.154861 71.61629 
L 46.081871 72.076106 
L 46.283093 72.643164 
L 46.484316 73.210223 
L 46.854765 73.429815 
L 47.225214 73.649407 
L 47.595664 73.868999 
L 47.966113 74.088591 
L 48.510289 74.289799 
L 49.054464 74.491007 
L 49.59864 74.692214 
L 50.142815 74.893422 
L 50.458397 75.391947 
L 50.773979 75.890473 
L 51.089561 76.388998 
L 51.405142 76.887523 
L 51.560996 77.247756 
L 51.71685 77.60799 
L 51.872704 77.968223 
L 52.028557 78.328456 
L 52.163289 78.640022 
L 52.29802 78.951587 
L 52.432752 79.263153 
L 52.567483 79.574718 
L 52.702215 79.886284 
L 52.836947 80.197849 
L 52.971678 80.509415 
L 53.10641 80.82098 
L 53.320131 81.399069 
L 53.533851 81.977158 
L 53.747572 82.555247 
L 53.961293 83.133336 
L 54.149517 83.64279 
L 54.337741 84.152244 
L 54.525966 84.661698 
L 54.71419 85.171152 
" style="fill:none;stroke:#008000;stroke-linecap:square;stroke-width:0.4;"/>
   </g>
   <g id="line2d_8">
    <path clip-path="url(#pc95be775d6)" d="M 52.028557 78.328456 
L 52.464873 78.14931 
L 52.901188 77.970163 
L 53.337503 77.791017 
L 53.773818 77.611871 
L 54.369112 77.428537 
L 54.964406 77.245203 
L 55.559699 77.061869 
L 56.154993 76.878535 
" style="fill:none;stroke:#000000;stroke-linecap:square;stroke-width:0.4;"/>
   </g>
   <g id="line2d_9">
    <path clip-path="url(#pc95be775d6)" d="M 50.142815 74.893422 
L 50.665494 74.489373 
L 51.188172 74.085323 
L 51.736847 73.884115 
L 52.285522 73.682908 
L 52.851945 73.636334 
L 53.418367 73.58976 
L 53.98479 73.543186 
L 54.551212 73.496612 
" style="fill:none;stroke:#000000;stroke-linecap:square;stroke-width:0.4;"/>
   </g>
   <g id="line2d_10">
    <path clip-path="url(#pc95be775d6)" d="M 48.399554 66.310331 
L 48.710636 66.556274 
L 49.021719 66.802218 
L 49.332801 67.048161 
L 49.643883 67.294104 
L 49.908972 67.604597 
L 50.174061 67.91509 
L 50.43915 68.225583 
L 50.704238 68.536076 
L 50.959578 68.795604 
L 51.214919 69.055131 
L 51.470259 69.314658 
L 51.725599 69.574185 
L 51.980939 69.833713 
L 52.236279 70.09324 
L 52.491619 70.352767 
L 52.746959 70.612295 
L 53.042419 70.912778 
L 53.337878 71.213262 
" style="fill:none;stroke:#000000;stroke-linecap:square;stroke-width:0.4;"/>
   </g>
   <g id="line2d_11">
    <path clip-path="url(#pc95be775d6)" d="M 28.200817 46.029822 
L 28.61576 46.276174 
L 29.030703 46.522526 
L 29.221427 46.842722 
L 29.412151 47.162918 
L 29.602875 47.483114 
L 29.793599 47.80331 
L 30.07831 48.139541 
L 30.363021 48.475772 
L 30.753968 48.531334 
L 31.144914 48.586896 
" style="fill:none;stroke:#008000;stroke-linecap:square;stroke-width:0.4;"/>
   </g>
   <g id="line2d_12">
    <path clip-path="url(#pc95be775d6)" d="M 16.171463 50.409817 
L 16.430615 50.822446 
L 16.689767 51.235075 
L 16.948919 51.647704 
L 17.208071 52.060333 
L 17.467223 52.472962 
L 17.726375 52.885591 
L 17.985527 53.29822 
L 18.244679 53.710849 
L 18.564885 54.049327 
L 18.885091 54.387806 
L 19.205298 54.726284 
L 19.525504 55.064762 
L 19.965944 55.305803 
L 20.406383 55.546844 
L 20.846823 55.787884 
L 21.287263 56.028925 
L 21.595283 56.207969 
L 21.903304 56.387013 
L 22.211324 56.566058 
L 22.519344 56.745102 
L 22.827365 56.924146 
L 23.135385 57.10319 
L 23.443405 57.282234 
L 23.751426 57.461279 
L 24.136498 57.422467 
L 24.52157 57.383655 
L 24.906643 57.344844 
L 25.291715 57.306032 
" style="fill:none;stroke:#008000;stroke-linecap:square;stroke-width:0.4;"/>
   </g>
   <g id="line2d_13">
    <path clip-path="url(#pc95be775d6)" d="M 60.164444 63.734873 
L 60.313361 64.081216 
L 60.462278 64.427558 
L 60.611196 64.773901 
L 60.760113 65.120244 
L 60.90903 65.466587 
L 61.057947 65.81293 
L 61.206864 66.159272 
L 61.355781 66.505615 
L 61.548192 66.811257 
L 61.740604 67.116898 
L 61.933015 67.42254 
L 62.125426 67.728182 
L 62.317837 68.033823 
L 62.510248 68.339465 
L 62.702659 68.645106 
L 62.895071 68.950748 
L 63.153785 69.413219 
L 63.4125 69.875691 
L 63.671214 70.338162 
L 63.929929 70.800633 
L 64.188644 71.263104 
L 64.447358 71.725576 
L 64.706073 72.188047 
L 64.964787 72.650518 
L 65.249374 73.226156 
L 65.53396 73.801794 
L 65.818546 74.377432 
L 66.103132 74.953069 
L 66.169248 75.45231 
L 66.235364 75.95155 
L 66.30148 76.45079 
L 66.367596 76.95003 
" style="fill:none;stroke:#008000;stroke-linecap:square;stroke-width:0.4;"/>
   </g>
   <g id="line2d_14">
    <path clip-path="url(#pc95be775d6)" d="M 63.503987 72.939358 
L 63.410375 73.51612 
L 63.316763 74.092881 
L 63.223151 74.669642 
L 63.129539 75.246404 
L 62.893446 75.534223 
L 62.657353 75.822042 
L 62.42126 76.10986 
L 62.185168 76.397679 
L 62.117302 76.83431 
L 62.049436 77.270941 
L 61.981571 77.707572 
L 61.913705 78.144203 
L 62.152922 78.758652 
L 62.392139 79.373102 
L 62.631357 79.987551 
L 62.870574 80.602001 
L 63.06461 80.951305 
L 63.258646 81.30061 
L 63.452682 81.649915 
L 63.646718 81.99922 
L 63.840754 82.348524 
L 64.03479 82.697829 
L 64.228826 83.047134 
L 64.422862 83.396438 
L 64.746442 83.839402 
L 65.070023 84.282365 
L 65.393604 84.725328 
L 65.717185 85.168292 
" style="fill:none;stroke:#008000;stroke-linecap:square;stroke-width:0.4;"/>
   </g>
   <g id="line2d_15">
    <path clip-path="url(#pc95be775d6)" d="M 48.678516 56.046901 
L 48.827433 56.371642 
L 48.97635 56.696383 
L 49.125267 57.021124 
L 49.274184 57.345865 
L 49.423101 57.670606 
L 49.572018 57.995347 
L 49.720935 58.320088 
L 49.869853 58.644829 
L 50.08651 59.042648 
L 50.303168 59.440468 
L 50.519826 59.838287 
L 50.736484 60.236106 
L 50.953142 60.633925 
L 51.1698 61.031745 
L 51.386458 61.429564 
L 51.603115 61.827383 
L 51.818148 62.181488 
L 52.033182 62.535593 
L 52.248215 62.889699 
L 52.463248 63.243804 
L 52.678281 63.597909 
L 52.893314 63.952014 
L 53.108347 64.306119 
L 53.32338 64.660224 
L 53.679081 64.867253 
L 54.034783 65.074283 
L 54.390484 65.281312 
L 54.746185 65.488342 
L 55.176377 65.808538 
L 55.606568 66.128734 
L 56.036759 66.44893 
L 56.46695 66.769126 
L 56.631802 67.07635 
L 56.796655 67.383575 
L 56.961507 67.6908 
L 57.12636 67.998025 
L 57.372826 68.421276 
L 57.619292 68.844527 
L 57.865759 69.267778 
L 58.112225 69.691029 
" style="fill:none;stroke:#4169e1;stroke-linecap:square;stroke-width:0.4;"/>
   </g>
   <g id="line2d_16">
    <path clip-path="url(#pc95be775d6)" d="M 38.126959 33.903025 
L 38.255191 34.227306 
L 38.383424 34.551588 
L 38.511656 34.875869 
L 38.639889 35.200151 
L 38.685633 35.630041 
L 38.731376 36.059931 
L 38.77712 36.48982 
L 38.822864 36.91971 
L 38.701693 37.278769 
L 38.580522 37.637828 
L 38.459351 37.996886 
L 38.33818 38.355945 
L 38.217009 38.715004 
L 38.095838 39.074062 
L 37.974667 39.433121 
L 37.853496 39.79218 
L 37.725389 40.167223 
L 37.597281 40.542266 
L 37.469174 40.917309 
L 37.341067 41.292352 
L 37.434866 41.747418 
L 37.528666 42.202484 
L 37.622466 42.657551 
L 37.716265 43.112617 
L 37.810065 43.567684 
L 37.903865 44.02275 
L 37.997664 44.477817 
L 38.091464 44.932883 
L 38.328744 45.344184 
L 38.566024 45.755485 
L 38.803304 46.166787 
L 39.040584 46.578088 
L 39.277864 46.989389 
L 39.515144 47.40069 
L 39.752424 47.811991 
L 39.989704 48.223293 
" style="fill:none;stroke:#4169e1;stroke-linecap:square;stroke-width:0.4;"/>
   </g>
   <g id="line2d_17">
    <path clip-path="url(#pc95be775d6)" d="M 39.989704 48.223293 
L 40.251418 48.676776 
L 40.513133 49.130259 
L 40.774847 49.583742 
L 41.036561 50.037226 
L 41.477876 50.437445 
L 41.91919 50.837665 
L 42.360505 51.237884 
L 42.801819 51.638104 
L 43.243134 52.038323 
L 43.684449 52.438542 
L 44.125763 52.838762 
L 44.567078 53.238981 
L 44.969835 53.54115 
L 45.372593 53.843319 
L 45.77535 54.145488 
L 46.178108 54.447657 
L 46.580865 54.749826 
L 46.983622 55.051995 
L 47.38638 55.354164 
L 47.789137 55.656333 
L 48.233826 55.851617 
L 48.678516 56.046901 
" style="fill:none;stroke:#008000;stroke-linecap:square;stroke-width:0.4;"/>
   </g>
   <g id="line2d_18">
    <path clip-path="url(#pc95be775d6)" d="M 25.900632 6.13759 
L 26.222463 6.702606 
L 26.544294 7.267622 
L 26.866125 7.832637 
L 27.187956 8.397653 
L 27.338935 8.813857 
L 27.489914 9.23006 
L 27.640894 9.646264 
L 27.791873 10.062468 
L 27.86505 10.410087 
L 27.938228 10.757707 
L 28.011405 11.105326 
L 28.084583 11.452946 
L 28.15776 11.800565 
L 28.230938 12.148185 
L 28.304115 12.495804 
L 28.377293 12.843424 
L 28.516774 13.275663 
L 28.656255 13.707902 
L 28.795736 14.140141 
L 28.935217 14.57238 
L 29.074697 15.004619 
L 29.214178 15.436858 
L 29.353659 15.869097 
L 29.49314 16.301336 
L 29.662367 16.783826 
L 29.831594 17.266316 
L 30.000821 17.748806 
L 30.170048 18.231296 
L 30.339274 18.713785 
L 30.508501 19.196275 
L 30.677728 19.678765 
L 30.846955 20.161255 
L 31.073361 20.529455 
L 31.299768 20.897655 
L 31.526175 21.265855 
L 31.752581 21.634054 
L 31.978988 22.002254 
L 32.205394 22.370454 
L 32.431801 22.738654 
L 32.658207 23.106854 
L 32.964603 23.543638 
L 33.270998 23.980422 
L 33.577394 24.417206 
L 33.88379 24.85399 
L 34.190185 25.290774 
L 34.496581 25.727558 
L 34.802976 26.164343 
L 35.109372 26.601127 
L 35.292284 26.989907 
L 35.475197 27.378687 
L 35.658109 27.767467 
L 35.841022 28.156248 
L 36.023934 28.545028 
L 36.206847 28.933808 
L 36.389759 29.322588 
L 36.572672 29.711368 
L 36.700779 30.068129 
L 36.828887 30.42489 
L 36.956994 30.78165 
L 37.085102 31.138411 
L 37.213209 31.495172 
L 37.341317 31.851932 
L 37.469424 32.208693 
L 37.597531 32.565454 
L 37.729888 32.899846 
L 37.862245 33.234239 
L 37.994602 33.568632 
L 38.126959 33.903025 
L 37.879305 34.350074 
L 37.631652 34.797122 
L 37.383998 35.244171 
L 37.136345 35.69122 
L 36.888691 36.138269 
L 36.641037 36.585317 
L 36.393384 37.032366 
L 36.14573 37.479415 
L 35.862206 37.852211 
L 35.578683 38.225007 
L 35.295159 38.597803 
L 35.011635 38.970599 
L 34.728112 39.343395 
L 34.444588 39.716191 
L 34.161064 40.088987 
L 33.87754 40.461783 
L 33.546211 40.98911 
L 33.214881 41.516438 
L 32.883551 42.043765 
L 32.552222 42.571093 
" style="fill:none;stroke:#008000;stroke-linecap:square;stroke-width:0.4;"/>
   </g>
   <g id="line2d_19">
    <path clip-path="url(#pc95be775d6)" d="M 25.291715 57.306032 
L 25.679537 57.371603 
L 26.067359 57.437175 
L 26.455181 57.502746 
L 26.843003 57.568317 
L 27.140212 57.778717 
L 27.437421 57.989117 
L 27.734631 58.199517 
L 28.03184 58.409917 
L 28.301678 58.807838 
L 28.571516 59.205759 
L 28.841354 59.603681 
L 29.111192 60.001602 
L 29.392466 60.468108 
L 29.67374 60.934614 
L 29.955014 61.401119 
L 30.236289 61.867625 
L 30.517563 62.33413 
L 30.798837 62.800636 
L 31.080111 63.267142 
L 31.361385 63.733647 
L 31.524612 64.083361 
L 31.68784 64.433074 
L 31.851068 64.782787 
L 32.014295 65.1325 
L 32.177523 65.482214 
L 32.340751 65.831927 
L 32.503978 66.18164 
L 32.667206 66.531353 
L 32.860929 66.837812 
L 33.054653 67.144271 
L 33.248376 67.450729 
L 33.4421 67.757188 
L 33.635823 68.063647 
L 33.829547 68.370106 
L 34.02327 68.676564 
L 34.216994 68.983023 
" style="fill:none;stroke:#4169e1;stroke-linecap:square;stroke-width:0.4;"/>
   </g>
   <g id="line2d_20">
    <path clip-path="url(#pc95be775d6)" d="M 42.57985 79.091615 
L 42.713956 79.578293 
L 42.848063 80.06497 
L 42.98217 80.551648 
L 43.116276 81.038325 
L 43.310312 81.390847 
L 43.504348 81.743369 
L 43.698384 82.095891 
L 43.89242 82.448413 
L 44.086456 82.800935 
L 44.280492 83.153457 
L 44.474528 83.505979 
L 44.668564 83.858501 
L 45.124502 84.152755 
L 45.580439 84.447008 
L 46.036377 84.741262 
L 46.492315 85.035515 
L 46.867451 85.166504 
L 47.242587 85.297494 
L 47.617723 85.428483 
L 47.992859 85.559472 
L 48.367995 85.690461 
L 48.743132 85.821451 
L 49.118268 85.95244 
L 49.493404 86.083429 
L 50.065826 86.351842 
L 50.638247 86.620255 
L 51.210669 86.888668 
L 51.783091 87.157082 
L 52.032057 87.396437 
L 52.281023 87.635792 
L 52.529989 87.875148 
L 52.778955 88.114503 
L 53.02792 88.353859 
L 53.276886 88.593214 
L 53.525852 88.83257 
L 53.774818 89.071925 
L 54.104648 89.563505 
L 54.434478 90.055085 
L 54.764308 90.546665 
L 55.094138 91.038245 
L 55.462837 91.283984 
L 55.831537 91.529723 
L 56.233232 91.698451 
L 56.634927 91.86718 
" style="fill:none;stroke:#008000;stroke-linecap:square;stroke-width:0.4;"/>
   </g>
   <g id="line2d_21">
    <path clip-path="url(#pc95be775d6)" d="M 9.692349 15.281203 
L 11.858865 18.546844 
L 14.727316 21.458304 
L 18.450276 25.571291 
L 21.066293 28.182803 
L 21.432243 28.66754 
L 22.200638 32.564636 
L 23.462715 35.098423 
L 24.313474 36.758846 
L 28.200817 46.029822 
L 28.376855 48.147252 
L 27.931041 51.438377 
L 26.71902 54.966916 
L 26.49955 55.854068 
L 25.291715 57.306032 
L 26.115602 58.378867 
L 25.4022 60.007322 
L 25.47519 61.470725 
L 27.395927 63.739367 
L 32.7092 67.888739 
L 35.426828 69.763035 
L 38.089339 71.287719 
L 38.48291 71.535194 
L 40.367777 75.888532 
L 42.029675 78.366859 
L 43.043286 79.609649 
L 46.37958 81.612942 
L 54.288998 85.033983 
L 54.71419 85.171152 
L 55.921525 87.69595 
L 56.634927 91.86718 
L 57.439817 93.111195 
L 59.584024 94.006722 
L 59.584024 94.006722 
" style="fill:none;stroke:#008000;stroke-linecap:square;stroke-width:0.4;"/>
   </g>
   <g id="line2d_22">
    <path clip-path="url(#pc95be775d6)" d="M 29.690613 6.8362 
L 29.766853 7.303012 
L 29.843092 7.769824 
L 29.919332 8.236636 
L 29.995571 8.703448 
L 30.071811 9.17026 
L 30.148051 9.637072 
L 30.22429 10.103884 
L 30.30053 10.570696 
L 30.517125 11.185248 
L 30.73372 11.799799 
L 30.950316 12.414351 
L 31.166911 13.028902 
L 31.32539 13.370087 
L 31.483868 13.711272 
L 31.642346 14.052457 
L 31.800824 14.393642 
L 31.959303 14.734827 
L 32.117781 15.076012 
L 32.276259 15.417197 
L 32.434738 15.758382 
L 32.635273 16.146498 
L 32.835808 16.534614 
L 33.036343 16.922731 
L 33.236878 17.310847 
L 33.437413 17.698963 
L 33.637948 18.08708 
L 33.838483 18.475196 
L 34.039018 18.863312 
L 34.339727 19.425979 
L 34.640436 19.988645 
L 34.941145 20.551312 
L 35.241854 21.113979 
L 35.463386 21.578084 
L 35.684918 22.042189 
L 35.90645 22.506295 
L 36.127982 22.9704 
L 36.349515 23.434506 
L 36.571047 23.898611 
L 36.792579 24.362717 
L 37.014111 24.826822 
L 37.123971 25.276424 
L 37.233831 25.726026 
L 37.343691 26.175629 
L 37.453551 26.625231 
L 37.747886 27.061862 
L 38.042221 27.498492 
L 38.336555 27.935123 
L 38.63089 28.371754 
L 38.831363 28.832591 
L 39.031835 29.293428 
L 39.232308 29.754266 
L 39.43278 30.215103 
L 39.633253 30.67594 
L 39.833726 31.136777 
L 40.034198 31.597614 
L 40.234671 32.058451 
L 40.506384 32.446567 
L 40.778096 32.834684 
L 41.049809 33.2228 
L 41.321522 33.610916 
L 41.508246 34.234354 
L 41.694971 34.857791 
L 41.498373 35.191673 
L 41.301775 35.525556 
L 41.105177 35.859438 
L 40.908578 36.19332 
L 40.926826 36.531798 
L 40.945073 36.870277 
L 40.963321 37.208755 
L 40.981568 37.547233 
L 41.148483 37.8971 
L 41.315398 38.246966 
L 41.482312 38.596833 
L 41.649227 38.946699 
L 41.816142 39.296565 
L 41.983056 39.646432 
L 42.149971 39.996298 
L 42.316886 40.346165 
L 42.479239 40.736094 
L 42.641591 41.126023 
L 42.803944 41.515953 
L 42.966297 41.905882 
L 43.12865 42.295811 
L 43.291003 42.68574 
L 43.453355 43.07567 
L 43.615708 43.465599 
L 43.778061 43.855528 
L 43.940414 44.245457 
L 44.102766 44.635387 
L 44.265119 45.025316 
L 44.427472 45.415245 
L 44.589825 45.805174 
L 44.752178 46.195104 
L 44.91453 46.585033 
L 45.120377 47.044696 
L 45.326224 47.504358 
L 45.532071 47.964021 
L 45.737918 48.423683 
L 45.943765 48.883346 
L 46.149611 49.343008 
L 46.355458 49.802671 
L 46.561305 50.262333 
L 46.904758 50.66148 
L 47.248211 51.060627 
L 47.591664 51.459774 
L 47.935117 51.858921 
" style="fill:none;stroke:#4169e1;stroke-linecap:square;stroke-width:0.4;"/>
   </g>
   <g id="line2d_23">
    <path clip-path="url(#pc95be775d6)" d="M 53.495856 60.125799 
L 53.997038 60.442727 
L 54.498219 60.759655 
L 54.999401 61.076582 
L 55.500582 61.39351 
L 56.058256 61.740976 
L 56.61593 62.088443 
L 57.173603 62.435909 
L 57.731277 62.783375 
L 58.339569 63.02125 
L 58.947861 63.259124 
L 59.556152 63.496998 
L 60.164444 63.734873 
L 60.518833 63.878936 
L 60.873222 64.022998 
L 61.227611 64.167061 
L 61.582 64.311124 
L 61.936389 64.455186 
L 62.290778 64.599249 
L 62.645167 64.743312 
L 62.999556 64.887374 
L 63.379129 65.358425 
L 63.758702 65.829476 
L 64.138276 66.300526 
L 64.517849 66.771577 
L 64.771689 67.350177 
L 65.025529 67.928776 
L 65.279369 68.507376 
L 65.53321 69.085976 
L 65.78705 69.664576 
L 66.04089 70.243176 
L 66.294731 70.821775 
L 66.548571 71.400375 
L 66.68474 71.730121 
L 66.820909 72.059866 
L 66.957077 72.389612 
L 67.093246 72.719358 
L 67.229415 73.049103 
L 67.365584 73.378849 
L 67.501753 73.708595 
L 67.637922 74.038341 
L 67.774091 74.368086 
L 67.910259 74.697832 
L 68.046428 75.027578 
L 68.182597 75.357323 
L 68.318766 75.687069 
L 68.454935 76.016815 
L 68.591104 76.34656 
L 68.727273 76.676306 
L 68.704651 77.248676 
L 68.682029 77.821045 
L 68.659407 78.393414 
L 68.636785 78.965784 
L 68.548047 79.592898 
L 68.459309 80.220013 
L 68.398818 80.644898 
L 68.338326 81.069783 
" style="fill:none;stroke:#008000;stroke-linecap:square;stroke-width:0.4;"/>
   </g>
   <g id="line2d_24">
    <path clip-path="url(#pc95be775d6)" d="M 14.553684 4.540594 
L 17.86898 4.896741 
L 23.074268 5.309677 
L 24.590936 5.642742 
L 25.900632 6.13759 
L 28.500776 6.37046 
L 31.592353 7.638171 
L 32.303756 8.751043 
L 33.565583 12.181379 
L 34.638749 15.511162 
L 36.614228 19.43083 
L 38.791368 22.888692 
L 39.774609 25.692424 
L 40.38265 28.926148 
L 43.346245 34.122004 
L 44.078145 35.878333 
L 46.470943 38.801258 
L 47.854128 41.462306 
L 48.04004 43.550014 
L 47.836381 51.2984 
L 48.390805 53.894489 
L 48.682015 54.994084 
L 48.678516 56.046901 
L 52.176537 58.418088 
L 53.495856 60.125799 
L 53.32338 64.660224 
L 53.32338 64.660224 
" style="fill:none;stroke:#4169e1;stroke-linecap:square;stroke-width:0.4;"/>
   </g>
   <g id="line2d_25">
    <path clip-path="url(#pc95be775d6)" d="M 11.228639 5.843439 
L 11.528535 6.205613 
L 11.828432 6.567787 
L 12.128328 6.92996 
L 12.428225 7.292134 
L 12.728121 7.654308 
L 13.028018 8.016482 
L 13.327914 8.378656 
L 13.627811 8.740829 
L 13.828486 9.054131 
L 14.029162 9.367433 
L 14.229838 9.680735 
L 14.430513 9.994037 
L 14.631189 10.307339 
L 14.831865 10.62064 
L 15.03254 10.933942 
L 15.233216 11.247244 
L 15.433892 11.560546 
L 15.634567 11.873848 
L 15.835243 12.187149 
L 16.035919 12.500451 
L 16.236594 12.813753 
L 16.43727 13.127055 
L 16.637946 13.440357 
L 16.838621 13.753659 
L 17.039297 14.06696 
L 17.239973 14.380262 
L 17.440648 14.693564 
L 17.641324 15.006866 
L 17.842 15.320168 
L 18.042675 15.633469 
L 18.243351 15.946771 
L 18.444027 16.260073 
L 18.644702 16.573375 
L 18.845378 16.886677 
L 19.046054 17.199978 
L 19.246729 17.51328 
L 19.447405 17.826582 
L 19.648081 18.139884 
L 19.848756 18.453186 
L 20.049432 18.766488 
L 20.324988 19.203297 
L 20.600544 19.640107 
L 20.8761 20.076916 
L 21.151656 20.513726 
L 21.427212 20.950536 
L 21.702768 21.387345 
L 21.978324 21.824155 
L 22.253881 22.260965 
L 22.529437 22.697774 
L 22.804993 23.134584 
L 23.080549 23.571393 
L 23.356105 24.008203 
L 23.631661 24.445013 
L 23.907217 24.881822 
L 24.182773 25.318632 
L 24.458329 25.755442 
L 24.686985 26.141924 
L 24.915641 26.528406 
L 25.144298 26.914888 
L 25.372954 27.30137 
L 25.60161 27.687852 
L 25.830266 28.074335 
L 26.058922 28.460817 
L 26.287579 28.847299 
L 26.516235 29.233781 
L 26.744891 29.620263 
L 26.973547 30.006745 
L 27.202204 30.393228 
L 27.43086 30.77971 
L 27.659516 31.166192 
L 27.888172 31.552674 
L 28.116828 31.939156 
L 28.255434 32.271404 
L 28.394041 32.603652 
L 28.532647 32.9359 
L 28.671253 33.268148 
L 28.809859 33.600396 
L 28.948465 33.932644 
L 29.087071 34.264892 
L 29.225677 34.59714 
L 29.364283 34.929388 
L 29.502889 35.261636 
L 29.641495 35.593884 
L 29.780101 35.926133 
L 29.918707 36.258381 
L 30.057313 36.590629 
L 30.195919 36.922877 
L 30.334525 37.255125 
L 30.473131 37.587373 
L 30.611737 37.919621 
L 30.750343 38.251869 
L 30.888949 38.584117 
L 31.027555 38.916365 
L 31.166161 39.248613 
L 31.304767 39.580861 
L 31.443373 39.913109 
L 31.581979 40.245357 
L 31.720585 40.577605 
L 31.859191 40.909853 
L 31.997798 41.242101 
L 32.136404 41.574349 
L 32.27501 41.906597 
L 32.413616 42.238845 
L 32.552222 42.571093 
L 32.7122 43.033053 
L 32.872178 43.495014 
L 33.032156 43.956975 
L 33.192134 44.418935 
L 33.450536 44.734535 
L 33.708938 45.050135 
L 33.967341 45.365735 
L 34.225743 45.681335 
L 34.484145 45.996935 
L 34.742547 46.312534 
L 35.000949 46.628134 
L 35.259351 46.943734 
L 35.716789 47.053428 
L 36.174226 47.163122 
L 36.651161 47.295643 
L 37.128096 47.428165 
L 37.60503 47.560686 
L 38.081965 47.693207 
L 38.5589 47.825729 
L 39.035835 47.95825 
L 39.512769 48.090771 
L 39.989704 48.223293 
" style="fill:none;stroke:#4169e1;stroke-linecap:square;stroke-width:0.4;"/>
   </g>
   <g id="line2d_26">
    <path clip-path="url(#pc95be775d6)" d="M 32.945168 50.065007 
L 32.902674 50.678026 
L 32.86018 51.291046 
L 33.080149 51.743916 
L 33.300119 52.196787 
L 33.536212 52.546092 
L 33.772305 52.895396 
L 34.008397 53.244701 
L 34.24449 53.594006 
L 34.503205 53.928756 
L 34.761919 54.263506 
L 35.020634 54.598257 
L 35.279349 54.933007 
L 35.538063 55.267757 
L 35.796778 55.602508 
L 36.055492 55.937258 
L 36.314207 56.272008 
L 36.498557 56.616411 
L 36.682907 56.960813 
L 36.867256 57.305215 
L 37.051606 57.649617 
L 37.235956 57.994019 
L 37.420306 58.338422 
L 37.604655 58.682824 
L 37.789005 59.027226 
L 37.869744 59.496234 
L 37.950483 59.965242 
L 38.031222 60.43425 
L 38.111961 60.903258 
L 38.506657 61.349592 
L 38.901353 61.795925 
L 39.370289 62.158099 
L 39.839225 62.520273 
L 40.308161 62.882447 
L 40.777096 63.244621 
L 40.964571 63.713527 
L 41.152045 64.182432 
L 41.33952 64.651338 
L 41.526994 65.120244 
L 41.588485 65.540737 
L 41.649977 65.961231 
L 41.711469 66.381724 
L 41.77296 66.802218 
L 41.966934 67.319638 
L 42.160907 67.837058 
L 42.329134 68.296261 
L 42.497361 68.755464 
L 42.846563 69.234277 
L 43.195766 69.71309 
L 43.816681 69.842394 
L 44.437596 69.971698 
L 44.921654 70.037985 
L 45.405713 70.104271 
L 45.889772 70.170557 
L 46.373831 70.236843 
" style="fill:none;stroke:#4169e1;stroke-linecap:square;stroke-width:0.4;"/>
   </g>
   <g id="line2d_27">
    <path clip-path="url(#pc95be775d6)" d="M 11.228639 5.843439 
L 9.969686 10.650668 
L 9.339335 19.564833 
L 9.236536 21.79165 
L 9.517935 24.542272 
L 9.83483 27.118343 
L 9.860826 27.84269 
L 9.420886 29.214171 
L 9.214664 32.11146 
L 9.521122 34.018745 
L 10.230025 36.186783 
L 10.833693 37.380547 
L 12.210755 38.619966 
L 12.992897 39.594036 
L 16.171463 50.409817 
L 16.381684 55.193862 
L 16.427428 55.825062 
L 17.324305 58.206462 
L 18.948083 60.493489 
L 19.867457 61.481347 
L 22.280127 62.622 
L 22.280127 62.622 
" style="fill:none;stroke:#4169e1;stroke-linecap:square;stroke-width:0.4;"/>
   </g>
   <g id="line2d_28">
    <path clip-path="url(#pc95be775d6)" d="M 22.280127 62.622 
L 22.652076 62.784601 
L 23.024025 62.947201 
L 23.289239 63.173534 
L 23.554453 63.399867 
L 23.819666 63.6262 
L 24.08488 63.852533 
L 24.421334 64.40897 
L 24.757788 64.965406 
L 24.96476 65.469753 
L 25.171731 65.9741 
L 25.570177 66.253544 
L 26.100854 66.363238 
L 26.631532 66.472932 
L 27.125464 66.655959 
L 27.288942 66.987543 
L 27.452419 67.319127 
L 27.615897 67.650712 
L 27.779375 67.982296 
L 27.942852 68.31388 
L 28.10633 68.645464 
L 28.269808 68.977048 
L 28.433285 69.308632 
L 28.609386 69.692867 
L 28.785487 70.077103 
L 28.961588 70.461338 
L 29.137689 70.845573 
L 29.31379 71.229808 
L 29.489891 71.614043 
L 29.665992 71.998278 
L 29.842092 72.382514 
L 30.083372 72.934047 
L 30.324651 73.485581 
L 30.565931 74.037115 
L 30.80721 74.588649 
L 31.04849 75.140182 
L 31.289769 75.691716 
L 31.531049 76.24325 
L 31.772328 76.794784 
L 32.087598 77.341364 
L 32.402867 77.887944 
L 32.718136 78.434524 
L 33.033406 78.981104 
L 33.348675 79.527685 
L 33.663945 80.074265 
L 33.979214 80.620845 
L 34.294483 81.167425 
L 34.630812 81.646034 
L 34.967141 82.124642 
L 35.30347 82.603251 
L 35.639799 83.08186 
L 36.173476 83.463542 
L 36.707153 83.845224 
L 37.24083 84.226905 
L 37.774507 84.608587 
L 38.311309 84.902841 
L 38.84811 85.197094 
L 39.384912 85.491347 
L 39.921713 85.785601 
L 40.380901 86.008768 
L 40.840088 86.231935 
L 41.299275 86.455102 
L 41.758462 86.678269 
L 41.994555 87.037276 
L 42.230648 87.396284 
L 42.46674 87.755291 
L 42.702833 88.114299 
L 42.845064 88.719148 
L 42.987294 89.323996 
L 43.129525 89.928845 
L 43.271755 90.533694 
L 43.404362 90.992897 
L 43.536969 91.4521 
L 43.669576 91.911303 
L 43.802183 92.370505 
L 44.132012 92.574267 
L 44.461842 92.778028 
L 44.791672 92.981789 
L 45.121502 93.18555 
L 45.46433 93.224361 
L 45.807158 93.263173 
L 46.149986 93.301985 
L 46.492815 93.340796 
L 46.905977 93.418011 
L 47.319139 93.495226 
L 47.732301 93.57244 
L 48.145463 93.649655 
L 48.558626 93.72687 
L 48.971788 93.804085 
L 49.38495 93.881299 
L 49.798112 93.958514 
L 50.211275 94.035729 
L 50.624437 94.112944 
L 51.037599 94.190158 
L 51.450761 94.267373 
L 51.863923 94.344588 
L 52.277086 94.421802 
L 52.690248 94.499017 
L 53.10341 94.576232 
L 53.512479 94.673261 
L 53.921548 94.77029 
L 54.330617 94.867319 
L 54.739686 94.964348 
L 55.148755 95.061377 
L 55.557824 95.158406 
L 55.966893 95.255436 
L 56.375962 95.352465 
L 57.009876 95.274841 
L 57.643789 95.197218 
L 58.128848 94.899594 
L 58.613906 94.60197 
L 59.098965 94.304346 
L 59.584024 94.006722 
L 59.881483 93.651085 
L 60.178942 93.295448 
L 60.518521 92.832977 
L 60.858099 92.370505 
L 61.197678 91.908034 
L 61.537256 91.445563 
L 61.707108 90.993918 
L 61.87696 90.542273 
L 62.046812 90.090628 
L 62.216663 89.638983 
L 62.380891 89.20225 
L 62.545118 88.765517 
" style="fill:none;stroke:#008000;stroke-linecap:square;stroke-width:0.4;"/>
   </g>
   <g id="line2d_29">
    <path clip-path="url(#pc95be775d6)" d="M 7.827604 6.684221 
L 8.383028 6.964074 
L 9.353145 9.875355 
L 10.318763 13.306916 
L 11.910702 19.316834 
L 17.87073 36.679844 
L 20.120735 40.151085 
L 22.327433 44.816652 
L 23.208 47.77798 
L 23.226497 49.973493 
L 21.59822 53.943515 
L 21.23227 55.004706 
L 21.287263 56.028925 
L 22.283127 57.834279 
L 22.748563 59.722976 
L 22.436856 61.987532 
L 22.280127 62.622 
L 22.280127 62.622 
" style="fill:none;stroke:#000000;stroke-linecap:square;stroke-width:0.4;"/>
   </g>
   <g id="line2d_30">
    <path clip-path="url(#pc95be775d6)" d="M 7.827604 6.684221 
L 7.54983 6.882825 
L 7.272055 7.081428 
L 6.994281 7.280031 
L 6.716506 7.478634 
L 6.438732 7.677238 
L 6.160957 7.875841 
L 5.883183 8.074444 
L 5.605408 8.273047 
L 5.361879 8.553206 
L 5.11835 8.833365 
L 4.874821 9.113523 
L 4.631291 9.393682 
L 4.387762 9.673841 
L 4.144233 9.953999 
L 3.900704 10.234158 
L 3.657175 10.514317 
L 3.561063 10.859638 
L 3.464951 11.20496 
L 3.368839 11.550281 
L 3.272727 11.895603 
L 3.343718 12.437536 
L 3.414708 12.979469 
L 3.485698 13.521402 
L 3.556688 14.063334 
L 3.726915 14.580244 
L 3.897142 15.097154 
L 4.067369 15.614064 
L 4.237595 16.130973 
L 4.561051 16.683937 
L 4.884507 17.236901 
L 5.207963 17.789864 
L 5.531418 18.342828 
L 5.596097 18.677578 
L 5.660776 19.012329 
L 5.725454 19.347079 
L 5.790133 19.681829 
L 5.854812 20.01658 
L 5.91949 20.35133 
L 5.984169 20.68608 
L 6.048847 21.020831 
L 6.113464 21.596468 
L 6.17808 22.172106 
L 6.242696 22.747744 
L 6.307312 23.323382 
L 6.244258 23.858676 
L 6.181204 24.39397 
L 6.118151 24.929264 
L 6.055097 25.464559 
L 5.992043 25.999853 
L 5.928989 26.535147 
L 5.865935 27.070441 
L 5.802881 27.605735 
L 5.731766 28.029395 
L 5.660651 28.453054 
L 5.589535 28.876714 
L 5.51842 29.300374 
L 5.568538 29.641559 
L 5.618656 29.982743 
L 5.668774 30.323928 
L 5.718893 30.665113 
L 5.769011 31.006298 
L 5.819129 31.347483 
L 5.869247 31.688668 
L 5.919365 32.029853 
L 6.171581 32.502129 
L 6.423796 32.974406 
L 6.590336 33.286482 
L 6.756876 33.598558 
L 6.923415 33.910634 
L 7.089955 34.22271 
L 7.256495 34.534786 
L 7.423034 34.846863 
L 7.589574 35.158939 
L 7.756114 35.471015 
L 7.853226 35.833189 
L 7.950337 36.195363 
L 8.047449 36.557537 
L 8.144561 36.91971 
L 8.487264 37.282088 
L 8.829967 37.644467 
L 9.360394 37.896742 
L 9.890822 38.149018 
L 10.405626 38.185582 
L 10.920431 38.222147 
L 11.435236 38.258712 
L 11.95004 38.295276 
" style="fill:none;stroke:#4169e1;stroke-linecap:square;stroke-width:0.4;"/>
   </g>
   <g id="line2d_31">
    <path clip-path="url(#pc95be775d6)" d="M 54.71419 85.171152 
L 55.188562 84.955083 
L 55.662935 84.739015 
L 56.137308 84.522946 
L 56.61168 84.306878 
L 57.086053 84.090809 
L 57.560425 83.874741 
L 58.034798 83.658672 
L 58.509171 83.442604 
" style="fill:none;stroke:#ff0000;stroke-linecap:square;stroke-width:0.4;"/>
   </g>
   <g id="line2d_32">
    <path clip-path="url(#pc95be775d6)" d="M 53.32338 64.660224 
L 53.340628 65.091033 
L 53.357875 65.521842 
L 53.375123 65.952651 
L 53.392371 66.383461 
L 53.291759 66.7631 
L 53.191148 67.142739 
L 53.090537 67.522378 
L 52.989926 67.902017 
L 52.889314 68.281656 
L 52.788703 68.661295 
L 52.688092 69.040934 
L 52.587481 69.420573 
L 52.77508 69.868745 
L 52.962679 70.316918 
L 53.150279 70.76509 
L 53.337878 71.213262 
L 53.641212 71.7841 
L 53.944545 72.354937 
L 54.247879 72.925774 
L 54.551212 73.496612 
L 54.865169 74.08757 
L 55.179126 74.678528 
L 55.493083 75.269486 
L 55.80704 75.860445 
L 55.981016 76.36949 
L 56.154993 76.878535 
L 56.302972 77.312 
L 56.43058 77.685409 
L 56.558188 78.058817 
L 56.685795 78.432226 
L 56.813403 78.805635 
L 56.911702 79.15785 
L 57.010001 79.510066 
L 57.1083 79.862282 
L 57.206599 80.214497 
L 57.304898 80.566713 
L 57.403197 80.918928 
L 57.501496 81.271144 
L 57.599795 81.62336 
L 57.827139 82.078171 
L 58.054483 82.532982 
L 58.281827 82.987793 
L 58.509171 83.442604 
L 58.667399 83.758612 
L 58.825627 84.074621 
L 59.018351 84.452268 
L 59.211075 84.829916 
L 59.403798 85.207563 
L 59.596522 85.58521 
L 59.789245 85.962858 
L 59.981969 86.340505 
L 60.174693 86.718153 
L 60.367416 87.0958 
L 60.599885 87.550918 
L 61.004079 88.072934 
L 61.408274 88.59495 
L 61.812469 89.116967 
L 62.216663 89.638983 
" style="fill:none;stroke:#4169e1;stroke-linecap:square;stroke-width:0.4;"/>
   </g>
   <g id="line2d_33">
    <path clip-path="url(#pc95be775d6)" d="M 56.154993 76.878535 
L 56.399209 77.126521 
L 56.643426 77.374507 
L 56.887642 77.622493 
L 57.131859 77.870479 
L 57.376076 78.118465 
L 57.620292 78.366451 
L 57.864509 78.614437 
L 58.108725 78.862422 
L 58.29395 79.171154 
L 58.479175 79.479885 
L 58.664399 79.788616 
L 58.849624 80.097347 
L 59.034849 80.406079 
L 59.220073 80.71481 
L 59.405298 81.023541 
L 59.590523 81.332272 
L 59.775747 81.641004 
L 59.960972 81.949735 
L 60.146197 82.258466 
L 60.331421 82.567197 
L 60.516646 82.875928 
L 60.701871 83.18466 
L 60.887095 83.493391 
L 61.07232 83.802122 
L 61.34672 84.229765 
L 61.62112 84.657408 
L 61.89552 85.085051 
L 62.16992 85.512694 
L 62.44432 85.940337 
L 62.71872 86.36798 
L 62.99312 86.795623 
L 63.26752 87.223266 
L 63.770951 87.054946 
L 64.274382 86.886626 
" style="fill:none;stroke:#008000;stroke-linecap:square;stroke-width:0.4;"/>
   </g>
   <g id="line2d_34">
    <path clip-path="url(#pc95be775d6)" d="M 5.605408 8.273047 
L 5.779009 8.871768 
L 5.952611 9.470488 
L 6.126212 10.069209 
L 6.299813 10.667929 
L 6.404924 11.180243 
L 6.510034 11.692556 
L 6.615145 12.20487 
L 6.720256 12.717184 
L 6.818617 13.094525 
L 6.916979 13.471866 
L 7.01534 13.849207 
L 7.113702 14.226548 
L 7.212063 14.603889 
L 7.310425 14.98123 
L 7.408786 15.358571 
L 7.507148 15.735912 
L 7.644379 16.229841 
L 7.78161 16.72377 
L 7.918842 17.217699 
L 8.056073 17.711628 
L 8.210177 18.019772 
L 8.364281 18.327916 
L 8.518385 18.63606 
L 8.672489 18.944204 
L 8.826592 19.252348 
L 8.980696 19.560492 
L 9.1348 19.868636 
L 9.288904 20.17678 
" style="fill:none;stroke:#000000;stroke-linecap:square;stroke-width:0.4;"/>
   </g>
   <g id="line2d_35">
    <path clip-path="url(#pc95be775d6)" d="M 16.493919 4.815135 
L 16.851995 5.073436 
L 17.210071 5.331738 
L 17.568147 5.59004 
L 17.926223 5.848341 
L 18.284299 6.106643 
L 18.642375 6.364945 
L 19.000451 6.623246 
L 19.358527 6.881548 
L 19.720727 7.198476 
L 20.082928 7.515403 
L 20.445128 7.832331 
L 20.807328 8.149258 
L 21.01755 8.459752 
L 21.227771 8.770245 
L 21.437992 9.080738 
L 21.648213 9.391231 
L 21.851936 9.860239 
L 22.055658 10.329247 
L 22.25938 10.798255 
L 22.463102 11.267263 
L 22.712068 11.742705 
L 22.961034 12.218148 
L 23.21 12.69359 
L 23.458966 13.169033 
L 23.716056 13.43096 
L 23.973145 13.692888 
L 24.230235 13.954815 
L 24.487325 14.216743 
L 24.744415 14.47867 
L 25.001505 14.740598 
L 25.258594 15.002525 
L 25.515684 15.264452 
L 25.907006 15.633163 
L 26.298327 16.001874 
L 26.689649 16.370584 
L 27.08097 16.739295 
L 27.381804 17.259983 
L 27.682638 17.780672 
L 27.983472 18.301361 
L 28.284306 18.822049 
L 28.35867 19.320166 
L 28.433035 19.818283 
L 28.5074 20.3164 
L 28.581765 20.814516 
L 28.659379 21.374017 
L 28.736994 21.933517 
L 28.814608 22.493017 
L 28.892222 23.052518 
L 29.134689 23.653996 
L 29.377156 24.255474 
L 29.619623 24.856952 
L 29.86209 25.45843 
L 30.090121 25.922536 
L 30.318152 26.386641 
L 30.546184 26.850747 
L 30.774215 27.314852 
L 31.002246 27.778958 
L 31.230278 28.243063 
L 31.458309 28.707168 
L 31.68634 29.171274 
L 31.86744 29.604636 
L 32.048541 30.037999 
L 32.229641 30.471362 
L 32.410741 30.904724 
L 32.598215 31.52571 
L 32.78569 32.146696 
L 32.957041 32.732139 
L 33.128393 33.317582 
L 33.299744 33.903025 
L 33.471096 34.488468 
L 33.674943 34.83767 
L 33.87879 35.186873 
L 34.082637 35.536076 
L 34.286484 35.885278 
L 34.751296 36.283812 
L 35.216107 36.682347 
L 35.680919 37.080881 
L 36.14573 37.479415 
" style="fill:none;stroke:#4169e1;stroke-linecap:square;stroke-width:0.4;"/>
   </g>
   <g id="line2d_36">
    <path clip-path="url(#pc95be775d6)" d="M 36.14573 37.479415 
L 36.359201 37.768511 
L 36.572672 38.057606 
L 36.786142 38.346702 
L 36.999613 38.635797 
L 37.213084 38.924893 
L 37.426555 39.213989 
L 37.640026 39.503084 
L 37.853496 39.79218 
" style="fill:none;stroke:#000000;stroke-linecap:square;stroke-width:0.4;"/>
   </g>
   <g id="line2d_37">
    <path clip-path="url(#pc95be775d6)" d="M 56.077503 88.607411 
L 56.613742 88.41846 
L 57.149982 88.229508 
L 57.686221 88.040557 
L 58.22246 87.851606 
L 58.758699 87.662654 
L 59.294938 87.473703 
L 59.831177 87.284751 
L 60.367416 87.0958 
" style="fill:none;stroke:#ff0000;stroke-linecap:square;stroke-width:0.4;"/>
   </g>
   <g id="line2d_38">
    <path clip-path="url(#pc95be775d6)" d="M 46.373831 70.236843 
L 46.758028 70.271722 
L 47.142226 70.306602 
L 47.526423 70.341481 
L 47.910621 70.376361 
L 48.294818 70.41124 
L 48.679015 70.446119 
L 49.063213 70.480999 
L 49.44741 70.515878 
L 49.793113 70.645489 
L 50.138816 70.775099 
L 50.484518 70.90471 
L 50.830221 71.03432 
L 51.34865 70.796548 
L 51.759094 70.839853 
L 52.253026 70.726074 
L 52.746959 70.612295 
" style="fill:none;stroke:#000000;stroke-linecap:square;stroke-width:0.4;"/>
   </g>
   <g id="line2d_39">
    <path clip-path="url(#pc95be775d6)" d="M 53.961293 83.133336 
L 54.12577 82.743586 
L 54.290248 82.353835 
L 54.454725 81.964085 
L 54.619203 81.574334 
L 54.662697 81.187239 
L 54.706191 80.800144 
L 54.814176 80.359326 
L 54.922161 79.918507 
L 54.985903 79.504449 
L 55.049644 79.09039 
L 55.15113 78.751707 
L 55.252616 78.413025 
L 55.485834 78.123163 
L 55.719052 77.833301 
L 56.011012 77.572651 
L 56.302972 77.312 
" style="fill:none;stroke:#008000;stroke-linecap:square;stroke-width:0.4;"/>
   </g>
  </g>
 </g>
 <defs>
  <clipPath id="pc95be775d6">
   <rect height="99.893058" width="72" x="0" y="0"/>
  </clipPath>
 </defs>
</svg>
