<?xml version="1.0" encoding="utf-8" standalone="no"?>
<!DOCTYPE svg PUBLIC "-//W3C//DTD SVG 1.1//EN"
  "http://www.w3.org/Graphics/SVG/1.1/DTD/svg11.dtd">
<svg height="69.982889pt" version="1.1" viewBox="0 0 72 69.982889" width="72pt" xmlns="http://www.w3.org/2000/svg" xmlns:xlink="http://www.w3.org/1999/xlink">
 <metadata>
  <rdf:RDF xmlns:cc="http://creativecommons.org/ns#" xmlns:dc="http://purl.org/dc/elements/1.1/" xmlns:rdf="http://www.w3.org/1999/02/22-rdf-syntax-ns#">
   <cc:Work>
    <dc:type rdf:resource="http://purl.org/dc/dcmitype/StillImage"/>
    <dc:date>2022-05-22T18:18:42.641147</dc:date>
    <dc:format>image/svg+xml</dc:format>
    <dc:creator>
     <cc:Agent>
      <dc:title>Matplotlib v3.4.3, https://matplotlib.org/</dc:title>
     </cc:Agent>
    </dc:creator>
   </cc:Work>
  </rdf:RDF>
 </metadata>
 <defs>
  <style type="text/css">*{stroke-linecap:butt;stroke-linejoin:round;}</style>
 </defs>
 <g id="figure_1">
  <g id="patch_1">
   <path d="M 0 69.982889 
L 72 69.982889 
L 72 0 
L 0 0 
z
" style="fill:#ffffff;"/>
  </g>
  <g id="axes_1">
   <g id="line2d_1">
    <path clip-path="url(#p03780ed281)" d="M 3.272727 59.099903 
L 3.616299 58.7188 
L 4.229263 58.038895 
L 4.842226 57.35899 
L 5.404714 56.734927 
L 5.967201 56.110865 
L 6.529689 55.486802 
L 7.092176 54.862739 
L 8.130329 53.711289 
L 8.836064 52.928349 
L 9.5418 52.145408 
L 10.247535 51.362468 
L 10.953271 50.579527 
L 11.816291 49.62219 
L 12.412522 48.960793 
L 13.008753 48.299396 
L 13.604984 47.637999 
L 14.201215 46.976602 
L 14.76454 46.351522 
L 15.327864 45.726442 
L 15.895743 45.096464 
L 16.463622 44.466486 
L 17.031501 43.836509 
L 17.59938 43.206531 
L 18.716918 41.966547 
L 19.834457 40.726563 
L 20.41442 40.083229 
L 20.994384 39.439895 
L 21.574347 38.796561 
L 22.154311 38.153226 
L 22.991675 37.223874 
L 23.694157 36.444559 
L 24.396638 35.665244 
L 25.09912 34.885929 
L 25.801602 34.106614 
L 26.436132 33.40254 
L 27.070662 32.698466 
L 27.831614 31.854341 
L 28.592567 31.010215 
L 29.105694 30.44085 
L 29.843964 29.646589 
L 30.582235 28.852327 
L 31.636283 27.718367 
L 32.690331 26.584407 
L 33.74438 25.450448 
L 34.798428 24.316488 
L 35.218597 23.862879 
L 36.349335 22.743993 
L 37.119305 21.981023 
L 37.889274 21.218054 
L 38.659243 20.455084 
L 39.429212 19.692115 
L 40.328486 18.800924 
L 41.227759 17.909733 
L 42.224081 16.922503 
L 43.220402 15.935273 
L 43.879287 15.282335 
L 44.538172 14.629397 
L 45.459941 13.716073 
" style="fill:none;stroke:#808080;stroke-linecap:square;stroke-width:0.4;"/>
   </g>
   <g id="line2d_2">
    <path clip-path="url(#p03780ed281)" d="M 35.906856 55.416077 
L 36.190192 54.178 
L 36.473527 52.939924 
L 36.741431 51.769648 
L 37.009336 50.599371 
L 37.320558 49.24007 
L 37.631781 47.880768 
L 37.975911 46.377472 
L 38.32004 44.874175 
L 38.574001 43.764321 
L 38.827961 42.654466 
L 39.194959 41.051442 
L 39.491494 39.755615 
L 39.788029 38.459788 
L 39.97692 37.635506 
L 40.168692 36.797741 
L 40.360463 35.959976 
L 40.552235 35.12221 
L 40.744007 34.284445 
L 40.998897 33.171156 
L 41.253788 32.057867 
L 41.598103 30.55368 
L 41.942419 29.049493 
L 42.235236 27.769948 
L 42.528053 26.490404 
L 42.823101 25.201446 
L 43.118149 23.912488 
L 43.421563 22.586514 
L 43.724977 21.26054 
L 43.95607 20.251304 
L 44.187163 19.242067 
L 44.44633 18.109571 
L 44.705496 16.977074 
L 44.82411 16.459354 
L 44.921902 16.031694 
L 45.053158 15.458767 
" style="fill:none;stroke:#808080;stroke-linecap:square;stroke-width:0.4;"/>
   </g>
   <g id="line2d_3">
    <path clip-path="url(#p03780ed281)" d="M 46.740156 52.693912 
L 46.979243 51.297975 
L 47.151587 50.29281 
L 47.32393 49.287644 
L 47.532156 48.072083 
L 47.740381 46.856522 
L 47.935407 45.718046 
L 48.130432 44.579571 
L 48.353717 43.276366 
L 48.577001 41.973162 
L 48.853644 40.358434 
L 49.130286 38.743707 
L 49.359334 37.406794 
L 49.62761 35.840786 
L 49.895886 34.274778 
L 50.056889 33.335885 
L 50.217892 32.396993 
L 50.397115 31.350613 
L 50.576337 30.304233 
L 50.773594 29.152974 
L 50.97085 28.001714 
L 51.168106 26.850455 
L 51.365363 25.699195 
L 51.592366 24.374239 
L 51.819369 23.049282 
L 51.990039 22.052766 
" style="fill:none;stroke:#808080;stroke-linecap:square;stroke-width:0.4;"/>
   </g>
   <g id="line2d_4">
    <path clip-path="url(#p03780ed281)" d="M 46.597744 53.841291 
L 45.222713 53.722229 
" style="fill:none;stroke:#808080;stroke-linecap:square;stroke-width:0.4;"/>
   </g>
   <g id="line2d_5">
    <path clip-path="url(#p03780ed281)" d="M 44.874679 13.197335 
L 44.081935 12.678852 
L 43.656188 12.023751 
L 43.662881 11.565054 
L 43.988884 10.407879 
L 44.114656 9.388594 
L 43.733157 8.578813 
L 43.31429 7.731635 
L 42.830352 6.33519 
L 42.793168 5.795336 
L 43.165371 4.864458 
L 44.094949 3.80434 
L 45.212302 3.308244 
L 45.638048 3.18104 
L 46.913429 3.351494 
L 48.017767 4.112173 
L 49.680038 6.856599 
L 50.445755 9.10097 
L 53.360237 17.454597 
L 53.38738 18.409899 
L 53.128214 19.037778 
L 53.223775 19.597221 
L 54.042547 19.815503 
L 57.860509 19.013864 
L 58.111866 19.051007 
L 61.69669 21.384945 
L 64.75277 22.108227 
L 66.190455 23.323915 
L 68.562552 25.882114 
L 68.727273 26.458857 
L 68.266202 27.282884 
L 65.497676 29.742341 
L 57.294582 33.956768 
L 56.718243 34.747722 
L 56.718243 34.747722 
" style="fill:none;stroke:#008000;stroke-linecap:square;stroke-width:0.4;"/>
   </g>
   <g id="line2d_6">
    <path clip-path="url(#p03780ed281)" d="M 57.183776 44.467122 
L 56.730514 44.380878 
L 56.277252 44.294634 
L 55.967377 44.141576 
L 55.657502 43.988518 
L 55.347627 43.835459 
L 55.037753 43.682401 
L 54.727878 43.529343 
L 54.418003 43.376285 
L 54.108128 43.223227 
L 53.798254 43.070169 
" style="fill:none;stroke:#008000;stroke-linecap:square;stroke-width:0.4;"/>
   </g>
   <g id="line2d_7">
    <path clip-path="url(#p03780ed281)" d="M 52.664913 46.198368 
L 52.389014 46.407015 
L 52.113115 46.615661 
L 51.837216 46.824307 
L 51.561318 47.032954 
L 51.285419 47.2416 
L 51.00952 47.450246 
L 50.733622 47.658893 
L 50.457723 47.867539 
L 50.292351 48.088683 
L 50.126979 48.309827 
L 49.961607 48.530971 
L 49.796236 48.752115 
L 49.630864 48.973259 
L 49.465492 49.194403 
L 49.30012 49.415548 
L 49.134748 49.636692 
L 48.835424 50.018844 
L 48.5361 50.400997 
L 48.236776 50.783149 
L 47.937452 51.165302 
L 47.638128 51.547454 
L 47.338804 51.929607 
L 47.03948 52.311759 
L 46.740156 52.693912 
" style="fill:none;stroke:#4169e1;stroke-linecap:square;stroke-width:0.4;"/>
   </g>
   <g id="line2d_8">
    <path clip-path="url(#p03780ed281)" d="M 56.409252 47.08727 
L 55.921781 47.009167 
L 55.434311 46.931063 
L 54.94684 46.85296 
L 54.459369 46.774857 
L 54.010755 46.630735 
L 53.562141 46.486613 
L 53.113527 46.342491 
L 52.664913 46.198368 
L 52.336307 46.095842 
L 52.007701 45.993316 
L 51.679095 45.890789 
L 51.35049 45.788263 
" style="fill:none;stroke:#008000;stroke-linecap:square;stroke-width:0.4;"/>
   </g>
   <g id="line2d_9">
    <path clip-path="url(#p03780ed281)" d="M 29.897694 41.210447 
L 29.526978 41.27901 
L 29.156263 41.347572 
L 28.725496 41.30585 
L 28.29473 41.264127 
L 27.836076 41.143664 
L 27.377423 41.023202 
L 27.157391 40.828644 
L 26.93736 40.634085 
L 26.717329 40.439527 
L 26.497298 40.244968 
L 26.176873 39.956406 
L 25.856447 39.667844 
L 25.536022 39.379282 
L 25.215596 39.09072 
" style="fill:none;stroke:#008000;stroke-linecap:square;stroke-width:0.4;"/>
   </g>
   <g id="line2d_10">
    <path clip-path="url(#p03780ed281)" d="M 29.105694 30.44085 
L 29.367463 30.817628 
L 29.629232 31.194406 
L 29.543525 31.562725 
L 29.457818 31.931045 
L 29.37211 32.299364 
L 29.286403 32.667683 
L 29.24922 33.038228 
L 29.212037 33.408773 
L 29.26995 33.795664 
L 29.327863 34.182555 
L 29.385775 34.569446 
L 29.443688 34.956336 
L 29.390423 35.308373 
L 29.337158 35.66041 
L 29.283894 36.012447 
L 29.230629 36.364484 
L 29.179688 36.744379 
L 29.128747 37.124274 
L 29.077806 37.504168 
L 29.026865 37.884063 
L 29.056984 38.159714 
L 29.087102 38.435365 
L 29.11722 38.711016 
L 29.147339 38.986667 
L 29.24922 39.288903 
L 29.351102 39.59114 
L 29.48775 39.995967 
L 29.624398 40.400793 
L 29.761046 40.80562 
L 29.897694 41.210447 
L 29.986887 41.49885 
L 30.07608 41.787253 
L 30.165273 42.075656 
L 30.254466 42.364059 
L 30.343659 42.652463 
L 30.432852 42.940866 
L 30.522045 43.229269 
L 30.611238 43.517672 
L 30.688393 43.839307 
L 30.765548 44.160943 
L 30.842703 44.482578 
L 30.919857 44.804213 
L 31.347463 45.022495 
L 31.639351 45.013336 
L 31.931238 45.004178 
L 32.180737 44.893129 
L 32.430235 44.782079 
L 32.848174 44.596362 
L 33.13374 44.501213 
L 33.419306 44.406065 
L 33.743961 44.599764 
L 34.068616 44.793464 
L 34.393271 44.987164 
L 34.717926 45.180864 
L 35.042581 45.374564 
L 35.367236 45.568264 
L 35.691891 45.761963 
L 36.016546 45.955663 
L 36.296349 46.109834 
L 36.576152 46.264006 
L 36.855955 46.418177 
L 37.135758 46.572348 
L 37.508147 46.777401 
L 37.880536 46.982454 
L 38.145651 47.030282 
L 38.410767 47.078111 
L 38.809556 47.167663 
L 39.208345 47.257214 
L 39.517987 47.618664 
L 39.827629 47.980114 
L 40.137272 48.341564 
L 40.446914 48.703015 
L 40.501109 49.015491 
L 40.555303 49.327968 
L 40.609497 49.640444 
L 40.663692 49.952921 
L 40.719838 50.255094 
L 40.775985 50.557267 
L 40.832131 50.85944 
L 40.888278 51.161613 
L 40.987278 51.432684 
L 41.086278 51.703756 
L 41.185278 51.974828 
L 41.284278 52.245899 
L 41.539354 52.513155 
L 41.79443 52.78041 
L 42.049413 52.871488 
L 42.304396 52.962566 
L 42.55938 53.053645 
L 42.814363 53.144723 
L 43.124098 53.108279 
L 43.433833 53.071835 
L 43.743569 53.035391 
L 44.053304 52.998947 
" style="fill:none;stroke:#008000;stroke-linecap:square;stroke-width:0.4;"/>
   </g>
   <g id="line2d_11">
    <path clip-path="url(#p03780ed281)" d="M 45.459941 13.716073 
L 45.222899 14.106589 
L 44.985856 14.497105 
L 45.019507 14.977936 
L 45.053158 15.458767 
L 45.095733 15.743927 
L 45.138307 16.029086 
L 45.180882 16.314246 
L 45.223457 16.599405 
L 45.266031 16.884565 
L 45.308606 17.169724 
L 45.351181 17.454884 
L 45.393755 17.740043 
L 45.407838 18.056463 
L 45.421921 18.372883 
L 45.436005 18.689303 
L 45.450088 19.005722 
L 45.464171 19.322142 
L 45.478254 19.638562 
L 45.492337 19.954982 
L 45.50642 20.271402 
L 45.534145 20.564846 
L 45.561869 20.858289 
L 45.589594 21.151733 
L 45.617319 21.445177 
L 45.645043 21.73862 
L 45.672768 22.032064 
L 45.700493 22.325507 
L 45.728217 22.618951 
L 45.755942 22.912395 
L 45.783667 23.205838 
L 45.811391 23.499282 
L 45.839116 23.792726 
L 45.866841 24.086169 
L 45.894565 24.379613 
L 45.92229 24.673057 
L 45.950015 24.9665 
L 45.950015 25.279343 
L 45.950015 25.592185 
L 45.950015 25.905027 
L 45.950015 26.217869 
L 45.950015 26.530712 
L 45.950015 26.843554 
L 45.950015 27.156396 
L 45.950015 27.469238 
L 45.950015 27.782081 
L 45.950015 28.094923 
L 45.950015 28.407765 
L 45.950015 28.720607 
L 45.950015 29.03345 
L 45.950015 29.346292 
L 45.950015 29.659134 
L 45.950015 29.971976 
L 45.962285 30.24141 
L 45.974555 30.510844 
L 45.986826 30.780278 
L 45.999096 31.049712 
L 46.011367 31.319146 
L 46.023637 31.58858 
L 46.035908 31.858014 
L 46.048178 32.127447 
L 46.060448 32.396881 
L 46.072719 32.666315 
L 46.084989 32.935749 
L 46.09726 33.205183 
L 46.10953 33.474617 
L 46.121801 33.744051 
L 46.134071 34.013485 
L 46.146341 34.282919 
L 46.146946 34.63847 
L 46.14755 34.994021 
L 46.148154 35.349572 
L 46.148758 35.705123 
L 46.149362 36.060674 
L 46.149967 36.416225 
L 46.150571 36.771776 
L 46.151175 37.127327 
L 46.151779 37.482877 
L 46.152384 37.838428 
L 46.152988 38.193979 
L 46.153592 38.54953 
L 46.154196 38.905081 
L 46.154801 39.260632 
L 46.155405 39.616183 
L 46.156009 39.971734 
L 46.151361 40.235174 
L 46.146713 40.498613 
L 46.142065 40.762053 
L 46.137417 41.025492 
L 46.129237 41.499772 
L 46.121057 41.974052 
L 46.112877 42.448332 
L 46.104696 42.922612 
L 46.099584 43.216421 
L 46.094471 43.510231 
L 46.089358 43.80404 
L 46.084246 44.097849 
L 46.079133 44.391659 
L 46.07402 44.685468 
L 46.068908 44.979277 
L 46.063795 45.273087 
L 46.054406 45.541424 
L 46.045017 45.80976 
L 46.035629 46.078097 
L 46.02624 46.346434 
L 46.0294 46.791902 
L 46.032561 47.23737 
L 46.248781 47.672281 
L 46.465001 48.107191 
" style="fill:none;stroke:#000000;stroke-linecap:square;stroke-width:0.4;"/>
   </g>
   <g id="line2d_12">
    <path clip-path="url(#p03780ed281)" d="M 42.328751 17.319507 
L 42.140047 17.620662 
L 41.951343 17.921817 
L 41.762639 18.222973 
L 41.573934 18.524128 
L 41.436403 18.923771 
L 41.298872 19.323414 
L 41.161341 19.723057 
L 41.02381 20.1227 
L 40.886279 20.522344 
L 40.748748 20.921987 
L 40.611217 21.32163 
L 40.473686 21.721273 
L 40.411451 22.065232 
L 40.349216 22.409192 
L 40.28698 22.753151 
L 40.224745 23.097111 
L 40.16251 23.44107 
L 40.100275 23.78503 
L 40.038039 24.128989 
L 39.975804 24.472949 
L 39.945128 24.913901 
L 39.914452 25.354854 
L 39.883776 25.795807 
L 39.8531 26.236759 
L 39.834601 26.506686 
L 39.816103 26.776613 
L 39.797604 27.046539 
L 39.779105 27.316466 
L 39.657889 27.703039 
L 39.536672 28.089612 
L 39.415455 28.476185 
L 39.294238 28.862758 
L 39.05515 29.129759 
L 38.816063 29.39676 
L 38.576975 29.663761 
L 38.337888 29.930762 
L 38.098801 30.197763 
L 37.859713 30.464764 
L 37.620626 30.731766 
L 37.381538 30.998767 
L 37.156116 31.410081 
L 36.930693 31.821395 
L 36.705271 32.232709 
L 36.479848 32.644023 
L 36.441178 33.091717 
L 36.402507 33.539411 
L 36.363837 33.987106 
L 36.325166 34.4348 
L 36.286496 34.882495 
L 36.247825 35.330189 
L 36.209155 35.777883 
L 36.170485 36.225578 
L 36.206459 36.504027 
L 36.242434 36.782477 
L 36.278409 37.060926 
L 36.314383 37.339376 
L 36.409386 37.601447 
L 36.504389 37.863519 
L 36.599392 38.125591 
L 36.694395 38.387663 
L 36.789397 38.649735 
L 36.8844 38.911807 
L 36.979403 39.173879 
L 37.074406 39.435951 
L 37.239871 39.677639 
L 37.405336 39.919326 
L 37.570801 40.161014 
L 37.736265 40.402701 
L 37.988367 40.770957 
L 38.240468 41.139212 
L 38.431032 41.409553 
L 38.621595 41.679893 
L 38.812159 41.950233 
L 39.002722 42.220573 
L 39.193286 42.490913 
L 39.383849 42.761254 
L 39.574412 43.031594 
L 39.764976 43.301934 
L 39.916683 43.501708 
L 40.06839 43.701482 
L 40.220097 43.901256 
L 40.371804 44.101029 
L 40.523511 44.300803 
L 40.675218 44.500577 
L 40.826926 44.700351 
L 40.978633 44.900125 
L 41.122717 45.121237 
L 41.266802 45.342349 
L 41.410886 45.563462 
L 41.554971 45.784574 
L 41.699055 46.005686 
L 41.84314 46.226799 
L 41.987225 46.447911 
L 42.131309 46.669023 
L 42.249458 46.90435 
L 42.367608 47.139678 
L 42.485757 47.375005 
L 42.603906 47.610332 
L 42.728237 47.853006 
L 42.852568 48.095679 
L 42.976899 48.338353 
L 43.101231 48.581026 
L 43.225562 48.823699 
L 43.349893 49.066373 
L 43.474224 49.309046 
L 43.598555 49.551719 
L 43.824628 49.967804 
L 44.050701 50.383888 
L 44.276775 50.799972 
L 44.502848 51.216056 
L 44.782511 51.400788 
L 45.062175 51.58552 
L 45.341838 51.770252 
L 45.621502 51.954984 
L 45.901165 52.139716 
L 46.180829 52.324448 
L 46.460492 52.50918 
L 46.740156 52.693912 
" style="fill:none;stroke:#000000;stroke-linecap:square;stroke-width:0.4;"/>
   </g>
   <g id="line2d_13">
    <path clip-path="url(#p03780ed281)" d="M 45.459941 13.716073 
L 45.16731 13.456704 
L 44.874679 13.197335 
L 44.508704 13.248344 
L 44.142729 13.299353 
L 43.776755 13.350361 
L 43.41078 13.40137 
L 42.975552 13.619016 
L 42.540323 13.836662 
L 42.28943 14.046549 
L 42.038537 14.256435 
L 41.787644 14.466322 
L 41.536751 14.676208 
L 41.500776 14.974311 
L 41.464802 15.272413 
L 41.428827 15.570516 
L 41.392852 15.868618 
L 41.552926 16.339273 
L 41.712999 16.809928 
L 42.020875 17.064717 
L 42.328751 17.319507 
L 42.523777 17.480929 
L 42.718802 17.64235 
L 42.913828 17.803772 
L 43.108853 17.965194 
L 43.384008 18.229778 
L 43.659163 18.494363 
L 43.89007 18.716492 
L 44.120977 18.938622 
L 44.351884 19.160752 
L 44.582792 19.382882 
L 44.813699 19.605012 
L 45.044606 19.827142 
L 45.275513 20.049272 
L 45.50642 20.271402 
L 45.81755 20.402422 
L 46.128679 20.533442 
L 46.439809 20.664462 
L 46.750939 20.795482 
L 47.10139 20.752869 
L 47.45184 20.710256 
L 47.802291 20.667642 
L 48.152742 20.625029 
L 48.483579 20.507111 
L 48.814415 20.389193 
L 49.145252 20.271275 
L 49.476089 20.153357 
L 49.825238 19.999694 
L 50.175875 19.845523 
L 50.569644 19.924262 
L 50.963413 20.003002 
L 51.305126 20.166331 
L 51.646839 20.329661 
" style="fill:none;stroke:#4169e1;stroke-linecap:square;stroke-width:0.4;"/>
   </g>
   <g id="line2d_14">
    <path clip-path="url(#p03780ed281)" d="M 46.104696 42.922612 
L 45.811833 43.327248 
L 45.518969 43.731884 
L 45.226106 44.136519 
L 44.933242 44.541155 
L 44.640379 44.945791 
L 44.347515 45.350427 
L 44.054652 45.755063 
L 43.761788 46.159698 
L 43.472318 46.522357 
L 43.182847 46.885015 
L 42.893377 47.247674 
L 42.603906 47.610332 
L 42.444019 47.810647 
L 42.284132 48.010961 
L 42.124244 48.211276 
L 41.964357 48.41159 
L 41.80447 48.611905 
L 41.644582 48.812219 
L 41.484695 49.012534 
L 41.324807 49.212848 
L 40.99425 49.582884 
L 40.663692 49.952921 
L 40.472849 50.204403 
L 40.282007 50.455885 
L 40.091165 50.707367 
L 39.900322 50.95885 
L 39.70948 51.210332 
L 39.518638 51.461814 
L 39.327795 51.713296 
L 39.136953 51.964779 
L 38.831029 52.29147 
L 38.525105 52.618162 
L 38.219181 52.944853 
L 37.913257 53.271545 
L 37.607333 53.598236 
L 37.301409 53.924928 
L 36.995485 54.25162 
L 36.689561 54.578311 
L 36.493885 54.787753 
L 36.298209 54.997194 
L 36.102532 55.206635 
L 35.906856 55.416077 
" style="fill:none;stroke:#008000;stroke-linecap:square;stroke-width:0.4;"/>
   </g>
   <g id="line2d_15">
    <path clip-path="url(#p03780ed281)" d="M 29.897694 41.210447 
L 29.698532 41.599118 
L 29.49937 41.98779 
L 29.300208 42.376462 
L 29.101046 42.765133 
L 28.901884 43.153805 
L 28.702722 43.542477 
L 28.50356 43.931149 
L 28.304397 44.31982 
L 28.159802 44.52605 
L 28.015206 44.732279 
L 27.87061 44.938509 
L 27.726014 45.144738 
L 27.581418 45.350967 
L 27.436823 45.557197 
L 27.292227 45.763426 
L 27.147631 45.969656 
L 27.003035 46.175885 
L 26.858439 46.382115 
L 26.713843 46.588344 
L 26.569248 46.794573 
L 26.424652 47.000803 
L 26.280056 47.207032 
L 26.13546 47.413262 
L 25.990864 47.619491 
L 25.75926 47.91947 
L 25.527656 48.219449 
L 25.296051 48.519427 
L 25.064447 48.819406 
L 24.832843 49.119385 
L 24.601239 49.419364 
L 24.369634 49.719342 
L 24.13803 50.019321 
L 23.760435 50.297325 
L 23.382841 50.57533 
L 23.005246 50.853334 
L 22.627652 51.131338 
L 22.370531 51.448648 
L 22.11341 51.765959 
L 21.856288 52.083269 
L 21.599167 52.400579 
L 21.356454 52.473181 
L 21.113742 52.545783 
L 20.871029 52.618384 
L 20.628316 52.690986 
L 20.385603 52.763588 
L 20.142891 52.836189 
L 19.900178 52.908791 
L 19.657465 52.981393 
L 19.333135 53.119027 
L 19.008806 53.256662 
L 18.684476 53.394297 
L 18.360146 53.531931 
L 17.943324 53.643108 
L 17.526501 53.754284 
L 17.129664 53.94757 
L 16.732827 54.140857 
L 16.335991 54.334143 
L 15.939154 54.52743 
L 15.598557 54.566736 
L 15.257959 54.606042 
L 15.290495 54.250507 
L 15.32303 53.894972 
L 15.503182 53.541154 
L 15.683334 53.187336 
L 15.863486 52.833518 
L 16.043639 52.4797 
L 16.135295 51.994926 
L 16.226951 51.510152 
L 16.233458 51.149783 
L 16.239965 50.789414 
L 15.991024 50.6977 
L 15.742083 50.605986 
L 15.486636 50.661701 
L 15.231188 50.717416 
L 14.97574 50.773132 
L 14.720292 50.828847 
L 14.34028 50.822296 
L 13.960269 50.815745 
L 13.580257 50.809194 
L 13.200246 50.802643 
L 12.936571 50.895979 
L 12.672897 50.989315 
L 12.409222 51.082651 
L 12.145547 51.175987 
L 11.881872 51.269323 
L 11.618198 51.362659 
L 11.354523 51.455995 
L 11.090848 51.54933 
L 10.669006 51.715968 
L 10.247163 51.882605 
L 9.819279 52.051532 
L 9.391394 52.220459 
L 8.963509 52.389385 
L 8.535625 52.558312 
L 8.16872 52.82366 
L 7.801816 53.089007 
L 7.434912 53.354355 
L 7.068007 53.619702 
L 6.799359 54.025928 
L 6.530711 54.432154 
L 6.262063 54.83838 
L 5.993415 55.244606 
L 5.856721 55.553552 
L 5.720027 55.862499 
L 5.583332 56.171445 
L 5.446638 56.480392 
L 5.309943 56.789339 
L 5.173249 57.098285 
L 5.036555 57.407232 
L 4.89986 57.716179 
L 4.692007 58.089459 
L 4.484153 58.462739 
L 4.276299 58.836019 
L 4.068446 59.209299 
" style="fill:none;stroke:#008000;stroke-linecap:square;stroke-width:0.4;"/>
   </g>
   <g id="line2d_16">
    <path clip-path="url(#p03780ed281)" d="M 36.82342 13.316398 
L 36.71861 13.590109 
L 36.6138 13.86382 
L 36.50899 14.137531 
L 36.40418 14.411242 
L 36.299371 14.684954 
L 36.194561 14.958665 
L 36.089751 15.232376 
L 35.984941 15.506087 
L 35.939113 15.964721 
L 35.893284 16.423355 
L 35.847456 16.881989 
L 35.801628 17.340623 
L 35.64769 17.673134 
L 35.493752 18.005645 
L 35.339814 18.338156 
L 35.185876 18.670667 
L 35.031938 19.003178 
L 34.878 19.33569 
L 34.724062 19.668201 
L 34.570123 20.000712 
L 34.45216 20.379525 
L 34.334197 20.758339 
L 34.216233 21.137152 
L 34.09827 21.515966 
" style="fill:none;stroke:#ff0000;stroke-linecap:square;stroke-width:0.4;"/>
   </g>
   <g id="line2d_17">
    <path clip-path="url(#p03780ed281)" d="M 18.660958 30.585863 
L 18.535813 30.869178 
L 18.410669 31.152493 
L 18.285524 31.435808 
L 18.16038 31.719123 
L 18.035236 32.002438 
L 17.910091 32.285753 
L 17.784947 32.569068 
L 17.659802 32.852383 
L 17.534658 33.135698 
L 17.409514 33.419013 
L 17.284369 33.702328 
L 17.159225 33.985643 
L 17.03408 34.268958 
L 16.908936 34.552273 
L 16.783792 34.835588 
L 16.658647 35.118903 
L 16.53255 35.336756 
L 16.406453 35.554608 
L 16.280355 35.772461 
L 16.154258 35.990314 
L 16.028161 36.208167 
L 15.902064 36.426019 
L 15.775967 36.643872 
L 15.649869 36.861725 
L 15.523772 37.079577 
L 15.397675 37.29743 
L 15.271578 37.515283 
L 15.14548 37.733135 
L 15.019383 37.950988 
L 14.893286 38.168841 
L 14.767189 38.386693 
L 14.641092 38.604546 
L 14.443417 38.798151 
L 14.245742 38.991755 
L 14.048067 39.185359 
L 13.850393 39.378964 
L 13.652718 39.572568 
L 13.455043 39.766173 
L 13.257369 39.959777 
L 13.059694 40.153382 
" style="fill:none;stroke:#4169e1;stroke-linecap:square;stroke-width:0.4;"/>
   </g>
   <g id="line2d_18">
    <path clip-path="url(#p03780ed281)" d="M 56.409252 47.08727 
L 56.292869 47.341805 
L 56.176486 47.59634 
L 56.076928 48.078189 
L 55.97737 48.560037 
L 55.877812 49.041886 
L 55.778254 49.523734 
L 55.779835 49.819484 
L 55.781415 50.115233 
L 55.782995 50.410982 
L 55.784576 50.706731 
L 55.78755 51.18222 
L 55.871352 51.553178 
L 55.955153 51.924137 
L 56.038954 52.295095 
L 56.122756 52.666054 
L 56.206557 53.037013 
L 56.290359 53.407971 
L 56.37416 53.77893 
L 56.457962 54.149888 
L 56.474322 54.410307 
L 56.490683 54.670725 
L 56.507043 54.931143 
L 56.523404 55.191562 
L 56.539764 55.45198 
L 56.556125 55.712398 
L 56.572486 55.972817 
L 56.588846 56.233235 
L 56.526657 56.534645 
L 56.464469 56.836054 
L 56.40228 57.137464 
L 56.340091 57.438874 
L 56.192707 57.682915 
L 56.045322 57.926956 
L 55.897938 58.170996 
L 55.750553 58.415037 
L 55.603168 58.659078 
L 55.455784 58.903119 
L 55.308399 59.14716 
L 55.161015 59.3912 
L 55.089065 59.66647 
L 55.017116 59.941739 
L 54.972822 60.227551 
L 54.928527 60.513362 
L 54.884233 60.799173 
L 54.839939 61.084985 
L 54.795644 61.370796 
L 54.75135 61.656608 
L 54.707055 61.942419 
L 54.662761 62.22823 
L 54.618467 62.514042 
L 54.574172 62.799853 
L 54.529878 63.085665 
L 54.485584 63.371476 
L 54.441289 63.657288 
L 54.396995 63.943099 
L 54.3527 64.22891 
L 54.308406 64.514722 
L 54.416981 64.998669 
L 54.525555 65.482617 
L 54.63413 65.966564 
L 54.742705 66.450512 
L 55.004102 66.62618 
L 55.265499 66.801849 
" style="fill:none;stroke:#008000;stroke-linecap:square;stroke-width:0.4;"/>
   </g>
   <g id="line2d_19">
    <path clip-path="url(#p03780ed281)" d="M 56.718243 34.747722 
L 56.697049 34.998218 
L 56.675855 35.248715 
L 56.65466 35.499211 
L 56.633466 35.749708 
L 56.612272 36.000204 
L 56.591077 36.2507 
L 56.569883 36.501197 
L 56.548688 36.751693 
L 56.558124 37.005974 
L 56.567559 37.260255 
L 56.576994 37.514535 
L 56.586429 37.768816 
L 56.595865 38.023097 
L 56.6053 38.277378 
L 56.614735 38.531658 
L 56.62417 38.785939 
L 56.659146 39.141013 
L 56.694121 39.496087 
L 56.729096 39.851161 
L 56.764072 40.206235 
L 56.799047 40.561309 
L 56.834022 40.916383 
L 56.868998 41.271457 
L 56.903973 41.626531 
L 56.938948 41.981605 
L 56.973924 42.336679 
L 57.008899 42.691753 
L 57.043875 43.046827 
L 57.07885 43.401901 
L 57.113825 43.756975 
L 57.148801 44.112049 
L 57.183776 44.467122 
L 57.226537 44.901651 
L 57.150683 45.266854 
L 57.074829 45.632056 
L 56.908435 45.99586 
L 56.742041 46.359663 
L 56.575646 46.723466 
L 56.409252 47.08727 
" style="fill:none;stroke:#008000;stroke-linecap:square;stroke-width:0.4;"/>
   </g>
   <g id="line2d_20">
    <path clip-path="url(#p03780ed281)" d="M 20.398153 20.459155 
L 20.57626 20.696629 
L 20.754367 20.934103 
L 20.932474 21.171577 
L 21.110581 21.409051 
L 21.288688 21.646524 
L 21.466795 21.883998 
L 21.644902 22.121472 
L 21.823009 22.358946 
L 22.001117 22.59642 
L 22.179224 22.833894 
L 22.357331 23.071368 
L 22.535438 23.308842 
L 22.713545 23.546316 
L 22.891652 23.78379 
L 23.069759 24.021264 
L 23.247866 24.258737 
L 23.388721 24.51181 
L 23.529575 24.764882 
L 23.670429 25.017954 
L 23.811283 25.271027 
L 23.952138 25.524099 
L 24.092992 25.777171 
L 24.233846 26.030243 
L 24.3747 26.283316 
L 24.515555 26.536388 
L 24.656409 26.78946 
L 24.797263 27.042533 
L 24.938117 27.295605 
L 25.078972 27.548677 
L 25.219826 27.801749 
L 25.36068 28.054822 
L 25.501535 28.307894 
L 25.670392 28.70512 
L 25.83925 29.102346 
L 26.008108 29.499573 
L 26.176966 29.896799 
L 26.345824 30.294025 
L 26.514681 30.691251 
L 26.683539 31.088477 
L 26.852397 31.485703 
" style="fill:none;stroke:#ff0000;stroke-linecap:square;stroke-width:0.4;"/>
   </g>
   <g id="line2d_21">
    <path clip-path="url(#p03780ed281)" d="M 26.474245 14.944609 
L 26.617772 15.402289 
L 26.761298 15.859968 
L 26.93169 16.125316 
L 27.102082 16.390663 
L 27.272473 16.656011 
L 27.442865 16.921358 
L 27.632778 17.117888 
L 27.82269 17.314419 
L 28.012603 17.510949 
L 28.202516 17.707479 
L 28.274605 17.972826 
L 28.346693 18.238174 
L 28.418782 18.503521 
L 28.490871 18.768869 
L 28.56296 19.034216 
L 28.635048 19.299564 
L 28.707137 19.564911 
L 28.779226 19.830259 
L 28.849641 20.175872 
L 28.920057 20.521485 
L 28.990472 20.867098 
L 29.060888 21.212711 
L 29.131303 21.558324 
L 29.201719 21.903938 
L 29.272134 22.249551 
L 29.34255 22.595164 
L 29.388378 22.850112 
L 29.434206 23.105061 
L 29.480034 23.36001 
L 29.525863 23.614958 
L 29.571691 23.869907 
L 29.617519 24.124855 
L 29.663347 24.379804 
L 29.709175 24.634752 
" style="fill:none;stroke:#ff0000;stroke-linecap:square;stroke-width:0.4;"/>
   </g>
   <g id="line2d_22">
    <path clip-path="url(#p03780ed281)" d="M 51.646839 20.329661 
L 51.732639 20.760438 
L 51.818439 21.191214 
L 51.904239 21.62199 
L 51.990039 22.052766 
L 52.294011 22.300114 
L 52.597983 22.547462 
L 52.901955 22.794811 
L 53.205927 23.042159 
L 53.396118 23.319591 
L 53.58631 23.597022 
L 53.776502 23.874454 
L 53.966693 24.151886 
L 54.033019 24.404942 
L 54.099344 24.657999 
L 54.165669 24.911055 
L 54.231995 25.164112 
L 54.29832 25.417168 
L 54.364645 25.670224 
L 54.430971 25.923281 
L 54.497296 26.176337 
L 54.563622 26.429394 
L 54.629947 26.68245 
L 54.696272 26.935506 
L 54.762598 27.188563 
L 54.828923 27.441619 
L 54.895248 27.694675 
L 54.961574 27.947732 
L 55.027899 28.200788 
L 55.137636 28.636494 
L 55.247373 29.072199 
L 55.357109 29.507904 
L 55.466846 29.94361 
L 55.576582 30.379315 
L 55.686319 30.815021 
L 55.796056 31.250726 
L 55.905792 31.686431 
L 56.007349 32.069093 
L 56.108905 32.451754 
L 56.210462 32.834415 
L 56.312018 33.217077 
L 56.413574 33.599738 
L 56.515131 33.982399 
L 56.616687 34.365061 
L 56.718243 34.747722 
L 56.662515 35.110317 
L 56.606787 35.472912 
L 56.551059 35.835507 
L 56.495331 36.198102 
L 56.439602 36.560696 
L 56.383874 36.923291 
L 56.328146 37.285886 
L 56.272418 37.648481 
L 56.177136 37.91049 
L 56.081854 38.172498 
L 55.986573 38.434506 
L 55.891291 38.696515 
L 55.796009 38.958523 
L 55.700728 39.220531 
L 55.605446 39.48254 
L 55.510164 39.744548 
L 55.296175 40.160251 
L 55.082187 40.575953 
L 54.868198 40.991656 
L 54.654209 41.407358 
L 54.44022 41.823061 
L 54.226231 42.238763 
L 54.012243 42.654466 
L 53.798254 43.070169 
L 53.492283 43.40993 
L 53.186313 43.749692 
L 52.880342 44.089454 
L 52.574372 44.429216 
L 52.268401 44.768977 
L 51.962431 45.108739 
L 51.65646 45.448501 
L 51.35049 45.788263 
L 50.877985 45.95172 
L 50.405481 46.115177 
L 49.932976 46.278634 
L 49.460472 46.442091 
L 49.187873 46.54872 
L 48.915275 46.655349 
L 48.642676 46.761977 
L 48.370077 46.868606 
L 48.097479 46.975235 
L 47.82488 47.081864 
L 47.552281 47.188492 
L 47.279683 47.295121 
L 47.076012 47.498139 
L 46.872342 47.701156 
L 46.668671 47.904174 
L 46.465001 48.107191 
L 46.438415 48.495926 
L 46.411829 48.884662 
L 46.487125 49.166419 
L 46.56242 49.448175 
L 46.637716 49.729932 
L 46.713012 50.011689 
L 46.667184 50.309791 
L 46.621356 50.607894 
L 46.575527 50.905996 
L 46.529699 51.204099 
L 46.582313 51.576552 
L 46.634927 51.949005 
L 46.687542 52.321458 
L 46.740156 52.693912 
" style="fill:none;stroke:#4169e1;stroke-linecap:square;stroke-width:0.4;"/>
   </g>
   <g id="line2d_23">
    <path clip-path="url(#p03780ed281)" d="M 51.646839 20.329661 
L 52.02025 20.46119 
L 52.393662 20.592719 
L 52.767073 20.724248 
L 53.140485 20.855777 
L 53.4485 21.01793 
L 53.756516 21.180083 
L 54.064531 21.342237 
L 54.372547 21.50439 
L 54.680562 21.666543 
L 54.988578 21.828696 
L 55.296594 21.99085 
L 55.604609 22.153003 
L 55.82227 22.389284 
L 56.039931 22.625566 
L 56.257591 22.861847 
L 56.475252 23.098128 
L 56.692912 23.33441 
L 56.910573 23.570691 
L 57.128234 23.806973 
L 57.345894 24.043254 
L 57.582193 24.390712 
L 57.818492 24.738169 
L 58.05479 25.085627 
L 58.291089 25.433084 
L 58.369824 25.775899 
L 58.448559 26.118714 
L 58.527295 26.461528 
L 58.60603 26.804343 
L 58.545793 27.130971 
L 58.485557 27.457599 
L 58.42532 27.784227 
L 58.365083 28.110855 
L 58.304847 28.437483 
L 58.24461 28.764111 
L 58.184373 29.090739 
L 58.124137 29.417367 
L 58.036269 29.750514 
L 57.9484 30.083661 
L 57.860532 30.416809 
L 57.772663 30.749956 
L 57.684795 31.083103 
L 57.596927 31.41625 
L 57.509058 31.749397 
L 57.42119 32.082544 
L 57.333322 32.415692 
L 57.245453 32.748839 
L 57.157585 33.081986 
L 57.069717 33.415133 
L 56.981848 33.74828 
L 56.89398 34.081428 
L 56.806112 34.414575 
L 56.718243 34.747722 
" style="fill:none;stroke:#008000;stroke-linecap:square;stroke-width:0.4;"/>
   </g>
   <g id="line2d_24">
    <path clip-path="url(#p03780ed281)" d="M 19.110873 21.975172 
L 19.32542 22.225891 
L 19.539966 22.47661 
L 19.536713 22.751816 
L 19.533459 23.027021 
L 19.530206 23.302227 
L 19.526952 23.577433 
L 19.589141 23.882086 
L 19.65133 24.18674 
L 19.713519 24.491393 
L 19.775707 24.796047 
L 19.972267 25.143282 
L 20.168826 25.490517 
L 20.365385 25.837752 
L 20.561944 26.184987 
L 20.758503 26.532222 
L 20.955063 26.879457 
L 21.151622 27.226692 
L 21.348181 27.573927 
L 21.472652 28.04897 
L 21.597122 28.524014 
L 21.721592 28.999057 
L 21.846063 29.4741 
L 21.860797 29.770549 
L 21.875531 30.066998 
L 21.890264 30.363446 
L 21.904998 30.659895 
L 21.919732 30.956344 
L 21.934466 31.252793 
L 21.9492 31.549242 
L 21.963933 31.845691 
L 22.031119 32.110275 
L 22.098304 32.374859 
L 22.165489 32.639443 
L 22.232674 32.904028 
L 22.29986 33.168612 
L 22.367045 33.433196 
L 22.43423 33.69778 
L 22.501415 33.962365 
L 22.568601 34.226949 
L 22.635786 34.491533 
L 22.702971 34.756117 
L 22.770156 35.020702 
L 22.837341 35.285286 
L 22.904527 35.54987 
L 22.971712 35.814454 
L 23.038897 36.079039 
" style="fill:none;stroke:#000000;stroke-linecap:square;stroke-width:0.4;"/>
   </g>
   <g id="line2d_25">
    <path clip-path="url(#p03780ed281)" d="M 32.355869 13.298081 
L 32.237999 13.712511 
L 32.120128 14.126942 
L 32.002258 14.541372 
L 31.884387 14.955803 
L 31.830332 15.227701 
L 31.776277 15.4996 
L 31.722223 15.771498 
L 31.668168 16.043397 
L 31.614113 16.315295 
L 31.560058 16.587193 
L 31.506003 16.859092 
L 31.451948 17.13099 
L 31.383159 17.586381 
L 31.31437 18.041771 
L 31.245582 18.497161 
L 31.176793 18.952551 
L 31.176746 19.382723 
L 31.1767 19.812895 
L 31.176653 20.243067 
L 31.176607 20.673239 
L 31.17656 21.103411 
L 31.176514 21.533583 
L 31.176467 21.963755 
L 31.176421 22.393927 
" style="fill:none;stroke:#ff0000;stroke-linecap:square;stroke-width:0.4;"/>
   </g>
   <g id="line2d_26">
    <path clip-path="url(#p03780ed281)" d="M 29.351102 39.59114 
L 28.907879 39.512337 
L 28.464657 39.433534 
L 28.021434 39.354732 
L 27.578211 39.275929 
L 27.282884 39.252778 
L 26.987558 39.229626 
L 26.692231 39.206475 
L 26.396904 39.183324 
L 26.101577 39.160173 
L 25.80625 39.137022 
L 25.510923 39.113871 
L 25.215596 39.09072 
L 24.881041 39.059237 
L 24.546486 39.027754 
L 24.211931 38.996271 
L 23.877376 38.964788 
L 23.497365 39.030298 
L 23.117354 39.095808 
L 22.760303 39.374257 
L 22.403252 39.652707 
L 22.046201 39.931156 
L 21.68915 40.209606 
L 21.517178 40.406168 
L 21.345206 40.60273 
L 21.173235 40.799292 
L 21.001263 40.995853 
L 20.829291 41.192415 
L 20.657319 41.388977 
L 20.485347 41.585539 
L 20.313375 41.782101 
L 20.15781 42.07855 
L 20.002245 42.374999 
L 19.846681 42.671448 
L 19.691116 42.967897 
L 19.535551 43.264345 
L 19.379986 43.560794 
L 19.224421 43.857243 
L 19.068856 44.153692 
L 18.924679 44.609082 
L 18.780501 45.064472 
L 18.636324 45.519862 
L 18.492146 45.975253 
L 18.482386 46.420785 
L 18.472625 46.866316 
L 18.462865 47.311848 
L 18.453104 47.75738 
L 18.299073 47.973563 
L 18.145042 48.189747 
L 17.991011 48.40593 
L 17.83698 48.622113 
L 17.52176 48.819406 
L 17.20654 49.016699 
L 16.89132 49.213993 
L 16.576101 49.411286 
L 16.367596 49.709961 
L 16.159092 50.008636 
L 15.950588 50.307311 
L 15.742083 50.605986 
L 15.574481 50.848182 
L 15.406878 51.090379 
L 15.239275 51.332575 
L 15.071672 51.574771 
L 14.711368 51.741854 
L 14.351063 51.908936 
L 13.990759 52.076018 
L 13.630455 52.243101 
L 13.171894 52.262754 
L 12.713333 52.282407 
L 12.254772 52.30206 
L 11.796212 52.321713 
L 11.40895 52.211936 
L 11.021688 52.102159 
L 10.634425 51.992382 
L 10.247163 51.882605 
" style="fill:none;stroke:#4169e1;stroke-linecap:square;stroke-width:0.4;"/>
   </g>
   <g id="line2d_27">
    <path clip-path="url(#p03780ed281)" d="M 45.053158 15.458767 
L 41.282512 14.548368 
L 39.723145 13.873042 
L 38.484111 13.516363 
L 36.323121 13.308448 
L 31.626569 13.341553 
L 29.325585 13.737793 
L 26.828042 14.725309 
L 24.229129 16.417662 
L 21.869767 18.726446 
L 18.698791 22.576083 
L 15.661303 27.136823 
L 13.997545 31.17399 
L 13.509377 33.409759 
L 13.337312 37.385328 
L 12.954837 40.525199 
L 12.185147 43.549998 
L 11.509995 50.298216 
L 11.090848 51.54933 
L 11.090848 51.54933 
" style="fill:none;stroke:#000000;stroke-linecap:square;stroke-width:0.4;"/>
   </g>
   <g id="line2d_28">
    <path clip-path="url(#p03780ed281)" d="M 46.740156 52.693912 
L 46.384778 52.853998 
L 46.0294 53.014084 
L 45.674023 53.17417 
L 45.318645 53.334256 
L 45.037262 53.495233 
L 44.755879 53.65621 
L 44.474496 53.817186 
L 44.193113 53.978163 
L 43.911729 54.13914 
L 43.630346 54.300116 
L 43.348963 54.461093 
L 43.06758 54.622069 
L 42.747991 54.824769 
L 42.428402 55.027468 
L 42.108813 55.230168 
L 41.789224 55.432867 
L 41.469636 55.635567 
L 41.150047 55.838267 
L 40.830458 56.040966 
L 40.510869 56.243666 
L 40.067042 56.404928 
L 39.623215 56.566191 
L 39.179388 56.727454 
L 38.735561 56.888717 
L 38.291735 57.04998 
L 37.847908 57.211243 
L 37.404081 57.372505 
L 36.960254 57.533768 
L 36.634344 57.656615 
L 36.308434 57.779463 
L 35.982524 57.90231 
L 35.656614 58.025157 
L 35.330704 58.148004 
L 35.004794 58.270852 
L 34.678884 58.393699 
L 34.352974 58.516546 
L 33.919001 58.618118 
L 33.485027 58.719691 
L 33.051054 58.821263 
L 32.617081 58.922835 
L 32.183107 59.024408 
L 31.749134 59.12598 
L 31.31516 59.227553 
L 30.881187 59.329125 
L 30.429133 59.410981 
L 29.97708 59.492836 
L 29.525026 59.574692 
L 29.072972 59.656548 
L 28.799467 59.711421 
L 28.525962 59.766293 
L 28.252457 59.821166 
L 27.978952 59.876038 
L 27.705447 59.930911 
L 27.431942 59.985784 
L 27.158437 60.040656 
L 26.884932 60.095529 
L 26.611427 60.150401 
L 26.337922 60.205274 
L 26.064417 60.260147 
L 25.790912 60.315019 
L 25.517407 60.369892 
L 25.243902 60.424764 
L 24.970397 60.479637 
L 24.696892 60.53451 
L 24.244838 60.591847 
L 23.792785 60.649184 
L 23.340731 60.706521 
L 22.888677 60.763858 
L 22.436624 60.821196 
L 21.98457 60.878533 
L 21.532516 60.93587 
L 21.080463 60.993207 
L 20.693944 60.845778 
L 20.307426 60.698348 
L 19.920907 60.550919 
L 19.534389 60.40349 
L 19.077037 60.311776 
L 18.619684 60.220061 
L 18.295355 60.206959 
L 17.971025 60.193857 
L 17.646695 60.180755 
L 17.322366 60.167653 
L 16.883419 60.274123 
L 16.444472 60.380593 
L 16.005526 60.487063 
L 15.566579 60.593532 
L 15.127633 60.700002 
L 14.688686 60.806472 
L 14.249739 60.912941 
L 13.810793 61.019411 
L 13.425901 60.983381 
L 13.041009 60.94735 
L 12.656118 60.91132 
L 12.271226 60.875289 
L 11.886334 60.839259 
L 11.501443 60.803228 
L 11.116551 60.767198 
L 10.731659 60.731167 
L 10.302566 60.626351 
L 9.873473 60.521535 
L 9.44438 60.416719 
L 9.015287 60.311903 
L 8.66967 60.211984 
L 8.324053 60.112065 
L 7.978436 60.012147 
L 7.632819 59.912228 
L 7.287202 59.812309 
L 6.941585 59.71239 
L 6.595968 59.612472 
L 6.250351 59.512553 
L 5.977613 59.474646 
L 5.704875 59.436739 
L 5.432136 59.398833 
L 5.159398 59.360926 
L 4.88666 59.323019 
L 4.613922 59.285112 
L 4.341184 59.247206 
L 4.068446 59.209299 
L 3.670587 59.154601 
L 3.272727 59.099903 
" style="fill:none;stroke:#008000;stroke-linecap:square;stroke-width:0.4;"/>
   </g>
   <g id="line2d_29">
    <path clip-path="url(#p03780ed281)" d="M 36.479848 32.644023 
L 36.061724 32.83979 
L 35.6436 33.035557 
L 35.476555 33.350005 
L 35.30951 33.664453 
L 35.142465 33.978901 
L 34.975419 34.293349 
L 34.816555 34.706126 
L 34.65769 35.118903 
L 34.498825 35.53168 
L 34.33996 35.944457 
L 34.181095 36.357234 
L 34.02223 36.770011 
L 33.863365 37.182787 
L 33.704501 37.595564 
L 33.632877 37.869562 
L 33.561253 38.143559 
L 33.489629 38.417556 
L 33.418005 38.691554 
L 33.346381 38.965551 
L 33.274757 39.239548 
L 33.203133 39.513546 
L 33.131509 39.787543 
L 33.059885 40.06154 
L 32.988261 40.335538 
L 32.916637 40.609535 
L 32.845013 40.883532 
L 32.773389 41.15753 
L 32.701765 41.431527 
L 32.630141 41.705524 
L 32.558517 41.979522 
L 32.542482 42.329841 
L 32.526447 42.680161 
L 32.510412 43.030481 
L 32.494376 43.380801 
L 32.478341 43.73112 
L 32.462306 44.08144 
L 32.446271 44.43176 
L 32.430235 44.782079 
L 32.534348 45.188751 
L 32.638461 45.595422 
L 32.742574 46.002093 
L 32.846686 46.408764 
L 33.079267 46.769101 
L 33.311847 47.129438 
L 33.544427 47.489775 
L 33.777008 47.850112 
L 34.009588 48.210449 
L 34.242168 48.570786 
L 34.474749 48.931123 
L 34.707329 49.29146 
L 34.818693 49.555154 
L 34.930056 49.818848 
L 35.041419 50.082542 
L 35.152783 50.346235 
L 35.264146 50.609929 
L 35.37551 50.873623 
L 35.486873 51.137317 
L 35.598236 51.401011 
L 35.70049 51.698731 
L 35.802744 51.996452 
L 35.904997 52.294173 
L 36.007251 52.591894 
L 36.092539 52.840196 
L 36.177828 53.088498 
L 36.263117 53.336801 
L 36.348406 53.585103 
L 36.433695 53.833405 
L 36.518983 54.081707 
L 36.604272 54.330009 
L 36.689561 54.578311 
" style="fill:none;stroke:#008000;stroke-linecap:square;stroke-width:0.4;"/>
   </g>
   <g id="line2d_30">
    <path clip-path="url(#p03780ed281)" d="M 24.496103 16.170346 
L 24.004171 16.201638 
L 23.512238 16.23293 
L 23.020306 16.264223 
L 22.528373 16.295515 
L 22.053359 16.433086 
L 21.578345 16.570657 
L 21.10333 16.708228 
L 20.628316 16.845799 
L 20.281119 17.08984 
L 19.933921 17.333881 
L 19.586724 17.577922 
L 19.239527 17.821962 
L 18.89233 18.066003 
L 18.545132 18.310044 
L 18.197935 18.554085 
L 17.850738 18.798126 
L 17.58539 19.048749 
L 17.320042 19.299373 
L 17.054694 19.549996 
L 16.789346 19.80062 
L 16.523998 20.051244 
L 16.25865 20.301867 
L 15.993302 20.552491 
L 15.727954 20.803114 
L 15.583823 21.122524 
L 15.439692 21.441933 
L 15.295561 21.761342 
L 15.15143 22.080751 
L 15.007299 22.40016 
L 14.863168 22.719569 
L 14.719037 23.038979 
L 14.574906 23.358388 
L 14.535584 23.684316 
L 14.496263 24.010244 
L 14.456942 24.336173 
L 14.417621 24.662101 
L 14.3783 24.98803 
L 14.338979 25.313958 
L 14.299658 25.639886 
L 14.260337 25.965815 
L 14.294824 26.432272 
L 14.329311 26.898728 
L 14.363799 27.365185 
L 14.398286 27.831642 
L 14.432773 28.298099 
L 14.467261 28.764556 
L 14.501748 29.231013 
L 14.536235 29.69747 
" style="fill:none;stroke:#4169e1;stroke-linecap:square;stroke-width:0.4;"/>
   </g>
   <g id="line2d_31">
    <path clip-path="url(#p03780ed281)" d="M 43.659163 18.494363 
L 43.612219 18.875529 
L 43.565276 19.256696 
L 43.518332 19.637863 
L 43.471388 20.019029 
L 43.343664 20.490765 
L 43.21594 20.962501 
L 43.088216 21.434237 
L 42.960492 21.905973 
L 42.897839 22.233841 
L 42.835185 22.561709 
L 42.772532 22.889578 
L 42.709878 23.217446 
L 42.61785 23.698881 
L 42.525822 24.180316 
L 42.433794 24.661751 
L 42.341765 25.143187 
L 42.249737 25.624622 
L 42.157709 26.106057 
L 42.065681 26.587492 
L 41.973653 27.068927 
L 41.916344 27.543923 
L 41.859036 28.018918 
L 41.801727 28.493914 
L 41.744419 28.968909 
L 41.68711 29.443905 
L 41.629802 29.9189 
L 41.572493 30.393896 
L 41.515185 30.868891 
L 41.457876 31.343887 
L 41.400568 31.818882 
L 41.34326 32.293878 
L 41.285951 32.768873 
L 41.228643 33.243869 
L 41.171334 33.718864 
L 41.114026 34.19386 
L 41.056717 34.668855 
L 41.022323 34.99154 
L 40.987928 35.314225 
L 40.953534 35.636909 
L 40.91914 35.959594 
L 40.884745 36.282279 
L 40.850351 36.604963 
L 40.815957 36.927648 
L 40.781562 37.250333 
L 40.747168 37.573017 
L 40.712773 37.895702 
L 40.678379 38.218387 
L 40.643985 38.541071 
L 40.60959 38.863756 
L 40.575196 39.186441 
L 40.540801 39.509125 
L 40.506407 39.83181 
L 40.4867 40.221627 
L 40.466993 40.611443 
L 40.447286 41.00126 
L 40.427579 41.391076 
L 40.355537 41.656424 
L 40.283494 41.921771 
L 40.211452 42.187119 
L 40.13941 42.452466 
L 39.952193 42.8772 
L 39.764976 43.301934 
L 39.576922 43.728385 
L 39.388869 44.154837 
L 39.200815 44.581288 
L 39.012762 45.007739 
L 38.937512 45.266536 
L 38.862263 45.525332 
L 38.787014 45.784129 
L 38.711764 46.042925 
L 38.636515 46.301722 
L 38.561266 46.560518 
L 38.486016 46.819315 
L 38.410767 47.078111 
" style="fill:none;stroke:#000000;stroke-linecap:square;stroke-width:0.4;"/>
   </g>
   <g id="line2d_32">
    <path clip-path="url(#p03780ed281)" d="M 38.410767 47.078111 
L 38.316787 47.447511 
L 38.222806 47.816912 
L 38.128826 48.186312 
L 38.034846 48.555712 
L 37.940865 48.925113 
L 37.846885 49.294513 
L 37.752905 49.663913 
L 37.658924 50.033314 
L 37.598339 50.317376 
L 37.537754 50.601438 
L 37.477169 50.885501 
L 37.416584 51.169563 
L 37.355998 51.453625 
L 37.295413 51.737688 
L 37.234828 52.02175 
L 37.174243 52.305812 
L 37.113657 52.589875 
L 37.053072 52.873937 
L 36.992487 53.157999 
L 36.931902 53.442062 
L 36.871316 53.726124 
L 36.810731 54.010187 
L 36.750146 54.294249 
L 36.689561 54.578311 
" style="fill:none;stroke:#008000;stroke-linecap:square;stroke-width:0.4;"/>
   </g>
   <g id="line2d_33">
    <path clip-path="url(#p03780ed281)" d="M 55.784576 50.706731 
L 55.522237 50.789541 
L 55.259899 50.872351 
L 54.99756 50.955161 
L 54.735222 51.03797 
L 54.472883 51.12078 
L 54.210545 51.20359 
L 53.948206 51.2864 
L 53.685868 51.36921 
L 53.423529 51.452019 
L 53.161191 51.534829 
L 52.898852 51.617639 
L 52.636514 51.700449 
L 52.374175 51.783259 
L 52.111837 51.866068 
L 51.849499 51.948878 
L 51.58716 52.031688 
L 51.324822 52.114498 
L 51.062483 52.197307 
L 50.800145 52.280117 
L 50.537806 52.362927 
L 50.275468 52.445737 
L 50.013129 52.528547 
L 49.750791 52.611356 
L 49.488452 52.694166 
L 49.226114 52.776976 
L 48.963775 52.859786 
L 48.701437 52.942595 
L 48.439098 53.025405 
L 48.17676 53.108215 
L 47.914422 53.191025 
L 47.652083 53.273835 
L 47.389745 53.356644 
L 47.06495 53.025278 
L 46.740156 52.693912 
" style="fill:none;stroke:#4169e1;stroke-linecap:square;stroke-width:0.4;"/>
   </g>
   <g id="line2d_34">
    <path clip-path="url(#p03780ed281)" d="M 49.825238 19.999694 
L 49.973971 20.260971 
L 50.122703 20.522248 
L 50.271436 20.783525 
L 50.420168 21.044802 
L 50.510523 21.336672 
L 50.600878 21.628541 
L 50.691233 21.920411 
L 50.781588 22.21228 
L 50.834853 22.548162 
L 50.888118 22.884044 
L 50.941382 23.219926 
L 50.994647 23.555808 
L 50.969456 23.993708 
L 50.944264 24.431608 
L 50.919073 24.869507 
L 50.893881 25.307407 
L 50.868689 25.745307 
L 50.843498 26.183206 
L 50.818306 26.621106 
L 50.793115 27.059005 
L 50.75054 27.416067 
L 50.707965 27.773129 
L 50.665391 28.13019 
L 50.622816 28.487252 
L 50.730926 28.896785 
L 50.839036 29.306318 
L 50.947146 29.715851 
L 51.055256 30.125384 
L 51.20264 30.348134 
L 51.350025 30.570884 
L 51.497409 30.793634 
L 51.644794 31.016384 
L 51.792178 31.239134 
L 51.939563 31.461885 
L 52.086948 31.684635 
L 52.234332 31.907385 
L 52.381717 32.130135 
L 52.529101 32.352885 
L 52.676486 32.575635 
L 52.82387 32.798385 
L 52.971255 33.021135 
L 53.118639 33.243885 
L 53.266024 33.466635 
L 53.413409 33.689385 
L 53.506738 33.990795 
L 53.600068 34.292205 
L 53.693397 34.593614 
L 53.786727 34.895024 
L 53.880057 35.196434 
L 53.973386 35.497844 
L 54.066716 35.799254 
L 54.160045 36.100663 
L 54.197693 36.400388 
L 54.235341 36.700112 
L 54.272989 36.999836 
L 54.310637 37.299561 
L 54.348285 37.599285 
L 54.385933 37.899009 
L 54.423581 38.198734 
L 54.461229 38.498458 
L 54.358092 38.734326 
L 54.254955 38.970194 
L 54.151819 39.206062 
L 54.048682 39.44193 
L 53.945545 39.677798 
L 53.842409 39.913666 
L 53.739272 40.149534 
L 53.636135 40.385402 
L 53.364327 40.778526 
L 53.092518 41.171649 
L 52.82071 41.564773 
L 52.548901 41.957897 
L 52.314694 42.131499 
L 52.080487 42.3051 
L 51.84628 42.478702 
L 51.612073 42.652304 
L 51.377866 42.825905 
L 51.143658 42.999507 
L 50.909451 43.173108 
L 50.675244 43.34671 
L 50.387029 43.467109 
L 50.098813 43.587507 
L 49.810597 43.707906 
L 49.522382 43.828304 
L 49.234166 43.948703 
L 48.945951 44.069101 
L 48.657735 44.1895 
L 48.36952 44.309898 
L 48.081304 44.430297 
L 47.793088 44.550695 
L 47.504873 44.671094 
L 47.216657 44.791493 
L 46.928442 44.911891 
L 46.640226 45.03229 
L 46.35201 45.152688 
L 46.063795 45.273087 
" style="fill:none;stroke:#4169e1;stroke-linecap:square;stroke-width:0.4;"/>
   </g>
   <g id="line2d_35">
    <path clip-path="url(#p03780ed281)" d="M 45.053158 15.458767 
L 45.271283 15.678671 
L 45.489409 15.898575 
L 45.707534 16.118479 
L 45.92566 16.338383 
L 46.143785 16.558286 
L 46.36191 16.77819 
L 46.580036 16.998094 
L 46.798161 17.217998 
L 47.067971 17.484395 
L 47.337781 17.750792 
L 47.607591 18.017189 
L 47.877401 18.283586 
L 48.147211 18.549982 
L 48.417021 18.816379 
L 48.686831 19.082776 
L 48.956641 19.349173 
L 49.17379 19.511803 
L 49.39094 19.674434 
L 49.608089 19.837064 
L 49.825238 19.999694 
" style="fill:none;stroke:#000000;stroke-linecap:square;stroke-width:0.4;"/>
   </g>
   <g id="line2d_36">
    <path clip-path="url(#p03780ed281)" d="M 31.347463 45.022495 
L 31.151229 45.335926 
L 30.954996 45.649356 
L 30.758762 45.962787 
L 30.562528 46.276217 
L 30.352908 46.702096 
L 30.143288 47.127975 
L 29.933668 47.553854 
L 29.724049 47.979733 
L 29.673247 48.292559 
L 29.622446 48.605385 
L 29.571644 48.918212 
L 29.520843 49.231038 
L 29.470042 49.543865 
L 29.41924 49.856691 
L 29.368439 50.169517 
L 29.317637 50.482344 
L 29.289796 50.836161 
L 29.261956 51.189979 
L 29.234115 51.543797 
L 29.206274 51.897615 
L 29.178433 52.251433 
L 29.150592 52.605251 
L 29.122751 52.959068 
L 29.09491 53.312886 
L 29.022868 53.566754 
L 28.950826 53.820621 
L 28.878784 54.074488 
L 28.806741 54.328355 
L 28.734699 54.582223 
L 28.662657 54.83609 
L 28.590614 55.089957 
L 28.518572 55.343825 
L 28.171375 55.681233 
L 27.824178 56.018642 
L 27.47698 56.35605 
L 27.129783 56.693459 
L 26.907056 56.837613 
L 26.684329 56.981767 
L 26.461602 57.12592 
L 26.238876 57.270074 
L 26.016149 57.414228 
L 25.793422 57.558382 
L 25.570695 57.702536 
L 25.347968 57.84669 
L 25.06296 57.956435 
L 24.777951 58.06618 
L 24.492943 58.175926 
L 24.207934 58.285671 
L 23.922926 58.395416 
L 23.637917 58.505161 
L 23.352909 58.614906 
L 23.0679 58.724652 
L 22.73051 58.839294 
L 22.393119 58.953937 
L 22.055729 59.068579 
L 21.718339 59.183222 
L 21.380949 59.297865 
L 21.043558 59.412507 
L 20.706168 59.52715 
L 20.368778 59.641792 
L 19.931505 59.78636 
L 19.494231 59.930927 
L 19.056958 60.075494 
L 18.619684 60.220061 
" style="fill:none;stroke:#4169e1;stroke-linecap:square;stroke-width:0.4;"/>
   </g>
   <g id="line2d_37">
    <path clip-path="url(#p03780ed281)" d="M 42.709878 23.217446 
L 42.419943 23.503146 
L 42.130008 23.788846 
L 41.840072 24.074546 
L 41.550137 24.360246 
L 41.260202 24.645946 
L 40.970266 24.931646 
L 40.680331 25.217346 
L 40.390396 25.503047 
L 40.121748 25.869903 
L 39.8531 26.236759 
L 39.632 26.428424 
L 39.4109 26.620088 
L 39.1898 26.811753 
L 38.9687 27.003417 
L 38.747599 27.195082 
L 38.526499 27.386747 
L 38.305399 27.578411 
L 38.084299 27.770076 
L 37.869799 27.930575 
L 37.655299 28.091075 
L 37.440799 28.251574 
L 37.226299 28.412074 
L 37.011799 28.572574 
L 36.797299 28.733073 
L 36.582799 28.893573 
L 36.368299 29.054072 
L 36.152079 29.48981 
L 35.935859 29.925547 
L 35.719639 30.361284 
L 35.50342 30.797021 
L 35.321641 31.034511 
L 35.139862 31.272001 
L 34.958083 31.509491 
L 34.776304 31.74698 
L 34.594525 31.98447 
L 34.412746 32.22196 
L 34.230967 32.45945 
L 34.049188 32.69694 
L 33.761019 33.103102 
L 33.47285 33.509264 
L 33.309058 33.961347 
L 33.145267 34.41343 
L 32.981475 34.865513 
L 32.817683 35.317596 
L 32.642458 35.561668 
L 32.467233 35.805741 
L 32.292007 36.049814 
L 32.116782 36.293886 
L 31.941556 36.537959 
L 31.766331 36.782031 
L 31.591106 37.026104 
L 31.41588 37.270177 
L 31.363452 37.61738 
L 31.311024 37.964583 
L 31.258596 38.311786 
L 31.206167 38.658989 
L 31.1767 38.973469 
L 31.147232 39.287949 
L 31.117765 39.602429 
L 31.088297 39.916909 
L 31.058829 40.231389 
L 31.029362 40.545869 
L 30.999894 40.860349 
L 30.970427 41.174829 
L 31.017556 41.655788 
L 31.064686 42.136746 
L 31.111815 42.617704 
L 31.158945 43.098662 
L 31.206074 43.57962 
L 31.253204 44.060579 
L 31.300334 44.541537 
L 31.347463 45.022495 
" style="fill:none;stroke:#4169e1;stroke-linecap:square;stroke-width:0.4;"/>
   </g>
   <g id="line2d_38">
    <path clip-path="url(#p03780ed281)" d="M 37.279657 21.11222 
L 36.881983 21.162688 
L 36.48431 21.213156 
L 36.086637 21.263625 
L 35.688963 21.314093 
L 35.29129 21.364561 
L 34.893617 21.415029 
L 34.495943 21.465497 
L 34.09827 21.515966 
L 33.733039 21.625711 
L 33.367808 21.735456 
L 33.002576 21.845201 
L 32.637345 21.954946 
L 32.272114 22.064692 
L 31.906883 22.174437 
L 31.541652 22.284182 
L 31.176421 22.393927 
L 30.914373 22.619969 
L 30.652325 22.84601 
L 30.390277 23.072052 
L 30.128229 23.298093 
L 30.023466 23.632258 
L 29.918702 23.966423 
L 29.813939 24.300588 
L 29.709175 24.634752 
L 29.63876 24.914824 
L 29.568344 25.194895 
L 29.497929 25.474966 
L 29.427513 25.755038 
L 29.357098 26.035109 
L 29.286682 26.31518 
L 29.216267 26.595252 
L 29.145851 26.875323 
L 28.977133 27.198008 
L 28.808415 27.520692 
L 28.639696 27.843377 
L 28.470978 28.166062 
L 28.302259 28.488746 
L 28.133541 28.811431 
L 27.964823 29.134116 
L 27.796104 29.4568 
L 27.678141 29.710413 
L 27.560178 29.964026 
L 27.442214 30.217639 
L 27.324251 30.471252 
L 27.206287 30.724865 
L 27.088324 30.978478 
L 26.97036 31.232091 
L 26.852397 31.485703 
L 26.672338 31.872785 
L 26.492279 32.259867 
L 26.312219 32.646948 
L 26.13216 33.03403 
L 25.81787 33.36317 
L 25.50358 33.692311 
L 25.189289 34.021451 
L 24.874999 34.350591 
L 24.645486 34.566647 
L 24.415974 34.782703 
L 24.186461 34.998759 
L 23.956948 35.214815 
L 23.727435 35.430871 
L 23.497923 35.646927 
L 23.26841 35.862983 
L 23.038897 36.079039 
L 22.731951 36.367919 
L 22.425004 36.656799 
L 22.151987 36.954838 
L 21.87897 37.252877 
L 21.605953 37.550916 
L 21.332936 37.848955 
L 21.048485 38.159459 
L 20.764034 38.469964 
L 20.479584 38.780469 
L 20.195133 39.090974 
L 20.041102 39.319337 
L 19.887071 39.5477 
L 19.73304 39.776063 
L 19.579009 40.004426 
L 19.424978 40.232789 
L 19.270947 40.461152 
L 19.116916 40.689515 
L 18.962885 40.917877 
L 18.808854 41.14624 
L 18.654822 41.374603 
L 18.500791 41.602966 
L 18.34676 41.831329 
L 18.192729 42.059692 
L 18.038698 42.288055 
L 17.884667 42.516418 
L 17.730636 42.744781 
L 17.412256 43.129764 
L 17.093875 43.514746 
L 16.775495 43.899729 
L 16.457115 44.284712 
L 16.156652 44.634491 
L 15.856189 44.98427 
L 15.555726 45.334049 
L 15.255264 45.683828 
L 14.954801 46.033608 
L 14.654338 46.383387 
L 14.353875 46.733166 
L 14.053413 47.082945 
L 13.75295 47.432724 
L 13.452487 47.782503 
L 13.152024 48.132282 
L 12.851561 48.482061 
L 12.551099 48.83184 
L 12.250636 49.181619 
L 11.950173 49.531399 
L 11.64971 49.881178 
" style="fill:none;stroke:#4169e1;stroke-linecap:square;stroke-width:0.4;"/>
   </g>
   <g id="line2d_39">
    <path clip-path="url(#p03780ed281)" d="M 41.712999 16.809928 
L 41.49743 17.043283 
L 41.281861 17.276639 
L 41.066292 17.509995 
L 40.850723 17.74335 
L 40.529972 18.009747 
L 40.209221 18.276144 
L 39.88847 18.542541 
L 39.567719 18.808938 
L 39.246969 19.075335 
L 38.926218 19.341732 
L 38.605467 19.608129 
L 38.284716 19.874526 
L 38.033451 20.183949 
L 37.782187 20.493373 
L 37.530922 20.802796 
L 37.279657 21.11222 
L 37.087699 21.421771 
L 36.895741 21.731322 
L 36.703783 22.040873 
L 36.511826 22.350424 
L 36.26981 22.586673 
L 36.027794 22.822923 
L 35.785779 23.059172 
L 35.543763 23.295422 
L 35.301748 23.531671 
L 35.059732 23.767921 
L 34.817717 24.00417 
L 34.575701 24.24042 
L 34.474145 24.578083 
L 34.372588 24.915746 
L 34.271032 25.253409 
L 34.169475 25.591072 
L 34.067919 25.928735 
L 33.966363 26.266398 
L 33.864806 26.604061 
L 33.76325 26.941723 
L 33.605687 27.384202 
L 33.448123 27.826681 
L 33.29056 28.26916 
L 33.132996 28.711639 
L 32.822703 28.936282 
L 32.51241 29.160924 
L 32.202117 29.385566 
L 31.891824 29.610208 
L 31.671793 29.77004 
L 31.451762 29.929872 
L 31.231731 30.089704 
L 31.0117 30.249535 
L 30.535198 30.297364 
L 30.058697 30.345193 
L 29.582195 30.393021 
L 29.105694 30.44085 
" style="fill:none;stroke:#000000;stroke-linecap:square;stroke-width:0.4;"/>
   </g>
   <g id="line2d_40">
    <path clip-path="url(#p03780ed281)" d="M 17.462546 24.378818 
L 17.517112 24.73324 
L 17.571678 25.087662 
L 17.626245 25.442084 
L 17.680811 25.796506 
L 17.735377 26.150928 
L 17.789943 26.50535 
L 17.84451 26.859772 
L 17.899076 27.214194 
L 17.938443 27.466662 
L 17.977811 27.71913 
L 18.017179 27.971599 
L 18.056546 28.224067 
L 18.095914 28.476535 
L 18.135281 28.729003 
L 18.174649 28.981471 
L 18.214017 29.233939 
L 18.325752 29.57192 
L 18.437487 29.909901 
L 18.549222 30.247882 
L 18.660958 30.585863 
L 18.804299 31.019151 
L 18.947639 31.45244 
L 19.09098 31.885728 
L 19.234321 32.319017 
L 19.377662 32.752305 
L 19.521003 33.185594 
L 19.664344 33.618882 
L 19.807685 34.052171 
L 19.903013 34.28947 
L 19.998341 34.526769 
L 20.093669 34.764068 
L 20.188998 35.001367 
L 20.284326 35.238666 
L 20.379654 35.475965 
L 20.474982 35.713264 
L 20.57031 35.950563 
L 20.665639 36.187862 
L 20.760967 36.425161 
L 20.856295 36.66246 
L 20.951623 36.899759 
L 21.046951 37.137058 
L 21.14228 37.374357 
L 21.237608 37.611656 
L 21.332936 37.848955 
" style="fill:none;stroke:#000000;stroke-linecap:square;stroke-width:0.4;"/>
   </g>
   <g id="line2d_41">
    <path clip-path="url(#p03780ed281)" d="M 50.622816 28.487252 
L 50.542315 28.72843 
L 50.461813 28.969609 
L 50.381312 29.210788 
L 50.30081 29.451966 
L 50.220309 29.693145 
L 50.139807 29.934324 
L 50.059306 30.175503 
L 49.978805 30.416681 
L 49.955658 30.764139 
L 49.932512 31.111597 
L 49.909365 31.459054 
L 49.886219 31.806512 
L 49.863072 32.153969 
L 49.839926 32.501427 
L 49.816779 32.848885 
L 49.793633 33.196342 
L 49.794795 33.560019 
L 49.795957 33.923695 
L 49.797119 34.287371 
L 49.798281 34.651047 
L 49.799443 35.014723 
L 49.800605 35.378399 
L 49.801767 35.742075 
L 49.802928 36.105751 
L 49.675576 36.420804 
L 49.548224 36.735856 
L 49.420872 37.050909 
L 49.29352 37.365961 
L 49.166168 37.681014 
L 49.038816 37.996066 
L 48.911463 38.311118 
L 48.784111 38.626171 
L 48.478373 38.966632 
L 48.172635 39.307094 
L 47.866897 39.647555 
L 47.561159 39.988016 
L 47.205223 40.247385 
L 46.849288 40.506754 
L 46.493353 40.766123 
L 46.137417 41.025492 
" style="fill:none;stroke:#4169e1;stroke-linecap:square;stroke-width:0.4;"/>
   </g>
   <g id="line2d_42">
    <path clip-path="url(#p03780ed281)" d="M 45.053158 15.458767 
L 45.393941 15.483763 
L 45.734724 15.508758 
L 46.075508 15.533754 
L 46.416291 15.558749 
L 46.789144 15.591186 
L 47.161998 15.623623 
L 47.534852 15.65606 
L 47.907705 15.688497 
L 48.333824 15.943287 
L 48.759942 16.198077 
L 49.011207 16.408854 
L 49.262472 16.61963 
L 49.513737 16.830407 
L 49.765002 17.041184 
L 50.016267 17.251961 
L 50.267531 17.462738 
L 50.518796 17.673515 
L 50.770061 17.884292 
L 50.962298 18.322128 
L 51.154535 18.759964 
L 51.346771 19.1978 
L 51.539008 19.635637 
L 51.592923 19.982649 
L 51.646839 20.329661 
" style="fill:none;stroke:#000000;stroke-linecap:square;stroke-width:0.4;"/>
   </g>
   <g id="line2d_43">
    <path clip-path="url(#p03780ed281)" d="M 55.017116 59.941739 
L 54.774055 59.78027 
L 54.530993 59.6188 
L 54.287932 59.457331 
L 54.044871 59.295861 
L 53.801809 59.134392 
L 53.558748 58.972922 
L 53.315687 58.811452 
L 53.072625 58.649983 
L 52.829564 58.488513 
L 52.586503 58.327044 
L 52.343441 58.165574 
L 52.10038 58.004105 
L 51.857319 57.842635 
L 51.614257 57.681166 
L 51.371196 57.519696 
L 51.128135 57.358227 
L 50.848146 57.119083 
L 50.568157 56.87994 
L 50.288168 56.640796 
L 50.008179 56.401653 
L 49.72819 56.162509 
L 49.448202 55.923366 
L 49.168213 55.684223 
L 48.888224 55.445079 
L 48.596708 55.192834 
L 48.305193 54.940588 
L 48.013677 54.688343 
L 47.722162 54.436097 
L 47.639057 54.166234 
L 47.555953 53.896371 
L 47.472849 53.626508 
L 47.389745 53.356644 
" style="fill:none;stroke:#008000;stroke-linecap:square;stroke-width:0.4;"/>
   </g>
  </g>
 </g>
 <defs>
  <clipPath id="p03780ed281">
   <rect height="69.982889" width="72" x="0" y="0"/>
  </clipPath>
 </defs>
</svg>
