<?xml version="1.0" encoding="utf-8" standalone="no"?>
<!DOCTYPE svg PUBLIC "-//W3C//DTD SVG 1.1//EN"
  "http://www.w3.org/Graphics/SVG/1.1/DTD/svg11.dtd">
<svg height="72pt" version="1.1" viewBox="0 0 29.7009 72" width="29.7009pt" xmlns="http://www.w3.org/2000/svg" xmlns:xlink="http://www.w3.org/1999/xlink">
 <metadata>
  <rdf:RDF xmlns:cc="http://creativecommons.org/ns#" xmlns:dc="http://purl.org/dc/elements/1.1/" xmlns:rdf="http://www.w3.org/1999/02/22-rdf-syntax-ns#">
   <cc:Work>
    <dc:type rdf:resource="http://purl.org/dc/dcmitype/StillImage"/>
    <dc:date>2022-05-19T22:15:47.052187</dc:date>
    <dc:format>image/svg+xml</dc:format>
    <dc:creator>
     <cc:Agent>
      <dc:title>Matplotlib v3.4.3, https://matplotlib.org/</dc:title>
     </cc:Agent>
    </dc:creator>
   </cc:Work>
  </rdf:RDF>
 </metadata>
 <defs>
  <style type="text/css">*{stroke-linecap:butt;stroke-linejoin:round;}</style>
 </defs>
 <g id="figure_1">
  <g id="patch_1">
   <path d="M 0 72 
L 29.7009 72 
L 29.7009 0 
L 0 0 
z
" style="fill:#ffffff;"/>
  </g>
  <g id="axes_1">
   <g id="patch_2">
    <path clip-path="url(#p4e000e8146)" d="M 14.283316 3.879949 
L 14.283316 3.879949 
L 14.141701 3.877986 
L 14.000085 3.876022 
L 13.85847 3.874059 
L 13.716855 3.872095 
L 13.57524 3.870132 
L 13.433625 3.868169 
L 13.29201 3.866205 
L 13.150395 3.864242 
L 12.993038 3.901609 
L 12.835681 3.938976 
L 12.678323 3.976343 
L 12.520966 4.01371 
L 12.363609 4.051077 
L 12.206252 4.088444 
L 12.048895 4.125811 
L 11.891538 4.163178 
L 11.877765 4.326437 
L 11.863992 4.489695 
L 11.850219 4.652954 
L 11.836446 4.816213 
L 11.822673 4.979471 
L 11.8089 5.14273 
L 11.795127 5.305988 
L 11.781354 5.469247 
L 11.752834 5.567589 
L 11.724314 5.66593 
L 11.695794 5.764272 
L 11.667274 5.862614 
L 11.638754 5.960955 
L 11.610234 6.059297 
L 11.581714 6.157639 
L 11.553194 6.25598 
L 11.524675 6.354322 
L 11.496155 6.452663 
L 11.467635 6.551005 
L 11.439115 6.649347 
L 11.410595 6.747688 
L 11.382075 6.84603 
L 11.353555 6.944372 
L 11.325035 7.042713 
L 11.234553 7.16072 
L 11.14407 7.278727 
L 11.053588 7.396734 
L 10.963105 7.514741 
L 10.872623 7.632747 
L 10.78214 7.750754 
L 10.691658 7.868761 
L 10.601175 7.986768 
L 10.510693 8.104775 
L 10.42021 8.222782 
L 10.329728 8.340788 
L 10.239245 8.458795 
L 10.148763 8.576802 
L 10.058281 8.694809 
L 9.967798 8.812816 
L 9.877316 8.930823 
L 9.824209 8.996714 
L 9.771102 9.062605 
L 9.717995 9.128495 
L 9.664888 9.194386 
L 9.611781 9.260277 
L 9.558674 9.326168 
L 9.505567 9.392059 
L 9.45246 9.45795 
L 9.399353 9.523841 
L 9.346246 9.589732 
L 9.293139 9.655623 
L 9.240032 9.721514 
L 9.186925 9.787405 
L 9.133818 9.853296 
L 9.080711 9.919187 
L 9.027604 9.985077 
L 9.017769 10.071607 
L 9.007934 10.158138 
L 8.998099 10.244668 
L 8.988265 10.331198 
L 8.97843 10.417728 
L 8.968595 10.504258 
L 8.95876 10.590788 
L 8.948925 10.677318 
L 9.004007 10.769754 
L 9.059088 10.862189 
L 9.114169 10.954625 
L 9.169251 11.047061 
L 9.224332 11.139497 
L 9.279413 11.231933 
L 9.334495 11.324369 
L 9.389576 11.416804 
L 9.440709 11.55644 
L 9.491841 11.696075 
L 9.542974 11.835711 
L 9.594106 11.975346 
L 9.645239 12.114982 
L 9.696372 12.254617 
L 9.747504 12.394253 
L 9.798637 12.533888 
L 9.839945 12.608622 
L 9.881254 12.683356 
L 9.922562 12.75809 
L 9.96387 12.832824 
L 10.005179 12.907558 
L 10.046487 12.982292 
L 10.087796 13.057026 
L 10.129104 13.13176 
L 10.253029 13.076692 
L 10.376954 13.021623 
L 10.500879 12.966554 
L 10.624804 12.911485 
L 10.748729 12.856416 
L 10.872654 12.801347 
L 10.996579 12.746279 
L 11.120504 12.69121 
L 11.216884 12.618455 
L 11.313263 12.5457 
L 11.409642 12.472945 
L 11.506021 12.40019 
L 11.6024 12.327435 
L 11.698779 12.25468 
L 11.795158 12.181924 
L 11.891538 12.109169 
L 11.972185 12.004922 
L 12.052833 11.900675 
L 12.133481 11.796427 
L 12.214128 11.69218 
L 12.294776 11.587932 
L 12.375423 11.483685 
L 12.456071 11.379437 
L 12.536719 11.27519 
L 12.680303 11.241765 
L 12.823887 11.208341 
L 12.967471 11.174916 
L 13.111056 11.141492 
L 13.25464 11.108067 
L 13.398224 11.074642 
L 13.541808 11.041218 
L 13.685392 11.007793 
L 13.677526 10.890768 
L 13.669661 10.773743 
L 13.661795 10.656718 
L 13.653929 10.539692 
L 13.646063 10.422667 
L 13.638198 10.305642 
L 13.630332 10.188617 
L 13.622466 10.071592 
L 13.6146 9.954567 
L 13.606735 9.837542 
L 13.598869 9.720516 
L 13.591003 9.603491 
L 13.583137 9.486466 
L 13.575272 9.369441 
L 13.567406 9.252416 
L 13.55954 9.135391 
L 13.584127 9.040984 
L 13.608714 8.946577 
L 13.633301 8.85217 
L 13.657888 8.757763 
L 13.682475 8.663356 
L 13.707063 8.568949 
L 13.73165 8.474542 
L 13.756237 8.380135 
L 13.780824 8.285727 
L 13.805411 8.19132 
L 13.829998 8.096913 
L 13.854585 8.002506 
L 13.879172 7.908099 
L 13.903759 7.813692 
L 13.928346 7.719285 
L 13.952933 7.624878 
L 14.004066 7.469504 
L 14.055198 7.314131 
L 14.106331 7.158757 
L 14.157464 7.003383 
L 14.208596 6.848009 
L 14.259729 6.692635 
L 14.310862 6.537261 
L 14.361994 6.381887 
L 14.38954 6.289436 
L 14.417086 6.196985 
L 14.444632 6.104533 
L 14.472178 6.012082 
L 14.499724 5.91963 
L 14.52727 5.827179 
L 14.554816 5.734727 
L 14.582362 5.642276 
L 14.564651 5.488866 
L 14.546939 5.335455 
L 14.529228 5.182045 
L 14.511517 5.028634 
L 14.493806 4.875224 
L 14.476095 4.721813 
L 14.458384 4.568403 
L 14.440673 4.414992 
z
" style="fill:#ffd700;opacity:0.1;"/>
   </g>
   <g id="patch_3">
    <path clip-path="url(#p4e000e8146)" d="M 14.283316 3.879949 
L 14.283316 3.879949 
L 14.141701 3.877986 
L 14.000085 3.876022 
L 13.85847 3.874059 
L 13.716855 3.872095 
L 13.57524 3.870132 
L 13.433625 3.868169 
L 13.29201 3.866205 
L 13.150395 3.864242 
L 12.993038 3.901609 
L 12.835681 3.938976 
L 12.678323 3.976343 
L 12.520966 4.01371 
L 12.363609 4.051077 
L 12.206252 4.088444 
L 12.048895 4.125811 
L 11.891538 4.163178 
L 11.877765 4.326437 
L 11.863992 4.489695 
L 11.850219 4.652954 
L 11.836446 4.816213 
L 11.822673 4.979471 
L 11.8089 5.14273 
L 11.795127 5.305988 
L 11.781354 5.469247 
L 11.752834 5.567589 
L 11.724314 5.66593 
L 11.695794 5.764272 
L 11.667274 5.862614 
L 11.638754 5.960955 
L 11.610234 6.059297 
L 11.581714 6.157639 
L 11.553194 6.25598 
L 11.524675 6.354322 
L 11.496155 6.452663 
L 11.467635 6.551005 
L 11.439115 6.649347 
L 11.410595 6.747688 
L 11.382075 6.84603 
L 11.353555 6.944372 
L 11.325035 7.042713 
L 11.234553 7.16072 
L 11.14407 7.278727 
L 11.053588 7.396734 
L 10.963105 7.514741 
L 10.872623 7.632747 
L 10.78214 7.750754 
L 10.691658 7.868761 
L 10.601175 7.986768 
L 10.510693 8.104775 
L 10.42021 8.222782 
L 10.329728 8.340788 
L 10.239245 8.458795 
L 10.148763 8.576802 
L 10.058281 8.694809 
L 9.967798 8.812816 
L 9.877316 8.930823 
L 9.824209 8.996714 
L 9.771102 9.062605 
L 9.717995 9.128495 
L 9.664888 9.194386 
L 9.611781 9.260277 
L 9.558674 9.326168 
L 9.505567 9.392059 
L 9.45246 9.45795 
L 9.399353 9.523841 
L 9.346246 9.589732 
L 9.293139 9.655623 
L 9.240032 9.721514 
L 9.186925 9.787405 
L 9.133818 9.853296 
L 9.080711 9.919187 
L 9.027604 9.985077 
L 9.017769 10.071607 
L 9.007934 10.158138 
L 8.998099 10.244668 
L 8.988265 10.331198 
L 8.97843 10.417728 
L 8.968595 10.504258 
L 8.95876 10.590788 
L 8.948925 10.677318 
L 9.004007 10.769754 
L 9.059088 10.862189 
L 9.114169 10.954625 
L 9.169251 11.047061 
L 9.224332 11.139497 
L 9.279413 11.231933 
L 9.334495 11.324369 
L 9.389576 11.416804 
L 9.440709 11.55644 
L 9.491841 11.696075 
L 9.542974 11.835711 
L 9.594106 11.975346 
L 9.645239 12.114982 
L 9.696372 12.254617 
L 9.747504 12.394253 
L 9.798637 12.533888 
L 9.839945 12.608622 
L 9.881254 12.683356 
L 9.922562 12.75809 
L 9.96387 12.832824 
L 10.005179 12.907558 
L 10.046487 12.982292 
L 10.087796 13.057026 
L 10.129104 13.13176 
L 10.253029 13.076692 
L 10.376954 13.021623 
L 10.500879 12.966554 
L 10.624804 12.911485 
L 10.748729 12.856416 
L 10.872654 12.801347 
L 10.996579 12.746279 
L 11.120504 12.69121 
L 11.216884 12.618455 
L 11.313263 12.5457 
L 11.409642 12.472945 
L 11.506021 12.40019 
L 11.6024 12.327435 
L 11.698779 12.25468 
L 11.795158 12.181924 
L 11.891538 12.109169 
L 11.972185 12.004922 
L 12.052833 11.900675 
L 12.133481 11.796427 
L 12.214128 11.69218 
L 12.294776 11.587932 
L 12.375423 11.483685 
L 12.456071 11.379437 
L 12.536719 11.27519 
L 12.680303 11.241765 
L 12.823887 11.208341 
L 12.967471 11.174916 
L 13.111056 11.141492 
L 13.25464 11.108067 
L 13.398224 11.074642 
L 13.541808 11.041218 
L 13.685392 11.007793 
L 13.677526 10.890768 
L 13.669661 10.773743 
L 13.661795 10.656718 
L 13.653929 10.539692 
L 13.646063 10.422667 
L 13.638198 10.305642 
L 13.630332 10.188617 
L 13.622466 10.071592 
L 13.6146 9.954567 
L 13.606735 9.837542 
L 13.598869 9.720516 
L 13.591003 9.603491 
L 13.583137 9.486466 
L 13.575272 9.369441 
L 13.567406 9.252416 
L 13.55954 9.135391 
L 13.584127 9.040984 
L 13.608714 8.946577 
L 13.633301 8.85217 
L 13.657888 8.757763 
L 13.682475 8.663356 
L 13.707063 8.568949 
L 13.73165 8.474542 
L 13.756237 8.380135 
L 13.780824 8.285727 
L 13.805411 8.19132 
L 13.829998 8.096913 
L 13.854585 8.002506 
L 13.879172 7.908099 
L 13.903759 7.813692 
L 13.928346 7.719285 
L 13.952933 7.624878 
L 14.004066 7.469504 
L 14.055198 7.314131 
L 14.106331 7.158757 
L 14.157464 7.003383 
L 14.208596 6.848009 
L 14.259729 6.692635 
L 14.310862 6.537261 
L 14.361994 6.381887 
L 14.38954 6.289436 
L 14.417086 6.196985 
L 14.444632 6.104533 
L 14.472178 6.012082 
L 14.499724 5.91963 
L 14.52727 5.827179 
L 14.554816 5.734727 
L 14.582362 5.642276 
L 14.564651 5.488866 
L 14.546939 5.335455 
L 14.529228 5.182045 
L 14.511517 5.028634 
L 14.493806 4.875224 
L 14.476095 4.721813 
L 14.458384 4.568403 
L 14.440673 4.414992 
z
" style="fill:none;stroke:#ffd700;stroke-dasharray:1.48,0.64;stroke-dashoffset:0;stroke-linejoin:miter;stroke-width:0.4;"/>
   </g>
   <g id="patch_4">
    <path clip-path="url(#p4e000e8146)" d="M 11.991276 20.501072 
L 11.991276 20.501072 
L 11.9048 20.480526 
L 11.818324 20.459981 
L 11.731848 20.439435 
L 11.645372 20.418889 
L 11.558896 20.398344 
L 11.47242 20.377798 
L 11.385945 20.357253 
L 11.299469 20.336707 
L 11.212993 20.316161 
L 11.126517 20.295616 
L 11.040041 20.27507 
L 10.953565 20.254524 
L 10.867089 20.233979 
L 10.780613 20.213433 
L 10.694138 20.192888 
L 10.607662 20.172342 
L 10.514341 20.16293 
L 10.421021 20.153518 
L 10.327701 20.144106 
L 10.234381 20.134694 
L 10.14106 20.125283 
L 10.04774 20.115871 
L 9.95442 20.106459 
L 9.8611 20.097047 
L 9.76778 20.087635 
L 9.674459 20.078223 
L 9.581139 20.068811 
L 9.487819 20.059399 
L 9.394499 20.049988 
L 9.301178 20.040576 
L 9.207858 20.031164 
L 9.114538 20.021752 
L 9.023782 19.9995 
L 8.933025 19.977248 
L 8.842269 19.954996 
L 8.751513 19.932744 
L 8.660757 19.910492 
L 8.57 19.88824 
L 8.479244 19.865988 
L 8.388488 19.843737 
L 8.297732 19.821485 
L 8.206975 19.799233 
L 8.116219 19.776981 
L 8.025463 19.754729 
L 7.934707 19.732477 
L 7.84395 19.710225 
L 7.753194 19.687973 
L 7.662438 19.665721 
L 7.50148 19.662293 
L 7.340521 19.658865 
L 7.179563 19.655437 
L 7.018605 19.652009 
L 7.010902 19.556994 
L 7.0032 19.461979 
L 6.995497 19.366964 
L 6.987794 19.27195 
L 6.980092 19.176935 
L 6.972389 19.08192 
L 6.964687 18.986905 
L 6.956984 18.891891 
L 6.949282 18.796876 
L 6.941579 18.701861 
L 6.933877 18.606846 
L 6.926174 18.511832 
L 6.918472 18.416817 
L 6.910769 18.321802 
L 6.903067 18.226787 
L 6.895364 18.131772 
L 7.032335 18.076984 
L 7.169307 18.022196 
L 7.306278 17.967407 
L 7.44325 17.912619 
L 7.559688 17.883526 
L 7.676127 17.854434 
L 7.792565 17.825341 
L 7.909003 17.796248 
L 8.025442 17.767156 
L 8.14188 17.738063 
L 8.258319 17.70897 
L 8.374757 17.679878 
L 8.460375 17.693559 
L 8.545992 17.707241 
L 8.63161 17.720922 
L 8.717228 17.734604 
L 8.802846 17.748285 
L 8.888463 17.761967 
L 8.974081 17.775648 
L 9.059699 17.78933 
L 9.196691 17.826993 
L 9.333684 17.864656 
L 9.470676 17.902319 
L 9.607669 17.939982 
L 9.744661 17.977645 
L 9.881654 18.015308 
L 10.018646 18.052971 
L 10.155639 18.090634 
L 10.250828 18.05573 
L 10.346018 18.020825 
L 10.438827 17.986948 
L 10.531637 17.953072 
L 10.624446 17.919195 
L 10.717256 17.885318 
L 10.838833 17.912697 
L 10.96041 17.940076 
L 11.081986 17.967454 
L 11.203563 17.994833 
L 11.32514 18.022211 
L 11.446717 18.04959 
L 11.568294 18.076969 
L 11.689871 18.104347 
L 11.77035 18.148867 
L 11.850829 18.193386 
L 11.931309 18.237905 
L 12.011788 18.282425 
L 12.092267 18.326944 
L 12.172746 18.371464 
L 12.253225 18.415983 
L 12.333704 18.460502 
L 12.410761 18.516989 
L 12.487818 18.573476 
L 12.564875 18.629963 
L 12.641932 18.68645 
L 12.718989 18.742937 
L 12.796046 18.799424 
L 12.873103 18.85591 
L 12.95016 18.912397 
L 12.999819 19.054495 
L 13.049477 19.196592 
L 13.099136 19.33869 
L 13.148794 19.480787 
L 13.198453 19.622885 
L 13.248111 19.764982 
L 13.29777 19.90708 
L 13.347428 20.049177 
z
" style="fill:#ff0000;opacity:0.1;"/>
   </g>
   <g id="patch_5">
    <path clip-path="url(#p4e000e8146)" d="M 11.991276 20.501072 
L 11.991276 20.501072 
L 11.9048 20.480526 
L 11.818324 20.459981 
L 11.731848 20.439435 
L 11.645372 20.418889 
L 11.558896 20.398344 
L 11.47242 20.377798 
L 11.385945 20.357253 
L 11.299469 20.336707 
L 11.212993 20.316161 
L 11.126517 20.295616 
L 11.040041 20.27507 
L 10.953565 20.254524 
L 10.867089 20.233979 
L 10.780613 20.213433 
L 10.694138 20.192888 
L 10.607662 20.172342 
L 10.514341 20.16293 
L 10.421021 20.153518 
L 10.327701 20.144106 
L 10.234381 20.134694 
L 10.14106 20.125283 
L 10.04774 20.115871 
L 9.95442 20.106459 
L 9.8611 20.097047 
L 9.76778 20.087635 
L 9.674459 20.078223 
L 9.581139 20.068811 
L 9.487819 20.059399 
L 9.394499 20.049988 
L 9.301178 20.040576 
L 9.207858 20.031164 
L 9.114538 20.021752 
L 9.023782 19.9995 
L 8.933025 19.977248 
L 8.842269 19.954996 
L 8.751513 19.932744 
L 8.660757 19.910492 
L 8.57 19.88824 
L 8.479244 19.865988 
L 8.388488 19.843737 
L 8.297732 19.821485 
L 8.206975 19.799233 
L 8.116219 19.776981 
L 8.025463 19.754729 
L 7.934707 19.732477 
L 7.84395 19.710225 
L 7.753194 19.687973 
L 7.662438 19.665721 
L 7.50148 19.662293 
L 7.340521 19.658865 
L 7.179563 19.655437 
L 7.018605 19.652009 
L 7.010902 19.556994 
L 7.0032 19.461979 
L 6.995497 19.366964 
L 6.987794 19.27195 
L 6.980092 19.176935 
L 6.972389 19.08192 
L 6.964687 18.986905 
L 6.956984 18.891891 
L 6.949282 18.796876 
L 6.941579 18.701861 
L 6.933877 18.606846 
L 6.926174 18.511832 
L 6.918472 18.416817 
L 6.910769 18.321802 
L 6.903067 18.226787 
L 6.895364 18.131772 
L 7.032335 18.076984 
L 7.169307 18.022196 
L 7.306278 17.967407 
L 7.44325 17.912619 
L 7.559688 17.883526 
L 7.676127 17.854434 
L 7.792565 17.825341 
L 7.909003 17.796248 
L 8.025442 17.767156 
L 8.14188 17.738063 
L 8.258319 17.70897 
L 8.374757 17.679878 
L 8.460375 17.693559 
L 8.545992 17.707241 
L 8.63161 17.720922 
L 8.717228 17.734604 
L 8.802846 17.748285 
L 8.888463 17.761967 
L 8.974081 17.775648 
L 9.059699 17.78933 
L 9.196691 17.826993 
L 9.333684 17.864656 
L 9.470676 17.902319 
L 9.607669 17.939982 
L 9.744661 17.977645 
L 9.881654 18.015308 
L 10.018646 18.052971 
L 10.155639 18.090634 
L 10.250828 18.05573 
L 10.346018 18.020825 
L 10.438827 17.986948 
L 10.531637 17.953072 
L 10.624446 17.919195 
L 10.717256 17.885318 
L 10.838833 17.912697 
L 10.96041 17.940076 
L 11.081986 17.967454 
L 11.203563 17.994833 
L 11.32514 18.022211 
L 11.446717 18.04959 
L 11.568294 18.076969 
L 11.689871 18.104347 
L 11.77035 18.148867 
L 11.850829 18.193386 
L 11.931309 18.237905 
L 12.011788 18.282425 
L 12.092267 18.326944 
L 12.172746 18.371464 
L 12.253225 18.415983 
L 12.333704 18.460502 
L 12.410761 18.516989 
L 12.487818 18.573476 
L 12.564875 18.629963 
L 12.641932 18.68645 
L 12.718989 18.742937 
L 12.796046 18.799424 
L 12.873103 18.85591 
L 12.95016 18.912397 
L 12.999819 19.054495 
L 13.049477 19.196592 
L 13.099136 19.33869 
L 13.148794 19.480787 
L 13.198453 19.622885 
L 13.248111 19.764982 
L 13.29777 19.90708 
L 13.347428 20.049177 
z
" style="fill:none;stroke:#ff0000;stroke-linejoin:miter;stroke-width:0.4;"/>
   </g>
   <g id="line2d_1">
    <path clip-path="url(#p4e000e8146)" d="M 18.678196 22.549744 
L 18.702267 22.142073 
L 18.726339 21.734402 
L 18.75041 21.32673 
L 18.774481 20.919059 
L 18.793392 20.599242 
L 18.812304 20.279425 
L 18.831215 19.959609 
L 18.850127 19.639792 
L 18.868217 19.33375 
L 18.886307 19.027708 
L 18.904397 18.721666 
L 18.922487 18.415625 
L 18.942452 18.07795 
L 18.962416 17.740276 
L 18.982381 17.402601 
L 19.002345 17.064927 
L 19.008158 16.967318 
L 19.014476 16.85986 
L 19.046318 16.321264 
L 19.07816 15.782668 
L 19.107306 15.289635 
L 19.136453 14.796603 
L 19.159366 14.409095 
L 19.182278 14.021588 
L 19.212183 13.515715 
L 19.242088 13.009842 
L 19.262178 12.669924 
L 19.282269 12.330006 
L 19.30236 11.990087 
L 19.322451 11.650169 
L 19.350502 11.175836 
L 19.368192 10.876525 
L 19.385882 10.577215 
L 19.416545 10.058378 
L 19.428675 9.853685 
L 19.453399 9.435698 
L 19.478123 9.017711 
L 19.49794 8.682281 
L 19.517757 8.34685 
L 19.537574 8.01142 
L 19.557391 7.675989 
L 19.563204 7.577383 
L 19.593572 7.063968 
L 19.62394 6.550553 
L 19.643399 6.233915 
L 19.653844 6.057645 
" style="fill:none;stroke:#808080;stroke-linecap:square;stroke-width:0.4;"/>
   </g>
   <g id="line2d_2">
    <path clip-path="url(#p4e000e8146)" d="M 4.148016 12.400252 
L 4.423307 12.099072 
L 4.698598 11.797892 
L 4.970519 11.500452 
L 5.191687 11.258548 
L 5.412854 11.016644 
L 5.662326 10.743824 
L 5.911798 10.471004 
L 6.221079 10.132676 
L 6.530359 9.794347 
L 6.734427 9.571142 
L 6.938494 9.347937 
L 7.215764 9.0447 
L 7.493035 8.741463 
L 7.713149 8.500681 
L 7.933264 8.259899 
L 8.217695 7.948746 
L 8.502125 7.637594 
L 8.644909 7.481519 
L 8.965604 7.130724 
L 9.2863 6.779929 
L 9.640564 6.392421 
L 9.994828 6.004914 
L 10.303456 5.667302 
L 10.612084 5.32969 
L 10.920712 4.992077 
L 11.22934 4.654465 
L 11.366228 4.504748 
L 11.560481 4.292825 
" style="fill:none;stroke:#808080;stroke-linecap:square;stroke-width:0.4;"/>
   </g>
   <g id="line2d_3">
    <path clip-path="url(#p4e000e8146)" d="M 11.421404 16.172482 
L 11.109638 16.170113 
L 10.584412 16.165999 
L 10.263043 16.163506 
L 9.941674 16.161013 
L 9.620305 16.15852 
L 9.298935 16.156027 
L 8.943408 16.153284 
L 8.58788 16.150542 
L 8.200594 16.14755 
L 7.813309 16.144558 
L 7.390475 16.141317 
L 6.96764 16.138075 
L 6.544975 16.134772 
L 6.122309 16.131468 
L 5.80949 16.1291 
L 5.496671 16.126731 
L 4.98644 16.122742 
" style="fill:none;stroke:#808080;stroke-linecap:square;stroke-width:0.4;"/>
   </g>
   <g id="line2d_4">
    <path clip-path="url(#p4e000e8146)" d="M 16.489348 68.727273 
L 4.410081 16.712387 
L 4.410081 16.712387 
" style="fill:none;stroke:#808080;stroke-linecap:square;stroke-width:0.4;"/>
   </g>
   <g id="line2d_5">
    <path clip-path="url(#p4e000e8146)" d="M 1.690953 17.162412 
L 2.184084 17.071596 
L 2.677215 16.980781 
L 3.170346 16.889966 
L 3.663477 16.799151 
" style="fill:none;stroke:#808080;stroke-linecap:square;stroke-width:0.4;"/>
   </g>
   <g id="line2d_6">
    <path clip-path="url(#p4e000e8146)" d="M 3.730194 12.912607 
L 3.785876 13.240714 
L 3.810979 13.387938 
L 3.845011 13.590137 
L 3.927017 14.071452 
L 4.009023 14.552767 
L 4.066389 14.889288 
L 4.123755 15.225809 
L 4.211448 15.73966 
L 4.273531 16.103794 
L 4.2908 16.201777 
" style="fill:none;stroke:#808080;stroke-linecap:square;stroke-width:0.4;"/>
   </g>
   <g id="line2d_7">
    <path clip-path="url(#p4e000e8146)" d="M 9.567571 24.115481 
L 9.451491 23.92151 
L 9.234746 23.557251 
L 8.956338 23.0894 
L 8.759094 22.757865 
L 8.56185 22.42633 
L 8.333817 22.042999 
L 8.079755 21.616036 
L 7.825692 21.189074 
L 7.627268 20.855544 
L 7.428845 20.522015 
L 7.150311 20.053852 
L 6.871777 19.585689 
L 6.609122 19.144266 
L 6.346467 18.702843 
L 6.154657 18.380346 
L 5.926413 17.996703 
L 5.698169 17.61306 
L 5.517141 17.308763 
L 5.336113 17.004467 
L 5.174418 16.732208 
L 5.012722 16.459949 
" style="fill:none;stroke:#808080;stroke-linecap:square;stroke-width:0.4;"/>
   </g>
   <g id="line2d_8">
    <path clip-path="url(#p4e000e8146)" d="M 4.98644 16.122742 
L 5.090811 16.187254 
L 5.195182 16.251766 
L 5.350244 16.291564 
L 5.505306 16.331362 
L 5.660367 16.37116 
L 5.815429 16.410958 
L 5.911598 16.413934 
L 6.007766 16.41691 
L 6.103935 16.419886 
L 6.200103 16.422863 
L 6.296272 16.425839 
L 6.39244 16.428815 
L 6.488609 16.431791 
L 6.584777 16.434768 
L 6.74364 16.43603 
L 6.902503 16.437292 
L 7.061366 16.438554 
L 7.220229 16.439816 
L 7.379092 16.441079 
L 7.537955 16.442341 
L 7.696818 16.443603 
L 7.855681 16.444865 
L 7.950343 16.446361 
L 8.045006 16.447857 
L 8.139669 16.449353 
L 8.234332 16.450849 
L 8.328995 16.452345 
L 8.423657 16.453841 
L 8.51832 16.455337 
L 8.612983 16.456833 
L 8.707646 16.458329 
L 8.802309 16.459824 
L 8.896971 16.46132 
L 8.991634 16.462816 
L 9.086297 16.464312 
L 9.18096 16.465808 
L 9.275622 16.467304 
L 9.370285 16.4688 
L 9.504487 16.467616 
L 9.63869 16.466431 
L 9.772892 16.465247 
L 9.907094 16.464063 
L 10.041296 16.462879 
L 10.175498 16.461694 
L 10.3097 16.46051 
L 10.443902 16.459326 
L 10.529583 16.444943 
L 10.615264 16.43056 
L 10.700945 16.416178 
L 10.786626 16.401795 
L 10.872307 16.387412 
L 10.957988 16.37303 
L 11.043669 16.358647 
L 11.129349 16.344264 
L 11.202363 16.301319 
L 11.275377 16.258373 
L 11.34839 16.215427 
L 11.421404 16.172482 
" style="fill:none;stroke:#000000;stroke-linecap:square;stroke-width:0.4;"/>
   </g>
   <g id="line2d_9">
    <path clip-path="url(#p4e000e8146)" d="M 19.643399 6.233915 
L 19.745833 6.211227 
L 19.86364 6.185204 
L 19.981447 6.159181 
L 20.099254 6.133158 
L 20.217062 6.107135 
L 20.334869 6.081112 
L 20.452676 6.05509 
L 20.570483 6.029067 
L 20.688291 6.003044 
L 20.837414 6.007532 
L 20.986536 6.012019 
L 21.135659 6.016507 
L 21.284782 6.020995 
L 21.393239 6.061665 
L 21.501696 6.102336 
L 21.610153 6.143006 
L 21.718609 6.183677 
L 21.827066 6.224348 
L 21.935523 6.265018 
L 22.04398 6.305689 
L 22.152437 6.346359 
L 22.234569 6.367302 
L 22.33953 6.394057 
L 22.444491 6.420813 
L 22.549452 6.447568 
L 22.654413 6.474323 
L 22.759374 6.501078 
L 22.864334 6.527834 
L 22.969295 6.554589 
L 23.074256 6.581344 
L 23.196265 6.60168 
L 23.318274 6.622015 
L 23.440282 6.64235 
L 23.562291 6.662685 
L 23.6843 6.683021 
L 23.806308 6.703356 
L 23.928317 6.723691 
L 24.050325 6.744026 
L 24.185896 6.782437 
L 24.321468 6.820849 
L 24.457039 6.85926 
L 24.59261 6.897671 
L 24.728181 6.936082 
L 24.863752 6.974493 
L 24.999323 7.012904 
L 25.134894 7.051315 
L 25.256913 7.146213 
L 25.378932 7.241111 
L 25.500951 7.336008 
L 25.62297 7.430906 
L 25.60488 7.548368 
L 25.58679 7.665829 
L 25.5687 7.783291 
L 25.55061 7.900752 
L 25.455715 8.013726 
L 25.360821 8.126699 
L 25.265926 8.239673 
L 25.171032 8.352647 
" style="fill:none;stroke:#008000;stroke-linecap:square;stroke-width:0.4;"/>
   </g>
   <g id="line2d_10">
    <path clip-path="url(#p4e000e8146)" d="M 22.234569 6.367302 
L 22.31647 6.413146 
L 22.39837 6.45899 
L 22.480271 6.504834 
L 22.562172 6.550678 
L 22.630573 6.653554 
L 22.698975 6.75643 
L 22.767376 6.859306 
L 22.835778 6.962182 
L 22.904179 7.065059 
L 22.972581 7.167935 
L 23.040982 7.270811 
L 23.109384 7.373687 
L 23.162475 7.471281 
L 23.215566 7.568874 
L 23.268657 7.666468 
L 23.321748 7.764062 
L 23.37484 7.861655 
L 23.427931 7.959249 
L 23.481022 8.056843 
L 23.534113 8.154436 
L 23.564934 8.260585 
L 23.595755 8.366733 
L 23.626575 8.472882 
L 23.657396 8.57903 
L 23.688217 8.685179 
L 23.719037 8.791328 
L 23.749858 8.897476 
L 23.780679 9.003625 
L 23.796084 9.121772 
L 23.811489 9.239919 
L 23.826894 9.358066 
L 23.842299 9.476213 
L 23.857704 9.59436 
L 23.873109 9.712507 
L 23.888514 9.830654 
L 23.903919 9.948801 
L 23.922757 10.090914 
L 23.941595 10.233027 
L 23.960433 10.37514 
L 23.97927 10.517254 
L 23.998108 10.659367 
L 24.016946 10.80148 
L 24.035784 10.943593 
L 24.054622 11.085706 
L 24.066605 11.227803 
L 24.078587 11.369901 
L 24.09057 11.511998 
L 24.102553 11.654096 
L 24.114536 11.796193 
L 24.126519 11.938291 
L 24.138502 12.080388 
L 24.150485 12.222486 
" style="fill:none;stroke:#4169e1;stroke-linecap:square;stroke-width:0.4;"/>
   </g>
   <g id="line2d_11">
    <path clip-path="url(#p4e000e8146)" d="M 24.150485 12.222486 
L 24.241357 12.26727 
L 24.332229 12.312055 
L 24.423101 12.356839 
L 24.513973 12.401623 
L 24.632033 12.45984 
L 24.750093 12.518056 
L 24.837417 12.595112 
L 24.92474 12.672168 
L 25.012064 12.749224 
L 25.099387 12.82628 
L 25.186711 12.903335 
L 25.274034 12.980391 
L 25.361358 13.057447 
L 25.448681 13.134503 
L 25.549715 13.22524 
L 25.650748 13.315978 
L 25.751781 13.406715 
L 25.852815 13.497452 
L 25.953848 13.58819 
L 26.054881 13.678927 
L 26.155914 13.769664 
L 26.256948 13.860402 
L 26.316873 13.999071 
L 26.376798 14.13774 
L 26.436723 14.27641 
L 26.496648 14.415079 
L 26.556573 14.553748 
L 26.616498 14.692418 
L 26.676423 14.831087 
L 26.736348 14.969756 
L 26.784301 15.087888 
L 26.832253 15.206019 
L 26.880206 15.324151 
L 26.928159 15.442282 
L 26.976111 15.560414 
L 27.024064 15.678545 
L 27.072017 15.796677 
L 27.119969 15.914808 
L 27.157634 16.072317 
L 27.195299 16.229826 
L 27.232964 16.387334 
L 27.270629 16.544843 
L 27.308294 16.702352 
L 27.345959 16.85986 
L 27.383625 17.017369 
L 27.42129 17.174878 
L 27.437558 17.298993 
L 27.453827 17.423108 
L 27.470095 17.547223 
L 27.486364 17.671339 
L 27.502632 17.795454 
L 27.518901 17.919569 
L 27.535169 18.043684 
L 27.551438 18.167799 
L 27.567706 18.291915 
L 27.583975 18.41603 
L 27.600243 18.540145 
L 27.616512 18.66426 
L 27.63278 18.788375 
L 27.649049 18.912491 
L 27.665317 19.036606 
L 27.681586 19.160721 
" style="fill:none;stroke:#ff0000;stroke-linecap:square;stroke-width:0.4;"/>
   </g>
   <g id="line2d_12">
    <path clip-path="url(#p4e000e8146)" d="M 24.513973 12.401623 
L 24.623967 12.39564 
L 24.733961 12.389656 
L 24.843956 12.383672 
L 24.95395 12.377688 
L 25.063944 12.371705 
L 25.173938 12.365721 
L 25.283932 12.359737 
L 25.393926 12.353754 
L 25.520631 12.355468 
L 25.647336 12.357182 
L 25.774041 12.358896 
L 25.900746 12.36061 
L 26.027451 12.362324 
L 26.154156 12.364038 
L 26.280861 12.365752 
L 26.407566 12.367466 
L 26.522298 12.389718 
L 26.637031 12.41197 
L 26.751764 12.434222 
L 26.866496 12.456474 
L 26.981229 12.478726 
L 27.095961 12.500978 
L 27.210694 12.52323 
L 27.325426 12.545482 
L 27.407622 12.644774 
L 27.489817 12.744066 
L 27.572013 12.843358 
L 27.654208 12.94265 
L 27.700434 13.062496 
L 27.74666 13.182341 
L 27.792886 13.302187 
L 27.839112 13.422033 
L 27.885337 13.541878 
L 27.931563 13.661724 
L 27.977789 13.781569 
L 28.024015 13.901415 
L 28.027447 14.016134 
L 28.03088 14.130853 
L 28.034313 14.245572 
L 28.037745 14.360291 
L 28.041178 14.47501 
L 28.044611 14.589728 
L 28.048044 14.704447 
L 28.051476 14.819166 
L 28.078875 14.956122 
L 28.106273 15.093077 
L 28.133672 15.230032 
L 28.16107 15.366987 
L 28.188469 15.503943 
L 28.215867 15.640898 
L 28.243266 15.777853 
L 28.270664 15.914808 
L 28.280689 16.011514 
L 28.290713 16.108219 
L 28.300737 16.204925 
L 28.310762 16.30163 
L 28.320786 16.398336 
L 28.33081 16.495041 
L 28.340835 16.591747 
L 28.350859 16.688452 
L 28.344989 16.775348 
L 28.339118 16.862244 
L 28.333248 16.949141 
L 28.327378 17.036037 
L 28.321507 17.122933 
L 28.315637 17.209829 
L 28.309767 17.296726 
L 28.303896 17.383622 
L 28.298026 17.470518 
L 28.292156 17.557414 
L 28.286285 17.644311 
L 28.280415 17.731207 
L 28.274545 17.818103 
L 28.268674 17.904999 
L 28.262804 17.991896 
L 28.256934 18.078792 
L 28.185015 18.214033 
L 28.113097 18.349274 
L 28.041178 18.484515 
L 27.96926 18.619756 
L 27.897341 18.754998 
L 27.825423 18.890239 
L 27.753504 19.02548 
L 27.681586 19.160721 
" style="fill:none;stroke:#ff0000;stroke-linecap:square;stroke-width:0.4;"/>
   </g>
   <g id="line2d_13">
    <path clip-path="url(#p4e000e8146)" d="M 25.229493 9.354045 
L 25.304844 9.41569 
L 25.380196 9.477335 
L 25.455547 9.538979 
L 25.530898 9.600624 
L 25.614799 9.674252 
L 25.698701 9.747879 
L 25.782602 9.821507 
L 25.866503 9.895135 
L 25.950405 9.968762 
L 26.034306 10.04239 
L 26.118207 10.116018 
L 26.202109 10.189645 
L 26.258622 10.276955 
L 26.315135 10.364264 
L 26.371649 10.451573 
L 26.428162 10.538882 
L 26.484675 10.626191 
L 26.541189 10.713501 
L 26.597702 10.80081 
L 26.654216 10.888119 
L 26.700441 11.006266 
L 26.746667 11.124413 
L 26.792893 11.24256 
L 26.839119 11.360707 
L 26.885344 11.478854 
L 26.93157 11.597001 
L 26.977796 11.715148 
L 27.024022 11.833296 
L 27.061697 11.922319 
L 27.099373 12.011342 
L 27.137048 12.100365 
L 27.174724 12.189389 
L 27.2124 12.278412 
L 27.250075 12.367435 
L 27.287751 12.456458 
L 27.325426 12.545482 
" style="fill:none;stroke:#ff0000;stroke-linecap:square;stroke-width:0.4;"/>
   </g>
   <g id="line2d_14">
    <path clip-path="url(#p4e000e8146)" d="M 27.681586 19.160721 
L 27.597579 19.21646 
L 27.513573 19.272199 
L 27.429566 19.327938 
L 27.345559 19.383677 
L 27.261553 19.439415 
L 27.177546 19.495154 
L 27.093539 19.550893 
L 27.009533 19.606632 
L 26.925937 19.733131 
L 26.842341 19.859631 
L 26.758745 19.98613 
L 26.675149 20.112629 
L 26.591553 20.239129 
L 26.507957 20.365628 
L 26.424361 20.492128 
L 26.340765 20.618627 
L 26.218756 20.616367 
L 26.096748 20.614108 
L 25.974739 20.611848 
L 25.85273 20.609589 
L 25.730722 20.607329 
L 25.608713 20.60507 
L 25.486704 20.602811 
L 25.364696 20.600551 
L 25.267537 20.60507 
L 25.170379 20.609589 
L 25.073221 20.614108 
L 24.976062 20.618627 
L 24.878904 20.623146 
L 24.781746 20.627665 
L 24.684587 20.632184 
L 24.587429 20.636703 
L 24.517385 20.740607 
L 24.447341 20.844512 
L 24.377296 20.948416 
L 24.307252 21.052321 
L 24.237208 21.156226 
L 24.167164 21.26013 
L 24.09712 21.364035 
L 24.027076 21.46794 
L 23.923136 21.497297 
L 23.819197 21.526655 
L 23.715257 21.556012 
L 23.611318 21.58537 
L 23.507378 21.614727 
L 23.403439 21.644085 
L 23.299499 21.673443 
L 23.195559 21.7028 
L 23.087113 21.772828 
L 22.978667 21.842856 
L 22.870221 21.912884 
L 22.761774 21.982912 
L 22.653328 22.052941 
L 22.544882 22.122969 
L 22.436435 22.192997 
L 22.327989 22.263025 
L 22.237612 22.28336 
L 22.147235 22.303695 
L 22.056858 22.324031 
L 21.966481 22.344366 
L 21.876103 22.364701 
L 21.785726 22.385036 
L 21.695349 22.405372 
L 21.604972 22.425707 
L 21.496515 22.425707 
L 21.388058 22.425707 
L 21.279601 22.425707 
L 21.171145 22.425707 
L 21.062688 22.425707 
L 20.954231 22.425707 
L 20.845774 22.425707 
L 20.737317 22.425707 
L 20.608528 22.439248 
L 20.479738 22.452789 
L 20.350948 22.466331 
L 20.222158 22.479872 
L 20.093368 22.493413 
L 19.964578 22.506955 
L 19.835789 22.520496 
L 19.706999 22.534037 
L 19.578398 22.536 
L 19.449798 22.537964 
L 19.321198 22.539927 
L 19.192598 22.541891 
L 19.063997 22.543854 
L 18.935397 22.545817 
L 18.806797 22.547781 
L 18.678196 22.549744 
" style="fill:none;stroke:#ff0000;stroke-linecap:square;stroke-width:0.4;"/>
   </g>
   <g id="line2d_15">
    <path clip-path="url(#p4e000e8146)" d="M 24.150485 12.222486 
L 23.987694 12.258918 
L 23.824904 12.29535 
L 23.662113 12.331782 
L 23.499323 12.368214 
L 23.384548 12.402496 
L 23.269773 12.436778 
L 23.154999 12.471059 
L 23.040224 12.505341 
L 22.925449 12.539623 
L 22.810675 12.573904 
L 22.6959 12.608186 
L 22.581125 12.642468 
L 22.440995 12.716983 
L 22.300864 12.791499 
L 22.160734 12.866015 
L 22.020604 12.940531 
L 21.940114 13.006102 
L 21.859624 13.071674 
L 21.779135 13.137245 
L 21.698645 13.202817 
" style="fill:none;stroke:#ff0000;stroke-linecap:square;stroke-width:0.4;"/>
   </g>
   <g id="line2d_16">
    <path clip-path="url(#p4e000e8146)" d="M 21.698645 13.202817 
L 21.716524 13.31311 
L 21.734404 13.423404 
L 21.752284 13.533697 
L 21.770163 13.643991 
L 21.752273 13.74534 
L 21.734383 13.846689 
L 21.716493 13.948038 
L 21.698603 14.049387 
L 21.680713 14.150736 
L 21.662823 14.252085 
L 21.644932 14.353434 
L 21.627042 14.454783 
L 21.592757 14.585942 
L 21.558472 14.7171 
L 21.524187 14.848259 
L 21.489902 14.979417 
L 21.455617 15.110576 
L 21.421332 15.241735 
L 21.387047 15.372893 
L 21.352762 15.504052 
L 21.287172 15.629242 
L 21.221582 15.754432 
L 21.155992 15.879623 
L 21.090402 16.004813 
L 21.024812 16.130004 
L 20.959222 16.255194 
L 20.893632 16.380385 
L 20.828042 16.505575 
L 20.711772 16.580091 
L 20.595502 16.654607 
L 20.479232 16.729123 
L 20.362962 16.803638 
" style="fill:none;stroke:#ff0000;stroke-linecap:square;stroke-width:0.4;"/>
   </g>
   <g id="line2d_17">
    <path clip-path="url(#p4e000e8146)" d="M 18.824602 16.422177 
L 18.826087 16.545871 
L 18.827572 16.669566 
L 18.829057 16.79326 
L 18.830541 16.916955 
L 18.832026 17.040649 
L 18.833511 17.164344 
L 18.834995 17.288038 
L 18.83648 17.411733 
L 18.83052 17.528727 
L 18.82456 17.645721 
L 18.818601 17.762715 
L 18.812641 17.879709 
L 18.806681 17.996703 
L 18.800721 18.113697 
L 18.794761 18.230691 
L 18.788801 18.347685 
L 18.782841 18.464679 
L 18.776881 18.581673 
L 18.770922 18.698667 
L 18.764962 18.815661 
L 18.759002 18.932655 
L 18.753042 19.049649 
L 18.747082 19.166642 
L 18.741122 19.283636 
L 18.735268 19.39393 
L 18.729413 19.504223 
L 18.723559 19.614517 
L 18.717704 19.72481 
L 18.71185 19.835104 
L 18.705995 19.945397 
L 18.70014 20.055691 
L 18.694286 20.165984 
L 18.689705 20.252405 
L 18.685125 20.338826 
L 18.680544 20.425247 
L 18.675964 20.511668 
L 18.671384 20.598089 
L 18.666803 20.68451 
L 18.662223 20.770931 
L 18.657642 20.857352 
L 18.649313 20.988729 
L 18.640984 21.120105 
L 18.632655 21.251482 
L 18.624326 21.382859 
L 18.615997 21.514235 
L 18.607668 21.645612 
L 18.599339 21.776989 
L 18.59101 21.908365 
L 18.580838 22.068835 
L 18.570666 22.229304 
L 18.560494 22.389774 
L 18.550323 22.550243 
" style="fill:none;stroke:#ff0000;stroke-linecap:square;stroke-width:0.4;"/>
   </g>
   <g id="line2d_18">
    <path clip-path="url(#p4e000e8146)" d="M 17.035297 16.831313 
L 17.095043 16.988354 
L 17.154789 17.145395 
L 17.214535 17.302437 
L 17.274281 17.459478 
L 17.338376 17.598069 
L 17.40247 17.736661 
L 17.466565 17.875252 
L 17.53066 18.013844 
L 17.594755 18.152435 
L 17.65885 18.291026 
L 17.722945 18.429618 
L 17.787039 18.568209 
L 17.843742 18.66807 
L 17.900445 18.767931 
L 17.957148 18.867792 
L 18.013851 18.967653 
L 18.070554 19.067514 
L 18.127257 19.167375 
L 18.18396 19.267236 
L 18.240663 19.367097 
L 18.297365 19.466958 
L 18.354068 19.566819 
L 18.410771 19.66668 
L 18.467474 19.76654 
L 18.524177 19.866401 
L 18.58088 19.966262 
L 18.637583 20.066123 
L 18.694286 20.165984 
" style="fill:none;stroke:#ff0000;stroke-linecap:square;stroke-width:0.4;"/>
   </g>
   <g id="line2d_19">
    <path clip-path="url(#p4e000e8146)" d="M 16.627752 17.010326 
L 16.640324 17.125574 
L 16.652897 17.240823 
L 16.66547 17.356072 
L 16.678042 17.471321 
L 16.691457 17.624825 
L 16.704872 17.778329 
L 16.718287 17.931832 
L 16.731702 18.085336 
L 16.745117 18.23884 
L 16.758532 18.392344 
L 16.771947 18.545848 
L 16.785362 18.699352 
L 16.800272 18.815598 
L 16.815182 18.931844 
L 16.830092 19.04809 
L 16.845002 19.164336 
L 16.874812 19.246316 
L 16.904622 19.328296 
L 16.934432 19.410276 
L 16.964242 19.492256 
L 16.994052 19.574236 
L 17.023861 19.656216 
L 17.053671 19.738196 
L 17.083481 19.820176 
L 17.107331 19.918533 
L 17.131181 20.01689 
L 17.155031 20.115247 
L 17.178881 20.213605 
L 17.202731 20.311962 
L 17.226581 20.410319 
L 17.250431 20.508676 
L 17.274281 20.607033 
L 17.342851 20.729232 
L 17.411421 20.851431 
L 17.479991 20.973629 
L 17.548561 21.095828 
L 17.646951 21.173304 
L 17.745341 21.250781 
L 17.843732 21.328257 
L 17.942122 21.405734 
L 18.023233 21.468563 
L 18.104344 21.531392 
L 18.185455 21.594221 
L 18.266566 21.65705 
L 18.347677 21.719879 
L 18.428788 21.782708 
L 18.509899 21.845537 
L 18.59101 21.908365 
" style="fill:none;stroke:#ff0000;stroke-linecap:square;stroke-width:0.4;"/>
   </g>
   <g id="line2d_20">
    <path clip-path="url(#p4e000e8146)" d="M 18.055844 11.730451 
L 18.091245 11.813054 
L 18.126646 11.895657 
L 18.162047 11.97826 
L 18.197448 12.060863 
L 18.232849 12.143467 
L 18.268251 12.22607 
L 18.303652 12.308673 
L 18.339053 12.391276 
L 18.388227 12.534839 
L 18.437401 12.678401 
L 18.486575 12.821963 
L 18.535749 12.965525 
L 18.584923 13.109088 
L 18.634098 13.25265 
L 18.683272 13.396212 
L 18.732446 13.539775 
L 18.758023 13.677447 
L 18.7836 13.815119 
L 18.809176 13.952791 
L 18.834753 14.090463 
L 18.86033 14.228135 
L 18.885907 14.365807 
L 18.911484 14.503479 
L 18.937061 14.641151 
" style="fill:none;stroke:#ff0000;stroke-linecap:square;stroke-width:0.4;"/>
   </g>
   <g id="line2d_21">
    <path clip-path="url(#p4e000e8146)" d="M 17.599525 12.406984 
L 17.4933 12.493529 
L 17.387076 12.580075 
L 17.280851 12.66662 
L 17.174627 12.753166 
L 17.040878 12.847565 
L 16.907128 12.941965 
L 16.773379 13.036364 
L 16.639629 13.130763 
L 16.535374 13.164188 
L 16.431119 13.197612 
L 16.326863 13.231037 
L 16.222608 13.264462 
L 16.118352 13.297886 
L 16.014097 13.331311 
L 15.909841 13.364735 
L 15.805586 13.39816 
L 15.717073 13.427673 
L 15.628559 13.457187 
L 15.540046 13.4867 
L 15.451532 13.516214 
L 15.363019 13.545727 
L 15.274506 13.57524 
L 15.185992 13.604754 
L 15.097479 13.634267 
L 14.997688 13.68463 
L 14.897897 13.734993 
L 14.798106 13.785356 
L 14.698316 13.835719 
L 14.598525 13.886082 
L 14.498734 13.936445 
L 14.398943 13.986807 
L 14.299153 14.03717 
" style="fill:none;stroke:#ff0000;stroke-linecap:square;stroke-width:0.4;"/>
   </g>
   <g id="line2d_22">
    <path clip-path="url(#p4e000e8146)" d="M 17.764632 10.219564 
L 17.672159 10.252085 
L 17.579687 10.284606 
L 17.487214 10.317127 
L 17.394742 10.349647 
L 17.302269 10.382168 
L 17.209796 10.414689 
L 17.117324 10.44721 
L 17.024851 10.479731 
L 16.944551 10.523674 
L 16.864251 10.567616 
L 16.783951 10.611559 
L 16.703651 10.655502 
L 16.602459 10.710883 
L 16.501268 10.766263 
L 16.400077 10.821644 
L 16.298886 10.877024 
L 16.21669 10.967761 
L 16.134494 11.058499 
L 16.052299 11.149236 
L 15.970103 11.239973 
L 15.887908 11.330711 
L 15.805712 11.421448 
L 15.723517 11.512185 
L 15.641321 11.602923 
L 15.547143 11.683391 
L 15.452965 11.76386 
L 15.358786 11.844328 
L 15.264608 11.924796 
L 15.170429 12.005265 
L 15.076251 12.085733 
L 14.982072 12.166202 
L 14.887894 12.24667 
L 14.791989 12.369928 
L 14.696083 12.493186 
L 14.600178 12.616445 
L 14.504273 12.739703 
L 14.455794 12.881925 
L 14.407314 13.024147 
L 14.358835 13.166369 
L 14.310356 13.308591 
L 14.261877 13.450814 
L 14.213398 13.593036 
L 14.164919 13.735258 
L 14.11644 13.87748 
" style="fill:none;stroke:#ff0000;stroke-linecap:square;stroke-width:0.4;"/>
   </g>
   <g id="line2d_23">
    <path clip-path="url(#p4e000e8146)" d="M 16.703651 10.655502 
L 16.562888 10.608692 
L 16.422126 10.561882 
L 16.312532 10.572167 
L 16.202938 10.582451 
L 16.093344 10.592736 
L 15.98375 10.60302 
L 15.829636 10.668093 
L 15.675522 10.733166 
L 15.521408 10.798239 
L 15.367294 10.863311 
L 15.274832 10.923226 
L 15.18237 10.983141 
L 15.089908 11.043056 
L 14.997446 11.102971 
L 14.904984 11.162886 
L 14.812522 11.222801 
L 14.72006 11.282716 
L 14.627598 11.342631 
" style="fill:none;stroke:#ff0000;stroke-linecap:square;stroke-width:0.4;"/>
   </g>
   <g id="line2d_24">
    <path clip-path="url(#p4e000e8146)" d="M 25.229493 9.354045 
L 25.141264 9.343029 
L 25.053035 9.332012 
L 24.964806 9.320995 
L 24.876577 9.309978 
L 24.788348 9.298961 
L 24.700119 9.287944 
L 24.61189 9.276927 
L 24.52366 9.26591 
L 24.419721 9.277208 
L 24.315781 9.288505 
L 24.211842 9.299803 
L 24.107902 9.3111 
L 24.003963 9.322397 
L 23.900023 9.333695 
L 23.796084 9.344992 
L 23.692144 9.356289 
L 23.57917 9.399219 
L 23.466196 9.442149 
L 23.353222 9.485079 
L 23.240248 9.528009 
L 23.127274 9.570939 
L 23.0143 9.613869 
L 22.901326 9.656799 
L 22.788351 9.699729 
L 22.697974 9.76072 
L 22.607597 9.82171 
L 22.51722 9.8827 
L 22.426843 9.94369 
L 22.336466 10.00468 
L 22.246088 10.065671 
L 22.155711 10.126661 
L 22.065334 10.187651 
L 21.997564 10.287068 
L 21.929795 10.386485 
L 21.862025 10.485901 
L 21.794255 10.585318 
" style="fill:none;stroke:#ff0000;stroke-linecap:square;stroke-width:0.4;"/>
   </g>
   <g id="line2d_25">
    <path clip-path="url(#p4e000e8146)" d="M 14.563998 3.66279 
L 14.566262 3.764467 
L 14.568526 3.866143 
L 14.570789 3.967819 
L 14.573053 4.069496 
L 14.575317 4.171172 
L 14.577581 4.272848 
L 14.579845 4.374524 
L 14.582109 4.476201 
L 14.60131 4.581258 
L 14.620511 4.686316 
L 14.639712 4.791374 
L 14.658913 4.896432 
L 14.678114 5.001489 
L 14.697315 5.106547 
L 14.716516 5.211605 
L 14.735717 5.316663 
L 14.754919 5.42172 
L 14.77412 5.526778 
L 14.793321 5.631836 
L 14.812522 5.736893 
L 14.831723 5.841951 
L 14.850924 5.947009 
L 14.870125 6.052067 
L 14.889326 6.157124 
L 14.908532 6.294944 
L 14.927739 6.432764 
L 14.946945 6.570585 
L 14.966151 6.708405 
L 14.985358 6.846225 
L 15.004564 6.984045 
L 15.02377 7.121865 
L 15.042977 7.259685 
L 15.062183 7.397505 
L 15.081389 7.535325 
L 15.100596 7.673145 
L 15.119802 7.810965 
L 15.139008 7.948785 
L 15.158215 8.086606 
L 15.177421 8.224426 
L 15.196627 8.362246 
" style="fill:none;stroke:#ff0000;stroke-linecap:square;stroke-width:0.4;"/>
   </g>
   <g id="line2d_26">
    <path clip-path="url(#p4e000e8146)" d="M 17.47561 4.922735 
L 17.40783 5.022152 
L 17.34005 5.121569 
L 17.27227 5.220986 
L 17.204489 5.320402 
L 17.136709 5.419819 
L 17.068929 5.519236 
L 17.001149 5.618653 
L 16.933368 5.71807 
L 16.858807 5.840081 
L 16.784246 5.962093 
L 16.709684 6.084104 
L 16.635123 6.206116 
L 16.560561 6.328127 
L 16.486 6.450139 
L 16.411438 6.572151 
L 16.336877 6.694162 
L 16.275867 6.802601 
L 16.214858 6.91104 
L 16.153848 7.01948 
L 16.092839 7.127919 
L 16.031829 7.236358 
L 15.970819 7.344797 
L 15.90981 7.453236 
L 15.8488 7.561675 
L 15.767279 7.661747 
L 15.685757 7.761818 
L 15.604235 7.861889 
L 15.522714 7.961961 
L 15.441192 8.062032 
L 15.359671 8.162103 
L 15.278149 8.262174 
L 15.196627 8.362246 
" style="fill:none;stroke:#ff0000;stroke-linecap:square;stroke-width:0.4;"/>
   </g>
   <g id="line2d_27">
    <path clip-path="url(#p4e000e8146)" d="M 18.198628 6.18804 
L 18.112768 6.310052 
L 18.026908 6.432063 
L 17.941048 6.554075 
L 17.855188 6.676086 
L 17.73319 6.780022 
L 17.611192 6.883958 
L 17.489194 6.987894 
L 17.367196 7.09183 
L 17.312967 7.159598 
L 17.258739 7.227367 
L 17.20451 7.295135 
L 17.150282 7.362904 
L 17.096054 7.430673 
L 17.041825 7.498441 
L 16.987597 7.56621 
L 16.933368 7.633978 
L 16.870105 7.692725 
L 16.806842 7.751471 
L 16.74358 7.810217 
L 16.680317 7.868964 
L 16.617054 7.92771 
L 16.553791 7.986456 
L 16.490528 8.045203 
L 16.427265 8.103949 
" style="fill:none;stroke:#ff0000;stroke-linecap:square;stroke-width:0.4;"/>
   </g>
   <g id="line2d_28">
    <path clip-path="url(#p4e000e8146)" d="M 19.745833 6.211227 
L 19.825185 6.311641 
L 19.904538 6.412055 
L 20.003854 6.531916 
L 20.103171 6.651778 
L 20.202488 6.771639 
L 20.301805 6.8915 
L 20.340134 6.968166 
L 20.403186 7.094198 
L 20.466238 7.22023 
L 20.534724 7.302412 
L 20.60321 7.384595 
L 20.671696 7.466777 
L 20.740181 7.54896 
L 20.78984 7.619159 
L 20.839498 7.689359 
L 20.889157 7.759558 
L 20.938815 7.829758 
L 20.988474 7.899957 
L 21.038132 7.970157 
L 21.087791 8.040356 
L 21.137449 8.110556 
" style="fill:none;stroke:#ffd700;stroke-linecap:square;stroke-width:0.4;"/>
   </g>
   <g id="line2d_29">
    <path clip-path="url(#p4e000e8146)" d="M 20.340134 6.968166 
L 20.470977 6.883927 
L 20.60182 6.799687 
L 20.732663 6.715448 
L 20.863506 6.631209 
L 20.954252 6.639763 
L 21.044998 6.648318 
L 21.135743 6.656873 
L 21.226489 6.665428 
L 21.317235 6.673983 
L 21.407981 6.682538 
L 21.498726 6.691092 
L 21.589472 6.699647 
L 21.681945 6.74761 
L 21.774417 6.795574 
L 21.86689 6.843537 
L 21.959362 6.8915 
L 21.92512 6.980539 
L 21.890877 7.069578 
L 21.856634 7.158616 
L 21.822391 7.247655 
L 21.771016 7.319569 
L 21.719641 7.391482 
L 21.668266 7.463396 
L 21.616892 7.53531 
L 21.565517 7.607223 
L 21.514142 7.679137 
L 21.462767 7.75105 
L 21.411392 7.822964 
L 21.342906 7.894862 
L 21.274421 7.96676 
L 21.205935 8.038658 
L 21.137449 8.110556 
" style="fill:none;stroke:#ff0000;stroke-linecap:square;stroke-width:0.4;"/>
   </g>
   <g id="line2d_30">
    <path clip-path="url(#p4e000e8146)" d="M 8.60279 10.252474 
L 8.642129 10.413754 
L 8.681469 10.575034 
L 8.720808 10.736313 
L 8.760147 10.897593 
L 8.823084 11.031338 
L 8.88602 11.165084 
L 8.948957 11.298829 
L 9.011893 11.432574 
L 9.07483 11.566319 
L 9.137767 11.700065 
L 9.200703 11.83381 
L 9.26364 11.967555 
L 9.318721 12.111117 
L 9.373802 12.25468 
L 9.428884 12.398242 
L 9.483965 12.541804 
L 9.539046 12.685366 
L 9.594128 12.828929 
L 9.649209 12.972491 
L 9.70429 13.116053 
L 9.777062 13.224212 
L 9.849833 13.33237 
L 9.922604 13.440529 
L 9.995376 13.548688 
L 10.068147 13.656846 
L 10.140918 13.765005 
L 10.21369 13.873164 
L 10.286461 13.981322 
L 10.394644 14.103256 
L 10.502827 14.22519 
L 10.61101 14.347123 
L 10.719193 14.469057 
L 10.827376 14.590991 
L 10.935559 14.712924 
L 11.043742 14.834858 
L 11.151925 14.956792 
L 11.216841 15.017766 
L 11.281758 15.078741 
L 11.346674 15.139715 
L 11.41159 15.20069 
L 11.476506 15.261665 
L 11.541422 15.322639 
L 11.606338 15.383614 
L 11.671254 15.444589 
L 11.755767 15.525649 
L 11.840279 15.60671 
L 11.924791 15.68777 
L 12.009303 15.768831 
" style="fill:none;stroke:#ff0000;stroke-linecap:square;stroke-width:0.4;"/>
   </g>
   <g id="line2d_31">
    <path clip-path="url(#p4e000e8146)" d="M 5.015755 16.919074 
L 5.11743 16.991362 
L 5.219106 17.063649 
L 5.320782 17.135937 
L 5.422457 17.208224 
L 5.524133 17.280512 
L 5.625809 17.3528 
L 5.727484 17.425087 
L 5.82916 17.497375 
L 5.922928 17.498504 
L 6.016695 17.499634 
L 6.110463 17.500764 
L 6.204231 17.501894 
L 6.297999 17.503023 
L 6.391766 17.504153 
L 6.485534 17.505283 
L 6.579302 17.506413 
L 6.67307 17.507542 
L 6.766837 17.508672 
L 6.860605 17.509802 
L 6.954373 17.510932 
L 7.048141 17.512061 
L 7.141908 17.513191 
L 7.235676 17.514321 
L 7.329444 17.51545 
L 7.419821 17.508672 
L 7.510198 17.501894 
L 7.600575 17.495115 
L 7.690953 17.488337 
L 7.78133 17.481558 
L 7.871707 17.47478 
L 7.962084 17.468002 
L 8.052461 17.461223 
L 8.142838 17.454445 
L 8.233216 17.447666 
L 8.323593 17.440888 
L 8.41397 17.434109 
L 8.504347 17.427331 
L 8.594724 17.420553 
L 8.685101 17.413774 
L 8.775479 17.406996 
L 8.866988 17.418285 
L 8.958497 17.429575 
L 9.050006 17.440864 
L 9.141515 17.452154 
L 9.233024 17.463444 
L 9.324533 17.474733 
L 9.416042 17.486023 
L 9.507552 17.497312 
L 9.599061 17.508602 
L 9.69057 17.519892 
L 9.782079 17.531181 
L 9.873588 17.542471 
L 9.965097 17.55376 
L 10.056606 17.56505 
L 10.148115 17.576339 
L 10.239625 17.587629 
L 10.393149 17.61761 
L 10.546673 17.647591 
L 10.682276 17.673988 
L 10.817878 17.700384 
L 10.953481 17.726781 
L 11.089084 17.753178 
L 11.224686 17.779575 
L 11.360289 17.805972 
L 11.495891 17.832369 
L 11.631494 17.858766 
L 11.726388 17.910718 
L 11.821283 17.96267 
L 11.916177 18.014623 
L 12.011072 18.066575 
L 12.105966 18.118527 
L 12.200861 18.17048 
L 12.295755 18.222432 
L 12.39065 18.274384 
L 12.499096 18.339893 
L 12.607542 18.405403 
L 12.715988 18.470912 
L 12.824435 18.536421 
L 12.932881 18.60193 
L 13.041327 18.667439 
L 13.149774 18.732948 
L 13.25822 18.798457 
L 13.337309 18.924957 
L 13.416398 19.051456 
L 13.495488 19.177955 
L 13.574577 19.304455 
L 13.653666 19.430954 
L 13.732755 19.557453 
L 13.811844 19.683953 
L 13.890934 19.810452 
" style="fill:none;stroke:#ff0000;stroke-linecap:square;stroke-width:0.4;"/>
   </g>
   <g id="line2d_32">
    <path clip-path="url(#p4e000e8146)" d="M 4.32896 17.081632 
L 4.383252 17.163113 
L 4.437543 17.244594 
L 4.491835 17.326075 
L 4.546126 17.407557 
L 4.600418 17.489038 
L 4.654709 17.570519 
L 4.709001 17.652001 
L 4.763293 17.733482 
L 4.853385 17.868427 
L 4.943478 18.003372 
L 5.015776 18.075644 
L 5.088073 18.147916 
L 5.160371 18.220188 
L 5.232668 18.29246 
L 5.283506 18.377167 
L 5.334344 18.461874 
L 5.385182 18.546581 
L 5.43602 18.631288 
L 5.486858 18.715994 
L 5.537695 18.800701 
L 5.588533 18.885408 
L 5.639371 18.970115 
L 5.690209 19.054822 
L 5.741047 19.139529 
L 5.791884 19.224236 
L 5.842722 19.308943 
L 5.89356 19.393649 
L 5.944398 19.478356 
L 5.995236 19.563063 
L 6.046073 19.64777 
L 6.15453 19.704241 
L 6.262987 19.760713 
L 6.371444 19.817184 
L 6.479901 19.873655 
L 6.588358 19.930126 
L 6.696814 19.986598 
L 6.805271 20.043069 
L 6.913728 20.09954 
L 7.036869 20.122135 
L 7.160009 20.14473 
L 7.28315 20.167324 
L 7.40629 20.189919 
L 7.529431 20.212514 
L 7.652572 20.235109 
L 7.775712 20.257703 
L 7.898853 20.280298 
L 8.021993 20.302893 
L 8.145134 20.325487 
L 8.268275 20.348082 
L 8.391415 20.370677 
L 8.514556 20.393272 
L 8.637696 20.415866 
L 8.760837 20.438461 
L 8.883978 20.461056 
L 9.001427 20.473709 
L 9.118876 20.486362 
L 9.236325 20.499015 
L 9.353775 20.511668 
L 9.441909 20.521142 
L 9.530043 20.530616 
L 9.618178 20.540091 
L 9.706312 20.549565 
L 9.794446 20.559039 
L 9.882581 20.568513 
L 9.970715 20.577988 
L 10.058849 20.587462 
L 10.187639 20.616835 
L 10.316429 20.646208 
L 10.445219 20.675581 
L 10.574008 20.704954 
L 10.702798 20.734327 
L 10.831588 20.763701 
L 10.960378 20.793074 
L 11.089168 20.822447 
L 11.177286 20.80889 
L 11.265405 20.795333 
L 11.353523 20.781776 
L 11.441642 20.76822 
L 11.52976 20.754663 
L 11.617879 20.741106 
L 11.705998 20.727549 
L 11.794116 20.713992 
L 11.882235 20.700435 
L 11.970353 20.686879 
L 12.058472 20.673322 
L 12.14659 20.659765 
L 12.234709 20.646208 
L 12.322827 20.632651 
L 12.410946 20.619094 
L 12.499064 20.605537 
L 12.589441 20.587477 
L 12.679819 20.569417 
L 12.770196 20.551357 
L 12.860573 20.533297 
L 12.95095 20.515236 
L 13.041327 20.497176 
L 13.131704 20.479116 
L 13.222082 20.461056 
L 13.30116 20.391028 
L 13.380239 20.321 
L 13.459318 20.250972 
L 13.538396 20.180943 
L 13.617475 20.110915 
L 13.696554 20.040887 
L 13.775633 19.970859 
L 13.854711 19.900831 
" style="fill:none;stroke:#ff0000;stroke-linecap:square;stroke-width:0.4;"/>
   </g>
   <g id="line2d_33">
    <path clip-path="url(#p4e000e8146)" d="M 11.46327 3.913732 
L 11.38714 3.955696 
L 11.311009 3.99766 
L 11.234879 4.039624 
L 11.158749 4.081588 
L 11.082618 4.123551 
L 11.006488 4.165515 
L 10.930358 4.207479 
L 10.854227 4.249443 
L 10.72092 4.30367 
L 10.587613 4.357898 
L 10.454306 4.412125 
L 10.320999 4.466353 
L 10.187692 4.52058 
L 10.054385 4.574807 
L 9.921077 4.629035 
L 9.78777 4.683262 
L 9.647682 4.723933 
L 9.507594 4.764603 
L 9.367505 4.805274 
L 9.227417 4.845944 
L 9.087329 4.886615 
L 8.947241 4.927285 
L 8.807152 4.967956 
L 8.667064 5.008626 
L 8.582336 5.03687 
L 8.497608 5.065113 
L 8.41288 5.093356 
L 8.328152 5.1216 
L 8.243424 5.149843 
L 8.158696 5.178087 
L 8.073968 5.20633 
L 7.98924 5.234574 
L 7.904513 5.262817 
L 7.819785 5.29106 
L 7.735057 5.319304 
L 7.650329 5.347547 
L 7.565601 5.375791 
L 7.480873 5.404034 
L 7.396145 5.432277 
L 7.311417 5.460521 
L 7.243626 5.537343 
L 7.175835 5.614165 
L 7.108045 5.690987 
L 7.040254 5.767809 
" style="fill:none;stroke:#ff0000;stroke-linecap:square;stroke-width:0.4;"/>
   </g>
   <g id="line2d_34">
    <path clip-path="url(#p4e000e8146)" d="M 7.275279 3.689094 
L 7.257189 3.811105 
L 7.239098 3.933117 
L 7.221008 4.055128 
L 7.202918 4.17714 
L 7.198411 4.267519 
L 7.193905 4.357898 
L 7.189398 4.448277 
L 7.184891 4.538656 
L 7.165558 4.658049 
L 7.146226 4.777443 
L 7.126893 4.896837 
L 7.10756 5.01623 
L 7.158524 5.127303 
L 7.209489 5.238376 
L 7.260453 5.349448 
L 7.311417 5.460521 
" style="fill:none;stroke:#ff0000;stroke-linecap:square;stroke-width:0.4;"/>
   </g>
   <g id="line2d_35">
    <path clip-path="url(#p4e000e8146)" d="M 7.040254 5.767809 
L 6.954847 5.769991 
L 6.86944 5.772172 
L 6.784033 5.774354 
L 6.698625 5.776535 
L 6.613218 5.778717 
L 6.527811 5.780899 
L 6.442404 5.78308 
L 6.356997 5.785262 
L 6.264198 5.769118 
L 6.171399 5.752975 
L 6.0786 5.736831 
L 5.985801 5.720688 
L 5.893002 5.704544 
L 5.800203 5.6884 
L 5.707404 5.672257 
L 5.614605 5.656113 
L 5.525481 5.640655 
L 5.424605 5.681825 
L 5.32373 5.722994 
L 5.222855 5.764163 
L 5.121979 5.805332 
L 5.001434 5.854542 
L 4.880889 5.903752 
L 4.760344 5.952961 
L 4.639799 6.002171 
L 4.490676 6.042826 
L 4.341554 6.083481 
L 4.192431 6.124136 
L 4.043308 6.164791 
L 3.894185 6.205446 
L 3.745062 6.246101 
L 3.595939 6.286756 
L 3.446816 6.327411 
L 3.306728 6.399714 
L 3.16664 6.472017 
L 3.026552 6.54432 
L 2.886463 6.616623 
L 2.778006 6.684407 
L 2.66955 6.752192 
L 2.561093 6.819976 
L 2.452636 6.88776 
L 2.351719 6.958692 
L 2.250801 7.029624 
L 2.149884 7.100556 
L 2.048966 7.171488 
" style="fill:none;stroke:#000000;stroke-linecap:square;stroke-width:0.4;"/>
   </g>
   <g id="line2d_36">
    <path clip-path="url(#p4e000e8146)" d="M 11.46327 3.913732 
L 11.108574 3.288544 
L 9.031021 3.34729 
L 7.079993 3.557421 
L 4.822796 3.952829 
L 3.808494 4.2975 
L 2.610836 4.271415 
L 1.634724 4.135846 
L 1.350041 4.339199 
L 1.842614 6.582778 
L 2.283928 7.961805 
L 2.79637 9.362585 
L 4.332498 10.231531 
L 4.440997 11.460436 
L 4.115584 12.635237 
L 4.115584 12.635237 
" style="fill:none;stroke:#000000;stroke-linecap:square;stroke-width:0.4;"/>
   </g>
   <g id="line2d_37">
    <path clip-path="url(#p4e000e8146)" d="M 3.537541 4.310028 
L 3.501298 4.457408 
L 3.465054 4.604788 
L 3.428811 4.752168 
L 3.392567 4.899548 
L 3.385796 5.0193 
L 3.379026 5.139052 
L 3.372255 5.258804 
L 3.365484 5.378557 
L 3.358714 5.498309 
L 3.351943 5.618061 
L 3.345172 5.737813 
L 3.338402 5.857565 
L 3.365505 5.975026 
L 3.392609 6.092488 
L 3.419713 6.209949 
L 3.446816 6.327411 
" style="fill:none;stroke:#000000;stroke-linecap:square;stroke-width:0.4;"/>
   </g>
   <g id="line2d_38">
    <path clip-path="url(#p4e000e8146)" d="M 11.490479 5.731034 
L 11.395574 5.735553 
L 11.300669 5.740072 
L 11.205764 5.744591 
L 11.110859 5.74911 
L 11.015954 5.753629 
L 10.921049 5.758148 
L 10.826144 5.762667 
L 10.731239 5.767186 
L 10.597932 5.785262 
L 10.464625 5.803338 
L 10.331318 5.821413 
L 10.198011 5.839489 
L 10.064704 5.857565 
L 9.931397 5.875641 
L 9.798089 5.893716 
L 9.664782 5.911792 
L 9.556347 6.015697 
L 9.447911 6.119601 
L 9.339475 6.223506 
L 9.231039 6.327411 
L 9.1271 6.451682 
L 9.02316 6.575953 
L 8.919221 6.700224 
L 8.815281 6.824495 
L 8.711342 6.948766 
L 8.607402 7.073037 
L 8.503463 7.197308 
L 8.399523 7.321579 
" style="fill:none;stroke:#000000;stroke-linecap:square;stroke-width:0.4;"/>
   </g>
   <g id="line2d_39">
    <path clip-path="url(#p4e000e8146)" d="M 6.724697 13.631525 
L 6.69614 13.491406 
L 6.667584 13.351288 
L 6.639027 13.211169 
L 6.61047 13.071051 
L 6.601393 12.959464 
L 6.592317 12.847877 
L 6.58324 12.73629 
L 6.574163 12.624703 
L 6.565087 12.513117 
L 6.55601 12.40153 
L 6.546933 12.289943 
L 6.537857 12.178356 
L 6.501508 12.051202 
L 6.465159 11.924048 
L 6.42881 11.796895 
L 6.392461 11.669741 
L 6.367811 11.532193 
L 6.343161 11.394646 
L 6.318511 11.257099 
L 6.29386 11.119551 
L 6.26921 10.982004 
L 6.24456 10.844456 
L 6.21991 10.706909 
L 6.195259 10.569362 
L 6.157626 10.488909 
L 6.119993 10.408456 
L 6.082359 10.328003 
L 6.044726 10.24755 
L 6.007092 10.167097 
L 5.969459 10.086645 
L 5.931825 10.006192 
L 5.894192 9.925739 
L 5.826696 9.81155 
L 5.7592 9.697361 
L 5.691704 9.583172 
L 5.624208 9.468983 
L 5.585037 9.377544 
L 5.545866 9.286105 
L 5.491617 9.159575 
L 5.437368 9.033044 
L 5.343947 9.022635 
L 5.250527 9.012226 
L 5.086999 9.050809 
L 4.923472 9.089391 
L 4.759944 9.127973 
L 4.596417 9.166556 
L 4.435437 9.163346 
L 4.274458 9.160136 
L 4.113478 9.156926 
L 3.952499 9.153716 
L 3.820835 9.180019 
L 3.730921 9.197986 
L 3.641007 9.215953 
L 3.551093 9.233919 
L 3.461179 9.251886 
L 3.371265 9.269853 
L 3.281351 9.28782 
L 3.191438 9.305786 
L 3.101524 9.323753 
L 3.003302 9.369566 
L 2.90508 9.415378 
" style="fill:none;stroke:#4169e1;stroke-linecap:square;stroke-width:0.4;"/>
   </g>
   <g id="line2d_40">
    <path clip-path="url(#p4e000e8146)" d="M 8.399523 7.321579 
L 8.335755 7.3874 
L 8.221085 7.505547 
L 8.106416 7.623694 
L 7.991747 7.741841 
L 7.877077 7.859988 
L 7.775854 7.946923 
L 7.674631 8.033859 
L 7.573409 8.120794 
L 7.472186 8.207729 
L 7.370963 8.294664 
L 7.26974 8.381599 
L 7.168517 8.468534 
L 7.067294 8.55547 
L 6.98035 8.613873 
L 6.893405 8.672277 
L 6.806461 8.73068 
L 6.719517 8.789084 
L 6.632572 8.847487 
L 6.545628 8.905891 
L 6.458683 8.964294 
L 6.371739 9.022698 
L 6.268505 9.055624 
L 6.165271 9.08855 
L 6.062037 9.121476 
L 5.958803 9.154402 
L 5.855569 9.187327 
L 5.752335 9.220253 
L 5.6491 9.253179 
L 5.545866 9.286105 
L 5.412328 9.37075 
L 5.278789 9.455395 
L 5.14525 9.540039 
L 5.011711 9.624684 
L 4.940762 9.692234 
L 4.869812 9.759785 
L 4.798862 9.827335 
L 4.727913 9.894885 
L 4.656963 9.962436 
L 4.586013 10.029986 
L 4.515063 10.097537 
L 4.444114 10.165087 
" style="fill:none;stroke:#000000;stroke-linecap:square;stroke-width:0.4;"/>
   </g>
   <g id="line2d_41">
    <path clip-path="url(#p4e000e8146)" d="M 7.040254 5.767809 
L 7.051752 5.856755 
L 7.063251 5.9457 
L 7.074749 6.034645 
L 7.086248 6.123591 
L 7.017762 6.253705 
L 6.949277 6.38382 
L 6.880791 6.513934 
L 6.812305 6.644049 
L 6.68559 6.736516 
L 6.558874 6.828983 
L 6.432159 6.92145 
L 6.305443 7.013917 
L 6.18216 7.085846 
L 6.058878 7.157775 
L 5.935595 7.229704 
L 5.812312 7.301633 
L 5.670708 7.37456 
L 5.529103 7.447486 
L 5.387498 7.520413 
L 5.245894 7.593339 
L 5.161466 7.636814 
L 5.077038 7.68029 
L 4.99261 7.723765 
L 4.908182 7.767241 
L 4.820596 7.82954 
L 4.733009 7.891839 
L 4.645422 7.954138 
L 4.557835 8.016437 
L 4.424781 8.111055 
L 4.291727 8.205672 
L 4.231802 8.280998 
L 4.171877 8.356324 
L 4.111952 8.43165 
L 4.052027 8.506977 
L 3.992102 8.582303 
L 3.932176 8.657629 
L 3.872251 8.732955 
L 3.812326 8.808281 
L 3.814453 8.901216 
L 3.81658 8.99415 
L 3.818707 9.087085 
L 3.820835 9.180019 
" style="fill:none;stroke:#4169e1;stroke-linecap:square;stroke-width:0.4;"/>
   </g>
   <g id="line2d_42">
    <path clip-path="url(#p4e000e8146)" d="M 8.335755 7.3874 
L 8.249779 7.400645 
L 8.163803 7.41389 
L 8.077828 7.427135 
L 7.991852 7.440381 
L 7.905876 7.453626 
L 7.8199 7.466871 
L 7.733925 7.480116 
L 7.647949 7.493361 
L 7.540071 7.513899 
L 7.432194 7.534437 
L 7.324316 7.554975 
L 7.216438 7.575513 
L 7.108561 7.59605 
L 7.000683 7.616588 
L 6.892805 7.637126 
L 6.784928 7.657664 
L 6.65479 7.685074 
L 6.524652 7.712483 
L 6.394515 7.739893 
L 6.264377 7.767303 
L 6.134239 7.794713 
L 6.004102 7.822122 
L 5.873964 7.849532 
L 5.743826 7.876942 
L 5.595578 7.894379 
L 5.447329 7.911816 
L 5.29908 7.929253 
L 5.150831 7.94669 
L 5.002582 7.964126 
L 4.854333 7.981563 
L 4.706084 7.999 
L 4.557835 8.016437 
" style="fill:none;stroke:#4169e1;stroke-linecap:square;stroke-width:0.4;"/>
   </g>
   <g id="line2d_43">
    <path clip-path="url(#p4e000e8146)" d="M 5.121979 5.805332 
L 5.171722 5.941586 
L 5.221465 6.07784 
L 5.251285 6.173237 
L 5.281105 6.268633 
L 5.310926 6.36403 
L 5.340746 6.459426 
L 5.340746 6.599545 
L 5.340746 6.739663 
L 5.340746 6.879782 
L 5.340746 7.0199 
L 5.325836 7.133186 
L 5.310926 7.246471 
L 5.296016 7.359756 
L 5.281105 7.473042 
L 5.245894 7.593339 
" style="fill:none;stroke:#008000;stroke-linecap:square;stroke-width:0.4;"/>
   </g>
   <g id="line2d_44">
    <path clip-path="url(#p4e000e8146)" d="M 3.446816 6.327411 
L 3.493969 6.420034 
L 3.541121 6.512656 
L 3.588274 6.605279 
L 3.635426 6.697902 
L 3.751696 6.742624 
L 3.867966 6.787346 
L 3.984236 6.832068 
L 4.100506 6.87679 
L 4.192915 6.906584 
L 4.285325 6.936378 
L 4.377734 6.966172 
L 4.470143 6.995965 
L 4.532753 7.073473 
L 4.595364 7.150981 
L 4.657974 7.228489 
L 4.720584 7.305996 
L 4.767483 7.421307 
L 4.814383 7.536619 
L 4.861283 7.65193 
L 4.908182 7.767241 
" style="fill:none;stroke:#008000;stroke-linecap:square;stroke-width:0.4;"/>
   </g>
   <g id="line2d_45">
    <path clip-path="url(#p4e000e8146)" d="M 5.251791 3.851028 
L 5.360374 3.936233 
L 5.468957 4.021439 
L 5.57754 4.106644 
L 5.686123 4.19185 
L 5.757726 4.248072 
L 5.836804 4.302268 
L 5.915883 4.356464 
L 5.994962 4.41066 
L 6.074041 4.464857 
L 6.146359 4.546198 
L 6.218678 4.627539 
L 6.218678 4.722468 
L 6.218678 4.817397 
L 6.166703 4.885181 
L 6.114728 4.952965 
L 6.062753 5.020749 
L 6.010778 5.088534 
L 5.945261 5.151799 
L 5.879745 5.215064 
L 5.814229 5.278329 
L 5.748712 5.341595 
L 5.715185 5.420224 
L 5.681659 5.498854 
L 5.648132 5.577484 
L 5.614605 5.656113 
" style="fill:none;stroke:#000000;stroke-linecap:square;stroke-width:0.4;"/>
   </g>
   <g id="line2d_46">
    <path clip-path="url(#p4e000e8146)" d="M 5.686123 4.19185 
L 5.578235 4.266241 
L 5.470347 4.340632 
L 5.362459 4.415024 
L 5.25457 4.489415 
L 5.126718 4.550374 
L 4.998865 4.611333 
L 4.871012 4.672292 
L 4.74316 4.733251 
L 4.655626 4.778503 
L 4.568091 4.823754 
L 4.480557 4.869006 
L 4.393023 4.914258 
L 4.305489 4.95951 
L 4.217955 5.004762 
L 4.130421 5.050013 
L 4.042887 5.095265 
L 3.918972 5.205403 
L 3.795058 5.315541 
L 3.671143 5.425678 
L 3.547229 5.535816 
L 3.495022 5.616253 
L 3.442815 5.69669 
L 3.390608 5.777128 
L 3.338402 5.857565 
" style="fill:none;stroke:#000000;stroke-linecap:square;stroke-width:0.4;"/>
   </g>
   <g id="line2d_47">
    <path clip-path="url(#p4e000e8146)" d="M 6.046073 19.64777 
L 6.048306 19.798048 
L 6.050538 19.948327 
L 6.05277 20.098605 
L 6.055003 20.248884 
L 6.055003 20.415991 
L 6.055003 20.583099 
L 6.070818 20.696041 
L 6.086634 20.808984 
L 6.10245 20.921926 
L 6.118266 21.034869 
L 6.14539 21.150086 
L 6.172515 21.265304 
L 6.19964 21.380521 
L 6.226765 21.495739 
L 6.256143 21.601887 
L 6.285521 21.708036 
L 6.314899 21.814184 
L 6.344277 21.920333 
L 6.380415 22.040069 
L 6.416554 22.159806 
L 6.452692 22.279542 
L 6.48883 22.399279 
L 6.528369 22.47381 
L 6.567909 22.548342 
L 6.607448 22.622873 
L 6.646987 22.697405 
L 6.686527 22.771936 
L 6.726066 22.846468 
L 6.765605 22.920999 
L 6.805145 22.995531 
L 6.85712 23.072322 
L 6.909095 23.149112 
L 6.96107 23.225903 
L 7.013045 23.302694 
L 7.112446 23.393073 
" style="fill:none;stroke:#008000;stroke-linecap:square;stroke-width:0.4;"/>
   </g>
   <g id="line2d_48">
    <path clip-path="url(#p4e000e8146)" d="M 7.112446 23.393073 
L 7.24807 23.456276 
L 7.379102 23.478902 
L 7.510135 23.501528 
L 7.659237 23.515054 
L 7.808339 23.528579 
L 7.898726 23.530854 
L 7.989114 23.533129 
L 8.079502 23.535404 
L 8.16989 23.53768 
L 8.296415 23.519604 
L 8.422941 23.501528 
L 8.517836 23.508291 
L 8.61273 23.515054 
L 8.707625 23.521816 
L 8.802519 23.528579 
L 8.90192 23.542167 
L 9.001322 23.555755 
L 9.11656 23.576075 
L 9.231798 23.596395 
L 9.347036 23.616714 
L 9.462274 23.637034 
" style="fill:none;stroke:#4169e1;stroke-linecap:square;stroke-width:0.4;"/>
   </g>
   <g id="line2d_49">
    <path clip-path="url(#p4e000e8146)" d="M 3.876937 16.950863 
L 3.736849 16.991502 
L 3.596761 17.032141 
L 3.467981 17.045698 
L 3.339202 17.059255 
L 3.210423 17.072812 
L 3.081643 17.086369 
L 2.948336 17.115726 
L 2.815029 17.145084 
L 2.681722 17.174441 
L 2.548415 17.203799 
L 2.444475 17.224134 
L 2.340536 17.244469 
L 2.236596 17.264805 
L 2.132657 17.28514 
L 2.028717 17.305475 
L 1.924778 17.325811 
L 1.820838 17.346146 
L 1.716899 17.366481 
" style="fill:none;stroke:#008000;stroke-linecap:square;stroke-width:0.4;"/>
   </g>
   <g id="line2d_50">
    <path clip-path="url(#p4e000e8146)" d="M 1.716899 17.366481 
L 1.683014 17.447791 
L 1.649129 17.529101 
L 1.615244 17.610411 
L 1.581359 17.691721 
L 1.565649 17.819124 
L 1.549938 17.946527 
L 1.63066 18.007642 
L 1.711381 18.068757 
L 1.792102 18.129871 
L 1.872824 18.190986 
L 2.003393 18.262541 
L 2.133963 18.334097 
L 2.264532 18.405652 
L 2.395101 18.477207 
L 2.525418 18.554808 
L 2.655735 18.632409 
L 2.786051 18.710011 
L 2.916368 18.787612 
L 3.025604 18.880141 
L 3.13484 18.972671 
L 3.244076 19.0652 
L 3.353312 19.157729 
L 3.462548 19.250259 
L 3.571784 19.342788 
L 3.68102 19.435317 
L 3.790256 19.527847 
L 3.879917 19.625518 
L 3.969578 19.72319 
L 4.059239 19.820861 
L 4.148901 19.918533 
L 4.238562 20.016204 
L 4.328223 20.113876 
L 4.417884 20.211548 
L 4.507545 20.309219 
L 4.593152 20.421164 
L 4.678759 20.53311 
L 4.764367 20.645055 
L 4.849974 20.757 
L 4.91588 20.839167 
L 4.981786 20.921334 
L 5.047692 21.003501 
L 5.113598 21.085668 
L 5.179504 21.167835 
L 5.245409 21.250002 
L 5.311315 21.332169 
L 5.377221 21.414335 
L 5.433935 21.484862 
L 5.490648 21.555389 
L 5.547362 21.625916 
L 5.604075 21.696442 
" style="fill:none;stroke:#008000;stroke-linecap:square;stroke-width:0.4;"/>
   </g>
   <g id="line2d_51">
    <path clip-path="url(#p4e000e8146)" d="M 4.763293 17.733482 
L 4.774433 17.826946 
L 4.785574 17.92041 
L 4.796714 18.013875 
L 4.807855 18.107339 
L 4.853027 18.267746 
L 4.8982 18.428153 
L 4.943373 18.58856 
L 4.988546 18.748967 
L 5.010016 18.841574 
L 5.031486 18.934182 
L 5.052957 19.026789 
L 5.074427 19.119396 
L 5.095897 19.212003 
L 5.117367 19.304611 
L 5.138837 19.397218 
L 5.160308 19.489825 
L 5.178387 19.576791 
L 5.196467 19.663758 
L 5.214547 19.750724 
L 5.232626 19.837691 
L 5.250706 19.924657 
L 5.268786 20.011623 
L 5.286865 20.09859 
L 5.304945 20.185556 
L 5.335439 20.313177 
L 5.365933 20.440799 
L 5.396428 20.56842 
L 5.426922 20.696041 
L 5.457416 20.823662 
L 5.48791 20.951284 
L 5.518405 21.078905 
L 5.548899 21.206526 
L 5.562693 21.329005 
L 5.576487 21.451484 
L 5.590281 21.573963 
L 5.604075 21.696442 
" style="fill:none;stroke:#008000;stroke-linecap:square;stroke-width:0.4;"/>
   </g>
   <g id="line2d_52">
    <path clip-path="url(#p4e000e8146)" d="M 5.604075 21.696442 
L 5.789694 22.565078 
L 5.729674 24.075216 
L 5.707099 25.209129 
L 5.964657 25.362711 
L 6.563402 25.46434 
L 6.931713 25.421426 
L 7.754173 25.100674 
L 8.803646 24.547306 
L 9.58842 24.139915 
L 9.637236 23.908233 
L 9.462274 23.637034 
L 9.281561 22.936815 
L 9.195659 22.322426 
L 9.484849 20.303049 
L 9.941252 19.607255 
L 10.022627 19.051581 
L 10.205129 18.336465 
L 10.860966 17.114542 
L 11.393605 16.31634 
L 11.393605 16.31634 
" style="fill:none;stroke:#008000;stroke-linecap:square;stroke-width:0.4;"/>
   </g>
   <g id="line2d_53">
    <path clip-path="url(#p4e000e8146)" d="M 5.799508 22.912756 
L 5.870163 22.998959 
L 5.940818 23.085162 
L 6.011473 23.171364 
L 6.082127 23.257567 
L 6.174769 23.318557 
L 6.26741 23.379548 
L 6.360051 23.440538 
L 6.452692 23.501528 
L 6.552114 23.555724 
L 6.651536 23.60992 
L 6.750959 23.664117 
L 6.850381 23.718313 
L 6.929459 23.761227 
L 7.008538 23.804142 
L 7.087617 23.847056 
L 7.166696 23.88997 
L 7.266118 23.921603 
L 7.36554 23.953236 
L 7.464962 23.984868 
L 7.564385 24.016501 
L 7.681876 24.016501 
L 7.799367 24.016501 
L 7.916859 24.016501 
L 8.03435 24.016501 
L 8.129245 24.014226 
L 8.224139 24.011951 
L 8.319033 24.009676 
L 8.413928 24.007401 
L 8.508822 24.043552 
L 8.603717 24.079704 
L 8.698611 24.115855 
L 8.793506 24.152007 
L 8.868057 24.222035 
L 8.942607 24.292063 
L 9.017158 24.362091 
L 9.091709 24.432119 
" style="fill:none;stroke:#008000;stroke-linecap:square;stroke-width:0.4;"/>
   </g>
   <g id="line2d_54">
    <path clip-path="url(#p4e000e8146)" d="M 5.747786 23.880995 
L 5.881093 23.953267 
L 6.0144 24.025539 
L 6.147707 24.097811 
L 6.281014 24.170083 
L 6.378162 24.219791 
L 6.47531 24.2695 
L 6.572458 24.319208 
L 6.669605 24.368916 
L 6.793878 24.427632 
L 6.91815 24.486347 
L 7.042423 24.545062 
L 7.166696 24.603777 
L 7.257062 24.644416 
L 7.347429 24.685056 
L 7.437795 24.725695 
L 7.528162 24.766334 
L 7.621224 24.826701 
L 7.714287 24.887068 
L 7.807349 24.947435 
L 7.900411 25.007802 
" style="fill:none;stroke:#4169e1;stroke-linecap:square;stroke-width:0.4;"/>
   </g>
   <g id="line2d_55">
    <path clip-path="url(#p4e000e8146)" d="M 11.688439 4.322245 
L 11.689976 4.440766 
L 11.691514 4.559287 
L 11.693051 4.677808 
L 11.694588 4.796329 
L 11.676519 4.904784 
L 11.65845 5.013239 
L 11.640381 5.121693 
L 11.622312 5.230148 
L 11.589354 5.35537 
L 11.556396 5.480591 
L 11.523437 5.605813 
L 11.490479 5.731034 
L 11.446612 5.883712 
L 11.402745 6.036391 
L 11.358878 6.189069 
L 11.315011 6.341747 
L 11.28677 6.434385 
L 11.258529 6.527023 
L 11.230288 6.619662 
L 11.202047 6.7123 
L 11.173806 6.804939 
L 11.145565 6.897577 
L 11.117324 6.990216 
L 11.089084 7.082854 
L 11.019039 7.191309 
L 10.948995 7.299763 
L 10.878951 7.408218 
L 10.808907 7.516673 
L 10.737736 7.611555 
L 10.666565 7.706437 
L 10.595394 7.80132 
L 10.524224 7.896202 
L 10.453053 7.991084 
L 10.381882 8.085967 
L 10.310711 8.180849 
L 10.23954 8.275731 
L 10.169496 8.354813 
L 10.099452 8.433894 
L 10.029408 8.512976 
L 9.959364 8.592058 
L 9.88932 8.671139 
L 9.819275 8.750221 
L 9.749231 8.829302 
L 9.679187 8.908384 
L 9.615924 8.98745 
L 9.552661 9.066516 
L 9.489398 9.145582 
L 9.426135 9.224648 
L 9.362872 9.303714 
L 9.299609 9.38278 
L 9.236346 9.461846 
L 9.173083 9.540912 
L 9.101797 9.629857 
L 9.03051 9.718802 
L 8.959223 9.807748 
L 8.887937 9.896693 
L 8.81665 9.985638 
L 8.745363 10.074584 
L 8.674077 10.163529 
L 8.60279 10.252474 
L 8.526807 10.3671 
L 8.450824 10.481725 
L 8.374841 10.596351 
L 8.298858 10.710976 
L 8.251453 10.800358 
L 8.204048 10.889739 
L 8.156643 10.979121 
L 8.109238 11.068503 
L 8.061833 11.157884 
L 8.014428 11.247266 
L 7.967023 11.336648 
L 7.919618 11.426029 
L 7.888649 11.509661 
L 7.857681 11.593293 
L 7.826713 11.676924 
L 7.795745 11.760556 
L 7.764777 11.844188 
L 7.733809 11.927819 
L 7.702841 12.011451 
L 7.671873 12.095083 
L 7.60504 12.214071 
L 7.538208 12.33306 
L 7.471375 12.452048 
L 7.404542 12.571037 
L 7.33771 12.690026 
L 7.270877 12.809014 
L 7.204045 12.928003 
L 7.137212 13.046991 
L 7.085648 13.120058 
L 7.034083 13.193125 
L 6.982519 13.266191 
L 6.930955 13.339258 
L 6.87939 13.412325 
L 6.827826 13.485391 
L 6.776262 13.558458 
L 6.724697 13.631525 
" style="fill:none;stroke:#000000;stroke-linecap:square;stroke-width:0.4;"/>
   </g>
   <g id="line2d_56">
    <path clip-path="url(#p4e000e8146)" d="M 4.979532 16.002071 
L 5.054104 15.959125 
L 5.128676 15.91618 
L 5.203248 15.873234 
L 5.27782 15.830288 
L 5.34559 15.730903 
L 5.41336 15.631517 
L 5.481129 15.532131 
L 5.548899 15.432746 
L 5.594093 15.315284 
L 5.639287 15.197823 
L 5.684481 15.080361 
L 5.729674 14.9629 
L 5.781649 14.872521 
L 5.833624 14.782142 
L 5.8856 14.691763 
L 5.937575 14.601384 
L 6.029731 14.487569 
L 6.121909 14.373723 
L 6.214087 14.259876 
L 6.306265 14.14603 
L 6.398442 14.032184 
L 6.480006 13.932019 
L 6.56157 13.831854 
L 6.643133 13.73169 
L 6.724697 13.631525 
" style="fill:none;stroke:#4169e1;stroke-linecap:square;stroke-width:0.4;"/>
   </g>
   <g id="line2d_57">
    <path clip-path="url(#p4e000e8146)" d="M 4.030588 16.399613 
L 3.879127 16.410958 
L 3.774082 16.418811 
L 3.669037 16.426665 
L 3.528949 16.3725 
L 3.388861 16.318335 
L 3.332379 16.230231 
L 3.275897 16.142127 
L 3.219415 16.054023 
L 3.162933 15.965919 
L 3.113233 15.857464 
L 3.063532 15.74901 
L 3.013832 15.640555 
L 2.964131 15.5321 
L 2.937006 15.405601 
L 2.909882 15.279102 
L 2.882757 15.152602 
L 2.855632 15.026103 
L 2.839816 14.874765 
L 2.824001 14.723427 
L 2.808185 14.572089 
L 2.792369 14.420751 
L 2.810459 14.29422 
L 2.828549 14.16769 
L 2.84664 14.041159 
L 2.86473 13.914629 
L 2.909903 13.837838 
L 2.955075 13.761047 
L 3.000248 13.684256 
L 3.045421 13.607465 
L 3.190058 13.548688 
L 3.334695 13.48991 
L 3.461221 13.431195 
L 3.587747 13.37248 
L 3.644229 13.275338 
L 3.700711 13.178196 
L 3.757192 13.081055 
L 3.813674 12.983913 
" style="fill:none;stroke:#ff0000;stroke-linecap:square;stroke-width:0.4;"/>
   </g>
   <g id="line2d_58">
    <path clip-path="url(#p4e000e8146)" d="M 3.879127 16.410958 
L 3.828332 16.256191 
L 3.777536 16.101425 
L 3.759446 15.995246 
L 3.741356 15.889066 
L 3.723266 15.782886 
L 3.705175 15.676707 
L 3.691634 15.543444 
L 3.678093 15.410182 
L 3.664551 15.27692 
L 3.65101 15.143658 
L 3.63292 15.051035 
L 3.61483 14.958412 
L 3.59674 14.865789 
L 3.578649 14.773167 
L 3.571889 14.682788 
L 3.565129 14.592409 
L 3.558369 14.50203 
L 3.551609 14.411651 
L 3.549334 14.28967 
L 3.54706 14.16769 
L 3.544786 14.04571 
L 3.542511 13.923729 
L 3.55382 13.785917 
L 3.565129 13.648105 
L 3.576438 13.510292 
L 3.587747 13.37248 
" style="fill:none;stroke:#ff0000;stroke-linecap:square;stroke-width:0.4;"/>
   </g>
   <g id="line2d_59">
    <path clip-path="url(#p4e000e8146)" d="M 4.645106 16.065274 
L 4.57283 15.965857 
L 4.500553 15.86644 
L 4.453106 15.715102 
L 4.405659 15.563764 
L 4.358212 15.412426 
L 4.310764 15.261088 
L 4.294949 15.161671 
L 4.279133 15.062254 
L 4.263317 14.962838 
L 4.247502 14.863421 
L 4.220377 14.770829 
L 4.193252 14.678237 
L 4.166127 14.585646 
L 4.139003 14.493054 
L 4.098358 14.343898 
L 4.057713 14.194741 
L 4.018542 14.0607 
L 3.979371 13.926659 
L 3.9402 13.792617 
L 3.901029 13.658576 
" style="fill:none;stroke:#ff0000;stroke-linecap:square;stroke-width:0.4;"/>
   </g>
  </g>
 </g>
 <defs>
  <clipPath id="p4e000e8146">
   <rect height="72" width="29.7009" x="0" y="0"/>
  </clipPath>
 </defs>
</svg>
