<?xml version="1.0" encoding="utf-8" standalone="no"?>
<!DOCTYPE svg PUBLIC "-//W3C//DTD SVG 1.1//EN"
  "http://www.w3.org/Graphics/SVG/1.1/DTD/svg11.dtd">
<svg height="72pt" version="1.1" viewBox="0 0 62.016318 72" width="62.016318pt" xmlns="http://www.w3.org/2000/svg" xmlns:xlink="http://www.w3.org/1999/xlink">
 <metadata>
  <rdf:RDF xmlns:cc="http://creativecommons.org/ns#" xmlns:dc="http://purl.org/dc/elements/1.1/" xmlns:rdf="http://www.w3.org/1999/02/22-rdf-syntax-ns#">
   <cc:Work>
    <dc:type rdf:resource="http://purl.org/dc/dcmitype/StillImage"/>
    <dc:date>2022-05-22T19:32:26.043724</dc:date>
    <dc:format>image/svg+xml</dc:format>
    <dc:creator>
     <cc:Agent>
      <dc:title>Matplotlib v3.4.3, https://matplotlib.org/</dc:title>
     </cc:Agent>
    </dc:creator>
   </cc:Work>
  </rdf:RDF>
 </metadata>
 <defs>
  <style type="text/css">*{stroke-linecap:butt;stroke-linejoin:round;}</style>
 </defs>
 <g id="figure_1">
  <g id="patch_1">
   <path d="M 0 72 
L 62.016318 72 
L 62.016318 0 
L 0 0 
z
" style="fill:#ffffff;"/>
  </g>
  <g id="axes_1">
   <g id="line2d_1">
    <path clip-path="url(#pda1035d376)" d="M 2.818924 66.505895 
L 3.184182 64.85458 
" style="fill:none;stroke:#808080;stroke-linecap:square;stroke-width:0.4;"/>
   </g>
   <g id="line2d_2">
    <path clip-path="url(#pda1035d376)" d="M 6.379321 65.680237 
L 8.193437 63.09198 
L 9.264861 61.56559 
L 10.336285 60.039201 
L 11.989223 57.685359 
L 13.642161 55.331516 
L 15.03652 53.34563 
L 16.430879 51.359744 
L 17.917132 49.24283 
L 19.403385 47.125916 
L 20.461184 45.619629 
L 21.518983 44.113342 
L 22.576783 42.607056 
L 23.634582 41.100769 
L 24.748619 39.514071 
L 25.862657 37.927372 
L 26.976694 36.340674 
L 28.090732 34.753975 
L 29.066493 33.363998 
L 30.042254 31.974022 
L 31.018015 30.584045 
L 31.993776 29.194068 
L 33.363495 27.243722 
L 34.733213 25.293375 
L 36.235989 23.152409 
L 37.172906 21.825613 
" style="fill:none;stroke:#808080;stroke-linecap:square;stroke-width:0.4;"/>
   </g>
   <g id="line2d_3">
    <path clip-path="url(#pda1035d376)" d="M 7.641491 65.986807 
L 9.223842 64.715654 
L 10.806192 63.4445 
L 12.388543 62.173346 
L 13.970894 60.902192 
" style="fill:none;stroke:#808080;stroke-linecap:square;stroke-width:0.4;"/>
   </g>
   <g id="line2d_4">
    <path clip-path="url(#pda1035d376)" d="M 34.260117 11.695153 
L 35.660273 12.090033 
L 37.318429 12.555991 
L 39.962203 13.300518 
L 40.777946 13.529549 
L 43.718274 14.357001 
L 46.658603 15.184454 
L 46.986176 15.276353 
L 47.398396 15.391945 
L 48.032669 15.570718 
" style="fill:none;stroke:#808080;stroke-linecap:square;stroke-width:0.4;"/>
   </g>
   <g id="line2d_5">
    <path clip-path="url(#pda1035d376)" d="M 18.958697 13.251697 
L 20.024324 12.843894 
L 21.904534 12.124854 
L 23.784744 11.405814 
L 25.606976 10.708671 
L 27.585748 9.951938 
L 29.178679 9.343106 
L 30.771611 8.734273 
L 31.945655 8.284828 
L 33.966171 7.512659 
L 35.986686 6.740489 
L 37.205373 6.273813 
L 39.521574 5.388565 
L 41.492229 4.636857 
" style="fill:none;stroke:#808080;stroke-linecap:square;stroke-width:0.4;"/>
   </g>
   <g id="line2d_6">
    <path clip-path="url(#pda1035d376)" d="M 11.812392 67.445709 
L 13.306182 66.405739 
L 14.799972 65.365769 
L 16.149398 64.427571 
L 17.498824 63.489373 
L 18.84825 62.551174 
L 20.197676 61.612976 
L 22.278778 60.165921 
L 24.35988 58.718867 
L 25.848742 57.683923 
L 27.337604 56.648979 
L 29.680475 55.021356 
L 32.023345 53.393734 
" style="fill:none;stroke:#808080;stroke-linecap:square;stroke-width:0.4;"/>
   </g>
   <g id="line2d_7">
    <path clip-path="url(#pda1035d376)" d="M 33.473942 13.26821 
L 33.68527 13.785144 
L 33.896598 14.302077 
L 33.854274 14.803215 
L 33.811951 15.304354 
L 33.769627 15.805492 
L 33.727303 16.30663 
L 33.688458 17.003413 
L 33.649614 17.700197 
L 33.610769 18.39698 
L 33.571924 19.093763 
" style="fill:none;stroke:#008000;stroke-linecap:square;stroke-width:0.4;"/>
   </g>
   <g id="line2d_8">
    <path clip-path="url(#pda1035d376)" d="M 32.83445 20.837695 
L 32.136401 20.591075 
L 31.438352 20.344455 
L 31.027582 20.002704 
L 30.616811 19.660954 
L 30.110668 19.240227 
L 29.379571 18.710371 
L 28.648475 18.180514 
L 28.171031 17.964407 
L 27.693586 17.7483 
" style="fill:none;stroke:#008000;stroke-linecap:square;stroke-width:0.4;"/>
   </g>
   <g id="line2d_9">
    <path clip-path="url(#pda1035d376)" d="M 49.788228 44.943308 
L 49.775183 45.630758 
L 49.762138 46.318207 
L 49.749093 47.005657 
L 49.736048 47.693107 
L 49.743585 48.491123 
L 49.751122 49.289139 
L 49.478773 49.777713 
L 49.206424 50.266287 
L 48.934074 50.75486 
L 48.661725 51.243434 
L 48.669262 51.989398 
L 48.676799 52.735362 
L 48.195586 53.246372 
L 47.714373 53.757382 
L 47.23316 54.268393 
L 46.751947 54.779403 
L 46.436694 55.278028 
L 46.121441 55.776654 
L 45.806189 56.275279 
L 45.490936 56.773904 
" style="fill:none;stroke:#4169e1;stroke-linecap:square;stroke-width:0.4;"/>
   </g>
   <g id="line2d_10">
    <path clip-path="url(#pda1035d376)" d="M 41.492229 4.636857 
L 40.646917 4.454854 
L 39.801605 4.27285 
L 39.175158 4.39957 
L 38.548711 4.526291 
L 38.030103 4.664319 
L 37.511494 4.802348 
L 36.992886 4.940376 
L 36.474277 5.078405 
L 35.843917 5.111969 
L 35.213556 5.145534 
L 34.583196 5.179099 
L 33.952836 5.212664 
L 33.38828 5.222177 
L 32.823724 5.23169 
L 32.259168 5.241203 
L 31.694613 5.250716 
L 31.033379 5.261485 
L 30.372146 5.272255 
L 29.484366 5.033532 
L 28.596585 4.794809 
L 27.708805 4.556086 
L 26.821025 4.317364 
L 26.269079 4.392032 
L 25.560304 4.712961 
L 24.851529 5.033891 
L 24.702237 5.608261 
L 24.552945 6.182632 
L 24.336689 6.936134 
L 24.120433 7.689637 
L 23.725027 8.077696 
L 23.32962 8.465755 
L 22.643312 8.730504 
L 21.957003 8.995252 
L 21.270695 9.260001 
L 20.584386 9.52475 
L 20.002292 9.957323 
L 19.420198 10.389896 
L 19.121904 11.121141 
L 18.82361 11.852387 
L 18.891154 12.552042 
L 18.958697 13.251697 
" style="fill:none;stroke:#4169e1;stroke-linecap:square;stroke-width:0.4;"/>
   </g>
   <g id="line2d_11">
    <path clip-path="url(#pda1035d376)" d="M 45.564568 37.513825 
L 45.30193 38.253686 
L 45.039292 38.993547 
L 44.744186 39.434556 
L 44.449081 39.875565 
L 44.153975 40.316574 
L 43.85887 40.757583 
L 43.467522 41.17813 
L 43.076174 41.598677 
L 42.684826 42.019223 
L 42.293478 42.43977 
L 41.981994 42.885266 
L 41.670509 43.330763 
L 41.359025 43.776259 
L 41.047541 44.221755 
L 40.308908 44.443247 
L 39.570275 44.664738 
L 38.979484 45.234442 
L 38.388694 45.804146 
L 37.95966 46.425902 
L 37.502653 46.630342 
L 37.045645 46.834782 
L 36.588637 47.039222 
L 36.13163 47.243662 
L 35.879718 47.734749 
L 35.627806 48.225835 
L 35.336179 48.755692 
" style="fill:none;stroke:#4169e1;stroke-linecap:square;stroke-width:0.4;"/>
   </g>
   <g id="line2d_12">
    <path clip-path="url(#pda1035d376)" d="M 39.086163 33.336716 
L 38.672493 33.651184 
L 38.258824 33.965651 
L 37.845155 34.280119 
L 37.431485 34.594587 
L 36.962013 35.02716 
L 36.49254 35.459733 
L 36.023067 35.892306 
L 35.553594 36.324878 
L 35.2424 36.709886 
L 34.931206 37.094894 
L 34.620012 37.479902 
L 34.308818 37.864909 
L 34.213735 38.645694 
L 34.118651 39.426479 
L 34.196921 40.190033 
L 34.275191 40.953587 
" style="fill:none;stroke:#4169e1;stroke-linecap:square;stroke-width:0.4;"/>
   </g>
   <g id="line2d_13">
    <path clip-path="url(#pda1035d376)" d="M 41.492229 4.636857 
L 41.265682 5.140149 
L 41.039135 5.643442 
L 40.812588 6.146734 
L 40.58604 6.650026 
L 40.138454 6.873851 
L 39.690868 7.097676 
L 39.243282 7.321501 
L 38.795696 7.545326 
L 38.139101 7.64979 
L 37.482505 7.754253 
L 36.9939 7.899641 
L 36.505295 8.045028 
L 36.01669 8.190416 
L 35.528084 8.335803 
L 35.035565 9.111921 
L 34.543047 9.88804 
L 34.401582 10.791596 
L 34.260117 11.695153 
L 33.867029 12.481681 
L 33.473942 13.26821 
L 33.006498 13.885299 
L 32.539055 14.502389 
L 32.071611 15.119478 
L 31.604168 15.736567 
L 31.190063 16.046189 
L 30.775959 16.355811 
L 30.361855 16.665432 
L 29.947751 16.975054 
L 29.38421 17.168365 
L 28.820668 17.361677 
L 28.257127 17.554988 
L 27.693586 17.7483 
L 27.126566 17.710966 
L 26.559546 17.673632 
L 25.992526 17.636298 
L 25.425507 17.598964 
L 24.873416 17.390036 
L 24.321325 17.181109 
L 23.769235 16.972182 
L 23.217144 16.763255 
L 22.474887 16.315605 
L 21.73263 15.867955 
L 20.990373 15.420305 
L 20.248117 14.972655 
L 19.755598 14.502748 
L 19.263079 14.032841 
L 18.958697 13.251697 
" style="fill:none;stroke:#008000;stroke-linecap:square;stroke-width:0.4;"/>
   </g>
   <g id="line2d_14">
    <path clip-path="url(#pda1035d376)" d="M 22.269212 38.294969 
L 21.77278 38.337688 
L 21.276347 38.380407 
L 20.779915 38.423126 
L 20.283483 38.465844 
L 19.639933 38.391894 
L 18.996383 38.317944 
L 18.569089 38.560616 
L 18.141794 38.803287 
L 17.957136 39.388786 
L 17.772478 39.974285 
L 17.649421 40.623503 
L 17.526363 41.272721 
L 17.403306 41.921939 
L 17.280249 42.571158 
L 17.060224 43.048603 
L 16.8402 43.526049 
L 16.620175 44.003494 
L 16.400151 44.48094 
L 16.071853 44.913692 
L 15.743556 45.346444 
L 15.415258 45.779196 
L 15.08696 46.211949 
L 14.497619 46.65924 
L 13.908278 47.106531 
L 13.744202 47.583976 
L 13.580126 48.061422 
L 13.139786 48.733076 
L 12.699447 49.404731 
L 12.471886 50.057359 
L 12.244324 50.709988 
L 12.016762 51.362616 
L 11.789201 52.015245 
L 11.438582 52.727644 
L 11.087963 53.440043 
L 10.737344 54.152442 
L 10.386725 54.86484 
L 10.144307 55.401877 
L 9.901889 55.938913 
L 9.65947 56.47595 
L 9.417052 57.012986 
L 9.174633 57.550023 
L 8.932215 58.087059 
L 8.689797 58.624095 
L 8.447378 59.161132 
L 8.113573 59.645398 
L 7.779768 60.129664 
L 7.445962 60.61393 
L 7.112157 61.098196 
L 6.779946 61.50241 
L 6.447735 61.906623 
L 6.067402 62.622791 
L 5.68707 63.338959 
L 5.619816 63.905791 
L 5.552562 64.472623 
L 5.965942 65.07643 
L 6.379321 65.680237 
" style="fill:none;stroke:#4169e1;stroke-linecap:square;stroke-width:0.4;"/>
   </g>
   <g id="line2d_15">
    <path clip-path="url(#pda1035d376)" d="M 11.944001 42.755674 
L 11.940522 43.361456 
L 11.937043 43.967237 
L 11.933565 44.573018 
L 11.930086 45.1788 
L 11.581931 45.938405 
L 11.233776 46.69801 
L 10.801264 47.552386 
L 10.368752 48.406762 
L 10.2212 49.250728 
L 10.073647 50.094693 
L 9.851883 50.791118 
L 9.630119 51.487542 
L 9.271528 52.120426 
L 8.912938 52.753311 
L 8.525938 53.086446 
L 8.138938 53.419581 
L 7.751938 53.752716 
L 7.364939 54.08585 
" style="fill:none;stroke:#4169e1;stroke-linecap:square;stroke-width:0.4;"/>
   </g>
   <g id="line2d_16">
    <path clip-path="url(#pda1035d376)" d="M 30.616811 19.660954 
L 29.977609 20.181477 
L 29.338407 20.702 
L 28.462657 20.997442 
L 27.586907 21.292884 
L 27.038295 21.39304 
L 26.489683 21.493196 
L 25.941071 21.593352 
L 25.392459 21.693508 
L 25.012707 22.1049 
L 24.632954 22.516293 
L 24.569469 23.44462 
L 24.505984 24.372946 
L 24.659044 24.884674 
L 24.812105 25.396402 
L 24.965165 25.908131 
L 25.118226 26.419859 
L 24.959947 27.221824 
L 24.801669 28.023789 
L 24.316397 28.846574 
L 23.831126 29.66936 
L 23.693864 30.165114 
L 23.556602 30.660867 
L 23.41934 31.156621 
L 23.282079 31.652374 
L 22.796807 32.232847 
L 22.311536 32.813321 
L 21.873661 33.066403 
L 21.435786 33.319485 
L 20.997911 33.572567 
L 20.560036 33.825649 
L 20.080127 33.994549 
L 19.600218 34.16345 
L 19.12031 34.332351 
L 18.640401 34.501252 
L 17.996561 35.039365 
L 17.352721 35.577479 
L 17.127768 36.244466 
L 16.902815 36.911454 
" style="fill:none;stroke:#000000;stroke-linecap:square;stroke-width:0.4;"/>
   </g>
   <g id="line2d_17">
    <path clip-path="url(#pda1035d376)" d="M 43.85887 40.757583 
L 43.861769 41.649293 
L 43.864668 42.541003 
L 43.790166 43.406508 
L 43.715665 44.272012 
L 43.984101 44.913153 
L 44.536047 45.122081 
L 45.199889 45.032694 
L 45.863731 44.943308 
L 46.46061 44.846203 
L 47.057488 44.749099 
L 47.654366 44.651994 
L 48.251244 44.55489 
L 49.019736 44.749099 
L 49.788228 44.943308 
L 50.601362 45.204287 
L 51.414496 45.465267 
L 51.951658 46.188974 
L 52.488819 46.912681 
L 52.660433 47.583976 
L 52.832046 48.255272 
L 52.772329 49.180367 
L 52.712612 50.105463 
L 52.287347 50.911017 
L 51.862083 51.716572 
L 51.552483 52.134247 
L 51.242883 52.551922 
L 50.933283 52.969597 
L 50.623683 53.387272 
L 50.366263 53.987848 
L 50.108843 54.588425 
L 49.851423 55.189001 
L 49.594003 55.789577 
L 49.235992 56.236868 
L 48.877981 56.684159 
L 48.228923 56.915702 
L 47.579865 57.147245 
L 47.057633 57.05391 
L 46.535401 56.960575 
L 46.013168 56.86724 
L 45.490936 56.773904 
" style="fill:none;stroke:#4169e1;stroke-linecap:square;stroke-width:0.4;"/>
   </g>
   <g id="line2d_18">
    <path clip-path="url(#pda1035d376)" d="M 13.970894 60.902192 
L 14.733298 61.360612 
L 15.495702 61.819031 
L 16.076056 62.325554 
L 16.656411 62.832077 
L 17.089213 63.428705 
L 17.522015 64.025332 
L 17.760882 64.771296 
L 17.552163 65.18915 
L 16.999638 65.353564 
L 16.365509 65.263998 
L 15.73138 65.174432 
L 15.097251 65.084866 
L 14.463123 64.9953 
L 13.635204 65.032634 
L 12.807286 65.069968 
L 12.113585 65.592287 
L 11.419884 66.114605 
L 10.629071 66.420098 
L 9.838258 66.725591 
L 9.19036 66.683591 
L 8.542461 66.64159 
L 7.894563 66.599589 
L 7.246664 66.557588 
L 6.812993 66.118913 
L 6.379321 65.680237 
" style="fill:none;stroke:#008000;stroke-linecap:square;stroke-width:0.4;"/>
   </g>
   <g id="line2d_19">
    <path clip-path="url(#pda1035d376)" d="M 21.572902 43.464304 
L 21.23685 43.942736 
L 20.900798 44.421169 
L 20.564746 44.899602 
L 20.228694 45.378035 
L 19.892642 45.856467 
L 19.55659 46.3349 
L 19.220538 46.813333 
L 18.884486 47.291765 
L 18.405193 48.036787 
L 17.925901 48.781808 
L 17.446608 49.526829 
L 16.967315 50.271851 
L 16.488023 51.016872 
L 16.00873 51.761894 
L 15.529437 52.506915 
L 15.050145 53.251936 
L 14.570852 53.996958 
L 14.091559 54.741979 
L 13.612267 55.487 
L 13.132974 56.232022 
L 12.653681 56.977043 
L 12.174389 57.722065 
L 11.695096 58.467086 
L 11.215803 59.212107 
L 11.233197 59.851094 
L 11.25059 60.490082 
" style="fill:none;stroke:#4169e1;stroke-linecap:square;stroke-width:0.4;"/>
   </g>
   <g id="line2d_20">
    <path clip-path="url(#pda1035d376)" d="M 50.577881 21.493196 
L 50.095653 21.967141 
L 49.613426 22.441087 
L 49.131198 22.915032 
L 48.64897 23.388977 
L 48.166742 23.862923 
L 47.684514 24.336868 
L 47.202287 24.810814 
L 46.720059 25.284759 
L 46.044839 25.87295 
L 45.369618 26.461142 
L 44.694398 27.049333 
L 44.019178 27.637524 
L 43.343957 28.225716 
L 42.668737 28.813907 
L 41.993517 29.402098 
L 41.318296 29.99029 
L 40.947023 30.339938 
L 40.575749 30.689586 
L 40.204476 31.039234 
L 39.833203 31.388882 
L 39.461929 31.73853 
L 39.090656 32.088178 
L 38.719383 32.437826 
L 38.348109 32.787474 
" style="fill:none;stroke:#ff0000;stroke-dasharray:1.48,0.64;stroke-dashoffset:0;stroke-width:0.4;"/>
   </g>
   <g id="line2d_21">
    <path clip-path="url(#pda1035d376)" d="M 31.438352 20.344455 
L 31.167525 20.820644 
L 30.896697 21.296833 
L 30.62587 21.773022 
L 30.355043 22.249211 
L 30.084215 22.7254 
L 29.813388 23.201589 
L 29.542561 23.677778 
L 29.271733 24.153967 
L 28.927347 24.938701 
L 28.582961 25.723435 
L 28.332498 26.23265 
L 28.082035 26.741865 
L 27.831572 27.251081 
L 27.58111 27.760296 
L 27.170194 28.340949 
L 26.759279 28.921601 
L 26.348363 29.502254 
L 25.937448 30.082907 
L 25.701407 30.528627 
L 25.465366 30.974348 
L 25.229325 31.420068 
L 24.993284 31.865789 
L 24.757244 32.311509 
L 24.521203 32.75723 
L 24.285162 33.20295 
L 24.049121 33.648671 
L 23.81308 34.094391 
L 23.577039 34.540112 
L 23.340998 34.985832 
L 23.104958 35.431553 
L 22.868917 35.877273 
L 22.632876 36.322994 
L 22.396835 36.768714 
L 22.160794 37.214435 
L 22.215003 37.754702 
L 22.269212 38.294969 
L 21.638127 38.582513 
L 21.007042 38.870058 
L 20.653524 39.381786 
L 20.300007 39.893514 
L 19.946489 40.405242 
L 19.592971 40.916971 
L 19.240866 41.542002 
L 18.888762 42.167034 
L 18.536657 42.792066 
L 18.184553 43.417098 
L 17.832448 44.042129 
L 17.480344 44.667161 
L 17.128239 45.292193 
L 16.776135 45.917225 
L 16.42403 46.542257 
L 16.071926 47.167288 
L 15.719821 47.79232 
L 15.367716 48.417352 
L 15.015612 49.042384 
L 14.663507 49.667416 
L 14.311403 50.292447 
L 13.959298 50.917479 
L 13.635639 51.510337 
L 13.31198 52.103195 
L 12.98832 52.696053 
L 12.664661 53.288911 
L 12.341002 53.881769 
L 12.017342 54.474627 
L 11.693683 55.067486 
L 11.370024 55.660344 
L 11.046364 56.253202 
L 10.722705 56.84606 
L 10.399046 57.438918 
L 10.075386 58.031776 
L 9.751727 58.624634 
L 9.428068 59.217492 
L 9.104408 59.81035 
L 8.780749 60.403208 
" style="fill:none;stroke:#000000;stroke-linecap:square;stroke-width:0.4;"/>
   </g>
   <g id="line2d_22">
    <path clip-path="url(#pda1035d376)" d="M 25.392459 21.693508 
L 24.709485 21.194523 
L 24.02651 20.695539 
L 23.235117 20.600768 
L 22.443724 20.505996 
L 21.684219 20.864619 
L 20.924714 21.223242 
L 20.502638 21.697995 
L 20.080562 22.172748 
L 19.658486 22.647501 
L 19.236409 23.122254 
L 18.592859 23.734318 
L 17.949309 24.346381 
L 17.777913 24.84743 
L 17.606517 25.348478 
L 17.435121 25.849527 
L 17.263725 26.350575 
L 17.092329 26.851624 
L 16.920933 27.352672 
L 16.749537 27.853721 
L 16.578142 28.35477 
L 15.892268 28.787342 
L 15.206394 29.219915 
L 14.541682 29.884749 
L 13.87697 30.549583 
L 13.138337 31.129697 
L 12.399704 31.709811 
L 12.227366 32.251335 
L 12.055028 32.792859 
L 11.88269 33.334382 
L 11.710351 33.875906 
L 11.641793 34.403429 
L 11.573235 34.930953 
L 11.504676 35.458476 
L 11.436118 35.986 
L 11.161884 36.640064 
L 10.887651 37.294129 
L 10.559498 38.077067 
L 10.231346 38.860006 
" style="fill:none;stroke:#ff0000;stroke-linecap:square;stroke-width:0.4;"/>
   </g>
   <g id="line2d_23">
    <path clip-path="url(#pda1035d376)" d="M 14.592992 38.133427 
L 13.777539 37.825421 
L 12.962085 37.517415 
L 12.365207 37.658854 
L 11.768329 37.800293 
L 10.999837 38.330149 
L 10.231346 38.860006 
L 9.917977 39.356119 
L 9.604609 39.852231 
L 9.291241 40.348344 
L 8.977872 40.844456 
L 8.269098 41.284568 
L 7.560323 41.724679 
L 6.821979 42.283972 
L 6.083636 42.843266 
L 5.665908 43.514561 
L 5.24818 44.185857 
L 5.199914 44.710867 
L 5.151648 45.235878 
L 5.103382 45.760888 
L 5.055115 46.285899 
L 4.644925 47.039401 
L 4.234734 47.792904 
L 3.727431 48.613535 
L 3.220128 49.434167 
L 3.156642 49.93387 
L 3.093157 50.433572 
L 3.029672 50.933274 
L 2.966186 51.432977 
L 3.324197 52.283404 
L 3.682208 53.133831 
L 4.279087 53.730818 
L 4.875965 54.327804 
L 5.007719 54.99533 
L 5.139473 55.662856 
L 5.271226 56.330383 
L 5.40298 56.997909 
" style="fill:none;stroke:#4169e1;stroke-linecap:square;stroke-width:0.4;"/>
   </g>
   <g id="line2d_24">
    <path clip-path="url(#pda1035d376)" d="M 24.31002 48.168398 
L 23.754595 48.52738 
L 23.199171 48.886361 
L 22.564897 48.901439 
L 21.930623 48.916516 
L 21.430857 49.155239 
L 20.931092 49.393961 
L 20.513364 50.050539 
L 20.095636 50.707116 
L 19.550937 51.378411 
L 19.006239 52.049707 
L 18.46154 52.721003 
L 17.916842 53.392298 
L 17.629708 53.783947 
L 17.342575 54.175596 
L 17.055441 54.567245 
L 16.768308 54.958894 
L 16.417544 55.451057 
L 16.06678 55.943221 
L 15.574551 56.308664 
L 15.082322 56.674108 
L 14.537624 57.032371 
L 13.992925 57.390635 
L 13.634624 58.106444 
L 13.816964 58.954717 
L 13.999303 59.802991 
" style="fill:none;stroke:#4169e1;stroke-linecap:square;stroke-width:0.4;"/>
   </g>
   <g id="line2d_25">
    <path clip-path="url(#pda1035d376)" d="M 15.495702 61.819031 
L 14.85563 62.258425 
L 14.215559 62.697818 
L 13.719706 62.766384 
L 13.223854 62.834949 
L 12.728001 62.903515 
L 12.232149 62.97208 
L 11.66223 63.267163 
L 11.110284 63.678466 
L 10.558339 64.089769 
L 10.006393 64.501072 
L 9.454447 64.912376 
L 8.902502 65.323679 
L 8.350556 65.734982 
L 7.79861 66.146285 
L 7.246664 66.557588 
" style="fill:none;stroke:#008000;stroke-linecap:square;stroke-width:0.4;"/>
   </g>
   <g id="line2d_26">
    <path clip-path="url(#pda1035d376)" d="M 48.032669 15.570718 
L 48.260956 14.890986 
L 48.489242 14.211255 
L 48.717528 13.531523 
L 48.945815 12.851791 
L 48.927117 12.273652 
L 48.908419 11.695512 
L 48.889722 11.117372 
L 48.871024 10.539232 
L 48.852326 9.961092 
L 48.833628 9.382953 
L 48.814931 8.804813 
L 48.796233 8.226673 
L 48.460543 7.443375 
L 48.124854 6.660077 
L 47.789164 5.87678 
L 47.453474 5.093482 
L 46.97603 4.7205 
L 46.498585 4.347518 
L 46.02114 3.974536 
L 45.543696 3.601554 
L 45.066251 3.519348 
L 44.588806 3.437141 
L 44.111362 3.354934 
L 43.633917 3.272727 
L 43.098495 3.61376 
L 42.563073 3.954792 
L 42.027651 4.295825 
L 41.492229 4.636857 
" style="fill:none;stroke:#ff0000;stroke-dasharray:1.48,0.64;stroke-dashoffset:0;stroke-width:0.4;"/>
   </g>
   <g id="line2d_27">
    <path clip-path="url(#pda1035d376)" d="M 35.336179 48.755692 
L 35.428943 49.710583 
L 35.521707 50.665474 
L 35.614471 51.620365 
L 35.707235 52.575256 
L 35.446771 53.229679 
L 35.186307 53.884103 
L 34.925843 54.538526 
L 34.665379 55.19295 
L 34.534205 55.708806 
L 34.403031 56.224663 
L 34.271857 56.740519 
L 34.140683 57.256376 
L 33.618596 57.708692 
L 33.096508 58.161009 
L 32.486585 58.878254 
L 31.919855 59.161132 
L 31.353125 59.444009 
L 30.588692 59.911044 
L 29.824259 60.378079 
L 29.396965 60.805447 
L 28.969671 61.232815 
L 28.542376 61.660182 
L 28.115082 62.08755 
L 27.636478 62.593534 
L 27.157874 63.099519 
L 26.67927 63.605503 
L 26.200666 64.111488 
" style="fill:none;stroke:#4169e1;stroke-linecap:square;stroke-width:0.4;"/>
   </g>
   <g id="line2d_28">
    <path clip-path="url(#pda1035d376)" d="M 32.610657 22.140799 
L 32.185247 22.655219 
L 31.759837 23.16964 
L 31.334427 23.68406 
L 30.909018 24.198481 
L 30.6716 24.715414 
L 30.434182 25.232348 
L 30.196764 25.749281 
L 29.959346 26.266215 
L 29.88557 26.751558 
L 29.811794 27.236901 
L 29.738017 27.722244 
L 29.664241 28.207587 
L 29.780196 29.072733 
L 29.896151 29.937878 
L 29.887454 30.642918 
L 29.878758 31.347958 
L 29.870061 32.052998 
L 29.861364 32.758037 
L 29.854407 33.334562 
L 29.754106 34.189117 
L 29.653805 35.043673 
L 29.553504 35.898229 
L 29.453203 36.752784 
L 29.53756 37.61793 
L 29.621917 38.483076 
L 29.703955 39.127088 
L 29.785994 39.771101 
L 29.868032 40.415114 
L 29.95007 41.059127 
L 29.754251 41.568163 
L 29.558432 42.077199 
L 29.362613 42.586235 
L 29.166794 43.095271 
L 28.749936 43.643795 
L 28.333078 44.192318 
L 27.91622 44.740842 
L 27.499361 45.289366 
L 27.100694 45.649245 
L 26.702026 46.009124 
L 26.303358 46.369003 
L 25.904691 46.728882 
L 25.506023 47.088761 
L 25.107355 47.44864 
L 24.708687 47.808519 
L 24.31002 48.168398 
" style="fill:none;stroke:#4169e1;stroke-linecap:square;stroke-width:0.4;"/>
   </g>
   <g id="line2d_29">
    <path clip-path="url(#pda1035d376)" d="M 18.996383 38.317944 
L 18.472991 37.966322 
L 17.949599 37.614699 
L 17.426207 37.263077 
L 16.902815 36.911454 
L 16.027065 37.122535 
L 15.151316 37.333617 
L 14.872154 37.733522 
L 14.592992 38.133427 
L 14.309337 38.539795 
L 14.025683 38.946162 
L 13.742028 39.352529 
L 13.458373 39.758896 
L 13.174718 40.165263 
L 12.891063 40.57163 
L 12.607408 40.977997 
L 12.323753 41.384365 
L 12.133877 42.070019 
L 11.944001 42.755674 
L 11.617008 43.473278 
L 11.290015 44.190882 
L 10.920698 44.549505 
L 10.551381 44.908128 
L 10.108288 45.24575 
L 9.665195 45.583372 
L 9.222103 45.920994 
L 8.77901 46.258616 
L 8.409693 46.954682 
L 8.040376 47.650747 
L 8.050957 48.183475 
L 8.061538 48.716204 
L 8.072119 49.248933 
L 8.0827 49.781661 
L 8.077482 50.446316 
L 8.072264 51.11097 
L 8.067046 51.775625 
L 8.061828 52.440279 
L 7.713383 53.263065 
L 7.364939 54.08585 
L 6.943007 54.597579 
L 6.521076 55.109307 
L 6.099145 55.621035 
L 5.677214 56.132763 
L 5.40298 56.997909 
L 5.45574 57.546433 
L 5.508499 58.094957 
L 5.561259 58.64348 
L 5.614018 59.192004 
L 5.571695 60.01479 
L 5.529371 60.837576 
L 5.255138 61.745081 
L 5.471104 62.54202 
L 5.68707 63.338959 
" style="fill:none;stroke:#4169e1;stroke-linecap:square;stroke-width:0.4;"/>
   </g>
   <g id="line2d_30">
    <path clip-path="url(#pda1035d376)" d="M 37.172906 21.825613 
L 37.12377 21.206011 
L 37.074634 20.586408 
L 37.025498 19.966806 
L 36.976362 19.347204 
L 36.522688 18.75632 
L 36.069014 18.165437 
L 35.362269 18.239387 
L 34.655523 18.313337 
L 34.113723 18.70355 
L 33.571924 19.093763 
L 33.203187 19.965729 
L 32.83445 20.837695 
L 32.722553 21.489247 
L 32.610657 22.140799 
L 32.502819 23.060509 
L 32.510791 23.59593 
L 32.518763 24.131351 
L 32.526735 24.666772 
L 32.534706 25.202193 
L 32.542678 25.737614 
L 32.55065 26.273035 
L 32.558622 26.808456 
L 32.566594 27.343877 
L 32.892428 27.923274 
L 33.218261 28.50267 
L 33.515686 29.031809 
L 33.63193 29.527921 
L 33.748175 30.024034 
L 33.748175 30.698919 
L 33.748175 31.373805 
L 34.211995 31.986227 
L 34.729009 32.086383 
L 35.246024 32.186539 
L 35.763038 32.286695 
L 36.280052 32.386851 
L 36.797067 32.487006 
L 37.314081 32.587162 
L 37.831095 32.687318 
L 38.348109 32.787474 
L 39.086163 33.336716 
L 39.534619 33.785084 
L 39.983075 34.233452 
L 40.43153 34.68182 
L 40.879986 35.130188 
L 41.729357 35.573171 
L 42.578727 36.016154 
L 43.428097 36.459137 
L 44.277467 36.902121 
L 44.921017 37.207973 
L 45.564568 37.513825 
L 46.018241 37.977988 
L 46.471915 38.442152 
L 46.545547 39.022625 
L 46.619178 39.603098 
L 46.55062 40.135827 
L 46.482061 40.668555 
L 46.413503 41.201284 
L 46.344945 41.734013 
L 46.028387 42.156175 
L 45.416725 42.008275 
L 44.984213 41.512521 
L 44.551701 41.016767 
L 43.85887 40.757583 
L 43.329535 40.560143 
L 42.800201 40.362703 
L 42.288549 40.373113 
L 41.776898 40.383524 
L 41.265247 40.393934 
L 40.753595 40.404345 
L 39.943795 40.473 
L 39.133994 40.541655 
L 38.324194 40.610311 
L 37.514393 40.678966 
L 36.704592 40.747621 
L 35.894792 40.816276 
L 35.084991 40.884931 
L 34.275191 40.953587 
L 33.74774 41.006177 
L 33.22029 41.058768 
L 32.69284 41.111359 
L 32.16539 41.16395 
L 31.61156 41.137744 
L 31.05773 41.111539 
L 30.5039 41.085333 
L 29.95007 41.059127 
L 29.527994 41.328004 
L 29.105918 41.596882 
L 28.683842 41.865759 
L 28.261765 42.134636 
L 27.354418 42.282536 
L 26.900744 41.945094 
L 26.44707 41.607651 
L 26.172836 41.069538 
L 25.898603 40.531424 
L 25.624369 39.993311 
L 25.350136 39.455198 
L 24.885736 38.758773 
L 24.421336 38.062349 
L 23.862144 38.030759 
L 23.302951 37.999168 
L 22.786081 38.147069 
L 22.269212 38.294969 
" style="fill:none;stroke:#4169e1;stroke-linecap:square;stroke-width:0.4;"/>
   </g>
   <g id="line2d_31">
    <path clip-path="url(#pda1035d376)" d="M 48.032669 15.570718 
L 47.255191 15.749491 
L 46.579898 15.649335 
L 45.904606 15.549179 
L 45.229313 15.449023 
L 44.55402 15.348867 
L 43.812923 15.110145 
L 43.071825 14.871422 
L 42.330728 14.632699 
L 41.589631 14.393976 
L 40.848534 14.155254 
L 40.107436 13.916531 
L 39.366339 13.677808 
L 38.625242 13.439085 
L 38.130694 13.280864 
L 37.636146 13.122643 
L 37.141598 12.964422 
L 36.64705 12.806201 
L 36.152502 12.64798 
L 35.657954 12.489759 
L 35.163406 12.331537 
L 34.668858 12.173316 
L 34.260117 11.695153 
" style="fill:none;stroke:#000000;stroke-linecap:square;stroke-width:0.4;"/>
   </g>
   <g id="line2d_32">
    <path clip-path="url(#pda1035d376)" d="M 28.733122 53.076394 
L 27.901435 53.371118 
L 27.069748 53.665842 
L 26.238061 53.960566 
L 25.406374 54.25529 
L 24.943859 54.479115 
L 24.481343 54.70294 
L 24.018828 54.926765 
L 23.556312 55.15059 
L 23.078868 55.702703 
L 22.601423 56.254817 
L 22.250804 56.672492 
L 21.900185 57.090167 
L 21.549566 57.507842 
L 21.198948 57.925517 
L 20.572211 58.16424 
L 19.945474 58.402963 
L 19.094944 58.388065 
L 18.244415 58.373167 
L 17.393885 58.35827 
L 16.543355 58.343372 
L 16.050981 58.48517 
L 15.558607 58.626967 
L 15.066234 58.768765 
L 14.57386 58.910563 
L 14.286581 59.356777 
L 13.999303 59.802991 
L 13.985098 60.352592 
L 13.970894 60.902192 
" style="fill:none;stroke:#4169e1;stroke-linecap:square;stroke-width:0.4;"/>
   </g>
   <g id="line2d_33">
    <path clip-path="url(#pda1035d376)" d="M 13.970894 60.902192 
L 13.583604 60.455619 
L 13.196315 60.009046 
L 12.397385 60.041714 
L 11.598455 60.074381 
L 11.25059 60.490082 
L 10.852285 60.966271 
L 10.453979 61.44246 
L 10.055674 61.918649 
L 9.657369 62.394838 
L 9.26689 62.990927 
L 8.876412 63.587016 
L 8.485933 64.183105 
L 8.095455 64.779193 
L 7.666422 65.004454 
L 7.237388 65.229715 
L 6.808355 65.454976 
L 6.379321 65.680237 
" style="fill:none;stroke:#008000;stroke-linecap:square;stroke-width:0.4;"/>
   </g>
   <g id="line2d_34">
    <path clip-path="url(#pda1035d376)" d="M 21.488255 40.615426 
L 20.957326 41.370005 
L 20.426397 42.124585 
L 19.895469 42.879164 
L 19.36454 43.633743 
L 19.000514 44.266717 
L 18.636487 44.899692 
L 18.272461 45.532666 
L 17.908435 46.16564 
L 17.544409 46.798614 
L 17.180383 47.431589 
L 16.816357 48.064563 
L 16.45233 48.697537 
L 16.172045 49.163361 
L 15.891761 49.629184 
L 15.611476 50.095007 
L 15.331191 50.560831 
L 15.050906 51.026654 
L 14.770621 51.492478 
L 14.490336 51.958301 
L 14.210051 52.424125 
L 13.929766 52.889948 
L 13.649481 53.355772 
L 13.369196 53.821595 
L 13.088911 54.287419 
L 12.808626 54.753242 
L 12.528341 55.219066 
L 12.248056 55.684889 
L 11.967772 56.150712 
L 11.708322 56.625466 
L 11.448873 57.100219 
L 11.189424 57.574972 
L 10.929974 58.049725 
L 10.523842 58.793535 
L 10.11771 59.537345 
L 9.380816 60.062176 
L 8.780749 60.403208 
L 7.946453 60.750702 
L 7.112157 61.098196 
" style="fill:none;stroke:#4169e1;stroke-linecap:square;stroke-width:0.4;"/>
   </g>
   <g id="line2d_35">
    <path clip-path="url(#pda1035d376)" d="M 37.172906 21.825613 
L 37.168847 22.77835 
L 36.788225 23.658573 
L 36.407603 24.538795 
L 36.008935 25.03428 
L 35.610267 25.529764 
L 35.2116 26.025248 
L 34.812932 26.520733 
L 34.414264 27.016217 
L 34.015596 27.511701 
L 33.616929 28.007186 
L 33.218261 28.50267 
L 32.798649 29.034591 
L 32.379037 29.566512 
L 31.959425 30.098433 
L 31.539813 30.630354 
L 31.120201 31.162275 
L 30.700589 31.694196 
L 30.280976 32.226117 
L 29.861364 32.758037 
L 29.458058 33.334472 
L 29.054752 33.910907 
L 28.651447 34.487341 
L 28.248141 35.063776 
L 27.844835 35.640211 
L 27.441529 36.216645 
L 27.038223 36.79308 
L 26.634917 37.369515 
L 26.313722 37.890935 
L 25.992526 38.412356 
L 25.671331 38.933777 
L 25.350136 39.455198 
L 24.877982 39.956336 
L 24.405827 40.457474 
L 23.933673 40.958612 
L 23.461519 41.459751 
L 22.989365 41.960889 
L 22.517211 42.462027 
L 22.045057 42.963165 
L 21.572902 43.464304 
" style="fill:none;stroke:#ff0000;stroke-linecap:square;stroke-width:0.4;"/>
   </g>
   <g id="line2d_36">
    <path clip-path="url(#pda1035d376)" d="M 50.577881 21.493196 
L 51.059239 21.662007 
L 51.540597 21.830818 
L 52.021955 21.999629 
L 52.503314 22.16844 
L 52.984672 22.337251 
L 53.46603 22.506062 
L 53.947388 22.674873 
L 54.428746 22.843684 
L 54.73994 23.244667 
L 55.051134 23.645649 
L 55.362329 24.046632 
L 55.673523 24.447614 
L 55.984717 24.848597 
L 56.295911 25.249579 
L 56.607105 25.650561 
L 56.918299 26.051544 
L 57.203186 26.578977 
L 57.488073 27.106411 
L 57.77296 27.633845 
L 58.057847 28.161278 
L 58.342734 28.688712 
L 58.627621 29.216146 
L 58.912508 29.743579 
L 59.197395 30.271013 
L 59.192104 30.861807 
L 59.186814 31.452601 
L 59.181523 32.043395 
L 59.176233 32.634189 
L 59.170942 33.224983 
L 59.165652 33.815777 
L 59.160362 34.406571 
L 59.155071 34.997364 
L 58.938815 35.640929 
L 58.722559 36.284493 
L 58.506303 36.928057 
L 58.290047 37.571621 
L 58.073791 38.215186 
L 57.857535 38.85875 
L 57.641279 39.502314 
L 57.425023 40.145878 
L 57.11651 40.568803 
L 56.807997 40.991728 
L 56.499485 41.414654 
L 56.190972 41.837579 
L 55.882459 42.260504 
L 55.573946 42.683429 
L 55.265434 43.106354 
L 54.956921 43.529279 
L 54.648408 43.952205 
L 54.339896 44.37513 
L 54.031383 44.798055 
L 53.72287 45.22098 
L 53.414357 45.643905 
L 53.105845 46.06683 
L 52.797332 46.489756 
L 52.488819 46.912681 
" style="fill:none;stroke:#ff0000;stroke-dasharray:1.48,0.64;stroke-dashoffset:0;stroke-width:0.4;"/>
   </g>
   <g id="line2d_37">
    <path clip-path="url(#pda1035d376)" d="M 48.032669 15.570718 
L 48.05702 16.144011 
L 48.08137 16.717305 
L 48.105721 17.290599 
L 48.130072 17.863892 
L 48.34111 18.433596 
L 48.552148 19.0033 
L 48.763186 19.573003 
L 48.974224 20.142707 
L 49.375138 20.480329 
L 49.776052 20.817951 
L 50.176967 21.155574 
L 50.577881 21.493196 
L 50.947053 22.020719 
L 51.316224 22.548243 
L 51.685396 23.075766 
L 52.054568 23.603289 
L 52.160087 24.109633 
L 52.265606 24.615976 
L 52.371125 25.12232 
L 52.476644 25.628663 
L 52.402795 26.124507 
L 52.328946 26.62035 
L 52.255097 27.116193 
L 52.181249 27.612037 
L 52.1074 28.10788 
L 52.033551 28.603723 
L 51.959702 29.099567 
L 51.885853 29.59541 
L 51.623433 30.164934 
L 51.361012 30.734458 
L 51.098591 31.303983 
L 50.836171 31.873507 
L 50.57375 32.443031 
L 50.31133 33.012555 
L 50.048909 33.58208 
L 49.786488 34.151604 
L 49.372167 34.687922 
L 48.957845 35.224241 
L 48.543523 35.760559 
L 48.129202 36.296878 
L 47.71488 36.833196 
L 47.300559 37.369515 
L 46.886237 37.905833 
L 46.471915 38.442152 
" style="fill:none;stroke:#ff0000;stroke-dasharray:1.48,0.64;stroke-dashoffset:0;stroke-width:0.4;"/>
   </g>
   <g id="line2d_38">
    <path clip-path="url(#pda1035d376)" d="M 22.269212 38.294969 
L 21.889459 38.716414 
L 21.789158 39.191167 
L 21.688857 39.66592 
L 21.588556 40.140673 
L 21.488255 40.615426 
L 21.509417 41.327645 
L 21.530579 42.039865 
L 21.551741 42.752084 
L 21.572902 43.464304 
L 21.641461 44.065598 
L 21.710019 44.666892 
L 21.778577 45.268186 
L 21.847136 45.86948 
L 22.311536 46.502724 
L 23.029007 46.914117 
L 23.746478 47.32551 
L 24.028249 47.746954 
L 24.31002 48.168398 
L 24.659624 48.690716 
L 25.009228 49.213035 
L 25.358832 49.735353 
L 25.708437 50.257671 
L 26.313432 50.781066 
L 26.918427 51.304461 
L 27.635608 51.779035 
L 28.35279 52.253609 
L 28.733122 53.076394 
L 28.775301 53.720048 
L 28.81748 54.363702 
L 28.859658 55.007356 
L 28.901837 55.65101 
L 29.218394 56.378666 
L 29.534951 57.106321 
L 29.914704 57.507304 
L 30.294456 57.908286 
L 30.674209 58.309269 
L 31.053961 58.710251 
L 31.353125 59.444009 
L 31.518361 59.849659 
L 32.214671 60.355823 
L 32.752702 60.482364 
L 33.290733 60.608905 
L 33.828764 60.735446 
L 34.366795 60.861987 
L 34.957586 61.389689 
L 34.89439 62.064575 
L 34.282148 62.360376 
L 33.333056 62.465916 
L 32.547027 62.988055 
L 31.760997 63.510194 
L 30.974967 64.032332 
L 30.188937 64.554471 
L 29.323913 64.596831 
L 28.543101 64.475495 
L 27.762289 64.354159 
L 26.981477 64.232823 
L 26.200666 64.111488 
L 25.583495 64.095603 
L 24.966325 64.079718 
L 24.349154 64.063833 
L 23.731984 64.047948 
L 23.114814 64.032063 
L 22.497643 64.016178 
L 21.880473 64.000293 
L 21.263303 63.984408 
L 20.682948 63.826456 
L 20.102593 63.668504 
L 19.490641 63.177956 
L 18.878688 62.687408 
L 18.266736 62.19686 
L 17.654784 61.706311 
L 17.14835 61.51641 
L 16.641917 61.326509 
L 15.967059 61.49523 
L 15.495702 61.819031 
" style="fill:none;stroke:#008000;stroke-linecap:square;stroke-width:0.4;"/>
   </g>
   <g id="line2d_39">
    <path clip-path="url(#pda1035d376)" d="M 48.371258 19.770802 
L 47.588417 20.108783 
L 46.805576 20.446765 
L 46.022735 20.784746 
L 45.239894 21.122727 
L 44.468938 20.582998 
L 43.697982 20.043269 
L 42.927027 19.50354 
L 42.156071 18.963812 
L 42.018193 18.256618 
L 41.880315 17.549424 
L 41.742438 16.842231 
L 41.60456 16.135037 
L 41.466682 15.427843 
L 41.328805 14.72065 
L 41.190927 14.013456 
L 41.053049 13.306262 
L 40.915171 12.599068 
L 40.777294 11.891875 
L 40.639416 11.184681 
L 40.501538 10.477487 
L 40.363661 9.770294 
L 40.225783 9.0631 
L 40.087905 8.355906 
L 39.950027 7.648713 
" style="fill:none;stroke:#008000;stroke-linecap:square;stroke-width:0.4;"/>
   </g>
   <g id="line2d_40">
    <path clip-path="url(#pda1035d376)" d="M 35.336179 48.755692 
L 34.872794 49.111263 
L 34.409409 49.466835 
L 33.946023 49.822406 
L 33.482638 50.177977 
L 33.019253 50.533548 
L 32.555868 50.88912 
L 32.092483 51.244691 
L 31.629098 51.600262 
L 30.990766 51.925858 
L 30.352434 52.251455 
L 29.542778 52.663924 
L 28.733122 53.076394 
" style="fill:none;stroke:#4169e1;stroke-linecap:square;stroke-width:0.4;"/>
   </g>
   <g id="line2d_41">
    <path clip-path="url(#pda1035d376)" d="M 28.901837 55.65101 
L 28.401636 56.13034 
L 27.901435 56.60967 
L 27.401234 57.089001 
L 26.901034 57.568331 
L 26.400833 58.047661 
L 25.900632 58.526991 
L 25.400431 59.006321 
L 24.90023 59.485651 
L 24.387709 59.833863 
L 23.875188 60.182075 
L 23.362667 60.530288 
L 22.850146 60.8785 
L 22.337625 61.226712 
L 21.825104 61.574924 
L 21.312583 61.923136 
L 20.800062 62.271348 
L 20.147816 62.585098 
L 19.495569 62.898848 
" style="fill:none;stroke:#4169e1;stroke-linecap:square;stroke-width:0.4;"/>
   </g>
   <g id="line2d_42">
    <path clip-path="url(#pda1035d376)" d="M 45.490936 56.773904 
L 44.729982 56.684518 
L 43.969027 56.595132 
L 43.319969 56.773904 
L 42.670911 56.952677 
L 42.230862 57.385609 
L 41.790813 57.818541 
L 41.469907 58.377834 
L 41.149002 58.937127 
L 40.671557 59.161132 
L 40.194113 59.385136 
L 39.539547 59.635706 
L 38.884981 59.886275 
L 38.230415 60.136844 
L 37.575849 60.387413 
L 36.921283 60.637982 
L 36.266717 60.888551 
L 35.612152 61.13912 
L 34.957586 61.389689 
" style="fill:none;stroke:#008000;stroke-linecap:square;stroke-width:0.4;"/>
   </g>
   <g id="line2d_43">
    <path clip-path="url(#pda1035d376)" d="M 47.579865 57.147245 
L 47.053502 57.686974 
L 46.527139 58.226703 
L 46.000776 58.766432 
L 45.474413 59.30616 
L 44.948049 59.845889 
L 44.421686 60.385618 
L 43.895323 60.925347 
L 43.36896 61.465076 
L 42.53749 61.900969 
L 41.706021 62.336862 
L 40.874551 62.772756 
L 40.043081 63.208649 
L 39.211612 63.644542 
L 38.380142 64.080436 
L 37.548672 64.516329 
L 36.717203 64.952223 
" style="fill:none;stroke:#4169e1;stroke-linecap:square;stroke-width:0.4;"/>
   </g>
   <g id="line2d_44">
    <path clip-path="url(#pda1035d376)" d="M 36.717203 64.952223 
L 36.254252 65.188163 
L 35.791302 65.424104 
L 35.328352 65.660044 
L 34.865402 65.895985 
L 34.402451 66.131926 
L 33.939501 66.367866 
L 33.476551 66.603807 
L 33.0136 66.839748 
L 32.55065 67.075688 
L 32.0877 67.311629 
L 31.62475 67.54757 
L 31.161799 67.78351 
L 30.698849 68.019451 
L 30.235899 68.255391 
L 29.772949 68.491332 
L 29.309998 68.727273 
L 28.838062 68.484601 
L 28.366125 68.24193 
L 27.894188 67.999258 
L 27.422251 67.756587 
L 26.950315 67.513915 
L 26.478378 67.271243 
L 26.006441 67.028572 
L 25.534504 66.7859 
L 25.035608 66.686104 
L 24.536712 66.586307 
L 24.037815 66.48651 
L 23.538919 66.386713 
L 23.040023 66.286916 
L 22.541126 66.187119 
L 22.04223 66.087322 
L 21.543334 65.987525 
L 21.044438 65.887729 
L 20.545541 65.787932 
L 20.046645 65.688135 
L 19.547749 65.588338 
L 19.048852 65.488541 
L 18.549956 65.388744 
L 18.05106 65.288947 
L 17.552163 65.18915 
" style="fill:none;stroke:#008000;stroke-linecap:square;stroke-width:0.4;"/>
   </g>
   <g id="line2d_45">
    <path clip-path="url(#pda1035d376)" d="M 34.89439 62.064575 
L 35.350093 62.786487 
L 35.805796 63.508399 
L 36.261499 64.230311 
L 36.717203 64.952223 
" style="fill:none;stroke:#008000;stroke-linecap:square;stroke-width:0.4;"/>
   </g>
  </g>
 </g>
 <defs>
  <clipPath id="pda1035d376">
   <rect height="72" width="62.016318" x="0" y="0"/>
  </clipPath>
 </defs>
</svg>
