<?xml version="1.0" encoding="utf-8" standalone="no"?>
<!DOCTYPE svg PUBLIC "-//W3C//DTD SVG 1.1//EN"
  "http://www.w3.org/Graphics/SVG/1.1/DTD/svg11.dtd">
<svg height="99.772722pt" version="1.1" viewBox="0 0 72 99.772722" width="72pt" xmlns="http://www.w3.org/2000/svg" xmlns:xlink="http://www.w3.org/1999/xlink">
 <metadata>
  <rdf:RDF xmlns:cc="http://creativecommons.org/ns#" xmlns:dc="http://purl.org/dc/elements/1.1/" xmlns:rdf="http://www.w3.org/1999/02/22-rdf-syntax-ns#">
   <cc:Work>
    <dc:type rdf:resource="http://purl.org/dc/dcmitype/StillImage"/>
    <dc:date>2022-05-18T23:30:29.558373</dc:date>
    <dc:format>image/svg+xml</dc:format>
    <dc:creator>
     <cc:Agent>
      <dc:title>Matplotlib v3.4.3, https://matplotlib.org/</dc:title>
     </cc:Agent>
    </dc:creator>
   </cc:Work>
  </rdf:RDF>
 </metadata>
 <defs>
  <style type="text/css">*{stroke-linecap:butt;stroke-linejoin:round;}</style>
 </defs>
 <g id="figure_1">
  <g id="patch_1">
   <path d="M 0 99.772722 
L 72 99.772722 
L 72 0 
L 0 0 
z
" style="fill:#ffffff;"/>
  </g>
  <g id="axes_1">
   <g id="line2d_1">
    <path clip-path="url(#p853e9f292f)" d="M 14.430042 92.35337 
L 15.03756 91.483246 
L 15.645077 90.613123 
L 16.237356 89.765162 
L 16.829635 88.917201 
L 17.744892 87.606651 
L 18.66015 86.296102 
L 19.661156 84.862782 
L 20.662161 83.429462 
L 21.590611 82.099916 
L 22.51906 80.770371 
L 23.362898 79.561837 
L 24.206737 78.353303 
L 24.974834 77.253645 
L 25.742931 76.153986 
L 26.532409 75.023196 
L 27.321887 73.892405 
L 28.411598 72.332269 
L 29.501309 70.772133 
L 30.47866 69.372407 
L 31.456011 67.972682 
L 32.521385 66.447372 
L 33.586759 64.922062 
L 34.483138 63.638424 
L 35.379517 62.354785 
L 36.000569 61.46549 
L 36.62162 60.576195 
L 37.242671 59.6869 
L 37.863722 58.797605 
L 38.581098 57.770589 
L 39.298475 56.743572 
L 40.179387 55.482096 
L 41.060299 54.22062 
L 41.778813 53.191669 
L 42.497326 52.162717 
L 43.346851 50.946445 
L 44.196375 49.730172 
L 45.045899 48.513899 
L 45.895424 47.297626 
L 46.857308 45.920414 
L 47.819193 44.543203 
L 48.781987 43.164409 
L 49.744781 41.785614 
L 50.592259 40.572156 
L 51.439736 39.358697 
L 52.12163 38.382513 
L 52.803524 37.406328 
L 53.481324 36.435772 
L 53.980803 35.720607 
" style="fill:none;stroke:#808080;stroke-linecap:square;stroke-width:0.4;"/>
   </g>
   <g id="line2d_2">
    <path clip-path="url(#p853e9f292f)" d="M 3.272727 40.487905 
L 4.698154 40.314478 
L 6.123581 40.141051 
L 7.847194 39.931743 
L 9.570808 39.722435 
L 11.225049 39.52157 
L 12.87929 39.320705 
L 14.852643 39.081144 
L 16.825996 38.841583 
L 18.674252 38.617149 
L 20.522507 38.392714 
L 22.037322 38.20891 
L 23.552137 38.025106 
L 25.389475 37.801903 
L 27.226813 37.578699 
L 29.020481 37.360949 
L 30.814148 37.143198 
L 32.470664 36.942157 
L 34.12718 36.741116 
L 35.296726 36.599085 
L 36.466272 36.457055 
L 37.635818 36.315024 
L 38.805364 36.172994 
L 40.576969 35.957882 
L 42.348574 35.742769 
L 43.457619 35.608126 
L 44.566663 35.473483 
L 45.675707 35.33884 
L 46.784752 35.204197 
L 48.654388 34.9773 
L 50.524024 34.750403 
L 51.588602 34.621125 
L 52.65318 34.491846 
L 53.717758 34.362568 
L 54.782336 34.233289 
L 56.380169 34.03946 
L 57.978003 33.84563 
L 59.092961 33.710371 
L 60.207919 33.575112 
" style="fill:none;stroke:#808080;stroke-linecap:square;stroke-width:0.4;"/>
   </g>
   <g id="line2d_3">
    <path clip-path="url(#p853e9f292f)" d="M 15.49678 95.237599 
L 16.133071 94.245452 
L 16.769361 93.253306 
L 17.405651 92.26116 
L 18.041942 91.269014 
L 18.678232 90.276867 
L 19.314522 89.284721 
L 19.950813 88.292575 
L 20.587103 87.300428 
" style="fill:none;stroke:#808080;stroke-linecap:square;stroke-width:0.4;"/>
   </g>
   <g id="line2d_4">
    <path clip-path="url(#p853e9f292f)" d="M 12.781487 89.8765 
L 13.239854 88.294312 
L 13.698222 86.712123 
L 14.15659 85.129935 
L 14.614958 83.547747 
L 15.073326 81.965559 
L 15.531694 80.383371 
L 15.990062 78.801183 
L 16.44843 77.218995 
L 16.906797 75.636807 
L 17.365165 74.054618 
L 17.823533 72.47243 
L 18.281901 70.890242 
L 18.740269 69.308054 
L 19.198637 67.725866 
L 19.657005 66.143678 
L 20.115373 64.56149 
L 20.501582 63.290911 
L 20.887792 62.020332 
L 21.274001 60.749754 
L 21.66021 59.479175 
L 22.04642 58.208596 
L 22.432629 56.938018 
L 22.818839 55.667439 
L 23.205048 54.39686 
L 23.753429 52.59303 
L 24.30181 50.7892 
L 24.850192 48.985369 
L 25.398573 47.181539 
" style="fill:none;stroke:#808080;stroke-linecap:square;stroke-width:0.4;"/>
   </g>
   <g id="line2d_5">
    <path clip-path="url(#p853e9f292f)" d="M 68.727273 4.535124 
L 68.312319 6.359643 
L 67.897366 8.184162 
L 67.482412 10.008682 
L 67.067459 11.833201 
L 66.652506 13.65772 
L 66.237552 15.482239 
L 65.822599 17.306759 
L 65.407645 19.131278 
L 64.992692 20.955797 
L 64.577738 22.780317 
L 64.162785 24.604836 
L 63.747832 26.429355 
L 63.332878 28.253875 
L 62.917925 30.078394 
L 62.502971 31.902913 
L 62.088018 33.727432 
" style="fill:none;stroke:#808080;stroke-linecap:square;stroke-width:0.4;"/>
   </g>
   <g id="line2d_6">
    <path clip-path="url(#p853e9f292f)" d="M 20.654883 64.372937 
L 20.691161 64.749427 
L 20.72744 65.125918 
L 20.763718 65.502408 
L 20.799996 65.878899 
L 20.845031 66.349226 
L 20.890066 66.819554 
L 20.925662 67.189184 
L 20.961258 67.558815 
L 20.996854 67.928446 
L 21.032449 68.298077 
L 21.032449 68.864176 
L 21.032449 69.430275 
L 21.032449 69.996374 
L 21.032449 70.562473 
L 21.047006 70.984958 
L 21.061563 71.407444 
L 21.073163 71.74348 
L 21.084763 72.079516 
L 21.096363 72.415552 
L 21.107963 72.751588 
L 21.126841 73.355415 
L 21.145719 73.959243 
L 21.164598 74.56307 
L 21.183476 75.166897 
L 21.17307 75.701952 
L 21.162664 76.237006 
L 21.152259 76.772061 
L 21.141853 77.307115 
L 21.131447 77.84217 
L 21.121041 78.377224 
L 21.110635 78.912279 
L 21.100229 79.447333 
" style="fill:none;stroke:#008000;stroke-linecap:square;stroke-width:0.4;"/>
   </g>
   <g id="line2d_7">
    <path clip-path="url(#p853e9f292f)" d="M 52.958645 35.462754 
L 52.651588 35.85657 
L 52.344531 36.250385 
L 52.037474 36.644201 
L 51.730417 37.038016 
L 51.42336 37.431832 
L 51.116303 37.825648 
L 50.809246 38.219463 
L 50.502189 38.613279 
L 50.092211 39.002565 
L 49.682233 39.391852 
L 49.272255 39.781138 
L 48.862277 40.170425 
L 48.452299 40.559711 
L 48.042321 40.948998 
L 47.632343 41.338284 
L 47.222365 41.727571 
L 47.005378 42.067257 
L 46.788391 42.406942 
L 46.571404 42.746628 
L 46.354417 43.086314 
L 46.13743 43.426 
L 45.920443 43.765685 
L 45.703456 44.105371 
L 45.486469 44.445057 
L 45.278865 44.671514 
L 45.07126 44.897971 
L 44.863655 45.124428 
L 44.656051 45.350886 
L 44.448446 45.577343 
L 44.240841 45.8038 
L 44.033237 46.030257 
L 43.825632 46.256714 
L 43.588345 46.617639 
L 43.351058 46.978563 
L 43.113772 47.339487 
L 42.876485 47.700412 
L 42.639198 48.061336 
L 42.401911 48.422261 
L 42.164624 48.783185 
L 41.927337 49.144109 
L 41.590598 49.535638 
L 41.253859 49.927167 
L 40.91712 50.318696 
L 40.580381 50.710226 
L 40.485989 51.295233 
L 40.391598 51.88024 
L 40.297206 52.465247 
L 40.202814 53.050254 
L 39.882053 53.323893 
L 39.561293 53.597533 
L 39.240532 53.871172 
L 38.919771 54.144811 
L 38.59901 54.418451 
L 38.278249 54.69209 
L 37.957488 54.96573 
L 37.636728 55.239369 
L 37.202754 55.654467 
L 36.76878 56.069565 
L 36.334806 56.484664 
L 35.900832 56.899762 
L 35.617771 57.28663 
L 35.33471 57.673498 
L 35.051649 58.060366 
L 34.768588 58.447234 
L 34.485527 58.834102 
L 34.202466 59.22097 
L 33.919404 59.607838 
L 33.636343 59.994706 
L 33.452394 60.306074 
L 33.268444 60.617441 
L 33.084494 60.928809 
L 32.900544 61.240176 
L 32.716594 61.551544 
L 32.532644 61.862912 
L 32.348694 62.174279 
L 32.164744 62.485647 
L 31.980794 62.797015 
L 31.796845 63.108382 
L 31.612895 63.41975 
L 31.428945 63.731117 
L 31.244995 64.042485 
L 31.061045 64.353853 
L 30.877095 64.66522 
L 30.693145 64.976588 
L 30.400645 65.269091 
L 30.108145 65.561595 
L 29.815644 65.854098 
L 29.523144 66.146602 
L 29.230644 66.439105 
L 28.938144 66.731609 
L 28.645644 67.024113 
L 28.353143 67.316616 
L 28.126092 67.595576 
L 27.89904 67.874536 
L 27.671989 68.153496 
L 27.444937 68.432456 
L 27.217885 68.711416 
L 26.990834 68.990376 
L 26.763782 69.269336 
L 26.536731 69.548297 
L 26.309679 69.827257 
L 26.082627 70.106217 
L 25.855576 70.385177 
L 25.628524 70.664137 
L 25.401473 70.943097 
L 25.174421 71.222057 
L 24.947369 71.501017 
L 24.720318 71.779977 
" style="fill:none;stroke:#008000;stroke-linecap:square;stroke-width:0.4;"/>
   </g>
   <g id="line2d_8">
    <path clip-path="url(#p853e9f292f)" d="M 54.090889 51.691687 
L 53.783377 51.927554 
L 53.475865 52.163421 
L 53.249325 52.616335 
L 53.022785 53.06925 
L 52.893594 53.347594 
L 52.764403 53.625939 
L 52.635211 53.904283 
L 52.50602 54.182628 
L 52.188045 54.344709 
L 51.870071 54.506791 
L 51.552096 54.668873 
L 51.234121 54.830955 
L 51.002009 55.164176 
L 50.769897 55.497398 
L 50.537784 55.83062 
L 50.305672 56.163842 
L 49.912184 56.498823 
L 49.518696 56.833803 
L 49.125208 57.168784 
L 48.731721 57.503765 
L 48.615721 57.810428 
L 48.499722 58.11709 
L 48.383723 58.423753 
L 48.267723 58.730415 
L 48.122383 59.173832 
L 47.977043 59.617248 
L 47.878898 60.168308 
L 47.780754 60.719369 
L 47.682609 61.270429 
L 47.584465 61.82149 
" style="fill:none;stroke:#008000;stroke-linecap:square;stroke-width:0.4;"/>
   </g>
   <g id="line2d_9">
    <path clip-path="url(#p853e9f292f)" d="M 54.015376 36.29295 
L 53.554563 36.614827 
L 50.960272 40.188014 
L 47.195298 45.114139 
L 45.723927 47.078116 
L 44.778703 48.275921 
L 26.214093 75.216454 
L 24.792163 77.586669 
L 22.818839 81.448951 
L 22.818839 81.448951 
" style="fill:none;stroke:#008000;stroke-linecap:square;stroke-width:0.4;"/>
   </g>
   <g id="line2d_10">
    <path clip-path="url(#p853e9f292f)" d="M 60.657815 34.406012 
L 57.365709 35.118363 
L 54.996593 35.840212 
L 53.373626 38.331153 
L 51.933984 40.982329 
L 48.873422 46.218986 
L 47.486548 48.879748 
L 47.099713 49.549665 
L 35.24771 65.750236 
L 33.966799 67.544107 
L 30.919458 72.185225 
L 30.078292 73.385888 
L 28.417284 76.242634 
L 22.014065 82.253028 
L 16.38065 87.881566 
L 14.153008 91.641019 
L 14.153008 91.641019 
" style="fill:none;stroke:#008000;stroke-linecap:square;stroke-width:0.4;"/>
   </g>
   <g id="line2d_11">
    <path clip-path="url(#p853e9f292f)" d="M 19.900205 63.995479 
L 19.75731 64.412995 
L 19.614415 64.830512 
L 19.47152 65.248029 
L 19.328624 65.665545 
L 19.185729 66.083062 
L 19.042834 66.500579 
L 18.899939 66.918095 
L 18.757043 67.335612 
L 18.624952 67.713026 
L 18.492861 68.09044 
L 18.360769 68.467854 
L 18.228678 68.845268 
L 18.096586 69.222682 
L 17.964495 69.600096 
L 17.832404 69.97751 
L 17.700312 70.354924 
L 17.579082 70.824328 
L 17.457851 71.293732 
L 17.33662 71.763136 
L 17.21539 72.23254 
L 17.094159 72.701944 
L 16.972928 73.171348 
L 16.851698 73.640751 
L 16.730467 74.110155 
L 16.615833 74.442762 
L 16.501198 74.775368 
L 16.386563 75.107974 
L 16.271929 75.44058 
L 16.157294 75.773187 
L 16.042659 76.105793 
L 15.928025 76.438399 
L 15.81339 76.771005 
L 15.758234 77.155499 
L 15.703077 77.539992 
L 15.647921 77.924486 
L 15.592764 78.308979 
L 15.537608 78.693473 
L 15.482451 79.077966 
L 15.427294 79.46246 
L 15.372138 79.846953 
L 15.230607 80.309278 
L 15.089077 80.771602 
L 14.947546 81.233927 
L 14.806016 81.696251 
L 14.664485 82.158575 
L 14.522955 82.6209 
L 14.381424 83.083224 
L 14.239894 83.545549 
L 14.088981 83.998463 
L 13.938068 84.451377 
L 13.787155 84.904292 
L 13.636242 85.357206 
L 13.485329 85.81012 
L 13.334417 86.263035 
L 13.183504 86.715949 
L 13.032591 87.168863 
L 12.859957 87.701895 
L 12.687322 88.234927 
L 12.514688 88.767959 
L 12.342054 89.300991 
" style="fill:none;stroke:#008000;stroke-linecap:square;stroke-width:0.4;"/>
   </g>
   <g id="line2d_12">
    <path clip-path="url(#p853e9f292f)" d="M 56.581917 41.048287 
L 54.937229 42.600508 
L 53.551378 44.464053 
L 52.947272 45.671707 
L 52.203967 49.313842 
L 51.977427 50.672497 
L 51.977427 51.691687 
L 47.48632 56.18275 
L 46.119234 58.461481 
L 45.852208 58.881328 
L 43.514254 60.362622 
L 41.633927 62.207215 
L 40.53671 63.929344 
L 39.485893 65.618231 
L 37.863267 67.844987 
L 37.787754 69.052641 
L 35.091907 73.515387 
L 33.52296 74.812393 
L 30.315579 76.52564 
L 29.032308 77.28038 
L 26.100994 81.06925 
L 24.069812 84.340919 
L 24.069812 84.340919 
" style="fill:none;stroke:#008000;stroke-linecap:square;stroke-width:0.4;"/>
   </g>
   <g id="line2d_13">
    <path clip-path="url(#p853e9f292f)" d="M 59.978195 35.688947 
L 56.654474 42.5816 
L 56.015568 44.218688 
L 55.675758 45.199973 
L 55.298646 49.95531 
L 54.090889 51.691687 
L 54.090889 55.088456 
L 52.581078 57.579397 
L 49.543261 60.315616 
L 48.354609 61.051447 
L 46.656243 62.617652 
L 43.901145 64.750043 
L 42.995441 66.259875 
L 41.486085 67.090071 
L 40.372833 69.95847 
L 39.75019 71.090844 
L 37.910179 73.129002 
L 36.127372 75.7709 
L 33.042018 77.70502 
L 30.994743 78.676939 
L 30.315579 78.941125 
L 29.070292 80.262051 
L 27.598693 81.54525 
L 25.968846 83.182646 
L 20.504311 86.56486 
L 20.504311 86.56486 
" style="fill:none;stroke:#008000;stroke-linecap:square;stroke-width:0.4;"/>
   </g>
   <g id="line2d_14">
    <path clip-path="url(#p853e9f292f)" d="M 40.527157 43.43475 
L 39.987647 43.638078 
L 39.448136 43.841406 
L 38.992441 43.997067 
L 38.536746 44.152729 
L 38.08105 44.308391 
L 37.625355 44.464053 
L 37.062076 44.497032 
L 36.498797 44.530011 
L 35.935518 44.562991 
L 35.372239 44.59597 
L 34.921661 44.43081 
L 34.471084 44.26565 
L 34.020506 44.10049 
L 33.569928 43.93533 
L 33.108205 43.765773 
L 32.768566 43.803502 
L 32.428927 43.84123 
L 32.089288 43.878958 
L 31.749649 43.916686 
L 31.41001 43.954414 
L 31.07037 43.992143 
L 30.730731 44.029871 
L 30.391092 44.067599 
L 29.841119 44.185533 
L 29.291146 44.303466 
L 28.741172 44.4214 
L 28.191199 44.539333 
L 27.662834 44.746971 
L 27.134468 44.954608 
L 26.606103 45.162245 
L 26.077737 45.369882 
L 25.794676 45.652887 
L 25.511615 45.935893 
L 25.228554 46.218898 
L 24.945493 46.501904 
L 24.643667 46.634084 
L 24.341842 46.766265 
L 24.040016 46.898446 
L 23.73819 47.030626 
L 23.44751 47.313456 
" style="fill:none;stroke:#008000;stroke-linecap:square;stroke-width:0.4;"/>
   </g>
   <g id="line2d_15">
    <path clip-path="url(#p853e9f292f)" d="M 52.581078 35.840212 
L 48.199261 38.866559 
L 46.975639 39.682685 
L 44.038411 41.108177 
L 40.855595 43.147347 
L 38.599124 45.256521 
L 36.926914 48.232432 
L 34.474211 53.050386 
L 31.800199 56.993159 
L 28.117392 65.155907 
L 25.233615 70.870543 
L 23.1541 74.711124 
L 20.522138 80.550905 
L 16.200737 85.925328 
L 14.541947 88.149973 
L 13.697654 91.090486 
L 13.697654 91.090486 
" style="fill:none;stroke:#008000;stroke-linecap:square;stroke-width:0.4;"/>
   </g>
   <g id="line2d_16">
    <path clip-path="url(#p853e9f292f)" d="M 20.504311 86.56486 
L 20.353285 86.791405 
L 20.032467 87.112227 
L 19.711649 87.433049 
L 19.390832 87.75387 
L 19.070014 88.074692 
L 18.768188 88.357698 
L 18.466363 88.640703 
L 18.164537 88.923709 
L 17.862711 89.206714 
L 17.617407 89.565264 
L 17.372103 89.923814 
L 17.126798 90.282364 
L 16.881494 90.640914 
L 16.541911 90.980643 
L 16.202329 91.320373 
L 15.862747 91.660103 
L 15.523164 91.999833 
L 15.315617 92.282838 
L 15.108069 92.565844 
L 14.900521 92.848849 
L 14.692973 93.131855 
" style="fill:none;stroke:#008000;stroke-linecap:square;stroke-width:0.4;"/>
   </g>
   <g id="line2d_17">
    <path clip-path="url(#p853e9f292f)" d="M 35.372239 44.59597 
L 35.372239 44.973428 
L 35.372239 45.350886 
L 35.06757 45.714185 
L 34.762901 46.077483 
L 34.458233 46.440782 
L 34.153564 46.804081 
L 33.81944 47.285314 
L 33.485317 47.766546 
L 33.391039 48.200552 
L 33.296761 48.634559 
L 33.202483 49.068565 
L 33.108205 49.502571 
L 33.026324 49.74565 
L 32.878481 50.190297 
L 32.730639 50.634945 
L 32.3533 50.993495 
L 31.975961 51.352045 
L 31.598622 51.710595 
L 31.221283 52.069144 
L 30.768431 52.446427 
L 30.315579 52.823709 
L 30.210383 53.165769 
L 30.105188 53.507829 
L 29.999992 53.849889 
L 29.894797 54.19195 
L 29.789602 54.53401 
L 29.684406 54.87607 
L 29.579211 55.21813 
L 29.474015 55.560191 
L 29.285346 55.918741 
L 29.096676 56.27729 
L 28.908007 56.63584 
L 28.719337 56.99439 
L 28.627789 57.423647 
L 28.53624 57.852905 
L 28.444692 58.282162 
L 28.353143 58.711419 
L 28.221109 59.032241 
L 28.089074 59.353063 
L 27.95704 59.673884 
L 27.825005 59.994706 
L 27.598579 60.353256 
L 27.372153 60.711806 
L 27.145727 61.070356 
L 26.919301 61.428905 
L 26.636297 61.862956 
L 26.353292 62.297006 
L 26.070288 62.731056 
L 25.787284 63.165106 
L 25.50428 63.599157 
L 25.221276 64.033207 
L 24.938271 64.467257 
L 24.655267 64.901307 
L 24.221293 65.316406 
L 23.787319 65.731504 
L 23.353346 66.146602 
L 22.919372 66.5617 
L 22.746737 66.924999 
L 22.574103 67.288298 
L 22.401469 67.651597 
L 22.228835 68.014896 
L 22.082926 68.438964 
L 21.937017 68.863033 
L 21.791108 69.287101 
L 21.645199 69.71117 
L 21.49929 70.135238 
L 21.353381 70.559307 
L 21.207472 70.983375 
L 21.061563 71.407444 
" style="fill:none;stroke:#008000;stroke-linecap:square;stroke-width:0.4;"/>
   </g>
   <g id="line2d_18">
    <path clip-path="url(#p853e9f292f)" d="M 19.44758 63.844214 
L 18.994728 64.127308 
L 18.541876 64.410401 
L 18.089024 64.693494 
L 17.636172 64.976588 
L 17.319164 65.420708 
L 17.002156 65.864828 
L 16.685148 66.308948 
L 16.36814 66.753067 
L 16.051132 67.197187 
L 15.734124 67.641307 
L 15.417116 68.085427 
L 15.100108 68.529547 
L 14.882211 68.83489 
L 14.664315 69.140234 
L 14.446418 69.445577 
L 14.228521 69.750921 
L 14.05873 70.02456 
L 13.888939 70.2982 
L 13.719148 70.571839 
L 13.549357 70.845478 
L 13.379565 71.119118 
L 13.209774 71.392757 
L 13.039983 71.666397 
L 12.870192 71.940036 
L 12.814979 72.305666 
L 12.759765 72.671295 
L 12.704552 73.036924 
L 12.649338 73.402554 
L 12.594125 73.768183 
L 12.538912 74.133813 
L 12.483698 74.499442 
L 12.428485 74.865071 
L 12.419102 75.214167 
L 12.40972 75.563263 
L 12.400338 75.912359 
L 12.390956 76.261455 
L 12.381573 76.61055 
L 12.372191 76.959646 
L 12.362809 77.308742 
L 12.353426 77.657838 
L 12.296791 78.261665 
L 12.240156 78.865492 
L 12.183522 79.469319 
L 12.126887 80.073147 
L 12.126887 80.497743 
L 12.126887 80.922339 
L 12.126887 81.346935 
L 12.126887 81.771531 
L 12.126887 82.196128 
L 12.126887 82.620724 
L 12.126887 83.04532 
L 12.126887 83.469916 
L 11.994852 84.017195 
L 11.862818 84.564474 
L 11.730783 85.111753 
L 11.598749 85.659032 
L 11.636448 86.074218 
L 11.674148 86.489404 
L 11.711848 86.90459 
L 11.749548 87.319776 
L 11.787247 87.734962 
L 11.824947 88.150149 
L 11.862647 88.565335 
L 11.900347 88.980521 
" style="fill:none;stroke:#008000;stroke-linecap:square;stroke-width:0.4;"/>
   </g>
   <g id="line2d_19">
    <path clip-path="url(#p853e9f292f)" d="M 23.44751 47.313456 
L 23.081543 47.679657 
L 22.715577 48.045858 
L 22.407951 48.3534 
L 22.100326 48.660942 
L 21.7927 48.968484 
L 21.485074 49.276026 
L 21.277526 49.653484 
L 21.069979 50.030942 
L 20.862431 50.4084 
L 20.654883 50.785858 
L 20.579484 51.1255 
L 20.504084 51.465141 
L 20.428684 51.804783 
L 20.353285 52.144425 
L 20.287211 52.512429 
L 20.221137 52.880433 
L 20.155063 53.248437 
L 20.088988 53.616441 
L 20.022914 53.984445 
L 19.95684 54.352448 
L 19.890766 54.720452 
L 19.824692 55.088456 
L 19.636022 55.616827 
L 19.447353 56.145198 
L 19.258684 56.673569 
L 19.070014 57.201939 
L 18.900223 57.711402 
L 18.730432 58.220865 
L 18.560641 58.730327 
L 18.390849 59.23979 
L 18.258815 59.711612 
L 18.12678 60.183435 
L 17.994746 60.655257 
L 17.862711 61.12708 
L 17.636285 61.598814 
L 17.409859 62.070549 
L 17.183433 62.542283 
L 16.957007 63.014018 
L 16.840951 63.358738 
L 16.724895 63.703459 
L 16.608838 64.048179 
L 16.492782 64.3929 
L 16.376726 64.737621 
L 16.26067 65.082341 
L 16.144614 65.427062 
L 16.028558 65.771782 
L 15.912501 66.116503 
L 15.796445 66.461224 
L 15.680389 66.805944 
L 15.564333 67.150665 
L 15.448277 67.495385 
L 15.332221 67.840106 
L 15.216164 68.184826 
L 15.100108 68.529547 
" style="fill:none;stroke:#008000;stroke-linecap:square;stroke-width:0.4;"/>
   </g>
   <g id="line2d_20">
    <path clip-path="url(#p853e9f292f)" d="M 26.077737 45.369882 
L 25.986189 45.893503 
L 25.89464 46.417125 
L 25.803092 46.940747 
L 25.711543 47.464369 
L 25.541752 47.955011 
L 25.371961 48.445654 
L 25.20217 48.936296 
L 25.032379 49.426939 
L 24.918171 49.737559 
L 24.803962 50.048179 
L 24.689754 50.358799 
L 24.575546 50.669419 
L 24.461338 50.980039 
L 24.34713 51.290659 
L 24.232922 51.60128 
L 24.118714 51.9119 
L 24.004505 52.22252 
L 23.890297 52.53314 
L 23.776089 52.84376 
L 23.661881 53.15438 
L 23.547673 53.465 
L 23.433465 53.77562 
L 23.319257 54.08624 
L 23.205048 54.39686 
L 23.016948 54.740416 
L 22.828847 55.083971 
L 22.640746 55.427526 
L 22.452645 55.771082 
L 22.264544 56.114637 
L 22.076443 56.458192 
L 21.888342 56.801748 
L 21.700242 57.145303 
L 21.569572 57.586389 
L 21.438902 58.027475 
L 21.308232 58.46856 
L 21.177562 58.909646 
L 21.046893 59.350732 
L 20.916223 59.791818 
L 20.785553 60.232904 
L 20.654883 60.673989 
L 20.560548 61.089176 
L 20.466214 61.504362 
L 20.371879 61.919548 
L 20.277544 62.334734 
L 20.183209 62.74992 
L 20.088875 63.165106 
L 19.99454 63.580293 
L 19.900205 63.995479 
" style="fill:none;stroke:#008000;stroke-linecap:square;stroke-width:0.4;"/>
   </g>
   <g id="line2d_21">
    <path clip-path="url(#p853e9f292f)" d="M 54.38157 31.027887 
L 53.821134 31.018565 
L 53.260698 31.009243 
L 52.675697 30.990335 
L 52.090697 30.971427 
L 51.505696 30.952519 
L 50.920696 30.93361 
L 50.524422 30.8487 
L 50.128148 30.76379 
L 49.731874 30.678879 
L 49.335599 30.593969 
L 48.939325 30.509058 
L 48.543051 30.424148 
L 48.146777 30.339237 
L 47.750503 30.254327 
L 47.344846 30.169416 
L 46.93919 30.084506 
L 46.533534 29.999596 
L 46.127877 29.914685 
L 45.722221 29.829775 
L 45.316564 29.744864 
L 44.910908 29.659954 
L 44.505252 29.575043 
L 44.184462 29.475974 
L 43.863673 29.376904 
L 43.542884 29.277835 
L 43.222094 29.178765 
L 42.901305 29.079696 
L 42.580516 28.980626 
L 42.259727 28.881557 
L 41.938937 28.782487 
L 41.618148 28.683418 
L 41.297359 28.584348 
L 40.97657 28.485279 
L 40.65578 28.386209 
L 40.334991 28.28714 
L 40.014202 28.18807 
L 39.693412 28.089001 
L 39.372623 27.989931 
L 38.768858 27.895567 
L 38.165093 27.801202 
L 37.561328 27.706838 
L 36.957563 27.612473 
L 36.55185 27.593565 
L 36.146136 27.574657 
L 35.740423 27.555749 
L 35.33471 27.536841 
L 34.928997 27.517933 
L 34.523283 27.499025 
L 34.11757 27.480117 
L 33.711857 27.461208 
L 33.296761 27.649937 
L 32.881666 27.838666 
L 32.46657 28.027395 
L 32.051474 28.216124 
L 31.672714 28.341138 
L 31.293953 28.466151 
L 30.915193 28.591164 
L 30.536432 28.716177 
L 30.157672 28.84119 
L 29.778911 28.966203 
L 29.400151 29.091216 
L 29.02139 29.21623 
L 28.514746 29.211569 
L 28.008102 29.206907 
L 27.501458 29.202246 
L 26.994814 29.197585 
L 26.409927 29.197585 
L 25.825041 29.197585 
L 25.240154 29.197585 
L 24.655267 29.197585 
L 24.070267 29.065493 
L 23.485266 28.9334 
L 22.900266 28.801307 
L 22.315265 28.669215 
L 21.821927 28.919241 
L 21.328589 29.169267 
L 20.835251 29.419294 
L 20.341912 29.66932 
L 19.832425 29.442863 
L 19.322938 29.216405 
L 18.813451 28.989948 
L 18.303964 28.763491 
L 17.929468 28.645558 
L 17.554972 28.527624 
L 17.180476 28.40969 
L 16.80598 28.291757 
L 16.409763 28.291757 
L 16.013546 28.291757 
L 15.617329 28.291757 
L 15.221111 28.291757 
L 14.654989 28.518126 
L 14.088867 28.744495 
L 13.730406 28.782223 
L 13.371946 28.819952 
L 13.013485 28.85768 
L 12.655025 28.895408 
L 12.296564 28.914316 
L 11.938103 28.933224 
L 11.579643 28.952132 
L 11.221182 28.97104 
L 10.897635 29.088974 
L 10.574088 29.206907 
L 10.250541 29.324841 
L 9.926994 29.442775 
L 9.328801 29.471093 
L 8.730609 29.499411 
L 8.447661 29.768345 
L 8.164714 30.03728 
L 7.881767 30.306214 
L 7.598819 30.575149 
" style="fill:none;stroke:#008000;stroke-linecap:square;stroke-width:0.4;"/>
   </g>
   <g id="line2d_22">
    <path clip-path="url(#p853e9f292f)" d="M 44.268249 32.216545 
L 43.799134 32.405362 
L 43.330019 32.594179 
L 42.860904 32.782996 
L 42.39179 32.971813 
L 41.938937 33.19827 
L 41.486085 33.424727 
L 41.033233 33.651185 
L 40.580381 33.877642 
L 40.221806 34.104011 
L 39.863232 34.33038 
L 39.504658 34.556749 
L 39.146083 34.783119 
L 38.598953 34.783119 
L 38.051823 34.783119 
L 37.504693 34.783119 
L 36.957563 34.783119 
L 36.58011 34.72657 
L 36.202658 34.670022 
L 35.825205 34.613474 
L 35.447752 34.556925 
L 35.013778 34.556925 
L 34.579804 34.556925 
L 34.145831 34.556925 
L 33.711857 34.556925 
L 33.447674 34.273832 
L 33.183491 33.990738 
L 32.919308 33.707645 
L 32.655126 33.424551 
L 32.399017 33.238197 
L 32.142909 33.051843 
L 31.886801 32.865488 
L 31.630693 32.679134 
L 31.374584 32.492779 
L 31.118476 32.306425 
L 30.862368 32.12007 
L 30.606259 31.933716 
L 30.288285 31.815782 
L 29.97031 31.697848 
L 29.652336 31.579915 
L 29.334361 31.461981 
L 28.878666 31.410094 
L 28.42297 31.358207 
L 27.967275 31.306319 
L 27.51158 31.254432 
L 26.92112 31.332439 
L 26.330661 31.410446 
L 25.740202 31.488453 
L 25.149743 31.566459 
" style="fill:none;stroke:#4169e1;stroke-linecap:square;stroke-width:0.4;"/>
   </g>
   <g id="line2d_23">
    <path clip-path="url(#p853e9f292f)" d="M 29.560901 32.820548 
L 29.126927 32.877185 
L 28.692953 32.933821 
L 28.258979 32.990457 
L 27.825005 33.047094 
L 27.579701 33.311279 
L 27.334396 33.575464 
L 27.089092 33.83965 
L 26.843788 34.103835 
L 26.353179 34.405749 
L 25.86257 34.707662 
L 25.371961 35.009576 
L 24.881352 35.311489 
L 24.560591 35.330397 
L 24.23983 35.349306 
L 23.91907 35.368214 
L 23.598309 35.387122 
L 23.277548 35.40603 
L 22.956787 35.424938 
L 22.636026 35.443846 
L 22.315265 35.462754 
L 21.881348 35.481618 
L 21.447431 35.500482 
L 21.013514 35.519346 
L 20.579597 35.53821 
L 20.14568 35.557074 
L 19.711763 35.575939 
L 19.277846 35.594803 
L 18.843929 35.613667 
L 18.457094 35.632531 
L 18.070259 35.651395 
L 17.683424 35.670259 
L 17.296589 35.689123 
L 16.909754 35.707987 
L 16.522919 35.726851 
L 16.136084 35.745716 
L 15.749249 35.76458 
L 15.417685 35.880183 
L 15.08612 35.995786 
L 14.754555 36.111389 
L 14.422991 36.226992 
L 14.091426 36.342595 
L 13.759861 36.458198 
L 13.428297 36.573801 
L 13.096732 36.689404 
L 12.65474 36.762486 
L 12.212749 36.835568 
L 11.770757 36.90865 
L 11.328766 36.981732 
L 10.886774 37.054814 
L 10.444783 37.127896 
L 10.002791 37.200978 
L 9.5608 37.27406 
L 9.202339 37.27406 
L 8.843879 37.27406 
L 8.485418 37.27406 
L 8.126957 37.27406 
L 7.768497 37.27406 
L 7.410036 37.27406 
L 7.051575 37.27406 
L 6.693115 37.27406 
L 6.391175 37.179783 
L 6.089236 37.085507 
L 5.787297 36.99123 
L 5.485357 36.896953 
" style="fill:none;stroke:#4169e1;stroke-linecap:square;stroke-width:0.4;"/>
   </g>
   <g id="line2d_24">
    <path clip-path="url(#p853e9f292f)" d="M 50.618643 31.160156 
L 50.222426 31.405433 
L 49.826208 31.65071 
L 49.429991 31.895988 
L 49.033774 32.141265 
L 48.656378 32.160129 
L 48.278982 32.178993 
L 47.901586 32.197857 
L 47.524191 32.216721 
L 47.146795 32.235585 
L 46.769399 32.254449 
L 46.392003 32.273314 
L 46.014607 32.292178 
L 45.578018 32.27327 
L 45.141428 32.254361 
L 44.704839 32.235453 
L 44.268249 32.216545 
L 43.836891 32.197725 
L 43.405533 32.178905 
L 42.974174 32.160085 
L 42.542816 32.141265 
L 42.137103 32.084673 
L 41.73139 32.02808 
L 41.325676 31.971488 
L 40.919963 31.914896 
L 40.51425 31.858303 
L 40.108536 31.801711 
L 39.702823 31.745119 
L 39.29711 31.688526 
L 38.844258 31.556434 
L 38.391405 31.424341 
L 37.938553 31.292248 
L 37.485701 31.160156 
L 37.108305 31.103519 
L 36.730909 31.046883 
L 36.353514 30.990247 
L 35.976118 30.93361 
L 35.598722 30.876974 
L 35.221326 30.820338 
L 34.84393 30.763702 
L 34.466535 30.707065 
L 33.938397 31.009067 
L 33.410258 31.311068 
L 33.029963 31.485638 
L 32.649667 31.660208 
L 32.269371 31.834778 
L 31.889075 32.009348 
L 31.598054 32.110748 
L 31.307032 32.212148 
L 31.01601 32.313548 
L 30.724988 32.414948 
L 30.433966 32.516348 
L 30.142945 32.617748 
L 29.851923 32.719148 
L 29.560901 32.820548 
L 29.211823 32.716774 
L 28.862744 32.612999 
L 28.513666 32.509225 
L 28.164588 32.40545 
L 27.815509 32.301676 
L 27.466431 32.197901 
L 27.117353 32.094127 
L 26.768274 31.990352 
L 26.363641 31.884379 
L 25.959009 31.778406 
L 25.554376 31.672432 
L 25.149743 31.566459 
L 24.761941 31.464883 
L 24.374139 31.363307 
L 23.986338 31.261732 
L 23.598536 31.160156 
L 23.032528 31.028063 
L 22.466519 30.89597 
L 21.900511 30.763878 
L 21.334503 30.631785 
L 20.985424 30.622331 
L 20.636346 30.612877 
L 20.287268 30.603423 
L 19.938189 30.593969 
L 19.589111 30.584515 
L 19.240033 30.575061 
L 18.890954 30.565607 
L 18.541876 30.556153 
L 18.221115 30.575017 
L 17.900354 30.593881 
L 17.579593 30.612745 
L 17.258833 30.631609 
L 16.938072 30.650473 
L 16.617311 30.669337 
L 16.29655 30.688201 
L 15.975789 30.707065 
L 15.520094 30.881635 
L 15.064399 31.056205 
L 14.608703 31.230775 
L 14.153008 31.405345 
L 13.775669 31.518574 
L 13.39833 31.631802 
L 13.020991 31.745031 
L 12.643652 31.858259 
L 12.266313 31.971488 
L 11.888974 32.084716 
L 11.511635 32.197945 
L 11.134296 32.311174 
L 10.606045 32.499903 
L 10.077793 32.688632 
L 9.549541 32.877361 
L 9.021289 33.06609 
L 8.710081 33.198182 
L 8.398873 33.330275 
L 8.087665 33.462368 
L 7.776457 33.59446 
L 7.465249 33.726553 
L 7.154042 33.858646 
L 6.842834 33.990738 
L 6.531626 34.122831 
" style="fill:none;stroke:#008000;stroke-linecap:square;stroke-width:0.4;"/>
   </g>
   <g id="line2d_25">
    <path clip-path="url(#p853e9f292f)" d="M 33.569928 43.93533 
L 33.410258 44.369776 
L 33.145962 44.898147 
L 32.881666 45.426518 
L 32.598604 45.76616 
L 32.315543 46.105802 
L 32.032482 46.445443 
L 31.749421 46.785085 
L 31.587648 47.051645 
L 31.425874 47.318205 
L 31.264101 47.584765 
L 31.102327 47.851325 
L 30.940554 48.117885 
L 30.77878 48.384444 
L 30.617006 48.651004 
L 30.455233 48.917564 
L 30.145333 49.236011 
L 29.835433 49.554458 
L 29.525532 49.872906 
L 29.215632 50.191353 
L 28.905732 50.5098 
L 28.595832 50.828247 
L 28.285932 51.146694 
L 27.976032 51.465141 
L 27.749606 52.01242 
L 27.52318 52.559699 
L 27.296754 53.106978 
L 27.070327 53.654257 
L 26.975993 53.965624 
L 26.881658 54.276992 
L 26.787323 54.58836 
L 26.692988 54.899727 
L 26.598654 55.211095 
L 26.504319 55.522463 
L 26.409984 55.83383 
L 26.31565 56.145198 
L 26.211876 56.447111 
L 26.108102 56.749025 
L 26.004328 57.050939 
L 25.900554 57.352852 
L 25.79678 57.654766 
L 25.693006 57.956679 
L 25.589232 58.258593 
L 25.485458 58.560506 
L 25.315554 58.975693 
L 25.145649 59.390879 
L 24.975744 59.806065 
L 24.805839 60.221251 
L 24.595448 60.660006 
L 24.385057 61.098762 
L 24.174666 61.537517 
L 23.964275 61.976272 
L 23.832241 62.278186 
L 23.700206 62.580099 
L 23.568172 62.882013 
L 23.436137 63.183927 
L 23.099398 63.556635 
L 22.762659 63.929344 
L 22.42592 64.302053 
L 22.08918 64.674762 
L 21.939291 64.942861 
L 21.789402 65.21096 
L 21.639513 65.479059 
L 21.489623 65.747158 
L 21.339734 66.015257 
L 21.189845 66.283356 
L 21.039955 66.551455 
L 20.890066 66.819554 
" style="fill:none;stroke:#008000;stroke-linecap:square;stroke-width:0.4;"/>
   </g>
   <g id="line2d_26">
    <path clip-path="url(#p853e9f292f)" d="M 32.881666 45.426518 
L 32.3533 45.690703 
L 31.824935 45.954889 
L 31.428717 46.162438 
L 31.0325 46.369987 
L 30.636283 46.577536 
L 30.240066 46.785085 
L 29.938126 46.954906 
L 29.636187 47.124727 
L 29.334247 47.294548 
L 29.032308 47.464369 
L 28.614483 47.714395 
L 28.196658 47.964421 
L 27.778833 48.214448 
L 27.361008 48.464474 
L 27.08079 48.68627 
L 26.800572 48.908066 
L 26.520354 49.129862 
L 26.240136 49.351658 
L 26.051467 49.596936 
L 25.862797 49.842213 
L 25.674128 50.08749 
L 25.485458 50.332768 
L 25.315554 50.634681 
L 25.145649 50.936595 
L 24.975744 51.238508 
L 24.805839 51.540422 
L 24.711561 51.898972 
L 24.617283 52.257522 
L 24.523005 52.616072 
L 24.428727 52.974621 
L 24.272015 53.47485 
L 24.115302 53.975078 
L 24.155902 54.366608 
L 24.196501 54.758137 
L 24.237101 55.149666 
L 24.277701 55.541195 
L 24.183309 55.975201 
L 24.088918 56.409207 
L 23.994526 56.843214 
L 23.900134 57.27722 
L 23.692587 57.824499 
L 23.485039 58.371777 
L 23.277491 58.919056 
L 23.069943 59.466335 
L 22.916187 59.999455 
L 22.762431 60.532575 
L 22.608675 61.065694 
L 22.454919 61.598814 
L 22.196537 62.117687 
L 21.938154 62.63656 
L 21.795884 63.041852 
L 21.653614 63.447144 
L 21.511345 63.852437 
L 21.369075 64.257729 
L 21.226805 64.663022 
L 21.084535 65.068314 
L 20.942266 65.473606 
L 20.799996 65.878899 
L 20.630944 66.360527 
L 20.461892 66.842155 
L 20.29284 67.323784 
L 20.123788 67.805412 
L 19.954736 68.28704 
L 19.785684 68.768668 
L 19.616632 69.250297 
L 19.44758 69.731925 
L 19.258911 70.222567 
L 19.070242 70.71321 
L 18.881572 71.203852 
L 18.692903 71.694495 
L 18.560754 72.185138 
L 18.428606 72.67578 
L 18.296458 73.166423 
L 18.16431 73.657065 
L 18.145431 74.185524 
L 18.126553 74.713983 
L 18.107675 75.242441 
L 18.088796 75.7709 
L 18.003901 76.091678 
L 17.919005 76.412455 
L 17.83411 76.733233 
L 17.749214 77.054011 
L 17.664318 77.374788 
L 17.579423 77.695566 
L 17.494527 78.016344 
L 17.409632 78.337122 
L 17.294997 78.905595 
L 17.180363 79.474068 
L 17.065728 80.042542 
L 16.951093 80.611015 
L 16.836459 81.179489 
L 16.721824 81.747962 
L 16.607189 82.316436 
L 16.492555 82.884909 
L 16.406181 83.331887 
L 16.319807 83.778865 
L 16.233433 84.225844 
L 16.147059 84.672822 
L 16.060685 85.1198 
L 15.974311 85.566778 
L 15.887937 86.013756 
L 15.801563 86.460734 
" style="fill:none;stroke:#008000;stroke-linecap:square;stroke-width:0.4;"/>
   </g>
   <g id="line2d_27">
    <path clip-path="url(#p853e9f292f)" d="M 59.827624 32.669636 
L 57.767726 32.410199 
L 56.344005 32.084629 
L 53.406038 30.376922 
L 51.902141 29.461771 
L 49.796412 28.297385 
L 47.146852 26.404467 
L 38.542432 23.913526 
L 36.353457 23.687333 
L 33.768378 24.611806 
L 30.617404 25.272445 
L 29.051414 25.423358 
L 27.522952 25.423358 
L 25.63603 26.027361 
L 23.768214 25.687543 
L 22.692832 25.347725 
L 21.334503 25.800816 
L 20.277772 25.800816 
L 18.22845 24.989264 
L 16.881494 25.574271 
L 13.40993 25.253449 
L 9.636313 24.668442 
L 8.579582 25.196813 
L 8.040072 26.423463 
L 7.881653 28.329309 
L 7.598819 30.188193 
L 7.523306 31.537614 
L 7.29688 32.424534 
L 5.485357 36.896953 
L 4.127028 38.179888 
L 3.436491 39.708716 
L 3.436491 39.708716 
" style="fill:none;stroke:#008000;stroke-linecap:square;stroke-width:0.4;"/>
   </g>
   <g id="line2d_28">
    <path clip-path="url(#p853e9f292f)" d="M 41.993753 42.363234 
L 41.486085 42.256293 
L 41.089811 42.199657 
L 40.693537 42.143021 
L 40.297263 42.086385 
L 39.900989 42.029748 
L 39.504715 41.973112 
L 39.10844 41.916476 
L 38.712166 41.859839 
L 38.315892 41.803203 
L 37.871342 41.828839 
L 37.426792 41.854475 
L 36.982241 41.880111 
L 36.537691 41.905746 
L 36.093141 41.931382 
L 35.64859 41.957018 
L 35.20404 41.982654 
L 34.75949 42.00829 
L 34.391021 42.029748 
L 34.050017 42.126443 
L 33.709014 42.223138 
L 33.36801 42.319833 
L 33.027006 42.416528 
L 32.686002 42.513223 
L 32.344998 42.609918 
L 32.003994 42.706613 
L 31.66299 42.803308 
L 31.144519 42.911216 
L 30.626048 43.019124 
L 30.107576 43.127032 
L 29.589105 43.23494 
L 29.223593 43.311012 
L 28.858082 43.387084 
L 28.49257 43.463156 
L 28.127058 43.539228 
L 27.655328 43.539228 
L 27.183597 43.539228 
L 26.711867 43.539228 
L 26.240136 43.539228 
L 25.768406 43.539228 
L 25.296675 43.539228 
L 24.824945 43.539228 
L 24.353214 43.539228 
L 24.008884 43.515637 
L 23.664553 43.492046 
L 23.320223 43.468455 
L 22.975893 43.444864 
L 22.631563 43.421273 
L 22.287232 43.397681 
L 21.942902 43.37409 
L 21.598572 43.350499 
L 21.254241 43.326908 
L 20.909911 43.303317 
L 20.565581 43.279726 
L 20.22125 43.256135 
L 19.87692 43.232544 
L 19.53259 43.208953 
L 19.188259 43.185361 
L 18.843929 43.16177 
L 18.342516 42.966006 
L 17.841104 42.770241 
L 17.339691 42.574477 
L 16.838278 42.378712 
L 16.336866 42.182948 
L 15.835453 41.987183 
L 15.33404 41.791419 
L 14.832627 41.595654 
L 14.456653 41.442323 
L 14.080679 41.288991 
L 13.704705 41.13566 
L 13.32873 40.982329 
L 12.952756 40.828998 
L 12.576782 40.675666 
L 12.200808 40.522335 
L 11.824833 40.369004 
L 11.381477 40.265229 
L 10.938121 40.161455 
L 10.494765 40.05768 
L 10.051409 39.953905 
L 9.608052 39.850131 
L 9.164696 39.746356 
L 8.72134 39.642582 
L 8.277984 39.538807 
L 7.781689 39.538807 
L 7.285394 39.538807 
L 6.854263 39.538807 
L 6.423132 39.538807 
L 5.992001 39.538807 
L 5.560871 39.538807 
L 5.029776 39.581284 
L 4.498681 39.623762 
L 3.967586 39.666239 
L 3.436491 39.708716 
" style="fill:none;stroke:#4169e1;stroke-linecap:square;stroke-width:0.4;"/>
   </g>
   <g id="line2d_29">
    <path clip-path="url(#p853e9f292f)" d="M 34.75949 42.00829 
L 34.459825 41.91929 
L 34.16016 41.83029 
L 33.860495 41.74129 
L 33.56083 41.65229 
L 33.23063 41.595676 
L 32.90043 41.539062 
L 32.57023 41.482447 
L 32.24003 41.425833 
L 31.90983 41.369219 
L 31.57963 41.312605 
L 31.24943 41.25599 
L 30.91923 41.199376 
L 30.58903 41.142762 
L 30.25883 41.086147 
L 29.92863 41.029533 
L 29.59843 40.972919 
L 29.26823 40.916304 
L 28.93803 40.85969 
L 28.60783 40.803076 
L 28.27763 40.746462 
L 27.712873 40.690793 
L 27.148115 40.635124 
L 26.583358 40.579455 
L 26.0186 40.523786 
L 25.631197 40.485574 
L 25.243793 40.447362 
L 24.85639 40.40915 
L 24.468986 40.370938 
L 24.081582 40.332727 
L 23.694179 40.294515 
L 23.306775 40.256303 
L 22.919372 40.218091 
L 22.579732 40.14259 
L 22.240093 40.06709 
L 21.900454 39.99159 
L 21.560815 39.916089 
L 21.221176 39.840589 
L 20.881537 39.765089 
L 20.541897 39.689588 
L 20.202258 39.614088 
L 19.673893 39.500903 
L 19.145527 39.387719 
L 18.617162 39.274534 
L 18.088796 39.161349 
L 17.513349 39.066985 
L 16.937901 38.97262 
L 16.362454 38.878256 
L 15.787006 38.783891 
L 15.211558 38.689527 
L 14.636111 38.595162 
L 14.060663 38.500798 
L 13.485216 38.406433 
L 13.117316 38.415887 
L 12.749416 38.425342 
L 12.381516 38.434796 
L 12.013617 38.44425 
L 11.645717 38.453704 
L 11.277817 38.463158 
L 10.909917 38.472612 
L 10.542018 38.482066 
L 10.13494 38.614158 
L 9.727862 38.746251 
L 9.320784 38.878344 
L 8.913706 39.010436 
L 8.506628 39.142529 
L 8.09955 39.274622 
L 7.692472 39.406715 
L 7.285394 39.538807 
" style="fill:none;stroke:#4169e1;stroke-linecap:square;stroke-width:0.4;"/>
   </g>
   <g id="line2d_30">
    <path clip-path="url(#p853e9f292f)" d="M 26.077737 45.369882 
L 25.778641 45.516133 
L 25.479545 45.662385 
L 25.180448 45.808637 
L 24.881352 45.954889 
L 24.520048 46.148279 
L 24.158745 46.341669 
L 23.797441 46.535059 
L 23.436137 46.728449 
L 23.050781 46.726118 
L 22.665424 46.723788 
L 22.280068 46.721457 
L 21.894711 46.719127 
L 21.509354 46.716796 
L 21.123998 46.714466 
L 20.738641 46.712135 
L 20.353285 46.709805 
L 19.853294 46.558804 
L 19.353303 46.407803 
L 18.853311 46.256802 
L 18.35332 46.105802 
L 17.853329 45.954801 
L 17.353338 45.8038 
L 16.853347 45.652799 
L 16.353356 45.501798 
L 16.023156 45.407478 
L 15.692956 45.313157 
L 15.362756 45.218837 
L 15.032556 45.124516 
L 14.702356 45.030196 
L 14.372156 44.935875 
L 14.041956 44.841555 
L 13.711756 44.747234 
L 13.455647 44.57029 
L 13.199539 44.393346 
L 12.943431 44.216401 
L 12.687322 44.039457 
L 12.431214 43.862512 
L 12.175106 43.685568 
L 11.918998 43.508624 
L 11.662889 43.331679 
L 11.277476 43.112301 
L 10.892063 42.892924 
L 10.506649 42.673546 
L 10.121236 42.454169 
L 9.735822 42.234791 
L 9.350409 42.015413 
L 8.964996 41.796036 
L 8.579582 41.576658 
L 8.070209 41.576658 
L 7.560835 41.576658 
L 7.051462 41.576658 
L 6.542088 41.576658 
L 6.168104 41.541612 
L 5.79412 41.506566 
L 5.420136 41.47152 
L 5.046152 41.436474 
L 4.672168 41.401429 
L 4.298184 41.366383 
L 3.9242 41.331337 
L 3.550216 41.296291 
" style="fill:none;stroke:#000000;stroke-linecap:square;stroke-width:0.4;"/>
   </g>
   <g id="line2d_31">
    <path clip-path="url(#p853e9f292f)" d="M 22.715577 48.045858 
L 22.326865 48.019299 
L 21.938154 47.992739 
L 21.598515 48.039922 
L 21.258876 48.087104 
L 20.919236 48.134286 
L 20.579597 48.181468 
L 20.239958 48.228651 
L 19.900319 48.275833 
L 19.56068 48.323015 
L 19.221041 48.370197 
L 18.914439 48.337174 
L 18.607836 48.304151 
L 18.301234 48.271128 
L 17.994632 48.238105 
L 17.68803 48.205082 
L 17.381428 48.172058 
L 17.074826 48.139035 
L 16.768224 48.106012 
L 16.461622 48.072989 
L 16.15502 48.039966 
L 15.848417 48.006942 
L 15.541815 47.973919 
L 15.235213 47.940896 
L 14.928611 47.907873 
L 14.622009 47.87485 
L 14.315407 47.841827 
L 13.881433 47.605959 
L 13.447459 47.370092 
L 13.013485 47.134225 
L 12.579511 46.898358 
L 12.145537 46.66249 
L 11.711564 46.426623 
L 11.27759 46.190756 
L 10.843616 45.954889 
L 10.485155 45.75675 
L 10.126694 45.558611 
L 9.768234 45.360472 
L 9.409773 45.162333 
L 9.051313 44.964194 
L 8.692852 44.766054 
L 8.334391 44.567915 
L 7.975931 44.369776 
L 7.598592 44.190501 
L 7.221253 44.011227 
L 6.843914 43.831952 
L 6.466575 43.652677 
L 6.089236 43.473402 
L 5.711897 43.294127 
L 5.334558 43.114852 
L 4.957219 42.935577 
L 4.661876 42.754235 
L 4.366533 42.572894 
L 4.071189 42.391552 
L 3.775846 42.21021 
L 3.512004 42.048392 
" style="fill:none;stroke:#ff0000;stroke-dasharray:1.48,0.64;stroke-dashoffset:0;stroke-width:0.4;"/>
   </g>
   <g id="line2d_32">
    <path clip-path="url(#p853e9f292f)" d="M 41.108519 15.686139 
L 40.655894 15.686139 
L 40.070894 15.742687 
L 39.485893 15.799236 
L 38.900893 15.855784 
L 38.315892 15.912332 
L 37.984271 16.046799 
L 37.652649 16.181267 
L 37.321027 16.315734 
L 36.989406 16.450201 
L 36.657784 16.584668 
L 36.326163 16.719135 
L 35.994541 16.853603 
L 35.66292 16.98807 
L 35.361037 17.091844 
L 35.059155 17.195619 
L 34.757272 17.299393 
L 34.45539 17.403168 
L 34.153507 17.506943 
L 33.851624 17.610717 
L 33.549742 17.714492 
L 33.247859 17.818266 
L 32.795007 17.969267 
L 32.342155 18.120268 
L 31.889303 18.271268 
L 31.436451 18.422269 
L 30.910928 18.662885 
L 30.385406 18.903502 
L 29.859883 19.144118 
L 29.334361 19.384734 
L 28.806109 19.64892 
L 28.277858 19.913105 
L 27.749606 20.17729 
L 27.221354 20.441476 
L 26.860164 20.673649 
L 26.498974 20.905823 
L 26.151203 21.129378 
L 25.803433 21.352933 
L 25.455662 21.576488 
L 25.107892 21.800043 
L 24.787188 22.177501 
L 24.466484 22.554959 
L 24.14578 22.932417 
L 23.825076 23.309875 
L 23.542015 23.819337 
L 23.258954 24.3288 
L 22.975893 24.838263 
L 22.692832 25.347725 
" style="fill:none;stroke:#008000;stroke-linecap:square;stroke-width:0.4;"/>
   </g>
   <g id="line2d_33">
    <path clip-path="url(#p853e9f292f)" d="M 29.589105 43.23494 
L 29.485388 42.784664 
L 29.258962 42.539299 
L 29.032535 42.293934 
L 28.806109 42.048568 
L 28.579683 41.803203 
L 28.259548 41.643276 
L 27.939412 41.483349 
L 27.619277 41.323422 
L 27.299142 41.163495 
L 26.979006 41.003567 
L 26.658871 40.84364 
L 26.338736 40.683713 
L 26.0186 40.523786 
" style="fill:none;stroke:#4169e1;stroke-linecap:square;stroke-width:0.4;"/>
   </g>
   <g id="line2d_34">
    <path clip-path="url(#p853e9f292f)" d="M 26.498974 20.905823 
L 25.916703 20.975475 
L 25.334432 21.045127 
L 24.76831 21.026307 
L 24.202188 21.007487 
L 23.636065 20.988667 
L 23.069943 20.969847 
L 22.654848 20.818846 
L 22.239752 20.667845 
L 21.824657 20.516844 
L 21.409561 20.365843 
L 20.994465 20.233751 
L 20.57937 20.101658 
L 20.164274 19.969565 
L 19.749179 19.837473 
L 19.164292 19.969565 
L 18.579405 20.101658 
L 17.994518 20.233751 
L 17.409632 20.365843 
L 17.079489 20.441344 
L 16.749345 20.516844 
L 16.419202 20.592345 
L 16.089059 20.667845 
L 15.758916 20.743345 
L 15.428773 20.818846 
L 15.09863 20.894346 
L 14.768487 20.969847 
L 14.419408 20.932118 
L 14.07033 20.89439 
L 13.721252 20.856662 
L 13.372173 20.818934 
L 13.023095 20.781205 
L 12.674017 20.743477 
L 12.324938 20.705749 
L 11.97586 20.668021 
L 11.466487 20.818934 
L 10.957113 20.969847 
L 10.44774 21.120759 
L 9.938366 21.271672 
L 9.776536 21.538232 
L 9.614705 21.804792 
L 9.452875 22.071352 
L 9.291045 22.337912 
L 9.129214 22.604472 
L 8.967384 22.871031 
L 8.805553 23.137591 
L 8.643723 23.404151 
L 8.627688 23.852317 
L 8.611652 24.300482 
L 8.595617 24.748647 
L 8.579582 25.196813 
" style="fill:none;stroke:#4169e1;stroke-dasharray:1.48,0.64;stroke-dashoffset:0;stroke-width:0.4;"/>
   </g>
   <g id="line2d_35">
    <path clip-path="url(#p853e9f292f)" d="M 44.429738 15.082136 
L 44.231573 14.846225 
L 44.033407 14.610313 
L 43.835242 14.374402 
L 43.637076 14.138491 
L 43.438911 13.90258 
L 43.240745 13.666669 
L 43.04258 13.430757 
L 42.844414 13.194846 
L 42.550549 12.942489 
L 42.256684 12.690132 
L 41.96282 12.437776 
L 41.668955 12.185419 
L 41.37509 11.933062 
L 41.081225 11.680705 
L 40.78736 11.428348 
L 40.493495 11.175991 
L 40.156642 10.850421 
L 39.819789 10.52485 
L 39.482936 10.199279 
L 39.146083 9.873709 
L 38.730988 9.590615 
L 38.315892 9.307522 
L 37.900797 9.024428 
L 37.485701 8.741335 
L 37.011127 8.859356 
L 36.536554 8.977378 
L 36.06198 9.0954 
L 35.587406 9.213421 
L 35.175154 9.548314 
L 34.762901 9.883207 
L 34.350649 10.2181 
L 33.938397 10.552992 
L 33.678251 10.724022 
L 33.418105 10.895053 
L 33.15796 11.066083 
L 32.897814 11.237113 
L 32.637669 11.408143 
L 32.377523 11.579173 
L 32.117378 11.750203 
L 31.857232 11.921233 
L 31.597087 12.092264 
L 31.336941 12.263294 
L 31.076796 12.434324 
L 30.81665 12.605354 
L 30.556505 12.776384 
L 30.296359 12.947414 
L 30.036214 13.118444 
L 29.776068 13.289474 
L 29.380533 13.533608 
L 28.984998 13.777743 
L 28.589464 14.021877 
L 28.193929 14.266011 
L 27.798394 14.510145 
L 27.402859 14.754279 
L 27.007324 14.998413 
L 26.611789 15.242547 
L 26.216254 15.486681 
L 25.820719 15.730815 
L 25.425184 15.974949 
L 25.029649 16.219083 
L 24.634114 16.463217 
L 24.23858 16.707351 
L 23.843045 16.951485 
L 23.44751 17.195619 
L 23.130758 17.272285 
L 22.814006 17.34895 
L 22.497254 17.425616 
L 22.180502 17.502281 
L 21.863749 17.578947 
L 21.546997 17.655613 
L 21.230245 17.732278 
L 20.913493 17.808944 
L 20.596741 17.88561 
L 20.279989 17.962275 
L 19.963237 18.038941 
L 19.646485 18.115607 
L 19.329733 18.192272 
L 19.012981 18.268938 
L 18.696229 18.345604 
L 18.379477 18.422269 
L 17.899786 18.419895 
L 17.420094 18.41752 
L 16.940403 18.415146 
L 16.460712 18.412771 
L 15.981021 18.410397 
L 15.501329 18.408022 
L 15.021638 18.405648 
L 14.541947 18.403273 
L 14.254223 18.582548 
L 13.966499 18.761823 
L 13.678775 18.941098 
L 13.391052 19.120373 
L 13.103328 19.299648 
L 12.815604 19.478923 
L 12.52788 19.658198 
L 12.240156 19.837473 
L 11.952433 20.016748 
L 11.664709 20.196023 
L 11.376985 20.375297 
L 11.089261 20.554572 
L 10.801538 20.733847 
L 10.513814 20.913122 
L 10.22609 21.092397 
L 9.938366 21.271672 
" style="fill:none;stroke:#000000;stroke-dasharray:1.48,0.64;stroke-dashoffset:0;stroke-width:0.4;"/>
   </g>
   <g id="line2d_36">
    <path clip-path="url(#p853e9f292f)" d="M 60.355762 33.122726 
L 60.233109 32.735858 
L 60.110457 32.34899 
L 59.987805 31.962122 
L 59.865153 31.575254 
L 59.7425 31.188386 
L 59.619848 30.801518 
L 59.497196 30.41465 
L 59.374544 30.027782 
L 59.100922 29.744732 
L 58.8273 29.461683 
L 58.553678 29.178633 
L 58.280056 28.895584 
L 58.006434 28.612534 
L 57.732812 28.329485 
L 57.45919 28.046435 
L 57.185569 27.763386 
L 56.921386 27.555793 
L 56.657203 27.3482 
L 56.39302 27.140607 
L 56.128838 26.933014 
L 55.864655 26.725421 
L 55.600472 26.517827 
L 55.336289 26.310234 
L 55.072107 26.102641 
L 54.673046 25.767661 
L 54.273986 25.43268 
L 53.874925 25.097699 
L 53.475865 24.762718 
L 53.098412 24.479713 
L 52.72096 24.196707 
L 52.343507 23.913702 
L 51.966054 23.630696 
L 51.599519 23.250908 
L 51.232984 22.871119 
L 50.866449 22.491331 
L 50.499914 22.111542 
L 50.133379 21.731754 
L 49.766844 21.351966 
L 49.400309 20.972177 
L 49.033774 20.592389 
L 48.731834 20.064018 
L 48.429895 19.535647 
L 48.127956 19.007276 
L 47.826016 18.478906 
L 47.590947 18.148366 
L 47.355878 17.817826 
L 47.120809 17.487287 
L 46.885739 17.156747 
L 46.65067 16.826208 
L 46.415601 16.495668 
L 46.180532 16.165129 
L 45.945463 15.834589 
L 45.340845 15.816033 
L 44.736227 15.797477 
L 44.131609 15.77892 
L 43.526991 15.760364 
L 42.922373 15.741808 
L 42.317755 15.723251 
L 41.713137 15.704695 
L 41.108519 15.686139 
" style="fill:none;stroke:#4169e1;stroke-linecap:square;stroke-width:0.4;"/>
   </g>
   <g id="line2d_37">
    <path clip-path="url(#p853e9f292f)" d="M 49.27578 27.925556 
L 49.139765 27.639648 
L 49.00375 27.35374 
L 48.867736 27.067833 
L 48.731721 26.781925 
L 48.588825 26.491796 
L 48.44593 26.201667 
L 48.303035 25.911538 
L 48.16014 25.621409 
L 48.017244 25.33128 
L 47.874349 25.041151 
L 47.731454 24.751022 
L 47.588559 24.460893 
L 47.176193 24.173138 
L 46.763826 23.885384 
L 46.35146 23.597629 
L 45.939094 23.309875 
L 45.674911 22.932417 
L 45.410729 22.554959 
L 45.146546 22.177501 
L 44.882363 21.800043 
L 44.429511 21.517037 
L 43.976659 21.234032 
L 43.523806 20.951026 
L 43.070954 20.668021 
L 42.655859 20.479292 
L 42.240763 20.290563 
L 41.825667 20.101834 
L 41.410572 19.913105 
L 40.995476 19.724376 
L 40.580381 19.535647 
L 40.165285 19.346918 
L 39.75019 19.158189 
L 39.239281 18.886924 
L 38.728372 18.615659 
L 38.217463 18.344394 
L 37.706555 18.073129 
L 37.195646 17.801865 
L 36.684737 17.5306 
L 36.173828 17.259335 
L 35.66292 16.98807 
" style="fill:none;stroke:#4169e1;stroke-linecap:square;stroke-width:0.4;"/>
   </g>
   <g id="line2d_38">
    <path clip-path="url(#p853e9f292f)" d="M 44.580765 40.293723 
L 44.22094 40.163345 
L 43.861114 40.032968 
L 43.501289 39.90259 
L 43.141464 39.772212 
L 42.781638 39.641834 
L 42.421813 39.511457 
L 42.061988 39.381079 
L 41.702162 39.250701 
L 41.303216 39.051507 
L 40.904269 38.852312 
L 40.505322 38.653118 
L 40.106376 38.453923 
L 39.598139 38.355997 
L 39.089903 38.258071 
L 38.581667 38.160145 
L 38.073431 38.062219 
L 37.565195 37.964292 
L 37.056958 37.866366 
L 36.548722 37.76844 
L 36.040486 37.670514 
L 35.719697 37.566717 
L 35.398907 37.46292 
L 35.078118 37.359124 
L 34.757329 37.255327 
L 34.43654 37.151531 
L 34.11575 37.047734 
L 33.794961 36.943938 
L 33.474172 36.840141 
L 33.153383 36.736345 
L 32.832593 36.632548 
L 32.511804 36.528752 
L 32.191015 36.424955 
L 31.870225 36.321159 
L 31.549436 36.217362 
L 31.228647 36.113566 
L 30.907858 36.009769 
L 30.494184 35.997984 
L 30.08051 35.9862 
L 29.666836 35.974415 
L 29.253162 35.962631 
L 28.839488 35.950846 
L 28.425814 35.939062 
L 28.012139 35.927277 
L 27.598465 35.915492 
L 27.258826 35.839992 
L 26.919187 35.764492 
L 26.579548 35.688991 
L 26.239909 35.613491 
L 25.90027 35.537991 
L 25.56063 35.46249 
L 25.220991 35.38699 
L 24.881352 35.311489 
" style="fill:none;stroke:#4169e1;stroke-linecap:square;stroke-width:0.4;"/>
   </g>
  </g>
 </g>
 <defs>
  <clipPath id="p853e9f292f">
   <rect height="99.772722" width="72" x="0" y="0"/>
  </clipPath>
 </defs>
</svg>
