<?xml version="1.0" encoding="utf-8" standalone="no"?>
<!DOCTYPE svg PUBLIC "-//W3C//DTD SVG 1.1//EN"
  "http://www.w3.org/Graphics/SVG/1.1/DTD/svg11.dtd">
<svg height="118.514929pt" version="1.1" viewBox="0 0 72 118.514929" width="72pt" xmlns="http://www.w3.org/2000/svg" xmlns:xlink="http://www.w3.org/1999/xlink">
 <metadata>
  <rdf:RDF xmlns:cc="http://creativecommons.org/ns#" xmlns:dc="http://purl.org/dc/elements/1.1/" xmlns:rdf="http://www.w3.org/1999/02/22-rdf-syntax-ns#">
   <cc:Work>
    <dc:type rdf:resource="http://purl.org/dc/dcmitype/StillImage"/>
    <dc:date>2022-05-22T19:33:44.836127</dc:date>
    <dc:format>image/svg+xml</dc:format>
    <dc:creator>
     <cc:Agent>
      <dc:title>Matplotlib v3.4.3, https://matplotlib.org/</dc:title>
     </cc:Agent>
    </dc:creator>
   </cc:Work>
  </rdf:RDF>
 </metadata>
 <defs>
  <style type="text/css">*{stroke-linecap:butt;stroke-linejoin:round;}</style>
 </defs>
 <g id="figure_1">
  <g id="patch_1">
   <path d="M 0 118.514929 
L 72 118.514929 
L 72 0 
L 0 0 
z
" style="fill:#ffffff;"/>
  </g>
  <g id="axes_1">
   <g id="line2d_1">
    <path clip-path="url(#p725cd67d46)" d="M 54.898421 99.997213 
L 54.461981 98.323138 
L 54.025541 96.649063 
L 53.624156 95.109066 
L 53.222772 93.56907 
L 52.821387 92.029074 
L 52.420003 90.489077 
L 51.953088 88.697738 
L 51.486174 86.906399 
L 51.130607 85.541943 
L 50.77504 84.177486 
L 50.419474 82.813029 
L 50.063907 81.448572 
L 49.7337 80.181894 
L 49.403492 78.915216 
L 49.073285 77.648538 
L 48.743078 76.38186 
L 48.326243 74.782876 
L 47.909409 73.183892 
L 47.575685 71.903513 
L 47.241962 70.623134 
L 46.908238 69.342754 
L 46.574515 68.062375 
L 46.27052 66.896145 
L 45.966525 65.729915 
L 45.662529 64.563685 
L 45.358534 63.397456 
L 45.077554 62.319485 
L 44.796575 61.241514 
L 44.515595 60.163543 
L 44.234615 59.085573 
L 43.880434 57.726543 
L 43.526252 56.367513 
L 43.17207 55.008484 
L 42.817889 53.649454 
L 42.404038 52.062036 
L 41.990186 50.474619 
L 41.5595 48.821896 
L 41.128813 47.169174 
L 40.870423 46.178128 
L 40.612032 45.187081 
L 40.353642 44.196035 
L 40.095251 43.204989 
L 39.719866 41.76464 
L 39.34448 40.324291 
L 38.969094 38.883942 
L 38.593709 37.443593 
L 38.257108 36.152448 
L 37.920508 34.861303 
L 37.583908 33.570158 
L 37.247307 32.279013 
L 36.889396 30.905837 
L 36.531485 29.532661 
L 36.173575 28.159485 
L 35.815664 26.786309 
L 35.458499 25.415803 
L 35.101334 24.045296 
L 34.804051 22.904689 
L 34.506769 21.764083 
L 34.036658 19.961 
L 33.566547 18.157917 
L 33.118066 16.437132 
L 32.669585 14.716347 
L 32.221104 12.995562 
L 31.772623 11.274777 
" style="fill:none;stroke:#808080;stroke-linecap:square;stroke-width:0.4;"/>
   </g>
   <g id="line2d_2">
    <path clip-path="url(#p725cd67d46)" d="M 67.219763 55.772654 
L 66.485828 54.850383 
L 65.751892 53.928111 
L 65.432233 53.525963 
L 64.48988 52.339803 
L 63.547527 51.153644 
L 62.675073 50.055744 
L 61.802618 48.957844 
L 61.09596 48.068847 
L 60.259946 47.0165 
L 59.423933 45.964153 
L 58.795697 45.173736 
L 58.167462 44.383319 
L 57.232781 43.207035 
L 56.298099 42.030752 
L 55.363418 40.854468 
L 54.428737 39.678185 
L 53.477859 38.481349 
L 52.409774 37.137355 
L 51.341688 35.793362 
L 50.250374 34.420186 
L 49.15906 33.04701 
L 48.184741 31.820814 
L 47.210422 30.594617 
L 46.09247 29.18781 
L 45.359813 28.265717 
L 44.627156 27.343623 
L 44.014264 26.572379 
L 43.401372 25.801135 
L 42.78848 25.029892 
L 42.175588 24.258648 
L 41.562697 23.487404 
L 40.949805 22.71616 
L 40.336913 21.944917 
L 39.724021 21.173673 
L 38.94235 20.190189 
L 38.160678 19.206705 
L 37.481937 18.352407 
L 36.803195 17.498109 
L 35.851465 16.300562 
L 34.899736 15.103014 
L 34.264255 14.303344 
L 33.628774 13.503674 
L 33.218332 12.986576 
" style="fill:none;stroke:#808080;stroke-linecap:square;stroke-width:0.4;"/>
   </g>
   <g id="line2d_3">
    <path clip-path="url(#p725cd67d46)" d="M 40.949379 37.80517 
L 41.272447 38.883497 
L 41.549484 39.806303 
L 41.826521 40.729108 
L 42.103559 41.651914 
L 42.380596 42.574719 
L 42.656142 43.492899 
L 42.931687 44.411078 
L 43.207233 45.329257 
L 43.482778 46.247436 
L 44.01469 48.020269 
L 44.546602 49.793102 
L 45.066793 51.526076 
L 45.586984 53.25905 
L 45.885225 54.252765 
L 46.183466 55.246481 
L 46.481708 56.240196 
L 46.779949 57.233911 
L 47.275206 58.883965 
L 47.770464 60.534018 
L 48.263377 62.176242 
L 48.756291 63.818466 
L 49.036631 64.752659 
L 49.316972 65.686853 
L 49.597312 66.621047 
L 49.877652 67.555241 
L 50.162575 68.504738 
L 50.447497 69.454235 
L 50.732419 70.403732 
L 51.017341 71.353228 
L 51.304608 72.310199 
L 51.591874 73.267169 
L 51.879141 74.22414 
L 52.166407 75.18111 
L 52.681697 76.897891 
L 53.196986 78.614673 
L 53.661343 80.162587 
L 54.1257 81.710502 
L 54.581107 83.227811 
L 55.036514 84.74512 
L 55.468053 86.182711 
L 55.899592 87.620301 
L 56.308755 88.984047 
L 56.717917 90.347792 
L 57.0461 91.43982 
L 57.374283 92.531848 
" style="fill:none;stroke:#808080;stroke-linecap:square;stroke-width:0.4;"/>
   </g>
   <g id="line2d_4">
    <path clip-path="url(#p725cd67d46)" d="M 40.733289 88.731369 
L 41.672233 89.363062 
L 42.642503 90.013795 
L 43.612773 90.664528 
L 44.756937 91.431812 
L 45.901101 92.199097 
L 46.973449 92.918159 
L 48.045796 93.637222 
L 49.135192 94.36785 
L 50.224588 95.098479 
L 51.170138 95.732485 
L 52.115688 96.366491 
L 53.453565 97.26225 
" style="fill:none;stroke:#808080;stroke-linecap:square;stroke-width:0.4;"/>
   </g>
   <g id="line2d_5">
    <path clip-path="url(#p725cd67d46)" d="M 48.278508 102.87631 
L 48.655705 102.123617 
L 48.992838 101.450285 
L 49.230664 100.976249 
L 49.73061 99.977996 
L 50.347764 98.746639 
L 50.730927 97.98149 
L 50.897576 97.649095 
L 51.151172 97.141961 
" style="fill:none;stroke:#808080;stroke-linecap:square;stroke-width:0.4;"/>
   </g>
   <g id="line2d_6">
    <path clip-path="url(#p725cd67d46)" d="M 26.410033 113.127886 
L 26.253613 111.700794 
L 26.097194 110.273702 
L 25.946528 108.895543 
L 25.795863 107.517385 
L 25.621755 105.927832 
L 25.447648 104.338279 
L 25.274819 102.760648 
L 25.101991 101.183017 
L 24.934703 99.654676 
L 24.767415 98.126335 
L 24.569226 96.316312 
L 24.371038 94.506289 
L 24.176899 92.7331 
L 23.98276 90.959911 
L 23.790538 89.204516 
L 23.598317 87.449122 
L 23.423997 85.855654 
L 23.249676 84.262186 
L 23.123305 83.108056 
L 22.996933 81.953926 
L 22.951328 81.535052 
" style="fill:none;stroke:#808080;stroke-linecap:square;stroke-width:0.4;"/>
   </g>
   <g id="line2d_7">
    <path clip-path="url(#p725cd67d46)" d="M 54.263793 96.020928 
L 54.065605 94.968581 
L 53.887235 94.020864 
L 53.708866 93.073147 
L 53.445467 91.673279 
L 53.182069 90.273412 
L 52.85346 88.527448 
L 52.638649 87.386664 
L 52.423839 86.24588 
L 52.286599 85.516319 
" style="fill:none;stroke:#808080;stroke-linecap:square;stroke-width:0.4;"/>
   </g>
   <g id="line2d_8">
    <path clip-path="url(#p725cd67d46)" d="M 25.272049 43.724579 
L 25.166988 42.61529 
L 25.061927 41.506002 
L 24.92149 40.024459 
L 24.781053 38.542917 
L 24.634224 36.994646 
L 24.487394 35.446375 
L 24.332679 33.814116 
L 24.177965 32.181857 
L 24.006414 30.372546 
L 23.834864 28.563235 
L 23.678232 26.910513 
L 23.521599 25.25779 
L 23.378605 23.749735 
L 23.235611 22.241679 
L 23.14355 21.26727 
" style="fill:none;stroke:#808080;stroke-linecap:square;stroke-width:0.4;"/>
   </g>
   <g id="line2d_9">
    <path clip-path="url(#p725cd67d46)" d="M 58.096711 85.838038 
L 58.398895 84.121256 
L 58.580461 83.088838 
L 58.762027 82.056421 
L 58.964903 80.903003 
L 59.16778 79.749585 
L 59.488291 77.926038 
L 59.761066 76.375277 
L 60.033841 74.824515 
L 60.318977 73.202754 
L 60.604112 71.580994 
L 60.886051 69.977917 
L 61.167989 68.37484 
L 61.365538 67.251317 
L 61.563087 66.127793 
L 61.823076 64.649097 
L 62.083065 63.170402 
L 62.295531 61.962 
L 62.507998 60.753598 
L 62.693186 59.701073 
L 62.878375 58.648548 
L 63.104693 57.36025 
L 63.331012 56.071952 
" style="fill:none;stroke:#808080;stroke-linecap:square;stroke-width:0.4;"/>
   </g>
   <g id="line2d_10">
    <path clip-path="url(#p725cd67d46)" d="M 22.129593 21.186485 
L 21.75197 21.48685 
L 21.374347 21.787216 
L 20.996724 22.087581 
L 20.6191 22.387947 
L 20.359697 22.55628 
L 20.100295 22.724612 
L 19.840892 22.892945 
L 19.581489 23.061278 
L 19.322086 23.229611 
L 19.062683 23.397944 
L 18.80328 23.566277 
L 18.543878 23.73461 
L 18.116175 23.816641 
L 17.688472 23.898672 
L 17.335835 23.91006 
L 16.983198 23.921448 
L 16.630562 23.932837 
L 16.277925 23.944225 
L 15.925289 23.955613 
L 15.572652 23.967001 
L 15.220016 23.97839 
L 14.867379 23.989778 
L 14.316821 23.9533 
L 13.766262 23.916822 
L 13.215704 23.880344 
L 12.665145 23.843866 
L 12.323857 23.757431 
L 11.982568 23.670995 
L 11.641279 23.58456 
L 11.299991 23.498125 
L 10.958702 23.41169 
L 10.617413 23.325255 
L 10.276125 23.238819 
L 9.934836 23.152384 
L 9.479642 23.188684 
L 9.024449 23.224985 
L 8.627646 23.385666 
L 8.230843 23.546347 
L 7.957375 23.657094 
L 7.683908 23.76784 
L 7.41044 23.878587 
L 7.136972 23.989333 
L 6.863504 24.100079 
L 6.590036 24.210826 
L 6.316568 24.321572 
L 6.043101 24.432319 
L 5.769633 24.543065 
L 5.496165 24.653812 
L 5.222697 24.764558 
L 4.949229 24.875305 
L 4.675762 24.986051 
L 4.402294 25.096798 
L 4.128826 25.207544 
L 3.855358 25.318291 
L 3.600484 25.600506 
L 3.345609 25.882722 
L 3.272727 26.356046 
L 3.291054 26.847165 
L 3.577681 27.284101 
L 3.864309 27.721037 
L 4.150936 28.157973 
L 4.437563 28.594909 
L 4.645234 28.893851 
L 4.852906 29.192793 
L 5.060577 29.491735 
L 5.268249 29.790677 
L 5.58844 30.251635 
L 5.908631 30.712593 
L 6.228822 31.173551 
L 6.549013 31.634509 
L 6.958602 32.016727 
L 7.368191 32.398946 
L 7.522906 32.681162 
L 7.677621 32.963377 
L 7.860945 33.27393 
L 8.044269 33.584483 
L 8.227593 33.895035 
L 8.410917 34.205588 
L 8.594242 34.516141 
L 8.777566 34.826694 
L 8.96089 35.137246 
L 9.144214 35.447799 
L 9.386835 35.762578 
L 9.629455 36.077357 
L 9.872076 36.392136 
L 10.114697 36.706914 
L 10.534302 36.90354 
L 10.953907 37.100165 
L 11.334301 37.086998 
L 11.714694 37.07383 
" style="fill:none;stroke:#4169e1;stroke-linecap:square;stroke-width:0.4;"/>
   </g>
   <g id="line2d_11">
    <path clip-path="url(#p725cd67d46)" d="M 34.233141 11.127797 
L 34.589773 10.81542 
L 34.946406 10.503044 
L 35.303038 10.190667 
L 35.65967 9.87829 
L 35.887214 9.635089 
L 36.114757 9.391887 
L 36.342301 9.148685 
L 36.569844 8.905483 
L 36.797388 8.662281 
L 37.024932 8.41908 
L 37.252475 8.175878 
L 37.480019 7.932676 
L 38.004791 7.723506 
L 38.529564 7.514335 
L 39.054337 7.305165 
L 39.579109 7.095994 
L 39.863392 7.012762 
L 40.147675 6.92953 
L 40.431958 6.846297 
L 40.716241 6.763065 
L 41.000524 6.679833 
L 41.284807 6.596601 
L 41.56909 6.513369 
L 41.853373 6.430136 
L 42.137656 6.346904 
L 42.421939 6.263672 
L 42.706221 6.18044 
L 42.990504 6.097207 
L 43.274787 6.013975 
L 43.55907 5.930743 
L 43.843353 5.847511 
L 44.127636 5.764279 
L 44.471535 5.717124 
L 44.815435 5.669969 
L 45.159334 5.622815 
L 45.503233 5.57566 
L 45.847132 5.528506 
L 46.191031 5.481351 
L 46.534931 5.434197 
L 46.87883 5.387042 
L 47.289378 5.570144 
L 47.699926 5.753246 
L 48.110474 5.936348 
L 48.521022 6.11945 
L 48.692998 6.507808 
L 48.864974 6.896166 
L 49.036951 7.284523 
L 49.208927 7.672881 
L 49.250429 8.021335 
L 49.291932 8.36979 
L 49.333434 8.718244 
L 49.374936 9.066698 
L 49.416439 9.415153 
L 49.457941 9.763607 
L 49.499443 10.112061 
L 49.540946 10.460516 
L 49.929331 10.871027 
L 50.317716 11.281539 
L 50.706101 11.69205 
L 51.094486 12.102561 
L 51.399546 12.418764 
L 51.704607 12.734966 
L 52.009668 13.051169 
L 52.314729 13.367371 
L 52.619789 13.683573 
L 52.92485 13.999776 
L 53.229911 14.315978 
L 53.534972 14.63218 
L 53.815205 14.948961 
L 54.095439 15.265742 
L 54.375673 15.582523 
L 54.655907 15.899303 
L 54.936141 16.216084 
L 55.216375 16.532865 
L 55.496609 16.849645 
L 55.776843 17.166426 
L 55.815841 17.556474 
L 55.85484 17.946522 
" style="fill:none;stroke:#000000;stroke-linecap:square;stroke-width:0.4;"/>
   </g>
   <g id="line2d_12">
    <path clip-path="url(#p725cd67d46)" d="M 12.790025 33.690447 
L 13.170206 33.979068 
L 13.550386 34.26769 
L 13.897961 34.405328 
L 14.245537 34.542965 
L 14.593112 34.680603 
L 14.940687 34.818241 
L 15.255231 35.185513 
L 15.622412 35.303488 
L 15.989593 35.421464 
L 16.172864 35.609726 
L 16.553258 36.000842 
L 16.933651 36.391958 
L 17.238552 36.598503 
L 17.543453 36.805049 
L 17.848354 37.011595 
L 18.153255 37.218141 
L 18.458156 37.424687 
L 18.763057 37.631232 
L 19.067958 37.837778 
L 19.372859 38.044324 
L 19.677759 38.25087 
L 19.98266 38.457416 
L 20.287561 38.663962 
L 20.592462 38.870507 
L 20.897363 39.077053 
L 21.202264 39.283599 
L 21.507165 39.490145 
L 21.812066 39.696691 
L 22.198852 39.860575 
L 22.585639 40.024459 
L 22.972426 40.188343 
L 23.359213 40.352228 
L 23.582121 40.56211 
L 23.80503 40.771992 
L 24.027938 40.981874 
L 24.250847 41.191757 
L 24.145999 41.532693 
L 24.041151 41.873629 
L 24.093575 42.26688 
L 24.303484 42.489841 
L 24.513393 42.712802 
" style="fill:none;stroke:#008000;stroke-linecap:square;stroke-width:0.4;"/>
   </g>
   <g id="line2d_13">
    <path clip-path="url(#p725cd67d46)" d="M 23.790112 21.413538 
L 24.111848 21.704784 
L 24.433585 21.99603 
L 24.755321 22.287276 
L 25.077057 22.578522 
L 25.398793 22.869768 
L 25.72053 23.161014 
L 26.042266 23.452261 
L 26.364002 23.743507 
L 26.552601 24.005637 
L 26.741199 24.267767 
L 26.929798 24.529898 
L 27.118396 24.792028 
L 27.306995 25.054158 
L 27.495593 25.316289 
L 27.684192 25.578419 
L 27.87279 25.840549 
L 28.061389 26.10268 
L 28.249987 26.36481 
L 28.438586 26.62694 
L 28.627184 26.889071 
L 28.815783 27.151201 
L 29.004381 27.413331 
L 29.19298 27.675462 
L 29.381578 27.937592 
L 29.523027 28.317631 
L 29.664476 28.69767 
L 29.805925 29.077709 
L 29.947374 29.457748 
L 30.088822 29.837787 
L 30.230271 30.217826 
L 30.37172 30.597865 
L 30.513169 30.977904 
L 30.521507 31.26915 
L 30.529845 31.560396 
L 30.538182 31.851642 
L 30.54652 32.142888 
L 30.554858 32.434134 
L 30.563196 32.72538 
L 30.571533 33.016626 
L 30.579871 33.307872 
L 30.588209 33.599118 
L 30.596547 33.890364 
L 30.604884 34.18161 
L 30.613222 34.472856 
L 30.62156 34.764103 
L 30.629898 35.055349 
L 30.638235 35.346595 
L 30.646573 35.637841 
L 30.488475 35.976264 
L 30.330378 36.314686 
L 30.17228 36.653109 
L 30.014182 36.991532 
L 29.856084 37.329955 
L 29.697987 37.668378 
L 29.539889 38.006801 
L 29.381791 38.345223 
L 29.223693 38.683646 
L 29.065596 39.022069 
L 28.907498 39.360492 
L 28.7494 39.698915 
L 28.591302 40.037338 
L 28.433205 40.375761 
L 28.275107 40.714183 
L 28.117009 41.052606 
L 27.871725 41.461071 
L 27.62644 41.869536 
L 27.381155 42.278002 
L 27.135871 42.686467 
" style="fill:none;stroke:#000000;stroke-linecap:square;stroke-width:0.4;"/>
   </g>
   <g id="line2d_14">
    <path clip-path="url(#p725cd67d46)" d="M 17.688472 23.898672 
L 17.271104 24.112513 
L 16.853737 24.326355 
L 16.436369 24.540196 
L 16.019002 24.754037 
L 15.601635 24.967879 
L 15.184267 25.18172 
L 14.7669 25.395562 
L 14.349532 25.609403 
L 14.091568 25.822978 
L 13.833604 26.036552 
L 13.575639 26.250127 
L 13.317675 26.463701 
L 13.05971 26.677276 
L 12.801746 26.89085 
L 12.543782 27.104425 
L 12.285817 27.317999 
L 12.144368 27.573168 
L 12.00292 27.828336 
L 11.861471 28.083504 
L 11.720022 28.338673 
L 11.578573 28.593841 
L 11.437124 28.849009 
L 11.295675 29.104178 
L 11.154226 29.359346 
L 11.198552 29.919685 
L 11.242878 30.480023 
L 11.287204 31.040361 
L 11.33153 31.6007 
L 11.45364 31.944661 
L 11.575749 32.288622 
L 11.697859 32.632584 
L 11.819968 32.976545 
L 12.062483 33.15502 
L 12.304997 33.333496 
L 12.547511 33.511971 
L 12.790025 33.690447 
" style="fill:none;stroke:#008000;stroke-linecap:square;stroke-width:0.4;"/>
   </g>
   <g id="line2d_15">
    <path clip-path="url(#p725cd67d46)" d="M 31.427392 100.063408 
L 31.452112 100.445137 
L 31.476833 100.826867 
L 31.501553 101.208596 
L 31.526273 101.590325 
L 31.550994 101.972055 
L 31.575714 102.353784 
L 31.600434 102.735514 
L 31.625154 103.117243 
L 31.778058 103.529178 
L 31.930961 103.941113 
L 32.083864 104.353048 
L 32.236767 104.764983 
L 32.578056 105.063035 
L 32.919345 105.361088 
L 33.260634 105.65914 
L 33.601922 105.957192 
L 34.033355 106.08273 
L 34.464787 106.208268 
L 34.896219 106.333806 
L 35.327652 106.459344 
L 35.698349 106.424067 
L 36.069046 106.38879 
L 36.439743 106.353513 
L 36.810441 106.318236 
L 37.181138 106.282959 
L 37.551835 106.247682 
L 37.922533 106.212405 
L 38.29323 106.177128 
L 38.71097 106.061377 
L 39.12871 105.945626 
L 39.546451 105.829875 
L 39.964191 105.714124 
L 40.381931 105.598373 
L 40.799672 105.482622 
L 41.217412 105.366871 
L 41.635152 105.25112 
L 42.050362 105.102694 
L 42.465572 104.954268 
L 42.880782 104.805843 
L 43.295991 104.657417 
L 43.711201 104.508992 
L 44.126411 104.360566 
L 44.54162 104.21214 
L 44.95683 104.063715 
L 45.37204 103.915289 
L 45.78725 103.766864 
L 46.202459 103.618438 
L 46.617669 103.470012 
L 47.032879 103.321587 
L 47.448088 103.173161 
L 47.863298 103.024736 
L 48.278508 102.87631 
" style="fill:none;stroke:#008000;stroke-linecap:square;stroke-width:0.4;"/>
   </g>
   <g id="line2d_16">
    <path clip-path="url(#p725cd67d46)" d="M 24.268321 90.062017 
L 24.60002 90.318164 
L 24.931719 90.574311 
L 25.263418 90.830458 
L 25.595117 91.086606 
L 25.805879 91.352895 
L 26.01664 91.619185 
L 26.227401 91.885475 
L 26.438163 92.151764 
L 26.648924 92.418054 
L 26.859686 92.684344 
L 27.070447 92.950634 
L 27.281209 93.216923 
L 27.506248 93.736113 
L 27.731288 94.255302 
L 27.956328 94.774491 
L 28.181367 95.293681 
L 28.406407 95.81287 
L 28.631446 96.33206 
L 28.856486 96.851249 
L 29.081525 97.370438 
L 29.306565 97.889628 
L 29.531604 98.408817 
L 29.756644 98.928006 
L 29.981684 99.447196 
L 30.206723 99.966385 
L 30.431763 100.485574 
L 30.656802 101.004764 
L 30.881842 101.523953 
" style="fill:none;stroke:#000000;stroke-linecap:square;stroke-width:0.4;"/>
   </g>
   <g id="line2d_17">
    <path clip-path="url(#p725cd67d46)" d="M 24.102525 83.199162 
L 24.540564 83.558649 
L 24.978602 83.918136 
L 25.416641 84.277622 
L 25.85468 84.637109 
L 26.292718 84.996596 
L 26.730757 85.356082 
L 27.168796 85.715569 
L 27.606834 86.075056 
L 27.88559 86.247037 
L 28.164345 86.419017 
L 28.443101 86.590998 
L 28.721856 86.762978 
L 29.000612 86.934959 
L 29.279367 87.10694 
L 29.558123 87.27892 
L 29.836878 87.450901 
L 30.115634 87.622882 
L 30.394389 87.794862 
L 30.673145 87.966843 
L 30.9519 88.138824 
L 31.230656 88.310804 
L 31.509411 88.482785 
L 31.788167 88.654765 
L 32.066922 88.826746 
L 32.345678 88.998727 
L 32.624433 89.170707 
L 32.903189 89.342688 
L 33.181944 89.514669 
L 33.4607 89.686649 
L 33.739455 89.85863 
L 34.018211 90.030611 
L 34.296966 90.202591 
L 34.575722 90.374572 
L 34.854477 90.546553 
L 35.133233 90.718533 
L 35.411988 90.890514 
L 35.690744 91.062494 
L 35.969499 91.234475 
L 36.248255 91.406456 
L 36.52701 91.578436 
" style="fill:none;stroke:#000000;stroke-linecap:square;stroke-width:0.4;"/>
   </g>
   <g id="line2d_18">
    <path clip-path="url(#p725cd67d46)" d="M 40.733289 88.731369 
L 40.439736 88.653965 
L 40.146183 88.57656 
L 39.85263 88.499155 
L 39.559077 88.421751 
L 39.12903 88.440346 
L 38.698983 88.458941 
L 38.268936 88.477536 
L 37.838889 88.49613 
L 37.674904 88.881419 
L 37.510919 89.266707 
L 37.346934 89.651995 
L 37.182949 90.037283 
L 37.018965 90.422572 
L 36.85498 90.80786 
L 36.690995 91.193148 
L 36.52701 91.578436 
L 36.327916 91.899844 
L 36.128822 92.221251 
L 35.929728 92.542658 
L 35.730634 92.864065 
L 35.531541 93.185472 
L 35.332447 93.506879 
L 35.133353 93.828287 
L 34.934259 94.149694 
L 34.735165 94.471101 
L 34.536071 94.792508 
L 34.336977 95.113915 
L 34.137883 95.435322 
L 33.938789 95.75673 
L 33.739695 96.078137 
L 33.540601 96.399544 
L 33.341507 96.720951 
L 33.102243 97.138758 
L 32.862978 97.556565 
L 32.623714 97.974372 
L 32.38445 98.392179 
L 32.145185 98.809986 
L 31.905921 99.227794 
L 31.666657 99.645601 
L 31.427392 100.063408 
L 31.291005 100.428544 
L 31.154617 100.79368 
L 31.018229 101.158817 
L 30.881842 101.523953 
L 30.775076 101.809994 
L 30.66831 102.096036 
L 30.561544 102.382077 
L 30.454778 102.668118 
L 30.372999 103.023512 
L 30.29122 103.378906 
L 30.20944 103.7343 
L 30.127661 104.089694 
L 30.045882 104.445088 
L 29.964102 104.800482 
L 29.882323 105.155876 
L 29.800544 105.51127 
L 29.723453 105.84629 
L 29.646362 106.18131 
L 29.569271 106.51633 
L 29.49218 106.851349 
L 29.415089 107.186369 
L 29.337998 107.521389 
L 29.260907 107.856408 
L 29.183816 108.191428 
L 29.115196 108.648427 
L 29.046576 109.105426 
L 28.977956 109.562424 
L 28.909336 110.019423 
L 28.840716 110.476422 
L 28.772096 110.933421 
L 28.703476 111.390419 
L 28.634856 111.847418 
L 28.415144 112.071002 
L 28.195432 112.294585 
L 27.97572 112.518169 
L 27.756008 112.741753 
L 27.269062 112.876099 
L 26.782115 113.010445 
L 26.410033 113.127886 
" style="fill:none;stroke:#4169e1;stroke-linecap:square;stroke-width:0.4;"/>
   </g>
   <g id="line2d_19">
    <path clip-path="url(#p725cd67d46)" d="M 43.606806 47.420427 
L 43.917967 47.618877 
L 44.229128 47.817326 
L 44.540289 48.015776 
L 44.851449 48.214225 
L 45.16261 48.412675 
L 45.473771 48.611124 
L 45.784932 48.809574 
L 46.096093 49.008023 
L 46.407254 49.206473 
L 46.718415 49.404922 
L 47.029576 49.603372 
L 47.340736 49.801821 
L 47.651897 50.00027 
L 47.963058 50.19872 
L 48.274219 50.397169 
L 48.58538 50.595619 
L 49.034713 50.900744 
L 49.484046 51.20587 
L 49.93338 51.510995 
L 50.382713 51.816121 
L 50.832046 52.121246 
L 51.281379 52.426372 
L 51.730713 52.731497 
L 52.180046 53.036623 
L 52.60711 53.297396 
L 53.034173 53.55817 
L 53.461237 53.818944 
L 53.888301 54.079717 
L 54.210037 54.176784 
L 54.531773 54.273851 
L 54.853509 54.370919 
L 55.175246 54.467986 
L 55.496982 54.565053 
L 55.818718 54.66212 
L 56.140454 54.759187 
L 56.462191 54.856255 
L 56.939228 54.92841 
L 57.416265 55.000565 
L 57.893302 55.072721 
L 58.370339 55.144876 
L 58.655048 55.098611 
L 58.939757 55.052346 
L 59.224466 55.006082 
L 59.509175 54.959817 
" style="fill:none;stroke:#ff0000;stroke-linecap:square;stroke-width:0.4;"/>
   </g>
   <g id="line2d_20">
    <path clip-path="url(#p725cd67d46)" d="M 40.733289 88.731369 
L 41.264349 88.814646 
L 41.795408 88.897923 
L 42.197485 89.052866 
L 42.599562 89.207808 
L 43.001639 89.362751 
L 43.403716 89.517694 
L 43.805793 89.672636 
L 44.20787 89.827579 
L 44.609947 89.982522 
L 45.012024 90.137465 
L 45.494442 90.384581 
L 45.97686 90.631698 
L 46.459278 90.878814 
L 46.941696 91.125931 
L 47.424114 91.373047 
L 47.906532 91.620164 
L 48.38895 91.86728 
L 48.871368 92.114397 
L 49.151815 92.290959 
L 49.432262 92.467522 
L 49.712709 92.644085 
L 49.993156 92.820647 
L 50.273603 92.99721 
L 50.55405 93.173773 
L 50.834497 93.350335 
L 51.114944 93.526898 
L 51.546376 93.852442 
L 51.977809 94.177986 
L 52.409241 94.503531 
L 52.840673 94.829075 
L 52.981962 95.166453 
L 53.123251 95.50383 
L 53.26454 95.841207 
L 53.40583 96.178585 
L 53.429697 96.720417 
L 53.453565 97.26225 
" style="fill:none;stroke:#000000;stroke-linecap:square;stroke-width:0.4;"/>
   </g>
   <g id="line2d_21">
    <path clip-path="url(#p725cd67d46)" d="M 40.733289 88.731369 
L 40.752256 89.246155 
L 40.771222 89.76094 
L 40.986992 90.212022 
L 41.202761 90.663104 
L 41.418531 91.114186 
L 41.6343 91.565269 
L 42.010858 91.884985 
L 42.387415 92.204702 
L 42.763973 92.524419 
L 43.140531 92.844136 
L 43.517088 93.163852 
L 43.893646 93.483569 
L 44.270204 93.803286 
L 44.646761 94.123002 
L 45.164502 94.336799 
L 45.682242 94.550596 
L 46.199982 94.764393 
L 46.717722 94.97819 
L 47.235462 95.191987 
L 47.753202 95.405784 
L 48.270943 95.619581 
L 48.788683 95.833378 
L 49.239721 96.02164 
L 49.690759 96.209903 
L 50.141797 96.398165 
L 50.592835 96.586427 
L 50.872003 96.864194 
L 51.151172 97.141961 
L 51.656445 97.335028 
L 52.161719 97.528095 
L 52.48468 97.461633 
L 52.807642 97.395172 
L 53.130604 97.328711 
L 53.453565 97.26225 
" style="fill:none;stroke:#000000;stroke-linecap:square;stroke-width:0.4;"/>
   </g>
   <g id="line2d_22">
    <path clip-path="url(#p725cd67d46)" d="M 35.472564 11.018185 
L 35.76569 10.707677 
L 36.058817 10.397168 
L 36.351944 10.08666 
L 36.645071 9.776152 
L 37.017686 9.583886 
L 37.390301 9.39162 
L 37.762916 9.199354 
L 38.135532 9.007088 
L 38.655296 9.009045 
L 39.175061 9.011003 
L 39.694826 9.01296 
L 40.21459 9.014917 
L 40.734355 9.016875 
L 41.25412 9.018832 
L 41.773884 9.020789 
L 42.293649 9.022747 
L 42.711443 9.091477 
L 43.129236 9.160207 
L 43.54703 9.228937 
L 43.964823 9.297667 
L 44.382617 9.366397 
L 44.800411 9.435127 
L 45.218204 9.503857 
L 45.635998 9.572587 
L 46.124116 9.683578 
L 46.612235 9.794569 
L 47.100353 9.90556 
L 47.588472 10.016551 
L 48.07659 10.127542 
L 48.564709 10.238533 
L 49.052827 10.349524 
L 49.540946 10.460516 
" style="fill:none;stroke:#4169e1;stroke-linecap:square;stroke-width:0.4;"/>
   </g>
   <g id="line2d_23">
    <path clip-path="url(#p725cd67d46)" d="M 25.856385 103.548574 
L 26.349404 103.793911 
L 26.842424 104.039248 
L 27.335444 104.284585 
L 27.828464 104.529922 
L 28.321484 104.775259 
L 28.814504 105.020596 
L 29.307524 105.265933 
L 29.800544 105.51127 
" style="fill:none;stroke:#4169e1;stroke-linecap:square;stroke-width:0.4;"/>
   </g>
   <g id="line2d_24">
    <path clip-path="url(#p725cd67d46)" d="M 37.419923 31.454432 
L 37.805165 31.579169 
L 38.190406 31.703906 
L 38.575648 31.828643 
L 38.96089 31.95338 
L 39.346132 32.078117 
L 39.731373 32.202854 
L 40.116615 32.327591 
L 40.501857 32.452329 
L 40.859022 32.592725 
L 41.216187 32.733121 
L 41.573352 32.873517 
L 41.930517 33.013913 
L 42.446233 33.155554 
L 42.961948 33.297196 
L 43.477664 33.438837 
L 43.99338 33.580479 
L 44.509095 33.72212 
L 45.024811 33.863762 
L 45.540526 34.005404 
L 46.056242 34.147045 
L 46.530349 34.360842 
L 47.004456 34.574639 
L 47.478562 34.788436 
L 47.952669 35.002233 
L 48.426776 35.21603 
L 48.900883 35.429827 
L 49.37499 35.643624 
L 49.849096 35.857421 
L 50.152133 35.979044 
L 50.455169 36.100667 
L 50.758205 36.22229 
L 51.061241 36.343913 
L 51.435774 36.469407 
L 51.810308 36.5949 
L 52.184841 36.720393 
L 52.559374 36.845887 
L 52.933907 36.97138 
L 53.30844 37.096874 
L 53.682973 37.222367 
L 54.057507 37.34786 
L 54.382652 37.400931 
L 54.707798 37.454003 
L 55.032944 37.507074 
L 55.35809 37.560145 
L 55.683236 37.613216 
L 56.008382 37.666287 
L 56.333528 37.719358 
L 56.658674 37.772429 
" style="fill:none;stroke:#ff0000;stroke-linecap:square;stroke-width:0.4;"/>
   </g>
   <g id="line2d_25">
    <path clip-path="url(#p725cd67d46)" d="M 33.218332 12.986576 
L 33.717212 13.132132 
L 34.216093 13.277688 
L 34.732021 13.133378 
L 35.24795 12.989067 
L 35.572404 12.900363 
L 35.896857 12.811659 
L 36.22131 12.722955 
L 36.545764 12.634251 
L 37.006178 12.667526 
L 37.466593 12.700801 
L 37.927008 12.734077 
L 38.387423 12.767352 
L 38.789606 12.872738 
L 39.19179 12.978124 
L 39.593973 13.083509 
L 39.996157 13.188895 
L 40.398341 13.294281 
L 40.800524 13.399667 
L 41.202708 13.505053 
L 41.604891 13.610439 
L 41.918317 13.743584 
L 42.231742 13.876729 
L 42.545167 14.009874 
L 42.858592 14.143019 
L 43.172017 14.276164 
L 43.485442 14.409309 
L 43.798867 14.542453 
L 44.112292 14.675598 
L 44.605952 14.653445 
L 45.099611 14.631291 
L 45.59327 14.609137 
L 46.086929 14.586983 
L 46.383679 14.586983 
L 46.680429 14.586983 
L 46.977178 14.586983 
L 47.273928 14.586983 
L 47.570677 14.586983 
L 47.867427 14.586983 
L 48.164177 14.586983 
L 48.460926 14.586983 
L 48.7662 14.674175 
L 49.071474 14.761366 
L 49.376748 14.848558 
L 49.682022 14.935749 
L 50.014786 15.030859 
L 50.34755 15.125969 
L 50.680315 15.221078 
L 51.013079 15.316188 
L 51.345844 15.411298 
L 51.678608 15.506408 
L 52.011373 15.601518 
L 52.344137 15.696628 
L 52.730658 15.975596 
L 53.117178 16.254564 
L 53.503698 16.533532 
L 53.890219 16.8125 
L 54.276739 17.091468 
L 54.663259 17.370436 
L 55.04978 17.649404 
L 55.4363 17.928372 
" style="fill:none;stroke:#4169e1;stroke-linecap:square;stroke-width:0.4;"/>
   </g>
   <g id="line2d_26">
    <path clip-path="url(#p725cd67d46)" d="M 33.742572 15.04892 
L 34.153653 15.270457 
L 34.564734 15.491995 
L 34.845234 15.664598 
L 35.125734 15.837202 
L 35.406234 16.009805 
L 35.686735 16.182408 
L 35.967235 16.355012 
L 36.247735 16.527615 
L 36.528236 16.700219 
L 36.808736 16.872822 
L 37.357696 16.78652 
L 37.906656 16.700219 
L 38.2342 16.655111 
L 38.561743 16.610002 
L 38.889286 16.564894 
L 39.21683 16.519786 
L 39.544373 16.474678 
L 39.871916 16.429569 
L 40.19946 16.384461 
L 40.527003 16.339353 
L 40.948686 16.407994 
L 41.370369 16.476635 
L 41.792052 16.545276 
L 42.213734 16.613917 
L 42.635417 16.682558 
L 43.0571 16.751199 
L 43.478783 16.81984 
L 43.900465 16.888481 
L 44.440369 17.031635 
L 44.980272 17.174789 
L 45.520175 17.317943 
L 46.060078 17.461097 
L 46.484425 17.602561 
L 46.908771 17.744025 
L 47.333118 17.885488 
L 47.757464 18.026952 
L 48.181811 18.168416 
L 48.606158 18.309879 
L 49.030504 18.451343 
L 49.454851 18.592807 
L 49.685058 18.803623 
L 49.915266 19.014439 
L 50.145473 19.225256 
L 50.37568 19.436072 
L 50.605888 19.646889 
L 50.836095 19.857705 
L 51.066302 20.068521 
L 51.29651 20.279338 
L 51.583137 20.474718 
L 51.869764 20.670098 
L 52.156391 20.865478 
L 52.443018 21.060858 
L 52.729645 21.256238 
L 53.016272 21.451618 
L 53.302899 21.646998 
L 53.589527 21.842378 
" style="fill:none;stroke:#4169e1;stroke-linecap:square;stroke-width:0.4;"/>
   </g>
   <g id="line2d_27">
    <path clip-path="url(#p725cd67d46)" d="M 22.951328 81.535052 
L 23.41462 81.301592 
L 23.847225 81.412628 
L 24.101886 81.616727 
L 24.356547 81.820826 
L 24.293042 82.16541 
L 24.229536 82.509994 
L 24.166031 82.854578 
L 24.102525 83.199162 
L 23.858306 83.515365 
L 23.614087 83.831567 
L 23.630922 84.128196 
L 23.647758 84.424825 
L 23.664593 84.721453 
L 23.681428 85.018082 
L 23.697944 85.309462 
L 23.71446 85.600841 
L 23.730975 85.892221 
L 23.747491 86.1836 
L 23.812595 86.668402 
L 23.877699 87.153205 
L 23.942802 87.638007 
L 24.007906 88.122809 
L 24.07301 88.607611 
L 24.138114 89.092413 
L 24.203218 89.577215 
L 24.268321 90.062017 
L 24.312674 90.39201 
L 24.357027 90.722003 
L 24.401379 91.051996 
L 24.445732 91.381989 
L 24.490084 91.711982 
L 24.534437 92.041974 
L 24.57879 92.371967 
L 24.623142 92.70196 
L 24.667495 93.031953 
L 24.711847 93.361946 
L 24.7562 93.691939 
L 24.800553 94.021932 
L 24.844905 94.351924 
L 24.889258 94.681917 
L 24.93361 95.01191 
L 24.977963 95.341903 
L 25.032864 95.85482 
L 25.087766 96.367737 
L 25.142667 96.880654 
L 25.197568 97.393571 
L 25.25247 97.906488 
L 25.307371 98.419404 
L 25.362272 98.932321 
L 25.417174 99.445238 
L 25.472075 99.958155 
L 25.526977 100.471072 
L 25.581878 100.983989 
L 25.636779 101.496906 
L 25.691681 102.009823 
L 25.746582 102.52274 
L 25.801483 103.035657 
L 25.856385 103.548574 
L 25.922101 104.090895 
L 25.987817 104.633217 
L 26.053534 105.175539 
L 26.11925 105.717861 
L 26.184967 106.260182 
L 26.250683 106.802504 
L 26.3164 107.344826 
L 26.382116 107.887148 
L 26.447833 108.42947 
L 26.513549 108.971791 
L 26.579266 109.514113 
L 26.644982 110.056435 
L 26.710698 110.598757 
L 26.776415 111.141078 
L 26.842131 111.6834 
L 26.907848 112.225722 
L 26.844982 112.618083 
L 26.782115 113.010445 
" style="fill:none;stroke:#000000;stroke-linecap:square;stroke-width:0.4;"/>
   </g>
   <g id="line2d_28">
    <path clip-path="url(#p725cd67d46)" d="M 22.473972 78.252028 
L 22.61313 78.57121 
L 22.752288 78.890393 
L 22.891446 79.209576 
L 23.030604 79.528759 
L 23.169762 79.847942 
L 23.30892 80.167125 
L 23.448078 80.486308 
L 23.587236 80.805491 
L 23.779564 81.059325 
L 23.971891 81.313158 
L 24.164219 81.566992 
L 24.356547 81.820826 
L 24.55367 82.080799 
L 24.750792 82.340772 
L 25.122236 82.529924 
L 25.493679 82.719076 
L 25.865122 82.908228 
L 26.236565 83.09738 
L 26.608008 83.286532 
L 26.979451 83.475684 
L 27.350894 83.664836 
L 27.722338 83.853988 
L 28.093781 84.04314 
L 28.465224 84.232292 
L 28.836667 84.421444 
L 29.20811 84.610596 
L 29.579553 84.799748 
L 29.950996 84.9889 
L 30.322439 85.178052 
L 30.693883 85.367204 
L 31.140445 85.562762 
L 31.587008 85.75832 
L 32.033571 85.953878 
L 32.480134 86.149435 
L 32.926697 86.344993 
L 33.37326 86.540551 
L 33.819823 86.736109 
L 34.266386 86.931667 
L 34.712948 87.127225 
L 35.159511 87.322783 
L 35.606074 87.518341 
L 36.052637 87.713899 
L 36.4992 87.909457 
L 36.945763 88.105015 
L 37.392326 88.300573 
L 37.838889 88.49613 
" style="fill:none;stroke:#4169e1;stroke-linecap:square;stroke-width:0.4;"/>
   </g>
   <g id="line2d_29">
    <path clip-path="url(#p725cd67d46)" d="M 11.714694 37.07383 
L 11.886031 37.408005 
L 12.057368 37.742179 
L 12.228705 38.076354 
L 12.400042 38.410528 
L 12.755076 38.71552 
L 13.11011 39.020512 
L 13.523961 39.318387 
L 13.949533 39.624446 
L 14.375105 39.930506 
L 14.663543 40.20507 
L 14.951982 40.479634 
L 15.24042 40.754198 
L 15.528859 41.028762 
L 15.795134 41.394966 
L 16.06141 41.76117 
L 16.327685 42.127374 
L 16.593961 42.493578 
L 16.813034 42.795901 
L 17.032106 43.098224 
L 17.251179 43.400547 
L 17.470251 43.70287 
L 17.733756 43.991402 
L 17.997262 44.279935 
L 18.260767 44.568467 
L 18.524272 44.856999 
L 18.743451 45.261906 
L 18.96263 45.666812 
L 19.181809 46.071718 
L 19.400988 46.476625 
L 19.570194 46.98705 
L 19.7394 47.497476 
L 19.908606 48.007902 
L 20.077812 48.518328 
L 20.027945 48.984357 
L 19.978079 49.450386 
L 19.803332 49.799864 
L 19.628585 50.149341 
L 19.453839 50.498819 
L 19.279092 50.848296 
L 19.03498 51.186741 
L 18.790867 51.525186 
L 18.546754 51.863631 
L 18.302642 52.202076 
L 18.130666 52.629136 
L 17.958689 53.056197 
L 17.975312 53.416884 
L 17.991934 53.777572 
L 18.027949 54.274118 
L 18.063964 54.770665 
L 18.099979 55.267211 
L 18.135993 55.763757 
L 18.101364 56.109098 
L 18.066734 56.454438 
L 18.032104 56.799778 
L 17.997475 57.145119 
L 17.962845 57.490459 
L 17.928215 57.835799 
L 17.893586 58.18114 
L 17.858956 58.52648 
L 17.822835 58.895353 
L 17.786713 59.264226 
L 17.750592 59.633099 
L 17.71447 60.001972 
L 17.581386 60.512398 
L 17.448301 61.022824 
L 17.315217 61.533249 
L 17.182133 62.043675 
L 17.231999 62.531858 
L 17.281866 63.020041 
L 17.331733 63.508224 
L 17.381599 63.996407 
L 17.564657 64.301577 
L 17.747715 64.606747 
L 17.930773 64.911917 
L 18.11383 65.217087 
L 18.309621 65.523948 
L 18.505412 65.830808 
L 18.701203 66.137669 
L 18.896994 66.444529 
L 19.092784 66.751389 
L 19.288575 67.05825 
L 19.484366 67.36511 
L 19.680157 67.671971 
L 19.795873 68.007391 
L 19.91159 68.342811 
L 20.027306 68.678231 
L 20.143022 69.013651 
L 20.258739 69.349071 
L 20.374455 69.684491 
L 20.490171 70.019911 
L 20.605888 70.355331 
L 20.676532 70.857394 
L 20.747177 71.359456 
L 20.817821 71.861519 
L 20.888466 72.363581 
L 20.951225 72.928546 
L 21.013985 73.493511 
L 21.076745 74.058476 
L 21.139504 74.623441 
L 21.323841 75.133333 
L 21.508177 75.643224 
L 21.692513 76.153116 
L 21.87685 76.663008 
L 22.02613 77.060263 
L 22.175411 77.457518 
L 22.324691 77.854773 
L 22.473972 78.252028 
" style="fill:none;stroke:#4169e1;stroke-linecap:square;stroke-width:0.4;"/>
   </g>
   <g id="line2d_30">
    <path clip-path="url(#p725cd67d46)" d="M 36.144273 20.567603 
L 36.452423 20.523919 
L 36.760574 20.480234 
L 37.068725 20.436549 
L 37.376876 20.392865 
L 37.76542 20.420979 
L 38.153965 20.449094 
L 38.54251 20.477209 
L 38.931055 20.505324 
L 39.3196 20.533439 
L 39.708145 20.561553 
L 40.09669 20.589668 
L 40.485234 20.617783 
L 40.908196 20.678417 
L 41.331157 20.73905 
L 41.754119 20.799684 
L 42.17708 20.860317 
L 42.600042 20.920951 
L 43.023003 20.981585 
L 43.445964 21.042218 
L 43.868926 21.102852 
L 44.291887 21.163486 
L 44.714849 21.224119 
L 45.13781 21.284753 
L 45.560772 21.345386 
L 45.983733 21.40602 
L 46.406694 21.466654 
L 46.829656 21.527287 
L 47.252617 21.587921 
L 47.596543 21.722378 
L 47.940469 21.856835 
L 48.284395 21.991293 
L 48.628321 22.12575 
L 48.972247 22.260207 
L 49.316172 22.394664 
L 49.660098 22.529121 
L 50.004024 22.663578 
L 50.34795 22.798036 
L 50.691876 22.932493 
L 51.035802 23.06695 
L 51.379728 23.201407 
L 51.723653 23.335864 
L 52.067579 23.470322 
L 52.411505 23.604779 
L 52.755431 23.739236 
" style="fill:none;stroke:#000000;stroke-linecap:square;stroke-width:0.4;"/>
   </g>
   <g id="line2d_31">
    <path clip-path="url(#p725cd67d46)" d="M 39.693334 40.662558 
L 40.378469 42.048724 
L 40.528815 42.720454 
L 40.784541 44.990856 
L 41.429719 47.62684 
L 41.237391 51.20071 
L 41.74341 52.993383 
L 42.186617 53.885761 
L 43.779421 56.053001 
L 44.834294 58.563848 
L 45.014795 61.560741 
L 45.107709 63.057431 
L 48.083303 73.499383 
L 51.2431 86.959604 
L 52.963422 93.479565 
L 52.840673 94.829075 
L 52.840673 94.829075 
" style="fill:none;stroke:#000000;stroke-linecap:square;stroke-width:0.4;"/>
   </g>
   <g id="line2d_32">
    <path clip-path="url(#p725cd67d46)" d="M 45.793696 42.247307 
L 46.213621 42.329783 
L 46.633545 42.412259 
L 47.05347 42.494735 
L 47.473395 42.577211 
L 47.893319 42.659687 
L 48.313244 42.742163 
L 48.733169 42.824639 
L 49.153093 42.907114 
L 49.543503 42.933405 
L 49.933912 42.959696 
L 50.324322 42.985987 
L 50.714731 43.012278 
L 51.105141 43.038569 
L 51.495551 43.06486 
L 51.88596 43.091151 
L 52.27637 43.117442 
L 52.566087 43.136926 
L 52.855804 43.156411 
L 53.145521 43.175895 
L 53.435238 43.19538 
L 53.830975 43.258772 
L 54.226712 43.322163 
L 54.62245 43.385555 
L 55.018187 43.448947 
L 55.413924 43.512339 
L 55.809661 43.57573 
L 56.205398 43.639122 
L 56.601135 43.702514 
" style="fill:none;stroke:#ff0000;stroke-linecap:square;stroke-width:0.4;"/>
   </g>
   <g id="line2d_33">
    <path clip-path="url(#p725cd67d46)" d="M 40.949379 37.80517 
L 41.19738 40.007599 
L 42.375215 44.007105 
L 43.954035 48.836176 
L 46.296519 57.967743 
L 49.065827 67.094283 
L 49.179518 67.5104 
L 49.212976 69.607265 
L 49.29076 70.084504 
L 50.499814 71.954048 
L 51.351438 73.992704 
L 53.916857 83.05503 
L 54.19432 83.753985 
L 54.541097 86.074389 
L 56.23534 92.175297 
L 56.346261 92.541457 
L 57.374283 92.531848 
L 57.374283 92.531848 
" style="fill:none;stroke:#000000;stroke-linecap:square;stroke-width:0.4;"/>
   </g>
   <g id="line2d_34">
    <path clip-path="url(#p725cd67d46)" d="M 31.266711 75.610661 
L 31.519028 76.015123 
L 31.771345 76.419584 
L 32.023662 76.824046 
L 32.275979 77.228507 
L 32.623554 77.661261 
L 32.97113 78.094015 
L 33.318705 78.52677 
L 33.66628 78.959524 
L 34.09036 79.202681 
L 34.514441 79.445838 
L 34.938521 79.688996 
L 35.362601 79.932153 
L 35.817049 80.193905 
L 36.271497 80.455657 
L 36.725944 80.71741 
L 37.180392 80.979162 
L 37.632709 81.202034 
L 38.085026 81.424906 
L 38.537342 81.647778 
L 38.989659 81.87065 
L 39.343734 81.995298 
L 39.697809 82.119946 
L 40.051884 82.244594 
L 40.405959 82.369242 
L 40.814962 82.446158 
L 41.223965 82.523073 
L 41.632968 82.599988 
L 42.041971 82.676903 
L 42.450974 82.753819 
L 42.859977 82.830734 
L 43.26898 82.907649 
L 43.677983 82.984565 
L 44.204034 82.961877 
L 44.730086 82.93919 
L 45.256137 82.916502 
L 45.782188 82.893814 
L 46.083733 82.874152 
L 46.385277 82.854489 
L 46.686822 82.834827 
L 46.988366 82.815164 
L 47.427683 82.893814 
L 47.867001 82.972465 
L 48.306318 83.051115 
L 48.745635 83.129765 
L 49.17451 83.34632 
L 49.603386 83.562875 
L 50.032261 83.77943 
L 50.461136 83.995985 
L 50.720592 84.12695 
L 50.980048 84.257915 
L 51.239504 84.38888 
L 51.49896 84.519846 
L 52.010414 84.677146 
L 52.521867 84.834446 
L 52.889048 85.070575 
L 53.256229 85.306704 
L 53.544668 85.372275 
L 53.833106 85.437847 
L 54.121545 85.503418 
L 54.409983 85.56899 
L 54.871357 85.727803 
L 55.332731 85.886616 
L 55.794104 86.045429 
L 56.255478 86.204242 
" style="fill:none;stroke:#008000;stroke-linecap:square;stroke-width:0.4;"/>
   </g>
   <g id="line2d_35">
    <path clip-path="url(#p725cd67d46)" d="M 67.219763 55.772654 
L 67.559241 56.176048 
L 67.898718 56.579442 
L 68.149756 57.081593 
L 68.243736 57.64638 
L 68.337716 58.211167 
L 68.227966 58.517227 
L 68.118217 58.823287 
L 68.008467 59.129346 
L 67.898718 59.435406 
L 67.561372 59.741377 
L 67.224026 60.047347 
L 66.886679 60.353318 
L 66.549333 60.659289 
L 66.408151 60.992663 
L 66.266968 61.326036 
L 66.125786 61.65941 
L 65.984603 61.992784 
L 65.886575 62.428296 
L 65.788546 62.863808 
L 65.690517 63.299321 
L 65.592489 63.734833 
L 65.439479 64.091784 
L 65.286469 64.448735 
L 65.133459 64.805686 
L 64.980449 65.162637 
L 64.827439 65.519588 
L 64.67443 65.876539 
L 64.52142 66.23349 
L 64.36841 66.590441 
L 64.172299 66.827771 
L 63.976189 67.065101 
L 63.780079 67.30243 
L 63.583968 67.53976 
L 63.387858 67.77709 
L 63.191747 68.01442 
L 62.995637 68.251749 
L 62.799526 68.489079 
L 62.599527 68.869607 
L 62.399527 69.250136 
L 62.199527 69.630664 
L 61.999528 70.011192 
L 61.915191 70.370145 
L 61.830855 70.729098 
L 61.746518 71.088051 
L 61.662181 71.447004 
L 61.577845 71.805957 
L 61.493508 72.164909 
L 61.409172 72.523862 
L 61.324835 72.882815 
L 61.254244 73.229979 
L 61.183653 73.577144 
L 61.113061 73.924308 
L 61.04247 74.271472 
L 60.971879 74.618636 
L 60.901288 74.9658 
L 60.830696 75.312965 
L 60.760105 75.660129 
L 60.728725 75.997462 
L 60.697346 76.334795 
L 60.665966 76.672128 
L 60.634586 77.009461 
L 60.603206 77.346794 
L 60.571826 77.684127 
L 60.540447 78.02146 
L 60.509067 78.358793 
L 60.52473 78.782472 
L 60.540393 79.206151 
L 60.556057 79.62983 
L 60.57172 80.053509 
L 60.501182 80.35948 
L 60.430644 80.665451 
L 60.360106 80.971421 
L 60.289568 81.277392 
L 60.054193 81.720734 
L 59.818818 82.164076 
L 59.583442 82.607417 
L 59.348067 83.050759 
L 59.183337 83.446946 
L 59.018606 83.843133 
L 58.853875 84.23932 
L 58.689145 84.635508 
L 58.541036 84.93614 
L 58.392928 85.236773 
L 58.244819 85.537405 
L 58.096711 85.838038 
L 58.091916 86.188583 
L 58.087121 86.539128 
L 58.082326 86.889673 
L 58.077531 87.240218 
L 58.032619 87.696994 
L 57.987707 88.153771 
L 57.942795 88.610547 
L 57.897883 89.067323 
L 57.852971 89.5241 
L 57.808059 89.980876 
L 57.763147 90.437652 
L 57.718235 90.894429 
" style="fill:none;stroke:#008000;stroke-linecap:square;stroke-width:0.4;"/>
   </g>
   <g id="line2d_36">
    <path clip-path="url(#p725cd67d46)" d="M 52.27637 43.117442 
L 52.442965 43.360421 
L 52.60956 43.6034 
L 52.776156 43.84638 
L 52.942751 44.089359 
L 53.109346 44.332338 
L 53.275942 44.575318 
L 53.442537 44.818297 
L 53.609132 45.061277 
L 53.954257 45.453549 
L 54.299381 45.845821 
L 54.644506 46.238094 
L 54.989631 46.630366 
L 55.185794 47.030557 
L 55.381958 47.430748 
L 55.578122 47.830939 
L 55.774286 48.23113 
L 55.80167 48.556674 
L 55.829054 48.882218 
L 55.856438 49.207763 
L 55.883822 49.533307 
L 55.79176 49.86677 
L 55.699699 50.200232 
" style="fill:none;stroke:#4169e1;stroke-linecap:square;stroke-width:0.4;"/>
   </g>
   <g id="line2d_37">
    <path clip-path="url(#p725cd67d46)" d="M 33.218332 12.986576 
L 33.247101 12.488695 
L 33.275871 11.990814 
L 33.464256 11.677103 
L 33.652641 11.363392 
L 33.942891 11.245594 
L 34.233141 11.127797 
L 34.542997 11.100394 
L 34.852852 11.072991 
L 35.162708 11.045588 
L 35.472564 11.018185 
L 35.923708 11.088739 
L 36.374853 11.159293 
L 36.825997 11.229846 
L 37.277142 11.3004 
L 37.785079 11.333764 
L 38.293017 11.367128 
L 38.800954 11.400493 
L 39.308891 11.433857 
L 39.816829 11.467221 
L 40.324766 11.500585 
L 40.832703 11.533949 
L 41.34064 11.567313 
L 41.777987 11.641826 
L 42.215333 11.716339 
L 42.652679 11.790852 
L 43.090025 11.865365 
L 43.527371 11.939878 
L 43.964717 12.014391 
L 44.402063 12.088904 
L 44.839409 12.163418 
L 45.349371 12.320362 
L 45.859333 12.477307 
L 46.369294 12.634251 
L 46.879256 12.791196 
L 47.224381 12.975543 
L 47.569505 13.159891 
L 47.91463 13.344239 
L 48.259754 13.528586 
L 48.615321 13.880377 
L 48.970888 14.232168 
L 49.326455 14.583958 
L 49.682022 14.935749 
" style="fill:none;stroke:#4169e1;stroke-linecap:square;stroke-width:0.4;"/>
   </g>
   <g id="line2d_38">
    <path clip-path="url(#p725cd67d46)" d="M 43.831845 44.16018 
L 44.190396 44.421042 
L 44.548946 44.681905 
L 44.907496 44.942767 
L 45.266046 45.20363 
L 45.704937 45.434287 
L 46.143829 45.664944 
L 46.58272 45.895601 
L 47.021611 46.126258 
L 47.460502 46.356914 
L 47.899393 46.587571 
L 48.338284 46.818228 
L 48.777175 47.048885 
L 49.298591 47.28746 
L 49.820007 47.526036 
L 50.341424 47.764611 
L 50.86284 48.003186 
L 51.384256 48.241762 
L 51.905672 48.480337 
L 52.427089 48.718912 
L 52.948505 48.957488 
L 53.292404 49.112831 
L 53.636303 49.268174 
L 53.980202 49.423517 
L 54.324102 49.57886 
L 54.668001 49.734203 
L 55.0119 49.889546 
L 55.355799 50.044889 
L 55.699699 50.200232 
L 56.004759 50.419368 
L 56.30982 50.638503 
L 56.614881 50.857638 
L 56.919942 51.076773 
L 57.225002 51.295908 
L 57.530063 51.515044 
L 57.835124 51.734179 
L 58.140184 51.953314 
L 58.425533 52.193847 
L 58.710881 52.434379 
L 58.99623 52.674912 
L 59.281578 52.915445 
L 59.566927 53.155977 
L 59.852275 53.39651 
L 60.137624 53.637043 
L 60.422972 53.877575 
" style="fill:none;stroke:#ff0000;stroke-linecap:square;stroke-width:0.4;"/>
   </g>
   <g id="line2d_39">
    <path clip-path="url(#p725cd67d46)" d="M 56.200923 18.547253 
L 56.4038 19.016308 
L 56.606676 19.485362 
L 56.809553 19.954416 
L 57.012429 20.423471 
L 57.084566 20.91717 
L 57.156702 21.410869 
L 57.228838 21.904568 
L 57.300974 22.398267 
L 57.214986 22.8199 
L 57.128998 23.241533 
L 57.04301 23.663166 
L 56.957022 24.084799 
L 56.845994 24.617378 
L 56.734966 25.149958 
L 56.801561 25.593833 
L 56.868157 26.037709 
L 56.934752 26.481584 
L 57.001348 26.92546 
L 57.054944 27.260346 
L 57.10854 27.595232 
L 57.162136 27.930119 
L 57.215732 28.265005 
L 57.261976 28.554249 
L 57.30822 28.843493 
L 57.354464 29.132737 
L 57.400708 29.421982 
L 57.536563 29.915681 
L 57.672418 30.40938 
L 57.808272 30.903079 
L 57.944127 31.396779 
L 58.077318 31.84617 
L 58.210509 32.295562 
L 58.3437 32.744954 
L 58.476891 33.194345 
L 58.561494 33.473091 
L 58.646097 33.751837 
L 58.7307 34.030582 
L 58.815303 34.309328 
L 58.899906 34.588074 
L 58.984509 34.866819 
L 59.069112 35.145565 
L 59.153715 35.424311 
L 59.353395 35.920857 
L 59.553075 36.417403 
L 59.752755 36.913949 
L 59.952435 37.410496 
L 60.083388 37.83978 
L 60.214342 38.269064 
L 60.345295 38.698349 
L 60.476248 39.127633 
L 60.607202 39.556917 
L 60.738155 39.986202 
L 60.869109 40.415486 
L 61.000062 40.84477 
L 61.050994 41.189977 
L 61.101927 41.535184 
L 61.152859 41.880391 
L 61.203791 42.225598 
L 61.251846 42.654215 
L 61.299902 43.082832 
L 61.347957 43.511449 
L 61.396012 43.940066 
L 61.444068 44.368683 
L 61.492123 44.7973 
L 61.540178 45.225917 
L 61.588234 45.654534 
L 61.702885 45.950184 
L 61.817535 46.245834 
L 61.932186 46.541484 
L 62.046837 46.837135 
L 62.161488 47.132785 
L 62.276139 47.428435 
L 62.39079 47.724085 
L 62.50544 48.019735 
L 62.678003 48.335493 
L 62.850565 48.65125 
L 63.023127 48.967008 
L 63.19569 49.282765 
L 63.368252 49.598523 
L 63.540814 49.91428 
L 63.713376 50.230038 
L 63.885939 50.545795 
L 64.114175 50.780678 
L 64.342411 51.015561 
L 64.570647 51.250444 
L 64.798883 51.485327 
L 65.027119 51.72021 
L 65.255356 51.955093 
L 65.483592 52.189976 
L 65.711828 52.424859 
L 66.051092 52.773981 
L 66.372775 52.970162 
L 66.694458 53.166342 
L 67.016141 53.362523 
L 67.337824 53.558704 
L 67.591526 53.977223 
L 67.845228 54.395742 
L 68.098931 54.81426 
L 68.352633 55.232779 
L 68.498397 55.473 
L 68.555616 55.835735 
L 68.612835 56.198469 
L 68.670054 56.561203 
L 68.727273 56.923937 
L 68.629883 57.245745 
L 68.532494 57.567552 
L 68.435105 57.88936 
L 68.337716 58.211167 
" style="fill:none;stroke:#008000;stroke-linecap:square;stroke-width:0.4;"/>
   </g>
   <g id="line2d_40">
    <path clip-path="url(#p725cd67d46)" d="M 23.681428 85.018082 
L 23.98276 85.249762 
L 24.284091 85.481442 
L 24.585423 85.713122 
L 24.886754 85.944803 
L 25.177057 86.299841 
L 25.46736 86.654879 
L 25.757663 87.009917 
L 26.047967 87.364955 
L 26.33827 87.719993 
L 26.628573 88.075031 
L 26.918876 88.43007 
L 27.209179 88.785108 
L 27.413388 88.996903 
L 27.617596 89.208698 
L 27.821805 89.420493 
L 28.026013 89.632288 
L 28.230222 89.844083 
L 28.43443 90.055878 
L 28.638639 90.267673 
L 28.842847 90.479468 
L 29.047056 90.691264 
L 29.251264 90.903059 
L 29.455472 91.114854 
L 29.659681 91.326649 
L 29.863889 91.538444 
L 30.068098 91.750239 
L 30.272306 91.962034 
L 30.476515 92.173829 
L 30.655577 92.458024 
L 30.834639 92.742219 
L 31.013701 93.026415 
L 31.192763 93.31061 
L 31.371825 93.594805 
L 31.550887 93.879 
L 31.729949 94.163195 
L 31.909011 94.44739 
L 32.088073 94.731585 
L 32.267135 95.01578 
L 32.446197 95.299976 
L 32.625259 95.584171 
L 32.804321 95.868366 
L 32.983383 96.152561 
L 33.162445 96.436756 
L 33.341507 96.720951 
" style="fill:none;stroke:#ff0000;stroke-linecap:square;stroke-width:0.4;"/>
   </g>
   <g id="line2d_41">
    <path clip-path="url(#p725cd67d46)" d="M 37.838889 88.49613 
L 37.890673 87.972982 
L 37.942458 87.449833 
L 37.734573 87.171355 
L 37.526689 86.892876 
L 37.318804 86.614397 
L 37.11092 86.335918 
L 36.875545 85.990712 
L 36.640169 85.645505 
L 36.404794 85.300298 
L 36.169419 84.955091 
L 36.016143 84.467086 
L 35.862867 83.979081 
L 35.70959 83.491076 
L 35.556314 83.003071 
L 35.403038 82.515066 
L 35.249762 82.02706 
L 35.096485 81.539055 
L 34.943209 81.05105 
L 34.783593 80.789609 
L 34.623977 80.528169 
L 34.464361 80.266728 
L 34.304745 80.005287 
L 34.145128 79.743846 
L 33.985512 79.482405 
L 33.825896 79.220965 
L 33.66628 78.959524 
" style="fill:none;stroke:#008000;stroke-linecap:square;stroke-width:0.4;"/>
   </g>
   <g id="line2d_42">
    <path clip-path="url(#p725cd67d46)" d="M 22.473972 78.252028 
L 22.74696 78.156829 
L 23.019948 78.06163 
L 23.292937 77.966431 
L 23.565925 77.871232 
L 23.838913 77.776034 
L 24.111902 77.680835 
L 24.38489 77.585636 
L 24.657878 77.490437 
L 25.025379 77.390567 
L 25.39288 77.290698 
L 25.76038 77.190828 
L 26.127881 77.090958 
L 26.495382 76.991088 
L 26.862883 76.891219 
L 27.230383 76.791349 
L 27.597884 76.691479 
L 27.91685 76.616566 
L 28.235816 76.541652 
L 28.554781 76.466739 
L 28.873747 76.391825 
L 29.192713 76.316912 
L 29.511679 76.241998 
L 29.830645 76.167085 
L 30.149611 76.092171 
L 30.428886 75.971794 
L 30.708161 75.851416 
L 30.987436 75.731039 
L 31.266711 75.610661 
" style="fill:none;stroke:#ff0000;stroke-linecap:square;stroke-width:0.4;"/>
   </g>
   <g id="line2d_43">
    <path clip-path="url(#p725cd67d46)" d="M 36.417474 26.046072 
L 36.768779 26.35231 
L 37.120083 26.658547 
L 37.471388 26.964785 
L 37.822693 27.271023 
L 38.309213 27.427967 
L 38.795733 27.584912 
L 39.087475 27.548078 
L 39.379216 27.511244 
L 39.670958 27.47441 
L 39.962699 27.437576 
L 40.401271 27.450121 
L 40.839842 27.462666 
L 41.278414 27.475211 
L 41.716985 27.487756 
L 42.155556 27.5003 
L 42.594128 27.512845 
L 43.032699 27.52539 
L 43.471271 27.537935 
L 43.871323 27.563425 
L 44.271376 27.588915 
L 44.671428 27.614406 
L 45.071481 27.639896 
L 45.471534 27.665386 
L 45.871586 27.690876 
L 46.271639 27.716366 
L 46.671691 27.741856 
L 47.217029 27.809875 
L 47.762366 27.877893 
L 48.307703 27.945911 
L 48.853041 28.013929 
L 49.398378 28.081947 
L 49.943715 28.149966 
L 50.489053 28.217984 
L 51.03439 28.286002 
L 51.402956 28.278795 
L 51.771522 28.271589 
L 52.140089 28.264382 
L 52.508655 28.257175 
L 52.877221 28.249969 
L 53.245787 28.242762 
L 53.614353 28.235556 
L 53.98292 28.228349 
L 54.338167 28.211266 
L 54.693414 28.194184 
L 55.048661 28.177102 
L 55.403908 28.160019 
L 55.856864 28.186266 
L 56.30982 28.212512 
L 56.762776 28.238758 
L 57.215732 28.265005 
" style="fill:none;stroke:#000000;stroke-linecap:square;stroke-width:0.4;"/>
   </g>
   <g id="line2d_44">
    <path clip-path="url(#p725cd67d46)" d="M 43.606806 47.420427 
L 43.78712 47.649994 
L 43.967434 47.879561 
L 44.147748 48.109128 
L 44.328062 48.338695 
L 44.508376 48.568263 
L 44.68869 48.79783 
L 44.869004 49.027397 
L 45.049318 49.256964 
L 45.229632 49.486531 
L 45.409946 49.716098 
L 45.59026 49.945665 
L 45.770574 50.175232 
L 45.950888 50.404799 
L 46.131202 50.634366 
L 46.311516 50.863933 
L 46.49183 51.0935 
L 46.702378 51.310411 
L 46.912927 51.527322 
L 47.123475 51.744232 
L 47.334024 51.961143 
L 47.676804 52.314269 
L 48.019584 52.667394 
L 48.362365 53.020519 
L 48.705145 53.373644 
L 49.090653 53.695408 
L 49.476161 54.017171 
L 49.86167 54.338934 
L 50.247178 54.660697 
L 50.632686 54.98246 
L 51.018194 55.304223 
L 51.403702 55.625986 
L 51.78921 55.947749 
L 52.155326 56.144686 
L 52.521441 56.341623 
L 52.887557 56.53856 
L 53.253672 56.735497 
L 53.619788 56.932434 
L 53.985903 57.129371 
L 54.352019 57.326308 
L 54.718134 57.523245 
L 55.020265 57.672093 
L 55.322395 57.820941 
L 55.624526 57.969789 
L 55.926656 58.118637 
L 56.228787 58.267486 
L 56.530917 58.416334 
L 56.833048 58.565182 
L 57.135178 58.71403 
L 57.618182 58.943397 
L 58.101186 59.172764 
L 58.58419 59.402131 
L 59.067194 59.631498 
L 59.361173 59.786841 
L 59.655152 59.942184 
L 59.949132 60.097527 
L 60.243111 60.25287 
L 60.53709 60.408213 
L 60.831069 60.563556 
L 61.125049 60.718899 
L 61.419028 60.874242 
L 61.734211 61.180302 
L 62.049394 61.486362 
" style="fill:none;stroke:#000000;stroke-linecap:square;stroke-width:0.4;"/>
   </g>
   <g id="line2d_45">
    <path clip-path="url(#p725cd67d46)" d="M 37.132656 30.424149 
L 37.452155 30.402618 
L 37.771654 30.381087 
L 38.091152 30.359556 
L 38.410651 30.338025 
L 38.73015 30.316495 
L 39.049648 30.294964 
L 39.369147 30.273433 
L 39.688646 30.251902 
L 40.009796 30.258486 
L 40.330946 30.265069 
L 40.652096 30.271653 
L 40.973246 30.278237 
L 41.420875 30.381443 
L 41.868503 30.484649 
L 42.316132 30.587856 
L 42.76376 30.691062 
L 43.27564 30.795024 
L 43.787519 30.898987 
L 44.299399 31.002949 
L 44.811279 31.106912 
L 45.323159 31.210874 
L 45.835038 31.314836 
L 46.346918 31.418799 
L 46.858798 31.522761 
L 47.317881 31.633574 
L 47.776964 31.744388 
L 48.236046 31.855201 
L 48.695129 31.966014 
L 49.154212 32.076827 
L 49.613295 32.18764 
L 50.072378 32.298454 
L 50.531461 32.409267 
L 51.001785 32.509359 
L 51.472109 32.609451 
L 51.942433 32.709543 
L 52.412757 32.809636 
L 52.891339 32.756965 
L 53.369921 32.704294 
L 53.848503 32.651623 
L 54.327085 32.598953 
L 54.805667 32.546282 
L 55.284249 32.493611 
L 55.762831 32.44094 
L 56.241413 32.38827 
" style="fill:none;stroke:#000000;stroke-linecap:square;stroke-width:0.4;"/>
   </g>
   <g id="line2d_46">
    <path clip-path="url(#p725cd67d46)" d="M 40.54874 37.768514 
L 40.54874 38.587758 
L 39.857212 40.180336 
L 39.693334 40.662558 
L 39.857425 42.009577 
L 40.799033 43.852519 
L 41.386245 44.521401 
L 42.132115 44.940276 
L 42.661469 44.834935 
L 43.831845 44.16018 
L 45.491725 42.628992 
L 47.765562 39.608431 
L 48.989109 37.76847 
L 49.926454 35.493352 
L 50.578131 32.01437 
L 51.195924 27.083828 
L 54.340085 20.103709 
L 55.090643 18.365041 
L 55.4363 17.928372 
L 55.85484 17.946522 
L 56.200923 18.547253 
L 56.528253 20.167235 
L 56.243917 22.380963 
L 55.527509 24.499403 
L 55.403908 28.160019 
L 55.584675 29.897086 
L 56.482702 33.575452 
L 56.66251 37.380157 
L 56.475936 45.283748 
L 56.455371 46.578407 
L 56.728573 46.542107 
L 56.946793 46.341745 
L 57.947963 43.993626 
L 58.566822 43.502151 
L 59.440129 41.86402 
L 59.695003 41.754764 
L 60.02276 41.82772 
L 59.995269 43.429373 
L 60.045402 44.958426 
L 60.755097 47.939127 
L 60.912263 50.737616 
L 61.041831 52.193802 
L 61.536236 54.242 
L 61.747211 54.979568 
L 62.060902 57.936425 
L 62.352004 57.991231 
L 63.189083 57.681613 
L 63.535167 57.863825 
L 63.717159 58.591962 
L 63.571395 59.593062 
L 62.616042 60.548609 
L 61.606135 61.303794 
L 61.103365 62.714471 
L 59.708722 67.725909 
L 57.128785 75.674542 
L 57.097032 76.521011 
L 57.097139 78.049886 
L 56.892238 79.196542 
L 55.272635 83.419454 
L 55.42719 84.309074 
L 56.255478 86.204242 
L 56.255478 86.204242 
" style="fill:none;stroke:#008000;stroke-linecap:square;stroke-width:0.4;"/>
   </g>
   <g id="line2d_47">
    <path clip-path="url(#p725cd67d46)" d="M 48.269984 64.181467 
L 48.707649 64.452472 
L 49.145315 64.723477 
L 49.582981 64.994482 
L 50.020646 65.265487 
L 50.458312 65.536493 
L 50.895978 65.807498 
L 51.333644 66.078503 
L 51.771309 66.349508 
L 52.132097 66.686886 
L 52.492885 67.024263 
L 52.853673 67.36164 
L 53.214461 67.699018 
L 53.457721 68.106949 
L 53.700981 68.514881 
L 53.944241 68.922812 
L 54.187501 69.330743 
L 54.289472 69.640673 
L 54.391443 69.950603 
L 54.493414 70.260533 
L 54.595385 70.570463 
L 54.697356 70.880393 
L 54.799327 71.190323 
L 54.901298 71.500253 
L 55.003269 71.810183 
L 55.069918 72.175008 
L 55.136567 72.539833 
L 55.203216 72.904657 
L 55.269865 73.269482 
L 55.336513 73.634307 
L 55.403162 73.999132 
L 55.469811 74.363957 
L 55.53646 74.728782 
L 55.540402 75.270125 
L 55.544345 75.811468 
L 55.548287 76.352811 
L 55.55223 76.894155 
L 55.556172 77.435498 
L 55.560114 77.976841 
L 55.564057 78.518184 
L 55.567999 79.059527 
L 55.681904 79.498643 
L 55.795809 79.937758 
L 55.909714 80.376874 
L 56.023619 80.815989 
L 56.137524 81.255105 
L 56.251429 81.694221 
L 56.365334 82.133336 
L 56.479239 82.572452 
L 56.429266 82.955293 
L 56.379293 83.338135 
L 56.329319 83.720976 
L 56.279346 84.103818 
L 56.273379 84.628924 
L 56.267412 85.15403 
L 56.261445 85.679136 
L 56.255478 86.204242 
L 56.3469 86.497378 
L 56.438323 86.790515 
L 56.529745 87.083652 
L 56.621167 87.376788 
L 56.71259 87.669925 
L 56.804012 87.963062 
L 56.895434 88.256198 
L 56.986857 88.549335 
L 57.078279 88.842472 
L 57.169701 89.135608 
L 57.261124 89.428745 
L 57.352546 89.721882 
L 57.443968 90.015018 
L 57.535391 90.308155 
L 57.626813 90.601292 
L 57.718235 90.894429 
L 57.632247 91.303783 
L 57.546259 91.713138 
L 57.460271 92.122493 
L 57.374283 92.531848 
" style="fill:none;stroke:#4169e1;stroke-linecap:square;stroke-width:0.4;"/>
   </g>
   <g id="line2d_48">
    <path clip-path="url(#p725cd67d46)" d="M 37.838889 88.49613 
L 37.972959 88.781949 
L 38.107029 89.067768 
L 38.241099 89.353587 
L 38.375169 89.639406 
L 38.509239 89.925225 
L 38.643309 90.211043 
L 38.777379 90.496862 
L 38.911449 90.782681 
L 39.045519 91.0685 
L 39.179589 91.354319 
L 39.31366 91.640138 
L 39.44773 91.925956 
L 39.5818 92.211775 
L 39.71587 92.497594 
L 39.84994 92.783413 
L 39.98401 93.069232 
L 40.137979 93.312456 
L 40.291948 93.55568 
L 40.445916 93.798904 
L 40.599885 94.042128 
L 40.753854 94.285352 
L 40.907823 94.528576 
L 41.061792 94.7718 
L 41.215761 95.015024 
L 41.369729 95.258248 
L 41.523698 95.501472 
L 41.677667 95.744696 
L 41.831636 95.98792 
L 41.985605 96.231144 
L 42.139574 96.474368 
L 42.293542 96.717592 
L 42.447511 96.960816 
L 42.758352 97.243254 
L 43.069194 97.525692 
L 43.380035 97.80813 
L 43.690876 98.090568 
L 44.001717 98.373006 
L 44.312558 98.655444 
L 44.6234 98.937882 
L 44.934241 99.22032 
L 45.245082 99.502758 
L 45.555923 99.785196 
L 45.866765 100.067634 
L 46.177606 100.350072 
L 46.488447 100.63251 
L 46.799288 100.914948 
L 47.110129 101.197386 
L 47.420971 101.479824 
L 47.635355 101.828945 
L 47.849739 102.178067 
L 48.064123 102.527188 
L 48.278508 102.87631 
" style="fill:none;stroke:#000000;stroke-linecap:square;stroke-width:0.4;"/>
   </g>
   <g id="line2d_49">
    <path clip-path="url(#p725cd67d46)" d="M 38.088648 33.822835 
L 38.612995 34.054071 
L 39.137341 34.285306 
L 39.661688 34.516541 
L 40.186034 34.747776 
L 40.664563 35.014511 
L 41.143092 35.281246 
L 41.62162 35.54798 
L 42.100149 35.814715 
L 42.55513 36.081627 
L 43.01011 36.34854 
L 43.269886 36.482975 
L 43.529662 36.61741 
L 43.789437 36.751845 
L 44.049213 36.88628 
L 44.522947 37.045982 
L 44.996681 37.205685 
L 45.470415 37.365388 
L 45.944149 37.52509 
L 46.286769 37.621846 
L 46.62939 37.718602 
L 46.97201 37.815358 
L 47.314631 37.912113 
L 47.657252 38.008869 
L 47.999872 38.105625 
L 48.342493 38.202381 
L 48.685113 38.299137 
L 48.967558 38.417623 
L 49.250003 38.53611 
L 49.532448 38.654597 
L 49.814893 38.773084 
L 50.097338 38.891571 
L 50.379783 39.010058 
L 50.662228 39.128545 
L 50.944672 39.247032 
L 51.227117 39.365519 
L 51.509562 39.484006 
L 51.792007 39.602493 
L 52.074452 39.72098 
L 52.356897 39.839467 
L 52.639342 39.957953 
L 52.921787 40.07644 
L 53.204232 40.194927 
L 53.51494 40.31139 
L 53.825648 40.427853 
L 54.136356 40.544316 
L 54.447064 40.660779 
L 54.991975 40.766565 
L 55.536886 40.872351 
L 56.081797 40.978138 
L 56.626708 41.083924 
L 57.010245 41.167779 
L 57.393782 41.251634 
L 57.777319 41.335489 
L 58.160856 41.419344 
L 58.544393 41.503199 
L 58.927929 41.587054 
L 59.311466 41.670909 
L 59.695003 41.754764 
" style="fill:none;stroke:#ff0000;stroke-linecap:square;stroke-width:0.4;"/>
   </g>
   <g id="line2d_50">
    <path clip-path="url(#p725cd67d46)" d="M 37.11092 86.335918 
L 37.324665 86.142229 
L 37.53841 85.948539 
L 37.752155 85.75485 
L 37.9659 85.56116 
L 38.179645 85.367471 
L 38.393389 85.173781 
L 38.607134 84.980092 
L 38.820879 84.786402 
L 39.019014 84.484257 
L 39.217149 84.182112 
L 39.415284 83.879967 
L 39.613419 83.577822 
L 39.811554 83.275677 
L 40.009689 82.973532 
L 40.207824 82.671387 
L 40.405959 82.369242 
" style="fill:none;stroke:#000000;stroke-linecap:square;stroke-width:0.4;"/>
   </g>
   <g id="line2d_51">
    <path clip-path="url(#p725cd67d46)" d="M 24.513393 42.712802 
L 24.998421 42.450516 
L 25.48345 42.18823 
L 25.942479 42.214565 
L 26.401509 42.240901 
L 26.76869 42.463684 
L 27.135871 42.686467 
L 27.329291 43.033987 
L 27.522711 43.381507 
L 27.716131 43.729027 
L 27.909551 44.076547 
L 28.102971 44.424067 
L 28.296391 44.771587 
L 28.489811 45.119108 
L 28.683231 45.466628 
L 28.876651 45.814148 
L 29.070071 46.161668 
L 29.263491 46.509188 
L 29.456911 46.856708 
L 29.650331 47.204228 
L 29.843751 47.551748 
L 30.037171 47.899268 
L 30.230591 48.246789 
L 30.263303 48.587814 
L 30.296014 48.928839 
L 30.328726 49.269864 
L 30.361438 49.61089 
L 30.518816 49.938658 
L 30.676195 50.266427 
L 30.833573 50.594195 
L 30.990952 50.921964 
L 31.108959 51.410458 
L 31.226966 51.898953 
L 31.344974 52.387447 
L 31.462981 52.875942 
L 31.580988 53.364436 
L 31.698995 53.85293 
L 31.817003 54.341425 
L 31.93501 54.829919 
L 31.882586 55.197102 
L 31.830162 55.564285 
L 31.777738 55.931467 
L 31.725314 56.29865 
L 31.581095 56.711742 
L 31.436875 57.124833 
L 31.292656 57.537925 
L 31.148437 57.951016 
L 31.004218 58.364108 
L 30.859998 58.7772 
L 30.715779 59.190291 
L 30.57156 59.603383 
L 30.394469 60.068967 
L 30.217378 60.534552 
L 30.040288 61.000136 
L 29.863197 61.465721 
L 29.620683 61.714839 
L 29.378168 61.963957 
L 29.135654 62.213076 
L 28.89314 62.462194 
L 28.722655 62.881958 
L 28.552171 63.301723 
L 28.525932 63.63285 
L 28.499694 63.963977 
L 28.473455 64.295105 
L 28.447216 64.626232 
L 28.420978 64.957359 
L 28.394739 65.288486 
L 28.3685 65.619614 
L 28.342262 65.950741 
L 28.316023 66.281868 
L 28.289785 66.612995 
L 28.263546 66.944123 
L 28.237307 67.27525 
L 28.211069 67.606377 
L 28.18483 67.937504 
L 28.158591 68.268631 
L 28.132353 68.599759 
L 28.342155 68.966941 
L 28.551958 69.334124 
L 28.76176 69.701307 
L 28.971563 70.068489 
L 28.984775 70.540569 
L 28.997988 71.012648 
L 29.138957 71.38637 
L 29.279927 71.760092 
L 29.420896 72.133814 
L 29.561865 72.507536 
L 29.702835 72.881258 
L 29.843804 73.25498 
L 29.984774 73.628702 
L 30.125743 74.002424 
L 30.410985 74.404483 
L 30.696227 74.806543 
L 30.981469 75.208602 
L 31.266711 75.610661 
" style="fill:none;stroke:#008000;stroke-linecap:square;stroke-width:0.4;"/>
   </g>
   <g id="line2d_52">
    <path clip-path="url(#p725cd67d46)" d="M 34.105704 15.980623 
L 34.385085 16.381703 
L 34.664467 16.782784 
L 34.943848 17.183864 
L 35.22323 17.584945 
L 35.540544 17.786909 
L 35.857859 17.988872 
L 36.059776 18.373493 
L 36.261694 18.758114 
L 36.463611 19.142735 
L 36.665529 19.527356 
L 37.021202 19.96011 
L 37.376876 20.392865 
L 37.5163 20.659733 
L 37.655724 20.926601 
L 37.795149 21.193469 
L 37.934573 21.460337 
L 38.073997 21.727205 
L 38.213422 21.994073 
L 38.352846 22.260941 
L 38.49227 22.527809 
L 38.727859 23.03263 
L 38.963447 23.53745 
L 39.199035 24.042271 
L 39.434624 24.547091 
L 39.49717 25.018281 
L 39.559717 25.48947 
L 39.622263 25.96066 
L 39.68481 26.43185 
L 39.823755 26.934713 
L 39.962699 27.437576 
L 40.088432 27.893463 
L 40.347994 28.287781 
L 40.607557 28.6821 
L 40.698979 29.081134 
L 40.790402 29.480169 
L 40.881824 29.879203 
L 40.973246 30.278237 
" style="fill:none;stroke:#008000;stroke-linecap:square;stroke-width:0.4;"/>
   </g>
   <g id="line2d_53">
    <path clip-path="url(#p725cd67d46)" d="M 40.973246 30.278237 
L 41.092905 30.620197 
L 41.212564 30.962156 
L 41.332223 31.304115 
L 41.451882 31.646075 
L 41.57154 31.988034 
L 41.691199 32.329994 
L 41.810858 32.671953 
L 41.930517 33.013913 
L 42.083047 33.270504 
L 42.235578 33.527096 
L 42.388108 33.783688 
L 42.540638 34.04028 
L 42.693169 34.296872 
L 42.845699 34.553464 
L 42.998229 34.810056 
L 43.15076 35.066648 
L 43.375373 35.521556 
L 43.599987 35.976464 
L 43.8246 36.431372 
L 44.049213 36.88628 
L 44.104727 37.346704 
L 44.160241 37.807128 
L 44.215755 38.267552 
L 44.271269 38.727976 
L 44.32673 39.027585 
L 44.382191 39.327195 
L 44.437652 39.626804 
L 44.493112 39.926413 
L 44.548573 40.226023 
L 44.604034 40.525632 
L 44.659494 40.825241 
L 44.714955 41.124851 
L 44.833655 41.596307 
L 44.952355 42.067764 
L 45.071055 42.53922 
L 45.189755 43.010677 
" style="fill:none;stroke:#008000;stroke-linecap:square;stroke-width:0.4;"/>
   </g>
   <g id="line2d_54">
    <path clip-path="url(#p725cd67d46)" d="M 31.612368 10.447348 
L 31.79436 10.465498 
L 32.10379 10.629204 
L 32.200007 10.96418 
L 32.296224 11.299155 
L 32.392441 11.63413 
L 32.488658 11.969105 
L 32.651258 12.318583 
L 32.813858 12.66806 
L 32.929947 12.965668 
L 33.046036 13.263275 
L 33.162125 13.560883 
L 33.278215 13.85849 
L 33.394304 14.156097 
L 33.510393 14.453705 
L 33.626483 14.751312 
L 33.742572 15.04892 
L 33.924138 15.514771 
L 34.105704 15.980623 
L 34.233114 16.267309 
L 34.360525 16.553995 
L 34.487936 16.840681 
L 34.615346 17.127368 
L 34.742757 17.414054 
L 34.870167 17.70074 
L 34.997578 17.987427 
L 35.124988 18.274113 
L 35.252399 18.560799 
L 35.379809 18.847486 
L 35.50722 19.134172 
L 35.63463 19.420858 
L 35.762041 19.707544 
L 35.889451 19.994231 
L 36.016862 20.280917 
L 36.144273 20.567603 
L 36.258071 20.963524 
L 36.371869 21.359444 
L 36.485668 21.755364 
L 36.599466 22.151284 
L 36.672242 22.588131 
L 36.745017 23.024978 
L 36.817793 23.461825 
L 36.890568 23.898672 
L 36.867553 24.214518 
L 36.844538 24.530365 
L 36.803834 25.088212 
L 36.763131 25.646059 
L 36.417474 26.046072 
L 36.07139 26.446797 
L 36.176132 26.865493 
L 36.280873 27.28419 
L 36.385615 27.702887 
L 36.490356 28.121584 
L 36.570644 28.409405 
L 36.650931 28.697225 
L 36.731219 28.985046 
L 36.811506 29.272867 
L 36.891794 29.560687 
L 36.972081 29.848508 
L 37.052369 30.136329 
L 37.132656 30.424149 
L 37.27629 30.93929 
L 37.419923 31.454432 
L 37.546508 31.908539 
L 37.673092 32.362646 
L 37.776981 32.727693 
L 37.88087 33.092741 
L 37.984759 33.457788 
L 38.088648 33.822835 
L 38.218696 34.279656 
L 38.348744 34.736477 
L 38.478792 35.193298 
L 38.608839 35.650119 
L 38.738887 36.106939 
L 38.868935 36.56376 
L 38.998982 37.020581 
L 39.12903 37.477402 
L 39.199568 37.875546 
L 39.270106 38.273691 
L 39.340644 38.671835 
L 39.411182 39.06998 
L 39.48172 39.468124 
L 39.552258 39.866269 
L 39.622796 40.264414 
L 39.693334 40.662558 
" style="fill:none;stroke:#008000;stroke-linecap:square;stroke-width:0.4;"/>
   </g>
   <g id="line2d_55">
    <path clip-path="url(#p725cd67d46)" d="M 47.334024 51.961143 
L 47.399873 52.343985 
L 47.465723 52.726826 
L 47.531572 53.109668 
L 47.597422 53.49251 
L 47.824806 53.903021 
L 48.05219 54.313532 
L 48.279573 54.724044 
L 48.506957 55.134555 
L 48.742705 55.45356 
L 48.978453 55.772565 
L 49.214201 56.09157 
L 49.449949 56.410575 
L 49.685698 56.72958 
L 49.921446 57.048585 
L 50.157194 57.36759 
L 50.392942 57.686595 
L 50.589905 57.969522 
L 50.786868 58.25245 
L 50.983831 58.535377 
L 51.180793 58.818304 
L 51.377756 59.101231 
L 51.574719 59.384159 
L 51.771682 59.667086 
L 51.968645 59.950013 
L 52.136146 60.404832 
L 52.303647 60.859651 
L 52.471148 61.31447 
L 52.638649 61.769289 
L 52.813822 62.257739 
L 52.988995 62.746189 
L 53.003086 63.055741 
L 53.017178 63.365293 
L 53.03127 63.674844 
L 53.045361 63.984396 
L 53.059453 64.293948 
L 53.073545 64.6035 
L 53.087636 64.913052 
L 53.101728 65.222603 
L 53.115819 65.532155 
L 53.129911 65.841707 
L 53.144003 66.151259 
L 53.158094 66.460811 
L 53.172186 66.770362 
L 53.186277 67.079914 
L 53.200369 67.389466 
L 53.214461 67.699018 
" style="fill:none;stroke:#000000;stroke-linecap:square;stroke-width:0.4;"/>
   </g>
   <g id="line2d_56">
    <path clip-path="url(#p725cd67d46)" d="M 47.69886 62.427317 
L 48.031625 62.43319 
L 48.364389 62.439062 
L 48.697154 62.444934 
L 49.029918 62.450806 
L 49.339348 62.468956 
L 49.648777 62.487106 
L 49.958206 62.505256 
L 50.267636 62.523406 
L 50.813612 62.423403 
L 51.359589 62.3234 
L 51.679354 62.184872 
L 51.999119 62.046344 
L 52.318884 61.907817 
L 52.638649 61.769289 
L 53.014994 61.584675 
L 53.391338 61.40006 
L 53.767683 61.215446 
L 54.144027 61.030831 
L 54.453457 60.853334 
L 54.762886 60.675837 
L 55.072316 60.498341 
L 55.381745 60.320844 
L 55.641095 60.10242 
L 55.900444 59.883997 
L 56.159794 59.665574 
L 56.419143 59.44715 
L 56.777161 59.08059 
L 57.135178 58.71403 
L 57.365652 58.455926 
L 57.596126 58.197822 
L 57.826599 57.939717 
L 58.057073 57.681613 
L 58.18451 57.413188 
L 58.311948 57.144763 
L 58.439385 56.876338 
L 58.566822 56.607913 
L 58.686268 56.342424 
L 58.805713 56.076935 
L 58.925159 55.811446 
L 59.044605 55.545957 
L 59.27689 55.252887 
L 59.509175 54.959817 
L 59.737624 54.689256 
L 59.966074 54.418696 
L 60.194523 54.148136 
L 60.422972 53.877575 
L 60.823184 53.731663 
L 61.369161 53.859069 
" style="fill:none;stroke:#008000;stroke-linecap:square;stroke-width:0.4;"/>
   </g>
   <g id="line2d_57">
    <path clip-path="url(#p725cd67d46)" d="M 61.369161 53.859069 
L 61.648223 54.040036 
L 61.927285 54.221003 
L 62.206347 54.401969 
L 62.485408 54.582936 
L 62.63373 54.679025 
L 62.80805 55.027257 
L 62.982371 55.375488 
L 63.156691 55.72372 
L 63.331012 56.071952 
L 63.606983 55.78084 
L 63.882955 55.489727 
L 64.265267 55.086867 
L 64.837882 55.079038 
L 65.410497 55.071208 
L 65.862813 55.24657 
L 66.31513 55.421931 
L 66.767447 55.597293 
L 67.219763 55.772654 
" style="fill:none;stroke:#008000;stroke-linecap:square;stroke-width:0.4;"/>
   </g>
   <g id="line2d_58">
    <path clip-path="url(#p725cd67d46)" d="M 36.844538 24.530365 
L 37.374318 24.601719 
L 37.904099 24.673074 
L 38.28673 24.641578 
L 38.669361 24.610083 
L 39.051992 24.578587 
L 39.434624 24.547091 
L 39.938405 24.543354 
L 40.442187 24.539618 
L 40.945969 24.535881 
L 41.449751 24.532144 
L 41.785126 24.538016 
L 42.120501 24.543888 
L 42.455876 24.54976 
L 42.791251 24.555632 
L 43.126626 24.561505 
L 43.462001 24.567377 
L 43.797376 24.573249 
L 44.132751 24.579121 
L 44.703448 24.602654 
L 45.274144 24.626186 
L 45.844841 24.649719 
L 46.415538 24.673252 
L 46.986235 24.696785 
L 47.556932 24.720317 
L 48.127629 24.74385 
L 48.698326 24.767383 
L 49.141159 24.776725 
L 49.583993 24.786067 
L 50.026826 24.795409 
L 50.46966 24.804751 
L 50.912493 24.814093 
L 51.355327 24.823435 
L 51.798161 24.832777 
L 52.240994 24.842119 
L 52.644829 24.927931 
L 53.048664 25.013743 
L 53.4525 25.099556 
L 53.856335 25.185368 
L 54.26017 25.27118 
L 54.664005 25.356993 
L 55.06784 25.442805 
L 55.471676 25.528618 
" style="fill:none;stroke:#000000;stroke-linecap:square;stroke-width:0.4;"/>
   </g>
  </g>
 </g>
 <defs>
  <clipPath id="p725cd67d46">
   <rect height="118.514929" width="72" x="0" y="0"/>
  </clipPath>
 </defs>
</svg>
