<?xml version="1.0" encoding="utf-8" standalone="no"?>
<!DOCTYPE svg PUBLIC "-//W3C//DTD SVG 1.1//EN"
  "http://www.w3.org/Graphics/SVG/1.1/DTD/svg11.dtd">
<svg height="105.334055pt" version="1.1" viewBox="0 0 72 105.334055" width="72pt" xmlns="http://www.w3.org/2000/svg" xmlns:xlink="http://www.w3.org/1999/xlink">
 <metadata>
  <rdf:RDF xmlns:cc="http://creativecommons.org/ns#" xmlns:dc="http://purl.org/dc/elements/1.1/" xmlns:rdf="http://www.w3.org/1999/02/22-rdf-syntax-ns#">
   <cc:Work>
    <dc:type rdf:resource="http://purl.org/dc/dcmitype/StillImage"/>
    <dc:date>2022-05-19T22:35:51.558376</dc:date>
    <dc:format>image/svg+xml</dc:format>
    <dc:creator>
     <cc:Agent>
      <dc:title>Matplotlib v3.4.3, https://matplotlib.org/</dc:title>
     </cc:Agent>
    </dc:creator>
   </cc:Work>
  </rdf:RDF>
 </metadata>
 <defs>
  <style type="text/css">*{stroke-linecap:butt;stroke-linejoin:round;}</style>
 </defs>
 <g id="figure_1">
  <g id="patch_1">
   <path d="M 0 105.334055 
L 72 105.334055 
L 72 0 
L 0 0 
z
" style="fill:#ffffff;"/>
  </g>
  <g id="axes_1">
   <g id="line2d_1">
    <path clip-path="url(#p97d3763045)" d="M 66.495485 86.407126 
L 66.768384 79.628844 
L 67.041283 72.850563 
L 67.314181 66.072282 
L 67.58708 59.294001 
" style="fill:none;stroke:#808080;stroke-linecap:square;stroke-width:0.4;"/>
   </g>
   <g id="line2d_2">
    <path clip-path="url(#p97d3763045)" d="M 62.19079 86.985025 
L 61.773031 80.367814 
L 61.355272 73.750603 
" style="fill:none;stroke:#808080;stroke-linecap:square;stroke-width:0.4;"/>
   </g>
   <g id="line2d_3">
    <path clip-path="url(#p97d3763045)" d="M 36.235515 100.284527 
L 35.971028 94.315988 
L 35.706541 88.34745 
L 35.442053 82.378911 
L 35.177566 76.410373 
L 34.913078 70.441834 
L 34.648591 64.473296 
L 34.384104 58.504758 
L 34.119616 52.536219 
L 33.854895 46.567681 
L 33.590174 40.599142 
L 33.325453 34.630604 
L 33.060732 28.662065 
L 32.796011 22.693527 
L 32.53129 16.724988 
L 32.266569 10.75645 
L 32.001848 4.787912 
" style="fill:none;stroke:#808080;stroke-linecap:square;stroke-width:0.4;"/>
   </g>
   <g id="line2d_4">
    <path clip-path="url(#p97d3763045)" d="M 33.986905 9.126064 
L 34.789713 10.111357 
L 35.592521 11.096649 
L 36.395329 12.081942 
L 37.198137 13.067235 
L 39.095343 14.485302 
L 40.992549 15.903369 
L 42.889755 17.321436 
L 44.786962 18.739502 
L 45.663134 20.824952 
L 46.539307 22.910402 
L 47.41548 24.995852 
L 48.291653 27.081302 
L 48.656608 28.650351 
L 49.021563 30.219401 
L 49.386518 31.78845 
L 49.751473 33.3575 
L 49.806146 35.218753 
L 49.86082 37.080007 
L 49.915493 38.94126 
L 49.970166 40.802513 
L 50.024839 42.663767 
L 50.079512 44.52502 
L 50.134186 46.386274 
L 50.188859 48.247527 
L 50.270985 49.816821 
L 50.353112 51.386114 
L 50.435239 52.955408 
L 50.517365 54.524702 
L 50.599492 56.093995 
L 50.681618 57.663289 
L 50.763745 59.232582 
L 50.845871 60.801876 
L 50.927998 62.37117 
L 51.010125 63.940463 
L 51.092251 65.509757 
L 51.174378 67.079051 
L 51.256504 68.648344 
L 51.338631 70.217638 
L 51.420758 71.786932 
L 51.502884 73.356225 
L 51.466435 74.925275 
L 51.429987 76.494325 
L 51.393538 78.063374 
L 51.357089 79.632424 
L 51.072975 81.667437 
L 50.788862 83.702451 
L 50.482318 85.909924 
L 49.496799 87.734733 
L 48.51128 89.559542 
L 47.525761 91.384351 
L 46.540242 93.209161 
L 45.445843 94.668878 
L 44.351445 96.128595 
" style="fill:none;stroke:#008000;stroke-linecap:square;stroke-width:0.4;"/>
   </g>
   <g id="line2d_5">
    <path clip-path="url(#p97d3763045)" d="M 33.986905 9.126064 
L 35.128967 9.793772 
L 37.215427 11.013349 
L 39.301886 12.232925 
L 41.388346 13.452502 
L 43.474805 14.672078 
L 44.752148 15.365493 
L 46.029491 16.058907 
L 47.306834 16.752322 
L 48.584177 17.445736 
L 49.861521 18.139151 
L 51.138864 18.832565 
L 52.416207 19.52598 
L 53.69355 20.219394 
L 55.262717 21.642667 
L 56.831884 23.06594 
L 58.401051 24.489213 
L 59.970218 25.912487 
L 61.575834 27.299316 
L 63.18145 28.686145 
L 64.787065 30.072973 
L 66.392681 31.459802 
L 66.976329 33.175279 
L 67.559977 34.890756 
L 68.143625 36.606233 
L 68.727273 38.32171 
L 68.599702 39.65371 
L 68.472131 40.98571 
L 68.34456 42.31771 
L 68.21699 43.64971 
L 68.089419 44.981711 
L 67.961848 46.313711 
L 67.834277 47.645711 
L 67.706707 48.977711 
L 67.14105 50.45565 
L 66.575392 51.93359 
L 66.009735 53.411529 
L 65.444078 54.889468 
L 64.878421 56.367407 
L 64.312764 57.845347 
L 63.747107 59.323286 
L 63.18145 60.801225 
L 62.524437 62.333993 
L 61.867424 63.866762 
L 61.210411 65.39953 
L 60.553399 66.932298 
L 59.896386 68.465066 
L 59.239373 69.997834 
L 58.58236 71.530603 
L 57.925347 73.063371 
L 57.213895 74.194766 
L 56.502443 75.32616 
L 55.790991 76.457555 
L 55.079538 77.58895 
L 54.368086 78.720344 
L 53.656634 79.851739 
L 52.945181 80.983134 
L 52.233729 82.114529 
L 50.788862 83.702451 
" style="fill:none;stroke:#008000;stroke-linecap:square;stroke-width:0.4;"/>
   </g>
   <g id="line2d_6">
    <path clip-path="url(#p97d3763045)" d="M 59.970218 25.912487 
L 60.188911 27.445417 
L 60.407603 28.978348 
L 60.626296 30.511279 
L 60.844989 32.04421 
L 61.064149 33.941908 
L 61.283309 35.839605 
L 61.502469 37.737302 
L 61.721629 39.635 
L 61.758078 41.459809 
L 61.794526 43.284618 
L 61.830975 45.109428 
L 61.867424 46.934237 
L 62.159482 49.196701 
L 62.451539 51.459165 
L 62.743597 53.721629 
L 63.035654 55.984093 
L 63.108552 58.392659 
L 63.18145 60.801225 
" style="fill:none;stroke:#008000;stroke-linecap:square;stroke-width:0.4;"/>
   </g>
   <g id="line2d_7">
    <path clip-path="url(#p97d3763045)" d="M 37.198137 13.067235 
L 37.088791 14.490508 
L 36.979444 15.913781 
L 36.870098 17.337054 
L 36.760752 18.760328 
L 36.724303 20.621581 
L 36.687854 22.482834 
L 36.651405 24.344088 
L 36.614956 26.205341 
L 36.578508 28.066594 
L 36.542059 29.927848 
L 36.50561 31.789101 
L 36.469161 33.650355 
L 36.688088 35.438557 
L 36.907014 37.226759 
L 37.12594 39.014962 
L 37.344867 40.803164 
L 37.563793 42.591367 
L 37.78272 44.379569 
L 38.001646 46.167772 
L 38.220572 47.955974 
L 38.439499 49.488742 
L 38.658425 51.02151 
L 38.877351 52.554278 
L 39.096278 54.087047 
L 39.315204 55.619815 
L 39.53413 57.152583 
L 39.753057 58.685351 
L 39.971983 60.218119 
L 40.08133 61.915049 
L 40.190676 63.611978 
L 40.300022 65.308908 
L 40.409369 67.005837 
L 40.518715 68.702766 
L 40.628061 70.399696 
L 40.737408 72.096625 
L 40.846754 73.793555 
L 41.084139 75.45404 
L 41.321523 77.114525 
L 41.558907 78.775011 
L 41.796292 80.435496 
L 42.033676 82.095981 
L 42.271061 83.756467 
L 42.508445 85.416952 
L 42.745829 87.077437 
L 42.490221 88.792914 
L 42.234612 90.508391 
L 41.979003 92.223868 
L 41.723394 93.939345 
L 40.993484 94.997526 
L 40.263574 96.055707 
L 39.533663 97.113888 
L 38.803753 98.172069 
" style="fill:none;stroke:#008000;stroke-linecap:square;stroke-width:0.4;"/>
   </g>
   <g id="line2d_8">
    <path clip-path="url(#p97d3763045)" d="M 29.985015 11.083634 
L 28.211175 12.858983 
L 26.680325 14.389636 
L 25.149476 15.920289 
L 23.888722 17.180865 
L 22.627968 18.441442 
L 21.561841 19.17309 
L 20.495714 19.904738 
L 19.429587 20.636386 
L 18.36346 21.368035 
L 17.297333 22.099683 
L 16.231206 22.831331 
L 15.165079 23.56298 
L 14.098952 24.294628 
L 12.958759 25.928105 
L 11.818566 27.561583 
L 10.678373 29.195061 
L 9.53818 30.828538 
L 8.1335 32.842076 
L 6.72882 34.855614 
L 6.296808 36.442885 
L 5.864797 38.030157 
L 5.432785 39.617429 
L 5.000774 41.2047 
L 4.568762 42.791972 
L 4.13675 44.379244 
L 3.704739 45.966515 
L 3.272727 47.553787 
L 3.336279 49.300827 
L 3.399831 51.047867 
L 3.463382 52.794907 
L 3.526934 54.541947 
L 3.590486 56.288987 
L 3.654038 58.036028 
L 3.717589 59.783068 
L 3.781141 61.530108 
L 4.113853 63.710247 
L 4.446565 65.890387 
L 4.779277 68.070526 
L 5.111989 70.250665 
L 5.444701 72.430805 
L 5.777413 74.610944 
L 6.110125 76.791084 
L 6.442837 78.971223 
L 7.496231 79.933006 
L 8.549624 80.89479 
L 9.603017 81.856573 
L 10.65641 82.818356 
L 11.709804 83.780139 
L 12.763197 84.741922 
L 13.81659 85.703705 
L 14.869984 86.665488 
L 15.923377 87.627272 
L 16.97677 88.589055 
L 18.030164 89.550838 
L 19.083557 90.512621 
L 20.13695 91.474404 
L 21.190344 92.436187 
L 22.243737 93.397971 
L 23.29713 94.359754 
L 24.676577 95.133052 
L 26.056023 95.906351 
L 27.43547 96.67965 
L 28.814916 97.452949 
L 30.194362 98.226247 
L 31.573809 98.999546 
L 32.953255 99.772845 
L 34.332702 100.546143 
" style="fill:none;stroke:#4169e1;stroke-linecap:square;stroke-width:0.4;"/>
   </g>
   <g id="line2d_9">
    <path clip-path="url(#p97d3763045)" d="M 25.149476 15.920289 
L 25.580086 17.169639 
L 26.010696 18.418989 
L 26.441306 19.668339 
L 26.871915 20.917689 
L 27.302525 22.16704 
L 27.733135 23.41639 
L 28.163744 24.66574 
L 28.594354 25.91509 
L 28.594354 27.448021 
L 28.594354 28.980951 
L 28.594354 30.513882 
L 28.594354 32.046813 
L 28.594354 33.579744 
L 28.594354 35.112675 
L 28.594354 36.645606 
L 28.594354 38.178537 
L 28.296689 39.637115 
L 27.999024 41.095693 
L 27.701359 42.554272 
L 27.403694 44.01285 
L 27.106029 45.471428 
L 26.808363 46.930007 
L 26.510698 48.388585 
L 26.213033 49.847164 
L 26.093874 51.871114 
L 25.974714 53.895064 
L 25.855555 55.919015 
L 25.736395 57.942965 
L 25.721442 59.609958 
L 25.706489 61.276951 
L 25.691535 62.943944 
L 25.676582 64.610938 
L 25.661629 66.277931 
L 25.646675 67.944924 
L 25.631722 69.611917 
L 25.616769 71.27891 
L 25.942004 72.700882 
L 26.267239 74.122853 
L 26.819111 76.537277 
L 27.370983 78.9517 
L 27.922855 81.366123 
L 28.474727 83.780546 
L 29.178937 86.135096 
L 29.883146 88.489647 
L 30.587355 90.844197 
L 31.291564 93.198748 
L 31.788763 94.859559 
L 32.285962 96.520369 
L 33.309332 98.533256 
L 34.332702 100.546143 
" style="fill:none;stroke:#008000;stroke-linecap:square;stroke-width:0.4;"/>
   </g>
   <g id="line2d_10">
    <path clip-path="url(#p97d3763045)" d="M 9.53818 30.828538 
L 9.986314 32.16005 
L 10.434447 33.491562 
L 10.88258 34.823074 
L 11.330713 36.154586 
L 11.687724 37.613002 
L 12.044735 39.071418 
L 12.401747 40.529833 
L 12.758758 41.988249 
L 12.907824 44.190841 
L 13.05689 46.393432 
L 13.205956 48.596024 
L 13.355023 50.798615 
L 13.235863 52.346514 
L 13.116704 53.894413 
L 12.997544 55.442312 
L 12.878385 56.990211 
L 12.759225 58.53811 
L 12.640066 60.086009 
L 12.520906 61.633908 
L 12.401747 63.181807 
L 12.698944 65.384724 
L 12.996142 67.587641 
L 13.532126 69.224698 
L 14.06811 70.861755 
L 14.604095 72.498812 
L 15.140079 74.135869 
L 15.943821 76.219692 
L 16.747564 78.303515 
L 17.551306 80.387338 
L 18.355049 82.47116 
L 19.456456 83.810482 
L 20.557864 85.149803 
L 21.659271 86.489125 
L 22.760679 87.828446 
L 24.159752 88.751264 
L 25.558824 89.674081 
L 26.957897 90.596898 
L 28.35697 91.519715 
L 29.824267 92.359232 
L 31.291564 93.198748 
" style="fill:none;stroke:#4169e1;stroke-linecap:square;stroke-width:0.4;"/>
   </g>
   <g id="line2d_11">
    <path clip-path="url(#p97d3763045)" d="M 11.330713 36.154586 
L 12.699879 37.226109 
L 14.069045 38.297631 
L 15.438211 39.369153 
L 16.807377 40.440675 
L 17.313454 42.762361 
L 17.819532 45.084047 
L 18.325609 47.405733 
L 18.831687 49.727419 
L 19.010192 51.453959 
L 19.188698 53.180499 
L 19.367203 54.907039 
L 19.545709 56.63358 
L 19.90272 58.270637 
L 20.259731 59.907694 
L 20.616743 61.54475 
L 20.973754 63.181807 
L 21.628897 65.205758 
L 22.284041 67.229708 
L 23.27984 68.952994 
L 24.27564 70.676281 
L 25.27144 72.399567 
L 26.267239 74.122853 
" style="fill:none;stroke:#4169e1;stroke-linecap:square;stroke-width:0.4;"/>
   </g>
   <g id="line2d_12">
    <path clip-path="url(#p97d3763045)" d="M 59.906666 74.198345 
L 59.293579 76.209279 
L 59.184233 77.520292 
L 59.074886 78.831304 
L 58.96554 80.142316 
L 58.856193 81.453328 
L 58.944044 83.856688 
L 59.031895 86.260048 
L 59.555262 88.095269 
" style="fill:none;stroke:#008000;stroke-linecap:square;stroke-width:0.4;"/>
   </g>
  </g>
 </g>
 <defs>
  <clipPath id="p97d3763045">
   <rect height="105.334055" width="72" x="0" y="0"/>
  </clipPath>
 </defs>
</svg>
