<?xml version="1.0" encoding="utf-8" standalone="no"?>
<!DOCTYPE svg PUBLIC "-//W3C//DTD SVG 1.1//EN"
  "http://www.w3.org/Graphics/SVG/1.1/DTD/svg11.dtd">
<svg height="72pt" version="1.1" viewBox="0 0 170.413194 72" width="170.413194pt" xmlns="http://www.w3.org/2000/svg" xmlns:xlink="http://www.w3.org/1999/xlink">
 <metadata>
  <rdf:RDF xmlns:cc="http://creativecommons.org/ns#" xmlns:dc="http://purl.org/dc/elements/1.1/" xmlns:rdf="http://www.w3.org/1999/02/22-rdf-syntax-ns#">
   <cc:Work>
    <dc:type rdf:resource="http://purl.org/dc/dcmitype/StillImage"/>
    <dc:date>2022-05-22T19:55:51.474586</dc:date>
    <dc:format>image/svg+xml</dc:format>
    <dc:creator>
     <cc:Agent>
      <dc:title>Matplotlib v3.4.3, https://matplotlib.org/</dc:title>
     </cc:Agent>
    </dc:creator>
   </cc:Work>
  </rdf:RDF>
 </metadata>
 <defs>
  <style type="text/css">*{stroke-linecap:butt;stroke-linejoin:round;}</style>
 </defs>
 <g id="figure_1">
  <g id="patch_1">
   <path d="M 0 72 
L 170.413194 72 
L 170.413194 0 
L 0 0 
z
" style="fill:#ffffff;"/>
  </g>
  <g id="axes_1">
   <g id="line2d_1">
    <path clip-path="url(#pdb7e313b50)" d="M 113.615863 59.334045 
L 113.407367 56.058898 
" style="fill:none;stroke:#808080;stroke-linecap:square;stroke-width:0.78895;"/>
   </g>
   <g id="line2d_2">
    <path clip-path="url(#pdb7e313b50)" d="M 110.471852 64.994437 
L 108.647039 64.279882 
L 106.822225 63.565328 
L 104.878498 62.803646 
L 102.934772 62.041964 
L 99.554849 60.716451 
L 97.510382 59.915284 
L 95.465915 59.114117 
L 93.398175 58.303184 
L 91.75699 57.659533 
" style="fill:none;stroke:#808080;stroke-linecap:square;stroke-width:0.78895;"/>
   </g>
   <g id="line2d_3">
    <path clip-path="url(#pdb7e313b50)" d="M 111.975315 62.947151 
L 113.710228 61.000065 
L 115.422186 59.081 
L 117.134145 57.161935 
L 118.846103 55.24287 
L 120.558062 53.323806 
L 121.855579 51.869435 
L 123.153097 50.415064 
L 124.450615 48.960693 
L 125.748133 47.506322 
L 127.045492 46.051951 
L 128.34285 44.59758 
L 129.640209 43.143209 
L 130.937567 41.688838 
L 132.798724 39.602917 
L 134.659881 37.516995 
L 136.758226 35.164443 
L 138.856571 32.81189 
L 140.463644 31.010431 
L 142.070717 29.208973 
L 143.436458 27.677967 
L 144.80475 26.143989 
L 146.173041 24.610011 
L 148.224203 22.31053 
L 150.462183 19.802159 
L 152.111656 17.95612 
L 153.76113 16.110082 
" style="fill:none;stroke:#808080;stroke-linecap:square;stroke-width:0.78895;"/>
   </g>
   <g id="line2d_4">
    <path clip-path="url(#pdb7e313b50)" d="M 116.382413 61.910347 
L 118.71667 60.156016 
L 120.450307 58.855552 
L 122.183944 57.555089 
L 124.856767 55.549411 
L 127.428211 53.620157 
L 129.035285 52.414373 
L 130.642358 51.208589 
L 132.484387 49.826607 
L 134.326416 48.444626 
L 136.091933 47.119537 
L 137.85745 45.794448 
L 139.899686 44.262168 
L 141.941921 42.729889 
L 143.550589 41.522831 
L 145.159256 40.315773 
L 147.327418 38.689238 
L 149.49558 37.062703 
L 151.94588 35.223458 
L 153.685893 33.918324 
L 156.343414 31.923686 
L 158.849185 30.043681 
L 159.67169 29.426354 
L 161.356232 28.162828 
" style="fill:none;stroke:#808080;stroke-linecap:square;stroke-width:0.78895;"/>
   </g>
   <g id="line2d_5">
    <path clip-path="url(#pdb7e313b50)" d="M 7.746054 28.396343 
L 11.124702 27.965827 
L 14.503349 27.535311 
L 16.992224 27.218156 
L 19.481099 26.901 
L 21.493687 26.644559 
L 23.506274 26.388118 
L 26.927641 25.952507 
L 28.709735 25.725786 
L 30.857175 25.452361 
L 33.004615 25.178937 
L 35.80719 24.821872 
L 38.609765 24.464807 
L 40.911185 24.171428 
L 43.212606 23.878049 
L 46.635248 23.442014 
L 50.057889 23.005978 
L 52.994679 22.63193 
L 55.931469 22.257883 
L 59.132863 21.850294 
L 62.334258 21.442705 
L 63.837721 21.250798 
L 66.10758 20.96124 
L 67.205529 20.821981 
L 68.749161 20.625828 
" style="fill:none;stroke:#808080;stroke-linecap:square;stroke-width:0.78895;"/>
   </g>
   <g id="line2d_6">
    <path clip-path="url(#pdb7e313b50)" d="M 150.288755 31.703757 
L 149.604928 32.601302 
L 148.921101 33.498847 
L 148.458203 33.961843 
L 147.995305 34.424838 
L 147.532406 34.887834 
L 147.069508 35.35083 
L 146.328616 35.849277 
L 145.587724 36.347724 
L 145.018027 37.074167 
L 144.448331 37.800609 
L 143.992446 38.655272 
L 143.536561 39.509936 
L 142.895454 40.008383 
L 142.254346 40.50683 
L 141.299857 40.934374 
L 140.345369 41.361918 
L 139.277068 41.461692 
L 138.208768 41.561467 
L 137.296999 41.618359 
" style="fill:none;stroke:#4169e1;stroke-linecap:square;stroke-width:0.78895;"/>
   </g>
   <g id="line2d_7">
    <path clip-path="url(#pdb7e313b50)" d="M 161.356232 28.162828 
L 161.234769 29.03872 
L 161.113306 29.914612 
L 160.529104 30.357865 
L 159.944902 30.801118 
L 159.360701 31.244371 
L 158.776499 31.687624 
L 158.1118 32.412792 
L 157.447101 33.137961 
L 156.842655 33.984133 
L 156.238209 34.830305 
L 155.776905 35.476503 
L 155.315601 36.122701 
L 154.851268 36.464482 
L 154.386935 36.806262 
L 153.922602 37.148042 
L 153.458269 37.489823 
L 152.531516 37.953031 
L 151.604763 38.416238 
L 150.859408 38.899826 
L 150.114052 39.383413 
L 149.308125 40.027913 
L 148.502197 40.672413 
L 147.684155 41.326679 
L 146.866113 41.980944 
L 146.737318 42.575769 
L 146.608523 43.170594 
L 146.266131 44.218013 
L 145.923739 45.265432 
L 145.258881 45.66835 
L 144.594022 46.071269 
L 143.929164 46.474188 
L 143.264306 46.877106 
L 142.448336 47.420983 
L 141.632366 47.96486 
L 140.816396 48.508736 
L 140.000427 49.052613 
L 139.114161 49.636824 
L 138.227896 50.221034 
L 137.291101 50.613763 
L 136.354306 51.006492 
L 135.417511 51.399221 
L 134.480715 51.79195 
L 133.73536 52.1142 
L 132.990004 52.43645 
L 132.244649 52.7587 
L 131.499293 53.080951 
L 130.552297 53.715473 
L 129.6053 54.349996 
L 128.658303 54.984518 
L 127.711306 55.619041 
L 127.204374 55.960928 
L 126.697441 56.302814 
L 126.190509 56.644701 
L 125.683576 56.986587 
L 125.176643 57.328474 
L 124.669711 57.67036 
L 124.162778 58.012247 
L 123.655846 58.354133 
L 123.148913 58.69602 
L 122.64198 59.037906 
L 122.135048 59.379793 
L 121.628115 59.721679 
L 121.121183 60.063565 
L 120.61425 60.405452 
L 120.107318 60.747338 
L 119.600385 61.089225 
" style="fill:none;stroke:#4169e1;stroke-linecap:square;stroke-width:0.78895;"/>
   </g>
   <g id="line2d_8">
    <path clip-path="url(#pdb7e313b50)" d="M 160.239793 33.802841 
L 159.534606 34.145046 
L 158.82942 34.48725 
L 158.043895 34.990793 
L 157.258371 35.494335 
L 157.097058 36.159214 
L 156.935745 36.824094 
L 156.996317 37.871513 
L 157.056889 38.918932 
L 157.056889 39.66448 
L 157.056889 40.410028 
L 156.794835 41.175531 
L 156.532781 41.941034 
L 155.727172 42.645823 
L 154.921563 43.350613 
L 154.034979 43.934824 
L 153.148395 44.519034 
L 152.463612 45.023001 
L 151.778829 45.526968 
L 151.577347 46.111179 
L 151.375865 46.69539 
L 150.630509 47.541137 
L 149.885154 48.386884 
L 148.937998 48.890426 
L 147.990841 49.393968 
L 147.154787 49.9077 
L 146.318733 50.421432 
L 145.482679 50.935164 
L 144.646625 51.448896 
L 144.062423 51.791313 
L 143.478221 52.133731 
L 142.894019 52.476148 
L 142.309817 52.818565 
L 141.725615 52.999857 
L 141.141413 53.181149 
L 140.557212 53.362442 
L 139.97301 53.543734 
L 139.126913 53.685116 
L 138.280817 53.826499 
L 137.676371 54.289707 
L 137.071926 54.752915 
" style="fill:none;stroke:#4169e1;stroke-linecap:square;stroke-width:0.78895;"/>
   </g>
   <g id="line2d_9">
    <path clip-path="url(#pdb7e313b50)" d="M 161.113306 29.914612 
L 161.912858 29.884891 
L 162.289999 30.536185 
L 162.66714 31.187478 
L 162.541532 31.83028 
L 162.415925 32.473082 
L 161.871892 32.805521 
L 161.327859 33.137961 
L 160.783826 33.470401 
L 160.239793 33.802841 
L 160.259877 34.447341 
L 160.279962 35.091841 
L 160.340374 35.887488 
L 160.400787 36.683136 
L 160.4612 37.478784 
L 160.521612 38.274431 
L 160.471401 39.130581 
L 160.42119 39.98673 
L 160.370979 40.842879 
L 160.320768 41.699028 
L 160.310567 42.474721 
L 160.300365 43.250414 
L 160.290163 44.026106 
L 160.279962 44.801799 
L 160.481444 45.557113 
L 160.682925 46.312426 
L 160.884407 47.067739 
L 161.085889 47.823053 
L 161.176588 48.528054 
L 161.267287 49.233056 
L 161.357985 49.938057 
L 161.448684 50.643059 
L 161.247202 51.670523 
L 161.04572 52.697987 
L 160.904811 53.483445 
L 160.763901 54.268903 
L 160.199624 54.611532 
L 159.635347 54.954162 
L 159.041103 55.155621 
L 158.446859 55.35708 
L 157.852615 55.55854 
L 157.258371 55.759999 
L 156.663967 55.961458 
L 156.069564 56.162918 
L 155.47516 56.364377 
L 154.880757 56.565836 
" style="fill:none;stroke:#4169e1;stroke-linecap:square;stroke-width:0.78895;"/>
   </g>
   <g id="line2d_10">
    <path clip-path="url(#pdb7e313b50)" d="M 153.458269 37.489823 
L 153.303332 38.32538 
L 153.148395 39.160938 
L 152.866257 39.966775 
L 152.584118 40.772612 
L 152.140986 41.477826 
L 151.697853 42.18304 
L 151.194148 42.545624 
L 150.690444 42.908209 
L 150.227227 43.311127 
L 149.76401 43.714046 
L 149.018654 43.955628 
L 148.273299 44.197209 
L 147.685909 44.464265 
L 147.098519 44.73132 
L 146.511129 44.998376 
L 145.923739 45.265432 
" style="fill:none;stroke:#4169e1;stroke-linecap:square;stroke-width:0.78895;"/>
   </g>
   <g id="line2d_11">
    <path clip-path="url(#pdb7e313b50)" d="M 55.564849 14.229229 
L 54.98232 14.089226 
L 54.399792 13.949224 
L 53.817264 13.809221 
L 53.234736 13.669218 
L 52.652208 13.529216 
L 52.06968 13.389213 
L 51.487152 13.249211 
L 50.904623 13.109208 
L 50.238012 12.836527 
L 49.5714 12.563846 
L 48.904788 12.291164 
L 48.238176 12.018483 
L 47.571565 11.745802 
L 46.904953 11.47312 
L 46.238341 11.200439 
L 45.571729 10.927758 
L 44.801986 10.667283 
L 44.032242 10.406808 
L 43.262498 10.146333 
L 42.492754 9.885859 
L 41.898909 9.85858 
L 41.305063 9.831301 
L 40.711218 9.804022 
L 40.117372 9.776744 
L 39.523527 9.749465 
L 38.929681 9.722186 
L 38.335835 9.694907 
L 37.74199 9.667629 
L 36.614711 9.837245 
L 35.487433 10.006862 
L 34.360155 10.176478 
L 33.232876 10.346094 
L 32.378331 10.358195 
L 31.523787 10.370295 
L 30.669242 10.382395 
L 29.814698 10.394496 
L 28.826894 10.103664 
L 27.839091 9.812832 
L 26.851288 9.522 
L 25.863485 9.231169 
L 24.936413 9.006995 
L 24.009341 8.782821 
L 23.082269 8.558647 
L 22.155198 8.334473 
L 21.445229 8.396885 
L 20.73526 8.459297 
L 20.025292 8.521709 
L 19.315323 8.584121 
" style="fill:none;stroke:#008000;stroke-linecap:square;stroke-width:0.78895;"/>
   </g>
   <g id="line2d_12">
    <path clip-path="url(#pdb7e313b50)" d="M 68.749161 20.625828 
L 69.739674 20.491239 
L 70.730187 20.35665 
L 71.712092 20.186821 
L 72.693998 20.016992 
L 73.481753 19.386928 
L 74.269509 18.756863 
L 75.093609 18.684261 
L 75.917708 18.611659 
L 76.905511 18.599347 
L 77.893314 18.587034 
L 78.881118 18.574722 
L 79.868921 18.562409 
L 80.668871 18.795711 
L 81.468821 19.029014 
L 82.268771 19.262316 
L 83.068721 19.495618 
L 83.868671 19.72892 
L 84.668621 19.962223 
L 85.468571 20.195525 
L 86.268521 20.428827 
L 86.987018 20.657777 
L 87.705514 20.886728 
L 88.424011 21.115678 
L 89.142507 21.344629 
L 89.861004 21.573579 
L 90.579501 21.802529 
L 91.297997 22.03148 
L 92.016494 22.26043 
L 92.603565 22.457007 
L 93.190636 22.653584 
L 93.777707 22.85016 
L 94.364778 23.046737 
L 95.116509 23.834742 
L 95.868241 24.622748 
L 96.716569 24.961981 
L 97.564897 25.301214 
L 97.940603 25.864833 
L 98.31631 26.428452 
L 98.692016 26.992071 
L 99.067722 27.55569 
L 99.540503 27.943537 
L 100.013284 28.331383 
L 100.486066 28.719229 
L 100.958847 29.107076 
L 101.249593 30.016084 
L 101.540339 30.925093 
L 101.566321 31.758952 
L 101.592303 32.592811 
L 101.618285 33.42667 
L 101.644268 34.260529 
" style="fill:none;stroke:#008000;stroke-linecap:square;stroke-width:0.78895;"/>
   </g>
   <g id="line2d_13">
    <path clip-path="url(#pdb7e313b50)" d="M 153.76113 16.110082 
L 153.050205 17.94678 
L 151.425598 20.249658 
L 149.922772 21.024926 
L 146.989808 21.122577 
L 142.772078 21.849444 
L 137.180158 21.588014 
L 131.061899 20.59908 
L 129.516195 20.378091 
L 126.684769 20.080678 
L 118.661199 20.952749 
L 117.134145 20.710743 
L 113.42522 19.207758 
L 111.601044 19.57756 
L 109.692067 20.17748 
L 108.868286 21.26863 
L 108.868286 25.510103 
L 106.46991 28.529287 
L 100.044527 36.151572 
L 99.753781 37.314899 
L 100.117213 38.381424 
L 101.838098 39.98121 
L 103.753451 41.217564 
L 104.431859 41.969056 
L 104.456088 42.768949 
L 104.044197 43.350613 
L 99.765895 44.150506 
L 98.493244 44.51394 
L 96.553662 45.895496 
L 95.040635 49.038177 
L 94.484009 50.337367 
L 94.17541 52.651284 
L 94.638309 53.661765 
L 95.135637 54.14238 
L 100.054728 55.101913 
L 103.986813 55.147342 
L 109.867726 54.872219 
L 110.776626 54.811505 
L 116.503557 56.02387 
L 118.339848 56.677923 
L 119.140675 57.268078 
L 119.745758 58.641144 
L 119.600385 61.089225 
L 119.28541 61.962145 
L 118.294578 62.010546 
L 117.111828 62.456346 
L 116.382413 61.910347 
L 116.382413 61.910347 
" style="fill:none;stroke:#008000;stroke-linecap:square;stroke-width:0.78895;"/>
   </g>
   <g id="line2d_14">
    <path clip-path="url(#pdb7e313b50)" d="M 61.833103 26.000908 
L 61.63465 26.596582 
L 61.436197 27.192257 
L 61.237743 27.787931 
L 61.03929 28.383605 
L 60.505937 29.316814 
L 59.972584 30.250023 
L 59.033238 30.843999 
L 58.093893 31.437975 
L 57.154547 32.031951 
L 56.215202 32.625927 
L 55.318416 33.098476 
L 54.42163 33.571024 
L 53.948849 34.025529 
L 53.476068 34.480033 
L 53.003287 34.934537 
L 52.530506 35.389041 
L 52.203895 35.902348 
L 51.877284 36.415656 
L 51.550673 36.928963 
L 51.224061 37.442271 
L 50.89745 37.955578 
L 50.570839 38.468885 
L 50.244228 38.982193 
L 49.917617 39.4955 
L 49.180551 40.09542 
L 48.443484 40.69534 
L 47.706417 41.29526 
L 46.96935 41.89518 
L 46.300826 42.255217 
L 45.632301 42.615254 
L 44.963777 42.975291 
L 44.295252 43.335328 
L 43.556193 43.616713 
L 42.817134 43.898098 
L 42.078075 44.179483 
L 41.339016 44.460868 
L 40.599956 44.742253 
L 39.860897 45.023638 
L 39.121838 45.305023 
L 38.382779 45.586408 
L 37.624034 45.606363 
L 36.865289 45.626318 
L 36.106544 45.646273 
L 35.347798 45.666228 
L 34.319348 45.631837 
L 33.290898 45.597447 
L 32.773963 45.292074 
L 32.257028 44.9867 
L 31.740093 44.681327 
L 31.223158 44.375954 
L 30.706223 44.07058 
L 30.189288 43.765207 
L 29.672353 43.459834 
L 29.155418 43.15446 
L 28.603973 42.751436 
L 28.052528 42.348411 
L 27.501083 41.945386 
L 26.949638 41.542361 
L 26.398193 41.139336 
L 25.846748 40.736311 
L 25.295302 40.333287 
L 24.743857 39.930262 
L 23.749997 39.445613 
L 22.756136 38.960964 
L 21.762276 38.476315 
L 20.768416 37.991667 
L 19.997715 37.846888 
L 19.227015 37.702109 
L 18.456315 37.55733 
L 17.685615 37.412551 
" style="fill:none;stroke:#000000;stroke-linecap:square;stroke-width:0.78895;"/>
   </g>
   <g id="line2d_15">
    <path clip-path="url(#pdb7e313b50)" d="M 61.522592 42.146527 
L 61.319038 42.715665 
L 61.115483 43.284804 
L 60.911929 43.853943 
L 60.708375 44.423081 
L 60.041764 44.725801 
L 59.375152 45.028521 
L 58.70854 45.034677 
L 58.041928 45.040833 
L 57.375316 45.046989 
L 56.708705 45.053146 
L 55.945178 44.671456 
L 55.18165 44.289766 
L 54.418123 43.908075 
L 53.654596 43.526385 
L 52.757492 43.477984 
L 52.175681 43.853518 
L 51.59387 44.229052 
L 51.012059 44.604586 
L 50.430248 44.980119 
L 49.406102 45.483237 
L 48.381955 45.986355 
L 47.357809 46.489472 
L 46.333662 46.99259 
L 45.291504 46.810449 
L 44.249345 46.628307 
L 43.516024 46.49807 
L 42.782703 46.367833 
L 42.049383 46.237595 
L 41.316062 46.107358 
L 40.582741 45.97712 
L 39.84942 45.846883 
L 39.1161 45.716645 
L 38.382779 45.586408 
" style="fill:none;stroke:#4169e1;stroke-linecap:square;stroke-width:0.78895;"/>
   </g>
   <g id="line2d_16">
    <path clip-path="url(#pdb7e313b50)" d="M 36.401115 25.273192 
L 35.576219 25.355877 
L 34.751323 25.438563 
L 33.926427 25.521248 
L 33.10153 25.603933 
L 32.276634 25.686619 
L 31.451738 25.769304 
L 30.626842 25.85199 
L 29.801946 25.934675 
L 28.913608 25.848487 
L 28.025271 25.762299 
L 27.136933 25.676111 
L 26.248596 25.589923 
L 25.48475 25.650212 
L 24.720904 25.710501 
L 24.236327 26.24249 
L 23.75175 26.774478 
L 23.242626 27.333215 
L 22.733502 27.891951 
L 21.876725 28.587188 
L 21.019949 29.282424 
L 20.163173 29.97766 
L 19.306397 30.672897 
L 18.448186 31.044185 
L 17.589975 31.415473 
L 16.731764 31.786761 
L 15.873553 32.158049 
L 15.000837 32.267164 
L 14.128121 32.376279 
L 13.255404 32.485394 
L 12.382688 32.594509 
L 11.586643 32.568186 
L 10.790599 32.541862 
" style="fill:none;stroke:#4169e1;stroke-linecap:square;stroke-width:0.78895;"/>
   </g>
   <g id="line2d_17">
    <path clip-path="url(#pdb7e313b50)" d="M 86.445137 24.440182 
L 85.623429 24.490918 
L 84.80172 24.541655 
L 83.980012 24.592391 
L 83.158304 24.643127 
L 82.576493 24.788755 
L 81.994682 24.934384 
L 81.388643 25.297817 
L 80.782603 25.661251 
L 80.176563 26.024684 
L 79.570524 26.388118 
L 78.849397 27.103309 
L 78.12827 27.8185 
L 77.407144 28.533692 
L 76.686017 29.248883 
L 76.110263 29.66093 
L 75.53451 30.072977 
L 74.958756 30.485024 
L 74.383002 30.897071 
L 73.770905 31.109144 
L 73.158809 31.321218 
L 72.546712 31.533292 
L 71.934615 31.745365 
L 71.177145 32.296884 
L 70.419675 32.848403 
L 69.662205 33.399922 
L 68.904735 33.951441 
L 68.189188 34.65899 
L 67.47364 35.366539 
L 66.758092 36.074088 
L 66.042545 36.781637 
L 65.412276 37.096669 
L 64.782008 37.411701 
L 63.848879 37.666445 
L 62.91575 37.921188 
L 62.447113 38.305425 
L 61.978476 38.689663 
L 62.098664 39.409737 
L 62.218852 40.12981 
L 61.870722 41.138169 
L 61.522592 42.146527 
L 62.116198 42.813105 
L 62.709805 43.479682 
L 62.776593 44.200818 
L 62.843382 44.921953 
L 62.910171 45.643088 
L 62.976959 46.364224 
L 63.073875 47.436904 
L 63.17079 48.509585 
L 63.267705 49.582266 
L 63.364621 50.654947 
L 63.413078 51.51513 
L 63.461536 52.375312 
L 63.031315 53.405536 
L 62.601094 54.435759 
L 62.170872 55.465983 
L 61.740651 56.496207 
L 61.589062 57.574831 
L 61.437472 58.653456 
L 61.285882 59.732081 
L 61.134293 60.810706 
L 61.08982 61.406805 
L 61.045347 62.002904 
L 61.000875 62.599002 
L 60.956402 63.195101 
" style="fill:none;stroke:#008000;stroke-linecap:square;stroke-width:0.78895;"/>
   </g>
   <g id="line2d_18">
    <path clip-path="url(#pdb7e313b50)" d="M 116.500369 20.453452 
L 116.271152 21.155269 
L 116.041934 21.857087 
L 115.90485 22.902383 
L 116.011967 23.47237 
L 116.119084 24.042358 
L 116.226201 24.612346 
L 116.333318 25.182334 
L 116.264776 25.91939 
L 116.196234 26.656447 
L 116.393252 27.311986 
L 116.590271 27.967525 
L 116.78729 28.623064 
L 116.984308 29.278603 
L 117.037548 30.008866 
L 117.090788 30.73913 
L 117.26039 31.688473 
L 117.429991 32.637815 
L 117.39588 33.374872 
L 117.361768 34.111929 
L 116.9333 35.157225 
L 117.207469 36.20337 
L 117.490245 36.906036 
L 117.773021 37.608703 
L 118.055797 38.311369 
L 118.338573 39.014036 
L 119.101462 39.502293 
L 119.864352 39.990551 
L 120.579899 40.517657 
L 121.295447 41.044763 
L 122.010995 41.571869 
L 122.726542 42.098975 
L 123.377852 42.870422 
L 124.029161 43.641869 
L 124.213746 44.526464 
L 124.398332 45.41106 
L 124.582917 46.295655 
L 124.767503 47.180251 
" style="fill:none;stroke:#008000;stroke-linecap:square;stroke-width:0.78895;"/>
   </g>
   <g id="line2d_19">
    <path clip-path="url(#pdb7e313b50)" d="M 138.769219 21.711034 
L 138.545581 22.383556 
L 138.321942 23.056078 
L 138.098304 23.7286 
L 137.874665 24.401121 
" style="fill:none;stroke:#008000;stroke-linecap:square;stroke-width:0.78895;"/>
   </g>
   <g id="line2d_20">
    <path clip-path="url(#pdb7e313b50)" d="M 53.792318 64.534201 
L 53.174164 64.040318 
L 52.55601 63.546435 
L 51.937856 63.052551 
L 51.319702 62.558668 
L 50.701548 62.064785 
L 50.083393 61.570902 
L 49.465239 61.077019 
L 48.847085 60.583135 
L 48.047135 59.931736 
L 47.247185 59.280337 
L 46.447235 58.628937 
L 45.647285 57.977538 
L 44.847335 57.326138 
L 44.047385 56.674739 
L 43.247435 56.02334 
L 42.447485 55.37194 
L 41.900543 55.002297 
L 41.353601 54.632655 
L 40.806659 54.263012 
L 40.259717 53.893369 
L 39.712774 53.523726 
L 39.165832 53.154083 
L 38.61889 52.78444 
L 38.071948 52.414797 
L 37.525006 52.045154 
L 36.978064 51.675512 
L 36.431122 51.305869 
L 35.88418 50.936226 
L 35.337238 50.566583 
L 34.790296 50.19694 
L 34.243354 49.827297 
L 33.696412 49.457654 
L 32.890405 48.92142 
L 32.084397 48.385186 
L 31.27839 47.848951 
L 30.472383 47.312717 
L 29.666376 46.776483 
L 28.860368 46.240249 
L 28.054361 45.704014 
L 27.248354 45.16778 
L 26.578713 44.698098 
L 25.909073 44.228415 
L 25.239433 43.758732 
L 24.569792 43.28905 
L 23.900152 42.819367 
L 23.230512 42.349684 
L 22.560871 41.880002 
L 21.891231 41.410319 
L 21.188276 40.719541 
L 20.485321 40.028762 
L 19.782366 39.337984 
L 19.079411 38.647206 
L 18.382513 38.029878 
L 17.685615 37.412551 
L 17.211081 36.992437 
L 16.736546 36.572323 
L 16.262012 36.152209 
L 15.787477 35.732095 
L 14.848132 35.22919 
L 13.908786 34.726284 
L 12.96944 34.223379 
L 12.030095 33.720474 
L 11.410347 33.131168 
L 10.790599 32.541862 
L 10.042055 31.829431 
L 9.68452 31.338626 
L 9.326986 30.84782 
L 8.969451 30.357015 
L 8.611916 29.86621 
L 8.178985 29.131276 
L 7.746054 28.396343 
" style="fill:none;stroke:#008000;stroke-linecap:square;stroke-width:0.78895;"/>
   </g>
   <g id="line2d_21">
    <path clip-path="url(#pdb7e313b50)" d="M 86.445137 24.440182 
L 86.482596 25.410966 
L 86.520055 26.381749 
L 86.557514 27.352533 
L 86.594973 28.323316 
L 86.432146 29.1075 
L 86.269318 29.891685 
L 86.106491 30.675869 
L 85.943664 31.460053 
L 85.780836 32.244237 
L 85.618009 33.028422 
L 85.455182 33.812606 
L 85.292354 34.59679 
L 85.010774 35.371952 
L 84.729193 36.147114 
L 84.447613 36.922276 
L 84.166032 37.697438 
L 83.884452 38.4726 
L 83.602871 39.247762 
L 83.321291 40.022925 
L 83.03971 40.798087 
L 82.991252 41.840411 
L 82.942795 42.882734 
L 82.688233 43.470554 
L 82.43367 44.058374 
L 82.179108 44.646194 
L 81.924546 45.234013 
L 81.379238 45.62186 
L 80.83393 46.009706 
L 80.288622 46.397553 
L 79.743313 46.785399 
L 79.176646 47.318661 
L 78.609978 47.851923 
L 78.04331 48.385186 
L 77.476642 48.918448 
L 76.909974 49.45171 
L 76.343306 49.984973 
L 75.776639 50.518235 
L 75.209971 51.051497 
L 74.622103 51.524046 
L 74.034235 51.996594 
L 73.446367 52.469142 
L 72.858499 52.941691 
L 72.434335 53.378151 
L 72.010171 53.814611 
L 71.586006 54.251071 
L 71.161842 54.68753 
L 70.602786 55.131367 
L 70.04373 55.575204 
L 69.484673 56.019041 
L 68.925617 56.462878 
L 68.36656 56.906714 
L 67.807504 57.350551 
L 67.248447 57.794388 
L 66.689391 58.238225 
L 66.130334 58.682062 
L 65.571278 59.125899 
L 65.012221 59.569735 
L 64.453165 60.013572 
L 63.894108 60.457409 
L 63.335052 60.901246 
L 62.775996 61.345083 
L 62.216939 61.788919 
L 61.586671 62.49201 
L 60.956402 63.195101 
L 60.071731 63.606936 
L 59.187059 64.018771 
L 58.265886 64.103685 
L 57.344712 64.1886 
L 56.423538 64.273514 
L 55.502364 64.358428 
L 54.647341 64.446315 
L 53.792318 64.534201 
" style="fill:none;stroke:#008000;stroke-linecap:square;stroke-width:0.78895;"/>
   </g>
   <g id="line2d_22">
    <path clip-path="url(#pdb7e313b50)" d="M 72.693998 20.016992 
L 72.076003 19.586264 
L 71.458008 19.155536 
L 70.840013 18.724808 
L 70.222019 18.29408 
L 69.179541 18.209165 
L 68.137064 18.124251 
L 67.470452 18.269667 
L 66.80384 18.415083 
L 66.137228 18.560499 
L 65.470617 18.705914 
L 64.90092 18.881687 
L 64.331224 19.05746 
L 63.761527 19.233233 
L 63.191831 19.409005 
L 62.404075 19.409005 
L 61.616319 19.409005 
L 60.828563 19.409005 
L 60.040807 19.409005 
L 58.93186 19.427262 
L 57.822912 19.445519 
L 56.713965 19.463775 
L 55.605017 19.482032 
L 55.035321 19.566734 
L 54.465625 19.651436 
L 53.895928 19.736138 
L 53.326232 19.82084 
L 52.3142 19.633179 
L 51.302168 19.445519 
L 50.290136 19.257858 
L 49.278103 19.070197 
L 48.611492 19.106498 
L 47.94488 19.142799 
L 47.278268 19.1791 
L 46.611656 19.215401 
L 45.805569 19.609191 
L 44.999482 20.002981 
L 44.193395 20.396772 
L 43.387308 20.790562 
L 42.53898 21.269267 
L 41.690652 21.747972 
L 40.842324 22.226677 
L 39.993996 22.705381 
L 39.095776 23.347334 
L 38.197556 23.989287 
L 37.299335 24.631239 
L 36.401115 25.273192 
L 35.665961 25.798387 
L 34.930807 26.323583 
L 34.104158 26.741998 
L 33.277508 27.160414 
L 32.450859 27.578829 
L 31.624209 27.997245 
L 30.804254 28.5995 
L 29.984299 29.201755 
L 29.164345 29.804011 
L 28.34439 30.406266 
L 27.808167 30.734672 
L 27.271945 31.063078 
L 26.735723 31.391485 
L 26.1995 31.719891 
L 25.663278 32.048297 
L 25.127056 32.376704 
L 24.590833 32.70511 
L 24.054611 33.033516 
" style="fill:none;stroke:#4169e1;stroke-linecap:square;stroke-width:0.78895;"/>
   </g>
   <g id="line2d_23">
    <path clip-path="url(#pdb7e313b50)" d="M 115.823237 46.927206 
L 115.329415 47.313566 
L 114.835593 47.699927 
L 114.341771 48.086287 
L 113.847949 48.472648 
L 113.436378 49.192721 
L 113.024807 49.912795 
L 112.89354 50.554217 
L 112.762274 51.195639 
L 112.631008 51.837061 
L 112.499742 52.478483 
L 112.368476 53.119905 
L 112.23721 53.761327 
L 112.105944 54.402749 
L 111.974678 55.044171 
" style="fill:none;stroke:#008000;stroke-linecap:square;stroke-width:0.78895;"/>
   </g>
   <g id="line2d_24">
    <path clip-path="url(#pdb7e313b50)" d="M 91.75699 57.659533 
L 92.206419 58.019464 
L 92.655848 58.379395 
L 93.105277 58.739326 
L 93.554706 59.099257 
L 94.004135 59.459187 
L 94.453564 59.819118 
L 94.902993 60.179049 
L 95.352422 60.53898 
L 96.089488 60.82599 
L 96.826555 61.113001 
L 97.563622 61.400012 
L 98.300688 61.687022 
L 99.166391 61.935609 
L 100.032094 62.184196 
L 100.897796 62.432783 
L 101.763499 62.681369 
L 102.671761 62.767133 
L 103.580024 62.852896 
L 104.239941 62.848438 
L 104.899858 62.84398 
L 105.559775 62.839522 
L 106.219692 62.835064 
L 106.806763 62.88665 
L 107.393834 62.938235 
L 107.980905 62.989821 
L 108.567976 63.041406 
L 109.408015 63.538155 
L 110.248055 64.034905 
L 110.471852 64.994437 
" style="fill:none;stroke:#008000;stroke-linecap:square;stroke-width:0.78895;"/>
   </g>
   <g id="line2d_25">
    <path clip-path="url(#pdb7e313b50)" d="M 147.288205 16.375015 
L 146.700337 16.447617 
L 146.112469 16.520218 
L 145.524601 16.59282 
L 144.936733 16.665422 
L 144.046004 17.004867 
L 143.155276 17.344312 
L 142.264547 17.683758 
L 141.373819 18.023203 
L 140.755665 18.004946 
L 140.137511 17.98669 
L 139.519357 17.968433 
L 138.901203 17.950176 
L 138.088899 18.216808 
L 137.276595 18.483439 
L 136.355581 18.907586 
L 135.434566 19.331733 
L 134.792821 19.739959 
L 134.151076 20.148185 
L 133.50933 20.556411 
L 132.867585 20.964637 
L 132.327537 21.307903 
L 131.787489 21.651169 
L 131.247441 21.994436 
L 130.707393 22.337702 
L 130.132436 22.683834 
L 129.55748 23.029967 
L 128.982523 23.376099 
L 128.407567 23.722231 
L 127.83261 24.068363 
L 127.257653 24.414495 
L 126.682697 24.760628 
L 126.10774 25.10676 
L 125.447823 25.380927 
L 124.787906 25.655094 
L 124.127989 25.929262 
L 123.468072 26.203429 
L 122.808155 26.477596 
L 122.148238 26.751763 
L 121.488321 27.025931 
L 120.828404 27.300098 
L 120.022796 28.071545 
L 119.217187 28.842992 
L 118.685587 29.317027 
L 118.153987 29.791061 
L 117.622387 30.265096 
L 117.090788 30.73913 
L 116.51344 31.253711 
L 115.936092 31.768292 
L 115.48754 32.410669 
L 115.038988 33.053047 
L 114.590436 33.695424 
L 114.141883 34.337801 
L 113.941995 34.889108 
L 113.742108 35.440414 
L 113.54222 35.991721 
L 113.342332 36.543027 
L 113.32416 37.227862 
L 113.305989 37.912696 
L 113.287817 38.597531 
L 113.269645 39.282365 
L 113.517991 39.833672 
L 113.766336 40.384978 
L 114.014682 40.936285 
L 114.263028 41.487591 
L 114.687351 42.4208 
L 115.111674 43.354009 
L 115.289565 44.247308 
L 115.467456 45.140608 
L 115.645346 46.033907 
L 115.823237 46.927206 
L 116.376356 47.540288 
L 116.929475 48.15337 
L 117.583972 48.456514 
L 118.238469 48.759658 
L 118.892967 49.062802 
L 119.547464 49.365947 
L 120.274807 49.299289 
L 121.002151 49.232631 
L 121.729494 49.165973 
L 122.456837 49.099316 
L 123.475086 48.977888 
L 123.996165 49.626209 
L 124.517244 50.274531 
L 125.038324 50.922852 
L 125.559403 51.571173 
" style="fill:none;stroke:#008000;stroke-linecap:square;stroke-width:0.78895;"/>
   </g>
   <g id="line2d_26">
    <path clip-path="url(#pdb7e313b50)" d="M 70.730187 20.35665 
L 71.357267 20.438804 
L 71.984348 20.520959 
L 72.611428 20.603114 
L 73.238509 20.685268 
L 73.857779 20.745239 
L 74.477048 20.80521 
L 75.096318 20.865181 
L 75.715588 20.925152 
L 76.334858 20.985122 
L 76.954128 21.045093 
L 77.573398 21.105064 
L 78.192668 21.165035 
L 79.114001 21.165035 
L 80.035335 21.165035 
L 80.956668 21.165035 
L 81.878001 21.165035 
L 82.597853 21.576445 
L 83.317704 21.987855 
L 84.099562 22.600937 
L 84.88142 23.214018 
L 85.663279 23.8271 
L 86.445137 24.440182 
L 86.738353 24.932367 
L 87.03157 25.424552 
L 87.324787 25.916737 
L 87.618004 26.408922 
L 87.91122 26.901107 
L 88.204437 27.393292 
L 88.497654 27.885476 
L 88.790871 28.377661 
L 89.35451 29.189655 
L 89.918149 30.001649 
L 90.481788 30.813642 
L 91.045427 31.625636 
L 91.133257 32.337643 
L 91.221086 33.04965 
L 91.308916 33.761657 
L 91.396746 34.473664 
L 91.484575 35.185671 
L 91.572405 35.897678 
L 91.660234 36.609685 
L 91.748064 37.321692 
L 91.832944 37.903462 
L 91.917825 38.485231 
L 92.002705 39.067001 
L 92.087586 39.648771 
L 92.172467 40.23054 
L 92.257347 40.81231 
L 92.342228 41.394079 
L 92.427109 41.975849 
L 92.790701 42.436509 
L 93.154292 42.89717 
L 93.517884 43.35783 
L 93.881476 43.818491 
L 94.026371 44.470952 
L 94.171266 45.123412 
L 94.316161 45.775873 
L 94.461056 46.428334 
L 94.60595 47.080795 
L 94.750845 47.733256 
L 94.89574 48.385716 
L 95.040635 49.038177 
" style="fill:none;stroke:#008000;stroke-linecap:square;stroke-width:0.78895;"/>
   </g>
   <g id="line2d_27">
    <path clip-path="url(#pdb7e313b50)" d="M 74.269509 18.756863 
L 74.904241 17.923428 
L 75.538973 17.089994 
L 75.466286 16.265475 
L 75.3936 15.440957 
L 74.933252 14.762491 
L 74.109153 14.689889 
L 73.285054 14.617287 
L 72.230462 14.73829 
L 71.17587 14.859293 
L 70.542573 14.67747 
L 69.909275 14.495648 
L 69.275978 14.313825 
L 68.642681 14.132002 
L 68.009384 13.950179 
L 67.376087 13.768356 
L 66.74279 13.586533 
L 66.109493 13.40471 
L 65.043105 13.586851 
L 63.976718 13.768993 
L 63.364621 13.908359 
L 62.752524 14.047724 
L 62.140427 14.18709 
L 61.52833 14.326456 
L 60.916233 14.465821 
L 60.304136 14.605187 
L 59.692039 14.744553 
L 59.079943 14.883919 
L 58.201169 14.720246 
L 57.322396 14.556574 
L 56.443622 14.392901 
L 55.564849 14.229229 
L 54.849779 13.344421 
L 54.13471 12.459613 
L 53.628694 11.98388 
L 53.122678 11.508148 
L 52.616662 11.032415 
L 52.110646 10.556682 
L 51.60463 10.080949 
L 51.098614 9.605217 
L 50.592597 9.129484 
L 50.086581 8.653751 
L 49.413912 8.350819 
L 48.741243 8.047887 
L 48.068574 7.744955 
L 47.395906 7.442023 
L 46.353587 7.26625 
L 45.311269 7.090477 
L 44.268951 6.914705 
L 43.226633 6.738932 
L 42.387231 6.675352 
L 41.54783 6.611773 
L 40.708428 6.548193 
L 39.869027 6.484613 
L 39.029625 6.421034 
L 38.190223 6.357454 
L 37.350822 6.293874 
L 36.51142 6.230295 
L 35.972089 5.89085 
L 35.432759 5.551404 
L 34.893428 5.211959 
L 34.354097 4.872514 
L 33.814767 4.533069 
L 33.275436 4.193624 
L 32.736105 3.854178 
L 32.196775 3.514733 
L 31.360561 3.454232 
L 30.524347 3.39373 
L 29.688134 3.333229 
L 28.85192 3.272727 
L 27.948918 3.799833 
L 27.045916 4.326939 
L 26.142913 4.854045 
L 25.239911 5.381151 
L 24.209707 5.823555 
L 23.179504 6.265959 
L 22.1493 6.708363 
L 21.119096 7.150767 
L 20.668153 7.509105 
L 20.21721 7.867444 
L 19.766266 8.225783 
L 19.315323 8.584121 
L 18.859757 8.946281 
L 18.404191 9.308441 
L 17.934519 9.944768 
L 17.464846 10.581095 
L 16.995173 11.217422 
L 16.5255 11.853749 
L 16.055827 12.490076 
L 15.586155 13.126403 
L 15.116482 13.76273 
L 14.646809 14.399057 
L 14.258829 14.998977 
L 13.870849 15.598898 
L 13.482869 16.198818 
L 13.094888 16.798738 
L 12.937401 17.350256 
L 12.779914 17.901775 
L 12.622426 18.453294 
L 12.464939 19.004813 
L 11.644665 19.468021 
L 10.824392 19.931229 
L 9.987222 20.172386 
L 9.962993 20.824528 
L 9.938764 21.47667 
L 10.392895 22.127751 
L 10.847026 22.778832 
L 11.301158 23.429913 
L 11.755289 24.080994 
L 12.06596 24.605553 
L 12.376631 25.130111 
L 12.687302 25.65467 
L 12.997973 26.179228 
L 13.507416 26.858543 
L 14.005383 27.196927 
L 14.503349 27.535311 
L 14.790588 28.038004 
L 15.077827 28.540697 
L 14.445008 29.155477 
L 13.812189 29.770257 
L 12.827096 29.783843 
L 11.842003 29.79743 
L 10.917162 29.757945 
L 9.992322 29.718459 
L 9.302119 29.792335 
L 8.611916 29.86621 
" style="fill:none;stroke:#4169e1;stroke-linecap:square;stroke-width:0.78895;"/>
   </g>
   <g id="line2d_28">
    <path clip-path="url(#pdb7e313b50)" d="M 64.106151 23.145238 
L 63.537889 23.859155 
L 62.969627 24.573073 
L 62.401365 25.286991 
L 61.833103 26.000908 
L 60.935999 26.619085 
L 60.038894 27.237261 
L 59.178452 27.418978 
L 58.318009 27.600695 
L 57.293863 27.643152 
L 56.269716 27.685609 
L 55.24557 27.728066 
L 54.221423 27.770524 
L 53.475909 28.012954 
L 52.730394 28.255385 
L 51.984879 28.497815 
L 51.239364 28.740246 
L 50.700033 29.176493 
L 50.160703 29.612741 
L 49.621372 30.048989 
L 49.082041 30.485236 
L 48.54271 30.921484 
L 48.00338 31.357731 
L 47.464049 31.793979 
L 46.924718 32.230226 
L 46.33685 32.539315 
L 45.748982 32.848403 
L 45.161114 33.157491 
L 44.573246 33.46658 
L 43.973343 33.524215 
L 43.373441 33.581851 
L 42.773538 33.639487 
L 42.173635 33.697122 
L 41.573732 33.754758 
L 40.97383 33.812393 
L 40.373927 33.870029 
L 39.774024 33.927665 
L 38.677032 33.921508 
L 37.580039 33.915352 
L 36.483047 33.909196 
L 35.386054 33.90304 
L 34.368125 33.987954 
L 33.350195 34.072868 
L 32.592565 34.200028 
L 31.834936 34.327187 
L 31.077307 34.454346 
L 30.319677 34.581505 
L 29.734918 34.817886 
L 29.150158 35.054266 
L 28.565398 35.290647 
L 27.980638 35.527027 
L 27.395879 35.763407 
L 26.811119 35.999788 
L 26.226359 36.236168 
L 25.641599 36.472548 
L 24.914256 36.557251 
L 24.186913 36.641953 
L 23.45957 36.726655 
L 22.732226 36.811357 
L 22.138461 36.61754 
L 21.544695 36.423723 
L 20.950929 36.229906 
L 20.357163 36.036089 
L 19.791372 35.754704 
L 19.225581 35.473319 
L 18.65979 35.191934 
L 18.093999 34.910549 
L 17.528207 34.629164 
L 16.962416 34.347779 
L 16.396625 34.066394 
L 15.830834 33.785009 
" style="fill:none;stroke:#4169e1;stroke-linecap:square;stroke-width:0.78895;"/>
   </g>
   <g id="line2d_29">
    <path clip-path="url(#pdb7e313b50)" d="M 68.749161 20.625828 
L 68.168784 20.940755 
L 67.588408 21.255681 
L 67.008032 21.570607 
L 66.427656 21.885533 
L 65.847279 22.200459 
L 65.266903 22.515385 
L 64.686527 22.830312 
L 64.106151 23.145238 
L 63.057616 23.345211 
L 62.009081 23.545184 
L 60.960546 23.745158 
L 59.912012 23.945131 
L 59.233286 23.951287 
L 58.554559 23.957444 
L 57.875833 23.9636 
L 57.197107 23.969756 
L 56.472952 23.978778 
L 55.748796 23.987801 
L 55.024641 23.996823 
L 54.300486 24.005845 
L 53.576331 24.014867 
L 52.852175 24.023889 
L 52.12802 24.032911 
L 51.403865 24.041934 
L 50.5706 24.045012 
L 49.737336 24.04809 
L 48.904071 24.051168 
L 48.070806 24.054246 
L 47.237541 24.057324 
L 46.404277 24.060402 
L 45.571012 24.063481 
L 44.737747 24.066559 
L 43.790591 24.212293 
L 42.843435 24.358027 
L 41.896279 24.503762 
L 40.949123 24.649496 
L 40.001966 24.79523 
L 39.05481 24.940964 
L 38.107654 25.086699 
L 37.160498 25.232433 
L 36.603075 25.50522 
L 36.045653 25.778008 
L 35.48823 26.050795 
L 34.930807 26.323583 
L 34.372907 27.075075 
L 34.094275 28.141599 
L 33.815643 29.208124 
L 33.354977 30.008017 
L 32.89431 30.807911 
L 32.433643 31.232058 
L 31.972977 31.656205 
L 30.983181 31.828369 
L 29.993385 32.000533 
L 29.003589 32.172697 
L 28.013794 32.344861 
L 27.023998 32.517025 
L 26.034202 32.689189 
L 25.044407 32.861353 
L 24.054611 33.033516 
L 23.078922 33.239646 
L 22.103233 33.445776 
L 21.127544 33.651905 
L 20.151856 33.858035 
L 19.0716 33.839778 
L 17.991345 33.821522 
L 16.911089 33.803265 
L 15.830834 33.785009 
L 14.880649 33.768875 
L 13.930464 33.752741 
L 12.98028 33.736607 
L 12.030095 33.720474 
" style="fill:none;stroke:#000000;stroke-linecap:square;stroke-width:0.78895;"/>
   </g>
   <g id="line2d_30">
    <path clip-path="url(#pdb7e313b50)" d="M 160.700778 27.647398 
L 160.013126 28.368745 
L 159.325473 29.090093 
L 158.598289 29.847529 
L 157.871105 30.604965 
L 157.143922 31.362402 
L 156.416738 32.119838 
L 155.71968 32.634843 
L 155.022623 33.149849 
L 154.325566 33.664855 
L 153.628509 34.17986 
L 153.027809 34.638929 
L 152.427109 35.097997 
L 151.826409 35.557065 
L 151.22571 36.016134 
L 150.62501 36.475202 
L 150.02431 36.93427 
L 149.42361 37.393339 
L 148.822911 37.852407 
L 148.222211 38.311475 
L 147.621511 38.770544 
L 147.020811 39.229612 
L 146.420112 39.68868 
L 145.819412 40.147749 
L 145.218712 40.606817 
L 144.618012 41.065885 
L 144.017312 41.524954 
L 143.346915 41.986994 
L 142.676517 42.449034 
L 142.00612 42.911075 
L 141.335722 43.373115 
L 140.665325 43.835155 
L 139.994927 44.297196 
L 139.32453 44.759236 
L 138.654132 45.221276 
L 137.983735 45.683317 
L 137.313337 46.145357 
L 136.64294 46.607397 
L 135.972542 47.069438 
L 135.302145 47.531478 
L 134.631747 47.993518 
L 133.96135 48.455559 
L 133.290952 48.917599 
L 132.72811 49.37205 
L 132.165268 49.826501 
L 131.602425 50.280952 
L 131.039583 50.735403 
L 130.476741 51.189854 
L 129.913899 51.644305 
L 129.351056 52.098757 
L 128.788214 52.553208 
L 128.225372 53.007659 
L 127.66253 53.46211 
L 127.099688 53.916561 
L 126.536845 54.371012 
L 125.974003 54.825463 
L 125.411161 55.279914 
L 124.848319 55.734365 
L 124.285477 56.188817 
L 123.715461 56.53877 
L 123.145446 56.888723 
L 122.575431 57.238677 
L 122.005416 57.58863 
L 121.4354 57.938583 
L 120.865385 58.288537 
L 120.29537 58.63849 
L 119.725355 58.988443 
" style="fill:none;stroke:#4169e1;stroke-linecap:square;stroke-width:0.78895;"/>
   </g>
   <g id="line2d_31">
    <path clip-path="url(#pdb7e313b50)" d="M 91.75699 57.659533 
L 91.02359 58.413998 
L 90.290189 59.168462 
L 89.556789 59.922926 
L 88.823388 60.67739 
L 88.253692 61.289411 
L 87.683995 61.901431 
L 87.114299 62.513451 
L 86.544602 63.125472 
L 86.04823 63.569998 
L 85.551858 64.014525 
L 85.055485 64.459052 
L 84.559113 64.903579 
L 84.062741 65.348105 
L 83.566369 65.792632 
L 83.069996 66.237159 
L 82.573624 66.681686 
L 81.995957 66.962752 
L 81.418291 67.243819 
L 80.840625 67.524885 
L 80.262958 67.805952 
L 79.238812 67.836309 
L 78.214665 67.866666 
L 77.190519 67.897022 
L 76.166372 67.927379 
L 75.199769 68.027366 
L 74.233166 68.127353 
L 73.266563 68.227339 
L 72.29996 68.327326 
L 71.333357 68.427313 
L 70.366754 68.527299 
L 69.400151 68.627286 
L 68.433548 68.727273 
L 67.782079 68.727273 
L 67.130611 68.727273 
L 66.479142 68.727273 
L 65.827673 68.727273 
L 65.176204 68.727273 
L 64.524736 68.727273 
L 63.873267 68.727273 
L 63.221798 68.727273 
L 62.361196 68.484842 
L 61.500594 68.242412 
L 60.639993 67.999981 
L 59.779391 67.757551 
L 59.173351 67.466719 
L 58.567311 67.175887 
L 57.961272 66.885055 
L 57.355232 66.594224 
L 56.749192 66.303392 
L 56.143153 66.01256 
L 55.537113 65.721729 
L 54.931073 65.430897 
L 54.361696 64.982549 
L 53.792318 64.534201 
" style="fill:none;stroke:#008000;stroke-linecap:square;stroke-width:0.78895;"/>
   </g>
   <g id="line2d_32">
    <path clip-path="url(#pdb7e313b50)" d="M 23.75175 26.774478 
L 23.173725 26.82203 
L 22.5957 26.869582 
L 22.017675 26.917134 
L 21.43965 26.964686 
L 20.861625 27.012238 
L 20.2836 27.05979 
L 19.705575 27.107342 
L 19.12755 27.154894 
L 18.549525 27.202446 
L 17.971499 27.249999 
L 17.393474 27.297551 
L 16.815449 27.345103 
L 16.237424 27.392655 
L 15.659399 27.440207 
L 15.081374 27.487759 
L 14.503349 27.535311 
" style="fill:none;stroke:#4169e1;stroke-linecap:square;stroke-width:0.78895;"/>
   </g>
   <g id="line2d_33">
    <path clip-path="url(#pdb7e313b50)" d="M 150.288755 31.703757 
L 149.291866 31.6613 
L 148.294977 31.618843 
L 147.508496 31.88505 
L 146.722016 32.151256 
L 146.012366 32.511718 
L 145.302716 32.872179 
L 144.6106 33.103146 
L 143.918484 33.334113 
L 143.268769 33.337085 
L 142.619054 33.340057 
L 141.812807 33.695849 
L 141.006561 34.05164 
L 140.49106 34.715246 
L 139.97556 35.378851 
L 139.34848 35.90617 
L 138.721399 36.433488 
L 138.222795 37.345044 
L 137.724191 38.256599 
L 137.61038 39.225048 
L 137.496568 40.193496 
L 137.396783 40.905928 
L 137.296999 41.618359 
L 136.85546 42.159689 
L 136.413921 42.701018 
L 135.858412 43.32068 
L 135.302902 43.940343 
L 134.747392 44.560006 
L 134.191882 45.179668 
L 133.543601 45.592564 
L 132.895321 46.00546 
L 132.24704 46.418357 
L 131.598759 46.831253 
L 130.836667 47.3798 
L 130.074574 47.928346 
L 129.312482 48.476893 
L 128.550389 49.02544 
L 128.001893 49.502659 
L 127.453397 49.979878 
L 126.904901 50.457096 
L 126.356404 50.934315 
L 125.559403 51.571173 
L 125.017921 51.995957 
L 124.476438 52.420741 
L 123.934955 52.845525 
L 123.393473 53.27031 
L 122.861873 53.770031 
L 122.330273 54.269752 
L 121.798674 54.769473 
L 121.267074 55.269194 
L 120.735474 55.768915 
L 120.203874 56.268636 
L 119.672274 56.768357 
L 119.140675 57.268078 
" style="fill:none;stroke:#4169e1;stroke-linecap:square;stroke-width:0.78895;"/>
   </g>
   <g id="line2d_34">
    <path clip-path="url(#pdb7e313b50)" d="M 137.874665 24.401121 
L 137.647201 24.940964 
L 137.419737 25.480808 
L 137.192273 26.020651 
L 136.964809 26.560494 
L 136.737344 27.100337 
L 136.50988 27.64018 
L 136.282416 28.180023 
L 136.054952 28.719866 
L 135.620746 29.481548 
L 135.18654 30.24323 
L 134.598353 30.851217 
L 134.010166 31.459204 
L 133.133465 31.903306 
L 132.256763 32.347408 
L 131.47634 33.15367 
L 130.695916 33.959932 
L 130.438804 34.499988 
L 130.181691 35.040043 
L 129.924579 35.580098 
L 129.667466 36.120154 
L 129.504718 37.08839 
L 129.341971 38.056626 
L 129.179223 39.024862 
L 129.016475 39.993098 
L 128.554534 40.955603 
L 128.092592 41.918107 
L 127.63065 42.880612 
L 127.168708 43.843116 
L 126.568407 44.6774 
L 125.968105 45.511683 
L 125.367804 46.345967 
L 124.767503 47.180251 
L 124.121294 48.079069 
L 123.475086 48.977888 
" style="fill:none;stroke:#4169e1;stroke-linecap:square;stroke-width:0.78895;"/>
   </g>
   <g id="line2d_35">
    <path clip-path="url(#pdb7e313b50)" d="M 153.76113 16.110082 
L 153.294366 16.612828 
L 152.827602 17.115574 
L 152.360839 17.618321 
L 151.894075 18.121067 
L 151.427311 18.623813 
L 150.960547 19.126559 
L 150.493784 19.629305 
L 150.02702 20.132051 
L 149.560256 20.634797 
L 149.093493 21.137544 
L 148.626729 21.64029 
L 148.159965 22.143036 
L 147.693201 22.645782 
L 147.226438 23.148528 
L 146.759674 23.651274 
L 146.29291 24.154021 
L 145.834794 24.513845 
L 145.376678 24.87367 
L 144.918561 25.233494 
L 144.460445 25.593319 
L 143.709351 25.631531 
L 142.958257 25.669742 
L 142.207163 25.707954 
L 141.456069 25.746165 
L 140.564703 26.243763 
L 139.673337 26.741361 
L 139.384982 27.257641 
L 139.096627 27.77392 
L 138.808272 28.2902 
L 138.519917 28.806479 
L 138.025458 29.69256 
L 137.530998 30.578642 
L 137.128353 31.351469 
L 136.725708 32.124296 
L 136.323063 32.897123 
L 135.920418 33.66995 
L 135.517773 34.442777 
L 135.115128 35.215603 
L 134.712483 35.98843 
L 134.309838 36.761257 
L 133.76995 37.275414 
L 133.230061 37.78957 
L 132.690173 38.303727 
L 132.150284 38.817883 
L 131.830607 39.664161 
L 131.51093 40.510439 
L 131.191252 41.356717 
L 130.871575 42.202995 
L 130.551898 43.049273 
L 130.232221 43.895551 
L 129.912544 44.741828 
L 129.592867 45.588106 
L 129.332247 46.44744 
L 129.071628 47.306773 
L 128.811009 48.166107 
L 128.550389 49.02544 
" style="fill:none;stroke:#4169e1;stroke-linecap:square;stroke-width:0.78895;"/>
   </g>
   <g id="line2d_36">
    <path clip-path="url(#pdb7e313b50)" d="M 158.685959 26.064594 
L 157.861701 26.683832 
L 157.037442 27.30307 
L 156.213184 27.922308 
L 155.388925 28.541546 
L 154.847602 28.983101 
L 154.306279 29.424656 
L 153.764955 29.86621 
L 153.223632 30.307765 
L 152.489913 30.656763 
L 151.756194 31.005761 
L 151.022474 31.354759 
L 150.288755 31.703757 
" style="fill:none;stroke:#4169e1;stroke-linecap:square;stroke-width:0.78895;"/>
   </g>
   <g id="line2d_37">
    <path clip-path="url(#pdb7e313b50)" d="M 161.356232 28.162828 
L 160.700778 27.647398 
L 160.197074 27.251697 
L 159.693369 26.855996 
L 159.189664 26.460295 
L 158.685959 26.064594 
L 158.249522 25.690122 
L 157.813084 25.315649 
L 157.304278 24.742689 
L 156.795473 24.16973 
L 156.286667 23.59677 
L 155.777862 23.02381 
L 154.922679 22.348316 
L 154.067497 21.672823 
L 153.212315 20.997329 
L 152.357133 20.321835 
L 151.882598 19.956279 
L 151.408064 19.590722 
L 150.933529 19.225166 
L 150.458995 18.859609 
L 149.98446 18.494053 
L 149.509926 18.128497 
L 149.035391 17.76294 
L 148.560857 17.397384 
L 147.924531 16.886199 
L 147.288205 16.375015 
L 146.409591 15.940466 
L 145.530977 15.505916 
L 144.652363 15.071367 
L 143.773749 14.636818 
L 143.208117 14.302573 
L 142.642485 13.968329 
L 142.076854 13.634085 
L 141.511222 13.299841 
L 140.94559 12.965597 
L 140.379959 12.631353 
L 139.814327 12.297108 
L 139.248695 11.962864 
L 138.453806 11.85359 
L 137.658917 11.744316 
L 136.864028 11.635042 
L 136.069139 11.525767 
L 135.27425 11.416493 
L 134.47936 11.307219 
L 133.684471 11.197945 
L 132.889582 11.088671 
L 132.094693 10.979396 
L 131.299804 10.870122 
L 130.504915 10.760848 
L 129.710026 10.651574 
L 128.915137 10.5423 
L 128.120248 10.433026 
L 127.325358 10.323751 
L 126.530469 10.214477 
L 125.596225 10.304486 
L 124.66198 10.394496 
L 123.727735 10.484505 
L 122.79349 10.574514 
L 121.859246 10.664523 
L 120.925001 10.754533 
L 119.990756 10.844542 
L 119.056511 10.934551 
L 118.302389 11.110218 
L 117.548266 11.285884 
L 116.794144 11.461551 
L 116.040021 11.637217 
L 115.285899 11.812884 
L 114.531776 11.988551 
L 113.777654 12.164217 
L 113.023531 12.339884 
L 111.969258 12.237138 
L 110.914985 12.134391 
L 109.860712 12.031645 
L 108.806439 11.928898 
L 108.103643 12.117408 
L 107.400848 12.305918 
L 106.698052 12.494428 
L 105.995256 12.682938 
L 105.223919 13.329986 
L 104.452581 13.977033 
L 103.681243 14.624081 
L 102.909905 15.271128 
L 102.138568 15.918176 
L 101.36723 16.565223 
L 100.595892 17.212271 
L 99.824555 17.859318 
L 99.00181 18.296415 
L 98.179066 18.733512 
L 97.356322 19.170608 
L 96.533577 19.607705 
L 95.710833 20.044802 
L 94.888089 20.481898 
L 94.065344 20.918995 
L 93.2426 21.356092 
L 92.629547 21.808261 
L 92.016494 22.26043 
L 91.327566 22.768643 
L 90.638638 23.276855 
L 89.590263 23.567687 
L 88.541887 23.858519 
L 87.493512 24.14935 
L 86.445137 24.440182 
" style="fill:none;stroke:#008000;stroke-linecap:square;stroke-width:0.78895;"/>
   </g>
   <g id="line2d_38">
    <path clip-path="url(#pdb7e313b50)" d="M 157.813084 25.315649 
L 156.897808 25.807303 
L 155.982531 26.298958 
L 154.853659 26.281975 
L 153.724787 26.264992 
L 152.673064 26.367738 
L 151.621341 26.470485 
L 151.069816 26.709943 
L 150.518291 26.949402 
L 149.966767 27.18886 
L 149.415242 27.428319 
L 148.627327 27.658649 
L 147.839411 27.888979 
L 147.051496 28.119309 
L 146.26358 28.34964 
" style="fill:none;stroke:#008000;stroke-linecap:square;stroke-width:0.78895;"/>
   </g>
   <g id="line2d_39">
    <path clip-path="url(#pdb7e313b50)" d="M 155.777862 23.02381 
L 155.221874 23.162858 
L 154.665886 23.301905 
L 154.109897 23.440952 
L 153.553909 23.579999 
L 152.938146 23.657059 
L 152.322383 23.734119 
L 151.70662 23.811179 
L 151.090857 23.888239 
L 150.312984 24.469477 
L 149.535111 25.050716 
L 148.820998 25.251963 
L 148.106885 25.45321 
L 147.397235 26.094314 
L 147.139644 26.786366 
L 146.882053 27.478418 
L 146.26358 28.34964 
L 145.458609 28.541546 
L 144.653638 28.733453 
L 143.523172 28.570417 
L 142.897765 28.599925 
L 142.272358 28.629433 
L 141.646951 28.65894 
L 141.021544 28.688448 
L 140.396138 28.717956 
L 139.770731 28.747463 
L 139.145324 28.776971 
L 138.519917 28.806479 
" style="fill:none;stroke:#008000;stroke-linecap:square;stroke-width:0.78895;"/>
   </g>
   <g id="line2d_40">
    <path clip-path="url(#pdb7e313b50)" d="M 154.880757 56.565836 
L 154.155805 56.787463 
L 153.430853 57.009089 
L 152.302618 56.948376 
L 151.174383 56.887662 
L 150.207142 57.068954 
L 149.239902 57.250246 
L 148.736516 57.653165 
L 148.23313 58.056084 
L 147.648769 58.096418 
L 147.064407 58.136752 
L 146.016829 57.854837 
L 144.969251 57.572921 
L 143.951799 57.260648 
L 142.934347 56.948376 
L 141.916896 56.636103 
L 140.899444 56.32383 
L 140.194417 55.991391 
L 139.489389 55.658951 
L 138.784362 55.326511 
L 138.079335 54.994071 
L 137.071926 54.752915 
L 135.984178 55.03483 
L 135.399817 55.216122 
L 134.815456 55.397415 
L 133.808046 55.519904 
L 132.800637 55.642393 
L 131.793227 55.764882 
L 130.785818 55.887371 
L 130.01719 55.820288 
L 129.248562 55.753206 
L 128.479934 55.686123 
L 127.711306 55.619041 
" style="fill:none;stroke:#4169e1;stroke-linecap:square;stroke-width:0.78895;"/>
   </g>
  </g>
 </g>
 <defs>
  <clipPath id="pdb7e313b50">
   <rect height="72" width="170.413194" x="0" y="0"/>
  </clipPath>
 </defs>
</svg>
