<?xml version="1.0" encoding="utf-8" standalone="no"?>
<!DOCTYPE svg PUBLIC "-//W3C//DTD SVG 1.1//EN"
  "http://www.w3.org/Graphics/SVG/1.1/DTD/svg11.dtd">
<svg height="72pt" version="1.1" viewBox="0 0 62.456702 72" width="62.456702pt" xmlns="http://www.w3.org/2000/svg" xmlns:xlink="http://www.w3.org/1999/xlink">
 <metadata>
  <rdf:RDF xmlns:cc="http://creativecommons.org/ns#" xmlns:dc="http://purl.org/dc/elements/1.1/" xmlns:rdf="http://www.w3.org/1999/02/22-rdf-syntax-ns#">
   <cc:Work>
    <dc:type rdf:resource="http://purl.org/dc/dcmitype/StillImage"/>
    <dc:date>2022-05-22T19:56:07.725941</dc:date>
    <dc:format>image/svg+xml</dc:format>
    <dc:creator>
     <cc:Agent>
      <dc:title>Matplotlib v3.4.3, https://matplotlib.org/</dc:title>
     </cc:Agent>
    </dc:creator>
   </cc:Work>
  </rdf:RDF>
 </metadata>
 <defs>
  <style type="text/css">*{stroke-linecap:butt;stroke-linejoin:round;}</style>
 </defs>
 <g id="figure_1">
  <g id="patch_1">
   <path d="M 0 72 
L 62.456702 72 
L 62.456702 0 
L 0 0 
z
" style="fill:#ffffff;"/>
  </g>
  <g id="axes_1">
   <g id="line2d_1">
    <path clip-path="url(#pbc696422cf)" d="M 42.837418 66.914148 
L 43.082937 65.346612 
L 43.328456 63.779076 
L 43.580701 62.233385 
L 43.832947 60.687695 
L 44.288911 57.894198 
L 44.744875 55.100701 
L 44.985109 53.627992 
L 45.225343 52.155283 
L 45.465577 50.682573 
L 45.705811 49.209864 
L 45.95085 47.708525 
L 46.195889 46.207186 
L 46.440927 44.705847 
L 46.685966 43.204508 
L 46.963436 41.504083 
L 47.240906 39.803657 
L 47.518377 38.103232 
L 47.795847 36.402806 
L 48.051216 34.837422 
L 48.306584 33.272038 
L 48.561953 31.706653 
L 48.817322 30.141269 
L 49.1856 27.884296 
L 49.553879 25.627322 
L 49.826545 23.956189 
L 50.09921 22.285055 
L 50.356861 20.706597 
L 50.614512 19.128139 
L 50.872163 17.549681 
L 51.129814 15.971223 
L 51.38206 14.423546 
L 51.69028 12.534626 
L 51.9985 10.645706 
L 52.227683 9.241014 
L 52.514763 7.481839 
L 52.801842 5.722664 
L 52.925803 4.963389 
" style="fill:none;stroke:#808080;stroke-linecap:square;stroke-width:0.4;"/>
   </g>
   <g id="line2d_2">
    <path clip-path="url(#pbc696422cf)" d="M 42.3065 64.235833 
L 42.037438 61.833392 
L 41.768376 59.430952 
L 41.499314 57.028511 
L 41.230252 54.626071 
L 40.850683 51.792194 
L 40.471113 48.958317 
L 40.247575 47.289335 
L 40.024037 45.620353 
L 39.8005 43.951371 
L 39.576962 42.282389 
L 39.374925 40.774099 
L 39.172888 39.26581 
L 38.970852 37.75752 
L 38.768815 36.24923 
L 38.561493 34.701388 
L 38.354171 33.153546 
L 38.146849 31.605704 
L 37.939527 30.057861 
L 37.739172 28.561818 
L 37.538817 27.065775 
L 37.338462 25.569731 
L 37.138107 24.073688 
" style="fill:none;stroke:#808080;stroke-linecap:square;stroke-width:0.4;"/>
   </g>
   <g id="line2d_3">
    <path clip-path="url(#pbc696422cf)" d="M 19.240675 68.727273 
L 18.77351 67.164867 
L 18.306345 65.602462 
L 17.83918 64.040056 
L 17.372015 62.477651 
L 16.90485 60.915245 
L 16.437686 59.35284 
L 15.970521 57.790434 
L 15.503356 56.228029 
L 15.036191 54.665623 
L 14.569026 53.103218 
L 14.101861 51.540813 
L 13.634696 49.978407 
L 13.167531 48.416002 
L 12.700366 46.853596 
L 12.233201 45.291191 
L 11.766036 43.728785 
L 11.298871 42.16638 
L 10.831706 40.603974 
L 10.364541 39.041569 
L 9.897376 37.479163 
L 9.430211 35.916758 
L 8.963046 34.354352 
L 8.495881 32.791947 
L 8.028716 31.229541 
L 7.561551 29.667136 
L 7.094386 28.10473 
L 6.627221 26.542325 
L 6.160056 24.979919 
L 5.692891 23.417514 
L 5.225726 21.855108 
L 4.758561 20.292703 
L 4.291396 18.730298 
" style="fill:none;stroke:#808080;stroke-linecap:square;stroke-width:0.4;"/>
   </g>
   <g id="line2d_4">
    <path clip-path="url(#pbc696422cf)" d="M 37.138107 24.073688 
L 36.70016 24.512902 
L 36.262214 24.952117 
L 36.347016 25.558312 
L 36.431819 26.164508 
L 36.516621 26.770703 
L 36.601424 27.376899 
L 36.686227 27.983094 
L 36.771029 28.58929 
L 36.855832 29.195485 
L 36.940634 29.80168 
L 37.033124 30.460668 
L 37.125615 31.119655 
L 37.218105 31.778642 
L 37.310595 32.437629 
L 37.415337 33.184658 
L 37.520079 33.931687 
L 37.602539 34.517279 
L 37.684999 35.10287 
L 37.76746 35.688462 
L 37.84992 36.274054 
L 37.93238 36.859646 
L 38.014841 37.445237 
L 38.097301 38.030829 
L 38.179761 38.616421 
L 38.235556 39.206398 
L 38.29135 39.796376 
L 38.347144 40.386353 
L 38.402939 40.97633 
L 38.458733 41.566307 
L 38.514527 42.156285 
L 38.570322 42.746262 
L 38.626116 43.336239 
L 38.68191 43.926217 
L 38.737705 44.516194 
L 38.793499 45.106171 
L 38.849293 45.696148 
L 38.905088 46.286126 
L 38.960882 46.876103 
L 39.016676 47.46608 
L 39.072471 48.056057 
" style="fill:none;stroke:#ff0000;stroke-linecap:square;stroke-width:0.4;"/>
   </g>
   <g id="line2d_5">
    <path clip-path="url(#pbc696422cf)" d="M 51.004892 23.714902 
L 50.941951 24.229581 
L 50.87901 24.74426 
L 50.816068 25.258938 
L 50.753127 25.773617 
L 50.690186 26.288295 
L 50.627244 26.802974 
L 50.564303 27.317653 
L 50.501362 27.832331 
L 50.438421 28.34701 
L 50.375479 28.861689 
L 50.312538 29.376367 
L 50.249597 29.891046 
L 50.186655 30.405725 
L 50.123714 30.920403 
L 50.060773 31.435082 
L 49.997831 31.94976 
L 49.93489 32.464439 
L 49.871949 32.979118 
L 49.809008 33.493796 
L 49.746066 34.008475 
L 49.683125 34.523154 
L 49.620184 35.037832 
L 49.557242 35.552511 
L 49.494301 36.06719 
L 49.43136 36.581868 
L 49.368418 37.096547 
L 49.305477 37.611225 
L 49.242536 38.125904 
L 49.179595 38.640583 
L 49.116653 39.155261 
L 49.053712 39.66994 
L 48.990771 40.184619 
L 48.935637 40.648657 
L 48.880503 41.112695 
L 48.82537 41.576733 
L 48.770236 42.040772 
L 48.715102 42.49277 
L 48.659968 42.944769 
L 48.604835 43.396768 
L 48.549701 43.848766 
L 48.494567 44.300765 
L 48.439434 44.752764 
L 48.3843 45.204763 
L 48.329166 45.656761 
L 48.274033 46.10876 
L 48.218899 46.560759 
L 48.163765 47.012758 
L 48.108631 47.464756 
L 48.053498 47.916755 
L 47.998364 48.368754 
L 47.94323 48.820752 
L 47.888097 49.272751 
" style="fill:none;stroke:#ff0000;stroke-linecap:square;stroke-width:0.4;"/>
   </g>
   <g id="line2d_6">
    <path clip-path="url(#pbc696422cf)" d="M 52.925803 4.963389 
L 53.051686 5.453244 
L 53.177568 5.943098 
L 53.328435 6.529931 
L 53.479302 7.116764 
L 53.380446 7.776496 
L 53.28159 8.436228 
L 53.182733 9.09596 
L 53.083877 9.755692 
L 52.985021 10.415424 
L 52.886165 11.075156 
L 52.787308 11.734888 
L 52.688452 12.39462 
L 52.58323 13.102138 
L 52.478007 13.809655 
L 52.372785 14.517173 
L 52.267562 15.224691 
L 52.16234 15.932208 
L 52.057117 16.639726 
L 51.951895 17.347244 
L 51.846672 18.054761 
L 51.74145 18.762279 
L 51.636227 19.469796 
L 51.531005 20.177314 
L 51.425782 20.884832 
L 51.32056 21.592349 
L 51.215337 22.299867 
L 51.110115 23.007385 
L 51.004892 23.714902 
" style="fill:none;stroke:#ff0000;stroke-linecap:square;stroke-width:0.4;"/>
   </g>
   <g id="line2d_7">
    <path clip-path="url(#pbc696422cf)" d="M 37.138107 24.073688 
L 37.609326 24.170169 
L 38.080545 24.266651 
L 38.551764 24.363133 
L 39.022982 24.459614 
L 39.732393 24.76478 
L 40.441804 25.069947 
L 41.081788 25.620703 
L 41.721771 26.171458 
L 41.739954 26.885741 
L 41.758136 27.600023 
L 41.776319 28.314305 
L 41.794502 29.028587 
L 41.812685 29.742869 
L 41.830867 30.457151 
L 41.84905 31.171433 
L 41.867233 31.885715 
L 41.885415 32.599997 
L 41.903598 33.314279 
L 41.921781 34.028562 
L 41.939963 34.742844 
L 41.958146 35.457126 
L 41.976329 36.171408 
L 41.994512 36.88569 
L 42.012694 37.599972 
L 42.030877 38.314254 
L 42.04906 39.028536 
L 42.067242 39.742818 
L 42.085425 40.4571 
L 42.103608 41.171383 
L 42.121791 41.885665 
L 42.139973 42.599947 
L 42.158156 43.314229 
L 42.176339 44.028511 
L 42.194521 44.742793 
L 42.212704 45.457075 
L 42.230887 46.171357 
L 42.24907 46.885639 
L 42.267252 47.599921 
L 42.285435 48.314204 
L 42.303618 49.028486 
" style="fill:none;stroke:#ff0000;stroke-linecap:square;stroke-width:0.4;"/>
   </g>
   <g id="line2d_8">
    <path clip-path="url(#pbc696422cf)" d="M 42.8403 3.609006 
L 42.824685 4.487766 
L 42.80907 5.366526 
L 42.793455 6.245286 
L 42.77784 7.124046 
L 42.604991 7.650888 
L 42.432143 8.177731 
L 42.259294 8.704573 
L 42.086446 9.231415 
L 41.913598 9.758257 
L 41.740749 10.2851 
L 41.567901 10.811942 
L 41.395053 11.338784 
" style="fill:none;stroke:#ff0000;stroke-dasharray:1.48,0.64;stroke-dashoffset:0;stroke-width:0.4;"/>
   </g>
   <g id="line2d_9">
    <path clip-path="url(#pbc696422cf)" d="M 42.303618 49.028486 
L 42.323932 49.539482 
L 42.344247 50.050479 
L 42.364562 50.561475 
L 42.384877 51.072471 
L 42.405192 51.583468 
L 42.425506 52.094464 
L 42.445821 52.605461 
L 42.466136 53.116457 
L 42.486451 53.627454 
L 42.506766 54.13845 
L 42.52708 54.649447 
L 42.547395 55.160443 
L 42.56771 55.67144 
L 42.588025 56.182436 
L 42.608339 56.693432 
L 42.628654 57.204429 
L 42.648969 57.715425 
L 42.669284 58.226422 
L 42.689599 58.737418 
L 42.709913 59.248415 
L 42.730228 59.759411 
L 42.750543 60.270408 
L 42.770858 60.781404 
L 42.791173 61.292401 
L 42.811487 61.803397 
L 42.831802 62.314393 
L 42.852117 62.82539 
L 42.872432 63.336386 
L 42.892746 63.847383 
L 42.913061 64.358379 
L 42.933376 64.869376 
L 42.953691 65.380372 
" style="fill:none;stroke:#000000;stroke-linecap:square;stroke-width:0.4;"/>
   </g>
   <g id="line2d_10">
    <path clip-path="url(#pbc696422cf)" d="M 37.138107 24.073688 
L 36.544368 24.041583 
L 35.95063 24.009477 
L 35.356892 23.977372 
L 34.763154 23.945266 
L 34.275479 24.242489 
L 33.787804 24.539712 
L 33.846781 25.353268 
L 33.905759 26.166825 
L 33.964736 26.980381 
L 34.023713 27.793937 
L 34.066355 28.373654 
L 34.108996 28.953371 
L 34.151638 29.533088 
L 34.19428 30.112805 
L 34.236921 30.692521 
L 34.279563 31.272238 
L 34.322204 31.851955 
L 34.364846 32.431672 
L 34.354936 32.920037 
L 34.345026 33.408403 
L 34.335117 33.896768 
L 34.325207 34.385134 
L 34.315297 34.873499 
L 34.305388 35.361865 
L 34.295478 35.85023 
L 34.285568 36.338596 
L 34.275659 36.826961 
L 34.265749 37.315327 
L 34.25584 37.803692 
L 34.24593 38.292058 
L 34.23602 38.780423 
L 34.226111 39.268789 
L 34.216201 39.757154 
L 34.206291 40.24552 
L 34.011522 40.725114 
L 33.816752 41.204708 
L 33.621982 41.684303 
L 33.427212 42.163897 
L 33.232443 42.643492 
L 33.037673 43.123086 
L 32.842903 43.602681 
L 32.648134 44.082275 
" style="fill:none;stroke:#ff0000;stroke-linecap:square;stroke-width:0.4;"/>
   </g>
   <g id="line2d_11">
    <path clip-path="url(#pbc696422cf)" d="M 16.038837 24.402023 
L 15.975235 25.088647 
L 15.911633 25.775272 
L 15.848031 26.461896 
L 15.784429 27.14852 
L 15.720827 27.835145 
L 15.657225 28.521769 
L 15.593623 29.208393 
L 15.530021 29.895018 
L 15.519872 30.575105 
L 15.509722 31.255193 
L 15.499572 31.93528 
L 15.489422 32.615367 
L 15.479272 33.295455 
L 15.469122 33.975542 
L 15.458972 34.65563 
L 15.448822 35.335717 
L 15.444859 36.069341 
L 15.440895 36.802965 
L 15.436931 37.536589 
L 15.432967 38.270213 
L 15.519451 39.004333 
L 15.619869 39.849002 
L 15.720287 40.693671 
L 16.034513 41.227877 
L 16.348739 41.762084 
L 16.662965 42.296291 
L 16.977191 42.830497 
L 17.237484 43.530692 
L 17.497778 44.230886 
L 17.758071 44.931081 
L 18.018365 45.631276 
L 18.12611 46.327002 
L 18.233855 47.022728 
L 18.3416 47.718455 
L 18.449345 48.414181 
L 18.48526 48.932583 
L 18.521175 49.450986 
L 18.55709 49.969388 
L 18.593005 50.48779 
L 18.62892 51.006192 
L 18.664835 51.524594 
L 18.70075 52.042997 
L 18.736665 52.561399 
L 18.705674 53.149556 
L 18.674684 53.737712 
L 18.649099 54.255204 
L 18.623514 54.772696 
L 18.597929 55.290188 
L 18.572345 55.80768 
L 18.54676 56.325172 
L 18.521175 56.842664 
L 18.49559 57.360156 
L 18.470005 57.877648 
L 18.438114 58.526127 
L 18.406223 59.174606 
L 18.374332 59.823084 
L 18.342441 60.471563 
L 18.31055 61.120041 
L 18.278659 61.76852 
L 18.246767 62.416998 
L 18.214876 63.065477 
" style="fill:none;stroke:#000000;stroke-linecap:square;stroke-width:0.4;"/>
   </g>
   <g id="line2d_12">
    <path clip-path="url(#pbc696422cf)" d="M 13.048405 35.12124 
L 13.640821 35.112303 
L 14.233238 35.103367 
L 14.84103 35.219542 
L 15.448822 35.335717 
L 16.29829 35.497899 
L 17.034367 35.650482 
L 17.770444 35.803065 
L 18.22833 35.798597 
L 18.686215 35.794129 
L 19.144101 35.78966 
L 19.601987 35.785192 
L 20.373138 35.68027 
L 21.14429 35.575349 
L 21.714845 35.910635 
L 22.285401 36.24592 
L 22.855957 36.581206 
L 23.426512 36.916492 
L 23.873167 37.14818 
L 24.319822 37.379868 
L 24.766477 37.611556 
L 25.213132 37.843245 
L 25.659787 38.074933 
L 26.106442 38.306621 
L 26.553097 38.538309 
L 26.999752 38.769997 
L 27.360824 39.053484 
L 27.721896 39.336971 
L 28.082967 39.620458 
L 28.444039 39.903945 
L 28.818564 40.272081 
L 29.193089 40.640217 
L 29.567613 41.008353 
L 29.942138 41.376489 
L 30.316663 41.744625 
L 30.691188 42.11276 
L 31.065712 42.480896 
L 31.440237 42.849032 
L 32.044185 43.465654 
L 32.648134 44.082275 
L 33.254004 44.700717 
L 33.859874 45.319159 
L 34.465744 45.937601 
L 35.071614 46.556042 
L 35.719045 46.898941 
L 36.366475 47.241839 
L 37.042974 47.445394 
L 37.719473 47.648948 
L 38.395972 47.852503 
L 39.072471 48.056057 
L 39.880257 48.299165 
L 40.688044 48.542272 
L 41.495831 48.785379 
L 42.303618 49.028486 
" style="fill:none;stroke:#4169e1;stroke-linecap:square;stroke-width:0.4;"/>
   </g>
   <g id="line2d_13">
    <path clip-path="url(#pbc696422cf)" d="M 47.888097 49.272751 
L 47.905033 50.043114 
L 47.92197 50.813477 
L 47.938906 51.58384 
L 47.955843 52.354203 
L 47.972779 53.124566 
L 47.989716 53.894929 
L 48.006652 54.665292 
L 48.023589 55.435656 
L 47.969596 56.054594 
L 47.915603 56.673532 
L 47.861611 57.29247 
L 47.807618 57.911409 
L 47.753626 58.530347 
L 47.699633 59.149285 
L 47.645641 59.768224 
L 47.591648 60.387162 
L 47.452012 60.847311 
L 47.312376 61.30746 
L 47.17274 61.767609 
L 47.033104 62.227759 
L 46.893468 62.687908 
L 46.753832 63.148057 
L 46.614196 63.608206 
L 46.47456 64.068355 
L 46.122197 64.455523 
L 45.769834 64.84269 
L 45.41747 65.229858 
L 45.065107 65.617025 
L 44.712744 66.004192 
L 44.360381 66.39136 
L 44.008018 66.778527 
L 43.655654 67.165695 
" style="fill:none;stroke:#4169e1;stroke-linecap:square;stroke-width:0.4;"/>
   </g>
   <g id="line2d_14">
    <path clip-path="url(#pbc696422cf)" d="M 52.925803 4.963389 
L 52.124743 4.845393 
L 51.323683 4.727398 
L 50.522623 4.609402 
L 49.721562 4.491407 
L 49.049268 4.417267 
L 48.376973 4.343126 
L 47.704678 4.268986 
L 47.032383 4.194846 
L 46.487052 4.134607 
L 45.811034 4.059805 
L 44.974059 3.932707 
L 44.137083 3.80561 
L 43.488692 3.707308 
L 42.8403 3.609006 
L 42.054135 3.524936 
L 41.267969 3.440867 
L 40.481803 3.356797 
L 39.695638 3.272727 
" style="fill:none;stroke:#008000;stroke-linecap:square;stroke-width:0.4;"/>
   </g>
   <g id="line2d_15">
    <path clip-path="url(#pbc696422cf)" d="M 16.950285 15.131188 
L 16.409038 15.377605 
L 15.86779 15.624022 
L 15.326543 15.870439 
L 14.785296 16.116855 
L 14.391673 16.421525 
L 13.998049 16.726195 
L 13.604426 17.030865 
L 13.210803 17.335535 
L 13.096571 17.8052 
L 12.98234 18.274865 
L 12.868109 18.74453 
L 12.753878 19.214195 
L 12.811053 19.671282 
L 12.868229 20.12837 
L 12.925405 20.585458 
L 12.98258 21.042545 
L 13.299929 21.620276 
L 13.617279 22.198007 
L 13.934628 22.775738 
L 14.251977 23.353469 
L 14.698692 23.615607 
L 15.145407 23.877746 
L 15.592122 24.139884 
L 16.038837 24.402023 
" style="fill:none;stroke:#ff0000;stroke-linecap:square;stroke-width:0.4;"/>
   </g>
   <g id="line2d_16">
    <path clip-path="url(#pbc696422cf)" d="M 18.373911 9.8626 
L 18.099924 10.301318 
L 17.825938 10.740036 
L 17.551951 11.178754 
L 17.277964 11.617472 
L 17.206134 12.290857 
L 17.134304 12.964242 
L 17.062474 13.637627 
L 16.990644 14.311012 
L 16.950285 15.131188 
L 16.906442 16.021367 
L 16.862599 16.911546 
L 16.818757 17.801725 
L 16.774914 18.691904 
L 16.644707 19.490897 
L 16.5145 20.28989 
L 16.384294 21.088883 
L 16.254087 21.887876 
L 16.200274 22.516413 
L 16.146462 23.144949 
L 16.092649 23.773486 
L 16.038837 24.402023 
" style="fill:none;stroke:#ff0000;stroke-linecap:square;stroke-width:0.4;"/>
   </g>
   <g id="line2d_17">
    <path clip-path="url(#pbc696422cf)" d="M 55.683689 22.999317 
L 55.750955 23.63348 
L 55.81822 24.267644 
L 55.885486 24.901807 
L 55.952751 25.535971 
L 55.97185 26.107248 
L 55.990948 26.678524 
L 56.010047 27.249801 
L 56.029146 27.821078 
L 55.914794 28.58929 
L 55.800443 29.357501 
L 55.686092 30.125713 
L 55.57174 30.893925 
L 55.527297 31.363672 
L 55.482854 31.83342 
L 55.43841 32.303168 
L 55.393967 32.772915 
L 55.349524 33.242663 
L 55.30508 33.712411 
L 55.260637 34.182158 
L 55.216194 34.651906 
L 55.09878 35.086735 
L 54.981365 35.521564 
L 54.863951 35.956393 
L 54.746536 36.391222 
L 54.629122 36.826051 
L 54.511708 37.26088 
L 54.394293 37.695709 
L 54.276879 38.130538 
L 53.819714 38.841489 
L 53.362549 39.552441 
L 52.754516 39.872502 
L 52.146484 40.192562 
L 51.798145 40.375927 
L 51.399597 40.586101 
L 51.001049 40.796275 
L 50.443345 41.107399 
L 49.885642 41.418523 
L 49.327939 41.729648 
L 48.770236 42.040772 
" style="fill:none;stroke:#ff0000;stroke-dasharray:1.48,0.64;stroke-dashoffset:0;stroke-width:0.4;"/>
   </g>
   <g id="line2d_18">
    <path clip-path="url(#pbc696422cf)" d="M 53.177568 5.943098 
L 53.634013 6.067879 
L 54.090457 6.19266 
L 54.546902 6.31744 
L 55.003347 6.442221 
L 55.470121 6.599272 
L 55.936896 6.756324 
L 56.40367 6.913375 
L 56.870445 7.070427 
L 57.350793 7.366822 
L 57.831141 7.663217 
L 58.311489 7.959613 
L 58.791836 8.256008 
L 59.05225 8.740567 
L 59.312664 9.225126 
L 59.42173 9.75172 
L 59.530796 10.278314 
L 59.617761 10.680128 
L 59.541487 11.169321 
L 59.465212 11.658514 
L 59.388938 12.147707 
L 59.312664 12.6369 
L 59.263296 13.153068 
L 59.213927 13.669236 
L 59.164559 14.185404 
L 59.115191 14.701572 
L 58.769495 15.186462 
L 58.423798 15.671352 
L 58.078101 16.156242 
L 57.732405 16.641133 
L 57.364366 17.125857 
L 56.996328 17.610582 
L 56.628289 18.095307 
L 56.260251 18.580031 
L 56.188181 19.132442 
L 56.11611 19.684853 
L 56.04404 20.237263 
L 55.97197 20.789674 
L 55.8999 21.342085 
L 55.82783 21.894495 
L 55.755759 22.446906 
L 55.683689 22.999317 
" style="fill:none;stroke:#ff0000;stroke-linecap:square;stroke-width:0.4;"/>
   </g>
   <g id="line2d_19">
    <path clip-path="url(#pbc696422cf)" d="M 35.564094 3.807596 
L 35.664872 4.295134 
L 35.76565 4.782672 
L 35.866428 5.27021 
L 35.967206 5.757748 
L 36.196149 6.193156 
L 36.425092 6.628564 
L 36.654035 7.063973 
L 36.882978 7.499381 
L 37.242128 7.957296 
L 37.601278 8.415211 
L 37.960428 8.873126 
L 38.319577 9.331041 
L 38.704012 9.582009 
L 39.088446 9.832977 
L 39.472881 10.083945 
L 39.857315 10.334913 
L 40.24175 10.58588 
L 40.626184 10.836848 
L 41.010618 11.087816 
L 41.395053 11.338784 
" style="fill:none;stroke:#ff0000;stroke-linecap:square;stroke-width:0.4;"/>
   </g>
   <g id="line2d_20">
    <path clip-path="url(#pbc696422cf)" d="M 41.395053 11.338784 
L 41.541716 11.809111 
L 41.688378 12.279438 
L 41.835041 12.749765 
L 41.981704 13.220092 
L 41.800327 13.774157 
L 41.618951 14.328223 
L 41.437574 14.882289 
L 41.256198 15.436354 
L 41.452949 16.153926 
L 41.649701 16.871497 
L 41.909394 17.675455 
L 42.169087 18.479412 
L 42.42878 19.28337 
L 42.688472 20.087328 
L 42.606673 20.8658 
L 42.524873 21.644272 
L 42.443073 22.422744 
L 42.361274 23.201217 
L 42.201398 23.943777 
L 42.041522 24.686337 
L 41.881647 25.428898 
L 41.721771 26.171458 
" style="fill:none;stroke:#ff0000;stroke-linecap:square;stroke-width:0.4;"/>
   </g>
   <g id="line2d_21">
    <path clip-path="url(#pbc696422cf)" d="M 23.175708 7.032033 
L 23.291741 7.629457 
L 23.407774 8.226882 
L 23.523807 8.824306 
L 23.63984 9.42173 
L 23.687526 10.209139 
L 23.735213 10.996548 
L 23.782899 11.783956 
L 23.830586 12.571365 
L 23.868543 13.29961 
L 23.9065 14.027856 
L 23.944457 14.756101 
L 23.982414 15.484347 
L 24.020371 16.212592 
L 24.058328 16.940838 
L 24.096285 17.669083 
L 24.134242 18.397329 
L 24.143791 18.921027 
L 24.15334 19.444724 
L 24.162889 19.968422 
L 24.172439 20.49212 
L 24.181988 21.015818 
L 24.191537 21.539516 
L 24.201087 22.063214 
L 24.210636 22.586912 
L 24.338621 23.051695 
L 24.466605 23.516478 
L 24.59459 23.981261 
L 24.722575 24.446044 
L 24.850559 24.910827 
L 24.978544 25.37561 
L 25.106529 25.840393 
L 25.234513 26.305176 
" style="fill:none;stroke:#ff0000;stroke-linecap:square;stroke-width:0.4;"/>
   </g>
   <g id="line2d_22">
    <path clip-path="url(#pbc696422cf)" d="M 25.234513 26.305176 
L 25.348264 26.802809 
L 25.462015 27.300442 
L 25.575766 27.798075 
L 25.689516 28.295708 
L 25.803267 28.793341 
L 25.917018 29.290974 
L 26.030769 29.788607 
L 26.144519 30.28624 
L 26.25827 30.783873 
L 26.372021 31.281506 
L 26.485772 31.779139 
L 26.599523 32.276772 
L 26.713273 32.774405 
L 26.827024 33.272038 
L 26.940775 33.769671 
L 27.054526 34.267304 
L 27.228215 34.971884 
L 27.401904 35.676464 
L 27.575593 36.381044 
L 27.749282 37.085624 
L 27.922972 37.790205 
L 28.096661 38.494785 
L 28.27035 39.199365 
L 28.444039 39.903945 
" style="fill:none;stroke:#000000;stroke-linecap:square;stroke-width:0.4;"/>
   </g>
   <g id="line2d_23">
    <path clip-path="url(#pbc696422cf)" d="M 39.695638 3.272727 
L 38.904787 3.575908 
L 36.410678 3.796011 
L 35.564094 3.807596 
L 32.988785 3.575908 
L 30.761817 3.761258 
L 29.288702 4.341141 
L 28.882706 4.54966 
L 27.815587 4.805179 
L 24.219765 6.475319 
L 22.224622 7.41498 
L 21.273535 7.797927 
L 18.605497 9.537574 
L 18.373911 9.8626 
L 18.605497 9.978444 
L 21.064532 9.282717 
L 22.363957 9.305555 
L 23.63984 9.42173 
L 26.493339 9.352224 
L 28.644755 9.763801 
L 31.645397 10.848598 
L 37.528487 13.3035 
L 42.918136 16.334642 
L 42.918136 16.543162 
L 42.616402 16.682836 
L 39.156072 17.263381 
L 33.406312 18.167626 
L 33.105059 18.422483 
L 33.105059 18.678002 
L 33.522585 19.025534 
L 42.291606 22.969528 
L 42.361274 23.201217 
L 38.308286 23.372666 
L 33.064459 23.937654 
L 30.444227 24.448526 
L 25.86825 26.060745 
L 20.108881 28.373158 
L 18.637568 29.111415 
L 17.259226 29.622288 
L 14.512871 30.055875 
L 13.728267 30.035355 
L 12.138638 29.529612 
L 11.498415 29.374712 
L 9.095835 29.723072 
L 7.076428 30.155501 
L 4.124193 30.983952 
L 3.770568 31.579059 
L 3.641803 32.223152 
L 3.694174 32.961907 
L 4.156384 34.18522 
L 4.461962 34.667793 
L 4.960687 35.070269 
L 5.604515 35.407871 
L 7.3145 35.647834 
L 9.154452 35.811009 
L 9.663988 35.924205 
L 9.690894 36.373018 
L 10.265054 38.17489 
L 11.847715 39.899311 
L 12.67412 40.021775 
L 13.144979 39.786777 
L 13.971383 39.025516 
L 15.766412 39.063248 
L 17.944133 39.482935 
L 23.774131 39.964846 
L 26.201695 40.591728 
L 26.860897 41.241779 
L 26.602886 41.963322 
L 24.882811 42.674273 
L 24.128956 43.058213 
L 22.891751 44.025346 
L 22.066788 45.210927 
L 20.778173 45.93247 
L 18.174757 45.803387 
L 17.427389 45.829204 
L 16.344895 46.293242 
L 13.973786 48.870276 
L 10.10746 51.756448 
L 8.148592 52.722918 
L 6.898895 53.50801 
L 6.344435 54.166005 
L 6.293025 55.068264 
L 7.014688 55.789807 
L 8.148592 56.047312 
L 9.205622 56.614617 
L 10.184816 58.366841 
L 12.453105 58.805063 
L 13.664364 59.037082 
L 14.153961 59.191651 
L 14.952979 59.784111 
L 17.704619 65.054023 
L 18.226408 66.79367 
L 18.200462 68.262573 
L 18.200462 68.262573 
" style="fill:none;stroke:#4169e1;stroke-linecap:square;stroke-width:0.4;"/>
   </g>
   <g id="line2d_24">
    <path clip-path="url(#pbc696422cf)" d="M 3.612494 19.051351 
L 3.452499 19.592343 
L 3.292503 20.133335 
L 3.132507 20.674326 
L 2.972511 21.215318 
L 3.029326 21.666614 
L 3.086142 22.117909 
L 3.142957 22.569204 
L 3.199772 23.0205 
L 3.174067 23.484373 
L 3.148362 23.948245 
L 3.122657 24.412118 
L 3.096952 24.875991 
L 3.032449 25.430222 
L 2.967947 25.984453 
L 2.903444 26.538684 
L 2.838941 27.092915 
L 2.903444 27.621164 
L 2.967947 28.149413 
L 3.032449 28.677662 
L 3.096952 29.205911 
L 3.265356 29.799198 
L 3.43376 30.392485 
L 3.602164 30.985772 
L 3.770568 31.579059 
" style="fill:none;stroke:#000000;stroke-linecap:square;stroke-width:0.4;"/>
   </g>
   <g id="line2d_25">
    <path clip-path="url(#pbc696422cf)" d="M 4.374997 19.757669 
L 4.442142 20.251165 
L 4.509288 20.74466 
L 4.576433 21.238156 
L 4.643579 21.731652 
L 4.90123 22.440452 
L 5.15888 23.149252 
L 5.416531 23.858052 
L 5.674182 24.566853 
L 6.073691 25.159643 
L 6.473201 25.752434 
L 6.87271 26.345225 
L 7.272219 26.938015 
L 7.426929 27.440613 
L 7.58164 27.943211 
L 7.736351 28.445808 
L 7.891062 28.948406 
L 8.223786 29.380008 
L 8.55651 29.81161 
" style="fill:none;stroke:#000000;stroke-linecap:square;stroke-width:0.4;"/>
   </g>
   <g id="line2d_26">
    <path clip-path="url(#pbc696422cf)" d="M 8.55651 29.81161 
L 8.55675 30.518921 
L 8.55699 31.226232 
L 8.695365 31.813478 
L 8.83374 32.400725 
L 8.972114 32.987972 
L 9.110489 33.575218 
L 9.248864 34.162465 
L 9.387239 34.749712 
L 9.525613 35.336958 
L 9.663988 35.924205 
" style="fill:none;stroke:#4169e1;stroke-linecap:square;stroke-width:0.4;"/>
   </g>
   <g id="line2d_27">
    <path clip-path="url(#pbc696422cf)" d="M 12.67412 40.021775 
L 12.937176 40.670502 
L 13.200232 41.319229 
L 13.303173 41.808587 
L 13.406113 42.297945 
L 13.509053 42.787304 
L 13.611993 43.276662 
L 13.612234 43.908343 
L 13.612474 44.540025 
L 13.612714 45.171706 
L 13.612954 45.803387 
L 13.664485 46.305985 
L 13.716015 46.808582 
L 13.767545 47.31118 
L 13.819075 47.813778 
L 14.025316 48.342027 
L 14.231557 48.870276 
L 14.437798 49.398525 
L 14.644039 49.926774 
L 14.850159 50.596849 
L 15.05628 51.266924 
L 15.262401 51.936999 
L 15.468522 52.607074 
L 15.648937 53.070947 
L 15.829353 53.53482 
L 16.009769 53.998693 
L 16.190184 54.462565 
L 16.475162 54.889451 
L 16.76014 55.316336 
L 17.045117 55.743222 
L 17.330095 56.170107 
L 17.615072 56.596992 
L 17.90005 57.023878 
L 18.185027 57.450763 
L 18.470005 57.877648 
" style="fill:none;stroke:#4169e1;stroke-linecap:square;stroke-width:0.4;"/>
   </g>
   <g id="line2d_28">
    <path clip-path="url(#pbc696422cf)" d="M 11.115962 39.191008 
L 10.948519 39.766918 
L 10.781076 40.342829 
L 10.684983 40.79793 
L 10.588889 41.253032 
L 10.492795 41.708134 
L 10.396702 42.163235 
L 10.106019 42.560415 
L 9.815336 42.957595 
L 9.334868 43.167769 
L 8.8544 43.377943 
L 8.373932 43.588117 
L 7.893464 43.798292 
L 7.102373 43.90884 
L 6.311283 44.019388 
L 5.428663 44.142514 
L 5.116359 44.523144 
L 4.804055 44.903775 
L 4.940748 45.698134 
L 5.077441 46.492494 
L 5.527399 47.126657 
L 5.977358 47.760821 
L 6.569534 48.307605 
L 7.161711 48.854389 
L 7.731786 49.434271 
L 8.301862 50.014153 
L 8.273034 50.444431 
L 7.978987 51.139165 
L 7.684941 51.833898 
L 7.723498 52.297771 
L 7.762056 52.761643 
L 7.800613 53.225516 
L 7.839171 53.689389 
L 8.045532 54.488382 
L 8.251893 55.287375 
L 8.612724 55.844585 
L 8.973556 56.401795 
L 9.334387 56.959005 
L 9.695219 57.516215 
" style="fill:none;stroke:#4169e1;stroke-linecap:square;stroke-width:0.4;"/>
   </g>
   <g id="line2d_29">
    <path clip-path="url(#pbc696422cf)" d="M 16.977191 42.830497 
L 17.717832 42.835131 
L 18.458474 42.839765 
L 19.006207 43.123252 
L 19.553941 43.406739 
L 20.101674 43.690226 
L 20.649408 43.973713 
L 21.0521 44.173461 
L 21.454792 44.373209 
L 21.857484 44.572957 
L 22.260176 44.772706 
L 22.662869 44.972454 
L 23.065561 45.172202 
L 23.468253 45.37195 
L 23.870945 45.571699 
L 24.251115 45.996846 
L 24.631286 46.421994 
L 25.011456 46.847142 
L 25.391626 47.27229 
L 25.932873 47.980924 
L 26.474121 48.689559 
L 26.75123 49.250079 
L 27.02834 49.810599 
L 27.30545 50.371118 
L 27.58256 50.931638 
" style="fill:none;stroke:#008000;stroke-linecap:square;stroke-width:0.4;"/>
   </g>
   <g id="line2d_30">
    <path clip-path="url(#pbc696422cf)" d="M 27.58256 50.931638 
L 27.118668 50.957455 
L 26.654776 50.983272 
L 26.190885 51.009088 
L 25.726993 51.034905 
L 24.902029 51.034905 
L 24.077066 51.034905 
L 23.51648 51.099281 
L 22.955894 51.163657 
L 22.395308 51.228034 
L 21.834722 51.29241 
L 21.403021 51.466507 
L 20.971321 51.640604 
L 20.539621 51.814701 
L 20.10792 51.988798 
L 19.749611 52.426027 
L 19.391302 52.863255 
L 19.032993 53.300484 
L 18.674684 53.737712 
" style="fill:none;stroke:#008000;stroke-linecap:square;stroke-width:0.4;"/>
   </g>
   <g id="line2d_31">
    <path clip-path="url(#pbc696422cf)" d="M 27.58256 50.931638 
L 28.381578 50.85485 
L 29.154651 50.69995 
L 29.657221 50.764492 
L 30.15979 50.829033 
L 30.649627 51.254016 
L 31.139464 51.678998 
L 31.577651 52.271789 
L 32.015838 52.864579 
L 32.434686 53.418645 
L 32.853534 53.97271 
L 33.272382 54.526776 
L 33.69123 55.080842 
L 34.045575 55.357875 
L 34.39992 55.634907 
L 34.754265 55.91194 
L 35.10861 56.188973 
L 35.946306 56.485534 
L 36.784002 56.782095 
L 37.53137 56.949572 
L 38.278738 57.117049 
L 38.781307 57.625936 
L 39.283877 58.134822 
L 39.786446 58.643709 
L 40.289016 59.152595 
L 40.61141 59.552092 
L 40.933804 59.951588 
" style="fill:none;stroke:#4169e1;stroke-linecap:square;stroke-width:0.4;"/>
   </g>
  </g>
 </g>
 <defs>
  <clipPath id="pbc696422cf">
   <rect height="72" width="62.456702" x="0" y="0"/>
  </clipPath>
 </defs>
</svg>
