<?xml version="1.0" encoding="utf-8" standalone="no"?>
<!DOCTYPE svg PUBLIC "-//W3C//DTD SVG 1.1//EN"
  "http://www.w3.org/Graphics/SVG/1.1/DTD/svg11.dtd">
<svg height="72pt" version="1.1" viewBox="0 0 44.010023 72" width="44.010023pt" xmlns="http://www.w3.org/2000/svg" xmlns:xlink="http://www.w3.org/1999/xlink">
 <metadata>
  <rdf:RDF xmlns:cc="http://creativecommons.org/ns#" xmlns:dc="http://purl.org/dc/elements/1.1/" xmlns:rdf="http://www.w3.org/1999/02/22-rdf-syntax-ns#">
   <cc:Work>
    <dc:type rdf:resource="http://purl.org/dc/dcmitype/StillImage"/>
    <dc:date>2022-05-22T19:40:57.727568</dc:date>
    <dc:format>image/svg+xml</dc:format>
    <dc:creator>
     <cc:Agent>
      <dc:title>Matplotlib v3.4.3, https://matplotlib.org/</dc:title>
     </cc:Agent>
    </dc:creator>
   </cc:Work>
  </rdf:RDF>
 </metadata>
 <defs>
  <style type="text/css">*{stroke-linecap:butt;stroke-linejoin:round;}</style>
 </defs>
 <g id="figure_1">
  <g id="patch_1">
   <path d="M 0 72 
L 44.010023 72 
L 44.010023 0 
L 0 0 
z
" style="fill:#ffffff;"/>
  </g>
  <g id="axes_1">
   <g id="line2d_1">
    <path clip-path="url(#p95ed5a7fc7)" d="M 26.550317 33.269887 
L 26.7321 32.596348 
L 26.913884 31.922808 
L 27.095668 31.249269 
L 27.277451 30.57573 
L 27.499767 29.753287 
L 27.722083 28.930845 
L 27.969961 28.0135 
L 28.217838 27.096155 
L 28.454615 26.219712 
L 28.691392 25.343269 
L 28.924503 24.480593 
L 29.157614 23.617918 
L 29.388892 22.762193 
L 29.620169 21.906468 
L 29.928336 20.765768 
L 30.236503 19.625069 
L 30.53917 18.505088 
L 30.841837 17.385106 
L 31.122609 16.346126 
L 31.403381 15.307146 
L 31.665618 14.336603 
L 31.927855 13.366059 
L 32.094566 12.748927 
L 32.261278 12.131794 
L 32.427989 11.514661 
L 32.5947 10.897529 
L 32.903376 9.755092 
L 33.212052 8.612655 
L 33.384059 7.976074 
L 33.556066 7.339493 
L 33.728073 6.702912 
L 33.90008 6.066331 
L 34.020862 5.620959 
" style="fill:none;stroke:#808080;stroke-linecap:square;stroke-width:0.4;"/>
   </g>
   <g id="line2d_2">
    <path clip-path="url(#p95ed5a7fc7)" d="M 12.676301 30.178477 
L 13.197719 29.818917 
L 14.083011 29.219027 
L 14.968303 28.619138 
L 15.496545 28.24688 
L 16.024787 27.874622 
L 16.741126 27.381932 
L 17.312854 26.988689 
L 17.884581 26.595445 
L 18.764781 25.990075 
L 19.644981 25.384705 
L 20.597181 24.729746 
L 21.549381 24.074786 
L 22.249834 23.593056 
L 22.950287 23.111326 
L 23.65074 22.629597 
L 24.351192 22.147867 
L 25.254713 21.526324 
L 25.574897 21.306043 
L 26.514062 20.660975 
" style="fill:none;stroke:#808080;stroke-linecap:square;stroke-width:0.4;"/>
   </g>
   <g id="line2d_3">
    <path clip-path="url(#p95ed5a7fc7)" d="M 4.989244 65.057894 
L 5.905291 64.481663 
L 6.821339 63.905432 
L 7.737386 63.329201 
L 8.653433 62.75297 
" style="fill:none;stroke:#808080;stroke-linecap:square;stroke-width:0.4;"/>
   </g>
   <g id="line2d_4">
    <path clip-path="url(#p95ed5a7fc7)" d="M 2.312899 55.547877 
L 2.760994 54.721826 
L 3.1544 53.996157 
L 3.547806 53.270488 
L 4.122385 52.219077 
L 4.695131 51.175152 
L 5.133449 50.376368 
L 5.595292 49.534678 
L 6.057134 48.692988 
L 6.501155 47.883778 
L 6.945175 47.074569 
L 7.236029 46.544586 
L 7.526883 46.014603 
L 7.816362 45.486959 
L 8.105841 44.959316 
L 8.39532 44.431672 
L 8.684799 43.904028 
L 9.144096 43.067016 
L 9.603393 42.230005 
L 10.082141 41.357438 
L 10.560889 40.484871 
L 10.944213 39.793955 
L 11.327537 39.103039 
" style="fill:none;stroke:#808080;stroke-linecap:square;stroke-width:0.4;"/>
   </g>
   <g id="line2d_5">
    <path clip-path="url(#p95ed5a7fc7)" d="M 2.857538 66.281733 
L 3.404493 65.703413 
L 3.951448 65.125094 
L 4.498403 64.546774 
L 5.045358 63.968455 
L 5.592313 63.390136 
L 6.139268 62.811816 
L 6.686223 62.233497 
L 7.233178 61.655177 
L 7.780133 61.076858 
L 8.327088 60.498538 
L 8.874043 59.920219 
L 9.420998 59.341899 
L 9.967953 58.76358 
L 10.514908 58.18526 
L 11.061863 57.606941 
L 11.608818 57.028621 
L 12.155773 56.450302 
L 12.702728 55.871982 
L 13.249683 55.293663 
L 13.796638 54.715343 
L 14.343593 54.137024 
L 14.890548 53.558704 
L 15.437503 52.980385 
L 15.984458 52.402065 
L 16.531413 51.823746 
L 17.078368 51.245426 
L 17.625323 50.667107 
L 18.172278 50.088787 
L 18.719233 49.510468 
L 19.266188 48.932148 
L 19.813143 48.353829 
L 20.360098 47.775509 
L 20.803915 47.306344 
L 21.592638 46.472306 
L 22.38136 45.638268 
L 23.170082 44.804231 
L 23.958804 43.970193 
L 24.747527 43.136155 
L 25.536249 42.302117 
L 26.324971 41.468079 
L 27.113693 40.634041 
" style="fill:none;stroke:#808080;stroke-linecap:square;stroke-width:0.4;"/>
   </g>
   <g id="line2d_6">
    <path clip-path="url(#p95ed5a7fc7)" d="M 26.107518 34.145929 
L 26.222342 34.907788 
L 26.337166 35.669646 
L 26.45199 36.431505 
L 26.566815 37.193364 
L 26.681639 37.955222 
L 26.796463 38.717081 
L 26.911287 39.478939 
L 27.026111 40.240798 
" style="fill:none;stroke:#808080;stroke-linecap:square;stroke-width:0.4;"/>
   </g>
   <g id="line2d_7">
    <path clip-path="url(#p95ed5a7fc7)" d="M 34.155698 5.43356 
L 34.611023 5.339593 
L 38.020103 5.541027 
L 39.084734 5.403084 
L 39.234439 6.251458 
L 39.075492 7.101068 
L 38.012058 10.890177 
L 36.250131 14.843328 
L 34.382953 16.417503 
L 33.278324 17.860153 
L 32.193249 20.400728 
L 31.141653 23.022272 
L 29.564069 26.998396 
L 28.664507 29.322217 
L 27.626456 30.418606 
L 26.547058 32.055939 
L 26.219134 32.752335 
L 26.137255 33.571168 
L 26.463753 33.658853 
L 26.550317 33.269887 
L 26.550317 33.269887 
" style="fill:none;stroke:#4169e1;stroke-linecap:square;stroke-width:0.4;"/>
   </g>
   <g id="line2d_8">
    <path clip-path="url(#p95ed5a7fc7)" d="M 21.630649 39.614977 
L 21.880564 39.608561 
L 22.160826 39.712553 
L 22.302587 39.836862 
L 22.482843 40.121569 
L 22.58733 40.458672 
L 22.587432 40.685235 
L 22.587534 40.911798 
L 22.561056 41.138761 
L 22.534578 41.365725 
L 22.508099 41.592689 
L 22.481621 41.819652 
L 22.357988 42.065062 
L 22.234354 42.310471 
L 22.056135 42.532489 
L 21.877916 42.754507 
L 21.854798 42.974152 
L 21.831681 43.193798 
L 21.808563 43.413443 
L 21.785445 43.633089 
L 21.762328 43.852734 
L 21.73921 44.07238 
L 21.716093 44.292025 
L 21.692975 44.511671 
L 21.642157 44.822309 
L 21.591339 45.132947 
L 21.490111 45.421931 
L 21.388882 45.710915 
L 21.248904 45.865098 
L 21.108925 46.019281 
L 20.968946 46.173464 
L 20.828968 46.327647 
L 20.688989 46.48183 
L 20.549011 46.636013 
L 20.409032 46.790196 
L 20.269054 46.944379 
L 20.115785 47.043291 
L 19.962517 47.142203 
L 19.809248 47.241115 
L 19.655979 47.340028 
L 19.466354 47.471688 
L 19.276729 47.603348 
L 19.087103 47.735009 
L 18.897478 47.866669 
" style="fill:none;stroke:#000000;stroke-linecap:square;stroke-width:0.4;"/>
   </g>
   <g id="line2d_9">
    <path clip-path="url(#p95ed5a7fc7)" d="M 32.902052 23.562313 
L 33.049923 23.833119 
L 33.121619 24.122905 
L 33.16541 24.35575 
L 33.209201 24.588595 
L 33.245048 24.850044 
L 33.280896 25.111494 
L 33.28558 25.407428 
L 33.290265 25.703363 
L 33.209302 26.045279 
L 33.12834 26.387195 
L 33.086586 26.742744 
L 33.044831 27.098294 
L 32.975988 27.402516 
L 32.900016 27.628544 
L 32.824043 27.854572 
L 32.785548 28.058144 
L 32.747052 28.261717 
L 32.749395 28.467695 
L 32.751737 28.673673 
L 32.767828 28.825249 
" style="fill:none;stroke:#008000;stroke-linecap:square;stroke-width:0.4;"/>
   </g>
   <g id="line2d_10">
    <path clip-path="url(#p95ed5a7fc7)" d="M 16.394872 46.629196 
L 16.66546 46.649513 
L 16.936047 46.66983 
L 17.217838 46.690014 
L 17.499628 46.710197 
L 17.726934 46.737331 
L 17.95424 46.764465 
L 18.157919 46.798282 
L 18.361598 46.8321 
L 18.556926 46.904546 
L 18.752255 46.976993 
L 18.901959 47.086331 
L 19.013983 47.285225 
L 19.039443 47.381197 
L 19.055329 47.529565 
L 19.008483 47.700389 
L 18.897478 47.866669 
L 18.797064 47.944997 
L 18.546539 48.11689 
L 18.376059 48.246546 
L 18.236539 48.375934 
L 18.036679 48.601494 
L 17.836819 48.827054 
L 17.636958 49.052614 
L 17.437098 49.278174 
L 17.20745 49.549114 
L 16.977802 49.820053 
L 16.807882 50.020551 
L 16.637963 50.221049 
L 16.468044 50.421547 
L 16.298124 50.622045 
L 16.052283 50.881456 
L 15.806443 51.140866 
L 15.560602 51.400277 
L 15.314761 51.659688 
L 15.06892 51.919099 
L 14.823079 52.17851 
L 14.577239 52.437921 
L 14.331398 52.697332 
" style="fill:none;stroke:#4169e1;stroke-linecap:square;stroke-width:0.4;"/>
   </g>
   <g id="line2d_11">
    <path clip-path="url(#p95ed5a7fc7)" d="M 14.321825 39.367964 
L 14.449023 39.52502 
L 14.57622 39.682077 
L 14.770734 39.899417 
L 14.965248 40.116757 
L 15.168214 40.381414 
L 15.37118 40.646071 
L 15.536058 40.874104 
L 15.700937 41.102137 
L 15.871111 41.412575 
L 16.041285 41.723012 
L 16.211459 42.03345 
L 16.381633 42.343887 
" style="fill:none;stroke:#4169e1;stroke-linecap:square;stroke-width:0.4;"/>
   </g>
   <g id="line2d_12">
    <path clip-path="url(#p95ed5a7fc7)" d="M 20.809822 40.140014 
L 20.882943 40.311473 
L 20.956064 40.482933 
L 21.029185 40.654392 
L 21.102305 40.825851 
L 21.175426 40.99731 
L 21.248547 41.168769 
L 21.321668 41.340228 
L 21.394789 41.511687 
L 21.525042 41.813905 
L 21.655294 42.116122 
L 21.766605 42.435314 
L 21.877916 42.754507 
" style="fill:none;stroke:#ff0000;stroke-linecap:square;stroke-width:0.4;"/>
   </g>
   <g id="line2d_13">
    <path clip-path="url(#p95ed5a7fc7)" d="M 31.251029 39.459391 
L 31.299708 39.355399 
L 31.376291 39.249804 
L 31.451449 39.183773 
L 31.576304 39.107851 
L 31.706048 39.057326 
L 31.796278 38.985146 
L 31.886508 38.871531 
L 31.939668 38.784916 
L 32.008308 38.508229 
L 32.036619 38.395683 
L 32.093446 38.200398 
L 32.150272 38.005113 
L 32.207099 37.809828 
L 32.263925 37.614543 
L 32.29794 37.499591 
L 32.386031 37.221166 
L 32.474122 36.942741 
L 32.56425 36.70054 
L 32.654378 36.458338 
L 32.716093 36.290722 
L 32.807749 36.04157 
L 32.878222 35.892399 
L 32.933012 35.835458 
L 32.985357 35.80926 
L 33.051349 35.78921 
L 33.130377 35.790279 
L 33.206349 35.837864 
L 33.272952 35.902023 
L 33.316132 35.953618 
" style="fill:none;stroke:#008000;stroke-linecap:square;stroke-width:0.4;"/>
   </g>
   <g id="line2d_14">
    <path clip-path="url(#p95ed5a7fc7)" d="M 34.020862 5.620959 
L 34.074837 5.485689 
L 34.155698 5.43356 
L 34.284219 5.466709 
L 34.36508 5.50467 
L 34.450625 5.61882 
L 34.446959 5.799268 
L 34.371445 6.011428 
L 34.295931 6.223589 
L 34.220417 6.435749 
L 34.144903 6.647909 
L 34.069389 6.860069 
L 33.993875 7.072229 
L 33.918361 7.28439 
L 33.842847 7.49655 
L 33.784849 7.715727 
L 33.726851 7.934905 
L 33.668854 8.154083 
L 33.610856 8.37326 
L 33.552858 8.592438 
L 33.494861 8.811616 
L 33.436863 9.030793 
L 33.378865 9.249971 
" style="fill:none;stroke:#4169e1;stroke-linecap:square;stroke-width:0.4;"/>
   </g>
   <g id="line2d_15">
    <path clip-path="url(#p95ed5a7fc7)" d="M 28.212543 19.723179 
L 28.439237 19.941054 
L 28.665932 20.158928 
L 28.840231 20.339577 
L 29.014529 20.520225 
L 29.188828 20.700874 
L 29.363126 20.881522 
L 29.477034 21.042455 
L 29.590941 21.203388 
L 29.704849 21.364321 
L 29.818757 21.525254 
L 29.885767 21.647692 
L 30.023862 21.898715 
L 30.161956 22.149739 
L 30.226166 22.323904 
L 30.290376 22.49807 
L 30.354586 22.672236 
L 30.418796 22.846402 
L 30.494259 23.137458 
L 30.569722 23.428514 
L 30.645185 23.71957 
L 30.720648 24.010626 
" style="fill:none;stroke:#ff0000;stroke-linecap:square;stroke-width:0.4;"/>
   </g>
   <g id="line2d_16">
    <path clip-path="url(#p95ed5a7fc7)" d="M 30.292514 18.118127 
L 30.363548 18.317288 
L 30.434581 18.516449 
L 30.505614 18.71561 
L 30.576647 18.914772 
L 30.731341 19.228751 
L 30.886036 19.542731 
L 31.04073 19.856711 
L 31.195424 20.170691 
L 31.3574 20.471772 
L 31.519376 20.772853 
L 31.681352 21.073934 
L 31.843328 21.375015 
" style="fill:none;stroke:#000000;stroke-linecap:square;stroke-width:0.4;"/>
   </g>
   <g id="line2d_17">
    <path clip-path="url(#p95ed5a7fc7)" d="M 26.514062 20.660975 
L 26.307022 20.955172 
L 26.099982 21.249369 
L 25.992032 21.400545 
L 25.884082 21.55172 
" style="fill:none;stroke:#008000;stroke-linecap:square;stroke-width:0.4;"/>
   </g>
   <g id="line2d_18">
    <path clip-path="url(#p95ed5a7fc7)" d="M 31.843328 21.375015 
L 31.975668 21.648427 
L 32.108009 21.921839 
L 32.24035 22.195252 
L 32.37269 22.468664 
L 32.505031 22.742076 
L 32.637371 23.015488 
L 32.769712 23.288901 
L 32.902052 23.562313 
L 32.843265 23.784264 
L 32.784479 24.006215 
L 32.725692 24.228167 
L 32.666905 24.450118 
L 32.608118 24.672069 
L 32.549331 24.89402 
L 32.490544 25.115971 
L 32.431757 25.337923 
L 32.272276 25.654776 
L 32.112795 25.97163 
L 31.953315 26.288483 
L 31.793834 26.605337 
L 31.656554 26.860838 
L 31.519274 27.116339 
L 31.381995 27.37184 
L 31.244715 27.627341 
L 31.130502 27.770831 
L 31.016289 27.914321 
L 30.902075 28.05781 
L 30.787862 28.2013 
L 30.639329 28.339376 
L 30.490796 28.477452 
L 30.342263 28.615529 
L 30.19373 28.753605 
" style="fill:none;stroke:#4169e1;stroke-linecap:square;stroke-width:0.4;"/>
   </g>
   <g id="line2d_19">
    <path clip-path="url(#p95ed5a7fc7)" d="M 26.219134 32.752335 
L 26.120757 32.964328 
L 26.012094 33.170707 
L 25.903431 33.377086 
L 25.72562 33.581594 
L 25.547808 33.786102 
L 25.422188 33.91803 
L 25.296569 34.049957 
L 25.17095 34.181885 
L 25.045331 34.313813 
L 24.864871 34.418205 
L 24.684411 34.522598 
L 24.482362 34.619906 
L 24.280312 34.717214 
L 24.10026 34.874271 
L 23.920207 35.031328 
L 23.681088 35.191325 
L 23.441968 35.351322 
L 23.271896 35.438472 
L 23.101824 35.525622 
L 22.913828 35.609163 
L 22.725832 35.692704 
L 22.517061 35.81327 
L 22.412777 35.92341 
L 22.341693 36.049857 
L 22.214801 36.160532 
L 22.06306 36.246345 
L 21.869972 36.282435 
L 21.676884 36.318524 
L 21.397742 36.337237 
L 21.1186 36.355951 
L 20.764707 36.384154 
L 20.410815 36.412357 
L 20.056922 36.440561 
L 19.703029 36.468764 
L 19.492272 36.50345 
L 19.281515 36.538136 
L 19.070758 36.572823 
L 18.860001 36.607509 
L 18.659581 36.606974 
L 18.45916 36.606439 
L 18.258842 36.622479 
L 18.058524 36.638519 
L 17.875823 36.642529 
L 17.734674 36.603231 
L 17.602078 36.526775 
L 17.440204 36.367045 
L 17.27833 36.207315 
L 17.116456 36.047585 
L 16.954582 35.887855 
L 16.810683 35.765551 
L 16.666784 35.643247 
L 16.439732 35.49274 
L 16.212681 35.342233 
L 15.985629 35.191726 
L 15.758578 35.041219 
L 15.58927 34.935156 
L 15.419961 34.829092 
L 15.250653 34.723029 
L 15.081345 34.616965 
L 14.896404 34.54345 
L 14.708815 34.535697 
L 14.565425 34.564836 
L 14.442607 34.639689 
L 14.261841 34.786453 
L 14.081076 34.933217 
L 13.900311 35.079982 
L 13.719546 35.226746 
L 13.445801 35.329802 
L 13.172056 35.432858 
L 12.991189 35.472156 
L 12.810322 35.511453 
L 12.518704 35.558971 
L 12.227086 35.606489 
L 11.935469 35.654007 
L 11.643851 35.701525 
L 11.422859 35.699921 
L 11.196368 35.633089 
L 11.036276 35.508245 
L 10.802859 35.245994 
L 10.667413 35.121151 
L 10.507117 35.029456 
L 10.306493 34.990426 
L 10.110147 35.013684 
L 9.866139 35.085061 
L 9.61765 35.231291 
L 9.459188 35.372174 
L 9.423137 35.409066 
L 9.242219 35.595863 
L 9.0613 35.78266 
L 8.880382 35.969457 
L 8.699464 36.156255 
L 8.427145 36.37306 
L 8.153197 36.589865 
L 8.02162 36.749728 
L 7.89595 36.997544 
L 7.856233 37.207933 
L 7.866213 37.410035 
L 7.883526 37.60786 
L 7.900838 37.805684 
L 7.910615 38.159897 
L 7.917133 38.376435 
L 7.92365 38.592973 
L 7.913568 38.797079 
L 7.903486 39.001186 
L 7.979255 39.320646 
L 8.017139 39.563382 
L 8.10187 39.89113 
L 8.176824 40.11796 
L 8.251778 40.34479 
L 8.302494 40.515614 
L 8.314103 40.585387 
L 8.347914 40.790697 
L 8.368689 40.916075 
" style="fill:none;stroke:#008000;stroke-linecap:square;stroke-width:0.4;"/>
   </g>
   <g id="line2d_20">
    <path clip-path="url(#p95ed5a7fc7)" d="M 26.514062 20.660975 
L 26.74758 20.502448 
L 26.981098 20.343921 
L 27.214616 20.185394 
L 27.448134 20.026867 
L 27.690309 19.940786 
L 27.932484 19.854706 
L 28.030046 19.831715 
L 28.212543 19.723179 
L 28.480381 19.565187 
L 28.706897 19.384304 
L 28.933414 19.203422 
L 29.159931 19.022539 
L 29.386448 18.841657 
L 29.612964 18.660774 
L 29.839481 18.479892 
L 30.065998 18.299009 
L 30.292514 18.118127 
L 30.501337 17.989875 
L 30.710159 17.861623 
L 30.918981 17.733371 
L 31.127803 17.605119 
L 31.294616 17.535613 
L 31.461429 17.466108 
L 31.642042 17.423502 
L 31.822654 17.380896 
L 32.003267 17.33829 
L 32.18388 17.295684 
L 32.364492 17.253078 
L 32.545105 17.210473 
L 32.725717 17.167867 
L 32.90633 17.125261 
L 33.226106 17.081954 
L 33.431822 17.091978 
L 33.637538 17.102003 
L 33.77054 17.159747 
" style="fill:none;stroke:#008000;stroke-linecap:square;stroke-width:0.4;"/>
   </g>
   <g id="line2d_21">
    <path clip-path="url(#p95ed5a7fc7)" d="M 6.692613 64.05781 
L 6.499118 64.184124 
L 6.305623 64.310438 
L 6.152711 64.418038 
L 5.999798 64.525639 
L 5.846886 64.633239 
L 5.693974 64.74084 
L 5.443754 64.959115 
L 5.193534 65.177391 
L 4.875999 65.297155 
L 4.589829 65.44285 
L 4.30366 65.588545 
L 4.104054 65.76231 
L 3.904449 65.936075 
L 3.678365 66.112513 
L 3.428247 66.356853 
L 3.357977 66.458706 
L 3.326407 66.514845 
L 3.322334 66.591569 
L 3.346164 66.689947 
L 3.404416 66.82682 
L 3.466538 66.991228 
" style="fill:none;stroke:#008000;stroke-linecap:square;stroke-width:0.4;"/>
   </g>
   <g id="line2d_22">
    <path clip-path="url(#p95ed5a7fc7)" d="M 33.378865 9.249971 
L 33.290061 9.482281 
L 33.201257 9.714591 
L 33.128034 9.918297 
L 33.054812 10.122003 
L 32.981589 10.325709 
L 32.908366 10.529415 
L 32.810193 10.820003 
L 32.70815 11.076106 
L 32.522394 11.292109 
L 32.34336 11.4632 
L 32.222782 11.590717 
L 31.975516 11.852434 
L 31.845365 12.146497 
L 31.808906 12.340312 
L 31.772448 12.534126 
L 31.730541 12.830195 
L 31.688634 13.126264 
L 31.646727 13.422332 
L 31.60482 13.718401 
L 31.536689 14.057108 
L 31.468558 14.395816 
L 31.396354 14.5637 
L 31.32415 14.731583 
L 31.150615 15.012013 
L 30.949787 15.265977 
L 30.74896 15.519941 
L 30.506989 15.77845 
L 30.268684 16.017978 
L 30.030379 16.257506 
L 29.833829 16.461346 
L 29.637279 16.665185 
L 29.455597 16.900169 
L 29.273915 17.135152 
L 29.052719 17.404621 
L 28.857391 17.613139 
L 28.662063 17.821657 
L 28.458994 18.072012 
L 28.255926 18.322367 
L 28.072819 18.612688 
L 27.889711 18.903009 
L 27.735322 19.120884 
L 27.580933 19.338758 
L 27.546308 19.549949 
L 27.583174 19.660891 
L 27.645092 19.748843 
L 27.733896 19.802844 
L 27.807832 19.830646 
L 27.932484 19.854706 
" style="fill:none;stroke:#008000;stroke-linecap:square;stroke-width:0.4;"/>
   </g>
   <g id="line2d_23">
    <path clip-path="url(#p95ed5a7fc7)" d="M 16.381633 42.343887 
L 16.260749 42.522197 
L 16.139865 42.700506 
L 16.018982 42.878816 
L 15.898098 43.057125 
L 15.735817 43.275066 
L 15.573535 43.493008 
L 15.411254 43.710949 
L 15.248973 43.92889 
L 15.101203 44.140282 
L 14.953434 44.351673 
L 14.805665 44.563065 
L 14.657896 44.774457 
L 14.485583 45.082689 
L 14.333486 45.354564 
L 14.181388 45.626439 
L 14.029291 45.898314 
L 13.877193 46.170189 
L 13.751549 46.349033 
L 13.625904 46.527878 
L 13.500259 46.706722 
L 13.374615 46.885566 
L 13.24897 47.06441 
L 13.123326 47.243254 
L 12.997681 47.422098 
L 12.872036 47.600942 
L 12.738219 47.811265 
L 12.604402 48.021587 
L 12.470585 48.231909 
L 12.336767 48.442232 
L 12.167408 48.660641 
L 11.998049 48.87905 
L 11.812294 48.993734 
L 11.626538 49.108419 
L 11.418887 49.135821 
L 11.211236 49.163222 
L 11.003636 49.204124 
L 10.796036 49.245025 
L 10.588436 49.285927 
L 10.380836 49.326828 
L 10.118599 49.430686 
L 9.856362 49.534544 
L 9.67081 49.67663 
L 9.485259 49.818716 
L 9.326389 50.020685 
L 9.167519 50.222653 
L 8.951212 50.327179 
L 8.749773 50.425289 
L 8.499451 50.470201 
L 8.260943 50.441062 
L 8.087408 50.259812 
L 7.913874 50.078562 
L 7.614262 49.905064 
L 7.346118 49.794657 
L 7.077974 49.684249 
L 6.824801 49.62704 
" style="fill:none;stroke:#4169e1;stroke-linecap:square;stroke-width:0.4;"/>
   </g>
   <g id="line2d_24">
    <path clip-path="url(#p95ed5a7fc7)" d="M 16.394872 46.629196 
L 16.404037 46.525204 
L 16.423183 46.27926 
L 16.390391 46.142654 
L 16.313808 46.060851 
L 16.111758 45.989741 
L 15.857566 45.987068 
L 15.603578 46.025296 
L 15.460188 46.043742 
L 15.174222 46.145996 
L 14.888257 46.24825 
L 14.746292 46.482431 
L 14.704131 46.589096 
L 14.727147 46.775426 
L 14.792731 46.986082 
L 14.889275 47.180164 
L 14.978792 47.344171 
L 15.068309 47.508179 
L 15.163835 47.702127 
L 15.25936 47.896075 
L 15.423322 48.054335 
L 15.589932 48.136272 
L 15.756541 48.218209 
L 15.964192 48.300145 
L 16.171843 48.382082 
L 16.297513 48.529649 
L 16.406685 48.704215 
L 16.608939 48.922892 
L 16.729109 49.217757 
L 16.876573 49.496316 
L 16.977802 49.820053 
" style="fill:none;stroke:#008000;stroke-linecap:square;stroke-width:0.4;"/>
   </g>
   <g id="line2d_25">
    <path clip-path="url(#p95ed5a7fc7)" d="M 4.274126 64.837613 
L 4.112813 64.993467 
L 3.951499 65.149321 
L 3.667417 65.329568 
L 3.383336 65.509816 
L 3.099254 65.690064 
L 2.815172 65.870311 
" style="fill:none;stroke:#008000;stroke-linecap:square;stroke-width:0.4;"/>
   </g>
   <g id="line2d_26">
    <path clip-path="url(#p95ed5a7fc7)" d="M 14.331398 52.697332 
L 14.294379 52.941605 
L 14.25736 53.185878 
L 14.220342 53.430152 
L 14.183323 53.674425 
L 14.117738 54.002172 
L 14.052154 54.329919 
L 13.989319 54.531954 
L 13.926484 54.733989 
L 13.863649 54.936024 
L 13.800814 55.13806 
L 13.677893 55.364722 
L 13.554973 55.591385 
L 13.432052 55.818048 
L 13.309132 56.044711 
L 13.186212 56.271374 
L 13.063291 56.498037 
L 12.940371 56.7247 
L 12.81745 56.951363 
L 12.604402 57.175252 
L 12.391354 57.399141 
L 12.167001 57.504336 
L 11.942648 57.60953 
L 11.620631 57.689997 
L 11.298615 57.770463 
L 11.084904 57.813169 
L 10.871194 57.855875 
L 10.657483 57.898581 
L 10.443773 57.941288 
L 10.161474 58.130825 
L 9.879174 58.320362 
L 9.727637 58.517585 
L 9.5761 58.714808 
L 9.424562 58.912032 
L 9.273025 59.109255 
L 9.175717 59.290638 
L 9.07841 59.472022 
L 8.981102 59.653406 
L 8.883794 59.83479 
L 8.786486 60.016173 
L 8.689179 60.197557 
L 8.591871 60.378941 
L 8.494563 60.560325 
L 8.324236 60.75307 
L 8.15391 60.945815 
L 7.983583 61.138561 
L 7.813256 61.331306 
L 7.581062 61.473325 
L 7.348868 61.615345 
L 7.116673 61.757364 
L 6.884479 61.899383 
L 6.71512 62.030442 
L 6.545761 62.161501 
L 6.376401 62.29256 
L 6.207042 62.423619 
L 6.026786 62.723965 
L 5.84653 63.02431 
L 5.709963 63.25368 
L 5.573396 63.48305 
L 5.436829 63.712419 
L 5.300262 63.941789 
L 5.185489 64.094702 
L 5.070716 64.247615 
L 4.803081 64.460677 
L 4.535447 64.67374 
L 4.274126 64.837613 
" style="fill:none;stroke:#008000;stroke-linecap:square;stroke-width:0.4;"/>
   </g>
   <g id="line2d_27">
    <path clip-path="url(#p95ed5a7fc7)" d="M 3.005816 63.810797 
L 2.86375 64.045647 
L 2.721684 64.280497 
L 2.525031 64.477118 
L 2.328379 64.67374 
L 2.202709 64.985046 
L 2.077039 65.296353 
L 2.038747 65.482014 
L 2.000456 65.667675 
" style="fill:none;stroke:#4169e1;stroke-linecap:square;stroke-width:0.4;"/>
   </g>
   <g id="line2d_28">
    <path clip-path="url(#p95ed5a7fc7)" d="M 7.032758 61.260998 
L 6.794758 61.427278 
L 6.556759 61.593557 
L 6.398348 61.697348 
L 6.239936 61.801139 
L 6.081525 61.904931 
L 5.923113 62.008722 
L 5.600791 62.150674 
L 5.278469 62.292627 
L 5.010732 62.426426 
L 4.742996 62.560225 
L 4.47526 62.694023 
L 4.207523 62.827822 
L 3.945286 62.980735 
L 3.683049 63.133649 
L 3.481 63.302869 
L 3.27895 63.472089 
L 3.140652 63.641577 
L 3.005816 63.810797 
" style="fill:none;stroke:#008000;stroke-linecap:square;stroke-width:0.4;"/>
   </g>
   <g id="line2d_29">
    <path clip-path="url(#p95ed5a7fc7)" d="M 21.630649 39.614977 
L 21.831171 39.532773 
L 22.031694 39.450569 
L 22.261036 39.328132 
L 22.484676 39.170674 
L 22.589978 39.072029 
L 22.844628 38.847371 
L 23.099278 38.622713 
L 23.353928 38.398055 
L 23.608578 38.173397 
L 23.863228 37.948739 
L 24.117878 37.724081 
L 24.372528 37.499424 
L 24.627178 37.274766 
L 24.79119 37.149521 
L 24.955203 37.024277 
L 25.119216 36.899033 
L 25.283228 36.773788 
L 25.573369 36.58639 
L 25.86351 36.398991 
L 26.191434 36.262118 
L 26.353562 36.21881 
L 26.541151 36.226028 
L 26.786177 36.265593 
L 27.02163 36.317188 
L 27.247052 36.379543 
L 27.472474 36.441897 
L 27.697896 36.504252 
L 27.923318 36.566607 
L 28.225171 36.650415 
L 28.527023 36.734223 
L 28.699947 36.76657 
L 28.811767 36.781006 
L 28.872259 36.769511 
L 28.923587 36.748659 
L 28.956379 36.728075 
L 28.98469 36.698134 
L 29.013613 36.655895 
L 29.029296 36.60537 
L 29.028685 36.538537 
L 29.022371 36.493626 
L 29.002003 36.444437 
" style="fill:none;stroke:#008000;stroke-linecap:square;stroke-width:0.4;"/>
   </g>
   <g id="line2d_30">
    <path clip-path="url(#p95ed5a7fc7)" d="M 34.020862 5.620959 
L 33.889285 5.392391 
L 33.582952 5.251775 
L 33.276415 5.123189 
L 32.99493 4.982573 
L 32.833412 4.874839 
L 32.655397 4.742511 
L 32.419536 4.50218 
L 32.212395 4.295267 
L 32.064014 4.171894 
L 31.915634 4.04852 
L 31.724481 3.925682 
L 31.533328 3.802844 
L 31.339426 3.685352 
L 31.145523 3.56786 
L 30.948769 3.474963 
L 30.752015 3.382065 
L 30.580008 3.327396 
L 30.408001 3.272727 
L 30.101871 3.310956 
L 29.918865 3.390219 
L 29.735859 3.469483 
L 29.547456 3.614242 
L 29.359053 3.759002 
L 29.197841 4.073115 
L 29.036629 4.387228 
L 28.870019 4.704149 
L 28.703409 5.021069 
L 28.611907 5.234131 
L 28.520404 5.447194 
L 28.428901 5.660256 
L 28.337398 5.873319 
L 28.165289 6.173798 
L 27.99318 6.474278 
L 27.856613 6.711801 
L 27.720046 6.949324 
L 27.606699 7.151493 
L 27.493351 7.353662 
L 27.380004 7.55583 
L 27.266656 7.757999 
L 27.173779 7.94239 
L 27.080901 8.126782 
L 26.988023 8.311173 
L 26.895145 8.495564 
L 26.695744 8.705819 
L 26.496342 8.916075 
L 26.257222 9.1409 
L 26.004915 9.270422 
L 25.752607 9.399943 
L 25.500299 9.529465 
L 25.247992 9.658986 
L 24.978881 9.832885 
L 24.70977 10.006784 
L 24.440658 10.180682 
L 24.171547 10.354581 
L 23.973851 10.459107 
L 23.776155 10.563633 
L 23.578459 10.668159 
L 23.380763 10.772686 
L 23.183067 10.877212 
L 22.985371 10.981738 
L 22.787674 11.086264 
L 22.589978 11.19079 
L 22.300448 11.331339 
L 22.010918 11.471889 
L 21.721388 11.612438 
L 21.431858 11.752987 
L 21.222476 11.854639 
L 21.013094 11.956291 
L 20.803712 12.057944 
L 20.59433 12.159596 
L 20.415041 12.234115 
L 20.235752 12.308633 
L 20.056464 12.383151 
L 19.877175 12.45767 
L 19.697886 12.532188 
L 19.518598 12.606707 
L 19.339309 12.681225 
L 19.160021 12.755743 
L 18.970497 12.834472 
L 18.780974 12.913201 
L 18.577065 12.993935 
L 18.373157 13.074669 
L 18.169249 13.155403 
L 17.96534 13.236136 
L 17.761432 13.31687 
L 17.557524 13.397604 
L 17.353615 13.478338 
L 17.149707 13.559072 
L 16.93895 13.61227 
L 16.728193 13.665469 
L 16.517436 13.718668 
L 16.306679 13.771867 
L 16.080238 13.799001 
L 15.853798 13.826135 
L 15.627358 13.853269 
L 15.400917 13.880403 
" style="fill:none;stroke:#000000;stroke-linecap:square;stroke-width:0.4;"/>
   </g>
   <g id="line2d_31">
    <path clip-path="url(#p95ed5a7fc7)" d="M 32.212395 4.295267 
L 32.2016 4.625954 
L 32.190805 4.956642 
L 32.16621 5.238008 
L 32.141616 5.519373 
L 32.117022 5.800739 
L 32.092428 6.082104 
L 32.062385 6.317021 
L 32.032342 6.551937 
L 32.002299 6.786854 
L 31.972257 7.021771 
L 31.909422 7.256687 
L 31.846587 7.491604 
L 31.783752 7.726521 
L 31.720917 7.961438 
L 31.655383 8.144425 
L 31.589849 8.327413 
L 31.524315 8.510401 
L 31.458782 8.693389 
L 31.267527 8.982908 
L 31.076272 9.272427 
L 30.926059 9.43904 
L 30.775845 9.605654 
L 30.625632 9.772268 
L 30.475418 9.938882 
L 30.303309 10.072747 
L 30.131201 10.206613 
L 29.959092 10.340479 
L 29.786983 10.474345 
L 29.614925 10.578136 
L 29.442867 10.681927 
L 29.270809 10.785718 
L 29.098751 10.889509 
L 28.900163 11.011278 
L 28.701576 11.133047 
L 28.461133 11.295718 
L 28.22069 11.458388 
L 28.058154 11.638836 
L 27.895618 11.819285 
L 27.733082 11.999733 
L 27.570546 12.180181 
" style="fill:none;stroke:#000000;stroke-linecap:square;stroke-width:0.4;"/>
   </g>
   <g id="line2d_32">
    <path clip-path="url(#p95ed5a7fc7)" d="M 33.842847 7.49655 
L 33.966785 7.802643 
L 34.090724 8.108737 
L 34.169192 8.282334 
L 34.247659 8.455932 
L 34.326126 8.62953 
L 34.404594 8.803128 
L 34.483061 8.976726 
L 34.561529 9.150323 
L 34.639996 9.323921 
L 34.718463 9.497519 
L 34.80406 9.706772 
L 34.889656 9.916025 
L 34.975252 10.125278 
L 35.060848 10.334531 
L 35.146444 10.543784 
L 35.232041 10.753037 
L 35.317637 10.96229 
L 35.403233 11.171543 
L 35.515002 11.48305 
L 35.626771 11.794556 
L 35.73854 12.106063 
L 35.850309 12.41757 
L 35.916912 12.679086 
L 35.983515 12.940602 
L 36.050118 13.202119 
L 36.116721 13.463635 
L 36.14045 13.74901 
L 36.164178 14.034385 
L 36.185667 14.236621 
L 36.207155 14.438856 
L 36.228643 14.641092 
L 36.250131 14.843328 
" style="fill:none;stroke:#000000;stroke-linecap:square;stroke-width:0.4;"/>
   </g>
   <g id="line2d_33">
    <path clip-path="url(#p95ed5a7fc7)" d="M 32.908366 10.529415 
L 32.991671 10.723764 
L 33.074976 10.918113 
L 33.183486 11.127634 
L 33.291996 11.337154 
L 33.400506 11.546674 
L 33.509016 11.756195 
L 33.561387 11.935339 
L 33.613758 12.114484 
L 33.666129 12.293629 
L 33.7185 12.472774 
L 33.770871 12.651919 
L 33.823242 12.831064 
L 33.875613 13.010209 
L 33.927984 13.189354 
L 34.010678 13.486491 
L 34.093372 13.783629 
L 34.176066 14.080767 
L 34.258759 14.377905 
L 34.300463 14.556014 
L 34.342166 14.734123 
L 34.383869 14.912232 
L 34.425573 15.090341 
L 34.465952 15.360278 
L 34.506332 15.630215 
L 34.546711 15.900152 
L 34.58709 16.170089 
" style="fill:none;stroke:#000000;stroke-linecap:square;stroke-width:0.4;"/>
   </g>
   <g id="line2d_34">
    <path clip-path="url(#p95ed5a7fc7)" d="M 34.58709 16.170089 
L 34.605829 16.35976 
L 34.624567 16.549431 
L 34.643306 16.739102 
L 34.662044 16.928773 
L 34.788122 17.244223 
L 34.876722 17.52198 
L 35.020571 17.76926 
L 35.164419 18.016541 
L 35.308267 18.263822 
L 35.452116 18.511103 
L 35.538883 18.737465 
L 35.625651 18.963827 
L 35.712418 19.190189 
L 35.799185 19.416551 
L 35.88025 19.717298 
L 35.899395 20.018045 
" style="fill:none;stroke:#ff0000;stroke-linecap:square;stroke-width:0.4;"/>
   </g>
   <g id="line2d_35">
    <path clip-path="url(#p95ed5a7fc7)" d="M 35.899395 20.018045 
L 35.773624 20.173765 
L 35.647852 20.329485 
L 35.575545 20.529983 
L 35.503239 20.730481 
L 35.430933 20.930979 
L 35.358627 21.131476 
L 35.272063 21.42554 
L 35.1855 21.719604 
L 35.07755 22.001637 
L 34.9696 22.283671 
L 34.86165 22.565705 
L 34.7537 22.847739 
L 34.725694 23.060935 
L 34.697688 23.274131 
L 34.669682 23.487327 
L 34.641676 23.700523 
L 34.497064 24.026666 
L 34.409482 24.27662 
L 34.3219 24.526574 
L 34.235336 24.704349 
L 34.148773 24.882124 
L 34.062209 25.059899 
L 33.975645 25.237674 
L 33.875537 25.494511 
L 33.775429 25.751349 
L 33.67532 26.008187 
L 33.575212 26.265025 
L 33.528264 26.522197 
L 33.481316 26.779369 
L 33.414713 27.103774 
L 33.34811 27.42818 
L 33.200544 27.747105 
L 33.052979 28.066031 
L 32.981691 28.255835 
L 32.910403 28.44564 
L 32.839115 28.635445 
L 32.767828 28.825249 
" style="fill:none;stroke:#008000;stroke-linecap:square;stroke-width:0.4;"/>
   </g>
   <g id="line2d_36">
    <path clip-path="url(#p95ed5a7fc7)" d="M 39.084734 5.403084 
L 39.339843 5.377153 
L 39.594951 5.351222 
L 39.729583 5.400144 
L 39.822664 5.473927 
L 39.901488 5.630048 
L 39.976238 5.883745 
L 40.067894 6.168184 
L 40.209858 6.339543 
L 40.366869 6.448113 
L 40.523881 6.556682 
L 40.680892 6.665252 
L 40.837903 6.773822 
L 40.994914 6.882391 
L 41.151925 6.990961 
L 41.308937 7.099531 
L 41.465948 7.2081 
L 41.704456 7.405657 
L 41.861697 7.561778 
L 41.93665 7.774306 
L 41.990218 8.084944 
L 41.999893 8.282368 
L 42.009568 8.479791 
L 41.950704 8.759954 
L 41.860984 9.030225 
L 41.771263 9.300496 
L 41.574356 9.577852 
L 41.377449 9.855207 
L 41.180542 10.132563 
L 40.983636 10.409918 
L 40.780924 10.632404 
L 40.578212 10.85489 
L 40.3755 11.077375 
L 40.172789 11.299861 
L 39.995231 11.457252 
L 39.817674 11.614643 
L 39.640117 11.772034 
L 39.462559 11.929425 
L 39.3347 12.111677 
L 39.20684 12.29393 
L 39.07898 12.476183 
L 38.951121 12.658435 
L 38.856359 12.878649 
L 38.761597 13.098862 
L 38.666836 13.319076 
L 38.572074 13.539289 
L 38.36646 13.646221 
L 38.160846 13.753154 
L 37.955231 13.860086 
L 37.749617 13.967018 
L 37.56651 14.039197 
L 37.383402 14.111377 
L 37.038879 14.201734 
L 36.694355 14.292092 
" style="fill:none;stroke:#ff0000;stroke-linecap:square;stroke-width:0.4;"/>
   </g>
   <g id="line2d_37">
    <path clip-path="url(#p95ed5a7fc7)" d="M 38.572074 13.539289 
L 38.504401 13.879267 
L 38.436729 14.219244 
L 38.369057 14.559222 
L 38.301384 14.8992 
L 38.291659 15.141735 
L 38.281933 15.384271 
L 38.272207 15.626807 
L 38.262481 15.869342 
L 38.286363 16.095972 
L 38.310244 16.322601 
L 38.334126 16.549231 
L 38.358007 16.77586 
L 38.366867 16.976492 
L 38.375727 17.177123 
L 38.335093 17.352893 
L 38.294459 17.528663 
" style="fill:none;stroke:#ff0000;stroke-linecap:square;stroke-width:0.4;"/>
   </g>
   <g id="line2d_38">
    <path clip-path="url(#p95ed5a7fc7)" d="M 37.383402 14.111377 
L 37.288029 14.375499 
L 37.192656 14.639622 
L 37.097284 14.903744 
L 37.001911 15.167867 
L 36.948089 15.389283 
L 36.894266 15.6107 
L 36.840444 15.832116 
L 36.786622 16.053533 
L 36.798334 16.294264 
L 36.810045 16.534995 
L 36.821757 16.775726 
L 36.833468 17.016458 
L 36.876037 17.279444 
L 36.918606 17.54243 
L 36.961175 17.805417 
L 37.003744 18.068403 
L 37.032921 18.37463 
L 37.062098 18.680857 
L 37.091275 18.987085 
L 37.120452 19.293312 
" style="fill:none;stroke:#ff0000;stroke-linecap:square;stroke-width:0.4;"/>
   </g>
   <g id="line2d_39">
    <path clip-path="url(#p95ed5a7fc7)" d="M 38.294459 17.528663 
L 38.145671 17.821256 
L 37.996884 18.113849 
L 37.88733 18.261282 
L 37.777776 18.408715 
L 37.668222 18.556148 
L 37.558668 18.703581 
L 37.449114 18.851013 
L 37.33956 18.998446 
L 37.230006 19.145879 
L 37.120452 19.293312 
L 36.959087 19.383669 
L 36.797723 19.474027 
L 36.636358 19.564385 
L 36.474993 19.654743 
L 36.187194 19.836394 
L 35.899395 20.018045 
" style="fill:none;stroke:#4169e1;stroke-linecap:square;stroke-width:0.4;"/>
   </g>
   <g id="line2d_40">
    <path clip-path="url(#p95ed5a7fc7)" d="M 31.150615 15.012013 
L 31.180556 15.299794 
L 31.210497 15.587576 
L 31.240437 15.875357 
L 31.270378 16.163138 
L 31.266814 16.418974 
L 31.26325 16.674809 
L 31.219662 16.977561 
L 31.176075 17.280313 
L 31.127803 17.605119 
L 31.039304 17.797865 
L 30.950806 17.99061 
L 30.862307 18.183355 
L 30.773808 18.376101 
L 30.675228 18.645436 
L 30.576647 18.914772 
L 30.503322 19.201751 
L 30.429998 19.48873 
L 30.356673 19.77571 
L 30.283349 20.062689 
L 30.233651 20.260814 
L 30.183953 20.45894 
L 30.134256 20.657065 
L 30.084558 20.85519 
L 30.03486 21.053316 
L 29.985163 21.251441 
L 29.935465 21.449566 
L 29.885767 21.647692 
L 29.798898 21.967569 
L 29.712029 22.287447 
L 29.62516 22.607325 
L 29.53829 22.927203 
L 29.451421 23.24708 
L 29.364552 23.566958 
L 29.277683 23.886836 
L 29.190814 24.206713 
L 29.103945 24.526591 
L 29.017075 24.846469 
L 28.930206 25.166346 
L 28.843337 25.486224 
L 28.756468 25.806102 
L 28.669599 26.12598 
L 28.582729 26.445857 
L 28.49586 26.765735 
L 28.427373 26.967569 
L 28.358886 27.169404 
L 28.290399 27.371239 
L 28.221912 27.573073 
L 28.113453 27.870345 
L 28.004993 28.167616 
" style="fill:none;stroke:#ff0000;stroke-linecap:square;stroke-width:0.4;"/>
   </g>
   <g id="line2d_41">
    <path clip-path="url(#p95ed5a7fc7)" d="M 25.884082 21.55172 
L 26.027981 21.791917 
L 26.171881 22.032113 
L 26.330343 22.327513 
L 26.445727 22.510635 
L 26.561112 22.693756 
L 26.676496 22.876878 
L 26.79188 23.059999 
L 26.917754 23.363419 
L 27.043628 23.666839 
L 27.105291 23.9061 
L 27.166955 24.145361 
L 27.228619 24.384622 
L 27.290283 24.623883 
L 27.351947 24.863143 
L 27.413611 25.102404 
L 27.475275 25.341665 
L 27.536939 25.580926 
L 27.585873 25.799101 
L 27.634806 26.017276 
L 27.68374 26.235451 
L 27.732674 26.453627 
L 27.781608 26.671802 
L 27.830542 26.889977 
L 27.879476 27.108152 
L 27.92841 27.326327 
L 27.947556 27.536649 
L 27.966702 27.746972 
L 27.985848 27.957294 
L 28.004993 28.167616 
L 27.989056 28.405607 
L 27.973118 28.643598 
L 27.95718 28.881589 
L 27.941242 29.11958 
L 27.925304 29.357571 
L 27.909366 29.595562 
L 27.893428 29.833553 
L 27.87749 30.071544 
" style="fill:none;stroke:#ff0000;stroke-linecap:square;stroke-width:0.4;"/>
   </g>
   <g id="line2d_42">
    <path clip-path="url(#p95ed5a7fc7)" d="M 27.580933 19.338758 
L 27.407908 19.635361 
L 27.234882 19.931964 
L 27.084465 20.258375 
L 26.934048 20.584786 
L 26.858585 20.763496 
L 26.783122 20.942206 
L 26.600829 21.199378 
L 26.38717 21.365925 
L 26.135626 21.458823 
L 25.884082 21.55172 
" style="fill:none;stroke:#008000;stroke-linecap:square;stroke-width:0.4;"/>
   </g>
   <g id="line2d_43">
    <path clip-path="url(#p95ed5a7fc7)" d="M 27.570546 12.180181 
L 27.513414 12.385491 
L 27.456282 12.5908 
L 27.442431 12.788892 
L 27.428581 12.986984 
L 27.447422 13.275701 
L 27.466262 13.564418 
L 27.521357 13.856744 
L 27.576452 14.14907 
L 27.557612 14.387529 
L 27.538772 14.625988 
L 27.432146 14.833169 
L 27.32552 15.04035 
L 27.074383 15.278542 
L 26.748089 15.404187 
L 26.534837 15.592388 
L 26.409167 15.843411 
L 26.346434 16.119564 
L 26.220967 16.445707 
L 25.944778 16.646739 
L 25.693846 16.809811 
L 25.518172 16.960452 
L 25.342499 17.111093 
L 25.242085 17.374413 
L 25.255121 17.709111 
L 25.27335 17.893703 
L 25.291579 18.078294 
L 25.257361 18.185227 
L 25.171816 18.285476 
L 24.87811 18.479023 
L 24.702386 18.59197 
L 24.526662 18.704917 
L 24.350938 18.817864 
L 24.175213 18.930812 
L 23.949231 19.119012 
L 23.723249 19.307213 
L 23.622937 19.495414 
L 23.522625 19.683614 
L 23.484945 19.884513 
L 23.447264 20.085412 
L 23.271489 20.279895 
L 23.095714 20.474378 
L 22.863519 20.624885 
L 22.631325 20.775392 
L 22.443126 20.926033 
L 22.254926 21.076674 
L 22.085465 21.30885 
L 21.916004 21.541027 
L 21.784223 21.817179 
L 21.652443 22.093332 
L 21.570869 22.281532 
L 21.489296 22.469733 
L 21.388678 22.755242 
L 21.380328 22.987018 
L 21.438376 23.202219 
L 21.520662 23.272794 
L 21.661812 23.276804 
L 21.892377 23.222536 
L 22.084039 23.207031 
L 22.228244 23.220397 
L 22.491194 23.272259 
L 22.687744 23.390954 
L 22.794676 23.506441 
L 22.882462 23.640908 
L 23.039091 23.748108 
L 23.191036 23.855441 
L 23.34298 23.962774 
L 23.575175 24.072647 
L 23.807369 24.18252 
L 24.015325 24.306561 
L 24.187842 24.418038 
L 24.262999 24.540476 
L 24.300272 24.662913 
L 24.332759 24.851782 
L 24.365246 25.040651 
L 24.414129 25.309184 
L 24.463012 25.577718 
L 24.436534 25.932733 
L 24.448144 26.154617 
L 24.470752 26.351506 
L 24.49336 26.548395 
L 24.502322 26.628862 
L 24.55202 26.75023 
L 24.598255 26.796745 
" style="fill:none;stroke:#008000;stroke-linecap:square;stroke-width:0.4;"/>
   </g>
   <g id="line2d_44">
    <path clip-path="url(#p95ed5a7fc7)" d="M 25.884082 21.55172 
L 25.900274 21.853002 
L 25.916467 22.154283 
L 25.850882 22.47655 
L 25.785298 22.798817 
L 25.747108 23.137525 
L 25.708918 23.476233 
L 25.670677 23.675594 
L 25.632436 23.874956 
L 25.594196 24.074318 
L 25.555955 24.27368 
L 25.504933 24.482598 
L 25.453911 24.691517 
L 25.40289 24.900436 
L 25.351868 25.109355 
L 25.274114 25.316937 
L 25.196359 25.524519 
L 25.118605 25.732101 
L 25.04085 25.939684 
L 24.896034 26.229203 
L 24.751218 26.518721 
L 24.598255 26.796745 
L 24.469835 26.960886 
L 24.341416 27.125027 
L 24.210857 27.31022 
L 24.080299 27.495414 
L 23.949741 27.680607 
L 23.819182 27.8658 
L 23.712454 28.037426 
L 23.605726 28.209052 
L 23.502767 28.375466 
L 23.399807 28.541879 
L 23.264564 28.727139 
L 23.129321 28.912399 
L 22.994078 29.097659 
L 22.858835 29.282919 
L 22.633617 29.500459 
L 22.408398 29.718 
L 22.18318 29.93554 
L 21.957962 30.15308 
L 21.801536 30.280998 
L 21.64511 30.408915 
L 21.488685 30.536833 
L 21.332259 30.664751 
L 21.119414 30.823545 
L 20.90657 30.982339 
L 20.693725 31.141134 
L 20.48088 31.299928 
L 20.245987 31.443551 
L 20.011094 31.587175 
L 19.776201 31.730798 
L 19.541308 31.874421 
L 19.268327 31.996725 
L 18.995346 32.119029 
L 18.722365 32.241333 
L 18.449384 32.363636 
L 18.204612 32.438957 
L 17.959841 32.514277 
L 17.715069 32.589598 
L 17.470298 32.664918 
L 17.180259 32.74779 
L 16.89022 32.830663 
L 16.60018 32.913535 
L 16.310141 32.996408 
" style="fill:none;stroke:#ff0000;stroke-linecap:square;stroke-width:0.4;"/>
   </g>
   <g id="line2d_45">
    <path clip-path="url(#p95ed5a7fc7)" d="M 26.219134 32.752335 
L 26.154975 32.690314 
L 26.085113 32.645403 
L 25.921559 32.645403 
L 25.741099 32.730414 
L 25.463484 32.877847 
L 25.18587 33.025279 
L 25.026643 33.133481 
L 24.867417 33.241684 
L 24.708191 33.349886 
L 24.548965 33.458088 
L 24.293398 33.599305 
L 24.037832 33.740522 
L 23.782265 33.88174 
L 23.526699 34.022957 
L 23.250612 34.164108 
L 22.974525 34.305258 
L 22.698437 34.446409 
L 22.42235 34.587559 
L 22.102268 34.700506 
L 21.782187 34.813453 
L 21.547752 34.850612 
L 21.313317 34.887771 
L 20.991504 34.938831 
L 20.75931 34.920051 
L 20.527115 34.901271 
L 20.294921 34.882492 
L 20.062727 34.863712 
L 19.849373 34.829159 
L 19.636019 34.794607 
L 19.422665 34.760054 
L 19.209311 34.725502 
L 18.98338 34.650248 
L 18.757449 34.574995 
L 18.531518 34.499741 
L 18.305586 34.424487 
L 17.991819 34.267564 
L 17.678051 34.110641 
L 17.403695 33.92752 
L 17.129339 33.744399 
L 16.884109 33.561277 
L 16.638879 33.378156 
L 16.47451 33.187282 
L 16.310141 32.996408 
L 16.112572 32.699136 
L 15.915004 32.401865 
L 15.798703 32.230105 
L 15.682402 32.058345 
L 15.566101 31.886585 
L 15.4498 31.714825 
L 15.272039 31.532105 
L 15.094278 31.349384 
L 14.916517 31.166664 
L 14.738756 30.983943 
L 14.540271 30.817129 
L 14.341786 30.650315 
L 14.133727 30.611017 
L 13.925669 30.57172 
L 13.6229 30.6042 
L 13.320131 30.636681 
L 12.995873 30.744683 
L 12.721925 30.780772 
L 12.476695 30.708593 
L 12.390335 30.593374 
L 12.384021 30.477085 
L 12.376078 30.31829 
L 12.676301 30.178477 
" style="fill:none;stroke:#4169e1;stroke-linecap:square;stroke-width:0.4;"/>
   </g>
   <g id="line2d_46">
    <path clip-path="url(#p95ed5a7fc7)" d="M 24.598255 26.796745 
L 24.817821 27.004461 
L 24.988301 27.256286 
L 25.090751 27.466408 
L 25.151448 27.682946 
L 25.157762 27.940118 
L 25.164076 28.19729 
L 25.179046 28.466358 
L 25.194017 28.735426 
L 25.235567 29.012247 
L 25.277118 29.289068 
L 25.350137 29.507477 
L 25.423156 29.725886 
L 25.513284 29.927988 
L 25.603412 30.13009 
L 25.742016 30.349969 
L 25.880619 30.569848 
L 26.030629 30.807906 
L 26.180639 31.045964 
L 26.293681 31.334681 
L 26.406723 31.623398 
L 26.47689 31.839669 
L 26.547058 32.055939 
" style="fill:none;stroke:#ff0000;stroke-linecap:square;stroke-width:0.4;"/>
   </g>
   <g id="line2d_47">
    <path clip-path="url(#p95ed5a7fc7)" d="M 23.605726 28.209052 
L 23.608374 28.31946 
L 23.622835 28.406075 
L 23.687809 28.53573 
L 23.758282 28.630633 
L 24.023574 28.873035 
L 24.288866 29.115437 
L 24.554159 29.357839 
L 24.819451 29.600241 
L 25.084743 29.842643 
L 25.350035 30.085045 
L 25.615327 30.327446 
L 25.880619 30.569848 
" style="fill:none;stroke:#000000;stroke-linecap:square;stroke-width:0.4;"/>
   </g>
   <g id="line2d_48">
    <path clip-path="url(#p95ed5a7fc7)" d="M 23.399807 28.541879 
L 23.304332 28.844764 
L 23.208858 29.14765 
L 23.113383 29.450535 
L 23.017908 29.753421 
L 22.964544 30.010727 
L 22.91118 30.268032 
L 22.857816 30.525338 
L 22.804452 30.782644 
L 22.757403 31.008471 
L 22.710353 31.234299 
L 22.663303 31.460126 
L 22.616253 31.685953 
L 22.560547 31.864931 
L 22.50484 32.043909 
L 22.415425 32.338507 
L 22.327538 32.576966 
L 22.23965 32.815425 
L 22.120447 33.000551 
L 22.001244 33.185678 
L 21.88204 33.370804 
L 21.762837 33.555931 
L 21.674949 33.762978 
L 21.587062 33.970026 
L 21.536855 34.170791 
L 21.486648 34.371556 
L 21.399983 34.629664 
L 21.313317 34.887771 
" style="fill:none;stroke:#ff0000;stroke-linecap:square;stroke-width:0.4;"/>
   </g>
   <g id="line2d_49">
    <path clip-path="url(#p95ed5a7fc7)" d="M 25.884082 21.55172 
L 25.686208 21.773604 
L 25.488333 21.995489 
L 25.268767 22.27398 
L 25.049201 22.552472 
L 24.829635 22.830964 
L 24.610069 23.109455 
L 24.409394 23.377721 
L 24.208719 23.645988 
L 24.008044 23.914254 
L 23.807369 24.18252 
L 23.641752 24.399759 
L 23.476136 24.616999 
L 23.310519 24.834238 
L 23.144902 25.051478 
L 22.979286 25.268717 
L 22.813669 25.485957 
L 22.648052 25.703196 
L 22.482436 25.920436 
L 22.352183 26.090658 
L 22.22193 26.260881 
L 22.091677 26.431104 
L 21.961424 26.601327 
L 21.826385 26.808641 
L 21.691346 27.015956 
L 21.556306 27.223271 
L 21.421267 27.430586 
L 21.286228 27.563783 
L 21.151188 27.696981 
L 21.016149 27.830178 
L 20.88111 27.963376 
L 20.730744 28.090291 
L 20.580377 28.217206 
L 20.430011 28.344121 
L 20.279645 28.471036 
L 20.108198 28.587559 
L 19.936751 28.704082 
L 19.765304 28.820605 
L 19.593857 28.937127 
L 19.42241 29.05365 
L 19.250963 29.170173 
L 19.079516 29.286695 
L 18.908069 29.403218 
L 18.692882 29.563616 
L 18.477695 29.724015 
L 18.24102 29.840571 
L 18.004345 29.957127 
L 17.76767 30.073683 
L 17.530994 30.190239 
L 17.311326 30.256136 
L 17.091658 30.322033 
L 16.87199 30.38793 
L 16.652322 30.453827 
L 16.420179 30.526006 
L 16.188036 30.598185 
L 15.955892 30.670365 
L 15.723749 30.742544 
L 15.477501 30.802894 
L 15.231253 30.863244 
L 14.985004 30.923594 
L 14.738756 30.983943 
" style="fill:none;stroke:#ff0000;stroke-linecap:square;stroke-width:0.4;"/>
   </g>
   <g id="line2d_50">
    <path clip-path="url(#p95ed5a7fc7)" d="M 25.884082 21.55172 
L 25.63763 21.630583 
L 25.391178 21.709445 
L 25.140144 21.747072 
L 24.889109 21.784699 
L 24.638074 21.822325 
L 24.38704 21.859952 
L 24.173686 21.897579 
L 23.960332 21.935206 
L 23.746978 21.972833 
L 23.533624 22.010459 
L 23.317113 22.092062 
L 23.100602 22.173665 
L 22.884091 22.255267 
L 22.66758 22.33687 
L 22.353812 22.499942 
L 22.040044 22.663013 
L 21.889627 22.797815 
L 21.73921 22.932616 
L 21.588793 23.067417 
L 21.438376 23.202219 
L 21.161882 23.296587 
L 20.885387 23.390954 
L 20.654619 23.420895 
L 20.42385 23.450836 
L 20.17139 23.483584 
L 19.918929 23.516332 
L 19.727522 23.563449 
L 19.536114 23.610566 
L 19.344707 23.657683 
L 19.153299 23.7048 
L 18.968206 23.786336 
L 18.783112 23.867872 
L 18.598019 23.949408 
L 18.412925 24.030944 
L 18.230938 24.288249 
L 18.048951 24.545555 
L 17.885804 24.865549 
L 17.722657 25.185544 
L 17.622243 25.339259 
L 17.521829 25.492974 
L 17.421415 25.646689 
L 17.321001 25.800404 
L 17.192327 25.935339 
L 17.063652 26.070275 
L 16.934978 26.20521 
L 16.806304 26.340145 
L 16.64 26.478154 
L 16.473696 26.616163 
L 16.307392 26.754173 
L 16.141088 26.892182 
L 15.902681 27.111794 
L 15.664275 27.331406 
L 15.485393 27.409868 
L 15.306512 27.488329 
L 15.127631 27.566791 
L 14.94875 27.645252 
L 14.716148 27.920335 
L 14.626122 28.206112 
L 14.663904 28.43909 
L 14.701687 28.672069 
L 14.739469 28.905048 
L 14.777252 29.138026 
L 14.827866 29.346143 
L 14.87848 29.55426 
L 14.849558 29.80662 
L 14.734275 29.929057 
L 14.51807 29.983058 
L 14.301864 30.037059 
L 14.091948 30.086615 
L 13.882031 30.136171 
L 13.672114 30.185728 
L 13.462197 30.235284 
L 13.25228 30.284841 
L 13.042363 30.334397 
L 12.832446 30.383953 
L 12.622529 30.43351 
L 12.384021 30.477085 
" style="fill:none;stroke:#ff0000;stroke-linecap:square;stroke-width:0.4;"/>
   </g>
   <g id="line2d_51">
    <path clip-path="url(#p95ed5a7fc7)" d="M 20.42385 23.450836 
L 20.340851 23.772301 
L 20.257851 24.093766 
L 20.257851 24.413761 
L 20.257851 24.733755 
L 20.257851 25.05375 
L 20.257851 25.373745 
L 20.195118 25.706304 
L 20.132385 26.038863 
L 19.994291 26.358858 
L 19.856196 26.678852 
L 19.765202 26.8859 
L 19.674209 27.092947 
L 19.583215 27.299995 
L 19.492221 27.507042 
L 19.423225 27.711016 
L 19.354229 27.914989 
L 19.285232 28.118962 
L 19.216236 28.322935 
L 19.139194 28.593006 
L 19.062153 28.863077 
L 18.985111 29.133147 
L 18.908069 29.403218 
" style="fill:none;stroke:#ff0000;stroke-linecap:square;stroke-width:0.4;"/>
   </g>
   <g id="line2d_52">
    <path clip-path="url(#p95ed5a7fc7)" d="M 27.570546 12.180181 
L 27.35821 12.409283 
L 27.145875 12.638385 
L 26.932215 12.879517 
L 26.790174 13.046131 
L 26.648134 13.212745 
L 26.506093 13.379359 
L 26.364052 13.545972 
L 26.222011 13.712586 
L 26.07997 13.8792 
L 25.93793 14.045814 
L 25.795889 14.212428 
L 25.610133 14.387195 
L 25.424378 14.561962 
L 25.238623 14.73673 
L 25.052867 14.911497 
L 24.839819 15.086331 
L 24.62677 15.261165 
L 24.413722 15.435999 
L 24.200673 15.610834 
L 23.999693 15.733471 
L 23.798712 15.856109 
L 23.597732 15.978747 
L 23.396752 16.101385 
L 23.195771 16.224023 
L 22.994791 16.346661 
L 22.79381 16.469299 
L 22.59283 16.591937 
L 22.273664 16.710899 
L 21.954499 16.829861 
L 21.646231 16.996007 
L 21.337962 17.162153 
L 21.113864 17.306578 
L 20.889766 17.451003 
L 20.665668 17.595429 
L 20.44157 17.739854 
L 20.266151 17.810229 
L 20.090733 17.880603 
L 19.915314 17.950978 
L 19.739895 18.021353 
L 19.547113 18.103758 
L 19.354331 18.186162 
L 19.161548 18.268567 
L 18.968766 18.350972 
L 18.674144 18.49787 
L 18.379522 18.644768 
L 18.21225 18.754841 
L 18.044979 18.864915 
L 17.877707 18.974988 
L 17.710436 19.085061 
L 17.425692 19.225677 
L 17.250961 19.311891 
L 17.07623 19.398105 
L 16.901498 19.484319 
L 16.726767 19.570533 
L 16.552036 19.656748 
L 16.377304 19.742962 
L 16.202573 19.829176 
L 16.027842 19.91539 
L 15.758782 20.041704 
L 15.489721 20.168017 
L 15.229725 20.306628 
L 14.969728 20.445239 
L 14.721444 20.618469 
L 14.567971 20.75053 
L 14.414499 20.882592 
L 14.211533 21.08309 
L 14.008566 21.283588 
L 13.819348 21.495313 
L 13.63013 21.707039 
L 13.504766 21.882408 
L 13.379401 22.057777 
L 13.293449 22.254532 
L 13.228271 22.430168 
L 13.181425 22.687875 
L 13.199349 22.870462 
L 13.232956 22.989424 
L 13.322982 23.190189 
L 13.440403 23.396301 
L 13.557824 23.602413 
L 13.650702 23.807322 
L 13.74358 24.01223 
L 13.841753 24.296403 
L 13.884526 24.608377 
L 13.886104 24.822676 
L 13.887683 25.036975 
L 13.889261 25.251274 
L 13.89084 25.465573 
L 13.892418 25.679872 
L 13.893997 25.894171 
L 13.895575 26.108469 
L 13.897154 26.322768 
L 13.903977 26.503083 
L 13.9108 26.683397 
L 13.946241 26.863845 
L 14.050117 27.093215 
L 14.214079 27.322584 
L 14.333129 27.486324 
L 14.45218 27.650064 
L 14.554019 27.90082 
L 14.626122 28.206112 
" style="fill:none;stroke:#000000;stroke-linecap:square;stroke-width:0.4;"/>
   </g>
   <g id="line2d_53">
    <path clip-path="url(#p95ed5a7fc7)" d="M 15.400917 13.880403 
L 15.310687 14.117926 
L 15.220458 14.355449 
L 15.213227 14.607743 
L 15.205996 14.860036 
L 15.198766 15.112329 
L 15.191535 15.364622 
L 15.205971 15.559239 
L 15.220407 15.753855 
L 15.234842 15.948472 
L 15.249278 16.143089 
L 15.263714 16.337705 
L 15.27815 16.532322 
L 15.292585 16.726939 
L 15.307021 16.921555 
L 15.328637 17.173815 
L 15.350252 17.426075 
L 15.371868 17.678335 
L 15.393483 17.930594 
L 15.415099 18.182854 
L 15.436714 18.435114 
L 15.458329 18.687374 
L 15.479945 18.939633 
L 15.482389 19.246729 
L 15.484833 19.553825 
L 15.487277 19.860921 
L 15.489721 20.168017 
" style="fill:none;stroke:#ff0000;stroke-linecap:square;stroke-width:0.4;"/>
   </g>
   <g id="line2d_54">
    <path clip-path="url(#p95ed5a7fc7)" d="M 17.149707 13.559072 
L 17.121548 13.794189 
L 17.09339 14.029306 
L 17.065231 14.264423 
L 17.037072 14.499541 
L 17.029842 14.80951 
L 17.022611 15.11948 
L 17.01538 15.42945 
L 17.00815 15.73942 
L 17.029791 16.063758 
L 17.051432 16.388097 
L 17.073073 16.712436 
L 17.094714 17.036775 
L 17.159585 17.36118 
L 17.224457 17.685586 
L 17.289329 18.009991 
L 17.354201 18.334397 
L 17.372074 18.557217 
L 17.389947 18.780037 
L 17.407819 19.002857 
L 17.425692 19.225677 
" style="fill:none;stroke:#ff0000;stroke-linecap:square;stroke-width:0.4;"/>
   </g>
   <g id="line2d_55">
    <path clip-path="url(#p95ed5a7fc7)" d="M 28.703409 5.021069 
L 28.763953 5.329101 
L 28.824497 5.637132 
L 28.88504 5.945164 
L 28.945584 6.253195 
L 28.952815 6.512707 
L 28.960045 6.772218 
L 28.967276 7.031729 
L 28.974506 7.29124 
L 28.945635 7.557969 
L 28.916763 7.824698 
L 28.887892 8.091427 
L 28.85902 8.358156 
L 28.808559 8.538337 
L 28.758097 8.718518 
L 28.707636 8.898698 
L 28.657174 9.078879 
L 28.613943 9.316803 
L 28.570712 9.554728 
L 28.527481 9.792652 
L 28.484251 10.030576 
L 28.451305 10.209052 
L 28.41836 10.387529 
L 28.385415 10.566006 
L 28.35247 10.744482 
L 28.319525 10.922959 
L 28.28658 11.101435 
L 28.253635 11.279912 
L 28.22069 11.458388 
" style="fill:none;stroke:#ff0000;stroke-linecap:square;stroke-width:0.4;"/>
   </g>
   <g id="line2d_56">
    <path clip-path="url(#p95ed5a7fc7)" d="M 26.257222 9.1409 
L 26.318632 9.335717 
L 26.380041 9.530534 
L 26.44145 9.725351 
L 26.502859 9.920168 
L 26.583669 10.151008 
L 26.664479 10.381848 
L 26.745289 10.612688 
L 26.826098 10.843528 
L 26.888628 11.038679 
L 26.951157 11.233831 
L 27.013687 11.428982 
L 27.076216 11.624133 
L 27.093631 11.877696 
L 27.111045 12.131259 
L 27.12846 12.384822 
L 27.145875 12.638385 
" style="fill:none;stroke:#ff0000;stroke-linecap:square;stroke-width:0.4;"/>
   </g>
   <g id="line2d_57">
    <path clip-path="url(#p95ed5a7fc7)" d="M 24.171547 10.354581 
L 24.283774 10.576331 
L 24.396002 10.798082 
L 24.508229 11.019833 
L 24.620456 11.241583 
L 24.678097 11.472223 
L 24.735739 11.702862 
L 24.79338 11.933502 
L 24.851021 12.164141 
L 24.903061 12.405607 
L 24.955101 12.647074 
L 25.007141 12.88854 
L 25.059181 13.130006 
L 25.084947 13.454412 
L 25.110712 13.778817 
L 25.096251 14.061987 
L 25.08179 14.345157 
L 25.067328 14.628327 
L 25.052867 14.911497 
" style="fill:none;stroke:#ff0000;stroke-linecap:square;stroke-width:0.4;"/>
   </g>
   <g id="line2d_58">
    <path clip-path="url(#p95ed5a7fc7)" d="M 21.431858 11.752987 
L 21.551418 12.043174 
L 21.670978 12.333361 
L 21.790537 12.623548 
L 21.910097 12.913736 
L 21.989379 13.202052 
L 22.068661 13.490368 
L 22.147944 13.778684 
L 22.227226 14.067 
L 22.292097 14.326511 
L 22.356969 14.586022 
L 22.421841 14.845533 
L 22.486713 15.105044 
L 22.499978 15.290906 
L 22.513242 15.476767 
L 22.526507 15.662629 
L 22.539771 15.84849 
L 22.553036 16.034352 
L 22.566301 16.220214 
L 22.579565 16.406075 
L 22.59283 16.591937 
" style="fill:none;stroke:#ff0000;stroke-linecap:square;stroke-width:0.4;"/>
   </g>
   <g id="line2d_59">
    <path clip-path="url(#p95ed5a7fc7)" d="M 19.160021 12.755743 
L 19.292463 13.011512 
L 19.424905 13.26728 
L 19.557348 13.523049 
L 19.68979 13.778817 
L 19.790713 14.110374 
L 19.891636 14.441931 
L 19.992559 14.773487 
L 20.093482 15.105044 
L 20.093482 15.465406 
L 20.093482 15.825767 
L 20.122303 16.03482 
L 20.151124 16.243872 
L 20.179944 16.452925 
L 20.208765 16.661977 
L 20.266966 16.931446 
L 20.325167 17.200916 
L 20.383369 17.470385 
L 20.44157 17.739854 
" style="fill:none;stroke:#ff0000;stroke-linecap:square;stroke-width:0.4;"/>
   </g>
   <g id="line2d_60">
    <path clip-path="url(#p95ed5a7fc7)" d="M 32.767828 28.825249 
L 32.943603 31.545872 
L 32.72811 32.035755 
L 32.215653 33.091577 
L 32.283682 33.533742 
L 32.674135 34.049155 
L 33.01041 34.850612 
L 33.558307 36.453526 
L 34.294811 37.714792 
L 35.211163 38.685202 
L 36.409612 39.641978 
L 36.793649 40.192812 
L 36.980525 40.814757 
L 36.901701 41.260129 
L 36.622864 41.416785 
L 36.192897 41.311457 
L 35.324613 40.623081 
L 35.048016 40.570951 
L 34.499305 40.622546 
L 34.261407 40.947353 
L 34.289515 41.228317 
L 34.837921 42.435314 
L 34.862261 43.09268 
L 33.873195 44.436818 
L 33.541605 45.078946 
L 33.132414 45.389851 
L 31.809721 45.970493 
L 30.703335 46.693355 
L 29.942186 47.439207 
L 29.199368 47.748241 
L 28.442293 47.966116 
L 26.877425 48.797514 
L 25.024708 49.055889 
L 24.111462 49.051478 
L 23.135839 48.674542 
L 22.221319 48.150574 
L 21.49561 47.953819 
L 21.102713 48.098177 
L 20.834467 48.276754 
L 20.574573 48.345725 
L 20.023824 48.642195 
L 19.530106 48.589263 
L 19.025389 48.293061 
L 18.236539 48.375934 
L 18.236539 48.375934 
" style="fill:none;stroke:#000000;stroke-linecap:square;stroke-width:0.4;"/>
   </g>
   <g id="line2d_61">
    <path clip-path="url(#p95ed5a7fc7)" d="M 34.664285 38.149204 
L 34.715408 38.310672 
L 34.754107 38.542447 
L 34.778854 38.723029 
L 34.803601 38.903611 
L 34.807573 39.084192 
L 34.811545 39.264774 
L 34.805231 39.466074 
L 34.798917 39.667374 
L 34.776003 39.868674 
L 34.753089 40.069974 
L 34.728851 40.210055 
L 34.696466 40.342116 
L 34.606033 40.486475 
L 34.499305 40.622546 
" style="fill:none;stroke:#ff0000;stroke-linecap:square;stroke-width:0.4;"/>
   </g>
   <g id="line2d_62">
    <path clip-path="url(#p95ed5a7fc7)" d="M 34.294811 37.714792 
L 34.181361 37.871581 
L 34.067912 38.02837 
L 33.954463 38.18516 
L 33.841013 38.341949 
L 33.752209 38.524001 
L 33.688865 38.768609 
L 33.71127 39.003993 
L 33.733675 39.239378 
L 33.877778 39.568863 
L 34.021881 39.898348 
L 34.200405 40.097375 
L 34.37893 40.296403 
L 34.480362 40.422315 
L 34.518654 40.522297 
L 34.499305 40.622546 
" style="fill:none;stroke:#000000;stroke-linecap:square;stroke-width:0.4;"/>
   </g>
   <g id="line2d_63">
    <path clip-path="url(#p95ed5a7fc7)" d="M 27.663627 42.267698 
L 27.41356 42.490451 
L 27.163493 42.713204 
L 26.913426 42.935958 
L 26.663359 43.158711 
L 26.495781 43.299059 
L 26.328204 43.439408 
L 26.160627 43.579756 
L 25.99305 43.720105 
L 25.762078 43.874087 
L 25.531106 44.02807 
L 25.300134 44.182052 
L 25.069161 44.336034 
L 24.806466 44.467361 
L 24.543771 44.598687 
L 24.281076 44.730013 
L 24.01838 44.861339 
L 23.810068 44.893018 
L 23.601755 44.924696 
L 23.393442 44.956375 
L 23.185129 44.988054 
L 22.972233 45.015255 
L 22.759338 45.042455 
L 22.546442 45.069656 
L 22.333546 45.096857 
L 22.09015 45.207131 
L 21.846753 45.317405 
L 21.617817 45.51416 
L 21.388882 45.710915 
" style="fill:none;stroke:#ff0000;stroke-linecap:square;stroke-width:0.4;"/>
   </g>
   <g id="line2d_64">
    <path clip-path="url(#p95ed5a7fc7)" d="M 22.484676 39.170674 
L 22.216532 39.135119 
L 21.948389 39.099564 
L 21.728619 39.06989 
L 21.41811 39.090876 
L 21.107601 39.111861 
L 20.797092 39.132847 
L 20.486583 39.153832 
L 20.177704 39.189253 
L 19.868824 39.224675 
L 19.650786 39.263438 
L 19.432747 39.3022 
L 19.107777 39.392291 
L 18.782807 39.482381 
L 18.60693 39.531971 
L 18.431053 39.581561 
L 18.226355 39.612839 
L 18.000068 39.600274 
L 17.6974 39.533976 
L 17.556658 39.495748 
L 17.347072 39.383736 
L 17.2213 39.249269 
L 17.095528 39.114802 
L 16.957434 38.972047 
L 16.842966 38.795676 
L 16.728498 38.619305 
L 16.614031 38.442933 
L 16.499563 38.266562 
L 16.372518 38.070876 
L 16.245473 37.87519 
L 16.118428 37.679504 
L 15.991383 37.483818 
L 15.830579 37.337588 
L 15.669774 37.191359 
L 15.448375 36.999683 
L 15.208644 36.920553 
L 14.971562 36.874037 
L 14.634473 36.958246 
L 14.427331 37.064377 
L 14.13607 37.198977 
L 13.844808 37.333578 
L 13.636241 37.389317 
L 13.427673 37.445055 
L 13.229697 37.518437 
L 13.031721 37.59182 
L 12.79362 37.728559 
L 12.555519 37.865299 
L 12.396955 37.993216 
L 12.23839 38.121134 
L 12.057421 38.304389 
L 11.876453 38.487644 
L 11.730109 38.653389 
L 11.583766 38.819134 
L 11.455448 38.965364 
L 11.327537 39.103039 
" style="fill:none;stroke:#008000;stroke-linecap:square;stroke-width:0.4;"/>
   </g>
   <g id="line2d_65">
    <path clip-path="url(#p95ed5a7fc7)" d="M 17.556658 39.495748 
L 17.347072 39.383736 
L 17.203071 39.372508 
L 17.085344 39.367696 
L 16.958045 39.396301 
L 16.65497 39.447094 
L 16.331528 39.483718 
L 16.138032 39.493743 
L 15.944537 39.503768 
L 15.660812 39.520342 
L 15.403769 39.520877 
L 15.129617 39.502164 
L 14.82369 39.458054 
L 14.555241 39.407529 
L 14.321825 39.367964 
L 14.075373 39.288567 
L 13.853159 39.253546 
L 13.625038 39.241784 
L 13.391215 39.229754 
L 13.166251 39.229754 
L 12.941287 39.229754 
L 12.764086 39.220932 
L 12.652063 39.203555 
L 12.48362 39.159981 
L 12.377707 39.119346 
L 12.19908 39.016424 
L 12.034711 38.93676 
L 11.923706 38.894789 
L 11.853844 38.883026 
L 11.754245 38.876076 
L 11.63326 38.915641 
L 11.327537 39.103039 
" style="fill:none;stroke:#4169e1;stroke-linecap:square;stroke-width:0.4;"/>
   </g>
   <g id="line2d_66">
    <path clip-path="url(#p95ed5a7fc7)" d="M 15.898098 43.057125 
L 15.676699 42.986149 
L 15.4553 42.915173 
L 15.146726 42.825617 
L 14.838152 42.736061 
L 14.485787 42.678184 
L 14.133422 42.620307 
L 13.879841 42.527142 
L 13.62626 42.433978 
L 13.450893 42.365608 
L 13.275525 42.297238 
L 13.100157 42.228868 
L 12.924789 42.160499 
L 12.705223 42.096072 
L 12.571202 42.081636 
L 12.492582 42.118795 
L 12.470788 42.206479 
L 12.488101 42.294431 
L 12.53067 42.397353 
L 12.624159 42.554544 
L 12.722332 42.679922 
L 12.911958 42.83484 
L 13.101583 42.989758 
L 13.23041 43.124359 
L 13.359237 43.25896 
L 13.53766 43.541795 
L 13.632473 43.733471 
L 13.727285 43.925147 
L 13.884017 44.100115 
L 14.040748 44.275083 
L 14.155419 44.466358 
L 14.27009 44.657633 
L 14.377837 44.870161 
L 14.485583 45.082689 
L 14.688448 45.338791 
L 14.89009 45.555329 
L 15.091732 45.771867 
L 15.27596 45.907804 
L 15.460188 46.043742 
" style="fill:none;stroke:#008000;stroke-linecap:square;stroke-width:0.4;"/>
   </g>
   <g id="line2d_67">
    <path clip-path="url(#p95ed5a7fc7)" d="M 14.007548 40.777598 
L 13.694493 40.723597 
L 13.354756 40.706889 
L 13.015019 40.690181 
L 12.663978 40.762895 
L 12.312937 40.835608 
L 12.036239 40.976893 
L 11.759541 41.118177 
L 11.538243 41.238275 
L 11.316946 41.358373 
L 11.095648 41.478472 
L 10.874351 41.59857 
" style="fill:none;stroke:#008000;stroke-linecap:square;stroke-width:0.4;"/>
   </g>
   <g id="line2d_68">
    <path clip-path="url(#p95ed5a7fc7)" d="M 11.327537 39.103039 
L 11.316131 39.317639 
L 11.304725 39.532238 
L 11.293319 39.746838 
L 11.281913 39.961438 
L 11.249681 40.140683 
L 11.217448 40.319928 
L 11.185216 40.499173 
L 11.152984 40.678418 
L 11.083326 40.908456 
L 11.013667 41.138494 
L 10.944009 41.368532 
L 10.874351 41.59857 
L 10.749139 41.861423 
L 10.623927 42.124275 
L 10.498716 42.387128 
L 10.373504 42.649981 
L 10.271919 42.844196 
L 10.170334 43.038412 
L 10.068749 43.232628 
L 9.967164 43.426843 
L 9.898371 43.630015 
L 9.829578 43.833186 
L 9.760786 44.036357 
L 9.691993 44.239528 
L 9.6232 44.442699 
L 9.554408 44.645871 
L 9.485615 44.849042 
L 9.416823 45.052213 
L 9.193386 45.293345 
L 8.96995 45.534477 
L 8.819202 45.848958 
L 8.668454 46.163439 
L 8.517706 46.47792 
L 8.366958 46.792401 
L 8.21621 47.106882 
L 8.065462 47.421363 
L 7.914714 47.735844 
L 7.763966 48.050325 
L 7.668848 48.214733 
L 7.573729 48.379142 
L 7.478611 48.54355 
L 7.383493 48.707958 
L 7.288375 48.872366 
L 7.193257 49.036775 
L 7.098139 49.201183 
L 7.00302 49.365591 
L 6.824801 49.62704 
L 6.685281 49.831548 
L 6.545761 50.036056 
L 6.435977 50.197056 
L 6.326194 50.358056 
L 6.216411 50.519056 
L 6.106628 50.680055 
L 6.022916 51.008605 
L 5.939204 51.337154 
L 5.819695 51.486525 
L 5.700186 51.635896 
L 5.580678 51.785267 
L 5.461169 51.934638 
L 5.198219 52.072046 
L 4.935269 52.209453 
L 4.684235 52.251291 
L 4.4332 52.293128 
L 4.122385 52.219077 
" style="fill:none;stroke:#000000;stroke-linecap:square;stroke-width:0.4;"/>
   </g>
   <g id="line2d_69">
    <path clip-path="url(#p95ed5a7fc7)" d="M 9.416823 45.052213 
L 9.376239 45.228718 
L 9.335656 45.405223 
L 9.295073 45.581728 
L 9.25449 45.758233 
L 9.242677 46.026299 
L 9.230863 46.294364 
L 9.21905 46.56243 
L 9.207237 46.830496 
L 9.216199 47.171075 
L 9.22516 47.511654 
L 9.216199 47.778049 
L 9.207237 48.044444 
L 9.199344 48.273078 
L 9.191451 48.501713 
L 9.183559 48.730347 
L 9.175666 48.958981 
L 9.17363 49.274899 
L 9.171593 49.590817 
L 9.169556 49.906735 
L 9.167519 50.222653 
L 9.162835 50.424755 
L 9.15815 50.626857 
L 9.153465 50.828959 
L 9.148781 51.03106 
L 9.150817 51.218326 
L 9.152854 51.405591 
L 9.16757 51.59867 
L 9.182286 51.79175 
L 9.197002 51.984829 
L 9.211718 52.177908 
L 9.264318 52.500309 
L 9.316918 52.82271 
L 9.369518 53.14511 
L 9.422118 53.467511 
L 9.470594 53.726755 
L 9.519069 53.985999 
L 9.567545 54.245242 
L 9.616021 54.504486 
L 9.643365 54.720222 
L 9.670709 54.935958 
L 9.698053 55.151693 
L 9.725397 55.367429 
L 9.722545 55.493074 
L 9.717504 55.716229 
L 9.712463 55.939383 
L 9.707422 56.162537 
L 9.702381 56.385691 
" style="fill:none;stroke:#4169e1;stroke-linecap:square;stroke-width:0.4;"/>
   </g>
   <g id="line2d_70">
    <path clip-path="url(#p95ed5a7fc7)" d="M 12.872036 47.600942 
L 12.679763 47.396969 
L 12.48749 47.192996 
L 12.274645 47.137792 
L 12.061801 47.082588 
L 11.841012 47.082588 
L 11.620224 47.082588 
L 11.359922 47.137792 
L 11.09962 47.192996 
L 10.870939 47.232427 
L 10.642258 47.271858 
L 10.413578 47.31129 
L 10.184897 47.350721 
L 9.944963 47.390954 
L 9.705029 47.431187 
L 9.465094 47.471421 
L 9.22516 47.511654 
L 8.931761 47.590383 
L 8.638361 47.669112 
L 8.410342 47.754925 
L 8.182323 47.840738 
L 7.973144 47.945531 
L 7.763966 48.050325 
" style="fill:none;stroke:#4169e1;stroke-linecap:square;stroke-width:0.4;"/>
   </g>
   <g id="line2d_71">
    <path clip-path="url(#p95ed5a7fc7)" d="M 11.327537 39.103039 
L 11.197997 38.888373 
L 11.068457 38.673706 
L 10.936677 38.439525 
L 10.864371 38.333662 
L 10.683096 38.075688 
L 10.531966 37.831883 
L 10.467604 37.706772 
L 10.440922 37.587275 
L 10.437255 37.432223 
L 10.430534 37.289202 
L 10.402019 37.182804 
L 10.333277 36.953568 
L 10.264535 36.724332 
L 10.168602 36.503784 
L 10.056375 36.36504 
L 9.915837 36.2549 
L 9.769595 36.234583 
L 9.494017 36.216939 
L 9.218439 36.199295 
L 8.958952 36.177775 
L 8.699464 36.156255 
L 8.534281 36.103323 
L 8.448939 36.043441 
L 8.247704 35.837864 
L 8.122849 35.617851 
L 8.005122 35.382333 
L 7.887395 35.146815 
L 7.808775 34.972916 
L 7.730155 34.799018 
L 7.630149 34.625253 
L 7.464557 34.347496 
L 7.403657 34.076156 
L 7.451929 33.823796 
L 7.534012 33.625437 
L 7.642777 33.45782 
L 7.751541 33.290204 
L 8.004104 33.0873 
L 8.169491 33.010443 
L 8.334879 32.933585 
L 8.485398 32.905248 
L 8.613308 32.849643 
L 8.837966 32.74886 
L 8.983393 32.619739 
L 9.153465 32.442766 
L 9.25999 32.259377 
L 9.366514 32.075989 
L 9.498192 31.870412 
L 9.629871 31.664834 
L 9.771632 31.524218 
L 9.900051 31.396835 
L 10.028471 31.269452 
L 10.24539 31.13552 
L 10.499276 31.051845 
L 10.753162 30.968171 
L 11.042997 30.859902 
L 11.332833 30.751633 
L 11.546085 30.672236 
L 11.759337 30.592839 
L 11.972589 30.477486 
L 12.185841 30.362133 
L 12.376078 30.31829 
" style="fill:none;stroke:#4169e1;stroke-linecap:square;stroke-width:0.4;"/>
   </g>
   <g id="line2d_72">
    <path clip-path="url(#p95ed5a7fc7)" d="M 5.461169 51.934638 
L 5.375369 52.114618 
L 5.289569 52.294598 
L 5.203769 52.474579 
L 5.117969 52.654559 
L 5.02387 52.968271 
L 4.92977 53.281984 
L 4.860723 53.463902 
L 4.791675 53.64582 
L 4.669315 53.783897 
L 4.546955 53.921973 
L 4.424594 54.060049 
L 4.302234 54.198125 
L 4.107721 54.267097 
L 3.913207 54.336068 
L 3.660645 54.501546 
L 3.473056 54.600725 
L 3.285468 54.699905 
L 3.116108 54.762594 
L 2.946749 54.825283 
L 2.79786 54.983141 
L 2.64897 55.141 
L 2.480935 55.344439 
L 2.312899 55.547877 
" style="fill:none;stroke:#008000;stroke-linecap:square;stroke-width:0.4;"/>
   </g>
   <g id="line2d_73">
    <path clip-path="url(#p95ed5a7fc7)" d="M 9.152854 51.405591 
L 9.335656 51.534578 
L 9.518458 51.663565 
L 9.795768 51.800037 
L 10.073077 51.936509 
L 10.329815 51.936509 
L 10.586552 51.936509 
L 10.904903 51.866201 
L 11.097685 51.730664 
L 11.290467 51.595128 
L 11.549344 51.627742 
L 11.80822 51.660357 
L 11.938982 51.80926 
L 12.069744 51.958163 
L 12.224744 52.15572 
L 12.300716 52.466358 
L 12.449606 52.747857 
L 12.516005 53.054218 
L 12.462234 53.269018 
L 12.408463 53.483818 
" style="fill:none;stroke:#008000;stroke-linecap:square;stroke-width:0.4;"/>
   </g>
   <g id="line2d_74">
    <path clip-path="url(#p95ed5a7fc7)" d="M 10.904903 51.866201 
L 11.000632 52.127116 
L 11.021305 52.342317 
L 11.041979 52.557518 
L 11.062652 52.747857 
L 11.083326 52.938197 
L 11.033628 53.149388 
L 10.98393 53.360579 
L 10.863861 53.546774 
L 10.743792 53.73297 
L 10.644601 53.939884 
L 10.627899 54.179947 
L 10.681772 54.395282 
L 10.735645 54.610616 
L 10.787176 54.786787 
" style="fill:none;stroke:#008000;stroke-linecap:square;stroke-width:0.4;"/>
   </g>
   <g id="line2d_75">
    <path clip-path="url(#p95ed5a7fc7)" d="M 14.331398 52.697332 
L 14.091031 52.795643 
L 13.850664 52.893953 
L 13.610297 52.992264 
L 13.36993 53.090575 
L 13.129563 53.188886 
L 12.889196 53.287197 
L 12.648829 53.385507 
L 12.408463 53.483818 
L 12.205802 53.646689 
L 12.003141 53.80956 
L 11.80048 53.972432 
L 11.597819 54.135303 
L 11.395159 54.298174 
L 11.192498 54.461045 
L 10.989837 54.623916 
L 10.787176 54.786787 
L 10.682078 54.871264 
L 10.559616 55.060567 
L 10.437153 55.249871 
L 10.314691 55.439174 
L 10.192229 55.628477 
L 10.069767 55.817781 
L 9.947305 56.007084 
L 9.824843 56.196388 
L 9.702381 56.385691 
L 9.622335 56.509733 
L 9.481491 56.779402 
L 9.340647 57.049072 
L 9.199802 57.318742 
L 9.058958 57.588411 
L 8.967608 57.76378 
L 8.876258 57.939149 
L 8.784908 58.114518 
L 8.693558 58.289887 
L 8.574736 58.553408 
L 8.455915 58.816929 
L 8.337094 59.08045 
L 8.218272 59.343971 
L 8.099451 59.607492 
L 7.98063 59.871013 
L 7.861808 60.134534 
L 7.742987 60.398055 
L 7.56543 60.613791 
L 7.387872 60.829527 
L 7.210315 61.045262 
L 7.032758 61.260998 
" style="fill:none;stroke:#008000;stroke-linecap:square;stroke-width:0.4;"/>
   </g>
   <g id="line2d_76">
    <path clip-path="url(#p95ed5a7fc7)" d="M 6.545761 50.036056 
L 6.641846 50.222319 
L 6.737932 50.408581 
L 6.834018 50.594844 
L 6.930103 50.781106 
L 7.032758 50.964495 
L 7.176759 51.131309 
L 7.443986 51.354798 
L 7.577192 51.515998 
L 7.679439 51.709011 
L 7.785963 51.936509 
L 7.863565 52.138745 
L 7.941167 52.34098 
L 8.018769 52.543216 
L 8.09637 52.745451 
L 8.173972 52.947687 
L 8.251574 53.149922 
L 8.329176 53.352158 
L 8.406777 53.554393 
L 8.507802 53.760238 
L 8.60292 53.890963 
L 8.786435 54.050559 
L 9.045719 54.259611 
L 9.26447 54.425624 
L 9.360607 54.544853 
L 9.43882 54.714875 
L 9.508886 55.01883 
L 9.615715 55.255952 
L 9.722545 55.493074 
" style="fill:none;stroke:#008000;stroke-linecap:square;stroke-width:0.4;"/>
   </g>
   <g id="line2d_77">
    <path clip-path="url(#p95ed5a7fc7)" d="M 21.630649 39.614977 
L 21.391123 39.735142 
L 21.151596 39.855307 
L 21.052404 39.905031 
L 20.905755 40.03629 
L 20.809822 40.140014 
L 20.670709 40.319393 
L 20.526708 40.516416 
L 20.421813 40.675745 
L 20.316918 40.835074 
L 20.20571 40.978898 
L 20.091853 41.077543 
L 19.927687 41.16095 
L 19.760874 41.229119 
L 19.619317 41.239278 
L 19.503016 41.236872 
L 19.391808 41.211475 
L 19.252695 41.143306 
L 19.146578 41.039582 
L 19.035369 40.875441 
L 18.979765 40.766637 
L 18.921512 40.658101 
L 18.833115 40.534327 
L 18.729443 40.423117 
L 18.479325 40.279026 
L 18.163215 40.117291 
L 17.973793 39.963042 
L 17.845984 39.821356 
L 17.718176 39.679671 
L 17.556658 39.495748 
" style="fill:none;stroke:#008000;stroke-linecap:square;stroke-width:0.4;"/>
   </g>
   <g id="line2d_78">
    <path clip-path="url(#p95ed5a7fc7)" d="M 20.20571 40.978898 
L 20.111864 41.199245 
L 20.018019 41.419592 
L 19.924174 41.639939 
L 19.830329 41.860286 
L 19.736484 42.080634 
L 19.642638 42.300981 
L 19.548793 42.521328 
L 19.454948 42.741675 
L 19.256437 43.005497 
L 19.057926 43.269319 
L 18.859416 43.533141 
L 18.660905 43.796962 
L 18.462394 44.060784 
L 18.263883 44.324606 
L 18.065372 44.588428 
L 17.866861 44.85225 
" style="fill:none;stroke:#ff0000;stroke-linecap:square;stroke-width:0.4;"/>
   </g>
   <g id="line2d_79">
    <path clip-path="url(#p95ed5a7fc7)" d="M 18.163215 40.117291 
L 17.918698 40.364706 
L 17.674181 40.61212 
L 17.557524 40.752335 
L 17.440866 40.89255 
L 17.324209 41.032765 
L 17.207552 41.17298 
L 17.031777 41.401146 
L 16.856002 41.629313 
L 16.737409 41.807956 
L 16.618817 41.9866 
L 16.500225 42.165244 
L 16.381633 42.343887 
" style="fill:none;stroke:#ff0000;stroke-linecap:square;stroke-width:0.4;"/>
   </g>
   <g id="line2d_80">
    <path clip-path="url(#p95ed5a7fc7)" d="M 16.381633 42.343887 
L 16.526907 42.553909 
L 16.672181 42.76393 
L 16.817455 42.973952 
L 16.962729 43.183974 
L 17.108004 43.393995 
L 17.253278 43.604017 
L 17.398552 43.814038 
L 17.543826 44.02406 
L 17.624585 44.231107 
L 17.705344 44.438155 
L 17.786103 44.645202 
L 17.866861 44.85225 
L 17.92379 45.071728 
L 17.980718 45.291206 
L 17.977408 45.475364 
L 17.974098 45.659521 
L 17.970789 45.843678 
L 17.967479 46.027836 
L 17.964169 46.211993 
L 17.960859 46.39615 
L 17.95755 46.580308 
L 17.95424 46.764465 
L 17.937131 47.002523 
L 17.920022 47.240581 
L 17.889979 47.428982 
L 17.859936 47.617383 
L 17.829894 47.805784 
L 17.799851 47.994186 
L 17.723369 48.229035 
L 17.646888 48.463885 
L 17.59444 48.667458 
L 17.541993 48.87103 
L 17.489546 49.074602 
L 17.437098 49.278174 
" style="fill:none;stroke:#4169e1;stroke-linecap:square;stroke-width:0.4;"/>
   </g>
   <g id="line2d_81">
    <path clip-path="url(#p95ed5a7fc7)" d="M 11.327537 39.103039 
L 11.404833 39.309418 
L 11.48213 39.515798 
L 11.621446 39.700256 
L 11.874619 39.903427 
L 12.124534 40.034151 
L 12.380151 40.106464 
L 12.635769 40.178777 
L 12.898311 40.234917 
L 13.160854 40.291056 
L 13.331639 40.356151 
L 13.502424 40.421246 
L 13.725656 40.559723 
L 14.007548 40.777598 
L 14.188466 40.839886 
L 14.369384 40.902174 
L 14.550302 40.964462 
L 14.73122 41.02675 
L 14.901292 41.125127 
L 15.071364 41.223505 
L 15.241437 41.321883 
L 15.411509 41.42026 
L 15.663154 41.674091 
L 15.9148 41.927921 
L 16.148216 42.135904 
L 16.381633 42.343887 
" style="fill:none;stroke:#008000;stroke-linecap:square;stroke-width:0.4;"/>
   </g>
   <g id="line2d_82">
    <path clip-path="url(#p95ed5a7fc7)" d="M 13.015019 40.690181 
L 12.771164 40.933786 
L 12.527309 41.177391 
L 12.283454 41.420995 
L 12.0396 41.6646 
L 11.931471 41.82403 
L 11.823343 41.983459 
L 11.715215 42.142888 
L 11.607087 42.302317 
L 11.498959 42.461747 
L 11.39083 42.621176 
L 11.282702 42.780605 
L 11.174574 42.940034 
L 11.015144 43.183238 
L 10.855714 43.426442 
L 10.696284 43.669646 
L 10.536854 43.91285 
L 10.353034 44.12364 
L 10.169213 44.334431 
L 9.985495 44.48574 
L 9.801776 44.637049 
L 9.609299 44.844631 
L 9.416823 45.052213 
" style="fill:none;stroke:#008000;stroke-linecap:square;stroke-width:0.4;"/>
   </g>
   <g id="line2d_83">
    <path clip-path="url(#p95ed5a7fc7)" d="M 26.219134 32.752335 
L 25.72562 33.581594 
L 24.864871 34.418205 
L 22.412777 35.92341 
L 22.214801 36.160532 
L 21.869972 36.282435 
L 20.764707 36.384154 
L 17.602078 36.526775 
L 16.439732 35.49274 
L 14.896404 34.54345 
L 14.565425 34.564836 
L 13.900311 35.079982 
L 13.445801 35.329802 
L 12.810322 35.511453 
L 11.422859 35.699921 
L 11.036276 35.508245 
L 10.507117 35.029456 
L 10.110147 35.013684 
L 9.61765 35.231291 
L 8.02162 36.749728 
L 7.856233 37.207933 
L 8.017139 39.563382 
L 8.533058 41.939149 
L 8.77452 44.136339 
L 8.96995 45.534477 
L 8.96995 45.534477 
" style="fill:none;stroke:#008000;stroke-linecap:square;stroke-width:0.4;"/>
   </g>
   <g id="line2d_84">
    <path clip-path="url(#p95ed5a7fc7)" d="M 3.499942 67.171676 
L 3.461854 67.299728 
L 3.437005 67.36763 
L 3.397695 67.435532 
L 3.344738 67.528028 
L 3.310724 67.653941 
L 3.319075 67.772368 
L 3.322334 67.950945 
L 3.31602 68.077125 
L 3.217642 68.18673 
L 3.001539 68.302217 
L 2.871795 68.431872 
L 2.823727 68.727273 
" style="fill:none;stroke:#008000;stroke-linecap:square;stroke-width:0.4;"/>
   </g>
   <g id="line2d_85">
    <path clip-path="url(#p95ed5a7fc7)" d="M 27.113693 40.634041 
L 26.932826 40.384354 
L 26.751959 40.134668 
L 26.60531 40.015839 
L 26.458661 39.897011 
L 26.300097 39.79743 
L 26.141532 39.69785 
L 25.884591 39.625537 
L 25.62765 39.553224 
L 25.274266 39.512055 
L 24.920883 39.470886 
L 24.712214 39.448898 
L 24.503544 39.42691 
L 24.294875 39.404922 
L 24.086206 39.382934 
L 23.815007 39.328666 
L 23.543808 39.274398 
L 23.236863 39.243789 
L 22.929919 39.213179 
" style="fill:none;stroke:#000000;stroke-linecap:square;stroke-width:0.4;"/>
   </g>
   <g id="line2d_86">
    <path clip-path="url(#p95ed5a7fc7)" d="M 32.767828 28.825249 
L 32.633399 28.995272 
L 32.490824 29.079748 
L 32.20995 29.140967 
L 32.026232 29.121184 
L 31.842513 29.101402 
L 31.636415 29.057927 
L 31.430317 29.014453 
L 31.22422 28.970978 
L 31.018122 28.927503 
L 30.812024 28.884029 
L 30.605926 28.840554 
L 30.399828 28.797079 
L 30.19373 28.753605 
L 29.865501 28.84717 
L 29.537272 28.940736 
L 29.319081 29.036106 
L 29.100889 29.131476 
L 28.882698 29.226847 
L 28.664507 29.322217 
" style="fill:none;stroke:#4169e1;stroke-linecap:square;stroke-width:0.4;"/>
   </g>
   <g id="line2d_87">
    <path clip-path="url(#p95ed5a7fc7)" d="M 30.418796 40.622011 
L 30.288034 40.459341 
L 30.157271 40.29667 
L 29.987505 40.10212 
L 29.817738 39.90757 
L 29.647972 39.713021 
L 29.478205 39.518471 
L 29.233994 39.336419 
L 28.989782 39.154367 
L 28.716547 39.042489 
L 28.443311 38.930611 
L 28.240447 38.852016 
L 28.037582 38.773421 
L 27.772595 38.624518 
L 27.627678 38.487912 
L 27.48276 38.351306 
L 27.329491 38.148402 
L 27.176223 37.945498 
L 26.960934 37.755159 
L 26.803694 37.680573 
L 26.621502 37.672286 
L 26.439311 37.663999 
L 26.17435 37.759202 
L 25.909389 37.854405 
L 25.644428 37.949608 
L 25.379467 38.044811 
L 25.114506 38.140014 
L 24.849544 38.235217 
L 24.584583 38.330421 
L 24.319622 38.425624 
L 24.098121 38.55187 
L 23.87662 38.678117 
L 23.655119 38.804364 
L 23.433618 38.930611 
L 23.181768 39.071895 
L 22.929919 39.213179 
L 22.707297 39.191927 
L 22.484676 39.170674 
" style="fill:none;stroke:#ff0000;stroke-linecap:square;stroke-width:0.4;"/>
   </g>
   <g id="line2d_88">
    <path clip-path="url(#p95ed5a7fc7)" d="M 27.113693 40.634041 
L 26.891683 40.66719 
L 26.759495 40.822509 
L 26.771716 40.915273 
L 26.767846 41.062037 
L 26.752163 41.253446 
L 26.747478 41.337655 
L 26.753588 41.434162 
L 26.795139 41.552589 
L 26.892905 41.672086 
L 26.948713 41.727156 
L 27.00554 41.780355 
L 27.191295 41.966149 
L 27.414731 42.210757 
L 27.539383 42.26155 
L 27.663627 42.267698 
L 27.789297 42.221183 
L 27.895414 42.116389 
L 28.026431 41.945498 
L 28.157447 41.774607 
L 28.288464 41.603716 
L 28.419481 41.432825 
L 28.550243 41.311991 
L 28.671024 41.271625 
L 28.745164 41.272159 
L 29.024611 41.302635 
L 29.316076 41.364121 
L 29.454578 41.402349 
L 29.577397 41.388448 
L 29.671497 41.368398 
L 29.750117 41.319209 
L 29.989745 41.051344 
L 30.229374 40.783479 
L 30.418796 40.622011 
L 30.634288 40.477653 
L 30.756496 40.383018 
L 30.856298 40.279828 
L 30.985024 40.078796 
L 31.107639 39.804648 
L 31.230254 39.530501 
L 31.251029 39.459391 
L 31.258565 39.37037 
L 31.247159 39.297656 
L 31.233512 39.229754 
L 31.201738 39.161852 
L 31.156318 39.070425 
L 31.038795 38.909358 
L 30.921272 38.748292 
L 30.800389 38.581076 
L 30.679505 38.413861 
L 30.558621 38.246646 
L 30.437738 38.079431 
L 30.274285 37.85514 
L 30.110833 37.63085 
L 29.94738 37.40656 
L 29.783928 37.182269 
L 29.633103 37.040317 
L 29.482279 36.898364 
L 29.242141 36.671401 
L 29.002003 36.444437 
" style="fill:none;stroke:#4169e1;stroke-linecap:square;stroke-width:0.4;"/>
   </g>
   <g id="line2d_89">
    <path clip-path="url(#p95ed5a7fc7)" d="M 29.002003 36.444437 
L 28.901793 36.373862 
L 28.631511 36.157591 
L 28.427933 35.968321 
L 28.224356 35.779051 
L 28.046544 35.55583 
L 27.933069 35.386944 
L 27.819594 35.218058 
L 27.70612 35.049172 
L 27.592645 34.880286 
L 27.47917 34.7114 
L 27.365695 34.542514 
L 27.252221 34.373628 
L 27.138746 34.204742 
L 27.070921 34.049423 
L 27.063588 33.930461 
L 27.070921 33.815241 
L 27.101472 33.681843 
L 27.226124 33.469583 
L 27.382957 33.202252 
L 27.451801 32.975556 
L 27.439173 32.779068 
L 27.426544 32.58258 
L 27.425119 32.224892 
L 27.426341 32.001136 
L 27.409028 31.761875 
L 27.406788 31.566457 
L 27.318798 31.422098 
L 27.20596 31.353127 
L 27.091696 31.350186 
L 26.995559 31.373711 
L 26.873352 31.459792 
" style="fill:none;stroke:#008000;stroke-linecap:square;stroke-width:0.4;"/>
   </g>
   <g id="line2d_90">
    <path clip-path="url(#p95ed5a7fc7)" d="M 27.583174 19.660891 
L 27.807832 19.830646 
L 28.030046 19.831715 
L 28.933414 19.203422 
L 30.918981 17.733371 
L 31.461429 17.466108 
L 33.431822 17.091978 
L 33.77054 17.159747 
L 34.069949 17.36372 
L 34.081151 17.65217 
L 33.873806 18.024026 
L 31.631298 19.678535 
L 31.441876 20.062154 
L 31.607875 20.609915 
L 32.07817 21.121051 
L 32.175936 22.59324 
L 33.049923 23.833119 
L 33.280896 25.111494 
L 33.209302 26.045279 
L 32.749395 28.467695 
L 32.869158 29.822927 
L 32.943603 31.545872 
L 32.72811 32.035755 
L 32.215653 33.091577 
L 32.283682 33.533742 
L 32.674135 34.049155 
L 33.01041 34.850612 
L 32.886878 35.744432 
L 32.369024 37.278642 
L 31.706048 39.057326 
L 31.331889 39.138862 
L 31.156318 39.070425 
L 31.156318 39.070425 
" style="fill:none;stroke:#008000;stroke-linecap:square;stroke-width:0.4;"/>
   </g>
   <g id="line2d_91">
    <path clip-path="url(#p95ed5a7fc7)" d="M 22.858835 29.282919 
L 22.72074 29.353495 
L 22.622567 29.374079 
L 22.554538 29.370069 
L 22.474492 29.312058 
L 22.421128 29.19871 
L 22.377541 28.908389 
L 22.377541 28.713773 
L 22.377541 28.519156 
L 22.40239 28.28738 
L 22.427239 28.055605 
L 22.439663 27.860988 
L 22.452087 27.666371 
L 22.44394 27.343436 
L 22.361043 27.186246 
L 22.195452 27.086799 
L 21.971812 27.078512 
L 21.723527 27.186246 
L 21.572397 27.308416 
L 21.421267 27.430586 
L 21.337759 27.611836 
L 21.25425 27.793086 
L 21.143856 28.105328 
L 21.073485 28.274949 
L 21.003114 28.444571 
L 20.820821 28.676346 
L 20.713278 28.883527 
L 20.622132 29.131877 
L 20.530985 29.380228 
L 20.458526 29.630649 
L 20.386068 29.881071 
L 20.313609 30.131493 
L 20.24115 30.381915 
L 20.212227 30.584819 
L 20.183305 30.787723 
L 20.257851 30.969775 
L 20.369366 31.134852 
L 20.48088 31.299928 
L 20.671728 31.582497 
L 20.862371 31.78941 
L 20.978265 31.847421 
L 21.251399 31.888857 
L 21.516385 31.872283 
L 21.806221 31.938581 
L 22.054709 32.021186 
L 22.327843 32.046048 
L 22.50484 32.043909 
L 22.675727 32.029473 
L 22.857816 32.087484 
L 22.998559 32.203505 
L 23.122803 32.294398 
L 23.420989 32.335834 
L 23.677625 32.360696 
L 23.876416 32.356552 
L 24.075207 32.352408 
L 24.267684 32.344121 
L 24.460161 32.335834 
L 24.652638 32.327547 
L 24.845114 32.319259 
L 25.103583 32.314047 
L 25.362052 32.308834 
L 25.581822 32.302418 
L 25.760652 32.36524 
L 25.939483 32.428063 
L 26.077577 32.553441 
L 26.219134 32.752335 
" style="fill:none;stroke:#ff0000;stroke-linecap:square;stroke-width:0.4;"/>
   </g>
  </g>
 </g>
 <defs>
  <clipPath id="p95ed5a7fc7">
   <rect height="72" width="44.010023" x="0" y="0"/>
  </clipPath>
 </defs>
</svg>
