<?xml version="1.0" encoding="utf-8" standalone="no"?>
<!DOCTYPE svg PUBLIC "-//W3C//DTD SVG 1.1//EN"
  "http://www.w3.org/Graphics/SVG/1.1/DTD/svg11.dtd">
<svg height="72pt" version="1.1" viewBox="0 0 68.870929 72" width="68.870929pt" xmlns="http://www.w3.org/2000/svg" xmlns:xlink="http://www.w3.org/1999/xlink">
 <metadata>
  <rdf:RDF xmlns:cc="http://creativecommons.org/ns#" xmlns:dc="http://purl.org/dc/elements/1.1/" xmlns:rdf="http://www.w3.org/1999/02/22-rdf-syntax-ns#">
   <cc:Work>
    <dc:type rdf:resource="http://purl.org/dc/dcmitype/StillImage"/>
    <dc:date>2022-05-18T23:31:49.831647</dc:date>
    <dc:format>image/svg+xml</dc:format>
    <dc:creator>
     <cc:Agent>
      <dc:title>Matplotlib v3.4.3, https://matplotlib.org/</dc:title>
     </cc:Agent>
    </dc:creator>
   </cc:Work>
  </rdf:RDF>
 </metadata>
 <defs>
  <style type="text/css">*{stroke-linecap:butt;stroke-linejoin:round;}</style>
 </defs>
 <g id="figure_1">
  <g id="patch_1">
   <path d="M 0 72 
L 68.870929 72 
L 68.870929 0 
L 0 0 
z
" style="fill:#ffffff;"/>
  </g>
  <g id="axes_1">
   <g id="line2d_1">
    <path clip-path="url(#p1aa912b4f1)" d="M 46.593703 27.487569 
L 46.293579 28.508054 
L 45.993456 29.528538 
L 45.869806 29.949201 
L 45.803347 30.175976 
L 45.389635 31.586978 
L 44.975923 32.99798 
L 44.746792 33.779273 
L 44.517662 34.560565 
L 44.288532 35.341858 
L 44.059401 36.12315 
L 43.830271 36.904443 
L 43.601141 37.685735 
L 43.37201 38.467027 
L 43.14288 39.24832 
L 42.81244 40.374912 
L 42.482 41.501505 
L 42.15156 42.628097 
L 41.821119 43.754689 
L 41.530131 44.746913 
L 41.239142 45.739136 
L 40.948154 46.73136 
L 40.657165 47.723583 
L 40.378025 48.675299 
L 40.098886 49.627015 
L 39.819746 50.57873 
L 39.540606 51.530446 
L 39.307736 52.324842 
L 39.074865 53.119237 
L 38.789437 54.092106 
L 38.504009 55.064974 
L 38.225928 56.013093 
L 37.947847 56.961212 
L 37.669766 57.909331 
L 37.391686 58.85745 
L 37.00882 60.163115 
L 36.625954 61.468781 
L 36.283334 62.636737 
L 35.940715 63.804694 
L 35.678984 64.697232 
L 35.417253 65.589771 
L 35.178558 66.404891 
L 34.939862 67.220011 
" style="fill:none;stroke:#808080;stroke-linecap:square;stroke-width:0.4;"/>
   </g>
   <g id="line2d_2">
    <path clip-path="url(#p1aa912b4f1)" d="M 34.397337 3.272727 
L 34.385951 4.514848 
L 34.374566 5.756968 
L 34.371124 6.154337 
L 34.368211 6.474288 
L 34.361857 7.20531 
L 34.35206 8.324451 
L 34.348353 8.736208 
L 34.338292 9.876931 
L 34.32823 11.017654 
L 34.321081 11.838426 
L 34.313932 12.659199 
L 34.306783 13.479971 
L 34.299634 14.300743 
L 34.292088 15.158341 
L 34.284542 16.015939 
L 34.282424 16.261896 
L 34.269185 17.75614 
L 34.259389 18.869116 
L 34.247341 20.243122 
L 34.235294 21.617128 
L 34.224968 22.797588 
L 34.214641 23.978048 
L 34.204315 25.158507 
L 34.193989 26.338967 
L 34.182339 27.666899 
L 34.170689 28.994831 
L 34.159039 30.322762 
L 34.147388 31.650694 
L 34.137724 32.757675 
L 34.12806 33.864656 
L 34.11641 35.188991 
L 34.104759 36.513325 
L 34.09483 37.646341 
L 34.084901 38.779356 
L 34.078282 39.514146 
L 34.06822 40.673196 
L 34.058159 41.832246 
L 34.046112 43.200771 
L 34.034064 44.569296 
L 34.02718 45.345878 
L 34.018376 46.354116 
L 34.009573 47.362354 
L 34.000769 48.370592 
L 33.991965 49.37883 
L 33.985213 50.172883 
L 33.978461 50.966936 
" style="fill:none;stroke:#808080;stroke-linecap:square;stroke-width:0.4;"/>
   </g>
   <g id="line2d_3">
    <path clip-path="url(#p1aa912b4f1)" d="M 30.259421 39.956733 
L 30.442116 41.160144 
L 30.624812 42.363555 
L 30.782618 43.397057 
L 30.984046 44.717795 
L 31.185474 46.038533 
L 31.386902 47.359271 
L 31.588331 48.680009 
L 31.726014 49.582311 
L 31.863697 50.484612 
L 32.002969 51.398047 
L 32.142242 52.311482 
L 32.33897 53.601732 
L 32.535698 54.891982 
L 32.663916 55.732366 
L 32.792134 56.57275 
L 32.920351 57.413134 
L 33.048569 58.253518 
L 33.214848 59.343542 
L 33.397279 60.540102 
L 33.560116 61.607689 
L 33.722953 62.675275 
L 33.930272 64.034551 
L 34.125809 65.310071 
L 34.321346 66.585591 
" style="fill:none;stroke:#808080;stroke-linecap:square;stroke-width:0.4;"/>
   </g>
   <g id="line2d_4">
    <path clip-path="url(#p1aa912b4f1)" d="M 20.402084 17.545809 
L 20.47311 18.0003 
L 20.544137 18.45479 
L 20.615163 18.909281 
L 20.686189 19.363772 
L 20.828241 19.690402 
L 20.970293 20.017033 
L 21.112345 20.343663 
L 21.254398 20.670294 
L 21.495873 20.925929 
L 21.737349 21.181564 
L 21.978824 21.437199 
L 22.220299 21.692834 
" style="fill:none;stroke:#000000;stroke-linecap:square;stroke-width:0.4;"/>
   </g>
   <g id="line2d_5">
    <path clip-path="url(#p1aa912b4f1)" d="M 17.10695 20.329447 
L 17.142463 20.599298 
L 17.177976 20.869149 
L 17.213489 21.139001 
L 17.249002 21.408852 
L 17.284515 21.678703 
L 17.320028 21.948554 
L 17.355541 22.218405 
L 17.391054 22.488257 
L 17.440766 22.72261 
L 17.490478 22.956964 
L 17.540189 23.191317 
L 17.589901 23.425671 
L 17.639613 23.660024 
L 17.689324 23.894378 
L 17.739036 24.128731 
L 17.788748 24.363084 
L 18.05862 24.569006 
L 18.328493 24.774927 
L 18.598366 24.980848 
L 18.868238 25.186769 
L 19.138111 25.39269 
L 19.407984 25.598611 
L 19.677856 25.804532 
L 19.947729 26.010453 
L 20.238883 26.131162 
L 20.530037 26.251872 
L 20.821191 26.372581 
L 21.112345 26.49329 
L 21.403499 26.614 
L 21.694653 26.734709 
L 21.985807 26.855419 
L 22.276962 26.976128 
L 22.688886 27.146551 
L 23.100811 27.316975 
L 23.512736 27.487398 
L 23.924661 27.657821 
L 24.244245 27.892175 
L 24.56383 28.126528 
L 24.883414 28.360882 
L 25.202998 28.595235 
L 25.522583 28.829589 
L 25.842167 29.063942 
L 26.161751 29.298296 
L 26.481336 29.532649 
L 26.680182 29.67464 
L 26.879029 29.816631 
L 27.077876 29.958622 
L 27.276722 30.100613 
L 27.475569 30.242603 
L 27.674415 30.384594 
L 27.873262 30.526585 
L 28.072109 30.668576 
L 28.235459 30.849662 
L 28.398809 31.030747 
L 28.562159 31.211833 
L 28.725509 31.392918 
L 28.888859 31.574004 
L 29.052209 31.755089 
L 29.215559 31.936175 
L 29.378909 32.11726 
L 29.542259 32.298345 
L 29.70561 32.479431 
L 29.86896 32.660516 
L 30.03231 32.841602 
L 30.19566 33.022687 
L 30.35901 33.203773 
L 30.52236 33.384858 
L 30.68571 33.565944 
" style="fill:none;stroke:#000000;stroke-linecap:square;stroke-width:0.4;"/>
   </g>
   <g id="line2d_6">
    <path clip-path="url(#p1aa912b4f1)" d="M 9.146202 34.76867 
L 9.00501 34.369802 
L 8.863819 33.970935 
L 8.722627 33.572067 
L 8.581435 33.173199 
L 8.440244 32.774332 
L 8.299052 32.375464 
L 8.15786 31.976597 
L 8.016669 31.577729 
L 7.97404 31.322094 
L 7.931411 31.066459 
L 7.888782 30.810824 
L 7.846153 30.555189 
L 7.803524 30.299554 
L 7.760895 30.043919 
L 7.718266 29.788284 
L 7.675637 29.532649 
L 7.711151 29.241473 
L 7.746664 28.950298 
L 7.782177 28.659122 
L 7.81769 28.367947 
L 7.853203 28.076771 
L 7.888716 27.785596 
L 7.924229 27.49442 
L 7.959742 27.203245 
L 8.059165 26.848182 
L 8.158588 26.493119 
L 8.258012 26.138056 
L 8.357435 25.782993 
L 8.527884 25.428016 
L 8.698334 25.073039 
L 8.868783 24.718062 
L 9.039233 24.363084 
" style="fill:none;stroke:#4169e1;stroke-linecap:square;stroke-width:0.4;"/>
   </g>
   <g id="line2d_7">
    <path clip-path="url(#p1aa912b4f1)" d="M 9.039233 24.363084 
L 7.08618 24.313242 
L 4.579416 24.945093 
L 3.471528 25.499012 
L 3.130497 26.919263 
L 3.514091 29.276843 
L 3.641779 31.236882 
L 5.17589 33.338827 
L 8.471024 34.304502 
L 11.198214 36.292717 
L 12.478802 37.240236 
L 14.692327 38.593346 
L 15.45925 39.132877 
L 16.254637 39.189742 
L 16.971947 37.336538 
L 17.504643 36.235852 
L 19.77728 35.4406 
L 21.410549 34.716258 
L 25.032483 33.565773 
L 26.481336 33.246336 
L 27.901858 32.99798 
L 30.259487 34.616916 
L 31.196992 35.554159 
L 31.196992 35.554159 
" style="fill:none;stroke:#4169e1;stroke-linecap:square;stroke-width:0.4;"/>
   </g>
   <g id="line2d_8">
    <path clip-path="url(#p1aa912b4f1)" d="M 24.095177 12.035055 
L 23.782675 12.035055 
L 23.470173 12.035055 
L 23.157672 12.035055 
L 22.84517 12.035055 
L 22.582413 12.09541 
L 22.319657 12.155765 
L 22.0569 12.216119 
L 21.794143 12.276474 
L 21.531386 12.336829 
L 21.268629 12.397183 
L 21.005872 12.457538 
L 20.743116 12.517893 
L 20.480359 12.578247 
L 20.217602 12.638602 
L 19.954845 12.698957 
L 19.692088 12.759312 
L 19.429331 12.819666 
L 19.166574 12.880021 
L 18.903818 12.940376 
L 18.641061 13.00073 
L 18.285963 13.107266 
L 17.930866 13.213802 
L 17.575769 13.320338 
L 17.220671 13.426874 
L 16.865574 13.53341 
L 16.510476 13.639946 
L 16.155379 13.746482 
L 15.800282 13.853018 
L 15.601435 13.973728 
L 15.402588 14.094437 
L 15.203742 14.215146 
L 15.004895 14.335856 
L 14.806049 14.456565 
L 14.607202 14.577275 
L 14.408355 14.697984 
L 14.209509 14.818693 
L 14.110052 15.095653 
L 14.010596 15.372612 
L 13.91114 15.649571 
L 13.811683 15.926531 
L 13.712227 16.20349 
L 13.612771 16.480449 
L 13.513314 16.757408 
L 13.413858 17.034368 
L 13.264723 17.403647 
L 13.115588 17.772926 
L 12.966453 18.142205 
L 12.817318 18.511484 
L 12.668183 18.880763 
L 12.519048 19.250042 
L 12.369913 19.619321 
L 12.220778 19.9886 
L 12.13413 20.232888 
L 12.047482 20.477176 
L 11.960835 20.721463 
L 11.874187 20.965751 
L 11.787539 21.210039 
L 11.700891 21.454327 
L 11.614243 21.698614 
L 11.527595 21.942902 
" style="fill:none;stroke:#008000;stroke-linecap:square;stroke-width:0.4;"/>
   </g>
   <g id="line2d_9">
    <path clip-path="url(#p1aa912b4f1)" d="M 35.117262 8.2854 
L 37.013288 8.505451 
L 38.753427 8.05794 
L 44.424229 10.365934 
L 46.139347 11.012173 
L 47.282748 13.007881 
L 47.73012 15.04581 
L 49.54807 15.557251 
L 51.366219 17.659111 
L 52.474008 19.313758 
L 54.263727 21.351987 
L 55.570395 24.533337 
L 55.684083 28.531391 
L 55.286291 31.066288 
L 58.830182 39.31058 
L 59.959384 42.87504 
L 60.627016 46.056261 
L 62.06872 49.584965 
L 64.000127 52.882357 
L 65.740432 57.423839 
L 64.604014 59.696036 
L 62.432456 61.455935 
L 59.710925 62.933522 
L 57.828932 63.473267 
L 56.138604 64.467204 
L 53.972738 66.940483 
L 52.502471 67.846809 
L 50.251216 68.443291 
L 47.387235 68.534754 
L 45.230107 68.727273 
L 41.650869 67.420751 
L 39.236246 66.057536 
L 38.227848 65.489487 
L 36.878418 65.262455 
L 36.253415 65.205762 
L 36.253415 65.205762 
" style="fill:none;stroke:#4169e1;stroke-linecap:square;stroke-width:0.4;"/>
   </g>
   <g id="line2d_10">
    <path clip-path="url(#p1aa912b4f1)" d="M 32.364388 6.578083 
L 32.001513 6.734976 
L 31.638638 6.891868 
L 31.275763 7.04876 
L 30.912888 7.205652 
L 30.685644 7.312188 
L 30.4584 7.418724 
L 30.231156 7.52526 
L 30.003913 7.631796 
L 29.776669 7.738332 
L 29.549425 7.844868 
L 29.322181 7.951404 
L 29.094937 8.05794 
L 28.896058 8.207082 
L 28.697178 8.356224 
L 28.498298 8.505366 
L 28.299419 8.654507 
L 28.100539 8.803649 
L 27.901659 8.952791 
L 27.702779 9.101933 
L 27.5039 9.251075 
L 27.333483 9.407325 
L 27.163067 9.563575 
L 26.992651 9.719824 
L 26.822235 9.876074 
L 26.651818 10.032324 
L 26.481402 10.188574 
L 26.310986 10.344824 
L 26.140569 10.501074 
L 25.884895 10.692822 
L 25.629221 10.884569 
L 25.373547 11.076317 
L 25.117873 11.268065 
L 24.862199 11.459812 
L 24.606525 11.65156 
L 24.350851 11.843308 
L 24.095177 12.035055 
L 23.782675 12.29069 
L 23.470173 12.546325 
L 23.157672 12.80196 
L 22.84517 13.057595 
L 22.532669 13.31323 
L 22.220167 13.568865 
L 21.907666 13.8245 
L 21.595164 14.080135 
L 21.346606 14.378419 
L 21.098047 14.676702 
L 20.849489 14.974986 
L 20.600931 15.27327 
L 20.352373 15.571553 
L 20.103814 15.869837 
L 19.855256 16.168121 
L 19.606698 16.466404 
L 19.336825 16.750429 
L 19.066953 17.034453 
L 18.79708 17.318478 
L 18.527207 17.602503 
L 18.257335 17.886527 
L 17.987462 18.170552 
L 17.717589 18.454576 
L 17.447716 18.738601 
L 17.113933 18.866418 
L 16.780151 18.994236 
L 16.446368 19.122053 
L 16.112585 19.249871 
L 15.778802 19.377688 
L 15.445019 19.505506 
L 15.111236 19.633323 
L 14.777453 19.761141 
L 14.50758 19.931607 
L 14.237707 20.102073 
L 13.967835 20.272539 
L 13.697962 20.443005 
L 13.428089 20.613472 
L 13.158217 20.783938 
L 12.888344 20.954404 
L 12.618471 21.12487 
L 12.345752 21.329378 
L 12.073033 21.533886 
L 11.800314 21.738394 
L 11.527595 21.942902 
L 11.289032 22.121804 
L 11.050469 22.300705 
L 10.811906 22.479607 
L 10.573343 22.658509 
L 10.38158 22.871581 
L 10.189816 23.084653 
L 9.998052 23.297725 
L 9.806288 23.510797 
L 9.614524 23.723869 
L 9.42276 23.936941 
L 9.230996 24.150012 
L 9.039233 24.363084 
" style="fill:none;stroke:#4169e1;stroke-linecap:square;stroke-width:0.4;"/>
   </g>
   <g id="line2d_11">
    <path clip-path="url(#p1aa912b4f1)" d="M 21.197471 16.466404 
L 21.232984 16.750429 
L 21.268497 17.034453 
L 21.30401 17.318478 
L 21.339523 17.602503 
L 21.375036 17.886527 
L 21.410549 18.170552 
L 21.446062 18.454576 
L 21.481575 18.738601 
L 21.573916 19.10788 
L 21.666256 19.477159 
L 21.758597 19.846438 
L 21.850937 20.215717 
L 21.943278 20.584996 
L 22.035618 20.954275 
L 22.127959 21.323555 
L 22.220299 21.692834 
L 22.475974 22.047896 
L 22.731648 22.402959 
L 22.987322 22.758022 
L 23.242996 23.113085 
L 23.49867 23.468148 
L 23.754344 23.823211 
L 24.010018 24.178274 
L 24.265692 24.533337 
L 24.464539 24.895507 
L 24.663385 25.257678 
L 24.862232 25.619849 
L 25.061079 25.98202 
L 25.259925 26.344191 
L 25.458772 26.706362 
L 25.657618 27.068533 
L 25.856465 27.430704 
L 26.13342 27.615344 
L 26.410376 27.799983 
L 26.687331 27.984623 
L 26.964287 28.169262 
L 27.241242 28.353902 
L 27.518198 28.538542 
L 27.795153 28.723181 
L 28.072109 28.907821 
L 28.285187 29.220235 
L 28.498265 29.532649 
L 28.711343 29.845063 
L 28.924422 30.157477 
L 29.1375 30.469892 
L 29.350578 30.782306 
L 29.563657 31.09472 
L 29.776735 31.407134 
L 29.92587 31.60599 
L 30.075005 31.804846 
L 30.22414 32.003702 
L 30.373275 32.202557 
L 30.52241 32.401413 
L 30.671545 32.600269 
L 30.82068 32.799125 
L 30.969814 32.99798 
" style="fill:none;stroke:#ff0000;stroke-linecap:square;stroke-width:0.4;"/>
   </g>
   <g id="line2d_12">
    <path clip-path="url(#p1aa912b4f1)" d="M 31.310581 50.834708 
L 29.1375 49.726956 
L 28.072109 49.471321 
L 25.345051 50.067889 
L 24.606459 50.153015 
L 23.583895 49.414799 
L 23.29979 47.355589 
L 23.29979 46.120062 
L 22.504404 43.563884 
L 22.191737 41.469261 
L 21.438946 39.69399 
L 20.13946 37.883392 
L 18.399453 36.576784 
L 17.504643 36.235852 
L 16.339961 34.758736 
L 14.947968 33.381219 
L 13.754823 31.762368 
L 12.263473 29.16337 
L 11.965137 28.396379 
L 11.823085 27.941803 
L 13.399825 24.90253 
L 15.310182 21.756721 
L 15.800282 21.01114 
L 15.800282 21.01114 
" style="fill:none;stroke:#4169e1;stroke-linecap:square;stroke-width:0.4;"/>
   </g>
   <g id="line2d_13">
    <path clip-path="url(#p1aa912b4f1)" d="M 13.59364 37.86712 
L 13.591324 37.629727 
L 13.589007 37.392333 
L 13.58669 37.154939 
L 13.584373 36.917545 
L 13.449437 36.676127 
L 13.314501 36.434708 
L 13.179564 36.193289 
L 13.044628 35.95187 
L 12.909692 35.710452 
L 12.774755 35.469033 
L 12.639819 35.227614 
L 12.504883 34.986195 
L 12.391261 34.588527 
L 12.277639 34.190858 
L 12.164017 33.793189 
L 12.050395 33.395521 
L 11.936773 32.997852 
L 11.823151 32.600183 
L 11.709529 32.202514 
L 11.595907 31.804846 
L 11.581709 31.492389 
L 11.56751 31.179932 
L 11.553312 30.867475 
L 11.539113 30.555018 
L 11.524914 30.242561 
L 11.510716 29.930104 
L 11.496517 29.617647 
L 11.482319 29.30519 
L 11.56751 28.964343 
L 11.652702 28.623496 
L 11.737893 28.28265 
L 11.823085 27.941803 
" style="fill:none;stroke:#000000;stroke-linecap:square;stroke-width:0.4;"/>
   </g>
   <g id="line2d_14">
    <path clip-path="url(#p1aa912b4f1)" d="M 15.118484 52.311824 
L 15.026144 52.006475 
L 14.933803 51.701126 
L 14.841462 51.395777 
L 14.749122 51.090429 
L 14.656781 50.78508 
L 14.564441 50.479731 
L 14.4721 50.174382 
L 14.37976 49.869033 
L 14.280336 49.64183 
L 14.180913 49.414628 
L 14.08149 49.187425 
L 13.982067 48.960223 
L 13.882643 48.73302 
L 13.78322 48.505818 
L 13.683797 48.278615 
L 13.584373 48.051412 
L 13.555976 47.63957 
L 13.527579 47.227728 
L 13.499182 46.815886 
L 13.470785 46.404044 
L 13.371361 45.977986 
L 13.271938 45.551927 
L 13.172515 45.125869 
L 13.073091 44.699811 
L 12.931039 44.486825 
L 12.788987 44.273838 
L 12.646935 44.060852 
L 12.504883 43.847866 
L 12.36283 43.634879 
L 12.220778 43.421893 
L 12.078726 43.208907 
L 11.936674 42.99592 
L 11.784031 42.673572 
L 11.631387 42.351223 
L 11.52839 42.133869 
L 11.425392 41.916515 
L 11.397061 41.604101 
L 11.36873 41.291687 
L 11.517865 41.099939 
L 11.667 40.908192 
L 11.816135 40.716444 
L 11.96527 40.524696 
L 12.114404 40.332949 
L 12.263539 40.141201 
L 12.412674 39.949453 
L 12.561809 39.757706 
L 12.690788 39.521383 
L 12.819767 39.285059 
L 12.948746 39.048736 
L 13.077725 38.812413 
L 13.206704 38.57609 
L 13.335683 38.339767 
L 13.464662 38.103443 
L 13.59364 37.86712 
" style="fill:none;stroke:#ff0000;stroke-linecap:square;stroke-width:0.4;"/>
   </g>
   <g id="line2d_15">
    <path clip-path="url(#p1aa912b4f1)" d="M 27.617753 57.82155 
L 27.347881 57.629845 
L 27.078008 57.438141 
L 26.808135 57.246436 
L 26.538263 57.054731 
L 26.26839 56.863026 
L 25.998517 56.671321 
L 25.728645 56.479617 
L 25.458772 56.287912 
L 25.238611 56.138813 
L 25.01845 55.989714 
L 24.798289 55.840615 
L 24.578128 55.691516 
L 24.357967 55.542417 
L 24.137806 55.393318 
L 23.917645 55.244219 
L 23.697483 55.09512 
L 23.345596 54.825354 
L 22.993709 54.555589 
L 22.641823 54.285823 
L 22.289936 54.016057 
L 21.993122 53.788598 
L 21.723249 53.639499 
L 21.453377 53.4904 
L 21.183504 53.341301 
L 20.913631 53.192202 
L 20.643758 53.043103 
L 20.373886 52.894004 
L 20.104013 52.744905 
L 19.83414 52.595806 
L 19.393818 52.595806 
L 18.953496 52.595806 
L 18.513174 52.595806 
L 18.072852 52.595806 
L 17.789674 52.579534 
L 17.506497 52.563263 
L 17.150969 52.542966 
L 16.795441 52.52267 
L 16.439914 52.502373 
L 16.084386 52.482076 
L 15.842911 52.439513 
L 15.601435 52.39695 
L 15.35996 52.354387 
L 15.118484 52.311824 
" style="fill:none;stroke:#008000;stroke-linecap:square;stroke-width:0.4;"/>
   </g>
   <g id="line2d_16">
    <path clip-path="url(#p1aa912b4f1)" d="M 15.118484 52.311824 
L 14.905406 52.425383 
L 14.692327 52.538941 
L 14.479249 52.6525 
L 14.266171 52.766058 
L 14.01053 52.66663 
L 13.754889 52.567202 
L 13.499248 52.467774 
L 13.243607 52.368347 
L 12.788987 52.340085 
L 12.334367 52.311824 
L 11.950905 52.325955 
L 11.567444 52.340085 
L 11.183982 52.354216 
L 10.800521 52.368347 
L 10.58036 52.283135 
L 10.360199 52.197923 
L 10.140038 52.112712 
L 9.919877 52.0275 
L 9.699716 51.942288 
L 9.479555 51.857077 
L 9.259394 51.771865 
L 9.039233 51.686653 
L 8.726731 51.388455 
L 8.414229 51.090257 
L 8.101728 50.792059 
L 7.789226 50.493861 
L 7.547552 50.486068 
L 7.305878 50.478275 
L 7.064204 50.470482 
L 6.82253 50.462688 
L 6.425234 50.449842 
L 6.027938 50.436996 
L 5.772297 50.181447 
L 5.516656 49.925898 
L 5.41015 49.712869 
L 5.303644 49.499839 
L 5.197138 49.28681 
L 5.090632 49.073781 
L 4.984126 48.860752 
L 4.87762 48.647723 
L 4.771114 48.434694 
L 4.664608 48.221665 
L 4.600664 47.994462 
L 4.536721 47.767259 
L 4.472777 47.540057 
L 4.408834 47.312854 
L 4.344891 47.085652 
L 4.280947 46.858449 
L 4.217004 46.631247 
L 4.153061 46.404044 
L 3.954214 46.063197 
L 3.755368 45.722351 
L 3.556521 45.381504 
L 3.357674 45.040658 
L 3.442932 44.67155 
L 3.52819 44.302442 
L 3.570819 43.8906 
L 3.613448 43.478758 
L 3.656077 43.066916 
L 3.698706 42.655074 
L 3.982744 42.583992 
L 4.266782 42.512911 
L 4.55082 42.44183 
L 4.834858 42.370749 
L 4.913 42.136439 
L 4.991142 41.902128 
L 5.069284 41.667817 
L 5.147426 41.433507 
L 5.225568 41.199196 
L 5.30371 40.964885 
L 5.381852 40.730575 
L 5.459994 40.496264 
L 5.701469 40.283278 
L 5.942945 40.070291 
L 6.18442 39.857305 
L 6.425896 39.644319 
L 6.575031 39.431289 
L 6.724166 39.21826 
L 6.873301 39.005231 
L 7.022436 38.792202 
L 7.171571 38.579173 
L 7.320706 38.366144 
L 7.46984 38.153115 
L 7.618975 37.940085 
L 7.789359 37.570806 
L 7.959742 37.201527 
L 7.931345 36.846464 
L 7.902947 36.491402 
L 7.87455 36.136339 
L 7.846153 35.781276 
L 7.79472 35.351192 
L 7.743288 34.921109 
L 7.691855 34.491026 
L 7.640422 34.060942 
" style="fill:none;stroke:#ff0000;stroke-linecap:square;stroke-width:0.4;"/>
   </g>
   <g id="line2d_17">
    <path clip-path="url(#p1aa912b4f1)" d="M 15.800282 21.01114 
L 16.006211 20.727073 
L 16.21214 20.443005 
L 16.41807 20.158938 
L 16.623999 19.874871 
L 16.829928 19.590803 
L 17.035858 19.306736 
L 17.241787 19.022668 
L 17.447716 18.738601 
" style="fill:none;stroke:#008000;stroke-linecap:square;stroke-width:0.4;"/>
   </g>
   <g id="line2d_18">
    <path clip-path="url(#p1aa912b4f1)" d="M 9.096159 34.92933 
L 9.209748 35.355389 
L 9.323337 35.781447 
L 9.436926 36.207505 
L 9.550515 36.633564 
L 9.500803 36.882091 
L 9.451091 37.130617 
L 9.40138 37.379144 
L 9.351668 37.627671 
L 9.301956 37.876198 
L 9.252245 38.124725 
L 9.202533 38.373252 
L 9.152821 38.621779 
L 9.039233 38.990972 
L 8.925644 39.360166 
L 8.812055 39.729359 
L 8.698466 40.098552 
L 8.456991 40.396836 
L 8.215515 40.69512 
L 7.97404 40.993403 
L 7.732564 41.291687 
L 7.554999 41.497608 
L 7.377434 41.703529 
L 7.199869 41.90945 
L 7.022303 42.115371 
L 6.844738 42.321292 
L 6.667173 42.527213 
L 6.489608 42.733134 
L 6.312042 42.939055 
L 6.468326 43.365114 
L 6.62461 43.791172 
L 6.780894 44.21723 
L 6.937178 44.643289 
L 6.993972 44.98405 
L 7.050767 45.324811 
L 7.107561 45.665572 
L 7.164355 46.006333 
L 7.171471 46.283249 
L 7.178587 46.560166 
L 7.185703 46.837082 
L 7.192819 47.113999 
L 7.199935 47.390915 
L 7.207051 47.667832 
L 7.214166 47.944748 
L 7.221282 48.221665 
L 7.164422 48.590944 
L 7.107561 48.960223 
L 7.0507 49.329502 
L 6.99384 49.698781 
L 6.908185 50.080735 
L 6.82253 50.462688 
" style="fill:none;stroke:#ff0000;stroke-linecap:square;stroke-width:0.4;"/>
   </g>
   <g id="line2d_19">
    <path clip-path="url(#p1aa912b4f1)" d="M 17.506497 52.563263 
L 17.562364 52.181823 
L 17.618232 51.800383 
L 17.618232 51.37441 
L 17.618232 50.948438 
L 17.618232 50.522465 
L 17.618232 50.096492 
L 17.675026 49.656218 
L 17.731821 49.215943 
L 17.788615 48.775669 
L 17.84541 48.335394 
L 17.923552 48.015872 
L 18.001694 47.69635 
L 18.079835 47.376827 
L 18.157977 47.057305 
L 18.236119 46.737783 
L 18.314261 46.41826 
L 18.392403 46.098738 
L 18.470545 45.779216 
L 18.557987 45.552655 
L 18.64543 45.326095 
L 18.732872 45.099535 
L 18.820314 44.872975 
L 18.907756 44.646414 
L 18.995198 44.419854 
L 19.082641 44.193294 
L 19.170083 43.966734 
" style="fill:none;stroke:#ff0000;stroke-linecap:square;stroke-width:0.4;"/>
   </g>
   <g id="line2d_20">
    <path clip-path="url(#p1aa912b4f1)" d="M 18.584134 43.563884 
L 18.463396 43.791086 
L 18.342658 44.018289 
L 18.221921 44.245491 
L 18.101183 44.472694 
L 17.980445 44.699897 
L 17.859708 44.927099 
L 17.73897 45.154302 
L 17.618232 45.381504 
L 17.554322 45.615815 
L 17.490412 45.850125 
L 17.426501 46.084436 
L 17.362591 46.318747 
L 17.298681 46.553057 
L 17.234771 46.787368 
L 17.17086 47.021679 
L 17.10695 47.255989 
" style="fill:none;stroke:#ff0000;stroke-linecap:square;stroke-width:0.4;"/>
   </g>
   <g id="line2d_21">
    <path clip-path="url(#p1aa912b4f1)" d="M 21.621906 48.405619 
L 21.469429 48.702147 
L 21.316951 48.998675 
L 21.164473 49.295203 
L 21.011995 49.591731 
L 20.859518 49.888259 
L 20.70704 50.184787 
L 20.554562 50.481315 
L 20.402084 50.777843 
L 20.331091 51.005088 
L 20.260098 51.232334 
L 20.189105 51.459579 
L 20.118112 51.686825 
L 20.047119 51.91407 
L 19.976126 52.141315 
L 19.905133 52.368561 
L 19.83414 52.595806 
" style="fill:none;stroke:#ff0000;stroke-linecap:square;stroke-width:0.4;"/>
   </g>
   <g id="line2d_22">
    <path clip-path="url(#p1aa912b4f1)" d="M 20.646472 46.535929 
L 20.523616 46.789252 
L 20.40076 47.042575 
L 20.277905 47.295898 
L 20.155049 47.54922 
L 20.032193 47.802543 
L 19.909337 48.055866 
L 19.786481 48.309188 
L 19.663625 48.562511 
L 19.551956 48.827609 
L 19.440286 49.092708 
L 19.328617 49.357806 
L 19.216948 49.622904 
L 19.105279 49.888002 
L 18.99361 50.1531 
L 18.881941 50.418198 
L 18.770271 50.683297 
" style="fill:none;stroke:#ff0000;stroke-linecap:square;stroke-width:0.4;"/>
   </g>
   <g id="line2d_23">
    <path clip-path="url(#p1aa912b4f1)" d="M 22.674655 49.301069 
L 22.632059 49.620592 
L 22.589463 49.940114 
L 22.546867 50.259636 
L 22.504271 50.579159 
L 22.461676 50.898681 
L 22.41908 51.218203 
L 22.376484 51.537726 
L 22.333888 51.857248 
L 22.328394 52.127099 
L 22.3229 52.39695 
L 22.317406 52.666801 
L 22.311912 52.936653 
L 22.306418 53.206504 
L 22.300924 53.476355 
L 22.29543 53.746206 
L 22.289936 54.016057 
" style="fill:none;stroke:#ff0000;stroke-linecap:square;stroke-width:0.4;"/>
   </g>
   <g id="line2d_24">
    <path clip-path="url(#p1aa912b4f1)" d="M 22.674655 49.301069 
L 22.461643 49.173295 
L 22.24863 49.04552 
L 22.035618 48.917745 
L 21.822606 48.789971 
L 21.621906 48.405619 
L 21.499977 48.171908 
L 21.378048 47.938197 
L 21.256119 47.704485 
L 21.134189 47.470774 
L 21.01226 47.237063 
L 20.890331 47.003352 
L 20.768402 46.769641 
L 20.646472 46.535929 
L 20.459011 46.176927 
L 20.338273 45.9284 
L 20.217536 45.679873 
L 20.096798 45.431347 
L 19.97606 45.18282 
L 19.855322 44.934293 
L 19.734585 44.685766 
L 19.613847 44.437239 
L 19.493109 44.188712 
L 19.170083 43.966734 
L 18.877108 43.765309 
L 18.584134 43.563884 
L 18.30003 43.25147 
L 18.015925 42.939055 
L 17.731821 42.626641 
L 17.447716 42.314227 
L 17.234704 42.115371 
L 17.021692 41.916515 
L 16.80868 41.71766 
L 16.595668 41.518804 
L 16.311564 41.291516 
L 16.027459 41.064228 
" style="fill:none;stroke:#000000;stroke-linecap:square;stroke-width:0.4;"/>
   </g>
   <g id="line2d_25">
    <path clip-path="url(#p1aa912b4f1)" d="M 15.288735 40.723381 
L 14.933671 40.964885 
L 14.578606 41.20639 
L 14.223542 41.447894 
L 13.868478 41.689398 
L 13.588841 41.772127 
L 13.309205 41.854855 
L 13.029569 41.937583 
L 12.749933 42.020311 
L 12.470296 42.103039 
L 12.19066 42.185767 
L 11.911024 42.268495 
L 11.631387 42.351223 
" style="fill:none;stroke:#008000;stroke-linecap:square;stroke-width:0.4;"/>
   </g>
   <g id="line2d_26">
    <path clip-path="url(#p1aa912b4f1)" d="M 13.130018 42.598209 
L 13.272004 42.839627 
L 13.41399 43.081046 
L 13.555976 43.322465 
L 13.697962 43.563884 
L 13.896809 43.90473 
L 14.095655 44.245577 
L 14.195079 44.67155 
L 14.294502 45.097522 
L 14.393925 45.523495 
L 14.493348 45.949468 
L 14.493348 46.261968 
L 14.493348 46.574467 
L 14.493348 46.886967 
L 14.493348 47.199467 
L 14.663864 47.62544 
L 14.83438 48.051412 
L 15.118484 48.392259 
L 15.402588 48.733106 
L 15.544574 49.017088 
L 15.68656 49.301069 
L 15.828546 49.585051 
L 15.970532 49.869033 
L 16.226306 50.238312 
L 16.482079 50.607591 
L 16.638297 50.891573 
L 16.794515 51.175555 
L 16.950732 51.459536 
L 17.10695 51.743518 
L 17.306723 52.153391 
L 17.506497 52.563263 
" style="fill:none;stroke:#ff0000;stroke-linecap:square;stroke-width:0.4;"/>
   </g>
   <g id="line2d_27">
    <path clip-path="url(#p1aa912b4f1)" d="M 13.868478 41.689398 
L 14.01053 41.888169 
L 14.152582 42.086939 
L 14.294634 42.285709 
L 14.436686 42.484479 
L 14.578706 42.71879 
L 14.720725 42.9531 
L 14.862744 43.187411 
L 15.004763 43.421722 
L 15.146782 43.656032 
L 15.288801 43.890343 
L 15.43082 44.124654 
L 15.572839 44.358964 
L 15.688943 44.578202 
L 15.805048 44.79744 
L 15.921152 45.016678 
L 16.037256 45.235916 
L 16.15336 45.455154 
L 16.269464 45.674392 
L 16.385568 45.893631 
L 16.501673 46.112869 
L 16.652992 46.398649 
L 16.804311 46.684429 
L 16.955631 46.970209 
L 17.10695 47.255989 
L 17.291565 47.525841 
L 17.47618 47.795692 
L 17.660795 48.065543 
L 17.84541 48.335394 
L 17.930634 48.562597 
L 18.015859 48.789799 
L 18.101084 49.017002 
L 18.186308 49.244204 
L 18.271533 49.471407 
L 18.356758 49.69861 
L 18.441982 49.925812 
L 18.527207 50.153015 
L 18.648739 50.418156 
L 18.770271 50.683297 
L 18.961307 51.099849 
L 19.152343 51.516401 
L 19.322792 51.786252 
L 19.493242 52.056104 
L 19.663691 52.325955 
L 19.83414 52.595806 
" style="fill:none;stroke:#ff0000;stroke-linecap:square;stroke-width:0.4;"/>
   </g>
   <g id="line2d_28">
    <path clip-path="url(#p1aa912b4f1)" d="M 17.447716 42.314227 
L 17.334128 42.626641 
L 17.220539 42.939055 
L 17.149513 43.279902 
L 17.078487 43.620749 
L 17.007461 43.961595 
L 16.936434 44.302442 
L 16.882089 44.528745 
L 16.827744 44.755049 
L 16.773399 44.981352 
L 16.719054 45.207655 
L 16.664708 45.433959 
L 16.610363 45.660262 
L 16.556018 45.886565 
L 16.501673 46.112869 
" style="fill:none;stroke:#ff0000;stroke-linecap:square;stroke-width:0.4;"/>
   </g>
   <g id="line2d_29">
    <path clip-path="url(#p1aa912b4f1)" d="M 29.833397 49.301069 
L 29.677179 49.002871 
L 29.520962 48.704673 
L 29.364744 48.406475 
L 29.208526 48.108277 
L 29.123268 47.696435 
L 29.038011 47.284593 
L 28.952753 46.872751 
L 28.867495 46.460909 
L 28.881694 46.148495 
L 28.895892 45.836081 
L 28.910091 45.523666 
L 28.924289 45.211252 
L 28.938488 44.898838 
L 28.952687 44.586424 
L 28.966885 44.274009 
L 28.981084 43.961595 
L 29.236791 43.592316 
L 29.492498 43.223037 
L 29.748205 42.853758 
L 30.003913 42.484479 
" style="fill:none;stroke:#008000;stroke-linecap:square;stroke-width:0.4;"/>
   </g>
   <g id="line2d_30">
    <path clip-path="url(#p1aa912b4f1)" d="M 33.071869 36.178987 
L 33.068311 36.498531 
L 33.064753 36.818075 
L 33.061195 37.137618 
L 33.057638 37.457162 
L 33.05408 37.776706 
L 33.050522 38.09625 
L 33.046964 38.415793 
L 33.043406 38.735337 
L 33.039848 39.054881 
L 33.03629 39.374425 
L 33.032732 39.693968 
L 33.029174 40.013512 
L 33.025616 40.333056 
L 33.022058 40.6526 
L 33.0185 40.972143 
L 33.014942 41.291687 
L 33.100167 41.660923 
L 33.185392 42.03016 
L 33.270617 42.399396 
L 33.355841 42.768632 
L 33.441066 43.137868 
L 33.526291 43.507105 
L 33.611515 43.876341 
L 33.69674 44.245577 
L 33.767766 44.57574 
L 33.838792 44.905903 
L 33.909818 45.236066 
L 33.980844 45.566229 
L 34.051871 45.896392 
L 34.122897 46.226555 
L 34.193923 46.556719 
L 34.264949 46.886882 
L 34.335975 47.217045 
L 34.407001 47.547208 
L 34.478027 47.877371 
L 34.549053 48.207534 
L 34.620079 48.537697 
L 34.691105 48.86786 
L 34.762131 49.198023 
L 34.833158 49.528186 
L 34.838486 49.8406 
L 34.843815 50.153015 
L 34.849143 50.465429 
L 34.854472 50.777843 
L 34.859801 51.090257 
L 34.865129 51.402671 
L 34.870458 51.715086 
L 34.875786 52.0275 
L 34.881115 52.339914 
L 34.886444 52.652328 
L 34.891772 52.964743 
L 34.897101 53.277157 
L 34.90243 53.589571 
L 34.907758 53.901985 
L 34.913087 54.214399 
L 34.918415 54.526814 
L 34.923744 54.839228 
L 34.929073 55.151642 
L 34.934401 55.464056 
L 34.93973 55.77647 
L 34.945058 56.088885 
L 34.950387 56.401299 
L 34.955716 56.713713 
L 34.961044 57.026127 
L 34.966373 57.338542 
L 34.971702 57.650956 
L 34.97703 57.96337 
L 34.982359 58.275784 
L 34.987687 58.588198 
L 34.993016 58.900613 
L 34.998345 59.213027 
L 35.003673 59.525441 
L 34.996557 59.777501 
L 34.989441 60.02956 
L 34.982326 60.28162 
L 34.97521 60.533679 
L 34.968094 60.785739 
L 34.960978 61.037798 
L 34.953862 61.289858 
L 34.946746 61.541917 
L 34.939631 61.793977 
L 34.932515 62.046036 
L 34.925399 62.298096 
L 34.918283 62.550155 
L 34.911167 62.802215 
L 34.904051 63.054274 
L 34.896935 63.306334 
L 34.88982 63.558393 
L 34.81886 64.012798 
L 34.7479 64.467204 
L 34.67694 64.921609 
L 34.60598 65.376014 
" style="fill:none;stroke:#008000;stroke-linecap:square;stroke-width:0.4;"/>
   </g>
   <g id="line2d_31">
    <path clip-path="url(#p1aa912b4f1)" d="M 36.480857 11.807596 
L 36.310408 12.063231 
L 36.139958 12.318866 
L 35.969509 12.574501 
L 35.79906 12.830136 
L 35.557584 12.837244 
L 35.316109 12.844352 
L 35.074633 12.85146 
L 34.833158 12.858568 
L 34.591682 12.865676 
L 34.350207 12.872784 
L 34.108731 12.879892 
L 33.867256 12.887001 
L 33.600362 13.172952 
L 33.333468 13.458904 
L 33.066574 13.744855 
L 32.79968 14.030807 
L 32.538081 14.311191 
L 32.276483 14.591576 
L 32.07052 14.975029 
L 31.864558 15.358481 
L 31.658596 15.741934 
L 31.452633 16.125386 
L 31.246671 16.508839 
L 31.040708 16.892291 
L 30.834746 17.275744 
L 30.628783 17.659196 
L 30.522277 18.056865 
L 30.415771 18.454534 
L 30.309265 18.852202 
L 30.202759 19.249871 
L 30.096253 19.64754 
L 29.989747 20.045208 
L 29.883241 20.442877 
L 29.776735 20.840546 
L 29.854844 21.103332 
L 29.932953 21.366118 
L 30.011061 21.628903 
L 30.08917 21.891689 
L 30.167279 22.154475 
L 30.245388 22.417261 
L 30.323497 22.680047 
L 30.401606 22.942833 
L 30.508145 23.21975 
L 30.614684 23.496666 
L 30.721223 23.773582 
L 30.827762 24.050499 
L 30.934301 24.327415 
L 31.040841 24.604332 
L 31.14738 24.881248 
L 31.253919 25.158165 
L 31.410137 25.527444 
L 31.566354 25.896723 
L 31.722572 26.266002 
L 31.87879 26.635281 
L 32.035007 27.00456 
L 32.191225 27.373839 
L 32.347443 27.743118 
L 32.50366 28.112398 
L 32.567587 28.439049 
L 32.631514 28.765701 
L 32.695441 29.092353 
L 32.759368 29.419005 
L 32.823294 29.745657 
L 32.887221 30.072309 
L 32.951148 30.39896 
L 33.015075 30.725612 
L 33.079002 31.052264 
L 33.142928 31.378916 
L 33.206855 31.705568 
L 33.270782 32.03222 
L 33.334709 32.358871 
L 33.398636 32.685523 
L 33.462562 33.012175 
L 33.526489 33.338827 
" style="fill:none;stroke:#000000;stroke-linecap:square;stroke-width:0.4;"/>
   </g>
   <g id="line2d_32">
    <path clip-path="url(#p1aa912b4f1)" d="M 32.79968 14.030807 
L 32.597854 13.815851 
L 32.396029 13.600894 
L 32.194204 13.385938 
L 31.992378 13.170982 
L 31.836161 12.929564 
L 31.679943 12.688145 
L 31.523725 12.446726 
L 31.367508 12.205307 
L 31.310713 11.807596 
L 31.253919 11.409884 
L 31.282316 11.083254 
L 31.310713 10.756623 
L 31.33911 10.429993 
L 31.367508 10.103363 
L 31.424302 9.869009 
L 31.481096 9.634656 
L 31.537891 9.400302 
L 31.594685 9.165949 
L 31.65148 8.931595 
L 31.708274 8.697242 
L 31.765068 8.462888 
L 31.821863 8.228535 
L 31.957494 7.815922 
L 32.093126 7.403309 
L 32.228757 6.990696 
L 32.364388 6.578083 
" style="fill:none;stroke:#4169e1;stroke-linecap:square;stroke-width:0.4;"/>
   </g>
   <g id="line2d_33">
    <path clip-path="url(#p1aa912b4f1)" d="M 34.776231 8.853363 
L 36.097263 10.500903 
L 36.480857 11.807596 
L 37.503421 12.830136 
L 37.787526 14.477847 
L 39.450847 16.170518 
L 42.275739 19.931736 
L 43.469084 20.840546 
L 44.825365 25.229246 
L 45.911111 28.472085 
L 47.992745 32.863012 
L 49.434482 34.702214 
L 49.832175 37.087798 
L 48.127813 38.90576 
L 48.198839 41.334079 
L 48.866438 43.570949 
L 50.059352 46.006333 
L 50.059352 46.006333 
" style="fill:none;stroke:#4169e1;stroke-linecap:square;stroke-width:0.4;"/>
   </g>
   <g id="line2d_34">
    <path clip-path="url(#p1aa912b4f1)" d="M 30.912888 52.368347 
L 31.012311 52.638198 
L 31.111734 52.908049 
L 31.211158 53.1779 
L 31.310581 53.447751 
L 31.331895 53.682062 
L 31.35321 53.916373 
L 31.374524 54.150683 
L 31.395839 54.384994 
L 31.417153 54.619305 
L 31.438468 54.853615 
L 31.459782 55.087926 
L 31.481096 55.322237 
L 31.253125 55.653663 
L 31.025153 55.985089 
L 30.855961 56.231047 
L 30.855961 56.486682 
L 30.855961 56.742317 
L 30.855961 56.997952 
L 30.855961 57.253587 
L 31.02641 57.608564 
L 31.19686 57.963541 
L 31.367309 58.318518 
L 31.537758 58.673496 
L 31.672695 59.021408 
L 31.807631 59.36932 
L 31.942568 59.717231 
L 32.077504 60.065143 
L 32.21244 60.413055 
L 32.347377 60.760967 
L 32.482313 61.108879 
L 32.617249 61.456791 
" style="fill:none;stroke:#4169e1;stroke-linecap:square;stroke-width:0.4;"/>
   </g>
   <g id="line2d_35">
    <path clip-path="url(#p1aa912b4f1)" d="M 30.060575 59.696036 
L 29.861728 59.355189 
L 29.662881 59.014342 
L 29.634484 58.772924 
L 29.606087 58.531505 
L 29.57769 58.290086 
L 29.549293 58.048667 
L 29.63455 57.622695 
L 29.719808 57.196722 
L 29.975449 56.827443 
L 30.23109 56.458164 
L 30.628121 56.221626 
L 31.025153 55.985089 
" style="fill:none;stroke:#4169e1;stroke-linecap:square;stroke-width:0.4;"/>
   </g>
   <g id="line2d_36">
    <path clip-path="url(#p1aa912b4f1)" d="M 30.344679 44.358964 
L 30.770835 44.529388 
L 31.196992 44.699811 
L 31.623149 44.870234 
L 32.049305 45.040658 
L 32.290715 45.097522 
L 32.532124 45.154387 
L 32.773533 45.211252 
L 33.014942 45.268117 
L 33.014942 45.523666 
L 33.014942 45.779216 
L 32.702507 45.949639 
L 32.390072 46.120062 
L 32.077636 46.290486 
L 31.765201 46.460909 
L 31.452699 46.460909 
L 31.140198 46.460909 
L 30.827696 46.460909 
L 30.515194 46.460909 
L 30.628783 46.716458 
L 30.742372 46.972008 
L 31.054874 47.00044 
L 31.367375 47.028873 
L 31.679877 47.057305 
L 31.992378 47.085737 
L 32.333277 47.270377 
L 32.674176 47.455016 
L 33.015075 47.639656 
L 33.355974 47.824296 
L 33.597449 47.909507 
L 33.838925 47.994719 
L 34.0804 48.079931 
L 34.321876 48.165142 
" style="fill:none;stroke:#008000;stroke-linecap:square;stroke-width:0.4;"/>
   </g>
   <g id="line2d_37">
    <path clip-path="url(#p1aa912b4f1)" d="M 31.253919 48.221665 
L 31.207749 47.919891 
L 31.161578 47.618118 
L 31.115408 47.316344 
L 31.069238 47.014571 
L 31.023068 46.712797 
L 30.976897 46.411024 
L 30.930727 46.10925 
L 30.884557 45.807477 
L 30.838386 45.505703 
L 30.792216 45.20393 
L 30.746046 44.902156 
L 30.699876 44.600383 
L 30.653705 44.29861 
L 30.607535 43.996836 
L 30.561365 43.695063 
L 30.515194 43.393289 
" style="fill:none;stroke:#008000;stroke-linecap:square;stroke-width:0.4;"/>
   </g>
   <g id="line2d_38">
    <path clip-path="url(#p1aa912b4f1)" d="M 43.062918 18.289163 
L 43.334842 18.50095 
L 43.606767 18.712738 
L 43.878692 18.924525 
L 44.150617 19.136312 
L 44.392092 19.413272 
L 44.633568 19.690231 
L 44.875043 19.96719 
L 45.116519 20.24415 
L 45.357994 20.521109 
L 45.59947 20.798068 
L 45.840945 21.075028 
L 46.082421 21.351987 
L 46.220915 21.572124 
L 46.359409 21.792261 
L 46.497903 22.012399 
L 46.636398 22.232536 
L 46.774892 22.452673 
L 46.913386 22.672811 
L 47.05188 22.892948 
L 47.190375 23.113085 
L 47.328869 23.333222 
L 47.467363 23.55336 
L 47.605857 23.773497 
L 47.744352 23.993634 
L 47.882846 24.213771 
L 48.02134 24.433909 
L 48.159835 24.654046 
L 48.298329 24.874183 
L 48.454547 25.136926 
L 48.610764 25.399669 
L 48.766982 25.662412 
L 48.9232 25.925156 
L 49.079417 26.187899 
L 49.235635 26.450642 
L 49.391853 26.713385 
L 49.54807 26.976128 
L 49.725636 27.245979 
L 49.903201 27.51583 
L 50.080766 27.785681 
L 50.258331 28.055533 
L 50.435897 28.325384 
L 50.613462 28.595235 
L 50.791027 28.865086 
L 50.968592 29.134937 
L 51.011188 29.376356 
L 51.053784 29.617775 
L 51.09638 29.859194 
L 51.138976 30.100613 
L 51.181571 30.342031 
L 51.224167 30.58345 
L 51.266763 30.824869 
L 51.309359 31.066288 
L 51.309359 31.463999 
L 51.309359 31.861711 
" style="fill:none;stroke:#008000;stroke-linecap:square;stroke-width:0.4;"/>
   </g>
   <g id="line2d_39">
    <path clip-path="url(#p1aa912b4f1)" d="M 47.2755 27.941803 
L 47.50986 28.22587 
L 47.744219 28.509938 
L 47.978579 28.794005 
L 48.212939 29.078073 
L 48.447298 29.36214 
L 48.681658 29.646207 
L 48.916018 29.930275 
L 49.150377 30.214342 
L 49.42025 30.420263 
L 49.690123 30.626184 
L 49.959995 30.832105 
L 50.229868 31.038026 
L 50.499741 31.243948 
L 50.769613 31.449869 
L 51.039486 31.65579 
L 51.309359 31.861711 
L 51.536619 31.964671 
L 51.763879 32.067632 
L 51.99114 32.170592 
L 52.2184 32.273553 
L 52.445661 32.376513 
L 52.672921 32.479474 
L 52.900181 32.582434 
L 53.127442 32.685395 
L 53.354702 32.788355 
L 53.581962 32.891316 
L 53.809223 32.994276 
L 54.036483 33.097237 
L 54.263743 33.200197 
L 54.491004 33.303158 
L 54.718264 33.406118 
L 54.945524 33.509079 
L 55.353478 33.624436 
L 55.761431 33.739793 
L 56.169384 33.85515 
L 56.577337 33.970507 
" style="fill:none;stroke:#4169e1;stroke-linecap:square;stroke-width:0.4;"/>
   </g>
   <g id="line2d_40">
    <path clip-path="url(#p1aa912b4f1)" d="M 47.032965 30.959752 
L 47.320843 31.185241 
L 47.60872 31.410731 
L 47.896598 31.636221 
L 48.184475 31.861711 
L 48.518291 32.07474 
L 48.852107 32.287769 
L 49.185923 32.500798 
L 49.519739 32.713827 
L 49.853555 32.926856 
L 50.187372 33.139886 
L 50.521188 33.352915 
L 50.855004 33.565944 
L 51.007481 33.753624 
L 51.159959 33.941303 
L 51.312437 34.128983 
L 51.464915 34.316663 
L 51.617392 34.504343 
L 51.76987 34.692022 
L 51.922348 34.879702 
L 52.074826 35.067382 
L 52.323781 35.373716 
L 52.572736 35.680049 
L 52.821692 35.986383 
L 53.070647 36.292717 
L 53.226898 36.484422 
L 53.383149 36.676127 
L 53.5394 36.867832 
L 53.69565 37.059536 
L 53.851901 37.251241 
L 54.008152 37.442946 
L 54.164403 37.634651 
L 54.320654 37.826356 
L 54.562096 37.982563 
L 54.803538 38.13877 
L 55.044981 38.294977 
L 55.286423 38.451184 
L 55.527865 38.607391 
L 55.769308 38.763598 
L 56.01075 38.919805 
L 56.252193 39.076013 
L 56.472354 39.161224 
L 56.692515 39.246436 
L 56.912676 39.331647 
L 57.132837 39.416859 
L 57.352998 39.502071 
L 57.573159 39.587282 
L 57.79332 39.672494 
L 58.013481 39.757706 
L 58.280507 39.834439 
L 58.547534 39.911172 
L 58.81456 39.987906 
L 59.081586 40.064639 
" style="fill:none;stroke:#4169e1;stroke-linecap:square;stroke-width:0.4;"/>
   </g>
   <g id="line2d_41">
    <path clip-path="url(#p1aa912b4f1)" d="M 56.990917 49.982763 
L 57.310501 50.245463 
L 57.630086 50.508163 
L 57.94967 50.770863 
L 58.269254 51.033564 
L 58.588839 51.296264 
L 58.908423 51.558964 
L 59.228007 51.821665 
L 59.547592 52.084365 
L 59.845862 52.332892 
L 60.144132 52.581419 
L 60.442401 52.829945 
L 60.740671 53.078472 
L 61.038941 53.326999 
L 61.337211 53.575526 
L 61.635481 53.824053 
L 61.933751 54.07258 
L 62.260418 54.129359 
L 62.587085 54.186138 
L 62.913752 54.242917 
L 63.240419 54.299697 
L 63.573971 54.33087 
L 63.907522 54.362043 
L 64.241073 54.393215 
L 64.574624 54.424388 
" style="fill:none;stroke:#008000;stroke-linecap:square;stroke-width:0.4;"/>
   </g>
   <g id="line2d_42">
    <path clip-path="url(#p1aa912b4f1)" d="M 47.161911 65.887112 
L 47.14768 65.503703 
L 47.133448 65.120293 
L 47.119216 64.736883 
L 47.104985 64.353474 
L 47.218639 63.98428 
L 47.332294 63.615087 
L 47.445949 63.245893 
L 47.559604 62.8767 
L 47.644862 62.592718 
L 47.73012 62.308736 
L 47.815378 62.024755 
L 47.900636 61.740773 
L 48.049771 61.442575 
L 48.198906 61.144377 
L 48.34804 60.846179 
L 48.497175 60.547981 
L 48.64631 60.249783 
L 48.795445 59.951585 
L 48.94458 59.653387 
L 49.093715 59.355189 
L 49.17894 58.985953 
L 49.264165 58.616716 
L 49.349389 58.24748 
L 49.434614 57.878244 
L 49.519839 57.509008 
L 49.605063 57.139771 
L 49.690288 56.770535 
L 49.775513 56.401299 
L 49.796794 56.138599 
L 49.818076 55.875898 
L 49.839357 55.613198 
L 49.860638 55.350498 
L 49.88192 55.087798 
L 49.903201 54.825097 
L 49.924482 54.562397 
L 49.945764 54.299697 
L 50.038104 53.923395 
L 50.130445 53.547094 
L 50.222785 53.170792 
L 50.315126 52.794491 
L 50.407466 52.418189 
L 50.499807 52.041887 
L 50.592147 51.665586 
L 50.684488 51.289284 
L 50.790994 51.076255 
L 50.8975 50.863226 
L 51.004006 50.650197 
L 51.110512 50.437168 
L 51.217018 50.224139 
L 51.323524 50.011109 
L 51.43003 49.79808 
L 51.536536 49.585051 
L 51.714102 49.166144 
L 51.891667 48.747236 
L 52.069232 48.328329 
L 52.246797 47.909422 
L 52.424363 47.490514 
L 52.601928 47.071607 
L 52.779493 46.652699 
L 52.957058 46.233792 
L 52.900231 45.949767 
L 52.843403 45.665743 
L 52.786576 45.381718 
L 52.729748 45.097694 
L 52.672921 44.813669 
L 52.616093 44.529644 
L 52.559266 44.24562 
L 52.502438 43.961595 
L 52.417247 43.549753 
L 52.332055 43.137911 
L 52.246864 42.726069 
L 52.161672 42.314227 
L 52.289492 41.987596 
L 52.417313 41.660966 
L 52.545133 41.334336 
L 52.672954 41.007705 
L 52.687186 40.62421 
L 52.701417 40.240715 
L 52.715649 39.857219 
L 52.729881 39.473724 
" style="fill:none;stroke:#4169e1;stroke-linecap:square;stroke-width:0.4;"/>
   </g>
   <g id="line2d_43">
    <path clip-path="url(#p1aa912b4f1)" d="M 36.87855 8.796498 
L 37.08448 9.144496 
L 37.290409 9.492493 
L 37.496338 9.840491 
L 37.702268 10.188489 
L 37.908197 10.536486 
L 38.114126 10.884484 
L 38.320056 11.232481 
L 38.525985 11.580479 
L 38.696435 11.978105 
L 38.866884 12.375731 
L 39.037333 12.773356 
L 39.207783 13.170982 
L 39.392464 13.483482 
L 39.577145 13.795982 
L 39.761826 14.108482 
L 39.946507 14.420982 
L 40.116956 14.598513 
L 40.287406 14.776045 
L 40.457855 14.953576 
L 40.628305 15.131107 
L 40.798754 15.308639 
L 40.969203 15.48617 
L 41.139653 15.663702 
L 41.310102 15.841233 
L 41.636769 16.054305 
L 41.963436 16.267377 
L 42.290104 16.480449 
L 42.616771 16.693521 
L 42.716194 16.93494 
L 42.815617 17.176359 
L 42.91504 17.417777 
L 43.014464 17.659196 
L 43.038691 17.97418 
L 43.062918 18.289163 
L 43.093433 18.68559 
L 43.123949 19.082017 
L 43.154464 19.478444 
L 43.184979 19.874871 
L 43.256005 20.116289 
L 43.327032 20.357708 
L 43.398058 20.599127 
L 43.469084 20.840546 
" style="fill:none;stroke:#4169e1;stroke-linecap:square;stroke-width:0.4;"/>
   </g>
   <g id="line2d_44">
    <path clip-path="url(#p1aa912b4f1)" d="M 45.206278 56.85245 
L 45.019346 57.053018 
L 44.832414 57.253587 
L 44.633568 57.438183 
L 44.434721 57.62278 
L 44.235874 57.807377 
L 44.037028 57.991974 
L 43.838181 58.17657 
L 43.639335 58.361167 
L 43.440488 58.545764 
L 43.241641 58.730361 
L 43.056993 58.936239 
L 42.872345 59.142117 
L 42.687697 59.347995 
L 42.503049 59.553873 
L 42.318401 59.759752 
L 42.133753 59.96563 
L 41.949105 60.171508 
L 41.764457 60.377386 
L 41.537214 60.590415 
L 41.30997 60.803445 
L 41.082726 61.016474 
L 40.855482 61.229503 
L 40.628238 61.442532 
L 40.400995 61.655561 
L 40.173751 61.86859 
L 39.946507 62.08162 
L 39.662436 62.237827 
L 39.378364 62.394034 
L 39.094293 62.550241 
L 38.810222 62.706448 
L 38.526151 62.862655 
L 38.242079 63.018862 
L 37.958008 63.175069 
L 37.673937 63.331276 
" style="fill:none;stroke:#ff0000;stroke-linecap:square;stroke-width:0.4;"/>
   </g>
   <g id="line2d_45">
    <path clip-path="url(#p1aa912b4f1)" d="M 45.226136 58.634444 
L 44.972481 58.909519 
L 44.718825 59.184594 
L 44.548384 59.356773 
L 44.377943 59.528952 
L 44.207502 59.701131 
L 44.037061 59.87331 
L 43.86662 60.045489 
L 43.696179 60.217668 
L 43.525738 60.389847 
L 43.355296 60.562026 
L 43.184855 60.734205 
L 43.014414 60.906384 
L 42.843973 61.078563 
L 42.673532 61.250742 
L 42.503091 61.422921 
L 42.33265 61.595099 
L 42.162209 61.767278 
L 41.991767 61.939457 
L 41.821326 62.111636 
L 41.650885 62.283815 
L 41.480444 62.455994 
L 41.310003 62.628173 
L 41.139562 62.800352 
L 40.969121 62.972531 
L 40.79868 63.14471 
L 40.628238 63.316889 
L 40.457797 63.489068 
L 40.287356 63.661247 
L 40.116915 63.833426 
L 39.946474 64.005605 
L 39.776033 64.177784 
L 39.605592 64.349963 
L 39.435151 64.522141 
L 39.264709 64.69432 
" style="fill:none;stroke:#ff0000;stroke-linecap:square;stroke-width:0.4;"/>
   </g>
   <g id="line2d_46">
    <path clip-path="url(#p1aa912b4f1)" d="M 45.583848 59.11848 
L 45.463904 59.321961 
L 45.343961 59.525441 
L 45.358126 59.852071 
L 45.372292 60.178702 
L 45.386457 60.505332 
L 45.400623 60.831963 
L 45.372226 61.087598 
L 45.343829 61.343233 
L 45.315431 61.598868 
L 45.287034 61.854503 
L 45.315431 62.138484 
L 45.343829 62.422466 
L 45.372226 62.706448 
L 45.400623 62.99043 
L 45.329597 63.345407 
L 45.258571 63.700384 
L 45.187545 64.055361 
L 45.116519 64.410339 
L 44.931871 64.594935 
L 44.747223 64.779532 
L 44.562575 64.964129 
L 44.377927 65.148726 
L 44.193279 65.333322 
L 44.008631 65.517919 
L 43.823983 65.702516 
L 43.639335 65.887112 
L 43.355296 66.171094 
L 43.071258 66.455076 
L 42.78722 66.739058 
L 42.503182 67.02304 
" style="fill:none;stroke:#ff0000;stroke-linecap:square;stroke-width:0.4;"/>
   </g>
   <g id="line2d_47">
    <path clip-path="url(#p1aa912b4f1)" d="M 45.287034 61.854503 
L 45.116585 62.02484 
L 44.946135 62.195178 
L 44.775686 62.365516 
L 44.605237 62.535853 
L 44.292735 62.649497 
L 43.980233 62.763142 
L 43.667732 62.876786 
L 43.35523 62.99043 
L 43.113821 63.203416 
L 42.872412 63.416402 
L 42.631002 63.629389 
L 42.389593 63.842375 
L 42.105489 64.09801 
L 41.821384 64.353645 
L 41.53728 64.60928 
L 41.253175 64.864915 
L 40.983303 65.19146 
L 40.71343 65.518005 
L 40.443557 65.844549 
L 40.173685 66.171094 
" style="fill:none;stroke:#000000;stroke-linecap:square;stroke-width:0.4;"/>
   </g>
   <g id="line2d_48">
    <path clip-path="url(#p1aa912b4f1)" d="M 44.491648 63.331276 
L 44.2999 63.526514 
L 44.108153 63.721751 
L 43.916406 63.916989 
L 43.724659 64.112226 
L 43.532911 64.307464 
L 43.341164 64.502701 
L 43.149417 64.697939 
L 42.957669 64.893176 
L 42.765922 65.088414 
L 42.574175 65.283651 
L 42.382428 65.478889 
L 42.19068 65.674126 
L 41.998933 65.869364 
L 41.807186 66.064601 
L 41.615438 66.259838 
L 41.423691 66.455076 
" style="fill:none;stroke:#ff0000;stroke-linecap:square;stroke-width:0.4;"/>
   </g>
   <g id="line2d_49">
    <path clip-path="url(#p1aa912b4f1)" d="M 38.741777 15.393851 
L 38.659432 15.80398 
L 38.577087 16.214109 
L 38.494742 16.624238 
L 38.412396 17.034368 
L 38.391082 17.403647 
L 38.369767 17.772926 
L 38.348453 18.142205 
L 38.327139 18.511484 
L 38.305824 18.880763 
L 38.28451 19.250042 
L 38.263195 19.619321 
L 38.241881 19.9886 
" style="fill:none;stroke:#000000;stroke-linecap:square;stroke-width:0.4;"/>
   </g>
   <g id="line2d_50">
    <path clip-path="url(#p1aa912b4f1)" d="M 45.781106 28.182622 
L 45.572396 28.463264 
L 45.363687 28.743906 
L 45.154977 29.024548 
L 44.946268 29.30519 
L 44.740305 29.646036 
L 44.534343 29.986883 
L 44.32838 30.327729 
L 44.122418 30.668576 
L 43.916456 31.009423 
L 43.710493 31.350269 
L 43.504531 31.691116 
L 43.298568 32.031963 
L 43.057093 32.401242 
L 42.815617 32.770521 
L 42.574142 33.1398 
L 42.332666 33.509079 
L 42.148018 33.700827 
L 41.96337 33.892574 
L 41.778722 34.084322 
L 41.594074 34.27607 
L 41.409426 34.467817 
L 41.224778 34.659565 
L 41.04013 34.851313 
L 40.855482 35.04306 
L 40.628238 35.398037 
L 40.400995 35.753015 
L 40.173751 36.107992 
L 39.946507 36.462969 
L 39.719263 36.775469 
L 39.492019 37.087969 
L 39.264776 37.400469 
L 39.037532 37.712968 
L 38.824454 37.854959 
L 38.611375 37.99695 
L 38.398297 38.138941 
L 38.185219 38.280932 
L 37.815857 38.50822 
L 37.446494 38.735508 
" style="fill:none;stroke:#000000;stroke-linecap:square;stroke-width:0.4;"/>
   </g>
   <g id="line2d_51">
    <path clip-path="url(#p1aa912b4f1)" d="M 36.537519 63.558393 
L 36.636942 63.139486 
L 36.736366 62.720579 
L 36.835789 62.301671 
L 36.935212 61.882764 
L 37.034636 61.463856 
L 37.134059 61.044949 
L 37.233482 60.626042 
L 37.332906 60.207134 
L 37.450085 59.813062 
L 37.567265 59.418991 
L 37.684445 59.024919 
L 37.801625 58.630847 
L 37.918805 58.236775 
L 38.035984 57.842703 
L 38.153164 57.448632 
L 38.270344 57.05456 
L 38.387524 56.660488 
L 38.504704 56.266416 
L 38.621884 55.872344 
L 38.739063 55.478272 
L 38.856243 55.084201 
L 38.973423 54.690129 
L 39.090603 54.296057 
L 39.207783 53.901985 
L 39.280579 53.642828 
L 39.353376 53.383671 
L 39.426173 53.124514 
L 39.49897 52.865357 
L 39.571767 52.606201 
L 39.644563 52.347044 
L 39.71736 52.087887 
L 39.790157 51.82873 
L 39.862954 51.569573 
L 39.935751 51.310416 
L 40.008547 51.051259 
L 40.081344 50.792102 
L 40.154141 50.532945 
L 40.226938 50.273788 
L 40.299734 50.014631 
L 40.372531 49.755474 
L 40.445328 49.496317 
L 40.518125 49.237161 
L 40.590922 48.978004 
L 40.663718 48.718847 
L 40.736515 48.45969 
L 40.809312 48.200533 
L 40.882109 47.941376 
L 40.954906 47.682219 
L 41.027702 47.423062 
L 41.100499 47.163905 
L 41.173296 46.904748 
L 41.246093 46.645591 
L 41.318889 46.386434 
L 41.391686 46.127277 
L 41.464483 45.868121 
L 41.53728 45.608964 
L 41.608298 45.383517 
L 41.679315 45.15807 
L 41.750333 44.932623 
L 41.821351 44.707176 
L 41.892369 44.481729 
L 41.963387 44.256282 
L 42.034405 44.030835 
L 42.105422 43.805388 
L 42.17644 43.579941 
L 42.247458 43.354494 
L 42.318476 43.129047 
L 42.389494 42.9036 
L 42.460512 42.678154 
L 42.531529 42.452707 
L 42.602547 42.22726 
L 42.673565 42.001813 
L 42.744583 41.776366 
L 42.815601 41.550919 
L 42.886618 41.325472 
L 42.957636 41.100025 
L 43.028654 40.874578 
L 43.099672 40.649131 
L 43.17069 40.423684 
L 43.241708 40.198237 
L 43.312725 39.97279 
L 43.383743 39.747343 
L 43.454761 39.521896 
L 43.525779 39.29645 
L 43.596797 39.071003 
L 43.667815 38.845556 
L 43.738832 38.620109 
L 43.80985 38.394662 
L 43.880868 38.156776 
L 43.951886 37.91889 
L 44.022904 37.681003 
L 44.093921 37.443117 
L 44.164939 37.205231 
L 44.235957 36.967345 
L 44.306975 36.729459 
L 44.377993 36.491573 
L 44.449011 36.253687 
L 44.520028 36.015801 
L 44.591046 35.777914 
L 44.662064 35.540028 
L 44.733082 35.302142 
L 44.8041 35.064256 
L 44.875118 34.82637 
L 44.946135 34.588484 
L 45.017153 34.350598 
L 45.088171 34.112712 
L 45.159189 33.874825 
L 45.230207 33.636939 
L 45.301224 33.399053 
L 45.372242 33.161167 
L 45.44326 32.923281 
L 45.514278 32.685395 
L 45.585296 32.447509 
L 45.656314 32.209623 
L 45.727331 31.971736 
L 45.798349 31.73385 
L 45.869367 31.495964 
L 45.940385 31.258078 
L 46.011403 31.020192 
L 46.082421 30.782306 
" style="fill:none;stroke:#000000;stroke-linecap:square;stroke-width:0.4;"/>
   </g>
   <g id="line2d_52">
    <path clip-path="url(#p1aa912b4f1)" d="M 34.094433 9.421669 
L 34.08735 9.762516 
L 34.080268 10.103363 
L 34.073185 10.444209 
L 34.066102 10.785056 
L 34.059019 11.125902 
L 34.051937 11.466749 
L 34.044854 11.807596 
L 34.037771 12.148442 
L 34.044854 12.58876 
L 34.051937 13.029077 
L 34.059019 13.469394 
L 34.066102 13.909712 
L 34.073185 14.350029 
L 34.080268 14.790346 
L 34.08735 15.230664 
L 34.094433 15.670981 
L 34.073135 15.940832 
L 34.051837 16.210684 
L 34.03054 16.480535 
L 34.009242 16.750386 
L 33.987944 17.020237 
L 33.966646 17.290088 
L 33.945348 17.55994 
L 33.92405 17.829791 
L 33.902752 18.099642 
L 33.881454 18.369493 
L 33.860156 18.639344 
L 33.838858 18.909196 
L 33.817561 19.179047 
L 33.796263 19.448898 
L 33.774965 19.718749 
L 33.753667 19.9886 
L 33.746551 20.414659 
L 33.739435 20.840717 
L 33.732319 21.266775 
L 33.725203 21.692834 
L 33.718088 22.118892 
L 33.710972 22.54495 
L 33.703856 22.971009 
L 33.69674 23.397067 
L 33.710939 23.780562 
L 33.725137 24.164057 
L 33.739336 24.547553 
L 33.753534 24.931048 
L 33.767733 25.314543 
L 33.781932 25.698039 
L 33.79613 26.081534 
L 33.810329 26.465029 
L 33.789047 26.69934 
L 33.767766 26.933651 
L 33.746485 27.167961 
L 33.725203 27.402272 
L 33.703922 27.636582 
L 33.682641 27.870893 
L 33.661359 28.105204 
L 33.640078 28.339514 
" style="fill:none;stroke:#ff0000;stroke-linecap:square;stroke-width:0.4;"/>
   </g>
   <g id="line2d_53">
    <path clip-path="url(#p1aa912b4f1)" d="M 45.336282 55.90493 
L 45.095767 56.172897 
L 44.855251 56.440864 
L 44.614735 56.708832 
L 44.37422 56.976799 
L 44.133704 57.244766 
L 43.893188 57.512733 
L 43.652673 57.7807 
L 43.412157 58.048667 
L 43.049977 58.268762 
L 42.687797 58.488856 
L 42.325617 58.708951 
L 41.963436 58.929045 
L 41.601256 59.149139 
L 41.239076 59.369234 
L 40.876896 59.589328 
L 40.514716 59.809423 
L 40.294555 59.915959 
L 40.074394 60.022495 
L 39.854233 60.129031 
L 39.634072 60.235567 
L 39.413911 60.342103 
L 39.19375 60.448639 
L 38.973589 60.555175 
L 38.753427 60.661711 
L 38.568779 60.853415 
L 38.384131 61.04512 
L 38.199483 61.236825 
L 38.014836 61.42853 
L 37.830188 61.620235 
L 37.64554 61.81194 
L 37.460892 62.003644 
L 37.276244 62.195349 
" style="fill:none;stroke:#000000;stroke-linecap:square;stroke-width:0.4;"/>
   </g>
   <g id="line2d_54">
    <path clip-path="url(#p1aa912b4f1)" d="M 47.900636 61.740773 
L 47.786981 61.527787 
L 47.673326 61.3148 
L 47.559671 61.101814 
L 47.446016 60.888828 
L 47.261368 60.73262 
L 47.07672 60.576413 
L 46.892072 60.420206 
L 46.707424 60.263999 
L 46.522776 60.107792 
L 46.338128 59.951585 
L 46.15348 59.795378 
L 45.968832 59.639171 
L 45.77634 59.378826 
L 45.583848 59.11848 
L 45.404992 58.876462 
L 45.226136 58.634444 
L 45.00293 58.332649 
L 45.053767 57.962599 
L 45.104604 57.592549 
L 45.155441 57.222499 
L 45.206278 56.85245 
L 45.238779 56.61557 
L 45.27128 56.37869 
L 45.303781 56.14181 
L 45.336282 55.90493 
L 45.368453 55.670448 
L 45.400623 55.435966 
L 45.535559 55.151942 
L 45.670496 54.867917 
L 45.805432 54.583893 
L 45.940368 54.299868 
L 46.075305 54.015843 
L 46.210241 53.731819 
L 46.345177 53.447794 
L 46.480114 53.16377 
L 46.522743 52.837139 
L 46.565372 52.510509 
L 46.608 52.183878 
L 46.650629 51.857248 
L 46.792681 51.516401 
L 46.934734 51.175555 
L 47.076786 50.834708 
L 47.218838 50.493861 
L 47.367973 50.295048 
L 47.517108 50.096235 
L 47.666243 49.897422 
L 47.815378 49.69861 
L 47.964513 49.499797 
L 48.113648 49.300984 
L 48.262783 49.102171 
L 48.411918 48.903358 
L 48.617847 48.54123 
L 48.823776 48.179101 
L 49.029706 47.816973 
L 49.235635 47.454845 
L 49.441564 47.092717 
L 49.647494 46.730589 
L 49.853423 46.368461 
L 50.059352 46.006333 
" style="fill:none;stroke:#008000;stroke-linecap:square;stroke-width:0.4;"/>
   </g>
   <g id="line2d_55">
    <path clip-path="url(#p1aa912b4f1)" d="M 48.127813 38.90576 
L 47.701657 38.990886 
L 47.2755 39.076013 
L 46.991429 39.154159 
L 46.707358 39.232305 
L 46.423286 39.310452 
L 46.139215 39.388598 
L 45.855144 39.466744 
L 45.571072 39.544891 
L 45.287001 39.623037 
L 45.00293 39.701183 
L 44.662031 39.757963 
L 44.321132 39.814742 
L 43.980233 39.871521 
L 43.639335 39.9283 
L 43.298436 39.98508 
L 42.957537 40.041859 
L 42.616638 40.098638 
L 42.275739 40.155417 
L 41.984585 40.361338 
L 41.693431 40.567259 
L 41.402277 40.77318 
L 41.111123 40.979101 
L 40.819969 41.185023 
L 40.528815 41.390944 
L 40.237661 41.596865 
L 39.946507 41.802786 
L 39.740545 41.944819 
L 39.534582 42.086853 
L 39.32862 42.228887 
L 39.122657 42.370921 
L 38.916695 42.512954 
L 38.710732 42.654988 
L 38.50477 42.797022 
L 38.298808 42.939055 
L 38.092845 43.102371 
L 37.886883 43.265686 
L 37.68092 43.429001 
L 37.474958 43.592316 
L 37.268995 43.755631 
L 37.063033 43.918947 
L 36.85707 44.082262 
L 36.651108 44.245577 
" style="fill:none;stroke:#000000;stroke-linecap:square;stroke-width:0.4;"/>
   </g>
   <g id="line2d_56">
    <path clip-path="url(#p1aa912b4f1)" d="M 48.127813 41.064228 
L 47.914735 41.206304 
L 47.701657 41.348381 
L 47.488578 41.490457 
L 47.2755 41.632534 
L 46.962999 41.859736 
L 46.650497 42.086939 
L 46.337995 42.314141 
L 46.025494 42.541344 
L 45.670429 42.782763 
L 45.315365 43.024181 
L 44.960301 43.2656 
L 44.605237 43.507019 
L 44.321165 43.606447 
L 44.037094 43.705875 
L 43.753023 43.805303 
L 43.468951 43.90473 
L 43.18488 44.004158 
L 42.900809 44.103586 
L 42.616738 44.203014 
L 42.332666 44.302442 
L 42.091191 44.33794 
L 41.849715 44.373437 
L 41.60824 44.408935 
L 41.366764 44.444433 
L 41.125289 44.479931 
L 40.883813 44.515428 
L 40.642338 44.550926 
L 40.400862 44.586424 
L 40.180734 44.692917 
L 39.960606 44.79941 
L 39.740478 44.905903 
L 39.52035 45.012396 
L 39.300223 45.11889 
L 39.080095 45.225383 
L 38.859967 45.331876 
L 38.639839 45.438369 
L 38.412529 45.807562 
L 38.185219 46.176756 
L 37.957909 46.545949 
L 37.730599 46.915143 
L 37.375534 47.19921 
L 37.02047 47.483278 
L 36.665406 47.767345 
L 36.310342 48.051412 
" style="fill:none;stroke:#000000;stroke-linecap:square;stroke-width:0.4;"/>
   </g>
   <g id="line2d_57">
    <path clip-path="url(#p1aa912b4f1)" d="M 40.180039 17.158374 
L 40.008796 17.583148 
L 39.837552 18.007922 
L 39.666308 18.432695 
L 39.495064 18.857469 
L 39.323821 19.282243 
L 39.152577 19.707017 
L 38.981333 20.13179 
L 38.810089 20.556564 
L 38.724865 20.890345 
L 38.63964 21.224127 
L 38.554415 21.557908 
L 38.469191 21.891689 
L 38.383966 22.225471 
L 38.298741 22.559252 
L 38.213517 22.893033 
L 38.128292 23.226815 
L 38.156706 23.486004 
L 38.185119 23.745193 
L 38.213533 24.004382 
L 38.241947 24.263571 
L 38.270361 24.52276 
L 38.298774 24.781949 
L 38.327188 25.041138 
L 38.355602 25.300327 
L 38.384016 25.559516 
L 38.412429 25.818705 
L 38.440843 26.077894 
L 38.469257 26.337083 
L 38.497671 26.596272 
L 38.526084 26.855461 
L 38.554498 27.11465 
L 38.582912 27.373839 
L 38.655328 27.757849 
L 38.727744 28.141858 
L 38.780666 28.4222 
L 38.833588 28.702542 
L 38.88651 28.982884 
L 38.939432 29.263226 
L 38.992355 29.543568 
L 39.045277 29.82391 
L 39.098199 30.104252 
L 39.151121 30.384594 
L 39.101409 30.626035 
L 39.051697 30.867475 
L 39.001986 31.108915 
L 38.952274 31.350355 
L 38.902562 31.591795 
L 38.852851 31.833235 
L 38.803139 32.074676 
L 38.753427 32.316116 
L 38.703716 32.557556 
L 38.654004 32.798996 
L 38.604293 33.040436 
L 38.554581 33.281876 
L 38.504869 33.523317 
L 38.455158 33.764757 
L 38.405446 34.006197 
L 38.355734 34.247637 
L 38.298907 34.545878 
L 38.242079 34.844119 
L 38.185252 35.14236 
L 38.128424 35.4406 
L 38.071597 35.738841 
L 38.014769 36.037082 
L 37.957942 36.335323 
L 37.901114 36.633564 
L 37.844287 36.896307 
L 37.787459 37.15905 
L 37.730632 37.421793 
L 37.673804 37.684536 
L 37.616977 37.947279 
L 37.560149 38.210022 
L 37.503322 38.472765 
L 37.446494 38.735508 
L 37.36127 39.076312 
L 37.276045 39.417116 
L 37.19082 39.75792 
L 37.105596 40.098724 
L 37.020371 40.439528 
L 36.935146 40.780331 
L 36.849921 41.121135 
L 36.764697 41.461939 
L 36.679505 41.746006 
L 36.594314 42.030074 
L 36.509122 42.314141 
L 36.42393 42.598209 
" style="fill:none;stroke:#000000;stroke-linecap:square;stroke-width:0.4;"/>
   </g>
   <g id="line2d_58">
    <path clip-path="url(#p1aa912b4f1)" d="M 38.727744 28.141858 
L 38.652813 28.429308 
L 38.577881 28.716758 
L 38.50295 29.004208 
L 38.428018 29.291658 
L 38.353087 29.579109 
L 38.278155 29.866559 
L 38.203223 30.154009 
L 38.128292 30.441459 
L 37.901048 30.824955 
L 37.673804 31.20845 
L 37.446561 31.591945 
L 37.219317 31.97544 
L 36.977841 32.216859 
L 36.736366 32.458278 
L 36.49489 32.699697 
L 36.253415 32.941115 
L 36.047485 33.054717 
L 35.841556 33.168318 
L 35.635627 33.281919 
L 35.429697 33.395521 
L 35.223768 33.509122 
L 35.017839 33.622723 
L 34.811909 33.736324 
L 34.60598 33.849926 
" style="fill:none;stroke:#000000;stroke-linecap:square;stroke-width:0.4;"/>
   </g>
   <g id="line2d_59">
    <path clip-path="url(#p1aa912b4f1)" d="M 53.68175 67.141908 
L 53.711901 66.885673 
L 53.742052 66.629439 
L 53.772204 66.373204 
L 53.802355 66.11697 
L 53.832506 65.860735 
L 53.862658 65.604501 
L 53.892809 65.348266 
L 53.92296 65.092032 
L 53.939906 64.700144 
L 53.959764 64.242827 
L 53.979622 63.78551 
L 53.83757 63.359538 
L 53.695518 62.933565 
L 53.553466 62.507592 
L 53.411414 62.08162 
L 53.439844 61.811811 
L 53.468274 61.542003 
L 53.496704 61.272194 
L 53.525135 61.002386 
L 53.553565 60.732578 
L 53.581995 60.462769 
L 53.610426 60.192961 
L 53.638856 59.923152 
L 53.699225 59.660452 
L 53.759594 59.397752 
L 53.819963 59.135052 
L 53.880331 58.872351 
L 53.9407 58.609651 
L 54.001069 58.346951 
L 54.061438 58.084251 
L 54.121807 57.82155 
L 54.182176 57.55885 
L 54.242545 57.29615 
L 54.302914 57.03345 
L 54.363282 56.770749 
L 54.423651 56.508049 
L 54.48402 56.245349 
L 54.544389 55.982648 
L 54.604758 55.719948 
L 54.611841 55.364928 
L 54.618923 55.009908 
L 54.626006 54.654888 
L 54.633089 54.299868 
L 54.640172 53.944848 
L 54.647254 53.589828 
L 54.654337 53.234808 
L 54.66142 52.879788 
L 54.633023 52.567374 
L 54.604626 52.254959 
L 54.576228 51.942545 
L 54.547831 51.630131 
L 54.519434 51.317717 
L 54.491037 51.005303 
L 54.46264 50.692888 
L 54.434242 50.380474 
L 54.3561 50.09645 
L 54.277958 49.812425 
L 54.199816 49.5284 
L 54.121675 49.244376 
L 54.043533 48.960351 
L 53.965391 48.676327 
L 53.887249 48.392302 
L 53.809107 48.108277 
L 53.702601 47.873967 
L 53.596095 47.639656 
L 53.489589 47.405345 
L 53.383083 47.171035 
L 53.276576 46.936724 
L 53.17007 46.702413 
L 53.063564 46.468103 
L 52.957058 46.233792 
" style="fill:none;stroke:#000000;stroke-linecap:square;stroke-width:0.4;"/>
   </g>
   <g id="line2d_60">
    <path clip-path="url(#p1aa912b4f1)" d="M 50.968592 32.429674 
L 51.057358 32.653366 
L 51.146125 32.877057 
L 51.234891 33.100748 
L 51.323657 33.324439 
L 51.412423 33.548131 
L 51.501189 33.771822 
L 51.589955 33.995513 
L 51.678721 34.219205 
L 51.767487 34.442896 
L 51.856253 34.666587 
L 51.945019 34.890279 
L 52.033785 35.11397 
L 52.122551 35.337661 
L 52.211317 35.561353 
L 52.300083 35.785044 
L 52.38885 36.008735 
L 52.417247 36.321149 
L 52.445644 36.633564 
L 52.474041 36.945978 
L 52.502438 37.258392 
L 52.530836 37.570806 
L 52.559233 37.883221 
L 52.58763 38.195635 
L 52.616027 38.508049 
L 52.644491 38.749468 
L 52.672954 38.990886 
L 52.701417 39.232305 
L 52.729881 39.473724 
L 52.829304 39.779073 
L 52.928727 40.084422 
L 53.028151 40.389771 
L 53.127574 40.69512 
L 53.226997 41.000469 
L 53.326421 41.305818 
L 53.425844 41.611166 
L 53.525267 41.916515 
L 53.738312 42.264427 
L 53.951358 42.612339 
L 54.164403 42.960251 
L 54.377448 43.308163 
L 54.590493 43.656075 
L 54.803538 44.003987 
L 55.016583 44.351899 
L 55.229629 44.699811 
L 55.361007 44.948338 
L 55.492386 45.196865 
L 55.623764 45.445392 
L 55.755142 45.693918 
L 55.886521 45.942445 
L 56.017899 46.190972 
L 56.149278 46.439499 
L 56.280656 46.688026 
L 56.412034 46.936553 
L 56.543413 47.18508 
L 56.674791 47.433607 
L 56.80617 47.682133 
L 56.937548 47.93066 
L 57.068927 48.179187 
L 57.200305 48.427714 
L 57.331683 48.676241 
L 57.246492 49.002871 
L 57.1613 49.329502 
L 57.076109 49.656132 
L 56.990917 49.982763 
L 56.898593 50.263233 
L 56.806269 50.543704 
L 56.713945 50.824174 
L 56.621621 51.104645 
L 56.529297 51.385115 
L 56.436973 51.665586 
L 56.344649 51.946056 
L 56.252325 52.226527 
L 56.160001 52.506997 
L 56.067677 52.787468 
L 55.975353 53.067939 
L 55.883029 53.348409 
L 55.790705 53.62888 
L 55.698381 53.90935 
L 55.606057 54.189821 
L 55.513733 54.470291 
" style="fill:none;stroke:#008000;stroke-linecap:square;stroke-width:0.4;"/>
   </g>
   <g id="line2d_61">
    <path clip-path="url(#p1aa912b4f1)" d="M 46.362553 68.626218 
L 46.462473 68.28383 
L 46.562393 67.941441 
L 46.662313 67.599053 
L 46.762232 67.256665 
L 46.862152 66.914277 
L 46.962072 66.571889 
L 47.061992 66.229501 
L 47.161911 65.887112 
L 47.339443 65.624412 
L 47.516976 65.361712 
L 47.694508 65.099012 
L 47.87204 64.836311 
L 48.049572 64.573611 
L 48.227104 64.310911 
L 48.404636 64.04821 
L 48.582168 63.78551 
L 48.729649 63.5512 
L 48.877129 63.316889 
L 49.11589 62.937076 
L 49.354652 62.557263 
L 49.593413 62.177451 
L 49.832175 61.797638 
L 49.960028 61.563327 
L 50.087882 61.329016 
L 50.215736 61.094706 
L 50.343589 60.860395 
L 50.471443 60.626084 
L 50.599296 60.391774 
L 50.72715 60.157463 
L 50.855004 59.923152 
L 51.068049 59.738556 
L 51.281094 59.553959 
L 51.494139 59.369362 
L 51.707184 59.184766 
L 51.92023 59.000169 
L 52.133275 58.815572 
L 52.34632 58.630975 
L 52.559365 58.446379 
L 52.736897 58.247566 
L 52.914429 58.048753 
L 53.091962 57.84994 
L 53.269494 57.651127 
L 53.447026 57.452314 
L 53.624558 57.253501 
L 53.80209 57.054688 
L 53.979622 56.855875 
L 54.114559 56.657062 
L 54.249495 56.458249 
L 54.384431 56.259436 
L 54.519368 56.060624 
L 54.654304 55.861811 
L 54.78924 55.662998 
L 54.924177 55.464185 
L 55.059113 55.265372 
L 55.286423 54.867832 
L 55.513733 54.470291 
" style="fill:none;stroke:#4169e1;stroke-linecap:square;stroke-width:0.4;"/>
   </g>
   <g id="line2d_62">
    <path clip-path="url(#p1aa912b4f1)" d="M 62.135775 61.62533 
L 61.985846 61.412772 
L 61.835916 61.200214 
L 61.685987 60.987656 
L 61.536058 60.775098 
L 61.379807 60.533722 
L 61.223556 60.292346 
L 61.067305 60.05097 
L 60.911055 59.809594 
L 60.754804 59.568218 
L 60.598553 59.326842 
L 60.442302 59.085466 
L 60.286051 58.84409 
L 60.129834 58.595563 
L 59.973616 58.347037 
L 59.817398 58.09851 
L 59.661181 57.849983 
L 59.504963 57.601456 
L 59.348745 57.352929 
L 59.192527 57.104402 
L 59.03631 56.855875 
L 58.809 56.500898 
L 58.58169 56.145921 
L 58.35438 55.790944 
L 58.12707 55.435966 
L 57.800403 55.315257 
L 57.473736 55.194548 
L 57.147069 55.073838 
L 56.820401 54.953129 
L 56.493734 54.832419 
L 56.167067 54.71171 
L 55.8404 54.591001 
L 55.513733 54.470291 
" style="fill:none;stroke:#008000;stroke-linecap:square;stroke-width:0.4;"/>
   </g>
   <g id="line2d_63">
    <path clip-path="url(#p1aa912b4f1)" d="M 53.939906 64.700144 
L 53.694194 64.613476 
L 53.448482 64.526809 
L 53.20277 64.440141 
L 52.957058 64.353474 
L 52.702063 64.288687 
L 52.447067 64.223901 
L 52.192072 64.159114 
L 51.937076 64.094328 
L 51.68208 64.029541 
L 51.427085 63.964754 
L 51.172089 63.899968 
L 50.917094 63.835181 
L 50.662098 63.770395 
L 50.407102 63.705608 
L 50.152107 63.640822 
L 49.897111 63.576035 
L 49.642115 63.511249 
L 49.38712 63.446462 
L 49.132124 63.381675 
L 48.877129 63.316889 
" style="fill:none;stroke:#008000;stroke-linecap:square;stroke-width:0.4;"/>
   </g>
  </g>
 </g>
 <defs>
  <clipPath id="p1aa912b4f1">
   <rect height="72" width="68.870929" x="0" y="0"/>
  </clipPath>
 </defs>
</svg>
