<?xml version="1.0" encoding="utf-8" standalone="no"?>
<!DOCTYPE svg PUBLIC "-//W3C//DTD SVG 1.1//EN"
  "http://www.w3.org/Graphics/SVG/1.1/DTD/svg11.dtd">
<svg height="72pt" version="1.1" viewBox="0 0 36.605085 72" width="36.605085pt" xmlns="http://www.w3.org/2000/svg" xmlns:xlink="http://www.w3.org/1999/xlink">
 <metadata>
  <rdf:RDF xmlns:cc="http://creativecommons.org/ns#" xmlns:dc="http://purl.org/dc/elements/1.1/" xmlns:rdf="http://www.w3.org/1999/02/22-rdf-syntax-ns#">
   <cc:Work>
    <dc:type rdf:resource="http://purl.org/dc/dcmitype/StillImage"/>
    <dc:date>2022-05-18T23:23:18.058725</dc:date>
    <dc:format>image/svg+xml</dc:format>
    <dc:creator>
     <cc:Agent>
      <dc:title>Matplotlib v3.4.3, https://matplotlib.org/</dc:title>
     </cc:Agent>
    </dc:creator>
   </cc:Work>
  </rdf:RDF>
 </metadata>
 <defs>
  <style type="text/css">*{stroke-linecap:butt;stroke-linejoin:round;}</style>
 </defs>
 <g id="figure_1">
  <g id="patch_1">
   <path d="M 0 72 
L 36.605085 72 
L 36.605085 0 
L 0 0 
z
" style="fill:#ffffff;"/>
  </g>
  <g id="axes_1">
   <g id="line2d_1">
    <path clip-path="url(#p0b24c9d8a5)" d="M 15.510249 29.183012 
L 15.371969 28.679165 
L 15.233688 28.175318 
L 15.0272 27.423262 
L 14.820712 26.671207 
L 14.615603 25.923843 
L 14.410493 25.17648 
L 14.179269 24.3339 
L 13.948044 23.491321 
L 13.757128 22.795769 
L 13.566211 22.100218 
L 13.377809 21.413807 
L 13.189407 20.727397 
L 13.001005 20.040986 
L 12.812603 19.354575 
L 12.694436 18.924145 
L 12.576269 18.493714 
L 12.458102 18.063284 
L 12.339935 17.632854 
L 12.210008 17.15941 
L 12.080081 16.685965 
L 11.950154 16.212521 
L 11.820227 15.739077 
L 11.636124 15.068357 
L 11.45202 14.397636 
L 11.315321 13.899606 
L 11.178622 13.401576 
L 11.041923 12.903545 
L 10.905224 12.405515 
L 10.772215 11.92078 
L 10.639206 11.436045 
L 10.506197 10.95131 
L 10.373188 10.466574 
L 10.167511 9.717256 
L 9.961834 8.967938 
L 9.819823 8.450502 
L 9.677812 7.933067 
L 9.535801 7.415632 
L 9.393789 6.898196 
L 9.245209 6.35681 
" style="fill:none;stroke:#808080;stroke-linecap:square;stroke-width:0.4;"/>
   </g>
   <g id="line2d_2">
    <path clip-path="url(#p0b24c9d8a5)" d="M 11.350966 68.319816 
L 11.243261 67.803749 
L 11.135556 67.287682 
L 11.000358 66.640081 
L 10.865159 65.992481 
L 10.72996 65.34488 
L 10.594762 64.697279 
L 10.488882 64.19006 
L 10.383002 63.68284 
L 10.277122 63.175621 
L 10.171242 62.668401 
L 10.066173 62.165043 
L 9.961104 61.661685 
L 9.856036 61.158327 
L 9.750967 60.654968 
L 9.645898 60.15161 
L 9.540829 59.648252 
L 9.43576 59.144894 
L 9.330691 58.641536 
L 9.240038 58.207171 
L 9.149386 57.772806 
L 9.058733 57.33844 
L 8.96808 56.904075 
L 8.877427 56.46971 
L 8.786774 56.035345 
L 8.696121 55.60098 
L 8.605469 55.166615 
L 8.491235 54.619265 
L 8.377002 54.071916 
L 8.262768 53.524567 
L 8.148535 52.977217 
L 8.024001 52.380646 
L 7.899468 51.784076 
L 7.774934 51.187505 
L 7.6504 50.590934 
L 7.543791 50.080195 
L 7.437181 49.569456 
L 7.330571 49.058717 
L 7.223961 48.547978 
L 7.100482 47.956393 
L 6.977003 47.364808 
L 6.853523 46.773223 
L 6.730044 46.181638 
L 6.610336 45.607991 
L 6.490628 45.034345 
L 6.37092 44.460699 
L 6.251212 43.887052 
L 6.132944 43.320395 
L 6.014676 42.753739 
L 5.896407 42.187082 
L 5.778139 41.620425 
L 5.65987 41.053768 
L 5.541602 40.487112 
L 5.423334 39.920455 
L 5.305065 39.353798 
L 5.12599 38.49587 
L 4.946915 37.637942 
L 4.767839 36.780014 
L 4.588764 35.922087 
L 4.486818 35.433539 
L 4.384871 34.944991 
L 4.282925 34.456443 
L 4.180979 33.967896 
" style="fill:none;stroke:#808080;stroke-linecap:square;stroke-width:0.4;"/>
   </g>
   <g id="line2d_3">
    <path clip-path="url(#p0b24c9d8a5)" d="M 12.023309 68.283841 
L 11.928094 67.617128 
L 11.848289 67.058488 
L 11.768484 66.499847 
L 11.688678 65.941206 
L 11.608873 65.382566 
L 11.492815 64.569705 
L 11.376756 63.756843 
L 11.289814 63.148297 
L 11.202872 62.539751 
L 11.092977 61.769806 
L 10.983083 60.99986 
L 10.895654 60.387892 
L 10.808225 59.775925 
L 10.692653 58.966876 
L 10.577081 58.157827 
L 10.466295 57.381821 
L 10.355508 56.605814 
L 10.270755 56.012421 
L 10.186003 55.419027 
L 10.10125 54.825633 
L 10.016498 54.23224 
L 9.931745 53.638846 
L 9.846993 53.045453 
L 9.76224 52.452059 
L 9.677487 51.858665 
L 9.570675 51.110715 
L 9.463862 50.362766 
L 9.370026 49.70534 
L 9.27619 49.047915 
L 9.181381 48.384135 
L 9.086571 47.720356 
" style="fill:none;stroke:#808080;stroke-linecap:square;stroke-width:0.4;"/>
   </g>
   <g id="line2d_4">
    <path clip-path="url(#p0b24c9d8a5)" d="M 12.018929 54.087948 
L 11.834947 53.545585 
L 11.650965 53.003221 
L 11.466983 52.460857 
L 11.283001 51.918493 
L 11.089652 51.348562 
L 10.896302 50.77863 
L 10.702953 50.208698 
L 10.509604 49.638767 
L 10.316092 49.068346 
L 10.12258 48.497926 
L 9.880448 47.784094 
L 9.638315 47.070262 
L 9.396182 46.35643 
L 9.154049 45.642598 
L 8.900967 44.896554 
L 8.647886 44.150511 
L 8.394804 43.404468 
L 8.141722 42.658424 
L 7.983125 42.190895 
L 7.824528 41.723365 
L 7.665932 41.255835 
L 7.507335 40.788305 
L 7.273515 40.099109 
L 7.039695 39.409912 
L 6.805875 38.720715 
L 6.572056 38.031518 
L 6.303362 37.239332 
L 6.034667 36.447147 
L 5.765973 35.654962 
L 5.497279 34.862776 
" style="fill:none;stroke:#808080;stroke-linecap:square;stroke-width:0.4;"/>
   </g>
   <g id="line2d_5">
    <path clip-path="url(#p0b24c9d8a5)" d="M 12.884785 67.640199 
L 13.241475 67.575287 
L 13.755019 67.482026 
L 14.271158 67.388373 
L 14.490136 67.348683 
" style="fill:none;stroke:#808080;stroke-linecap:square;stroke-width:0.4;"/>
   </g>
   <g id="line2d_6">
    <path clip-path="url(#p0b24c9d8a5)" d="M 22.343172 53.97494 
L 22.082183 53.193459 
L 21.888753 52.614142 
L 21.695322 52.034826 
L 21.476182 51.378671 
L 21.257042 50.722517 
L 21.029467 50.040847 
L 20.801892 49.359178 
L 20.552663 48.61289 
L 20.303433 47.866602 
L 20.071884 47.173202 
L 19.840335 46.479801 
L 19.599216 45.75766 
L 19.358097 45.035518 
L 19.105462 44.27877 
L 18.852826 43.522022 
L 18.587052 42.726171 
L 18.321277 41.930319 
L 18.175981 41.495197 
L 18.030685 41.060074 
L 17.885389 40.624951 
L 17.740094 40.189828 
L 17.598163 39.764775 
L 17.456233 39.339721 
L 17.314303 38.914667 
L 17.172373 38.489614 
L 17.028496 38.058744 
L 16.88462 37.627873 
L 16.740743 37.197003 
L 16.596866 36.766133 
L 16.44638 36.315369 
L 16.295893 35.864605 
L 16.145407 35.41384 
L 15.99492 34.963076 
L 15.85226 34.535725 
L 15.7096 34.108374 
L 15.56694 33.681023 
L 15.42428 33.253673 
L 15.146746 32.42253 
L 14.869211 31.591388 
L 14.594272 30.768067 
L 14.319333 29.944745 
L 14.173308 29.507325 
L 14.027282 29.069905 
L 13.881256 28.632485 
L 13.73523 28.195065 
L 13.546098 27.628653 
" style="fill:none;stroke:#808080;stroke-linecap:square;stroke-width:0.4;"/>
   </g>
   <g id="line2d_7">
    <path clip-path="url(#p0b24c9d8a5)" d="M 3.586818 33.119157 
L 3.360622 33.223563 
L 3.134426 33.327969 
L 3.13177 33.464342 
L 3.129114 33.600715 
L 3.126458 33.737088 
L 3.123802 33.873461 
L 3.121146 34.009834 
L 3.118489 34.146207 
L 3.115833 34.28258 
L 3.113177 34.418953 
L 2.945659 34.503783 
L 2.778141 34.588613 
L 2.610623 34.673443 
L 2.443105 34.758272 
L 2.275586 34.843102 
L 2.108068 34.927932 
L 1.94055 35.012762 
L 1.773032 35.097592 
L 1.782156 35.27225 
L 1.79128 35.446907 
L 1.800404 35.621565 
L 1.809528 35.796223 
L 1.818652 35.97088 
L 1.827777 36.145538 
L 1.836901 36.320196 
L 1.846025 36.494853 
L 1.855149 36.669511 
L 1.864273 36.844168 
L 1.873397 37.018826 
L 1.882521 37.193484 
L 1.891645 37.368141 
L 1.900769 37.542799 
L 1.909893 37.717457 
L 1.919017 37.892114 
L 1.928141 38.066772 
L 1.937266 38.24143 
L 1.94639 38.416087 
L 1.955514 38.590745 
L 1.964638 38.765403 
L 1.973762 38.94006 
L 1.982886 39.114718 
L 1.99201 39.289376 
L 2.001134 39.464033 
L 2.010258 39.638691 
L 2.019382 39.813348 
L 2.028506 39.988006 
L 2.03763 40.162664 
L 2.046755 40.337321 
L 2.055879 40.511979 
L 2.065003 40.686637 
L 2.160501 40.928393 
L 2.256 41.17015 
L 2.351499 41.411906 
L 2.446998 41.653663 
L 2.579155 41.817861 
L 2.711312 41.982058 
L 2.843469 42.146256 
L 2.975627 42.310453 
L 3.107784 42.474651 
L 3.239941 42.638848 
L 3.372098 42.803046 
L 3.504256 42.967243 
L 3.636413 43.131441 
L 3.76857 43.295638 
L 3.900727 43.459836 
L 4.032885 43.624033 
L 4.165042 43.788231 
L 4.297199 43.952428 
L 4.429356 44.116626 
L 4.561514 44.280823 
L 4.693123 44.488511 
L 4.824733 44.696199 
L 4.956343 44.903886 
L 5.087953 45.111574 
L 5.219563 45.319262 
L 5.351172 45.52695 
L 5.482782 45.734637 
L 5.614392 45.942325 
L 5.804822 46.051912 
L 5.995251 46.1615 
L 6.185681 46.271087 
L 6.376111 46.380674 
" style="fill:none;stroke:#000000;stroke-linecap:square;stroke-width:0.4;"/>
   </g>
   <g id="line2d_8">
    <path clip-path="url(#p0b24c9d8a5)" d="M 2.394767 41.931884 
L 2.338218 42.103694 
L 2.281669 42.275504 
L 2.22512 42.447315 
L 2.168571 42.619125 
L 2.112022 42.790936 
L 2.055473 42.962746 
L 1.998924 43.134557 
L 1.942375 43.306367 
L 1.924968 43.523305 
L 1.907562 43.740243 
L 1.890155 43.957182 
L 1.872748 44.17412 
L 1.855341 44.391058 
L 1.837935 44.607996 
L 1.820528 44.824934 
L 1.803121 45.041872 
L 1.785715 45.258811 
L 1.768308 45.475749 
L 1.750901 45.692687 
L 1.733494 45.909625 
L 1.716088 46.126563 
L 1.698681 46.343501 
L 1.681274 46.56044 
L 1.663867 46.777378 
L 1.733474 47.004593 
L 1.803081 47.231808 
L 1.872687 47.459023 
L 1.942294 47.686238 
L 2.011901 47.913453 
L 2.081507 48.140668 
L 2.151114 48.367883 
L 2.22072 48.595098 
L 2.142415 48.814761 
L 2.064111 49.034424 
L 1.985806 49.254087 
L 1.907501 49.473751 
L 2.046734 49.605309 
L 2.185968 49.736867 
L 2.325201 49.868426 
L 2.464435 49.999984 
L 2.603668 50.131543 
L 2.742902 50.263101 
L 2.882135 50.394659 
L 3.021369 50.526218 
" style="fill:none;stroke:#008000;stroke-linecap:square;stroke-width:0.4;"/>
   </g>
   <g id="line2d_9">
    <path clip-path="url(#p0b24c9d8a5)" d="M 3.717394 50.804634 
L 3.368205 55.350816 
L 2.883767 56.690412 
L 3.137158 58.948345 
L 6.279026 61.893592 
L 9.082192 68.040227 
L 10.50052 68.727273 
L 10.50052 68.727273 
" style="fill:none;stroke:#008000;stroke-linecap:square;stroke-width:0.4;"/>
   </g>
   <g id="line2d_10">
    <path clip-path="url(#p0b24c9d8a5)" d="M 6.789087 48.047455 
L 6.704791 48.23283 
L 6.620494 48.418204 
L 6.536198 48.603578 
L 6.451902 48.788953 
L 6.367605 48.974327 
L 6.283309 49.159702 
L 6.199012 49.345076 
L 6.114716 49.530451 
L 6.03042 49.715825 
L 5.946123 49.901199 
L 5.861827 50.086574 
L 5.777531 50.271948 
L 5.693234 50.457323 
L 5.608938 50.642697 
L 5.524641 50.828071 
L 5.440345 51.013446 
" style="fill:none;stroke:#008000;stroke-linecap:square;stroke-width:0.4;"/>
   </g>
   <g id="line2d_11">
    <path clip-path="url(#p0b24c9d8a5)" d="M 3.804499 33.919603 
L 3.746834 34.154492 
L 3.68917 34.389381 
L 3.631506 34.62427 
L 3.573842 34.859159 
L 3.516178 35.094048 
L 3.458513 35.328937 
L 3.400849 35.563826 
L 3.343185 35.798715 
L 3.354757 35.935302 
L 3.36633 36.071889 
L 3.377902 36.208476 
L 3.389475 36.345063 
L 3.401047 36.48165 
L 3.412619 36.618237 
L 3.424192 36.754823 
L 3.435764 36.89141 
L 3.447336 37.027997 
L 3.458909 37.164584 
L 3.470481 37.301171 
L 3.482054 37.437758 
L 3.493626 37.574344 
L 3.505198 37.710931 
L 3.516771 37.847518 
L 3.528343 37.984105 
L 3.539916 38.120692 
L 3.551488 38.257279 
L 3.56306 38.393866 
L 3.574633 38.530452 
L 3.586205 38.667039 
L 3.597777 38.803626 
L 3.60935 38.940213 
L 3.620922 39.0768 
L 3.632495 39.213387 
L 3.644067 39.349974 
L 3.655639 39.48656 
L 3.667212 39.623147 
L 3.678784 39.759734 
L 3.690356 39.896321 
L 3.701929 40.032908 
L 3.713501 40.169495 
L 3.76487 40.335647 
L 3.816238 40.5018 
L 3.867607 40.667953 
L 3.918975 40.834105 
L 3.970344 41.000258 
L 4.021713 41.166411 
L 4.073081 41.332563 
L 4.12445 41.498716 
L 4.175818 41.664869 
L 4.227187 41.831021 
L 4.278556 41.997174 
L 4.329924 42.163327 
L 4.381293 42.329479 
L 4.432661 42.495632 
L 4.48403 42.661785 
L 4.535398 42.827937 
L 4.487507 42.975846 
L 4.439616 43.123754 
L 4.391725 43.271663 
L 4.343833 43.419571 
" style="fill:none;stroke:#ff0000;stroke-linecap:square;stroke-width:0.4;"/>
   </g>
   <g id="line2d_12">
    <path clip-path="url(#p0b24c9d8a5)" d="M 4.030614 34.015406 
L 4.065964 34.180016 
L 4.101315 34.344626 
L 4.136666 34.509236 
L 4.172017 34.673846 
L 4.207367 34.838456 
L 4.242718 35.003066 
L 4.278069 35.167676 
L 4.31342 35.332286 
L 4.34877 35.496895 
L 4.384121 35.661505 
L 4.419472 35.826115 
L 4.454823 35.990725 
L 4.490173 36.155335 
L 4.525524 36.319945 
L 4.560875 36.484555 
L 4.596226 36.649165 
L 4.631576 36.813775 
L 4.666927 36.978385 
L 4.702278 37.142995 
L 4.737629 37.307604 
L 4.772979 37.472214 
L 4.80833 37.636824 
L 4.843681 37.801434 
L 4.879032 37.966044 
L 4.914382 38.130654 
L 4.949733 38.295264 
L 4.985084 38.459874 
L 5.020435 38.624484 
L 5.055785 38.789094 
L 5.091136 38.953704 
L 5.126487 39.118314 
L 5.161838 39.282923 
L 5.197188 39.447533 
L 5.232539 39.612143 
L 5.26789 39.776753 
L 5.303241 39.941363 
L 5.338591 40.105973 
L 5.373942 40.270583 
L 5.409293 40.435193 
L 5.444644 40.599803 
L 5.479994 40.764413 
L 5.515345 40.929023 
L 5.550696 41.093633 
L 5.586047 41.258242 
L 5.621397 41.422852 
L 5.656748 41.587462 
L 5.692099 41.752072 
L 5.72745 41.916682 
L 5.7628 42.081292 
L 5.798151 42.245902 
L 5.833502 42.410512 
L 5.868853 42.575122 
L 5.904203 42.739732 
L 5.939554 42.904342 
L 5.974905 43.068952 
L 6.010255 43.233561 
L 6.045606 43.398171 
L 6.080957 43.562781 
L 6.116308 43.727391 
L 6.151658 43.892001 
L 6.187009 44.056611 
L 6.22236 44.221221 
L 6.257711 44.385831 
L 6.293061 44.550441 
" style="fill:none;stroke:#ff0000;stroke-linecap:square;stroke-width:0.4;"/>
   </g>
   <g id="line2d_13">
    <path clip-path="url(#p0b24c9d8a5)" d="M 5.244238 45.568106 
L 5.160662 45.703844 
L 5.077085 45.839581 
L 4.993508 45.975319 
L 4.909932 46.111056 
L 4.938135 46.251413 
L 4.966339 46.39177 
L 4.994542 46.532126 
L 5.022746 46.672483 
L 5.05095 46.81284 
L 5.079153 46.953196 
L 5.107357 47.093553 
L 5.13556 47.23391 
L 5.102115 47.365199 
L 5.068671 47.496489 
L 5.035226 47.627778 
L 5.001781 47.759068 
L 4.968336 47.890357 
L 4.934891 48.021647 
L 4.901446 48.152937 
L 4.868002 48.284226 
L 4.834557 48.415516 
L 4.801112 48.546805 
L 4.767667 48.678095 
L 4.734222 48.809384 
L 4.700777 48.940674 
L 4.667333 49.071964 
L 4.633888 49.203253 
L 4.600443 49.334543 
L 4.51786 49.500854 
L 4.435277 49.667166 
L 4.352694 49.833477 
L 4.270111 49.999789 
L 4.187528 50.1661 
L 4.104945 50.332412 
L 4.022361 50.498723 
L 3.939778 50.665035 
" style="fill:none;stroke:#4169e1;stroke-linecap:square;stroke-width:0.4;"/>
   </g>
   <g id="line2d_14">
    <path clip-path="url(#p0b24c9d8a5)" d="M 8.246994 54.427366 
L 8.154536 54.589376 
L 8.062079 54.751386 
L 7.969622 54.913396 
L 7.877164 55.075406 
L 7.784707 55.237416 
L 7.692249 55.399427 
L 7.599792 55.561437 
L 7.507335 55.723447 
L 7.476881 55.969163 
L 7.446426 56.214878 
L 7.415972 56.460594 
L 7.385518 56.70631 
L 7.355064 56.952026 
L 7.32461 57.197742 
L 7.294156 57.443457 
L 7.263702 57.689173 
L 7.212586 57.922963 
L 7.161471 58.156752 
L 7.110356 58.390541 
L 7.059241 58.62433 
L 7.008126 58.85812 
L 6.957011 59.091909 
L 6.905896 59.325698 
L 6.85478 59.559487 
L 6.902631 59.761701 
L 6.950482 59.963914 
L 6.998333 60.166127 
L 7.046183 60.368341 
L 7.109261 60.501537 
L 7.172339 60.634732 
L 7.235417 60.767928 
L 7.298495 60.901124 
L 7.361573 61.03432 
L 7.42465 61.167516 
L 7.487728 61.300712 
L 7.550806 61.433908 
L 7.613884 61.567103 
L 7.676962 61.700299 
L 7.740039 61.833495 
L 7.803117 61.966691 
L 7.866195 62.099887 
L 7.929273 62.233083 
L 7.992351 62.366279 
L 8.055428 62.499474 
L 8.147886 62.727814 
L 8.240343 62.956153 
L 8.332801 63.184492 
L 8.425258 63.412831 
L 8.517715 63.641171 
L 8.610173 63.86951 
L 8.70263 64.097849 
L 8.795087 64.326188 
L 8.826636 64.576254 
L 8.858185 64.82632 
L 8.889734 65.076387 
L 8.921284 65.326453 
L 8.952833 65.576519 
L 8.984382 65.826585 
L 9.015931 66.076651 
L 9.04748 66.326717 
L 9.146446 66.53003 
L 9.245411 66.733343 
L 9.344377 66.936656 
L 9.443343 67.139969 
L 9.542309 67.343282 
L 9.641275 67.546595 
L 9.740241 67.749908 
L 9.839207 67.953222 
" style="fill:none;stroke:#008000;stroke-linecap:square;stroke-width:0.4;"/>
   </g>
   <g id="line2d_15">
    <path clip-path="url(#p0b24c9d8a5)" d="M 8.56881 54.427366 
L 8.59383 54.606765 
L 8.618851 54.786163 
L 8.643871 54.965562 
L 8.668891 55.144961 
L 8.693911 55.32436 
L 8.718932 55.503759 
L 8.743952 55.683158 
L 8.768972 55.862557 
L 8.793992 56.041956 
L 8.819013 56.221355 
L 8.844033 56.400754 
L 8.869053 56.580153 
L 8.894074 56.759552 
L 8.919094 56.938951 
L 8.944114 57.11835 
L 8.969134 57.297749 
L 9.026778 57.497836 
L 9.084422 57.697923 
L 9.142066 57.89801 
L 9.19971 58.098097 
L 9.257354 58.298184 
L 9.314998 58.498271 
L 9.372642 58.698358 
L 9.430286 58.898445 
L 9.464825 59.095514 
L 9.499365 59.292583 
L 9.533905 59.489651 
L 9.568445 59.68672 
L 9.602984 59.883789 
L 9.637524 60.080858 
L 9.672064 60.277926 
L 9.706603 60.474995 
L 9.741143 60.672064 
L 9.775683 60.869133 
L 9.810223 61.066201 
L 9.844762 61.26327 
L 9.879302 61.460339 
L 9.913842 61.657408 
L 9.948381 61.854477 
L 9.982921 62.051545 
L 10.009563 62.201042 
L 10.036206 62.350539 
L 10.062848 62.500037 
L 10.08949 62.649534 
L 10.116133 62.799031 
L 10.142775 62.948528 
L 10.169417 63.098025 
L 10.19606 63.247522 
L 10.222702 63.397019 
L 10.249344 63.546516 
L 10.275987 63.696013 
L 10.302629 63.84551 
L 10.329271 63.995007 
L 10.355914 64.144504 
L 10.382556 64.294001 
L 10.409198 64.443498 
L 10.230285 64.509828 
L 10.051372 64.576157 
L 9.872459 64.642486 
L 9.693546 64.708815 
L 9.514633 64.775144 
L 9.33572 64.841473 
L 9.156807 64.907802 
L 8.977893 64.974131 
" style="fill:none;stroke:#008000;stroke-linecap:square;stroke-width:0.4;"/>
   </g>
   <g id="line2d_16">
    <path clip-path="url(#p0b24c9d8a5)" d="M 6.734099 35.389694 
L 6.721011 35.522749 
L 6.707923 35.655805 
L 6.694835 35.78886 
L 6.681747 35.921915 
L 6.668659 36.054971 
L 6.655571 36.188026 
L 6.642483 36.321081 
L 6.629395 36.454137 
L 6.616307 36.587192 
L 6.603219 36.720247 
L 6.590131 36.853303 
L 6.577043 36.986358 
L 6.563955 37.119413 
L 6.550867 37.252469 
L 6.537779 37.385524 
L 6.524691 37.518579 
L 6.511603 37.651635 
L 6.498516 37.78469 
L 6.485428 37.917745 
L 6.47234 38.050801 
L 6.459252 38.183856 
L 6.446164 38.316911 
L 6.433076 38.449967 
L 6.419988 38.583022 
L 6.4069 38.716077 
L 6.393812 38.849133 
L 6.380724 38.982188 
L 6.367636 39.115243 
L 6.354548 39.248299 
L 6.34146 39.381354 
L 6.328372 39.514409 
L 6.315284 39.647465 
L 6.33595 39.802424 
L 6.356616 39.957383 
L 6.377282 40.112343 
L 6.397948 40.267302 
L 6.418614 40.422261 
L 6.43928 40.577221 
L 6.459946 40.73218 
L 6.480612 40.887139 
L 6.501278 41.042099 
L 6.521944 41.197058 
L 6.54261 41.352017 
L 6.563276 41.506977 
L 6.583942 41.661936 
L 6.604608 41.816895 
L 6.625274 41.971855 
L 6.64594 42.126814 
L 6.666606 42.281773 
L 6.687272 42.436733 
L 6.707939 42.591692 
L 6.728605 42.746651 
L 6.749271 42.90161 
L 6.769937 43.05657 
L 6.790603 43.211529 
L 6.811269 43.366488 
L 6.831935 43.521448 
L 6.852601 43.676407 
L 6.873267 43.831366 
L 6.893933 43.986326 
L 6.914599 44.141285 
L 6.935265 44.296244 
L 6.955931 44.451204 
L 6.976597 44.606163 
" style="fill:none;stroke:#ff0000;stroke-linecap:square;stroke-width:0.4;"/>
   </g>
   <g id="line2d_17">
    <path clip-path="url(#p0b24c9d8a5)" d="M 4.244239 32.687651 
L 4.366066 32.79967 
L 4.487892 32.911689 
L 4.609719 33.023708 
L 4.731546 33.135727 
L 4.853373 33.247746 
L 4.975199 33.359765 
L 5.097026 33.471784 
L 5.218853 33.583803 
L 5.34068 33.695822 
L 5.462506 33.807841 
L 5.584333 33.91986 
L 5.70616 34.031878 
L 5.827987 34.143897 
L 5.949814 34.255916 
L 6.07164 34.367935 
L 6.193467 34.479954 
L 6.261046 34.593672 
L 6.328625 34.707389 
L 6.396204 34.821107 
L 6.463783 34.934824 
L 6.531362 35.048542 
L 6.598941 35.162259 
L 6.66652 35.275977 
L 6.734099 35.389694 
L 6.855348 35.569863 
L 6.976597 35.750032 
L 7.095149 35.856601 
L 7.213702 35.96317 
L 7.332254 36.069738 
L 7.450806 36.176307 
L 7.569358 36.282876 
L 7.68791 36.389445 
L 7.806463 36.496014 
L 7.925015 36.602583 
L 8.043567 36.709152 
L 8.162119 36.815721 
L 8.280672 36.92229 
L 8.399224 37.028859 
L 8.517776 37.135427 
L 8.636328 37.241996 
L 8.754881 37.348565 
L 8.873433 37.455134 
L 8.982516 37.622545 
L 9.0916 37.789957 
L 9.200683 37.957368 
L 9.309767 38.124779 
L 9.448655 38.335791 
L 9.587544 38.546803 
L 9.726433 38.757814 
L 9.865322 38.968826 
L 10.000926 39.152318 
L 10.13653 39.335811 
L 10.253805 39.527124 
L 10.37108 39.718437 
L 10.488355 39.909751 
L 10.60563 40.101064 
L 10.722904 40.292377 
L 10.840179 40.48369 
L 10.957454 40.675003 
L 11.074729 40.866317 
L 11.166335 41.004547 
L 11.257941 41.142778 
L 11.349546 41.281008 
L 11.441152 41.419238 
L 11.525236 41.571008 
L 11.609319 41.722778 
L 11.693403 41.874548 
L 11.777486 42.026318 
L 11.861569 42.178088 
L 11.945653 42.329858 
L 12.029736 42.481628 
L 12.11382 42.633398 
L 12.247113 42.859403 
L 12.380405 43.085409 
L 12.513698 43.311414 
L 12.646991 43.537419 
L 12.780283 43.763424 
L 12.913576 43.98943 
L 13.046869 44.215435 
L 13.180161 44.44144 
L 13.313454 44.667445 
L 13.446747 44.893451 
L 13.58004 45.119456 
L 13.713332 45.345461 
L 13.846625 45.571466 
L 13.979918 45.797472 
L 14.11321 46.023477 
L 14.246503 46.249482 
L 14.362805 46.463109 
L 14.479106 46.676735 
L 14.595408 46.890362 
L 14.71171 47.103989 
L 14.828011 47.317615 
L 14.944313 47.531242 
L 15.060614 47.744868 
L 15.176916 47.958495 
L 15.224625 48.182435 
L 15.272334 48.406375 
L 15.320042 48.630315 
L 15.367751 48.854255 
L 15.41546 49.078196 
L 15.463169 49.302136 
L 15.510878 49.526076 
L 15.558586 49.750016 
" style="fill:none;stroke:#4169e1;stroke-linecap:square;stroke-width:0.4;"/>
   </g>
   <g id="line2d_18">
    <path clip-path="url(#p0b24c9d8a5)" d="M 9.309767 38.124779 
L 9.248777 38.246049 
L 9.187788 38.367318 
L 9.126798 38.488587 
L 9.065809 38.609857 
L 9.00482 38.731126 
L 8.94383 38.852395 
L 8.882841 38.973665 
L 8.821851 39.094934 
L 8.760862 39.216203 
L 8.699873 39.337473 
L 8.638883 39.458742 
L 8.577894 39.580011 
L 8.516904 39.701281 
L 8.455915 39.82255 
L 8.394925 39.943819 
L 8.333936 40.065089 
L 8.20778 40.212948 
L 8.081625 40.360808 
L 7.955469 40.508668 
L 7.829313 40.656527 
L 7.851069 40.880541 
L 7.872825 41.104554 
L 7.894581 41.328567 
L 7.916337 41.552581 
L 7.938093 41.776594 
L 7.959849 42.000608 
L 7.981605 42.224621 
L 8.00336 42.448635 
L 7.954415 42.575867 
L 7.905469 42.7031 
L 7.856524 42.830332 
L 7.807578 42.957565 
L 7.758632 43.084798 
L 7.709687 43.21203 
L 7.660741 43.339263 
L 7.611795 43.466495 
L 7.56285 43.593728 
L 7.513904 43.720961 
L 7.464958 43.848193 
L 7.416013 43.975426 
L 7.367067 44.102658 
L 7.318122 44.229891 
L 7.269176 44.357123 
L 7.22023 44.484356 
" style="fill:none;stroke:#4169e1;stroke-linecap:square;stroke-width:0.4;"/>
   </g>
   <g id="line2d_19">
    <path clip-path="url(#p0b24c9d8a5)" d="M 11.074729 40.866317 
L 10.979833 41.077243 
L 10.884938 41.288169 
L 10.790042 41.499095 
L 10.695147 41.710021 
L 10.600251 41.920947 
L 10.505356 42.131873 
L 10.41046 42.342799 
L 10.315565 42.553725 
L 10.220669 42.764651 
L 10.125774 42.975577 
L 10.030878 43.186503 
L 9.935983 43.397429 
L 9.841087 43.608355 
L 9.746192 43.819281 
L 9.651296 44.030207 
L 9.556401 44.241133 
L 9.461505 44.452059 
L 9.36661 44.662985 
L 9.271714 44.873911 
L 9.176819 45.084837 
L 9.081923 45.295763 
L 8.987028 45.506689 
L 8.892132 45.717615 
L 8.797237 45.928541 
L 8.702341 46.139467 
L 8.607446 46.350393 
L 8.51255 46.561319 
L 8.417655 46.772245 
L 8.322759 46.983171 
L 8.227863 47.194097 
L 8.132968 47.405023 
L 8.038072 47.61595 
" style="fill:none;stroke:#4169e1;stroke-linecap:square;stroke-width:0.4;"/>
   </g>
   <g id="line2d_20">
    <path clip-path="url(#p0b24c9d8a5)" d="M 12.11382 42.633398 
L 12.001026 42.846951 
L 11.888232 43.060505 
L 11.775438 43.274058 
L 11.662644 43.487611 
L 11.54985 43.701164 
L 11.437056 43.914718 
L 11.324262 44.128271 
L 11.211469 44.341824 
L 11.098675 44.555378 
L 10.985881 44.768931 
L 10.873087 44.982484 
L 10.760293 45.196037 
L 10.647499 45.409591 
L 10.534705 45.623144 
L 10.421911 45.836697 
L 10.309117 46.050251 
L 10.28138 46.263364 
L 10.253643 46.476477 
L 10.225906 46.689591 
L 10.198168 46.902704 
L 10.170431 47.115817 
L 10.142694 47.328931 
L 10.114957 47.542044 
L 10.08722 47.755158 
" style="fill:none;stroke:#4169e1;stroke-linecap:square;stroke-width:0.4;"/>
   </g>
   <g id="line2d_21">
    <path clip-path="url(#p0b24c9d8a5)" d="M 14.912196 49.251448 
L 14.788747 49.328653 
L 14.665298 49.405857 
L 14.54185 49.483062 
L 14.418401 49.560267 
L 14.294952 49.637472 
L 14.171503 49.714676 
L 14.048054 49.791881 
L 13.924605 49.869086 
L 13.801157 49.94629 
L 13.677708 50.023495 
L 13.554259 50.1007 
L 13.43081 50.177905 
L 13.307361 50.255109 
L 13.183912 50.332314 
L 13.060464 50.409519 
L 12.937015 50.486723 
L 12.813566 50.563928 
L 12.690117 50.641133 
L 12.566668 50.718338 
L 12.44322 50.795542 
L 12.319771 50.872747 
L 12.196322 50.949952 
L 12.072873 51.027156 
L 11.949424 51.104361 
L 11.825975 51.181566 
L 11.702527 51.258771 
L 11.579078 51.335975 
L 11.455629 51.41318 
L 11.33218 51.490385 
L 11.208731 51.567589 
L 11.085282 51.644794 
L 10.961834 51.721999 
" style="fill:none;stroke:#008000;stroke-linecap:square;stroke-width:0.4;"/>
   </g>
   <g id="line2d_22">
    <path clip-path="url(#p0b24c9d8a5)" d="M 15.103599 49.738676 
L 15.001359 49.884373 
L 14.899118 50.030069 
L 14.796878 50.175766 
L 14.694637 50.321463 
L 14.592397 50.46716 
L 14.490157 50.612856 
L 14.387916 50.758553 
L 14.285676 50.90425 
L 14.183435 51.049946 
L 14.081195 51.195643 
L 13.978955 51.34134 
L 13.876714 51.487037 
L 13.774474 51.632733 
L 13.672233 51.77843 
L 13.569993 51.924127 
L 13.467753 52.069823 
L 13.431317 52.203569 
L 13.394882 52.337315 
L 13.358446 52.471061 
L 13.322011 52.604806 
L 13.285575 52.738552 
L 13.24914 52.872298 
L 13.212704 53.006044 
L 13.176269 53.139789 
L 13.139833 53.273535 
L 13.103398 53.407281 
L 13.066962 53.541027 
L 13.030527 53.674772 
L 12.994091 53.808518 
L 12.957656 53.942264 
L 12.92122 54.07601 
L 12.884785 54.209755 
L 12.848349 54.343501 
L 12.811914 54.477247 
L 12.775478 54.610993 
L 12.739043 54.744738 
L 12.702607 54.878484 
L 12.666172 55.01223 
L 12.629736 55.145976 
L 12.593301 55.279721 
L 12.556865 55.413467 
L 12.52043 55.547213 
L 12.483994 55.680959 
L 12.447559 55.814704 
L 12.411123 55.94845 
L 12.374688 56.082196 
L 12.338252 56.215942 
L 12.301817 56.349687 
" style="fill:none;stroke:#008000;stroke-linecap:square;stroke-width:0.4;"/>
   </g>
   <g id="line2d_23">
    <path clip-path="url(#p0b24c9d8a5)" d="M 10.039369 53.339901 
L 10.072003 53.57966 
L 10.104636 53.819418 
L 10.13727 54.059177 
L 10.169904 54.298935 
L 10.202538 54.538694 
L 10.235172 54.778453 
L 10.267805 55.018211 
L 10.300439 55.25797 
L 10.333073 55.497729 
L 10.365707 55.737487 
L 10.398341 55.977246 
L 10.430974 56.217005 
L 10.463608 56.456763 
L 10.496242 56.696522 
L 10.528876 56.936281 
L 10.56151 57.176039 
L 10.594143 57.415798 
L 10.626777 57.655557 
L 10.659411 57.895315 
L 10.692045 58.135074 
L 10.724679 58.374833 
L 10.757312 58.614591 
L 10.789946 58.85435 
L 10.82258 59.094109 
L 10.855214 59.333867 
L 10.887848 59.573626 
L 10.920481 59.813384 
L 10.953115 60.053143 
L 10.985749 60.292902 
L 11.018383 60.53266 
L 11.051017 60.772419 
L 11.08365 61.012178 
L 11.156521 61.193752 
L 11.229392 61.375326 
L 11.302263 61.5569 
L 11.375134 61.738474 
L 11.448005 61.920048 
L 11.520876 62.101622 
L 11.593747 62.283196 
L 11.666618 62.46477 
L 11.739489 62.646344 
L 11.81236 62.827918 
L 11.885231 63.009492 
L 11.958102 63.191066 
L 12.030973 63.37264 
L 12.103844 63.554215 
L 12.176715 63.735789 
L 12.249586 63.917363 
L 12.268078 64.160903 
L 12.286569 64.404444 
L 12.305061 64.647985 
L 12.323552 64.891525 
L 12.342044 65.135066 
L 12.360535 65.378607 
L 12.379027 65.622147 
L 12.397518 65.865688 
L 12.41601 66.109229 
L 12.434501 66.352769 
L 12.452992 66.59631 
L 12.471484 66.839851 
L 12.489975 67.083391 
L 12.508467 67.326932 
L 12.526958 67.570473 
L 12.54545 67.814014 
" style="fill:none;stroke:#008000;stroke-linecap:square;stroke-width:0.4;"/>
   </g>
   <g id="line2d_24">
    <path clip-path="url(#p0b24c9d8a5)" d="M 12.145126 56.610702 
L 12.219092 56.750961 
L 12.293057 56.89122 
L 12.367023 57.031479 
L 12.440989 57.171738 
L 12.514955 57.311997 
L 12.588921 57.452256 
L 12.662887 57.592515 
L 12.736853 57.732774 
L 12.810819 57.873032 
L 12.884785 58.013291 
L 12.95875 58.15355 
L 13.032716 58.293809 
L 13.106682 58.434068 
L 13.180648 58.574327 
L 13.254614 58.714586 
L 13.32858 58.854845 
L 13.35142 58.989678 
L 13.374261 59.124511 
L 13.397102 59.259345 
L 13.419942 59.394178 
L 13.442783 59.529011 
L 13.465624 59.663845 
L 13.488464 59.798678 
L 13.511305 59.933511 
L 13.534145 60.068345 
L 13.556986 60.203178 
L 13.579827 60.338011 
L 13.602667 60.472844 
L 13.625508 60.607678 
L 13.648348 60.742511 
L 13.671189 60.877344 
L 13.69403 61.012178 
L 13.778863 61.176351 
L 13.863697 61.340524 
L 13.948531 61.504697 
L 14.033364 61.66887 
L 14.118198 61.833043 
L 14.203032 61.997216 
L 14.287866 62.161389 
L 14.372699 62.325562 
L 14.457533 62.489735 
L 14.542367 62.653908 
L 14.6272 62.818081 
L 14.712034 62.982254 
L 14.796868 63.146427 
L 14.881701 63.310601 
L 14.966535 63.474774 
L 15.051369 63.638947 
L 14.931904 63.823172 
L 14.812439 64.007398 
L 14.692975 64.191624 
L 14.57351 64.37585 
L 14.454045 64.560075 
L 14.334581 64.744301 
L 14.215116 64.928527 
L 14.095652 65.112753 
L 13.976187 65.296978 
L 13.856722 65.481204 
L 13.737258 65.66543 
L 13.617793 65.849656 
L 13.498328 66.033881 
L 13.378864 66.218107 
L 13.259399 66.402333 
L 13.139934 66.586559 
" style="fill:none;stroke:#008000;stroke-linecap:square;stroke-width:0.4;"/>
   </g>
   <g id="line2d_25">
    <path clip-path="url(#p0b24c9d8a5)" d="M 15.633201 50.352403 
L 15.586435 50.520939 
L 15.539669 50.689474 
L 15.492903 50.85801 
L 15.446137 51.026545 
L 15.399371 51.195081 
L 15.352605 51.363617 
L 15.305839 51.532152 
L 15.259073 51.700688 
L 15.212307 51.869223 
L 15.165541 52.037759 
L 15.118775 52.206294 
L 15.072009 52.37483 
L 15.025243 52.543365 
L 14.978477 52.711901 
L 14.931711 52.880436 
L 14.884945 53.048972 
L 14.832735 53.238171 
L 14.780525 53.42737 
L 14.728315 53.616569 
L 14.676105 53.805769 
L 14.623895 53.994968 
L 14.571685 54.184167 
L 14.519475 54.373366 
L 14.467265 54.562566 
L 14.415055 54.751765 
L 14.362845 54.940964 
L 14.310635 55.130163 
L 14.258425 55.319362 
L 14.206215 55.508562 
L 14.154005 55.697761 
L 14.101795 55.88696 
L 14.049585 56.076159 
L 14.145307 56.271872 
L 14.241029 56.467584 
L 14.33675 56.663296 
L 14.432472 56.859009 
L 14.528194 57.054721 
L 14.623916 57.250433 
L 14.719637 57.446146 
L 14.815359 57.641858 
L 14.845813 57.815844 
L 14.876267 57.989829 
L 14.906722 58.163815 
L 14.937176 58.3378 
L 14.96763 58.511786 
L 14.998084 58.685772 
L 15.028538 58.859757 
L 15.058992 59.033743 
L 15.246056 59.116349 
L 15.43312 59.198954 
L 15.620184 59.28156 
L 15.807248 59.364166 
L 15.95518 59.572929 
L 16.103112 59.781692 
L 16.251043 59.990456 
L 16.398975 60.199219 
L 16.462053 60.342752 
L 16.525131 60.486286 
L 16.588209 60.62982 
L 16.651286 60.773354 
L 16.714364 60.916888 
L 16.777442 61.060421 
L 16.84052 61.203955 
L 16.903598 61.347489 
L 16.868805 61.527976 
L 16.834011 61.708462 
L 16.799218 61.888949 
L 16.764425 62.069435 
L 16.729632 62.249922 
L 16.694839 62.430408 
L 16.660046 62.610895 
L 16.625252 62.791381 
L 16.551287 63.008845 
L 16.477321 63.226308 
L 16.403355 63.443772 
L 16.329389 63.661236 
L 16.255423 63.878699 
L 16.181457 64.096163 
L 16.107491 64.313626 
L 16.033525 64.53109 
" style="fill:none;stroke:#008000;stroke-linecap:square;stroke-width:0.4;"/>
   </g>
   <g id="line2d_26">
    <path clip-path="url(#p0b24c9d8a5)" d="M 15.233039 59.398968 
L 15.219982 59.587068 
L 15.206924 59.775167 
L 15.193867 59.963266 
L 15.180809 60.151366 
L 15.167751 60.339465 
L 15.154694 60.527565 
L 15.141636 60.715664 
L 15.128579 60.903764 
L 15.115521 61.091863 
L 15.102463 61.279962 
L 15.089406 61.468062 
L 15.076348 61.656161 
L 15.063291 61.844261 
L 15.050233 62.03236 
L 15.037176 62.22046 
L 15.024118 62.408559 
" style="fill:none;stroke:#008000;stroke-linecap:square;stroke-width:0.4;"/>
   </g>
   <g id="line2d_27">
    <path clip-path="url(#p0b24c9d8a5)" d="M 15.789892 50.317601 
L 15.793428 50.459498 
L 15.796963 50.601394 
L 15.800499 50.74329 
L 15.804034 50.885187 
L 15.80757 51.027083 
L 15.811106 51.16898 
L 15.814641 51.310876 
L 15.818177 51.452772 
L 15.821712 51.594669 
L 15.825248 51.736565 
L 15.828783 51.878461 
L 15.832319 52.020358 
L 15.835855 52.162254 
L 15.83939 52.30415 
L 15.842926 52.446047 
L 15.846461 52.587943 
L 15.849997 52.729839 
L 15.853533 52.871736 
L 15.857068 53.013632 
L 15.860604 53.155528 
L 15.864139 53.297425 
L 15.867675 53.439321 
L 15.87121 53.581218 
L 15.874746 53.723114 
L 15.878282 53.86501 
L 15.881817 54.006907 
L 15.885353 54.148803 
L 15.888888 54.290699 
L 15.892424 54.432596 
L 15.89596 54.574492 
L 15.899495 54.716388 
L 15.903031 54.858285 
L 15.906566 55.000181 
L 15.910102 55.142077 
L 15.913637 55.283974 
L 15.917173 55.42587 
L 15.920709 55.567767 
L 15.924244 55.709663 
L 15.92778 55.851559 
L 15.931315 55.993456 
L 15.934851 56.135352 
L 15.938386 56.277248 
L 15.941922 56.419145 
L 15.945458 56.561041 
L 15.948993 56.702937 
L 15.952529 56.844834 
L 15.956064 56.98673 
L 15.9596 57.128626 
L 15.963136 57.270523 
L 15.966671 57.412419 
L 15.970207 57.554316 
L 15.973742 57.696212 
L 15.977278 57.838108 
L 15.980813 57.980005 
L 15.984349 58.121901 
L 15.987885 58.263797 
L 15.99142 58.405694 
L 15.994956 58.54759 
L 15.998491 58.689486 
L 16.002027 58.831383 
L 16.005563 58.973279 
L 16.009098 59.115175 
L 16.012634 59.257072 
L 16.016169 59.398968 
" style="fill:none;stroke:#008000;stroke-linecap:square;stroke-width:0.4;"/>
   </g>
   <g id="line2d_28">
    <path clip-path="url(#p0b24c9d8a5)" d="M 15.963939 49.360742 
L 16.02728 49.478584 
L 16.090622 49.596425 
L 16.153963 49.714267 
L 16.217305 49.832109 
L 16.280646 49.94995 
L 16.343987 50.067792 
L 16.407329 50.185634 
L 16.47067 50.303475 
L 16.534012 50.421317 
L 16.597353 50.539159 
L 16.660694 50.657 
L 16.724036 50.774842 
L 16.787377 50.892684 
L 16.850719 51.010525 
L 16.91406 51.128367 
L 16.977401 51.246209 
L 17.040743 51.36405 
L 17.104084 51.481892 
L 17.167426 51.599734 
L 17.230767 51.717575 
L 17.294108 51.835417 
L 17.35745 51.953259 
L 17.420791 52.0711 
L 17.484133 52.188942 
L 17.547474 52.306784 
L 17.610815 52.424625 
L 17.674157 52.542467 
L 17.737498 52.660309 
L 17.80084 52.77815 
L 17.864181 52.895992 
L 17.927522 53.013834 
L 17.990864 53.131675 
L 18.068373 53.275881 
L 18.145882 53.420087 
L 18.223391 53.564293 
L 18.3009 53.708499 
L 18.378409 53.852705 
L 18.455918 53.996911 
L 18.533427 54.141117 
L 18.610936 54.285323 
L 18.688445 54.429529 
L 18.765955 54.573734 
L 18.843464 54.71794 
L 18.920973 54.862146 
L 18.998482 55.006352 
L 19.075991 55.150558 
L 19.1535 55.294764 
L 19.231009 55.43897 
L 19.308518 55.583176 
L 19.386027 55.727382 
L 19.463536 55.871588 
L 19.541045 56.015793 
L 19.618554 56.159999 
L 19.696063 56.304205 
L 19.773572 56.448411 
L 19.851082 56.592617 
L 19.928591 56.736823 
L 20.0061 56.881029 
L 20.083609 57.025235 
L 20.161118 57.169441 
L 20.238627 57.313647 
L 20.316136 57.457852 
L 20.393645 57.602058 
L 20.471154 57.746264 
" style="fill:none;stroke:#4169e1;stroke-linecap:square;stroke-width:0.4;"/>
   </g>
   <g id="line2d_29">
    <path clip-path="url(#p0b24c9d8a5)" d="M 3.922909 32.785801 
L 3.379519 30.686145 
L 3.230128 29.804462 
L 3.113664 29.386154 
L 3.755594 28.649739 
L 5.767677 27.522096 
L 7.269379 27.498634 
L 8.876677 27.029394 
L 11.859076 27.400142 
L 13.546098 27.628653 
L 13.737663 27.263818 
L 14.113008 27.380933 
L 14.601384 30.933098 
L 17.596622 39.580402 
L 17.804205 41.566218 
L 18.456881 44.494718 
L 18.559132 45.52431 
L 18.501387 49.573269 
L 17.57367 55.319411 
L 16.981943 57.833269 
L 16.781781 58.337703 
L 17.036363 59.525077 
L 16.868886 61.01687 
L 16.868886 61.01687 
" style="fill:none;stroke:#4169e1;stroke-linecap:square;stroke-width:0.4;"/>
   </g>
   <g id="line2d_30">
    <path clip-path="url(#p0b24c9d8a5)" d="M 11.441152 41.419238 
L 11.663232 41.498398 
L 11.885312 41.577558 
L 12.107393 41.656718 
L 12.329473 41.735878 
L 12.551553 41.815038 
L 12.773633 41.894198 
L 12.995713 41.973358 
L 13.217793 42.052517 
L 13.425843 42.198092 
L 13.633892 42.343666 
L 13.841941 42.489241 
L 14.049991 42.634816 
L 14.25804 42.78039 
L 14.466089 42.925965 
L 14.674139 43.071539 
L 14.882188 43.217114 
L 15.090237 43.362688 
L 15.298287 43.508263 
L 15.506336 43.653837 
L 15.714385 43.799412 
L 15.922435 43.944986 
L 16.130484 44.090561 
L 16.338533 44.236135 
L 16.546583 44.38171 
L 16.79788 44.46131 
L 17.049178 44.540909 
L 17.300475 44.620509 
L 17.551772 44.700109 
L 17.80307 44.779709 
L 18.054367 44.859309 
L 18.305665 44.938908 
L 18.556962 45.018508 
L 18.800109 45.098083 
L 18.919026 45.191467 
L 19.037943 45.284851 
L 19.156861 45.378235 
L 19.275778 45.471618 
L 19.394695 45.565002 
L 19.513612 45.658386 
L 19.632529 45.75177 
L 19.751447 45.845153 
L 19.870364 45.938537 
L 19.989281 46.031921 
L 20.108198 46.125305 
L 20.227115 46.218688 
L 20.346033 46.312072 
L 20.46495 46.405456 
L 20.583867 46.49884 
L 20.702784 46.592223 
" style="fill:none;stroke:#000000;stroke-linecap:square;stroke-width:0.4;"/>
   </g>
   <g id="line2d_31">
    <path clip-path="url(#p0b24c9d8a5)" d="M 10.13653 39.335811 
L 10.358235 39.301571 
L 10.57994 39.267331 
L 10.801645 39.233091 
L 11.02335 39.198851 
L 11.245055 39.164611 
L 11.46676 39.130371 
L 11.688465 39.096132 
L 11.91017 39.061892 
L 12.131875 39.027652 
L 12.353581 38.993412 
L 12.575286 38.959172 
L 12.796991 38.924932 
L 13.018696 38.890692 
L 13.240401 38.856452 
L 13.462106 38.822212 
L 13.683811 38.787973 
L 13.929249 38.853666 
L 14.174686 38.91936 
L 14.420124 38.985054 
L 14.665562 39.050747 
L 14.911 39.116441 
L 15.156438 39.182135 
L 15.401875 39.247828 
L 15.647313 39.313522 
L 15.892751 39.379216 
L 16.138189 39.444909 
L 16.383626 39.510603 
L 16.629064 39.576297 
L 16.874502 39.64199 
L 17.11994 39.707684 
L 17.365378 39.773378 
L 17.610815 39.839071 
L 17.823305 39.898166 
L 18.035795 39.957261 
L 18.248285 40.016356 
L 18.460774 40.075451 
L 18.542364 40.197234 
L 18.623953 40.319016 
L 18.705543 40.440799 
L 18.787133 40.562581 
L 18.868722 40.684364 
L 18.950312 40.806146 
L 19.031901 40.927929 
L 19.113491 41.049712 
L 19.278718 41.146077 
L 19.443945 41.242442 
L 19.609172 41.338808 
L 19.774399 41.435173 
L 19.939626 41.531538 
L 20.104853 41.627904 
L 20.27008 41.724269 
L 20.435307 41.820634 
" style="fill:none;stroke:#000000;stroke-linecap:square;stroke-width:0.4;"/>
   </g>
   <g id="line2d_32">
    <path clip-path="url(#p0b24c9d8a5)" d="M 9.245209 6.35681 
L 8.395128 7.643042 
L 6.859094 9.233511 
L 6.21722 18.963663 
L 7.381301 24.622777 
L 10.079109 25.884056 
L 11.044184 26.147661 
L 14.131012 26.289167 
L 14.131012 26.289167 
" style="fill:none;stroke:#008000;stroke-linecap:square;stroke-width:0.4;"/>
   </g>
   <g id="line2d_33">
    <path clip-path="url(#p0b24c9d8a5)" d="M 8.948048 9.485471 
L 8.905894 9.709484 
L 8.863741 9.933498 
L 8.821588 10.157511 
L 8.779434 10.381525 
L 8.737281 10.605538 
L 8.695128 10.829551 
L 8.652975 11.053565 
L 8.610821 11.277578 
L 8.589066 11.477714 
L 8.56731 11.67785 
L 8.545554 11.877986 
L 8.523798 12.078122 
L 8.502042 12.278258 
L 8.480286 12.478394 
L 8.45853 12.67853 
L 8.436775 12.878666 
L 8.475927 13.13098 
L 8.515079 13.383295 
L 8.554232 13.635609 
L 8.593384 13.887924 
L 8.632537 14.140238 
L 8.671689 14.392553 
L 8.710842 14.644867 
L 8.749994 14.897182 
L 8.763052 15.129932 
L 8.776109 15.362683 
L 8.789167 15.595434 
L 8.802224 15.828184 
L 8.815282 16.060935 
L 8.82834 16.293685 
L 8.841397 16.526436 
L 8.854455 16.759187 
L 8.867512 16.991937 
L 8.88057 17.224688 
L 8.893627 17.457438 
L 8.906685 17.690189 
L 8.919743 17.922939 
L 8.9328 18.15569 
L 8.945858 18.388441 
L 8.958915 18.621191 
L 9.076383 18.7691 
L 9.19385 18.917008 
L 9.311318 19.064917 
L 9.428785 19.212825 
L 9.546253 19.360734 
L 9.66372 19.508642 
L 9.781188 19.656551 
L 9.898655 19.804459 
L 10.016123 19.952368 
L 10.13359 20.100276 
L 10.251058 20.248185 
L 10.368525 20.396093 
L 10.485993 20.544002 
L 10.60346 20.69191 
L 10.720928 20.839819 
L 10.838395 20.987727 
L 10.973269 21.21394 
L 11.108143 21.440153 
L 11.243018 21.666366 
L 11.377892 21.892579 
L 11.512766 22.118792 
L 11.64764 22.345005 
L 11.782514 22.571218 
L 11.917389 22.797431 
L 12.052263 23.023644 
L 12.187137 23.249857 
L 12.322011 23.47607 
L 12.456885 23.702283 
L 12.59176 23.928496 
L 12.726634 24.154709 
L 12.861508 24.380922 
L 12.996382 24.607135 
" style="fill:none;stroke:#000000;stroke-linecap:square;stroke-width:0.4;"/>
   </g>
   <g id="line2d_34">
    <path clip-path="url(#p0b24c9d8a5)" d="M 11.332961 13.331092 
L 11.372818 13.487704 
L 11.412675 13.644316 
L 11.452532 13.800928 
L 11.492389 13.95754 
L 11.532246 14.114152 
L 11.572103 14.270764 
L 11.61196 14.427376 
L 11.651817 14.583988 
L 11.691674 14.7406 
L 11.731531 14.897212 
L 11.771388 15.053824 
L 11.811245 15.210436 
L 11.851102 15.367048 
L 11.890959 15.523661 
L 11.930816 15.680273 
L 11.970673 15.836885 
L 12.01053 15.993497 
L 12.050387 16.150109 
L 12.090244 16.306721 
L 12.130101 16.463333 
L 12.169958 16.619945 
L 12.209815 16.776557 
L 12.249672 16.933169 
L 12.289529 17.089781 
L 12.329386 17.246393 
L 12.369244 17.403005 
L 12.409101 17.559617 
L 12.448958 17.716229 
L 12.488815 17.872841 
L 12.528672 18.029453 
L 12.568529 18.186065 
L 12.608386 18.342678 
L 12.648243 18.49929 
L 12.6881 18.655902 
L 12.727957 18.812514 
L 12.767814 18.969126 
L 12.807671 19.125738 
L 12.847528 19.28235 
L 12.887385 19.438962 
L 12.927242 19.595574 
L 12.967099 19.752186 
L 13.006956 19.908798 
L 13.046813 20.06541 
L 13.08667 20.222022 
L 13.126527 20.378634 
L 13.166384 20.535246 
L 13.206241 20.691858 
L 13.246098 20.84847 
L 13.285955 21.005082 
L 13.325812 21.161694 
L 13.365669 21.318307 
L 13.405526 21.474919 
L 13.445383 21.631531 
L 13.48524 21.788143 
L 13.525097 21.944755 
L 13.564954 22.101367 
L 13.604811 22.257979 
L 13.644668 22.414591 
L 13.684525 22.571203 
L 13.724383 22.727815 
L 13.76424 22.884427 
L 13.804097 23.041039 
L 13.843954 23.197651 
L 13.883811 23.354263 
" style="fill:none;stroke:#ff0000;stroke-linecap:square;stroke-width:0.4;"/>
   </g>
   <g id="line2d_35">
    <path clip-path="url(#p0b24c9d8a5)" d="M 26.427192 27.922906 
L 26.190291 27.9493 
L 25.953389 27.975695 
L 25.702619 27.963964 
L 25.451848 27.952233 
L 25.201078 27.940502 
L 24.950308 27.928771 
L 24.744996 27.858434 
L 24.539683 27.788097 
L 24.334371 27.717759 
L 24.129059 27.647422 
L 23.999538 27.561297 
L 23.870016 27.475172 
" style="fill:none;stroke:#000000;stroke-linecap:square;stroke-width:0.4;"/>
   </g>
   <g id="line2d_36">
    <path clip-path="url(#p0b24c9d8a5)" d="M 26.063527 23.382222 
L 25.895887 23.496013 
L 25.728247 23.609804 
L 25.657728 23.721786 
L 25.587209 23.833768 
L 25.51669 23.945751 
L 25.446171 24.057733 
L 25.375652 24.169715 
L 25.305133 24.281697 
L 25.234614 24.39368 
L 25.164095 24.505662 
L 25.068718 24.700592 
L 24.973341 24.895523 
L 24.931857 25.022022 
L 24.890373 25.148521 
L 24.848888 25.275021 
L 24.807404 25.40152 
L 24.76592 25.52802 
L 24.724436 25.654519 
L 24.682952 25.781018 
L 24.641468 25.907518 
L 24.545036 26.103475 
L 24.448605 26.299431 
L 24.352173 26.495388 
L 24.255742 26.691345 
L 24.159311 26.887302 
L 24.062879 27.083258 
L 23.966448 27.279215 
L 23.870016 27.475172 
L 23.708236 27.616188 
L 23.546456 27.757205 
L 23.384676 27.898222 
L 23.222896 28.039238 
L 23.061116 28.180255 
L 22.899336 28.321271 
L 22.737556 28.462288 
L 22.575776 28.603304 
L 22.410812 28.670513 
L 22.245849 28.737722 
L 22.080885 28.804931 
L 21.915922 28.87214 
" style="fill:none;stroke:#ff0000;stroke-linecap:square;stroke-width:0.4;"/>
   </g>
   <g id="line2d_37">
    <path clip-path="url(#p0b24c9d8a5)" d="M 26.647955 12.260441 
L 26.440007 12.253989 
L 26.232059 12.247537 
L 26.024111 12.241085 
L 25.816163 12.234633 
L 25.695887 12.152516 
L 25.575611 12.070399 
L 25.455336 11.988282 
L 25.33506 11.906165 
L 25.207485 11.69205 
L 25.07991 11.477934 
L 24.952335 11.263819 
L 24.82476 11.049703 
L 24.697185 10.835588 
L 24.56961 10.621473 
L 24.442035 10.407357 
L 24.314461 10.193242 
L 24.236723 10.029008 
L 24.158986 9.864773 
L 24.081249 9.700539 
L 24.003512 9.536305 
L 23.925775 9.372071 
L 23.848038 9.207837 
L 23.7703 9.043603 
L 23.692563 8.879369 
L 23.543009 8.829512 
L 23.393455 8.779655 
L 23.243902 8.729798 
L 23.094348 8.679941 
L 22.953553 8.679941 
L 22.812758 8.679941 
L 22.671964 8.679941 
L 22.531169 8.679941 
L 22.396214 8.744462 
L 22.261258 8.808982 
" style="fill:none;stroke:#008000;stroke-linecap:square;stroke-width:0.4;"/>
   </g>
   <g id="line2d_38">
    <path clip-path="url(#p0b24c9d8a5)" d="M 23.528897 13.817147 
L 23.441022 14.012224 
L 23.353147 14.207301 
L 23.265272 14.402377 
L 23.177397 14.597454 
L 23.11507 14.832808 
L 23.052742 15.068161 
L 22.990414 15.303515 
L 22.928087 15.538868 
L 22.865759 15.774221 
L 22.803432 16.009575 
L 22.741104 16.244928 
L 22.678776 16.480282 
L 22.616449 16.715635 
L 22.554121 16.950989 
L 22.491793 17.186342 
L 22.429466 17.421695 
L 22.367138 17.657049 
L 22.304811 17.892402 
L 22.242483 18.127756 
L 22.180155 18.363109 
L 22.0555 18.555204 
L 21.930845 18.7473 
L 21.80619 18.939395 
L 21.681535 19.13149 
L 21.556879 19.323586 
L 21.432224 19.515681 
L 21.307569 19.707776 
L 21.182914 19.899871 
L 21.02452 20.056774 
L 20.866125 20.213676 
L 20.707731 20.370578 
L 20.549337 20.527481 
L 20.390943 20.684383 
L 20.232549 20.841285 
L 20.074155 20.998187 
L 19.915761 21.15509 
L 19.833644 21.331055 
L 19.751528 21.50702 
L 19.669411 21.682985 
L 19.587294 21.85895 
L 19.477298 21.985792 
L 19.367302 22.112633 
L 19.257307 22.239475 
L 19.147311 22.366317 
L 19.037315 22.493158 
L 18.927319 22.62 
L 18.817323 22.746841 
L 18.707327 22.873683 
L 18.597331 23.000524 
L 18.487336 23.127366 
L 18.37734 23.254207 
L 18.267344 23.381049 
L 18.157348 23.507891 
L 18.047352 23.634732 
L 17.937356 23.761574 
L 17.82736 23.888415 
L 17.729844 24.090775 
L 17.632328 24.293135 
L 17.534812 24.495495 
L 17.437296 24.697855 
L 17.33978 24.900215 
L 17.242263 25.102575 
L 17.144747 25.304935 
L 17.047231 25.507295 
L 16.949715 25.709655 
L 16.852199 25.912015 
L 16.754683 26.114375 
L 16.657166 26.316735 
L 16.55965 26.519095 
L 16.462134 26.721454 
L 16.364618 26.923814 
L 16.267102 27.126174 
L 16.226023 27.265456 
L 16.184945 27.404737 
L 16.143866 27.544018 
L 16.102787 27.6833 
L 16.061709 27.822581 
L 16.02063 27.961862 
L 15.979551 28.101144 
L 15.938473 28.240425 
" style="fill:none;stroke:#4169e1;stroke-linecap:square;stroke-width:0.4;"/>
   </g>
   <g id="line2d_39">
    <path clip-path="url(#p0b24c9d8a5)" d="M 14.113008 27.380933 
L 15.711709 29.58062 
L 16.044555 30.474963 
L 16.091554 32.313627 
L 16.529257 33.358408 
L 18.209234 35.49542 
L 19.197595 37.422092 
L 19.56126 38.675697 
L 20.007164 40.237143 
L 20.281414 41.087568 
L 20.424327 42.216519 
L 20.458259 44.597072 
L 21.038084 48.423569 
L 22.042686 51.309556 
L 22.658663 52.980932 
L 22.899214 53.796042 
L 22.899214 53.796042 
" style="fill:none;stroke:#4169e1;stroke-linecap:square;stroke-width:0.4;"/>
   </g>
   <g id="line2d_40">
    <path clip-path="url(#p0b24c9d8a5)" d="M 26.423624 14.435762 
L 26.398948 14.603467 
L 26.374273 14.771171 
L 26.349597 14.938876 
L 26.324921 15.10658 
L 26.300246 15.274285 
L 26.27557 15.441989 
L 26.250895 15.609694 
L 26.226219 15.777399 
L 26.223279 15.931368 
L 26.220339 16.085338 
L 26.217399 16.239307 
L 26.214459 16.393277 
L 26.211519 16.547246 
L 26.208579 16.701216 
L 26.205639 16.855185 
L 26.202699 17.009155 
L 26.18804 17.160192 
L 26.173381 17.311228 
L 26.158721 17.462265 
L 26.144062 17.613302 
L 26.129403 17.764339 
L 26.114743 17.915375 
L 26.100084 18.066412 
L 26.085424 18.217449 
L 26.100104 18.364087 
L 26.114784 18.510724 
L 26.129463 18.657362 
L 26.144143 18.804 
L 26.199861 18.944772 
L 26.255578 19.085544 
L 26.311296 19.226316 
L 26.367014 19.367088 
L 26.48729 19.572381 
L 26.607565 19.777673 
L 26.727841 19.982966 
L 26.848117 20.188259 
L 26.949293 20.28504 
L 27.050468 20.381821 
L 27.151644 20.478601 
L 27.25282 20.575382 
L 27.353996 20.672163 
L 27.455172 20.768944 
L 27.556348 20.865725 
L 27.657524 20.962506 
L 27.751401 21.082748 
L 27.845277 21.202991 
L 27.939154 21.323234 
L 28.033031 21.443477 
L 28.138617 21.528527 
L 28.244202 21.613577 
L 28.349788 21.698627 
L 28.455374 21.783676 
L 28.56096 21.868726 
L 28.666546 21.953776 
L 28.772132 22.038826 
L 28.877718 22.123876 
L 28.983304 22.208926 
L 29.08889 22.293975 
L 29.194476 22.379025 
L 29.300061 22.464075 
L 29.405647 22.549125 
L 29.511233 22.634175 
L 29.616819 22.719224 
L 29.722405 22.804274 
L 29.84412 23.009567 
L 29.965836 23.21486 
L 30.087551 23.420152 
L 30.209266 23.625445 
L 30.330981 23.830738 
L 30.452696 24.03603 
L 30.574412 24.241323 
L 30.696127 24.446616 
L 30.88092 24.599119 
L 31.065713 24.751622 
L 31.250506 24.904125 
L 31.435299 25.056628 
L 31.593693 25.220863 
L 31.752087 25.385097 
L 31.910481 25.549331 
L 32.068875 25.713565 
L 32.141473 25.855791 
L 32.21407 25.998018 
L 32.286667 26.140244 
L 32.359265 26.28247 
L 32.431862 26.424697 
L 32.504459 26.566923 
L 32.577056 26.709149 
L 32.649654 26.851375 
L 32.722251 26.993602 
L 32.794848 27.135828 
L 32.867445 27.278054 
L 32.940043 27.420281 
L 33.01264 27.562507 
L 33.085237 27.704733 
L 33.157835 27.846959 
L 33.230432 27.989186 
L 33.280635 28.209582 
L 33.330837 28.429978 
L 33.38104 28.650375 
L 33.431243 28.870771 
" style="fill:none;stroke:#008000;stroke-linecap:square;stroke-width:0.4;"/>
   </g>
   <g id="line2d_41">
    <path clip-path="url(#p0b24c9d8a5)" d="M 26.191345 12.934388 
L 26.105497 13.062305 
L 26.01965 13.190222 
L 25.933803 13.318139 
L 25.847955 13.446056 
L 25.717298 13.537313 
L 25.586641 13.628571 
L 25.455985 13.719828 
L 25.325328 13.811086 
L 25.169772 13.842173 
L 25.014217 13.87326 
L 24.858661 13.904347 
L 24.703106 13.935434 
L 24.503998 13.904347 
L 24.30489 13.87326 
L 24.105783 13.842173 
L 23.906675 13.811086 
L 23.717786 13.814116 
L 23.528897 13.817147 
L 23.323707 13.814116 
L 23.118517 13.811086 
L 22.986826 13.839069 
L 22.855135 13.867052 
L 22.723444 13.895036 
L 22.591753 13.923019 
L 22.460062 13.951002 
L 22.328371 13.978986 
L 22.19668 14.006969 
L 22.064989 14.034952 
L 21.913611 14.093021 
L 21.762232 14.151089 
L 21.610853 14.209158 
L 21.459475 14.267226 
L 21.31426 14.346069 
L 21.169045 14.424911 
L 21.02383 14.503753 
L 20.878615 14.582595 
L 20.750067 14.700785 
L 20.621519 14.818975 
L 20.492971 14.937165 
L 20.364423 15.055355 
L 20.252419 15.167337 
L 20.140416 15.279319 
L 20.028413 15.391302 
L 19.91641 15.503284 
L 19.761219 15.687461 
L 19.606029 15.871638 
L 19.450839 16.055815 
L 19.295648 16.239992 
L 19.112274 16.288382 
L 18.928901 16.336772 
L 18.745527 16.385163 
L 18.562153 16.433553 
L 18.378779 16.481944 
L 18.195405 16.530334 
L 18.012032 16.578724 
L 17.828658 16.627115 
" style="fill:none;stroke:#008000;stroke-linecap:square;stroke-width:0.4;"/>
   </g>
   <g id="line2d_42">
    <path clip-path="url(#p0b24c9d8a5)" d="M 13.972375 3.305965 
L 14.016373 3.44967 
L 14.060372 3.593375 
L 14.10437 3.73708 
L 14.148368 3.880785 
L 14.227565 4.006893 
L 14.306762 4.133001 
L 14.38596 4.25911 
L 14.465157 4.385218 
L 14.63527 4.526039 
L 14.805383 4.66686 
L 14.975497 4.807681 
L 15.14561 4.948502 
L 15.353842 5.057014 
L 15.562074 5.165526 
L 15.770306 5.274038 
L 15.978538 5.38255 
L 16.154531 5.540918 
L 16.330524 5.699287 
L 16.506518 5.857656 
L 16.682511 6.016024 
L 16.791767 6.127481 
L 16.901023 6.238938 
L 17.010279 6.350395 
L 17.119534 6.461852 
L 17.22879 6.573308 
L 17.338046 6.684765 
L 17.447302 6.796222 
L 17.556558 6.907679 
L 17.665813 7.019136 
L 17.775069 7.130592 
L 17.884325 7.242049 
L 17.993581 7.353506 
L 18.102837 7.464963 
L 18.212092 7.57642 
L 18.321348 7.687877 
L 18.430604 7.799333 
L 18.493114 7.941816 
L 18.555624 8.084299 
L 18.618134 8.226782 
L 18.680644 8.369265 
L 18.743154 8.511748 
L 18.805665 8.654231 
L 18.868175 8.796714 
L 18.930685 8.939197 
L 18.945344 9.096123 
L 18.960003 9.25305 
L 18.974663 9.409977 
L 18.989322 9.566904 
L 19.003982 9.72383 
L 19.018641 9.880757 
L 19.0333 10.037684 
L 19.04796 10.19461 
L 19.080218 10.379374 
L 19.112477 10.564137 
L 19.144736 10.748901 
L 19.176994 10.933664 
L 19.209253 11.118428 
L 19.241512 11.303191 
L 19.273771 11.487954 
L 19.306029 11.672718 
L 19.27671 11.898589 
L 19.247392 12.12446 
L 19.218073 12.35033 
L 19.188754 12.576201 
L 19.074359 12.76683 
L 18.959963 12.957459 
L 18.845567 13.148088 
L 18.731172 13.338717 
" style="fill:none;stroke:#008000;stroke-linecap:square;stroke-width:0.4;"/>
   </g>
   <g id="line2d_43">
    <path clip-path="url(#p0b24c9d8a5)" d="M 25.73506 22.232583 
L 25.555255 22.350577 
L 25.375449 22.468572 
L 25.288345 22.600252 
L 25.20124 22.731933 
L 25.114136 22.863614 
L 25.027031 22.995294 
L 24.939926 23.126975 
L 24.852822 23.258655 
L 24.765717 23.390336 
L 24.678613 23.522017 
L 24.516833 23.665111 
L 24.355053 23.808204 
L 24.193272 23.951298 
L 24.031492 24.094392 
L 23.869712 24.237486 
L 23.707932 24.38058 
L 23.546152 24.523674 
L 23.384372 24.666768 
L 23.246456 24.838872 
L 23.108541 25.010975 
L 22.970625 25.183079 
L 22.83271 25.355183 
L 22.694794 25.527286 
L 22.556879 25.69939 
L 22.418963 25.871494 
L 22.281047 26.043598 
L 22.214665 26.238528 
L 22.148282 26.433458 
L 22.081899 26.628388 
L 22.015516 26.823319 
L 22.027966 27.055593 
L 22.040415 27.287867 
L 22.052864 27.520141 
L 22.065314 27.752415 
L 22.04664 27.89238 
L 22.027966 28.032346 
L 22.009292 28.172312 
L 21.990618 28.312277 
L 21.971944 28.452243 
L 21.95327 28.592209 
L 21.934596 28.732174 
L 21.915922 28.87214 
L 21.857852 29.071274 
L 21.799783 29.270408 
L 21.698789 29.457322 
L 21.597796 29.644236 
L 21.496802 29.83115 
L 21.395809 30.018064 
L 21.294815 30.204978 
L 21.193822 30.391892 
L 21.092828 30.578806 
L 20.991835 30.765721 
L 20.86864 30.871202 
L 20.745444 30.976683 
L 20.645728 31.098392 
L 20.546012 31.220102 
L 20.446296 31.341811 
L 20.34658 31.46352 
L 20.246864 31.585229 
L 20.147148 31.706939 
L 20.047432 31.828648 
L 19.947716 31.950357 
" style="fill:none;stroke:#ff0000;stroke-linecap:square;stroke-width:0.4;"/>
   </g>
   <g id="line2d_44">
    <path clip-path="url(#p0b24c9d8a5)" d="M 8.61293 7.437041 
L 8.642249 7.586611 
L 8.671568 7.736182 
L 8.700886 7.885752 
L 8.730205 8.035322 
L 8.741945 8.186359 
L 8.753684 8.337396 
L 8.765424 8.488433 
L 8.777164 8.639469 
L 8.788903 8.790506 
L 8.800643 8.941543 
L 8.812383 9.09258 
L 8.824122 9.243616 
L 8.886085 9.364544 
L 8.948048 9.485471 
L 9.040262 9.603954 
L 9.132476 9.722437 
L 9.22469 9.84092 
L 9.316904 9.959404 
L 9.384341 10.097243 
L 9.451778 10.235082 
L 9.519215 10.372922 
L 9.586652 10.510761 
L 9.657049 10.724852 
L 9.727447 10.938943 
L 9.797844 11.153034 
L 9.868242 11.367125 
L 9.9152 11.587081 
L 9.962159 11.807038 
L 10.009117 12.026994 
L 10.056076 12.246951 
L 10.108874 12.387723 
L 10.161672 12.528495 
L 10.237909 12.651671 
L 10.314146 12.774846 
L 10.428541 12.877542 
L 10.542937 12.980237 
L 10.657333 13.082932 
L 10.771728 13.185627 
L 10.900763 13.261879 
L 11.029798 13.33813 
L 11.181379 13.334611 
L 11.332961 13.331092 
L 11.506481 13.338717 
L 11.68 13.346342 
L 11.85352 13.353967 
L 12.02704 13.361592 
L 12.167834 13.426113 
L 12.308629 13.490634 
L 12.449424 13.555154 
L 12.590219 13.619675 
L 12.719253 13.695926 
L 12.848288 13.772178 
L 12.977323 13.848429 
L 13.106358 13.924681 
L 13.229553 14.012664 
L 13.352749 14.100646 
L 13.452505 14.223822 
L 13.552262 14.346997 
L 13.643178 14.555223 
L 13.734095 14.763448 
L 13.825011 14.971674 
L 13.915927 15.179899 
L 14.003924 15.303075 
L 14.091921 15.42625 
L 14.206316 15.525964 
L 14.320712 15.625678 
L 14.435108 15.725391 
L 14.549504 15.825105 
L 14.684378 15.901356 
L 14.819252 15.977608 
L 14.960047 16.030397 
L 15.100841 16.083187 
L 15.241636 16.135977 
L 15.382431 16.188766 
L 15.529106 16.223959 
L 15.67578 16.259152 
L 15.822455 16.294345 
L 15.96913 16.329538 
L 16.112844 16.358866 
L 16.256558 16.388193 
L 16.400273 16.417521 
L 16.543987 16.446848 
L 16.704571 16.469382 
L 16.865155 16.491915 
L 17.025739 16.514448 
L 17.186323 16.536982 
L 17.346906 16.559515 
L 17.50749 16.582048 
L 17.668074 16.604582 
L 17.828658 16.627115 
" style="fill:none;stroke:#4169e1;stroke-linecap:square;stroke-width:0.4;"/>
   </g>
   <g id="line2d_45">
    <path clip-path="url(#p0b24c9d8a5)" d="M 3.113664 29.386154 
L 2.960176 29.247825 
L 2.806689 29.109497 
L 2.653202 28.971169 
L 2.499714 28.832841 
L 2.449917 28.633805 
L 2.530817 28.503151 
L 2.611718 28.372497 
L 2.692618 28.241842 
L 2.773518 28.111188 
L 2.838846 27.968119 
L 2.904175 27.825049 
L 2.969503 27.68198 
L 3.034832 27.53891 
L 3.10016 27.395841 
L 3.165489 27.252772 
L 3.230817 27.109702 
L 3.296145 26.966633 
L 3.409162 26.897151 
L 3.522179 26.827669 
L 3.635196 26.758187 
L 3.748213 26.688705 
L 3.86123 26.619224 
L 3.974247 26.549742 
L 4.087264 26.48026 
L 4.200281 26.410778 
L 4.365163 26.269786 
L 4.530046 26.128794 
L 4.694928 25.987802 
L 4.85981 25.84681 
L 5.024692 25.705818 
L 5.189575 25.564826 
L 5.354457 25.423834 
L 5.519339 25.282841 
L 5.679051 25.238239 
L 5.838763 25.193637 
L 5.998475 25.149035 
L 6.158187 25.104432 
L 6.317899 25.05983 
L 6.477611 25.015228 
L 6.637323 24.970625 
L 6.797035 24.926023 
L 6.943102 24.850212 
L 7.089168 24.7744 
L 7.235234 24.698588 
L 7.381301 24.622777 
" style="fill:none;stroke:#008000;stroke-linecap:square;stroke-width:0.4;"/>
   </g>
   <g id="line2d_46">
    <path clip-path="url(#p0b24c9d8a5)" d="M 30.793126 18.278255 
L 30.933678 18.39273 
L 31.074229 18.507205 
L 31.285421 18.615717 
L 31.496613 18.724229 
L 31.707805 18.83274 
L 31.918997 18.941252 
L 32.049512 19.08789 
L 32.180027 19.234528 
L 32.310542 19.381165 
L 32.441057 19.527803 
L 32.571572 19.674441 
L 32.702087 19.821078 
L 32.832602 19.967716 
L 32.963117 20.114353 
L 33.095112 20.299117 
L 33.227107 20.48388 
L 33.359102 20.668644 
L 33.491097 20.853407 
L 33.570294 20.991247 
L 33.649491 21.129086 
L 33.728688 21.266925 
L 33.807885 21.404765 
L 33.863603 21.542604 
L 33.91932 21.680443 
L 33.975038 21.818283 
L 34.030756 21.956122 
L 34.019077 22.163101 
L 34.007398 22.37008 
L 33.995719 22.577059 
L 33.98404 22.784038 
L 33.972362 22.991017 
L 33.960683 23.197996 
L 33.949004 23.404975 
L 33.937325 23.611954 
" style="fill:none;stroke:#4169e1;stroke-linecap:square;stroke-width:0.4;"/>
   </g>
   <g id="line2d_47">
    <path clip-path="url(#p0b24c9d8a5)" d="M 26.476016 26.348799 
L 26.446211 26.50184 
L 26.416406 26.654881 
L 26.3866 26.807922 
L 26.356795 26.960963 
L 26.374394 27.201448 
L 26.391994 27.441934 
L 26.409593 27.68242 
L 26.427192 27.922906 
L 26.49759 28.139929 
L 26.567987 28.356953 
L 26.638384 28.573977 
L 26.708782 28.791 
L 26.776239 28.933239 
L 26.843696 29.075477 
L 26.911154 29.217716 
L 26.978611 29.359954 
L 27.046069 29.502193 
L 27.113526 29.644431 
L 27.180983 29.78667 
L 27.248441 29.928908 
L 27.363647 30.111863 
L 27.478854 30.294818 
L 27.594061 30.477773 
L 27.709268 30.660728 
L 27.824474 30.843683 
L 27.939681 31.026638 
L 28.054888 31.209593 
L 28.170095 31.392548 
L 28.196494 31.615412 
L 28.222893 31.838277 
L 28.249292 32.061142 
L 28.275691 32.284007 
L 28.30209 32.506871 
L 28.328489 32.729736 
L 28.354888 32.952601 
L 28.381287 33.175466 
L 28.363687 33.404221 
L 28.346088 33.632975 
L 28.328489 33.86173 
L 28.310889 34.090485 
L 28.266273 34.236988 
L 28.221656 34.383491 
L 28.177039 34.529994 
L 28.132422 34.676498 
L 28.087806 34.823001 
L 28.043189 34.969504 
L 27.998572 35.116007 
L 27.953955 35.26251 
L 27.909339 35.409014 
L 27.864722 35.555517 
L 27.820105 35.70202 
L 27.775488 35.848523 
L 27.730871 35.995027 
L 27.686255 36.14153 
L 27.641638 36.288033 
L 27.597021 36.434536 
L 27.592013 36.607153 
L 27.587005 36.77977 
L 27.581997 36.952387 
L 27.576989 37.125004 
L 27.571981 37.297621 
L 27.566973 37.470238 
L 27.561964 37.642855 
L 27.556956 37.815472 
L 27.607605 37.975111 
L 27.658254 38.134751 
L 27.708903 38.29439 
L 27.759552 38.45403 
L 27.910606 38.653433 
L 28.06166 38.852835 
L 28.212714 39.052238 
L 28.363768 39.251641 
L 28.514823 39.451044 
L 28.665877 39.650446 
L 28.816931 39.849849 
L 28.967985 40.049252 
L 29.11464 40.217861 
L 29.261294 40.386469 
L 29.407949 40.555078 
L 29.554603 40.723687 
L 29.701257 40.892296 
L 29.847912 41.060905 
L 29.994566 41.229514 
L 30.141221 41.398123 
L 30.229197 41.525697 
L 30.317173 41.653272 
L 30.40515 41.780847 
L 30.493126 41.908422 
L 30.581103 42.035996 
L 30.669079 42.163571 
L 30.757056 42.291146 
L 30.845032 42.418721 
L 30.888665 42.561203 
L 30.932299 42.703686 
L 30.975932 42.846169 
L 31.019566 42.988652 
" style="fill:none;stroke:#ff0000;stroke-linecap:square;stroke-width:0.4;"/>
   </g>
   <g id="line2d_48">
    <path clip-path="url(#p0b24c9d8a5)" d="M 26.647955 12.260441 
L 26.324029 12.519501 
L 26.199617 13.261977 
L 26.315757 14.012664 
L 26.584066 14.692085 
L 28.441303 17.517156 
L 29.499048 18.08743 
L 30.453061 18.274051 
L 30.988098 18.224292 
L 31.4486 18.012743 
L 31.790855 17.7442 
L 32.775931 16.511369 
L 33.273741 16.162958 
L 33.995395 16.221026 
L 34.696449 16.68968 
L 34.887284 17.067028 
L 34.938115 17.683957 
L 34.841664 18.769589 
L 34.567819 20.470145 
L 34.493205 22.317926 
L 34.298274 23.014699 
L 33.866847 23.935437 
L 33.825403 24.582402 
L 33.985095 25.21485 
L 34.470374 26.639435 
L 34.462061 26.960865 
L 34.211088 27.585101 
L 33.717496 28.261199 
L 33.298558 29.3187 
L 33.235501 30.298191 
L 33.157926 31.650434 
L 32.779662 33.852736 
L 32.999613 35.082904 
L 33.078769 35.805754 
L 32.668145 37.283764 
L 32.183474 39.218427 
L 31.596086 41.727422 
L 31.001966 43.284811 
L 30.837692 44.366802 
L 30.242234 45.240566 
L 28.940045 46.859299 
L 28.511822 47.322625 
L 27.464681 48.329806 
L 26.643453 49.504105 
L 26.210566 50.393266 
L 25.554849 51.644574 
L 24.165231 52.979857 
L 23.841671 53.336479 
L 23.480722 53.908659 
L 23.480722 53.908659 
" style="fill:none;stroke:#4169e1;stroke-linecap:square;stroke-width:0.4;"/>
   </g>
   <g id="line2d_49">
    <path clip-path="url(#p0b24c9d8a5)" d="M 22.03563 35.68336 
L 22.03563 35.917981 
L 21.974032 36.140821 
L 21.912435 36.363661 
L 21.850837 36.586502 
L 21.789239 36.809342 
L 21.702702 36.961845 
L 21.616166 37.114348 
L 21.529629 37.266851 
L 21.443092 37.419355 
L 21.356555 37.571858 
L 21.270018 37.724361 
L 21.183481 37.876864 
L 21.096944 38.029367 
L 21.041227 38.173023 
L 20.985509 38.316679 
L 20.929791 38.460335 
L 20.874074 38.603991 
L 20.876993 38.76236 
L 20.879913 38.920729 
L 20.882833 39.079097 
L 20.885752 39.237466 
L 20.918031 39.387036 
L 20.95031 39.536607 
L 20.982589 39.686177 
L 21.014868 39.835747 
L 21.085266 39.988153 
L 21.155663 40.140558 
L 21.281778 40.339985 
L 21.407893 40.539413 
L 21.534008 40.73884 
L 21.660123 40.938267 
L 21.730521 41.068029 
L 21.800918 41.197791 
L 21.871315 41.327553 
L 21.941713 41.457315 
L 22.01211 41.587077 
L 22.082507 41.716839 
L 22.152905 41.846602 
L 22.223302 41.976364 
L 22.2937 42.106126 
L 22.364097 42.235888 
L 22.434494 42.36565 
L 22.504892 42.495412 
L 22.575289 42.625174 
L 22.645686 42.754936 
L 22.716084 42.884698 
L 22.786481 43.01446 
L 22.848038 43.166915 
L 22.909595 43.319369 
L 22.971152 43.471823 
L 23.03271 43.624277 
L 23.056229 43.776781 
L 23.079749 43.929284 
L 23.079749 44.083962 
L 23.079749 44.23864 
L 23.079749 44.393319 
L 23.079749 44.547997 
L 23.079749 44.702675 
L 23.079749 44.857353 
L 23.079749 45.012032 
L 23.079749 45.16671 
L 23.079749 45.321388 
L 23.079749 45.476066 
L 23.079749 45.630745 
L 23.079749 45.785423 
L 23.079749 45.940101 
L 23.079749 46.09478 
L 23.079749 46.249458 
L 23.079749 46.404136 
L 23.110548 46.555148 
L 23.141347 46.706161 
L 23.172146 46.857173 
L 23.202945 47.008185 
L 23.233744 47.159198 
L 23.264542 47.31021 
L 23.295341 47.461222 
L 23.32614 47.612235 
L 23.356939 47.763247 
L 23.387738 47.914259 
L 23.418537 48.065272 
L 23.449335 48.216284 
L 23.480134 48.367296 
L 23.510933 48.518309 
L 23.541732 48.669321 
L 23.572531 48.820333 
L 23.58279 48.971346 
L 23.59305 49.122358 
L 23.603309 49.27337 
L 23.613569 49.424383 
L 23.623828 49.575395 
L 23.634088 49.726407 
L 23.644347 49.87742 
L 23.654607 50.028432 
L 23.628208 50.175021 
L 23.601809 50.321609 
L 23.57541 50.468198 
L 23.549011 50.614787 
L 23.478614 50.808349 
L 23.408216 51.00191 
L 23.284453 51.147399 
L 23.16069 51.292888 
L 23.036927 51.438377 
L 22.913164 51.583866 
L 22.789401 51.729355 
L 22.665638 51.874844 
L 22.541875 52.020333 
L 22.418111 52.165822 
" style="fill:none;stroke:#008000;stroke-linecap:square;stroke-width:0.4;"/>
   </g>
   <g id="line2d_50">
    <path clip-path="url(#p0b24c9d8a5)" d="M 26.367014 19.367088 
L 26.371617 19.524381 
L 26.376219 19.681675 
L 26.380822 19.838968 
L 26.385424 19.996261 
L 26.390027 20.153555 
L 26.394629 20.310848 
L 26.399232 20.468141 
L 26.403835 20.625435 
L 26.348117 20.766207 
L 26.292399 20.906979 
L 26.236681 21.047751 
L 26.180964 21.188523 
L 26.104686 21.308766 
L 26.028409 21.429009 
L 25.952132 21.549252 
L 25.875854 21.669495 
L 25.840656 21.810267 
L 25.805457 21.951039 
L 25.770258 22.091811 
L 25.73506 22.232583 
L 25.72922 22.379221 
L 25.723381 22.525858 
L 25.75858 22.678361 
L 25.793778 22.830865 
L 25.861215 22.968704 
L 25.928652 23.106543 
L 25.99609 23.244383 
L 26.063527 23.382222 
L 26.166203 23.493667 
L 26.268879 23.605111 
L 26.371556 23.716556 
L 26.474232 23.828001 
L 26.597427 23.910118 
L 26.720623 23.992235 
L 26.862877 24.056755 
L 27.005132 24.121276 
L 27.147386 24.185796 
L 27.289641 24.250317 
L 27.431896 24.314838 
L 27.57415 24.379358 
L 27.716405 24.443879 
L 27.858659 24.508399 
L 27.991141 24.593449 
L 28.123623 24.678499 
L 28.256104 24.763549 
L 28.388586 24.848599 
L 28.464823 24.97764 
L 28.54106 25.106681 
L 28.664255 25.206394 
L 28.78745 25.306108 
L 28.920905 25.391158 
L 29.05436 25.476208 
L 29.187815 25.561257 
L 29.32127 25.646307 
L 29.454725 25.731357 
L 29.58818 25.816407 
L 29.721635 25.901457 
L 29.855089 25.986507 
L 29.972405 26.083287 
L 30.08972 26.180068 
L 30.207036 26.276849 
L 30.324351 26.37363 
L 30.476906 26.558345 
L 30.62946 26.743059 
L 30.782015 26.927774 
L 30.93457 27.112488 
L 31.016686 27.25326 
L 31.098803 27.394032 
L 31.18092 27.534805 
L 31.263037 27.675577 
L 31.377412 27.816349 
L 31.491787 27.957121 
L 31.606163 28.097893 
L 31.720538 28.238665 
L 31.834914 28.379437 
L 31.949289 28.52021 
L 32.063665 28.660982 
L 32.17804 28.801754 
L 32.257237 28.933728 
L 32.336434 29.065702 
L 32.415631 29.197675 
L 32.494828 29.329649 
L 32.606345 29.446959 
L 32.717861 29.56427 
L 32.844382 29.614859 
L 32.970902 29.665449 
L 33.097423 29.716039 
L 33.223944 29.766629 
" style="fill:none;stroke:#008000;stroke-linecap:square;stroke-width:0.4;"/>
   </g>
   <g id="line2d_51">
    <path clip-path="url(#p0b24c9d8a5)" d="M 9.245209 6.35681 
L 11.159238 5.712826 
L 12.69403 5.986697 
L 15.021056 7.564884 
L 16.257167 8.761472 
L 18.036606 11.013826 
L 18.708057 12.802023 
L 18.662923 14.195007 
L 17.913816 16.447337 
L 16.808869 18.579155 
L 15.722049 20.176015 
L 14.987906 21.951063 
L 13.465563 24.626198 
L 13.465563 25.049199 
L 13.663008 25.520932 
L 14.369779 26.62526 
L 14.113008 27.380933 
L 14.113008 27.380933 
" style="fill:none;stroke:#008000;stroke-linecap:square;stroke-width:0.4;"/>
   </g>
   <g id="line2d_52">
    <path clip-path="url(#p0b24c9d8a5)" d="M 9.391032 4.80949 
L 9.502467 4.709776 
L 9.613903 4.610063 
L 9.725338 4.510349 
L 9.836774 4.410635 
L 10.045046 4.307989 
L 10.253318 4.205343 
L 10.461591 4.102696 
L 10.669863 4.00005 
L 10.848776 3.873942 
L 11.027689 3.747833 
L 11.206602 3.621725 
L 11.385515 3.495616 
L 11.602547 3.442827 
L 11.819578 3.390037 
L 12.03661 3.337248 
L 12.253641 3.284458 
L 12.500032 3.281526 
L 12.746423 3.278593 
L 12.992814 3.27566 
L 13.239204 3.272727 
L 13.435717 3.281526 
L 13.632229 3.290324 
L 13.828742 3.299122 
L 14.025254 3.30792 
L 14.157239 3.343847 
L 14.289224 3.379773 
L 14.421209 3.415699 
L 14.553194 3.451625 
L 14.685179 3.487551 
L 14.817164 3.523478 
L 14.949149 3.559404 
L 15.081133 3.59533 
L 15.213118 3.631256 
L 15.345103 3.667183 
L 15.477088 3.703109 
L 15.609073 3.739035 
L 15.741058 3.774961 
L 15.873043 3.810887 
L 16.005028 3.846814 
L 16.137013 3.88274 
L 16.268998 3.918666 
L 16.400982 3.954592 
L 16.532967 3.990519 
L 16.664952 4.026445 
L 16.796937 4.062371 
L 16.928922 4.098297 
L 17.060907 4.134223 
L 17.192892 4.17015 
L 17.324877 4.206076 
L 17.456862 4.242002 
L 17.588847 4.277928 
L 17.720832 4.313855 
L 17.852816 4.349781 
L 17.984801 4.385707 
L 18.116786 4.421633 
L 18.248771 4.457559 
L 18.440884 4.583692 
L 18.632996 4.709825 
L 18.825109 4.835958 
L 19.017222 4.962091 
L 19.209334 5.088223 
L 19.401447 5.214356 
L 19.593559 5.340489 
L 19.785672 5.466622 
L 19.903008 5.56047 
L 20.020343 5.654318 
L 20.137679 5.748166 
L 20.255015 5.842014 
L 20.37235 5.935862 
L 20.489686 6.02971 
L 20.607022 6.123559 
L 20.724358 6.217407 
L 20.824074 6.337649 
L 20.92379 6.457892 
L 21.023506 6.578135 
L 21.123222 6.698378 
L 21.194349 6.830291 
L 21.265476 6.962204 
L 21.336604 7.094116 
L 21.407731 7.226029 
L 21.478858 7.357942 
L 21.549986 7.489855 
L 21.621113 7.621767 
L 21.69224 7.75368 
L 21.763367 7.885593 
L 21.834495 8.017506 
L 21.905622 8.149419 
L 21.976749 8.281331 
L 22.047877 8.413244 
L 22.119004 8.545157 
L 22.190131 8.67707 
L 22.261258 8.808982 
L 22.325046 8.932977 
L 22.388833 9.056971 
L 22.452621 9.180966 
L 22.516408 9.30496 
L 22.580196 9.428954 
L 22.643983 9.552949 
L 22.707771 9.676943 
L 22.771558 9.800937 
L 22.835346 9.924932 
L 22.899133 10.048926 
L 22.962921 10.17292 
L 23.026708 10.296915 
L 23.090495 10.420909 
L 23.154283 10.544903 
L 23.21807 10.668898 
L 23.281858 10.792892 
L 23.327458 11.025019 
L 23.373058 11.257147 
L 23.418658 11.489274 
L 23.464258 11.721402 
L 23.509859 11.953529 
L 23.555459 12.185656 
L 23.601059 12.417784 
L 23.646659 12.649911 
L 23.655459 12.80828 
L 23.664258 12.966648 
L 23.673058 13.125017 
L 23.681858 13.283386 
L 23.643618 13.416826 
L 23.605377 13.550266 
L 23.567137 13.683706 
L 23.528897 13.817147 
" style="fill:none;stroke:#008000;stroke-linecap:square;stroke-width:0.4;"/>
   </g>
   <g id="line2d_53">
    <path clip-path="url(#p0b24c9d8a5)" d="M 26.144143 18.804 
L 26.025611 18.911729 
L 25.907079 19.019459 
L 25.788547 19.127189 
L 25.670015 19.234919 
L 25.528977 19.325125 
L 25.387939 19.415332 
L 25.246901 19.505538 
L 25.105863 19.595745 
L 24.964825 19.685952 
L 24.823787 19.776158 
L 24.682749 19.866365 
L 24.541711 19.956571 
L 24.435953 20.072708 
L 24.330195 20.188845 
L 24.224436 20.304982 
L 24.118678 20.421119 
L 24.027437 20.61605 
L 23.936196 20.81098 
L 23.915454 20.946815 
L 23.894712 21.082651 
L 23.87397 21.218486 
L 23.853228 21.354321 
L 23.832486 21.490157 
L 23.811744 21.625992 
L 23.791002 21.761827 
L 23.77026 21.897663 
L 23.670665 22.084284 
L 23.571071 22.270904 
L 23.43425 22.432695 
L 23.29743 22.594485 
L 23.154323 22.686769 
L 23.011217 22.779053 
L 22.868111 22.871337 
L 22.725005 22.963621 
L 22.581899 23.055905 
L 22.438793 23.148188 
L 22.295687 23.240472 
L 22.15258 23.332756 
L 21.928574 23.423965 
L 21.704568 23.515174 
L 21.584252 23.620948 
L 21.463935 23.726723 
L 21.343619 23.832497 
L 21.223303 23.938272 
L 21.127926 24.068926 
L 21.032549 24.19958 
L 20.937172 24.330234 
L 20.841795 24.460889 
L 20.75986 24.607086 
L 20.677926 24.753284 
L 20.595992 24.899482 
L 20.514058 25.04568 
L 20.432123 25.191877 
L 20.350189 25.338075 
L 20.268255 25.484273 
L 20.186321 25.63047 
L 20.15832 25.797393 
L 20.130319 25.964315 
L 20.102318 26.131238 
L 20.074317 26.29816 
L 20.046317 26.465083 
L 20.018316 26.632006 
L 19.990315 26.798928 
L 19.962314 26.965851 
L 19.963571 27.108199 
L 19.964828 27.250548 
L 19.966086 27.392896 
L 19.967343 27.535244 
L 19.9686 27.677593 
L 19.969857 27.819941 
L 19.971114 27.96229 
L 19.972371 28.104638 
L 19.973628 28.246987 
L 19.974885 28.389335 
L 19.976142 28.531684 
L 19.977399 28.674032 
L 19.978656 28.816381 
L 19.979914 28.958729 
L 19.981171 29.101078 
L 19.982428 29.243426 
L 19.950149 29.398862 
L 19.91787 29.554298 
L 19.885591 29.709734 
L 19.853312 29.86517 
L 19.791714 30.000077 
L 19.730117 30.134983 
L 19.668519 30.26989 
L 19.606921 30.404796 
L 19.583482 30.563165 
L 19.560044 30.721534 
L 19.583523 30.879902 
L 19.607002 31.038271 
L 19.630482 31.19664 
L 19.653961 31.355008 
L 19.7274 31.503846 
L 19.800838 31.652683 
L 19.874277 31.80152 
L 19.947716 31.950357 
L 20.029711 32.127007 
L 20.111706 32.303656 
L 20.193701 32.480306 
L 20.275696 32.656955 
L 20.422371 32.844651 
L 20.569045 33.032347 
L 20.71572 33.220044 
L 20.862395 33.40774 
L 20.97971 33.516252 
L 21.097026 33.624764 
L 21.214341 33.733275 
L 21.331656 33.841787 
L 21.412313 34.033858 
L 21.49297 34.225929 
L 21.573627 34.418 
L 21.654284 34.610071 
L 21.734941 34.802142 
L 21.815598 34.994212 
L 21.896255 35.186283 
L 21.976911 35.378354 
L 22.006271 35.530857 
L 22.03563 35.68336 
" style="fill:none;stroke:#ff0000;stroke-linecap:square;stroke-width:0.4;"/>
   </g>
   <g id="line2d_54">
    <path clip-path="url(#p0b24c9d8a5)" d="M 26.427192 27.922906 
L 26.371191 28.055759 
L 26.315189 28.188613 
L 26.259188 28.321467 
L 26.203186 28.45432 
L 26.173908 28.595092 
L 26.14463 28.735865 
L 26.13875 28.964619 
L 26.13287 29.193374 
L 26.12699 29.422129 
L 26.12111 29.650883 
L 26.068312 29.800405 
L 26.015514 29.949927 
L 25.962716 30.099448 
L 25.909918 30.24897 
L 25.816082 30.363347 
L 25.722245 30.477724 
L 25.628409 30.592102 
L 25.534573 30.706479 
L 25.36738 30.856049 
L 25.200186 31.00562 
L 25.032992 31.15519 
L 24.865798 31.304761 
L 24.745523 31.383945 
L 24.625247 31.463129 
L 24.504971 31.542314 
L 24.384696 31.621498 
L 24.28502 31.732942 
L 24.185345 31.844387 
L 24.114947 31.970495 
L 24.04455 32.096604 
L 23.974153 32.222712 
L 23.903755 32.348821 
L 23.856837 32.492477 
L 23.809919 32.636133 
L 23.763001 32.779789 
L 23.716083 32.923445 
L 23.610163 33.102538 
L 23.504242 33.281631 
L 23.398322 33.460725 
L 23.292401 33.639818 
L 23.226018 33.781861 
L 23.159636 33.923904 
L 23.093253 34.065947 
L 23.02687 34.20799 
L 22.960487 34.350033 
L 22.894105 34.492076 
L 22.827722 34.634119 
L 22.761339 34.776162 
L 22.674235 34.904715 
L 22.58713 35.033267 
L 22.500025 35.161819 
L 22.412921 35.290372 
L 22.318598 35.388619 
L 22.224275 35.486866 
L 22.129953 35.585113 
L 22.03563 35.68336 
" style="fill:none;stroke:#ff0000;stroke-linecap:square;stroke-width:0.4;"/>
   </g>
   <g id="line2d_55">
    <path clip-path="url(#p0b24c9d8a5)" d="M 22.261258 8.808982 
L 22.173059 9.021363 
L 22.084859 9.233743 
L 21.99666 9.446123 
L 21.908461 9.658503 
L 21.865202 9.825682 
L 21.821944 9.992861 
L 21.778686 10.160041 
L 21.735427 10.32722 
L 21.692169 10.494399 
L 21.648911 10.661578 
L 21.605653 10.828757 
L 21.562394 10.995936 
L 21.519136 11.163115 
L 21.475878 11.330294 
L 21.432619 11.497474 
L 21.389361 11.664653 
L 21.346103 11.831832 
L 21.302845 11.999011 
L 21.259586 12.16619 
L 21.216328 12.333369 
L 21.145931 12.513758 
L 21.075533 12.694147 
L 21.005136 12.874535 
L 20.934739 13.054924 
L 20.864341 13.235313 
L 20.793944 13.415702 
L 20.723547 13.59609 
L 20.653149 13.776479 
L 20.617058 13.936339 
L 20.580968 14.096198 
L 20.544877 14.256058 
L 20.508786 14.415917 
L 20.472695 14.575776 
L 20.436604 14.735636 
L 20.400513 14.895495 
L 20.364423 15.055355 
" style="fill:none;stroke:#008000;stroke-linecap:square;stroke-width:0.4;"/>
   </g>
   <g id="line2d_56">
    <path clip-path="url(#p0b24c9d8a5)" d="M 26.063527 23.382222 
L 26.096292 23.53145 
L 26.129058 23.680679 
L 26.161823 23.829907 
L 26.194589 23.979135 
L 26.201909 24.206423 
L 26.209228 24.433712 
L 26.216548 24.661 
L 26.223867 24.888288 
L 26.231187 25.115577 
L 26.238506 25.342865 
L 26.245826 25.570153 
L 26.253145 25.797442 
L 26.308863 25.935281 
L 26.364581 26.073121 
L 26.420299 26.21096 
L 26.476016 26.348799 
L 26.590412 26.505702 
L 26.704808 26.662604 
L 26.819203 26.819506 
L 26.933599 26.976408 
L 27.047995 27.133311 
L 27.162391 27.290213 
L 27.276786 27.447115 
L 27.391182 27.604018 
L 27.549576 27.788757 
L 27.70797 27.973496 
L 27.866364 28.158235 
L 28.024758 28.342973 
L 28.183152 28.527712 
L 28.341546 28.712451 
L 28.49994 28.89719 
L 28.658334 29.081929 
L 28.848987 29.249096 
L 29.03964 29.416263 
L 29.230293 29.58343 
L 29.420945 29.750597 
L 29.611598 29.917764 
L 29.802251 30.084931 
L 29.992904 30.252098 
L 30.183556 30.419265 
L 30.277392 30.536575 
L 30.371229 30.653885 
L 30.465065 30.771195 
L 30.558901 30.888505 
L 30.705555 31.011681 
L 30.85221 31.134856 
L 30.998864 31.258032 
L 31.145518 31.381208 
L 31.292173 31.504383 
L 31.438827 31.627559 
L 31.585482 31.750734 
L 31.732136 31.87391 
L 31.89345 32.029297 
L 32.054764 32.184684 
L 32.216077 32.340071 
L 32.377391 32.495458 
L 32.424005 32.627725 
L 32.470619 32.759992 
L 32.517233 32.89226 
L 32.563847 33.024527 
L 32.610461 33.156794 
L 32.657075 33.289061 
L 32.703688 33.421328 
L 32.750302 33.553595 
" style="fill:none;stroke:#4169e1;stroke-linecap:square;stroke-width:0.4;"/>
   </g>
   <g id="line2d_57">
    <path clip-path="url(#p0b24c9d8a5)" d="M 9.245209 6.35681 
L 9.856928 7.101192 
L 10.622418 8.283238 
L 11.390868 9.057484 
L 13.16832 10.36559 
L 13.659662 11.047553 
L 14.312196 11.966971 
L 15.494231 12.732444 
L 16.871359 14.326566 
L 17.782125 16.494799 
L 18.023873 16.911592 
L 18.745892 18.152146 
L 18.964383 19.052501 
L 18.838268 20.152284 
L 18.442323 21.284326 
L 17.142933 22.850319 
L 15.984377 24.243278 
L 15.767345 24.677326 
L 15.694069 25.483833 
L 15.862743 26.957468 
L 15.938473 28.240425 
L 15.510249 29.183012 
L 15.510249 29.183012 
" style="fill:none;stroke:#4169e1;stroke-linecap:square;stroke-width:0.4;"/>
   </g>
  </g>
 </g>
 <defs>
  <clipPath id="p0b24c9d8a5">
   <rect height="72" width="36.605085" x="0" y="0"/>
  </clipPath>
 </defs>
</svg>
