<?xml version="1.0" encoding="utf-8" standalone="no"?>
<!DOCTYPE svg PUBLIC "-//W3C//DTD SVG 1.1//EN"
  "http://www.w3.org/Graphics/SVG/1.1/DTD/svg11.dtd">
<svg height="72.55659pt" version="1.1" viewBox="0 0 72 72.55659" width="72pt" xmlns="http://www.w3.org/2000/svg" xmlns:xlink="http://www.w3.org/1999/xlink">
 <metadata>
  <rdf:RDF xmlns:cc="http://creativecommons.org/ns#" xmlns:dc="http://purl.org/dc/elements/1.1/" xmlns:rdf="http://www.w3.org/1999/02/22-rdf-syntax-ns#">
   <cc:Work>
    <dc:type rdf:resource="http://purl.org/dc/dcmitype/StillImage"/>
    <dc:date>2022-05-18T23:19:21.486634</dc:date>
    <dc:format>image/svg+xml</dc:format>
    <dc:creator>
     <cc:Agent>
      <dc:title>Matplotlib v3.4.3, https://matplotlib.org/</dc:title>
     </cc:Agent>
    </dc:creator>
   </cc:Work>
  </rdf:RDF>
 </metadata>
 <defs>
  <style type="text/css">*{stroke-linecap:butt;stroke-linejoin:round;}</style>
 </defs>
 <g id="figure_1">
  <g id="patch_1">
   <path d="M 0 72.55659 
L 72 72.55659 
L 72 0 
L 0 0 
z
" style="fill:#ffffff;"/>
  </g>
  <g id="axes_1">
   <g id="line2d_1">
    <path clip-path="url(#p2bd56f24c0)" d="M 26.050948 67.401026 
L 23.462704 65.917192 
L 20.87446 64.433359 
L 18.286216 62.949525 
L 15.697972 61.465691 
L 13.109728 59.981857 
L 10.521484 58.498024 
L 7.933239 57.01419 
L 5.344995 55.530356 
" style="fill:none;stroke:#808080;stroke-linecap:square;stroke-width:0.4;"/>
   </g>
   <g id="line2d_2">
    <path clip-path="url(#p2bd56f24c0)" d="M 42.651725 56.215003 
L 39.959547 53.002004 
L 37.980758 50.64101 
L 36.001968 48.280015 
L 34.186519 46.11335 
L 32.371071 43.946685 
L 30.148745 41.294543 
L 27.92642 38.642401 
L 26.287596 36.687008 
L 24.648773 34.731615 
L 22.921883 32.670759 
" style="fill:none;stroke:#808080;stroke-linecap:square;stroke-width:0.4;"/>
   </g>
   <g id="line2d_3">
    <path clip-path="url(#p2bd56f24c0)" d="M 44.164106 49.141011 
L 40.93861 46.181815 
L 37.904007 43.398276 
L 35.724485 41.398969 
L 34.031542 39.84572 
L 32.338599 38.29247 
L 30.501503 36.607133 
L 28.664407 34.921795 
L 25.777401 32.274494 
L 23.561472 30.2413 
" style="fill:none;stroke:#808080;stroke-linecap:square;stroke-width:0.4;"/>
   </g>
   <g id="line2d_4">
    <path clip-path="url(#p2bd56f24c0)" d="M 47.118023 45.723309 
L 45.608101 43.91885 
L 44.09818 42.11439 
L 42.588258 40.309931 
L 41.078336 38.505472 
" style="fill:none;stroke:#808080;stroke-linecap:square;stroke-width:0.4;"/>
   </g>
   <g id="line2d_5">
    <path clip-path="url(#p2bd56f24c0)" d="M 49.232603 39.328431 
L 46.784453 36.06149 
L 44.472093 32.97643 
L 42.221724 29.974357 
L 39.796206 26.738536 
L 38.294648 24.73508 
L 36.79309 22.731624 
L 35.41945 20.899329 
L 34.04581 19.067034 
L 32.271935 16.700334 
L 30.498059 14.333635 
L 28.724184 11.966935 
L 26.950309 9.600236 
" style="fill:none;stroke:#808080;stroke-linecap:square;stroke-width:0.4;"/>
   </g>
   <g id="line2d_6">
    <path clip-path="url(#p2bd56f24c0)" d="M 51.71716 27.304926 
L 49.208741 24.190475 
L 46.700323 21.076023 
L 44.191904 17.961571 
L 41.683485 14.84712 
" style="fill:none;stroke:#808080;stroke-linecap:square;stroke-width:0.4;"/>
   </g>
   <g id="line2d_7">
    <path clip-path="url(#p2bd56f24c0)" d="M 68.727273 14.429416 
L 65.522194 13.969181 
L 62.317116 13.508947 
L 59.112037 13.048712 
L 55.906959 12.588477 
" style="fill:none;stroke:#808080;stroke-linecap:square;stroke-width:0.4;"/>
   </g>
   <g id="line2d_8">
    <path clip-path="url(#p2bd56f24c0)" d="M 61.995845 35.946691 
L 59.696277 36.382375 
L 57.245176 36.846413 
L 54.794074 37.310452 
" style="fill:none;stroke:#808080;stroke-linecap:square;stroke-width:0.4;"/>
   </g>
   <g id="line2d_9">
    <path clip-path="url(#p2bd56f24c0)" d="M 3.272727 57.869221 
L 3.923109 58.225138 
L 4.573491 58.581054 
L 5.223873 58.936971 
L 5.874255 59.292888 
L 6.524637 59.648805 
L 7.175019 60.004722 
L 7.825401 60.360639 
L 8.475783 60.716556 
L 9.126165 61.072473 
L 9.776547 61.42839 
L 10.426929 61.784307 
L 11.077311 62.140224 
L 11.727693 62.496141 
L 12.378075 62.852058 
L 13.028457 63.207975 
L 13.678839 63.563892 
L 14.329221 63.919809 
L 14.979603 64.275726 
L 15.629985 64.631642 
L 16.280367 64.987559 
L 16.930749 65.343476 
L 17.581131 65.699393 
L 18.231513 66.05531 
L 18.881895 66.411227 
L 19.532277 66.767144 
L 20.182659 67.123061 
L 20.833041 67.478978 
L 21.483423 67.834895 
L 22.133805 68.190812 
L 22.784187 68.546729 
L 23.434569 68.902646 
L 24.084951 69.258563 
" style="fill:none;stroke:#4169e1;stroke-linecap:square;stroke-width:0.4;"/>
   </g>
   <g id="line2d_10">
    <path clip-path="url(#p2bd56f24c0)" d="M 20.523916 30.936321 
L 19.577817 31.353678 
L 18.631717 31.771036 
L 17.685617 32.188394 
L 16.739518 32.605752 
L 16.03351 32.750635 
L 15.327502 32.895517 
L 14.621495 33.040399 
L 13.915487 33.185282 
L 13.135188 33.92387 
L 12.35489 34.662459 
L 12.057235 35.512044 
L 11.75958 36.361628 
L 11.749002 37.332063 
L 11.738425 38.302498 
L 11.727847 39.272933 
L 11.717269 40.243368 
L 11.855273 41.21363 
L 11.993276 42.183892 
L 12.13128 43.154155 
L 12.269283 44.124417 
L 12.856967 44.988178 
L 13.444651 45.85194 
L 14.032335 46.715701 
L 14.620019 47.579463 
L 15.138086 48.206018 
L 15.656153 48.832574 
L 16.350845 49.673514 
L 17.045537 50.514454 
L 18.032102 50.984025 
L 19.018668 51.453596 
L 20.005234 51.923167 
L 20.9918 52.392737 
L 21.978366 52.862308 
L 22.964932 53.331879 
L 23.951498 53.80145 
L 24.938064 54.271021 
L 25.940742 54.618185 
L 26.943421 54.96535 
L 27.869841 55.285889 
L 28.796261 55.606428 
L 30.057727 55.810439 
L 31.319193 56.01445 
L 32.107363 55.968115 
L 32.895534 55.921781 
L 33.683704 55.875446 
L 34.471874 55.829111 
L 35.547614 55.652936 
L 36.623353 55.47676 
L 37.699093 55.300585 
L 38.774832 55.124409 
" style="fill:none;stroke:#008000;stroke-linecap:square;stroke-width:0.4;"/>
   </g>
   <g id="line2d_11">
    <path clip-path="url(#p2bd56f24c0)" d="M 3.68108 53.528975 
L 4.372082 53.454804 
L 5.063084 53.380634 
L 5.754086 53.306464 
L 6.445088 53.232294 
L 7.13609 53.158124 
L 7.827092 53.083954 
L 8.518094 53.009784 
L 9.209096 52.935614 
L 10.257038 52.841561 
L 10.922457 52.781568 
L 11.587875 52.721575 
L 12.253294 52.661582 
L 12.918712 52.601589 
L 13.911059 52.851935 
L 14.903406 53.102281 
L 15.895752 53.352626 
L 16.888099 53.602972 
L 17.963839 54.048165 
L 19.039578 54.493358 
L 20.115317 54.938552 
L 21.191057 55.383745 
L 22.127808 55.968115 
L 23.06456 56.552486 
L 24.001312 57.136856 
L 24.938064 57.721226 
L 25.652189 58.722782 
L 26.366315 59.724337 
L 27.080441 60.725892 
L 27.794566 61.727448 
" style="fill:none;stroke:#008000;stroke-linecap:square;stroke-width:0.4;"/>
   </g>
   <g id="line2d_12">
    <path clip-path="url(#p2bd56f24c0)" d="M 9.209096 56.756497 
L 10.245476 57.090392 
L 11.281856 57.424287 
L 12.318236 57.758182 
L 13.354617 58.092077 
L 14.390997 58.425972 
L 15.427377 58.759867 
L 16.463757 59.093762 
L 17.500137 59.427657 
L 18.536517 59.761552 
L 19.572897 60.095447 
L 20.609277 60.429342 
L 21.645657 60.763237 
L 22.682037 61.097132 
L 23.718417 61.431027 
L 24.754797 61.764922 
L 25.791177 62.098817 
" style="fill:none;stroke:#008000;stroke-linecap:square;stroke-width:0.4;"/>
   </g>
   <g id="line2d_13">
    <path clip-path="url(#p2bd56f24c0)" d="M 13.734434 55.977797 
L 14.995777 56.371901 
L 16.25712 56.766006 
L 17.518463 57.16011 
L 18.779806 57.554214 
L 20.04115 57.948318 
L 21.302493 58.342422 
L 22.563836 58.736526 
L 23.825179 59.13063 
" style="fill:none;stroke:#008000;stroke-linecap:square;stroke-width:0.4;"/>
   </g>
   <g id="line2d_14">
    <path clip-path="url(#p2bd56f24c0)" d="M 21.450828 32.0117 
L 20.838791 32.82809 
L 20.226753 33.644479 
L 20.254551 34.353936 
L 20.282348 35.063392 
L 20.310146 35.772849 
L 20.337943 36.482306 
L 20.365741 37.191762 
L 20.393539 37.901219 
L 20.421336 38.610676 
L 20.449134 39.320132 
L 20.855027 40.297958 
L 21.260919 41.275784 
L 21.666812 42.253611 
L 22.072705 43.231437 
L 22.478598 44.209263 
L 22.884491 45.187089 
L 23.290384 46.164915 
L 23.696277 47.142741 
L 24.10217 48.120567 
L 24.508063 49.098393 
L 24.913956 50.076219 
L 25.319849 51.054045 
L 25.725742 52.031872 
L 26.131635 53.009698 
L 26.537528 53.987524 
L 26.943421 54.96535 
" style="fill:none;stroke:#008000;stroke-linecap:square;stroke-width:0.4;"/>
   </g>
   <g id="line2d_15">
    <path clip-path="url(#p2bd56f24c0)" d="M 28.276718 50.67213 
L 29.25984 51.172994 
L 30.242962 51.673858 
L 31.226084 52.174722 
L 32.209206 52.675586 
L 33.192328 53.176451 
L 34.17545 53.677315 
L 35.158572 54.178179 
L 36.141694 54.679043 
" style="fill:none;stroke:#008000;stroke-linecap:square;stroke-width:0.4;"/>
   </g>
   <g id="line2d_16">
    <path clip-path="url(#p2bd56f24c0)" d="M 28.647679 49.633403 
L 29.63978 49.950485 
L 30.631881 50.267566 
L 31.623982 50.584647 
L 32.616083 50.901729 
L 33.423195 51.159682 
L 34.230307 51.417634 
L 35.037419 51.675587 
L 35.844531 51.93354 
" style="fill:none;stroke:#4169e1;stroke-linecap:square;stroke-width:0.4;"/>
   </g>
   <g id="line2d_17">
    <path clip-path="url(#p2bd56f24c0)" d="M 22.601104 33.236457 
L 23.141311 33.90885 
L 23.681518 34.581244 
L 24.221724 35.253637 
L 24.761931 35.92603 
L 25.302137 36.598423 
L 25.842344 37.270817 
L 26.382551 37.94321 
L 26.922757 38.615603 
L 27.462964 39.287996 
L 28.003171 39.960389 
L 28.543377 40.632783 
L 29.083584 41.305176 
L 29.623791 41.977569 
L 30.163997 42.649962 
L 30.704204 43.322355 
L 31.24441 43.994749 
L 31.784617 44.667142 
L 32.324824 45.339535 
L 32.86503 46.011928 
L 33.405237 46.684322 
L 33.945444 47.356715 
L 34.48565 48.029108 
L 35.025857 48.701501 
L 35.566064 49.373894 
L 36.10627 50.046288 
L 36.646477 50.718681 
L 37.186683 51.391074 
L 37.72689 52.063467 
L 38.267097 52.73586 
L 38.807303 53.408254 
L 39.34751 54.080647 
L 39.887717 54.75304 
" style="fill:none;stroke:#4169e1;stroke-linecap:square;stroke-width:0.4;"/>
   </g>
   <g id="line2d_18">
    <path clip-path="url(#p2bd56f24c0)" d="M 26.681682 36.315293 
L 27.159282 36.80801 
L 27.636883 37.300727 
L 28.114484 37.793443 
L 28.592084 38.28616 
L 29.069685 38.778877 
L 29.547286 39.271593 
L 30.024887 39.76431 
L 30.502487 40.257026 
L 30.980088 40.749743 
L 31.457689 41.24246 
L 31.935289 41.735176 
L 32.41289 42.227893 
L 32.890491 42.72061 
L 33.368092 43.213326 
L 33.845692 43.706043 
L 34.323293 44.19876 
L 34.800894 44.691476 
L 35.278495 45.184193 
L 35.756095 45.67691 
L 36.233696 46.169626 
L 36.711297 46.662343 
L 37.188897 47.155059 
L 37.666498 47.647776 
L 38.144099 48.140493 
L 38.6217 48.633209 
L 39.0993 49.125926 
L 39.576901 49.618643 
L 40.054502 50.111359 
L 40.532102 50.604076 
L 41.009703 51.096793 
L 41.487304 51.589509 
L 41.964905 52.082226 
" style="fill:none;stroke:#4169e1;stroke-linecap:square;stroke-width:0.4;"/>
   </g>
   <g id="line2d_19">
    <path clip-path="url(#p2bd56f24c0)" d="M 24.233532 32.086389 
L 24.824752 32.6359 
L 25.415972 33.185411 
L 26.007192 33.734923 
L 26.598412 34.284434 
L 27.189632 34.833945 
L 27.780852 35.383456 
L 28.372072 35.932967 
L 28.963292 36.482479 
L 29.554512 37.03199 
L 30.145732 37.581501 
L 30.736952 38.131012 
L 31.328172 38.680523 
L 31.919392 39.230035 
L 32.510612 39.779546 
L 33.101832 40.329057 
L 33.693052 40.878568 
L 34.284272 41.428079 
L 34.875492 41.977591 
L 35.466712 42.527102 
L 36.057932 43.076613 
L 36.649152 43.626124 
L 37.240372 44.175636 
L 37.831592 44.725147 
L 38.422812 45.274658 
L 39.014032 45.824169 
L 39.605252 46.37368 
L 40.196472 46.923192 
L 40.787692 47.472703 
L 41.378912 48.022214 
L 41.970132 48.571725 
L 42.561352 49.121236 
L 43.152572 49.670748 
" style="fill:none;stroke:#008000;stroke-linecap:square;stroke-width:0.4;"/>
   </g>
   <g id="line2d_20">
    <path clip-path="url(#p2bd56f24c0)" d="M 24.493303 29.600913 
L 25.07988 29.971893 
L 25.666457 30.342874 
L 26.253034 30.713854 
L 26.839611 31.084834 
L 27.426188 31.455814 
L 28.012764 31.826794 
L 28.599341 32.197774 
L 29.185918 32.568754 
L 29.772495 32.939734 
L 30.359072 33.310714 
L 30.945649 33.681694 
L 31.532225 34.052674 
L 32.118802 34.423654 
L 32.705379 34.794634 
L 33.291956 35.165614 
L 33.878533 35.536594 
L 34.606557 36.299431 
L 35.334582 37.062267 
L 36.062606 37.825104 
L 36.79063 38.58794 
L 37.518655 39.350777 
L 38.246679 40.113614 
L 38.974703 40.87645 
L 39.702728 41.639287 
L 40.430752 42.402124 
L 41.158777 43.16496 
L 41.886801 43.927797 
L 42.614825 44.690633 
L 43.34285 45.45347 
L 44.070874 46.216307 
L 44.798898 46.979143 
L 45.526923 47.74198 
" style="fill:none;stroke:#008000;stroke-linecap:square;stroke-width:0.4;"/>
   </g>
   <g id="line2d_21">
    <path clip-path="url(#p2bd56f24c0)" d="M 22.712294 27.448771 
L 23.268737 26.614055 
L 23.825179 25.779339 
L 24.919368 25.315647 
L 26.013557 24.851954 
L 27.182529 25.000294 
L 28.351501 25.148634 
L 29.390095 25.322562 
L 30.428689 25.49649 
L 31.437763 26.020176 
L 32.446838 26.543862 
L 33.455912 27.067547 
L 34.464987 27.591233 
L 35.1031 28.119932 
L 35.741212 28.648632 
L 36.379325 29.177331 
L 37.017438 29.706031 
L 37.655551 30.23473 
L 38.293664 30.76343 
L 38.931777 31.292129 
L 39.56989 31.820829 
L 40.120675 32.414751 
L 40.671459 33.008674 
L 41.222243 33.602596 
L 41.773028 34.196519 
L 42.323812 34.790441 
L 42.874597 35.384364 
L 43.425381 35.978286 
L 43.976166 36.572209 
L 44.52695 37.166131 
L 45.077735 37.760054 
L 45.628519 38.353976 
L 46.179304 38.947899 
L 46.730088 39.541821 
L 47.280872 40.135744 
L 47.831657 40.729666 
L 48.382441 41.323589 
" style="fill:none;stroke:#008000;stroke-linecap:square;stroke-width:0.4;"/>
   </g>
   <g id="line2d_22">
    <path clip-path="url(#p2bd56f24c0)" d="M 25.939758 9.233707 
L 25.624392 9.99408 
L 25.309025 10.754453 
L 25.36462 11.515172 
L 25.420215 12.275891 
L 25.643088 13.314617 
L 25.86596 14.353344 
L 26.301987 15.065049 
L 26.738015 15.776753 
L 27.174042 16.488457 
L 27.610069 17.200161 
L 28.046097 17.911865 
L 28.482124 18.62357 
L 28.918152 19.335274 
L 29.354179 20.046978 
L 29.595501 20.923706 
L 29.836823 21.800435 
L 30.078145 22.677163 
L 30.319466 23.553891 
L 30.837656 24.058559 
L 31.355846 24.563227 
L 31.874037 25.067894 
L 32.392227 25.572562 
L 32.910417 26.07723 
L 33.428607 26.581898 
L 33.946797 27.086565 
L 34.464987 27.591233 
" style="fill:none;stroke:#008000;stroke-linecap:square;stroke-width:0.4;"/>
   </g>
   <g id="line2d_23">
    <path clip-path="url(#p2bd56f24c0)" d="M 27.645985 8.788341 
L 28.312572 9.691457 
L 28.979159 10.594573 
L 29.645746 11.497688 
L 30.312333 12.400804 
L 30.97892 13.30392 
L 31.645506 14.207036 
L 32.312093 15.110151 
L 32.97868 16.013267 
L 33.645267 16.916383 
L 34.311854 17.819499 
L 34.978441 18.722614 
L 35.645028 19.62573 
L 36.311615 20.528846 
L 36.978202 21.431962 
L 37.644789 22.335077 
L 38.311376 23.238193 
L 38.977963 24.141309 
L 39.64455 25.044424 
L 40.311137 25.94754 
L 40.977724 26.850656 
L 41.644311 27.753772 
L 42.310898 28.656887 
L 42.977485 29.560003 
L 43.644072 30.463119 
L 44.310658 31.366235 
L 44.977245 32.26935 
L 45.643832 33.172466 
L 46.310419 34.075582 
L 46.977006 34.978698 
L 47.643593 35.881813 
L 48.31018 36.784929 
L 48.976767 37.688045 
" style="fill:none;stroke:#008000;stroke-linecap:square;stroke-width:0.4;"/>
   </g>
   <g id="line2d_24">
    <path clip-path="url(#p2bd56f24c0)" d="M 28.314109 7.786959 
L 29.051358 8.461664 
L 29.788608 9.13637 
L 30.525857 9.811076 
L 31.263106 10.485781 
L 32.000355 11.160487 
L 32.737605 11.835192 
L 33.474854 12.509898 
L 34.212103 13.184604 
L 34.949352 13.859309 
L 35.686601 14.534015 
L 36.423851 15.208721 
L 37.1611 15.883426 
L 37.898349 16.558132 
L 38.635598 17.232837 
L 39.372848 17.907543 
L 40.110097 18.582249 
L 40.75928 19.449425 
L 41.408462 20.316601 
L 42.057645 21.183777 
L 42.706828 22.050953 
L 43.35601 22.918129 
L 44.005193 23.785305 
L 44.654376 24.652481 
L 45.303559 25.519658 
L 45.952741 26.386834 
L 46.601924 27.25401 
L 47.251107 28.121186 
L 47.90029 28.988362 
L 48.549472 29.855538 
L 49.198655 30.722714 
L 49.847838 31.58989 
L 50.497021 32.457066 
" style="fill:none;stroke:#008000;stroke-linecap:square;stroke-width:0.4;"/>
   </g>
   <g id="line2d_25">
    <path clip-path="url(#p2bd56f24c0)" d="M 43.486142 14.650025 
L 44.005501 15.289979 
L 44.524859 15.929934 
L 45.044218 16.569888 
L 45.563576 17.209843 
L 46.082935 17.849798 
L 46.602293 18.489752 
L 47.121652 19.129707 
L 47.64101 19.769661 
L 48.160369 20.409616 
L 48.679727 21.049571 
L 49.199086 21.689525 
L 49.718444 22.32948 
L 50.237803 22.969435 
L 50.757161 23.609389 
L 51.27652 24.249344 
L 51.795878 24.889298 
" style="fill:none;stroke:#008000;stroke-linecap:square;stroke-width:0.4;"/>
   </g>
   <g id="line2d_26">
    <path clip-path="url(#p2bd56f24c0)" d="M 45.489532 12.795254 
L 45.925374 13.321576 
L 46.361217 13.847899 
L 46.79706 14.374221 
L 47.232903 14.900543 
L 47.668746 15.426865 
L 48.104589 15.953188 
L 48.540432 16.47951 
L 48.976275 17.005832 
L 49.412118 17.532154 
L 49.847961 18.058477 
L 50.283804 18.584799 
L 50.719647 19.111121 
L 51.15549 19.637443 
L 51.591333 20.163766 
L 52.027176 20.690088 
L 52.463019 21.21641 
" style="fill:none;stroke:#008000;stroke-linecap:square;stroke-width:0.4;"/>
   </g>
   <g id="line2d_27">
    <path clip-path="url(#p2bd56f24c0)" d="M 27.201225 5.523475 
L 27.534795 4.633434 
L 27.868365 3.743393 
L 28.526896 3.632051 
L 29.185426 3.52071 
L 29.843957 3.409368 
L 30.502487 3.298027 
L 31.699011 3.41637 
L 32.895534 3.534714 
L 34.092057 3.653058 
L 35.28858 3.771401 
L 36.485104 3.889745 
L 37.681627 4.008089 
L 38.87815 4.126432 
L 40.074673 4.244776 
L 40.7995 4.45916 
L 41.524326 4.673545 
L 42.249153 4.887929 
L 42.973979 5.102313 
L 43.698806 5.316698 
L 44.423632 5.531082 
L 45.148458 5.745466 
L 45.873285 5.959851 
L 46.613732 6.343495 
L 47.354179 6.727139 
L 48.094626 7.110784 
L 48.835074 7.494428 
L 49.238999 8.090728 
L 49.642924 8.687027 
L 50.046849 9.283327 
L 50.450774 9.879627 
L 50.824195 10.98872 
L 51.197617 12.097813 
L 51.571038 13.206907 
L 51.94446 14.316 
L 52.139165 15.099713 
L 52.333871 15.883426 
L 52.528577 16.667139 
L 52.723282 17.450853 
L 52.917988 18.234566 
L 53.112693 19.018279 
L 53.307399 19.801992 
L 53.502105 20.585705 
" style="fill:none;stroke:#008000;stroke-linecap:square;stroke-width:0.4;"/>
   </g>
   <g id="line2d_28">
    <path clip-path="url(#p2bd56f24c0)" d="M 42.789482 37.882374 
L 43.354166 38.545064 
L 43.918849 39.207753 
L 44.483532 39.870443 
L 45.048215 40.533133 
L 45.612898 41.195823 
L 46.177582 41.858512 
L 46.742265 42.521202 
L 47.306948 43.183892 
" style="fill:none;stroke:#008000;stroke-linecap:square;stroke-width:0.4;"/>
   </g>
   <g id="line2d_29">
    <path clip-path="url(#p2bd56f24c0)" d="M 10.257038 52.841561 
L 10.931928 52.340438 
L 11.606817 51.839315 
L 12.281706 51.338191 
L 12.956595 50.837068 
L 13.631485 50.335944 
L 14.306374 49.834821 
L 14.981263 49.333697 
L 15.656153 48.832574 
" style="fill:none;stroke:#008000;stroke-linecap:square;stroke-width:0.4;"/>
   </g>
  </g>
 </g>
 <defs>
  <clipPath id="p2bd56f24c0">
   <rect height="72.55659" width="72" x="0" y="0"/>
  </clipPath>
 </defs>
</svg>
