<?xml version="1.0" encoding="utf-8" standalone="no"?>
<!DOCTYPE svg PUBLIC "-//W3C//DTD SVG 1.1//EN"
  "http://www.w3.org/Graphics/SVG/1.1/DTD/svg11.dtd">
<svg height="107.840877pt" version="1.1" viewBox="0 0 72 107.840877" width="72pt" xmlns="http://www.w3.org/2000/svg" xmlns:xlink="http://www.w3.org/1999/xlink">
 <metadata>
  <rdf:RDF xmlns:cc="http://creativecommons.org/ns#" xmlns:dc="http://purl.org/dc/elements/1.1/" xmlns:rdf="http://www.w3.org/1999/02/22-rdf-syntax-ns#">
   <cc:Work>
    <dc:type rdf:resource="http://purl.org/dc/dcmitype/StillImage"/>
    <dc:date>2022-05-22T18:19:44.155421</dc:date>
    <dc:format>image/svg+xml</dc:format>
    <dc:creator>
     <cc:Agent>
      <dc:title>Matplotlib v3.4.3, https://matplotlib.org/</dc:title>
     </cc:Agent>
    </dc:creator>
   </cc:Work>
  </rdf:RDF>
 </metadata>
 <defs>
  <style type="text/css">*{stroke-linecap:butt;stroke-linejoin:round;}</style>
 </defs>
 <g id="figure_1">
  <g id="patch_1">
   <path d="M 0 107.840877 
L 72 107.840877 
L 72 0 
L 0 0 
z
" style="fill:#ffffff;"/>
  </g>
  <g id="axes_1">
   <g id="line2d_1">
    <path clip-path="url(#pdff156ba86)" d="M 31.913885 102.140786 
L 31.964832 101.988988 
L 32.04769 101.741669 
L 32.181496 101.342553 
L 32.529167 100.306257 
L 33.22171 98.239959 
L 33.704027 96.801214 
L 34.186344 95.362469 
L 34.587621 94.165305 
L 34.988899 92.96814 
L 35.390176 91.770976 
L 35.791453 90.573812 
L 36.473639 88.538799 
L 37.155824 86.503786 
L 37.588454 85.213229 
L 38.021083 83.922672 
L 38.453713 82.632115 
L 38.886342 81.341558 
L 39.624513 79.139382 
L 40.362685 76.937207 
L 41.025555 74.961247 
L 41.259575 74.261867 
L 41.440409 73.723541 
L 41.941481 72.228891 
L 42.557883 70.389919 
L 42.970078 69.160266 
L 43.382273 67.930613 
L 43.794467 66.70096 
L 44.206662 65.471308 
L 44.825024 63.626782 
L 45.443386 61.782256 
L 45.851101 60.56584 
L 46.258817 59.349423 
L 46.666533 58.133006 
L 47.074249 56.916589 
L 47.639704 55.22923 
L 48.20516 53.54187 
L 48.636109 52.256219 
L 49.067059 50.970568 
L 49.498009 49.684916 
L 49.928959 48.399265 
L 50.486856 46.73523 
L 51.044754 45.071196 
L 51.791043 42.844585 
L 52.537332 40.617974 
L 53.183967 38.689589 
L 53.830601 36.761205 
L 54.348469 35.216387 
L 54.866337 33.671569 
L 55.423954 32.007349 
L 55.617105 31.432 
L 55.746991 31.04325 
L 55.927825 30.504183 
L 56.078986 30.053233 
L 56.285574 29.436417 
" style="fill:none;stroke:#808080;stroke-linecap:square;stroke-width:0.4;"/>
   </g>
   <g id="line2d_2">
    <path clip-path="url(#pdff156ba86)" d="M 57.138236 27.047271 
L 57.423763 25.81512 
" style="fill:none;stroke:#808080;stroke-linecap:square;stroke-width:0.4;"/>
   </g>
   <g id="line2d_3">
    <path clip-path="url(#pdff156ba86)" d="M 56.362834 28.508601 
L 56.245264 27.826993 
L 56.204394 27.468602 
L 56.49524 26.992661 
L 56.786086 26.51672 
L 56.938507 25.833631 
L 57.090928 25.150542 
L 57.243349 24.467453 
L 57.39577 23.784364 
L 57.413965 23.265939 
L 57.432161 22.747513 
L 57.450356 22.229087 
L 57.468551 21.710661 
L 57.04194 21.088477 
L 56.615329 20.466292 
L 56.603012 20.033298 
L 56.590696 19.600305 
L 56.578379 19.167312 
L 56.566062 18.734319 
L 56.431906 18.371439 
L 56.297751 18.00856 
L 56.163595 17.64568 
L 56.029439 17.282801 
L 55.895283 16.919921 
L 55.761128 16.557042 
L 55.626972 16.194162 
L 55.492816 15.831283 
L 55.425773 15.386072 
L 55.358731 14.94086 
L 55.291688 14.495649 
L 55.224645 14.050438 
L 55.355791 13.669232 
L 55.486938 13.288026 
L 55.618084 12.906819 
L 55.749231 12.525613 
L 55.880377 12.144407 
L 56.011524 11.7632 
L 56.14267 11.381994 
L 56.273817 11.000788 
L 56.560323 10.701913 
L 56.84683 10.403039 
L 57.133337 10.104164 
L 57.419844 9.80529 
L 57.487026 9.219851 
L 57.554209 8.634412 
L 57.621392 8.048973 
L 57.688575 7.463534 
L 57.505502 6.75601 
L 57.322429 6.048485 
L 57.054257 5.645851 
L 56.786086 5.243217 
" style="fill:none;stroke:#4169e1;stroke-linecap:square;stroke-width:0.4;"/>
   </g>
   <g id="line2d_4">
    <path clip-path="url(#pdff156ba86)" d="M 56.786086 5.243217 
L 55.249279 4.901858 
L 50.468241 6.420482 
L 43.935726 8.39945 
L 38.15013 11.464326 
L 32.475771 13.287817 
L 25.876528 14.48445 
L 22.953376 15.56286 
L 21.586765 17.124154 
L 18.952638 21.856905 
L 18.025515 25.638146 
L 18.122931 27.809591 
L 19.074127 29.883294 
L 20.708909 32.078805 
L 21.080654 34.512194 
L 21.221318 38.824263 
L 21.513984 42.154461 
L 20.153706 46.020995 
L 16.686758 52.763584 
L 15.634927 54.547436 
L 12.780217 57.01174 
L 12.780217 57.01174 
" style="fill:none;stroke:#008000;stroke-linecap:square;stroke-width:0.4;"/>
   </g>
   <g id="line2d_5">
    <path clip-path="url(#pdff156ba86)" d="M 25.703392 95.680133 
L 26.283404 95.656068 
L 26.657669 95.806477 
L 27.031933 95.956886 
L 27.406197 96.107296 
L 27.780461 96.257705 
L 28.144788 96.735682 
L 28.509115 97.213659 
L 28.873442 97.691636 
L 29.237769 98.169614 
L 29.618891 98.530596 
L 30.000014 98.891578 
L 30.381137 99.25256 
L 30.762259 99.613542 
L 30.997399 100.130394 
L 31.232539 100.647246 
L 31.442485 101.132628 
L 31.750966 101.539149 
L 32.104796 101.900501 
L 32.233003 102.118572 
L 32.248119 102.359597 
" style="fill:none;stroke:#008000;stroke-linecap:square;stroke-width:0.4;"/>
   </g>
   <g id="line2d_6">
    <path clip-path="url(#pdff156ba86)" d="M 10.780968 67.244747 
L 10.855149 67.7392 
L 10.92933 68.233653 
L 11.003511 68.728106 
L 11.077692 69.222559 
L 11.047599 69.720621 
L 11.017507 70.218684 
L 10.987415 70.716746 
L 10.957323 71.214809 
L 10.92723 71.712872 
L 10.897138 72.210934 
L 10.867046 72.708997 
L 10.836953 73.207059 
L 10.816938 73.624873 
L 10.796924 74.042687 
L 10.776909 74.4605 
L 10.756894 74.878314 
L 10.736879 75.296127 
L 10.716864 75.713941 
L 10.696849 76.131754 
L 10.676834 76.549568 
L 10.683413 77.037634 
L 10.689991 77.5257 
L 10.696569 78.013766 
L 10.703148 78.501833 
L 10.903716 78.922978 
L 11.104285 79.344124 
L 11.304854 79.76527 
L 11.505422 80.186415 
L 11.723767 80.521249 
L 11.942111 80.856083 
L 12.160455 81.190917 
L 12.378799 81.525751 
L 12.597143 81.860585 
L 12.815488 82.195419 
L 13.033832 82.530253 
L 13.252176 82.865087 
" style="fill:none;stroke:#000000;stroke-linecap:square;stroke-width:0.4;"/>
   </g>
   <g id="line2d_7">
    <path clip-path="url(#pdff156ba86)" d="M 32.034254 23.237153 
L 31.663209 22.852753 
L 31.292164 22.468353 
L 30.921119 22.083954 
L 30.550073 21.699554 
L 30.179028 21.315155 
L 29.807983 20.930755 
L 29.436938 20.546356 
L 29.065893 20.161956 
L 28.68491 19.814303 
L 28.303928 19.466649 
L 27.922945 19.118996 
L 27.541962 18.771342 
L 27.16098 18.423689 
L 26.779997 18.076035 
L 26.399015 17.728382 
L 26.018032 17.380729 
L 25.59562 16.799455 
L 25.173208 16.218181 
L 24.750796 15.636908 
L 24.328384 15.055634 
" style="fill:none;stroke:#000000;stroke-linecap:square;stroke-width:0.4;"/>
   </g>
   <g id="line2d_8">
    <path clip-path="url(#pdff156ba86)" d="M 64.742212 49.71361 
L 64.635279 50.241754 
L 64.528346 50.769899 
L 64.421414 51.298043 
L 64.314481 51.826187 
L 64.011878 52.495393 
L 63.709276 53.164598 
L 63.170413 53.561678 
L 62.631551 53.958758 
L 62.234613 54.516522 
L 61.837674 55.074285 
L 61.77623 55.49034 
L 61.714786 55.906395 
L 61.653341 56.32245 
L 61.591897 56.738505 
L 61.185441 57.173349 
L 60.778985 57.608194 
L 60.504935 58.203907 
L 60.230885 58.799619 
L 60.372529 59.536948 
L 60.514173 60.274277 
L 60.40556 60.718655 
L 60.296948 61.163033 
L 60.188336 61.607412 
L 60.079724 62.05179 
L 59.885873 62.396851 
L 59.692023 62.741913 
L 59.498172 63.086975 
L 59.304322 63.432037 
L 59.242878 63.810235 
L 59.181433 64.188433 
L 59.119989 64.566631 
L 59.058545 64.944829 
L 59.172056 65.601909 
L 59.285567 66.258989 
L 59.399078 66.916069 
L 59.512589 67.573148 
L 59.465281 68.277526 
L 59.417973 68.981904 
L 59.370665 69.686282 
L 59.323357 70.390659 
L 59.344632 70.771218 
L 59.365906 71.151776 
L 59.387181 71.532334 
L 59.408455 71.912893 
L 59.42973 72.293451 
L 59.451004 72.674009 
L 59.472279 73.054568 
L 59.493553 73.435126 
L 59.332875 73.884225 
L 59.172196 74.333323 
L 59.011517 74.782422 
L 58.850838 75.231521 
L 58.808289 75.661645 
L 58.76574 76.091769 
L 58.72319 76.521892 
L 58.680641 76.952016 
L 58.524301 77.369228 
L 58.367961 77.78644 
L 58.211621 78.203652 
L 58.055281 78.620864 
L 57.898941 79.038076 
L 57.742601 79.455288 
L 57.586261 79.8725 
L 57.429921 80.289712 
L 57.071053 80.924762 
L 56.712185 81.559813 
L 56.353316 82.194864 
L 55.994448 82.829914 
" style="fill:none;stroke:#000000;stroke-linecap:square;stroke-width:0.4;"/>
   </g>
   <g id="line2d_9">
    <path clip-path="url(#pdff156ba86)" d="M 56.285574 29.436417 
L 56.441774 29.203167 
L 56.638283 29.058774 
L 56.84767 29.045816 
L 57.04418 29.294616 
L 57.188063 29.805914 
L 57.351821 30.375896 
L 57.515579 30.945877 
L 57.717408 31.42478 
L 57.919236 31.903683 
L 58.093072 32.262166 
L 58.266907 32.620649 
L 58.440743 32.979131 
L 58.614578 33.337614 
L 58.818926 33.75913 
L 59.023274 34.180646 
L 59.227621 34.602162 
L 59.431969 35.023678 
L 59.583201 35.426659 
L 59.734432 35.82964 
L 59.885663 36.232621 
L 60.036895 36.635602 
L 60.188126 37.038582 
L 60.339357 37.441563 
L 60.490589 37.844544 
L 60.64182 38.247525 
L 60.793051 38.650506 
L 60.944283 39.053487 
L 61.095514 39.456468 
L 61.246745 39.859449 
L 61.397977 40.26243 
L 61.549208 40.66541 
L 61.700439 41.068391 
L 61.851671 41.471372 
" style="fill:none;stroke:#4169e1;stroke-linecap:square;stroke-width:0.4;"/>
   </g>
   <g id="line2d_10">
    <path clip-path="url(#pdff156ba86)" d="M 49.551615 28.328665 
L 49.089313 27.904835 
L 48.627012 27.481005 
L 48.16471 27.057175 
L 47.702408 26.633345 
L 47.120997 26.319106 
L 46.539585 26.004866 
L 45.958174 25.690627 
L 45.376763 25.376388 
L 44.775057 25.28281 
L 44.17335 25.189232 
L 43.571644 25.095655 
L 42.969938 25.002077 
L 42.395105 24.908499 
L 41.820272 24.814922 
L 41.245439 24.721344 
L 40.670606 24.627766 
L 40.095773 24.534189 
L 39.52094 24.440611 
L 38.946107 24.347033 
L 38.371274 24.253456 
L 37.97521 24.189937 
L 37.579146 24.126418 
L 37.183083 24.062899 
L 36.787019 23.99938 
L 36.390955 23.935861 
L 35.994891 23.872342 
L 35.598828 23.808823 
L 35.202764 23.745304 
L 34.8067 23.681785 
L 34.410636 23.618266 
L 34.014573 23.554747 
L 33.618509 23.491228 
L 33.222445 23.427709 
L 32.826381 23.36419 
L 32.430318 23.300672 
L 32.034254 23.237153 
" style="fill:none;stroke:#4169e1;stroke-linecap:square;stroke-width:0.4;"/>
   </g>
   <g id="line2d_11">
    <path clip-path="url(#pdff156ba86)" d="M 45.103553 49.287466 
L 45.133085 49.823431 
L 45.162617 50.359397 
L 45.19215 50.895363 
L 45.221682 51.431329 
L 45.251215 51.967294 
L 45.280747 52.50326 
L 45.31028 53.039226 
L 45.339812 53.575192 
L 45.319797 54.183585 
L 45.299782 54.791979 
L 45.279767 55.400372 
L 45.259753 56.008766 
L 45.239738 56.617159 
L 45.219723 57.225553 
L 45.199708 57.833946 
L 45.179693 58.44234 
L 44.949032 58.980481 
L 44.718371 59.518622 
L 44.48771 60.056762 
L 44.257049 60.594903 
L 44.026388 61.133044 
L 43.795727 61.671185 
L 43.565066 62.209326 
L 43.334405 62.747467 
L 43.194056 63.161971 
L 43.053707 63.576476 
L 42.913357 63.99098 
L 42.773008 64.405485 
L 42.632659 64.81999 
L 42.49231 65.234494 
L 42.351961 65.648999 
L 42.211612 66.063503 
L 42.071263 66.478008 
L 41.930914 66.892512 
L 41.790565 67.307017 
L 41.650215 67.721521 
L 41.509866 68.136026 
L 41.369517 68.55053 
L 41.229168 68.965035 
L 41.088819 69.379539 
L 40.900287 69.741146 
L 40.711755 70.102753 
L 40.523224 70.46436 
L 40.334692 70.825967 
L 40.14616 71.187573 
L 39.957628 71.54918 
L 39.769096 71.910787 
L 39.580565 72.272394 
L 39.392033 72.634001 
L 39.203501 72.995607 
L 39.014969 73.357214 
L 38.826437 73.718821 
L 38.637906 74.080428 
L 38.449374 74.442034 
L 38.260842 74.803641 
L 38.07231 75.165248 
" style="fill:none;stroke:#ff0000;stroke-linecap:square;stroke-width:0.4;"/>
   </g>
   <g id="line2d_12">
    <path clip-path="url(#pdff156ba86)" d="M 55.994448 82.829914 
L 55.554121 82.922751 
L 55.113793 83.015589 
L 54.673466 83.108426 
L 54.233138 83.201263 
L 53.792811 83.2941 
L 53.352484 83.386937 
L 52.912156 83.479774 
L 52.471829 83.572612 
L 52.080804 83.616068 
L 51.689779 83.659525 
L 51.298754 83.702982 
L 50.907729 83.746438 
L 50.516704 83.789895 
L 50.125679 83.833352 
L 49.734654 83.876808 
L 49.343628 83.920265 
L 48.952603 83.963722 
L 48.561578 84.007178 
L 48.170553 84.050635 
L 47.779528 84.094092 
L 47.388503 84.137549 
L 46.997478 84.181005 
L 46.606453 84.224462 
L 46.215428 84.267919 
L 45.538281 84.190816 
L 44.861135 84.113714 
L 44.183988 84.036612 
L 43.506841 83.95951 
" style="fill:none;stroke:#008000;stroke-linecap:square;stroke-width:0.4;"/>
   </g>
   <g id="line2d_13">
    <path clip-path="url(#pdff156ba86)" d="M 54.098213 29.396431 
L 53.694136 29.292163 
L 53.29006 29.187895 
L 52.885983 29.083627 
L 52.481906 28.979358 
L 52.077829 28.87509 
L 51.673753 28.770822 
L 51.269676 28.666553 
L 50.865599 28.562285 
L 50.208607 28.445475 
L 49.551615 28.328665 
L 49.210802 28.509156 
L 48.86999 28.689647 
L 48.529177 28.870138 
L 48.188364 29.050629 
L 47.842442 29.353137 
L 47.496521 29.655644 
L 47.150599 29.958152 
L 46.804678 30.260659 
L 46.458756 30.563167 
L 46.112834 30.865674 
L 45.766913 31.168182 
L 45.420991 31.470689 
L 45.07507 31.773197 
L 44.729148 32.075705 
L 44.383227 32.378212 
L 44.037305 32.68072 
L 43.691384 32.983227 
L 43.345462 33.285735 
L 42.99954 33.588242 
L 42.653619 33.89075 
L 42.342793 34.128096 
L 42.031968 34.365441 
L 41.721142 34.602787 
L 41.410317 34.840133 
L 41.099491 35.077478 
L 40.788666 35.314824 
L 40.47784 35.55217 
L 40.167015 35.789515 
L 39.856189 36.026861 
L 39.545364 36.264207 
L 39.234538 36.501552 
L 38.923713 36.738898 
L 38.612887 36.976244 
L 38.302061 37.213589 
L 37.991236 37.450935 
L 37.68041 37.688281 
L 37.275984 37.852065 
L 36.871557 38.015849 
L 36.467131 38.179633 
L 36.062704 38.343417 
L 35.658277 38.507201 
L 35.253851 38.670985 
L 34.849424 38.834769 
L 34.444998 38.998553 
L 33.846721 39.159005 
L 33.248443 39.319457 
L 32.650166 39.479908 
L 32.051889 39.64036 
L 31.453612 39.800812 
L 30.855335 39.961264 
L 30.257058 40.121716 
L 29.658781 40.282168 
L 28.950212 40.435909 
L 28.241644 40.58965 
L 27.533075 40.743392 
L 26.824506 40.897133 
L 26.115937 41.050874 
L 25.407368 41.204616 
L 24.698799 41.358357 
L 23.99023 41.512098 
L 23.371169 41.672689 
L 22.752107 41.83328 
L 22.133045 41.99387 
L 21.513984 42.154461 
" style="fill:none;stroke:#ff0000;stroke-linecap:square;stroke-width:0.4;"/>
   </g>
   <g id="line2d_14">
    <path clip-path="url(#pdff156ba86)" d="M 68.727273 60.307599 
L 68.62034 60.805661 
L 68.513407 61.303724 
L 68.406475 61.801787 
L 68.299542 62.299849 
L 68.192609 62.797912 
L 68.085677 63.295974 
L 67.978744 63.794037 
L 67.871811 64.2921 
L 67.865233 64.867079 
L 67.858655 65.442059 
L 67.852076 66.017038 
L 67.845498 66.592018 
L 67.685029 67.009831 
L 67.52456 67.427645 
L 67.364091 67.845458 
L 67.203622 68.263272 
L 67.043153 68.681086 
L 66.882684 69.098899 
L 66.722215 69.516713 
L 66.561746 69.934526 
L 66.307781 70.449296 
L 66.053816 70.964065 
L 65.799851 71.478835 
L 65.545886 71.993605 
L 65.291921 72.508374 
L 65.037956 73.023144 
L 64.783991 73.537913 
L 64.530026 74.052683 
L 64.209228 74.530706 
L 63.88843 75.00873 
L 63.567632 75.486753 
L 63.246834 75.964777 
L 62.926036 76.4428 
L 62.605238 76.920824 
L 62.28444 77.398847 
L 61.963642 77.876871 
L 61.509038 78.438429 
L 61.054434 78.999988 
L 60.599831 79.561546 
L 60.145227 80.123105 
L 59.62638 80.461456 
L 59.107532 80.799807 
L 58.588685 81.138158 
L 58.069837 81.476509 
L 57.55099 81.814861 
L 57.032143 82.153212 
L 56.513295 82.491563 
L 55.994448 82.829914 
" style="fill:none;stroke:#ff0000;stroke-linecap:square;stroke-width:0.4;"/>
   </g>
   <g id="line2d_15">
    <path clip-path="url(#pdff156ba86)" d="M 13.252176 82.865087 
L 13.74471 83.077881 
L 14.237244 83.290675 
L 14.729778 83.50347 
L 15.222312 83.716264 
L 15.636886 84.164159 
L 16.05146 84.612055 
L 16.466034 85.05995 
L 16.880608 85.507845 
L 17.136323 85.849621 
L 17.392037 86.191397 
L 17.647752 86.533173 
L 17.903467 86.874949 
L 18.159181 87.216725 
L 18.414896 87.558501 
L 18.670611 87.900277 
L 18.926325 88.242053 
L 19.22172 88.627332 
L 19.517114 89.012611 
L 19.812509 89.397889 
L 20.107903 89.783168 
L 20.403298 90.168447 
L 20.698692 90.553726 
L 20.994087 90.939005 
L 21.289481 91.324284 
L 21.667664 91.730805 
L 22.045848 92.137326 
L 22.424031 92.543848 
L 22.802214 92.950369 
L 23.164862 93.29159 
L 23.527509 93.63281 
L 23.890156 93.974031 
L 24.252803 94.315251 
L 24.615451 94.656472 
L 24.978098 94.997692 
L 25.340745 95.338913 
L 25.703392 95.680133 
" style="fill:none;stroke:#000000;stroke-linecap:square;stroke-width:0.4;"/>
   </g>
   <g id="line2d_16">
    <path clip-path="url(#pdff156ba86)" d="M 55.994448 82.829914 
L 55.718719 83.292388 
L 55.442989 83.754861 
L 55.16726 84.217335 
L 54.89153 84.679808 
L 54.615801 85.142282 
L 54.340071 85.604755 
L 54.064342 86.067229 
L 53.788612 86.529702 
L 53.471103 86.98093 
L 53.153594 87.432157 
L 52.836086 87.883385 
L 52.518577 88.334612 
L 52.201068 88.78584 
L 51.883559 89.237067 
L 51.56605 89.688295 
L 51.248541 90.139522 
L 50.830748 90.751248 
L 50.412955 91.362974 
L 49.995162 91.974699 
L 49.577369 92.586425 
L 49.159576 93.198151 
L 48.741782 93.809876 
L 48.323989 94.421602 
L 47.906196 95.033328 
L 47.508488 95.19378 
L 47.110779 95.354231 
L 46.713071 95.514683 
L 46.315363 95.675135 
L 45.917654 95.835587 
L 45.519946 95.996039 
L 45.122238 96.156491 
L 44.724529 96.316943 
L 44.042764 96.470684 
L 43.360998 96.624425 
L 42.679232 96.778167 
L 41.997467 96.931908 
L 41.255516 97.010954 
L 40.513566 97.09 
L 39.771616 97.169045 
L 39.029665 97.248091 
L 38.287715 97.327137 
L 37.545765 97.406183 
L 36.803814 97.485229 
L 36.061864 97.564274 
" style="fill:none;stroke:#ff0000;stroke-linecap:square;stroke-width:0.4;"/>
   </g>
   <g id="line2d_17">
    <path clip-path="url(#pdff156ba86)" d="M 12.780217 57.01174 
L 10.091224 57.900311 
L 8.705018 59.239462 
L 8.477717 60.788908 
L 9.548163 62.454238 
L 10.023481 63.769694 
L 11.053618 64.891885 
L 12.700157 65.681232 
L 14.463146 65.208809 
L 17.708916 65.227506 
L 19.244884 65.013693 
L 20.409946 65.429471 
L 21.591244 66.732708 
L 23.471243 67.776409 
L 25.346764 68.238466 
L 26.884411 69.116023 
L 30.48541 70.395935 
L 32.888036 71.007106 
L 34.19978 72.745373 
L 37.689508 74.947363 
L 38.07231 75.165248 
L 37.764949 75.550296 
L 32.853884 75.288537 
L 28.532629 76.580483 
L 25.032229 77.05087 
L 18.491876 79.022387 
L 12.528841 83.395638 
L 9.899893 87.952434 
L 8.626219 89.631278 
L 6.89948 93.196022 
L 6.496383 94.189185 
L 4.119791 94.459459 
L 3.704937 94.917814 
L 3.272727 96.276217 
L 3.538659 97.434321 
L 5.141529 99.493584 
L 6.564686 99.932687 
L 7.60546 99.78237 
L 12.344998 97.544606 
L 15.137774 97.005215 
L 20.659642 94.825624 
L 22.93714 95.140882 
L 25.703392 95.680133 
L 25.703392 95.680133 
" style="fill:none;stroke:#4169e1;stroke-linecap:square;stroke-width:0.4;"/>
   </g>
   <g id="line2d_18">
    <path clip-path="url(#pdff156ba86)" d="M 37.764949 75.550296 
L 37.468295 76.151284 
L 37.17164 76.752273 
L 36.874986 77.353262 
L 36.578332 77.954251 
L 36.281678 78.555239 
L 35.985024 79.156228 
L 35.68837 79.757217 
L 35.391716 80.358206 
L 35.142229 81.062028 
L 34.892743 81.76585 
L 34.643257 82.469673 
L 34.393771 83.173495 
L 34.144284 83.877318 
L 33.894798 84.58114 
L 33.645312 85.284962 
L 33.395826 85.988785 
L 33.225349 86.603842 
L 33.054873 87.2189 
L 32.884397 87.833958 
L 32.71392 88.449016 
L 32.543444 89.064074 
L 32.372967 89.679131 
L 32.202491 90.294189 
L 32.032014 90.909247 
L 32.025366 91.397267 
L 32.018718 91.885287 
L 32.01207 92.373307 
L 32.005421 92.861327 
L 31.998773 93.349347 
L 31.992125 93.837367 
L 31.985476 94.325386 
L 31.978828 94.813406 
L 31.826757 95.413423 
L 31.674686 96.01344 
L 31.522615 96.613457 
L 31.370544 97.213474 
L 31.218472 97.813491 
L 31.066401 98.413508 
L 30.91433 99.013525 
L 30.762259 99.613542 
" style="fill:none;stroke:#000000;stroke-linecap:square;stroke-width:0.4;"/>
   </g>
   <g id="line2d_19">
    <path clip-path="url(#pdff156ba86)" d="M 50.311341 59.348682 
L 50.401618 59.716375 
L 50.491895 60.084068 
L 50.582172 60.45176 
L 50.672449 60.819453 
L 50.762726 61.187145 
L 50.853003 61.554838 
L 50.94328 61.92253 
L 51.033556 62.290223 
L 51.046923 62.771579 
L 51.06029 63.252934 
L 51.073656 63.73429 
L 51.087023 64.215645 
L 51.100389 64.697001 
L 51.113756 65.178357 
L 51.127122 65.659712 
L 51.140489 66.141068 
L 50.970013 66.746083 
L 50.799536 67.351098 
L 50.62906 67.956113 
L 50.458583 68.561128 
L 50.288107 69.166144 
L 50.117631 69.771159 
L 49.947154 70.376174 
L 49.776678 70.981189 
L 49.475895 71.522708 
L 49.175112 72.064227 
L 48.874328 72.605747 
L 48.573545 73.147266 
L 48.272762 73.688785 
L 47.971979 74.230305 
L 47.671196 74.771824 
L 47.370413 75.313343 
L 47.096083 75.927383 
L 46.821753 76.541423 
L 46.547423 77.155462 
L 46.273094 77.769502 
L 46.038374 78.295055 
L 45.803654 78.820607 
L 45.568934 79.34616 
L 45.334214 79.871713 
L 45.105792 80.382688 
L 44.87737 80.893662 
L 44.648949 81.404637 
L 44.420527 81.915612 
L 44.192106 82.426586 
L 43.963684 82.937561 
L 43.735262 83.448536 
L 43.506841 83.95951 
L 43.302983 84.368994 
L 43.099125 84.778477 
L 42.895267 85.18796 
L 42.691409 85.597443 
L 42.487551 86.006926 
L 42.283693 86.416409 
L 42.079836 86.825893 
L 41.875978 87.235376 
L 41.67212 87.644859 
L 41.468262 88.054342 
L 41.264404 88.463825 
L 41.060546 88.873309 
L 40.856688 89.282792 
L 40.65283 89.692275 
L 40.448973 90.101758 
L 40.245115 90.511241 
L 39.960987 91.089507 
L 39.67686 91.667772 
L 39.392733 92.246038 
L 39.108605 92.824303 
L 38.824478 93.402568 
L 38.540351 93.980834 
L 38.256223 94.559099 
L 37.972096 95.137365 
L 37.733317 95.440728 
L 37.494538 95.744092 
L 37.255759 96.047456 
L 37.01698 96.35082 
L 36.778201 96.654183 
L 36.539422 96.957547 
L 36.300643 97.260911 
L 36.061864 97.564274 
L 35.797472 97.900173 
L 35.533079 98.236071 
L 35.268687 98.57197 
L 35.004295 98.907868 
L 34.657743 99.270424 
L 34.311192 99.632979 
L 33.96464 99.995535 
L 33.618089 100.35809 
L 33.324164 100.681493 
L 33.030239 101.004896 
L 32.800978 101.309602 
L 32.571716 101.614308 
L 32.375767 102.111167 
L 32.248119 102.359597 
L 32.135028 102.683184 
L 32.097518 102.939019 
" style="fill:none;stroke:#ff0000;stroke-linecap:square;stroke-width:0.4;"/>
   </g>
   <g id="line2d_20">
    <path clip-path="url(#pdff156ba86)" d="M 11.704172 65.203625 
L 11.473371 65.713906 
L 11.24257 66.224186 
L 11.011769 66.734467 
L 10.780968 67.244747 
L 10.603073 67.638033 
L 10.425179 68.031318 
L 10.247284 68.424603 
L 10.06939 68.817888 
L 9.891495 69.211174 
L 9.713601 69.604459 
L 9.535706 69.997744 
L 9.357812 70.39103 
L 9.163891 70.845635 
L 8.969971 71.300241 
L 8.77605 71.754847 
L 8.58213 72.209453 
L 8.388209 72.664059 
L 8.194289 73.118665 
L 8.000369 73.573271 
L 7.806448 74.027877 
L 7.773067 74.679727 
L 7.739685 75.331577 
L 7.706304 75.983428 
L 7.672922 76.635278 
L 7.639541 77.287128 
L 7.606159 77.938978 
L 7.572778 78.590828 
L 7.539396 79.242679 
L 7.475888 79.643785 
L 7.412379 80.044892 
L 7.34887 80.445998 
L 7.285361 80.847105 
L 7.221853 81.248211 
L 7.158344 81.649318 
L 7.094835 82.050425 
L 7.031326 82.451531 
L 6.967818 82.852638 
L 6.904309 83.253744 
L 6.8408 83.654851 
L 6.777291 84.055957 
L 6.713783 84.457064 
L 6.650274 84.85817 
L 6.586765 85.259277 
L 6.523256 85.660384 
L 6.409605 86.185196 
L 6.295954 86.710008 
L 6.182303 87.23482 
L 6.068652 87.759633 
L 5.955002 88.284445 
L 5.841351 88.809257 
L 5.7277 89.33407 
L 5.614049 89.858882 
L 5.60817 90.41336 
L 5.602292 90.967837 
L 5.596413 91.522315 
L 5.590535 92.076793 
L 5.584656 92.63127 
L 5.578778 93.185748 
L 5.572899 93.740225 
L 5.567021 94.294703 
L 5.45057 94.821459 
L 5.33412 95.348215 
L 5.21767 95.874971 
L 5.10122 96.401727 
L 5.106258 96.788209 
L 5.111297 97.174692 
L 5.116336 97.561174 
L 5.121375 97.947656 
L 5.126413 98.334138 
L 5.131452 98.72062 
L 5.136491 99.107102 
L 5.141529 99.493584 
" style="fill:none;stroke:#000000;stroke-linecap:square;stroke-width:0.4;"/>
   </g>
   <g id="line2d_21">
    <path clip-path="url(#pdff156ba86)" d="M 50.657892 34.303565 
L 50.545151 34.949816 
L 50.43241 35.596066 
L 50.319669 36.242316 
L 50.206928 36.888567 
L 50.094187 37.534817 
L 49.981445 38.181067 
L 49.868704 38.827318 
L 49.755963 39.473568 
L 49.615579 39.851303 
L 49.475195 40.229039 
L 49.334811 40.606774 
L 49.194427 40.984509 
L 49.054043 41.362245 
L 48.913658 41.73998 
L 48.773274 42.117715 
L 48.63289 42.49545 
L 48.432391 42.97676 
L 48.231893 43.458069 
L 48.031394 43.939378 
L 47.830895 44.420688 
L 47.630396 44.901997 
L 47.429898 45.383306 
L 47.229399 45.864616 
L 47.0289 46.345925 
L 46.788232 46.713618 
L 46.547563 47.08131 
L 46.306895 47.449003 
L 46.066226 47.816695 
L 45.825558 48.184388 
L 45.584889 48.552081 
L 45.344221 48.919773 
L 45.103553 49.287466 
L 44.842869 49.598373 
L 44.582186 49.90928 
L 44.321502 50.220188 
L 44.060819 50.531095 
L 43.800136 50.842002 
L 43.539452 51.15291 
L 43.278769 51.463817 
L 43.018086 51.774724 
L 42.657118 52.202534 
L 42.29615 52.630344 
L 41.935183 53.058154 
L 41.574215 53.485964 
" style="fill:none;stroke:#000000;stroke-linecap:square;stroke-width:0.4;"/>
   </g>
   <g id="line2d_22">
    <path clip-path="url(#pdff156ba86)" d="M 32.034254 23.237153 
L 31.633116 23.497893 
L 31.231979 23.758633 
L 30.830842 24.019373 
L 30.429704 24.280113 
L 29.801405 24.300198 
L 29.173105 24.320284 
L 28.544806 24.340369 
L 27.916507 24.360455 
L 27.528736 24.500821 
L 27.140965 24.641187 
L 26.753194 24.781554 
L 26.365423 24.92192 
L 25.977652 25.062287 
L 25.589882 25.202653 
L 25.202111 25.34302 
L 24.81434 25.483386 
L 24.516916 25.807622 
L 24.219492 26.131858 
L 23.922068 26.456094 
L 23.624644 26.78033 
L 23.32722 27.104566 
L 23.029796 27.428802 
L 22.732372 27.753038 
L 22.434948 28.077273 
L 22.014846 28.303026 
L 21.594743 28.528779 
L 21.17464 28.754531 
L 20.754538 28.980284 
L 20.334435 29.206036 
L 19.914333 29.431789 
L 19.49423 29.657542 
L 19.074127 29.883294 
" style="fill:none;stroke:#000000;stroke-linecap:square;stroke-width:0.4;"/>
   </g>
   <g id="line2d_23">
    <path clip-path="url(#pdff156ba86)" d="M 29.684535 70.192212 
L 29.576622 70.668801 
L 29.46871 71.145389 
L 29.360797 71.621978 
L 29.252885 72.098567 
L 29.082689 72.670492 
L 28.912492 73.242417 
L 28.742296 73.814342 
L 28.572099 74.386267 
L 28.444872 74.947826 
L 28.317644 75.509384 
L 28.190417 76.070943 
L 28.063189 76.632501 
L 27.966124 77.086829 
L 27.869059 77.541158 
L 27.771994 77.995486 
L 27.674928 78.449814 
L 27.577863 78.904142 
L 27.480798 79.358471 
L 27.383733 79.812799 
L 27.286668 80.267127 
L 27.201569 80.881676 
L 27.116471 81.496225 
L 27.031373 82.110773 
L 26.946275 82.725322 
L 26.861176 83.339871 
L 26.776078 83.95442 
L 26.69098 84.568968 
L 26.605882 85.183517 
L 26.501888 85.826435 
L 26.397895 86.469353 
L 26.293902 87.112272 
L 26.189908 87.75519 
L 26.085915 88.398108 
L 25.981921 89.041026 
L 25.877928 89.683945 
L 25.773934 90.326863 
L 25.765117 90.996022 
L 25.756299 91.66518 
L 25.747481 92.334339 
L 25.738663 93.003498 
L 25.729846 93.672657 
L 25.721028 94.341816 
L 25.71221 95.010975 
L 25.703392 95.680133 
" style="fill:none;stroke:#000000;stroke-linecap:square;stroke-width:0.4;"/>
   </g>
   <g id="line2d_24">
    <path clip-path="url(#pdff156ba86)" d="M 56.285574 29.436417 
L 56.362834 29.072103 
L 56.362834 28.508601 
L 56.192637 28.089121 
L 55.969814 27.958057 
L 55.648457 28.053948 
L 55.260896 28.389569 
L 54.873335 28.72519 
L 54.485774 29.060811 
L 54.098213 29.396431 
L 53.705893 29.873946 
L 53.313573 30.35146 
L 52.921254 30.828975 
L 52.528934 31.306489 
L 52.295054 31.681123 
L 52.061174 32.055758 
L 51.827293 32.430393 
L 51.593413 32.805027 
L 51.359533 33.179662 
L 51.125653 33.554296 
L 50.891773 33.928931 
L 50.657892 34.303565 
L 50.230092 34.627801 
L 49.802291 34.952037 
L 49.374491 35.276273 
L 48.94669 35.600509 
L 48.518889 35.924745 
L 48.091089 36.248981 
L 47.663288 36.573217 
L 47.235487 36.897452 
L 46.709432 37.344839 
L 46.183376 37.792225 
L 45.657321 38.239611 
L 45.131265 38.686998 
L 44.60521 39.134384 
L 44.079154 39.58177 
L 43.553099 40.029156 
L 43.027043 40.476543 
L 42.655998 40.693826 
L 42.284953 40.91111 
L 41.913908 41.128393 
L 41.542863 41.345676 
L 41.171818 41.56296 
L 40.800773 41.780243 
L 40.429727 41.997527 
L 40.058682 42.21481 
L 39.610867 42.519007 
L 39.163051 42.823204 
L 38.715236 43.1274 
L 38.26742 43.431597 
L 37.819605 43.735794 
L 37.371789 44.039991 
L 36.923974 44.344187 
L 36.476158 44.648384 
L 35.941075 44.978174 
L 35.405992 45.307963 
L 34.870909 45.637753 
L 34.335825 45.967542 
L 33.917542 46.239343 
L 33.499259 46.511144 
L 33.080976 46.782945 
L 32.662693 47.054746 
L 32.24441 47.326547 
L 31.826127 47.598348 
L 31.407844 47.870149 
L 30.989561 48.14195 
L 30.579956 48.478079 
L 30.17035 48.814209 
L 29.760745 49.150339 
L 29.35114 49.486469 
L 28.941535 49.822598 
L 28.531929 50.158728 
L 28.122324 50.494858 
L 27.712719 50.830988 
L 27.401858 51.1636 
L 27.090998 51.496213 
L 26.780137 51.828825 
L 26.469277 52.161438 
L 26.158416 52.49405 
L 25.847556 52.826663 
L 25.536695 53.159276 
L 25.225835 53.491888 
L 24.745337 53.76392 
L 24.26484 54.035953 
L 23.784343 54.307985 
L 23.303846 54.580017 
L 22.793396 54.858899 
L 22.282947 55.137781 
L 21.772497 55.416663 
L 21.262048 55.695544 
L 20.786939 55.931941 
L 20.311831 56.168338 
L 19.836722 56.404735 
L 19.361614 56.641132 
L 18.886505 56.877529 
L 18.411397 57.113926 
L 17.936288 57.350323 
L 17.46118 57.58672 
L 17.113789 57.773412 
L 16.766397 57.960105 
L 16.419006 58.146797 
L 16.071615 58.33349 
L 15.724224 58.520182 
L 15.376833 58.706875 
L 15.029441 58.893567 
L 14.68205 59.08026 
L 14.209251 59.633395 
L 13.736452 60.186531 
L 13.263653 60.739666 
L 12.790854 61.292802 
L 12.587626 61.841124 
L 12.384398 62.389447 
L 12.18117 62.937769 
L 11.977942 63.486092 
L 11.909499 63.915475 
L 11.841057 64.344859 
L 11.772614 64.774242 
L 11.704172 65.203625 
" style="fill:none;stroke:#000000;stroke-linecap:square;stroke-width:0.4;"/>
   </g>
   <g id="line2d_25">
    <path clip-path="url(#pdff156ba86)" d="M 30.989561 48.14195 
L 30.783394 48.806064 
L 30.577226 49.470178 
L 30.371059 50.134293 
L 30.164892 50.798407 
L 29.958725 51.462521 
L 29.752557 52.126636 
L 29.54639 52.79075 
L 29.340223 53.454864 
L 29.250366 54.140314 
L 29.160509 54.825763 
L 29.070652 55.511212 
L 28.980795 56.196661 
L 28.890938 56.882111 
L 28.801081 57.56756 
L 28.711223 58.253009 
L 28.621366 58.938459 
L 28.64635 59.653111 
L 28.671334 60.367762 
L 28.696317 61.082414 
L 28.721301 61.797066 
L 28.746285 62.511718 
L 28.771268 63.22637 
L 28.796252 63.941021 
L 28.821235 64.655673 
L 28.929148 65.347741 
L 29.03706 66.039808 
L 29.144973 66.731875 
L 29.252885 67.423943 
L 29.360797 68.11601 
L 29.46871 68.808077 
L 29.576622 69.500144 
L 29.684535 70.192212 
" style="fill:none;stroke:#ff0000;stroke-linecap:square;stroke-width:0.4;"/>
   </g>
   <g id="line2d_26">
    <path clip-path="url(#pdff156ba86)" d="M 61.851671 41.471372 
L 62.09052 41.974896 
L 62.329368 42.478419 
L 62.568217 42.981943 
L 62.807066 43.485467 
L 63.045915 43.98899 
L 63.284764 44.492514 
L 63.523613 44.996038 
L 63.762462 45.499561 
L 63.953933 46.20542 
L 64.145404 46.911279 
L 64.336875 47.617137 
L 64.528346 48.322996 
L 64.635279 49.018303 
L 64.742212 49.71361 
" style="fill:none;stroke:#000000;stroke-linecap:square;stroke-width:0.4;"/>
   </g>
   <g id="line2d_27">
    <path clip-path="url(#pdff156ba86)" d="M 64.742212 49.71361 
L 64.969653 50.068483 
L 65.197095 50.423356 
L 65.424537 50.778229 
L 65.651979 51.133102 
L 65.879421 51.487975 
L 66.106863 51.842848 
L 66.334305 52.197721 
L 66.561746 52.552594 
L 66.802485 53.107488 
L 67.043223 53.662383 
L 67.283962 54.217277 
L 67.5247 54.772171 
L 67.658366 55.146574 
L 67.792032 55.520977 
L 67.925698 55.89538 
L 68.059363 56.269783 
L 68.193029 56.644187 
L 68.326695 57.01859 
L 68.460361 57.392993 
L 68.594027 57.767396 
L 68.627338 58.402447 
L 68.66065 59.037497 
L 68.693961 59.672548 
L 68.727273 60.307599 
" style="fill:none;stroke:#4169e1;stroke-linecap:square;stroke-width:0.4;"/>
   </g>
   <g id="line2d_28">
    <path clip-path="url(#pdff156ba86)" d="M 58.614578 33.337614 
L 58.483327 33.729858 
L 58.352075 34.122102 
L 58.220824 34.514346 
L 58.089572 34.90659 
L 57.958321 35.298834 
L 57.82707 35.691078 
L 57.695818 36.083322 
L 57.564567 36.475566 
L 57.433315 36.86781 
L 57.302064 37.260054 
L 57.170812 37.652298 
L 57.039561 38.044542 
L 56.908309 38.436786 
L 56.777058 38.82903 
L 56.645807 39.221274 
L 56.514555 39.613518 
L 56.273887 39.984543 
L 56.033218 40.355568 
L 55.79255 40.726592 
L 55.551881 41.097617 
L 55.311213 41.468642 
L 55.070544 41.839666 
L 54.829876 42.210691 
L 54.589207 42.581716 
L 54.385349 43.119903 
L 54.181492 43.65809 
L 53.977634 44.196277 
L 53.773776 44.734464 
L 53.569918 45.272652 
L 53.36606 45.810839 
L 53.162202 46.349026 
L 52.958344 46.887213 
L 52.761205 47.408693 
L 52.564065 47.930173 
L 52.366926 48.451654 
L 52.169786 48.973134 
L 51.972646 49.494614 
L 51.775507 50.016094 
L 51.578367 50.537574 
L 51.381228 51.059054 
L 51.280943 51.537032 
L 51.180659 52.015009 
L 51.080374 52.492986 
L 50.98009 52.970963 
L 50.879806 53.44894 
L 50.779521 53.926918 
L 50.679237 54.404895 
L 50.578953 54.882872 
L 50.545501 55.441098 
L 50.51205 55.999325 
L 50.478598 56.557551 
L 50.445147 57.115777 
L 50.411695 57.674003 
L 50.378244 58.23223 
L 50.344793 58.790456 
L 50.311341 59.348682 
" style="fill:none;stroke:#000000;stroke-linecap:square;stroke-width:0.4;"/>
   </g>
   <g id="line2d_29">
    <path clip-path="url(#pdff156ba86)" d="M 41.574215 53.485964 
L 41.363639 53.963988 
L 41.153063 54.442011 
L 40.942486 54.920035 
L 40.73191 55.398058 
L 40.521334 55.876082 
L 40.310758 56.354105 
L 40.100182 56.832129 
L 39.889606 57.310152 
L 39.749291 57.855004 
L 39.608977 58.399855 
L 39.468663 58.944706 
L 39.328349 59.489558 
L 39.188035 60.034409 
L 39.047721 60.579261 
L 38.907407 61.124112 
L 38.767093 61.668964 
L 38.676816 62.177069 
L 38.586539 62.685174 
L 38.496262 63.19328 
L 38.405985 63.701385 
L 38.315708 64.20949 
L 38.225431 64.717596 
L 38.135154 65.225701 
L 38.044877 65.733806 
L 37.99477 66.131581 
L 37.944663 66.529355 
L 37.894556 66.927129 
L 37.844448 67.324904 
L 37.794341 67.722678 
L 37.744234 68.120453 
L 37.694127 68.518227 
L 37.64402 68.916002 
L 37.670788 69.306579 
L 37.697556 69.697157 
L 37.724324 70.087735 
L 37.751092 70.478313 
L 37.77786 70.868891 
L 37.804629 71.259469 
L 37.831397 71.650047 
L 37.858165 72.040625 
L 37.884933 72.431203 
L 37.911701 72.821781 
L 37.938469 73.212358 
L 37.965238 73.602936 
L 37.992006 73.993514 
L 38.018774 74.384092 
L 38.045542 74.77467 
L 38.07231 75.165248 
" style="fill:none;stroke:#000000;stroke-linecap:square;stroke-width:0.4;"/>
   </g>
   <g id="line2d_30">
    <path clip-path="url(#pdff156ba86)" d="M 41.259575 74.261867 
L 41.285329 73.933466 
L 41.245579 73.824246 
L 41.036752 73.78426 
L 40.828486 73.933466 
L 40.441065 74.370347 
L 39.885127 74.866836 
L 39.230094 75.045661 
L 38.475407 75.055658 
L 38.07231 75.165248 
" style="fill:none;stroke:#008000;stroke-linecap:square;stroke-width:0.4;"/>
   </g>
   <g id="line2d_31">
    <path clip-path="url(#pdff156ba86)" d="M 41.259575 74.261867 
L 41.431451 74.030839 
L 41.682827 73.996407 
L 42.309867 74.167457 
L 42.848729 74.38997 
L 43.387591 74.612483 
L 43.926453 74.834996 
L 44.465316 75.057509 
L 45.012856 75.291314 
L 45.560396 75.525119 
L 46.096739 76.026792 
L 46.392903 76.665823 
L 46.415857 77.178972 
L 46.273094 77.769502 
" style="fill:none;stroke:#4169e1;stroke-linecap:square;stroke-width:0.4;"/>
   </g>
   <g id="line2d_32">
    <path clip-path="url(#pdff156ba86)" d="M 41.259575 74.261867 
L 41.505912 74.096741 
L 41.753929 74.14191 
L 42.06241 74.360351 
L 42.483982 74.87202 
L 42.826335 75.515493 
L 43.168687 76.158967 
L 43.387031 76.512729 
L 43.605376 76.866491 
L 43.898741 77.118624 
L 44.192106 77.370756 
L 44.651188 77.619185 
L 45.087877 77.882424 
L 45.283267 78.138259 
L 45.381242 78.469622 
L 45.42603 79.01128 
L 45.403636 79.515544 
L 45.334214 79.871713 
" style="fill:none;stroke:#4169e1;stroke-linecap:square;stroke-width:0.4;"/>
   </g>
  </g>
 </g>
 <defs>
  <clipPath id="pdff156ba86">
   <rect height="107.840877" width="72" x="0" y="0"/>
  </clipPath>
 </defs>
</svg>
