<?xml version="1.0" encoding="utf-8" standalone="no"?>
<!DOCTYPE svg PUBLIC "-//W3C//DTD SVG 1.1//EN"
  "http://www.w3.org/Graphics/SVG/1.1/DTD/svg11.dtd">
<svg height="72pt" version="1.1" viewBox="0 0 121.21861 72" width="121.21861pt" xmlns="http://www.w3.org/2000/svg" xmlns:xlink="http://www.w3.org/1999/xlink">
 <metadata>
  <rdf:RDF xmlns:cc="http://creativecommons.org/ns#" xmlns:dc="http://purl.org/dc/elements/1.1/" xmlns:rdf="http://www.w3.org/1999/02/22-rdf-syntax-ns#">
   <cc:Work>
    <dc:type rdf:resource="http://purl.org/dc/dcmitype/StillImage"/>
    <dc:date>2022-05-19T21:10:05.469854</dc:date>
    <dc:format>image/svg+xml</dc:format>
    <dc:creator>
     <cc:Agent>
      <dc:title>Matplotlib v3.4.3, https://matplotlib.org/</dc:title>
     </cc:Agent>
    </dc:creator>
   </cc:Work>
  </rdf:RDF>
 </metadata>
 <defs>
  <style type="text/css">*{stroke-linecap:butt;stroke-linejoin:round;}</style>
 </defs>
 <g id="figure_1">
  <g id="patch_1">
   <path d="M 0 72 
L 121.21861 72 
L 121.21861 0 
L 0 0 
z
" style="fill:#ffffff;"/>
  </g>
  <g id="axes_1">
   <g id="line2d_1">
    <path clip-path="url(#p9e463b456b)" d="M 31.470977 67.253646 
L 33.640168 60.064157 
L 35.80936 52.874668 
L 37.978551 45.685178 
L 40.147742 38.495689 
L 42.316934 31.3062 
L 44.486125 24.11671 
L 46.655317 16.927221 
L 48.824508 9.737732 
" style="fill:none;stroke:#808080;stroke-linecap:square;stroke-width:0.561197;"/>
   </g>
   <g id="line2d_2">
    <path clip-path="url(#p9e463b456b)" d="M 58.038359 60.247152 
L 58.464848 53.21044 
L 58.891337 46.173728 
L 59.317825 39.137016 
L 59.744314 32.100305 
L 60.170803 25.063593 
L 60.597291 18.026881 
L 61.02378 10.990169 
L 61.450269 3.953458 
" style="fill:none;stroke:#808080;stroke-linecap:square;stroke-width:0.561197;"/>
   </g>
   <g id="line2d_3">
    <path clip-path="url(#p9e463b456b)" d="M 65.708795 62.206185 
L 71.892527 59.740472 
L 78.07626 57.274758 
L 84.259992 54.809044 
L 90.443725 52.34333 
L 96.627457 49.877617 
L 102.811189 47.411903 
L 108.994922 44.946189 
L 115.178654 42.480476 
" style="fill:none;stroke:#808080;stroke-linecap:square;stroke-width:0.561197;"/>
   </g>
   <g id="line2d_4">
    <path clip-path="url(#p9e463b456b)" d="M 29.714141 51.391855 
L 29.631458 45.45577 
L 29.548775 39.519685 
L 29.466092 33.583601 
L 29.383409 27.647516 
" style="fill:none;stroke:#808080;stroke-linecap:square;stroke-width:0.561197;"/>
   </g>
   <g id="line2d_5">
    <path clip-path="url(#p9e463b456b)" d="M 36.601562 67.988526 
L 38.494083 60.960758 
" style="fill:none;stroke:#808080;stroke-linecap:square;stroke-width:0.561197;"/>
   </g>
   <g id="line2d_6">
    <path clip-path="url(#p9e463b456b)" d="M 52.441358 10.022014 
L 52.424795 11.562058 
L 52.408232 13.102101 
L 52.391669 14.642145 
L 52.375106 16.182189 
L 52.358542 17.722233 
L 52.341979 19.262276 
L 52.325416 20.80232 
L 52.308853 22.342364 
L 52.29229 23.882407 
L 52.275727 25.422451 
L 52.259164 26.962495 
L 52.242601 28.502538 
L 52.226038 30.042582 
L 52.209475 31.582626 
L 52.192912 33.122669 
L 52.176348 34.662713 
L 52.159785 36.202757 
L 52.143222 37.7428 
L 52.126659 39.282844 
L 52.110096 40.822888 
L 52.093533 42.362931 
L 52.07697 43.902975 
L 52.060407 45.443019 
L 52.043844 46.983062 
L 52.027281 48.523106 
L 52.010717 50.06315 
L 51.994154 51.603193 
L 51.977591 53.143237 
L 51.961028 54.683281 
L 51.944465 56.223324 
L 51.927902 57.763368 
L 51.911339 59.303412 
" style="fill:none;stroke:#4169e1;stroke-linecap:square;stroke-width:0.561197;"/>
   </g>
   <g id="line2d_7">
    <path clip-path="url(#p9e463b456b)" d="M 58.265914 5.492837 
L 58.317856 7.33632 
L 58.369798 9.179804 
L 58.42174 11.023287 
L 58.473682 12.866771 
L 58.547178 15.471725 
L 58.70265 17.676363 
L 58.858122 19.881001 
L 59.136029 21.455674 
L 59.413935 23.030346 
L 59.691842 24.605018 
L 59.969749 26.179691 
L 60.247655 27.754363 
L 60.525562 29.329036 
L 60.803469 30.903708 
L 61.081375 32.478381 
L 61.200806 35.079467 
L 61.320237 37.680553 
L 61.209287 40.277772 
L 61.098336 42.87499 
L 60.987385 45.472208 
L 60.876435 48.069427 
L 60.765661 49.608564 
L 60.654887 51.147701 
L 60.544113 52.686838 
L 60.433339 54.225975 
L 60.322565 55.765113 
L 60.211791 57.30425 
L 60.101017 58.843387 
L 59.990243 60.382524 
" style="fill:none;stroke:#4169e1;stroke-linecap:square;stroke-width:0.561197;"/>
   </g>
   <g id="line2d_8">
    <path clip-path="url(#p9e463b456b)" d="M 45.921417 11.083721 
L 45.312425 12.785547 
L 44.703433 14.487373 
L 44.094441 16.189199 
L 43.485449 17.891025 
L 42.876457 19.592851 
L 42.267465 21.294677 
L 41.658473 22.996503 
L 41.049482 24.698329 
L 40.661508 26.002438 
L 40.273534 27.306546 
L 39.88556 28.610655 
L 39.497586 29.914764 
L 39.109612 31.218872 
L 38.721638 32.522981 
L 38.333664 33.82709 
L 37.94569 35.131199 
L 37.557716 36.435307 
L 37.169742 37.739416 
L 36.781768 39.043525 
L 36.393794 40.347633 
L 36.00582 41.651742 
L 35.617846 42.955851 
L 35.229872 44.25996 
L 34.841898 45.564068 
L 34.453924 46.868177 
L 34.06595 48.172286 
L 33.677976 49.476394 
L 33.290003 50.780503 
L 32.902029 52.084612 
L 32.514055 53.388721 
L 32.126081 54.692829 
L 31.738107 55.996938 
L 31.350133 57.301047 
L 30.962159 58.605155 
L 30.574185 59.909264 
L 30.186211 61.213373 
L 29.798237 62.517482 
L 29.410263 63.82159 
L 29.022289 65.125699 
L 28.634315 66.429808 
" style="fill:none;stroke:#4169e1;stroke-linecap:square;stroke-width:0.561197;"/>
   </g>
   <g id="line2d_9">
    <path clip-path="url(#p9e463b456b)" d="M 43.418313 11.68903 
L 41.494521 11.888221 
L 39.570728 12.087412 
L 37.646936 12.286603 
L 35.723143 12.485794 
L 33.799351 12.684985 
L 31.875558 12.884176 
L 29.951766 13.083367 
L 28.027973 13.282558 
L 26.056302 14.723308 
L 25.10854 16.680287 
L 24.160778 18.637266 
L 23.213015 20.594245 
L 22.265253 22.551224 
L 21.31749 24.508203 
L 20.369728 26.465182 
L 19.421965 28.422161 
L 18.474203 30.37914 
L 17.526441 32.336119 
L 16.578678 34.293098 
L 15.630916 36.250077 
L 14.683153 38.207055 
L 13.735391 40.164034 
L 12.787629 42.121013 
L 11.839866 44.077992 
L 10.892104 46.034971 
" style="fill:none;stroke:#008000;stroke-linecap:square;stroke-width:0.561197;"/>
   </g>
   <g id="line2d_10">
    <path clip-path="url(#p9e463b456b)" d="M 10.892104 46.034971 
L 9.208763 47.464118 
L 7.525423 48.893265 
L 6.524747 50.15223 
L 5.524071 51.411194 
L 5.517004 52.961209 
L 5.509937 54.511225 
L 5.991194 55.831107 
L 6.472451 57.150989 
L 7.701742 58.5724 
L 8.931033 59.993812 
L 10.160324 61.415223 
L 11.389615 62.836634 
L 12.515729 63.632431 
L 13.641843 64.428228 
L 14.767956 65.224025 
L 15.89407 66.019822 
L 17.395791 66.696685 
L 18.897512 67.373548 
L 20.399232 68.05041 
L 21.900953 68.727273 
" style="fill:none;stroke:#008000;stroke-linecap:square;stroke-width:0.561197;"/>
   </g>
   <g id="line2d_11">
    <path clip-path="url(#p9e463b456b)" d="M 10.892104 46.034971 
L 11.759303 47.314362 
L 12.626503 48.593754 
L 13.493702 49.873145 
L 14.360902 51.152536 
L 15.228101 52.431927 
L 16.095301 53.711318 
L 16.9625 54.990709 
L 17.8297 56.2701 
L 18.696899 57.549492 
L 19.564099 58.828883 
L 20.431298 60.108274 
L 21.298498 61.387665 
L 22.165697 62.667056 
L 23.032897 63.946447 
L 23.900097 65.225838 
L 24.767296 66.50523 
" style="fill:none;stroke:#008000;stroke-linecap:square;stroke-width:0.561197;"/>
   </g>
   <g id="line2d_12">
    <path clip-path="url(#p9e463b456b)" d="M 41.049482 24.698329 
L 39.51702 24.847239 
L 37.984558 24.996148 
L 36.452096 25.145058 
L 34.919634 25.293968 
L 33.251134 25.664308 
L 31.582634 26.034649 
L 29.913428 26.746322 
L 28.244221 27.457994 
L 27.333295 29.626855 
L 26.422369 31.795716 
L 26.427934 33.917681 
L 26.433499 36.039645 
L 26.439064 38.161609 
L 26.44463 40.283573 
L 26.450195 42.405537 
L 26.45576 44.527502 
L 26.461325 46.649466 
L 26.46689 48.77143 
L 26.472456 50.893394 
L 26.478021 53.015358 
L 26.483586 55.137323 
L 26.489151 57.259287 
L 26.494716 59.381251 
L 26.500282 61.503215 
L 26.505847 63.625179 
L 26.511412 65.747143 
" style="fill:none;stroke:#008000;stroke-linecap:square;stroke-width:0.561197;"/>
   </g>
   <g id="line2d_13">
    <path clip-path="url(#p9e463b456b)" d="M 64.117325 3.272727 
L 64.689392 4.533142 
L 65.261459 5.793557 
L 65.833526 7.053972 
L 66.405593 8.314387 
L 67.568102 10.157387 
L 68.73061 12.000387 
L 69.173 12.700456 
L 69.699132 14.075938 
L 70.225264 15.451419 
L 70.751396 16.8269 
L 71.277529 18.202382 
L 71.066228 20.666162 
L 70.854927 23.129941 
L 70.450346 24.46046 
L 70.045764 25.790978 
L 69.641183 27.121497 
L 69.236602 28.452015 
L 69.225295 30.269875 
L 69.213988 32.087734 
L 69.408328 33.906561 
L 69.602668 35.725387 
L 69.529172 37.457188 
L 69.455676 39.18899 
L 68.973712 41.738828 
L 68.491748 44.288666 
L 67.840532 45.819826 
L 67.189315 47.350985 
L 66.538098 48.882145 
L 65.886881 50.413305 
L 64.980196 52.236966 
L 64.07351 54.060628 
L 63.387312 55.639651 
L 62.701114 57.218675 
L 62.014916 58.797699 
L 61.328718 60.376722 
" style="fill:none;stroke:#4169e1;stroke-linecap:square;stroke-width:0.561197;"/>
   </g>
   <g id="line2d_14">
    <path clip-path="url(#p9e463b456b)" d="M 115.708673 45.837714 
L 114.341577 47.125687 
L 112.974482 48.41366 
L 111.607386 49.701633 
L 110.24029 50.989605 
L 109.057287 52.146073 
L 107.874285 53.302541 
L 106.691282 54.45901 
L 105.50828 55.615478 
L 103.983945 56.400638 
L 102.45961 57.185799 
L 100.040603 57.873298 
L 97.621596 58.560797 
L 95.387389 58.586904 
L 93.153182 58.613012 
L 90.918975 58.639119 
L 88.684768 58.665227 
L 87.212375 58.218498 
L 85.739982 57.771768 
L 84.267589 57.325039 
L 82.795196 56.87831 
L 80.816812 56.732301 
L 78.838427 56.586292 
L 76.860043 56.440283 
L 74.881658 56.294274 
L 73.90925 56.746805 
L 71.59448 57.820599 
L 69.27971 58.894393 
L 66.96494 59.968187 
L 64.65017 61.041982 
" style="fill:none;stroke:#4169e1;stroke-linecap:square;stroke-width:0.561197;"/>
   </g>
   <g id="line2d_15">
    <path clip-path="url(#p9e463b456b)" d="M 58.473682 12.866771 
L 61.037914 12.650175 
L 63.602146 12.433579 
L 66.166378 12.216983 
L 68.73061 12.000387 
L 70.894148 11.949622 
L 73.057686 11.898857 
L 75.221224 11.848093 
L 77.384762 11.797328 
L 79.405901 12.63277 
" style="fill:none;stroke:#008000;stroke-linecap:square;stroke-width:0.561197;"/>
   </g>
   <g id="line2d_16">
    <path clip-path="url(#p9e463b456b)" d="M 79.405901 12.63277 
L 80.229904 15.009524 
L 80.77759 17.494577 
L 81.325277 19.97963 
L 81.819608 21.297578 
L 82.313939 22.615526 
L 82.80827 23.933474 
L 83.302601 25.251422 
L 83.55065 26.923273 
L 83.798699 28.595123 
L 83.666901 30.0117 
L 83.535103 31.428277 
L 83.403305 32.844853 
L 83.271507 34.26143 
L 82.896253 35.627726 
L 82.521 36.994021 
L 82.145746 38.360317 
L 81.770493 39.726612 
L 81.053907 41.127234 
L 80.337321 42.527856 
L 79.620735 43.928478 
L 78.90415 45.3291 
L 77.459671 47.217547 
L 76.015192 49.105993 
L 74.297931 50.721761 
L 72.580669 52.337529 
L 71.467276 53.332033 
L 70.353882 54.326538 
L 69.240489 55.321042 
L 68.127095 56.315547 
L 67.013702 57.310051 
L 65.900309 58.304556 
L 64.786915 59.29906 
L 63.673522 60.293565 
" style="fill:none;stroke:#008000;stroke-linecap:square;stroke-width:0.561197;"/>
   </g>
   <g id="line2d_17">
    <path clip-path="url(#p9e463b456b)" d="M 64.117325 3.272727 
L 65.689008 3.352259 
L 67.260691 3.43179 
L 68.832374 3.511321 
L 70.404057 3.590853 
L 71.97574 3.670384 
L 73.547424 3.749915 
L 75.119107 3.829447 
L 76.69079 3.908978 
L 78.535256 4.488179 
L 80.379723 5.06738 
" style="fill:none;stroke:#008000;stroke-linecap:square;stroke-width:0.561197;"/>
   </g>
   <g id="line2d_18">
    <path clip-path="url(#p9e463b456b)" d="M 80.379723 5.06738 
L 81.756359 7.131811 
L 83.132995 9.196242 
L 83.519909 10.623455 
L 83.906823 12.050668 
L 84.293737 13.477881 
L 84.680651 14.905094 
L 85.067565 16.332307 
L 85.454479 17.75952 
L 85.841392 19.186733 
L 86.228306 20.613947 
L 86.913444 22.814233 
L 87.598582 25.01452 
L 88.28372 27.214807 
L 88.968858 29.415094 
L 89.187933 31.096614 
L 89.407007 32.778134 
L 89.626082 34.459654 
L 89.845156 36.141174 
L 90.127833 38.320672 
L 89.520078 40.591062 
L 88.738477 41.726257 
L 87.956875 42.861453 
L 87.053016 43.865143 
L 86.149157 44.868834 
L 85.245298 45.872524 
L 84.341438 46.876215 
L 83.07434 47.938406 
L 81.807241 49.000596 
L 80.540142 50.062787 
L 79.273043 51.124978 
L 77.932095 52.530435 
L 76.591146 53.935891 
L 75.250198 55.341348 
L 73.90925 56.746805 
" style="fill:none;stroke:#008000;stroke-linecap:square;stroke-width:0.561197;"/>
   </g>
   <g id="line2d_19">
    <path clip-path="url(#p9e463b456b)" d="M 113.284719 40.256499 
L 111.311282 40.347392 
L 109.337844 40.438285 
L 107.364406 40.529178 
L 105.390969 40.620071 
L 103.295273 40.451822 
L 101.199578 40.283573 
L 99.103883 40.115324 
L 97.008187 39.947076 
L 95.288099 39.540475 
L 93.56801 39.133874 
L 91.847922 38.727273 
L 90.127833 38.320672 
" style="fill:none;stroke:#ff0000;stroke-linecap:square;stroke-width:0.561197;"/>
   </g>
   <g id="line2d_20">
    <path clip-path="url(#p9e463b456b)" d="M 104.41008 26.960984 
L 102.589465 28.108508 
L 100.768849 29.256031 
L 98.948234 30.403555 
L 97.127618 31.551079 
L 95.307003 32.698603 
L 93.486387 33.846127 
L 91.665772 34.99365 
L 89.845156 36.141174 
" style="fill:none;stroke:#000000;stroke-linecap:square;stroke-width:0.561197;"/>
   </g>
   <g id="line2d_21">
    <path clip-path="url(#p9e463b456b)" d="M 102.45961 57.185799 
L 101.70345 55.232567 
L 100.947289 53.279335 
L 99.84909 52.212793 
L 98.75089 51.146251 
L 96.342483 50.556413 
L 93.934077 49.966576 
L 92.462037 49.580281 
L 90.989998 49.193986 
L 89.517958 48.80769 
L 88.045918 48.421395 
L 86.193678 47.648805 
L 84.341438 46.876215 
" style="fill:none;stroke:#008000;stroke-linecap:square;stroke-width:0.561197;"/>
   </g>
   <g id="line2d_22">
    <path clip-path="url(#p9e463b456b)" d="M 113.284719 40.256499 
L 112.055782 39.174486 
L 110.826844 38.092472 
L 109.666456 36.260109 
L 108.506068 34.427745 
L 107.482071 32.561055 
L 106.458074 30.694364 
L 105.434077 28.827674 
L 104.41008 26.960984 
L 103.532192 25.634091 
L 102.654304 24.307199 
L 101.776416 22.980307 
L 100.898527 21.653414 
L 100.020639 20.326522 
L 99.142751 18.999629 
L 98.264863 17.672737 
L 97.386974 16.345845 
L 95.563709 15.286071 
L 93.740443 14.226298 
L 91.917178 13.166524 
L 90.093912 12.106751 
L 88.353683 11.379124 
L 86.613454 10.651496 
L 84.873224 9.923869 
L 83.132995 9.196242 
" style="fill:none;stroke:#008000;stroke-linecap:square;stroke-width:0.561197;"/>
   </g>
   <g id="line2d_23">
    <path clip-path="url(#p9e463b456b)" d="M 31.557194 30.61024 
L 31.554808 31.919848 
L 31.552423 33.229456 
L 31.550038 34.539065 
L 31.547653 35.848673 
L 31.545268 37.158281 
L 31.542883 38.467889 
L 31.540498 39.777498 
L 31.538113 41.087106 
L 31.535728 42.396714 
L 31.533343 43.706322 
L 31.530958 45.01593 
L 31.528573 46.325539 
L 31.526187 47.635147 
L 31.523802 48.944755 
L 31.521417 50.254363 
L 31.519032 51.563972 
" style="fill:none;stroke:#008000;stroke-linecap:square;stroke-width:0.561197;"/>
   </g>
  </g>
 </g>
 <defs>
  <clipPath id="p9e463b456b">
   <rect height="72" width="121.21861" x="0" y="0"/>
  </clipPath>
 </defs>
</svg>
