<?xml version="1.0" encoding="utf-8" standalone="no"?>
<!DOCTYPE svg PUBLIC "-//W3C//DTD SVG 1.1//EN"
  "http://www.w3.org/Graphics/SVG/1.1/DTD/svg11.dtd">
<svg height="87.061313pt" version="1.1" viewBox="0 0 72 87.061313" width="72pt" xmlns="http://www.w3.org/2000/svg" xmlns:xlink="http://www.w3.org/1999/xlink">
 <metadata>
  <rdf:RDF xmlns:cc="http://creativecommons.org/ns#" xmlns:dc="http://purl.org/dc/elements/1.1/" xmlns:rdf="http://www.w3.org/1999/02/22-rdf-syntax-ns#">
   <cc:Work>
    <dc:type rdf:resource="http://purl.org/dc/dcmitype/StillImage"/>
    <dc:date>2022-05-22T19:44:08.996151</dc:date>
    <dc:format>image/svg+xml</dc:format>
    <dc:creator>
     <cc:Agent>
      <dc:title>Matplotlib v3.4.3, https://matplotlib.org/</dc:title>
     </cc:Agent>
    </dc:creator>
   </cc:Work>
  </rdf:RDF>
 </metadata>
 <defs>
  <style type="text/css">*{stroke-linecap:butt;stroke-linejoin:round;}</style>
 </defs>
 <g id="figure_1">
  <g id="patch_1">
   <path d="M 0 87.061313 
L 72 87.061313 
L 72 0 
L 0 0 
z
" style="fill:#ffffff;"/>
  </g>
  <g id="axes_1">
   <g id="line2d_1">
    <path clip-path="url(#p657620db92)" d="M 3.365319 74.360847 
L 5.20297 72.99688 
L 7.049406 71.627968 
L 8.895842 70.259057 
L 11.026476 68.679219 
L 13.157109 67.099382 
L 15.325252 65.491851 
L 17.493396 63.884319 
L 19.326991 62.526781 
L 21.160586 61.169244 
" style="fill:none;stroke:#808080;stroke-linecap:square;stroke-width:0.4;"/>
   </g>
   <g id="line2d_2">
    <path clip-path="url(#p657620db92)" d="M 3.654585 74.753519 
L 5.465201 73.418236 
L 7.362327 72.022124 
L 9.259452 70.626012 
L 11.385693 69.061259 
L 13.511933 67.496505 
L 15.657773 65.91741 
L 17.803613 64.338315 
L 19.630957 62.993636 
L 21.4583 61.648957 
L 23.285644 60.304278 
L 25.112987 58.959599 
L 26.34524 58.052843 
L 27.577493 57.146087 
L 28.809746 56.239332 
L 30.041999 55.332576 
L 32.236838 53.717626 
L 34.431678 52.102676 
L 35.693331 51.174283 
L 36.954983 50.245891 
L 38.216636 49.317499 
L 39.478289 48.389107 
L 41.836009 46.654228 
L 44.19373 44.91935 
L 45.440176 44.002209 
L 46.686622 43.085068 
L 47.933068 42.167926 
L 49.179514 41.250785 
L 50.438463 40.324371 
L 51.697412 39.397957 
L 52.956361 38.471543 
L 54.215311 37.545129 
L 55.5459 36.566045 
L 56.87649 35.586961 
L 58.20708 34.607878 
L 59.53767 33.628794 
L 60.87468 32.645013 
L 62.211691 31.661231 
L 63.548701 30.677449 
L 64.885712 29.693667 
L 66.328663 28.632365 
L 67.771614 27.571062 
" style="fill:none;stroke:#808080;stroke-linecap:square;stroke-width:0.4;"/>
   </g>
   <g id="line2d_3">
    <path clip-path="url(#p657620db92)" d="M 14.571674 20.051938 
L 16.648661 20.77602 
L 18.725649 21.500101 
L 20.802636 22.224183 
L 22.879624 22.948265 
L 24.956611 23.672347 
L 27.033598 24.396428 
L 29.110586 25.12051 
L 31.187573 25.844592 
" style="fill:none;stroke:#808080;stroke-linecap:square;stroke-width:0.4;"/>
   </g>
   <g id="line2d_4">
    <path clip-path="url(#p657620db92)" d="M 44.05518 27.985 
L 43.712014 28.413774 
L 43.368849 28.842548 
L 43.025683 29.271322 
L 42.682518 29.700096 
L 42.339353 30.12887 
L 41.996187 30.557644 
L 41.653022 30.986419 
L 41.309856 31.415193 
L 41.016873 31.825174 
L 40.72389 32.235155 
L 40.29506 32.834981 
L 39.866229 33.434807 
L 39.437399 34.034634 
L 39.008569 34.63446 
L 38.579739 35.234286 
L 38.150909 35.834112 
L 37.722079 36.433939 
L 37.293249 37.033765 
L 36.860871 37.659493 
L 36.428492 38.285221 
L 35.996114 38.91095 
L 35.563735 39.536678 
L 34.919646 40.079569 
L 34.275556 40.62246 
L 33.631466 41.165352 
L 32.987376 41.708243 
L 32.232276 42.201308 
L 31.477177 42.694374 
L 30.722078 43.187439 
L 29.966979 43.680505 
L 29.562311 43.936063 
L 29.157642 44.191621 
L 28.752974 44.447179 
L 28.348306 44.702738 
L 27.815647 45.008802 
L 27.282989 45.314866 
L 26.750331 45.62093 
L 26.217672 45.926994 
L 25.685014 46.233058 
L 25.152356 46.539122 
L 24.619697 46.845186 
L 24.087039 47.15125 
L 23.554381 47.457314 
L 23.021722 47.763378 
L 22.489064 48.069442 
L 21.956405 48.375506 
L 21.423747 48.681571 
L 20.891089 48.987635 
L 20.35843 49.293699 
L 19.825772 49.599763 
L 19.439648 49.967615 
L 19.053523 50.335466 
L 18.667399 50.703318 
L 18.281274 51.07117 
L 17.89515 51.439022 
L 17.509025 51.806874 
L 17.122901 52.174725 
L 16.736776 52.542577 
L 16.350651 52.910429 
L 15.964527 53.278281 
L 15.578402 53.646133 
L 15.192278 54.013984 
L 14.806153 54.381836 
L 14.420029 54.749688 
L 14.033904 55.11754 
L 13.64778 55.485392 
L 13.265668 55.88882 
L 12.883557 56.292248 
L 12.501445 56.695677 
L 12.119333 57.099105 
L 11.737222 57.502534 
L 11.35511 57.905962 
L 10.972999 58.30939 
L 10.590887 58.712819 
L 10.252453 59.304238 
L 9.914018 59.895657 
L 9.575584 60.487076 
L 9.237149 61.078494 
L 8.898715 61.669913 
L 8.56028 62.261332 
L 8.221846 62.852751 
L 7.883411 63.44417 
L 7.635034 64.148841 
L 7.386658 64.853511 
L 7.138281 65.558182 
L 6.889904 66.262853 
L 6.641527 66.967523 
L 6.393151 67.672194 
L 6.144774 68.376865 
L 5.896397 69.081535 
" style="fill:none;stroke:#008000;stroke-linecap:square;stroke-width:0.4;"/>
   </g>
   <g id="line2d_5">
    <path clip-path="url(#p657620db92)" d="M 61.549015 14.419518 
L 60.847308 14.579381 
L 60.145602 14.739244 
L 59.443895 14.899107 
L 58.742188 15.05897 
L 57.922545 15.371278 
L 57.102902 15.683586 
L 56.283258 15.995894 
L 55.463615 16.308201 
L 54.991868 16.640044 
L 54.520121 16.971886 
L 54.048374 17.303729 
L 53.576627 17.635571 
L 53.104881 17.967414 
L 52.633134 18.299256 
L 52.161387 18.631099 
L 51.68964 18.962941 
L 51.234282 19.515909 
L 50.778925 20.068876 
L 50.323568 20.621844 
L 49.86821 21.174812 
L 49.412853 21.727779 
L 48.957495 22.280747 
L 48.502138 22.833715 
L 48.04678 23.386683 
L 47.54783 23.961472 
L 47.04888 24.536262 
L 46.54993 25.111052 
L 46.05098 25.685841 
L 45.55203 26.260631 
L 45.05308 26.835421 
L 44.55413 27.41021 
L 44.05518 27.985 
" style="fill:none;stroke:#4169e1;stroke-linecap:square;stroke-width:0.4;"/>
   </g>
   <g id="line2d_6">
    <path clip-path="url(#p657620db92)" d="M 39.075479 26.468218 
L 38.548143 26.662267 
L 38.020807 26.856315 
L 37.493471 27.050364 
L 36.966135 27.244413 
L 36.438799 27.438462 
L 35.911463 27.63251 
L 35.384127 27.826559 
L 34.856791 28.020608 
L 34.396787 28.112656 
L 33.936783 28.204704 
L 33.476779 28.296751 
L 33.016775 28.388799 
L 32.556771 28.480847 
L 32.096767 28.572895 
L 31.636764 28.664943 
L 31.17676 28.756991 
L 30.559704 28.880381 
L 29.942648 29.003771 
L 29.452907 29.101754 
L 28.963165 29.199736 
L 28.473423 29.297719 
L 27.983682 29.395701 
L 27.49394 29.493684 
L 27.004199 29.591666 
L 26.514457 29.689649 
L 26.024716 29.787632 
L 25.563782 29.914483 
L 25.102849 30.041335 
L 24.641916 30.168187 
L 24.180983 30.295039 
L 23.372322 30.51771 
L 22.563661 30.74038 
L 21.755001 30.963051 
L 20.94634 31.185722 
L 20.58763 31.55379 
L 20.22892 31.921858 
L 19.87021 32.289926 
L 19.511499 32.657994 
L 19.253914 33.329716 
L 18.996329 34.001437 
L 18.738743 34.673158 
L 18.481158 35.34488 
L 18.223573 36.016601 
L 17.965988 36.688322 
L 17.708402 37.360044 
L 17.450817 38.031765 
L 17.170168 38.64822 
L 16.889519 39.264676 
L 16.60887 39.881131 
L 16.328222 40.497587 
L 16.047573 41.114042 
L 15.766924 41.730498 
L 15.486275 42.346953 
L 15.205626 42.963408 
L 14.84455 43.403619 
L 14.483475 43.843829 
L 14.122399 44.28404 
L 13.761324 44.724251 
L 13.400248 45.164461 
L 13.039172 45.604672 
L 12.678097 46.044882 
L 12.317021 46.485093 
L 11.993371 46.843702 
L 11.669721 47.202312 
L 11.346071 47.560922 
L 11.022421 47.919532 
L 10.69877 48.278142 
L 10.37512 48.636752 
L 10.05147 48.995362 
L 9.72782 49.353972 
" style="fill:none;stroke:#008000;stroke-linecap:square;stroke-width:0.4;"/>
   </g>
   <g id="line2d_7">
    <path clip-path="url(#p657620db92)" d="M 45.580585 14.177684 
L 45.069807 14.575611 
L 44.55903 14.973537 
L 44.048252 15.371464 
L 43.537475 15.76939 
L 43.026697 16.167317 
L 42.51592 16.565243 
L 42.005142 16.96317 
L 41.494365 17.361096 
L 40.808034 17.741714 
L 40.121703 18.122331 
L 39.435372 18.502948 
L 38.749041 18.883566 
L 38.06271 19.264183 
L 37.376379 19.644801 
L 36.690048 20.025418 
L 36.003717 20.406035 
L 35.629631 20.737816 
L 35.255546 21.069596 
L 34.88146 21.401377 
L 34.507374 21.733158 
L 34.133288 22.064938 
L 33.759202 22.396719 
L 33.385116 22.7285 
L 33.011031 23.06028 
L 32.780564 23.412894 
L 32.382316 24.020818 
L 31.984069 24.628743 
L 31.585821 25.236667 
L 31.187573 25.844592 
L 30.876342 26.634387 
L 30.565111 27.424181 
L 30.253879 28.213976 
L 29.942648 29.003771 
" style="fill:none;stroke:#000000;stroke-linecap:square;stroke-width:0.4;"/>
   </g>
   <g id="line2d_8">
    <path clip-path="url(#p657620db92)" d="M 28.348306 44.702738 
L 27.44418 44.678134 
L 26.540055 44.65353 
L 25.63593 44.628926 
L 24.731805 44.604322 
L 24.204807 44.435187 
L 23.677809 44.266051 
L 23.150811 44.096915 
L 22.623812 43.927779 
L 21.940692 43.491834 
L 21.257571 43.055889 
L 20.574451 42.619944 
L 19.89133 42.183999 
L 19.370922 42.023765 
L 18.850513 41.863531 
L 18.392959 41.986303 
L 17.935405 42.109075 
L 17.477851 42.231847 
L 17.020297 42.354619 
L 16.566629 42.506816 
L 16.112962 42.659013 
L 15.659294 42.811211 
L 15.205626 42.963408 
" style="fill:none;stroke:#008000;stroke-linecap:square;stroke-width:0.4;"/>
   </g>
   <g id="line2d_9">
    <path clip-path="url(#p657620db92)" d="M 40.72389 32.235155 
L 40.058003 32.368251 
L 39.392117 32.501346 
L 38.726231 32.634442 
L 38.060344 32.767537 
L 37.394458 32.900633 
L 36.728572 33.033728 
L 36.062686 33.166824 
L 35.396799 33.299919 
L 34.798161 33.488713 
L 34.199522 33.677507 
L 33.600883 33.866302 
L 33.002244 34.055096 
L 32.520867 34.386814 
L 32.039489 34.718533 
L 31.558111 35.050252 
L 31.076733 35.381971 
L 30.640806 35.824469 
L 30.20488 36.266966 
L 29.768953 36.709464 
L 29.333027 37.151962 
L 28.747736 37.555267 
L 28.162446 37.958572 
L 27.687573 38.075656 
L 27.2127 38.192741 
L 26.737827 38.309825 
L 26.262955 38.42691 
L 25.788082 38.543994 
L 25.313209 38.661079 
L 24.838336 38.778163 
L 24.363464 38.895248 
L 23.677809 38.952739 
L 22.992154 39.01023 
L 22.306498 39.067722 
L 21.620843 39.125213 
L 20.935188 39.182704 
L 20.249533 39.240196 
L 19.563878 39.297687 
L 18.878223 39.355178 
" style="fill:none;stroke:#4169e1;stroke-linecap:square;stroke-width:0.4;"/>
   </g>
   <g id="line2d_10">
    <path clip-path="url(#p657620db92)" d="M 48.048808 12.367634 
L 47.551294 12.353478 
L 47.05378 12.339321 
L 46.556266 12.325165 
L 46.058752 12.311008 
L 45.561239 12.296852 
L 45.063725 12.282695 
L 44.566211 12.268539 
L 44.068697 12.254383 
L 43.588924 12.311317 
L 43.109152 12.368252 
L 42.629379 12.425187 
L 42.149606 12.482122 
L 41.669833 12.539057 
L 41.190061 12.595992 
L 40.710288 12.652927 
L 40.230515 12.709862 
L 39.750743 12.766797 
L 39.27097 12.823732 
L 38.791197 12.880667 
L 38.311425 12.937602 
L 37.831652 12.994537 
L 37.351879 13.051472 
L 36.872107 13.108407 
L 36.392334 13.165342 
L 35.585616 13.1816 
L 34.778899 13.197859 
L 33.972181 13.214117 
L 33.165463 13.230375 
L 32.358746 13.246633 
L 31.552028 13.262892 
L 30.745311 13.27915 
L 29.938593 13.295408 
L 29.406188 13.259924 
L 28.873783 13.224441 
L 28.341378 13.188957 
L 27.808973 13.153473 
" style="fill:none;stroke:#000000;stroke-linecap:square;stroke-width:0.4;"/>
   </g>
   <g id="line2d_11">
    <path clip-path="url(#p657620db92)" d="M 65.245267 33.950746 
L 64.451475 33.58651 
L 63.657683 33.222275 
L 63.068929 33.075888 
L 62.480174 32.929502 
L 61.89142 32.783115 
L 61.302666 32.636729 
L 60.713911 32.490342 
L 60.125157 32.343956 
L 59.536403 32.197569 
L 58.947648 32.051183 
L 58.323834 31.946833 
L 57.70002 31.842483 
L 57.176063 31.754701 
L 56.652106 31.666918 
L 56.12815 31.579136 
L 55.604193 31.491353 
L 55.080236 31.403571 
L 54.556279 31.315788 
L 54.032323 31.228006 
L 53.508366 31.140223 
L 52.835045 31.107707 
L 52.161725 31.07519 
L 51.488404 31.042673 
L 50.815083 31.010157 
L 50.141762 30.97764 
L 49.468442 30.945124 
L 48.795121 30.912607 
L 48.1218 30.88009 
L 47.598097 30.9484 
L 47.074394 31.01671 
L 46.550691 31.085019 
L 46.026987 31.153329 
L 45.503284 31.221638 
L 44.979581 31.289948 
L 44.455877 31.358258 
L 43.932174 31.426567 
L 43.130103 31.628714 
L 42.328032 31.830861 
L 41.525961 32.033008 
L 40.72389 32.235155 
" style="fill:none;stroke:#4169e1;stroke-linecap:square;stroke-width:0.4;"/>
   </g>
   <g id="line2d_12">
    <path clip-path="url(#p657620db92)" d="M 32.780564 23.412894 
L 32.32225 23.303227 
L 31.863935 23.193561 
L 31.405621 23.083895 
L 30.947307 22.974229 
L 30.488992 22.864562 
L 30.030678 22.754896 
L 29.572364 22.64523 
L 29.11405 22.535564 
L 28.341547 22.276667 
L 27.569045 22.017771 
L 26.846556 22.045589 
L 26.124066 22.073407 
L 25.401577 22.101226 
L 24.679088 22.129044 
L 24.007119 22.026178 
L 23.33515 21.923312 
L 22.663181 21.820446 
L 21.991212 21.717579 
L 21.260444 21.521243 
L 20.529675 21.324907 
L 19.798907 21.128571 
L 19.068138 20.932235 
L 18.50608 20.822198 
L 17.944022 20.712161 
L 17.381964 20.602124 
L 16.819906 20.492087 
L 16.257848 20.38205 
L 15.69579 20.272012 
L 15.133732 20.161975 
L 14.571674 20.051938 
" style="fill:none;stroke:#000000;stroke-linecap:square;stroke-width:0.4;"/>
   </g>
   <g id="line2d_13">
    <path clip-path="url(#p657620db92)" d="M 24.180983 30.295039 
L 24.01599 30.782973 
L 23.850996 31.270908 
L 23.686003 31.758842 
L 23.52101 32.246777 
L 23.356017 32.734711 
L 23.191024 33.222646 
L 23.026031 33.71058 
L 22.861038 34.198515 
L 22.546596 34.882971 
L 22.232154 35.567427 
L 21.917713 36.251883 
L 21.603271 36.936339 
L 20.922009 37.541049 
L 20.240747 38.145758 
L 19.559485 38.750468 
L 18.878223 39.355178 
L 18.442128 39.742905 
L 18.006032 40.130631 
L 17.569936 40.518358 
L 17.133841 40.906084 
L 16.651787 41.420415 
L 16.169734 41.934746 
L 15.68768 42.449077 
L 15.205626 42.963408 
" style="fill:none;stroke:#4169e1;stroke-linecap:square;stroke-width:0.4;"/>
   </g>
   <g id="line2d_14">
    <path clip-path="url(#p657620db92)" d="M 67.081565 21.530145 
L 66.296391 21.70843 
L 65.511216 21.886715 
L 64.726041 22.065 
L 63.940866 22.243285 
L 63.475709 22.345749 
L 63.010552 22.448214 
L 62.545394 22.550678 
L 62.080237 22.653143 
L 61.61508 22.755607 
L 61.149923 22.858071 
L 60.684765 22.960536 
L 60.219608 23.063 
L 59.754451 23.165465 
L 59.289293 23.267929 
L 58.824136 23.370393 
L 58.358979 23.472858 
L 57.893821 23.575322 
L 57.428664 23.677787 
L 56.963507 23.780251 
L 56.498349 23.882715 
L 55.824944 24.185256 
L 55.151539 24.487796 
L 54.478134 24.790337 
L 53.804729 25.092877 
L 53.131323 25.395417 
L 52.457918 25.697958 
L 51.784513 26.000498 
L 51.111108 26.303039 
L 50.229117 26.513284 
L 49.347126 26.723529 
L 48.465135 26.933774 
L 47.583144 27.144019 
L 46.701153 27.354265 
L 45.819162 27.56451 
L 44.937171 27.774755 
L 44.05518 27.985 
" style="fill:none;stroke:#4169e1;stroke-linecap:square;stroke-width:0.4;"/>
   </g>
   <g id="line2d_15">
    <path clip-path="url(#p657620db92)" d="M 54.792491 11.367161 
L 53.949531 11.492221 
L 53.10657 11.61728 
L 52.26361 11.742339 
L 51.420649 11.867398 
L 50.577689 11.992457 
L 49.734729 12.117516 
L 48.891768 12.242575 
L 48.048808 12.367634 
L 47.431752 12.820147 
L 46.814696 13.272659 
L 46.197641 13.725172 
L 45.580585 14.177684 
L 45.21537 14.978792 
L 44.850154 15.779899 
L 44.484939 16.581007 
L 44.119724 17.382115 
L 43.754509 18.183223 
L 43.389294 18.98433 
L 43.024078 19.785438 
L 42.658863 20.586546 
L 42.444617 21.012043 
L 42.230371 21.437541 
L 42.016125 21.863039 
L 41.801879 22.288536 
L 41.587633 22.714034 
L 41.373387 23.139532 
L 41.15914 23.565029 
L 40.944894 23.990527 
L 40.47754 24.60995 
L 40.010187 25.229373 
L 39.542833 25.848795 
L 39.075479 26.468218 
" style="fill:none;stroke:#000000;stroke-linecap:square;stroke-width:0.4;"/>
   </g>
   <g id="line2d_16">
    <path clip-path="url(#p657620db92)" d="M 14.571674 20.051938 
L 14.103982 20.174092 
L 13.617704 20.042294 
L 13.131427 19.910497 
L 12.7151 20.105844 
L 12.298773 20.301191 
L 12.012548 21.042767 
L 11.726324 21.784344 
L 11.612442 22.295089 
L 11.498561 22.805835 
L 11.384679 23.31658 
L 11.270797 23.827326 
L 11.156916 24.338071 
L 11.043034 24.848817 
L 10.929153 25.359563 
L 10.815271 25.870308 
L 10.606854 26.329435 
L 10.398437 26.788562 
L 10.19002 27.247689 
L 9.981604 27.706816 
L 9.773187 28.165943 
L 9.56477 28.62507 
L 9.356353 29.084197 
L 9.147936 29.543324 
L 8.959204 30.044303 
L 8.770471 30.545281 
L 8.581739 31.046259 
L 8.393006 31.547237 
L 8.393006 32.354094 
L 8.393006 33.160951 
L 8.608604 33.559063 
L 8.897194 34.094845 
L 9.185784 34.630627 
L 9.474374 35.166409 
L 9.762964 35.702191 
L 10.051555 36.237974 
L 10.340145 36.773756 
L 10.628735 37.309538 
L 10.917325 37.84532 
L 10.953145 38.226617 
L 10.997414 38.705959 
L 11.041682 39.185301 
L 11.085951 39.664642 
L 11.130219 40.143984 
L 11.174488 40.623326 
L 11.218756 41.102668 
L 11.263025 41.582009 
L 11.307294 42.061351 
L 11.191046 42.597937 
L 11.054186 43.229352 
L 10.917325 43.860768 
L 10.780464 44.492183 
L 10.643604 45.123599 
L 10.506743 45.755014 
L 10.369882 46.38643 
L 10.233022 47.017846 
L 10.096161 47.649261 
L 9.911991 48.501616 
L 9.72782 49.353972 
L 9.563249 50.113723 
L 9.398679 50.873474 
L 9.234108 51.633225 
L 9.069537 52.392976 
L 8.832143 52.936238 
L 8.594749 53.4795 
L 8.357355 54.022763 
L 8.119961 54.566025 
L 7.882566 55.109287 
L 7.645172 55.652549 
L 7.407778 56.195811 
L 7.170384 56.739073 
L 7.033777 57.178233 
L 6.89717 57.617393 
L 6.760562 58.056552 
L 6.623955 58.495712 
L 6.487348 58.934871 
L 6.350741 59.374031 
L 6.214133 59.813191 
L 6.077526 60.25235 
L 5.97412 60.880428 
L 5.895721 61.357173 
L 5.817322 61.833918 
L 5.738923 62.310664 
L 5.660524 62.787409 
L 5.55678 63.41969 
L 5.453036 64.051971 
L 5.508456 64.680666 
L 5.563876 65.309362 
L 5.619296 65.938058 
L 5.674717 66.566753 
L 5.730137 67.195449 
L 5.785557 67.824144 
L 5.840977 68.45284 
L 5.896397 69.081535 
L 5.700906 69.80197 
L 5.505415 70.522404 
L 5.309924 71.242838 
L 5.114433 71.963273 
L 5.023361 72.613852 
L 4.93229 73.264431 
L 4.841218 73.915011 
L 4.750147 74.56559 
L 4.496025 74.76341 
L 4.128698 75.054946 
L 3.761371 75.346483 
L 3.272727 74.802479 
" style="fill:none;stroke:#008000;stroke-linecap:square;stroke-width:0.4;"/>
   </g>
   <g id="line2d_17">
    <path clip-path="url(#p657620db92)" d="M 67.771614 27.571062 
L 68.093659 27.204354 
L 68.415703 26.837646 
L 68.522489 26.252842 
L 68.629274 25.668038 
L 68.514378 25.097575 
L 68.399483 24.527113 
L 68.284588 23.95665 
L 68.169692 23.386188 
L 67.897661 22.922177 
L 67.625629 22.458167 
L 67.353597 21.994156 
L 67.081565 21.530145 
L 66.771855 21.001596 
L 66.462144 20.473047 
L 66.152434 19.944497 
L 65.842723 19.415948 
L 65.306009 18.791394 
L 64.769296 18.166841 
L 64.232582 17.542287 
L 63.695869 16.917733 
L 63.159155 16.29318 
L 62.622442 15.668626 
L 62.085728 15.044072 
L 61.549015 14.419518 
L 61.057837 14.19827 
L 60.56666 13.977021 
L 60.075482 13.755772 
L 59.584304 13.534523 
L 59.093126 13.313274 
L 58.601949 13.092025 
L 58.110771 12.870776 
L 57.619593 12.649527 
L 56.912817 12.328936 
L 56.206042 12.008344 
L 55.499266 11.687753 
L 54.792491 11.367161 
" style="fill:none;stroke:#008000;stroke-linecap:square;stroke-width:0.4;"/>
   </g>
   <g id="line2d_18">
    <path clip-path="url(#p657620db92)" d="M 54.792491 11.367161 
L 54.026831 10.928929 
L 53.261172 10.490697 
L 52.495513 10.052465 
L 51.729853 9.614232 
L 50.964194 9.176 
L 50.198534 8.737768 
L 49.432875 8.299535 
L 48.667215 7.861303 
L 48.361391 7.360325 
L 48.055567 6.859346 
L 47.749742 6.358368 
L 47.443918 5.85739 
L 47.073211 5.473496 
L 46.702505 5.089603 
L 46.331798 4.705709 
L 45.961091 4.321815 
L 45.408073 4.230694 
L 44.855054 4.139574 
L 44.302036 4.048453 
L 43.749017 3.957332 
L 43.033287 3.957332 
L 42.317556 3.957332 
L 41.601826 3.957332 
L 40.886095 3.957332 
L 40.049048 4.228716 
L 39.212002 4.5001 
L 38.374955 4.771484 
L 37.537908 5.042868 
L 37.083734 5.290513 
L 36.629559 5.538159 
L 36.175384 5.785804 
L 35.72121 6.033449 
L 35.366639 6.417281 
L 35.012069 6.801113 
L 34.657498 7.184945 
L 34.302928 7.568777 
L 33.948357 7.952609 
L 33.593787 8.336441 
L 33.239216 8.720273 
L 32.884646 9.104105 
L 32.273166 9.696204 
L 31.661686 10.288303 
L 31.050206 10.880402 
L 30.438726 11.4725 
L 29.781288 11.892744 
L 29.12385 12.312987 
L 28.466411 12.73323 
L 27.808973 13.153473 
L 27.250041 13.510784 
L 26.691109 13.868096 
L 26.175938 14.153327 
L 25.660768 14.438559 
L 25.145597 14.72379 
L 24.630426 15.009021 
L 24.135954 15.17488 
L 23.641481 15.34074 
L 23.147009 15.506599 
L 22.652536 15.672459 
L 22.158064 15.838318 
L 21.663591 16.004177 
L 21.169119 16.170037 
L 20.674646 16.335896 
L 20.265162 16.623353 
L 19.855679 16.91081 
L 19.446195 17.198266 
L 19.036711 17.485723 
L 18.627227 17.773179 
L 18.217744 18.060636 
L 17.80826 18.348093 
L 17.398776 18.635549 
L 16.734411 18.911755 
L 16.070045 19.187961 
L 15.320859 19.619949 
L 14.571674 20.051938 
" style="fill:none;stroke:#4169e1;stroke-linecap:square;stroke-width:0.4;"/>
   </g>
   <g id="line2d_19">
    <path clip-path="url(#p657620db92)" d="M 21.160586 61.169244 
L 21.554272 61.817351 
L 21.947957 62.465457 
L 21.660888 63.136808 
L 21.373818 63.808158 
L 21.086749 64.479509 
L 20.799679 65.150859 
L 20.668732 65.634961 
L 20.537785 66.119062 
L 20.406839 66.603164 
L 20.275892 67.087266 
L 20.144945 67.571368 
L 20.013998 68.055469 
L 19.883051 68.539571 
L 19.752104 69.023673 
L 19.156169 69.555066 
L 18.560233 70.086459 
L 17.964298 70.617852 
L 17.368363 71.149245 
L 16.800137 71.39417 
L 16.231912 71.639096 
L 15.663687 71.884021 
L 15.095462 72.128947 
L 14.572434 72.188602 
L 14.049407 72.248257 
L 13.526379 72.307912 
L 13.003352 72.367567 
L 12.480325 72.427222 
L 11.957297 72.486877 
L 11.43427 72.546532 
L 10.911242 72.606187 
L 10.418882 72.662442 
L 9.926521 72.718696 
L 9.434161 72.774951 
L 8.9418 72.831206 
L 8.341472 72.93296 
L 7.741144 73.034713 
L 7.140815 73.136467 
L 6.540487 73.23822 
L 6.019065 73.624958 
L 5.497642 74.011695 
L 5.123895 74.288643 
L 4.750147 74.56559 
" style="fill:none;stroke:#008000;stroke-linecap:square;stroke-width:0.4;"/>
   </g>
   <g id="line2d_20">
    <path clip-path="url(#p657620db92)" d="M 52.682471 59.3315 
L 52.453694 59.782405 
L 52.224917 60.23331 
L 51.99614 60.684215 
L 51.767363 61.13512 
L 51.401557 61.468446 
L 51.03575 61.801773 
L 50.669943 62.135099 
L 50.304137 62.468425 
L 49.614764 62.765711 
L 48.925392 63.062996 
L 48.23602 63.360282 
L 47.546648 63.657568 
L 46.857275 63.954854 
L 46.167903 64.25214 
L 45.478531 64.549425 
L 44.789159 64.846711 
L 43.985482 65.127677 
L 43.181806 65.408643 
L 42.37813 65.689608 
L 41.574453 65.970574 
L 40.770777 66.25154 
L 39.967101 66.532506 
L 39.163425 66.813471 
L 38.359748 67.094437 
L 37.657366 67.411381 
L 36.954983 67.728325 
L 36.252601 68.045269 
L 35.550218 68.362214 
L 34.847836 68.679158 
L 34.145453 68.996102 
L 33.443071 69.313046 
L 32.740688 69.62999 
L 32.061116 70.093877 
L 31.381544 70.557764 
L 30.701971 71.021651 
L 30.022399 71.485538 
L 29.53308 71.620736 
L 29.043761 71.755933 
L 28.554442 71.89113 
L 28.065122 72.026328 
L 27.575803 72.161525 
L 27.086484 72.296722 
L 26.597165 72.43192 
L 26.107846 72.567117 
" style="fill:none;stroke:#000000;stroke-linecap:square;stroke-width:0.4;"/>
   </g>
   <g id="line2d_21">
    <path clip-path="url(#p657620db92)" d="M 21.160586 61.169244 
L 20.785824 60.558723 
L 20.411063 59.948203 
L 19.757849 59.948203 
L 19.104635 59.948203 
L 18.653755 60.271638 
L 18.202875 60.595073 
L 17.751995 60.918508 
L 17.301115 61.241943 
L 16.850235 61.565378 
L 16.399355 61.888813 
L 15.948475 62.212248 
L 15.497596 62.535683 
L 15.099052 62.833 
L 14.700509 63.130317 
L 14.301966 63.427634 
L 13.903422 63.72495 
L 13.504879 64.022267 
L 13.106335 64.319584 
L 12.707792 64.616901 
L 12.309249 64.914217 
L 11.910705 65.211534 
L 11.512162 65.508851 
L 11.113619 65.806167 
L 10.715075 66.103484 
L 10.316532 66.400801 
L 9.917989 66.698118 
L 9.519445 66.995434 
L 9.120902 67.292751 
L 8.628373 67.866675 
L 8.135843 68.4406 
L 7.643314 69.014524 
L 7.150784 69.588448 
L 6.641696 70.182154 
L 6.132608 70.77586 
L 5.623521 71.369567 
L 5.114433 71.963273 
" style="fill:none;stroke:#008000;stroke-linecap:square;stroke-width:0.4;"/>
   </g>
   <g id="line2d_22">
    <path clip-path="url(#p657620db92)" d="M 39.036955 45.026667 
L 38.241812 44.98562 
L 37.446668 44.944572 
L 36.651524 44.903525 
L 35.856381 44.862477 
L 35.061237 44.821429 
L 34.266094 44.780382 
L 33.47095 44.739334 
L 32.675806 44.698287 
L 32.134869 44.698843 
L 31.593931 44.699399 
L 31.052994 44.699956 
L 30.512056 44.700512 
L 29.971118 44.701069 
L 29.430181 44.701625 
L 28.889243 44.702181 
L 28.348306 44.702738 
" style="fill:none;stroke:#008000;stroke-linecap:square;stroke-width:0.4;"/>
   </g>
   <g id="line2d_23">
    <path clip-path="url(#p657620db92)" d="M 57.70002 31.842483 
L 57.172937 32.224831 
L 56.645855 32.60718 
L 56.118772 32.989528 
L 55.59169 33.371876 
L 55.064607 33.754224 
L 54.537525 34.136573 
L 54.010442 34.518921 
L 53.483359 34.901269 
L 52.956277 35.283617 
L 52.429194 35.665966 
L 51.902112 36.048314 
L 51.375029 36.430662 
L 50.847947 36.81301 
L 50.320864 37.195359 
L 49.793782 37.577707 
L 49.266699 37.960055 
L 48.743967 38.324353 
L 48.221236 38.68865 
L 47.698504 39.052947 
L 47.175772 39.417244 
L 46.65304 39.781541 
L 46.130309 40.145839 
L 45.607577 40.510136 
L 45.084845 40.874433 
L 44.562113 41.23873 
L 44.039382 41.603028 
L 43.51665 41.967325 
L 42.993918 42.331622 
L 42.471187 42.695919 
L 41.948455 43.060216 
L 41.425723 43.424514 
L 40.902991 43.788811 
L 40.436482 44.098275 
L 39.969973 44.407739 
L 39.503464 44.717203 
L 39.036955 45.026667 
L 38.624303 45.300524 
L 38.211652 45.57438 
L 37.799 45.848237 
L 37.386348 46.122094 
L 36.973696 46.39595 
L 36.561044 46.669807 
L 36.148392 46.943663 
L 35.735741 47.21752 
L 35.323089 47.491376 
L 34.910437 47.765233 
L 34.497785 48.039089 
L 34.085133 48.312946 
L 33.672482 48.586803 
L 33.25983 48.860659 
L 32.847178 49.134516 
L 32.434526 49.408372 
L 31.73603 49.985016 
L 31.037533 50.561661 
L 30.519575 50.98926 
L 30.001616 51.41686 
L 29.483658 51.844459 
L 28.965699 52.272059 
L 28.447741 52.699658 
L 27.929782 53.127258 
L 27.411824 53.554857 
L 26.893865 53.982457 
L 26.499419 54.284441 
L 26.104973 54.586425 
L 25.710527 54.888409 
L 25.316082 55.190393 
L 24.921636 55.492377 
L 24.52719 55.794361 
L 24.132744 56.096345 
L 23.738298 56.398329 
L 23.056529 56.979548 
L 22.37476 57.560767 
L 21.692991 58.141986 
L 21.011222 58.723204 
L 21.048563 59.334714 
L 21.085904 59.946224 
L 21.123245 60.557734 
L 21.160586 61.169244 
" style="fill:none;stroke:#4169e1;stroke-linecap:square;stroke-width:0.4;"/>
   </g>
   <g id="line2d_24">
    <path clip-path="url(#p657620db92)" d="M 57.895342 43.731938 
L 57.307179 43.70585 
L 56.719016 43.679763 
L 56.130853 43.653675 
L 55.54269 43.627588 
L 54.850108 43.666781 
L 54.157525 43.705974 
L 53.464942 43.745167 
L 52.77236 43.78436 
L 52.28887 43.869299 
L 51.80538 43.954238 
L 51.32189 44.039176 
L 50.8384 44.124115 
L 50.35491 44.209054 
L 49.87142 44.293993 
L 49.387931 44.378932 
L 48.904441 44.46387 
L 48.09409 44.751451 
L 47.28374 45.039031 
L 46.47339 45.326611 
L 45.663039 45.614192 
L 45.009825 45.679472 
L 44.356611 45.744753 
L 43.58394 45.865546 
L 42.811268 45.98634 
L 42.038597 46.107133 
L 41.265926 46.227927 
L 40.708683 45.927612 
L 40.15144 45.627297 
L 39.594198 45.326982 
L 39.036955 45.026667 
" style="fill:none;stroke:#4169e1;stroke-linecap:square;stroke-width:0.4;"/>
   </g>
   <g id="line2d_25">
    <path clip-path="url(#p657620db92)" d="M 56.054988 51.30299 
L 55.532383 51.191964 
L 55.009778 51.080937 
L 54.487173 50.969911 
L 53.964568 50.858885 
L 53.420589 50.893194 
L 52.87661 50.927503 
L 52.332632 50.961813 
L 51.788653 50.996122 
L 51.244674 51.030431 
L 50.700695 51.064741 
L 50.156716 51.09905 
L 49.612737 51.133359 
L 49.068758 51.167669 
L 48.524779 51.201978 
L 47.9808 51.236288 
L 47.436821 51.270597 
L 46.892842 51.304906 
L 46.348863 51.339216 
L 45.804884 51.373525 
L 45.260905 51.407834 
L 44.578038 51.482944 
L 43.895171 51.558054 
L 43.212304 51.633163 
L 42.529437 51.708273 
L 41.84657 51.783382 
L 41.163702 51.858492 
L 40.480835 51.933602 
L 39.797968 52.008711 
L 39.11848 52.22112 
L 38.438992 52.433529 
L 37.759504 52.645938 
L 37.080017 52.858347 
L 36.400529 53.070756 
L 35.721041 53.283164 
L 35.041553 53.495573 
L 34.362065 53.707982 
L 33.69808 53.876129 
L 33.034094 54.044275 
L 32.370109 54.212422 
L 31.706123 54.380569 
L 31.042138 54.548716 
L 30.378152 54.716862 
L 29.714167 54.885009 
L 29.050181 55.053156 
L 28.386196 55.221302 
L 27.72221 55.389449 
L 27.058225 55.557596 
L 26.394239 55.725742 
L 25.730254 55.893889 
L 25.066269 56.062036 
L 24.402283 56.230182 
L 23.738298 56.398329 
" style="fill:none;stroke:#4169e1;stroke-linecap:square;stroke-width:0.4;"/>
   </g>
   <g id="line2d_26">
    <path clip-path="url(#p657620db92)" d="M 68.415703 26.837646 
L 68.571488 27.660823 
L 68.727273 28.484 
L 68.722711 29.223351 
L 68.718149 29.962702 
L 68.713587 30.702053 
L 68.709025 31.441404 
L 68.597846 32.171358 
L 68.486668 32.901313 
L 67.895295 33.270988 
L 67.303922 33.640664 
L 66.789258 33.718184 
L 66.274594 33.795705 
L 65.759931 33.873225 
L 65.245267 33.950746 
L 64.703569 34.322399 
L 64.161871 34.694053 
L 63.77393 35.378014 
L 63.385989 36.061976 
L 63.131868 36.457059 
L 62.877746 36.852142 
L 62.623625 37.247225 
L 62.369503 37.642307 
L 62.115382 38.03739 
L 61.86126 38.432473 
L 61.607139 38.827556 
L 61.353017 39.222639 
L 60.920808 39.786301 
L 60.488598 40.349964 
L 60.056389 40.913626 
L 59.624179 41.477288 
L 59.19197 42.040951 
L 58.759761 42.604613 
L 58.327551 43.168275 
L 57.895342 43.731938 
L 57.711678 44.181607 
L 57.528015 44.631275 
L 57.344351 45.080944 
L 57.160687 45.530613 
L 57.095974 46.048158 
L 57.031261 46.565704 
L 56.966548 47.08325 
L 56.901835 47.600795 
L 56.837122 48.118341 
L 56.772409 48.635887 
L 56.707695 49.153432 
L 56.642982 49.670978 
L 56.348985 50.486984 
L 56.054988 51.30299 
L 55.800444 51.76663 
L 55.5459 52.230269 
L 55.291356 52.693909 
L 55.036813 53.157549 
L 54.782269 53.621189 
L 54.527725 54.084828 
L 54.273181 54.548468 
L 54.018637 55.012108 
L 53.77837 55.6434 
L 53.538104 56.274692 
L 53.297837 56.905984 
L 53.057571 57.537276 
L 52.963796 57.985832 
L 52.870021 58.434388 
L 52.776246 58.882944 
L 52.682471 59.3315 
" style="fill:none;stroke:#008000;stroke-linecap:square;stroke-width:0.4;"/>
   </g>
   <g id="line2d_27">
    <path clip-path="url(#p657620db92)" d="M 53.057571 57.537276 
L 52.502102 57.50785 
L 51.946634 57.478424 
L 51.391165 57.448999 
L 50.835697 57.419573 
L 50.280228 57.390147 
L 49.72476 57.360722 
L 49.169291 57.331296 
L 48.613823 57.30187 
L 47.725242 57.419573 
L 46.836662 57.537276 
L 45.948081 57.654978 
L 45.059501 57.772681 
L 44.366918 57.789001 
L 43.674335 57.805321 
L 42.981753 57.821641 
L 42.28917 57.837962 
L 41.596588 57.854282 
L 40.904005 57.870602 
L 40.211423 57.886922 
L 39.51884 57.903242 
L 38.845857 57.955541 
L 38.172874 58.007839 
L 37.499892 58.060138 
L 36.826909 58.112436 
L 36.271525 58.164735 
L 35.716141 58.217033 
L 35.160757 58.269332 
L 34.605373 58.321631 
L 33.906201 58.752877 
L 33.207029 59.184124 
L 32.507856 59.615371 
L 31.808684 60.046618 
L 31.403593 60.399479 
L 30.998503 60.752339 
L 30.593412 61.1052 
L 30.188321 61.458061 
L 29.783231 61.810922 
L 29.37814 62.163782 
L 28.973049 62.516643 
L 28.567959 62.869504 
L 27.934175 63.388966 
L 27.300392 63.908428 
L 26.666609 64.42789 
L 26.032826 64.947352 
L 25.399043 65.466814 
L 24.76526 65.986276 
L 24.131476 66.505738 
L 23.497693 67.0252 
L 23.029495 67.275009 
L 22.561296 67.524818 
L 22.093097 67.774627 
L 21.624899 68.024436 
L 21.1567 68.274246 
L 20.688501 68.524055 
L 20.220303 68.773864 
L 19.752104 69.023673 
" style="fill:none;stroke:#000000;stroke-linecap:square;stroke-width:0.4;"/>
   </g>
   <g id="line2d_28">
    <path clip-path="url(#p657620db92)" d="M 20.799679 65.150859 
L 20.431676 65.60671 
L 20.063673 66.06256 
L 19.69567 66.518411 
L 19.327667 66.974261 
L 18.856765 67.425167 
L 18.385863 67.876072 
L 17.914961 68.326977 
L 17.444058 68.777882 
L 16.989799 69.049822 
L 16.53554 69.321762 
L 16.081281 69.593703 
L 15.627022 69.865643 
L 15.172763 70.137583 
L 14.718504 70.409523 
L 14.264244 70.681463 
L 13.809985 70.953403 
L 13.085299 71.366599 
L 12.360614 71.779795 
L 11.635928 72.192991 
L 10.911242 72.606187 
" style="fill:none;stroke:#008000;stroke-linecap:square;stroke-width:0.4;"/>
   </g>
   <g id="line2d_29">
    <path clip-path="url(#p657620db92)" d="M 31.808684 60.046618 
L 31.218325 60.048101 
L 30.627965 60.049585 
L 29.865263 59.757801 
L 29.10256 59.466017 
L 28.452725 59.167557 
L 27.802891 58.869096 
L 26.9013 58.74991 
L 26.291003 58.935613 
L 25.680705 59.121316 
L 25.282796 59.386642 
L 24.884886 59.651968 
L 24.486976 59.917293 
L 24.089066 60.182619 
L 23.747591 60.527443 
L 23.406115 60.872268 
L 23.064639 61.217092 
L 22.723163 61.561916 
L 22.33556 62.013687 
L 21.947957 62.465457 
" style="fill:none;stroke:#008000;stroke-linecap:square;stroke-width:0.4;"/>
   </g>
   <g id="line2d_30">
    <path clip-path="url(#p657620db92)" d="M 31.037533 50.561661 
L 30.439233 50.696425 
L 29.840932 50.83119 
L 29.242631 50.965955 
L 28.64433 51.100719 
L 28.046029 51.235484 
L 27.447729 51.370249 
L 26.849428 51.505013 
L 26.251127 51.639778 
L 25.684169 51.948191 
L 25.117211 52.256604 
L 24.550253 52.565017 
L 23.983295 52.87343 
L 23.416337 53.181844 
L 22.849379 53.490257 
L 22.282421 53.79867 
L 21.715463 54.107083 
L 20.932823 54.518301 
L 20.150183 54.929518 
L 19.367542 55.340736 
L 18.584902 55.751953 
L 17.90195 56.169847 
L 17.218999 56.587741 
L 16.536047 57.005635 
L 15.853095 57.423529 
L 15.302611 58.053585 
L 14.752127 58.68364 
L 14.201643 59.313696 
L 13.651159 59.943752 
L 13.127203 60.673335 
L 12.603246 61.402919 
L 12.079289 62.132502 
L 11.555332 62.862086 
L 11.152776 63.43091 
L 10.75022 63.999734 
L 10.347664 64.568558 
L 9.945107 65.137383 
L 9.542551 65.706207 
L 9.139995 66.275031 
L 8.737439 66.843855 
L 8.334882 67.412679 
L 7.932326 67.981503 
L 7.52977 68.550328 
L 7.127214 69.119152 
L 6.724658 69.687976 
L 6.322101 70.2568 
L 5.919545 70.825624 
L 5.516989 71.394449 
L 5.114433 71.963273 
" style="fill:none;stroke:#008000;stroke-linecap:square;stroke-width:0.4;"/>
   </g>
   <g id="line2d_31">
    <path clip-path="url(#p657620db92)" d="M 26.107846 72.567117 
L 25.455646 73.155631 
L 25.41577 73.646223 
L 25.375895 74.136816 
L 25.375895 74.694173 
L 25.41577 75.59623 
L 25.455646 76.498288 
L 25.399212 76.975775 
L 25.342778 77.453262 
L 25.286344 77.930749 
L 25.22991 78.408237 
L 25.173476 78.885724 
L 25.117042 79.363211 
L 25.060608 79.840698 
L 25.004174 80.318185 
L 24.931351 80.802472 
L 24.858528 81.28676 
L 24.785704 81.771047 
L 24.712881 82.255334 
L 24.460787 82.679657 
L 24.208693 83.10398 
L 23.572037 82.971441 
L 22.829272 82.918524 
L 22.272368 82.745927 
L 21.715463 82.573329 
L 21.310795 82.354491 
L 20.906127 82.135653 
L 20.501458 81.916815 
L 20.09679 81.697977 
L 19.685701 81.432652 
L 19.274612 81.167326 
L 18.863523 80.902 
L 18.452434 80.636675 
L 18.067704 80.265268 
L 17.682973 79.893862 
L 17.298243 79.522456 
L 16.913512 79.151049 
L 16.383135 78.806225 
L 15.852757 78.461401 
L 15.32238 78.116576 
L 14.792003 77.771752 
L 14.341038 77.506426 
L 13.890074 77.241101 
L 13.43911 76.975775 
L 12.988145 76.710449 
L 12.590067 76.286126 
L 12.192326 75.59623 
L 11.794585 74.906334 
" style="fill:none;stroke:#008000;stroke-linecap:square;stroke-width:0.4;"/>
   </g>
   <g id="line2d_32">
    <path clip-path="url(#p657620db92)" d="M 15.095462 72.128947 
L 15.110331 72.942974 
L 14.818361 73.367545 
L 14.526392 73.792115 
L 13.876557 74.176874 
L 13.226722 74.561634 
L 12.510654 74.733984 
L 11.794585 74.906334 
L 11.184457 74.959375 
L 10.574329 75.012415 
L 9.9642 75.065456 
L 9.354072 75.118496 
L 8.88317 75.065456 
L 8.412268 75.012415 
L 7.941366 74.959375 
L 7.470464 74.906334 
L 6.707761 74.574739 
L 5.945059 74.243144 
L 5.497642 74.011695 
" style="fill:none;stroke:#008000;stroke-linecap:square;stroke-width:0.4;"/>
   </g>
  </g>
 </g>
 <defs>
  <clipPath id="p657620db92">
   <rect height="87.061313" width="72" x="0" y="0"/>
  </clipPath>
 </defs>
</svg>
