<?xml version="1.0" encoding="utf-8" standalone="no"?>
<!DOCTYPE svg PUBLIC "-//W3C//DTD SVG 1.1//EN"
  "http://www.w3.org/Graphics/SVG/1.1/DTD/svg11.dtd">
<svg height="59.612115pt" version="1.1" viewBox="0 0 72 59.612115" width="72pt" xmlns="http://www.w3.org/2000/svg" xmlns:xlink="http://www.w3.org/1999/xlink">
 <metadata>
  <rdf:RDF xmlns:cc="http://creativecommons.org/ns#" xmlns:dc="http://purl.org/dc/elements/1.1/" xmlns:rdf="http://www.w3.org/1999/02/22-rdf-syntax-ns#">
   <cc:Work>
    <dc:type rdf:resource="http://purl.org/dc/dcmitype/StillImage"/>
    <dc:date>2022-05-18T23:20:40.480872</dc:date>
    <dc:format>image/svg+xml</dc:format>
    <dc:creator>
     <cc:Agent>
      <dc:title>Matplotlib v3.4.3, https://matplotlib.org/</dc:title>
     </cc:Agent>
    </dc:creator>
   </cc:Work>
  </rdf:RDF>
 </metadata>
 <defs>
  <style type="text/css">*{stroke-linecap:butt;stroke-linejoin:round;}</style>
 </defs>
 <g id="figure_1">
  <g id="patch_1">
   <path d="M 0 59.612115 
L 72 59.612115 
L 72 0 
L 0 0 
z
" style="fill:#ffffff;"/>
  </g>
  <g id="axes_1">
   <g id="line2d_1">
    <path clip-path="url(#pac507cc919)" d="M 38.847494 46.302454 
L 37.860175 42.845457 
L 37.061948 40.051751 
L 36.263722 37.258046 
L 35.324811 33.972077 
L 34.385899 30.686108 
L 33.686001 28.236689 
" style="fill:none;stroke:#808080;stroke-linecap:square;stroke-width:0.4;"/>
   </g>
   <g id="line2d_2">
    <path clip-path="url(#pac507cc919)" d="M 50.812314 45.915782 
L 48.610763 42.580735 
L 47.248282 40.516873 
L 45.885802 38.453011 
L 43.82897 35.337327 
L 41.772138 32.221642 
L 39.390066 28.612951 
L 38.592344 27.405345 
" style="fill:none;stroke:#808080;stroke-linecap:square;stroke-width:0.4;"/>
   </g>
   <g id="line2d_3">
    <path clip-path="url(#pac507cc919)" d="M 6.605813 46.773896 
L 6.511014 45.717984 
L 6.403105 44.50889 
L 6.188295 42.094421 
L 5.908941 38.970929 
L 5.629587 35.847436 
L 5.324012 32.424273 
L 5.018437 29.00111 
L 4.630166 24.655511 
L 4.241894 20.309912 
L 4.057339 18.238242 
" style="fill:none;stroke:#808080;stroke-linecap:square;stroke-width:0.4;"/>
   </g>
   <g id="line2d_4">
    <path clip-path="url(#pac507cc919)" d="M 68.009222 21.804549 
L 65.384102 20.958332 
L 63.547627 20.366426 
L 61.139838 19.590479 
L 58.732049 18.814533 
L 55.059099 17.630721 
L 51.697776 16.547296 
L 49.410502 15.810016 
L 47.123229 15.072737 
L 45.787977 14.642192 
" style="fill:none;stroke:#808080;stroke-linecap:square;stroke-width:0.4;"/>
   </g>
   <g id="line2d_5">
    <path clip-path="url(#pac507cc919)" d="M 68.727273 26.731643 
L 65.91558 26.225251 
L 63.487621 25.787643 
L 61.059662 25.350034 
L 58.237885 24.841411 
L 55.416108 24.332789 
L 52.795021 23.860231 
L 50.173935 23.387673 
L 46.938169 22.804691 
L 43.702403 22.221708 
" style="fill:none;stroke:#808080;stroke-linecap:square;stroke-width:0.4;"/>
   </g>
   <g id="line2d_6">
    <path clip-path="url(#pac507cc919)" d="M 59.808116 31.264629 
L 55.993977 29.920944 
L 52.51365 28.695491 
L 49.033324 27.470038 
L 46.579144 26.605603 
L 44.124964 25.741168 
L 42.495231 25.167108 
" style="fill:none;stroke:#808080;stroke-linecap:square;stroke-width:0.4;"/>
   </g>
   <g id="line2d_7">
    <path clip-path="url(#pac507cc919)" d="M 26.69711 56.889832 
L 26.594748 53.93774 
L 26.492385 50.985647 
" style="fill:none;stroke:#808080;stroke-linecap:square;stroke-width:0.4;"/>
   </g>
   <g id="line2d_8">
    <path clip-path="url(#pac507cc919)" d="M 17.548016 51.511373 
L 17.892923 48.24325 
L 18.187404 45.451032 
L 18.481886 42.658813 
L 18.81469 39.50818 
L 19.147494 36.357546 
L 19.447522 33.510301 
L 19.747551 30.663057 
L 20.178179 26.586641 
" style="fill:none;stroke:#808080;stroke-linecap:square;stroke-width:0.4;"/>
   </g>
   <g id="line2d_9">
    <path clip-path="url(#pac507cc919)" d="M 67.867024 17.244793 
L 64.851867 16.194272 
L 61.83671 15.143751 
L 58.821553 14.09323 
L 55.806396 13.042709 
" style="fill:none;stroke:#808080;stroke-linecap:square;stroke-width:0.4;"/>
   </g>
   <g id="line2d_10">
    <path clip-path="url(#pac507cc919)" d="M 67.730877 17.864212 
L 64.715468 16.813877 
L 61.700059 15.763541 
L 58.685154 14.712834 
L 55.670249 13.662127 
" style="fill:none;stroke:#808080;stroke-linecap:square;stroke-width:0.4;"/>
   </g>
   <g id="line2d_11">
    <path clip-path="url(#pac507cc919)" d="M 14.47714 54.303591 
L 10.829403 53.843674 
L 7.181666 53.383758 
" style="fill:none;stroke:#808080;stroke-linecap:square;stroke-width:0.4;"/>
   </g>
   <g id="line2d_12">
    <path clip-path="url(#pac507cc919)" d="M 21.373249 2.709642 
L 17.840985 2.770059 
L 14.308721 2.830477 
L 10.776457 2.890894 
L 7.244192 2.951312 
" style="fill:none;stroke:#808080;stroke-linecap:square;stroke-width:0.4;"/>
   </g>
   <g id="line2d_13">
    <path clip-path="url(#pac507cc919)" d="M 21.165499 3.192982 
L 17.685172 3.253399 
L 14.204846 3.313817 
L 10.724519 3.374234 
L 7.244192 3.434652 
" style="fill:none;stroke:#808080;stroke-linecap:square;stroke-width:0.4;"/>
   </g>
   <g id="line2d_14">
    <path clip-path="url(#pac507cc919)" d="M 3.272727 17.732594 
L 3.343763 18.677478 
L 3.414799 19.622361 
L 3.485836 20.567244 
L 3.556872 21.512128 
L 3.627908 22.457011 
L 3.698944 23.401895 
L 3.76998 24.346778 
L 3.841016 25.291661 
L 3.912052 26.236545 
L 3.983088 27.181428 
L 4.054124 28.126311 
L 4.12516 29.071195 
L 4.196196 30.016078 
L 4.267232 30.960961 
L 4.338268 31.905845 
L 4.409305 32.850728 
L 4.480341 33.795611 
L 4.551377 34.740495 
L 4.622413 35.685378 
L 4.693449 36.630262 
L 4.764485 37.575145 
L 4.835521 38.520028 
L 4.906557 39.464912 
L 4.977593 40.409795 
L 5.048629 41.354678 
L 5.119665 42.299562 
L 5.190701 43.244445 
L 5.261737 44.189328 
L 5.332774 45.134212 
L 5.40381 46.079095 
L 5.474846 47.023978 
L 5.545882 47.968862 
" style="fill:none;stroke:#4169e1;stroke-linecap:square;stroke-width:0.4;"/>
   </g>
   <g id="line2d_15">
    <path clip-path="url(#pac507cc919)" d="M 4.349803 17.174151 
L 4.798585 18.021855 
L 5.247366 18.869559 
L 5.696148 19.717263 
L 6.14493 20.564967 
L 6.204746 21.385205 
L 6.264563 22.205442 
L 6.324379 23.025679 
L 6.384196 23.845917 
L 6.444012 24.666154 
L 6.503829 25.486392 
L 6.563645 26.306629 
L 6.623462 27.126866 
L 6.683278 27.947104 
L 6.743095 28.767341 
L 6.802911 29.587578 
L 6.862728 30.407816 
L 6.922545 31.228053 
L 6.982361 32.048291 
L 7.042178 32.868528 
L 7.101994 33.688765 
L 7.161811 34.509003 
L 7.221627 35.32924 
L 7.281444 36.149478 
L 7.34126 36.969715 
L 7.401077 37.789952 
L 7.460893 38.61019 
L 7.52071 39.430427 
L 7.580526 40.250664 
L 7.640343 41.070902 
L 7.70016 41.891139 
L 7.759976 42.711377 
L 7.819793 43.531614 
L 7.879609 44.351851 
L 7.939426 45.172089 
L 7.999242 45.992326 
L 8.059059 46.812564 
" style="fill:none;stroke:#4169e1;stroke-linecap:square;stroke-width:0.4;"/>
   </g>
   <g id="line2d_16">
    <path clip-path="url(#pac507cc919)" d="M 23.840035 25.279392 
L 24.690956 25.374759 
L 25.541876 25.470125 
L 26.392796 25.565492 
L 27.243716 25.660859 
L 28.076735 24.654024 
L 27.278005 23.751294 
L 26.375399 22.882769 
L 25.333621 22.257773 
L 24.291843 21.632777 
L 23.007016 21.38962 
L 21.72219 21.146462 
L 20.489301 21.459146 
L 19.256412 21.77183 
L 18.553237 22.153855 
L 17.850062 22.535879 
L 17.146886 22.917904 
L 16.443711 23.299928 
L 16.009048 23.886536 
L 15.574386 24.473143 
L 15.139723 25.059751 
L 14.705061 25.646359 
L 14.270398 26.232966 
L 13.835735 26.819574 
L 13.401073 27.406181 
L 12.96641 27.992789 
" style="fill:none;stroke:#008000;stroke-linecap:square;stroke-width:0.4;"/>
   </g>
   <g id="line2d_17">
    <path clip-path="url(#pac507cc919)" d="M 4.776398 15.903338 
L 5.548907 15.95539 
L 6.321417 16.007442 
L 7.093926 16.059494 
L 7.866436 16.111546 
L 8.48288 16.892884 
L 9.099324 17.674222 
L 9.715769 18.45556 
L 10.332213 19.236897 
L 10.95723 20.157103 
L 11.582247 21.077308 
L 12.207263 21.997513 
L 12.83228 22.917718 
L 12.865812 24.186486 
L 12.899345 25.455253 
L 12.932877 26.724021 
L 12.96641 27.992789 
L 12.985067 28.703484 
L 13.003724 29.41418 
L 13.022382 30.124876 
L 13.041039 30.835572 
L 12.98242 31.642936 
L 12.923801 32.450299 
L 12.865182 33.257663 
L 12.806563 34.065027 
L 12.747944 34.872391 
L 12.689325 35.679755 
L 12.630706 36.487118 
L 12.572087 37.294482 
L 12.513468 38.101846 
L 12.454849 38.90921 
L 12.39623 39.716574 
L 12.337612 40.523938 
L 12.278993 41.331301 
L 12.220374 42.138665 
L 12.161755 42.946029 
L 12.103136 43.753393 
L 12.545866 44.699624 
L 12.988597 45.645855 
L 13.431328 46.592086 
L 13.874058 47.538317 
L 14.256027 48.562812 
L 14.637995 49.587307 
L 15.019964 50.611802 
L 15.401933 51.636297 
" style="fill:none;stroke:#008000;stroke-linecap:square;stroke-width:0.4;"/>
   </g>
   <g id="line2d_18">
    <path clip-path="url(#pac507cc919)" d="M 19.672922 25.279392 
L 19.030508 26.321176 
L 18.388095 27.362959 
L 18.23619 28.035732 
L 18.084285 28.708504 
L 17.93238 29.381276 
L 17.780475 30.054048 
L 17.62857 30.72682 
L 17.476665 31.399592 
L 17.32476 32.072365 
L 17.172855 32.745137 
L 17.062173 33.925834 
L 16.95149 35.106532 
L 16.840807 36.287229 
L 16.730125 37.467927 
L 16.619442 38.648625 
L 16.508759 39.829322 
L 16.398077 41.01002 
L 16.287394 42.190717 
L 16.176711 43.371415 
L 16.066029 44.552112 
L 15.955346 45.73281 
L 15.844663 46.913507 
L 15.733981 48.094205 
L 15.623298 49.274902 
L 15.512615 50.4556 
L 15.401933 51.636297 
" style="fill:none;stroke:#008000;stroke-linecap:square;stroke-width:0.4;"/>
   </g>
   <g id="line2d_19">
    <path clip-path="url(#pac507cc919)" d="M 21.132218 25.279392 
L 21.635459 26.511909 
L 22.138699 27.744426 
L 22.046453 28.488886 
L 21.954207 29.233346 
L 21.861961 29.977806 
L 21.769715 30.722266 
L 21.677469 31.466726 
L 21.585223 32.211186 
L 21.492977 32.955645 
L 21.400731 33.700105 
L 21.308485 34.444565 
L 21.216239 35.189025 
L 21.123993 35.933485 
L 21.031747 36.677945 
L 20.939501 37.422405 
L 20.847255 38.166865 
L 20.755009 38.911325 
L 20.662762 39.655784 
L 20.570516 40.400244 
L 20.47827 41.144704 
L 20.386024 41.889164 
L 20.293778 42.633624 
L 20.201532 43.378084 
L 20.109286 44.122544 
L 20.01704 44.867004 
L 19.924794 45.611464 
L 19.832548 46.355923 
L 19.740302 47.100383 
L 19.648056 47.844843 
L 19.55581 48.589303 
L 19.463564 49.333763 
L 19.371318 50.078223 
L 19.279072 50.822683 
L 19.186826 51.567143 
" style="fill:none;stroke:#008000;stroke-linecap:square;stroke-width:0.4;"/>
   </g>
   <g id="line2d_20">
    <path clip-path="url(#pac507cc919)" d="M 22.555209 24.514971 
L 22.906797 25.14006 
L 23.258384 25.765149 
L 23.609972 26.390237 
L 23.961559 27.015326 
L 24.313147 27.640415 
L 24.664735 28.265504 
L 25.016322 28.890593 
L 25.36791 29.515682 
L 25.38745 30.78101 
L 25.406989 32.046339 
L 25.426529 33.311667 
L 25.446068 34.576996 
L 25.465608 35.842324 
L 25.485148 37.107653 
L 25.504687 38.372981 
L 25.524227 39.63831 
L 25.543767 40.903638 
L 25.563306 42.168967 
L 25.582846 43.434295 
L 25.602386 44.699624 
L 25.621925 45.964952 
L 25.641465 47.230281 
L 25.661005 48.495609 
L 25.680544 49.760938 
" style="fill:none;stroke:#008000;stroke-linecap:square;stroke-width:0.4;"/>
   </g>
   <g id="line2d_21">
    <path clip-path="url(#pac507cc919)" d="M 40.022394 26.147173 
L 40.230145 25.383496 
L 39.536298 24.862232 
L 38.559568 24.910009 
L 37.582838 24.957785 
L 36.606107 25.005561 
L 35.629377 25.053337 
L 34.652647 25.101114 
L 33.675916 25.14889 
L 32.699186 25.196666 
L 31.722456 25.244443 
L 30.403845 25.031029 
L 29.085233 24.817616 
L 28.076735 24.654024 
" style="fill:none;stroke:#008000;stroke-linecap:square;stroke-width:0.4;"/>
   </g>
   <g id="line2d_22">
    <path clip-path="url(#pac507cc919)" d="M 29.085233 24.817616 
L 28.620568 25.404874 
L 28.155903 25.992133 
L 27.691237 26.579391 
L 27.226572 27.166649 
L 26.761906 27.753907 
L 26.297241 28.341165 
L 25.832575 28.928423 
L 25.36791 29.515682 
" style="fill:none;stroke:#008000;stroke-linecap:square;stroke-width:0.4;"/>
   </g>
   <g id="line2d_23">
    <path clip-path="url(#pac507cc919)" d="M 32.869118 27.744426 
L 31.82734 28.404743 
L 31.710102 29.485566 
L 31.592864 30.566389 
L 31.475626 31.647211 
L 31.358388 32.728034 
L 31.24115 33.808857 
L 31.123912 34.88968 
L 31.006674 35.970502 
L 30.889436 37.051325 
L 30.989278 38.218963 
L 31.089119 39.386601 
L 31.18896 40.554239 
L 31.288802 41.721877 
L 31.388643 42.889515 
L 31.488484 44.057153 
L 31.588326 45.224791 
L 31.688167 46.39243 
L 32.729945 47.086952 
L 33.771724 47.781475 
L 34.935026 47.677371 
L 36.098329 47.573266 
L 37.261631 47.469162 
L 38.424933 47.365058 
" style="fill:none;stroke:#4169e1;stroke-linecap:square;stroke-width:0.4;"/>
   </g>
   <g id="line2d_24">
    <path clip-path="url(#pac507cc919)" d="M 32.556484 28.856108 
L 32.836405 29.978201 
L 33.116326 31.100293 
L 33.396247 32.222386 
L 33.676168 33.344479 
L 33.95609 34.466571 
L 34.236011 35.588664 
L 34.515932 36.710756 
L 34.795853 37.832849 
L 35.075775 38.954941 
L 35.355696 40.077034 
L 35.635617 41.199126 
L 35.915538 42.321219 
L 36.19546 43.443312 
L 36.475381 44.565404 
L 36.755302 45.687497 
L 37.035223 46.809589 
" style="fill:none;stroke:#4169e1;stroke-linecap:square;stroke-width:0.4;"/>
   </g>
   <g id="line2d_25">
    <path clip-path="url(#pac507cc919)" d="M 35.021253 27.918429 
L 35.346808 29.034015 
L 35.672364 30.149601 
L 35.99792 31.265187 
L 36.323476 32.380773 
L 36.649031 33.496359 
L 36.974587 34.611945 
L 37.300143 35.727531 
L 37.625699 36.843117 
L 37.951255 37.958703 
L 38.27681 39.074289 
L 38.602366 40.189875 
L 38.927922 41.305461 
L 39.253478 42.421047 
L 39.579033 43.536633 
L 39.904589 44.652219 
L 40.230145 45.767805 
" style="fill:none;stroke:#4169e1;stroke-linecap:square;stroke-width:0.4;"/>
   </g>
   <g id="line2d_26">
    <path clip-path="url(#pac507cc919)" d="M 37.521319 28.057482 
L 38.215859 29.2056 
L 38.910399 30.353719 
L 39.604939 31.501838 
L 40.299479 32.649956 
L 40.994019 33.798075 
L 41.688559 34.946193 
L 42.383099 36.094312 
L 43.077639 37.24243 
L 43.772179 38.390549 
L 44.466719 39.538667 
L 45.161259 40.686786 
L 45.855799 41.834905 
L 46.550339 42.983023 
L 47.244879 44.131142 
L 47.939419 45.27926 
L 48.633959 46.427379 
" style="fill:none;stroke:#4169e1;stroke-linecap:square;stroke-width:0.4;"/>
   </g>
   <g id="line2d_27">
    <path clip-path="url(#pac507cc919)" d="M 40.022394 26.702642 
L 40.777633 27.822597 
L 41.532872 28.942552 
L 42.288111 30.062507 
L 43.04335 31.182461 
L 43.798589 32.302416 
L 44.553828 33.422371 
L 45.309067 34.542325 
L 46.064306 35.66228 
L 46.819545 36.782235 
L 47.574784 37.902189 
L 48.330023 39.022144 
L 49.085262 40.142099 
L 49.8405 41.262054 
L 50.595739 42.382008 
L 51.350978 43.501963 
L 52.106217 44.621918 
" style="fill:none;stroke:#4169e1;stroke-linecap:square;stroke-width:0.4;"/>
   </g>
   <g id="line2d_28">
    <path clip-path="url(#pac507cc919)" d="M 41.931481 26.078018 
L 42.808244 26.624936 
L 43.685007 27.171854 
L 44.56177 27.718772 
L 45.438533 28.26569 
L 46.315296 28.812608 
L 47.192059 29.359526 
L 48.068822 29.906443 
L 48.945585 30.453361 
L 49.822347 31.000279 
L 50.69911 31.547197 
L 51.575873 32.094115 
L 52.452636 32.641033 
L 53.329399 33.187951 
L 54.206162 33.734869 
L 55.082925 34.281786 
L 55.959688 34.828704 
" style="fill:none;stroke:#4169e1;stroke-linecap:square;stroke-width:0.4;"/>
   </g>
   <g id="line2d_29">
    <path clip-path="url(#pac507cc919)" d="M 42.591039 24.133504 
L 43.717405 24.482903 
L 44.843771 24.832302 
L 45.970137 25.181701 
L 47.096503 25.5311 
L 48.22287 25.8805 
L 49.349236 26.229899 
L 50.475602 26.579298 
L 51.601968 26.928697 
L 52.728334 27.278096 
L 53.854701 27.627495 
L 54.981067 27.976894 
L 56.107433 28.326293 
L 57.233799 28.675692 
L 58.360165 29.025091 
L 59.486532 29.374491 
L 60.612898 29.72389 
" style="fill:none;stroke:#008000;stroke-linecap:square;stroke-width:0.4;"/>
   </g>
   <g id="line2d_30">
    <path clip-path="url(#pac507cc919)" d="M 42.973259 23.264979 
L 43.725252 23.415814 
L 44.477245 23.566648 
L 45.229238 23.717483 
L 45.981231 23.868318 
L 46.733224 24.019152 
L 47.485216 24.169987 
L 48.237209 24.320822 
L 48.989202 24.471656 
L 49.741195 24.622491 
L 50.493188 24.773326 
L 51.245181 24.92416 
L 51.997173 25.074995 
L 52.749166 25.225829 
L 53.501159 25.376664 
L 54.253152 25.527499 
L 55.005145 25.678333 
L 55.757138 25.829168 
L 56.50913 25.980003 
L 57.261123 26.130837 
L 58.013116 26.281672 
L 58.765109 26.432506 
L 59.517102 26.583341 
L 60.269095 26.734176 
L 61.021087 26.88501 
L 61.77308 27.035845 
L 62.525073 27.18668 
L 63.277066 27.337514 
L 64.029059 27.488349 
L 64.781052 27.639184 
L 65.533044 27.790018 
L 66.285037 27.940853 
L 67.03703 28.091687 
" style="fill:none;stroke:#008000;stroke-linecap:square;stroke-width:0.4;"/>
   </g>
   <g id="line2d_31">
    <path clip-path="url(#pac507cc919)" d="M 43.494653 20.8691 
L 44.280241 21.006921 
L 45.06583 21.144743 
L 45.851418 21.282565 
L 46.637007 21.420386 
L 47.422595 21.558208 
L 48.208183 21.696029 
L 48.993772 21.833851 
L 49.77936 21.971673 
L 50.564949 22.109494 
L 51.350537 22.247316 
L 52.136126 22.385138 
L 52.921714 22.522959 
L 53.707302 22.660781 
L 54.492891 22.798602 
L 55.278479 22.936424 
L 56.064068 23.074246 
L 56.849656 23.212067 
L 57.635244 23.349889 
L 58.420833 23.487711 
L 59.206421 23.625532 
L 59.99201 23.763354 
L 60.777598 23.901176 
L 61.563187 24.038997 
L 62.348775 24.176819 
L 63.134363 24.31464 
L 63.919952 24.452462 
L 64.70554 24.590284 
L 65.491129 24.728105 
L 66.276717 24.865927 
L 67.062306 25.003749 
L 67.847894 25.14157 
L 68.633482 25.279392 
" style="fill:none;stroke:#008000;stroke-linecap:square;stroke-width:0.4;"/>
   </g>
   <g id="line2d_32">
    <path clip-path="url(#pac507cc919)" d="M 57.226362 12.407674 
L 58.050178 12.358597 
L 58.873995 12.309519 
L 59.697812 12.260441 
L 60.521629 12.211364 
L 61.345446 12.162286 
L 62.169262 12.113208 
L 62.993079 12.064131 
L 63.816896 12.015053 
L 64.289125 12.517634 
L 64.761354 13.020215 
L 65.233584 13.522795 
L 65.705813 14.025376 
L 66.178042 14.527957 
L 66.650271 15.030538 
L 67.1225 15.533118 
L 67.594729 16.035699 
" style="fill:none;stroke:#008000;stroke-linecap:square;stroke-width:0.4;"/>
   </g>
   <g id="line2d_33">
    <path clip-path="url(#pac507cc919)" d="M 47.856407 13.737975 
L 49.129761 14.161223 
L 50.403116 14.58447 
L 51.676471 15.007718 
L 52.949826 15.430966 
L 54.223181 15.854214 
L 55.496535 16.277462 
L 56.76989 16.70071 
L 58.043245 17.123958 
L 59.3166 17.547206 
L 60.589955 17.970454 
L 61.863309 18.393701 
L 63.136664 18.816949 
L 64.410019 19.240197 
L 65.683374 19.663445 
L 66.956728 20.086693 
L 68.230083 20.509941 
" style="fill:none;stroke:#008000;stroke-linecap:square;stroke-width:0.4;"/>
   </g>
   <g id="line2d_34">
    <path clip-path="url(#pac507cc919)" d="M 26.786867 50.954416 
L 26.806658 51.693183 
L 26.82645 52.43195 
L 26.846242 53.170716 
L 26.866034 53.909483 
L 26.885825 54.64825 
L 26.905617 55.387016 
L 26.925409 56.125783 
L 26.945201 56.86455 
" style="fill:none;stroke:#008000;stroke-linecap:square;stroke-width:0.4;"/>
   </g>
   <g id="line2d_35">
    <path clip-path="url(#pac507cc919)" d="M 26.155547 50.99234 
L 26.175465 51.731106 
L 26.195382 52.469873 
L 26.2153 53.20864 
L 26.235218 53.947407 
L 26.255136 54.686173 
L 26.275054 55.42494 
L 26.294972 56.163707 
L 26.314889 56.902473 
" style="fill:none;stroke:#008000;stroke-linecap:square;stroke-width:0.4;"/>
   </g>
   <g id="line2d_36">
    <path clip-path="url(#pac507cc919)" d="M 7.127207 53.623941 
L 7.866436 54.337053 
L 9.145967 54.571473 
L 10.425499 54.805893 
L 11.705031 55.040313 
L 12.984563 55.274733 
L 13.678914 55.047935 
L 14.373265 54.821137 
" style="fill:none;stroke:#008000;stroke-linecap:square;stroke-width:0.4;"/>
   </g>
   <g id="line2d_37">
    <path clip-path="url(#pac507cc919)" d="M 7.142334 53.051368 
L 8.3132 52.610414 
L 9.461627 52.763781 
L 10.610054 52.917149 
L 11.758482 53.070516 
L 12.906909 53.223884 
L 13.679922 53.573004 
L 14.452936 53.922124 
" style="fill:none;stroke:#008000;stroke-linecap:square;stroke-width:0.4;"/>
   </g>
  </g>
 </g>
 <defs>
  <clipPath id="pac507cc919">
   <rect height="59.612115" width="72" x="0" y="0"/>
  </clipPath>
 </defs>
</svg>
