<?xml version="1.0" encoding="utf-8" standalone="no"?>
<!DOCTYPE svg PUBLIC "-//W3C//DTD SVG 1.1//EN"
  "http://www.w3.org/Graphics/SVG/1.1/DTD/svg11.dtd">
<svg height="86.676405pt" version="1.1" viewBox="0 0 99.36312 86.676405" width="99.36312pt" xmlns="http://www.w3.org/2000/svg" xmlns:xlink="http://www.w3.org/1999/xlink">
 <metadata>
  <rdf:RDF xmlns:cc="http://creativecommons.org/ns#" xmlns:dc="http://purl.org/dc/elements/1.1/" xmlns:rdf="http://www.w3.org/1999/02/22-rdf-syntax-ns#">
   <cc:Work>
    <dc:type rdf:resource="http://purl.org/dc/dcmitype/StillImage"/>
    <dc:date>2022-05-18T23:15:44.429998</dc:date>
    <dc:format>image/svg+xml</dc:format>
    <dc:creator>
     <cc:Agent>
      <dc:title>Matplotlib v3.4.3, https://matplotlib.org/</dc:title>
     </cc:Agent>
    </dc:creator>
   </cc:Work>
  </rdf:RDF>
 </metadata>
 <defs>
  <style type="text/css">*{stroke-linecap:butt;stroke-linejoin:round;}</style>
 </defs>
 <g id="figure_1">
  <g id="patch_1">
   <path d="M 0 86.676405 
L 99.36312 86.676405 
L 99.36312 0 
L 0 0 
z
" style="fill:#ffffff;"/>
  </g>
  <g id="axes_1">
   <g id="line2d_1">
    <path clip-path="url(#pbb983d0bf0)" d="M 48.905829 15.027926 
" style="fill:none;stroke:#008000;stroke-linecap:square;stroke-width:0.001;"/>
   </g>
   <g id="line2d_2">
    <path clip-path="url(#pbb983d0bf0)" d="M 48.905829 15.027926 
" style="fill:none;stroke:#4169e1;stroke-linecap:square;stroke-width:0.001;"/>
   </g>
   <g id="line2d_3">
    <path clip-path="url(#pbb983d0bf0)" d="M 48.905829 15.027926 
" style="fill:none;stroke:#000000;stroke-linecap:square;stroke-width:0.001;"/>
   </g>
   <g id="line2d_4">
    <path clip-path="url(#pbb983d0bf0)" d="M 48.905829 15.027926 
" style="fill:none;stroke:#ff0000;stroke-linecap:square;stroke-width:0.001;"/>
   </g>
   <g id="line2d_5">
    <path clip-path="url(#pbb983d0bf0)" d="M 48.905829 15.027926 
" style="fill:none;stroke:#ffd700;stroke-linecap:square;stroke-width:0.001;"/>
   </g>
   <g id="line2d_6">
    <path clip-path="url(#pbb983d0bf0)" d="M 48.905829 15.027926 
" style="fill:none;stroke:#000000;stroke-dasharray:0.001,0.00165;stroke-dashoffset:0;stroke-width:0.001;"/>
   </g>
   <g id="line2d_7">
    <path clip-path="url(#pbb983d0bf0)" d="M 50.214574 71.519667 
L 46.286202 71.574872 
" style="fill:none;stroke:#808080;stroke-linecap:square;stroke-width:0.460014;"/>
   </g>
   <g id="line2d_8">
    <path clip-path="url(#pbb983d0bf0)" d="M 26.418731 69.540779 
L 26.470055 66.001994 
L 26.518571 62.62387 
L 26.567088 59.245747 
L 26.615604 55.867623 
L 26.664121 52.489499 
L 26.712638 49.111375 
L 26.761154 45.733252 
L 26.809671 42.355128 
L 26.858187 38.977004 
L 26.923945 34.38437 
L 26.989703 29.791735 
L 27.04664 25.836082 
L 27.103577 21.880429 
L 27.160514 17.924775 
L 27.21745 13.969122 
" style="fill:none;stroke:#808080;stroke-linecap:square;stroke-width:0.460014;"/>
   </g>
   <g id="line2d_9">
    <path clip-path="url(#pbb983d0bf0)" d="M 35.409935 68.138004 
L 35.447358 65.747202 
L 35.50082 62.363416 
L 35.554282 58.97963 
L 35.640355 53.527779 
L 35.726429 48.075927 
L 35.785771 44.332601 
L 35.845114 40.589275 
L 35.904457 36.845948 
L 35.963799 33.102622 
L 36.02528 29.209959 
L 36.086761 25.317296 
L 36.148242 21.424633 
L 36.209723 17.53197 
L 36.258908 14.388114 
" style="fill:none;stroke:#808080;stroke-linecap:square;stroke-width:0.460014;"/>
   </g>
   <g id="line2d_10">
    <path clip-path="url(#pbb983d0bf0)" d="M 44.648132 74.012387 
L 44.271227 68.47065 
L 43.894321 62.928914 
L 43.659356 59.472583 
L 43.424392 56.016252 
L 43.189427 52.559921 
L 42.954463 49.10359 
L 42.710944 45.524463 
L 42.467426 41.945337 
L 42.223907 38.36621 
L 41.980389 34.787083 
L 41.728584 31.086223 
L 41.476779 27.385362 
L 41.098269 21.805406 
L 40.850741 18.168951 
L 40.603213 14.532496 
" style="fill:none;stroke:#808080;stroke-linecap:square;stroke-width:0.460014;"/>
   </g>
   <g id="line2d_11">
    <path clip-path="url(#pbb983d0bf0)" d="M 53.436181 65.758526 
L 52.636393 61.230297 
L 51.836604 56.702068 
L 51.133315 52.720936 
L 50.430025 48.739803 
L 49.726735 44.758671 
L 49.023445 40.777538 
L 48.438306 37.464174 
L 47.853167 34.15081 
L 47.268027 30.837446 
L 46.682888 27.524082 
L 46.124212 24.36147 
L 45.565537 21.198859 
L 45.006861 18.036247 
L 44.448185 14.873635 
" style="fill:none;stroke:#808080;stroke-linecap:square;stroke-width:0.460014;"/>
   </g>
   <g id="line2d_12">
    <path clip-path="url(#pbb983d0bf0)" d="M 61.403057 64.900724 
L 60.667957 60.59827 
L 59.932858 56.295816 
L 58.942211 50.495748 
L 57.951564 44.69568 
L 57.349852 41.174236 
L 56.748139 37.652791 
L 56.146427 34.131347 
L 55.544714 30.609902 
L 54.886867 26.758643 
L 54.22902 22.907384 
L 53.571172 19.056125 
L 52.913325 15.204865 
" style="fill:none;stroke:#808080;stroke-linecap:square;stroke-width:0.460014;"/>
   </g>
   <g id="line2d_13">
    <path clip-path="url(#pbb983d0bf0)" d="M 85.473693 60.778748 
L 84.411675 55.50879 
L 83.349656 50.238832 
L 82.287638 44.968874 
L 81.225619 39.698916 
L 80.53917 36.29319 
L 79.852721 32.887464 
L 78.814493 27.734994 
L 77.776265 22.582523 
L 76.86688 18.070573 
L 75.957495 13.558623 
" style="fill:none;stroke:#808080;stroke-linecap:square;stroke-width:0.460014;"/>
   </g>
   <g id="line2d_14">
    <path clip-path="url(#pbb983d0bf0)" d="M 91.707338 59.690218 
L 90.918643 54.049926 
L 90.129948 48.409635 
L 89.341253 42.769343 
L 88.552558 37.129051 
L 87.763863 31.488759 
L 86.975168 25.848468 
L 86.186472 20.208176 
L 85.397777 14.567884 
" style="fill:none;stroke:#808080;stroke-linecap:square;stroke-width:0.460014;"/>
   </g>
   <g id="line2d_15">
    <path clip-path="url(#pbb983d0bf0)" d="M 72.679218 63.172382 
L 72.763955 59.630412 
L 72.848692 56.088443 
L 72.933429 52.546474 
L 73.018165 49.004504 
" style="fill:none;stroke:#808080;stroke-linecap:square;stroke-width:0.460014;"/>
   </g>
   <g id="line2d_16">
    <path clip-path="url(#pbb983d0bf0)" d="M 72.957219 63.180875 
L 73.041956 59.638906 
L 73.126693 56.096936 
L 73.21143 52.554967 
L 73.296167 49.012997 
" style="fill:none;stroke:#808080;stroke-linecap:square;stroke-width:0.460014;"/>
   </g>
   <g id="line2d_17">
    <path clip-path="url(#pbb983d0bf0)" d="M 68.057981 63.874477 
L 68.379821 57.998679 
" style="fill:none;stroke:#808080;stroke-linecap:square;stroke-width:0.460014;"/>
   </g>
   <g id="line2d_18">
    <path clip-path="url(#pbb983d0bf0)" d="M 68.406552 57.102659 
L 68.623606 52.955911 
L 68.840661 48.809163 
" style="fill:none;stroke:#808080;stroke-linecap:square;stroke-width:0.460014;"/>
   </g>
   <g id="line2d_19">
    <path clip-path="url(#pbb983d0bf0)" d="M 23.266624 67.53358 
L 22.552642 61.440147 
L 21.83866 55.346714 
L 21.124678 49.253281 
L 20.410695 43.159848 
" style="fill:none;stroke:#808080;stroke-linecap:square;stroke-width:0.460014;"/>
   </g>
   <g id="line2d_20">
    <path clip-path="url(#pbb983d0bf0)" d="M 48.905829 15.027926 
L 49.132374 16.238589 
L 49.358918 17.449251 
L 49.585462 18.659913 
L 49.812007 19.870576 
L 50.038551 21.081238 
L 50.265095 22.291901 
L 50.49164 23.502563 
L 50.718184 24.713226 
L 50.944728 25.923888 
L 51.171273 27.13455 
L 51.397817 28.345213 
L 51.624361 29.555875 
L 51.850906 30.766538 
L 52.07745 31.9772 
L 52.303994 33.187863 
L 52.530539 34.398525 
L 52.757083 35.609187 
L 52.983627 36.81985 
L 53.210172 38.030512 
L 53.436716 39.241175 
L 53.66326 40.451837 
L 53.889805 41.662499 
L 54.116349 42.873162 
L 54.342893 44.083824 
L 54.569438 45.294487 
L 54.795982 46.505149 
L 55.022526 47.715812 
L 55.249071 48.926474 
L 55.475615 50.137136 
L 55.702159 51.347799 
L 55.928704 52.558461 
L 56.155248 53.769124 
L 56.418414 55.175437 
L 56.681579 56.58175 
L 56.944745 57.988063 
L 57.20791 59.394376 
L 57.471076 60.800689 
L 57.734242 62.207001 
L 57.997407 63.613314 
L 58.260573 65.019627 
" style="fill:none;stroke:#4169e1;stroke-linecap:square;stroke-width:0.460014;"/>
   </g>
   <g id="line2d_21">
    <path clip-path="url(#pbb983d0bf0)" d="M 51.148017 65.019627 
L 50.971726 64.013463 
L 50.795436 63.007298 
L 50.619146 62.001133 
L 50.442856 60.994968 
L 50.266565 59.988803 
L 50.090275 58.982638 
L 49.913985 57.976473 
L 49.737695 56.970308 
L 49.561404 55.964143 
L 49.385114 54.957978 
L 49.208824 53.951813 
L 49.032534 52.945649 
L 48.856243 51.939484 
L 48.679953 50.933319 
L 48.503663 49.927154 
L 48.327373 48.920989 
L 48.143097 47.869351 
L 47.95882 46.817712 
L 47.774544 45.766074 
L 47.590268 44.714436 
L 47.405992 43.662797 
L 47.221716 42.611159 
L 47.03744 41.559521 
L 46.853164 40.507883 
L 46.668888 39.456244 
L 46.484612 38.404606 
L 46.300335 37.352968 
L 46.116059 36.301329 
L 45.931783 35.249691 
L 45.747507 34.198053 
L 45.563231 33.146414 
L 45.378955 32.094776 
L 45.194679 31.043138 
L 45.010403 29.9915 
L 44.826127 28.939861 
L 44.641851 27.888223 
L 44.457574 26.836585 
L 44.273298 25.784946 
L 44.089022 24.733308 
L 43.904746 23.68167 
L 43.72047 22.630032 
L 43.536194 21.578393 
L 43.351918 20.526755 
L 43.167642 19.475117 
L 42.983366 18.423478 
L 42.799089 17.37184 
L 42.614813 16.320202 
L 42.430537 15.268564 
" style="fill:none;stroke:#008000;stroke-linecap:square;stroke-width:0.460014;"/>
   </g>
   <g id="line2d_22">
    <path clip-path="url(#pbb983d0bf0)" d="M 38.414488 14.599025 
L 38.443557 16.46308 
L 38.472627 18.327135 
L 38.501697 20.19119 
L 38.530767 22.055244 
L 38.559837 23.919299 
L 38.588907 25.783354 
L 38.617977 27.647409 
L 38.647046 29.511463 
L 38.676116 31.375518 
L 38.705186 33.239573 
L 38.734256 35.103628 
L 38.763326 36.967682 
L 38.792396 38.831737 
L 38.821466 40.695792 
L 38.850535 42.559847 
L 38.879605 44.423901 
L 38.904465 46.007154 
L 38.929325 47.590406 
L 38.954184 49.173658 
L 38.979044 50.75691 
L 38.994013 51.718044 
L 39.008983 52.679178 
L 39.023952 53.640312 
L 39.038921 54.601446 
L 39.053891 55.56258 
L 39.06886 56.523714 
L 39.083829 57.484847 
L 39.098799 58.445981 
L 39.113768 59.407115 
L 39.128737 60.368249 
L 39.143706 61.329383 
L 39.158676 62.290517 
L 39.173645 63.251651 
L 39.188614 64.212785 
L 39.203584 65.173918 
L 39.218553 66.135052 
" style="fill:none;stroke:#008000;stroke-linecap:square;stroke-width:0.460014;"/>
   </g>
   <g id="line2d_23">
    <path clip-path="url(#pbb983d0bf0)" d="M 38.879605 44.423901 
L 40.060576 44.986037 
L 41.241547 45.548173 
L 42.422518 46.110309 
L 43.603489 46.672445 
L 44.78446 47.234581 
L 45.965431 47.796717 
L 47.146402 48.358853 
L 48.327373 48.920989 
" style="fill:none;stroke:#008000;stroke-linecap:square;stroke-width:0.460014;"/>
   </g>
   <g id="line2d_24">
    <path clip-path="url(#pbb983d0bf0)" d="M 31.646225 13.901177 
L 31.622368 15.379151 
L 31.59851 16.857124 
L 31.574653 18.335097 
L 31.550796 19.813071 
L 31.526938 21.291044 
L 31.503081 22.769017 
L 31.479224 24.246991 
L 31.455367 25.724964 
L 31.431509 27.202937 
L 31.407652 28.680911 
L 31.383795 30.158884 
L 31.359937 31.636857 
L 31.33608 33.114831 
L 31.312223 34.592804 
L 31.288365 36.070778 
L 31.264508 37.548751 
L 31.247801 38.587915 
L 31.231094 39.627079 
L 31.214387 40.666243 
L 31.197681 41.705407 
L 31.180974 42.744571 
L 31.164267 43.783735 
L 31.14756 44.822899 
L 31.130853 45.862064 
" style="fill:none;stroke:#008000;stroke-linecap:square;stroke-width:0.460014;"/>
   </g>
   <g id="line2d_25">
    <path clip-path="url(#pbb983d0bf0)" d="M 31.130853 45.862064 
L 32.111877 46.473919 
L 33.092901 47.085775 
L 34.073925 47.697631 
L 35.054949 48.309487 
L 36.035973 48.921343 
L 37.016996 49.533199 
L 37.99802 50.145054 
L 38.979044 50.75691 
" style="fill:none;stroke:#008000;stroke-linecap:square;stroke-width:0.460014;"/>
   </g>
   <g id="line2d_26">
    <path clip-path="url(#pbb983d0bf0)" d="M 31.130853 45.862064 
L 31.105726 47.259883 
L 31.080599 48.657703 
L 31.055472 50.055523 
L 31.030345 51.453343 
L 31.005218 52.851163 
L 30.980091 54.248983 
L 30.954964 55.646803 
L 30.929837 57.044623 
L 30.90471 58.442443 
L 30.879583 59.840262 
L 30.854456 61.238082 
L 30.829329 62.635902 
L 30.804202 64.033722 
L 30.779075 65.431542 
L 30.753948 66.829362 
L 30.728821 68.227182 
" style="fill:none;stroke:#008000;stroke-linecap:square;stroke-width:0.460014;"/>
   </g>
   <g id="line2d_27">
    <path clip-path="url(#pbb983d0bf0)" d="M 26.599432 14.961397 
L 26.019973 15.886701 
L 25.440514 16.812004 
L 24.861055 17.737308 
L 24.281596 18.662612 
L 23.702137 19.587915 
L 23.122678 20.513219 
L 22.543219 21.438523 
L 21.96376 22.363827 
L 21.384301 23.28913 
L 20.804842 24.214434 
L 20.225384 25.139738 
L 19.645925 26.065041 
L 19.066466 26.990345 
L 18.487007 27.915649 
L 17.907548 28.840952 
L 17.328089 29.766256 
" style="fill:none;stroke:#008000;stroke-linecap:square;stroke-width:0.460014;"/>
   </g>
   <g id="line2d_28">
    <path clip-path="url(#pbb983d0bf0)" d="M 17.328089 29.766256 
L 18.199115 30.252662 
L 19.070141 30.739068 
L 19.941167 31.225474 
L 20.812193 31.71188 
L 21.68322 32.198286 
L 22.554246 32.684692 
L 23.425272 33.171098 
L 24.296298 33.657503 
L 25.167324 34.143909 
L 26.038351 34.630315 
L 26.909377 35.116721 
L 27.780403 35.603127 
L 28.651429 36.089533 
L 29.522456 36.575939 
L 30.393482 37.062345 
L 31.264508 37.548751 
" style="fill:none;stroke:#008000;stroke-linecap:square;stroke-width:0.460014;"/>
   </g>
   <g id="line2d_29">
    <path clip-path="url(#pbb983d0bf0)" d="M 17.328089 29.766256 
L 17.136762 31.180089 
L 16.945436 32.593922 
L 16.75411 34.007755 
L 16.562783 35.421588 
L 16.371457 36.83542 
L 16.18013 38.249253 
L 15.988804 39.663086 
L 15.797478 41.076919 
L 15.606151 42.490752 
L 15.414825 43.904585 
L 15.223498 45.318418 
L 15.032172 46.732251 
L 14.840846 48.146084 
L 14.649519 49.559916 
L 14.458193 50.973749 
L 14.266867 52.387582 
" style="fill:none;stroke:#008000;stroke-linecap:square;stroke-width:0.460014;"/>
   </g>
   <g id="line2d_30">
    <path clip-path="url(#pbb983d0bf0)" d="M 14.266867 52.387582 
L 14.771947 53.486375 
L 15.277027 54.585167 
L 15.782107 55.68396 
L 16.287188 56.782753 
L 16.792268 57.881545 
L 17.297348 58.980338 
L 17.802428 60.07913 
L 18.307509 61.177923 
L 18.812589 62.276716 
L 19.317669 63.375508 
L 19.822749 64.474301 
L 20.32783 65.573093 
L 20.83291 66.671886 
L 21.33799 67.770679 
L 21.84307 68.869471 
L 22.348151 69.968264 
" style="fill:none;stroke:#008000;stroke-linecap:square;stroke-width:0.460014;"/>
   </g>
   <g id="line2d_31">
    <path clip-path="url(#pbb983d0bf0)" d="M 17.328089 29.766256 
L 15.683604 30.173216 
L 14.039119 30.580176 
L 12.848793 31.709403 
L 11.658466 32.838629 
L 10.468139 33.967855 
L 9.277812 35.097081 
L 8.087486 36.226307 
L 6.897159 37.355533 
L 5.706832 38.484759 
L 4.516505 39.613986 
L 4.530673 40.715609 
L 4.54484 41.817233 
L 4.559008 42.918856 
L 4.573175 44.02048 
L 4.731021 45.101225 
L 4.888867 46.18197 
L 5.046713 47.262714 
L 5.204559 48.343459 
L 5.362405 49.424204 
L 5.520251 50.504949 
L 5.678096 51.585694 
L 5.835942 52.666438 
L 6.44113 54.351608 
L 7.046317 56.036777 
L 7.918814 57.472816 
L 8.79131 58.908854 
" style="fill:none;stroke:#008000;stroke-linecap:square;stroke-width:0.460014;"/>
   </g>
   <g id="line2d_32">
    <path clip-path="url(#pbb983d0bf0)" d="M 8.79131 58.908854 
L 9.982706 60.360818 
L 11.174102 61.812781 
L 12.365498 63.264744 
L 13.556894 64.716707 
L 14.655801 65.373152 
L 15.754708 66.029597 
L 16.853615 66.686041 
L 17.952522 67.342486 
L 19.051429 67.99893 
L 20.150337 68.655375 
L 21.249244 69.311819 
L 22.348151 69.968264 
" style="fill:none;stroke:#008000;stroke-linecap:square;stroke-width:0.460014;"/>
   </g>
   <g id="line2d_33">
    <path clip-path="url(#pbb983d0bf0)" d="M 54.162192 12.700821 
L 55.196611 12.699671 
L 56.23103 12.698521 
L 57.265449 12.697371 
L 58.299868 12.696221 
L 59.334286 12.695071 
L 60.368705 12.693921 
L 61.403124 12.692771 
L 62.437543 12.691621 
L 63.471962 12.690471 
L 64.50638 12.68932 
L 65.540799 12.68817 
L 66.575218 12.68702 
L 67.609637 12.68587 
L 68.644056 12.68472 
L 69.678474 12.68357 
L 70.712893 12.68242 
L 72.11573 12.681004 
L 73.518568 12.679589 
L 74.527258 12.678527 
L 75.535948 12.677465 
L 76.544639 12.676404 
L 77.553329 12.675342 
L 78.562019 12.674281 
L 79.57071 12.673219 
L 80.5794 12.672157 
L 81.58809 12.671096 
L 83.210656 12.669326 
L 84.833221 12.667557 
L 86.455786 12.665788 
L 88.078352 12.664018 
" style="fill:none;stroke:#008000;stroke-linecap:square;stroke-width:0.460014;"/>
   </g>
   <g id="line2d_34">
    <path clip-path="url(#pbb983d0bf0)" d="M 70.712893 12.68242 
L 69.978061 13.981861 
L 69.243229 15.281303 
L 68.508396 16.580745 
L 67.773564 17.880187 
L 67.038732 19.179628 
L 66.303899 20.47907 
L 65.569067 21.778512 
L 64.834235 23.077953 
L 64.4314 24.122249 
L 64.028566 25.166544 
L 63.625731 26.210839 
L 63.222896 27.255134 
L 63.524956 28.72373 
L 63.827015 30.192326 
L 64.380879 31.546618 
L 64.934743 32.900911 
L 65.488607 34.255204 
L 66.042471 35.609497 
L 65.99195 37.485761 
L 65.941428 39.362024 
L 65.890907 41.238288 
L 65.840386 43.114551 
L 65.736937 44.467429 
L 65.633488 45.820306 
L 65.53004 47.173183 
L 65.426591 48.526061 
L 65.370991 49.249388 
L 65.330761 51.082125 
L 65.290531 52.914861 
L 65.250301 54.747598 
L 65.210071 56.580334 
L 65.169841 58.413071 
L 65.129611 60.245807 
L 65.089381 62.078544 
L 65.049151 63.91128 
" style="fill:none;stroke:#008000;stroke-linecap:square;stroke-width:0.460014;"/>
   </g>
   <g id="line2d_35">
    <path clip-path="url(#pbb983d0bf0)" d="M 73.518568 12.679589 
L 73.499322 13.921702 
L 73.480075 15.163816 
L 73.414852 16.078237 
L 73.302048 17.648396 
L 73.189243 19.218555 
L 73.076439 20.788714 
L 72.963634 22.358872 
L 72.662511 23.523132 
L 72.361387 24.687392 
L 72.060264 25.851653 
L 71.75914 27.015913 
L 71.458017 28.180173 
L 71.156893 29.344433 
L 70.85577 30.508693 
L 70.554646 31.672953 
L 69.426602 32.657089 
L 68.298559 33.641225 
L 67.170515 34.625361 
L 66.042471 35.609497 
" style="fill:none;stroke:#008000;stroke-linecap:square;stroke-width:0.460014;"/>
   </g>
   <g id="line2d_36">
    <path clip-path="url(#pbb983d0bf0)" d="M 73.414852 16.078237 
L 74.133913 17.052111 
L 74.852974 18.025984 
L 75.91125 18.856537 
L 76.969526 19.68709 
L 78.027802 20.517643 
L 79.086079 21.348195 
L 79.624439 22.717705 
L 80.162799 24.087215 
L 79.96205 25.39798 
L 79.761301 26.708746 
L 79.560552 28.019512 
L 79.359803 29.330278 
L 79.28803 30.557351 
L 79.216258 31.784425 
L 79.144486 33.011498 
L 79.072713 34.238572 
L 79.000941 35.465645 
L 78.929168 36.692719 
L 78.857396 37.919792 
L 78.785623 39.146866 
L 79.00054 40.748874 
L 79.215456 42.350882 
L 79.430372 43.952889 
L 79.645289 45.554897 
L 79.724813 46.590168 
L 79.804338 47.62544 
L 79.883862 48.660711 
L 79.963387 49.695983 
L 80.042911 50.731254 
L 80.122435 51.766526 
L 80.20196 52.801797 
L 80.281484 53.837068 
L 80.361009 54.87234 
L 80.440533 55.907611 
L 80.520057 56.942883 
L 80.599582 57.978154 
L 80.679106 59.013425 
L 80.758631 60.048697 
L 80.838155 61.083968 
L 80.917679 62.11924 
" style="fill:none;stroke:#008000;stroke-linecap:square;stroke-width:0.460014;"/>
   </g>
   <g id="line2d_37">
    <path clip-path="url(#pbb983d0bf0)" d="M 81.58809 12.671096 
L 81.792983 14.33981 
L 81.997875 16.008523 
L 82.202767 17.677237 
L 82.40766 19.345951 
L 82.612552 21.014665 
L 82.817444 22.683379 
L 83.022336 24.352093 
L 83.227229 26.020806 
L 83.432121 27.68952 
L 83.637013 29.358234 
L 83.841906 31.026948 
L 84.046798 32.695662 
L 84.25169 34.364376 
L 84.456583 36.033089 
L 84.661475 37.701803 
L 84.866367 39.370517 
L 85.110086 40.684645 
L 85.353805 41.998772 
L 85.597524 43.3129 
L 85.841243 44.627028 
L 86.084962 45.941155 
L 86.328681 47.255283 
L 86.5724 48.569411 
L 86.816119 49.883538 
L 87.059838 51.197666 
L 87.303557 52.511794 
L 87.547275 53.825921 
L 87.790994 55.140049 
L 88.034713 56.454176 
L 88.278432 57.768304 
L 88.522151 59.082432 
L 88.76587 60.396559 
" style="fill:none;stroke:#008000;stroke-linecap:square;stroke-width:0.460014;"/>
   </g>
   <g id="line2d_38">
    <path clip-path="url(#pbb983d0bf0)" d="M 88.078352 12.664018 
L 88.594258 13.550838 
L 89.110164 14.437657 
L 89.289428 15.825082 
L 89.468692 17.212506 
L 89.647956 18.599931 
L 89.82722 19.987356 
L 90.006484 21.37478 
L 90.185748 22.762205 
L 90.365013 24.14963 
L 90.544277 25.537055 
L 90.723541 26.924479 
L 90.902805 28.311904 
L 91.082069 29.699329 
L 91.261333 31.086753 
L 91.440597 32.474178 
L 91.619861 33.861603 
L 91.799125 35.249028 
L 91.978389 36.636452 
L 92.157653 38.023877 
L 92.336917 39.411302 
L 92.516181 40.798726 
L 92.695445 42.186151 
L 92.874709 43.573576 
L 93.053973 44.961001 
L 93.233238 46.348425 
L 93.412502 47.73585 
L 93.591766 49.123275 
L 93.77103 50.510699 
L 93.950294 51.898124 
L 94.129558 53.285549 
L 94.308822 54.672973 
L 94.488086 56.060398 
L 94.66735 57.447823 
L 94.846614 58.835248 
" style="fill:none;stroke:#008000;stroke-linecap:square;stroke-width:0.460014;"/>
   </g>
   <g id="line2d_39">
    <path clip-path="url(#pbb983d0bf0)" d="M 70.379292 57.497587 
L 70.290812 59.222037 
L 70.202333 60.946486 
L 70.113854 62.670936 
L 70.025374 64.395386 
" style="fill:none;stroke:#008000;stroke-linecap:square;stroke-width:0.460014;"/>
   </g>
   <g id="line2d_40">
    <path clip-path="url(#pbb983d0bf0)" d="M 65.426591 48.526061 
L 64.267673 49.181443 
L 63.108755 49.836826 
L 61.949838 50.492209 
L 60.79092 51.147592 
L 59.632002 51.802975 
L 58.473084 52.458358 
L 57.314166 53.113741 
L 56.155248 53.769124 
" style="fill:none;stroke:#008000;stroke-linecap:square;stroke-width:0.460014;"/>
   </g>
   <g id="line2d_41">
    <path clip-path="url(#pbb983d0bf0)" d="M 70.909632 48.657703 
L 70.84334 49.762689 
L 70.777047 50.867674 
L 70.710755 51.97266 
L 70.644462 53.077645 
L 70.578169 54.182631 
L 70.511877 55.287616 
L 70.445584 56.392602 
L 70.379292 57.497587 
" style="fill:none;stroke:#008000;stroke-linecap:square;stroke-width:0.460014;"/>
   </g>
   <g id="line2d_42">
    <path clip-path="url(#pbb983d0bf0)" d="M 76.060141 63.131332 
L 76.070165 61.337168 
L 76.080189 59.543005 
L 76.090214 57.748841 
L 76.100238 55.954677 
L 76.110262 54.160513 
L 76.120286 52.366349 
L 76.13031 50.572186 
L 76.140334 48.778022 
" style="fill:none;stroke:#008000;stroke-linecap:square;stroke-width:0.460014;"/>
   </g>
   <g id="text_1">
    <g id="patch_2">
     <path d="M 27.468465 62.974807 
L 27.738012 48.797995 
L 25.762744 48.760438 
L 25.493197 62.937251 
z
" style="fill:#ffffff;"/>
    </g>
    <!-- Mohawk Chair -->
    <g style="fill:#808080;" transform="translate(27.032987 62.946524)rotate(-88.910755)scale(0.02 -0.02)">
     <defs>
      <path d="M 628 4666 
L 1569 4666 
L 2759 1491 
L 3956 4666 
L 4897 4666 
L 4897 0 
L 4281 0 
L 4281 4097 
L 3078 897 
L 2444 897 
L 1241 4097 
L 1241 0 
L 628 0 
L 628 4666 
z
" id="DejaVuSans-4d" transform="scale(0.015625)"/>
      <path d="M 1959 3097 
Q 1497 3097 1228 2736 
Q 959 2375 959 1747 
Q 959 1119 1226 758 
Q 1494 397 1959 397 
Q 2419 397 2687 759 
Q 2956 1122 2956 1747 
Q 2956 2369 2687 2733 
Q 2419 3097 1959 3097 
z
M 1959 3584 
Q 2709 3584 3137 3096 
Q 3566 2609 3566 1747 
Q 3566 888 3137 398 
Q 2709 -91 1959 -91 
Q 1206 -91 779 398 
Q 353 888 353 1747 
Q 353 2609 779 3096 
Q 1206 3584 1959 3584 
z
" id="DejaVuSans-6f" transform="scale(0.015625)"/>
      <path d="M 3513 2113 
L 3513 0 
L 2938 0 
L 2938 2094 
Q 2938 2591 2744 2837 
Q 2550 3084 2163 3084 
Q 1697 3084 1428 2787 
Q 1159 2491 1159 1978 
L 1159 0 
L 581 0 
L 581 4863 
L 1159 4863 
L 1159 2956 
Q 1366 3272 1645 3428 
Q 1925 3584 2291 3584 
Q 2894 3584 3203 3211 
Q 3513 2838 3513 2113 
z
" id="DejaVuSans-68" transform="scale(0.015625)"/>
      <path d="M 2194 1759 
Q 1497 1759 1228 1600 
Q 959 1441 959 1056 
Q 959 750 1161 570 
Q 1363 391 1709 391 
Q 2188 391 2477 730 
Q 2766 1069 2766 1631 
L 2766 1759 
L 2194 1759 
z
M 3341 1997 
L 3341 0 
L 2766 0 
L 2766 531 
Q 2569 213 2275 61 
Q 1981 -91 1556 -91 
Q 1019 -91 701 211 
Q 384 513 384 1019 
Q 384 1609 779 1909 
Q 1175 2209 1959 2209 
L 2766 2209 
L 2766 2266 
Q 2766 2663 2505 2880 
Q 2244 3097 1772 3097 
Q 1472 3097 1187 3025 
Q 903 2953 641 2809 
L 641 3341 
Q 956 3463 1253 3523 
Q 1550 3584 1831 3584 
Q 2591 3584 2966 3190 
Q 3341 2797 3341 1997 
z
" id="DejaVuSans-61" transform="scale(0.015625)"/>
      <path d="M 269 3500 
L 844 3500 
L 1563 769 
L 2278 3500 
L 2956 3500 
L 3675 769 
L 4391 3500 
L 4966 3500 
L 4050 0 
L 3372 0 
L 2619 2869 
L 1863 0 
L 1184 0 
L 269 3500 
z
" id="DejaVuSans-77" transform="scale(0.015625)"/>
      <path d="M 581 4863 
L 1159 4863 
L 1159 1991 
L 2875 3500 
L 3609 3500 
L 1753 1863 
L 3688 0 
L 2938 0 
L 1159 1709 
L 1159 0 
L 581 0 
L 581 4863 
z
" id="DejaVuSans-6b" transform="scale(0.015625)"/>
      <path id="DejaVuSans-20" transform="scale(0.015625)"/>
      <path d="M 4122 4306 
L 4122 3641 
Q 3803 3938 3442 4084 
Q 3081 4231 2675 4231 
Q 1875 4231 1450 3742 
Q 1025 3253 1025 2328 
Q 1025 1406 1450 917 
Q 1875 428 2675 428 
Q 3081 428 3442 575 
Q 3803 722 4122 1019 
L 4122 359 
Q 3791 134 3420 21 
Q 3050 -91 2638 -91 
Q 1578 -91 968 557 
Q 359 1206 359 2328 
Q 359 3453 968 4101 
Q 1578 4750 2638 4750 
Q 3056 4750 3426 4639 
Q 3797 4528 4122 4306 
z
" id="DejaVuSans-43" transform="scale(0.015625)"/>
      <path d="M 603 3500 
L 1178 3500 
L 1178 0 
L 603 0 
L 603 3500 
z
M 603 4863 
L 1178 4863 
L 1178 4134 
L 603 4134 
L 603 4863 
z
" id="DejaVuSans-69" transform="scale(0.015625)"/>
      <path d="M 2631 2963 
Q 2534 3019 2420 3045 
Q 2306 3072 2169 3072 
Q 1681 3072 1420 2755 
Q 1159 2438 1159 1844 
L 1159 0 
L 581 0 
L 581 3500 
L 1159 3500 
L 1159 2956 
Q 1341 3275 1631 3429 
Q 1922 3584 2338 3584 
Q 2397 3584 2469 3576 
Q 2541 3569 2628 3553 
L 2631 2963 
z
" id="DejaVuSans-72" transform="scale(0.015625)"/>
     </defs>
     <use xlink:href="#DejaVuSans-4d"/>
     <use x="86.279297" xlink:href="#DejaVuSans-6f"/>
     <use x="147.460938" xlink:href="#DejaVuSans-68"/>
     <use x="210.839844" xlink:href="#DejaVuSans-61"/>
     <use x="272.119141" xlink:href="#DejaVuSans-77"/>
     <use x="353.90625" xlink:href="#DejaVuSans-6b"/>
     <use x="411.816406" xlink:href="#DejaVuSans-20"/>
     <use x="443.603516" xlink:href="#DejaVuSans-43"/>
     <use x="513.427734" xlink:href="#DejaVuSans-68"/>
     <use x="576.806641" xlink:href="#DejaVuSans-61"/>
     <use x="638.085938" xlink:href="#DejaVuSans-69"/>
     <use x="665.869141" xlink:href="#DejaVuSans-72"/>
    </g>
   </g>
   <g id="text_2">
    <g id="patch_3">
     <path d="M 36.505744 59.395425 
L 36.75016 47.701416 
L 34.774967 47.660133 
L 34.530551 59.354141 
z
" style="fill:#ffffff;"/>
    </g>
    <!-- Super Glide -->
    <g style="fill:#808080;" transform="translate(36.07032 59.366319)rotate(-88.802638)scale(0.02 -0.02)">
     <defs>
      <path d="M 3425 4513 
L 3425 3897 
Q 3066 4069 2747 4153 
Q 2428 4238 2131 4238 
Q 1616 4238 1336 4038 
Q 1056 3838 1056 3469 
Q 1056 3159 1242 3001 
Q 1428 2844 1947 2747 
L 2328 2669 
Q 3034 2534 3370 2195 
Q 3706 1856 3706 1288 
Q 3706 609 3251 259 
Q 2797 -91 1919 -91 
Q 1588 -91 1214 -16 
Q 841 59 441 206 
L 441 856 
Q 825 641 1194 531 
Q 1563 422 1919 422 
Q 2459 422 2753 634 
Q 3047 847 3047 1241 
Q 3047 1584 2836 1778 
Q 2625 1972 2144 2069 
L 1759 2144 
Q 1053 2284 737 2584 
Q 422 2884 422 3419 
Q 422 4038 858 4394 
Q 1294 4750 2059 4750 
Q 2388 4750 2728 4690 
Q 3069 4631 3425 4513 
z
" id="DejaVuSans-53" transform="scale(0.015625)"/>
      <path d="M 544 1381 
L 544 3500 
L 1119 3500 
L 1119 1403 
Q 1119 906 1312 657 
Q 1506 409 1894 409 
Q 2359 409 2629 706 
Q 2900 1003 2900 1516 
L 2900 3500 
L 3475 3500 
L 3475 0 
L 2900 0 
L 2900 538 
Q 2691 219 2414 64 
Q 2138 -91 1772 -91 
Q 1169 -91 856 284 
Q 544 659 544 1381 
z
M 1991 3584 
L 1991 3584 
z
" id="DejaVuSans-75" transform="scale(0.015625)"/>
      <path d="M 1159 525 
L 1159 -1331 
L 581 -1331 
L 581 3500 
L 1159 3500 
L 1159 2969 
Q 1341 3281 1617 3432 
Q 1894 3584 2278 3584 
Q 2916 3584 3314 3078 
Q 3713 2572 3713 1747 
Q 3713 922 3314 415 
Q 2916 -91 2278 -91 
Q 1894 -91 1617 61 
Q 1341 213 1159 525 
z
M 3116 1747 
Q 3116 2381 2855 2742 
Q 2594 3103 2138 3103 
Q 1681 3103 1420 2742 
Q 1159 2381 1159 1747 
Q 1159 1113 1420 752 
Q 1681 391 2138 391 
Q 2594 391 2855 752 
Q 3116 1113 3116 1747 
z
" id="DejaVuSans-70" transform="scale(0.015625)"/>
      <path d="M 3597 1894 
L 3597 1613 
L 953 1613 
Q 991 1019 1311 708 
Q 1631 397 2203 397 
Q 2534 397 2845 478 
Q 3156 559 3463 722 
L 3463 178 
Q 3153 47 2828 -22 
Q 2503 -91 2169 -91 
Q 1331 -91 842 396 
Q 353 884 353 1716 
Q 353 2575 817 3079 
Q 1281 3584 2069 3584 
Q 2775 3584 3186 3129 
Q 3597 2675 3597 1894 
z
M 3022 2063 
Q 3016 2534 2758 2815 
Q 2500 3097 2075 3097 
Q 1594 3097 1305 2825 
Q 1016 2553 972 2059 
L 3022 2063 
z
" id="DejaVuSans-65" transform="scale(0.015625)"/>
      <path d="M 3809 666 
L 3809 1919 
L 2778 1919 
L 2778 2438 
L 4434 2438 
L 4434 434 
Q 4069 175 3628 42 
Q 3188 -91 2688 -91 
Q 1594 -91 976 548 
Q 359 1188 359 2328 
Q 359 3472 976 4111 
Q 1594 4750 2688 4750 
Q 3144 4750 3555 4637 
Q 3966 4525 4313 4306 
L 4313 3634 
Q 3963 3931 3569 4081 
Q 3175 4231 2741 4231 
Q 1884 4231 1454 3753 
Q 1025 3275 1025 2328 
Q 1025 1384 1454 906 
Q 1884 428 2741 428 
Q 3075 428 3337 486 
Q 3600 544 3809 666 
z
" id="DejaVuSans-47" transform="scale(0.015625)"/>
      <path d="M 603 4863 
L 1178 4863 
L 1178 0 
L 603 0 
L 603 4863 
z
" id="DejaVuSans-6c" transform="scale(0.015625)"/>
      <path d="M 2906 2969 
L 2906 4863 
L 3481 4863 
L 3481 0 
L 2906 0 
L 2906 525 
Q 2725 213 2448 61 
Q 2172 -91 1784 -91 
Q 1150 -91 751 415 
Q 353 922 353 1747 
Q 353 2572 751 3078 
Q 1150 3584 1784 3584 
Q 2172 3584 2448 3432 
Q 2725 3281 2906 2969 
z
M 947 1747 
Q 947 1113 1208 752 
Q 1469 391 1925 391 
Q 2381 391 2643 752 
Q 2906 1113 2906 1747 
Q 2906 2381 2643 2742 
Q 2381 3103 1925 3103 
Q 1469 3103 1208 2742 
Q 947 2381 947 1747 
z
" id="DejaVuSans-64" transform="scale(0.015625)"/>
     </defs>
     <use xlink:href="#DejaVuSans-53"/>
     <use x="63.476562" xlink:href="#DejaVuSans-75"/>
     <use x="126.855469" xlink:href="#DejaVuSans-70"/>
     <use x="190.332031" xlink:href="#DejaVuSans-65"/>
     <use x="251.855469" xlink:href="#DejaVuSans-72"/>
     <use x="292.96875" xlink:href="#DejaVuSans-20"/>
     <use x="324.755859" xlink:href="#DejaVuSans-47"/>
     <use x="402.246094" xlink:href="#DejaVuSans-6c"/>
     <use x="430.029297" xlink:href="#DejaVuSans-69"/>
     <use x="457.8125" xlink:href="#DejaVuSans-64"/>
     <use x="521.289062" xlink:href="#DejaVuSans-65"/>
    </g>
   </g>
   <g id="text_3">
    <g id="patch_4">
     <path d="M 42.136984 53.577184 
L 43.214056 65.545066 
L 45.181729 65.367981 
L 44.104656 53.4001 
z
" style="fill:#ffffff;"/>
    </g>
    <!-- Lodge Chair -->
    <g style="fill:#808080;" transform="translate(42.572959 53.558029)rotate(-275.14259)scale(0.02 -0.02)">
     <defs>
      <path d="M 628 4666 
L 1259 4666 
L 1259 531 
L 3531 531 
L 3531 0 
L 628 0 
L 628 4666 
z
" id="DejaVuSans-4c" transform="scale(0.015625)"/>
      <path d="M 2906 1791 
Q 2906 2416 2648 2759 
Q 2391 3103 1925 3103 
Q 1463 3103 1205 2759 
Q 947 2416 947 1791 
Q 947 1169 1205 825 
Q 1463 481 1925 481 
Q 2391 481 2648 825 
Q 2906 1169 2906 1791 
z
M 3481 434 
Q 3481 -459 3084 -895 
Q 2688 -1331 1869 -1331 
Q 1566 -1331 1297 -1286 
Q 1028 -1241 775 -1147 
L 775 -588 
Q 1028 -725 1275 -790 
Q 1522 -856 1778 -856 
Q 2344 -856 2625 -561 
Q 2906 -266 2906 331 
L 2906 616 
Q 2728 306 2450 153 
Q 2172 0 1784 0 
Q 1141 0 747 490 
Q 353 981 353 1791 
Q 353 2603 747 3093 
Q 1141 3584 1784 3584 
Q 2172 3584 2450 3431 
Q 2728 3278 2906 2969 
L 2906 3500 
L 3481 3500 
L 3481 434 
z
" id="DejaVuSans-67" transform="scale(0.015625)"/>
     </defs>
     <use xlink:href="#DejaVuSans-4c"/>
     <use x="53.962891" xlink:href="#DejaVuSans-6f"/>
     <use x="115.144531" xlink:href="#DejaVuSans-64"/>
     <use x="178.621094" xlink:href="#DejaVuSans-67"/>
     <use x="242.097656" xlink:href="#DejaVuSans-65"/>
     <use x="303.621094" xlink:href="#DejaVuSans-20"/>
     <use x="335.408203" xlink:href="#DejaVuSans-43"/>
     <use x="405.232422" xlink:href="#DejaVuSans-68"/>
     <use x="468.611328" xlink:href="#DejaVuSans-61"/>
     <use x="529.890625" xlink:href="#DejaVuSans-69"/>
     <use x="557.673828" xlink:href="#DejaVuSans-72"/>
    </g>
   </g>
   <g id="text_4">
    <g id="patch_5">
     <path d="M 48.85266 47.306791 
L 51.490251 58.584974 
L 53.413969 58.135081 
L 50.776378 46.856897 
z
" style="fill:#ffffff;"/>
    </g>
    <!-- Valley Flyer -->
    <g style="fill:#808080;" transform="translate(49.281698 47.226993)rotate(-283.162999)scale(0.02 -0.02)">
     <defs>
      <path d="M 1831 0 
L 50 4666 
L 709 4666 
L 2188 738 
L 3669 4666 
L 4325 4666 
L 2547 0 
L 1831 0 
z
" id="DejaVuSans-56" transform="scale(0.015625)"/>
      <path d="M 2059 -325 
Q 1816 -950 1584 -1140 
Q 1353 -1331 966 -1331 
L 506 -1331 
L 506 -850 
L 844 -850 
Q 1081 -850 1212 -737 
Q 1344 -625 1503 -206 
L 1606 56 
L 191 3500 
L 800 3500 
L 1894 763 
L 2988 3500 
L 3597 3500 
L 2059 -325 
z
" id="DejaVuSans-79" transform="scale(0.015625)"/>
      <path d="M 628 4666 
L 3309 4666 
L 3309 4134 
L 1259 4134 
L 1259 2759 
L 3109 2759 
L 3109 2228 
L 1259 2228 
L 1259 0 
L 628 0 
L 628 4666 
z
" id="DejaVuSans-46" transform="scale(0.015625)"/>
     </defs>
     <use xlink:href="#DejaVuSans-56"/>
     <use x="60.658203" xlink:href="#DejaVuSans-61"/>
     <use x="121.9375" xlink:href="#DejaVuSans-6c"/>
     <use x="149.720703" xlink:href="#DejaVuSans-6c"/>
     <use x="177.503906" xlink:href="#DejaVuSans-65"/>
     <use x="239.027344" xlink:href="#DejaVuSans-79"/>
     <use x="298.207031" xlink:href="#DejaVuSans-20"/>
     <use x="329.994141" xlink:href="#DejaVuSans-46"/>
     <use x="387.513672" xlink:href="#DejaVuSans-6c"/>
     <use x="415.296875" xlink:href="#DejaVuSans-79"/>
     <use x="474.476562" xlink:href="#DejaVuSans-65"/>
     <use x="536" xlink:href="#DejaVuSans-72"/>
    </g>
   </g>
   <g id="text_5">
    <g id="patch_6">
     <path d="M 56.953322 46.178714 
L 59.004122 55.248498 
L 60.9311 54.812782 
L 58.8803 45.742998 
z
" style="fill:#ffffff;"/>
    </g>
    <!-- E-Z Rider -->
    <g style="fill:#808080;" transform="translate(57.382936 46.102078)rotate(-282.741093)scale(0.02 -0.02)">
     <defs>
      <path d="M 628 4666 
L 3578 4666 
L 3578 4134 
L 1259 4134 
L 1259 2753 
L 3481 2753 
L 3481 2222 
L 1259 2222 
L 1259 531 
L 3634 531 
L 3634 0 
L 628 0 
L 628 4666 
z
" id="DejaVuSans-45" transform="scale(0.015625)"/>
      <path d="M 313 2009 
L 1997 2009 
L 1997 1497 
L 313 1497 
L 313 2009 
z
" id="DejaVuSans-2d" transform="scale(0.015625)"/>
      <path d="M 359 4666 
L 4025 4666 
L 4025 4184 
L 1075 531 
L 4097 531 
L 4097 0 
L 288 0 
L 288 481 
L 3238 4134 
L 359 4134 
L 359 4666 
z
" id="DejaVuSans-5a" transform="scale(0.015625)"/>
      <path d="M 2841 2188 
Q 3044 2119 3236 1894 
Q 3428 1669 3622 1275 
L 4263 0 
L 3584 0 
L 2988 1197 
Q 2756 1666 2539 1819 
Q 2322 1972 1947 1972 
L 1259 1972 
L 1259 0 
L 628 0 
L 628 4666 
L 2053 4666 
Q 2853 4666 3247 4331 
Q 3641 3997 3641 3322 
Q 3641 2881 3436 2590 
Q 3231 2300 2841 2188 
z
M 1259 4147 
L 1259 2491 
L 2053 2491 
Q 2509 2491 2742 2702 
Q 2975 2913 2975 3322 
Q 2975 3731 2742 3939 
Q 2509 4147 2053 4147 
L 1259 4147 
z
" id="DejaVuSans-52" transform="scale(0.015625)"/>
     </defs>
     <use xlink:href="#DejaVuSans-45"/>
     <use x="63.183594" xlink:href="#DejaVuSans-2d"/>
     <use x="99.267578" xlink:href="#DejaVuSans-5a"/>
     <use x="167.773438" xlink:href="#DejaVuSans-20"/>
     <use x="199.560547" xlink:href="#DejaVuSans-52"/>
     <use x="269.042969" xlink:href="#DejaVuSans-69"/>
     <use x="296.826172" xlink:href="#DejaVuSans-64"/>
     <use x="360.302734" xlink:href="#DejaVuSans-65"/>
     <use x="421.826172" xlink:href="#DejaVuSans-72"/>
    </g>
   </g>
   <g id="text_6">
    <g id="patch_7">
     <path d="M 77.54759 29.744676 
L 82.994789 50.162417 
L 84.903649 49.653157 
L 79.45645 29.235416 
z
" style="fill:#ffffff;"/>
    </g>
    <!-- First Adventure Chair -->
    <g style="fill:#808080;" transform="translate(77.97395 29.651628)rotate(-284.937883)scale(0.02 -0.02)">
     <defs>
      <path d="M 2834 3397 
L 2834 2853 
Q 2591 2978 2328 3040 
Q 2066 3103 1784 3103 
Q 1356 3103 1142 2972 
Q 928 2841 928 2578 
Q 928 2378 1081 2264 
Q 1234 2150 1697 2047 
L 1894 2003 
Q 2506 1872 2764 1633 
Q 3022 1394 3022 966 
Q 3022 478 2636 193 
Q 2250 -91 1575 -91 
Q 1294 -91 989 -36 
Q 684 19 347 128 
L 347 722 
Q 666 556 975 473 
Q 1284 391 1588 391 
Q 1994 391 2212 530 
Q 2431 669 2431 922 
Q 2431 1156 2273 1281 
Q 2116 1406 1581 1522 
L 1381 1569 
Q 847 1681 609 1914 
Q 372 2147 372 2553 
Q 372 3047 722 3315 
Q 1072 3584 1716 3584 
Q 2034 3584 2315 3537 
Q 2597 3491 2834 3397 
z
" id="DejaVuSans-73" transform="scale(0.015625)"/>
      <path d="M 1172 4494 
L 1172 3500 
L 2356 3500 
L 2356 3053 
L 1172 3053 
L 1172 1153 
Q 1172 725 1289 603 
Q 1406 481 1766 481 
L 2356 481 
L 2356 0 
L 1766 0 
Q 1100 0 847 248 
Q 594 497 594 1153 
L 594 3053 
L 172 3053 
L 172 3500 
L 594 3500 
L 594 4494 
L 1172 4494 
z
" id="DejaVuSans-74" transform="scale(0.015625)"/>
      <path d="M 2188 4044 
L 1331 1722 
L 3047 1722 
L 2188 4044 
z
M 1831 4666 
L 2547 4666 
L 4325 0 
L 3669 0 
L 3244 1197 
L 1141 1197 
L 716 0 
L 50 0 
L 1831 4666 
z
" id="DejaVuSans-41" transform="scale(0.015625)"/>
      <path d="M 191 3500 
L 800 3500 
L 1894 563 
L 2988 3500 
L 3597 3500 
L 2284 0 
L 1503 0 
L 191 3500 
z
" id="DejaVuSans-76" transform="scale(0.015625)"/>
      <path d="M 3513 2113 
L 3513 0 
L 2938 0 
L 2938 2094 
Q 2938 2591 2744 2837 
Q 2550 3084 2163 3084 
Q 1697 3084 1428 2787 
Q 1159 2491 1159 1978 
L 1159 0 
L 581 0 
L 581 3500 
L 1159 3500 
L 1159 2956 
Q 1366 3272 1645 3428 
Q 1925 3584 2291 3584 
Q 2894 3584 3203 3211 
Q 3513 2838 3513 2113 
z
" id="DejaVuSans-6e" transform="scale(0.015625)"/>
     </defs>
     <use xlink:href="#DejaVuSans-46"/>
     <use x="50.269531" xlink:href="#DejaVuSans-69"/>
     <use x="78.052734" xlink:href="#DejaVuSans-72"/>
     <use x="119.166016" xlink:href="#DejaVuSans-73"/>
     <use x="171.265625" xlink:href="#DejaVuSans-74"/>
     <use x="210.474609" xlink:href="#DejaVuSans-20"/>
     <use x="242.261719" xlink:href="#DejaVuSans-41"/>
     <use x="308.919922" xlink:href="#DejaVuSans-64"/>
     <use x="372.396484" xlink:href="#DejaVuSans-76"/>
     <use x="431.576172" xlink:href="#DejaVuSans-65"/>
     <use x="493.099609" xlink:href="#DejaVuSans-6e"/>
     <use x="556.478516" xlink:href="#DejaVuSans-74"/>
     <use x="595.6875" xlink:href="#DejaVuSans-75"/>
     <use x="659.066406" xlink:href="#DejaVuSans-72"/>
     <use x="697.929688" xlink:href="#DejaVuSans-65"/>
     <use x="759.453125" xlink:href="#DejaVuSans-20"/>
     <use x="791.240234" xlink:href="#DejaVuSans-43"/>
     <use x="861.064453" xlink:href="#DejaVuSans-68"/>
     <use x="924.443359" xlink:href="#DejaVuSans-61"/>
     <use x="985.722656" xlink:href="#DejaVuSans-69"/>
     <use x="1013.505859" xlink:href="#DejaVuSans-72"/>
    </g>
   </g>
   <g id="text_7">
    <g id="patch_8">
     <path d="M 86.796506 34.449496 
L 89.94338 51.448803 
L 91.886 51.08919 
L 88.739125 34.089882 
z
" style="fill:#ffffff;"/>
    </g>
    <!-- Valley View Chair -->
    <g style="fill:#808080;" transform="translate(87.228801 34.38981)rotate(-280.487744)scale(0.02 -0.02)">
     <use xlink:href="#DejaVuSans-56"/>
     <use x="60.658203" xlink:href="#DejaVuSans-61"/>
     <use x="121.9375" xlink:href="#DejaVuSans-6c"/>
     <use x="149.720703" xlink:href="#DejaVuSans-6c"/>
     <use x="177.503906" xlink:href="#DejaVuSans-65"/>
     <use x="239.027344" xlink:href="#DejaVuSans-79"/>
     <use x="298.207031" xlink:href="#DejaVuSans-20"/>
     <use x="329.994141" xlink:href="#DejaVuSans-56"/>
     <use x="396.152344" xlink:href="#DejaVuSans-69"/>
     <use x="423.935547" xlink:href="#DejaVuSans-65"/>
     <use x="485.458984" xlink:href="#DejaVuSans-77"/>
     <use x="567.246094" xlink:href="#DejaVuSans-20"/>
     <use x="599.033203" xlink:href="#DejaVuSans-43"/>
     <use x="668.857422" xlink:href="#DejaVuSans-68"/>
     <use x="732.236328" xlink:href="#DejaVuSans-61"/>
     <use x="793.515625" xlink:href="#DejaVuSans-69"/>
     <use x="821.298828" xlink:href="#DejaVuSans-72"/>
    </g>
   </g>
   <g id="text_8">
    <g id="patch_9">
     <path d="M 48.011245 18.486445 
L 52.41364 36.257709 
L 54.3313 35.782655 
L 49.928905 18.011392 
z
" style="fill:#ffffff;"/>
    </g>
    <!-- Big Thunder 18.4° -->
    <g style="fill:#4169e1;" transform="translate(48.439201 18.401034)rotate(-283.913526)scale(0.02 -0.02)">
     <defs>
      <path d="M 1259 2228 
L 1259 519 
L 2272 519 
Q 2781 519 3026 730 
Q 3272 941 3272 1375 
Q 3272 1813 3026 2020 
Q 2781 2228 2272 2228 
L 1259 2228 
z
M 1259 4147 
L 1259 2741 
L 2194 2741 
Q 2656 2741 2882 2914 
Q 3109 3088 3109 3444 
Q 3109 3797 2882 3972 
Q 2656 4147 2194 4147 
L 1259 4147 
z
M 628 4666 
L 2241 4666 
Q 2963 4666 3353 4366 
Q 3744 4066 3744 3513 
Q 3744 3084 3544 2831 
Q 3344 2578 2956 2516 
Q 3422 2416 3680 2098 
Q 3938 1781 3938 1306 
Q 3938 681 3513 340 
Q 3088 0 2303 0 
L 628 0 
L 628 4666 
z
" id="DejaVuSans-42" transform="scale(0.015625)"/>
      <path d="M -19 4666 
L 3928 4666 
L 3928 4134 
L 2272 4134 
L 2272 0 
L 1638 0 
L 1638 4134 
L -19 4134 
L -19 4666 
z
" id="DejaVuSans-54" transform="scale(0.015625)"/>
      <path d="M 794 531 
L 1825 531 
L 1825 4091 
L 703 3866 
L 703 4441 
L 1819 4666 
L 2450 4666 
L 2450 531 
L 3481 531 
L 3481 0 
L 794 0 
L 794 531 
z
" id="DejaVuSans-31" transform="scale(0.015625)"/>
      <path d="M 2034 2216 
Q 1584 2216 1326 1975 
Q 1069 1734 1069 1313 
Q 1069 891 1326 650 
Q 1584 409 2034 409 
Q 2484 409 2743 651 
Q 3003 894 3003 1313 
Q 3003 1734 2745 1975 
Q 2488 2216 2034 2216 
z
M 1403 2484 
Q 997 2584 770 2862 
Q 544 3141 544 3541 
Q 544 4100 942 4425 
Q 1341 4750 2034 4750 
Q 2731 4750 3128 4425 
Q 3525 4100 3525 3541 
Q 3525 3141 3298 2862 
Q 3072 2584 2669 2484 
Q 3125 2378 3379 2068 
Q 3634 1759 3634 1313 
Q 3634 634 3220 271 
Q 2806 -91 2034 -91 
Q 1263 -91 848 271 
Q 434 634 434 1313 
Q 434 1759 690 2068 
Q 947 2378 1403 2484 
z
M 1172 3481 
Q 1172 3119 1398 2916 
Q 1625 2713 2034 2713 
Q 2441 2713 2670 2916 
Q 2900 3119 2900 3481 
Q 2900 3844 2670 4047 
Q 2441 4250 2034 4250 
Q 1625 4250 1398 4047 
Q 1172 3844 1172 3481 
z
" id="DejaVuSans-38" transform="scale(0.015625)"/>
      <path d="M 684 794 
L 1344 794 
L 1344 0 
L 684 0 
L 684 794 
z
" id="DejaVuSans-2e" transform="scale(0.015625)"/>
      <path d="M 2419 4116 
L 825 1625 
L 2419 1625 
L 2419 4116 
z
M 2253 4666 
L 3047 4666 
L 3047 1625 
L 3713 1625 
L 3713 1100 
L 3047 1100 
L 3047 0 
L 2419 0 
L 2419 1100 
L 313 1100 
L 313 1709 
L 2253 4666 
z
" id="DejaVuSans-34" transform="scale(0.015625)"/>
      <path d="M 1600 4347 
Q 1350 4347 1178 4173 
Q 1006 4000 1006 3750 
Q 1006 3503 1178 3333 
Q 1350 3163 1600 3163 
Q 1850 3163 2022 3333 
Q 2194 3503 2194 3750 
Q 2194 3997 2020 4172 
Q 1847 4347 1600 4347 
z
M 1600 4750 
Q 1800 4750 1984 4673 
Q 2169 4597 2303 4453 
Q 2447 4313 2519 4134 
Q 2591 3956 2591 3750 
Q 2591 3338 2302 3052 
Q 2013 2766 1594 2766 
Q 1172 2766 890 3047 
Q 609 3328 609 3750 
Q 609 4169 896 4459 
Q 1184 4750 1600 4750 
z
" id="DejaVuSans-b0" transform="scale(0.015625)"/>
     </defs>
     <use xlink:href="#DejaVuSans-42"/>
     <use x="68.603516" xlink:href="#DejaVuSans-69"/>
     <use x="96.386719" xlink:href="#DejaVuSans-67"/>
     <use x="159.863281" xlink:href="#DejaVuSans-20"/>
     <use x="191.650391" xlink:href="#DejaVuSans-54"/>
     <use x="252.734375" xlink:href="#DejaVuSans-68"/>
     <use x="316.113281" xlink:href="#DejaVuSans-75"/>
     <use x="379.492188" xlink:href="#DejaVuSans-6e"/>
     <use x="442.871094" xlink:href="#DejaVuSans-64"/>
     <use x="506.347656" xlink:href="#DejaVuSans-65"/>
     <use x="567.871094" xlink:href="#DejaVuSans-72"/>
     <use x="608.984375" xlink:href="#DejaVuSans-20"/>
     <use x="640.771484" xlink:href="#DejaVuSans-31"/>
     <use x="704.394531" xlink:href="#DejaVuSans-38"/>
     <use x="768.017578" xlink:href="#DejaVuSans-2e"/>
     <use x="799.804688" xlink:href="#DejaVuSans-34"/>
     <use x="863.427734" xlink:href="#DejaVuSans-b0"/>
    </g>
   </g>
   <g id="text_9">
    <g id="patch_10">
     <path d="M 47.396897 51.250354 
L 50.153961 63.136663 
L 52.078492 62.690263 
L 49.321428 50.803953 
z
" style="fill:#ffffff;"/>
    </g>
    <!-- Lodge 16.4° -->
    <g style="fill:#008000;" transform="translate(47.82608 51.171335)rotate(-283.058989)scale(0.02 -0.02)">
     <defs>
      <path d="M 2113 2584 
Q 1688 2584 1439 2293 
Q 1191 2003 1191 1497 
Q 1191 994 1439 701 
Q 1688 409 2113 409 
Q 2538 409 2786 701 
Q 3034 994 3034 1497 
Q 3034 2003 2786 2293 
Q 2538 2584 2113 2584 
z
M 3366 4563 
L 3366 3988 
Q 3128 4100 2886 4159 
Q 2644 4219 2406 4219 
Q 1781 4219 1451 3797 
Q 1122 3375 1075 2522 
Q 1259 2794 1537 2939 
Q 1816 3084 2150 3084 
Q 2853 3084 3261 2657 
Q 3669 2231 3669 1497 
Q 3669 778 3244 343 
Q 2819 -91 2113 -91 
Q 1303 -91 875 529 
Q 447 1150 447 2328 
Q 447 3434 972 4092 
Q 1497 4750 2381 4750 
Q 2619 4750 2861 4703 
Q 3103 4656 3366 4563 
z
" id="DejaVuSans-36" transform="scale(0.015625)"/>
     </defs>
     <use xlink:href="#DejaVuSans-4c"/>
     <use x="53.962891" xlink:href="#DejaVuSans-6f"/>
     <use x="115.144531" xlink:href="#DejaVuSans-64"/>
     <use x="178.621094" xlink:href="#DejaVuSans-67"/>
     <use x="242.097656" xlink:href="#DejaVuSans-65"/>
     <use x="303.621094" xlink:href="#DejaVuSans-20"/>
     <use x="335.408203" xlink:href="#DejaVuSans-31"/>
     <use x="399.03125" xlink:href="#DejaVuSans-36"/>
     <use x="462.654297" xlink:href="#DejaVuSans-2e"/>
     <use x="494.441406" xlink:href="#DejaVuSans-34"/>
     <use x="558.064453" xlink:href="#DejaVuSans-b0"/>
    </g>
   </g>
   <g id="text_10">
    <g id="patch_11">
     <path d="M 37.464811 19.648413 
L 37.795938 35.687183 
L 39.771143 35.646404 
L 39.440015 19.607634 
z
" style="fill:#ffffff;"/>
    </g>
    <!-- Broadway 15.8° -->
    <g style="fill:#008000;" transform="translate(37.901068 19.659411)rotate(-271.18273)scale(0.02 -0.02)">
     <defs>
      <path d="M 691 4666 
L 3169 4666 
L 3169 4134 
L 1269 4134 
L 1269 2991 
Q 1406 3038 1543 3061 
Q 1681 3084 1819 3084 
Q 2600 3084 3056 2656 
Q 3513 2228 3513 1497 
Q 3513 744 3044 326 
Q 2575 -91 1722 -91 
Q 1428 -91 1123 -41 
Q 819 9 494 109 
L 494 744 
Q 775 591 1075 516 
Q 1375 441 1709 441 
Q 2250 441 2565 725 
Q 2881 1009 2881 1497 
Q 2881 1984 2565 2268 
Q 2250 2553 1709 2553 
Q 1456 2553 1204 2497 
Q 953 2441 691 2322 
L 691 4666 
z
" id="DejaVuSans-35" transform="scale(0.015625)"/>
     </defs>
     <use xlink:href="#DejaVuSans-42"/>
     <use x="68.603516" xlink:href="#DejaVuSans-72"/>
     <use x="107.466797" xlink:href="#DejaVuSans-6f"/>
     <use x="168.648438" xlink:href="#DejaVuSans-61"/>
     <use x="229.927734" xlink:href="#DejaVuSans-64"/>
     <use x="293.404297" xlink:href="#DejaVuSans-77"/>
     <use x="375.191406" xlink:href="#DejaVuSans-61"/>
     <use x="436.470703" xlink:href="#DejaVuSans-79"/>
     <use x="495.650391" xlink:href="#DejaVuSans-20"/>
     <use x="527.4375" xlink:href="#DejaVuSans-31"/>
     <use x="591.060547" xlink:href="#DejaVuSans-35"/>
     <use x="654.683594" xlink:href="#DejaVuSans-2e"/>
     <use x="686.470703" xlink:href="#DejaVuSans-38"/>
     <use x="750.09375" xlink:href="#DejaVuSans-b0"/>
    </g>
   </g>
   <g id="text_11">
    <g id="patch_12">
     <path d="M 32.324853 30.91111 
L 32.608769 17.62508 
L 30.633595 17.582872 
L 30.349678 30.868901 
z
" style="fill:#ffffff;"/>
    </g>
    <!-- Shelter 12.2° -->
    <g style="fill:#008000;" transform="translate(31.889442 30.881801)rotate(-88.7758)scale(0.02 -0.02)">
     <defs>
      <path d="M 1228 531 
L 3431 531 
L 3431 0 
L 469 0 
L 469 531 
Q 828 903 1448 1529 
Q 2069 2156 2228 2338 
Q 2531 2678 2651 2914 
Q 2772 3150 2772 3378 
Q 2772 3750 2511 3984 
Q 2250 4219 1831 4219 
Q 1534 4219 1204 4116 
Q 875 4013 500 3803 
L 500 4441 
Q 881 4594 1212 4672 
Q 1544 4750 1819 4750 
Q 2544 4750 2975 4387 
Q 3406 4025 3406 3419 
Q 3406 3131 3298 2873 
Q 3191 2616 2906 2266 
Q 2828 2175 2409 1742 
Q 1991 1309 1228 531 
z
" id="DejaVuSans-32" transform="scale(0.015625)"/>
     </defs>
     <use xlink:href="#DejaVuSans-53"/>
     <use x="63.476562" xlink:href="#DejaVuSans-68"/>
     <use x="126.855469" xlink:href="#DejaVuSans-65"/>
     <use x="188.378906" xlink:href="#DejaVuSans-6c"/>
     <use x="216.162109" xlink:href="#DejaVuSans-74"/>
     <use x="255.371094" xlink:href="#DejaVuSans-65"/>
     <use x="316.894531" xlink:href="#DejaVuSans-72"/>
     <use x="358.007812" xlink:href="#DejaVuSans-20"/>
     <use x="389.794922" xlink:href="#DejaVuSans-31"/>
     <use x="453.417969" xlink:href="#DejaVuSans-32"/>
     <use x="517.041016" xlink:href="#DejaVuSans-2e"/>
     <use x="548.828125" xlink:href="#DejaVuSans-32"/>
     <use x="612.451172" xlink:href="#DejaVuSans-b0"/>
    </g>
   </g>
   <g id="text_12">
    <g id="patch_13">
     <path d="M 4.150183 40.263014 
L 13.175551 33.795476 
L 12.024788 32.1896 
L 2.99942 38.657138 
z
" style="fill:#ffffff;"/>
    </g>
    <!-- Alpine 8.6° -->
    <g style="fill:#008000;" transform="translate(3.912515 39.897015)rotate(-35.625215)scale(0.02 -0.02)">
     <use xlink:href="#DejaVuSans-41"/>
     <use x="68.408203" xlink:href="#DejaVuSans-6c"/>
     <use x="96.191406" xlink:href="#DejaVuSans-70"/>
     <use x="159.667969" xlink:href="#DejaVuSans-69"/>
     <use x="187.451172" xlink:href="#DejaVuSans-6e"/>
     <use x="250.830078" xlink:href="#DejaVuSans-65"/>
     <use x="312.353516" xlink:href="#DejaVuSans-20"/>
     <use x="344.140625" xlink:href="#DejaVuSans-38"/>
     <use x="407.763672" xlink:href="#DejaVuSans-2e"/>
     <use x="439.550781" xlink:href="#DejaVuSans-36"/>
     <use x="503.173828" xlink:href="#DejaVuSans-b0"/>
    </g>
   </g>
   <g id="text_13">
    <g id="patch_14">
     <path d="M 57.95585 13.682353 
L 73.127407 13.669612 
L 73.125748 11.693987 
L 57.954191 11.706729 
z
" style="fill:#ffffff;"/>
    </g>
    <!-- EZ Does It 9.3° -->
    <g style="fill:#008000;" transform="translate(57.975484 13.246399)rotate(-0.04812)scale(0.02 -0.02)">
     <defs>
      <path d="M 1259 4147 
L 1259 519 
L 2022 519 
Q 2988 519 3436 956 
Q 3884 1394 3884 2338 
Q 3884 3275 3436 3711 
Q 2988 4147 2022 4147 
L 1259 4147 
z
M 628 4666 
L 1925 4666 
Q 3281 4666 3915 4102 
Q 4550 3538 4550 2338 
Q 4550 1131 3912 565 
Q 3275 0 1925 0 
L 628 0 
L 628 4666 
z
" id="DejaVuSans-44" transform="scale(0.015625)"/>
      <path d="M 628 4666 
L 1259 4666 
L 1259 0 
L 628 0 
L 628 4666 
z
" id="DejaVuSans-49" transform="scale(0.015625)"/>
      <path d="M 703 97 
L 703 672 
Q 941 559 1184 500 
Q 1428 441 1663 441 
Q 2288 441 2617 861 
Q 2947 1281 2994 2138 
Q 2813 1869 2534 1725 
Q 2256 1581 1919 1581 
Q 1219 1581 811 2004 
Q 403 2428 403 3163 
Q 403 3881 828 4315 
Q 1253 4750 1959 4750 
Q 2769 4750 3195 4129 
Q 3622 3509 3622 2328 
Q 3622 1225 3098 567 
Q 2575 -91 1691 -91 
Q 1453 -91 1209 -44 
Q 966 3 703 97 
z
M 1959 2075 
Q 2384 2075 2632 2365 
Q 2881 2656 2881 3163 
Q 2881 3666 2632 3958 
Q 2384 4250 1959 4250 
Q 1534 4250 1286 3958 
Q 1038 3666 1038 3163 
Q 1038 2656 1286 2365 
Q 1534 2075 1959 2075 
z
" id="DejaVuSans-39" transform="scale(0.015625)"/>
      <path d="M 2597 2516 
Q 3050 2419 3304 2112 
Q 3559 1806 3559 1356 
Q 3559 666 3084 287 
Q 2609 -91 1734 -91 
Q 1441 -91 1130 -33 
Q 819 25 488 141 
L 488 750 
Q 750 597 1062 519 
Q 1375 441 1716 441 
Q 2309 441 2620 675 
Q 2931 909 2931 1356 
Q 2931 1769 2642 2001 
Q 2353 2234 1838 2234 
L 1294 2234 
L 1294 2753 
L 1863 2753 
Q 2328 2753 2575 2939 
Q 2822 3125 2822 3475 
Q 2822 3834 2567 4026 
Q 2313 4219 1838 4219 
Q 1578 4219 1281 4162 
Q 984 4106 628 3988 
L 628 4550 
Q 988 4650 1302 4700 
Q 1616 4750 1894 4750 
Q 2613 4750 3031 4423 
Q 3450 4097 3450 3541 
Q 3450 3153 3228 2886 
Q 3006 2619 2597 2516 
z
" id="DejaVuSans-33" transform="scale(0.015625)"/>
     </defs>
     <use xlink:href="#DejaVuSans-45"/>
     <use x="63.183594" xlink:href="#DejaVuSans-5a"/>
     <use x="131.689453" xlink:href="#DejaVuSans-20"/>
     <use x="163.476562" xlink:href="#DejaVuSans-44"/>
     <use x="240.478516" xlink:href="#DejaVuSans-6f"/>
     <use x="301.660156" xlink:href="#DejaVuSans-65"/>
     <use x="363.183594" xlink:href="#DejaVuSans-73"/>
     <use x="415.283203" xlink:href="#DejaVuSans-20"/>
     <use x="447.070312" xlink:href="#DejaVuSans-49"/>
     <use x="476.5625" xlink:href="#DejaVuSans-74"/>
     <use x="515.771484" xlink:href="#DejaVuSans-20"/>
     <use x="547.558594" xlink:href="#DejaVuSans-39"/>
     <use x="611.181641" xlink:href="#DejaVuSans-2e"/>
     <use x="642.96875" xlink:href="#DejaVuSans-33"/>
     <use x="706.591797" xlink:href="#DejaVuSans-b0"/>
    </g>
   </g>
   <g id="text_14">
    <g id="patch_15">
     <path d="M 65.575322 56.864846 
L 67.24344 40.38625 
L 65.277861 40.187275 
L 63.609742 56.665871 
z
" style="fill:#ffffff;"/>
    </g>
    <!-- Timber Trail 9.8° -->
    <g style="fill:#008000;" transform="translate(65.143615 56.801042)rotate(-84.219673)scale(0.02 -0.02)">
     <defs>
      <path d="M 3328 2828 
Q 3544 3216 3844 3400 
Q 4144 3584 4550 3584 
Q 5097 3584 5394 3201 
Q 5691 2819 5691 2113 
L 5691 0 
L 5113 0 
L 5113 2094 
Q 5113 2597 4934 2840 
Q 4756 3084 4391 3084 
Q 3944 3084 3684 2787 
Q 3425 2491 3425 1978 
L 3425 0 
L 2847 0 
L 2847 2094 
Q 2847 2600 2669 2842 
Q 2491 3084 2119 3084 
Q 1678 3084 1418 2786 
Q 1159 2488 1159 1978 
L 1159 0 
L 581 0 
L 581 3500 
L 1159 3500 
L 1159 2956 
Q 1356 3278 1631 3431 
Q 1906 3584 2284 3584 
Q 2666 3584 2933 3390 
Q 3200 3197 3328 2828 
z
" id="DejaVuSans-6d" transform="scale(0.015625)"/>
      <path d="M 3116 1747 
Q 3116 2381 2855 2742 
Q 2594 3103 2138 3103 
Q 1681 3103 1420 2742 
Q 1159 2381 1159 1747 
Q 1159 1113 1420 752 
Q 1681 391 2138 391 
Q 2594 391 2855 752 
Q 3116 1113 3116 1747 
z
M 1159 2969 
Q 1341 3281 1617 3432 
Q 1894 3584 2278 3584 
Q 2916 3584 3314 3078 
Q 3713 2572 3713 1747 
Q 3713 922 3314 415 
Q 2916 -91 2278 -91 
Q 1894 -91 1617 61 
Q 1341 213 1159 525 
L 1159 0 
L 581 0 
L 581 4863 
L 1159 4863 
L 1159 2969 
z
" id="DejaVuSans-62" transform="scale(0.015625)"/>
     </defs>
     <use xlink:href="#DejaVuSans-54"/>
     <use x="57.958984" xlink:href="#DejaVuSans-69"/>
     <use x="85.742188" xlink:href="#DejaVuSans-6d"/>
     <use x="183.154297" xlink:href="#DejaVuSans-62"/>
     <use x="246.630859" xlink:href="#DejaVuSans-65"/>
     <use x="308.154297" xlink:href="#DejaVuSans-72"/>
     <use x="349.267578" xlink:href="#DejaVuSans-20"/>
     <use x="381.054688" xlink:href="#DejaVuSans-54"/>
     <use x="427.388672" xlink:href="#DejaVuSans-72"/>
     <use x="468.501953" xlink:href="#DejaVuSans-61"/>
     <use x="529.78125" xlink:href="#DejaVuSans-69"/>
     <use x="557.564453" xlink:href="#DejaVuSans-6c"/>
     <use x="585.347656" xlink:href="#DejaVuSans-20"/>
     <use x="617.134766" xlink:href="#DejaVuSans-39"/>
     <use x="680.757812" xlink:href="#DejaVuSans-2e"/>
     <use x="712.544922" xlink:href="#DejaVuSans-38"/>
     <use x="776.167969" xlink:href="#DejaVuSans-b0"/>
    </g>
   </g>
   <g id="text_15">
    <g id="patch_16">
     <path d="M 77.743245 37.121316 
L 79.899942 58.329438 
L 81.86543 58.129564 
L 79.708733 36.921441 
z
" style="fill:#ffffff;"/>
    </g>
    <!-- First Adventure 15.3° -->
    <g style="fill:#008000;" transform="translate(78.178969 37.097109)rotate(-275.806563)scale(0.02 -0.02)">
     <use xlink:href="#DejaVuSans-46"/>
     <use x="50.269531" xlink:href="#DejaVuSans-69"/>
     <use x="78.052734" xlink:href="#DejaVuSans-72"/>
     <use x="119.166016" xlink:href="#DejaVuSans-73"/>
     <use x="171.265625" xlink:href="#DejaVuSans-74"/>
     <use x="210.474609" xlink:href="#DejaVuSans-20"/>
     <use x="242.261719" xlink:href="#DejaVuSans-41"/>
     <use x="308.919922" xlink:href="#DejaVuSans-64"/>
     <use x="372.396484" xlink:href="#DejaVuSans-76"/>
     <use x="431.576172" xlink:href="#DejaVuSans-65"/>
     <use x="493.099609" xlink:href="#DejaVuSans-6e"/>
     <use x="556.478516" xlink:href="#DejaVuSans-74"/>
     <use x="595.6875" xlink:href="#DejaVuSans-75"/>
     <use x="659.066406" xlink:href="#DejaVuSans-72"/>
     <use x="697.929688" xlink:href="#DejaVuSans-65"/>
     <use x="759.453125" xlink:href="#DejaVuSans-20"/>
     <use x="791.240234" xlink:href="#DejaVuSans-31"/>
     <use x="854.863281" xlink:href="#DejaVuSans-35"/>
     <use x="918.486328" xlink:href="#DejaVuSans-2e"/>
     <use x="950.273438" xlink:href="#DejaVuSans-33"/>
     <use x="1013.896484" xlink:href="#DejaVuSans-b0"/>
    </g>
   </g>
   <g id="text_16">
    <g id="patch_17">
     <path d="M 80.850441 17.555605 
L 83.653986 34.802984 
L 85.604017 34.486008 
L 82.800472 17.238629 
z
" style="fill:#ffffff;"/>
    </g>
    <!-- Valley View 11.1° -->
    <g style="fill:#008000;" transform="translate(81.28394 17.505403)rotate(-279.232624)scale(0.02 -0.02)">
     <use xlink:href="#DejaVuSans-56"/>
     <use x="60.658203" xlink:href="#DejaVuSans-61"/>
     <use x="121.9375" xlink:href="#DejaVuSans-6c"/>
     <use x="149.720703" xlink:href="#DejaVuSans-6c"/>
     <use x="177.503906" xlink:href="#DejaVuSans-65"/>
     <use x="239.027344" xlink:href="#DejaVuSans-79"/>
     <use x="298.207031" xlink:href="#DejaVuSans-20"/>
     <use x="329.994141" xlink:href="#DejaVuSans-56"/>
     <use x="396.152344" xlink:href="#DejaVuSans-69"/>
     <use x="423.935547" xlink:href="#DejaVuSans-65"/>
     <use x="485.458984" xlink:href="#DejaVuSans-77"/>
     <use x="567.246094" xlink:href="#DejaVuSans-20"/>
     <use x="599.033203" xlink:href="#DejaVuSans-31"/>
     <use x="662.65625" xlink:href="#DejaVuSans-31"/>
     <use x="726.279297" xlink:href="#DejaVuSans-2e"/>
     <use x="758.066406" xlink:href="#DejaVuSans-31"/>
     <use x="821.689453" xlink:href="#DejaVuSans-b0"/>
    </g>
   </g>
   <g id="text_17">
    <g id="patch_18">
     <path d="M 88.213847 18.4505 
L 91.64442 38.506402 
L 93.591762 38.173308 
L 90.16119 18.117406 
z
" style="fill:#ffffff;"/>
    </g>
    <!-- Snowdrift Trail 13.2° -->
    <g style="fill:#008000;" transform="translate(88.646916 18.396714)rotate(-279.706536)scale(0.02 -0.02)">
     <defs>
      <path d="M 2375 4863 
L 2375 4384 
L 1825 4384 
Q 1516 4384 1395 4259 
Q 1275 4134 1275 3809 
L 1275 3500 
L 2222 3500 
L 2222 3053 
L 1275 3053 
L 1275 0 
L 697 0 
L 697 3053 
L 147 3053 
L 147 3500 
L 697 3500 
L 697 3744 
Q 697 4328 969 4595 
Q 1241 4863 1831 4863 
L 2375 4863 
z
" id="DejaVuSans-66" transform="scale(0.015625)"/>
     </defs>
     <use xlink:href="#DejaVuSans-53"/>
     <use x="63.476562" xlink:href="#DejaVuSans-6e"/>
     <use x="126.855469" xlink:href="#DejaVuSans-6f"/>
     <use x="188.037109" xlink:href="#DejaVuSans-77"/>
     <use x="269.824219" xlink:href="#DejaVuSans-64"/>
     <use x="333.300781" xlink:href="#DejaVuSans-72"/>
     <use x="374.414062" xlink:href="#DejaVuSans-69"/>
     <use x="402.197266" xlink:href="#DejaVuSans-66"/>
     <use x="435.652344" xlink:href="#DejaVuSans-74"/>
     <use x="474.861328" xlink:href="#DejaVuSans-20"/>
     <use x="506.648438" xlink:href="#DejaVuSans-54"/>
     <use x="552.982422" xlink:href="#DejaVuSans-72"/>
     <use x="594.095703" xlink:href="#DejaVuSans-61"/>
     <use x="655.375" xlink:href="#DejaVuSans-69"/>
     <use x="683.158203" xlink:href="#DejaVuSans-6c"/>
     <use x="710.941406" xlink:href="#DejaVuSans-20"/>
     <use x="742.728516" xlink:href="#DejaVuSans-31"/>
     <use x="806.351562" xlink:href="#DejaVuSans-33"/>
     <use x="869.974609" xlink:href="#DejaVuSans-2e"/>
     <use x="901.761719" xlink:href="#DejaVuSans-32"/>
     <use x="965.384766" xlink:href="#DejaVuSans-b0"/>
    </g>
   </g>
   <g id="text_18">
    <!-- Alpine Valley -->
    <g transform="translate(30.410779 6.5966)scale(0.06 -0.06)">
     <use xlink:href="#DejaVuSans-41"/>
     <use x="68.408203" xlink:href="#DejaVuSans-6c"/>
     <use x="96.191406" xlink:href="#DejaVuSans-70"/>
     <use x="159.667969" xlink:href="#DejaVuSans-69"/>
     <use x="187.451172" xlink:href="#DejaVuSans-6e"/>
     <use x="250.830078" xlink:href="#DejaVuSans-65"/>
     <use x="312.353516" xlink:href="#DejaVuSans-20"/>
     <use x="344.140625" xlink:href="#DejaVuSans-56"/>
     <use x="404.798828" xlink:href="#DejaVuSans-61"/>
     <use x="466.078125" xlink:href="#DejaVuSans-6c"/>
     <use x="493.861328" xlink:href="#DejaVuSans-6c"/>
     <use x="521.644531" xlink:href="#DejaVuSans-65"/>
     <use x="583.167969" xlink:href="#DejaVuSans-79"/>
    </g>
   </g>
   <g id="legend_1">
    <g id="line2d_43">
     <path d="M 7.680388 75.774037 
L 13.680388 75.774037 
" style="fill:none;stroke:#008000;stroke-linecap:square;stroke-width:0.460014;"/>
    </g>
    <g id="line2d_44"/>
    <g id="text_19">
     <!-- Easy -->
     <g transform="translate(16.080388 76.824037)scale(0.03 -0.03)">
      <use xlink:href="#DejaVuSans-45"/>
      <use x="63.183594" xlink:href="#DejaVuSans-61"/>
      <use x="124.462891" xlink:href="#DejaVuSans-73"/>
      <use x="176.5625" xlink:href="#DejaVuSans-79"/>
     </g>
    </g>
    <g id="line2d_45">
     <path d="M 7.680388 80.177474 
L 13.680388 80.177474 
" style="fill:none;stroke:#4169e1;stroke-linecap:square;stroke-width:0.460014;"/>
    </g>
    <g id="line2d_46"/>
    <g id="text_20">
     <!-- Intermediate -->
     <g transform="translate(16.080388 81.227474)scale(0.03 -0.03)">
      <use xlink:href="#DejaVuSans-49"/>
      <use x="29.492188" xlink:href="#DejaVuSans-6e"/>
      <use x="92.871094" xlink:href="#DejaVuSans-74"/>
      <use x="132.080078" xlink:href="#DejaVuSans-65"/>
      <use x="193.603516" xlink:href="#DejaVuSans-72"/>
      <use x="232.966797" xlink:href="#DejaVuSans-6d"/>
      <use x="330.378906" xlink:href="#DejaVuSans-65"/>
      <use x="391.902344" xlink:href="#DejaVuSans-64"/>
      <use x="455.378906" xlink:href="#DejaVuSans-69"/>
      <use x="483.162109" xlink:href="#DejaVuSans-61"/>
      <use x="544.441406" xlink:href="#DejaVuSans-74"/>
      <use x="583.650391" xlink:href="#DejaVuSans-65"/>
     </g>
    </g>
    <g id="line2d_47">
     <path d="M 41.436013 75.774037 
L 47.436013 75.774037 
" style="fill:none;stroke:#000000;stroke-linecap:square;stroke-width:0.460014;"/>
    </g>
    <g id="line2d_48"/>
    <g id="text_21">
     <!-- Advanced -->
     <g transform="translate(49.836013 76.824037)scale(0.03 -0.03)">
      <defs>
       <path d="M 3122 3366 
L 3122 2828 
Q 2878 2963 2633 3030 
Q 2388 3097 2138 3097 
Q 1578 3097 1268 2742 
Q 959 2388 959 1747 
Q 959 1106 1268 751 
Q 1578 397 2138 397 
Q 2388 397 2633 464 
Q 2878 531 3122 666 
L 3122 134 
Q 2881 22 2623 -34 
Q 2366 -91 2075 -91 
Q 1284 -91 818 406 
Q 353 903 353 1747 
Q 353 2603 823 3093 
Q 1294 3584 2113 3584 
Q 2378 3584 2631 3529 
Q 2884 3475 3122 3366 
z
" id="DejaVuSans-63" transform="scale(0.015625)"/>
      </defs>
      <use xlink:href="#DejaVuSans-41"/>
      <use x="66.658203" xlink:href="#DejaVuSans-64"/>
      <use x="130.134766" xlink:href="#DejaVuSans-76"/>
      <use x="189.314453" xlink:href="#DejaVuSans-61"/>
      <use x="250.59375" xlink:href="#DejaVuSans-6e"/>
      <use x="313.972656" xlink:href="#DejaVuSans-63"/>
      <use x="368.953125" xlink:href="#DejaVuSans-65"/>
      <use x="430.476562" xlink:href="#DejaVuSans-64"/>
     </g>
    </g>
    <g id="line2d_49">
     <path d="M 41.436013 80.177474 
L 47.436013 80.177474 
" style="fill:none;stroke:#ff0000;stroke-linecap:square;stroke-width:0.460014;"/>
    </g>
    <g id="line2d_50"/>
    <g id="text_22">
     <!-- Expert -->
     <g transform="translate(49.836013 81.227474)scale(0.03 -0.03)">
      <defs>
       <path d="M 3513 3500 
L 2247 1797 
L 3578 0 
L 2900 0 
L 1881 1375 
L 863 0 
L 184 0 
L 1544 1831 
L 300 3500 
L 978 3500 
L 1906 2253 
L 2834 3500 
L 3513 3500 
z
" id="DejaVuSans-78" transform="scale(0.015625)"/>
      </defs>
      <use xlink:href="#DejaVuSans-45"/>
      <use x="63.183594" xlink:href="#DejaVuSans-78"/>
      <use x="122.363281" xlink:href="#DejaVuSans-70"/>
      <use x="185.839844" xlink:href="#DejaVuSans-65"/>
      <use x="247.363281" xlink:href="#DejaVuSans-72"/>
      <use x="288.476562" xlink:href="#DejaVuSans-74"/>
     </g>
    </g>
    <g id="line2d_51">
     <path d="M 70.655544 75.774037 
L 76.655544 75.774037 
" style="fill:none;stroke:#ffd700;stroke-linecap:square;stroke-width:0.460014;"/>
    </g>
    <g id="line2d_52"/>
    <g id="text_23">
     <!-- Extreme -->
     <g transform="translate(79.055544 76.824037)scale(0.03 -0.03)">
      <use xlink:href="#DejaVuSans-45"/>
      <use x="63.183594" xlink:href="#DejaVuSans-78"/>
      <use x="122.363281" xlink:href="#DejaVuSans-74"/>
      <use x="161.572266" xlink:href="#DejaVuSans-72"/>
      <use x="200.435547" xlink:href="#DejaVuSans-65"/>
      <use x="261.958984" xlink:href="#DejaVuSans-6d"/>
      <use x="359.371094" xlink:href="#DejaVuSans-65"/>
     </g>
    </g>
    <g id="line2d_53">
     <path d="M 70.655544 80.177474 
L 76.655544 80.177474 
" style="fill:none;stroke:#000000;stroke-dasharray:0.460014,0.759024;stroke-dashoffset:0;stroke-width:0.460014;"/>
    </g>
    <g id="line2d_54"/>
    <g id="text_24">
     <!-- Gladed -->
     <g transform="translate(79.055544 81.227474)scale(0.03 -0.03)">
      <use xlink:href="#DejaVuSans-47"/>
      <use x="77.490234" xlink:href="#DejaVuSans-6c"/>
      <use x="105.273438" xlink:href="#DejaVuSans-61"/>
      <use x="166.552734" xlink:href="#DejaVuSans-64"/>
      <use x="230.029297" xlink:href="#DejaVuSans-65"/>
      <use x="291.552734" xlink:href="#DejaVuSans-64"/>
     </g>
    </g>
   </g>
  </g>
  <g id="text_25">
   <!-- Sources: USGS and OpenStreetMaps -->
   <g transform="translate(25.88516 86.133878)scale(0.026087 -0.026087)">
    <defs>
     <path d="M 750 794 
L 1409 794 
L 1409 0 
L 750 0 
L 750 794 
z
M 750 3309 
L 1409 3309 
L 1409 2516 
L 750 2516 
L 750 3309 
z
" id="DejaVuSans-3a" transform="scale(0.015625)"/>
     <path d="M 556 4666 
L 1191 4666 
L 1191 1831 
Q 1191 1081 1462 751 
Q 1734 422 2344 422 
Q 2950 422 3222 751 
Q 3494 1081 3494 1831 
L 3494 4666 
L 4128 4666 
L 4128 1753 
Q 4128 841 3676 375 
Q 3225 -91 2344 -91 
Q 1459 -91 1007 375 
Q 556 841 556 1753 
L 556 4666 
z
" id="DejaVuSans-55" transform="scale(0.015625)"/>
     <path d="M 2522 4238 
Q 1834 4238 1429 3725 
Q 1025 3213 1025 2328 
Q 1025 1447 1429 934 
Q 1834 422 2522 422 
Q 3209 422 3611 934 
Q 4013 1447 4013 2328 
Q 4013 3213 3611 3725 
Q 3209 4238 2522 4238 
z
M 2522 4750 
Q 3503 4750 4090 4092 
Q 4678 3434 4678 2328 
Q 4678 1225 4090 567 
Q 3503 -91 2522 -91 
Q 1538 -91 948 565 
Q 359 1222 359 2328 
Q 359 3434 948 4092 
Q 1538 4750 2522 4750 
z
" id="DejaVuSans-4f" transform="scale(0.015625)"/>
    </defs>
    <use xlink:href="#DejaVuSans-53"/>
    <use x="63.476562" xlink:href="#DejaVuSans-6f"/>
    <use x="124.658203" xlink:href="#DejaVuSans-75"/>
    <use x="188.037109" xlink:href="#DejaVuSans-72"/>
    <use x="226.900391" xlink:href="#DejaVuSans-63"/>
    <use x="281.880859" xlink:href="#DejaVuSans-65"/>
    <use x="343.404297" xlink:href="#DejaVuSans-73"/>
    <use x="395.503906" xlink:href="#DejaVuSans-3a"/>
    <use x="429.195312" xlink:href="#DejaVuSans-20"/>
    <use x="460.982422" xlink:href="#DejaVuSans-55"/>
    <use x="534.175781" xlink:href="#DejaVuSans-53"/>
    <use x="597.652344" xlink:href="#DejaVuSans-47"/>
    <use x="675.142578" xlink:href="#DejaVuSans-53"/>
    <use x="738.619141" xlink:href="#DejaVuSans-20"/>
    <use x="770.40625" xlink:href="#DejaVuSans-61"/>
    <use x="831.685547" xlink:href="#DejaVuSans-6e"/>
    <use x="895.064453" xlink:href="#DejaVuSans-64"/>
    <use x="958.541016" xlink:href="#DejaVuSans-20"/>
    <use x="990.328125" xlink:href="#DejaVuSans-4f"/>
    <use x="1069.039062" xlink:href="#DejaVuSans-70"/>
    <use x="1132.515625" xlink:href="#DejaVuSans-65"/>
    <use x="1194.039062" xlink:href="#DejaVuSans-6e"/>
    <use x="1257.417969" xlink:href="#DejaVuSans-53"/>
    <use x="1320.894531" xlink:href="#DejaVuSans-74"/>
    <use x="1360.103516" xlink:href="#DejaVuSans-72"/>
    <use x="1398.966797" xlink:href="#DejaVuSans-65"/>
    <use x="1460.490234" xlink:href="#DejaVuSans-65"/>
    <use x="1522.013672" xlink:href="#DejaVuSans-74"/>
    <use x="1561.222656" xlink:href="#DejaVuSans-4d"/>
    <use x="1647.501953" xlink:href="#DejaVuSans-61"/>
    <use x="1708.78125" xlink:href="#DejaVuSans-70"/>
    <use x="1772.257812" xlink:href="#DejaVuSans-73"/>
   </g>
  </g>
 </g>
 <defs>
  <clipPath id="pbb983d0bf0">
   <rect height="67.483205" width="99.36312" x="0" y="9.5966"/>
  </clipPath>
 </defs>
</svg>
