<?xml version="1.0" encoding="utf-8" standalone="no"?>
<!DOCTYPE svg PUBLIC "-//W3C//DTD SVG 1.1//EN"
  "http://www.w3.org/Graphics/SVG/1.1/DTD/svg11.dtd">
<svg xmlns:xlink="http://www.w3.org/1999/xlink" width="70.86918pt" height="85.165439pt" viewBox="0 0 70.86918 85.165439" xmlns="http://www.w3.org/2000/svg" version="1.1">
 <metadata>
  <rdf:RDF xmlns:dc="http://purl.org/dc/elements/1.1/" xmlns:cc="http://creativecommons.org/ns#" xmlns:rdf="http://www.w3.org/1999/02/22-rdf-syntax-ns#">
   <cc:Work>
    <dc:type rdf:resource="http://purl.org/dc/dcmitype/StillImage"/>
    <dc:date>2022-05-17T23:04:10.283781</dc:date>
    <dc:format>image/svg+xml</dc:format>
    <dc:creator>
     <cc:Agent>
      <dc:title>Matplotlib v3.5.2, https://matplotlib.org/</dc:title>
     </cc:Agent>
    </dc:creator>
   </cc:Work>
  </rdf:RDF>
 </metadata>
 <defs>
  <style type="text/css">*{stroke-linejoin: round; stroke-linecap: butt}</style>
 </defs>
 <g id="figure_1">
  <g id="patch_1">
   <path d="M 0 85.165439 
L 70.86918 85.165439 
L 70.86918 0 
L 0 0 
z
" style="fill: #ffffff"/>
  </g>
  <g id="axes_1">
   <g id="line2d_1">
    <path d="M 27.056701 62.468091 
L 31.561602 61.533632 
L 36.066502 60.599173 
L 40.571402 59.664714 
L 45.076302 58.730255 
L 49.581202 57.795796 
L 54.086102 56.861337 
L 58.591002 55.926878 
L 63.095902 54.99242 
" clip-path="url(#p480f5cd9f5)" style="fill: none; stroke: #808080; stroke-width: 0.4; stroke-linecap: square"/>
   </g>
   <g id="line2d_2">
    <path d="M 22.555084 50.924649 
L 24.496092 45.936702 
L 26.4371 40.948755 
L 28.378108 35.960808 
L 30.319116 30.972862 
L 32.260124 25.984915 
L 34.201132 20.996968 
L 36.14214 16.009021 
L 38.083148 11.021074 
" clip-path="url(#p480f5cd9f5)" style="fill: none; stroke: #808080; stroke-width: 0.4; stroke-linecap: square"/>
   </g>
   <g id="line2d_3">
    <path d="M 28.675052 68.19125 
L 32.661702 68.352468 
L 36.648353 68.513687 
L 40.635003 68.674905 
L 44.621654 68.836123 
L 48.608304 68.997342 
L 52.594955 69.15856 
L 56.581606 69.319778 
L 60.568256 69.480996 
" clip-path="url(#p480f5cd9f5)" style="fill: none; stroke: #808080; stroke-width: 0.4; stroke-linecap: square"/>
   </g>
   <g id="line2d_4">
    <path d="M 28.981433 54.30684 
L 30.43989 49.879497 
L 31.898347 45.452155 
L 33.356805 41.024812 
L 34.815262 36.597469 
L 36.273719 32.170126 
L 37.732177 27.742783 
L 39.190634 23.31544 
L 40.649091 18.888097 
" clip-path="url(#p480f5cd9f5)" style="fill: none; stroke: #808080; stroke-width: 0.4; stroke-linecap: square"/>
   </g>
   <g id="line2d_5">
    <path d="M 9.896063 48.013793 
L 8.227379 43.300078 
L 6.558695 38.586363 
L 4.890011 33.872648 
L 3.221326 29.158933 
" clip-path="url(#p480f5cd9f5)" style="fill: none; stroke: #808080; stroke-width: 0.4; stroke-linecap: square"/>
   </g>
   <g id="line2d_6">
    <path d="M 10.604023 46.06132 
L 9.070475 41.629336 
L 7.536927 37.197351 
" clip-path="url(#p480f5cd9f5)" style="fill: none; stroke: #808080; stroke-width: 0.4; stroke-linecap: square"/>
   </g>
   <g id="line2d_7">
    <path d="M 16.301622 45.897067 
L 16.453445 42.167444 
L 16.605268 38.437821 
L 16.75709 34.708198 
L 16.908913 30.978575 
" clip-path="url(#p480f5cd9f5)" style="fill: none; stroke: #808080; stroke-width: 0.4; stroke-linecap: square"/>
   </g>
   <g id="line2d_8">
    <path d="M 30.5965 56.879191 
L 35.227919 54.799243 
L 39.859339 52.719296 
L 44.490758 50.639348 
L 49.122177 48.5594 
L 53.753596 46.479452 
L 58.385015 44.399505 
L 63.016435 42.319557 
L 67.647854 40.239609 
" clip-path="url(#p480f5cd9f5)" style="fill: none; stroke: #808080; stroke-width: 0.4; stroke-linecap: square"/>
   </g>
   <g id="line2d_9">
    <path d="M 58.338238 74.144364 
L 56.533255 73.993144 
L 54.728272 73.841924 
L 52.923289 73.690703 
L 51.118306 73.539483 
L 49.313323 73.388263 
L 47.508341 73.237043 
L 45.703358 73.085822 
L 43.898375 72.934602 
L 42.093392 72.783382 
L 40.288409 72.632162 
L 38.483427 72.480942 
L 36.678444 72.329721 
L 34.873461 72.178501 
L 33.068478 72.027281 
L 31.263495 71.876061 
L 29.458512 71.72484 
" clip-path="url(#p480f5cd9f5)" style="fill: none; stroke: #4169e1; stroke-width: 0.4; stroke-linecap: square"/>
   </g>
   <g id="line2d_10">
    <path d="M 62.095786 62.740894 
L 61.031863 62.823691 
L 59.96794 62.906487 
L 58.904017 62.989283 
L 57.840094 63.072079 
L 56.776171 63.154875 
L 55.712249 63.237672 
L 54.648326 63.320468 
L 53.584403 63.403264 
L 52.52048 63.48606 
L 51.456557 63.568856 
L 50.392634 63.651653 
L 49.328711 63.734449 
L 48.264788 63.817245 
L 47.200865 63.900041 
L 46.136942 63.982837 
L 45.073019 64.065634 
L 44.009096 64.14843 
L 42.945173 64.231226 
L 41.88125 64.314022 
L 40.817328 64.396818 
L 39.753405 64.479615 
L 38.689482 64.562411 
L 37.625559 64.645207 
L 36.561636 64.728003 
L 35.497713 64.810799 
L 34.43379 64.893596 
L 33.369867 64.976392 
L 32.305944 65.059188 
L 31.242021 65.141984 
L 30.178098 65.224781 
L 29.114175 65.307577 
L 28.050252 65.390373 
" clip-path="url(#p480f5cd9f5)" style="fill: none; stroke: #4169e1; stroke-width: 0.4; stroke-linecap: square"/>
   </g>
   <g id="line2d_11">
    <path d="M 66.086403 46.614069 
L 64.919795 47.020819 
L 63.753186 47.427569 
L 62.586578 47.83432 
L 61.419969 48.24107 
L 60.25336 48.64782 
L 59.086752 49.05457 
L 57.920143 49.461321 
L 56.753535 49.868071 
L 55.586926 50.274821 
L 54.420318 50.681572 
L 53.253709 51.088322 
L 52.087101 51.495072 
L 50.920492 51.901823 
L 49.753883 52.308573 
L 48.587275 52.715323 
L 47.420666 53.122073 
L 46.254058 53.528824 
L 45.087449 53.935574 
L 43.920841 54.342324 
L 42.754232 54.749075 
L 41.587624 55.155825 
L 40.421015 55.562575 
L 39.254406 55.969325 
L 38.087798 56.376076 
L 36.921189 56.782826 
L 35.754581 57.189576 
L 34.587972 57.596327 
L 33.421364 58.003077 
L 32.254755 58.409827 
L 31.088147 58.816578 
L 29.921538 59.223328 
L 28.75493 59.630078 
" clip-path="url(#p480f5cd9f5)" style="fill: none; stroke: #008000; stroke-width: 0.4; stroke-linecap: square"/>
   </g>
   <g id="line2d_12">
    <path d="M 40.559365 11.929467 
L 40.058692 13.281031 
L 39.558018 14.632596 
L 39.057344 15.98416 
L 38.556671 17.335724 
L 38.055997 18.687289 
L 37.555324 20.038853 
L 37.05465 21.390417 
L 36.553976 22.741982 
L 36.053303 24.093546 
L 35.552629 25.44511 
L 35.051955 26.796675 
L 34.551282 28.148239 
L 34.050608 29.499803 
L 33.549934 30.851368 
L 33.049261 32.202932 
L 32.548587 33.554496 
L 32.047914 34.906061 
L 31.54724 36.257625 
L 31.046566 37.609189 
L 30.545893 38.960754 
L 30.045219 40.312318 
L 29.544545 41.663882 
L 29.043872 43.015447 
L 28.543198 44.367011 
L 28.042524 45.718575 
L 27.541851 47.07014 
L 27.041177 48.421704 
L 26.540504 49.773268 
L 26.03983 51.124833 
L 25.539156 52.476397 
L 25.038483 53.827961 
L 24.537809 55.179526 
" clip-path="url(#p480f5cd9f5)" style="fill: none; stroke: #008000; stroke-width: 0.4; stroke-linecap: square"/>
   </g>
   <g id="line2d_13">
    <path d="M 24.048693 31.965523 
L 23.715503 33.168858 
L 23.382314 34.372193 
L 23.049124 35.575527 
L 22.715934 36.778862 
L 22.382744 37.982196 
L 22.049555 39.185531 
L 21.716365 40.388865 
L 21.383175 41.5922 
L 21.000746 42.783394 
L 20.618316 43.974588 
L 20.235887 45.165782 
L 19.853457 46.356976 
L 19.471027 47.548171 
L 19.088598 48.739365 
L 18.706168 49.930559 
L 18.323739 51.121753 
" clip-path="url(#p480f5cd9f5)" style="fill: none; stroke: #4169e1; stroke-width: 0.4; stroke-linecap: square"/>
   </g>
   <g id="line2d_14">
    <path d="M 11.931311 31.248522 
L 11.993544 32.312419 
L 12.055778 33.376317 
L 12.118012 34.440215 
L 12.180245 35.504113 
L 12.242479 36.56801 
L 12.304713 37.631908 
L 12.366947 38.695806 
L 12.42918 39.759704 
L 12.491414 40.823601 
L 12.553648 41.887499 
L 12.615881 42.951397 
L 12.678115 44.015294 
L 12.740349 45.079192 
L 12.802583 46.14309 
L 12.864816 47.206988 
L 12.92705 48.270885 
" clip-path="url(#p480f5cd9f5)" style="fill: none; stroke: #008000; stroke-width: 0.4; stroke-linecap: square"/>
   </g>
   <g id="text_1">
    <g id="patch_2">
     <path d="M 44.897708 59.758844 
L 45.56496 59.652808 
L 45.254896 57.701666 
L 44.587644 57.807702 
z
" style="fill: #ffffff"/>
    </g>
    <!--   -->
    <g style="fill: #808080" transform="translate(44.849042 59.32517)rotate(-9.029611)scale(0.02 -0.02)">
     <defs>
      <path id="DejaVuSans-20" transform="scale(0.015625)"/>
     </defs>
     <use xlink:href="#DejaVuSans-20"/>
    </g>
   </g>
   <g id="text_2">
    <g id="patch_3">
     <path d="M 31.046839 31.7214 
L 31.352811 31.119029 
L 29.591392 30.224323 
L 29.285421 30.826694 
z
" style="fill: #ffffff"/>
    </g>
    <!--   -->
    <g style="fill: #808080" transform="translate(30.667225 31.506144)rotate(-63.071882)scale(0.02 -0.02)">
     <use xlink:href="#DejaVuSans-20"/>
    </g>
   </g>
   <g id="text_3">
    <g id="patch_4">
     <path d="M 44.253415 69.813001 
L 44.928716 69.833923 
L 44.989893 67.859245 
L 44.314592 67.838324 
z
" style="fill: #ffffff"/>
    </g>
    <!--   -->
    <g style="fill: #808080" transform="translate(44.286904 69.377892)rotate(-358.225493)scale(0.02 -0.02)">
     <use xlink:href="#DejaVuSans-20"/>
    </g>
   </g>
   <g id="text_4">
    <g id="patch_5">
     <path d="M 35.589293 37.298016 
L 35.856181 36.677339 
L 34.041231 35.896921 
L 33.774344 36.517598 
z
" style="fill: #ffffff"/>
    </g>
    <!--   -->
    <g style="fill: #808080" transform="translate(35.19671 37.107437)rotate(-66.732568)scale(0.02 -0.02)">
     <use xlink:href="#DejaVuSans-20"/>
    </g>
   </g>
   <g id="text_5">
    <g id="patch_6">
     <path d="M 49.124114 49.603377 
L 49.762984 49.383571 
L 49.120241 47.515423 
L 48.481371 47.735229 
z
" style="fill: #ffffff"/>
    </g>
    <!--   -->
    <g style="fill: #808080" transform="translate(49.001199 49.184648)rotate(-18.985965)scale(0.02 -0.02)">
     <use xlink:href="#DejaVuSans-20"/>
    </g>
   </g>
   <g id="text_6">
    <g id="patch_7">
     <path d="M 41.209775 73.822623 
L 53.680364 74.623031 
L 53.806907 72.651463 
L 41.336317 71.851054 
z
" style="fill: #ffffff"/>
    </g>
    <!-- Croyle 18.2째 -->
    <g style="fill: #4169e1" transform="translate(41.257656 73.388861)rotate(-356.327583)scale(0.02 -0.02)">
     <defs>
      <path id="DejaVuSans-43" d="M 4122 4306 
L 4122 3641 
Q 3803 3938 3442 4084 
Q 3081 4231 2675 4231 
Q 1875 4231 1450 3742 
Q 1025 3253 1025 2328 
Q 1025 1406 1450 917 
Q 1875 428 2675 428 
Q 3081 428 3442 575 
Q 3803 722 4122 1019 
L 4122 359 
Q 3791 134 3420 21 
Q 3050 -91 2638 -91 
Q 1578 -91 968 557 
Q 359 1206 359 2328 
Q 359 3453 968 4101 
Q 1578 4750 2638 4750 
Q 3056 4750 3426 4639 
Q 3797 4528 4122 4306 
z
" transform="scale(0.015625)"/>
      <path id="DejaVuSans-72" d="M 2631 2963 
Q 2534 3019 2420 3045 
Q 2306 3072 2169 3072 
Q 1681 3072 1420 2755 
Q 1159 2438 1159 1844 
L 1159 0 
L 581 0 
L 581 3500 
L 1159 3500 
L 1159 2956 
Q 1341 3275 1631 3429 
Q 1922 3584 2338 3584 
Q 2397 3584 2469 3576 
Q 2541 3569 2628 3553 
L 2631 2963 
z
" transform="scale(0.015625)"/>
      <path id="DejaVuSans-6f" d="M 1959 3097 
Q 1497 3097 1228 2736 
Q 959 2375 959 1747 
Q 959 1119 1226 758 
Q 1494 397 1959 397 
Q 2419 397 2687 759 
Q 2956 1122 2956 1747 
Q 2956 2369 2687 2733 
Q 2419 3097 1959 3097 
z
M 1959 3584 
Q 2709 3584 3137 3096 
Q 3566 2609 3566 1747 
Q 3566 888 3137 398 
Q 2709 -91 1959 -91 
Q 1206 -91 779 398 
Q 353 888 353 1747 
Q 353 2609 779 3096 
Q 1206 3584 1959 3584 
z
" transform="scale(0.015625)"/>
      <path id="DejaVuSans-79" d="M 2059 -325 
Q 1816 -950 1584 -1140 
Q 1353 -1331 966 -1331 
L 506 -1331 
L 506 -850 
L 844 -850 
Q 1081 -850 1212 -737 
Q 1344 -625 1503 -206 
L 1606 56 
L 191 3500 
L 800 3500 
L 1894 763 
L 2988 3500 
L 3597 3500 
L 2059 -325 
z
" transform="scale(0.015625)"/>
      <path id="DejaVuSans-6c" d="M 603 4863 
L 1178 4863 
L 1178 0 
L 603 0 
L 603 4863 
z
" transform="scale(0.015625)"/>
      <path id="DejaVuSans-65" d="M 3597 1894 
L 3597 1613 
L 953 1613 
Q 991 1019 1311 708 
Q 1631 397 2203 397 
Q 2534 397 2845 478 
Q 3156 559 3463 722 
L 3463 178 
Q 3153 47 2828 -22 
Q 2503 -91 2169 -91 
Q 1331 -91 842 396 
Q 353 884 353 1716 
Q 353 2575 817 3079 
Q 1281 3584 2069 3584 
Q 2775 3584 3186 3129 
Q 3597 2675 3597 1894 
z
M 3022 2063 
Q 3016 2534 2758 2815 
Q 2500 3097 2075 3097 
Q 1594 3097 1305 2825 
Q 1016 2553 972 2059 
L 3022 2063 
z
" transform="scale(0.015625)"/>
      <path id="DejaVuSans-31" d="M 794 531 
L 1825 531 
L 1825 4091 
L 703 3866 
L 703 4441 
L 1819 4666 
L 2450 4666 
L 2450 531 
L 3481 531 
L 3481 0 
L 794 0 
L 794 531 
z
" transform="scale(0.015625)"/>
      <path id="DejaVuSans-38" d="M 2034 2216 
Q 1584 2216 1326 1975 
Q 1069 1734 1069 1313 
Q 1069 891 1326 650 
Q 1584 409 2034 409 
Q 2484 409 2743 651 
Q 3003 894 3003 1313 
Q 3003 1734 2745 1975 
Q 2488 2216 2034 2216 
z
M 1403 2484 
Q 997 2584 770 2862 
Q 544 3141 544 3541 
Q 544 4100 942 4425 
Q 1341 4750 2034 4750 
Q 2731 4750 3128 4425 
Q 3525 4100 3525 3541 
Q 3525 3141 3298 2862 
Q 3072 2584 2669 2484 
Q 3125 2378 3379 2068 
Q 3634 1759 3634 1313 
Q 3634 634 3220 271 
Q 2806 -91 2034 -91 
Q 1263 -91 848 271 
Q 434 634 434 1313 
Q 434 1759 690 2068 
Q 947 2378 1403 2484 
z
M 1172 3481 
Q 1172 3119 1398 2916 
Q 1625 2713 2034 2713 
Q 2441 2713 2670 2916 
Q 2900 3119 2900 3481 
Q 2900 3844 2670 4047 
Q 2441 4250 2034 4250 
Q 1625 4250 1398 4047 
Q 1172 3844 1172 3481 
z
" transform="scale(0.015625)"/>
      <path id="DejaVuSans-2e" d="M 684 794 
L 1344 794 
L 1344 0 
L 684 0 
L 684 794 
z
" transform="scale(0.015625)"/>
      <path id="DejaVuSans-32" d="M 1228 531 
L 3431 531 
L 3431 0 
L 469 0 
L 469 531 
Q 828 903 1448 1529 
Q 2069 2156 2228 2338 
Q 2531 2678 2651 2914 
Q 2772 3150 2772 3378 
Q 2772 3750 2511 3984 
Q 2250 4219 1831 4219 
Q 1534 4219 1204 4116 
Q 875 4013 500 3803 
L 500 4441 
Q 881 4594 1212 4672 
Q 1544 4750 1819 4750 
Q 2544 4750 2975 4387 
Q 3406 4025 3406 3419 
Q 3406 3131 3298 2873 
Q 3191 2616 2906 2266 
Q 2828 2175 2409 1742 
Q 1991 1309 1228 531 
z
" transform="scale(0.015625)"/>
      <path id="DejaVuSans-b0" d="M 1600 4347 
Q 1350 4347 1178 4173 
Q 1006 4000 1006 3750 
Q 1006 3503 1178 3333 
Q 1350 3163 1600 3163 
Q 1850 3163 2022 3333 
Q 2194 3503 2194 3750 
Q 2194 3997 2020 4172 
Q 1847 4347 1600 4347 
z
M 1600 4750 
Q 1800 4750 1984 4673 
Q 2169 4597 2303 4453 
Q 2447 4313 2519 4134 
Q 2591 3956 2591 3750 
Q 2591 3338 2302 3052 
Q 2013 2766 1594 2766 
Q 1172 2766 890 3047 
Q 609 3328 609 3750 
Q 609 4169 896 4459 
Q 1184 4750 1600 4750 
z
" transform="scale(0.015625)"/>
     </defs>
     <use xlink:href="#DejaVuSans-43"/>
     <use xlink:href="#DejaVuSans-72" x="69.824219"/>
     <use xlink:href="#DejaVuSans-6f" x="108.6875"/>
     <use xlink:href="#DejaVuSans-79" x="169.869141"/>
     <use xlink:href="#DejaVuSans-6c" x="229.048828"/>
     <use xlink:href="#DejaVuSans-65" x="256.832031"/>
     <use xlink:href="#DejaVuSans-20" x="318.355469"/>
     <use xlink:href="#DejaVuSans-31" x="350.142578"/>
     <use xlink:href="#DejaVuSans-38" x="413.765625"/>
     <use xlink:href="#DejaVuSans-2e" x="477.388672"/>
     <use xlink:href="#DejaVuSans-32" x="509.175781"/>
     <use xlink:href="#DejaVuSans-b0" x="572.798828"/>
    </g>
   </g>
   <g id="text_7">
    <g id="patch_8">
     <path d="M 41.893961 65.147905 
L 59.008883 64.127523 
L 58.891306 62.1554 
L 41.776384 63.175782 
z
" style="fill: #ffffff"/>
    </g>
    <!-- North Bowl 20.3째 -->
    <g style="fill: #4169e1" transform="translate(41.887982 64.71155)rotate(-3.411905)scale(0.02 -0.02)">
     <defs>
      <path id="DejaVuSans-4e" d="M 628 4666 
L 1478 4666 
L 3547 763 
L 3547 4666 
L 4159 4666 
L 4159 0 
L 3309 0 
L 1241 3903 
L 1241 0 
L 628 0 
L 628 4666 
z
" transform="scale(0.015625)"/>
      <path id="DejaVuSans-74" d="M 1172 4494 
L 1172 3500 
L 2356 3500 
L 2356 3053 
L 1172 3053 
L 1172 1153 
Q 1172 725 1289 603 
Q 1406 481 1766 481 
L 2356 481 
L 2356 0 
L 1766 0 
Q 1100 0 847 248 
Q 594 497 594 1153 
L 594 3053 
L 172 3053 
L 172 3500 
L 594 3500 
L 594 4494 
L 1172 4494 
z
" transform="scale(0.015625)"/>
      <path id="DejaVuSans-68" d="M 3513 2113 
L 3513 0 
L 2938 0 
L 2938 2094 
Q 2938 2591 2744 2837 
Q 2550 3084 2163 3084 
Q 1697 3084 1428 2787 
Q 1159 2491 1159 1978 
L 1159 0 
L 581 0 
L 581 4863 
L 1159 4863 
L 1159 2956 
Q 1366 3272 1645 3428 
Q 1925 3584 2291 3584 
Q 2894 3584 3203 3211 
Q 3513 2838 3513 2113 
z
" transform="scale(0.015625)"/>
      <path id="DejaVuSans-42" d="M 1259 2228 
L 1259 519 
L 2272 519 
Q 2781 519 3026 730 
Q 3272 941 3272 1375 
Q 3272 1813 3026 2020 
Q 2781 2228 2272 2228 
L 1259 2228 
z
M 1259 4147 
L 1259 2741 
L 2194 2741 
Q 2656 2741 2882 2914 
Q 3109 3088 3109 3444 
Q 3109 3797 2882 3972 
Q 2656 4147 2194 4147 
L 1259 4147 
z
M 628 4666 
L 2241 4666 
Q 2963 4666 3353 4366 
Q 3744 4066 3744 3513 
Q 3744 3084 3544 2831 
Q 3344 2578 2956 2516 
Q 3422 2416 3680 2098 
Q 3938 1781 3938 1306 
Q 3938 681 3513 340 
Q 3088 0 2303 0 
L 628 0 
L 628 4666 
z
" transform="scale(0.015625)"/>
      <path id="DejaVuSans-77" d="M 269 3500 
L 844 3500 
L 1563 769 
L 2278 3500 
L 2956 3500 
L 3675 769 
L 4391 3500 
L 4966 3500 
L 4050 0 
L 3372 0 
L 2619 2869 
L 1863 0 
L 1184 0 
L 269 3500 
z
" transform="scale(0.015625)"/>
      <path id="DejaVuSans-30" d="M 2034 4250 
Q 1547 4250 1301 3770 
Q 1056 3291 1056 2328 
Q 1056 1369 1301 889 
Q 1547 409 2034 409 
Q 2525 409 2770 889 
Q 3016 1369 3016 2328 
Q 3016 3291 2770 3770 
Q 2525 4250 2034 4250 
z
M 2034 4750 
Q 2819 4750 3233 4129 
Q 3647 3509 3647 2328 
Q 3647 1150 3233 529 
Q 2819 -91 2034 -91 
Q 1250 -91 836 529 
Q 422 1150 422 2328 
Q 422 3509 836 4129 
Q 1250 4750 2034 4750 
z
" transform="scale(0.015625)"/>
      <path id="DejaVuSans-33" d="M 2597 2516 
Q 3050 2419 3304 2112 
Q 3559 1806 3559 1356 
Q 3559 666 3084 287 
Q 2609 -91 1734 -91 
Q 1441 -91 1130 -33 
Q 819 25 488 141 
L 488 750 
Q 750 597 1062 519 
Q 1375 441 1716 441 
Q 2309 441 2620 675 
Q 2931 909 2931 1356 
Q 2931 1769 2642 2001 
Q 2353 2234 1838 2234 
L 1294 2234 
L 1294 2753 
L 1863 2753 
Q 2328 2753 2575 2939 
Q 2822 3125 2822 3475 
Q 2822 3834 2567 4026 
Q 2313 4219 1838 4219 
Q 1578 4219 1281 4162 
Q 984 4106 628 3988 
L 628 4550 
Q 988 4650 1302 4700 
Q 1616 4750 1894 4750 
Q 2613 4750 3031 4423 
Q 3450 4097 3450 3541 
Q 3450 3153 3228 2886 
Q 3006 2619 2597 2516 
z
" transform="scale(0.015625)"/>
     </defs>
     <use xlink:href="#DejaVuSans-4e"/>
     <use xlink:href="#DejaVuSans-6f" x="74.804688"/>
     <use xlink:href="#DejaVuSans-72" x="135.986328"/>
     <use xlink:href="#DejaVuSans-74" x="177.099609"/>
     <use xlink:href="#DejaVuSans-68" x="216.308594"/>
     <use xlink:href="#DejaVuSans-20" x="279.6875"/>
     <use xlink:href="#DejaVuSans-42" x="311.474609"/>
     <use xlink:href="#DejaVuSans-6f" x="380.078125"/>
     <use xlink:href="#DejaVuSans-77" x="441.259766"/>
     <use xlink:href="#DejaVuSans-6c" x="523.046875"/>
     <use xlink:href="#DejaVuSans-20" x="550.830078"/>
     <use xlink:href="#DejaVuSans-32" x="582.617188"/>
     <use xlink:href="#DejaVuSans-30" x="646.240234"/>
     <use xlink:href="#DejaVuSans-2e" x="709.863281"/>
     <use xlink:href="#DejaVuSans-33" x="741.650391"/>
     <use xlink:href="#DejaVuSans-b0" x="805.273438"/>
    </g>
   </g>
   <g id="text_8">
    <g id="patch_9">
     <path d="M 43.354158 54.850175 
L 61.329878 50.048676 
L 60.820043 48.139969 
L 42.844323 52.941468 
z
" style="fill: #ffffff"/>
    </g>
    <!-- Peter's Pride 13.8째 -->
    <g style="fill: #008000" transform="translate(43.260981 54.423842)rotate(-14.955142)scale(0.02 -0.02)">
     <defs>
      <path id="DejaVuSans-50" d="M 1259 4147 
L 1259 2394 
L 2053 2394 
Q 2494 2394 2734 2622 
Q 2975 2850 2975 3272 
Q 2975 3691 2734 3919 
Q 2494 4147 2053 4147 
L 1259 4147 
z
M 628 4666 
L 2053 4666 
Q 2838 4666 3239 4311 
Q 3641 3956 3641 3272 
Q 3641 2581 3239 2228 
Q 2838 1875 2053 1875 
L 1259 1875 
L 1259 0 
L 628 0 
L 628 4666 
z
" transform="scale(0.015625)"/>
      <path id="DejaVuSans-27" d="M 1147 4666 
L 1147 2931 
L 616 2931 
L 616 4666 
L 1147 4666 
z
" transform="scale(0.015625)"/>
      <path id="DejaVuSans-73" d="M 2834 3397 
L 2834 2853 
Q 2591 2978 2328 3040 
Q 2066 3103 1784 3103 
Q 1356 3103 1142 2972 
Q 928 2841 928 2578 
Q 928 2378 1081 2264 
Q 1234 2150 1697 2047 
L 1894 2003 
Q 2506 1872 2764 1633 
Q 3022 1394 3022 966 
Q 3022 478 2636 193 
Q 2250 -91 1575 -91 
Q 1294 -91 989 -36 
Q 684 19 347 128 
L 347 722 
Q 666 556 975 473 
Q 1284 391 1588 391 
Q 1994 391 2212 530 
Q 2431 669 2431 922 
Q 2431 1156 2273 1281 
Q 2116 1406 1581 1522 
L 1381 1569 
Q 847 1681 609 1914 
Q 372 2147 372 2553 
Q 372 3047 722 3315 
Q 1072 3584 1716 3584 
Q 2034 3584 2315 3537 
Q 2597 3491 2834 3397 
z
" transform="scale(0.015625)"/>
      <path id="DejaVuSans-69" d="M 603 3500 
L 1178 3500 
L 1178 0 
L 603 0 
L 603 3500 
z
M 603 4863 
L 1178 4863 
L 1178 4134 
L 603 4134 
L 603 4863 
z
" transform="scale(0.015625)"/>
      <path id="DejaVuSans-64" d="M 2906 2969 
L 2906 4863 
L 3481 4863 
L 3481 0 
L 2906 0 
L 2906 525 
Q 2725 213 2448 61 
Q 2172 -91 1784 -91 
Q 1150 -91 751 415 
Q 353 922 353 1747 
Q 353 2572 751 3078 
Q 1150 3584 1784 3584 
Q 2172 3584 2448 3432 
Q 2725 3281 2906 2969 
z
M 947 1747 
Q 947 1113 1208 752 
Q 1469 391 1925 391 
Q 2381 391 2643 752 
Q 2906 1113 2906 1747 
Q 2906 2381 2643 2742 
Q 2381 3103 1925 3103 
Q 1469 3103 1208 2742 
Q 947 2381 947 1747 
z
" transform="scale(0.015625)"/>
     </defs>
     <use xlink:href="#DejaVuSans-50"/>
     <use xlink:href="#DejaVuSans-65" x="56.677734"/>
     <use xlink:href="#DejaVuSans-74" x="118.201172"/>
     <use xlink:href="#DejaVuSans-65" x="157.410156"/>
     <use xlink:href="#DejaVuSans-72" x="218.933594"/>
     <use xlink:href="#DejaVuSans-27" x="260.046875"/>
     <use xlink:href="#DejaVuSans-73" x="287.537109"/>
     <use xlink:href="#DejaVuSans-20" x="339.636719"/>
     <use xlink:href="#DejaVuSans-50" x="371.423828"/>
     <use xlink:href="#DejaVuSans-72" x="429.976562"/>
     <use xlink:href="#DejaVuSans-69" x="471.089844"/>
     <use xlink:href="#DejaVuSans-64" x="498.873047"/>
     <use xlink:href="#DejaVuSans-65" x="562.349609"/>
     <use xlink:href="#DejaVuSans-20" x="623.873047"/>
     <use xlink:href="#DejaVuSans-31" x="655.660156"/>
     <use xlink:href="#DejaVuSans-33" x="719.283203"/>
     <use xlink:href="#DejaVuSans-2e" x="782.90625"/>
     <use xlink:href="#DejaVuSans-38" x="814.693359"/>
     <use xlink:href="#DejaVuSans-b0" x="878.316406"/>
    </g>
   </g>
   <g id="text_9">
    <g id="patch_10">
     <path d="M 33.335592 31.983197 
L 40.549623 17.06392 
L 38.771013 16.203896 
L 31.556983 31.123172 
z
" style="fill: #ffffff"/>
    </g>
    <!-- Buttermilk 13.7째 -->
    <g style="fill: #008000" transform="translate(32.951834 31.77542)rotate(-64.19449)scale(0.02 -0.02)">
     <defs>
      <path id="DejaVuSans-75" d="M 544 1381 
L 544 3500 
L 1119 3500 
L 1119 1403 
Q 1119 906 1312 657 
Q 1506 409 1894 409 
Q 2359 409 2629 706 
Q 2900 1003 2900 1516 
L 2900 3500 
L 3475 3500 
L 3475 0 
L 2900 0 
L 2900 538 
Q 2691 219 2414 64 
Q 2138 -91 1772 -91 
Q 1169 -91 856 284 
Q 544 659 544 1381 
z
M 1991 3584 
L 1991 3584 
z
" transform="scale(0.015625)"/>
      <path id="DejaVuSans-6d" d="M 3328 2828 
Q 3544 3216 3844 3400 
Q 4144 3584 4550 3584 
Q 5097 3584 5394 3201 
Q 5691 2819 5691 2113 
L 5691 0 
L 5113 0 
L 5113 2094 
Q 5113 2597 4934 2840 
Q 4756 3084 4391 3084 
Q 3944 3084 3684 2787 
Q 3425 2491 3425 1978 
L 3425 0 
L 2847 0 
L 2847 2094 
Q 2847 2600 2669 2842 
Q 2491 3084 2119 3084 
Q 1678 3084 1418 2786 
Q 1159 2488 1159 1978 
L 1159 0 
L 581 0 
L 581 3500 
L 1159 3500 
L 1159 2956 
Q 1356 3278 1631 3431 
Q 1906 3584 2284 3584 
Q 2666 3584 2933 3390 
Q 3200 3197 3328 2828 
z
" transform="scale(0.015625)"/>
      <path id="DejaVuSans-6b" d="M 581 4863 
L 1159 4863 
L 1159 1991 
L 2875 3500 
L 3609 3500 
L 1753 1863 
L 3688 0 
L 2938 0 
L 1159 1709 
L 1159 0 
L 581 0 
L 581 4863 
z
" transform="scale(0.015625)"/>
      <path id="DejaVuSans-37" d="M 525 4666 
L 3525 4666 
L 3525 4397 
L 1831 0 
L 1172 0 
L 2766 4134 
L 525 4134 
L 525 4666 
z
" transform="scale(0.015625)"/>
     </defs>
     <use xlink:href="#DejaVuSans-42"/>
     <use xlink:href="#DejaVuSans-75" x="68.603516"/>
     <use xlink:href="#DejaVuSans-74" x="131.982422"/>
     <use xlink:href="#DejaVuSans-74" x="171.191406"/>
     <use xlink:href="#DejaVuSans-65" x="210.400391"/>
     <use xlink:href="#DejaVuSans-72" x="271.923828"/>
     <use xlink:href="#DejaVuSans-6d" x="311.287109"/>
     <use xlink:href="#DejaVuSans-69" x="408.699219"/>
     <use xlink:href="#DejaVuSans-6c" x="436.482422"/>
     <use xlink:href="#DejaVuSans-6b" x="464.265625"/>
     <use xlink:href="#DejaVuSans-20" x="522.175781"/>
     <use xlink:href="#DejaVuSans-31" x="553.962891"/>
     <use xlink:href="#DejaVuSans-33" x="617.585938"/>
     <use xlink:href="#DejaVuSans-2e" x="681.208984"/>
     <use xlink:href="#DejaVuSans-37" x="712.996094"/>
     <use xlink:href="#DejaVuSans-b0" x="776.619141"/>
    </g>
   </g>
   <g id="text_10">
    <!-- Boston Mills -->
    <g transform="translate(20.455684 5.36491)scale(0.05 -0.05)">
     <defs>
      <path id="DejaVuSans-6e" d="M 3513 2113 
L 3513 0 
L 2938 0 
L 2938 2094 
Q 2938 2591 2744 2837 
Q 2550 3084 2163 3084 
Q 1697 3084 1428 2787 
Q 1159 2491 1159 1978 
L 1159 0 
L 581 0 
L 581 3500 
L 1159 3500 
L 1159 2956 
Q 1366 3272 1645 3428 
Q 1925 3584 2291 3584 
Q 2894 3584 3203 3211 
Q 3513 2838 3513 2113 
z
" transform="scale(0.015625)"/>
      <path id="DejaVuSans-4d" d="M 628 4666 
L 1569 4666 
L 2759 1491 
L 3956 4666 
L 4897 4666 
L 4897 0 
L 4281 0 
L 4281 4097 
L 3078 897 
L 2444 897 
L 1241 4097 
L 1241 0 
L 628 0 
L 628 4666 
z
" transform="scale(0.015625)"/>
     </defs>
     <use xlink:href="#DejaVuSans-42"/>
     <use xlink:href="#DejaVuSans-6f" x="68.603516"/>
     <use xlink:href="#DejaVuSans-73" x="129.785156"/>
     <use xlink:href="#DejaVuSans-74" x="181.884766"/>
     <use xlink:href="#DejaVuSans-6f" x="221.09375"/>
     <use xlink:href="#DejaVuSans-6e" x="282.275391"/>
     <use xlink:href="#DejaVuSans-20" x="345.654297"/>
     <use xlink:href="#DejaVuSans-4d" x="377.441406"/>
     <use xlink:href="#DejaVuSans-69" x="463.720703"/>
     <use xlink:href="#DejaVuSans-6c" x="491.503906"/>
     <use xlink:href="#DejaVuSans-6c" x="519.287109"/>
     <use xlink:href="#DejaVuSans-73" x="547.070312"/>
    </g>
   </g>
  </g>
  <g id="text_11">
   <!-- Sources: USGS and OpenStreetMaps -->
   <g transform="translate(15.604257 84.713333)scale(0.021739 -0.021739)">
    <defs>
     <path id="DejaVuSans-53" d="M 3425 4513 
L 3425 3897 
Q 3066 4069 2747 4153 
Q 2428 4238 2131 4238 
Q 1616 4238 1336 4038 
Q 1056 3838 1056 3469 
Q 1056 3159 1242 3001 
Q 1428 2844 1947 2747 
L 2328 2669 
Q 3034 2534 3370 2195 
Q 3706 1856 3706 1288 
Q 3706 609 3251 259 
Q 2797 -91 1919 -91 
Q 1588 -91 1214 -16 
Q 841 59 441 206 
L 441 856 
Q 825 641 1194 531 
Q 1563 422 1919 422 
Q 2459 422 2753 634 
Q 3047 847 3047 1241 
Q 3047 1584 2836 1778 
Q 2625 1972 2144 2069 
L 1759 2144 
Q 1053 2284 737 2584 
Q 422 2884 422 3419 
Q 422 4038 858 4394 
Q 1294 4750 2059 4750 
Q 2388 4750 2728 4690 
Q 3069 4631 3425 4513 
z
" transform="scale(0.015625)"/>
     <path id="DejaVuSans-63" d="M 3122 3366 
L 3122 2828 
Q 2878 2963 2633 3030 
Q 2388 3097 2138 3097 
Q 1578 3097 1268 2742 
Q 959 2388 959 1747 
Q 959 1106 1268 751 
Q 1578 397 2138 397 
Q 2388 397 2633 464 
Q 2878 531 3122 666 
L 3122 134 
Q 2881 22 2623 -34 
Q 2366 -91 2075 -91 
Q 1284 -91 818 406 
Q 353 903 353 1747 
Q 353 2603 823 3093 
Q 1294 3584 2113 3584 
Q 2378 3584 2631 3529 
Q 2884 3475 3122 3366 
z
" transform="scale(0.015625)"/>
     <path id="DejaVuSans-3a" d="M 750 794 
L 1409 794 
L 1409 0 
L 750 0 
L 750 794 
z
M 750 3309 
L 1409 3309 
L 1409 2516 
L 750 2516 
L 750 3309 
z
" transform="scale(0.015625)"/>
     <path id="DejaVuSans-55" d="M 556 4666 
L 1191 4666 
L 1191 1831 
Q 1191 1081 1462 751 
Q 1734 422 2344 422 
Q 2950 422 3222 751 
Q 3494 1081 3494 1831 
L 3494 4666 
L 4128 4666 
L 4128 1753 
Q 4128 841 3676 375 
Q 3225 -91 2344 -91 
Q 1459 -91 1007 375 
Q 556 841 556 1753 
L 556 4666 
z
" transform="scale(0.015625)"/>
     <path id="DejaVuSans-47" d="M 3809 666 
L 3809 1919 
L 2778 1919 
L 2778 2438 
L 4434 2438 
L 4434 434 
Q 4069 175 3628 42 
Q 3188 -91 2688 -91 
Q 1594 -91 976 548 
Q 359 1188 359 2328 
Q 359 3472 976 4111 
Q 1594 4750 2688 4750 
Q 3144 4750 3555 4637 
Q 3966 4525 4313 4306 
L 4313 3634 
Q 3963 3931 3569 4081 
Q 3175 4231 2741 4231 
Q 1884 4231 1454 3753 
Q 1025 3275 1025 2328 
Q 1025 1384 1454 906 
Q 1884 428 2741 428 
Q 3075 428 3337 486 
Q 3600 544 3809 666 
z
" transform="scale(0.015625)"/>
     <path id="DejaVuSans-61" d="M 2194 1759 
Q 1497 1759 1228 1600 
Q 959 1441 959 1056 
Q 959 750 1161 570 
Q 1363 391 1709 391 
Q 2188 391 2477 730 
Q 2766 1069 2766 1631 
L 2766 1759 
L 2194 1759 
z
M 3341 1997 
L 3341 0 
L 2766 0 
L 2766 531 
Q 2569 213 2275 61 
Q 1981 -91 1556 -91 
Q 1019 -91 701 211 
Q 384 513 384 1019 
Q 384 1609 779 1909 
Q 1175 2209 1959 2209 
L 2766 2209 
L 2766 2266 
Q 2766 2663 2505 2880 
Q 2244 3097 1772 3097 
Q 1472 3097 1187 3025 
Q 903 2953 641 2809 
L 641 3341 
Q 956 3463 1253 3523 
Q 1550 3584 1831 3584 
Q 2591 3584 2966 3190 
Q 3341 2797 3341 1997 
z
" transform="scale(0.015625)"/>
     <path id="DejaVuSans-4f" d="M 2522 4238 
Q 1834 4238 1429 3725 
Q 1025 3213 1025 2328 
Q 1025 1447 1429 934 
Q 1834 422 2522 422 
Q 3209 422 3611 934 
Q 4013 1447 4013 2328 
Q 4013 3213 3611 3725 
Q 3209 4238 2522 4238 
z
M 2522 4750 
Q 3503 4750 4090 4092 
Q 4678 3434 4678 2328 
Q 4678 1225 4090 567 
Q 3503 -91 2522 -91 
Q 1538 -91 948 565 
Q 359 1222 359 2328 
Q 359 3434 948 4092 
Q 1538 4750 2522 4750 
z
" transform="scale(0.015625)"/>
     <path id="DejaVuSans-70" d="M 1159 525 
L 1159 -1331 
L 581 -1331 
L 581 3500 
L 1159 3500 
L 1159 2969 
Q 1341 3281 1617 3432 
Q 1894 3584 2278 3584 
Q 2916 3584 3314 3078 
Q 3713 2572 3713 1747 
Q 3713 922 3314 415 
Q 2916 -91 2278 -91 
Q 1894 -91 1617 61 
Q 1341 213 1159 525 
z
M 3116 1747 
Q 3116 2381 2855 2742 
Q 2594 3103 2138 3103 
Q 1681 3103 1420 2742 
Q 1159 2381 1159 1747 
Q 1159 1113 1420 752 
Q 1681 391 2138 391 
Q 2594 391 2855 752 
Q 3116 1113 3116 1747 
z
" transform="scale(0.015625)"/>
    </defs>
    <use xlink:href="#DejaVuSans-53"/>
    <use xlink:href="#DejaVuSans-6f" x="63.476562"/>
    <use xlink:href="#DejaVuSans-75" x="124.658203"/>
    <use xlink:href="#DejaVuSans-72" x="188.037109"/>
    <use xlink:href="#DejaVuSans-63" x="226.900391"/>
    <use xlink:href="#DejaVuSans-65" x="281.880859"/>
    <use xlink:href="#DejaVuSans-73" x="343.404297"/>
    <use xlink:href="#DejaVuSans-3a" x="395.503906"/>
    <use xlink:href="#DejaVuSans-20" x="429.195312"/>
    <use xlink:href="#DejaVuSans-55" x="460.982422"/>
    <use xlink:href="#DejaVuSans-53" x="534.175781"/>
    <use xlink:href="#DejaVuSans-47" x="597.652344"/>
    <use xlink:href="#DejaVuSans-53" x="675.142578"/>
    <use xlink:href="#DejaVuSans-20" x="738.619141"/>
    <use xlink:href="#DejaVuSans-61" x="770.40625"/>
    <use xlink:href="#DejaVuSans-6e" x="831.685547"/>
    <use xlink:href="#DejaVuSans-64" x="895.064453"/>
    <use xlink:href="#DejaVuSans-20" x="958.541016"/>
    <use xlink:href="#DejaVuSans-4f" x="990.328125"/>
    <use xlink:href="#DejaVuSans-70" x="1069.039062"/>
    <use xlink:href="#DejaVuSans-65" x="1132.515625"/>
    <use xlink:href="#DejaVuSans-6e" x="1194.039062"/>
    <use xlink:href="#DejaVuSans-53" x="1257.417969"/>
    <use xlink:href="#DejaVuSans-74" x="1320.894531"/>
    <use xlink:href="#DejaVuSans-72" x="1360.103516"/>
    <use xlink:href="#DejaVuSans-65" x="1398.966797"/>
    <use xlink:href="#DejaVuSans-65" x="1460.490234"/>
    <use xlink:href="#DejaVuSans-74" x="1522.013672"/>
    <use xlink:href="#DejaVuSans-4d" x="1561.222656"/>
    <use xlink:href="#DejaVuSans-61" x="1647.501953"/>
    <use xlink:href="#DejaVuSans-70" x="1708.78125"/>
    <use xlink:href="#DejaVuSans-73" x="1772.257812"/>
   </g>
  </g>
 </g>
 <defs>
  <clipPath id="p480f5cd9f5">
   <rect x="0" y="7.86491" width="70.86918" height="69.435619"/>
  </clipPath>
 </defs>
</svg>
