<?xml version="1.0" encoding="utf-8" standalone="no"?>
<!DOCTYPE svg PUBLIC "-//W3C//DTD SVG 1.1//EN"
  "http://www.w3.org/Graphics/SVG/1.1/DTD/svg11.dtd">
<svg height="123.430818pt" version="1.1" viewBox="0 0 88.56448 123.430818" width="88.56448pt" xmlns="http://www.w3.org/2000/svg" xmlns:xlink="http://www.w3.org/1999/xlink">
 <metadata>
  <rdf:RDF xmlns:cc="http://creativecommons.org/ns#" xmlns:dc="http://purl.org/dc/elements/1.1/" xmlns:rdf="http://www.w3.org/1999/02/22-rdf-syntax-ns#">
   <cc:Work>
    <dc:type rdf:resource="http://purl.org/dc/dcmitype/StillImage"/>
    <dc:date>2022-05-19T22:09:49.249070</dc:date>
    <dc:format>image/svg+xml</dc:format>
    <dc:creator>
     <cc:Agent>
      <dc:title>Matplotlib v3.4.3, https://matplotlib.org/</dc:title>
     </cc:Agent>
    </dc:creator>
   </cc:Work>
  </rdf:RDF>
 </metadata>
 <defs>
  <style type="text/css">*{stroke-linecap:butt;stroke-linejoin:round;}</style>
 </defs>
 <g id="figure_1">
  <g id="patch_1">
   <path d="M 0 123.430818 
L 88.56448 123.430818 
L 88.56448 0 
L 0 0 
z
" style="fill:#ffffff;"/>
  </g>
  <g id="axes_1">
   <g id="line2d_1">
    <path clip-path="url(#pa520567bc5)" d="M 13.957522 21.776979 
" style="fill:none;stroke:#008000;stroke-linecap:square;stroke-width:0.001;"/>
   </g>
   <g id="line2d_2">
    <path clip-path="url(#pa520567bc5)" d="M 13.957522 21.776979 
" style="fill:none;stroke:#4169e1;stroke-linecap:square;stroke-width:0.001;"/>
   </g>
   <g id="line2d_3">
    <path clip-path="url(#pa520567bc5)" d="M 13.957522 21.776979 
" style="fill:none;stroke:#000000;stroke-linecap:square;stroke-width:0.001;"/>
   </g>
   <g id="line2d_4">
    <path clip-path="url(#pa520567bc5)" d="M 13.957522 21.776979 
" style="fill:none;stroke:#ff0000;stroke-linecap:square;stroke-width:0.001;"/>
   </g>
   <g id="line2d_5">
    <path clip-path="url(#pa520567bc5)" d="M 13.957522 21.776979 
" style="fill:none;stroke:#ffd700;stroke-linecap:square;stroke-width:0.001;"/>
   </g>
   <g id="line2d_6">
    <path clip-path="url(#pa520567bc5)" d="M 13.957522 21.776979 
" style="fill:none;stroke:#000000;stroke-dasharray:0.001,0.00165;stroke-dashoffset:0;stroke-width:0.001;"/>
   </g>
   <g id="line2d_7">
    <path clip-path="url(#pa520567bc5)" d="M 75.857357 109.37459 
L 73.86749 106.653717 
L 71.877624 103.932844 
L 69.887758 101.211971 
L 67.897891 98.491098 
L 65.908025 95.770226 
L 63.918159 93.049353 
L 61.928293 90.32848 
L 59.938426 87.607607 
L 57.94856 84.886734 
L 55.958694 82.165861 
L 53.968827 79.444989 
L 51.978961 76.724116 
L 49.989095 74.003243 
L 47.999229 71.28237 
L 46.009362 68.561497 
L 44.019496 65.840624 
L 42.02963 63.119751 
L 40.039763 60.398879 
L 38.049897 57.678006 
L 36.060031 54.957133 
L 34.070164 52.23626 
L 32.080298 49.515387 
L 30.090432 46.794514 
L 28.100566 44.073642 
L 26.110699 41.352769 
L 24.120833 38.631896 
L 22.130967 35.911023 
L 20.1411 33.19015 
L 18.151234 30.469277 
L 16.161368 27.748405 
L 14.171502 25.027532 
L 12.181635 22.306659 
" style="fill:none;stroke:#808080;stroke-linecap:square;stroke-width:0.410021;"/>
   </g>
   <g id="line2d_8">
    <path clip-path="url(#pa520567bc5)" d="M 13.957522 21.776979 
L 14.999763 21.396677 
L 16.042005 21.016376 
L 17.084247 20.636074 
L 18.126488 20.255772 
L 19.15854 19.879709 
L 20.190592 19.503647 
L 21.073805 18.758006 
L 21.957017 18.012365 
L 22.84023 17.266724 
L 23.723442 16.521083 
L 24.686351 16.047015 
L 25.64926 15.572947 
L 26.612169 15.098879 
L 27.575078 14.62481 
L 28.941564 14.482665 
L 30.308051 14.340519 
L 31.674537 14.198374 
L 33.041024 14.056228 
L 34.000294 14.873191 
L 34.959563 15.690154 
L 35.918833 16.507118 
L 36.878103 17.324081 
L 38.220207 18.697656 
L 38.604498 18.887184 
L 39.294473 19.673723 
L 39.984449 20.460262 
L 40.674424 21.246801 
L 41.3644 22.03334 
L 42.344049 23.150555 
L 42.919392 24.25767 
L 43.494736 25.364785 
L 44.07008 26.471899 
L 44.645423 27.579014 
L 45.220767 28.686129 
L 45.79611 29.793244 
L 46.371454 30.900359 
L 46.946797 32.007474 
L 47.678259 33.286286 
L 48.40972 34.565097 
L 49.141182 35.843909 
L 49.872643 37.122721 
L 50.184151 38.0938 
L 50.495659 39.064879 
L 50.807167 40.035958 
L 51.118675 41.007037 
L 51.550274 42.688595 
L 51.981872 44.370152 
L 52.413471 46.05171 
L 52.84507 47.733268 
L 53.480459 49.473928 
L 54.115847 51.214588 
L 54.751236 52.955249 
L 55.386625 54.695909 
L 55.84206 55.672724 
L 56.297495 56.649539 
L 56.75293 57.626353 
L 57.208365 58.603168 
L 57.663799 59.579983 
L 58.119234 60.556797 
L 58.574669 61.533612 
L 59.030104 62.510427 
L 59.509739 63.499212 
L 59.989374 64.487997 
L 60.469009 65.476781 
L 60.948644 66.465566 
L 61.428279 67.454351 
L 61.907913 68.443136 
L 62.387548 69.431921 
L 62.867183 70.420706 
L 63.526226 72.244409 
L 64.18527 74.068112 
L 64.844313 75.891816 
L 65.503356 77.715519 
L 66.031027 79.053434 
L 66.558698 80.391348 
L 67.086369 81.729262 
L 67.614041 83.067177 
L 67.865867 84.582898 
L 68.117694 86.098619 
L 68.36952 87.61434 
L 68.621347 89.130061 
L 69.232354 90.953515 
L 69.84336 92.776969 
L 70.454367 94.600423 
L 71.065374 96.423877 
L 71.539005 97.35942 
L 72.012635 98.294962 
L 72.486265 99.230505 
L 72.959896 100.166048 
L 73.433526 101.10159 
L 73.907157 102.037133 
L 74.380787 102.972675 
L 74.854417 103.908218 
L 75.261998 104.831915 
L 75.669578 105.755612 
" style="fill:none;stroke:#4169e1;stroke-linecap:square;stroke-width:0.410021;"/>
   </g>
   <g id="line2d_9">
    <path clip-path="url(#pa520567bc5)" d="M 38.604498 18.887184 
L 40.138747 19.112123 
L 41.672997 19.337062 
L 43.207246 19.562002 
L 44.741496 19.786941 
L 46.419854 20.106768 
L 48.098212 20.426596 
L 49.776571 20.746424 
L 51.454929 21.066251 
L 53.133287 21.386079 
L 54.811646 21.705907 
L 56.490004 22.025734 
L 58.168362 22.345562 
L 59.534849 22.890204 
L 60.901335 23.434846 
L 62.267822 23.979488 
L 63.634308 24.52413 
L 64.401433 25.566033 
L 65.168558 26.607935 
L 65.935682 27.649838 
L 66.702807 28.69174 
L 67.350205 30.207461 
L 67.997603 31.723182 
L 68.645001 33.238904 
L 69.292399 34.754625 
L 70.251305 35.702013 
L 71.210211 36.649401 
L 72.169117 37.596789 
L 73.128023 38.544177 
L 74.422455 39.633461 
L 75.716887 40.722746 
L 77.011319 41.81203 
L 78.305751 42.901314 
L 78.929131 43.730248 
L 79.552511 44.559181 
L 80.17589 45.388114 
L 80.79927 46.217048 
L 81.111142 47.188127 
L 81.423014 48.159206 
L 81.734886 49.130285 
L 82.046758 50.101364 
L 81.591141 51.285412 
L 81.135524 52.46946 
L 80.679907 53.653508 
L 80.224291 54.837556 
L 80.415708 55.974222 
L 80.607125 57.110888 
L 81.326578 58.342568 
L 82.04603 59.574247 
L 82.765482 60.805926 
L 83.484935 62.037606 
L 83.436898 63.12689 
L 83.388862 64.216174 
L 83.340826 65.305459 
L 83.29279 66.394743 
L 83.364844 68.218197 
L 83.436898 70.041651 
L 83.508953 71.865105 
L 83.581007 73.688559 
L 83.581007 75.015002 
L 83.581007 76.341445 
L 83.581007 77.667888 
L 83.581007 78.994331 
L 83.724752 80.107306 
L 83.868497 81.220281 
L 84.012242 82.333257 
L 84.155987 83.446232 
L 84.347404 85.056717 
L 84.538821 86.667202 
L 84.155987 88.561479 
L 83.652698 89.508867 
L 83.149409 90.456255 
L 82.646119 91.403643 
L 82.14283 92.351031 
L 81.423378 93.345801 
L 80.703926 94.340571 
L 79.984473 95.335341 
L 79.265021 96.330111 
L 78.929495 97.608923 
L 78.593969 98.887735 
L 78.378169 99.846843 
L 78.16237 100.805952 
L 77.946571 101.765061 
L 77.730771 102.72417 
L 77.514972 103.683279 
L 77.299173 104.642388 
L 77.083373 105.601497 
L 76.867574 106.560605 
" style="fill:none;stroke:#4169e1;stroke-linecap:square;stroke-width:0.410021;"/>
   </g>
   <g id="line2d_10">
    <path clip-path="url(#pa520567bc5)" d="M 20.190592 19.503647 
L 21.882779 20.183452 
L 23.574966 20.863257 
L 24.640498 21.542065 
L 25.70603 22.220873 
L 27.356731 22.425363 
L 28.542718 22.442321 
L 29.728704 22.459278 
L 30.914691 22.476236 
L 32.100677 22.493194 
L 33.372911 21.983465 
L 34.645144 21.473735 
L 35.985793 21.371989 
L 37.326442 21.270243 
L 38.564467 21.50815 
L 39.802493 21.746056 
L 41.3644 22.03334 
" style="fill:none;stroke:#4169e1;stroke-linecap:square;stroke-width:0.410021;"/>
   </g>
   <g id="line2d_11">
    <path clip-path="url(#pa520567bc5)" d="M 18.126488 20.255772 
L 18.822286 21.951544 
L 19.518085 23.647316 
L 20.033747 24.581238 
L 20.549409 25.51516 
L 21.065071 26.449081 
L 21.580733 27.383003 
L 22.139337 28.181013 
L 22.69794 28.979024 
L 23.256544 29.777034 
L 23.815148 30.575045 
L 24.373751 31.373055 
L 24.932355 32.171066 
L 25.490959 32.969076 
L 26.049562 33.767087 
L 27.132562 34.786046 
L 28.215562 35.805006 
L 29.298561 36.823966 
L 30.381561 37.842925 
L 31.206911 38.725724 
L 32.032262 39.608524 
L 32.788469 40.763145 
L 33.544677 41.917766 
L 33.99156 42.83473 
L 34.438443 43.751694 
L 34.885326 44.668658 
L 35.332208 45.585622 
L 35.779091 46.774159 
L 36.225974 47.962696 
L 36.672857 49.151233 
L 37.11974 50.33977 
L 37.876675 51.766213 
" style="fill:none;stroke:#000000;stroke-linecap:square;stroke-width:0.410021;"/>
   </g>
   <g id="line2d_12">
    <path clip-path="url(#pa520567bc5)" d="M 37.876675 51.766213 
L 39.079766 53.294403 
L 40.282856 54.822593 
L 40.987752 55.518733 
L 41.692648 56.214872 
L 42.397544 56.911012 
L 43.10244 57.607151 
L 43.807336 58.303291 
L 44.512232 58.99943 
L 45.217128 59.69557 
L 45.922024 60.391709 
L 46.575244 61.291715 
L 47.228465 62.191721 
L 47.881685 63.091728 
L 48.534906 63.991734 
L 49.222334 65.435135 
L 49.909762 66.878537 
L 50.59719 68.321938 
L 51.284619 69.76534 
L 51.912001 70.970834 
L 52.539384 72.176329 
L 53.166767 73.381823 
L 53.79415 74.587318 
L 54.421533 75.792813 
L 55.048916 76.998307 
L 55.676299 78.203802 
L 56.303681 79.409296 
L 57.060071 80.43661 
L 57.81646 81.463924 
L 58.57285 82.491238 
L 59.329239 83.518552 
L 60.085628 84.545865 
L 60.842018 85.573179 
L 61.598407 86.600493 
L 62.354796 87.627807 
L 62.964893 88.425817 
L 63.574991 89.223828 
L 64.185088 90.021838 
L 64.795185 90.819849 
L 65.405282 91.617859 
L 66.015379 92.41587 
L 66.625476 93.21388 
L 67.235573 94.011891 
L 68.193023 94.614887 
L 69.150474 95.217884 
L 70.107924 95.820881 
L 71.065374 96.423877 
" style="fill:none;stroke:#008000;stroke-linecap:square;stroke-width:0.410021;"/>
   </g>
   <g id="line2d_13">
    <path clip-path="url(#pa520567bc5)" d="M 11.092813 24.269765 
L 10.95853 25.313163 
L 10.824247 26.356562 
L 10.689963 27.399961 
L 10.55568 28.443359 
L 10.01782 29.410947 
L 9.479959 30.378535 
L 8.942098 31.346123 
L 8.404237 32.31371 
L 7.924239 33.186285 
L 7.44424 34.058859 
L 6.964241 34.931434 
L 6.484242 35.804009 
L 5.830658 37.018481 
L 5.177073 38.232953 
L 5.369218 39.712764 
L 5.561363 41.192574 
L 5.677087 42.520264 
L 5.792811 43.847954 
L 5.408521 45.44198 
L 5.02423 47.036006 
L 4.774587 48.439756 
L 4.524944 49.843507 
L 4.275301 51.247257 
L 4.025658 52.651007 
L 4.179229 54.168724 
L 4.332799 55.68644 
L 4.985656 57.393683 
L 5.638512 59.100927 
L 6.522089 60.39121 
L 7.405665 61.681493 
L 8.289241 62.971777 
L 9.172818 64.26206 
L 10.28675 65.457081 
L 11.400682 66.652101 
L 12.514614 67.847122 
L 13.628546 69.042143 
L 13.820691 70.446142 
L 14.012836 71.850142 
L 14.204981 73.254142 
L 14.397127 74.658141 
L 14.204981 75.644682 
L 14.012836 76.631222 
L 13.820691 77.617763 
L 13.628546 78.604303 
L 13.436401 79.590844 
L 13.244256 80.577384 
L 13.052111 81.563925 
L 12.859966 82.550465 
L 12.831217 83.536881 
L 12.802468 84.523297 
L 12.773719 85.509712 
L 12.74497 86.496128 
L 12.716221 87.482544 
L 12.687472 88.46896 
L 12.658723 89.455375 
L 12.629974 90.441791 
L 12.74497 91.447284 
L 12.859966 92.452778 
L 12.974962 93.458271 
L 13.089958 94.463764 
L 14.627118 95.298682 
L 16.355696 95.678236 
L 18.084275 96.05779 
L 19.890002 96.664777 
L 21.695729 97.271763 
L 23.040017 97.746081 
L 24.384305 98.220398 
L 25.728593 98.694716 
L 27.07288 99.169033 
L 28.225023 99.206939 
L 29.377166 99.244844 
L 30.337892 98.524141 
L 31.298617 97.803438 
L 32.410002 97.94309 
L 33.521386 98.082742 
L 34.632771 98.222393 
L 35.744156 98.362045 
L 36.854085 97.780994 
L 37.964014 97.199942 
L 39.073943 96.618891 
L 40.183872 96.03784 
L 41.38114 95.613897 
L 42.578408 95.189954 
L 43.775675 94.76601 
L 44.972943 94.342067 
L 46.17385 93.818373 
L 47.374757 93.294679 
L 48.748158 92.053772 
L 50.121558 90.812866 
L 51.658355 89.97695 
L 53.195152 89.141034 
L 54.731949 88.305118 
L 56.268746 87.469202 
L 57.746225 86.830794 
L 59.223705 86.192385 
L 60.824914 85.410335 
" style="fill:none;stroke:#4169e1;stroke-linecap:square;stroke-width:0.410021;"/>
   </g>
   <g id="text_1">
    <g id="patch_2">
     <path d="M 42.985025 65.981201 
L 43.287736 66.585217 
L 45.053966 65.700048 
L 44.751256 65.096032 
z
" style="fill:#ffffff;"/>
    </g>
    <!--   -->
    <g style="fill:#808080;" transform="translate(43.383719 65.803761)rotate(-296.618328)scale(0.02 -0.02)">
     <defs>
      <path id="DejaVuSans-20" transform="scale(0.015625)"/>
     </defs>
     <use xlink:href="#DejaVuSans-20"/>
    </g>
   </g>
   <g id="text_2">
    <g id="patch_3">
     <path d="M 50.384887 41.169395 
L 54.659457 58.257879 
L 56.57603 57.778461 
L 52.301461 40.689977 
z
" style="fill:#ffffff;"/>
    </g>
    <!-- Main Street 18.8° -->
    <g style="fill:#4169e1;" transform="translate(50.812648 41.08301)rotate(-284.043969)scale(0.02 -0.02)">
     <defs>
      <path d="M 628 4666 
L 1569 4666 
L 2759 1491 
L 3956 4666 
L 4897 4666 
L 4897 0 
L 4281 0 
L 4281 4097 
L 3078 897 
L 2444 897 
L 1241 4097 
L 1241 0 
L 628 0 
L 628 4666 
z
" id="DejaVuSans-4d" transform="scale(0.015625)"/>
      <path d="M 2194 1759 
Q 1497 1759 1228 1600 
Q 959 1441 959 1056 
Q 959 750 1161 570 
Q 1363 391 1709 391 
Q 2188 391 2477 730 
Q 2766 1069 2766 1631 
L 2766 1759 
L 2194 1759 
z
M 3341 1997 
L 3341 0 
L 2766 0 
L 2766 531 
Q 2569 213 2275 61 
Q 1981 -91 1556 -91 
Q 1019 -91 701 211 
Q 384 513 384 1019 
Q 384 1609 779 1909 
Q 1175 2209 1959 2209 
L 2766 2209 
L 2766 2266 
Q 2766 2663 2505 2880 
Q 2244 3097 1772 3097 
Q 1472 3097 1187 3025 
Q 903 2953 641 2809 
L 641 3341 
Q 956 3463 1253 3523 
Q 1550 3584 1831 3584 
Q 2591 3584 2966 3190 
Q 3341 2797 3341 1997 
z
" id="DejaVuSans-61" transform="scale(0.015625)"/>
      <path d="M 603 3500 
L 1178 3500 
L 1178 0 
L 603 0 
L 603 3500 
z
M 603 4863 
L 1178 4863 
L 1178 4134 
L 603 4134 
L 603 4863 
z
" id="DejaVuSans-69" transform="scale(0.015625)"/>
      <path d="M 3513 2113 
L 3513 0 
L 2938 0 
L 2938 2094 
Q 2938 2591 2744 2837 
Q 2550 3084 2163 3084 
Q 1697 3084 1428 2787 
Q 1159 2491 1159 1978 
L 1159 0 
L 581 0 
L 581 3500 
L 1159 3500 
L 1159 2956 
Q 1366 3272 1645 3428 
Q 1925 3584 2291 3584 
Q 2894 3584 3203 3211 
Q 3513 2838 3513 2113 
z
" id="DejaVuSans-6e" transform="scale(0.015625)"/>
      <path d="M 3425 4513 
L 3425 3897 
Q 3066 4069 2747 4153 
Q 2428 4238 2131 4238 
Q 1616 4238 1336 4038 
Q 1056 3838 1056 3469 
Q 1056 3159 1242 3001 
Q 1428 2844 1947 2747 
L 2328 2669 
Q 3034 2534 3370 2195 
Q 3706 1856 3706 1288 
Q 3706 609 3251 259 
Q 2797 -91 1919 -91 
Q 1588 -91 1214 -16 
Q 841 59 441 206 
L 441 856 
Q 825 641 1194 531 
Q 1563 422 1919 422 
Q 2459 422 2753 634 
Q 3047 847 3047 1241 
Q 3047 1584 2836 1778 
Q 2625 1972 2144 2069 
L 1759 2144 
Q 1053 2284 737 2584 
Q 422 2884 422 3419 
Q 422 4038 858 4394 
Q 1294 4750 2059 4750 
Q 2388 4750 2728 4690 
Q 3069 4631 3425 4513 
z
" id="DejaVuSans-53" transform="scale(0.015625)"/>
      <path d="M 1172 4494 
L 1172 3500 
L 2356 3500 
L 2356 3053 
L 1172 3053 
L 1172 1153 
Q 1172 725 1289 603 
Q 1406 481 1766 481 
L 2356 481 
L 2356 0 
L 1766 0 
Q 1100 0 847 248 
Q 594 497 594 1153 
L 594 3053 
L 172 3053 
L 172 3500 
L 594 3500 
L 594 4494 
L 1172 4494 
z
" id="DejaVuSans-74" transform="scale(0.015625)"/>
      <path d="M 2631 2963 
Q 2534 3019 2420 3045 
Q 2306 3072 2169 3072 
Q 1681 3072 1420 2755 
Q 1159 2438 1159 1844 
L 1159 0 
L 581 0 
L 581 3500 
L 1159 3500 
L 1159 2956 
Q 1341 3275 1631 3429 
Q 1922 3584 2338 3584 
Q 2397 3584 2469 3576 
Q 2541 3569 2628 3553 
L 2631 2963 
z
" id="DejaVuSans-72" transform="scale(0.015625)"/>
      <path d="M 3597 1894 
L 3597 1613 
L 953 1613 
Q 991 1019 1311 708 
Q 1631 397 2203 397 
Q 2534 397 2845 478 
Q 3156 559 3463 722 
L 3463 178 
Q 3153 47 2828 -22 
Q 2503 -91 2169 -91 
Q 1331 -91 842 396 
Q 353 884 353 1716 
Q 353 2575 817 3079 
Q 1281 3584 2069 3584 
Q 2775 3584 3186 3129 
Q 3597 2675 3597 1894 
z
M 3022 2063 
Q 3016 2534 2758 2815 
Q 2500 3097 2075 3097 
Q 1594 3097 1305 2825 
Q 1016 2553 972 2059 
L 3022 2063 
z
" id="DejaVuSans-65" transform="scale(0.015625)"/>
      <path d="M 794 531 
L 1825 531 
L 1825 4091 
L 703 3866 
L 703 4441 
L 1819 4666 
L 2450 4666 
L 2450 531 
L 3481 531 
L 3481 0 
L 794 0 
L 794 531 
z
" id="DejaVuSans-31" transform="scale(0.015625)"/>
      <path d="M 2034 2216 
Q 1584 2216 1326 1975 
Q 1069 1734 1069 1313 
Q 1069 891 1326 650 
Q 1584 409 2034 409 
Q 2484 409 2743 651 
Q 3003 894 3003 1313 
Q 3003 1734 2745 1975 
Q 2488 2216 2034 2216 
z
M 1403 2484 
Q 997 2584 770 2862 
Q 544 3141 544 3541 
Q 544 4100 942 4425 
Q 1341 4750 2034 4750 
Q 2731 4750 3128 4425 
Q 3525 4100 3525 3541 
Q 3525 3141 3298 2862 
Q 3072 2584 2669 2484 
Q 3125 2378 3379 2068 
Q 3634 1759 3634 1313 
Q 3634 634 3220 271 
Q 2806 -91 2034 -91 
Q 1263 -91 848 271 
Q 434 634 434 1313 
Q 434 1759 690 2068 
Q 947 2378 1403 2484 
z
M 1172 3481 
Q 1172 3119 1398 2916 
Q 1625 2713 2034 2713 
Q 2441 2713 2670 2916 
Q 2900 3119 2900 3481 
Q 2900 3844 2670 4047 
Q 2441 4250 2034 4250 
Q 1625 4250 1398 4047 
Q 1172 3844 1172 3481 
z
" id="DejaVuSans-38" transform="scale(0.015625)"/>
      <path d="M 684 794 
L 1344 794 
L 1344 0 
L 684 0 
L 684 794 
z
" id="DejaVuSans-2e" transform="scale(0.015625)"/>
      <path d="M 1600 4347 
Q 1350 4347 1178 4173 
Q 1006 4000 1006 3750 
Q 1006 3503 1178 3333 
Q 1350 3163 1600 3163 
Q 1850 3163 2022 3333 
Q 2194 3503 2194 3750 
Q 2194 3997 2020 4172 
Q 1847 4347 1600 4347 
z
M 1600 4750 
Q 1800 4750 1984 4673 
Q 2169 4597 2303 4453 
Q 2447 4313 2519 4134 
Q 2591 3956 2591 3750 
Q 2591 3338 2302 3052 
Q 2013 2766 1594 2766 
Q 1172 2766 890 3047 
Q 609 3328 609 3750 
Q 609 4169 896 4459 
Q 1184 4750 1600 4750 
z
" id="DejaVuSans-b0" transform="scale(0.015625)"/>
     </defs>
     <use xlink:href="#DejaVuSans-4d"/>
     <use x="86.279297" xlink:href="#DejaVuSans-61"/>
     <use x="147.558594" xlink:href="#DejaVuSans-69"/>
     <use x="175.341797" xlink:href="#DejaVuSans-6e"/>
     <use x="238.720703" xlink:href="#DejaVuSans-20"/>
     <use x="270.507812" xlink:href="#DejaVuSans-53"/>
     <use x="333.984375" xlink:href="#DejaVuSans-74"/>
     <use x="373.193359" xlink:href="#DejaVuSans-72"/>
     <use x="412.056641" xlink:href="#DejaVuSans-65"/>
     <use x="473.580078" xlink:href="#DejaVuSans-65"/>
     <use x="535.103516" xlink:href="#DejaVuSans-74"/>
     <use x="574.3125" xlink:href="#DejaVuSans-20"/>
     <use x="606.099609" xlink:href="#DejaVuSans-31"/>
     <use x="669.722656" xlink:href="#DejaVuSans-38"/>
     <use x="733.345703" xlink:href="#DejaVuSans-2e"/>
     <use x="765.132812" xlink:href="#DejaVuSans-38"/>
     <use x="828.755859" xlink:href="#DejaVuSans-b0"/>
    </g>
   </g>
   <g id="text_3">
    <g id="patch_4">
     <path d="M 82.593195 66.428476 
L 82.593195 86.254414 
L 84.56882 86.254414 
L 84.56882 66.428476 
z
" style="fill:#ffffff;"/>
    </g>
    <!-- Hidden Valley 18.8° -->
    <g style="fill:#4169e1;" transform="translate(83.029132 66.448476)rotate(-270)scale(0.02 -0.02)">
     <defs>
      <path d="M 628 4666 
L 1259 4666 
L 1259 2753 
L 3553 2753 
L 3553 4666 
L 4184 4666 
L 4184 0 
L 3553 0 
L 3553 2222 
L 1259 2222 
L 1259 0 
L 628 0 
L 628 4666 
z
" id="DejaVuSans-48" transform="scale(0.015625)"/>
      <path d="M 2906 2969 
L 2906 4863 
L 3481 4863 
L 3481 0 
L 2906 0 
L 2906 525 
Q 2725 213 2448 61 
Q 2172 -91 1784 -91 
Q 1150 -91 751 415 
Q 353 922 353 1747 
Q 353 2572 751 3078 
Q 1150 3584 1784 3584 
Q 2172 3584 2448 3432 
Q 2725 3281 2906 2969 
z
M 947 1747 
Q 947 1113 1208 752 
Q 1469 391 1925 391 
Q 2381 391 2643 752 
Q 2906 1113 2906 1747 
Q 2906 2381 2643 2742 
Q 2381 3103 1925 3103 
Q 1469 3103 1208 2742 
Q 947 2381 947 1747 
z
" id="DejaVuSans-64" transform="scale(0.015625)"/>
      <path d="M 1831 0 
L 50 4666 
L 709 4666 
L 2188 738 
L 3669 4666 
L 4325 4666 
L 2547 0 
L 1831 0 
z
" id="DejaVuSans-56" transform="scale(0.015625)"/>
      <path d="M 603 4863 
L 1178 4863 
L 1178 0 
L 603 0 
L 603 4863 
z
" id="DejaVuSans-6c" transform="scale(0.015625)"/>
      <path d="M 2059 -325 
Q 1816 -950 1584 -1140 
Q 1353 -1331 966 -1331 
L 506 -1331 
L 506 -850 
L 844 -850 
Q 1081 -850 1212 -737 
Q 1344 -625 1503 -206 
L 1606 56 
L 191 3500 
L 800 3500 
L 1894 763 
L 2988 3500 
L 3597 3500 
L 2059 -325 
z
" id="DejaVuSans-79" transform="scale(0.015625)"/>
     </defs>
     <use xlink:href="#DejaVuSans-48"/>
     <use x="75.195312" xlink:href="#DejaVuSans-69"/>
     <use x="102.978516" xlink:href="#DejaVuSans-64"/>
     <use x="166.455078" xlink:href="#DejaVuSans-64"/>
     <use x="229.931641" xlink:href="#DejaVuSans-65"/>
     <use x="291.455078" xlink:href="#DejaVuSans-6e"/>
     <use x="354.833984" xlink:href="#DejaVuSans-20"/>
     <use x="386.621094" xlink:href="#DejaVuSans-56"/>
     <use x="447.279297" xlink:href="#DejaVuSans-61"/>
     <use x="508.558594" xlink:href="#DejaVuSans-6c"/>
     <use x="536.341797" xlink:href="#DejaVuSans-6c"/>
     <use x="564.125" xlink:href="#DejaVuSans-65"/>
     <use x="625.648438" xlink:href="#DejaVuSans-79"/>
     <use x="684.828125" xlink:href="#DejaVuSans-20"/>
     <use x="716.615234" xlink:href="#DejaVuSans-31"/>
     <use x="780.238281" xlink:href="#DejaVuSans-38"/>
     <use x="843.861328" xlink:href="#DejaVuSans-2e"/>
     <use x="875.648438" xlink:href="#DejaVuSans-38"/>
     <use x="939.271484" xlink:href="#DejaVuSans-b0"/>
    </g>
   </g>
   <g id="text_4">
    <g id="patch_5">
     <path d="M 21.220096 23.261983 
L 40.568072 23.665684 
L 40.609285 21.690489 
L 21.261309 21.286788 
z
" style="fill:#ffffff;"/>
    </g>
    <!-- Spread Eagle 21.2° -->
    <g style="fill:#4169e1;" transform="translate(21.249186 22.826558)rotate(-358.80468)scale(0.02 -0.02)">
     <defs>
      <path d="M 1159 525 
L 1159 -1331 
L 581 -1331 
L 581 3500 
L 1159 3500 
L 1159 2969 
Q 1341 3281 1617 3432 
Q 1894 3584 2278 3584 
Q 2916 3584 3314 3078 
Q 3713 2572 3713 1747 
Q 3713 922 3314 415 
Q 2916 -91 2278 -91 
Q 1894 -91 1617 61 
Q 1341 213 1159 525 
z
M 3116 1747 
Q 3116 2381 2855 2742 
Q 2594 3103 2138 3103 
Q 1681 3103 1420 2742 
Q 1159 2381 1159 1747 
Q 1159 1113 1420 752 
Q 1681 391 2138 391 
Q 2594 391 2855 752 
Q 3116 1113 3116 1747 
z
" id="DejaVuSans-70" transform="scale(0.015625)"/>
      <path d="M 628 4666 
L 3578 4666 
L 3578 4134 
L 1259 4134 
L 1259 2753 
L 3481 2753 
L 3481 2222 
L 1259 2222 
L 1259 531 
L 3634 531 
L 3634 0 
L 628 0 
L 628 4666 
z
" id="DejaVuSans-45" transform="scale(0.015625)"/>
      <path d="M 2906 1791 
Q 2906 2416 2648 2759 
Q 2391 3103 1925 3103 
Q 1463 3103 1205 2759 
Q 947 2416 947 1791 
Q 947 1169 1205 825 
Q 1463 481 1925 481 
Q 2391 481 2648 825 
Q 2906 1169 2906 1791 
z
M 3481 434 
Q 3481 -459 3084 -895 
Q 2688 -1331 1869 -1331 
Q 1566 -1331 1297 -1286 
Q 1028 -1241 775 -1147 
L 775 -588 
Q 1028 -725 1275 -790 
Q 1522 -856 1778 -856 
Q 2344 -856 2625 -561 
Q 2906 -266 2906 331 
L 2906 616 
Q 2728 306 2450 153 
Q 2172 0 1784 0 
Q 1141 0 747 490 
Q 353 981 353 1791 
Q 353 2603 747 3093 
Q 1141 3584 1784 3584 
Q 2172 3584 2450 3431 
Q 2728 3278 2906 2969 
L 2906 3500 
L 3481 3500 
L 3481 434 
z
" id="DejaVuSans-67" transform="scale(0.015625)"/>
      <path d="M 1228 531 
L 3431 531 
L 3431 0 
L 469 0 
L 469 531 
Q 828 903 1448 1529 
Q 2069 2156 2228 2338 
Q 2531 2678 2651 2914 
Q 2772 3150 2772 3378 
Q 2772 3750 2511 3984 
Q 2250 4219 1831 4219 
Q 1534 4219 1204 4116 
Q 875 4013 500 3803 
L 500 4441 
Q 881 4594 1212 4672 
Q 1544 4750 1819 4750 
Q 2544 4750 2975 4387 
Q 3406 4025 3406 3419 
Q 3406 3131 3298 2873 
Q 3191 2616 2906 2266 
Q 2828 2175 2409 1742 
Q 1991 1309 1228 531 
z
" id="DejaVuSans-32" transform="scale(0.015625)"/>
     </defs>
     <use xlink:href="#DejaVuSans-53"/>
     <use x="63.476562" xlink:href="#DejaVuSans-70"/>
     <use x="126.953125" xlink:href="#DejaVuSans-72"/>
     <use x="165.816406" xlink:href="#DejaVuSans-65"/>
     <use x="227.339844" xlink:href="#DejaVuSans-61"/>
     <use x="288.619141" xlink:href="#DejaVuSans-64"/>
     <use x="352.095703" xlink:href="#DejaVuSans-20"/>
     <use x="383.882812" xlink:href="#DejaVuSans-45"/>
     <use x="447.066406" xlink:href="#DejaVuSans-61"/>
     <use x="508.345703" xlink:href="#DejaVuSans-67"/>
     <use x="571.822266" xlink:href="#DejaVuSans-6c"/>
     <use x="599.605469" xlink:href="#DejaVuSans-65"/>
     <use x="661.128906" xlink:href="#DejaVuSans-20"/>
     <use x="692.916016" xlink:href="#DejaVuSans-32"/>
     <use x="756.539062" xlink:href="#DejaVuSans-31"/>
     <use x="820.162109" xlink:href="#DejaVuSans-2e"/>
     <use x="851.949219" xlink:href="#DejaVuSans-32"/>
     <use x="915.572266" xlink:href="#DejaVuSans-b0"/>
    </g>
   </g>
   <g id="text_5">
    <g id="patch_6">
     <path d="M 18.949866 24.761208 
L 35.88431 48.011926 
L 37.481257 46.848804 
L 20.546813 23.598086 
z
" style="fill:#ffffff;"/>
    </g>
    <!-- Hellecopter 1 &amp;amp; 2 24.7° -->
    <g transform="translate(19.31402 24.520722)rotate(-306.067374)scale(0.02 -0.02)">
     <defs>
      <path d="M 3122 3366 
L 3122 2828 
Q 2878 2963 2633 3030 
Q 2388 3097 2138 3097 
Q 1578 3097 1268 2742 
Q 959 2388 959 1747 
Q 959 1106 1268 751 
Q 1578 397 2138 397 
Q 2388 397 2633 464 
Q 2878 531 3122 666 
L 3122 134 
Q 2881 22 2623 -34 
Q 2366 -91 2075 -91 
Q 1284 -91 818 406 
Q 353 903 353 1747 
Q 353 2603 823 3093 
Q 1294 3584 2113 3584 
Q 2378 3584 2631 3529 
Q 2884 3475 3122 3366 
z
" id="DejaVuSans-63" transform="scale(0.015625)"/>
      <path d="M 1959 3097 
Q 1497 3097 1228 2736 
Q 959 2375 959 1747 
Q 959 1119 1226 758 
Q 1494 397 1959 397 
Q 2419 397 2687 759 
Q 2956 1122 2956 1747 
Q 2956 2369 2687 2733 
Q 2419 3097 1959 3097 
z
M 1959 3584 
Q 2709 3584 3137 3096 
Q 3566 2609 3566 1747 
Q 3566 888 3137 398 
Q 2709 -91 1959 -91 
Q 1206 -91 779 398 
Q 353 888 353 1747 
Q 353 2609 779 3096 
Q 1206 3584 1959 3584 
z
" id="DejaVuSans-6f" transform="scale(0.015625)"/>
      <path d="M 1556 2509 
Q 1272 2256 1139 2004 
Q 1006 1753 1006 1478 
Q 1006 1022 1337 719 
Q 1669 416 2169 416 
Q 2466 416 2725 514 
Q 2984 613 3213 813 
L 1556 2509 
z
M 1997 2859 
L 3584 1234 
Q 3769 1513 3872 1830 
Q 3975 2147 3994 2503 
L 4575 2503 
Q 4538 2091 4375 1687 
Q 4213 1284 3922 891 
L 4794 0 
L 4006 0 
L 3559 459 
Q 3234 181 2878 45 
Q 2522 -91 2113 -91 
Q 1359 -91 881 339 
Q 403 769 403 1441 
Q 403 1841 612 2192 
Q 822 2544 1241 2853 
Q 1091 3050 1012 3245 
Q 934 3441 934 3628 
Q 934 4134 1281 4442 
Q 1628 4750 2203 4750 
Q 2463 4750 2720 4694 
Q 2978 4638 3244 4525 
L 3244 3956 
Q 2972 4103 2725 4179 
Q 2478 4256 2266 4256 
Q 1938 4256 1733 4082 
Q 1528 3909 1528 3634 
Q 1528 3475 1620 3314 
Q 1713 3153 1997 2859 
z
" id="DejaVuSans-26" transform="scale(0.015625)"/>
      <path d="M 3328 2828 
Q 3544 3216 3844 3400 
Q 4144 3584 4550 3584 
Q 5097 3584 5394 3201 
Q 5691 2819 5691 2113 
L 5691 0 
L 5113 0 
L 5113 2094 
Q 5113 2597 4934 2840 
Q 4756 3084 4391 3084 
Q 3944 3084 3684 2787 
Q 3425 2491 3425 1978 
L 3425 0 
L 2847 0 
L 2847 2094 
Q 2847 2600 2669 2842 
Q 2491 3084 2119 3084 
Q 1678 3084 1418 2786 
Q 1159 2488 1159 1978 
L 1159 0 
L 581 0 
L 581 3500 
L 1159 3500 
L 1159 2956 
Q 1356 3278 1631 3431 
Q 1906 3584 2284 3584 
Q 2666 3584 2933 3390 
Q 3200 3197 3328 2828 
z
" id="DejaVuSans-6d" transform="scale(0.015625)"/>
      <path d="M 750 3309 
L 1409 3309 
L 1409 2516 
L 750 2516 
L 750 3309 
z
M 750 794 
L 1409 794 
L 1409 256 
L 897 -744 
L 494 -744 
L 750 256 
L 750 794 
z
" id="DejaVuSans-3b" transform="scale(0.015625)"/>
      <path d="M 2419 4116 
L 825 1625 
L 2419 1625 
L 2419 4116 
z
M 2253 4666 
L 3047 4666 
L 3047 1625 
L 3713 1625 
L 3713 1100 
L 3047 1100 
L 3047 0 
L 2419 0 
L 2419 1100 
L 313 1100 
L 313 1709 
L 2253 4666 
z
" id="DejaVuSans-34" transform="scale(0.015625)"/>
      <path d="M 525 4666 
L 3525 4666 
L 3525 4397 
L 1831 0 
L 1172 0 
L 2766 4134 
L 525 4134 
L 525 4666 
z
" id="DejaVuSans-37" transform="scale(0.015625)"/>
     </defs>
     <use xlink:href="#DejaVuSans-48"/>
     <use x="75.195312" xlink:href="#DejaVuSans-65"/>
     <use x="136.71875" xlink:href="#DejaVuSans-6c"/>
     <use x="164.501953" xlink:href="#DejaVuSans-6c"/>
     <use x="192.285156" xlink:href="#DejaVuSans-65"/>
     <use x="253.808594" xlink:href="#DejaVuSans-63"/>
     <use x="308.789062" xlink:href="#DejaVuSans-6f"/>
     <use x="369.970703" xlink:href="#DejaVuSans-70"/>
     <use x="433.447266" xlink:href="#DejaVuSans-74"/>
     <use x="472.65625" xlink:href="#DejaVuSans-65"/>
     <use x="534.179688" xlink:href="#DejaVuSans-72"/>
     <use x="575.292969" xlink:href="#DejaVuSans-20"/>
     <use x="607.080078" xlink:href="#DejaVuSans-31"/>
     <use x="670.703125" xlink:href="#DejaVuSans-20"/>
     <use x="702.490234" xlink:href="#DejaVuSans-26"/>
     <use x="780.46875" xlink:href="#DejaVuSans-61"/>
     <use x="841.748047" xlink:href="#DejaVuSans-6d"/>
     <use x="939.160156" xlink:href="#DejaVuSans-70"/>
     <use x="1002.636719" xlink:href="#DejaVuSans-3b"/>
     <use x="1036.328125" xlink:href="#DejaVuSans-20"/>
     <use x="1068.115234" xlink:href="#DejaVuSans-32"/>
     <use x="1131.738281" xlink:href="#DejaVuSans-20"/>
     <use x="1163.525391" xlink:href="#DejaVuSans-32"/>
     <use x="1227.148438" xlink:href="#DejaVuSans-34"/>
     <use x="1290.771484" xlink:href="#DejaVuSans-2e"/>
     <use x="1322.558594" xlink:href="#DejaVuSans-37"/>
     <use x="1386.181641" xlink:href="#DejaVuSans-b0"/>
    </g>
   </g>
   <g id="text_6">
    <g id="patch_7">
     <path d="M 52.44113 72.073217 
L 57.050642 84.998032 
L 58.911467 84.334386 
L 54.301955 71.409572 
z
" style="fill:#ffffff;"/>
    </g>
    <!-- Lift Run 16.6° -->
    <g style="fill:#008000;" transform="translate(52.858455 71.945616)rotate(-289.628291)scale(0.02 -0.02)">
     <defs>
      <path d="M 628 4666 
L 1259 4666 
L 1259 531 
L 3531 531 
L 3531 0 
L 628 0 
L 628 4666 
z
" id="DejaVuSans-4c" transform="scale(0.015625)"/>
      <path d="M 2375 4863 
L 2375 4384 
L 1825 4384 
Q 1516 4384 1395 4259 
Q 1275 4134 1275 3809 
L 1275 3500 
L 2222 3500 
L 2222 3053 
L 1275 3053 
L 1275 0 
L 697 0 
L 697 3053 
L 147 3053 
L 147 3500 
L 697 3500 
L 697 3744 
Q 697 4328 969 4595 
Q 1241 4863 1831 4863 
L 2375 4863 
z
" id="DejaVuSans-66" transform="scale(0.015625)"/>
      <path d="M 2841 2188 
Q 3044 2119 3236 1894 
Q 3428 1669 3622 1275 
L 4263 0 
L 3584 0 
L 2988 1197 
Q 2756 1666 2539 1819 
Q 2322 1972 1947 1972 
L 1259 1972 
L 1259 0 
L 628 0 
L 628 4666 
L 2053 4666 
Q 2853 4666 3247 4331 
Q 3641 3997 3641 3322 
Q 3641 2881 3436 2590 
Q 3231 2300 2841 2188 
z
M 1259 4147 
L 1259 2491 
L 2053 2491 
Q 2509 2491 2742 2702 
Q 2975 2913 2975 3322 
Q 2975 3731 2742 3939 
Q 2509 4147 2053 4147 
L 1259 4147 
z
" id="DejaVuSans-52" transform="scale(0.015625)"/>
      <path d="M 544 1381 
L 544 3500 
L 1119 3500 
L 1119 1403 
Q 1119 906 1312 657 
Q 1506 409 1894 409 
Q 2359 409 2629 706 
Q 2900 1003 2900 1516 
L 2900 3500 
L 3475 3500 
L 3475 0 
L 2900 0 
L 2900 538 
Q 2691 219 2414 64 
Q 2138 -91 1772 -91 
Q 1169 -91 856 284 
Q 544 659 544 1381 
z
M 1991 3584 
L 1991 3584 
z
" id="DejaVuSans-75" transform="scale(0.015625)"/>
      <path d="M 2113 2584 
Q 1688 2584 1439 2293 
Q 1191 2003 1191 1497 
Q 1191 994 1439 701 
Q 1688 409 2113 409 
Q 2538 409 2786 701 
Q 3034 994 3034 1497 
Q 3034 2003 2786 2293 
Q 2538 2584 2113 2584 
z
M 3366 4563 
L 3366 3988 
Q 3128 4100 2886 4159 
Q 2644 4219 2406 4219 
Q 1781 4219 1451 3797 
Q 1122 3375 1075 2522 
Q 1259 2794 1537 2939 
Q 1816 3084 2150 3084 
Q 2853 3084 3261 2657 
Q 3669 2231 3669 1497 
Q 3669 778 3244 343 
Q 2819 -91 2113 -91 
Q 1303 -91 875 529 
Q 447 1150 447 2328 
Q 447 3434 972 4092 
Q 1497 4750 2381 4750 
Q 2619 4750 2861 4703 
Q 3103 4656 3366 4563 
z
" id="DejaVuSans-36" transform="scale(0.015625)"/>
     </defs>
     <use xlink:href="#DejaVuSans-4c"/>
     <use x="55.712891" xlink:href="#DejaVuSans-69"/>
     <use x="83.496094" xlink:href="#DejaVuSans-66"/>
     <use x="116.951172" xlink:href="#DejaVuSans-74"/>
     <use x="156.160156" xlink:href="#DejaVuSans-20"/>
     <use x="187.947266" xlink:href="#DejaVuSans-52"/>
     <use x="252.929688" xlink:href="#DejaVuSans-75"/>
     <use x="316.308594" xlink:href="#DejaVuSans-6e"/>
     <use x="379.6875" xlink:href="#DejaVuSans-20"/>
     <use x="411.474609" xlink:href="#DejaVuSans-31"/>
     <use x="475.097656" xlink:href="#DejaVuSans-36"/>
     <use x="538.720703" xlink:href="#DejaVuSans-2e"/>
     <use x="570.507812" xlink:href="#DejaVuSans-36"/>
     <use x="634.130859" xlink:href="#DejaVuSans-b0"/>
    </g>
   </g>
   <g id="text_7">
    <g id="patch_8">
     <path d="M 13.636544 92.683692 
L 14.00112 74.42952 
L 12.025889 74.39007 
L 11.661313 92.644242 
z
" style="fill:#ffffff;"/>
    </g>
    <!-- Lots O' Luck 19.5° -->
    <g style="fill:#4169e1;" transform="translate(13.201093 92.654991)rotate(-88.85583)scale(0.02 -0.02)">
     <defs>
      <path d="M 2834 3397 
L 2834 2853 
Q 2591 2978 2328 3040 
Q 2066 3103 1784 3103 
Q 1356 3103 1142 2972 
Q 928 2841 928 2578 
Q 928 2378 1081 2264 
Q 1234 2150 1697 2047 
L 1894 2003 
Q 2506 1872 2764 1633 
Q 3022 1394 3022 966 
Q 3022 478 2636 193 
Q 2250 -91 1575 -91 
Q 1294 -91 989 -36 
Q 684 19 347 128 
L 347 722 
Q 666 556 975 473 
Q 1284 391 1588 391 
Q 1994 391 2212 530 
Q 2431 669 2431 922 
Q 2431 1156 2273 1281 
Q 2116 1406 1581 1522 
L 1381 1569 
Q 847 1681 609 1914 
Q 372 2147 372 2553 
Q 372 3047 722 3315 
Q 1072 3584 1716 3584 
Q 2034 3584 2315 3537 
Q 2597 3491 2834 3397 
z
" id="DejaVuSans-73" transform="scale(0.015625)"/>
      <path d="M 2522 4238 
Q 1834 4238 1429 3725 
Q 1025 3213 1025 2328 
Q 1025 1447 1429 934 
Q 1834 422 2522 422 
Q 3209 422 3611 934 
Q 4013 1447 4013 2328 
Q 4013 3213 3611 3725 
Q 3209 4238 2522 4238 
z
M 2522 4750 
Q 3503 4750 4090 4092 
Q 4678 3434 4678 2328 
Q 4678 1225 4090 567 
Q 3503 -91 2522 -91 
Q 1538 -91 948 565 
Q 359 1222 359 2328 
Q 359 3434 948 4092 
Q 1538 4750 2522 4750 
z
" id="DejaVuSans-4f" transform="scale(0.015625)"/>
      <path d="M 1147 4666 
L 1147 2931 
L 616 2931 
L 616 4666 
L 1147 4666 
z
" id="DejaVuSans-27" transform="scale(0.015625)"/>
      <path d="M 581 4863 
L 1159 4863 
L 1159 1991 
L 2875 3500 
L 3609 3500 
L 1753 1863 
L 3688 0 
L 2938 0 
L 1159 1709 
L 1159 0 
L 581 0 
L 581 4863 
z
" id="DejaVuSans-6b" transform="scale(0.015625)"/>
      <path d="M 703 97 
L 703 672 
Q 941 559 1184 500 
Q 1428 441 1663 441 
Q 2288 441 2617 861 
Q 2947 1281 2994 2138 
Q 2813 1869 2534 1725 
Q 2256 1581 1919 1581 
Q 1219 1581 811 2004 
Q 403 2428 403 3163 
Q 403 3881 828 4315 
Q 1253 4750 1959 4750 
Q 2769 4750 3195 4129 
Q 3622 3509 3622 2328 
Q 3622 1225 3098 567 
Q 2575 -91 1691 -91 
Q 1453 -91 1209 -44 
Q 966 3 703 97 
z
M 1959 2075 
Q 2384 2075 2632 2365 
Q 2881 2656 2881 3163 
Q 2881 3666 2632 3958 
Q 2384 4250 1959 4250 
Q 1534 4250 1286 3958 
Q 1038 3666 1038 3163 
Q 1038 2656 1286 2365 
Q 1534 2075 1959 2075 
z
" id="DejaVuSans-39" transform="scale(0.015625)"/>
      <path d="M 691 4666 
L 3169 4666 
L 3169 4134 
L 1269 4134 
L 1269 2991 
Q 1406 3038 1543 3061 
Q 1681 3084 1819 3084 
Q 2600 3084 3056 2656 
Q 3513 2228 3513 1497 
Q 3513 744 3044 326 
Q 2575 -91 1722 -91 
Q 1428 -91 1123 -41 
Q 819 9 494 109 
L 494 744 
Q 775 591 1075 516 
Q 1375 441 1709 441 
Q 2250 441 2565 725 
Q 2881 1009 2881 1497 
Q 2881 1984 2565 2268 
Q 2250 2553 1709 2553 
Q 1456 2553 1204 2497 
Q 953 2441 691 2322 
L 691 4666 
z
" id="DejaVuSans-35" transform="scale(0.015625)"/>
     </defs>
     <use xlink:href="#DejaVuSans-4c"/>
     <use x="53.962891" xlink:href="#DejaVuSans-6f"/>
     <use x="115.144531" xlink:href="#DejaVuSans-74"/>
     <use x="154.353516" xlink:href="#DejaVuSans-73"/>
     <use x="206.453125" xlink:href="#DejaVuSans-20"/>
     <use x="238.240234" xlink:href="#DejaVuSans-4f"/>
     <use x="316.951172" xlink:href="#DejaVuSans-27"/>
     <use x="344.441406" xlink:href="#DejaVuSans-20"/>
     <use x="376.228516" xlink:href="#DejaVuSans-4c"/>
     <use x="430.191406" xlink:href="#DejaVuSans-75"/>
     <use x="493.570312" xlink:href="#DejaVuSans-63"/>
     <use x="548.550781" xlink:href="#DejaVuSans-6b"/>
     <use x="606.460938" xlink:href="#DejaVuSans-20"/>
     <use x="638.248047" xlink:href="#DejaVuSans-31"/>
     <use x="701.871094" xlink:href="#DejaVuSans-39"/>
     <use x="765.494141" xlink:href="#DejaVuSans-2e"/>
     <use x="797.28125" xlink:href="#DejaVuSans-35"/>
     <use x="860.904297" xlink:href="#DejaVuSans-b0"/>
    </g>
   </g>
   <g id="text_8">
    <!-- Cottonwood Butte -->
    <g transform="translate(17.122396 6.29031)scale(0.06 -0.06)">
     <defs>
      <path d="M 4122 4306 
L 4122 3641 
Q 3803 3938 3442 4084 
Q 3081 4231 2675 4231 
Q 1875 4231 1450 3742 
Q 1025 3253 1025 2328 
Q 1025 1406 1450 917 
Q 1875 428 2675 428 
Q 3081 428 3442 575 
Q 3803 722 4122 1019 
L 4122 359 
Q 3791 134 3420 21 
Q 3050 -91 2638 -91 
Q 1578 -91 968 557 
Q 359 1206 359 2328 
Q 359 3453 968 4101 
Q 1578 4750 2638 4750 
Q 3056 4750 3426 4639 
Q 3797 4528 4122 4306 
z
" id="DejaVuSans-43" transform="scale(0.015625)"/>
      <path d="M 269 3500 
L 844 3500 
L 1563 769 
L 2278 3500 
L 2956 3500 
L 3675 769 
L 4391 3500 
L 4966 3500 
L 4050 0 
L 3372 0 
L 2619 2869 
L 1863 0 
L 1184 0 
L 269 3500 
z
" id="DejaVuSans-77" transform="scale(0.015625)"/>
      <path d="M 1259 2228 
L 1259 519 
L 2272 519 
Q 2781 519 3026 730 
Q 3272 941 3272 1375 
Q 3272 1813 3026 2020 
Q 2781 2228 2272 2228 
L 1259 2228 
z
M 1259 4147 
L 1259 2741 
L 2194 2741 
Q 2656 2741 2882 2914 
Q 3109 3088 3109 3444 
Q 3109 3797 2882 3972 
Q 2656 4147 2194 4147 
L 1259 4147 
z
M 628 4666 
L 2241 4666 
Q 2963 4666 3353 4366 
Q 3744 4066 3744 3513 
Q 3744 3084 3544 2831 
Q 3344 2578 2956 2516 
Q 3422 2416 3680 2098 
Q 3938 1781 3938 1306 
Q 3938 681 3513 340 
Q 3088 0 2303 0 
L 628 0 
L 628 4666 
z
" id="DejaVuSans-42" transform="scale(0.015625)"/>
     </defs>
     <use xlink:href="#DejaVuSans-43"/>
     <use x="69.824219" xlink:href="#DejaVuSans-6f"/>
     <use x="131.005859" xlink:href="#DejaVuSans-74"/>
     <use x="170.214844" xlink:href="#DejaVuSans-74"/>
     <use x="209.423828" xlink:href="#DejaVuSans-6f"/>
     <use x="270.605469" xlink:href="#DejaVuSans-6e"/>
     <use x="333.984375" xlink:href="#DejaVuSans-77"/>
     <use x="415.771484" xlink:href="#DejaVuSans-6f"/>
     <use x="476.953125" xlink:href="#DejaVuSans-6f"/>
     <use x="538.134766" xlink:href="#DejaVuSans-64"/>
     <use x="601.611328" xlink:href="#DejaVuSans-20"/>
     <use x="633.398438" xlink:href="#DejaVuSans-42"/>
     <use x="702.001953" xlink:href="#DejaVuSans-75"/>
     <use x="765.380859" xlink:href="#DejaVuSans-74"/>
     <use x="804.589844" xlink:href="#DejaVuSans-74"/>
     <use x="843.798828" xlink:href="#DejaVuSans-65"/>
    </g>
   </g>
   <g id="legend_1">
    <g id="line2d_14">
     <path d="M 2.281068 113.25496 
L 8.281068 113.25496 
" style="fill:none;stroke:#008000;stroke-linecap:square;stroke-width:0.410021;"/>
    </g>
    <g id="line2d_15"/>
    <g id="text_9">
     <!-- Easy -->
     <g transform="translate(10.681068 114.30496)scale(0.03 -0.03)">
      <use xlink:href="#DejaVuSans-45"/>
      <use x="63.183594" xlink:href="#DejaVuSans-61"/>
      <use x="124.462891" xlink:href="#DejaVuSans-73"/>
      <use x="176.5625" xlink:href="#DejaVuSans-79"/>
     </g>
    </g>
    <g id="line2d_16">
     <path d="M 2.281068 117.658398 
L 8.281068 117.658398 
" style="fill:none;stroke:#4169e1;stroke-linecap:square;stroke-width:0.410021;"/>
    </g>
    <g id="line2d_17"/>
    <g id="text_10">
     <!-- Intermediate -->
     <g transform="translate(10.681068 118.708398)scale(0.03 -0.03)">
      <defs>
       <path d="M 628 4666 
L 1259 4666 
L 1259 0 
L 628 0 
L 628 4666 
z
" id="DejaVuSans-49" transform="scale(0.015625)"/>
      </defs>
      <use xlink:href="#DejaVuSans-49"/>
      <use x="29.492188" xlink:href="#DejaVuSans-6e"/>
      <use x="92.871094" xlink:href="#DejaVuSans-74"/>
      <use x="132.080078" xlink:href="#DejaVuSans-65"/>
      <use x="193.603516" xlink:href="#DejaVuSans-72"/>
      <use x="232.966797" xlink:href="#DejaVuSans-6d"/>
      <use x="330.378906" xlink:href="#DejaVuSans-65"/>
      <use x="391.902344" xlink:href="#DejaVuSans-64"/>
      <use x="455.378906" xlink:href="#DejaVuSans-69"/>
      <use x="483.162109" xlink:href="#DejaVuSans-61"/>
      <use x="544.441406" xlink:href="#DejaVuSans-74"/>
      <use x="583.650391" xlink:href="#DejaVuSans-65"/>
     </g>
    </g>
    <g id="line2d_18">
     <path d="M 36.036693 113.25496 
L 42.036693 113.25496 
" style="fill:none;stroke:#000000;stroke-linecap:square;stroke-width:0.410021;"/>
    </g>
    <g id="line2d_19"/>
    <g id="text_11">
     <!-- Advanced -->
     <g transform="translate(44.436693 114.30496)scale(0.03 -0.03)">
      <defs>
       <path d="M 2188 4044 
L 1331 1722 
L 3047 1722 
L 2188 4044 
z
M 1831 4666 
L 2547 4666 
L 4325 0 
L 3669 0 
L 3244 1197 
L 1141 1197 
L 716 0 
L 50 0 
L 1831 4666 
z
" id="DejaVuSans-41" transform="scale(0.015625)"/>
       <path d="M 191 3500 
L 800 3500 
L 1894 563 
L 2988 3500 
L 3597 3500 
L 2284 0 
L 1503 0 
L 191 3500 
z
" id="DejaVuSans-76" transform="scale(0.015625)"/>
      </defs>
      <use xlink:href="#DejaVuSans-41"/>
      <use x="66.658203" xlink:href="#DejaVuSans-64"/>
      <use x="130.134766" xlink:href="#DejaVuSans-76"/>
      <use x="189.314453" xlink:href="#DejaVuSans-61"/>
      <use x="250.59375" xlink:href="#DejaVuSans-6e"/>
      <use x="313.972656" xlink:href="#DejaVuSans-63"/>
      <use x="368.953125" xlink:href="#DejaVuSans-65"/>
      <use x="430.476562" xlink:href="#DejaVuSans-64"/>
     </g>
    </g>
    <g id="line2d_20">
     <path d="M 36.036693 117.658398 
L 42.036693 117.658398 
" style="fill:none;stroke:#ff0000;stroke-linecap:square;stroke-width:0.410021;"/>
    </g>
    <g id="line2d_21"/>
    <g id="text_12">
     <!-- Expert -->
     <g transform="translate(44.436693 118.708398)scale(0.03 -0.03)">
      <defs>
       <path d="M 3513 3500 
L 2247 1797 
L 3578 0 
L 2900 0 
L 1881 1375 
L 863 0 
L 184 0 
L 1544 1831 
L 300 3500 
L 978 3500 
L 1906 2253 
L 2834 3500 
L 3513 3500 
z
" id="DejaVuSans-78" transform="scale(0.015625)"/>
      </defs>
      <use xlink:href="#DejaVuSans-45"/>
      <use x="63.183594" xlink:href="#DejaVuSans-78"/>
      <use x="122.363281" xlink:href="#DejaVuSans-70"/>
      <use x="185.839844" xlink:href="#DejaVuSans-65"/>
      <use x="247.363281" xlink:href="#DejaVuSans-72"/>
      <use x="288.476562" xlink:href="#DejaVuSans-74"/>
     </g>
    </g>
    <g id="line2d_22">
     <path d="M 65.256224 113.25496 
L 71.256224 113.25496 
" style="fill:none;stroke:#ffd700;stroke-linecap:square;stroke-width:0.410021;"/>
    </g>
    <g id="line2d_23"/>
    <g id="text_13">
     <!-- Extreme -->
     <g transform="translate(73.656224 114.30496)scale(0.03 -0.03)">
      <use xlink:href="#DejaVuSans-45"/>
      <use x="63.183594" xlink:href="#DejaVuSans-78"/>
      <use x="122.363281" xlink:href="#DejaVuSans-74"/>
      <use x="161.572266" xlink:href="#DejaVuSans-72"/>
      <use x="200.435547" xlink:href="#DejaVuSans-65"/>
      <use x="261.958984" xlink:href="#DejaVuSans-6d"/>
      <use x="359.371094" xlink:href="#DejaVuSans-65"/>
     </g>
    </g>
    <g id="line2d_24">
     <path d="M 65.256224 117.658398 
L 71.256224 117.658398 
" style="fill:none;stroke:#000000;stroke-dasharray:0.410021,0.676534;stroke-dashoffset:0;stroke-width:0.410021;"/>
    </g>
    <g id="line2d_25"/>
    <g id="text_14">
     <!-- Gladed -->
     <g transform="translate(73.656224 118.708398)scale(0.03 -0.03)">
      <defs>
       <path d="M 3809 666 
L 3809 1919 
L 2778 1919 
L 2778 2438 
L 4434 2438 
L 4434 434 
Q 4069 175 3628 42 
Q 3188 -91 2688 -91 
Q 1594 -91 976 548 
Q 359 1188 359 2328 
Q 359 3472 976 4111 
Q 1594 4750 2688 4750 
Q 3144 4750 3555 4637 
Q 3966 4525 4313 4306 
L 4313 3634 
Q 3963 3931 3569 4081 
Q 3175 4231 2741 4231 
Q 1884 4231 1454 3753 
Q 1025 3275 1025 2328 
Q 1025 1384 1454 906 
Q 1884 428 2741 428 
Q 3075 428 3337 486 
Q 3600 544 3809 666 
z
" id="DejaVuSans-47" transform="scale(0.015625)"/>
      </defs>
      <use xlink:href="#DejaVuSans-47"/>
      <use x="77.490234" xlink:href="#DejaVuSans-6c"/>
      <use x="105.273438" xlink:href="#DejaVuSans-61"/>
      <use x="166.552734" xlink:href="#DejaVuSans-64"/>
      <use x="230.029297" xlink:href="#DejaVuSans-65"/>
      <use x="291.552734" xlink:href="#DejaVuSans-64"/>
     </g>
    </g>
   </g>
  </g>
  <g id="text_15">
   <!-- Sources: USGS and OpenStreetMaps -->
   <g transform="translate(20.48584 122.888291)scale(0.026087 -0.026087)">
    <defs>
     <path d="M 750 794 
L 1409 794 
L 1409 0 
L 750 0 
L 750 794 
z
M 750 3309 
L 1409 3309 
L 1409 2516 
L 750 2516 
L 750 3309 
z
" id="DejaVuSans-3a" transform="scale(0.015625)"/>
     <path d="M 556 4666 
L 1191 4666 
L 1191 1831 
Q 1191 1081 1462 751 
Q 1734 422 2344 422 
Q 2950 422 3222 751 
Q 3494 1081 3494 1831 
L 3494 4666 
L 4128 4666 
L 4128 1753 
Q 4128 841 3676 375 
Q 3225 -91 2344 -91 
Q 1459 -91 1007 375 
Q 556 841 556 1753 
L 556 4666 
z
" id="DejaVuSans-55" transform="scale(0.015625)"/>
    </defs>
    <use xlink:href="#DejaVuSans-53"/>
    <use x="63.476562" xlink:href="#DejaVuSans-6f"/>
    <use x="124.658203" xlink:href="#DejaVuSans-75"/>
    <use x="188.037109" xlink:href="#DejaVuSans-72"/>
    <use x="226.900391" xlink:href="#DejaVuSans-63"/>
    <use x="281.880859" xlink:href="#DejaVuSans-65"/>
    <use x="343.404297" xlink:href="#DejaVuSans-73"/>
    <use x="395.503906" xlink:href="#DejaVuSans-3a"/>
    <use x="429.195312" xlink:href="#DejaVuSans-20"/>
    <use x="460.982422" xlink:href="#DejaVuSans-55"/>
    <use x="534.175781" xlink:href="#DejaVuSans-53"/>
    <use x="597.652344" xlink:href="#DejaVuSans-47"/>
    <use x="675.142578" xlink:href="#DejaVuSans-53"/>
    <use x="738.619141" xlink:href="#DejaVuSans-20"/>
    <use x="770.40625" xlink:href="#DejaVuSans-61"/>
    <use x="831.685547" xlink:href="#DejaVuSans-6e"/>
    <use x="895.064453" xlink:href="#DejaVuSans-64"/>
    <use x="958.541016" xlink:href="#DejaVuSans-20"/>
    <use x="990.328125" xlink:href="#DejaVuSans-4f"/>
    <use x="1069.039062" xlink:href="#DejaVuSans-70"/>
    <use x="1132.515625" xlink:href="#DejaVuSans-65"/>
    <use x="1194.039062" xlink:href="#DejaVuSans-6e"/>
    <use x="1257.417969" xlink:href="#DejaVuSans-53"/>
    <use x="1320.894531" xlink:href="#DejaVuSans-74"/>
    <use x="1360.103516" xlink:href="#DejaVuSans-72"/>
    <use x="1398.966797" xlink:href="#DejaVuSans-65"/>
    <use x="1460.490234" xlink:href="#DejaVuSans-65"/>
    <use x="1522.013672" xlink:href="#DejaVuSans-74"/>
    <use x="1561.222656" xlink:href="#DejaVuSans-4d"/>
    <use x="1647.501953" xlink:href="#DejaVuSans-61"/>
    <use x="1708.78125" xlink:href="#DejaVuSans-70"/>
    <use x="1772.257812" xlink:href="#DejaVuSans-73"/>
   </g>
  </g>
 </g>
 <defs>
  <clipPath id="pa520567bc5">
   <rect height="104.850198" width="88.56448" x="0" y="9.29031"/>
  </clipPath>
 </defs>
</svg>
