<?xml version="1.0" encoding="utf-8" standalone="no"?>
<!DOCTYPE svg PUBLIC "-//W3C//DTD SVG 1.1//EN"
  "http://www.w3.org/Graphics/SVG/1.1/DTD/svg11.dtd">
<svg height="176.662058pt" version="1.1" viewBox="0 0 149.880291 176.662058" width="149.880291pt" xmlns="http://www.w3.org/2000/svg" xmlns:xlink="http://www.w3.org/1999/xlink">
 <metadata>
  <rdf:RDF xmlns:cc="http://creativecommons.org/ns#" xmlns:dc="http://purl.org/dc/elements/1.1/" xmlns:rdf="http://www.w3.org/1999/02/22-rdf-syntax-ns#">
   <cc:Work>
    <dc:type rdf:resource="http://purl.org/dc/dcmitype/StillImage"/>
    <dc:date>2022-05-18T23:17:16.438068</dc:date>
    <dc:format>image/svg+xml</dc:format>
    <dc:creator>
     <cc:Agent>
      <dc:title>Matplotlib v3.4.3, https://matplotlib.org/</dc:title>
     </cc:Agent>
    </dc:creator>
   </cc:Work>
  </rdf:RDF>
 </metadata>
 <defs>
  <style type="text/css">*{stroke-linecap:butt;stroke-linejoin:round;}</style>
 </defs>
 <g id="figure_1">
  <g id="patch_1">
   <path d="M 0 176.662058 
L 149.880291 176.662058 
L 149.880291 0 
L 0 0 
z
" style="fill:#ffffff;"/>
  </g>
  <g id="axes_1">
   <g id="line2d_1">
    <path clip-path="url(#p4828fa3df7)" d="M 135.902088 83.557507 
" style="fill:none;stroke:#008000;stroke-linecap:square;stroke-width:0.001;"/>
   </g>
   <g id="line2d_2">
    <path clip-path="url(#p4828fa3df7)" d="M 135.902088 83.557507 
" style="fill:none;stroke:#4169e1;stroke-linecap:square;stroke-width:0.001;"/>
   </g>
   <g id="line2d_3">
    <path clip-path="url(#p4828fa3df7)" d="M 135.902088 83.557507 
" style="fill:none;stroke:#000000;stroke-linecap:square;stroke-width:0.001;"/>
   </g>
   <g id="line2d_4">
    <path clip-path="url(#p4828fa3df7)" d="M 135.902088 83.557507 
" style="fill:none;stroke:#ff0000;stroke-linecap:square;stroke-width:0.001;"/>
   </g>
   <g id="line2d_5">
    <path clip-path="url(#p4828fa3df7)" d="M 135.902088 83.557507 
" style="fill:none;stroke:#ffd700;stroke-linecap:square;stroke-width:0.001;"/>
   </g>
   <g id="line2d_6">
    <path clip-path="url(#p4828fa3df7)" d="M 135.902088 83.557507 
" style="fill:none;stroke:#000000;stroke-dasharray:0.001,0.00165;stroke-dashoffset:0;stroke-width:0.001;"/>
   </g>
   <g id="line2d_7">
    <path clip-path="url(#p4828fa3df7)" d="M 66.646522 141.371915 
L 64.35055 138.852119 
L 62.054578 136.332323 
L 58.816533 132.778645 
L 55.578488 129.224967 
L 52.340443 125.671289 
L 49.102399 122.117611 
L 46.083748 118.803897 
L 43.065097 115.490183 
L 40.610527 112.796583 
L 38.155957 110.102983 
L 33.977425 105.516854 
L 29.798894 100.930725 
L 27.514023 98.424518 
L 23.708726 94.247508 
" style="fill:none;stroke:#808080;stroke-linecap:square;stroke-width:0.69389;"/>
   </g>
   <g id="line2d_8">
    <path clip-path="url(#p4828fa3df7)" d="M 63.405834 152.232143 
L 59.435594 152.127718 
L 55.465355 152.023293 
L 51.495115 151.918867 
L 47.524876 151.814442 
" style="fill:none;stroke:#808080;stroke-linecap:square;stroke-width:0.69389;"/>
   </g>
   <g id="line2d_9">
    <path clip-path="url(#p4828fa3df7)" d="M 66.043849 146.518793 
L 60.25819 145.598993 
L 54.472531 144.679192 
" style="fill:none;stroke:#808080;stroke-linecap:square;stroke-width:0.69389;"/>
   </g>
   <g id="line2d_10">
    <path clip-path="url(#p4828fa3df7)" d="M 70.41587 140.001512 
L 66.829438 136.154943 
L 62.722804 131.751916 
L 60.291628 129.144502 
L 57.860451 126.537089 
L 55.429274 123.929676 
L 52.998097 121.322263 
L 50.56692 118.71485 
L 48.135743 116.107436 
L 45.704566 113.500023 
L 43.273389 110.89261 
L 40.948077 108.39892 
L 38.622764 105.90523 
L 36.297451 103.41154 
L 33.972139 100.917851 
L 30.551177 97.248661 
L 27.130216 93.579472 
" style="fill:none;stroke:#808080;stroke-linecap:square;stroke-width:0.69389;"/>
   </g>
   <g id="line2d_11">
    <path clip-path="url(#p4828fa3df7)" d="M 81.034543 141.735258 
L 80.869601 136.774342 
L 80.693028 131.435779 
L 80.525443 126.383312 
L 80.357857 121.330846 
L 80.184985 116.114589 
L 80.012113 110.898332 
L 79.845585 105.865892 
L 79.679057 100.833452 
L 79.545835 96.819516 
L 79.412613 92.805581 
L 79.23604 87.472739 
L 79.059996 82.164931 
L 78.883952 76.857124 
L 78.705794 71.477792 
L 78.527635 66.09846 
L 78.339961 60.449481 
L 78.152286 54.800503 
L 77.956153 48.880449 
L 77.76002 42.960394 
L 77.5549 36.770693 
" style="fill:none;stroke:#808080;stroke-linecap:square;stroke-width:0.69389;"/>
   </g>
   <g id="line2d_12">
    <path clip-path="url(#p4828fa3df7)" d="M 19.096693 70.341273 
L 21.289048 67.516784 
L 23.481402 64.692295 
L 25.653668 61.893554 
L 27.825933 59.094814 
L 30.887934 55.150972 
L 33.045397 52.371543 
L 35.20286 49.592114 
L 37.360323 46.812685 
L 39.517786 44.033256 
L 41.587491 41.366836 
L 43.657197 38.700415 
L 45.69201 36.079055 
L 47.726824 33.457694 
L 50.748647 29.563919 
L 53.77047 25.671574 
L 54.829905 24.306893 
" style="fill:none;stroke:#808080;stroke-linecap:square;stroke-width:0.69389;"/>
   </g>
   <g id="line2d_13">
    <path clip-path="url(#p4828fa3df7)" d="M 100.636212 137.984531 
L 100.973497 132.049456 
L 101.310783 126.114381 
L 101.503744 122.717699 
L 101.696705 119.321017 
L 101.88015 116.10243 
L 102.063595 112.883842 
L 102.256027 109.490021 
L 102.44846 106.0962 
L 102.697987 101.712484 
L 102.947515 97.328768 
L 103.307004 91.003172 
L 103.52587 87.151596 
L 103.744735 83.30002 
L 104.01911 78.475 
L 104.293484 73.64998 
L 104.605394 68.17123 
L 104.854922 63.775355 
L 105.107093 59.341572 
L 105.359264 54.90779 
L 105.60139 50.649241 
L 105.843517 46.390693 
L 106.104146 41.803848 
L 106.364776 37.217004 
" style="fill:none;stroke:#808080;stroke-linecap:square;stroke-width:0.69389;"/>
   </g>
   <g id="line2d_14">
    <path clip-path="url(#p4828fa3df7)" d="M 118.554627 136.777203 
L 118.492773 133.239618 
L 118.43092 129.702033 
L 118.37171 126.310358 
L 118.3125 122.918682 
L 118.226857 118.014986 
L 118.141214 113.111289 
L 118.053985 108.0953 
L 117.966756 103.079311 
L 117.883757 98.334398 
L 117.800757 93.589485 
L 117.698726 87.733087 
L 117.596694 81.876689 
L 117.484618 75.491012 
L 117.373599 69.120355 
L 117.262581 62.749698 
L 117.177466 57.863168 
L 117.092352 52.976637 
L 117.013582 48.466324 
L 116.934811 43.95601 
L 116.856041 39.445697 
L 116.777271 34.935383 
" style="fill:none;stroke:#808080;stroke-linecap:square;stroke-width:0.69389;"/>
   </g>
   <g id="line2d_15">
    <path clip-path="url(#p4828fa3df7)" d="M 138.234538 134.170863 
L 138.174271 133.314003 
L 137.829584 128.44893 
L 137.617062 125.440624 
L 137.271319 120.546941 
L 136.925575 115.653258 
L 136.747945 113.141329 
L 136.46564 109.141698 
L 136.163246 104.868845 
L 135.827018 100.108912 
L 135.49079 95.34898 
L 135.260295 92.088908 
L 134.905035 87.069343 
L 134.687227 83.986652 
L 134.580437 82.47034 
" style="fill:none;stroke:#808080;stroke-linecap:square;stroke-width:0.69389;"/>
   </g>
   <g id="line2d_16">
    <path clip-path="url(#p4828fa3df7)" d="M 135.902088 83.557507 
L 136.399029 84.534169 
L 136.89597 85.510832 
L 137.39291 86.487494 
L 137.889851 87.464156 
L 138.589005 88.695087 
L 139.288158 89.926018 
L 139.987311 91.156949 
L 140.686465 92.387879 
L 141.141906 93.517604 
L 141.597346 94.647328 
L 142.052787 95.777052 
L 142.508228 96.906776 
L 142.648059 98.473512 
L 142.78789 100.040249 
L 142.92772 101.606986 
L 143.067551 103.173723 
L 142.935452 105.05597 
L 142.803353 106.938218 
L 142.671254 108.820466 
L 142.539155 110.702713 
L 142.407056 112.584961 
L 142.274957 114.467209 
L 142.142858 116.349456 
L 142.010759 118.231704 
L 141.87866 120.113951 
L 141.746561 121.996199 
L 141.614462 123.878447 
L 141.482363 125.760694 
L 141.350264 127.642942 
L 141.218165 129.52519 
L 141.086066 131.407437 
L 140.953967 133.289685 
" style="fill:none;stroke:#4169e1;stroke-linecap:square;stroke-width:0.69389;"/>
   </g>
   <g id="line2d_17">
    <path clip-path="url(#p4828fa3df7)" d="M 47.375794 153.219177 
L 48.364257 153.364192 
L 49.352719 153.509207 
L 50.341182 153.654222 
L 51.329645 153.799238 
L 52.318107 153.944253 
L 53.30657 154.089268 
L 54.295033 154.234283 
L 55.283496 154.379299 
L 56.271826 154.297403 
L 57.260157 154.215508 
L 58.248487 154.133613 
L 59.236818 154.051718 
L 60.225149 153.969823 
L 61.213479 153.887928 
L 62.20181 153.806032 
L 63.19014 153.724137 
" style="fill:none;stroke:#008000;stroke-linecap:square;stroke-width:0.69389;"/>
   </g>
   <g id="line2d_18">
    <path clip-path="url(#p4828fa3df7)" d="M 48.81375 147.567338 
L 49.789327 147.68723 
L 50.764903 147.807122 
L 51.74048 147.927015 
L 52.716057 148.046907 
L 53.691633 148.166799 
L 54.66721 148.286692 
L 55.642786 148.406584 
L 56.618363 148.526477 
L 57.59394 148.646369 
L 58.569516 148.766261 
L 59.545093 148.886154 
L 60.52067 149.006046 
L 61.496246 149.125938 
L 62.471823 149.245831 
L 63.4474 149.365723 
L 64.422976 149.485616 
" style="fill:none;stroke:#008000;stroke-linecap:square;stroke-width:0.69389;"/>
   </g>
   <g id="line2d_19">
    <path clip-path="url(#p4828fa3df7)" d="M 10.900343 123.937186 
L 12.126306 124.807635 
L 13.352269 125.678084 
L 14.578233 126.548533 
L 15.804196 127.418982 
L 16.746533 127.921082 
L 17.68887 128.423181 
L 18.631208 128.925281 
L 19.573545 129.42738 
L 20.515882 129.92948 
L 21.458219 130.43158 
L 22.400556 130.933679 
L 23.342893 131.435779 
L 24.580421 131.778827 
L 25.817949 132.121874 
L 27.055477 132.464922 
L 28.293005 132.80797 
L 29.530532 133.151018 
L 30.76806 133.494065 
L 32.005588 133.837113 
L 33.243116 134.180161 
L 34.480644 134.523209 
L 35.718172 134.866256 
L 36.9557 135.209304 
L 38.193227 135.552352 
L 39.430755 135.8954 
L 40.668283 136.238447 
L 41.905811 136.581495 
L 43.143339 136.924543 
L 44.380867 137.267591 
L 45.618395 137.610638 
L 46.855922 137.953686 
L 48.09345 138.296734 
L 49.330978 138.639782 
L 50.568506 138.982829 
L 51.806034 139.325877 
L 53.043562 139.668925 
L 54.28109 140.011972 
L 55.518617 140.35502 
L 56.756145 140.698068 
L 57.993673 141.041116 
L 59.231201 141.384163 
L 60.468729 141.727211 
L 61.706257 142.070259 
L 62.943785 142.413307 
" style="fill:none;stroke:#008000;stroke-linecap:square;stroke-width:0.69389;"/>
   </g>
   <g id="line2d_20">
    <path clip-path="url(#p4828fa3df7)" d="M 53.497681 22.28276 
L 51.863063 23.085976 
L 50.228445 23.889192 
L 49.44497 24.603182 
L 48.661496 25.317172 
L 47.878021 26.031162 
L 47.094546 26.745152 
L 46.311072 27.459142 
L 45.527597 28.173132 
L 44.744122 28.887122 
L 43.960648 29.601112 
L 42.865065 30.939776 
L 41.769483 32.27844 
L 40.6739 33.617104 
L 39.578318 34.955768 
L 38.482735 36.294432 
L 37.387152 37.633096 
L 36.29157 38.97176 
L 35.195987 40.310424 
L 34.100405 41.649088 
L 33.004822 42.987752 
L 31.90924 44.326416 
L 30.813657 45.66508 
L 29.718075 47.003744 
L 28.622492 48.342408 
L 27.52691 49.681072 
L 26.431327 51.019736 
L 25.71605 51.845304 
L 25.000772 52.670872 
L 24.285495 53.496439 
L 23.570217 54.322007 
L 22.85494 55.147574 
L 22.139662 55.973142 
L 21.424385 56.79871 
L 20.709107 57.624277 
L 20.254988 59.018819 
L 19.800869 60.413362 
L 19.346749 61.807904 
L 18.89263 63.202446 
L 18.438511 64.596989 
L 17.984392 65.991531 
L 17.530272 67.386073 
L 17.076153 68.780615 
" style="fill:none;stroke:#008000;stroke-linecap:square;stroke-width:0.69389;"/>
   </g>
   <g id="line2d_21">
    <path clip-path="url(#p4828fa3df7)" d="M 17.076153 68.780615 
L 16.531236 70.387048 
L 15.98632 71.993481 
L 15.441403 73.599913 
L 14.896486 75.206346 
L 14.35157 76.812779 
L 13.806653 78.419211 
L 13.261736 80.025644 
L 12.71682 81.632076 
L 12.387596 83.060056 
L 12.058373 84.488036 
L 11.72915 85.916016 
L 11.399927 87.343996 
L 11.070703 88.771976 
L 10.74148 90.199955 
L 10.412257 91.627935 
L 10.083034 93.055915 
L 9.799143 94.060114 
L 9.515252 95.064313 
L 9.231362 96.068513 
L 8.947471 97.072712 
L 8.66358 98.076911 
L 8.37969 99.08111 
L 8.095799 100.085309 
L 7.811909 101.089509 
L 7.687013 102.138232 
L 7.562117 103.186955 
L 7.437221 104.235678 
L 7.312325 105.284401 
L 7.187429 106.333124 
L 7.062533 107.381847 
L 6.937637 108.430569 
L 6.812741 109.479292 
L 6.880938 111.242005 
L 6.949135 113.004718 
L 7.017332 114.767431 
L 7.085529 116.530144 
L 7.471451 117.623391 
L 7.857373 118.716638 
L 8.243295 119.809884 
L 8.629218 120.903131 
L 9.76478 122.420159 
L 10.900343 123.937186 
" style="fill:none;stroke:#008000;stroke-linecap:square;stroke-width:0.69389;"/>
   </g>
   <g id="line2d_22">
    <path clip-path="url(#p4828fa3df7)" d="M 27.493934 91.8257 
L 28.908894 92.59816 
L 30.323853 93.370621 
L 31.738813 94.143082 
L 33.153772 94.915543 
L 33.658114 95.460557 
L 34.824273 96.720858 
L 35.990432 97.981158 
L 37.15659 99.241458 
L 38.322749 100.501759 
L 39.488908 101.762059 
L 40.655067 103.02236 
L 41.821225 104.28266 
L 42.987384 105.54296 
L 44.153543 106.803261 
L 45.319701 108.063561 
L 46.48586 109.323862 
L 47.652019 110.584162 
L 48.818178 111.844462 
L 49.984336 113.104763 
L 51.150495 114.365063 
L 52.316654 115.625363 
L 53.482812 116.885664 
L 54.648971 118.145964 
L 55.81513 119.406265 
L 56.981288 120.666565 
L 58.147447 121.926865 
L 59.313606 123.187166 
L 60.479765 124.447466 
L 61.645923 125.707767 
L 62.812082 126.968067 
L 63.978241 128.228367 
L 65.144399 129.488668 
L 66.310558 130.748968 
L 67.476717 132.009268 
L 68.642876 133.269569 
L 69.809034 134.529869 
L 70.975193 135.79017 
" style="fill:none;stroke:#4169e1;stroke-linecap:square;stroke-width:0.69389;"/>
   </g>
   <g id="line2d_23">
    <path clip-path="url(#p4828fa3df7)" d="M 56.242486 26.060666 
L 55.344027 27.428923 
L 54.445569 28.79718 
L 53.547111 30.165437 
L 52.648652 31.533694 
L 51.559348 33.023364 
L 50.470043 34.513033 
L 49.380738 36.002703 
L 48.291434 37.492372 
L 47.202129 38.982042 
L 46.112824 40.471711 
L 45.023519 41.96138 
L 43.934215 43.45105 
L 43.339075 44.543403 
L 42.743936 45.635755 
L 42.148796 46.728108 
L 41.553657 47.820461 
L 40.958518 48.912813 
L 40.363378 50.005166 
L 39.768239 51.097519 
L 39.173099 52.189872 
L 38.274641 53.668634 
L 37.376183 55.147396 
L 36.477724 56.626158 
L 35.579266 58.10492 
L 34.927957 59.715644 
L 34.276647 61.326368 
L 33.625337 62.937092 
L 32.974028 64.547816 
L 32.659475 65.474769 
L 32.344922 66.401722 
L 32.030369 67.328675 
L 31.715816 68.255628 
L 30.604176 69.039175 
L 29.492535 69.822722 
L 28.380894 70.60627 
L 27.269254 71.389817 
L 26.157613 72.173364 
L 25.045973 72.956911 
L 23.934332 73.740458 
L 22.822691 74.524005 
" style="fill:none;stroke:#008000;stroke-linecap:square;stroke-width:0.69389;"/>
   </g>
   <g id="line2d_24">
    <path clip-path="url(#p4828fa3df7)" d="M 33.658114 95.460557 
L 34.843371 94.835436 
L 36.028627 94.210315 
L 36.837214 92.974378 
L 37.6458 91.73844 
L 38.454386 90.502503 
L 39.262972 89.266565 
L 39.981685 88.582437 
L 40.700399 87.898308 
L 41.419113 87.214179 
L 42.137827 86.530051 
L 43.934215 86.132376 
L 45.730603 85.734702 
L 46.921146 85.999699 
L 48.111689 86.264696 
L 49.302232 86.529693 
L 50.492775 86.79469 
L 51.705522 88.118602 
L 52.918269 89.442515 
" style="fill:none;stroke:#008000;stroke-linecap:square;stroke-width:0.69389;"/>
   </g>
   <g id="line2d_25">
    <path clip-path="url(#p4828fa3df7)" d="M 82.74423 37.978021 
L 82.620656 39.0153 
L 82.497081 40.052579 
L 82.373507 41.089859 
L 82.249933 42.127138 
L 82.126358 43.164417 
L 82.002784 44.201696 
L 81.87921 45.238975 
L 81.755635 46.276254 
L 81.474917 47.45676 
L 81.194198 48.637267 
L 80.913479 49.817773 
L 80.632761 50.998279 
L 80.352042 52.178785 
L 80.071323 53.359292 
L 79.790605 54.539798 
L 79.509886 55.720304 
L 79.57729 56.790663 
L 79.644694 57.861022 
L 79.712099 58.931381 
L 79.779503 60.00174 
L 79.846907 61.072099 
L 79.914311 62.142458 
L 79.981715 63.212817 
L 80.04912 64.283176 
L 79.51015 65.541286 
L 78.971181 66.799396 
L 78.432212 68.057506 
L 77.893243 69.315616 
L 76.545687 70.507209 
L 75.198132 71.698801 
L 73.850577 72.890394 
L 72.503021 74.081986 
L 71.930218 74.920607 
L 71.357414 75.759228 
L 70.784611 76.597848 
L 70.211807 77.436469 
L 69.639004 78.27509 
L 69.0662 79.113711 
L 68.493397 79.952332 
L 67.920593 80.790952 
L 67.471496 82.622686 
L 67.022399 84.45442 
L 66.573302 86.286153 
L 66.124205 88.117887 
L 66.331969 89.607646 
L 66.539732 91.097405 
L 66.747496 92.587164 
L 66.955259 94.076922 
L 67.163023 95.566681 
L 67.370786 97.05644 
L 67.57855 98.546199 
L 67.786314 100.035958 
L 67.994077 101.525717 
L 68.201841 103.015475 
L 68.409604 104.505234 
L 68.617368 105.994993 
L 68.825131 107.484752 
L 69.032895 108.974511 
L 69.240658 110.46427 
L 69.448422 111.954028 
L 69.875117 113.725235 
L 70.301812 115.496441 
L 70.728507 117.267648 
L 71.155202 119.038854 
L 71.581897 120.81006 
L 72.008592 122.581267 
L 72.435287 124.352473 
L 72.861982 126.12368 
L 73.288677 127.894886 
L 73.715372 129.666092 
L 74.142067 131.437299 
L 74.568762 133.208505 
L 74.995457 134.979711 
L 75.422152 136.750918 
L 75.848847 138.522124 
L 76.275542 140.293331 
" style="fill:none;stroke:#008000;stroke-linecap:square;stroke-width:0.69389;"/>
   </g>
   <g id="line2d_26">
    <path clip-path="url(#p4828fa3df7)" d="M 90.110584 38.59599 
L 90.043312 40.074573 
L 89.97604 41.553156 
L 89.908768 43.031739 
L 89.841496 44.510323 
L 89.774224 45.988906 
L 89.706952 47.467489 
L 89.63968 48.946072 
L 89.572408 50.424655 
L 89.505003 51.814906 
L 89.437599 53.205157 
L 89.370195 54.595408 
L 89.302791 55.985659 
L 89.235387 57.37591 
L 89.167982 58.76616 
L 89.100578 60.156411 
L 89.033174 61.546662 
L 88.291992 63.312236 
L 87.55081 65.07781 
L 86.809628 66.843384 
L 86.068447 68.608958 
L 85.495643 69.922141 
L 84.92284 71.235325 
L 84.350036 72.548508 
L 83.777233 73.861692 
L 83.204429 75.174875 
L 82.631626 76.488059 
L 82.058822 77.801242 
L 81.486019 79.114426 
L 80.879645 80.273117 
L 80.273272 81.431809 
L 79.666898 82.5905 
L 79.060525 83.749191 
L 78.454151 84.907883 
L 77.847778 86.066574 
L 77.241404 87.225266 
L 76.635031 88.383957 
L 76.590095 89.553377 
L 76.545159 90.722797 
L 76.500223 91.892217 
L 76.455286 93.061637 
L 76.724903 94.717064 
L 76.99452 96.37249 
L 77.264137 98.027917 
L 77.533754 99.683344 
L 77.853791 100.687543 
L 78.173829 101.691742 
L 78.493867 102.695941 
L 78.813905 103.70014 
L 79.133942 104.70434 
L 79.45398 105.708539 
L 79.774018 106.712738 
L 80.094056 107.716937 
L 80.414094 108.721136 
L 80.734131 109.725336 
L 81.054169 110.729535 
L 81.374207 111.733734 
L 81.694245 112.737933 
L 82.014282 113.742132 
L 82.33432 114.746332 
L 82.654358 115.750531 
L 82.834102 117.416865 
L 83.013847 119.083199 
L 83.193592 120.749533 
L 83.373336 122.415867 
L 83.553081 124.082201 
L 83.732825 125.748535 
L 83.91257 127.414869 
L 84.092314 129.081203 
L 84.515771 130.370784 
L 84.939228 131.660365 
L 85.293695 132.739485 
L 85.648162 133.818606 
L 86.002628 134.897727 
L 86.357095 135.976848 
L 86.711562 137.055968 
L 87.066029 138.135089 
L 87.420496 139.21421 
L 87.774962 140.293331 
" style="fill:none;stroke:#008000;stroke-linecap:square;stroke-width:0.69389;"/>
   </g>
   <g id="line2d_27">
    <path clip-path="url(#p4828fa3df7)" d="M 72.323277 36.388754 
L 71.896384 37.425855 
L 71.46949 38.462955 
L 71.042597 39.500055 
L 70.615704 40.537156 
L 70.346351 41.993745 
L 70.076999 43.450335 
L 69.807646 44.906924 
L 69.538294 46.363514 
L 69.381018 47.433873 
L 69.223741 48.504232 
L 69.066465 49.574591 
L 68.909188 50.64495 
L 68.751912 51.715309 
L 68.594635 52.785668 
L 68.437359 53.856027 
L 68.280082 54.926386 
L 67.931959 55.853339 
L 67.583837 56.780292 
L 67.235714 57.707245 
L 66.887591 58.634198 
L 66.539468 59.561151 
L 66.191345 60.488104 
L 65.843222 61.415058 
L 65.495099 62.342011 
L 64.855024 63.500523 
L 64.214948 64.659036 
L 63.574873 65.817548 
L 62.934797 66.976061 
L 62.294722 68.134574 
L 61.654646 69.293086 
L 61.014571 70.451599 
L 60.374495 71.610111 
L 59.914032 72.61431 
L 59.453569 73.61851 
L 58.993106 74.622709 
L 58.532642 75.626908 
L 58.072179 76.631107 
L 57.611716 77.635306 
L 57.151253 78.639506 
L 56.69079 79.643705 
L 55.994544 80.92363 
L 55.298298 82.203554 
L 54.602052 83.483479 
L 53.905807 84.763404 
L 53.658922 85.933182 
L 53.412038 87.102959 
L 53.165154 88.272737 
L 52.918269 89.442515 
L 53.187886 91.075411 
L 53.457503 92.708308 
L 54.456935 93.911165 
L 55.456368 95.114023 
L 56.4558 96.31688 
L 57.455232 97.519738 
L 58.454665 98.722595 
L 59.454097 99.925453 
L 60.45353 101.12831 
L 61.452962 102.331168 
L 62.452395 103.534026 
L 63.451827 104.736883 
L 64.45126 105.939741 
L 65.450692 107.142598 
L 66.450124 108.345456 
L 67.449557 109.548313 
L 68.448989 110.751171 
L 69.448422 111.954028 
L 70.416597 113.185674 
L 71.384773 114.41732 
L 72.352948 115.648966 
L 73.321123 116.880612 
L 74.289299 118.112258 
L 75.257474 119.343904 
L 76.22565 120.57555 
L 77.193825 121.807197 
L 78.162 123.038843 
L 79.130176 124.270489 
L 80.098351 125.502135 
L 81.066527 126.733781 
L 82.034702 127.965427 
L 83.002877 129.197073 
L 83.971053 130.428719 
L 84.939228 131.660365 
" style="fill:none;stroke:#008000;stroke-linecap:square;stroke-width:0.69389;"/>
   </g>
   <g id="line2d_28">
    <path clip-path="url(#p4828fa3df7)" d="M 102.508727 38.68468 
L 102.199923 39.766036 
L 101.89112 40.847392 
L 101.582316 41.928747 
L 101.273512 43.010103 
L 100.964708 44.091459 
L 100.655905 45.172815 
L 100.347101 46.254171 
L 100.038297 47.335527 
L 99.729493 48.416883 
L 99.42069 49.498239 
L 99.111886 50.579595 
L 98.803082 51.66095 
L 98.494278 52.742306 
L 98.185475 53.823662 
L 97.876671 54.905018 
L 97.567867 55.986374 
L 97.354487 57.095267 
L 97.141106 58.204159 
L 96.927725 59.313052 
L 96.714345 60.421945 
L 96.500964 61.530837 
L 96.287584 62.63973 
L 96.074203 63.748623 
L 95.860823 64.857515 
L 95.647442 65.966408 
L 95.434062 67.075301 
L 95.220681 68.184193 
L 95.007301 69.293086 
L 94.79392 70.401979 
L 94.58054 71.510871 
L 94.367159 72.619764 
L 94.153778 73.728657 
L 93.9741 74.903888 
L 93.794422 76.079119 
L 93.614743 77.254351 
L 93.435065 78.429582 
L 93.255386 79.604814 
L 93.075708 80.780045 
L 92.896029 81.955276 
L 92.716351 83.130508 
L 92.536672 84.305739 
L 92.356994 85.48097 
L 92.177316 86.656202 
L 91.997637 87.831433 
L 91.817959 89.006664 
L 91.63828 90.181896 
L 91.458602 91.357127 
L 91.278923 92.532358 
L 91.691939 93.699096 
L 92.104955 94.865834 
L 92.517971 96.032572 
L 92.930987 97.19931 
L 93.344003 98.366047 
L 93.757019 99.532785 
L 94.170035 100.699523 
L 94.583051 101.866261 
L 94.872757 102.684497 
L 94.912043 103.788026 
L 94.951329 104.891554 
L 94.990615 105.995082 
L 95.029901 107.098611 
L 95.069187 108.202139 
L 95.108473 109.305668 
L 95.147759 110.409196 
L 95.187045 111.512724 
L 95.226331 112.616253 
L 95.265617 113.719781 
L 95.304903 114.823309 
L 95.344189 115.926838 
L 95.383475 117.030366 
L 95.422762 118.133895 
L 95.462048 119.237423 
L 95.501334 120.340951 
L 95.54062 121.44448 
L 95.579906 122.548008 
L 95.619192 123.651536 
L 95.658478 124.755065 
L 95.697764 125.858593 
L 95.73705 126.962121 
L 95.776336 128.06565 
L 95.815622 129.169178 
L 95.854908 130.272707 
L 95.894194 131.376235 
L 95.933481 132.479763 
L 95.972767 133.583292 
L 96.012053 134.68682 
L 96.051339 135.790348 
L 96.090625 136.893877 
L 96.129911 137.997405 
" style="fill:none;stroke:#008000;stroke-linecap:square;stroke-width:0.69389;"/>
   </g>
   <g id="line2d_29">
    <path clip-path="url(#p4828fa3df7)" d="M 102.598599 85.734702 
L 102.097627 86.742925 
L 101.596656 87.751147 
L 101.095684 88.759369 
L 100.594712 89.767592 
L 100.09374 90.775814 
L 99.592769 91.784037 
L 99.091797 92.792259 
L 98.590825 93.800482 
L 98.089853 94.808704 
L 97.588881 95.816926 
L 97.08791 96.825149 
L 96.586938 97.833371 
L 96.085966 98.841594 
L 95.584994 99.849816 
L 95.084022 100.858039 
L 94.583051 101.866261 
" style="fill:none;stroke:#4169e1;stroke-linecap:square;stroke-width:0.69389;"/>
   </g>
   <g id="line2d_30">
    <path clip-path="url(#p4828fa3df7)" d="M 110.953548 38.5073 
L 110.818806 40.162458 
L 110.684063 41.817617 
L 110.549321 43.472775 
L 110.414579 45.127934 
L 110.279836 46.783092 
L 110.145094 48.438251 
L 110.010352 50.093409 
L 109.875609 51.748567 
L 109.740867 53.403726 
L 109.606125 55.058884 
L 109.471382 56.714043 
L 109.33664 58.369201 
L 109.201898 60.02436 
L 109.067155 61.679518 
L 108.932413 63.334677 
L 108.797671 64.989835 
L 108.921179 66.788489 
L 109.044687 68.587143 
L 109.168196 70.385796 
L 109.291704 72.18445 
L 109.415212 73.983104 
L 109.53872 75.781758 
L 109.662229 77.580412 
L 109.785737 79.379065 
L 109.909245 81.177719 
L 110.032754 82.976373 
L 110.156262 84.775027 
L 110.27977 86.573681 
L 110.403278 88.372334 
L 110.526787 90.170988 
L 110.650295 91.969642 
L 110.773803 93.768296 
L 110.305675 94.719567 
L 109.837546 95.670838 
L 109.369417 96.62211 
L 108.901288 97.573381 
L 108.381086 98.630508 
L 107.860885 99.687635 
L 107.340683 100.744762 
L 106.820481 101.801889 
L 106.842949 103.037827 
L 106.865417 104.273764 
L 106.887885 105.509702 
L 106.910353 106.745639 
L 106.932821 107.981577 
L 106.955289 109.217514 
L 106.977757 110.453452 
L 107.000226 111.689389 
L 107.022694 112.925326 
L 107.045162 114.161264 
L 107.06763 115.397201 
L 107.090098 116.633139 
L 107.112566 117.869076 
L 107.135034 119.105014 
L 107.157502 120.340951 
L 107.17997 121.576889 
L 107.112632 122.581088 
L 107.045294 123.585287 
L 106.977956 124.589486 
L 106.910618 125.593685 
L 106.843279 126.597885 
L 106.775941 127.602084 
L 106.708603 128.606283 
L 106.641265 129.610482 
L 106.573927 130.614681 
L 106.506589 131.618881 
L 106.439251 132.62308 
L 106.371913 133.627279 
L 106.304575 134.631478 
L 106.237236 135.635677 
L 106.169898 136.639877 
L 106.10256 137.644076 
" style="fill:none;stroke:#4169e1;stroke-linecap:square;stroke-width:0.69389;"/>
   </g>
   <g id="line2d_31">
    <path clip-path="url(#p4828fa3df7)" d="M 108.901288 97.573381 
L 109.247693 98.488175 
L 109.594098 99.402969 
L 109.940502 100.317763 
L 110.286907 101.232557 
L 110.633312 102.147351 
L 110.979717 103.062145 
L 111.326121 103.976939 
L 111.672526 104.891733 
L 111.998181 106.204916 
L 112.323836 107.5181 
L 112.64949 108.831284 
L 112.975145 110.144467 
L 113.3008 111.457651 
L 113.626455 112.770834 
L 113.952109 114.084018 
L 114.277764 115.397201 
L 114.418124 116.633139 
L 114.558483 117.869076 
L 114.698842 119.105014 
L 114.839202 120.340951 
L 114.979561 121.576889 
L 115.11992 122.812826 
L 115.26028 124.048764 
L 115.400639 125.284701 
L 115.540998 126.520639 
L 115.681358 127.756576 
L 115.821717 128.992514 
L 115.962076 130.228451 
L 116.102436 131.464388 
L 116.242795 132.700326 
L 116.383154 133.936263 
L 116.523514 135.172201 
" style="fill:none;stroke:#4169e1;stroke-linecap:square;stroke-width:0.69389;"/>
   </g>
   <g id="line2d_32">
    <path clip-path="url(#p4828fa3df7)" d="M 118.769263 35.859476 
L 118.949007 36.984908 
L 119.128752 38.110341 
L 119.308496 39.235773 
L 119.488241 40.361206 
L 119.667985 41.486639 
L 119.84773 42.612071 
L 120.027474 43.737504 
L 120.207219 44.862937 
L 120.308193 46.087788 
L 120.409167 47.312639 
L 120.510141 48.53749 
L 120.611116 49.762342 
L 120.71209 50.987193 
L 120.813064 52.212044 
L 120.914038 53.436895 
L 121.015012 54.661746 
L 121.048714 55.996924 
L 121.082416 57.332101 
L 121.116118 58.667278 
L 121.14982 60.002455 
L 121.183523 61.337633 
L 121.217225 62.67281 
L 121.250927 64.007987 
L 121.284629 65.343164 
L 121.374501 66.954246 
L 121.464373 68.565328 
L 121.554246 70.176409 
L 121.644118 71.787491 
L 121.913735 73.089588 
L 122.183352 74.391686 
L 122.452968 75.693783 
L 122.722585 76.99588 
L 122.355166 78.020822 
L 121.987747 79.045763 
L 121.609755 80.100029 
L 121.231763 81.154295 
L 120.853771 82.208561 
L 120.475778 83.262827 
L 119.948043 84.1567 
L 119.420308 85.050574 
L 118.892573 85.944447 
L 118.364838 86.83832 
L 117.837102 87.732193 
L 117.309367 88.626066 
L 116.781632 89.519939 
L 116.253897 90.413813 
L 115.737396 91.539245 
L 115.220894 92.664678 
L 114.704393 93.790111 
L 114.187892 94.915543 
L 114.255296 96.041333 
L 114.3227 97.167124 
L 114.390105 98.292914 
L 114.457509 99.418704 
L 115.187324 101.206272 
L 115.91714 102.993839 
L 116.646956 104.781407 
L 117.376771 106.568974 
L 118.106587 108.356542 
L 118.836403 110.14411 
L 119.566218 111.931677 
L 120.296034 113.719245 
L 120.459126 114.973778 
L 120.622217 116.228312 
L 120.785309 117.482846 
L 120.948401 118.73738 
L 121.161451 120.377429 
L 121.374501 122.017478 
L 121.374501 123.661818 
L 121.374501 125.306158 
L 121.374501 126.950499 
L 121.374501 128.594839 
L 121.374501 130.23918 
L 121.374501 131.88352 
L 121.374501 133.52786 
L 121.374501 135.172201 
" style="fill:none;stroke:#4169e1;stroke-linecap:square;stroke-width:0.69389;"/>
   </g>
   <g id="line2d_33">
    <path clip-path="url(#p4828fa3df7)" d="M 121.987747 79.045763 
L 123.181991 80.409013 
L 124.376235 81.772264 
L 125.570479 83.135514 
L 126.764722 84.498765 
L 127.056675 85.54713 
L 127.348628 86.595495 
L 127.64058 87.643861 
L 127.932533 88.692226 
L 128.224486 89.740591 
L 128.516438 90.788957 
L 128.808391 91.837322 
L 129.100344 92.885688 
L 129.280088 94.607274 
L 129.459833 96.328861 
L 129.639577 98.050447 
L 129.819322 99.772034 
L 129.505033 101.669927 
L 129.190745 103.567821 
L 128.876456 105.465714 
L 128.562168 107.363608 
L 127.947468 108.281799 
L 127.332768 109.199991 
L 126.718068 110.118182 
L 126.103368 111.036373 
L 125.488668 111.954565 
L 124.873968 112.872756 
L 124.259269 113.790948 
L 123.644569 114.709139 
L 122.970527 115.716199 
L 122.296485 116.723259 
L 121.622443 117.730319 
L 120.948401 118.73738 
" style="fill:none;stroke:#4169e1;stroke-linecap:square;stroke-width:0.69389;"/>
   </g>
   <g id="line2d_34">
    <path clip-path="url(#p4828fa3df7)" d="M 123.644569 114.709139 
L 124.243871 115.894294 
L 124.843174 117.07945 
L 125.442477 118.264605 
L 126.041779 119.44976 
L 126.641082 120.634916 
L 127.240384 121.820071 
L 127.839687 123.005226 
L 128.43899 124.190381 
L 129.038292 125.375537 
L 129.637595 126.560692 
L 130.236898 127.745847 
L 130.8362 128.931003 
L 131.435503 130.116158 
L 132.034805 131.301313 
L 132.634108 132.486469 
L 133.233411 133.671624 
" style="fill:none;stroke:#008000;stroke-linecap:square;stroke-width:0.69389;"/>
   </g>
   <g id="text_1">
    <g id="patch_2">
     <path d="M 44.951753 119.157488 
L 45.97096 119.984455 
L 47.215742 118.450307 
L 46.196536 117.623339 
z
" style="fill:#ffffff;"/>
    </g>
    <!-- 0 -->
    <g style="fill:#808080;" transform="translate(45.241955 118.831567)rotate(-320.944694)scale(0.02 -0.02)">
     <defs>
      <path d="M 2034 4250 
Q 1547 4250 1301 3770 
Q 1056 3291 1056 2328 
Q 1056 1369 1301 889 
Q 1547 409 2034 409 
Q 2525 409 2770 889 
Q 3016 1369 3016 2328 
Q 3016 3291 2770 3770 
Q 2525 4250 2034 4250 
z
M 2034 4750 
Q 2819 4750 3233 4129 
Q 3647 3509 3647 2328 
Q 3647 1150 3233 529 
Q 2819 -91 2034 -91 
Q 1250 -91 836 529 
Q 422 1150 422 2328 
Q 422 3509 836 4129 
Q 1250 4750 2034 4750 
z
" id="DejaVuSans-30" transform="scale(0.015625)"/>
     </defs>
     <use xlink:href="#DejaVuSans-30"/>
    </g>
   </g>
   <g id="text_2">
    <g id="patch_3">
     <path d="M 46.509244 116.07862 
L 48.534968 117.684443 
L 49.762242 116.136253 
L 47.736518 114.53043 
z
" style="fill:#ffffff;"/>
    </g>
    <!-- 00 -->
    <g style="fill:#808080;" transform="translate(46.795725 115.749424)rotate(-321.595595)scale(0.02 -0.02)">
     <use xlink:href="#DejaVuSans-30"/>
     <use x="63.623047" xlink:href="#DejaVuSans-30"/>
    </g>
   </g>
   <g id="text_3">
    <g id="patch_4">
     <path d="M 78.396356 92.194303 
L 78.455233 93.505482 
L 80.428869 93.416858 
L 80.369992 92.105679 
z
" style="fill:#ffffff;"/>
    </g>
    <!-- 1 -->
    <g style="fill:#808080;" transform="translate(78.832752 92.194727)rotate(-272.57107)scale(0.02 -0.02)">
     <defs>
      <path d="M 794 531 
L 1825 531 
L 1825 4091 
L 703 3866 
L 703 4441 
L 1819 4666 
L 2450 4666 
L 2450 531 
L 3481 531 
L 3481 0 
L 794 0 
L 794 531 
z
" id="DejaVuSans-31" transform="scale(0.015625)"/>
     </defs>
     <use xlink:href="#DejaVuSans-31"/>
    </g>
   </g>
   <g id="text_4">
    <g id="patch_5">
     <path d="M 36.644717 48.858109 
L 39.438307 46.198003 
L 38.075929 44.767262 
L 35.282339 47.427367 
z
" style="fill:#ffffff;"/>
    </g>
    <!-- 000 -->
    <g style="fill:#808080;" transform="translate(36.358581 48.528612)rotate(-43.597911)scale(0.02 -0.02)">
     <use xlink:href="#DejaVuSans-30"/>
     <use x="63.623047" xlink:href="#DejaVuSans-30"/>
     <use x="127.246094" xlink:href="#DejaVuSans-30"/>
    </g>
   </g>
   <g id="text_5">
    <g id="patch_6">
     <path d="M 104.460471 87.881635 
L 104.56108 86.572996 
L 102.591268 86.421557 
L 102.490659 87.730195 
z
" style="fill:#ffffff;"/>
    </g>
    <!-- 3 -->
    <g style="fill:#808080;" transform="translate(104.02735 87.828277)rotate(-85.603736)scale(0.02 -0.02)">
     <defs>
      <path d="M 2597 2516 
Q 3050 2419 3304 2112 
Q 3559 1806 3559 1356 
Q 3559 666 3084 287 
Q 2609 -91 1734 -91 
Q 1441 -91 1130 -33 
Q 819 25 488 141 
L 488 750 
Q 750 597 1062 519 
Q 1375 441 1716 441 
Q 2309 441 2620 675 
Q 2931 909 2931 1356 
Q 2931 1769 2642 2001 
Q 2353 2234 1838 2234 
L 1294 2234 
L 1294 2753 
L 1863 2753 
Q 2328 2753 2575 2939 
Q 2822 3125 2822 3475 
Q 2822 3834 2567 4026 
Q 2313 4219 1838 4219 
Q 1578 4219 1281 4162 
Q 984 4106 628 3988 
L 628 4550 
Q 988 4650 1302 4700 
Q 1616 4750 1894 4750 
Q 2613 4750 3031 4423 
Q 3450 4097 3450 3541 
Q 3450 3153 3228 2886 
Q 3006 2619 2597 2516 
z
" id="DejaVuSans-33" transform="scale(0.015625)"/>
     </defs>
     <use xlink:href="#DejaVuSans-33"/>
    </g>
   </g>
   <g id="text_6">
    <g id="patch_7">
     <path d="M 116.703227 87.418646 
L 116.719148 88.094083 
L 118.694224 88.047529 
L 118.678303 87.372091 
z
" style="fill:#ffffff;"/>
    </g>
    <!--   -->
    <g style="fill:#808080;" transform="translate(117.139515 87.428368)rotate(-271.350273)scale(0.02 -0.02)">
     <defs>
      <path id="DejaVuSans-20" transform="scale(0.015625)"/>
     </defs>
     <use xlink:href="#DejaVuSans-20"/>
    </g>
   </g>
   <g id="text_7">
    <g id="patch_8">
     <path d="M 135.450188 108.899318 
L 135.514414 109.571884 
L 137.481092 109.384079 
L 137.416866 108.711513 
z
" style="fill:#ffffff;"/>
    </g>
    <!--   -->
    <g style="fill:#808080;" transform="translate(135.886053 108.877787)rotate(-275.454837)scale(0.02 -0.02)">
     <use xlink:href="#DejaVuSans-20"/>
    </g>
   </g>
   <g id="text_8">
    <g id="patch_9">
     <path d="M 142.122489 127.505194 
L 143.865808 109.144961 
L 141.899029 108.958213 
L 140.15571 127.318447 
z
" style="fill:#ffffff;"/>
    </g>
    <!-- Outer Limits 23.8째 -->
    <g style="fill:#4169e1;" transform="translate(141.690394 127.444076)rotate(-84.575979)scale(0.02 -0.02)">
     <defs>
      <path d="M 2522 4238 
Q 1834 4238 1429 3725 
Q 1025 3213 1025 2328 
Q 1025 1447 1429 934 
Q 1834 422 2522 422 
Q 3209 422 3611 934 
Q 4013 1447 4013 2328 
Q 4013 3213 3611 3725 
Q 3209 4238 2522 4238 
z
M 2522 4750 
Q 3503 4750 4090 4092 
Q 4678 3434 4678 2328 
Q 4678 1225 4090 567 
Q 3503 -91 2522 -91 
Q 1538 -91 948 565 
Q 359 1222 359 2328 
Q 359 3434 948 4092 
Q 1538 4750 2522 4750 
z
" id="DejaVuSans-4f" transform="scale(0.015625)"/>
      <path d="M 544 1381 
L 544 3500 
L 1119 3500 
L 1119 1403 
Q 1119 906 1312 657 
Q 1506 409 1894 409 
Q 2359 409 2629 706 
Q 2900 1003 2900 1516 
L 2900 3500 
L 3475 3500 
L 3475 0 
L 2900 0 
L 2900 538 
Q 2691 219 2414 64 
Q 2138 -91 1772 -91 
Q 1169 -91 856 284 
Q 544 659 544 1381 
z
M 1991 3584 
L 1991 3584 
z
" id="DejaVuSans-75" transform="scale(0.015625)"/>
      <path d="M 1172 4494 
L 1172 3500 
L 2356 3500 
L 2356 3053 
L 1172 3053 
L 1172 1153 
Q 1172 725 1289 603 
Q 1406 481 1766 481 
L 2356 481 
L 2356 0 
L 1766 0 
Q 1100 0 847 248 
Q 594 497 594 1153 
L 594 3053 
L 172 3053 
L 172 3500 
L 594 3500 
L 594 4494 
L 1172 4494 
z
" id="DejaVuSans-74" transform="scale(0.015625)"/>
      <path d="M 3597 1894 
L 3597 1613 
L 953 1613 
Q 991 1019 1311 708 
Q 1631 397 2203 397 
Q 2534 397 2845 478 
Q 3156 559 3463 722 
L 3463 178 
Q 3153 47 2828 -22 
Q 2503 -91 2169 -91 
Q 1331 -91 842 396 
Q 353 884 353 1716 
Q 353 2575 817 3079 
Q 1281 3584 2069 3584 
Q 2775 3584 3186 3129 
Q 3597 2675 3597 1894 
z
M 3022 2063 
Q 3016 2534 2758 2815 
Q 2500 3097 2075 3097 
Q 1594 3097 1305 2825 
Q 1016 2553 972 2059 
L 3022 2063 
z
" id="DejaVuSans-65" transform="scale(0.015625)"/>
      <path d="M 2631 2963 
Q 2534 3019 2420 3045 
Q 2306 3072 2169 3072 
Q 1681 3072 1420 2755 
Q 1159 2438 1159 1844 
L 1159 0 
L 581 0 
L 581 3500 
L 1159 3500 
L 1159 2956 
Q 1341 3275 1631 3429 
Q 1922 3584 2338 3584 
Q 2397 3584 2469 3576 
Q 2541 3569 2628 3553 
L 2631 2963 
z
" id="DejaVuSans-72" transform="scale(0.015625)"/>
      <path d="M 628 4666 
L 1259 4666 
L 1259 531 
L 3531 531 
L 3531 0 
L 628 0 
L 628 4666 
z
" id="DejaVuSans-4c" transform="scale(0.015625)"/>
      <path d="M 603 3500 
L 1178 3500 
L 1178 0 
L 603 0 
L 603 3500 
z
M 603 4863 
L 1178 4863 
L 1178 4134 
L 603 4134 
L 603 4863 
z
" id="DejaVuSans-69" transform="scale(0.015625)"/>
      <path d="M 3328 2828 
Q 3544 3216 3844 3400 
Q 4144 3584 4550 3584 
Q 5097 3584 5394 3201 
Q 5691 2819 5691 2113 
L 5691 0 
L 5113 0 
L 5113 2094 
Q 5113 2597 4934 2840 
Q 4756 3084 4391 3084 
Q 3944 3084 3684 2787 
Q 3425 2491 3425 1978 
L 3425 0 
L 2847 0 
L 2847 2094 
Q 2847 2600 2669 2842 
Q 2491 3084 2119 3084 
Q 1678 3084 1418 2786 
Q 1159 2488 1159 1978 
L 1159 0 
L 581 0 
L 581 3500 
L 1159 3500 
L 1159 2956 
Q 1356 3278 1631 3431 
Q 1906 3584 2284 3584 
Q 2666 3584 2933 3390 
Q 3200 3197 3328 2828 
z
" id="DejaVuSans-6d" transform="scale(0.015625)"/>
      <path d="M 2834 3397 
L 2834 2853 
Q 2591 2978 2328 3040 
Q 2066 3103 1784 3103 
Q 1356 3103 1142 2972 
Q 928 2841 928 2578 
Q 928 2378 1081 2264 
Q 1234 2150 1697 2047 
L 1894 2003 
Q 2506 1872 2764 1633 
Q 3022 1394 3022 966 
Q 3022 478 2636 193 
Q 2250 -91 1575 -91 
Q 1294 -91 989 -36 
Q 684 19 347 128 
L 347 722 
Q 666 556 975 473 
Q 1284 391 1588 391 
Q 1994 391 2212 530 
Q 2431 669 2431 922 
Q 2431 1156 2273 1281 
Q 2116 1406 1581 1522 
L 1381 1569 
Q 847 1681 609 1914 
Q 372 2147 372 2553 
Q 372 3047 722 3315 
Q 1072 3584 1716 3584 
Q 2034 3584 2315 3537 
Q 2597 3491 2834 3397 
z
" id="DejaVuSans-73" transform="scale(0.015625)"/>
      <path d="M 1228 531 
L 3431 531 
L 3431 0 
L 469 0 
L 469 531 
Q 828 903 1448 1529 
Q 2069 2156 2228 2338 
Q 2531 2678 2651 2914 
Q 2772 3150 2772 3378 
Q 2772 3750 2511 3984 
Q 2250 4219 1831 4219 
Q 1534 4219 1204 4116 
Q 875 4013 500 3803 
L 500 4441 
Q 881 4594 1212 4672 
Q 1544 4750 1819 4750 
Q 2544 4750 2975 4387 
Q 3406 4025 3406 3419 
Q 3406 3131 3298 2873 
Q 3191 2616 2906 2266 
Q 2828 2175 2409 1742 
Q 1991 1309 1228 531 
z
" id="DejaVuSans-32" transform="scale(0.015625)"/>
      <path d="M 684 794 
L 1344 794 
L 1344 0 
L 684 0 
L 684 794 
z
" id="DejaVuSans-2e" transform="scale(0.015625)"/>
      <path d="M 2034 2216 
Q 1584 2216 1326 1975 
Q 1069 1734 1069 1313 
Q 1069 891 1326 650 
Q 1584 409 2034 409 
Q 2484 409 2743 651 
Q 3003 894 3003 1313 
Q 3003 1734 2745 1975 
Q 2488 2216 2034 2216 
z
M 1403 2484 
Q 997 2584 770 2862 
Q 544 3141 544 3541 
Q 544 4100 942 4425 
Q 1341 4750 2034 4750 
Q 2731 4750 3128 4425 
Q 3525 4100 3525 3541 
Q 3525 3141 3298 2862 
Q 3072 2584 2669 2484 
Q 3125 2378 3379 2068 
Q 3634 1759 3634 1313 
Q 3634 634 3220 271 
Q 2806 -91 2034 -91 
Q 1263 -91 848 271 
Q 434 634 434 1313 
Q 434 1759 690 2068 
Q 947 2378 1403 2484 
z
M 1172 3481 
Q 1172 3119 1398 2916 
Q 1625 2713 2034 2713 
Q 2441 2713 2670 2916 
Q 2900 3119 2900 3481 
Q 2900 3844 2670 4047 
Q 2441 4250 2034 4250 
Q 1625 4250 1398 4047 
Q 1172 3844 1172 3481 
z
" id="DejaVuSans-38" transform="scale(0.015625)"/>
      <path d="M 1600 4347 
Q 1350 4347 1178 4173 
Q 1006 4000 1006 3750 
Q 1006 3503 1178 3333 
Q 1350 3163 1600 3163 
Q 1850 3163 2022 3333 
Q 2194 3503 2194 3750 
Q 2194 3997 2020 4172 
Q 1847 4347 1600 4347 
z
M 1600 4750 
Q 1800 4750 1984 4673 
Q 2169 4597 2303 4453 
Q 2447 4313 2519 4134 
Q 2591 3956 2591 3750 
Q 2591 3338 2302 3052 
Q 2013 2766 1594 2766 
Q 1172 2766 890 3047 
Q 609 3328 609 3750 
Q 609 4169 896 4459 
Q 1184 4750 1600 4750 
z
" id="DejaVuSans-b0" transform="scale(0.015625)"/>
     </defs>
     <use xlink:href="#DejaVuSans-4f"/>
     <use x="78.710938" xlink:href="#DejaVuSans-75"/>
     <use x="142.089844" xlink:href="#DejaVuSans-74"/>
     <use x="181.298828" xlink:href="#DejaVuSans-65"/>
     <use x="242.822266" xlink:href="#DejaVuSans-72"/>
     <use x="283.935547" xlink:href="#DejaVuSans-20"/>
     <use x="315.722656" xlink:href="#DejaVuSans-4c"/>
     <use x="371.435547" xlink:href="#DejaVuSans-69"/>
     <use x="399.21875" xlink:href="#DejaVuSans-6d"/>
     <use x="496.630859" xlink:href="#DejaVuSans-69"/>
     <use x="524.414062" xlink:href="#DejaVuSans-74"/>
     <use x="563.623047" xlink:href="#DejaVuSans-73"/>
     <use x="615.722656" xlink:href="#DejaVuSans-20"/>
     <use x="647.509766" xlink:href="#DejaVuSans-32"/>
     <use x="711.132812" xlink:href="#DejaVuSans-33"/>
     <use x="774.755859" xlink:href="#DejaVuSans-2e"/>
     <use x="806.542969" xlink:href="#DejaVuSans-38"/>
     <use x="870.166016" xlink:href="#DejaVuSans-b0"/>
    </g>
   </g>
   <g id="text_9">
    <g id="patch_10">
     <path d="M 27.149589 134.387429 
L 51.315371 139.338788 
L 51.711921 137.40337 
L 27.546139 132.452011 
z
" style="fill:#ffffff;"/>
    </g>
    <!-- Devil's Playground 12.2째 -->
    <g style="fill:#008000;" transform="translate(27.256684 133.964378)rotate(-348.420849)scale(0.02 -0.02)">
     <defs>
      <path d="M 1259 4147 
L 1259 519 
L 2022 519 
Q 2988 519 3436 956 
Q 3884 1394 3884 2338 
Q 3884 3275 3436 3711 
Q 2988 4147 2022 4147 
L 1259 4147 
z
M 628 4666 
L 1925 4666 
Q 3281 4666 3915 4102 
Q 4550 3538 4550 2338 
Q 4550 1131 3912 565 
Q 3275 0 1925 0 
L 628 0 
L 628 4666 
z
" id="DejaVuSans-44" transform="scale(0.015625)"/>
      <path d="M 191 3500 
L 800 3500 
L 1894 563 
L 2988 3500 
L 3597 3500 
L 2284 0 
L 1503 0 
L 191 3500 
z
" id="DejaVuSans-76" transform="scale(0.015625)"/>
      <path d="M 603 4863 
L 1178 4863 
L 1178 0 
L 603 0 
L 603 4863 
z
" id="DejaVuSans-6c" transform="scale(0.015625)"/>
      <path d="M 1147 4666 
L 1147 2931 
L 616 2931 
L 616 4666 
L 1147 4666 
z
" id="DejaVuSans-27" transform="scale(0.015625)"/>
      <path d="M 1259 4147 
L 1259 2394 
L 2053 2394 
Q 2494 2394 2734 2622 
Q 2975 2850 2975 3272 
Q 2975 3691 2734 3919 
Q 2494 4147 2053 4147 
L 1259 4147 
z
M 628 4666 
L 2053 4666 
Q 2838 4666 3239 4311 
Q 3641 3956 3641 3272 
Q 3641 2581 3239 2228 
Q 2838 1875 2053 1875 
L 1259 1875 
L 1259 0 
L 628 0 
L 628 4666 
z
" id="DejaVuSans-50" transform="scale(0.015625)"/>
      <path d="M 2194 1759 
Q 1497 1759 1228 1600 
Q 959 1441 959 1056 
Q 959 750 1161 570 
Q 1363 391 1709 391 
Q 2188 391 2477 730 
Q 2766 1069 2766 1631 
L 2766 1759 
L 2194 1759 
z
M 3341 1997 
L 3341 0 
L 2766 0 
L 2766 531 
Q 2569 213 2275 61 
Q 1981 -91 1556 -91 
Q 1019 -91 701 211 
Q 384 513 384 1019 
Q 384 1609 779 1909 
Q 1175 2209 1959 2209 
L 2766 2209 
L 2766 2266 
Q 2766 2663 2505 2880 
Q 2244 3097 1772 3097 
Q 1472 3097 1187 3025 
Q 903 2953 641 2809 
L 641 3341 
Q 956 3463 1253 3523 
Q 1550 3584 1831 3584 
Q 2591 3584 2966 3190 
Q 3341 2797 3341 1997 
z
" id="DejaVuSans-61" transform="scale(0.015625)"/>
      <path d="M 2059 -325 
Q 1816 -950 1584 -1140 
Q 1353 -1331 966 -1331 
L 506 -1331 
L 506 -850 
L 844 -850 
Q 1081 -850 1212 -737 
Q 1344 -625 1503 -206 
L 1606 56 
L 191 3500 
L 800 3500 
L 1894 763 
L 2988 3500 
L 3597 3500 
L 2059 -325 
z
" id="DejaVuSans-79" transform="scale(0.015625)"/>
      <path d="M 2906 1791 
Q 2906 2416 2648 2759 
Q 2391 3103 1925 3103 
Q 1463 3103 1205 2759 
Q 947 2416 947 1791 
Q 947 1169 1205 825 
Q 1463 481 1925 481 
Q 2391 481 2648 825 
Q 2906 1169 2906 1791 
z
M 3481 434 
Q 3481 -459 3084 -895 
Q 2688 -1331 1869 -1331 
Q 1566 -1331 1297 -1286 
Q 1028 -1241 775 -1147 
L 775 -588 
Q 1028 -725 1275 -790 
Q 1522 -856 1778 -856 
Q 2344 -856 2625 -561 
Q 2906 -266 2906 331 
L 2906 616 
Q 2728 306 2450 153 
Q 2172 0 1784 0 
Q 1141 0 747 490 
Q 353 981 353 1791 
Q 353 2603 747 3093 
Q 1141 3584 1784 3584 
Q 2172 3584 2450 3431 
Q 2728 3278 2906 2969 
L 2906 3500 
L 3481 3500 
L 3481 434 
z
" id="DejaVuSans-67" transform="scale(0.015625)"/>
      <path d="M 1959 3097 
Q 1497 3097 1228 2736 
Q 959 2375 959 1747 
Q 959 1119 1226 758 
Q 1494 397 1959 397 
Q 2419 397 2687 759 
Q 2956 1122 2956 1747 
Q 2956 2369 2687 2733 
Q 2419 3097 1959 3097 
z
M 1959 3584 
Q 2709 3584 3137 3096 
Q 3566 2609 3566 1747 
Q 3566 888 3137 398 
Q 2709 -91 1959 -91 
Q 1206 -91 779 398 
Q 353 888 353 1747 
Q 353 2609 779 3096 
Q 1206 3584 1959 3584 
z
" id="DejaVuSans-6f" transform="scale(0.015625)"/>
      <path d="M 3513 2113 
L 3513 0 
L 2938 0 
L 2938 2094 
Q 2938 2591 2744 2837 
Q 2550 3084 2163 3084 
Q 1697 3084 1428 2787 
Q 1159 2491 1159 1978 
L 1159 0 
L 581 0 
L 581 3500 
L 1159 3500 
L 1159 2956 
Q 1366 3272 1645 3428 
Q 1925 3584 2291 3584 
Q 2894 3584 3203 3211 
Q 3513 2838 3513 2113 
z
" id="DejaVuSans-6e" transform="scale(0.015625)"/>
      <path d="M 2906 2969 
L 2906 4863 
L 3481 4863 
L 3481 0 
L 2906 0 
L 2906 525 
Q 2725 213 2448 61 
Q 2172 -91 1784 -91 
Q 1150 -91 751 415 
Q 353 922 353 1747 
Q 353 2572 751 3078 
Q 1150 3584 1784 3584 
Q 2172 3584 2448 3432 
Q 2725 3281 2906 2969 
z
M 947 1747 
Q 947 1113 1208 752 
Q 1469 391 1925 391 
Q 2381 391 2643 752 
Q 2906 1113 2906 1747 
Q 2906 2381 2643 2742 
Q 2381 3103 1925 3103 
Q 1469 3103 1208 2742 
Q 947 2381 947 1747 
z
" id="DejaVuSans-64" transform="scale(0.015625)"/>
     </defs>
     <use xlink:href="#DejaVuSans-44"/>
     <use x="77.001953" xlink:href="#DejaVuSans-65"/>
     <use x="138.525391" xlink:href="#DejaVuSans-76"/>
     <use x="197.705078" xlink:href="#DejaVuSans-69"/>
     <use x="225.488281" xlink:href="#DejaVuSans-6c"/>
     <use x="253.271484" xlink:href="#DejaVuSans-27"/>
     <use x="280.761719" xlink:href="#DejaVuSans-73"/>
     <use x="332.861328" xlink:href="#DejaVuSans-20"/>
     <use x="364.648438" xlink:href="#DejaVuSans-50"/>
     <use x="424.951172" xlink:href="#DejaVuSans-6c"/>
     <use x="452.734375" xlink:href="#DejaVuSans-61"/>
     <use x="514.013672" xlink:href="#DejaVuSans-79"/>
     <use x="573.193359" xlink:href="#DejaVuSans-67"/>
     <use x="636.669922" xlink:href="#DejaVuSans-72"/>
     <use x="675.533203" xlink:href="#DejaVuSans-6f"/>
     <use x="736.714844" xlink:href="#DejaVuSans-75"/>
     <use x="800.09375" xlink:href="#DejaVuSans-6e"/>
     <use x="863.472656" xlink:href="#DejaVuSans-64"/>
     <use x="926.949219" xlink:href="#DejaVuSans-20"/>
     <use x="958.736328" xlink:href="#DejaVuSans-31"/>
     <use x="1022.359375" xlink:href="#DejaVuSans-32"/>
     <use x="1085.982422" xlink:href="#DejaVuSans-2e"/>
     <use x="1117.769531" xlink:href="#DejaVuSans-32"/>
     <use x="1181.392578" xlink:href="#DejaVuSans-b0"/>
    </g>
   </g>
   <g id="text_10">
    <g id="patch_11">
     <path d="M 38.313697 34.595808 
L 50.711312 26.244985 
L 49.607599 24.606415 
L 37.209984 32.957238 
z
" style="fill:#ffffff;"/>
    </g>
    <!-- The Burns 7.1째 -->
    <g style="fill:#008000;" transform="translate(38.086741 34.223071)rotate(-33.963538)scale(0.02 -0.02)">
     <defs>
      <path d="M -19 4666 
L 3928 4666 
L 3928 4134 
L 2272 4134 
L 2272 0 
L 1638 0 
L 1638 4134 
L -19 4134 
L -19 4666 
z
" id="DejaVuSans-54" transform="scale(0.015625)"/>
      <path d="M 3513 2113 
L 3513 0 
L 2938 0 
L 2938 2094 
Q 2938 2591 2744 2837 
Q 2550 3084 2163 3084 
Q 1697 3084 1428 2787 
Q 1159 2491 1159 1978 
L 1159 0 
L 581 0 
L 581 4863 
L 1159 4863 
L 1159 2956 
Q 1366 3272 1645 3428 
Q 1925 3584 2291 3584 
Q 2894 3584 3203 3211 
Q 3513 2838 3513 2113 
z
" id="DejaVuSans-68" transform="scale(0.015625)"/>
      <path d="M 1259 2228 
L 1259 519 
L 2272 519 
Q 2781 519 3026 730 
Q 3272 941 3272 1375 
Q 3272 1813 3026 2020 
Q 2781 2228 2272 2228 
L 1259 2228 
z
M 1259 4147 
L 1259 2741 
L 2194 2741 
Q 2656 2741 2882 2914 
Q 3109 3088 3109 3444 
Q 3109 3797 2882 3972 
Q 2656 4147 2194 4147 
L 1259 4147 
z
M 628 4666 
L 2241 4666 
Q 2963 4666 3353 4366 
Q 3744 4066 3744 3513 
Q 3744 3084 3544 2831 
Q 3344 2578 2956 2516 
Q 3422 2416 3680 2098 
Q 3938 1781 3938 1306 
Q 3938 681 3513 340 
Q 3088 0 2303 0 
L 628 0 
L 628 4666 
z
" id="DejaVuSans-42" transform="scale(0.015625)"/>
      <path d="M 525 4666 
L 3525 4666 
L 3525 4397 
L 1831 0 
L 1172 0 
L 2766 4134 
L 525 4134 
L 525 4666 
z
" id="DejaVuSans-37" transform="scale(0.015625)"/>
     </defs>
     <use xlink:href="#DejaVuSans-54"/>
     <use x="61.083984" xlink:href="#DejaVuSans-68"/>
     <use x="124.462891" xlink:href="#DejaVuSans-65"/>
     <use x="185.986328" xlink:href="#DejaVuSans-20"/>
     <use x="217.773438" xlink:href="#DejaVuSans-42"/>
     <use x="286.376953" xlink:href="#DejaVuSans-75"/>
     <use x="349.755859" xlink:href="#DejaVuSans-72"/>
     <use x="389.119141" xlink:href="#DejaVuSans-6e"/>
     <use x="452.498047" xlink:href="#DejaVuSans-73"/>
     <use x="504.597656" xlink:href="#DejaVuSans-20"/>
     <use x="536.384766" xlink:href="#DejaVuSans-37"/>
     <use x="600.007812" xlink:href="#DejaVuSans-2e"/>
     <use x="631.794922" xlink:href="#DejaVuSans-31"/>
     <use x="695.417969" xlink:href="#DejaVuSans-b0"/>
    </g>
   </g>
   <g id="text_11">
    <g id="patch_12">
     <path d="M 10.979375 87.786245 
L 16.249831 76.301942 
L 14.454264 75.477908 
L 9.183808 86.962211 
z
" style="fill:#ffffff;"/>
    </g>
    <!-- Cirque 14.0째 -->
    <g style="fill:#008000;" transform="translate(10.591511 87.586238)rotate(-65.348333)scale(0.02 -0.02)">
     <defs>
      <path d="M 4122 4306 
L 4122 3641 
Q 3803 3938 3442 4084 
Q 3081 4231 2675 4231 
Q 1875 4231 1450 3742 
Q 1025 3253 1025 2328 
Q 1025 1406 1450 917 
Q 1875 428 2675 428 
Q 3081 428 3442 575 
Q 3803 722 4122 1019 
L 4122 359 
Q 3791 134 3420 21 
Q 3050 -91 2638 -91 
Q 1578 -91 968 557 
Q 359 1206 359 2328 
Q 359 3453 968 4101 
Q 1578 4750 2638 4750 
Q 3056 4750 3426 4639 
Q 3797 4528 4122 4306 
z
" id="DejaVuSans-43" transform="scale(0.015625)"/>
      <path d="M 947 1747 
Q 947 1113 1208 752 
Q 1469 391 1925 391 
Q 2381 391 2643 752 
Q 2906 1113 2906 1747 
Q 2906 2381 2643 2742 
Q 2381 3103 1925 3103 
Q 1469 3103 1208 2742 
Q 947 2381 947 1747 
z
M 2906 525 
Q 2725 213 2448 61 
Q 2172 -91 1784 -91 
Q 1150 -91 751 415 
Q 353 922 353 1747 
Q 353 2572 751 3078 
Q 1150 3584 1784 3584 
Q 2172 3584 2448 3432 
Q 2725 3281 2906 2969 
L 2906 3500 
L 3481 3500 
L 3481 -1331 
L 2906 -1331 
L 2906 525 
z
" id="DejaVuSans-71" transform="scale(0.015625)"/>
      <path d="M 2419 4116 
L 825 1625 
L 2419 1625 
L 2419 4116 
z
M 2253 4666 
L 3047 4666 
L 3047 1625 
L 3713 1625 
L 3713 1100 
L 3047 1100 
L 3047 0 
L 2419 0 
L 2419 1100 
L 313 1100 
L 313 1709 
L 2253 4666 
z
" id="DejaVuSans-34" transform="scale(0.015625)"/>
     </defs>
     <use xlink:href="#DejaVuSans-43"/>
     <use x="69.824219" xlink:href="#DejaVuSans-69"/>
     <use x="97.607422" xlink:href="#DejaVuSans-72"/>
     <use x="136.970703" xlink:href="#DejaVuSans-71"/>
     <use x="200.447266" xlink:href="#DejaVuSans-75"/>
     <use x="263.826172" xlink:href="#DejaVuSans-65"/>
     <use x="325.349609" xlink:href="#DejaVuSans-20"/>
     <use x="357.136719" xlink:href="#DejaVuSans-31"/>
     <use x="420.759766" xlink:href="#DejaVuSans-34"/>
     <use x="484.382812" xlink:href="#DejaVuSans-2e"/>
     <use x="516.169922" xlink:href="#DejaVuSans-30"/>
     <use x="579.792969" xlink:href="#DejaVuSans-b0"/>
    </g>
   </g>
   <g id="text_12">
    <g id="patch_13">
     <path d="M 34.049607 99.338937 
L 48.359806 110.769986 
L 49.592843 109.226382 
L 35.282645 97.795334 
z
" style="fill:#ffffff;"/>
    </g>
    <!-- Devil's Alley 19.6째 -->
    <g style="fill:#4169e1;" transform="translate(34.337313 99.010811)rotate(-321.381989)scale(0.02 -0.02)">
     <defs>
      <path d="M 2188 4044 
L 1331 1722 
L 3047 1722 
L 2188 4044 
z
M 1831 4666 
L 2547 4666 
L 4325 0 
L 3669 0 
L 3244 1197 
L 1141 1197 
L 716 0 
L 50 0 
L 1831 4666 
z
" id="DejaVuSans-41" transform="scale(0.015625)"/>
      <path d="M 703 97 
L 703 672 
Q 941 559 1184 500 
Q 1428 441 1663 441 
Q 2288 441 2617 861 
Q 2947 1281 2994 2138 
Q 2813 1869 2534 1725 
Q 2256 1581 1919 1581 
Q 1219 1581 811 2004 
Q 403 2428 403 3163 
Q 403 3881 828 4315 
Q 1253 4750 1959 4750 
Q 2769 4750 3195 4129 
Q 3622 3509 3622 2328 
Q 3622 1225 3098 567 
Q 2575 -91 1691 -91 
Q 1453 -91 1209 -44 
Q 966 3 703 97 
z
M 1959 2075 
Q 2384 2075 2632 2365 
Q 2881 2656 2881 3163 
Q 2881 3666 2632 3958 
Q 2384 4250 1959 4250 
Q 1534 4250 1286 3958 
Q 1038 3666 1038 3163 
Q 1038 2656 1286 2365 
Q 1534 2075 1959 2075 
z
" id="DejaVuSans-39" transform="scale(0.015625)"/>
      <path d="M 2113 2584 
Q 1688 2584 1439 2293 
Q 1191 2003 1191 1497 
Q 1191 994 1439 701 
Q 1688 409 2113 409 
Q 2538 409 2786 701 
Q 3034 994 3034 1497 
Q 3034 2003 2786 2293 
Q 2538 2584 2113 2584 
z
M 3366 4563 
L 3366 3988 
Q 3128 4100 2886 4159 
Q 2644 4219 2406 4219 
Q 1781 4219 1451 3797 
Q 1122 3375 1075 2522 
Q 1259 2794 1537 2939 
Q 1816 3084 2150 3084 
Q 2853 3084 3261 2657 
Q 3669 2231 3669 1497 
Q 3669 778 3244 343 
Q 2819 -91 2113 -91 
Q 1303 -91 875 529 
Q 447 1150 447 2328 
Q 447 3434 972 4092 
Q 1497 4750 2381 4750 
Q 2619 4750 2861 4703 
Q 3103 4656 3366 4563 
z
" id="DejaVuSans-36" transform="scale(0.015625)"/>
     </defs>
     <use xlink:href="#DejaVuSans-44"/>
     <use x="77.001953" xlink:href="#DejaVuSans-65"/>
     <use x="138.525391" xlink:href="#DejaVuSans-76"/>
     <use x="197.705078" xlink:href="#DejaVuSans-69"/>
     <use x="225.488281" xlink:href="#DejaVuSans-6c"/>
     <use x="253.271484" xlink:href="#DejaVuSans-27"/>
     <use x="280.761719" xlink:href="#DejaVuSans-73"/>
     <use x="332.861328" xlink:href="#DejaVuSans-20"/>
     <use x="364.648438" xlink:href="#DejaVuSans-41"/>
     <use x="433.056641" xlink:href="#DejaVuSans-6c"/>
     <use x="460.839844" xlink:href="#DejaVuSans-6c"/>
     <use x="488.623047" xlink:href="#DejaVuSans-65"/>
     <use x="550.146484" xlink:href="#DejaVuSans-79"/>
     <use x="609.326172" xlink:href="#DejaVuSans-20"/>
     <use x="641.113281" xlink:href="#DejaVuSans-31"/>
     <use x="704.736328" xlink:href="#DejaVuSans-39"/>
     <use x="768.359375" xlink:href="#DejaVuSans-2e"/>
     <use x="800.146484" xlink:href="#DejaVuSans-36"/>
     <use x="863.769531" xlink:href="#DejaVuSans-b0"/>
    </g>
   </g>
   <g id="text_13">
    <g id="patch_14">
     <path d="M 38.108288 50.744427 
L 51.164601 37.547128 
L 49.760141 36.157672 
L 36.703829 49.354972 
z
" style="fill:#ffffff;"/>
    </g>
    <!-- The Meadows 7.7째 -->
    <g style="fill:#008000;" transform="translate(37.812449 50.423615)rotate(-45.307686)scale(0.02 -0.02)">
     <defs>
      <path d="M 628 4666 
L 1569 4666 
L 2759 1491 
L 3956 4666 
L 4897 4666 
L 4897 0 
L 4281 0 
L 4281 4097 
L 3078 897 
L 2444 897 
L 1241 4097 
L 1241 0 
L 628 0 
L 628 4666 
z
" id="DejaVuSans-4d" transform="scale(0.015625)"/>
      <path d="M 269 3500 
L 844 3500 
L 1563 769 
L 2278 3500 
L 2956 3500 
L 3675 769 
L 4391 3500 
L 4966 3500 
L 4050 0 
L 3372 0 
L 2619 2869 
L 1863 0 
L 1184 0 
L 269 3500 
z
" id="DejaVuSans-77" transform="scale(0.015625)"/>
     </defs>
     <use xlink:href="#DejaVuSans-54"/>
     <use x="61.083984" xlink:href="#DejaVuSans-68"/>
     <use x="124.462891" xlink:href="#DejaVuSans-65"/>
     <use x="185.986328" xlink:href="#DejaVuSans-20"/>
     <use x="217.773438" xlink:href="#DejaVuSans-4d"/>
     <use x="304.052734" xlink:href="#DejaVuSans-65"/>
     <use x="365.576172" xlink:href="#DejaVuSans-61"/>
     <use x="426.855469" xlink:href="#DejaVuSans-64"/>
     <use x="490.332031" xlink:href="#DejaVuSans-6f"/>
     <use x="551.513672" xlink:href="#DejaVuSans-77"/>
     <use x="633.300781" xlink:href="#DejaVuSans-73"/>
     <use x="685.400391" xlink:href="#DejaVuSans-20"/>
     <use x="717.1875" xlink:href="#DejaVuSans-37"/>
     <use x="780.810547" xlink:href="#DejaVuSans-2e"/>
     <use x="812.597656" xlink:href="#DejaVuSans-37"/>
     <use x="876.220703" xlink:href="#DejaVuSans-b0"/>
    </g>
   </g>
   <g id="text_14">
    <g id="patch_15">
     <path d="M 65.218657 92.143888 
L 68.828127 111.273846 
L 70.769497 110.907545 
L 67.160027 91.777587 
z
" style="fill:#ffffff;"/>
    </g>
    <!-- The Cauldron 15.6째 -->
    <g style="fill:#008000;" transform="translate(65.650744 92.082714)rotate(-280.685038)scale(0.02 -0.02)">
     <defs>
      <path d="M 691 4666 
L 3169 4666 
L 3169 4134 
L 1269 4134 
L 1269 2991 
Q 1406 3038 1543 3061 
Q 1681 3084 1819 3084 
Q 2600 3084 3056 2656 
Q 3513 2228 3513 1497 
Q 3513 744 3044 326 
Q 2575 -91 1722 -91 
Q 1428 -91 1123 -41 
Q 819 9 494 109 
L 494 744 
Q 775 591 1075 516 
Q 1375 441 1709 441 
Q 2250 441 2565 725 
Q 2881 1009 2881 1497 
Q 2881 1984 2565 2268 
Q 2250 2553 1709 2553 
Q 1456 2553 1204 2497 
Q 953 2441 691 2322 
L 691 4666 
z
" id="DejaVuSans-35" transform="scale(0.015625)"/>
     </defs>
     <use xlink:href="#DejaVuSans-54"/>
     <use x="61.083984" xlink:href="#DejaVuSans-68"/>
     <use x="124.462891" xlink:href="#DejaVuSans-65"/>
     <use x="185.986328" xlink:href="#DejaVuSans-20"/>
     <use x="217.773438" xlink:href="#DejaVuSans-43"/>
     <use x="287.597656" xlink:href="#DejaVuSans-61"/>
     <use x="348.876953" xlink:href="#DejaVuSans-75"/>
     <use x="412.255859" xlink:href="#DejaVuSans-6c"/>
     <use x="440.039062" xlink:href="#DejaVuSans-64"/>
     <use x="503.515625" xlink:href="#DejaVuSans-72"/>
     <use x="542.378906" xlink:href="#DejaVuSans-6f"/>
     <use x="603.560547" xlink:href="#DejaVuSans-6e"/>
     <use x="666.939453" xlink:href="#DejaVuSans-20"/>
     <use x="698.726562" xlink:href="#DejaVuSans-31"/>
     <use x="762.349609" xlink:href="#DejaVuSans-35"/>
     <use x="825.972656" xlink:href="#DejaVuSans-2e"/>
     <use x="857.759766" xlink:href="#DejaVuSans-36"/>
     <use x="921.382812" xlink:href="#DejaVuSans-b0"/>
    </g>
   </g>
   <g id="text_15">
    <g id="patch_16">
     <path d="M 77.541264 87.39988 
L 88.27782 69.206695 
L 86.57638 68.202605 
L 75.839824 86.39579 
z
" style="fill:#ffffff;"/>
    </g>
    <!-- Devil's Air Park 15.2째 -->
    <g style="fill:#008000;" transform="translate(77.175992 87.161095)rotate(-59.453377)scale(0.02 -0.02)">
     <defs>
      <path d="M 581 4863 
L 1159 4863 
L 1159 1991 
L 2875 3500 
L 3609 3500 
L 1753 1863 
L 3688 0 
L 2938 0 
L 1159 1709 
L 1159 0 
L 581 0 
L 581 4863 
z
" id="DejaVuSans-6b" transform="scale(0.015625)"/>
     </defs>
     <use xlink:href="#DejaVuSans-44"/>
     <use x="77.001953" xlink:href="#DejaVuSans-65"/>
     <use x="138.525391" xlink:href="#DejaVuSans-76"/>
     <use x="197.705078" xlink:href="#DejaVuSans-69"/>
     <use x="225.488281" xlink:href="#DejaVuSans-6c"/>
     <use x="253.271484" xlink:href="#DejaVuSans-27"/>
     <use x="280.761719" xlink:href="#DejaVuSans-73"/>
     <use x="332.861328" xlink:href="#DejaVuSans-20"/>
     <use x="364.648438" xlink:href="#DejaVuSans-41"/>
     <use x="433.056641" xlink:href="#DejaVuSans-69"/>
     <use x="460.839844" xlink:href="#DejaVuSans-72"/>
     <use x="501.953125" xlink:href="#DejaVuSans-20"/>
     <use x="533.740234" xlink:href="#DejaVuSans-50"/>
     <use x="589.542969" xlink:href="#DejaVuSans-61"/>
     <use x="650.822266" xlink:href="#DejaVuSans-72"/>
     <use x="691.935547" xlink:href="#DejaVuSans-6b"/>
     <use x="749.845703" xlink:href="#DejaVuSans-20"/>
     <use x="781.632812" xlink:href="#DejaVuSans-31"/>
     <use x="845.255859" xlink:href="#DejaVuSans-35"/>
     <use x="908.878906" xlink:href="#DejaVuSans-2e"/>
     <use x="940.666016" xlink:href="#DejaVuSans-32"/>
     <use x="1004.289062" xlink:href="#DejaVuSans-b0"/>
    </g>
   </g>
   <g id="text_16">
    <g id="patch_17">
     <path d="M 57.937575 75.009058 
L 70.794574 57.808873 
L 69.212171 56.626039 
L 56.355172 73.826224 
z
" style="fill:#ffffff;"/>
    </g>
    <!-- Dante's Inferno 13.4째 -->
    <g style="fill:#008000;" transform="translate(57.600379 74.732037)rotate(-53.222184)scale(0.02 -0.02)">
     <defs>
      <path d="M 628 4666 
L 1259 4666 
L 1259 0 
L 628 0 
L 628 4666 
z
" id="DejaVuSans-49" transform="scale(0.015625)"/>
      <path d="M 2375 4863 
L 2375 4384 
L 1825 4384 
Q 1516 4384 1395 4259 
Q 1275 4134 1275 3809 
L 1275 3500 
L 2222 3500 
L 2222 3053 
L 1275 3053 
L 1275 0 
L 697 0 
L 697 3053 
L 147 3053 
L 147 3500 
L 697 3500 
L 697 3744 
Q 697 4328 969 4595 
Q 1241 4863 1831 4863 
L 2375 4863 
z
" id="DejaVuSans-66" transform="scale(0.015625)"/>
     </defs>
     <use xlink:href="#DejaVuSans-44"/>
     <use x="77.001953" xlink:href="#DejaVuSans-61"/>
     <use x="138.28125" xlink:href="#DejaVuSans-6e"/>
     <use x="201.660156" xlink:href="#DejaVuSans-74"/>
     <use x="240.869141" xlink:href="#DejaVuSans-65"/>
     <use x="302.392578" xlink:href="#DejaVuSans-27"/>
     <use x="329.882812" xlink:href="#DejaVuSans-73"/>
     <use x="381.982422" xlink:href="#DejaVuSans-20"/>
     <use x="413.769531" xlink:href="#DejaVuSans-49"/>
     <use x="443.261719" xlink:href="#DejaVuSans-6e"/>
     <use x="506.640625" xlink:href="#DejaVuSans-66"/>
     <use x="541.845703" xlink:href="#DejaVuSans-65"/>
     <use x="603.369141" xlink:href="#DejaVuSans-72"/>
     <use x="642.732422" xlink:href="#DejaVuSans-6e"/>
     <use x="706.111328" xlink:href="#DejaVuSans-6f"/>
     <use x="767.292969" xlink:href="#DejaVuSans-20"/>
     <use x="799.080078" xlink:href="#DejaVuSans-31"/>
     <use x="862.703125" xlink:href="#DejaVuSans-33"/>
     <use x="926.326172" xlink:href="#DejaVuSans-2e"/>
     <use x="958.113281" xlink:href="#DejaVuSans-34"/>
     <use x="1021.736328" xlink:href="#DejaVuSans-b0"/>
    </g>
   </g>
   <g id="text_17">
    <g id="patch_18">
     <path d="M 98.146238 55.255699 
L 103.155612 42.290072 
L 101.312749 41.578067 
L 96.303375 54.543694 
z
" style="fill:#ffffff;"/>
    </g>
    <!-- Cyclops 15.5째 -->
    <g style="fill:#008000;" transform="translate(97.746803 55.079933)rotate(-68.875562)scale(0.02 -0.02)">
     <defs>
      <path d="M 3122 3366 
L 3122 2828 
Q 2878 2963 2633 3030 
Q 2388 3097 2138 3097 
Q 1578 3097 1268 2742 
Q 959 2388 959 1747 
Q 959 1106 1268 751 
Q 1578 397 2138 397 
Q 2388 397 2633 464 
Q 2878 531 3122 666 
L 3122 134 
Q 2881 22 2623 -34 
Q 2366 -91 2075 -91 
Q 1284 -91 818 406 
Q 353 903 353 1747 
Q 353 2603 823 3093 
Q 1294 3584 2113 3584 
Q 2378 3584 2631 3529 
Q 2884 3475 3122 3366 
z
" id="DejaVuSans-63" transform="scale(0.015625)"/>
      <path d="M 1159 525 
L 1159 -1331 
L 581 -1331 
L 581 3500 
L 1159 3500 
L 1159 2969 
Q 1341 3281 1617 3432 
Q 1894 3584 2278 3584 
Q 2916 3584 3314 3078 
Q 3713 2572 3713 1747 
Q 3713 922 3314 415 
Q 2916 -91 2278 -91 
Q 1894 -91 1617 61 
Q 1341 213 1159 525 
z
M 3116 1747 
Q 3116 2381 2855 2742 
Q 2594 3103 2138 3103 
Q 1681 3103 1420 2742 
Q 1159 2381 1159 1747 
Q 1159 1113 1420 752 
Q 1681 391 2138 391 
Q 2594 391 2855 752 
Q 3116 1113 3116 1747 
z
" id="DejaVuSans-70" transform="scale(0.015625)"/>
     </defs>
     <use xlink:href="#DejaVuSans-43"/>
     <use x="69.824219" xlink:href="#DejaVuSans-79"/>
     <use x="129.003906" xlink:href="#DejaVuSans-63"/>
     <use x="183.984375" xlink:href="#DejaVuSans-6c"/>
     <use x="211.767578" xlink:href="#DejaVuSans-6f"/>
     <use x="272.949219" xlink:href="#DejaVuSans-70"/>
     <use x="336.425781" xlink:href="#DejaVuSans-73"/>
     <use x="388.525391" xlink:href="#DejaVuSans-20"/>
     <use x="420.3125" xlink:href="#DejaVuSans-31"/>
     <use x="483.935547" xlink:href="#DejaVuSans-35"/>
     <use x="547.558594" xlink:href="#DejaVuSans-2e"/>
     <use x="579.345703" xlink:href="#DejaVuSans-35"/>
     <use x="642.96875" xlink:href="#DejaVuSans-b0"/>
    </g>
   </g>
   <g id="text_18">
    <g id="patch_19">
     <path d="M 109.852573 60.980756 
L 111.862396 42.732664 
L 109.898646 42.516379 
L 107.888823 60.764471 
z
" style="fill:#ffffff;"/>
    </g>
    <!-- The Serpent 18.4째 -->
    <g style="fill:#4169e1;" transform="translate(109.421445 60.913151)rotate(-83.714843)scale(0.02 -0.02)">
     <defs>
      <path d="M 3425 4513 
L 3425 3897 
Q 3066 4069 2747 4153 
Q 2428 4238 2131 4238 
Q 1616 4238 1336 4038 
Q 1056 3838 1056 3469 
Q 1056 3159 1242 3001 
Q 1428 2844 1947 2747 
L 2328 2669 
Q 3034 2534 3370 2195 
Q 3706 1856 3706 1288 
Q 3706 609 3251 259 
Q 2797 -91 1919 -91 
Q 1588 -91 1214 -16 
Q 841 59 441 206 
L 441 856 
Q 825 641 1194 531 
Q 1563 422 1919 422 
Q 2459 422 2753 634 
Q 3047 847 3047 1241 
Q 3047 1584 2836 1778 
Q 2625 1972 2144 2069 
L 1759 2144 
Q 1053 2284 737 2584 
Q 422 2884 422 3419 
Q 422 4038 858 4394 
Q 1294 4750 2059 4750 
Q 2388 4750 2728 4690 
Q 3069 4631 3425 4513 
z
" id="DejaVuSans-53" transform="scale(0.015625)"/>
     </defs>
     <use xlink:href="#DejaVuSans-54"/>
     <use x="61.083984" xlink:href="#DejaVuSans-68"/>
     <use x="124.462891" xlink:href="#DejaVuSans-65"/>
     <use x="185.986328" xlink:href="#DejaVuSans-20"/>
     <use x="217.773438" xlink:href="#DejaVuSans-53"/>
     <use x="281.25" xlink:href="#DejaVuSans-65"/>
     <use x="342.773438" xlink:href="#DejaVuSans-72"/>
     <use x="383.886719" xlink:href="#DejaVuSans-70"/>
     <use x="447.363281" xlink:href="#DejaVuSans-65"/>
     <use x="508.886719" xlink:href="#DejaVuSans-6e"/>
     <use x="572.265625" xlink:href="#DejaVuSans-74"/>
     <use x="611.474609" xlink:href="#DejaVuSans-20"/>
     <use x="643.261719" xlink:href="#DejaVuSans-31"/>
     <use x="706.884766" xlink:href="#DejaVuSans-38"/>
     <use x="770.507812" xlink:href="#DejaVuSans-2e"/>
     <use x="802.294922" xlink:href="#DejaVuSans-34"/>
     <use x="865.917969" xlink:href="#DejaVuSans-b0"/>
    </g>
   </g>
   <g id="text_19">
    <g id="patch_20">
     <path d="M 108.910084 100.448834 
L 113.864573 115.215785 
L 115.737587 114.587366 
L 110.783098 99.820415 
z
" style="fill:#ffffff;"/>
    </g>
    <!-- The Zone 17.0째 -->
    <g style="fill:#4169e1;" transform="translate(109.329741 100.329129)rotate(-288.54722)scale(0.02 -0.02)">
     <defs>
      <path d="M 359 4666 
L 4025 4666 
L 4025 4184 
L 1075 531 
L 4097 531 
L 4097 0 
L 288 0 
L 288 481 
L 3238 4134 
L 359 4134 
L 359 4666 
z
" id="DejaVuSans-5a" transform="scale(0.015625)"/>
     </defs>
     <use xlink:href="#DejaVuSans-54"/>
     <use x="61.083984" xlink:href="#DejaVuSans-68"/>
     <use x="124.462891" xlink:href="#DejaVuSans-65"/>
     <use x="185.986328" xlink:href="#DejaVuSans-20"/>
     <use x="217.773438" xlink:href="#DejaVuSans-5a"/>
     <use x="286.279297" xlink:href="#DejaVuSans-6f"/>
     <use x="347.460938" xlink:href="#DejaVuSans-6e"/>
     <use x="410.839844" xlink:href="#DejaVuSans-65"/>
     <use x="472.363281" xlink:href="#DejaVuSans-20"/>
     <use x="504.150391" xlink:href="#DejaVuSans-31"/>
     <use x="567.773438" xlink:href="#DejaVuSans-37"/>
     <use x="631.396484" xlink:href="#DejaVuSans-2e"/>
     <use x="663.183594" xlink:href="#DejaVuSans-30"/>
     <use x="726.806641" xlink:href="#DejaVuSans-b0"/>
    </g>
   </g>
   <g id="text_20">
    <g id="patch_21">
     <path d="M 118.503925 38.822386 
L 120.149011 53.572179 
L 122.112462 53.35319 
L 120.467375 38.603397 
z
" style="fill:#ffffff;"/>
    </g>
    <!-- Revenge 18.6째 -->
    <g style="fill:#4169e1;" transform="translate(118.939393 38.793941)rotate(-276.36406)scale(0.02 -0.02)">
     <defs>
      <path d="M 2841 2188 
Q 3044 2119 3236 1894 
Q 3428 1669 3622 1275 
L 4263 0 
L 3584 0 
L 2988 1197 
Q 2756 1666 2539 1819 
Q 2322 1972 1947 1972 
L 1259 1972 
L 1259 0 
L 628 0 
L 628 4666 
L 2053 4666 
Q 2853 4666 3247 4331 
Q 3641 3997 3641 3322 
Q 3641 2881 3436 2590 
Q 3231 2300 2841 2188 
z
M 1259 4147 
L 1259 2491 
L 2053 2491 
Q 2509 2491 2742 2702 
Q 2975 2913 2975 3322 
Q 2975 3731 2742 3939 
Q 2509 4147 2053 4147 
L 1259 4147 
z
" id="DejaVuSans-52" transform="scale(0.015625)"/>
     </defs>
     <use xlink:href="#DejaVuSans-52"/>
     <use x="64.982422" xlink:href="#DejaVuSans-65"/>
     <use x="126.505859" xlink:href="#DejaVuSans-76"/>
     <use x="185.685547" xlink:href="#DejaVuSans-65"/>
     <use x="247.208984" xlink:href="#DejaVuSans-6e"/>
     <use x="310.587891" xlink:href="#DejaVuSans-67"/>
     <use x="374.064453" xlink:href="#DejaVuSans-65"/>
     <use x="435.587891" xlink:href="#DejaVuSans-20"/>
     <use x="467.375" xlink:href="#DejaVuSans-31"/>
     <use x="530.998047" xlink:href="#DejaVuSans-38"/>
     <use x="594.621094" xlink:href="#DejaVuSans-2e"/>
     <use x="626.408203" xlink:href="#DejaVuSans-36"/>
     <use x="690.03125" xlink:href="#DejaVuSans-b0"/>
    </g>
   </g>
   <g id="text_21">
    <g id="patch_22">
     <path d="M 124.086828 81.560371 
L 130.513386 98.617367 
L 132.362143 97.920812 
L 125.935586 80.863816 
z
" style="fill:#ffffff;"/>
    </g>
    <!-- Roundabout 21.4째 -->
    <g style="fill:#4169e1;" transform="translate(124.501823 81.425386)rotate(-290.644882)scale(0.02 -0.02)">
     <defs>
      <path d="M 3116 1747 
Q 3116 2381 2855 2742 
Q 2594 3103 2138 3103 
Q 1681 3103 1420 2742 
Q 1159 2381 1159 1747 
Q 1159 1113 1420 752 
Q 1681 391 2138 391 
Q 2594 391 2855 752 
Q 3116 1113 3116 1747 
z
M 1159 2969 
Q 1341 3281 1617 3432 
Q 1894 3584 2278 3584 
Q 2916 3584 3314 3078 
Q 3713 2572 3713 1747 
Q 3713 922 3314 415 
Q 2916 -91 2278 -91 
Q 1894 -91 1617 61 
Q 1341 213 1159 525 
L 1159 0 
L 581 0 
L 581 4863 
L 1159 4863 
L 1159 2969 
z
" id="DejaVuSans-62" transform="scale(0.015625)"/>
     </defs>
     <use xlink:href="#DejaVuSans-52"/>
     <use x="64.982422" xlink:href="#DejaVuSans-6f"/>
     <use x="126.164062" xlink:href="#DejaVuSans-75"/>
     <use x="189.542969" xlink:href="#DejaVuSans-6e"/>
     <use x="252.921875" xlink:href="#DejaVuSans-64"/>
     <use x="316.398438" xlink:href="#DejaVuSans-61"/>
     <use x="377.677734" xlink:href="#DejaVuSans-62"/>
     <use x="441.154297" xlink:href="#DejaVuSans-6f"/>
     <use x="502.335938" xlink:href="#DejaVuSans-75"/>
     <use x="565.714844" xlink:href="#DejaVuSans-74"/>
     <use x="604.923828" xlink:href="#DejaVuSans-20"/>
     <use x="636.710938" xlink:href="#DejaVuSans-32"/>
     <use x="700.333984" xlink:href="#DejaVuSans-31"/>
     <use x="763.957031" xlink:href="#DejaVuSans-2e"/>
     <use x="795.744141" xlink:href="#DejaVuSans-34"/>
     <use x="859.367188" xlink:href="#DejaVuSans-b0"/>
    </g>
   </g>
   <g id="text_22">
    <!-- Devil's Head -->
    <g transform="translate(43.633114 10.677933)scale(0.1 -0.1)">
     <defs>
      <path d="M 628 4666 
L 1259 4666 
L 1259 2753 
L 3553 2753 
L 3553 4666 
L 4184 4666 
L 4184 0 
L 3553 0 
L 3553 2222 
L 1259 2222 
L 1259 0 
L 628 0 
L 628 4666 
z
" id="DejaVuSans-48" transform="scale(0.015625)"/>
     </defs>
     <use xlink:href="#DejaVuSans-44"/>
     <use x="77.001953" xlink:href="#DejaVuSans-65"/>
     <use x="138.525391" xlink:href="#DejaVuSans-76"/>
     <use x="197.705078" xlink:href="#DejaVuSans-69"/>
     <use x="225.488281" xlink:href="#DejaVuSans-6c"/>
     <use x="253.271484" xlink:href="#DejaVuSans-27"/>
     <use x="280.761719" xlink:href="#DejaVuSans-73"/>
     <use x="332.861328" xlink:href="#DejaVuSans-20"/>
     <use x="364.648438" xlink:href="#DejaVuSans-48"/>
     <use x="439.84375" xlink:href="#DejaVuSans-65"/>
     <use x="501.367188" xlink:href="#DejaVuSans-61"/>
     <use x="562.646484" xlink:href="#DejaVuSans-64"/>
    </g>
   </g>
   <g id="legend_1">
    <g id="line2d_35">
     <path d="M 4.938193 159.250465 
L 14.938193 159.250465 
" style="fill:none;stroke:#008000;stroke-linecap:square;stroke-width:0.69389;"/>
    </g>
    <g id="line2d_36"/>
    <g id="text_23">
     <!-- Easy -->
     <g transform="translate(18.938193 161.000465)scale(0.05 -0.05)">
      <defs>
       <path d="M 628 4666 
L 3578 4666 
L 3578 4134 
L 1259 4134 
L 1259 2753 
L 3481 2753 
L 3481 2222 
L 1259 2222 
L 1259 531 
L 3634 531 
L 3634 0 
L 628 0 
L 628 4666 
z
" id="DejaVuSans-45" transform="scale(0.015625)"/>
      </defs>
      <use xlink:href="#DejaVuSans-45"/>
      <use x="63.183594" xlink:href="#DejaVuSans-61"/>
      <use x="124.462891" xlink:href="#DejaVuSans-73"/>
      <use x="176.5625" xlink:href="#DejaVuSans-79"/>
     </g>
    </g>
    <g id="line2d_37">
     <path d="M 4.938193 166.589528 
L 14.938193 166.589528 
" style="fill:none;stroke:#4169e1;stroke-linecap:square;stroke-width:0.69389;"/>
    </g>
    <g id="line2d_38"/>
    <g id="text_24">
     <!-- Intermediate -->
     <g transform="translate(18.938193 168.339528)scale(0.05 -0.05)">
      <use xlink:href="#DejaVuSans-49"/>
      <use x="29.492188" xlink:href="#DejaVuSans-6e"/>
      <use x="92.871094" xlink:href="#DejaVuSans-74"/>
      <use x="132.080078" xlink:href="#DejaVuSans-65"/>
      <use x="193.603516" xlink:href="#DejaVuSans-72"/>
      <use x="232.966797" xlink:href="#DejaVuSans-6d"/>
      <use x="330.378906" xlink:href="#DejaVuSans-65"/>
      <use x="391.902344" xlink:href="#DejaVuSans-64"/>
      <use x="455.378906" xlink:href="#DejaVuSans-69"/>
      <use x="483.162109" xlink:href="#DejaVuSans-61"/>
      <use x="544.441406" xlink:href="#DejaVuSans-74"/>
      <use x="583.650391" xlink:href="#DejaVuSans-65"/>
     </g>
    </g>
    <g id="line2d_39">
     <path d="M 61.197568 159.250465 
L 71.197568 159.250465 
" style="fill:none;stroke:#000000;stroke-linecap:square;stroke-width:0.69389;"/>
    </g>
    <g id="line2d_40"/>
    <g id="text_25">
     <!-- Advanced -->
     <g transform="translate(75.197568 161.000465)scale(0.05 -0.05)">
      <use xlink:href="#DejaVuSans-41"/>
      <use x="66.658203" xlink:href="#DejaVuSans-64"/>
      <use x="130.134766" xlink:href="#DejaVuSans-76"/>
      <use x="189.314453" xlink:href="#DejaVuSans-61"/>
      <use x="250.59375" xlink:href="#DejaVuSans-6e"/>
      <use x="313.972656" xlink:href="#DejaVuSans-63"/>
      <use x="368.953125" xlink:href="#DejaVuSans-65"/>
      <use x="430.476562" xlink:href="#DejaVuSans-64"/>
     </g>
    </g>
    <g id="line2d_41">
     <path d="M 61.197568 166.589528 
L 71.197568 166.589528 
" style="fill:none;stroke:#ff0000;stroke-linecap:square;stroke-width:0.69389;"/>
    </g>
    <g id="line2d_42"/>
    <g id="text_26">
     <!-- Expert -->
     <g transform="translate(75.197568 168.339528)scale(0.05 -0.05)">
      <defs>
       <path d="M 3513 3500 
L 2247 1797 
L 3578 0 
L 2900 0 
L 1881 1375 
L 863 0 
L 184 0 
L 1544 1831 
L 300 3500 
L 978 3500 
L 1906 2253 
L 2834 3500 
L 3513 3500 
z
" id="DejaVuSans-78" transform="scale(0.015625)"/>
      </defs>
      <use xlink:href="#DejaVuSans-45"/>
      <use x="63.183594" xlink:href="#DejaVuSans-78"/>
      <use x="122.363281" xlink:href="#DejaVuSans-70"/>
      <use x="185.839844" xlink:href="#DejaVuSans-65"/>
      <use x="247.363281" xlink:href="#DejaVuSans-72"/>
      <use x="288.476562" xlink:href="#DejaVuSans-74"/>
     </g>
    </g>
    <g id="line2d_43">
     <path d="M 109.896786 159.250465 
L 119.896786 159.250465 
" style="fill:none;stroke:#ffd700;stroke-linecap:square;stroke-width:0.69389;"/>
    </g>
    <g id="line2d_44"/>
    <g id="text_27">
     <!-- Extreme -->
     <g transform="translate(123.896786 161.000465)scale(0.05 -0.05)">
      <use xlink:href="#DejaVuSans-45"/>
      <use x="63.183594" xlink:href="#DejaVuSans-78"/>
      <use x="122.363281" xlink:href="#DejaVuSans-74"/>
      <use x="161.572266" xlink:href="#DejaVuSans-72"/>
      <use x="200.435547" xlink:href="#DejaVuSans-65"/>
      <use x="261.958984" xlink:href="#DejaVuSans-6d"/>
      <use x="359.371094" xlink:href="#DejaVuSans-65"/>
     </g>
    </g>
    <g id="line2d_45">
     <path d="M 109.896786 166.589528 
L 119.896786 166.589528 
" style="fill:none;stroke:#000000;stroke-dasharray:0.69389,1.144919;stroke-dashoffset:0;stroke-width:0.69389;"/>
    </g>
    <g id="line2d_46"/>
    <g id="text_28">
     <!-- Gladed -->
     <g transform="translate(123.896786 168.339528)scale(0.05 -0.05)">
      <defs>
       <path d="M 3809 666 
L 3809 1919 
L 2778 1919 
L 2778 2438 
L 4434 2438 
L 4434 434 
Q 4069 175 3628 42 
Q 3188 -91 2688 -91 
Q 1594 -91 976 548 
Q 359 1188 359 2328 
Q 359 3472 976 4111 
Q 1594 4750 2688 4750 
Q 3144 4750 3555 4637 
Q 3966 4525 4313 4306 
L 4313 3634 
Q 3963 3931 3569 4081 
Q 3175 4231 2741 4231 
Q 1884 4231 1454 3753 
Q 1025 3275 1025 2328 
Q 1025 1384 1454 906 
Q 1884 428 2741 428 
Q 3075 428 3337 486 
Q 3600 544 3809 666 
z
" id="DejaVuSans-47" transform="scale(0.015625)"/>
      </defs>
      <use xlink:href="#DejaVuSans-47"/>
      <use x="77.490234" xlink:href="#DejaVuSans-6c"/>
      <use x="105.273438" xlink:href="#DejaVuSans-61"/>
      <use x="166.552734" xlink:href="#DejaVuSans-64"/>
      <use x="230.029297" xlink:href="#DejaVuSans-65"/>
      <use x="291.552734" xlink:href="#DejaVuSans-64"/>
     </g>
    </g>
   </g>
  </g>
  <g id="text_29">
   <!-- Sources: USGS and OpenStreetMaps -->
   <g transform="translate(35.27948 175.757846)scale(0.043478 -0.043478)">
    <defs>
     <path d="M 750 794 
L 1409 794 
L 1409 0 
L 750 0 
L 750 794 
z
M 750 3309 
L 1409 3309 
L 1409 2516 
L 750 2516 
L 750 3309 
z
" id="DejaVuSans-3a" transform="scale(0.015625)"/>
     <path d="M 556 4666 
L 1191 4666 
L 1191 1831 
Q 1191 1081 1462 751 
Q 1734 422 2344 422 
Q 2950 422 3222 751 
Q 3494 1081 3494 1831 
L 3494 4666 
L 4128 4666 
L 4128 1753 
Q 4128 841 3676 375 
Q 3225 -91 2344 -91 
Q 1459 -91 1007 375 
Q 556 841 556 1753 
L 556 4666 
z
" id="DejaVuSans-55" transform="scale(0.015625)"/>
    </defs>
    <use xlink:href="#DejaVuSans-53"/>
    <use x="63.476562" xlink:href="#DejaVuSans-6f"/>
    <use x="124.658203" xlink:href="#DejaVuSans-75"/>
    <use x="188.037109" xlink:href="#DejaVuSans-72"/>
    <use x="226.900391" xlink:href="#DejaVuSans-63"/>
    <use x="281.880859" xlink:href="#DejaVuSans-65"/>
    <use x="343.404297" xlink:href="#DejaVuSans-73"/>
    <use x="395.503906" xlink:href="#DejaVuSans-3a"/>
    <use x="429.195312" xlink:href="#DejaVuSans-20"/>
    <use x="460.982422" xlink:href="#DejaVuSans-55"/>
    <use x="534.175781" xlink:href="#DejaVuSans-53"/>
    <use x="597.652344" xlink:href="#DejaVuSans-47"/>
    <use x="675.142578" xlink:href="#DejaVuSans-53"/>
    <use x="738.619141" xlink:href="#DejaVuSans-20"/>
    <use x="770.40625" xlink:href="#DejaVuSans-61"/>
    <use x="831.685547" xlink:href="#DejaVuSans-6e"/>
    <use x="895.064453" xlink:href="#DejaVuSans-64"/>
    <use x="958.541016" xlink:href="#DejaVuSans-20"/>
    <use x="990.328125" xlink:href="#DejaVuSans-4f"/>
    <use x="1069.039062" xlink:href="#DejaVuSans-70"/>
    <use x="1132.515625" xlink:href="#DejaVuSans-65"/>
    <use x="1194.039062" xlink:href="#DejaVuSans-6e"/>
    <use x="1257.417969" xlink:href="#DejaVuSans-53"/>
    <use x="1320.894531" xlink:href="#DejaVuSans-74"/>
    <use x="1360.103516" xlink:href="#DejaVuSans-72"/>
    <use x="1398.966797" xlink:href="#DejaVuSans-65"/>
    <use x="1460.490234" xlink:href="#DejaVuSans-65"/>
    <use x="1522.013672" xlink:href="#DejaVuSans-74"/>
    <use x="1561.222656" xlink:href="#DejaVuSans-4d"/>
    <use x="1647.501953" xlink:href="#DejaVuSans-61"/>
    <use x="1708.78125" xlink:href="#DejaVuSans-70"/>
    <use x="1772.257812" xlink:href="#DejaVuSans-73"/>
   </g>
  </g>
 </g>
 <defs>
  <clipPath id="p4828fa3df7">
   <rect height="145.306193" width="149.880291" x="0" y="15.677933"/>
  </clipPath>
 </defs>
</svg>
