<?xml version="1.0" encoding="utf-8" standalone="no"?>
<!DOCTYPE svg PUBLIC "-//W3C//DTD SVG 1.1//EN"
  "http://www.w3.org/Graphics/SVG/1.1/DTD/svg11.dtd">
<svg height="102.897229pt" version="1.1" viewBox="0 0 35.066829 102.897229" width="35.066829pt" xmlns="http://www.w3.org/2000/svg" xmlns:xlink="http://www.w3.org/1999/xlink">
 <metadata>
  <rdf:RDF xmlns:cc="http://creativecommons.org/ns#" xmlns:dc="http://purl.org/dc/elements/1.1/" xmlns:rdf="http://www.w3.org/1999/02/22-rdf-syntax-ns#">
   <cc:Work>
    <dc:type rdf:resource="http://purl.org/dc/dcmitype/StillImage"/>
    <dc:date>2022-05-18T23:23:32.141229</dc:date>
    <dc:format>image/svg+xml</dc:format>
    <dc:creator>
     <cc:Agent>
      <dc:title>Matplotlib v3.4.3, https://matplotlib.org/</dc:title>
     </cc:Agent>
    </dc:creator>
   </cc:Work>
  </rdf:RDF>
 </metadata>
 <defs>
  <style type="text/css">*{stroke-linecap:butt;stroke-linejoin:round;}</style>
 </defs>
 <g id="figure_1">
  <g id="patch_1">
   <path d="M 0 102.897229 
L 35.066829 102.897229 
L 35.066829 0 
L 0 0 
z
" style="fill:#ffffff;"/>
  </g>
  <g id="axes_1">
   <g id="line2d_1">
    <path clip-path="url(#pa4fcebfee9)" d="M 7.791166 89.458214 
L 7.885267 88.93197 
L 8.717612 84.296965 
L 9.549957 79.661959 
L 10.382303 75.026953 
L 11.214648 70.391947 
L 12.046993 65.756941 
L 12.879338 61.121936 
L 13.711684 56.48693 
L 14.544029 51.851924 
L 15.376374 47.216918 
L 16.208719 42.581912 
L 17.041065 37.946907 
L 17.87341 33.311901 
L 18.705755 28.676895 
L 19.5381 24.041889 
L 20.370446 19.406883 
L 21.202791 14.771878 
" style="fill:none;stroke:#808080;stroke-linecap:square;stroke-width:0.4;"/>
   </g>
   <g id="line2d_2">
    <path clip-path="url(#pa4fcebfee9)" d="M 5.738869 12.564818 
L 9.24693 12.712914 
L 12.754991 12.861009 
L 16.263052 13.009105 
L 19.771112 13.157201 
" style="fill:none;stroke:#808080;stroke-linecap:square;stroke-width:0.4;"/>
   </g>
   <g id="line2d_3">
    <path clip-path="url(#pa4fcebfee9)" d="M 21.202791 14.771878 
L 20.836469 13.489339 
L 20.519439 12.827939 
L 19.766631 12.41816 
L 18.556762 12.304571 
L 17.346893 12.190983 
L 16.137023 12.077395 
L 14.927154 11.963807 
L 13.488474 11.901621 
L 12.049794 11.839435 
L 10.611114 11.777249 
L 9.172433 11.715064 
L 8.474518 11.78983 
L 7.895349 12.042887 
L 7.62873 12.68847 
L 7.678021 13.348432 
L 8.431949 14.31465 
L 9.622774 15.174468 
L 10.520653 15.809807 
L 11.418533 16.445145 
L 12.316413 17.080484 
L 13.214293 17.715823 
L 14.112173 18.351161 
L 15.010053 18.9865 
L 15.907932 19.621838 
L 16.805812 20.257177 
L 17.639278 21.405998 
L 17.815157 22.573511 
L 17.662803 23.365752 
L 17.136286 23.880494 
L 16.249048 24.097605 
L 15.071666 24.19969 
L 13.894284 24.301776 
L 12.175822 24.076756 
L 10.457359 23.851737 
L 9.226766 23.923628 
L 7.996172 23.995519 
L 6.585778 24.393797 
L 5.34006 24.92004 
L 4.326235 25.44916 
L 3.85349 26.216958 
L 3.716259 27.316893 
L 3.579029 28.416829 
L 3.517975 29.523234 
L 3.456921 30.62964 
L 3.395868 31.736046 
L 3.334814 32.842451 
L 3.787395 34.127866 
L 4.359842 34.879848 
L 5.02415 35.43341 
L 5.662692 35.97547 
L 6.877043 36.704447 
L 7.733473 37.28389 
L 8.589904 37.863333 
L 9.446334 38.442776 
L 10.302765 39.022219 
L 11.518796 39.845194 
L 12.734826 40.668169 
L 13.950857 41.491143 
L 15.166888 42.314118 
L 16.382918 43.137092 
L 17.598949 43.960067 
L 18.814979 44.783041 
L 20.03101 45.606016 
L 21.008148 46.340385 
L 21.985285 47.074753 
L 22.962423 47.809122 
L 23.93956 48.543491 
L 25.139347 49.89217 
L 26.339134 51.240849 
L 27.026407 52.424897 
L 27.71368 53.608945 
L 27.964056 54.736918 
L 28.214431 55.864891 
L 28.464807 56.992864 
L 28.715183 58.120837 
L 28.905625 59.753127 
L 29.096068 61.385417 
L 29.28651 63.017707 
L 29.476952 64.649997 
L 29.476952 65.866755 
L 29.476952 67.083514 
L 29.476952 68.300273 
L 29.476952 69.517031 
L 29.567132 70.97139 
L 29.657313 72.42575 
L 30.107933 73.731653 
L 30.558553 75.037557 
L 31.009173 76.343461 
L 31.459794 77.649365 
L 31.685244 78.673095 
L 31.910694 79.696826 
L 32.136144 80.720557 
L 32.361594 81.744288 
L 32.181234 83.228122 
L 31.850761 84.178524 
L 31.339927 84.890247 
L 30.1379 85.95855 
L 28.935872 87.026854 
L 28.244678 87.768771 
L 27.553484 88.510688 
L 26.86229 89.252605 
L 26.171097 89.994523 
L 25.239609 90.469723 
L 24.308122 90.944924 
L 22.955981 91.182165 
L 21.60384 91.123214 
L 19.785956 90.915449 
L 17.968071 90.707683 
L 16.150186 90.499918 
L 14.332302 90.292152 
L 12.7057 90.056349 
L 11.079098 89.820546 
L 9.737599 89.44743 
L 8.396101 89.074315 
L 7.885267 88.93197 
" style="fill:none;stroke:#008000;stroke-linecap:square;stroke-width:0.4;"/>
   </g>
   <g id="line2d_4">
    <path clip-path="url(#pa4fcebfee9)" d="M 4.359842 34.879848 
L 4.658949 35.834563 
L 4.958055 36.789279 
L 5.076802 37.921565 
L 5.195548 39.053852 
L 5.082263 40.332437 
L 4.968978 41.611022 
L 4.855693 42.889607 
L 4.742407 44.168192 
L 4.629122 45.446777 
L 4.515837 46.725362 
L 4.402552 48.003947 
L 4.289267 49.282532 
L 4.130611 50.615575 
L 3.971956 51.948618 
L 3.813301 53.28166 
L 3.654645 54.614703 
L 3.49599 55.947746 
L 3.337335 57.280789 
L 3.178679 58.613831 
L 3.020024 59.946874 
L 2.861369 61.279917 
L 2.702714 62.612959 
L 2.544058 63.946002 
L 2.385403 65.279045 
L 2.226748 66.612087 
L 2.068092 67.94513 
L 1.909437 69.278173 
L 1.750782 70.611215 
L 1.711573 71.866436 
L 1.672364 73.121656 
L 1.633155 74.376877 
L 1.593947 75.632097 
L 1.645198 76.916793 
L 1.69645 78.201489 
L 1.747701 79.486185 
L 1.798952 80.770881 
L 2.291862 82.598355 
L 2.784772 84.42583 
L 3.204025 85.339567 
L 3.623278 86.253304 
L 4.042532 87.167041 
L 4.461785 88.080779 
L 4.782176 88.617087 
L 5.131694 88.916154 
L 5.83185 89.128952 
L 6.767258 89.034056 
L 7.885267 88.93197 
" style="fill:none;stroke:#4169e1;stroke-linecap:square;stroke-width:0.4;"/>
   </g>
   <g id="line2d_5">
    <path clip-path="url(#pa4fcebfee9)" d="M 21.202791 14.771878 
L 21.606081 14.071657 
L 22.18861 13.667629 
L 22.720729 13.792719 
L 23.162107 14.124857 
L 23.976528 15.277992 
L 24.790949 16.431127 
L 25.273217 17.348458 
L 25.755484 18.26579 
L 25.907278 19.272986 
L 26.059072 20.280182 
L 25.758565 21.971782 
L 25.458058 23.663382 
L 25.157551 25.354982 
L 24.857044 27.046582 
L 24.609189 28.412156 
L 24.361334 29.777729 
L 24.113479 31.143303 
L 23.865624 32.508876 
L 23.386297 34.146019 
L 22.90697 35.783161 
L 22.427644 37.420304 
L 21.948317 39.057446 
L 21.46899 40.694589 
L 20.989663 42.331731 
L 20.510337 43.968874 
L 20.03101 45.606016 
L 19.652646 47.013286 
L 19.274282 48.420557 
L 18.895917 49.827827 
L 18.517553 51.235098 
L 18.108172 52.908275 
L 17.698791 54.581453 
L 17.28941 56.254631 
L 16.880029 57.927809 
L 16.470648 59.600987 
L 16.061267 61.274165 
L 15.651885 62.947343 
L 15.242504 64.620521 
L 14.833123 66.293699 
L 14.423742 67.966877 
L 14.014361 69.640055 
L 13.60498 71.313233 
L 13.195599 72.986411 
L 12.786218 74.659589 
L 12.376837 76.332767 
L 11.967455 78.005945 
L 11.721561 79.274645 
L 11.475666 80.543345 
L 11.229771 81.812045 
L 10.983877 83.080745 
L 10.737982 84.349445 
L 10.492087 85.618145 
L 10.246192 86.886845 
L 10.000298 88.155545 
L 9.145547 88.778123 
L 8.396101 89.074315 
" style="fill:none;stroke:#4169e1;stroke-linecap:square;stroke-width:0.4;"/>
   </g>
   <g id="line2d_6">
    <path clip-path="url(#pa4fcebfee9)" d="M 7.678021 13.348432 
L 7.437167 15.086761 
L 7.054042 16.088565 
L 6.670917 17.090369 
L 6.287791 18.092173 
L 5.904666 19.093977 
L 5.391872 20.874722 
L 4.879078 22.655467 
L 4.366284 24.436213 
L 3.85349 26.216958 
" style="fill:none;stroke:#4169e1;stroke-linecap:square;stroke-width:0.4;"/>
   </g>
   <g id="line2d_7">
    <path clip-path="url(#pa4fcebfee9)" d="M 25.755484 18.26579 
L 27.023886 19.555878 
L 28.292289 20.845966 
L 29.560691 22.136053 
L 30.829093 23.426141 
L 31.279714 24.435494 
L 31.730334 25.444846 
L 32.180954 26.454199 
L 32.631575 27.463551 
L 32.736738 28.442889 
L 32.841901 29.422227 
L 32.947065 30.401565 
L 33.052228 31.380903 
L 33.157392 32.360241 
L 33.262555 33.339579 
L 33.367718 34.318917 
L 33.472882 35.298255 
L 33.337752 36.663469 
L 33.202622 38.028683 
L 33.067492 39.393897 
L 32.932361 40.759111 
L 32.797231 42.124325 
L 32.662101 43.489539 
L 32.526971 44.854753 
L 32.391841 46.219967 
L 32.198318 47.22914 
L 32.004795 48.238313 
L 31.811272 49.247485 
L 31.617749 50.256658 
L 31.424226 51.265831 
L 31.230703 52.275004 
L 31.03718 53.284177 
L 30.843657 54.293349 
" style="fill:none;stroke:#000000;stroke-dasharray:1.48,0.64;stroke-dashoffset:0;stroke-width:0.4;"/>
   </g>
   <g id="text_1">
    <g id="patch_2">
     <path d="M 15.430733 52.402966 
L 15.582476 51.744602 
L 13.657325 51.300882 
L 13.505582 51.959246 
z
" style="fill:#ffffff;"/>
    </g>
    <!--   -->
    <g style="fill:#808080;" transform="translate(15.010425 52.285567)rotate(-77.020799)scale(0.02 -0.02)">
     <defs>
      <path id="DejaVuSans-20" transform="scale(0.015625)"/>
     </defs>
     <use xlink:href="#DejaVuSans-20"/>
    </g>
   </g>
   <g id="text_2">
    <g id="patch_3">
     <path d="M 7.319088 39.292764 
L 22.093212 47.083035 
L 23.014687 45.335472 
L 8.240563 37.545201 
z
" style="fill:#ffffff;"/>
    </g>
    <!-- Elsa's Way 16.6째 -->
    <g style="fill:#008000;" transform="translate(7.54011 38.916478)rotate(-332.197696)scale(0.02 -0.02)">
     <defs>
      <path d="M 628 4666 
L 3578 4666 
L 3578 4134 
L 1259 4134 
L 1259 2753 
L 3481 2753 
L 3481 2222 
L 1259 2222 
L 1259 531 
L 3634 531 
L 3634 0 
L 628 0 
L 628 4666 
z
" id="DejaVuSans-45" transform="scale(0.015625)"/>
      <path d="M 603 4863 
L 1178 4863 
L 1178 0 
L 603 0 
L 603 4863 
z
" id="DejaVuSans-6c" transform="scale(0.015625)"/>
      <path d="M 2834 3397 
L 2834 2853 
Q 2591 2978 2328 3040 
Q 2066 3103 1784 3103 
Q 1356 3103 1142 2972 
Q 928 2841 928 2578 
Q 928 2378 1081 2264 
Q 1234 2150 1697 2047 
L 1894 2003 
Q 2506 1872 2764 1633 
Q 3022 1394 3022 966 
Q 3022 478 2636 193 
Q 2250 -91 1575 -91 
Q 1294 -91 989 -36 
Q 684 19 347 128 
L 347 722 
Q 666 556 975 473 
Q 1284 391 1588 391 
Q 1994 391 2212 530 
Q 2431 669 2431 922 
Q 2431 1156 2273 1281 
Q 2116 1406 1581 1522 
L 1381 1569 
Q 847 1681 609 1914 
Q 372 2147 372 2553 
Q 372 3047 722 3315 
Q 1072 3584 1716 3584 
Q 2034 3584 2315 3537 
Q 2597 3491 2834 3397 
z
" id="DejaVuSans-73" transform="scale(0.015625)"/>
      <path d="M 2194 1759 
Q 1497 1759 1228 1600 
Q 959 1441 959 1056 
Q 959 750 1161 570 
Q 1363 391 1709 391 
Q 2188 391 2477 730 
Q 2766 1069 2766 1631 
L 2766 1759 
L 2194 1759 
z
M 3341 1997 
L 3341 0 
L 2766 0 
L 2766 531 
Q 2569 213 2275 61 
Q 1981 -91 1556 -91 
Q 1019 -91 701 211 
Q 384 513 384 1019 
Q 384 1609 779 1909 
Q 1175 2209 1959 2209 
L 2766 2209 
L 2766 2266 
Q 2766 2663 2505 2880 
Q 2244 3097 1772 3097 
Q 1472 3097 1187 3025 
Q 903 2953 641 2809 
L 641 3341 
Q 956 3463 1253 3523 
Q 1550 3584 1831 3584 
Q 2591 3584 2966 3190 
Q 3341 2797 3341 1997 
z
" id="DejaVuSans-61" transform="scale(0.015625)"/>
      <path d="M 1147 4666 
L 1147 2931 
L 616 2931 
L 616 4666 
L 1147 4666 
z
" id="DejaVuSans-27" transform="scale(0.015625)"/>
      <path d="M 213 4666 
L 850 4666 
L 1831 722 
L 2809 4666 
L 3519 4666 
L 4500 722 
L 5478 4666 
L 6119 4666 
L 4947 0 
L 4153 0 
L 3169 4050 
L 2175 0 
L 1381 0 
L 213 4666 
z
" id="DejaVuSans-57" transform="scale(0.015625)"/>
      <path d="M 2059 -325 
Q 1816 -950 1584 -1140 
Q 1353 -1331 966 -1331 
L 506 -1331 
L 506 -850 
L 844 -850 
Q 1081 -850 1212 -737 
Q 1344 -625 1503 -206 
L 1606 56 
L 191 3500 
L 800 3500 
L 1894 763 
L 2988 3500 
L 3597 3500 
L 2059 -325 
z
" id="DejaVuSans-79" transform="scale(0.015625)"/>
      <path d="M 794 531 
L 1825 531 
L 1825 4091 
L 703 3866 
L 703 4441 
L 1819 4666 
L 2450 4666 
L 2450 531 
L 3481 531 
L 3481 0 
L 794 0 
L 794 531 
z
" id="DejaVuSans-31" transform="scale(0.015625)"/>
      <path d="M 2113 2584 
Q 1688 2584 1439 2293 
Q 1191 2003 1191 1497 
Q 1191 994 1439 701 
Q 1688 409 2113 409 
Q 2538 409 2786 701 
Q 3034 994 3034 1497 
Q 3034 2003 2786 2293 
Q 2538 2584 2113 2584 
z
M 3366 4563 
L 3366 3988 
Q 3128 4100 2886 4159 
Q 2644 4219 2406 4219 
Q 1781 4219 1451 3797 
Q 1122 3375 1075 2522 
Q 1259 2794 1537 2939 
Q 1816 3084 2150 3084 
Q 2853 3084 3261 2657 
Q 3669 2231 3669 1497 
Q 3669 778 3244 343 
Q 2819 -91 2113 -91 
Q 1303 -91 875 529 
Q 447 1150 447 2328 
Q 447 3434 972 4092 
Q 1497 4750 2381 4750 
Q 2619 4750 2861 4703 
Q 3103 4656 3366 4563 
z
" id="DejaVuSans-36" transform="scale(0.015625)"/>
      <path d="M 684 794 
L 1344 794 
L 1344 0 
L 684 0 
L 684 794 
z
" id="DejaVuSans-2e" transform="scale(0.015625)"/>
      <path d="M 1600 4347 
Q 1350 4347 1178 4173 
Q 1006 4000 1006 3750 
Q 1006 3503 1178 3333 
Q 1350 3163 1600 3163 
Q 1850 3163 2022 3333 
Q 2194 3503 2194 3750 
Q 2194 3997 2020 4172 
Q 1847 4347 1600 4347 
z
M 1600 4750 
Q 1800 4750 1984 4673 
Q 2169 4597 2303 4453 
Q 2447 4313 2519 4134 
Q 2591 3956 2591 3750 
Q 2591 3338 2302 3052 
Q 2013 2766 1594 2766 
Q 1172 2766 890 3047 
Q 609 3328 609 3750 
Q 609 4169 896 4459 
Q 1184 4750 1600 4750 
z
" id="DejaVuSans-b0" transform="scale(0.015625)"/>
     </defs>
     <use xlink:href="#DejaVuSans-45"/>
     <use x="63.183594" xlink:href="#DejaVuSans-6c"/>
     <use x="90.966797" xlink:href="#DejaVuSans-73"/>
     <use x="143.066406" xlink:href="#DejaVuSans-61"/>
     <use x="204.345703" xlink:href="#DejaVuSans-27"/>
     <use x="231.835938" xlink:href="#DejaVuSans-73"/>
     <use x="283.935547" xlink:href="#DejaVuSans-20"/>
     <use x="315.722656" xlink:href="#DejaVuSans-57"/>
     <use x="408.224609" xlink:href="#DejaVuSans-61"/>
     <use x="469.503906" xlink:href="#DejaVuSans-79"/>
     <use x="528.683594" xlink:href="#DejaVuSans-20"/>
     <use x="560.470703" xlink:href="#DejaVuSans-31"/>
     <use x="624.09375" xlink:href="#DejaVuSans-36"/>
     <use x="687.716797" xlink:href="#DejaVuSans-2e"/>
     <use x="719.503906" xlink:href="#DejaVuSans-36"/>
     <use x="783.126953" xlink:href="#DejaVuSans-b0"/>
    </g>
   </g>
   <g id="text_3">
    <g id="patch_4">
     <path d="M 3.61964 60.796564 
L 6.277242 43.399002 
L 4.324272 43.100672 
L 1.66667 60.498233 
z
" style="fill:#ffffff;"/>
    </g>
    <!-- RFK on I-70 19.6째 -->
    <g style="fill:#4169e1;" transform="translate(3.191721 60.710964)rotate(-81.314799)scale(0.02 -0.02)">
     <defs>
      <path d="M 2841 2188 
Q 3044 2119 3236 1894 
Q 3428 1669 3622 1275 
L 4263 0 
L 3584 0 
L 2988 1197 
Q 2756 1666 2539 1819 
Q 2322 1972 1947 1972 
L 1259 1972 
L 1259 0 
L 628 0 
L 628 4666 
L 2053 4666 
Q 2853 4666 3247 4331 
Q 3641 3997 3641 3322 
Q 3641 2881 3436 2590 
Q 3231 2300 2841 2188 
z
M 1259 4147 
L 1259 2491 
L 2053 2491 
Q 2509 2491 2742 2702 
Q 2975 2913 2975 3322 
Q 2975 3731 2742 3939 
Q 2509 4147 2053 4147 
L 1259 4147 
z
" id="DejaVuSans-52" transform="scale(0.015625)"/>
      <path d="M 628 4666 
L 3309 4666 
L 3309 4134 
L 1259 4134 
L 1259 2759 
L 3109 2759 
L 3109 2228 
L 1259 2228 
L 1259 0 
L 628 0 
L 628 4666 
z
" id="DejaVuSans-46" transform="scale(0.015625)"/>
      <path d="M 628 4666 
L 1259 4666 
L 1259 2694 
L 3353 4666 
L 4166 4666 
L 1850 2491 
L 4331 0 
L 3500 0 
L 1259 2247 
L 1259 0 
L 628 0 
L 628 4666 
z
" id="DejaVuSans-4b" transform="scale(0.015625)"/>
      <path d="M 1959 3097 
Q 1497 3097 1228 2736 
Q 959 2375 959 1747 
Q 959 1119 1226 758 
Q 1494 397 1959 397 
Q 2419 397 2687 759 
Q 2956 1122 2956 1747 
Q 2956 2369 2687 2733 
Q 2419 3097 1959 3097 
z
M 1959 3584 
Q 2709 3584 3137 3096 
Q 3566 2609 3566 1747 
Q 3566 888 3137 398 
Q 2709 -91 1959 -91 
Q 1206 -91 779 398 
Q 353 888 353 1747 
Q 353 2609 779 3096 
Q 1206 3584 1959 3584 
z
" id="DejaVuSans-6f" transform="scale(0.015625)"/>
      <path d="M 3513 2113 
L 3513 0 
L 2938 0 
L 2938 2094 
Q 2938 2591 2744 2837 
Q 2550 3084 2163 3084 
Q 1697 3084 1428 2787 
Q 1159 2491 1159 1978 
L 1159 0 
L 581 0 
L 581 3500 
L 1159 3500 
L 1159 2956 
Q 1366 3272 1645 3428 
Q 1925 3584 2291 3584 
Q 2894 3584 3203 3211 
Q 3513 2838 3513 2113 
z
" id="DejaVuSans-6e" transform="scale(0.015625)"/>
      <path d="M 628 4666 
L 1259 4666 
L 1259 0 
L 628 0 
L 628 4666 
z
" id="DejaVuSans-49" transform="scale(0.015625)"/>
      <path d="M 313 2009 
L 1997 2009 
L 1997 1497 
L 313 1497 
L 313 2009 
z
" id="DejaVuSans-2d" transform="scale(0.015625)"/>
      <path d="M 525 4666 
L 3525 4666 
L 3525 4397 
L 1831 0 
L 1172 0 
L 2766 4134 
L 525 4134 
L 525 4666 
z
" id="DejaVuSans-37" transform="scale(0.015625)"/>
      <path d="M 2034 4250 
Q 1547 4250 1301 3770 
Q 1056 3291 1056 2328 
Q 1056 1369 1301 889 
Q 1547 409 2034 409 
Q 2525 409 2770 889 
Q 3016 1369 3016 2328 
Q 3016 3291 2770 3770 
Q 2525 4250 2034 4250 
z
M 2034 4750 
Q 2819 4750 3233 4129 
Q 3647 3509 3647 2328 
Q 3647 1150 3233 529 
Q 2819 -91 2034 -91 
Q 1250 -91 836 529 
Q 422 1150 422 2328 
Q 422 3509 836 4129 
Q 1250 4750 2034 4750 
z
" id="DejaVuSans-30" transform="scale(0.015625)"/>
      <path d="M 703 97 
L 703 672 
Q 941 559 1184 500 
Q 1428 441 1663 441 
Q 2288 441 2617 861 
Q 2947 1281 2994 2138 
Q 2813 1869 2534 1725 
Q 2256 1581 1919 1581 
Q 1219 1581 811 2004 
Q 403 2428 403 3163 
Q 403 3881 828 4315 
Q 1253 4750 1959 4750 
Q 2769 4750 3195 4129 
Q 3622 3509 3622 2328 
Q 3622 1225 3098 567 
Q 2575 -91 1691 -91 
Q 1453 -91 1209 -44 
Q 966 3 703 97 
z
M 1959 2075 
Q 2384 2075 2632 2365 
Q 2881 2656 2881 3163 
Q 2881 3666 2632 3958 
Q 2384 4250 1959 4250 
Q 1534 4250 1286 3958 
Q 1038 3666 1038 3163 
Q 1038 2656 1286 2365 
Q 1534 2075 1959 2075 
z
" id="DejaVuSans-39" transform="scale(0.015625)"/>
     </defs>
     <use xlink:href="#DejaVuSans-52"/>
     <use x="69.482422" xlink:href="#DejaVuSans-46"/>
     <use x="127.001953" xlink:href="#DejaVuSans-4b"/>
     <use x="192.578125" xlink:href="#DejaVuSans-20"/>
     <use x="224.365234" xlink:href="#DejaVuSans-6f"/>
     <use x="285.546875" xlink:href="#DejaVuSans-6e"/>
     <use x="348.925781" xlink:href="#DejaVuSans-20"/>
     <use x="380.712891" xlink:href="#DejaVuSans-49"/>
     <use x="410.205078" xlink:href="#DejaVuSans-2d"/>
     <use x="446.289062" xlink:href="#DejaVuSans-37"/>
     <use x="509.912109" xlink:href="#DejaVuSans-30"/>
     <use x="573.535156" xlink:href="#DejaVuSans-20"/>
     <use x="605.322266" xlink:href="#DejaVuSans-31"/>
     <use x="668.945312" xlink:href="#DejaVuSans-39"/>
     <use x="732.568359" xlink:href="#DejaVuSans-2e"/>
     <use x="764.355469" xlink:href="#DejaVuSans-36"/>
     <use x="827.978516" xlink:href="#DejaVuSans-b0"/>
    </g>
   </g>
   <g id="text_4">
    <g id="patch_5">
     <path d="M 24.256927 34.278174 
L 26.885557 22.994369 
L 24.961452 22.546137 
L 22.332821 33.829942 
z
" style="fill:#ffffff;"/>
    </g>
    <!-- Bob's 21.6째 -->
    <g style="fill:#4169e1;" transform="translate(23.836895 34.15979)rotate(-76.88648)scale(0.02 -0.02)">
     <defs>
      <path d="M 1259 2228 
L 1259 519 
L 2272 519 
Q 2781 519 3026 730 
Q 3272 941 3272 1375 
Q 3272 1813 3026 2020 
Q 2781 2228 2272 2228 
L 1259 2228 
z
M 1259 4147 
L 1259 2741 
L 2194 2741 
Q 2656 2741 2882 2914 
Q 3109 3088 3109 3444 
Q 3109 3797 2882 3972 
Q 2656 4147 2194 4147 
L 1259 4147 
z
M 628 4666 
L 2241 4666 
Q 2963 4666 3353 4366 
Q 3744 4066 3744 3513 
Q 3744 3084 3544 2831 
Q 3344 2578 2956 2516 
Q 3422 2416 3680 2098 
Q 3938 1781 3938 1306 
Q 3938 681 3513 340 
Q 3088 0 2303 0 
L 628 0 
L 628 4666 
z
" id="DejaVuSans-42" transform="scale(0.015625)"/>
      <path d="M 3116 1747 
Q 3116 2381 2855 2742 
Q 2594 3103 2138 3103 
Q 1681 3103 1420 2742 
Q 1159 2381 1159 1747 
Q 1159 1113 1420 752 
Q 1681 391 2138 391 
Q 2594 391 2855 752 
Q 3116 1113 3116 1747 
z
M 1159 2969 
Q 1341 3281 1617 3432 
Q 1894 3584 2278 3584 
Q 2916 3584 3314 3078 
Q 3713 2572 3713 1747 
Q 3713 922 3314 415 
Q 2916 -91 2278 -91 
Q 1894 -91 1617 61 
Q 1341 213 1159 525 
L 1159 0 
L 581 0 
L 581 4863 
L 1159 4863 
L 1159 2969 
z
" id="DejaVuSans-62" transform="scale(0.015625)"/>
      <path d="M 1228 531 
L 3431 531 
L 3431 0 
L 469 0 
L 469 531 
Q 828 903 1448 1529 
Q 2069 2156 2228 2338 
Q 2531 2678 2651 2914 
Q 2772 3150 2772 3378 
Q 2772 3750 2511 3984 
Q 2250 4219 1831 4219 
Q 1534 4219 1204 4116 
Q 875 4013 500 3803 
L 500 4441 
Q 881 4594 1212 4672 
Q 1544 4750 1819 4750 
Q 2544 4750 2975 4387 
Q 3406 4025 3406 3419 
Q 3406 3131 3298 2873 
Q 3191 2616 2906 2266 
Q 2828 2175 2409 1742 
Q 1991 1309 1228 531 
z
" id="DejaVuSans-32" transform="scale(0.015625)"/>
     </defs>
     <use xlink:href="#DejaVuSans-42"/>
     <use x="68.603516" xlink:href="#DejaVuSans-6f"/>
     <use x="129.785156" xlink:href="#DejaVuSans-62"/>
     <use x="193.261719" xlink:href="#DejaVuSans-27"/>
     <use x="220.751953" xlink:href="#DejaVuSans-73"/>
     <use x="272.851562" xlink:href="#DejaVuSans-20"/>
     <use x="304.638672" xlink:href="#DejaVuSans-32"/>
     <use x="368.261719" xlink:href="#DejaVuSans-31"/>
     <use x="431.884766" xlink:href="#DejaVuSans-2e"/>
     <use x="463.671875" xlink:href="#DejaVuSans-36"/>
     <use x="527.294922" xlink:href="#DejaVuSans-b0"/>
    </g>
   </g>
   <g id="text_5">
    <g id="patch_6">
     <path d="M 31.012647 24.033689 
L 33.345012 40.956531 
L 35.302136 40.686793 
L 32.969772 23.763952 
z
" style="fill:#ffffff;"/>
    </g>
    <!-- EJ's Glades 20.5째 -->
    <g transform="translate(31.447233 23.993982)rotate(-277.847264)scale(0.02 -0.02)">
     <defs>
      <path d="M 628 4666 
L 1259 4666 
L 1259 325 
Q 1259 -519 939 -900 
Q 619 -1281 -91 -1281 
L -331 -1281 
L -331 -750 
L -134 -750 
Q 284 -750 456 -515 
Q 628 -281 628 325 
L 628 4666 
z
" id="DejaVuSans-4a" transform="scale(0.015625)"/>
      <path d="M 3809 666 
L 3809 1919 
L 2778 1919 
L 2778 2438 
L 4434 2438 
L 4434 434 
Q 4069 175 3628 42 
Q 3188 -91 2688 -91 
Q 1594 -91 976 548 
Q 359 1188 359 2328 
Q 359 3472 976 4111 
Q 1594 4750 2688 4750 
Q 3144 4750 3555 4637 
Q 3966 4525 4313 4306 
L 4313 3634 
Q 3963 3931 3569 4081 
Q 3175 4231 2741 4231 
Q 1884 4231 1454 3753 
Q 1025 3275 1025 2328 
Q 1025 1384 1454 906 
Q 1884 428 2741 428 
Q 3075 428 3337 486 
Q 3600 544 3809 666 
z
" id="DejaVuSans-47" transform="scale(0.015625)"/>
      <path d="M 2906 2969 
L 2906 4863 
L 3481 4863 
L 3481 0 
L 2906 0 
L 2906 525 
Q 2725 213 2448 61 
Q 2172 -91 1784 -91 
Q 1150 -91 751 415 
Q 353 922 353 1747 
Q 353 2572 751 3078 
Q 1150 3584 1784 3584 
Q 2172 3584 2448 3432 
Q 2725 3281 2906 2969 
z
M 947 1747 
Q 947 1113 1208 752 
Q 1469 391 1925 391 
Q 2381 391 2643 752 
Q 2906 1113 2906 1747 
Q 2906 2381 2643 2742 
Q 2381 3103 1925 3103 
Q 1469 3103 1208 2742 
Q 947 2381 947 1747 
z
" id="DejaVuSans-64" transform="scale(0.015625)"/>
      <path d="M 3597 1894 
L 3597 1613 
L 953 1613 
Q 991 1019 1311 708 
Q 1631 397 2203 397 
Q 2534 397 2845 478 
Q 3156 559 3463 722 
L 3463 178 
Q 3153 47 2828 -22 
Q 2503 -91 2169 -91 
Q 1331 -91 842 396 
Q 353 884 353 1716 
Q 353 2575 817 3079 
Q 1281 3584 2069 3584 
Q 2775 3584 3186 3129 
Q 3597 2675 3597 1894 
z
M 3022 2063 
Q 3016 2534 2758 2815 
Q 2500 3097 2075 3097 
Q 1594 3097 1305 2825 
Q 1016 2553 972 2059 
L 3022 2063 
z
" id="DejaVuSans-65" transform="scale(0.015625)"/>
      <path d="M 691 4666 
L 3169 4666 
L 3169 4134 
L 1269 4134 
L 1269 2991 
Q 1406 3038 1543 3061 
Q 1681 3084 1819 3084 
Q 2600 3084 3056 2656 
Q 3513 2228 3513 1497 
Q 3513 744 3044 326 
Q 2575 -91 1722 -91 
Q 1428 -91 1123 -41 
Q 819 9 494 109 
L 494 744 
Q 775 591 1075 516 
Q 1375 441 1709 441 
Q 2250 441 2565 725 
Q 2881 1009 2881 1497 
Q 2881 1984 2565 2268 
Q 2250 2553 1709 2553 
Q 1456 2553 1204 2497 
Q 953 2441 691 2322 
L 691 4666 
z
" id="DejaVuSans-35" transform="scale(0.015625)"/>
     </defs>
     <use xlink:href="#DejaVuSans-45"/>
     <use x="63.183594" xlink:href="#DejaVuSans-4a"/>
     <use x="92.675781" xlink:href="#DejaVuSans-27"/>
     <use x="120.166016" xlink:href="#DejaVuSans-73"/>
     <use x="172.265625" xlink:href="#DejaVuSans-20"/>
     <use x="204.052734" xlink:href="#DejaVuSans-47"/>
     <use x="281.542969" xlink:href="#DejaVuSans-6c"/>
     <use x="309.326172" xlink:href="#DejaVuSans-61"/>
     <use x="370.605469" xlink:href="#DejaVuSans-64"/>
     <use x="434.082031" xlink:href="#DejaVuSans-65"/>
     <use x="495.605469" xlink:href="#DejaVuSans-73"/>
     <use x="547.705078" xlink:href="#DejaVuSans-20"/>
     <use x="579.492188" xlink:href="#DejaVuSans-32"/>
     <use x="643.115234" xlink:href="#DejaVuSans-30"/>
     <use x="706.738281" xlink:href="#DejaVuSans-2e"/>
     <use x="738.525391" xlink:href="#DejaVuSans-35"/>
     <use x="802.148438" xlink:href="#DejaVuSans-b0"/>
    </g>
   </g>
   <g id="text_6">
    <!-- Echo Mountain -->
    <g transform="translate(-0.975961 5.241708)scale(0.05 -0.05)">
     <defs>
      <path d="M 3122 3366 
L 3122 2828 
Q 2878 2963 2633 3030 
Q 2388 3097 2138 3097 
Q 1578 3097 1268 2742 
Q 959 2388 959 1747 
Q 959 1106 1268 751 
Q 1578 397 2138 397 
Q 2388 397 2633 464 
Q 2878 531 3122 666 
L 3122 134 
Q 2881 22 2623 -34 
Q 2366 -91 2075 -91 
Q 1284 -91 818 406 
Q 353 903 353 1747 
Q 353 2603 823 3093 
Q 1294 3584 2113 3584 
Q 2378 3584 2631 3529 
Q 2884 3475 3122 3366 
z
" id="DejaVuSans-63" transform="scale(0.015625)"/>
      <path d="M 3513 2113 
L 3513 0 
L 2938 0 
L 2938 2094 
Q 2938 2591 2744 2837 
Q 2550 3084 2163 3084 
Q 1697 3084 1428 2787 
Q 1159 2491 1159 1978 
L 1159 0 
L 581 0 
L 581 4863 
L 1159 4863 
L 1159 2956 
Q 1366 3272 1645 3428 
Q 1925 3584 2291 3584 
Q 2894 3584 3203 3211 
Q 3513 2838 3513 2113 
z
" id="DejaVuSans-68" transform="scale(0.015625)"/>
      <path d="M 628 4666 
L 1569 4666 
L 2759 1491 
L 3956 4666 
L 4897 4666 
L 4897 0 
L 4281 0 
L 4281 4097 
L 3078 897 
L 2444 897 
L 1241 4097 
L 1241 0 
L 628 0 
L 628 4666 
z
" id="DejaVuSans-4d" transform="scale(0.015625)"/>
      <path d="M 544 1381 
L 544 3500 
L 1119 3500 
L 1119 1403 
Q 1119 906 1312 657 
Q 1506 409 1894 409 
Q 2359 409 2629 706 
Q 2900 1003 2900 1516 
L 2900 3500 
L 3475 3500 
L 3475 0 
L 2900 0 
L 2900 538 
Q 2691 219 2414 64 
Q 2138 -91 1772 -91 
Q 1169 -91 856 284 
Q 544 659 544 1381 
z
M 1991 3584 
L 1991 3584 
z
" id="DejaVuSans-75" transform="scale(0.015625)"/>
      <path d="M 1172 4494 
L 1172 3500 
L 2356 3500 
L 2356 3053 
L 1172 3053 
L 1172 1153 
Q 1172 725 1289 603 
Q 1406 481 1766 481 
L 2356 481 
L 2356 0 
L 1766 0 
Q 1100 0 847 248 
Q 594 497 594 1153 
L 594 3053 
L 172 3053 
L 172 3500 
L 594 3500 
L 594 4494 
L 1172 4494 
z
" id="DejaVuSans-74" transform="scale(0.015625)"/>
      <path d="M 603 3500 
L 1178 3500 
L 1178 0 
L 603 0 
L 603 3500 
z
M 603 4863 
L 1178 4863 
L 1178 4134 
L 603 4134 
L 603 4863 
z
" id="DejaVuSans-69" transform="scale(0.015625)"/>
     </defs>
     <use xlink:href="#DejaVuSans-45"/>
     <use x="63.183594" xlink:href="#DejaVuSans-63"/>
     <use x="118.164062" xlink:href="#DejaVuSans-68"/>
     <use x="181.542969" xlink:href="#DejaVuSans-6f"/>
     <use x="242.724609" xlink:href="#DejaVuSans-20"/>
     <use x="274.511719" xlink:href="#DejaVuSans-4d"/>
     <use x="360.791016" xlink:href="#DejaVuSans-6f"/>
     <use x="421.972656" xlink:href="#DejaVuSans-75"/>
     <use x="485.351562" xlink:href="#DejaVuSans-6e"/>
     <use x="548.730469" xlink:href="#DejaVuSans-74"/>
     <use x="587.939453" xlink:href="#DejaVuSans-61"/>
     <use x="649.21875" xlink:href="#DejaVuSans-69"/>
     <use x="677.001953" xlink:href="#DejaVuSans-6e"/>
    </g>
   </g>
  </g>
  <g id="text_7">
   <!-- Sources: USGS and OpenStreetMaps -->
   <g transform="translate(-2.296919 102.445123)scale(0.021739 -0.021739)">
    <defs>
     <path d="M 3425 4513 
L 3425 3897 
Q 3066 4069 2747 4153 
Q 2428 4238 2131 4238 
Q 1616 4238 1336 4038 
Q 1056 3838 1056 3469 
Q 1056 3159 1242 3001 
Q 1428 2844 1947 2747 
L 2328 2669 
Q 3034 2534 3370 2195 
Q 3706 1856 3706 1288 
Q 3706 609 3251 259 
Q 2797 -91 1919 -91 
Q 1588 -91 1214 -16 
Q 841 59 441 206 
L 441 856 
Q 825 641 1194 531 
Q 1563 422 1919 422 
Q 2459 422 2753 634 
Q 3047 847 3047 1241 
Q 3047 1584 2836 1778 
Q 2625 1972 2144 2069 
L 1759 2144 
Q 1053 2284 737 2584 
Q 422 2884 422 3419 
Q 422 4038 858 4394 
Q 1294 4750 2059 4750 
Q 2388 4750 2728 4690 
Q 3069 4631 3425 4513 
z
" id="DejaVuSans-53" transform="scale(0.015625)"/>
     <path d="M 2631 2963 
Q 2534 3019 2420 3045 
Q 2306 3072 2169 3072 
Q 1681 3072 1420 2755 
Q 1159 2438 1159 1844 
L 1159 0 
L 581 0 
L 581 3500 
L 1159 3500 
L 1159 2956 
Q 1341 3275 1631 3429 
Q 1922 3584 2338 3584 
Q 2397 3584 2469 3576 
Q 2541 3569 2628 3553 
L 2631 2963 
z
" id="DejaVuSans-72" transform="scale(0.015625)"/>
     <path d="M 750 794 
L 1409 794 
L 1409 0 
L 750 0 
L 750 794 
z
M 750 3309 
L 1409 3309 
L 1409 2516 
L 750 2516 
L 750 3309 
z
" id="DejaVuSans-3a" transform="scale(0.015625)"/>
     <path d="M 556 4666 
L 1191 4666 
L 1191 1831 
Q 1191 1081 1462 751 
Q 1734 422 2344 422 
Q 2950 422 3222 751 
Q 3494 1081 3494 1831 
L 3494 4666 
L 4128 4666 
L 4128 1753 
Q 4128 841 3676 375 
Q 3225 -91 2344 -91 
Q 1459 -91 1007 375 
Q 556 841 556 1753 
L 556 4666 
z
" id="DejaVuSans-55" transform="scale(0.015625)"/>
     <path d="M 2522 4238 
Q 1834 4238 1429 3725 
Q 1025 3213 1025 2328 
Q 1025 1447 1429 934 
Q 1834 422 2522 422 
Q 3209 422 3611 934 
Q 4013 1447 4013 2328 
Q 4013 3213 3611 3725 
Q 3209 4238 2522 4238 
z
M 2522 4750 
Q 3503 4750 4090 4092 
Q 4678 3434 4678 2328 
Q 4678 1225 4090 567 
Q 3503 -91 2522 -91 
Q 1538 -91 948 565 
Q 359 1222 359 2328 
Q 359 3434 948 4092 
Q 1538 4750 2522 4750 
z
" id="DejaVuSans-4f" transform="scale(0.015625)"/>
     <path d="M 1159 525 
L 1159 -1331 
L 581 -1331 
L 581 3500 
L 1159 3500 
L 1159 2969 
Q 1341 3281 1617 3432 
Q 1894 3584 2278 3584 
Q 2916 3584 3314 3078 
Q 3713 2572 3713 1747 
Q 3713 922 3314 415 
Q 2916 -91 2278 -91 
Q 1894 -91 1617 61 
Q 1341 213 1159 525 
z
M 3116 1747 
Q 3116 2381 2855 2742 
Q 2594 3103 2138 3103 
Q 1681 3103 1420 2742 
Q 1159 2381 1159 1747 
Q 1159 1113 1420 752 
Q 1681 391 2138 391 
Q 2594 391 2855 752 
Q 3116 1113 3116 1747 
z
" id="DejaVuSans-70" transform="scale(0.015625)"/>
    </defs>
    <use xlink:href="#DejaVuSans-53"/>
    <use x="63.476562" xlink:href="#DejaVuSans-6f"/>
    <use x="124.658203" xlink:href="#DejaVuSans-75"/>
    <use x="188.037109" xlink:href="#DejaVuSans-72"/>
    <use x="226.900391" xlink:href="#DejaVuSans-63"/>
    <use x="281.880859" xlink:href="#DejaVuSans-65"/>
    <use x="343.404297" xlink:href="#DejaVuSans-73"/>
    <use x="395.503906" xlink:href="#DejaVuSans-3a"/>
    <use x="429.195312" xlink:href="#DejaVuSans-20"/>
    <use x="460.982422" xlink:href="#DejaVuSans-55"/>
    <use x="534.175781" xlink:href="#DejaVuSans-53"/>
    <use x="597.652344" xlink:href="#DejaVuSans-47"/>
    <use x="675.142578" xlink:href="#DejaVuSans-53"/>
    <use x="738.619141" xlink:href="#DejaVuSans-20"/>
    <use x="770.40625" xlink:href="#DejaVuSans-61"/>
    <use x="831.685547" xlink:href="#DejaVuSans-6e"/>
    <use x="895.064453" xlink:href="#DejaVuSans-64"/>
    <use x="958.541016" xlink:href="#DejaVuSans-20"/>
    <use x="990.328125" xlink:href="#DejaVuSans-4f"/>
    <use x="1069.039062" xlink:href="#DejaVuSans-70"/>
    <use x="1132.515625" xlink:href="#DejaVuSans-65"/>
    <use x="1194.039062" xlink:href="#DejaVuSans-6e"/>
    <use x="1257.417969" xlink:href="#DejaVuSans-53"/>
    <use x="1320.894531" xlink:href="#DejaVuSans-74"/>
    <use x="1360.103516" xlink:href="#DejaVuSans-72"/>
    <use x="1398.966797" xlink:href="#DejaVuSans-65"/>
    <use x="1460.490234" xlink:href="#DejaVuSans-65"/>
    <use x="1522.013672" xlink:href="#DejaVuSans-74"/>
    <use x="1561.222656" xlink:href="#DejaVuSans-4d"/>
    <use x="1647.501953" xlink:href="#DejaVuSans-61"/>
    <use x="1708.78125" xlink:href="#DejaVuSans-70"/>
    <use x="1772.257812" xlink:href="#DejaVuSans-73"/>
   </g>
  </g>
 </g>
 <defs>
  <clipPath id="pa4fcebfee9">
   <rect height="87.413812" width="35.066829" x="0" y="7.741708"/>
  </clipPath>
 </defs>
</svg>
