<?xml version="1.0" encoding="utf-8" standalone="no"?>
<!DOCTYPE svg PUBLIC "-//W3C//DTD SVG 1.1//EN"
  "http://www.w3.org/Graphics/SVG/1.1/DTD/svg11.dtd">
<svg xmlns:xlink="http://www.w3.org/1999/xlink" width="48.742408pt" height="97.589026pt" viewBox="0 0 48.742408 97.589026" xmlns="http://www.w3.org/2000/svg" version="1.1">
 <metadata>
  <rdf:RDF xmlns:dc="http://purl.org/dc/elements/1.1/" xmlns:cc="http://creativecommons.org/ns#" xmlns:rdf="http://www.w3.org/1999/02/22-rdf-syntax-ns#">
   <cc:Work>
    <dc:type rdf:resource="http://purl.org/dc/dcmitype/StillImage"/>
    <dc:date>2022-05-17T22:52:36.510450</dc:date>
    <dc:format>image/svg+xml</dc:format>
    <dc:creator>
     <cc:Agent>
      <dc:title>Matplotlib v3.5.2, https://matplotlib.org/</dc:title>
     </cc:Agent>
    </dc:creator>
   </cc:Work>
  </rdf:RDF>
 </metadata>
 <defs>
  <style type="text/css">*{stroke-linejoin: round; stroke-linecap: butt}</style>
 </defs>
 <g id="figure_1">
  <g id="patch_1">
   <path d="M 0 97.589026 
L 48.742408 97.589026 
L 48.742408 0 
L 0 0 
z
" style="fill: #ffffff"/>
  </g>
  <g id="axes_1">
   <g id="line2d_1">
    <path d="M 45.200752 86.086324 
L 44.811367 82.6906 
L 44.421982 79.294876 
L 44.032597 75.899152 
L 43.643212 72.503428 
L 43.253827 69.107704 
L 42.864442 65.71198 
L 42.475057 62.316256 
L 42.085672 58.920532 
L 41.696287 55.524808 
L 41.306902 52.129084 
L 40.917517 48.73336 
L 40.528132 45.337636 
L 40.138747 41.941912 
L 39.749362 38.546188 
L 39.359977 35.150464 
L 38.970592 31.75474 
" clip-path="url(#p333aed021c)" style="fill: none; stroke: #808080; stroke-width: 0.4; stroke-linecap: square"/>
   </g>
   <g id="line2d_2">
    <path d="M 25.764984 81.54509 
L 24.520317 77.83623 
L 23.275649 74.12737 
L 22.030982 70.41851 
L 20.786315 66.709651 
L 19.541648 63.000791 
L 18.296981 59.291931 
L 17.052313 55.583071 
L 15.807646 51.874212 
L 14.562979 48.165352 
L 13.318312 44.456492 
L 12.073645 40.747633 
L 10.828978 37.038773 
L 9.58431 33.329913 
L 8.339643 29.621053 
L 7.094976 25.912194 
L 5.850309 22.203334 
" clip-path="url(#p333aed021c)" style="fill: none; stroke: #808080; stroke-width: 0.4; stroke-linecap: square"/>
   </g>
   <g id="line2d_3">
    <path d="M 44.28224 57.661385 
L 44.251671 53.354854 
L 44.221103 49.048324 
L 44.190534 44.741794 
L 44.159966 40.435264 
" clip-path="url(#p333aed021c)" style="fill: none; stroke: #808080; stroke-width: 0.4; stroke-linecap: square"/>
   </g>
   <g id="line2d_4">
    <path d="M 41.126402 38.668966 
L 41.007312 39.65726 
L 40.888222 40.645554 
L 40.769132 41.633848 
L 40.650042 42.622142 
L 40.530952 43.610436 
L 40.411863 44.59873 
L 40.292773 45.587024 
L 40.173683 46.575318 
L 40.054593 47.563613 
L 39.935503 48.551907 
L 39.816413 49.540201 
L 39.697323 50.528495 
L 39.578233 51.516789 
L 39.459143 52.505083 
L 39.340053 53.493377 
L 39.220963 54.481671 
L 38.670184 55.919206 
L 38.119404 57.356741 
L 37.568625 58.794275 
L 37.017845 60.23181 
L 36.467065 61.669345 
L 35.916286 63.10688 
L 35.365506 64.544414 
L 34.814727 65.981949 
L 34.263947 67.419484 
L 33.713168 68.857019 
L 33.162388 70.294553 
L 32.611609 71.732088 
L 32.060829 73.169623 
L 31.510049 74.607158 
L 30.95927 76.044692 
L 30.40849 77.482227 
" clip-path="url(#p333aed021c)" style="fill: none; stroke: #008000; stroke-width: 0.4; stroke-linecap: square"/>
   </g>
   <g id="line2d_5">
    <path d="M 42.659196 39.571929 
L 42.623351 41.099276 
L 42.587505 42.626624 
L 42.55166 44.153971 
L 42.515815 45.681319 
L 42.47997 47.208666 
L 42.444124 48.736014 
L 42.408279 50.263361 
L 42.372434 51.790709 
L 42.473965 52.874536 
L 42.575496 53.958363 
L 42.677028 55.04219 
L 42.778559 56.126017 
L 42.88009 57.209844 
L 42.981621 58.293671 
L 43.083152 59.377498 
L 43.184684 60.461325 
L 43.286215 61.545152 
L 43.387746 62.628979 
L 43.489277 63.712806 
L 43.590809 64.796633 
L 43.69234 65.88046 
L 43.793871 66.964287 
L 43.895402 68.048114 
L 43.996933 69.131941 
L 43.836267 70.672144 
L 43.6756 72.212348 
L 43.514933 73.752551 
L 43.354266 75.292754 
L 43.1936 76.832957 
L 43.032933 78.37316 
L 42.872266 79.913363 
L 42.711599 81.453567 
" clip-path="url(#p333aed021c)" style="fill: none; stroke: #008000; stroke-width: 0.4; stroke-linecap: square"/>
   </g>
   <g id="line2d_6">
    <path d="M 46.122175 41.424088 
L 46.152197 42.968773 
L 46.18222 44.513458 
L 46.212243 46.058143 
L 46.242265 47.602828 
L 46.272288 49.147513 
L 46.302311 50.692198 
L 46.332333 52.236883 
L 46.362356 53.781568 
L 46.382917 54.835025 
L 46.403478 55.888482 
L 46.424039 56.941939 
L 46.4446 57.995396 
L 46.465161 59.048853 
L 46.485722 60.10231 
L 46.506283 61.155767 
L 46.526844 62.209224 
" clip-path="url(#p333aed021c)" style="fill: none; stroke: #008000; stroke-width: 0.4; stroke-linecap: square"/>
   </g>
   <g id="line2d_7">
    <path d="M 6.112325 19.504824 
L 6.229504 17.970635 
L 6.346684 16.436447 
L 7.14001 15.08389 
L 7.933336 13.731332 
L 9.469769 13.063309 
L 11.006202 12.395286 
L 12.070279 12.17214 
L 13.134355 11.948994 
L 14.198431 11.725848 
L 15.262507 11.502702 
L 16.330587 11.669708 
L 17.398666 11.836713 
L 18.466745 12.003719 
L 19.534824 12.170725 
L 20.611274 12.76987 
L 21.687723 13.369015 
L 22.764172 13.968159 
L 23.840621 14.567304 
L 24.720923 15.46437 
L 25.601224 16.361436 
L 26.481525 17.258502 
L 27.361826 18.155568 
L 27.874577 19.09297 
L 28.387328 20.030373 
L 28.900078 20.967775 
L 29.412829 21.905177 
L 31.274599 22.460919 
L 33.136368 23.016661 
L 33.773941 23.781868 
L 34.411513 24.547075 
L 35.049086 25.312282 
L 35.686658 26.077489 
L 36.164109 27.088487 
L 36.641561 28.099485 
L 37.119012 29.110483 
L 37.596464 30.121481 
" clip-path="url(#p333aed021c)" style="fill: none; stroke: #008000; stroke-width: 0.4; stroke-linecap: square"/>
   </g>
   <g id="line2d_8">
    <path d="M 9.477775 23.379922 
L 10.866096 23.479347 
L 12.254418 23.578772 
L 13.642739 23.678197 
L 15.03106 23.777622 
L 16.419381 23.877047 
L 17.807702 23.976472 
L 19.196023 24.075897 
L 20.584344 24.175322 
L 21.59256 23.911369 
L 22.600776 23.647415 
L 23.608992 23.383461 
L 24.617208 23.119507 
L 25.625424 22.855553 
L 26.63364 22.591599 
L 27.641856 22.327645 
L 28.650072 22.063691 
" clip-path="url(#p333aed021c)" style="fill: none; stroke: #008000; stroke-width: 0.4; stroke-linecap: square"/>
   </g>
   <g id="line2d_9">
    <path d="M 22.163719 25.090552 
L 23.185217 26.341148 
L 24.206716 27.591745 
L 25.228215 28.842342 
L 26.249713 30.092939 
L 27.271212 31.343536 
L 28.292711 32.594133 
L 29.314209 33.84473 
L 30.335708 35.095326 
L 31.357207 36.345923 
L 32.378705 37.59652 
L 33.400204 38.847117 
L 34.421703 40.097714 
L 35.443201 41.348311 
L 36.4647 42.598908 
L 37.486199 43.849504 
L 38.507697 45.100101 
" clip-path="url(#p333aed021c)" style="fill: none; stroke: #008000; stroke-width: 0.4; stroke-linecap: square"/>
   </g>
   <g id="line2d_10">
    <path d="M 7.733913 22.797761 
L 8.343055 24.508774 
L 8.952197 26.219786 
L 9.561338 27.930799 
L 10.17048 29.641811 
L 10.779622 31.352824 
L 11.388764 33.063836 
L 11.997906 34.774849 
L 12.607048 36.485861 
L 13.216189 38.196874 
L 13.825331 39.907886 
L 14.434473 41.618899 
L 15.043615 43.329911 
L 15.652757 45.040924 
L 16.261898 46.751936 
L 16.87104 48.462949 
L 17.480182 50.173961 
L 18.089324 51.884974 
L 18.698466 53.595986 
L 19.307607 55.306999 
L 19.916749 57.018012 
L 20.525891 58.729024 
L 21.135033 60.440037 
L 21.744175 62.151049 
L 22.353317 63.862062 
L 22.962458 65.573074 
L 23.5716 67.284087 
L 24.180742 68.995099 
L 24.789884 70.706112 
L 25.399026 72.417124 
L 26.008167 74.128137 
L 26.617309 75.839149 
L 27.226451 77.550162 
" clip-path="url(#p333aed021c)" style="fill: none; stroke: #4169e1; stroke-width: 0.4; stroke-linecap: square"/>
   </g>
   <g id="line2d_11">
    <path d="M 12.520073 26.679465 
L 13.286834 27.756038 
L 14.053594 28.832612 
L 14.820355 29.909186 
L 15.587116 30.985759 
L 16.353877 32.062333 
L 17.120638 33.138906 
L 17.887399 34.21548 
L 18.654159 35.292053 
L 19.245606 36.745275 
L 19.837053 38.198496 
L 20.428499 39.651717 
L 21.019946 41.104938 
L 21.611393 42.558159 
L 22.202839 44.01138 
L 22.794286 45.464601 
L 23.385732 46.917822 
L 23.977179 48.371043 
L 24.568626 49.824264 
L 25.160072 51.277485 
L 25.751519 52.730706 
L 26.342966 54.183927 
L 26.934412 55.637148 
L 27.525859 57.090369 
L 28.117306 58.54359 
L 28.454287 59.948396 
L 28.791269 61.353202 
L 29.128251 62.758008 
L 29.465233 64.162813 
L 29.802214 65.567619 
L 30.139196 66.972425 
L 30.476178 68.377231 
L 30.81316 69.782037 
" clip-path="url(#p333aed021c)" style="fill: none; stroke: #008000; stroke-width: 0.4; stroke-linecap: square"/>
   </g>
   <g id="line2d_12">
    <path d="M 7.126909 33.785228 
L 7.402026 35.26988 
L 7.677143 36.754533 
L 7.95226 38.239185 
L 8.227377 39.723838 
L 8.752864 41.098805 
L 9.278352 42.473771 
L 9.80384 43.848738 
L 10.329327 45.223704 
L 10.413755 46.33224 
L 10.498182 47.440776 
L 10.58261 48.549312 
L 10.667037 49.657848 
L 10.751464 50.766384 
L 10.835892 51.874919 
L 10.920319 52.983455 
L 11.004747 54.091991 
L 11.089174 55.200527 
L 11.173601 56.309063 
L 11.258029 57.417599 
L 11.342456 58.526135 
L 11.426884 59.63467 
L 11.511311 60.743206 
L 11.595738 61.851742 
L 11.680166 62.960278 
L 12.031704 64.057609 
L 12.383242 65.154941 
L 13.084863 65.872027 
L 13.786484 66.589114 
L 14.73702 67.226708 
L 15.687556 67.864302 
L 16.638092 68.501896 
L 17.588628 69.13949 
L 18.269869 70.197664 
L 18.951111 71.255839 
L 19.162907 73.124982 
L 19.374704 74.994125 
" clip-path="url(#p333aed021c)" style="fill: none; stroke: #4169e1; stroke-width: 0.4; stroke-linecap: square"/>
   </g>
   <g id="line2d_13">
    <path d="M 4.613011 62.847997 
L 5.118483 64.425588 
L 5.623956 66.003179 
L 6.129429 67.580769 
L 6.634901 69.15836 
L 7.426226 69.825911 
L 8.217551 70.493462 
L 9.008876 71.161014 
L 9.800201 71.828565 
L 10.591525 72.496116 
L 11.38285 73.163667 
L 12.174175 73.831218 
L 12.9655 74.498769 
L 13.756825 75.16632 
L 14.54815 75.833871 
L 15.339475 76.501422 
L 16.130799 77.168974 
L 16.922124 77.836525 
L 17.713449 78.504076 
L 18.504774 79.171627 
L 19.296099 79.839178 
" clip-path="url(#p333aed021c)" style="fill: none; stroke: #4169e1; stroke-width: 0.4; stroke-linecap: square"/>
   </g>
   <g id="line2d_14">
    <path d="M 2.215564 31.098983 
L 2.327103 32.71178 
L 2.438642 34.324576 
L 2.55018 35.937373 
L 2.661719 37.550169 
L 2.773258 39.162965 
L 2.884797 40.775762 
L 2.996335 42.388558 
L 3.107874 44.001355 
L 3.219413 45.614151 
L 3.330952 47.226947 
L 3.442491 48.839744 
L 3.554029 50.45254 
L 3.665568 52.065337 
L 3.777107 53.678133 
L 3.888646 55.290929 
L 4.000184 56.903726 
" clip-path="url(#p333aed021c)" style="fill: none; stroke: #4169e1; stroke-width: 0.4; stroke-linecap: square"/>
   </g>
   <g id="text_1">
    <g id="patch_2">
     <path d="M 41.075537 58.656869 
L 41.125617 59.330635 
L 43.095807 59.184196 
L 43.045727 58.510429 
z
" style="fill: #ffffff"/>
    </g>
    <!--   -->
    <g style="fill: #808080" transform="translate(41.511758 58.644501)rotate(-274.250835)scale(0.02 -0.02)">
     <defs>
      <path id="DejaVuSans-20" transform="scale(0.015625)"/>
     </defs>
     <use xlink:href="#DejaVuSans-20"/>
    </g>
   </g>
   <g id="text_2">
    <g id="patch_3">
     <path d="M 14.770602 51.754086 
L 14.914211 52.414272 
L 16.84469 51.994338 
L 16.701081 51.334152 
z
" style="fill: #ffffff"/>
    </g>
    <!--   -->
    <g style="fill: #808080" transform="translate(15.200829 51.680967)rotate(-282.272262)scale(0.02 -0.02)">
     <use xlink:href="#DejaVuSans-20"/>
    </g>
   </g>
   <g id="text_3">
    <g id="patch_4">
     <path d="M 40.543969 53.983558 
L 41.534842 41.297509 
L 39.565216 41.143667 
L 38.574343 53.829716 
z
" style="fill: #ffffff"/>
    </g>
    <!-- Yarrow 14.2° -->
    <g style="fill: #008000" transform="translate(40.110913 53.929672)rotate(-85.53385)scale(0.02 -0.02)">
     <defs>
      <path id="DejaVuSans-59" d="M -13 4666 
L 666 4666 
L 1959 2747 
L 3244 4666 
L 3922 4666 
L 2272 2222 
L 2272 0 
L 1638 0 
L 1638 2222 
L -13 4666 
z
" transform="scale(0.015625)"/>
      <path id="DejaVuSans-61" d="M 2194 1759 
Q 1497 1759 1228 1600 
Q 959 1441 959 1056 
Q 959 750 1161 570 
Q 1363 391 1709 391 
Q 2188 391 2477 730 
Q 2766 1069 2766 1631 
L 2766 1759 
L 2194 1759 
z
M 3341 1997 
L 3341 0 
L 2766 0 
L 2766 531 
Q 2569 213 2275 61 
Q 1981 -91 1556 -91 
Q 1019 -91 701 211 
Q 384 513 384 1019 
Q 384 1609 779 1909 
Q 1175 2209 1959 2209 
L 2766 2209 
L 2766 2266 
Q 2766 2663 2505 2880 
Q 2244 3097 1772 3097 
Q 1472 3097 1187 3025 
Q 903 2953 641 2809 
L 641 3341 
Q 956 3463 1253 3523 
Q 1550 3584 1831 3584 
Q 2591 3584 2966 3190 
Q 3341 2797 3341 1997 
z
" transform="scale(0.015625)"/>
      <path id="DejaVuSans-72" d="M 2631 2963 
Q 2534 3019 2420 3045 
Q 2306 3072 2169 3072 
Q 1681 3072 1420 2755 
Q 1159 2438 1159 1844 
L 1159 0 
L 581 0 
L 581 3500 
L 1159 3500 
L 1159 2956 
Q 1341 3275 1631 3429 
Q 1922 3584 2338 3584 
Q 2397 3584 2469 3576 
Q 2541 3569 2628 3553 
L 2631 2963 
z
" transform="scale(0.015625)"/>
      <path id="DejaVuSans-6f" d="M 1959 3097 
Q 1497 3097 1228 2736 
Q 959 2375 959 1747 
Q 959 1119 1226 758 
Q 1494 397 1959 397 
Q 2419 397 2687 759 
Q 2956 1122 2956 1747 
Q 2956 2369 2687 2733 
Q 2419 3097 1959 3097 
z
M 1959 3584 
Q 2709 3584 3137 3096 
Q 3566 2609 3566 1747 
Q 3566 888 3137 398 
Q 2709 -91 1959 -91 
Q 1206 -91 779 398 
Q 353 888 353 1747 
Q 353 2609 779 3096 
Q 1206 3584 1959 3584 
z
" transform="scale(0.015625)"/>
      <path id="DejaVuSans-77" d="M 269 3500 
L 844 3500 
L 1563 769 
L 2278 3500 
L 2956 3500 
L 3675 769 
L 4391 3500 
L 4966 3500 
L 4050 0 
L 3372 0 
L 2619 2869 
L 1863 0 
L 1184 0 
L 269 3500 
z
" transform="scale(0.015625)"/>
      <path id="DejaVuSans-31" d="M 794 531 
L 1825 531 
L 1825 4091 
L 703 3866 
L 703 4441 
L 1819 4666 
L 2450 4666 
L 2450 531 
L 3481 531 
L 3481 0 
L 794 0 
L 794 531 
z
" transform="scale(0.015625)"/>
      <path id="DejaVuSans-34" d="M 2419 4116 
L 825 1625 
L 2419 1625 
L 2419 4116 
z
M 2253 4666 
L 3047 4666 
L 3047 1625 
L 3713 1625 
L 3713 1100 
L 3047 1100 
L 3047 0 
L 2419 0 
L 2419 1100 
L 313 1100 
L 313 1709 
L 2253 4666 
z
" transform="scale(0.015625)"/>
      <path id="DejaVuSans-2e" d="M 684 794 
L 1344 794 
L 1344 0 
L 684 0 
L 684 794 
z
" transform="scale(0.015625)"/>
      <path id="DejaVuSans-32" d="M 1228 531 
L 3431 531 
L 3431 0 
L 469 0 
L 469 531 
Q 828 903 1448 1529 
Q 2069 2156 2228 2338 
Q 2531 2678 2651 2914 
Q 2772 3150 2772 3378 
Q 2772 3750 2511 3984 
Q 2250 4219 1831 4219 
Q 1534 4219 1204 4116 
Q 875 4013 500 3803 
L 500 4441 
Q 881 4594 1212 4672 
Q 1544 4750 1819 4750 
Q 2544 4750 2975 4387 
Q 3406 4025 3406 3419 
Q 3406 3131 3298 2873 
Q 3191 2616 2906 2266 
Q 2828 2175 2409 1742 
Q 1991 1309 1228 531 
z
" transform="scale(0.015625)"/>
      <path id="DejaVuSans-b0" d="M 1600 4347 
Q 1350 4347 1178 4173 
Q 1006 4000 1006 3750 
Q 1006 3503 1178 3333 
Q 1350 3163 1600 3163 
Q 1850 3163 2022 3333 
Q 2194 3503 2194 3750 
Q 2194 3997 2020 4172 
Q 1847 4347 1600 4347 
z
M 1600 4750 
Q 1800 4750 1984 4673 
Q 2169 4597 2303 4453 
Q 2447 4313 2519 4134 
Q 2591 3956 2591 3750 
Q 2591 3338 2302 3052 
Q 2013 2766 1594 2766 
Q 1172 2766 890 3047 
Q 609 3328 609 3750 
Q 609 4169 896 4459 
Q 1184 4750 1600 4750 
z
" transform="scale(0.015625)"/>
     </defs>
     <use xlink:href="#DejaVuSans-59"/>
     <use xlink:href="#DejaVuSans-61" x="47.333984"/>
     <use xlink:href="#DejaVuSans-72" x="108.613281"/>
     <use xlink:href="#DejaVuSans-72" x="147.976562"/>
     <use xlink:href="#DejaVuSans-6f" x="186.839844"/>
     <use xlink:href="#DejaVuSans-77" x="248.021484"/>
     <use xlink:href="#DejaVuSans-20" x="329.808594"/>
     <use xlink:href="#DejaVuSans-31" x="361.595703"/>
     <use xlink:href="#DejaVuSans-34" x="425.21875"/>
     <use xlink:href="#DejaVuSans-2e" x="488.841797"/>
     <use xlink:href="#DejaVuSans-32" x="520.628906"/>
     <use xlink:href="#DejaVuSans-b0" x="584.251953"/>
    </g>
   </g>
   <g id="text_4">
    <g id="patch_5">
     <path d="M 41.009313 43.875083 
L 42.37275 66.329039 
L 44.344743 66.209297 
L 42.981305 43.755341 
z
" style="fill: #ffffff"/>
    </g>
    <!-- Old Man's Beard 14.7° -->
    <g style="fill: #008000" transform="translate(41.445661 43.868624)rotate(-273.474818)scale(0.02 -0.02)">
     <defs>
      <path id="DejaVuSans-4f" d="M 2522 4238 
Q 1834 4238 1429 3725 
Q 1025 3213 1025 2328 
Q 1025 1447 1429 934 
Q 1834 422 2522 422 
Q 3209 422 3611 934 
Q 4013 1447 4013 2328 
Q 4013 3213 3611 3725 
Q 3209 4238 2522 4238 
z
M 2522 4750 
Q 3503 4750 4090 4092 
Q 4678 3434 4678 2328 
Q 4678 1225 4090 567 
Q 3503 -91 2522 -91 
Q 1538 -91 948 565 
Q 359 1222 359 2328 
Q 359 3434 948 4092 
Q 1538 4750 2522 4750 
z
" transform="scale(0.015625)"/>
      <path id="DejaVuSans-6c" d="M 603 4863 
L 1178 4863 
L 1178 0 
L 603 0 
L 603 4863 
z
" transform="scale(0.015625)"/>
      <path id="DejaVuSans-64" d="M 2906 2969 
L 2906 4863 
L 3481 4863 
L 3481 0 
L 2906 0 
L 2906 525 
Q 2725 213 2448 61 
Q 2172 -91 1784 -91 
Q 1150 -91 751 415 
Q 353 922 353 1747 
Q 353 2572 751 3078 
Q 1150 3584 1784 3584 
Q 2172 3584 2448 3432 
Q 2725 3281 2906 2969 
z
M 947 1747 
Q 947 1113 1208 752 
Q 1469 391 1925 391 
Q 2381 391 2643 752 
Q 2906 1113 2906 1747 
Q 2906 2381 2643 2742 
Q 2381 3103 1925 3103 
Q 1469 3103 1208 2742 
Q 947 2381 947 1747 
z
" transform="scale(0.015625)"/>
      <path id="DejaVuSans-4d" d="M 628 4666 
L 1569 4666 
L 2759 1491 
L 3956 4666 
L 4897 4666 
L 4897 0 
L 4281 0 
L 4281 4097 
L 3078 897 
L 2444 897 
L 1241 4097 
L 1241 0 
L 628 0 
L 628 4666 
z
" transform="scale(0.015625)"/>
      <path id="DejaVuSans-6e" d="M 3513 2113 
L 3513 0 
L 2938 0 
L 2938 2094 
Q 2938 2591 2744 2837 
Q 2550 3084 2163 3084 
Q 1697 3084 1428 2787 
Q 1159 2491 1159 1978 
L 1159 0 
L 581 0 
L 581 3500 
L 1159 3500 
L 1159 2956 
Q 1366 3272 1645 3428 
Q 1925 3584 2291 3584 
Q 2894 3584 3203 3211 
Q 3513 2838 3513 2113 
z
" transform="scale(0.015625)"/>
      <path id="DejaVuSans-27" d="M 1147 4666 
L 1147 2931 
L 616 2931 
L 616 4666 
L 1147 4666 
z
" transform="scale(0.015625)"/>
      <path id="DejaVuSans-73" d="M 2834 3397 
L 2834 2853 
Q 2591 2978 2328 3040 
Q 2066 3103 1784 3103 
Q 1356 3103 1142 2972 
Q 928 2841 928 2578 
Q 928 2378 1081 2264 
Q 1234 2150 1697 2047 
L 1894 2003 
Q 2506 1872 2764 1633 
Q 3022 1394 3022 966 
Q 3022 478 2636 193 
Q 2250 -91 1575 -91 
Q 1294 -91 989 -36 
Q 684 19 347 128 
L 347 722 
Q 666 556 975 473 
Q 1284 391 1588 391 
Q 1994 391 2212 530 
Q 2431 669 2431 922 
Q 2431 1156 2273 1281 
Q 2116 1406 1581 1522 
L 1381 1569 
Q 847 1681 609 1914 
Q 372 2147 372 2553 
Q 372 3047 722 3315 
Q 1072 3584 1716 3584 
Q 2034 3584 2315 3537 
Q 2597 3491 2834 3397 
z
" transform="scale(0.015625)"/>
      <path id="DejaVuSans-42" d="M 1259 2228 
L 1259 519 
L 2272 519 
Q 2781 519 3026 730 
Q 3272 941 3272 1375 
Q 3272 1813 3026 2020 
Q 2781 2228 2272 2228 
L 1259 2228 
z
M 1259 4147 
L 1259 2741 
L 2194 2741 
Q 2656 2741 2882 2914 
Q 3109 3088 3109 3444 
Q 3109 3797 2882 3972 
Q 2656 4147 2194 4147 
L 1259 4147 
z
M 628 4666 
L 2241 4666 
Q 2963 4666 3353 4366 
Q 3744 4066 3744 3513 
Q 3744 3084 3544 2831 
Q 3344 2578 2956 2516 
Q 3422 2416 3680 2098 
Q 3938 1781 3938 1306 
Q 3938 681 3513 340 
Q 3088 0 2303 0 
L 628 0 
L 628 4666 
z
" transform="scale(0.015625)"/>
      <path id="DejaVuSans-65" d="M 3597 1894 
L 3597 1613 
L 953 1613 
Q 991 1019 1311 708 
Q 1631 397 2203 397 
Q 2534 397 2845 478 
Q 3156 559 3463 722 
L 3463 178 
Q 3153 47 2828 -22 
Q 2503 -91 2169 -91 
Q 1331 -91 842 396 
Q 353 884 353 1716 
Q 353 2575 817 3079 
Q 1281 3584 2069 3584 
Q 2775 3584 3186 3129 
Q 3597 2675 3597 1894 
z
M 3022 2063 
Q 3016 2534 2758 2815 
Q 2500 3097 2075 3097 
Q 1594 3097 1305 2825 
Q 1016 2553 972 2059 
L 3022 2063 
z
" transform="scale(0.015625)"/>
      <path id="DejaVuSans-37" d="M 525 4666 
L 3525 4666 
L 3525 4397 
L 1831 0 
L 1172 0 
L 2766 4134 
L 525 4134 
L 525 4666 
z
" transform="scale(0.015625)"/>
     </defs>
     <use xlink:href="#DejaVuSans-4f"/>
     <use xlink:href="#DejaVuSans-6c" x="78.710938"/>
     <use xlink:href="#DejaVuSans-64" x="106.494141"/>
     <use xlink:href="#DejaVuSans-20" x="169.970703"/>
     <use xlink:href="#DejaVuSans-4d" x="201.757812"/>
     <use xlink:href="#DejaVuSans-61" x="288.037109"/>
     <use xlink:href="#DejaVuSans-6e" x="349.316406"/>
     <use xlink:href="#DejaVuSans-27" x="412.695312"/>
     <use xlink:href="#DejaVuSans-73" x="440.185547"/>
     <use xlink:href="#DejaVuSans-20" x="492.285156"/>
     <use xlink:href="#DejaVuSans-42" x="524.072266"/>
     <use xlink:href="#DejaVuSans-65" x="592.675781"/>
     <use xlink:href="#DejaVuSans-61" x="654.199219"/>
     <use xlink:href="#DejaVuSans-72" x="715.478516"/>
     <use xlink:href="#DejaVuSans-64" x="754.841797"/>
     <use xlink:href="#DejaVuSans-20" x="818.318359"/>
     <use xlink:href="#DejaVuSans-31" x="850.105469"/>
     <use xlink:href="#DejaVuSans-34" x="913.728516"/>
     <use xlink:href="#DejaVuSans-2e" x="977.351562"/>
     <use xlink:href="#DejaVuSans-37" x="1009.138672"/>
     <use xlink:href="#DejaVuSans-b0" x="1072.761719"/>
    </g>
   </g>
   <g id="text_5">
    <g id="patch_6">
     <path d="M 7.109809 10.189628 
L 31.496556 16.072359 
L 31.95984 14.151822 
L 7.573093 8.269091 
z
" style="fill: #ffffff"/>
    </g>
    <!-- Appleton Meadows 12.4° -->
    <g style="fill: #008000" transform="translate(7.231479 9.770536)rotate(-346.437835)scale(0.02 -0.02)">
     <defs>
      <path id="DejaVuSans-41" d="M 2188 4044 
L 1331 1722 
L 3047 1722 
L 2188 4044 
z
M 1831 4666 
L 2547 4666 
L 4325 0 
L 3669 0 
L 3244 1197 
L 1141 1197 
L 716 0 
L 50 0 
L 1831 4666 
z
" transform="scale(0.015625)"/>
      <path id="DejaVuSans-70" d="M 1159 525 
L 1159 -1331 
L 581 -1331 
L 581 3500 
L 1159 3500 
L 1159 2969 
Q 1341 3281 1617 3432 
Q 1894 3584 2278 3584 
Q 2916 3584 3314 3078 
Q 3713 2572 3713 1747 
Q 3713 922 3314 415 
Q 2916 -91 2278 -91 
Q 1894 -91 1617 61 
Q 1341 213 1159 525 
z
M 3116 1747 
Q 3116 2381 2855 2742 
Q 2594 3103 2138 3103 
Q 1681 3103 1420 2742 
Q 1159 2381 1159 1747 
Q 1159 1113 1420 752 
Q 1681 391 2138 391 
Q 2594 391 2855 752 
Q 3116 1113 3116 1747 
z
" transform="scale(0.015625)"/>
      <path id="DejaVuSans-74" d="M 1172 4494 
L 1172 3500 
L 2356 3500 
L 2356 3053 
L 1172 3053 
L 1172 1153 
Q 1172 725 1289 603 
Q 1406 481 1766 481 
L 2356 481 
L 2356 0 
L 1766 0 
Q 1100 0 847 248 
Q 594 497 594 1153 
L 594 3053 
L 172 3053 
L 172 3500 
L 594 3500 
L 594 4494 
L 1172 4494 
z
" transform="scale(0.015625)"/>
     </defs>
     <use xlink:href="#DejaVuSans-41"/>
     <use xlink:href="#DejaVuSans-70" x="68.408203"/>
     <use xlink:href="#DejaVuSans-70" x="131.884766"/>
     <use xlink:href="#DejaVuSans-6c" x="195.361328"/>
     <use xlink:href="#DejaVuSans-65" x="223.144531"/>
     <use xlink:href="#DejaVuSans-74" x="284.667969"/>
     <use xlink:href="#DejaVuSans-6f" x="323.876953"/>
     <use xlink:href="#DejaVuSans-6e" x="385.058594"/>
     <use xlink:href="#DejaVuSans-20" x="448.4375"/>
     <use xlink:href="#DejaVuSans-4d" x="480.224609"/>
     <use xlink:href="#DejaVuSans-65" x="566.503906"/>
     <use xlink:href="#DejaVuSans-61" x="628.027344"/>
     <use xlink:href="#DejaVuSans-64" x="689.306641"/>
     <use xlink:href="#DejaVuSans-6f" x="752.783203"/>
     <use xlink:href="#DejaVuSans-77" x="813.964844"/>
     <use xlink:href="#DejaVuSans-73" x="895.751953"/>
     <use xlink:href="#DejaVuSans-20" x="947.851562"/>
     <use xlink:href="#DejaVuSans-31" x="979.638672"/>
     <use xlink:href="#DejaVuSans-32" x="1043.261719"/>
     <use xlink:href="#DejaVuSans-2e" x="1106.884766"/>
     <use xlink:href="#DejaVuSans-34" x="1138.671875"/>
     <use xlink:href="#DejaVuSans-b0" x="1202.294922"/>
    </g>
   </g>
   <g id="text_6">
    <g id="patch_7">
     <path d="M 9.406665 27.010336 
L 13.882396 46.405615 
L 15.80743 45.961387 
L 11.331699 26.566108 
z
" style="fill: #ffffff"/>
    </g>
    <!-- Prairie Smoke 18.7° -->
    <g style="fill: #4169e1" transform="translate(9.835936 26.931801)rotate(-282.994328)scale(0.02 -0.02)">
     <defs>
      <path id="DejaVuSans-50" d="M 1259 4147 
L 1259 2394 
L 2053 2394 
Q 2494 2394 2734 2622 
Q 2975 2850 2975 3272 
Q 2975 3691 2734 3919 
Q 2494 4147 2053 4147 
L 1259 4147 
z
M 628 4666 
L 2053 4666 
Q 2838 4666 3239 4311 
Q 3641 3956 3641 3272 
Q 3641 2581 3239 2228 
Q 2838 1875 2053 1875 
L 1259 1875 
L 1259 0 
L 628 0 
L 628 4666 
z
" transform="scale(0.015625)"/>
      <path id="DejaVuSans-69" d="M 603 3500 
L 1178 3500 
L 1178 0 
L 603 0 
L 603 3500 
z
M 603 4863 
L 1178 4863 
L 1178 4134 
L 603 4134 
L 603 4863 
z
" transform="scale(0.015625)"/>
      <path id="DejaVuSans-53" d="M 3425 4513 
L 3425 3897 
Q 3066 4069 2747 4153 
Q 2428 4238 2131 4238 
Q 1616 4238 1336 4038 
Q 1056 3838 1056 3469 
Q 1056 3159 1242 3001 
Q 1428 2844 1947 2747 
L 2328 2669 
Q 3034 2534 3370 2195 
Q 3706 1856 3706 1288 
Q 3706 609 3251 259 
Q 2797 -91 1919 -91 
Q 1588 -91 1214 -16 
Q 841 59 441 206 
L 441 856 
Q 825 641 1194 531 
Q 1563 422 1919 422 
Q 2459 422 2753 634 
Q 3047 847 3047 1241 
Q 3047 1584 2836 1778 
Q 2625 1972 2144 2069 
L 1759 2144 
Q 1053 2284 737 2584 
Q 422 2884 422 3419 
Q 422 4038 858 4394 
Q 1294 4750 2059 4750 
Q 2388 4750 2728 4690 
Q 3069 4631 3425 4513 
z
" transform="scale(0.015625)"/>
      <path id="DejaVuSans-6d" d="M 3328 2828 
Q 3544 3216 3844 3400 
Q 4144 3584 4550 3584 
Q 5097 3584 5394 3201 
Q 5691 2819 5691 2113 
L 5691 0 
L 5113 0 
L 5113 2094 
Q 5113 2597 4934 2840 
Q 4756 3084 4391 3084 
Q 3944 3084 3684 2787 
Q 3425 2491 3425 1978 
L 3425 0 
L 2847 0 
L 2847 2094 
Q 2847 2600 2669 2842 
Q 2491 3084 2119 3084 
Q 1678 3084 1418 2786 
Q 1159 2488 1159 1978 
L 1159 0 
L 581 0 
L 581 3500 
L 1159 3500 
L 1159 2956 
Q 1356 3278 1631 3431 
Q 1906 3584 2284 3584 
Q 2666 3584 2933 3390 
Q 3200 3197 3328 2828 
z
" transform="scale(0.015625)"/>
      <path id="DejaVuSans-6b" d="M 581 4863 
L 1159 4863 
L 1159 1991 
L 2875 3500 
L 3609 3500 
L 1753 1863 
L 3688 0 
L 2938 0 
L 1159 1709 
L 1159 0 
L 581 0 
L 581 4863 
z
" transform="scale(0.015625)"/>
      <path id="DejaVuSans-38" d="M 2034 2216 
Q 1584 2216 1326 1975 
Q 1069 1734 1069 1313 
Q 1069 891 1326 650 
Q 1584 409 2034 409 
Q 2484 409 2743 651 
Q 3003 894 3003 1313 
Q 3003 1734 2745 1975 
Q 2488 2216 2034 2216 
z
M 1403 2484 
Q 997 2584 770 2862 
Q 544 3141 544 3541 
Q 544 4100 942 4425 
Q 1341 4750 2034 4750 
Q 2731 4750 3128 4425 
Q 3525 4100 3525 3541 
Q 3525 3141 3298 2862 
Q 3072 2584 2669 2484 
Q 3125 2378 3379 2068 
Q 3634 1759 3634 1313 
Q 3634 634 3220 271 
Q 2806 -91 2034 -91 
Q 1263 -91 848 271 
Q 434 634 434 1313 
Q 434 1759 690 2068 
Q 947 2378 1403 2484 
z
M 1172 3481 
Q 1172 3119 1398 2916 
Q 1625 2713 2034 2713 
Q 2441 2713 2670 2916 
Q 2900 3119 2900 3481 
Q 2900 3844 2670 4047 
Q 2441 4250 2034 4250 
Q 1625 4250 1398 4047 
Q 1172 3844 1172 3481 
z
" transform="scale(0.015625)"/>
     </defs>
     <use xlink:href="#DejaVuSans-50"/>
     <use xlink:href="#DejaVuSans-72" x="58.552734"/>
     <use xlink:href="#DejaVuSans-61" x="99.666016"/>
     <use xlink:href="#DejaVuSans-69" x="160.945312"/>
     <use xlink:href="#DejaVuSans-72" x="188.728516"/>
     <use xlink:href="#DejaVuSans-69" x="229.841797"/>
     <use xlink:href="#DejaVuSans-65" x="257.625"/>
     <use xlink:href="#DejaVuSans-20" x="319.148438"/>
     <use xlink:href="#DejaVuSans-53" x="350.935547"/>
     <use xlink:href="#DejaVuSans-6d" x="414.412109"/>
     <use xlink:href="#DejaVuSans-6f" x="511.824219"/>
     <use xlink:href="#DejaVuSans-6b" x="573.005859"/>
     <use xlink:href="#DejaVuSans-65" x="627.291016"/>
     <use xlink:href="#DejaVuSans-20" x="688.814453"/>
     <use xlink:href="#DejaVuSans-31" x="720.601562"/>
     <use xlink:href="#DejaVuSans-38" x="784.224609"/>
     <use xlink:href="#DejaVuSans-2e" x="847.847656"/>
     <use xlink:href="#DejaVuSans-37" x="879.634766"/>
     <use xlink:href="#DejaVuSans-b0" x="943.257812"/>
    </g>
   </g>
   <g id="text_7">
    <g id="patch_8">
     <path d="M 20.260899 38.945233 
L 24.600295 55.394353 
L 26.510566 54.89041 
L 22.17117 38.44129 
z
" style="fill: #ffffff"/>
    </g>
    <!-- Spiderwort 16.4° -->
    <g style="fill: #008000" transform="translate(20.687517 38.853373)rotate(-284.778348)scale(0.02 -0.02)">
     <defs>
      <path id="DejaVuSans-36" d="M 2113 2584 
Q 1688 2584 1439 2293 
Q 1191 2003 1191 1497 
Q 1191 994 1439 701 
Q 1688 409 2113 409 
Q 2538 409 2786 701 
Q 3034 994 3034 1497 
Q 3034 2003 2786 2293 
Q 2538 2584 2113 2584 
z
M 3366 4563 
L 3366 3988 
Q 3128 4100 2886 4159 
Q 2644 4219 2406 4219 
Q 1781 4219 1451 3797 
Q 1122 3375 1075 2522 
Q 1259 2794 1537 2939 
Q 1816 3084 2150 3084 
Q 2853 3084 3261 2657 
Q 3669 2231 3669 1497 
Q 3669 778 3244 343 
Q 2819 -91 2113 -91 
Q 1303 -91 875 529 
Q 447 1150 447 2328 
Q 447 3434 972 4092 
Q 1497 4750 2381 4750 
Q 2619 4750 2861 4703 
Q 3103 4656 3366 4563 
z
" transform="scale(0.015625)"/>
     </defs>
     <use xlink:href="#DejaVuSans-53"/>
     <use xlink:href="#DejaVuSans-70" x="63.476562"/>
     <use xlink:href="#DejaVuSans-69" x="126.953125"/>
     <use xlink:href="#DejaVuSans-64" x="154.736328"/>
     <use xlink:href="#DejaVuSans-65" x="218.212891"/>
     <use xlink:href="#DejaVuSans-72" x="279.736328"/>
     <use xlink:href="#DejaVuSans-77" x="320.849609"/>
     <use xlink:href="#DejaVuSans-6f" x="402.636719"/>
     <use xlink:href="#DejaVuSans-72" x="463.818359"/>
     <use xlink:href="#DejaVuSans-74" x="504.931641"/>
     <use xlink:href="#DejaVuSans-20" x="544.140625"/>
     <use xlink:href="#DejaVuSans-31" x="575.927734"/>
     <use xlink:href="#DejaVuSans-36" x="639.550781"/>
     <use xlink:href="#DejaVuSans-2e" x="703.173828"/>
     <use xlink:href="#DejaVuSans-34" x="734.960938"/>
     <use xlink:href="#DejaVuSans-b0" x="798.583984"/>
    </g>
   </g>
   <g id="text_8">
    <g id="patch_9">
     <path d="M 9.541868 45.696521 
L 10.156694 58.15073 
L 12.129916 58.053318 
L 11.51509 45.599109 
z
" style="fill: #ffffff"/>
    </g>
    <!-- Oxeye 20.4° -->
    <g style="fill: #4169e1" transform="translate(9.978261 45.695002)rotate(-272.826224)scale(0.02 -0.02)">
     <defs>
      <path id="DejaVuSans-78" d="M 3513 3500 
L 2247 1797 
L 3578 0 
L 2900 0 
L 1881 1375 
L 863 0 
L 184 0 
L 1544 1831 
L 300 3500 
L 978 3500 
L 1906 2253 
L 2834 3500 
L 3513 3500 
z
" transform="scale(0.015625)"/>
      <path id="DejaVuSans-79" d="M 2059 -325 
Q 1816 -950 1584 -1140 
Q 1353 -1331 966 -1331 
L 506 -1331 
L 506 -850 
L 844 -850 
Q 1081 -850 1212 -737 
Q 1344 -625 1503 -206 
L 1606 56 
L 191 3500 
L 800 3500 
L 1894 763 
L 2988 3500 
L 3597 3500 
L 2059 -325 
z
" transform="scale(0.015625)"/>
      <path id="DejaVuSans-30" d="M 2034 4250 
Q 1547 4250 1301 3770 
Q 1056 3291 1056 2328 
Q 1056 1369 1301 889 
Q 1547 409 2034 409 
Q 2525 409 2770 889 
Q 3016 1369 3016 2328 
Q 3016 3291 2770 3770 
Q 2525 4250 2034 4250 
z
M 2034 4750 
Q 2819 4750 3233 4129 
Q 3647 3509 3647 2328 
Q 3647 1150 3233 529 
Q 2819 -91 2034 -91 
Q 1250 -91 836 529 
Q 422 1150 422 2328 
Q 422 3509 836 4129 
Q 1250 4750 2034 4750 
z
" transform="scale(0.015625)"/>
     </defs>
     <use xlink:href="#DejaVuSans-4f"/>
     <use xlink:href="#DejaVuSans-78" x="78.710938"/>
     <use xlink:href="#DejaVuSans-65" x="134.765625"/>
     <use xlink:href="#DejaVuSans-79" x="196.289062"/>
     <use xlink:href="#DejaVuSans-65" x="255.46875"/>
     <use xlink:href="#DejaVuSans-20" x="316.992188"/>
     <use xlink:href="#DejaVuSans-32" x="348.779297"/>
     <use xlink:href="#DejaVuSans-30" x="412.402344"/>
     <use xlink:href="#DejaVuSans-2e" x="476.025391"/>
     <use xlink:href="#DejaVuSans-34" x="507.8125"/>
     <use xlink:href="#DejaVuSans-b0" x="571.435547"/>
    </g>
   </g>
   <g id="text_9">
    <g id="patch_10">
     <path d="M 1.352206 26.894535 
L 2.8899 61.196649 
L 4.863543 61.108174 
L 3.325849 26.80606 
z
" style="fill: #ffffff"/>
    </g>
    <!-- Dragon's Mouth Terrain Park 20.0° -->
    <g style="fill: #4169e1" transform="translate(1.788602 26.894992)rotate(-272.566735)scale(0.02 -0.02)">
     <defs>
      <path id="DejaVuSans-44" d="M 1259 4147 
L 1259 519 
L 2022 519 
Q 2988 519 3436 956 
Q 3884 1394 3884 2338 
Q 3884 3275 3436 3711 
Q 2988 4147 2022 4147 
L 1259 4147 
z
M 628 4666 
L 1925 4666 
Q 3281 4666 3915 4102 
Q 4550 3538 4550 2338 
Q 4550 1131 3912 565 
Q 3275 0 1925 0 
L 628 0 
L 628 4666 
z
" transform="scale(0.015625)"/>
      <path id="DejaVuSans-67" d="M 2906 1791 
Q 2906 2416 2648 2759 
Q 2391 3103 1925 3103 
Q 1463 3103 1205 2759 
Q 947 2416 947 1791 
Q 947 1169 1205 825 
Q 1463 481 1925 481 
Q 2391 481 2648 825 
Q 2906 1169 2906 1791 
z
M 3481 434 
Q 3481 -459 3084 -895 
Q 2688 -1331 1869 -1331 
Q 1566 -1331 1297 -1286 
Q 1028 -1241 775 -1147 
L 775 -588 
Q 1028 -725 1275 -790 
Q 1522 -856 1778 -856 
Q 2344 -856 2625 -561 
Q 2906 -266 2906 331 
L 2906 616 
Q 2728 306 2450 153 
Q 2172 0 1784 0 
Q 1141 0 747 490 
Q 353 981 353 1791 
Q 353 2603 747 3093 
Q 1141 3584 1784 3584 
Q 2172 3584 2450 3431 
Q 2728 3278 2906 2969 
L 2906 3500 
L 3481 3500 
L 3481 434 
z
" transform="scale(0.015625)"/>
      <path id="DejaVuSans-75" d="M 544 1381 
L 544 3500 
L 1119 3500 
L 1119 1403 
Q 1119 906 1312 657 
Q 1506 409 1894 409 
Q 2359 409 2629 706 
Q 2900 1003 2900 1516 
L 2900 3500 
L 3475 3500 
L 3475 0 
L 2900 0 
L 2900 538 
Q 2691 219 2414 64 
Q 2138 -91 1772 -91 
Q 1169 -91 856 284 
Q 544 659 544 1381 
z
M 1991 3584 
L 1991 3584 
z
" transform="scale(0.015625)"/>
      <path id="DejaVuSans-68" d="M 3513 2113 
L 3513 0 
L 2938 0 
L 2938 2094 
Q 2938 2591 2744 2837 
Q 2550 3084 2163 3084 
Q 1697 3084 1428 2787 
Q 1159 2491 1159 1978 
L 1159 0 
L 581 0 
L 581 4863 
L 1159 4863 
L 1159 2956 
Q 1366 3272 1645 3428 
Q 1925 3584 2291 3584 
Q 2894 3584 3203 3211 
Q 3513 2838 3513 2113 
z
" transform="scale(0.015625)"/>
      <path id="DejaVuSans-54" d="M -19 4666 
L 3928 4666 
L 3928 4134 
L 2272 4134 
L 2272 0 
L 1638 0 
L 1638 4134 
L -19 4134 
L -19 4666 
z
" transform="scale(0.015625)"/>
     </defs>
     <use xlink:href="#DejaVuSans-44"/>
     <use xlink:href="#DejaVuSans-72" x="77.001953"/>
     <use xlink:href="#DejaVuSans-61" x="118.115234"/>
     <use xlink:href="#DejaVuSans-67" x="179.394531"/>
     <use xlink:href="#DejaVuSans-6f" x="242.871094"/>
     <use xlink:href="#DejaVuSans-6e" x="304.052734"/>
     <use xlink:href="#DejaVuSans-27" x="367.431641"/>
     <use xlink:href="#DejaVuSans-73" x="394.921875"/>
     <use xlink:href="#DejaVuSans-20" x="447.021484"/>
     <use xlink:href="#DejaVuSans-4d" x="478.808594"/>
     <use xlink:href="#DejaVuSans-6f" x="565.087891"/>
     <use xlink:href="#DejaVuSans-75" x="626.269531"/>
     <use xlink:href="#DejaVuSans-74" x="689.648438"/>
     <use xlink:href="#DejaVuSans-68" x="728.857422"/>
     <use xlink:href="#DejaVuSans-20" x="792.236328"/>
     <use xlink:href="#DejaVuSans-54" x="824.023438"/>
     <use xlink:href="#DejaVuSans-65" x="868.107422"/>
     <use xlink:href="#DejaVuSans-72" x="929.630859"/>
     <use xlink:href="#DejaVuSans-72" x="968.994141"/>
     <use xlink:href="#DejaVuSans-61" x="1010.107422"/>
     <use xlink:href="#DejaVuSans-69" x="1071.386719"/>
     <use xlink:href="#DejaVuSans-6e" x="1099.169922"/>
     <use xlink:href="#DejaVuSans-20" x="1162.548828"/>
     <use xlink:href="#DejaVuSans-50" x="1194.335938"/>
     <use xlink:href="#DejaVuSans-61" x="1250.138672"/>
     <use xlink:href="#DejaVuSans-72" x="1311.417969"/>
     <use xlink:href="#DejaVuSans-6b" x="1352.53125"/>
     <use xlink:href="#DejaVuSans-20" x="1410.441406"/>
     <use xlink:href="#DejaVuSans-32" x="1442.228516"/>
     <use xlink:href="#DejaVuSans-30" x="1505.851562"/>
     <use xlink:href="#DejaVuSans-2e" x="1569.474609"/>
     <use xlink:href="#DejaVuSans-30" x="1601.261719"/>
     <use xlink:href="#DejaVuSans-b0" x="1664.884766"/>
    </g>
   </g>
   <g id="text_10">
    <!-- Frost Fire -->
    <g transform="translate(13.075501 5.273521)scale(0.05 -0.05)">
     <defs>
      <path id="DejaVuSans-46" d="M 628 4666 
L 3309 4666 
L 3309 4134 
L 1259 4134 
L 1259 2759 
L 3109 2759 
L 3109 2228 
L 1259 2228 
L 1259 0 
L 628 0 
L 628 4666 
z
" transform="scale(0.015625)"/>
     </defs>
     <use xlink:href="#DejaVuSans-46"/>
     <use xlink:href="#DejaVuSans-72" x="50.269531"/>
     <use xlink:href="#DejaVuSans-6f" x="89.132812"/>
     <use xlink:href="#DejaVuSans-73" x="150.314453"/>
     <use xlink:href="#DejaVuSans-74" x="202.414062"/>
     <use xlink:href="#DejaVuSans-20" x="241.623047"/>
     <use xlink:href="#DejaVuSans-46" x="273.410156"/>
     <use xlink:href="#DejaVuSans-69" x="323.679688"/>
     <use xlink:href="#DejaVuSans-72" x="351.462891"/>
     <use xlink:href="#DejaVuSans-65" x="390.326172"/>
    </g>
   </g>
  </g>
  <g id="text_11">
   <!-- Sources: USGS and OpenStreetMaps -->
   <g transform="translate(4.540871 97.13692)scale(0.021739 -0.021739)">
    <defs>
     <path id="DejaVuSans-63" d="M 3122 3366 
L 3122 2828 
Q 2878 2963 2633 3030 
Q 2388 3097 2138 3097 
Q 1578 3097 1268 2742 
Q 959 2388 959 1747 
Q 959 1106 1268 751 
Q 1578 397 2138 397 
Q 2388 397 2633 464 
Q 2878 531 3122 666 
L 3122 134 
Q 2881 22 2623 -34 
Q 2366 -91 2075 -91 
Q 1284 -91 818 406 
Q 353 903 353 1747 
Q 353 2603 823 3093 
Q 1294 3584 2113 3584 
Q 2378 3584 2631 3529 
Q 2884 3475 3122 3366 
z
" transform="scale(0.015625)"/>
     <path id="DejaVuSans-3a" d="M 750 794 
L 1409 794 
L 1409 0 
L 750 0 
L 750 794 
z
M 750 3309 
L 1409 3309 
L 1409 2516 
L 750 2516 
L 750 3309 
z
" transform="scale(0.015625)"/>
     <path id="DejaVuSans-55" d="M 556 4666 
L 1191 4666 
L 1191 1831 
Q 1191 1081 1462 751 
Q 1734 422 2344 422 
Q 2950 422 3222 751 
Q 3494 1081 3494 1831 
L 3494 4666 
L 4128 4666 
L 4128 1753 
Q 4128 841 3676 375 
Q 3225 -91 2344 -91 
Q 1459 -91 1007 375 
Q 556 841 556 1753 
L 556 4666 
z
" transform="scale(0.015625)"/>
     <path id="DejaVuSans-47" d="M 3809 666 
L 3809 1919 
L 2778 1919 
L 2778 2438 
L 4434 2438 
L 4434 434 
Q 4069 175 3628 42 
Q 3188 -91 2688 -91 
Q 1594 -91 976 548 
Q 359 1188 359 2328 
Q 359 3472 976 4111 
Q 1594 4750 2688 4750 
Q 3144 4750 3555 4637 
Q 3966 4525 4313 4306 
L 4313 3634 
Q 3963 3931 3569 4081 
Q 3175 4231 2741 4231 
Q 1884 4231 1454 3753 
Q 1025 3275 1025 2328 
Q 1025 1384 1454 906 
Q 1884 428 2741 428 
Q 3075 428 3337 486 
Q 3600 544 3809 666 
z
" transform="scale(0.015625)"/>
    </defs>
    <use xlink:href="#DejaVuSans-53"/>
    <use xlink:href="#DejaVuSans-6f" x="63.476562"/>
    <use xlink:href="#DejaVuSans-75" x="124.658203"/>
    <use xlink:href="#DejaVuSans-72" x="188.037109"/>
    <use xlink:href="#DejaVuSans-63" x="226.900391"/>
    <use xlink:href="#DejaVuSans-65" x="281.880859"/>
    <use xlink:href="#DejaVuSans-73" x="343.404297"/>
    <use xlink:href="#DejaVuSans-3a" x="395.503906"/>
    <use xlink:href="#DejaVuSans-20" x="429.195312"/>
    <use xlink:href="#DejaVuSans-55" x="460.982422"/>
    <use xlink:href="#DejaVuSans-53" x="534.175781"/>
    <use xlink:href="#DejaVuSans-47" x="597.652344"/>
    <use xlink:href="#DejaVuSans-53" x="675.142578"/>
    <use xlink:href="#DejaVuSans-20" x="738.619141"/>
    <use xlink:href="#DejaVuSans-61" x="770.40625"/>
    <use xlink:href="#DejaVuSans-6e" x="831.685547"/>
    <use xlink:href="#DejaVuSans-64" x="895.064453"/>
    <use xlink:href="#DejaVuSans-20" x="958.541016"/>
    <use xlink:href="#DejaVuSans-4f" x="990.328125"/>
    <use xlink:href="#DejaVuSans-70" x="1069.039062"/>
    <use xlink:href="#DejaVuSans-65" x="1132.515625"/>
    <use xlink:href="#DejaVuSans-6e" x="1194.039062"/>
    <use xlink:href="#DejaVuSans-53" x="1257.417969"/>
    <use xlink:href="#DejaVuSans-74" x="1320.894531"/>
    <use xlink:href="#DejaVuSans-72" x="1360.103516"/>
    <use xlink:href="#DejaVuSans-65" x="1398.966797"/>
    <use xlink:href="#DejaVuSans-65" x="1460.490234"/>
    <use xlink:href="#DejaVuSans-74" x="1522.013672"/>
    <use xlink:href="#DejaVuSans-4d" x="1561.222656"/>
    <use xlink:href="#DejaVuSans-61" x="1647.501953"/>
    <use xlink:href="#DejaVuSans-70" x="1708.78125"/>
    <use xlink:href="#DejaVuSans-73" x="1772.257812"/>
   </g>
  </g>
 </g>
 <defs>
  <clipPath id="p333aed021c">
   <rect x="0" y="7.773521" width="48.742408" height="82.041984"/>
  </clipPath>
 </defs>
</svg>
