<?xml version="1.0" encoding="utf-8" standalone="no"?>
<!DOCTYPE svg PUBLIC "-//W3C//DTD SVG 1.1//EN"
  "http://www.w3.org/Graphics/SVG/1.1/DTD/svg11.dtd">
<svg height="118.41237pt" version="1.1" viewBox="0 0 87.732328 118.41237" width="87.732328pt" xmlns="http://www.w3.org/2000/svg" xmlns:xlink="http://www.w3.org/1999/xlink">
 <metadata>
  <rdf:RDF xmlns:cc="http://creativecommons.org/ns#" xmlns:dc="http://purl.org/dc/elements/1.1/" xmlns:rdf="http://www.w3.org/1999/02/22-rdf-syntax-ns#">
   <cc:Work>
    <dc:type rdf:resource="http://purl.org/dc/dcmitype/StillImage"/>
    <dc:date>2022-05-18T23:25:55.057593</dc:date>
    <dc:format>image/svg+xml</dc:format>
    <dc:creator>
     <cc:Agent>
      <dc:title>Matplotlib v3.4.3, https://matplotlib.org/</dc:title>
     </cc:Agent>
    </dc:creator>
   </cc:Work>
  </rdf:RDF>
 </metadata>
 <defs>
  <style type="text/css">*{stroke-linecap:butt;stroke-linejoin:round;}</style>
 </defs>
 <g id="figure_1">
  <g id="patch_1">
   <path d="M 0 118.41237 
L 87.732328 118.41237 
L 87.732328 0 
L 0 0 
z
" style="fill:#ffffff;"/>
  </g>
  <g id="axes_1">
   <g id="line2d_1">
    <path clip-path="url(#pe75e7ef4fc)" d="M 62.751816 36.506251 
" style="fill:none;stroke:#008000;stroke-linecap:square;stroke-width:0.001;"/>
   </g>
   <g id="line2d_2">
    <path clip-path="url(#pe75e7ef4fc)" d="M 62.751816 36.506251 
" style="fill:none;stroke:#4169e1;stroke-linecap:square;stroke-width:0.001;"/>
   </g>
   <g id="line2d_3">
    <path clip-path="url(#pe75e7ef4fc)" d="M 62.751816 36.506251 
" style="fill:none;stroke:#000000;stroke-linecap:square;stroke-width:0.001;"/>
   </g>
   <g id="line2d_4">
    <path clip-path="url(#pe75e7ef4fc)" d="M 62.751816 36.506251 
" style="fill:none;stroke:#ff0000;stroke-linecap:square;stroke-width:0.001;"/>
   </g>
   <g id="line2d_5">
    <path clip-path="url(#pe75e7ef4fc)" d="M 62.751816 36.506251 
" style="fill:none;stroke:#ffd700;stroke-linecap:square;stroke-width:0.001;"/>
   </g>
   <g id="line2d_6">
    <path clip-path="url(#pe75e7ef4fc)" d="M 62.751816 36.506251 
" style="fill:none;stroke:#000000;stroke-dasharray:0.001,0.00165;stroke-dashoffset:0;stroke-width:0.001;"/>
   </g>
   <g id="line2d_7">
    <path clip-path="url(#pe75e7ef4fc)" d="M 19.870147 104.557226 
L 21.714881 101.630519 
L 24.046854 97.92977 
L 26.378827 94.229022 
L 28.7108 90.528274 
L 31.042773 86.827525 
L 33.374746 83.126777 
L 35.706719 79.426029 
L 38.038692 75.72528 
L 40.370665 72.024532 
L 43.168309 67.584747 
L 45.965953 63.144962 
L 48.763597 58.705177 
L 51.561241 54.265392 
L 54.358884 49.825607 
L 57.156528 45.385822 
L 59.954172 40.946037 
L 62.751816 36.506251 
L 64.905743 33.088409 
" style="fill:none;stroke:#808080;stroke-linecap:square;stroke-width:0.406168;"/>
   </g>
   <g id="line2d_8">
    <path clip-path="url(#pe75e7ef4fc)" d="M 62.751816 36.506251 
L 63.624967 36.055326 
L 64.681086 36.055326 
L 65.643984 36.883219 
L 66.606882 37.711113 
L 67.321238 38.461818 
L 68.035595 39.212522 
L 68.749952 39.963227 
L 69.464308 40.713932 
L 70.178665 41.464637 
L 70.893022 42.215341 
L 71.607379 42.966046 
L 72.321735 43.716751 
L 73.222679 45.064501 
L 74.123622 46.412251 
L 75.070887 47.852628 
L 76.018151 49.293005 
L 76.965416 50.733381 
L 77.91268 52.173758 
L 78.533961 53.521508 
L 79.155241 54.869258 
L 79.698934 56.386465 
L 80.242627 57.903671 
L 80.47539 59.144434 
L 80.708153 60.385197 
L 80.819323 61.496714 
L 80.987237 63.174042 
L 81.173679 64.46076 
L 81.360121 65.747477 
L 81.701739 66.452586 
L 81.826805 66.942286 
L 81.670472 67.433421 
L 81.142412 67.463579 
L 80.708153 67.218011 
L 79.714568 66.11511 
L 78.874999 65.379843 
L 78.07133 64.870039 
L 77.122328 64.26689 
L 76.173327 63.663742 
L 74.604782 62.545762 
L 73.036237 61.427783 
L 71.995751 60.630765 
L 70.955266 59.833747 
L 70.146964 59.09848 
L 69.588796 58.424964 
L 68.93567 57.627946 
L 67.879551 56.095661 
L 67.321383 55.238328 
L 66.638148 54.869258 
L 65.985022 54.77735 
L 65.115345 54.962603 
L 64.153026 55.330236 
L 63.190129 55.881687 
L 62.227231 56.433137 
L 61.388821 56.892679 
L 60.301435 57.352221 
L 59.074507 57.704776 
L 57.84758 58.05733 
L 56.465477 58.424964 
L 55.083374 58.792597 
L 53.467929 59.09848 
L 52.598252 59.252139 
L 52.225368 59.588179 
L 52.443077 59.955813 
L 53.126312 60.232974 
L 54.989574 60.630765 
L 56.014426 60.722673 
L 57.661138 60.814582 
L 59.6182 60.722673 
L 60.735694 60.630765 
L 61.838713 60.477824 
L 62.941732 60.324882 
L 63.686342 60.35504 
L 64.339468 60.35504 
L 65.05397 60.784424 
L 65.519496 61.580006 
L 65.754575 62.305221 
L 66.165095 63.566807 
L 66.575615 64.828393 
L 66.963553 66.43679 
L 67.351492 68.045186 
L 67.600467 69.455406 
L 67.663 70.374489 
L 67.414025 72.060434 
L 67.165629 73.653752 
L 66.917232 75.247069 
L 66.892914 75.656349 
L 66.827485 76.769302 
L 66.762057 77.882255 
L 66.653203 79.000234 
L 66.544348 80.118214 
L 65.705938 81.804158 
L 65.146612 82.677288 
L 64.587286 83.550417 
L 64.339468 84.439344 
L 64.059226 86.031943 
L 63.872784 87.165719 
L 63.686342 88.299495 
L 63.842676 89.678121 
L 63.850782 90.127611 
L 63.685184 90.32866 
L 63.453579 90.400464 
L 63.174495 90.400464 
L 62.879199 90.353073 
L 62.258497 90.169257 
L 61.108578 89.77003 
L 59.897284 89.52518 
L 58.68599 89.28033 
L 57.22572 88.17743 
L 56.449265 87.503196 
L 55.672809 86.828961 
L 54.92762 86.170524 
L 54.18243 85.512087 
L 53.064936 84.745226 
L 51.542133 84.055913 
L 49.771513 83.734234 
" style="fill:none;stroke:#4169e1;stroke-linecap:square;stroke-width:0.406168;"/>
   </g>
   <g id="line2d_9">
    <path clip-path="url(#pe75e7ef4fc)" d="M 62.751816 36.506251 
L 62.75529 35.779601 
L 62.631381 35.320059 
L 62.103322 34.860517 
L 61.450196 34.860517 
L 60.860761 35.320059 
L 60.270168 36.606776 
L 59.656705 37.90929 
L 59.043241 39.211804 
L 58.429777 40.514318 
L 57.816313 41.816832 
L 56.884682 42.8587 
L 55.953051 43.900568 
L 54.524048 45.018547 
L 53.095045 46.136526 
L 52.155597 46.902669 
L 51.216149 47.668811 
L 50.276701 48.434954 
L 49.337253 49.201096 
L 48.156068 50.273839 
" style="fill:none;stroke:#4169e1;stroke-linecap:square;stroke-width:0.406168;"/>
   </g>
   <g id="line2d_10">
    <path clip-path="url(#pe75e7ef4fc)" d="M 36.399797 18.512314 
L 35.545754 17.868955 
L 34.69171 17.225597 
L 33.54237 16.551363 
L 32.39303 15.877128 
L 30.777585 14.89773 
L 29.194565 14.314686 
L 27.330145 13.855144 
L 25.498149 14.008803 
L 23.758795 14.436752 
L 22.733364 14.897012 
L 21.707933 15.357272 
L 20.621705 16.704304 
L 19.922258 18.436202 
L 19.580641 20.305963 
L 18.788552 21.301877 
L 17.996463 22.29779 
L 17.359549 23.369815 
L 16.722635 24.441841 
L 16.008712 26.127067 
L 15.29479 27.812293 
L 14.890639 29.068853 
L 14.486489 30.325413 
L 14.098261 31.734914 
L 13.710033 33.144415 
L 13.321805 34.553916 
L 12.933577 35.963418 
L 12.421151 37.036161 
L 11.908725 38.108904 
L 11.396299 39.181647 
L 10.883872 40.25439 
L 10.138394 41.219428 
L 9.392915 42.184466 
L 8.647437 43.149504 
L 7.901958 44.114542 
L 7.140846 45.294272 
L 6.379734 46.474002 
L 5.618622 47.653733 
L 4.85751 48.833463 
L 4.174275 50.181931 
L 3.987833 51.774531 
L 4.174275 53.153875 
L 4.360717 54.533218 
L 4.748945 55.513694 
L 5.137173 56.49417 
L 5.525401 57.474646 
L 5.913629 58.455121 
L 6.534909 59.519966 
L 7.15619 60.584811 
L 7.77747 61.649656 
L 8.398751 62.7145 
L 9.020031 63.779345 
L 9.641312 64.84419 
L 10.262592 65.909035 
L 10.883872 66.973879 
" style="fill:none;stroke:#ff0000;stroke-linecap:square;stroke-width:0.406168;"/>
   </g>
   <g id="line2d_11">
    <path clip-path="url(#pe75e7ef4fc)" d="M 36.399797 18.512314 
L 35.343678 18.328497 
L 34.287559 18.14468 
L 32.424297 17.777047 
L 31.061302 17.647801 
L 30.498501 17.59323 
L 28.635239 17.716732 
L 27.051061 18.114523 
L 25.466882 18.512314 
L 23.727529 19.125515 
L 22.04955 19.432834 
L 20.481584 19.814828 
L 19.580641 20.305963 
L 19.425466 21.041231 
L 19.22339 22.46581 
L 19.021315 23.89039 
L 19.005971 25.269375 
L 18.990627 26.64836 
L 18.975283 28.027344 
L 18.959939 29.406329 
L 18.851085 30.923176 
L 18.742231 32.440024 
L 18.633376 33.956871 
L 18.524522 35.473718 
L 18.198538 36.653448 
L 17.872554 37.833179 
L 17.54657 39.012909 
L 17.220586 40.192639 
L 16.891707 41.250304 
L 16.562827 42.307968 
L 16.233948 43.365632 
L 15.905069 44.423297 
L 15.791583 44.789494 
L 15.185936 46.16812 
L 14.580289 47.546746 
L 13.974641 48.925371 
L 13.368994 50.303997 
L 12.856279 51.575636 
L 12.343563 52.847274 
L 11.830847 54.118913 
L 11.318132 55.390551 
L 10.945827 56.983869 
L 10.573522 58.577187 
L 10.480301 60.109472 
L 10.38708 61.641757 
L 10.511278 62.974788 
L 10.635476 64.307818 
L 10.759674 65.640849 
L 10.883872 66.973879 
" style="fill:none;stroke:#000000;stroke-linecap:square;stroke-width:0.406168;"/>
   </g>
   <g id="line2d_12">
    <path clip-path="url(#pe75e7ef4fc)" d="M 64.681086 36.055326 
L 65.209145 37.036161 
L 65.395587 38.538288 
L 65.612138 40.346298 
L 65.938701 42.077479 
L 66.265264 43.808659 
L 66.404806 45.524761 
L 66.544348 47.240863 
L 66.498027 49.079031 
L 66.451706 50.917198 
L 66.319112 52.012918 
L 66.186518 53.108639 
L 65.985022 54.77735 
" style="fill:none;stroke:#000000;stroke-linecap:square;stroke-width:0.406168;"/>
   </g>
   <g id="line2d_13">
    <path clip-path="url(#pe75e7ef4fc)" d="M 48.156068 50.273839 
L 47.271337 51.238877 
L 46.386606 52.203915 
L 45.174732 53.521508 
L 43.962859 54.839101 
L 42.782831 56.156694 
L 41.602804 57.474287 
L 40.639906 58.439684 
L 39.677008 59.405081 
L 38.71411 60.370478 
L 37.751212 61.335875 
L 36.9901 62.040625 
L 36.228989 62.745376 
L 35.467877 63.450126 
L 34.706765 64.154877 
L 33.767606 64.959075 
L 32.828448 65.763274 
" style="fill:none;stroke:#000000;stroke-linecap:square;stroke-width:0.406168;"/>
   </g>
   <g id="line2d_14">
    <path clip-path="url(#pe75e7ef4fc)" d="M 52.225368 59.588179 
L 50.423481 60.171223 
L 49.182078 60.90649 
L 48.43631 62.131457 
L 48.218891 63.096854 
L 48.001472 64.062251 
L 47.784052 65.027648 
L 47.566633 65.993045 
L 47.225016 67.770179 
L 46.883398 69.547314 
L 46.510514 70.497273 
L 46.13763 71.447232 
L 45.764746 72.397192 
L 45.391862 73.347151 
L 44.553452 75.001502 
L 43.715042 76.655853 
L 43.125028 77.69772 
L 42.535014 78.739588 
L 42.072962 80.070823 
L 41.789246 81.068891 
L 41.486422 82.565992 
L 41.183599 84.063094 
L 40.50847 85.560913 
L 39.335391 86.936667 
" style="fill:none;stroke:#000000;stroke-linecap:square;stroke-width:0.406168;"/>
   </g>
   <g id="line2d_15">
    <path clip-path="url(#pe75e7ef4fc)" d="M 51.169249 57.84192 
L 51.4796 58.822755 
L 52.225368 59.588179 
" style="fill:none;stroke:#008000;stroke-linecap:square;stroke-width:0.406168;"/>
   </g>
   <g id="line2d_16">
    <path clip-path="url(#pe75e7ef4fc)" d="M 60.270168 36.606776 
L 60.502931 37.695316 
L 60.761171 38.831246 
L 61.019411 39.967176 
L 61.070364 40.797224 
L 60.922136 41.785239 
L 59.944184 43.27157 
L 58.966232 44.757901 
L 58.329318 45.937631 
L 57.692404 47.117361 
L 57.133078 48.098196 
L 56.573752 49.079031 
L 55.5489 50.703224 
L 54.524048 52.327417 
L 53.716325 53.33841 
L 52.908603 54.349402 
L 52.473764 55.222531 
L 52.038926 56.095661 
L 51.604088 56.968791 
L 51.169249 57.84192 
L 50.42406 58.822755 
L 49.678871 59.80359 
L 49.182078 60.90649 
" style="fill:none;stroke:#ff0000;stroke-linecap:square;stroke-width:0.406168;"/>
   </g>
   <g id="line2d_17">
    <path clip-path="url(#pe75e7ef4fc)" d="M 60.922136 41.785239 
L 61.590317 43.241412 
L 62.195964 44.344313 
L 62.801611 45.447213 
L 63.127595 46.382094 
L 63.453579 47.316975 
L 63.702555 48.633849 
L 63.950372 50.135977 
L 64.603498 51.484445 
L 65.395008 52.296542 
L 66.186518 53.108639 
" style="fill:none;stroke:#000000;stroke-linecap:square;stroke-width:0.406168;"/>
   </g>
   <g id="line2d_18">
    <path clip-path="url(#pe75e7ef4fc)" d="M 62.103322 34.860517 
L 60.844549 34.263113 
L 59.727055 33.95723 
L 58.763578 33.466095 
L 57.58355 32.730828 
L 56.881787 32.119062 
L 55.720288 31.106634 
L 54.725544 30.34121 
L 53.685059 29.621021 
L 52.644573 28.900833 
L 51.551397 28.182081 
L 50.458222 27.463329 
L 49.662659 26.939164 
L 48.824248 26.40351 
L 47.985838 25.867857 
L 47.33387 25.682604 
L 46.680744 25.682604 
L 46.277751 25.959765 
L 46.215218 26.57153 
L 46.626896 27.736182 
L 47.038574 28.900833 
L 47.147428 29.206716 
L 47.659854 30.50923 
L 48.17228 31.811744 
L 48.684706 33.114258 
L 49.197132 34.416772 
L 49.787725 36.071123 
L 50.035543 36.836547 
L 50.159451 37.511499 
L 50.221985 38.368832 
L 50.206351 40.069855 
L 50.190718 41.770878 
L 50.066809 42.995845 
L 49.880367 43.946522 
L 49.53875 45.325148 
L 48.979424 46.733931 
L 48.513898 48.052242 
L 48.304295 48.948348 
L 48.315875 49.633353 
L 48.156068 50.273839 
L 47.853823 50.258043 
L 47.550421 49.876049 
L 47.418406 49.453844 
L 47.256282 48.925371 
L 47.178695 48.236058 
L 47.208803 47.470634 
L 47.208803 46.550114 
L 47.147428 45.263397 
L 46.680744 43.946522 
L 45.718425 42.751713 
L 45.345541 42.414237 
L 44.336322 41.862787 
L 43.327103 41.311336 
L 42.493325 41.065769 
L 40.624273 40.514318 
L 39.28907 39.87096 
L 38.077776 38.951876 
L 37.114299 37.757067 
L 36.431064 36.622573 
L 35.810362 35.397607 
L 35.235403 34.523759 
L 34.660444 33.649911 
L 33.977209 32.854329 
L 32.703381 31.93381 
L 31.617154 31.505861 
L 31.025403 31.424005 
L 30.280793 31.322044 
L 29.224674 31.566176 
L 28.324888 32.393351 
L 27.749929 33.466095 
L 27.174969 34.538838 
L 26.460468 35.825555 
L 25.745966 37.112272 
L 25.264807 38.001199 
L 24.783648 38.890125 
L 23.975346 39.839366 
L 22.733943 40.851795 
L 22.019442 41.46356 
L 21.941854 41.785239 
L 22.019442 42.106918 
L 22.484968 42.214623 
L 23.044294 42.076761 
L 23.882704 41.495153 
L 24.565939 41.035611 
L 25.932408 40.054777 
L 26.709443 39.563641 
L 27.547853 39.287916 
L 28.41753 39.227601 
L 29.473649 39.563641 
L 30.964027 40.146685 
L 31.585887 40.606227 
L 32.020146 41.219428 
L 32.269122 42.076761 
L 32.361764 42.903936 
L 32.237855 44.03843 
L 31.958771 45.447213 
L 31.896238 46.214074 
L 31.958771 46.917748 
L 32.175322 47.776516 
L 32.703381 48.817666 
L 33.044999 49.768343 
L 33.104058 50.344207 
L 33.138799 50.687427 
L 33.044999 51.76017 
L 33.044999 53.200547 
L 33.076265 54.333605 
L 32.92109 54.976964 
L 32.610739 55.743824 
L 32.361764 56.41734 
L 32.315443 56.876882 
L 32.346709 57.566195 
L 32.48683 59.144434 
L 32.533441 60.193841 
L 32.580051 61.243248 
L 32.626662 62.292655 
L 32.673272 63.342062 
L 32.75086 64.552668 
L 32.828448 65.763274 
" style="fill:none;stroke:#4169e1;stroke-linecap:square;stroke-width:0.406168;"/>
   </g>
   <g id="line2d_19">
    <path clip-path="url(#pe75e7ef4fc)" d="M 47.33387 25.682604 
L 46.200164 24.779317 
L 45.066457 23.87603 
L 43.88614 23.109887 
L 42.705823 22.343745 
L 41.525506 21.577602 
L 40.345189 20.81146 
L 39.358841 20.236673 
L 38.372493 19.661887 
L 37.386145 19.0871 
L 36.399797 18.512314 
" style="fill:none;stroke:#008000;stroke-linecap:square;stroke-width:0.406168;"/>
   </g>
   <g id="line2d_20">
    <path clip-path="url(#pe75e7ef4fc)" d="M 23.727529 19.125515 
L 24.161788 20.719551 
L 24.87629 22.251836 
L 25.287967 23.186358 
L 25.699645 24.120879 
L 26.111323 25.055401 
L 26.523001 25.989922 
L 27.081748 27.338391 
L 27.640495 28.686859 
L 28.432585 30.126517 
L 29.224674 31.566176 
" style="fill:none;stroke:#000000;stroke-linecap:square;stroke-width:0.406168;"/>
   </g>
   <g id="line2d_21">
    <path clip-path="url(#pe75e7ef4fc)" d="M 31.061302 17.647801 
L 30.808852 18.328497 
L 30.808852 19.585057 
L 30.808852 20.841617 
L 30.871096 21.914001 
L 30.93334 22.986385 
L 30.995584 24.058769 
L 31.057827 25.131153 
L 31.151049 26.95496 
L 31.24427 28.778767 
L 31.134836 30.101386 
L 31.025403 31.424005 
" style="fill:none;stroke:#000000;stroke-linecap:square;stroke-width:0.406168;"/>
   </g>
   <g id="line2d_22">
    <path clip-path="url(#pe75e7ef4fc)" d="M 45.066457 23.87603 
L 43.823896 23.936344 
L 43.233303 24.365729 
L 42.673977 24.917179 
L 42.270984 25.836263 
L 42.053276 26.786222 
L 41.835567 27.736182 
L 41.307508 28.900833 
L 40.748181 29.819917 
L 39.909771 30.494869 
L 38.605835 31.413953 
L 37.394541 32.14922 
L 36.183247 32.884487 
L 34.660444 33.649911 
" style="fill:none;stroke:#000000;stroke-linecap:square;stroke-width:0.406168;"/>
   </g>
   <g id="line2d_23">
    <path clip-path="url(#pe75e7ef4fc)" d="M 31.025403 31.424005 
L 30.870806 32.981421 
L 30.71621 34.538838 
L 30.570299 35.587168 
L 30.424388 36.635498 
L 30.280793 37.665159 
L 29.931359 38.882945 
L 29.581925 40.100731 
L 29.23249 41.318517 
L 28.883056 42.536303 
L 28.34718 43.784964 
L 27.811304 45.033626 
L 27.275428 46.282287 
L 26.739552 47.530949 
" style="fill:none;stroke:#4169e1;stroke-linecap:square;stroke-width:0.406168;"/>
   </g>
   <g id="line2d_24">
    <path clip-path="url(#pe75e7ef4fc)" d="M 34.660444 33.649911 
L 33.170065 34.50868 
L 32.113946 35.152039 
L 31.120361 36.009372 
L 30.424388 36.635498 
" style="fill:none;stroke:#000000;stroke-linecap:square;stroke-width:0.406168;"/>
   </g>
   <g id="line2d_25">
    <path clip-path="url(#pe75e7ef4fc)" d="M 29.224674 31.566176 
L 29.784 32.48526 
L 30.312059 33.589596 
L 30.71621 34.538838 
" style="fill:none;stroke:#4169e1;stroke-linecap:square;stroke-width:0.406168;"/>
   </g>
   <g id="line2d_26">
    <path clip-path="url(#pe75e7ef4fc)" d="M 22.019442 42.106918 
L 22.034496 43.670797 
L 22.04955 45.07958 
L 22.008875 46.322497 
L 21.968199 47.565414 
L 21.927523 48.808332 
L 21.886848 50.051249 
L 21.846172 51.294166 
L 21.805497 52.537083 
L 21.764821 53.780001 
L 21.724145 55.022918 
" style="fill:none;stroke:#000000;stroke-linecap:square;stroke-width:0.406168;"/>
   </g>
   <g id="line2d_27">
    <path clip-path="url(#pe75e7ef4fc)" d="M 56.881787 32.119062 
L 55.928153 32.61666 
L 54.97452 33.114258 
L 53.934034 33.726741 
L 52.893548 34.339224 
L 52.101459 34.983301 
L 51.30937 35.627378 
L 50.221985 36.807108 
L 49.134599 37.986838 
L 48.000893 39.534202 
L 46.867186 41.081565 
L 46.106363 41.747901 
L 45.345541 42.414237 
" style="fill:none;stroke:#000000;stroke-linecap:square;stroke-width:0.406168;"/>
   </g>
   <g id="line2d_28">
    <path clip-path="url(#pe75e7ef4fc)" d="M 50.458222 27.463329 
L 49.352308 27.690227 
L 48.141014 28.149769 
L 47.038574 28.900833 
L 46.122576 30.01953 
L 45.283008 31.673881 
L 44.972657 32.677334 
L 44.662306 33.680787 
L 44.351955 34.68424 
L 44.041605 35.687692 
L 43.637454 37.28101 
L 43.233303 38.874328 
L 42.863314 39.970048 
L 42.493325 41.065769 
" style="fill:none;stroke:#000000;stroke-linecap:square;stroke-width:0.406168;"/>
   </g>
   <g id="line2d_29">
    <path clip-path="url(#pe75e7ef4fc)" d="M 45.345541 42.414237 
L 44.911282 42.857982 
L 44.19678 43.225616 
L 43.574921 43.317524 
L 42.363626 43.073392 
L 41.49395 43.133707 
L 40.718073 43.409432 
L 40.003571 43.716751 
L 39.350445 44.268201 
L 38.729744 44.819652 
L 38.046509 45.46301 
L 37.145565 46.841636 
L 36.244622 48.068038 
L 34.815619 49.231254 
L 33.959838 49.78773 
L 33.104058 50.344207 
" style="fill:none;stroke:#ff0000;stroke-linecap:square;stroke-width:0.406168;"/>
   </g>
   <g id="line2d_30">
    <path clip-path="url(#pe75e7ef4fc)" d="M 42.493325 41.065769 
L 41.8981 41.663173 
L 41.152332 42.338125 
L 40.469097 43.133707 
L 40.003571 43.716751 
" style="fill:none;stroke:#ff0000;stroke-linecap:square;stroke-width:0.406168;"/>
   </g>
   <g id="line2d_31">
    <path clip-path="url(#pe75e7ef4fc)" d="M 22.019442 41.46356 
L 21.257461 41.969056 
L 20.171234 42.521942 
L 18.788552 42.94989 
L 17.981408 43.287367 
L 16.770114 43.868974 
L 15.905069 44.423297 
" style="fill:none;stroke:#008000;stroke-linecap:square;stroke-width:0.406168;"/>
   </g>
   <g id="line2d_32">
    <path clip-path="url(#pe75e7ef4fc)" d="M 26.739552 47.530949 
L 26.394171 48.576766 
L 26.04879 49.622582 
L 25.703409 50.668399 
L 25.358028 51.714216 
L 25.209801 52.114879 
L 24.656844 53.577515 
L 24.103887 55.040151 
L 23.594356 56.522173 
L 23.084825 58.004196 
L 22.814426 59.036011 
L 22.544027 60.067826 
L 22.428804 61.314334 
L 22.31358 62.560841 
L 22.251626 64.124001 
L 22.189671 65.687162 
" style="fill:none;stroke:#4169e1;stroke-linecap:square;stroke-width:0.406168;"/>
   </g>
   <g id="line2d_33">
    <path clip-path="url(#pe75e7ef4fc)" d="M 21.724145 55.022918 
L 21.817366 56.179671 
L 21.910587 57.336424 
L 22.011336 58.642528 
L 22.112084 59.948633 
L 22.212832 61.254737 
L 22.31358 62.560841 
" style="fill:none;stroke:#008000;stroke-linecap:square;stroke-width:0.406168;"/>
   </g>
   <g id="line2d_34">
    <path clip-path="url(#pe75e7ef4fc)" d="M 33.104058 50.344207 
L 32.005092 50.733381 
L 31.104148 50.887041 
L 29.458595 50.887041 
L 28.184767 51.131172 
L 26.848406 51.438491 
L 25.978729 51.714216 
L 25.209801 52.114879 
" style="fill:none;stroke:#000000;stroke-linecap:square;stroke-width:0.406168;"/>
   </g>
   <g id="line2d_35">
    <path clip-path="url(#pe75e7ef4fc)" d="M 22.189671 65.687162 
L 22.189671 66.682716 
L 22.189671 67.678271 
L 22.189671 68.673825 
L 22.189671 69.66938 
L 22.189671 71.538423 
L 22.189671 73.407466 
L 22.376113 74.648588 
L 22.562555 75.88971 
L 22.748997 77.130832 
L 22.93544 78.371954 
L 22.93544 79.474855 
L 22.93544 80.577756 
L 22.93544 81.680656 
L 22.93544 82.783557 
L 22.810952 84.223933 
L 22.686464 85.66431 
L 22.608876 86.798086 
L 22.531289 87.931862 
L 22.453701 89.065638 
L 22.376113 90.199414 
L 22.344847 91.455974 
L 22.31358 92.712534 
L 22.189671 93.815434 
L 22.065763 94.918335 
L 21.949381 95.921429 
L 21.833 96.924522 
L 21.227353 98.21124 
L 20.435263 99.054212 
L 19.984792 99.759322 
L 19.945419 100.188706 
L 20.093646 100.55634 
L 20.326409 101.000085 
L 20.915844 101.321764 
L 21.714881 101.630519 
" style="fill:none;stroke:#008000;stroke-linecap:square;stroke-width:0.406168;"/>
   </g>
   <g id="line2d_36">
    <path clip-path="url(#pe75e7ef4fc)" d="M 32.828448 65.763274 
L 31.733535 67.341513 
L 30.638622 68.919752 
L 29.846533 70.35977 
L 29.054444 71.799787 
L 28.262355 73.239805 
L 27.470266 74.679822 
L 26.895596 75.981978 
L 26.320926 77.284133 
L 25.746256 78.586288 
L 25.171586 79.888443 
L 24.550306 81.332409 
L 23.929025 82.776376 
L 23.307745 84.220343 
L 22.686464 85.66431 
" style="fill:none;stroke:#4169e1;stroke-linecap:square;stroke-width:0.406168;"/>
   </g>
   <g id="line2d_37">
    <path clip-path="url(#pe75e7ef4fc)" d="M 10.883872 66.973879 
L 11.505153 68.436515 
L 12.126433 69.899151 
L 12.638859 70.772639 
L 13.151286 71.646128 
L 13.663712 72.519617 
L 14.176138 73.393105 
L 14.890639 74.480927 
L 15.605141 75.568749 
L 16.319642 76.656571 
L 17.034144 77.744393 
L 17.701745 78.55613 
L 18.369347 79.367868 
L 19.036948 80.179606 
L 19.70455 80.991343 
L 20.512272 82.064086 
L 21.319995 83.136829 
L 22.003229 84.40057 
L 22.686464 85.66431 
" style="fill:none;stroke:#008000;stroke-linecap:square;stroke-width:0.406168;"/>
   </g>
   <g id="line2d_38">
    <path clip-path="url(#pe75e7ef4fc)" d="M 66.892914 75.656349 
L 65.719255 76.142099 
L 64.545597 76.627849 
L 63.371938 77.113599 
L 62.19828 77.59935 
L 61.266359 77.982421 
L 60.334439 78.365492 
L 59.402518 78.748563 
L 58.470597 79.131635 
L 57.042752 79.884134 
L 55.955367 80.457844 
L 54.867981 81.031553 
L 54.15927 81.420728 
L 53.177844 81.961407 
L 52.196417 82.502087 
L 51.344111 82.93578 
L 49.771513 83.734234 
L 48.283451 84.156438 
L 46.758332 84.515455 
L 45.221053 84.86801 
L 43.683775 85.220565 
L 42.596679 85.64959 
L 41.509583 86.078616 
L 40.422487 86.507641 
L 39.335391 86.936667 
L 38.341516 87.396208 
L 37.347641 87.85575 
L 36.353766 88.315292 
L 35.359891 88.774834 
L 33.930888 89.540977 
L 32.501885 90.307119 
L 31.072882 90.888727 
L 29.643879 91.470335 
L 28.63466 91.868844 
L 27.625441 92.267353 
L 26.616222 92.665862 
L 25.607003 93.064371 
L 24.70606 93.676854 
L 23.805116 94.289337 
L 22.69457 95.36208 
L 21.833 96.924522 
" style="fill:none;stroke:#4169e1;stroke-linecap:square;stroke-width:0.406168;"/>
   </g>
   <g id="line2d_39">
    <path clip-path="url(#pe75e7ef4fc)" d="M 48.283451 84.156438 
L 47.535366 85.066905 
L 46.97604 85.772015 
L 45.951188 87.242549 
L 45.143466 88.483312 
L 44.335743 89.724075 
L 43.5286 90.87293 
L 42.721456 92.021785 
L 41.695446 93.034213 
L 40.577952 93.248187 
L 38.869865 93.278345 
L 36.974178 93.186436 
L 35.964959 93.033495 
L 34.95574 92.880554 
L 33.604904 92.711816 
L 32.254067 92.543078 
L 31.057827 92.51292 
L 29.861588 92.482763 
L 28.875529 92.566773 
L 27.889471 92.650783 
L 26.748237 92.857577 
L 25.607003 93.064371 
" style="fill:none;stroke:#008000;stroke-linecap:square;stroke-width:0.406168;"/>
   </g>
   <g id="line2d_40">
    <path clip-path="url(#pe75e7ef4fc)" d="M 40.370665 72.024532 
L 40.081159 70.542509 
L 39.397924 69.255792 
L 38.776065 68.858001 
L 37.968921 68.827844 
L 36.944069 68.919752 
L 35.919217 69.255792 
L 34.956319 69.700255 
L 33.993421 70.144718 
L 33.030523 70.589182 
L 32.067625 71.033645 
L 30.918285 71.791889 
L 29.768946 72.550133 
L 28.619606 73.614978 
L 27.470266 74.679822 
" style="fill:none;stroke:#4169e1;stroke-linecap:square;stroke-width:0.406168;"/>
   </g>
   <g id="line2d_41">
    <path clip-path="url(#pe75e7ef4fc)" d="M 65.985022 54.77735 
L 65.705938 56.171773 
L 64.991437 57.581992 
L 64.602919 58.608063 
L 64.214402 59.634134 
L 63.686342 60.35504 
L 63.375992 61.285612 
L 63.065641 62.216185 
L 62.75529 63.146757 
L 62.444939 64.077329 
L 62.025445 64.981334 
L 61.60595 65.885339 
L 61.186456 66.789344 
L 60.766961 67.69335 
L 60.223268 68.536322 
L 59.679576 69.379294 
L 59.089562 70.727044 
L 58.499548 72.074794 
" style="fill:none;stroke:#ff0000;stroke-dasharray:1.502822,0.649869;stroke-dashoffset:0;stroke-width:0.406168;"/>
   </g>
   <g id="line2d_42">
    <path clip-path="url(#pe75e7ef4fc)" d="M 80.819323 61.496714 
L 80.429069 62.606795 
L 79.683301 63.326983 
L 78.937533 64.047172 
L 78.07133 64.870039 
L 77.370725 65.592381 
L 76.67012 66.314724 
L 75.722855 67.187853 
L 74.775591 68.060983 
L 73.983501 68.926573 
L 73.191412 69.792164 
L 72.399323 70.657754 
L 71.607234 71.523344 
L 70.675603 72.366316 
L 69.743972 73.209288 
L 68.318443 74.432819 
L 66.892914 75.656349 
" style="fill:none;stroke:#000000;stroke-linecap:square;stroke-width:0.406168;"/>
   </g>
   <g id="line2d_43">
    <path clip-path="url(#pe75e7ef4fc)" d="M 81.670472 67.433421 
L 81.686105 68.478879 
L 81.701739 69.524337 
L 81.655418 70.753611 
L 82.067095 71.889542 
L 82.478773 73.025472 
L 83.379717 74.557757 
L 83.736389 75.47684 
L 83.744495 76.242265 
L 83.566159 76.763558 
L 82.478773 78.112026 
L 81.267479 79.33771 
L 80.056185 80.563395 
L 78.642815 81.850112 
L 77.229446 83.136829 
L 76.530578 83.902972 
L 75.831709 84.669114 
L 75.03962 85.527165 
L 74.247531 86.385216 
L 73.517396 87.120483 
L 72.787261 87.85575 
L 71.980118 88.851664 
L 71.172974 89.847577 
L 70.427206 90.490936 
L 69.02947 91.286518 
L 67.600467 91.623994 
L 66.110089 91.623994 
L 65.038337 91.302315 
L 63.966584 90.980635 
L 62.879199 90.353073 
" style="fill:none;stroke:#ff0000;stroke-dasharray:1.502822,0.649869;stroke-dashoffset:0;stroke-width:0.406168;"/>
   </g>
   <g id="line2d_44">
    <path clip-path="url(#pe75e7ef4fc)" d="M 66.544348 80.118214 
L 64.807311 79.805151 
L 63.657971 79.744118 
L 62.508631 79.683085 
L 61.344237 79.668006 
L 60.179842 79.652927 
L 58.798318 79.61559 
L 57.042752 79.884134 
" style="fill:none;stroke:#4169e1;stroke-linecap:square;stroke-width:0.406168;"/>
   </g>
   <g id="line2d_45">
    <path clip-path="url(#pe75e7ef4fc)" d="M 58.499548 72.074794 
L 58.190355 73.519479 
L 57.881163 74.964164 
L 57.523912 76.128816 
L 57.166661 77.293467 
L 56.313197 78.91048 
L 55.422675 80.195761 
L 54.15927 81.420728 
" style="fill:none;stroke:#008000;stroke-linecap:square;stroke-width:0.406168;"/>
   </g>
   <g id="line2d_46">
    <path clip-path="url(#pe75e7ef4fc)" d="M 53.126312 60.232974 
L 52.847807 61.730793 
L 52.569301 63.228613 
L 52.352172 64.730022 
L 52.135042 66.231432 
L 52.103775 67.763717 
L 52.072509 69.296002 
L 52.056875 70.674628 
L 52.041242 72.053253 
L 52.025609 73.431879 
L 52.009975 74.810505 
L 52.134463 76.495731 
L 52.258951 78.180957 
L 52.134463 79.2537 
L 52.009975 80.326444 
L 51.677043 81.631112 
L 51.344111 82.93578 
" style="fill:none;stroke:#000000;stroke-linecap:square;stroke-width:0.406168;"/>
   </g>
   <g id="line2d_47">
    <path clip-path="url(#pe75e7ef4fc)" d="M 58.68599 89.28033 
L 57.491487 89.82819 
L 56.296984 90.37605 
L 54.744073 90.498834 
L 53.191161 90.621618 
L 51.855379 90.897343 
L 50.519597 91.173068 
L 49.33957 91.540702 
L 48.159542 91.908335 
L 46.82376 92.184061 
L 45.487978 92.459786 
L 43.591712 92.746999 
L 41.695446 93.034213 
" style="fill:none;stroke:#008000;stroke-linecap:square;stroke-width:0.406168;"/>
   </g>
   <g id="line2d_48">
    <path clip-path="url(#pe75e7ef4fc)" d="M 40.370665 72.024532 
L 40.895251 71.931187 
L 41.280873 72.130801 
L 41.573853 72.512795 
L 41.822829 73.294016 
L 42.149392 74.744446 
L 42.34394 75.811444 
L 42.383313 76.878443 
L 42.228137 78.474633 
L 42.072962 80.070823 
" style="fill:none;stroke:#4169e1;stroke-linecap:square;stroke-width:0.406168;"/>
   </g>
   <g id="line2d_49">
    <path clip-path="url(#pe75e7ef4fc)" d="M 81.655418 70.753611 
L 81.352015 71.460157 
L 80.863328 71.86082 
L 79.605713 72.764825 
L 78.348098 73.66883 
L 76.934728 74.526881 
L 75.521359 75.384932 
L 73.999135 76.365049 
L 72.476911 77.345165 
L 71.390104 78.096229 
L 70.303298 78.847293 
L 69.36356 79.165023 
L 68.423823 79.482753 
L 67.484086 79.800483 
L 66.544348 80.118214 
" style="fill:none;stroke:#ff0000;stroke-linecap:square;stroke-width:0.406168;"/>
   </g>
   <g id="text_1">
    <g id="patch_2">
     <path d="M 40.941015 72.898942 
L 41.357019 72.36658 
L 39.800316 71.150122 
L 39.384311 71.682484 
z
" style="fill:#ffffff;"/>
    </g>
    <!--   -->
    <g style="fill:#808080;" transform="translate(40.60983 72.614762)rotate(-51.994796)scale(0.02 -0.02)">
     <defs>
      <path id="DejaVuSans-20" transform="scale(0.015625)"/>
     </defs>
     <use xlink:href="#DejaVuSans-20"/>
    </g>
   </g>
   <g id="text_2">
    <g id="patch_3">
     <path d="M 67.04818 87.543162 
L 68.44633 68.364997 
L 66.475934 68.221348 
L 65.077784 87.399514 
z
" style="fill:#ffffff;"/>
    </g>
    <!-- Outback Trail 20.7° -->
    <g style="fill:#4169e1;" transform="translate(66.61485 87.491518)rotate(-85.83033)scale(0.02 -0.02)">
     <defs>
      <path d="M 2522 4238 
Q 1834 4238 1429 3725 
Q 1025 3213 1025 2328 
Q 1025 1447 1429 934 
Q 1834 422 2522 422 
Q 3209 422 3611 934 
Q 4013 1447 4013 2328 
Q 4013 3213 3611 3725 
Q 3209 4238 2522 4238 
z
M 2522 4750 
Q 3503 4750 4090 4092 
Q 4678 3434 4678 2328 
Q 4678 1225 4090 567 
Q 3503 -91 2522 -91 
Q 1538 -91 948 565 
Q 359 1222 359 2328 
Q 359 3434 948 4092 
Q 1538 4750 2522 4750 
z
" id="DejaVuSans-4f" transform="scale(0.015625)"/>
      <path d="M 544 1381 
L 544 3500 
L 1119 3500 
L 1119 1403 
Q 1119 906 1312 657 
Q 1506 409 1894 409 
Q 2359 409 2629 706 
Q 2900 1003 2900 1516 
L 2900 3500 
L 3475 3500 
L 3475 0 
L 2900 0 
L 2900 538 
Q 2691 219 2414 64 
Q 2138 -91 1772 -91 
Q 1169 -91 856 284 
Q 544 659 544 1381 
z
M 1991 3584 
L 1991 3584 
z
" id="DejaVuSans-75" transform="scale(0.015625)"/>
      <path d="M 1172 4494 
L 1172 3500 
L 2356 3500 
L 2356 3053 
L 1172 3053 
L 1172 1153 
Q 1172 725 1289 603 
Q 1406 481 1766 481 
L 2356 481 
L 2356 0 
L 1766 0 
Q 1100 0 847 248 
Q 594 497 594 1153 
L 594 3053 
L 172 3053 
L 172 3500 
L 594 3500 
L 594 4494 
L 1172 4494 
z
" id="DejaVuSans-74" transform="scale(0.015625)"/>
      <path d="M 3116 1747 
Q 3116 2381 2855 2742 
Q 2594 3103 2138 3103 
Q 1681 3103 1420 2742 
Q 1159 2381 1159 1747 
Q 1159 1113 1420 752 
Q 1681 391 2138 391 
Q 2594 391 2855 752 
Q 3116 1113 3116 1747 
z
M 1159 2969 
Q 1341 3281 1617 3432 
Q 1894 3584 2278 3584 
Q 2916 3584 3314 3078 
Q 3713 2572 3713 1747 
Q 3713 922 3314 415 
Q 2916 -91 2278 -91 
Q 1894 -91 1617 61 
Q 1341 213 1159 525 
L 1159 0 
L 581 0 
L 581 4863 
L 1159 4863 
L 1159 2969 
z
" id="DejaVuSans-62" transform="scale(0.015625)"/>
      <path d="M 2194 1759 
Q 1497 1759 1228 1600 
Q 959 1441 959 1056 
Q 959 750 1161 570 
Q 1363 391 1709 391 
Q 2188 391 2477 730 
Q 2766 1069 2766 1631 
L 2766 1759 
L 2194 1759 
z
M 3341 1997 
L 3341 0 
L 2766 0 
L 2766 531 
Q 2569 213 2275 61 
Q 1981 -91 1556 -91 
Q 1019 -91 701 211 
Q 384 513 384 1019 
Q 384 1609 779 1909 
Q 1175 2209 1959 2209 
L 2766 2209 
L 2766 2266 
Q 2766 2663 2505 2880 
Q 2244 3097 1772 3097 
Q 1472 3097 1187 3025 
Q 903 2953 641 2809 
L 641 3341 
Q 956 3463 1253 3523 
Q 1550 3584 1831 3584 
Q 2591 3584 2966 3190 
Q 3341 2797 3341 1997 
z
" id="DejaVuSans-61" transform="scale(0.015625)"/>
      <path d="M 3122 3366 
L 3122 2828 
Q 2878 2963 2633 3030 
Q 2388 3097 2138 3097 
Q 1578 3097 1268 2742 
Q 959 2388 959 1747 
Q 959 1106 1268 751 
Q 1578 397 2138 397 
Q 2388 397 2633 464 
Q 2878 531 3122 666 
L 3122 134 
Q 2881 22 2623 -34 
Q 2366 -91 2075 -91 
Q 1284 -91 818 406 
Q 353 903 353 1747 
Q 353 2603 823 3093 
Q 1294 3584 2113 3584 
Q 2378 3584 2631 3529 
Q 2884 3475 3122 3366 
z
" id="DejaVuSans-63" transform="scale(0.015625)"/>
      <path d="M 581 4863 
L 1159 4863 
L 1159 1991 
L 2875 3500 
L 3609 3500 
L 1753 1863 
L 3688 0 
L 2938 0 
L 1159 1709 
L 1159 0 
L 581 0 
L 581 4863 
z
" id="DejaVuSans-6b" transform="scale(0.015625)"/>
      <path d="M -19 4666 
L 3928 4666 
L 3928 4134 
L 2272 4134 
L 2272 0 
L 1638 0 
L 1638 4134 
L -19 4134 
L -19 4666 
z
" id="DejaVuSans-54" transform="scale(0.015625)"/>
      <path d="M 2631 2963 
Q 2534 3019 2420 3045 
Q 2306 3072 2169 3072 
Q 1681 3072 1420 2755 
Q 1159 2438 1159 1844 
L 1159 0 
L 581 0 
L 581 3500 
L 1159 3500 
L 1159 2956 
Q 1341 3275 1631 3429 
Q 1922 3584 2338 3584 
Q 2397 3584 2469 3576 
Q 2541 3569 2628 3553 
L 2631 2963 
z
" id="DejaVuSans-72" transform="scale(0.015625)"/>
      <path d="M 603 3500 
L 1178 3500 
L 1178 0 
L 603 0 
L 603 3500 
z
M 603 4863 
L 1178 4863 
L 1178 4134 
L 603 4134 
L 603 4863 
z
" id="DejaVuSans-69" transform="scale(0.015625)"/>
      <path d="M 603 4863 
L 1178 4863 
L 1178 0 
L 603 0 
L 603 4863 
z
" id="DejaVuSans-6c" transform="scale(0.015625)"/>
      <path d="M 1228 531 
L 3431 531 
L 3431 0 
L 469 0 
L 469 531 
Q 828 903 1448 1529 
Q 2069 2156 2228 2338 
Q 2531 2678 2651 2914 
Q 2772 3150 2772 3378 
Q 2772 3750 2511 3984 
Q 2250 4219 1831 4219 
Q 1534 4219 1204 4116 
Q 875 4013 500 3803 
L 500 4441 
Q 881 4594 1212 4672 
Q 1544 4750 1819 4750 
Q 2544 4750 2975 4387 
Q 3406 4025 3406 3419 
Q 3406 3131 3298 2873 
Q 3191 2616 2906 2266 
Q 2828 2175 2409 1742 
Q 1991 1309 1228 531 
z
" id="DejaVuSans-32" transform="scale(0.015625)"/>
      <path d="M 2034 4250 
Q 1547 4250 1301 3770 
Q 1056 3291 1056 2328 
Q 1056 1369 1301 889 
Q 1547 409 2034 409 
Q 2525 409 2770 889 
Q 3016 1369 3016 2328 
Q 3016 3291 2770 3770 
Q 2525 4250 2034 4250 
z
M 2034 4750 
Q 2819 4750 3233 4129 
Q 3647 3509 3647 2328 
Q 3647 1150 3233 529 
Q 2819 -91 2034 -91 
Q 1250 -91 836 529 
Q 422 1150 422 2328 
Q 422 3509 836 4129 
Q 1250 4750 2034 4750 
z
" id="DejaVuSans-30" transform="scale(0.015625)"/>
      <path d="M 684 794 
L 1344 794 
L 1344 0 
L 684 0 
L 684 794 
z
" id="DejaVuSans-2e" transform="scale(0.015625)"/>
      <path d="M 525 4666 
L 3525 4666 
L 3525 4397 
L 1831 0 
L 1172 0 
L 2766 4134 
L 525 4134 
L 525 4666 
z
" id="DejaVuSans-37" transform="scale(0.015625)"/>
      <path d="M 1600 4347 
Q 1350 4347 1178 4173 
Q 1006 4000 1006 3750 
Q 1006 3503 1178 3333 
Q 1350 3163 1600 3163 
Q 1850 3163 2022 3333 
Q 2194 3503 2194 3750 
Q 2194 3997 2020 4172 
Q 1847 4347 1600 4347 
z
M 1600 4750 
Q 1800 4750 1984 4673 
Q 2169 4597 2303 4453 
Q 2447 4313 2519 4134 
Q 2591 3956 2591 3750 
Q 2591 3338 2302 3052 
Q 2013 2766 1594 2766 
Q 1172 2766 890 3047 
Q 609 3328 609 3750 
Q 609 4169 896 4459 
Q 1184 4750 1600 4750 
z
" id="DejaVuSans-b0" transform="scale(0.015625)"/>
     </defs>
     <use xlink:href="#DejaVuSans-4f"/>
     <use x="78.710938" xlink:href="#DejaVuSans-75"/>
     <use x="142.089844" xlink:href="#DejaVuSans-74"/>
     <use x="181.298828" xlink:href="#DejaVuSans-62"/>
     <use x="244.775391" xlink:href="#DejaVuSans-61"/>
     <use x="306.054688" xlink:href="#DejaVuSans-63"/>
     <use x="361.035156" xlink:href="#DejaVuSans-6b"/>
     <use x="418.945312" xlink:href="#DejaVuSans-20"/>
     <use x="450.732422" xlink:href="#DejaVuSans-54"/>
     <use x="497.066406" xlink:href="#DejaVuSans-72"/>
     <use x="538.179688" xlink:href="#DejaVuSans-61"/>
     <use x="599.458984" xlink:href="#DejaVuSans-69"/>
     <use x="627.242188" xlink:href="#DejaVuSans-6c"/>
     <use x="655.025391" xlink:href="#DejaVuSans-20"/>
     <use x="686.8125" xlink:href="#DejaVuSans-32"/>
     <use x="750.435547" xlink:href="#DejaVuSans-30"/>
     <use x="814.058594" xlink:href="#DejaVuSans-2e"/>
     <use x="845.845703" xlink:href="#DejaVuSans-37"/>
     <use x="909.46875" xlink:href="#DejaVuSans-b0"/>
    </g>
   </g>
   <g id="text_3">
    <g id="patch_4">
     <path d="M 11.563802 40.319404 
L 19.244219 21.063342 
L 17.409175 20.331422 
L 9.728758 39.587484 
z
" style="fill:#ffffff;"/>
    </g>
    <!-- East Lone Pine 31.4° -->
    <g style="fill:#ff0000;" transform="translate(11.166294 40.139323)rotate(-68.255062)scale(0.02 -0.02)">
     <defs>
      <path d="M 628 4666 
L 3578 4666 
L 3578 4134 
L 1259 4134 
L 1259 2753 
L 3481 2753 
L 3481 2222 
L 1259 2222 
L 1259 531 
L 3634 531 
L 3634 0 
L 628 0 
L 628 4666 
z
" id="DejaVuSans-45" transform="scale(0.015625)"/>
      <path d="M 2834 3397 
L 2834 2853 
Q 2591 2978 2328 3040 
Q 2066 3103 1784 3103 
Q 1356 3103 1142 2972 
Q 928 2841 928 2578 
Q 928 2378 1081 2264 
Q 1234 2150 1697 2047 
L 1894 2003 
Q 2506 1872 2764 1633 
Q 3022 1394 3022 966 
Q 3022 478 2636 193 
Q 2250 -91 1575 -91 
Q 1294 -91 989 -36 
Q 684 19 347 128 
L 347 722 
Q 666 556 975 473 
Q 1284 391 1588 391 
Q 1994 391 2212 530 
Q 2431 669 2431 922 
Q 2431 1156 2273 1281 
Q 2116 1406 1581 1522 
L 1381 1569 
Q 847 1681 609 1914 
Q 372 2147 372 2553 
Q 372 3047 722 3315 
Q 1072 3584 1716 3584 
Q 2034 3584 2315 3537 
Q 2597 3491 2834 3397 
z
" id="DejaVuSans-73" transform="scale(0.015625)"/>
      <path d="M 628 4666 
L 1259 4666 
L 1259 531 
L 3531 531 
L 3531 0 
L 628 0 
L 628 4666 
z
" id="DejaVuSans-4c" transform="scale(0.015625)"/>
      <path d="M 1959 3097 
Q 1497 3097 1228 2736 
Q 959 2375 959 1747 
Q 959 1119 1226 758 
Q 1494 397 1959 397 
Q 2419 397 2687 759 
Q 2956 1122 2956 1747 
Q 2956 2369 2687 2733 
Q 2419 3097 1959 3097 
z
M 1959 3584 
Q 2709 3584 3137 3096 
Q 3566 2609 3566 1747 
Q 3566 888 3137 398 
Q 2709 -91 1959 -91 
Q 1206 -91 779 398 
Q 353 888 353 1747 
Q 353 2609 779 3096 
Q 1206 3584 1959 3584 
z
" id="DejaVuSans-6f" transform="scale(0.015625)"/>
      <path d="M 3513 2113 
L 3513 0 
L 2938 0 
L 2938 2094 
Q 2938 2591 2744 2837 
Q 2550 3084 2163 3084 
Q 1697 3084 1428 2787 
Q 1159 2491 1159 1978 
L 1159 0 
L 581 0 
L 581 3500 
L 1159 3500 
L 1159 2956 
Q 1366 3272 1645 3428 
Q 1925 3584 2291 3584 
Q 2894 3584 3203 3211 
Q 3513 2838 3513 2113 
z
" id="DejaVuSans-6e" transform="scale(0.015625)"/>
      <path d="M 3597 1894 
L 3597 1613 
L 953 1613 
Q 991 1019 1311 708 
Q 1631 397 2203 397 
Q 2534 397 2845 478 
Q 3156 559 3463 722 
L 3463 178 
Q 3153 47 2828 -22 
Q 2503 -91 2169 -91 
Q 1331 -91 842 396 
Q 353 884 353 1716 
Q 353 2575 817 3079 
Q 1281 3584 2069 3584 
Q 2775 3584 3186 3129 
Q 3597 2675 3597 1894 
z
M 3022 2063 
Q 3016 2534 2758 2815 
Q 2500 3097 2075 3097 
Q 1594 3097 1305 2825 
Q 1016 2553 972 2059 
L 3022 2063 
z
" id="DejaVuSans-65" transform="scale(0.015625)"/>
      <path d="M 1259 4147 
L 1259 2394 
L 2053 2394 
Q 2494 2394 2734 2622 
Q 2975 2850 2975 3272 
Q 2975 3691 2734 3919 
Q 2494 4147 2053 4147 
L 1259 4147 
z
M 628 4666 
L 2053 4666 
Q 2838 4666 3239 4311 
Q 3641 3956 3641 3272 
Q 3641 2581 3239 2228 
Q 2838 1875 2053 1875 
L 1259 1875 
L 1259 0 
L 628 0 
L 628 4666 
z
" id="DejaVuSans-50" transform="scale(0.015625)"/>
      <path d="M 2597 2516 
Q 3050 2419 3304 2112 
Q 3559 1806 3559 1356 
Q 3559 666 3084 287 
Q 2609 -91 1734 -91 
Q 1441 -91 1130 -33 
Q 819 25 488 141 
L 488 750 
Q 750 597 1062 519 
Q 1375 441 1716 441 
Q 2309 441 2620 675 
Q 2931 909 2931 1356 
Q 2931 1769 2642 2001 
Q 2353 2234 1838 2234 
L 1294 2234 
L 1294 2753 
L 1863 2753 
Q 2328 2753 2575 2939 
Q 2822 3125 2822 3475 
Q 2822 3834 2567 4026 
Q 2313 4219 1838 4219 
Q 1578 4219 1281 4162 
Q 984 4106 628 3988 
L 628 4550 
Q 988 4650 1302 4700 
Q 1616 4750 1894 4750 
Q 2613 4750 3031 4423 
Q 3450 4097 3450 3541 
Q 3450 3153 3228 2886 
Q 3006 2619 2597 2516 
z
" id="DejaVuSans-33" transform="scale(0.015625)"/>
      <path d="M 794 531 
L 1825 531 
L 1825 4091 
L 703 3866 
L 703 4441 
L 1819 4666 
L 2450 4666 
L 2450 531 
L 3481 531 
L 3481 0 
L 794 0 
L 794 531 
z
" id="DejaVuSans-31" transform="scale(0.015625)"/>
      <path d="M 2419 4116 
L 825 1625 
L 2419 1625 
L 2419 4116 
z
M 2253 4666 
L 3047 4666 
L 3047 1625 
L 3713 1625 
L 3713 1100 
L 3047 1100 
L 3047 0 
L 2419 0 
L 2419 1100 
L 313 1100 
L 313 1709 
L 2253 4666 
z
" id="DejaVuSans-34" transform="scale(0.015625)"/>
     </defs>
     <use xlink:href="#DejaVuSans-45"/>
     <use x="63.183594" xlink:href="#DejaVuSans-61"/>
     <use x="124.462891" xlink:href="#DejaVuSans-73"/>
     <use x="176.5625" xlink:href="#DejaVuSans-74"/>
     <use x="215.771484" xlink:href="#DejaVuSans-20"/>
     <use x="247.558594" xlink:href="#DejaVuSans-4c"/>
     <use x="301.521484" xlink:href="#DejaVuSans-6f"/>
     <use x="362.703125" xlink:href="#DejaVuSans-6e"/>
     <use x="426.082031" xlink:href="#DejaVuSans-65"/>
     <use x="487.605469" xlink:href="#DejaVuSans-20"/>
     <use x="519.392578" xlink:href="#DejaVuSans-50"/>
     <use x="577.445312" xlink:href="#DejaVuSans-69"/>
     <use x="605.228516" xlink:href="#DejaVuSans-6e"/>
     <use x="668.607422" xlink:href="#DejaVuSans-65"/>
     <use x="730.130859" xlink:href="#DejaVuSans-20"/>
     <use x="761.917969" xlink:href="#DejaVuSans-33"/>
     <use x="825.541016" xlink:href="#DejaVuSans-31"/>
     <use x="889.164062" xlink:href="#DejaVuSans-2e"/>
     <use x="920.951172" xlink:href="#DejaVuSans-34"/>
     <use x="984.574219" xlink:href="#DejaVuSans-b0"/>
    </g>
   </g>
   <g id="text_4">
    <g id="patch_5">
     <path d="M 12.887302 55.100159 
L 20.539991 35.187552 
L 18.695863 34.478829 
L 11.043175 54.391436 
z
" style="fill:#ffffff;"/>
    </g>
    <!-- West Lone Pine 29.6° -->
    <g transform="translate(12.487556 54.925105)rotate(-68.977547)scale(0.02 -0.02)">
     <defs>
      <path d="M 213 4666 
L 850 4666 
L 1831 722 
L 2809 4666 
L 3519 4666 
L 4500 722 
L 5478 4666 
L 6119 4666 
L 4947 0 
L 4153 0 
L 3169 4050 
L 2175 0 
L 1381 0 
L 213 4666 
z
" id="DejaVuSans-57" transform="scale(0.015625)"/>
      <path d="M 703 97 
L 703 672 
Q 941 559 1184 500 
Q 1428 441 1663 441 
Q 2288 441 2617 861 
Q 2947 1281 2994 2138 
Q 2813 1869 2534 1725 
Q 2256 1581 1919 1581 
Q 1219 1581 811 2004 
Q 403 2428 403 3163 
Q 403 3881 828 4315 
Q 1253 4750 1959 4750 
Q 2769 4750 3195 4129 
Q 3622 3509 3622 2328 
Q 3622 1225 3098 567 
Q 2575 -91 1691 -91 
Q 1453 -91 1209 -44 
Q 966 3 703 97 
z
M 1959 2075 
Q 2384 2075 2632 2365 
Q 2881 2656 2881 3163 
Q 2881 3666 2632 3958 
Q 2384 4250 1959 4250 
Q 1534 4250 1286 3958 
Q 1038 3666 1038 3163 
Q 1038 2656 1286 2365 
Q 1534 2075 1959 2075 
z
" id="DejaVuSans-39" transform="scale(0.015625)"/>
      <path d="M 2113 2584 
Q 1688 2584 1439 2293 
Q 1191 2003 1191 1497 
Q 1191 994 1439 701 
Q 1688 409 2113 409 
Q 2538 409 2786 701 
Q 3034 994 3034 1497 
Q 3034 2003 2786 2293 
Q 2538 2584 2113 2584 
z
M 3366 4563 
L 3366 3988 
Q 3128 4100 2886 4159 
Q 2644 4219 2406 4219 
Q 1781 4219 1451 3797 
Q 1122 3375 1075 2522 
Q 1259 2794 1537 2939 
Q 1816 3084 2150 3084 
Q 2853 3084 3261 2657 
Q 3669 2231 3669 1497 
Q 3669 778 3244 343 
Q 2819 -91 2113 -91 
Q 1303 -91 875 529 
Q 447 1150 447 2328 
Q 447 3434 972 4092 
Q 1497 4750 2381 4750 
Q 2619 4750 2861 4703 
Q 3103 4656 3366 4563 
z
" id="DejaVuSans-36" transform="scale(0.015625)"/>
     </defs>
     <use xlink:href="#DejaVuSans-57"/>
     <use x="93.001953" xlink:href="#DejaVuSans-65"/>
     <use x="154.525391" xlink:href="#DejaVuSans-73"/>
     <use x="206.625" xlink:href="#DejaVuSans-74"/>
     <use x="245.833984" xlink:href="#DejaVuSans-20"/>
     <use x="277.621094" xlink:href="#DejaVuSans-4c"/>
     <use x="331.583984" xlink:href="#DejaVuSans-6f"/>
     <use x="392.765625" xlink:href="#DejaVuSans-6e"/>
     <use x="456.144531" xlink:href="#DejaVuSans-65"/>
     <use x="517.667969" xlink:href="#DejaVuSans-20"/>
     <use x="549.455078" xlink:href="#DejaVuSans-50"/>
     <use x="607.507812" xlink:href="#DejaVuSans-69"/>
     <use x="635.291016" xlink:href="#DejaVuSans-6e"/>
     <use x="698.669922" xlink:href="#DejaVuSans-65"/>
     <use x="760.193359" xlink:href="#DejaVuSans-20"/>
     <use x="791.980469" xlink:href="#DejaVuSans-32"/>
     <use x="855.603516" xlink:href="#DejaVuSans-39"/>
     <use x="919.226562" xlink:href="#DejaVuSans-2e"/>
     <use x="951.013672" xlink:href="#DejaVuSans-36"/>
     <use x="1014.636719" xlink:href="#DejaVuSans-b0"/>
    </g>
   </g>
   <g id="text_5">
    <g id="patch_6">
     <path d="M 43.03016 79.904093 
L 51.76722 61.955132 
L 49.990869 61.090453 
L 41.253808 79.039414 
z
" style="fill:#ffffff;"/>
    </g>
    <!-- Lower Special 24.7° -->
    <g transform="translate(42.646947 79.695312)rotate(-64.044455)scale(0.02 -0.02)">
     <defs>
      <path d="M 269 3500 
L 844 3500 
L 1563 769 
L 2278 3500 
L 2956 3500 
L 3675 769 
L 4391 3500 
L 4966 3500 
L 4050 0 
L 3372 0 
L 2619 2869 
L 1863 0 
L 1184 0 
L 269 3500 
z
" id="DejaVuSans-77" transform="scale(0.015625)"/>
      <path d="M 3425 4513 
L 3425 3897 
Q 3066 4069 2747 4153 
Q 2428 4238 2131 4238 
Q 1616 4238 1336 4038 
Q 1056 3838 1056 3469 
Q 1056 3159 1242 3001 
Q 1428 2844 1947 2747 
L 2328 2669 
Q 3034 2534 3370 2195 
Q 3706 1856 3706 1288 
Q 3706 609 3251 259 
Q 2797 -91 1919 -91 
Q 1588 -91 1214 -16 
Q 841 59 441 206 
L 441 856 
Q 825 641 1194 531 
Q 1563 422 1919 422 
Q 2459 422 2753 634 
Q 3047 847 3047 1241 
Q 3047 1584 2836 1778 
Q 2625 1972 2144 2069 
L 1759 2144 
Q 1053 2284 737 2584 
Q 422 2884 422 3419 
Q 422 4038 858 4394 
Q 1294 4750 2059 4750 
Q 2388 4750 2728 4690 
Q 3069 4631 3425 4513 
z
" id="DejaVuSans-53" transform="scale(0.015625)"/>
      <path d="M 1159 525 
L 1159 -1331 
L 581 -1331 
L 581 3500 
L 1159 3500 
L 1159 2969 
Q 1341 3281 1617 3432 
Q 1894 3584 2278 3584 
Q 2916 3584 3314 3078 
Q 3713 2572 3713 1747 
Q 3713 922 3314 415 
Q 2916 -91 2278 -91 
Q 1894 -91 1617 61 
Q 1341 213 1159 525 
z
M 3116 1747 
Q 3116 2381 2855 2742 
Q 2594 3103 2138 3103 
Q 1681 3103 1420 2742 
Q 1159 2381 1159 1747 
Q 1159 1113 1420 752 
Q 1681 391 2138 391 
Q 2594 391 2855 752 
Q 3116 1113 3116 1747 
z
" id="DejaVuSans-70" transform="scale(0.015625)"/>
     </defs>
     <use xlink:href="#DejaVuSans-4c"/>
     <use x="53.962891" xlink:href="#DejaVuSans-6f"/>
     <use x="115.144531" xlink:href="#DejaVuSans-77"/>
     <use x="196.931641" xlink:href="#DejaVuSans-65"/>
     <use x="258.455078" xlink:href="#DejaVuSans-72"/>
     <use x="299.568359" xlink:href="#DejaVuSans-20"/>
     <use x="331.355469" xlink:href="#DejaVuSans-53"/>
     <use x="394.832031" xlink:href="#DejaVuSans-70"/>
     <use x="458.308594" xlink:href="#DejaVuSans-65"/>
     <use x="519.832031" xlink:href="#DejaVuSans-63"/>
     <use x="574.8125" xlink:href="#DejaVuSans-69"/>
     <use x="602.595703" xlink:href="#DejaVuSans-61"/>
     <use x="663.875" xlink:href="#DejaVuSans-6c"/>
     <use x="691.658203" xlink:href="#DejaVuSans-20"/>
     <use x="723.445312" xlink:href="#DejaVuSans-32"/>
     <use x="787.068359" xlink:href="#DejaVuSans-34"/>
     <use x="850.691406" xlink:href="#DejaVuSans-2e"/>
     <use x="882.478516" xlink:href="#DejaVuSans-37"/>
     <use x="946.101562" xlink:href="#DejaVuSans-b0"/>
    </g>
   </g>
   <g id="text_6">
    <g id="patch_7">
     <path d="M 51.598644 57.825058 
L 63.161901 41.473703 
L 61.548861 40.333003 
L 49.985604 56.684358 
z
" style="fill:#ffffff;"/>
    </g>
    <!-- Upper Special 33.9° -->
    <g style="fill:#ff0000;" transform="translate(51.254261 57.557024)rotate(-54.733034)scale(0.02 -0.02)">
     <defs>
      <path d="M 556 4666 
L 1191 4666 
L 1191 1831 
Q 1191 1081 1462 751 
Q 1734 422 2344 422 
Q 2950 422 3222 751 
Q 3494 1081 3494 1831 
L 3494 4666 
L 4128 4666 
L 4128 1753 
Q 4128 841 3676 375 
Q 3225 -91 2344 -91 
Q 1459 -91 1007 375 
Q 556 841 556 1753 
L 556 4666 
z
" id="DejaVuSans-55" transform="scale(0.015625)"/>
     </defs>
     <use xlink:href="#DejaVuSans-55"/>
     <use x="73.193359" xlink:href="#DejaVuSans-70"/>
     <use x="136.669922" xlink:href="#DejaVuSans-70"/>
     <use x="200.146484" xlink:href="#DejaVuSans-65"/>
     <use x="261.669922" xlink:href="#DejaVuSans-72"/>
     <use x="302.783203" xlink:href="#DejaVuSans-20"/>
     <use x="334.570312" xlink:href="#DejaVuSans-53"/>
     <use x="398.046875" xlink:href="#DejaVuSans-70"/>
     <use x="461.523438" xlink:href="#DejaVuSans-65"/>
     <use x="523.046875" xlink:href="#DejaVuSans-63"/>
     <use x="578.027344" xlink:href="#DejaVuSans-69"/>
     <use x="605.810547" xlink:href="#DejaVuSans-61"/>
     <use x="667.089844" xlink:href="#DejaVuSans-6c"/>
     <use x="694.873047" xlink:href="#DejaVuSans-20"/>
     <use x="726.660156" xlink:href="#DejaVuSans-33"/>
     <use x="790.283203" xlink:href="#DejaVuSans-33"/>
     <use x="853.90625" xlink:href="#DejaVuSans-2e"/>
     <use x="885.693359" xlink:href="#DejaVuSans-39"/>
     <use x="949.316406" xlink:href="#DejaVuSans-b0"/>
    </g>
   </g>
   <g id="text_7">
    <g id="patch_8">
     <path d="M 35.732287 34.151376 
L 54.306746 52.748188 
L 55.704564 51.35205 
L 37.130104 32.755239 
z
" style="fill:#ffffff;"/>
    </g>
    <!-- Cross Mountain Trail 23.4° -->
    <g style="fill:#4169e1;" transform="translate(36.05486 33.857458)rotate(-314.965547)scale(0.02 -0.02)">
     <defs>
      <path d="M 4122 4306 
L 4122 3641 
Q 3803 3938 3442 4084 
Q 3081 4231 2675 4231 
Q 1875 4231 1450 3742 
Q 1025 3253 1025 2328 
Q 1025 1406 1450 917 
Q 1875 428 2675 428 
Q 3081 428 3442 575 
Q 3803 722 4122 1019 
L 4122 359 
Q 3791 134 3420 21 
Q 3050 -91 2638 -91 
Q 1578 -91 968 557 
Q 359 1206 359 2328 
Q 359 3453 968 4101 
Q 1578 4750 2638 4750 
Q 3056 4750 3426 4639 
Q 3797 4528 4122 4306 
z
" id="DejaVuSans-43" transform="scale(0.015625)"/>
      <path d="M 628 4666 
L 1569 4666 
L 2759 1491 
L 3956 4666 
L 4897 4666 
L 4897 0 
L 4281 0 
L 4281 4097 
L 3078 897 
L 2444 897 
L 1241 4097 
L 1241 0 
L 628 0 
L 628 4666 
z
" id="DejaVuSans-4d" transform="scale(0.015625)"/>
     </defs>
     <use xlink:href="#DejaVuSans-43"/>
     <use x="69.824219" xlink:href="#DejaVuSans-72"/>
     <use x="108.6875" xlink:href="#DejaVuSans-6f"/>
     <use x="169.869141" xlink:href="#DejaVuSans-73"/>
     <use x="221.96875" xlink:href="#DejaVuSans-73"/>
     <use x="274.068359" xlink:href="#DejaVuSans-20"/>
     <use x="305.855469" xlink:href="#DejaVuSans-4d"/>
     <use x="392.134766" xlink:href="#DejaVuSans-6f"/>
     <use x="453.316406" xlink:href="#DejaVuSans-75"/>
     <use x="516.695312" xlink:href="#DejaVuSans-6e"/>
     <use x="580.074219" xlink:href="#DejaVuSans-74"/>
     <use x="619.283203" xlink:href="#DejaVuSans-61"/>
     <use x="680.5625" xlink:href="#DejaVuSans-69"/>
     <use x="708.345703" xlink:href="#DejaVuSans-6e"/>
     <use x="771.724609" xlink:href="#DejaVuSans-20"/>
     <use x="803.511719" xlink:href="#DejaVuSans-54"/>
     <use x="849.845703" xlink:href="#DejaVuSans-72"/>
     <use x="890.958984" xlink:href="#DejaVuSans-61"/>
     <use x="952.238281" xlink:href="#DejaVuSans-69"/>
     <use x="980.021484" xlink:href="#DejaVuSans-6c"/>
     <use x="1007.804688" xlink:href="#DejaVuSans-20"/>
     <use x="1039.591797" xlink:href="#DejaVuSans-32"/>
     <use x="1103.214844" xlink:href="#DejaVuSans-33"/>
     <use x="1166.837891" xlink:href="#DejaVuSans-2e"/>
     <use x="1198.625" xlink:href="#DejaVuSans-34"/>
     <use x="1262.248047" xlink:href="#DejaVuSans-b0"/>
    </g>
   </g>
   <g id="text_8">
    <g id="patch_9">
     <path d="M 22.929101 94.92602 
L 24.102026 81.104763 
L 22.133477 80.937704 
L 20.960552 94.758961 
z
" style="fill:#ffffff;"/>
    </g>
    <!-- Show Off 9.7° -->
    <g style="fill:#008000;" transform="translate(22.496416 94.869229)rotate(-85.149283)scale(0.02 -0.02)">
     <defs>
      <path d="M 3513 2113 
L 3513 0 
L 2938 0 
L 2938 2094 
Q 2938 2591 2744 2837 
Q 2550 3084 2163 3084 
Q 1697 3084 1428 2787 
Q 1159 2491 1159 1978 
L 1159 0 
L 581 0 
L 581 4863 
L 1159 4863 
L 1159 2956 
Q 1366 3272 1645 3428 
Q 1925 3584 2291 3584 
Q 2894 3584 3203 3211 
Q 3513 2838 3513 2113 
z
" id="DejaVuSans-68" transform="scale(0.015625)"/>
      <path d="M 2375 4863 
L 2375 4384 
L 1825 4384 
Q 1516 4384 1395 4259 
Q 1275 4134 1275 3809 
L 1275 3500 
L 2222 3500 
L 2222 3053 
L 1275 3053 
L 1275 0 
L 697 0 
L 697 3053 
L 147 3053 
L 147 3500 
L 697 3500 
L 697 3744 
Q 697 4328 969 4595 
Q 1241 4863 1831 4863 
L 2375 4863 
z
" id="DejaVuSans-66" transform="scale(0.015625)"/>
     </defs>
     <use xlink:href="#DejaVuSans-53"/>
     <use x="63.476562" xlink:href="#DejaVuSans-68"/>
     <use x="126.855469" xlink:href="#DejaVuSans-6f"/>
     <use x="188.037109" xlink:href="#DejaVuSans-77"/>
     <use x="269.824219" xlink:href="#DejaVuSans-20"/>
     <use x="301.611328" xlink:href="#DejaVuSans-4f"/>
     <use x="380.322266" xlink:href="#DejaVuSans-66"/>
     <use x="415.527344" xlink:href="#DejaVuSans-66"/>
     <use x="450.732422" xlink:href="#DejaVuSans-20"/>
     <use x="482.519531" xlink:href="#DejaVuSans-39"/>
     <use x="546.142578" xlink:href="#DejaVuSans-2e"/>
     <use x="577.929688" xlink:href="#DejaVuSans-37"/>
     <use x="641.552734" xlink:href="#DejaVuSans-b0"/>
    </g>
   </g>
   <g id="text_9">
    <g id="patch_10">
     <path d="M 48.765262 84.590391 
L 63.918916 78.143229 
L 63.145472 76.325297 
L 47.991818 82.772459 
z
" style="fill:#ffffff;"/>
    </g>
    <!-- West Bowl 20.9° -->
    <g style="fill:#4169e1;" transform="translate(48.612999 84.18142)rotate(-23.047454)scale(0.02 -0.02)">
     <defs>
      <path d="M 1259 2228 
L 1259 519 
L 2272 519 
Q 2781 519 3026 730 
Q 3272 941 3272 1375 
Q 3272 1813 3026 2020 
Q 2781 2228 2272 2228 
L 1259 2228 
z
M 1259 4147 
L 1259 2741 
L 2194 2741 
Q 2656 2741 2882 2914 
Q 3109 3088 3109 3444 
Q 3109 3797 2882 3972 
Q 2656 4147 2194 4147 
L 1259 4147 
z
M 628 4666 
L 2241 4666 
Q 2963 4666 3353 4366 
Q 3744 4066 3744 3513 
Q 3744 3084 3544 2831 
Q 3344 2578 2956 2516 
Q 3422 2416 3680 2098 
Q 3938 1781 3938 1306 
Q 3938 681 3513 340 
Q 3088 0 2303 0 
L 628 0 
L 628 4666 
z
" id="DejaVuSans-42" transform="scale(0.015625)"/>
     </defs>
     <use xlink:href="#DejaVuSans-57"/>
     <use x="93.001953" xlink:href="#DejaVuSans-65"/>
     <use x="154.525391" xlink:href="#DejaVuSans-73"/>
     <use x="206.625" xlink:href="#DejaVuSans-74"/>
     <use x="245.833984" xlink:href="#DejaVuSans-20"/>
     <use x="277.621094" xlink:href="#DejaVuSans-42"/>
     <use x="346.224609" xlink:href="#DejaVuSans-6f"/>
     <use x="407.40625" xlink:href="#DejaVuSans-77"/>
     <use x="489.193359" xlink:href="#DejaVuSans-6c"/>
     <use x="516.976562" xlink:href="#DejaVuSans-20"/>
     <use x="548.763672" xlink:href="#DejaVuSans-32"/>
     <use x="612.386719" xlink:href="#DejaVuSans-30"/>
     <use x="676.009766" xlink:href="#DejaVuSans-2e"/>
     <use x="707.796875" xlink:href="#DejaVuSans-39"/>
     <use x="771.419922" xlink:href="#DejaVuSans-b0"/>
    </g>
   </g>
   <g id="text_10">
    <g id="patch_11">
     <path d="M 24.127092 93.672735 
L 49.744084 94.674255 
L 49.821264 92.700138 
L 24.204271 91.698618 
z
" style="fill:#ffffff;"/>
    </g>
    <!-- West Park Fun Bowl 10.6° -->
    <g style="fill:#008000;" transform="translate(24.164107 93.237912)rotate(-357.76111)scale(0.02 -0.02)">
     <defs>
      <path d="M 628 4666 
L 3309 4666 
L 3309 4134 
L 1259 4134 
L 1259 2759 
L 3109 2759 
L 3109 2228 
L 1259 2228 
L 1259 0 
L 628 0 
L 628 4666 
z
" id="DejaVuSans-46" transform="scale(0.015625)"/>
     </defs>
     <use xlink:href="#DejaVuSans-57"/>
     <use x="93.001953" xlink:href="#DejaVuSans-65"/>
     <use x="154.525391" xlink:href="#DejaVuSans-73"/>
     <use x="206.625" xlink:href="#DejaVuSans-74"/>
     <use x="245.833984" xlink:href="#DejaVuSans-20"/>
     <use x="277.621094" xlink:href="#DejaVuSans-50"/>
     <use x="333.423828" xlink:href="#DejaVuSans-61"/>
     <use x="394.703125" xlink:href="#DejaVuSans-72"/>
     <use x="435.816406" xlink:href="#DejaVuSans-6b"/>
     <use x="493.726562" xlink:href="#DejaVuSans-20"/>
     <use x="525.513672" xlink:href="#DejaVuSans-46"/>
     <use x="577.533203" xlink:href="#DejaVuSans-75"/>
     <use x="640.912109" xlink:href="#DejaVuSans-6e"/>
     <use x="704.291016" xlink:href="#DejaVuSans-20"/>
     <use x="736.078125" xlink:href="#DejaVuSans-42"/>
     <use x="804.681641" xlink:href="#DejaVuSans-6f"/>
     <use x="865.863281" xlink:href="#DejaVuSans-77"/>
     <use x="947.650391" xlink:href="#DejaVuSans-6c"/>
     <use x="975.433594" xlink:href="#DejaVuSans-20"/>
     <use x="1007.220703" xlink:href="#DejaVuSans-31"/>
     <use x="1070.84375" xlink:href="#DejaVuSans-30"/>
     <use x="1134.466797" xlink:href="#DejaVuSans-2e"/>
     <use x="1166.253906" xlink:href="#DejaVuSans-36"/>
     <use x="1229.876953" xlink:href="#DejaVuSans-b0"/>
    </g>
   </g>
   <g id="text_11">
    <g id="patch_12">
     <path d="M 71.615314 89.714902 
L 81.3566 81.103508 
L 80.048105 79.623327 
L 70.306819 88.234721 
z
" style="fill:#ffffff;"/>
    </g>
    <!-- Glades 27.6° -->
    <g style="fill:#ff0000;" transform="translate(71.341568 89.375042)rotate(-41.477002)scale(0.02 -0.02)">
     <defs>
      <path d="M 3809 666 
L 3809 1919 
L 2778 1919 
L 2778 2438 
L 4434 2438 
L 4434 434 
Q 4069 175 3628 42 
Q 3188 -91 2688 -91 
Q 1594 -91 976 548 
Q 359 1188 359 2328 
Q 359 3472 976 4111 
Q 1594 4750 2688 4750 
Q 3144 4750 3555 4637 
Q 3966 4525 4313 4306 
L 4313 3634 
Q 3963 3931 3569 4081 
Q 3175 4231 2741 4231 
Q 1884 4231 1454 3753 
Q 1025 3275 1025 2328 
Q 1025 1384 1454 906 
Q 1884 428 2741 428 
Q 3075 428 3337 486 
Q 3600 544 3809 666 
z
" id="DejaVuSans-47" transform="scale(0.015625)"/>
      <path d="M 2906 2969 
L 2906 4863 
L 3481 4863 
L 3481 0 
L 2906 0 
L 2906 525 
Q 2725 213 2448 61 
Q 2172 -91 1784 -91 
Q 1150 -91 751 415 
Q 353 922 353 1747 
Q 353 2572 751 3078 
Q 1150 3584 1784 3584 
Q 2172 3584 2448 3432 
Q 2725 3281 2906 2969 
z
M 947 1747 
Q 947 1113 1208 752 
Q 1469 391 1925 391 
Q 2381 391 2643 752 
Q 2906 1113 2906 1747 
Q 2906 2381 2643 2742 
Q 2381 3103 1925 3103 
Q 1469 3103 1208 2742 
Q 947 2381 947 1747 
z
" id="DejaVuSans-64" transform="scale(0.015625)"/>
     </defs>
     <use xlink:href="#DejaVuSans-47"/>
     <use x="77.490234" xlink:href="#DejaVuSans-6c"/>
     <use x="105.273438" xlink:href="#DejaVuSans-61"/>
     <use x="166.552734" xlink:href="#DejaVuSans-64"/>
     <use x="230.029297" xlink:href="#DejaVuSans-65"/>
     <use x="291.552734" xlink:href="#DejaVuSans-73"/>
     <use x="343.652344" xlink:href="#DejaVuSans-20"/>
     <use x="375.439453" xlink:href="#DejaVuSans-32"/>
     <use x="439.0625" xlink:href="#DejaVuSans-37"/>
     <use x="502.685547" xlink:href="#DejaVuSans-2e"/>
     <use x="534.472656" xlink:href="#DejaVuSans-36"/>
     <use x="598.095703" xlink:href="#DejaVuSans-b0"/>
    </g>
   </g>
   <g id="text_12">
    <!-- Hesperus -->
    <g transform="translate(29.753508 6.32004)scale(0.06 -0.06)">
     <defs>
      <path d="M 628 4666 
L 1259 4666 
L 1259 2753 
L 3553 2753 
L 3553 4666 
L 4184 4666 
L 4184 0 
L 3553 0 
L 3553 2222 
L 1259 2222 
L 1259 0 
L 628 0 
L 628 4666 
z
" id="DejaVuSans-48" transform="scale(0.015625)"/>
     </defs>
     <use xlink:href="#DejaVuSans-48"/>
     <use x="75.195312" xlink:href="#DejaVuSans-65"/>
     <use x="136.71875" xlink:href="#DejaVuSans-73"/>
     <use x="188.818359" xlink:href="#DejaVuSans-70"/>
     <use x="252.294922" xlink:href="#DejaVuSans-65"/>
     <use x="313.818359" xlink:href="#DejaVuSans-72"/>
     <use x="354.931641" xlink:href="#DejaVuSans-75"/>
     <use x="418.310547" xlink:href="#DejaVuSans-73"/>
    </g>
   </g>
   <g id="legend_1">
    <g id="line2d_50">
     <path d="M 1.864992 108.167897 
L 7.864992 108.167897 
" style="fill:none;stroke:#008000;stroke-linecap:square;stroke-width:0.406168;"/>
    </g>
    <g id="line2d_51"/>
    <g id="text_13">
     <!-- Easy -->
     <g transform="translate(10.264992 109.217897)scale(0.03 -0.03)">
      <defs>
       <path d="M 2059 -325 
Q 1816 -950 1584 -1140 
Q 1353 -1331 966 -1331 
L 506 -1331 
L 506 -850 
L 844 -850 
Q 1081 -850 1212 -737 
Q 1344 -625 1503 -206 
L 1606 56 
L 191 3500 
L 800 3500 
L 1894 763 
L 2988 3500 
L 3597 3500 
L 2059 -325 
z
" id="DejaVuSans-79" transform="scale(0.015625)"/>
      </defs>
      <use xlink:href="#DejaVuSans-45"/>
      <use x="63.183594" xlink:href="#DejaVuSans-61"/>
      <use x="124.462891" xlink:href="#DejaVuSans-73"/>
      <use x="176.5625" xlink:href="#DejaVuSans-79"/>
     </g>
    </g>
    <g id="line2d_52">
     <path d="M 1.864992 112.571334 
L 7.864992 112.571334 
" style="fill:none;stroke:#4169e1;stroke-linecap:square;stroke-width:0.406168;"/>
    </g>
    <g id="line2d_53"/>
    <g id="text_14">
     <!-- Intermediate -->
     <g transform="translate(10.264992 113.621334)scale(0.03 -0.03)">
      <defs>
       <path d="M 628 4666 
L 1259 4666 
L 1259 0 
L 628 0 
L 628 4666 
z
" id="DejaVuSans-49" transform="scale(0.015625)"/>
       <path d="M 3328 2828 
Q 3544 3216 3844 3400 
Q 4144 3584 4550 3584 
Q 5097 3584 5394 3201 
Q 5691 2819 5691 2113 
L 5691 0 
L 5113 0 
L 5113 2094 
Q 5113 2597 4934 2840 
Q 4756 3084 4391 3084 
Q 3944 3084 3684 2787 
Q 3425 2491 3425 1978 
L 3425 0 
L 2847 0 
L 2847 2094 
Q 2847 2600 2669 2842 
Q 2491 3084 2119 3084 
Q 1678 3084 1418 2786 
Q 1159 2488 1159 1978 
L 1159 0 
L 581 0 
L 581 3500 
L 1159 3500 
L 1159 2956 
Q 1356 3278 1631 3431 
Q 1906 3584 2284 3584 
Q 2666 3584 2933 3390 
Q 3200 3197 3328 2828 
z
" id="DejaVuSans-6d" transform="scale(0.015625)"/>
      </defs>
      <use xlink:href="#DejaVuSans-49"/>
      <use x="29.492188" xlink:href="#DejaVuSans-6e"/>
      <use x="92.871094" xlink:href="#DejaVuSans-74"/>
      <use x="132.080078" xlink:href="#DejaVuSans-65"/>
      <use x="193.603516" xlink:href="#DejaVuSans-72"/>
      <use x="232.966797" xlink:href="#DejaVuSans-6d"/>
      <use x="330.378906" xlink:href="#DejaVuSans-65"/>
      <use x="391.902344" xlink:href="#DejaVuSans-64"/>
      <use x="455.378906" xlink:href="#DejaVuSans-69"/>
      <use x="483.162109" xlink:href="#DejaVuSans-61"/>
      <use x="544.441406" xlink:href="#DejaVuSans-74"/>
      <use x="583.650391" xlink:href="#DejaVuSans-65"/>
     </g>
    </g>
    <g id="line2d_54">
     <path d="M 35.620617 108.167897 
L 41.620617 108.167897 
" style="fill:none;stroke:#000000;stroke-linecap:square;stroke-width:0.406168;"/>
    </g>
    <g id="line2d_55"/>
    <g id="text_15">
     <!-- Advanced -->
     <g transform="translate(44.020617 109.217897)scale(0.03 -0.03)">
      <defs>
       <path d="M 2188 4044 
L 1331 1722 
L 3047 1722 
L 2188 4044 
z
M 1831 4666 
L 2547 4666 
L 4325 0 
L 3669 0 
L 3244 1197 
L 1141 1197 
L 716 0 
L 50 0 
L 1831 4666 
z
" id="DejaVuSans-41" transform="scale(0.015625)"/>
       <path d="M 191 3500 
L 800 3500 
L 1894 563 
L 2988 3500 
L 3597 3500 
L 2284 0 
L 1503 0 
L 191 3500 
z
" id="DejaVuSans-76" transform="scale(0.015625)"/>
      </defs>
      <use xlink:href="#DejaVuSans-41"/>
      <use x="66.658203" xlink:href="#DejaVuSans-64"/>
      <use x="130.134766" xlink:href="#DejaVuSans-76"/>
      <use x="189.314453" xlink:href="#DejaVuSans-61"/>
      <use x="250.59375" xlink:href="#DejaVuSans-6e"/>
      <use x="313.972656" xlink:href="#DejaVuSans-63"/>
      <use x="368.953125" xlink:href="#DejaVuSans-65"/>
      <use x="430.476562" xlink:href="#DejaVuSans-64"/>
     </g>
    </g>
    <g id="line2d_56">
     <path d="M 35.620617 112.571334 
L 41.620617 112.571334 
" style="fill:none;stroke:#ff0000;stroke-linecap:square;stroke-width:0.406168;"/>
    </g>
    <g id="line2d_57"/>
    <g id="text_16">
     <!-- Expert -->
     <g transform="translate(44.020617 113.621334)scale(0.03 -0.03)">
      <defs>
       <path d="M 3513 3500 
L 2247 1797 
L 3578 0 
L 2900 0 
L 1881 1375 
L 863 0 
L 184 0 
L 1544 1831 
L 300 3500 
L 978 3500 
L 1906 2253 
L 2834 3500 
L 3513 3500 
z
" id="DejaVuSans-78" transform="scale(0.015625)"/>
      </defs>
      <use xlink:href="#DejaVuSans-45"/>
      <use x="63.183594" xlink:href="#DejaVuSans-78"/>
      <use x="122.363281" xlink:href="#DejaVuSans-70"/>
      <use x="185.839844" xlink:href="#DejaVuSans-65"/>
      <use x="247.363281" xlink:href="#DejaVuSans-72"/>
      <use x="288.476562" xlink:href="#DejaVuSans-74"/>
     </g>
    </g>
    <g id="line2d_58">
     <path d="M 64.840148 108.167897 
L 70.840148 108.167897 
" style="fill:none;stroke:#ffd700;stroke-linecap:square;stroke-width:0.406168;"/>
    </g>
    <g id="line2d_59"/>
    <g id="text_17">
     <!-- Extreme -->
     <g transform="translate(73.240148 109.217897)scale(0.03 -0.03)">
      <use xlink:href="#DejaVuSans-45"/>
      <use x="63.183594" xlink:href="#DejaVuSans-78"/>
      <use x="122.363281" xlink:href="#DejaVuSans-74"/>
      <use x="161.572266" xlink:href="#DejaVuSans-72"/>
      <use x="200.435547" xlink:href="#DejaVuSans-65"/>
      <use x="261.958984" xlink:href="#DejaVuSans-6d"/>
      <use x="359.371094" xlink:href="#DejaVuSans-65"/>
     </g>
    </g>
    <g id="line2d_60">
     <path d="M 64.840148 112.571334 
L 70.840148 112.571334 
" style="fill:none;stroke:#000000;stroke-dasharray:0.406168,0.670178;stroke-dashoffset:0;stroke-width:0.406168;"/>
    </g>
    <g id="line2d_61"/>
    <g id="text_18">
     <!-- Gladed -->
     <g transform="translate(73.240148 113.621334)scale(0.03 -0.03)">
      <use xlink:href="#DejaVuSans-47"/>
      <use x="77.490234" xlink:href="#DejaVuSans-6c"/>
      <use x="105.273438" xlink:href="#DejaVuSans-61"/>
      <use x="166.552734" xlink:href="#DejaVuSans-64"/>
      <use x="230.029297" xlink:href="#DejaVuSans-65"/>
      <use x="291.552734" xlink:href="#DejaVuSans-64"/>
     </g>
    </g>
   </g>
  </g>
  <g id="text_19">
   <!-- Sources: USGS and OpenStreetMaps -->
   <g transform="translate(20.069764 117.869843)scale(0.026087 -0.026087)">
    <defs>
     <path d="M 750 794 
L 1409 794 
L 1409 0 
L 750 0 
L 750 794 
z
M 750 3309 
L 1409 3309 
L 1409 2516 
L 750 2516 
L 750 3309 
z
" id="DejaVuSans-3a" transform="scale(0.015625)"/>
    </defs>
    <use xlink:href="#DejaVuSans-53"/>
    <use x="63.476562" xlink:href="#DejaVuSans-6f"/>
    <use x="124.658203" xlink:href="#DejaVuSans-75"/>
    <use x="188.037109" xlink:href="#DejaVuSans-72"/>
    <use x="226.900391" xlink:href="#DejaVuSans-63"/>
    <use x="281.880859" xlink:href="#DejaVuSans-65"/>
    <use x="343.404297" xlink:href="#DejaVuSans-73"/>
    <use x="395.503906" xlink:href="#DejaVuSans-3a"/>
    <use x="429.195312" xlink:href="#DejaVuSans-20"/>
    <use x="460.982422" xlink:href="#DejaVuSans-55"/>
    <use x="534.175781" xlink:href="#DejaVuSans-53"/>
    <use x="597.652344" xlink:href="#DejaVuSans-47"/>
    <use x="675.142578" xlink:href="#DejaVuSans-53"/>
    <use x="738.619141" xlink:href="#DejaVuSans-20"/>
    <use x="770.40625" xlink:href="#DejaVuSans-61"/>
    <use x="831.685547" xlink:href="#DejaVuSans-6e"/>
    <use x="895.064453" xlink:href="#DejaVuSans-64"/>
    <use x="958.541016" xlink:href="#DejaVuSans-20"/>
    <use x="990.328125" xlink:href="#DejaVuSans-4f"/>
    <use x="1069.039062" xlink:href="#DejaVuSans-70"/>
    <use x="1132.515625" xlink:href="#DejaVuSans-65"/>
    <use x="1194.039062" xlink:href="#DejaVuSans-6e"/>
    <use x="1257.417969" xlink:href="#DejaVuSans-53"/>
    <use x="1320.894531" xlink:href="#DejaVuSans-74"/>
    <use x="1360.103516" xlink:href="#DejaVuSans-72"/>
    <use x="1398.966797" xlink:href="#DejaVuSans-65"/>
    <use x="1460.490234" xlink:href="#DejaVuSans-65"/>
    <use x="1522.013672" xlink:href="#DejaVuSans-74"/>
    <use x="1561.222656" xlink:href="#DejaVuSans-4d"/>
    <use x="1647.501953" xlink:href="#DejaVuSans-61"/>
    <use x="1708.78125" xlink:href="#DejaVuSans-70"/>
    <use x="1772.257812" xlink:href="#DejaVuSans-73"/>
   </g>
  </g>
 </g>
 <defs>
  <clipPath id="pe75e7ef4fc">
   <rect height="99.77229" width="87.732328" x="0" y="9.32004"/>
  </clipPath>
 </defs>
</svg>
