<?xml version="1.0" encoding="utf-8" standalone="no"?>
<!DOCTYPE svg PUBLIC "-//W3C//DTD SVG 1.1//EN"
  "http://www.w3.org/Graphics/SVG/1.1/DTD/svg11.dtd">
<svg height="92.326363pt" version="1.1" viewBox="0 0 53.984767 92.326363" width="53.984767pt" xmlns="http://www.w3.org/2000/svg" xmlns:xlink="http://www.w3.org/1999/xlink">
 <metadata>
  <rdf:RDF xmlns:cc="http://creativecommons.org/ns#" xmlns:dc="http://purl.org/dc/elements/1.1/" xmlns:rdf="http://www.w3.org/1999/02/22-rdf-syntax-ns#">
   <cc:Work>
    <dc:type rdf:resource="http://purl.org/dc/dcmitype/StillImage"/>
    <dc:date>2022-05-19T22:55:56.312289</dc:date>
    <dc:format>image/svg+xml</dc:format>
    <dc:creator>
     <cc:Agent>
      <dc:title>Matplotlib v3.4.3, https://matplotlib.org/</dc:title>
     </cc:Agent>
    </dc:creator>
   </cc:Work>
  </rdf:RDF>
 </metadata>
 <defs>
  <style type="text/css">*{stroke-linecap:butt;stroke-linejoin:round;}</style>
 </defs>
 <g id="figure_1">
  <g id="patch_1">
   <path d="M 0 92.326363 
L 53.984767 92.326363 
L 53.984767 0 
L 0 0 
z
" style="fill:#ffffff;"/>
  </g>
  <g id="axes_1">
   <g id="line2d_1">
    <path clip-path="url(#p3c195be448)" d="M 18.518348 77.902927 
L 20.581633 73.739976 
L 22.644919 69.577026 
L 24.708204 65.414076 
L 26.771489 61.251126 
L 28.834775 57.088175 
L 30.89806 52.925225 
L 32.961345 48.762275 
L 35.024631 44.599325 
L 37.087916 40.436374 
L 39.151201 36.273424 
L 41.214487 32.110474 
L 43.277772 27.947524 
L 45.341058 23.784574 
L 47.404343 19.621623 
L 49.467628 15.458673 
L 51.530914 11.295723 
" style="fill:none;stroke:#808080;stroke-linecap:square;stroke-width:0.4;"/>
   </g>
   <g id="line2d_2">
    <path clip-path="url(#p3c195be448)" d="M 48.557032 21.589886 
L 48.351786 23.355629 
L 48.14654 25.121372 
L 48.172195 26.130675 
L 48.197851 27.139979 
L 48.223507 28.149283 
L 48.249163 29.158587 
L 48.274818 30.167891 
L 48.300474 31.177195 
L 48.32613 32.186498 
L 48.351786 33.195802 
L 48.351786 34.35614 
L 48.351786 35.516478 
L 48.351786 36.676816 
L 48.351786 37.837154 
L 48.351786 39.502461 
L 48.351786 41.167768 
L 48.005888 43.047389 
L 47.659991 44.927009 
L 47.314093 46.80663 
L 46.968195 48.686251 
L 46.622298 50.565871 
L 46.2764 52.445492 
L 45.930503 54.325113 
L 45.584605 56.204733 
L 45.306213 57.167243 
L 45.027821 58.129753 
L 44.749429 59.092263 
L 44.471037 60.054773 
L 44.192645 61.017283 
L 43.914253 61.979793 
L 43.635861 62.942302 
L 43.357469 63.904812 
L 42.914589 65.436205 
L 42.471709 66.967597 
L 42.028829 68.49899 
L 41.585949 70.030382 
L 40.919628 71.115266 
L 40.253306 72.200151 
L 39.586985 73.285035 
L 38.920664 74.369919 
L 38.254342 75.454804 
L 37.588021 76.539688 
L 36.9217 77.624572 
L 36.255378 78.709457 
L 35.076306 79.239281 
L 33.897234 79.769105 
L 32.718162 80.298929 
L 31.53909 80.828754 
L 30.257394 80.879225 
L 28.975699 80.929697 
L 27.694004 80.980168 
L 26.412309 81.03064 
L 25.387171 80.677593 
L 24.362033 80.324546 
L 23.336896 79.971498 
L 22.311758 79.618451 
" style="fill:none;stroke:#008000;stroke-linecap:square;stroke-width:0.4;"/>
   </g>
   <g id="line2d_3">
    <path clip-path="url(#p3c195be448)" d="M 43.533602 20.882778 
L 42.777576 22.22002 
L 42.021551 23.557261 
L 41.265525 24.894503 
L 40.5095 26.231745 
L 39.753474 27.568987 
L 38.997449 28.906229 
L 38.241424 30.243471 
L 37.485398 31.580713 
L 37.118576 32.279706 
L 36.357091 33.731333 
L 35.595607 35.18296 
L 34.834123 36.634587 
L 34.072639 38.086215 
L 33.311155 39.537842 
L 32.549671 40.989469 
L 31.788187 42.441096 
L 31.026703 43.892723 
L 30.587644 44.7742 
L 30.148585 45.655676 
L 29.709526 46.537153 
L 29.270467 47.418629 
L 28.831408 48.300105 
L 28.39235 49.181582 
L 27.953291 50.063058 
L 27.514232 50.944535 
L 26.656129 52.666654 
L 25.798027 54.388773 
L 25.208491 55.650181 
L 24.618955 56.911588 
L 24.029419 58.172996 
L 23.439882 59.434404 
L 22.850346 60.695812 
L 22.26081 61.95722 
L 21.671274 63.218628 
L 21.081738 64.480036 
L 20.658873 65.804596 
L 20.236009 67.129157 
L 19.813144 68.453717 
L 19.390279 69.778278 
L 18.967414 71.102839 
L 18.544549 72.427399 
L 18.121685 73.75196 
L 17.69882 75.076521 
" style="fill:none;stroke:#008000;stroke-linecap:square;stroke-width:0.4;"/>
   </g>
   <g id="line2d_4">
    <path clip-path="url(#p3c195be448)" d="M 27.514232 50.944535 
L 26.367548 51.376459 
L 25.220864 51.808384 
L 24.07418 52.240309 
L 22.927496 52.672233 
L 22.004799 53.012853 
L 21.082102 53.353472 
L 20.159405 53.694092 
L 19.236708 54.034711 
L 18.314012 54.375331 
L 17.391315 54.71595 
L 16.468618 55.056569 
L 15.545921 55.397189 
L 14.175068 55.740852 
L 12.804215 56.084515 
L 11.433361 56.428178 
L 10.062508 56.771841 
" style="fill:none;stroke:#4169e1;stroke-linecap:square;stroke-width:0.4;"/>
   </g>
   <g id="line2d_5">
    <path clip-path="url(#p3c195be448)" d="M 43.533602 20.882778 
L 42.363991 21.274376 
L 41.194381 21.665974 
L 40.02477 22.057572 
L 38.85516 22.44917 
L 37.685549 22.840769 
L 36.515939 23.232367 
L 35.346328 23.623965 
L 34.176718 24.015563 
L 33.176872 24.336273 
L 32.177026 24.656983 
L 31.17718 24.977693 
L 30.177334 25.298402 
L 29.177488 25.619112 
L 28.177642 25.939822 
L 27.177796 26.260532 
L 26.17795 26.581242 
L 24.62787 27.067823 
L 23.077791 27.554404 
L 21.527711 28.040985 
L 19.977632 28.527566 
L 18.427552 29.014147 
L 16.877472 29.500728 
L 15.327393 29.987309 
L 13.777313 30.47389 
L 12.878634 30.949439 
L 11.979956 31.424987 
L 11.081277 31.900535 
L 10.182598 32.376084 
L 9.28392 32.851632 
L 8.385241 33.32718 
L 7.486563 33.802729 
L 6.587884 34.278277 
L 5.779273 35.384085 
L 4.970663 36.489894 
L 4.431346 37.772733 
L 3.89203 39.055572 
L 3.532486 40.072612 
L 3.172942 41.089651 
L 2.813397 42.593652 
L 2.453853 44.097653 
" style="fill:none;stroke:#4169e1;stroke-linecap:square;stroke-width:0.4;"/>
   </g>
   <g id="line2d_6">
    <path clip-path="url(#p3c195be448)" d="M 37.118576 32.279706 
L 36.054317 32.783787 
L 34.990059 33.287868 
L 33.925801 33.79195 
L 32.861543 34.296031 
L 31.797284 34.800112 
L 30.733026 35.304193 
L 29.668768 35.808275 
L 28.60451 36.312356 
L 27.660888 36.953775 
L 26.717266 37.595195 
L 25.773645 38.236615 
L 24.830023 38.878034 
L 23.886401 39.519454 
L 22.94278 40.160873 
L 21.999158 40.802293 
L 21.055536 41.443713 
L 19.70761 42.593652 
L 18.359683 43.743591 
L 17.011756 44.893531 
L 15.663829 46.04347 
L 14.562997 46.883986 
L 13.462166 47.724502 
L 12.361335 48.565017 
L 11.260503 49.405533 
L 10.451893 50.002822 
L 9.643282 50.600111 
L 8.834672 51.1974 
L 8.026061 51.794688 
" style="fill:none;stroke:#000000;stroke-linecap:square;stroke-width:0.4;"/>
   </g>
   <g id="line2d_7">
    <path clip-path="url(#p3c195be448)" d="M 2.453853 44.097653 
L 3.172578 45.291977 
L 3.891302 46.486301 
L 4.610027 47.680624 
L 5.328751 48.874948 
L 6.003079 49.604883 
L 6.677406 50.334818 
L 7.351733 51.064753 
L 8.026061 51.794688 
L 8.744422 53.563982 
L 9.462782 55.333275 
L 10.062508 56.771841 
L 10.249558 57.7833 
L 10.436608 58.79476 
L 10.623659 59.80622 
L 10.810709 60.817679 
L 11.147691 62.211099 
L 11.484673 63.604519 
L 11.821654 64.997939 
L 12.158636 66.391359 
L 12.765276 67.607749 
L 13.371916 68.824138 
L 13.978556 70.040527 
L 14.585196 71.256916 
L 15.363602 72.211818 
L 16.142008 73.166719 
L 16.920414 74.12162 
L 17.69882 75.076521 
L 18.090388 76.298997 
" style="fill:none;stroke:#008000;stroke-linecap:square;stroke-width:0.4;"/>
   </g>
   <g id="line2d_8">
    <path clip-path="url(#p3c195be448)" d="M 43.357469 63.904812 
L 41.508072 63.909377 
L 39.658676 63.913943 
L 38.490521 63.383358 
L 37.322366 62.852772 
L 36.243733 62.58748 
L 35.1651 62.322187 
L 34.131593 62.410449 
L 33.098085 62.498711 
L 32.064577 62.586973 
L 31.03107 62.675234 
L 30.031406 62.76375 
L 29.031742 62.852265 
L 28.032078 62.940781 
L 27.032414 63.029296 
L 26.03275 63.117811 
L 25.033086 63.206327 
L 24.033422 63.294842 
L 23.033758 63.383358 
L 21.506059 62.675742 
L 19.978359 61.968126 
L 19.079499 61.039348 
L 18.180638 60.11057 
L 17.562717 59.082118 
L 16.944796 58.053665 
L 16.326875 57.025213 
L 15.708954 55.99676 
L 15.091032 54.968308 
L 14.473111 53.939855 
L 13.85519 52.911403 
L 13.237269 51.88295 
L 12.293647 50.931853 
L 11.350026 49.980757 
L 10.406404 49.02966 
L 9.462782 48.078563 
L 8.519524 47.680371 
L 7.576267 47.282178 
L 6.04784 47.547978 
L 5.328751 48.874948 
" style="fill:none;stroke:#008000;stroke-linecap:square;stroke-width:0.4;"/>
   </g>
   <g id="text_1">
    <g id="patch_2">
     <path d="M 35.848015 45.241142 
L 36.068604 44.602543 
L 34.201247 43.957507 
L 33.980657 44.596107 
z
" style="fill:#ffffff;"/>
    </g>
    <!--   -->
    <g style="fill:#808080;" transform="translate(35.442497 45.079906)rotate(-70.943713)scale(0.02 -0.02)">
     <defs>
      <path id="DejaVuSans-20" transform="scale(0.015625)"/>
     </defs>
     <use xlink:href="#DejaVuSans-20"/>
    </g>
   </g>
   <g id="text_2">
    <g id="patch_3">
     <path d="M 48.062882 50.368022 
L 49.908468 35.97808 
L 47.948894 35.726755 
L 46.103308 50.116697 
z
" style="fill:#ffffff;"/>
    </g>
    <!-- Outback 14.6° -->
    <g style="fill:#008000;" transform="translate(47.63303 50.292728)rotate(-82.691413)scale(0.02 -0.02)">
     <defs>
      <path d="M 2522 4238 
Q 1834 4238 1429 3725 
Q 1025 3213 1025 2328 
Q 1025 1447 1429 934 
Q 1834 422 2522 422 
Q 3209 422 3611 934 
Q 4013 1447 4013 2328 
Q 4013 3213 3611 3725 
Q 3209 4238 2522 4238 
z
M 2522 4750 
Q 3503 4750 4090 4092 
Q 4678 3434 4678 2328 
Q 4678 1225 4090 567 
Q 3503 -91 2522 -91 
Q 1538 -91 948 565 
Q 359 1222 359 2328 
Q 359 3434 948 4092 
Q 1538 4750 2522 4750 
z
" id="DejaVuSans-4f" transform="scale(0.015625)"/>
      <path d="M 544 1381 
L 544 3500 
L 1119 3500 
L 1119 1403 
Q 1119 906 1312 657 
Q 1506 409 1894 409 
Q 2359 409 2629 706 
Q 2900 1003 2900 1516 
L 2900 3500 
L 3475 3500 
L 3475 0 
L 2900 0 
L 2900 538 
Q 2691 219 2414 64 
Q 2138 -91 1772 -91 
Q 1169 -91 856 284 
Q 544 659 544 1381 
z
M 1991 3584 
L 1991 3584 
z
" id="DejaVuSans-75" transform="scale(0.015625)"/>
      <path d="M 1172 4494 
L 1172 3500 
L 2356 3500 
L 2356 3053 
L 1172 3053 
L 1172 1153 
Q 1172 725 1289 603 
Q 1406 481 1766 481 
L 2356 481 
L 2356 0 
L 1766 0 
Q 1100 0 847 248 
Q 594 497 594 1153 
L 594 3053 
L 172 3053 
L 172 3500 
L 594 3500 
L 594 4494 
L 1172 4494 
z
" id="DejaVuSans-74" transform="scale(0.015625)"/>
      <path d="M 3116 1747 
Q 3116 2381 2855 2742 
Q 2594 3103 2138 3103 
Q 1681 3103 1420 2742 
Q 1159 2381 1159 1747 
Q 1159 1113 1420 752 
Q 1681 391 2138 391 
Q 2594 391 2855 752 
Q 3116 1113 3116 1747 
z
M 1159 2969 
Q 1341 3281 1617 3432 
Q 1894 3584 2278 3584 
Q 2916 3584 3314 3078 
Q 3713 2572 3713 1747 
Q 3713 922 3314 415 
Q 2916 -91 2278 -91 
Q 1894 -91 1617 61 
Q 1341 213 1159 525 
L 1159 0 
L 581 0 
L 581 4863 
L 1159 4863 
L 1159 2969 
z
" id="DejaVuSans-62" transform="scale(0.015625)"/>
      <path d="M 2194 1759 
Q 1497 1759 1228 1600 
Q 959 1441 959 1056 
Q 959 750 1161 570 
Q 1363 391 1709 391 
Q 2188 391 2477 730 
Q 2766 1069 2766 1631 
L 2766 1759 
L 2194 1759 
z
M 3341 1997 
L 3341 0 
L 2766 0 
L 2766 531 
Q 2569 213 2275 61 
Q 1981 -91 1556 -91 
Q 1019 -91 701 211 
Q 384 513 384 1019 
Q 384 1609 779 1909 
Q 1175 2209 1959 2209 
L 2766 2209 
L 2766 2266 
Q 2766 2663 2505 2880 
Q 2244 3097 1772 3097 
Q 1472 3097 1187 3025 
Q 903 2953 641 2809 
L 641 3341 
Q 956 3463 1253 3523 
Q 1550 3584 1831 3584 
Q 2591 3584 2966 3190 
Q 3341 2797 3341 1997 
z
" id="DejaVuSans-61" transform="scale(0.015625)"/>
      <path d="M 3122 3366 
L 3122 2828 
Q 2878 2963 2633 3030 
Q 2388 3097 2138 3097 
Q 1578 3097 1268 2742 
Q 959 2388 959 1747 
Q 959 1106 1268 751 
Q 1578 397 2138 397 
Q 2388 397 2633 464 
Q 2878 531 3122 666 
L 3122 134 
Q 2881 22 2623 -34 
Q 2366 -91 2075 -91 
Q 1284 -91 818 406 
Q 353 903 353 1747 
Q 353 2603 823 3093 
Q 1294 3584 2113 3584 
Q 2378 3584 2631 3529 
Q 2884 3475 3122 3366 
z
" id="DejaVuSans-63" transform="scale(0.015625)"/>
      <path d="M 581 4863 
L 1159 4863 
L 1159 1991 
L 2875 3500 
L 3609 3500 
L 1753 1863 
L 3688 0 
L 2938 0 
L 1159 1709 
L 1159 0 
L 581 0 
L 581 4863 
z
" id="DejaVuSans-6b" transform="scale(0.015625)"/>
      <path d="M 794 531 
L 1825 531 
L 1825 4091 
L 703 3866 
L 703 4441 
L 1819 4666 
L 2450 4666 
L 2450 531 
L 3481 531 
L 3481 0 
L 794 0 
L 794 531 
z
" id="DejaVuSans-31" transform="scale(0.015625)"/>
      <path d="M 2419 4116 
L 825 1625 
L 2419 1625 
L 2419 4116 
z
M 2253 4666 
L 3047 4666 
L 3047 1625 
L 3713 1625 
L 3713 1100 
L 3047 1100 
L 3047 0 
L 2419 0 
L 2419 1100 
L 313 1100 
L 313 1709 
L 2253 4666 
z
" id="DejaVuSans-34" transform="scale(0.015625)"/>
      <path d="M 684 794 
L 1344 794 
L 1344 0 
L 684 0 
L 684 794 
z
" id="DejaVuSans-2e" transform="scale(0.015625)"/>
      <path d="M 2113 2584 
Q 1688 2584 1439 2293 
Q 1191 2003 1191 1497 
Q 1191 994 1439 701 
Q 1688 409 2113 409 
Q 2538 409 2786 701 
Q 3034 994 3034 1497 
Q 3034 2003 2786 2293 
Q 2538 2584 2113 2584 
z
M 3366 4563 
L 3366 3988 
Q 3128 4100 2886 4159 
Q 2644 4219 2406 4219 
Q 1781 4219 1451 3797 
Q 1122 3375 1075 2522 
Q 1259 2794 1537 2939 
Q 1816 3084 2150 3084 
Q 2853 3084 3261 2657 
Q 3669 2231 3669 1497 
Q 3669 778 3244 343 
Q 2819 -91 2113 -91 
Q 1303 -91 875 529 
Q 447 1150 447 2328 
Q 447 3434 972 4092 
Q 1497 4750 2381 4750 
Q 2619 4750 2861 4703 
Q 3103 4656 3366 4563 
z
" id="DejaVuSans-36" transform="scale(0.015625)"/>
      <path d="M 1600 4347 
Q 1350 4347 1178 4173 
Q 1006 4000 1006 3750 
Q 1006 3503 1178 3333 
Q 1350 3163 1600 3163 
Q 1850 3163 2022 3333 
Q 2194 3503 2194 3750 
Q 2194 3997 2020 4172 
Q 1847 4347 1600 4347 
z
M 1600 4750 
Q 1800 4750 1984 4673 
Q 2169 4597 2303 4453 
Q 2447 4313 2519 4134 
Q 2591 3956 2591 3750 
Q 2591 3338 2302 3052 
Q 2013 2766 1594 2766 
Q 1172 2766 890 3047 
Q 609 3328 609 3750 
Q 609 4169 896 4459 
Q 1184 4750 1600 4750 
z
" id="DejaVuSans-b0" transform="scale(0.015625)"/>
     </defs>
     <use xlink:href="#DejaVuSans-4f"/>
     <use x="78.710938" xlink:href="#DejaVuSans-75"/>
     <use x="142.089844" xlink:href="#DejaVuSans-74"/>
     <use x="181.298828" xlink:href="#DejaVuSans-62"/>
     <use x="244.775391" xlink:href="#DejaVuSans-61"/>
     <use x="306.054688" xlink:href="#DejaVuSans-63"/>
     <use x="361.035156" xlink:href="#DejaVuSans-6b"/>
     <use x="418.945312" xlink:href="#DejaVuSans-20"/>
     <use x="450.732422" xlink:href="#DejaVuSans-31"/>
     <use x="514.355469" xlink:href="#DejaVuSans-34"/>
     <use x="577.978516" xlink:href="#DejaVuSans-2e"/>
     <use x="609.765625" xlink:href="#DejaVuSans-36"/>
     <use x="673.388672" xlink:href="#DejaVuSans-b0"/>
    </g>
   </g>
   <g id="text_3">
    <g id="patch_4">
     <path d="M 36.342561 37.757175 
L 41.97837 23.45402 
L 40.140286 22.729768 
L 34.504477 37.032922 
z
" style="fill:#ffffff;"/>
    </g>
    <!-- Main Run 15.8° -->
    <g style="fill:#008000;" transform="translate(35.944305 37.578755)rotate(-68.49429)scale(0.02 -0.02)">
     <defs>
      <path d="M 628 4666 
L 1569 4666 
L 2759 1491 
L 3956 4666 
L 4897 4666 
L 4897 0 
L 4281 0 
L 4281 4097 
L 3078 897 
L 2444 897 
L 1241 4097 
L 1241 0 
L 628 0 
L 628 4666 
z
" id="DejaVuSans-4d" transform="scale(0.015625)"/>
      <path d="M 603 3500 
L 1178 3500 
L 1178 0 
L 603 0 
L 603 3500 
z
M 603 4863 
L 1178 4863 
L 1178 4134 
L 603 4134 
L 603 4863 
z
" id="DejaVuSans-69" transform="scale(0.015625)"/>
      <path d="M 3513 2113 
L 3513 0 
L 2938 0 
L 2938 2094 
Q 2938 2591 2744 2837 
Q 2550 3084 2163 3084 
Q 1697 3084 1428 2787 
Q 1159 2491 1159 1978 
L 1159 0 
L 581 0 
L 581 3500 
L 1159 3500 
L 1159 2956 
Q 1366 3272 1645 3428 
Q 1925 3584 2291 3584 
Q 2894 3584 3203 3211 
Q 3513 2838 3513 2113 
z
" id="DejaVuSans-6e" transform="scale(0.015625)"/>
      <path d="M 2841 2188 
Q 3044 2119 3236 1894 
Q 3428 1669 3622 1275 
L 4263 0 
L 3584 0 
L 2988 1197 
Q 2756 1666 2539 1819 
Q 2322 1972 1947 1972 
L 1259 1972 
L 1259 0 
L 628 0 
L 628 4666 
L 2053 4666 
Q 2853 4666 3247 4331 
Q 3641 3997 3641 3322 
Q 3641 2881 3436 2590 
Q 3231 2300 2841 2188 
z
M 1259 4147 
L 1259 2491 
L 2053 2491 
Q 2509 2491 2742 2702 
Q 2975 2913 2975 3322 
Q 2975 3731 2742 3939 
Q 2509 4147 2053 4147 
L 1259 4147 
z
" id="DejaVuSans-52" transform="scale(0.015625)"/>
      <path d="M 691 4666 
L 3169 4666 
L 3169 4134 
L 1269 4134 
L 1269 2991 
Q 1406 3038 1543 3061 
Q 1681 3084 1819 3084 
Q 2600 3084 3056 2656 
Q 3513 2228 3513 1497 
Q 3513 744 3044 326 
Q 2575 -91 1722 -91 
Q 1428 -91 1123 -41 
Q 819 9 494 109 
L 494 744 
Q 775 591 1075 516 
Q 1375 441 1709 441 
Q 2250 441 2565 725 
Q 2881 1009 2881 1497 
Q 2881 1984 2565 2268 
Q 2250 2553 1709 2553 
Q 1456 2553 1204 2497 
Q 953 2441 691 2322 
L 691 4666 
z
" id="DejaVuSans-35" transform="scale(0.015625)"/>
      <path d="M 2034 2216 
Q 1584 2216 1326 1975 
Q 1069 1734 1069 1313 
Q 1069 891 1326 650 
Q 1584 409 2034 409 
Q 2484 409 2743 651 
Q 3003 894 3003 1313 
Q 3003 1734 2745 1975 
Q 2488 2216 2034 2216 
z
M 1403 2484 
Q 997 2584 770 2862 
Q 544 3141 544 3541 
Q 544 4100 942 4425 
Q 1341 4750 2034 4750 
Q 2731 4750 3128 4425 
Q 3525 4100 3525 3541 
Q 3525 3141 3298 2862 
Q 3072 2584 2669 2484 
Q 3125 2378 3379 2068 
Q 3634 1759 3634 1313 
Q 3634 634 3220 271 
Q 2806 -91 2034 -91 
Q 1263 -91 848 271 
Q 434 634 434 1313 
Q 434 1759 690 2068 
Q 947 2378 1403 2484 
z
M 1172 3481 
Q 1172 3119 1398 2916 
Q 1625 2713 2034 2713 
Q 2441 2713 2670 2916 
Q 2900 3119 2900 3481 
Q 2900 3844 2670 4047 
Q 2441 4250 2034 4250 
Q 1625 4250 1398 4047 
Q 1172 3844 1172 3481 
z
" id="DejaVuSans-38" transform="scale(0.015625)"/>
     </defs>
     <use xlink:href="#DejaVuSans-4d"/>
     <use x="86.279297" xlink:href="#DejaVuSans-61"/>
     <use x="147.558594" xlink:href="#DejaVuSans-69"/>
     <use x="175.341797" xlink:href="#DejaVuSans-6e"/>
     <use x="238.720703" xlink:href="#DejaVuSans-20"/>
     <use x="270.507812" xlink:href="#DejaVuSans-52"/>
     <use x="335.490234" xlink:href="#DejaVuSans-75"/>
     <use x="398.869141" xlink:href="#DejaVuSans-6e"/>
     <use x="462.248047" xlink:href="#DejaVuSans-20"/>
     <use x="494.035156" xlink:href="#DejaVuSans-31"/>
     <use x="557.658203" xlink:href="#DejaVuSans-35"/>
     <use x="621.28125" xlink:href="#DejaVuSans-2e"/>
     <use x="653.068359" xlink:href="#DejaVuSans-38"/>
     <use x="716.691406" xlink:href="#DejaVuSans-b0"/>
    </g>
   </g>
   <g id="text_4">
    <g id="patch_5">
     <path d="M 12.028091 58.970788 
L 27.370061 50.844475 
L 26.445326 49.098634 
L 11.103356 57.224947 
z
" style="fill:#ffffff;"/>
    </g>
    <!-- Lodge Face 22.5° -->
    <g style="fill:#4169e1;" transform="translate(11.841714 58.576193)rotate(-27.90921)scale(0.02 -0.02)">
     <defs>
      <path d="M 628 4666 
L 1259 4666 
L 1259 531 
L 3531 531 
L 3531 0 
L 628 0 
L 628 4666 
z
" id="DejaVuSans-4c" transform="scale(0.015625)"/>
      <path d="M 1959 3097 
Q 1497 3097 1228 2736 
Q 959 2375 959 1747 
Q 959 1119 1226 758 
Q 1494 397 1959 397 
Q 2419 397 2687 759 
Q 2956 1122 2956 1747 
Q 2956 2369 2687 2733 
Q 2419 3097 1959 3097 
z
M 1959 3584 
Q 2709 3584 3137 3096 
Q 3566 2609 3566 1747 
Q 3566 888 3137 398 
Q 2709 -91 1959 -91 
Q 1206 -91 779 398 
Q 353 888 353 1747 
Q 353 2609 779 3096 
Q 1206 3584 1959 3584 
z
" id="DejaVuSans-6f" transform="scale(0.015625)"/>
      <path d="M 2906 2969 
L 2906 4863 
L 3481 4863 
L 3481 0 
L 2906 0 
L 2906 525 
Q 2725 213 2448 61 
Q 2172 -91 1784 -91 
Q 1150 -91 751 415 
Q 353 922 353 1747 
Q 353 2572 751 3078 
Q 1150 3584 1784 3584 
Q 2172 3584 2448 3432 
Q 2725 3281 2906 2969 
z
M 947 1747 
Q 947 1113 1208 752 
Q 1469 391 1925 391 
Q 2381 391 2643 752 
Q 2906 1113 2906 1747 
Q 2906 2381 2643 2742 
Q 2381 3103 1925 3103 
Q 1469 3103 1208 2742 
Q 947 2381 947 1747 
z
" id="DejaVuSans-64" transform="scale(0.015625)"/>
      <path d="M 2906 1791 
Q 2906 2416 2648 2759 
Q 2391 3103 1925 3103 
Q 1463 3103 1205 2759 
Q 947 2416 947 1791 
Q 947 1169 1205 825 
Q 1463 481 1925 481 
Q 2391 481 2648 825 
Q 2906 1169 2906 1791 
z
M 3481 434 
Q 3481 -459 3084 -895 
Q 2688 -1331 1869 -1331 
Q 1566 -1331 1297 -1286 
Q 1028 -1241 775 -1147 
L 775 -588 
Q 1028 -725 1275 -790 
Q 1522 -856 1778 -856 
Q 2344 -856 2625 -561 
Q 2906 -266 2906 331 
L 2906 616 
Q 2728 306 2450 153 
Q 2172 0 1784 0 
Q 1141 0 747 490 
Q 353 981 353 1791 
Q 353 2603 747 3093 
Q 1141 3584 1784 3584 
Q 2172 3584 2450 3431 
Q 2728 3278 2906 2969 
L 2906 3500 
L 3481 3500 
L 3481 434 
z
" id="DejaVuSans-67" transform="scale(0.015625)"/>
      <path d="M 3597 1894 
L 3597 1613 
L 953 1613 
Q 991 1019 1311 708 
Q 1631 397 2203 397 
Q 2534 397 2845 478 
Q 3156 559 3463 722 
L 3463 178 
Q 3153 47 2828 -22 
Q 2503 -91 2169 -91 
Q 1331 -91 842 396 
Q 353 884 353 1716 
Q 353 2575 817 3079 
Q 1281 3584 2069 3584 
Q 2775 3584 3186 3129 
Q 3597 2675 3597 1894 
z
M 3022 2063 
Q 3016 2534 2758 2815 
Q 2500 3097 2075 3097 
Q 1594 3097 1305 2825 
Q 1016 2553 972 2059 
L 3022 2063 
z
" id="DejaVuSans-65" transform="scale(0.015625)"/>
      <path d="M 628 4666 
L 3309 4666 
L 3309 4134 
L 1259 4134 
L 1259 2759 
L 3109 2759 
L 3109 2228 
L 1259 2228 
L 1259 0 
L 628 0 
L 628 4666 
z
" id="DejaVuSans-46" transform="scale(0.015625)"/>
      <path d="M 1228 531 
L 3431 531 
L 3431 0 
L 469 0 
L 469 531 
Q 828 903 1448 1529 
Q 2069 2156 2228 2338 
Q 2531 2678 2651 2914 
Q 2772 3150 2772 3378 
Q 2772 3750 2511 3984 
Q 2250 4219 1831 4219 
Q 1534 4219 1204 4116 
Q 875 4013 500 3803 
L 500 4441 
Q 881 4594 1212 4672 
Q 1544 4750 1819 4750 
Q 2544 4750 2975 4387 
Q 3406 4025 3406 3419 
Q 3406 3131 3298 2873 
Q 3191 2616 2906 2266 
Q 2828 2175 2409 1742 
Q 1991 1309 1228 531 
z
" id="DejaVuSans-32" transform="scale(0.015625)"/>
     </defs>
     <use xlink:href="#DejaVuSans-4c"/>
     <use x="53.962891" xlink:href="#DejaVuSans-6f"/>
     <use x="115.144531" xlink:href="#DejaVuSans-64"/>
     <use x="178.621094" xlink:href="#DejaVuSans-67"/>
     <use x="242.097656" xlink:href="#DejaVuSans-65"/>
     <use x="303.621094" xlink:href="#DejaVuSans-20"/>
     <use x="335.408203" xlink:href="#DejaVuSans-46"/>
     <use x="383.802734" xlink:href="#DejaVuSans-61"/>
     <use x="445.082031" xlink:href="#DejaVuSans-63"/>
     <use x="500.0625" xlink:href="#DejaVuSans-65"/>
     <use x="561.585938" xlink:href="#DejaVuSans-20"/>
     <use x="593.373047" xlink:href="#DejaVuSans-32"/>
     <use x="656.996094" xlink:href="#DejaVuSans-32"/>
     <use x="720.619141" xlink:href="#DejaVuSans-2e"/>
     <use x="752.40625" xlink:href="#DejaVuSans-35"/>
     <use x="816.029297" xlink:href="#DejaVuSans-b0"/>
    </g>
   </g>
   <g id="text_5">
    <g id="patch_6">
     <path d="M 26.549833 28.473688 
L 40.629886 21.993533 
L 39.803911 20.198858 
L 25.723858 26.679013 
z
" style="fill:#ffffff;"/>
    </g>
    <!-- Race Run 23.2° -->
    <g style="fill:#4169e1;" transform="translate(26.385743 28.069317)rotate(-24.713617)scale(0.02 -0.02)">
     <defs>
      <path d="M 2597 2516 
Q 3050 2419 3304 2112 
Q 3559 1806 3559 1356 
Q 3559 666 3084 287 
Q 2609 -91 1734 -91 
Q 1441 -91 1130 -33 
Q 819 25 488 141 
L 488 750 
Q 750 597 1062 519 
Q 1375 441 1716 441 
Q 2309 441 2620 675 
Q 2931 909 2931 1356 
Q 2931 1769 2642 2001 
Q 2353 2234 1838 2234 
L 1294 2234 
L 1294 2753 
L 1863 2753 
Q 2328 2753 2575 2939 
Q 2822 3125 2822 3475 
Q 2822 3834 2567 4026 
Q 2313 4219 1838 4219 
Q 1578 4219 1281 4162 
Q 984 4106 628 3988 
L 628 4550 
Q 988 4650 1302 4700 
Q 1616 4750 1894 4750 
Q 2613 4750 3031 4423 
Q 3450 4097 3450 3541 
Q 3450 3153 3228 2886 
Q 3006 2619 2597 2516 
z
" id="DejaVuSans-33" transform="scale(0.015625)"/>
     </defs>
     <use xlink:href="#DejaVuSans-52"/>
     <use x="67.232422" xlink:href="#DejaVuSans-61"/>
     <use x="128.511719" xlink:href="#DejaVuSans-63"/>
     <use x="183.492188" xlink:href="#DejaVuSans-65"/>
     <use x="245.015625" xlink:href="#DejaVuSans-20"/>
     <use x="276.802734" xlink:href="#DejaVuSans-52"/>
     <use x="341.785156" xlink:href="#DejaVuSans-75"/>
     <use x="405.164062" xlink:href="#DejaVuSans-6e"/>
     <use x="468.542969" xlink:href="#DejaVuSans-20"/>
     <use x="500.330078" xlink:href="#DejaVuSans-32"/>
     <use x="563.953125" xlink:href="#DejaVuSans-33"/>
     <use x="627.576172" xlink:href="#DejaVuSans-2e"/>
     <use x="659.363281" xlink:href="#DejaVuSans-32"/>
     <use x="722.986328" xlink:href="#DejaVuSans-b0"/>
    </g>
   </g>
   <g id="text_6">
    <g id="patch_7">
     <path d="M 15.275192 49.580657 
L 25.670009 36.856548 
L 24.140027 35.606647 
L 13.74521 48.330756 
z
" style="fill:#ffffff;"/>
    </g>
    <!-- The Chute 24.3° -->
    <g transform="translate(14.950242 49.289368)rotate(-50.753284)scale(0.02 -0.02)">
     <defs>
      <path d="M -19 4666 
L 3928 4666 
L 3928 4134 
L 2272 4134 
L 2272 0 
L 1638 0 
L 1638 4134 
L -19 4134 
L -19 4666 
z
" id="DejaVuSans-54" transform="scale(0.015625)"/>
      <path d="M 3513 2113 
L 3513 0 
L 2938 0 
L 2938 2094 
Q 2938 2591 2744 2837 
Q 2550 3084 2163 3084 
Q 1697 3084 1428 2787 
Q 1159 2491 1159 1978 
L 1159 0 
L 581 0 
L 581 4863 
L 1159 4863 
L 1159 2956 
Q 1366 3272 1645 3428 
Q 1925 3584 2291 3584 
Q 2894 3584 3203 3211 
Q 3513 2838 3513 2113 
z
" id="DejaVuSans-68" transform="scale(0.015625)"/>
      <path d="M 4122 4306 
L 4122 3641 
Q 3803 3938 3442 4084 
Q 3081 4231 2675 4231 
Q 1875 4231 1450 3742 
Q 1025 3253 1025 2328 
Q 1025 1406 1450 917 
Q 1875 428 2675 428 
Q 3081 428 3442 575 
Q 3803 722 4122 1019 
L 4122 359 
Q 3791 134 3420 21 
Q 3050 -91 2638 -91 
Q 1578 -91 968 557 
Q 359 1206 359 2328 
Q 359 3453 968 4101 
Q 1578 4750 2638 4750 
Q 3056 4750 3426 4639 
Q 3797 4528 4122 4306 
z
" id="DejaVuSans-43" transform="scale(0.015625)"/>
     </defs>
     <use xlink:href="#DejaVuSans-54"/>
     <use x="61.083984" xlink:href="#DejaVuSans-68"/>
     <use x="124.462891" xlink:href="#DejaVuSans-65"/>
     <use x="185.986328" xlink:href="#DejaVuSans-20"/>
     <use x="217.773438" xlink:href="#DejaVuSans-43"/>
     <use x="287.597656" xlink:href="#DejaVuSans-68"/>
     <use x="350.976562" xlink:href="#DejaVuSans-75"/>
     <use x="414.355469" xlink:href="#DejaVuSans-74"/>
     <use x="453.564453" xlink:href="#DejaVuSans-65"/>
     <use x="515.087891" xlink:href="#DejaVuSans-20"/>
     <use x="546.875" xlink:href="#DejaVuSans-32"/>
     <use x="610.498047" xlink:href="#DejaVuSans-34"/>
     <use x="674.121094" xlink:href="#DejaVuSans-2e"/>
     <use x="705.908203" xlink:href="#DejaVuSans-33"/>
     <use x="769.53125" xlink:href="#DejaVuSans-b0"/>
    </g>
   </g>
   <g id="text_7">
    <g id="patch_8">
     <path d="M 8.88871 54.751865 
L 11.458524 69.998689 
L 13.406672 69.670333 
L 10.836857 54.42351 
z
" style="fill:#ffffff;"/>
    </g>
    <!-- Lift Access 7.6° -->
    <g style="fill:#008000;" transform="translate(9.321909 54.699133)rotate(-279.567142)scale(0.02 -0.02)">
     <defs>
      <path d="M 2375 4863 
L 2375 4384 
L 1825 4384 
Q 1516 4384 1395 4259 
Q 1275 4134 1275 3809 
L 1275 3500 
L 2222 3500 
L 2222 3053 
L 1275 3053 
L 1275 0 
L 697 0 
L 697 3053 
L 147 3053 
L 147 3500 
L 697 3500 
L 697 3744 
Q 697 4328 969 4595 
Q 1241 4863 1831 4863 
L 2375 4863 
z
" id="DejaVuSans-66" transform="scale(0.015625)"/>
      <path d="M 2188 4044 
L 1331 1722 
L 3047 1722 
L 2188 4044 
z
M 1831 4666 
L 2547 4666 
L 4325 0 
L 3669 0 
L 3244 1197 
L 1141 1197 
L 716 0 
L 50 0 
L 1831 4666 
z
" id="DejaVuSans-41" transform="scale(0.015625)"/>
      <path d="M 2834 3397 
L 2834 2853 
Q 2591 2978 2328 3040 
Q 2066 3103 1784 3103 
Q 1356 3103 1142 2972 
Q 928 2841 928 2578 
Q 928 2378 1081 2264 
Q 1234 2150 1697 2047 
L 1894 2003 
Q 2506 1872 2764 1633 
Q 3022 1394 3022 966 
Q 3022 478 2636 193 
Q 2250 -91 1575 -91 
Q 1294 -91 989 -36 
Q 684 19 347 128 
L 347 722 
Q 666 556 975 473 
Q 1284 391 1588 391 
Q 1994 391 2212 530 
Q 2431 669 2431 922 
Q 2431 1156 2273 1281 
Q 2116 1406 1581 1522 
L 1381 1569 
Q 847 1681 609 1914 
Q 372 2147 372 2553 
Q 372 3047 722 3315 
Q 1072 3584 1716 3584 
Q 2034 3584 2315 3537 
Q 2597 3491 2834 3397 
z
" id="DejaVuSans-73" transform="scale(0.015625)"/>
      <path d="M 525 4666 
L 3525 4666 
L 3525 4397 
L 1831 0 
L 1172 0 
L 2766 4134 
L 525 4134 
L 525 4666 
z
" id="DejaVuSans-37" transform="scale(0.015625)"/>
     </defs>
     <use xlink:href="#DejaVuSans-4c"/>
     <use x="55.712891" xlink:href="#DejaVuSans-69"/>
     <use x="83.496094" xlink:href="#DejaVuSans-66"/>
     <use x="116.951172" xlink:href="#DejaVuSans-74"/>
     <use x="156.160156" xlink:href="#DejaVuSans-20"/>
     <use x="187.947266" xlink:href="#DejaVuSans-41"/>
     <use x="254.605469" xlink:href="#DejaVuSans-63"/>
     <use x="309.585938" xlink:href="#DejaVuSans-63"/>
     <use x="364.566406" xlink:href="#DejaVuSans-65"/>
     <use x="426.089844" xlink:href="#DejaVuSans-73"/>
     <use x="478.189453" xlink:href="#DejaVuSans-73"/>
     <use x="530.289062" xlink:href="#DejaVuSans-20"/>
     <use x="562.076172" xlink:href="#DejaVuSans-37"/>
     <use x="625.699219" xlink:href="#DejaVuSans-2e"/>
     <use x="657.486328" xlink:href="#DejaVuSans-36"/>
     <use x="721.109375" xlink:href="#DejaVuSans-b0"/>
    </g>
   </g>
   <g id="text_8">
    <g id="patch_9">
     <path d="M 20.913633 64.917894 
L 39.398175 62.569476 
L 39.149178 60.609605 
L 20.664636 62.958023 
z
" style="fill:#ffffff;"/>
    </g>
    <!-- Get Back Trail 8.4° -->
    <g style="fill:#008000;" transform="translate(20.878531 64.482913)rotate(-7.240506)scale(0.02 -0.02)">
     <defs>
      <path d="M 3809 666 
L 3809 1919 
L 2778 1919 
L 2778 2438 
L 4434 2438 
L 4434 434 
Q 4069 175 3628 42 
Q 3188 -91 2688 -91 
Q 1594 -91 976 548 
Q 359 1188 359 2328 
Q 359 3472 976 4111 
Q 1594 4750 2688 4750 
Q 3144 4750 3555 4637 
Q 3966 4525 4313 4306 
L 4313 3634 
Q 3963 3931 3569 4081 
Q 3175 4231 2741 4231 
Q 1884 4231 1454 3753 
Q 1025 3275 1025 2328 
Q 1025 1384 1454 906 
Q 1884 428 2741 428 
Q 3075 428 3337 486 
Q 3600 544 3809 666 
z
" id="DejaVuSans-47" transform="scale(0.015625)"/>
      <path d="M 1259 2228 
L 1259 519 
L 2272 519 
Q 2781 519 3026 730 
Q 3272 941 3272 1375 
Q 3272 1813 3026 2020 
Q 2781 2228 2272 2228 
L 1259 2228 
z
M 1259 4147 
L 1259 2741 
L 2194 2741 
Q 2656 2741 2882 2914 
Q 3109 3088 3109 3444 
Q 3109 3797 2882 3972 
Q 2656 4147 2194 4147 
L 1259 4147 
z
M 628 4666 
L 2241 4666 
Q 2963 4666 3353 4366 
Q 3744 4066 3744 3513 
Q 3744 3084 3544 2831 
Q 3344 2578 2956 2516 
Q 3422 2416 3680 2098 
Q 3938 1781 3938 1306 
Q 3938 681 3513 340 
Q 3088 0 2303 0 
L 628 0 
L 628 4666 
z
" id="DejaVuSans-42" transform="scale(0.015625)"/>
      <path d="M 2631 2963 
Q 2534 3019 2420 3045 
Q 2306 3072 2169 3072 
Q 1681 3072 1420 2755 
Q 1159 2438 1159 1844 
L 1159 0 
L 581 0 
L 581 3500 
L 1159 3500 
L 1159 2956 
Q 1341 3275 1631 3429 
Q 1922 3584 2338 3584 
Q 2397 3584 2469 3576 
Q 2541 3569 2628 3553 
L 2631 2963 
z
" id="DejaVuSans-72" transform="scale(0.015625)"/>
      <path d="M 603 4863 
L 1178 4863 
L 1178 0 
L 603 0 
L 603 4863 
z
" id="DejaVuSans-6c" transform="scale(0.015625)"/>
     </defs>
     <use xlink:href="#DejaVuSans-47"/>
     <use x="77.490234" xlink:href="#DejaVuSans-65"/>
     <use x="139.013672" xlink:href="#DejaVuSans-74"/>
     <use x="178.222656" xlink:href="#DejaVuSans-20"/>
     <use x="210.009766" xlink:href="#DejaVuSans-42"/>
     <use x="278.613281" xlink:href="#DejaVuSans-61"/>
     <use x="339.892578" xlink:href="#DejaVuSans-63"/>
     <use x="394.873047" xlink:href="#DejaVuSans-6b"/>
     <use x="452.783203" xlink:href="#DejaVuSans-20"/>
     <use x="484.570312" xlink:href="#DejaVuSans-54"/>
     <use x="530.904297" xlink:href="#DejaVuSans-72"/>
     <use x="572.017578" xlink:href="#DejaVuSans-61"/>
     <use x="633.296875" xlink:href="#DejaVuSans-69"/>
     <use x="661.080078" xlink:href="#DejaVuSans-6c"/>
     <use x="688.863281" xlink:href="#DejaVuSans-20"/>
     <use x="720.650391" xlink:href="#DejaVuSans-38"/>
     <use x="784.273438" xlink:href="#DejaVuSans-2e"/>
     <use x="816.060547" xlink:href="#DejaVuSans-34"/>
     <use x="879.683594" xlink:href="#DejaVuSans-b0"/>
    </g>
   </g>
   <g id="text_9">
    <!-- Little Ski Hill -->
    <g transform="translate(11.429883 5.308977)scale(0.05 -0.05)">
     <defs>
      <path d="M 3425 4513 
L 3425 3897 
Q 3066 4069 2747 4153 
Q 2428 4238 2131 4238 
Q 1616 4238 1336 4038 
Q 1056 3838 1056 3469 
Q 1056 3159 1242 3001 
Q 1428 2844 1947 2747 
L 2328 2669 
Q 3034 2534 3370 2195 
Q 3706 1856 3706 1288 
Q 3706 609 3251 259 
Q 2797 -91 1919 -91 
Q 1588 -91 1214 -16 
Q 841 59 441 206 
L 441 856 
Q 825 641 1194 531 
Q 1563 422 1919 422 
Q 2459 422 2753 634 
Q 3047 847 3047 1241 
Q 3047 1584 2836 1778 
Q 2625 1972 2144 2069 
L 1759 2144 
Q 1053 2284 737 2584 
Q 422 2884 422 3419 
Q 422 4038 858 4394 
Q 1294 4750 2059 4750 
Q 2388 4750 2728 4690 
Q 3069 4631 3425 4513 
z
" id="DejaVuSans-53" transform="scale(0.015625)"/>
      <path d="M 628 4666 
L 1259 4666 
L 1259 2753 
L 3553 2753 
L 3553 4666 
L 4184 4666 
L 4184 0 
L 3553 0 
L 3553 2222 
L 1259 2222 
L 1259 0 
L 628 0 
L 628 4666 
z
" id="DejaVuSans-48" transform="scale(0.015625)"/>
     </defs>
     <use xlink:href="#DejaVuSans-4c"/>
     <use x="55.712891" xlink:href="#DejaVuSans-69"/>
     <use x="83.496094" xlink:href="#DejaVuSans-74"/>
     <use x="122.705078" xlink:href="#DejaVuSans-74"/>
     <use x="161.914062" xlink:href="#DejaVuSans-6c"/>
     <use x="189.697266" xlink:href="#DejaVuSans-65"/>
     <use x="251.220703" xlink:href="#DejaVuSans-20"/>
     <use x="283.007812" xlink:href="#DejaVuSans-53"/>
     <use x="346.484375" xlink:href="#DejaVuSans-6b"/>
     <use x="404.394531" xlink:href="#DejaVuSans-69"/>
     <use x="432.177734" xlink:href="#DejaVuSans-20"/>
     <use x="463.964844" xlink:href="#DejaVuSans-48"/>
     <use x="539.160156" xlink:href="#DejaVuSans-69"/>
     <use x="566.943359" xlink:href="#DejaVuSans-6c"/>
     <use x="594.726562" xlink:href="#DejaVuSans-6c"/>
    </g>
   </g>
  </g>
  <g id="text_10">
   <!-- Sources: USGS and OpenStreetMaps -->
   <g transform="translate(7.16205 91.874257)scale(0.021739 -0.021739)">
    <defs>
     <path d="M 750 794 
L 1409 794 
L 1409 0 
L 750 0 
L 750 794 
z
M 750 3309 
L 1409 3309 
L 1409 2516 
L 750 2516 
L 750 3309 
z
" id="DejaVuSans-3a" transform="scale(0.015625)"/>
     <path d="M 556 4666 
L 1191 4666 
L 1191 1831 
Q 1191 1081 1462 751 
Q 1734 422 2344 422 
Q 2950 422 3222 751 
Q 3494 1081 3494 1831 
L 3494 4666 
L 4128 4666 
L 4128 1753 
Q 4128 841 3676 375 
Q 3225 -91 2344 -91 
Q 1459 -91 1007 375 
Q 556 841 556 1753 
L 556 4666 
z
" id="DejaVuSans-55" transform="scale(0.015625)"/>
     <path d="M 1159 525 
L 1159 -1331 
L 581 -1331 
L 581 3500 
L 1159 3500 
L 1159 2969 
Q 1341 3281 1617 3432 
Q 1894 3584 2278 3584 
Q 2916 3584 3314 3078 
Q 3713 2572 3713 1747 
Q 3713 922 3314 415 
Q 2916 -91 2278 -91 
Q 1894 -91 1617 61 
Q 1341 213 1159 525 
z
M 3116 1747 
Q 3116 2381 2855 2742 
Q 2594 3103 2138 3103 
Q 1681 3103 1420 2742 
Q 1159 2381 1159 1747 
Q 1159 1113 1420 752 
Q 1681 391 2138 391 
Q 2594 391 2855 752 
Q 3116 1113 3116 1747 
z
" id="DejaVuSans-70" transform="scale(0.015625)"/>
    </defs>
    <use xlink:href="#DejaVuSans-53"/>
    <use x="63.476562" xlink:href="#DejaVuSans-6f"/>
    <use x="124.658203" xlink:href="#DejaVuSans-75"/>
    <use x="188.037109" xlink:href="#DejaVuSans-72"/>
    <use x="226.900391" xlink:href="#DejaVuSans-63"/>
    <use x="281.880859" xlink:href="#DejaVuSans-65"/>
    <use x="343.404297" xlink:href="#DejaVuSans-73"/>
    <use x="395.503906" xlink:href="#DejaVuSans-3a"/>
    <use x="429.195312" xlink:href="#DejaVuSans-20"/>
    <use x="460.982422" xlink:href="#DejaVuSans-55"/>
    <use x="534.175781" xlink:href="#DejaVuSans-53"/>
    <use x="597.652344" xlink:href="#DejaVuSans-47"/>
    <use x="675.142578" xlink:href="#DejaVuSans-53"/>
    <use x="738.619141" xlink:href="#DejaVuSans-20"/>
    <use x="770.40625" xlink:href="#DejaVuSans-61"/>
    <use x="831.685547" xlink:href="#DejaVuSans-6e"/>
    <use x="895.064453" xlink:href="#DejaVuSans-64"/>
    <use x="958.541016" xlink:href="#DejaVuSans-20"/>
    <use x="990.328125" xlink:href="#DejaVuSans-4f"/>
    <use x="1069.039062" xlink:href="#DejaVuSans-70"/>
    <use x="1132.515625" xlink:href="#DejaVuSans-65"/>
    <use x="1194.039062" xlink:href="#DejaVuSans-6e"/>
    <use x="1257.417969" xlink:href="#DejaVuSans-53"/>
    <use x="1320.894531" xlink:href="#DejaVuSans-74"/>
    <use x="1360.103516" xlink:href="#DejaVuSans-72"/>
    <use x="1398.966797" xlink:href="#DejaVuSans-65"/>
    <use x="1460.490234" xlink:href="#DejaVuSans-65"/>
    <use x="1522.013672" xlink:href="#DejaVuSans-74"/>
    <use x="1561.222656" xlink:href="#DejaVuSans-4d"/>
    <use x="1647.501953" xlink:href="#DejaVuSans-61"/>
    <use x="1708.78125" xlink:href="#DejaVuSans-70"/>
    <use x="1772.257812" xlink:href="#DejaVuSans-73"/>
   </g>
  </g>
 </g>
 <defs>
  <clipPath id="p3c195be448">
   <rect height="76.708409" width="53.984767" x="0" y="7.808977"/>
  </clipPath>
 </defs>
</svg>
