<?xml version="1.0" encoding="utf-8" standalone="no"?>
<!DOCTYPE svg PUBLIC "-//W3C//DTD SVG 1.1//EN"
  "http://www.w3.org/Graphics/SVG/1.1/DTD/svg11.dtd">
<svg height="275.78188pt" version="1.1" viewBox="0 0 239.846721 275.78188" width="239.846721pt" xmlns="http://www.w3.org/2000/svg" xmlns:xlink="http://www.w3.org/1999/xlink">
 <metadata>
  <rdf:RDF xmlns:cc="http://creativecommons.org/ns#" xmlns:dc="http://purl.org/dc/elements/1.1/" xmlns:rdf="http://www.w3.org/1999/02/22-rdf-syntax-ns#">
   <cc:Work>
    <dc:type rdf:resource="http://purl.org/dc/dcmitype/StillImage"/>
    <dc:date>2022-05-22T18:15:57.909867</dc:date>
    <dc:format>image/svg+xml</dc:format>
    <dc:creator>
     <cc:Agent>
      <dc:title>Matplotlib v3.4.3, https://matplotlib.org/</dc:title>
     </cc:Agent>
    </dc:creator>
   </cc:Work>
  </rdf:RDF>
 </metadata>
 <defs>
  <style type="text/css">*{stroke-linecap:butt;stroke-linejoin:round;}</style>
 </defs>
 <g id="figure_1">
  <g id="patch_1">
   <path d="M 0 275.78188 
L 239.846721 275.78188 
L 239.846721 0 
L 0 0 
z
" style="fill:#ffffff;"/>
  </g>
  <g id="axes_1">
   <g id="line2d_1">
    <path clip-path="url(#p76b38d6f7f)" d="M 157.345802 45.023115 
" style="fill:none;stroke:#008000;stroke-linecap:square;stroke-width:0.001;"/>
   </g>
   <g id="line2d_2">
    <path clip-path="url(#p76b38d6f7f)" d="M 157.345802 45.023115 
" style="fill:none;stroke:#4169e1;stroke-linecap:square;stroke-width:0.001;"/>
   </g>
   <g id="line2d_3">
    <path clip-path="url(#p76b38d6f7f)" d="M 157.345802 45.023115 
" style="fill:none;stroke:#000000;stroke-linecap:square;stroke-width:0.001;"/>
   </g>
   <g id="line2d_4">
    <path clip-path="url(#p76b38d6f7f)" d="M 157.345802 45.023115 
" style="fill:none;stroke:#ff0000;stroke-linecap:square;stroke-width:0.001;"/>
   </g>
   <g id="line2d_5">
    <path clip-path="url(#p76b38d6f7f)" d="M 157.345802 45.023115 
" style="fill:none;stroke:#ffd700;stroke-linecap:square;stroke-width:0.001;"/>
   </g>
   <g id="line2d_6">
    <path clip-path="url(#p76b38d6f7f)" d="M 157.345802 45.023115 
" style="fill:none;stroke:#000000;stroke-dasharray:0.001,0.00165;stroke-dashoffset:0;stroke-width:0.001;"/>
   </g>
   <g id="line2d_7">
    <path clip-path="url(#p76b38d6f7f)" d="M 97.90164 211.202471 
L 99.11128 207.979694 
L 100.320921 204.756917 
L 102.064783 199.291184 
L 103.718396 194.818308 
L 105.372008 190.345433 
L 106.990685 185.835451 
L 108.609362 181.325468 
L 109.925993 177.735133 
L 111.242623 174.144798 
L 112.843832 169.683958 
L 115.031666 163.862701 
L 117.2195 158.041444 
L 118.980103 153.151869 
L 120.740705 148.262294 
L 122.662156 142.845702 
L 123.989704 139.160093 
L 125.317252 135.474484 
L 127.273638 129.49427 
L 128.75039 125.49927 
L 130.227141 121.50427 
L 131.881481 116.871935 
L 133.535822 112.239601 
L 134.887388 108.563018 
L 136.238954 104.886435 
L 137.412931 101.706531 
L 138.586909 98.526627 
L 139.760886 95.346724 
L 140.934864 92.16682 
L 142.161972 88.453632 
L 143.38908 84.740443 
L 145.594382 78.93072 
L 146.822218 75.315814 
L 148.050055 71.700908 
L 149.668732 67.093144 
L 151.287409 62.485381 
L 152.354396 59.299209 
L 153.741625 55.965613 
L 155.431629 51.295169 
" style="fill:none;stroke:#808080;stroke-linecap:square;stroke-width:1.110401;"/>
   </g>
   <g id="line2d_8">
    <path clip-path="url(#p76b38d6f7f)" d="M 157.345802 45.023115 
L 158.362206 44.584853 
L 159.37861 44.146592 
L 160.395013 43.70833 
L 161.411417 43.270068 
L 163.295749 42.977727 
L 165.180081 42.685385 
L 166.146993 43.318458 
L 167.113905 43.95153 
L 168.080817 44.584602 
L 169.047729 45.217675 
L 169.568486 46.556529 
L 170.089243 47.895383 
L 170.61 49.234237 
L 171.130757 50.573091 
L 171.403326 52.155395 
L 171.675896 53.7377 
L 171.948465 55.320005 
L 172.221035 56.90231 
L 172.162081 58.411404 
L 172.103128 59.920498 
L 172.044174 61.429592 
L 171.98522 62.938686 
" style="fill:none;stroke:#008000;stroke-linecap:square;stroke-width:1.110401;"/>
   </g>
   <g id="line2d_9">
    <path clip-path="url(#p76b38d6f7f)" d="M 159.031438 51.546894 
L 159.552013 52.557177 
L 160.072588 53.56746 
L 160.593163 54.577743 
L 161.113738 55.588026 
L 161.634313 56.598309 
L 162.154888 57.608593 
L 162.675463 58.618876 
L 163.196038 59.629159 
L 164.294686 60.04285 
L 165.393333 60.456541 
L 166.491981 60.870231 
L 167.590629 61.283922 
L 168.689277 61.697613 
L 169.787925 62.111304 
L 170.886573 62.524995 
L 171.98522 62.938686 
" style="fill:none;stroke:#4169e1;stroke-linecap:square;stroke-width:1.110401;"/>
   </g>
   <g id="line2d_10">
    <path clip-path="url(#p76b38d6f7f)" d="M 169.538282 70.728108 
L 170.716626 72.055178 
L 171.89497 73.382248 
L 173.073315 74.709318 
L 174.251659 76.036388 
L 175.430003 77.363458 
L 176.608348 78.690528 
L 177.786692 80.017598 
L 178.965037 81.344668 
L 179.535285 82.866173 
L 180.105534 84.387678 
L 180.675783 85.909182 
L 181.246032 87.430687 
L 181.816281 88.952192 
L 182.386529 90.473697 
L 182.956778 91.995201 
L 183.527027 93.516706 
L 184.041415 94.563469 
L 184.555804 95.610232 
L 185.070192 96.656996 
L 185.584581 97.703759 
L 186.098969 98.750522 
L 186.613358 99.797285 
L 187.127746 100.844048 
L 187.642135 101.890811 
L 188.156523 102.937575 
L 188.670911 103.984338 
L 189.1853 105.031101 
L 189.699688 106.077864 
L 190.214077 107.124627 
L 190.728465 108.17139 
L 191.242854 109.218154 
L 191.757242 110.264917 
L 192.773828 111.372605 
L 193.790414 112.480294 
L 194.807 113.587982 
L 195.823586 114.695671 
L 196.840171 115.803359 
L 197.856757 116.911048 
L 198.873343 118.018737 
L 199.889929 119.126425 
L 200.4539 120.410622 
L 201.017872 121.694818 
L 201.581843 122.979015 
L 202.145814 124.263212 
L 202.709786 125.547408 
L 203.273757 126.831605 
L 203.837728 128.115802 
L 204.4017 129.399998 
L 204.965671 130.684195 
L 205.529642 131.968391 
L 206.093614 133.252588 
L 206.657585 134.536785 
L 207.221556 135.820981 
L 207.785528 137.105178 
L 208.349499 138.389375 
L 208.91347 139.673571 
" style="fill:none;stroke:#000000;stroke-linecap:square;stroke-width:1.110401;"/>
   </g>
   <g id="line2d_11">
    <path clip-path="url(#p76b38d6f7f)" d="M 165.059263 76.264043 
L 165.438731 77.238849 
L 165.8182 78.213655 
L 166.197668 79.188461 
L 166.577136 80.163268 
L 166.956605 81.138074 
L 167.336073 82.11288 
L 167.715542 83.087686 
L 168.09501 84.062492 
L 168.474478 85.037298 
L 168.853947 86.012104 
L 169.233415 86.98691 
L 169.612883 87.961716 
L 169.992352 88.936522 
L 170.37182 89.911328 
L 170.751289 90.886134 
L 171.130757 91.86094 
L 171.341461 93.382445 
L 171.552166 94.903949 
L 171.762871 96.425454 
L 171.973575 97.946959 
L 172.18428 99.468464 
L 172.394984 100.989968 
L 172.605689 102.511473 
L 172.816393 104.032978 
L 172.841139 105.907499 
L 172.865885 107.78202 
L 172.890631 109.656541 
L 172.915377 111.531061 
L 172.940123 113.405582 
L 172.964869 115.280103 
L 172.989615 117.154624 
L 173.014361 119.029145 
L 173.101154 120.051588 
L 173.187947 121.074031 
L 173.27474 122.096475 
L 173.361532 123.118918 
L 173.448325 124.141361 
L 173.535118 125.163804 
L 173.621911 126.186247 
L 173.708704 127.20869 
L 173.795496 128.231133 
L 173.882289 129.253577 
L 173.969082 130.27602 
L 174.055875 131.298463 
L 174.142668 132.320906 
L 174.229461 133.343349 
L 174.316253 134.365792 
L 174.403046 135.388236 
L 174.344138 136.41375 
L 174.28523 137.439265 
L 174.226322 138.464779 
L 174.167414 139.490294 
L 174.108506 140.515808 
L 174.049597 141.541323 
L 173.990689 142.566837 
L 173.931781 143.592352 
L 173.872873 144.617866 
L 173.813965 145.643381 
L 173.755057 146.668895 
L 173.696149 147.69441 
L 173.637241 148.719924 
L 173.578332 149.745439 
L 173.519424 150.770953 
L 173.460516 151.796468 
L 173.401608 152.821982 
L 173.3427 153.847497 
L 173.283792 154.873011 
L 173.224884 155.898526 
L 173.165976 156.92404 
L 173.107068 157.949555 
L 173.048159 158.975069 
L 172.989251 160.000584 
L 172.930343 161.026098 
L 172.871435 162.051613 
L 172.812527 163.077127 
L 172.753619 164.102642 
L 172.694711 165.128156 
L 172.635803 166.153671 
L 172.576894 167.179185 
L 172.517986 168.2047 
" style="fill:none;stroke:#ff0000;stroke-linecap:square;stroke-width:1.110401;"/>
   </g>
   <g id="line2d_12">
    <path clip-path="url(#p76b38d6f7f)" d="M 208.91347 139.673571 
L 208.566481 140.744654 
L 208.219492 141.815738 
L 207.872502 142.886821 
L 207.525513 143.957904 
L 207.178524 145.028987 
L 206.831535 146.10007 
L 206.484545 147.171153 
L 206.137556 148.242237 
L 205.864805 149.19172 
L 205.592053 150.141203 
L 205.319302 151.090686 
L 205.04655 152.040169 
L 204.773799 152.989652 
L 204.501047 153.939135 
L 204.228296 154.888619 
L 203.955545 155.838102 
L 203.013379 156.629254 
L 202.071213 157.420406 
L 201.129047 158.211559 
L 200.18688 159.002711 
L 199.244714 159.793864 
L 198.302548 160.585016 
L 197.360382 161.376168 
L 196.418216 162.167321 
L 194.924452 162.544657 
L 193.430688 162.921993 
L 191.936923 163.299329 
L 190.443159 163.676665 
L 188.949394 164.054002 
L 187.45563 164.431338 
L 185.961866 164.808674 
L 184.468101 165.18601 
L 182.974337 165.563346 
L 181.480573 165.940682 
L 179.986808 166.318019 
L 178.493044 166.695355 
L 176.999279 167.072691 
L 175.505515 167.450027 
L 174.011751 167.827363 
L 172.517986 168.2047 
L 171.427163 168.49071 
L 170.336339 168.776721 
L 169.245515 169.062732 
L 168.154691 169.348743 
L 167.063868 169.634754 
L 165.973044 169.920764 
L 164.88222 170.206775 
L 163.791396 170.492786 
L 162.700573 170.778797 
L 161.609749 171.064808 
L 160.518925 171.350818 
L 159.428101 171.636829 
L 158.337278 171.92284 
L 157.246454 172.208851 
L 156.15563 172.494862 
L 155.064806 172.780872 
L 154.048039 173.170494 
L 153.031271 173.560115 
L 152.014503 173.949737 
L 150.997735 174.339359 
L 150.241528 175.142671 
L 149.48532 175.945983 
L 148.729113 176.749296 
L 147.972906 177.552608 
L 147.216698 178.35592 
L 146.460491 179.159233 
L 145.704283 179.962545 
L 144.948076 180.765858 
L 144.105258 181.545101 
L 143.262439 182.324344 
L 142.419621 183.103587 
L 141.576803 183.88283 
L 139.989422 184.27195 
L 138.402042 184.66107 
L 137.088322 184.320339 
L 135.774603 183.979609 
L 134.460884 183.638878 
L 133.147164 183.298147 
L 132.293975 183.815887 
L 131.440785 184.333628 
L 130.587595 184.851368 
L 129.734405 185.369108 
L 128.881216 185.886849 
L 128.028026 186.404589 
L 127.174836 186.922329 
L 126.321647 187.44007 
L 125.129292 188.163903 
L 123.936937 188.887737 
L 122.744582 189.61157 
L 121.552227 190.335404 
L 120.359872 191.059238 
L 119.167517 191.783071 
L 117.975162 192.506905 
L 116.782807 193.230738 
" style="fill:none;stroke:#4169e1;stroke-linecap:square;stroke-width:1.110401;"/>
   </g>
   <g id="line2d_13">
    <path clip-path="url(#p76b38d6f7f)" d="M 156.781012 83.044561 
L 156.497889 84.631943 
L 156.214766 86.219325 
L 155.931643 87.806707 
L 155.64852 89.394089 
L 155.365397 90.981471 
L 155.082274 92.568853 
L 154.799151 94.156235 
L 154.516028 95.743616 
L 154.232906 97.330998 
L 153.949783 98.91838 
L 153.66666 100.505762 
L 153.383537 102.093144 
L 153.100414 103.680526 
L 152.817291 105.267908 
L 152.534168 106.855289 
L 152.251045 108.442671 
L 152.070545 109.451576 
L 151.890045 110.46048 
L 151.648317 112.225435 
L 151.406589 113.990391 
L 151.164861 115.755346 
L 150.923133 117.520302 
L 150.681405 119.285257 
L 150.439677 121.050213 
L 150.197949 122.815168 
L 149.956221 124.580124 
L 149.714493 126.345079 
L 149.472765 128.110035 
L 149.231037 129.87499 
L 148.989309 131.639946 
L 148.747581 133.404901 
L 148.505853 135.169857 
L 148.264126 136.934813 
L 148.022398 138.699768 
L 147.470799 139.971742 
L 146.919201 141.243716 
L 146.367602 142.51569 
L 145.816004 143.787664 
L 145.264406 145.059638 
L 144.712807 146.331612 
L 144.161209 147.603586 
L 143.609611 148.87556 
L 143.058012 150.147534 
L 142.506414 151.419507 
L 141.954816 152.691481 
L 141.403217 153.963455 
L 140.851619 155.235429 
L 140.30002 156.507403 
L 139.748422 157.779377 
L 139.196824 159.051351 
L 138.794474 159.938499 
L 138.392125 160.825646 
L 137.989776 161.712794 
L 137.587427 162.599941 
L 137.185077 163.487088 
L 136.782728 164.374236 
L 136.380379 165.261383 
L 135.978029 166.148531 
L 135.57568 167.035678 
L 135.173331 167.922826 
L 134.770982 168.809973 
L 134.368632 169.697121 
L 133.966283 170.584268 
L 133.563934 171.471416 
L 133.161584 172.358563 
L 132.759235 173.24571 
L 132.356886 174.132858 
L 131.954537 175.020005 
L 131.552187 175.907153 
L 131.149838 176.7943 
L 130.747489 177.681448 
L 130.345139 178.568595 
L 129.94279 179.455743 
L 129.540441 180.34289 
L 129.138092 181.230037 
L 128.735742 182.117185 
L 128.333393 183.004332 
L 127.931044 183.89148 
L 127.528694 184.778627 
L 127.126345 185.665775 
L 126.723996 186.552922 
L 126.321647 187.44007 
" style="fill:none;stroke:#000000;stroke-linecap:square;stroke-width:1.110401;"/>
   </g>
   <g id="line2d_14">
    <path clip-path="url(#p76b38d6f7f)" d="M 152.251045 108.442671 
L 150.829972 109.327844 
L 149.408899 110.213017 
L 147.987826 111.09819 
L 146.566753 111.983363 
L 145.14568 112.868536 
L 143.724607 113.753709 
L 142.303533 114.638882 
L 140.88246 115.524055 
L 140.42532 116.68496 
L 139.968179 117.845864 
L 139.511038 119.006768 
L 139.053898 120.167672 
L 138.596757 121.328577 
L 138.139616 122.489481 
L 137.682476 123.650385 
L 137.225335 124.811289 
L 136.768194 125.972194 
L 136.311054 127.133098 
L 135.853913 128.294002 
L 135.396772 129.454906 
L 134.939632 130.61581 
L 134.482491 131.776715 
L 134.02535 132.937619 
L 133.56821 134.098523 
L 133.111069 135.259427 
L 132.653928 136.420332 
L 132.196788 137.581236 
L 131.739647 138.74214 
L 131.282506 139.903044 
L 130.825366 141.063948 
L 130.368225 142.224853 
L 129.911084 143.385757 
L 129.453944 144.546661 
L 128.996803 145.707565 
L 128.539662 146.86847 
L 128.082522 148.029374 
L 127.625381 149.190278 
L 127.16824 150.351182 
L 126.7111 151.512086 
L 126.253959 152.672991 
L 125.796818 153.833895 
L 125.339678 154.994799 
L 124.882537 156.155703 
L 124.425396 157.316608 
L 123.968256 158.477512 
L 123.511115 159.638416 
L 123.053974 160.79932 
L 122.596834 161.960225 
L 122.139693 163.121129 
L 121.682552 164.282033 
L 121.225412 165.442937 
L 120.768271 166.603841 
L 120.31113 167.764746 
L 119.85399 168.92565 
L 119.396849 170.086554 
L 118.939708 171.247458 
L 118.482568 172.408363 
L 118.025427 173.569267 
L 117.568286 174.730171 
L 117.111146 175.891075 
L 116.654005 177.051979 
L 116.196864 178.212884 
L 115.739724 179.373788 
L 115.282583 180.534692 
L 114.825442 181.695596 
L 114.368302 182.856501 
L 113.911161 184.017405 
L 113.45402 185.178309 
L 112.99688 186.339213 
L 112.539739 187.500118 
L 112.082598 188.661022 
L 111.625458 189.821926 
" style="fill:none;stroke:#000000;stroke-linecap:square;stroke-width:1.110401;"/>
   </g>
   <g id="line2d_15">
    <path clip-path="url(#p76b38d6f7f)" d="M 155.064806 172.780872 
L 154.767127 174.192937 
L 154.469448 175.605002 
L 154.171768 177.017066 
L 153.874089 178.429131 
L 153.57641 179.841196 
L 153.27873 181.253261 
L 152.981051 182.665325 
L 152.683372 184.07739 
L 151.815808 185.270073 
L 150.948243 186.462756 
L 150.080679 187.65544 
L 149.213115 188.848123 
L 147.601352 189.213424 
L 145.98959 189.578726 
L 144.377827 189.944027 
L 142.766065 190.309329 
L 141.799153 190.747591 
L 140.832241 191.185852 
L 139.865329 191.624114 
L 138.898417 192.062375 
L 137.21278 191.526834 
L 135.527144 190.991292 
L 134.064221 191.526834 
L 132.601298 192.062375 
L 131.138375 192.597917 
L 129.675452 193.133458 
L 128.063871 193.145618 
L 126.452291 193.157778 
L 124.84071 193.169938 
L 123.229129 193.182098 
L 121.617549 193.194258 
L 120.005968 193.206418 
L 118.394388 193.218578 
L 116.782807 193.230738 
" style="fill:none;stroke:#008000;stroke-linecap:square;stroke-width:1.110401;"/>
   </g>
   <g id="line2d_16">
    <path clip-path="url(#p76b38d6f7f)" d="M 171.98522 62.938686 
L 172.950176 63.434739 
L 173.915132 63.930791 
L 174.880088 64.426844 
L 175.845044 64.922897 
L 176.81 65.41895 
L 177.774956 65.915003 
L 178.739912 66.411056 
L 179.704868 66.907109 
L 180.669824 67.403162 
L 181.63478 67.899215 
L 182.599736 68.395268 
L 183.564692 68.891321 
L 184.529648 69.387374 
L 185.494604 69.883426 
L 186.45956 70.379479 
L 187.424516 70.875532 
L 188.389472 71.371585 
L 189.354428 71.867638 
L 190.319384 72.363691 
L 191.28434 72.859744 
L 192.249296 73.355797 
L 193.214251 73.85185 
L 194.179207 74.347903 
L 195.144163 74.843956 
L 196.109119 75.340008 
L 197.074075 75.836061 
L 198.039031 76.332114 
L 199.003987 76.828167 
L 199.968943 77.32422 
L 200.933899 77.820273 
L 201.898855 78.316326 
L 202.863811 78.812379 
L 203.954635 78.958424 
L 205.045459 79.10447 
L 206.136282 79.250515 
L 207.227106 79.396561 
L 208.31793 79.542606 
L 209.408753 79.688651 
L 210.499577 79.834697 
L 211.590401 79.980742 
L 212.569686 80.126913 
L 213.548971 80.273084 
L 214.528256 80.419254 
L 215.507541 80.565425 
L 216.486826 80.711596 
L 217.466111 80.857767 
L 218.445396 81.003937 
L 219.424681 81.150108 
L 220.986587 81.953421 
L 222.548494 82.756733 
L 224.110401 83.560045 
L 225.672308 84.363358 
L 226.49038 85.726532 
L 227.308452 87.089706 
L 228.126525 88.45288 
L 228.944597 89.816054 
L 228.882732 90.984542 
L 228.820867 92.153031 
L 228.759002 93.321519 
L 228.697137 94.490008 
L 228.635272 95.658496 
L 228.573408 96.826985 
L 228.511543 97.995473 
L 228.449678 99.163962 
L 227.743144 100.722072 
L 227.036611 102.280182 
L 226.330077 103.838292 
L 225.623544 105.396402 
L 224.91701 106.954513 
L 224.210476 108.512623 
L 223.503943 110.070733 
L 222.797409 111.628843 
L 222.363536 112.505241 
L 221.929663 113.381638 
L 221.49579 114.258036 
L 221.061917 115.134434 
L 220.628044 116.010832 
L 220.194171 116.887229 
L 219.760298 117.763627 
L 219.326425 118.640025 
L 218.892552 119.516423 
L 218.458678 120.39282 
L 218.024805 121.269218 
L 217.590932 122.145616 
L 217.157059 123.022014 
L 216.723186 123.898412 
L 216.289313 124.774809 
L 215.85544 125.651207 
L 215.421567 126.527605 
L 214.987694 127.404003 
L 214.553821 128.2804 
L 214.119948 129.156798 
L 213.686074 130.033196 
L 213.252201 130.909594 
L 212.818328 131.785991 
L 212.384455 132.662389 
L 211.950582 133.538787 
L 211.516709 134.415185 
L 211.082836 135.291582 
L 210.648963 136.16798 
L 210.21509 137.044378 
L 209.781217 137.920776 
L 209.347343 138.797173 
L 208.91347 139.673571 
" style="fill:none;stroke:#4169e1;stroke-linecap:square;stroke-width:1.110401;"/>
   </g>
   <g id="line2d_17">
    <path clip-path="url(#p76b38d6f7f)" d="M 171.98522 62.938686 
L 171.924083 64.498175 
L 171.576912 65.642469 
L 171.229741 66.786763 
L 170.882569 67.931056 
L 170.535398 69.07535 
L 169.538282 70.728108 
L 168.598663 72.287096 
L 167.659044 73.846083 
L 166.359154 75.055063 
L 165.059263 76.264043 
L 163.824876 77.412349 
L 162.59049 78.560654 
L 161.356103 79.70896 
L 160.121716 80.857265 
L 159.28654 81.404089 
L 158.451364 81.950913 
L 157.616188 82.497737 
L 156.781012 83.044561 
L 155.62523 83.80124 
L 154.469448 84.557918 
L 152.981779 85.142099 
L 151.49411 85.726281 
L 150.03892 85.253482 
L 148.58373 84.780684 
L 147.128541 84.307886 
L 145.673351 83.835087 
L 144.218161 83.362289 
L 142.762971 82.88949 
L 141.307781 82.416692 
L 139.852592 81.943893 
L 138.397402 81.471095 
L 136.942212 80.998296 
L 135.487022 80.525498 
L 134.031833 80.052699 
L 132.576643 79.579901 
L 131.121453 79.107102 
L 129.666263 78.634304 
L 128.211073 78.161505 
L 127.065208 77.789184 
L 125.919343 77.416862 
L 124.773477 77.04454 
L 123.627612 76.672218 
L 122.481747 76.299897 
L 121.335882 75.927575 
L 120.190016 75.555253 
L 119.044151 75.182931 
L 117.898286 74.81061 
L 116.75242 74.438288 
L 115.606555 74.065966 
L 114.46069 73.693644 
L 113.314824 73.321323 
L 112.168959 72.949001 
L 111.023094 72.576679 
L 109.877228 72.204357 
" style="fill:none;stroke:#008000;stroke-linecap:square;stroke-width:1.110401;"/>
   </g>
   <g id="line2d_18">
    <path clip-path="url(#p76b38d6f7f)" d="M 147.527478 50.378531 
L 146.039809 51.467916 
L 144.552141 52.557302 
L 143.064472 53.646688 
L 141.576803 54.736074 
L 140.089134 55.82546 
L 138.601465 56.914846 
L 137.113796 58.004232 
L 135.626127 59.093617 
L 134.138458 60.183003 
L 132.65079 61.272389 
L 131.163121 62.361775 
L 129.675452 63.451161 
L 128.187783 64.540547 
L 126.700114 65.629933 
L 125.212445 66.719318 
L 123.724776 67.808704 
" style="fill:none;stroke:#4169e1;stroke-linecap:square;stroke-width:1.110401;"/>
   </g>
   <g id="line2d_19">
    <path clip-path="url(#p76b38d6f7f)" d="M 154.060412 57.890153 
L 153.700026 58.871619 
L 153.33964 59.853085 
L 152.979254 60.834551 
L 152.618869 61.816016 
L 152.258483 62.797482 
L 151.898097 63.778948 
L 151.537711 64.760414 
L 151.177325 65.74188 
L 150.81694 66.723346 
L 150.456554 67.704811 
L 150.096168 68.686277 
L 149.735782 69.667743 
L 149.375396 70.649209 
L 149.015011 71.630675 
L 148.654625 72.612141 
L 148.294239 73.593606 
L 147.933853 74.575072 
L 147.573468 75.556538 
L 147.213082 76.538004 
L 146.852696 77.51947 
L 146.49231 78.500936 
L 146.131924 79.482401 
L 145.771539 80.463867 
L 145.411153 81.445333 
L 145.050767 82.426799 
L 144.690381 83.408265 
L 144.329996 84.38973 
L 143.96961 85.371196 
L 143.609224 86.352662 
L 143.248838 87.334128 
L 142.888452 88.315594 
L 142.528067 89.29706 
L 142.167681 90.278525 
L 141.807295 91.259991 
L 141.446909 92.241457 
L 141.086524 93.222923 
L 140.726138 94.204389 
L 140.365752 95.185855 
L 140.005366 96.16732 
L 139.64498 97.148786 
L 139.284595 98.130252 
L 138.924209 99.111718 
L 138.563823 100.093184 
L 138.203437 101.07465 
L 137.843051 102.056115 
L 137.482666 103.037581 
L 137.12228 104.019047 
L 136.761894 105.000513 
L 136.401508 105.981979 
L 136.041123 106.963445 
L 135.680737 107.94491 
L 135.320351 108.926376 
L 134.959965 109.907842 
L 134.599579 110.889308 
L 134.239194 111.870774 
L 133.878808 112.85224 
L 133.518422 113.833705 
L 133.158036 114.815171 
L 132.797651 115.796637 
L 132.437265 116.778103 
L 132.076879 117.759569 
L 131.716493 118.741034 
L 131.356107 119.7225 
L 130.995722 120.703966 
" style="fill:none;stroke:#ff0000;stroke-linecap:square;stroke-width:1.110401;"/>
   </g>
   <g id="line2d_20">
    <path clip-path="url(#p76b38d6f7f)" d="M 154.681972 48.509149 
L 154.340077 47.415877 
L 153.998183 46.322605 
L 153.656288 45.229333 
L 153.314394 44.136061 
L 152.972499 43.042789 
L 152.630605 41.949517 
L 152.28871 40.856245 
L 151.946816 39.762973 
L 150.81396 38.669826 
L 149.681105 37.57668 
L 148.548249 36.483533 
L 147.415394 35.390386 
L 145.598749 35.543828 
L 143.782105 35.69727 
L 141.96546 35.850711 
L 140.148815 36.004153 
L 139.259962 36.502839 
L 138.371109 37.001524 
L 137.482256 37.50021 
L 136.593403 37.998895 
L 135.70455 38.497581 
L 134.815697 38.996266 
L 133.926844 39.494952 
L 133.037991 39.993637 
L 131.91578 41.318827 
L 130.793569 42.644016 
L 129.671358 43.969206 
L 128.549147 45.294396 
L 127.426936 46.619585 
L 126.304725 47.944775 
L 125.182514 49.269964 
L 124.060302 50.595154 
L 122.938091 51.920344 
L 121.81588 53.245533 
L 120.693669 54.570723 
L 119.571458 55.895913 
L 118.449247 57.221102 
L 117.327036 58.546292 
L 116.204825 59.871481 
L 115.082614 61.196671 
L 114.431941 62.572632 
L 113.781268 63.948593 
L 113.130594 65.324553 
L 112.479921 66.700514 
L 111.829248 68.076475 
L 111.178575 69.452436 
L 110.527902 70.828397 
L 109.877228 72.204357 
L 109.422521 73.165875 
L 108.967814 74.127393 
L 108.513107 75.088911 
L 108.0584 76.050428 
L 107.603693 77.011946 
L 107.148986 77.973464 
L 106.694279 78.934982 
L 106.239572 79.8965 
L 104.420017 80.263932 
L 102.600461 80.631365 
L 100.780905 80.998798 
L 98.961349 81.36623 
L 97.141793 81.733663 
L 95.322237 82.101096 
L 93.502681 82.468528 
L 91.683126 82.835961 
L 90.66654 83.149865 
L 89.649954 83.463768 
L 88.633368 83.777672 
L 87.616782 84.091575 
L 86.600196 84.405479 
L 85.58361 84.719383 
L 84.567025 85.033286 
L 83.550439 85.34719 
L 82.533853 85.661093 
L 81.517267 85.974997 
L 80.500681 86.2889 
L 79.484095 86.602804 
L 78.467509 86.916708 
L 77.450924 87.230611 
L 76.434338 87.544515 
L 75.417752 87.858418 
L 74.812204 88.044955 
L 74.161712 88.988327 
L 73.511221 89.931699 
L 72.86073 90.875071 
L 72.210239 91.818443 
L 71.559748 92.761814 
L 70.909256 93.705186 
L 70.258765 94.648558 
L 69.608274 95.59193 
L 68.957783 96.535302 
L 68.307291 97.478673 
L 67.6568 98.422045 
L 67.006309 99.365417 
L 66.355818 100.308789 
L 65.705327 101.252161 
L 65.054835 102.195532 
L 64.404344 103.138904 
L 63.753853 104.082276 
L 63.103362 105.025648 
L 62.45287 105.96902 
L 61.802379 106.912391 
L 61.151888 107.855763 
L 60.501397 108.799135 
L 59.850906 109.742507 
L 59.200414 110.685879 
L 58.549923 111.62925 
L 57.899432 112.572622 
L 57.248941 113.515994 
L 56.598449 114.459366 
L 55.947958 115.402738 
L 55.297467 116.346109 
L 54.646976 117.289481 
L 53.996485 118.232853 
L 52.977897 119.564937 
L 51.95931 120.897022 
L 50.940723 122.229106 
L 49.922135 123.561191 
" style="fill:none;stroke:#4169e1;stroke-linecap:square;stroke-width:1.110401;"/>
   </g>
   <g id="line2d_21">
    <path clip-path="url(#p76b38d6f7f)" d="M 106.239572 79.8965 
L 105.712447 80.889984 
L 105.185322 81.883469 
L 104.658196 82.876954 
L 104.131071 83.870439 
L 103.603946 84.863924 
L 103.07682 85.857408 
L 102.549695 86.850893 
L 102.02257 87.844378 
L 101.495444 88.837863 
L 100.968319 89.831348 
L 100.441194 90.824832 
L 99.914068 91.818317 
L 99.386943 92.811802 
L 98.859818 93.805287 
L 98.332692 94.798772 
L 97.805567 95.792256 
L 97.448934 97.248448 
L 97.092301 98.70464 
L 96.771241 100.01698 
L 96.45018 101.32932 
L 96.129119 102.64166 
L 95.808059 103.954 
L 95.486998 105.266341 
L 95.165937 106.578681 
L 94.844877 107.891021 
L 94.523816 109.203361 
L 94.202756 110.515701 
L 93.881695 111.828041 
L 93.560634 113.140381 
L 93.239574 114.452722 
L 92.918513 115.765062 
L 92.597452 117.077402 
L 92.276392 118.389742 
L 91.955331 119.702082 
" style="fill:none;stroke:#000000;stroke-linecap:square;stroke-width:1.110401;"/>
   </g>
   <g id="line2d_22">
    <path clip-path="url(#p76b38d6f7f)" d="M 85.153103 123.175079 
L 85.153103 124.2938 
L 85.153103 125.41252 
L 85.153103 126.53124 
L 85.153103 127.649961 
L 85.153103 128.768681 
L 85.153103 129.887401 
L 85.153103 131.006121 
L 85.153103 132.124842 
L 85.680229 133.443889 
L 86.207354 134.762936 
L 86.734479 136.081983 
L 87.261605 137.40103 
L 87.78873 138.720076 
L 88.315855 140.039123 
L 88.842981 141.35817 
L 89.370106 142.677217 
L 89.82918 143.595611 
L 90.288254 144.514005 
L 90.747328 145.432398 
L 91.206402 146.350792 
L 91.665476 147.269186 
L 92.12455 148.187579 
L 92.583624 149.105973 
L 93.042698 150.024367 
L 93.059074 151.048314 
L 93.07545 152.072261 
L 93.091826 153.096209 
L 93.108202 154.120156 
L 93.124578 155.144104 
L 93.140954 156.168051 
L 93.15733 157.191999 
L 93.173706 158.215946 
L 93.191355 159.329151 
L 93.209005 160.442355 
L 93.226655 161.55556 
L 93.244304 162.668764 
L 93.261954 163.781969 
L 93.279604 164.895173 
L 93.297254 166.008377 
L 93.314903 167.121582 
L 93.340468 168.415557 
L 93.366033 169.709531 
L 93.391598 171.003506 
L 93.417162 172.297481 
L 93.442727 173.591456 
L 93.468292 174.88543 
L 93.493857 176.179405 
L 93.519421 177.47338 
L 93.544986 178.767355 
L 93.570551 180.06133 
L 93.596116 181.355304 
L 93.62168 182.649279 
L 93.647245 183.943254 
L 93.67281 185.237229 
L 93.698375 186.531203 
L 93.723939 187.825178 
" style="fill:none;stroke:#000000;stroke-linecap:square;stroke-width:1.110401;"/>
   </g>
   <g id="line2d_23">
    <path clip-path="url(#p76b38d6f7f)" d="M 125.470094 132.740614 
L 125.021028 131.060277 
L 124.571962 129.37994 
L 123.983153 128.278269 
L 123.394345 127.176598 
L 122.665067 126.405629 
L 121.935789 125.634659 
L 121.206511 124.86369 
L 120.477233 124.092721 
L 119.593657 123.018629 
L 118.71008 121.944537 
L 117.826504 120.870445 
L 116.942928 119.796354 
L 115.862839 119.341795 
L 114.782751 118.887237 
L 113.702663 118.432678 
L 112.622574 117.97812 
L 111.206232 117.633879 
L 109.78989 117.289638 
L 108.373548 116.945397 
L 106.957205 116.601156 
L 105.330158 116.573577 
L 103.703112 116.545997 
L 102.076065 116.518418 
L 100.449018 116.490838 
L 98.569781 117.014345 
L 96.690543 117.537852 
L 95.50674 118.07891 
L 94.322937 118.619967 
L 93.139134 119.161025 
L 91.955331 119.702082 
L 90.254774 120.570331 
L 88.554217 121.438581 
L 86.85366 122.30683 
L 85.153103 123.175079 
L 83.577368 123.542136 
L 82.001633 123.909193 
L 80.425897 124.276249 
L 78.850162 124.643306 
L 77.854137 124.588147 
L 76.858112 124.532988 
L 75.862087 124.477829 
L 74.866062 124.422671 
L 73.701911 124.340183 
L 72.537759 124.257696 
L 71.373607 124.175208 
L 70.209455 124.092721 
L 68.834963 124.202788 
L 67.46047 124.312855 
L 66.085978 124.422921 
L 64.711485 124.532988 
L 63.224544 125.331788 
L 61.737603 126.130587 
L 60.223005 126.571356 
L 58.708406 127.012125 
L 57.116659 126.92036 
L 55.524912 126.828596 
L 54.095468 126.205302 
L 52.666025 125.582008 
L 51.29408 124.571599 
L 49.922135 123.561191 
L 48.965777 122.856663 
L 48.009418 122.152135 
L 46.818337 120.852895 
L 45.627255 119.553655 
L 44.436174 118.254415 
L 43.245093 116.955175 
" style="fill:none;stroke:#008000;stroke-linecap:square;stroke-width:1.110401;"/>
   </g>
   <g id="line2d_24">
    <path clip-path="url(#p76b38d6f7f)" d="M 58.708406 127.012125 
L 59.024281 128.265482 
L 59.340156 129.51884 
L 59.656031 130.772198 
L 59.971906 132.025556 
L 60.633497 132.883024 
L 61.295087 133.740492 
L 61.956678 134.597961 
L 62.618268 135.455429 
L 64.100114 135.819226 
L 65.581961 136.183023 
L 67.063807 136.546821 
L 68.545653 136.910618 
L 69.921965 137.819986 
L 71.298277 138.729353 
L 72.674589 139.638721 
L 74.050901 140.548089 
L 74.977055 141.63948 
L 75.903209 142.730872 
L 76.829363 143.822263 
L 77.755517 144.913655 
L 78.65547 146.004796 
L 79.555422 147.095937 
L 80.455374 148.187078 
L 81.355326 149.278219 
L 82.832624 150.395435 
L 84.309921 151.512651 
L 85.787219 152.629867 
L 87.264516 153.747083 
L 88.741814 154.864299 
L 90.219111 155.981514 
L 91.696408 157.09873 
L 93.173706 158.215946 
" style="fill:none;stroke:#4169e1;stroke-linecap:square;stroke-width:1.110401;"/>
   </g>
   <g id="line2d_25">
    <path clip-path="url(#p76b38d6f7f)" d="M 61.136422 140.028593 
L 61.718589 141.191315 
L 62.300756 142.354037 
L 62.882922 143.516759 
L 63.465089 144.679481 
L 64.047256 145.842203 
L 64.629423 147.004925 
L 65.21159 148.167647 
L 65.793757 149.330369 
L 66.375924 150.493091 
L 66.958091 151.655813 
L 67.540258 152.818535 
L 68.122425 153.981257 
L 68.704591 155.143979 
L 69.286758 156.306701 
L 69.868925 157.469423 
L 70.451092 158.632144 
L 70.940735 160.39898 
L 71.430377 162.165816 
L 71.92002 163.932652 
L 72.409662 165.699488 
L 72.899305 167.466324 
L 73.388947 169.23316 
L 73.87859 170.999996 
L 74.368232 172.766832 
L 75.215053 174.481768 
L 76.061875 176.196705 
L 76.908696 177.911642 
L 77.755517 179.626578 
L 78.476698 180.490502 
L 79.197879 181.354427 
L 79.91906 182.218351 
L 80.640241 183.082276 
L 81.361422 183.9462 
L 82.082603 184.810124 
L 82.803784 185.674049 
L 83.524965 186.537973 
L 84.246146 187.401897 
L 84.967327 188.265822 
L 85.688508 189.129746 
L 86.409689 189.99367 
L 87.13087 190.857595 
L 87.852051 191.721519 
L 88.573232 192.585443 
L 89.294413 193.449368 
" style="fill:none;stroke:#4169e1;stroke-linecap:square;stroke-width:1.110401;"/>
   </g>
   <g id="line2d_26">
    <path clip-path="url(#p76b38d6f7f)" d="M 83.895426 171.208346 
L 84.226222 172.130751 
L 84.557017 173.053156 
L 84.887812 173.975561 
L 85.218607 174.897967 
L 85.549403 175.820372 
L 85.880198 176.742777 
L 86.210993 177.665182 
L 86.541789 178.587587 
L 86.872584 179.509992 
L 87.203379 180.432398 
L 87.534174 181.354803 
L 87.86497 182.277208 
L 88.195765 183.199613 
L 88.52656 184.122018 
L 88.857355 185.044424 
L 89.188151 185.966829 
" style="fill:none;stroke:#000000;stroke-linecap:square;stroke-width:1.110401;"/>
   </g>
   <g id="line2d_27">
    <path clip-path="url(#p76b38d6f7f)" d="M 49.914857 151.772398 
L 49.623728 153.149613 
L 49.332599 154.526827 
L 49.04147 155.904041 
L 48.750341 157.281256 
L 48.459212 158.65847 
L 48.168083 160.035685 
L 47.876954 161.412899 
L 47.585825 162.790113 
L 47.545977 164.115178 
L 47.506129 165.440242 
L 47.466281 166.765306 
L 47.426432 168.09037 
L 47.386584 169.415435 
L 47.346736 170.740499 
L 47.306887 172.065563 
L 47.267039 173.390628 
L 47.399503 175.313412 
L 47.531967 177.236197 
L 47.66443 179.158982 
L 47.796894 181.081767 
L 48.210297 182.875932 
L 48.6237 184.670096 
L 49.037103 186.464261 
L 49.450506 188.258425 
L 49.863909 190.05259 
L 50.277312 191.846755 
L 50.690716 193.640919 
L 51.104119 195.435084 
" style="fill:none;stroke:#4169e1;stroke-linecap:square;stroke-width:1.110401;"/>
   </g>
   <g id="line2d_28">
    <path clip-path="url(#p76b38d6f7f)" d="M 55.524912 126.828596 
L 55.101501 127.9329 
L 54.67809 129.037204 
L 54.25468 130.141508 
L 53.831269 131.245811 
L 53.407858 132.350115 
L 52.984448 133.454419 
L 52.561037 134.558723 
L 52.137626 135.663027 
L 51.528803 137.027203 
L 50.91998 138.39138 
L 50.311156 139.755557 
L 49.702333 141.119734 
L 49.093509 142.483911 
L 48.484686 143.848088 
L 47.875863 145.212265 
L 47.267039 146.576441 
L 46.446601 147.628721 
L 45.626164 148.681 
L 44.805726 149.733279 
L 43.985288 150.785558 
L 43.164851 151.837837 
L 42.344413 152.890116 
L 41.523975 153.942395 
L 40.703537 154.994674 
L 39.592153 156.293914 
L 38.480768 157.593154 
L 37.369383 158.892394 
L 36.257998 160.191634 
L 35.91392 161.412774 
L 35.569842 162.633914 
L 35.225764 163.855054 
L 34.881686 165.076194 
L 34.537608 166.297334 
L 34.19353 167.518474 
L 33.849452 168.739614 
L 33.505374 169.960754 
L 32.790653 171.675691 
L 32.075931 173.390628 
L 31.36121 175.105564 
L 30.646488 176.820501 
L 30.602455 178.618426 
L 30.558422 180.416351 
L 30.514388 182.214277 
L 30.470355 184.012202 
" style="fill:none;stroke:#4169e1;stroke-linecap:square;stroke-width:1.110401;"/>
   </g>
   <g id="line2d_29">
    <path clip-path="url(#p76b38d6f7f)" d="M 43.245093 116.955175 
L 42.140259 118.152622 
L 41.417531 118.933369 
L 40.694803 119.714117 
L 40.369467 121.027397 
L 40.04413 122.340677 
L 40.04413 123.831469 
L 40.04413 125.32226 
L 40.04413 126.813051 
L 40.04413 128.303843 
L 39.826875 129.546169 
L 39.60962 130.788495 
L 39.392365 132.030821 
L 39.17511 133.273147 
L 38.651078 134.46232 
L 38.127046 135.651493 
L 37.603014 136.840667 
L 37.078982 138.02984 
L 36.175027 139.467227 
L 35.271071 140.904615 
L 34.367116 142.342002 
L 33.463161 143.77939 
L 33.15602 145.003915 
L 32.848879 146.22844 
L 32.541738 147.452965 
L 32.234597 148.677489 
L 31.764423 149.529442 
L 31.29425 150.381394 
L 30.824077 151.233347 
L 30.353904 152.085299 
L 29.052557 153.487335 
L 27.751211 154.889371 
L 26.449865 156.291407 
L 25.148518 157.693442 
L 24.605927 159.184234 
L 24.063335 160.675025 
L 23.520744 162.165816 
L 22.978152 163.656608 
L 22.417729 164.490633 
L 21.857306 165.324659 
L 21.296882 166.158685 
L 20.736459 166.992711 
L 20.176036 167.826737 
L 19.615613 168.660762 
L 19.05519 169.494788 
L 18.494766 170.328814 
L 17.581895 171.296098 
L 16.669024 172.263383 
L 15.756153 173.230667 
L 14.843282 174.197951 
L 13.93041 175.165236 
L 13.017539 176.13252 
L 12.104668 177.099805 
L 11.191797 178.067089 
L 10.902124 179.699789 
L 11.770416 180.409331 
L 12.638708 181.118874 
L 14.27467 181.473896 
L 15.910633 181.828918 
L 17.546596 182.18394 
L 19.182558 182.538962 
L 20.818521 182.893983 
L 22.454484 183.249005 
L 24.090446 183.604027 
L 25.726409 183.959049 
L 26.912396 183.972338 
L 28.098382 183.985626 
L 29.284369 183.998914 
L 30.470355 184.012202 
L 31.460921 184.23384 
L 32.451488 184.455478 
L 33.228802 185.112119 
L 34.006116 185.768759 
L 34.78343 186.425399 
L 35.560745 187.082039 
L 36.690507 187.552393 
L 37.820269 188.022747 
L 38.950031 188.493101 
L 40.079794 188.963455 
L 41.209556 189.433809 
L 42.339318 189.904163 
L 43.46908 190.374517 
L 44.598843 190.844871 
L 45.93658 191.838731 
L 47.274317 192.832592 
L 48.612055 193.826453 
L 49.949792 194.820314 
L 51.104119 195.435084 
L 52.243161 196.041454 
L 53.382203 196.647825 
L 54.521245 197.254195 
L 55.660286 197.860566 
L 56.799328 198.466936 
L 57.93837 199.073307 
L 59.077412 199.679677 
L 60.216454 200.286048 
L 61.572387 200.516711 
L 62.92832 200.747375 
L 64.284253 200.978039 
L 65.640186 201.208703 
L 67.212647 200.960238 
L 68.785107 200.711773 
L 70.357567 200.463308 
L 71.930027 200.214843 
L 73.846383 200.321399 
L 75.76274 200.427956 
L 77.679096 200.534513 
L 79.595452 200.641069 
L 80.969217 200.215093 
L 82.342981 199.789117 
L 83.716746 199.363141 
L 85.090511 198.937165 
" style="fill:none;stroke:#008000;stroke-linecap:square;stroke-width:1.110401;"/>
   </g>
   <g id="line2d_30">
    <path clip-path="url(#p76b38d6f7f)" d="M 128.211073 78.161505 
L 127.293289 78.566672 
L 126.375505 78.971838 
L 126.69138 79.904523 
L 128.115365 80.634624 
L 129.539349 81.364726 
L 130.963334 82.094828 
L 132.387318 82.824929 
L 133.194473 83.803747 
L 134.001628 84.782564 
L 134.808783 85.761382 
L 135.615938 86.7402 
L 136.407081 87.516935 
L 137.198224 88.293671 
L 137.989367 89.070407 
L 138.780509 89.847143 
L 139.223025 90.965362 
L 138.273945 91.400615 
L 136.691659 90.981157 
L 135.109373 90.5617 
L 133.527088 90.142243 
L 131.944802 89.722785 
L 130.362516 89.303328 
L 128.78023 88.88387 
L 127.197945 88.464413 
L 125.615659 88.044955 
L 123.748795 87.982776 
L 121.88193 87.920597 
L 120.552927 87.920597 
L 120.806209 88.728924 
L 122.609753 89.412392 
L 124.413296 90.095859 
L 125.26776 90.981408 
L 126.122223 91.866957 
L 126.976687 92.752506 
L 127.83115 93.638055 
L 128.542051 94.521599 
L 129.252951 95.405142 
L 129.963851 96.288685 
L 130.674752 97.172229 
L 131.385652 98.055772 
L 132.096553 98.939315 
L 132.807453 99.822859 
L 133.518354 100.706402 
L 134.66613 101.965025 
L 135.813906 103.223648 
L 136.827762 104.143797 
L 137.841619 105.063945 
L 138.511215 105.778001 
L 139.180812 106.492056 
L 139.065816 107.505975 
L 138.530139 107.843948 
L 137.501817 107.346203 
L 136.473495 106.848457 
L 135.445173 106.350712 
L 134.416851 105.852967 
L 133.388529 105.355221 
L 132.360207 104.857476 
L 131.331885 104.359731 
L 130.303563 103.861986 
L 129.275241 103.36424 
L 128.246919 102.866495 
L 127.218597 102.36875 
L 126.190275 101.871004 
L 125.161953 101.373259 
L 124.133631 100.875514 
L 123.105309 100.377769 
L 122.076987 99.880023 
L 120.811849 99.793086 
L 119.546712 99.706148 
L 118.281575 99.61921 
L 117.016438 99.532272 
L 115.751301 99.445334 
L 114.486163 99.358397 
L 113.221026 99.271459 
L 111.955889 99.184521 
L 110.690752 99.097583 
L 109.425615 99.010646 
L 108.160478 98.923708 
L 106.89534 98.83677 
L 105.630203 98.749832 
L 104.365066 98.662895 
L 103.099929 98.575957 
L 101.834792 98.489019 
L 100.649169 98.542924 
L 99.463546 98.59683 
L 98.277924 98.650735 
L 97.092301 98.70464 
L 95.349895 98.50306 
L 93.607488 98.301479 
L 92.583988 97.869486 
L 91.560487 97.437492 
L 90.536987 97.005499 
L 89.513487 96.573505 
L 88.489987 96.141512 
L 87.466487 95.709518 
L 86.442987 95.277525 
L 85.419486 94.845531 
L 84.16927 93.972142 
L 82.919053 93.098753 
L 81.668836 92.225364 
L 80.418619 91.351975 
L 79.168402 90.478586 
L 77.918185 89.605197 
L 76.667969 88.731808 
L 75.417752 87.858418 
" style="fill:none;stroke:#4169e1;stroke-linecap:square;stroke-width:1.110401;"/>
   </g>
   <g id="line2d_31">
    <path clip-path="url(#p76b38d6f7f)" d="M 92.667141 213.268418 
L 92.039758 214.96361 
L 91.412376 216.658802 
L 90.784993 218.353995 
L 90.15761 220.049187 
L 89.530227 221.744379 
L 88.902844 223.439571 
L 88.275461 225.134763 
L 87.648078 226.829956 
L 87.020696 228.525148 
L 86.393313 230.22034 
L 85.76593 231.915532 
L 85.138547 233.610724 
L 84.511164 235.305917 
L 83.883781 237.001109 
L 83.256398 238.696301 
L 82.629016 240.391493 
" style="fill:none;stroke:#008000;stroke-linecap:square;stroke-width:1.110401;"/>
   </g>
   <g id="text_1">
    <g id="patch_2">
     <path d="M 102.606727 203.184814 
L 106.744562 186.939442 
L 104.830064 186.451803 
L 100.692229 202.697175 
z
" style="fill:#ffffff;"/>
    </g>
    <!-- Maverick Double -->
    <g style="fill:#808080;" transform="translate(102.189215 203.057831)rotate(-75.71013)scale(0.02 -0.02)">
     <defs>
      <path d="M 628 4666 
L 1569 4666 
L 2759 1491 
L 3956 4666 
L 4897 4666 
L 4897 0 
L 4281 0 
L 4281 4097 
L 3078 897 
L 2444 897 
L 1241 4097 
L 1241 0 
L 628 0 
L 628 4666 
z
" id="DejaVuSans-4d" transform="scale(0.015625)"/>
      <path d="M 2194 1759 
Q 1497 1759 1228 1600 
Q 959 1441 959 1056 
Q 959 750 1161 570 
Q 1363 391 1709 391 
Q 2188 391 2477 730 
Q 2766 1069 2766 1631 
L 2766 1759 
L 2194 1759 
z
M 3341 1997 
L 3341 0 
L 2766 0 
L 2766 531 
Q 2569 213 2275 61 
Q 1981 -91 1556 -91 
Q 1019 -91 701 211 
Q 384 513 384 1019 
Q 384 1609 779 1909 
Q 1175 2209 1959 2209 
L 2766 2209 
L 2766 2266 
Q 2766 2663 2505 2880 
Q 2244 3097 1772 3097 
Q 1472 3097 1187 3025 
Q 903 2953 641 2809 
L 641 3341 
Q 956 3463 1253 3523 
Q 1550 3584 1831 3584 
Q 2591 3584 2966 3190 
Q 3341 2797 3341 1997 
z
" id="DejaVuSans-61" transform="scale(0.015625)"/>
      <path d="M 191 3500 
L 800 3500 
L 1894 563 
L 2988 3500 
L 3597 3500 
L 2284 0 
L 1503 0 
L 191 3500 
z
" id="DejaVuSans-76" transform="scale(0.015625)"/>
      <path d="M 3597 1894 
L 3597 1613 
L 953 1613 
Q 991 1019 1311 708 
Q 1631 397 2203 397 
Q 2534 397 2845 478 
Q 3156 559 3463 722 
L 3463 178 
Q 3153 47 2828 -22 
Q 2503 -91 2169 -91 
Q 1331 -91 842 396 
Q 353 884 353 1716 
Q 353 2575 817 3079 
Q 1281 3584 2069 3584 
Q 2775 3584 3186 3129 
Q 3597 2675 3597 1894 
z
M 3022 2063 
Q 3016 2534 2758 2815 
Q 2500 3097 2075 3097 
Q 1594 3097 1305 2825 
Q 1016 2553 972 2059 
L 3022 2063 
z
" id="DejaVuSans-65" transform="scale(0.015625)"/>
      <path d="M 2631 2963 
Q 2534 3019 2420 3045 
Q 2306 3072 2169 3072 
Q 1681 3072 1420 2755 
Q 1159 2438 1159 1844 
L 1159 0 
L 581 0 
L 581 3500 
L 1159 3500 
L 1159 2956 
Q 1341 3275 1631 3429 
Q 1922 3584 2338 3584 
Q 2397 3584 2469 3576 
Q 2541 3569 2628 3553 
L 2631 2963 
z
" id="DejaVuSans-72" transform="scale(0.015625)"/>
      <path d="M 603 3500 
L 1178 3500 
L 1178 0 
L 603 0 
L 603 3500 
z
M 603 4863 
L 1178 4863 
L 1178 4134 
L 603 4134 
L 603 4863 
z
" id="DejaVuSans-69" transform="scale(0.015625)"/>
      <path d="M 3122 3366 
L 3122 2828 
Q 2878 2963 2633 3030 
Q 2388 3097 2138 3097 
Q 1578 3097 1268 2742 
Q 959 2388 959 1747 
Q 959 1106 1268 751 
Q 1578 397 2138 397 
Q 2388 397 2633 464 
Q 2878 531 3122 666 
L 3122 134 
Q 2881 22 2623 -34 
Q 2366 -91 2075 -91 
Q 1284 -91 818 406 
Q 353 903 353 1747 
Q 353 2603 823 3093 
Q 1294 3584 2113 3584 
Q 2378 3584 2631 3529 
Q 2884 3475 3122 3366 
z
" id="DejaVuSans-63" transform="scale(0.015625)"/>
      <path d="M 581 4863 
L 1159 4863 
L 1159 1991 
L 2875 3500 
L 3609 3500 
L 1753 1863 
L 3688 0 
L 2938 0 
L 1159 1709 
L 1159 0 
L 581 0 
L 581 4863 
z
" id="DejaVuSans-6b" transform="scale(0.015625)"/>
      <path id="DejaVuSans-20" transform="scale(0.015625)"/>
      <path d="M 1259 4147 
L 1259 519 
L 2022 519 
Q 2988 519 3436 956 
Q 3884 1394 3884 2338 
Q 3884 3275 3436 3711 
Q 2988 4147 2022 4147 
L 1259 4147 
z
M 628 4666 
L 1925 4666 
Q 3281 4666 3915 4102 
Q 4550 3538 4550 2338 
Q 4550 1131 3912 565 
Q 3275 0 1925 0 
L 628 0 
L 628 4666 
z
" id="DejaVuSans-44" transform="scale(0.015625)"/>
      <path d="M 1959 3097 
Q 1497 3097 1228 2736 
Q 959 2375 959 1747 
Q 959 1119 1226 758 
Q 1494 397 1959 397 
Q 2419 397 2687 759 
Q 2956 1122 2956 1747 
Q 2956 2369 2687 2733 
Q 2419 3097 1959 3097 
z
M 1959 3584 
Q 2709 3584 3137 3096 
Q 3566 2609 3566 1747 
Q 3566 888 3137 398 
Q 2709 -91 1959 -91 
Q 1206 -91 779 398 
Q 353 888 353 1747 
Q 353 2609 779 3096 
Q 1206 3584 1959 3584 
z
" id="DejaVuSans-6f" transform="scale(0.015625)"/>
      <path d="M 544 1381 
L 544 3500 
L 1119 3500 
L 1119 1403 
Q 1119 906 1312 657 
Q 1506 409 1894 409 
Q 2359 409 2629 706 
Q 2900 1003 2900 1516 
L 2900 3500 
L 3475 3500 
L 3475 0 
L 2900 0 
L 2900 538 
Q 2691 219 2414 64 
Q 2138 -91 1772 -91 
Q 1169 -91 856 284 
Q 544 659 544 1381 
z
M 1991 3584 
L 1991 3584 
z
" id="DejaVuSans-75" transform="scale(0.015625)"/>
      <path d="M 3116 1747 
Q 3116 2381 2855 2742 
Q 2594 3103 2138 3103 
Q 1681 3103 1420 2742 
Q 1159 2381 1159 1747 
Q 1159 1113 1420 752 
Q 1681 391 2138 391 
Q 2594 391 2855 752 
Q 3116 1113 3116 1747 
z
M 1159 2969 
Q 1341 3281 1617 3432 
Q 1894 3584 2278 3584 
Q 2916 3584 3314 3078 
Q 3713 2572 3713 1747 
Q 3713 922 3314 415 
Q 2916 -91 2278 -91 
Q 1894 -91 1617 61 
Q 1341 213 1159 525 
L 1159 0 
L 581 0 
L 581 4863 
L 1159 4863 
L 1159 2969 
z
" id="DejaVuSans-62" transform="scale(0.015625)"/>
      <path d="M 603 4863 
L 1178 4863 
L 1178 0 
L 603 0 
L 603 4863 
z
" id="DejaVuSans-6c" transform="scale(0.015625)"/>
     </defs>
     <use xlink:href="#DejaVuSans-4d"/>
     <use x="86.279297" xlink:href="#DejaVuSans-61"/>
     <use x="147.558594" xlink:href="#DejaVuSans-76"/>
     <use x="206.738281" xlink:href="#DejaVuSans-65"/>
     <use x="268.261719" xlink:href="#DejaVuSans-72"/>
     <use x="309.375" xlink:href="#DejaVuSans-69"/>
     <use x="337.158203" xlink:href="#DejaVuSans-63"/>
     <use x="392.138672" xlink:href="#DejaVuSans-6b"/>
     <use x="450.048828" xlink:href="#DejaVuSans-20"/>
     <use x="481.835938" xlink:href="#DejaVuSans-44"/>
     <use x="558.837891" xlink:href="#DejaVuSans-6f"/>
     <use x="620.019531" xlink:href="#DejaVuSans-75"/>
     <use x="683.398438" xlink:href="#DejaVuSans-62"/>
     <use x="746.875" xlink:href="#DejaVuSans-6c"/>
     <use x="774.658203" xlink:href="#DejaVuSans-65"/>
    </g>
   </g>
   <g id="text_2">
    <g id="patch_3">
     <path d="M 165.857159 36.52337 
L 171.37152 57.101067 
L 173.279813 56.589687 
L 167.765453 36.01199 
z
" style="fill:#ffffff;"/>
    </g>
    <!-- Upper Traverse 11.2° -->
    <g style="fill:#008000;" transform="translate(166.283416 36.429849)rotate(-285.001515)scale(0.02 -0.02)">
     <defs>
      <path d="M 556 4666 
L 1191 4666 
L 1191 1831 
Q 1191 1081 1462 751 
Q 1734 422 2344 422 
Q 2950 422 3222 751 
Q 3494 1081 3494 1831 
L 3494 4666 
L 4128 4666 
L 4128 1753 
Q 4128 841 3676 375 
Q 3225 -91 2344 -91 
Q 1459 -91 1007 375 
Q 556 841 556 1753 
L 556 4666 
z
" id="DejaVuSans-55" transform="scale(0.015625)"/>
      <path d="M 1159 525 
L 1159 -1331 
L 581 -1331 
L 581 3500 
L 1159 3500 
L 1159 2969 
Q 1341 3281 1617 3432 
Q 1894 3584 2278 3584 
Q 2916 3584 3314 3078 
Q 3713 2572 3713 1747 
Q 3713 922 3314 415 
Q 2916 -91 2278 -91 
Q 1894 -91 1617 61 
Q 1341 213 1159 525 
z
M 3116 1747 
Q 3116 2381 2855 2742 
Q 2594 3103 2138 3103 
Q 1681 3103 1420 2742 
Q 1159 2381 1159 1747 
Q 1159 1113 1420 752 
Q 1681 391 2138 391 
Q 2594 391 2855 752 
Q 3116 1113 3116 1747 
z
" id="DejaVuSans-70" transform="scale(0.015625)"/>
      <path d="M -19 4666 
L 3928 4666 
L 3928 4134 
L 2272 4134 
L 2272 0 
L 1638 0 
L 1638 4134 
L -19 4134 
L -19 4666 
z
" id="DejaVuSans-54" transform="scale(0.015625)"/>
      <path d="M 2834 3397 
L 2834 2853 
Q 2591 2978 2328 3040 
Q 2066 3103 1784 3103 
Q 1356 3103 1142 2972 
Q 928 2841 928 2578 
Q 928 2378 1081 2264 
Q 1234 2150 1697 2047 
L 1894 2003 
Q 2506 1872 2764 1633 
Q 3022 1394 3022 966 
Q 3022 478 2636 193 
Q 2250 -91 1575 -91 
Q 1294 -91 989 -36 
Q 684 19 347 128 
L 347 722 
Q 666 556 975 473 
Q 1284 391 1588 391 
Q 1994 391 2212 530 
Q 2431 669 2431 922 
Q 2431 1156 2273 1281 
Q 2116 1406 1581 1522 
L 1381 1569 
Q 847 1681 609 1914 
Q 372 2147 372 2553 
Q 372 3047 722 3315 
Q 1072 3584 1716 3584 
Q 2034 3584 2315 3537 
Q 2597 3491 2834 3397 
z
" id="DejaVuSans-73" transform="scale(0.015625)"/>
      <path d="M 794 531 
L 1825 531 
L 1825 4091 
L 703 3866 
L 703 4441 
L 1819 4666 
L 2450 4666 
L 2450 531 
L 3481 531 
L 3481 0 
L 794 0 
L 794 531 
z
" id="DejaVuSans-31" transform="scale(0.015625)"/>
      <path d="M 684 794 
L 1344 794 
L 1344 0 
L 684 0 
L 684 794 
z
" id="DejaVuSans-2e" transform="scale(0.015625)"/>
      <path d="M 1228 531 
L 3431 531 
L 3431 0 
L 469 0 
L 469 531 
Q 828 903 1448 1529 
Q 2069 2156 2228 2338 
Q 2531 2678 2651 2914 
Q 2772 3150 2772 3378 
Q 2772 3750 2511 3984 
Q 2250 4219 1831 4219 
Q 1534 4219 1204 4116 
Q 875 4013 500 3803 
L 500 4441 
Q 881 4594 1212 4672 
Q 1544 4750 1819 4750 
Q 2544 4750 2975 4387 
Q 3406 4025 3406 3419 
Q 3406 3131 3298 2873 
Q 3191 2616 2906 2266 
Q 2828 2175 2409 1742 
Q 1991 1309 1228 531 
z
" id="DejaVuSans-32" transform="scale(0.015625)"/>
      <path d="M 1600 4347 
Q 1350 4347 1178 4173 
Q 1006 4000 1006 3750 
Q 1006 3503 1178 3333 
Q 1350 3163 1600 3163 
Q 1850 3163 2022 3333 
Q 2194 3503 2194 3750 
Q 2194 3997 2020 4172 
Q 1847 4347 1600 4347 
z
M 1600 4750 
Q 1800 4750 1984 4673 
Q 2169 4597 2303 4453 
Q 2447 4313 2519 4134 
Q 2591 3956 2591 3750 
Q 2591 3338 2302 3052 
Q 2013 2766 1594 2766 
Q 1172 2766 890 3047 
Q 609 3328 609 3750 
Q 609 4169 896 4459 
Q 1184 4750 1600 4750 
z
" id="DejaVuSans-b0" transform="scale(0.015625)"/>
     </defs>
     <use xlink:href="#DejaVuSans-55"/>
     <use x="73.193359" xlink:href="#DejaVuSans-70"/>
     <use x="136.669922" xlink:href="#DejaVuSans-70"/>
     <use x="200.146484" xlink:href="#DejaVuSans-65"/>
     <use x="261.669922" xlink:href="#DejaVuSans-72"/>
     <use x="302.783203" xlink:href="#DejaVuSans-20"/>
     <use x="334.570312" xlink:href="#DejaVuSans-54"/>
     <use x="380.904297" xlink:href="#DejaVuSans-72"/>
     <use x="422.017578" xlink:href="#DejaVuSans-61"/>
     <use x="483.296875" xlink:href="#DejaVuSans-76"/>
     <use x="542.476562" xlink:href="#DejaVuSans-65"/>
     <use x="604" xlink:href="#DejaVuSans-72"/>
     <use x="645.113281" xlink:href="#DejaVuSans-73"/>
     <use x="697.212891" xlink:href="#DejaVuSans-65"/>
     <use x="758.736328" xlink:href="#DejaVuSans-20"/>
     <use x="790.523438" xlink:href="#DejaVuSans-31"/>
     <use x="854.146484" xlink:href="#DejaVuSans-31"/>
     <use x="917.769531" xlink:href="#DejaVuSans-2e"/>
     <use x="949.556641" xlink:href="#DejaVuSans-32"/>
     <use x="1013.179688" xlink:href="#DejaVuSans-b0"/>
    </g>
   </g>
   <g id="text_3">
    <g id="patch_4">
     <path d="M 159.678232 54.040984 
L 161.728609 59.816582 
L 163.590394 59.155635 
L 161.540017 53.380037 
z
" style="fill:#ffffff;"/>
    </g>
    <!--  23.4° -->
    <g style="fill:#4169e1;" transform="translate(160.095741 53.913988)rotate(-289.54521)scale(0.02 -0.02)">
     <defs>
      <path d="M 2597 2516 
Q 3050 2419 3304 2112 
Q 3559 1806 3559 1356 
Q 3559 666 3084 287 
Q 2609 -91 1734 -91 
Q 1441 -91 1130 -33 
Q 819 25 488 141 
L 488 750 
Q 750 597 1062 519 
Q 1375 441 1716 441 
Q 2309 441 2620 675 
Q 2931 909 2931 1356 
Q 2931 1769 2642 2001 
Q 2353 2234 1838 2234 
L 1294 2234 
L 1294 2753 
L 1863 2753 
Q 2328 2753 2575 2939 
Q 2822 3125 2822 3475 
Q 2822 3834 2567 4026 
Q 2313 4219 1838 4219 
Q 1578 4219 1281 4162 
Q 984 4106 628 3988 
L 628 4550 
Q 988 4650 1302 4700 
Q 1616 4750 1894 4750 
Q 2613 4750 3031 4423 
Q 3450 4097 3450 3541 
Q 3450 3153 3228 2886 
Q 3006 2619 2597 2516 
z
" id="DejaVuSans-33" transform="scale(0.015625)"/>
      <path d="M 2419 4116 
L 825 1625 
L 2419 1625 
L 2419 4116 
z
M 2253 4666 
L 3047 4666 
L 3047 1625 
L 3713 1625 
L 3713 1100 
L 3047 1100 
L 3047 0 
L 2419 0 
L 2419 1100 
L 313 1100 
L 313 1709 
L 2253 4666 
z
" id="DejaVuSans-34" transform="scale(0.015625)"/>
     </defs>
     <use xlink:href="#DejaVuSans-20"/>
     <use x="31.787109" xlink:href="#DejaVuSans-32"/>
     <use x="95.410156" xlink:href="#DejaVuSans-33"/>
     <use x="159.033203" xlink:href="#DejaVuSans-2e"/>
     <use x="190.820312" xlink:href="#DejaVuSans-34"/>
     <use x="254.443359" xlink:href="#DejaVuSans-b0"/>
    </g>
   </g>
   <g id="text_4">
    <g id="patch_5">
     <path d="M 179.846694 84.588675 
L 183.013484 96.85266 
L 184.926365 96.358718 
L 181.759575 84.094733 
z
" style="fill:#ffffff;"/>
    </g>
    <!-- Ripper 26.5° -->
    <g transform="translate(180.273787 84.499048)rotate(-284.478575)scale(0.02 -0.02)">
     <defs>
      <path d="M 2841 2188 
Q 3044 2119 3236 1894 
Q 3428 1669 3622 1275 
L 4263 0 
L 3584 0 
L 2988 1197 
Q 2756 1666 2539 1819 
Q 2322 1972 1947 1972 
L 1259 1972 
L 1259 0 
L 628 0 
L 628 4666 
L 2053 4666 
Q 2853 4666 3247 4331 
Q 3641 3997 3641 3322 
Q 3641 2881 3436 2590 
Q 3231 2300 2841 2188 
z
M 1259 4147 
L 1259 2491 
L 2053 2491 
Q 2509 2491 2742 2702 
Q 2975 2913 2975 3322 
Q 2975 3731 2742 3939 
Q 2509 4147 2053 4147 
L 1259 4147 
z
" id="DejaVuSans-52" transform="scale(0.015625)"/>
      <path d="M 2113 2584 
Q 1688 2584 1439 2293 
Q 1191 2003 1191 1497 
Q 1191 994 1439 701 
Q 1688 409 2113 409 
Q 2538 409 2786 701 
Q 3034 994 3034 1497 
Q 3034 2003 2786 2293 
Q 2538 2584 2113 2584 
z
M 3366 4563 
L 3366 3988 
Q 3128 4100 2886 4159 
Q 2644 4219 2406 4219 
Q 1781 4219 1451 3797 
Q 1122 3375 1075 2522 
Q 1259 2794 1537 2939 
Q 1816 3084 2150 3084 
Q 2853 3084 3261 2657 
Q 3669 2231 3669 1497 
Q 3669 778 3244 343 
Q 2819 -91 2113 -91 
Q 1303 -91 875 529 
Q 447 1150 447 2328 
Q 447 3434 972 4092 
Q 1497 4750 2381 4750 
Q 2619 4750 2861 4703 
Q 3103 4656 3366 4563 
z
" id="DejaVuSans-36" transform="scale(0.015625)"/>
      <path d="M 691 4666 
L 3169 4666 
L 3169 4134 
L 1269 4134 
L 1269 2991 
Q 1406 3038 1543 3061 
Q 1681 3084 1819 3084 
Q 2600 3084 3056 2656 
Q 3513 2228 3513 1497 
Q 3513 744 3044 326 
Q 2575 -91 1722 -91 
Q 1428 -91 1123 -41 
Q 819 9 494 109 
L 494 744 
Q 775 591 1075 516 
Q 1375 441 1709 441 
Q 2250 441 2565 725 
Q 2881 1009 2881 1497 
Q 2881 1984 2565 2268 
Q 2250 2553 1709 2553 
Q 1456 2553 1204 2497 
Q 953 2441 691 2322 
L 691 4666 
z
" id="DejaVuSans-35" transform="scale(0.015625)"/>
     </defs>
     <use xlink:href="#DejaVuSans-52"/>
     <use x="69.482422" xlink:href="#DejaVuSans-69"/>
     <use x="97.265625" xlink:href="#DejaVuSans-70"/>
     <use x="160.742188" xlink:href="#DejaVuSans-70"/>
     <use x="224.21875" xlink:href="#DejaVuSans-65"/>
     <use x="285.742188" xlink:href="#DejaVuSans-72"/>
     <use x="326.855469" xlink:href="#DejaVuSans-20"/>
     <use x="358.642578" xlink:href="#DejaVuSans-32"/>
     <use x="422.265625" xlink:href="#DejaVuSans-36"/>
     <use x="485.888672" xlink:href="#DejaVuSans-2e"/>
     <use x="517.675781" xlink:href="#DejaVuSans-35"/>
     <use x="581.298828" xlink:href="#DejaVuSans-b0"/>
    </g>
   </g>
   <g id="text_5">
    <g id="patch_6">
     <path d="M 171.78957 98.055781 
L 171.966657 117.526226 
L 173.9422 117.508258 
L 173.765114 98.037813 
z
" style="fill:#ffffff;"/>
    </g>
    <!-- Widow Maker 31.2° -->
    <g style="fill:#ff0000;" transform="translate(172.225672 98.071816)rotate(-270.5211)scale(0.02 -0.02)">
     <defs>
      <path d="M 213 4666 
L 850 4666 
L 1831 722 
L 2809 4666 
L 3519 4666 
L 4500 722 
L 5478 4666 
L 6119 4666 
L 4947 0 
L 4153 0 
L 3169 4050 
L 2175 0 
L 1381 0 
L 213 4666 
z
" id="DejaVuSans-57" transform="scale(0.015625)"/>
      <path d="M 2906 2969 
L 2906 4863 
L 3481 4863 
L 3481 0 
L 2906 0 
L 2906 525 
Q 2725 213 2448 61 
Q 2172 -91 1784 -91 
Q 1150 -91 751 415 
Q 353 922 353 1747 
Q 353 2572 751 3078 
Q 1150 3584 1784 3584 
Q 2172 3584 2448 3432 
Q 2725 3281 2906 2969 
z
M 947 1747 
Q 947 1113 1208 752 
Q 1469 391 1925 391 
Q 2381 391 2643 752 
Q 2906 1113 2906 1747 
Q 2906 2381 2643 2742 
Q 2381 3103 1925 3103 
Q 1469 3103 1208 2742 
Q 947 2381 947 1747 
z
" id="DejaVuSans-64" transform="scale(0.015625)"/>
      <path d="M 269 3500 
L 844 3500 
L 1563 769 
L 2278 3500 
L 2956 3500 
L 3675 769 
L 4391 3500 
L 4966 3500 
L 4050 0 
L 3372 0 
L 2619 2869 
L 1863 0 
L 1184 0 
L 269 3500 
z
" id="DejaVuSans-77" transform="scale(0.015625)"/>
     </defs>
     <use xlink:href="#DejaVuSans-57"/>
     <use x="96.626953" xlink:href="#DejaVuSans-69"/>
     <use x="124.410156" xlink:href="#DejaVuSans-64"/>
     <use x="187.886719" xlink:href="#DejaVuSans-6f"/>
     <use x="249.068359" xlink:href="#DejaVuSans-77"/>
     <use x="330.855469" xlink:href="#DejaVuSans-20"/>
     <use x="362.642578" xlink:href="#DejaVuSans-4d"/>
     <use x="448.921875" xlink:href="#DejaVuSans-61"/>
     <use x="510.201172" xlink:href="#DejaVuSans-6b"/>
     <use x="564.486328" xlink:href="#DejaVuSans-65"/>
     <use x="626.009766" xlink:href="#DejaVuSans-72"/>
     <use x="667.123047" xlink:href="#DejaVuSans-20"/>
     <use x="698.910156" xlink:href="#DejaVuSans-33"/>
     <use x="762.533203" xlink:href="#DejaVuSans-31"/>
     <use x="826.15625" xlink:href="#DejaVuSans-2e"/>
     <use x="857.943359" xlink:href="#DejaVuSans-32"/>
     <use x="921.566406" xlink:href="#DejaVuSans-b0"/>
    </g>
   </g>
   <g id="text_6">
    <g id="patch_7">
     <path d="M 168.019663 171.587519 
L 189.646513 163.658069 
L 188.966425 161.803191 
L 167.339575 169.732641 
z
" style="fill:#ffffff;"/>
    </g>
    <!-- Granite Gateway 18.7° -->
    <g style="fill:#4169e1;" transform="translate(167.888374 171.17134)rotate(-20.135381)scale(0.02 -0.02)">
     <defs>
      <path d="M 3809 666 
L 3809 1919 
L 2778 1919 
L 2778 2438 
L 4434 2438 
L 4434 434 
Q 4069 175 3628 42 
Q 3188 -91 2688 -91 
Q 1594 -91 976 548 
Q 359 1188 359 2328 
Q 359 3472 976 4111 
Q 1594 4750 2688 4750 
Q 3144 4750 3555 4637 
Q 3966 4525 4313 4306 
L 4313 3634 
Q 3963 3931 3569 4081 
Q 3175 4231 2741 4231 
Q 1884 4231 1454 3753 
Q 1025 3275 1025 2328 
Q 1025 1384 1454 906 
Q 1884 428 2741 428 
Q 3075 428 3337 486 
Q 3600 544 3809 666 
z
" id="DejaVuSans-47" transform="scale(0.015625)"/>
      <path d="M 3513 2113 
L 3513 0 
L 2938 0 
L 2938 2094 
Q 2938 2591 2744 2837 
Q 2550 3084 2163 3084 
Q 1697 3084 1428 2787 
Q 1159 2491 1159 1978 
L 1159 0 
L 581 0 
L 581 3500 
L 1159 3500 
L 1159 2956 
Q 1366 3272 1645 3428 
Q 1925 3584 2291 3584 
Q 2894 3584 3203 3211 
Q 3513 2838 3513 2113 
z
" id="DejaVuSans-6e" transform="scale(0.015625)"/>
      <path d="M 1172 4494 
L 1172 3500 
L 2356 3500 
L 2356 3053 
L 1172 3053 
L 1172 1153 
Q 1172 725 1289 603 
Q 1406 481 1766 481 
L 2356 481 
L 2356 0 
L 1766 0 
Q 1100 0 847 248 
Q 594 497 594 1153 
L 594 3053 
L 172 3053 
L 172 3500 
L 594 3500 
L 594 4494 
L 1172 4494 
z
" id="DejaVuSans-74" transform="scale(0.015625)"/>
      <path d="M 2059 -325 
Q 1816 -950 1584 -1140 
Q 1353 -1331 966 -1331 
L 506 -1331 
L 506 -850 
L 844 -850 
Q 1081 -850 1212 -737 
Q 1344 -625 1503 -206 
L 1606 56 
L 191 3500 
L 800 3500 
L 1894 763 
L 2988 3500 
L 3597 3500 
L 2059 -325 
z
" id="DejaVuSans-79" transform="scale(0.015625)"/>
      <path d="M 2034 2216 
Q 1584 2216 1326 1975 
Q 1069 1734 1069 1313 
Q 1069 891 1326 650 
Q 1584 409 2034 409 
Q 2484 409 2743 651 
Q 3003 894 3003 1313 
Q 3003 1734 2745 1975 
Q 2488 2216 2034 2216 
z
M 1403 2484 
Q 997 2584 770 2862 
Q 544 3141 544 3541 
Q 544 4100 942 4425 
Q 1341 4750 2034 4750 
Q 2731 4750 3128 4425 
Q 3525 4100 3525 3541 
Q 3525 3141 3298 2862 
Q 3072 2584 2669 2484 
Q 3125 2378 3379 2068 
Q 3634 1759 3634 1313 
Q 3634 634 3220 271 
Q 2806 -91 2034 -91 
Q 1263 -91 848 271 
Q 434 634 434 1313 
Q 434 1759 690 2068 
Q 947 2378 1403 2484 
z
M 1172 3481 
Q 1172 3119 1398 2916 
Q 1625 2713 2034 2713 
Q 2441 2713 2670 2916 
Q 2900 3119 2900 3481 
Q 2900 3844 2670 4047 
Q 2441 4250 2034 4250 
Q 1625 4250 1398 4047 
Q 1172 3844 1172 3481 
z
" id="DejaVuSans-38" transform="scale(0.015625)"/>
      <path d="M 525 4666 
L 3525 4666 
L 3525 4397 
L 1831 0 
L 1172 0 
L 2766 4134 
L 525 4134 
L 525 4666 
z
" id="DejaVuSans-37" transform="scale(0.015625)"/>
     </defs>
     <use xlink:href="#DejaVuSans-47"/>
     <use x="77.490234" xlink:href="#DejaVuSans-72"/>
     <use x="118.603516" xlink:href="#DejaVuSans-61"/>
     <use x="179.882812" xlink:href="#DejaVuSans-6e"/>
     <use x="243.261719" xlink:href="#DejaVuSans-69"/>
     <use x="271.044922" xlink:href="#DejaVuSans-74"/>
     <use x="310.253906" xlink:href="#DejaVuSans-65"/>
     <use x="371.777344" xlink:href="#DejaVuSans-20"/>
     <use x="403.564453" xlink:href="#DejaVuSans-47"/>
     <use x="481.054688" xlink:href="#DejaVuSans-61"/>
     <use x="542.333984" xlink:href="#DejaVuSans-74"/>
     <use x="581.542969" xlink:href="#DejaVuSans-65"/>
     <use x="643.066406" xlink:href="#DejaVuSans-77"/>
     <use x="724.853516" xlink:href="#DejaVuSans-61"/>
     <use x="786.132812" xlink:href="#DejaVuSans-79"/>
     <use x="845.3125" xlink:href="#DejaVuSans-20"/>
     <use x="877.099609" xlink:href="#DejaVuSans-31"/>
     <use x="940.722656" xlink:href="#DejaVuSans-38"/>
     <use x="1004.345703" xlink:href="#DejaVuSans-2e"/>
     <use x="1036.132812" xlink:href="#DejaVuSans-37"/>
     <use x="1099.755859" xlink:href="#DejaVuSans-b0"/>
    </g>
   </g>
   <g id="text_7">
    <g id="patch_8">
     <path d="M 153.698201 109.064852 
L 156.16224 89.012866 
L 154.201364 88.771908 
L 151.737325 108.823894 
z
" style="fill:#ffffff;"/>
    </g>
    <!-- Sleepy Hollow 27.2° -->
    <g transform="translate(153.267958 108.991832)rotate(-82.99447)scale(0.02 -0.02)">
     <defs>
      <path d="M 3425 4513 
L 3425 3897 
Q 3066 4069 2747 4153 
Q 2428 4238 2131 4238 
Q 1616 4238 1336 4038 
Q 1056 3838 1056 3469 
Q 1056 3159 1242 3001 
Q 1428 2844 1947 2747 
L 2328 2669 
Q 3034 2534 3370 2195 
Q 3706 1856 3706 1288 
Q 3706 609 3251 259 
Q 2797 -91 1919 -91 
Q 1588 -91 1214 -16 
Q 841 59 441 206 
L 441 856 
Q 825 641 1194 531 
Q 1563 422 1919 422 
Q 2459 422 2753 634 
Q 3047 847 3047 1241 
Q 3047 1584 2836 1778 
Q 2625 1972 2144 2069 
L 1759 2144 
Q 1053 2284 737 2584 
Q 422 2884 422 3419 
Q 422 4038 858 4394 
Q 1294 4750 2059 4750 
Q 2388 4750 2728 4690 
Q 3069 4631 3425 4513 
z
" id="DejaVuSans-53" transform="scale(0.015625)"/>
      <path d="M 628 4666 
L 1259 4666 
L 1259 2753 
L 3553 2753 
L 3553 4666 
L 4184 4666 
L 4184 0 
L 3553 0 
L 3553 2222 
L 1259 2222 
L 1259 0 
L 628 0 
L 628 4666 
z
" id="DejaVuSans-48" transform="scale(0.015625)"/>
     </defs>
     <use xlink:href="#DejaVuSans-53"/>
     <use x="63.476562" xlink:href="#DejaVuSans-6c"/>
     <use x="91.259766" xlink:href="#DejaVuSans-65"/>
     <use x="152.783203" xlink:href="#DejaVuSans-65"/>
     <use x="214.306641" xlink:href="#DejaVuSans-70"/>
     <use x="277.783203" xlink:href="#DejaVuSans-79"/>
     <use x="336.962891" xlink:href="#DejaVuSans-20"/>
     <use x="368.75" xlink:href="#DejaVuSans-48"/>
     <use x="443.945312" xlink:href="#DejaVuSans-6f"/>
     <use x="505.126953" xlink:href="#DejaVuSans-6c"/>
     <use x="532.910156" xlink:href="#DejaVuSans-6c"/>
     <use x="560.693359" xlink:href="#DejaVuSans-6f"/>
     <use x="621.875" xlink:href="#DejaVuSans-77"/>
     <use x="703.662109" xlink:href="#DejaVuSans-20"/>
     <use x="735.449219" xlink:href="#DejaVuSans-32"/>
     <use x="799.072266" xlink:href="#DejaVuSans-37"/>
     <use x="862.695312" xlink:href="#DejaVuSans-2e"/>
     <use x="894.482422" xlink:href="#DejaVuSans-32"/>
     <use x="958.105469" xlink:href="#DejaVuSans-b0"/>
    </g>
   </g>
   <g id="text_8">
    <g id="patch_9">
     <path d="M 135.466325 134.543473 
L 139.976764 117.918202 
L 138.070063 117.400914 
L 133.559625 134.026185 
z
" style="fill:#ffffff;"/>
    </g>
    <!-- Rock'N Roll 27.4° -->
    <g transform="translate(135.050833 134.410027)rotate(-74.821016)scale(0.02 -0.02)">
     <defs>
      <path d="M 1147 4666 
L 1147 2931 
L 616 2931 
L 616 4666 
L 1147 4666 
z
" id="DejaVuSans-27" transform="scale(0.015625)"/>
      <path d="M 628 4666 
L 1478 4666 
L 3547 763 
L 3547 4666 
L 4159 4666 
L 4159 0 
L 3309 0 
L 1241 3903 
L 1241 0 
L 628 0 
L 628 4666 
z
" id="DejaVuSans-4e" transform="scale(0.015625)"/>
     </defs>
     <use xlink:href="#DejaVuSans-52"/>
     <use x="64.982422" xlink:href="#DejaVuSans-6f"/>
     <use x="126.164062" xlink:href="#DejaVuSans-63"/>
     <use x="181.144531" xlink:href="#DejaVuSans-6b"/>
     <use x="239.054688" xlink:href="#DejaVuSans-27"/>
     <use x="266.544922" xlink:href="#DejaVuSans-4e"/>
     <use x="341.349609" xlink:href="#DejaVuSans-20"/>
     <use x="373.136719" xlink:href="#DejaVuSans-52"/>
     <use x="438.119141" xlink:href="#DejaVuSans-6f"/>
     <use x="499.300781" xlink:href="#DejaVuSans-6c"/>
     <use x="527.083984" xlink:href="#DejaVuSans-6c"/>
     <use x="554.867188" xlink:href="#DejaVuSans-20"/>
     <use x="586.654297" xlink:href="#DejaVuSans-32"/>
     <use x="650.277344" xlink:href="#DejaVuSans-37"/>
     <use x="713.900391" xlink:href="#DejaVuSans-2e"/>
     <use x="745.6875" xlink:href="#DejaVuSans-34"/>
     <use x="809.310547" xlink:href="#DejaVuSans-b0"/>
    </g>
   </g>
   <g id="text_9">
    <g id="patch_10">
     <path d="M 154.411192 181.603669 
L 155.292098 175.538557 
L 153.336987 175.254594 
L 152.456081 181.319705 
z
" style="fill:#ffffff;"/>
    </g>
    <!--  12.9° -->
    <g style="fill:#008000;" transform="translate(153.982655 181.521218)rotate(-81.736063)scale(0.02 -0.02)">
     <defs>
      <path d="M 703 97 
L 703 672 
Q 941 559 1184 500 
Q 1428 441 1663 441 
Q 2288 441 2617 861 
Q 2947 1281 2994 2138 
Q 2813 1869 2534 1725 
Q 2256 1581 1919 1581 
Q 1219 1581 811 2004 
Q 403 2428 403 3163 
Q 403 3881 828 4315 
Q 1253 4750 1959 4750 
Q 2769 4750 3195 4129 
Q 3622 3509 3622 2328 
Q 3622 1225 3098 567 
Q 2575 -91 1691 -91 
Q 1453 -91 1209 -44 
Q 966 3 703 97 
z
M 1959 2075 
Q 2384 2075 2632 2365 
Q 2881 2656 2881 3163 
Q 2881 3666 2632 3958 
Q 2384 4250 1959 4250 
Q 1534 4250 1286 3958 
Q 1038 3666 1038 3163 
Q 1038 2656 1286 2365 
Q 1534 2075 1959 2075 
z
" id="DejaVuSans-39" transform="scale(0.015625)"/>
     </defs>
     <use xlink:href="#DejaVuSans-20"/>
     <use x="31.787109" xlink:href="#DejaVuSans-31"/>
     <use x="95.410156" xlink:href="#DejaVuSans-32"/>
     <use x="159.033203" xlink:href="#DejaVuSans-2e"/>
     <use x="190.820312" xlink:href="#DejaVuSans-39"/>
     <use x="254.443359" xlink:href="#DejaVuSans-b0"/>
    </g>
   </g>
   <g id="text_10">
    <g id="patch_11">
     <path d="M 175.504817 64.557852 
L 186.583277 72.824002 
L 187.764743 71.240578 
L 176.686283 62.974427 
z
" style="fill:#ffffff;"/>
    </g>
    <!-- Thin Air 23.9° -->
    <g style="fill:#4169e1;" transform="translate(175.781547 64.220417)rotate(-323.271679)scale(0.02 -0.02)">
     <defs>
      <path d="M 3513 2113 
L 3513 0 
L 2938 0 
L 2938 2094 
Q 2938 2591 2744 2837 
Q 2550 3084 2163 3084 
Q 1697 3084 1428 2787 
Q 1159 2491 1159 1978 
L 1159 0 
L 581 0 
L 581 4863 
L 1159 4863 
L 1159 2956 
Q 1366 3272 1645 3428 
Q 1925 3584 2291 3584 
Q 2894 3584 3203 3211 
Q 3513 2838 3513 2113 
z
" id="DejaVuSans-68" transform="scale(0.015625)"/>
      <path d="M 2188 4044 
L 1331 1722 
L 3047 1722 
L 2188 4044 
z
M 1831 4666 
L 2547 4666 
L 4325 0 
L 3669 0 
L 3244 1197 
L 1141 1197 
L 716 0 
L 50 0 
L 1831 4666 
z
" id="DejaVuSans-41" transform="scale(0.015625)"/>
     </defs>
     <use xlink:href="#DejaVuSans-54"/>
     <use x="61.083984" xlink:href="#DejaVuSans-68"/>
     <use x="124.462891" xlink:href="#DejaVuSans-69"/>
     <use x="152.246094" xlink:href="#DejaVuSans-6e"/>
     <use x="215.625" xlink:href="#DejaVuSans-20"/>
     <use x="247.412109" xlink:href="#DejaVuSans-41"/>
     <use x="315.820312" xlink:href="#DejaVuSans-69"/>
     <use x="343.603516" xlink:href="#DejaVuSans-72"/>
     <use x="384.716797" xlink:href="#DejaVuSans-20"/>
     <use x="416.503906" xlink:href="#DejaVuSans-32"/>
     <use x="480.126953" xlink:href="#DejaVuSans-33"/>
     <use x="543.75" xlink:href="#DejaVuSans-2e"/>
     <use x="575.537109" xlink:href="#DejaVuSans-39"/>
     <use x="639.160156" xlink:href="#DejaVuSans-b0"/>
    </g>
   </g>
   <g id="text_11">
    <g id="patch_12">
     <path d="M 126.886562 77.348348 
L 146.155189 86.43514 
L 146.997862 84.648245 
L 127.729235 75.561452 
z
" style="fill:#ffffff;"/>
    </g>
    <!-- Upper Traverse 14.4° -->
    <g style="fill:#008000;" transform="translate(127.090594 76.962586)rotate(-334.752144)scale(0.02 -0.02)">
     <use xlink:href="#DejaVuSans-55"/>
     <use x="73.193359" xlink:href="#DejaVuSans-70"/>
     <use x="136.669922" xlink:href="#DejaVuSans-70"/>
     <use x="200.146484" xlink:href="#DejaVuSans-65"/>
     <use x="261.669922" xlink:href="#DejaVuSans-72"/>
     <use x="302.783203" xlink:href="#DejaVuSans-20"/>
     <use x="334.570312" xlink:href="#DejaVuSans-54"/>
     <use x="380.904297" xlink:href="#DejaVuSans-72"/>
     <use x="422.017578" xlink:href="#DejaVuSans-61"/>
     <use x="483.296875" xlink:href="#DejaVuSans-76"/>
     <use x="542.476562" xlink:href="#DejaVuSans-65"/>
     <use x="604" xlink:href="#DejaVuSans-72"/>
     <use x="645.113281" xlink:href="#DejaVuSans-73"/>
     <use x="697.212891" xlink:href="#DejaVuSans-65"/>
     <use x="758.736328" xlink:href="#DejaVuSans-20"/>
     <use x="790.523438" xlink:href="#DejaVuSans-31"/>
     <use x="854.146484" xlink:href="#DejaVuSans-34"/>
     <use x="917.769531" xlink:href="#DejaVuSans-2e"/>
     <use x="949.556641" xlink:href="#DejaVuSans-34"/>
     <use x="1013.179688" xlink:href="#DejaVuSans-b0"/>
    </g>
   </g>
   <g id="text_12">
    <g id="patch_13">
     <path d="M 128.268098 68.355782 
L 144.42304 51.185228 
L 142.984157 49.831452 
L 126.829214 67.002007 
z
" style="fill:#ffffff;"/>
    </g>
    <!-- Enchanted Forest 19.1° -->
    <g style="fill:#4169e1;" transform="translate(127.964301 68.042494)rotate(-46.745578)scale(0.02 -0.02)">
     <defs>
      <path d="M 628 4666 
L 3578 4666 
L 3578 4134 
L 1259 4134 
L 1259 2753 
L 3481 2753 
L 3481 2222 
L 1259 2222 
L 1259 531 
L 3634 531 
L 3634 0 
L 628 0 
L 628 4666 
z
" id="DejaVuSans-45" transform="scale(0.015625)"/>
      <path d="M 628 4666 
L 3309 4666 
L 3309 4134 
L 1259 4134 
L 1259 2759 
L 3109 2759 
L 3109 2228 
L 1259 2228 
L 1259 0 
L 628 0 
L 628 4666 
z
" id="DejaVuSans-46" transform="scale(0.015625)"/>
     </defs>
     <use xlink:href="#DejaVuSans-45"/>
     <use x="63.183594" xlink:href="#DejaVuSans-6e"/>
     <use x="126.5625" xlink:href="#DejaVuSans-63"/>
     <use x="181.542969" xlink:href="#DejaVuSans-68"/>
     <use x="244.921875" xlink:href="#DejaVuSans-61"/>
     <use x="306.201172" xlink:href="#DejaVuSans-6e"/>
     <use x="369.580078" xlink:href="#DejaVuSans-74"/>
     <use x="408.789062" xlink:href="#DejaVuSans-65"/>
     <use x="470.3125" xlink:href="#DejaVuSans-64"/>
     <use x="533.789062" xlink:href="#DejaVuSans-20"/>
     <use x="565.576172" xlink:href="#DejaVuSans-46"/>
     <use x="619.470703" xlink:href="#DejaVuSans-6f"/>
     <use x="680.652344" xlink:href="#DejaVuSans-72"/>
     <use x="719.515625" xlink:href="#DejaVuSans-65"/>
     <use x="781.039062" xlink:href="#DejaVuSans-73"/>
     <use x="833.138672" xlink:href="#DejaVuSans-74"/>
     <use x="872.347656" xlink:href="#DejaVuSans-20"/>
     <use x="904.134766" xlink:href="#DejaVuSans-31"/>
     <use x="967.757812" xlink:href="#DejaVuSans-39"/>
     <use x="1031.380859" xlink:href="#DejaVuSans-2e"/>
     <use x="1063.167969" xlink:href="#DejaVuSans-31"/>
     <use x="1126.791016" xlink:href="#DejaVuSans-b0"/>
    </g>
   </g>
   <g id="text_13">
    <g id="patch_14">
     <path d="M 149.44679 75.723953 
L 153.381604 60.170202 
L 151.466317 59.68567 
L 147.531504 75.239421 
z
" style="fill:#ffffff;"/>
    </g>
    <!-- Showtime 31.6° -->
    <g style="fill:#ff0000;" transform="translate(149.029072 75.597648)rotate(-75.803083)scale(0.02 -0.02)">
     <defs>
      <path d="M 3328 2828 
Q 3544 3216 3844 3400 
Q 4144 3584 4550 3584 
Q 5097 3584 5394 3201 
Q 5691 2819 5691 2113 
L 5691 0 
L 5113 0 
L 5113 2094 
Q 5113 2597 4934 2840 
Q 4756 3084 4391 3084 
Q 3944 3084 3684 2787 
Q 3425 2491 3425 1978 
L 3425 0 
L 2847 0 
L 2847 2094 
Q 2847 2600 2669 2842 
Q 2491 3084 2119 3084 
Q 1678 3084 1418 2786 
Q 1159 2488 1159 1978 
L 1159 0 
L 581 0 
L 581 3500 
L 1159 3500 
L 1159 2956 
Q 1356 3278 1631 3431 
Q 1906 3584 2284 3584 
Q 2666 3584 2933 3390 
Q 3200 3197 3328 2828 
z
" id="DejaVuSans-6d" transform="scale(0.015625)"/>
     </defs>
     <use xlink:href="#DejaVuSans-53"/>
     <use x="63.476562" xlink:href="#DejaVuSans-68"/>
     <use x="126.855469" xlink:href="#DejaVuSans-6f"/>
     <use x="188.037109" xlink:href="#DejaVuSans-77"/>
     <use x="269.824219" xlink:href="#DejaVuSans-74"/>
     <use x="309.033203" xlink:href="#DejaVuSans-69"/>
     <use x="336.816406" xlink:href="#DejaVuSans-6d"/>
     <use x="434.228516" xlink:href="#DejaVuSans-65"/>
     <use x="495.751953" xlink:href="#DejaVuSans-20"/>
     <use x="527.539062" xlink:href="#DejaVuSans-33"/>
     <use x="591.162109" xlink:href="#DejaVuSans-31"/>
     <use x="654.785156" xlink:href="#DejaVuSans-2e"/>
     <use x="686.572266" xlink:href="#DejaVuSans-36"/>
     <use x="750.195312" xlink:href="#DejaVuSans-b0"/>
    </g>
   </g>
   <g id="text_14">
    <g id="patch_15">
     <path d="M 124.173607 53.557668 
L 130.142269 43.327473 
L 128.435842 42.331882 
L 122.46718 52.562077 
z
" style="fill:#ffffff;"/>
    </g>
    <!-- Ridge 20.1° -->
    <g style="fill:#4169e1;" transform="translate(123.807149 53.320708)rotate(-59.739182)scale(0.02 -0.02)">
     <defs>
      <path d="M 2906 1791 
Q 2906 2416 2648 2759 
Q 2391 3103 1925 3103 
Q 1463 3103 1205 2759 
Q 947 2416 947 1791 
Q 947 1169 1205 825 
Q 1463 481 1925 481 
Q 2391 481 2648 825 
Q 2906 1169 2906 1791 
z
M 3481 434 
Q 3481 -459 3084 -895 
Q 2688 -1331 1869 -1331 
Q 1566 -1331 1297 -1286 
Q 1028 -1241 775 -1147 
L 775 -588 
Q 1028 -725 1275 -790 
Q 1522 -856 1778 -856 
Q 2344 -856 2625 -561 
Q 2906 -266 2906 331 
L 2906 616 
Q 2728 306 2450 153 
Q 2172 0 1784 0 
Q 1141 0 747 490 
Q 353 981 353 1791 
Q 353 2603 747 3093 
Q 1141 3584 1784 3584 
Q 2172 3584 2450 3431 
Q 2728 3278 2906 2969 
L 2906 3500 
L 3481 3500 
L 3481 434 
z
" id="DejaVuSans-67" transform="scale(0.015625)"/>
      <path d="M 2034 4250 
Q 1547 4250 1301 3770 
Q 1056 3291 1056 2328 
Q 1056 1369 1301 889 
Q 1547 409 2034 409 
Q 2525 409 2770 889 
Q 3016 1369 3016 2328 
Q 3016 3291 2770 3770 
Q 2525 4250 2034 4250 
z
M 2034 4750 
Q 2819 4750 3233 4129 
Q 3647 3509 3647 2328 
Q 3647 1150 3233 529 
Q 2819 -91 2034 -91 
Q 1250 -91 836 529 
Q 422 1150 422 2328 
Q 422 3509 836 4129 
Q 1250 4750 2034 4750 
z
" id="DejaVuSans-30" transform="scale(0.015625)"/>
     </defs>
     <use xlink:href="#DejaVuSans-52"/>
     <use x="69.482422" xlink:href="#DejaVuSans-69"/>
     <use x="97.265625" xlink:href="#DejaVuSans-64"/>
     <use x="160.742188" xlink:href="#DejaVuSans-67"/>
     <use x="224.21875" xlink:href="#DejaVuSans-65"/>
     <use x="285.742188" xlink:href="#DejaVuSans-20"/>
     <use x="317.529297" xlink:href="#DejaVuSans-32"/>
     <use x="381.152344" xlink:href="#DejaVuSans-30"/>
     <use x="444.775391" xlink:href="#DejaVuSans-2e"/>
     <use x="476.5625" xlink:href="#DejaVuSans-31"/>
     <use x="540.185547" xlink:href="#DejaVuSans-b0"/>
    </g>
   </g>
   <g id="text_15">
    <g id="patch_16">
     <path d="M 94.667556 115.478702 
L 97.612464 98.007026 
L 95.664319 97.67866 
L 92.719411 115.150336 
z
" style="fill:#ffffff;"/>
    </g>
    <!-- Upper Belly 27.9° -->
    <g transform="translate(94.241006 115.386523)rotate(-80.432537)scale(0.02 -0.02)">
     <defs>
      <path d="M 1259 2228 
L 1259 519 
L 2272 519 
Q 2781 519 3026 730 
Q 3272 941 3272 1375 
Q 3272 1813 3026 2020 
Q 2781 2228 2272 2228 
L 1259 2228 
z
M 1259 4147 
L 1259 2741 
L 2194 2741 
Q 2656 2741 2882 2914 
Q 3109 3088 3109 3444 
Q 3109 3797 2882 3972 
Q 2656 4147 2194 4147 
L 1259 4147 
z
M 628 4666 
L 2241 4666 
Q 2963 4666 3353 4366 
Q 3744 4066 3744 3513 
Q 3744 3084 3544 2831 
Q 3344 2578 2956 2516 
Q 3422 2416 3680 2098 
Q 3938 1781 3938 1306 
Q 3938 681 3513 340 
Q 3088 0 2303 0 
L 628 0 
L 628 4666 
z
" id="DejaVuSans-42" transform="scale(0.015625)"/>
     </defs>
     <use xlink:href="#DejaVuSans-55"/>
     <use x="73.193359" xlink:href="#DejaVuSans-70"/>
     <use x="136.669922" xlink:href="#DejaVuSans-70"/>
     <use x="200.146484" xlink:href="#DejaVuSans-65"/>
     <use x="261.669922" xlink:href="#DejaVuSans-72"/>
     <use x="302.783203" xlink:href="#DejaVuSans-20"/>
     <use x="334.570312" xlink:href="#DejaVuSans-42"/>
     <use x="403.173828" xlink:href="#DejaVuSans-65"/>
     <use x="464.697266" xlink:href="#DejaVuSans-6c"/>
     <use x="492.480469" xlink:href="#DejaVuSans-6c"/>
     <use x="520.263672" xlink:href="#DejaVuSans-79"/>
     <use x="579.443359" xlink:href="#DejaVuSans-20"/>
     <use x="611.230469" xlink:href="#DejaVuSans-32"/>
     <use x="674.853516" xlink:href="#DejaVuSans-37"/>
     <use x="738.476562" xlink:href="#DejaVuSans-2e"/>
     <use x="770.263672" xlink:href="#DejaVuSans-39"/>
     <use x="833.886719" xlink:href="#DejaVuSans-b0"/>
    </g>
   </g>
   <g id="text_16">
    <g id="patch_17">
     <path d="M 92.124838 151.626796 
L 92.317665 169.279493 
L 94.293173 169.257914 
L 94.100345 151.605217 
z
" style="fill:#ffffff;"/>
    </g>
    <!-- Lower Belly 27.4° -->
    <g transform="translate(92.560968 151.642034)rotate(-270.625841)scale(0.02 -0.02)">
     <defs>
      <path d="M 628 4666 
L 1259 4666 
L 1259 531 
L 3531 531 
L 3531 0 
L 628 0 
L 628 4666 
z
" id="DejaVuSans-4c" transform="scale(0.015625)"/>
     </defs>
     <use xlink:href="#DejaVuSans-4c"/>
     <use x="53.962891" xlink:href="#DejaVuSans-6f"/>
     <use x="115.144531" xlink:href="#DejaVuSans-77"/>
     <use x="196.931641" xlink:href="#DejaVuSans-65"/>
     <use x="258.455078" xlink:href="#DejaVuSans-72"/>
     <use x="299.568359" xlink:href="#DejaVuSans-20"/>
     <use x="331.355469" xlink:href="#DejaVuSans-42"/>
     <use x="399.958984" xlink:href="#DejaVuSans-65"/>
     <use x="461.482422" xlink:href="#DejaVuSans-6c"/>
     <use x="489.265625" xlink:href="#DejaVuSans-6c"/>
     <use x="517.048828" xlink:href="#DejaVuSans-79"/>
     <use x="576.228516" xlink:href="#DejaVuSans-20"/>
     <use x="608.015625" xlink:href="#DejaVuSans-32"/>
     <use x="671.638672" xlink:href="#DejaVuSans-37"/>
     <use x="735.261719" xlink:href="#DejaVuSans-2e"/>
     <use x="767.048828" xlink:href="#DejaVuSans-34"/>
     <use x="830.671875" xlink:href="#DejaVuSans-b0"/>
    </g>
   </g>
   <g id="text_17">
    <g id="patch_18">
     <path d="M 82.983447 126.839329 
L 102.019355 114.211142 
L 100.927216 112.564836 
L 81.891307 125.193022 
z
" style="fill:#ffffff;"/>
    </g>
    <!-- Midway Traverse 16.6° -->
    <g style="fill:#008000;" transform="translate(82.759123 126.465002)rotate(-33.559804)scale(0.02 -0.02)">
     <use xlink:href="#DejaVuSans-4d"/>
     <use x="86.279297" xlink:href="#DejaVuSans-69"/>
     <use x="114.0625" xlink:href="#DejaVuSans-64"/>
     <use x="177.539062" xlink:href="#DejaVuSans-77"/>
     <use x="259.326172" xlink:href="#DejaVuSans-61"/>
     <use x="320.605469" xlink:href="#DejaVuSans-79"/>
     <use x="379.785156" xlink:href="#DejaVuSans-20"/>
     <use x="411.572266" xlink:href="#DejaVuSans-54"/>
     <use x="457.90625" xlink:href="#DejaVuSans-72"/>
     <use x="499.019531" xlink:href="#DejaVuSans-61"/>
     <use x="560.298828" xlink:href="#DejaVuSans-76"/>
     <use x="619.478516" xlink:href="#DejaVuSans-65"/>
     <use x="681.001953" xlink:href="#DejaVuSans-72"/>
     <use x="722.115234" xlink:href="#DejaVuSans-73"/>
     <use x="774.214844" xlink:href="#DejaVuSans-65"/>
     <use x="835.738281" xlink:href="#DejaVuSans-20"/>
     <use x="867.525391" xlink:href="#DejaVuSans-31"/>
     <use x="931.148438" xlink:href="#DejaVuSans-36"/>
     <use x="994.771484" xlink:href="#DejaVuSans-2e"/>
     <use x="1026.558594" xlink:href="#DejaVuSans-36"/>
     <use x="1090.181641" xlink:href="#DejaVuSans-b0"/>
    </g>
   </g>
   <g id="text_18">
    <g id="patch_19">
     <path d="M 73.893433 140.26504 
L 79.91208 150.55941 
L 81.617602 149.56227 
L 75.598954 139.2679 
z
" style="fill:#ffffff;"/>
    </g>
    <!-- T. Lee 20.6° -->
    <g style="fill:#4169e1;" transform="translate(74.279864 140.062279)rotate(-300.312873)scale(0.02 -0.02)">
     <use xlink:href="#DejaVuSans-54"/>
     <use x="49.208984" xlink:href="#DejaVuSans-2e"/>
     <use x="80.996094" xlink:href="#DejaVuSans-20"/>
     <use x="112.783203" xlink:href="#DejaVuSans-4c"/>
     <use x="166.746094" xlink:href="#DejaVuSans-65"/>
     <use x="228.269531" xlink:href="#DejaVuSans-65"/>
     <use x="289.792969" xlink:href="#DejaVuSans-20"/>
     <use x="321.580078" xlink:href="#DejaVuSans-32"/>
     <use x="385.203125" xlink:href="#DejaVuSans-30"/>
     <use x="448.826172" xlink:href="#DejaVuSans-2e"/>
     <use x="480.613281" xlink:href="#DejaVuSans-36"/>
     <use x="544.236328" xlink:href="#DejaVuSans-b0"/>
    </g>
   </g>
   <g id="text_19">
    <g id="patch_20">
     <path d="M 62.064002 142.072283 
L 66.491552 154.907267 
L 68.359179 154.263011 
L 63.931628 141.428027 
z
" style="fill:#ffffff;"/>
    </g>
    <!-- Remely 20.3° -->
    <g style="fill:#4169e1;" transform="translate(62.48263 141.949029)rotate(-289.032364)scale(0.02 -0.02)">
     <use xlink:href="#DejaVuSans-52"/>
     <use x="64.982422" xlink:href="#DejaVuSans-65"/>
     <use x="126.505859" xlink:href="#DejaVuSans-6d"/>
     <use x="223.917969" xlink:href="#DejaVuSans-65"/>
     <use x="285.441406" xlink:href="#DejaVuSans-6c"/>
     <use x="313.224609" xlink:href="#DejaVuSans-79"/>
     <use x="372.404297" xlink:href="#DejaVuSans-20"/>
     <use x="404.191406" xlink:href="#DejaVuSans-32"/>
     <use x="467.814453" xlink:href="#DejaVuSans-30"/>
     <use x="531.4375" xlink:href="#DejaVuSans-2e"/>
     <use x="563.224609" xlink:href="#DejaVuSans-33"/>
     <use x="626.847656" xlink:href="#DejaVuSans-b0"/>
    </g>
   </g>
   <g id="text_20">
    <g id="patch_21">
     <path d="M 84.009675 172.457557 
L 87.155953 185.191501 
L 89.073902 184.717618 
L 85.927624 171.983673 
z
" style="fill:#ffffff;"/>
    </g>
    <!-- Chutes 25.8° -->
    <g transform="translate(84.437683 172.372407)rotate(-283.878566)scale(0.02 -0.02)">
     <defs>
      <path d="M 4122 4306 
L 4122 3641 
Q 3803 3938 3442 4084 
Q 3081 4231 2675 4231 
Q 1875 4231 1450 3742 
Q 1025 3253 1025 2328 
Q 1025 1406 1450 917 
Q 1875 428 2675 428 
Q 3081 428 3442 575 
Q 3803 722 4122 1019 
L 4122 359 
Q 3791 134 3420 21 
Q 3050 -91 2638 -91 
Q 1578 -91 968 557 
Q 359 1206 359 2328 
Q 359 3453 968 4101 
Q 1578 4750 2638 4750 
Q 3056 4750 3426 4639 
Q 3797 4528 4122 4306 
z
" id="DejaVuSans-43" transform="scale(0.015625)"/>
     </defs>
     <use xlink:href="#DejaVuSans-43"/>
     <use x="69.824219" xlink:href="#DejaVuSans-68"/>
     <use x="133.203125" xlink:href="#DejaVuSans-75"/>
     <use x="196.582031" xlink:href="#DejaVuSans-74"/>
     <use x="235.791016" xlink:href="#DejaVuSans-65"/>
     <use x="297.314453" xlink:href="#DejaVuSans-73"/>
     <use x="349.414062" xlink:href="#DejaVuSans-20"/>
     <use x="381.201172" xlink:href="#DejaVuSans-32"/>
     <use x="444.824219" xlink:href="#DejaVuSans-35"/>
     <use x="508.447266" xlink:href="#DejaVuSans-2e"/>
     <use x="540.234375" xlink:href="#DejaVuSans-38"/>
     <use x="603.857422" xlink:href="#DejaVuSans-b0"/>
    </g>
   </g>
   <g id="text_21">
    <g id="patch_22">
     <path d="M 48.229044 177.637502 
L 48.678718 155.934035 
L 46.703517 155.893111 
L 46.253843 177.596578 
z
" style="fill:#ffffff;"/>
    </g>
    <!-- Field of Dreams 20.9° -->
    <g style="fill:#4169e1;" transform="translate(47.793614 177.608476)rotate(-88.813058)scale(0.02 -0.02)">
     <defs>
      <path d="M 2375 4863 
L 2375 4384 
L 1825 4384 
Q 1516 4384 1395 4259 
Q 1275 4134 1275 3809 
L 1275 3500 
L 2222 3500 
L 2222 3053 
L 1275 3053 
L 1275 0 
L 697 0 
L 697 3053 
L 147 3053 
L 147 3500 
L 697 3500 
L 697 3744 
Q 697 4328 969 4595 
Q 1241 4863 1831 4863 
L 2375 4863 
z
" id="DejaVuSans-66" transform="scale(0.015625)"/>
     </defs>
     <use xlink:href="#DejaVuSans-46"/>
     <use x="50.269531" xlink:href="#DejaVuSans-69"/>
     <use x="78.052734" xlink:href="#DejaVuSans-65"/>
     <use x="139.576172" xlink:href="#DejaVuSans-6c"/>
     <use x="167.359375" xlink:href="#DejaVuSans-64"/>
     <use x="230.835938" xlink:href="#DejaVuSans-20"/>
     <use x="262.623047" xlink:href="#DejaVuSans-6f"/>
     <use x="323.804688" xlink:href="#DejaVuSans-66"/>
     <use x="359.009766" xlink:href="#DejaVuSans-20"/>
     <use x="390.796875" xlink:href="#DejaVuSans-44"/>
     <use x="467.798828" xlink:href="#DejaVuSans-72"/>
     <use x="506.662109" xlink:href="#DejaVuSans-65"/>
     <use x="568.185547" xlink:href="#DejaVuSans-61"/>
     <use x="629.464844" xlink:href="#DejaVuSans-6d"/>
     <use x="726.876953" xlink:href="#DejaVuSans-73"/>
     <use x="778.976562" xlink:href="#DejaVuSans-20"/>
     <use x="810.763672" xlink:href="#DejaVuSans-32"/>
     <use x="874.386719" xlink:href="#DejaVuSans-30"/>
     <use x="938.009766" xlink:href="#DejaVuSans-2e"/>
     <use x="969.796875" xlink:href="#DejaVuSans-39"/>
     <use x="1033.419922" xlink:href="#DejaVuSans-b0"/>
    </g>
   </g>
   <g id="text_22">
    <g id="patch_23">
     <path d="M 52.177509 139.878285 
L 54.854669 129.743737 
L 52.944565 129.23916 
L 50.267405 139.373709 
z
" style="fill:#ffffff;"/>
    </g>
    <!-- Rule 18.5° -->
    <g style="fill:#4169e1;" transform="translate(51.761138 139.74761)rotate(-75.202664)scale(0.02 -0.02)">
     <use xlink:href="#DejaVuSans-52"/>
     <use x="64.982422" xlink:href="#DejaVuSans-75"/>
     <use x="128.361328" xlink:href="#DejaVuSans-6c"/>
     <use x="156.144531" xlink:href="#DejaVuSans-65"/>
     <use x="217.667969" xlink:href="#DejaVuSans-20"/>
     <use x="249.455078" xlink:href="#DejaVuSans-31"/>
     <use x="313.078125" xlink:href="#DejaVuSans-38"/>
     <use x="376.701172" xlink:href="#DejaVuSans-2e"/>
     <use x="408.488281" xlink:href="#DejaVuSans-35"/>
     <use x="472.111328" xlink:href="#DejaVuSans-b0"/>
    </g>
   </g>
   <g id="text_23">
    <g id="patch_24">
     <path d="M 40.311738 185.879889 
L 58.139237 205.104102 
L 59.587847 203.760739 
L 41.760348 184.536526 
z
" style="fill:#ffffff;"/>
    </g>
    <!-- Lighting Ridge Road 11.7° -->
    <g style="fill:#008000;" transform="translate(40.644985 185.59813)rotate(-312.841181)scale(0.02 -0.02)">
     <use xlink:href="#DejaVuSans-4c"/>
     <use x="55.712891" xlink:href="#DejaVuSans-69"/>
     <use x="83.496094" xlink:href="#DejaVuSans-67"/>
     <use x="146.972656" xlink:href="#DejaVuSans-68"/>
     <use x="210.351562" xlink:href="#DejaVuSans-74"/>
     <use x="249.560547" xlink:href="#DejaVuSans-69"/>
     <use x="277.34375" xlink:href="#DejaVuSans-6e"/>
     <use x="340.722656" xlink:href="#DejaVuSans-67"/>
     <use x="404.199219" xlink:href="#DejaVuSans-20"/>
     <use x="435.986328" xlink:href="#DejaVuSans-52"/>
     <use x="505.46875" xlink:href="#DejaVuSans-69"/>
     <use x="533.251953" xlink:href="#DejaVuSans-64"/>
     <use x="596.728516" xlink:href="#DejaVuSans-67"/>
     <use x="660.205078" xlink:href="#DejaVuSans-65"/>
     <use x="721.728516" xlink:href="#DejaVuSans-20"/>
     <use x="753.515625" xlink:href="#DejaVuSans-52"/>
     <use x="818.498047" xlink:href="#DejaVuSans-6f"/>
     <use x="879.679688" xlink:href="#DejaVuSans-61"/>
     <use x="940.958984" xlink:href="#DejaVuSans-64"/>
     <use x="1004.435547" xlink:href="#DejaVuSans-20"/>
     <use x="1036.222656" xlink:href="#DejaVuSans-31"/>
     <use x="1099.845703" xlink:href="#DejaVuSans-31"/>
     <use x="1163.46875" xlink:href="#DejaVuSans-2e"/>
     <use x="1195.255859" xlink:href="#DejaVuSans-37"/>
     <use x="1258.878906" xlink:href="#DejaVuSans-b0"/>
    </g>
   </g>
   <g id="text_24">
    <g id="patch_25">
     <path d="M 126.174644 91.091731 
L 133.446964 104.210572 
L 135.17486 103.252727 
L 127.90254 90.133886 
z
" style="fill:#ffffff;"/>
    </g>
    <!-- Toll Road 23.6° -->
    <g style="fill:#4169e1;" transform="translate(126.565614 90.897867)rotate(-299.001429)scale(0.02 -0.02)">
     <use xlink:href="#DejaVuSans-54"/>
     <use x="44.083984" xlink:href="#DejaVuSans-6f"/>
     <use x="105.265625" xlink:href="#DejaVuSans-6c"/>
     <use x="133.048828" xlink:href="#DejaVuSans-6c"/>
     <use x="160.832031" xlink:href="#DejaVuSans-20"/>
     <use x="192.619141" xlink:href="#DejaVuSans-52"/>
     <use x="257.601562" xlink:href="#DejaVuSans-6f"/>
     <use x="318.783203" xlink:href="#DejaVuSans-61"/>
     <use x="380.0625" xlink:href="#DejaVuSans-64"/>
     <use x="443.539062" xlink:href="#DejaVuSans-20"/>
     <use x="475.326172" xlink:href="#DejaVuSans-32"/>
     <use x="538.949219" xlink:href="#DejaVuSans-33"/>
     <use x="602.572266" xlink:href="#DejaVuSans-2e"/>
     <use x="634.359375" xlink:href="#DejaVuSans-36"/>
     <use x="697.982422" xlink:href="#DejaVuSans-b0"/>
    </g>
   </g>
   <g id="text_25">
    <g id="patch_26">
     <path d="M 85.98042 237.36824 
L 91.23011 216.779803 
L 89.315737 216.291671 
L 84.066047 236.880108 
z
" style="fill:#ffffff;"/>
    </g>
    <!-- Discovery Area 14.9° -->
    <g style="fill:#008000;" transform="translate(85.56294 237.24115)rotate(-75.695393)scale(0.02 -0.02)">
     <use xlink:href="#DejaVuSans-44"/>
     <use x="77.001953" xlink:href="#DejaVuSans-69"/>
     <use x="104.785156" xlink:href="#DejaVuSans-73"/>
     <use x="156.884766" xlink:href="#DejaVuSans-63"/>
     <use x="211.865234" xlink:href="#DejaVuSans-6f"/>
     <use x="273.046875" xlink:href="#DejaVuSans-76"/>
     <use x="332.226562" xlink:href="#DejaVuSans-65"/>
     <use x="393.75" xlink:href="#DejaVuSans-72"/>
     <use x="434.863281" xlink:href="#DejaVuSans-79"/>
     <use x="494.042969" xlink:href="#DejaVuSans-20"/>
     <use x="525.830078" xlink:href="#DejaVuSans-41"/>
     <use x="594.238281" xlink:href="#DejaVuSans-72"/>
     <use x="633.101562" xlink:href="#DejaVuSans-65"/>
     <use x="694.625" xlink:href="#DejaVuSans-61"/>
     <use x="755.904297" xlink:href="#DejaVuSans-20"/>
     <use x="787.691406" xlink:href="#DejaVuSans-31"/>
     <use x="851.314453" xlink:href="#DejaVuSans-34"/>
     <use x="914.9375" xlink:href="#DejaVuSans-2e"/>
     <use x="946.724609" xlink:href="#DejaVuSans-39"/>
     <use x="1010.347656" xlink:href="#DejaVuSans-b0"/>
    </g>
   </g>
   <g id="text_26">
    <!-- Maverick Mountain -->
    <g transform="translate(44.10711 17.140331)scale(0.16 -0.16)">
     <use xlink:href="#DejaVuSans-4d"/>
     <use x="86.279297" xlink:href="#DejaVuSans-61"/>
     <use x="147.558594" xlink:href="#DejaVuSans-76"/>
     <use x="206.738281" xlink:href="#DejaVuSans-65"/>
     <use x="268.261719" xlink:href="#DejaVuSans-72"/>
     <use x="309.375" xlink:href="#DejaVuSans-69"/>
     <use x="337.158203" xlink:href="#DejaVuSans-63"/>
     <use x="392.138672" xlink:href="#DejaVuSans-6b"/>
     <use x="450.048828" xlink:href="#DejaVuSans-20"/>
     <use x="481.835938" xlink:href="#DejaVuSans-4d"/>
     <use x="568.115234" xlink:href="#DejaVuSans-6f"/>
     <use x="629.296875" xlink:href="#DejaVuSans-75"/>
     <use x="692.675781" xlink:href="#DejaVuSans-6e"/>
     <use x="756.054688" xlink:href="#DejaVuSans-74"/>
     <use x="795.263672" xlink:href="#DejaVuSans-61"/>
     <use x="856.542969" xlink:href="#DejaVuSans-69"/>
     <use x="884.326172" xlink:href="#DejaVuSans-6e"/>
    </g>
   </g>
   <g id="legend_1">
    <g id="line2d_32">
     <path d="M 7.920235 247.792034 
L 23.920235 247.792034 
" style="fill:none;stroke:#008000;stroke-linecap:square;stroke-width:1.110401;"/>
    </g>
    <g id="line2d_33"/>
    <g id="text_27">
     <!-- Easy -->
     <g transform="translate(30.320235 250.592034)scale(0.08 -0.08)">
      <use xlink:href="#DejaVuSans-45"/>
      <use x="63.183594" xlink:href="#DejaVuSans-61"/>
      <use x="124.462891" xlink:href="#DejaVuSans-73"/>
      <use x="176.5625" xlink:href="#DejaVuSans-79"/>
     </g>
    </g>
    <g id="line2d_34">
     <path d="M 7.920235 259.534534 
L 23.920235 259.534534 
" style="fill:none;stroke:#4169e1;stroke-linecap:square;stroke-width:1.110401;"/>
    </g>
    <g id="line2d_35"/>
    <g id="text_28">
     <!-- Intermediate -->
     <g transform="translate(30.320235 262.334534)scale(0.08 -0.08)">
      <defs>
       <path d="M 628 4666 
L 1259 4666 
L 1259 0 
L 628 0 
L 628 4666 
z
" id="DejaVuSans-49" transform="scale(0.015625)"/>
      </defs>
      <use xlink:href="#DejaVuSans-49"/>
      <use x="29.492188" xlink:href="#DejaVuSans-6e"/>
      <use x="92.871094" xlink:href="#DejaVuSans-74"/>
      <use x="132.080078" xlink:href="#DejaVuSans-65"/>
      <use x="193.603516" xlink:href="#DejaVuSans-72"/>
      <use x="232.966797" xlink:href="#DejaVuSans-6d"/>
      <use x="330.378906" xlink:href="#DejaVuSans-65"/>
      <use x="391.902344" xlink:href="#DejaVuSans-64"/>
      <use x="455.378906" xlink:href="#DejaVuSans-69"/>
      <use x="483.162109" xlink:href="#DejaVuSans-61"/>
      <use x="544.441406" xlink:href="#DejaVuSans-74"/>
      <use x="583.650391" xlink:href="#DejaVuSans-65"/>
     </g>
    </g>
    <g id="line2d_36">
     <path d="M 97.935235 247.792034 
L 113.935235 247.792034 
" style="fill:none;stroke:#000000;stroke-linecap:square;stroke-width:1.110401;"/>
    </g>
    <g id="line2d_37"/>
    <g id="text_29">
     <!-- Advanced -->
     <g transform="translate(120.335235 250.592034)scale(0.08 -0.08)">
      <use xlink:href="#DejaVuSans-41"/>
      <use x="66.658203" xlink:href="#DejaVuSans-64"/>
      <use x="130.134766" xlink:href="#DejaVuSans-76"/>
      <use x="189.314453" xlink:href="#DejaVuSans-61"/>
      <use x="250.59375" xlink:href="#DejaVuSans-6e"/>
      <use x="313.972656" xlink:href="#DejaVuSans-63"/>
      <use x="368.953125" xlink:href="#DejaVuSans-65"/>
      <use x="430.476562" xlink:href="#DejaVuSans-64"/>
     </g>
    </g>
    <g id="line2d_38">
     <path d="M 97.935235 259.534534 
L 113.935235 259.534534 
" style="fill:none;stroke:#ff0000;stroke-linecap:square;stroke-width:1.110401;"/>
    </g>
    <g id="line2d_39"/>
    <g id="text_30">
     <!-- Expert -->
     <g transform="translate(120.335235 262.334534)scale(0.08 -0.08)">
      <defs>
       <path d="M 3513 3500 
L 2247 1797 
L 3578 0 
L 2900 0 
L 1881 1375 
L 863 0 
L 184 0 
L 1544 1831 
L 300 3500 
L 978 3500 
L 1906 2253 
L 2834 3500 
L 3513 3500 
z
" id="DejaVuSans-78" transform="scale(0.015625)"/>
      </defs>
      <use xlink:href="#DejaVuSans-45"/>
      <use x="63.183594" xlink:href="#DejaVuSans-78"/>
      <use x="122.363281" xlink:href="#DejaVuSans-70"/>
      <use x="185.839844" xlink:href="#DejaVuSans-65"/>
      <use x="247.363281" xlink:href="#DejaVuSans-72"/>
      <use x="288.476562" xlink:href="#DejaVuSans-74"/>
     </g>
    </g>
    <g id="line2d_40">
     <path d="M 175.853985 247.792034 
L 191.853985 247.792034 
" style="fill:none;stroke:#ffd700;stroke-linecap:square;stroke-width:1.110401;"/>
    </g>
    <g id="line2d_41"/>
    <g id="text_31">
     <!-- Extreme -->
     <g transform="translate(198.253985 250.592034)scale(0.08 -0.08)">
      <use xlink:href="#DejaVuSans-45"/>
      <use x="63.183594" xlink:href="#DejaVuSans-78"/>
      <use x="122.363281" xlink:href="#DejaVuSans-74"/>
      <use x="161.572266" xlink:href="#DejaVuSans-72"/>
      <use x="200.435547" xlink:href="#DejaVuSans-65"/>
      <use x="261.958984" xlink:href="#DejaVuSans-6d"/>
      <use x="359.371094" xlink:href="#DejaVuSans-65"/>
     </g>
    </g>
    <g id="line2d_42">
     <path d="M 175.853985 259.534534 
L 191.853985 259.534534 
" style="fill:none;stroke:#000000;stroke-dasharray:1.110401,1.832162;stroke-dashoffset:0;stroke-width:1.110401;"/>
    </g>
    <g id="line2d_43"/>
    <g id="text_32">
     <!-- Gladed -->
     <g transform="translate(198.253985 262.334534)scale(0.08 -0.08)">
      <use xlink:href="#DejaVuSans-47"/>
      <use x="77.490234" xlink:href="#DejaVuSans-6c"/>
      <use x="105.273438" xlink:href="#DejaVuSans-61"/>
      <use x="166.552734" xlink:href="#DejaVuSans-64"/>
      <use x="230.029297" xlink:href="#DejaVuSans-65"/>
      <use x="291.552734" xlink:href="#DejaVuSans-64"/>
     </g>
    </g>
   </g>
  </g>
  <g id="text_33">
   <!-- Sources: USGS and OpenStreetMaps -->
   <g transform="translate(56.466295 274.33514)scale(0.069565 -0.069565)">
    <defs>
     <path d="M 750 794 
L 1409 794 
L 1409 0 
L 750 0 
L 750 794 
z
M 750 3309 
L 1409 3309 
L 1409 2516 
L 750 2516 
L 750 3309 
z
" id="DejaVuSans-3a" transform="scale(0.015625)"/>
     <path d="M 2522 4238 
Q 1834 4238 1429 3725 
Q 1025 3213 1025 2328 
Q 1025 1447 1429 934 
Q 1834 422 2522 422 
Q 3209 422 3611 934 
Q 4013 1447 4013 2328 
Q 4013 3213 3611 3725 
Q 3209 4238 2522 4238 
z
M 2522 4750 
Q 3503 4750 4090 4092 
Q 4678 3434 4678 2328 
Q 4678 1225 4090 567 
Q 3503 -91 2522 -91 
Q 1538 -91 948 565 
Q 359 1222 359 2328 
Q 359 3434 948 4092 
Q 1538 4750 2522 4750 
z
" id="DejaVuSans-4f" transform="scale(0.015625)"/>
    </defs>
    <use xlink:href="#DejaVuSans-53"/>
    <use x="63.476562" xlink:href="#DejaVuSans-6f"/>
    <use x="124.658203" xlink:href="#DejaVuSans-75"/>
    <use x="188.037109" xlink:href="#DejaVuSans-72"/>
    <use x="226.900391" xlink:href="#DejaVuSans-63"/>
    <use x="281.880859" xlink:href="#DejaVuSans-65"/>
    <use x="343.404297" xlink:href="#DejaVuSans-73"/>
    <use x="395.503906" xlink:href="#DejaVuSans-3a"/>
    <use x="429.195312" xlink:href="#DejaVuSans-20"/>
    <use x="460.982422" xlink:href="#DejaVuSans-55"/>
    <use x="534.175781" xlink:href="#DejaVuSans-53"/>
    <use x="597.652344" xlink:href="#DejaVuSans-47"/>
    <use x="675.142578" xlink:href="#DejaVuSans-53"/>
    <use x="738.619141" xlink:href="#DejaVuSans-20"/>
    <use x="770.40625" xlink:href="#DejaVuSans-61"/>
    <use x="831.685547" xlink:href="#DejaVuSans-6e"/>
    <use x="895.064453" xlink:href="#DejaVuSans-64"/>
    <use x="958.541016" xlink:href="#DejaVuSans-20"/>
    <use x="990.328125" xlink:href="#DejaVuSans-4f"/>
    <use x="1069.039062" xlink:href="#DejaVuSans-70"/>
    <use x="1132.515625" xlink:href="#DejaVuSans-65"/>
    <use x="1194.039062" xlink:href="#DejaVuSans-6e"/>
    <use x="1257.417969" xlink:href="#DejaVuSans-53"/>
    <use x="1320.894531" xlink:href="#DejaVuSans-74"/>
    <use x="1360.103516" xlink:href="#DejaVuSans-72"/>
    <use x="1398.966797" xlink:href="#DejaVuSans-65"/>
    <use x="1460.490234" xlink:href="#DejaVuSans-65"/>
    <use x="1522.013672" xlink:href="#DejaVuSans-74"/>
    <use x="1561.222656" xlink:href="#DejaVuSans-4d"/>
    <use x="1647.501953" xlink:href="#DejaVuSans-61"/>
    <use x="1708.78125" xlink:href="#DejaVuSans-70"/>
    <use x="1772.257812" xlink:href="#DejaVuSans-73"/>
   </g>
  </g>
 </g>
 <defs>
  <clipPath id="p76b38d6f7f">
   <rect height="225.501218" width="239.846721" x="0" y="25.140331"/>
  </clipPath>
 </defs>
</svg>
