<?xml version="1.0" encoding="utf-8" standalone="no"?>
<!DOCTYPE svg PUBLIC "-//W3C//DTD SVG 1.1//EN"
  "http://www.w3.org/Graphics/SVG/1.1/DTD/svg11.dtd">
<svg xmlns:xlink="http://www.w3.org/1999/xlink" width="73.205681pt" height="99.976831pt" viewBox="0 0 73.205681 99.976831" xmlns="http://www.w3.org/2000/svg" version="1.1">
 <metadata>
  <rdf:RDF xmlns:dc="http://purl.org/dc/elements/1.1/" xmlns:cc="http://creativecommons.org/ns#" xmlns:rdf="http://www.w3.org/1999/02/22-rdf-syntax-ns#">
   <cc:Work>
    <dc:type rdf:resource="http://purl.org/dc/dcmitype/StillImage"/>
    <dc:date>2022-05-17T17:21:44.993736</dc:date>
    <dc:format>image/svg+xml</dc:format>
    <dc:creator>
     <cc:Agent>
      <dc:title>Matplotlib v3.5.2, https://matplotlib.org/</dc:title>
     </cc:Agent>
    </dc:creator>
   </cc:Work>
  </rdf:RDF>
 </metadata>
 <defs>
  <style type="text/css">*{stroke-linejoin: round; stroke-linecap: butt}</style>
 </defs>
 <g id="figure_1">
  <g id="patch_1">
   <path d="M 0 99.976831 
L 73.205681 99.976831 
L 73.205681 0 
L 0 0 
z
" style="fill: #ffffff"/>
  </g>
  <g id="axes_1">
   <g id="line2d_1">
    <path d="M 39.362015 84.981005 
L 42.670696 81.164863 
L 45.237725 78.203516 
L 47.804754 75.242169 
L 50.236409 72.43749 
L 52.668063 69.632812 
L 56.575014 65.125424 
L 58.920057 62.420251 
L 61.265101 59.715078 
L 64.263729 56.256733 
L 67.262357 52.798387 
" clip-path="url(#p8af50a7db5)" style="fill: none; stroke: #808080; stroke-width: 0.4; stroke-linecap: square"/>
   </g>
   <g id="line2d_2">
    <path d="M 35.414307 78.686753 
L 39.586184 74.90872 
L 43.092833 71.731954 
L 47.429198 67.804663 
L 51.778664 63.865727 
L 55.537139 60.462428 
L 57.955693 58.271719 
L 60.374246 56.08101 
L 63.247689 53.479047 
L 65.364196 51.561979 
" clip-path="url(#p8af50a7db5)" style="fill: none; stroke: #808080; stroke-width: 0.4; stroke-linecap: square"/>
   </g>
   <g id="line2d_3">
    <path d="M 37.618153 12.335642 
L 40.977781 16.321155 
L 44.750812 20.796785 
L 48.634472 25.404736 
L 50.836862 28.018344 
L 53.039253 30.631951 
L 55.398125 33.430807 
L 57.756997 36.229664 
L 59.93173 38.809926 
L 62.106463 41.390188 
L 64.365624 44.071014 
L 66.624785 46.751841 
L 68.969828 49.532702 
" clip-path="url(#p8af50a7db5)" style="fill: none; stroke: #808080; stroke-width: 0.4; stroke-linecap: square"/>
   </g>
   <g id="line2d_4">
    <path d="M 11.320476 62.595444 
L 13.007568 60.181907 
L 14.92538 57.439684 
L 16.843192 54.69746 
L 19.142383 51.410074 
L 21.441573 48.122688 
L 23.590833 45.049662 
L 25.740092 41.976636 
L 27.336934 39.693302 
" clip-path="url(#p8af50a7db5)" style="fill: none; stroke: #808080; stroke-width: 0.4; stroke-linecap: square"/>
   </g>
   <g id="line2d_5">
    <path d="M 4.438188 16.767871 
L 8.403364 19.430172 
L 11.846692 21.742617 
L 15.290019 24.055061 
L 19.122004 26.628442 
L 22.953988 29.201824 
L 25.695695 31.042146 
L 28.437402 32.882468 
" clip-path="url(#p8af50a7db5)" style="fill: none; stroke: #808080; stroke-width: 0.4; stroke-linecap: square"/>
   </g>
   <g id="line2d_6">
    <path d="M 29.846466 66.959925 
L 32.637665 63.36026 
L 35.428863 59.760596 
" clip-path="url(#p8af50a7db5)" style="fill: none; stroke: #808080; stroke-width: 0.4; stroke-linecap: square"/>
   </g>
   <g id="line2d_7">
    <path d="M 30.118671 81.757662 
L 30.303538 88.201172 
" clip-path="url(#p8af50a7db5)" style="fill: none; stroke: #808080; stroke-width: 0.4; stroke-linecap: square"/>
   </g>
   <g id="line2d_8">
    <path d="M 30.361764 73.12609 
L 35.058766 69.11226 
L 39.755767 65.098431 
L 44.452769 61.084602 
L 49.14977 57.070772 
" clip-path="url(#p8af50a7db5)" style="fill: none; stroke: #808080; stroke-width: 0.4; stroke-linecap: square"/>
   </g>
   <g id="line2d_9">
    <path d="M 23.358658 70.537888 
L 26.686261 65.226518 
L 30.013865 59.915147 
L 33.341469 54.603777 
L 36.669073 49.292407 
" clip-path="url(#p8af50a7db5)" style="fill: none; stroke: #808080; stroke-width: 0.4; stroke-linecap: square"/>
   </g>
   <g id="line2d_10">
    <path d="M 28.844982 15.428781 
L 25.349616 16.05466 
L 21.854249 16.680539 
L 18.358882 17.306418 
L 14.863515 17.932297 
" clip-path="url(#p8af50a7db5)" style="fill: none; stroke: #808080; stroke-width: 0.4; stroke-linecap: square"/>
   </g>
   <g id="line2d_11">
    <path d="M 28.530563 88.379012 
L 28.250351 86.620199 
L 27.97014 84.861386 
L 28.116432 83.603277 
L 28.262724 82.345168 
" clip-path="url(#p8af50a7db5)" style="fill: none; stroke: #008000; stroke-width: 0.4; stroke-linecap: square"/>
   </g>
   <g id="line2d_12">
    <path d="M 32.818892 88.188469 
L 32.887308 86.596381 
L 32.955723 85.004293 
L 32.609279 83.515416 
L 32.262836 82.026538 
" clip-path="url(#p8af50a7db5)" style="fill: none; stroke: #008000; stroke-width: 0.4; stroke-linecap: square"/>
   </g>
   <g id="line2d_13">
    <path d="M 68.138655 53.620896 
L 67.526465 54.507348 
L 66.914276 55.3938 
L 66.302086 56.280253 
L 65.689897 57.166705 
L 65.077707 58.053157 
L 64.465518 58.93961 
L 63.853328 59.826062 
L 63.241138 60.712514 
L 62.628949 61.598967 
L 62.016759 62.485419 
L 61.40457 63.371872 
L 60.79238 64.258324 
L 60.180191 65.144776 
L 59.568001 66.031229 
L 58.955811 66.917681 
L 58.343622 67.804133 
L 57.731432 68.690586 
L 57.119243 69.577038 
L 56.507053 70.463491 
L 55.894864 71.349943 
L 55.282674 72.236395 
L 54.670484 73.122848 
L 54.058295 74.0093 
L 53.446105 74.895752 
L 52.833916 75.782205 
L 52.221726 76.668657 
L 51.609537 77.55511 
L 50.997347 78.441562 
L 50.385158 79.328014 
L 49.772968 80.214467 
L 49.160778 81.100919 
L 48.548589 81.987371 
L 47.555111 82.507658 
L 46.561634 83.027945 
L 45.568156 83.548232 
L 44.574679 84.068518 
L 43.581201 84.588805 
L 42.587724 85.109092 
L 41.594246 85.629378 
L 40.600769 86.149665 
" clip-path="url(#p8af50a7db5)" style="fill: none; stroke: #008000; stroke-width: 0.4; stroke-linecap: square"/>
   </g>
   <g id="line2d_14">
    <path d="M 66.134232 52.370725 
L 65.217449 53.313646 
L 64.300666 54.256566 
L 63.383883 55.199487 
L 62.467099 56.142407 
L 61.550316 57.085327 
L 60.633533 58.028248 
L 59.71675 58.971168 
L 58.799967 59.914089 
L 57.883183 60.857009 
L 56.9664 61.79993 
L 56.049617 62.74285 
L 55.132834 63.68577 
L 54.21605 64.628691 
L 53.299267 65.571611 
L 52.382484 66.514532 
L 51.465701 67.457452 
L 50.548918 68.400372 
L 49.632134 69.343293 
L 48.715351 70.286213 
L 47.798568 71.229134 
L 46.881785 72.172054 
L 45.965001 73.114975 
L 45.048218 74.057895 
L 44.131435 75.000815 
L 43.214652 75.943736 
L 42.297869 76.886656 
L 41.381085 77.829577 
L 40.464302 78.772497 
L 39.547519 79.715418 
L 38.630736 80.658338 
L 37.713952 81.601258 
L 36.797169 82.544179 
" clip-path="url(#p8af50a7db5)" style="fill: none; stroke: #008000; stroke-width: 0.4; stroke-linecap: square"/>
   </g>
   <g id="line2d_15">
    <path d="M 64.5141 50.608208 
L 63.472268 51.523936 
L 62.430435 52.439665 
L 61.388603 53.355393 
L 60.346771 54.271122 
L 59.304939 55.18685 
L 58.263107 56.102578 
L 57.221274 57.018307 
L 56.179442 57.934035 
L 55.13761 58.849764 
L 54.095778 59.765492 
L 53.053946 60.681221 
L 52.012113 61.596949 
L 50.970281 62.512677 
L 49.928449 63.428406 
L 48.886617 64.344134 
L 47.844785 65.259863 
L 46.802952 66.175591 
L 45.76112 67.091319 
L 44.719288 68.007048 
L 43.677456 68.922776 
L 42.635624 69.838505 
L 41.593791 70.754233 
L 40.551959 71.669962 
L 39.510127 72.58569 
L 38.468295 73.501418 
L 37.426463 74.417147 
L 36.38463 75.332875 
L 35.342798 76.248604 
L 34.300966 77.164332 
L 33.259134 78.080061 
L 32.217302 78.995789 
L 31.175469 79.911517 
" clip-path="url(#p8af50a7db5)" style="fill: none; stroke: #008000; stroke-width: 0.4; stroke-linecap: square"/>
   </g>
   <g id="line2d_16">
    <path d="M 64.141455 50.18478 
L 62.932724 51.035341 
L 61.723993 51.885901 
L 60.515262 52.736461 
L 59.306531 53.587021 
L 58.0978 54.437582 
L 56.889069 55.288142 
L 55.680338 56.138702 
L 54.471607 56.989262 
L 53.398433 56.742086 
L 52.325259 56.494911 
L 51.252085 56.247735 
L 50.178911 56.000559 
L 48.81388 55.158996 
L 47.448849 54.317434 
L 46.083818 53.475872 
L 44.718788 52.634309 
L 43.353757 51.792747 
L 41.988726 50.951184 
L 40.623695 50.109622 
L 39.258664 49.268059 
L 38.108705 48.839868 
L 36.958746 48.411677 
" clip-path="url(#p8af50a7db5)" style="fill: none; stroke: #008000; stroke-width: 0.4; stroke-linecap: square"/>
   </g>
   <g id="line2d_17">
    <path d="M 50.01879 58.286009 
L 48.821158 59.29906 
L 47.623527 60.312111 
L 46.425895 61.325161 
L 45.228263 62.338212 
L 44.030632 63.351263 
L 42.833 64.364313 
L 41.635368 65.377364 
L 40.437737 66.390414 
L 39.240105 67.403465 
L 38.042473 68.416516 
L 36.844842 69.429566 
L 35.64721 70.442617 
L 34.449578 71.455668 
L 33.251947 72.468718 
L 32.054315 73.481769 
L 30.856683 74.494819 
" clip-path="url(#p8af50a7db5)" style="fill: none; stroke: #008000; stroke-width: 0.4; stroke-linecap: square"/>
   </g>
   <g id="line2d_18">
    <path d="M 48.044936 56.274728 
L 46.846394 57.294527 
L 45.647853 58.314326 
L 44.449311 59.334125 
L 43.25077 60.353924 
L 42.052229 61.373723 
L 40.853687 62.393522 
L 39.655146 63.413321 
L 38.456604 64.43312 
L 37.258063 65.452919 
L 36.059521 66.472718 
L 34.86098 67.492517 
L 33.662438 68.512316 
L 32.463897 69.532115 
L 31.265356 70.551914 
L 30.066814 71.571713 
L 28.868273 72.591512 
" clip-path="url(#p8af50a7db5)" style="fill: none; stroke: #008000; stroke-width: 0.4; stroke-linecap: square"/>
   </g>
   <g id="line2d_19">
    <path d="M 36.404145 60.340692 
L 35.708529 61.253179 
L 35.012913 62.165665 
L 34.317297 63.078152 
L 33.62168 63.990638 
L 32.926064 64.903125 
L 32.230448 65.815611 
L 31.534832 66.728098 
L 30.839216 67.640585 
" clip-path="url(#p8af50a7db5)" style="fill: none; stroke: #008000; stroke-width: 0.4; stroke-linecap: square"/>
   </g>
   <g id="line2d_20">
    <path d="M 34.238146 58.949732 
L 33.592204 59.839857 
L 32.946261 60.729981 
L 32.300319 61.620105 
L 31.654377 62.510229 
L 31.008434 63.400354 
L 30.362492 64.290478 
L 29.71655 65.180602 
L 29.070607 66.070727 
" clip-path="url(#p8af50a7db5)" style="fill: none; stroke: #008000; stroke-width: 0.4; stroke-linecap: square"/>
   </g>
   <g id="line2d_21">
    <path d="M 37.71277 49.554932 
L 38.012996 50.685483 
L 38.313223 51.816035 
L 38.61345 52.946587 
L 38.913677 54.077139 
L 38.173481 55.279673 
L 37.433286 56.482208 
L 36.693091 57.684742 
L 35.952895 58.887277 
" clip-path="url(#p8af50a7db5)" style="fill: none; stroke: #008000; stroke-width: 0.4; stroke-linecap: square"/>
   </g>
   <g id="line2d_22">
    <path d="M 35.952895 48.472015 
L 35.049304 49.809782 
L 34.145712 51.147549 
L 33.242121 52.485316 
L 32.33853 53.823082 
L 31.434938 55.160849 
L 30.531347 56.498616 
L 29.627755 57.836382 
L 28.724164 59.174149 
L 27.820572 60.511916 
L 26.916981 61.849682 
L 26.01339 63.187449 
L 25.109798 64.525216 
L 24.206207 65.862982 
L 23.302615 67.200749 
L 22.399024 68.538516 
L 21.495432 69.876282 
" clip-path="url(#p8af50a7db5)" style="fill: none; stroke: #008000; stroke-width: 0.4; stroke-linecap: square"/>
   </g>
   <g id="line2d_23">
    <path d="M 30.465115 34.608995 
L 31.326129 35.192796 
L 32.187143 35.776596 
L 32.400758 36.844428 
L 32.614374 37.91226 
L 32.82799 38.980091 
L 33.041606 40.047923 
L 32.624018 41.254162 
L 32.20643 42.460402 
L 31.788842 43.666641 
L 31.371254 44.872881 
L 30.953666 46.07912 
L 30.536078 47.28536 
L 30.118489 48.491599 
L 29.700901 49.697838 
L 29.040858 50.830177 
L 28.380814 51.962515 
L 27.72077 53.094853 
L 27.060726 54.227191 
L 26.400682 55.359529 
L 25.740638 56.491867 
L 25.080594 57.624205 
L 24.42055 58.756543 
L 23.760506 59.888882 
L 23.100463 61.02122 
L 22.440419 62.153558 
L 21.780375 63.285896 
L 21.120331 64.418234 
L 20.460287 65.550572 
L 19.800243 66.68291 
L 19.140199 67.815248 
" clip-path="url(#p8af50a7db5)" style="fill: none; stroke: #008000; stroke-width: 0.4; stroke-linecap: square"/>
   </g>
   <g id="line2d_24">
    <path d="M 28.486894 40.202474 
L 27.60168 41.673091 
L 26.716466 43.143708 
L 25.831252 44.614325 
L 24.946038 46.084942 
L 24.060824 47.555559 
L 23.17561 49.026176 
L 22.290396 50.496793 
L 21.405182 51.967411 
L 20.519968 53.438028 
L 19.634754 54.908645 
L 18.749541 56.379262 
L 17.864327 57.849879 
L 16.979113 59.320496 
L 16.093899 60.791113 
L 15.208685 62.26173 
L 14.323471 63.732347 
" clip-path="url(#p8af50a7db5)" style="fill: none; stroke: #4169e1; stroke-width: 0.4; stroke-linecap: square"/>
   </g>
   <g id="line2d_25">
    <path d="M 25.890024 46.050009 
L 26.455905 47.165477 
L 27.021787 48.280944 
L 27.587669 49.396411 
L 28.153551 50.511878 
" clip-path="url(#p8af50a7db5)" style="fill: none; stroke: #4169e1; stroke-width: 0.4; stroke-linecap: square"/>
   </g>
   <g id="line2d_26">
    <path d="M 25.751737 38.736356 
L 24.758533 40.085965 
L 23.765328 41.435574 
L 22.772124 42.785184 
L 21.778919 44.134793 
L 20.785715 45.484403 
L 19.79251 46.834012 
L 18.799305 48.183622 
L 17.806101 49.533231 
L 16.812896 50.88284 
L 15.819692 52.23245 
L 14.826487 53.582059 
L 13.833283 54.931669 
L 12.840078 56.281278 
L 11.846873 57.630888 
L 10.853669 58.980497 
L 9.860464 60.330106 
" clip-path="url(#p8af50a7db5)" style="fill: none; stroke: #4169e1; stroke-width: 0.4; stroke-linecap: square"/>
   </g>
   <g id="line2d_27">
    <path d="M 25.389282 38.194368 
L 23.636686 37.640075 
L 21.884089 37.085782 
L 20.131493 36.531488 
L 18.378897 35.977195 
L 16.626301 35.422902 
L 14.873705 34.868609 
L 13.121108 34.314315 
L 11.368512 33.760022 
L 10.865951 32.870626 
L 10.36339 31.981229 
L 9.860828 31.091833 
L 9.358267 30.202436 
L 8.855706 29.31304 
L 8.353144 28.423643 
L 7.850583 27.534247 
L 7.348022 26.64485 
L 6.84546 25.755454 
L 6.342899 24.866057 
L 5.840338 23.976661 
L 5.337776 23.087264 
L 4.835215 22.197868 
L 4.332654 21.308471 
L 3.830092 20.419074 
L 3.327531 19.529678 
" clip-path="url(#p8af50a7db5)" style="fill: none; stroke: #4169e1; stroke-width: 0.4; stroke-linecap: square"/>
   </g>
   <g id="line2d_28">
    <path d="M 25.812874 34.540188 
L 24.47914 33.530247 
L 23.145406 32.520306 
L 21.811671 31.510364 
L 20.477937 30.500423 
L 19.144202 29.490482 
L 17.810468 28.480541 
L 16.476733 27.4706 
L 15.142999 26.460659 
L 13.809264 25.450718 
L 12.47553 24.440777 
L 11.141796 23.430836 
L 9.808061 22.420895 
L 8.474327 21.410954 
L 7.140592 20.401013 
L 5.806858 19.391072 
L 4.473123 18.381131 
" clip-path="url(#p8af50a7db5)" style="fill: none; stroke: #4169e1; stroke-width: 0.4; stroke-linecap: square"/>
   </g>
   <g id="line2d_29">
    <path d="M 28.713974 31.900116 
L 27.295631 30.880979 
L 25.877287 29.861842 
L 24.458943 28.842704 
L 23.040599 27.823567 
L 21.622255 26.804429 
L 20.203912 25.785292 
L 18.785568 24.766155 
L 17.367224 23.747017 
L 15.94888 22.72788 
L 14.530536 21.708742 
L 13.112193 20.689605 
L 11.693849 19.670468 
L 10.275505 18.65133 
L 8.857161 17.632193 
L 7.438817 16.613055 
L 6.020474 15.593918 
" clip-path="url(#p8af50a7db5)" style="fill: none; stroke: #008000; stroke-width: 0.4; stroke-linecap: square"/>
   </g>
   <g id="line2d_30">
    <path d="M 69.87815 48.587399 
L 68.919063 47.431475 
L 67.959975 46.275551 
L 67.000887 45.119626 
L 66.041799 43.963702 
L 65.082711 42.807778 
L 64.123623 41.651853 
L 63.164535 40.495929 
L 62.205447 39.340005 
L 61.246359 38.18408 
L 60.287271 37.028156 
L 59.328184 35.872231 
L 58.369096 34.716307 
L 57.410008 33.560383 
L 56.45092 32.404458 
L 55.491832 31.248534 
L 54.532744 30.09261 
L 53.573656 28.936685 
L 52.614568 27.780761 
L 51.65548 26.624837 
L 50.696393 25.468912 
L 49.737305 24.312988 
L 48.778217 23.157063 
L 47.819129 22.001139 
L 46.860041 20.845215 
L 45.900953 19.68929 
L 44.941865 18.533366 
L 43.982777 17.377442 
L 43.023689 16.221517 
L 42.064602 15.065593 
L 41.105514 13.909669 
L 40.146426 12.753744 
L 39.187338 11.59782 
" clip-path="url(#p8af50a7db5)" style="fill: none; stroke: #008000; stroke-width: 0.4; stroke-linecap: square"/>
   </g>
   <g id="line2d_31">
    <path d="M 66.751426 50.698186 
L 65.807213 49.555792 
L 64.863 48.413397 
L 63.918787 47.271003 
L 62.974574 46.128608 
L 62.03036 44.986214 
L 61.086147 43.843819 
L 60.141934 42.701425 
L 59.197721 41.55903 
L 58.253508 40.416635 
L 57.309295 39.274241 
L 56.365082 38.131846 
L 55.420869 36.989452 
L 54.476656 35.847057 
L 53.532443 34.704663 
L 52.58823 33.562268 
L 51.644017 32.419874 
L 50.699804 31.277479 
L 49.755591 30.135085 
L 48.811378 28.99269 
L 47.867165 27.850296 
L 46.922952 26.707901 
L 45.978739 25.565507 
L 45.034526 24.423112 
L 44.090313 23.280718 
L 43.1461 22.138323 
L 42.201887 20.995928 
L 41.257674 19.853534 
L 40.313461 18.711139 
L 39.369248 17.568745 
L 38.425035 16.42635 
L 37.480822 15.283956 
L 36.536609 14.141561 
" clip-path="url(#p8af50a7db5)" style="fill: none; stroke: #4169e1; stroke-width: 0.4; stroke-linecap: square"/>
   </g>
   <g id="line2d_32">
    <path d="M 63.697483 49.385561 
L 62.313165 49.423934 
L 60.928847 49.462307 
L 59.544529 49.50068 
L 58.160211 49.539053 
L 56.775893 49.577426 
L 55.391574 49.615799 
L 54.007256 49.654172 
L 52.622938 49.692546 
L 52.056511 47.929631 
L 51.490083 46.166717 
L 50.923655 44.403802 
L 50.357227 42.640888 
L 49.7908 40.877973 
L 49.224372 39.115059 
L 48.657944 37.352144 
L 48.091516 35.58923 
L 47.045636 34.322784 
L 45.999755 33.056338 
L 44.953874 31.789893 
L 43.907994 30.523447 
L 42.862113 29.257002 
L 41.816232 27.990556 
L 40.770351 26.72411 
L 39.724471 25.457665 
L 39.278316 24.170577 
L 38.832161 22.883489 
L 38.386005 21.596402 
L 37.93985 20.309314 
L 37.493695 19.022226 
L 37.04754 17.735139 
L 36.601385 16.448051 
L 36.15523 15.160963 
" clip-path="url(#p8af50a7db5)" style="fill: none; stroke: #4169e1; stroke-width: 0.4; stroke-linecap: square"/>
   </g>
   <g id="line2d_33">
    <path d="M 29.465087 32.155232 
L 30.142144 30.468402 
L 30.8192 28.781572 
L 31.496257 27.094742 
L 32.173314 25.407912 
L 32.850371 23.721082 
L 33.527427 22.034252 
L 34.204484 20.347423 
L 34.881541 18.660593 
" clip-path="url(#p8af50a7db5)" style="fill: none; stroke: #000000; stroke-width: 0.4; stroke-linecap: square"/>
   </g>
   <g id="line2d_34">
    <path d="M 29.465087 32.155232 
L 29.000008 30.482428 
L 28.53493 28.809624 
L 28.069852 27.13682 
L 27.604773 25.464016 
L 27.139695 23.791212 
L 26.674616 22.118409 
L 26.209538 20.445605 
L 25.744459 18.772801 
" clip-path="url(#p8af50a7db5)" style="fill: none; stroke: #000000; stroke-width: 0.4; stroke-linecap: square"/>
   </g>
   <g id="line2d_35">
    <path d="M 30.974591 33.205332 
L 32.178955 32.839729 
L 33.383319 32.474125 
L 34.587683 32.108522 
L 35.792047 31.742919 
L 36.996411 31.377316 
L 38.200775 31.011712 
L 39.405139 30.646109 
L 40.609503 30.280506 
" clip-path="url(#p8af50a7db5)" style="fill: none; stroke: #ff0000; stroke-width: 0.4; stroke-linecap: square"/>
   </g>
   <g id="line2d_36">
    <path d="M 32.296316 34.93821 
L 33.003759 36.11772 
L 33.711203 37.297231 
L 34.418646 38.476741 
L 35.126089 39.656252 
L 34.872807 40.945854 
L 34.619525 42.235456 
L 34.366243 43.525057 
L 34.11296 44.814659 
L 35.629014 45.887519 
L 37.145068 46.960379 
L 38.225885 46.572943 
L 39.306701 46.185506 
L 40.387517 45.79807 
L 41.468333 45.410634 
L 41.810046 44.058312 
L 42.151758 42.70599 
L 42.493471 41.353668 
L 42.835183 40.001346 
L 42.71109 38.765599 
L 42.586996 37.529851 
L 42.462902 36.294104 
L 42.338809 35.058357 
L 42.214715 33.82261 
L 42.090621 32.586863 
L 41.966527 31.351116 
L 41.842434 30.115369 
" clip-path="url(#p8af50a7db5)" style="fill: none; stroke: #008000; stroke-width: 0.4; stroke-linecap: square"/>
   </g>
   <g id="text_1">
    <g id="patch_2">
     <path d="M 44.14942 81.782298 
L 47.997299 75.678277 
L 46.326029 74.624735 
L 42.478151 80.728756 
z
" style="fill: #ffffff"/>
    </g>
    <!-- Chair 1 -->
    <g style="fill: #808080" transform="translate(43.791307 81.532906)rotate(-57.773314)scale(0.02 -0.02)">
     <defs>
      <path id="DejaVuSans-43" d="M 4122 4306 
L 4122 3641 
Q 3803 3938 3442 4084 
Q 3081 4231 2675 4231 
Q 1875 4231 1450 3742 
Q 1025 3253 1025 2328 
Q 1025 1406 1450 917 
Q 1875 428 2675 428 
Q 3081 428 3442 575 
Q 3803 722 4122 1019 
L 4122 359 
Q 3791 134 3420 21 
Q 3050 -91 2638 -91 
Q 1578 -91 968 557 
Q 359 1206 359 2328 
Q 359 3453 968 4101 
Q 1578 4750 2638 4750 
Q 3056 4750 3426 4639 
Q 3797 4528 4122 4306 
z
" transform="scale(0.015625)"/>
      <path id="DejaVuSans-68" d="M 3513 2113 
L 3513 0 
L 2938 0 
L 2938 2094 
Q 2938 2591 2744 2837 
Q 2550 3084 2163 3084 
Q 1697 3084 1428 2787 
Q 1159 2491 1159 1978 
L 1159 0 
L 581 0 
L 581 4863 
L 1159 4863 
L 1159 2956 
Q 1366 3272 1645 3428 
Q 1925 3584 2291 3584 
Q 2894 3584 3203 3211 
Q 3513 2838 3513 2113 
z
" transform="scale(0.015625)"/>
      <path id="DejaVuSans-61" d="M 2194 1759 
Q 1497 1759 1228 1600 
Q 959 1441 959 1056 
Q 959 750 1161 570 
Q 1363 391 1709 391 
Q 2188 391 2477 730 
Q 2766 1069 2766 1631 
L 2766 1759 
L 2194 1759 
z
M 3341 1997 
L 3341 0 
L 2766 0 
L 2766 531 
Q 2569 213 2275 61 
Q 1981 -91 1556 -91 
Q 1019 -91 701 211 
Q 384 513 384 1019 
Q 384 1609 779 1909 
Q 1175 2209 1959 2209 
L 2766 2209 
L 2766 2266 
Q 2766 2663 2505 2880 
Q 2244 3097 1772 3097 
Q 1472 3097 1187 3025 
Q 903 2953 641 2809 
L 641 3341 
Q 956 3463 1253 3523 
Q 1550 3584 1831 3584 
Q 2591 3584 2966 3190 
Q 3341 2797 3341 1997 
z
" transform="scale(0.015625)"/>
      <path id="DejaVuSans-69" d="M 603 3500 
L 1178 3500 
L 1178 0 
L 603 0 
L 603 3500 
z
M 603 4863 
L 1178 4863 
L 1178 4134 
L 603 4134 
L 603 4863 
z
" transform="scale(0.015625)"/>
      <path id="DejaVuSans-72" d="M 2631 2963 
Q 2534 3019 2420 3045 
Q 2306 3072 2169 3072 
Q 1681 3072 1420 2755 
Q 1159 2438 1159 1844 
L 1159 0 
L 581 0 
L 581 3500 
L 1159 3500 
L 1159 2956 
Q 1341 3275 1631 3429 
Q 1922 3584 2338 3584 
Q 2397 3584 2469 3576 
Q 2541 3569 2628 3553 
L 2631 2963 
z
" transform="scale(0.015625)"/>
      <path id="DejaVuSans-20" transform="scale(0.015625)"/>
      <path id="DejaVuSans-31" d="M 794 531 
L 1825 531 
L 1825 4091 
L 703 3866 
L 703 4441 
L 1819 4666 
L 2450 4666 
L 2450 531 
L 3481 531 
L 3481 0 
L 794 0 
L 794 531 
z
" transform="scale(0.015625)"/>
     </defs>
     <use xlink:href="#DejaVuSans-43"/>
     <use xlink:href="#DejaVuSans-68" x="69.824219"/>
     <use xlink:href="#DejaVuSans-61" x="133.203125"/>
     <use xlink:href="#DejaVuSans-69" x="194.482422"/>
     <use xlink:href="#DejaVuSans-72" x="222.265625"/>
     <use xlink:href="#DejaVuSans-20" x="263.378906"/>
     <use xlink:href="#DejaVuSans-31" x="295.166016"/>
    </g>
   </g>
   <g id="text_2">
    <g id="patch_3">
     <path d="M 56.095792 61.344356 
L 56.51885 60.817582 
L 54.978486 59.580499 
L 54.555428 60.107273 
z
" style="fill: #ffffff"/>
    </g>
    <!--   -->
    <g style="fill: #808080" transform="translate(55.768422 61.05579)rotate(-51.231689)scale(0.02 -0.02)">
     <use xlink:href="#DejaVuSans-20"/>
    </g>
   </g>
   <g id="text_3">
    <g id="patch_4">
     <path d="M 54.379386 33.658977 
L 54.732439 34.235017 
L 56.416864 33.202638 
L 56.063811 32.626598 
z
" style="fill: #ffffff"/>
    </g>
    <!--   -->
    <g style="fill: #808080" transform="translate(54.761519 33.448226)rotate(-301.504013)scale(0.02 -0.02)">
     <use xlink:href="#DejaVuSans-20"/>
    </g>
   </g>
   <g id="text_4">
    <g id="patch_5">
     <path d="M 19.869709 52.158998 
L 20.176 51.55679 
L 18.415056 50.66115 
L 18.108765 51.263358 
z
" style="fill: #ffffff"/>
    </g>
    <!--   -->
    <g style="fill: #808080" transform="translate(19.490209 51.943541)rotate(-63.041485)scale(0.02 -0.02)">
     <use xlink:href="#DejaVuSans-20"/>
    </g>
   </g>
   <g id="text_5">
    <g id="patch_6">
     <path d="M 18.203662 27.124971 
L 18.70002 27.583335 
L 20.040345 26.131914 
L 19.543987 25.673549 
z
" style="fill: #ffffff"/>
    </g>
    <!--   -->
    <g style="fill: #808080" transform="translate(18.514109 26.818271)rotate(-317.278861)scale(0.02 -0.02)">
     <use xlink:href="#DejaVuSans-20"/>
    </g>
   </g>
   <g id="text_6">
    <g id="patch_7">
     <path d="M 58.493897 71.368488 
L 66.080725 56.261916 
L 64.315243 55.375255 
L 56.728415 70.481827 
z
" style="fill: #ffffff"/>
    </g>
    <!-- Thalackers 11.3° -->
    <g style="fill: #008000" transform="translate(58.113305 71.154966)rotate(-63.333264)scale(0.02 -0.02)">
     <defs>
      <path id="DejaVuSans-54" d="M -19 4666 
L 3928 4666 
L 3928 4134 
L 2272 4134 
L 2272 0 
L 1638 0 
L 1638 4134 
L -19 4134 
L -19 4666 
z
" transform="scale(0.015625)"/>
      <path id="DejaVuSans-6c" d="M 603 4863 
L 1178 4863 
L 1178 0 
L 603 0 
L 603 4863 
z
" transform="scale(0.015625)"/>
      <path id="DejaVuSans-63" d="M 3122 3366 
L 3122 2828 
Q 2878 2963 2633 3030 
Q 2388 3097 2138 3097 
Q 1578 3097 1268 2742 
Q 959 2388 959 1747 
Q 959 1106 1268 751 
Q 1578 397 2138 397 
Q 2388 397 2633 464 
Q 2878 531 3122 666 
L 3122 134 
Q 2881 22 2623 -34 
Q 2366 -91 2075 -91 
Q 1284 -91 818 406 
Q 353 903 353 1747 
Q 353 2603 823 3093 
Q 1294 3584 2113 3584 
Q 2378 3584 2631 3529 
Q 2884 3475 3122 3366 
z
" transform="scale(0.015625)"/>
      <path id="DejaVuSans-6b" d="M 581 4863 
L 1159 4863 
L 1159 1991 
L 2875 3500 
L 3609 3500 
L 1753 1863 
L 3688 0 
L 2938 0 
L 1159 1709 
L 1159 0 
L 581 0 
L 581 4863 
z
" transform="scale(0.015625)"/>
      <path id="DejaVuSans-65" d="M 3597 1894 
L 3597 1613 
L 953 1613 
Q 991 1019 1311 708 
Q 1631 397 2203 397 
Q 2534 397 2845 478 
Q 3156 559 3463 722 
L 3463 178 
Q 3153 47 2828 -22 
Q 2503 -91 2169 -91 
Q 1331 -91 842 396 
Q 353 884 353 1716 
Q 353 2575 817 3079 
Q 1281 3584 2069 3584 
Q 2775 3584 3186 3129 
Q 3597 2675 3597 1894 
z
M 3022 2063 
Q 3016 2534 2758 2815 
Q 2500 3097 2075 3097 
Q 1594 3097 1305 2825 
Q 1016 2553 972 2059 
L 3022 2063 
z
" transform="scale(0.015625)"/>
      <path id="DejaVuSans-73" d="M 2834 3397 
L 2834 2853 
Q 2591 2978 2328 3040 
Q 2066 3103 1784 3103 
Q 1356 3103 1142 2972 
Q 928 2841 928 2578 
Q 928 2378 1081 2264 
Q 1234 2150 1697 2047 
L 1894 2003 
Q 2506 1872 2764 1633 
Q 3022 1394 3022 966 
Q 3022 478 2636 193 
Q 2250 -91 1575 -91 
Q 1294 -91 989 -36 
Q 684 19 347 128 
L 347 722 
Q 666 556 975 473 
Q 1284 391 1588 391 
Q 1994 391 2212 530 
Q 2431 669 2431 922 
Q 2431 1156 2273 1281 
Q 2116 1406 1581 1522 
L 1381 1569 
Q 847 1681 609 1914 
Q 372 2147 372 2553 
Q 372 3047 722 3315 
Q 1072 3584 1716 3584 
Q 2034 3584 2315 3537 
Q 2597 3491 2834 3397 
z
" transform="scale(0.015625)"/>
      <path id="DejaVuSans-2e" d="M 684 794 
L 1344 794 
L 1344 0 
L 684 0 
L 684 794 
z
" transform="scale(0.015625)"/>
      <path id="DejaVuSans-33" d="M 2597 2516 
Q 3050 2419 3304 2112 
Q 3559 1806 3559 1356 
Q 3559 666 3084 287 
Q 2609 -91 1734 -91 
Q 1441 -91 1130 -33 
Q 819 25 488 141 
L 488 750 
Q 750 597 1062 519 
Q 1375 441 1716 441 
Q 2309 441 2620 675 
Q 2931 909 2931 1356 
Q 2931 1769 2642 2001 
Q 2353 2234 1838 2234 
L 1294 2234 
L 1294 2753 
L 1863 2753 
Q 2328 2753 2575 2939 
Q 2822 3125 2822 3475 
Q 2822 3834 2567 4026 
Q 2313 4219 1838 4219 
Q 1578 4219 1281 4162 
Q 984 4106 628 3988 
L 628 4550 
Q 988 4650 1302 4700 
Q 1616 4750 1894 4750 
Q 2613 4750 3031 4423 
Q 3450 4097 3450 3541 
Q 3450 3153 3228 2886 
Q 3006 2619 2597 2516 
z
" transform="scale(0.015625)"/>
      <path id="DejaVuSans-b0" d="M 1600 4347 
Q 1350 4347 1178 4173 
Q 1006 4000 1006 3750 
Q 1006 3503 1178 3333 
Q 1350 3163 1600 3163 
Q 1850 3163 2022 3333 
Q 2194 3503 2194 3750 
Q 2194 3997 2020 4172 
Q 1847 4347 1600 4347 
z
M 1600 4750 
Q 1800 4750 1984 4673 
Q 2169 4597 2303 4453 
Q 2447 4313 2519 4134 
Q 2591 3956 2591 3750 
Q 2591 3338 2302 3052 
Q 2013 2766 1594 2766 
Q 1172 2766 890 3047 
Q 609 3328 609 3750 
Q 609 4169 896 4459 
Q 1184 4750 1600 4750 
z
" transform="scale(0.015625)"/>
     </defs>
     <use xlink:href="#DejaVuSans-54"/>
     <use xlink:href="#DejaVuSans-68" x="61.083984"/>
     <use xlink:href="#DejaVuSans-61" x="124.462891"/>
     <use xlink:href="#DejaVuSans-6c" x="185.742188"/>
     <use xlink:href="#DejaVuSans-61" x="213.525391"/>
     <use xlink:href="#DejaVuSans-63" x="274.804688"/>
     <use xlink:href="#DejaVuSans-6b" x="329.785156"/>
     <use xlink:href="#DejaVuSans-65" x="384.070312"/>
     <use xlink:href="#DejaVuSans-72" x="445.59375"/>
     <use xlink:href="#DejaVuSans-73" x="486.707031"/>
     <use xlink:href="#DejaVuSans-20" x="538.806641"/>
     <use xlink:href="#DejaVuSans-31" x="570.59375"/>
     <use xlink:href="#DejaVuSans-31" x="634.216797"/>
     <use xlink:href="#DejaVuSans-2e" x="697.839844"/>
     <use xlink:href="#DejaVuSans-33" x="729.626953"/>
     <use xlink:href="#DejaVuSans-b0" x="793.25"/>
    </g>
   </g>
   <g id="text_7">
    <g id="patch_8">
     <path d="M 53.714477 68.463871 
L 63.665018 54.390723 
L 62.05189 53.250147 
L 52.101349 67.323295 
z
" style="fill: #ffffff"/>
    </g>
    <!-- Sidewinder 13.7° -->
    <g style="fill: #008000" transform="translate(53.370073 68.195864)rotate(-54.737449)scale(0.02 -0.02)">
     <defs>
      <path id="DejaVuSans-53" d="M 3425 4513 
L 3425 3897 
Q 3066 4069 2747 4153 
Q 2428 4238 2131 4238 
Q 1616 4238 1336 4038 
Q 1056 3838 1056 3469 
Q 1056 3159 1242 3001 
Q 1428 2844 1947 2747 
L 2328 2669 
Q 3034 2534 3370 2195 
Q 3706 1856 3706 1288 
Q 3706 609 3251 259 
Q 2797 -91 1919 -91 
Q 1588 -91 1214 -16 
Q 841 59 441 206 
L 441 856 
Q 825 641 1194 531 
Q 1563 422 1919 422 
Q 2459 422 2753 634 
Q 3047 847 3047 1241 
Q 3047 1584 2836 1778 
Q 2625 1972 2144 2069 
L 1759 2144 
Q 1053 2284 737 2584 
Q 422 2884 422 3419 
Q 422 4038 858 4394 
Q 1294 4750 2059 4750 
Q 2388 4750 2728 4690 
Q 3069 4631 3425 4513 
z
" transform="scale(0.015625)"/>
      <path id="DejaVuSans-64" d="M 2906 2969 
L 2906 4863 
L 3481 4863 
L 3481 0 
L 2906 0 
L 2906 525 
Q 2725 213 2448 61 
Q 2172 -91 1784 -91 
Q 1150 -91 751 415 
Q 353 922 353 1747 
Q 353 2572 751 3078 
Q 1150 3584 1784 3584 
Q 2172 3584 2448 3432 
Q 2725 3281 2906 2969 
z
M 947 1747 
Q 947 1113 1208 752 
Q 1469 391 1925 391 
Q 2381 391 2643 752 
Q 2906 1113 2906 1747 
Q 2906 2381 2643 2742 
Q 2381 3103 1925 3103 
Q 1469 3103 1208 2742 
Q 947 2381 947 1747 
z
" transform="scale(0.015625)"/>
      <path id="DejaVuSans-77" d="M 269 3500 
L 844 3500 
L 1563 769 
L 2278 3500 
L 2956 3500 
L 3675 769 
L 4391 3500 
L 4966 3500 
L 4050 0 
L 3372 0 
L 2619 2869 
L 1863 0 
L 1184 0 
L 269 3500 
z
" transform="scale(0.015625)"/>
      <path id="DejaVuSans-6e" d="M 3513 2113 
L 3513 0 
L 2938 0 
L 2938 2094 
Q 2938 2591 2744 2837 
Q 2550 3084 2163 3084 
Q 1697 3084 1428 2787 
Q 1159 2491 1159 1978 
L 1159 0 
L 581 0 
L 581 3500 
L 1159 3500 
L 1159 2956 
Q 1366 3272 1645 3428 
Q 1925 3584 2291 3584 
Q 2894 3584 3203 3211 
Q 3513 2838 3513 2113 
z
" transform="scale(0.015625)"/>
      <path id="DejaVuSans-37" d="M 525 4666 
L 3525 4666 
L 3525 4397 
L 1831 0 
L 1172 0 
L 2766 4134 
L 525 4134 
L 525 4666 
z
" transform="scale(0.015625)"/>
     </defs>
     <use xlink:href="#DejaVuSans-53"/>
     <use xlink:href="#DejaVuSans-69" x="63.476562"/>
     <use xlink:href="#DejaVuSans-64" x="91.259766"/>
     <use xlink:href="#DejaVuSans-65" x="154.736328"/>
     <use xlink:href="#DejaVuSans-77" x="216.259766"/>
     <use xlink:href="#DejaVuSans-69" x="298.046875"/>
     <use xlink:href="#DejaVuSans-6e" x="325.830078"/>
     <use xlink:href="#DejaVuSans-64" x="389.208984"/>
     <use xlink:href="#DejaVuSans-65" x="452.685547"/>
     <use xlink:href="#DejaVuSans-72" x="514.208984"/>
     <use xlink:href="#DejaVuSans-20" x="555.322266"/>
     <use xlink:href="#DejaVuSans-31" x="587.109375"/>
     <use xlink:href="#DejaVuSans-33" x="650.732422"/>
     <use xlink:href="#DejaVuSans-2e" x="714.355469"/>
     <use xlink:href="#DejaVuSans-37" x="746.142578"/>
     <use xlink:href="#DejaVuSans-b0" x="809.765625"/>
    </g>
   </g>
   <g id="text_8">
    <g id="patch_9">
     <path d="M 46.388772 70.286763 
L 61.241298 52.335069 
L 59.71912 51.075678 
L 44.866593 69.027372 
z
" style="fill: #ffffff"/>
    </g>
    <!-- SAawtooth Ridge 15.1° -->
    <g style="fill: #008000" transform="translate(46.06564 69.993459)rotate(-50.39698)scale(0.02 -0.02)">
     <defs>
      <path id="DejaVuSans-41" d="M 2188 4044 
L 1331 1722 
L 3047 1722 
L 2188 4044 
z
M 1831 4666 
L 2547 4666 
L 4325 0 
L 3669 0 
L 3244 1197 
L 1141 1197 
L 716 0 
L 50 0 
L 1831 4666 
z
" transform="scale(0.015625)"/>
      <path id="DejaVuSans-74" d="M 1172 4494 
L 1172 3500 
L 2356 3500 
L 2356 3053 
L 1172 3053 
L 1172 1153 
Q 1172 725 1289 603 
Q 1406 481 1766 481 
L 2356 481 
L 2356 0 
L 1766 0 
Q 1100 0 847 248 
Q 594 497 594 1153 
L 594 3053 
L 172 3053 
L 172 3500 
L 594 3500 
L 594 4494 
L 1172 4494 
z
" transform="scale(0.015625)"/>
      <path id="DejaVuSans-6f" d="M 1959 3097 
Q 1497 3097 1228 2736 
Q 959 2375 959 1747 
Q 959 1119 1226 758 
Q 1494 397 1959 397 
Q 2419 397 2687 759 
Q 2956 1122 2956 1747 
Q 2956 2369 2687 2733 
Q 2419 3097 1959 3097 
z
M 1959 3584 
Q 2709 3584 3137 3096 
Q 3566 2609 3566 1747 
Q 3566 888 3137 398 
Q 2709 -91 1959 -91 
Q 1206 -91 779 398 
Q 353 888 353 1747 
Q 353 2609 779 3096 
Q 1206 3584 1959 3584 
z
" transform="scale(0.015625)"/>
      <path id="DejaVuSans-52" d="M 2841 2188 
Q 3044 2119 3236 1894 
Q 3428 1669 3622 1275 
L 4263 0 
L 3584 0 
L 2988 1197 
Q 2756 1666 2539 1819 
Q 2322 1972 1947 1972 
L 1259 1972 
L 1259 0 
L 628 0 
L 628 4666 
L 2053 4666 
Q 2853 4666 3247 4331 
Q 3641 3997 3641 3322 
Q 3641 2881 3436 2590 
Q 3231 2300 2841 2188 
z
M 1259 4147 
L 1259 2491 
L 2053 2491 
Q 2509 2491 2742 2702 
Q 2975 2913 2975 3322 
Q 2975 3731 2742 3939 
Q 2509 4147 2053 4147 
L 1259 4147 
z
" transform="scale(0.015625)"/>
      <path id="DejaVuSans-67" d="M 2906 1791 
Q 2906 2416 2648 2759 
Q 2391 3103 1925 3103 
Q 1463 3103 1205 2759 
Q 947 2416 947 1791 
Q 947 1169 1205 825 
Q 1463 481 1925 481 
Q 2391 481 2648 825 
Q 2906 1169 2906 1791 
z
M 3481 434 
Q 3481 -459 3084 -895 
Q 2688 -1331 1869 -1331 
Q 1566 -1331 1297 -1286 
Q 1028 -1241 775 -1147 
L 775 -588 
Q 1028 -725 1275 -790 
Q 1522 -856 1778 -856 
Q 2344 -856 2625 -561 
Q 2906 -266 2906 331 
L 2906 616 
Q 2728 306 2450 153 
Q 2172 0 1784 0 
Q 1141 0 747 490 
Q 353 981 353 1791 
Q 353 2603 747 3093 
Q 1141 3584 1784 3584 
Q 2172 3584 2450 3431 
Q 2728 3278 2906 2969 
L 2906 3500 
L 3481 3500 
L 3481 434 
z
" transform="scale(0.015625)"/>
      <path id="DejaVuSans-35" d="M 691 4666 
L 3169 4666 
L 3169 4134 
L 1269 4134 
L 1269 2991 
Q 1406 3038 1543 3061 
Q 1681 3084 1819 3084 
Q 2600 3084 3056 2656 
Q 3513 2228 3513 1497 
Q 3513 744 3044 326 
Q 2575 -91 1722 -91 
Q 1428 -91 1123 -41 
Q 819 9 494 109 
L 494 744 
Q 775 591 1075 516 
Q 1375 441 1709 441 
Q 2250 441 2565 725 
Q 2881 1009 2881 1497 
Q 2881 1984 2565 2268 
Q 2250 2553 1709 2553 
Q 1456 2553 1204 2497 
Q 953 2441 691 2322 
L 691 4666 
z
" transform="scale(0.015625)"/>
     </defs>
     <use xlink:href="#DejaVuSans-53"/>
     <use xlink:href="#DejaVuSans-41" x="65.351562"/>
     <use xlink:href="#DejaVuSans-61" x="133.759766"/>
     <use xlink:href="#DejaVuSans-77" x="195.039062"/>
     <use xlink:href="#DejaVuSans-74" x="276.826172"/>
     <use xlink:href="#DejaVuSans-6f" x="316.035156"/>
     <use xlink:href="#DejaVuSans-6f" x="377.216797"/>
     <use xlink:href="#DejaVuSans-74" x="438.398438"/>
     <use xlink:href="#DejaVuSans-68" x="477.607422"/>
     <use xlink:href="#DejaVuSans-20" x="540.986328"/>
     <use xlink:href="#DejaVuSans-52" x="572.773438"/>
     <use xlink:href="#DejaVuSans-69" x="642.255859"/>
     <use xlink:href="#DejaVuSans-64" x="670.039062"/>
     <use xlink:href="#DejaVuSans-67" x="733.515625"/>
     <use xlink:href="#DejaVuSans-65" x="796.992188"/>
     <use xlink:href="#DejaVuSans-20" x="858.515625"/>
     <use xlink:href="#DejaVuSans-31" x="890.302734"/>
     <use xlink:href="#DejaVuSans-35" x="953.925781"/>
     <use xlink:href="#DejaVuSans-2e" x="1017.548828"/>
     <use xlink:href="#DejaVuSans-31" x="1049.335938"/>
     <use xlink:href="#DejaVuSans-b0" x="1112.958984"/>
    </g>
   </g>
   <g id="text_9">
    <g id="patch_10">
     <path d="M 41.479589 50.236198 
L 54.870609 61.588755 
L 56.148171 60.081795 
L 42.757151 48.729237 
z
" style="fill: #ffffff"/>
    </g>
    <!-- Easy Street 15.4° -->
    <g style="fill: #008000" transform="translate(41.776749 49.916608)rotate(-319.709591)scale(0.02 -0.02)">
     <defs>
      <path id="DejaVuSans-45" d="M 628 4666 
L 3578 4666 
L 3578 4134 
L 1259 4134 
L 1259 2753 
L 3481 2753 
L 3481 2222 
L 1259 2222 
L 1259 531 
L 3634 531 
L 3634 0 
L 628 0 
L 628 4666 
z
" transform="scale(0.015625)"/>
      <path id="DejaVuSans-79" d="M 2059 -325 
Q 1816 -950 1584 -1140 
Q 1353 -1331 966 -1331 
L 506 -1331 
L 506 -850 
L 844 -850 
Q 1081 -850 1212 -737 
Q 1344 -625 1503 -206 
L 1606 56 
L 191 3500 
L 800 3500 
L 1894 763 
L 2988 3500 
L 3597 3500 
L 2059 -325 
z
" transform="scale(0.015625)"/>
      <path id="DejaVuSans-34" d="M 2419 4116 
L 825 1625 
L 2419 1625 
L 2419 4116 
z
M 2253 4666 
L 3047 4666 
L 3047 1625 
L 3713 1625 
L 3713 1100 
L 3047 1100 
L 3047 0 
L 2419 0 
L 2419 1100 
L 313 1100 
L 313 1709 
L 2253 4666 
z
" transform="scale(0.015625)"/>
     </defs>
     <use xlink:href="#DejaVuSans-45"/>
     <use xlink:href="#DejaVuSans-61" x="63.183594"/>
     <use xlink:href="#DejaVuSans-73" x="124.462891"/>
     <use xlink:href="#DejaVuSans-79" x="176.5625"/>
     <use xlink:href="#DejaVuSans-20" x="235.742188"/>
     <use xlink:href="#DejaVuSans-53" x="267.529297"/>
     <use xlink:href="#DejaVuSans-74" x="331.005859"/>
     <use xlink:href="#DejaVuSans-72" x="370.214844"/>
     <use xlink:href="#DejaVuSans-65" x="409.078125"/>
     <use xlink:href="#DejaVuSans-65" x="470.601562"/>
     <use xlink:href="#DejaVuSans-74" x="532.125"/>
     <use xlink:href="#DejaVuSans-20" x="571.333984"/>
     <use xlink:href="#DejaVuSans-31" x="603.121094"/>
     <use xlink:href="#DejaVuSans-35" x="666.744141"/>
     <use xlink:href="#DejaVuSans-2e" x="730.367188"/>
     <use xlink:href="#DejaVuSans-34" x="762.154297"/>
     <use xlink:href="#DejaVuSans-b0" x="825.777344"/>
    </g>
   </g>
   <g id="text_10">
    <g id="patch_11">
     <path d="M 23.287585 65.234552 
L 31.332729 46.255554 
L 29.513779 45.484506 
L 21.468635 64.463504 
z
" style="fill: #ffffff"/>
    </g>
    <!-- Chicken Chute 11.6° -->
    <g style="fill: #008000" transform="translate(22.894025 65.046)rotate(-67.02805)scale(0.02 -0.02)">
     <defs>
      <path id="DejaVuSans-75" d="M 544 1381 
L 544 3500 
L 1119 3500 
L 1119 1403 
Q 1119 906 1312 657 
Q 1506 409 1894 409 
Q 2359 409 2629 706 
Q 2900 1003 2900 1516 
L 2900 3500 
L 3475 3500 
L 3475 0 
L 2900 0 
L 2900 538 
Q 2691 219 2414 64 
Q 2138 -91 1772 -91 
Q 1169 -91 856 284 
Q 544 659 544 1381 
z
M 1991 3584 
L 1991 3584 
z
" transform="scale(0.015625)"/>
      <path id="DejaVuSans-36" d="M 2113 2584 
Q 1688 2584 1439 2293 
Q 1191 2003 1191 1497 
Q 1191 994 1439 701 
Q 1688 409 2113 409 
Q 2538 409 2786 701 
Q 3034 994 3034 1497 
Q 3034 2003 2786 2293 
Q 2538 2584 2113 2584 
z
M 3366 4563 
L 3366 3988 
Q 3128 4100 2886 4159 
Q 2644 4219 2406 4219 
Q 1781 4219 1451 3797 
Q 1122 3375 1075 2522 
Q 1259 2794 1537 2939 
Q 1816 3084 2150 3084 
Q 2853 3084 3261 2657 
Q 3669 2231 3669 1497 
Q 3669 778 3244 343 
Q 2819 -91 2113 -91 
Q 1303 -91 875 529 
Q 447 1150 447 2328 
Q 447 3434 972 4092 
Q 1497 4750 2381 4750 
Q 2619 4750 2861 4703 
Q 3103 4656 3366 4563 
z
" transform="scale(0.015625)"/>
     </defs>
     <use xlink:href="#DejaVuSans-43"/>
     <use xlink:href="#DejaVuSans-68" x="69.824219"/>
     <use xlink:href="#DejaVuSans-69" x="133.203125"/>
     <use xlink:href="#DejaVuSans-63" x="160.986328"/>
     <use xlink:href="#DejaVuSans-6b" x="215.966797"/>
     <use xlink:href="#DejaVuSans-65" x="270.251953"/>
     <use xlink:href="#DejaVuSans-6e" x="331.775391"/>
     <use xlink:href="#DejaVuSans-20" x="395.154297"/>
     <use xlink:href="#DejaVuSans-43" x="426.941406"/>
     <use xlink:href="#DejaVuSans-68" x="496.765625"/>
     <use xlink:href="#DejaVuSans-75" x="560.144531"/>
     <use xlink:href="#DejaVuSans-74" x="623.523438"/>
     <use xlink:href="#DejaVuSans-65" x="662.732422"/>
     <use xlink:href="#DejaVuSans-20" x="724.255859"/>
     <use xlink:href="#DejaVuSans-31" x="756.042969"/>
     <use xlink:href="#DejaVuSans-31" x="819.666016"/>
     <use xlink:href="#DejaVuSans-2e" x="883.289062"/>
     <use xlink:href="#DejaVuSans-36" x="915.076172"/>
     <use xlink:href="#DejaVuSans-b0" x="978.699219"/>
    </g>
   </g>
   <g id="text_11">
    <g id="patch_12">
     <path d="M 19.012055 59.897835 
L 25.608136 44.829213 
L 23.79831 44.036986 
L 17.202229 59.105608 
z
" style="fill: #ffffff"/>
    </g>
    <!-- Big Riskey 17.2° -->
    <g style="fill: #4169e1" transform="translate(18.620722 59.704702)rotate(-66.359265)scale(0.02 -0.02)">
     <defs>
      <path id="DejaVuSans-42" d="M 1259 2228 
L 1259 519 
L 2272 519 
Q 2781 519 3026 730 
Q 3272 941 3272 1375 
Q 3272 1813 3026 2020 
Q 2781 2228 2272 2228 
L 1259 2228 
z
M 1259 4147 
L 1259 2741 
L 2194 2741 
Q 2656 2741 2882 2914 
Q 3109 3088 3109 3444 
Q 3109 3797 2882 3972 
Q 2656 4147 2194 4147 
L 1259 4147 
z
M 628 4666 
L 2241 4666 
Q 2963 4666 3353 4366 
Q 3744 4066 3744 3513 
Q 3744 3084 3544 2831 
Q 3344 2578 2956 2516 
Q 3422 2416 3680 2098 
Q 3938 1781 3938 1306 
Q 3938 681 3513 340 
Q 3088 0 2303 0 
L 628 0 
L 628 4666 
z
" transform="scale(0.015625)"/>
      <path id="DejaVuSans-32" d="M 1228 531 
L 3431 531 
L 3431 0 
L 469 0 
L 469 531 
Q 828 903 1448 1529 
Q 2069 2156 2228 2338 
Q 2531 2678 2651 2914 
Q 2772 3150 2772 3378 
Q 2772 3750 2511 3984 
Q 2250 4219 1831 4219 
Q 1534 4219 1204 4116 
Q 875 4013 500 3803 
L 500 4441 
Q 881 4594 1212 4672 
Q 1544 4750 1819 4750 
Q 2544 4750 2975 4387 
Q 3406 4025 3406 3419 
Q 3406 3131 3298 2873 
Q 3191 2616 2906 2266 
Q 2828 2175 2409 1742 
Q 1991 1309 1228 531 
z
" transform="scale(0.015625)"/>
     </defs>
     <use xlink:href="#DejaVuSans-42"/>
     <use xlink:href="#DejaVuSans-69" x="68.603516"/>
     <use xlink:href="#DejaVuSans-67" x="96.386719"/>
     <use xlink:href="#DejaVuSans-20" x="159.863281"/>
     <use xlink:href="#DejaVuSans-52" x="191.650391"/>
     <use xlink:href="#DejaVuSans-69" x="261.132812"/>
     <use xlink:href="#DejaVuSans-73" x="288.916016"/>
     <use xlink:href="#DejaVuSans-6b" x="341.015625"/>
     <use xlink:href="#DejaVuSans-65" x="395.300781"/>
     <use xlink:href="#DejaVuSans-79" x="456.824219"/>
     <use xlink:href="#DejaVuSans-20" x="516.003906"/>
     <use xlink:href="#DejaVuSans-31" x="547.791016"/>
     <use xlink:href="#DejaVuSans-37" x="611.414062"/>
     <use xlink:href="#DejaVuSans-2e" x="675.037109"/>
     <use xlink:href="#DejaVuSans-32" x="706.824219"/>
     <use xlink:href="#DejaVuSans-b0" x="770.447266"/>
    </g>
   </g>
   <g id="text_12">
    <g id="patch_13">
     <path d="M 14.411282 57.970117 
L 22.942786 42.028545 
L 21.20092 41.096345 
L 12.669416 57.037917 
z
" style="fill: #ffffff"/>
    </g>
    <!-- Grand River 17.6° -->
    <g style="fill: #4169e1" transform="translate(14.036362 57.746786)rotate(-61.8455)scale(0.02 -0.02)">
     <defs>
      <path id="DejaVuSans-47" d="M 3809 666 
L 3809 1919 
L 2778 1919 
L 2778 2438 
L 4434 2438 
L 4434 434 
Q 4069 175 3628 42 
Q 3188 -91 2688 -91 
Q 1594 -91 976 548 
Q 359 1188 359 2328 
Q 359 3472 976 4111 
Q 1594 4750 2688 4750 
Q 3144 4750 3555 4637 
Q 3966 4525 4313 4306 
L 4313 3634 
Q 3963 3931 3569 4081 
Q 3175 4231 2741 4231 
Q 1884 4231 1454 3753 
Q 1025 3275 1025 2328 
Q 1025 1384 1454 906 
Q 1884 428 2741 428 
Q 3075 428 3337 486 
Q 3600 544 3809 666 
z
" transform="scale(0.015625)"/>
      <path id="DejaVuSans-76" d="M 191 3500 
L 800 3500 
L 1894 563 
L 2988 3500 
L 3597 3500 
L 2284 0 
L 1503 0 
L 191 3500 
z
" transform="scale(0.015625)"/>
     </defs>
     <use xlink:href="#DejaVuSans-47"/>
     <use xlink:href="#DejaVuSans-72" x="77.490234"/>
     <use xlink:href="#DejaVuSans-61" x="118.603516"/>
     <use xlink:href="#DejaVuSans-6e" x="179.882812"/>
     <use xlink:href="#DejaVuSans-64" x="243.261719"/>
     <use xlink:href="#DejaVuSans-20" x="306.738281"/>
     <use xlink:href="#DejaVuSans-52" x="338.525391"/>
     <use xlink:href="#DejaVuSans-69" x="408.007812"/>
     <use xlink:href="#DejaVuSans-76" x="435.791016"/>
     <use xlink:href="#DejaVuSans-65" x="494.970703"/>
     <use xlink:href="#DejaVuSans-72" x="556.494141"/>
     <use xlink:href="#DejaVuSans-20" x="597.607422"/>
     <use xlink:href="#DejaVuSans-31" x="629.394531"/>
     <use xlink:href="#DejaVuSans-37" x="693.017578"/>
     <use xlink:href="#DejaVuSans-2e" x="756.640625"/>
     <use xlink:href="#DejaVuSans-36" x="788.427734"/>
     <use xlink:href="#DejaVuSans-b0" x="852.050781"/>
    </g>
   </g>
   <g id="text_13">
    <g id="patch_14">
     <path d="M 4.427175 21.802117 
L 9.446631 34.017276 
L 11.273991 33.266377 
L 6.254535 21.051218 
z
" style="fill: #ffffff"/>
    </g>
    <!-- Osprey 22.2° -->
    <g style="fill: #4169e1" transform="translate(4.837999 21.654924)rotate(-292.33875)scale(0.02 -0.02)">
     <defs>
      <path id="DejaVuSans-4f" d="M 2522 4238 
Q 1834 4238 1429 3725 
Q 1025 3213 1025 2328 
Q 1025 1447 1429 934 
Q 1834 422 2522 422 
Q 3209 422 3611 934 
Q 4013 1447 4013 2328 
Q 4013 3213 3611 3725 
Q 3209 4238 2522 4238 
z
M 2522 4750 
Q 3503 4750 4090 4092 
Q 4678 3434 4678 2328 
Q 4678 1225 4090 567 
Q 3503 -91 2522 -91 
Q 1538 -91 948 565 
Q 359 1222 359 2328 
Q 359 3434 948 4092 
Q 1538 4750 2522 4750 
z
" transform="scale(0.015625)"/>
      <path id="DejaVuSans-70" d="M 1159 525 
L 1159 -1331 
L 581 -1331 
L 581 3500 
L 1159 3500 
L 1159 2969 
Q 1341 3281 1617 3432 
Q 1894 3584 2278 3584 
Q 2916 3584 3314 3078 
Q 3713 2572 3713 1747 
Q 3713 922 3314 415 
Q 2916 -91 2278 -91 
Q 1894 -91 1617 61 
Q 1341 213 1159 525 
z
M 3116 1747 
Q 3116 2381 2855 2742 
Q 2594 3103 2138 3103 
Q 1681 3103 1420 2742 
Q 1159 2381 1159 1747 
Q 1159 1113 1420 752 
Q 1681 391 2138 391 
Q 2594 391 2855 752 
Q 3116 1113 3116 1747 
z
" transform="scale(0.015625)"/>
     </defs>
     <use xlink:href="#DejaVuSans-4f"/>
     <use xlink:href="#DejaVuSans-73" x="78.710938"/>
     <use xlink:href="#DejaVuSans-70" x="130.810547"/>
     <use xlink:href="#DejaVuSans-72" x="194.287109"/>
     <use xlink:href="#DejaVuSans-65" x="233.150391"/>
     <use xlink:href="#DejaVuSans-79" x="294.673828"/>
     <use xlink:href="#DejaVuSans-20" x="353.853516"/>
     <use xlink:href="#DejaVuSans-32" x="385.640625"/>
     <use xlink:href="#DejaVuSans-32" x="449.263672"/>
     <use xlink:href="#DejaVuSans-2e" x="512.886719"/>
     <use xlink:href="#DejaVuSans-32" x="544.673828"/>
     <use xlink:href="#DejaVuSans-b0" x="608.296875"/>
    </g>
   </g>
   <g id="text_14">
    <g id="patch_15">
     <path d="M 7.709367 20.146345 
L 21.151701 34.143428 
L 22.576631 32.774973 
L 9.134297 18.77789 
z
" style="fill: #ffffff"/>
    </g>
    <!-- Golden Eagle 17.6° -->
    <g style="fill: #4169e1" transform="translate(8.037643 19.85881)rotate(-313.841797)scale(0.02 -0.02)">
     <use xlink:href="#DejaVuSans-47"/>
     <use xlink:href="#DejaVuSans-6f" x="77.490234"/>
     <use xlink:href="#DejaVuSans-6c" x="138.671875"/>
     <use xlink:href="#DejaVuSans-64" x="166.455078"/>
     <use xlink:href="#DejaVuSans-65" x="229.931641"/>
     <use xlink:href="#DejaVuSans-6e" x="291.455078"/>
     <use xlink:href="#DejaVuSans-20" x="354.833984"/>
     <use xlink:href="#DejaVuSans-45" x="386.621094"/>
     <use xlink:href="#DejaVuSans-61" x="449.804688"/>
     <use xlink:href="#DejaVuSans-67" x="511.083984"/>
     <use xlink:href="#DejaVuSans-6c" x="574.560547"/>
     <use xlink:href="#DejaVuSans-65" x="602.34375"/>
     <use xlink:href="#DejaVuSans-20" x="663.867188"/>
     <use xlink:href="#DejaVuSans-31" x="695.654297"/>
     <use xlink:href="#DejaVuSans-37" x="759.277344"/>
     <use xlink:href="#DejaVuSans-2e" x="822.900391"/>
     <use xlink:href="#DejaVuSans-36" x="854.6875"/>
     <use xlink:href="#DejaVuSans-b0" x="918.310547"/>
    </g>
   </g>
   <g id="text_15">
    <g id="patch_16">
     <path d="M 12.350901 19.796928 
L 23.831665 31.140718 
L 25.220234 29.735382 
L 13.73947 18.391592 
z
" style="fill: #ffffff"/>
    </g>
    <!-- Ore Creek 15.0° -->
    <g style="fill: #008000" transform="translate(12.671527 19.500886)rotate(-315.343837)scale(0.02 -0.02)">
     <defs>
      <path id="DejaVuSans-30" d="M 2034 4250 
Q 1547 4250 1301 3770 
Q 1056 3291 1056 2328 
Q 1056 1369 1301 889 
Q 1547 409 2034 409 
Q 2525 409 2770 889 
Q 3016 1369 3016 2328 
Q 3016 3291 2770 3770 
Q 2525 4250 2034 4250 
z
M 2034 4750 
Q 2819 4750 3233 4129 
Q 3647 3509 3647 2328 
Q 3647 1150 3233 529 
Q 2819 -91 2034 -91 
Q 1250 -91 836 529 
Q 422 1150 422 2328 
Q 422 3509 836 4129 
Q 1250 4750 2034 4750 
z
" transform="scale(0.015625)"/>
     </defs>
     <use xlink:href="#DejaVuSans-4f"/>
     <use xlink:href="#DejaVuSans-72" x="78.710938"/>
     <use xlink:href="#DejaVuSans-65" x="117.574219"/>
     <use xlink:href="#DejaVuSans-20" x="179.097656"/>
     <use xlink:href="#DejaVuSans-43" x="210.884766"/>
     <use xlink:href="#DejaVuSans-72" x="280.708984"/>
     <use xlink:href="#DejaVuSans-65" x="319.572266"/>
     <use xlink:href="#DejaVuSans-65" x="381.095703"/>
     <use xlink:href="#DejaVuSans-6b" x="442.619141"/>
     <use xlink:href="#DejaVuSans-20" x="500.529297"/>
     <use xlink:href="#DejaVuSans-31" x="532.316406"/>
     <use xlink:href="#DejaVuSans-35" x="595.939453"/>
     <use xlink:href="#DejaVuSans-2e" x="659.5625"/>
     <use xlink:href="#DejaVuSans-30" x="691.349609"/>
     <use xlink:href="#DejaVuSans-b0" x="754.972656"/>
    </g>
   </g>
   <g id="text_16">
    <g id="patch_17">
     <path d="M 54.028972 28.568186 
L 64.854016 46.508781 
L 66.545571 45.488126 
L 55.720527 27.547531 
z
" style="fill: #ffffff"/>
    </g>
    <!-- Wolverine Way 12.8° -->
    <g style="fill: #008000" transform="translate(54.41256 28.360094)rotate(-301.106052)scale(0.02 -0.02)">
     <defs>
      <path id="DejaVuSans-57" d="M 213 4666 
L 850 4666 
L 1831 722 
L 2809 4666 
L 3519 4666 
L 4500 722 
L 5478 4666 
L 6119 4666 
L 4947 0 
L 4153 0 
L 3169 4050 
L 2175 0 
L 1381 0 
L 213 4666 
z
" transform="scale(0.015625)"/>
      <path id="DejaVuSans-38" d="M 2034 2216 
Q 1584 2216 1326 1975 
Q 1069 1734 1069 1313 
Q 1069 891 1326 650 
Q 1584 409 2034 409 
Q 2484 409 2743 651 
Q 3003 894 3003 1313 
Q 3003 1734 2745 1975 
Q 2488 2216 2034 2216 
z
M 1403 2484 
Q 997 2584 770 2862 
Q 544 3141 544 3541 
Q 544 4100 942 4425 
Q 1341 4750 2034 4750 
Q 2731 4750 3128 4425 
Q 3525 4100 3525 3541 
Q 3525 3141 3298 2862 
Q 3072 2584 2669 2484 
Q 3125 2378 3379 2068 
Q 3634 1759 3634 1313 
Q 3634 634 3220 271 
Q 2806 -91 2034 -91 
Q 1263 -91 848 271 
Q 434 634 434 1313 
Q 434 1759 690 2068 
Q 947 2378 1403 2484 
z
M 1172 3481 
Q 1172 3119 1398 2916 
Q 1625 2713 2034 2713 
Q 2441 2713 2670 2916 
Q 2900 3119 2900 3481 
Q 2900 3844 2670 4047 
Q 2441 4250 2034 4250 
Q 1625 4250 1398 4047 
Q 1172 3844 1172 3481 
z
" transform="scale(0.015625)"/>
     </defs>
     <use xlink:href="#DejaVuSans-57"/>
     <use xlink:href="#DejaVuSans-6f" x="93.001953"/>
     <use xlink:href="#DejaVuSans-6c" x="154.183594"/>
     <use xlink:href="#DejaVuSans-76" x="181.966797"/>
     <use xlink:href="#DejaVuSans-65" x="241.146484"/>
     <use xlink:href="#DejaVuSans-72" x="302.669922"/>
     <use xlink:href="#DejaVuSans-69" x="343.783203"/>
     <use xlink:href="#DejaVuSans-6e" x="371.566406"/>
     <use xlink:href="#DejaVuSans-65" x="434.945312"/>
     <use xlink:href="#DejaVuSans-20" x="496.46875"/>
     <use xlink:href="#DejaVuSans-57" x="528.255859"/>
     <use xlink:href="#DejaVuSans-61" x="620.757812"/>
     <use xlink:href="#DejaVuSans-79" x="682.037109"/>
     <use xlink:href="#DejaVuSans-20" x="741.216797"/>
     <use xlink:href="#DejaVuSans-31" x="773.003906"/>
     <use xlink:href="#DejaVuSans-32" x="836.626953"/>
     <use xlink:href="#DejaVuSans-2e" x="900.25"/>
     <use xlink:href="#DejaVuSans-38" x="932.037109"/>
     <use xlink:href="#DejaVuSans-b0" x="995.660156"/>
    </g>
   </g>
   <g id="text_17">
    <g id="patch_18">
     <path d="M 51.129419 30.910082 
L 61.79588 48.65617 
L 63.489172 47.6384 
L 52.822711 29.892312 
z
" style="fill: #ffffff"/>
    </g>
    <!-- Spartan Street 17.5° -->
    <g style="fill: #4169e1" transform="translate(51.513361 30.702645)rotate(-301.008385)scale(0.02 -0.02)">
     <use xlink:href="#DejaVuSans-53"/>
     <use xlink:href="#DejaVuSans-70" x="63.476562"/>
     <use xlink:href="#DejaVuSans-61" x="126.953125"/>
     <use xlink:href="#DejaVuSans-72" x="188.232422"/>
     <use xlink:href="#DejaVuSans-74" x="229.345703"/>
     <use xlink:href="#DejaVuSans-61" x="268.554688"/>
     <use xlink:href="#DejaVuSans-6e" x="329.833984"/>
     <use xlink:href="#DejaVuSans-20" x="393.212891"/>
     <use xlink:href="#DejaVuSans-53" x="425"/>
     <use xlink:href="#DejaVuSans-74" x="488.476562"/>
     <use xlink:href="#DejaVuSans-72" x="527.685547"/>
     <use xlink:href="#DejaVuSans-65" x="566.548828"/>
     <use xlink:href="#DejaVuSans-65" x="628.072266"/>
     <use xlink:href="#DejaVuSans-74" x="689.595703"/>
     <use xlink:href="#DejaVuSans-20" x="728.804688"/>
     <use xlink:href="#DejaVuSans-31" x="760.591797"/>
     <use xlink:href="#DejaVuSans-37" x="824.214844"/>
     <use xlink:href="#DejaVuSans-2e" x="887.837891"/>
     <use xlink:href="#DejaVuSans-35" x="919.625"/>
     <use xlink:href="#DejaVuSans-b0" x="983.248047"/>
    </g>
   </g>
   <g id="text_18">
    <g id="patch_19">
     <path d="M 47.173525 34.018083 
L 50.484266 48.187373 
L 52.408074 47.737863 
L 49.097333 33.568573 
z
" style="fill: #ffffff"/>
    </g>
    <!-- Jax Bowl 20.5° -->
    <g style="fill: #4169e1" transform="translate(47.60258 33.93837)rotate(-283.151558)scale(0.02 -0.02)">
     <defs>
      <path id="DejaVuSans-4a" d="M 628 4666 
L 1259 4666 
L 1259 325 
Q 1259 -519 939 -900 
Q 619 -1281 -91 -1281 
L -331 -1281 
L -331 -750 
L -134 -750 
Q 284 -750 456 -515 
Q 628 -281 628 325 
L 628 4666 
z
" transform="scale(0.015625)"/>
      <path id="DejaVuSans-78" d="M 3513 3500 
L 2247 1797 
L 3578 0 
L 2900 0 
L 1881 1375 
L 863 0 
L 184 0 
L 1544 1831 
L 300 3500 
L 978 3500 
L 1906 2253 
L 2834 3500 
L 3513 3500 
z
" transform="scale(0.015625)"/>
     </defs>
     <use xlink:href="#DejaVuSans-4a"/>
     <use xlink:href="#DejaVuSans-61" x="29.492188"/>
     <use xlink:href="#DejaVuSans-78" x="90.771484"/>
     <use xlink:href="#DejaVuSans-20" x="149.951172"/>
     <use xlink:href="#DejaVuSans-42" x="181.738281"/>
     <use xlink:href="#DejaVuSans-6f" x="250.341797"/>
     <use xlink:href="#DejaVuSans-77" x="311.523438"/>
     <use xlink:href="#DejaVuSans-6c" x="393.310547"/>
     <use xlink:href="#DejaVuSans-20" x="421.09375"/>
     <use xlink:href="#DejaVuSans-32" x="452.880859"/>
     <use xlink:href="#DejaVuSans-30" x="516.503906"/>
     <use xlink:href="#DejaVuSans-2e" x="580.126953"/>
     <use xlink:href="#DejaVuSans-35" x="611.914062"/>
     <use xlink:href="#DejaVuSans-b0" x="675.537109"/>
    </g>
   </g>
   <g id="text_19">
    <g id="patch_20">
     <path d="M 31.800659 51.277415 
L 52.009495 41.315888 
L 51.136007 39.543852 
L 30.927171 49.505379 
z
" style="fill: #ffffff"/>
    </g>
    <!-- Snyder's Escape 13.4° -->
    <g style="fill: #008000" transform="translate(31.625856 50.877559)rotate(-26.240038)scale(0.02 -0.02)">
     <defs>
      <path id="DejaVuSans-27" d="M 1147 4666 
L 1147 2931 
L 616 2931 
L 616 4666 
L 1147 4666 
z
" transform="scale(0.015625)"/>
     </defs>
     <use xlink:href="#DejaVuSans-53"/>
     <use xlink:href="#DejaVuSans-6e" x="63.476562"/>
     <use xlink:href="#DejaVuSans-79" x="126.855469"/>
     <use xlink:href="#DejaVuSans-64" x="186.035156"/>
     <use xlink:href="#DejaVuSans-65" x="249.511719"/>
     <use xlink:href="#DejaVuSans-72" x="311.035156"/>
     <use xlink:href="#DejaVuSans-27" x="352.148438"/>
     <use xlink:href="#DejaVuSans-73" x="379.638672"/>
     <use xlink:href="#DejaVuSans-20" x="431.738281"/>
     <use xlink:href="#DejaVuSans-45" x="463.525391"/>
     <use xlink:href="#DejaVuSans-73" x="526.708984"/>
     <use xlink:href="#DejaVuSans-63" x="578.808594"/>
     <use xlink:href="#DejaVuSans-61" x="633.789062"/>
     <use xlink:href="#DejaVuSans-70" x="695.068359"/>
     <use xlink:href="#DejaVuSans-65" x="758.544922"/>
     <use xlink:href="#DejaVuSans-20" x="820.068359"/>
     <use xlink:href="#DejaVuSans-31" x="851.855469"/>
     <use xlink:href="#DejaVuSans-33" x="915.478516"/>
     <use xlink:href="#DejaVuSans-2e" x="979.101562"/>
     <use xlink:href="#DejaVuSans-34" x="1010.888672"/>
     <use xlink:href="#DejaVuSans-b0" x="1074.511719"/>
    </g>
   </g>
   <g id="text_20">
    <!-- Mount Brighton -->
    <g transform="translate(17.269638 5.25876)scale(0.05 -0.05)">
     <defs>
      <path id="DejaVuSans-4d" d="M 628 4666 
L 1569 4666 
L 2759 1491 
L 3956 4666 
L 4897 4666 
L 4897 0 
L 4281 0 
L 4281 4097 
L 3078 897 
L 2444 897 
L 1241 4097 
L 1241 0 
L 628 0 
L 628 4666 
z
" transform="scale(0.015625)"/>
     </defs>
     <use xlink:href="#DejaVuSans-4d"/>
     <use xlink:href="#DejaVuSans-6f" x="86.279297"/>
     <use xlink:href="#DejaVuSans-75" x="147.460938"/>
     <use xlink:href="#DejaVuSans-6e" x="210.839844"/>
     <use xlink:href="#DejaVuSans-74" x="274.21875"/>
     <use xlink:href="#DejaVuSans-20" x="313.427734"/>
     <use xlink:href="#DejaVuSans-42" x="345.214844"/>
     <use xlink:href="#DejaVuSans-72" x="413.818359"/>
     <use xlink:href="#DejaVuSans-69" x="454.931641"/>
     <use xlink:href="#DejaVuSans-67" x="482.714844"/>
     <use xlink:href="#DejaVuSans-68" x="546.191406"/>
     <use xlink:href="#DejaVuSans-74" x="609.570312"/>
     <use xlink:href="#DejaVuSans-6f" x="648.779297"/>
     <use xlink:href="#DejaVuSans-6e" x="709.960938"/>
    </g>
   </g>
  </g>
  <g id="text_21">
   <!-- Sources: USGS and OpenStreetMaps -->
   <g transform="translate(16.772508 99.524725)scale(0.021739 -0.021739)">
    <defs>
     <path id="DejaVuSans-3a" d="M 750 794 
L 1409 794 
L 1409 0 
L 750 0 
L 750 794 
z
M 750 3309 
L 1409 3309 
L 1409 2516 
L 750 2516 
L 750 3309 
z
" transform="scale(0.015625)"/>
     <path id="DejaVuSans-55" d="M 556 4666 
L 1191 4666 
L 1191 1831 
Q 1191 1081 1462 751 
Q 1734 422 2344 422 
Q 2950 422 3222 751 
Q 3494 1081 3494 1831 
L 3494 4666 
L 4128 4666 
L 4128 1753 
Q 4128 841 3676 375 
Q 3225 -91 2344 -91 
Q 1459 -91 1007 375 
Q 556 841 556 1753 
L 556 4666 
z
" transform="scale(0.015625)"/>
    </defs>
    <use xlink:href="#DejaVuSans-53"/>
    <use xlink:href="#DejaVuSans-6f" x="63.476562"/>
    <use xlink:href="#DejaVuSans-75" x="124.658203"/>
    <use xlink:href="#DejaVuSans-72" x="188.037109"/>
    <use xlink:href="#DejaVuSans-63" x="226.900391"/>
    <use xlink:href="#DejaVuSans-65" x="281.880859"/>
    <use xlink:href="#DejaVuSans-73" x="343.404297"/>
    <use xlink:href="#DejaVuSans-3a" x="395.503906"/>
    <use xlink:href="#DejaVuSans-20" x="429.195312"/>
    <use xlink:href="#DejaVuSans-55" x="460.982422"/>
    <use xlink:href="#DejaVuSans-53" x="534.175781"/>
    <use xlink:href="#DejaVuSans-47" x="597.652344"/>
    <use xlink:href="#DejaVuSans-53" x="675.142578"/>
    <use xlink:href="#DejaVuSans-20" x="738.619141"/>
    <use xlink:href="#DejaVuSans-61" x="770.40625"/>
    <use xlink:href="#DejaVuSans-6e" x="831.685547"/>
    <use xlink:href="#DejaVuSans-64" x="895.064453"/>
    <use xlink:href="#DejaVuSans-20" x="958.541016"/>
    <use xlink:href="#DejaVuSans-4f" x="990.328125"/>
    <use xlink:href="#DejaVuSans-70" x="1069.039062"/>
    <use xlink:href="#DejaVuSans-65" x="1132.515625"/>
    <use xlink:href="#DejaVuSans-6e" x="1194.039062"/>
    <use xlink:href="#DejaVuSans-53" x="1257.417969"/>
    <use xlink:href="#DejaVuSans-74" x="1320.894531"/>
    <use xlink:href="#DejaVuSans-72" x="1360.103516"/>
    <use xlink:href="#DejaVuSans-65" x="1398.966797"/>
    <use xlink:href="#DejaVuSans-65" x="1460.490234"/>
    <use xlink:href="#DejaVuSans-74" x="1522.013672"/>
    <use xlink:href="#DejaVuSans-4d" x="1561.222656"/>
    <use xlink:href="#DejaVuSans-61" x="1647.501953"/>
    <use xlink:href="#DejaVuSans-70" x="1708.78125"/>
    <use xlink:href="#DejaVuSans-73" x="1772.257812"/>
   </g>
  </g>
 </g>
 <defs>
  <clipPath id="p8af50a7db5">
   <rect x="0" y="7.75876" width="73.205681" height="84.459311"/>
  </clipPath>
 </defs>
</svg>
