<?xml version="1.0" encoding="utf-8" standalone="no"?>
<!DOCTYPE svg PUBLIC "-//W3C//DTD SVG 1.1//EN"
  "http://www.w3.org/Graphics/SVG/1.1/DTD/svg11.dtd">
<svg height="211.594294pt" version="1.1" viewBox="0 0 249.297057 211.594294" width="249.297057pt" xmlns="http://www.w3.org/2000/svg" xmlns:xlink="http://www.w3.org/1999/xlink">
 <metadata>
  <rdf:RDF xmlns:cc="http://creativecommons.org/ns#" xmlns:dc="http://purl.org/dc/elements/1.1/" xmlns:rdf="http://www.w3.org/1999/02/22-rdf-syntax-ns#">
   <cc:Work>
    <dc:type rdf:resource="http://purl.org/dc/dcmitype/StillImage"/>
    <dc:date>2022-05-22T19:41:47.905526</dc:date>
    <dc:format>image/svg+xml</dc:format>
    <dc:creator>
     <cc:Agent>
      <dc:title>Matplotlib v3.4.3, https://matplotlib.org/</dc:title>
     </cc:Agent>
    </dc:creator>
   </cc:Work>
  </rdf:RDF>
 </metadata>
 <defs>
  <style type="text/css">*{stroke-linecap:butt;stroke-linejoin:round;}</style>
 </defs>
 <g id="figure_1">
  <g id="patch_1">
   <path d="M 0 211.594294 
L 249.297057 211.594294 
L 249.297057 0 
L 0 0 
z
" style="fill:#ffffff;"/>
  </g>
  <g id="axes_1">
   <g id="line2d_1">
    <path clip-path="url(#p825d643ded)" d="M 146.021032 56.228302 
" style="fill:none;stroke:#008000;stroke-linecap:square;stroke-width:0.001;"/>
   </g>
   <g id="line2d_2">
    <path clip-path="url(#p825d643ded)" d="M 146.021032 56.228302 
" style="fill:none;stroke:#4169e1;stroke-linecap:square;stroke-width:0.001;"/>
   </g>
   <g id="line2d_3">
    <path clip-path="url(#p825d643ded)" d="M 146.021032 56.228302 
" style="fill:none;stroke:#000000;stroke-linecap:square;stroke-width:0.001;"/>
   </g>
   <g id="line2d_4">
    <path clip-path="url(#p825d643ded)" d="M 146.021032 56.228302 
" style="fill:none;stroke:#ff0000;stroke-linecap:square;stroke-width:0.001;"/>
   </g>
   <g id="line2d_5">
    <path clip-path="url(#p825d643ded)" d="M 146.021032 56.228302 
" style="fill:none;stroke:#ffd700;stroke-linecap:square;stroke-width:0.001;"/>
   </g>
   <g id="line2d_6">
    <path clip-path="url(#p825d643ded)" d="M 146.021032 56.228302 
" style="fill:none;stroke:#000000;stroke-dasharray:0.001,0.00165;stroke-dashoffset:0;stroke-width:0.001;"/>
   </g>
   <g id="line2d_7">
    <path clip-path="url(#p825d643ded)" d="M 16.567638 159.807393 
L 20.613057 156.570547 
L 24.658475 153.3337 
L 28.703894 150.096854 
L 32.749313 146.860007 
L 36.794731 143.62316 
L 40.84015 140.386314 
L 44.885568 137.149467 
L 48.930987 133.91262 
L 52.976405 130.675774 
L 57.021824 127.438927 
L 61.067242 124.202081 
L 65.112661 120.965234 
L 69.158079 117.728387 
L 73.203498 114.491541 
L 77.248916 111.254694 
L 81.294335 108.017848 
L 85.339754 104.781001 
L 89.385172 101.544154 
L 93.430591 98.307308 
L 97.476009 95.070461 
L 101.521428 91.833615 
L 105.566846 88.596768 
L 109.612265 85.359921 
L 113.657683 82.123075 
L 117.703102 78.886228 
L 121.74852 75.649382 
L 125.793939 72.412535 
L 129.839357 69.175688 
L 133.884776 65.938842 
L 137.930195 62.701995 
L 141.975613 59.465148 
L 146.021032 56.228302 
" style="fill:none;stroke:#808080;stroke-linecap:square;stroke-width:1.154153;"/>
   </g>
   <g id="line2d_8">
    <path clip-path="url(#p825d643ded)" d="M 146.021032 56.228302 
L 152.560697 52.607081 
L 158.670584 48.534715 
L 162.382478 45.134137 
L 165.579074 40.362743 
L 169.91835 38.827969 
L 174.97526 39.346825 
L 182.44854 36.702738 
L 188.214349 35.221925 
L 193.523085 34.784011 
L 197.405289 35.605878 
L 212.484312 51.008617 
L 220.47289 59.156592 
L 226.628448 64.650491 
L 233.269463 69.808822 
L 236.176385 73.841365 
L 237.965373 89.517023 
L 237.078157 98.894814 
L 236.720796 101.949834 
L 234.157406 107.505737 
L 229.26644 114.273686 
L 227.384291 118.716126 
L 227.061138 120.590231 
L 227.473814 125.546856 
L 227.550235 128.521454 
L 226.647735 133.524257 
L 225.125131 136.894742 
L 223.749547 138.494891 
L 221.350644 140.439561 
L 219.341854 142.534699 
L 217.333065 143.942872 
L 215.530977 144.865397 
L 214.136469 146.279797 
L 214.245642 147.430618 
L 214.763852 148.385312 
L 221.371023 155.451084 
L 223.298297 156.721242 
L 224.662236 158.286109 
L 225.040703 162.096583 
L 223.841252 164.181344 
L 223.841252 164.181344 
" style="fill:none;stroke:#008000;stroke-linecap:square;stroke-width:1.154153;"/>
   </g>
   <g id="line2d_9">
    <path clip-path="url(#p825d643ded)" d="M 237.567982 86.067672 
L 236.234793 86.694579 
L 234.901604 87.321486 
L 233.568416 87.948393 
L 232.235227 88.5753 
L 230.902039 89.202207 
L 229.56885 89.829114 
L 228.235662 90.456021 
L 226.902473 91.082928 
L 225.843491 91.563907 
L 224.78451 92.044886 
L 223.725528 92.525865 
L 222.666547 93.006844 
L 221.607565 93.487823 
L 220.548584 93.968802 
L 219.489602 94.44978 
L 218.430621 94.930759 
L 216.801755 95.42925 
L 215.172888 95.92774 
L 213.544022 96.42623 
L 211.915155 96.92472 
L 210.286289 97.423211 
L 208.657422 97.921701 
L 207.028556 98.420191 
L 205.39969 98.918682 
L 203.730065 99.441428 
L 202.060441 99.964175 
L 200.390816 100.486922 
L 198.721192 101.009669 
L 197.703696 101.328246 
L 196.686201 101.646823 
L 195.668705 101.9654 
L 194.651209 102.283977 
" style="fill:none;stroke:#4169e1;stroke-linecap:square;stroke-width:1.154153;"/>
   </g>
   <g id="line2d_10">
    <path clip-path="url(#p825d643ded)" d="M 227.061138 120.590231 
L 225.577472 120.876899 
L 224.093807 121.163566 
L 222.610141 121.450234 
L 221.126475 121.736902 
L 219.452302 122.132399 
L 217.778128 122.527897 
L 216.103955 122.923394 
L 214.429781 123.318892 
L 212.755608 123.714389 
L 211.081435 124.109887 
L 209.407261 124.505384 
L 207.733088 124.900882 
L 206.534092 125.271279 
L 205.335095 125.641677 
L 204.136099 126.012075 
L 202.937103 126.382473 
L 201.738106 126.752871 
L 200.53911 127.123269 
L 199.340114 127.493666 
L 198.141117 127.864064 
L 196.942121 128.234462 
L 195.743125 128.60486 
L 194.544128 128.975258 
L 193.345132 129.345656 
L 192.146136 129.716054 
L 190.947139 130.086451 
L 189.748143 130.456849 
L 188.549147 130.827247 
L 187.332774 131.151921 
L 186.116401 131.476595 
L 184.900028 131.801268 
L 183.683654 132.125942 
L 182.467281 132.450616 
L 181.250908 132.77529 
L 180.034535 133.099963 
L 178.818162 133.424637 
" style="fill:none;stroke:#000000;stroke-linecap:square;stroke-width:1.154153;"/>
   </g>
   <g id="line2d_11">
    <path clip-path="url(#p825d643ded)" d="M 207.733088 124.900882 
L 206.920838 124.206134 
L 206.108589 123.511387 
L 205.142041 122.298303 
L 205.142041 121.085219 
L 205.587468 119.871098 
L 205.960113 118.301042 
L 205.587468 117.15956 
L 204.696613 115.589504 
L 204.101982 114.732873 
L 203.507352 113.876243 
L 202.393783 112.733724 
L 201.798425 111.949215 
L 201.130284 111.092065 
L 200.01526 109.736815 
L 199.644071 108.7375 
L 199.050168 107.02424 
L 198.60474 105.739554 
L 198.456265 104.383266 
L 198.456265 102.599441 
L 198.721192 101.009669 
" style="fill:none;stroke:#008000;stroke-linecap:square;stroke-width:1.154153;"/>
   </g>
   <g id="line2d_12">
    <path clip-path="url(#p825d643ded)" d="M 214.645945 53.241771 
L 214.692525 54.265472 
L 214.739106 55.289174 
L 214.785687 56.312875 
L 214.832267 57.336577 
L 214.832267 58.912341 
L 214.832267 60.488104 
L 214.4538 62.104339 
L 214.075332 63.720573 
L 214.075332 64.771255 
L 214.075332 65.821937 
L 214.285673 67.074454 
L 214.496013 68.326971 
L 214.748568 69.74137 
L 215.001122 71.15577 
L 215.58993 72.732053 
L 216.178739 74.308335 
L 216.851974 75.884099 
L 217.52521 77.459862 
L 218.071805 78.793321 
L 218.618399 80.126779 
L 220.079502 81.152556 
L 221.540606 82.178333 
L 223.001709 83.20411 
L 224.462813 84.229887 
L 225.195002 85.876215 
L 225.927191 87.522543 
L 226.289647 88.695156 
L 226.652102 89.867769 
L 226.902473 91.082928 
" style="fill:none;stroke:#008000;stroke-linecap:square;stroke-width:1.154153;"/>
   </g>
   <g id="line2d_13">
    <path clip-path="url(#p825d643ded)" d="M 226.902473 91.082928 
L 227.123731 92.127903 
L 227.344989 93.172877 
L 227.566247 94.217852 
L 227.787505 95.262827 
L 228.12012 96.934579 
L 228.452735 98.606331 
L 228.478208 100.080917 
L 228.503682 101.555504 
L 227.863926 102.956933 
L 227.22417 104.358361 
L 226.712511 105.415269 
L 226.200852 106.472178 
L 225.612044 107.602763 
L 225.023236 108.733349 
L 224.665147 109.962517 
L 224.307059 111.191686 
L 223.94897 112.716083 
L 223.667303 114.116992 
L 223.385635 115.517902 
L 223.103968 116.722165 
L 222.822301 117.926428 
L 222.413265 118.885273 
L 222.004229 119.844117 
L 221.565352 120.79051 
L 221.126475 121.736902 
" style="fill:none;stroke:#008000;stroke-linecap:square;stroke-width:1.154153;"/>
   </g>
   <g id="line2d_14">
    <path clip-path="url(#p825d643ded)" d="M 166.941557 163.417589 
L 165.676602 164.507185 
L 164.675846 164.85378 
L 163.67509 165.200376 
L 162.645222 165.394946 
L 161.615353 165.589517 
L 160.585485 165.784088 
L 159.555616 165.978659 
L 158.400562 166.047148 
L 157.245508 166.115637 
L 156.162508 166.081392 
L 155.079509 166.047148 
L 153.222106 166.047148 
L 151.411284 165.909132 
L 150.077913 165.886303 
L 148.649926 165.978659 
L 147.220483 166.275444 
L 145.380548 166.792224 
L 143.817186 167.069293 
L 142.434323 167.145046 
L 141.386259 167.282023 
L 140.457558 167.442869 
L 139.195514 167.602676 
L 137.552091 167.671165 
L 136.457446 167.671165 
L 135.170656 167.511357 
L 133.956648 167.350512 
L 132.908584 167.167875 
L 131.694577 166.985238 
L 129.956537 166.733074 
L 128.932491 166.572748 
L 127.908445 166.412422 
L 126.598365 166.001488 
L 125.289012 165.680836 
L 123.97966 165.360183 
L 122.871914 164.982975 
L 121.764169 164.605768 
L 120.836923 164.245682 
L 119.909677 163.885596 
L 118.764813 163.676498 
L 117.619948 163.467399 
L 116.165759 163.201745 
L 114.632965 162.922082 
L 113.100171 162.642419 
L 112.239885 162.485725 
L 110.843558 162.354195 
L 109.447231 162.222665 
L 108.050904 162.091135 
L 106.654577 161.959605 
L 105.147257 161.790458 
L 103.639937 161.621312 
L 101.957211 161.283018 
L 100.939716 160.756899 
L 100.077974 160.305494 
L 99.216232 159.85409 
L 98.395249 159.85409 
L 97.730019 159.891448 
L 96.946882 160.267099 
L 96.045838 160.756899 
L 94.949738 161.320376 
L 93.853637 161.959605 
L 92.562481 162.52412 
L 91.232021 163.238065 
L 90.096618 163.91569 
L 88.687554 164.592277 
L 87.160583 165.081039 
L 85.748608 165.367447 
L 84.087717 165.367447 
L 82.447206 165.681873 
L 80.660766 165.681873 
L 78.874326 165.681873 
L 77.087886 165.681873 
L 75.301446 165.681873 
L 74.522676 165.681873 
L 73.135447 165.508576 
L 71.641955 165.246035 
L 69.796562 164.95833 
L 67.951168 164.670624 
L 66.105774 164.382919 
L 64.260381 164.095214 
L 62.704297 163.85239 
L 61.148213 163.609565 
L 59.445108 163.367779 
L 57.99383 163.286837 
L 56.395533 163.408249 
L 54.850002 163.53952 
L 53.304471 163.67079 
L 51.75894 163.802061 
L 50.21341 163.933331 
L 48.405499 164.155401 
L 46.973872 164.380065 
L 45.542246 164.60473 
L 44.110619 164.829394 
L 42.678993 165.054059 
" style="fill:none;stroke:#4169e1;stroke-linecap:square;stroke-width:1.154153;"/>
   </g>
   <g id="line2d_15">
    <path clip-path="url(#p825d643ded)" d="M 174.97526 39.346825 
L 175.774409 39.984368 
L 176.573558 40.621912 
L 177.372707 41.259455 
L 178.171856 41.896999 
L 178.971005 42.534542 
L 179.770154 43.172086 
L 180.569303 43.809629 
L 181.368452 44.447173 
L 182.181247 45.225196 
L 182.994043 46.00322 
L 183.806838 46.781243 
L 184.619634 47.559267 
L 185.43243 48.33729 
L 186.245225 49.115314 
L 187.058021 49.893338 
L 187.870816 50.671361 
L 189.18308 51.990032 
L 190.495344 53.308703 
L 191.807607 54.627374 
L 193.119871 55.946045 
L 193.523085 56.81824 
L 193.926298 57.690436 
L 194.542036 59.183702 
L 195.157774 60.676968 
L 195.773511 62.170233 
L 196.389249 63.663499 
L 196.560651 65.234074 
L 196.732053 66.804649 
L 196.903456 68.375224 
L 197.074858 69.945799 
L 196.862334 70.900493 
L 196.649809 71.855187 
L 196.437285 72.809881 
L 196.224761 73.764575 
L 195.9027 75.214256 
L 195.580638 76.663938 
L 195.258577 78.11362 
L 194.936516 79.563302 
L 194.643567 80.891572 
L 194.350619 82.219841 
L 194.05767 83.548111 
L 193.764722 84.876381 
L 194.586069 86.313869 
L 195.407417 87.751358 
L 196.228764 89.188847 
L 197.050112 90.626335 
L 196.817936 91.547304 
L 196.585761 92.468272 
L 196.353586 93.38924 
L 196.12141 94.310208 
L 196.171994 95.318604 
L 196.222578 96.326999 
L 196.273161 97.335394 
L 196.323745 98.34379 
L 195.905611 99.328837 
L 195.487477 100.313884 
L 195.069343 101.29893 
L 194.651209 102.283977 
" style="fill:none;stroke:#4169e1;stroke-linecap:square;stroke-width:1.154153;"/>
   </g>
   <g id="line2d_16">
    <path clip-path="url(#p825d643ded)" d="M 226.647735 133.524257 
L 225.02833 133.832457 
L 223.408926 134.140657 
L 221.789521 134.448857 
L 220.170116 134.757058 
L 218.485935 135.161635 
L 216.801755 135.566212 
L 215.117574 135.97079 
L 213.433393 136.375367 
L 211.749212 136.779945 
L 210.065031 137.184522 
L 208.38085 137.5891 
L 206.696669 137.993677 
L 205.540523 138.182151 
L 204.384378 138.370626 
L 203.228232 138.5591 
L 202.072086 138.747574 
L 200.91594 138.936048 
L 199.759794 139.124522 
L 198.603649 139.312997 
L 197.447503 139.501471 
L 196.291357 139.689945 
L 195.135211 139.878419 
L 193.979065 140.066893 
L 192.82292 140.255368 
L 191.666774 140.443842 
L 190.510628 140.632316 
L 189.354482 140.82079 
L 188.198336 141.009264 
L 186.492867 141.276734 
L 184.787397 141.544204 
L 183.081927 141.811674 
L 181.376458 142.079144 
L 179.670988 142.346614 
L 177.965518 142.614084 
L 176.260048 142.881554 
L 174.554579 143.149024 
" style="fill:none;stroke:#4169e1;stroke-linecap:square;stroke-width:1.154153;"/>
   </g>
   <g id="line2d_17">
    <path clip-path="url(#p825d643ded)" d="M 223.841252 164.181344 
L 222.271339 164.38707 
L 220.701427 164.592796 
L 219.131514 164.798522 
L 217.561601 165.004248 
L 215.750233 164.767132 
L 213.938865 164.530015 
L 212.127497 164.292898 
L 210.31613 164.055781 
L 208.504762 163.818664 
L 206.693394 163.581547 
L 204.882026 163.34443 
L 203.070658 163.107313 
L 201.112816 163.010287 
L 199.154974 162.913261 
L 197.197132 162.816235 
L 195.23929 162.71921 
L 193.281448 162.622184 
L 191.323606 162.525158 
L 189.365763 162.428132 
L 187.407921 162.331106 
L 186.128774 162.399011 
L 184.849626 162.466916 
L 183.570478 162.534821 
L 182.29133 162.602726 
L 181.012183 162.670632 
L 179.733035 162.738537 
L 178.453887 162.806442 
L 177.174739 162.874347 
L 175.895591 162.942252 
L 174.616444 163.010158 
L 173.337296 163.078063 
L 172.058148 163.145968 
L 170.779 163.213873 
L 169.499853 163.281778 
L 168.220705 163.349684 
L 166.941557 163.417589 
" style="fill:none;stroke:#008000;stroke-linecap:square;stroke-width:1.154153;"/>
   </g>
   <g id="line2d_18">
    <path clip-path="url(#p825d643ded)" d="M 214.763852 148.385312 
L 212.917003 148.688453 
L 211.070154 148.991594 
L 209.223304 149.294736 
L 207.376455 149.597877 
L 205.529606 149.901018 
L 203.682757 150.204159 
L 201.835908 150.507301 
L 199.989058 150.810442 
L 198.437705 150.460214 
L 196.886352 150.109987 
L 195.334998 149.75976 
L 193.783645 149.409532 
L 192.802904 150.019447 
L 191.822164 150.629361 
L 190.841423 151.239276 
L 189.860683 151.84919 
L 188.189239 152.001215 
L 186.517795 152.153239 
L 184.846351 152.305264 
L 183.174907 152.457289 
L 181.503463 152.609313 
L 179.832019 152.761338 
L 178.160575 152.913362 
L 176.489131 153.065387 
L 175.031666 153.053194 
L 173.574202 153.041001 
L 172.116738 153.028808 
L 170.659274 153.016615 
" style="fill:none;stroke:#4169e1;stroke-linecap:square;stroke-width:1.154153;"/>
   </g>
   <g id="line2d_19">
    <path clip-path="url(#p825d643ded)" d="M 194.651209 102.283977 
L 190.637997 104.351097 
L 188.292953 106.261522 
L 187.000341 108.317227 
L 184.71789 115.227343 
L 183.987156 121.232574 
L 180.784738 130.341599 
L 178.36764 134.326667 
L 177.016074 137.032757 
L 170.659274 153.016615 
L 167.41173 162.291154 
L 165.718816 166.344971 
L 163.619776 168.322847 
L 153.165336 172.588876 
L 147.75616 174.256477 
L 139.786505 175.01193 
L 130.995867 176.767737 
L 126.634756 176.810283 
L 115.816404 174.599959 
L 106.591984 171.623805 
L 100.712635 170.416947 
L 83.037469 168.948846 
L 76.404824 168.785666 
L 70.027645 169.17377 
L 63.942322 168.213888 
L 57.759927 167.062029 
L 38.381839 164.37105 
L 16.567638 159.807393 
L 16.567638 159.807393 
" style="fill:none;stroke:#008000;stroke-linecap:square;stroke-width:1.154153;"/>
   </g>
   <g id="line2d_20">
    <path clip-path="url(#p825d643ded)" d="M 212.484312 51.008617 
L 211.97702 52.300308 
L 211.469728 53.591998 
L 210.962436 54.883688 
L 210.455144 56.175379 
L 210.078132 57.108021 
L 209.70112 58.040664 
L 209.324108 58.973306 
L 208.947096 59.905949 
L 208.222913 60.838591 
L 207.498729 61.771233 
L 206.774546 62.703876 
L 206.050363 63.636518 
L 205.209728 64.58317 
L 204.369093 65.529822 
L 203.528458 66.476473 
L 202.687824 67.423125 
L 201.905415 68.160937 
L 201.123006 68.898749 
L 200.340597 69.636562 
L 199.558188 70.374374 
L 198.724831 71.221924 
L 197.891474 72.069474 
L 197.058118 72.917024 
L 196.224761 73.764575 
" style="fill:none;stroke:#008000;stroke-linecap:square;stroke-width:1.154153;"/>
   </g>
   <g id="line2d_21">
    <path clip-path="url(#p825d643ded)" d="M 147.674644 55.341059 
L 146.386398 58.239385 
L 141.769093 58.673148 
L 132.21133 60.722627 
L 99.919309 64.448008 
L 91.31936 66.162306 
L 77.914328 71.379916 
L 54.115993 74.755588 
L 34.271189 75.023318 
L 27.66984 77.163077 
L 20.432375 82.703414 
L 18.44542 87.414621 
L 17.157174 95.042832 
L 16.781618 96.813167 
L 17.825315 101.096836 
L 18.803509 105.866155 
L 14.793207 113.697757 
L 12.283676 120.808151 
L 11.331684 124.96522 
L 12.404495 127.118469 
L 15.490461 128.492398 
L 21.112161 128.680224 
L 30.046908 131.520438 
L 33.397802 131.796469 
L 35.24356 132.742861 
L 35.259572 133.970473 
L 35.259572 133.970473 
" style="fill:none;stroke:#000000;stroke-linecap:square;stroke-width:1.154153;"/>
   </g>
   <g id="text_1">
    <g id="patch_2">
     <path d="M 81.80715 108.927194 
L 82.256596 108.422747 
L 80.78152 107.108501 
L 80.332074 107.612948 
z
" style="fill:#ffffff;"/>
    </g>
    <!--   -->
    <g style="fill:#808080;" transform="translate(81.494967 108.622263)rotate(-48.299975)scale(0.02 -0.02)">
     <defs>
      <path id="DejaVuSans-20" transform="scale(0.015625)"/>
     </defs>
     <use xlink:href="#DejaVuSans-20"/>
    </g>
   </g>
   <g id="text_2">
    <g id="patch_3">
     <path d="M 201.011371 37.954458 
L 213.763743 56.367089 
L 215.387873 55.242236 
L 202.635501 36.829604 
z
" style="fill:#ffffff;"/>
    </g>
    <!-- Floating Feather 15.1° -->
    <g style="fill:#008000;" transform="translate(201.381136 37.722691)rotate(-304.706018)scale(0.02 -0.02)">
     <defs>
      <path d="M 628 4666 
L 3309 4666 
L 3309 4134 
L 1259 4134 
L 1259 2759 
L 3109 2759 
L 3109 2228 
L 1259 2228 
L 1259 0 
L 628 0 
L 628 4666 
z
" id="DejaVuSans-46" transform="scale(0.015625)"/>
      <path d="M 603 4863 
L 1178 4863 
L 1178 0 
L 603 0 
L 603 4863 
z
" id="DejaVuSans-6c" transform="scale(0.015625)"/>
      <path d="M 1959 3097 
Q 1497 3097 1228 2736 
Q 959 2375 959 1747 
Q 959 1119 1226 758 
Q 1494 397 1959 397 
Q 2419 397 2687 759 
Q 2956 1122 2956 1747 
Q 2956 2369 2687 2733 
Q 2419 3097 1959 3097 
z
M 1959 3584 
Q 2709 3584 3137 3096 
Q 3566 2609 3566 1747 
Q 3566 888 3137 398 
Q 2709 -91 1959 -91 
Q 1206 -91 779 398 
Q 353 888 353 1747 
Q 353 2609 779 3096 
Q 1206 3584 1959 3584 
z
" id="DejaVuSans-6f" transform="scale(0.015625)"/>
      <path d="M 2194 1759 
Q 1497 1759 1228 1600 
Q 959 1441 959 1056 
Q 959 750 1161 570 
Q 1363 391 1709 391 
Q 2188 391 2477 730 
Q 2766 1069 2766 1631 
L 2766 1759 
L 2194 1759 
z
M 3341 1997 
L 3341 0 
L 2766 0 
L 2766 531 
Q 2569 213 2275 61 
Q 1981 -91 1556 -91 
Q 1019 -91 701 211 
Q 384 513 384 1019 
Q 384 1609 779 1909 
Q 1175 2209 1959 2209 
L 2766 2209 
L 2766 2266 
Q 2766 2663 2505 2880 
Q 2244 3097 1772 3097 
Q 1472 3097 1187 3025 
Q 903 2953 641 2809 
L 641 3341 
Q 956 3463 1253 3523 
Q 1550 3584 1831 3584 
Q 2591 3584 2966 3190 
Q 3341 2797 3341 1997 
z
" id="DejaVuSans-61" transform="scale(0.015625)"/>
      <path d="M 1172 4494 
L 1172 3500 
L 2356 3500 
L 2356 3053 
L 1172 3053 
L 1172 1153 
Q 1172 725 1289 603 
Q 1406 481 1766 481 
L 2356 481 
L 2356 0 
L 1766 0 
Q 1100 0 847 248 
Q 594 497 594 1153 
L 594 3053 
L 172 3053 
L 172 3500 
L 594 3500 
L 594 4494 
L 1172 4494 
z
" id="DejaVuSans-74" transform="scale(0.015625)"/>
      <path d="M 603 3500 
L 1178 3500 
L 1178 0 
L 603 0 
L 603 3500 
z
M 603 4863 
L 1178 4863 
L 1178 4134 
L 603 4134 
L 603 4863 
z
" id="DejaVuSans-69" transform="scale(0.015625)"/>
      <path d="M 3513 2113 
L 3513 0 
L 2938 0 
L 2938 2094 
Q 2938 2591 2744 2837 
Q 2550 3084 2163 3084 
Q 1697 3084 1428 2787 
Q 1159 2491 1159 1978 
L 1159 0 
L 581 0 
L 581 3500 
L 1159 3500 
L 1159 2956 
Q 1366 3272 1645 3428 
Q 1925 3584 2291 3584 
Q 2894 3584 3203 3211 
Q 3513 2838 3513 2113 
z
" id="DejaVuSans-6e" transform="scale(0.015625)"/>
      <path d="M 2906 1791 
Q 2906 2416 2648 2759 
Q 2391 3103 1925 3103 
Q 1463 3103 1205 2759 
Q 947 2416 947 1791 
Q 947 1169 1205 825 
Q 1463 481 1925 481 
Q 2391 481 2648 825 
Q 2906 1169 2906 1791 
z
M 3481 434 
Q 3481 -459 3084 -895 
Q 2688 -1331 1869 -1331 
Q 1566 -1331 1297 -1286 
Q 1028 -1241 775 -1147 
L 775 -588 
Q 1028 -725 1275 -790 
Q 1522 -856 1778 -856 
Q 2344 -856 2625 -561 
Q 2906 -266 2906 331 
L 2906 616 
Q 2728 306 2450 153 
Q 2172 0 1784 0 
Q 1141 0 747 490 
Q 353 981 353 1791 
Q 353 2603 747 3093 
Q 1141 3584 1784 3584 
Q 2172 3584 2450 3431 
Q 2728 3278 2906 2969 
L 2906 3500 
L 3481 3500 
L 3481 434 
z
" id="DejaVuSans-67" transform="scale(0.015625)"/>
      <path d="M 3597 1894 
L 3597 1613 
L 953 1613 
Q 991 1019 1311 708 
Q 1631 397 2203 397 
Q 2534 397 2845 478 
Q 3156 559 3463 722 
L 3463 178 
Q 3153 47 2828 -22 
Q 2503 -91 2169 -91 
Q 1331 -91 842 396 
Q 353 884 353 1716 
Q 353 2575 817 3079 
Q 1281 3584 2069 3584 
Q 2775 3584 3186 3129 
Q 3597 2675 3597 1894 
z
M 3022 2063 
Q 3016 2534 2758 2815 
Q 2500 3097 2075 3097 
Q 1594 3097 1305 2825 
Q 1016 2553 972 2059 
L 3022 2063 
z
" id="DejaVuSans-65" transform="scale(0.015625)"/>
      <path d="M 3513 2113 
L 3513 0 
L 2938 0 
L 2938 2094 
Q 2938 2591 2744 2837 
Q 2550 3084 2163 3084 
Q 1697 3084 1428 2787 
Q 1159 2491 1159 1978 
L 1159 0 
L 581 0 
L 581 4863 
L 1159 4863 
L 1159 2956 
Q 1366 3272 1645 3428 
Q 1925 3584 2291 3584 
Q 2894 3584 3203 3211 
Q 3513 2838 3513 2113 
z
" id="DejaVuSans-68" transform="scale(0.015625)"/>
      <path d="M 2631 2963 
Q 2534 3019 2420 3045 
Q 2306 3072 2169 3072 
Q 1681 3072 1420 2755 
Q 1159 2438 1159 1844 
L 1159 0 
L 581 0 
L 581 3500 
L 1159 3500 
L 1159 2956 
Q 1341 3275 1631 3429 
Q 1922 3584 2338 3584 
Q 2397 3584 2469 3576 
Q 2541 3569 2628 3553 
L 2631 2963 
z
" id="DejaVuSans-72" transform="scale(0.015625)"/>
      <path d="M 794 531 
L 1825 531 
L 1825 4091 
L 703 3866 
L 703 4441 
L 1819 4666 
L 2450 4666 
L 2450 531 
L 3481 531 
L 3481 0 
L 794 0 
L 794 531 
z
" id="DejaVuSans-31" transform="scale(0.015625)"/>
      <path d="M 691 4666 
L 3169 4666 
L 3169 4134 
L 1269 4134 
L 1269 2991 
Q 1406 3038 1543 3061 
Q 1681 3084 1819 3084 
Q 2600 3084 3056 2656 
Q 3513 2228 3513 1497 
Q 3513 744 3044 326 
Q 2575 -91 1722 -91 
Q 1428 -91 1123 -41 
Q 819 9 494 109 
L 494 744 
Q 775 591 1075 516 
Q 1375 441 1709 441 
Q 2250 441 2565 725 
Q 2881 1009 2881 1497 
Q 2881 1984 2565 2268 
Q 2250 2553 1709 2553 
Q 1456 2553 1204 2497 
Q 953 2441 691 2322 
L 691 4666 
z
" id="DejaVuSans-35" transform="scale(0.015625)"/>
      <path d="M 684 794 
L 1344 794 
L 1344 0 
L 684 0 
L 684 794 
z
" id="DejaVuSans-2e" transform="scale(0.015625)"/>
      <path d="M 1600 4347 
Q 1350 4347 1178 4173 
Q 1006 4000 1006 3750 
Q 1006 3503 1178 3333 
Q 1350 3163 1600 3163 
Q 1850 3163 2022 3333 
Q 2194 3503 2194 3750 
Q 2194 3997 2020 4172 
Q 1847 4347 1600 4347 
z
M 1600 4750 
Q 1800 4750 1984 4673 
Q 2169 4597 2303 4453 
Q 2447 4313 2519 4134 
Q 2591 3956 2591 3750 
Q 2591 3338 2302 3052 
Q 2013 2766 1594 2766 
Q 1172 2766 890 3047 
Q 609 3328 609 3750 
Q 609 4169 896 4459 
Q 1184 4750 1600 4750 
z
" id="DejaVuSans-b0" transform="scale(0.015625)"/>
     </defs>
     <use xlink:href="#DejaVuSans-46"/>
     <use x="57.519531" xlink:href="#DejaVuSans-6c"/>
     <use x="85.302734" xlink:href="#DejaVuSans-6f"/>
     <use x="146.484375" xlink:href="#DejaVuSans-61"/>
     <use x="207.763672" xlink:href="#DejaVuSans-74"/>
     <use x="246.972656" xlink:href="#DejaVuSans-69"/>
     <use x="274.755859" xlink:href="#DejaVuSans-6e"/>
     <use x="338.134766" xlink:href="#DejaVuSans-67"/>
     <use x="401.611328" xlink:href="#DejaVuSans-20"/>
     <use x="433.398438" xlink:href="#DejaVuSans-46"/>
     <use x="485.417969" xlink:href="#DejaVuSans-65"/>
     <use x="546.941406" xlink:href="#DejaVuSans-61"/>
     <use x="608.220703" xlink:href="#DejaVuSans-74"/>
     <use x="647.429688" xlink:href="#DejaVuSans-68"/>
     <use x="710.808594" xlink:href="#DejaVuSans-65"/>
     <use x="772.332031" xlink:href="#DejaVuSans-72"/>
     <use x="813.445312" xlink:href="#DejaVuSans-20"/>
     <use x="845.232422" xlink:href="#DejaVuSans-31"/>
     <use x="908.855469" xlink:href="#DejaVuSans-35"/>
     <use x="972.478516" xlink:href="#DejaVuSans-2e"/>
     <use x="1004.265625" xlink:href="#DejaVuSans-31"/>
     <use x="1067.888672" xlink:href="#DejaVuSans-b0"/>
    </g>
   </g>
   <g id="text_3">
    <g id="patch_4">
     <path d="M 222.976573 95.108349 
L 234.582566 87.45286 
L 233.49475 85.803694 
L 221.888757 93.459182 
z
" style="fill:#ffffff;"/>
    </g>
    <!-- Ice Man 19.0° -->
    <g style="fill:#4169e1;" transform="translate(222.753233 94.733435)rotate(-33.409448)scale(0.02 -0.02)">
     <defs>
      <path d="M 628 4666 
L 1259 4666 
L 1259 0 
L 628 0 
L 628 4666 
z
" id="DejaVuSans-49" transform="scale(0.015625)"/>
      <path d="M 3122 3366 
L 3122 2828 
Q 2878 2963 2633 3030 
Q 2388 3097 2138 3097 
Q 1578 3097 1268 2742 
Q 959 2388 959 1747 
Q 959 1106 1268 751 
Q 1578 397 2138 397 
Q 2388 397 2633 464 
Q 2878 531 3122 666 
L 3122 134 
Q 2881 22 2623 -34 
Q 2366 -91 2075 -91 
Q 1284 -91 818 406 
Q 353 903 353 1747 
Q 353 2603 823 3093 
Q 1294 3584 2113 3584 
Q 2378 3584 2631 3529 
Q 2884 3475 3122 3366 
z
" id="DejaVuSans-63" transform="scale(0.015625)"/>
      <path d="M 628 4666 
L 1569 4666 
L 2759 1491 
L 3956 4666 
L 4897 4666 
L 4897 0 
L 4281 0 
L 4281 4097 
L 3078 897 
L 2444 897 
L 1241 4097 
L 1241 0 
L 628 0 
L 628 4666 
z
" id="DejaVuSans-4d" transform="scale(0.015625)"/>
      <path d="M 703 97 
L 703 672 
Q 941 559 1184 500 
Q 1428 441 1663 441 
Q 2288 441 2617 861 
Q 2947 1281 2994 2138 
Q 2813 1869 2534 1725 
Q 2256 1581 1919 1581 
Q 1219 1581 811 2004 
Q 403 2428 403 3163 
Q 403 3881 828 4315 
Q 1253 4750 1959 4750 
Q 2769 4750 3195 4129 
Q 3622 3509 3622 2328 
Q 3622 1225 3098 567 
Q 2575 -91 1691 -91 
Q 1453 -91 1209 -44 
Q 966 3 703 97 
z
M 1959 2075 
Q 2384 2075 2632 2365 
Q 2881 2656 2881 3163 
Q 2881 3666 2632 3958 
Q 2384 4250 1959 4250 
Q 1534 4250 1286 3958 
Q 1038 3666 1038 3163 
Q 1038 2656 1286 2365 
Q 1534 2075 1959 2075 
z
" id="DejaVuSans-39" transform="scale(0.015625)"/>
      <path d="M 2034 4250 
Q 1547 4250 1301 3770 
Q 1056 3291 1056 2328 
Q 1056 1369 1301 889 
Q 1547 409 2034 409 
Q 2525 409 2770 889 
Q 3016 1369 3016 2328 
Q 3016 3291 2770 3770 
Q 2525 4250 2034 4250 
z
M 2034 4750 
Q 2819 4750 3233 4129 
Q 3647 3509 3647 2328 
Q 3647 1150 3233 529 
Q 2819 -91 2034 -91 
Q 1250 -91 836 529 
Q 422 1150 422 2328 
Q 422 3509 836 4129 
Q 1250 4750 2034 4750 
z
" id="DejaVuSans-30" transform="scale(0.015625)"/>
     </defs>
     <use xlink:href="#DejaVuSans-49"/>
     <use x="29.492188" xlink:href="#DejaVuSans-63"/>
     <use x="84.472656" xlink:href="#DejaVuSans-65"/>
     <use x="145.996094" xlink:href="#DejaVuSans-20"/>
     <use x="177.783203" xlink:href="#DejaVuSans-4d"/>
     <use x="264.0625" xlink:href="#DejaVuSans-61"/>
     <use x="325.341797" xlink:href="#DejaVuSans-6e"/>
     <use x="388.720703" xlink:href="#DejaVuSans-20"/>
     <use x="420.507812" xlink:href="#DejaVuSans-31"/>
     <use x="484.130859" xlink:href="#DejaVuSans-39"/>
     <use x="547.753906" xlink:href="#DejaVuSans-2e"/>
     <use x="579.541016" xlink:href="#DejaVuSans-30"/>
     <use x="643.164062" xlink:href="#DejaVuSans-b0"/>
    </g>
   </g>
   <g id="text_4">
    <g id="patch_5">
     <path d="M 209.630585 126.109156 
L 223.198769 121.612972 
L 222.577324 119.737632 
L 209.009141 124.233816 
z
" style="fill:#ffffff;"/>
    </g>
    <!-- Whisper 26.8° -->
    <g transform="translate(209.512443 125.689056)rotate(-18.33401)scale(0.02 -0.02)">
     <defs>
      <path d="M 213 4666 
L 850 4666 
L 1831 722 
L 2809 4666 
L 3519 4666 
L 4500 722 
L 5478 4666 
L 6119 4666 
L 4947 0 
L 4153 0 
L 3169 4050 
L 2175 0 
L 1381 0 
L 213 4666 
z
" id="DejaVuSans-57" transform="scale(0.015625)"/>
      <path d="M 2834 3397 
L 2834 2853 
Q 2591 2978 2328 3040 
Q 2066 3103 1784 3103 
Q 1356 3103 1142 2972 
Q 928 2841 928 2578 
Q 928 2378 1081 2264 
Q 1234 2150 1697 2047 
L 1894 2003 
Q 2506 1872 2764 1633 
Q 3022 1394 3022 966 
Q 3022 478 2636 193 
Q 2250 -91 1575 -91 
Q 1294 -91 989 -36 
Q 684 19 347 128 
L 347 722 
Q 666 556 975 473 
Q 1284 391 1588 391 
Q 1994 391 2212 530 
Q 2431 669 2431 922 
Q 2431 1156 2273 1281 
Q 2116 1406 1581 1522 
L 1381 1569 
Q 847 1681 609 1914 
Q 372 2147 372 2553 
Q 372 3047 722 3315 
Q 1072 3584 1716 3584 
Q 2034 3584 2315 3537 
Q 2597 3491 2834 3397 
z
" id="DejaVuSans-73" transform="scale(0.015625)"/>
      <path d="M 1159 525 
L 1159 -1331 
L 581 -1331 
L 581 3500 
L 1159 3500 
L 1159 2969 
Q 1341 3281 1617 3432 
Q 1894 3584 2278 3584 
Q 2916 3584 3314 3078 
Q 3713 2572 3713 1747 
Q 3713 922 3314 415 
Q 2916 -91 2278 -91 
Q 1894 -91 1617 61 
Q 1341 213 1159 525 
z
M 3116 1747 
Q 3116 2381 2855 2742 
Q 2594 3103 2138 3103 
Q 1681 3103 1420 2742 
Q 1159 2381 1159 1747 
Q 1159 1113 1420 752 
Q 1681 391 2138 391 
Q 2594 391 2855 752 
Q 3116 1113 3116 1747 
z
" id="DejaVuSans-70" transform="scale(0.015625)"/>
      <path d="M 1228 531 
L 3431 531 
L 3431 0 
L 469 0 
L 469 531 
Q 828 903 1448 1529 
Q 2069 2156 2228 2338 
Q 2531 2678 2651 2914 
Q 2772 3150 2772 3378 
Q 2772 3750 2511 3984 
Q 2250 4219 1831 4219 
Q 1534 4219 1204 4116 
Q 875 4013 500 3803 
L 500 4441 
Q 881 4594 1212 4672 
Q 1544 4750 1819 4750 
Q 2544 4750 2975 4387 
Q 3406 4025 3406 3419 
Q 3406 3131 3298 2873 
Q 3191 2616 2906 2266 
Q 2828 2175 2409 1742 
Q 1991 1309 1228 531 
z
" id="DejaVuSans-32" transform="scale(0.015625)"/>
      <path d="M 2113 2584 
Q 1688 2584 1439 2293 
Q 1191 2003 1191 1497 
Q 1191 994 1439 701 
Q 1688 409 2113 409 
Q 2538 409 2786 701 
Q 3034 994 3034 1497 
Q 3034 2003 2786 2293 
Q 2538 2584 2113 2584 
z
M 3366 4563 
L 3366 3988 
Q 3128 4100 2886 4159 
Q 2644 4219 2406 4219 
Q 1781 4219 1451 3797 
Q 1122 3375 1075 2522 
Q 1259 2794 1537 2939 
Q 1816 3084 2150 3084 
Q 2853 3084 3261 2657 
Q 3669 2231 3669 1497 
Q 3669 778 3244 343 
Q 2819 -91 2113 -91 
Q 1303 -91 875 529 
Q 447 1150 447 2328 
Q 447 3434 972 4092 
Q 1497 4750 2381 4750 
Q 2619 4750 2861 4703 
Q 3103 4656 3366 4563 
z
" id="DejaVuSans-36" transform="scale(0.015625)"/>
      <path d="M 2034 2216 
Q 1584 2216 1326 1975 
Q 1069 1734 1069 1313 
Q 1069 891 1326 650 
Q 1584 409 2034 409 
Q 2484 409 2743 651 
Q 3003 894 3003 1313 
Q 3003 1734 2745 1975 
Q 2488 2216 2034 2216 
z
M 1403 2484 
Q 997 2584 770 2862 
Q 544 3141 544 3541 
Q 544 4100 942 4425 
Q 1341 4750 2034 4750 
Q 2731 4750 3128 4425 
Q 3525 4100 3525 3541 
Q 3525 3141 3298 2862 
Q 3072 2584 2669 2484 
Q 3125 2378 3379 2068 
Q 3634 1759 3634 1313 
Q 3634 634 3220 271 
Q 2806 -91 2034 -91 
Q 1263 -91 848 271 
Q 434 634 434 1313 
Q 434 1759 690 2068 
Q 947 2378 1403 2484 
z
M 1172 3481 
Q 1172 3119 1398 2916 
Q 1625 2713 2034 2713 
Q 2441 2713 2670 2916 
Q 2900 3119 2900 3481 
Q 2900 3844 2670 4047 
Q 2441 4250 2034 4250 
Q 1625 4250 1398 4047 
Q 1172 3844 1172 3481 
z
" id="DejaVuSans-38" transform="scale(0.015625)"/>
     </defs>
     <use xlink:href="#DejaVuSans-57"/>
     <use x="98.876953" xlink:href="#DejaVuSans-68"/>
     <use x="162.255859" xlink:href="#DejaVuSans-69"/>
     <use x="190.039062" xlink:href="#DejaVuSans-73"/>
     <use x="242.138672" xlink:href="#DejaVuSans-70"/>
     <use x="305.615234" xlink:href="#DejaVuSans-65"/>
     <use x="367.138672" xlink:href="#DejaVuSans-72"/>
     <use x="408.251953" xlink:href="#DejaVuSans-20"/>
     <use x="440.039062" xlink:href="#DejaVuSans-32"/>
     <use x="503.662109" xlink:href="#DejaVuSans-36"/>
     <use x="567.285156" xlink:href="#DejaVuSans-2e"/>
     <use x="599.072266" xlink:href="#DejaVuSans-38"/>
     <use x="662.695312" xlink:href="#DejaVuSans-b0"/>
    </g>
   </g>
   <g id="text_5">
    <g id="patch_6">
     <path d="M 198.165482 105.30857 
L 207.078537 123.320142 
L 208.849221 122.443916 
L 199.936166 104.432344 
z
" style="fill:#ffffff;"/>
    </g>
    <!-- Chubby's Trail 13.6° -->
    <g style="fill:#008000;" transform="translate(198.565068 105.133149)rotate(-296.32858)scale(0.02 -0.02)">
     <defs>
      <path d="M 4122 4306 
L 4122 3641 
Q 3803 3938 3442 4084 
Q 3081 4231 2675 4231 
Q 1875 4231 1450 3742 
Q 1025 3253 1025 2328 
Q 1025 1406 1450 917 
Q 1875 428 2675 428 
Q 3081 428 3442 575 
Q 3803 722 4122 1019 
L 4122 359 
Q 3791 134 3420 21 
Q 3050 -91 2638 -91 
Q 1578 -91 968 557 
Q 359 1206 359 2328 
Q 359 3453 968 4101 
Q 1578 4750 2638 4750 
Q 3056 4750 3426 4639 
Q 3797 4528 4122 4306 
z
" id="DejaVuSans-43" transform="scale(0.015625)"/>
      <path d="M 544 1381 
L 544 3500 
L 1119 3500 
L 1119 1403 
Q 1119 906 1312 657 
Q 1506 409 1894 409 
Q 2359 409 2629 706 
Q 2900 1003 2900 1516 
L 2900 3500 
L 3475 3500 
L 3475 0 
L 2900 0 
L 2900 538 
Q 2691 219 2414 64 
Q 2138 -91 1772 -91 
Q 1169 -91 856 284 
Q 544 659 544 1381 
z
M 1991 3584 
L 1991 3584 
z
" id="DejaVuSans-75" transform="scale(0.015625)"/>
      <path d="M 3116 1747 
Q 3116 2381 2855 2742 
Q 2594 3103 2138 3103 
Q 1681 3103 1420 2742 
Q 1159 2381 1159 1747 
Q 1159 1113 1420 752 
Q 1681 391 2138 391 
Q 2594 391 2855 752 
Q 3116 1113 3116 1747 
z
M 1159 2969 
Q 1341 3281 1617 3432 
Q 1894 3584 2278 3584 
Q 2916 3584 3314 3078 
Q 3713 2572 3713 1747 
Q 3713 922 3314 415 
Q 2916 -91 2278 -91 
Q 1894 -91 1617 61 
Q 1341 213 1159 525 
L 1159 0 
L 581 0 
L 581 4863 
L 1159 4863 
L 1159 2969 
z
" id="DejaVuSans-62" transform="scale(0.015625)"/>
      <path d="M 2059 -325 
Q 1816 -950 1584 -1140 
Q 1353 -1331 966 -1331 
L 506 -1331 
L 506 -850 
L 844 -850 
Q 1081 -850 1212 -737 
Q 1344 -625 1503 -206 
L 1606 56 
L 191 3500 
L 800 3500 
L 1894 763 
L 2988 3500 
L 3597 3500 
L 2059 -325 
z
" id="DejaVuSans-79" transform="scale(0.015625)"/>
      <path d="M 1147 4666 
L 1147 2931 
L 616 2931 
L 616 4666 
L 1147 4666 
z
" id="DejaVuSans-27" transform="scale(0.015625)"/>
      <path d="M -19 4666 
L 3928 4666 
L 3928 4134 
L 2272 4134 
L 2272 0 
L 1638 0 
L 1638 4134 
L -19 4134 
L -19 4666 
z
" id="DejaVuSans-54" transform="scale(0.015625)"/>
      <path d="M 2597 2516 
Q 3050 2419 3304 2112 
Q 3559 1806 3559 1356 
Q 3559 666 3084 287 
Q 2609 -91 1734 -91 
Q 1441 -91 1130 -33 
Q 819 25 488 141 
L 488 750 
Q 750 597 1062 519 
Q 1375 441 1716 441 
Q 2309 441 2620 675 
Q 2931 909 2931 1356 
Q 2931 1769 2642 2001 
Q 2353 2234 1838 2234 
L 1294 2234 
L 1294 2753 
L 1863 2753 
Q 2328 2753 2575 2939 
Q 2822 3125 2822 3475 
Q 2822 3834 2567 4026 
Q 2313 4219 1838 4219 
Q 1578 4219 1281 4162 
Q 984 4106 628 3988 
L 628 4550 
Q 988 4650 1302 4700 
Q 1616 4750 1894 4750 
Q 2613 4750 3031 4423 
Q 3450 4097 3450 3541 
Q 3450 3153 3228 2886 
Q 3006 2619 2597 2516 
z
" id="DejaVuSans-33" transform="scale(0.015625)"/>
     </defs>
     <use xlink:href="#DejaVuSans-43"/>
     <use x="69.824219" xlink:href="#DejaVuSans-68"/>
     <use x="133.203125" xlink:href="#DejaVuSans-75"/>
     <use x="196.582031" xlink:href="#DejaVuSans-62"/>
     <use x="260.058594" xlink:href="#DejaVuSans-62"/>
     <use x="323.535156" xlink:href="#DejaVuSans-79"/>
     <use x="382.714844" xlink:href="#DejaVuSans-27"/>
     <use x="410.205078" xlink:href="#DejaVuSans-73"/>
     <use x="462.304688" xlink:href="#DejaVuSans-20"/>
     <use x="494.091797" xlink:href="#DejaVuSans-54"/>
     <use x="540.425781" xlink:href="#DejaVuSans-72"/>
     <use x="581.539062" xlink:href="#DejaVuSans-61"/>
     <use x="642.818359" xlink:href="#DejaVuSans-69"/>
     <use x="670.601562" xlink:href="#DejaVuSans-6c"/>
     <use x="698.384766" xlink:href="#DejaVuSans-20"/>
     <use x="730.171875" xlink:href="#DejaVuSans-31"/>
     <use x="793.794922" xlink:href="#DejaVuSans-33"/>
     <use x="857.417969" xlink:href="#DejaVuSans-2e"/>
     <use x="889.205078" xlink:href="#DejaVuSans-36"/>
     <use x="952.828125" xlink:href="#DejaVuSans-b0"/>
    </g>
   </g>
   <g id="text_6">
    <g id="patch_7">
     <path d="M 214.923563 65.289537 
L 215.932696 59.244438 
L 213.984037 58.91914 
L 212.974903 64.964239 
z
" style="fill:#ffffff;"/>
    </g>
    <!--  11.6° -->
    <g style="fill:#008000;" transform="translate(214.496868 65.198031)rotate(-80.522765)scale(0.02 -0.02)">
     <use xlink:href="#DejaVuSans-20"/>
     <use x="31.787109" xlink:href="#DejaVuSans-31"/>
     <use x="95.410156" xlink:href="#DejaVuSans-31"/>
     <use x="159.033203" xlink:href="#DejaVuSans-2e"/>
     <use x="190.820312" xlink:href="#DejaVuSans-36"/>
     <use x="254.443359" xlink:href="#DejaVuSans-b0"/>
    </g>
   </g>
   <g id="text_7">
    <g id="patch_8">
     <path d="M 226.134918 109.691156 
L 228.134323 103.897715 
L 226.266787 103.253199 
L 224.267381 109.04664 
z
" style="fill:#ffffff;"/>
    </g>
    <!--  11.6° -->
    <g style="fill:#008000;" transform="translate(225.729356 109.530032)rotate(-70.959659)scale(0.02 -0.02)">
     <use xlink:href="#DejaVuSans-20"/>
     <use x="31.787109" xlink:href="#DejaVuSans-31"/>
     <use x="95.410156" xlink:href="#DejaVuSans-31"/>
     <use x="159.033203" xlink:href="#DejaVuSans-2e"/>
     <use x="190.820312" xlink:href="#DejaVuSans-36"/>
     <use x="254.443359" xlink:href="#DejaVuSans-b0"/>
    </g>
   </g>
   <g id="text_8">
    <g id="patch_9">
     <path d="M 96.112543 161.368263 
L 113.874766 164.164248 
L 114.18197 162.212654 
L 96.419747 159.416669 
z
" style="fill:#ffffff;"/>
    </g>
    <!-- Jenny's Trail 17.4° -->
    <g style="fill:#4169e1;" transform="translate(96.200087 160.940738)rotate(-351.054368)scale(0.02 -0.02)">
     <defs>
      <path d="M 628 4666 
L 1259 4666 
L 1259 325 
Q 1259 -519 939 -900 
Q 619 -1281 -91 -1281 
L -331 -1281 
L -331 -750 
L -134 -750 
Q 284 -750 456 -515 
Q 628 -281 628 325 
L 628 4666 
z
" id="DejaVuSans-4a" transform="scale(0.015625)"/>
      <path d="M 525 4666 
L 3525 4666 
L 3525 4397 
L 1831 0 
L 1172 0 
L 2766 4134 
L 525 4134 
L 525 4666 
z
" id="DejaVuSans-37" transform="scale(0.015625)"/>
      <path d="M 2419 4116 
L 825 1625 
L 2419 1625 
L 2419 4116 
z
M 2253 4666 
L 3047 4666 
L 3047 1625 
L 3713 1625 
L 3713 1100 
L 3047 1100 
L 3047 0 
L 2419 0 
L 2419 1100 
L 313 1100 
L 313 1709 
L 2253 4666 
z
" id="DejaVuSans-34" transform="scale(0.015625)"/>
     </defs>
     <use xlink:href="#DejaVuSans-4a"/>
     <use x="29.492188" xlink:href="#DejaVuSans-65"/>
     <use x="91.015625" xlink:href="#DejaVuSans-6e"/>
     <use x="154.394531" xlink:href="#DejaVuSans-6e"/>
     <use x="217.773438" xlink:href="#DejaVuSans-79"/>
     <use x="276.953125" xlink:href="#DejaVuSans-27"/>
     <use x="304.443359" xlink:href="#DejaVuSans-73"/>
     <use x="356.542969" xlink:href="#DejaVuSans-20"/>
     <use x="388.330078" xlink:href="#DejaVuSans-54"/>
     <use x="434.664062" xlink:href="#DejaVuSans-72"/>
     <use x="475.777344" xlink:href="#DejaVuSans-61"/>
     <use x="537.056641" xlink:href="#DejaVuSans-69"/>
     <use x="564.839844" xlink:href="#DejaVuSans-6c"/>
     <use x="592.623047" xlink:href="#DejaVuSans-20"/>
     <use x="624.410156" xlink:href="#DejaVuSans-31"/>
     <use x="688.033203" xlink:href="#DejaVuSans-37"/>
     <use x="751.65625" xlink:href="#DejaVuSans-2e"/>
     <use x="783.443359" xlink:href="#DejaVuSans-34"/>
     <use x="847.066406" xlink:href="#DejaVuSans-b0"/>
    </g>
   </g>
   <g id="text_9">
    <g id="patch_10">
     <path d="M 176.192572 40.907742 
L 180.276282 45.477741 
L 181.749438 44.161342 
L 177.665728 39.591343 
z
" style="fill:#ffffff;"/>
    </g>
    <!--  17.6° -->
    <g style="fill:#4169e1;" transform="translate(176.530962 40.632181)rotate(-311.783689)scale(0.02 -0.02)">
     <use xlink:href="#DejaVuSans-20"/>
     <use x="31.787109" xlink:href="#DejaVuSans-31"/>
     <use x="95.410156" xlink:href="#DejaVuSans-37"/>
     <use x="159.033203" xlink:href="#DejaVuSans-2e"/>
     <use x="190.820312" xlink:href="#DejaVuSans-36"/>
     <use x="254.443359" xlink:href="#DejaVuSans-b0"/>
    </g>
   </g>
   <g id="text_10">
    <g id="patch_11">
     <path d="M 208.264082 139.322603 
L 222.601938 134.491167 
L 221.971065 132.618977 
L 207.633209 137.450413 
z
" style="fill:#ffffff;"/>
    </g>
    <!-- Maverick 20.5° -->
    <g style="fill:#4169e1;" transform="translate(208.143828 138.903103)rotate(-18.622304)scale(0.02 -0.02)">
     <defs>
      <path d="M 191 3500 
L 800 3500 
L 1894 563 
L 2988 3500 
L 3597 3500 
L 2284 0 
L 1503 0 
L 191 3500 
z
" id="DejaVuSans-76" transform="scale(0.015625)"/>
      <path d="M 581 4863 
L 1159 4863 
L 1159 1991 
L 2875 3500 
L 3609 3500 
L 1753 1863 
L 3688 0 
L 2938 0 
L 1159 1709 
L 1159 0 
L 581 0 
L 581 4863 
z
" id="DejaVuSans-6b" transform="scale(0.015625)"/>
     </defs>
     <use xlink:href="#DejaVuSans-4d"/>
     <use x="86.279297" xlink:href="#DejaVuSans-61"/>
     <use x="147.558594" xlink:href="#DejaVuSans-76"/>
     <use x="206.738281" xlink:href="#DejaVuSans-65"/>
     <use x="268.261719" xlink:href="#DejaVuSans-72"/>
     <use x="309.375" xlink:href="#DejaVuSans-69"/>
     <use x="337.158203" xlink:href="#DejaVuSans-63"/>
     <use x="392.138672" xlink:href="#DejaVuSans-6b"/>
     <use x="450.048828" xlink:href="#DejaVuSans-20"/>
     <use x="481.835938" xlink:href="#DejaVuSans-32"/>
     <use x="545.458984" xlink:href="#DejaVuSans-30"/>
     <use x="609.082031" xlink:href="#DejaVuSans-2e"/>
     <use x="640.869141" xlink:href="#DejaVuSans-35"/>
     <use x="704.492188" xlink:href="#DejaVuSans-b0"/>
    </g>
   </g>
   <g id="text_11">
    <g id="patch_12">
     <path d="M 202.98688 163.809764 
L 213.665833 165.770701 
L 214.022644 163.827564 
L 203.343691 161.866627 
z
" style="fill:#ffffff;"/>
    </g>
    <!-- Mojo 14.1° -->
    <g style="fill:#008000;" transform="translate(203.085284 163.384607)rotate(-349.594902)scale(0.02 -0.02)">
     <defs>
      <path d="M 603 3500 
L 1178 3500 
L 1178 -63 
Q 1178 -731 923 -1031 
Q 669 -1331 103 -1331 
L -116 -1331 
L -116 -844 
L 38 -844 
Q 366 -844 484 -692 
Q 603 -541 603 -63 
L 603 3500 
z
M 603 4863 
L 1178 4863 
L 1178 4134 
L 603 4134 
L 603 4863 
z
" id="DejaVuSans-6a" transform="scale(0.015625)"/>
     </defs>
     <use xlink:href="#DejaVuSans-4d"/>
     <use x="86.279297" xlink:href="#DejaVuSans-6f"/>
     <use x="147.460938" xlink:href="#DejaVuSans-6a"/>
     <use x="175.244141" xlink:href="#DejaVuSans-6f"/>
     <use x="236.425781" xlink:href="#DejaVuSans-20"/>
     <use x="268.212891" xlink:href="#DejaVuSans-31"/>
     <use x="331.835938" xlink:href="#DejaVuSans-34"/>
     <use x="395.458984" xlink:href="#DejaVuSans-2e"/>
     <use x="427.246094" xlink:href="#DejaVuSans-31"/>
     <use x="490.869141" xlink:href="#DejaVuSans-b0"/>
    </g>
   </g>
   <g id="text_12">
    <g id="patch_13">
     <path d="M 199.710091 152.254598 
L 211.792403 149.47269 
L 211.34912 147.547438 
L 199.266809 150.329346 
z
" style="fill:#ffffff;"/>
    </g>
    <!-- Goose 19.8° -->
    <g style="fill:#4169e1;" transform="translate(199.631768 151.825288)rotate(-12.966167)scale(0.02 -0.02)">
     <defs>
      <path d="M 3809 666 
L 3809 1919 
L 2778 1919 
L 2778 2438 
L 4434 2438 
L 4434 434 
Q 4069 175 3628 42 
Q 3188 -91 2688 -91 
Q 1594 -91 976 548 
Q 359 1188 359 2328 
Q 359 3472 976 4111 
Q 1594 4750 2688 4750 
Q 3144 4750 3555 4637 
Q 3966 4525 4313 4306 
L 4313 3634 
Q 3963 3931 3569 4081 
Q 3175 4231 2741 4231 
Q 1884 4231 1454 3753 
Q 1025 3275 1025 2328 
Q 1025 1384 1454 906 
Q 1884 428 2741 428 
Q 3075 428 3337 486 
Q 3600 544 3809 666 
z
" id="DejaVuSans-47" transform="scale(0.015625)"/>
     </defs>
     <use xlink:href="#DejaVuSans-47"/>
     <use x="77.490234" xlink:href="#DejaVuSans-6f"/>
     <use x="138.671875" xlink:href="#DejaVuSans-6f"/>
     <use x="199.853516" xlink:href="#DejaVuSans-73"/>
     <use x="251.953125" xlink:href="#DejaVuSans-65"/>
     <use x="313.476562" xlink:href="#DejaVuSans-20"/>
     <use x="345.263672" xlink:href="#DejaVuSans-31"/>
     <use x="408.886719" xlink:href="#DejaVuSans-39"/>
     <use x="472.509766" xlink:href="#DejaVuSans-2e"/>
     <use x="504.296875" xlink:href="#DejaVuSans-38"/>
     <use x="567.919922" xlink:href="#DejaVuSans-b0"/>
    </g>
   </g>
   <g id="text_13">
    <g id="patch_14">
     <path d="M 173.363544 150.882323 
L 177.644628 135.960556 
L 175.745614 135.415725 
L 171.46453 150.337492 
z
" style="fill:#ffffff;"/>
    </g>
    <!-- Backdoor 15.2° -->
    <g style="fill:#008000;" transform="translate(172.950027 150.742877)rotate(-73.991712)scale(0.02 -0.02)">
     <defs>
      <path d="M 1259 2228 
L 1259 519 
L 2272 519 
Q 2781 519 3026 730 
Q 3272 941 3272 1375 
Q 3272 1813 3026 2020 
Q 2781 2228 2272 2228 
L 1259 2228 
z
M 1259 4147 
L 1259 2741 
L 2194 2741 
Q 2656 2741 2882 2914 
Q 3109 3088 3109 3444 
Q 3109 3797 2882 3972 
Q 2656 4147 2194 4147 
L 1259 4147 
z
M 628 4666 
L 2241 4666 
Q 2963 4666 3353 4366 
Q 3744 4066 3744 3513 
Q 3744 3084 3544 2831 
Q 3344 2578 2956 2516 
Q 3422 2416 3680 2098 
Q 3938 1781 3938 1306 
Q 3938 681 3513 340 
Q 3088 0 2303 0 
L 628 0 
L 628 4666 
z
" id="DejaVuSans-42" transform="scale(0.015625)"/>
      <path d="M 2906 2969 
L 2906 4863 
L 3481 4863 
L 3481 0 
L 2906 0 
L 2906 525 
Q 2725 213 2448 61 
Q 2172 -91 1784 -91 
Q 1150 -91 751 415 
Q 353 922 353 1747 
Q 353 2572 751 3078 
Q 1150 3584 1784 3584 
Q 2172 3584 2448 3432 
Q 2725 3281 2906 2969 
z
M 947 1747 
Q 947 1113 1208 752 
Q 1469 391 1925 391 
Q 2381 391 2643 752 
Q 2906 1113 2906 1747 
Q 2906 2381 2643 2742 
Q 2381 3103 1925 3103 
Q 1469 3103 1208 2742 
Q 947 2381 947 1747 
z
" id="DejaVuSans-64" transform="scale(0.015625)"/>
     </defs>
     <use xlink:href="#DejaVuSans-42"/>
     <use x="68.603516" xlink:href="#DejaVuSans-61"/>
     <use x="129.882812" xlink:href="#DejaVuSans-63"/>
     <use x="184.863281" xlink:href="#DejaVuSans-6b"/>
     <use x="242.773438" xlink:href="#DejaVuSans-64"/>
     <use x="306.25" xlink:href="#DejaVuSans-6f"/>
     <use x="367.431641" xlink:href="#DejaVuSans-6f"/>
     <use x="428.613281" xlink:href="#DejaVuSans-72"/>
     <use x="469.726562" xlink:href="#DejaVuSans-20"/>
     <use x="501.513672" xlink:href="#DejaVuSans-31"/>
     <use x="565.136719" xlink:href="#DejaVuSans-35"/>
     <use x="628.759766" xlink:href="#DejaVuSans-2e"/>
     <use x="660.546875" xlink:href="#DejaVuSans-32"/>
     <use x="724.169922" xlink:href="#DejaVuSans-b0"/>
    </g>
   </g>
   <g id="text_14">
    <g id="patch_15">
     <path d="M 210.580196 59.392603 
L 212.232559 53.4908 
L 210.330091 52.958155 
L 208.677729 58.859957 
z
" style="fill:#ffffff;"/>
    </g>
    <!--  14.3° -->
    <g style="fill:#008000;" transform="translate(210.165794 59.255811)rotate(-74.359034)scale(0.02 -0.02)">
     <use xlink:href="#DejaVuSans-20"/>
     <use x="31.787109" xlink:href="#DejaVuSans-31"/>
     <use x="95.410156" xlink:href="#DejaVuSans-34"/>
     <use x="159.033203" xlink:href="#DejaVuSans-2e"/>
     <use x="190.820312" xlink:href="#DejaVuSans-33"/>
     <use x="254.443359" xlink:href="#DejaVuSans-b0"/>
    </g>
   </g>
   <g id="text_15">
    <g id="patch_16">
     <path d="M 135.985532 61.341151 
L 145.73228 58.409408 
L 145.163214 56.517515 
L 135.416466 59.449259 
z
" style="fill:#ffffff;"/>
    </g>
    <!-- Levi 25.3° -->
    <g transform="translate(135.879115 60.917929)rotate(-16.740864)scale(0.02 -0.02)">
     <defs>
      <path d="M 628 4666 
L 1259 4666 
L 1259 531 
L 3531 531 
L 3531 0 
L 628 0 
L 628 4666 
z
" id="DejaVuSans-4c" transform="scale(0.015625)"/>
     </defs>
     <use xlink:href="#DejaVuSans-4c"/>
     <use x="53.962891" xlink:href="#DejaVuSans-65"/>
     <use x="115.486328" xlink:href="#DejaVuSans-76"/>
     <use x="174.666016" xlink:href="#DejaVuSans-69"/>
     <use x="202.449219" xlink:href="#DejaVuSans-20"/>
     <use x="234.236328" xlink:href="#DejaVuSans-32"/>
     <use x="297.859375" xlink:href="#DejaVuSans-35"/>
     <use x="361.482422" xlink:href="#DejaVuSans-2e"/>
     <use x="393.269531" xlink:href="#DejaVuSans-33"/>
     <use x="456.892578" xlink:href="#DejaVuSans-b0"/>
    </g>
   </g>
   <g id="text_16">
    <!-- Pine Creek -->
    <g transform="translate(79.413919 19.182697)scale(0.17 -0.17)">
     <defs>
      <path d="M 1259 4147 
L 1259 2394 
L 2053 2394 
Q 2494 2394 2734 2622 
Q 2975 2850 2975 3272 
Q 2975 3691 2734 3919 
Q 2494 4147 2053 4147 
L 1259 4147 
z
M 628 4666 
L 2053 4666 
Q 2838 4666 3239 4311 
Q 3641 3956 3641 3272 
Q 3641 2581 3239 2228 
Q 2838 1875 2053 1875 
L 1259 1875 
L 1259 0 
L 628 0 
L 628 4666 
z
" id="DejaVuSans-50" transform="scale(0.015625)"/>
     </defs>
     <use xlink:href="#DejaVuSans-50"/>
     <use x="58.052734" xlink:href="#DejaVuSans-69"/>
     <use x="85.835938" xlink:href="#DejaVuSans-6e"/>
     <use x="149.214844" xlink:href="#DejaVuSans-65"/>
     <use x="210.738281" xlink:href="#DejaVuSans-20"/>
     <use x="242.525391" xlink:href="#DejaVuSans-43"/>
     <use x="312.349609" xlink:href="#DejaVuSans-72"/>
     <use x="351.212891" xlink:href="#DejaVuSans-65"/>
     <use x="412.736328" xlink:href="#DejaVuSans-65"/>
     <use x="474.259766" xlink:href="#DejaVuSans-6b"/>
    </g>
   </g>
   <g id="legend_1">
    <g id="line2d_22">
     <path d="M 12.645404 180.944637 
L 28.645404 180.944637 
" style="fill:none;stroke:#008000;stroke-linecap:square;stroke-width:1.154153;"/>
    </g>
    <g id="line2d_23"/>
    <g id="text_17">
     <!-- Easy -->
     <g transform="translate(35.045404 183.744637)scale(0.08 -0.08)">
      <defs>
       <path d="M 628 4666 
L 3578 4666 
L 3578 4134 
L 1259 4134 
L 1259 2753 
L 3481 2753 
L 3481 2222 
L 1259 2222 
L 1259 531 
L 3634 531 
L 3634 0 
L 628 0 
L 628 4666 
z
" id="DejaVuSans-45" transform="scale(0.015625)"/>
      </defs>
      <use xlink:href="#DejaVuSans-45"/>
      <use x="63.183594" xlink:href="#DejaVuSans-61"/>
      <use x="124.462891" xlink:href="#DejaVuSans-73"/>
      <use x="176.5625" xlink:href="#DejaVuSans-79"/>
     </g>
    </g>
    <g id="line2d_24">
     <path d="M 12.645404 192.687137 
L 28.645404 192.687137 
" style="fill:none;stroke:#4169e1;stroke-linecap:square;stroke-width:1.154153;"/>
    </g>
    <g id="line2d_25"/>
    <g id="text_18">
     <!-- Intermediate -->
     <g transform="translate(35.045404 195.487137)scale(0.08 -0.08)">
      <defs>
       <path d="M 3328 2828 
Q 3544 3216 3844 3400 
Q 4144 3584 4550 3584 
Q 5097 3584 5394 3201 
Q 5691 2819 5691 2113 
L 5691 0 
L 5113 0 
L 5113 2094 
Q 5113 2597 4934 2840 
Q 4756 3084 4391 3084 
Q 3944 3084 3684 2787 
Q 3425 2491 3425 1978 
L 3425 0 
L 2847 0 
L 2847 2094 
Q 2847 2600 2669 2842 
Q 2491 3084 2119 3084 
Q 1678 3084 1418 2786 
Q 1159 2488 1159 1978 
L 1159 0 
L 581 0 
L 581 3500 
L 1159 3500 
L 1159 2956 
Q 1356 3278 1631 3431 
Q 1906 3584 2284 3584 
Q 2666 3584 2933 3390 
Q 3200 3197 3328 2828 
z
" id="DejaVuSans-6d" transform="scale(0.015625)"/>
      </defs>
      <use xlink:href="#DejaVuSans-49"/>
      <use x="29.492188" xlink:href="#DejaVuSans-6e"/>
      <use x="92.871094" xlink:href="#DejaVuSans-74"/>
      <use x="132.080078" xlink:href="#DejaVuSans-65"/>
      <use x="193.603516" xlink:href="#DejaVuSans-72"/>
      <use x="232.966797" xlink:href="#DejaVuSans-6d"/>
      <use x="330.378906" xlink:href="#DejaVuSans-65"/>
      <use x="391.902344" xlink:href="#DejaVuSans-64"/>
      <use x="455.378906" xlink:href="#DejaVuSans-69"/>
      <use x="483.162109" xlink:href="#DejaVuSans-61"/>
      <use x="544.441406" xlink:href="#DejaVuSans-74"/>
      <use x="583.650391" xlink:href="#DejaVuSans-65"/>
     </g>
    </g>
    <g id="line2d_26">
     <path d="M 102.660404 180.944637 
L 118.660404 180.944637 
" style="fill:none;stroke:#000000;stroke-linecap:square;stroke-width:1.154153;"/>
    </g>
    <g id="line2d_27"/>
    <g id="text_19">
     <!-- Advanced -->
     <g transform="translate(125.060404 183.744637)scale(0.08 -0.08)">
      <defs>
       <path d="M 2188 4044 
L 1331 1722 
L 3047 1722 
L 2188 4044 
z
M 1831 4666 
L 2547 4666 
L 4325 0 
L 3669 0 
L 3244 1197 
L 1141 1197 
L 716 0 
L 50 0 
L 1831 4666 
z
" id="DejaVuSans-41" transform="scale(0.015625)"/>
      </defs>
      <use xlink:href="#DejaVuSans-41"/>
      <use x="66.658203" xlink:href="#DejaVuSans-64"/>
      <use x="130.134766" xlink:href="#DejaVuSans-76"/>
      <use x="189.314453" xlink:href="#DejaVuSans-61"/>
      <use x="250.59375" xlink:href="#DejaVuSans-6e"/>
      <use x="313.972656" xlink:href="#DejaVuSans-63"/>
      <use x="368.953125" xlink:href="#DejaVuSans-65"/>
      <use x="430.476562" xlink:href="#DejaVuSans-64"/>
     </g>
    </g>
    <g id="line2d_28">
     <path d="M 102.660404 192.687137 
L 118.660404 192.687137 
" style="fill:none;stroke:#ff0000;stroke-linecap:square;stroke-width:1.154153;"/>
    </g>
    <g id="line2d_29"/>
    <g id="text_20">
     <!-- Expert -->
     <g transform="translate(125.060404 195.487137)scale(0.08 -0.08)">
      <defs>
       <path d="M 3513 3500 
L 2247 1797 
L 3578 0 
L 2900 0 
L 1881 1375 
L 863 0 
L 184 0 
L 1544 1831 
L 300 3500 
L 978 3500 
L 1906 2253 
L 2834 3500 
L 3513 3500 
z
" id="DejaVuSans-78" transform="scale(0.015625)"/>
      </defs>
      <use xlink:href="#DejaVuSans-45"/>
      <use x="63.183594" xlink:href="#DejaVuSans-78"/>
      <use x="122.363281" xlink:href="#DejaVuSans-70"/>
      <use x="185.839844" xlink:href="#DejaVuSans-65"/>
      <use x="247.363281" xlink:href="#DejaVuSans-72"/>
      <use x="288.476562" xlink:href="#DejaVuSans-74"/>
     </g>
    </g>
    <g id="line2d_30">
     <path d="M 180.579154 180.944637 
L 196.579154 180.944637 
" style="fill:none;stroke:#ffd700;stroke-linecap:square;stroke-width:1.154153;"/>
    </g>
    <g id="line2d_31"/>
    <g id="text_21">
     <!-- Extreme -->
     <g transform="translate(202.979154 183.744637)scale(0.08 -0.08)">
      <use xlink:href="#DejaVuSans-45"/>
      <use x="63.183594" xlink:href="#DejaVuSans-78"/>
      <use x="122.363281" xlink:href="#DejaVuSans-74"/>
      <use x="161.572266" xlink:href="#DejaVuSans-72"/>
      <use x="200.435547" xlink:href="#DejaVuSans-65"/>
      <use x="261.958984" xlink:href="#DejaVuSans-6d"/>
      <use x="359.371094" xlink:href="#DejaVuSans-65"/>
     </g>
    </g>
    <g id="line2d_32">
     <path d="M 180.579154 192.687137 
L 196.579154 192.687137 
" style="fill:none;stroke:#000000;stroke-dasharray:1.154153,1.904353;stroke-dashoffset:0;stroke-width:1.154153;"/>
    </g>
    <g id="line2d_33"/>
    <g id="text_22">
     <!-- Gladed -->
     <g transform="translate(202.979154 195.487137)scale(0.08 -0.08)">
      <use xlink:href="#DejaVuSans-47"/>
      <use x="77.490234" xlink:href="#DejaVuSans-6c"/>
      <use x="105.273438" xlink:href="#DejaVuSans-61"/>
      <use x="166.552734" xlink:href="#DejaVuSans-64"/>
      <use x="230.029297" xlink:href="#DejaVuSans-65"/>
      <use x="291.552734" xlink:href="#DejaVuSans-64"/>
     </g>
    </g>
   </g>
  </g>
  <g id="text_23">
   <!-- Sources: USGS and OpenStreetMaps -->
   <g transform="translate(61.191463 210.147554)scale(0.069565 -0.069565)">
    <defs>
     <path d="M 3425 4513 
L 3425 3897 
Q 3066 4069 2747 4153 
Q 2428 4238 2131 4238 
Q 1616 4238 1336 4038 
Q 1056 3838 1056 3469 
Q 1056 3159 1242 3001 
Q 1428 2844 1947 2747 
L 2328 2669 
Q 3034 2534 3370 2195 
Q 3706 1856 3706 1288 
Q 3706 609 3251 259 
Q 2797 -91 1919 -91 
Q 1588 -91 1214 -16 
Q 841 59 441 206 
L 441 856 
Q 825 641 1194 531 
Q 1563 422 1919 422 
Q 2459 422 2753 634 
Q 3047 847 3047 1241 
Q 3047 1584 2836 1778 
Q 2625 1972 2144 2069 
L 1759 2144 
Q 1053 2284 737 2584 
Q 422 2884 422 3419 
Q 422 4038 858 4394 
Q 1294 4750 2059 4750 
Q 2388 4750 2728 4690 
Q 3069 4631 3425 4513 
z
" id="DejaVuSans-53" transform="scale(0.015625)"/>
     <path d="M 750 794 
L 1409 794 
L 1409 0 
L 750 0 
L 750 794 
z
M 750 3309 
L 1409 3309 
L 1409 2516 
L 750 2516 
L 750 3309 
z
" id="DejaVuSans-3a" transform="scale(0.015625)"/>
     <path d="M 556 4666 
L 1191 4666 
L 1191 1831 
Q 1191 1081 1462 751 
Q 1734 422 2344 422 
Q 2950 422 3222 751 
Q 3494 1081 3494 1831 
L 3494 4666 
L 4128 4666 
L 4128 1753 
Q 4128 841 3676 375 
Q 3225 -91 2344 -91 
Q 1459 -91 1007 375 
Q 556 841 556 1753 
L 556 4666 
z
" id="DejaVuSans-55" transform="scale(0.015625)"/>
     <path d="M 2522 4238 
Q 1834 4238 1429 3725 
Q 1025 3213 1025 2328 
Q 1025 1447 1429 934 
Q 1834 422 2522 422 
Q 3209 422 3611 934 
Q 4013 1447 4013 2328 
Q 4013 3213 3611 3725 
Q 3209 4238 2522 4238 
z
M 2522 4750 
Q 3503 4750 4090 4092 
Q 4678 3434 4678 2328 
Q 4678 1225 4090 567 
Q 3503 -91 2522 -91 
Q 1538 -91 948 565 
Q 359 1222 359 2328 
Q 359 3434 948 4092 
Q 1538 4750 2522 4750 
z
" id="DejaVuSans-4f" transform="scale(0.015625)"/>
    </defs>
    <use xlink:href="#DejaVuSans-53"/>
    <use x="63.476562" xlink:href="#DejaVuSans-6f"/>
    <use x="124.658203" xlink:href="#DejaVuSans-75"/>
    <use x="188.037109" xlink:href="#DejaVuSans-72"/>
    <use x="226.900391" xlink:href="#DejaVuSans-63"/>
    <use x="281.880859" xlink:href="#DejaVuSans-65"/>
    <use x="343.404297" xlink:href="#DejaVuSans-73"/>
    <use x="395.503906" xlink:href="#DejaVuSans-3a"/>
    <use x="429.195312" xlink:href="#DejaVuSans-20"/>
    <use x="460.982422" xlink:href="#DejaVuSans-55"/>
    <use x="534.175781" xlink:href="#DejaVuSans-53"/>
    <use x="597.652344" xlink:href="#DejaVuSans-47"/>
    <use x="675.142578" xlink:href="#DejaVuSans-53"/>
    <use x="738.619141" xlink:href="#DejaVuSans-20"/>
    <use x="770.40625" xlink:href="#DejaVuSans-61"/>
    <use x="831.685547" xlink:href="#DejaVuSans-6e"/>
    <use x="895.064453" xlink:href="#DejaVuSans-64"/>
    <use x="958.541016" xlink:href="#DejaVuSans-20"/>
    <use x="990.328125" xlink:href="#DejaVuSans-4f"/>
    <use x="1069.039062" xlink:href="#DejaVuSans-70"/>
    <use x="1132.515625" xlink:href="#DejaVuSans-65"/>
    <use x="1194.039062" xlink:href="#DejaVuSans-6e"/>
    <use x="1257.417969" xlink:href="#DejaVuSans-53"/>
    <use x="1320.894531" xlink:href="#DejaVuSans-74"/>
    <use x="1360.103516" xlink:href="#DejaVuSans-72"/>
    <use x="1398.966797" xlink:href="#DejaVuSans-65"/>
    <use x="1460.490234" xlink:href="#DejaVuSans-65"/>
    <use x="1522.013672" xlink:href="#DejaVuSans-74"/>
    <use x="1561.222656" xlink:href="#DejaVuSans-4d"/>
    <use x="1647.501953" xlink:href="#DejaVuSans-61"/>
    <use x="1708.78125" xlink:href="#DejaVuSans-70"/>
    <use x="1772.257812" xlink:href="#DejaVuSans-73"/>
   </g>
  </g>
 </g>
 <defs>
  <clipPath id="p825d643ded">
   <rect height="156.228899" width="249.297057" x="0" y="27.682697"/>
  </clipPath>
 </defs>
</svg>
