<?xml version="1.0" encoding="utf-8" standalone="no"?>
<!DOCTYPE svg PUBLIC "-//W3C//DTD SVG 1.1//EN"
  "http://www.w3.org/Graphics/SVG/1.1/DTD/svg11.dtd">
<svg height="220.701015pt" version="1.1" viewBox="0 0 212.724762 220.701015" width="212.724762pt" xmlns="http://www.w3.org/2000/svg" xmlns:xlink="http://www.w3.org/1999/xlink">
 <metadata>
  <rdf:RDF xmlns:cc="http://creativecommons.org/ns#" xmlns:dc="http://purl.org/dc/elements/1.1/" xmlns:rdf="http://www.w3.org/1999/02/22-rdf-syntax-ns#">
   <cc:Work>
    <dc:type rdf:resource="http://purl.org/dc/dcmitype/StillImage"/>
    <dc:date>2022-05-19T22:14:19.145451</dc:date>
    <dc:format>image/svg+xml</dc:format>
    <dc:creator>
     <cc:Agent>
      <dc:title>Matplotlib v3.4.3, https://matplotlib.org/</dc:title>
     </cc:Agent>
    </dc:creator>
   </cc:Work>
  </rdf:RDF>
 </metadata>
 <defs>
  <style type="text/css">*{stroke-linecap:butt;stroke-linejoin:round;}</style>
 </defs>
 <g id="figure_1">
  <g id="patch_1">
   <path d="M 0 220.701015 
L 212.724762 220.701015 
L 212.724762 0 
L 0 0 
z
" style="fill:#ffffff;"/>
  </g>
  <g id="axes_1">
   <g id="line2d_1">
    <path clip-path="url(#p8977f7027b)" d="M 148.540759 67.90079 
" style="fill:none;stroke:#008000;stroke-linecap:square;stroke-width:0.001;"/>
   </g>
   <g id="line2d_2">
    <path clip-path="url(#p8977f7027b)" d="M 148.540759 67.90079 
" style="fill:none;stroke:#4169e1;stroke-linecap:square;stroke-width:0.001;"/>
   </g>
   <g id="line2d_3">
    <path clip-path="url(#p8977f7027b)" d="M 148.540759 67.90079 
" style="fill:none;stroke:#000000;stroke-linecap:square;stroke-width:0.001;"/>
   </g>
   <g id="line2d_4">
    <path clip-path="url(#p8977f7027b)" d="M 148.540759 67.90079 
" style="fill:none;stroke:#ff0000;stroke-linecap:square;stroke-width:0.001;"/>
   </g>
   <g id="line2d_5">
    <path clip-path="url(#p8977f7027b)" d="M 148.540759 67.90079 
" style="fill:none;stroke:#ffd700;stroke-linecap:square;stroke-width:0.001;"/>
   </g>
   <g id="line2d_6">
    <path clip-path="url(#p8977f7027b)" d="M 148.540759 67.90079 
" style="fill:none;stroke:#000000;stroke-dasharray:0.001,0.00165;stroke-dashoffset:0;stroke-width:0.001;"/>
   </g>
   <g id="line2d_7">
    <path clip-path="url(#p8977f7027b)" d="M 48.855513 177.354396 
L 51.263676 172.281632 
L 53.671839 167.208868 
L 56.187653 161.910568 
L 58.703468 156.612269 
L 60.714935 152.37619 
L 62.726403 148.140112 
L 65.186777 142.957781 
L 67.647151 137.775451 
L 70.265772 132.259442 
L 72.884394 126.743434 
L 75.452419 121.334145 
L 78.020445 115.924857 
L 80.755868 110.16268 
L 83.491291 104.400504 
L 86.121755 98.861016 
L 88.752218 93.321529 
L 90.20336 90.264709 
L 91.654501 87.207888 
L 93.105643 84.151067 
L 94.556784 81.094246 
L 96.135762 77.768491 
L 97.71474 74.442735 
L 99.293717 71.11698 
L 100.872695 67.791224 
L 102.384929 64.605628 
L 103.897163 61.420031 
L 105.409396 58.234435 
L 106.92163 55.048839 
L 108.508682 51.705652 
L 110.095733 48.362466 
L 111.682785 45.019279 
L 113.269836 41.676093 
L 114.94274 38.151482 
L 116.615644 34.626871 
L 117.438101 32.913657 
" style="fill:none;stroke:#808080;stroke-linecap:square;stroke-width:0.984837;"/>
   </g>
   <g id="line2d_8">
    <path clip-path="url(#p8977f7027b)" d="M 48.125636 183.383373 
L 52.275061 180.141927 
L 56.424487 176.90048 
L 60.60836 173.634132 
L 64.792234 170.367784 
L 67.87887 167.957332 
L 70.965507 165.546879 
L 74.052143 163.136427 
L 77.138779 160.725974 
L 79.985353 158.50335 
L 82.831926 156.280725 
L 85.6785 154.0581 
L 88.525073 151.835475 
L 91.107632 149.81882 
L 93.69019 147.802165 
L 96.272749 145.78551 
L 98.855307 143.768854 
L 102.000882 141.312512 
L 105.146458 138.85617 
L 108.292033 136.399828 
L 111.437609 133.943486 
L 116.343824 130.112233 
L 121.250039 126.28098 
L 125.306884 123.112814 
L 129.363729 119.944649 
L 132.230756 117.707794 
L 135.097783 115.47094 
L 137.964811 113.234086 
L 140.831838 110.997232 
" style="fill:none;stroke:#808080;stroke-linecap:square;stroke-width:0.984837;"/>
   </g>
   <g id="line2d_9">
    <path clip-path="url(#p8977f7027b)" d="M 38.240003 178.067287 
L 33.865586 176.896211 
L 29.491169 175.725135 
L 25.116753 174.55406 
L 20.742336 173.382984 
" style="fill:none;stroke:#808080;stroke-linecap:square;stroke-width:0.984837;"/>
   </g>
   <g id="line2d_10">
    <path clip-path="url(#p8977f7027b)" d="M 148.540759 67.90079 
L 148.387355 69.323725 
L 148.233952 70.746661 
L 148.080549 72.169596 
L 147.927145 73.592531 
L 147.884085 74.78424 
L 147.841024 75.975948 
L 147.797964 77.167656 
L 147.754903 78.359365 
L 147.993082 79.478147 
L 148.231261 80.59693 
L 148.46944 81.715713 
L 148.707618 82.834496 
L 148.945797 83.953279 
L 149.183976 85.072062 
L 149.422155 86.190845 
L 149.660334 87.309628 
L 150.575371 88.832168 
L 151.921014 89.956287 
L 153.086341 90.589494 
L 154.251668 91.2227 
L 155.416995 91.855906 
L 156.582322 92.489112 
L 157.408547 93.236153 
L 158.234772 93.983194 
L 159.060997 94.730235 
L 159.887222 95.477276 
L 161.149973 96.383686 
L 162.412725 97.290096 
L 163.675476 98.196506 
L 164.938228 99.102915 
L 165.922162 99.808691 
L 166.906097 100.514467 
L 167.97992 101.49985 
L 169.053743 102.485233 
L 170.127566 103.470615 
L 171.20139 104.455998 
L 172.035688 105.007385 
L 172.869987 105.558773 
L 173.704286 106.11016 
L 174.538585 106.661548 
L 175.577421 107.22005 
L 176.616258 107.778552 
L 177.655094 108.337054 
L 178.693931 108.895556 
L 179.891553 109.382911 
L 181.089176 109.870267 
L 182.286798 110.357622 
L 183.48442 110.844978 
L 184.980776 111.300317 
L 186.477131 111.755656 
L 187.548263 112.488468 
L 188.619395 113.221279 
L 189.690527 113.954091 
L 190.761659 114.686903 
L 192.441021 115.512205 
L 194.120384 116.337508 
L 195.649035 116.558063 
L 197.177685 116.778618 
L 198.647128 117.2304 
L 200.11657 117.682182 
L 201.586012 118.133964 
L 203.055455 118.585746 
" style="fill:none;stroke:#008000;stroke-linecap:square;stroke-width:0.984837;"/>
   </g>
   <g id="line2d_11">
    <path clip-path="url(#p8977f7027b)" d="M 147.754903 78.359365 
L 146.35059 78.596639 
L 144.946277 78.833914 
L 143.541963 79.071188 
L 142.13765 79.308462 
L 140.799812 79.933843 
L 139.461973 80.559223 
L 138.124135 81.184603 
L 136.786296 81.809983 
L 135.659455 82.705543 
L 134.532613 83.601103 
L 133.405772 84.496662 
L 132.27893 85.392222 
L 131.152089 86.287782 
L 130.025247 87.183342 
L 128.898405 88.078902 
L 127.771564 88.974462 
L 127.168043 89.833381 
L 126.564522 90.692301 
L 125.961001 91.55122 
L 125.35748 92.410139 
L 124.753959 93.269059 
L 124.150438 94.127978 
L 123.546917 94.986897 
L 122.943396 95.845817 
L 121.853425 97.031833 
L 120.763454 98.21785 
L 119.673483 99.403866 
L 118.583512 100.589883 
L 117.711266 101.27218 
L 116.83902 101.954478 
L 115.966775 102.636775 
L 115.094529 103.319073 
L 113.75669 103.773701 
L 112.418852 104.228328 
L 111.081013 104.682956 
L 109.743175 105.137584 
L 108.230941 105.393357 
L 106.718707 105.649129 
L 105.206473 105.904902 
L 103.69424 106.160674 
L 102.022143 106.743367 
L 100.350047 107.326059 
L 98.677951 107.908751 
L 97.005855 108.491443 
L 95.493621 109.457971 
L 93.981387 110.4245 
L 92.469154 111.391029 
L 90.95692 112.357558 
L 89.735614 113.466024 
L 88.514308 114.574491 
L 87.293003 115.682958 
L 86.071697 116.791424 
L 85.371559 117.478702 
L 84.671421 118.16598 
L 83.971282 118.853257 
L 83.271144 119.540535 
L 82.571006 120.227813 
L 81.870868 120.915091 
L 81.17073 121.602368 
L 80.470592 122.289646 
L 79.438214 123.583094 
L 78.405837 124.876543 
L 77.373459 126.169991 
L 76.341082 127.463439 
L 75.759764 129.197286 
L 75.178446 130.931132 
L 74.990594 132.331656 
L 74.802743 133.73218 
L 74.614891 135.132704 
L 74.427039 136.533228 
" style="fill:none;stroke:#4169e1;stroke-linecap:square;stroke-width:0.984837;"/>
   </g>
   <g id="line2d_12">
    <path clip-path="url(#p8977f7027b)" d="M 140.831838 110.997232 
L 141.967561 111.846724 
L 143.103284 112.696216 
L 143.041384 114.183895 
L 142.979485 115.671574 
L 142.300742 116.656245 
L 141.622 117.640917 
L 140.799543 118.263806 
L 139.977086 118.886696 
L 139.154628 119.509586 
L 138.332171 120.132476 
L 137.026359 120.745761 
L 135.720547 121.359046 
L 134.414735 121.972332 
L 133.108923 122.585617 
L 132.183659 123.711158 
L 131.258394 124.8367 
L 130.33313 125.962242 
L 129.407866 127.087784 
L 128.804345 128.048087 
L 128.200824 129.008391 
L 127.597303 129.968694 
L 126.993782 130.928998 
L 126.390261 131.889301 
L 125.78674 132.849605 
L 125.183219 133.809908 
L 124.579698 134.770212 
L 123.983578 135.665594 
L 123.387458 136.560976 
L 122.791338 137.456358 
L 122.195218 138.35174 
L 121.075643 139.488665 
L 119.956068 140.62559 
L 118.836493 141.762516 
L 117.716918 142.899441 
L 116.728139 143.96522 
L 115.739361 145.030998 
L 114.750582 146.096777 
L 113.761804 147.162555 
L 112.365564 147.816394 
L 110.969325 148.470233 
L 109.624355 148.640807 
L 108.279384 148.811381 
L 106.934414 148.981956 
L 105.589444 149.15253 
L 104.244473 149.323105 
L 102.899503 149.493679 
L 101.554532 149.664253 
L 100.209562 149.834828 
L 98.944658 149.877516 
L 97.679753 149.920204 
L 96.414848 149.962892 
L 95.149944 150.00558 
L 94.059435 149.749807 
L 92.968925 149.494035 
L 91.878416 149.238262 
L 90.787907 148.982489 
L 89.697398 148.726717 
L 88.606889 148.470944 
L 87.516379 148.215172 
L 86.42587 147.959399 
L 85.495223 146.794015 
L 84.564576 145.628631 
L 84.070187 144.71902 
L 83.575798 143.809408 
L 83.081409 142.899797 
L 82.587019 141.990185 
L 81.801702 141.393264 
L 81.016385 140.796343 
L 80.231067 140.199421 
L 79.44575 139.6025 
L 78.191072 138.835182 
L 76.936394 138.067864 
L 75.681717 137.300546 
L 74.427039 136.533228 
" style="fill:none;stroke:#008000;stroke-linecap:square;stroke-width:0.984837;"/>
   </g>
   <g id="line2d_13">
    <path clip-path="url(#p8977f7027b)" d="M 41.977662 162.931524 
L 41.932717 163.950702 
L 41.887773 164.969879 
L 41.842828 165.989056 
L 41.797884 167.008234 
L 41.479235 168.073301 
L 41.160587 169.138368 
L 40.841939 170.203435 
L 40.52329 171.268502 
L 39.889223 172.788908 
L 39.255156 174.309315 
" style="fill:none;stroke:#008000;stroke-linecap:square;stroke-width:0.984837;"/>
   </g>
   <g id="line2d_14">
    <path clip-path="url(#p8977f7027b)" d="M 117.438101 32.913657 
L 117.124297 31.971674 
L 116.810493 31.029691 
L 115.635477 30.822654 
L 114.460462 30.615616 
L 113.285446 30.408579 
L 112.11043 30.201542 
L 110.365669 30.500003 
L 108.620908 30.798464 
L 106.876148 31.096924 
L 105.131387 31.395385 
L 103.822749 31.693846 
L 102.514111 31.992306 
L 101.205473 32.290767 
L 99.896835 32.589228 
L 98.588197 32.887688 
L 97.279559 33.186149 
L 95.970921 33.48461 
L 94.662283 33.78307 
L 93.586306 34.10999 
L 92.51033 34.436909 
L 91.434354 34.763829 
L 90.358378 35.090748 
L 89.282401 35.417667 
L 88.206425 35.744587 
L 87.130449 36.071506 
L 86.054473 36.398426 
L 84.774766 37.165743 
L 83.495059 37.933061 
L 82.215353 38.700379 
L 80.935646 39.467697 
L 80.31046 40.2496 
L 79.685274 41.031503 
L 79.060089 41.813406 
L 78.434903 42.595309 
L 77.809717 44.343563 
L 77.184531 46.091817 
L 76.559345 47.84007 
L 75.934159 49.588324 
L 75.308974 51.336578 
L 74.683788 53.084832 
L 74.058602 54.833086 
L 73.433416 56.58134 
L 73.038604 57.972971 
L 72.643793 59.364601 
L 72.248981 60.756232 
L 71.854169 62.147863 
L 71.072889 63.55479 
L 70.291609 64.961717 
L 69.510328 66.368645 
L 68.729048 67.775572 
L 67.680253 68.539332 
L 66.631459 69.303093 
L 65.582665 70.066853 
L 64.533871 70.830614 
L 63.053394 71.614651 
L 61.572917 72.398689 
L 60.092441 73.182726 
L 58.611964 73.966763 
L 56.966781 74.40894 
L 55.321597 74.851118 
L 53.676414 75.293295 
L 52.031231 75.735472 
L 50.715192 76.037134 
L 49.399153 76.338796 
L 48.083114 76.640459 
L 46.767075 76.942121 
L 45.132253 77.645585 
L 43.497431 78.349048 
L 41.862609 79.052512 
L 40.227787 79.755976 
L 38.592965 80.459439 
L 36.958143 81.162903 
L 35.323322 81.866367 
L 33.6885 82.56983 
L 32.105216 83.494382 
L 30.521932 84.418935 
L 28.938648 85.343487 
L 27.355365 86.268039 
L 26.758976 87.655045 
L 26.162587 89.042051 
L 25.566197 90.429058 
L 24.969808 91.816064 
L 24.918405 92.901408 
L 24.867001 93.986752 
L 24.815598 95.072095 
L 24.764194 96.157439 
L 24.712791 97.242783 
L 24.661387 98.328127 
L 24.609983 99.413471 
L 24.55858 100.498815 
L 24.969808 102.267524 
L 25.381037 104.036232 
L 25.792266 105.804941 
L 26.203494 107.573649 
L 27.087851 108.618795 
L 27.972207 109.663941 
L 28.856564 110.709087 
L 29.740921 111.754233 
L 31.036506 112.377479 
L 32.332091 113.000724 
L 33.627677 113.62397 
L 34.923262 114.247216 
L 36.198124 114.709314 
L 37.472986 115.171412 
L 38.747849 115.633511 
L 40.022711 116.095609 
" style="fill:none;stroke:#008000;stroke-linecap:square;stroke-width:0.984837;"/>
   </g>
   <g id="line2d_15">
    <path clip-path="url(#p8977f7027b)" d="M 140.831838 110.997232 
L 139.418374 110.1143 
L 138.004911 109.231369 
L 136.812402 109.342002 
L 135.619893 109.452635 
L 134.427384 109.563269 
L 133.234875 109.673902 
L 132.0935 111.080829 
L 130.952126 112.487756 
L 129.810751 113.894684 
L 128.669377 115.301611 
L 127.959954 116.176005 
L 127.250531 117.050398 
L 126.541108 117.924792 
L 125.831685 118.799186 
L 124.505419 119.673224 
L 123.179153 120.547262 
L 121.852887 121.4213 
L 120.526621 122.295338 
L 119.200355 122.667435 
L 117.874089 123.039533 
L 116.547823 123.411631 
L 115.221557 123.783728 
L 114.049368 123.652996 
L 112.877178 123.522264 
L 111.704988 123.391532 
L 110.532798 123.260799 
L 109.360609 123.130067 
L 108.188419 122.999335 
L 107.016229 122.868603 
L 105.844039 122.737871 
L 104.035764 122.294982 
L 102.227489 121.852094 
L 100.419213 121.409205 
L 98.610938 120.966316 
L 97.011507 120.909399 
L 95.412075 120.852481 
L 93.812644 120.795564 
L 92.213212 120.738647 
L 91.369763 121.278651 
L 90.526314 121.818655 
L 89.682865 122.358658 
L 88.839416 122.898662 
L 87.676242 123.950567 
L 86.513068 125.002472 
L 85.349894 126.054377 
L 84.18672 127.106282 
L 83.525067 127.823975 
L 82.863414 128.541668 
L 82.201762 129.259361 
L 81.540109 129.977054 
L 80.878456 130.694747 
L 80.216803 131.41244 
L 79.555151 132.130133 
L 78.893498 132.847826 
L 77.776883 133.769177 
L 76.660268 134.690527 
L 75.543654 135.611878 
L 74.427039 136.533228 
L 74.003969 138.041006 
L 73.580899 139.548784 
L 73.157828 141.056562 
L 72.734758 142.56434 
L 72.311688 144.072118 
L 71.888618 145.579895 
L 71.465548 147.087673 
L 71.042477 148.595451 
L 70.620753 150.016608 
L 70.199028 151.437764 
L 69.777304 152.858921 
L 69.355579 154.280078 
L 69.079184 155.274709 
L 68.802789 156.269341 
L 68.526394 157.263973 
L 68.249999 158.258605 
L 67.595747 159.466677 
L 66.941495 160.674749 
L 66.287244 161.882821 
L 65.632992 163.090893 
L 64.222489 164.227818 
L 62.811986 165.364744 
L 61.401482 166.501669 
L 59.990979 167.638594 
L 58.944069 168.704373 
L 57.897158 169.770151 
L 56.850248 170.83593 
L 55.803338 171.901708 
L 54.93486 172.583294 
L 54.066381 173.26488 
L 53.197903 173.946466 
L 52.329425 174.628052 
L 51.460947 175.309638 
L 50.592469 175.991224 
L 49.723991 176.67281 
L 48.855513 177.354396 
L 48.673044 178.861641 
L 48.490574 180.368885 
L 48.308105 181.876129 
L 48.125636 183.383373 
" style="fill:none;stroke:#008000;stroke-linecap:square;stroke-width:0.984837;"/>
   </g>
   <g id="line2d_16">
    <path clip-path="url(#p8977f7027b)" d="M 26.203494 107.573649 
L 26.056012 108.548538 
L 25.908529 109.523426 
L 25.761047 110.498315 
L 25.613564 111.473203 
L 25.466082 112.448092 
L 25.318599 113.422981 
L 25.171117 114.397869 
L 25.023634 115.372758 
L 24.485646 116.310828 
L 23.947658 117.248898 
L 23.40967 118.186968 
L 22.871682 119.125038 
L 22.333693 120.063108 
L 21.795705 121.001178 
L 21.257717 121.939248 
L 20.719729 122.877318 
L 19.992678 123.602126 
L 19.265627 124.326934 
L 18.538576 125.051741 
L 17.811525 125.776549 
L 17.084474 126.501357 
L 16.357423 127.226164 
L 15.630372 127.950972 
L 14.903321 128.67578 
L 14.278135 129.656538 
L 13.652949 130.637296 
L 13.027764 131.618054 
L 12.402578 132.598812 
L 11.777392 133.579571 
L 11.152206 134.560329 
L 10.52702 135.541087 
L 9.901834 136.521845 
L 9.843703 137.829167 
L 9.785571 139.136489 
L 9.727439 140.44381 
L 9.669307 141.751132 
L 10.090897 142.646514 
L 10.512487 143.541896 
L 10.934077 144.437278 
L 11.355667 145.33266 
L 11.777257 146.228042 
L 12.198847 147.123424 
L 12.620437 148.018806 
L 13.042027 148.914189 
L 13.899942 149.752653 
L 14.757857 150.591118 
L 15.615772 151.429582 
L 16.473687 152.268047 
L 17.331601 153.106512 
L 18.189516 153.944976 
L 19.047431 154.783441 
L 19.905346 155.621906 
L 20.763261 156.46037 
L 21.621175 157.298835 
L 22.47909 158.137299 
L 23.337005 158.975764 
L 24.19492 159.814229 
L 25.052835 160.652693 
L 25.910749 161.491158 
L 26.768664 162.329623 
L 27.895506 163.274807 
L 29.022347 164.219992 
L 30.149189 165.165177 
L 31.276031 166.110362 
L 32.402872 167.055546 
L 33.529714 168.000731 
L 34.656555 168.945916 
L 35.783397 169.891101 
L 36.651337 170.995654 
L 37.519277 172.100208 
L 38.387216 173.204761 
L 39.255156 174.309315 
L 40.011946 175.272642 
L 41.122371 176.498501 
L 42.232795 177.72436 
" style="fill:none;stroke:#008000;stroke-linecap:square;stroke-width:0.984837;"/>
   </g>
   <g id="line2d_17">
    <path clip-path="url(#p8977f7027b)" d="M 105.131387 31.395385 
L 104.590034 33.107532 
L 104.048682 34.819679 
L 103.50733 36.531826 
L 102.965978 38.243973 
L 102.424625 39.95612 
L 101.883273 41.668266 
L 101.341921 43.380413 
L 100.800569 45.09256 
L 100.214406 46.198003 
L 99.628244 47.303446 
L 99.042082 48.408889 
L 98.45592 49.514332 
L 97.869758 50.619775 
L 97.283596 51.725217 
L 96.697433 52.83066 
L 96.111271 53.936103 
L 95.257999 55.272773 
L 94.404727 56.609443 
L 93.551454 57.946113 
L 92.698182 59.282782 
L 91.84491 60.619452 
L 90.991637 61.956122 
L 90.138365 63.292792 
L 89.285093 64.629462 
L 88.493316 66.277755 
L 87.70154 67.926047 
L 86.909763 69.57434 
L 86.117987 71.222633 
L 85.32621 72.870925 
L 84.534434 74.519218 
L 83.742658 76.167511 
L 82.950881 77.815803 
L 82.436845 79.021741 
L 81.92281 80.227679 
L 81.408774 81.433616 
L 80.894738 82.639554 
L 80.380703 83.845492 
L 79.866667 85.051429 
L 79.352631 86.257367 
L 78.838596 87.463305 
L 77.913197 89.08136 
L 76.987798 90.699415 
L 76.062399 92.317471 
L 75.137 93.935526 
L 74.211602 95.553581 
L 73.286203 97.171636 
L 72.360804 98.789692 
L 71.435405 100.407747 
L 70.510141 101.985604 
L 69.584877 103.563462 
L 68.659612 105.141319 
L 67.734348 106.719177 
L 66.809084 108.297034 
L 65.88382 109.874891 
L 64.958556 111.452749 
L 64.033291 113.030606 
L 62.809698 114.427573 
L 61.586105 115.82454 
L 60.362511 117.221506 
L 59.138918 118.618473 
L 57.915325 120.01544 
L 56.691731 121.412407 
L 55.468138 122.809373 
L 54.244545 124.20634 
L 53.31928 125.854455 
L 52.394016 127.50257 
L 51.468752 129.150684 
L 50.543488 130.798799 
L 50.019091 132.436776 
L 49.494693 134.074752 
L 48.970296 135.712728 
L 48.445899 137.350705 
L 47.921502 138.988681 
L 47.397105 140.626658 
L 46.872708 142.264634 
L 46.348311 143.90261 
L 45.998712 145.349736 
L 45.649114 146.796861 
L 45.299516 148.243986 
L 44.949918 149.691111 
L 44.60032 151.138236 
L 44.250722 152.585362 
L 43.901124 154.032487 
L 43.551526 155.479612 
L 43.15806 157.34259 
L 42.764594 159.205568 
L 42.371128 161.068546 
L 41.977662 162.931524 
" style="fill:none;stroke:#008000;stroke-linecap:square;stroke-width:0.984837;"/>
   </g>
   <g id="line2d_18">
    <path clip-path="url(#p8977f7027b)" d="M 20.742336 173.382984 
L 20.938261 174.562597 
L 21.915198 175.356595 
L 22.892135 176.150593 
L 24.434242 176.913998 
L 25.97635 177.677403 
L 27.199808 177.998986 
L 28.423267 178.320569 
L 29.99121 178.410926 
L 31.559154 178.501282 
L 33.127097 178.591639 
L 34.695041 178.681995 
L 36.467522 178.374641 
L 38.240003 178.067287 
" style="fill:none;stroke:#008000;stroke-linecap:square;stroke-width:0.984837;"/>
   </g>
   <g id="line2d_19">
    <path clip-path="url(#p8977f7027b)" d="M 117.438101 32.913657 
L 118.39889 32.645434 
L 119.359679 32.37721 
L 120.284943 32.799822 
L 121.210208 33.222434 
L 121.693563 34.252461 
L 122.176918 35.282489 
L 122.660273 36.312516 
L 123.143628 37.342543 
L 123.626983 38.37257 
L 124.110338 39.402598 
L 124.593693 40.432625 
L 125.077048 41.462652 
L 126.04322 42.889856 
L 127.009391 44.31706 
L 128.479641 45.302087 
L 129.949891 46.287114 
L 131.420141 47.272141 
L 132.89039 48.257168 
L 133.949412 49.322591 
L 135.008433 50.388014 
L 136.067454 51.453437 
L 137.126475 52.51886 
L 137.902777 53.45853 
L 138.679078 54.398201 
L 139.45538 55.337872 
L 140.231681 56.277543 
L 141.007983 57.217214 
L 141.784284 58.156885 
L 142.560586 59.096556 
L 143.336887 60.036227 
L 143.987371 61.019297 
L 144.637855 62.002368 
L 145.288339 62.985438 
L 145.938823 63.968508 
L 146.589307 64.951579 
L 147.239791 65.934649 
L 147.890275 66.91772 
L 148.540759 67.90079 
" style="fill:none;stroke:#008000;stroke-linecap:square;stroke-width:0.984837;"/>
   </g>
   <g id="line2d_20">
    <path clip-path="url(#p8977f7027b)" d="M 164.938228 99.102915 
L 163.974546 100.433627 
L 163.010863 101.764338 
L 162.047181 103.095049 
L 161.083499 104.425761 
L 160.119816 105.756472 
L 159.156134 107.087183 
L 158.192452 108.417895 
L 157.228769 109.748606 
L 156.265087 111.079317 
L 155.301404 112.410028 
L 154.337722 113.74074 
L 153.37404 115.071451 
L 152.410357 116.402162 
L 151.446675 117.732874 
L 150.482993 119.063585 
L 149.51931 120.394296 
L 148.642355 121.501829 
L 147.765399 122.609362 
L 146.888443 123.716895 
L 146.011488 124.824427 
L 145.134532 125.93196 
L 144.257576 127.039493 
L 143.380621 128.147026 
L 142.503665 129.254559 
L 141.626709 130.362091 
L 140.749754 131.469624 
L 139.872798 132.577157 
L 138.995843 133.68469 
L 138.118887 134.792223 
L 137.241931 135.899755 
L 136.364976 137.007288 
L 135.48802 138.114821 
L 134.611064 139.222354 
L 133.734109 140.329887 
L 132.857153 141.437419 
L 131.980197 142.544952 
L 131.103242 143.652485 
L 130.226286 144.760018 
L 129.34933 145.867551 
L 128.472375 146.975083 
L 127.595419 148.082616 
L 126.718463 149.190149 
L 125.841508 150.297682 
L 124.964552 151.405215 
L 124.087596 152.512747 
L 123.210641 153.62028 
L 122.333685 154.727813 
L 121.456729 155.835346 
L 120.396497 157.191314 
L 119.336265 158.547283 
L 118.276033 159.903251 
L 117.2158 161.259219 
L 116.155568 162.615188 
L 115.095336 163.971156 
L 114.035104 165.327125 
L 112.974871 166.683093 
L 111.914639 168.039062 
L 110.854407 169.39503 
L 109.794175 170.750998 
L 108.733942 172.106967 
L 107.67371 173.462935 
L 106.613478 174.818904 
L 105.553246 176.174872 
L 104.493013 177.53084 
L 103.444354 178.616184 
L 102.395694 179.701528 
L 101.347034 180.786872 
L 100.298375 181.872216 
L 99.249715 182.95756 
L 98.201055 184.042904 
L 97.152395 185.128248 
L 96.103736 186.213592 
L 94.664167 187.258738 
L 93.224598 188.303884 
L 91.785029 189.349029 
L 90.345459 190.394175 
L 88.766751 190.4205 
L 87.188042 190.446824 
L 85.609334 190.473148 
L 84.030625 190.499473 
L 82.467526 189.87427 
L 80.904427 189.249068 
L 79.341328 188.623866 
L 77.778229 187.998664 
L 76.21513 187.373462 
L 74.652031 186.74826 
L 73.088932 186.123057 
L 71.525832 185.497855 
L 70.529787 185.114196 
L 69.533742 184.730537 
L 68.537697 184.346878 
L 67.541652 183.963219 
L 66.545607 183.57956 
L 65.549562 183.195902 
L 64.553517 182.812243 
L 63.557472 182.428584 
L 62.132436 182.243602 
L 60.7074 182.05862 
L 59.282364 181.873639 
L 57.857327 181.688657 
L 56.640866 181.900497 
L 55.424405 182.112336 
L 54.207943 182.324176 
L 52.991482 182.536015 
L 51.77502 182.747855 
L 50.558559 182.959694 
L 49.342097 183.171534 
L 48.125636 183.383373 
" style="fill:none;stroke:#008000;stroke-linecap:square;stroke-width:0.984837;"/>
   </g>
   <g id="line2d_21">
    <path clip-path="url(#p8977f7027b)" d="M 94.662283 33.78307 
L 93.510412 34.915015 
L 92.358542 36.046961 
L 91.660691 36.956572 
L 90.962841 37.866183 
L 90.26499 38.775795 
L 89.567139 39.685406 
L 89.072481 41.163124 
L 88.577823 42.640843 
L 87.647176 44.147731 
L 86.716529 45.65462 
L 85.960816 46.734628 
L 85.422828 48.127681 
L 84.88484 49.520735 
L 84.346851 50.913789 
L 83.808863 52.306842 
L 83.6416 53.337225 
L 83.474336 54.367608 
L 83.307073 55.397991 
L 83.139809 56.428374 
L 82.972546 57.458757 
L 82.805283 58.48914 
L 82.638019 59.519523 
L 82.470756 60.549906 
L 81.918504 61.772208 
L 81.366252 62.994509 
L 79.911881 64.216811 
L 78.45751 65.439112 
L 77.032743 66.007575 
L 75.607976 66.576037 
L 75.637041 68.139843 
L 75.666107 69.703649 
L 76.335161 71.266744 
L 77.004215 72.829838 
L 76.102634 74.365185 
L 75.201053 75.900532 
L 74.372137 76.824373 
L 73.543221 77.748214 
L 72.714304 78.672055 
L 71.885388 79.595895 
L 71.042208 80.192817 
L 70.199028 80.789738 
L 69.355848 81.386659 
L 68.512668 81.983581 
L 68.541734 83.433552 
L 68.5708 84.883523 
L 68.5708 86.674287 
L 68.5708 88.465051 
L 67.87268 90.113522 
L 67.174561 91.761992 
L 67.029231 93.012752 
L 66.883902 94.263512 
L 66.418578 95.34352 
L 65.953255 96.423528 
L 65.487932 97.503536 
L 65.022608 98.583544 
L 64.746213 99.578532 
L 64.469818 100.573519 
L 64.193423 101.568507 
L 63.917028 102.563494 
L 63.728099 103.615399 
L 63.539171 104.667304 
L 63.350243 105.719209 
L 63.161315 106.771114 
L 63.379309 108.335987 
L 63.597303 109.90086 
L 63.815297 111.465733 
L 64.033291 113.030606 
L 63.640902 114.308046 
L 63.248512 115.585486 
L 62.856123 116.862927 
L 62.463733 118.140367 
L 62.507332 119.22073 
L 62.550931 120.301094 
L 62.59453 121.381458 
L 62.638128 122.461821 
L 63.491535 123.791199 
L 64.344942 125.120576 
L 65.198349 126.449953 
L 66.051756 127.779331 
L 66.662409 128.575107 
L 67.273062 129.370884 
L 67.883715 130.16666 
L 68.494367 130.962437 
L 69.483146 131.900507 
L 70.471925 132.838577 
L 71.460703 133.776647 
L 72.449482 134.714717 
L 73.43826 135.623973 
L 74.427039 136.533228 
" style="fill:none;stroke:#4169e1;stroke-linecap:square;stroke-width:0.984837;"/>
   </g>
   <g id="line2d_22">
    <path clip-path="url(#p8977f7027b)" d="M 46.767075 76.942121 
L 45.872222 78.32059 
L 44.977369 79.699058 
L 44.082517 81.077527 
L 43.187664 82.455995 
L 42.736873 83.386951 
L 42.286083 84.317906 
L 41.835292 85.248862 
L 41.384502 86.179817 
L 40.933712 87.110772 
L 40.482921 88.041728 
L 40.032131 88.972683 
L 39.58134 89.903639 
L 39.472343 90.905563 
L 39.363346 91.907487 
L 39.254349 92.909412 
L 39.145352 93.911336 
L 39.036355 94.91326 
L 38.927358 95.915185 
L 38.81836 96.917109 
L 38.709363 97.919033 
L 38.811094 99.439795 
L 38.912825 100.960557 
L 39.014555 102.48132 
L 39.116286 104.002082 
L 39.218017 105.522844 
L 39.319747 107.043606 
L 39.421478 108.564368 
L 39.523208 110.08513 
L 39.648084 111.58775 
L 39.77296 113.090369 
L 39.897835 114.592989 
L 40.022711 116.095609 
L 40.047606 117.383721 
L 40.0725 118.671833 
L 40.097394 119.959945 
L 40.122289 121.248057 
L 40.147183 122.53617 
L 40.172078 123.824282 
L 40.196972 125.112394 
L 40.221866 126.400506 
L 40.199932 127.395494 
L 40.177998 128.390481 
L 40.156064 129.385469 
L 40.13413 130.380456 
L 40.112196 131.375444 
L 40.090262 132.370431 
L 40.068328 133.365419 
L 40.046394 134.360406 
L 39.755736 135.62504 
L 39.465077 136.889674 
L 39.174418 138.154308 
L 38.883759 139.418941 
L 38.854693 140.598555 
L 38.825627 141.778168 
L 38.796561 142.957781 
L 38.767495 144.137395 
L 38.927358 145.69373 
L 39.08722 147.250066 
L 39.247082 148.806401 
L 39.406945 150.362737 
L 39.566807 151.919072 
L 39.72667 153.475408 
L 39.886532 155.031743 
L 40.046394 156.588079 
L 40.529211 158.17394 
L 41.012028 159.759801 
L 41.494845 161.345663 
L 41.977662 162.931524 
L 42.800119 164.097264 
L 43.622576 165.263004 
L 44.445033 166.428743 
L 45.26749 167.594483 
L 45.812206 168.77801 
L 46.356923 169.961536 
L 46.901639 171.145062 
L 47.446355 172.328589 
L 47.798645 173.585041 
L 48.150934 174.841493 
L 48.503223 176.097945 
L 48.855513 177.354396 
" style="fill:none;stroke:#008000;stroke-linecap:square;stroke-width:0.984837;"/>
   </g>
   <g id="text_1">
    <g id="patch_2">
     <path d="M 54.019853 167.222662 
L 60.028795 157.648723 
L 58.355454 156.598474 
L 52.346511 166.172414 
z
" style="fill:#ffffff;"/>
    </g>
    <!-- Triple Chair -->
    <g style="fill:#808080;" transform="translate(53.661249 166.973976)rotate(-57.886168)scale(0.02 -0.02)">
     <defs>
      <path d="M -19 4666 
L 3928 4666 
L 3928 4134 
L 2272 4134 
L 2272 0 
L 1638 0 
L 1638 4134 
L -19 4134 
L -19 4666 
z
" id="DejaVuSans-54" transform="scale(0.015625)"/>
      <path d="M 2631 2963 
Q 2534 3019 2420 3045 
Q 2306 3072 2169 3072 
Q 1681 3072 1420 2755 
Q 1159 2438 1159 1844 
L 1159 0 
L 581 0 
L 581 3500 
L 1159 3500 
L 1159 2956 
Q 1341 3275 1631 3429 
Q 1922 3584 2338 3584 
Q 2397 3584 2469 3576 
Q 2541 3569 2628 3553 
L 2631 2963 
z
" id="DejaVuSans-72" transform="scale(0.015625)"/>
      <path d="M 603 3500 
L 1178 3500 
L 1178 0 
L 603 0 
L 603 3500 
z
M 603 4863 
L 1178 4863 
L 1178 4134 
L 603 4134 
L 603 4863 
z
" id="DejaVuSans-69" transform="scale(0.015625)"/>
      <path d="M 1159 525 
L 1159 -1331 
L 581 -1331 
L 581 3500 
L 1159 3500 
L 1159 2969 
Q 1341 3281 1617 3432 
Q 1894 3584 2278 3584 
Q 2916 3584 3314 3078 
Q 3713 2572 3713 1747 
Q 3713 922 3314 415 
Q 2916 -91 2278 -91 
Q 1894 -91 1617 61 
Q 1341 213 1159 525 
z
M 3116 1747 
Q 3116 2381 2855 2742 
Q 2594 3103 2138 3103 
Q 1681 3103 1420 2742 
Q 1159 2381 1159 1747 
Q 1159 1113 1420 752 
Q 1681 391 2138 391 
Q 2594 391 2855 752 
Q 3116 1113 3116 1747 
z
" id="DejaVuSans-70" transform="scale(0.015625)"/>
      <path d="M 603 4863 
L 1178 4863 
L 1178 0 
L 603 0 
L 603 4863 
z
" id="DejaVuSans-6c" transform="scale(0.015625)"/>
      <path d="M 3597 1894 
L 3597 1613 
L 953 1613 
Q 991 1019 1311 708 
Q 1631 397 2203 397 
Q 2534 397 2845 478 
Q 3156 559 3463 722 
L 3463 178 
Q 3153 47 2828 -22 
Q 2503 -91 2169 -91 
Q 1331 -91 842 396 
Q 353 884 353 1716 
Q 353 2575 817 3079 
Q 1281 3584 2069 3584 
Q 2775 3584 3186 3129 
Q 3597 2675 3597 1894 
z
M 3022 2063 
Q 3016 2534 2758 2815 
Q 2500 3097 2075 3097 
Q 1594 3097 1305 2825 
Q 1016 2553 972 2059 
L 3022 2063 
z
" id="DejaVuSans-65" transform="scale(0.015625)"/>
      <path id="DejaVuSans-20" transform="scale(0.015625)"/>
      <path d="M 4122 4306 
L 4122 3641 
Q 3803 3938 3442 4084 
Q 3081 4231 2675 4231 
Q 1875 4231 1450 3742 
Q 1025 3253 1025 2328 
Q 1025 1406 1450 917 
Q 1875 428 2675 428 
Q 3081 428 3442 575 
Q 3803 722 4122 1019 
L 4122 359 
Q 3791 134 3420 21 
Q 3050 -91 2638 -91 
Q 1578 -91 968 557 
Q 359 1206 359 2328 
Q 359 3453 968 4101 
Q 1578 4750 2638 4750 
Q 3056 4750 3426 4639 
Q 3797 4528 4122 4306 
z
" id="DejaVuSans-43" transform="scale(0.015625)"/>
      <path d="M 3513 2113 
L 3513 0 
L 2938 0 
L 2938 2094 
Q 2938 2591 2744 2837 
Q 2550 3084 2163 3084 
Q 1697 3084 1428 2787 
Q 1159 2491 1159 1978 
L 1159 0 
L 581 0 
L 581 4863 
L 1159 4863 
L 1159 2956 
Q 1366 3272 1645 3428 
Q 1925 3584 2291 3584 
Q 2894 3584 3203 3211 
Q 3513 2838 3513 2113 
z
" id="DejaVuSans-68" transform="scale(0.015625)"/>
      <path d="M 2194 1759 
Q 1497 1759 1228 1600 
Q 959 1441 959 1056 
Q 959 750 1161 570 
Q 1363 391 1709 391 
Q 2188 391 2477 730 
Q 2766 1069 2766 1631 
L 2766 1759 
L 2194 1759 
z
M 3341 1997 
L 3341 0 
L 2766 0 
L 2766 531 
Q 2569 213 2275 61 
Q 1981 -91 1556 -91 
Q 1019 -91 701 211 
Q 384 513 384 1019 
Q 384 1609 779 1909 
Q 1175 2209 1959 2209 
L 2766 2209 
L 2766 2266 
Q 2766 2663 2505 2880 
Q 2244 3097 1772 3097 
Q 1472 3097 1187 3025 
Q 903 2953 641 2809 
L 641 3341 
Q 956 3463 1253 3523 
Q 1550 3584 1831 3584 
Q 2591 3584 2966 3190 
Q 3341 2797 3341 1997 
z
" id="DejaVuSans-61" transform="scale(0.015625)"/>
     </defs>
     <use xlink:href="#DejaVuSans-54"/>
     <use x="46.333984" xlink:href="#DejaVuSans-72"/>
     <use x="87.447266" xlink:href="#DejaVuSans-69"/>
     <use x="115.230469" xlink:href="#DejaVuSans-70"/>
     <use x="178.707031" xlink:href="#DejaVuSans-6c"/>
     <use x="206.490234" xlink:href="#DejaVuSans-65"/>
     <use x="268.013672" xlink:href="#DejaVuSans-20"/>
     <use x="299.800781" xlink:href="#DejaVuSans-43"/>
     <use x="369.625" xlink:href="#DejaVuSans-68"/>
     <use x="433.003906" xlink:href="#DejaVuSans-61"/>
     <use x="494.283203" xlink:href="#DejaVuSans-69"/>
     <use x="522.066406" xlink:href="#DejaVuSans-72"/>
    </g>
   </g>
   <g id="text_2">
    <g id="patch_3">
     <path d="M 55.50097 177.797977 
L 66.720462 171.17136 
L 65.71575 169.470288 
L 54.496258 176.096904 
z
" style="fill:#ffffff;"/>
    </g>
    <!-- Double Chair -->
    <g style="fill:#808080;" transform="translate(55.296493 177.41245)rotate(-30.567554)scale(0.02 -0.02)">
     <defs>
      <path d="M 1259 4147 
L 1259 519 
L 2022 519 
Q 2988 519 3436 956 
Q 3884 1394 3884 2338 
Q 3884 3275 3436 3711 
Q 2988 4147 2022 4147 
L 1259 4147 
z
M 628 4666 
L 1925 4666 
Q 3281 4666 3915 4102 
Q 4550 3538 4550 2338 
Q 4550 1131 3912 565 
Q 3275 0 1925 0 
L 628 0 
L 628 4666 
z
" id="DejaVuSans-44" transform="scale(0.015625)"/>
      <path d="M 1959 3097 
Q 1497 3097 1228 2736 
Q 959 2375 959 1747 
Q 959 1119 1226 758 
Q 1494 397 1959 397 
Q 2419 397 2687 759 
Q 2956 1122 2956 1747 
Q 2956 2369 2687 2733 
Q 2419 3097 1959 3097 
z
M 1959 3584 
Q 2709 3584 3137 3096 
Q 3566 2609 3566 1747 
Q 3566 888 3137 398 
Q 2709 -91 1959 -91 
Q 1206 -91 779 398 
Q 353 888 353 1747 
Q 353 2609 779 3096 
Q 1206 3584 1959 3584 
z
" id="DejaVuSans-6f" transform="scale(0.015625)"/>
      <path d="M 544 1381 
L 544 3500 
L 1119 3500 
L 1119 1403 
Q 1119 906 1312 657 
Q 1506 409 1894 409 
Q 2359 409 2629 706 
Q 2900 1003 2900 1516 
L 2900 3500 
L 3475 3500 
L 3475 0 
L 2900 0 
L 2900 538 
Q 2691 219 2414 64 
Q 2138 -91 1772 -91 
Q 1169 -91 856 284 
Q 544 659 544 1381 
z
M 1991 3584 
L 1991 3584 
z
" id="DejaVuSans-75" transform="scale(0.015625)"/>
      <path d="M 3116 1747 
Q 3116 2381 2855 2742 
Q 2594 3103 2138 3103 
Q 1681 3103 1420 2742 
Q 1159 2381 1159 1747 
Q 1159 1113 1420 752 
Q 1681 391 2138 391 
Q 2594 391 2855 752 
Q 3116 1113 3116 1747 
z
M 1159 2969 
Q 1341 3281 1617 3432 
Q 1894 3584 2278 3584 
Q 2916 3584 3314 3078 
Q 3713 2572 3713 1747 
Q 3713 922 3314 415 
Q 2916 -91 2278 -91 
Q 1894 -91 1617 61 
Q 1341 213 1159 525 
L 1159 0 
L 581 0 
L 581 4863 
L 1159 4863 
L 1159 2969 
z
" id="DejaVuSans-62" transform="scale(0.015625)"/>
     </defs>
     <use xlink:href="#DejaVuSans-44"/>
     <use x="77.001953" xlink:href="#DejaVuSans-6f"/>
     <use x="138.183594" xlink:href="#DejaVuSans-75"/>
     <use x="201.5625" xlink:href="#DejaVuSans-62"/>
     <use x="265.039062" xlink:href="#DejaVuSans-6c"/>
     <use x="292.822266" xlink:href="#DejaVuSans-65"/>
     <use x="354.345703" xlink:href="#DejaVuSans-20"/>
     <use x="386.132812" xlink:href="#DejaVuSans-43"/>
     <use x="455.957031" xlink:href="#DejaVuSans-68"/>
     <use x="519.335938" xlink:href="#DejaVuSans-61"/>
     <use x="580.615234" xlink:href="#DejaVuSans-69"/>
     <use x="608.398438" xlink:href="#DejaVuSans-72"/>
    </g>
   </g>
   <g id="text_3">
    <g id="patch_4">
     <path d="M 22.786914 175.37516 
L 35.803255 178.011421 
L 36.195425 176.075111 
L 23.179084 173.43885 
z
" style="fill:#ffffff;"/>
    </g>
    <!-- Magic Carpet -->
    <g style="fill:#808080;" transform="translate(22.893052 174.951868)rotate(-348.550491)scale(0.02 -0.02)">
     <defs>
      <path d="M 628 4666 
L 1569 4666 
L 2759 1491 
L 3956 4666 
L 4897 4666 
L 4897 0 
L 4281 0 
L 4281 4097 
L 3078 897 
L 2444 897 
L 1241 4097 
L 1241 0 
L 628 0 
L 628 4666 
z
" id="DejaVuSans-4d" transform="scale(0.015625)"/>
      <path d="M 2906 1791 
Q 2906 2416 2648 2759 
Q 2391 3103 1925 3103 
Q 1463 3103 1205 2759 
Q 947 2416 947 1791 
Q 947 1169 1205 825 
Q 1463 481 1925 481 
Q 2391 481 2648 825 
Q 2906 1169 2906 1791 
z
M 3481 434 
Q 3481 -459 3084 -895 
Q 2688 -1331 1869 -1331 
Q 1566 -1331 1297 -1286 
Q 1028 -1241 775 -1147 
L 775 -588 
Q 1028 -725 1275 -790 
Q 1522 -856 1778 -856 
Q 2344 -856 2625 -561 
Q 2906 -266 2906 331 
L 2906 616 
Q 2728 306 2450 153 
Q 2172 0 1784 0 
Q 1141 0 747 490 
Q 353 981 353 1791 
Q 353 2603 747 3093 
Q 1141 3584 1784 3584 
Q 2172 3584 2450 3431 
Q 2728 3278 2906 2969 
L 2906 3500 
L 3481 3500 
L 3481 434 
z
" id="DejaVuSans-67" transform="scale(0.015625)"/>
      <path d="M 3122 3366 
L 3122 2828 
Q 2878 2963 2633 3030 
Q 2388 3097 2138 3097 
Q 1578 3097 1268 2742 
Q 959 2388 959 1747 
Q 959 1106 1268 751 
Q 1578 397 2138 397 
Q 2388 397 2633 464 
Q 2878 531 3122 666 
L 3122 134 
Q 2881 22 2623 -34 
Q 2366 -91 2075 -91 
Q 1284 -91 818 406 
Q 353 903 353 1747 
Q 353 2603 823 3093 
Q 1294 3584 2113 3584 
Q 2378 3584 2631 3529 
Q 2884 3475 3122 3366 
z
" id="DejaVuSans-63" transform="scale(0.015625)"/>
      <path d="M 1172 4494 
L 1172 3500 
L 2356 3500 
L 2356 3053 
L 1172 3053 
L 1172 1153 
Q 1172 725 1289 603 
Q 1406 481 1766 481 
L 2356 481 
L 2356 0 
L 1766 0 
Q 1100 0 847 248 
Q 594 497 594 1153 
L 594 3053 
L 172 3053 
L 172 3500 
L 594 3500 
L 594 4494 
L 1172 4494 
z
" id="DejaVuSans-74" transform="scale(0.015625)"/>
     </defs>
     <use xlink:href="#DejaVuSans-4d"/>
     <use x="86.279297" xlink:href="#DejaVuSans-61"/>
     <use x="147.558594" xlink:href="#DejaVuSans-67"/>
     <use x="211.035156" xlink:href="#DejaVuSans-69"/>
     <use x="238.818359" xlink:href="#DejaVuSans-63"/>
     <use x="293.798828" xlink:href="#DejaVuSans-20"/>
     <use x="325.585938" xlink:href="#DejaVuSans-43"/>
     <use x="395.410156" xlink:href="#DejaVuSans-61"/>
     <use x="456.689453" xlink:href="#DejaVuSans-72"/>
     <use x="497.802734" xlink:href="#DejaVuSans-70"/>
     <use x="561.279297" xlink:href="#DejaVuSans-65"/>
     <use x="622.802734" xlink:href="#DejaVuSans-74"/>
    </g>
   </g>
   <g id="text_4">
    <g id="patch_5">
     <path d="M 156.155776 95.016318 
L 167.726858 101.300017 
L 168.669674 99.563874 
L 157.098592 93.280175 
z
" style="fill:#ffffff;"/>
    </g>
    <!-- Meadow 8.2° -->
    <g style="fill:#008000;" transform="translate(156.381391 94.642768)rotate(-331.495739)scale(0.02 -0.02)">
     <defs>
      <path d="M 2906 2969 
L 2906 4863 
L 3481 4863 
L 3481 0 
L 2906 0 
L 2906 525 
Q 2725 213 2448 61 
Q 2172 -91 1784 -91 
Q 1150 -91 751 415 
Q 353 922 353 1747 
Q 353 2572 751 3078 
Q 1150 3584 1784 3584 
Q 2172 3584 2448 3432 
Q 2725 3281 2906 2969 
z
M 947 1747 
Q 947 1113 1208 752 
Q 1469 391 1925 391 
Q 2381 391 2643 752 
Q 2906 1113 2906 1747 
Q 2906 2381 2643 2742 
Q 2381 3103 1925 3103 
Q 1469 3103 1208 2742 
Q 947 2381 947 1747 
z
" id="DejaVuSans-64" transform="scale(0.015625)"/>
      <path d="M 269 3500 
L 844 3500 
L 1563 769 
L 2278 3500 
L 2956 3500 
L 3675 769 
L 4391 3500 
L 4966 3500 
L 4050 0 
L 3372 0 
L 2619 2869 
L 1863 0 
L 1184 0 
L 269 3500 
z
" id="DejaVuSans-77" transform="scale(0.015625)"/>
      <path d="M 2034 2216 
Q 1584 2216 1326 1975 
Q 1069 1734 1069 1313 
Q 1069 891 1326 650 
Q 1584 409 2034 409 
Q 2484 409 2743 651 
Q 3003 894 3003 1313 
Q 3003 1734 2745 1975 
Q 2488 2216 2034 2216 
z
M 1403 2484 
Q 997 2584 770 2862 
Q 544 3141 544 3541 
Q 544 4100 942 4425 
Q 1341 4750 2034 4750 
Q 2731 4750 3128 4425 
Q 3525 4100 3525 3541 
Q 3525 3141 3298 2862 
Q 3072 2584 2669 2484 
Q 3125 2378 3379 2068 
Q 3634 1759 3634 1313 
Q 3634 634 3220 271 
Q 2806 -91 2034 -91 
Q 1263 -91 848 271 
Q 434 634 434 1313 
Q 434 1759 690 2068 
Q 947 2378 1403 2484 
z
M 1172 3481 
Q 1172 3119 1398 2916 
Q 1625 2713 2034 2713 
Q 2441 2713 2670 2916 
Q 2900 3119 2900 3481 
Q 2900 3844 2670 4047 
Q 2441 4250 2034 4250 
Q 1625 4250 1398 4047 
Q 1172 3844 1172 3481 
z
" id="DejaVuSans-38" transform="scale(0.015625)"/>
      <path d="M 684 794 
L 1344 794 
L 1344 0 
L 684 0 
L 684 794 
z
" id="DejaVuSans-2e" transform="scale(0.015625)"/>
      <path d="M 1228 531 
L 3431 531 
L 3431 0 
L 469 0 
L 469 531 
Q 828 903 1448 1529 
Q 2069 2156 2228 2338 
Q 2531 2678 2651 2914 
Q 2772 3150 2772 3378 
Q 2772 3750 2511 3984 
Q 2250 4219 1831 4219 
Q 1534 4219 1204 4116 
Q 875 4013 500 3803 
L 500 4441 
Q 881 4594 1212 4672 
Q 1544 4750 1819 4750 
Q 2544 4750 2975 4387 
Q 3406 4025 3406 3419 
Q 3406 3131 3298 2873 
Q 3191 2616 2906 2266 
Q 2828 2175 2409 1742 
Q 1991 1309 1228 531 
z
" id="DejaVuSans-32" transform="scale(0.015625)"/>
      <path d="M 1600 4347 
Q 1350 4347 1178 4173 
Q 1006 4000 1006 3750 
Q 1006 3503 1178 3333 
Q 1350 3163 1600 3163 
Q 1850 3163 2022 3333 
Q 2194 3503 2194 3750 
Q 2194 3997 2020 4172 
Q 1847 4347 1600 4347 
z
M 1600 4750 
Q 1800 4750 1984 4673 
Q 2169 4597 2303 4453 
Q 2447 4313 2519 4134 
Q 2591 3956 2591 3750 
Q 2591 3338 2302 3052 
Q 2013 2766 1594 2766 
Q 1172 2766 890 3047 
Q 609 3328 609 3750 
Q 609 4169 896 4459 
Q 1184 4750 1600 4750 
z
" id="DejaVuSans-b0" transform="scale(0.015625)"/>
     </defs>
     <use xlink:href="#DejaVuSans-4d"/>
     <use x="86.279297" xlink:href="#DejaVuSans-65"/>
     <use x="147.802734" xlink:href="#DejaVuSans-61"/>
     <use x="209.082031" xlink:href="#DejaVuSans-64"/>
     <use x="272.558594" xlink:href="#DejaVuSans-6f"/>
     <use x="333.740234" xlink:href="#DejaVuSans-77"/>
     <use x="415.527344" xlink:href="#DejaVuSans-20"/>
     <use x="447.314453" xlink:href="#DejaVuSans-38"/>
     <use x="510.9375" xlink:href="#DejaVuSans-2e"/>
     <use x="542.724609" xlink:href="#DejaVuSans-32"/>
     <use x="606.347656" xlink:href="#DejaVuSans-b0"/>
    </g>
   </g>
   <g id="text_5">
    <g id="patch_6">
     <path d="M 135.564455 83.137602 
L 141.342518 81.094183 
L 140.683815 79.231603 
L 134.905751 81.275022 
z
" style="fill:#ffffff;"/>
    </g>
    <!--  20.8° -->
    <g style="fill:#4169e1;" transform="translate(135.437962 82.719941)rotate(-19.476201)scale(0.02 -0.02)">
     <defs>
      <path d="M 2034 4250 
Q 1547 4250 1301 3770 
Q 1056 3291 1056 2328 
Q 1056 1369 1301 889 
Q 1547 409 2034 409 
Q 2525 409 2770 889 
Q 3016 1369 3016 2328 
Q 3016 3291 2770 3770 
Q 2525 4250 2034 4250 
z
M 2034 4750 
Q 2819 4750 3233 4129 
Q 3647 3509 3647 2328 
Q 3647 1150 3233 529 
Q 2819 -91 2034 -91 
Q 1250 -91 836 529 
Q 422 1150 422 2328 
Q 422 3509 836 4129 
Q 1250 4750 2034 4750 
z
" id="DejaVuSans-30" transform="scale(0.015625)"/>
     </defs>
     <use xlink:href="#DejaVuSans-20"/>
     <use x="31.787109" xlink:href="#DejaVuSans-32"/>
     <use x="95.410156" xlink:href="#DejaVuSans-30"/>
     <use x="159.033203" xlink:href="#DejaVuSans-2e"/>
     <use x="190.820312" xlink:href="#DejaVuSans-38"/>
     <use x="254.443359" xlink:href="#DejaVuSans-b0"/>
    </g>
   </g>
   <g id="text_6">
    <g id="patch_7">
     <path d="M 127.606071 131.036449 
L 131.522296 126.322135 
L 130.002619 125.059726 
L 126.086394 129.77404 
z
" style="fill:#ffffff;"/>
    </g>
    <!--  15.1° -->
    <g style="fill:#008000;" transform="translate(127.283522 130.742504)rotate(-50.283269)scale(0.02 -0.02)">
     <defs>
      <path d="M 794 531 
L 1825 531 
L 1825 4091 
L 703 3866 
L 703 4441 
L 1819 4666 
L 2450 4666 
L 2450 531 
L 3481 531 
L 3481 0 
L 794 0 
L 794 531 
z
" id="DejaVuSans-31" transform="scale(0.015625)"/>
      <path d="M 691 4666 
L 3169 4666 
L 3169 4134 
L 1269 4134 
L 1269 2991 
Q 1406 3038 1543 3061 
Q 1681 3084 1819 3084 
Q 2600 3084 3056 2656 
Q 3513 2228 3513 1497 
Q 3513 744 3044 326 
Q 2575 -91 1722 -91 
Q 1428 -91 1123 -41 
Q 819 9 494 109 
L 494 744 
Q 775 591 1075 516 
Q 1375 441 1709 441 
Q 2250 441 2565 725 
Q 2881 1009 2881 1497 
Q 2881 1984 2565 2268 
Q 2250 2553 1709 2553 
Q 1456 2553 1204 2497 
Q 953 2441 691 2322 
L 691 4666 
z
" id="DejaVuSans-35" transform="scale(0.015625)"/>
     </defs>
     <use xlink:href="#DejaVuSans-20"/>
     <use x="31.787109" xlink:href="#DejaVuSans-31"/>
     <use x="95.410156" xlink:href="#DejaVuSans-35"/>
     <use x="159.033203" xlink:href="#DejaVuSans-2e"/>
     <use x="190.820312" xlink:href="#DejaVuSans-31"/>
     <use x="254.443359" xlink:href="#DejaVuSans-b0"/>
    </g>
   </g>
   <g id="text_7">
    <g id="patch_8">
     <path d="M 39.543427 175.654536 
L 45.252229 161.218595 
L 43.415044 160.492066 
L 37.706241 174.928007 
z
" style="fill:#ffffff;"/>
    </g>
    <!-- Backdoor 13.5° -->
    <g style="fill:#008000;" transform="translate(39.145392 175.475623)rotate(-68.423305)scale(0.02 -0.02)">
     <defs>
      <path d="M 1259 2228 
L 1259 519 
L 2272 519 
Q 2781 519 3026 730 
Q 3272 941 3272 1375 
Q 3272 1813 3026 2020 
Q 2781 2228 2272 2228 
L 1259 2228 
z
M 1259 4147 
L 1259 2741 
L 2194 2741 
Q 2656 2741 2882 2914 
Q 3109 3088 3109 3444 
Q 3109 3797 2882 3972 
Q 2656 4147 2194 4147 
L 1259 4147 
z
M 628 4666 
L 2241 4666 
Q 2963 4666 3353 4366 
Q 3744 4066 3744 3513 
Q 3744 3084 3544 2831 
Q 3344 2578 2956 2516 
Q 3422 2416 3680 2098 
Q 3938 1781 3938 1306 
Q 3938 681 3513 340 
Q 3088 0 2303 0 
L 628 0 
L 628 4666 
z
" id="DejaVuSans-42" transform="scale(0.015625)"/>
      <path d="M 581 4863 
L 1159 4863 
L 1159 1991 
L 2875 3500 
L 3609 3500 
L 1753 1863 
L 3688 0 
L 2938 0 
L 1159 1709 
L 1159 0 
L 581 0 
L 581 4863 
z
" id="DejaVuSans-6b" transform="scale(0.015625)"/>
      <path d="M 2597 2516 
Q 3050 2419 3304 2112 
Q 3559 1806 3559 1356 
Q 3559 666 3084 287 
Q 2609 -91 1734 -91 
Q 1441 -91 1130 -33 
Q 819 25 488 141 
L 488 750 
Q 750 597 1062 519 
Q 1375 441 1716 441 
Q 2309 441 2620 675 
Q 2931 909 2931 1356 
Q 2931 1769 2642 2001 
Q 2353 2234 1838 2234 
L 1294 2234 
L 1294 2753 
L 1863 2753 
Q 2328 2753 2575 2939 
Q 2822 3125 2822 3475 
Q 2822 3834 2567 4026 
Q 2313 4219 1838 4219 
Q 1578 4219 1281 4162 
Q 984 4106 628 3988 
L 628 4550 
Q 988 4650 1302 4700 
Q 1616 4750 1894 4750 
Q 2613 4750 3031 4423 
Q 3450 4097 3450 3541 
Q 3450 3153 3228 2886 
Q 3006 2619 2597 2516 
z
" id="DejaVuSans-33" transform="scale(0.015625)"/>
     </defs>
     <use xlink:href="#DejaVuSans-42"/>
     <use x="68.603516" xlink:href="#DejaVuSans-61"/>
     <use x="129.882812" xlink:href="#DejaVuSans-63"/>
     <use x="184.863281" xlink:href="#DejaVuSans-6b"/>
     <use x="242.773438" xlink:href="#DejaVuSans-64"/>
     <use x="306.25" xlink:href="#DejaVuSans-6f"/>
     <use x="367.431641" xlink:href="#DejaVuSans-6f"/>
     <use x="428.613281" xlink:href="#DejaVuSans-72"/>
     <use x="469.726562" xlink:href="#DejaVuSans-20"/>
     <use x="501.513672" xlink:href="#DejaVuSans-31"/>
     <use x="565.136719" xlink:href="#DejaVuSans-33"/>
     <use x="628.759766" xlink:href="#DejaVuSans-2e"/>
     <use x="660.546875" xlink:href="#DejaVuSans-35"/>
     <use x="724.169922" xlink:href="#DejaVuSans-b0"/>
    </g>
   </g>
   <g id="text_8">
    <g id="patch_9">
     <path d="M 99.122797 33.507208 
L 108.858621 31.82734 
L 108.5227 29.880483 
L 98.786876 31.560351 
z
" style="fill:#ffffff;"/>
    </g>
    <!-- Bull 15.6° -->
    <g style="fill:#008000;" transform="translate(99.068382 33.074218)rotate(-9.789707)scale(0.02 -0.02)">
     <defs>
      <path d="M 2113 2584 
Q 1688 2584 1439 2293 
Q 1191 2003 1191 1497 
Q 1191 994 1439 701 
Q 1688 409 2113 409 
Q 2538 409 2786 701 
Q 3034 994 3034 1497 
Q 3034 2003 2786 2293 
Q 2538 2584 2113 2584 
z
M 3366 4563 
L 3366 3988 
Q 3128 4100 2886 4159 
Q 2644 4219 2406 4219 
Q 1781 4219 1451 3797 
Q 1122 3375 1075 2522 
Q 1259 2794 1537 2939 
Q 1816 3084 2150 3084 
Q 2853 3084 3261 2657 
Q 3669 2231 3669 1497 
Q 3669 778 3244 343 
Q 2819 -91 2113 -91 
Q 1303 -91 875 529 
Q 447 1150 447 2328 
Q 447 3434 972 4092 
Q 1497 4750 2381 4750 
Q 2619 4750 2861 4703 
Q 3103 4656 3366 4563 
z
" id="DejaVuSans-36" transform="scale(0.015625)"/>
     </defs>
     <use xlink:href="#DejaVuSans-42"/>
     <use x="68.603516" xlink:href="#DejaVuSans-75"/>
     <use x="131.982422" xlink:href="#DejaVuSans-6c"/>
     <use x="159.765625" xlink:href="#DejaVuSans-6c"/>
     <use x="187.548828" xlink:href="#DejaVuSans-20"/>
     <use x="219.335938" xlink:href="#DejaVuSans-31"/>
     <use x="282.958984" xlink:href="#DejaVuSans-35"/>
     <use x="346.582031" xlink:href="#DejaVuSans-2e"/>
     <use x="378.369141" xlink:href="#DejaVuSans-36"/>
     <use x="441.992188" xlink:href="#DejaVuSans-b0"/>
    </g>
   </g>
   <g id="text_9">
    <g id="patch_10">
     <path d="M 124.944325 120.338633 
L 132.322923 113.458287 
L 130.975582 112.013376 
L 123.596984 118.893723 
z
" style="fill:#ffffff;"/>
    </g>
    <!-- Colt 14.3° -->
    <g style="fill:#008000;" transform="translate(124.661651 120.006162)rotate(-42.998724)scale(0.02 -0.02)">
     <defs>
      <path d="M 2419 4116 
L 825 1625 
L 2419 1625 
L 2419 4116 
z
M 2253 4666 
L 3047 4666 
L 3047 1625 
L 3713 1625 
L 3713 1100 
L 3047 1100 
L 3047 0 
L 2419 0 
L 2419 1100 
L 313 1100 
L 313 1709 
L 2253 4666 
z
" id="DejaVuSans-34" transform="scale(0.015625)"/>
     </defs>
     <use xlink:href="#DejaVuSans-43"/>
     <use x="69.824219" xlink:href="#DejaVuSans-6f"/>
     <use x="131.005859" xlink:href="#DejaVuSans-6c"/>
     <use x="158.789062" xlink:href="#DejaVuSans-74"/>
     <use x="197.998047" xlink:href="#DejaVuSans-20"/>
     <use x="229.785156" xlink:href="#DejaVuSans-31"/>
     <use x="293.408203" xlink:href="#DejaVuSans-34"/>
     <use x="357.03125" xlink:href="#DejaVuSans-2e"/>
     <use x="388.818359" xlink:href="#DejaVuSans-33"/>
     <use x="452.441406" xlink:href="#DejaVuSans-b0"/>
    </g>
   </g>
   <g id="text_10">
    <g id="patch_11">
     <path d="M 13.901428 152.615287 
L 26.45053 161.894005 
L 27.625093 160.305453 
L 15.075992 151.026736 
z
" style="fill:#ffffff;"/>
    </g>
    <!-- Fenceline 12.6° -->
    <g style="fill:#008000;" transform="translate(14.176686 152.276651)rotate(-323.521038)scale(0.02 -0.02)">
     <defs>
      <path d="M 628 4666 
L 3309 4666 
L 3309 4134 
L 1259 4134 
L 1259 2759 
L 3109 2759 
L 3109 2228 
L 1259 2228 
L 1259 0 
L 628 0 
L 628 4666 
z
" id="DejaVuSans-46" transform="scale(0.015625)"/>
      <path d="M 3513 2113 
L 3513 0 
L 2938 0 
L 2938 2094 
Q 2938 2591 2744 2837 
Q 2550 3084 2163 3084 
Q 1697 3084 1428 2787 
Q 1159 2491 1159 1978 
L 1159 0 
L 581 0 
L 581 3500 
L 1159 3500 
L 1159 2956 
Q 1366 3272 1645 3428 
Q 1925 3584 2291 3584 
Q 2894 3584 3203 3211 
Q 3513 2838 3513 2113 
z
" id="DejaVuSans-6e" transform="scale(0.015625)"/>
     </defs>
     <use xlink:href="#DejaVuSans-46"/>
     <use x="52.019531" xlink:href="#DejaVuSans-65"/>
     <use x="113.542969" xlink:href="#DejaVuSans-6e"/>
     <use x="176.921875" xlink:href="#DejaVuSans-63"/>
     <use x="231.902344" xlink:href="#DejaVuSans-65"/>
     <use x="293.425781" xlink:href="#DejaVuSans-6c"/>
     <use x="321.208984" xlink:href="#DejaVuSans-69"/>
     <use x="348.992188" xlink:href="#DejaVuSans-6e"/>
     <use x="412.371094" xlink:href="#DejaVuSans-65"/>
     <use x="473.894531" xlink:href="#DejaVuSans-20"/>
     <use x="505.681641" xlink:href="#DejaVuSans-31"/>
     <use x="569.304688" xlink:href="#DejaVuSans-32"/>
     <use x="632.927734" xlink:href="#DejaVuSans-2e"/>
     <use x="664.714844" xlink:href="#DejaVuSans-36"/>
     <use x="728.337891" xlink:href="#DejaVuSans-b0"/>
    </g>
   </g>
   <g id="text_11">
    <g id="patch_12">
     <path d="M 92.963093 59.879778 
L 102.049596 46.915449 
L 100.431774 45.781542 
L 91.345271 58.745871 
z
" style="fill:#ffffff;"/>
    </g>
    <!-- Instructor 16.9° -->
    <g style="fill:#008000;" transform="translate(92.617586 59.613195)rotate(-54.973964)scale(0.02 -0.02)">
     <defs>
      <path d="M 628 4666 
L 1259 4666 
L 1259 0 
L 628 0 
L 628 4666 
z
" id="DejaVuSans-49" transform="scale(0.015625)"/>
      <path d="M 2834 3397 
L 2834 2853 
Q 2591 2978 2328 3040 
Q 2066 3103 1784 3103 
Q 1356 3103 1142 2972 
Q 928 2841 928 2578 
Q 928 2378 1081 2264 
Q 1234 2150 1697 2047 
L 1894 2003 
Q 2506 1872 2764 1633 
Q 3022 1394 3022 966 
Q 3022 478 2636 193 
Q 2250 -91 1575 -91 
Q 1294 -91 989 -36 
Q 684 19 347 128 
L 347 722 
Q 666 556 975 473 
Q 1284 391 1588 391 
Q 1994 391 2212 530 
Q 2431 669 2431 922 
Q 2431 1156 2273 1281 
Q 2116 1406 1581 1522 
L 1381 1569 
Q 847 1681 609 1914 
Q 372 2147 372 2553 
Q 372 3047 722 3315 
Q 1072 3584 1716 3584 
Q 2034 3584 2315 3537 
Q 2597 3491 2834 3397 
z
" id="DejaVuSans-73" transform="scale(0.015625)"/>
      <path d="M 703 97 
L 703 672 
Q 941 559 1184 500 
Q 1428 441 1663 441 
Q 2288 441 2617 861 
Q 2947 1281 2994 2138 
Q 2813 1869 2534 1725 
Q 2256 1581 1919 1581 
Q 1219 1581 811 2004 
Q 403 2428 403 3163 
Q 403 3881 828 4315 
Q 1253 4750 1959 4750 
Q 2769 4750 3195 4129 
Q 3622 3509 3622 2328 
Q 3622 1225 3098 567 
Q 2575 -91 1691 -91 
Q 1453 -91 1209 -44 
Q 966 3 703 97 
z
M 1959 2075 
Q 2384 2075 2632 2365 
Q 2881 2656 2881 3163 
Q 2881 3666 2632 3958 
Q 2384 4250 1959 4250 
Q 1534 4250 1286 3958 
Q 1038 3666 1038 3163 
Q 1038 2656 1286 2365 
Q 1534 2075 1959 2075 
z
" id="DejaVuSans-39" transform="scale(0.015625)"/>
     </defs>
     <use xlink:href="#DejaVuSans-49"/>
     <use x="29.492188" xlink:href="#DejaVuSans-6e"/>
     <use x="92.871094" xlink:href="#DejaVuSans-73"/>
     <use x="144.970703" xlink:href="#DejaVuSans-74"/>
     <use x="184.179688" xlink:href="#DejaVuSans-72"/>
     <use x="225.292969" xlink:href="#DejaVuSans-75"/>
     <use x="288.671875" xlink:href="#DejaVuSans-63"/>
     <use x="343.652344" xlink:href="#DejaVuSans-74"/>
     <use x="382.861328" xlink:href="#DejaVuSans-6f"/>
     <use x="444.042969" xlink:href="#DejaVuSans-72"/>
     <use x="485.15625" xlink:href="#DejaVuSans-20"/>
     <use x="516.943359" xlink:href="#DejaVuSans-31"/>
     <use x="580.566406" xlink:href="#DejaVuSans-36"/>
     <use x="644.189453" xlink:href="#DejaVuSans-2e"/>
     <use x="675.976562" xlink:href="#DejaVuSans-39"/>
     <use x="739.599609" xlink:href="#DejaVuSans-b0"/>
    </g>
   </g>
   <g id="text_12">
    <g id="patch_13">
     <path d="M 18.731906 177.400537 
L 37.729308 181.178287 
L 38.114628 179.240602 
L 19.117226 175.462852 
z
" style="fill:#ffffff;"/>
    </g>
    <!-- Magic Carpet 10.3° -->
    <g style="fill:#008000;" transform="translate(18.836546 176.976872)rotate(-348.753099)scale(0.02 -0.02)">
     <use xlink:href="#DejaVuSans-4d"/>
     <use x="86.279297" xlink:href="#DejaVuSans-61"/>
     <use x="147.558594" xlink:href="#DejaVuSans-67"/>
     <use x="211.035156" xlink:href="#DejaVuSans-69"/>
     <use x="238.818359" xlink:href="#DejaVuSans-63"/>
     <use x="293.798828" xlink:href="#DejaVuSans-20"/>
     <use x="325.585938" xlink:href="#DejaVuSans-43"/>
     <use x="395.410156" xlink:href="#DejaVuSans-61"/>
     <use x="456.689453" xlink:href="#DejaVuSans-72"/>
     <use x="497.802734" xlink:href="#DejaVuSans-70"/>
     <use x="561.279297" xlink:href="#DejaVuSans-65"/>
     <use x="622.802734" xlink:href="#DejaVuSans-74"/>
     <use x="662.011719" xlink:href="#DejaVuSans-20"/>
     <use x="693.798828" xlink:href="#DejaVuSans-31"/>
     <use x="757.421875" xlink:href="#DejaVuSans-30"/>
     <use x="821.044922" xlink:href="#DejaVuSans-2e"/>
     <use x="852.832031" xlink:href="#DejaVuSans-33"/>
     <use x="916.455078" xlink:href="#DejaVuSans-b0"/>
    </g>
   </g>
   <g id="text_13">
    <g id="patch_14">
     <path d="M 133.4637 51.19038 
L 144.112801 60.942365 
L 145.447059 59.485365 
L 134.797958 49.733379 
z
" style="fill:#ffffff;"/>
    </g>
    <!-- Meadow 10.8° -->
    <g style="fill:#008000;" transform="translate(133.772865 50.882388)rotate(-317.517899)scale(0.02 -0.02)">
     <use xlink:href="#DejaVuSans-4d"/>
     <use x="86.279297" xlink:href="#DejaVuSans-65"/>
     <use x="147.802734" xlink:href="#DejaVuSans-61"/>
     <use x="209.082031" xlink:href="#DejaVuSans-64"/>
     <use x="272.558594" xlink:href="#DejaVuSans-6f"/>
     <use x="333.740234" xlink:href="#DejaVuSans-77"/>
     <use x="415.527344" xlink:href="#DejaVuSans-20"/>
     <use x="447.314453" xlink:href="#DejaVuSans-31"/>
     <use x="510.9375" xlink:href="#DejaVuSans-30"/>
     <use x="574.560547" xlink:href="#DejaVuSans-2e"/>
     <use x="606.347656" xlink:href="#DejaVuSans-38"/>
     <use x="669.970703" xlink:href="#DejaVuSans-b0"/>
    </g>
   </g>
   <g id="text_14">
    <g id="patch_15">
     <path d="M 157.333168 110.096166 
L 164.33363 102.782901 
L 162.906464 101.416778 
L 155.906003 108.730043 
z
" style="fill:#ffffff;"/>
    </g>
    <!-- Milk 15.9° -->
    <g style="fill:#008000;" transform="translate(157.032083 109.780272)rotate(-46.251911)scale(0.02 -0.02)">
     <use xlink:href="#DejaVuSans-4d"/>
     <use x="86.279297" xlink:href="#DejaVuSans-69"/>
     <use x="114.0625" xlink:href="#DejaVuSans-6c"/>
     <use x="141.845703" xlink:href="#DejaVuSans-6b"/>
     <use x="199.755859" xlink:href="#DejaVuSans-20"/>
     <use x="231.542969" xlink:href="#DejaVuSans-31"/>
     <use x="295.166016" xlink:href="#DejaVuSans-35"/>
     <use x="358.789062" xlink:href="#DejaVuSans-2e"/>
     <use x="390.576172" xlink:href="#DejaVuSans-39"/>
     <use x="454.199219" xlink:href="#DejaVuSans-b0"/>
    </g>
   </g>
   <g id="text_15">
    <g id="patch_16">
     <path d="M 82.557114 63.60166 
L 85.988691 47.608798 
L 84.057032 47.194323 
L 80.625455 63.187185 
z
" style="fill:#ffffff;"/>
    </g>
    <!-- Stampede 17.3° -->
    <g style="fill:#4169e1;" transform="translate(82.135073 63.490648)rotate(-77.889708)scale(0.02 -0.02)">
     <defs>
      <path d="M 3425 4513 
L 3425 3897 
Q 3066 4069 2747 4153 
Q 2428 4238 2131 4238 
Q 1616 4238 1336 4038 
Q 1056 3838 1056 3469 
Q 1056 3159 1242 3001 
Q 1428 2844 1947 2747 
L 2328 2669 
Q 3034 2534 3370 2195 
Q 3706 1856 3706 1288 
Q 3706 609 3251 259 
Q 2797 -91 1919 -91 
Q 1588 -91 1214 -16 
Q 841 59 441 206 
L 441 856 
Q 825 641 1194 531 
Q 1563 422 1919 422 
Q 2459 422 2753 634 
Q 3047 847 3047 1241 
Q 3047 1584 2836 1778 
Q 2625 1972 2144 2069 
L 1759 2144 
Q 1053 2284 737 2584 
Q 422 2884 422 3419 
Q 422 4038 858 4394 
Q 1294 4750 2059 4750 
Q 2388 4750 2728 4690 
Q 3069 4631 3425 4513 
z
" id="DejaVuSans-53" transform="scale(0.015625)"/>
      <path d="M 3328 2828 
Q 3544 3216 3844 3400 
Q 4144 3584 4550 3584 
Q 5097 3584 5394 3201 
Q 5691 2819 5691 2113 
L 5691 0 
L 5113 0 
L 5113 2094 
Q 5113 2597 4934 2840 
Q 4756 3084 4391 3084 
Q 3944 3084 3684 2787 
Q 3425 2491 3425 1978 
L 3425 0 
L 2847 0 
L 2847 2094 
Q 2847 2600 2669 2842 
Q 2491 3084 2119 3084 
Q 1678 3084 1418 2786 
Q 1159 2488 1159 1978 
L 1159 0 
L 581 0 
L 581 3500 
L 1159 3500 
L 1159 2956 
Q 1356 3278 1631 3431 
Q 1906 3584 2284 3584 
Q 2666 3584 2933 3390 
Q 3200 3197 3328 2828 
z
" id="DejaVuSans-6d" transform="scale(0.015625)"/>
      <path d="M 525 4666 
L 3525 4666 
L 3525 4397 
L 1831 0 
L 1172 0 
L 2766 4134 
L 525 4134 
L 525 4666 
z
" id="DejaVuSans-37" transform="scale(0.015625)"/>
     </defs>
     <use xlink:href="#DejaVuSans-53"/>
     <use x="63.476562" xlink:href="#DejaVuSans-74"/>
     <use x="102.685547" xlink:href="#DejaVuSans-61"/>
     <use x="163.964844" xlink:href="#DejaVuSans-6d"/>
     <use x="261.376953" xlink:href="#DejaVuSans-70"/>
     <use x="324.853516" xlink:href="#DejaVuSans-65"/>
     <use x="386.376953" xlink:href="#DejaVuSans-64"/>
     <use x="449.853516" xlink:href="#DejaVuSans-65"/>
     <use x="511.376953" xlink:href="#DejaVuSans-20"/>
     <use x="543.164062" xlink:href="#DejaVuSans-31"/>
     <use x="606.787109" xlink:href="#DejaVuSans-37"/>
     <use x="670.410156" xlink:href="#DejaVuSans-2e"/>
     <use x="702.197266" xlink:href="#DejaVuSans-33"/>
     <use x="765.820312" xlink:href="#DejaVuSans-b0"/>
    </g>
   </g>
   <g id="text_16">
    <g id="patch_17">
     <path d="M 40.027537 89.679032 
L 46.208607 80.021802 
L 44.544629 78.95678 
L 38.363559 88.61401 
z
" style="fill:#ffffff;"/>
    </g>
    <!-- Steer 15.2° -->
    <g style="fill:#008000;" transform="translate(39.671148 89.427182)rotate(-57.378893)scale(0.02 -0.02)">
     <use xlink:href="#DejaVuSans-53"/>
     <use x="63.476562" xlink:href="#DejaVuSans-74"/>
     <use x="102.685547" xlink:href="#DejaVuSans-65"/>
     <use x="164.208984" xlink:href="#DejaVuSans-65"/>
     <use x="225.732422" xlink:href="#DejaVuSans-72"/>
     <use x="266.845703" xlink:href="#DejaVuSans-20"/>
     <use x="298.632812" xlink:href="#DejaVuSans-31"/>
     <use x="362.255859" xlink:href="#DejaVuSans-35"/>
     <use x="425.878906" xlink:href="#DejaVuSans-2e"/>
     <use x="457.666016" xlink:href="#DejaVuSans-32"/>
     <use x="521.289062" xlink:href="#DejaVuSans-b0"/>
    </g>
   </g>
   <g id="text_17">
    <!-- Pomerelle -->
    <g transform="translate(71.762693 15.186646)scale(0.14 -0.14)">
     <defs>
      <path d="M 1259 4147 
L 1259 2394 
L 2053 2394 
Q 2494 2394 2734 2622 
Q 2975 2850 2975 3272 
Q 2975 3691 2734 3919 
Q 2494 4147 2053 4147 
L 1259 4147 
z
M 628 4666 
L 2053 4666 
Q 2838 4666 3239 4311 
Q 3641 3956 3641 3272 
Q 3641 2581 3239 2228 
Q 2838 1875 2053 1875 
L 1259 1875 
L 1259 0 
L 628 0 
L 628 4666 
z
" id="DejaVuSans-50" transform="scale(0.015625)"/>
     </defs>
     <use xlink:href="#DejaVuSans-50"/>
     <use x="56.677734" xlink:href="#DejaVuSans-6f"/>
     <use x="117.859375" xlink:href="#DejaVuSans-6d"/>
     <use x="215.271484" xlink:href="#DejaVuSans-65"/>
     <use x="276.794922" xlink:href="#DejaVuSans-72"/>
     <use x="315.658203" xlink:href="#DejaVuSans-65"/>
     <use x="377.181641" xlink:href="#DejaVuSans-6c"/>
     <use x="404.964844" xlink:href="#DejaVuSans-6c"/>
     <use x="432.748047" xlink:href="#DejaVuSans-65"/>
    </g>
   </g>
   <g id="legend_1">
    <g id="line2d_23">
     <path d="M 8.359647 195.759785 
L 22.359647 195.759785 
" style="fill:none;stroke:#008000;stroke-linecap:square;stroke-width:0.984837;"/>
    </g>
    <g id="line2d_24"/>
    <g id="text_18">
     <!-- Easy -->
     <g transform="translate(27.959647 198.209785)scale(0.07 -0.07)">
      <defs>
       <path d="M 628 4666 
L 3578 4666 
L 3578 4134 
L 1259 4134 
L 1259 2753 
L 3481 2753 
L 3481 2222 
L 1259 2222 
L 1259 531 
L 3634 531 
L 3634 0 
L 628 0 
L 628 4666 
z
" id="DejaVuSans-45" transform="scale(0.015625)"/>
       <path d="M 2059 -325 
Q 1816 -950 1584 -1140 
Q 1353 -1331 966 -1331 
L 506 -1331 
L 506 -850 
L 844 -850 
Q 1081 -850 1212 -737 
Q 1344 -625 1503 -206 
L 1606 56 
L 191 3500 
L 800 3500 
L 1894 763 
L 2988 3500 
L 3597 3500 
L 2059 -325 
z
" id="DejaVuSans-79" transform="scale(0.015625)"/>
      </defs>
      <use xlink:href="#DejaVuSans-45"/>
      <use x="63.183594" xlink:href="#DejaVuSans-61"/>
      <use x="124.462891" xlink:href="#DejaVuSans-73"/>
      <use x="176.5625" xlink:href="#DejaVuSans-79"/>
     </g>
    </g>
    <g id="line2d_25">
     <path d="M 8.359647 206.034473 
L 22.359647 206.034473 
" style="fill:none;stroke:#4169e1;stroke-linecap:square;stroke-width:0.984837;"/>
    </g>
    <g id="line2d_26"/>
    <g id="text_19">
     <!-- Intermediate -->
     <g transform="translate(27.959647 208.484473)scale(0.07 -0.07)">
      <use xlink:href="#DejaVuSans-49"/>
      <use x="29.492188" xlink:href="#DejaVuSans-6e"/>
      <use x="92.871094" xlink:href="#DejaVuSans-74"/>
      <use x="132.080078" xlink:href="#DejaVuSans-65"/>
      <use x="193.603516" xlink:href="#DejaVuSans-72"/>
      <use x="232.966797" xlink:href="#DejaVuSans-6d"/>
      <use x="330.378906" xlink:href="#DejaVuSans-65"/>
      <use x="391.902344" xlink:href="#DejaVuSans-64"/>
      <use x="455.378906" xlink:href="#DejaVuSans-69"/>
      <use x="483.162109" xlink:href="#DejaVuSans-61"/>
      <use x="544.441406" xlink:href="#DejaVuSans-74"/>
      <use x="583.650391" xlink:href="#DejaVuSans-65"/>
     </g>
    </g>
    <g id="line2d_27">
     <path d="M 87.122772 195.759785 
L 101.122772 195.759785 
" style="fill:none;stroke:#000000;stroke-linecap:square;stroke-width:0.984837;"/>
    </g>
    <g id="line2d_28"/>
    <g id="text_20">
     <!-- Advanced -->
     <g transform="translate(106.722772 198.209785)scale(0.07 -0.07)">
      <defs>
       <path d="M 2188 4044 
L 1331 1722 
L 3047 1722 
L 2188 4044 
z
M 1831 4666 
L 2547 4666 
L 4325 0 
L 3669 0 
L 3244 1197 
L 1141 1197 
L 716 0 
L 50 0 
L 1831 4666 
z
" id="DejaVuSans-41" transform="scale(0.015625)"/>
       <path d="M 191 3500 
L 800 3500 
L 1894 563 
L 2988 3500 
L 3597 3500 
L 2284 0 
L 1503 0 
L 191 3500 
z
" id="DejaVuSans-76" transform="scale(0.015625)"/>
      </defs>
      <use xlink:href="#DejaVuSans-41"/>
      <use x="66.658203" xlink:href="#DejaVuSans-64"/>
      <use x="130.134766" xlink:href="#DejaVuSans-76"/>
      <use x="189.314453" xlink:href="#DejaVuSans-61"/>
      <use x="250.59375" xlink:href="#DejaVuSans-6e"/>
      <use x="313.972656" xlink:href="#DejaVuSans-63"/>
      <use x="368.953125" xlink:href="#DejaVuSans-65"/>
      <use x="430.476562" xlink:href="#DejaVuSans-64"/>
     </g>
    </g>
    <g id="line2d_29">
     <path d="M 87.122772 206.034473 
L 101.122772 206.034473 
" style="fill:none;stroke:#ff0000;stroke-linecap:square;stroke-width:0.984837;"/>
    </g>
    <g id="line2d_30"/>
    <g id="text_21">
     <!-- Expert -->
     <g transform="translate(106.722772 208.484473)scale(0.07 -0.07)">
      <defs>
       <path d="M 3513 3500 
L 2247 1797 
L 3578 0 
L 2900 0 
L 1881 1375 
L 863 0 
L 184 0 
L 1544 1831 
L 300 3500 
L 978 3500 
L 1906 2253 
L 2834 3500 
L 3513 3500 
z
" id="DejaVuSans-78" transform="scale(0.015625)"/>
      </defs>
      <use xlink:href="#DejaVuSans-45"/>
      <use x="63.183594" xlink:href="#DejaVuSans-78"/>
      <use x="122.363281" xlink:href="#DejaVuSans-70"/>
      <use x="185.839844" xlink:href="#DejaVuSans-65"/>
      <use x="247.363281" xlink:href="#DejaVuSans-72"/>
      <use x="288.476562" xlink:href="#DejaVuSans-74"/>
     </g>
    </g>
    <g id="line2d_31">
     <path d="M 155.301678 195.759785 
L 169.301678 195.759785 
" style="fill:none;stroke:#ffd700;stroke-linecap:square;stroke-width:0.984837;"/>
    </g>
    <g id="line2d_32"/>
    <g id="text_22">
     <!-- Extreme -->
     <g transform="translate(174.901678 198.209785)scale(0.07 -0.07)">
      <use xlink:href="#DejaVuSans-45"/>
      <use x="63.183594" xlink:href="#DejaVuSans-78"/>
      <use x="122.363281" xlink:href="#DejaVuSans-74"/>
      <use x="161.572266" xlink:href="#DejaVuSans-72"/>
      <use x="200.435547" xlink:href="#DejaVuSans-65"/>
      <use x="261.958984" xlink:href="#DejaVuSans-6d"/>
      <use x="359.371094" xlink:href="#DejaVuSans-65"/>
     </g>
    </g>
    <g id="line2d_33">
     <path d="M 155.301678 206.034473 
L 169.301678 206.034473 
" style="fill:none;stroke:#000000;stroke-dasharray:0.984837,1.624981;stroke-dashoffset:0;stroke-width:0.984837;"/>
    </g>
    <g id="line2d_34"/>
    <g id="text_23">
     <!-- Gladed -->
     <g transform="translate(174.901678 208.484473)scale(0.07 -0.07)">
      <defs>
       <path d="M 3809 666 
L 3809 1919 
L 2778 1919 
L 2778 2438 
L 4434 2438 
L 4434 434 
Q 4069 175 3628 42 
Q 3188 -91 2688 -91 
Q 1594 -91 976 548 
Q 359 1188 359 2328 
Q 359 3472 976 4111 
Q 1594 4750 2688 4750 
Q 3144 4750 3555 4637 
Q 3966 4525 4313 4306 
L 4313 3634 
Q 3963 3931 3569 4081 
Q 3175 4231 2741 4231 
Q 1884 4231 1454 3753 
Q 1025 3275 1025 2328 
Q 1025 1384 1454 906 
Q 1884 428 2741 428 
Q 3075 428 3337 486 
Q 3600 544 3809 666 
z
" id="DejaVuSans-47" transform="scale(0.015625)"/>
      </defs>
      <use xlink:href="#DejaVuSans-47"/>
      <use x="77.490234" xlink:href="#DejaVuSans-6c"/>
      <use x="105.273438" xlink:href="#DejaVuSans-61"/>
      <use x="166.552734" xlink:href="#DejaVuSans-64"/>
      <use x="230.029297" xlink:href="#DejaVuSans-65"/>
      <use x="291.552734" xlink:href="#DejaVuSans-64"/>
     </g>
    </g>
   </g>
  </g>
  <g id="text_24">
   <!-- Sources: USGS and OpenStreetMaps -->
   <g transform="translate(50.837449 219.435118)scale(0.06087 -0.06087)">
    <defs>
     <path d="M 750 794 
L 1409 794 
L 1409 0 
L 750 0 
L 750 794 
z
M 750 3309 
L 1409 3309 
L 1409 2516 
L 750 2516 
L 750 3309 
z
" id="DejaVuSans-3a" transform="scale(0.015625)"/>
     <path d="M 556 4666 
L 1191 4666 
L 1191 1831 
Q 1191 1081 1462 751 
Q 1734 422 2344 422 
Q 2950 422 3222 751 
Q 3494 1081 3494 1831 
L 3494 4666 
L 4128 4666 
L 4128 1753 
Q 4128 841 3676 375 
Q 3225 -91 2344 -91 
Q 1459 -91 1007 375 
Q 556 841 556 1753 
L 556 4666 
z
" id="DejaVuSans-55" transform="scale(0.015625)"/>
     <path d="M 2522 4238 
Q 1834 4238 1429 3725 
Q 1025 3213 1025 2328 
Q 1025 1447 1429 934 
Q 1834 422 2522 422 
Q 3209 422 3611 934 
Q 4013 1447 4013 2328 
Q 4013 3213 3611 3725 
Q 3209 4238 2522 4238 
z
M 2522 4750 
Q 3503 4750 4090 4092 
Q 4678 3434 4678 2328 
Q 4678 1225 4090 567 
Q 3503 -91 2522 -91 
Q 1538 -91 948 565 
Q 359 1222 359 2328 
Q 359 3434 948 4092 
Q 1538 4750 2522 4750 
z
" id="DejaVuSans-4f" transform="scale(0.015625)"/>
    </defs>
    <use xlink:href="#DejaVuSans-53"/>
    <use x="63.476562" xlink:href="#DejaVuSans-6f"/>
    <use x="124.658203" xlink:href="#DejaVuSans-75"/>
    <use x="188.037109" xlink:href="#DejaVuSans-72"/>
    <use x="226.900391" xlink:href="#DejaVuSans-63"/>
    <use x="281.880859" xlink:href="#DejaVuSans-65"/>
    <use x="343.404297" xlink:href="#DejaVuSans-73"/>
    <use x="395.503906" xlink:href="#DejaVuSans-3a"/>
    <use x="429.195312" xlink:href="#DejaVuSans-20"/>
    <use x="460.982422" xlink:href="#DejaVuSans-55"/>
    <use x="534.175781" xlink:href="#DejaVuSans-53"/>
    <use x="597.652344" xlink:href="#DejaVuSans-47"/>
    <use x="675.142578" xlink:href="#DejaVuSans-53"/>
    <use x="738.619141" xlink:href="#DejaVuSans-20"/>
    <use x="770.40625" xlink:href="#DejaVuSans-61"/>
    <use x="831.685547" xlink:href="#DejaVuSans-6e"/>
    <use x="895.064453" xlink:href="#DejaVuSans-64"/>
    <use x="958.541016" xlink:href="#DejaVuSans-20"/>
    <use x="990.328125" xlink:href="#DejaVuSans-4f"/>
    <use x="1069.039062" xlink:href="#DejaVuSans-70"/>
    <use x="1132.515625" xlink:href="#DejaVuSans-65"/>
    <use x="1194.039062" xlink:href="#DejaVuSans-6e"/>
    <use x="1257.417969" xlink:href="#DejaVuSans-53"/>
    <use x="1320.894531" xlink:href="#DejaVuSans-74"/>
    <use x="1360.103516" xlink:href="#DejaVuSans-72"/>
    <use x="1398.966797" xlink:href="#DejaVuSans-65"/>
    <use x="1460.490234" xlink:href="#DejaVuSans-65"/>
    <use x="1522.013672" xlink:href="#DejaVuSans-74"/>
    <use x="1561.222656" xlink:href="#DejaVuSans-4d"/>
    <use x="1647.501953" xlink:href="#DejaVuSans-61"/>
    <use x="1708.78125" xlink:href="#DejaVuSans-70"/>
    <use x="1772.257812" xlink:href="#DejaVuSans-73"/>
   </g>
  </g>
 </g>
 <defs>
  <clipPath id="p8977f7027b">
   <rect height="176.327723" width="212.724762" x="0" y="22.186646"/>
  </clipPath>
 </defs>
</svg>
