<?xml version="1.0" encoding="utf-8" standalone="no"?>
<!DOCTYPE svg PUBLIC "-//W3C//DTD SVG 1.1//EN"
  "http://www.w3.org/Graphics/SVG/1.1/DTD/svg11.dtd">
<svg xmlns:xlink="http://www.w3.org/1999/xlink" width="122.511715pt" height="137.500885pt" viewBox="0 0 122.511715 137.500885" xmlns="http://www.w3.org/2000/svg" version="1.1">
 <metadata>
  <rdf:RDF xmlns:dc="http://purl.org/dc/elements/1.1/" xmlns:cc="http://creativecommons.org/ns#" xmlns:rdf="http://www.w3.org/1999/02/22-rdf-syntax-ns#">
   <cc:Work>
    <dc:type rdf:resource="http://purl.org/dc/dcmitype/StillImage"/>
    <dc:date>2022-05-17T22:22:04.590666</dc:date>
    <dc:format>image/svg+xml</dc:format>
    <dc:creator>
     <cc:Agent>
      <dc:title>Matplotlib v3.5.2, https://matplotlib.org/</dc:title>
     </cc:Agent>
    </dc:creator>
   </cc:Work>
  </rdf:RDF>
 </metadata>
 <defs>
  <style type="text/css">*{stroke-linejoin: round; stroke-linecap: butt}</style>
 </defs>
 <g id="figure_1">
  <g id="patch_1">
   <path d="M 0 137.500885 
L 122.511715 137.500885 
L 122.511715 0 
L 0 0 
z
" style="fill: #ffffff"/>
  </g>
  <g id="axes_1">
   <g id="line2d_1">
    <path d="M 44.211714 56.336504 
" clip-path="url(#pf3d0f7a700)" style="fill: none; stroke: #008000; stroke-width: 0.001; stroke-linecap: square"/>
   </g>
   <g id="line2d_2">
    <path d="M 44.211714 56.336504 
" clip-path="url(#pf3d0f7a700)" style="fill: none; stroke: #4169e1; stroke-width: 0.001; stroke-linecap: square"/>
   </g>
   <g id="line2d_3">
    <path d="M 44.211714 56.336504 
" clip-path="url(#pf3d0f7a700)" style="fill: none; stroke: #000000; stroke-width: 0.001; stroke-linecap: square"/>
   </g>
   <g id="line2d_4">
    <path d="M 44.211714 56.336504 
" clip-path="url(#pf3d0f7a700)" style="fill: none; stroke: #ff0000; stroke-width: 0.001; stroke-linecap: square"/>
   </g>
   <g id="line2d_5">
    <path d="M 44.211714 56.336504 
" clip-path="url(#pf3d0f7a700)" style="fill: none; stroke: #ffd700; stroke-width: 0.001; stroke-linecap: square"/>
   </g>
   <g id="line2d_6">
    <path d="M 44.211714 56.336504 
" clip-path="url(#pf3d0f7a700)" style="fill: none; stroke-dasharray: 0.001,0.00165; stroke-dashoffset: 0; stroke: #000000; stroke-width: 0.001"/>
   </g>
   <g id="line2d_7">
    <path d="M 110.955934 42.168989 
L 105.571504 42.867444 
L 100.059706 43.582268 
L 94.547907 44.297093 
L 88.853425 45.035232 
L 83.158943 45.773372 
L 77.537971 46.502086 
L 71.916999 47.2308 
L 68.669092 47.651957 
L 65.421185 48.073113 
L 62.173278 48.494269 
L 58.92537 48.915425 
L 54.217815 49.526077 
L 49.51026 50.136728 
L 44.054504 50.844112 
" clip-path="url(#pf3d0f7a700)" style="fill: none; stroke: #808080; stroke-width: 0.567184; stroke-linecap: square"/>
   </g>
   <g id="line2d_8">
    <path d="M 111.415918 40.412932 
L 108.105782 40.83756 
L 104.795646 41.262189 
L 99.157934 41.984454 
L 94.281524 42.609988 
L 89.405114 43.235521 
L 84.365672 43.881641 
L 79.326231 44.527761 
L 74.286789 45.173882 
L 69.247347 45.820002 
L 63.817064 46.516472 
L 58.386782 47.212942 
L 54.936176 47.655429 
L 51.48557 48.097916 
L 47.497104 48.608859 
" clip-path="url(#pf3d0f7a700)" style="fill: none; stroke: #808080; stroke-width: 0.567184; stroke-linecap: square"/>
   </g>
   <g id="line2d_9">
    <path d="M 110.7667 43.073805 
L 106.90724 43.582702 
L 103.04778 44.091599 
L 99.18832 44.600496 
L 95.32886 45.109394 
L 91.469401 45.618291 
L 87.609941 46.127188 
L 83.750481 46.636085 
L 79.891021 47.144982 
L 76.031561 47.653879 
L 72.172101 48.162776 
L 68.312641 48.671673 
L 64.453181 49.18057 
L 60.593721 49.689467 
L 56.734261 50.198364 
L 52.874801 50.707261 
L 49.015341 51.216158 
" clip-path="url(#pf3d0f7a700)" style="fill: none; stroke: #808080; stroke-width: 0.567184; stroke-linecap: square"/>
   </g>
   <g id="line2d_10">
    <path d="M 74.441087 104.513993 
L 73.57789 102.921636 
L 72.018166 100.044728 
L 70.458443 97.167819 
L 68.89872 94.290911 
L 67.338997 91.414002 
L 64.27632 85.766839 
L 62.407272 82.319212 
L 60.538225 78.871584 
L 58.468298 75.053895 
L 56.850349 72.070086 
L 55.2324 69.086276 
L 53.45433 65.806814 
L 51.67626 62.527351 
L 49.892367 59.237472 
L 48.108475 55.947592 
L 46.526189 53.028767 
" clip-path="url(#pf3d0f7a700)" style="fill: none; stroke: #808080; stroke-width: 0.567184; stroke-linecap: square"/>
   </g>
   <g id="line2d_11">
    <path d="M 70.598185 104.387994 
L 69.063208 101.257846 
L 67.52823 98.127698 
L 65.993253 94.99755 
L 64.458276 91.867403 
L 62.923298 88.737255 
L 61.388321 85.607107 
L 59.853344 82.476959 
L 58.318366 79.346811 
L 56.783389 76.216663 
L 55.248412 73.086516 
L 53.713435 69.956368 
L 52.178457 66.82622 
L 50.64348 63.696072 
L 49.108503 60.565924 
L 47.573525 57.435777 
L 46.038548 54.305629 
" clip-path="url(#pf3d0f7a700)" style="fill: none; stroke: #808080; stroke-width: 0.567184; stroke-linecap: square"/>
   </g>
   <g id="line2d_12">
    <path d="M 53.159562 116.061312 
L 52.730147 113.80324 
L 51.89679 109.413096 
L 51.063433 105.022952 
L 50.446604 101.775982 
L 49.829774 98.529012 
L 49.212945 95.282042 
L 48.596116 92.035071 
L 47.534223 86.446443 
L 46.47233 80.857815 
L 45.547996 75.990459 
L 44.623661 71.123104 
L 44.157855 68.670577 
L 43.266273 63.977339 
L 42.37469 59.284102 
L 41.927807 56.930786 
" clip-path="url(#pf3d0f7a700)" style="fill: none; stroke: #808080; stroke-width: 0.567184; stroke-linecap: square"/>
   </g>
   <g id="line2d_13">
    <path d="M 50.906224 115.780541 
L 49.99499 110.814966 
L 49.060466 105.717438 
L 48.125942 100.619911 
L 47.516391 97.296795 
L 46.90684 93.973679 
L 46.297289 90.650564 
L 45.687738 87.327448 
L 44.899142 83.027091 
L 44.110547 78.726734 
L 43.321951 74.426378 
L 42.533355 70.126021 
L 41.426338 64.089945 
L 40.31932 58.053869 
" clip-path="url(#pf3d0f7a700)" style="fill: none; stroke: #808080; stroke-width: 0.567184; stroke-linecap: square"/>
   </g>
   <g id="line2d_14">
    <path d="M 46.114241 114.551301 
L 43.574505 112.132877 
L 41.034769 109.714454 
L 38.495033 107.29603 
L 35.955297 104.877606 
L 33.415561 102.459183 
L 30.875825 100.040759 
L 28.336089 97.622336 
L 25.796353 95.203912 
" clip-path="url(#pf3d0f7a700)" style="fill: none; stroke: #808080; stroke-width: 0.567184; stroke-linecap: square"/>
   </g>
   <g id="line2d_15">
    <path d="M 60.079697 109.426986 
L 58.800913 104.826512 
L 57.522129 100.226038 
" clip-path="url(#pf3d0f7a700)" style="fill: none; stroke: #808080; stroke-width: 0.567184; stroke-linecap: square"/>
   </g>
   <g id="line2d_16">
    <path d="M 63.08997 119.820466 
L 66.477255 117.585709 
L 69.86454 115.350952 
L 73.251825 113.116195 
L 76.63911 110.881438 
" clip-path="url(#pf3d0f7a700)" style="fill: none; stroke: #808080; stroke-width: 0.567184; stroke-linecap: square"/>
   </g>
   <g id="line2d_17">
    <path d="M 64.119111 116.042462 
L 68.658539 112.8637 
L 73.197966 109.684938 
" clip-path="url(#pf3d0f7a700)" style="fill: none; stroke: #808080; stroke-width: 0.567184; stroke-linecap: square"/>
   </g>
   <g id="line2d_18">
    <path d="M 74.525514 119.181539 
L 76.923689 116.907097 
L 79.321864 114.632655 
" clip-path="url(#pf3d0f7a700)" style="fill: none; stroke: #808080; stroke-width: 0.567184; stroke-linecap: square"/>
   </g>
   <g id="line2d_19">
    <path d="M 44.211714 56.336504 
L 44.946314 57.954905 
L 45.680914 59.573306 
L 46.415514 61.191706 
L 47.150115 62.810107 
L 47.884715 64.428507 
L 48.619315 66.046908 
L 49.353915 67.665308 
L 50.088515 69.283709 
L 50.823116 70.902109 
L 51.557716 72.52051 
L 52.292316 74.13891 
L 53.026916 75.757311 
L 53.761516 77.375711 
L 54.496116 78.994112 
L 55.230717 80.612512 
L 55.965317 82.230913 
L 56.699917 83.849313 
L 57.434517 85.467714 
L 58.169117 87.086114 
L 58.903718 88.704515 
L 59.638318 90.322915 
L 60.372918 91.941316 
L 61.107518 93.559716 
L 61.842118 95.178117 
L 62.576719 96.796517 
L 63.311319 98.414918 
L 64.045919 100.033318 
L 64.780519 101.651719 
L 65.515119 103.270119 
L 66.249719 104.88852 
L 66.98432 106.50692 
L 67.71892 108.125321 
" clip-path="url(#pf3d0f7a700)" style="fill: none; stroke: #4169e1; stroke-width: 0.567184; stroke-linecap: square"/>
   </g>
   <g id="line2d_20">
    <path d="M 48.727124 54.924714 
L 49.200936 56.013072 
L 49.674748 57.101431 
L 50.148561 58.18979 
L 50.622373 59.278149 
L 51.158778 60.54261 
L 51.695183 61.80707 
L 51.928086 63.228782 
L 52.160989 64.650495 
L 52.196653 66.160506 
L 52.232316 67.670517 
L 52.447751 68.970198 
L 52.769449 69.707345 
L 53.449235 70.795704 
L 54.195981 71.693575 
L 55.737508 72.376156 
L 56.714246 72.886107 
L 57.690984 73.396058 
L 58.957394 74.447708 
L 60.084063 75.500351 
L 60.995297 76.624426 
L 61.94365 77.976193 
L 62.892002 79.327961 
L 63.455337 80.188256 
L 64.018671 81.04855 
L 64.582006 81.908845 
L 65.14534 82.769139 
L 65.708675 83.629434 
L 66.272009 84.489728 
L 66.835344 85.350023 
L 67.398678 86.210318 
L 68.373232 87.851785 
L 69.347786 89.493252 
L 70.32234 91.13472 
L 71.296894 92.776187 
L 72.039273 94.250978 
L 72.781652 95.725769 
L 73.524031 97.200559 
L 74.26641 98.67535 
L 74.838478 100.079948 
L 75.410546 101.484546 
L 75.982615 102.889144 
L 76.554683 104.293742 
" clip-path="url(#pf3d0f7a700)" style="fill: none; stroke: #4169e1; stroke-width: 0.567184; stroke-linecap: square"/>
   </g>
   <g id="line2d_21">
    <path d="M 50.194413 54.832446 
L 50.72354 55.887073 
L 51.252667 56.941699 
L 51.781794 57.996326 
L 52.310921 59.050953 
L 53.089691 60.212233 
L 53.868461 61.373513 
L 54.56899 62.061302 
L 55.269519 62.749091 
L 55.970048 63.43688 
L 56.670577 64.124669 
L 57.480279 64.720687 
L 58.289981 65.316705 
L 59.099684 65.912723 
L 59.909386 66.508741 
L 60.859194 67.120137 
L 61.809002 67.731532 
L 62.758811 68.342928 
L 63.708619 68.954324 
L 64.892058 69.963313 
L 66.075497 70.972302 
L 66.682501 71.766992 
L 67.289505 72.561683 
L 67.896509 73.356373 
L 68.503512 74.151064 
L 69.468605 75.7712 
L 70.433697 77.391337 
L 71.13459 78.782045 
L 71.835483 80.172754 
L 72.536376 81.563462 
L 73.237269 82.95417 
L 73.735463 84.20747 
L 74.233658 85.460769 
L 74.731852 86.714068 
L 75.230046 87.967367 
L 75.556839 89.587504 
L 75.883631 91.207641 
L 76.210423 92.827777 
L 76.537215 94.447914 
L 76.677321 95.578934 
L 76.817427 96.709954 
L 76.957533 97.840975 
L 77.097639 98.971995 
L 77.253393 100.148901 
L 77.409147 101.325806 
L 77.564901 102.502712 
L 77.720654 103.679618 
" clip-path="url(#pf3d0f7a700)" style="fill: none; stroke: #4169e1; stroke-width: 0.567184; stroke-linecap: square"/>
   </g>
   <g id="line2d_22">
    <path d="M 41.91034 48.229868 
L 41.964562 47.058915 
L 42.018785 45.887962 
L 42.073008 44.717009 
L 42.127231 43.546056 
L 42.316828 42.215619 
L 42.506426 40.885182 
L 42.696024 39.554745 
L 42.885622 38.224309 
L 43.156735 37.133221 
L 43.427849 36.042134 
L 43.698963 34.951047 
L 43.970077 33.85996 
L 44.376566 32.742333 
L 44.783054 31.624707 
L 45.189543 30.50708 
L 45.596032 29.389454 
L 46.599335 28.24504 
L 47.602638 27.100626 
L 48.605941 25.956213 
L 49.609244 24.811799 
L 50.829075 23.986849 
L 52.048905 23.161898 
L 53.268735 22.336948 
L 54.488565 21.511998 
L 56.250623 20.926645 
L 58.012681 20.341293 
L 59.774739 19.75594 
L 61.536797 19.170588 
L 62.675293 18.984317 
L 63.813789 18.798046 
L 64.952285 18.611775 
L 66.090781 18.425504 
L 67.229277 18.239233 
L 68.367773 18.052961 
L 69.50627 17.86669 
L 70.644766 17.680419 
L 71.715392 17.680419 
L 72.786019 17.680419 
L 73.856646 17.680419 
L 74.927272 17.680419 
L 75.997899 17.680419 
L 77.068526 17.680419 
L 78.139152 17.680419 
L 79.209779 17.680419 
L 80.944907 17.920017 
L 82.680036 18.159615 
L 84.415164 18.399212 
L 86.150293 18.63881 
L 87.424346 18.865014 
L 88.698399 19.091218 
L 89.972452 19.317422 
L 91.246505 19.543626 
L 92.317132 19.996034 
L 93.387758 20.448442 
L 94.349939 21.326471 
L 94.878338 22.630121 
L 95.325585 23.761141 
L 95.772832 24.892161 
L 96.220079 26.023181 
L 96.667326 27.154201 
L 97.480303 28.670661 
L 98.293281 30.187121 
L 99.0524 31.118724 
L 99.811518 32.050328 
L 101.546647 32.795412 
L 102.929145 33.088088 
L 104.311644 33.380764 
L 105.694142 33.673441 
L 107.076641 33.966117 
L 108.757183 34.498391 
L 110.437724 35.030665 
L 111.689579 35.770292 
L 112.941433 36.50992 
L 114.074653 37.792735 
L 115.207872 39.07555 
L 116.075436 40.193176 
L 116.943001 41.310803 
" clip-path="url(#pf3d0f7a700)" style="fill: none; stroke: #008000; stroke-width: 0.567184; stroke-linecap: square"/>
   </g>
   <g id="line2d_23">
    <path d="M 44.614927 48.129664 
L 45.315456 47.289088 
L 46.015985 46.448511 
L 46.716514 45.607935 
L 47.417043 44.767359 
L 48.772249 43.595662 
L 50.032837 42.505319 
L 51.294153 41.970317 
L 52.555469 41.435314 
L 53.816785 40.900312 
L 55.078101 40.36531 
L 56.168015 40.12844 
L 57.257929 39.891571 
L 58.347843 39.654702 
L 59.437757 39.417832 
L 60.527671 39.180963 
L 61.617585 38.944094 
L 62.707499 38.707224 
L 63.797413 38.470355 
L 64.941732 38.279371 
L 66.08605 38.088388 
L 67.230369 37.897404 
L 68.374688 37.70642 
L 69.519006 37.515437 
L 70.663325 37.324453 
L 71.807644 37.133469 
L 72.951963 36.942486 
L 74.002756 36.827771 
L 75.05355 36.713057 
L 76.104343 36.598343 
L 77.155137 36.483629 
L 78.20593 36.368915 
L 79.256724 36.2542 
L 80.307517 36.139486 
L 81.358311 36.024772 
L 83.086525 36.345724 
L 84.814739 36.666676 
L 86.542953 36.987627 
L 88.271167 37.308579 
L 89.656941 37.538007 
L 91.042715 37.767436 
L 92.428488 37.996864 
L 93.814262 38.226293 
L 95.121795 38.287308 
L 96.429328 38.348324 
L 97.736861 38.409339 
L 99.044394 38.470355 
L 100.258765 38.256304 
L 101.473137 38.042254 
L 102.687508 37.828203 
L 103.90188 37.614153 
L 105.116251 37.507252 
L 106.330623 37.40035 
L 107.544995 37.293449 
L 108.759366 37.186548 
L 110.658982 37.614649 
L 112.558599 38.04275 
L 113.883235 38.55915 
L 115.207872 39.07555 
" clip-path="url(#pf3d0f7a700)" style="fill: none; stroke: #008000; stroke-width: 0.567184; stroke-linecap: square"/>
   </g>
   <g id="line2d_24">
    <path d="M 48.772249 43.595662 
L 49.053916 42.293005 
L 49.335583 40.990347 
L 49.878175 39.936217 
L 50.420766 38.882086 
L 50.963358 37.827955 
L 51.505949 36.773825 
L 52.320019 35.928288 
L 53.134088 35.082751 
L 53.948157 34.237215 
L 54.762227 33.391678 
L 56.012989 32.824183 
L 57.263752 32.256689 
L 58.514515 31.689195 
L 59.765277 31.121701 
L 61.228564 30.635064 
L 62.691851 30.148428 
L 64.155138 29.661792 
L 65.618425 29.175155 
L 67.199619 28.943495 
L 68.780813 28.711834 
L 70.362007 28.480173 
L 71.943201 28.248513 
L 73.571339 28.341276 
L 75.199478 28.43404 
L 76.827616 28.526803 
L 78.455755 28.619567 
L 79.482348 28.822208 
L 80.508942 29.024849 
L 81.535535 29.22749 
L 82.562129 29.430131 
L 83.588722 29.632772 
L 84.615316 29.835413 
L 85.641909 30.038054 
L 86.668502 30.240695 
L 88.438202 30.785123 
L 90.207902 31.32955 
L 91.977602 31.873978 
L 93.747302 32.418405 
L 94.785541 32.55755 
L 95.82378 32.696696 
L 96.862018 32.835841 
L 97.900257 32.974986 
L 99.723452 32.885199 
L 101.546647 32.795412 
" clip-path="url(#pf3d0f7a700)" style="fill: none; stroke: #008000; stroke-width: 0.567184; stroke-linecap: square"/>
   </g>
   <g id="line2d_25">
    <path d="M 50.214792 52.708311 
L 51.630407 52.89359 
L 53.046021 53.078869 
L 54.461636 53.264148 
L 55.87725 53.449427 
L 57.422599 53.345254 
L 58.967948 53.241081 
L 60.513297 53.136908 
L 62.058645 53.032735 
L 63.603994 52.928562 
L 65.149343 52.824389 
L 66.694692 52.720216 
L 68.240041 52.616044 
L 69.56122 52.511747 
L 70.8824 52.40745 
L 72.203579 52.303153 
L 73.524759 52.198856 
L 74.845938 52.094559 
L 76.167118 51.990262 
L 77.488297 51.885965 
L 78.809477 51.781668 
L 79.812052 51.758601 
L 80.814627 51.735534 
L 81.817203 51.712468 
L 82.819778 51.689401 
L 83.822353 51.666334 
L 84.824928 51.643267 
L 85.827504 51.6202 
L 86.830079 51.597133 
L 88.339946 51.365473 
L 89.849814 51.133812 
L 91.359681 50.902151 
L 92.869549 50.670491 
L 94.072639 50.114654 
L 95.275729 49.558817 
L 96.47882 49.00298 
L 97.68191 48.447143 
L 99.569153 47.937688 
L 101.456397 47.428233 
L 103.34364 47.381603 
L 105.230883 47.334973 
L 107.02351 47.381603 
L 108.816136 47.428233 
L 110.514874 46.826014 
L 112.213611 46.223796 
L 113.534609 45.065988 
L 114.855606 43.908181 
L 115.899303 42.609492 
L 116.943001 41.310803 
" clip-path="url(#pf3d0f7a700)" style="fill: none; stroke: #008000; stroke-width: 0.567184; stroke-linecap: square"/>
   </g>
   <g id="line2d_26">
    <path d="M 50.41276 54.078433 
L 52.158078 54.199472 
L 53.903396 54.320511 
L 55.361952 54.885029 
L 56.820508 55.449547 
L 58.279064 56.437205 
L 59.73762 57.424863 
L 61.400694 58.392679 
L 63.063768 59.360495 
L 64.892058 59.784132 
L 66.720348 60.207768 
L 67.942361 60.187678 
L 69.164375 60.167587 
L 70.386389 60.147497 
L 71.608402 60.127406 
L 73.251097 59.945848 
L 74.893793 59.764289 
L 76.043752 59.441849 
L 77.193711 59.119409 
L 78.344398 59.078732 
L 79.495085 59.038055 
L 80.850291 59.340653 
L 82.205496 59.64325 
L 83.499564 59.64325 
L 84.793632 59.64325 
L 86.354083 59.038551 
L 87.914534 58.433852 
L 89.126358 58.231955 
L 90.338183 58.030058 
L 91.529628 58.030058 
L 92.721073 58.030058 
L 94.363768 57.385178 
L 96.006463 56.740299 
L 96.971555 55.833002 
L 97.936648 54.925706 
L 99.128093 54.481731 
L 100.319538 54.037756 
L 101.654364 53.614615 
L 102.989191 53.191475 
L 104.170082 52.919385 
L 105.350974 52.647295 
L 106.531866 52.375206 
L 107.712758 52.103116 
L 109.335074 51.739999 
L 110.95739 51.376882 
L 111.737979 50.661065 
L 112.518569 49.945249 
L 113.299158 49.229432 
L 114.079747 48.513615 
L 114.633984 47.374658 
L 115.188221 46.235701 
L 115.742458 45.096744 
L 116.296694 43.957787 
L 116.619847 42.634295 
L 116.943001 41.310803 
" clip-path="url(#pf3d0f7a700)" style="fill: none; stroke: #008000; stroke-width: 0.567184; stroke-linecap: square"/>
   </g>
   <g id="line2d_27">
    <path d="M 43.313581 56.559732 
L 43.391458 57.782028 
L 43.469335 59.004323 
L 43.547212 60.226618 
L 43.625089 61.448914 
L 43.391458 62.762981 
L 43.157827 64.077047 
L 42.924196 65.391114 
L 42.690565 66.705181 
L 42.067913 68.156657 
L 41.445261 69.608133 
L 40.822609 71.059609 
L 40.199957 72.511084 
L 39.261794 73.797868 
L 38.323631 75.084651 
L 37.301041 76.487017 
L 36.27845 77.889383 
L 35.406519 78.943761 
L 34.534588 79.99814 
L 33.662657 81.052519 
L 32.790726 82.106897 
L 31.965739 83.145898 
L 31.140752 84.184899 
L 30.315766 85.223899 
L 29.490779 86.2629 
L 28.82191 87.439558 
L 28.153042 88.616216 
L 28.043868 89.792873 
L 27.934695 90.969531 
L 28.292784 92.283598 
L 28.650872 93.597665 
" clip-path="url(#pf3d0f7a700)" style="fill: none; stroke: #008000; stroke-width: 0.567184; stroke-linecap: square"/>
   </g>
   <g id="line2d_28">
    <path d="M 23.888003 96.224806 
L 24.526303 97.46248 
L 25.164603 98.700153 
L 25.802903 99.937826 
L 26.441203 101.1755 
L 27.234894 101.931869 
L 28.028584 102.688239 
L 28.822274 103.444609 
L 29.615965 104.200979 
L 30.409655 104.957348 
L 31.203345 105.713718 
L 31.997035 106.470088 
L 32.790726 107.226457 
L 34.098258 108.295966 
L 35.405791 109.365474 
L 36.713324 110.434983 
L 38.020857 111.504491 
L 39.312742 112.482477 
L 40.604626 113.460462 
L 41.896511 114.438447 
L 43.188396 115.416432 
L 44.496292 115.966564 
L 45.804189 116.516696 
L 47.173951 116.699743 
L 48.543712 116.88279 
" clip-path="url(#pf3d0f7a700)" style="fill: none; stroke: #008000; stroke-width: 0.567184; stroke-linecap: square"/>
   </g>
   <g id="line2d_29">
    <path d="M 38.146042 56.132127 
L 37.531214 57.125242 
L 36.916387 58.118357 
L 36.301559 59.111472 
L 35.686731 60.104587 
L 35.071903 61.097702 
L 34.457075 62.090817 
L 33.842247 63.083932 
L 33.227419 64.077047 
L 32.604767 64.993769 
L 31.982115 65.910491 
L 31.359463 66.827212 
L 30.736811 67.743934 
L 30.114159 68.660655 
L 29.491507 69.577377 
L 28.868855 70.494099 
L 28.246203 71.41082 
L 27.38992 72.92356 
L 26.533637 74.436299 
L 25.677354 75.949038 
L 24.821071 77.461778 
L 24.32324 78.500778 
L 23.82541 79.539779 
L 23.327579 80.57878 
L 22.829749 81.617781 
L 22.814101 82.870832 
L 22.798453 84.123883 
L 22.782804 85.376934 
L 22.767156 86.629986 
L 23.171826 87.867659 
L 23.576495 89.105332 
L 23.981164 90.343006 
L 24.385833 91.580679 
" clip-path="url(#pf3d0f7a700)" style="fill: none; stroke: #008000; stroke-width: 0.567184; stroke-linecap: square"/>
   </g>
   <g id="line2d_30">
    <path d="M 38.323631 75.084651 
L 38.520871 76.388797 
L 38.718111 77.692942 
L 39.201385 78.856207 
L 39.684659 80.019471 
L 40.238896 81.0989 
L 40.793132 82.17833 
L 41.347369 83.25776 
L 41.901606 84.33719 
L 42.455842 85.416619 
L 43.010079 86.496049 
L 43.564316 87.575479 
L 44.118553 88.654909 
L 44.713911 89.669974 
L 45.30927 90.68504 
L 45.904629 91.700106 
L 46.499987 92.715172 
L 47.095346 93.730237 
L 47.690705 94.745303 
L 48.286063 95.760369 
L 48.881422 96.775435 
L 49.897462 98.40202 
L 50.913502 100.028606 
" clip-path="url(#pf3d0f7a700)" style="fill: none; stroke: #4169e1; stroke-width: 0.567184; stroke-linecap: square"/>
   </g>
   <g id="line2d_31">
    <path d="M 37.467712 54.39492 
L 36.394902 54.236924 
L 35.322092 54.078929 
L 34.249282 53.920933 
L 33.176471 53.762938 
L 32.157156 53.657525 
L 31.137841 53.552112 
L 30.118526 53.446698 
L 29.099211 53.341285 
L 28.098455 53.832882 
L 27.097699 54.324479 
L 26.954318 55.447562 
L 26.810937 56.570645 
L 27.347342 58.150601 
L 27.883747 59.730557 
L 27.669768 61.415182 
L 26.668284 62.047164 
L 25.559811 61.801118 
L 24.451337 61.555071 
L 22.913449 61.099191 
L 21.37556 60.64331 
L 19.515246 60.221658 
L 18.15713 61.344741 
L 18.336174 62.749091 
L 18.515218 64.153441 
L 18.693899 65.50496 
L 18.872579 66.85648 
L 19.051259 68.207999 
L 19.22994 69.559519 
L 19.104754 70.91079 
L 18.979569 72.262062 
L 18.854383 73.613333 
L 18.729198 74.964604 
L 18.335446 76.649725 
L 17.941694 78.334846 
L 16.225489 79.177158 
L 14.580611 79.106718 
L 13.328756 79.212379 
L 12.076902 79.31804 
L 11.790868 80.265517 
L 11.504833 81.212995 
L 11.969912 83.00328 
L 12.43499 84.793566 
L 13.114776 86.513907 
L 13.794562 88.234248 
L 14.258913 89.322111 
L 14.723264 90.409974 
L 14.795318 92.095095 
L 14.867373 93.780215 
L 14.938699 95.394896 
L 15.010026 97.009576 
L 15.439441 98.133155 
L 15.868856 99.256734 
L 16.833949 99.88822 
L 17.799041 100.519706 
L 18.371109 102.064442 
L 18.943178 103.609177 
L 19.658627 105.048252 
L 20.374076 106.487326 
L 20.838791 107.69846 
L 21.303506 108.909594 
L 21.76822 110.120728 
L 22.232935 111.331862 
" clip-path="url(#pf3d0f7a700)" style="fill: none; stroke: #008000; stroke-width: 0.567184; stroke-linecap: square"/>
   </g>
   <g id="line2d_32">
    <path d="M 40.828796 47.233777 
L 39.559473 46.829983 
L 38.290151 46.426189 
L 37.020829 46.022395 
L 35.751507 45.618601 
L 34.106264 45.495825 
L 32.461022 45.37305 
L 30.81578 45.250275 
L 29.170537 45.1275 
L 28.187249 45.197692 
L 27.203961 45.267885 
L 26.220673 45.338078 
L 25.237385 45.408271 
L 24.236266 45.636459 
L 23.235146 45.864647 
L 22.234026 46.092835 
L 21.232907 46.321024 
L 20.356609 46.917786 
L 19.480311 47.514548 
L 18.604012 48.111309 
L 17.727714 48.708071 
L 16.940938 49.76121 
L 16.154162 50.814348 
L 15.367387 51.867487 
L 14.580611 52.920625 
L 13.954683 54.447502 
L 13.328756 55.97438 
L 12.702829 57.501257 
L 12.076902 59.028134 
L 11.790868 60.151465 
L 11.504833 61.274796 
L 11.218799 62.398127 
L 10.932765 63.521459 
L 10.646731 64.64479 
L 10.360697 65.768121 
L 10.074662 66.891452 
L 9.788628 68.014783 
L 9.368493 69.532979 
L 8.948357 71.051176 
L 8.528222 72.569372 
L 8.108086 74.087568 
L 7.687951 75.605764 
L 7.267816 77.12396 
L 6.84768 78.642156 
L 6.427545 80.160352 
L 6.212837 81.810253 
L 5.998129 83.460153 
L 5.783422 85.110053 
L 5.568714 86.759954 
L 5.702816 87.760386 
L 5.836917 88.760818 
L 5.971018 89.76125 
L 6.105119 90.761682 
L 6.239221 91.762113 
L 6.373322 92.762545 
L 6.507423 93.762977 
L 6.641524 94.763409 
L 7.097505 95.649747 
L 7.553486 96.536085 
L 8.009467 97.422423 
L 8.465447 98.308761 
L 8.921428 99.195098 
L 9.377409 100.081436 
L 9.833389 100.967774 
L 10.28937 101.854112 
L 11.085062 102.450874 
L 11.880754 103.047636 
L 12.676445 103.644398 
L 13.472137 104.24116 
L 14.267829 104.837921 
L 15.063521 105.434683 
L 15.859212 106.031445 
L 16.654904 106.628207 
L 18.049412 107.804121 
L 19.443919 108.980035 
L 20.838427 110.155948 
L 22.232935 111.331862 
L 23.162728 112.227005 
L 24.092521 113.122148 
L 25.022314 114.017291 
L 25.952107 114.912434 
L 26.935759 115.421393 
L 27.919411 115.930352 
L 28.903063 116.439311 
L 29.886714 116.94827 
L 31.245559 117.158848 
L 32.604403 117.369426 
L 33.963247 117.580004 
L 35.322092 117.790582 
L 36.394902 117.816997 
L 37.467712 117.843413 
L 38.540522 117.869828 
L 39.613332 117.896243 
L 40.686142 117.922659 
L 41.758953 117.949074 
L 42.831763 117.975489 
L 43.904573 118.001904 
L 45.064358 117.722126 
L 46.224143 117.442347 
L 47.383927 117.162568 
L 48.543712 116.88279 
" clip-path="url(#pf3d0f7a700)" style="fill: none; stroke: #008000; stroke-width: 0.567184; stroke-linecap: square"/>
   </g>
   <g id="line2d_33">
    <path d="M 28.650872 93.597665 
L 29.444926 94.422615 
L 30.23898 95.247565 
L 31.242829 95.927542 
L 32.246678 96.607518 
L 33.250527 97.287494 
L 34.254376 97.96747 
L 35.258225 98.647447 
L 36.262074 99.327423 
L 37.265923 100.007399 
L 38.269772 100.687375 
L 39.164812 101.245072 
L 40.059851 101.802769 
L 40.954891 102.360467 
L 41.84993 102.918164 
L 42.74497 103.475861 
L 43.640009 104.033558 
L 44.535049 104.591255 
L 45.430088 105.148952 
L 46.706689 105.851623 
L 47.983289 106.554294 
L 49.25989 107.256965 
L 50.53649 107.959636 
L 51.361113 108.693063 
L 52.185735 109.42649 
L 53.010358 110.159917 
L 53.834981 110.893344 
L 54.457997 112.635512 
L 55.081013 114.377679 
L 55.049716 115.569219 
L 55.01842 116.760759 
" clip-path="url(#pf3d0f7a700)" style="fill: none; stroke: #008000; stroke-width: 0.567184; stroke-linecap: square"/>
   </g>
   <g id="line2d_34">
    <path d="M 50.913502 100.028606 
L 51.503402 101.362515 
L 52.093302 102.696424 
L 52.683202 104.030333 
L 53.273102 105.364243 
L 53.413572 106.746518 
L 53.554041 108.128793 
L 53.694511 109.511068 
L 53.834981 110.893344 
" clip-path="url(#pf3d0f7a700)" style="fill: none; stroke: #008000; stroke-width: 0.567184; stroke-linecap: square"/>
   </g>
   <g id="line2d_35">
    <path d="M 75.040813 110.34966 
L 73.689247 111.210947 
L 72.33768 112.072234 
L 70.986114 112.93352 
L 69.634548 113.794807 
L 68.282982 114.656094 
L 66.931416 115.517381 
L 65.57985 116.378667 
L 64.228284 117.239954 
" clip-path="url(#pf3d0f7a700)" style="fill: none; stroke: #008000; stroke-width: 0.567184; stroke-linecap: square"/>
   </g>
   <g id="line2d_36">
    <path d="M 78.86188 114.047302 
L 77.703187 115.171378 
L 76.544494 116.295453 
L 75.3858 117.419528 
L 74.227107 118.543604 
" clip-path="url(#pf3d0f7a700)" style="fill: none; stroke: #008000; stroke-width: 0.567184; stroke-linecap: square"/>
   </g>
   <g id="text_1">
    <g id="patch_2">
     <path d="M 86.185137 46.893908 
L 103.279975 43.64108 
L 102.910677 41.700278 
L 85.815839 44.953106 
z
" style="fill: #ffffff"/>
    </g>
    <!-- Homestead Chair -->
    <g style="fill: #808080" transform="translate(86.123296 46.461916)rotate(-10.77352)scale(0.02 -0.02)">
     <defs>
      <path id="DejaVuSans-48" d="M 628 4666 
L 1259 4666 
L 1259 2753 
L 3553 2753 
L 3553 4666 
L 4184 4666 
L 4184 0 
L 3553 0 
L 3553 2222 
L 1259 2222 
L 1259 0 
L 628 0 
L 628 4666 
z
" transform="scale(0.015625)"/>
      <path id="DejaVuSans-6f" d="M 1959 3097 
Q 1497 3097 1228 2736 
Q 959 2375 959 1747 
Q 959 1119 1226 758 
Q 1494 397 1959 397 
Q 2419 397 2687 759 
Q 2956 1122 2956 1747 
Q 2956 2369 2687 2733 
Q 2419 3097 1959 3097 
z
M 1959 3584 
Q 2709 3584 3137 3096 
Q 3566 2609 3566 1747 
Q 3566 888 3137 398 
Q 2709 -91 1959 -91 
Q 1206 -91 779 398 
Q 353 888 353 1747 
Q 353 2609 779 3096 
Q 1206 3584 1959 3584 
z
" transform="scale(0.015625)"/>
      <path id="DejaVuSans-6d" d="M 3328 2828 
Q 3544 3216 3844 3400 
Q 4144 3584 4550 3584 
Q 5097 3584 5394 3201 
Q 5691 2819 5691 2113 
L 5691 0 
L 5113 0 
L 5113 2094 
Q 5113 2597 4934 2840 
Q 4756 3084 4391 3084 
Q 3944 3084 3684 2787 
Q 3425 2491 3425 1978 
L 3425 0 
L 2847 0 
L 2847 2094 
Q 2847 2600 2669 2842 
Q 2491 3084 2119 3084 
Q 1678 3084 1418 2786 
Q 1159 2488 1159 1978 
L 1159 0 
L 581 0 
L 581 3500 
L 1159 3500 
L 1159 2956 
Q 1356 3278 1631 3431 
Q 1906 3584 2284 3584 
Q 2666 3584 2933 3390 
Q 3200 3197 3328 2828 
z
" transform="scale(0.015625)"/>
      <path id="DejaVuSans-65" d="M 3597 1894 
L 3597 1613 
L 953 1613 
Q 991 1019 1311 708 
Q 1631 397 2203 397 
Q 2534 397 2845 478 
Q 3156 559 3463 722 
L 3463 178 
Q 3153 47 2828 -22 
Q 2503 -91 2169 -91 
Q 1331 -91 842 396 
Q 353 884 353 1716 
Q 353 2575 817 3079 
Q 1281 3584 2069 3584 
Q 2775 3584 3186 3129 
Q 3597 2675 3597 1894 
z
M 3022 2063 
Q 3016 2534 2758 2815 
Q 2500 3097 2075 3097 
Q 1594 3097 1305 2825 
Q 1016 2553 972 2059 
L 3022 2063 
z
" transform="scale(0.015625)"/>
      <path id="DejaVuSans-73" d="M 2834 3397 
L 2834 2853 
Q 2591 2978 2328 3040 
Q 2066 3103 1784 3103 
Q 1356 3103 1142 2972 
Q 928 2841 928 2578 
Q 928 2378 1081 2264 
Q 1234 2150 1697 2047 
L 1894 2003 
Q 2506 1872 2764 1633 
Q 3022 1394 3022 966 
Q 3022 478 2636 193 
Q 2250 -91 1575 -91 
Q 1294 -91 989 -36 
Q 684 19 347 128 
L 347 722 
Q 666 556 975 473 
Q 1284 391 1588 391 
Q 1994 391 2212 530 
Q 2431 669 2431 922 
Q 2431 1156 2273 1281 
Q 2116 1406 1581 1522 
L 1381 1569 
Q 847 1681 609 1914 
Q 372 2147 372 2553 
Q 372 3047 722 3315 
Q 1072 3584 1716 3584 
Q 2034 3584 2315 3537 
Q 2597 3491 2834 3397 
z
" transform="scale(0.015625)"/>
      <path id="DejaVuSans-74" d="M 1172 4494 
L 1172 3500 
L 2356 3500 
L 2356 3053 
L 1172 3053 
L 1172 1153 
Q 1172 725 1289 603 
Q 1406 481 1766 481 
L 2356 481 
L 2356 0 
L 1766 0 
Q 1100 0 847 248 
Q 594 497 594 1153 
L 594 3053 
L 172 3053 
L 172 3500 
L 594 3500 
L 594 4494 
L 1172 4494 
z
" transform="scale(0.015625)"/>
      <path id="DejaVuSans-61" d="M 2194 1759 
Q 1497 1759 1228 1600 
Q 959 1441 959 1056 
Q 959 750 1161 570 
Q 1363 391 1709 391 
Q 2188 391 2477 730 
Q 2766 1069 2766 1631 
L 2766 1759 
L 2194 1759 
z
M 3341 1997 
L 3341 0 
L 2766 0 
L 2766 531 
Q 2569 213 2275 61 
Q 1981 -91 1556 -91 
Q 1019 -91 701 211 
Q 384 513 384 1019 
Q 384 1609 779 1909 
Q 1175 2209 1959 2209 
L 2766 2209 
L 2766 2266 
Q 2766 2663 2505 2880 
Q 2244 3097 1772 3097 
Q 1472 3097 1187 3025 
Q 903 2953 641 2809 
L 641 3341 
Q 956 3463 1253 3523 
Q 1550 3584 1831 3584 
Q 2591 3584 2966 3190 
Q 3341 2797 3341 1997 
z
" transform="scale(0.015625)"/>
      <path id="DejaVuSans-64" d="M 2906 2969 
L 2906 4863 
L 3481 4863 
L 3481 0 
L 2906 0 
L 2906 525 
Q 2725 213 2448 61 
Q 2172 -91 1784 -91 
Q 1150 -91 751 415 
Q 353 922 353 1747 
Q 353 2572 751 3078 
Q 1150 3584 1784 3584 
Q 2172 3584 2448 3432 
Q 2725 3281 2906 2969 
z
M 947 1747 
Q 947 1113 1208 752 
Q 1469 391 1925 391 
Q 2381 391 2643 752 
Q 2906 1113 2906 1747 
Q 2906 2381 2643 2742 
Q 2381 3103 1925 3103 
Q 1469 3103 1208 2742 
Q 947 2381 947 1747 
z
" transform="scale(0.015625)"/>
      <path id="DejaVuSans-20" transform="scale(0.015625)"/>
      <path id="DejaVuSans-43" d="M 4122 4306 
L 4122 3641 
Q 3803 3938 3442 4084 
Q 3081 4231 2675 4231 
Q 1875 4231 1450 3742 
Q 1025 3253 1025 2328 
Q 1025 1406 1450 917 
Q 1875 428 2675 428 
Q 3081 428 3442 575 
Q 3803 722 4122 1019 
L 4122 359 
Q 3791 134 3420 21 
Q 3050 -91 2638 -91 
Q 1578 -91 968 557 
Q 359 1206 359 2328 
Q 359 3453 968 4101 
Q 1578 4750 2638 4750 
Q 3056 4750 3426 4639 
Q 3797 4528 4122 4306 
z
" transform="scale(0.015625)"/>
      <path id="DejaVuSans-68" d="M 3513 2113 
L 3513 0 
L 2938 0 
L 2938 2094 
Q 2938 2591 2744 2837 
Q 2550 3084 2163 3084 
Q 1697 3084 1428 2787 
Q 1159 2491 1159 1978 
L 1159 0 
L 581 0 
L 581 4863 
L 1159 4863 
L 1159 2956 
Q 1366 3272 1645 3428 
Q 1925 3584 2291 3584 
Q 2894 3584 3203 3211 
Q 3513 2838 3513 2113 
z
" transform="scale(0.015625)"/>
      <path id="DejaVuSans-69" d="M 603 3500 
L 1178 3500 
L 1178 0 
L 603 0 
L 603 3500 
z
M 603 4863 
L 1178 4863 
L 1178 4134 
L 603 4134 
L 603 4863 
z
" transform="scale(0.015625)"/>
      <path id="DejaVuSans-72" d="M 2631 2963 
Q 2534 3019 2420 3045 
Q 2306 3072 2169 3072 
Q 1681 3072 1420 2755 
Q 1159 2438 1159 1844 
L 1159 0 
L 581 0 
L 581 3500 
L 1159 3500 
L 1159 2956 
Q 1341 3275 1631 3429 
Q 1922 3584 2338 3584 
Q 2397 3584 2469 3576 
Q 2541 3569 2628 3553 
L 2631 2963 
z
" transform="scale(0.015625)"/>
     </defs>
     <use xlink:href="#DejaVuSans-48"/>
     <use xlink:href="#DejaVuSans-6f" x="75.195312"/>
     <use xlink:href="#DejaVuSans-6d" x="136.376953"/>
     <use xlink:href="#DejaVuSans-65" x="233.789062"/>
     <use xlink:href="#DejaVuSans-73" x="295.3125"/>
     <use xlink:href="#DejaVuSans-74" x="347.412109"/>
     <use xlink:href="#DejaVuSans-65" x="386.621094"/>
     <use xlink:href="#DejaVuSans-61" x="448.144531"/>
     <use xlink:href="#DejaVuSans-64" x="509.423828"/>
     <use xlink:href="#DejaVuSans-20" x="572.900391"/>
     <use xlink:href="#DejaVuSans-43" x="604.6875"/>
     <use xlink:href="#DejaVuSans-68" x="674.511719"/>
     <use xlink:href="#DejaVuSans-61" x="737.890625"/>
     <use xlink:href="#DejaVuSans-69" x="799.169922"/>
     <use xlink:href="#DejaVuSans-72" x="826.953125"/>
    </g>
   </g>
   <g id="text_2">
    <g id="patch_3">
     <path d="M 85.981139 45.17735 
L 102.947324 41.984163 
L 102.581909 40.042625 
L 85.615725 43.235813 
z
" style="fill: #ffffff"/>
    </g>
    <!-- North Forty Chair -->
    <g style="fill: #808080" transform="translate(85.920163 44.745235)rotate(-10.658891)scale(0.02 -0.02)">
     <defs>
      <path id="DejaVuSans-4e" d="M 628 4666 
L 1478 4666 
L 3547 763 
L 3547 4666 
L 4159 4666 
L 4159 0 
L 3309 0 
L 1241 3903 
L 1241 0 
L 628 0 
L 628 4666 
z
" transform="scale(0.015625)"/>
      <path id="DejaVuSans-46" d="M 628 4666 
L 3309 4666 
L 3309 4134 
L 1259 4134 
L 1259 2759 
L 3109 2759 
L 3109 2228 
L 1259 2228 
L 1259 0 
L 628 0 
L 628 4666 
z
" transform="scale(0.015625)"/>
      <path id="DejaVuSans-79" d="M 2059 -325 
Q 1816 -950 1584 -1140 
Q 1353 -1331 966 -1331 
L 506 -1331 
L 506 -850 
L 844 -850 
Q 1081 -850 1212 -737 
Q 1344 -625 1503 -206 
L 1606 56 
L 191 3500 
L 800 3500 
L 1894 763 
L 2988 3500 
L 3597 3500 
L 2059 -325 
z
" transform="scale(0.015625)"/>
     </defs>
     <use xlink:href="#DejaVuSans-4e"/>
     <use xlink:href="#DejaVuSans-6f" x="74.804688"/>
     <use xlink:href="#DejaVuSans-72" x="135.986328"/>
     <use xlink:href="#DejaVuSans-74" x="177.099609"/>
     <use xlink:href="#DejaVuSans-68" x="216.308594"/>
     <use xlink:href="#DejaVuSans-20" x="279.6875"/>
     <use xlink:href="#DejaVuSans-46" x="311.474609"/>
     <use xlink:href="#DejaVuSans-6f" x="365.369141"/>
     <use xlink:href="#DejaVuSans-72" x="426.550781"/>
     <use xlink:href="#DejaVuSans-74" x="467.664062"/>
     <use xlink:href="#DejaVuSans-79" x="506.873047"/>
     <use xlink:href="#DejaVuSans-20" x="566.052734"/>
     <use xlink:href="#DejaVuSans-43" x="597.839844"/>
     <use xlink:href="#DejaVuSans-68" x="667.664062"/>
     <use xlink:href="#DejaVuSans-61" x="731.042969"/>
     <use xlink:href="#DejaVuSans-69" x="792.322266"/>
     <use xlink:href="#DejaVuSans-72" x="820.105469"/>
    </g>
   </g>
   <g id="text_3">
    <g id="patch_4">
     <path d="M 88.626732 47.412122 
L 102.406237 44.746326 
L 102.030989 42.806665 
L 88.251484 45.472461 
z
" style="fill: #ffffff"/>
    </g>
    <!-- Spillway T-Bar -->
    <g style="fill: #808080" transform="translate(88.563567 46.980321)rotate(-10.949233)scale(0.02 -0.02)">
     <defs>
      <path id="DejaVuSans-53" d="M 3425 4513 
L 3425 3897 
Q 3066 4069 2747 4153 
Q 2428 4238 2131 4238 
Q 1616 4238 1336 4038 
Q 1056 3838 1056 3469 
Q 1056 3159 1242 3001 
Q 1428 2844 1947 2747 
L 2328 2669 
Q 3034 2534 3370 2195 
Q 3706 1856 3706 1288 
Q 3706 609 3251 259 
Q 2797 -91 1919 -91 
Q 1588 -91 1214 -16 
Q 841 59 441 206 
L 441 856 
Q 825 641 1194 531 
Q 1563 422 1919 422 
Q 2459 422 2753 634 
Q 3047 847 3047 1241 
Q 3047 1584 2836 1778 
Q 2625 1972 2144 2069 
L 1759 2144 
Q 1053 2284 737 2584 
Q 422 2884 422 3419 
Q 422 4038 858 4394 
Q 1294 4750 2059 4750 
Q 2388 4750 2728 4690 
Q 3069 4631 3425 4513 
z
" transform="scale(0.015625)"/>
      <path id="DejaVuSans-70" d="M 1159 525 
L 1159 -1331 
L 581 -1331 
L 581 3500 
L 1159 3500 
L 1159 2969 
Q 1341 3281 1617 3432 
Q 1894 3584 2278 3584 
Q 2916 3584 3314 3078 
Q 3713 2572 3713 1747 
Q 3713 922 3314 415 
Q 2916 -91 2278 -91 
Q 1894 -91 1617 61 
Q 1341 213 1159 525 
z
M 3116 1747 
Q 3116 2381 2855 2742 
Q 2594 3103 2138 3103 
Q 1681 3103 1420 2742 
Q 1159 2381 1159 1747 
Q 1159 1113 1420 752 
Q 1681 391 2138 391 
Q 2594 391 2855 752 
Q 3116 1113 3116 1747 
z
" transform="scale(0.015625)"/>
      <path id="DejaVuSans-6c" d="M 603 4863 
L 1178 4863 
L 1178 0 
L 603 0 
L 603 4863 
z
" transform="scale(0.015625)"/>
      <path id="DejaVuSans-77" d="M 269 3500 
L 844 3500 
L 1563 769 
L 2278 3500 
L 2956 3500 
L 3675 769 
L 4391 3500 
L 4966 3500 
L 4050 0 
L 3372 0 
L 2619 2869 
L 1863 0 
L 1184 0 
L 269 3500 
z
" transform="scale(0.015625)"/>
      <path id="DejaVuSans-54" d="M -19 4666 
L 3928 4666 
L 3928 4134 
L 2272 4134 
L 2272 0 
L 1638 0 
L 1638 4134 
L -19 4134 
L -19 4666 
z
" transform="scale(0.015625)"/>
      <path id="DejaVuSans-2d" d="M 313 2009 
L 1997 2009 
L 1997 1497 
L 313 1497 
L 313 2009 
z
" transform="scale(0.015625)"/>
      <path id="DejaVuSans-42" d="M 1259 2228 
L 1259 519 
L 2272 519 
Q 2781 519 3026 730 
Q 3272 941 3272 1375 
Q 3272 1813 3026 2020 
Q 2781 2228 2272 2228 
L 1259 2228 
z
M 1259 4147 
L 1259 2741 
L 2194 2741 
Q 2656 2741 2882 2914 
Q 3109 3088 3109 3444 
Q 3109 3797 2882 3972 
Q 2656 4147 2194 4147 
L 1259 4147 
z
M 628 4666 
L 2241 4666 
Q 2963 4666 3353 4366 
Q 3744 4066 3744 3513 
Q 3744 3084 3544 2831 
Q 3344 2578 2956 2516 
Q 3422 2416 3680 2098 
Q 3938 1781 3938 1306 
Q 3938 681 3513 340 
Q 3088 0 2303 0 
L 628 0 
L 628 4666 
z
" transform="scale(0.015625)"/>
     </defs>
     <use xlink:href="#DejaVuSans-53"/>
     <use xlink:href="#DejaVuSans-70" x="63.476562"/>
     <use xlink:href="#DejaVuSans-69" x="126.953125"/>
     <use xlink:href="#DejaVuSans-6c" x="154.736328"/>
     <use xlink:href="#DejaVuSans-6c" x="182.519531"/>
     <use xlink:href="#DejaVuSans-77" x="210.302734"/>
     <use xlink:href="#DejaVuSans-61" x="292.089844"/>
     <use xlink:href="#DejaVuSans-79" x="353.369141"/>
     <use xlink:href="#DejaVuSans-20" x="412.548828"/>
     <use xlink:href="#DejaVuSans-54" x="444.335938"/>
     <use xlink:href="#DejaVuSans-2d" x="496.294922"/>
     <use xlink:href="#DejaVuSans-42" x="528.753906"/>
     <use xlink:href="#DejaVuSans-61" x="597.357422"/>
     <use xlink:href="#DejaVuSans-72" x="658.636719"/>
    </g>
   </g>
   <g id="text_4">
    <g id="patch_5">
     <path d="M 63.912181 84.99011 
L 68.912657 98.522662 
L 70.765812 97.837894 
L 65.765337 84.305342 
z
" style="fill: #ffffff"/>
    </g>
    <!-- Big Bear Chair -->
    <g style="fill: #808080" transform="translate(64.328027 84.857771)rotate(-290.280008)scale(0.02 -0.02)">
     <defs>
      <path id="DejaVuSans-67" d="M 2906 1791 
Q 2906 2416 2648 2759 
Q 2391 3103 1925 3103 
Q 1463 3103 1205 2759 
Q 947 2416 947 1791 
Q 947 1169 1205 825 
Q 1463 481 1925 481 
Q 2391 481 2648 825 
Q 2906 1169 2906 1791 
z
M 3481 434 
Q 3481 -459 3084 -895 
Q 2688 -1331 1869 -1331 
Q 1566 -1331 1297 -1286 
Q 1028 -1241 775 -1147 
L 775 -588 
Q 1028 -725 1275 -790 
Q 1522 -856 1778 -856 
Q 2344 -856 2625 -561 
Q 2906 -266 2906 331 
L 2906 616 
Q 2728 306 2450 153 
Q 2172 0 1784 0 
Q 1141 0 747 490 
Q 353 981 353 1791 
Q 353 2603 747 3093 
Q 1141 3584 1784 3584 
Q 2172 3584 2450 3431 
Q 2728 3278 2906 2969 
L 2906 3500 
L 3481 3500 
L 3481 434 
z
" transform="scale(0.015625)"/>
     </defs>
     <use xlink:href="#DejaVuSans-42"/>
     <use xlink:href="#DejaVuSans-69" x="68.603516"/>
     <use xlink:href="#DejaVuSans-67" x="96.386719"/>
     <use xlink:href="#DejaVuSans-20" x="159.863281"/>
     <use xlink:href="#DejaVuSans-42" x="191.650391"/>
     <use xlink:href="#DejaVuSans-65" x="260.253906"/>
     <use xlink:href="#DejaVuSans-61" x="321.777344"/>
     <use xlink:href="#DejaVuSans-72" x="383.056641"/>
     <use xlink:href="#DejaVuSans-20" x="424.169922"/>
     <use xlink:href="#DejaVuSans-43" x="455.957031"/>
     <use xlink:href="#DejaVuSans-68" x="525.78125"/>
     <use xlink:href="#DejaVuSans-61" x="589.160156"/>
     <use xlink:href="#DejaVuSans-69" x="650.439453"/>
     <use xlink:href="#DejaVuSans-72" x="678.222656"/>
    </g>
   </g>
   <g id="text_5">
    <g id="patch_6">
     <path d="M 60.779853 83.977969 
L 66.262961 100.383097 
L 68.136699 99.756836 
L 62.65359 83.351708 
z
" style="fill: #ffffff"/>
    </g>
    <!-- Whitewater T-Bar -->
    <g style="fill: #808080" transform="translate(61.199648 83.858748)rotate(-288.481245)scale(0.02 -0.02)">
     <defs>
      <path id="DejaVuSans-57" d="M 213 4666 
L 850 4666 
L 1831 722 
L 2809 4666 
L 3519 4666 
L 4500 722 
L 5478 4666 
L 6119 4666 
L 4947 0 
L 4153 0 
L 3169 4050 
L 2175 0 
L 1381 0 
L 213 4666 
z
" transform="scale(0.015625)"/>
     </defs>
     <use xlink:href="#DejaVuSans-57"/>
     <use xlink:href="#DejaVuSans-68" x="98.876953"/>
     <use xlink:href="#DejaVuSans-69" x="162.255859"/>
     <use xlink:href="#DejaVuSans-74" x="190.039062"/>
     <use xlink:href="#DejaVuSans-65" x="229.248047"/>
     <use xlink:href="#DejaVuSans-77" x="290.771484"/>
     <use xlink:href="#DejaVuSans-61" x="372.558594"/>
     <use xlink:href="#DejaVuSans-74" x="433.837891"/>
     <use xlink:href="#DejaVuSans-65" x="473.046875"/>
     <use xlink:href="#DejaVuSans-72" x="534.570312"/>
     <use xlink:href="#DejaVuSans-20" x="575.683594"/>
     <use xlink:href="#DejaVuSans-54" x="607.470703"/>
     <use xlink:href="#DejaVuSans-2d" x="659.429688"/>
     <use xlink:href="#DejaVuSans-42" x="691.888672"/>
     <use xlink:href="#DejaVuSans-61" x="760.492188"/>
     <use xlink:href="#DejaVuSans-72" x="821.771484"/>
    </g>
   </g>
   <g id="text_6">
    <g id="patch_7">
     <path d="M 48.606766 95.259218 
L 50.327171 108.546429 
L 52.286441 108.292746 
L 50.566036 95.005535 
z
" style="fill: #ffffff"/>
    </g>
    <!-- Sunrise Chair -->
    <g style="fill: #808080" transform="translate(49.041663 95.223076)rotate(-277.377514)scale(0.02 -0.02)">
     <defs>
      <path id="DejaVuSans-75" d="M 544 1381 
L 544 3500 
L 1119 3500 
L 1119 1403 
Q 1119 906 1312 657 
Q 1506 409 1894 409 
Q 2359 409 2629 706 
Q 2900 1003 2900 1516 
L 2900 3500 
L 3475 3500 
L 3475 0 
L 2900 0 
L 2900 538 
Q 2691 219 2414 64 
Q 2138 -91 1772 -91 
Q 1169 -91 856 284 
Q 544 659 544 1381 
z
M 1991 3584 
L 1991 3584 
z
" transform="scale(0.015625)"/>
      <path id="DejaVuSans-6e" d="M 3513 2113 
L 3513 0 
L 2938 0 
L 2938 2094 
Q 2938 2591 2744 2837 
Q 2550 3084 2163 3084 
Q 1697 3084 1428 2787 
Q 1159 2491 1159 1978 
L 1159 0 
L 581 0 
L 581 3500 
L 1159 3500 
L 1159 2956 
Q 1366 3272 1645 3428 
Q 1925 3584 2291 3584 
Q 2894 3584 3203 3211 
Q 3513 2838 3513 2113 
z
" transform="scale(0.015625)"/>
     </defs>
     <use xlink:href="#DejaVuSans-53"/>
     <use xlink:href="#DejaVuSans-75" x="63.476562"/>
     <use xlink:href="#DejaVuSans-6e" x="126.855469"/>
     <use xlink:href="#DejaVuSans-72" x="190.234375"/>
     <use xlink:href="#DejaVuSans-69" x="231.347656"/>
     <use xlink:href="#DejaVuSans-73" x="259.130859"/>
     <use xlink:href="#DejaVuSans-65" x="311.230469"/>
     <use xlink:href="#DejaVuSans-20" x="372.753906"/>
     <use xlink:href="#DejaVuSans-43" x="404.541016"/>
     <use xlink:href="#DejaVuSans-68" x="474.365234"/>
     <use xlink:href="#DejaVuSans-61" x="537.744141"/>
     <use xlink:href="#DejaVuSans-69" x="599.023438"/>
     <use xlink:href="#DejaVuSans-72" x="626.806641"/>
    </g>
   </g>
   <g id="text_7">
    <g id="patch_8">
     <path d="M 46.147442 92.752797 
L 48.144062 108.731977 
L 50.104443 108.487025 
L 48.107823 92.507845 
z
" style="fill: #ffffff"/>
    </g>
    <!-- Snowshoe Chair -->
    <g style="fill: #808080" transform="translate(46.582495 92.718592)rotate(-277.122271)scale(0.02 -0.02)">
     <use xlink:href="#DejaVuSans-53"/>
     <use xlink:href="#DejaVuSans-6e" x="63.476562"/>
     <use xlink:href="#DejaVuSans-6f" x="126.855469"/>
     <use xlink:href="#DejaVuSans-77" x="188.037109"/>
     <use xlink:href="#DejaVuSans-73" x="269.824219"/>
     <use xlink:href="#DejaVuSans-68" x="321.923828"/>
     <use xlink:href="#DejaVuSans-6f" x="385.302734"/>
     <use xlink:href="#DejaVuSans-65" x="446.484375"/>
     <use xlink:href="#DejaVuSans-20" x="508.007812"/>
     <use xlink:href="#DejaVuSans-43" x="539.794922"/>
     <use xlink:href="#DejaVuSans-68" x="609.619141"/>
     <use xlink:href="#DejaVuSans-61" x="672.998047"/>
     <use xlink:href="#DejaVuSans-69" x="734.277344"/>
     <use xlink:href="#DejaVuSans-72" x="762.060547"/>
    </g>
   </g>
   <g id="text_8">
    <g id="patch_9">
     <path d="M 30.678771 99.202849 
L 39.625311 111.702239 
L 41.231824 110.552364 
L 32.285283 98.052974 
z
" style="fill: #ffffff"/>
    </g>
    <!-- Fast Track Pony -->
    <g style="fill: #808080" transform="translate(31.044901 98.965383)rotate(-305.593502)scale(0.02 -0.02)">
     <defs>
      <path id="DejaVuSans-63" d="M 3122 3366 
L 3122 2828 
Q 2878 2963 2633 3030 
Q 2388 3097 2138 3097 
Q 1578 3097 1268 2742 
Q 959 2388 959 1747 
Q 959 1106 1268 751 
Q 1578 397 2138 397 
Q 2388 397 2633 464 
Q 2878 531 3122 666 
L 3122 134 
Q 2881 22 2623 -34 
Q 2366 -91 2075 -91 
Q 1284 -91 818 406 
Q 353 903 353 1747 
Q 353 2603 823 3093 
Q 1294 3584 2113 3584 
Q 2378 3584 2631 3529 
Q 2884 3475 3122 3366 
z
" transform="scale(0.015625)"/>
      <path id="DejaVuSans-6b" d="M 581 4863 
L 1159 4863 
L 1159 1991 
L 2875 3500 
L 3609 3500 
L 1753 1863 
L 3688 0 
L 2938 0 
L 1159 1709 
L 1159 0 
L 581 0 
L 581 4863 
z
" transform="scale(0.015625)"/>
      <path id="DejaVuSans-50" d="M 1259 4147 
L 1259 2394 
L 2053 2394 
Q 2494 2394 2734 2622 
Q 2975 2850 2975 3272 
Q 2975 3691 2734 3919 
Q 2494 4147 2053 4147 
L 1259 4147 
z
M 628 4666 
L 2053 4666 
Q 2838 4666 3239 4311 
Q 3641 3956 3641 3272 
Q 3641 2581 3239 2228 
Q 2838 1875 2053 1875 
L 1259 1875 
L 1259 0 
L 628 0 
L 628 4666 
z
" transform="scale(0.015625)"/>
     </defs>
     <use xlink:href="#DejaVuSans-46"/>
     <use xlink:href="#DejaVuSans-61" x="48.394531"/>
     <use xlink:href="#DejaVuSans-73" x="109.673828"/>
     <use xlink:href="#DejaVuSans-74" x="161.773438"/>
     <use xlink:href="#DejaVuSans-20" x="200.982422"/>
     <use xlink:href="#DejaVuSans-54" x="232.769531"/>
     <use xlink:href="#DejaVuSans-72" x="279.103516"/>
     <use xlink:href="#DejaVuSans-61" x="320.216797"/>
     <use xlink:href="#DejaVuSans-63" x="381.496094"/>
     <use xlink:href="#DejaVuSans-6b" x="436.476562"/>
     <use xlink:href="#DejaVuSans-20" x="494.386719"/>
     <use xlink:href="#DejaVuSans-50" x="526.173828"/>
     <use xlink:href="#DejaVuSans-6f" x="582.851562"/>
     <use xlink:href="#DejaVuSans-6e" x="644.033203"/>
     <use xlink:href="#DejaVuSans-79" x="707.412109"/>
    </g>
   </g>
   <g id="text_9">
    <g id="patch_10">
     <path d="M 45.803176 59.530216 
L 51.017284 76.384291 
L 52.904654 75.8004 
L 47.690546 58.946325 
z
" style="fill: #ffffff"/>
    </g>
    <!-- Whitewater 19.2° -->
    <g style="fill: #4169e1" transform="translate(46.22555 59.420482)rotate(-287.190385)scale(0.02 -0.02)">
     <defs>
      <path id="DejaVuSans-31" d="M 794 531 
L 1825 531 
L 1825 4091 
L 703 3866 
L 703 4441 
L 1819 4666 
L 2450 4666 
L 2450 531 
L 3481 531 
L 3481 0 
L 794 0 
L 794 531 
z
" transform="scale(0.015625)"/>
      <path id="DejaVuSans-39" d="M 703 97 
L 703 672 
Q 941 559 1184 500 
Q 1428 441 1663 441 
Q 2288 441 2617 861 
Q 2947 1281 2994 2138 
Q 2813 1869 2534 1725 
Q 2256 1581 1919 1581 
Q 1219 1581 811 2004 
Q 403 2428 403 3163 
Q 403 3881 828 4315 
Q 1253 4750 1959 4750 
Q 2769 4750 3195 4129 
Q 3622 3509 3622 2328 
Q 3622 1225 3098 567 
Q 2575 -91 1691 -91 
Q 1453 -91 1209 -44 
Q 966 3 703 97 
z
M 1959 2075 
Q 2384 2075 2632 2365 
Q 2881 2656 2881 3163 
Q 2881 3666 2632 3958 
Q 2384 4250 1959 4250 
Q 1534 4250 1286 3958 
Q 1038 3666 1038 3163 
Q 1038 2656 1286 2365 
Q 1534 2075 1959 2075 
z
" transform="scale(0.015625)"/>
      <path id="DejaVuSans-2e" d="M 684 794 
L 1344 794 
L 1344 0 
L 684 0 
L 684 794 
z
" transform="scale(0.015625)"/>
      <path id="DejaVuSans-32" d="M 1228 531 
L 3431 531 
L 3431 0 
L 469 0 
L 469 531 
Q 828 903 1448 1529 
Q 2069 2156 2228 2338 
Q 2531 2678 2651 2914 
Q 2772 3150 2772 3378 
Q 2772 3750 2511 3984 
Q 2250 4219 1831 4219 
Q 1534 4219 1204 4116 
Q 875 4013 500 3803 
L 500 4441 
Q 881 4594 1212 4672 
Q 1544 4750 1819 4750 
Q 2544 4750 2975 4387 
Q 3406 4025 3406 3419 
Q 3406 3131 3298 2873 
Q 3191 2616 2906 2266 
Q 2828 2175 2409 1742 
Q 1991 1309 1228 531 
z
" transform="scale(0.015625)"/>
      <path id="DejaVuSans-b0" d="M 1600 4347 
Q 1350 4347 1178 4173 
Q 1006 4000 1006 3750 
Q 1006 3503 1178 3333 
Q 1350 3163 1600 3163 
Q 1850 3163 2022 3333 
Q 2194 3503 2194 3750 
Q 2194 3997 2020 4172 
Q 1847 4347 1600 4347 
z
M 1600 4750 
Q 1800 4750 1984 4673 
Q 2169 4597 2303 4453 
Q 2447 4313 2519 4134 
Q 2591 3956 2591 3750 
Q 2591 3338 2302 3052 
Q 2013 2766 1594 2766 
Q 1172 2766 890 3047 
Q 609 3328 609 3750 
Q 609 4169 896 4459 
Q 1184 4750 1600 4750 
z
" transform="scale(0.015625)"/>
     </defs>
     <use xlink:href="#DejaVuSans-57"/>
     <use xlink:href="#DejaVuSans-68" x="98.876953"/>
     <use xlink:href="#DejaVuSans-69" x="162.255859"/>
     <use xlink:href="#DejaVuSans-74" x="190.039062"/>
     <use xlink:href="#DejaVuSans-65" x="229.248047"/>
     <use xlink:href="#DejaVuSans-77" x="290.771484"/>
     <use xlink:href="#DejaVuSans-61" x="372.558594"/>
     <use xlink:href="#DejaVuSans-74" x="433.837891"/>
     <use xlink:href="#DejaVuSans-65" x="473.046875"/>
     <use xlink:href="#DejaVuSans-72" x="534.570312"/>
     <use xlink:href="#DejaVuSans-20" x="575.683594"/>
     <use xlink:href="#DejaVuSans-31" x="607.470703"/>
     <use xlink:href="#DejaVuSans-39" x="671.09375"/>
     <use xlink:href="#DejaVuSans-2e" x="734.716797"/>
     <use xlink:href="#DejaVuSans-32" x="766.503906"/>
     <use xlink:href="#DejaVuSans-b0" x="830.126953"/>
    </g>
   </g>
   <g id="text_10">
    <g id="patch_11">
     <path d="M 61.265591 76.4998 
L 67.220986 89.843654 
L 69.025089 89.038478 
L 63.069694 75.694625 
z
" style="fill: #ffffff"/>
    </g>
    <!-- Big Bear 21.2° -->
    <g style="fill: #4169e1" transform="translate(61.671832 76.340395)rotate(-294.051323)scale(0.02 -0.02)">
     <use xlink:href="#DejaVuSans-42"/>
     <use xlink:href="#DejaVuSans-69" x="68.603516"/>
     <use xlink:href="#DejaVuSans-67" x="96.386719"/>
     <use xlink:href="#DejaVuSans-20" x="159.863281"/>
     <use xlink:href="#DejaVuSans-42" x="191.650391"/>
     <use xlink:href="#DejaVuSans-65" x="260.253906"/>
     <use xlink:href="#DejaVuSans-61" x="321.777344"/>
     <use xlink:href="#DejaVuSans-72" x="383.056641"/>
     <use xlink:href="#DejaVuSans-20" x="424.169922"/>
     <use xlink:href="#DejaVuSans-32" x="455.957031"/>
     <use xlink:href="#DejaVuSans-31" x="519.580078"/>
     <use xlink:href="#DejaVuSans-2e" x="583.203125"/>
     <use xlink:href="#DejaVuSans-32" x="614.990234"/>
     <use xlink:href="#DejaVuSans-b0" x="678.613281"/>
    </g>
   </g>
   <g id="text_11">
    <g id="patch_12">
     <path d="M 55.055155 62.997271 
L 65.306722 72.679307 
L 66.663233 71.243002 
L 56.411666 61.560966 
z
" style="fill: #ffffff"/>
    </g>
    <!-- Log Jam 22.0° -->
    <g style="fill: #4169e1" transform="translate(55.369021 62.694072)rotate(-316.636577)scale(0.02 -0.02)">
     <defs>
      <path id="DejaVuSans-4c" d="M 628 4666 
L 1259 4666 
L 1259 531 
L 3531 531 
L 3531 0 
L 628 0 
L 628 4666 
z
" transform="scale(0.015625)"/>
      <path id="DejaVuSans-4a" d="M 628 4666 
L 1259 4666 
L 1259 325 
Q 1259 -519 939 -900 
Q 619 -1281 -91 -1281 
L -331 -1281 
L -331 -750 
L -134 -750 
Q 284 -750 456 -515 
Q 628 -281 628 325 
L 628 4666 
z
" transform="scale(0.015625)"/>
      <path id="DejaVuSans-30" d="M 2034 4250 
Q 1547 4250 1301 3770 
Q 1056 3291 1056 2328 
Q 1056 1369 1301 889 
Q 1547 409 2034 409 
Q 2525 409 2770 889 
Q 3016 1369 3016 2328 
Q 3016 3291 2770 3770 
Q 2525 4250 2034 4250 
z
M 2034 4750 
Q 2819 4750 3233 4129 
Q 3647 3509 3647 2328 
Q 3647 1150 3233 529 
Q 2819 -91 2034 -91 
Q 1250 -91 836 529 
Q 422 1150 422 2328 
Q 422 3509 836 4129 
Q 1250 4750 2034 4750 
z
" transform="scale(0.015625)"/>
     </defs>
     <use xlink:href="#DejaVuSans-4c"/>
     <use xlink:href="#DejaVuSans-6f" x="53.962891"/>
     <use xlink:href="#DejaVuSans-67" x="115.144531"/>
     <use xlink:href="#DejaVuSans-20" x="178.621094"/>
     <use xlink:href="#DejaVuSans-4a" x="210.408203"/>
     <use xlink:href="#DejaVuSans-61" x="239.900391"/>
     <use xlink:href="#DejaVuSans-6d" x="301.179688"/>
     <use xlink:href="#DejaVuSans-20" x="398.591797"/>
     <use xlink:href="#DejaVuSans-32" x="430.378906"/>
     <use xlink:href="#DejaVuSans-32" x="494.001953"/>
     <use xlink:href="#DejaVuSans-2e" x="557.625"/>
     <use xlink:href="#DejaVuSans-30" x="589.412109"/>
     <use xlink:href="#DejaVuSans-b0" x="653.035156"/>
    </g>
   </g>
   <g id="text_12">
    <g id="patch_13">
     <path d="M 42.662334 45.968301 
L 45.599025 28.62803 
L 43.651137 28.298142 
L 40.714446 45.638413 
z
" style="fill: #ffffff"/>
    </g>
    <!-- Homestead 10.3° -->
    <g style="fill: #008000" transform="translate(42.235857 45.875789)rotate(-80.387783)scale(0.02 -0.02)">
     <defs>
      <path id="DejaVuSans-33" d="M 2597 2516 
Q 3050 2419 3304 2112 
Q 3559 1806 3559 1356 
Q 3559 666 3084 287 
Q 2609 -91 1734 -91 
Q 1441 -91 1130 -33 
Q 819 25 488 141 
L 488 750 
Q 750 597 1062 519 
Q 1375 441 1716 441 
Q 2309 441 2620 675 
Q 2931 909 2931 1356 
Q 2931 1769 2642 2001 
Q 2353 2234 1838 2234 
L 1294 2234 
L 1294 2753 
L 1863 2753 
Q 2328 2753 2575 2939 
Q 2822 3125 2822 3475 
Q 2822 3834 2567 4026 
Q 2313 4219 1838 4219 
Q 1578 4219 1281 4162 
Q 984 4106 628 3988 
L 628 4550 
Q 988 4650 1302 4700 
Q 1616 4750 1894 4750 
Q 2613 4750 3031 4423 
Q 3450 4097 3450 3541 
Q 3450 3153 3228 2886 
Q 3006 2619 2597 2516 
z
" transform="scale(0.015625)"/>
     </defs>
     <use xlink:href="#DejaVuSans-48"/>
     <use xlink:href="#DejaVuSans-6f" x="75.195312"/>
     <use xlink:href="#DejaVuSans-6d" x="136.376953"/>
     <use xlink:href="#DejaVuSans-65" x="233.789062"/>
     <use xlink:href="#DejaVuSans-73" x="295.3125"/>
     <use xlink:href="#DejaVuSans-74" x="347.412109"/>
     <use xlink:href="#DejaVuSans-65" x="386.621094"/>
     <use xlink:href="#DejaVuSans-61" x="448.144531"/>
     <use xlink:href="#DejaVuSans-64" x="509.423828"/>
     <use xlink:href="#DejaVuSans-20" x="572.900391"/>
     <use xlink:href="#DejaVuSans-31" x="604.6875"/>
     <use xlink:href="#DejaVuSans-30" x="668.310547"/>
     <use xlink:href="#DejaVuSans-2e" x="731.933594"/>
     <use xlink:href="#DejaVuSans-33" x="763.720703"/>
     <use xlink:href="#DejaVuSans-b0" x="827.34375"/>
    </g>
   </g>
   <g id="text_13">
    <g id="patch_14">
     <path d="M 56.689524 41.773625 
L 71.505486 37.049337 
L 70.905303 35.167085 
L 56.08934 39.891373 
z
" style="fill: #ffffff"/>
    </g>
    <!-- Hot Cider 14.1° -->
    <g style="fill: #008000" transform="translate(56.576143 41.352215)rotate(-17.68565)scale(0.02 -0.02)">
     <defs>
      <path id="DejaVuSans-34" d="M 2419 4116 
L 825 1625 
L 2419 1625 
L 2419 4116 
z
M 2253 4666 
L 3047 4666 
L 3047 1625 
L 3713 1625 
L 3713 1100 
L 3047 1100 
L 3047 0 
L 2419 0 
L 2419 1100 
L 313 1100 
L 313 1709 
L 2253 4666 
z
" transform="scale(0.015625)"/>
     </defs>
     <use xlink:href="#DejaVuSans-48"/>
     <use xlink:href="#DejaVuSans-6f" x="75.195312"/>
     <use xlink:href="#DejaVuSans-74" x="136.376953"/>
     <use xlink:href="#DejaVuSans-20" x="175.585938"/>
     <use xlink:href="#DejaVuSans-43" x="207.373047"/>
     <use xlink:href="#DejaVuSans-69" x="277.197266"/>
     <use xlink:href="#DejaVuSans-64" x="304.980469"/>
     <use xlink:href="#DejaVuSans-65" x="368.457031"/>
     <use xlink:href="#DejaVuSans-72" x="429.980469"/>
     <use xlink:href="#DejaVuSans-20" x="471.09375"/>
     <use xlink:href="#DejaVuSans-31" x="502.880859"/>
     <use xlink:href="#DejaVuSans-34" x="566.503906"/>
     <use xlink:href="#DejaVuSans-2e" x="630.126953"/>
     <use xlink:href="#DejaVuSans-31" x="661.914062"/>
     <use xlink:href="#DejaVuSans-b0" x="725.537109"/>
    </g>
   </g>
   <g id="text_14">
    <g id="patch_15">
     <path d="M 75.960064 28.35714 
L 92.720984 33.21133 
L 93.270567 31.313687 
L 76.509647 26.459496 
z
" style="fill: #ffffff"/>
    </g>
    <!-- North Forty 12.2° -->
    <g style="fill: #008000" transform="translate(76.100545 27.943973)rotate(-343.848264)scale(0.02 -0.02)">
     <use xlink:href="#DejaVuSans-4e"/>
     <use xlink:href="#DejaVuSans-6f" x="74.804688"/>
     <use xlink:href="#DejaVuSans-72" x="135.986328"/>
     <use xlink:href="#DejaVuSans-74" x="177.099609"/>
     <use xlink:href="#DejaVuSans-68" x="216.308594"/>
     <use xlink:href="#DejaVuSans-20" x="279.6875"/>
     <use xlink:href="#DejaVuSans-46" x="311.474609"/>
     <use xlink:href="#DejaVuSans-6f" x="365.369141"/>
     <use xlink:href="#DejaVuSans-72" x="426.550781"/>
     <use xlink:href="#DejaVuSans-74" x="467.664062"/>
     <use xlink:href="#DejaVuSans-79" x="506.873047"/>
     <use xlink:href="#DejaVuSans-20" x="566.052734"/>
     <use xlink:href="#DejaVuSans-31" x="597.839844"/>
     <use xlink:href="#DejaVuSans-32" x="661.462891"/>
     <use xlink:href="#DejaVuSans-2e" x="725.085938"/>
     <use xlink:href="#DejaVuSans-32" x="756.873047"/>
     <use xlink:href="#DejaVuSans-b0" x="820.496094"/>
    </g>
   </g>
   <g id="text_15">
    <g id="patch_16">
     <path d="M 59.636828 54.410907 
L 73.947006 52.995559 
L 73.752556 51.029526 
L 59.442378 52.444874 
z
" style="fill: #ffffff"/>
    </g>
    <!-- Spillway 13.1° -->
    <g style="fill: #008000" transform="translate(59.613824 53.975117)rotate(-5.648468)scale(0.02 -0.02)">
     <use xlink:href="#DejaVuSans-53"/>
     <use xlink:href="#DejaVuSans-70" x="63.476562"/>
     <use xlink:href="#DejaVuSans-69" x="126.953125"/>
     <use xlink:href="#DejaVuSans-6c" x="154.736328"/>
     <use xlink:href="#DejaVuSans-6c" x="182.519531"/>
     <use xlink:href="#DejaVuSans-77" x="210.302734"/>
     <use xlink:href="#DejaVuSans-61" x="292.089844"/>
     <use xlink:href="#DejaVuSans-79" x="353.369141"/>
     <use xlink:href="#DejaVuSans-20" x="412.548828"/>
     <use xlink:href="#DejaVuSans-31" x="444.335938"/>
     <use xlink:href="#DejaVuSans-33" x="507.958984"/>
     <use xlink:href="#DejaVuSans-2e" x="571.582031"/>
     <use xlink:href="#DejaVuSans-31" x="603.369141"/>
     <use xlink:href="#DejaVuSans-b0" x="666.992188"/>
    </g>
   </g>
   <g id="text_16">
    <g id="patch_17">
     <path d="M 66.75773 64.330185 
L 86.081411 56.38057 
L 85.329774 54.553513 
L 66.006093 62.503129 
z
" style="fill: #ffffff"/>
    </g>
    <!-- Double Doodle 14.5° -->
    <g style="fill: #008000" transform="translate(66.610371 63.919421)rotate(-22.361894)scale(0.02 -0.02)">
     <defs>
      <path id="DejaVuSans-44" d="M 1259 4147 
L 1259 519 
L 2022 519 
Q 2988 519 3436 956 
Q 3884 1394 3884 2338 
Q 3884 3275 3436 3711 
Q 2988 4147 2022 4147 
L 1259 4147 
z
M 628 4666 
L 1925 4666 
Q 3281 4666 3915 4102 
Q 4550 3538 4550 2338 
Q 4550 1131 3912 565 
Q 3275 0 1925 0 
L 628 0 
L 628 4666 
z
" transform="scale(0.015625)"/>
      <path id="DejaVuSans-62" d="M 3116 1747 
Q 3116 2381 2855 2742 
Q 2594 3103 2138 3103 
Q 1681 3103 1420 2742 
Q 1159 2381 1159 1747 
Q 1159 1113 1420 752 
Q 1681 391 2138 391 
Q 2594 391 2855 752 
Q 3116 1113 3116 1747 
z
M 1159 2969 
Q 1341 3281 1617 3432 
Q 1894 3584 2278 3584 
Q 2916 3584 3314 3078 
Q 3713 2572 3713 1747 
Q 3713 922 3314 415 
Q 2916 -91 2278 -91 
Q 1894 -91 1617 61 
Q 1341 213 1159 525 
L 1159 0 
L 581 0 
L 581 4863 
L 1159 4863 
L 1159 2969 
z
" transform="scale(0.015625)"/>
      <path id="DejaVuSans-35" d="M 691 4666 
L 3169 4666 
L 3169 4134 
L 1269 4134 
L 1269 2991 
Q 1406 3038 1543 3061 
Q 1681 3084 1819 3084 
Q 2600 3084 3056 2656 
Q 3513 2228 3513 1497 
Q 3513 744 3044 326 
Q 2575 -91 1722 -91 
Q 1428 -91 1123 -41 
Q 819 9 494 109 
L 494 744 
Q 775 591 1075 516 
Q 1375 441 1709 441 
Q 2250 441 2565 725 
Q 2881 1009 2881 1497 
Q 2881 1984 2565 2268 
Q 2250 2553 1709 2553 
Q 1456 2553 1204 2497 
Q 953 2441 691 2322 
L 691 4666 
z
" transform="scale(0.015625)"/>
     </defs>
     <use xlink:href="#DejaVuSans-44"/>
     <use xlink:href="#DejaVuSans-6f" x="77.001953"/>
     <use xlink:href="#DejaVuSans-75" x="138.183594"/>
     <use xlink:href="#DejaVuSans-62" x="201.5625"/>
     <use xlink:href="#DejaVuSans-6c" x="265.039062"/>
     <use xlink:href="#DejaVuSans-65" x="292.822266"/>
     <use xlink:href="#DejaVuSans-20" x="354.345703"/>
     <use xlink:href="#DejaVuSans-44" x="386.132812"/>
     <use xlink:href="#DejaVuSans-6f" x="463.134766"/>
     <use xlink:href="#DejaVuSans-6f" x="524.316406"/>
     <use xlink:href="#DejaVuSans-64" x="585.498047"/>
     <use xlink:href="#DejaVuSans-6c" x="648.974609"/>
     <use xlink:href="#DejaVuSans-65" x="676.757812"/>
     <use xlink:href="#DejaVuSans-20" x="738.28125"/>
     <use xlink:href="#DejaVuSans-31" x="770.068359"/>
     <use xlink:href="#DejaVuSans-34" x="833.691406"/>
     <use xlink:href="#DejaVuSans-2e" x="897.314453"/>
     <use xlink:href="#DejaVuSans-35" x="929.101562"/>
     <use xlink:href="#DejaVuSans-b0" x="992.724609"/>
    </g>
   </g>
   <g id="text_17">
    <g id="patch_18">
     <path d="M 31.188313 87.454312 
L 37.858074 75.620777 
L 36.137 74.650725 
L 29.46724 86.48426 
z
" style="fill: #ffffff"/>
    </g>
    <!-- Sunrise 12.6° -->
    <g style="fill: #008000" transform="translate(30.818365 87.22284)rotate(-60.592997)scale(0.02 -0.02)">
     <defs>
      <path id="DejaVuSans-36" d="M 2113 2584 
Q 1688 2584 1439 2293 
Q 1191 2003 1191 1497 
Q 1191 994 1439 701 
Q 1688 409 2113 409 
Q 2538 409 2786 701 
Q 3034 994 3034 1497 
Q 3034 2003 2786 2293 
Q 2538 2584 2113 2584 
z
M 3366 4563 
L 3366 3988 
Q 3128 4100 2886 4159 
Q 2644 4219 2406 4219 
Q 1781 4219 1451 3797 
Q 1122 3375 1075 2522 
Q 1259 2794 1537 2939 
Q 1816 3084 2150 3084 
Q 2853 3084 3261 2657 
Q 3669 2231 3669 1497 
Q 3669 778 3244 343 
Q 2819 -91 2113 -91 
Q 1303 -91 875 529 
Q 447 1150 447 2328 
Q 447 3434 972 4092 
Q 1497 4750 2381 4750 
Q 2619 4750 2861 4703 
Q 3103 4656 3366 4563 
z
" transform="scale(0.015625)"/>
     </defs>
     <use xlink:href="#DejaVuSans-53"/>
     <use xlink:href="#DejaVuSans-75" x="63.476562"/>
     <use xlink:href="#DejaVuSans-6e" x="126.855469"/>
     <use xlink:href="#DejaVuSans-72" x="190.234375"/>
     <use xlink:href="#DejaVuSans-69" x="231.347656"/>
     <use xlink:href="#DejaVuSans-73" x="259.130859"/>
     <use xlink:href="#DejaVuSans-65" x="311.230469"/>
     <use xlink:href="#DejaVuSans-20" x="372.753906"/>
     <use xlink:href="#DejaVuSans-31" x="404.541016"/>
     <use xlink:href="#DejaVuSans-32" x="468.164062"/>
     <use xlink:href="#DejaVuSans-2e" x="531.787109"/>
     <use xlink:href="#DejaVuSans-36" x="563.574219"/>
     <use xlink:href="#DejaVuSans-b0" x="627.197266"/>
    </g>
   </g>
   <g id="text_18">
    <g id="patch_19">
     <path d="M 26.986923 100.809572 
L 36.98759 114.792623 
L 38.594528 113.643343 
L 28.593861 99.660291 
z
" style="fill: #ffffff"/>
    </g>
    <!-- The Rapids 13.1° -->
    <g style="fill: #008000" transform="translate(27.353141 100.572242)rotate(-305.57232)scale(0.02 -0.02)">
     <defs>
      <path id="DejaVuSans-52" d="M 2841 2188 
Q 3044 2119 3236 1894 
Q 3428 1669 3622 1275 
L 4263 0 
L 3584 0 
L 2988 1197 
Q 2756 1666 2539 1819 
Q 2322 1972 1947 1972 
L 1259 1972 
L 1259 0 
L 628 0 
L 628 4666 
L 2053 4666 
Q 2853 4666 3247 4331 
Q 3641 3997 3641 3322 
Q 3641 2881 3436 2590 
Q 3231 2300 2841 2188 
z
M 1259 4147 
L 1259 2491 
L 2053 2491 
Q 2509 2491 2742 2702 
Q 2975 2913 2975 3322 
Q 2975 3731 2742 3939 
Q 2509 4147 2053 4147 
L 1259 4147 
z
" transform="scale(0.015625)"/>
     </defs>
     <use xlink:href="#DejaVuSans-54"/>
     <use xlink:href="#DejaVuSans-68" x="61.083984"/>
     <use xlink:href="#DejaVuSans-65" x="124.462891"/>
     <use xlink:href="#DejaVuSans-20" x="185.986328"/>
     <use xlink:href="#DejaVuSans-52" x="217.773438"/>
     <use xlink:href="#DejaVuSans-61" x="285.005859"/>
     <use xlink:href="#DejaVuSans-70" x="346.285156"/>
     <use xlink:href="#DejaVuSans-69" x="409.761719"/>
     <use xlink:href="#DejaVuSans-64" x="437.544922"/>
     <use xlink:href="#DejaVuSans-73" x="501.021484"/>
     <use xlink:href="#DejaVuSans-20" x="553.121094"/>
     <use xlink:href="#DejaVuSans-31" x="584.908203"/>
     <use xlink:href="#DejaVuSans-33" x="648.53125"/>
     <use xlink:href="#DejaVuSans-2e" x="712.154297"/>
     <use xlink:href="#DejaVuSans-31" x="743.941406"/>
     <use xlink:href="#DejaVuSans-b0" x="807.564453"/>
    </g>
   </g>
   <g id="text_19">
    <g id="patch_20">
     <path d="M 30.079658 72.799727 
L 36.922711 58.017773 
L 35.129876 57.187811 
L 28.286823 71.969765 
z
" style="fill: #ffffff"/>
    </g>
    <!-- Snowshoe 11.2° -->
    <g style="fill: #008000" transform="translate(29.692456 72.59844)rotate(-65.159029)scale(0.02 -0.02)">
     <use xlink:href="#DejaVuSans-53"/>
     <use xlink:href="#DejaVuSans-6e" x="63.476562"/>
     <use xlink:href="#DejaVuSans-6f" x="126.855469"/>
     <use xlink:href="#DejaVuSans-77" x="188.037109"/>
     <use xlink:href="#DejaVuSans-73" x="269.824219"/>
     <use xlink:href="#DejaVuSans-68" x="321.923828"/>
     <use xlink:href="#DejaVuSans-6f" x="385.302734"/>
     <use xlink:href="#DejaVuSans-65" x="446.484375"/>
     <use xlink:href="#DejaVuSans-20" x="508.007812"/>
     <use xlink:href="#DejaVuSans-31" x="539.794922"/>
     <use xlink:href="#DejaVuSans-31" x="603.417969"/>
     <use xlink:href="#DejaVuSans-2e" x="667.041016"/>
     <use xlink:href="#DejaVuSans-32" x="698.828125"/>
     <use xlink:href="#DejaVuSans-b0" x="762.451172"/>
    </g>
   </g>
   <g id="text_20">
    <g id="patch_21">
     <path d="M 39.993169 80.361408 
L 45.270726 95.442121 
L 47.135463 94.789549 
L 41.857906 79.708836 
z
" style="fill: #ffffff"/>
    </g>
    <!-- Otterslide 18.8° -->
    <g style="fill: #4169e1" transform="translate(40.411245 80.236291)rotate(-289.2877)scale(0.02 -0.02)">
     <defs>
      <path id="DejaVuSans-4f" d="M 2522 4238 
Q 1834 4238 1429 3725 
Q 1025 3213 1025 2328 
Q 1025 1447 1429 934 
Q 1834 422 2522 422 
Q 3209 422 3611 934 
Q 4013 1447 4013 2328 
Q 4013 3213 3611 3725 
Q 3209 4238 2522 4238 
z
M 2522 4750 
Q 3503 4750 4090 4092 
Q 4678 3434 4678 2328 
Q 4678 1225 4090 567 
Q 3503 -91 2522 -91 
Q 1538 -91 948 565 
Q 359 1222 359 2328 
Q 359 3434 948 4092 
Q 1538 4750 2522 4750 
z
" transform="scale(0.015625)"/>
      <path id="DejaVuSans-38" d="M 2034 2216 
Q 1584 2216 1326 1975 
Q 1069 1734 1069 1313 
Q 1069 891 1326 650 
Q 1584 409 2034 409 
Q 2484 409 2743 651 
Q 3003 894 3003 1313 
Q 3003 1734 2745 1975 
Q 2488 2216 2034 2216 
z
M 1403 2484 
Q 997 2584 770 2862 
Q 544 3141 544 3541 
Q 544 4100 942 4425 
Q 1341 4750 2034 4750 
Q 2731 4750 3128 4425 
Q 3525 4100 3525 3541 
Q 3525 3141 3298 2862 
Q 3072 2584 2669 2484 
Q 3125 2378 3379 2068 
Q 3634 1759 3634 1313 
Q 3634 634 3220 271 
Q 2806 -91 2034 -91 
Q 1263 -91 848 271 
Q 434 634 434 1313 
Q 434 1759 690 2068 
Q 947 2378 1403 2484 
z
M 1172 3481 
Q 1172 3119 1398 2916 
Q 1625 2713 2034 2713 
Q 2441 2713 2670 2916 
Q 2900 3119 2900 3481 
Q 2900 3844 2670 4047 
Q 2441 4250 2034 4250 
Q 1625 4250 1398 4047 
Q 1172 3844 1172 3481 
z
" transform="scale(0.015625)"/>
     </defs>
     <use xlink:href="#DejaVuSans-4f"/>
     <use xlink:href="#DejaVuSans-74" x="78.710938"/>
     <use xlink:href="#DejaVuSans-74" x="117.919922"/>
     <use xlink:href="#DejaVuSans-65" x="157.128906"/>
     <use xlink:href="#DejaVuSans-72" x="218.652344"/>
     <use xlink:href="#DejaVuSans-73" x="259.765625"/>
     <use xlink:href="#DejaVuSans-6c" x="311.865234"/>
     <use xlink:href="#DejaVuSans-69" x="339.648438"/>
     <use xlink:href="#DejaVuSans-64" x="367.431641"/>
     <use xlink:href="#DejaVuSans-65" x="430.908203"/>
     <use xlink:href="#DejaVuSans-20" x="492.431641"/>
     <use xlink:href="#DejaVuSans-31" x="524.21875"/>
     <use xlink:href="#DejaVuSans-38" x="587.841797"/>
     <use xlink:href="#DejaVuSans-2e" x="651.464844"/>
     <use xlink:href="#DejaVuSans-38" x="683.251953"/>
     <use xlink:href="#DejaVuSans-b0" x="746.875"/>
    </g>
   </g>
   <g id="text_21">
    <g id="patch_22">
     <path d="M 13.652619 85.503025 
L 14.250049 105.346221 
L 16.224779 105.286766 
L 15.627349 85.44357 
z
" style="fill: #ffffff"/>
    </g>
    <!-- Timberdoodle 11.2° -->
    <g style="fill: #008000" transform="translate(14.088961 85.509897)rotate(-271.724513)scale(0.02 -0.02)">
     <use xlink:href="#DejaVuSans-54"/>
     <use xlink:href="#DejaVuSans-69" x="57.958984"/>
     <use xlink:href="#DejaVuSans-6d" x="85.742188"/>
     <use xlink:href="#DejaVuSans-62" x="183.154297"/>
     <use xlink:href="#DejaVuSans-65" x="246.630859"/>
     <use xlink:href="#DejaVuSans-72" x="308.154297"/>
     <use xlink:href="#DejaVuSans-64" x="347.517578"/>
     <use xlink:href="#DejaVuSans-6f" x="410.994141"/>
     <use xlink:href="#DejaVuSans-6f" x="472.175781"/>
     <use xlink:href="#DejaVuSans-64" x="533.357422"/>
     <use xlink:href="#DejaVuSans-6c" x="596.833984"/>
     <use xlink:href="#DejaVuSans-65" x="624.617188"/>
     <use xlink:href="#DejaVuSans-20" x="686.140625"/>
     <use xlink:href="#DejaVuSans-31" x="717.927734"/>
     <use xlink:href="#DejaVuSans-31" x="781.550781"/>
     <use xlink:href="#DejaVuSans-2e" x="845.173828"/>
     <use xlink:href="#DejaVuSans-32" x="876.960938"/>
     <use xlink:href="#DejaVuSans-b0" x="940.583984"/>
    </g>
   </g>
   <g id="text_22">
    <g id="patch_23">
     <path d="M 10.031103 73.969034 
L 13.208888 55.658363 
L 11.262359 55.320546 
L 8.084574 73.631217 
z
" style="fill: #ffffff"/>
    </g>
    <!-- Maple Syrup 10.0° -->
    <g style="fill: #008000" transform="translate(9.605005 73.874786)rotate(-80.154482)scale(0.02 -0.02)">
     <defs>
      <path id="DejaVuSans-4d" d="M 628 4666 
L 1569 4666 
L 2759 1491 
L 3956 4666 
L 4897 4666 
L 4897 0 
L 4281 0 
L 4281 4097 
L 3078 897 
L 2444 897 
L 1241 4097 
L 1241 0 
L 628 0 
L 628 4666 
z
" transform="scale(0.015625)"/>
     </defs>
     <use xlink:href="#DejaVuSans-4d"/>
     <use xlink:href="#DejaVuSans-61" x="86.279297"/>
     <use xlink:href="#DejaVuSans-70" x="147.558594"/>
     <use xlink:href="#DejaVuSans-6c" x="211.035156"/>
     <use xlink:href="#DejaVuSans-65" x="238.818359"/>
     <use xlink:href="#DejaVuSans-20" x="300.341797"/>
     <use xlink:href="#DejaVuSans-53" x="332.128906"/>
     <use xlink:href="#DejaVuSans-79" x="395.605469"/>
     <use xlink:href="#DejaVuSans-72" x="454.785156"/>
     <use xlink:href="#DejaVuSans-75" x="495.898438"/>
     <use xlink:href="#DejaVuSans-70" x="559.277344"/>
     <use xlink:href="#DejaVuSans-20" x="622.753906"/>
     <use xlink:href="#DejaVuSans-31" x="654.541016"/>
     <use xlink:href="#DejaVuSans-30" x="718.164062"/>
     <use xlink:href="#DejaVuSans-2e" x="781.787109"/>
     <use xlink:href="#DejaVuSans-30" x="813.574219"/>
     <use xlink:href="#DejaVuSans-b0" x="877.197266"/>
    </g>
   </g>
   <g id="text_23">
    <g id="patch_24">
     <path d="M 32.756043 96.600306 
L 42.390848 106.175733 
L 43.783501 104.774444 
L 34.148697 95.199017 
z
" style="fill: #ffffff"/>
    </g>
    <!-- Sunrise 16.5° -->
    <g style="fill: #008000" transform="translate(33.077529 96.305199)rotate(-315.177095)scale(0.02 -0.02)">
     <use xlink:href="#DejaVuSans-53"/>
     <use xlink:href="#DejaVuSans-75" x="63.476562"/>
     <use xlink:href="#DejaVuSans-6e" x="126.855469"/>
     <use xlink:href="#DejaVuSans-72" x="190.234375"/>
     <use xlink:href="#DejaVuSans-69" x="231.347656"/>
     <use xlink:href="#DejaVuSans-73" x="259.130859"/>
     <use xlink:href="#DejaVuSans-65" x="311.230469"/>
     <use xlink:href="#DejaVuSans-20" x="372.753906"/>
     <use xlink:href="#DejaVuSans-31" x="404.541016"/>
     <use xlink:href="#DejaVuSans-36" x="468.164062"/>
     <use xlink:href="#DejaVuSans-2e" x="531.787109"/>
     <use xlink:href="#DejaVuSans-35" x="563.574219"/>
     <use xlink:href="#DejaVuSans-b0" x="627.197266"/>
    </g>
   </g>
   <g id="text_24">
    <!-- Ski Brule -->
    <g transform="translate(43.521482 8.573417)scale(0.08 -0.08)">
     <use xlink:href="#DejaVuSans-53"/>
     <use xlink:href="#DejaVuSans-6b" x="63.476562"/>
     <use xlink:href="#DejaVuSans-69" x="121.386719"/>
     <use xlink:href="#DejaVuSans-20" x="149.169922"/>
     <use xlink:href="#DejaVuSans-42" x="180.957031"/>
     <use xlink:href="#DejaVuSans-72" x="249.560547"/>
     <use xlink:href="#DejaVuSans-75" x="290.673828"/>
     <use xlink:href="#DejaVuSans-6c" x="354.052734"/>
     <use xlink:href="#DejaVuSans-65" x="381.835938"/>
    </g>
   </g>
   <g id="legend_1">
    <g id="line2d_37">
     <path d="M 5.254295 123.498272 
L 9.254295 123.498272 
L 13.254295 123.498272 
" style="fill: none; stroke: #008000; stroke-width: 0.567184; stroke-linecap: square"/>
    </g>
    <g id="text_25">
     <!-- Easy -->
     <g transform="translate(16.454295 124.898272)scale(0.04 -0.04)">
      <defs>
       <path id="DejaVuSans-45" d="M 628 4666 
L 3578 4666 
L 3578 4134 
L 1259 4134 
L 1259 2753 
L 3481 2753 
L 3481 2222 
L 1259 2222 
L 1259 531 
L 3634 531 
L 3634 0 
L 628 0 
L 628 4666 
z
" transform="scale(0.015625)"/>
      </defs>
      <use xlink:href="#DejaVuSans-45"/>
      <use xlink:href="#DejaVuSans-61" x="63.183594"/>
      <use xlink:href="#DejaVuSans-73" x="124.462891"/>
      <use xlink:href="#DejaVuSans-79" x="176.5625"/>
     </g>
    </g>
    <g id="line2d_38">
     <path d="M 5.254295 129.369522 
L 9.254295 129.369522 
L 13.254295 129.369522 
" style="fill: none; stroke: #4169e1; stroke-width: 0.567184; stroke-linecap: square"/>
    </g>
    <g id="text_26">
     <!-- Intermediate -->
     <g transform="translate(16.454295 130.769522)scale(0.04 -0.04)">
      <defs>
       <path id="DejaVuSans-49" d="M 628 4666 
L 1259 4666 
L 1259 0 
L 628 0 
L 628 4666 
z
" transform="scale(0.015625)"/>
      </defs>
      <use xlink:href="#DejaVuSans-49"/>
      <use xlink:href="#DejaVuSans-6e" x="29.492188"/>
      <use xlink:href="#DejaVuSans-74" x="92.871094"/>
      <use xlink:href="#DejaVuSans-65" x="132.080078"/>
      <use xlink:href="#DejaVuSans-72" x="193.603516"/>
      <use xlink:href="#DejaVuSans-6d" x="232.966797"/>
      <use xlink:href="#DejaVuSans-65" x="330.378906"/>
      <use xlink:href="#DejaVuSans-64" x="391.902344"/>
      <use xlink:href="#DejaVuSans-69" x="455.378906"/>
      <use xlink:href="#DejaVuSans-61" x="483.162109"/>
      <use xlink:href="#DejaVuSans-74" x="544.441406"/>
      <use xlink:href="#DejaVuSans-65" x="583.650391"/>
     </g>
    </g>
    <g id="line2d_39">
     <path d="M 50.261795 123.498272 
L 54.261795 123.498272 
L 58.261795 123.498272 
" style="fill: none; stroke: #000000; stroke-width: 0.567184; stroke-linecap: square"/>
    </g>
    <g id="text_27">
     <!-- Advanced -->
     <g transform="translate(61.461795 124.898272)scale(0.04 -0.04)">
      <defs>
       <path id="DejaVuSans-41" d="M 2188 4044 
L 1331 1722 
L 3047 1722 
L 2188 4044 
z
M 1831 4666 
L 2547 4666 
L 4325 0 
L 3669 0 
L 3244 1197 
L 1141 1197 
L 716 0 
L 50 0 
L 1831 4666 
z
" transform="scale(0.015625)"/>
       <path id="DejaVuSans-76" d="M 191 3500 
L 800 3500 
L 1894 563 
L 2988 3500 
L 3597 3500 
L 2284 0 
L 1503 0 
L 191 3500 
z
" transform="scale(0.015625)"/>
      </defs>
      <use xlink:href="#DejaVuSans-41"/>
      <use xlink:href="#DejaVuSans-64" x="66.658203"/>
      <use xlink:href="#DejaVuSans-76" x="130.134766"/>
      <use xlink:href="#DejaVuSans-61" x="189.314453"/>
      <use xlink:href="#DejaVuSans-6e" x="250.59375"/>
      <use xlink:href="#DejaVuSans-63" x="313.972656"/>
      <use xlink:href="#DejaVuSans-65" x="368.953125"/>
      <use xlink:href="#DejaVuSans-64" x="430.476562"/>
     </g>
    </g>
    <g id="line2d_40">
     <path d="M 50.261795 129.369522 
L 54.261795 129.369522 
L 58.261795 129.369522 
" style="fill: none; stroke: #ff0000; stroke-width: 0.567184; stroke-linecap: square"/>
    </g>
    <g id="text_28">
     <!-- Expert -->
     <g transform="translate(61.461795 130.769522)scale(0.04 -0.04)">
      <defs>
       <path id="DejaVuSans-78" d="M 3513 3500 
L 2247 1797 
L 3578 0 
L 2900 0 
L 1881 1375 
L 863 0 
L 184 0 
L 1544 1831 
L 300 3500 
L 978 3500 
L 1906 2253 
L 2834 3500 
L 3513 3500 
z
" transform="scale(0.015625)"/>
      </defs>
      <use xlink:href="#DejaVuSans-45"/>
      <use xlink:href="#DejaVuSans-78" x="63.183594"/>
      <use xlink:href="#DejaVuSans-70" x="122.363281"/>
      <use xlink:href="#DejaVuSans-65" x="185.839844"/>
      <use xlink:href="#DejaVuSans-72" x="247.363281"/>
      <use xlink:href="#DejaVuSans-74" x="288.476562"/>
     </g>
    </g>
    <g id="line2d_41">
     <path d="M 89.22117 123.498272 
L 93.22117 123.498272 
L 97.22117 123.498272 
" style="fill: none; stroke: #ffd700; stroke-width: 0.567184; stroke-linecap: square"/>
    </g>
    <g id="text_29">
     <!-- Extreme -->
     <g transform="translate(100.42117 124.898272)scale(0.04 -0.04)">
      <use xlink:href="#DejaVuSans-45"/>
      <use xlink:href="#DejaVuSans-78" x="63.183594"/>
      <use xlink:href="#DejaVuSans-74" x="122.363281"/>
      <use xlink:href="#DejaVuSans-72" x="161.572266"/>
      <use xlink:href="#DejaVuSans-65" x="200.435547"/>
      <use xlink:href="#DejaVuSans-6d" x="261.958984"/>
      <use xlink:href="#DejaVuSans-65" x="359.371094"/>
     </g>
    </g>
    <g id="line2d_42">
     <path d="M 89.22117 129.369522 
L 93.22117 129.369522 
L 97.22117 129.369522 
" style="fill: none; stroke-dasharray: 0.567184,0.935853; stroke-dashoffset: 0; stroke: #000000; stroke-width: 0.567184"/>
    </g>
    <g id="text_30">
     <!-- Gladed -->
     <g transform="translate(100.42117 130.769522)scale(0.04 -0.04)">
      <defs>
       <path id="DejaVuSans-47" d="M 3809 666 
L 3809 1919 
L 2778 1919 
L 2778 2438 
L 4434 2438 
L 4434 434 
Q 4069 175 3628 42 
Q 3188 -91 2688 -91 
Q 1594 -91 976 548 
Q 359 1188 359 2328 
Q 359 3472 976 4111 
Q 1594 4750 2688 4750 
Q 3144 4750 3555 4637 
Q 3966 4525 4313 4306 
L 4313 3634 
Q 3963 3931 3569 4081 
Q 3175 4231 2741 4231 
Q 1884 4231 1454 3753 
Q 1025 3275 1025 2328 
Q 1025 1384 1454 906 
Q 1884 428 2741 428 
Q 3075 428 3337 486 
Q 3600 544 3809 666 
z
" transform="scale(0.015625)"/>
      </defs>
      <use xlink:href="#DejaVuSans-47"/>
      <use xlink:href="#DejaVuSans-6c" x="77.490234"/>
      <use xlink:href="#DejaVuSans-61" x="105.273438"/>
      <use xlink:href="#DejaVuSans-64" x="166.552734"/>
      <use xlink:href="#DejaVuSans-65" x="230.029297"/>
      <use xlink:href="#DejaVuSans-64" x="291.552734"/>
     </g>
    </g>
   </g>
  </g>
  <g id="text_31">
   <!-- Sources: USGS and OpenStreetMaps -->
   <g transform="translate(29.527325 136.777515)scale(0.034783 -0.034783)">
    <defs>
     <path id="DejaVuSans-3a" d="M 750 794 
L 1409 794 
L 1409 0 
L 750 0 
L 750 794 
z
M 750 3309 
L 1409 3309 
L 1409 2516 
L 750 2516 
L 750 3309 
z
" transform="scale(0.015625)"/>
     <path id="DejaVuSans-55" d="M 556 4666 
L 1191 4666 
L 1191 1831 
Q 1191 1081 1462 751 
Q 1734 422 2344 422 
Q 2950 422 3222 751 
Q 3494 1081 3494 1831 
L 3494 4666 
L 4128 4666 
L 4128 1753 
Q 4128 841 3676 375 
Q 3225 -91 2344 -91 
Q 1459 -91 1007 375 
Q 556 841 556 1753 
L 556 4666 
z
" transform="scale(0.015625)"/>
    </defs>
    <use xlink:href="#DejaVuSans-53"/>
    <use xlink:href="#DejaVuSans-6f" x="63.476562"/>
    <use xlink:href="#DejaVuSans-75" x="124.658203"/>
    <use xlink:href="#DejaVuSans-72" x="188.037109"/>
    <use xlink:href="#DejaVuSans-63" x="226.900391"/>
    <use xlink:href="#DejaVuSans-65" x="281.880859"/>
    <use xlink:href="#DejaVuSans-73" x="343.404297"/>
    <use xlink:href="#DejaVuSans-3a" x="395.503906"/>
    <use xlink:href="#DejaVuSans-20" x="429.195312"/>
    <use xlink:href="#DejaVuSans-55" x="460.982422"/>
    <use xlink:href="#DejaVuSans-53" x="534.175781"/>
    <use xlink:href="#DejaVuSans-47" x="597.652344"/>
    <use xlink:href="#DejaVuSans-53" x="675.142578"/>
    <use xlink:href="#DejaVuSans-20" x="738.619141"/>
    <use xlink:href="#DejaVuSans-61" x="770.40625"/>
    <use xlink:href="#DejaVuSans-6e" x="831.685547"/>
    <use xlink:href="#DejaVuSans-64" x="895.064453"/>
    <use xlink:href="#DejaVuSans-20" x="958.541016"/>
    <use xlink:href="#DejaVuSans-4f" x="990.328125"/>
    <use xlink:href="#DejaVuSans-70" x="1069.039062"/>
    <use xlink:href="#DejaVuSans-65" x="1132.515625"/>
    <use xlink:href="#DejaVuSans-6e" x="1194.039062"/>
    <use xlink:href="#DejaVuSans-53" x="1257.417969"/>
    <use xlink:href="#DejaVuSans-74" x="1320.894531"/>
    <use xlink:href="#DejaVuSans-72" x="1360.103516"/>
    <use xlink:href="#DejaVuSans-65" x="1398.966797"/>
    <use xlink:href="#DejaVuSans-65" x="1460.490234"/>
    <use xlink:href="#DejaVuSans-74" x="1522.013672"/>
    <use xlink:href="#DejaVuSans-4d" x="1561.222656"/>
    <use xlink:href="#DejaVuSans-61" x="1647.501953"/>
    <use xlink:href="#DejaVuSans-70" x="1708.78125"/>
    <use xlink:href="#DejaVuSans-73" x="1772.257812"/>
   </g>
  </g>
 </g>
 <defs>
  <clipPath id="pf3d0f7a700">
   <rect x="0" y="12.573417" width="122.511715" height="112.354051"/>
  </clipPath>
 </defs>
</svg>
