<?xml version="1.0" encoding="utf-8" standalone="no"?>
<!DOCTYPE svg PUBLIC "-//W3C//DTD SVG 1.1//EN"
  "http://www.w3.org/Graphics/SVG/1.1/DTD/svg11.dtd">
<svg xmlns:xlink="http://www.w3.org/1999/xlink" width="65.177559pt" height="74.810419pt" viewBox="0 0 65.177559 74.810419" xmlns="http://www.w3.org/2000/svg" version="1.1">
 <metadata>
  <rdf:RDF xmlns:dc="http://purl.org/dc/elements/1.1/" xmlns:cc="http://creativecommons.org/ns#" xmlns:rdf="http://www.w3.org/1999/02/22-rdf-syntax-ns#">
   <cc:Work>
    <dc:type rdf:resource="http://purl.org/dc/dcmitype/StillImage"/>
    <dc:date>2022-05-17T23:15:51.942413</dc:date>
    <dc:format>image/svg+xml</dc:format>
    <dc:creator>
     <cc:Agent>
      <dc:title>Matplotlib v3.5.2, https://matplotlib.org/</dc:title>
     </cc:Agent>
    </dc:creator>
   </cc:Work>
  </rdf:RDF>
 </metadata>
 <defs>
  <style type="text/css">*{stroke-linejoin: round; stroke-linecap: butt}</style>
 </defs>
 <g id="figure_1">
  <g id="patch_1">
   <path d="M 0 74.810419 
L 65.177559 74.810419 
L 65.177559 0 
L 0 0 
z
" style="fill: #ffffff"/>
  </g>
  <g id="axes_1">
   <g id="line2d_1">
    <path d="M 51.082585 52.868972 
L 50.745445 50.485566 
L 50.192536 46.579902 
L 49.399133 40.974643 
L 48.75632 36.423473 
L 48.638321 35.593538 
" clip-path="url(#p45e2179e20)" style="fill: none; stroke: #808080; stroke-width: 0.4; stroke-linecap: square"/>
   </g>
   <g id="line2d_2">
    <path d="M 44.548815 53.158385 
L 43.310388 47.37579 
L 42.48271 43.510558 
L 41.655031 39.645327 
L 40.603155 34.735228 
L 39.551279 29.825129 
L 38.388708 24.717831 
L 37.226138 19.610533 
L 36.667609 16.357468 
" clip-path="url(#p45e2179e20)" style="fill: none; stroke: #808080; stroke-width: 0.4; stroke-linecap: square"/>
   </g>
   <g id="line2d_3">
    <path d="M 19.283556 46.435196 
L 19.258832 43.028912 
L 19.234109 39.622628 
L 19.199271 34.916821 
L 19.166119 30.311031 
L 19.132967 25.705242 
L 19.098691 20.999434 
L 19.064415 16.293627 
L 19.031825 11.860209 
" clip-path="url(#p45e2179e20)" style="fill: none; stroke: #808080; stroke-width: 0.4; stroke-linecap: square"/>
   </g>
   <g id="line2d_4">
    <path d="M 8.637804 44.988128 
L 8.283807 40.602236 
L 7.92981 36.216344 
L 7.575813 31.830452 
L 7.221816 27.44456 
" clip-path="url(#p45e2179e20)" style="fill: none; stroke: #808080; stroke-width: 0.4; stroke-linecap: square"/>
   </g>
   <g id="line2d_5">
    <path d="M 55.718258 63.136059 
L 61.890164 62.032315 
" clip-path="url(#p45e2179e20)" style="fill: none; stroke: #808080; stroke-width: 0.4; stroke-linecap: square"/>
   </g>
   <g id="line2d_6">
    <path d="M 55.002398 54.131609 
L 55.605035 50.065278 
L 56.207672 45.998947 
L 56.81031 41.932616 
L 57.412947 37.866285 
" clip-path="url(#p45e2179e20)" style="fill: none; stroke: #808080; stroke-width: 0.4; stroke-linecap: square"/>
   </g>
   <g id="line2d_7">
    <path d="M 27.565958 30.877799 
L 26.816945 32.249322 
L 26.067933 33.620844 
L 25.318921 34.992366 
L 24.569908 36.363888 
L 24.28938 37.759351 
L 24.008851 39.154814 
L 23.728323 40.550276 
L 23.447795 41.945739 
L 23.167266 43.341202 
L 22.886738 44.736664 
L 22.606209 46.132127 
L 22.325681 47.52759 
L 21.302461 48.150396 
L 20.279242 48.773203 
" clip-path="url(#p45e2179e20)" style="fill: none; stroke: #008000; stroke-width: 0.4; stroke-linecap: square"/>
   </g>
   <g id="line2d_8">
    <path d="M 21.011959 12.779523 
L 20.871906 13.820312 
L 20.731852 14.861101 
L 20.591799 15.90189 
L 20.451745 16.94268 
L 20.311692 17.983469 
L 20.171638 19.024258 
L 20.031585 20.065047 
L 19.891531 21.105836 
L 19.078181 22.452177 
L 18.264832 23.798517 
L 17.451482 25.144858 
L 16.638132 26.491198 
L 16.370246 27.696024 
L 16.10236 28.90085 
L 15.834475 30.105675 
L 15.566589 31.310501 
L 15.298703 32.515327 
L 15.030818 33.720152 
L 14.762932 34.924978 
L 14.495046 36.129804 
L 14.227161 37.334629 
L 13.959275 38.539455 
L 13.691389 39.744281 
L 13.423504 40.949107 
L 13.155618 42.153932 
L 12.887732 43.358758 
L 12.619846 44.563584 
L 12.351961 45.768409 
L 13.762891 46.579193 
L 15.173821 47.389976 
L 16.121184 47.933336 
L 17.160699 48.143303 
L 18.200213 48.35327 
L 19.239728 48.563236 
L 20.279242 48.773203 
" clip-path="url(#p45e2179e20)" style="fill: none; stroke: #4169e1; stroke-width: 0.4; stroke-linecap: square"/>
   </g>
   <g id="line2d_9">
    <path d="M 52.813236 35.480042 
L 53.132676 37.090614 
L 53.452116 38.701186 
L 53.771556 40.311758 
L 54.090996 41.922331 
L 53.922145 43.599581 
L 53.753294 45.276832 
L 53.584444 46.954083 
L 53.415593 48.631334 
L 53.246742 50.308584 
L 53.077891 51.985835 
L 52.90904 53.663086 
L 52.740189 55.340336 
" clip-path="url(#p45e2179e20)" style="fill: none; stroke: #008000; stroke-width: 0.4; stroke-linecap: square"/>
   </g>
   <g id="line2d_10">
    <path d="M 30.509188 38.528815 
L 29.879018 39.817521 
L 29.248847 41.106227 
L 28.618677 42.394933 
L 27.988506 43.683639 
L 27.358336 44.972345 
L 26.728165 46.261051 
L 26.097995 47.549757 
L 25.467824 48.838463 
" clip-path="url(#p45e2179e20)" style="fill: none; stroke: #008000; stroke-width: 0.4; stroke-linecap: square"/>
   </g>
   <g id="line2d_11">
    <path d="M 35.260613 14.872096 
L 33.80164 15.010419 
L 32.342667 15.148741 
L 30.883695 15.287064 
L 29.424722 15.425387 
L 28.663067 16.343991 
L 27.901412 17.262595 
L 27.139757 18.181199 
L 26.378102 19.099803 
" clip-path="url(#p45e2179e20)" style="fill: none; stroke: #4169e1; stroke-width: 0.4; stroke-linecap: square"/>
   </g>
   <g id="line2d_12">
    <path d="M 19.199271 10.64297 
L 20.105615 11.711246 
L 21.011959 12.779523 
L 21.682727 13.569558 
L 22.353495 14.359593 
L 23.024263 15.149628 
L 23.695031 15.939663 
L 24.365798 16.729698 
L 25.036566 17.519733 
L 25.707334 18.309768 
L 26.378102 19.099803 
" clip-path="url(#p45e2179e20)" style="fill: none; stroke: #4169e1; stroke-width: 0.4; stroke-linecap: square"/>
   </g>
   <g id="line2d_13">
    <path d="M 26.378102 19.099803 
L 26.526584 20.572053 
L 26.675066 22.044302 
L 26.823548 23.516552 
L 26.97203 24.988801 
L 27.120512 26.461051 
L 27.268994 27.9333 
L 27.417476 29.40555 
L 27.565958 30.877799 
L 27.933862 31.834176 
L 28.301765 32.790553 
L 28.669669 33.74693 
L 29.037573 34.703307 
L 29.405477 35.659684 
L 29.773381 36.616061 
L 30.141285 37.572438 
L 30.509188 38.528815 
L 31.206506 39.83756 
L 31.903824 41.146305 
" clip-path="url(#p45e2179e20)" style="fill: none; stroke: #4169e1; stroke-width: 0.4; stroke-linecap: square"/>
   </g>
   <g id="line2d_14">
    <path d="M 31.903824 41.146305 
L 32.439876 42.116692 
L 32.975928 43.087078 
L 34.267174 43.746771 
L 34.843683 44.717157 
L 35.864655 45.737198 
L 36.885627 46.757239 
L 37.906598 47.77728 
L 38.92757 48.797321 
L 39.521498 50.118479 
L 40.115426 51.439638 
L 40.709354 52.760796 
L 41.303282 54.081955 
" clip-path="url(#p45e2179e20)" style="fill: none; stroke: #008000; stroke-width: 0.4; stroke-linecap: square"/>
   </g>
   <g id="line2d_15">
    <path d="M 44.888202 35.586444 
L 45.116404 36.825496 
L 45.344606 38.064547 
L 45.572807 39.303599 
L 45.801009 40.542651 
L 46.02921 41.781703 
L 46.257412 43.020754 
L 46.485613 44.259806 
L 46.713815 45.498858 
L 46.942016 46.737909 
L 47.170218 47.976961 
L 47.398419 49.216013 
L 47.626621 50.455064 
L 47.854822 51.694116 
L 48.083024 52.933168 
L 48.311225 54.172219 
L 48.539427 55.411271 
" clip-path="url(#p45e2179e20)" style="fill: none; stroke: #008000; stroke-width: 0.4; stroke-linecap: square"/>
   </g>
   <g id="line2d_16">
    <path d="M 20.279242 48.773203 
L 21.576388 48.789518 
L 22.873533 48.805833 
L 24.170679 48.822148 
L 25.467824 48.838463 
L 26.678156 48.853359 
L 27.888488 48.868255 
L 29.408708 49.227894 
L 30.928928 49.587533 
L 32.449147 49.947172 
L 33.969367 50.306811 
L 34.886106 50.778704 
L 35.802846 51.250597 
L 36.719585 51.72249 
L 37.636325 52.194383 
L 38.553064 52.666276 
L 39.469803 53.138169 
L 40.386543 53.610062 
L 41.303282 54.081955 
L 42.711965 54.730298 
L 44.120647 55.378641 
L 45.52933 56.026984 
L 46.938013 56.675327 
" clip-path="url(#p45e2179e20)" style="fill: none; stroke: #008000; stroke-width: 0.4; stroke-linecap: square"/>
   </g>
   <g id="line2d_17">
    <path d="M 61.890164 62.032315 
L 62.214942 63.76454 
L 60.782379 63.865268 
L 59.349816 63.965995 
L 57.917252 64.066722 
L 56.484689 64.167449 
" clip-path="url(#p45e2179e20)" style="fill: none; stroke: #008000; stroke-width: 0.4; stroke-linecap: square"/>
   </g>
   <g id="line2d_18">
    <path d="M 61.890164 62.032315 
L 61.528301 60.474589 
L 60.157828 60.721442 
L 58.787354 60.968295 
L 57.416881 61.215148 
L 56.046407 61.462 
" clip-path="url(#p45e2179e20)" style="fill: none; stroke: #008000; stroke-width: 0.4; stroke-linecap: square"/>
   </g>
   <g id="line2d_19">
    <path d="M 41.768535 26.045728 
L 40.412671 27.291696 
L 39.056807 28.537664 
L 37.700943 29.783632 
L 36.345079 31.0296 
L 35.622195 32.677767 
L 34.899311 34.325935 
L 34.176427 35.974102 
L 33.453543 37.62227 
L 33.066113 38.503279 
L 32.678683 39.384287 
L 32.291253 40.265296 
L 31.903824 41.146305 
" clip-path="url(#p45e2179e20)" style="fill: none; stroke: #008000; stroke-width: 0.4; stroke-linecap: square"/>
   </g>
   <g id="line2d_20">
    <path d="M 37.58463 15.526114 
L 38.320718 16.570627 
L 39.056807 17.61514 
L 39.792896 18.659654 
L 40.528984 19.704167 
L 40.838872 21.289557 
L 41.14876 22.874948 
L 41.458647 24.460338 
L 41.768535 26.045728 
L 42.158494 27.238318 
L 42.548452 28.430907 
L 42.93841 29.623497 
L 43.328369 30.816086 
L 43.718327 32.008676 
L 44.108286 33.201265 
L 44.498244 34.393855 
L 44.888202 35.586444 
" clip-path="url(#p45e2179e20)" style="fill: none; stroke: #4169e1; stroke-width: 0.4; stroke-linecap: square"/>
   </g>
   <g id="line2d_21">
    <path d="M 34.843683 44.717157 
L 34.625104 46.114571 
L 34.406525 47.511984 
L 34.187946 48.909398 
L 33.969367 50.306811 
" clip-path="url(#p45e2179e20)" style="fill: none; stroke: #4169e1; stroke-width: 0.4; stroke-linecap: square"/>
   </g>
   <g id="line2d_22">
    <path d="M 48.947366 28.260309 
L 48.439971 29.176076 
L 47.932575 30.091843 
L 47.42518 31.00761 
L 46.917784 31.923377 
L 46.410389 32.839144 
L 45.902993 33.75491 
L 45.395598 34.670677 
L 44.888202 35.586444 
" clip-path="url(#p45e2179e20)" style="fill: none; stroke: #008000; stroke-width: 0.4; stroke-linecap: square"/>
   </g>
   <g id="line2d_23">
    <path d="M 40.528984 19.704167 
L 41.910415 20.823871 
L 43.291845 21.943575 
L 44.673276 23.063279 
L 46.054706 24.182983 
L 46.777871 25.202315 
L 47.501036 26.221646 
L 48.224201 27.240978 
L 48.947366 28.260309 
L 49.567141 29.204095 
L 50.186917 30.147881 
L 50.806692 31.091667 
L 51.426468 32.035453 
L 52.119852 33.757748 
L 52.813236 35.480042 
" clip-path="url(#p45e2179e20)" style="fill: none; stroke: #4169e1; stroke-width: 0.4; stroke-linecap: square"/>
   </g>
   <g id="line2d_24">
    <path d="M 4.474127 28.579515 
L 4.60835 30.161448 
L 4.742574 31.74338 
L 4.876798 33.325312 
L 5.011022 34.907244 
L 5.145246 36.489177 
L 5.279469 38.071109 
L 5.413693 39.653041 
L 5.547917 41.234973 
L 5.682141 42.816906 
L 5.816365 44.398838 
L 5.950588 45.98077 
L 6.084812 47.562702 
L 6.219036 49.144635 
L 6.35326 50.726567 
L 6.487484 52.308499 
L 6.621707 53.890431 
" clip-path="url(#p45e2179e20)" style="fill: none; stroke: #008000; stroke-width: 0.4; stroke-linecap: square"/>
   </g>
   <g id="line2d_25">
    <path d="M 3.678477 28.559654 
L 3.812771 30.141675 
L 3.947065 31.723696 
L 4.081359 33.305716 
L 4.215653 34.887737 
L 4.349947 36.469758 
L 4.484241 38.051779 
L 4.618535 39.6338 
L 4.752829 41.215821 
L 4.887123 42.797842 
L 5.021417 44.379863 
L 5.155711 45.961884 
L 5.290005 47.543905 
L 5.424299 49.125926 
L 5.558593 50.707947 
L 5.692887 52.289967 
L 5.827181 53.871988 
" clip-path="url(#p45e2179e20)" style="fill: none; stroke: #008000; stroke-width: 0.4; stroke-linecap: square"/>
   </g>
   <g id="line2d_26">
    <path d="M 2.962616 28.675987 
L 3.09691 30.258007 
L 3.231204 31.840028 
L 3.365498 33.422049 
L 3.499792 35.00407 
L 3.634086 36.586091 
L 3.768381 38.168112 
L 3.902675 39.750133 
L 4.036969 41.332154 
L 4.171263 42.914175 
L 4.305557 44.496196 
L 4.439851 46.078217 
L 4.574145 47.660238 
L 4.708439 49.242259 
L 4.842733 50.824279 
L 4.977027 52.4063 
L 5.111321 53.988321 
" clip-path="url(#p45e2179e20)" style="fill: none; stroke: #008000; stroke-width: 0.4; stroke-linecap: square"/>
   </g>
   <g id="text_1">
    <g id="patch_2">
     <path d="M 39.032986 33.731048 
L 42.369907 46.075161 
L 44.277077 45.559606 
L 40.940156 33.215493 
z
" style="fill: #ffffff"/>
    </g>
    <!-- Show Me Lift -->
    <g style="fill: #808080" transform="translate(39.459038 33.636594)rotate(-285.126921)scale(0.02 -0.02)">
     <defs>
      <path id="DejaVuSans-53" d="M 3425 4513 
L 3425 3897 
Q 3066 4069 2747 4153 
Q 2428 4238 2131 4238 
Q 1616 4238 1336 4038 
Q 1056 3838 1056 3469 
Q 1056 3159 1242 3001 
Q 1428 2844 1947 2747 
L 2328 2669 
Q 3034 2534 3370 2195 
Q 3706 1856 3706 1288 
Q 3706 609 3251 259 
Q 2797 -91 1919 -91 
Q 1588 -91 1214 -16 
Q 841 59 441 206 
L 441 856 
Q 825 641 1194 531 
Q 1563 422 1919 422 
Q 2459 422 2753 634 
Q 3047 847 3047 1241 
Q 3047 1584 2836 1778 
Q 2625 1972 2144 2069 
L 1759 2144 
Q 1053 2284 737 2584 
Q 422 2884 422 3419 
Q 422 4038 858 4394 
Q 1294 4750 2059 4750 
Q 2388 4750 2728 4690 
Q 3069 4631 3425 4513 
z
" transform="scale(0.015625)"/>
      <path id="DejaVuSans-68" d="M 3513 2113 
L 3513 0 
L 2938 0 
L 2938 2094 
Q 2938 2591 2744 2837 
Q 2550 3084 2163 3084 
Q 1697 3084 1428 2787 
Q 1159 2491 1159 1978 
L 1159 0 
L 581 0 
L 581 4863 
L 1159 4863 
L 1159 2956 
Q 1366 3272 1645 3428 
Q 1925 3584 2291 3584 
Q 2894 3584 3203 3211 
Q 3513 2838 3513 2113 
z
" transform="scale(0.015625)"/>
      <path id="DejaVuSans-6f" d="M 1959 3097 
Q 1497 3097 1228 2736 
Q 959 2375 959 1747 
Q 959 1119 1226 758 
Q 1494 397 1959 397 
Q 2419 397 2687 759 
Q 2956 1122 2956 1747 
Q 2956 2369 2687 2733 
Q 2419 3097 1959 3097 
z
M 1959 3584 
Q 2709 3584 3137 3096 
Q 3566 2609 3566 1747 
Q 3566 888 3137 398 
Q 2709 -91 1959 -91 
Q 1206 -91 779 398 
Q 353 888 353 1747 
Q 353 2609 779 3096 
Q 1206 3584 1959 3584 
z
" transform="scale(0.015625)"/>
      <path id="DejaVuSans-77" d="M 269 3500 
L 844 3500 
L 1563 769 
L 2278 3500 
L 2956 3500 
L 3675 769 
L 4391 3500 
L 4966 3500 
L 4050 0 
L 3372 0 
L 2619 2869 
L 1863 0 
L 1184 0 
L 269 3500 
z
" transform="scale(0.015625)"/>
      <path id="DejaVuSans-20" transform="scale(0.015625)"/>
      <path id="DejaVuSans-4d" d="M 628 4666 
L 1569 4666 
L 2759 1491 
L 3956 4666 
L 4897 4666 
L 4897 0 
L 4281 0 
L 4281 4097 
L 3078 897 
L 2444 897 
L 1241 4097 
L 1241 0 
L 628 0 
L 628 4666 
z
" transform="scale(0.015625)"/>
      <path id="DejaVuSans-65" d="M 3597 1894 
L 3597 1613 
L 953 1613 
Q 991 1019 1311 708 
Q 1631 397 2203 397 
Q 2534 397 2845 478 
Q 3156 559 3463 722 
L 3463 178 
Q 3153 47 2828 -22 
Q 2503 -91 2169 -91 
Q 1331 -91 842 396 
Q 353 884 353 1716 
Q 353 2575 817 3079 
Q 1281 3584 2069 3584 
Q 2775 3584 3186 3129 
Q 3597 2675 3597 1894 
z
M 3022 2063 
Q 3016 2534 2758 2815 
Q 2500 3097 2075 3097 
Q 1594 3097 1305 2825 
Q 1016 2553 972 2059 
L 3022 2063 
z
" transform="scale(0.015625)"/>
      <path id="DejaVuSans-4c" d="M 628 4666 
L 1259 4666 
L 1259 531 
L 3531 531 
L 3531 0 
L 628 0 
L 628 4666 
z
" transform="scale(0.015625)"/>
      <path id="DejaVuSans-69" d="M 603 3500 
L 1178 3500 
L 1178 0 
L 603 0 
L 603 3500 
z
M 603 4863 
L 1178 4863 
L 1178 4134 
L 603 4134 
L 603 4863 
z
" transform="scale(0.015625)"/>
      <path id="DejaVuSans-66" d="M 2375 4863 
L 2375 4384 
L 1825 4384 
Q 1516 4384 1395 4259 
Q 1275 4134 1275 3809 
L 1275 3500 
L 2222 3500 
L 2222 3053 
L 1275 3053 
L 1275 0 
L 697 0 
L 697 3053 
L 147 3053 
L 147 3500 
L 697 3500 
L 697 3744 
Q 697 4328 969 4595 
Q 1241 4863 1831 4863 
L 2375 4863 
z
" transform="scale(0.015625)"/>
      <path id="DejaVuSans-74" d="M 1172 4494 
L 1172 3500 
L 2356 3500 
L 2356 3053 
L 1172 3053 
L 1172 1153 
Q 1172 725 1289 603 
Q 1406 481 1766 481 
L 2356 481 
L 2356 0 
L 1766 0 
Q 1100 0 847 248 
Q 594 497 594 1153 
L 594 3053 
L 172 3053 
L 172 3500 
L 594 3500 
L 594 4494 
L 1172 4494 
z
" transform="scale(0.015625)"/>
     </defs>
     <use xlink:href="#DejaVuSans-53"/>
     <use xlink:href="#DejaVuSans-68" x="63.476562"/>
     <use xlink:href="#DejaVuSans-6f" x="126.855469"/>
     <use xlink:href="#DejaVuSans-77" x="188.037109"/>
     <use xlink:href="#DejaVuSans-20" x="269.824219"/>
     <use xlink:href="#DejaVuSans-4d" x="301.611328"/>
     <use xlink:href="#DejaVuSans-65" x="387.890625"/>
     <use xlink:href="#DejaVuSans-20" x="449.414062"/>
     <use xlink:href="#DejaVuSans-4c" x="481.201172"/>
     <use xlink:href="#DejaVuSans-69" x="536.914062"/>
     <use xlink:href="#DejaVuSans-66" x="564.697266"/>
     <use xlink:href="#DejaVuSans-74" x="598.152344"/>
    </g>
   </g>
   <g id="text_2">
    <g id="patch_3">
     <path d="M 18.123443 24.277756 
L 18.233251 36.362257 
L 20.208795 36.344306 
L 20.098986 24.259805 
z
" style="fill: #ffffff"/>
    </g>
    <!-- Jayhawk Lift -->
    <g style="fill: #808080" transform="translate(18.559544 24.293794)rotate(-270.520616)scale(0.02 -0.02)">
     <defs>
      <path id="DejaVuSans-4a" d="M 628 4666 
L 1259 4666 
L 1259 325 
Q 1259 -519 939 -900 
Q 619 -1281 -91 -1281 
L -331 -1281 
L -331 -750 
L -134 -750 
Q 284 -750 456 -515 
Q 628 -281 628 325 
L 628 4666 
z
" transform="scale(0.015625)"/>
      <path id="DejaVuSans-61" d="M 2194 1759 
Q 1497 1759 1228 1600 
Q 959 1441 959 1056 
Q 959 750 1161 570 
Q 1363 391 1709 391 
Q 2188 391 2477 730 
Q 2766 1069 2766 1631 
L 2766 1759 
L 2194 1759 
z
M 3341 1997 
L 3341 0 
L 2766 0 
L 2766 531 
Q 2569 213 2275 61 
Q 1981 -91 1556 -91 
Q 1019 -91 701 211 
Q 384 513 384 1019 
Q 384 1609 779 1909 
Q 1175 2209 1959 2209 
L 2766 2209 
L 2766 2266 
Q 2766 2663 2505 2880 
Q 2244 3097 1772 3097 
Q 1472 3097 1187 3025 
Q 903 2953 641 2809 
L 641 3341 
Q 956 3463 1253 3523 
Q 1550 3584 1831 3584 
Q 2591 3584 2966 3190 
Q 3341 2797 3341 1997 
z
" transform="scale(0.015625)"/>
      <path id="DejaVuSans-79" d="M 2059 -325 
Q 1816 -950 1584 -1140 
Q 1353 -1331 966 -1331 
L 506 -1331 
L 506 -850 
L 844 -850 
Q 1081 -850 1212 -737 
Q 1344 -625 1503 -206 
L 1606 56 
L 191 3500 
L 800 3500 
L 1894 763 
L 2988 3500 
L 3597 3500 
L 2059 -325 
z
" transform="scale(0.015625)"/>
      <path id="DejaVuSans-6b" d="M 581 4863 
L 1159 4863 
L 1159 1991 
L 2875 3500 
L 3609 3500 
L 1753 1863 
L 3688 0 
L 2938 0 
L 1159 1709 
L 1159 0 
L 581 0 
L 581 4863 
z
" transform="scale(0.015625)"/>
     </defs>
     <use xlink:href="#DejaVuSans-4a"/>
     <use xlink:href="#DejaVuSans-61" x="29.492188"/>
     <use xlink:href="#DejaVuSans-79" x="90.771484"/>
     <use xlink:href="#DejaVuSans-68" x="149.951172"/>
     <use xlink:href="#DejaVuSans-61" x="213.330078"/>
     <use xlink:href="#DejaVuSans-77" x="274.609375"/>
     <use xlink:href="#DejaVuSans-6b" x="356.396484"/>
     <use xlink:href="#DejaVuSans-20" x="414.306641"/>
     <use xlink:href="#DejaVuSans-4c" x="446.09375"/>
     <use xlink:href="#DejaVuSans-69" x="501.806641"/>
     <use xlink:href="#DejaVuSans-66" x="529.589844"/>
     <use xlink:href="#DejaVuSans-74" x="563.044922"/>
    </g>
   </g>
   <g id="text_3">
    <g id="patch_4">
     <path d="M 12.159858 47.353227 
L 20.339664 18.211329 
L 18.437548 17.677427 
L 10.257743 46.819324 
z
" style="fill: #ffffff"/>
    </g>
    <!-- Rattlesnake Terrain Park 18.3° -->
    <g style="fill: #4169e1" transform="translate(11.745546 47.216161)rotate(-74.321162)scale(0.02 -0.02)">
     <defs>
      <path id="DejaVuSans-52" d="M 2841 2188 
Q 3044 2119 3236 1894 
Q 3428 1669 3622 1275 
L 4263 0 
L 3584 0 
L 2988 1197 
Q 2756 1666 2539 1819 
Q 2322 1972 1947 1972 
L 1259 1972 
L 1259 0 
L 628 0 
L 628 4666 
L 2053 4666 
Q 2853 4666 3247 4331 
Q 3641 3997 3641 3322 
Q 3641 2881 3436 2590 
Q 3231 2300 2841 2188 
z
M 1259 4147 
L 1259 2491 
L 2053 2491 
Q 2509 2491 2742 2702 
Q 2975 2913 2975 3322 
Q 2975 3731 2742 3939 
Q 2509 4147 2053 4147 
L 1259 4147 
z
" transform="scale(0.015625)"/>
      <path id="DejaVuSans-6c" d="M 603 4863 
L 1178 4863 
L 1178 0 
L 603 0 
L 603 4863 
z
" transform="scale(0.015625)"/>
      <path id="DejaVuSans-73" d="M 2834 3397 
L 2834 2853 
Q 2591 2978 2328 3040 
Q 2066 3103 1784 3103 
Q 1356 3103 1142 2972 
Q 928 2841 928 2578 
Q 928 2378 1081 2264 
Q 1234 2150 1697 2047 
L 1894 2003 
Q 2506 1872 2764 1633 
Q 3022 1394 3022 966 
Q 3022 478 2636 193 
Q 2250 -91 1575 -91 
Q 1294 -91 989 -36 
Q 684 19 347 128 
L 347 722 
Q 666 556 975 473 
Q 1284 391 1588 391 
Q 1994 391 2212 530 
Q 2431 669 2431 922 
Q 2431 1156 2273 1281 
Q 2116 1406 1581 1522 
L 1381 1569 
Q 847 1681 609 1914 
Q 372 2147 372 2553 
Q 372 3047 722 3315 
Q 1072 3584 1716 3584 
Q 2034 3584 2315 3537 
Q 2597 3491 2834 3397 
z
" transform="scale(0.015625)"/>
      <path id="DejaVuSans-6e" d="M 3513 2113 
L 3513 0 
L 2938 0 
L 2938 2094 
Q 2938 2591 2744 2837 
Q 2550 3084 2163 3084 
Q 1697 3084 1428 2787 
Q 1159 2491 1159 1978 
L 1159 0 
L 581 0 
L 581 3500 
L 1159 3500 
L 1159 2956 
Q 1366 3272 1645 3428 
Q 1925 3584 2291 3584 
Q 2894 3584 3203 3211 
Q 3513 2838 3513 2113 
z
" transform="scale(0.015625)"/>
      <path id="DejaVuSans-54" d="M -19 4666 
L 3928 4666 
L 3928 4134 
L 2272 4134 
L 2272 0 
L 1638 0 
L 1638 4134 
L -19 4134 
L -19 4666 
z
" transform="scale(0.015625)"/>
      <path id="DejaVuSans-72" d="M 2631 2963 
Q 2534 3019 2420 3045 
Q 2306 3072 2169 3072 
Q 1681 3072 1420 2755 
Q 1159 2438 1159 1844 
L 1159 0 
L 581 0 
L 581 3500 
L 1159 3500 
L 1159 2956 
Q 1341 3275 1631 3429 
Q 1922 3584 2338 3584 
Q 2397 3584 2469 3576 
Q 2541 3569 2628 3553 
L 2631 2963 
z
" transform="scale(0.015625)"/>
      <path id="DejaVuSans-50" d="M 1259 4147 
L 1259 2394 
L 2053 2394 
Q 2494 2394 2734 2622 
Q 2975 2850 2975 3272 
Q 2975 3691 2734 3919 
Q 2494 4147 2053 4147 
L 1259 4147 
z
M 628 4666 
L 2053 4666 
Q 2838 4666 3239 4311 
Q 3641 3956 3641 3272 
Q 3641 2581 3239 2228 
Q 2838 1875 2053 1875 
L 1259 1875 
L 1259 0 
L 628 0 
L 628 4666 
z
" transform="scale(0.015625)"/>
      <path id="DejaVuSans-31" d="M 794 531 
L 1825 531 
L 1825 4091 
L 703 3866 
L 703 4441 
L 1819 4666 
L 2450 4666 
L 2450 531 
L 3481 531 
L 3481 0 
L 794 0 
L 794 531 
z
" transform="scale(0.015625)"/>
      <path id="DejaVuSans-38" d="M 2034 2216 
Q 1584 2216 1326 1975 
Q 1069 1734 1069 1313 
Q 1069 891 1326 650 
Q 1584 409 2034 409 
Q 2484 409 2743 651 
Q 3003 894 3003 1313 
Q 3003 1734 2745 1975 
Q 2488 2216 2034 2216 
z
M 1403 2484 
Q 997 2584 770 2862 
Q 544 3141 544 3541 
Q 544 4100 942 4425 
Q 1341 4750 2034 4750 
Q 2731 4750 3128 4425 
Q 3525 4100 3525 3541 
Q 3525 3141 3298 2862 
Q 3072 2584 2669 2484 
Q 3125 2378 3379 2068 
Q 3634 1759 3634 1313 
Q 3634 634 3220 271 
Q 2806 -91 2034 -91 
Q 1263 -91 848 271 
Q 434 634 434 1313 
Q 434 1759 690 2068 
Q 947 2378 1403 2484 
z
M 1172 3481 
Q 1172 3119 1398 2916 
Q 1625 2713 2034 2713 
Q 2441 2713 2670 2916 
Q 2900 3119 2900 3481 
Q 2900 3844 2670 4047 
Q 2441 4250 2034 4250 
Q 1625 4250 1398 4047 
Q 1172 3844 1172 3481 
z
" transform="scale(0.015625)"/>
      <path id="DejaVuSans-2e" d="M 684 794 
L 1344 794 
L 1344 0 
L 684 0 
L 684 794 
z
" transform="scale(0.015625)"/>
      <path id="DejaVuSans-33" d="M 2597 2516 
Q 3050 2419 3304 2112 
Q 3559 1806 3559 1356 
Q 3559 666 3084 287 
Q 2609 -91 1734 -91 
Q 1441 -91 1130 -33 
Q 819 25 488 141 
L 488 750 
Q 750 597 1062 519 
Q 1375 441 1716 441 
Q 2309 441 2620 675 
Q 2931 909 2931 1356 
Q 2931 1769 2642 2001 
Q 2353 2234 1838 2234 
L 1294 2234 
L 1294 2753 
L 1863 2753 
Q 2328 2753 2575 2939 
Q 2822 3125 2822 3475 
Q 2822 3834 2567 4026 
Q 2313 4219 1838 4219 
Q 1578 4219 1281 4162 
Q 984 4106 628 3988 
L 628 4550 
Q 988 4650 1302 4700 
Q 1616 4750 1894 4750 
Q 2613 4750 3031 4423 
Q 3450 4097 3450 3541 
Q 3450 3153 3228 2886 
Q 3006 2619 2597 2516 
z
" transform="scale(0.015625)"/>
      <path id="DejaVuSans-b0" d="M 1600 4347 
Q 1350 4347 1178 4173 
Q 1006 4000 1006 3750 
Q 1006 3503 1178 3333 
Q 1350 3163 1600 3163 
Q 1850 3163 2022 3333 
Q 2194 3503 2194 3750 
Q 2194 3997 2020 4172 
Q 1847 4347 1600 4347 
z
M 1600 4750 
Q 1800 4750 1984 4673 
Q 2169 4597 2303 4453 
Q 2447 4313 2519 4134 
Q 2591 3956 2591 3750 
Q 2591 3338 2302 3052 
Q 2013 2766 1594 2766 
Q 1172 2766 890 3047 
Q 609 3328 609 3750 
Q 609 4169 896 4459 
Q 1184 4750 1600 4750 
z
" transform="scale(0.015625)"/>
     </defs>
     <use xlink:href="#DejaVuSans-52"/>
     <use xlink:href="#DejaVuSans-61" x="67.232422"/>
     <use xlink:href="#DejaVuSans-74" x="128.511719"/>
     <use xlink:href="#DejaVuSans-74" x="167.720703"/>
     <use xlink:href="#DejaVuSans-6c" x="206.929688"/>
     <use xlink:href="#DejaVuSans-65" x="234.712891"/>
     <use xlink:href="#DejaVuSans-73" x="296.236328"/>
     <use xlink:href="#DejaVuSans-6e" x="348.335938"/>
     <use xlink:href="#DejaVuSans-61" x="411.714844"/>
     <use xlink:href="#DejaVuSans-6b" x="472.994141"/>
     <use xlink:href="#DejaVuSans-65" x="527.279297"/>
     <use xlink:href="#DejaVuSans-20" x="588.802734"/>
     <use xlink:href="#DejaVuSans-54" x="620.589844"/>
     <use xlink:href="#DejaVuSans-65" x="664.673828"/>
     <use xlink:href="#DejaVuSans-72" x="726.197266"/>
     <use xlink:href="#DejaVuSans-72" x="765.560547"/>
     <use xlink:href="#DejaVuSans-61" x="806.673828"/>
     <use xlink:href="#DejaVuSans-69" x="867.953125"/>
     <use xlink:href="#DejaVuSans-6e" x="895.736328"/>
     <use xlink:href="#DejaVuSans-20" x="959.115234"/>
     <use xlink:href="#DejaVuSans-50" x="990.902344"/>
     <use xlink:href="#DejaVuSans-61" x="1046.705078"/>
     <use xlink:href="#DejaVuSans-72" x="1107.984375"/>
     <use xlink:href="#DejaVuSans-6b" x="1149.097656"/>
     <use xlink:href="#DejaVuSans-20" x="1207.007812"/>
     <use xlink:href="#DejaVuSans-31" x="1238.794922"/>
     <use xlink:href="#DejaVuSans-38" x="1302.417969"/>
     <use xlink:href="#DejaVuSans-2e" x="1366.041016"/>
     <use xlink:href="#DejaVuSans-33" x="1397.828125"/>
     <use xlink:href="#DejaVuSans-b0" x="1461.451172"/>
    </g>
   </g>
   <g id="text_4">
    <g id="patch_5">
     <path d="M 25.47186 49.719419 
L 42.102984 52.836026 
L 42.466874 50.894203 
L 25.83575 47.777596 
z
" style="fill: #ffffff"/>
    </g>
    <!-- Oregon Trail 3.3° -->
    <g style="fill: #008000" transform="translate(25.571813 49.294624)rotate(-349.386099)scale(0.02 -0.02)">
     <defs>
      <path id="DejaVuSans-4f" d="M 2522 4238 
Q 1834 4238 1429 3725 
Q 1025 3213 1025 2328 
Q 1025 1447 1429 934 
Q 1834 422 2522 422 
Q 3209 422 3611 934 
Q 4013 1447 4013 2328 
Q 4013 3213 3611 3725 
Q 3209 4238 2522 4238 
z
M 2522 4750 
Q 3503 4750 4090 4092 
Q 4678 3434 4678 2328 
Q 4678 1225 4090 567 
Q 3503 -91 2522 -91 
Q 1538 -91 948 565 
Q 359 1222 359 2328 
Q 359 3434 948 4092 
Q 1538 4750 2522 4750 
z
" transform="scale(0.015625)"/>
      <path id="DejaVuSans-67" d="M 2906 1791 
Q 2906 2416 2648 2759 
Q 2391 3103 1925 3103 
Q 1463 3103 1205 2759 
Q 947 2416 947 1791 
Q 947 1169 1205 825 
Q 1463 481 1925 481 
Q 2391 481 2648 825 
Q 2906 1169 2906 1791 
z
M 3481 434 
Q 3481 -459 3084 -895 
Q 2688 -1331 1869 -1331 
Q 1566 -1331 1297 -1286 
Q 1028 -1241 775 -1147 
L 775 -588 
Q 1028 -725 1275 -790 
Q 1522 -856 1778 -856 
Q 2344 -856 2625 -561 
Q 2906 -266 2906 331 
L 2906 616 
Q 2728 306 2450 153 
Q 2172 0 1784 0 
Q 1141 0 747 490 
Q 353 981 353 1791 
Q 353 2603 747 3093 
Q 1141 3584 1784 3584 
Q 2172 3584 2450 3431 
Q 2728 3278 2906 2969 
L 2906 3500 
L 3481 3500 
L 3481 434 
z
" transform="scale(0.015625)"/>
     </defs>
     <use xlink:href="#DejaVuSans-4f"/>
     <use xlink:href="#DejaVuSans-72" x="78.710938"/>
     <use xlink:href="#DejaVuSans-65" x="117.574219"/>
     <use xlink:href="#DejaVuSans-67" x="179.097656"/>
     <use xlink:href="#DejaVuSans-6f" x="242.574219"/>
     <use xlink:href="#DejaVuSans-6e" x="303.755859"/>
     <use xlink:href="#DejaVuSans-20" x="367.134766"/>
     <use xlink:href="#DejaVuSans-54" x="398.921875"/>
     <use xlink:href="#DejaVuSans-72" x="445.255859"/>
     <use xlink:href="#DejaVuSans-61" x="486.369141"/>
     <use xlink:href="#DejaVuSans-69" x="547.648438"/>
     <use xlink:href="#DejaVuSans-6c" x="575.431641"/>
     <use xlink:href="#DejaVuSans-20" x="603.214844"/>
     <use xlink:href="#DejaVuSans-33" x="635.001953"/>
     <use xlink:href="#DejaVuSans-2e" x="698.625"/>
     <use xlink:href="#DejaVuSans-33" x="730.412109"/>
     <use xlink:href="#DejaVuSans-b0" x="794.035156"/>
    </g>
   </g>
   <g id="text_5">
    <!-- Snow Creek -->
    <g transform="translate(17.807139 5.466746)scale(0.05 -0.05)">
     <defs>
      <path id="DejaVuSans-43" d="M 4122 4306 
L 4122 3641 
Q 3803 3938 3442 4084 
Q 3081 4231 2675 4231 
Q 1875 4231 1450 3742 
Q 1025 3253 1025 2328 
Q 1025 1406 1450 917 
Q 1875 428 2675 428 
Q 3081 428 3442 575 
Q 3803 722 4122 1019 
L 4122 359 
Q 3791 134 3420 21 
Q 3050 -91 2638 -91 
Q 1578 -91 968 557 
Q 359 1206 359 2328 
Q 359 3453 968 4101 
Q 1578 4750 2638 4750 
Q 3056 4750 3426 4639 
Q 3797 4528 4122 4306 
z
" transform="scale(0.015625)"/>
     </defs>
     <use xlink:href="#DejaVuSans-53"/>
     <use xlink:href="#DejaVuSans-6e" x="63.476562"/>
     <use xlink:href="#DejaVuSans-6f" x="126.855469"/>
     <use xlink:href="#DejaVuSans-77" x="188.037109"/>
     <use xlink:href="#DejaVuSans-20" x="269.824219"/>
     <use xlink:href="#DejaVuSans-43" x="301.611328"/>
     <use xlink:href="#DejaVuSans-72" x="371.435547"/>
     <use xlink:href="#DejaVuSans-65" x="410.298828"/>
     <use xlink:href="#DejaVuSans-65" x="471.822266"/>
     <use xlink:href="#DejaVuSans-6b" x="533.345703"/>
    </g>
   </g>
  </g>
  <g id="text_6">
   <!-- Sources: USGS and OpenStreetMaps -->
   <g transform="translate(12.758446 74.358313)scale(0.021739 -0.021739)">
    <defs>
     <path id="DejaVuSans-75" d="M 544 1381 
L 544 3500 
L 1119 3500 
L 1119 1403 
Q 1119 906 1312 657 
Q 1506 409 1894 409 
Q 2359 409 2629 706 
Q 2900 1003 2900 1516 
L 2900 3500 
L 3475 3500 
L 3475 0 
L 2900 0 
L 2900 538 
Q 2691 219 2414 64 
Q 2138 -91 1772 -91 
Q 1169 -91 856 284 
Q 544 659 544 1381 
z
M 1991 3584 
L 1991 3584 
z
" transform="scale(0.015625)"/>
     <path id="DejaVuSans-63" d="M 3122 3366 
L 3122 2828 
Q 2878 2963 2633 3030 
Q 2388 3097 2138 3097 
Q 1578 3097 1268 2742 
Q 959 2388 959 1747 
Q 959 1106 1268 751 
Q 1578 397 2138 397 
Q 2388 397 2633 464 
Q 2878 531 3122 666 
L 3122 134 
Q 2881 22 2623 -34 
Q 2366 -91 2075 -91 
Q 1284 -91 818 406 
Q 353 903 353 1747 
Q 353 2603 823 3093 
Q 1294 3584 2113 3584 
Q 2378 3584 2631 3529 
Q 2884 3475 3122 3366 
z
" transform="scale(0.015625)"/>
     <path id="DejaVuSans-3a" d="M 750 794 
L 1409 794 
L 1409 0 
L 750 0 
L 750 794 
z
M 750 3309 
L 1409 3309 
L 1409 2516 
L 750 2516 
L 750 3309 
z
" transform="scale(0.015625)"/>
     <path id="DejaVuSans-55" d="M 556 4666 
L 1191 4666 
L 1191 1831 
Q 1191 1081 1462 751 
Q 1734 422 2344 422 
Q 2950 422 3222 751 
Q 3494 1081 3494 1831 
L 3494 4666 
L 4128 4666 
L 4128 1753 
Q 4128 841 3676 375 
Q 3225 -91 2344 -91 
Q 1459 -91 1007 375 
Q 556 841 556 1753 
L 556 4666 
z
" transform="scale(0.015625)"/>
     <path id="DejaVuSans-47" d="M 3809 666 
L 3809 1919 
L 2778 1919 
L 2778 2438 
L 4434 2438 
L 4434 434 
Q 4069 175 3628 42 
Q 3188 -91 2688 -91 
Q 1594 -91 976 548 
Q 359 1188 359 2328 
Q 359 3472 976 4111 
Q 1594 4750 2688 4750 
Q 3144 4750 3555 4637 
Q 3966 4525 4313 4306 
L 4313 3634 
Q 3963 3931 3569 4081 
Q 3175 4231 2741 4231 
Q 1884 4231 1454 3753 
Q 1025 3275 1025 2328 
Q 1025 1384 1454 906 
Q 1884 428 2741 428 
Q 3075 428 3337 486 
Q 3600 544 3809 666 
z
" transform="scale(0.015625)"/>
     <path id="DejaVuSans-64" d="M 2906 2969 
L 2906 4863 
L 3481 4863 
L 3481 0 
L 2906 0 
L 2906 525 
Q 2725 213 2448 61 
Q 2172 -91 1784 -91 
Q 1150 -91 751 415 
Q 353 922 353 1747 
Q 353 2572 751 3078 
Q 1150 3584 1784 3584 
Q 2172 3584 2448 3432 
Q 2725 3281 2906 2969 
z
M 947 1747 
Q 947 1113 1208 752 
Q 1469 391 1925 391 
Q 2381 391 2643 752 
Q 2906 1113 2906 1747 
Q 2906 2381 2643 2742 
Q 2381 3103 1925 3103 
Q 1469 3103 1208 2742 
Q 947 2381 947 1747 
z
" transform="scale(0.015625)"/>
     <path id="DejaVuSans-70" d="M 1159 525 
L 1159 -1331 
L 581 -1331 
L 581 3500 
L 1159 3500 
L 1159 2969 
Q 1341 3281 1617 3432 
Q 1894 3584 2278 3584 
Q 2916 3584 3314 3078 
Q 3713 2572 3713 1747 
Q 3713 922 3314 415 
Q 2916 -91 2278 -91 
Q 1894 -91 1617 61 
Q 1341 213 1159 525 
z
M 3116 1747 
Q 3116 2381 2855 2742 
Q 2594 3103 2138 3103 
Q 1681 3103 1420 2742 
Q 1159 2381 1159 1747 
Q 1159 1113 1420 752 
Q 1681 391 2138 391 
Q 2594 391 2855 752 
Q 3116 1113 3116 1747 
z
" transform="scale(0.015625)"/>
    </defs>
    <use xlink:href="#DejaVuSans-53"/>
    <use xlink:href="#DejaVuSans-6f" x="63.476562"/>
    <use xlink:href="#DejaVuSans-75" x="124.658203"/>
    <use xlink:href="#DejaVuSans-72" x="188.037109"/>
    <use xlink:href="#DejaVuSans-63" x="226.900391"/>
    <use xlink:href="#DejaVuSans-65" x="281.880859"/>
    <use xlink:href="#DejaVuSans-73" x="343.404297"/>
    <use xlink:href="#DejaVuSans-3a" x="395.503906"/>
    <use xlink:href="#DejaVuSans-20" x="429.195312"/>
    <use xlink:href="#DejaVuSans-55" x="460.982422"/>
    <use xlink:href="#DejaVuSans-53" x="534.175781"/>
    <use xlink:href="#DejaVuSans-47" x="597.652344"/>
    <use xlink:href="#DejaVuSans-53" x="675.142578"/>
    <use xlink:href="#DejaVuSans-20" x="738.619141"/>
    <use xlink:href="#DejaVuSans-61" x="770.40625"/>
    <use xlink:href="#DejaVuSans-6e" x="831.685547"/>
    <use xlink:href="#DejaVuSans-64" x="895.064453"/>
    <use xlink:href="#DejaVuSans-20" x="958.541016"/>
    <use xlink:href="#DejaVuSans-4f" x="990.328125"/>
    <use xlink:href="#DejaVuSans-70" x="1069.039062"/>
    <use xlink:href="#DejaVuSans-65" x="1132.515625"/>
    <use xlink:href="#DejaVuSans-6e" x="1194.039062"/>
    <use xlink:href="#DejaVuSans-53" x="1257.417969"/>
    <use xlink:href="#DejaVuSans-74" x="1320.894531"/>
    <use xlink:href="#DejaVuSans-72" x="1360.103516"/>
    <use xlink:href="#DejaVuSans-65" x="1398.966797"/>
    <use xlink:href="#DejaVuSans-65" x="1460.490234"/>
    <use xlink:href="#DejaVuSans-74" x="1522.013672"/>
    <use xlink:href="#DejaVuSans-4d" x="1561.222656"/>
    <use xlink:href="#DejaVuSans-61" x="1647.501953"/>
    <use xlink:href="#DejaVuSans-70" x="1708.78125"/>
    <use xlink:href="#DejaVuSans-73" x="1772.257812"/>
   </g>
  </g>
 </g>
 <defs>
  <clipPath id="p45e2179e20">
   <rect x="0" y="7.966746" width="65.177559" height="58.876928"/>
  </clipPath>
 </defs>
</svg>
