<?xml version="1.0" encoding="utf-8" standalone="no"?>
<!DOCTYPE svg PUBLIC "-//W3C//DTD SVG 1.1//EN"
  "http://www.w3.org/Graphics/SVG/1.1/DTD/svg11.dtd">
<svg height="184.24596pt" version="1.1" viewBox="0 0 137.340518 184.24596" width="137.340518pt" xmlns="http://www.w3.org/2000/svg" xmlns:xlink="http://www.w3.org/1999/xlink">
 <metadata>
  <rdf:RDF xmlns:cc="http://creativecommons.org/ns#" xmlns:dc="http://purl.org/dc/elements/1.1/" xmlns:rdf="http://www.w3.org/1999/02/22-rdf-syntax-ns#">
   <cc:Work>
    <dc:type rdf:resource="http://purl.org/dc/dcmitype/StillImage"/>
    <dc:date>2022-05-22T19:56:06.627992</dc:date>
    <dc:format>image/svg+xml</dc:format>
    <dc:creator>
     <cc:Agent>
      <dc:title>Matplotlib v3.4.3, https://matplotlib.org/</dc:title>
     </cc:Agent>
    </dc:creator>
   </cc:Work>
  </rdf:RDF>
 </metadata>
 <defs>
  <style type="text/css">*{stroke-linecap:butt;stroke-linejoin:round;}</style>
 </defs>
 <g id="figure_1">
  <g id="patch_1">
   <path d="M 0 184.24596 
L 137.340518 184.24596 
L 137.340518 0 
L 0 0 
z
" style="fill:#ffffff;"/>
  </g>
  <g id="axes_1">
   <g id="line2d_1">
    <path clip-path="url(#p42dc3d550b)" d="M 81.665644 66.222214 
" style="fill:none;stroke:#008000;stroke-linecap:square;stroke-width:0.001;"/>
   </g>
   <g id="line2d_2">
    <path clip-path="url(#p42dc3d550b)" d="M 81.665644 66.222214 
" style="fill:none;stroke:#4169e1;stroke-linecap:square;stroke-width:0.001;"/>
   </g>
   <g id="line2d_3">
    <path clip-path="url(#p42dc3d550b)" d="M 81.665644 66.222214 
" style="fill:none;stroke:#000000;stroke-linecap:square;stroke-width:0.001;"/>
   </g>
   <g id="line2d_4">
    <path clip-path="url(#p42dc3d550b)" d="M 81.665644 66.222214 
" style="fill:none;stroke:#ff0000;stroke-linecap:square;stroke-width:0.001;"/>
   </g>
   <g id="line2d_5">
    <path clip-path="url(#p42dc3d550b)" d="M 81.665644 66.222214 
" style="fill:none;stroke:#ffd700;stroke-linecap:square;stroke-width:0.001;"/>
   </g>
   <g id="line2d_6">
    <path clip-path="url(#p42dc3d550b)" d="M 81.665644 66.222214 
" style="fill:none;stroke:#000000;stroke-dasharray:0.001,0.00165;stroke-dashoffset:0;stroke-width:0.001;"/>
   </g>
   <g id="line2d_7">
    <path clip-path="url(#p42dc3d550b)" d="M 94.198268 159.260255 
L 94.738157 155.855986 
L 95.278047 152.451717 
L 95.832728 149.094889 
L 96.387409 145.738061 
L 97.390061 139.671332 
L 98.392713 133.604602 
L 98.920981 130.406271 
L 99.449249 127.20794 
L 99.977516 124.009609 
L 100.505784 120.811279 
L 101.044617 117.550771 
L 101.58345 114.290263 
L 102.122283 111.029756 
L 102.661116 107.769248 
L 103.271265 104.076378 
L 103.881415 100.383508 
L 104.491564 96.690638 
L 105.101713 92.997768 
L 105.663262 89.598171 
L 106.22481 86.198574 
L 106.786359 82.798978 
L 107.347907 79.399381 
L 108.157742 74.497837 
L 108.967576 69.596293 
L 109.56716 65.967038 
L 110.166744 62.337782 
L 110.733311 58.909793 
L 111.299878 55.481803 
L 111.866445 52.053813 
L 112.433012 48.625824 
L 112.987693 45.264683 
L 113.665461 41.162453 
L 114.343228 37.060222 
L 114.847196 34.009606 
L 115.478476 30.189148 
L 116.109755 26.36869 
L 116.382342 24.719747 
" style="fill:none;stroke:#808080;stroke-linecap:square;stroke-width:0.635836;"/>
   </g>
   <g id="line2d_8">
    <path clip-path="url(#p42dc3d550b)" d="M 93.030796 153.44367 
L 92.439136 148.226211 
L 91.847476 143.008752 
L 91.255816 137.791292 
L 90.664157 132.573833 
L 89.829494 126.419409 
L 88.994831 120.264985 
L 88.503278 116.640402 
L 88.011724 113.015819 
L 87.520171 109.391235 
L 87.028618 105.766652 
L 86.584345 102.491049 
L 86.140072 99.215447 
L 85.695799 95.939844 
L 85.251526 92.664242 
L 84.795631 89.302742 
L 84.339736 85.941241 
L 83.883841 82.579741 
L 83.427946 79.218241 
L 82.98737 75.969235 
L 82.546795 72.720228 
L 82.10622 69.471221 
L 81.665644 66.222214 
" style="fill:none;stroke:#808080;stroke-linecap:square;stroke-width:0.635836;"/>
   </g>
   <g id="line2d_9">
    <path clip-path="url(#p42dc3d550b)" d="M 42.3097 163.197878 
L 41.282418 159.804751 
L 40.255135 156.411623 
L 39.227852 153.018496 
L 38.20057 149.625368 
L 37.173287 146.232241 
L 36.146005 142.839113 
L 35.118722 139.445986 
L 34.09144 136.052858 
L 33.064157 132.659731 
L 32.036874 129.266603 
L 31.009592 125.873476 
L 29.982309 122.480348 
L 28.955027 119.08722 
L 27.927744 115.694093 
L 26.900461 112.300965 
L 25.873179 108.907838 
L 24.845896 105.51471 
L 23.818614 102.121583 
L 22.791331 98.728455 
L 21.764048 95.335328 
L 20.736766 91.9422 
L 19.709483 88.549073 
L 18.682201 85.155945 
L 17.654918 81.762818 
L 16.627635 78.36969 
L 15.600353 74.976562 
L 14.57307 71.583435 
L 13.545788 68.190307 
L 12.518505 64.79718 
L 11.491223 61.404052 
L 10.46394 58.010925 
L 9.436657 54.617797 
" style="fill:none;stroke:#808080;stroke-linecap:square;stroke-width:0.635836;"/>
   </g>
   <g id="line2d_10">
    <path clip-path="url(#p42dc3d550b)" d="M 81.665644 66.222214 
L 80.702612 67.176071 
L 79.73958 68.129928 
L 79.926059 69.446422 
L 80.112537 70.762917 
L 80.299016 72.079412 
L 80.485494 73.395906 
L 80.671973 74.712401 
L 80.858451 76.028896 
L 81.04493 77.34539 
L 81.231408 78.661885 
L 81.434791 80.093029 
L 81.638175 81.524174 
L 81.841558 82.955318 
L 82.044941 84.386462 
L 82.275265 86.008809 
L 82.50559 87.631156 
L 82.686918 88.902905 
L 82.868246 90.174654 
L 83.049574 91.446403 
L 83.230902 92.718152 
L 83.41223 93.989901 
L 83.593557 95.26165 
L 83.774885 96.533399 
L 83.956213 97.805148 
L 84.078903 99.086421 
L 84.201594 100.367694 
L 84.324284 101.648967 
L 84.446974 102.93024 
L 84.569664 104.211514 
L 84.692354 105.492787 
L 84.815044 106.77406 
L 84.937735 108.055333 
L 85.060425 109.336606 
L 85.183115 110.617879 
L 85.305805 111.899152 
L 85.428495 113.180425 
L 85.551185 114.461699 
L 85.673876 115.742972 
L 85.796566 117.024245 
L 85.919256 118.305518 
" style="fill:none;stroke:#ff0000;stroke-linecap:square;stroke-width:0.635836;"/>
   </g>
   <g id="line2d_11">
    <path clip-path="url(#p42dc3d550b)" d="M 112.158313 65.443028 
L 112.019907 66.560772 
L 111.881501 67.678517 
L 111.743095 68.796261 
L 111.604688 69.914006 
L 111.466282 71.031751 
L 111.327876 72.149495 
L 111.18947 73.26724 
L 111.051064 74.384984 
L 110.912658 75.502729 
L 110.774252 76.620474 
L 110.635845 77.738218 
L 110.497439 78.855963 
L 110.359033 79.973707 
L 110.220627 81.091452 
L 110.082221 82.209197 
L 109.943815 83.326941 
L 109.805409 84.444686 
L 109.667003 85.56243 
L 109.528596 86.680175 
L 109.39019 87.797919 
L 109.251784 88.915664 
L 109.113378 90.033409 
L 108.974972 91.151153 
L 108.836566 92.268898 
L 108.69816 93.386642 
L 108.559753 94.504387 
L 108.421347 95.622132 
L 108.282941 96.739876 
L 108.144535 97.857621 
L 108.006129 98.975365 
L 107.867723 100.09311 
L 107.729317 101.210855 
L 107.608079 102.218622 
L 107.486842 103.226389 
L 107.365604 104.234156 
L 107.244367 105.241923 
L 107.123129 106.223544 
L 107.001892 107.205164 
L 106.880655 108.186785 
L 106.759417 109.168405 
L 106.63818 110.150026 
L 106.516942 111.131646 
L 106.395705 112.113267 
L 106.274467 113.094887 
L 106.15323 114.076508 
L 106.031992 115.058129 
L 105.910755 116.039749 
L 105.789518 117.02137 
L 105.66828 118.00299 
L 105.547043 118.984611 
L 105.425805 119.966231 
L 105.304568 120.947852 
" style="fill:none;stroke:#ff0000;stroke-linecap:square;stroke-width:0.635836;"/>
   </g>
   <g id="line2d_12">
    <path clip-path="url(#p42dc3d550b)" d="M 116.382342 24.719747 
L 116.659154 25.783581 
L 116.935966 26.847415 
L 117.267718 28.121859 
L 117.59947 29.396304 
L 117.382088 30.829066 
L 117.164706 32.261827 
L 116.947324 33.694589 
L 116.729942 35.127351 
L 116.51256 36.560112 
L 116.295177 37.992874 
L 116.077795 39.425636 
L 115.860413 40.858397 
L 115.629032 42.394937 
L 115.397651 43.931476 
L 115.166269 45.468015 
L 114.934888 47.004555 
L 114.703507 48.541094 
L 114.472126 50.077634 
L 114.240744 51.614173 
L 114.009363 53.150712 
L 113.777982 54.687252 
L 113.546601 56.223791 
L 113.315219 57.760331 
L 113.083838 59.29687 
L 112.852457 60.83341 
L 112.621076 62.369949 
L 112.389694 63.906488 
L 112.158313 65.443028 
" style="fill:none;stroke:#ff0000;stroke-linecap:square;stroke-width:0.635836;"/>
   </g>
   <g id="line2d_13">
    <path clip-path="url(#p42dc3d550b)" d="M 81.665644 66.222214 
L 82.701842 66.431746 
L 83.738039 66.641279 
L 84.774236 66.850811 
L 85.810433 67.060343 
L 87.370407 67.723083 
L 88.930382 68.385823 
L 90.337687 69.581917 
L 91.744992 70.778012 
L 91.784976 72.329242 
L 91.824959 73.880472 
L 91.864942 75.431702 
L 91.904925 76.982932 
L 91.944909 78.534162 
L 91.984892 80.085392 
L 92.024875 81.636622 
L 92.064858 83.187852 
L 92.104842 84.739082 
L 92.144825 86.290312 
L 92.184808 87.841542 
L 92.224791 89.392772 
L 92.264775 90.944002 
L 92.304758 92.495232 
L 92.344741 94.046462 
L 92.384724 95.597692 
L 92.424708 97.148922 
L 92.464691 98.700152 
L 92.504674 100.251382 
L 92.544658 101.802612 
L 92.584641 103.353842 
L 92.624624 104.905072 
L 92.664607 106.456302 
L 92.704591 108.007532 
L 92.744574 109.558762 
L 92.784557 111.109992 
L 92.82454 112.661222 
L 92.864524 114.212452 
L 92.904507 115.763682 
L 92.94449 117.314912 
L 92.984473 118.866142 
L 93.024457 120.417372 
" style="fill:none;stroke:#ff0000;stroke-linecap:square;stroke-width:0.635836;"/>
   </g>
   <g id="line2d_14">
    <path clip-path="url(#p42dc3d550b)" d="M 94.204607 21.778389 
L 94.170269 23.686821 
L 94.135932 25.595253 
L 94.101595 27.503686 
L 94.067257 29.412118 
L 93.687169 30.556278 
L 93.30708 31.700439 
L 92.926991 32.8446 
L 92.546903 33.988761 
L 92.166814 35.132921 
L 91.786725 36.277082 
L 91.406637 37.421243 
L 91.026548 38.565404 
" style="fill:none;stroke:#ff0000;stroke-dasharray:2.352592,1.017337;stroke-dashoffset:0;stroke-width:0.635836;"/>
   </g>
   <g id="line2d_15">
    <path clip-path="url(#p42dc3d550b)" d="M 93.024457 120.417372 
L 93.069128 121.52712 
L 93.1138 122.636868 
L 93.158472 123.746616 
L 93.203143 124.856364 
L 93.247815 125.966112 
L 93.292487 127.07586 
L 93.337158 128.185607 
L 93.38183 129.295355 
L 93.426501 130.405103 
L 93.471173 131.514851 
L 93.515845 132.624599 
L 93.560516 133.734347 
L 93.605188 134.844095 
L 93.64986 135.953843 
L 93.694531 137.06359 
L 93.739203 138.173338 
L 93.783875 139.283086 
L 93.828546 140.392834 
L 93.873218 141.502582 
L 93.917889 142.61233 
L 93.962561 143.722078 
L 94.007233 144.831825 
L 94.051904 145.941573 
L 94.096576 147.051321 
L 94.141248 148.161069 
L 94.185919 149.270817 
L 94.230591 150.380565 
L 94.275263 151.490313 
L 94.319934 152.60006 
L 94.364606 153.709808 
L 94.409277 154.819556 
L 94.453949 155.929304 
" style="fill:none;stroke:#000000;stroke-linecap:square;stroke-width:0.635836;"/>
   </g>
   <g id="line2d_16">
    <path clip-path="url(#p42dc3d550b)" d="M 81.665644 66.222214 
L 80.360031 66.15249 
L 79.054417 66.082766 
L 77.748804 66.013042 
L 76.44319 65.943317 
L 75.370806 66.588806 
L 74.298423 67.234294 
L 74.428113 69.001121 
L 74.557802 70.767949 
L 74.687492 72.534776 
L 74.817182 74.301603 
L 74.910949 75.560593 
L 75.004717 76.819583 
L 75.098484 78.078573 
L 75.192252 79.337563 
L 75.286019 80.596553 
L 75.379787 81.855544 
L 75.473555 83.114534 
L 75.567322 84.373524 
L 75.545531 85.434123 
L 75.52374 86.494723 
L 75.501949 87.555322 
L 75.480158 88.615922 
L 75.458367 89.676521 
L 75.436576 90.737121 
L 75.414785 91.79772 
L 75.392994 92.858319 
L 75.371203 93.918919 
L 75.349412 94.979518 
L 75.327621 96.040118 
L 75.30583 97.100717 
L 75.284038 98.161317 
L 75.262247 99.221916 
L 75.240456 100.282516 
L 75.218665 101.343115 
L 74.790372 102.384666 
L 74.362079 103.426217 
L 73.933786 104.467768 
L 73.505493 105.509319 
L 73.0772 106.55087 
L 72.648907 107.592421 
L 72.220614 108.633972 
L 71.792321 109.675523 
" style="fill:none;stroke:#ff0000;stroke-linecap:square;stroke-width:0.635836;"/>
   </g>
   <g id="line2d_17">
    <path clip-path="url(#p42dc3d550b)" d="M 35.268948 66.935271 
L 35.129089 68.426435 
L 34.98923 69.9176 
L 34.849372 71.408765 
L 34.709513 72.89993 
L 34.569654 74.391094 
L 34.429795 75.882259 
L 34.289936 77.373424 
L 34.150077 78.864588 
L 34.127758 80.341557 
L 34.105439 81.818525 
L 34.083119 83.295493 
L 34.0608 84.772462 
L 34.038481 86.24943 
L 34.016161 87.726398 
L 33.993842 89.203366 
L 33.971523 90.680335 
L 33.962806 92.27357 
L 33.95409 93.866805 
L 33.945374 95.460041 
L 33.936657 97.053276 
L 34.126833 98.647589 
L 34.347649 100.481984 
L 34.568465 102.316379 
L 35.259439 103.476534 
L 35.950414 104.636688 
L 36.641388 105.796842 
L 37.332362 106.956996 
L 37.90474 108.477632 
L 38.477118 109.998268 
L 39.049496 111.518904 
L 39.621874 113.039539 
L 39.858802 114.550471 
L 40.09573 116.061403 
L 40.332658 117.572335 
L 40.569586 119.083267 
L 40.648562 120.209098 
L 40.727538 121.334929 
L 40.806514 122.460761 
L 40.885491 123.586592 
L 40.964467 124.712423 
L 41.043443 125.838254 
L 41.122419 126.964085 
L 41.201395 128.089916 
L 41.133248 129.367236 
L 41.065102 130.644556 
L 41.008841 131.76841 
L 40.952581 132.892265 
L 40.89632 134.016119 
L 40.840059 135.139974 
L 40.783799 136.263828 
L 40.727538 137.387682 
L 40.671278 138.511537 
L 40.615017 139.635391 
L 40.54489 141.043714 
L 40.474762 142.452036 
L 40.404635 143.860358 
L 40.334507 145.26868 
L 40.26438 146.677002 
L 40.194252 148.085325 
L 40.124125 149.493647 
L 40.053997 150.901969 
" style="fill:none;stroke:#000000;stroke-linecap:square;stroke-width:0.635836;"/>
   </g>
   <g id="line2d_18">
    <path clip-path="url(#p42dc3d550b)" d="M 28.693072 90.214548 
L 29.99578 90.19514 
L 31.298488 90.175732 
L 32.635005 90.428034 
L 33.971523 90.680335 
L 35.839477 91.03255 
L 37.45809 91.36392 
L 39.076702 91.69529 
L 40.08358 91.685586 
L 41.090458 91.675882 
L 42.097337 91.666178 
L 43.104215 91.656474 
L 44.799954 91.428613 
L 46.495694 91.200751 
L 47.750329 91.928902 
L 49.004965 92.657053 
L 50.259601 93.385205 
L 51.514237 94.113356 
L 52.496419 94.616521 
L 53.4786 95.119686 
L 54.460782 95.62285 
L 55.442964 96.126015 
L 56.425145 96.62918 
L 57.407327 97.132345 
L 58.389509 97.635509 
L 59.371691 98.138674 
L 60.165677 98.754332 
L 60.959663 99.36999 
L 61.75365 99.985648 
L 62.547636 100.601306 
L 63.371205 101.400799 
L 64.194775 102.200292 
L 65.018344 102.999785 
L 65.841914 103.799278 
L 66.665483 104.598771 
L 67.489052 105.398264 
L 68.312622 106.197756 
L 69.136191 106.997249 
L 70.464256 108.336386 
L 71.792321 109.675523 
L 73.124612 111.018614 
L 74.456903 112.361705 
L 75.789194 113.704795 
L 77.121486 115.047886 
L 78.545167 115.792569 
L 79.968849 116.537253 
L 81.45645 116.979319 
L 82.944052 117.421386 
L 84.431654 117.863452 
L 85.919256 118.305518 
L 87.695556 118.833482 
L 89.471856 119.361445 
L 91.248157 119.889409 
L 93.024457 120.417372 
" style="fill:none;stroke:#4169e1;stroke-linecap:square;stroke-width:0.635836;"/>
   </g>
   <g id="line2d_19">
    <path clip-path="url(#p42dc3d550b)" d="M 105.304568 120.947852 
L 105.341811 122.620875 
L 105.379054 124.293898 
L 105.416296 125.96692 
L 105.453539 127.639943 
L 105.490782 129.312966 
L 105.528025 130.985989 
L 105.565268 132.659012 
L 105.602511 134.332035 
L 105.483783 135.676203 
L 105.365054 137.020372 
L 105.246326 138.364541 
L 105.127598 139.70871 
L 105.00887 141.052878 
L 104.890142 142.397047 
L 104.771414 143.741216 
L 104.652685 145.085385 
L 104.34563 146.084706 
L 104.038574 147.084027 
L 103.731519 148.083348 
L 103.424463 149.082669 
L 103.117407 150.08199 
L 102.810352 151.081312 
L 102.503296 152.080633 
L 102.196241 153.079954 
L 101.421404 153.920778 
L 100.646567 154.761602 
L 99.871731 155.602427 
L 99.096894 156.443251 
L 98.322057 157.284075 
L 97.547221 158.124899 
L 96.772384 158.965724 
L 95.997547 159.806548 
" style="fill:none;stroke:#4169e1;stroke-linecap:square;stroke-width:0.635836;"/>
   </g>
   <g id="line2d_20">
    <path clip-path="url(#p42dc3d550b)" d="M 116.382342 24.719747 
L 114.620833 24.463492 
L 112.859324 24.207238 
L 111.097816 23.950983 
L 109.336307 23.694728 
L 107.85795 23.533716 
L 106.379593 23.372703 
L 104.901235 23.21169 
L 103.422878 23.050677 
L 102.223711 22.919855 
L 100.737165 22.757404 
L 98.896681 22.481382 
L 97.056196 22.205361 
L 95.630401 21.991875 
L 94.204607 21.778389 
L 92.475851 21.595812 
L 90.747095 21.413235 
L 89.018339 21.230659 
L 87.289582 21.048082 
" style="fill:none;stroke:#008000;stroke-linecap:square;stroke-width:0.635836;"/>
   </g>
   <g id="line2d_21">
    <path clip-path="url(#p42dc3d550b)" d="M 37.273196 46.801492 
L 36.083009 47.336644 
L 34.892822 47.871795 
L 33.702634 48.406947 
L 32.512447 48.942099 
L 31.646881 49.60376 
L 30.781314 50.265422 
L 29.915747 50.927084 
L 29.050181 51.588745 
L 28.798989 52.608732 
L 28.547798 53.628719 
L 28.296607 54.648706 
L 28.045416 55.668693 
L 28.171143 56.661365 
L 28.296871 57.654037 
L 28.422599 58.646709 
L 28.548326 59.639382 
L 29.246168 60.894059 
L 29.94401 62.148736 
L 30.641851 63.403413 
L 31.339693 64.658091 
L 32.322007 65.227386 
L 33.304321 65.796681 
L 34.286634 66.365976 
L 35.268948 66.935271 
" style="fill:none;stroke:#ff0000;stroke-linecap:square;stroke-width:0.635836;"/>
   </g>
   <g id="line2d_22">
    <path clip-path="url(#p42dc3d550b)" d="M 40.40371 35.359525 
L 39.801221 36.312304 
L 39.198732 37.265082 
L 38.596242 38.21786 
L 37.993753 39.170639 
L 37.835801 40.633051 
L 37.677849 42.095464 
L 37.519897 43.557876 
L 37.361945 45.020289 
L 37.273196 46.801492 
L 37.176787 48.734723 
L 37.080378 50.667954 
L 36.983969 52.601185 
L 36.88756 54.534416 
L 36.601239 56.269615 
L 36.314918 58.004815 
L 36.028597 59.740014 
L 35.742276 61.475214 
L 35.623944 62.840228 
L 35.505612 64.205242 
L 35.38728 65.570257 
L 35.268948 66.935271 
" style="fill:none;stroke:#ff0000;stroke-linecap:square;stroke-width:0.635836;"/>
   </g>
   <g id="line2d_23">
    <path clip-path="url(#p42dc3d550b)" d="M 122.446855 63.888967 
L 122.59477 65.266201 
L 122.742685 66.643435 
L 122.8906 68.020669 
L 123.038515 69.397903 
L 123.080512 70.638563 
L 123.122509 71.879224 
L 123.164507 73.119884 
L 123.206504 74.360545 
L 122.955048 76.028896 
L 122.703593 77.697246 
L 122.452138 79.365597 
L 122.200682 81.033947 
L 122.102953 82.054114 
L 122.005223 83.074281 
L 121.907494 84.094447 
L 121.809764 85.114614 
L 121.712035 86.13478 
L 121.614305 87.154947 
L 121.516575 88.175113 
L 121.418846 89.19528 
L 121.160655 90.139612 
L 120.902464 91.083945 
L 120.644273 92.028277 
L 120.386083 92.97261 
L 120.127892 93.916942 
L 119.869701 94.861275 
L 119.61151 95.805607 
L 119.353319 96.749939 
L 118.348026 98.293936 
L 117.342732 99.837934 
L 116.005687 100.53302 
L 114.668641 101.228106 
L 113.902653 101.626325 
L 113.026257 102.082767 
L 112.149861 102.53921 
L 110.923487 103.214888 
L 109.697114 103.890566 
L 108.47074 104.566245 
L 107.244367 105.241923 
" style="fill:none;stroke:#ff0000;stroke-dasharray:2.352592,1.017337;stroke-dashoffset:0;stroke-width:0.635836;"/>
   </g>
   <g id="line2d_24">
    <path clip-path="url(#p42dc3d550b)" d="M 116.935966 26.847415 
L 117.939675 27.118405 
L 118.943383 27.389395 
L 119.947092 27.660385 
L 120.950801 27.931376 
L 121.977225 28.272449 
L 123.003649 28.613523 
L 124.030073 28.954597 
L 125.056497 29.295671 
L 126.112769 29.939362 
L 127.16904 30.583054 
L 128.225311 31.226745 
L 129.281582 31.870437 
L 129.854225 32.92277 
L 130.426867 33.975103 
L 130.6667 35.118725 
L 130.906534 36.262347 
L 131.097767 37.134978 
L 130.930042 38.197374 
L 130.762317 39.259771 
L 130.594592 40.322167 
L 130.426867 41.384564 
L 130.318308 42.505543 
L 130.209749 43.626522 
L 130.10119 44.747501 
L 129.992631 45.868481 
L 129.232454 46.921533 
L 128.472276 47.974585 
L 127.712099 49.027637 
L 126.951922 50.080689 
L 126.142616 51.133381 
L 125.33331 52.186074 
L 124.524004 53.238766 
L 123.714697 54.291459 
L 123.556217 55.491147 
L 123.397737 56.690836 
L 123.239256 57.890525 
L 123.080776 59.090213 
L 122.922296 60.289902 
L 122.763816 61.48959 
L 122.605335 62.689279 
L 122.446855 63.888967 
" style="fill:none;stroke:#ff0000;stroke-linecap:square;stroke-width:0.635836;"/>
   </g>
   <g id="line2d_25">
    <path clip-path="url(#p42dc3d550b)" d="M 78.204434 22.209673 
L 78.426043 23.268476 
L 78.647651 24.327278 
L 78.869259 25.386081 
L 79.090868 26.444883 
L 79.594307 27.390473 
L 80.097746 28.336064 
L 80.601185 29.281654 
L 81.104624 30.227245 
L 81.894384 31.221714 
L 82.684145 32.216183 
L 83.473905 33.210652 
L 84.263665 34.205121 
L 85.109025 34.750157 
L 85.954386 35.295192 
L 86.799746 35.840227 
L 87.645107 36.385262 
L 88.490467 36.930298 
L 89.335827 37.475333 
L 90.181188 38.020368 
L 91.026548 38.565404 
" style="fill:none;stroke:#ff0000;stroke-linecap:square;stroke-width:0.635836;"/>
   </g>
   <g id="line2d_26">
    <path clip-path="url(#p42dc3d550b)" d="M 91.026548 38.565404 
L 91.349056 39.586828 
L 91.671563 40.608252 
L 91.994071 41.629677 
L 92.316578 42.651101 
L 91.917736 43.854384 
L 91.518894 45.057667 
L 91.120052 46.260949 
L 90.721209 47.464232 
L 91.153861 49.022605 
L 91.586512 50.580978 
L 92.157569 52.32696 
L 92.728627 54.072942 
L 93.299684 55.818923 
L 93.870742 57.564905 
L 93.690866 59.255539 
L 93.510991 60.946172 
L 93.331116 62.636806 
L 93.151241 64.32744 
L 92.799679 65.940083 
L 92.448117 67.552726 
L 92.096554 69.165369 
L 91.744992 70.778012 
" style="fill:none;stroke:#ff0000;stroke-linecap:square;stroke-width:0.635836;"/>
   </g>
   <g id="line2d_27">
    <path clip-path="url(#p42dc3d550b)" d="M 50.962725 29.212289 
L 51.217879 30.509736 
L 51.473032 31.807182 
L 51.728185 33.104628 
L 51.983339 34.402074 
L 52.0882 36.112116 
L 52.193061 37.822157 
L 52.297922 39.532199 
L 52.402783 41.24224 
L 52.486249 42.823795 
L 52.569716 44.405349 
L 52.653182 45.986904 
L 52.736648 47.568459 
L 52.820115 49.150013 
L 52.903581 50.731568 
L 52.987047 52.313123 
L 53.070513 53.894678 
L 53.091512 55.03201 
L 53.112511 56.169342 
L 53.133509 57.306674 
L 53.154508 58.444006 
L 53.175507 59.581338 
L 53.196505 60.71867 
L 53.217504 61.856002 
L 53.238503 62.993334 
L 53.519937 64.002719 
L 53.801372 65.012103 
L 54.082806 66.021487 
L 54.364241 67.030872 
L 54.645676 68.040256 
L 54.92711 69.049641 
L 55.208545 70.059025 
L 55.48998 71.06841 
" style="fill:none;stroke:#ff0000;stroke-linecap:square;stroke-width:0.635836;"/>
   </g>
   <g id="line2d_28">
    <path clip-path="url(#p42dc3d550b)" d="M 55.48998 71.06841 
L 55.740114 72.149136 
L 55.990249 73.229862 
L 56.240384 74.310588 
L 56.490519 75.391314 
L 56.740653 76.47204 
L 56.990788 77.552766 
L 57.240923 78.633492 
L 57.491058 79.714218 
L 57.741192 80.794944 
L 57.991327 81.87567 
L 58.241462 82.956396 
L 58.491597 84.037122 
L 58.741731 85.117848 
L 58.991866 86.198574 
L 59.242001 87.2793 
L 59.492136 88.360026 
L 59.874073 89.890186 
L 60.256011 91.420346 
L 60.637948 92.950506 
L 61.019886 94.480666 
L 61.401823 96.010826 
L 61.783761 97.540986 
L 62.165699 99.071146 
L 62.547636 100.601306 
" style="fill:none;stroke:#000000;stroke-linecap:square;stroke-width:0.635836;"/>
   </g>
   <g id="line2d_29">
    <path clip-path="url(#p42dc3d550b)" d="M 87.289582 21.048082 
L 85.550525 21.706509 
L 81.927665 22.159357 
L 78.204434 22.209673 
L 74.429433 21.756825 
L 71.164211 21.756825 
L 69.787017 21.807142 
L 67.644363 22.10904 
L 65.297798 22.915542 
L 63.512253 23.821238 
L 61.165688 24.376157 
L 54.406502 27.39874 
L 50.962725 29.212289 
L 46.779902 30.875608 
L 40.91296 34.653657 
L 40.40371 35.359525 
L 40.91296 35.611108 
L 46.320309 34.100176 
L 48.004426 33.998105 
L 51.983339 34.402074 
L 58.258102 34.251125 
L 61.777422 34.75429 
L 67.61161 36.711601 
L 81.519843 42.261508 
L 93.355152 48.962225 
L 94.375765 49.415073 
L 94.375765 49.867922 
L 93.712261 50.171258 
L 88.844803 51.006512 
L 73.459534 53.395826 
L 72.797086 53.949307 
L 72.797086 54.504226 
L 73.715215 55.258973 
L 92.998043 63.824275 
L 93.151241 64.32744 
L 85.430344 64.589085 
L 74.225522 65.687422 
L 68.15467 66.644873 
L 59.67069 69.475893 
L 52.505267 72.107086 
L 51.483597 72.398202 
L 46.443923 74.326042 
L 41.993796 76.792987 
L 37.952548 78.272292 
L 31.913392 79.213929 
L 30.188069 79.169363 
L 28.100355 78.407427 
L 25.284689 77.734624 
L 22.373405 78.106607 
L 17.028921 78.993974 
L 14.092809 79.866605 
L 10.590394 80.670231 
L 9.068983 81.229463 
L 8.291373 82.521877 
L 8.008221 83.920676 
L 8.123384 85.525052 
L 9.139771 88.181762 
L 9.811727 89.229783 
L 10.908411 90.103852 
L 12.324169 90.837035 
L 14.927472 91.320073 
L 19.009925 91.466709 
L 21.250836 91.958373 
L 21.310002 92.933075 
L 22.572562 96.84626 
L 24.443686 99.052996 
L 26.05279 100.591243 
L 27.870031 100.857202 
L 28.905435 100.346849 
L 30.722676 98.693593 
L 34.126833 98.647589 
L 38.254717 99.609353 
L 48.076271 100.132644 
L 50.427062 100.23184 
L 57.616785 102.094987 
L 59.066352 103.506723 
L 58.498992 105.073722 
L 56.005569 105.969356 
L 53.058892 107.451535 
L 50.338313 109.551889 
L 48.524242 112.126655 
L 45.690614 113.693654 
L 41.609217 113.357252 
L 38.322336 113.469386 
L 35.941961 114.477153 
L 33.164858 117.611151 
L 32.540974 118.39465 
L 30.727959 120.073783 
L 25.740055 123.767012 
L 23.699885 125.111181 
L 22.226019 126.341778 
L 19.562493 127.488994 
L 15.170475 130.145704 
L 13.951233 131.574692 
L 13.838184 133.534159 
L 15.4251 135.101158 
L 17.918524 135.66039 
L 20.242902 136.892425 
L 22.396121 140.697788 
L 25.797108 141.481287 
L 28.970941 141.817689 
L 31.12416 142.489054 
L 32.881178 143.775719 
L 35.304606 148.211475 
L 37.841084 152.61848 
L 38.549491 153.961211 
L 40.079354 158.998609 
L 40.022301 162.188674 
L 40.022301 162.188674 
" style="fill:none;stroke:#4169e1;stroke-linecap:square;stroke-width:0.635836;"/>
   </g>
   <g id="line2d_30">
    <path clip-path="url(#p42dc3d550b)" d="M 7.943773 55.31504 
L 7.591947 56.48993 
L 7.24012 57.664819 
L 6.888294 58.839709 
L 6.536468 60.014599 
L 6.661403 60.994692 
L 6.786338 61.974785 
L 6.911274 62.954878 
L 7.036209 63.934971 
L 6.979684 64.942379 
L 6.92316 65.949787 
L 6.866635 66.957194 
L 6.81011 67.964602 
L 6.66827 69.168244 
L 6.526431 70.371886 
L 6.384591 71.575528 
L 6.242751 72.77917 
L 6.384591 73.926386 
L 6.526431 75.073601 
L 6.66827 76.220817 
L 6.81011 77.368033 
L 7.180426 78.656494 
L 7.550742 79.944955 
L 7.921057 81.233416 
L 8.291373 82.521877 
" style="fill:none;stroke:#000000;stroke-linecap:square;stroke-width:0.635836;"/>
   </g>
   <g id="line2d_31">
    <path clip-path="url(#p42dc3d550b)" d="M 9.620495 56.848974 
L 9.768145 57.920714 
L 9.915796 58.992455 
L 10.063447 60.064196 
L 10.211098 61.135937 
L 10.777665 62.675262 
L 11.344232 64.214587 
L 11.910799 65.753912 
L 12.477366 67.293236 
L 13.355875 68.580619 
L 14.234385 69.868002 
L 15.112894 71.155385 
L 15.991403 72.442768 
L 16.331607 73.534277 
L 16.671812 74.625785 
L 17.012016 75.717293 
L 17.352221 76.808801 
L 18.083871 77.746125 
L 18.815522 78.683449 
" style="fill:none;stroke:#000000;stroke-linecap:square;stroke-width:0.635836;"/>
   </g>
   <g id="line2d_32">
    <path clip-path="url(#p42dc3d550b)" d="M 18.815522 78.683449 
L 18.816051 80.219539 
L 18.816579 81.755629 
L 19.120861 83.030972 
L 19.425143 84.306315 
L 19.729425 85.581658 
L 20.033708 86.857001 
L 20.33799 88.132344 
L 20.642272 89.407687 
L 20.946554 90.68303 
L 21.250836 91.958373 
" style="fill:none;stroke:#4169e1;stroke-linecap:square;stroke-width:0.635836;"/>
   </g>
   <g id="line2d_33">
    <path clip-path="url(#p42dc3d550b)" d="M 27.870031 100.857202 
L 28.448484 102.266063 
L 29.026937 103.674924 
L 29.2533 104.73768 
L 29.479662 105.800436 
L 29.706025 106.863192 
L 29.932388 107.925948 
L 29.932916 109.297791 
L 29.933444 110.669633 
L 29.933973 112.041476 
L 29.934501 113.413319 
L 30.047814 114.504827 
L 30.161128 115.596335 
L 30.274441 116.687843 
L 30.387755 117.779351 
L 30.841272 118.926567 
L 31.29479 120.073783 
L 31.748308 121.220998 
L 32.201826 122.368214 
L 32.65508 123.823439 
L 33.108333 125.278663 
L 33.561587 126.733887 
L 34.014841 128.189112 
L 34.41157 129.196519 
L 34.808299 130.203927 
L 35.205028 131.211335 
L 35.601757 132.218743 
L 36.228414 133.145824 
L 36.855072 134.072905 
L 37.48173 134.999986 
L 38.108387 135.927067 
L 38.735045 136.854148 
L 39.361702 137.781229 
L 39.98836 138.70831 
L 40.615017 139.635391 
" style="fill:none;stroke:#4169e1;stroke-linecap:square;stroke-width:0.635836;"/>
   </g>
   <g id="line2d_34">
    <path clip-path="url(#p42dc3d550b)" d="M 24.443686 99.052996 
L 24.075484 100.30372 
L 23.707281 101.554444 
L 23.495974 102.542804 
L 23.284667 103.531163 
L 23.07336 104.519522 
L 22.862053 105.507882 
L 22.222849 106.37045 
L 21.583645 107.233018 
L 20.52711 107.68946 
L 19.470574 108.145903 
L 18.414039 108.602345 
L 17.357503 109.058787 
L 15.617918 109.298869 
L 13.878332 109.53895 
L 11.937477 109.806346 
L 11.250729 110.632974 
L 10.563981 111.459602 
L 10.864565 113.184738 
L 11.165149 114.909875 
L 12.154595 116.287109 
L 13.14404 117.664342 
L 14.44622 118.851811 
L 15.7484 120.03928 
L 17.001979 121.29863 
L 18.255558 122.557979 
L 18.192166 123.492428 
L 17.545567 125.001203 
L 16.898967 126.509979 
L 16.983754 127.517387 
L 17.068541 128.524794 
L 17.153328 129.532202 
L 17.238115 130.53961 
L 17.691897 132.27481 
L 18.145679 134.010009 
L 18.939137 135.22012 
L 19.732595 136.430232 
L 20.526053 137.640343 
L 21.319511 138.850454 
" style="fill:none;stroke:#4169e1;stroke-linecap:square;stroke-width:0.635836;"/>
   </g>
   <g id="line2d_35">
    <path clip-path="url(#p42dc3d550b)" d="M 37.332362 106.956996 
L 38.961011 106.967059 
L 40.589661 106.977123 
L 41.794111 107.592781 
L 42.998561 108.208439 
L 44.203012 108.824097 
L 45.407462 109.439755 
L 46.292971 109.873555 
L 47.17848 110.307355 
L 48.063988 110.741155 
L 48.949497 111.174955 
L 49.835006 111.608754 
L 50.720515 112.042554 
L 51.606023 112.476354 
L 52.491532 112.910154 
L 53.327516 113.833461 
L 54.163499 114.756769 
L 54.999483 115.680076 
L 55.835467 116.603384 
L 57.025654 118.142349 
L 58.215841 119.681314 
L 58.825198 120.898614 
L 59.434555 122.115913 
L 60.043911 123.333212 
L 60.653268 124.550512 
" style="fill:none;stroke:#008000;stroke-linecap:square;stroke-width:0.635836;"/>
   </g>
   <g id="line2d_36">
    <path clip-path="url(#p42dc3d550b)" d="M 60.653268 124.550512 
L 59.633183 124.606579 
L 58.613098 124.662645 
L 57.593013 124.718712 
L 56.572928 124.774779 
L 54.758857 124.774779 
L 52.944786 124.774779 
L 51.712073 124.914587 
L 50.47936 125.054395 
L 49.246648 125.194203 
L 48.013935 125.334011 
L 47.064638 125.712103 
L 46.115341 126.090196 
L 45.166044 126.468288 
L 44.216747 126.846381 
L 43.428835 127.795924 
L 42.640924 128.745468 
L 41.853013 129.695012 
L 41.065102 130.644556 
" style="fill:none;stroke:#008000;stroke-linecap:square;stroke-width:0.635836;"/>
   </g>
   <g id="line2d_37">
    <path clip-path="url(#p42dc3d550b)" d="M 60.653268 124.550512 
L 62.410287 124.383748 
L 64.110252 124.047347 
L 65.215388 124.187514 
L 66.320524 124.327681 
L 67.397662 125.250629 
L 68.4748 126.173577 
L 69.43836 127.46096 
L 70.40192 128.748343 
L 71.322955 129.951626 
L 72.24399 131.154909 
L 73.165025 132.358191 
L 74.086059 133.561474 
L 74.865254 134.163115 
L 75.644449 134.764756 
L 76.423644 135.366398 
L 77.202839 135.968039 
L 79.044908 136.61209 
L 80.886978 137.256141 
L 82.530419 137.619857 
L 84.17386 137.983573 
L 85.278996 139.088739 
L 86.384132 140.193904 
L 87.489268 141.29907 
L 88.594404 142.404235 
L 89.303339 143.271835 
L 90.012274 144.139435 
" style="fill:none;stroke:#4169e1;stroke-linecap:square;stroke-width:0.635836;"/>
   </g>
   <g id="text_1">
    <g id="patch_2">
     <path d="M 95.512419 154.132776 
L 99.189904 137.776726 
L 97.262399 137.343346 
L 93.584914 153.699397 
z
" style="fill:#ffffff;"/>
    </g>
    <!-- Summit Gondola -->
    <g style="fill:#808080;" transform="translate(95.091487 154.017634)rotate(-77.328375)scale(0.02 -0.02)">
     <defs>
      <path d="M 3425 4513 
L 3425 3897 
Q 3066 4069 2747 4153 
Q 2428 4238 2131 4238 
Q 1616 4238 1336 4038 
Q 1056 3838 1056 3469 
Q 1056 3159 1242 3001 
Q 1428 2844 1947 2747 
L 2328 2669 
Q 3034 2534 3370 2195 
Q 3706 1856 3706 1288 
Q 3706 609 3251 259 
Q 2797 -91 1919 -91 
Q 1588 -91 1214 -16 
Q 841 59 441 206 
L 441 856 
Q 825 641 1194 531 
Q 1563 422 1919 422 
Q 2459 422 2753 634 
Q 3047 847 3047 1241 
Q 3047 1584 2836 1778 
Q 2625 1972 2144 2069 
L 1759 2144 
Q 1053 2284 737 2584 
Q 422 2884 422 3419 
Q 422 4038 858 4394 
Q 1294 4750 2059 4750 
Q 2388 4750 2728 4690 
Q 3069 4631 3425 4513 
z
" id="DejaVuSans-53" transform="scale(0.015625)"/>
      <path d="M 544 1381 
L 544 3500 
L 1119 3500 
L 1119 1403 
Q 1119 906 1312 657 
Q 1506 409 1894 409 
Q 2359 409 2629 706 
Q 2900 1003 2900 1516 
L 2900 3500 
L 3475 3500 
L 3475 0 
L 2900 0 
L 2900 538 
Q 2691 219 2414 64 
Q 2138 -91 1772 -91 
Q 1169 -91 856 284 
Q 544 659 544 1381 
z
M 1991 3584 
L 1991 3584 
z
" id="DejaVuSans-75" transform="scale(0.015625)"/>
      <path d="M 3328 2828 
Q 3544 3216 3844 3400 
Q 4144 3584 4550 3584 
Q 5097 3584 5394 3201 
Q 5691 2819 5691 2113 
L 5691 0 
L 5113 0 
L 5113 2094 
Q 5113 2597 4934 2840 
Q 4756 3084 4391 3084 
Q 3944 3084 3684 2787 
Q 3425 2491 3425 1978 
L 3425 0 
L 2847 0 
L 2847 2094 
Q 2847 2600 2669 2842 
Q 2491 3084 2119 3084 
Q 1678 3084 1418 2786 
Q 1159 2488 1159 1978 
L 1159 0 
L 581 0 
L 581 3500 
L 1159 3500 
L 1159 2956 
Q 1356 3278 1631 3431 
Q 1906 3584 2284 3584 
Q 2666 3584 2933 3390 
Q 3200 3197 3328 2828 
z
" id="DejaVuSans-6d" transform="scale(0.015625)"/>
      <path d="M 603 3500 
L 1178 3500 
L 1178 0 
L 603 0 
L 603 3500 
z
M 603 4863 
L 1178 4863 
L 1178 4134 
L 603 4134 
L 603 4863 
z
" id="DejaVuSans-69" transform="scale(0.015625)"/>
      <path d="M 1172 4494 
L 1172 3500 
L 2356 3500 
L 2356 3053 
L 1172 3053 
L 1172 1153 
Q 1172 725 1289 603 
Q 1406 481 1766 481 
L 2356 481 
L 2356 0 
L 1766 0 
Q 1100 0 847 248 
Q 594 497 594 1153 
L 594 3053 
L 172 3053 
L 172 3500 
L 594 3500 
L 594 4494 
L 1172 4494 
z
" id="DejaVuSans-74" transform="scale(0.015625)"/>
      <path id="DejaVuSans-20" transform="scale(0.015625)"/>
      <path d="M 3809 666 
L 3809 1919 
L 2778 1919 
L 2778 2438 
L 4434 2438 
L 4434 434 
Q 4069 175 3628 42 
Q 3188 -91 2688 -91 
Q 1594 -91 976 548 
Q 359 1188 359 2328 
Q 359 3472 976 4111 
Q 1594 4750 2688 4750 
Q 3144 4750 3555 4637 
Q 3966 4525 4313 4306 
L 4313 3634 
Q 3963 3931 3569 4081 
Q 3175 4231 2741 4231 
Q 1884 4231 1454 3753 
Q 1025 3275 1025 2328 
Q 1025 1384 1454 906 
Q 1884 428 2741 428 
Q 3075 428 3337 486 
Q 3600 544 3809 666 
z
" id="DejaVuSans-47" transform="scale(0.015625)"/>
      <path d="M 1959 3097 
Q 1497 3097 1228 2736 
Q 959 2375 959 1747 
Q 959 1119 1226 758 
Q 1494 397 1959 397 
Q 2419 397 2687 759 
Q 2956 1122 2956 1747 
Q 2956 2369 2687 2733 
Q 2419 3097 1959 3097 
z
M 1959 3584 
Q 2709 3584 3137 3096 
Q 3566 2609 3566 1747 
Q 3566 888 3137 398 
Q 2709 -91 1959 -91 
Q 1206 -91 779 398 
Q 353 888 353 1747 
Q 353 2609 779 3096 
Q 1206 3584 1959 3584 
z
" id="DejaVuSans-6f" transform="scale(0.015625)"/>
      <path d="M 3513 2113 
L 3513 0 
L 2938 0 
L 2938 2094 
Q 2938 2591 2744 2837 
Q 2550 3084 2163 3084 
Q 1697 3084 1428 2787 
Q 1159 2491 1159 1978 
L 1159 0 
L 581 0 
L 581 3500 
L 1159 3500 
L 1159 2956 
Q 1366 3272 1645 3428 
Q 1925 3584 2291 3584 
Q 2894 3584 3203 3211 
Q 3513 2838 3513 2113 
z
" id="DejaVuSans-6e" transform="scale(0.015625)"/>
      <path d="M 2906 2969 
L 2906 4863 
L 3481 4863 
L 3481 0 
L 2906 0 
L 2906 525 
Q 2725 213 2448 61 
Q 2172 -91 1784 -91 
Q 1150 -91 751 415 
Q 353 922 353 1747 
Q 353 2572 751 3078 
Q 1150 3584 1784 3584 
Q 2172 3584 2448 3432 
Q 2725 3281 2906 2969 
z
M 947 1747 
Q 947 1113 1208 752 
Q 1469 391 1925 391 
Q 2381 391 2643 752 
Q 2906 1113 2906 1747 
Q 2906 2381 2643 2742 
Q 2381 3103 1925 3103 
Q 1469 3103 1208 2742 
Q 947 2381 947 1747 
z
" id="DejaVuSans-64" transform="scale(0.015625)"/>
      <path d="M 603 4863 
L 1178 4863 
L 1178 0 
L 603 0 
L 603 4863 
z
" id="DejaVuSans-6c" transform="scale(0.015625)"/>
      <path d="M 2194 1759 
Q 1497 1759 1228 1600 
Q 959 1441 959 1056 
Q 959 750 1161 570 
Q 1363 391 1709 391 
Q 2188 391 2477 730 
Q 2766 1069 2766 1631 
L 2766 1759 
L 2194 1759 
z
M 3341 1997 
L 3341 0 
L 2766 0 
L 2766 531 
Q 2569 213 2275 61 
Q 1981 -91 1556 -91 
Q 1019 -91 701 211 
Q 384 513 384 1019 
Q 384 1609 779 1909 
Q 1175 2209 1959 2209 
L 2766 2209 
L 2766 2266 
Q 2766 2663 2505 2880 
Q 2244 3097 1772 3097 
Q 1472 3097 1187 3025 
Q 903 2953 641 2809 
L 641 3341 
Q 956 3463 1253 3523 
Q 1550 3584 1831 3584 
Q 2591 3584 2966 3190 
Q 3341 2797 3341 1997 
z
" id="DejaVuSans-61" transform="scale(0.015625)"/>
     </defs>
     <use xlink:href="#DejaVuSans-53"/>
     <use x="63.476562" xlink:href="#DejaVuSans-75"/>
     <use x="126.855469" xlink:href="#DejaVuSans-6d"/>
     <use x="224.267578" xlink:href="#DejaVuSans-6d"/>
     <use x="321.679688" xlink:href="#DejaVuSans-69"/>
     <use x="349.462891" xlink:href="#DejaVuSans-74"/>
     <use x="388.671875" xlink:href="#DejaVuSans-20"/>
     <use x="420.458984" xlink:href="#DejaVuSans-47"/>
     <use x="497.949219" xlink:href="#DejaVuSans-6f"/>
     <use x="559.130859" xlink:href="#DejaVuSans-6e"/>
     <use x="622.509766" xlink:href="#DejaVuSans-64"/>
     <use x="685.986328" xlink:href="#DejaVuSans-6f"/>
     <use x="747.167969" xlink:href="#DejaVuSans-6c"/>
     <use x="774.951172" xlink:href="#DejaVuSans-61"/>
    </g>
   </g>
   <g id="text_2">
    <g id="patch_3">
     <path d="M 89.269931 131.398741 
L 91.289184 144.485121 
L 93.241702 144.183843 
L 91.222449 131.097464 
z
" style="fill:#ffffff;"/>
    </g>
    <!-- Cougar Triple -->
    <g style="fill:#808080;" transform="translate(89.70382 131.352028)rotate(-278.771666)scale(0.02 -0.02)">
     <defs>
      <path d="M 4122 4306 
L 4122 3641 
Q 3803 3938 3442 4084 
Q 3081 4231 2675 4231 
Q 1875 4231 1450 3742 
Q 1025 3253 1025 2328 
Q 1025 1406 1450 917 
Q 1875 428 2675 428 
Q 3081 428 3442 575 
Q 3803 722 4122 1019 
L 4122 359 
Q 3791 134 3420 21 
Q 3050 -91 2638 -91 
Q 1578 -91 968 557 
Q 359 1206 359 2328 
Q 359 3453 968 4101 
Q 1578 4750 2638 4750 
Q 3056 4750 3426 4639 
Q 3797 4528 4122 4306 
z
" id="DejaVuSans-43" transform="scale(0.015625)"/>
      <path d="M 2906 1791 
Q 2906 2416 2648 2759 
Q 2391 3103 1925 3103 
Q 1463 3103 1205 2759 
Q 947 2416 947 1791 
Q 947 1169 1205 825 
Q 1463 481 1925 481 
Q 2391 481 2648 825 
Q 2906 1169 2906 1791 
z
M 3481 434 
Q 3481 -459 3084 -895 
Q 2688 -1331 1869 -1331 
Q 1566 -1331 1297 -1286 
Q 1028 -1241 775 -1147 
L 775 -588 
Q 1028 -725 1275 -790 
Q 1522 -856 1778 -856 
Q 2344 -856 2625 -561 
Q 2906 -266 2906 331 
L 2906 616 
Q 2728 306 2450 153 
Q 2172 0 1784 0 
Q 1141 0 747 490 
Q 353 981 353 1791 
Q 353 2603 747 3093 
Q 1141 3584 1784 3584 
Q 2172 3584 2450 3431 
Q 2728 3278 2906 2969 
L 2906 3500 
L 3481 3500 
L 3481 434 
z
" id="DejaVuSans-67" transform="scale(0.015625)"/>
      <path d="M 2631 2963 
Q 2534 3019 2420 3045 
Q 2306 3072 2169 3072 
Q 1681 3072 1420 2755 
Q 1159 2438 1159 1844 
L 1159 0 
L 581 0 
L 581 3500 
L 1159 3500 
L 1159 2956 
Q 1341 3275 1631 3429 
Q 1922 3584 2338 3584 
Q 2397 3584 2469 3576 
Q 2541 3569 2628 3553 
L 2631 2963 
z
" id="DejaVuSans-72" transform="scale(0.015625)"/>
      <path d="M -19 4666 
L 3928 4666 
L 3928 4134 
L 2272 4134 
L 2272 0 
L 1638 0 
L 1638 4134 
L -19 4134 
L -19 4666 
z
" id="DejaVuSans-54" transform="scale(0.015625)"/>
      <path d="M 1159 525 
L 1159 -1331 
L 581 -1331 
L 581 3500 
L 1159 3500 
L 1159 2969 
Q 1341 3281 1617 3432 
Q 1894 3584 2278 3584 
Q 2916 3584 3314 3078 
Q 3713 2572 3713 1747 
Q 3713 922 3314 415 
Q 2916 -91 2278 -91 
Q 1894 -91 1617 61 
Q 1341 213 1159 525 
z
M 3116 1747 
Q 3116 2381 2855 2742 
Q 2594 3103 2138 3103 
Q 1681 3103 1420 2742 
Q 1159 2381 1159 1747 
Q 1159 1113 1420 752 
Q 1681 391 2138 391 
Q 2594 391 2855 752 
Q 3116 1113 3116 1747 
z
" id="DejaVuSans-70" transform="scale(0.015625)"/>
      <path d="M 3597 1894 
L 3597 1613 
L 953 1613 
Q 991 1019 1311 708 
Q 1631 397 2203 397 
Q 2534 397 2845 478 
Q 3156 559 3463 722 
L 3463 178 
Q 3153 47 2828 -22 
Q 2503 -91 2169 -91 
Q 1331 -91 842 396 
Q 353 884 353 1716 
Q 353 2575 817 3079 
Q 1281 3584 2069 3584 
Q 2775 3584 3186 3129 
Q 3597 2675 3597 1894 
z
M 3022 2063 
Q 3016 2534 2758 2815 
Q 2500 3097 2075 3097 
Q 1594 3097 1305 2825 
Q 1016 2553 972 2059 
L 3022 2063 
z
" id="DejaVuSans-65" transform="scale(0.015625)"/>
     </defs>
     <use xlink:href="#DejaVuSans-43"/>
     <use x="69.824219" xlink:href="#DejaVuSans-6f"/>
     <use x="131.005859" xlink:href="#DejaVuSans-75"/>
     <use x="194.384766" xlink:href="#DejaVuSans-67"/>
     <use x="257.861328" xlink:href="#DejaVuSans-61"/>
     <use x="319.140625" xlink:href="#DejaVuSans-72"/>
     <use x="360.253906" xlink:href="#DejaVuSans-20"/>
     <use x="392.041016" xlink:href="#DejaVuSans-54"/>
     <use x="438.375" xlink:href="#DejaVuSans-72"/>
     <use x="479.488281" xlink:href="#DejaVuSans-69"/>
     <use x="507.271484" xlink:href="#DejaVuSans-70"/>
     <use x="570.748047" xlink:href="#DejaVuSans-6c"/>
     <use x="598.53125" xlink:href="#DejaVuSans-65"/>
    </g>
   </g>
   <g id="text_3">
    <g id="patch_4">
     <path d="M 33.116274 138.977375 
L 39.403604 154.239619 
L 41.2303 153.487106 
L 34.94297 138.224862 
z
" style="fill:#ffffff;"/>
    </g>
    <!-- Rafferty Chairlift -->
    <g style="fill:#808080;" transform="translate(33.526967 138.82982)rotate(-292.389368)scale(0.02 -0.02)">
     <defs>
      <path d="M 2841 2188 
Q 3044 2119 3236 1894 
Q 3428 1669 3622 1275 
L 4263 0 
L 3584 0 
L 2988 1197 
Q 2756 1666 2539 1819 
Q 2322 1972 1947 1972 
L 1259 1972 
L 1259 0 
L 628 0 
L 628 4666 
L 2053 4666 
Q 2853 4666 3247 4331 
Q 3641 3997 3641 3322 
Q 3641 2881 3436 2590 
Q 3231 2300 2841 2188 
z
M 1259 4147 
L 1259 2491 
L 2053 2491 
Q 2509 2491 2742 2702 
Q 2975 2913 2975 3322 
Q 2975 3731 2742 3939 
Q 2509 4147 2053 4147 
L 1259 4147 
z
" id="DejaVuSans-52" transform="scale(0.015625)"/>
      <path d="M 2375 4863 
L 2375 4384 
L 1825 4384 
Q 1516 4384 1395 4259 
Q 1275 4134 1275 3809 
L 1275 3500 
L 2222 3500 
L 2222 3053 
L 1275 3053 
L 1275 0 
L 697 0 
L 697 3053 
L 147 3053 
L 147 3500 
L 697 3500 
L 697 3744 
Q 697 4328 969 4595 
Q 1241 4863 1831 4863 
L 2375 4863 
z
" id="DejaVuSans-66" transform="scale(0.015625)"/>
      <path d="M 2059 -325 
Q 1816 -950 1584 -1140 
Q 1353 -1331 966 -1331 
L 506 -1331 
L 506 -850 
L 844 -850 
Q 1081 -850 1212 -737 
Q 1344 -625 1503 -206 
L 1606 56 
L 191 3500 
L 800 3500 
L 1894 763 
L 2988 3500 
L 3597 3500 
L 2059 -325 
z
" id="DejaVuSans-79" transform="scale(0.015625)"/>
      <path d="M 3513 2113 
L 3513 0 
L 2938 0 
L 2938 2094 
Q 2938 2591 2744 2837 
Q 2550 3084 2163 3084 
Q 1697 3084 1428 2787 
Q 1159 2491 1159 1978 
L 1159 0 
L 581 0 
L 581 4863 
L 1159 4863 
L 1159 2956 
Q 1366 3272 1645 3428 
Q 1925 3584 2291 3584 
Q 2894 3584 3203 3211 
Q 3513 2838 3513 2113 
z
" id="DejaVuSans-68" transform="scale(0.015625)"/>
     </defs>
     <use xlink:href="#DejaVuSans-52"/>
     <use x="67.232422" xlink:href="#DejaVuSans-61"/>
     <use x="128.511719" xlink:href="#DejaVuSans-66"/>
     <use x="163.716797" xlink:href="#DejaVuSans-66"/>
     <use x="198.921875" xlink:href="#DejaVuSans-65"/>
     <use x="260.445312" xlink:href="#DejaVuSans-72"/>
     <use x="301.558594" xlink:href="#DejaVuSans-74"/>
     <use x="340.767578" xlink:href="#DejaVuSans-79"/>
     <use x="399.947266" xlink:href="#DejaVuSans-20"/>
     <use x="431.734375" xlink:href="#DejaVuSans-43"/>
     <use x="501.558594" xlink:href="#DejaVuSans-68"/>
     <use x="564.9375" xlink:href="#DejaVuSans-61"/>
     <use x="626.216797" xlink:href="#DejaVuSans-69"/>
     <use x="654" xlink:href="#DejaVuSans-72"/>
     <use x="695.113281" xlink:href="#DejaVuSans-6c"/>
     <use x="722.896484" xlink:href="#DejaVuSans-69"/>
     <use x="750.679688" xlink:href="#DejaVuSans-66"/>
     <use x="784.134766" xlink:href="#DejaVuSans-74"/>
    </g>
   </g>
   <g id="text_4">
    <g id="patch_5">
     <path d="M 78.762279 70.721594 
L 81.38766 84.343083 
L 83.327581 83.969186 
L 80.7022 70.347697 
z
" style="fill:#ffffff;"/>
    </g>
    <!-- Bighorn 31.2° -->
    <g style="fill:#ff0000;" transform="translate(79.194123 70.658729)rotate(-280.909311)scale(0.02 -0.02)">
     <defs>
      <path d="M 1259 2228 
L 1259 519 
L 2272 519 
Q 2781 519 3026 730 
Q 3272 941 3272 1375 
Q 3272 1813 3026 2020 
Q 2781 2228 2272 2228 
L 1259 2228 
z
M 1259 4147 
L 1259 2741 
L 2194 2741 
Q 2656 2741 2882 2914 
Q 3109 3088 3109 3444 
Q 3109 3797 2882 3972 
Q 2656 4147 2194 4147 
L 1259 4147 
z
M 628 4666 
L 2241 4666 
Q 2963 4666 3353 4366 
Q 3744 4066 3744 3513 
Q 3744 3084 3544 2831 
Q 3344 2578 2956 2516 
Q 3422 2416 3680 2098 
Q 3938 1781 3938 1306 
Q 3938 681 3513 340 
Q 3088 0 2303 0 
L 628 0 
L 628 4666 
z
" id="DejaVuSans-42" transform="scale(0.015625)"/>
      <path d="M 2597 2516 
Q 3050 2419 3304 2112 
Q 3559 1806 3559 1356 
Q 3559 666 3084 287 
Q 2609 -91 1734 -91 
Q 1441 -91 1130 -33 
Q 819 25 488 141 
L 488 750 
Q 750 597 1062 519 
Q 1375 441 1716 441 
Q 2309 441 2620 675 
Q 2931 909 2931 1356 
Q 2931 1769 2642 2001 
Q 2353 2234 1838 2234 
L 1294 2234 
L 1294 2753 
L 1863 2753 
Q 2328 2753 2575 2939 
Q 2822 3125 2822 3475 
Q 2822 3834 2567 4026 
Q 2313 4219 1838 4219 
Q 1578 4219 1281 4162 
Q 984 4106 628 3988 
L 628 4550 
Q 988 4650 1302 4700 
Q 1616 4750 1894 4750 
Q 2613 4750 3031 4423 
Q 3450 4097 3450 3541 
Q 3450 3153 3228 2886 
Q 3006 2619 2597 2516 
z
" id="DejaVuSans-33" transform="scale(0.015625)"/>
      <path d="M 794 531 
L 1825 531 
L 1825 4091 
L 703 3866 
L 703 4441 
L 1819 4666 
L 2450 4666 
L 2450 531 
L 3481 531 
L 3481 0 
L 794 0 
L 794 531 
z
" id="DejaVuSans-31" transform="scale(0.015625)"/>
      <path d="M 684 794 
L 1344 794 
L 1344 0 
L 684 0 
L 684 794 
z
" id="DejaVuSans-2e" transform="scale(0.015625)"/>
      <path d="M 1228 531 
L 3431 531 
L 3431 0 
L 469 0 
L 469 531 
Q 828 903 1448 1529 
Q 2069 2156 2228 2338 
Q 2531 2678 2651 2914 
Q 2772 3150 2772 3378 
Q 2772 3750 2511 3984 
Q 2250 4219 1831 4219 
Q 1534 4219 1204 4116 
Q 875 4013 500 3803 
L 500 4441 
Q 881 4594 1212 4672 
Q 1544 4750 1819 4750 
Q 2544 4750 2975 4387 
Q 3406 4025 3406 3419 
Q 3406 3131 3298 2873 
Q 3191 2616 2906 2266 
Q 2828 2175 2409 1742 
Q 1991 1309 1228 531 
z
" id="DejaVuSans-32" transform="scale(0.015625)"/>
      <path d="M 1600 4347 
Q 1350 4347 1178 4173 
Q 1006 4000 1006 3750 
Q 1006 3503 1178 3333 
Q 1350 3163 1600 3163 
Q 1850 3163 2022 3333 
Q 2194 3503 2194 3750 
Q 2194 3997 2020 4172 
Q 1847 4347 1600 4347 
z
M 1600 4750 
Q 1800 4750 1984 4673 
Q 2169 4597 2303 4453 
Q 2447 4313 2519 4134 
Q 2591 3956 2591 3750 
Q 2591 3338 2302 3052 
Q 2013 2766 1594 2766 
Q 1172 2766 890 3047 
Q 609 3328 609 3750 
Q 609 4169 896 4459 
Q 1184 4750 1600 4750 
z
" id="DejaVuSans-b0" transform="scale(0.015625)"/>
     </defs>
     <use xlink:href="#DejaVuSans-42"/>
     <use x="68.603516" xlink:href="#DejaVuSans-69"/>
     <use x="96.386719" xlink:href="#DejaVuSans-67"/>
     <use x="159.863281" xlink:href="#DejaVuSans-68"/>
     <use x="223.242188" xlink:href="#DejaVuSans-6f"/>
     <use x="284.423828" xlink:href="#DejaVuSans-72"/>
     <use x="323.787109" xlink:href="#DejaVuSans-6e"/>
     <use x="387.166016" xlink:href="#DejaVuSans-20"/>
     <use x="418.953125" xlink:href="#DejaVuSans-33"/>
     <use x="482.576172" xlink:href="#DejaVuSans-31"/>
     <use x="546.199219" xlink:href="#DejaVuSans-2e"/>
     <use x="577.986328" xlink:href="#DejaVuSans-32"/>
     <use x="641.609375" xlink:href="#DejaVuSans-b0"/>
    </g>
   </g>
   <g id="text_5">
    <g id="patch_6">
     <path d="M 110.276132 85.818574 
L 112.943725 69.986106 
L 110.995559 69.657862 
L 108.327966 85.49033 
z
" style="fill:#ffffff;"/>
    </g>
    <!-- Exhibition 31.2° -->
    <g style="fill:#ff0000;" transform="translate(109.849577 85.726423)rotate(-80.436132)scale(0.02 -0.02)">
     <defs>
      <path d="M 628 4666 
L 3578 4666 
L 3578 4134 
L 1259 4134 
L 1259 2753 
L 3481 2753 
L 3481 2222 
L 1259 2222 
L 1259 531 
L 3634 531 
L 3634 0 
L 628 0 
L 628 4666 
z
" id="DejaVuSans-45" transform="scale(0.015625)"/>
      <path d="M 3513 3500 
L 2247 1797 
L 3578 0 
L 2900 0 
L 1881 1375 
L 863 0 
L 184 0 
L 1544 1831 
L 300 3500 
L 978 3500 
L 1906 2253 
L 2834 3500 
L 3513 3500 
z
" id="DejaVuSans-78" transform="scale(0.015625)"/>
      <path d="M 3116 1747 
Q 3116 2381 2855 2742 
Q 2594 3103 2138 3103 
Q 1681 3103 1420 2742 
Q 1159 2381 1159 1747 
Q 1159 1113 1420 752 
Q 1681 391 2138 391 
Q 2594 391 2855 752 
Q 3116 1113 3116 1747 
z
M 1159 2969 
Q 1341 3281 1617 3432 
Q 1894 3584 2278 3584 
Q 2916 3584 3314 3078 
Q 3713 2572 3713 1747 
Q 3713 922 3314 415 
Q 2916 -91 2278 -91 
Q 1894 -91 1617 61 
Q 1341 213 1159 525 
L 1159 0 
L 581 0 
L 581 4863 
L 1159 4863 
L 1159 2969 
z
" id="DejaVuSans-62" transform="scale(0.015625)"/>
     </defs>
     <use xlink:href="#DejaVuSans-45"/>
     <use x="63.183594" xlink:href="#DejaVuSans-78"/>
     <use x="122.363281" xlink:href="#DejaVuSans-68"/>
     <use x="185.742188" xlink:href="#DejaVuSans-69"/>
     <use x="213.525391" xlink:href="#DejaVuSans-62"/>
     <use x="277.001953" xlink:href="#DejaVuSans-69"/>
     <use x="304.785156" xlink:href="#DejaVuSans-74"/>
     <use x="343.994141" xlink:href="#DejaVuSans-69"/>
     <use x="371.777344" xlink:href="#DejaVuSans-6f"/>
     <use x="432.958984" xlink:href="#DejaVuSans-6e"/>
     <use x="496.337891" xlink:href="#DejaVuSans-20"/>
     <use x="528.125" xlink:href="#DejaVuSans-33"/>
     <use x="591.748047" xlink:href="#DejaVuSans-31"/>
     <use x="655.371094" xlink:href="#DejaVuSans-2e"/>
     <use x="687.158203" xlink:href="#DejaVuSans-32"/>
     <use x="750.78125" xlink:href="#DejaVuSans-b0"/>
    </g>
   </g>
   <g id="text_6">
    <g id="patch_7">
     <path d="M 114.082338 55.271862 
L 118.648378 32.987657 
L 116.712964 32.59109 
L 112.146923 54.875295 
z
" style="fill:#ffffff;"/>
    </g>
    <!-- Upper Exhibition 37.7° -->
    <g style="fill:#ff0000;" transform="translate(113.659288 55.164764)rotate(-78.420356)scale(0.02 -0.02)">
     <defs>
      <path d="M 556 4666 
L 1191 4666 
L 1191 1831 
Q 1191 1081 1462 751 
Q 1734 422 2344 422 
Q 2950 422 3222 751 
Q 3494 1081 3494 1831 
L 3494 4666 
L 4128 4666 
L 4128 1753 
Q 4128 841 3676 375 
Q 3225 -91 2344 -91 
Q 1459 -91 1007 375 
Q 556 841 556 1753 
L 556 4666 
z
" id="DejaVuSans-55" transform="scale(0.015625)"/>
      <path d="M 525 4666 
L 3525 4666 
L 3525 4397 
L 1831 0 
L 1172 0 
L 2766 4134 
L 525 4134 
L 525 4666 
z
" id="DejaVuSans-37" transform="scale(0.015625)"/>
     </defs>
     <use xlink:href="#DejaVuSans-55"/>
     <use x="73.193359" xlink:href="#DejaVuSans-70"/>
     <use x="136.669922" xlink:href="#DejaVuSans-70"/>
     <use x="200.146484" xlink:href="#DejaVuSans-65"/>
     <use x="261.669922" xlink:href="#DejaVuSans-72"/>
     <use x="302.783203" xlink:href="#DejaVuSans-20"/>
     <use x="334.570312" xlink:href="#DejaVuSans-45"/>
     <use x="397.753906" xlink:href="#DejaVuSans-78"/>
     <use x="456.933594" xlink:href="#DejaVuSans-68"/>
     <use x="520.3125" xlink:href="#DejaVuSans-69"/>
     <use x="548.095703" xlink:href="#DejaVuSans-62"/>
     <use x="611.572266" xlink:href="#DejaVuSans-69"/>
     <use x="639.355469" xlink:href="#DejaVuSans-74"/>
     <use x="678.564453" xlink:href="#DejaVuSans-69"/>
     <use x="706.347656" xlink:href="#DejaVuSans-6f"/>
     <use x="767.529297" xlink:href="#DejaVuSans-6e"/>
     <use x="830.908203" xlink:href="#DejaVuSans-20"/>
     <use x="862.695312" xlink:href="#DejaVuSans-33"/>
     <use x="926.318359" xlink:href="#DejaVuSans-37"/>
     <use x="989.941406" xlink:href="#DejaVuSans-2e"/>
     <use x="1021.728516" xlink:href="#DejaVuSans-37"/>
     <use x="1085.351562" xlink:href="#DejaVuSans-b0"/>
    </g>
   </g>
   <g id="text_7">
    <g id="patch_8">
     <path d="M 90.764004 73.457081 
L 91.231369 86.78295 
L 93.20578 86.713703 
L 92.738415 73.387834 
z
" style="fill:#ffffff;"/>
    </g>
    <!-- Cougar 31.9° -->
    <g style="fill:#ff0000;" transform="translate(91.200375 73.461788)rotate(-272.008652)scale(0.02 -0.02)">
     <defs>
      <path d="M 703 97 
L 703 672 
Q 941 559 1184 500 
Q 1428 441 1663 441 
Q 2288 441 2617 861 
Q 2947 1281 2994 2138 
Q 2813 1869 2534 1725 
Q 2256 1581 1919 1581 
Q 1219 1581 811 2004 
Q 403 2428 403 3163 
Q 403 3881 828 4315 
Q 1253 4750 1959 4750 
Q 2769 4750 3195 4129 
Q 3622 3509 3622 2328 
Q 3622 1225 3098 567 
Q 2575 -91 1691 -91 
Q 1453 -91 1209 -44 
Q 966 3 703 97 
z
M 1959 2075 
Q 2384 2075 2632 2365 
Q 2881 2656 2881 3163 
Q 2881 3666 2632 3958 
Q 2384 4250 1959 4250 
Q 1534 4250 1286 3958 
Q 1038 3666 1038 3163 
Q 1038 2656 1286 2365 
Q 1534 2075 1959 2075 
z
" id="DejaVuSans-39" transform="scale(0.015625)"/>
     </defs>
     <use xlink:href="#DejaVuSans-43"/>
     <use x="69.824219" xlink:href="#DejaVuSans-6f"/>
     <use x="131.005859" xlink:href="#DejaVuSans-75"/>
     <use x="194.384766" xlink:href="#DejaVuSans-67"/>
     <use x="257.861328" xlink:href="#DejaVuSans-61"/>
     <use x="319.140625" xlink:href="#DejaVuSans-72"/>
     <use x="360.253906" xlink:href="#DejaVuSans-20"/>
     <use x="392.041016" xlink:href="#DejaVuSans-33"/>
     <use x="455.664062" xlink:href="#DejaVuSans-31"/>
     <use x="519.287109" xlink:href="#DejaVuSans-2e"/>
     <use x="551.074219" xlink:href="#DejaVuSans-39"/>
     <use x="614.697266" xlink:href="#DejaVuSans-b0"/>
    </g>
   </g>
   <g id="text_8">
    <g id="patch_9">
     <path d="M 91.056865 39.076814 
L 97.357548 25.137812 
L 95.557295 24.324065 
L 89.256612 38.263067 
z
" style="fill:#ffffff;"/>
    </g>
    <!-- Belly Roll 34.7° -->
    <g style="fill:#ff0000;" transform="translate(90.667862 38.879029)rotate(-65.676165)scale(0.02 -0.02)">
     <defs>
      <path d="M 2419 4116 
L 825 1625 
L 2419 1625 
L 2419 4116 
z
M 2253 4666 
L 3047 4666 
L 3047 1625 
L 3713 1625 
L 3713 1100 
L 3047 1100 
L 3047 0 
L 2419 0 
L 2419 1100 
L 313 1100 
L 313 1709 
L 2253 4666 
z
" id="DejaVuSans-34" transform="scale(0.015625)"/>
     </defs>
     <use xlink:href="#DejaVuSans-42"/>
     <use x="68.603516" xlink:href="#DejaVuSans-65"/>
     <use x="130.126953" xlink:href="#DejaVuSans-6c"/>
     <use x="157.910156" xlink:href="#DejaVuSans-6c"/>
     <use x="185.693359" xlink:href="#DejaVuSans-79"/>
     <use x="244.873047" xlink:href="#DejaVuSans-20"/>
     <use x="276.660156" xlink:href="#DejaVuSans-52"/>
     <use x="341.642578" xlink:href="#DejaVuSans-6f"/>
     <use x="402.824219" xlink:href="#DejaVuSans-6c"/>
     <use x="430.607422" xlink:href="#DejaVuSans-6c"/>
     <use x="458.390625" xlink:href="#DejaVuSans-20"/>
     <use x="490.177734" xlink:href="#DejaVuSans-33"/>
     <use x="553.800781" xlink:href="#DejaVuSans-34"/>
     <use x="617.423828" xlink:href="#DejaVuSans-2e"/>
     <use x="649.210938" xlink:href="#DejaVuSans-37"/>
     <use x="712.833984" xlink:href="#DejaVuSans-b0"/>
    </g>
   </g>
   <g id="text_9">
    <g id="patch_10">
     <path d="M 92.044338 123.526555 
L 92.92534 139.611196 
L 94.898008 139.503147 
L 94.017006 123.418506 
z
" style="fill:#ffffff;"/>
    </g>
    <!-- Holy Land 25.7° -->
    <g transform="translate(92.480717 123.522683)rotate(-273.135123)scale(0.02 -0.02)">
     <defs>
      <path d="M 628 4666 
L 1259 4666 
L 1259 2753 
L 3553 2753 
L 3553 4666 
L 4184 4666 
L 4184 0 
L 3553 0 
L 3553 2222 
L 1259 2222 
L 1259 0 
L 628 0 
L 628 4666 
z
" id="DejaVuSans-48" transform="scale(0.015625)"/>
      <path d="M 628 4666 
L 1259 4666 
L 1259 531 
L 3531 531 
L 3531 0 
L 628 0 
L 628 4666 
z
" id="DejaVuSans-4c" transform="scale(0.015625)"/>
      <path d="M 691 4666 
L 3169 4666 
L 3169 4134 
L 1269 4134 
L 1269 2991 
Q 1406 3038 1543 3061 
Q 1681 3084 1819 3084 
Q 2600 3084 3056 2656 
Q 3513 2228 3513 1497 
Q 3513 744 3044 326 
Q 2575 -91 1722 -91 
Q 1428 -91 1123 -41 
Q 819 9 494 109 
L 494 744 
Q 775 591 1075 516 
Q 1375 441 1709 441 
Q 2250 441 2565 725 
Q 2881 1009 2881 1497 
Q 2881 1984 2565 2268 
Q 2250 2553 1709 2553 
Q 1456 2553 1204 2497 
Q 953 2441 691 2322 
L 691 4666 
z
" id="DejaVuSans-35" transform="scale(0.015625)"/>
     </defs>
     <use xlink:href="#DejaVuSans-48"/>
     <use x="75.195312" xlink:href="#DejaVuSans-6f"/>
     <use x="136.376953" xlink:href="#DejaVuSans-6c"/>
     <use x="164.160156" xlink:href="#DejaVuSans-79"/>
     <use x="223.339844" xlink:href="#DejaVuSans-20"/>
     <use x="255.126953" xlink:href="#DejaVuSans-4c"/>
     <use x="310.839844" xlink:href="#DejaVuSans-61"/>
     <use x="372.119141" xlink:href="#DejaVuSans-6e"/>
     <use x="435.498047" xlink:href="#DejaVuSans-64"/>
     <use x="498.974609" xlink:href="#DejaVuSans-20"/>
     <use x="530.761719" xlink:href="#DejaVuSans-32"/>
     <use x="594.384766" xlink:href="#DejaVuSans-35"/>
     <use x="658.007812" xlink:href="#DejaVuSans-2e"/>
     <use x="689.794922" xlink:href="#DejaVuSans-37"/>
     <use x="753.417969" xlink:href="#DejaVuSans-b0"/>
    </g>
   </g>
   <g id="text_10">
    <g id="patch_11">
     <path d="M 73.531439 72.412856 
L 74.699972 83.943484 
L 76.66553 83.744291 
L 75.496996 72.213663 
z
" style="fill:#ffffff;"/>
    </g>
    <!-- Bison 32.7° -->
    <g style="fill:#ff0000;" transform="translate(73.967171 72.3888)rotate(-275.786696)scale(0.02 -0.02)">
     <defs>
      <path d="M 2834 3397 
L 2834 2853 
Q 2591 2978 2328 3040 
Q 2066 3103 1784 3103 
Q 1356 3103 1142 2972 
Q 928 2841 928 2578 
Q 928 2378 1081 2264 
Q 1234 2150 1697 2047 
L 1894 2003 
Q 2506 1872 2764 1633 
Q 3022 1394 3022 966 
Q 3022 478 2636 193 
Q 2250 -91 1575 -91 
Q 1294 -91 989 -36 
Q 684 19 347 128 
L 347 722 
Q 666 556 975 473 
Q 1284 391 1588 391 
Q 1994 391 2212 530 
Q 2431 669 2431 922 
Q 2431 1156 2273 1281 
Q 2116 1406 1581 1522 
L 1381 1569 
Q 847 1681 609 1914 
Q 372 2147 372 2553 
Q 372 3047 722 3315 
Q 1072 3584 1716 3584 
Q 2034 3584 2315 3537 
Q 2597 3491 2834 3397 
z
" id="DejaVuSans-73" transform="scale(0.015625)"/>
     </defs>
     <use xlink:href="#DejaVuSans-42"/>
     <use x="68.603516" xlink:href="#DejaVuSans-69"/>
     <use x="96.386719" xlink:href="#DejaVuSans-73"/>
     <use x="148.486328" xlink:href="#DejaVuSans-6f"/>
     <use x="209.667969" xlink:href="#DejaVuSans-6e"/>
     <use x="273.046875" xlink:href="#DejaVuSans-20"/>
     <use x="304.833984" xlink:href="#DejaVuSans-33"/>
     <use x="368.457031" xlink:href="#DejaVuSans-32"/>
     <use x="432.080078" xlink:href="#DejaVuSans-2e"/>
     <use x="463.867188" xlink:href="#DejaVuSans-37"/>
     <use x="527.490234" xlink:href="#DejaVuSans-b0"/>
    </g>
   </g>
   <g id="text_11">
    <g id="patch_12">
     <path d="M 34.908157 90.830369 
L 35.277927 72.847295 
L 33.30272 72.806681 
L 32.93295 90.789755 
z
" style="fill:#ffffff;"/>
    </g>
    <!-- Kelly's Alley 29.1° -->
    <g transform="translate(34.472723 90.801411)rotate(-88.822044)scale(0.02 -0.02)">
     <defs>
      <path d="M 628 4666 
L 1259 4666 
L 1259 2694 
L 3353 4666 
L 4166 4666 
L 1850 2491 
L 4331 0 
L 3500 0 
L 1259 2247 
L 1259 0 
L 628 0 
L 628 4666 
z
" id="DejaVuSans-4b" transform="scale(0.015625)"/>
      <path d="M 1147 4666 
L 1147 2931 
L 616 2931 
L 616 4666 
L 1147 4666 
z
" id="DejaVuSans-27" transform="scale(0.015625)"/>
      <path d="M 2188 4044 
L 1331 1722 
L 3047 1722 
L 2188 4044 
z
M 1831 4666 
L 2547 4666 
L 4325 0 
L 3669 0 
L 3244 1197 
L 1141 1197 
L 716 0 
L 50 0 
L 1831 4666 
z
" id="DejaVuSans-41" transform="scale(0.015625)"/>
     </defs>
     <use xlink:href="#DejaVuSans-4b"/>
     <use x="60.576172" xlink:href="#DejaVuSans-65"/>
     <use x="122.099609" xlink:href="#DejaVuSans-6c"/>
     <use x="149.882812" xlink:href="#DejaVuSans-6c"/>
     <use x="177.666016" xlink:href="#DejaVuSans-79"/>
     <use x="236.845703" xlink:href="#DejaVuSans-27"/>
     <use x="264.335938" xlink:href="#DejaVuSans-73"/>
     <use x="316.435547" xlink:href="#DejaVuSans-20"/>
     <use x="348.222656" xlink:href="#DejaVuSans-41"/>
     <use x="416.630859" xlink:href="#DejaVuSans-6c"/>
     <use x="444.414062" xlink:href="#DejaVuSans-6c"/>
     <use x="472.197266" xlink:href="#DejaVuSans-65"/>
     <use x="533.720703" xlink:href="#DejaVuSans-79"/>
     <use x="592.900391" xlink:href="#DejaVuSans-20"/>
     <use x="624.6875" xlink:href="#DejaVuSans-32"/>
     <use x="688.310547" xlink:href="#DejaVuSans-39"/>
     <use x="751.933594" xlink:href="#DejaVuSans-2e"/>
     <use x="783.720703" xlink:href="#DejaVuSans-31"/>
     <use x="847.34375" xlink:href="#DejaVuSans-b0"/>
    </g>
   </g>
   <g id="text_12">
    <g id="patch_13">
     <path d="M 32.668518 91.590387 
L 38.739257 92.431638 
L 39.010437 90.474713 
L 32.939698 89.633462 
z
" style="fill:#ffffff;"/>
    </g>
    <!--  19.3° -->
    <g style="fill:#4169e1;" transform="translate(32.748166 91.161321)rotate(-352.110501)scale(0.02 -0.02)">
     <use xlink:href="#DejaVuSans-20"/>
     <use x="31.787109" xlink:href="#DejaVuSans-31"/>
     <use x="95.410156" xlink:href="#DejaVuSans-39"/>
     <use x="159.033203" xlink:href="#DejaVuSans-2e"/>
     <use x="190.820312" xlink:href="#DejaVuSans-33"/>
     <use x="254.443359" xlink:href="#DejaVuSans-b0"/>
    </g>
   </g>
   <g id="text_13">
    <g id="patch_14">
     <path d="M 104.373402 124.60688 
L 104.558957 130.732821 
L 106.533676 130.673006 
L 106.348122 124.547066 
z
" style="fill:#ffffff;"/>
    </g>
    <!--  21.0° -->
    <g style="fill:#4169e1;" transform="translate(104.809745 124.613673)rotate(-271.734959)scale(0.02 -0.02)">
     <defs>
      <path d="M 2034 4250 
Q 1547 4250 1301 3770 
Q 1056 3291 1056 2328 
Q 1056 1369 1301 889 
Q 1547 409 2034 409 
Q 2525 409 2770 889 
Q 3016 1369 3016 2328 
Q 3016 3291 2770 3770 
Q 2525 4250 2034 4250 
z
M 2034 4750 
Q 2819 4750 3233 4129 
Q 3647 3509 3647 2328 
Q 3647 1150 3233 529 
Q 2819 -91 2034 -91 
Q 1250 -91 836 529 
Q 422 1150 422 2328 
Q 422 3509 836 4129 
Q 1250 4750 2034 4750 
z
" id="DejaVuSans-30" transform="scale(0.015625)"/>
     </defs>
     <use xlink:href="#DejaVuSans-20"/>
     <use x="31.787109" xlink:href="#DejaVuSans-32"/>
     <use x="95.410156" xlink:href="#DejaVuSans-31"/>
     <use x="159.033203" xlink:href="#DejaVuSans-2e"/>
     <use x="190.820312" xlink:href="#DejaVuSans-30"/>
     <use x="254.443359" xlink:href="#DejaVuSans-b0"/>
    </g>
   </g>
   <g id="text_14">
    <g id="patch_15">
     <path d="M 106.184285 24.351179 
L 112.278306 25.002707 
L 112.488328 23.038277 
L 106.394308 22.38675 
z
" style="fill:#ffffff;"/>
    </g>
    <!--  14.2° -->
    <g style="fill:#008000;" transform="translate(106.250515 23.919838)rotate(-353.897541)scale(0.02 -0.02)">
     <use xlink:href="#DejaVuSans-20"/>
     <use x="31.787109" xlink:href="#DejaVuSans-31"/>
     <use x="95.410156" xlink:href="#DejaVuSans-34"/>
     <use x="159.033203" xlink:href="#DejaVuSans-2e"/>
     <use x="190.820312" xlink:href="#DejaVuSans-32"/>
     <use x="254.443359" xlink:href="#DejaVuSans-b0"/>
    </g>
   </g>
   <g id="text_15">
    <g id="patch_16">
     <path d="M 28.593499 52.627547 
L 33.936778 49.625723 
L 32.969129 47.903297 
L 27.62585 50.905121 
z
" style="fill:#ffffff;"/>
    </g>
    <!--  33.1° -->
    <g style="fill:#ff0000;" transform="translate(28.397416 52.237684)rotate(-29.32703)scale(0.02 -0.02)">
     <use xlink:href="#DejaVuSans-20"/>
     <use x="31.787109" xlink:href="#DejaVuSans-33"/>
     <use x="95.410156" xlink:href="#DejaVuSans-33"/>
     <use x="159.033203" xlink:href="#DejaVuSans-2e"/>
     <use x="190.820312" xlink:href="#DejaVuSans-31"/>
     <use x="254.443359" xlink:href="#DejaVuSans-b0"/>
    </g>
   </g>
   <g id="text_16">
    <g id="patch_17">
     <path d="M 38.051642 46.733316 
L 38.942781 40.669699 
L 36.988152 40.382437 
L 36.097013 46.446054 
z
" style="fill:#ffffff;"/>
    </g>
    <!--  30.5° -->
    <g style="fill:#ff0000;" transform="translate(37.623246 46.650141)rotate(-81.639384)scale(0.02 -0.02)">
     <use xlink:href="#DejaVuSans-20"/>
     <use x="31.787109" xlink:href="#DejaVuSans-33"/>
     <use x="95.410156" xlink:href="#DejaVuSans-30"/>
     <use x="159.033203" xlink:href="#DejaVuSans-2e"/>
     <use x="190.820312" xlink:href="#DejaVuSans-35"/>
     <use x="254.443359" xlink:href="#DejaVuSans-b0"/>
    </g>
   </g>
   <g id="text_17">
    <g id="patch_18">
     <path d="M 121.604768 93.78865 
L 124.364729 72.615274 
L 122.405678 72.359911 
L 119.645717 93.533287 
z
" style="fill:#ffffff;"/>
    </g>
    <!-- Bearcat Glades 32.6° -->
    <g style="fill:#ff0000;" transform="translate(121.175073 93.71247)rotate(-82.573338)scale(0.02 -0.02)">
     <defs>
      <path d="M 3122 3366 
L 3122 2828 
Q 2878 2963 2633 3030 
Q 2388 3097 2138 3097 
Q 1578 3097 1268 2742 
Q 959 2388 959 1747 
Q 959 1106 1268 751 
Q 1578 397 2138 397 
Q 2388 397 2633 464 
Q 2878 531 3122 666 
L 3122 134 
Q 2881 22 2623 -34 
Q 2366 -91 2075 -91 
Q 1284 -91 818 406 
Q 353 903 353 1747 
Q 353 2603 823 3093 
Q 1294 3584 2113 3584 
Q 2378 3584 2631 3529 
Q 2884 3475 3122 3366 
z
" id="DejaVuSans-63" transform="scale(0.015625)"/>
      <path d="M 2113 2584 
Q 1688 2584 1439 2293 
Q 1191 2003 1191 1497 
Q 1191 994 1439 701 
Q 1688 409 2113 409 
Q 2538 409 2786 701 
Q 3034 994 3034 1497 
Q 3034 2003 2786 2293 
Q 2538 2584 2113 2584 
z
M 3366 4563 
L 3366 3988 
Q 3128 4100 2886 4159 
Q 2644 4219 2406 4219 
Q 1781 4219 1451 3797 
Q 1122 3375 1075 2522 
Q 1259 2794 1537 2939 
Q 1816 3084 2150 3084 
Q 2853 3084 3261 2657 
Q 3669 2231 3669 1497 
Q 3669 778 3244 343 
Q 2819 -91 2113 -91 
Q 1303 -91 875 529 
Q 447 1150 447 2328 
Q 447 3434 972 4092 
Q 1497 4750 2381 4750 
Q 2619 4750 2861 4703 
Q 3103 4656 3366 4563 
z
" id="DejaVuSans-36" transform="scale(0.015625)"/>
     </defs>
     <use xlink:href="#DejaVuSans-42"/>
     <use x="68.603516" xlink:href="#DejaVuSans-65"/>
     <use x="130.126953" xlink:href="#DejaVuSans-61"/>
     <use x="191.40625" xlink:href="#DejaVuSans-72"/>
     <use x="230.269531" xlink:href="#DejaVuSans-63"/>
     <use x="285.25" xlink:href="#DejaVuSans-61"/>
     <use x="346.529297" xlink:href="#DejaVuSans-74"/>
     <use x="385.738281" xlink:href="#DejaVuSans-20"/>
     <use x="417.525391" xlink:href="#DejaVuSans-47"/>
     <use x="495.015625" xlink:href="#DejaVuSans-6c"/>
     <use x="522.798828" xlink:href="#DejaVuSans-61"/>
     <use x="584.078125" xlink:href="#DejaVuSans-64"/>
     <use x="647.554688" xlink:href="#DejaVuSans-65"/>
     <use x="709.078125" xlink:href="#DejaVuSans-73"/>
     <use x="761.177734" xlink:href="#DejaVuSans-20"/>
     <use x="792.964844" xlink:href="#DejaVuSans-33"/>
     <use x="856.587891" xlink:href="#DejaVuSans-32"/>
     <use x="920.210938" xlink:href="#DejaVuSans-2e"/>
     <use x="951.998047" xlink:href="#DejaVuSans-36"/>
     <use x="1015.621094" xlink:href="#DejaVuSans-b0"/>
    </g>
   </g>
   <g id="text_18">
    <g id="patch_19">
     <path d="M 130.393355 49.497145 
L 132.201953 35.772044 
L 130.24326 35.513941 
L 128.434663 49.239042 
z
" style="fill:#ffffff;"/>
    </g>
    <!-- Bearcat 37.8° -->
    <g style="fill:#ff0000;" transform="translate(129.963767 49.420364)rotate(-82.493213)scale(0.02 -0.02)">
     <defs>
      <path d="M 2034 2216 
Q 1584 2216 1326 1975 
Q 1069 1734 1069 1313 
Q 1069 891 1326 650 
Q 1584 409 2034 409 
Q 2484 409 2743 651 
Q 3003 894 3003 1313 
Q 3003 1734 2745 1975 
Q 2488 2216 2034 2216 
z
M 1403 2484 
Q 997 2584 770 2862 
Q 544 3141 544 3541 
Q 544 4100 942 4425 
Q 1341 4750 2034 4750 
Q 2731 4750 3128 4425 
Q 3525 4100 3525 3541 
Q 3525 3141 3298 2862 
Q 3072 2584 2669 2484 
Q 3125 2378 3379 2068 
Q 3634 1759 3634 1313 
Q 3634 634 3220 271 
Q 2806 -91 2034 -91 
Q 1263 -91 848 271 
Q 434 634 434 1313 
Q 434 1759 690 2068 
Q 947 2378 1403 2484 
z
M 1172 3481 
Q 1172 3119 1398 2916 
Q 1625 2713 2034 2713 
Q 2441 2713 2670 2916 
Q 2900 3119 2900 3481 
Q 2900 3844 2670 4047 
Q 2441 4250 2034 4250 
Q 1625 4250 1398 4047 
Q 1172 3844 1172 3481 
z
" id="DejaVuSans-38" transform="scale(0.015625)"/>
     </defs>
     <use xlink:href="#DejaVuSans-42"/>
     <use x="68.603516" xlink:href="#DejaVuSans-65"/>
     <use x="130.126953" xlink:href="#DejaVuSans-61"/>
     <use x="191.40625" xlink:href="#DejaVuSans-72"/>
     <use x="230.269531" xlink:href="#DejaVuSans-63"/>
     <use x="285.25" xlink:href="#DejaVuSans-61"/>
     <use x="346.529297" xlink:href="#DejaVuSans-74"/>
     <use x="385.738281" xlink:href="#DejaVuSans-20"/>
     <use x="417.525391" xlink:href="#DejaVuSans-33"/>
     <use x="481.148438" xlink:href="#DejaVuSans-37"/>
     <use x="544.771484" xlink:href="#DejaVuSans-2e"/>
     <use x="576.558594" xlink:href="#DejaVuSans-38"/>
     <use x="640.181641" xlink:href="#DejaVuSans-b0"/>
    </g>
   </g>
   <g id="text_19">
    <g id="patch_20">
     <path d="M 76.399671 27.74631 
L 87.626759 38.136059 
L 88.968618 36.686056 
L 77.74153 26.296307 
z
" style="fill:#ffffff;"/>
    </g>
    <!-- Belly Roll 37.0° -->
    <g style="fill:#ff0000;" transform="translate(76.710442 27.439939)rotate(-317.218269)scale(0.02 -0.02)">
     <use xlink:href="#DejaVuSans-42"/>
     <use x="68.603516" xlink:href="#DejaVuSans-65"/>
     <use x="130.126953" xlink:href="#DejaVuSans-6c"/>
     <use x="157.910156" xlink:href="#DejaVuSans-6c"/>
     <use x="185.693359" xlink:href="#DejaVuSans-79"/>
     <use x="244.873047" xlink:href="#DejaVuSans-20"/>
     <use x="276.660156" xlink:href="#DejaVuSans-52"/>
     <use x="341.642578" xlink:href="#DejaVuSans-6f"/>
     <use x="402.824219" xlink:href="#DejaVuSans-6c"/>
     <use x="430.607422" xlink:href="#DejaVuSans-6c"/>
     <use x="458.390625" xlink:href="#DejaVuSans-20"/>
     <use x="490.177734" xlink:href="#DejaVuSans-33"/>
     <use x="553.800781" xlink:href="#DejaVuSans-37"/>
     <use x="617.423828" xlink:href="#DejaVuSans-2e"/>
     <use x="649.210938" xlink:href="#DejaVuSans-30"/>
     <use x="712.833984" xlink:href="#DejaVuSans-b0"/>
    </g>
   </g>
   <g id="text_20">
    <g id="patch_21">
     <path d="M 88.1453 45.740909 
L 94.364888 59.716284 
L 96.169839 58.913011 
L 89.95025 44.937636 
z
" style="fill:#ffffff;"/>
    </g>
    <!-- Belly Roll 32.5° -->
    <g style="fill:#ff0000;" transform="translate(88.551709 45.581933)rotate(-293.990934)scale(0.02 -0.02)">
     <use xlink:href="#DejaVuSans-42"/>
     <use x="68.603516" xlink:href="#DejaVuSans-65"/>
     <use x="130.126953" xlink:href="#DejaVuSans-6c"/>
     <use x="157.910156" xlink:href="#DejaVuSans-6c"/>
     <use x="185.693359" xlink:href="#DejaVuSans-79"/>
     <use x="244.873047" xlink:href="#DejaVuSans-20"/>
     <use x="276.660156" xlink:href="#DejaVuSans-52"/>
     <use x="341.642578" xlink:href="#DejaVuSans-6f"/>
     <use x="402.824219" xlink:href="#DejaVuSans-6c"/>
     <use x="430.607422" xlink:href="#DejaVuSans-6c"/>
     <use x="458.390625" xlink:href="#DejaVuSans-20"/>
     <use x="490.177734" xlink:href="#DejaVuSans-33"/>
     <use x="553.800781" xlink:href="#DejaVuSans-32"/>
     <use x="617.423828" xlink:href="#DejaVuSans-2e"/>
     <use x="649.210938" xlink:href="#DejaVuSans-35"/>
     <use x="712.833984" xlink:href="#DejaVuSans-b0"/>
    </g>
   </g>
   <g id="text_21">
    <g id="patch_22">
     <path d="M 51.174854 38.353117 
L 51.827094 47.435978 
L 53.797645 47.294473 
L 53.145405 38.211611 
z
" style="fill:#ffffff;"/>
    </g>
    <!-- Elk 30.1° -->
    <g style="fill:#ff0000;" transform="translate(51.611104 38.341841)rotate(-274.107361)scale(0.02 -0.02)">
     <defs>
      <path d="M 581 4863 
L 1159 4863 
L 1159 1991 
L 2875 3500 
L 3609 3500 
L 1753 1863 
L 3688 0 
L 2938 0 
L 1159 1709 
L 1159 0 
L 581 0 
L 581 4863 
z
" id="DejaVuSans-6b" transform="scale(0.015625)"/>
     </defs>
     <use xlink:href="#DejaVuSans-45"/>
     <use x="63.183594" xlink:href="#DejaVuSans-6c"/>
     <use x="90.966797" xlink:href="#DejaVuSans-6b"/>
     <use x="148.876953" xlink:href="#DejaVuSans-20"/>
     <use x="180.664062" xlink:href="#DejaVuSans-33"/>
     <use x="244.287109" xlink:href="#DejaVuSans-30"/>
     <use x="307.910156" xlink:href="#DejaVuSans-2e"/>
     <use x="339.697266" xlink:href="#DejaVuSans-31"/>
     <use x="403.320312" xlink:href="#DejaVuSans-b0"/>
    </g>
   </g>
   <g id="text_22">
    <g id="patch_23">
     <path d="M 54.686071 74.668984 
L 59.412198 89.675809 
L 61.296583 89.082356 
L 56.570456 74.075531 
z
" style="fill:#ffffff;"/>
    </g>
    <!-- Lower Elk 24.6° -->
    <g transform="translate(55.107884 74.557111)rotate(-287.480874)scale(0.02 -0.02)">
     <defs>
      <path d="M 269 3500 
L 844 3500 
L 1563 769 
L 2278 3500 
L 2956 3500 
L 3675 769 
L 4391 3500 
L 4966 3500 
L 4050 0 
L 3372 0 
L 2619 2869 
L 1863 0 
L 1184 0 
L 269 3500 
z
" id="DejaVuSans-77" transform="scale(0.015625)"/>
     </defs>
     <use xlink:href="#DejaVuSans-4c"/>
     <use x="53.962891" xlink:href="#DejaVuSans-6f"/>
     <use x="115.144531" xlink:href="#DejaVuSans-77"/>
     <use x="196.931641" xlink:href="#DejaVuSans-65"/>
     <use x="258.455078" xlink:href="#DejaVuSans-72"/>
     <use x="299.568359" xlink:href="#DejaVuSans-20"/>
     <use x="331.355469" xlink:href="#DejaVuSans-45"/>
     <use x="394.539062" xlink:href="#DejaVuSans-6c"/>
     <use x="422.322266" xlink:href="#DejaVuSans-6b"/>
     <use x="480.232422" xlink:href="#DejaVuSans-20"/>
     <use x="512.019531" xlink:href="#DejaVuSans-32"/>
     <use x="575.642578" xlink:href="#DejaVuSans-34"/>
     <use x="639.265625" xlink:href="#DejaVuSans-2e"/>
     <use x="671.052734" xlink:href="#DejaVuSans-36"/>
     <use x="734.675781" xlink:href="#DejaVuSans-b0"/>
    </g>
   </g>
   <g id="text_23">
    <g id="patch_24">
     <path d="M 41.692918 33.170934 
L 56.603896 28.813268 
L 56.049709 26.916963 
L 41.138731 31.27463 
z
" style="fill:#ffffff;"/>
    </g>
    <!-- Slow Trail 22.7° -->
    <g style="fill:#4169e1;" transform="translate(41.589829 32.746889)rotate(-16.290765)scale(0.02 -0.02)">
     <use xlink:href="#DejaVuSans-53"/>
     <use x="63.476562" xlink:href="#DejaVuSans-6c"/>
     <use x="91.259766" xlink:href="#DejaVuSans-6f"/>
     <use x="152.441406" xlink:href="#DejaVuSans-77"/>
     <use x="234.228516" xlink:href="#DejaVuSans-20"/>
     <use x="266.015625" xlink:href="#DejaVuSans-54"/>
     <use x="312.349609" xlink:href="#DejaVuSans-72"/>
     <use x="353.462891" xlink:href="#DejaVuSans-61"/>
     <use x="414.742188" xlink:href="#DejaVuSans-69"/>
     <use x="442.525391" xlink:href="#DejaVuSans-6c"/>
     <use x="470.308594" xlink:href="#DejaVuSans-20"/>
     <use x="502.095703" xlink:href="#DejaVuSans-32"/>
     <use x="565.71875" xlink:href="#DejaVuSans-32"/>
     <use x="629.341797" xlink:href="#DejaVuSans-2e"/>
     <use x="661.128906" xlink:href="#DejaVuSans-37"/>
     <use x="724.751953" xlink:href="#DejaVuSans-b0"/>
    </g>
   </g>
   <g id="text_24">
    <g id="patch_25">
     <path d="M 7.016295 78.240115 
L 8.573818 57.839484 
L 6.603925 57.689089 
L 5.046403 78.08972 
z
" style="fill:#ffffff;"/>
    </g>
    <!-- Flying Squirrel 28.9° -->
    <g transform="translate(6.583145 78.186987)rotate(-85.634122)scale(0.02 -0.02)">
     <defs>
      <path d="M 628 4666 
L 3309 4666 
L 3309 4134 
L 1259 4134 
L 1259 2759 
L 3109 2759 
L 3109 2228 
L 1259 2228 
L 1259 0 
L 628 0 
L 628 4666 
z
" id="DejaVuSans-46" transform="scale(0.015625)"/>
      <path d="M 947 1747 
Q 947 1113 1208 752 
Q 1469 391 1925 391 
Q 2381 391 2643 752 
Q 2906 1113 2906 1747 
Q 2906 2381 2643 2742 
Q 2381 3103 1925 3103 
Q 1469 3103 1208 2742 
Q 947 2381 947 1747 
z
M 2906 525 
Q 2725 213 2448 61 
Q 2172 -91 1784 -91 
Q 1150 -91 751 415 
Q 353 922 353 1747 
Q 353 2572 751 3078 
Q 1150 3584 1784 3584 
Q 2172 3584 2448 3432 
Q 2725 3281 2906 2969 
L 2906 3500 
L 3481 3500 
L 3481 -1331 
L 2906 -1331 
L 2906 525 
z
" id="DejaVuSans-71" transform="scale(0.015625)"/>
     </defs>
     <use xlink:href="#DejaVuSans-46"/>
     <use x="57.519531" xlink:href="#DejaVuSans-6c"/>
     <use x="85.302734" xlink:href="#DejaVuSans-79"/>
     <use x="144.482422" xlink:href="#DejaVuSans-69"/>
     <use x="172.265625" xlink:href="#DejaVuSans-6e"/>
     <use x="235.644531" xlink:href="#DejaVuSans-67"/>
     <use x="299.121094" xlink:href="#DejaVuSans-20"/>
     <use x="330.908203" xlink:href="#DejaVuSans-53"/>
     <use x="394.384766" xlink:href="#DejaVuSans-71"/>
     <use x="457.861328" xlink:href="#DejaVuSans-75"/>
     <use x="521.240234" xlink:href="#DejaVuSans-69"/>
     <use x="549.023438" xlink:href="#DejaVuSans-72"/>
     <use x="588.386719" xlink:href="#DejaVuSans-72"/>
     <use x="627.25" xlink:href="#DejaVuSans-65"/>
     <use x="688.773438" xlink:href="#DejaVuSans-6c"/>
     <use x="716.556641" xlink:href="#DejaVuSans-20"/>
     <use x="748.34375" xlink:href="#DejaVuSans-32"/>
     <use x="811.966797" xlink:href="#DejaVuSans-38"/>
     <use x="875.589844" xlink:href="#DejaVuSans-2e"/>
     <use x="907.376953" xlink:href="#DejaVuSans-39"/>
     <use x="971" xlink:href="#DejaVuSans-b0"/>
    </g>
   </g>
   <g id="text_25">
    <g id="patch_26">
     <path d="M 8.212171 60.574659 
L 13.842952 71.817845 
L 15.609427 70.933164 
L 9.978646 59.689978 
z
" style="fill:#ffffff;"/>
    </g>
    <!-- Moose 29.9° -->
    <g transform="translate(8.610914 60.39733)rotate(-296.602496)scale(0.02 -0.02)">
     <defs>
      <path d="M 628 4666 
L 1569 4666 
L 2759 1491 
L 3956 4666 
L 4897 4666 
L 4897 0 
L 4281 0 
L 4281 4097 
L 3078 897 
L 2444 897 
L 1241 4097 
L 1241 0 
L 628 0 
L 628 4666 
z
" id="DejaVuSans-4d" transform="scale(0.015625)"/>
     </defs>
     <use xlink:href="#DejaVuSans-4d"/>
     <use x="86.279297" xlink:href="#DejaVuSans-6f"/>
     <use x="147.460938" xlink:href="#DejaVuSans-6f"/>
     <use x="208.642578" xlink:href="#DejaVuSans-73"/>
     <use x="260.742188" xlink:href="#DejaVuSans-65"/>
     <use x="322.265625" xlink:href="#DejaVuSans-20"/>
     <use x="354.052734" xlink:href="#DejaVuSans-32"/>
     <use x="417.675781" xlink:href="#DejaVuSans-39"/>
     <use x="481.298828" xlink:href="#DejaVuSans-2e"/>
     <use x="513.085938" xlink:href="#DejaVuSans-39"/>
     <use x="576.708984" xlink:href="#DejaVuSans-b0"/>
    </g>
   </g>
   <g id="text_26">
    <g id="patch_27">
     <path d="M 16.788314 79.721249 
L 20.791454 92.052101 
L 22.670537 91.442067 
L 18.667397 79.111216 
z
" style="fill:#ffffff;"/>
    </g>
    <!-- Towers 20.4° -->
    <g style="fill:#4169e1;" transform="translate(17.209124 79.605663)rotate(-287.985722)scale(0.02 -0.02)">
     <use xlink:href="#DejaVuSans-54"/>
     <use x="44.083984" xlink:href="#DejaVuSans-6f"/>
     <use x="105.265625" xlink:href="#DejaVuSans-77"/>
     <use x="187.052734" xlink:href="#DejaVuSans-65"/>
     <use x="248.576172" xlink:href="#DejaVuSans-72"/>
     <use x="289.689453" xlink:href="#DejaVuSans-73"/>
     <use x="341.789062" xlink:href="#DejaVuSans-20"/>
     <use x="373.576172" xlink:href="#DejaVuSans-32"/>
     <use x="437.199219" xlink:href="#DejaVuSans-30"/>
     <use x="500.822266" xlink:href="#DejaVuSans-2e"/>
     <use x="532.609375" xlink:href="#DejaVuSans-34"/>
     <use x="596.232422" xlink:href="#DejaVuSans-b0"/>
    </g>
   </g>
   <g id="text_27">
    <g id="patch_28">
     <path d="M 27.809808 115.307972 
L 36.587851 136.020265 
L 38.406859 135.249354 
L 29.628816 114.537061 
z
" style="fill:#ffffff;"/>
    </g>
    <!-- Snake River Run 23.1° -->
    <g style="fill:#4169e1;" transform="translate(28.218991 115.156278)rotate(-292.967636)scale(0.02 -0.02)">
     <defs>
      <path d="M 191 3500 
L 800 3500 
L 1894 563 
L 2988 3500 
L 3597 3500 
L 2284 0 
L 1503 0 
L 191 3500 
z
" id="DejaVuSans-76" transform="scale(0.015625)"/>
     </defs>
     <use xlink:href="#DejaVuSans-53"/>
     <use x="63.476562" xlink:href="#DejaVuSans-6e"/>
     <use x="126.855469" xlink:href="#DejaVuSans-61"/>
     <use x="188.134766" xlink:href="#DejaVuSans-6b"/>
     <use x="242.419922" xlink:href="#DejaVuSans-65"/>
     <use x="303.943359" xlink:href="#DejaVuSans-20"/>
     <use x="335.730469" xlink:href="#DejaVuSans-52"/>
     <use x="405.212891" xlink:href="#DejaVuSans-69"/>
     <use x="432.996094" xlink:href="#DejaVuSans-76"/>
     <use x="492.175781" xlink:href="#DejaVuSans-65"/>
     <use x="553.699219" xlink:href="#DejaVuSans-72"/>
     <use x="594.8125" xlink:href="#DejaVuSans-20"/>
     <use x="626.599609" xlink:href="#DejaVuSans-52"/>
     <use x="691.582031" xlink:href="#DejaVuSans-75"/>
     <use x="754.960938" xlink:href="#DejaVuSans-6e"/>
     <use x="818.339844" xlink:href="#DejaVuSans-20"/>
     <use x="850.126953" xlink:href="#DejaVuSans-32"/>
     <use x="913.75" xlink:href="#DejaVuSans-33"/>
     <use x="977.373047" xlink:href="#DejaVuSans-2e"/>
     <use x="1009.160156" xlink:href="#DejaVuSans-31"/>
     <use x="1072.783203" xlink:href="#DejaVuSans-b0"/>
    </g>
   </g>
   <g id="text_28">
    <g id="patch_29">
     <path d="M 13.672484 111.144195 
L 23.753445 107.94349 
L 23.155594 106.060495 
L 13.074633 109.2612 
z
" style="fill:#ffffff;"/>
    </g>
    <!-- Cats 18.5° -->
    <g style="fill:#4169e1;" transform="translate(13.559625 110.722645)rotate(-17.614643)scale(0.02 -0.02)">
     <use xlink:href="#DejaVuSans-43"/>
     <use x="69.824219" xlink:href="#DejaVuSans-61"/>
     <use x="131.103516" xlink:href="#DejaVuSans-74"/>
     <use x="170.3125" xlink:href="#DejaVuSans-73"/>
     <use x="222.412109" xlink:href="#DejaVuSans-20"/>
     <use x="254.199219" xlink:href="#DejaVuSans-31"/>
     <use x="317.822266" xlink:href="#DejaVuSans-38"/>
     <use x="381.445312" xlink:href="#DejaVuSans-2e"/>
     <use x="413.232422" xlink:href="#DejaVuSans-35"/>
     <use x="476.855469" xlink:href="#DejaVuSans-b0"/>
    </g>
   </g>
   <g id="text_29">
    <g id="patch_30">
     <path d="M 40.017055 108.778912 
L 53.670672 113.694621 
L 54.339904 111.835798 
L 40.686287 106.920089 
z
" style="fill:#ffffff;"/>
    </g>
    <!-- Turnpike 16.0° -->
    <g style="fill:#008000;" transform="translate(40.183544 108.375522)rotate(-340.199611)scale(0.02 -0.02)">
     <use xlink:href="#DejaVuSans-54"/>
     <use x="45.958984" xlink:href="#DejaVuSans-75"/>
     <use x="109.337891" xlink:href="#DejaVuSans-72"/>
     <use x="148.701172" xlink:href="#DejaVuSans-6e"/>
     <use x="212.080078" xlink:href="#DejaVuSans-70"/>
     <use x="275.556641" xlink:href="#DejaVuSans-69"/>
     <use x="303.339844" xlink:href="#DejaVuSans-6b"/>
     <use x="357.625" xlink:href="#DejaVuSans-65"/>
     <use x="419.148438" xlink:href="#DejaVuSans-20"/>
     <use x="450.935547" xlink:href="#DejaVuSans-31"/>
     <use x="514.558594" xlink:href="#DejaVuSans-36"/>
     <use x="578.181641" xlink:href="#DejaVuSans-2e"/>
     <use x="609.96875" xlink:href="#DejaVuSans-30"/>
     <use x="673.591797" xlink:href="#DejaVuSans-b0"/>
    </g>
   </g>
   <g id="text_30">
    <g id="patch_31">
     <path d="M 40.615631 126.904846 
L 58.041765 125.452358 
L 57.877664 123.48356 
L 40.45153 124.936049 
z
" style="fill:#ffffff;"/>
    </g>
    <!-- Return Trail 14.4° -->
    <g style="fill:#008000;" transform="translate(40.599352 126.468754)rotate(-4.764658)scale(0.02 -0.02)">
     <use xlink:href="#DejaVuSans-52"/>
     <use x="64.982422" xlink:href="#DejaVuSans-65"/>
     <use x="126.505859" xlink:href="#DejaVuSans-74"/>
     <use x="165.714844" xlink:href="#DejaVuSans-75"/>
     <use x="229.09375" xlink:href="#DejaVuSans-72"/>
     <use x="268.457031" xlink:href="#DejaVuSans-6e"/>
     <use x="331.835938" xlink:href="#DejaVuSans-20"/>
     <use x="363.623047" xlink:href="#DejaVuSans-54"/>
     <use x="409.957031" xlink:href="#DejaVuSans-72"/>
     <use x="451.070312" xlink:href="#DejaVuSans-61"/>
     <use x="512.349609" xlink:href="#DejaVuSans-69"/>
     <use x="540.132812" xlink:href="#DejaVuSans-6c"/>
     <use x="567.916016" xlink:href="#DejaVuSans-20"/>
     <use x="599.703125" xlink:href="#DejaVuSans-31"/>
     <use x="663.326172" xlink:href="#DejaVuSans-34"/>
     <use x="726.949219" xlink:href="#DejaVuSans-2e"/>
     <use x="758.736328" xlink:href="#DejaVuSans-34"/>
     <use x="822.359375" xlink:href="#DejaVuSans-b0"/>
    </g>
   </g>
   <g id="text_31">
    <g id="patch_32">
     <path d="M 64.985554 125.236266 
L 76.292071 136.092079 
L 77.660357 134.666986 
L 66.353839 123.811173 
z
" style="fill:#ffffff;"/>
    </g>
    <!-- Jump Run 23.7° -->
    <g style="fill:#4169e1;" transform="translate(65.301903 124.935659)rotate(-316.165035)scale(0.02 -0.02)">
     <defs>
      <path d="M 628 4666 
L 1259 4666 
L 1259 325 
Q 1259 -519 939 -900 
Q 619 -1281 -91 -1281 
L -331 -1281 
L -331 -750 
L -134 -750 
Q 284 -750 456 -515 
Q 628 -281 628 325 
L 628 4666 
z
" id="DejaVuSans-4a" transform="scale(0.015625)"/>
     </defs>
     <use xlink:href="#DejaVuSans-4a"/>
     <use x="29.492188" xlink:href="#DejaVuSans-75"/>
     <use x="92.871094" xlink:href="#DejaVuSans-6d"/>
     <use x="190.283203" xlink:href="#DejaVuSans-70"/>
     <use x="253.759766" xlink:href="#DejaVuSans-20"/>
     <use x="285.546875" xlink:href="#DejaVuSans-52"/>
     <use x="350.529297" xlink:href="#DejaVuSans-75"/>
     <use x="413.908203" xlink:href="#DejaVuSans-6e"/>
     <use x="477.287109" xlink:href="#DejaVuSans-20"/>
     <use x="509.074219" xlink:href="#DejaVuSans-32"/>
     <use x="572.697266" xlink:href="#DejaVuSans-33"/>
     <use x="636.320312" xlink:href="#DejaVuSans-2e"/>
     <use x="668.107422" xlink:href="#DejaVuSans-37"/>
     <use x="731.730469" xlink:href="#DejaVuSans-b0"/>
    </g>
   </g>
   <g id="text_32">
    <!-- Snow King Mountain -->
    <g transform="translate(22.794165 9.440592)scale(0.09 -0.09)">
     <use xlink:href="#DejaVuSans-53"/>
     <use x="63.476562" xlink:href="#DejaVuSans-6e"/>
     <use x="126.855469" xlink:href="#DejaVuSans-6f"/>
     <use x="188.037109" xlink:href="#DejaVuSans-77"/>
     <use x="269.824219" xlink:href="#DejaVuSans-20"/>
     <use x="301.611328" xlink:href="#DejaVuSans-4b"/>
     <use x="367.1875" xlink:href="#DejaVuSans-69"/>
     <use x="394.970703" xlink:href="#DejaVuSans-6e"/>
     <use x="458.349609" xlink:href="#DejaVuSans-67"/>
     <use x="521.826172" xlink:href="#DejaVuSans-20"/>
     <use x="553.613281" xlink:href="#DejaVuSans-4d"/>
     <use x="639.892578" xlink:href="#DejaVuSans-6f"/>
     <use x="701.074219" xlink:href="#DejaVuSans-75"/>
     <use x="764.453125" xlink:href="#DejaVuSans-6e"/>
     <use x="827.832031" xlink:href="#DejaVuSans-74"/>
     <use x="867.041016" xlink:href="#DejaVuSans-61"/>
     <use x="928.320312" xlink:href="#DejaVuSans-69"/>
     <use x="956.103516" xlink:href="#DejaVuSans-6e"/>
    </g>
   </g>
   <g id="legend_1">
    <g id="line2d_38">
     <path d="M 5.668501 168.970372 
L 14.668501 168.970372 
" style="fill:none;stroke:#008000;stroke-linecap:square;stroke-width:0.635836;"/>
    </g>
    <g id="line2d_39"/>
    <g id="text_33">
     <!-- Easy -->
     <g transform="translate(18.268501 170.545372)scale(0.045 -0.045)">
      <use xlink:href="#DejaVuSans-45"/>
      <use x="63.183594" xlink:href="#DejaVuSans-61"/>
      <use x="124.462891" xlink:href="#DejaVuSans-73"/>
      <use x="176.5625" xlink:href="#DejaVuSans-79"/>
     </g>
    </g>
    <g id="line2d_40">
     <path d="M 5.668501 175.575528 
L 14.668501 175.575528 
" style="fill:none;stroke:#4169e1;stroke-linecap:square;stroke-width:0.635836;"/>
    </g>
    <g id="line2d_41"/>
    <g id="text_34">
     <!-- Intermediate -->
     <g transform="translate(18.268501 177.150528)scale(0.045 -0.045)">
      <defs>
       <path d="M 628 4666 
L 1259 4666 
L 1259 0 
L 628 0 
L 628 4666 
z
" id="DejaVuSans-49" transform="scale(0.015625)"/>
      </defs>
      <use xlink:href="#DejaVuSans-49"/>
      <use x="29.492188" xlink:href="#DejaVuSans-6e"/>
      <use x="92.871094" xlink:href="#DejaVuSans-74"/>
      <use x="132.080078" xlink:href="#DejaVuSans-65"/>
      <use x="193.603516" xlink:href="#DejaVuSans-72"/>
      <use x="232.966797" xlink:href="#DejaVuSans-6d"/>
      <use x="330.378906" xlink:href="#DejaVuSans-65"/>
      <use x="391.902344" xlink:href="#DejaVuSans-64"/>
      <use x="455.378906" xlink:href="#DejaVuSans-69"/>
      <use x="483.162109" xlink:href="#DejaVuSans-61"/>
      <use x="544.441406" xlink:href="#DejaVuSans-74"/>
      <use x="583.650391" xlink:href="#DejaVuSans-65"/>
     </g>
    </g>
    <g id="line2d_42">
     <path d="M 56.301939 168.970372 
L 65.301939 168.970372 
" style="fill:none;stroke:#000000;stroke-linecap:square;stroke-width:0.635836;"/>
    </g>
    <g id="line2d_43"/>
    <g id="text_35">
     <!-- Advanced -->
     <g transform="translate(68.901939 170.545372)scale(0.045 -0.045)">
      <use xlink:href="#DejaVuSans-41"/>
      <use x="66.658203" xlink:href="#DejaVuSans-64"/>
      <use x="130.134766" xlink:href="#DejaVuSans-76"/>
      <use x="189.314453" xlink:href="#DejaVuSans-61"/>
      <use x="250.59375" xlink:href="#DejaVuSans-6e"/>
      <use x="313.972656" xlink:href="#DejaVuSans-63"/>
      <use x="368.953125" xlink:href="#DejaVuSans-65"/>
      <use x="430.476562" xlink:href="#DejaVuSans-64"/>
     </g>
    </g>
    <g id="line2d_44">
     <path d="M 56.301939 175.575528 
L 65.301939 175.575528 
" style="fill:none;stroke:#ff0000;stroke-linecap:square;stroke-width:0.635836;"/>
    </g>
    <g id="line2d_45"/>
    <g id="text_36">
     <!-- Expert -->
     <g transform="translate(68.901939 177.150528)scale(0.045 -0.045)">
      <use xlink:href="#DejaVuSans-45"/>
      <use x="63.183594" xlink:href="#DejaVuSans-78"/>
      <use x="122.363281" xlink:href="#DejaVuSans-70"/>
      <use x="185.839844" xlink:href="#DejaVuSans-65"/>
      <use x="247.363281" xlink:href="#DejaVuSans-72"/>
      <use x="288.476562" xlink:href="#DejaVuSans-74"/>
     </g>
    </g>
    <g id="line2d_46">
     <path d="M 100.131235 168.970372 
L 109.131235 168.970372 
" style="fill:none;stroke:#ffd700;stroke-linecap:square;stroke-width:0.635836;"/>
    </g>
    <g id="line2d_47"/>
    <g id="text_37">
     <!-- Extreme -->
     <g transform="translate(112.731235 170.545372)scale(0.045 -0.045)">
      <use xlink:href="#DejaVuSans-45"/>
      <use x="63.183594" xlink:href="#DejaVuSans-78"/>
      <use x="122.363281" xlink:href="#DejaVuSans-74"/>
      <use x="161.572266" xlink:href="#DejaVuSans-72"/>
      <use x="200.435547" xlink:href="#DejaVuSans-65"/>
      <use x="261.958984" xlink:href="#DejaVuSans-6d"/>
      <use x="359.371094" xlink:href="#DejaVuSans-65"/>
     </g>
    </g>
    <g id="line2d_48">
     <path d="M 100.131235 175.575528 
L 109.131235 175.575528 
" style="fill:none;stroke:#000000;stroke-dasharray:0.635836,1.049129;stroke-dashoffset:0;stroke-width:0.635836;"/>
    </g>
    <g id="line2d_49"/>
    <g id="text_38">
     <!-- Gladed -->
     <g transform="translate(112.731235 177.150528)scale(0.045 -0.045)">
      <use xlink:href="#DejaVuSans-47"/>
      <use x="77.490234" xlink:href="#DejaVuSans-6c"/>
      <use x="105.273438" xlink:href="#DejaVuSans-61"/>
      <use x="166.552734" xlink:href="#DejaVuSans-64"/>
      <use x="230.029297" xlink:href="#DejaVuSans-65"/>
      <use x="291.552734" xlink:href="#DejaVuSans-64"/>
     </g>
    </g>
   </g>
  </g>
  <g id="text_39">
   <!-- Sources: USGS and OpenStreetMaps -->
   <g transform="translate(32.97566 183.432169)scale(0.03913 -0.03913)">
    <defs>
     <path d="M 750 794 
L 1409 794 
L 1409 0 
L 750 0 
L 750 794 
z
M 750 3309 
L 1409 3309 
L 1409 2516 
L 750 2516 
L 750 3309 
z
" id="DejaVuSans-3a" transform="scale(0.015625)"/>
     <path d="M 2522 4238 
Q 1834 4238 1429 3725 
Q 1025 3213 1025 2328 
Q 1025 1447 1429 934 
Q 1834 422 2522 422 
Q 3209 422 3611 934 
Q 4013 1447 4013 2328 
Q 4013 3213 3611 3725 
Q 3209 4238 2522 4238 
z
M 2522 4750 
Q 3503 4750 4090 4092 
Q 4678 3434 4678 2328 
Q 4678 1225 4090 567 
Q 3503 -91 2522 -91 
Q 1538 -91 948 565 
Q 359 1222 359 2328 
Q 359 3434 948 4092 
Q 1538 4750 2522 4750 
z
" id="DejaVuSans-4f" transform="scale(0.015625)"/>
    </defs>
    <use xlink:href="#DejaVuSans-53"/>
    <use x="63.476562" xlink:href="#DejaVuSans-6f"/>
    <use x="124.658203" xlink:href="#DejaVuSans-75"/>
    <use x="188.037109" xlink:href="#DejaVuSans-72"/>
    <use x="226.900391" xlink:href="#DejaVuSans-63"/>
    <use x="281.880859" xlink:href="#DejaVuSans-65"/>
    <use x="343.404297" xlink:href="#DejaVuSans-73"/>
    <use x="395.503906" xlink:href="#DejaVuSans-3a"/>
    <use x="429.195312" xlink:href="#DejaVuSans-20"/>
    <use x="460.982422" xlink:href="#DejaVuSans-55"/>
    <use x="534.175781" xlink:href="#DejaVuSans-53"/>
    <use x="597.652344" xlink:href="#DejaVuSans-47"/>
    <use x="675.142578" xlink:href="#DejaVuSans-53"/>
    <use x="738.619141" xlink:href="#DejaVuSans-20"/>
    <use x="770.40625" xlink:href="#DejaVuSans-61"/>
    <use x="831.685547" xlink:href="#DejaVuSans-6e"/>
    <use x="895.064453" xlink:href="#DejaVuSans-64"/>
    <use x="958.541016" xlink:href="#DejaVuSans-20"/>
    <use x="990.328125" xlink:href="#DejaVuSans-4f"/>
    <use x="1069.039062" xlink:href="#DejaVuSans-70"/>
    <use x="1132.515625" xlink:href="#DejaVuSans-65"/>
    <use x="1194.039062" xlink:href="#DejaVuSans-6e"/>
    <use x="1257.417969" xlink:href="#DejaVuSans-53"/>
    <use x="1320.894531" xlink:href="#DejaVuSans-74"/>
    <use x="1360.103516" xlink:href="#DejaVuSans-72"/>
    <use x="1398.966797" xlink:href="#DejaVuSans-65"/>
    <use x="1460.490234" xlink:href="#DejaVuSans-65"/>
    <use x="1522.013672" xlink:href="#DejaVuSans-74"/>
    <use x="1561.222656" xlink:href="#DejaVuSans-4d"/>
    <use x="1647.501953" xlink:href="#DejaVuSans-61"/>
    <use x="1708.78125" xlink:href="#DejaVuSans-70"/>
    <use x="1772.257812" xlink:href="#DejaVuSans-73"/>
   </g>
  </g>
 </g>
 <defs>
  <clipPath id="p42dc3d550b">
   <rect height="156.364777" width="137.340518" x="0" y="13.940592"/>
  </clipPath>
 </defs>
</svg>
