<?xml version="1.0" encoding="utf-8" standalone="no"?>
<!DOCTYPE svg PUBLIC "-//W3C//DTD SVG 1.1//EN"
  "http://www.w3.org/Graphics/SVG/1.1/DTD/svg11.dtd">
<svg xmlns:xlink="http://www.w3.org/1999/xlink" width="108.675667pt" height="174.660526pt" viewBox="0 0 108.675667 174.660526" xmlns="http://www.w3.org/2000/svg" version="1.1">
 <metadata>
  <rdf:RDF xmlns:dc="http://purl.org/dc/elements/1.1/" xmlns:cc="http://creativecommons.org/ns#" xmlns:rdf="http://www.w3.org/1999/02/22-rdf-syntax-ns#">
   <cc:Work>
    <dc:type rdf:resource="http://purl.org/dc/dcmitype/StillImage"/>
    <dc:date>2022-05-17T17:47:08.364975</dc:date>
    <dc:format>image/svg+xml</dc:format>
    <dc:creator>
     <cc:Agent>
      <dc:title>Matplotlib v3.5.2, https://matplotlib.org/</dc:title>
     </cc:Agent>
    </dc:creator>
   </cc:Work>
  </rdf:RDF>
 </metadata>
 <defs>
  <style type="text/css">*{stroke-linejoin: round; stroke-linecap: butt}</style>
 </defs>
 <g id="figure_1">
  <g id="patch_1">
   <path d="M 0 174.660526 
L 108.675667 174.660526 
L 108.675667 0 
L 0 0 
z
" style="fill: #ffffff"/>
  </g>
  <g id="axes_1">
   <g id="line2d_1">
    <path d="M 26.362526 48.189829 
" clip-path="url(#pe01e82d653)" style="fill: none; stroke: #008000; stroke-width: 0.001; stroke-linecap: square"/>
   </g>
   <g id="line2d_2">
    <path d="M 26.362526 48.189829 
" clip-path="url(#pe01e82d653)" style="fill: none; stroke: #4169e1; stroke-width: 0.001; stroke-linecap: square"/>
   </g>
   <g id="line2d_3">
    <path d="M 26.362526 48.189829 
" clip-path="url(#pe01e82d653)" style="fill: none; stroke: #000000; stroke-width: 0.001; stroke-linecap: square"/>
   </g>
   <g id="line2d_4">
    <path d="M 26.362526 48.189829 
" clip-path="url(#pe01e82d653)" style="fill: none; stroke: #ff0000; stroke-width: 0.001; stroke-linecap: square"/>
   </g>
   <g id="line2d_5">
    <path d="M 26.362526 48.189829 
" clip-path="url(#pe01e82d653)" style="fill: none; stroke: #ffd700; stroke-width: 0.001; stroke-linecap: square"/>
   </g>
   <g id="line2d_6">
    <path d="M 26.362526 48.189829 
" clip-path="url(#pe01e82d653)" style="fill: none; stroke-dasharray: 0.001,0.00165; stroke-dashoffset: 0; stroke: #000000; stroke-width: 0.001"/>
   </g>
   <g id="line2d_7">
    <path d="M 63.172869 134.366505 
L 62.529474 129.705256 
L 62.030552 126.08655 
L 61.531629 122.467845 
L 61.032707 118.849139 
L 60.533785 115.230433 
L 60.08763 111.99439 
L 59.641475 108.758346 
L 59.19532 105.522303 
L 58.749165 102.286259 
L 58.030076 97.073046 
L 57.310988 91.859833 
L 56.552597 86.36445 
L 55.794206 80.869067 
L 55.176285 76.387763 
L 54.558363 71.906459 
L 53.940442 67.425155 
L 53.322521 62.943851 
L 52.482614 56.856901 
L 52.004435 53.388686 
L 51.526256 49.920471 
L 50.67252 43.728574 
L 49.818784 37.536676 
L 49.347155 34.11945 
L 48.875527 30.702224 
L 47.997773 24.332114 
L 47.454817 20.393616 
" clip-path="url(#pe01e82d653)" style="fill: none; stroke: #808080; stroke-width: 0.503128; stroke-linecap: square"/>
   </g>
   <g id="line2d_8">
    <path d="M 73.839833 132.426958 
L 74.426458 127.056819 
L 74.811476 123.53712 
L 75.196494 120.017422 
L 75.650655 115.867543 
L 76.104816 111.717665 
L 76.591729 107.267301 
L 77.078642 102.816937 
L 77.67109 97.403234 
L 78.22569 92.331601 
L 78.780291 87.259968 
L 79.433148 81.287371 
L 80.086004 75.314774 
L 80.738133 69.358514 
L 81.276722 64.431926 
" clip-path="url(#pe01e82d653)" style="fill: none; stroke: #808080; stroke-width: 0.503128; stroke-linecap: square"/>
   </g>
   <g id="line2d_9">
    <path d="M 96.218914 140.835622 
L 95.339705 134.754612 
L 94.770912 130.819332 
L 94.202119 126.884052 
L 93.633326 122.948771 
L 93.064532 119.013491 
L 92.397847 114.40323 
L 91.731162 109.792969 
L 90.915273 104.151056 
L 90.099384 98.509143 
L 89.30533 93.018215 
L 88.511276 87.527287 
L 87.71431 82.011112 
L 86.917345 76.494938 
L 86.191706 71.475283 
L 85.466067 66.455629 
L 85.059942 63.649771 
" clip-path="url(#pe01e82d653)" style="fill: none; stroke: #808080; stroke-width: 0.503128; stroke-linecap: square"/>
   </g>
   <g id="line2d_10">
    <path d="M 28.580928 155.366878 
L 28.930283 150.934335 
L 29.286188 146.413676 
L 29.642093 141.893017 
L 29.920849 138.351536 
L 30.199605 134.810056 
L 30.478361 131.268576 
L 30.757117 127.727096 
L 31.184349 122.297058 
L 31.611581 116.867019 
L 32.038812 111.436981 
L 32.466044 106.006942 
L 32.813215 101.597666 
L 33.160387 97.188389 
L 33.507558 92.779113 
L 33.854729 88.369836 
L 34.30889 82.596244 
L 34.763051 76.822651 
L 35.23468 70.836193 
L 35.706309 64.849735 
L 36.167748 58.981591 
L 36.629188 53.113446 
L 36.985093 48.595262 
L 37.340998 44.077078 
L 37.604106 40.73485 
L 37.867214 37.392621 
L 38.130321 34.050393 
L 38.393429 30.708164 
L 38.768258 25.946918 
L 39.143086 21.185672 
L 39.419659 17.663993 
" clip-path="url(#pe01e82d653)" style="fill: none; stroke: #808080; stroke-width: 0.503128; stroke-linecap: square"/>
   </g>
   <g id="line2d_11">
    <path d="M 26.821054 128.518162 
L 27.056141 124.898961 
L 27.291227 121.279761 
L 27.608558 116.400696 
L 27.925888 111.521632 
L 28.283249 106.028724 
L 28.64061 100.535816 
L 28.94484 95.850805 
L 29.249069 91.165794 
L 29.594057 85.863969 
L 29.939045 80.562145 
L 30.249097 75.790503 
L 30.55915 71.018861 
L 30.938345 65.191805 
L 31.31754 59.364748 
L 31.542437 55.903959 
L 31.767335 52.443169 
L 31.994415 48.946242 
" clip-path="url(#pe01e82d653)" style="fill: none; stroke: #808080; stroke-width: 0.503128; stroke-linecap: square"/>
   </g>
   <g id="line2d_12">
    <path d="M 52.75482 50.414516 
L 52.15655 46.623662 
L 51.55828 42.832808 
L 50.96001 39.041954 
L 50.36174 35.2511 
L 49.76347 31.460246 
L 49.1652 27.669392 
L 48.56693 23.878538 
L 47.96866 20.087684 
" clip-path="url(#pe01e82d653)" style="fill: none; stroke: #808080; stroke-width: 0.503128; stroke-linecap: square"/>
   </g>
   <g id="line2d_13">
    <path d="M 26.362526 48.189829 
L 25.429458 49.397219 
L 24.496389 50.604609 
L 23.563321 51.812 
L 22.630253 53.01939 
L 22.487964 54.75028 
L 22.345674 56.481169 
L 22.203385 58.212059 
L 22.061096 59.942949 
L 21.412242 60.747876 
L 20.763389 61.552803 
L 20.114535 62.357729 
L 19.465681 63.162656 
L 18.958389 64.209408 
L 18.451097 65.256159 
L 17.943805 66.302911 
L 17.436513 67.349662 
L 17.436513 69.060255 
L 17.436513 70.770849 
L 17.436513 72.481442 
L 17.436513 74.192035 
L 16.827689 75.902628 
L 16.218866 77.613222 
L 15.610042 79.323815 
L 15.001219 81.034408 
L 14.981204 82.845741 
L 14.961189 84.657074 
L 14.941174 86.468407 
L 14.921159 88.27974 
L 15.123857 89.970285 
L 15.326556 91.660829 
L 15.529254 93.351373 
L 15.731953 95.041918 
L 15.468117 96.370096 
L 15.204282 97.698275 
L 14.940446 99.026454 
L 14.67661 100.354633 
L 14.210076 101.964734 
L 13.743542 103.574835 
L 13.277008 105.184937 
L 12.810474 106.795038 
L 13.033551 108.002676 
L 13.256629 109.210313 
L 13.479706 110.417951 
L 13.702784 111.625589 
L 13.317402 112.81293 
L 12.93202 114.000272 
L 12.546638 115.187613 
L 12.161256 116.374954 
L 12.31046 118.077132 
L 12.459663 119.77931 
L 12.608867 121.481487 
L 12.758071 123.183665 
L 12.865788 124.408382 
L 12.973506 125.633098 
L 13.886195 126.860537 
L 14.798884 128.087977 
L 15.711574 129.315416 
L 16.624263 130.542855 
L 17.151934 131.428472 
L 17.679605 132.31409 
L 18.207277 133.199708 
L 18.734948 134.085325 
L 19.789926 135.333061 
L 20.844905 136.580796 
L 21.899883 137.828532 
L 22.954862 139.076268 
L 24.374843 140.203462 
L 25.794824 141.330657 
" clip-path="url(#pe01e82d653)" style="fill: none; stroke: #008000; stroke-width: 0.503128; stroke-linecap: square"/>
   </g>
   <g id="line2d_14">
    <path d="M 32.585407 45.010714 
L 31.500224 46.510175 
L 30.415041 48.009636 
L 30.14611 49.493998 
L 29.87718 50.978361 
L 29.60825 52.462723 
L 29.339319 53.947085 
L 29.298925 55.355707 
L 29.258531 56.764329 
L 29.218137 58.172951 
L 29.177743 59.581573 
L 28.731588 61.222119 
L 28.285433 62.862665 
L 27.925342 63.934354 
L 27.565252 65.006043 
L 27.205162 66.077731 
L 26.845072 67.14942 
L 26.484982 68.221109 
L 26.124892 69.292798 
L 25.764802 70.364487 
L 25.404712 71.436176 
L 25.044622 72.507864 
L 24.684531 73.579553 
L 24.324441 74.651242 
L 23.964351 75.722931 
L 23.604261 76.79462 
L 23.244171 77.866308 
L 22.884081 78.937997 
L 22.523991 80.009686 
L 22.749616 81.511498 
L 22.975241 83.013311 
L 23.200866 84.515123 
L 23.426491 86.016935 
L 23.652115 87.518748 
L 23.87774 89.02056 
L 24.103365 90.522372 
L 24.32899 92.024185 
L 23.897756 93.15633 
L 23.466521 94.288474 
L 23.035286 95.420619 
L 22.604051 96.552764 
L 22.522899 97.699884 
L 22.441747 98.847004 
L 22.360595 99.994124 
L 22.279443 101.141243 
L 22.19829 102.288363 
L 22.117138 103.435483 
L 22.035986 104.582603 
L 21.954834 105.729723 
L 21.569452 107.118296 
L 21.18407 108.506869 
L 20.798688 109.895442 
L 20.413306 111.284015 
L 20.499553 112.466406 
L 20.5858 113.648797 
L 20.672047 114.831188 
L 20.758294 116.013579 
L 20.844541 117.19597 
L 20.930788 118.378361 
L 21.017035 119.560752 
L 21.103282 120.743143 
L 21.103282 121.784696 
L 21.103282 122.82625 
L 21.103282 123.867804 
L 21.103282 124.909357 
L 22.203749 125.769728 
L 23.304216 126.630099 
L 24.404684 127.490469 
L 25.505151 128.35084 
" clip-path="url(#pe01e82d653)" style="fill: none; stroke: #008000; stroke-width: 0.503128; stroke-linecap: square"/>
   </g>
   <g id="line2d_15">
    <path d="M 38.435643 18.826335 
L 38.368683 20.393121 
L 38.301724 21.959906 
L 38.234764 23.526692 
L 38.167804 25.093478 
L 38.033885 26.872881 
L 37.899966 28.652284 
L 37.766046 30.431687 
L 37.632127 32.21109 
L 37.973476 33.24002 
L 38.314824 34.268951 
L 38.656173 35.297881 
L 38.997522 36.326811 
L 38.30136 38.119333 
L 37.605198 39.911854 
L 36.909036 41.704376 
L 36.212873 43.496897 
L 35.008327 44.758246 
L 33.803782 46.019595 
" clip-path="url(#pe01e82d653)" style="fill: none; stroke: #008000; stroke-width: 0.503128; stroke-linecap: square"/>
   </g>
   <g id="line2d_16">
    <path d="M 46.655668 18.775841 
L 46.626556 20.12246 
L 46.597443 21.469079 
L 46.56833 22.815698 
L 46.539217 24.162317 
L 46.510104 25.508936 
L 46.480991 26.855555 
L 46.451878 28.202173 
L 46.422765 29.548792 
L 46.580157 30.583292 
L 46.737548 31.617791 
L 46.89494 32.65229 
L 47.052332 33.686789 
L 47.209723 34.721289 
L 47.367115 35.755788 
L 47.524506 36.790287 
L 47.681898 37.824787 
L 47.769237 38.905572 
L 47.856575 39.986357 
L 47.943914 41.067142 
L 48.031253 42.147927 
L 48.118591 43.228712 
L 48.20593 44.309497 
L 48.293269 45.390282 
L 48.380607 46.471067 
L 48.794192 47.962236 
L 49.207778 49.453406 
L 49.621363 50.944575 
L 50.034948 52.435744 
L 50.448533 53.926913 
L 50.862118 55.418082 
L 51.275703 56.909251 
L 51.689288 58.40042 
" clip-path="url(#pe01e82d653)" style="fill: none; stroke: #008000; stroke-width: 0.503128; stroke-linecap: square"/>
   </g>
   <g id="line2d_17">
    <path d="M 35.049813 48.125474 
L 34.906842 49.792118 
L 34.76387 51.458761 
L 34.620899 53.125405 
L 34.477927 54.792048 
L 34.334955 56.458692 
L 34.191984 58.125335 
L 34.049012 59.791979 
L 33.906041 61.458622 
L 33.763069 63.125266 
L 33.620097 64.791909 
L 33.477126 66.458553 
L 33.334154 68.125196 
L 33.191183 69.79184 
L 33.048211 71.458483 
L 32.905239 73.125127 
L 32.762268 74.79177 
L 32.619296 76.458414 
L 32.476325 78.125057 
L 32.333353 79.7917 
L 32.190381 81.458344 
L 32.04741 83.124987 
L 31.904438 84.791631 
L 31.761467 86.458274 
L 31.618495 88.124918 
L 31.475523 89.791561 
L 31.332552 91.458205 
L 31.18958 93.124848 
L 31.046609 94.791492 
L 30.903637 96.458135 
L 30.760665 98.124779 
L 30.617694 99.791422 
L 30.474722 101.458066 
L 30.331751 103.124709 
L 30.188779 104.791353 
L 30.045807 106.457996 
L 29.902836 108.12464 
L 29.759864 109.791283 
L 29.616893 111.457927 
L 29.473921 113.12457 
L 29.330949 114.791214 
L 29.187978 116.457857 
L 29.045006 118.124501 
L 28.902035 119.791144 
L 28.759063 121.457788 
L 28.616091 123.124431 
L 28.47312 124.791075 
L 28.330148 126.457718 
L 28.187176 128.124362 
L 28.044205 129.791005 
L 27.901233 131.457649 
L 27.758262 133.124292 
L 27.61529 134.790936 
L 27.472318 136.457579 
L 27.329347 138.124223 
L 27.186375 139.790866 
L 27.043404 141.45751 
L 26.900432 143.124153 
L 26.75746 144.790797 
L 26.614489 146.45744 
L 26.471517 148.124083 
L 26.328546 149.790727 
L 26.185574 151.45737 
L 26.042602 153.124014 
L 25.899631 154.790657 
" clip-path="url(#pe01e82d653)" style="fill: none; stroke: #008000; stroke-width: 0.503128; stroke-linecap: square"/>
   </g>
   <g id="line2d_18">
    <path d="M 42.805488 51.252115 
L 42.624806 52.408022 
L 42.444124 53.563928 
L 42.263443 54.719835 
L 42.082761 55.875742 
L 41.902079 57.031648 
L 41.721397 58.187555 
L 41.540715 59.343461 
L 41.360033 60.499368 
L 40.801066 62.186942 
L 40.242098 63.874516 
L 39.68313 65.562091 
L 39.124163 67.249665 
L 39.106513 68.902587 
L 39.088863 70.555508 
L 39.071214 72.20843 
L 39.053564 73.861352 
L 39.035914 75.514274 
L 39.018265 77.167195 
L 39.000615 78.820117 
L 38.982965 80.473039 
L 39.093776 81.99886 
L 39.204587 83.524682 
L 39.315398 85.050503 
L 39.426209 86.576325 
L 39.53702 88.102146 
L 39.647831 89.627968 
L 39.758642 91.153789 
L 39.869453 92.679611 
L 40.032485 93.783539 
L 40.195517 94.887467 
L 40.35855 95.991395 
L 40.521582 97.095323 
L 40.684614 98.199251 
L 40.847646 99.303179 
L 41.010678 100.407107 
L 41.173711 101.511035 
L 41.051436 102.701594 
L 40.929162 103.892153 
L 40.806888 105.082712 
L 40.684614 106.273271 
L 40.56234 107.46383 
L 40.440066 108.654389 
L 40.317791 109.844948 
L 40.195517 111.035507 
L 39.55467 111.994885 
L 38.913822 112.954263 
L 38.272975 113.91364 
L 37.632127 114.873018 
L 36.950521 116.643511 
L 36.268916 118.414003 
L 35.58731 120.184496 
L 34.905705 121.954988 
L 34.631679 123.108915 
L 34.357654 124.262841 
L 34.083629 125.416768 
L 33.809604 126.570694 
L 33.157111 127.333543 
L 32.504619 128.096392 
L 31.852126 128.859241 
L 31.199633 129.62209 
" clip-path="url(#pe01e82d653)" style="fill: none; stroke: #008000; stroke-width: 0.503128; stroke-linecap: square"/>
   </g>
   <g id="line2d_19">
    <path d="M 51.893078 62.718115 
L 51.753336 64.428956 
L 51.613594 66.139796 
L 51.473852 67.850637 
L 51.33411 69.561478 
L 51.194369 71.272319 
L 51.054627 72.98316 
L 50.914885 74.694001 
L 50.775143 76.404841 
L 50.635401 78.069273 
L 50.495659 79.733704 
L 50.355917 81.398135 
L 50.216175 83.062567 
L 50.076433 84.726998 
L 49.936692 86.391429 
L 49.79695 88.055861 
L 49.657208 89.720292 
L 49.872643 90.916668 
L 50.088079 92.113043 
L 50.303514 93.309419 
L 50.518949 94.505795 
L 50.734385 95.702171 
L 50.94982 96.898546 
L 51.165256 98.094922 
L 51.380691 99.291298 
L 51.363223 100.522326 
L 51.345756 101.753354 
L 51.328288 102.984382 
L 51.31082 104.215411 
L 51.293352 105.446439 
L 51.275885 106.677467 
L 51.258417 107.908495 
L 51.240949 109.139523 
L 52.010621 110.592203 
L 52.780293 112.044884 
L 53.549966 113.497564 
L 54.319638 114.950244 
L 54.584201 116.328916 
L 54.848765 117.707588 
L 55.113328 119.086261 
L 55.377891 120.464933 
L 54.996149 122.372798 
L 54.614406 124.280663 
L 54.232663 126.188527 
L 53.85092 128.096392 
" clip-path="url(#pe01e82d653)" style="fill: none; stroke: #008000; stroke-width: 0.503128; stroke-linecap: square"/>
   </g>
   <g id="line2d_20">
    <path d="M 40.754485 113.532464 
L 41.372042 114.954204 
L 41.989599 116.375944 
L 42.607157 117.797685 
L 43.224714 119.219425 
L 44.296796 120.259741 
L 45.368879 121.300057 
L 46.440961 122.340373 
L 47.513043 123.380689 
L 48.188826 124.340067 
L 48.864609 125.299445 
L 49.540392 126.258822 
L 50.216175 127.2182 
L 52.033548 127.657296 
L 53.85092 128.096392 
" clip-path="url(#pe01e82d653)" style="fill: none; stroke: #008000; stroke-width: 0.503128; stroke-linecap: square"/>
   </g>
   <g id="line2d_21">
    <path d="M 60.178608 70.340663 
L 60.091633 71.535678 
L 60.004658 72.730692 
L 59.917683 73.925706 
L 59.830709 75.120721 
L 59.743734 76.315735 
L 59.656759 77.51075 
L 59.569784 78.705764 
L 59.482809 79.900778 
L 59.38237 81.281678 
L 59.28193 82.662578 
L 59.181491 84.043478 
L 59.081052 85.424378 
L 58.980612 86.805278 
L 58.880173 88.186179 
L 58.779733 89.567079 
L 58.679294 90.947979 
L 58.538824 92.189526 
L 58.398354 93.431074 
L 58.257884 94.672622 
L 58.117415 95.914169 
L 57.976945 97.155717 
L 57.836475 98.397265 
L 57.696006 99.638812 
L 57.555536 100.88036 
L 57.475112 102.606299 
L 57.394687 104.332239 
L 57.314263 106.058178 
L 57.233838 107.784118 
L 56.92597 109.390754 
L 56.618101 110.99739 
L 56.310232 112.604026 
L 56.002363 114.210661 
L 55.733433 115.946378 
L 55.464502 117.682094 
L 55.195572 119.41781 
L 54.926642 121.153527 
L 54.657711 122.889243 
L 54.388781 124.624959 
L 54.119851 126.360676 
L 53.85092 128.096392 
" clip-path="url(#pe01e82d653)" style="fill: none; stroke: #008000; stroke-width: 0.503128; stroke-linecap: square"/>
   </g>
   <g id="line2d_22">
    <path d="M 84.537366 60.302344 
L 82.723814 60.209401 
L 80.910263 60.116459 
L 79.096712 60.023516 
L 77.28316 59.930573 
L 75.469609 59.83763 
L 73.656058 59.744687 
L 71.842507 59.651745 
L 70.028955 59.558802 
" clip-path="url(#pe01e82d653)" style="fill: none; stroke: #008000; stroke-width: 0.503128; stroke-linecap: square"/>
   </g>
   <g id="line2d_23">
    <path d="M 53.85092 128.096392 
L 53.35964 129.62506 
L 52.86836 131.153728 
L 52.731529 132.244538 
L 52.594699 133.335347 
L 52.457868 134.426157 
L 52.321038 135.516966 
L 51.464391 137.075831 
L 50.607744 138.634696 
L 49.861726 139.410169 
L 49.115708 140.185641 
L 48.36969 140.961113 
L 47.623672 141.736585 
L 46.625828 142.445971 
L 45.627983 143.155356 
L 44.630139 143.864741 
L 43.632294 144.574126 
L 42.078394 145.099853 
L 40.524493 145.62558 
L 39.813411 146.501545 
L 39.102328 147.377509 
L 38.391246 148.253473 
L 37.680163 149.129438 
L 36.867914 150.548703 
L 36.055664 151.967968 
L 35.243414 153.387233 
L 34.431164 154.806499 
L 33.177126 155.901516 
L 31.923089 156.996533 
L 30.757845 156.882675 
L 29.592601 156.768817 
" clip-path="url(#pe01e82d653)" style="fill: none; stroke: #008000; stroke-width: 0.503128; stroke-linecap: square"/>
   </g>
   <g id="line2d_24">
    <path d="M 54.846581 63.659671 
L 54.930281 65.027205 
L 55.01398 66.394739 
L 55.09768 67.762274 
L 55.181379 69.129808 
L 55.288369 70.454274 
L 55.395359 71.77874 
L 55.502349 73.103206 
L 55.609339 74.427672 
" clip-path="url(#pe01e82d653)" style="fill: none; stroke: #4169e1; stroke-width: 0.503128; stroke-linecap: square"/>
   </g>
   <g id="line2d_25">
    <path d="M 65.273364 64.242823 
L 64.401069 65.510855 
L 63.528774 66.778887 
L 62.656479 68.046919 
L 61.784184 69.314951 
" clip-path="url(#pe01e82d653)" style="fill: none; stroke: #008000; stroke-width: 0.503128; stroke-linecap: square"/>
   </g>
   <g id="line2d_26">
    <path d="M 78.176199 64.686374 
L 77.141599 65.642286 
L 76.107 66.598199 
L 75.0724 67.554111 
L 74.037801 68.510024 
L 73.003201 69.606774 
L 71.968602 70.703524 
L 70.934002 71.800274 
L 69.899403 72.897024 
L 69.52421 74.154908 
L 69.149018 75.412791 
L 68.773826 76.670675 
L 68.398633 77.928559 
L 68.41883 78.955014 
L 68.439027 79.981469 
L 68.459224 81.007924 
L 68.479421 82.034379 
L 68.499618 83.060834 
L 68.519816 84.087289 
L 68.540013 85.113744 
L 68.56021 86.140199 
L 68.631172 87.750053 
L 68.702135 89.359906 
L 68.773098 90.96976 
L 68.84406 92.579614 
L 68.935402 94.14937 
L 69.026744 95.719126 
L 69.118086 97.288881 
L 69.209427 98.858637 
L 68.996539 100.730364 
L 68.783651 102.602092 
L 68.570763 104.473819 
L 68.357875 106.345546 
L 67.881151 107.854908 
L 67.404428 109.364269 
L 66.927704 110.873631 
L 66.450981 112.382992 
L 66.623474 113.449793 
L 66.795968 114.516593 
L 66.968462 115.583393 
L 67.140956 116.650194 
L 67.648066 117.525663 
L 68.155177 118.401132 
L 68.662287 119.276602 
L 69.169397 120.152071 
L 69.676507 121.02754 
L 70.183617 121.90301 
L 70.690728 122.778479 
L 71.197838 123.653948 
L 71.339763 125.143261 
L 71.481689 126.632574 
L 71.623614 128.121886 
L 71.765539 129.611199 
" clip-path="url(#pe01e82d653)" style="fill: none; stroke: #4169e1; stroke-width: 0.503128; stroke-linecap: square"/>
   </g>
   <g id="line2d_27">
    <path d="M 80.366944 64.363611 
L 80.250287 65.42461 
L 80.133631 66.485609 
L 80.016975 67.546608 
L 79.900319 68.607608 
L 79.783662 69.668607 
L 79.667006 70.729606 
L 79.55035 71.790605 
L 79.433694 72.851604 
L 79.317037 73.912603 
L 79.200381 74.973603 
L 79.083725 76.034602 
L 78.967068 77.095601 
L 78.850412 78.1566 
L 78.733756 79.217599 
L 78.6171 80.278598 
L 78.500443 81.339597 
L 78.383787 82.400597 
L 78.267131 83.461596 
L 78.150475 84.522595 
L 78.033818 85.583594 
L 77.917162 86.644593 
L 77.800506 87.705592 
L 77.683849 88.766592 
L 77.567193 89.827591 
L 77.450537 90.88859 
L 77.333881 91.949589 
L 77.217224 93.010588 
L 77.100568 94.071587 
L 76.983912 95.132586 
L 76.867256 96.193586 
L 76.750599 97.254585 
L 76.633943 98.315584 
L 76.517287 99.376583 
L 76.40063 100.437582 
L 76.283974 101.498581 
L 76.167318 102.55958 
L 76.050662 103.62058 
L 75.934005 104.681579 
L 75.817349 105.742578 
L 75.700693 106.803577 
L 75.584036 107.864576 
L 75.46738 108.925575 
L 75.350724 109.986575 
L 75.234068 111.047574 
L 75.117411 112.108573 
L 75.000755 113.169572 
L 74.884099 114.230571 
L 74.767443 115.29157 
L 74.650786 116.352569 
L 74.53413 117.413569 
L 74.417474 118.474568 
L 74.300817 119.535567 
L 74.184161 120.596566 
L 74.067505 121.657565 
L 73.950849 122.718564 
L 73.834192 123.779564 
L 73.717536 124.840563 
L 73.60088 125.901562 
L 73.484224 126.962561 
L 73.367567 128.02356 
L 73.250911 129.084559 
L 73.134255 130.145558 
L 73.017598 131.206558 
L 72.900942 132.267557 
" clip-path="url(#pe01e82d653)" style="fill: none; stroke: #4169e1; stroke-width: 0.503128; stroke-linecap: square"/>
   </g>
   <g id="line2d_28">
    <path d="M 83.206907 66.859577 
L 83.095368 68.660762 
L 82.983829 70.461947 
L 82.87229 72.263131 
L 82.760751 74.064316 
L 82.649213 75.865501 
L 82.537674 77.666686 
L 82.426135 79.46787 
L 82.314596 81.269055 
L 82.66941 83.110585 
L 83.024223 84.952115 
L 83.379037 86.793645 
L 83.73385 88.635175 
L 84.089027 90.225228 
L 84.444205 91.81528 
L 84.799382 93.405332 
L 85.154559 94.995384 
L 85.19004 95.97642 
L 85.225522 96.957455 
L 85.261003 97.938491 
L 85.296484 98.919527 
L 85.331966 99.900562 
L 85.367447 100.881598 
L 85.402929 101.862633 
L 85.43841 102.843669 
L 85.184764 103.849951 
L 84.931118 104.856233 
L 84.677472 105.862516 
L 84.423825 106.868798 
L 84.170179 107.87508 
L 83.916533 108.881363 
L 83.662887 109.887645 
L 83.409241 110.893927 
L 82.942707 112.38324 
L 82.476173 113.872553 
L 82.009639 115.361865 
L 81.543105 116.851178 
L 81.228685 118.189505 
L 80.914266 119.527832 
L 80.599847 120.866159 
L 80.285428 122.204486 
L 80.011584 123.190596 
L 79.737741 124.176705 
L 79.463898 125.162815 
L 79.190055 126.148925 
L 78.916212 127.135034 
L 78.642369 128.121144 
L 78.368526 129.107254 
L 78.094682 130.093363 
L 77.100477 131.260656 
L 76.106272 132.427948 
" clip-path="url(#pe01e82d653)" style="fill: none; stroke: #4169e1; stroke-width: 0.503128; stroke-linecap: square"/>
   </g>
   <g id="line2d_29">
    <path d="M 88.968348 62.915139 
L 89.049409 64.12519 
L 89.130471 65.335241 
L 89.211532 66.545292 
L 89.292593 67.755343 
L 89.373654 68.965394 
L 89.454715 70.175445 
L 89.535777 71.385496 
L 89.616838 72.595547 
L 89.697899 73.805599 
L 89.77896 75.01565 
L 89.860022 76.225701 
L 89.941083 77.435752 
L 90.022144 78.645803 
L 90.103205 79.855854 
L 90.184266 81.065905 
L 90.265328 82.275956 
L 90.579747 83.855613 
L 90.894166 85.435269 
L 91.208585 87.014926 
L 91.523005 88.594582 
L 91.644733 89.585766 
L 91.766461 90.57695 
L 91.888189 91.568134 
L 92.009918 92.559317 
L 92.131646 93.550501 
L 92.253374 94.541685 
L 92.375103 95.532869 
L 92.496831 96.524052 
L 92.598362 98.466322 
L 92.699893 100.408592 
L 92.801425 102.350861 
L 92.902956 104.293131 
L 92.943714 105.94333 
L 92.984472 107.593529 
L 93.02523 109.243728 
L 93.065988 110.893927 
L 92.254466 112.121614 
L 91.442944 113.349301 
L 90.631422 114.576987 
L 89.8199 115.804674 
L 89.130289 116.710341 
L 88.440677 117.616007 
L 87.751065 118.521673 
L 87.061454 119.42734 
L 86.46282 120.302809 
L 85.864186 121.178279 
L 85.265552 122.053748 
L 84.666918 122.929217 
L 83.936548 124.036115 
L 83.206179 125.143014 
L 82.475809 126.249912 
L 81.745439 127.35681 
L 80.791992 128.393166 
L 79.838545 129.429521 
L 78.885097 130.465877 
L 77.93165 131.502233 
" clip-path="url(#pe01e82d653)" style="fill: none; stroke: #4169e1; stroke-width: 0.503128; stroke-linecap: square"/>
   </g>
   <g id="line2d_30">
    <path d="M 93.958298 112.101813 
L 94.171186 113.721938 
L 94.384074 115.342064 
L 94.596962 116.96219 
L 94.80985 118.582315 
L 95.022738 120.202441 
L 95.235626 121.822567 
L 95.448514 123.442692 
L 95.661402 125.062818 
L 95.742555 126.149543 
L 95.823707 127.236269 
L 95.904859 128.322994 
L 95.986011 129.40972 
L 96.067163 130.496445 
L 96.148316 131.583171 
L 96.229468 132.669896 
L 96.31062 133.756622 
L 96.483114 135.094949 
L 96.655608 136.433276 
L 96.828102 137.771603 
L 97.000596 139.10993 
" clip-path="url(#pe01e82d653)" style="fill: none; stroke: #4169e1; stroke-width: 0.503128; stroke-linecap: square"/>
   </g>
   <g id="line2d_31">
    <path d="M 92.984472 63.63987 
L 93.773613 65.014953 
L 94.562755 66.390037 
L 95.351896 67.76512 
L 96.141037 69.140203 
L 96.930179 70.515287 
L 97.71932 71.89037 
L 98.508462 73.265453 
L 99.297603 74.640537 
L 99.839103 75.693971 
L 100.380603 76.747406 
L 100.922102 77.80084 
L 101.463602 78.854274 
L 101.554944 80.31339 
L 101.646286 81.772506 
L 101.737627 83.231621 
L 101.828969 84.690737 
L 102.067331 85.908275 
L 102.305693 87.125814 
L 102.544054 88.343352 
L 102.782416 89.560891 
L 103.020778 90.778429 
L 103.25914 91.995968 
L 103.497502 93.213506 
L 103.735864 94.431045 
L 103.644522 96.21218 
L 103.55318 97.993316 
L 103.461838 99.774452 
L 103.370497 101.555588 
L 103.329921 102.793299 
L 103.289345 104.03101 
L 103.248768 105.268721 
L 103.208192 106.506432 
L 103.167616 107.744144 
L 103.12704 108.981855 
L 103.086464 110.219566 
L 103.045888 111.457277 
L 103.111756 112.659841 
L 103.177624 113.862404 
L 103.243492 115.064968 
L 103.30936 116.267532 
L 103.375228 117.470095 
L 103.441096 118.672659 
L 103.506963 119.875223 
L 103.572831 121.077786 
L 103.278791 122.939365 
L 102.984751 124.800944 
L 102.690711 126.662523 
L 102.39667 128.524102 
L 101.960523 129.52036 
L 101.524375 130.516618 
L 101.088228 131.512876 
L 100.65208 132.509134 
L 100.215933 133.505392 
L 99.779785 134.50165 
L 99.343638 135.497907 
L 98.90749 136.494165 
L 98.420577 137.560471 
L 97.933664 138.626776 
" clip-path="url(#pe01e82d653)" style="fill: none; stroke: #4169e1; stroke-width: 0.503128; stroke-linecap: square"/>
   </g>
   <g id="line2d_32">
    <path d="M 48.727051 21.102506 
L 49.027278 22.116461 
L 49.327504 23.130416 
L 49.627731 24.144372 
L 49.927958 25.158327 
L 50.228184 26.172283 
L 50.528411 27.186238 
L 50.828638 28.200193 
L 51.128865 29.214149 
L 51.353944 30.84566 
L 51.579023 32.477172 
L 51.804102 34.108683 
L 52.029181 35.740195 
L 52.25426 37.371706 
L 52.479339 39.003217 
L 52.704418 40.634729 
L 52.929497 42.26624 
L 52.986995 43.514719 
L 53.044493 44.763197 
L 53.101991 46.011675 
L 53.159489 47.260153 
L 53.097624 48.398734 
L 53.035759 49.537314 
" clip-path="url(#pe01e82d653)" style="fill: none; stroke: #008000; stroke-width: 0.503128; stroke-linecap: square"/>
   </g>
   <g id="line2d_33">
    <path d="M 24.968018 46.875016 
L 23.687779 47.829938 
L 22.407539 48.784861 
L 21.1273 49.739783 
L 19.84706 50.694706 
" clip-path="url(#pe01e82d653)" style="fill: none; stroke: #008000; stroke-width: 0.503128; stroke-linecap: square"/>
   </g>
   <g id="line2d_34">
    <path d="M 19.84706 50.694706 
L 18.363031 51.500623 
L 16.879001 52.30654 
L 16.163915 53.068646 
L 15.44883 53.830752 
L 14.733744 54.592858 
L 14.018659 55.354965 
L 13.576871 56.686609 
L 13.135083 58.018253 
L 13.064484 59.332076 
L 12.993885 60.645898 
L 11.757315 61.557258 
L 10.520745 62.468617 
L 9.867888 63.537398 
L 9.215031 64.606178 
L 9.479959 65.797232 
L 9.744886 66.988286 
L 9.832953 68.284783 
L 9.921019 69.58128 
L 9.85042 70.912924 
L 9.779822 72.244568 
L 9.143705 73.436117 
L 8.507588 74.627666 
L 8.278324 75.906341 
L 8.04906 77.185017 
L 8.402054 78.954767 
L 8.755048 80.724517 
L 8.066528 81.863592 
L 7.378008 83.002667 
L 7.254278 83.983827 
L 7.130548 84.964986 
L 6.954415 86.470882 
L 7.766665 88.188654 
L 6.989351 89.76534 
L 6.212036 91.342026 
L 5.57592 92.340512 
L 4.939803 93.338997 
L 5.081001 94.337978 
L 5.222198 95.336959 
L 6.317571 96.895824 
L 7.412943 98.454689 
L 7.165484 99.786333 
L 6.918024 101.117977 
L 6.900556 102.729811 
L 6.883089 104.341644 
L 7.324877 105.462899 
L 7.766665 106.584153 
L 7.483542 107.723228 
L 7.200419 108.862304 
L 6.706228 110.281569 
L 6.212036 111.700834 
L 6.088307 112.927036 
L 5.964577 114.153237 
L 5.840847 115.379439 
L 5.717117 116.605641 
L 6.786288 117.778873 
L 7.855459 118.952106 
L 8.92463 120.125339 
L 9.993801 121.298572 
L 11.375936 122.241119 
L 12.758071 123.183665 
" clip-path="url(#pe01e82d653)" style="fill: none; stroke: #008000; stroke-width: 0.503128; stroke-linecap: square"/>
   </g>
   <g id="text_1">
    <g id="patch_2">
     <path d="M 59.907816 115.731905 
L 61.188448 129.38824 
L 63.155443 129.203784 
L 61.874811 115.547449 
z
" style="fill: #ffffff"/>
    </g>
    <!-- Summit Chair -->
    <g style="fill: #808080" transform="translate(60.343716 115.711116)rotate(-275.357282)scale(0.02 -0.02)">
     <defs>
      <path id="DejaVuSans-53" d="M 3425 4513 
L 3425 3897 
Q 3066 4069 2747 4153 
Q 2428 4238 2131 4238 
Q 1616 4238 1336 4038 
Q 1056 3838 1056 3469 
Q 1056 3159 1242 3001 
Q 1428 2844 1947 2747 
L 2328 2669 
Q 3034 2534 3370 2195 
Q 3706 1856 3706 1288 
Q 3706 609 3251 259 
Q 2797 -91 1919 -91 
Q 1588 -91 1214 -16 
Q 841 59 441 206 
L 441 856 
Q 825 641 1194 531 
Q 1563 422 1919 422 
Q 2459 422 2753 634 
Q 3047 847 3047 1241 
Q 3047 1584 2836 1778 
Q 2625 1972 2144 2069 
L 1759 2144 
Q 1053 2284 737 2584 
Q 422 2884 422 3419 
Q 422 4038 858 4394 
Q 1294 4750 2059 4750 
Q 2388 4750 2728 4690 
Q 3069 4631 3425 4513 
z
" transform="scale(0.015625)"/>
      <path id="DejaVuSans-75" d="M 544 1381 
L 544 3500 
L 1119 3500 
L 1119 1403 
Q 1119 906 1312 657 
Q 1506 409 1894 409 
Q 2359 409 2629 706 
Q 2900 1003 2900 1516 
L 2900 3500 
L 3475 3500 
L 3475 0 
L 2900 0 
L 2900 538 
Q 2691 219 2414 64 
Q 2138 -91 1772 -91 
Q 1169 -91 856 284 
Q 544 659 544 1381 
z
M 1991 3584 
L 1991 3584 
z
" transform="scale(0.015625)"/>
      <path id="DejaVuSans-6d" d="M 3328 2828 
Q 3544 3216 3844 3400 
Q 4144 3584 4550 3584 
Q 5097 3584 5394 3201 
Q 5691 2819 5691 2113 
L 5691 0 
L 5113 0 
L 5113 2094 
Q 5113 2597 4934 2840 
Q 4756 3084 4391 3084 
Q 3944 3084 3684 2787 
Q 3425 2491 3425 1978 
L 3425 0 
L 2847 0 
L 2847 2094 
Q 2847 2600 2669 2842 
Q 2491 3084 2119 3084 
Q 1678 3084 1418 2786 
Q 1159 2488 1159 1978 
L 1159 0 
L 581 0 
L 581 3500 
L 1159 3500 
L 1159 2956 
Q 1356 3278 1631 3431 
Q 1906 3584 2284 3584 
Q 2666 3584 2933 3390 
Q 3200 3197 3328 2828 
z
" transform="scale(0.015625)"/>
      <path id="DejaVuSans-69" d="M 603 3500 
L 1178 3500 
L 1178 0 
L 603 0 
L 603 3500 
z
M 603 4863 
L 1178 4863 
L 1178 4134 
L 603 4134 
L 603 4863 
z
" transform="scale(0.015625)"/>
      <path id="DejaVuSans-74" d="M 1172 4494 
L 1172 3500 
L 2356 3500 
L 2356 3053 
L 1172 3053 
L 1172 1153 
Q 1172 725 1289 603 
Q 1406 481 1766 481 
L 2356 481 
L 2356 0 
L 1766 0 
Q 1100 0 847 248 
Q 594 497 594 1153 
L 594 3053 
L 172 3053 
L 172 3500 
L 594 3500 
L 594 4494 
L 1172 4494 
z
" transform="scale(0.015625)"/>
      <path id="DejaVuSans-20" transform="scale(0.015625)"/>
      <path id="DejaVuSans-43" d="M 4122 4306 
L 4122 3641 
Q 3803 3938 3442 4084 
Q 3081 4231 2675 4231 
Q 1875 4231 1450 3742 
Q 1025 3253 1025 2328 
Q 1025 1406 1450 917 
Q 1875 428 2675 428 
Q 3081 428 3442 575 
Q 3803 722 4122 1019 
L 4122 359 
Q 3791 134 3420 21 
Q 3050 -91 2638 -91 
Q 1578 -91 968 557 
Q 359 1206 359 2328 
Q 359 3453 968 4101 
Q 1578 4750 2638 4750 
Q 3056 4750 3426 4639 
Q 3797 4528 4122 4306 
z
" transform="scale(0.015625)"/>
      <path id="DejaVuSans-68" d="M 3513 2113 
L 3513 0 
L 2938 0 
L 2938 2094 
Q 2938 2591 2744 2837 
Q 2550 3084 2163 3084 
Q 1697 3084 1428 2787 
Q 1159 2491 1159 1978 
L 1159 0 
L 581 0 
L 581 4863 
L 1159 4863 
L 1159 2956 
Q 1366 3272 1645 3428 
Q 1925 3584 2291 3584 
Q 2894 3584 3203 3211 
Q 3513 2838 3513 2113 
z
" transform="scale(0.015625)"/>
      <path id="DejaVuSans-61" d="M 2194 1759 
Q 1497 1759 1228 1600 
Q 959 1441 959 1056 
Q 959 750 1161 570 
Q 1363 391 1709 391 
Q 2188 391 2477 730 
Q 2766 1069 2766 1631 
L 2766 1759 
L 2194 1759 
z
M 3341 1997 
L 3341 0 
L 2766 0 
L 2766 531 
Q 2569 213 2275 61 
Q 1981 -91 1556 -91 
Q 1019 -91 701 211 
Q 384 513 384 1019 
Q 384 1609 779 1909 
Q 1175 2209 1959 2209 
L 2766 2209 
L 2766 2266 
Q 2766 2663 2505 2880 
Q 2244 3097 1772 3097 
Q 1472 3097 1187 3025 
Q 903 2953 641 2809 
L 641 3341 
Q 956 3463 1253 3523 
Q 1550 3584 1831 3584 
Q 2591 3584 2966 3190 
Q 3341 2797 3341 1997 
z
" transform="scale(0.015625)"/>
      <path id="DejaVuSans-72" d="M 2631 2963 
Q 2534 3019 2420 3045 
Q 2306 3072 2169 3072 
Q 1681 3072 1420 2755 
Q 1159 2438 1159 1844 
L 1159 0 
L 581 0 
L 581 3500 
L 1159 3500 
L 1159 2956 
Q 1341 3275 1631 3429 
Q 1922 3584 2338 3584 
Q 2397 3584 2469 3576 
Q 2541 3569 2628 3553 
L 2631 2963 
z
" transform="scale(0.015625)"/>
     </defs>
     <use xlink:href="#DejaVuSans-53"/>
     <use xlink:href="#DejaVuSans-75" x="63.476562"/>
     <use xlink:href="#DejaVuSans-6d" x="126.855469"/>
     <use xlink:href="#DejaVuSans-6d" x="224.267578"/>
     <use xlink:href="#DejaVuSans-69" x="321.679688"/>
     <use xlink:href="#DejaVuSans-74" x="349.462891"/>
     <use xlink:href="#DejaVuSans-20" x="388.671875"/>
     <use xlink:href="#DejaVuSans-43" x="420.458984"/>
     <use xlink:href="#DejaVuSans-68" x="490.283203"/>
     <use xlink:href="#DejaVuSans-61" x="553.662109"/>
     <use xlink:href="#DejaVuSans-69" x="614.941406"/>
     <use xlink:href="#DejaVuSans-72" x="642.724609"/>
    </g>
   </g>
   <g id="text_2">
    <g id="patch_3">
     <path d="M 75.7201 126.293258 
L 76.643067 113.888171 
L 74.672887 113.741585 
L 73.749921 126.146672 
z
" style="fill: #ffffff"/>
    </g>
    <!-- Gandy Chair -->
    <g style="fill: #808080" transform="translate(75.286848 126.240968)rotate(-85.744905)scale(0.02 -0.02)">
     <defs>
      <path id="DejaVuSans-47" d="M 3809 666 
L 3809 1919 
L 2778 1919 
L 2778 2438 
L 4434 2438 
L 4434 434 
Q 4069 175 3628 42 
Q 3188 -91 2688 -91 
Q 1594 -91 976 548 
Q 359 1188 359 2328 
Q 359 3472 976 4111 
Q 1594 4750 2688 4750 
Q 3144 4750 3555 4637 
Q 3966 4525 4313 4306 
L 4313 3634 
Q 3963 3931 3569 4081 
Q 3175 4231 2741 4231 
Q 1884 4231 1454 3753 
Q 1025 3275 1025 2328 
Q 1025 1384 1454 906 
Q 1884 428 2741 428 
Q 3075 428 3337 486 
Q 3600 544 3809 666 
z
" transform="scale(0.015625)"/>
      <path id="DejaVuSans-6e" d="M 3513 2113 
L 3513 0 
L 2938 0 
L 2938 2094 
Q 2938 2591 2744 2837 
Q 2550 3084 2163 3084 
Q 1697 3084 1428 2787 
Q 1159 2491 1159 1978 
L 1159 0 
L 581 0 
L 581 3500 
L 1159 3500 
L 1159 2956 
Q 1366 3272 1645 3428 
Q 1925 3584 2291 3584 
Q 2894 3584 3203 3211 
Q 3513 2838 3513 2113 
z
" transform="scale(0.015625)"/>
      <path id="DejaVuSans-64" d="M 2906 2969 
L 2906 4863 
L 3481 4863 
L 3481 0 
L 2906 0 
L 2906 525 
Q 2725 213 2448 61 
Q 2172 -91 1784 -91 
Q 1150 -91 751 415 
Q 353 922 353 1747 
Q 353 2572 751 3078 
Q 1150 3584 1784 3584 
Q 2172 3584 2448 3432 
Q 2725 3281 2906 2969 
z
M 947 1747 
Q 947 1113 1208 752 
Q 1469 391 1925 391 
Q 2381 391 2643 752 
Q 2906 1113 2906 1747 
Q 2906 2381 2643 2742 
Q 2381 3103 1925 3103 
Q 1469 3103 1208 2742 
Q 947 2381 947 1747 
z
" transform="scale(0.015625)"/>
      <path id="DejaVuSans-79" d="M 2059 -325 
Q 1816 -950 1584 -1140 
Q 1353 -1331 966 -1331 
L 506 -1331 
L 506 -850 
L 844 -850 
Q 1081 -850 1212 -737 
Q 1344 -625 1503 -206 
L 1606 56 
L 191 3500 
L 800 3500 
L 1894 763 
L 2988 3500 
L 3597 3500 
L 2059 -325 
z
" transform="scale(0.015625)"/>
     </defs>
     <use xlink:href="#DejaVuSans-47"/>
     <use xlink:href="#DejaVuSans-61" x="77.490234"/>
     <use xlink:href="#DejaVuSans-6e" x="138.769531"/>
     <use xlink:href="#DejaVuSans-64" x="202.148438"/>
     <use xlink:href="#DejaVuSans-79" x="265.625"/>
     <use xlink:href="#DejaVuSans-20" x="324.804688"/>
     <use xlink:href="#DejaVuSans-43" x="356.591797"/>
     <use xlink:href="#DejaVuSans-68" x="426.416016"/>
     <use xlink:href="#DejaVuSans-61" x="489.794922"/>
     <use xlink:href="#DejaVuSans-69" x="551.074219"/>
     <use xlink:href="#DejaVuSans-72" x="578.857422"/>
    </g>
   </g>
   <g id="text_3">
    <g id="patch_4">
     <path d="M 92.606482 120.749639 
L 93.831608 133.211752 
L 95.797755 133.018464 
L 94.572629 120.556351 
z
" style="fill: #ffffff"/>
    </g>
    <!-- Big Air Chair -->
    <g style="fill: #808080" transform="translate(93.042285 120.726893)rotate(-275.614596)scale(0.02 -0.02)">
     <defs>
      <path id="DejaVuSans-42" d="M 1259 2228 
L 1259 519 
L 2272 519 
Q 2781 519 3026 730 
Q 3272 941 3272 1375 
Q 3272 1813 3026 2020 
Q 2781 2228 2272 2228 
L 1259 2228 
z
M 1259 4147 
L 1259 2741 
L 2194 2741 
Q 2656 2741 2882 2914 
Q 3109 3088 3109 3444 
Q 3109 3797 2882 3972 
Q 2656 4147 2194 4147 
L 1259 4147 
z
M 628 4666 
L 2241 4666 
Q 2963 4666 3353 4366 
Q 3744 4066 3744 3513 
Q 3744 3084 3544 2831 
Q 3344 2578 2956 2516 
Q 3422 2416 3680 2098 
Q 3938 1781 3938 1306 
Q 3938 681 3513 340 
Q 3088 0 2303 0 
L 628 0 
L 628 4666 
z
" transform="scale(0.015625)"/>
      <path id="DejaVuSans-67" d="M 2906 1791 
Q 2906 2416 2648 2759 
Q 2391 3103 1925 3103 
Q 1463 3103 1205 2759 
Q 947 2416 947 1791 
Q 947 1169 1205 825 
Q 1463 481 1925 481 
Q 2391 481 2648 825 
Q 2906 1169 2906 1791 
z
M 3481 434 
Q 3481 -459 3084 -895 
Q 2688 -1331 1869 -1331 
Q 1566 -1331 1297 -1286 
Q 1028 -1241 775 -1147 
L 775 -588 
Q 1028 -725 1275 -790 
Q 1522 -856 1778 -856 
Q 2344 -856 2625 -561 
Q 2906 -266 2906 331 
L 2906 616 
Q 2728 306 2450 153 
Q 2172 0 1784 0 
Q 1141 0 747 490 
Q 353 981 353 1791 
Q 353 2603 747 3093 
Q 1141 3584 1784 3584 
Q 2172 3584 2450 3431 
Q 2728 3278 2906 2969 
L 2906 3500 
L 3481 3500 
L 3481 434 
z
" transform="scale(0.015625)"/>
      <path id="DejaVuSans-41" d="M 2188 4044 
L 1331 1722 
L 3047 1722 
L 2188 4044 
z
M 1831 4666 
L 2547 4666 
L 4325 0 
L 3669 0 
L 3244 1197 
L 1141 1197 
L 716 0 
L 50 0 
L 1831 4666 
z
" transform="scale(0.015625)"/>
     </defs>
     <use xlink:href="#DejaVuSans-42"/>
     <use xlink:href="#DejaVuSans-69" x="68.603516"/>
     <use xlink:href="#DejaVuSans-67" x="96.386719"/>
     <use xlink:href="#DejaVuSans-20" x="159.863281"/>
     <use xlink:href="#DejaVuSans-41" x="191.650391"/>
     <use xlink:href="#DejaVuSans-69" x="260.058594"/>
     <use xlink:href="#DejaVuSans-72" x="287.841797"/>
     <use xlink:href="#DejaVuSans-20" x="328.955078"/>
     <use xlink:href="#DejaVuSans-43" x="360.742188"/>
     <use xlink:href="#DejaVuSans-68" x="430.566406"/>
     <use xlink:href="#DejaVuSans-61" x="493.945312"/>
     <use xlink:href="#DejaVuSans-69" x="555.224609"/>
     <use xlink:href="#DejaVuSans-72" x="583.007812"/>
    </g>
   </g>
   <g id="text_4">
    <g id="patch_5">
     <path d="M 30.491415 146.171659 
L 31.323084 130.63703 
L 29.350284 130.531414 
L 28.518615 146.066042 
z
" style="fill: #ffffff"/>
    </g>
    <!-- Spirit Express II -->
    <g style="fill: #808080" transform="translate(30.05717 146.128383)rotate(-86.935511)scale(0.02 -0.02)">
     <defs>
      <path id="DejaVuSans-70" d="M 1159 525 
L 1159 -1331 
L 581 -1331 
L 581 3500 
L 1159 3500 
L 1159 2969 
Q 1341 3281 1617 3432 
Q 1894 3584 2278 3584 
Q 2916 3584 3314 3078 
Q 3713 2572 3713 1747 
Q 3713 922 3314 415 
Q 2916 -91 2278 -91 
Q 1894 -91 1617 61 
Q 1341 213 1159 525 
z
M 3116 1747 
Q 3116 2381 2855 2742 
Q 2594 3103 2138 3103 
Q 1681 3103 1420 2742 
Q 1159 2381 1159 1747 
Q 1159 1113 1420 752 
Q 1681 391 2138 391 
Q 2594 391 2855 752 
Q 3116 1113 3116 1747 
z
" transform="scale(0.015625)"/>
      <path id="DejaVuSans-45" d="M 628 4666 
L 3578 4666 
L 3578 4134 
L 1259 4134 
L 1259 2753 
L 3481 2753 
L 3481 2222 
L 1259 2222 
L 1259 531 
L 3634 531 
L 3634 0 
L 628 0 
L 628 4666 
z
" transform="scale(0.015625)"/>
      <path id="DejaVuSans-78" d="M 3513 3500 
L 2247 1797 
L 3578 0 
L 2900 0 
L 1881 1375 
L 863 0 
L 184 0 
L 1544 1831 
L 300 3500 
L 978 3500 
L 1906 2253 
L 2834 3500 
L 3513 3500 
z
" transform="scale(0.015625)"/>
      <path id="DejaVuSans-65" d="M 3597 1894 
L 3597 1613 
L 953 1613 
Q 991 1019 1311 708 
Q 1631 397 2203 397 
Q 2534 397 2845 478 
Q 3156 559 3463 722 
L 3463 178 
Q 3153 47 2828 -22 
Q 2503 -91 2169 -91 
Q 1331 -91 842 396 
Q 353 884 353 1716 
Q 353 2575 817 3079 
Q 1281 3584 2069 3584 
Q 2775 3584 3186 3129 
Q 3597 2675 3597 1894 
z
M 3022 2063 
Q 3016 2534 2758 2815 
Q 2500 3097 2075 3097 
Q 1594 3097 1305 2825 
Q 1016 2553 972 2059 
L 3022 2063 
z
" transform="scale(0.015625)"/>
      <path id="DejaVuSans-73" d="M 2834 3397 
L 2834 2853 
Q 2591 2978 2328 3040 
Q 2066 3103 1784 3103 
Q 1356 3103 1142 2972 
Q 928 2841 928 2578 
Q 928 2378 1081 2264 
Q 1234 2150 1697 2047 
L 1894 2003 
Q 2506 1872 2764 1633 
Q 3022 1394 3022 966 
Q 3022 478 2636 193 
Q 2250 -91 1575 -91 
Q 1294 -91 989 -36 
Q 684 19 347 128 
L 347 722 
Q 666 556 975 473 
Q 1284 391 1588 391 
Q 1994 391 2212 530 
Q 2431 669 2431 922 
Q 2431 1156 2273 1281 
Q 2116 1406 1581 1522 
L 1381 1569 
Q 847 1681 609 1914 
Q 372 2147 372 2553 
Q 372 3047 722 3315 
Q 1072 3584 1716 3584 
Q 2034 3584 2315 3537 
Q 2597 3491 2834 3397 
z
" transform="scale(0.015625)"/>
      <path id="DejaVuSans-49" d="M 628 4666 
L 1259 4666 
L 1259 0 
L 628 0 
L 628 4666 
z
" transform="scale(0.015625)"/>
     </defs>
     <use xlink:href="#DejaVuSans-53"/>
     <use xlink:href="#DejaVuSans-70" x="63.476562"/>
     <use xlink:href="#DejaVuSans-69" x="126.953125"/>
     <use xlink:href="#DejaVuSans-72" x="154.736328"/>
     <use xlink:href="#DejaVuSans-69" x="195.849609"/>
     <use xlink:href="#DejaVuSans-74" x="223.632812"/>
     <use xlink:href="#DejaVuSans-20" x="262.841797"/>
     <use xlink:href="#DejaVuSans-45" x="294.628906"/>
     <use xlink:href="#DejaVuSans-78" x="357.8125"/>
     <use xlink:href="#DejaVuSans-70" x="416.992188"/>
     <use xlink:href="#DejaVuSans-72" x="480.46875"/>
     <use xlink:href="#DejaVuSans-65" x="519.332031"/>
     <use xlink:href="#DejaVuSans-73" x="580.855469"/>
     <use xlink:href="#DejaVuSans-73" x="632.955078"/>
     <use xlink:href="#DejaVuSans-20" x="685.054688"/>
     <use xlink:href="#DejaVuSans-49" x="716.841797"/>
     <use xlink:href="#DejaVuSans-49" x="746.333984"/>
    </g>
   </g>
   <g id="text_5">
    <g id="patch_6">
     <path d="M 28.534499 120.115519 
L 29.290972 103.015055 
L 27.317278 102.927745 
L 26.560804 120.028208 
z
" style="fill: #ffffff"/>
    </g>
    <!-- Double Jaw Chair -->
    <g style="fill: #808080" transform="translate(28.099871 120.076272)rotate(-87.467057)scale(0.02 -0.02)">
     <defs>
      <path id="DejaVuSans-44" d="M 1259 4147 
L 1259 519 
L 2022 519 
Q 2988 519 3436 956 
Q 3884 1394 3884 2338 
Q 3884 3275 3436 3711 
Q 2988 4147 2022 4147 
L 1259 4147 
z
M 628 4666 
L 1925 4666 
Q 3281 4666 3915 4102 
Q 4550 3538 4550 2338 
Q 4550 1131 3912 565 
Q 3275 0 1925 0 
L 628 0 
L 628 4666 
z
" transform="scale(0.015625)"/>
      <path id="DejaVuSans-6f" d="M 1959 3097 
Q 1497 3097 1228 2736 
Q 959 2375 959 1747 
Q 959 1119 1226 758 
Q 1494 397 1959 397 
Q 2419 397 2687 759 
Q 2956 1122 2956 1747 
Q 2956 2369 2687 2733 
Q 2419 3097 1959 3097 
z
M 1959 3584 
Q 2709 3584 3137 3096 
Q 3566 2609 3566 1747 
Q 3566 888 3137 398 
Q 2709 -91 1959 -91 
Q 1206 -91 779 398 
Q 353 888 353 1747 
Q 353 2609 779 3096 
Q 1206 3584 1959 3584 
z
" transform="scale(0.015625)"/>
      <path id="DejaVuSans-62" d="M 3116 1747 
Q 3116 2381 2855 2742 
Q 2594 3103 2138 3103 
Q 1681 3103 1420 2742 
Q 1159 2381 1159 1747 
Q 1159 1113 1420 752 
Q 1681 391 2138 391 
Q 2594 391 2855 752 
Q 3116 1113 3116 1747 
z
M 1159 2969 
Q 1341 3281 1617 3432 
Q 1894 3584 2278 3584 
Q 2916 3584 3314 3078 
Q 3713 2572 3713 1747 
Q 3713 922 3314 415 
Q 2916 -91 2278 -91 
Q 1894 -91 1617 61 
Q 1341 213 1159 525 
L 1159 0 
L 581 0 
L 581 4863 
L 1159 4863 
L 1159 2969 
z
" transform="scale(0.015625)"/>
      <path id="DejaVuSans-6c" d="M 603 4863 
L 1178 4863 
L 1178 0 
L 603 0 
L 603 4863 
z
" transform="scale(0.015625)"/>
      <path id="DejaVuSans-4a" d="M 628 4666 
L 1259 4666 
L 1259 325 
Q 1259 -519 939 -900 
Q 619 -1281 -91 -1281 
L -331 -1281 
L -331 -750 
L -134 -750 
Q 284 -750 456 -515 
Q 628 -281 628 325 
L 628 4666 
z
" transform="scale(0.015625)"/>
      <path id="DejaVuSans-77" d="M 269 3500 
L 844 3500 
L 1563 769 
L 2278 3500 
L 2956 3500 
L 3675 769 
L 4391 3500 
L 4966 3500 
L 4050 0 
L 3372 0 
L 2619 2869 
L 1863 0 
L 1184 0 
L 269 3500 
z
" transform="scale(0.015625)"/>
     </defs>
     <use xlink:href="#DejaVuSans-44"/>
     <use xlink:href="#DejaVuSans-6f" x="77.001953"/>
     <use xlink:href="#DejaVuSans-75" x="138.183594"/>
     <use xlink:href="#DejaVuSans-62" x="201.5625"/>
     <use xlink:href="#DejaVuSans-6c" x="265.039062"/>
     <use xlink:href="#DejaVuSans-65" x="292.822266"/>
     <use xlink:href="#DejaVuSans-20" x="354.345703"/>
     <use xlink:href="#DejaVuSans-4a" x="386.132812"/>
     <use xlink:href="#DejaVuSans-61" x="415.625"/>
     <use xlink:href="#DejaVuSans-77" x="476.904297"/>
     <use xlink:href="#DejaVuSans-20" x="558.691406"/>
     <use xlink:href="#DejaVuSans-43" x="590.478516"/>
     <use xlink:href="#DejaVuSans-68" x="660.302734"/>
     <use xlink:href="#DejaVuSans-61" x="723.681641"/>
     <use xlink:href="#DejaVuSans-69" x="784.960938"/>
     <use xlink:href="#DejaVuSans-72" x="812.744141"/>
    </g>
   </g>
   <g id="text_6">
    <g id="patch_7">
     <path d="M 49.343515 35.020645 
L 49.415624 35.692411 
L 51.379965 35.481555 
L 51.307856 34.809789 
z
" style="fill: #ffffff"/>
    </g>
    <!--   -->
    <g style="fill: #808080" transform="translate(49.779097 34.994004)rotate(-276.126797)scale(0.02 -0.02)">
     <use xlink:href="#DejaVuSans-20"/>
    </g>
   </g>
   <g id="text_7">
    <g id="patch_8">
     <path d="M 14.592101 87.727251 
L 18.548148 71.385208 
L 16.627984 70.920379 
L 12.671937 87.262422 
z
" style="fill: #ffffff"/>
    </g>
    <!-- Juggler Joe 14.7° -->
    <g style="fill: #008000" transform="translate(14.173107 87.605245)rotate(-76.391752)scale(0.02 -0.02)">
     <defs>
      <path id="DejaVuSans-31" d="M 794 531 
L 1825 531 
L 1825 4091 
L 703 3866 
L 703 4441 
L 1819 4666 
L 2450 4666 
L 2450 531 
L 3481 531 
L 3481 0 
L 794 0 
L 794 531 
z
" transform="scale(0.015625)"/>
      <path id="DejaVuSans-34" d="M 2419 4116 
L 825 1625 
L 2419 1625 
L 2419 4116 
z
M 2253 4666 
L 3047 4666 
L 3047 1625 
L 3713 1625 
L 3713 1100 
L 3047 1100 
L 3047 0 
L 2419 0 
L 2419 1100 
L 313 1100 
L 313 1709 
L 2253 4666 
z
" transform="scale(0.015625)"/>
      <path id="DejaVuSans-2e" d="M 684 794 
L 1344 794 
L 1344 0 
L 684 0 
L 684 794 
z
" transform="scale(0.015625)"/>
      <path id="DejaVuSans-37" d="M 525 4666 
L 3525 4666 
L 3525 4397 
L 1831 0 
L 1172 0 
L 2766 4134 
L 525 4134 
L 525 4666 
z
" transform="scale(0.015625)"/>
      <path id="DejaVuSans-b0" d="M 1600 4347 
Q 1350 4347 1178 4173 
Q 1006 4000 1006 3750 
Q 1006 3503 1178 3333 
Q 1350 3163 1600 3163 
Q 1850 3163 2022 3333 
Q 2194 3503 2194 3750 
Q 2194 3997 2020 4172 
Q 1847 4347 1600 4347 
z
M 1600 4750 
Q 1800 4750 1984 4673 
Q 2169 4597 2303 4453 
Q 2447 4313 2519 4134 
Q 2591 3956 2591 3750 
Q 2591 3338 2302 3052 
Q 2013 2766 1594 2766 
Q 1172 2766 890 3047 
Q 609 3328 609 3750 
Q 609 4169 896 4459 
Q 1184 4750 1600 4750 
z
" transform="scale(0.015625)"/>
     </defs>
     <use xlink:href="#DejaVuSans-4a"/>
     <use xlink:href="#DejaVuSans-75" x="29.492188"/>
     <use xlink:href="#DejaVuSans-67" x="92.871094"/>
     <use xlink:href="#DejaVuSans-67" x="156.347656"/>
     <use xlink:href="#DejaVuSans-6c" x="219.824219"/>
     <use xlink:href="#DejaVuSans-65" x="247.607422"/>
     <use xlink:href="#DejaVuSans-72" x="309.130859"/>
     <use xlink:href="#DejaVuSans-20" x="350.244141"/>
     <use xlink:href="#DejaVuSans-4a" x="382.03125"/>
     <use xlink:href="#DejaVuSans-6f" x="411.523438"/>
     <use xlink:href="#DejaVuSans-65" x="472.705078"/>
     <use xlink:href="#DejaVuSans-20" x="534.228516"/>
     <use xlink:href="#DejaVuSans-31" x="566.015625"/>
     <use xlink:href="#DejaVuSans-34" x="629.638672"/>
     <use xlink:href="#DejaVuSans-2e" x="693.261719"/>
     <use xlink:href="#DejaVuSans-37" x="725.048828"/>
     <use xlink:href="#DejaVuSans-b0" x="788.671875"/>
    </g>
   </g>
   <g id="text_8">
    <g id="patch_9">
     <path d="M 24.80033 79.018526 
L 28.655244 62.150599 
L 26.729274 61.710447 
L 22.87436 78.578374 
z
" style="fill: #ffffff"/>
    </g>
    <!-- Double Jaw 14.3° -->
    <g style="fill: #008000" transform="translate(24.379805 78.901906)rotate(-77.126975)scale(0.02 -0.02)">
     <defs>
      <path id="DejaVuSans-33" d="M 2597 2516 
Q 3050 2419 3304 2112 
Q 3559 1806 3559 1356 
Q 3559 666 3084 287 
Q 2609 -91 1734 -91 
Q 1441 -91 1130 -33 
Q 819 25 488 141 
L 488 750 
Q 750 597 1062 519 
Q 1375 441 1716 441 
Q 2309 441 2620 675 
Q 2931 909 2931 1356 
Q 2931 1769 2642 2001 
Q 2353 2234 1838 2234 
L 1294 2234 
L 1294 2753 
L 1863 2753 
Q 2328 2753 2575 2939 
Q 2822 3125 2822 3475 
Q 2822 3834 2567 4026 
Q 2313 4219 1838 4219 
Q 1578 4219 1281 4162 
Q 984 4106 628 3988 
L 628 4550 
Q 988 4650 1302 4700 
Q 1616 4750 1894 4750 
Q 2613 4750 3031 4423 
Q 3450 4097 3450 3541 
Q 3450 3153 3228 2886 
Q 3006 2619 2597 2516 
z
" transform="scale(0.015625)"/>
     </defs>
     <use xlink:href="#DejaVuSans-44"/>
     <use xlink:href="#DejaVuSans-6f" x="77.001953"/>
     <use xlink:href="#DejaVuSans-75" x="138.183594"/>
     <use xlink:href="#DejaVuSans-62" x="201.5625"/>
     <use xlink:href="#DejaVuSans-6c" x="265.039062"/>
     <use xlink:href="#DejaVuSans-65" x="292.822266"/>
     <use xlink:href="#DejaVuSans-20" x="354.345703"/>
     <use xlink:href="#DejaVuSans-4a" x="386.132812"/>
     <use xlink:href="#DejaVuSans-61" x="415.625"/>
     <use xlink:href="#DejaVuSans-77" x="476.904297"/>
     <use xlink:href="#DejaVuSans-20" x="558.691406"/>
     <use xlink:href="#DejaVuSans-31" x="590.478516"/>
     <use xlink:href="#DejaVuSans-34" x="654.101562"/>
     <use xlink:href="#DejaVuSans-2e" x="717.724609"/>
     <use xlink:href="#DejaVuSans-33" x="749.511719"/>
     <use xlink:href="#DejaVuSans-b0" x="813.134766"/>
    </g>
   </g>
   <g id="text_9">
    <g id="patch_10">
     <path d="M 34.479179 22.241922 
L 39.5406 44.672973 
L 41.467773 44.238119 
L 36.406352 21.807068 
z
" style="fill: #ffffff"/>
    </g>
    <!-- Sour Dough Sam 10.6° -->
    <g style="fill: #008000" transform="translate(34.908827 22.165477)rotate(-282.715472)scale(0.02 -0.02)">
     <defs>
      <path id="DejaVuSans-30" d="M 2034 4250 
Q 1547 4250 1301 3770 
Q 1056 3291 1056 2328 
Q 1056 1369 1301 889 
Q 1547 409 2034 409 
Q 2525 409 2770 889 
Q 3016 1369 3016 2328 
Q 3016 3291 2770 3770 
Q 2525 4250 2034 4250 
z
M 2034 4750 
Q 2819 4750 3233 4129 
Q 3647 3509 3647 2328 
Q 3647 1150 3233 529 
Q 2819 -91 2034 -91 
Q 1250 -91 836 529 
Q 422 1150 422 2328 
Q 422 3509 836 4129 
Q 1250 4750 2034 4750 
z
" transform="scale(0.015625)"/>
      <path id="DejaVuSans-36" d="M 2113 2584 
Q 1688 2584 1439 2293 
Q 1191 2003 1191 1497 
Q 1191 994 1439 701 
Q 1688 409 2113 409 
Q 2538 409 2786 701 
Q 3034 994 3034 1497 
Q 3034 2003 2786 2293 
Q 2538 2584 2113 2584 
z
M 3366 4563 
L 3366 3988 
Q 3128 4100 2886 4159 
Q 2644 4219 2406 4219 
Q 1781 4219 1451 3797 
Q 1122 3375 1075 2522 
Q 1259 2794 1537 2939 
Q 1816 3084 2150 3084 
Q 2853 3084 3261 2657 
Q 3669 2231 3669 1497 
Q 3669 778 3244 343 
Q 2819 -91 2113 -91 
Q 1303 -91 875 529 
Q 447 1150 447 2328 
Q 447 3434 972 4092 
Q 1497 4750 2381 4750 
Q 2619 4750 2861 4703 
Q 3103 4656 3366 4563 
z
" transform="scale(0.015625)"/>
     </defs>
     <use xlink:href="#DejaVuSans-53"/>
     <use xlink:href="#DejaVuSans-6f" x="63.476562"/>
     <use xlink:href="#DejaVuSans-75" x="124.658203"/>
     <use xlink:href="#DejaVuSans-72" x="188.037109"/>
     <use xlink:href="#DejaVuSans-20" x="229.150391"/>
     <use xlink:href="#DejaVuSans-44" x="260.9375"/>
     <use xlink:href="#DejaVuSans-6f" x="337.939453"/>
     <use xlink:href="#DejaVuSans-75" x="399.121094"/>
     <use xlink:href="#DejaVuSans-67" x="462.5"/>
     <use xlink:href="#DejaVuSans-68" x="525.976562"/>
     <use xlink:href="#DejaVuSans-20" x="589.355469"/>
     <use xlink:href="#DejaVuSans-53" x="621.142578"/>
     <use xlink:href="#DejaVuSans-61" x="684.619141"/>
     <use xlink:href="#DejaVuSans-6d" x="745.898438"/>
     <use xlink:href="#DejaVuSans-20" x="843.310547"/>
     <use xlink:href="#DejaVuSans-31" x="875.097656"/>
     <use xlink:href="#DejaVuSans-30" x="938.720703"/>
     <use xlink:href="#DejaVuSans-2e" x="1002.34375"/>
     <use xlink:href="#DejaVuSans-36" x="1034.130859"/>
     <use xlink:href="#DejaVuSans-b0" x="1097.753906"/>
    </g>
   </g>
   <g id="text_10">
    <g id="patch_11">
     <path d="M 44.790597 21.913573 
L 47.034152 43.594362 
L 48.999284 43.391007 
L 46.755728 21.710219 
z
" style="fill: #ffffff"/>
    </g>
    <!-- Powder Monkey 11.4° -->
    <g style="fill: #008000" transform="translate(45.226277 21.888595)rotate(-275.908012)scale(0.02 -0.02)">
     <defs>
      <path id="DejaVuSans-50" d="M 1259 4147 
L 1259 2394 
L 2053 2394 
Q 2494 2394 2734 2622 
Q 2975 2850 2975 3272 
Q 2975 3691 2734 3919 
Q 2494 4147 2053 4147 
L 1259 4147 
z
M 628 4666 
L 2053 4666 
Q 2838 4666 3239 4311 
Q 3641 3956 3641 3272 
Q 3641 2581 3239 2228 
Q 2838 1875 2053 1875 
L 1259 1875 
L 1259 0 
L 628 0 
L 628 4666 
z
" transform="scale(0.015625)"/>
      <path id="DejaVuSans-4d" d="M 628 4666 
L 1569 4666 
L 2759 1491 
L 3956 4666 
L 4897 4666 
L 4897 0 
L 4281 0 
L 4281 4097 
L 3078 897 
L 2444 897 
L 1241 4097 
L 1241 0 
L 628 0 
L 628 4666 
z
" transform="scale(0.015625)"/>
      <path id="DejaVuSans-6b" d="M 581 4863 
L 1159 4863 
L 1159 1991 
L 2875 3500 
L 3609 3500 
L 1753 1863 
L 3688 0 
L 2938 0 
L 1159 1709 
L 1159 0 
L 581 0 
L 581 4863 
z
" transform="scale(0.015625)"/>
     </defs>
     <use xlink:href="#DejaVuSans-50"/>
     <use xlink:href="#DejaVuSans-6f" x="56.677734"/>
     <use xlink:href="#DejaVuSans-77" x="117.859375"/>
     <use xlink:href="#DejaVuSans-64" x="199.646484"/>
     <use xlink:href="#DejaVuSans-65" x="263.123047"/>
     <use xlink:href="#DejaVuSans-72" x="324.646484"/>
     <use xlink:href="#DejaVuSans-20" x="365.759766"/>
     <use xlink:href="#DejaVuSans-4d" x="397.546875"/>
     <use xlink:href="#DejaVuSans-6f" x="483.826172"/>
     <use xlink:href="#DejaVuSans-6e" x="545.007812"/>
     <use xlink:href="#DejaVuSans-6b" x="608.386719"/>
     <use xlink:href="#DejaVuSans-65" x="662.671875"/>
     <use xlink:href="#DejaVuSans-79" x="724.195312"/>
     <use xlink:href="#DejaVuSans-20" x="783.375"/>
     <use xlink:href="#DejaVuSans-31" x="815.162109"/>
     <use xlink:href="#DejaVuSans-31" x="878.785156"/>
     <use xlink:href="#DejaVuSans-2e" x="942.408203"/>
     <use xlink:href="#DejaVuSans-34" x="974.195312"/>
     <use xlink:href="#DejaVuSans-b0" x="1037.818359"/>
    </g>
   </g>
   <g id="text_11">
    <g id="patch_12">
     <path d="M 34.58744 67.522716 
L 35.482855 52.176317 
L 33.510584 52.061241 
L 32.61517 67.407641 
z
" style="fill: #ffffff"/>
    </g>
    <!-- Four Pipe 14.5° -->
    <g style="fill: #008000" transform="translate(34.153408 67.477358)rotate(-86.660757)scale(0.02 -0.02)">
     <defs>
      <path id="DejaVuSans-46" d="M 628 4666 
L 3309 4666 
L 3309 4134 
L 1259 4134 
L 1259 2759 
L 3109 2759 
L 3109 2228 
L 1259 2228 
L 1259 0 
L 628 0 
L 628 4666 
z
" transform="scale(0.015625)"/>
      <path id="DejaVuSans-35" d="M 691 4666 
L 3169 4666 
L 3169 4134 
L 1269 4134 
L 1269 2991 
Q 1406 3038 1543 3061 
Q 1681 3084 1819 3084 
Q 2600 3084 3056 2656 
Q 3513 2228 3513 1497 
Q 3513 744 3044 326 
Q 2575 -91 1722 -91 
Q 1428 -91 1123 -41 
Q 819 9 494 109 
L 494 744 
Q 775 591 1075 516 
Q 1375 441 1709 441 
Q 2250 441 2565 725 
Q 2881 1009 2881 1497 
Q 2881 1984 2565 2268 
Q 2250 2553 1709 2553 
Q 1456 2553 1204 2497 
Q 953 2441 691 2322 
L 691 4666 
z
" transform="scale(0.015625)"/>
     </defs>
     <use xlink:href="#DejaVuSans-46"/>
     <use xlink:href="#DejaVuSans-6f" x="53.894531"/>
     <use xlink:href="#DejaVuSans-75" x="115.076172"/>
     <use xlink:href="#DejaVuSans-72" x="178.455078"/>
     <use xlink:href="#DejaVuSans-20" x="219.568359"/>
     <use xlink:href="#DejaVuSans-50" x="251.355469"/>
     <use xlink:href="#DejaVuSans-69" x="309.408203"/>
     <use xlink:href="#DejaVuSans-70" x="337.191406"/>
     <use xlink:href="#DejaVuSans-65" x="400.667969"/>
     <use xlink:href="#DejaVuSans-20" x="462.191406"/>
     <use xlink:href="#DejaVuSans-31" x="493.978516"/>
     <use xlink:href="#DejaVuSans-34" x="557.601562"/>
     <use xlink:href="#DejaVuSans-2e" x="621.224609"/>
     <use xlink:href="#DejaVuSans-35" x="653.011719"/>
     <use xlink:href="#DejaVuSans-b0" x="716.634766"/>
    </g>
   </g>
   <g id="text_12">
    <g id="patch_13">
     <path d="M 37.691314 73.628796 
L 38.523019 90.466393 
L 40.496239 90.368924 
L 39.664533 73.531328 
z
" style="fill: #ffffff"/>
    </g>
    <!-- Scissor Bill 15.0° -->
    <g style="fill: #008000" transform="translate(38.127707 73.627265)rotate(-272.827869)scale(0.02 -0.02)">
     <defs>
      <path id="DejaVuSans-63" d="M 3122 3366 
L 3122 2828 
Q 2878 2963 2633 3030 
Q 2388 3097 2138 3097 
Q 1578 3097 1268 2742 
Q 959 2388 959 1747 
Q 959 1106 1268 751 
Q 1578 397 2138 397 
Q 2388 397 2633 464 
Q 2878 531 3122 666 
L 3122 134 
Q 2881 22 2623 -34 
Q 2366 -91 2075 -91 
Q 1284 -91 818 406 
Q 353 903 353 1747 
Q 353 2603 823 3093 
Q 1294 3584 2113 3584 
Q 2378 3584 2631 3529 
Q 2884 3475 3122 3366 
z
" transform="scale(0.015625)"/>
     </defs>
     <use xlink:href="#DejaVuSans-53"/>
     <use xlink:href="#DejaVuSans-63" x="63.476562"/>
     <use xlink:href="#DejaVuSans-69" x="118.457031"/>
     <use xlink:href="#DejaVuSans-73" x="146.240234"/>
     <use xlink:href="#DejaVuSans-73" x="198.339844"/>
     <use xlink:href="#DejaVuSans-6f" x="250.439453"/>
     <use xlink:href="#DejaVuSans-72" x="311.621094"/>
     <use xlink:href="#DejaVuSans-20" x="352.734375"/>
     <use xlink:href="#DejaVuSans-42" x="384.521484"/>
     <use xlink:href="#DejaVuSans-69" x="453.125"/>
     <use xlink:href="#DejaVuSans-6c" x="480.908203"/>
     <use xlink:href="#DejaVuSans-6c" x="508.691406"/>
     <use xlink:href="#DejaVuSans-20" x="536.474609"/>
     <use xlink:href="#DejaVuSans-31" x="568.261719"/>
     <use xlink:href="#DejaVuSans-35" x="631.884766"/>
     <use xlink:href="#DejaVuSans-2e" x="695.507812"/>
     <use xlink:href="#DejaVuSans-30" x="727.294922"/>
     <use xlink:href="#DejaVuSans-b0" x="790.917969"/>
    </g>
   </g>
   <g id="text_13">
    <g id="patch_14">
     <path d="M 51.289021 84.963085 
L 52.233848 67.956185 
L 50.261265 67.846597 
L 49.316437 84.853497 
z
" style="fill: #ffffff"/>
    </g>
    <!-- Bindle Stiff 16.6° -->
    <g style="fill: #008000" transform="translate(50.854864 84.918935)rotate(-86.82017)scale(0.02 -0.02)">
     <defs>
      <path id="DejaVuSans-66" d="M 2375 4863 
L 2375 4384 
L 1825 4384 
Q 1516 4384 1395 4259 
Q 1275 4134 1275 3809 
L 1275 3500 
L 2222 3500 
L 2222 3053 
L 1275 3053 
L 1275 0 
L 697 0 
L 697 3053 
L 147 3053 
L 147 3500 
L 697 3500 
L 697 3744 
Q 697 4328 969 4595 
Q 1241 4863 1831 4863 
L 2375 4863 
z
" transform="scale(0.015625)"/>
     </defs>
     <use xlink:href="#DejaVuSans-42"/>
     <use xlink:href="#DejaVuSans-69" x="68.603516"/>
     <use xlink:href="#DejaVuSans-6e" x="96.386719"/>
     <use xlink:href="#DejaVuSans-64" x="159.765625"/>
     <use xlink:href="#DejaVuSans-6c" x="223.242188"/>
     <use xlink:href="#DejaVuSans-65" x="251.025391"/>
     <use xlink:href="#DejaVuSans-20" x="312.548828"/>
     <use xlink:href="#DejaVuSans-53" x="344.335938"/>
     <use xlink:href="#DejaVuSans-74" x="407.8125"/>
     <use xlink:href="#DejaVuSans-69" x="447.021484"/>
     <use xlink:href="#DejaVuSans-66" x="474.804688"/>
     <use xlink:href="#DejaVuSans-66" x="510.009766"/>
     <use xlink:href="#DejaVuSans-20" x="545.214844"/>
     <use xlink:href="#DejaVuSans-31" x="577.001953"/>
     <use xlink:href="#DejaVuSans-36" x="640.625"/>
     <use xlink:href="#DejaVuSans-2e" x="704.248047"/>
     <use xlink:href="#DejaVuSans-36" x="736.035156"/>
     <use xlink:href="#DejaVuSans-b0" x="799.658203"/>
    </g>
   </g>
   <g id="text_14">
    <g id="patch_15">
     <path d="M 59.860372 90.961922 
L 60.676701 74.460852 
L 58.703489 74.363235 
L 57.88716 90.864305 
z
" style="fill: #ffffff"/>
    </g>
    <!-- Skyhooker 16.5° -->
    <g style="fill: #008000" transform="translate(59.425955 90.920406)rotate(-87.167816)scale(0.02 -0.02)">
     <use xlink:href="#DejaVuSans-53"/>
     <use xlink:href="#DejaVuSans-6b" x="63.476562"/>
     <use xlink:href="#DejaVuSans-79" x="117.761719"/>
     <use xlink:href="#DejaVuSans-68" x="176.941406"/>
     <use xlink:href="#DejaVuSans-6f" x="240.320312"/>
     <use xlink:href="#DejaVuSans-6f" x="301.501953"/>
     <use xlink:href="#DejaVuSans-6b" x="362.683594"/>
     <use xlink:href="#DejaVuSans-65" x="416.96875"/>
     <use xlink:href="#DejaVuSans-72" x="478.492188"/>
     <use xlink:href="#DejaVuSans-20" x="519.605469"/>
     <use xlink:href="#DejaVuSans-31" x="551.392578"/>
     <use xlink:href="#DejaVuSans-36" x="615.015625"/>
     <use xlink:href="#DejaVuSans-2e" x="678.638672"/>
     <use xlink:href="#DejaVuSans-35" x="710.425781"/>
     <use xlink:href="#DejaVuSans-b0" x="774.048828"/>
    </g>
   </g>
   <g id="text_15">
    <g id="patch_16">
     <path d="M 39.925904 150.877795 
L 54.753269 135.379901 
L 53.325751 134.014146 
L 38.498387 149.51204 
z
" style="fill: #ffffff"/>
    </g>
    <!-- Downhill Musher 6.5° -->
    <g style="fill: #008000" transform="translate(39.624737 150.561979)rotate(-46.266676)scale(0.02 -0.02)">
     <use xlink:href="#DejaVuSans-44"/>
     <use xlink:href="#DejaVuSans-6f" x="77.001953"/>
     <use xlink:href="#DejaVuSans-77" x="138.183594"/>
     <use xlink:href="#DejaVuSans-6e" x="219.970703"/>
     <use xlink:href="#DejaVuSans-68" x="283.349609"/>
     <use xlink:href="#DejaVuSans-69" x="346.728516"/>
     <use xlink:href="#DejaVuSans-6c" x="374.511719"/>
     <use xlink:href="#DejaVuSans-6c" x="402.294922"/>
     <use xlink:href="#DejaVuSans-20" x="430.078125"/>
     <use xlink:href="#DejaVuSans-4d" x="461.865234"/>
     <use xlink:href="#DejaVuSans-75" x="548.144531"/>
     <use xlink:href="#DejaVuSans-73" x="611.523438"/>
     <use xlink:href="#DejaVuSans-68" x="663.623047"/>
     <use xlink:href="#DejaVuSans-65" x="727.001953"/>
     <use xlink:href="#DejaVuSans-72" x="788.525391"/>
     <use xlink:href="#DejaVuSans-20" x="829.638672"/>
     <use xlink:href="#DejaVuSans-36" x="861.425781"/>
     <use xlink:href="#DejaVuSans-2e" x="925.048828"/>
     <use xlink:href="#DejaVuSans-35" x="956.835938"/>
     <use xlink:href="#DejaVuSans-b0" x="1020.458984"/>
    </g>
   </g>
   <g id="text_16">
    <g id="patch_17">
     <path d="M 67.376652 78.869128 
L 67.910955 96.690183 
L 69.885693 96.630977 
L 69.35139 78.809923 
z
" style="fill: #ffffff"/>
    </g>
    <!-- Bull Wacker 20.9° -->
    <g style="fill: #4169e1" transform="translate(67.812993 78.876055)rotate(-271.717302)scale(0.02 -0.02)">
     <defs>
      <path id="DejaVuSans-57" d="M 213 4666 
L 850 4666 
L 1831 722 
L 2809 4666 
L 3519 4666 
L 4500 722 
L 5478 4666 
L 6119 4666 
L 4947 0 
L 4153 0 
L 3169 4050 
L 2175 0 
L 1381 0 
L 213 4666 
z
" transform="scale(0.015625)"/>
      <path id="DejaVuSans-32" d="M 1228 531 
L 3431 531 
L 3431 0 
L 469 0 
L 469 531 
Q 828 903 1448 1529 
Q 2069 2156 2228 2338 
Q 2531 2678 2651 2914 
Q 2772 3150 2772 3378 
Q 2772 3750 2511 3984 
Q 2250 4219 1831 4219 
Q 1534 4219 1204 4116 
Q 875 4013 500 3803 
L 500 4441 
Q 881 4594 1212 4672 
Q 1544 4750 1819 4750 
Q 2544 4750 2975 4387 
Q 3406 4025 3406 3419 
Q 3406 3131 3298 2873 
Q 3191 2616 2906 2266 
Q 2828 2175 2409 1742 
Q 1991 1309 1228 531 
z
" transform="scale(0.015625)"/>
      <path id="DejaVuSans-39" d="M 703 97 
L 703 672 
Q 941 559 1184 500 
Q 1428 441 1663 441 
Q 2288 441 2617 861 
Q 2947 1281 2994 2138 
Q 2813 1869 2534 1725 
Q 2256 1581 1919 1581 
Q 1219 1581 811 2004 
Q 403 2428 403 3163 
Q 403 3881 828 4315 
Q 1253 4750 1959 4750 
Q 2769 4750 3195 4129 
Q 3622 3509 3622 2328 
Q 3622 1225 3098 567 
Q 2575 -91 1691 -91 
Q 1453 -91 1209 -44 
Q 966 3 703 97 
z
M 1959 2075 
Q 2384 2075 2632 2365 
Q 2881 2656 2881 3163 
Q 2881 3666 2632 3958 
Q 2384 4250 1959 4250 
Q 1534 4250 1286 3958 
Q 1038 3666 1038 3163 
Q 1038 2656 1286 2365 
Q 1534 2075 1959 2075 
z
" transform="scale(0.015625)"/>
     </defs>
     <use xlink:href="#DejaVuSans-42"/>
     <use xlink:href="#DejaVuSans-75" x="68.603516"/>
     <use xlink:href="#DejaVuSans-6c" x="131.982422"/>
     <use xlink:href="#DejaVuSans-6c" x="159.765625"/>
     <use xlink:href="#DejaVuSans-20" x="187.548828"/>
     <use xlink:href="#DejaVuSans-57" x="219.335938"/>
     <use xlink:href="#DejaVuSans-61" x="311.837891"/>
     <use xlink:href="#DejaVuSans-63" x="373.117188"/>
     <use xlink:href="#DejaVuSans-6b" x="428.097656"/>
     <use xlink:href="#DejaVuSans-65" x="482.382812"/>
     <use xlink:href="#DejaVuSans-72" x="543.90625"/>
     <use xlink:href="#DejaVuSans-20" x="585.019531"/>
     <use xlink:href="#DejaVuSans-32" x="616.806641"/>
     <use xlink:href="#DejaVuSans-30" x="680.429688"/>
     <use xlink:href="#DejaVuSans-2e" x="744.052734"/>
     <use xlink:href="#DejaVuSans-39" x="775.839844"/>
     <use xlink:href="#DejaVuSans-b0" x="839.462891"/>
    </g>
   </g>
   <g id="text_17">
    <g id="patch_18">
     <path d="M 79.189742 87.363925 
L 80.714519 66.974609 
L 78.744395 66.827277 
L 77.219618 87.216593 
z
" style="fill: #ffffff"/>
    </g>
    <!-- Gandy Dancer 18.3° -->
    <g style="fill: #4169e1" transform="translate(78.75651 87.31147)rotate(-85.723204)scale(0.02 -0.02)">
     <defs>
      <path id="DejaVuSans-38" d="M 2034 2216 
Q 1584 2216 1326 1975 
Q 1069 1734 1069 1313 
Q 1069 891 1326 650 
Q 1584 409 2034 409 
Q 2484 409 2743 651 
Q 3003 894 3003 1313 
Q 3003 1734 2745 1975 
Q 2488 2216 2034 2216 
z
M 1403 2484 
Q 997 2584 770 2862 
Q 544 3141 544 3541 
Q 544 4100 942 4425 
Q 1341 4750 2034 4750 
Q 2731 4750 3128 4425 
Q 3525 4100 3525 3541 
Q 3525 3141 3298 2862 
Q 3072 2584 2669 2484 
Q 3125 2378 3379 2068 
Q 3634 1759 3634 1313 
Q 3634 634 3220 271 
Q 2806 -91 2034 -91 
Q 1263 -91 848 271 
Q 434 634 434 1313 
Q 434 1759 690 2068 
Q 947 2378 1403 2484 
z
M 1172 3481 
Q 1172 3119 1398 2916 
Q 1625 2713 2034 2713 
Q 2441 2713 2670 2916 
Q 2900 3119 2900 3481 
Q 2900 3844 2670 4047 
Q 2441 4250 2034 4250 
Q 1625 4250 1398 4047 
Q 1172 3844 1172 3481 
z
" transform="scale(0.015625)"/>
     </defs>
     <use xlink:href="#DejaVuSans-47"/>
     <use xlink:href="#DejaVuSans-61" x="77.490234"/>
     <use xlink:href="#DejaVuSans-6e" x="138.769531"/>
     <use xlink:href="#DejaVuSans-64" x="202.148438"/>
     <use xlink:href="#DejaVuSans-79" x="265.625"/>
     <use xlink:href="#DejaVuSans-20" x="324.804688"/>
     <use xlink:href="#DejaVuSans-44" x="356.591797"/>
     <use xlink:href="#DejaVuSans-61" x="433.59375"/>
     <use xlink:href="#DejaVuSans-6e" x="494.873047"/>
     <use xlink:href="#DejaVuSans-63" x="558.251953"/>
     <use xlink:href="#DejaVuSans-65" x="613.232422"/>
     <use xlink:href="#DejaVuSans-72" x="674.755859"/>
     <use xlink:href="#DejaVuSans-20" x="715.869141"/>
     <use xlink:href="#DejaVuSans-31" x="747.65625"/>
     <use xlink:href="#DejaVuSans-38" x="811.279297"/>
     <use xlink:href="#DejaVuSans-2e" x="874.902344"/>
     <use xlink:href="#DejaVuSans-33" x="906.689453"/>
     <use xlink:href="#DejaVuSans-b0" x="970.3125"/>
    </g>
   </g>
   <g id="text_18">
    <g id="patch_19">
     <path d="M 82.959145 87.1216 
L 85.396763 103.16592 
L 87.349973 102.869168 
L 84.912356 86.824848 
z
" style="fill: #ffffff"/>
    </g>
    <!-- Bear Claw 18.8° -->
    <g style="fill: #4169e1" transform="translate(83.393141 87.075893)rotate(-278.638897)scale(0.02 -0.02)">
     <use xlink:href="#DejaVuSans-42"/>
     <use xlink:href="#DejaVuSans-65" x="68.603516"/>
     <use xlink:href="#DejaVuSans-61" x="130.126953"/>
     <use xlink:href="#DejaVuSans-72" x="191.40625"/>
     <use xlink:href="#DejaVuSans-20" x="232.519531"/>
     <use xlink:href="#DejaVuSans-43" x="264.306641"/>
     <use xlink:href="#DejaVuSans-6c" x="334.130859"/>
     <use xlink:href="#DejaVuSans-61" x="361.914062"/>
     <use xlink:href="#DejaVuSans-77" x="423.193359"/>
     <use xlink:href="#DejaVuSans-20" x="504.980469"/>
     <use xlink:href="#DejaVuSans-31" x="536.767578"/>
     <use xlink:href="#DejaVuSans-38" x="600.390625"/>
     <use xlink:href="#DejaVuSans-2e" x="664.013672"/>
     <use xlink:href="#DejaVuSans-38" x="695.800781"/>
     <use xlink:href="#DejaVuSans-b0" x="759.423828"/>
    </g>
   </g>
   <g id="text_19">
    <g id="patch_20">
     <path d="M 88.461314 66.661158 
L 89.447274 88.30027 
L 91.420852 88.210346 
L 90.434891 66.571234 
z
" style="fill: #ffffff"/>
    </g>
    <!-- Cinder Snapper 17.2° -->
    <g style="fill: #4169e1" transform="translate(88.89771 66.661294)rotate(-272.608809)scale(0.02 -0.02)">
     <use xlink:href="#DejaVuSans-43"/>
     <use xlink:href="#DejaVuSans-69" x="69.824219"/>
     <use xlink:href="#DejaVuSans-6e" x="97.607422"/>
     <use xlink:href="#DejaVuSans-64" x="160.986328"/>
     <use xlink:href="#DejaVuSans-65" x="224.462891"/>
     <use xlink:href="#DejaVuSans-72" x="285.986328"/>
     <use xlink:href="#DejaVuSans-20" x="327.099609"/>
     <use xlink:href="#DejaVuSans-53" x="358.886719"/>
     <use xlink:href="#DejaVuSans-6e" x="422.363281"/>
     <use xlink:href="#DejaVuSans-61" x="485.742188"/>
     <use xlink:href="#DejaVuSans-70" x="547.021484"/>
     <use xlink:href="#DejaVuSans-70" x="610.498047"/>
     <use xlink:href="#DejaVuSans-65" x="673.974609"/>
     <use xlink:href="#DejaVuSans-72" x="735.498047"/>
     <use xlink:href="#DejaVuSans-20" x="776.611328"/>
     <use xlink:href="#DejaVuSans-31" x="808.398438"/>
     <use xlink:href="#DejaVuSans-37" x="872.021484"/>
     <use xlink:href="#DejaVuSans-2e" x="935.644531"/>
     <use xlink:href="#DejaVuSans-32" x="967.431641"/>
     <use xlink:href="#DejaVuSans-b0" x="1031.054688"/>
    </g>
   </g>
   <g id="text_20">
    <g id="patch_21">
     <path d="M 93.899002 117.201946 
L 95.030246 129.859307 
L 96.998027 129.683438 
L 95.866783 117.026077 
z
" style="fill: #ffffff"/>
    </g>
    <!-- Big Air 17.7° -->
    <g style="fill: #4169e1" transform="translate(94.334989 117.18306)rotate(-275.107205)scale(0.02 -0.02)">
     <use xlink:href="#DejaVuSans-42"/>
     <use xlink:href="#DejaVuSans-69" x="68.603516"/>
     <use xlink:href="#DejaVuSans-67" x="96.386719"/>
     <use xlink:href="#DejaVuSans-20" x="159.863281"/>
     <use xlink:href="#DejaVuSans-41" x="191.650391"/>
     <use xlink:href="#DejaVuSans-69" x="260.058594"/>
     <use xlink:href="#DejaVuSans-72" x="287.841797"/>
     <use xlink:href="#DejaVuSans-20" x="328.955078"/>
     <use xlink:href="#DejaVuSans-31" x="360.742188"/>
     <use xlink:href="#DejaVuSans-37" x="424.365234"/>
     <use xlink:href="#DejaVuSans-2e" x="487.988281"/>
     <use xlink:href="#DejaVuSans-37" x="519.775391"/>
     <use xlink:href="#DejaVuSans-b0" x="583.398438"/>
    </g>
   </g>
   <g id="text_21">
    <g id="patch_22">
     <path d="M 104.346879 104.413211 
L 104.916589 88.080019 
L 102.942165 88.01115 
L 102.372455 104.344342 
z
" style="fill: #ffffff"/>
    </g>
    <!-- Spirit Park 20.6° -->
    <g style="fill: #4169e1" transform="translate(103.911904 104.378027)rotate(-88.002305)scale(0.02 -0.02)">
     <use xlink:href="#DejaVuSans-53"/>
     <use xlink:href="#DejaVuSans-70" x="63.476562"/>
     <use xlink:href="#DejaVuSans-69" x="126.953125"/>
     <use xlink:href="#DejaVuSans-72" x="154.736328"/>
     <use xlink:href="#DejaVuSans-69" x="195.849609"/>
     <use xlink:href="#DejaVuSans-74" x="223.632812"/>
     <use xlink:href="#DejaVuSans-20" x="262.841797"/>
     <use xlink:href="#DejaVuSans-50" x="294.628906"/>
     <use xlink:href="#DejaVuSans-61" x="350.431641"/>
     <use xlink:href="#DejaVuSans-72" x="411.710938"/>
     <use xlink:href="#DejaVuSans-6b" x="452.824219"/>
     <use xlink:href="#DejaVuSans-20" x="510.734375"/>
     <use xlink:href="#DejaVuSans-32" x="542.521484"/>
     <use xlink:href="#DejaVuSans-30" x="606.144531"/>
     <use xlink:href="#DejaVuSans-2e" x="669.767578"/>
     <use xlink:href="#DejaVuSans-36" x="701.554688"/>
     <use xlink:href="#DejaVuSans-b0" x="765.177734"/>
    </g>
   </g>
   <g id="text_22">
    <g id="patch_23">
     <path d="M 49.599547 21.187817 
L 52.041672 47.214117 
L 54.008657 47.029549 
L 51.566532 21.003249 
z
" style="fill: #ffffff"/>
    </g>
    <!-- Lone Oak Rope Park 10.2° -->
    <g style="fill: #008000" transform="translate(50.035446 21.167003)rotate(-275.360537)scale(0.02 -0.02)">
     <defs>
      <path id="DejaVuSans-4c" d="M 628 4666 
L 1259 4666 
L 1259 531 
L 3531 531 
L 3531 0 
L 628 0 
L 628 4666 
z
" transform="scale(0.015625)"/>
      <path id="DejaVuSans-4f" d="M 2522 4238 
Q 1834 4238 1429 3725 
Q 1025 3213 1025 2328 
Q 1025 1447 1429 934 
Q 1834 422 2522 422 
Q 3209 422 3611 934 
Q 4013 1447 4013 2328 
Q 4013 3213 3611 3725 
Q 3209 4238 2522 4238 
z
M 2522 4750 
Q 3503 4750 4090 4092 
Q 4678 3434 4678 2328 
Q 4678 1225 4090 567 
Q 3503 -91 2522 -91 
Q 1538 -91 948 565 
Q 359 1222 359 2328 
Q 359 3434 948 4092 
Q 1538 4750 2522 4750 
z
" transform="scale(0.015625)"/>
      <path id="DejaVuSans-52" d="M 2841 2188 
Q 3044 2119 3236 1894 
Q 3428 1669 3622 1275 
L 4263 0 
L 3584 0 
L 2988 1197 
Q 2756 1666 2539 1819 
Q 2322 1972 1947 1972 
L 1259 1972 
L 1259 0 
L 628 0 
L 628 4666 
L 2053 4666 
Q 2853 4666 3247 4331 
Q 3641 3997 3641 3322 
Q 3641 2881 3436 2590 
Q 3231 2300 2841 2188 
z
M 1259 4147 
L 1259 2491 
L 2053 2491 
Q 2509 2491 2742 2702 
Q 2975 2913 2975 3322 
Q 2975 3731 2742 3939 
Q 2509 4147 2053 4147 
L 1259 4147 
z
" transform="scale(0.015625)"/>
     </defs>
     <use xlink:href="#DejaVuSans-4c"/>
     <use xlink:href="#DejaVuSans-6f" x="53.962891"/>
     <use xlink:href="#DejaVuSans-6e" x="115.144531"/>
     <use xlink:href="#DejaVuSans-65" x="178.523438"/>
     <use xlink:href="#DejaVuSans-20" x="240.046875"/>
     <use xlink:href="#DejaVuSans-4f" x="271.833984"/>
     <use xlink:href="#DejaVuSans-61" x="350.544922"/>
     <use xlink:href="#DejaVuSans-6b" x="411.824219"/>
     <use xlink:href="#DejaVuSans-20" x="469.734375"/>
     <use xlink:href="#DejaVuSans-52" x="501.521484"/>
     <use xlink:href="#DejaVuSans-6f" x="566.503906"/>
     <use xlink:href="#DejaVuSans-70" x="627.685547"/>
     <use xlink:href="#DejaVuSans-65" x="691.162109"/>
     <use xlink:href="#DejaVuSans-20" x="752.685547"/>
     <use xlink:href="#DejaVuSans-50" x="784.472656"/>
     <use xlink:href="#DejaVuSans-61" x="840.275391"/>
     <use xlink:href="#DejaVuSans-72" x="901.554688"/>
     <use xlink:href="#DejaVuSans-6b" x="942.667969"/>
     <use xlink:href="#DejaVuSans-20" x="1000.578125"/>
     <use xlink:href="#DejaVuSans-31" x="1032.365234"/>
     <use xlink:href="#DejaVuSans-30" x="1095.988281"/>
     <use xlink:href="#DejaVuSans-2e" x="1159.611328"/>
     <use xlink:href="#DejaVuSans-32" x="1191.398438"/>
     <use xlink:href="#DejaVuSans-b0" x="1255.021484"/>
    </g>
   </g>
   <g id="text_23">
    <g id="patch_24">
     <path d="M 4.109247 96.752677 
L 9.515796 116.927033 
L 11.424083 116.415629 
L 6.017534 96.241273 
z
" style="fill: #ffffff"/>
    </g>
    <!-- Timber Cruiser 15.5° -->
    <g style="fill: #008000" transform="translate(4.535503 96.65915)rotate(-285.002244)scale(0.02 -0.02)">
     <defs>
      <path id="DejaVuSans-54" d="M -19 4666 
L 3928 4666 
L 3928 4134 
L 2272 4134 
L 2272 0 
L 1638 0 
L 1638 4134 
L -19 4134 
L -19 4666 
z
" transform="scale(0.015625)"/>
     </defs>
     <use xlink:href="#DejaVuSans-54"/>
     <use xlink:href="#DejaVuSans-69" x="57.958984"/>
     <use xlink:href="#DejaVuSans-6d" x="85.742188"/>
     <use xlink:href="#DejaVuSans-62" x="183.154297"/>
     <use xlink:href="#DejaVuSans-65" x="246.630859"/>
     <use xlink:href="#DejaVuSans-72" x="308.154297"/>
     <use xlink:href="#DejaVuSans-20" x="349.267578"/>
     <use xlink:href="#DejaVuSans-43" x="381.054688"/>
     <use xlink:href="#DejaVuSans-72" x="450.878906"/>
     <use xlink:href="#DejaVuSans-75" x="491.992188"/>
     <use xlink:href="#DejaVuSans-69" x="555.371094"/>
     <use xlink:href="#DejaVuSans-73" x="583.154297"/>
     <use xlink:href="#DejaVuSans-65" x="635.253906"/>
     <use xlink:href="#DejaVuSans-72" x="696.777344"/>
     <use xlink:href="#DejaVuSans-20" x="737.890625"/>
     <use xlink:href="#DejaVuSans-31" x="769.677734"/>
     <use xlink:href="#DejaVuSans-35" x="833.300781"/>
     <use xlink:href="#DejaVuSans-2e" x="896.923828"/>
     <use xlink:href="#DejaVuSans-35" x="928.710938"/>
     <use xlink:href="#DejaVuSans-b0" x="992.333984"/>
    </g>
   </g>
   <g id="text_24">
    <!-- Spirit Mountain -->
    <g transform="translate(27.72088 7.197366)scale(0.07 -0.07)">
     <use xlink:href="#DejaVuSans-53"/>
     <use xlink:href="#DejaVuSans-70" x="63.476562"/>
     <use xlink:href="#DejaVuSans-69" x="126.953125"/>
     <use xlink:href="#DejaVuSans-72" x="154.736328"/>
     <use xlink:href="#DejaVuSans-69" x="195.849609"/>
     <use xlink:href="#DejaVuSans-74" x="223.632812"/>
     <use xlink:href="#DejaVuSans-20" x="262.841797"/>
     <use xlink:href="#DejaVuSans-4d" x="294.628906"/>
     <use xlink:href="#DejaVuSans-6f" x="380.908203"/>
     <use xlink:href="#DejaVuSans-75" x="442.089844"/>
     <use xlink:href="#DejaVuSans-6e" x="505.46875"/>
     <use xlink:href="#DejaVuSans-74" x="568.847656"/>
     <use xlink:href="#DejaVuSans-61" x="608.056641"/>
     <use xlink:href="#DejaVuSans-69" x="669.335938"/>
     <use xlink:href="#DejaVuSans-6e" x="697.119141"/>
    </g>
   </g>
   <g id="legend_1">
    <g id="line2d_35">
     <path d="M 5.336466 163.109937 
L 8.836466 163.109937 
L 12.336466 163.109937 
" style="fill: none; stroke: #008000; stroke-width: 0.503128; stroke-linecap: square"/>
    </g>
    <g id="text_25">
     <!-- Easy -->
     <g transform="translate(15.136466 164.334937)scale(0.035 -0.035)">
      <use xlink:href="#DejaVuSans-45"/>
      <use xlink:href="#DejaVuSans-61" x="63.183594"/>
      <use xlink:href="#DejaVuSans-73" x="124.462891"/>
      <use xlink:href="#DejaVuSans-79" x="176.5625"/>
     </g>
    </g>
    <g id="line2d_36">
     <path d="M 5.336466 168.247281 
L 8.836466 168.247281 
L 12.336466 168.247281 
" style="fill: none; stroke: #4169e1; stroke-width: 0.503128; stroke-linecap: square"/>
    </g>
    <g id="text_26">
     <!-- Intermediate -->
     <g transform="translate(15.136466 169.472281)scale(0.035 -0.035)">
      <use xlink:href="#DejaVuSans-49"/>
      <use xlink:href="#DejaVuSans-6e" x="29.492188"/>
      <use xlink:href="#DejaVuSans-74" x="92.871094"/>
      <use xlink:href="#DejaVuSans-65" x="132.080078"/>
      <use xlink:href="#DejaVuSans-72" x="193.603516"/>
      <use xlink:href="#DejaVuSans-6d" x="232.966797"/>
      <use xlink:href="#DejaVuSans-65" x="330.378906"/>
      <use xlink:href="#DejaVuSans-64" x="391.902344"/>
      <use xlink:href="#DejaVuSans-69" x="455.378906"/>
      <use xlink:href="#DejaVuSans-61" x="483.162109"/>
      <use xlink:href="#DejaVuSans-74" x="544.441406"/>
      <use xlink:href="#DejaVuSans-65" x="583.650391"/>
     </g>
    </g>
    <g id="line2d_37">
     <path d="M 44.718029 163.109937 
L 48.218029 163.109937 
L 51.718029 163.109937 
" style="fill: none; stroke: #000000; stroke-width: 0.503128; stroke-linecap: square"/>
    </g>
    <g id="text_27">
     <!-- Advanced -->
     <g transform="translate(54.518029 164.334937)scale(0.035 -0.035)">
      <defs>
       <path id="DejaVuSans-76" d="M 191 3500 
L 800 3500 
L 1894 563 
L 2988 3500 
L 3597 3500 
L 2284 0 
L 1503 0 
L 191 3500 
z
" transform="scale(0.015625)"/>
      </defs>
      <use xlink:href="#DejaVuSans-41"/>
      <use xlink:href="#DejaVuSans-64" x="66.658203"/>
      <use xlink:href="#DejaVuSans-76" x="130.134766"/>
      <use xlink:href="#DejaVuSans-61" x="189.314453"/>
      <use xlink:href="#DejaVuSans-6e" x="250.59375"/>
      <use xlink:href="#DejaVuSans-63" x="313.972656"/>
      <use xlink:href="#DejaVuSans-65" x="368.953125"/>
      <use xlink:href="#DejaVuSans-64" x="430.476562"/>
     </g>
    </g>
    <g id="line2d_38">
     <path d="M 44.718029 168.247281 
L 48.218029 168.247281 
L 51.718029 168.247281 
" style="fill: none; stroke: #ff0000; stroke-width: 0.503128; stroke-linecap: square"/>
    </g>
    <g id="text_28">
     <!-- Expert -->
     <g transform="translate(54.518029 169.472281)scale(0.035 -0.035)">
      <use xlink:href="#DejaVuSans-45"/>
      <use xlink:href="#DejaVuSans-78" x="63.183594"/>
      <use xlink:href="#DejaVuSans-70" x="122.363281"/>
      <use xlink:href="#DejaVuSans-65" x="185.839844"/>
      <use xlink:href="#DejaVuSans-72" x="247.363281"/>
      <use xlink:href="#DejaVuSans-74" x="288.476562"/>
     </g>
    </g>
    <g id="line2d_39">
     <path d="M 78.807482 163.109937 
L 82.307482 163.109937 
L 85.807482 163.109937 
" style="fill: none; stroke: #ffd700; stroke-width: 0.503128; stroke-linecap: square"/>
    </g>
    <g id="text_29">
     <!-- Extreme -->
     <g transform="translate(88.607482 164.334937)scale(0.035 -0.035)">
      <use xlink:href="#DejaVuSans-45"/>
      <use xlink:href="#DejaVuSans-78" x="63.183594"/>
      <use xlink:href="#DejaVuSans-74" x="122.363281"/>
      <use xlink:href="#DejaVuSans-72" x="161.572266"/>
      <use xlink:href="#DejaVuSans-65" x="200.435547"/>
      <use xlink:href="#DejaVuSans-6d" x="261.958984"/>
      <use xlink:href="#DejaVuSans-65" x="359.371094"/>
     </g>
    </g>
    <g id="line2d_40">
     <path d="M 78.807482 168.247281 
L 82.307482 168.247281 
L 85.807482 168.247281 
" style="fill: none; stroke-dasharray: 0.503128,0.830161; stroke-dashoffset: 0; stroke: #000000; stroke-width: 0.503128"/>
    </g>
    <g id="text_30">
     <!-- Gladed -->
     <g transform="translate(88.607482 169.472281)scale(0.035 -0.035)">
      <use xlink:href="#DejaVuSans-47"/>
      <use xlink:href="#DejaVuSans-6c" x="77.490234"/>
      <use xlink:href="#DejaVuSans-61" x="105.273438"/>
      <use xlink:href="#DejaVuSans-64" x="166.552734"/>
      <use xlink:href="#DejaVuSans-65" x="230.029297"/>
      <use xlink:href="#DejaVuSans-64" x="291.552734"/>
     </g>
    </g>
   </g>
  </g>
  <g id="text_31">
   <!-- Sources: USGS and OpenStreetMaps -->
   <g transform="translate(26.575367 174.027578)scale(0.030435 -0.030435)">
    <defs>
     <path id="DejaVuSans-3a" d="M 750 794 
L 1409 794 
L 1409 0 
L 750 0 
L 750 794 
z
M 750 3309 
L 1409 3309 
L 1409 2516 
L 750 2516 
L 750 3309 
z
" transform="scale(0.015625)"/>
     <path id="DejaVuSans-55" d="M 556 4666 
L 1191 4666 
L 1191 1831 
Q 1191 1081 1462 751 
Q 1734 422 2344 422 
Q 2950 422 3222 751 
Q 3494 1081 3494 1831 
L 3494 4666 
L 4128 4666 
L 4128 1753 
Q 4128 841 3676 375 
Q 3225 -91 2344 -91 
Q 1459 -91 1007 375 
Q 556 841 556 1753 
L 556 4666 
z
" transform="scale(0.015625)"/>
    </defs>
    <use xlink:href="#DejaVuSans-53"/>
    <use xlink:href="#DejaVuSans-6f" x="63.476562"/>
    <use xlink:href="#DejaVuSans-75" x="124.658203"/>
    <use xlink:href="#DejaVuSans-72" x="188.037109"/>
    <use xlink:href="#DejaVuSans-63" x="226.900391"/>
    <use xlink:href="#DejaVuSans-65" x="281.880859"/>
    <use xlink:href="#DejaVuSans-73" x="343.404297"/>
    <use xlink:href="#DejaVuSans-3a" x="395.503906"/>
    <use xlink:href="#DejaVuSans-20" x="429.195312"/>
    <use xlink:href="#DejaVuSans-55" x="460.982422"/>
    <use xlink:href="#DejaVuSans-53" x="534.175781"/>
    <use xlink:href="#DejaVuSans-47" x="597.652344"/>
    <use xlink:href="#DejaVuSans-53" x="675.142578"/>
    <use xlink:href="#DejaVuSans-20" x="738.619141"/>
    <use xlink:href="#DejaVuSans-61" x="770.40625"/>
    <use xlink:href="#DejaVuSans-6e" x="831.685547"/>
    <use xlink:href="#DejaVuSans-64" x="895.064453"/>
    <use xlink:href="#DejaVuSans-20" x="958.541016"/>
    <use xlink:href="#DejaVuSans-4f" x="990.328125"/>
    <use xlink:href="#DejaVuSans-70" x="1069.039062"/>
    <use xlink:href="#DejaVuSans-65" x="1132.515625"/>
    <use xlink:href="#DejaVuSans-6e" x="1194.039062"/>
    <use xlink:href="#DejaVuSans-53" x="1257.417969"/>
    <use xlink:href="#DejaVuSans-74" x="1320.894531"/>
    <use xlink:href="#DejaVuSans-72" x="1360.103516"/>
    <use xlink:href="#DejaVuSans-65" x="1398.966797"/>
    <use xlink:href="#DejaVuSans-65" x="1460.490234"/>
    <use xlink:href="#DejaVuSans-74" x="1522.013672"/>
    <use xlink:href="#DejaVuSans-4d" x="1561.222656"/>
    <use xlink:href="#DejaVuSans-61" x="1647.501953"/>
    <use xlink:href="#DejaVuSans-70" x="1708.78125"/>
    <use xlink:href="#DejaVuSans-73" x="1772.257812"/>
   </g>
  </g>
 </g>
 <defs>
  <clipPath id="pe01e82d653">
   <rect x="0" y="10.697366" width="108.675667" height="153.265794"/>
  </clipPath>
 </defs>
</svg>
