<?xml version="1.0" encoding="utf-8" standalone="no"?>
<!DOCTYPE svg PUBLIC "-//W3C//DTD SVG 1.1//EN"
  "http://www.w3.org/Graphics/SVG/1.1/DTD/svg11.dtd">
<svg height="106.202866pt" version="1.1" viewBox="0 0 103.923278 106.202866" width="103.923278pt" xmlns="http://www.w3.org/2000/svg" xmlns:xlink="http://www.w3.org/1999/xlink">
 <metadata>
  <rdf:RDF xmlns:cc="http://creativecommons.org/ns#" xmlns:dc="http://purl.org/dc/elements/1.1/" xmlns:rdf="http://www.w3.org/1999/02/22-rdf-syntax-ns#">
   <cc:Work>
    <dc:type rdf:resource="http://purl.org/dc/dcmitype/StillImage"/>
    <dc:date>2022-05-18T23:20:40.068045</dc:date>
    <dc:format>image/svg+xml</dc:format>
    <dc:creator>
     <cc:Agent>
      <dc:title>Matplotlib v3.4.3, https://matplotlib.org/</dc:title>
     </cc:Agent>
    </dc:creator>
   </cc:Work>
  </rdf:RDF>
 </metadata>
 <defs>
  <style type="text/css">*{stroke-linecap:butt;stroke-linejoin:round;}</style>
 </defs>
 <g id="figure_1">
  <g id="patch_1">
   <path d="M 0 106.202866 
L 103.923278 106.202866 
L 103.923278 0 
L 0 0 
z
" style="fill:#ffffff;"/>
  </g>
  <g id="axes_1">
   <g id="line2d_1">
    <path clip-path="url(#p3f07f56a1f)" d="M 4.723785 36.103027 
" style="fill:none;stroke:#008000;stroke-linecap:square;stroke-width:0.001;"/>
   </g>
   <g id="line2d_2">
    <path clip-path="url(#p3f07f56a1f)" d="M 4.723785 36.103027 
" style="fill:none;stroke:#4169e1;stroke-linecap:square;stroke-width:0.001;"/>
   </g>
   <g id="line2d_3">
    <path clip-path="url(#p3f07f56a1f)" d="M 4.723785 36.103027 
" style="fill:none;stroke:#000000;stroke-linecap:square;stroke-width:0.001;"/>
   </g>
   <g id="line2d_4">
    <path clip-path="url(#p3f07f56a1f)" d="M 4.723785 36.103027 
" style="fill:none;stroke:#ff0000;stroke-linecap:square;stroke-width:0.001;"/>
   </g>
   <g id="line2d_5">
    <path clip-path="url(#p3f07f56a1f)" d="M 4.723785 36.103027 
" style="fill:none;stroke:#ffd700;stroke-linecap:square;stroke-width:0.001;"/>
   </g>
   <g id="line2d_6">
    <path clip-path="url(#p3f07f56a1f)" d="M 4.723785 36.103027 
" style="fill:none;stroke:#000000;stroke-dasharray:0.001,0.00165;stroke-dashoffset:0;stroke-width:0.001;"/>
   </g>
   <g id="line2d_7">
    <path clip-path="url(#p3f07f56a1f)" d="M 56.071652 76.326952 
L 54.646576 71.459795 
L 53.494433 67.526496 
L 52.34229 63.593197 
L 50.987085 58.966833 
L 49.63188 54.34047 
L 48.621662 50.891897 
" style="fill:none;stroke:#808080;stroke-linecap:square;stroke-width:0.481126;"/>
   </g>
   <g id="line2d_8">
    <path clip-path="url(#p3f07f56a1f)" d="M 73.34142 75.782551 
L 70.163748 71.08709 
L 68.197172 68.181348 
L 66.230596 65.275606 
L 63.261809 60.888989 
L 60.293021 56.502371 
L 56.854789 51.421641 
L 55.703374 49.721434 
" style="fill:none;stroke:#808080;stroke-linecap:square;stroke-width:0.481126;"/>
   </g>
   <g id="line2d_9">
    <path clip-path="url(#p3f07f56a1f)" d="M 9.534691 76.990703 
L 9.39786 75.504069 
L 9.242106 73.801768 
L 8.932054 70.402401 
L 8.528841 66.00479 
L 8.125627 61.607179 
L 7.684567 56.787658 
L 7.243506 51.968136 
L 6.683083 45.849904 
L 6.12266 39.731671 
L 5.856277 36.814937 
" style="fill:none;stroke:#808080;stroke-linecap:square;stroke-width:0.481126;"/>
   </g>
   <g id="line2d_10">
    <path clip-path="url(#p3f07f56a1f)" d="M 98.163073 41.835991 
L 94.37403 40.64459 
L 91.723301 39.811237 
L 88.24795 38.718771 
L 84.772598 37.626304 
L 79.47114 35.959598 
L 74.619476 34.434228 
L 71.318074 33.396201 
L 68.016672 32.358175 
L 66.089398 31.752005 
" style="fill:none;stroke:#808080;stroke-linecap:square;stroke-width:0.481126;"/>
   </g>
   <g id="line2d_11">
    <path clip-path="url(#p3f07f56a1f)" d="M 99.199492 48.77292 
L 95.141155 48.059963 
L 91.63669 47.443848 
L 88.132226 46.827732 
L 84.059332 46.111635 
L 79.986438 45.395538 
L 76.203218 44.730217 
L 72.419997 44.064896 
L 67.749561 43.244106 
L 63.079125 42.423317 
" style="fill:none;stroke:#808080;stroke-linecap:square;stroke-width:0.481126;"/>
   </g>
   <g id="line2d_12">
    <path clip-path="url(#p3f07f56a1f)" d="M 86.325771 55.154978 
L 80.820523 53.263183 
L 75.797093 51.53785 
L 70.773663 49.812517 
L 67.231352 48.595466 
L 63.68904 47.378415 
L 61.336719 46.570188 
" style="fill:none;stroke:#808080;stroke-linecap:square;stroke-width:0.481126;"/>
   </g>
   <g id="line2d_13">
    <path clip-path="url(#p3f07f56a1f)" d="M 38.534044 91.233077 
L 38.386297 87.076783 
L 38.238549 82.920489 
" style="fill:none;stroke:#808080;stroke-linecap:square;stroke-width:0.481126;"/>
   </g>
   <g id="line2d_14">
    <path clip-path="url(#p3f07f56a1f)" d="M 25.328436 83.660665 
L 25.826266 79.059428 
L 26.251315 75.128222 
L 26.676363 71.197017 
L 27.156726 66.761194 
L 27.637088 62.32537 
L 28.070143 58.316693 
L 28.503197 54.308015 
L 29.124757 48.568769 
" style="fill:none;stroke:#808080;stroke-linecap:square;stroke-width:0.481126;"/>
   </g>
   <g id="line2d_15">
    <path clip-path="url(#p3f07f56a1f)" d="M 97.957828 35.416244 
L 93.605814 33.9372 
L 89.2538 32.458156 
L 84.901786 30.979112 
L 80.549773 29.500068 
" style="fill:none;stroke:#808080;stroke-linecap:square;stroke-width:0.481126;"/>
   </g>
   <g id="line2d_16">
    <path clip-path="url(#p3f07f56a1f)" d="M 97.761316 36.288333 
L 93.408938 34.809551 
L 89.05656 33.330769 
L 84.70491 31.851463 
L 80.353261 30.372157 
" style="fill:none;stroke:#808080;stroke-linecap:square;stroke-width:0.481126;"/>
   </g>
   <g id="line2d_17">
    <path clip-path="url(#p3f07f56a1f)" d="M 20.895998 87.59187 
L 15.630931 86.944347 
L 10.365864 86.296824 
" style="fill:none;stroke:#808080;stroke-linecap:square;stroke-width:0.481126;"/>
   </g>
   <g id="line2d_18">
    <path clip-path="url(#p3f07f56a1f)" d="M 30.849696 14.951991 
L 25.751301 15.037054 
L 20.652905 15.122117 
L 15.55451 15.207179 
L 10.456114 15.292242 
" style="fill:none;stroke:#808080;stroke-linecap:square;stroke-width:0.481126;"/>
   </g>
   <g id="line2d_19">
    <path clip-path="url(#p3f07f56a1f)" d="M 30.549833 15.632493 
L 25.526404 15.717556 
L 20.502974 15.802618 
L 15.479544 15.887681 
L 10.456114 15.972744 
" style="fill:none;stroke:#808080;stroke-linecap:square;stroke-width:0.481126;"/>
   </g>
   <g id="line2d_20">
    <path clip-path="url(#p3f07f56a1f)" d="M 4.723785 36.103027 
L 4.826317 37.433342 
L 4.928849 38.763658 
L 5.031381 40.093973 
L 5.133913 41.424288 
L 5.236445 42.754603 
L 5.338977 44.084918 
L 5.441509 45.415233 
L 5.544041 46.745548 
L 5.646573 48.075864 
L 5.749105 49.406179 
L 5.851637 50.736494 
L 5.954169 52.066809 
L 6.056701 53.397124 
L 6.159233 54.727439 
L 6.261765 56.057755 
L 6.364297 57.38807 
L 6.466829 58.718385 
L 6.569361 60.0487 
L 6.671893 61.379015 
L 6.774425 62.70933 
L 6.876957 64.039645 
L 6.979489 65.369961 
L 7.082021 66.700276 
L 7.184553 68.030591 
L 7.287085 69.360906 
L 7.389617 70.691221 
L 7.492149 72.021536 
L 7.594681 73.351851 
L 7.697213 74.682167 
L 7.799745 76.012482 
L 7.902277 77.342797 
L 8.004808 78.673112 
" style="fill:none;stroke:#4169e1;stroke-linecap:square;stroke-width:0.481126;"/>
   </g>
   <g id="line2d_21">
    <path clip-path="url(#p3f07f56a1f)" d="M 6.278414 35.316786 
L 6.926176 36.510281 
L 7.573938 37.703776 
L 8.2217 38.897271 
L 8.869461 40.090767 
L 8.955799 41.245591 
L 9.042137 42.400415 
L 9.128475 43.555239 
L 9.214813 44.710064 
L 9.301151 45.864888 
L 9.387489 47.019712 
L 9.473827 48.174536 
L 9.560165 49.329361 
L 9.646503 50.484185 
L 9.732841 51.639009 
L 9.819179 52.793833 
L 9.905517 53.948658 
L 9.991854 55.103482 
L 10.078192 56.258306 
L 10.16453 57.41313 
L 10.250868 58.567955 
L 10.337206 59.722779 
L 10.423544 60.877603 
L 10.509882 62.032428 
L 10.59622 63.187252 
L 10.682558 64.342076 
L 10.768896 65.4969 
L 10.855234 66.651725 
L 10.941572 67.806549 
L 11.02791 68.961373 
L 11.114247 70.116197 
L 11.200585 71.271022 
L 11.286923 72.425846 
L 11.373261 73.58067 
L 11.459599 74.735494 
L 11.545937 75.890319 
L 11.632275 77.045143 
" style="fill:none;stroke:#4169e1;stroke-linecap:square;stroke-width:0.481126;"/>
   </g>
   <g id="line2d_22">
    <path clip-path="url(#p3f07f56a1f)" d="M 34.410203 46.728274 
L 35.638403 46.862542 
L 36.866604 46.996811 
L 38.094804 47.131079 
L 39.323004 47.265347 
L 40.525366 45.84781 
L 39.372496 44.576842 
L 38.069694 43.354033 
L 36.566013 42.474092 
L 35.062332 41.594152 
L 33.207841 41.251807 
L 31.353349 40.909462 
L 29.573824 41.349694 
L 27.794298 41.789927 
L 26.77935 42.327785 
L 25.764401 42.865643 
L 24.749453 43.403501 
L 23.734505 43.941359 
L 23.107122 44.767252 
L 22.479739 45.593145 
L 21.852356 46.419039 
L 21.224974 47.244932 
L 20.597591 48.070825 
L 19.970208 48.896719 
L 19.342825 49.722612 
L 18.715442 50.548505 
" style="fill:none;stroke:#008000;stroke-linecap:square;stroke-width:0.481126;"/>
   </g>
   <g id="line2d_23">
    <path clip-path="url(#p3f07f56a1f)" d="M 6.894152 33.527591 
L 8.009175 33.600875 
L 9.124199 33.67416 
L 10.239223 33.747445 
L 11.354247 33.82073 
L 12.24401 34.920787 
L 13.133773 36.020844 
L 14.023535 37.120901 
L 14.913298 38.220958 
L 15.815434 39.516528 
L 16.71757 40.812098 
L 17.619706 42.107668 
L 18.521841 43.403239 
L 18.570242 45.189555 
L 18.618642 46.975872 
L 18.667042 48.762189 
L 18.715442 50.548505 
L 18.742372 51.549104 
L 18.769301 52.549703 
L 18.79623 53.550303 
L 18.82316 54.550902 
L 18.73855 55.687601 
L 18.653941 56.8243 
L 18.569332 57.961 
L 18.484722 59.097699 
L 18.400113 60.234398 
L 18.315504 61.371098 
L 18.230894 62.507797 
L 18.146285 63.644496 
L 18.061676 64.781196 
L 17.977066 65.917895 
L 17.892457 67.054595 
L 17.807848 68.191294 
L 17.723238 69.327993 
L 17.638629 70.464693 
L 17.55402 71.601392 
L 17.46941 72.738091 
L 18.108438 74.070304 
L 18.747466 75.402517 
L 19.386494 76.73473 
L 20.025522 78.066942 
L 20.576848 79.509344 
L 21.128173 80.951745 
L 21.679499 82.394147 
L 22.230824 83.836549 
" style="fill:none;stroke:#008000;stroke-linecap:square;stroke-width:0.481126;"/>
   </g>
   <g id="line2d_24">
    <path clip-path="url(#p3f07f56a1f)" d="M 28.395479 46.728274 
L 27.468234 48.195017 
L 26.540988 49.661759 
L 26.321731 50.608965 
L 26.102475 51.556171 
L 25.883218 52.503377 
L 25.663962 53.450583 
L 25.444706 54.397789 
L 25.225449 55.344995 
L 25.006193 56.2922 
L 24.786936 57.239406 
L 24.627179 58.901728 
L 24.467422 60.564049 
L 24.307665 62.22637 
L 24.147908 63.888692 
L 23.988151 65.551013 
L 23.828394 67.213335 
L 23.668637 68.875656 
L 23.50888 70.537977 
L 23.349123 72.200299 
L 23.189366 73.86262 
L 23.029609 75.524942 
L 22.869852 77.187263 
L 22.710095 78.849584 
L 22.550338 80.511906 
L 22.390581 82.174227 
L 22.230824 83.836549 
" style="fill:none;stroke:#008000;stroke-linecap:square;stroke-width:0.481126;"/>
   </g>
   <g id="line2d_25">
    <path clip-path="url(#p3f07f56a1f)" d="M 30.501797 46.728274 
L 31.228164 48.463553 
L 31.954531 50.198832 
L 31.821385 51.246968 
L 31.688239 52.295104 
L 31.555093 53.34324 
L 31.421947 54.391376 
L 31.288801 55.439512 
L 31.155655 56.487648 
L 31.022509 57.535784 
L 30.889363 58.58392 
L 30.756217 59.632056 
L 30.623071 60.680192 
L 30.489925 61.728328 
L 30.356779 62.776464 
L 30.223633 63.8246 
L 30.090487 64.872736 
L 29.957341 65.920872 
L 29.824195 66.969008 
L 29.691049 68.017144 
L 29.557903 69.06528 
L 29.424757 70.113416 
L 29.291611 71.161552 
L 29.158465 72.209688 
L 29.025319 73.257825 
L 28.892173 74.305961 
L 28.759027 75.354097 
L 28.625881 76.402233 
L 28.492735 77.450369 
L 28.359589 78.498505 
L 28.226443 79.546641 
L 28.093297 80.594777 
L 27.960151 81.642913 
L 27.827005 82.691049 
L 27.693859 83.739185 
" style="fill:none;stroke:#008000;stroke-linecap:square;stroke-width:0.481126;"/>
   </g>
   <g id="line2d_26">
    <path clip-path="url(#p3f07f56a1f)" d="M 32.555712 45.652035 
L 33.063186 46.532107 
L 33.57066 47.412178 
L 34.078134 48.29225 
L 34.585608 49.172322 
L 35.093082 50.052394 
L 35.600557 50.932465 
L 36.108031 51.812537 
L 36.615505 52.692609 
L 36.643708 54.474083 
L 36.671911 56.255558 
L 36.700114 58.037033 
L 36.728317 59.818507 
L 36.75652 61.599982 
L 36.784723 63.381456 
L 36.812927 65.162931 
L 36.84113 66.944406 
L 36.869333 68.72588 
L 36.897536 70.507355 
L 36.925739 72.28883 
L 36.953942 74.070304 
L 36.982145 75.851779 
L 37.010348 77.633253 
L 37.038552 79.414728 
L 37.066755 81.196203 
" style="fill:none;stroke:#008000;stroke-linecap:square;stroke-width:0.481126;"/>
   </g>
   <g id="line2d_27">
    <path clip-path="url(#p3f07f56a1f)" d="M 57.767478 47.950036 
L 58.067341 46.874844 
L 57.065857 46.140949 
L 55.656065 46.208214 
L 54.246273 46.275479 
L 52.836481 46.342744 
L 51.426689 46.410009 
L 50.016898 46.477274 
L 48.607106 46.544539 
L 47.197314 46.611804 
L 45.787522 46.679069 
L 43.884267 46.378601 
L 41.981011 46.078133 
L 40.525366 45.84781 
" style="fill:none;stroke:#008000;stroke-linecap:square;stroke-width:0.481126;"/>
   </g>
   <g id="line2d_28">
    <path clip-path="url(#p3f07f56a1f)" d="M 41.981011 46.078133 
L 41.310323 46.904943 
L 40.639635 47.731752 
L 39.968946 48.558562 
L 39.298258 49.385371 
L 38.62757 50.212181 
L 37.956881 51.03899 
L 37.286193 51.865799 
L 36.615505 52.692609 
" style="fill:none;stroke:#008000;stroke-linecap:square;stroke-width:0.481126;"/>
   </g>
   <g id="line2d_29">
    <path clip-path="url(#p3f07f56a1f)" d="M 47.44259 50.198832 
L 45.938909 51.128502 
L 45.76969 52.650208 
L 45.600472 54.171915 
L 45.431253 55.693621 
L 45.262034 57.215327 
L 45.092816 58.737033 
L 44.923597 60.258739 
L 44.754378 61.780446 
L 44.585159 63.302152 
L 44.729268 64.946087 
L 44.873377 66.590021 
L 45.017486 68.233956 
L 45.161595 69.877891 
L 45.305704 71.521826 
L 45.449812 73.16576 
L 45.593921 74.809695 
L 45.73803 76.45363 
L 47.241711 77.431458 
L 48.745392 78.409287 
L 50.424478 78.262717 
L 52.103564 78.116148 
L 53.78265 77.969578 
L 55.461737 77.823009 
" style="fill:none;stroke:#4169e1;stroke-linecap:square;stroke-width:0.481126;"/>
   </g>
   <g id="line2d_30">
    <path clip-path="url(#p3f07f56a1f)" d="M 46.99134 51.763986 
L 47.395373 53.343796 
L 47.799405 54.923607 
L 48.203437 56.503418 
L 48.60747 58.083228 
L 49.011502 59.663039 
L 49.415534 61.242849 
L 49.819567 62.82266 
L 50.223599 64.402471 
L 50.627632 65.982281 
L 51.031664 67.562092 
L 51.435696 69.141902 
L 51.839729 70.721713 
L 52.243761 72.301523 
L 52.647793 73.881334 
L 53.051826 75.461145 
L 53.455858 77.040955 
" style="fill:none;stroke:#4169e1;stroke-linecap:square;stroke-width:0.481126;"/>
   </g>
   <g id="line2d_31">
    <path clip-path="url(#p3f07f56a1f)" d="M 50.548936 50.443813 
L 51.018836 52.014463 
L 51.488736 53.585113 
L 51.958637 55.155763 
L 52.428537 56.726413 
L 52.898437 58.297063 
L 53.368338 59.867713 
L 53.838238 61.438363 
L 54.308138 63.009013 
L 54.778038 64.579663 
L 55.247939 66.150313 
L 55.717839 67.720963 
L 56.187739 69.291613 
L 56.65764 70.862263 
L 57.12754 72.432913 
L 57.59744 74.003563 
L 58.067341 75.574213 
" style="fill:none;stroke:#4169e1;stroke-linecap:square;stroke-width:0.481126;"/>
   </g>
   <g id="line2d_32">
    <path clip-path="url(#p3f07f56a1f)" d="M 54.157479 50.639588 
L 55.159963 52.256041 
L 56.162448 53.872494 
L 57.164932 55.488947 
L 58.167416 57.1054 
L 59.1699 58.721853 
L 60.172385 60.338306 
L 61.174869 61.954759 
L 62.177353 63.571212 
L 63.179838 65.187665 
L 64.182322 66.804118 
L 65.184806 68.420571 
L 66.187291 70.037024 
L 67.189775 71.653477 
L 68.192259 73.26993 
L 69.194743 74.886383 
L 70.197228 76.502836 
" style="fill:none;stroke:#4169e1;stroke-linecap:square;stroke-width:0.481126;"/>
   </g>
   <g id="line2d_33">
    <path clip-path="url(#p3f07f56a1f)" d="M 57.767478 48.73209 
L 58.857574 50.30889 
L 59.94767 51.885691 
L 61.037765 53.462492 
L 62.127861 55.039292 
L 63.217957 56.616093 
L 64.308053 58.192894 
L 65.398149 59.769694 
L 66.488245 61.346495 
L 67.578341 62.923296 
L 68.668437 64.500096 
L 69.758533 66.076897 
L 70.848629 67.653698 
L 71.938725 69.230498 
L 73.028821 70.807299 
L 74.118916 72.3841 
L 75.209012 73.9609 
" style="fill:none;stroke:#4169e1;stroke-linecap:square;stroke-width:0.481126;"/>
   </g>
   <g id="line2d_34">
    <path clip-path="url(#p3f07f56a1f)" d="M 60.523013 47.852672 
L 61.788514 48.622686 
L 63.054015 49.3927 
L 64.319516 50.162713 
L 65.585018 50.932727 
L 66.850519 51.702741 
L 68.11602 52.472754 
L 69.381521 53.242768 
L 70.647022 54.012782 
L 71.912523 54.782796 
L 73.178024 55.552809 
L 74.443525 56.322823 
L 75.709026 57.092837 
L 76.974527 57.86285 
L 78.240029 58.632864 
L 79.50553 59.402878 
L 80.771031 60.172892 
" style="fill:none;stroke:#4169e1;stroke-linecap:square;stroke-width:0.481126;"/>
   </g>
   <g id="line2d_35">
    <path clip-path="url(#p3f07f56a1f)" d="M 61.475005 45.114962 
L 63.100778 45.606886 
L 64.726551 46.09881 
L 66.352324 46.590734 
L 67.978097 47.082658 
L 69.603871 47.574583 
L 71.229644 48.066507 
L 72.855417 48.558431 
L 74.48119 49.050355 
L 76.106963 49.542279 
L 77.732736 50.034203 
L 79.35851 50.526127 
L 80.984283 51.018051 
L 82.610056 51.509976 
L 84.235829 52.0019 
L 85.861602 52.493824 
L 87.487375 52.985748 
" style="fill:none;stroke:#008000;stroke-linecap:square;stroke-width:0.481126;"/>
   </g>
   <g id="line2d_36">
    <path clip-path="url(#p3f07f56a1f)" d="M 62.026694 43.892153 
L 63.112105 44.104515 
L 64.197515 44.316878 
L 65.282926 44.52924 
L 66.368336 44.741602 
L 67.453747 44.953964 
L 68.539157 45.166327 
L 69.624568 45.378689 
L 70.709979 45.591051 
L 71.795389 45.803414 
L 72.8808 46.015776 
L 73.96621 46.228138 
L 75.051621 46.440501 
L 76.137031 46.652863 
L 77.222442 46.865225 
L 78.307852 47.077587 
L 79.393263 47.28995 
L 80.478674 47.502312 
L 81.564084 47.714674 
L 82.649495 47.927037 
L 83.734905 48.139399 
L 84.820316 48.351761 
L 85.905726 48.564124 
L 86.991137 48.776486 
L 88.076547 48.988848 
L 89.161958 49.20121 
L 90.247369 49.413573 
L 91.332779 49.625935 
L 92.41819 49.838297 
L 93.5036 50.05066 
L 94.589011 50.263022 
L 95.674421 50.475384 
L 96.759832 50.687746 
" style="fill:none;stroke:#008000;stroke-linecap:square;stroke-width:0.481126;"/>
   </g>
   <g id="line2d_37">
    <path clip-path="url(#p3f07f56a1f)" d="M 62.779262 40.518959 
L 63.913164 40.713 
L 65.047066 40.907041 
L 66.180968 41.101082 
L 67.314869 41.295123 
L 68.448771 41.489165 
L 69.582673 41.683206 
L 70.716574 41.877247 
L 71.850476 42.071288 
L 72.984378 42.265329 
L 74.11828 42.45937 
L 75.252181 42.653411 
L 76.386083 42.847452 
L 77.519985 43.041493 
L 78.653887 43.235534 
L 79.787788 43.429576 
L 80.92169 43.623617 
L 82.055592 43.817658 
L 83.189493 44.011699 
L 84.323395 44.20574 
L 85.457297 44.399781 
L 86.591199 44.593822 
L 87.7251 44.787863 
L 88.859002 44.981904 
L 89.992904 45.175945 
L 91.126805 45.369987 
L 92.260707 45.564028 
L 93.394609 45.758069 
L 94.528511 45.95211 
L 95.662412 46.146151 
L 96.796314 46.340192 
L 97.930216 46.534233 
L 99.064117 46.728274 
" style="fill:none;stroke:#008000;stroke-linecap:square;stroke-width:0.481126;"/>
   </g>
   <g id="line2d_38">
    <path clip-path="url(#p3f07f56a1f)" d="M 82.59932 28.605994 
L 83.7884 28.536897 
L 84.97748 28.4678 
L 86.16656 28.398702 
L 87.355639 28.329605 
L 88.544719 28.260508 
L 89.733799 28.191411 
L 90.922879 28.122314 
L 92.111958 28.053217 
L 92.793564 28.760808 
L 93.47517 29.468399 
L 94.156775 30.175989 
L 94.838381 30.88358 
L 95.519987 31.591171 
L 96.201592 32.298762 
L 96.883198 33.006352 
L 97.564803 33.713943 
" style="fill:none;stroke:#008000;stroke-linecap:square;stroke-width:0.481126;"/>
   </g>
   <g id="line2d_39">
    <path clip-path="url(#p3f07f56a1f)" d="M 69.074926 30.478943 
L 70.912859 31.07484 
L 72.750792 31.670737 
L 74.588726 32.266634 
L 76.426659 32.862531 
L 78.264593 33.458428 
L 80.102526 34.054325 
L 81.940459 34.650222 
L 83.778393 35.246119 
L 85.616326 35.842016 
L 87.454259 36.437913 
L 89.292193 37.033809 
L 91.130126 37.629706 
L 92.96806 38.225603 
L 94.805993 38.8215 
L 96.643926 39.417397 
L 98.48186 40.013294 
" style="fill:none;stroke:#008000;stroke-linecap:square;stroke-width:0.481126;"/>
   </g>
   <g id="line2d_40">
    <path clip-path="url(#p3f07f56a1f)" d="M 38.663597 82.876518 
L 38.692164 83.916638 
L 38.720731 84.956759 
L 38.749298 85.996879 
L 38.777865 87.037 
L 38.806432 88.07712 
L 38.834999 89.117241 
L 38.863566 90.157361 
L 38.892133 91.197482 
" style="fill:none;stroke:#008000;stroke-linecap:square;stroke-width:0.481126;"/>
   </g>
   <g id="line2d_41">
    <path clip-path="url(#p3f07f56a1f)" d="M 37.752363 82.929911 
L 37.781112 83.970032 
L 37.809861 85.010152 
L 37.83861 86.050273 
L 37.867359 87.090393 
L 37.896108 88.130514 
L 37.924857 89.170634 
L 37.953606 90.210755 
L 37.982355 91.250875 
" style="fill:none;stroke:#008000;stroke-linecap:square;stroke-width:0.481126;"/>
   </g>
   <g id="line2d_42">
    <path clip-path="url(#p3f07f56a1f)" d="M 10.287259 86.634981 
L 11.354247 87.638982 
L 13.201096 87.969025 
L 15.047945 88.299069 
L 16.894794 88.629112 
L 18.741644 88.959155 
L 19.743855 88.639843 
L 20.746066 88.320531 
" style="fill:none;stroke:#008000;stroke-linecap:square;stroke-width:0.481126;"/>
   </g>
   <g id="line2d_43">
    <path clip-path="url(#p3f07f56a1f)" d="M 10.309094 85.828848 
L 11.999097 85.208021 
L 13.656713 85.423949 
L 15.314328 85.639878 
L 16.971944 85.855806 
L 18.629559 86.071735 
L 19.745311 86.563266 
L 20.861062 87.054798 
" style="fill:none;stroke:#008000;stroke-linecap:square;stroke-width:0.481126;"/>
   </g>
   <g id="text_1">
    <g id="patch_2">
     <path d="M 51.24041 63.154679 
L 51.51098 64.438987 
L 53.44417 64.031716 
L 53.1736 62.747407 
z
" style="fill:#ffffff;"/>
    </g>
    <!-- 3 -->
    <g style="fill:#808080;" transform="translate(51.671107 63.084381)rotate(-281.896728)scale(0.02 -0.02)">
     <defs>
      <path d="M 2597 2516 
Q 3050 2419 3304 2112 
Q 3559 1806 3559 1356 
Q 3559 666 3084 287 
Q 2609 -91 1734 -91 
Q 1441 -91 1130 -33 
Q 819 25 488 141 
L 488 750 
Q 750 597 1062 519 
Q 1375 441 1716 441 
Q 2309 441 2620 675 
Q 2931 909 2931 1356 
Q 2931 1769 2642 2001 
Q 2353 2234 1838 2234 
L 1294 2234 
L 1294 2753 
L 1863 2753 
Q 2328 2753 2575 2939 
Q 2822 3125 2822 3475 
Q 2822 3834 2567 4026 
Q 2313 4219 1838 4219 
Q 1578 4219 1281 4162 
Q 984 4106 628 3988 
L 628 4550 
Q 988 4650 1302 4700 
Q 1616 4750 1894 4750 
Q 2613 4750 3031 4423 
Q 3450 4097 3450 3541 
Q 3450 3153 3228 2886 
Q 3006 2619 2597 2516 
z
" id="DejaVuSans-33" transform="scale(0.015625)"/>
     </defs>
     <use xlink:href="#DejaVuSans-33"/>
    </g>
   </g>
   <g id="text_2">
    <g id="patch_3">
     <path d="M 62.086412 60.731254 
L 62.660841 61.911376 
L 64.437205 61.046723 
L 63.862776 59.866601 
z
" style="fill:#ffffff;"/>
    </g>
    <!-- 4 -->
    <g style="fill:#808080;" transform="translate(62.487134 60.558444)rotate(-295.954696)scale(0.02 -0.02)">
     <defs>
      <path d="M 2419 4116 
L 825 1625 
L 2419 1625 
L 2419 4116 
z
M 2253 4666 
L 3047 4666 
L 3047 1625 
L 3713 1625 
L 3713 1100 
L 3047 1100 
L 3047 0 
L 2419 0 
L 2419 1100 
L 313 1100 
L 313 1709 
L 2253 4666 
z
" id="DejaVuSans-34" transform="scale(0.015625)"/>
     </defs>
     <use xlink:href="#DejaVuSans-34"/>
    </g>
   </g>
   <g id="text_3">
    <g id="patch_4">
     <path d="M 7.096773 61.017351 
L 7.183138 62.327007 
L 9.154481 62.197008 
L 9.068116 60.887352 
z
" style="fill:#ffffff;"/>
    </g>
    <!-- 1 -->
    <g style="fill:#808080;" transform="translate(7.533082 61.008623)rotate(-273.772881)scale(0.02 -0.02)">
     <defs>
      <path d="M 794 531 
L 1825 531 
L 1825 4091 
L 703 3866 
L 703 4441 
L 1819 4666 
L 2450 4666 
L 2450 531 
L 3481 531 
L 3481 0 
L 794 0 
L 794 531 
z
" id="DejaVuSans-31" transform="scale(0.015625)"/>
     </defs>
     <use xlink:href="#DejaVuSans-31"/>
    </g>
   </g>
   <g id="text_4">
    <g id="patch_5">
     <path d="M 78.474181 36.601869 
L 79.676805 37.127562 
L 80.468099 35.317328 
L 79.265475 34.791635 
z
" style="fill:#ffffff;"/>
    </g>
    <!-- 7 -->
    <g style="fill:#808080;" transform="translate(78.667112 36.210437)rotate(-336.388781)scale(0.02 -0.02)">
     <defs>
      <path d="M 525 4666 
L 3525 4666 
L 3525 4397 
L 1831 0 
L 1172 0 
L 2766 4134 
L 525 4134 
L 525 4666 
z
" id="DejaVuSans-37" transform="scale(0.015625)"/>
     </defs>
     <use xlink:href="#DejaVuSans-37"/>
    </g>
   </g>
   <g id="text_5">
    <g id="patch_6">
     <path d="M 79.114386 46.199256 
L 80.389343 46.510933 
L 80.85849 44.59182 
L 79.583533 44.280143 
z
" style="fill:#ffffff;"/>
    </g>
    <!-- 6 -->
    <g style="fill:#808080;" transform="translate(79.237335 45.780538)rotate(-346.262873)scale(0.02 -0.02)">
     <defs>
      <path d="M 2113 2584 
Q 1688 2584 1439 2293 
Q 1191 2003 1191 1497 
Q 1191 994 1439 701 
Q 1688 409 2113 409 
Q 2538 409 2786 701 
Q 3034 994 3034 1497 
Q 3034 2003 2786 2293 
Q 2538 2584 2113 2584 
z
M 3366 4563 
L 3366 3988 
Q 3128 4100 2886 4159 
Q 2644 4219 2406 4219 
Q 1781 4219 1451 3797 
Q 1122 3375 1075 2522 
Q 1259 2794 1537 2939 
Q 1816 3084 2150 3084 
Q 2853 3084 3261 2657 
Q 3669 2231 3669 1497 
Q 3669 778 3244 343 
Q 2819 -91 2113 -91 
Q 1303 -91 875 529 
Q 447 1150 447 2328 
Q 447 3434 972 4092 
Q 1497 4750 2381 4750 
Q 2619 4750 2861 4703 
Q 3103 4656 3366 4563 
z
" id="DejaVuSans-36" transform="scale(0.015625)"/>
     </defs>
     <use xlink:href="#DejaVuSans-36"/>
    </g>
   </g>
   <g id="text_6">
    <g id="patch_7">
     <path d="M 69.755796 50.421109 
L 70.940178 50.986702 
L 71.79153 49.203925 
L 70.607148 48.638332 
z
" style="fill:#ffffff;"/>
    </g>
    <!-- 5 -->
    <g style="fill:#808080;" transform="translate(69.961701 50.036343)rotate(-334.47353)scale(0.02 -0.02)">
     <defs>
      <path d="M 691 4666 
L 3169 4666 
L 3169 4134 
L 1269 4134 
L 1269 2991 
Q 1406 3038 1543 3061 
Q 1681 3084 1819 3084 
Q 2600 3084 3056 2656 
Q 3513 2228 3513 1497 
Q 3513 744 3044 326 
Q 2575 -91 1722 -91 
Q 1428 -91 1123 -41 
Q 819 9 494 109 
L 494 744 
Q 775 591 1075 516 
Q 1375 441 1709 441 
Q 2250 441 2565 725 
Q 2881 1009 2881 1497 
Q 2881 1984 2565 2268 
Q 2250 2553 1709 2553 
Q 1456 2553 1204 2497 
Q 953 2441 691 2322 
L 691 4666 
z
" id="DejaVuSans-35" transform="scale(0.015625)"/>
     </defs>
     <use xlink:href="#DejaVuSans-35"/>
    </g>
   </g>
   <g id="text_7">
    <g id="patch_8">
     <path d="M 28.090598 67.492166 
L 28.192513 66.183629 
L 26.222854 66.030221 
L 26.120938 67.338759 
z
" style="fill:#ffffff;"/>
    </g>
    <!-- 2 -->
    <g style="fill:#808080;" transform="translate(27.657529 67.438376)rotate(-85.546492)scale(0.02 -0.02)">
     <defs>
      <path d="M 1228 531 
L 3431 531 
L 3431 0 
L 469 0 
L 469 531 
Q 828 903 1448 1529 
Q 2069 2156 2228 2338 
Q 2531 2678 2651 2914 
Q 2772 3150 2772 3378 
Q 2772 3750 2511 3984 
Q 2250 4219 1831 4219 
Q 1534 4219 1204 4116 
Q 875 4013 500 3803 
L 500 4441 
Q 881 4594 1212 4672 
Q 1544 4750 1819 4750 
Q 2544 4750 2975 4387 
Q 3406 4025 3406 3419 
Q 3406 3131 3298 2873 
Q 3191 2616 2906 2266 
Q 2828 2175 2409 1742 
Q 1991 1309 1228 531 
z
" id="DejaVuSans-32" transform="scale(0.015625)"/>
     </defs>
     <use xlink:href="#DejaVuSans-32"/>
    </g>
   </g>
   <g id="text_8">
    <g id="patch_9">
     <path d="M 4.244277 40.625964 
L 5.076273 55.635109 
L 7.048869 55.525763 
L 6.216874 40.516618 
z
" style="fill:#ffffff;"/>
    </g>
    <!-- Stateline 18.3° -->
    <g style="fill:#4169e1;" transform="translate(4.680653 40.621805)rotate(-273.172806)scale(0.02 -0.02)">
     <defs>
      <path d="M 3425 4513 
L 3425 3897 
Q 3066 4069 2747 4153 
Q 2428 4238 2131 4238 
Q 1616 4238 1336 4038 
Q 1056 3838 1056 3469 
Q 1056 3159 1242 3001 
Q 1428 2844 1947 2747 
L 2328 2669 
Q 3034 2534 3370 2195 
Q 3706 1856 3706 1288 
Q 3706 609 3251 259 
Q 2797 -91 1919 -91 
Q 1588 -91 1214 -16 
Q 841 59 441 206 
L 441 856 
Q 825 641 1194 531 
Q 1563 422 1919 422 
Q 2459 422 2753 634 
Q 3047 847 3047 1241 
Q 3047 1584 2836 1778 
Q 2625 1972 2144 2069 
L 1759 2144 
Q 1053 2284 737 2584 
Q 422 2884 422 3419 
Q 422 4038 858 4394 
Q 1294 4750 2059 4750 
Q 2388 4750 2728 4690 
Q 3069 4631 3425 4513 
z
" id="DejaVuSans-53" transform="scale(0.015625)"/>
      <path d="M 1172 4494 
L 1172 3500 
L 2356 3500 
L 2356 3053 
L 1172 3053 
L 1172 1153 
Q 1172 725 1289 603 
Q 1406 481 1766 481 
L 2356 481 
L 2356 0 
L 1766 0 
Q 1100 0 847 248 
Q 594 497 594 1153 
L 594 3053 
L 172 3053 
L 172 3500 
L 594 3500 
L 594 4494 
L 1172 4494 
z
" id="DejaVuSans-74" transform="scale(0.015625)"/>
      <path d="M 2194 1759 
Q 1497 1759 1228 1600 
Q 959 1441 959 1056 
Q 959 750 1161 570 
Q 1363 391 1709 391 
Q 2188 391 2477 730 
Q 2766 1069 2766 1631 
L 2766 1759 
L 2194 1759 
z
M 3341 1997 
L 3341 0 
L 2766 0 
L 2766 531 
Q 2569 213 2275 61 
Q 1981 -91 1556 -91 
Q 1019 -91 701 211 
Q 384 513 384 1019 
Q 384 1609 779 1909 
Q 1175 2209 1959 2209 
L 2766 2209 
L 2766 2266 
Q 2766 2663 2505 2880 
Q 2244 3097 1772 3097 
Q 1472 3097 1187 3025 
Q 903 2953 641 2809 
L 641 3341 
Q 956 3463 1253 3523 
Q 1550 3584 1831 3584 
Q 2591 3584 2966 3190 
Q 3341 2797 3341 1997 
z
" id="DejaVuSans-61" transform="scale(0.015625)"/>
      <path d="M 3597 1894 
L 3597 1613 
L 953 1613 
Q 991 1019 1311 708 
Q 1631 397 2203 397 
Q 2534 397 2845 478 
Q 3156 559 3463 722 
L 3463 178 
Q 3153 47 2828 -22 
Q 2503 -91 2169 -91 
Q 1331 -91 842 396 
Q 353 884 353 1716 
Q 353 2575 817 3079 
Q 1281 3584 2069 3584 
Q 2775 3584 3186 3129 
Q 3597 2675 3597 1894 
z
M 3022 2063 
Q 3016 2534 2758 2815 
Q 2500 3097 2075 3097 
Q 1594 3097 1305 2825 
Q 1016 2553 972 2059 
L 3022 2063 
z
" id="DejaVuSans-65" transform="scale(0.015625)"/>
      <path d="M 603 4863 
L 1178 4863 
L 1178 0 
L 603 0 
L 603 4863 
z
" id="DejaVuSans-6c" transform="scale(0.015625)"/>
      <path d="M 603 3500 
L 1178 3500 
L 1178 0 
L 603 0 
L 603 3500 
z
M 603 4863 
L 1178 4863 
L 1178 4134 
L 603 4134 
L 603 4863 
z
" id="DejaVuSans-69" transform="scale(0.015625)"/>
      <path d="M 3513 2113 
L 3513 0 
L 2938 0 
L 2938 2094 
Q 2938 2591 2744 2837 
Q 2550 3084 2163 3084 
Q 1697 3084 1428 2787 
Q 1159 2491 1159 1978 
L 1159 0 
L 581 0 
L 581 3500 
L 1159 3500 
L 1159 2956 
Q 1366 3272 1645 3428 
Q 1925 3584 2291 3584 
Q 2894 3584 3203 3211 
Q 3513 2838 3513 2113 
z
" id="DejaVuSans-6e" transform="scale(0.015625)"/>
      <path id="DejaVuSans-20" transform="scale(0.015625)"/>
      <path d="M 2034 2216 
Q 1584 2216 1326 1975 
Q 1069 1734 1069 1313 
Q 1069 891 1326 650 
Q 1584 409 2034 409 
Q 2484 409 2743 651 
Q 3003 894 3003 1313 
Q 3003 1734 2745 1975 
Q 2488 2216 2034 2216 
z
M 1403 2484 
Q 997 2584 770 2862 
Q 544 3141 544 3541 
Q 544 4100 942 4425 
Q 1341 4750 2034 4750 
Q 2731 4750 3128 4425 
Q 3525 4100 3525 3541 
Q 3525 3141 3298 2862 
Q 3072 2584 2669 2484 
Q 3125 2378 3379 2068 
Q 3634 1759 3634 1313 
Q 3634 634 3220 271 
Q 2806 -91 2034 -91 
Q 1263 -91 848 271 
Q 434 634 434 1313 
Q 434 1759 690 2068 
Q 947 2378 1403 2484 
z
M 1172 3481 
Q 1172 3119 1398 2916 
Q 1625 2713 2034 2713 
Q 2441 2713 2670 2916 
Q 2900 3119 2900 3481 
Q 2900 3844 2670 4047 
Q 2441 4250 2034 4250 
Q 1625 4250 1398 4047 
Q 1172 3844 1172 3481 
z
" id="DejaVuSans-38" transform="scale(0.015625)"/>
      <path d="M 684 794 
L 1344 794 
L 1344 0 
L 684 0 
L 684 794 
z
" id="DejaVuSans-2e" transform="scale(0.015625)"/>
      <path d="M 1600 4347 
Q 1350 4347 1178 4173 
Q 1006 4000 1006 3750 
Q 1006 3503 1178 3333 
Q 1350 3163 1600 3163 
Q 1850 3163 2022 3333 
Q 2194 3503 2194 3750 
Q 2194 3997 2020 4172 
Q 1847 4347 1600 4347 
z
M 1600 4750 
Q 1800 4750 1984 4673 
Q 2169 4597 2303 4453 
Q 2447 4313 2519 4134 
Q 2591 3956 2591 3750 
Q 2591 3338 2302 3052 
Q 2013 2766 1594 2766 
Q 1172 2766 890 3047 
Q 609 3328 609 3750 
Q 609 4169 896 4459 
Q 1184 4750 1600 4750 
z
" id="DejaVuSans-b0" transform="scale(0.015625)"/>
     </defs>
     <use xlink:href="#DejaVuSans-53"/>
     <use x="63.476562" xlink:href="#DejaVuSans-74"/>
     <use x="102.685547" xlink:href="#DejaVuSans-61"/>
     <use x="163.964844" xlink:href="#DejaVuSans-74"/>
     <use x="203.173828" xlink:href="#DejaVuSans-65"/>
     <use x="264.697266" xlink:href="#DejaVuSans-6c"/>
     <use x="292.480469" xlink:href="#DejaVuSans-69"/>
     <use x="320.263672" xlink:href="#DejaVuSans-6e"/>
     <use x="383.642578" xlink:href="#DejaVuSans-65"/>
     <use x="445.166016" xlink:href="#DejaVuSans-20"/>
     <use x="476.953125" xlink:href="#DejaVuSans-31"/>
     <use x="540.576172" xlink:href="#DejaVuSans-38"/>
     <use x="604.199219" xlink:href="#DejaVuSans-2e"/>
     <use x="635.986328" xlink:href="#DejaVuSans-33"/>
     <use x="699.609375" xlink:href="#DejaVuSans-b0"/>
    </g>
   </g>
   <g id="text_9">
    <g id="patch_10">
     <path d="M 8.177531 41.562376 
L 9.142699 59.512071 
L 11.115475 59.405993 
L 10.150306 41.456299 
z
" style="fill:#ffffff;"/>
    </g>
    <!-- Shenanigan 19.5° -->
    <g style="fill:#4169e1;" transform="translate(8.613913 41.558941)rotate(-273.077873)scale(0.02 -0.02)">
     <defs>
      <path d="M 3513 2113 
L 3513 0 
L 2938 0 
L 2938 2094 
Q 2938 2591 2744 2837 
Q 2550 3084 2163 3084 
Q 1697 3084 1428 2787 
Q 1159 2491 1159 1978 
L 1159 0 
L 581 0 
L 581 4863 
L 1159 4863 
L 1159 2956 
Q 1366 3272 1645 3428 
Q 1925 3584 2291 3584 
Q 2894 3584 3203 3211 
Q 3513 2838 3513 2113 
z
" id="DejaVuSans-68" transform="scale(0.015625)"/>
      <path d="M 2906 1791 
Q 2906 2416 2648 2759 
Q 2391 3103 1925 3103 
Q 1463 3103 1205 2759 
Q 947 2416 947 1791 
Q 947 1169 1205 825 
Q 1463 481 1925 481 
Q 2391 481 2648 825 
Q 2906 1169 2906 1791 
z
M 3481 434 
Q 3481 -459 3084 -895 
Q 2688 -1331 1869 -1331 
Q 1566 -1331 1297 -1286 
Q 1028 -1241 775 -1147 
L 775 -588 
Q 1028 -725 1275 -790 
Q 1522 -856 1778 -856 
Q 2344 -856 2625 -561 
Q 2906 -266 2906 331 
L 2906 616 
Q 2728 306 2450 153 
Q 2172 0 1784 0 
Q 1141 0 747 490 
Q 353 981 353 1791 
Q 353 2603 747 3093 
Q 1141 3584 1784 3584 
Q 2172 3584 2450 3431 
Q 2728 3278 2906 2969 
L 2906 3500 
L 3481 3500 
L 3481 434 
z
" id="DejaVuSans-67" transform="scale(0.015625)"/>
      <path d="M 703 97 
L 703 672 
Q 941 559 1184 500 
Q 1428 441 1663 441 
Q 2288 441 2617 861 
Q 2947 1281 2994 2138 
Q 2813 1869 2534 1725 
Q 2256 1581 1919 1581 
Q 1219 1581 811 2004 
Q 403 2428 403 3163 
Q 403 3881 828 4315 
Q 1253 4750 1959 4750 
Q 2769 4750 3195 4129 
Q 3622 3509 3622 2328 
Q 3622 1225 3098 567 
Q 2575 -91 1691 -91 
Q 1453 -91 1209 -44 
Q 966 3 703 97 
z
M 1959 2075 
Q 2384 2075 2632 2365 
Q 2881 2656 2881 3163 
Q 2881 3666 2632 3958 
Q 2384 4250 1959 4250 
Q 1534 4250 1286 3958 
Q 1038 3666 1038 3163 
Q 1038 2656 1286 2365 
Q 1534 2075 1959 2075 
z
" id="DejaVuSans-39" transform="scale(0.015625)"/>
     </defs>
     <use xlink:href="#DejaVuSans-53"/>
     <use x="63.476562" xlink:href="#DejaVuSans-68"/>
     <use x="126.855469" xlink:href="#DejaVuSans-65"/>
     <use x="188.378906" xlink:href="#DejaVuSans-6e"/>
     <use x="251.757812" xlink:href="#DejaVuSans-61"/>
     <use x="313.037109" xlink:href="#DejaVuSans-6e"/>
     <use x="376.416016" xlink:href="#DejaVuSans-69"/>
     <use x="404.199219" xlink:href="#DejaVuSans-67"/>
     <use x="467.675781" xlink:href="#DejaVuSans-61"/>
     <use x="528.955078" xlink:href="#DejaVuSans-6e"/>
     <use x="592.333984" xlink:href="#DejaVuSans-20"/>
     <use x="624.121094" xlink:href="#DejaVuSans-31"/>
     <use x="687.744141" xlink:href="#DejaVuSans-39"/>
     <use x="751.367188" xlink:href="#DejaVuSans-2e"/>
     <use x="783.154297" xlink:href="#DejaVuSans-35"/>
     <use x="846.777344" xlink:href="#DejaVuSans-b0"/>
    </g>
   </g>
   <g id="text_10">
    <g id="patch_11">
     <path d="M 20.622842 45.473154 
L 39.167404 39.094432 
L 38.524805 37.226235 
L 19.980243 43.604957 
z
" style="fill:#ffffff;"/>
    </g>
    <!-- Lower Cat Trail 7.0° -->
    <g style="fill:#008000;" transform="translate(20.49996 45.054416)rotate(-18.981541)scale(0.02 -0.02)">
     <defs>
      <path d="M 628 4666 
L 1259 4666 
L 1259 531 
L 3531 531 
L 3531 0 
L 628 0 
L 628 4666 
z
" id="DejaVuSans-4c" transform="scale(0.015625)"/>
      <path d="M 1959 3097 
Q 1497 3097 1228 2736 
Q 959 2375 959 1747 
Q 959 1119 1226 758 
Q 1494 397 1959 397 
Q 2419 397 2687 759 
Q 2956 1122 2956 1747 
Q 2956 2369 2687 2733 
Q 2419 3097 1959 3097 
z
M 1959 3584 
Q 2709 3584 3137 3096 
Q 3566 2609 3566 1747 
Q 3566 888 3137 398 
Q 2709 -91 1959 -91 
Q 1206 -91 779 398 
Q 353 888 353 1747 
Q 353 2609 779 3096 
Q 1206 3584 1959 3584 
z
" id="DejaVuSans-6f" transform="scale(0.015625)"/>
      <path d="M 269 3500 
L 844 3500 
L 1563 769 
L 2278 3500 
L 2956 3500 
L 3675 769 
L 4391 3500 
L 4966 3500 
L 4050 0 
L 3372 0 
L 2619 2869 
L 1863 0 
L 1184 0 
L 269 3500 
z
" id="DejaVuSans-77" transform="scale(0.015625)"/>
      <path d="M 2631 2963 
Q 2534 3019 2420 3045 
Q 2306 3072 2169 3072 
Q 1681 3072 1420 2755 
Q 1159 2438 1159 1844 
L 1159 0 
L 581 0 
L 581 3500 
L 1159 3500 
L 1159 2956 
Q 1341 3275 1631 3429 
Q 1922 3584 2338 3584 
Q 2397 3584 2469 3576 
Q 2541 3569 2628 3553 
L 2631 2963 
z
" id="DejaVuSans-72" transform="scale(0.015625)"/>
      <path d="M 4122 4306 
L 4122 3641 
Q 3803 3938 3442 4084 
Q 3081 4231 2675 4231 
Q 1875 4231 1450 3742 
Q 1025 3253 1025 2328 
Q 1025 1406 1450 917 
Q 1875 428 2675 428 
Q 3081 428 3442 575 
Q 3803 722 4122 1019 
L 4122 359 
Q 3791 134 3420 21 
Q 3050 -91 2638 -91 
Q 1578 -91 968 557 
Q 359 1206 359 2328 
Q 359 3453 968 4101 
Q 1578 4750 2638 4750 
Q 3056 4750 3426 4639 
Q 3797 4528 4122 4306 
z
" id="DejaVuSans-43" transform="scale(0.015625)"/>
      <path d="M -19 4666 
L 3928 4666 
L 3928 4134 
L 2272 4134 
L 2272 0 
L 1638 0 
L 1638 4134 
L -19 4134 
L -19 4666 
z
" id="DejaVuSans-54" transform="scale(0.015625)"/>
      <path d="M 2034 4250 
Q 1547 4250 1301 3770 
Q 1056 3291 1056 2328 
Q 1056 1369 1301 889 
Q 1547 409 2034 409 
Q 2525 409 2770 889 
Q 3016 1369 3016 2328 
Q 3016 3291 2770 3770 
Q 2525 4250 2034 4250 
z
M 2034 4750 
Q 2819 4750 3233 4129 
Q 3647 3509 3647 2328 
Q 3647 1150 3233 529 
Q 2819 -91 2034 -91 
Q 1250 -91 836 529 
Q 422 1150 422 2328 
Q 422 3509 836 4129 
Q 1250 4750 2034 4750 
z
" id="DejaVuSans-30" transform="scale(0.015625)"/>
     </defs>
     <use xlink:href="#DejaVuSans-4c"/>
     <use x="53.962891" xlink:href="#DejaVuSans-6f"/>
     <use x="115.144531" xlink:href="#DejaVuSans-77"/>
     <use x="196.931641" xlink:href="#DejaVuSans-65"/>
     <use x="258.455078" xlink:href="#DejaVuSans-72"/>
     <use x="299.568359" xlink:href="#DejaVuSans-20"/>
     <use x="331.355469" xlink:href="#DejaVuSans-43"/>
     <use x="401.179688" xlink:href="#DejaVuSans-61"/>
     <use x="462.458984" xlink:href="#DejaVuSans-74"/>
     <use x="501.667969" xlink:href="#DejaVuSans-20"/>
     <use x="533.455078" xlink:href="#DejaVuSans-54"/>
     <use x="579.789062" xlink:href="#DejaVuSans-72"/>
     <use x="620.902344" xlink:href="#DejaVuSans-61"/>
     <use x="682.181641" xlink:href="#DejaVuSans-69"/>
     <use x="709.964844" xlink:href="#DejaVuSans-6c"/>
     <use x="737.748047" xlink:href="#DejaVuSans-20"/>
     <use x="769.535156" xlink:href="#DejaVuSans-37"/>
     <use x="833.158203" xlink:href="#DejaVuSans-2e"/>
     <use x="864.945312" xlink:href="#DejaVuSans-30"/>
     <use x="928.568359" xlink:href="#DejaVuSans-b0"/>
    </g>
   </g>
   <g id="text_11">
    <g id="patch_12">
     <path d="M 17.658796 45.830088 
L 17.958409 61.308751 
L 19.933664 61.270517 
L 19.634051 45.791854 
z
" style="fill:#ffffff;"/>
    </g>
    <!-- Meadows 12.0° -->
    <g style="fill:#008000;" transform="translate(18.095039 45.841648)rotate(-271.108909)scale(0.02 -0.02)">
     <defs>
      <path d="M 628 4666 
L 1569 4666 
L 2759 1491 
L 3956 4666 
L 4897 4666 
L 4897 0 
L 4281 0 
L 4281 4097 
L 3078 897 
L 2444 897 
L 1241 4097 
L 1241 0 
L 628 0 
L 628 4666 
z
" id="DejaVuSans-4d" transform="scale(0.015625)"/>
      <path d="M 2906 2969 
L 2906 4863 
L 3481 4863 
L 3481 0 
L 2906 0 
L 2906 525 
Q 2725 213 2448 61 
Q 2172 -91 1784 -91 
Q 1150 -91 751 415 
Q 353 922 353 1747 
Q 353 2572 751 3078 
Q 1150 3584 1784 3584 
Q 2172 3584 2448 3432 
Q 2725 3281 2906 2969 
z
M 947 1747 
Q 947 1113 1208 752 
Q 1469 391 1925 391 
Q 2381 391 2643 752 
Q 2906 1113 2906 1747 
Q 2906 2381 2643 2742 
Q 2381 3103 1925 3103 
Q 1469 3103 1208 2742 
Q 947 2381 947 1747 
z
" id="DejaVuSans-64" transform="scale(0.015625)"/>
      <path d="M 2834 3397 
L 2834 2853 
Q 2591 2978 2328 3040 
Q 2066 3103 1784 3103 
Q 1356 3103 1142 2972 
Q 928 2841 928 2578 
Q 928 2378 1081 2264 
Q 1234 2150 1697 2047 
L 1894 2003 
Q 2506 1872 2764 1633 
Q 3022 1394 3022 966 
Q 3022 478 2636 193 
Q 2250 -91 1575 -91 
Q 1294 -91 989 -36 
Q 684 19 347 128 
L 347 722 
Q 666 556 975 473 
Q 1284 391 1588 391 
Q 1994 391 2212 530 
Q 2431 669 2431 922 
Q 2431 1156 2273 1281 
Q 2116 1406 1581 1522 
L 1381 1569 
Q 847 1681 609 1914 
Q 372 2147 372 2553 
Q 372 3047 722 3315 
Q 1072 3584 1716 3584 
Q 2034 3584 2315 3537 
Q 2597 3491 2834 3397 
z
" id="DejaVuSans-73" transform="scale(0.015625)"/>
     </defs>
     <use xlink:href="#DejaVuSans-4d"/>
     <use x="86.279297" xlink:href="#DejaVuSans-65"/>
     <use x="147.802734" xlink:href="#DejaVuSans-61"/>
     <use x="209.082031" xlink:href="#DejaVuSans-64"/>
     <use x="272.558594" xlink:href="#DejaVuSans-6f"/>
     <use x="333.740234" xlink:href="#DejaVuSans-77"/>
     <use x="415.527344" xlink:href="#DejaVuSans-73"/>
     <use x="467.626953" xlink:href="#DejaVuSans-20"/>
     <use x="499.414062" xlink:href="#DejaVuSans-31"/>
     <use x="563.037109" xlink:href="#DejaVuSans-32"/>
     <use x="626.660156" xlink:href="#DejaVuSans-2e"/>
     <use x="658.447266" xlink:href="#DejaVuSans-30"/>
     <use x="722.070312" xlink:href="#DejaVuSans-b0"/>
    </g>
   </g>
   <g id="text_12">
    <g id="patch_13">
     <path d="M 24.407941 65.530989 
L 27.114733 49.272265 
L 25.165931 48.947824 
L 22.459139 65.206547 
z
" style="fill:#ffffff;"/>
    </g>
    <!-- Sunnyside 13.8° -->
    <g style="fill:#008000;" transform="translate(23.981207 65.43967)rotate(-80.547947)scale(0.02 -0.02)">
     <defs>
      <path d="M 544 1381 
L 544 3500 
L 1119 3500 
L 1119 1403 
Q 1119 906 1312 657 
Q 1506 409 1894 409 
Q 2359 409 2629 706 
Q 2900 1003 2900 1516 
L 2900 3500 
L 3475 3500 
L 3475 0 
L 2900 0 
L 2900 538 
Q 2691 219 2414 64 
Q 2138 -91 1772 -91 
Q 1169 -91 856 284 
Q 544 659 544 1381 
z
M 1991 3584 
L 1991 3584 
z
" id="DejaVuSans-75" transform="scale(0.015625)"/>
      <path d="M 2059 -325 
Q 1816 -950 1584 -1140 
Q 1353 -1331 966 -1331 
L 506 -1331 
L 506 -850 
L 844 -850 
Q 1081 -850 1212 -737 
Q 1344 -625 1503 -206 
L 1606 56 
L 191 3500 
L 800 3500 
L 1894 763 
L 2988 3500 
L 3597 3500 
L 2059 -325 
z
" id="DejaVuSans-79" transform="scale(0.015625)"/>
     </defs>
     <use xlink:href="#DejaVuSans-53"/>
     <use x="63.476562" xlink:href="#DejaVuSans-75"/>
     <use x="126.855469" xlink:href="#DejaVuSans-6e"/>
     <use x="190.234375" xlink:href="#DejaVuSans-6e"/>
     <use x="253.613281" xlink:href="#DejaVuSans-79"/>
     <use x="312.792969" xlink:href="#DejaVuSans-73"/>
     <use x="364.892578" xlink:href="#DejaVuSans-69"/>
     <use x="392.675781" xlink:href="#DejaVuSans-64"/>
     <use x="456.152344" xlink:href="#DejaVuSans-65"/>
     <use x="517.675781" xlink:href="#DejaVuSans-20"/>
     <use x="549.462891" xlink:href="#DejaVuSans-31"/>
     <use x="613.085938" xlink:href="#DejaVuSans-33"/>
     <use x="676.708984" xlink:href="#DejaVuSans-2e"/>
     <use x="708.496094" xlink:href="#DejaVuSans-38"/>
     <use x="772.119141" xlink:href="#DejaVuSans-b0"/>
    </g>
   </g>
   <g id="text_13">
    <g id="patch_14">
     <path d="M 31.075022 66.999589 
L 32.404841 52.444274 
L 30.437411 52.264523 
L 29.107592 66.819839 
z
" style="fill:#ffffff;"/>
    </g>
    <!-- Paradise 13.5° -->
    <g style="fill:#008000;" transform="translate(30.642713 66.940009)rotate(-84.779772)scale(0.02 -0.02)">
     <defs>
      <path d="M 1259 4147 
L 1259 2394 
L 2053 2394 
Q 2494 2394 2734 2622 
Q 2975 2850 2975 3272 
Q 2975 3691 2734 3919 
Q 2494 4147 2053 4147 
L 1259 4147 
z
M 628 4666 
L 2053 4666 
Q 2838 4666 3239 4311 
Q 3641 3956 3641 3272 
Q 3641 2581 3239 2228 
Q 2838 1875 2053 1875 
L 1259 1875 
L 1259 0 
L 628 0 
L 628 4666 
z
" id="DejaVuSans-50" transform="scale(0.015625)"/>
     </defs>
     <use xlink:href="#DejaVuSans-50"/>
     <use x="55.802734" xlink:href="#DejaVuSans-61"/>
     <use x="117.082031" xlink:href="#DejaVuSans-72"/>
     <use x="158.195312" xlink:href="#DejaVuSans-61"/>
     <use x="219.474609" xlink:href="#DejaVuSans-64"/>
     <use x="282.951172" xlink:href="#DejaVuSans-69"/>
     <use x="310.734375" xlink:href="#DejaVuSans-73"/>
     <use x="362.833984" xlink:href="#DejaVuSans-65"/>
     <use x="424.357422" xlink:href="#DejaVuSans-20"/>
     <use x="456.144531" xlink:href="#DejaVuSans-31"/>
     <use x="519.767578" xlink:href="#DejaVuSans-33"/>
     <use x="583.390625" xlink:href="#DejaVuSans-2e"/>
     <use x="615.177734" xlink:href="#DejaVuSans-35"/>
     <use x="678.800781" xlink:href="#DejaVuSans-b0"/>
    </g>
   </g>
   <g id="text_14">
    <g id="patch_15">
     <path d="M 35.733854 57.153604 
L 35.916502 73.194752 
L 37.891999 73.172258 
L 37.709351 57.131111 
z
" style="fill:#ffffff;"/>
    </g>
    <!-- Broadway 12.9° -->
    <g style="fill:#008000;" transform="translate(36.169991 57.168639)rotate(-270.652352)scale(0.02 -0.02)">
     <defs>
      <path d="M 1259 2228 
L 1259 519 
L 2272 519 
Q 2781 519 3026 730 
Q 3272 941 3272 1375 
Q 3272 1813 3026 2020 
Q 2781 2228 2272 2228 
L 1259 2228 
z
M 1259 4147 
L 1259 2741 
L 2194 2741 
Q 2656 2741 2882 2914 
Q 3109 3088 3109 3444 
Q 3109 3797 2882 3972 
Q 2656 4147 2194 4147 
L 1259 4147 
z
M 628 4666 
L 2241 4666 
Q 2963 4666 3353 4366 
Q 3744 4066 3744 3513 
Q 3744 3084 3544 2831 
Q 3344 2578 2956 2516 
Q 3422 2416 3680 2098 
Q 3938 1781 3938 1306 
Q 3938 681 3513 340 
Q 3088 0 2303 0 
L 628 0 
L 628 4666 
z
" id="DejaVuSans-42" transform="scale(0.015625)"/>
     </defs>
     <use xlink:href="#DejaVuSans-42"/>
     <use x="68.603516" xlink:href="#DejaVuSans-72"/>
     <use x="107.466797" xlink:href="#DejaVuSans-6f"/>
     <use x="168.648438" xlink:href="#DejaVuSans-61"/>
     <use x="229.927734" xlink:href="#DejaVuSans-64"/>
     <use x="293.404297" xlink:href="#DejaVuSans-77"/>
     <use x="375.191406" xlink:href="#DejaVuSans-61"/>
     <use x="436.470703" xlink:href="#DejaVuSans-79"/>
     <use x="495.650391" xlink:href="#DejaVuSans-20"/>
     <use x="527.4375" xlink:href="#DejaVuSans-31"/>
     <use x="591.060547" xlink:href="#DejaVuSans-32"/>
     <use x="654.683594" xlink:href="#DejaVuSans-2e"/>
     <use x="686.470703" xlink:href="#DejaVuSans-39"/>
     <use x="750.09375" xlink:href="#DejaVuSans-b0"/>
    </g>
   </g>
   <g id="text_15">
    <g id="patch_16">
     <path d="M 43.132417 55.317171 
L 44.354409 74.699313 
L 46.326119 74.575002 
L 45.104128 55.19286 
z
" style="fill:#ffffff;"/>
    </g>
    <!-- Walter's Folly 17.9° -->
    <g style="fill:#4169e1;" transform="translate(43.56875 55.309701)rotate(-273.607568)scale(0.02 -0.02)">
     <defs>
      <path d="M 213 4666 
L 850 4666 
L 1831 722 
L 2809 4666 
L 3519 4666 
L 4500 722 
L 5478 4666 
L 6119 4666 
L 4947 0 
L 4153 0 
L 3169 4050 
L 2175 0 
L 1381 0 
L 213 4666 
z
" id="DejaVuSans-57" transform="scale(0.015625)"/>
      <path d="M 1147 4666 
L 1147 2931 
L 616 2931 
L 616 4666 
L 1147 4666 
z
" id="DejaVuSans-27" transform="scale(0.015625)"/>
      <path d="M 628 4666 
L 3309 4666 
L 3309 4134 
L 1259 4134 
L 1259 2759 
L 3109 2759 
L 3109 2228 
L 1259 2228 
L 1259 0 
L 628 0 
L 628 4666 
z
" id="DejaVuSans-46" transform="scale(0.015625)"/>
     </defs>
     <use xlink:href="#DejaVuSans-57"/>
     <use x="92.501953" xlink:href="#DejaVuSans-61"/>
     <use x="153.78125" xlink:href="#DejaVuSans-6c"/>
     <use x="181.564453" xlink:href="#DejaVuSans-74"/>
     <use x="220.773438" xlink:href="#DejaVuSans-65"/>
     <use x="282.296875" xlink:href="#DejaVuSans-72"/>
     <use x="323.410156" xlink:href="#DejaVuSans-27"/>
     <use x="350.900391" xlink:href="#DejaVuSans-73"/>
     <use x="403" xlink:href="#DejaVuSans-20"/>
     <use x="434.787109" xlink:href="#DejaVuSans-46"/>
     <use x="488.681641" xlink:href="#DejaVuSans-6f"/>
     <use x="549.863281" xlink:href="#DejaVuSans-6c"/>
     <use x="577.646484" xlink:href="#DejaVuSans-6c"/>
     <use x="605.429688" xlink:href="#DejaVuSans-79"/>
     <use x="664.609375" xlink:href="#DejaVuSans-20"/>
     <use x="696.396484" xlink:href="#DejaVuSans-31"/>
     <use x="760.019531" xlink:href="#DejaVuSans-37"/>
     <use x="823.642578" xlink:href="#DejaVuSans-2e"/>
     <use x="855.429688" xlink:href="#DejaVuSans-39"/>
     <use x="919.052734" xlink:href="#DejaVuSans-b0"/>
    </g>
   </g>
   <g id="text_16">
    <g id="patch_17">
     <path d="M 47.799827 56.685808 
L 50.704342 72.47653 
L 52.647371 72.119133 
L 49.742856 56.328411 
z
" style="fill:#ffffff;"/>
    </g>
    <!-- Exhibition 17.8° -->
    <g style="fill:#4169e1;" transform="translate(48.23219 56.626616)rotate(-280.422375)scale(0.02 -0.02)">
     <defs>
      <path d="M 628 4666 
L 3578 4666 
L 3578 4134 
L 1259 4134 
L 1259 2753 
L 3481 2753 
L 3481 2222 
L 1259 2222 
L 1259 531 
L 3634 531 
L 3634 0 
L 628 0 
L 628 4666 
z
" id="DejaVuSans-45" transform="scale(0.015625)"/>
      <path d="M 3513 3500 
L 2247 1797 
L 3578 0 
L 2900 0 
L 1881 1375 
L 863 0 
L 184 0 
L 1544 1831 
L 300 3500 
L 978 3500 
L 1906 2253 
L 2834 3500 
L 3513 3500 
z
" id="DejaVuSans-78" transform="scale(0.015625)"/>
      <path d="M 3116 1747 
Q 3116 2381 2855 2742 
Q 2594 3103 2138 3103 
Q 1681 3103 1420 2742 
Q 1159 2381 1159 1747 
Q 1159 1113 1420 752 
Q 1681 391 2138 391 
Q 2594 391 2855 752 
Q 3116 1113 3116 1747 
z
M 1159 2969 
Q 1341 3281 1617 3432 
Q 1894 3584 2278 3584 
Q 2916 3584 3314 3078 
Q 3713 2572 3713 1747 
Q 3713 922 3314 415 
Q 2916 -91 2278 -91 
Q 1894 -91 1617 61 
Q 1341 213 1159 525 
L 1159 0 
L 581 0 
L 581 4863 
L 1159 4863 
L 1159 2969 
z
" id="DejaVuSans-62" transform="scale(0.015625)"/>
     </defs>
     <use xlink:href="#DejaVuSans-45"/>
     <use x="63.183594" xlink:href="#DejaVuSans-78"/>
     <use x="122.363281" xlink:href="#DejaVuSans-68"/>
     <use x="185.742188" xlink:href="#DejaVuSans-69"/>
     <use x="213.525391" xlink:href="#DejaVuSans-62"/>
     <use x="277.001953" xlink:href="#DejaVuSans-69"/>
     <use x="304.785156" xlink:href="#DejaVuSans-74"/>
     <use x="343.994141" xlink:href="#DejaVuSans-69"/>
     <use x="371.777344" xlink:href="#DejaVuSans-6f"/>
     <use x="432.958984" xlink:href="#DejaVuSans-6e"/>
     <use x="496.337891" xlink:href="#DejaVuSans-20"/>
     <use x="528.125" xlink:href="#DejaVuSans-31"/>
     <use x="591.748047" xlink:href="#DejaVuSans-37"/>
     <use x="655.371094" xlink:href="#DejaVuSans-2e"/>
     <use x="687.158203" xlink:href="#DejaVuSans-38"/>
     <use x="750.78125" xlink:href="#DejaVuSans-b0"/>
    </g>
   </g>
   <g id="text_17">
    <g id="patch_18">
     <path d="M 51.337968 54.514386 
L 54.407089 68.777927 
L 56.338508 68.362339 
L 53.269387 54.098798 
z
" style="fill:#ffffff;"/>
    </g>
    <!-- Superior 18.8° -->
    <g style="fill:#4169e1;" transform="translate(51.768358 54.442236)rotate(-282.143325)scale(0.02 -0.02)">
     <defs>
      <path d="M 1159 525 
L 1159 -1331 
L 581 -1331 
L 581 3500 
L 1159 3500 
L 1159 2969 
Q 1341 3281 1617 3432 
Q 1894 3584 2278 3584 
Q 2916 3584 3314 3078 
Q 3713 2572 3713 1747 
Q 3713 922 3314 415 
Q 2916 -91 2278 -91 
Q 1894 -91 1617 61 
Q 1341 213 1159 525 
z
M 3116 1747 
Q 3116 2381 2855 2742 
Q 2594 3103 2138 3103 
Q 1681 3103 1420 2742 
Q 1159 2381 1159 1747 
Q 1159 1113 1420 752 
Q 1681 391 2138 391 
Q 2594 391 2855 752 
Q 3116 1113 3116 1747 
z
" id="DejaVuSans-70" transform="scale(0.015625)"/>
     </defs>
     <use xlink:href="#DejaVuSans-53"/>
     <use x="63.476562" xlink:href="#DejaVuSans-75"/>
     <use x="126.855469" xlink:href="#DejaVuSans-70"/>
     <use x="190.332031" xlink:href="#DejaVuSans-65"/>
     <use x="251.855469" xlink:href="#DejaVuSans-72"/>
     <use x="292.96875" xlink:href="#DejaVuSans-69"/>
     <use x="320.751953" xlink:href="#DejaVuSans-6f"/>
     <use x="381.933594" xlink:href="#DejaVuSans-72"/>
     <use x="423.046875" xlink:href="#DejaVuSans-20"/>
     <use x="454.833984" xlink:href="#DejaVuSans-31"/>
     <use x="518.457031" xlink:href="#DejaVuSans-38"/>
     <use x="582.080078" xlink:href="#DejaVuSans-2e"/>
     <use x="613.867188" xlink:href="#DejaVuSans-38"/>
     <use x="677.490234" xlink:href="#DejaVuSans-b0"/>
    </g>
   </g>
   <g id="text_18">
    <g id="patch_19">
     <path d="M 56.005989 53.422411 
L 62.534502 68.058983 
L 64.33878 67.2542 
L 57.810267 52.617629 
z
" style="fill:#ffffff;"/>
    </g>
    <!-- Sundance 21.5° -->
    <g style="fill:#4169e1;" transform="translate(56.412265 53.263095)rotate(-294.038837)scale(0.02 -0.02)">
     <defs>
      <path d="M 3122 3366 
L 3122 2828 
Q 2878 2963 2633 3030 
Q 2388 3097 2138 3097 
Q 1578 3097 1268 2742 
Q 959 2388 959 1747 
Q 959 1106 1268 751 
Q 1578 397 2138 397 
Q 2388 397 2633 464 
Q 2878 531 3122 666 
L 3122 134 
Q 2881 22 2623 -34 
Q 2366 -91 2075 -91 
Q 1284 -91 818 406 
Q 353 903 353 1747 
Q 353 2603 823 3093 
Q 1294 3584 2113 3584 
Q 2378 3584 2631 3529 
Q 2884 3475 3122 3366 
z
" id="DejaVuSans-63" transform="scale(0.015625)"/>
     </defs>
     <use xlink:href="#DejaVuSans-53"/>
     <use x="63.476562" xlink:href="#DejaVuSans-75"/>
     <use x="126.855469" xlink:href="#DejaVuSans-6e"/>
     <use x="190.234375" xlink:href="#DejaVuSans-64"/>
     <use x="253.710938" xlink:href="#DejaVuSans-61"/>
     <use x="314.990234" xlink:href="#DejaVuSans-6e"/>
     <use x="378.369141" xlink:href="#DejaVuSans-63"/>
     <use x="433.349609" xlink:href="#DejaVuSans-65"/>
     <use x="494.873047" xlink:href="#DejaVuSans-20"/>
     <use x="526.660156" xlink:href="#DejaVuSans-32"/>
     <use x="590.283203" xlink:href="#DejaVuSans-31"/>
     <use x="653.90625" xlink:href="#DejaVuSans-2e"/>
     <use x="685.693359" xlink:href="#DejaVuSans-35"/>
     <use x="749.316406" xlink:href="#DejaVuSans-b0"/>
    </g>
   </g>
   <g id="text_19">
    <g id="patch_20">
     <path d="M 60.676812 52.492921 
L 68.350471 67.926058 
L 70.119487 67.046468 
L 62.445827 51.613331 
z
" style="fill:#ffffff;"/>
    </g>
    <!-- Sidewinder 18.4° -->
    <g style="fill:#4169e1;" transform="translate(61.076063 52.316741)rotate(-296.437469)scale(0.02 -0.02)">
     <use xlink:href="#DejaVuSans-53"/>
     <use x="63.476562" xlink:href="#DejaVuSans-69"/>
     <use x="91.259766" xlink:href="#DejaVuSans-64"/>
     <use x="154.736328" xlink:href="#DejaVuSans-65"/>
     <use x="216.259766" xlink:href="#DejaVuSans-77"/>
     <use x="298.046875" xlink:href="#DejaVuSans-69"/>
     <use x="325.830078" xlink:href="#DejaVuSans-6e"/>
     <use x="389.208984" xlink:href="#DejaVuSans-64"/>
     <use x="452.685547" xlink:href="#DejaVuSans-65"/>
     <use x="514.208984" xlink:href="#DejaVuSans-72"/>
     <use x="555.322266" xlink:href="#DejaVuSans-20"/>
     <use x="587.109375" xlink:href="#DejaVuSans-31"/>
     <use x="650.732422" xlink:href="#DejaVuSans-38"/>
     <use x="714.355469" xlink:href="#DejaVuSans-2e"/>
     <use x="746.142578" xlink:href="#DejaVuSans-34"/>
     <use x="809.765625" xlink:href="#DejaVuSans-b0"/>
    </g>
   </g>
   <g id="text_20">
    <g id="patch_21">
     <path d="M 65.001575 46.32595 
L 79.943141 52.611943 
L 80.709259 50.790911 
L 65.767693 44.504918 
z
" style="fill:#ffffff;"/>
    </g>
    <!-- Snowbowl 15.7° -->
    <g style="fill:#008000;" transform="translate(65.18906 45.931881)rotate(-337.183262)scale(0.02 -0.02)">
     <use xlink:href="#DejaVuSans-53"/>
     <use x="63.476562" xlink:href="#DejaVuSans-6e"/>
     <use x="126.855469" xlink:href="#DejaVuSans-6f"/>
     <use x="188.037109" xlink:href="#DejaVuSans-77"/>
     <use x="269.824219" xlink:href="#DejaVuSans-62"/>
     <use x="333.300781" xlink:href="#DejaVuSans-6f"/>
     <use x="394.482422" xlink:href="#DejaVuSans-77"/>
     <use x="476.269531" xlink:href="#DejaVuSans-6c"/>
     <use x="504.052734" xlink:href="#DejaVuSans-20"/>
     <use x="535.839844" xlink:href="#DejaVuSans-31"/>
     <use x="599.462891" xlink:href="#DejaVuSans-35"/>
     <use x="663.085938" xlink:href="#DejaVuSans-2e"/>
     <use x="694.873047" xlink:href="#DejaVuSans-37"/>
     <use x="758.496094" xlink:href="#DejaVuSans-b0"/>
    </g>
   </g>
   <g id="text_21">
    <g id="patch_22">
     <path d="M 64.750361 44.827732 
L 80.492647 49.110167 
L 81.011238 47.20382 
L 65.268952 42.921385 
z
" style="fill:#ffffff;"/>
    </g>
    <!-- Ridge Run 14.8° -->
    <g style="fill:#008000;" transform="translate(64.884091 44.412331)rotate(-344.781867)scale(0.02 -0.02)">
     <defs>
      <path d="M 2841 2188 
Q 3044 2119 3236 1894 
Q 3428 1669 3622 1275 
L 4263 0 
L 3584 0 
L 2988 1197 
Q 2756 1666 2539 1819 
Q 2322 1972 1947 1972 
L 1259 1972 
L 1259 0 
L 628 0 
L 628 4666 
L 2053 4666 
Q 2853 4666 3247 4331 
Q 3641 3997 3641 3322 
Q 3641 2881 3436 2590 
Q 3231 2300 2841 2188 
z
M 1259 4147 
L 1259 2491 
L 2053 2491 
Q 2509 2491 2742 2702 
Q 2975 2913 2975 3322 
Q 2975 3731 2742 3939 
Q 2509 4147 2053 4147 
L 1259 4147 
z
" id="DejaVuSans-52" transform="scale(0.015625)"/>
     </defs>
     <use xlink:href="#DejaVuSans-52"/>
     <use x="69.482422" xlink:href="#DejaVuSans-69"/>
     <use x="97.265625" xlink:href="#DejaVuSans-64"/>
     <use x="160.742188" xlink:href="#DejaVuSans-67"/>
     <use x="224.21875" xlink:href="#DejaVuSans-65"/>
     <use x="285.742188" xlink:href="#DejaVuSans-20"/>
     <use x="317.529297" xlink:href="#DejaVuSans-52"/>
     <use x="382.511719" xlink:href="#DejaVuSans-75"/>
     <use x="445.890625" xlink:href="#DejaVuSans-6e"/>
     <use x="509.269531" xlink:href="#DejaVuSans-20"/>
     <use x="541.056641" xlink:href="#DejaVuSans-31"/>
     <use x="604.679688" xlink:href="#DejaVuSans-34"/>
     <use x="668.302734" xlink:href="#DejaVuSans-2e"/>
     <use x="700.089844" xlink:href="#DejaVuSans-38"/>
     <use x="763.712891" xlink:href="#DejaVuSans-b0"/>
    </g>
   </g>
   <g id="text_22">
    <g id="patch_23">
     <path d="M 66.884647 41.677873 
L 83.162412 45.550919 
L 83.619715 43.628949 
L 67.341951 39.755903 
z
" style="fill:#ffffff;"/>
    </g>
    <!-- Inspiration 13.9° -->
    <g style="fill:#008000;" transform="translate(67.005012 41.258404)rotate(-346.616203)scale(0.02 -0.02)">
     <defs>
      <path d="M 628 4666 
L 1259 4666 
L 1259 0 
L 628 0 
L 628 4666 
z
" id="DejaVuSans-49" transform="scale(0.015625)"/>
     </defs>
     <use xlink:href="#DejaVuSans-49"/>
     <use x="29.492188" xlink:href="#DejaVuSans-6e"/>
     <use x="92.871094" xlink:href="#DejaVuSans-73"/>
     <use x="144.970703" xlink:href="#DejaVuSans-70"/>
     <use x="208.447266" xlink:href="#DejaVuSans-69"/>
     <use x="236.230469" xlink:href="#DejaVuSans-72"/>
     <use x="277.34375" xlink:href="#DejaVuSans-61"/>
     <use x="338.623047" xlink:href="#DejaVuSans-74"/>
     <use x="377.832031" xlink:href="#DejaVuSans-69"/>
     <use x="405.615234" xlink:href="#DejaVuSans-6f"/>
     <use x="466.796875" xlink:href="#DejaVuSans-6e"/>
     <use x="530.175781" xlink:href="#DejaVuSans-20"/>
     <use x="561.962891" xlink:href="#DejaVuSans-31"/>
     <use x="625.585938" xlink:href="#DejaVuSans-33"/>
     <use x="689.208984" xlink:href="#DejaVuSans-2e"/>
     <use x="720.996094" xlink:href="#DejaVuSans-39"/>
     <use x="784.619141" xlink:href="#DejaVuSans-b0"/>
    </g>
   </g>
   <g id="text_23">
    <g id="patch_24">
     <path d="M 74.425343 32.345975 
L 88.643655 38.755546 
L 89.455575 36.954469 
L 75.237263 30.544897 
z
" style="fill:#ffffff;"/>
    </g>
    <!-- The Gully 11.6° -->
    <g style="fill:#008000;" transform="translate(74.622733 31.956772)rotate(-335.734294)scale(0.02 -0.02)">
     <defs>
      <path d="M 3809 666 
L 3809 1919 
L 2778 1919 
L 2778 2438 
L 4434 2438 
L 4434 434 
Q 4069 175 3628 42 
Q 3188 -91 2688 -91 
Q 1594 -91 976 548 
Q 359 1188 359 2328 
Q 359 3472 976 4111 
Q 1594 4750 2688 4750 
Q 3144 4750 3555 4637 
Q 3966 4525 4313 4306 
L 4313 3634 
Q 3963 3931 3569 4081 
Q 3175 4231 2741 4231 
Q 1884 4231 1454 3753 
Q 1025 3275 1025 2328 
Q 1025 1384 1454 906 
Q 1884 428 2741 428 
Q 3075 428 3337 486 
Q 3600 544 3809 666 
z
" id="DejaVuSans-47" transform="scale(0.015625)"/>
     </defs>
     <use xlink:href="#DejaVuSans-54"/>
     <use x="61.083984" xlink:href="#DejaVuSans-68"/>
     <use x="124.462891" xlink:href="#DejaVuSans-65"/>
     <use x="185.986328" xlink:href="#DejaVuSans-20"/>
     <use x="217.773438" xlink:href="#DejaVuSans-47"/>
     <use x="295.263672" xlink:href="#DejaVuSans-75"/>
     <use x="358.642578" xlink:href="#DejaVuSans-6c"/>
     <use x="386.425781" xlink:href="#DejaVuSans-6c"/>
     <use x="414.208984" xlink:href="#DejaVuSans-79"/>
     <use x="473.388672" xlink:href="#DejaVuSans-20"/>
     <use x="505.175781" xlink:href="#DejaVuSans-31"/>
     <use x="568.798828" xlink:href="#DejaVuSans-31"/>
     <use x="632.421875" xlink:href="#DejaVuSans-2e"/>
     <use x="664.208984" xlink:href="#DejaVuSans-36"/>
     <use x="727.832031" xlink:href="#DejaVuSans-b0"/>
    </g>
   </g>
   <g id="text_24">
    <!-- Wilmot Mountain -->
    <g transform="translate(22.294764 7.637047)scale(0.07 -0.07)">
     <defs>
      <path d="M 3328 2828 
Q 3544 3216 3844 3400 
Q 4144 3584 4550 3584 
Q 5097 3584 5394 3201 
Q 5691 2819 5691 2113 
L 5691 0 
L 5113 0 
L 5113 2094 
Q 5113 2597 4934 2840 
Q 4756 3084 4391 3084 
Q 3944 3084 3684 2787 
Q 3425 2491 3425 1978 
L 3425 0 
L 2847 0 
L 2847 2094 
Q 2847 2600 2669 2842 
Q 2491 3084 2119 3084 
Q 1678 3084 1418 2786 
Q 1159 2488 1159 1978 
L 1159 0 
L 581 0 
L 581 3500 
L 1159 3500 
L 1159 2956 
Q 1356 3278 1631 3431 
Q 1906 3584 2284 3584 
Q 2666 3584 2933 3390 
Q 3200 3197 3328 2828 
z
" id="DejaVuSans-6d" transform="scale(0.015625)"/>
     </defs>
     <use xlink:href="#DejaVuSans-57"/>
     <use x="96.626953" xlink:href="#DejaVuSans-69"/>
     <use x="124.410156" xlink:href="#DejaVuSans-6c"/>
     <use x="152.193359" xlink:href="#DejaVuSans-6d"/>
     <use x="249.605469" xlink:href="#DejaVuSans-6f"/>
     <use x="310.787109" xlink:href="#DejaVuSans-74"/>
     <use x="349.996094" xlink:href="#DejaVuSans-20"/>
     <use x="381.783203" xlink:href="#DejaVuSans-4d"/>
     <use x="468.0625" xlink:href="#DejaVuSans-6f"/>
     <use x="529.244141" xlink:href="#DejaVuSans-75"/>
     <use x="592.623047" xlink:href="#DejaVuSans-6e"/>
     <use x="656.001953" xlink:href="#DejaVuSans-74"/>
     <use x="695.210938" xlink:href="#DejaVuSans-61"/>
     <use x="756.490234" xlink:href="#DejaVuSans-69"/>
     <use x="784.273438" xlink:href="#DejaVuSans-6e"/>
    </g>
   </g>
   <g id="legend_1">
    <g id="line2d_44">
     <path d="M 2.960272 93.626842 
L 9.960272 93.626842 
" style="fill:none;stroke:#008000;stroke-linecap:square;stroke-width:0.481126;"/>
    </g>
    <g id="line2d_45"/>
    <g id="text_25">
     <!-- Easy -->
     <g transform="translate(12.760272 94.851842)scale(0.035 -0.035)">
      <use xlink:href="#DejaVuSans-45"/>
      <use x="63.183594" xlink:href="#DejaVuSans-61"/>
      <use x="124.462891" xlink:href="#DejaVuSans-73"/>
      <use x="176.5625" xlink:href="#DejaVuSans-79"/>
     </g>
    </g>
    <g id="line2d_46">
     <path d="M 2.960272 98.764185 
L 9.960272 98.764185 
" style="fill:none;stroke:#4169e1;stroke-linecap:square;stroke-width:0.481126;"/>
    </g>
    <g id="line2d_47"/>
    <g id="text_26">
     <!-- Intermediate -->
     <g transform="translate(12.760272 99.989185)scale(0.035 -0.035)">
      <use xlink:href="#DejaVuSans-49"/>
      <use x="29.492188" xlink:href="#DejaVuSans-6e"/>
      <use x="92.871094" xlink:href="#DejaVuSans-74"/>
      <use x="132.080078" xlink:href="#DejaVuSans-65"/>
      <use x="193.603516" xlink:href="#DejaVuSans-72"/>
      <use x="232.966797" xlink:href="#DejaVuSans-6d"/>
      <use x="330.378906" xlink:href="#DejaVuSans-65"/>
      <use x="391.902344" xlink:href="#DejaVuSans-64"/>
      <use x="455.378906" xlink:href="#DejaVuSans-69"/>
      <use x="483.162109" xlink:href="#DejaVuSans-61"/>
      <use x="544.441406" xlink:href="#DejaVuSans-74"/>
      <use x="583.650391" xlink:href="#DejaVuSans-65"/>
     </g>
    </g>
    <g id="line2d_48">
     <path d="M 42.341834 93.626842 
L 49.341834 93.626842 
" style="fill:none;stroke:#000000;stroke-linecap:square;stroke-width:0.481126;"/>
    </g>
    <g id="line2d_49"/>
    <g id="text_27">
     <!-- Advanced -->
     <g transform="translate(52.141834 94.851842)scale(0.035 -0.035)">
      <defs>
       <path d="M 2188 4044 
L 1331 1722 
L 3047 1722 
L 2188 4044 
z
M 1831 4666 
L 2547 4666 
L 4325 0 
L 3669 0 
L 3244 1197 
L 1141 1197 
L 716 0 
L 50 0 
L 1831 4666 
z
" id="DejaVuSans-41" transform="scale(0.015625)"/>
       <path d="M 191 3500 
L 800 3500 
L 1894 563 
L 2988 3500 
L 3597 3500 
L 2284 0 
L 1503 0 
L 191 3500 
z
" id="DejaVuSans-76" transform="scale(0.015625)"/>
      </defs>
      <use xlink:href="#DejaVuSans-41"/>
      <use x="66.658203" xlink:href="#DejaVuSans-64"/>
      <use x="130.134766" xlink:href="#DejaVuSans-76"/>
      <use x="189.314453" xlink:href="#DejaVuSans-61"/>
      <use x="250.59375" xlink:href="#DejaVuSans-6e"/>
      <use x="313.972656" xlink:href="#DejaVuSans-63"/>
      <use x="368.953125" xlink:href="#DejaVuSans-65"/>
      <use x="430.476562" xlink:href="#DejaVuSans-64"/>
     </g>
    </g>
    <g id="line2d_50">
     <path d="M 42.341834 98.764185 
L 49.341834 98.764185 
" style="fill:none;stroke:#ff0000;stroke-linecap:square;stroke-width:0.481126;"/>
    </g>
    <g id="line2d_51"/>
    <g id="text_28">
     <!-- Expert -->
     <g transform="translate(52.141834 99.989185)scale(0.035 -0.035)">
      <use xlink:href="#DejaVuSans-45"/>
      <use x="63.183594" xlink:href="#DejaVuSans-78"/>
      <use x="122.363281" xlink:href="#DejaVuSans-70"/>
      <use x="185.839844" xlink:href="#DejaVuSans-65"/>
      <use x="247.363281" xlink:href="#DejaVuSans-72"/>
      <use x="288.476562" xlink:href="#DejaVuSans-74"/>
     </g>
    </g>
    <g id="line2d_52">
     <path d="M 76.431287 93.626842 
L 83.431287 93.626842 
" style="fill:none;stroke:#ffd700;stroke-linecap:square;stroke-width:0.481126;"/>
    </g>
    <g id="line2d_53"/>
    <g id="text_29">
     <!-- Extreme -->
     <g transform="translate(86.231287 94.851842)scale(0.035 -0.035)">
      <use xlink:href="#DejaVuSans-45"/>
      <use x="63.183594" xlink:href="#DejaVuSans-78"/>
      <use x="122.363281" xlink:href="#DejaVuSans-74"/>
      <use x="161.572266" xlink:href="#DejaVuSans-72"/>
      <use x="200.435547" xlink:href="#DejaVuSans-65"/>
      <use x="261.958984" xlink:href="#DejaVuSans-6d"/>
      <use x="359.371094" xlink:href="#DejaVuSans-65"/>
     </g>
    </g>
    <g id="line2d_54">
     <path d="M 76.431287 98.764185 
L 83.431287 98.764185 
" style="fill:none;stroke:#000000;stroke-dasharray:0.481126,0.793858;stroke-dashoffset:0;stroke-width:0.481126;"/>
    </g>
    <g id="line2d_55"/>
    <g id="text_30">
     <!-- Gladed -->
     <g transform="translate(86.231287 99.989185)scale(0.035 -0.035)">
      <use xlink:href="#DejaVuSans-47"/>
      <use x="77.490234" xlink:href="#DejaVuSans-6c"/>
      <use x="105.273438" xlink:href="#DejaVuSans-61"/>
      <use x="166.552734" xlink:href="#DejaVuSans-64"/>
      <use x="230.029297" xlink:href="#DejaVuSans-65"/>
      <use x="291.552734" xlink:href="#DejaVuSans-64"/>
     </g>
    </g>
   </g>
  </g>
  <g id="text_31">
   <!-- Sources: USGS and OpenStreetMaps -->
   <g transform="translate(24.199173 105.569918)scale(0.030435 -0.030435)">
    <defs>
     <path d="M 750 794 
L 1409 794 
L 1409 0 
L 750 0 
L 750 794 
z
M 750 3309 
L 1409 3309 
L 1409 2516 
L 750 2516 
L 750 3309 
z
" id="DejaVuSans-3a" transform="scale(0.015625)"/>
     <path d="M 556 4666 
L 1191 4666 
L 1191 1831 
Q 1191 1081 1462 751 
Q 1734 422 2344 422 
Q 2950 422 3222 751 
Q 3494 1081 3494 1831 
L 3494 4666 
L 4128 4666 
L 4128 1753 
Q 4128 841 3676 375 
Q 3225 -91 2344 -91 
Q 1459 -91 1007 375 
Q 556 841 556 1753 
L 556 4666 
z
" id="DejaVuSans-55" transform="scale(0.015625)"/>
     <path d="M 2522 4238 
Q 1834 4238 1429 3725 
Q 1025 3213 1025 2328 
Q 1025 1447 1429 934 
Q 1834 422 2522 422 
Q 3209 422 3611 934 
Q 4013 1447 4013 2328 
Q 4013 3213 3611 3725 
Q 3209 4238 2522 4238 
z
M 2522 4750 
Q 3503 4750 4090 4092 
Q 4678 3434 4678 2328 
Q 4678 1225 4090 567 
Q 3503 -91 2522 -91 
Q 1538 -91 948 565 
Q 359 1222 359 2328 
Q 359 3434 948 4092 
Q 1538 4750 2522 4750 
z
" id="DejaVuSans-4f" transform="scale(0.015625)"/>
    </defs>
    <use xlink:href="#DejaVuSans-53"/>
    <use x="63.476562" xlink:href="#DejaVuSans-6f"/>
    <use x="124.658203" xlink:href="#DejaVuSans-75"/>
    <use x="188.037109" xlink:href="#DejaVuSans-72"/>
    <use x="226.900391" xlink:href="#DejaVuSans-63"/>
    <use x="281.880859" xlink:href="#DejaVuSans-65"/>
    <use x="343.404297" xlink:href="#DejaVuSans-73"/>
    <use x="395.503906" xlink:href="#DejaVuSans-3a"/>
    <use x="429.195312" xlink:href="#DejaVuSans-20"/>
    <use x="460.982422" xlink:href="#DejaVuSans-55"/>
    <use x="534.175781" xlink:href="#DejaVuSans-53"/>
    <use x="597.652344" xlink:href="#DejaVuSans-47"/>
    <use x="675.142578" xlink:href="#DejaVuSans-53"/>
    <use x="738.619141" xlink:href="#DejaVuSans-20"/>
    <use x="770.40625" xlink:href="#DejaVuSans-61"/>
    <use x="831.685547" xlink:href="#DejaVuSans-6e"/>
    <use x="895.064453" xlink:href="#DejaVuSans-64"/>
    <use x="958.541016" xlink:href="#DejaVuSans-20"/>
    <use x="990.328125" xlink:href="#DejaVuSans-4f"/>
    <use x="1069.039062" xlink:href="#DejaVuSans-70"/>
    <use x="1132.515625" xlink:href="#DejaVuSans-65"/>
    <use x="1194.039062" xlink:href="#DejaVuSans-6e"/>
    <use x="1257.417969" xlink:href="#DejaVuSans-53"/>
    <use x="1320.894531" xlink:href="#DejaVuSans-74"/>
    <use x="1360.103516" xlink:href="#DejaVuSans-72"/>
    <use x="1398.966797" xlink:href="#DejaVuSans-65"/>
    <use x="1460.490234" xlink:href="#DejaVuSans-65"/>
    <use x="1522.013672" xlink:href="#DejaVuSans-74"/>
    <use x="1561.222656" xlink:href="#DejaVuSans-4d"/>
    <use x="1647.501953" xlink:href="#DejaVuSans-61"/>
    <use x="1708.78125" xlink:href="#DejaVuSans-70"/>
    <use x="1772.257812" xlink:href="#DejaVuSans-73"/>
   </g>
  </g>
 </g>
 <defs>
  <clipPath id="p3f07f56a1f">
   <rect height="83.928772" width="103.923278" x="0" y="11.137047"/>
  </clipPath>
 </defs>
</svg>
